<?xml version="1.0" encoding="UTF-8" standalone="no"?>
<svg
   xmlns:dc="http://purl.org/dc/elements/1.1/"
   xmlns:cc="http://creativecommons.org/ns#"
   xmlns:rdf="http://www.w3.org/1999/02/22-rdf-syntax-ns#"
   xmlns:svg="http://www.w3.org/2000/svg"
   xmlns="http://www.w3.org/2000/svg"
   xmlns:xlink="http://www.w3.org/1999/xlink"
   version="1.1"
   width="5360"
   height="5360"
   viewBox="0 16 5360 5360"
   id="svg2">
  <metadata
     id="metadata15621">
    <rdf:RDF>
      <cc:Work
         rdf:about="">
        <dc:format>image/svg+xml</dc:format>
        <dc:type
           rdf:resource="http://purl.org/dc/dcmitype/StillImage" />
        <dc:title></dc:title>
      </cc:Work>
    </rdf:RDF>
  </metadata>
  <defs
     id="defs6" />
  <image
     xlink:href="../../timelines/streetmap/nycosm.png"
     style="display:none"
     id="image12"
     height="5376"
     width="5888"
     y="0"
     x="-512" />
  <path
     d="m 2820,3147 93,43 154,115 72,55 320,239 21,16"
     id="path3619"
     style="fill:none;stroke:#6c6e70;stroke-width:5;stroke-linecap:butt;stroke-linejoin:round;stroke-miterlimit:4;stroke-opacity:1;stroke-dasharray:none" />
  <path
     d="m 2377.5,3070 -21.5,33.5 -27,38 -24.5,25 -26.5,10.5 -14,13 -9,15 -30,25.5 3.5,12.5 -30,9 1.5,11"
     id="path4555"
     style="fill:none;stroke:#ff0080;stroke-width:5;stroke-linecap:butt;stroke-linejoin:round;stroke-miterlimit:4;stroke-opacity:1;stroke-dasharray:none" />
  <path
     d="m 2604,2583 66.5,38"
     id="path4577"
     style="fill:none;stroke:#6c6e70;stroke-width:5;stroke-linecap:butt;stroke-linejoin:round;stroke-miterlimit:4;stroke-opacity:1;stroke-dasharray:none" />
  <path
     d="m 2643.5,2512.5 -38.5,-21"
     id="path5111"
     style="fill:none;stroke:#6c6e70;stroke-width:5;stroke-linecap:butt;stroke-linejoin:round;stroke-miterlimit:4;stroke-opacity:1;stroke-dasharray:none" />
  <path
     d="m 2382,3072 -19.5,31 -29.5,40.9999 -25,26.5002 -26.5,10.4999 -14,11.5 -8,13.9999 -29.5,25.5001 5,13.0001 -30.5,10.4999 0,6.0001"
     id="path9453"
     style="fill:none;stroke:#7bd9f5;stroke-width:5.00000048;stroke-linecap:butt;stroke-linejoin:round;stroke-miterlimit:4;stroke-opacity:1;stroke-dasharray:none" />
  <path
     d="m 2377.5,3069.4999 -84,27.0001"
     id="path8941"
     style="fill:none;stroke:#ff0080;stroke-width:5.00000048;stroke-linecap:butt;stroke-linejoin:round;stroke-miterlimit:4;stroke-opacity:1;stroke-dasharray:none" />
  <path
     d="m 2754,2373.5 -111.5,203 -71,128 28,15 -114,205.5 -47,127 -5,14 -45.5586,4.9618 L 2381,3073"
     id="path5124"
     style="fill:none;stroke:#7bd9f5;stroke-width:5;stroke-linecap:butt;stroke-linejoin:round;stroke-miterlimit:4;stroke-opacity:1;stroke-dasharray:none" />
  <path
     d="m 2753,2375.5 16,-28.5"
     id="path6156"
     style="fill:none;stroke:#7bd9f5;stroke-width:5;stroke-linecap:butt;stroke-linejoin:round;stroke-miterlimit:4;stroke-opacity:1;stroke-dasharray:none" />
  <path
     d="m 2769,2347 91,-164 132.5,-239.5 120.5,-218.5 28,-48"
     id="path6185"
     style="fill:none;stroke:#7bd9f5;stroke-width:5;stroke-linecap:butt;stroke-linejoin:round;stroke-miterlimit:4;stroke-opacity:1;stroke-dasharray:none" />
  <path
     d="m 2710,3120 64,8.5 53,21.5"
     id="path11410"
     style="fill:none;stroke:#6c6e70;stroke-width:5;stroke-linecap:butt;stroke-linejoin:round;stroke-miterlimit:4;stroke-opacity:1;stroke-dasharray:none" />
  <path
     d="m 3293.5,1510.5 35.5,-26 28,-33.9999 21.5,-42.5 26.5,-10 14,-35.5 32.5,-109 26,-52 37,-65.5 16.5,-33 20.5,-49 9.6406,-26.9497"
     id="path7444"
     style="fill:none;stroke:#6c6e70;stroke-width:5;stroke-linecap:butt;stroke-linejoin:round;stroke-miterlimit:4;stroke-opacity:1;stroke-dasharray:none" />
  <path
     d="m 2195.5,3262 -0.5,-9.5 -11,0 -8,-14.5 0.5,-15 6.5,-29 14.1616,-17.9736 11.0884,-18.2764 21.75,-43 10.25,-20.75 11.75,-17.5 -14.75,-9.5 33.75,-61 10.5,-20.5 25.5,-44.5 68,-105.5 -37,-23 22,-45.5 10,-24.5 74.5,-135 41.0285,-73.9487 28.9715,-54.0513 77,-140.5 34.5,-61"
     id="path6424"
     style="fill:none;stroke:#ff6600;stroke-width:5;stroke-linecap:butt;stroke-linejoin:round;stroke-miterlimit:4;stroke-opacity:1;stroke-dasharray:none" />
  <path
     d="m 3143.5135,1670.2012 -13.8232,25.7035"
     id="path12003"
     style="fill:none;stroke:#7bd9f5;stroke-width:5;stroke-linecap:butt;stroke-linejoin:round;stroke-miterlimit:4;stroke-opacity:1;stroke-dasharray:none" />
  <path
     d="m 3298,1508 -20.5,16.5 -69.5,129 -7.5,8"
     id="path13467"
     style="fill:none;stroke:#6c6e70;stroke-width:5;stroke-linecap:butt;stroke-linejoin:round;stroke-miterlimit:4;stroke-opacity:1;stroke-dasharray:none" />
  <path
     d="m 2377.5,3069.5 8.0758,-12.4673 L 2413,2993.5 l 17.5,-57.5 19.5,-73.5 40.5,-73.5 99,-178.5 91,-165.5 80,-145 91.5,-164.5 100,-181.5 143.5,-260 23.9831,-42.3983"
     id="path9814"
     style="fill:none;stroke:#ff0080;stroke-width:5;stroke-linecap:butt;stroke-linejoin:round;stroke-miterlimit:4;stroke-opacity:1;stroke-dasharray:none" />
  <path
     d="m 2191,3263.5 0,-7 -8.5,0 -11,-16.5 0.5,-16 7.5,-37.5 12,-35 12,-35.5 9,-31.5 19,-105 20,-151.5 11,-44 3.5,-24 8,-36 0.5,-44 31.5,-55.5 130.5,-236.5 79,-146 14.0785,-25.633"
     id="path6936"
     style="fill:none;stroke:#29084a;stroke-width:5;stroke-linecap:butt;stroke-linejoin:round;stroke-miterlimit:4;stroke-opacity:1;stroke-dasharray:none" />
  <path
     d="m 2592,2340 -93.5,-55 38.5,-74 117.5,-212.5 147.611,-267.9408 9.8909,-3.7874 22.228,12.0863 14.2983,-3.8385 57.9107,-105.5539 177.561,-338.4656"
     id="path6938"
     style="fill:none;stroke:#ff6600;stroke-width:5;stroke-linecap:butt;stroke-linejoin:round;stroke-miterlimit:4;stroke-opacity:1;stroke-dasharray:none" />
  <text
     x="89.45269"
     y="222.96094"
     id="text3652"
     xml:space="preserve"
     style="font-size:144px;font-style:normal;font-weight:normal;fill:#000000;fill-opacity:1;stroke:none;font-family:Sans;-inkscape-font-specification:Sans"><tspan
       x="89.45269"
       y="222.96094"
       id="tspan1">1895</tspan></text>
  <text
     x="89.45269"
     y="5273.9609"
     id="text3652-1"
     xml:space="preserve"
     style="font-size:144px;font-style:normal;font-weight:normal;fill:#000000;fill-opacity:1;stroke:none;font-family:Sans;-inkscape-font-specification:Sans"><tspan
       x="89.45269"
       y="5273.9609"
       id="tspan2">1895</tspan></text>
  <path
     d="m 2013.445,2736.8672 -41.5209,-1.5969 -101.5666,-23.9544 -61.3232,-29.2291 -28.4952,-15.9793 -33.1474,-17.7118 -7.0266,1.2776 -49.1863,91.9848 -7.6654,20.4411 -13.095,14.692 -5.1103,3.8327 -9.5819,5.1099"
     id="path3104"
     style="fill:none;stroke:#009174;stroke-width:5;stroke-linecap:butt;stroke-linejoin:round;stroke-miterlimit:4;stroke-opacity:1;stroke-dasharray:none" />
  <path
     d="m 3631.2542,3617.1271 16.5076,-2.2664 15.5128,-4.9738 L 3833,3540 l 7,-9 -20,-76 -1,-4"
     id="path9622"
     style="fill:none;stroke:#6c6e70;stroke-width:5;stroke-linecap:butt;stroke-linejoin:round;stroke-miterlimit:4;stroke-dasharray:none;stroke-opacity:1" />
  <path
     d="m 3122.617,1653.0118 11.8548,6.6504 14.5975,7.2988 22.6514,-11.5774 23.6581,9.3122 8.5572,-6.5437"
     id="path9814-9"
     style="fill:none;stroke:#6c6e70;stroke-width:5;stroke-linecap:butt;stroke-linejoin:round;stroke-miterlimit:4;stroke-opacity:1;stroke-dasharray:none" />
  <path
     style="fill:none;stroke:#006000;stroke-width:5;stroke-linecap:butt;stroke-linejoin:round;stroke-miterlimit:4;stroke-dasharray:none;stroke-opacity:1"
     id="path4559"
     d="m 2763.2176,3385.514 5.72,4.333 7.562,51.153 6.5,28.5 3.616,21.696 5.918,3.794 206.466,-30.99 169.5,-25.5 55,-8.5 139.5,104.5 104.4958,77.6782 7.4668,5.5505" />
  <path
     style="fill:none;stroke:#800000;stroke-width:5;stroke-linecap:butt;stroke-linejoin:round;stroke-miterlimit:4;stroke-dasharray:none;stroke-opacity:1"
     id="path6287"
     d="m 2407.9998,3239.7501 22.5,13 24.6124,25.8893 -4.1124,13.8607 0,37.9078 5.6157,19.4664 7.3843,28.6258 6,14.5 4.5,5 36.5,18.5 66,38.5 50.7712,31.7881 96.5169,51.2966 171.7966,47.9322 383.9153,26 188.8305,13.8645 8.0848,5.5" />
  <path
     d="m 2322.7159,4013.622 1.9019,-4.7686 27.8819,-34.8529 111.5,-142.5 91.5,-144.5 10,-15.5 31.5,-60.5 23.5,-47.5 -8.5,-35.5 -30.5,-66 -9,-72 -5.7203,-4.9915"
     id="path6281-4"
     style="fill:none;stroke:#006000;stroke-width:5;stroke-linecap:butt;stroke-linejoin:round;stroke-miterlimit:4;stroke-dasharray:none;stroke-opacity:1" />
  <path
     d="m 3911.1329,3612.862 -75.6327,13.1381 5.5,33.5 -331.3604,65.8928 -10.1311,2.0055 -4.4551,-3.9762 -7.5026,-39.295 -1.305,-23.8644 0.8305,-22.3644 -11.5763,-8.8983"
     id="path3628"
     style="fill:none;stroke:#800000;stroke-width:5;stroke-linecap:butt;stroke-linejoin:round;stroke-miterlimit:4;stroke-dasharray:none;stroke-opacity:1" />
  <path
     style="fill:none;stroke:#006000;stroke-width:5;stroke-linecap:butt;stroke-linejoin:round;stroke-miterlimit:4;stroke-dasharray:none;stroke-opacity:1"
     id="path6285"
     d="m 2327.2365,4005.6784 -10.3865,14.0074 -6.347,2.0765 -4.7161,-2.1118 -42.4134,-33.7167 -7.4179,0.1334 -190.4556,243.4323" />
  <path
     style="fill:none;stroke:#808000;stroke-width:5;stroke-linecap:butt;stroke-linejoin:round;stroke-miterlimit:4;stroke-dasharray:none;stroke-opacity:1"
     id="path12738"
     d="m 2583.9578,3382.9737 -6.9204,-1.141 -5.2712,-5.2583 -2.5965,-105.3536 -7.9915,-4.7881 -96.678,-5.4322 -7.3471,-0.3922 -26.111,-27.143 -18.792,-3.215" />
  <path
     d="m 2764.7842,3386.2065 -6.3957,-0.6196 -10.8885,1.4131 -33,5 -77,-2 -130,-8"
     id="path3623"
     style="fill:none;stroke:#006000;stroke-width:5;stroke-linecap:butt;stroke-linejoin:round;stroke-miterlimit:4;stroke-dasharray:none;stroke-opacity:1" />
  <path
     style="fill:none;stroke:#006000;stroke-width:5;stroke-linecap:butt;stroke-linejoin:round;stroke-miterlimit:4;stroke-dasharray:none;stroke-opacity:1"
     id="path5126-5"
     d="m 2507.9998,3382.0004 -28.2382,-1.2382 1.7584,-56.7618" />
  <path
     style="fill:none;stroke:#006000;stroke-width:5;stroke-linecap:butt;stroke-linejoin:round;stroke-miterlimit:4;stroke-dasharray:none;stroke-opacity:1"
     id="path6281-6"
     d="m 2481.4829,3324.0041 1.0168,-28.0033 -26.7752,-0.5" />
  <path
     style="fill:none;stroke:#808000;stroke-width:5;stroke-linecap:butt;stroke-linejoin:round;stroke-miterlimit:4;stroke-dasharray:none;stroke-opacity:1"
     id="path21527"
     d="m 3381.4087,3292.591 -22.4086,5.409 -230,29 -148.5001,25 -228.7214,29.463 -37.782,6.2584 -75.9932,-2.2517 -55.7538,-3.7214" />
  <path
     style="fill:none;stroke:#6c6e70;stroke-width:5;stroke-linecap:butt;stroke-linejoin:round;stroke-miterlimit:4;stroke-dasharray:none;stroke-opacity:1"
     id="path5126"
     d="m 2300.0001,3103.0003 137.5,144.5 31,33 0,22" />
  <path
     d="m 3478.4493,3613.3559 9.0508,5.1441 28,18 117,-20"
     id="path4043"
     style="fill:none;stroke:#6c6e70;stroke-width:5;stroke-linecap:butt;stroke-linejoin:round;stroke-miterlimit:4;stroke-dasharray:none;stroke-opacity:1" />
  <path
     d="m 3474.544,3616.5804 40.4563,25.4194 25.9382,-4.6058 78.0173,-13.8536"
     id="path9622-6"
     style="fill:none;stroke:#006000;stroke-width:5;stroke-linecap:butt;stroke-linejoin:round;stroke-miterlimit:4;stroke-dasharray:none;stroke-opacity:1" />
</svg>
