<?xml version="1.0" encoding="UTF-8" standalone="no"?>
<svg
   xmlns:dc="http://purl.org/dc/elements/1.1/"
   xmlns:cc="http://creativecommons.org/ns#"
   xmlns:rdf="http://www.w3.org/1999/02/22-rdf-syntax-ns#"
   xmlns:svg="http://www.w3.org/2000/svg"
   xmlns="http://www.w3.org/2000/svg"
   xmlns:xlink="http://www.w3.org/1999/xlink"
   id="svg2"
   viewBox="-50 16 5400 5350"
   height="5350"
   width="5400"
   version="1.1">
  <metadata
     id="metadata15371">
    <rdf:RDF>
      <cc:Work
         rdf:about="">
        <dc:format>image/svg+xml</dc:format>
        <dc:type
           rdf:resource="http://purl.org/dc/dcmitype/StillImage" />
        <dc:title></dc:title>
      </cc:Work>
    </rdf:RDF>
  </metadata>
  <defs
     id="defs6" />
  <image
     xlink:href="../../streetmap/nycosm.png"
     id="image12"
     height="5376"
     width="5888"
     y="0"
     x="-512"
     style="display:none" />
  <path
     style="fill:none;stroke:#00a65b;stroke-width:5;stroke-linecap:butt;stroke-linejoin:round;stroke-miterlimit:4;stroke-opacity:1;stroke-dasharray:none"
     id="path3649"
     d="m 2375.3675,3384.8991 103.7174,19.8957 L 2506,3419 l 57,32 12,11 35.5,73" />
  <path
     style="fill:none;stroke:#b0720c;stroke-width:5;stroke-linecap:butt;stroke-linejoin:round;stroke-miterlimit:4;stroke-dasharray:none;stroke-opacity:1"
     id="path3617"
     d="M 3478.395,3614.032 3483,3629 l -1.5251,28.3327 1.5962,28.3744 6.4201,36.785 -3.7755,9.9762 L 3511,3856 l 16.2671,83.0785" />
  <path
     style="fill:none;stroke:#b0720c;stroke-width:5;stroke-linecap:butt;stroke-linejoin:round;stroke-miterlimit:4;stroke-opacity:1;stroke-dasharray:none"
     id="path3619"
     d="M 2484.9302,3000.0003 2550,3028 l 224,91 32,12 14,16 93,43 154,115 72,55 320,239 21,17.5" />
  <path
     style="fill:none;stroke:#006000;stroke-width:1;stroke-linecap:butt;stroke-linejoin:round;stroke-miterlimit:4;stroke-dasharray:none;stroke-opacity:1"
     id="path3608"
     d="m 2384.5,4421.5 2.7475,10.6397 L 2401,4457 l 132,105 15,21 7,18 35,248 16,101 -6,51 -20,82 -9.9153,20.4492" />
  <path
     style="fill:none;stroke:#6c6e70;stroke-width:5;stroke-linecap:butt;stroke-linejoin:round;stroke-miterlimit:4;stroke-opacity:1;stroke-dasharray:none"
     id="path4043"
     d="m 2710,3120 64,8.5 55.5,17 86.5,40.5 121,90.5 167,126.5 169.5,125.5 111,84.5 3,5.5 28,18 117,-20 112,-45 87,-35 4,-6 -19.5,-72.5 -1.4686,-5.3213" />
  <path
     style="fill:none;stroke:#00a65b;stroke-width:5;stroke-linecap:butt;stroke-linejoin:round;stroke-miterlimit:4;stroke-opacity:1;stroke-dasharray:none"
     id="path3627"
     d="m 2606,2483.5 -2,12.5 -138,250 v 34 l -9,36 -54,84 -18,29 -7,25 -53,73 -14,25 -3,16 -19,27 -31,15" />
  <path
     style="fill:none;stroke:#00a65b;stroke-width:5;stroke-linecap:butt;stroke-linejoin:round;stroke-miterlimit:4;stroke-opacity:1;stroke-dasharray:none"
     id="path3629"
     d="m 2263,3107 -16,9 -29.5,46.5 -31.5,54.5 -4.572,14.4779 1.8965,9.398 10.6316,20.472 24.083,22.7706 L 2266,3318 l 79,59 31,8" />
  <path
     style="fill:none;stroke:#00a65b;stroke-width:5;stroke-linecap:butt;stroke-linejoin:round;stroke-miterlimit:4;stroke-opacity:1;stroke-dasharray:none"
     id="path3641"
     d="m 2506.5,2425.5 -2.5876,-10.5879 L 2519,2387 l 8,-25 18,-38 12,-31 5,-33 -5,-56 -1,-119 12,-54 32,-67 54,-86 26,-48 36,-67 5,-14 2,-32 5,-19 97,-173 123,-222 102,-185 127,-229 20,-36 20,-36 14,-20 49,-23 13,-14 57,-108 72,-74 16,-11 51,-89 46,-111" />
  <path
     style="fill:none;stroke:#00a65b;stroke-width:5;stroke-linecap:butt;stroke-linejoin:round;stroke-miterlimit:4;stroke-opacity:1;stroke-dasharray:none"
     id="path3661"
     d="m 2606,2485 -1.3135,-4.326 L 2506.5,2424.5" />
  <path
     style="fill:none;stroke:#6c6e70;stroke-width:5;stroke-linecap:butt;stroke-linejoin:round;stroke-miterlimit:4;stroke-opacity:1;stroke-dasharray:none"
     id="path6499"
     d="m 2189,3261.5 -7.5,-12.5 -2.4582,-8.5285 -2.0684,-8.8669 5.749,-16.9278" />
  <path
     style="fill:none;stroke:#00a65b;stroke-width:5;stroke-linecap:butt;stroke-linejoin:round;stroke-miterlimit:4;stroke-opacity:1;stroke-dasharray:none"
     id="path3645"
     d="M 3096.7027,1425.6089 3075,1466" />
  <path
     style="fill:none;stroke:#ff0080;stroke-width:5;stroke-linecap:butt;stroke-linejoin:round;stroke-miterlimit:4;stroke-opacity:1;stroke-dasharray:none"
     id="path4022"
     d="m 3634.5,788 58,-47" />
  <path
     style="fill:none;stroke:#ff0080;stroke-width:5;stroke-linecap:butt;stroke-linejoin:round;stroke-miterlimit:4;stroke-opacity:1;stroke-dasharray:none"
     id="path4555"
     d="m 2377.5,3070 -21.5,33.5 -27,38 -24.5,25 -26.5,10.5 -14,13 -9,15 -30,25.5 3.5,12.5 -30,9 1.5,11" />
  <path
     style="fill:none;stroke:#6c6e70;stroke-width:5;stroke-linecap:butt;stroke-linejoin:round;stroke-miterlimit:4;stroke-opacity:1;stroke-dasharray:none"
     id="path4577"
     d="m 2604,2583 66.5,38" />
  <path
     style="fill:none;stroke:#6c6e70;stroke-width:5;stroke-linecap:butt;stroke-linejoin:round;stroke-miterlimit:4;stroke-opacity:1;stroke-dasharray:none"
     id="path5111"
     d="m 2643.5,2512.5 -38.5,-21" />
  <path
     style="fill:none;stroke:#7bd9f5;stroke-width:5.00000048;stroke-linecap:butt;stroke-linejoin:round;stroke-miterlimit:4;stroke-opacity:1;stroke-dasharray:none"
     id="path9453"
     d="m 2383.5,3070 -21,33 -29.5,40.9999 -25,26.5002 -26.5,10.4999 -14,11.5 -8,13.9999 -29.5,25.5001 5,13.0001 -30.5,10.4999 0,6.0001" />
  <path
     style="fill:none;stroke:#ff0080;stroke-width:5.00000048;stroke-linecap:butt;stroke-linejoin:round;stroke-miterlimit:4;stroke-opacity:1;stroke-dasharray:none"
     id="path8941"
     d="m 2377.5,3069.4999 -84,27.0001" />
  <path
     style="fill:none;stroke:#7bd9f5;stroke-width:5;stroke-linecap:butt;stroke-linejoin:round;stroke-miterlimit:4;stroke-opacity:1;stroke-dasharray:none"
     id="path5124"
     d="m 2754,2373.5 -111.5,203 -69.4285,125.1669 1.3421,4.1168 21.9626,12.0083 1.6048,4.3335 L 2485.5,2925 l -47,127 -5,14 -50.5,5.5" />
  <path
     style="fill:none;stroke:#7bd9f5;stroke-width:5;stroke-linecap:butt;stroke-linejoin:round;stroke-miterlimit:4;stroke-opacity:1;stroke-dasharray:none"
     id="path6156"
     d="m 2753,2375.5 16,-28.5" />
  <path
     style="fill:none;stroke:#7ea3d5;stroke-width:5;stroke-linecap:butt;stroke-linejoin:round;stroke-miterlimit:4;stroke-opacity:1;stroke-dasharray:none"
     id="path2955"
     d="m 2483,2528 -47.5877,84.7252 L 2376,2721.5 l -20,41 -98,20.5 -6.5,27 -136.5,-4.5 -116,-3 -23.5,-1.5 -15,-4 -7.5,-7.5 1,-21 5.5,-22 8.5,-6 14,-1 42.5,2" />
  <path
     style="fill:none;stroke:#7ea3d5;stroke-width:5;stroke-linecap:butt;stroke-linejoin:round;stroke-miterlimit:4;stroke-opacity:1;stroke-dasharray:none"
     id="path3772"
     d="m 1952.5,2787.4998 -7,51.5 2.5,18.5 -1.5,15 -9,17.5 -10,39.5 -6.5,52.5 -3,23.5 5.4635,11.0134 21.5365,6.4866 45.8732,12.6119 191.2387,74.1493 11.6177,4.5074 9.1565,3.8688 8.4469,3.891 4.1283,-1.7285 5.053,-11.0739 -0.7344,-4.0903 -7.7125,-5.0753 -10.3721,-5.9682 -11.4264,-5.525 -153.5821,-43.5672 -30.0895,-9.0896 -47.6419,-9.4029" />
  <path
     style="fill:none;stroke:#7ea3d5;stroke-width:5;stroke-linecap:butt;stroke-linejoin:round;stroke-miterlimit:4;stroke-opacity:1;stroke-dasharray:none"
     id="path3821"
     d="m 1971.5,2800 -14.5,3.5 -7.5,9.5" />
  <path
     style="fill:none;stroke:#00a65b;stroke-width:5;stroke-linecap:butt;stroke-linejoin:round;stroke-miterlimit:4;stroke-dasharray:none;stroke-opacity:1"
     id="path3643"
     d="m 2718,1761.0004 12,-4 82,44 91,-26 156,-280 18.4952,-34.1139 7.6268,-4.7674 L 3116,1452 l 50,-1 19.9999,8 123.5,41 14,8.5 15.5,-6 13,-5.5 55,6 57,-38.5 135.5,-91.5 6.5,-5 2.5,-85.5 34.2102,-80.906 16.2899,-32.094 30.5,-23.5 18,-7 32.5,-6 9,-9.5 12.0001,-16.5 13.5,-28.5" />
  <path
     style="fill:none;stroke:#ff0080;stroke-width:5;stroke-linecap:butt;stroke-linejoin:round;stroke-miterlimit:4;stroke-opacity:1;stroke-dasharray:none"
     id="path7444"
     d="m 3298,1508 31,-23.5 28,-34 21.5,-42.5 26.5,-10 14,-35.5 32.5,-109 26,-52 37,-65.5 16.5,-33 20.5,-49 22,-61.5 9.5,-24 43.5,-62 -7.5,-28.5 -0.5,-53.5 15.5727,-37.76383" />
  <path
     style="fill:none;stroke:#006000;stroke-width:5;stroke-linecap:butt;stroke-linejoin:round;stroke-miterlimit:4;stroke-dasharray:none;stroke-opacity:1"
     id="path9622"
     d="M 3474.5437,3616.5806 3515,3642 l 107,-19 24,-6 187,-77 7,-9 -20,-76 -1,-4" />
  <path
     style="fill:none;stroke:#7ea3d5;stroke-width:5;stroke-linecap:butt;stroke-linejoin:round;stroke-miterlimit:4;stroke-opacity:1;stroke-dasharray:none"
     id="path3823"
     d="m 1918,3006.5 -8.251,5.6018 -62.5484,-26.0829" />
  <path
     style="fill:none;stroke:#7ea3d5;stroke-width:5;stroke-linecap:butt;stroke-linejoin:round;stroke-miterlimit:4;stroke-opacity:1;stroke-dasharray:none"
     id="path3938"
     d="m 1906,3010.5 24,8" />
  <path
     style="fill:none;stroke:#ff6600;stroke-width:5;stroke-linecap:butt;stroke-linejoin:round;stroke-miterlimit:4;stroke-opacity:1;stroke-dasharray:none"
     id="path6424"
     d="m 2195.5,3262 -0.5,-9.5 -11,0 -8,-14.5 0.5,-15 6.5,-29 14.1616,-17.9736 11.0884,-18.2764 21.75,-43 10.25,-20.75 11.75,-17.5 -14.75,-9.5 33.75,-61 10.5,-20.5 25.5,-44.5 68,-105.5 -37,-23 22,-45.5 10,-24.5 74.5,-135 41.0285,-73.9487 28.9715,-54.0513 77,-140.5 34.5,-61" />
  <path
     style="fill:none;stroke:#ffaaaa;stroke-width:1px;stroke-linecap:butt;stroke-linejoin:round;stroke-opacity:1"
     id="path3833"
     d="m 2418.8882,2964.5303 1.7208,4.6855 130.3443,56.0495 224.2496,91.1196 32.4893,12.2996 16.0578,8.5655" />
  <path
     style="fill:none;stroke:#7bd9f5;stroke-width:5;stroke-linecap:butt;stroke-linejoin:round;stroke-miterlimit:4;stroke-opacity:1;stroke-dasharray:none"
     id="path6185"
     d="m 2769,2347 91,-164 132.5,-239.5 120.5,-218.5 18.0508,-30.9443" />
  <path
     style="fill:none;stroke:#7bd9f5;stroke-width:5;stroke-linecap:butt;stroke-linejoin:round;stroke-miterlimit:4;stroke-opacity:1;stroke-dasharray:none"
     id="path12003"
     d="m 3123.6681,1659.2367 15.1887,8.1511 2.5375,7.0285 -11.704,21.4884" />
  <path
     style="fill:none;stroke:#ff0080;stroke-width:5;stroke-linecap:butt;stroke-linejoin:round;stroke-miterlimit:4;stroke-opacity:1;stroke-dasharray:none"
     id="path13467"
     d="m 3298,1508 -20.5,16.5 -69.5,129 -7.5,8" />
  <path
     style="fill:none;stroke:#ffaaaa;stroke-width:1px;stroke-linecap:butt;stroke-linejoin:round;stroke-opacity:1"
     id="path3825"
     d="m 2603.2495,2486.4998 0.2227,-3.1152 -10.5846,-6.0774 -1.1381,-3.3074 503.25,-911" />
  <path
     style="fill:none;stroke:#ff0080;stroke-width:5;stroke-linecap:butt;stroke-linejoin:round;stroke-miterlimit:4;stroke-opacity:1;stroke-dasharray:none"
     id="path9814"
     d="m 2377.5,3069.5 8.0758,-12.4673 L 2413,2993.5 l 17.5,-57.5 19.5,-73.5 40.5,-73.5 99,-178.5 91,-165.5 80,-145 91.5,-164.5 100,-181.5 143.5,-260 21.6055,-39.3941 4.9931,-1.3492 12.3736,6.4058 13.4833,7.4977 23.7656,-11.7763 23.6581,9.3122 5.1208,-3.1961" />
  <path
     style="fill:none;stroke:#ffaaaa;stroke-width:1px;stroke-linecap:butt;stroke-linejoin:round;stroke-opacity:1"
     id="path3829"
     d="m 2363.7101,2982.95 2.5993,-0.9747 38.9815,18.5512 1.7495,-0.8739 3.1191,-6.984 2.6739,-8.7768" />
  <path
     style="fill:none;stroke:#29084a;stroke-width:5;stroke-linecap:butt;stroke-linejoin:round;stroke-miterlimit:4;stroke-opacity:1;stroke-dasharray:none"
     id="path6936-1"
     d="m 2191,3263.5 0,-7 -8.5,0 -11,-16.5 0.5,-16 7.5,-37.5 12,-35 12,-35.5 9,-31.5 19,-105 20,-151.5 11,-44 3.5,-24 8,-36 0.5,-44 31.5,-55.5 130.5,-236.5 79,-146 251,-457 32.4577,-58.5412 13.9904,-4.2472 22.357,11.4494 10.7262,-2.9115 57.1297,-105.7156 69.8679,-133.6037" />
  <path
     style="fill:none;stroke:#ff6600;stroke-width:5;stroke-linecap:butt;stroke-linejoin:round;stroke-miterlimit:4;stroke-opacity:1;stroke-dasharray:none"
     id="path6938"
     d="m 2592,2340 -93.5,-55 38.5,-74 117.5,-212.5 147.611,-267.9408 9.8909,-3.7874 22.228,12.0863 14.2983,-3.8385 57.9107,-105.5539 L 3084,1291.0001" />
  <text
     style="font-size:144px;font-style:normal;font-weight:normal;fill:#000000;fill-opacity:1;stroke:none;font-family:Sans;-inkscape-font-specification:Sans"
     xml:space="preserve"
     id="text3652"
     y="222.96094"
     x="39.453125"><tspan
       id="tspan1"
       y="222.96094"
       x="39.453125">1910</tspan></text>
  <text
     style="font-size:144px;font-style:normal;font-weight:normal;fill:#000000;fill-opacity:1;stroke:none;font-family:Sans;-inkscape-font-specification:Sans"
     xml:space="preserve"
     id="text3652-1"
     y="5263.9609"
     x="39.453125"><tspan
       id="tspan2"
       y="5263.9609"
       x="39.453125">1910</tspan></text>
  <path
     style="fill:none;stroke:#0c3d91;stroke-width:5;stroke-linecap:butt;stroke-linejoin:round;stroke-miterlimit:4;stroke-opacity:1;stroke-dasharray:none"
     id="path3670"
     d="m 1504.9998,4150 -15.5,12 -9,23.5 -8,28 0.5,19.5 11,73 -4.5,22 -8,20.5 3.5,62 7,20.5 11.5,19.5 18.5,33 8,16.5 0,20 -9,15.5" />
  <path
     style="fill:none;stroke:#0c3d91;stroke-width:5;stroke-linecap:butt;stroke-linejoin:round;stroke-miterlimit:4;stroke-opacity:1;stroke-dasharray:none"
     id="path3688-4"
     d="m 1503,4152 -19,6 -14,-3 -12,-12 -14.5,-29 -28,-19.5 -53,-17.5 -13,0 -18.5,10 -27.5,22 -67,22.5 -33,4 -30,-3.5 -18,-8.5 -26.5,-0.5 -54.5,1.5 -17.5,8 -64.5,51 -45,9.5 -43,18.5 -35,7.5 -125.5,9 -19.5,10 -92,54 -23.5,6.5 -78,0 -11.5,2.5 -115,5.5" />
  <path
     style="fill:none;stroke:#0c3d91;stroke-width:5;stroke-linecap:butt;stroke-linejoin:round;stroke-miterlimit:4;stroke-opacity:1;stroke-dasharray:none"
     id="path3690"
     d="m 1513,4532.5 -3.5,18.5 3,15.5 45,79.5 8,20.5 16.5,106 0.5,22 -6.5,25 1,19 7.5,29.5 0,26.5 -4.5,41 -9,17.5 -10.5,11" />
  <path
     style="fill:none;stroke:#009174;stroke-width:5;stroke-linecap:butt;stroke-linejoin:round;stroke-miterlimit:4;stroke-opacity:1;stroke-dasharray:none"
     id="path3104"
     d="m 2013.4449,2736.8669 -41.5209,-1.5969 -101.5666,-23.9544 -61.3232,-29.2291 -28.4952,-15.9793 -33.1474,-17.7118 -7.0266,1.2776 -49.1863,91.9848 -7.6654,20.4411 -13.095,14.692 -5.1103,3.8327" />
  <path
     style="fill:none;stroke:#009174;stroke-width:1px;stroke-linecap:butt;stroke-linejoin:round;stroke-opacity:1"
     id="path3874"
     d="m 1667.2243,2778.3878 -10.2205,6.3879 -21.7428,33.1883 -20.7363,-4.1237 -16.289,-0.3194 -28.7452,36.4107 -12.1369,47.9087 -16.9277,12.1369 5.1102,20.4411 -25.2319,57.8098 -13.095,31.6198 -11.4981,-4.4715 -9.9012,18.8441 -10.8593,20.1217 -31.9392,45.673 -24.9125,32.2586 -40.5628,44.7148 -48.8669,54.9353 -30.6616,36.0913 -12.7757,8.943 -0.3193,28.1064 -15.6502,14.0533 -7.6654,26.1901 -16.9278,23.9544 -14.3726,20.441 -11.1787,28.1065 5.749,6.3878" />
  <path
     style="fill:none;stroke:#009174;stroke-width:1px;stroke-linecap:butt;stroke-linejoin:round;stroke-opacity:1"
     id="path3878"
     d="m 1803,2677.5 -0.5,-6 9.1483,-16.9639 -3.1483,-5.0361 -52.2452,-27.4696 -1.5,-3.8612 90.8859,-174.4391 L 1836,2392 l 79,-149 3.5,-0.5 27.5,17.5 26.5,12.5 3.5,-0.5 22,-46 17.5,-36.5 -7.3167,-12.4511 -32.1734,56.9221 -13.435,30.0521 -3.8891,1.7677" />
  <path
     style="fill:none;stroke:#009174;stroke-width:1px;stroke-linecap:butt;stroke-linejoin:round;stroke-opacity:1"
     id="path3846"
     d="m 1809.8398,2657.528 48.4368,-98.995 68.5894,-140.7142 53.7401,-111.3693 -0.7071,-3.182 -13.435,-5.6569 -0.3536,-3.5355 11.6673,-25.1023" />
  <path
     style="fill:none;stroke:#009174;stroke-width:1px;stroke-linecap:butt;stroke-linejoin:round;stroke-opacity:1"
     id="path3848"
     d="m 2014.9008,2189.7768 11.3137,-14.4956 29.3449,-47.7298 24.7488,-41.7193 -0.7072,-2.8284 -10.9601,-6.0104 25.8094,-44.5477 3.8891,-0.3536 91.2167,57.6292 6.0105,8.1318 -1.7678,19.0918 -3.5355,19.799 -9.8995,26.5165 1.4142,4.2427 12.7279,6.3639" />
  <path
     style="fill:none;stroke:#009174;stroke-width:1px;stroke-linecap:butt;stroke-linejoin:round;stroke-opacity:1"
     id="path3850"
     d="m 2068.6409,2076.9933 -61.5183,102.884" />
  <path
     style="fill:none;stroke:#009174;stroke-width:1px;stroke-linecap:butt;stroke-linejoin:round;stroke-opacity:1"
     id="path3852"
     d="m 1962.5749,2262.9624 -10.2531,25.1023 2.1213,3.5355 7.7782,4.5962 0.3536,4.5962 -89.449,189.5046 0.7071,12.7279 -81.5673,165.5237 1.6642,5.2426" />
  <path
     style="fill:none;stroke:#009174;stroke-width:1px;stroke-linecap:butt;stroke-linejoin:round;stroke-opacity:1"
     id="path3082"
     d="m 1755,2617.75 -10.75,19.25 4.25,5 44.5,24.5" />
  <path
     style="fill:none;stroke:#009174;stroke-width:1px;stroke-linecap:butt;stroke-linejoin:round;stroke-opacity:1"
     id="path3083"
     d="m 2008.5367,2177.756 -20.5061,-34.2947 -6.7175,0.3536 -12.0208,11.6672 -55.1543,88.7419" />
  <path
     style="fill:none;stroke:#009174;stroke-width:1px;stroke-linecap:butt;stroke-linejoin:round;stroke-opacity:1"
     id="path4369"
     d="m 1803.4756,2679.0951 -6.0104,2.1213 -13.4351,27.5772 -4.2426,0.7071 -27.2236,-19.799 -4.9498,1.0607 -43.4331,63.7019" />
  <path
     style="fill:none;stroke:#009174;stroke-width:1px;stroke-linecap:butt;stroke-linejoin:round;stroke-opacity:1"
     id="path4371"
     d="m 1784.3837,2708.44 -34.6483,73.5391 -10.9601,12.0209 -5.6569,-0.7071 -28.6378,-30.4056 -0.4068,-8.3285" />
  <path
     style="fill:none;stroke:#ffaaaa;stroke-width:1px;stroke-linecap:butt;stroke-linejoin:round;stroke-opacity:1"
     id="path3835"
     d="m 2458.0799,2825.8194 -4.4194,1.9445 -20.6828,-2.4748" />
  <path
     style="fill:none;stroke:#ffaaaa;stroke-width:1px;stroke-linecap:butt;stroke-linejoin:round;stroke-opacity:1"
     id="path3831"
     d="m 2603.5,2452.75 0.1958,2.9973 6.5542,3.7527 0.8489,1.799 -9.8971,18.1468 0.9952,3.0982" />
  <path
     style="fill:none;stroke:#006000;stroke-width:5;stroke-linecap:butt;stroke-linejoin:round;stroke-miterlimit:4;stroke-dasharray:none;stroke-opacity:1"
     id="path3623"
     d="m 3388,3291 -29,7 -230,29 -148.5,25 -233,35 -33,5 -77,-2 -130,-8" />
  <path
     style="fill:none;stroke:#800000;stroke-width:5;stroke-linecap:butt;stroke-linejoin:round;stroke-miterlimit:4;stroke-dasharray:none;stroke-opacity:1"
     id="path3621"
     d="m 2861.9996,3577.0003 2,14 -67.5,257.5 -4.5916,6.8509 -4.908,8.6491" />
  <path
     d="m 2763.2176,3385.5143 5.72,4.333 7.562,51.153 6.5,28.5 3.616,21.696 5.918,3.794 206.466,-30.99 169.5,-25.5 55,-8.5 139.5,104.5 104.4958,77.6782 7.4668,5.5505"
     id="path4559"
     style="fill:none;stroke:#006000;stroke-width:5;stroke-linecap:butt;stroke-linejoin:round;stroke-miterlimit:4;stroke-dasharray:none;stroke-opacity:1" />
  <path
     d="m 2407.9998,3239.7504 22.5,13 24.6124,25.8893 -4.1124,13.8607 0,37.9078 5.6157,19.4664 7.3843,28.6258 6,14.5 4.5,5 36.5,18.5 66,38.5 50.7712,31.7881 96.5169,51.2966 171.7966,47.9322 383.9153,26 188.8305,13.8645 8.0848,5.5"
     id="path6287"
     style="fill:none;stroke:#800000;stroke-width:5;stroke-linecap:butt;stroke-linejoin:round;stroke-miterlimit:4;stroke-dasharray:none;stroke-opacity:1" />
  <path
     style="fill:none;stroke:#ffaaaa;stroke-width:1px;stroke-linecap:butt;stroke-linejoin:round;stroke-opacity:1"
     id="path3827"
     d="m 2254.0188,3108.9487 24.3456,-5.5316 7.1931,-4.0898 12.5752,-11.5906 19.4766,-22.4449 50.652,-90.7827 5.9066,-7.757 2.111,-0.5312 34.885,18.452 1.6695,-0.7811 14.7494,-48.48 19.6055,-73.6245 7.8112,-21.5375 4.8511,-23.0206 9.114,-37.0469 0.035,-28.1825 -0.9101,-14.925 27.8386,-50.1631 63.8667,-117.0445" />
  <path
     d="m 2507.9998,3382.0004 -28.2382,-1.2382 1.7584,-56.7618 -13.391,-0.5 0.4967,-47.2786 -26.2181,-26.7079 -139.6393,-149.282 -11.2365,-12.7349"
     id="path5126"
     style="fill:none;stroke:#006000;stroke-width:5;stroke-linecap:butt;stroke-linejoin:round;stroke-miterlimit:4;stroke-dasharray:none;stroke-opacity:1" />
  <path
     style="fill:none;stroke:#006000;stroke-width:5;stroke-linecap:butt;stroke-linejoin:round;stroke-miterlimit:4;stroke-dasharray:none;stroke-opacity:1"
     id="path6281-4"
     d="m 2322.7159,4013.6223 1.9019,-4.7686 27.8819,-34.8529 111.5,-142.5 91.5,-144.5 10,-15.5 31.5,-60.5 23.5,-47.5 -8.5,-35.5 -30.5,-66 -9,-72 -5.7203,-4.9915" />
  <path
     d="m 2481.4829,3324.0041 1.0168,-28.0033 -26.7752,-0.5"
     id="path6281"
     style="fill:none;stroke:#006000;stroke-width:5;stroke-linecap:butt;stroke-linejoin:round;stroke-miterlimit:4;stroke-dasharray:none;stroke-opacity:1" />
  <path
     style="fill:none;fill-rule:evenodd;stroke:#800000;stroke-width:5;stroke-linecap:butt;stroke-linejoin:round;stroke-miterlimit:4;stroke-dasharray:none;stroke-opacity:1"
     d="m 2287.9157,3090.7271 20.8896,23.029 130.3713,139.5577 24.539,24.9166 -0.5033,45.6802 -0.3776,15.7301 -2.7684,2.5169 -1.3844,0.2516 -3.3976,3.5236"
     id="path6638" />
  <path
     style="fill:none;stroke:#800000;stroke-width:5;stroke-linecap:butt;stroke-linejoin:round;stroke-miterlimit:4;stroke-dasharray:none;stroke-opacity:1"
     id="path3628"
     d="m 3911.1329,3612.8623 -75.6327,13.1381 5.5,33.5 -331.3604,65.8928 -10.1311,2.0055 -4.4551,-3.9762 -7.5026,-39.295 -1.305,-23.8644 0.8305,-22.3644 -11.5763,-8.8983" />
  <path
     d="m 2327.2365,4005.6787 -10.3865,14.0074 -6.347,2.0765 -4.7161,-2.1118 -42.4134,-33.7167 -7.4179,0.1334 -190.4556,243.4323"
     id="path6285"
     style="fill:none;stroke:#006000;stroke-width:5;stroke-linecap:butt;stroke-linejoin:round;stroke-miterlimit:4;stroke-dasharray:none;stroke-opacity:1" />
  <path
     id="path894"
     d="m 2385.7591,4088.8536 35.2443,28.1935 11.9969,4.4524 11,0.5 64,50.5 82.5,65 5.0847,4.4407"
     style="fill:none;stroke:#006000;stroke-width:1;stroke-linecap:butt;stroke-linejoin:round;stroke-miterlimit:4;stroke-dasharray:none;stroke-opacity:1" />
  <path
     id="path6283"
     d="m 2385.7591,4088.8536 -6.5717,-5.257 -4.6673,-9.1903 -9.0444,-14.9436 -41.4477,-33.2607 -1.489,-4.1579 0.358,-10.081"
     style="fill:none;stroke:#006000;stroke-width:5;stroke-linecap:butt;stroke-linejoin:round;stroke-miterlimit:4;stroke-dasharray:none;stroke-opacity:1" />
  <path
     style="fill:none;stroke:#006000;stroke-width:1;stroke-linecap:butt;stroke-linejoin:round;stroke-miterlimit:4;stroke-dasharray:none;stroke-opacity:1"
     id="path3616"
     d="m 2646.6317,5200.1986 6.8309,-31.0619 1.2326,-13.1372 7.2543,-68.9661 -10.8316,-114.033 2.8824,-28.0009 20,-180 -3,-26 -70,-479 -2.6949,-14.9746 -4.6271,-5.339" />
  <path
     style="fill:none;stroke:#006000;stroke-width:1;stroke-linecap:butt;stroke-linejoin:round;stroke-miterlimit:4;stroke-dasharray:none;stroke-opacity:1"
     id="path9400"
     d="m 2411.1107,4108.5897 5.6705,30.2356 1.2191,15.1742 -4,86 -11,98 -53,242 -16.6704,73.2046 4.1704,32.0666 -0.8149,8.315 -11.8038,21.9222 -36.9236,49.034 0.3305,4.9491 41.9321,30.0254 89.9916,79.7034 14.2881,47.0932 24.5503,30.4116 49.5768,41.8257 34.3729,21.4492 19.5,22 9.5,25 -0.9832,31.609 -5.1258,25.6326 5.1225,47.0067 2.5596,20.063" />
  <path
     d="m 3639,3098 -11,45 -26,33 -168,56 -46,59 -2.7502,0.569"
     id="path4557"
     style="fill:none;stroke:#006000;stroke-width:1;stroke-linecap:butt;stroke-linejoin:round;stroke-miterlimit:4;stroke-dasharray:none;stroke-opacity:1" />
  <path
     style="fill:none;stroke:#b0720c;stroke-width:1;stroke-linecap:butt;stroke-linejoin:round;stroke-miterlimit:4;stroke-dasharray:none;stroke-opacity:1"
     d="M 3527.2671,3939.0785 3539,3999 l -8,25 -47,97 -4,18.5 2.5,15.5 10.5,17 140.5,168 24,16.5"
     id="path3617-3" />
  <path
     d="m 2603.7729,2485.956 -46.1574,83.7588 -5.0311,9.3274"
     id="path3055-2"
     style="fill:none;stroke:#ffaaaa;stroke-width:5;stroke-linecap:butt;stroke-linejoin:round;stroke-miterlimit:4;stroke-dasharray:none;stroke-opacity:1" />
  <path
     id="path953"
     d="m 2821.0015,5149.9976 -5.0015,10.0029 -91.0001,27 -63,-6 -5.4886,-0.3988 -3.4088,1.3911 -2.0103,2.1984 -3.5219,16.2422"
     style="fill:none;stroke:#800000;stroke-width:1;stroke-linecap:butt;stroke-linejoin:round;stroke-miterlimit:4;stroke-dasharray:none;stroke-opacity:1" />
  <path
     id="path3606"
     d="m 2787.5486,3863.522 8.7994,91.4475 -3.348,23.0308 -35,155 31,216 52,357 39,276.0002 1,48 -59.9985,119.9971"
     style="fill:none;stroke:#800000;stroke-width:5;stroke-linecap:butt;stroke-linejoin:round;stroke-miterlimit:4;stroke-dasharray:none;stroke-opacity:1" />
</svg>
