<?xml version="1.0" encoding="UTF-8" standalone="no"?>
<svg
   xmlns:dc="http://purl.org/dc/elements/1.1/"
   xmlns:cc="http://creativecommons.org/ns#"
   xmlns:rdf="http://www.w3.org/1999/02/22-rdf-syntax-ns#"
   xmlns:svg="http://www.w3.org/2000/svg"
   xmlns="http://www.w3.org/2000/svg"
   xmlns:xlink="http://www.w3.org/1999/xlink"
   id="svg2"
   height="4500"
   width="7200"
   viewBox="0, 0, 7200, 4500"
   version="1.1">
  <metadata
     id="metadata8">
    <rdf:RDF>
      <cc:Work
         rdf:about="">
        <dc:format>image/svg+xml</dc:format>
        <dc:type
           rdf:resource="http://purl.org/dc/dcmitype/StillImage" />
        <dc:title></dc:title>
      </cc:Work>
    </rdf:RDF>
  </metadata>
  <defs
     id="defs6" />
  <image
     xlink:href="../streetmap/lonosm.png"
     style="display:none"
     id="image12"
     height="5255.7139"
     width="7358"
     y="-755.71387"
     x="-100" />
  <path
     style="fill:none;stroke:#000000;stroke-width:1px;stroke-linecap:butt;stroke-linejoin:miter;stroke-opacity:1;display:none"
     id="path2871"
     d="m 4445.6358,2008.5093 -19.799,9.1924 -16.2635,1.0607 -21.2132,-12.728 -24.0416,6.364 -14.1421,-8.8388 -45.2549,0.3535 -22.6274,-20.8596 8.8388,-21.5668 -67.1751,-65.0538 -7.0711,-25.4558 -21.2132,-7.7782 -45.2548,-106.066 -56.5685,16.9705 0.7071,4.9498 -48.7904,12.7279 -41.7193,4.9497 -38.1838,-9.1923 -79.1959,22.6274 -12.7279,0 -72.832,15.5563 16.2634,40.3051 -56.5685,62.9325 -25.4559,29.6985 -50.9117,-55.1543 -49.4974,-36.7696 -24.7488,-8.4853 21.9203,-18.3847 -45.9619,-49.4975 -104.6518,29.6985 -101.1163,70.0035 -5.6568,0 -24.7487,-16.2634 -39.598,-11.3137 -14.8493,-11.3137 -58.6898,-3.5356 -41.0122,-14.8492 -40.3051,3.5355 -30.4056,-8.4853 -29.6985,9.8995 -18.3848,18.3848 -32.5269,-4.9497 -14.1421,21.2132 -37.4767,5.6568 0,22.6274 -36.7695,22.6275 -28.9914,25.4558 -16.9705,55.1543 -58.6899,16.9706 -3.5355,18.3848 -16.2635,19.799 -2.1213,28.2842 -63.6396,19.0919 -7.0711,-24.7487 -23.3345,9.1924 -25.4559,-1.4143 -17.6776,16.9706 43.1335,53.7401 21.2132,22.6274 70.7107,108.8945 76.3675,101.1162 -15.5564,40.3051 8.4853,10.6066 -41.0122,85.5599 -14.1421,-4.9497 -2.1213,-38.8909 -12.7279,-14.8492 -20.5061,-11.3137 -2.8285,-9.1924 -31.8198,-4.9498 -36.0624,5.6569 -20.5061,11.3137 -39.598,7.7782 1.4142,21.2132 -6.3639,7.071 -2.1214,26.163 -19.7989,-12.0208 -44.5478,-14.8493 -12.0208,-4.9497 -36.7695,-2.8284 -60.8112,-37.4767 -39.598,7.7782 -43.8406,4.2426 -23.3345,-5.6568 -48.7904,69.2964 -23.3345,43.8406 25.4558,76.3676 -3.5355,16.2634 14.8492,77.0747 26.163,50.2045 9.8995,53.7402 -9.1924,4.9497 4.2426,22.6274 -36.7695,9.1924 -15.5564,-3.5355 -33.9411,7.071 14.1421,24.7488 4.2427,32.5269 9.1923,5.6568 22.6274,50.2046 37.4767,-18.3848 11.3137,37.4767 -7.071,45.2548 -2.8285,36.0625 19.0919,38.8909 56.5686,-26.163 45.2548,4.2427 38.1837,30.4056 18.3848,31.8197 12.0209,50.2046 9.8995,99.7021 31.1126,48.0832 -19.0918,37.4767 -26.8701,-13.435 -19.0919,-14.1422 -30.4056,-13.435 -12.0208,4.2426 -5.6568,57.2757 -2.8285,18.3848 -40.305,21.2132 8.4852,16.9705 -68.5893,-8.4853 -89.0955,2.8285 -22.6274,34.6482 -19.0919,41.7193 9.8995,4.2426 -25.4558,90.5097 21.9203,50.9117 43.1335,37.4767 -1.4142,59.3969 -18.3848,51.6188 6.364,55.8614 -14.8493,8.4853 0,16.2635 38.8909,24.0416 2.8284,22.6274 193.0402,-80.6101 65.0538,-10.6066 70.0036,4.9497 10.6066,9.1924 73.5391,-7.7782 101.1162,-26.1629 21.9203,1.4142 44.5478,-15.5564 13.435,32.5269 -4.9497,39.598 -16.2635,43.1335 15.5563,33.9412 41.7193,-19.799 12.0209,19.799 -4.9498,52.3259 6.364,26.87 21.2132,23.3345 32.5269,9.1924 31.8198,8.4853 43.8406,29.6985 33.9411,19.799 55.8615,6.3639 19.799,-36.0624 157.6848,81.3173 -45.2549,65.7609 14.1422,4.2426 33.9411,-12.0208 72.1249,33.234 19.799,3.5356 24.7487,-5.6569 13.435,4.2427 14.8493,-30.4056 36.0624,-14.1422 38.1838,-77.0746 43.1335,-37.4767 20.5061,-32.5269 65.7609,12.728 74.2462,-0.7072 42.4264,-4.9497 12.728,7.7782 43.1335,38.1837 21.2132,11.3137 33.234,-11.3137 35.3553,2.1214 34.6483,-96.1666 33.2339,-4.9497 63.6397,20.5061 18.3848,-3.5355 46.669,31.8198 27.5772,3.5355 5.6568,-14.1421 26.163,6.3639 2.8284,12.7279 50.2046,-2.1213 55.8614,-24.0416 21.2132,2.8284 10.6066,-18.3848 67.8823,-2.8284 84.8528,68.5894 -7.7782,7.071 9.8995,7.0711 -10.6066,52.3259 11.3137,10.6066 23.3345,3.5355 2.1213,14.1422 32.527,-0.7071 0.7071,15.5563 53.033,1.4142 81.3172,-32.5269 4.9498,-24.7487 19.0919,-16.2635 15.5563,16.9706 18.3848,-19.799 26.8701,-65.0538 14.1421,8.4853 52.3259,-57.9828 98.9949,-38.8909 101.1163,96.1666 24.7487,-36.7696 -7.071,-139.3 -52.3259,30.4056 -32.5269,-29.6985 -3.5356,-40.3051 -43.8406,5.6568 2.1213,-31.8198 41.0122,-4.9497 16.9706,-80.6102 15.5563,-0.7071 38.1838,21.2132 41.7193,24.0417 36.0624,62.2253 68.5894,89.8026 67.1751,98.2878 21.9203,-7.071 9.1924,20.5061 79.9031,-47.3762 55.1543,-111.0157 -9.8995,-23.3346 16.2635,-21.2132 13.435,5.6569 43.1335,-103.2376 51.6188,-3.5355 -7.0711,-111.7229 -11.3137,-72.832 -33.234,-81.3173 4.2427,-40.3051 -8.4853,-52.3259 12.7279,-5.6568 10.6066,-30.4056 53.7401,-26.8701 16.2635,-28.2842 34.6482,-12.0208 26.163,-38.8909 90.5096,0 35.3554,43.8406 64.3467,-86.267 27.5771,8.4853 24.7488,16.2634 -18.3848,-88.3883 1.4142,-47.3762 -7.7782,-36.0624 2.8285,-241.8305 -2.8285,-94.7523 -26.87,-43.1336 -72.832,26.163 -77.0747,7.7782 -30.4055,-5.6569 -45.6569,-4.669 -56.5269,32.3015 -105.8284,153.4817 -40.2843,29.3518 -60.3795,13.018 -104.1352,3.1119 -132.3526,-13.0354 -65.8185,3.0134 -75.1923,17.824 -72.0472,-7.4326 -41.1714,-35.9971 -75.8198,-99.8122 18.1491,-50.3905 -33.2327,-20.367 16.6324,-40.7081 -12.2802,-23.1558 -25.1163,49.2974 -16.4785,-2.943 14.7294,-58.9696 -59.9297,-46.6192 -28.2488,25.4422 -32.9585,-60.5929 19.1134,-88.2674 -9.0011,-24.568 6.794,-36.5483 -16.9023,-58.5807 14.9874,-18.4197 -27.5858,-39.0416 -19.7366,-43.4975 -39.1715,-33.2046 -10.364,-71.4178 -16.9718,-70.1507 -62.2254,-43.1335 2.1214,-16.2635 12.0208,-17.6777 1.4142,-26.1629 -23.3345,-26.163 -36.416,-18.7383 z" />
  <path
     style="fill:none;stroke:#ffd204;stroke-width:5;stroke-linecap:butt;stroke-linejoin:round;stroke-miterlimit:4;stroke-opacity:1;stroke-dasharray:none"
     id="path3378"
     d="m 3894.7452,2250.712 -21.5122,-7.7755 -62.2254,-21.9203 -19.799,0.7071 -22.6274,4.9498 -14.8492,4.9497 -9.8995,-0.7071 -9.8995,-7.071 -8.4853,-13.4351 -13.435,-24.0416 -19.0919,-19.0919 -10.6066,-16.9705 -24.0417,-24.0417 -28.2842,-28.9913 -24.0417,-23.3346 -21.2132,-12.0208 -16.2634,1.3787 -41.0122,19.1274 -82.7315,50.2046 -16.2635,9.8995 -57.9827,22.6274 -25.4559,-0.7071 -42.4264,12.7279 -28.9913,2.1213 -63.6397,17.6777 -65.0538,18.3848" />
  <path
     style="fill:none;stroke:#ffd204;stroke-width:5;stroke-linecap:butt;stroke-linejoin:round;stroke-miterlimit:4;stroke-opacity:1;stroke-dasharray:none"
     id="path3614"
     d="m 3147.7414,2215.3594 -28.2842,17.6777 -17.6777,21.9203 -45.9619,42.4264 -31.8198,28.2842 -37.4767,13.4351 -45.9619,4.9497 -27.5772,3.5356 -28.2843,4.9497 -17.6776,11.3137 -7.0711,23.3345 1.4142,21.2132 13.435,53.7402 7.7782,32.5269 12.7279,32.5269 14.8493,17.6776 16.9705,16.2635 6.364,8.4853 5.6568,19.0919 10.6066,14.1421 22.6275,11.3137 19.0918,3.5355 37.4767,2.8285 26.8701,-0.7071 21.7137,0.987" />
  <path
     style="fill:none;stroke:#f386a1;stroke-width:5;stroke-linecap:butt;stroke-linejoin:round;stroke-miterlimit:4;stroke-opacity:1;stroke-dasharray:none"
     id="path3616"
     d="m 2581.556,2623.5169 -13.6421,-118.9508 -0.7071,-37.4767 5.6568,-48.7904 13.4351,-31.8198 11.3137,-12.0208 21.9203,-16.2634 19.799,-16.2635 38.1837,-45.2548 28.2843,-26.8701 22.6274,-9.1924 20.5061,-8.4853 12.0208,-7.7781 22.6275,-28.2843 13.435,-4.9498 16.2634,-1.4142 28.2843,12.728 16.2635,5.6568 38.8908,4.9498 37.4767,6.3639 26.8701,2.1213 23.3345,0.7071 23.3345,4.2427 19.0919,0.7071 21.2132,15.5563 26.87,-2.8284 13.4351,-4.2426 13.0208,-7.2782 12.435,-16.7635 31.8198,-21.3345 70.7107,-20.3848 61.5183,-15.7634 23.1274,-1.9142 44.5833,-12.7635 23.6274,0.8284 L 3422,2140 l 42.5,-24 25,-15.5 37.9961,-23.6158 L 3568,2059 l 20,-0.5 21.5,12 46.5,46.5 31,31 10,16.5 18.5,18 21.5,37.5 8,6 8.5,0.5 35,-9 22,-1.5 66.5,23 19.9803,7.5207" />
  <path
     style="fill:none;stroke:#98005d;stroke-width:5;stroke-linecap:butt;stroke-linejoin:round;stroke-miterlimit:4;stroke-dasharray:none;stroke-opacity:1"
     id="path3620"
     d="m 3236.2574,2180.136 -10.5074,-10.886 -41,-38.75 -34.5,-25.25 -26.25,-23.75 -23,-26.25 -33.25,-42.75 -18.75,-25 -5,-17.5 10,-82 3,-24" />
  <path
     style="fill:none;stroke:#00853e;stroke-width:5;stroke-linecap:butt;stroke-linejoin:round;stroke-miterlimit:4;stroke-opacity:1;stroke-dasharray:none"
     id="path3622"
     d="m 2974,2609 19.4904,4.5735 34.0096,2.4265 43,-1 30.5,2.5 38,4 53,4 24.5,8 30,15.5 27.5,3.5 24,-7.5 14,-8.5 15.5,-35.5 20,-14.5 28,-6 43,-21 13.5,-12.5 30,-14.5 33,0.5 7.0415,-1.7911 L 3539,2507.5 l 7,-7 7,-41.5 8,-29 17.5,-34.5 18.5,-19 43.5,-18 18.5,-3 59.5,0.5 17.5,-1 10.5,-3 6.7945,-1.1817" />
  <path
     style="fill:none;stroke:#00853e;stroke-width:5;stroke-linecap:butt;stroke-linejoin:round;stroke-miterlimit:4;stroke-opacity:1;stroke-dasharray:none"
     id="path3632"
     d="m 2866,2732 -8.5,-12.5 -1.5,-20 6,-18.5 4,-5" />
  <path
     style="fill:none;stroke:#00853e;stroke-width:5;stroke-linecap:butt;stroke-linejoin:round;stroke-miterlimit:4;stroke-opacity:1;stroke-dasharray:none"
     id="path3627"
     d="m 2917.5,2619 20,-10 33.5,-1.5 11,4" />
  <path
     style="fill:none;stroke:#00853e;stroke-width:5;stroke-linecap:butt;stroke-linejoin:round;stroke-miterlimit:4;stroke-opacity:1;stroke-dasharray:none"
     id="path3626"
     d="m 2864,2678.5 50.5,-54.5 6,-6.5" />
  <text
     style="font-size:143.99993896px;font-style:normal;font-weight:normal;line-height:125%;letter-spacing:0px;word-spacing:0px;fill:#000000;fill-opacity:1;stroke:none;font-family:Sans;-inkscape-font-specification:Sans"
     xml:space="preserve"
     id="text3019"
     y="206.96089"
     x="89.453125"><tspan
       id="tspan1"
       y="206.96089"
       x="89.453125">1870</tspan></text>
  <text
     style="font-size:143.99993896px;font-style:normal;font-weight:normal;line-height:125%;letter-spacing:0px;word-spacing:0px;fill:#000000;fill-opacity:1;stroke:none;font-family:Sans;-inkscape-font-specification:Sans"
     xml:space="preserve"
     id="text3019-6"
     y="4397.9609"
     x="89.453125"><tspan
       id="tspan2"
       y="4397.9609"
       x="89.453125">1870</tspan></text>
  <path
     style="fill:none;stroke:#f58026;stroke-width:5.00000048;stroke-linecap:butt;stroke-linejoin:round;stroke-miterlimit:4;stroke-opacity:1;stroke-dasharray:none"
     id="path3899-1"
     d="m 3984.5004,1789 11,4 9,8 9.5,12.5 4,11.5 -0.5,27 -1,25 -2.5,31 -2.5,43.5 1.5,95.5 -3,17.5 -6.5,15 -15,18.5 -5.5,18 -1,44 0.1612,18.6673 -8.1612,17.3327 -24.5,30 -9,30.5" />
  <path
     style="fill:none;stroke:#f58026;stroke-width:5.00000048;stroke-linecap:butt;stroke-linejoin:round;stroke-miterlimit:4;stroke-opacity:1;stroke-dasharray:none"
     id="path3628-0-3"
     d="m 4018.0004,1828.5001 6.033,-10.2716 14.5124,-11.3871 14.9546,-5.3413 13.4141,-2.4269 124.0859,9.9269 23.5,-1 31.5,-4 70,4.5 52.5,3 27,3.5 31,15.5 25.5,25 15,21.5 8.5,20.5 7,30.5 4,40 8.5,33.5 12.5001,31.5 9.75,22.75 5.25,17.75 8,19.25 46.8985,115.8076 12.6015,31.9423 6.5,31 1.5,12" />
  <path
     style="fill:none;stroke:#176fc1;stroke-width:5.00000048;stroke-linecap:butt;stroke-linejoin:round;stroke-miterlimit:4;stroke-opacity:1;stroke-dasharray:none"
     id="path4595-7"
     d="m 3885.0007,2444.5003 15,0.5 21,9 22.5,24.5 36,31 90.5001,77 68,49.5 91.5,64.5 94,62 38,22.5" />
  <path
     style="fill:none;stroke:#176fc1;stroke-width:5.00000048;stroke-linecap:butt;stroke-linejoin:round;stroke-miterlimit:4;stroke-opacity:1;stroke-dasharray:none"
     id="path4597"
     d="m 4357.2504,2782 16,15.5 13.25,21.25 27.25,65.25" />
  <path
     style="fill:none;stroke:#176fc1;stroke-width:5;stroke-linecap:butt;stroke-linejoin:round;stroke-miterlimit:4;stroke-opacity:1;stroke-dasharray:none"
     id="path4720-0"
     d="m 4174.9992,2661.2499 29,37.75 14.5,27 6.5,17.5 4.5,29 2.5,29.5 -6,35.5 -27,66.5 -17.5,42 -15,20 -24.5,17 -15.75,3.5 -31.25,3.75 -19.25,5.5 -22.75,11.25 -21.5,4.75 -21,4.25" />
  <path
     style="fill:none;stroke:#176fc1;stroke-width:5;stroke-linecap:butt;stroke-linejoin:round;stroke-miterlimit:4;stroke-opacity:1;stroke-dasharray:none"
     id="path5405"
     d="m 4025.2496,3012.9999 -24.75,0.5 -32,-9.25 -29.25,-0.25 -26.5,7.75 -54.3114,25.3486 -38.1886,20.4014 -25,10 -51.5,9 -20.25,7.25 -39.25,11.75 -31.25,3.25 -31.5,-13 -6,-1.5 -24.5,0 -31.75,5.75 -23,2.25 -23,-4.5 -32.25,-23.25 -23.75,-20.25 -23.25,-24.75 -32,-44.25 -31.5,-21.75 -19.25,-22 -21.75,-35 -2.75,-19.25" />
  <path
     style="fill:none;stroke:#f58026;stroke-width:5;stroke-linecap:butt;stroke-linejoin:round;stroke-miterlimit:4;stroke-opacity:1;stroke-dasharray:none"
     id="path3628-0"
     d="m 2398,2057.4997 7.5,-15.5 12.5,-9.5 27,-4.5 62.5,-1 51.5,-4 37,-4.5 45,-20.5 32.5,-28.5 58,-69 19.5,-26.5 37.5,-29 36,-19.5 37,-11 44,-11 52.5,-26.5 34.5,-23.5 65,-27.5 85,-38.5 37,-14 65.5,-7 30,7 26.5,17.5 16.5,24 8,29 -0.5,32 6,32 3.5,29 7,30 17.5,15.5 23.5,3.5 21.5,1 48.5,11.5 69,3 22,-2.5 58,-22 130.5,-50.5 96,-33.5 27.5,-9 35.5,-5 33,1.5 38.3925,5.2083 23.4324,3.8064" />
  <path
     style="fill:none;stroke:#176fc1;stroke-width:5.00000048;stroke-linecap:butt;stroke-linejoin:round;stroke-miterlimit:4;stroke-opacity:1;stroke-dasharray:none"
     id="path4601"
     d="m 3886.1653,2444.5 -14.6642,-0.75 -11,-3.25 -7.5,-10.5 -0.5,-10.25 9.25,-24.5 7.25,-30.25 4.5,-13.75" />
  <path
     style="fill:none;stroke:#176fc1;stroke-width:5.00000048;stroke-linecap:butt;stroke-linejoin:round;stroke-miterlimit:4;stroke-opacity:1;stroke-dasharray:none"
     id="path3815"
     d="m 3540.501,2411.75 29.5,23.75 31,13.5 50,20.25 14.25,3.5 29.25,-3.75 21,-3 53.5,4.5 51,-2.5 15,-1.5 10.8973,-5.0595 7.9104,-9.3547 2.4214,-6.7709 -2.1285,-14.3544" />
  <path
     style="fill:none;stroke:#02b1b0;stroke-width:5.00000095;stroke-linecap:butt;stroke-linejoin:round;stroke-miterlimit:4;stroke-opacity:1;stroke-dasharray:none"
     id="path4319"
     d="m 3981.5,2354 44.4984,13.4859 15.5017,-0.4859 20,-1.5 54.5,-4.5 29,-1 19,-5.5 34,-2 71.5,-3.5 77,-4.5 25.5,-0.5 23,3 42,15 29,15.5 22.5,15.5 21.0002,10 11.5,2.5 15,-2 13,4.5 32.5,7 10,2.5 31,-1.5 17,-0.5 39.5,-8.5 36,1.5 26,-8.5" />
  <path
     style="fill:none;stroke:#f58026;stroke-width:5;stroke-linecap:butt;stroke-linejoin:round;stroke-miterlimit:4;stroke-opacity:1;stroke-dasharray:none"
     id="path3038"
     d="m 3386.7531,1885.9895 -34.1288,1.264 -20.2244,2.9494 -13.483,-2.528 -29.9153,-13.483 -42.5556,-6.7415" />
  <path
     style="fill:none;stroke:#176fc1;stroke-width:5;stroke-linecap:butt;stroke-linejoin:round;stroke-miterlimit:4;stroke-opacity:1;stroke-dasharray:none"
     id="path4595-7-7"
     d="m 4361.5,2785 109.5,65.5 25,10.5 46.5,6.5 28,-1 24,-0.5" />
</svg>
