<?xml version="1.0" encoding="UTF-8" standalone="no"?>
<svg
   xmlns:dc="http://purl.org/dc/elements/1.1/"
   xmlns:cc="http://creativecommons.org/ns#"
   xmlns:rdf="http://www.w3.org/1999/02/22-rdf-syntax-ns#"
   xmlns:svg="http://www.w3.org/2000/svg"
   xmlns="http://www.w3.org/2000/svg"
   xmlns:xlink="http://www.w3.org/1999/xlink"
   viewBox="50 0 2550 2800"
   height="2800"
   width="2550"
   id="svg2"
   version="1.1">
  <metadata
     id="metadata8">
    <rdf:RDF>
      <cc:Work
         rdf:about="">
        <dc:format>image/svg+xml</dc:format>
        <dc:type
           rdf:resource="http://purl.org/dc/dcmitype/StillImage" />
        <dc:title />
      </cc:Work>
    </rdf:RDF>
  </metadata>
  <defs
     id="defs6" />
  <image
     style="display:none"
     y="54"
     x="50"
     id="image10"
     xlink:href="file:///home/lexande/timelines/timelines/streetmap/../streetmap/bioosm.png"
     preserveAspectRatio="none"
     height="3196"
     width="3196" />
  <path
     id="path899"
     d="m 1485.0732,2151.1561 33.9411,-31.4663 29.6985,-48.4368"
     style="opacity:1;fill:none;fill-opacity:0.38039216;fill-rule:nonzero;stroke:#ee1d23;stroke-width:5;stroke-linecap:butt;stroke-linejoin:round;stroke-miterlimit:4;stroke-dasharray:none;stroke-opacity:1" />
  <text
     x="139.453079"
     y="206.9609"
     id="text2992"
     xml:space="preserve"
     style="font-style:normal;font-weight:normal;font-size:143.99993896px;line-height:125%;font-family:Sans;-inkscape-font-specification:Sans;letter-spacing:0px;word-spacing:0px;fill:#000000;fill-opacity:1;stroke:none"><tspan
       x="139.453079"
       y="206.9609"
       id="tspan1">1975</tspan></text>

  <path
     id="path897"
     d="m 1480.4985,2285.1593 12.6473,-12.8848 9.0631,-19.5916 -0.3758,-11.8723 -3.7129,-10.8314 -35.435,-30.3598 -28.8715,-37.7051 -9.3092,-2.1706 -18.6927,1.9632 -196.3938,42.6581 -32.1677,14.6351 -21.25,0.5 -29.25,1 -25.5,-9.5 -13.5,-10.75 -28,-47.25 -13.75,-16.5 -17.25,-41 -26.5,-28.5 -14.24996,-34.25 -16.5,-19.75 -39.75,-38.5 -7.5,-18.75 -2,-22 13,-105.5 6.25,-23.25 3.25,-20.25 -3,-13.25 -46.75,-65.5 -13.75,-11 -34.5,-17.25 -24.25,-19.25 -66.21694,-55.0816 -12.44146,-18.7247 -7.57944,-29.937 -14.39814,-18.3871 -34.23285,-23.4887 -28.38017,-12.5301 -16.6034,-4.1164 -27.48567,-18.4183 -31.92758,-10.2374 -30.11757,-13.0118 -19.23818,-19.291 -30.97487,-41.4452 -15.05985,-8.4458 -15.40324,-8.0919 -14.03488,-12.5556 -63.12623,-95.7372 -11.83717,-7.7783 -24.15954,-6.8579 -14.58075,-7.9019 -20.77969,-18.6159"
     style="opacity:1;fill:none;fill-opacity:0.380392;fill-rule:nonzero;stroke:#00a54f;stroke-width:5;stroke-linecap:butt;stroke-linejoin:round;stroke-miterlimit:4;stroke-dasharray:none;stroke-opacity:1" />
</svg>
