<?xml version="1.0" encoding="UTF-8" standalone="no"?>
<svg
   xmlns:dc="http://purl.org/dc/elements/1.1/"
   xmlns:cc="http://creativecommons.org/ns#"
   xmlns:rdf="http://www.w3.org/1999/02/22-rdf-syntax-ns#"
   xmlns:svg="http://www.w3.org/2000/svg"
   xmlns="http://www.w3.org/2000/svg"
   xmlns:xlink="http://www.w3.org/1999/xlink"
   viewBox="50 0 2550 2800"
   height="2800"
   width="2550"
   id="svg2"
   version="1.1">
  <metadata
     id="metadata8">
    <rdf:RDF>
      <cc:Work
         rdf:about="">
        <dc:format>image/svg+xml</dc:format>
        <dc:type
           rdf:resource="http://purl.org/dc/dcmitype/StillImage" />
        <dc:title />
      </cc:Work>
    </rdf:RDF>
  </metadata>
  <defs
     id="defs6" />
  <image
     style="display:none"
     y="54"
     x="50"
     id="image10"
     xlink:href="file:///home/lexande/timelines/timelines/streetmap/../streetmap/bioosm.png"
     preserveAspectRatio="none"
     height="3196"
     width="3196" />
  <path
     id="path870"
     d="m 1709.9063,2486.9217 c -0.035,-0.028 -0.069,-0.058 -0.1015,-0.088 l -30.5,-28.25 c -0.088,-0.082 -0.1701,-0.1697 -0.2461,-0.2637 l -15.75,-19.5 c -0.033,-0.041 -0.065,-0.082 -0.096,-0.125 l -28.5,-40.25 c -0.089,-0.1261 -0.1665,-0.2601 -0.2305,-0.4004 l -8.75,-19 c -0.067,-0.1475 -0.1202,-0.3012 -0.1582,-0.459 l -4.9277,-20.4453 -15.9317,-30.1465 -17.2343,-17.4785 -12.2344,-6.7168 -31.6074,-10.6191 -30.0625,-5.2168 c -0.1746,-0.031 -0.3455,-0.079 -0.5098,-0.1465 l -10.5,-4.25 c -0.1,-0.04 -0.197,-0.087 -0.291,-0.1387 l -25,-14.1093 -87.291,-25.6153 -6.4785,-0.8633 -8.4727,4.8086 -40.457,25.2227 c -0.3033,0.1891 -0.6437,0.3114 -0.9981,0.3574 l -5.75,0.75 c -0.347,0.045 -0.6996,0.017 -1.0351,-0.082 l -91.75,-27.25 c -0.21,-0.062 -0.411,-0.1513 -0.5977,-0.2656 l -14.25,-8.75 c -0.2506,-0.154 -0.4721,-0.3511 -0.6543,-0.5821 l -7.5,-9.5 c -0.2111,-0.2674 -0.3651,-0.5751 -0.4531,-0.9043 l -3,-11.25 c -0.082,-0.3074 -0.104,-0.6275 -0.066,-0.9433 l 1.5,-12.5 c 0.025,-0.2095 0.077,-0.4149 0.1543,-0.6114 l 13.3008,-33.9902 -0.4649,-7.8769 -3.4902,-29.1758 c 0,-0.017 -0.01,-0.034 -0.01,-0.051 l -3.4765,-35.0117 -3.9942,-13.3965 -8.2305,-8 -9.9609,-4.6328 -8.3574,-0.6973 -9.2852,0.7149 -18.2441,5.4238 c -0.064,0.019 -0.1284,0.035 -0.1934,0.049 l -8.25,1.75 c -0.1708,0.036 -0.3449,0.055 -0.5195,0.055 h -11.5 c -0.5194,0 -1.0259,-0.1618 -1.4492,-0.4629 l -16.5,-11.75 c -0.2272,-0.1612 -0.4259,-0.3592 -0.5879,-0.5859 l -13,-18.25 c -0.1167,-0.1642 -0.2131,-0.3419 -0.2871,-0.5293 l -50.5,-127.25 -9.5508,-36.9219 -8.875,-15.375 -11.75,-9.375 -20,-11.5 -7,-5.5 -4,-9.25 -0.5,-52.5 -18.25,-35.25 -25.5,-28.5 -15,-16.75 -2,-8.75 v -14.75 l 13,-18.25 1.75,-12.25 -2,-14 -18.75,-96 -8.5,-14.25 -34,-26.75 -35.5,-23.75 -26,-6.75 -22.75,-19 -68,-62.75 -58.75,-23 -45.25,-22.75 -26.5,-14.75 -57.75,-54.25 -5.25,-5.5 -1.75,-6.25 2,-9 14.5,-29.5 28.25,-70 4,-21.25 -0.75,-21 -15.5,-24 -1.75,-9.75 2.5,-7.25 6,-7.5 9,-3 21,2.5 6.25,-3.75 6.25,-6.25 2.25,-9.25 7.5,-59 -1.75,-8.5 -7,-12.75 -13.75,-7 -42.25,-25.25 -5.25,-8 -16.5,-53.5 2.25,-29 -4.75,-13 -30.5,-54.5 v -8.25 l 2.25,-9.75 6.25,-4.75 11.25,-3.25 14.25,3 9.75,-1.5 10,-7.5 29.75,-63.5 8,-7 11.25,-3.5 21.5,6 8,-0.75 9,-3 6.25,-5.75 8.25,-22.5 -8.25,-52 4.75,-15 21.75,-29 8.75,-8.25 13.25,-1.25 20.25,6.25 6.75,-2.25 9.25,-6 24,-41.25 9.75,-10.5 7,-3.25 12,-0.75 45,14.25 8,0.75 10.5,-4.5 5.5,-8.25 7.25,-17.25 6.75,-8 26.5,-15.75 8.25,-2 126.75,1.25 11.5,4.75 41.75,27.25 7.5,2 h 8.5 l 12.5,-5.25 54.5,-29 10.75,-5 10.75,1.75 15.75,5.75 13.25,-2.5 8.5,-8 5.5,-7.75 V 404 l -3.5,-6.5 -9.25,-11 -3.5,-10 4,-10 13.25,-11.5 4.25,-8.75 2.5,-14.75 1.5,-14.5 6,-10.5 22.25,-21.75 5.75,-11.75 5.5,-24 9.25,-18.5 v -8.75 l -3.75,-8.25 -22,-24.75 -18.5,-29.75 -1.5,-11.5 7,-19.25 -2,-22.25"
     style="color:#000000;font-style:normal;font-variant:normal;font-weight:normal;font-stretch:normal;font-size:medium;line-height:normal;font-family:sans-serif;font-variant-ligatures:normal;font-variant-position:normal;font-variant-caps:normal;font-variant-numeric:normal;font-variant-alternates:normal;font-feature-settings:normal;text-indent:0;text-align:start;text-decoration:none;text-decoration-line:none;text-decoration-style:solid;text-decoration-color:#000000;letter-spacing:normal;word-spacing:normal;text-transform:none;writing-mode:lr-tb;direction:ltr;text-orientation:mixed;dominant-baseline:auto;baseline-shift:baseline;text-anchor:start;white-space:normal;shape-padding:0;clip-rule:nonzero;display:inline;overflow:visible;visibility:visible;opacity:1;isolation:auto;mix-blend-mode:normal;color-interpolation:sRGB;color-interpolation-filters:linearRGB;solid-color:#000000;solid-opacity:1;vector-effect:none;fill:none;fill-opacity:1;fill-rule:nonzero;stroke:#ef4722;stroke-width:5;stroke-linecap:butt;stroke-linejoin:round;stroke-miterlimit:4;stroke-dasharray:none;stroke-dashoffset:0;stroke-opacity:1;color-rendering:auto;image-rendering:auto;shape-rendering:auto;text-rendering:auto;enable-background:accumulate" />
  <path
     id="path897"
     d="m 1463,2282 -30,21.5 -10.25,19 -8.5,14.25 -8,20.75 -10,8.5 -21,8.5 -32.25,1.75 -47.75,-0.25 -12,-7.25 -20.5,-23.5 -3,-15.25 -3.5,-36.75 -7,-16.75 -28.5,-27.75 -19.25,-16.75 -24.25,-13 -21.25,0.5 -29.25,1 -25.5,-9.5 -13.5,-10.75 -28,-47.25 -13.75,-16.5 -17.25,-41 -26.5,-28.5 -14.25,-34.25 -16.5,-19.75 -39.75,-38.5 -7.5,-18.75 -2,-22 13,-105.5 6.25,-23.25 3.25,-20.25 -3,-13.25 -46.75,-65.5 -13.75,-11 -34.5,-17.25 -24.25,-19.25"
     style="opacity:1;fill:none;fill-opacity:0.38039216;fill-rule:nonzero;stroke:#00a54f;stroke-width:5;stroke-linecap:butt;stroke-linejoin:round;stroke-miterlimit:4;stroke-dasharray:none;stroke-opacity:1" />
  <path
     id="path899"
     d="m 1485.0732,2151.1561 33.9411,-31.4663 29.6985,-48.4368"
     style="opacity:1;fill:none;fill-opacity:0.38039216;fill-rule:nonzero;stroke:#ee1d23;stroke-width:5;stroke-linecap:butt;stroke-linejoin:round;stroke-miterlimit:4;stroke-dasharray:none;stroke-opacity:1" />
  <text
     x="139.453079"
     y="206.9609"
     id="text2992"
     xml:space="preserve"
     style="font-style:normal;font-weight:normal;font-size:143.99993896px;line-height:125%;font-family:Sans;-inkscape-font-specification:Sans;letter-spacing:0px;word-spacing:0px;fill:#000000;fill-opacity:1;stroke:none"><tspan
       x="139.453079"
       y="206.9609"
       id="tspan1">2000</tspan></text>
</svg>
