<?xml version="1.0" encoding="UTF-8" standalone="no"?>
<svg
   xmlns:dc="http://purl.org/dc/elements/1.1/"
   xmlns:cc="http://creativecommons.org/ns#"
   xmlns:rdf="http://www.w3.org/1999/02/22-rdf-syntax-ns#"
   xmlns:svg="http://www.w3.org/2000/svg"
   xmlns="http://www.w3.org/2000/svg"
   xmlns:xlink="http://www.w3.org/1999/xlink"
   id="svg2"
   viewBox="0, 0, 7050, 8600"
   height="8600"
   width="7050"
   version="1.1">
  <metadata
     id="metadata8">
    <rdf:RDF>
      <cc:Work
         rdf:about="">
        <dc:format>image/svg+xml</dc:format>
        <dc:type
           rdf:resource="http://purl.org/dc/dcmitype/StillImage" />
        <dc:title></dc:title>
      </cc:Work>
    </rdf:RDF>
  </metadata>
  <defs
     id="defs6" />
  <image
     xlink:href=".././../streetmap/melosm.png"
     x="-100"
     y="-465.63574"
     width="10398.818"
     height="9065.6357"
     id="image10"
     style="display:none" />
  <path
     style="fill:none;stroke:#00578b;stroke-width:5;stroke-linecap:butt;stroke-linejoin:round;stroke-miterlimit:4;stroke-dasharray:none;stroke-opacity:1"
     id="path3786"
     d="m 5161.181,4243.773 6,-44.0001 8.5,-41.9999 27.5,-78 2,-22 -3.5,-20.5 -5,-14.5 -35,-68.5 -121.5,-237.5001 -4,-17 11,-73.5 -2,-23 -17.5,-16.4999 -18.5,-1 -41.5,4 -45,4.5 -35.5,-0.5 -23.5,-11.5 -22.5,-27 -23.5,-11.5 -51.5,-12.5 -137,-18 -41,-2.5 -61,-10.5 -22,2.5 -20,8 -43.5,42.5 -70.5,48.4999 -19.4306,2.9449 -21.5729,1.7705 -21.9214,-1.9928 -168.8228,-21.9214 -17.9357,-3.9857 -7.6867,-11.103 -19.9285,-17.6509 -83.6997,-31.8856 -36.8363,-24.1417 -52.2725,-43.8999 -21.6367,-13.6653 -28.1846,-5.6938 -79.1445,27.8999" />
  <path
     style="fill:none;stroke:#00578b;stroke-width:5;stroke-linecap:butt;stroke-linejoin:round;stroke-miterlimit:4;stroke-dasharray:none;stroke-opacity:1"
     id="path3788"
     d="m 5003.181,3586.273 25.5,-7.5 24.5,-4 67,5 19,1.5 14.5,-6 54.5,-26 14.5,-3.5 16,1.5 85.5,19.5 24,1.5 26,-6 21.5,-9.5 21.5,-16 67,-60.5 27,-11 74,-2 138.5,26 139,25 20,-1 24.5,-12.5 23.5,-12 15.5,-2.5 40.5,7 63.5,1.5 147.5,24 22.5,0 42.5,-7.5 49,-11.5 130,-23.5 114.5,-21.5 18,0 189.5,19 42,-2.5 81,-6 32,-8 45.5,-25 21.5,-12.5" />
  <path
     style="fill:none;stroke:#d31d2c;stroke-width:5;stroke-linecap:butt;stroke-linejoin:round;stroke-miterlimit:4;stroke-dasharray:none;stroke-opacity:1"
     id="path3790"
     d="m 4141.9957,3000.623 -6.8147,49.65 4,21.5 -0.5,21.5 -36,274 -7.5,38.5 -8.5,16 -13,12.5 -12,6 -25.5,3.5 -126.5,-19.5 -21.75,-3.4419 -4.3519,-0.2637 -77.872,27.9207" />
  <path
     style="fill:none;stroke:#00a8e6;stroke-width:5;stroke-linecap:butt;stroke-linejoin:round;stroke-miterlimit:4;stroke-dasharray:none;stroke-opacity:1"
     id="path3796"
     d="m 3457.8948,3256.9987 36.2862,44.7743 32.5,46.5 34,37 6.7093,8.4171 39.2653,71.1168" />
  <path
     style="fill:none;stroke:#03852d;stroke-width:5;stroke-linecap:butt;stroke-linejoin:round;stroke-miterlimit:4;stroke-dasharray:none;stroke-opacity:1"
     id="path3798"
     d="m 3453.25,3258.5003 -31.2899,-26.2077 -33.2922,-23.5843 -14.9869,-37.9353 -35.5,-157.5 -11,-64.5 -11.5,-39.5 -31.5,-51 -30.5,-40 -17.5,-43.5 -18.5,-114.5001 -14.5,-33.5 -16,-37 -8.5,-50 0.5,-47 10,-39.5 7.5,-26.5 19.5,-34 32.5,-30.5 55.5,-31.5 21,-24.5 13.5,-30.5 2,-35.5 -15,-121 -11.5,-40 -58.5,-111 -13.5,-52 -54,-212.5 -15.5,-63.5 0.5,-59 6.5,-81 13.5,-63 20.5,-37.5 11.3092,-18.4179" />
  <path
     style="fill:none;stroke:#fbbd10;stroke-width:5;stroke-linecap:butt;stroke-linejoin:round;stroke-miterlimit:4;stroke-dasharray:none;stroke-opacity:1"
     id="path3802"
     d="m 1759.681,2323.7729 76,125.5 86.5,144 33.5,58 92.5,153.5001 56.5,93 92.5,157 20,23 38.5,33 39.5,20 35.5,12 454.5,65.5 143.5,20 61,-10.5 14.6572,-7.6205 11.0928,-10.1295 42.75,-28.25 33,-13.5 35,-7 41,1 193,37 33.2918,10.8133 44.4775,33.4545 25.3561,21.3237" />
  <path
     style="fill:none;stroke:#f373ac;stroke-width:5;stroke-linecap:butt;stroke-linejoin:round;stroke-miterlimit:4;stroke-dasharray:none;stroke-opacity:1"
     id="path3812"
     d="m 3923.681,4094.773 -5,-7 -43,-49 -42,-37 -47,-45 -40,-48.5 -32,-57 -16.5,-40 -49.5,-133.0001 -6.5,-28.5 2,-28 8.5,-25.4999 h 0.5 l 20,-21.5 70.5802,-77.5348 3.8029,-2.4695 6.9645,-3.5809 42.4613,-13.4705" />
  <text
     style="font-style:normal;font-weight:normal;font-size:144px;line-height:125%;font-family:Sans;-inkscape-font-specification:Sans;letter-spacing:0px;word-spacing:0px;fill:#000000;fill-opacity:1;stroke:none"
     xml:space="preserve"
     id="text3820"
     y="206.96094"
     x="89.453125"><tspan
       id="tspan1"
       y="206.96094"
       x="89.453125">1980</tspan></text>
  <text
     style="font-style:normal;font-weight:normal;font-size:144px;line-height:125%;font-family:Sans;-inkscape-font-specification:Sans;letter-spacing:0px;word-spacing:0px;fill:#000000;fill-opacity:1;stroke:none"
     xml:space="preserve"
     id="text3824"
     y="8497.9609"
     x="89.453125"><tspan
       id="tspan2"
       y="8497.9609"
       x="89.453125">1980</tspan></text>
  <path
     style="fill:none;stroke:#00a8e6;stroke-width:5;stroke-linecap:butt;stroke-linejoin:round;stroke-miterlimit:4;stroke-dasharray:none;stroke-opacity:1"
     id="path4221"
     d="m 3793.5315,3468.697 61.9082,-22.3274 18.6068,-6.0093 18.9965,3.8547 22.6232,13.9901 28.0063,22.6102 30.4068,25.339 32.3559,21.0508 49.1187,18.712 33.1356,12.8644 21.8305,19.1017 13.8525,21.0508 4.6054,18.0409 -18.7118,120.1767 -4.9083,36.2197 0.4985,13.4495 1.3854,13.9773 12.2677,13.5607 73.6716,37.0858 54.6213,29.3535 74.8787,35.6465 18.2678,16.2071 20.8786,25.7071 147.0962,189.2678 174.9517,199.1261 54.1516,46.5289 82.6541,67.4914 175,99.5 246,140.4999 20.5,21 244,231 239.5,230.5 157,149.5 153.5,147 421.5,405 244,211.5 27,15" />
  <path
     style="fill:none;stroke:#00a8e6;stroke-width:5;stroke-linecap:butt;stroke-linejoin:round;stroke-miterlimit:4;stroke-dasharray:none;stroke-opacity:1"
     id="path4225"
     d="m 3606.6556,3464.8069 12.0466,21.4873 9.4661,13.2246 8.7161,8.9661 11.5254,7.3771 17.7034,1.5297 15.1737,-6.2373 37.7839,-17.5424 34.0255,-11.9152 40.6852,-13.2498" />
  <path
     d="m 3018.181,3204.0233 -68.5,91.75 -66.5,90.5 -25,42.5 -7,27.5 -38.5,193.9999 -28.5,134 -2,30.0001 9.5,97.5 62,166.5 19,41 23,33 33,25 60.5,23.4999 64.5,28.5001"
     id="path3804"
     style="fill:none;stroke:#00a8e6;stroke-width:5;stroke-linecap:butt;stroke-linejoin:round;stroke-miterlimit:4;stroke-dasharray:none;stroke-opacity:1" />
  <path
     style="fill:none;stroke:#03852d;stroke-width:5;stroke-linecap:butt;stroke-linejoin:round;stroke-miterlimit:4;stroke-dasharray:none;stroke-opacity:1"
     id="path4231"
     d="m 3453.25,3258.5003 37.25,46.75 31.5,45 39.75,43.25 40.25,73.5" />
  <path
     d="m 4248.91,5506.3745 15.9831,-103.6949 v -17.5424 l -3.8983,-14.0339 -6.2373,-14.0339 -10.1356,-15.983 -84.5932,-95.8983 -21.0509,-13.2543 -15.5932,-10.9152 -39.7627,-49.5085 -17.9322,-24.5593 -0.3898,-21.4407 4.2881,-14.4237 58.8644,-124.7458 10.5254,-20.2712 46.3899,-49.1186 17.5423,-23 9.356,-15.5932 6.2372,-19.8814 17.1526,-119.678 16.7627,-101.7457 0.7797,-26.1186 -1.9492,-25.7289 -3.8983,-21.0508 -6.2373,-14.8136 -5.8474,-12.8644 -48.339,-83.8134 -28.4577,-49.5086 -27.2881,-70.1695 -14.4237,-35.4746 -3.1187,-17.5424 1.9492,-15.5932 17.1525,-113.4406 3.1187,-26.1187 -2.339,-17.5423 -2.7288,-13.2542 -5.4576,-11.6949 -9.7458,-19.1017 -7.017,-8.1866 -28.0678,-28.8473 -9.3559,-28.0679 -1.1695,-28.8474 20.661,-139.1695 5.286,-57.284 22.9886,-155.3186 -4.1483,-16.1434 -11.9806,-17.0927 -18.9417,-16.7129 -31.8162,-12.5797 -53.3616,-20.3508 -33.6059,-23.3702 -28.5527,-23.2349 -25.937,-21.5755 -21.8037,-13.1706 -14.7191,-3.0701 -15.5445,4.8705 -61.5122,22.6468"
     id="path3776"
     style="fill:none;stroke:#f373ac;stroke-width:5;stroke-linecap:butt;stroke-linejoin:round;stroke-miterlimit:4;stroke-dasharray:none;stroke-opacity:1" />
  <path
     style="fill:none;stroke:#03852d;stroke-width:5;stroke-linecap:butt;stroke-linejoin:round;stroke-miterlimit:4;stroke-dasharray:none;stroke-opacity:1"
     id="path4215"
     d="m 5722.6812,8472.7728 112,-326.5 14,-44.5 -2.5,-31.5 -11,-22 -64,-96.5 -14.5,-28.5 -4.5,-19 -0.5,-227.5 -2,-30 -8,-26.5 -39,-100 -11,-57 -11.5,-54.5 -21.5,-97.5 -10,-85 -3.5,-35.5 -22.5,-82.5 -24,-63 -27,-73 -41,-88 -119,-255.5 -55.5,-96 -20,-25 -70.5,-136.5 -75,-137.5 -23.5,-32 -86.5,-95 -56.5,-62.5 -28,-46.5 -72,-131 -128,-233.5 -133.5,-243 -17,-43 -7.5,-36 v -36 l 8,-59.5 -1,-22 -15.5,-41 -6,-20 3,-27.5 45,-305.5 33.5,-227.4999 7.5,-44 11.5,-22.5 23.5,-25.5 9.5,-22.5 1.5,-19.5 -5,-22 -17.4497,-18.2678 -18.8787,-16.7322 -33.8787,-28.2322 -179.8536,-203.6465 -144.6213,-187.1464 -22.2929,-26.0607 -15.4393,-14.7929 -75.8358,-36.1213 -54,-29.5 -75.25,-37.5 -13.75,-15.75 -1.1531,-13.7022 -1.0414,-14.6995 5.6946,-40.1964 17.8534,-117.2347 -4.2518,-16.6863 -12.9984,-18.9891 -20.6917,-17.9629 -32.5662,-12.5797 -51.1116,-19.8508 -32.3559,-21.6202 -29.5527,-24.4849 -27.437,-22.3255 -22.0537,-13.4206 -16.7191,-3.5701 -16.0445,4.8705 -62.7622,22.8968" />
  <path
     style="fill:none;stroke:#03852d;stroke-width:5;stroke-linecap:butt;stroke-linejoin:round;stroke-miterlimit:4;stroke-dasharray:none;stroke-opacity:1"
     id="path4223"
     d="m 3602.1558,3467.3068 12.7966,22.4873 9.9661,13.4746 7.4661,7.4661 12.5254,9.1271 15.9534,2.2797 8.6737,-0.7373 52.0339,-23.7924 32.5255,-11.1652 42.1852,-13.4998" />
  <path
     d="m 6179.6805,4411.7729 -157,-55.5 -124,-16 -219.5,1.5 -60.5,-5.5 -23.5,-5 -47,-20 -26,-7 -167.5,16 -50.5,5 -118.5,37 -45.5,5.5 -67.5,6 -21,-1.5 -33.5,-18.5 -16.5,-17.5 -10.5,-20 -13.5,-42.5 -11,-22 -24,-30.5 -9,-17.5001 -19,-86.4999 -40.5,-69.5 -15.5,-22 -19,-18 -120,-50 -17,-12 -15.5,-22 -14,-32 -23.5,-57 -12.5,-16.5 -18.5,-15.5 -20.4999,-8.5001 -53.5,-6.5 -16,-4.5 -18.5,-13 -9.5,-16.5 -10,-18 -18,-16 -12.5,-22 -21,-63.5 -14.5,-17.5 -20,-7.5 h -51 l -22,2 -21.5,-1 -180.5,-25.4999 -11.3305,-3.0699 -7.3643,-9.6118 -19.7967,-18.0598 -42.3856,-15.6144 -40.1187,-15.712 -34.8559,-22.5508 -28.1568,-23.589 -28.5063,-23.6102 -21.1232,-12.7401 -23.4965,-4.6047 -17.8568,5.5093 -62.4082,22.8274 -41.1852,13.7498 -33.5255,10.9152 -37.0339,17.5424 -14.4237,6.2373 -15.2034,-0.7797 -10.5254,-6.6271 -8.9661,-8.9661 -8.9661,-12.4746 -11.2966,-20.4873 -39.8785,-72.5595 -40.5666,-45.0644 -32.7584,-45.878 -34.6453,-44.6904"
     id="path3006"
     style="fill:none;stroke:#fbbd10;stroke-width:5;stroke-linecap:butt;stroke-linejoin:round;stroke-miterlimit:4;stroke-dasharray:none;stroke-opacity:1" />
  <path
     d="m 3695.4804,1647.5944 46.7006,491.6785 10.5,117.5 -0.5,35 -18,175 -25,197 -20.5,181.0001 -9.5,24.5 -19,18 -25.5,6.5 -42.5,2.5 -35.5,19 -28,37.5 -28.5,24 -47.5,28 -19,29 -12.5,51.5 -2,37.5 14.5,70.5 8,32 16.2138,31.7257"
     id="path5774"
     style="fill:none;stroke:#fbbd10;stroke-width:5;stroke-linecap:butt;stroke-linejoin:round;stroke-miterlimit:4;stroke-dasharray:none;stroke-opacity:1" />
  <path
     d="m 3017.931,3203.7733 43,-28 32.25,-13.5 33.5,-5.75 40.5,1.25 193,36.5 30.5,8.9997 34.9346,26.4727 33.5719,28.943"
     id="path5778"
     style="fill:none;stroke:#00a8e6;stroke-width:5;stroke-linecap:butt;stroke-linejoin:round;stroke-miterlimit:4;stroke-dasharray:none;stroke-opacity:1" />
  <path
     style="fill:none;stroke:#ff6600;stroke-width:5;stroke-linecap:butt;stroke-linejoin:round;stroke-miterlimit:4;stroke-dasharray:none;stroke-opacity:1"
     id="path3810"
     d="m 3378.681,3813.773 11,-21.5001 14,-15.5 27,-21.5 154,-117 49,-30 38.2217,-37.9686 67.3973,-74.0713 20.9646,-25.5089 31.8435,-12.276" />
</svg>
