<svg xmlns="http://www.w3.org/2000/svg" width="1250" height="2100"><path d="M122.5 1987.25c-.25-2-2.75-15-2.75-15l1.5-21.75 4-13.25 6.75-11 12.25-11.75 15.75-4.25 15.75 2.5 53.5 9.5 9.5 3.75 25.75 11.5 24.5 17.25 35.25 26.75 10.5 2.5 7.75-4 19.25-22.25L375 1931.5l10.25-27 18.5-42 7.25-8.75 33.5-23 7.75-3.25 6-1.75 6.75-1 12.5 8 26.25 25.75 10 2.75 11.5-1 12-7.5 9.5-9.5 11.5-16.25 8.75-6.5 66-31 20.25-14.5 13-4H679l17.75 7.25 23 17.25 13 5.75 33.5 8.25 59.25 11.75L838 1820l22.75 4.5 7.5-1.25 5.25-4.5 1-7.25-3.75-21 1.5-9.25 14.25-44.75 3.5-15.75 10-21.5 8-9.25 11-7 7.25.25 13.5-3.25 12.5-7.75 14-9.5L1029 1632l4.25-3.25 17.5-24.5.75-5.25-1.25-6.75-6.75-17.75-1-11.25 3.25-18.75-2.25-9 .25-18.5-1.5-7-5.5-10.5-6.75-20.75" fill="none" stroke="#d64808" stroke-width="5" stroke-linejoin="round"/><path d="M1030 1478.75l-12.5-33.75-4.5-7-11.75-10.75-5.75-6-3-7-1.75-9.75-.75-8-.75-17.5 3.25-10.25 4.75-12.25 1.25-13-3-19.5v-15.25l.5-7.25" fill="none" stroke="#d64808" stroke-linejoin="round"/><path d="M996 1301.5l2.5-17.75.25-10.5-7-24 1.5-21 3.25-6.75 26.5-28.25 9.25-19L1036 1160l-.25-26.25 1-47.75" fill="none" stroke="#d64808" stroke-width="5" stroke-linejoin="round"/><path d="M1036.75 1086v-7.25l1.5-2 3.75-2 24.75-1.25 15.5-3 8.5-5.75 3.75-5.75 2.5-7 .25-9-20.25-57.75-.75-12 6.25-55.25 3.25-9-.25-9-4.25-6.75-7-5.25-10.75-2-11 1-12.25 1.75-6-.25-5.5-3-4.25-5.5-2.25-10 9-67.5-3.5-17.5-3.75-12.75-11.5-26.75-5.75-24.75-14.5-26.5L979 685l-35.5-31-12.75-34.5-19.25-35-7-13-13.75-18.5-6.5-15.75-1-5.25 1-6 5.75-6.5 1-6-2.75-5.75-3.75-5-2.25-10L879 471.5l1.75-2 5.25-.75 2.5-3.5-.25-10.25 2.5-6.75 8.75-9 4.75-7-.5-2.75-3.5-5-48-31.5L826 382.25" fill="none" stroke="#d64808" stroke-linejoin="round"/><path d="M852.185 315.113l6.717-2.12 16.794 6.54 18.385 9.015 13.435 3.182 20.33.708 15.556 4.773 16.086 4.066" fill="none" stroke="#404041" stroke-width="5" stroke-linejoin="round"/><text style="-inkscape-font-specification:Sans" y="206.96094" x="89.453178" font-weight="400" font-size="144px" font-family="Sans"><tspan y="206.96094" x="89.453178">2020</tspan></text></svg>