<?xml version="1.0" encoding="UTF-8" standalone="no"?>
<!-- Created with Inkscape (http://www.inkscape.org/) -->

<svg
   version="1.1"
   width="2304"
   height="3072"
   id="svg2"
   xmlns:xlink="http://www.w3.org/1999/xlink"
   xmlns="http://www.w3.org/2000/svg"
   xmlns:svg="http://www.w3.org/2000/svg"
   xmlns:rdf="http://www.w3.org/1999/02/22-rdf-syntax-ns#"
   xmlns:cc="http://creativecommons.org/ns#"
   xmlns:dc="http://purl.org/dc/elements/1.1/">
  <metadata
     id="metadata8">
    <rdf:RDF>
      <cc:Work
         rdf:about="">
        <dc:format>image/svg+xml</dc:format>
        <dc:type
           rdf:resource="http://purl.org/dc/dcmitype/StillImage" />
      </cc:Work>
    </rdf:RDF>
  </metadata>
  <defs
     id="defs6" />
  <rect
     width="2304"
     height="3072"
     rx="17.540001"
     x="100"
     y="3.0499999e-05"
     id="rect3757"
     style="display:inline;fill:none;fill-opacity:0.5;fill-rule:nonzero;stroke:none;stroke-width:2;stroke-linecap:round;stroke-linejoin:round;stroke-miterlimit:4;stroke-dasharray:none;stroke-opacity:1" />
  <image
     xlink:href="../experiments/basemap/ncalosm.png"
     x="-1436"
     y="-2816"
     width="6144"
     height="7168"
     id="image10"
     style="display:none;opacity:1" />
  <path
     style="opacity:1;fill:none;stroke:#800080;stroke-width:5;stroke-linejoin:round;stroke-dasharray:none"
     d="m 250.96183,1119.337 54.22901,-14.8659 42.08506,-11.5158 h 11.20175 l 10.78298,-12.6674 89.09052,-89.71865"
     id="path1" />
  <path
     d="m 584,473.5 18.5,19.5 8,0.5 64.5,2 4.5,5 67.5,105 7.5,15 19,70.5 9,12 14,7.5 28,-4 6.5,4 7,48.5 -14,45 3,29 8.5,18 -14,74.5 1,8 7,13 -10,28 3.5,7.5 21.5,9 24.5,18.5 49,27.5 30,27 35,22 61,66.5 97.5,104.5 9.5,18.5 128.5,112 8,3 51.5,-7 62.5,-1 14,-1.5 24,-8.5 11.5,-1 12,0.5 13,-3.5 22,-22 13,-5.5 27.5,3.5 h 12 l 20,-8 53.5,-0.5 22,10.5 53.5,12 29,-2.5 9,-2 h 65 l 43,-11.5 h 67"
     id="path3759"
     style="fill:none;stroke:#ff6600;stroke-width:5;stroke-linecap:butt;stroke-linejoin:round;stroke-miterlimit:4;stroke-dasharray:none;stroke-opacity:1" />
  <path
     d="m 915.5,1042 30.5,26.5 33,20.5 158,168.5 9,20 18.5,17 108.5,94 15,9.5 82.5,73 13,17 72.5,115.5 20.5,54 77,83 88,84 19.5,29.5 21.5,20 24,11 21.5,10.5 9.5,9 7.5,29.5 4,43.5 40.5,96.5 43,108 37.5,95.5 56.5,129.5 23.5,53 28,106 8.5,39.5 23,28 -1,5 -100,61 h -9.5 l -5,-5 -12,-16 -18.5,-15.5 -49.5,-33 -132,-71 -62.5,1.5 -46.5,-12 -27,-11 -106.5,-42 -129,-65 -128,-101 -109,-85.5 -88.5,-71.5 -80.5,-62.5 -52.5,-58.5 -60,-63 -38,-34 -38.5,-54.5 -8,-21 -46,-54 -10.5,-13 -147,-78.5 -23.5,-23 -29.75,-41.5 -14,-27 -46,-90.5 -17.5,-27.5 -11,-8.5 -14,-11.5 -18,-19.5 -20,-17 -12,-22.5 -14,-12 -13.5,-19 -14.5,-13 -7.5,-13 -4,-49 11.5,-17.5 6.5,-7.5 24.5,-2 14,-8.5 10,-18.5 3,-18.5 6,-13.5 33,-23.5 25,-20 20.5,-35.5 -6,-79 2,-20 75,-74.5 58.5,-32 112.25,-22 35.5,2.5 71.75,14.25 18.25,7.25 38.5,20.5 8.25,-2 3.5,-3 3.5,-0.75 23.5,10.75 22.25,16 z"
     id="path3761-1"
     style="fill:none;stroke:#0000ff;stroke-width:5;stroke-linecap:butt;stroke-linejoin:round;stroke-miterlimit:4;stroke-dasharray:none;stroke-opacity:1" />
  <path
     d="m 581.5,477.5 19,20.5 h 10 l 64.5,2.5 47,75 19,29 8.5,15.5 19.5,73 8.5,11.5 19.5,11.5 25.5,-5 5,3.5 6,45 -14.5,45 3,29.5 8.5,18.5 -14.5,74.5 4.5,10.5 4.5,11 -10.5,29 -3.5,6.5 -6,2 -42,-22.5 -15.5,-5.5 -72.5,-14 -35.5,-2.5 -116,24.5 -58.5,32 -75,74.5 -2,20 6,79 -20.5,35.5 -25,20 -33,23.5 -6,13.5 -3,18.5 -10,18.5 -14,8.5 -24.5,2 -6.5,7.5 -11.5,17.5 3.5,51.5 7,13 16,15.5 14,20.5 13,9.5 12.5,23.5 18,15 19.5,21.5 13.5,11.5 12,9 18,27 44.5,89.5 9.5,12.5 14,3.5 21.5,-3"
     id="path3761"
     style="fill:none;stroke:#ff0000;stroke-width:5;stroke-linecap:butt;stroke-linejoin:round;stroke-miterlimit:4;stroke-dasharray:none;stroke-opacity:1" />
  <path
     d="m 461.69,994.17 -89.1,89.8 -26.16,31.11 -48.08,35.36 -24.75,23.33 -20.51,27.93 -19.09,26.87 -4.6,20.15 0.71,25.1 8.49,19.09 2.47,10.96 -0.35,18.38 8.13,6.01"
     id="path3781"
     style="fill:none;stroke:#008000;stroke-width:5;stroke-linecap:butt;stroke-linejoin:round;stroke-miterlimit:4;stroke-dasharray:none;stroke-opacity:1" />
  <path
     d="m 1783.25,173.29 -24.41,-4.07 -60.2,-15.46 -20.34,1.63 -56.14,35.8 -39.86,7.32 -29.29,12.2 -36.61,60.2 -2.44,15.46 16.27,41.49 -7.32,33.36 0.81,14.64 17.08,53.69 -3.25,14.64 -84.61,57.76 -16.27,22.78 -9.76,41.49 -17.9,43.93 -16.27,11.39 -30.1,-4.07 -33.36,2.44 -82.17,17.9 -27.66,8.14 -21.15,-3.25 -21.15,3.25 -36.61,-9.76 -31.73,7.32 -17.9,22.78 -18.71,31.73 -14.64,11.39 -144,85.42 -34.98,21.17 -31.73,14.64 -8.14,26.85 -13.02,70.78 9.26,18.27 -19.28,46.37 -10.58,22.09 -3.81,12.52 -9.76,25.22 -50.44,-2.44 -90.31,-30.92 -177.35,-11.38 -23.59,26.03 -11.39,-7.32 -170.85,23.59 -138.31,8.14"
     id="path2987"
     style="fill:none;stroke:#ffcc00;stroke-width:5;stroke-linecap:butt;stroke-linejoin:round;stroke-miterlimit:4;stroke-dasharray:none;stroke-opacity:1" />
  <path
     d="m 462.5,1014 -10,10 v 4 l 22.5,23 v 3.5 l -26,25 -0.5,6 4.5,6 11,12.5 5.5,15.5 1,27 -5.5,52 -9,70.5 -12,39.5 -1,65 4,13 29.5,45 0.5,12 -5,16.5 -42,55.5 -17.5,30 -3,23 4,20.5 40.5,75.5 28,42 22,23 149.5,79 56.5,68 8.5,22 37,51.5 37,33.5 69.5,71 47,54 175,138 51,39.5 109,85 69,55.5 124,63.5 132.5,52.5 50,13.5 63.5,-0.5 126,66.5 65,43.5 14,14.5 9,14 -1.5,24.5 2.5,15.5 11.5,11 8,5 19,1.5 48,74.5 12.5,10.5 66.5,28.5 22,25.5 22,26 69,57 115.5,85 23.5,13.5"
     id="path3783"
     style="fill:none;stroke:#00ff00;stroke-width:1px;stroke-linecap:butt;stroke-linejoin:miter;stroke-opacity:1" />
  <path
     d="m 1783.25,173.29 16.75,-0.79 20.5,-1 29.5,-4.5 50.5,1.5 92,27 45.5,-0.5 34,12 163.5,41.5"
     id="path3785"
     style="fill:none;stroke:#ffcc00;stroke-width:5;stroke-linecap:butt;stroke-linejoin:miter;stroke-dasharray:none;stroke-opacity:1" />
  <path
     style="opacity:1;fill:none;stroke:#999999;stroke-width:5;stroke-linejoin:round;stroke-dasharray:none;stroke-opacity:1"
     d="m 995.93021,1298.5649 7.53759,-9.0033 16.9597,-7.3282 6.2813,-7.747 4.1876,-21.566 -0.2094,-18.0065 9.6314,-22.6129 -0.4187,-20.3097 1.8844,-9.2127 -1.3737,-28.2871"
     id="path2" />
  <path
     style="opacity:1;fill:none;stroke:#808000;stroke-width:1;stroke-linejoin:round;stroke-dasharray:none;stroke-opacity:1"
     d="m 121.25532,433.94303 6.66238,-12.5845 6.81043,-6.95848 0.29611,-8.29097 -2.66495,-6.66238 -35.616454,-39.53012 -5.098096,-7.25459 -1.184423,-6.95849 4.737693,-23.54041 -3.109111,-15.24944 -8.587068,-13.76892 -23.096251,-23.83652 -14.36113,-1.03637 -5.922116,-4.73769 -2.072741,-7.40265 1.480529,-9.32733 27.685891,-34.94048 18.210506,-56.85231 14.573481,-58.925053 v -15.101395 l -4.950043,-32.867742 -14.657236,-26.797573 -20.579352,-16.5819244 -12.436443,-15.1013946 -18.063949,-44.074684 -16.750273,-31.825518 -43.550708,-62.813526 -4.606325,-15.91276 -1.256271,-43.13195"
     id="path3" />
</svg>
