<?xml version="1.0" encoding="UTF-8" standalone="no"?>
<svg
   xmlns:dc="http://purl.org/dc/elements/1.1/"
   xmlns:cc="http://creativecommons.org/ns#"
   xmlns:rdf="http://www.w3.org/1999/02/22-rdf-syntax-ns#"
   xmlns:svg="http://www.w3.org/2000/svg"
   xmlns="http://www.w3.org/2000/svg"
   xmlns:xlink="http://www.w3.org/1999/xlink"
   id="svg2"
   viewBox="-25, -75, 3246, 3745.39"
   height="3745.39"
   width="3246"
   version="1.1">
  <metadata
     id="metadata28">
    <rdf:RDF>
      <cc:Work
         rdf:about="">
        <dc:format>image/svg+xml</dc:format>
        <dc:type
           rdf:resource="http://purl.org/dc/dcmitype/StillImage" />
        <dc:title></dc:title>
      </cc:Work>
    </rdf:RDF>
  </metadata>
  <defs
     id="defs6" />
  <image
     xlink:href="../../timelines/bos/./../basemap/bososm.png"
     id="image12"
     height="3745.38"
     width="3246"
     y="0.01"
     x="0"
     style="display:none" />
  <path
     style="fill:none;stroke:#0000ff;stroke-width:5;stroke-linecap:butt;stroke-linejoin:round;stroke-miterlimit:4;stroke-dasharray:none;stroke-opacity:1"
     id="path3604"
     d="m 2135.21,1207.18 -23.33,-0.35 -7.42,9.37 -0.53,6.72 -3.54,30.41 -7.42,27.4 -4.6,6.89 -61.42,23.22 -3.96,5.78 24.95,72.07 -2.47,6.46 -23.54,24.98 -75.1,86.81 -15.61,11.7 -23.21,12.51 -110.01,58.24 -75,42 -11.5,4.5 -24,1.5 -15.5,2.5 -17,14 -11,3 -26,1.5 -25.11,3.3 -14.96,-4.73 -61.24,10.91 h -55.6 l -51.69,-11.7 -68.28,-49.74 -22.43,-9.75 -28.29,-1.95 -38.04,10.73 -27.31,5.85 -150.21,118.99 -23.41,6.83 h -23.41 l -114.12,-29.26 -106.31,-27.31 -30.24,0.98 -35.11,12.68 -148.25,100.46 -19.51,30.24 -33.16,39.01 -17.56,8.78 -17.56,3.9 -25.36,-6.83 -168.74,-109.24 -39.99,-36.09 -19.51,-17.56 -199.95,-135.58" />
  <path
     d="m 2068.74,1421.95 -12.36,6.55 -141.95,160.96 -75.08,84.11 -23.36,55.52 -13.43,50.04 -44.37,80.93 -17.31,32.66 -13.9,58.05 -31.49,65.17 -65.32,124.55 -51.62,105.63 -9.56,50.77 -4,140 -25.5,174 -32,196.5 -45.5,134.5 -73.5,202.5 -215.5,604.5"
     id="path5219"
     style="fill:none;stroke:#ff80b2;stroke-width:5;stroke-linecap:butt;stroke-linejoin:round;stroke-miterlimit:4;stroke-dasharray:none;stroke-opacity:1" />
  <path
     d="m 2909.22,3573.1 21.19,-165.46 -9.22,-43.26 -56.57,-109.24 -14.63,-37.06 -1.87,-31.49 29.35,-156.75 12.59,-71.92 -5.94,-33.42 -13.66,-30.24 -19.51,-34.14 -219.46,-281.88 -63.4,-82.91 -18.53,-52.67 -26.33,-37.06 -198.97,-236.04 -24.38,-40.97 -3.73,-24.23 14.42,-92.16 12.02,-34.65 16.26,-59.04 -1.06,-93.34 -14.85,-40.31 -28.64,-21.57 -35,-41.37 -9.55,-30.05 -11.26,-95.01"
     id="path5217"
     style="fill:none;stroke:#ddafe9;stroke-width:5;stroke-linecap:butt;stroke-linejoin:round;stroke-miterlimit:4;stroke-dasharray:none;stroke-opacity:1" />
  <path
     style="fill:none;stroke:#ff0000;stroke-width:5;stroke-linecap:butt;stroke-linejoin:round;stroke-miterlimit:4;stroke-opacity:1;stroke-dasharray:none"
     id="path2818"
     d="m 1874.64,2649.08 20.48,-6.83 14.63,-0.98 39.99,9.75 109.24,-37.06 53.64,-9.75 26.33,0.98 25.36,-0.98 21.46,-6.83 20.48,-17.56 47.79,-45.84 0.98,-21.46 -16.58,-50.72 -40.97,-79 -19.51,-118.99 -9.75,-54.62 6.83,-32.19 19.51,-18.53 38.04,-13.65 h 25.36 l 20.48,-3.9 9.75,-13.66 2.93,-19.51 14.63,-97.54 12.68,-37.06 15.61,-56.57 -0.98,-89.73 -13.65,-38.04 -19.51,-25.36 -32.19,-37.06 -0.98,-9.75 9.75,-18.53 v -41.94 l -4.88,-164.84 7.8,-18.53 47.79,-84.86 2.93,-15.61 -6.83,-15.61 -50.72,-28.29 -35.11,-32.19 -52.66,-35.61 -45.85,-43.4 -15.61,-6.83 -102.41,-12.68 -229.21,-23.41 -15.61,-6.83 -77.05,-63.4 -53.64,-28.29 -36.09,-41.94 -25.36,-11.7 -8.78,-8.78 0.98,-24.38 -9.75,-17.56 -7.8,-19.51 11.7,-136.55 2.93,-32.19 -2.93,-89.73 -7.8,-15.61 -15.61,-14.63 -32.19,-10.73 -29.26,-2.93 -90.71,-9.75 -23.41,4.88 -9.75,11.7 -8.78,7.8 -13.65,5.85 -32.19,-1.95 -6.81,-3.17 -8.43,-16.37 -42.16,-119.03 -9.42,-32.24 -10.41,-39.68 -28.27,-38.68 -9.92,-40.17 -6.94,-16.37 -10.91,-14.88 -39.18,-22.81 -63.98,-35.71 -49.1,-9.42 -16.86,-9.42 -51.58,-48.6 -16.86,-7.44 -17.85,-1.98 -96.21,10.41" />
  <path
     style="fill:none;stroke:#ff0000;stroke-width:5;stroke-linecap:butt;stroke-linejoin:round;stroke-miterlimit:4;stroke-opacity:1;stroke-dasharray:none"
     id="path3592"
     d="m 2290.15,2101.91 5.85,30.24 24.38,40.97 198.97,236.04 26.33,37.06 18.53,52.67 63.4,82.91 219.46,281.88 19.51,34.14 13.66,30.24 4.88,30.24 -13.66,75.1 -28.29,152.16 2.93,36.09 14.63,37.06 56.57,109.24 7.8,39.01 -20.48,165.81" />
  <path
     style="fill:none;stroke:#0000ff;stroke-width:5;stroke-linecap:butt;stroke-linejoin:round;stroke-miterlimit:4;stroke-dasharray:none;stroke-opacity:1"
     id="path3594"
     d="m 3026.54,384.3 -15.61,43.89 -3.9,39.99 15.61,138.5 -10.73,39.01 -56.57,112.17 -33.16,32.19 -120.94,52.67 -66.32,69.25 -16.58,1.95 h -40.97 l -30.24,16.58 -86.81,101.44 -11.7,4.88 -34.14,1.95 -3.9,4.88 -41.94,53.64 -87.78,122.9 -54.62,14.63 -48.77,8.78 -30.24,-4.88 -9.75,-21.46 -9.17,-7.77 -12.85,-5.19 -80.25,2.89" />
  <path
     style="fill:none;stroke:#b3b3b3;stroke-width:1;stroke-linecap:butt;stroke-linejoin:round;stroke-miterlimit:4;stroke-opacity:1;stroke-dasharray:none"
     id="path3631"
     d="m 2563.92,1461.04 -56.43,0.76 -5.2,2.22 -0.49,6.34 2.55,3.14 6.93,0.71 113.47,-0.2 0.22,5.33 -8.89,0.12 -0.49,-18.47 -53.74,0.18 -1.48,-1.98 2.45,-4.27 -37.13,-23.09 -10.73,-17.07 -11.22,12.68 -8.9,-3.07" />
  <path
     style="fill:none;stroke:#008000;stroke-width:5;stroke-linecap:butt;stroke-linejoin:round;stroke-miterlimit:4;stroke-opacity:1;stroke-dasharray:none"
     id="path3599"
     d="m 1826.85,1397.7 -123.8,43.82" />
  <path
     style="fill:none;stroke:#008000;stroke-width:5;stroke-linecap:butt;stroke-linejoin:round;stroke-miterlimit:4;stroke-dasharray:none;stroke-opacity:1"
     id="path3880"
     d="m 2262.83,1211.43 -2.03,8.25 -9.66,14.16" />
  <path
     style="fill:none;fill-rule:evenodd;stroke:#0000ff;stroke-width:5;stroke-linecap:butt;stroke-linejoin:round;stroke-miterlimit:4;stroke-dasharray:none;stroke-opacity:1"
     d="m 2529.01,679.41 63.64,15.99 11.38,6.55 16.62,17.32 12.02,21.57 44.55,94.4 -0.35,17.68 -2.47,14.5 -42.43,62.23 -9.55,30.41"
     id="path4503" />
  <path
     d="m 1023.15,1531.32 h 35.11 l 34.14,0.98 42.92,7.8 39.01,23.41 11.17,3.38 25,27.5 11.63,-0.65 45.84,-12.68 36.09,-9.75 82.91,-30.24 65.35,-5.85 29.26,-12.68 41.94,-14.63 188.16,-68.81"
     id="path4550"
     style="fill:none;stroke:#008000;stroke-width:1;stroke-linecap:butt;stroke-linejoin:round;stroke-miterlimit:4;stroke-dasharray:none;stroke-opacity:1" />
  <path
     d="m 1598.37,489.58 35.67,71.41 92.5,166 22.5,23.5 99.5,60 17,13.5 59.76,86.63 26.74,20.87 23.91,10.63 51.6,-4.42 16.5,6.72 35.56,25.02"
     id="path3776"
     style="fill:none;stroke:#ff6600;stroke-width:5;stroke-linecap:butt;stroke-linejoin:round;stroke-miterlimit:4;stroke-dasharray:none;stroke-opacity:1" />
  <path
     style="fill:none;fill-rule:evenodd;stroke:#0000ff;stroke-width:5;stroke-linecap:butt;stroke-linejoin:miter;stroke-opacity:1;stroke-miterlimit:4;stroke-dasharray:none"
     d="M 541.33,1863.92 459,1978.89 l -87,62.5 -57.5,61 -35.5,33.5 -17.5,25.5 -15.5,40 -4.5,23.5 -2,127 -39.5,209"
     id="path5165" />
  <path
     d="m 1402,3104.39 11.5,-7 20.5,-20.5 33.5,-73.5 18.5,-34 61.5,-85 27.5,-38 22,-25 41,-40 74,-54 15,-11.5 62,-82 24,-30 29.5,-27.5 23.5,-25 79.5,-101 28.5,-55 24,-31.5 21,-27.5 11,-22 5,-30 -3.5,-33.5 -7,-63.5 -2.5,-65.5 20.5,-44.5 32.5,-38 16,-26 26,-73 19,-51 9,-45.5 13.5,-71.5 12.5,-36 44,-93.5 23.5,-46 2,-68 3,-36 27.49,-52.9 29.01,-83.51 14.81,-33.15 23.69,-15.03 7.6,-13.97 -1.41,-25.28 -13.08,-48.08 -14.32,-15.38 -34.83,-23.69 -7.22,-5.26 -31.25,-45.5 -100,-83.5 -27.17,-26.43 -127.99,-30.05 -100.76,-15.91 -25.1,-9.55 -70,-46.32 -84.85,-25.81 -36.06,-22.63 -42.07,-36.06 -56.22,-41.72 -31.47,-12.37 -231.22,-51.62 -60.1,-20.51 -31.11,-20.15 -50.2,-15.2 -240.06,-1.06 -16.26,2.47 -23.69,9.55 -17.32,17.68 -8.84,16.62 -13.79,16.97 -98.29,69.65 -127.99,50.91 -184.55,60.1 -30.05,18.38 -53.74,37.12 -31.47,16.62 -83.09,19.09 -30.76,10.96 -23.69,11.31 -24.04,16.62 -16.97,18.03 -24.75,38.54 -20.86,18.74 -88.03,61.52 -15.2,7.42 -10.25,0.35"
     id="path3778"
     style="fill:none;stroke:#ddafe9;stroke-width:5;stroke-linecap:butt;stroke-linejoin:round;stroke-miterlimit:4;stroke-dasharray:none;stroke-opacity:1" />
  <path
     style="fill:none;fill-rule:evenodd;stroke:#ff80b2;stroke-width:5;stroke-linecap:butt;stroke-linejoin:round;stroke-miterlimit:4;stroke-dasharray:none;stroke-opacity:1"
     d="M 64.47,1452.45 74.5,1446.39 l 17.5,-6.5 212,-27 211,-44 82.5,-19.5 97,-37 120,-37 85,-20 81.5,14.5 131,-3.5 100.5,-5.5 50,-7.5 312,60 104,71.5 22,9.5 85,22 292,5.5 83.72,1.42 82.28,21.08 h 8.5 l 10.34,-5.42 8.06,-13.04 25.13,-71.05 15.04,-34.56 24.04,-15.56 6.72,-11.49 -1.24,-23.33 -12.9,-46.49 -13.08,-13.97 -34.47,-23.86 -7.42,-7.25 -31.75,-44.48 -99.72,-83 -44.25,-44.25 -34.5,-43.25 -16.25,-29.25 -0.71,-14.52 3.21,-64.23 -5.25,-207 4.25,-326.25 3.5,-49 51,-164.5 8.5,-35 4.25,-43.5 10.25,-113.25"
     id="path5182" />
  <path
     style="fill:none;fill-rule:evenodd;stroke:#ff80b2;stroke-width:5;stroke-linecap:butt;stroke-linejoin:round;stroke-opacity:1;stroke-miterlimit:4;stroke-dasharray:none"
     d="m 2047,798.14 9.25,-50 17,-26.75 51.5,-49 65.5,-72.75 30,-12 31.75,-4.5 24,5 95,45.75 224.25,57.25 25.75,-1.25 23,-5.5 84,-52.75 142.25,-94.09 20.51,-19.8 158.04,-286.38 176.42,-313.6"
     id="path5184" />
  <path
     style="fill:none;stroke:#ddafe9;stroke-width:5;stroke-linecap:butt;stroke-linejoin:round;stroke-miterlimit:4;stroke-dasharray:none;stroke-opacity:1"
     id="path5186"
     d="m 1994.32,992.5 -14.48,-12.55 -30.98,-44.92 -26.74,-20.87 -59.76,-86.63 -17,-13.5 -99.5,-60 -22.5,-23.5 -92.5,-166 -36.38,-72.83 -14.7,-27.33 -156.98,-172.89 -124.1,-136.12 -20.15,-42.07 -6.72,-52.68 0.35,-26.87 9.19,-36.06 37.83,-80.61" />
  <path
     style="fill:none;stroke:#ff6600;stroke-width:5;stroke-linecap:butt;stroke-linejoin:round;stroke-miterlimit:4;stroke-opacity:1;stroke-dasharray:none"
     id="path3596"
     d="m 2118.48,31.22 -4.88,46.82 -7.8,33.16 -50.72,163.86 -3.9,45.84 -3.9,335.52 5.85,199.95 -2.93,63.4 20.48,39.01 25.36,29.26 48.77,38.04 88.76,106.31 35.11,48.77 -1.95,64.37 -4.88,16.58 -38.04,50.72 -8.78,13.66 -1.95,18.53 -14.63,39.99 -15.45,20.65 -8.76,8.19 -12.85,4.32 -92.66,-0.98 -15.61,7.8 -140.45,159.96 -76.08,84.86 -25.36,58.52 -12.68,47.79 -44.87,81.93 -17.56,33.16 -13.65,57.55 -30.24,62.42 -66.32,126.8 -13.43,25.39 -76,66.5 -21,29 -16,24.5 -14,23 -10.5,14 -14.5,11.5 -22.5,12 -17,6 -159.5,5 -31,0.5 -17,5 -21.5,8.5 -22,15 -53.5,41 -17.5,17" />
  <path
     style="fill:none;stroke:#008000;stroke-width:5;stroke-linecap:butt;stroke-linejoin:round;stroke-miterlimit:4;stroke-dasharray:none;stroke-opacity:1"
     id="path3601"
     d="m 1782.23,1392.36 25.11,4.36 h 44.87 l 21.46,12.68 h 39.01 l 26.33,5.85 217.51,-77.05 29.26,0.98 15.61,-33.16 27.31,-35.11 22.43,-37.06 -5.85,-12.68 17.55,-9.73 0.87,-28.94 -32.84,-45.6 -7.16,-9.09 -6.69,-0.27 -23.41,11.7 -27.31,-8.78 -96.56,-65.35 -25.75,-25.26 -56.02,-43.79 -103.1,-16.83 -21.74,-8.07 -18.24,-11.22" />
  <path
     d="m 2186,1337.89 -10.5,52 1.5,8"
     id="path3005"
     style="fill:none;stroke:#008000;stroke-width:5;stroke-linecap:butt;stroke-linejoin:round;stroke-miterlimit:4;stroke-dasharray:none;stroke-opacity:1" />
  <path
     d="m 2177,1396.39 2.5,3.5 11.5,3.5 2.5,4 -0.5,5.5 -5.5,31 -13,31 -27.5,31.5 -15.5,7 -20,16.5 -63.5,60 -37.5,39.5 -12.5,23.5 -13,19.5 -6,8 -2.75,28 3,16.25 -3.25,26 22.5,89 -1.25,18 -17.5,42 -6.75,32.5 0.75,9.75 9,22 -4,22.5 6.25,14.25 -4.75,17 -12.25,20.75 -12.5,59.5 -15.25,9.5"
     id="path3775"
     style="fill:none;stroke:#008000;stroke-width:1px;stroke-linecap:butt;stroke-linejoin:miter;stroke-opacity:1" />
  <path
     d="m 2183,1455.39 5,6 40,14 41,8.5 29.5,26 102,91 9.5,3 225.5,-6 4.5,-3.5 -0.5,-34"
     id="path3782"
     style="fill:none;stroke:#008000;stroke-width:1px;stroke-linecap:butt;stroke-linejoin:miter;stroke-opacity:1" />
  <path
     d="m 2586.31,1000.11 20.09,30.13 18.78,24.89 14.85,15.72 11.36,8.73 8.73,0.44 16.6,-3.93 8.73,-2.18 24.46,17.03 5.24,17.91 10.48,8.3 2.62,12.23 -17.03,26.64 -2.18,3.06 -8.3,0.87 -12.67,-3.49 -20.96,-11.36 -10.92,-6.11 -4.37,2.62 -9.17,12.23 -7.42,4.8 -1.31,30.13 -3.06,27.08 -1.75,10.04 -2.62,3.49 -10.92,0.44"
     id="path3011"
     style="fill:none;stroke:#000000;stroke-width:5;stroke-linecap:butt;stroke-linejoin:round;stroke-miterlimit:4;stroke-dasharray:none;stroke-opacity:1" />
  <path
     style="fill:none;stroke:#008000;stroke-width:1;stroke-linecap:butt;stroke-linejoin:round;stroke-miterlimit:4;stroke-dasharray:none;stroke-opacity:1"
     id="path3598"
     d="m 1782.23,1392.36 -272.38,-47.33 -20.48,17.56 -18.53,10.73 -33.16,-0.98 -49.74,34.14 -18.53,2.93 -26.33,-12.68 -14.63,6.83 -7.8,33.16 -29.26,54.62 -18.53,16.58 h -32.19 l -18.53,3.9 -22.43,19.51 -13.65,26.33" />
  <path
     style="fill:none;stroke:#b3b3b3;stroke-width:5;stroke-linecap:butt;stroke-linejoin:round;stroke-miterlimit:4;stroke-opacity:1;stroke-dasharray:none"
     id="path3606"
     d="m 2287.22,1357.71 11.7,-22.43 24.38,-9.75 50.72,4.88 50.72,33.16 4.88,25.36 7.8,16.58 19.51,8.78 15.61,7.8 22.31,2.3" />
  <path
     d="m 2055.56,1581.64 -9.9,0.71 -53.03,-60.1 -41.72,-38.18 -62.93,-171.12 -26.87,-71.42 -14.14,-16.26 -72.83,-57.98 -71.42,-60.81 -140.01,-70 -3.54,-7.78 9.9,-14.85"
     id="path3780"
     style="fill:none;stroke:#008000;stroke-width:1px;stroke-linecap:butt;stroke-linejoin:miter;stroke-opacity:1" />
  <text
     style="font-style:normal;font-weight:normal;font-size:144px;font-family:Sans;-inkscape-font-specification:Sans;fill:#000000;fill-opacity:1;stroke:none"
     xml:space="preserve"
     id="text10393"
     y="131.96"
     x="64.45"><tspan
       id="tspan1"
       y="131.96"
       x="64.45">Boston Fantasy Map</tspan></text>
  <path
     d="m 1769.3,1419.15 -3.9,9.75 -13.65,12.68 -74.13,62.42 -18.53,32.19 -10.73,42.92 -21.46,43.89 -13.81,14.17"
     id="path3604-6"
     style="fill:none;stroke:#008000;stroke-width:5;stroke-linecap:butt;stroke-linejoin:round;stroke-miterlimit:4;stroke-dasharray:none;stroke-opacity:1" />
  <path
     style="fill:none;stroke:#008000;stroke-width:1;stroke-linecap:butt;stroke-linejoin:round;stroke-miterlimit:4;stroke-dasharray:none;stroke-opacity:1"
     id="path3600-3"
     d="m 1654.73,1839.69 -6.01,-24.75 0.35,-54.45 12.53,-26.27 4.69,-33.11 -15.01,-42.02 -17.25,-2.23 -17.85,1.34 -2.66,-3.52 -1.58,-15.19 2.86,-3.59" />
</svg>
