<?xml version="1.0" encoding="UTF-8" standalone="no"?>
<!-- Created with Inkscape (http://www.inkscape.org/) -->

<svg
   xmlns:dc="http://purl.org/dc/elements/1.1/"
   xmlns:cc="http://creativecommons.org/ns#"
   xmlns:rdf="http://www.w3.org/1999/02/22-rdf-syntax-ns#"
   xmlns:svg="http://www.w3.org/2000/svg"
   xmlns="http://www.w3.org/2000/svg"
   xmlns:xlink="http://www.w3.org/1999/xlink"
   version="1.1"
   width="3350"
   height="3050"
   id="svg2">
  <metadata
     id="metadata25">
    <rdf:RDF>
      <cc:Work
         rdf:about="">
        <dc:format>image/svg+xml</dc:format>
        <dc:type
           rdf:resource="http://purl.org/dc/dcmitype/StillImage" />
        <dc:title></dc:title>
      </cc:Work>
    </rdf:RDF>
  </metadata>
  <defs
     id="defs6" />
  <image
     xlink:href="../../timelines/basemap/sfoosm.png"
     style="display:none"
     id="image12"
     height="3471"
     width="3471"
     y="-221"
     x="-4.44e-16" />
  <path
     d="m 1472.6,1509.92 -84.45,-85.06 -13.56,-19.11 -21.57,-136.84 -9.1,-62.59 -14.85,-12.57"
     id="path3786"
     style="fill:none;stroke:#d31345;stroke-width:5;stroke-linecap:butt;stroke-linejoin:round;stroke-miterlimit:4;stroke-opacity:1;stroke-dasharray:none" />
  <path
     d="m 2741.63,-222.13 28.21,111.37 31.68,89.59 16.33,40.59 7.92,10.39 6.43,7.92 21.28,13.36 11.88,6.93 24.25,12.37 15.84,6.93 8.91,1.98 75.24,-12.37 36.13,-5.94 13.36,7.92 7.42,5.94 4.95,13.36 16.33,158.88 -0.49,29.2 -29.7,100.97 -20.29,61.87 -0.49,16.33 0.49,17.32 18.31,109.88 5.44,26.23 22.77,35.64 8.91,14.35 6.43,22.77 L 3047,846.5 l -7.5,36 -9,36.5 -9,43 0.5,17.5 5.5,16 4.5,7.5 21.5,33.5 3,7.5 0,9 -4,9 -66.5,134.5 -4,7.5 -10,9 -12,6 -11.5,1 -13,-1.5 -20,-12 -27.5,-16.5 -29,-15.5 -27.5,-9.5 -41.5,-10.5 -46.5,-22 -30,-16 -28,-12.5 -51.5,-16 -49,-11 -49.5,-6 -65,-8.5 -46,-4 -69,-5.5 -46,-2.5 -58.5,3 -45.5,4.5 -151,31 -186,36.5 -80,16.5 -37.5,12 -36.5,16.5 -186,106 -11.54,8.48 -30.46,30.52 -89,89.5 -182,180.5 -6.5,15 -2.5,23 1,30 6.5,88 15.5,201.5 3,45.5 -3.5,13.5 -48,92 -35.5,31.5 -46.5,45.5 -38.5,37.5 -19,18.5 -30.5,23.5 -30,23 -31.5,17 -25,15.5 -17.5,15.5 -13.5,19.5 -10,21 -8.5,35 -3.5,33.5 -4.5,39 -7,17.5 -12,18.5 -53.5,55 -15,10 -20,8.5 -59.5,1 -26.5,-0.5 -14,3.5 -11.5,8.5 -13,16.5 -38,59 -7.5,16 -1.5,16.5 0,16.5 2,29.2 3.96,32.67 8.41,41.58 1.98,76.23 4.45,14.35 16.83,38.11 20.29,20.29 17.82,14.85 30.69,25.95 11.38,11.88 11.38,15.84 18.31,27.22 19.3,26.73 22.27,17.82 26.23,22.27"
     id="path3610"
     style="fill:none;stroke:#009ada;stroke-width:5;stroke-linecap:butt;stroke-linejoin:round;stroke-miterlimit:4;stroke-opacity:1;stroke-dasharray:none" />
  <path
     d="m 654.5,2102.5 -5,2.5 -9.5,-6.5 -9,-2.5 -38,3 -4.5,-0.5 -2,-3.5 -1.5,-21 -2.5,-3.5 -152,8 -246.5,14 -2.5,3.5 4,80 -2,3 -8,0.5 -2.5,-2.5 -1.5,-23.5 2.5,-3 7.5,-0.5 2,-2.5"
     id="path3592"
     style="fill:none;stroke:#d31345;stroke-width:1px;stroke-linecap:butt;stroke-linejoin:miter;stroke-opacity:1" />
  <path
     d="m 655,2100.5 -8,15 -15,17 -24.5,24.5 -14.5,18.5 -10,22 -1.5,14 -1.5,44 3.5,5 32,16 8,9.5 11.5,23.5 18.5,16.5 26.5,13.5 31.5,13 71,18.5 40.5,11 40,-0.5 14.5,0 3,4 -3.5,16 2.5,7.5 4.5,1 4,-3 9,-15 1,-3.5 -1.5,-2 -11.5,0 -6.5,-4"
     id="path3594"
     style="fill:none;stroke:#d31345;stroke-width:1px;stroke-linecap:butt;stroke-linejoin:miter;stroke-opacity:1" />
  <path
     d="m 894,2395.5 9.5,-4.5 39,-60.5 23.5,-39.5 6.5,-6 15,-12.5 20.5,-4.5 8.5,-4.5 6,-5.5 6.5,-14 6,-3.5 35,-21 34.5,-21.5 15,-12.5 20.5,-20.5 9.5,-10.5 7,-19.5 7.5,-32.5 5,-13.5 -2.5,-4 -34.5,2.5 -2,-3 -14,-193.5 4.5,-6.5 -0.5,-10.5 5,-5.5 0,-17.5 -2.5,-2.5 -5,-1 -3.5,-3.5 -2.5,-43 -5,-10.5 -2.5,-55 -5,-64.5 3.5,-4.5 27.5,-1"
     id="path3596"
     style="fill:none;stroke:#d31345;stroke-width:1px;stroke-linecap:butt;stroke-linejoin:miter;stroke-opacity:1" />
  <path
     d="M 1129.5,1665.5 1103,1666"
     id="path3598"
     style="fill:none;stroke:#d31345;stroke-width:5;stroke-linecap:butt;stroke-linejoin:miter;stroke-miterlimit:4;stroke-opacity:1;stroke-dasharray:none" />
  <path
     d="m 1104.5,1666 -24,3 -40.5,0.5 -15,2 -35,9.5 -126.5,32 -7.5,3.5 -5,6 -98.5,15.5 -2.5,6 -100,6.5 -3,3 0.5,23 -1.5,3 -521,28.5"
     id="path3600"
     style="fill:none;stroke:#d31345;stroke-width:1px;stroke-linecap:butt;stroke-linejoin:miter;stroke-opacity:1" />
  <path
     d="m 582,2197.5 -30,55 -8,20 -2.5,63 -2.5,88 4,13 37,47 23,29.5 6.5,2.5 78,-1 4,3.5 1,13 3.5,2 107,-1 15,-10.5 35,-51.5 3.5,-11 10,-11 19,-29.5"
     id="path3602"
     style="fill:none;stroke:#d31345;stroke-width:1px;stroke-linecap:butt;stroke-linejoin:miter;stroke-opacity:1" />
  <path
     d="m 880,2387 5,-6 20.5,0.5 5.5,-3"
     id="path3604"
     style="fill:none;stroke:#d31345;stroke-width:1px;stroke-linecap:butt;stroke-linejoin:miter;stroke-opacity:1" />
  <path
     d="m 1569.5,1334 7.5,10 15.5,14 5,12.5 2.5,13 -3,61 -2.5,38 -2.5,10 -7,10 -72.5,71.5"
     id="path3606"
     style="fill:none;stroke:#d31345;stroke-width:1px;stroke-linecap:butt;stroke-linejoin:miter;stroke-opacity:1" />
  <path
     d="m 1570,1336.5 -6.5,-16 -23.5,-28 -10,-1.5 -16,2.5 -16.5,3.5 -57,58.5 -107.5,106.5 -57.5,58 -67.83,66.17 L 1169,1625.5 l -72,74.5 -69.5,72 -21,10.5 -22.5,5 -14,6.5 -28.5,21.5 -137,122.5 -35,29.5 -38,36.5 -25,25.5 -29.5,42.5 -23.5,31.5"
     id="path2818"
     style="fill:none;stroke:#d31345;stroke-width:5;stroke-linecap:butt;stroke-linejoin:round;stroke-miterlimit:4;stroke-opacity:1;stroke-dasharray:none" />
  <path
     d="m 2997,1175.5 1.5,12 6,8.5 82.5,41.5 25.5,16 26.5,21 24,25.5 21,19 21,14 39.46,17.32 10.85,3.85 46.2,25.2 85.05,49.7 27.65,20.65 45.85,34.3 11.2,11.2"
     id="path2863"
     style="fill:none;stroke:#009ada;stroke-width:5;stroke-linecap:butt;stroke-linejoin:round;stroke-miterlimit:4;stroke-opacity:1;stroke-dasharray:none" />
  <path
     d="m 3005.5,1196 -11.5,1 -11.5,6"
     id="path3637"
     style="fill:none;stroke:#009ada;stroke-width:5;stroke-linecap:butt;stroke-linejoin:round;stroke-miterlimit:4;stroke-opacity:1;stroke-dasharray:none" />
  <text
     x="89.45"
     y="2947.96"
     id="text3639"
     xml:space="preserve"
     style="font-size:144px;font-style:normal;font-weight:normal;fill:#000000;fill-opacity:1;stroke:none;font-family:Sans;-inkscape-font-specification:Sans"><tspan
       x="89.45"
       y="2947.96"
       id="tspan2">2010</tspan></text>
  <path
     d="m 3078.7,681.19 5.94,-31.68 4.95,-32.17 4.45,-16.83 8.41,-12.37 11.38,-11.88 15.84,-9.9 73.26,-30.19 65.34,-31.18 49.5,-25.24 49.5,-35.14 47.52,-34.65 20.79,-12.37 20.29,-12.37 16.33,-10.89"
     id="path3057"
     style="fill:none;stroke:#009ada;stroke-width:5;stroke-linecap:butt;stroke-linejoin:round;stroke-miterlimit:4;stroke-opacity:1;stroke-dasharray:none" />
  <text
     x="89.45"
     y="206.96"
     id="text3639-3"
     xml:space="preserve"
     style="font-size:144px;font-style:normal;font-weight:normal;fill:#000000;fill-opacity:1;stroke:none;font-family:Sans;-inkscape-font-specification:Sans"><tspan
       x="89.45"
       y="206.96"
       id="tspan2-3">2010</tspan></text>
  <path
     d="m 1472.76,1509.07 54.74,55.93 25.5,24 4.5,2 14.5,-1.5 4,4 13,165 0.5,35 7,61.5 13,181.5 -1.5,12.5 -70,250.5 -21,59.5 -28.5,78 -14.5,20.5 -1.5,7 1,13 -6,20.5 -5.5,11.5 -20,27 -4.5,5 -20,7.5 -5,5 -19.5,33 -3.5,12"
     id="path3608"
     style="fill:none;stroke:#d31345;stroke-width:1px;stroke-linecap:butt;stroke-linejoin:miter;stroke-opacity:1" />
  <path
     d="m 1331.93,1196.04 -103.38,-90.24 -81.67,13.14"
     id="path3864"
     style="fill:none;stroke:#d31345;stroke-width:1px;stroke-linecap:butt;stroke-linejoin:miter;stroke-opacity:1" />
  <path
     d="m 2984.28,1200.03 -38.84,79.39 -53.12,146.79 -8,73.68 -8,7.42 -103.95,-2.28 -402.09,-27.99 -91.96,-4.57 -677.96,-43.98 -90.81,-87.96 -9.71,-3.43 -61.68,59.97 -6.28,-1.71 -13.14,-11.99 -641.41,99.38 -197.05,12.57"
     id="path3866"
     style="fill:none;stroke:#009ada;stroke-width:5;stroke-linecap:butt;stroke-linejoin:round;stroke-miterlimit:4;stroke-opacity:1;stroke-dasharray:none" />
</svg>
