<?xml version="1.0" encoding="UTF-8" standalone="no"?>
<svg
   xmlns:dc="http://purl.org/dc/elements/1.1/"
   xmlns:cc="http://creativecommons.org/ns#"
   xmlns:rdf="http://www.w3.org/1999/02/22-rdf-syntax-ns#"
   xmlns:svg="http://www.w3.org/2000/svg"
   xmlns="http://www.w3.org/2000/svg"
   xmlns:xlink="http://www.w3.org/1999/xlink"
   version="1.1"
   width="4800"
   height="13900"
   viewBox="-650, -1300, 4800, 13900"
   id="svg2">
  <metadata
     id="metadata8">
    <rdf:RDF>
      <cc:Work
         rdf:about="">
        <dc:format>image/svg+xml</dc:format>
        <dc:type
           rdf:resource="http://purl.org/dc/dcmitype/StillImage" />
        <dc:title></dc:title>
      </cc:Work>
    </rdf:RDF>
  </metadata>
  <defs
     id="defs6" />
  <image
     style="display:none"
     xlink:href="file:///home/alexander/timelines/timelines/per/../streetmap/perosm.png"
     x="-350"
     y="-1503.67"
     width="4295"
     height="8303.67"
     id="image10" />
  <path
     d="m 1915.5,3638.0 21.73,11.52 13.67,3.78 12.61,1.19 20,-2.5 81,-36 46,-22 20,-27 21,-77 2,-38 6,-24.5 26,-42 21.5,-14 35,-13 107,-88.5 92,-75.5 46,-24 56,-24.5 73.5,-23 69.5,11 67,22 29,-1 28.5,-13.5 210.5,-208.5 33.5,-31 31,-18.5 68,-29 127.5,-23 140,1.5 24.5,-12.5 75,-52 49,-31.5 55.5,-14 75,-9.5 40,5.5 28,8"
     id="path3776"
     style="fill:none;stroke:#990033;stroke-width:5;stroke-linecap:butt;stroke-linejoin:round;stroke-miterlimit:4;stroke-dasharray:none;stroke-opacity:1" />
  <path
     d="m 415,5190.5 46,-57.5 26,-37 30,-32.5 12.5,-14 5.5,-59 -21.5,-25.5 -12,-59 11,-121.5 18,-153.5 23.5,-77.5 12.5,-40.5 41,-69 12,-45.5 7.5,-69 24,-75 28.5,-79.5 28.5,-33.5 32,-17.5 72,-22.5 50,0 24,-7 56.5,-32.5 15,-16 13,-23 14.5,-34.5 19,-19 153.5,-131 25.5,-30.5 20,-38 33,-58.5 11.5,-15.5 134.5,-111 15.5,-20.5 31.5,-23.5 67.5,-23 47,-12.5 78.5,-1.5 41.5,7.5 64.5,27 75,33.5 112.5,66"
     id="path3006"
     style="fill:none;stroke:#000099;stroke-width:5;stroke-linecap:butt;stroke-linejoin:round;stroke-miterlimit:4;stroke-opacity:1;stroke-dasharray:none" />
  <text
     x="-560.55"
     y="-1093.04"
     id="text3809"
     xml:space="preserve"
     style="font-size:12px;font-style:normal;font-weight:normal;line-height:125%;letter-spacing:0px;word-spacing:0px;fill:#000000;fill-opacity:1;stroke:none;font-family:Sans;-inkscape-font-specification:Sans"><tspan
       x="-560.55"
       y="-1093.04"
       id="tspan1"
       style="font-size:144px">1970</tspan></text>
  <text
     x="-560.55"
     y="12497.96"
     id="text3809-2"
     xml:space="preserve"
     style="font-size:12px;font-style:normal;font-weight:normal;line-height:125%;letter-spacing:0px;word-spacing:0px;fill:#000000;fill-opacity:1;stroke:none;font-family:Sans;-inkscape-font-specification:Sans"><tspan
       x="-560.55"
       y="12497.96"
       id="tspan2"
       style="font-size:144px"></tspan></text>
</svg>
