<svg xmlns="http://www.w3.org/2000/svg" viewBox="-650, -1300, 4800, 13900" height="13900" width="4800"><path style="fill:none;stroke:#903;stroke-width:5;stroke-linecap:butt;stroke-linejoin:round;stroke-miterlimit:4;stroke-opacity:1;stroke-dasharray:none" d="m1917 3634 33.89 19.31 12.61 1.19 20-2.5 81-36 46-22 20-27 21-77 2-38 6-24.5 26-42 21.5-14 35-13 107-88.5 92-75.5 46-24 56-24.5 73.5-23.069.5 11 67 22 29-1 28.5-13.5L3021 2933l33.5-31 31-18.5 68-29 127.5-23 140 1.5 24.5-12.5 75-52 49-31.5 55.5-14 75-9.540.05.5 28 8"/><path style="fill:none;stroke:#fcbd12;stroke-width:5;stroke-linecap:butt;stroke-linejoin:round;stroke-miterlimit:4;stroke-opacity:1;stroke-dasharray:none" d="m1915.5 3638 33 19.5 18 2 19-3.5 127.5-58.069.5-14.5 99.5-4.5 32.511.042.5 40.5 57.5 64.519.035.55.031.50.5125.5 8.5 34.5 31 43 53 59.5 87 111 15.5 25.5 41.5 86.5 21.521.0108.5 98.5 131.5 122.529.035.5 175 202 110.5 117.5 95 101 40 47 49.5 82.5 13 17 31.5 29 128 79.5 13.5 20 6 19.5-11 47 3 24 14.5 24 81 120 26 29.575.065.5 29.5 32.5 30 52 10.5 49 24 153-16 122.5 10 120 11.5 61.5 14 71 5 41-6.5 34.5-36.075.5-18.0126.55.023.5 45.5121.01.5 36-17.5 85"/><path style="fill:none;stroke:#fcbd12;stroke-width:5;stroke-linecap:butt;stroke-linejoin:round;stroke-miterlimit:4;stroke-opacity:1;stroke-dasharray:none" d="m3273.92 4868.18 7.07 16.260.7114.14-10.61 21.92-117.38 156.27-38.18 36.77"/><path style="fill:none;stroke:#91a333;stroke-width:5;stroke-linecap:butt;stroke-linejoin:round;stroke-miterlimit:4;stroke-opacity:1;stroke-dasharray:none" d="m325-370.5 37 125 14 48L451.5-47l15 42 6 19 6.598.05.5 31.5 16 54 51.5114.013.5 27.530.022.5 43.5 23 51 10 15.5 15.57.021.5-3.5 81 8 157.511.038.5 67 84 42.5 60.522.036.5 13 41 10 73.5 8.5 72.5 9.5 148.5 10.5 189.55.0169.5 2.5 38.5 8.547.011.5 27L1000 1807l44.5 80.527.058.5 59 201 20.5 64.5 3.5 28v67L1143 2474v95l10 88.513.053.5 12.5 28.5 25.529.033.5 19 57 13.5 52.5 16.5 39.530.019.5 30 12 34 5.5 40.58.072.5 7 62 5.5 33.519.051.520.032.5 60.564.041.5 49 22 35 36.5 76.5 23.5 28.5 29.5 21.5 49.5 23.5 13.5 7.2514.023.75 1.25 17.75 7.758.021.5 9 15 8 68 40.25 7.75 11.25-2.5 7.75-5.011.75"/><path style="fill:none;stroke:#009;stroke-width:5;stroke-linecap:butt;stroke-linejoin:round;stroke-miterlimit:4;stroke-opacity:1;stroke-dasharray:none" d="m415 5190.5 46-57.5 26-37 30-32.5 12.5-14.05.5-59-21.5-25.5-12-59 11-121.5 18-153.5 23.5-77.5 12.5-40.5 41-69 12-45.5 7.5-69 24-75 28.5-79.5 28.5-33.5 32-17.5 72-22.5h50l24-7 56.5-32.5 15-16 13-23 14.5-34.5 19-19 153.5-131.025.5-30.5 20-38 33-58.5 11.5-15.5 134.5-111.015.5-20.5 31.5-23.5 67.5-23 47-12.5 78.5-1.5 41.5 7.5 64.5 27 75 33.5 112.5 66"/><text style="font-size:12px;font-style:normal;font-weight:400;line-height:125%;letter-spacing:0;word-spacing:0;fill:#000;fill-opacity:1;stroke:none;font-family:Sans;-inkscape-font-specification:Sans" xml:space="preserve" y="-1093.04" x="-560.55"><tspan style="font-size:144px" y="-1093.04" x="-560.55">2010</tspan></text><text style="font-size:12px;font-style:normal;font-weight:400;line-height:125%;letter-spacing:0;word-spacing:0;fill:#000;fill-opacity:1;stroke:none;font-family:Sans;-inkscape-font-specification:Sans" xml:space="preserve" y="12497.96" x="-560.55"/><path style="fill:none;stroke:#e0701c;stroke-width:5;stroke-linecap:butt;stroke-linejoin:round;stroke-miterlimit:4;stroke-dasharray:none;stroke-opacity:1" d="m1895 3639.91-38.83 91.95-11.67 10.25-33.59-.71-32.53 3.18-12.73 10.61-13.08 25.1-15.91 105.71 8.84 38.54 7.42 16.62 13.08 97.23 2.47 31.47 6.36 22.27 28.99 47.38 13.44 34.65 31.11 73.89 6.36 37.83v45.61l-1.77 32.17-17.32 64.35 2.83 31.11 32.88 90.51 13.44 38.18 1.41 48.08-2.83 57.98 6.01 26.16 31.11 58.69 8.84 25.46-3.54 27.58-3.54 11.31-12.37 36.06-41.37 77.07-11.31 38.18-3.89 47.38-7.42 43.49-14.85 60.1-22.98 77.78-8.13 102.18-7.42 88.74-15.56 190.92-2.47 63.64 3.89 187.38 2.47 39.95 4.6 43.84 4.6 33.94 22.63 103.94 39.6 125.51 21.21 57.98 26.87 63.29 8.13 25.81 4.95 37.48 1.06 70.71 2.12 198.34-5.66 26.87-29.7 117.38-9.28 43.94-3 34 9.5291.04.5 112.5-3.5 34.5-5.044.5-11 51-27.5 85-58.5 154.5-8.5 53-5.5 46 3 50 2 8-3.5 36.5-35.5 92-15.5 29-51.5 76-29.5 84-116 212-17 23.5-19.5 17.5-26.5 17-34 9-41.5 25-29 28.5-37.5 28.5-31.019.5-64 22-62.5 35.5-76.5 22.5-87.5 61-23.5 13.5-51 18-278 148-10 25 .5 23 6.5 14.5 81.5 109 16 31 6 34.5-2 28-10.5 28-27.5 52.5-6.5 34 .5 27 26 114 .5 31-1 42-10.5108.04.558.011.565.080.5 319.5 45 155 52.5 177.5 6.5 27.5 2.5 29-4.5 24.5-9.5 33-14 23.5-50.061.5-16.028.5-8.033.5-1.030.5 2.5 83-5.5 37.5-8 31 1 29.55.039.5-6.573.09.5 33 9 41v26l-7 27-24.5 70.5-9.5 41.5 1 156-4 70.5 7.5 61 6 46-2.5 31.5-19.5 101.5-17.5 167-13.5 36.5-28 48-12 41-5 25-11.5 118-11.5 34.5-13 25-32 35.5-29.027.5-19.043.5-11 51-9.5 59-15.5 38-25.5 29-45 45.5-10.5 25.5-13.070.5"/></svg>