<svg xmlns="http://www.w3.org/2000/svg" width="4200" height="4800"><path style="fill:none;fill-rule:evenodd;stroke:#66c;stroke-width:5;stroke-linecap:butt;stroke-linejoin:round;stroke-miterlimit:4;stroke-dasharray:none;stroke-opacity:1" d="m4028.36 1736.15-29.66 18.88-18.88 5.93-24.81 1.62-46.92-6.47-49.62 8.09-18.34 11.33-16.18 20.49-68.49 50.16-31.82 14.02-8.63 8.09-5.39 12.94-9.17 43.69-5.93 37.75-4.31 12.4-19.95 19.42-11.33 23.73-9.17 9.71-11.87 5.93-15.64 2.16-37.75.54-32.36 4.31-58.25-9.71-140.22 25.35-83.06 32.9-44.22 12.4-44.22 60.4-16.18 6.47-1.62 38.29-14.56 17.26-15.64 29.66-24.27 28.58-26.43 51.77-16.18 3.24-86.29-36.13-62.56-10.79-84.67-46.92-83.06-43.15h-11.33l-6.47 7.55"/><path style="fill:none;fill-rule:evenodd;stroke:#c93;stroke-width:5;stroke-linecap:butt;stroke-linejoin:round;stroke-miterlimit:4;stroke-dasharray:none;stroke-opacity:1" d="m3310.52 2819.11-67.95-60.4-97.08-30.2-77.66-1.08-109.48-19.95-10.25-11.33-51.24-155.86-19.95-16.18-60.94-25.35-29.66-11.33-53.93-30.2-19.42-8.09-37.21-136.45 57.71-103.01-4.31-16.18-56.09-22.11-15.64 1.62-242.16-46.38-49.62-4.85-85.21-10.25-53.93 10.25-38.83-10.79-101.93 3.24-167.19 50.7-38.29-4.31-19.42 5.39-8.63 8.63-40.99 47.46-7.55 6.47-10.79 1.62-13.48-1.08-12.94-10.79-77.66-62.02-12.94-7.55-306.34-39.37"/><path style="fill:none;fill-rule:evenodd;stroke:#396;stroke-width:5;stroke-linecap:butt;stroke-linejoin:round;stroke-miterlimit:4;stroke-dasharray:none;stroke-opacity:1" d="m2200.06 172.65-73.35 115.42-11.33 27.51-11.87 110.56-9.71 24.27-14.56 16.18-22.11 23.19-12.4 15.1-11.33 28.58-49.08 139.68-2.16 16.18v37.75l-11.87 36.67v16.18l4.85 15.1 11.87 12.4 16.18 8.09 43.69 23.73 15.64 10.25 12.94 17.26 8.63 19.95 2.7 14.02-0.54.72-8.09 50.16 10.25 156.94-6.47 32.9 3.78 29.12 7.55 26.43v19.95l-6.47 22.11-67.42 168.81-22.65 55.01-1.08 13.48 4.31 15.64 25.89 46.38 2.7 12.4-2.16 46.92 15.64 79.28-4.31 93.84-11.33 72.27-9.71 25.35-25.35 38.83-24.27 74.43-34.52 39.37-17.26 76.04 18.34 52.85-12.94 61.48-4.85 9.71-40.99 14.02-33.98 48.54-46.92 78.74-15.64 43.69-45.3 24.27-32.9 81.44-2.7 27.51-31.28 145.62-4.85 22.65-11.87 39.91-9.71 50.7 4.85 18.88 28.58 68.49 77.12 94.38 70.11 60.94 46.92 23.19 199.55-19.95 31.28-19.42 25.89-7.01 86.83 3.78 231.91-51.77 63.1-16.72 174.2-2.7 4.85 5.93v120.27l17.8 28.04 2.16 106.79 14.02.12.94 11.87 37.75 2.7 76.04 44.76 12.94 2.7 31.82-14.02 70.11-7.01 78.74-3.78 40.45-10.79 110.56-62.02 45.3-51.24 44.22-183.37 31.82-186.07 45.84-18.34 18.34 1.62 12.4 8.09 18.88 22.11 20.49 12.94h15.64l120.27-79.28 24.27 4.85 41.53 41.53 29.12 51.77 91.68 60.4 11.33 4.85 15.1-4.85 30.74-12.4 108.94-74.43 19.95-4.85 38.29-4.31 56.09-1.62 48-43.15"/><path style="fill:none;fill-rule:evenodd;stroke:#f63;stroke-width:5;stroke-linecap:butt;stroke-linejoin:round;stroke-miterlimit:4;stroke-dasharray:none;stroke-opacity:1" d="m3060.28 1017.23-21.57 85.75-9.17 53.39 1.08 133.21-17.26 99.77 2.16 90.61 2.7 15.64-10.79 144.54-3.78 11.87-25.89 35.6-5.93 16.18v30.2l16.72 53.39v17.8l-4.31 31.82 3.78 32.36-7.55 60.94-7.01 23.73-33.98 69.57-25.35 39.91-26.97 22.65-13.48 19.95-22.11 45.84v128.35l15.64 85.21 2.16 21.57-0.540.8318.34 91.68-2.16 23.19-132.13 201.17-146.7 225.44 3.24 294.47-39.91 39.37-69.03 83.59-70.65 84.67-69.57 155.32-42.07 122.97 5.93 115.42-8.63 11.33-8.09 9.17-22.65 7.55-36.67-12.94-65.8 22.11-15.64 7.55-22.65-2.16-20.49-21.57-9.17-18.34 6.47-129.44-27.51-28.58-12.94-32.36-8.09-4.31-14.56-2.7-50.16 19.95-20.49 25.89-65.26 49.62-62.02 45.84-53.93 28.04-57.71 26.43-36.67 3.24h-19.95l-77.66-21.03-36.67-31.82-93.84-38.83-12.94-16.18-71.19-1.08-12.4 7.01-8.63 12.4-4.85 21.03-3.78 136.99"/><path style="fill:none;fill-rule:evenodd;stroke:#969;stroke-width:5;stroke-linecap:butt;stroke-linejoin:round;stroke-miterlimit:4;stroke-dasharray:none;stroke-opacity:1" d="m170.58 1282.58-0.540.958.63 12.4 9.17 10.79 5.39 10.25 4.31 25.89-2.7 29.12-0.540.489.17 25.35 4.85 8.09 14.02 12.4 10.25 25.35-4.31 34.52-5.39 31.28-3.24 24.27 2.16 11.87 17.8 23.19 8.09 21.03 7.01 97.62-3.24 26.97 2.16 52.85 11.33 42.61 2.7 13.48 13.48 18.88 4.31 32.9 8.09 7.01 14.02 5.93h21.03l421.75-46.92 110.56-5.39 16.72 2.16 15.1 10.25 12.4 11.33 18.34 24.27 26.97 49.08 12.94 15.64 15.64 11.33 39.37 22.65 195.23 81.44 175.28 23.19 9.17 4.31 4.31 10.25 3.24 256.18-18.34 35.06-18.34 49.62-13.48 55.55-8.09 10.25-69.03 59.86-69.03 96.54-1.08 8.09 4.31 32.9 3.78 11.33 11.87 10.25 37.21 12.94 6.47 5.93 38.83 82.52 12.4 9.17 10.25.5437.21-15.64 25.35-6.47 21.03 2.16 241.62 43.69 23.73 3.24 16.72-2.16"/><text style="font-style:normal;font-weight:400;font-size:144px;line-height:125%;font-family:Sans;-inkscape-font-specification:Sans;letter-spacing:0;word-spacing:0;fill:#000;fill-opacity:1;stroke:none" xml:space="preserve" y="206.96" x="89.45"><tspan y="206.96" x="89.45">2015</tspan></text><text style="font-style:normal;font-weight:400;font-size:144px;line-height:125%;font-family:Sans;-inkscape-font-specification:Sans;letter-spacing:0;word-spacing:0;fill:#000;fill-opacity:1;stroke:none" xml:space="preserve" y="4697.96" x="89.45"/><path style="fill:none;fill-rule:evenodd;stroke:#000;stroke-width:5;stroke-linecap:butt;stroke-linejoin:round;stroke-opacity:1;stroke-miterlimit:4;stroke-dasharray:none" d="m2658 1953 143 63"/></svg>