<?xml version="1.0" encoding="UTF-8" standalone="no"?>
<svg
   xmlns:dc="http://purl.org/dc/elements/1.1/"
   xmlns:cc="http://creativecommons.org/ns#"
   xmlns:rdf="http://www.w3.org/1999/02/22-rdf-syntax-ns#"
   xmlns:svg="http://www.w3.org/2000/svg"
   xmlns="http://www.w3.org/2000/svg"
   xmlns:xlink="http://www.w3.org/1999/xlink"
   version="1.1"
   id="svg2"
   width="5700"
   height="5300"
   viewBox="0 0 5700 5300">
  <metadata
     id="metadata8">
    <rdf:RDF>
      <cc:Work
         rdf:about="">
        <dc:format>image/svg+xml</dc:format>
        <dc:type
           rdf:resource="http://purl.org/dc/dcmitype/StillImage" />
        <dc:title></dc:title>
      </cc:Work>
    </rdf:RDF>
  </metadata>
  <defs
     id="defs6" />
  <image
     width="5713.542"
     height="5942.0835"
     preserveAspectRatio="none"
     xlink:href="file:///home/alexander/timelines/timelines/streetmap/../streetmap/zrhosm.png"
     id="image10"
     x="25"
     y="-567.0835"
     style="display:none" />
  <path
     style="opacity:1;fill:none;fill-opacity:1;fill-rule:nonzero;stroke:#5d2082;stroke-width:5;stroke-linecap:butt;stroke-linejoin:round;stroke-miterlimit:4;stroke-dasharray:none;stroke-opacity:1"
     d="m 2101.5656,1526.9249 42.0728,15.9099 85.9108,30.9273"
     id="path4506" />
  <path
     style="opacity:1;fill:none;fill-opacity:1;fill-rule:nonzero;stroke:#ea4d33;stroke-width:5;stroke-linecap:butt;stroke-linejoin:round;stroke-miterlimit:4;stroke-dasharray:none;stroke-opacity:1"
     d="m 2890.792,2063.75 8.25,5 11,13.5 28,39 36.25,57.75 6.75,9 8.5,4.5 48,15.25 11.75,5 8.5,4 19.5,20.25 10.75,14 12.75,25.75 11.25,14 13.25,12.25 10.25,16.5 8,8.5 23,9.5 23.25,1 15.75,4.75 31.5,23.25 16.75,9.75 15.25,5.25 45.5,10.5"
     id="path4742" />
  <path
     style="opacity:1;fill:none;fill-opacity:1;fill-rule:nonzero;stroke:#ea4d33;stroke-width:1;stroke-linecap:butt;stroke-linejoin:round;stroke-miterlimit:4;stroke-dasharray:none;stroke-opacity:1"
     d="m 3314.542,2392 8.75,0.75 35.75,-10"
     id="path4744" />
  <path
     style="opacity:1;fill:none;fill-opacity:1;fill-rule:nonzero;stroke:#ea4d33;stroke-width:1;stroke-linecap:butt;stroke-linejoin:round;stroke-miterlimit:4;stroke-dasharray:none;stroke-opacity:1"
     d="m 2890.792,2063.75 -61.75,-19.5 -10.75,2.25 -16.75,17.5 -10,7.5 -7,2 -12.75,1.25 -12.25,-5.5 -6.5,-6.75 -10.25,-18.75 -6.5,-7 -26,-21.75 -16.25,-21.25 -9.5,-5 -7.75,-2.75 -20.75,2.75 -10,-1.25 -9.75,-4.75 -7.75,-9.5 -7,-17.75 -15.75,-10.5 -6.75,-10.25 -12.5,-17.5 -10,-22.5 -44.75,-45.75 -10,-2.5 -19.25,0.25 -39.5,-7.25 -3.5,-3.75 -4.25,-9.25 -3.25,-1.75 -12,-5.5 -18.5,-12.25 -18.25,-19.75 -12.75,-6.125 -30.875,-15 -25.625,-8 -12.625,-4.375 -3.875,-3.5 -2.25,0.375 -7.125,7.125 -0.375,1.875 2.125,2.5 2,0.375 7.875,-7.25 3.5,-0.75"
     id="path4746" />
  <path
     style="opacity:1;fill:none;fill-opacity:1;fill-rule:nonzero;stroke:#000000;stroke-width:5;stroke-linecap:butt;stroke-linejoin:round;stroke-miterlimit:4;stroke-dasharray:none;stroke-opacity:1"
     d="m 1894.542,2614.5 131,-46"
     id="path4781" />
  <path
     style="opacity:1;fill:none;fill-opacity:1;fill-rule:nonzero;stroke:#000000;stroke-width:5;stroke-linecap:butt;stroke-linejoin:round;stroke-miterlimit:4;stroke-dasharray:none;stroke-opacity:1"
     d="m 2325.042,1453.75 24.5,-14.5 13.5,-6.25 10.75,-2"
     id="path4833" />
  <path
     style="opacity:1;fill:none;fill-opacity:1;fill-rule:nonzero;stroke:#000000;stroke-width:5;stroke-linecap:butt;stroke-linejoin:round;stroke-miterlimit:4;stroke-dasharray:none;stroke-opacity:1"
     d="m 2450.292,1721.25 87.75,-81.25 12.75,-7.5 15.75,0.25 28.25,15.75"
     id="path4835" />
  <text
     x="89.453133"
     y="206.96094"
     id="text3019"
     xml:space="preserve"
     style="font-style:normal;font-weight:normal;font-size:143.99993896px;line-height:125%;font-family:Sans;-inkscape-font-specification:Sans;letter-spacing:0px;word-spacing:0px;fill:#000000;fill-opacity:1;stroke:none"><tspan
       x="89.453133"
       y="206.96094"
       id="tspan1">1985</tspan></text>
  <text
     x="89.453133"
     y="5197.9609"
     id="text3019-6"
     xml:space="preserve"
     style="font-style:normal;font-weight:normal;font-size:143.99993896px;line-height:125%;font-family:Sans;-inkscape-font-specification:Sans;letter-spacing:0px;word-spacing:0px;fill:#000000;fill-opacity:1;stroke:none"><tspan
       x="89.453133"
       y="5197.9609"
       id="tspan2">1985</tspan></text>
  <path
     id="path4679"
     d="m 2283.7772,1052.9643 -13.917,5.7869 -27.8608,21.1753 -19.2427,17.3707 -10.8521,17.8586 -12.3483,34.5074 -12.7844,32.9007 -63.5342,166.9669 -24.1514,61.7907 -13.3342,15.0887 -37.8972,20.7031 -12.9833,15.0888 -2.4563,21.7558 4.5617,14.7378 13.3342,17.8959 51.2544,10.3333"
     style="opacity:1;fill:none;fill-opacity:1;fill-rule:nonzero;stroke:#5d2082;stroke-width:5;stroke-linecap:butt;stroke-linejoin:round;stroke-miterlimit:4;stroke-dasharray:none;stroke-opacity:1" />
  <path
     style="opacity:1;fill:none;fill-opacity:1;fill-rule:nonzero;stroke:#f08161;stroke-width:5;stroke-linecap:butt;stroke-linejoin:round;stroke-miterlimit:4;stroke-dasharray:none;stroke-opacity:1"
     d="m 2275.1602,2969.4231 -3.8891,-43.8406 -9.1924,-13.0815 -110.3086,-126.5721 -12.3744,-14.4957 -27.2236,-20.8596 -44.9013,-44.5478 -3.8891,-16.617 6.0104,-36.7695 2.1213,-21.5668 -3.5355,-22.2738 v -41.7193 l -27.2236,-98.2879 v -25.1023 l -4.5962,-10.253 -23.6881,-31.1127 -0.7071,-12.3744 3.5355,-30.7591 -0.7071,-13.7886 -20.1525,-34.6482 -1.7678,-16.6171 2.8285,-10.253 23.3345,-29.6985 3.182,-15.2028 3.5355,-170.0592 6.0104,-16.2634 54.8008,-59.397 4.5962,-12.0208 -0.7071,-9.8995 -4.2427,-9.5459 -19.0919,-23.3346 -28.9913,-73.1855 -9.546,-11.3137 -3.8891,-6.7175 2.8285,-13.0815 13.9993,-17.3456 8.393,-9.3015 17.409,-32.8041 10.0594,-16.5299 15.1605,-15.281 25.5932,-14.8602 23.6653,-39.9907 14.5163,-37.3708"
     id="path4643-3" />
</svg>
