<?xml version="1.0" encoding="UTF-8" standalone="no"?>
<svg
   xmlns:dc="http://purl.org/dc/elements/1.1/"
   xmlns:cc="http://creativecommons.org/ns#"
   xmlns:rdf="http://www.w3.org/1999/02/22-rdf-syntax-ns#"
   xmlns:svg="http://www.w3.org/2000/svg"
   xmlns="http://www.w3.org/2000/svg"
   xmlns:xlink="http://www.w3.org/1999/xlink"
   viewBox="0 0 3150 3100"
   height="3100"
   width="3150"
   id="svg2"
   version="1.1">
  <metadata
     id="metadata8">
    <rdf:RDF>
      <cc:Work
         rdf:about="">
        <dc:format>image/svg+xml</dc:format>
        <dc:type
           rdf:resource="http://purl.org/dc/dcmitype/StillImage" />
        <dc:title></dc:title>
      </cc:Work>
    </rdf:RDF>
  </metadata>
  <defs
     id="defs6" />
  <image
     style="display:none"
     y="-219.66675"
     x="-550"
     id="image10"
     xlink:href="file:///home/lexande/timelines/timelines/streetmap/../streetmap/drsosm.png"
     preserveAspectRatio="none"
     height="3394.6667"
     width="3819" />
  <text
     style="font-style:normal;font-weight:normal;font-size:143.99990845px;line-height:125%;font-family:Sans;-inkscape-font-specification:Sans;letter-spacing:0px;word-spacing:0px;fill:#000000;fill-opacity:1;stroke:none"
     xml:space="preserve"
     id="text3878"
     y="206.96094"
     x="89.453133"><tspan
       id="tspan1"
       y="206.96094"
       x="89.453133">1990</tspan></text>
  <path
     style="opacity:1;fill:none;fill-opacity:0.5254902;fill-rule:nonzero;stroke:#96c419;stroke-width:5;stroke-linecap:butt;stroke-linejoin:round;stroke-miterlimit:4;stroke-dasharray:none;stroke-opacity:1"
     d="m 1940.726,1489.9179 9.2133,-11.9006 2.6873,-14.2039 6.91,-7.6778 11.5167,-9.9812 4.2228,-7.6778 1.9194,-13.0522"
     id="path1451" />
  <path
     id="path1372"
     d="m 400.17513,1586.4663 16.31533,-7.102 21.49784,-5.9503 11.13281,-1.7275 10.94087,4.0308 7.86975,7.6778 5.37446,10.557 7.48585,35.7018 7.86975,9.9811 8.06169,5.5664 10.55698,1.5356 122.84482,-18.8106"
     style="opacity:1;fill:none;fill-opacity:0.5254902;fill-rule:nonzero;stroke:#f06403;stroke-width:5;stroke-linecap:butt;stroke-linejoin:round;stroke-miterlimit:4;stroke-dasharray:none;stroke-opacity:1" />
  <path
     id="path1374"
     d="m 400.17513,1586.4663 -17.27505,12.4764 -11.13282,10.557"
     style="opacity:1;fill:none;fill-opacity:0.5254902;fill-rule:nonzero;stroke:#f06403;stroke-width:1;stroke-linecap:butt;stroke-linejoin:round;stroke-miterlimit:4;stroke-dasharray:none;stroke-opacity:1" />
  <path
     id="path1376"
     d="m 630.12528,1627.9264 2.87918,2.8792 0.76778,4.0308 0.57583,19.1945 2.68723,17.659 3.45501,3.455 94.43696,-3.2631 38.19706,-8.4456 65.6452,-10.7489 28.40787,1.5356 4.90285,-1.1906 19.2929,-26.2712 22.16631,-24.2187 39.43737,-46.4035"
     style="opacity:1;fill:none;fill-opacity:0.5254902;fill-rule:nonzero;stroke:#f06403;stroke-width:1;stroke-linecap:butt;stroke-linejoin:round;stroke-miterlimit:4;stroke-dasharray:none;stroke-opacity:1" />
  <path
     id="path1378"
     d="m 630.12528,1627.9264 3.8389,-5.1825 2.49529,-19.1945 4.03084,-11.7087 18.81062,-42.2279 5.75835,-16.3153 0.95972,-0.5759 3.07112,-0.1919 21.3059,15.7395 9.59725,10.557 4.99057,7.8697 4.03085,1.9195 53.93655,4.6066 35.50984,-1.1516 94.82084,-39.1568 7.86975,0.1919 5.9503,1.7275 36.08566,15.5476 6.71808,5.7583 h 3.07112 l 14.77977,-16.6992 10.55697,-8.2536 43.76343,-42.6118 4.6067,-6.5262 14.9717,-13.0522 h 3.2631 l 11.9006,13.0522 6.3342,9.9812 0.1919,2.6872 0.5759,7.4859 3.455,4.2228 40.5004,18.4267 1.1516,2.3033 1.9195,14.3959 3.455,3.2631 26.2965,-3.0711 53.3607,10.7489 59.6949,12.2845 16.6992,6.1422 13.8201,7.102 59.311,33.5904 26.4884,10.365 9.6119,5.6844 6.3918,-2.1057 6.9115,-11.5188 5.1311,-1.4367 73.272,-9.4412 37.7648,9.236 24.2188,-0.6158 26.6816,17.8562 71.0143,28.9394 84.1499,3.0786 44.3327,6.7731 93.7963,51.3109 27.3789,24.0314"
     style="opacity:1;fill:none;fill-opacity:0.5254902;fill-rule:nonzero;stroke:#f06403;stroke-width:1;stroke-linecap:butt;stroke-linejoin:round;stroke-miterlimit:4;stroke-dasharray:none;stroke-opacity:1" />
  <path
     id="path2940"
     d="m 1880.729,1743.7679 5.2246,3.0477 78.3698,34.1053 52.5367,21.9146 30.4771,8.998 6.3857,3.6282 13.7873,12.1908 6.6759,4.3539 11.9006,4.9344 11.0299,11.6103 1.7415,10.014 27.1392,34.1053 23.2206,31.7833 5.8052,10.159 2.1769,11.175 7.2564,12.6262 -0.5804,3.0477 -6.3857,5.9503 0.7256,3.338 5.5149,6.2406 h 3.7734 l 3.1928,-2.6124 0.1452,-4.7892 -6.3858,-11.175"
     style="opacity:1;fill:none;fill-opacity:0.5254902;fill-rule:nonzero;stroke:#f06403;stroke-width:1;stroke-linecap:butt;stroke-linejoin:round;stroke-miterlimit:4;stroke-dasharray:none;stroke-opacity:1" />
</svg>
