<?xml version="1.0" encoding="UTF-8" standalone="no"?>
<svg
   xmlns:dc="http://purl.org/dc/elements/1.1/"
   xmlns:cc="http://creativecommons.org/ns#"
   xmlns:rdf="http://www.w3.org/1999/02/22-rdf-syntax-ns#"
   xmlns:svg="http://www.w3.org/2000/svg"
   xmlns="http://www.w3.org/2000/svg"
   xmlns:xlink="http://www.w3.org/1999/xlink"
   viewBox="0 0 2250 2050"
   height="2050"
   width="2250"
   id="svg2"
   version="1.1">
  <metadata
     id="metadata8">
    <rdf:RDF>
      <cc:Work
         rdf:about="">
        <dc:format>image/svg+xml</dc:format>
        <dc:type
           rdf:resource="http://purl.org/dc/dcmitype/StillImage" />
        <dc:title></dc:title>
      </cc:Work>
    </rdf:RDF>
  </metadata>
  <defs
     id="defs6" />
  <image
     style="display:none"
     y="-1244.6667"
     x="-1450"
     id="image10"
     xlink:href="file:///home/lexande/timelines/timelines/streetmap/../streetmap/drsosm.png"
     preserveAspectRatio="none"
     height="3394.6667"
     width="3819" />
  <path
     id="path817"
     d="m 327.211,282.6627 -55.2262,54.4592 -21.0934,13.8066 -34.5164,19.1758 -15.3406,24.9285 -27.6131,31.8318 -22.2439,27.9966 -17.6417,30.2977 -13.4231,23.3945 -3.0681,30.2977 3.8352,31.0648 6.1362,16.4911 10.7384,23.3945 40.2692,28.3801 34.8999,23.3945 67.4987,33.7493 34.1329,24.545 473.2582,245.8335 27.2296,14.1901 31.0648,23.0109 24.545,18.0252 32.5988,29.5307 51.3911,48.323 507.0075,488.2153 281.1169,271.1455 23.3944,18.7922 37.9681,22.2439 22.6274,9.9714 39.5021,11.889 34.1329,4.2187 41.4197,-0.767 43.7207,-8.0539 41.8032,-10.3549 117.7393,-35.2834"
     style="opacity:1;fill:none;fill-opacity:1;fill-rule:nonzero;stroke:#009551;stroke-width:5;stroke-linecap:butt;stroke-linejoin:round;stroke-miterlimit:4;stroke-dasharray:none;stroke-opacity:1" />
  <text
     style="font-style:normal;font-weight:normal;font-size:143.99990845px;line-height:125%;font-family:Sans;-inkscape-font-specification:Sans;letter-spacing:0px;word-spacing:0px;fill:#000000;fill-opacity:1;stroke:none"
     xml:space="preserve"
     id="text3878"
     y="206.96094"
     x="89.453148"><tspan
       id="tspan1"
       y="206.96094"
       x="89.453148">2020</tspan></text>
</svg>
