<?xml version="1.0" encoding="UTF-8" standalone="no"?>
<svg
   xmlns:dc="http://purl.org/dc/elements/1.1/"
   xmlns:cc="http://creativecommons.org/ns#"
   xmlns:rdf="http://www.w3.org/1999/02/22-rdf-syntax-ns#"
   xmlns:svg="http://www.w3.org/2000/svg"
   xmlns="http://www.w3.org/2000/svg"
   xmlns:xlink="http://www.w3.org/1999/xlink"
   version="1.1"
   width="7200"
   height="8700"
   viewBox="-500, -950, 7200, 8700"
   id="svg2">
  <metadata
     id="metadata37">
    <rdf:RDF>
      <cc:Work
         rdf:about="">
        <dc:format>image/svg+xml</dc:format>
        <dc:type
           rdf:resource="http://purl.org/dc/dcmitype/StillImage" />
        <dc:title></dc:title>
      </cc:Work>
    </rdf:RDF>
  </metadata>
  <defs
     id="defs6" />
  <image
     xlink:href="../streetmap/hkgosm.png"
     id="image12"
     height="8748.4443"
     width="7186.2222"
     y="-948.44397"
     x="-562.22198"
     style="display:none" />
  <path
     style="fill:none;stroke:#dab006;stroke-width:1;stroke-linecap:butt;stroke-linejoin:round;stroke-miterlimit:4;stroke-dasharray:none;stroke-opacity:1"
     d="m 3150.7766,4458.5498 -19.5574,-3.8716 -11.3137,2.8285 -17.6776,14.8492 -152.7351,-0.7071 -48.7289,8.8833 -27.8609,0.1912 -31.3559,7.1361 -36.7752,15.4147 -48.3957,30.9654 -49.421,32.8687 -54.1084,38.6561 -42.7653,35.5901 -35.5957,24.5264 -44.7109,39.9002 -33.1486,36.7369 -48.4722,57.9356 -29.3332,31.867"
     id="path871" />
  <path
     style="fill:none;stroke:#dab006;stroke-width:5;stroke-linecap:butt;stroke-linejoin:round;stroke-miterlimit:4;stroke-dasharray:none;stroke-opacity:1"
     d="m 2418.8209,4832.3205 -13.6972,14.3236 -29.9839,46.3403 -24.6942,44.3947 -3.2076,10.3707 -50.4992,168.4565 -7.731,24.0709 -20.4588,40.5997 -17.6777,62.9325 3.7536,5.8042 12.6045,3.2386 11.9262,-0.5575 31.8198,-10.6066 16.2634,-7.7782 3.5356,-8.4853 -5.6276,-31.0834 3.9952,-27.6422"
     id="path859" />
  <path
     style="fill:none;stroke:#dab006;stroke-width:1;stroke-linecap:butt;stroke-linejoin:round;stroke-miterlimit:4;stroke-dasharray:none;stroke-opacity:1"
     d="m 2329.142,5166.699 9.216,-25.8562 13.0321,-25.7289"
     id="path857" />
  <path
     style="fill:none;stroke:#dab006;stroke-width:5;stroke-linecap:butt;stroke-linejoin:round;stroke-miterlimit:4;stroke-dasharray:none;stroke-opacity:1"
     d="m 2351.3901,5115.1139 4.7929,-12.2189 0.2946,-11.4024 -12.9643,-21.9847 -0.1583,-12.6749 2.6104,-17.6134 -18.0195,-16.7346 -2.1213,-7.7782"
     id="path3618" />
  <path
     style="fill:none;stroke:#dab006;stroke-width:1;stroke-linecap:butt;stroke-linejoin:round;stroke-miterlimit:4;stroke-dasharray:none;stroke-opacity:1"
     d="m 2707.7755,4430.1927 16.6863,31.0147 5.2199,16.5356 -5.5923,13.9654 -2.6089,14.1811 -14.5963,40.4531 0.071,20.7656"
     id="path875" />
  <path
     d="m 4890.4993,6973.3 7.25,1.9502 54,15.75 21.5213,13.1906 14.9787,8.3094 12,2.75 19.5,-0.5 15,-3.5 16.6769,-12.3258 11.1555,-12.4893 23.0945,-58.1223 7.9681,-32.7048 4.355,-94.6077 -1,-24 -1.7818,-43.0353 -5.7387,-102.8069 -8.6259,-94.6032 -4.8536,-21.0546 -23,-119.5 -14,-81.5 -7,-27 -11.8101,-11.3023 -114.1899,-96.1977 -73.1061,-58.0589 -18.0478,-14.8386 -17.8461,-1.0402 -25.2852,9.7736 -49.488,18.8911 -23.2268,3.773 -63,-19 -63,-34.5 -25.5,-18 -27,-27.5 -39.5,-34.5 -34.5,-44 -25.5,-46 -1,-12 5.5,-25.5 10.5,-19 35.5,-47 25.5,-27 9.5,-13.5 3.5,-22.5 3,-37.5 0.5,-32 -1,-27 -5.5,-12 -20,-18 -27,-13.5 -19,-2.5 -32,1 -16.5,-3.5 -30,-14 -16.5,-15 -34.5,-15.5"
     id="path3592"
     style="fill:none;stroke:#ee2722;stroke-width:5;stroke-linecap:butt;stroke-linejoin:round;stroke-miterlimit:4;stroke-dasharray:none;stroke-opacity:1" />
  <path
     d="m 5952.9992,6696.5003 14.8024,-17.1191 13.2002,-16.4669 3.2431,-16.3017 -3.7457,-22.6123 -19.5,-28 -28,-40 -5.5,-4.5 -56.5,-41 -25,-12.5 -52,-22 -16,-9.5 -15.5,-7.5 -27,-10 -17.5,-9 -12,-11 -12,-24 -5,-25 2.5,-36 -9.5,-84 -8.5,-27.5 -14,-27 -14.5,-23.5 -18.5,-21.5 -25,-22 -84.4999,-57.5 -42.5,-23 -21,-3.5 -61.5,1.5 -16,3.5 -12.5,10.5 -15.5,20 -18,11 -17.5,8 -67.6015,20.1628 -21.9357,1.2613 -36.0959,-1.5456 -71.4501,-0.409 -22.1429,0.3403 -18.2483,4.4688 -13.709,11.7214 -9.7209,14.0752 -2.5957,14.9248 -3.2682,53.9579 -7.7318,32.5421 -1.413,24.397 7.6201,30.8959 12.1464,73.2677 18.2072,93.2072 3.1893,17.1967"
     id="path3594"
     style="fill:none;stroke:#33b652;stroke-width:5;stroke-linecap:butt;stroke-linejoin:round;stroke-miterlimit:4;stroke-dasharray:none;stroke-opacity:1" />
  <path
     d="m 5229.9121,6662.9726 0.5872,-25.4723 0.5,-22.5 -1.5,-24 -7,-15 -21.5,-20.5 -33.5,-35 -19,-22 -10.5,-18 -34.5,-97 -2.5,-23.5 2.5,-21 13.5,-28 38,-82.5 6,-24 1,-29.5 -2.5,-16 -13.5,-37 -21,-36.5 -5,-19.5 -56,-305 v -23 l 4,-21.5 12.5,-25.5 31.5,-59 14,-14 99,-79.5 19,-17.5 36.5,-48 31,-48.5 16,-24.5 97,-103.5 45,-70.4999 47,-73 23.4999,-36.5 9,-9 35,-22 31,-21 21.5,-15.5 12.5,-19.5 1.5,-13 -4,-20.5 -13,-27.5 -0.5,-22 7,-17.5 22.5,-18.5 12.5,-17 4.5,-17.5 v -19 l -3,-21.5 -9,-18.5 -14.5,-18 -14.5,-12.5 -121.4999,-86.5 -12.5,-17 -8.5,-22 -5,-25 -9,-17 -15,-17 -20.5,-11 -101.3288,-11.8714 -17.1712,-6.1286 -24.5,-12.5 -34,-20.5 -72,-44 -15,-5.5 -20.5,-8.5 -39.5,-9.5 -20.5,-0.5 -62,-2.5 -14,-5 -10,-5 -12.5,-9 -10.5,-9 -71.5,-88.5 -12.5,-8 -16,-9 -49,-20.5 -13,-8.5 -13,-13.5 -14,-16.5 -8,-20.5 -4.5,-23.5 0.5,-16.5 5.5,-34 18,-67 10,-36.5 14.5,-81 11,-61 1,-26.5 -5,-23.5 -9,-24 -13,-20.5 -20.5,-20 -15.5,-10.5 -16,-6 -20,-6.5 -68,-10.5 -17.5,-9 -23,-16 -88.5,-80.5 -107.5,-99.4999 -105,-97 -28,-31.5 -11.5,-25.5 -7,-28 2.5,-28.5 2.5,-50 -2,-27.5 -11.5,-30.5 -19,-38 -12.5,-30.5 -3.5,-25.5"
     id="path3602"
     style="fill:none;stroke:#6ac2ee;stroke-width:5;stroke-linecap:butt;stroke-linejoin:round;stroke-miterlimit:4;stroke-dasharray:none;stroke-opacity:1" />
  <path
     d="m 4904.4993,6939.0003 -16.5,-9 -11.5,-10 -8.8165,-14.1077 -16.7593,-34.3165 -7.7593,-26.8989 -3.367,-40.7593 16.5186,-45 14.6516,-21.399 21.1516,-28.0505 29.6396,-44.9681 9.2407,-20 21.5,-49.5 10.2785,-26.6732 1.5211,-19.8032 -1.7426,-25.9707 -8.057,-22.5529 -9.5,-23.5 -14.5,-38 -20.5,-48 -20,-31 -22.4138,-29.3902 -32.0862,-37.1098 -36,-29 -52.5,-27 -143,-63 -27,-16.5 -25,-19 -15,-18.5 -12,-23.5 -32.5,-58 -11.5,-18 -15,-22.5 -18.5,-27.5 -14.5,-23 -14.5,-27.5 -7.5,-11 -7.5786,-9.8745 -75.4214,-42.1255 -49.5,-25.5 -50.5,-18 -37,-14.5 -30.5,-7 -49,-7.5 -30.7951,0.4125 -24.6412,5.0104 -213.3493,70.5861 -310.406,94.2001 -47.8083,19.2909 -32,23.5 -60.8812,46.622 -37.0212,23.8915 -18.9084,7.2257 -24.0874,4.7414 -71.437,1.934 -21.4338,4.8443 -33.461,14.878 -29.4805,18.3849 -40.1994,25.9885 -36.5901,35.9897 -49,46.5 -35,42 -12.5,8.5 -44,21 -44,3.5 -38,-4 -36,4 -49.5,17.5 -34.5,14.5 -101.5,59 -19.5,19.5 -13.5,29 -21,27.5 -28,27.5 -65,46 -150.5,88.5 -100.5,59.5 -29,11 -98.4999,24.5 -31.5,5 -12,6 -42.5,21.5 -40,27.5 -27.3966,16.042 -83.4949,11.7083 -19.1109,10.4357 -48.4843,38.3613"
     id="path3606"
     style="fill:none;stroke:#f68b11;stroke-width:5;stroke-linecap:butt;stroke-linejoin:round;stroke-miterlimit:4;stroke-dasharray:none;stroke-opacity:1" />
  <path
     style="fill:none;stroke:#dab006;stroke-width:1;stroke-linecap:butt;stroke-linejoin:round;stroke-miterlimit:4;stroke-dasharray:none;stroke-opacity:1"
     d="m 2289.8115,5410.8745 -3.8223,4.6052 -52.0885,-1.9648 -6.3639,2.1214 -4.2427,45.2548 -9.1924,10.6066 -24.7487,16.2635 -10.2798,7.5816 -8.4306,23.9542 0.1514,8.702 4.417,12.7952 16.2633,31.1127 3.665,9.4812 -6.0523,6.9645 -28.4759,-7.8763"
     id="path867" />
  <path
     style="fill:none;stroke:#dab006;stroke-width:1;stroke-linecap:butt;stroke-linejoin:round;stroke-miterlimit:4;stroke-dasharray:none;stroke-opacity:1"
     d="m 2172.9143,5576.3752 -62.9102,-15.7649 -26.3337,-31.1771 -2.8118,-8.2889 5.964,-8.6344 14.1422,-19.799 11.3137,-21.2132 9.8702,-17.6605 2.2153,-19.4627 21.8556,-43.487 21.9203,-57.9827 15.2382,-43.8878 -1.2638,-58.7078"
     id="path853" />
  <path
     style="fill:none;stroke:#dab006;stroke-width:5;stroke-linecap:butt;stroke-linejoin:round;stroke-miterlimit:4;stroke-dasharray:none;stroke-opacity:1"
     d="m 2184.7479,5233.4759 13.0904,-0.2731 55.1543,12.0208"
     id="path3624" />
  <path
     style="fill:none;stroke:#dab006;stroke-width:5;stroke-linecap:butt;stroke-linejoin:round;stroke-miterlimit:4;stroke-dasharray:none;stroke-opacity:1"
     d="m 2284.8124,5250.8805 6.364,13.435 v 63.6395"
     id="path849" />
  <path
     style="fill:none;stroke:#dab006;stroke-width:1;stroke-linecap:butt;stroke-linejoin:round;stroke-miterlimit:4;stroke-dasharray:none;stroke-opacity:1"
     d="m 2291.1764,5327.955 -0.7428,66.6876 -0.6221,16.2319 -0.4067,12.5893 5.318,5.8776 5.9779,1.4887 17.2879,-8.852"
     id="path3620" />
  <path
     d="m 2184.7479,5233.4759 -2.6336,-3.1667 -1.8864,-33.1688 0.5863,-33.2341 4.1489,-14.2136 2.8174,-24.9416 -8.809,-22.8253 -16.2289,-14.6344 -22.1799,-8.945 -14.8492,-7.7781 -4.2426,-10.6066 10.6066,-14.1422 12.0208,-9.1924 14.8492,-0.7071 44.5476,16.2635 9.8995,3.5355 22.6275,-6.364 34.6482,-9.8994 23.3345,-13.4351 11.3137,-17.6776 4.4608,-9.072 -0.2417,-27.8921 3.7715,-4.6698 20.6679,5.2297 2.7776,6.9418"
     id="path3626"
     style="fill:none;stroke:#dab006;stroke-width:1;stroke-linecap:butt;stroke-linejoin:round;stroke-miterlimit:4;stroke-dasharray:none;stroke-opacity:1" />
  <path
     d="m 2291.1764,5327.955 -3.8266,4.1891 -23.1958,0.2774 -4.1575,3.7414 -0.1566,23.1465 3.7236,2.9492 h 23.6297 l 4.207,-4.1039"
     id="path3622"
     style="fill:none;stroke:#dab006;stroke-width:1;stroke-linecap:butt;stroke-linejoin:round;stroke-miterlimit:4;stroke-dasharray:none;stroke-opacity:1" />
  <path
     d="m 2305.3185,5008.3429 4.0349,-0.7789 13.9057,5.4743 5.5941,-3.0689"
     id="path3628"
     style="fill:none;stroke:#dab006;stroke-width:1;stroke-linecap:butt;stroke-linejoin:round;stroke-miterlimit:4;stroke-dasharray:none;stroke-opacity:1" />
  <path
     style="fill:none;stroke:#dab006;stroke-width:1;stroke-linecap:butt;stroke-linejoin:round;stroke-miterlimit:4;stroke-dasharray:none;stroke-opacity:1"
     d="m 2162.7426,5087.2914 20.3421,3.2719 14.7622,-2.3546 11.0105,-5.6196 5.518,-0.041 27.3035,33.2749 19.9069,0.7512"
     id="path863" />
  <path
     style="fill:none;stroke:#dab006;stroke-width:5;stroke-linecap:butt;stroke-linejoin:round;stroke-miterlimit:4;stroke-dasharray:none;stroke-opacity:1"
     d="m 2261.5858,5116.5743 17.5698,0.663 14.8492,4.9497"
     id="path3630" />
  <path
     d="m 2180.8142,5163.9063 -6.8303,2.0727 -3.0156,7.8268 1.9977,9.4991 -9.3633,25.5381 1.5851,9.7815 16.1413,0.2975"
     id="path3632"
     style="fill:none;stroke:#dab006;stroke-width:1;stroke-linecap:butt;stroke-linejoin:round;stroke-miterlimit:4;stroke-dasharray:none;stroke-opacity:1" />
  <path
     d="m 4783.7277,7136.7341 22.6274,5.6568 24.0416,1.4142 6.364,-2.1213 9.8995,-10.6066 33.234,-53.033 10.6066,-14.1421 7.0711,-8.4853 11.3137,-16.9706"
     id="path3611"
     style="fill:none;stroke:#9f5443;stroke-width:5;stroke-linecap:butt;stroke-linejoin:round;stroke-miterlimit:4;stroke-dasharray:none;stroke-opacity:1" />
  <path
     d="m 5608.5195,6877.4364 16.5749,-1.4657 7.4048,-0.9704 55,-29.5 183,-100.5 82.5,-48.5"
     id="path3596"
     style="fill:none;stroke:#33b652;stroke-width:5;stroke-linecap:butt;stroke-linejoin:round;stroke-miterlimit:4;stroke-dasharray:none;stroke-opacity:1" />
  <path
     d="m 6008.4992,7258.5002 26.5,-55 19.5,-43.5 17,-36 3.5,-12 -1.5,-26.5 -6.5,-15 -42.312,-53.6727 -14.8947,-8.1243 -13.2806,-2.566 -20.6616,3.0634 -40.5406,11.4538 -31.8105,-1.6542 -45.5,-17.5 -15,-3.5 -19.5,-6.5 -12.9256,-9.558 -14.0744,-16.442 -16.5,-23.4999 -8,-4.5 -19,-3 -40.5,-1 -36.5,-1.5 -11.5,-2 -8.5,-3.5 -17,-14.5 -16.5,-24 -14,-28.5 -10.5,-14 -14,-8.5 -49,-12.5 -33.9999,6.5 -72,14.5 -5.5,3.5 -28,31 -5,19 -2,37 -12.5,31.9999 -29.0381,18.6132 -42.9619,1.8868 -34.5,10 -13,0.5 -52.5,22 -33.5,10 -16.5,4.5 -26.5,3.5 -40.5,3 -36,-4.5 -63.5,-20 -18,-10 -46.5,-13 -21,-8 -13,-13 -36,-46.9999 -23,-16 -9,-4.5 -26.5,-7 -9.616,-2.1979"
     id="path2818"
     style="fill:none;stroke:#2d7bc8;stroke-width:5;stroke-linecap:butt;stroke-linejoin:round;stroke-miterlimit:4;stroke-dasharray:none;stroke-opacity:1" />
  <path
     d="m 2291.4994,2980.0005 11.5,7.5 23,-1.5 19,21 1.5,13 12,1 1,12.5 7,2 16.5,18 6.5,0.5 16,20.5 v 45 l -15.5,15 -33.5,1.5 -8.5,-7.5 -13.5,1 -6.5,-4.5 -2,-8.5 7,-4 1.5,-11.5 -5,-5 -9,-3 -9,-17 -15,-12.5 -4.5,-15 -7,-5 -40.5,-14.5 -5,-9.5 8,-23 z"
     id="path2836"
     style="fill:none;stroke:#dd127b;stroke-width:5;stroke-linecap:butt;stroke-linejoin:round;stroke-miterlimit:4;stroke-dasharray:none;stroke-opacity:1" />
  <text
     x="-410.54691"
     y="-743.03912"
     id="text4378-3"
     xml:space="preserve"
     style="font-style:normal;font-weight:normal;font-size:144px;font-family:Sans;-inkscape-font-specification:Sans;fill:#000000;fill-opacity:1;stroke:none"><tspan
       x="-410.54691"
       y="-743.03912"
       id="tspan1">2000</tspan></text>
  <text
     x="-410.54691"
     y="7647.9609"
     id="text4378"
     xml:space="preserve"
     style="font-style:normal;font-weight:normal;font-size:144px;font-family:Sans;-inkscape-font-specification:Sans;fill:#000000;fill-opacity:1;stroke:none"><tspan
       x="-410.54691"
       y="7647.9609"
       id="tspan2">2000</tspan></text>
  <path
     id="path3047"
     d="m 2688.5704,4246.788 -11.7498,-21.944 -4.8034,-1.501 -52.9722,26.8278 -1.976,7.5604 38.7689,75.0182 10.8822,13.6259 41.0555,83.8165"
     style="fill:none;stroke:#dab006;stroke-width:1;stroke-linecap:butt;stroke-linejoin:round;stroke-miterlimit:4;stroke-dasharray:none;stroke-opacity:1" />
</svg>
