<?xml version="1.0" encoding="UTF-8" standalone="no"?>
<svg
   version="1.1"
   width="9450"
   height="8850"
   viewBox="-850 -1100 9450 8850"
   id="svg2"
   xml:space="preserve"
   xmlns:xlink="http://www.w3.org/1999/xlink"
   xmlns="http://www.w3.org/2000/svg"
   xmlns:svg="http://www.w3.org/2000/svg"
   xmlns:rdf="http://www.w3.org/1999/02/22-rdf-syntax-ns#"
   xmlns:cc="http://creativecommons.org/ns#"
   xmlns:dc="http://purl.org/dc/elements/1.1/"><metadata
     id="metadata37"><rdf:RDF><cc:Work
         rdf:about=""><dc:format>image/svg+xml</dc:format><dc:type
           rdf:resource="http://purl.org/dc/dcmitype/StillImage" /></cc:Work></rdf:RDF></metadata><defs
     id="defs6" /><image
     xlink:href="../basemap/hkgosm.png"
     style="display:none"
     id="image12"
     height="9060.88"
     width="9998.22"
     y="-1260.88"
     x="-1187.11" /><path
     style="fill:none;stroke:#493d93;stroke-width:5;stroke-linejoin:round;stroke-opacity:1"
     d="m 5809.16,722.46 6.37,-39.14 0.3,-14.38 -4.45,-12.3 -13.19,-14.38 -98.56,-89.11 -11.32,-18.87 -4.19,-18.87 -4.19,-250.32 -1.26,-166.04 3.35,-13.42 9.64,-10.06 21.38,-7.97 96.86,-18.87 226.42,-6.29 h 32.29 l 23.06,-5.89 163.94,-57.44 h 19.29 l 24.32,10.06 59.12,26.42 104.4,37.74 24.74,2.52 11.53,-3.77 36.9,-16.56 32.1,-1.51 7.94,5.07 42.35,47.59 14.05,10.48 90.99,30.61 154.09,75.68 37.53,24.74 17.19,18.45 14.05,19.92 26.62,49.69 7.55,13.84 19.5,14.88 51.78,23.06 56.39,31.66 24.53,10.27 22.43,5.24 32.49,1.89 79.04,-17.82 27.46,0.63 22.64,4.61 13,6.92 9.22,11.53 17.19,45.91 3.98,24.53 5.66,42.56 9.43,20.34 16.56,22.64 40.25,39.83 34.59,34.38 5.66,9.43 1.89,10.06 -1.26,20.13 3.14,8.6 10.48,12.79 32.29,17.61 13.84,2.73 h 16.98 l 57.44,-18.66 31.66,-5.03 24.95,-3.14 89.31,-1.47 70.23,-5.24 28.72,-6.5 74.84,-25.79 36.9,-17.4 94.13,-44.44 33.33,-22.64 49.27,-37.95 36.69,-17.19 28.93,-6.08 130.4,-0.63 27.67,3.56 15.72,5.45 7.97,7.55 19.71,48.01 4.4,4.82 9.85,4.19 68.13,-3.56"
     id="path6" /><path
     style="fill:none;stroke:#edcc63;stroke-width:5;stroke-linejoin:round;stroke-opacity:1"
     d="m 3525.19,2955.69 37.93,-0.9 64.24,5.34 43.74,-5.69 27.12,-12.75 9.57,-9.9 10.06,-31.24 5.25,-29.03 2.67,-37.51 13.34,-23.13 51.88,-70.86 14.08,-29.2 43.43,-71.16 16.45,-21.35 11.12,-14.38 25.2,-13.34 99.03,-26.98 24.31,-9.19 37.36,-18.09 72.64,-46.55 32.02,-23.42 7.41,-9.49 3.85,-12.16 1.48,-18.09 0.3,-40.91 -0.59,-116.52 0.89,-18.68 6.23,-27.87 4.6,-12.45 22.83,-43.58 39.73,-80.94 29.35,-35.73 27.13,-41.06 37.8,-72.93 14.38,-16.01 71.16,-78.86 19.86,-21.64 7.12,-15.71 6.52,-24.31 1.19,-46.55 6.82,-45.36 9.19,-29.06 14.53,-21.35 31.13,-32.91 21.94,-22.83 28.17,-12.16 23.13,-5.63 75.9,-0.89 21.94,-2.96 18.68,-5.34 23.72,-10.67 16.6,-9.78 21.35,-21.35 45.07,-53.37 59.89,-43.29 28.46,-17.79 24.31,-8.3 135.49,-9.19 79.75,-6.52 22.83,-8.3 61.67,-28.46 58.41,-40.91 161.88,-60.78 11.27,-7.41 80.64,-79.46 12.75,-22.83 57.81,-175.22 22.53,-47.73 15.42,-17.49 19.57,-13.64 49.81,-18.38 27.87,-15.12 26.98,-32.02 17.49,-32.02 7.92,-24.64 5.11,-27.57 9.22,-54.72 6.5,-18.03 36.48,-54.72 8.39,-10.06 17.61,-9.43 21.17,0.21 20.13,5.03 76.52,47.38 31.45,9.64 33.96,4.61 20.96,-5.03 79.25,-39.41 25.58,-3.77 36.06,10.9 47.38,36.9 28.51,12.58 124.11,24.74 38.99,0.84 388.26,-5.45 60.8,0.42 20.96,4.61 16.35,11.32 17.61,28.51 25.16,20.96 85.12,63.73 49.48,45.28 16.77,9.22 11.74,1.26 26.83,-5.45 57.86,-28.09 67.93,-22.22 35.22,-23.9 23.9,-21.8 32.29,-35.64 21.8,-33.96 11.74,-24.32 62.05,-126.63 35.64,-63.73 29.35,-68.76 8.81,-42.77 19.29,-69.6 12.16,-24.32 17.61,-24.74 7.13,-15.09 3.77,-22.64 -0.42,-65.41 7.97,-20.55 15.93,-45.7 9.22,-46.54 -2.94,-38.57 4.19,-25.58 26.83,-46.96 27.25,-30.19 76.73,-69.18 27.25,-14.26 62.47,-24.74 16.77,-14.68 21.38,-31.45 18.45,-16.35 18.45,-5.89 80.08,-4.19 46.96,-10.06 130.82,-48.64 70.44,-22.22"
     id="path5" /><path
     style="fill:none;stroke:#81c7c3;stroke-width:5;stroke-linejoin:round;stroke-opacity:1"
     d="m -284.46,1257.91 -30.22,-63.24 -19.08,-26.42 -17.61,-14.26 -37.74,-22.43 -24.03,-23.38 -16.01,-19.57 -52.18,-108.81 -11.86,-17.79 -82.13,-119.78 -6.52,-22.53 -2.96,-23.42 2.08,-37.36 9.78,-107.92 -1.91,-35.38 -28.51,-213.21 -4.4,-51.99 -6.5,-24.95 -9.64,-13.21 -13.84,-8.39 -12.16,-3.56 -16.14,0.21 -51.57,7.76"
     id="path4" /><path
     style="fill:none;stroke:#da830a;stroke-width:5;stroke-linejoin:round;stroke-opacity:1"
     d="m 1880.46,3530.45 -39.14,-15.42 -25.5,-12.16 -18.38,-14.82 -10.97,-14.23 -5.04,-20.75 -1.19,-30.54 -5.63,-17.49 -13.05,-29.94 -3.56,-18.97 2.67,-21.64 22.53,-77.97 17.79,-32.61 4.74,-17.49 0.3,-24.02 -5.04,-201.91 -2.67,-147.06"
     id="path3" /><path
     style="fill:none;stroke:#a794b0;stroke-width:5;stroke-linejoin:round;stroke-opacity:1"
     d="m 1146.07,4035.66 41.21,-12.45 18.97,-0.89 48.62,2.96 19.57,-3.56 19.57,-13.05 45.66,-36.17 7.12,-11.56 -0.3,-11.86 0.59,-16.01 -1.79,-8.2 -11.95,-18.66 -4.19,-9.43 -2.1,-15.72 0.63,-23.27 5.24,-18.03 71.07,-151.78 36.69,-51.78 56.81,-162.06 16.85,-39.97 19.21,-54.16 0.63,-24.11 -3.35,-12.79 -10.9,-12.58 -36.9,-23.93 -7.86,-9.93 -3.41,-12.9 -0.44,-17.64 12.75,-40.32 18.09,-85.83 4.15,-25.35 0.89,-21.2 -1.78,-44.92 -4.74,-45.21 -13.23,-120.78 -0.84,-82.39 3.77,-47.59 -2.94,-16.14 -7.34,-10.48 -11.95,-12.37 -12.37,-6.5 -15.09,-1.89 -39.41,-1.47 -11.11,-2.94 -12.58,-9.64 -154.72,-170.65 -297.28,-320.34 -65.62,-71.7 -126.84,-138.37 -105.87,-112.58 -8.81,-10.9 -7.34,-19.5 -24.95,-85.33 -12.37,-15.93 -16.98,-17.82 -17.4,-14.05 -19.29,-10.9 -60.17,-26.62 -10.48,-7.55 -14.47,-21.38 -19.29,-36.06 -23.69,-27.25 -83.86,-104.19 -50.11,-49.69 -57.86,-92.24 -13,-10.48 -13.63,-4.19 -16.77,-1.47 -15.09,2.52 -30.61,15.93 -14.26,2.31 -15.3,-1.47 -8.6,-2.1 -20.32,-14.65 -27.72,-53.22 -28.31,-32.91 -6.82,-18.38 v -16.31 l 5.34,-15.71 12.16,-15.71 34.69,-19.27 14.53,-10.38 6.52,-15.12 v -17.79 l -2.67,-13.93 -14.53,-21.64 -76.79,-110 -41.21,-83.61 -11.56,-10.08 -11.56,-6.52 -15.12,1.19 -82.42,10.97 -98.73,0.3 -7.12,-1.48 -4.45,-5.04 -3.26,-10.97 -1.19,-166.62 -2.67,-7.12 -9.78,-6.23 -53.66,-6.23 -37.06,0.89 -37.06,-1.19 -83.61,-6.52 -15.71,-5.93 -9.19,-9.19 -9.78,-18.97 -3.85,-21.35 -28.14,-203.99 -5.03,-57.44 -22.86,-98.5 -8.6,-51.59 1.78,-18.97 9.19,-17.2 12.16,-11.27 41.8,-27.57 25.79,-23.13 12.45,-17.49 2.67,-16.31 -2.37,-20.46 -16.31,-75.6 -1.48,-20.75 v -28.76 l -5.04,-22.24 0.59,-23.42 10.38,-16.31 10.97,-5.93 14.23,-4.15 9.19,1.48 35.87,10.97 25.5,2.96 215.25,18.97 19.86,6.52 13.64,-1.19 15.42,-6.82 14.53,-12.75 8.89,-17.2 31.43,-123.93 29.06,-117.11 57.81,-128.67 17.2,-18.68 26.98,-27.87 15.71,-10.08 122.15,-39.14"
     id="path2" /><path
     id="path901"
     d="m 3518.52,3357.49 25.22,-19.98 17.09,-21.8 2.62,-23.86 -4.79,-19.41 -11.43,-20.4 -5.13,-18 -6.81,-541.25 -3.41,-110.32 -26.49,-159.69 -40.14,-254.13 -4.91,-92.28 -7.69,-25.4 -17.78,-35.27 -4.47,-18.91 -0.43,-110.43 6.69,-36.65 -0.33,-216.18 -0.65,-89.64 1.69,-10.72 6.44,-10.72 50.75,-37.58 24.27,-4.39 7.39,-5.62 1.88,-8.29 -0.38,-8.67 -9.79,-30.47 -3.33,-116.14 11.43,-44.55 22.74,-51.6 60.56,-74.69 18.16,-7.76 21.61,0.72 116.47,74.1 22.99,6.41 250.31,67.19 58.89,31.72 41.32,11.96 59.33,3.36 67.9,-5.63 50.71,-6.14 30.16,-13.52 20.64,-33.81 11.96,-61.37 4.4,-71.46 -7.05,-19.24 -37.28,-29.02 -15.43,-25.46 -9.86,-30.57 -3.02,-189.19 -20.19,-155.43 0.84,-11.82 4.88,-14.74 14.99,-20.18 33.49,-33.93 124.49,-91.98"
     style="fill:none;stroke:#f8779e;stroke-width:5;stroke-linejoin:round;stroke-opacity:1" /><path
     id="path899"
     d="m 3942.87,2977.41 -2.95,-242.75 -10.36,-44.54 -44.84,-95.63 -16.01,-42.77 -7.94,-12.45 -26.25,-23.89 -29.39,-18.15 -21.22,-2.92 -15.7,2.87 -39.89,9.18 -34.46,-0.36 -19.62,-5.1 -72.37,-38.69 -20.57,-16.72 -20.63,-8.63 -44.91,-16.83 -16.26,-13.72 -24.15,-43.81 -100.86,-175.29 -50.83,-74.84 -15.13,-16.06 -14.54,-4.2 -14.96,-0.9 -46.18,11.71 -20.4,-0.53 -27.72,-10.84 -18.69,-13.14 -105.93,-120.12 -11.35,-26.72 -22.84,-34.53 -21.28,-26.07 -29.69,-34.12 -17.46,-38.76 -11.42,-40.47 -137.12,-216.39 -2.38,-12.23 2.58,-20.01 18.18,-38.94 -0.53,-20.13 -10.11,-25.88 -186.75,-282.22 -39.62,-44.65 -61.62,-57.28 -39.57,-29.5 -102.68,-66.39 -30.19,-8.49 -131.04,-9.28 -38.33,-7.44 -28.31,-12.4 -111.28,-62.72 -52.18,-31.76 -32.14,-26.86 -32.14,-20.98 -30.98,-11.62 -37.61,-3.88 -57.84,-1.53 -15.23,-4.36 -17.22,-11.77 -9.04,-13.1 -11.61,-24.81 -15.14,-13.77 -89.71,-50.71 -12.5,-13.94 -8.05,-17.57 -2.56,-18.02 -2.05,-231.78 -5.11,-100.74 -31.78,-216.66 -7.68,-27.57 -33.91,-66.45 -4.54,-17.48 0.02,-13.13 3.82,-15.43 7.69,-15.05 230.24,-367.31 13.43,-22.72 4.19,-20.36 -4.07,-114.91 -4.8,-18.01 -10.63,-17.57 -15.73,-12.65 -23.3,-7.74 -136.07,5.71 -129.47,23.9 -37.7,3.98 -32.43,-1.75 -31.1,-9.14 -47.14,-17.79 -61.7,-4.4 -80.55,-16.9 -53.55,3.86 -49.36,22.44 -15.87,1.62 -12.47,-2.53 -234.83,-97.78 -20.02,-0.33 -28.7,10.46 -128.68,51.69 -24.17,3.8 -59.87,-8.59 -47.57,-0.51 -34.05,10.46 -331.5,111.5"
     style="fill:none;stroke:#3abca8;stroke-width:5;stroke-linejoin:round;stroke-opacity:1" /><path
     id="path5032"
     d="m 12.1,-799.9 0.97,26.1 4.35,26.1 10.15,19.82 11.6,8.22 77.5,17.07 16.47,18.94 44.74,152.48 0.48,25.62 -7.25,28.03 -17.4,25.62 -22.23,33.35 -11.6,35.28 -8.22,56.06 -31.45,317.84 -3.83,36.43 -3.38,18.37 -11.12,32.38 -9.67,26.58 -53.16,74.43 -20.78,37.7 -25.13,61.86 -7.73,25.62 -0.97,19.82 5.32,26.58 23.68,50.75 6.77,30.45 4.35,29.48 -2.42,29.48 -5.32,24.17 -12.57,32.38 -102.95,173.99 -17.4,28.03 -15.47,40.6 -8.7,38.67 -6.77,114.06 -5.8,37.7 -6.94,53.6 -13.69,27.9 -17.91,17.55 -46.05,21.3 -24.08,16.96 -14,18.74 -7.9,18.45 -1.06,23.63 3.61,19 33.56,69.15 58.9,115.85 27.45,34.36 152.61,299.13 56.06,105.85 55.1,114.55 8.22,17.88 9.18,12.08 11.12,8.7 33.35,16.43 15.47,11.6 8.7,12.08 65.73,141.61 10.63,18.37 19.82,20.78 88.93,67.66 88.45,59.45 217.54,192.65 95.96,68.22 30.13,29.12 103.91,111.16 69.11,75.4 17.88,10.15 21.75,4.83 40.6,15.47 21.27,14.98 23.2,21.27 14.1,26.3 23.96,38.87 14.17,47.56 0.66,59.08 0.95,66.27 12.59,44.21 7.86,13.67 12.3,12.99 14.58,15.98 24.74,14.14 22.9,7.94 23.98,4.91 129.44,-0.55 22.01,-2.34 56.05,-18.67 20.7,1.15 21.19,3.42 29.48,5.68 34.34,11.81 17.01,12.35 17.28,18.72 17.7,12.43 16.62,7.01 47.33,5.13 63.91,7.86 34.86,7.52 33.49,9.57 24.07,12.23 23.48,10.55 27.7,4.62 23.86,0.62 16.4,-2.73 21.53,-6.15 14.46,-8.38 19.7,-12.75 43.66,-61 10.89,-13.56 14.64,-8.35 25.71,-4.44 30.97,0.03 84.35,13.46 114.09,-2.4 22.07,-7.48 41.32,-25.62 34.56,-14.5 149.1,-31.9 55.43,-12.67 11.49,-8.05 29.7,-32.19 22.16,-16.95 19.97,-8.43 59.19,-7.59 76.7,-10.72 89.01,-16.51 52.89,-7.24 275.1,-57.79 29.97,-3.76 52.66,3.41 52.36,-1.43 83.8,-0.26 147.91,-1.12 13.34,4.74 18.97,17.79 18.97,11.86 20.75,5.34 32.91,2.37 29.94,-2.67 47.73,-3.56 17.49,-3.26 37.36,-1.48"
     style="opacity:1;fill:none;fill-opacity:1;fill-rule:nonzero;stroke:#651438;stroke-width:5;stroke-linecap:butt;stroke-linejoin:round;stroke-miterlimit:4;stroke-dasharray:none;stroke-opacity:1" /><path
     id="path4311-3"
     d="m 4445.05,2923.58 -55.1,0.97 -9.18,4.83 -31.93,59.03 -11.28,9.91 -58.78,25.63 -25.97,7.52 -61.8,10.51 -33.59,-4.16 -30.03,-6.69 -18.8,-2.73 -17.77,-8.2 -17.09,-11.62 -5.81,-10.59 -5.47,-15.04 -2.69,-400.04 -6.68,-19.67 -13.2,-15.22 -13.05,-10.13 -17.7,-6.51 -24.42,-2.31 -71.73,21.88 -21.52,0.3 -17.34,-6.87 -35.88,-32.38 -32.41,-20.33 -20.15,-3.74 -27.18,1.74 -37.04,10.89 -45.55,15.54 -24.95,4.1 -40.33,1.37 -270.67,2.73 -25.97,-3.42 h -26.32 l -17.77,2.39 -30.42,10.59 -112.78,48.53 -6.84,7.52 -3.76,11.28 -3.76,55.02 8.54,22.56 45.11,42.38 14.01,18.11 27,39.64 4.44,21.87 -4.48,20.33 -8.24,18.69 -14.95,17.85 -13.44,9.17 -51.51,13.94 -96.38,32.13 -27.92,10.61 -13.99,13.05 -6.44,12.39 -3.73,14.11 0.14,13.13 11.91,49.23 6.31,31.42 -0.25,32.43 -5.74,14.99 -9.78,8.68 -15.1,7.76 -30.41,8.19 -146.24,29.85 -26.19,1.47 -78.39,-9.36 -42.74,5.73 -28.92,8.69 -27.01,14.75 -33.5,30.71 -32.22,16.94 -34.18,12.99 -49.55,15.04 -24.33,1.24 -17.2,-3.79 -37.44,-25.46 -19.05,-7.36 -38.28,-4.38 -112.59,2.36 -100.23,-17.05 -36.77,-1.1 -21.02,-4.4 -15.67,-10.52 -9.23,-9.04 -33.64,-77.91 -15.59,-17.69 -13.94,-7.49 -18.78,-5.4 -134.88,2.78 -30.12,11.26 -28.8,20.19 -47.67,46.68 -25.16,53.96 -14.9,10.59 -25.82,12.25 -26.81,16.22 -11.92,13.9 -29.46,83.75 -0.82,40.58 -19.3,56.18 -12.98,16.95 -17.56,10.01 -19.63,4 -20.57,-3.71 -28.34,-22.05 -31.22,-45.93 -13.17,-6.09 -43.68,2.31 -38.27,-0.62 -39.99,-12.51 -30.48,-20.29 -133.65,-123.86"
     style="opacity:1;fill:none;fill-opacity:1;fill-rule:nonzero;stroke:#86656d;stroke-width:5;stroke-linecap:butt;stroke-linejoin:round;stroke-miterlimit:4;stroke-dasharray:none;stroke-opacity:1" /><path
     id="path865"
     d="m 4522.78,2429.53 -17.56,69.93 -6.28,11.36 -47.36,15.95 -32.14,16.19 -65.01,18.12 -59.93,0.48 -53.16,16.67 -29.97,8.94 -20.54,4.35 -13.17,0.09 -13.76,4.83 -36.15,22.15 -12.16,4.01 -234.08,3.48 -14.5,5.56 -14.74,11.12 -43.26,71.29 -5.56,18.61 4.11,298.21 -8.22,16.43 -14.74,9.91 -12.57,14.74 -14.98,33.59 -31.17,59.21 -0.24,30.93 -3.14,19.09 -7.73,17.88 -8.46,21.51 -6.77,6.52 -10.63,2.42 -14.02,-3.62 -75.88,-23.92 -26.82,-14.5 -13.53,-1.21 -269.93,3.38 -14.74,6.28 -23.44,44.71 -9.67,5.56 -10.63,1.21 -14.74,-4.11 -177.38,-103.67 -19.22,-22.87 -31.59,-78.18 -10.33,-48.29 -16.9,-73.7 -7.74,-13.18 -8,-5.95 -19,-6.91 -19.89,2.03 -40.35,15.96 -84.56,27.85 -21.44,5.04 -21.25,-3.87 -14.79,-8.83 -18.14,-20.61 -11.6,-21.27 -30.93,-79.26 v -9.91 l 1.21,-67.91 -3.62,-12.32 -7.99,-12.91 -12.64,-12.73 -20.83,-9.28 -45.74,1.98 -40.19,-4.93 -75.42,-13.83 -124.15,-37.47 -163.12,-103.43 -36.49,-12.32 -92.31,-23.68 -76.96,-6.16 -17.97,-11.28 -10.66,-12.82 -5.81,-15.37 -4.59,-98.88 6.75,-115.29 3.84,-17.46 8.88,-17.34 14.84,-14.72 78,-64.97 21.01,-9.7 42.59,-8.14 26.73,-3.71 69.38,-1.78 11.86,-4.45 18.09,-7.12 9.19,0.59 53.66,21.05 26.68,13.93 21.05,13.34 16.01,1.48 21.94,-6.82 46.55,-18.68"
     style="opacity:1;fill:none;fill-opacity:1;fill-rule:nonzero;stroke:#003892;stroke-width:5;stroke-linecap:butt;stroke-linejoin:round;stroke-miterlimit:4;stroke-dasharray:none;stroke-opacity:1" /><path
     id="path852"
     d="m 4763.05,7575.11 13.33,20.85 11.28,9.23 19.82,5.47 10.94,1.37 18.8,-1.37 12.99,-6.49 13.33,-15.72 20.16,-20.51 8.89,-14.35 21.53,-12.99 18.45,-20.16 16.06,-12.3 18.8,-4.78 37.25,-1.03 68.01,-14.35 36.57,2.73 14.7,-5.47 20.51,-14.01 12.64,-15.04 5.47,-14.35 -0.34,-16.4 -8.2,-16.4 -187.28,-306.21 -1.71,-22.56 7.52,-15.72 44.51,-51.14"
     style="opacity:1;fill:none;fill-opacity:1;fill-rule:nonzero;stroke:#ccce08;stroke-width:5;stroke-linecap:butt;stroke-linejoin:round;stroke-miterlimit:4;stroke-dasharray:none;stroke-opacity:1" /><path
     d="m 4902,6943.5 -16.5,-9.25 -12.25,-10.25 -10.5,-17 -16.85,-34.97 -7.83,-26.33 -2.9,-41.66 16.18,-46.37 19.05,-27.95 17.62,-22.99 28.82,-43.38 9.4,-19.84 21.25,-49.75 10.74,-27.06 1.17,-16.04 -1.14,-25.68 -8.03,-22.22 -8,-21 -15.25,-39.5 -21.5,-48.75 -19,-31 -21.91,-27.89 -32.59,-37.61 -35.5,-29 -52.75,-27.5 -140.75,-60.75 -28.5,-17.5 -24.5,-19 -16.25,-19 -13,-26.25 -31,-54 -11.25,-18.25 -15.25,-23.5 -18.5,-26.75 -14.25,-22.5 -15,-28.25 -6.75,-10.25 -8.33,-11.12 -72.42,-40.88 -50.5,-26.25 -49.5,-16.75 -37,-15.25 -30.5,-7 -47.75,-7.5 -32.25,-0.5 -23.89,5.68 -213.34,70.59 -309.63,93.49 -45.15,18.75 -32.25,23.5 -61.63,46.68 -37.96,24.77 -21.29,7.61 -23.93,4.58 -70.32,1.62 -22.63,5.36 -30.38,13.97 -28.26,17.42 -40.74,25.55 -34.65,34.9 -51.25,47.3 -31.96,39.73 -13.75,11 -47.25,22.75 -41,2.5 -42.75,-2.25 -34.25,3.75 -49,17 -35.5,14.75 -99.75,58 -18.25,18 -14,30.5 -20.75,26.75 -27,27.25 -65.5,46.25 -152.5,90.25 -98.5,58 -31.5,12 -96.5,24.25 -34.25,5 -12,6.75 -41.25,20.75 -38.5,26.5 -11.25,14.25 -15.5,17 -25.25,16.5 -22,10.25 -22.5,6.5 -32.91,-4.53 -41.31,-14.73 -28.4,-25.33 -39.41,-54.58 -12.81,-56.55 1.03,-40.49 25.8,-72.72 5.18,-37.6 -3.03,-36.77 -32.28,-101.08 4.54,-17.75 14.09,-17.14 19.02,-7.24 64,-17.5"
     id="path4516"
     style="fill:none;stroke:#028685;stroke-width:5;stroke-linecap:butt;stroke-linejoin:round;stroke-miterlimit:4;stroke-dasharray:none;stroke-opacity:1" /><path
     style="fill:none;stroke:#dab006;stroke-width:1;stroke-linecap:butt;stroke-linejoin:round;stroke-miterlimit:4;stroke-dasharray:none;stroke-opacity:1"
     d="m 3150.78,4458.55 -19.56,-3.87 -11.31,2.83 -17.68,14.85 -152.74,-0.71 -48.73,8.88 -27.86,0.19 -31.36,7.14 -36.78,15.41 -48.4,30.97 -49.42,32.87 -54.11,38.66 -42.77,35.59 -35.6,24.53 -44.71,39.9 -33.15,36.74 -48.47,57.94 -29.33,31.87"
     id="path871" /><path
     style="fill:none;stroke:#dab006;stroke-width:5;stroke-linecap:butt;stroke-linejoin:round;stroke-miterlimit:4;stroke-dasharray:none;stroke-opacity:1"
     d="m 2418.82,4832.32 -13.7,14.32 -29.98,46.34 -24.69,44.39 -3.21,10.37 -50.5,168.46 -7.73,24.07 -20.46,40.6 -17.68,62.93 3.75,5.8 12.6,3.24 11.93,-0.56 31.82,-10.61 16.26,-7.78 3.54,-8.49 -5.63,-31.08 4,-27.64"
     id="path859" /><path
     style="fill:none;stroke:#dab006;stroke-width:1;stroke-linecap:butt;stroke-linejoin:round;stroke-miterlimit:4;stroke-dasharray:none;stroke-opacity:1"
     d="m 2329.14,5166.7 9.22,-25.86 13.03,-25.73"
     id="path857" /><path
     style="fill:none;stroke:#dab006;stroke-width:5;stroke-linecap:butt;stroke-linejoin:round;stroke-miterlimit:4;stroke-dasharray:none;stroke-opacity:1"
     d="m 2351.39,5115.11 4.79,-12.22 0.29,-11.4 -12.96,-21.98 -0.16,-12.67 2.61,-17.61 -18.02,-16.73 -2.12,-7.78"
     id="path3618" /><path
     style="fill:none;stroke:#dab006;stroke-width:1;stroke-linecap:butt;stroke-linejoin:round;stroke-miterlimit:4;stroke-dasharray:none;stroke-opacity:1"
     d="m 2631.54,4120.42 -13.43,27.16 -7.24,27.43 -5.03,23.52 -4.46,12.95 1.66,17.21 10.29,20.95 5.72,0.54 52.97,-26.83 4.8,1.5 11.75,21.94 20.51,19.8 15.43,12.65 5.71,7.85 2.05,10.86 -8.35,23.8 4.24,18.38 17.09,32.55 -0.59,8.5 -11.37,7.52 -25.17,26.87 -0.36,14.62 16.69,31.01 5.22,16.54 -5.59,13.97 -2.61,14.18 -14.6,40.45 0.07,20.77"
     id="path875" /><path
     d="m 2262.01,5240.98 18,-71 14,-29 23,-76 38,-126 23,-41 140,-310 31,-48 31,-29 67,-36 19,-10 29,-31 40,-43 29,-19 29,-3 38,9 66,26 53,17 36,4 77,1 47,19 33,2 91.49,-0.78 104.08,-10.94 85.43,22.72 22,13 16,13 26,51 39,60 36,42 22,36 12,26 17,79 22,93 18,41.84 16.43,34.85 81.1,118.72 44.73,55.32 44.73,55.28 122.35,159.65 68.1,93.07 87.25,109.63 64.8,80.15 26.5,26 16,17 37.5,30.5 26.5,25 41.5,42.5 20,15.5 37,18.5 30.5,20 23.5,27 26,26.5 11,15 27.5,42.5 17.5,36 21.5,34.5 13.5,27 15.5,31.5 5,20 5.5,43.5 3,21 3.5,12.5 10.5,13.5 14.5,9 36.5,17 89,38.5 57.5,29.5 34,26.5 33,36.5 26.5,33.5 19.5,31 17.5,41 8.5,19.5 16,42 36.71,79.88 29.89,75.83 12.54,25.41 11.36,49.39 8.5,47 4.5,6 12,2.5 26,-0.5 19,-1 13.07,-5 19.73,-8.65 37.7,-30.85 29.5,-22.5 13.06,-16.56 7.15,-13.96 2.98,-9.08 0.48,-3.66 0.44,-21.64"
     id="path3600"
     style="fill:none;stroke:#a73e10;stroke-width:5;stroke-linecap:butt;stroke-linejoin:round;stroke-miterlimit:4;stroke-dasharray:none;stroke-opacity:1" /><path
     d="m 4890.5,6973.3 7.25,1.95 54,15.75 21.52,13.19 14.98,8.31 12,2.75 19.5,-0.5 15,-3.5 16.68,-12.33 11.16,-12.49 23.09,-58.12 7.97,-32.7 4.36,-94.61 -1,-24 -1.78,-43.04 -5.74,-102.81 -8.63,-94.6 -4.85,-21.05 -23,-119.5 -14,-81.5 -7,-27 -11.81,-11.3 -114.19,-96.2 -73.11,-58.06 -18.05,-14.84 -17.85,-1.04 -25.29,9.77 -49.49,18.89 -23.23,3.77 -63,-19 -63,-34.5 -25.5,-18 -27,-27.5 -39.5,-34.5 -34.5,-44 -25.5,-46 -1,-12 5.5,-25.5 10.5,-19 35.5,-47 25.5,-27 9.5,-13.5 3.5,-22.5 3,-37.5 0.5,-32 -1,-27 -5.5,-12 -20,-18 -27,-13.5 -19,-2.5 -32,1 -16.5,-3.5 -30,-14 -16.5,-15 -34.5,-15.5"
     id="path3592"
     style="fill:none;stroke:#ee2722;stroke-width:5;stroke-linecap:butt;stroke-linejoin:round;stroke-miterlimit:4;stroke-dasharray:none;stroke-opacity:1" /><path
     d="m 6247,6620 -8.5,7 -17,17 -24.12,17.94 -37.1,37.03 -21.79,42.03 -18,12.5 -22.69,13.48 -30.81,3.52 -14,-2.5 -8.5,-5 -6,-9 -17,-24 -10.5,-15.5 -12,-21 -7.89,-25.88 -4.56,-20.68 -6.05,-22.94 -19.5,-28 -28,-40 -5.5,-4.5 -56.5,-41 -25,-12.5 -52,-22 -16,-9.5 -15.5,-7.5 -27,-10 -17.5,-9 -12,-11 -12,-24 -5,-25 2.5,-36 -9.5,-84 -8.5,-27.5 -14,-27 -14.5,-23.5 -18.5,-21.5 -25,-22 -84.5,-57.5 -42.5,-23 -21,-3.5 -61.5,1.5 -16,3.5 -12.5,10.5 -15.5,20 -18,11 -17.5,8 -67.6,20.16 -21.94,1.26 -36.1,-1.55 -71.45,-0.41 -22.14,0.34 -18.25,4.47 -13.71,11.72 -9.72,14.08 -2.6,14.92 -3.27,53.96 -7.73,32.54 -1.41,24.4 7.62,30.9 12.15,73.27 18.21,93.21 3.19,17.2 7.7,35.69 4.11,23.68 6.04,11.36 8.7,7.73 15.95,6.52 11.12,1.21 12.81,-2.9 11.84,-6.52 13.29,-16.92 7.25,-9.67 6.52,-5.32 10.87,-6.28 13.05,-1.93 9.91,1.69 26.1,14.26 106.09,71.53"
     id="path3594"
     style="fill:none;stroke:#33b652;stroke-width:5;stroke-linecap:butt;stroke-linejoin:round;stroke-miterlimit:4;stroke-dasharray:none;stroke-opacity:1" /><path
     d="m 6378.96,6565.39 16.26,-14.14 7.07,-12.02 13.44,-29.7 1.41,-18.38 -2.12,-22.63 -8.49,-12.02 -19.8,-21.21 -32.53,-24.75 -12.73,-15.56 -12.73,-17.68 -26.16,-43.13"
     id="path3598"
     style="fill:none;stroke:#915fb6;stroke-width:5;stroke-linecap:butt;stroke-linejoin:round;stroke-miterlimit:4;stroke-dasharray:none;stroke-opacity:1" /><path
     d="m 4253.5,3171.5 3.5,25.5 12.5,30.5 19,38 11.5,30.5 2,27.5 -2.5,50 -2.5,28.5 7,28 11.5,25.5 28,31.5 105,97 107.5,99.5 88.5,80.5 23,16 17.5,9 68,10.5 20,6.5 16,6 15.5,10.5 20.5,20 13,20.5 9,24 5,23.5 -1,26.5 -11,61 -14.5,81 -10,36.5 -18,67 -5.5,34 -0.5,16.5 4.5,23.5 8,20.5 14,16.5 13,13.5 13,8.5 49,20.5 16,9 12.5,8 71.5,88.5 10.5,9 12.5,9 10,5 14,5 62,2.5 20.5,0.5 39.5,9.5 20.5,8.5 15,5.5 72,44 34,20.5 24.5,12.5 17.17,6.13 101.33,11.87 20.5,11 15,17 9,17 5,25 8.5,22 12.5,17 121.5,86.5 14.5,12.5 14.5,18 9,18.5 3,21.5 v 19 l -4.5,17.5 -12.5,17 -22.5,18.5 -7,17.5 0.5,22 13,27.5 4,20.5 -1.5,13 -12.5,19.5 -21.5,15.5 -31,21 -35,22 -9,9 -23.5,36.5 -47,73 -45,70.5 -97,103.5 -16,24.5 -31,48.5 -36.5,48 -19,17.5 -99,79.5 -14,14 -31.5,59 -12.5,25.5 -4,21.5 v 23 l 56,305 5,19.5 21,36.5 13.5,37 2.5,16 -1,29.5 -6,24 -38,82.5 -13.5,28 -2.5,21 2.5,23.5 34.5,97 10.5,18 19,22 33.5,35 21.5,20.5 7,15 5.06,23.41 0.24,22.8 -0.59,25.62 -3.49,52.45 2.37,19.27 35.28,177.3 -1.19,15.42 -4.74,13.93 -14.53,22.24 -13.05,10.38 -16.6,5.93 -100.21,-4.45 -20.46,0.3 -16.31,2.96 -35.58,13.64 -12.16,9.78 -34.39,39.58"
     id="path3602"
     style="fill:none;stroke:#6ac2ee;stroke-width:5;stroke-linecap:butt;stroke-linejoin:round;stroke-miterlimit:4;stroke-dasharray:none;stroke-opacity:1" /><path
     d="m 4904.5,6939 -16.5,-9 -11.5,-10 -8.82,-14.11 -16.76,-34.32 -7.76,-26.9 -3.37,-40.76 16.52,-45 14.65,-21.4 21.15,-28.05 29.64,-44.97 9.24,-20 21.5,-49.5 10.28,-26.67 1.52,-19.8 -1.74,-25.97 -8.06,-22.55 -9.5,-23.5 -14.5,-38 -20.5,-48 -20,-31 -22.41,-29.39 -32.09,-37.11 -36,-29 -52.5,-27 -143,-63 -27,-16.5 -25,-19 -15,-18.5 -12,-23.5 -32.5,-58 -11.5,-18 -15,-22.5 -18.5,-27.5 -14.5,-23 -14.5,-27.5 -7.5,-11 -7.58,-9.87 -75.42,-42.13 -49.5,-25.5 -50.5,-18 -37,-14.5 -30.5,-7 -49,-7.5 -30.8,0.41 -24.64,5.01 -213.35,70.59 -310.41,94.2 -47.81,19.29 -32,23.5 -60.88,46.62 -37.02,23.89 -18.91,7.23 -24.09,4.74 -71.44,1.93 -21.43,4.84 -33.46,14.88 -29.48,18.38 -40.2,25.99 -36.59,35.99 -49,46.5 -35,42 -12.5,8.5 -44,21 -44,3.5 -38,-4 -36,4 -49.5,17.5 -34.5,14.5 -101.5,59 -19.5,19.5 -13.5,29 -21,27.5 -28,27.5 -65,46 -150.5,88.5 -100.5,59.5 -29,11 -98.5,24.5 -31.5,5 -12,6 -42.5,21.5 -40,27.5 -27.4,16.04 -83.49,11.71 -19.11,10.44 -48.48,38.36"
     id="path3606"
     style="fill:none;stroke:#f68b11;stroke-width:5;stroke-linecap:butt;stroke-linejoin:round;stroke-miterlimit:4;stroke-dasharray:none;stroke-opacity:1" /><path
     d="m 6131.47,4709.24 -31.82,4.24 -12.02,3.54 -25.46,21.21 -23.33,16.97 -33.94,7.07 -29.7,3.54 -62.23,23.33 -17.68,5.66 -12.73,15.56 -43.84,130.81 -9.19,53.74 -19.09,38.18 -26.87,38.18 -14.85,11.31 -19.09,13.44 -42.43,25.46 -33.23,32.53 -16.26,18.38 -21.92,37.48 -12.02,47.38 2.83,24.04 4.24,19.8 v 16.26 l -9.19,14.85 -101.82,112.43 -36.77,18.38 -18.38,12.02 -76.37,59.4 -47.38,14.85 -57.98,-3.54 -19.8,1.41 -28.99,14.85 -46.25,12.73 -16.47,13.64 -38.35,30.31 -16.9,16.2 -38.2,71.75 -5.45,15.38 -2.45,14.85 0.52,17.69 7.95,16.99 236.63,234.8 28.61,18.56 17.56,3.87 48.03,-0.77 15.23,1.81 19.11,7.49 60.42,46.48 23.24,19.37 10.59,14.98 4.65,11.1 1.55,12.91 -2.32,16.53 -7.23,12.14 -62.49,65.33 -23.5,24.92 -15.12,8.01 -85.98,37.06 -14.82,11.56 -12.16,22.53 -7.41,16.6 v 105.25 l -5.04,17.79 -10.97,11.56 -32.61,23.72 -13.05,18.68 -18.38,33.5 -1.78,11.41 3.26,11.86 4.89,22.83 0.15,28.17"
     id="path3614"
     style="fill:none;stroke:#a73e10;stroke-width:5;stroke-linecap:butt;stroke-linejoin:round;stroke-miterlimit:4;stroke-dasharray:none;stroke-opacity:1" /><path
     style="fill:none;stroke:#dab006;stroke-width:1;stroke-linecap:butt;stroke-linejoin:round;stroke-miterlimit:4;stroke-dasharray:none;stroke-opacity:1"
     d="m 2289.81,5410.87 -3.82,4.61 -52.09,-1.96 -6.36,2.12 -4.24,45.25 -9.19,10.61 -24.75,16.26 -10.28,7.58 -8.43,23.95 0.15,8.7 4.42,12.8 16.26,31.11 3.67,9.48 -6.05,6.96 -28.48,-7.88"
     id="path867" /><path
     style="fill:none;stroke:#dab006;stroke-width:1;stroke-linecap:butt;stroke-linejoin:round;stroke-miterlimit:4;stroke-dasharray:none;stroke-opacity:1"
     d="m 2172.91,5576.38 -62.91,-15.76 -26.33,-31.18 -2.81,-8.29 5.96,-8.63 14.14,-19.8 11.31,-21.21 9.87,-17.66 2.22,-19.46 21.86,-43.49 21.92,-57.98 15.24,-43.89 -1.26,-58.71"
     id="path853" /><path
     style="fill:none;stroke:#dab006;stroke-width:5;stroke-linecap:butt;stroke-linejoin:round;stroke-miterlimit:4;stroke-dasharray:none;stroke-opacity:1"
     d="m 2184.75,5233.48 13.09,-0.27 55.15,12.02"
     id="path3624" /><path
     style="fill:none;stroke:#dab006;stroke-width:5;stroke-linecap:butt;stroke-linejoin:round;stroke-miterlimit:4;stroke-dasharray:none;stroke-opacity:1"
     d="m 2284.81,5250.88 6.36,13.44 v 63.64"
     id="path849" /><path
     style="fill:none;stroke:#dab006;stroke-width:1;stroke-linecap:butt;stroke-linejoin:round;stroke-miterlimit:4;stroke-dasharray:none;stroke-opacity:1"
     d="m 2291.18,5327.95 -0.74,66.69 -0.62,16.23 -0.41,12.59 5.32,5.88 5.98,1.49 17.29,-8.85"
     id="path3620" /><path
     d="m 2184.75,5233.48 -2.63,-3.17 -1.89,-33.17 0.59,-33.23 4.15,-14.21 2.82,-24.94 -8.81,-22.83 -16.23,-14.63 -22.18,-8.95 -14.85,-7.78 -4.24,-10.61 10.61,-14.14 12.02,-9.19 14.85,-0.71 44.55,16.26 9.9,3.54 22.63,-6.36 34.65,-9.9 23.33,-13.44 11.31,-17.68 4.46,-9.07 -0.24,-27.89 3.77,-4.67 20.67,5.23 2.78,6.94"
     id="path3626"
     style="fill:none;stroke:#dab006;stroke-width:1;stroke-linecap:butt;stroke-linejoin:round;stroke-miterlimit:4;stroke-dasharray:none;stroke-opacity:1" /><path
     d="m 2291.18,5327.95 -3.83,4.19 -23.2,0.28 -4.16,3.74 -0.16,23.15 3.72,2.95 h 23.63 l 4.21,-4.1"
     id="path3622"
     style="fill:none;stroke:#dab006;stroke-width:1;stroke-linecap:butt;stroke-linejoin:round;stroke-miterlimit:4;stroke-dasharray:none;stroke-opacity:1" /><path
     d="m 2305.32,5008.34 4.03,-0.78 13.91,5.47 5.59,-3.07"
     id="path3628"
     style="fill:none;stroke:#dab006;stroke-width:1;stroke-linecap:butt;stroke-linejoin:round;stroke-miterlimit:4;stroke-dasharray:none;stroke-opacity:1" /><path
     style="fill:none;stroke:#dab006;stroke-width:1;stroke-linecap:butt;stroke-linejoin:round;stroke-miterlimit:4;stroke-dasharray:none;stroke-opacity:1"
     d="m 2162.74,5087.29 20.34,3.27 14.76,-2.35 11.01,-5.62 5.52,-0.04 27.3,33.27 19.91,0.75"
     id="path863" /><path
     style="fill:none;stroke:#dab006;stroke-width:5;stroke-linecap:butt;stroke-linejoin:round;stroke-miterlimit:4;stroke-dasharray:none;stroke-opacity:1"
     d="m 2261.59,5116.57 17.57,0.66 14.85,4.95"
     id="path3630" /><path
     d="m 2180.81,5163.91 -6.83,2.07 -3.02,7.83 2,9.5 -9.36,25.54 1.59,9.78 16.14,0.3"
     id="path3632"
     style="fill:none;stroke:#dab006;stroke-width:1;stroke-linecap:butt;stroke-linejoin:round;stroke-miterlimit:4;stroke-dasharray:none;stroke-opacity:1" /><path
     d="m 4783.73,7136.73 22.63,5.66 24.04,1.41 6.36,-2.12 9.9,-10.61 33.23,-53.03 10.61,-14.14 7.07,-8.49 11.31,-16.97"
     id="path3611"
     style="fill:none;stroke:#9f5443;stroke-width:5;stroke-linecap:butt;stroke-linejoin:round;stroke-miterlimit:4;stroke-dasharray:none;stroke-opacity:1" /><path
     d="m 3377.8,3451.93 -32.85,5.48 -23.48,0.28 -33.77,0.22 -8.31,-6.5 -3.18,-7.63 2.05,-20.27 -0.06,-24.68 2.63,-22.65 14.2,-40.04 11.97,-35.63 15,-25.5 11,-29.5 1.45,-41.15 -6.86,-119.16 -4.39,-242.59 3.42,-10.63 6.83,-9.04 10.96,-4.79 12.44,-1 17.67,8.19 16.97,5.66 145,-3 111.05,0.55 47.76,-5.54 31.34,-0.57 229.15,-2.54 34.43,3.4 89.58,-0.73 42.01,10.35 68.49,46.99 19.94,5.5 48.15,1.58 13.87,-2.39 11.98,-6.03 12.41,-14.13 7.35,-18.97 53.5,-95 59,-37 55,-34 5,-13 1.5,-17.5 -8,-18.5 -24.5,-28 -14.5,-25 -7,-33.5 -10.89,-56.31 -11.8,-34.34 -10.07,-9.11 -26.92,-10.05 -36.82,2.31 -22,-9 -11,-13 -13,-24.5 -10.5,-46 -16.5,-25 -20,-34 -34.5,-54 -1.5,-27.5 10,-37 39.5,-83.5 31,-36 27.5,-42 22,-19.5 84.5,-44 81,-61.5 64.5,-81 32.5,-43 24.5,-16.5 29,-6 51,-1.5 101.5,-16.5 30,-14 17,-17 30,-49.5 44,-49 51.5,-34.5 74.5,-27 102.5,-17.5 31.5,-7 25,-11 126.5,-63.5 50.5,-26 43.5,-13 25,-11 112,-96 22,-31 32,-42 41,-40 18,-31 34.5,-77.5 15.5,-73 69,-121.5 16,-47.5 13.5,-100.5 6.5,-46.5 12.5,-24 61,-94.5 52.5,-94 21,-31.5 175.5,-174 28,-11 42.5,-13 25,-9.5 130,-74 100.5,-67.5 57,-30.5 24.97,-13.55 9.78,-8.89 7.71,-17.49 15.71,-114.15 10.08,-139.94 0.59,-53.07 -3.26,-19.27 -10.08,-16.6 -11.86,-15.12 -4.45,-21.94 -4.45,-39.73 1.48,-21.05 35.28,-80.94 23.72,-41.51 17.79,-19.57 83.61,-40.62 26.98,-5.04 79.16,-10.97 11.27,-5.04 121.26,-84.79 132.82,-80.94 38.54,-26.68 24.02,-20.16"
     id="path3617"
     style="fill:none;stroke:#00a6df;stroke-width:5;stroke-linecap:butt;stroke-linejoin:round;stroke-miterlimit:4;stroke-dasharray:none;stroke-opacity:1" /><path
     d="m 4503.9,2874.31 65.64,-11.45 13.5,-9.75 14.41,-24.91 18.6,-36.52 1.12,-11.18 -5.77,-7.5 -61.41,-75.5 -55.5,-71 -5.5,-28.5 7.5,-44 31,-122.5 10,-93.5 -0.31,-22.31 -6.1,-14.94 -89.86,-127.51 -6.77,-15.44 -7.14,-40.72 -2.14,-54.72 -6.72,-25.46 -13.13,-15.92 -9.71,-7.97 -11.88,-5.37 -53.34,-0.81 -75,-25.78 -21.16,-15.43 -20.55,-34 -38.09,-28.62 -4.93,-11.82 -2.66,-25.15 -23.5,-60.55 -12,-64.5 -18.5,-24 -27.5,-14.5 -341.5,-69 -119.77,-21.33 -33.08,1.2 -82.65,11.13 -56.98,3.46 -44.08,-4.98 -26.92,2.35 -20.82,12.16 -16.94,18.23 -237.49,140.31 -39.34,35.95 -30.87,15.62 -86.55,78.89 -23.98,10.9 -47.95,10.82 -87.87,28.19 -32.96,15.43 -15.06,16.24 -26.32,51.25 -39.37,57.65 -32.5,37.5 -29,17 -243.5,101 -101.08,0.32 -18.26,2.81 -19.35,9.5 -32.47,16.61 -33.95,1.57 -58.57,-3.55 -85.74,26.83 -113.58,5.42 -223.5,3.5 -49.97,-9.43 -53.03,-9.57 -38,-10 -57,-9 -30.5,0.5 -20,4.5 -481.36,446.36 -9.29,24.91 -3.11,16.05 0.61,56.2 4.11,17.62 8.98,10.82 22.49,11.29 35.9,8.1 36.64,7.82 25.61,7.1 29.17,15.84 11.69,19.63 3.6,35.48 1.51,124.1 1.22,50.03 -6.49,37.89 -14.69,31.57 -25.8,32.44 -26.97,30.98 -61.67,53.03 -33.34,23.88 -12.94,17.43 -5.22,14.83 0.28,20.08 6.35,15.1 13.65,21.92 75.69,113.8 19.24,29.02 56.32,54.77 9.11,18.95 5,20.54 -3.56,23.07 -9.38,22.6 -25.98,29.22 -15.22,18.71 -5.93,19.95 0.82,21.28 10.64,22.54 18.77,23.6 31.66,34.66"
     id="path4461-6"
     style="fill:none;stroke:#96499a;stroke-width:5;stroke-linecap:butt;stroke-linejoin:round;stroke-miterlimit:4;stroke-dasharray:none;stroke-opacity:1" /><path
     d="m 3561.36,3339.12 -40,-35.17 -12.32,-16.22 -15.48,-62.27 -22.07,-89.97 -5.63,-7.41 -11.62,-15.65 -6.97,-11.62 -5.82,-18.7 -1.06,-156.27 -5.11,-99.21 -11.79,-112.14 -7.5,-95 -1.5,-173.5 -2.49,-42.54 -77.51,-172.96 -49.5,-75.5 -88,-121.5 -86,-77 -27.5,-29.5 -45.3,-15.74 -15.84,-10.74 -20.86,-25.52 -30.5,-35.5 -18.27,-40.37 -11.15,-39.48 -187.21,-295.73 -36.36,-58.16 -2.51,-16.12 3.11,-13.81 7.65,-13.1 174.8,-126.03 165.45,-132.71 12.5,-19.5 17.5,-44 63.22,-135.49 13.69,-16.21 5.08,-19.09 -0.23,-20.79 -6.92,-27.59 -28.18,-24.76 -7.59,-12.88 -2.14,-11.28 15.17,-84.18 6.22,-32.03 -1.76,-28.73 -3.84,-39.66 3.54,-29.55 51.06,-215.06 9.71,-21.28 15.95,-15.7 52.62,-14.89 56.4,-21.31 19.87,-9.64 78.52,-81.6 33.43,-7.09 82.8,-4.56 41.66,2.91 38.65,0.96 40.86,-11.53 38.11,-13.35 21.46,-12.77 44.1,4.41 24.29,-4.01 23.53,-9.67"
     id="path3608"
     style="fill:none;stroke:#da251e;stroke-width:5;stroke-linecap:butt;stroke-linejoin:round;stroke-miterlimit:4;stroke-dasharray:none;stroke-opacity:1" /><path
     d="m 4256.5,3113 -1.52,-20.71 10.52,-26.29 -3.5,-38 -2,-51.5 1.5,-61.5 -8.79,-7.83 -19.21,-6.17 -25.5,-9.5 -10.94,-0.56 -44.56,18.06 -33.5,17 -19,15 -36,9 -388.5,9.5 -15.51,7.92 -14.61,21.57 -9.39,13.12 -25.44,17.41 -43.51,19.21 -24.05,2.27 -219.69,3.47 -28.83,-4.42 -31.27,-13.97 -44,-36.56 -17.15,-9.31 -24.81,-7.38 -31.93,2.87 -31.26,5.09 -157.05,35.2 -50.97,4.46 -22.27,7.68 -45.61,19.98 -114.3,21.48 -56.04,5.89 -65.22,4.19 -40.34,2.1 -97.26,-22.78 -123.52,-1.48 -25.91,-5.49 -59.46,-28.81 -166.12,-65.22 -22,-7 -180.14,2.53 -40.79,-6.89 -21.45,1.19 -17.75,6.74 -12.38,8.51 -59.89,75.89 -17.59,15.53 -27,9 -34.17,6.36 -55.83,3.14 -198,-0.5 -36,4.5 -124,1.5 -59.78,0.37 -19.26,-4.63 -17.7,-10.7 -12.66,-14.29 -5.99,-17.8 -2.82,-120.67 -7.36,-25.87 -29.41,-34.4 -29,-30 -185,-190 -162,-139.5 -119.5,-107 -70,-63.5 -9,-20.5 -2,-27.5 -4.5,-50.5 -12,-27.5 -29.5,-36 -75,-157 -107,-247.5 -26.5,-120.5 -28.5,-54.5 -26.5,-36.5 -48,-47 -28.5,-50 -21,-31.5 -60,-116"
     id="path3610"
     style="fill:none;stroke:#13ae58;stroke-width:5;stroke-linecap:butt;stroke-linejoin:round;stroke-miterlimit:4;stroke-dasharray:none;stroke-opacity:1" /><path
     d="m 1106.11,3878.61 21.06,23.1 51.73,49.66 22.49,12.39 28.56,3.96 31.89,-0.54 35.55,-15.41 41.43,-29.4 14.34,-14.09 8.05,-17.73 -1.14,-19.36 -6.45,-22.04 0.34,-14.29 8.03,-18.84 18.5,-42 21,-14.5 22.23,-8.37 44.44,-3.15 48.46,10.09 82.6,29.2 51.27,1.73 26.5,-4.74 15.68,-7.61 10.52,-13.14 7.07,-20.57 0.13,-21.86 -14.88,-88.56 -6.01,-61.51 1.35,-153.59 48.11,-158.78 5.76,-59.64 5.89,-17.29 14.42,-12.65 18.19,-9.72 16.26,-4.47 126.68,-2.16 38.33,8.67 50.4,13.19 22.35,6.98 24.1,4.25 83.7,2.15 23.59,-6.95 13.65,-10.57 10.36,-15.43 3.1,-25.29 -3.3,-62.09 12.69,-38.6 9.9,-28 14,-31 39.98,-40.06 28.07,-16.76 47.38,-36.07 19.18,-6.68 8.42,-1.02 13.83,2 7.89,3.61 26.25,19.47 29.51,24.79 17.02,3.57 15.74,-1.03 15.32,-7.32 21.28,-16.7 58.62,-56.82 14.08,-9.51 15.42,-5.49 27.5,-3 123.5,-2.5 13.5,-6.5 37,-21 37.5,-23 19.5,-6 24.53,-3.33 100.47,0.83 33.72,-5.84 30.72,-18.29 48.52,-2.51 33.1,13.61 25.76,6.42 44.89,-2.23 48.47,-6.88 19.08,2.32 18.26,9.91 8.81,15.19 2.58,21.95 -34.15,103.03 0.13,23.02 12.49,22.18 14.46,10.32 17.37,3.91 67.87,-1.5 44.24,-3.26 63.77,-1.55 71.54,-1.54 65.75,5.37 41.05,-5.23 25.98,-12.32 16.09,-15.79 15.23,-15.21 17.3,-10.63 187.3,-5.13 22.18,0.19 32.88,3.41 32.12,10.06 24.69,17.48 20.11,23.25 19.97,3.38 24.9,-2.26 258.82,-52.81 138.4,-24.32 71.6,-12.18 108,-13.5 42.88,-7.11 22.02,-7.22 19.7,-14.48 8,-14.17 9.19,-48.12 20.83,-106.77 4.23,-25.33 8.58,-13.18 32.83,-13.42 31.51,-1.33 211.11,-1.24 36.48,3.44 20.87,5.14 15.87,21.58 1.79,34 16.92,45.65 26.84,26.38 19.89,13.48 20.08,3.62 217.87,-27.98 42.73,-8.16 30.74,-1.12 70.89,12.29 48.8,14.46 62.16,3.69 86.09,2.57 74.54,11.33 20.38,-0.94 62.55,-38.99 54.96,-55.02 44.26,-22.39 21.36,-25.44 9.89,-19.75 5.73,-20.79 -4.81,-31.12 -84.43,-144.85 -1.97,-14.73 5.36,-41.98 4.94,-14.78 34.62,-41.46 16.82,-13.43 11.93,-2.89 17.9,1.27 38.41,4.36 11.7,-1.85 9.96,-5.44 43.17,-53.41 26.01,-31.79 15.71,-10.67 14.53,-3.56 h 19.57 l 46.25,18.97 104.07,31.43 29.06,12.45 22.24,3.56 35.87,2.96 26.39,-7.71 95.17,-36.47 29.94,-3.26 142.9,-0.3 76.49,-1.19 19.27,-9.78 12.75,-13.05 14.23,-19.86 29.65,-30.54 28.17,-37.65 16.01,-10.97 16.6,-5.34 27.87,0.89 30.54,-8.01 39.14,3.26 21.35,-0.89 27.87,-12.45 39.73,-33.8"
     id="path3612"
     style="fill:none;stroke:#b34e20;stroke-width:5;stroke-linecap:butt;stroke-linejoin:round;stroke-miterlimit:4;stroke-dasharray:none;stroke-opacity:1" /><path
     d="m 5492.49,6842.95 28.72,-5.8 13.79,3.85 16.17,11.41 20.4,21.31 15.1,4.54 21.85,-0.83 16.57,-1.47 7.4,-0.97 55,-29.5 183,-100.5 82.5,-48.5 15.67,-3.4 15.25,2.72 12.94,6.72 6.13,8.46 34,49.75 3.5,5.25 9,5.5 16.5,4 33.78,-3.93 23.57,-13.43 20.36,-15.01 20.05,-41.52 37.49,-36.25 23.91,-18.66 17.32,-17.32 18.38,-13.79 53.03,-22.98 91.22,-36.42 14.14,-7.07 28.99,-4.95 25.46,2.83 23.33,20.51 41.72,48.79 3.9,24.44 0.09,23.51 -5.64,21.87 -7.63,16.91 -5.95,12.77 -10.22,15.75 -24.19,13.38 -27.42,22.3"
     id="path3596"
     style="fill:none;stroke:#915fb6;stroke-width:5;stroke-linecap:butt;stroke-linejoin:round;stroke-miterlimit:4;stroke-dasharray:none;stroke-opacity:1" /><path
     style="fill:none;stroke:#de6dbd;stroke-width:5;stroke-linecap:butt;stroke-linejoin:round;stroke-miterlimit:4;stroke-dasharray:none;stroke-opacity:1"
     id="path3616"
     d="m 3072.25,6201 9.5,-8.75 5.75,-4.75 14,0.5 16.5,7.5 12,9.5 7,15 5.49,14.51 2.74,28.18 -2.27,37.21 -0.52,23.28 3.23,21.1 16.69,49.87 6.1,14.16 14.31,17.4 25.34,13.57 42.13,16.67 23.19,1.14 24.07,0.87" /><path
     d="m 6008.5,7258.5 26.5,-55 19.5,-43.5 17,-36 3.5,-12 -1.5,-26.5 -6.5,-15 -42.31,-53.67 -14.89,-8.12 -13.28,-2.57 -20.66,3.06 -40.54,11.45 -31.81,-1.65 -45.5,-17.5 -15,-3.5 -19.5,-6.5 -12.93,-9.56 -14.07,-16.44 -16.5,-23.5 -8,-4.5 -19,-3 -40.5,-1 -36.5,-1.5 -11.5,-2 -8.5,-3.5 -17,-14.5 -16.5,-24 -14,-28.5 -10.5,-14 -14,-8.5 -49,-12.5 -34,6.5 -72,14.5 -5.5,3.5 -28,31 -5,19 -2,37 -12.5,32 -29.04,18.61 -42.96,1.89 -34.5,10 -13,0.5 -52.5,22 -33.5,10 -16.5,4.5 -26.5,3.5 -40.5,3 -36,-4.5 -63.5,-20 -18,-10 -46.5,-13 -21,-8 -13,-13 -36,-47 -23,-16 -9,-4.5 -26.5,-7 -52.5,-12 -26,-3 -22,13 -31.64,38.2 -17.39,7.2 -48.58,-2.82 -24.96,1.65 -23.81,2.27 -39.11,30.52 -43.56,11.52"
     id="path2818"
     style="fill:none;stroke:#2d7bc8;stroke-width:5;stroke-linecap:butt;stroke-linejoin:round;stroke-miterlimit:4;stroke-dasharray:none;stroke-opacity:1" /><text
     x="-760.55"
     y="-893.04"
     id="text4378-3"
     xml:space="preserve"
     style="font-style:normal;font-weight:normal;font-size:144px;font-family:Sans;-inkscape-font-specification:Sans;fill:#000000;fill-opacity:1;stroke:none"><tspan
       x="-760.55"
       y="-893.04"
       id="tspan1">2025</tspan></text><text
     x="-760.55"
     y="7647.96"
     id="text4378"
     xml:space="preserve"
     style="font-style:normal;font-weight:normal;font-size:144px;font-family:Sans;-inkscape-font-specification:Sans;fill:#000000;fill-opacity:1;stroke:none"><tspan
       x="-760.55"
       y="7647.96"
       id="tspan2">2025</tspan></text><path
     d="m 4365.67,3506.26 -21.7,-5.5 -46.97,-2.26 -265.5,3.5 -17,5.5 -159.46,43 -54.54,3.5 -15,-5.14 -13,-4.89 -18.5,-14.98 -17.5,-27.5 -12.5,-30 -4.5,-16.5 -7.95,-26.2 -10.17,-17.39 -14.33,-10.54 -18.54,-8.62 -22.11,-1.07 -50.39,2.33 -26.78,3.02"
     id="path3604"
     style="fill:none;stroke:#6ac2ee;stroke-width:5;stroke-linecap:butt;stroke-linejoin:round;stroke-miterlimit:4;stroke-dasharray:none;stroke-opacity:1" /><path
     style="fill:none;stroke:#219089;stroke-width:5;stroke-linejoin:round;stroke-opacity:1"
     d="m 1800.23,-603.04 -2.12,-59.41 -6.47,-28.43 -7.13,-23.9 0.42,-19.08 8.39,-20.55 13.21,-16.14 31.87,-28.72 11.95,-18.45 4.4,-19.92 v -16.98 l -10.48,-76.94 v -8.18 l 1.05,-18.45 6.08,-11.53 10.27,-10.06 60.17,-19.92"
     id="path1" /><path
     style="fill:none;stroke:#2773cf;stroke-width:5;stroke-linejoin:round;stroke-opacity:1"
     d="m 7221.01,414.42 47.18,-10.52 149.83,-37.66 45.36,-14.82 27.72,-11.71 20.31,-10.23 12.45,-9.19 9.93,-2.37 63.3,13.49 9.49,-1.33 31.43,-13.05 6.67,-1.04 7.26,2.08 5.04,5.34 6.23,14.97 4.3,3.56 5.48,1.48 7.26,0.44 14.97,-5.04 6.08,-0.59 4.74,2.96 5.63,9.93 25.94,79.61 1.19,6.23 -0.74,5.78 -5.19,6.08 -7.26,2.67 -60.78,12.9 -31.72,15.57 -16.16,12.9 -14.23,13.64 -37.51,46.1 -2.37,9.93 2.22,9.64 4.89,6.52 6.97,4.45 28.02,8.89 11.86,0.89 h 15.57 l 11.27,4.6 15.86,9.78 7.56,8.89 13.05,19.12 3.56,12.45 2.96,20.9 3.11,29.94 5.93,40.17 5.34,15.12 15.57,26.83"
     id="path7" /></svg>
