<svg width="3650" height="2950" viewBox="-800, -100, 3650, 2950" xmlns="http://www.w3.org/2000/svg"><path d="m1878.78 131.88-2.83 7.78 19.8 61.52" style="fill:none;stroke:#7d0d6f;stroke-width:5;stroke-linecap:butt;stroke-linejoin:round;stroke-miterlimit:4;stroke-opacity:1;stroke-dasharray:none"/><path d="m1895 199 26 83-3.5 5.5-44.5 6.5-137.5 130-9 5.5-12.5 3" style="fill:none;stroke:#7d0d6f;stroke-width:1px;stroke-linecap:butt;stroke-linejoin:round;stroke-opacity:1"/><text x="-710.55" y="106.96" xml:space="preserve" style="font-size:144px;font-style:normal;font-weight:400;line-height:125%;letter-spacing:0;word-spacing:0;fill:#000;fill-opacity:1;stroke:none;font-family:Sans;-inkscape-font-specification:Sans"><tspan x="-710.55" y="106.96">1985</tspan></text><path style="fill:none;fill-rule:evenodd;stroke:#ee9e18;stroke-width:1px;stroke-linecap:butt;stroke-linejoin:round;stroke-opacity:1" d="m1259.14 514.94 6.09-2.8 33.72-65.89 29.65-59.62-1.06-3.78-3.77-2.17-7.55-3.11-4.71-1.7-2.69.78-28.16 55.83 1.89 3.96 13.59 6.79 1.13 5.47"/><path style="fill:none;stroke:#ec2c29;stroke-width:5;stroke-linecap:butt;stroke-linejoin:round;stroke-miterlimit:4;stroke-dasharray:none;stroke-opacity:1" d="m1216.28 694.48 11.22-7.48 5-10.5 24.5-156.07.5-2 21 13 6.53.13.51.10.5-8.5 22-42.5 24.5-49.06.5-33.5-1-7.5-5-3.5-56.5-27.5-39.01 13.04"/><path style="fill:none;stroke:#017ec0;stroke-width:5;stroke-linecap:butt;stroke-linejoin:round;stroke-miterlimit:4;stroke-dasharray:none;stroke-opacity:1" d="m1345.5 1269.5 6.5-13.5 4.5-28.5-5.5-16.5-14-15.5-9.5-25 3-19.5-.5-21-3.5-30.5 5-25 3.5-17.5-11.5-27.5-2.03-23.82-5.47-18.18-6.5-27-13.5-24-19.52-33.14-4.24-3.36-4.01-6.22 1.91-11.23L1268 874l-10-23-23-34.5-8-19.5-33-30.5-12-23.5 2.27-9.49 21.72-26.46L1213 702l18.25-11.5 5.5-13.25L1260.5 525s.75-1.5 2.5-1.5l27 15.5 18 .5 12.5-10L1367 438l7.5-37-3-10.5-62.75-31.5-43.03 14M946.59 1956.51l.91-5.51 24.5-53.5 5-16v-20l-6.5-27.5.5-36 3-21.5 10-34.5-1-16-12-39.5-6-25.5-.5-40 4.26-16.63"/><path style="fill:none;stroke:#017ec0;stroke-width:1;stroke-linecap:butt;stroke-linejoin:round;stroke-miterlimit:4;stroke-dasharray:none;stroke-opacity:1" d="m1077.5 2739-36-13.5-19-15.5-28.5-23.5-16.5-21.5-13-25.5-8.5-38-29-159-9.5-42.5 2-36 12-25 39-54.5 7-21.5 1.5-21.5-5.5-20-11.5-33-6.5-23.5-2.5-27.5-8.06-171.06 1.64-9.94"/><path style="fill:none;fill-rule:evenodd;stroke:#ee9e18;stroke-width:5;stroke-linecap:butt;stroke-linejoin:round;stroke-miterlimit:4;stroke-dasharray:none;stroke-opacity:1" d="m1278.95 522.11 2.01 1.26-17.19-9.27-9.68 4.93-2.31 4.39-24.15 151.9-3.59 9.81-43.4 26.04-9.43 18.68-5.85 16.6.756.79"/><path d="m1388.4 335.53-11.34 1.17-27.88 9.38-13.74 27.02-4.22 8.09.513.97 17.52 8.82 3.77-2.24 4.56-8.13 20.19-40.97 10.28-6.06" style="fill:none;stroke:#7d0d6f;stroke-width:1px;stroke-linecap:butt;stroke-linejoin:round;stroke-opacity:1"/><path style="fill:none;stroke:#7d0d6f;stroke-width:5;stroke-linecap:butt;stroke-linejoin:round;stroke-miterlimit:4;stroke-dasharray:none;stroke-opacity:1" d="m1385.58 337.3 10.96-3.18 106.77-86.97 35.36-20.51 59.4-49.5 63.64-55.86 26.87-18.38 40.31-10.61 72.83-15.56 14.14 3.54 13.44 11.31 16.97 28.28 16.97 9.19 66.47 11.31 16.26 10.61 29.7 26.16 25.46 11.31 19.09 2.12 25.46-7.07 19.09-14.85 34.65-32.53 78.49-30.41 59.4-16.26 23.33.7145.25 21.92 76.37 38.89 24.04 4.24 76.37 45.25 62.23 29.7 31.82 24.04 23.33 30.41 14.85 26.16 10.18 40.71"/><path style="color:#000;fill:none;stroke:#017ec0;stroke-width:5;stroke-linejoin:round;stroke-miterlimit:4;stroke-dasharray:none;stroke-opacity:1" d="m913.64 1786.53-10.06 2.4-.19.04-50.07 7.93-21.49 11.72-47.09 33.71-13.05 16.44-20.34 51.59-3.98 11.94-4.88 9.61-19.99 33.6-16 32-10.5 39-2.46 4.67"/><path style="color:#000;fill:none;stroke:#ec2c29;stroke-width:5;stroke-linejoin:round;stroke-miterlimit:4;stroke-dasharray:none;stroke-opacity:1" d="m912.48 1781.66-9.97 2.38-50.4 7.99-.81.27-22 12-.26.16-47.5 34-.5.48-13.5 17-.37.64-20.5 52-.4.13-4 12-4.13 8.29-7.5 2-18-1-17 5.5-12.5 1.5"/><path style="color:#000;fill:none;stroke:#ec2c29;stroke-linejoin:round;stroke-opacity:1;-inkscape-stroke:none" d="m969.09 1753.53-2.46 3.87-30.34 20.64-23.35 5.57"/><path style="color:#000;fill:none;stroke:#017ec0;stroke-linejoin:round;stroke-opacity:1;-inkscape-stroke:none" d="m913.18 1784.58 23.44-5.6.17-.07 30.5-20.75.14-.15 2.52-3.95"/><path style="color:#000;fill:none;stroke:#017ec0;stroke-width:5;stroke-linejoin:round;stroke-miterlimit:4;stroke-dasharray:none;stroke-opacity:1" d="m971.63 1755.14 9.73-15.3L983 1726l-12-39.5-6-25.5-.5-40 4.26-16.63"/><path style="fill:none;stroke:#ec2c29;stroke-width:5;stroke-linecap:butt;stroke-linejoin:round;stroke-miterlimit:4;stroke-dasharray:none;stroke-opacity:1" d="m963.95 1603.14-4.2 16.36.542.5 18.5 65.25-1.61 9.91-9.73 15.3"/><path style="fill:none;stroke:#ec2c29;stroke-width:1;stroke-linecap:butt;stroke-linejoin:round;stroke-miterlimit:4;stroke-dasharray:none;stroke-opacity:1" d="m956 1493 17 16 15.5 12.5 6 12-.58 11.49-16.92 17.3-7.07 31.23-4.08 10.6"/><path style="fill:none;stroke:#017ec0;stroke-width:1;stroke-linecap:butt;stroke-linejoin:round;stroke-miterlimit:4;stroke-dasharray:none;stroke-opacity:1" d="m966.7 1604.48 4.3-10.98 6.92-30.76L1008 1532l9.5-1.5 14.45 7.23 4.55 2.27 45-5.5 43.5-18.01.5-12 28-37 57.68-66.75 12.32-14.25 6-22 19-25 19-13 9-8.5 16.5-21.04.5-27.5M693.54 2041.17l-7.04 13.33-19 13-29.5 5-29 7.5-36.02.5-15.5 13.5-10.36 13.05"/></svg>