<svg width="3650" height="2950" viewBox="-800, -100, 3650, 2950" xmlns="http://www.w3.org/2000/svg"><path d="m1072 844 12.5 14.5 11.52.010.5-2.5 12-13.5 11-10 32-3 14-4 5-9.5.5-17-9.5-35-1-19 5-15.5 9-17L1208 700l19.5-13 5-10.5 24.5-156.07.5-2 21 13 6.53.013.51.010.5-8.5 22-42.5 24.5-49.06.5-33.5-1-7.5-5-3.5-56.5-27.5-39.01 13.04" style="fill:none;stroke:#ec2c29;stroke-width:5;stroke-linecap:butt;stroke-linejoin:round;stroke-miterlimit:4;stroke-opacity:1;stroke-dasharray:none"/><path d="m1072 844-9.5-6.5-27.5.5-8.5 1.5-5 4v24l-5 14.5-10.5 10.5-41.5 27-5.5 9.5-4.5 23-6.37 16.98L942.5 990l-9 8.5-42.045.5-36 29-9.5 15-13.3 45" style="fill:none;stroke:#ec2c29;stroke-width:1px;stroke-linecap:butt;stroke-linejoin:round;stroke-opacity:1"/><path d="m1878.78 131.88-2.83 7.78 19.8 61.52" style="fill:none;stroke:#7d0d6f;stroke-width:5;stroke-linecap:butt;stroke-linejoin:round;stroke-miterlimit:4;stroke-opacity:1;stroke-dasharray:none"/><path d="m1895 199 26 83-3.5 5.5-44.5 6.5-137.5 130-9 5.5-12.5 3" style="fill:none;stroke:#7d0d6f;stroke-width:1px;stroke-linecap:butt;stroke-linejoin:round;stroke-opacity:1"/><text x="-710.55" y="106.96" xml:space="preserve" style="font-size:144px;font-style:normal;font-weight:400;line-height:125%;letter-spacing:0;word-spacing:0;fill:#000;fill-opacity:1;stroke:none;font-family:Sans;-inkscape-font-specification:Sans"><tspan x="-710.55" y="106.96">1995</tspan></text><path style="fill:none;fill-rule:evenodd;stroke:#ee9e18;stroke-width:5;stroke-linecap:butt;stroke-linejoin:round;stroke-miterlimit:4;stroke-dasharray:none;stroke-opacity:1" d="m1278.95 522.11 2.01 1.26-17.19-9.27-9.68 4.93-2.31 4.39-24.15 151.9-3.59 9.81-43.4 26.04-9.43 18.68-5.85 16.60.756.79"/><path style="fill:none;fill-rule:evenodd;stroke:#ee9e18;stroke-width:1px;stroke-linecap:butt;stroke-linejoin:round;stroke-opacity:1" d="m1259.14 514.94 6.09-2.8 33.72-65.89 34.34-69.06-.75-3.21-16.42-8.3-3.02 2.45-32.45 64.34 1.89 3.96 13.59 6.79 1.13 5.47"/><path style="fill:none;stroke:#ec2c29;stroke-width:5;stroke-linecap:butt;stroke-linejoin:round;stroke-miterlimit:4;stroke-dasharray:none;stroke-opacity:1" d="M948.13 968.98 942.5 990l-9 8.5-18.5 20-6.2 6.72"/><path style="fill:none;stroke:#7d0d6f;stroke-width:1px;stroke-linecap:butt;stroke-linejoin:round;stroke-opacity:1" d="m1388.4 335.53-11.34 1.17-27.88 9.38-2.7 5.310.44.18 17.04 7.82 4.52-1.83 9.33-18.92 10.28-6.06"/><path style="fill:none;stroke:#ec2c29;stroke-width:5;stroke-linecap:butt;stroke-linejoin:round;stroke-miterlimit:4;stroke-dasharray:none;stroke-opacity:1" d="m832.7 1133-6.2 19-3.71 18.96-20.53 26.67-6.45 38.18 9.2 33.2-3.038.5"/><path style="fill:none;stroke:#7d0d6f;stroke-width:5;stroke-linecap:butt;stroke-linejoin:round;stroke-miterlimit:4;stroke-dasharray:none;stroke-opacity:1" d="m1385.58 337.3 10.96-3.18 106.77-86.97 35.36-20.51 59.4-49.5 63.64-55.86 26.87-18.38 40.31-10.61 72.83-15.56 14.14 3.54 13.44 11.31 16.97 28.28 16.97 9.19 66.47 11.31 16.26 10.61 29.7 26.16 25.46 11.31 19.09 2.12 25.46-7.07 19.09-14.85 34.65-32.53 78.49-30.41 59.4-16.26 23.330.7145.25 21.92 76.37 38.89 24.04 4.24 76.37 45.25 62.23 29.7 31.82 24.04 23.33 30.41 14.85 26.16 10.18 40.71"/><path style="fill:none;stroke:#ec2c29;stroke-width:5;stroke-linecap:butt;stroke-linejoin:round;stroke-miterlimit:4;stroke-dasharray:none;stroke-opacity:1" d="m913.06 1784.1-10.06 2.4-50.5 8-22 12-47.5 34-13.5 17-20.5 52-4 12-6.5 7.5-7.5 2-18-1-17 5.5-12.5 1.5"/><path style="fill:none;stroke:#ec2c29;stroke-width:1;stroke-linecap:butt;stroke-linejoin:round;stroke-miterlimit:4;stroke-dasharray:none;stroke-opacity:1" d="m969.52 1753.8-2.52 3.95-30.5 20.75-23.44 5.6"/><path style="fill:none;stroke:#ec2c29;stroke-width:5;stroke-linecap:butt;stroke-linejoin:round;stroke-miterlimit:4;stroke-dasharray:none;stroke-opacity:1" d="m963.95 1603.14-4.2 16.360.542.5 18.5 65.250.511.25-9.73 15.3"/><path style="fill:none;stroke:#ec2c29;stroke-width:1;stroke-linecap:butt;stroke-linejoin:round;stroke-miterlimit:4;stroke-dasharray:none;stroke-opacity:1" d="m802 1307.5 3.5 10 11 16 10 21 32.02 30.06 16.98 15.94 20.5 22 12 24 12.522.015.5 11 20 13.5 17 16 15.5 12.5 6 12-.58 11.49-16.92 17.3-7.07 31.23-4.08 10.6"/></svg>