<svg width="3150" viewBox="-150, -1575, 3150, 6200" height="6200" xmlns="http://www.w3.org/2000/svg"><text x="-60.5469" y="-1368.0391" xml:space="preserve" style="font-size:143.99993896px;font-style:normal;font-weight:400;line-height:125%;letter-spacing:0;word-spacing:0;fill:#000;fill-opacity:1;stroke:none;font-family:Sans;-inkscape-font-specification:Sans"><tspan x="-60.5469" y="-1368.0391">1905</tspan></text><path style="fill:none;stroke:#079ca0;stroke-width:5;stroke-linecap:butt;stroke-linejoin:round;stroke-miterlimit:4;stroke-dasharray:none;stroke-opacity:1" d="m1005.83 1498.486 13.028-22.268 15.553-12.184 26.698-3.53 26.55-1.893 73.298-17.42 20.93-17.042 14.459-24.921 2.216-24.36.78-9.294 2.337-13.036 11.175-11.24 15.535-5.882 32.736-8.485 16.047-11.746 36.269-28.69 17.16-10.844 10.778-2.051 40.715 13.981 15.993-1.036 29.8-10.718 24.372-36.129 22.792-24.012 21.371-25.756 10.313-16.458 5.809-19.986-.081-13.94-7.91-15.724-11.296-17.517-12.789-4.598-20.302-4.932-25.863-4.783-18.405-11.126-11.98-13.595-21.837-39.204-33.653-40.31-9.038-18.413-6.365-22.263-3.849-48.894-8.612-20.402L1303 856.5l-13.5-16-14-29-14-37.5-3.5-23.5-14-14h-16l-17.5 3.5-9.5 9-6 26-6 13.5-22.5 14-11 9-5 26.5-10 68.5-3.5 11.5-12.5 11.5-33 14.5-10 17-11 37.5-7.5 28-25.5 68.5-1.5 35-19 47.5 2.5 79.5 11.118 41.788-3.477 15.931 5.453 21.905 7.972 6.883 1.435 6.993-5 20-16 45.5 3 16.5 5.5 21.5-5.001 21.5-11 15.5-26.5 24.5-17.195 12.728-12.651 5.233-24.921.442-21.074-.937-23.75-9.125-76.131-33.446-42.514-13.445-90.912-4.789-22.855-8.31-74.464-24.198-59.02-15.79-54.935-13.075-75.88-8.643-92.7-16.779-23.45-11.884-14.883-29.192-9.738-7.428-18.824-7.48"/><path d="m233 1325 19.5 7.5 11 8.5 15 29 21 10.5 94 17 74.5 8.5 54.5 13 59.5 16 74.5 24 22.614 8.475 91.991 4.922L812.5 1485.5l77.5 34 22.5 8.5 19.5 1 24-.5 12-5 16.5-12.5 16.5-14.5 14-23.5 17.5-13 28-4.5 27-1.5 22-4.5 47.5-12 20.5-15 14-23.5 3-33.5 2.5-15.5 13.176-12.855 17.324-6.645 31-8 15-10.5 37-29.5 18-11.5 13.5-2.5 41 14.5 13-1 29-10.5 24-35.5 22.5-24 21-25 10-15.5 5-18V1141l-6-12.5-12-18.5-10-3.5-20-5-27-5-19.5-11.5-13.5-15.5-21.5-38.5-13.5-16-20.5-25-9-18.5-7-23.5-1-16.5-2.5-32-8.5-19.5-10.5-12.5-19-23-12.5-24-14-36.5-6.5-14.5-11-8-5-9-3.5-15.5 1-17 10.5-17.5 13-24 28.5-61 9.5-19.5 2.5-12 1-22.5 7.5-22.5 7-14.5" style="fill:none;stroke:#00963f;stroke-width:5;stroke-linecap:butt;stroke-linejoin:round;stroke-miterlimit:4;stroke-opacity:1;stroke-dasharray:none"/><path d="M1503.282 1187.81 1532.5 1145l46-50 7-23.5-3.5-24.5 2.051-17.396 11.578-24.496" style="fill:none;stroke:#f386a0;stroke-width:5;stroke-linecap:butt;stroke-linejoin:round;stroke-miterlimit:4;stroke-dasharray:none;stroke-opacity:1"/><text x="-35.646881" y="7347.9497" xml:space="preserve" style="font-style:normal;font-weight:400;font-size:144px;line-height:125%;font-family:Sans;-inkscape-font-specification:Sans;letter-spacing:0;word-spacing:0;fill:#000;fill-opacity:1;stroke:none"/></svg>