<svg width="3150" viewBox="-150, -1575, 3150, 6200" height="6200" xmlns="http://www.w3.org/2000/svg"><path d="m677.85 1472.16 90.91 4.79 42.51 13.44 76.13 33.45 23.75 9.13 21.070.9424.92-0.4412.65-5.23 17.19-12.73 26.5-24.5 11-15.5 5-21.5-2.46-22.34-.83-14.9 13.23-39.07 7.42-28.28-1.73-8.27-8.28-7.32-4.63-18.97 3.3-16.41-11.64-42.02-2.47-77.07 19.45-48.08.71-34.65 12.37-31.47 13.44-36.06 18.38-66.47 9.19-15.2 33.59-15.2 12.73-12.37 3.89-12.37 9.19-64.35 5.3-28.64 10.61-8.84 22.27-13.79 7.42-16.26 5.66-25.1 8.06-9.43 14.35-4.58h16l14 14 3.5 23.514.037.5 14 29 13.516.017.56 21.29 8.61 20.4 3.85 48.89 6.36 22.26 9.04 18.41 33.65 40.31 21.84 39.2 11.98 13.59 18.41 11.13 25.86 4.78 20.3 4.93 12.79 4.6 11.29 17.52 7.91 15.720.0813.94-5.81 19.99-10.31 16.46-21.37 25.76-22.79 24.01-24.37 36.13-29.8 10.72-15.99 1.04-40.71-13.98-10.78 2.05-17.16 10.84-36.27 28.69-16.05 11.75-32.74 8.48-15.54 5.88-11.17 11.24-2.34 13.04-0.789.29-2.22 24.36-14.46 24.92-20.93 17.04-73.3 17.42-26.55 1.89-26.7 3.53-15.55 12.18-13.03 22.27" style="fill:none;stroke:#079ca0;stroke-width:5;stroke-linecap:butt;stroke-linejoin:round;stroke-miterlimit:4;stroke-dasharray:none;stroke-opacity:1"/><path d="m1318.75 528.46-7.78 15.56-7.07 19.8-0.7124.04-2.83 12.73-36.74 77.81-16.7 31.31-21.59 12.19L1211 738l-10 11-6 26-6 13.5-22.5 14-11 9-5 26.5-10.068.5-3.5 11.5-12.5 11.5-33.014.5-10 17-11 37.5-7.5 28-25.5 68.5-1.5 35-19 47.5 2.5 79.5 11.12 41.79-3.48 15.93 5.45 21.91 7.97 6.88 1.43 6.99-5 20-8.09 23-7.91 22.5.66 9" style="fill:none;stroke:#9d6830;stroke-width:5;stroke-linecap:butt;stroke-linejoin:round;stroke-miterlimit:4;stroke-opacity:1;stroke-dasharray:none"/><path d="m233 1325 19.5 7.511.08.5 15 29 21 10.5 94 17 74.5 8.5 54.513.059.516.074.524.022.61 8.47 91.99 4.92 41.39 13.1 77.534.022.5 8.5 19.5 1 24-.5 12-5 16.5-12.5 16.5-14.5 14-23.5 17.5-13 28-4.5 27-1.5 22-4.5 47.5-12.020.5-15 14-23.5 3-33.5 2.5-15.5 13.18-12.86 17.32-6.64 31-8 15-10.5 37-29.5 18-11.5 13.5-2.541.014.5 13-1 29-10.5 24-35.5 22.5-24 21-25 10-15.5 5-18V1141l-6-12.5-12-18.5-10-3.5-20-5-27-5-19.5-11.5-13.5-15.5-21.5-38.5-13.5-16-20.5-25-9-18.5-7-23.5-1-16.5-2.5-32-8.5-19.5-10.5-12.5-19-23-12.5-24-14-36.5-6.5-14.5-11-8-5-9-3.5-15.5 1-17 10.5-17.5 13-24 28.5-61.09.5-19.5 2.5-12 1-22.5 7.5-22.5 7-14.5" style="fill:none;stroke:#00963f;stroke-width:5;stroke-linecap:butt;stroke-linejoin:round;stroke-miterlimit:4;stroke-opacity:1;stroke-dasharray:none"/><text x="-60.55" y="-1368.04" xml:space="preserve" style="font-size:144px;font-style:normal;font-weight:400;line-height:125%;letter-spacing:0;word-spacing:0;fill:#000;fill-opacity:1;stroke:none;font-family:Sans;-inkscape-font-specification:Sans"><tspan x="-60.55" y="-1368.04">1940</tspan></text><path d="m1021.66 1425 .67 12.35 6.43 13.9 10.75 13.75 8.5 4.5 19.5-7.5 6.260.3749.24 90.13 13 19 15.5 9 37 5 24.5-1.5 24-13 152-79 76-31 3.69 2.47 3.42 10.96-0.454.68-13.6 6-3.17-.61-5.57-13.92-2.91-2.03" style="fill:none;stroke:#9d6830;stroke-width:1px;stroke-linecap:butt;stroke-linejoin:round;stroke-opacity:1"/><text x="-35.65" y="7347.95" xml:space="preserve" style="font-style:normal;font-weight:400;font-size:144px;line-height:125%;font-family:Sans;-inkscape-font-specification:Sans;letter-spacing:0;word-spacing:0;fill:#000;fill-opacity:1;stroke:none"/></svg>