<svg xmlns="http://www.w3.org/2000/svg" width="10300" height="9950"><path d="M3584.468 1909.053l102.946 99.685 24.688 53.103 12.577 62.885-6.521 20.496-11.18 36.8-35.868 63.351-45.65 73.134-6.521 34.936-6.522 52.637-82.45 251.076-46.115 120.181-13.975 26.086-30.278 46.116-88.971 70.804-163.848 105.42-81.271 55.17-72.373 21.948-14.83 11.272-11.272 10.084-5.932 12.458-1.187 20.17 5.34 151.864 35 66.44 14.237 10.085 28.474 24.322 52.797 66.441 30.254 128.729-11.271 114.491 2.966 18.983 12.458 20.17 33.22 27.881 16.61 26.102 21.356 45.678 15.424 59.322.872 17.858-30.398 50.203-31.01 47.66-40.594 61.564-61.413 46.952-50.423 57.543v11.864l-2.966 83.051-8.374 33.51-21.428 58.228-32.141 63.817-40.526 71.27-21.894 34.005-23.756 21.428-6.987 12.11-18.633 37.732-11.646 29.812-14.44 22.825-.932 17.236 1.864 9.782M2698.87 4938.927l26.008 39.01 6.711 25.169 2.517 36.913.42 52.854 10.906 36.494 10.487 20.553 16.778 18.877 148.912 139.683 87.25 74.246 109.901 71.31 132.553 54.531 67.115 48.24 19.296 7.97 165.271 26.007 28.524 8.389 14.262 13.842 316.28 367.876 19.715 15.94 85.992 42.366 195.892 148.073 15.94 23.49 70.052 127.52 132.552 169.465 88.509 182.89 18.876 25.168 78.021 62.92 137.167 143.878 113.676 126.68 13.004 25.588 4.614 26.427-1.678 25.168-5.453 19.715-41.527 217.705-65.018 385.912-64.599 231.548-14.681 194.634-85.992 270.139-33.977 81.796-9.228 39.85-98.156 311.666-19.296 36.914-76.763 120.388-15.52 38.59-2.936 34.398-4.195 30.201-5.873 18.877-141.78 178.274-16.36 10.487-122.905 44.883-23.49 17.199-20.134 22.651-63.34 97.317-116.613 136.328-24.749 16.36-55.79 24.748-15.52 15.94-12.164 15.52-4.195 19.715-4.195 22.232v13.843l-11.326 37.752" fill="none" stroke="#004ea2" stroke-width="5" stroke-linejoin="round"/><text style="line-height:125%;-inkscape-font-specification:Sans" y="206.96094" x="89.453125" font-weight="400" font-size="143.99993896px" font-family="Sans" letter-spacing="0" word-spacing="0"><tspan y="206.96094" x="89.453125">1970</tspan></text><text style="line-height:125%;-inkscape-font-specification:Sans" y="9847.9609" x="89.453125" font-weight="400" font-size="143.99993896px" font-family="Sans" letter-spacing="0" word-spacing="0"/><path d="M7393.5 686.5L7311 688l-46 4-16.5-2h-11l-18 9-11 10.5L7183 759l-21.5 33.5-69 61.5-10 11.5-8.5 19-5 23.5-11.5 105.5v31l-6 19.5-11.5 38.5-11 42-16.5 26.5-34.5 41-10 22-12 57.5-7.5 16.5-7.5 14.5-19 17.5-16 9.5-45.5 16.5-17.5 15-27.5 26-52.5 43.5-5 11-15 35.5-29.5 36-10.5 19-9.5 57 2 20 8 23 9.5 13.5 17 14 56 28 16 14.5 8.5 7.5 10.5 17.5 3.5 28.5 6.5 28.5 30 57 8.5 27.5v26.5l-8.5 81 3 26.5 15 36 19 29.5 78.5 166 9 53v12.5l-2 5.5-25.5 47-73.5 53" fill="none" stroke="#f0f" stroke-width="5" stroke-linejoin="round"/><path d="M7248.5 690l-60-12.104-27.482 2.33-114.592 16.769-17.7-1.864-43.787-12.577-20.962-2.795-21.428 2.795-17.701 10.248-39.595 34.47-146.732 14.441-7.453-.932-17.701-12.11" fill="none" stroke="#f0f" stroke-width="5" stroke-linejoin="round"/><path d="M7393.5 686.5l55.393 2.11 74.997-21.894 57.295-9.316 40.06 9.782 15.373-1.863 28.88-9.782 89.437 12.111 16.304 6.987 23.757 17.701 10.248 4.193h11.645l90.369-19.099 27.949 7.453 11.645 17.701 3.26 4.193 45.651 13.043 31.676-6.988 37.73 8.385 64.75 10.248 90.834-33.539h30.278l121.579-54.966 213.81-133.69 37.731-4.658 17.236-6.522 22.359-12.11 27.949-49.378 10.714-31.21 15.372-36.333 5.124-9.316 8.85-3.727 30.744 6.987 64.749 27.018 13.043 12.111 121.578 31.21 70.339-12.112 25.62-21.893 122.044-82.45 11.645-17.7 40.527-7.454 83.381 1.398 29.347-2.33 24.222-4.192 26.086-13.509 108.07-120.18 28.88-30.745 25.62-36.333 15.838-26.552 28.415-92.698 35.306-80.624 33.17-94.523v-24.223l.465-39.594 6.987-19.099 20.496-17.7 6.988-27.95 34.004-38.197 14.906-27.017 12.112-8.851 8.85-13.975 6.522-4.192 10.248-12.577 29.812-12.577 6.521-6.056 12.112-2.795 16.383-.413 7.246-2.965 3.953-4.611 7.246-13.505 44.467-19.433 37.55-55.007 9.222-22.069 4.282-19.434.988-23.386" fill="none" stroke="#f0f" stroke-linejoin="round"/><path d="M4379.619 8942.436l11.18-6.987 11.645-2.33 65.68-1.863 20.962-4.192 14.44-6.987 90.835-90.369 14.44-9.316 74.065-81.053 78.258-17.235 17.235.932 17.701 6.521 53.103-14.44h13.975l76.394-9.782 11.18 2.795 45.184-9.782 59.625-10.249 50.308-45.65 157.912-40.992 26.086-2.795 202.165 10.714 20.962-5.124 61.954-41.457 3.26-8.385 1.398-17.701-11.646-88.971 3.261-132.293 10.714-47.513.931-80.12 4.659-16.304 149.993-245.486 6.521-17.236 4.659-63.817 42.39-108.07 78.722-141.142 11.18-8.385 19.098-5.124 30.744 4.192 46.116-18.167" fill="none" stroke="#004ea2" stroke-width="5" stroke-linejoin="round"/><path d="M7969.75 711.797l5.929-2.965 13.175-40.185 15.481-12.187 10.87-17.128 6.587-15.151 3.623-18.775-8.893-36.232-12.846-31.292-6.917-15.151 4.94-7.905 1.318-46.443 9.552-45.785-4.61-22.068-4.612-31.621 7.576-19.763 2.964-20.422-3.294-11.199-.988-5.929 4.94-5.929 7.247-4.611 24.045-7.905 30.303.659 4.282-.989 19.434-16.14 75.429-87.286 2.635-17.457 4.611-2.306 71.147 11.529 164.691-6.588 76.747 14.163 9.881 7.906 12.187 10.87 32.61 24.374 64.229 52.7 4.611 6.26 26.68 62.582 58.63 21.41 7.905-1.318 5.932-4.461" fill="none" stroke="#f0f" stroke-linejoin="round"/></svg>