<svg xmlns="http://www.w3.org/2000/svg" height="3950" width="3500"><path d="M1828 1624.5l-5.5 14.5-3.5 2.5-10-3.5h-3.5l-5 8.5-12 4.5-8 2.5-34 9.5-38.5 8-42.5 10h-6.5l-41.5 9.5h-5l-18.5-5.5h-45l-24.5-5-23-6.5-50.5-1.5-5-.5-6 6 7 62 3 6.5-24.5 11.5" fill="none" stroke="#de1425" stroke-width="1px" stroke-linejoin="round"/><path d="M1425.5 1757.5l5.5 13 9.5.5 13 31-3 8.5-5.5 6.5-8.5 2-118 21.5-16 6-191 37" fill="none" stroke="#de1425" stroke-width="5" stroke-linejoin="round"/><path d="M1113 1883l-8.5 4.5-12 30-10.5 18.5-15.5 15.5-18.5 12.5-30.5 14.5L975 1996l-16.5 7.5-79 46" fill="none" stroke="#de1425" stroke-width="1px" stroke-linejoin="round"/><path d="M880.5 2049.5l-113.5 67-17 1.5h-9.5l-11 9-4.5 9.5 1.5 13 2.5 10 4.5 5 19 6.5 24.5 36.5 15 17 18 41.5 16 24 2.5 10.5-2 8.5-14.5 14.5-46.828 30.621" fill="none" stroke="#de1425" stroke-width="5" stroke-linejoin="round"/><path d="M768 2352l-39 21.5-31.5 24-7.5 13-36.5 35-55 21.5-5.5 6-4 5.5-2.5 16.5 2.5 7.5 57.5 70.5 7.5 14.5 5 11.5 7.5 4h9l12.5-4M599.682 2466.136l-113.844 43.487-191.98 71.772-6.717 3.535-10.96 10.96-27.577 36.063-5.657 11.667-2.829 3.89-7.778 1.767-43.487 2.475-13.081 2.121-22.981-.707-1.415-.707-6.01-6.718-6.364-.353-10.607 1.06-21.92-1.767-6.01-1.768" fill="none" stroke="#de1425" stroke-width="1px" stroke-linejoin="round"/><path d="M1736.003 1919.896l-3.182-2.121-2.121-9.9-3.536-2.828h-12.02l-3.89-3.182-1.768-7.07-4.95-18.74.354-31.465 4.243-9.546 16.263-34.295 2.25-3.084 2.206-1.003 13.842 6.219 2.207-.602 8.827-49.952-1.204-3.61-11.234-3.21-1.404-1.806.602-11.435-2.006-4.213-.803-4.212 2.608-3.01 2.006-4.814 8.225-5.015 8.827-3.611 1.204-2.608-3.41-33.903-3.01-19.058-16.25-60.784-2.005-1.204-19.46 13.04-14.243 12.437-8.827 6.62-4.212 2.408-3.41-.602-31.496-29.29-29.089-20.862-3.41-1.405-10.231 3.611" fill="none" stroke="#27a151" stroke-width="1px" stroke-linejoin="round"/><path d="M1736.003 1919.896l6.01 4.597 6.01 16.617 7.779 12.727 7.778 20.507 3.535 14.142 28.285 170.412 14.142 91.217 10.96 143.896 2.828 31.467 5.657 23.688 11.314 31.112 15.203 24.396 24.041 31.466 69.297 87.681 18.385 15.556 27.93 13.789 37.83 11.667 36.063 4.596 35.002 8.486 98.641 53.74 48.083 26.516 3.182 6.364v26.87l-6.717 14.496 1.414 5.303 5.303 4.95 22.981 8.839 1.415 4.596-2.829 9.546-34.648 37.477-4.95 10.96-9.9 8.839-18.384 7.424-9.192 10.96-11.314 21.214-1.768 10.606" fill="none" stroke="#27a151" stroke-width="5" stroke-linejoin="round"/><path d="M2185.723 2944.848L2183.6 2965l3.182 8.485 5.657 8.486 12.375 8.485 36.062 20.506 14.496 11.667 22.98 12.375 13.436 9.546 19.092 8.839 34.648 14.495 63.993 22.628" fill="none" stroke="#27a151" stroke-width="1px" stroke-linejoin="round"/><path d="M2409.522 3090.158l28.284 11.667 10.96 1.415 8.84-2.829 6.717-3.889 12.374-8.839 11.667-2.828 10.96 1.06 14.496 8.486 28.638 13.081 71.418 25.456 31.113 2.475 11.313 1.768 12.728 8.131 9.9 9.9 72.478 45.608 6.01 6.718 1.768 6.364 5.304 15.91 30.052 31.82 8.131 15.202 8.486 28.638" fill="none" stroke="#27a151" stroke-width="5" stroke-linejoin="round"/><text style="line-height:125%;-inkscape-font-specification:Sans" y="206.96094" x="89.453125" font-weight="400" font-size="144px" font-family="Sans" letter-spacing="0" word-spacing="0"><tspan y="206.96094" x="89.453125">2020</tspan></text><path d="M1819.75 1641.5l6.75.5 7.25 4.25 185.5 21" fill="none" stroke="#de1425" stroke-width="1px" stroke-linejoin="round"/><path d="M3199.5 3883.5L3179 3833l-7.5-28-6.5-31.5-11-21-15.5-24.5-12-24-78.5-312-4-25.5V3281l4-25.5 27-65 3-46 5.5-87.5 7.5-39.5 27.5-47 17.5-40.5 10-11 58.5-32.5 14-10 12.5-12.5 4.5-24-5.5-13.5-13.5-19-14-11L3017 2710l-42-21.5-13.5-10.5-9.5-15.5-3-21.5-.5-32 6-21 1.5-14-6.5-17.5-17.5-26-32-35.5-31-19.5-21-7.5-25-2.5-51.5 8-31.5 6-16.5-.5-19.5-3.5-23.5-8.5-59.5-35.5-43.5-23.5-57.5-21.5-45-24-137-97.5-81.5-89-74-81.5-75.5-95-80-104-55-66.5-25.5-23-55.5-40-29.5-14.5-38.5-16.5-12.5-13.5-25.5-37.5-2-21 5.5-16 11-14.5 26-21.5 32-19 100-83 116.5-102.5 90.5-76.5 25-14 62-32.5 56-44 40-31.5 29.5-15.5 71.5-23 66-18.5 38-16 46-27.5 34.5-33 59-72 34-10.5 35.5 2 39.5 3.5 88.5 6 157.5-9 30 2 204.5 9 64.5 9 97 27M2692 1002.5l21.038-29.138 16.048-31.897 8.827-22.669 6.62-34.705 7.423-48.949 2.407-34.504-.802-25.678-37.113-292.087-38.517-304.725-.802-14.043 1.203-21.666 5.015-55.167" fill="none" stroke="#232986" stroke-width="5" stroke-linejoin="round"/><path d="M1717.415 1602.873l3.41 1.204 22.669 85.46.2 22.869-.4 3.61" fill="none" stroke="#27a151" stroke-linejoin="round"/><path d="M1612.496 1575.791l-12.237 5.015h-3.41l-2.809-1.605-18.657-37.714v-12.037l-.602-18.054-40.522-88.67-26.28-51.155-13.842-19.459-25.277-23.873-11.435-6.82-75.83-24.876" fill="none" stroke="#27a151" stroke-width="5" stroke-linejoin="round"/></svg>