<svg xmlns="http://www.w3.org/2000/svg" width="12250" height="14800"><path d="M3847.191 6559.643l13.435.354 13.612 15.821.53 6.983-1.36 3.428-3.995.594-17.631-20.697-15.412-21.09-33.662-38.123-10.544-15.411-58.808-66.108-27.173-65.296-23.928-40.962-6.49-23.523-30.417-82.33-1.216-30.417-6.848-18.907-2.632-18.955-1.796-35.92-25.543-64.655 2.794-13.57.798-16.562-46.845-82.444-14.935-24.478-2.51-1.098" fill="none" stroke="#006bb4" stroke-width="1px" stroke-linejoin="round"/><path d="M5397.802 2194.118l-47.84-7.501-9.608.574-12.475 2.007-28.104-1.147-35.56-18.067-26.098-10.611-22.942-3.441-17.207-.574-12.618 1.434-18.067-.286-27.817 5.162-16.347-4.876-12.618.287-12.905-11.471h-6.31l-12.044 2.581-36.134-14.052-39.002-.861-38.429-8.316-4.301-2.008-6.346.04-7.993 3.689-61.944 16.06-11.185-1.434-55.635-1.147-11.184-3.441-2.581-1.721-5.45-5.162-120.446-130.484-27.531-24.377-3.728-7.169-59.937-50.186-10.037-4.876-12.332-5.162-14.625-20.074-12.332-10.611-24.376-14.052-12.905-2.295" fill="none" stroke="#e3000b" stroke-width="1px" stroke-linejoin="round"/><path d="M5126.595 9944.755l-27.013 20.32-29.746 29.839-16.44 77.562 2.736 6.557 9.5 10.474 12.072 20.953-.382 8.209-.908 4.369-3.242 7.738-17.077 2.059-76.511 5.248-26.793 1.105-10.772-2.072-10.634 4.42-10.082 9.944-11.187 2.485-9.53-.69-21.13-8.563-19.058-4.695-38.256-33.836-24.168-13.535-2.763-5.248 2.072-4.834 15.744-19.611 4.143-9.944-1.38-10.219-3.591-8.839-9.116-7.734-43.365-27.898" fill="none" stroke="#9c8dce" stroke-width="5" stroke-linejoin="round"/><path d="M4759.718 9998.319l-17.402-12.153-17.954-14.64-33.421-19.334-.487-3.679 20.176-30.309 2.05-3.202 13.218-20.638-2.906-4.122-49.177-8.209-4.143-3.591-6.353-18.506-33.698-57.728-18.782-24.583-10.773-20.164 1.381-9.668-2.485-3.867-23.202-3.038-27.346-6.353-3.314-4.143-6.353-90.046" fill="none" stroke="#9c8dce" stroke-width="1px" stroke-linejoin="round"/><path d="M4226.882 9708.69l81.525 44.231 10.75 2.551" fill="none" stroke="#f24dae" stroke-width="1px" stroke-linejoin="round"/><path d="M4316.8 9754.481l11.502 7.057 101.617 77.958 62.977 47.785 29.278 16.849 72.92 37.565 73.473 76.788 83.97 56.071 43.641 22.097 23.202 13.811 38.117 33.422 20.164 5.524 21.269 8.563 11.6.828 13.259-3.314 10.772-10.22 7.734-3.315 9.944 1.934 18.782-.276 6.154 5.015.1 27.9-5.425 31.718-3.59 8.563-2.056 3.315-.983 12.153 4.42 16.573 1.104 21.268 3.59 24.307 1.658 5.524 3.867 2.763 8.01-.277 25.688 16.573 10.22 5.524 9.667 1.381 15.192-2.762 16.02-6.629 133.563-29.194 16.145-8.339 8.997-7.812 4.82-6.077" fill="none" stroke="#f24dae" stroke-width="5" stroke-linejoin="round"/><path d="M5226.432 10266.345l7.25-7.799 2.78-5.005 4.42-17.126 2.762-50.823 2.762-9.115 38.118-74.025 6.076-7.182 14.916-3.867 26.793-11.601 35.2-28.052 22.274-22.461 13.789-20.474 12.982-25.135 13.81-15.468 12.983-12.43 19.058-48.89 5.248-19.334 15.192-37.842 26.793-49.718 8.839-37.841 6.352-12.706 10.22-14.64 24.86-29.002 6.629-14.639 30.66-55.519v-11.049l.828-4.972 31.765-25.411 36.46-42.537 1.38-4.972" fill="none" stroke="#f24dae" stroke-width="1px" stroke-linejoin="round"/><path d="M5667.632 9546.71l1.657-3.591 26.793-31.764 18.23-22.374 4.696-10.22 3.038-10.219 2.486-22.374 4.143-11.877 3.867-6.629 11.325-17.678 3.315-8.562 8.838-33.422 2.21-6.353 5.524-6.905 17.126-15.192 19.887-16.021 10.772-14.639 3.867-7.458" fill="none" stroke="#f24dae" stroke-width="5" stroke-linejoin="round"/><path d="M5815.406 9301.432l6.897-18.624 6.422-19.603 7.097-13.181 30.418-29.742 4.394-8.787.676-41.91 11.83-211.911" fill="none" stroke="#f24dae" stroke-width="1px" stroke-linejoin="round"/><path d="M4226.345 9709.498l81.532 44.307 7.987 6.246" fill="none" stroke="#f580c5" stroke-width="1px" stroke-linejoin="round"/><path d="M4313.988 9758.418l11.44 7.182 100.99 77.396 63.478 48.285 31.028 17.349 71.42 36.815 73.223 76.538 85.72 57.321 41.891 21.347 22.952 13.561 39.367 34.422 22.164 5.524 21.269 8.813 13.85.328 14.009-3.814 11.772-11.22 4.984-1.565 9.194 1.934 16.282-.276 3.3 2.119.08 25.171-5.3 32.093-4.341 8.563-1.513 4.065-.526 13.653 4.42 16.573.855 22.268 4.09 24.807 1.657 5.524 7.617 4.263 7.01-.777 25.439 17.073 11.47 5.524 10.917 1.631 16.692-4.012 15.77-6.379 133.562-28.819 17.02-9.464 9.497-7.437 5.32-6.827" fill="none" stroke="#f580c5" stroke-width="5" stroke-linejoin="round"/><path d="M5230.682 10269.345l3.796-10.269 2.957-5.181 4.33-17.215 2.763-50.734 2.85-9.204 37.941-73.671 5.9-7.006 14.916-3.867 27.058-11.777 35.023-27.964 22.097-22.373 11.314-11.37 6.873-.46 23.25 4.496h4.5l6-1.5 5-2.75 7.25-7.5 6.5-4.25 129.5-48.5" fill="none" stroke="#f580c5" stroke-width="1px" stroke-linejoin="round"/><path d="M5590.5 9958.25l17.5-6.25 28-16.75 34.875-21 86-75.625 7.625-12.875 14.125-30.375 4.625-8.875 51.875-38" fill="none" stroke="#f580c5" stroke-width="5" stroke-linejoin="round"/><path d="M5833.625 9749.25l9.456-6.245L5950 9724.5l150.5-59 22.5-10.5 13.5-3.5 36-18.5 16.5-25 10.265-5.528 79.735-19.323" fill="none" stroke="#f580c5" stroke-width="1px" stroke-linejoin="round"/><path d="M5830.747 9745.082l12.068-4.11 106.92-17.356 150.588-59.265 22.5-10.235 13.5-3.588 35.381-18.323 16.677-24.912L6199 9601.5l80-19.5" fill="none" stroke="#4dbd38" stroke-width="1px" stroke-linejoin="round"/><path d="M4963.511 9571.381L5002.25 9721l17.25 139 22.5 72.75 21.623 30.609.936 9.887-1.655 5.771-1.992 12.043-15.556 72.125-1.768 10.607 4.596 9.899 11.314 13.789 5.657 8.839 2.828 5.657v4.596l-2.121 7.778-2.475 5.834-9.723 7.778-25.809 1.591-41.543 2.475-4.596 6.01.436 28.473-5.562 33.222-2.829 6.894-3.005 5.303-.884 9.723 4.502 16.135.625 20.988 3.712 24.484-2.953 5.247-7.3 5.094-28.196 6.011-13.612 2.828-13.435 7.513" fill="none" stroke="#05a1e6" stroke-width="5" stroke-linejoin="round"/><path d="M5832.25 9744.375l-52.125 38.375-5.625 10L5760 9824l-7 11.25-85 75-13.973 8.444-12.402 7.056-24.875-1.625-14.125-6-35.424-19.342-56.215-61.872-153.442-72.125-4.597-6.01-5.303-3.536-5.303-.353-3.89 3.535-4.596 15.91-4.95 5.303-63.992 43.841-56.923 63.993-18.738 12.728-79.903 45.608-18.031 14.143-20.29 20.952-8.943 8.75-4.5 5.043-8.181 5.827-1.41 1.44-16.143-.99-54.414 28.53-73.957 49.531-25.503 36.944-12.75 98.738 1.412 24.502 15.356 56.092" fill="none" stroke="#4dbd38" stroke-width="5" stroke-linejoin="round"/><path d="M4958.739 9572.619l38.738 149 17.25 139.265 22.942 74.783 21.078 29.365.972 7.756-3.067 15.543-3.182 15.202-2.912 2.765-17.558-.548-53 28-73.25 49-24 35-12.75 97.5 1.5 23 15.18 55.826" fill="none" stroke="#80cc28" stroke-width="5" stroke-linejoin="round"/><path d="M4915.647 10324.305l12.924-7.274 13.331-2.651 29.306-6.804 7.887-6.1 4.742-7.42-4.338-25.655-.375-21.863-4.377-15.635.26-8.348 3.254-4.428 3.079-7.144 5.937-34.472-.81-27.473 2.345-3.01 41.543-2.1 25.56-1.591 11.972-10.153 3.1-7.334 1.621-7.903.125-6.221-4.078-7.657-5.907-9.339-10.939-12.914-3.346-7.649 1.518-8.357 15.306-71.5 30.28-31.362 17.282-12.768 16.71-10.713 81.771-46.961 57.92-66.006 62-42.5 7.25-6.25 3.75-15.75 4.5-1.625 7.875 9.25 153.25 71.875 54.75 60.875 37.25 20.25 14.75 7 39.75 1.625 19.875-12.125 31.375-27.75" fill="none" stroke="#33baab" stroke-width="5" stroke-linejoin="round"/><path d="M5082.479 9470.276l24.395 17.678 30.76 20.506 7.424 8.132 4.243 30.405 8.838 67.882" fill="none" stroke="#bfd730" stroke-width="5" stroke-linejoin="round"/><path d="M5157.432 9610.283l.707 19.092-3.182 136.825-1.767 21.567-6.718 55.154" fill="none" stroke="#bfd730" stroke-width="1px" stroke-linejoin="round"/><path d="M4884.375 9358.25l-2.91-.682-21.758 6.939-8.745-3.345-12.01-10.119-13.148-9.63-16.348-6.304-50.55-10.387-27.94-.111-34.526-6.009-65.97-16.272-4.666-5.3" fill="none" stroke="#05a1e6" stroke-width="1px" stroke-linejoin="round"/><path d="M4474.5 8925.5l-2.615 7.305-.385 8.445 1.5 10.75 9.75 12.25 33.5 33.5 5 9.5 26 29.25 9.75 23.25 8.75 11.25 11 9.75 8 7.75 11.25 20.25 4.75 20 16.25 52.75v10.75l-2 10.5-3.25 12-4.75 12.75-1 6.75-.75 8.25 1.75 6.5 18.25 42 .75 7.25" fill="none" stroke="#05a1e6" stroke-width="5" stroke-linejoin="round"/><path d="M4885.884 10292.132l.284 6.608 6.806 24.307 38.272 38.891 8.044 6.011 12.44 9.232 107.486 69.868 3.846 1.139 37.813-11 3.187 2.687 10.688 38.688 1.687 8.875 2.875 31.125 22.25 46.375 6.175 14.165 18.562 59.75 4.773 22.981 7.778 33.234 32.704 80.964 4.95 16.971.53 4.596" fill="none" stroke="#80cc28" stroke-width="1px" stroke-linejoin="round"/><path d="M4881.66 10294.233l3.625 5.037 6.805 24.13 38.361 38.98 20.683 15.468 107.491 70.027 4.625 1.375 44.625-13 17.625-10.125" fill="none" stroke="#4dbd38" stroke-width="1px" stroke-linejoin="round"/><path d="M5051.013 10231.916l12.829-4.45 13.437-1.207 16.66-6.364 75.557-6.614 8.114-5.535 4.243-8.632.267-17.153 2.475-8.321 5.803-6.699 4.915-1.872 7.131-2.535 53.63 6.364 13.788 11.313 25.456 22.981 26.517 14.496 8.838-.707 147.079-22.274 62.579-17.324 24.748-7.071 8.84 3.182 6.01 5.303 10.96 32.527-.707 12.374-1.061 9.546.707 10.961 6.718 12.727 9.192 3.89 33.941 7.071 37.477 4.242 32.527 14.496 8.485 2.121 59.75 3.182 10.254 4.243 40.658 26.163 13.789 1.768 38.183 2.474 98.642 32.174 74.6 29.345 25.102 15.203 123.39 48.083 19.8 5.657 18.737 3.535 17.324-4.95 73.54 6.011 20.506 3.535 15.91-.353 16.617 3.535" fill="none" stroke="#f5777b" stroke-width="5" stroke-linejoin="round"/><path d="M5105.79 9941.682l-19.868 17.162-35.393 34.683-3.672 3.181-15.131-.984-56.414 29.155-75.207 50.406-26.753 38.944-12.75 98.488.912 26.752 15.606 56.842" fill="none" stroke="#bfd730" stroke-width="5" stroke-linejoin="round"/><path d="M5049.375 10227.125l12.375-4.125 12.5-.25 16.25-7 76.25-6.75 7-4 4-7.25-.5-16 3-9.25 7.5-10 12.75-4.5 56.625 6.75 41.25 34.5 24.375 13.375 12.167-.938 142.083-21.812 87.5-24.375 25.25-5 38.5-21.5 16-3.25 30.75.25 31.5-4.5 44.5 2 30 5.75 18.75-1.75 36-8 23.25-7 62.75-26.5 46.25-23.75 16.75-4.75 34.75-7 69.75-3 63.25-14.25 61-18.75 18.5-7 84.5-21.5 20.5-4 32.5 4.5 23.5-2.5 100.5-22.5 26-11 26.5-10 17.5-4 42 1 13.5-1 18-8 61-31 18-12.5 76-74.5 17.5-3 11-6.5 16-20 11-6 11.5-1 11 4 7.5 8.5 18 26 11 8 11.5 4h13l6.5-3 10.5-8 13-18 8.5-10.5 8.5-3.5 15.5-3 7.5 4.5 8 5.5" fill="none" stroke="#ed1c24" stroke-width="5" stroke-linejoin="round"/><path d="M4189.69 10194.886L4296 10198l12-3.5 382 17h82.5l5.75 4.25 6 8.5 5.25 3.5 72.25 2.75 13-2 10.25-6.5h5.75l15 1.5 29.25-1.25 26.125 3 6.22 3.747 7.402 1.906 23.503.347 16.75 4.75 13.575-.458 16.925-4.087 6.75-5.705" fill="none" stroke="#ed1c24" stroke-width="1px" stroke-linejoin="round"/><path d="M4772.5 10211.5l79.5 3 23.25 3.25 15.5 4.25" fill="none" stroke="#ed1c24" stroke-width="1px" stroke-linejoin="round"/><path d="M4876.25 10294.875l7.75 4.375 7.442 25 8.933 9.125v2.479l-10.464 11.728-14.057.265-197.604 301.278" fill="none" stroke="#bfd730" stroke-width="1px" stroke-linejoin="round"/><path d="M5053.4 10231.83l-7.956.53-16.717 4.166-13.865.519-16.617-4.862-23.688-.264-7.425-1.945-6.452-3.889-25.456-2.828-7.425.355-2.917 3.447 2.118 31.191v3.25l-2 3.25-10.25 1.5-86.25 80.5-21.75 12.5L4778 10389l-12 7.75-19.25 9.5L4677 10445l-32.25 13.25-44.75 11.5-40 42" fill="none" stroke="#f5777b" stroke-width="1px" stroke-linejoin="round"/><path d="M5817.578 9748.971l-41.519 30.42-6.685 12.829-13.617 29.305-6.116 10.189-84.116 73.94-13.973 8.797-10.988 6.349-22.577-1.625-14.478-5.823-32.773-18.105-56.922-62.402-153.77-72.184-8.919 1.214-6.625-1.875-4.5-5.375-.375-5 .875-16.375-3.25-11.75-6.75-9.5-13-7-106.5-16.25h-94.25l-40.25-10.25-37.25-2.5-30-10.25-11.5-.75-61 10.75-11.25 7-8 7.25-4.75 9-6.5 18.25-6.25 5.25-10.5 3.25-16.25 2-9.75 7.25-9.25 9.5-36 38.75-10.25 16-12.5 25.25-13.5 16.75-14.5 14-26.5 18-8.75 8.25-6.619 7.543-15.797 24.766" fill="none" stroke="#9e7b65" stroke-width="5" stroke-linejoin="round"/><path d="M4710.276 9912.483l-.177 4.773-23.688 35.797-12.036 17.947-14.5 24.75-14.625 22.25-11.125 14.625-8.875 17.375-6.25 11.5-3.5 17.25 1 41.5-2.5 12.25-5.75 12.75-12.5 22.75-16 21.25-4 9.25-6.5 44-.75 39 4.75 45.5 5 19 16.5 33.25 26 46 18 33.5 6.5 15.5 10.75 36.25 9.75 12.25 51.5 55.5" fill="none" stroke="#9e7b65" stroke-width="1px" stroke-linejoin="round"/><path d="M4914.465 10318.953l-4.737 6.58-3.728 5.967-16 17h-13.5l-223 340" fill="none" stroke="#05a1e6" stroke-width="1px" stroke-linejoin="round"/><path d="M4917 10323.625l-6 1.875-4.875 7.813-.688 5.312 24.563 24.813 8.351 5.991 12.374 9.351 107.275 69.908 5 1.75 45.375-13.438 24.375-13.625 4.563.375 3.937 2.25 20.779 66.753 12.848 33.384 14.935 36.738 2.313 9.938 42.188 80 43.874 69.75 26.126 33.438 4.97 6.601" fill="none" stroke="#33baab" stroke-width="1px" stroke-linejoin="round"/><path d="M5307.78 10759.774l54.899 154.93L5487.5 11247.5l8.5 22-.5 18-2.5 15.5-41.5 97.5-12 16-15 12-121 75-22.5 16-15.5 18.5-12 19-14 37-57 145.5-8.5 35.5-.5 27.5 3.5 37.5 10 32 14.5 25.5 13 17 14.5 11.5 80 57.5 96 73 20 21.5 28 38.5 100.5 113 59 90 41.5 80.5 54.5 83 26 54 17 24.5 19.5 25 45.5 71.5 32 68.5 36.5 51 9.5 23.5 6 21.5-.5 13 2.5 231.5 2 27.5 5 14 6 16.5 9.5 12.5 14.5 10.5 22.5 14.5 130 44 35.583.305 22.45 5.48 14.673 6.541 43.446 20.931 15.823 8.354 85 30.646 71.575 33.407 33.432 20.859 12.273-.25 13.104-5.487 15.103-15.384 8-7.616 4.83.103 5.496 4.439 23.927 59.695 34.426 75.146 30.043 59.013 55.073 68.72 44.643 61.447 55.46 88.656 33.769 43.72" fill="none" stroke="#33baab" stroke-width="5" stroke-linejoin="round"/><path d="M5907.275 13032.5l.176 34.259 1.772 25.507 9.909 29.284 9.159 12.586 14.049 10.327 19.29 11.939 132.302 45.738 34.004.423 27.578 5.479 25.455 13.612 45.609 22.451 84.853 30.582 71.064 32.881 33.255 20.682 10-.25 10.25-4.25 14.75-14.5 8-8.5 9.25-.25 8.5 5.5 23.75 57.75 34.25 75.5 30.75 60.25 55.25 69.25 44.466 61.094 55.284 88.656 33.768 43.741" fill="none" stroke="#56cbf5" stroke-width="5" stroke-linejoin="round"/><path d="M4653.5 10688.5l-36.75 39.25-37.5 55.25-109.25 162.25-7.5 11.75-6.75 14.25-5 13-2.5 13.25-7 64.75-1.5 34.75-11 75.75.75 23.75 12 42.25 27.75 63.5 17.25 54 3.25 25.75 4.25 25.25-3.5 29 4.25 18 14 25.5 3.25 15.5 8.5 66.5-3 20.5-20.25 59-4.5 18.25-.75 10.5 9.5 23.5 8 24.5 1 20.5-1 35-16.5 37.5-7 19-4.5 45.5-5 75.5 3.5 72.5 16 74.5 9.5 31 12 21 109 126.5 22 26 53 91.5 162.5 302.5 10.5 18 11.5 9 20.5 13 122 66.5 24.5 7.5 189 35 18.5 6 75 26.5 17 4.5 32.5 5 23 9 85 62 33.5 29 9 14 9.5 18.5 26 69 17.5 25 32 41.5 17.5 17.5 71.5 52.5 74.5 34 34 5.5 31.5-1 43.5-16 160-15 27-7 11.5-12 18.5-10.975 19.505-5.177 11.086 1.738 34.657 28.672L6205.5 13244l17.659 8.773L6306.5 13283l71.929 33.76" fill="none" stroke="#05a1e6" stroke-width="5" stroke-linejoin="round"/><path d="M6378.71 13251.754l-16.368 9.675-18.622 11.85-4.005 4.236 1.237 3.89 4.287 3.442 40.811 19.567 31.682 19.109 7.523-.25 9.104-4.737 12.353-12.384 10-10.116 12.08-.397 11.996 7.189 25.927 63.445 33.676 73.896 29.043 56.263 53.823 67.72 43.643 60.447 55.96 89.156 27.269 35.345 8.9.94 11.667-4.596 7.779-10.607 1.414-12.374-9.546-30.759-1.768-13.082 7.425-16.97 17.324-24.749 12.02-28.284 47.023-105.713 10.96-13.081 9.9-8.132 13.435-6.718 19.092-4.596 23.334-1.06 28.638 8.131 20.86 9.9 9.9 8.839 41.719 51.618 23.029 28.982 16.729 17.207 44.929 43.973 9.081 13.383 66.916 142.914 14.817 25.332 24.855 51.621 39.194 108.022 8.125 23.898.478 15.295-3.346 11.472-12.427 8.603-33.458 11.949-6.692 7.648-.478 7.647 5.975 12.428" fill="none" stroke="#ed028c" stroke-width="5" stroke-linejoin="round"/><path d="M6972.5 14116l13-28-.75-15.5-4.124-13.038L6951 14028.5l-18.5-33-95-95.5-27.25-41.5" fill="none" stroke="#33baab" stroke-width="5" stroke-linejoin="round"/><path d="M6977.25 14118l12.75-29.25-.25-17.25-4.624-14.538-29.876-30.962-18.5-33.25-95-95-27.625-42" fill="none" stroke="#56cbf5" stroke-width="5" stroke-linejoin="round"/><path d="M6748.875 13764l4.5 2.625 55.5 86.625 2.625 7.5" fill="none" stroke="#33baab" stroke-width="1px" stroke-linejoin="round"/><path d="M6753.125 13760.75l1.125 5.563 55.313 86.25 5.812 5.062" fill="none" stroke="#56cbf5" stroke-width="1px" stroke-linejoin="round"/><path d="M6671 13076.75l3.5-7 13.75-23.25 13.25-10.75 14.5-4.5 38.25-2.75 25.25-6.5 137.5-47.75 14-8 46.75-34.75 16.5-8.25 41.75-14.5 45.116-32.694 8.84-9.192 29.698-40.306 44.194-55.154 55.861-57.629 67.175-106.42 26.87-77.781 9.546-15.91 12.375-34.295 9.9-17.324 37.476-32.527 6.364-4.243 11.667-6.01 3.536-3.182 3.182-33.234M7541.481 14663.695l-10.276-34.652-10.277-38.477-15.056-44.929-37.52-94.878-9.56-16.49-15.773-21.508-17.924-20.075-82.689-105.154-9.081-12.427" fill="none" stroke="#ed028c" stroke-width="5" stroke-linejoin="round"/><path d="M7333.325 14275.105l-15.534-24.855-19.597-38.954-14.578-30.112-55.684-103.003" fill="none" stroke="#ed028c" stroke-width="1px" stroke-linejoin="round"/><path d="M7139.06 13673.124l-10.617-23.518-9.9-14.731-62.164-61.57-64.338-80.322-12.506-10.477-22.644-10.14-27.038-7.773-23.659 1.352-14.87-6.76-6.76-10.139-11.83-19.265-13.856-9.463-49.683-33.798-16.56-5.069-21.293-6.422-20.617-7.098-15.209-3.379-8.45-6.422-5.069-9.125-8.45-34.474-37.177-82.128" fill="none" stroke="#4cb848" stroke-width="5" stroke-linejoin="round"/><path d="M6676.37 13234.008l-.017-6.616-2.15-11.71-2.868-7.17-4.302-2.868-22.943 4.063-6.213-2.868-40.628 14.1-11.53-3.345-126.424 28.559-24.616-1.494-13.801 1.434-18.82-.837-8.066.837-10.276 4.6-12.906 16.729-2.748 22.823-1.541 14.831 1.9 4.646 10.754 5.258 33.733 20.779 1.434 1.163-.41 2.873-2.789.08-2.62-1.436-2.28 1.352-1.69 3.211.929 2.365 8.226 3.43 16.49 14.817 9.799 12.427v3.824l-15.296 10.515-6.93 2.151-1.434 3.824 20.075 30.829 10.515 18.641 5.975 13.383 1.673 9.56 3.584 21.508 2.151 2.868 18.163 2.39 2.868 2.151.956 3.585 1.912 26.288 6.691 21.27 4.063 27.961 3.346 46.841 10.754 54.25-4.062 16.251.478 6.453 22.703 39.432" fill="none" stroke="#4cb848" stroke-width="1px" stroke-linejoin="round"/><path d="M6378.71 13251.754l14.79-6.504 8.5-1 18.75 1 13.75-1.5 24.5 1.5 127-28.75 29.5-29.25 10-22 10.75-20.75 16.5-40.75 15.5-20 2.75-7" fill="none" stroke="#ed028c" stroke-width="1px" stroke-linejoin="round"/><path d="M5200.14 9898.323l67.154 108.977" fill="none" stroke="#f8b100" stroke-width="5" stroke-linejoin="round"/><path d="M3110.717 5696.875l177.1-1.352 9.463 2.366 9.801 8.787 3.042 8.45v11.491l-1.352 66.244 1.352 12.167 4.732 10.477 6.759 6.421 6.76 4.732 7.435 1.352 56.442.338 7.098 2.366 64.553 38.867 35.488 25.686 15.547 4.056h16.899l16.222-5.408 34.136-26.024 7.436-6.083 14.195-3.38 10.477 1.352 98.351 67.595" fill="none" stroke="#006bb4" stroke-width="5" stroke-linejoin="round"/><path d="M3309.785 5729.659l4.732-8.787 12.505-17.913 6.76-14.533 1.013-9.126-14.87-38.529-11.154-17.575-22.983-56.78-10.815-31.094-12.167-18.25" fill="none" stroke="#006bb4" stroke-width="5" stroke-linejoin="round"/><path d="M3712.653 5927.375l7.544 4.575 14.052 14.052 37.568 48.18 5.735 4.874 63.952 80.012 6.883 10.61 5.735 13.192 25.524 34.7 8.89 14.053 5.449 8.603 15.199 3.155 7.743 6.022 34.987 14.339 11.184 12.045 3.442 2.867 2.58-.286 6.023-6.883M3110.717 5696.875l-78.216 1.35-34.414 24.95h-7.456l-134.786-49.04-12.618-1.72-14.052 1.434-35.274 13.765-9.464.574-16.06-5.162-78.29 11.184-44.451 12.905-86.607 33.554-2.294 2.294-2.581 8.603v36.995l3.154 25.523-.573 19.214-4.302 24.09v26.957l-2.868 8.316-28.678 38.142-36.994 68.253-8.317 14.053-3.154 14.625-.574 5.736-5.162 22.942-8.03 22.656-22.655 37.854-14.34 12.332M3262.806 5517.072l-7.765-10.989-7.743-7.743-35.56-50.76-8.317-18.067-19.501-28.104-21.795-22.369-13.192-8.03-23.23-14.912-10.61-10.61-7.743-15.487-28.104-141.095-3.442-4.589-5.448-4.015-35.561-2.294-84.313 40.436-36.42 30.685" fill="none" stroke="#006bb4" stroke-width="1px" stroke-linejoin="round"/><path d="M3032.5 5698.225l-15.485-8.316-13.192-11.185-12.618-29.251-4.876-5.736-211.356-114.138" fill="none" stroke="#006bb4" stroke-width="1px" stroke-linejoin="round"/><path d="M1409.682 4233.086l14.563 12.03 10.897 14.34 10.898 18.927 10.61 25.236 47.606 94.35 84.313 172.928 185.26 379.982 5.735 8.03 9.75 7.17 171.78 118.726 91.483 45.885 26.097 16.06 23.23 8.603 15.485 3.154 174.362 12.905 7.743 2.581 13.192 6.883 7.743 8.603 22.368 29.825 14.913 13.192 27.53 7.743 22.943 6.883 102.093 59.65 55.349 33.553 155.434 139.375 40.149 42.443 17.207 9.177" fill="none" stroke="#006bb4" stroke-width="5" stroke-linejoin="round"/><path d="M1280.286 4133.74l29.81 99.364 3.65 2.434 46.234-22.51 4.259-.81 2.23 2.23 7.503 17.034 5.678 6.084 6.084 1.622 7.097.405 13.587-7.097 5.495 2.01M2931.555 5542.791l5.448 10.61-.286 4.876-16.92 20.648-10.038 18.928.86 5.162M3079.246 5188.906l-4.302-19.501" fill="none" stroke="#006bb4" stroke-width="1px" stroke-linejoin="round"/><path d="M3074.944 5169.405l-5.449-28.391-12.331-33.84-111.844-292.515" fill="none" stroke="#006bb4" stroke-width="5" stroke-linejoin="round"/><path d="M2945.32 4814.66l-4.588-15.2 1.72-75.423" fill="none" stroke="#006bb4" stroke-width="1px" stroke-linejoin="round"/><path d="M2942.452 4724.037l.86-68.54 2.582-12.045 4.301-14.625 1.434-10.038 8.604-14.339 24.95-39.862 5.448-12.905 16.633-52.48-.573-20.362-7.457-38.428 3.442-53.341 5.735-45.885 22.656-108.689" fill="none" stroke="#006bb4" stroke-width="4" stroke-linejoin="round"/><path d="M3031.067 4232.498l31.546-152.566 2.294-24.09-2.868-22.655-8.317-24.95-39.288-126.183" fill="none" stroke="#006bb4" stroke-width="1px" stroke-linejoin="round"/><path d="M3014.434 3882.054l-8.317-28.104-.86-28.678 4.588-25.523 6.023-18.928 9.177-30.972 6.595-17.207 8.604-19.5 36.994-68.827 8.89-18.928 32.693-82.879 6.31-23.516 4.875-15.2 14.052-23.802 3.728-14.339 7.743-57.069-1.147-175.795-11.758-34.414-.86-8.89.286-6.882 30.112-95.498" fill="none" stroke="#006bb4" stroke-width="5" stroke-linejoin="round"/><path d="M3172.162 3087.103l19.154-66.237 5.273-8.112 6.489-7.3 9.125-9.328 4.056-8.72 30.417-91.049v-4.664l-49.682-183.519-2.839-2.028" fill="none" stroke="#006bb4" stroke-width="1px" stroke-linejoin="round"/><path d="M3194.155 2706.146l-8.314-1.825-9.936-2.433-11.356 2.23-21.9 5.881-9.734 2.433-11.964.609-12.978-1.014-3.448-1.825-1.825-5.07 2.636-12.775 4.867-13.79 1.622-21.089-.202-8.314 1.216-7.909 8.517-14.6 15.209-10.342 16.628-8.922 10.14-10.748 9.53-6.895 9.734-2.433 10.95 1.419 63.066 19.062 29.809 9.734 20.48.608 20.076-2.433 15.818-11.356 9.53-10.545 6.287-11.964 1.622-19.467-.203-35.69 8.923-27.782 6.286-20.683 1.42-23.118-7.706-33.256-39.746-153.102-8.517-20.075-9.53-15.412-37.921-51.304-15.817-25.348-4.461-20.481 2.636-17.237 9.125-18.858 16.831-19.873 17.237-8.923 37.717-8.719" fill="none" stroke="#006bb4" stroke-width="5" stroke-linejoin="round"/><path d="M3097.682 2704.989l2.922-14.21 4.724-13.502 1.766-21.807-.203-7.74 1.933-9.199 8.517-14.744 17.79-12.493 16.341-8.349 7.702-9.313 11.825-8.472 11.884-2.72 11.954 1.419 64.07 19.492 28.518 9.303 19.621.752 18.355-2.29 13.953-10.352 9.388-9.828 5.425-11.247 1.05-17.747.083-35.69 9.066-28.641 6.86-21.544.416-19.39-7.706-34.69-39.315-151.811-8.66-20.362-9.245-14.695-37.777-50.587-16.247-26.782-4.605-21.771 2.923-19.101 9.7-19.863 17.69-20.159 19.245-10.213 37.86-8.72 17.615-2.077 11.614-6.596 6.74-.717" fill="none" stroke="#069edb" stroke-width="5" stroke-linejoin="round"/><path d="M3371.474 2048.533l1.72-.286 2.725-3.729 12.331-26.957 7.743-24.089 4.445-6.74 20.935-19.644.43-13.479 2.151-8.746 9.464-21.509 6.452-15.629 11.185-19.645 13.622-8.89 5.018-5.018 10.611-26.097v-8.03l-2.438-15.056-1.29-20.074-4.302-12.905-5.735-10.611-9.32-8.03-30.543-16.633-26.813-20.218-39.29-20.792-10.753-4.015-60.51-45.024-131.202-103.814-22.656-16.633-76.283-77-33.266-40.149-11.901-20.935-11.615-19.644-20.505-16.777-20.648-61.514v-6.166l8.317-23.372v-23.086l10.897-32.549 1.434-43.017-1.29-35.417 1.72-42.587-2.724-17.637-3.728-32.693-11.901-35.274-14.77-27.96-4.588-14.339" fill="none" stroke="#069edb" stroke-width="1px" stroke-linejoin="round"/><path d="M2944.603 976.123l-5.019-18.497-.86-9.463 1.577-16.49-3.441-16.347-4.588-9.32-58.217-87.898-6.452-15.486-4.015-19.931.86-18.354 10.181-73.415 2.007-5.592 13.622-18.211 15.945-22.063" fill="none" stroke="#069edb" stroke-width="5" stroke-linejoin="round"/><path d="M2906.203 645.056l9.936-13.586v-7.3l-11.254-27.985-5.475-9.328v-5.475l5.78-7.908 24.232-43.903-3.143-8.01M2855.102 3591.498l-4.259.405-3.041-2.636.202-3.447 18.25-18.859 16.426-21.09 2.84-15.816 3.446-33.662 4.462-11.356 10.342-13.79 5.88-15.614 22.915-58.199 5.88-7.3 62.052-49.885 45.626-36.095 3.245-5.881 35.082-100.783.405-9.125-.608-7.503-3.853-9.734-18.25-21.089-2.84-3.448-1.825-7.097 7.909-102.203 1.217-35.893 4.866-32.242-.81-16.223 4.258-30.823 1.825-8.314 1.622-30.62 2.433-9.937 10.95-68.135.406-50.087 4.867-24.131.66-28.128M3398.717 1457.052l-5.162 3.154-5.448 27.244-11.758 20.935-1.721 8.317-2.007 12.905-5.162 25.236-1.721 2.008-4.015-.574-10.037-7.456-31.26-12.905-46.17-5.162-14.626-.86-11.185-3.155-12.618-5.162-14.339-8.89-13.765-5.736-6.31-5.162-10.61-11.758-6.596-11.471h-4.875l-47.032 35.561-12.905 14.912-48.466 39.289-27.817 15.199-11.185 10.038-6.309 14.339-16.346 39.288-11.758 19.214-7.457 9.177-16.06 13.766-7.455 10.037-15.486 19.501L2931.84 1751l-20.648 27.818-16.346 36.421-11.758 18.64-3.728 9.751v10.611l8.316 18.927 1.721 12.332 2.294 9.463 2.008 16.92 9.463 22.369 1.721 12.618v12.905l-1.434 10.611-9.177 36.421 1.434 6.883 8.89 18.64 2.295 7.17-.86 7.743-4.016 6.883-11.47 12.331-2.582 7.169-1.72 7.744 3.154 18.067-5.162 33.553 1.72 15.486 2.868 13.192 3.442 40.722 2.294 3.728 11.471 3.155 1.434 3.154 1.147 5.163-5.162 19.5 5.45 10.611 1.146 18.067-3.441 6.31.287 2.867 38.715 14.339 1.434 2.581-8.03 6.309-2.581 6.023 1.72 8.03 6.31 7.456 33.84 38.428 2.294 6.883 4.588 11.758 26.384 53.341 6.022 9.463 7.743 4.302 41.87 24.376 63.952 83.74" fill="none" stroke="#069edb" stroke-width="1px" stroke-linejoin="round"/><path d="M3182.883 2582.44l-19.898-8.958-31.832-21.508M3325.401 2611.116l101.42-14.118 8.03-.86" fill="none" stroke="#069edb" stroke-width="5" stroke-linejoin="round"/><path d="M3434.852 2596.138l31.545-4.589 241.181 5.736 68.827 5.162 50.187 7.743 17.493 7.456 62.805 35.847 13.765 6.023 13.765 4.015 93.204 16.92 8.603 2.867 3.155 3.729.573 4.875 5.736 2.294 7.743-1.721 18.067-7.456 62.518 9.464 8.46 3.298" fill="none" stroke="#069edb" stroke-width="1px" stroke-linejoin="round"/><path d="M4141.045 2697.371l6.122.885 13.034 1.786 10.766-.93 9.555-1.741 12.247-5.188 8.339-.05 16.202 3.482 35.89 12.39 15.633 3.175 14.115-3.497 9.674-7.24 8.745-14.724 11.848-29.564 6.895-11.153 10.95-6.895 20.38-8.01 15.006 1.217" fill="none" stroke="#069edb" stroke-width="5" stroke-linejoin="round"/><path d="M5435.282 2449.012l18.493-28.383v-20.648l2.581-11.471 5.162-6.023 18.067-5.449 38.952-27.359 8.08-.171 25.237 13.765 7.169-1.721 18.64-34.413 4.302-32.406-3.728-10.611-7.456-10.037-44.737-16.06-9.177-7.743-6.596-17.493-12.045-22.656-4.588-29.825v-13.478l-6.883-28.391-11.758-27.244-2.868-25.524 3.441-36.707-20.074-111.844.573-10.898 4.876-16.92 8.03-10.611 14.338-10.611 39.002-24.663 10.038-14.625 5.735-18.067 3.81-29.94" fill="none" stroke="#0166a5" stroke-width="5" stroke-linejoin="round"/><path d="M5461.518 2382.487l-348.018 78.088-43.802 14.195-47.857 5.678-28.795 12.978-46.234 31.229-51.507 29.201-51.102 18.25-19.467 7.3-76.652 7.706-52.318-2.028-49.074-1.622-22.711 2.028-31.635.811-46.234 8.517-15.817 7.3-8.517 12.573-5.273 18.656-11.761 16.222-17.845 14.601-15.411 8.517-14.6 6.894-16.63-2.433-17.033-10.545-15.817-17.845-7.976-9.604-14.769-5.592-18.217-2.243" fill="none" stroke="#0166a5" stroke-width="5" stroke-linejoin="round"/><path d="M5435.282 2449.012l-8.685 16.836-12.978 12.572-8.517 12.167-19.873 17.44-38.123 19.872-18.656 13.384-14.195 1.622-14.6 3.651-25.957-1.623-6.083 2.434-2.84 3.244-8.922 20.279-4.866 1.216-7.706-2.028-7.706 2.839-5.272 6.084-5.273 12.572-18.656 8.517-7.3 6.489-4.867 9.734v8.517l12.167 33.662 4.056 12.572 3.65 28.796" fill="none" stroke="#0166a5" stroke-width="1px" stroke-linejoin="round"/><path d="M5559.023 2361.552l-39.146 76.312-30.823 182.099-6.083 12.978-12.978 4.056-15.818 3.244-12.572 6.084-67.73 81.519" fill="none" stroke="#0166a5" stroke-width="5" stroke-linejoin="round"/><path d="M5397.802 2194.118l42.584 5.272 21.09 4.056 12.978-2.433 13.383-6.895 27.173-22.306 25.146-17.845 21.9-6.084 24.334 2.839 8.517 8.923 1.622 10.139-1.216 27.984 8.516 38.123.812 23.118-12.573 20.684-4.867 14.194-5.227 34.469-57.566 110.7-34.121 202.6-20.452 101.026" fill="none" stroke="#e3000b" stroke-width="5" stroke-linejoin="round"/><path d="M5625.986 2109.761l-14.196 28.534-15.916 29.252" fill="none" stroke="#e3000b" stroke-width="5" stroke-linejoin="round"/><path d="M5469.835 2742.682l-8.36 36.263-32.85 53.941-30.012 68.135-3.448 13.383 3.448 24.537-.609 11.559-2.838 2.433-6.692.203-2.636-2.839v-2.231l2.23-2.027h7.3l3.245-3.042M4955.03 2122.991l-3.548-5.774-8.89-4.732-14.196-19.214-6.596-14.052v-4.732l13.335-23.516 6.023-15.486 14.626-22.369 10.754-5.879 7.456-19.071v-10.324l9.177-18.497-2.007-8.46-7.887-58.933-6.452-14.913-15.486-9.463-.717-3.872 5.878-20.218-1.864-5.305-38.571-20.361-6.596-5.449-12.905-14.052-11.471-9.751-27.818-10.897-49.9-21.796-21.508-6.595h-16.92l-20.074 1.147-16.92 2.007-30.399-.574-70.548 9.464v7.17M5625.986 2109.761l1.975-9.937 3.041-19.062 1.826-39.948-6.895-24.943-7.3-16.628-15.615-13.586-12.775-14.601-8.922-39.542-13.79-54.955-26.149-50.636 2.442-17.567-6.596-6.022-11.328 1.864" fill="none" stroke="#e3000b" stroke-width="1px" stroke-linejoin="round"/><path d="M5604.64 2253.331l9.329 5.678h11.761l18.25-1.622 14.196 8.516" fill="none" stroke="#e3000b" stroke-width="5" stroke-linejoin="round"/><path d="M5658.176 2265.903l25.145 17.034 36.5 14.601 30.418 23.928 62.863 37.718 109.097 28.389 32.446 11.356 64.89 4.461 40.151-14.6 9.328-10.545 22.712-23.928 29.201-11.762 23.928-15.005 14.6-1.623 7.707-2.028 7.289 2.666" fill="none" stroke="#e3000b" stroke-width="1px" stroke-linejoin="round"/><path d="M5562.867 2366.281l4.664 20.887 4.867 5.272 9.328 1.42 2.636-1.825" fill="none" stroke="#e3000b" stroke-width="5" stroke-linejoin="round"/><path d="M5581.726 2393.86l2.636-1.825.041-13.132 1.864-2.725 4.159.287 25.976 22.464 9.937 13.587 4.461 8.314 7.097 19.264-.608 3.447-8.72 5.881v3.042l33.662 26.565 6.287 8.314 20.075 12.167 15.412 4.866 7.706 4.462 7.097 10.139 12.167 5.07 10.342 6.083 29.403 9.531 2.84 4.055 13.789 31.635 5.678 11.153 8.922 12.167 11.762 29.606 5.88 4.461 4.056.203 11.356-1.419 3.042 1.216 10.341 25.957 5.273 4.664 2.028 6.083 1.42 18.453 2.838 2.637 11.964-1.42 3.65 1.217 3.042 7.706 3.042 2.027 34.068-16.628h5.677l2.434 5.475-1.622 3.042-4.867.406-3.853-5.273-5.07.203" fill="none" stroke="#e3000b" stroke-width="1px" stroke-linejoin="round"/><path d="M5628.57 2449.422l-18.454 18.048-8.923 1.014-21.698 26.362-22.508 4.258-18.25 11.762-16.832 5.677-11.559 7.301-69.757 19.872-12.37-.608-15.209-2.433-16.83.811-29.404 5.069-5.678-1.014-2.23-3.447 1.824-13.586-2.028-5.678-10.95-19.467-46.234-175.814-4.056-10.341-4.664-11.154-2.23-16.831-4.26-4.866-10.95-3.65-2.23-3.448 3.853-17.439-1.217-4.461-12.167-16.629-7.097-8.922-1.623-5.475-.202-12.573-3.65-5.272v-12.37l8.922-15.817 13.79-35.082 15.614-50.087-1.623-5.881-32.648-41.773-7.3-35.893-7.706-14.803-2.23-6.489-1.217-10.748 11.559-48.262-1.623-11.964-20.48-37.312-3.65-1.42-15.21 4.056-19.67 2.028-31.025 23.725-25.551 21.09-13.992 5.475-15.412 2.839-27.578-16.223-12.776-6.692-12.978-10.544-5.272-.406-18.859 12.37-11.964 4.056-30.823 2.23-3.346 3.853" fill="none" stroke="#e3000b" stroke-width="1px" stroke-linejoin="round"/><path d="M4981.163 1950.885l2.15 1.718 3.954.203 26.767-25.247-.203-5.88 1.521-2.535M5631.002 2080.762l10.14-9.936 20.684-27.173 24.334-9.734h5.677l17.44-8.517 6.489-21.9 4.867-6.489 23.928-10.545 12.573-4.056 16.222-11.356 7.706-7.705 11.762-2.434 11.761-2.433 8.922-8.517 6.084-12.978v-13.384l-4.461-11.356.405-7.705 4.056-6.084 11.356-12.167 3.65-13.384 4.867-9.733 7.705-4.056 14.6-9.734 11.357-9.328 2.433-7.705-3.65-11.356.811-7.3 51.507-74.219 11.356-10.95 4.867-18.656-11.762-24.334-16.628-6.895-5.678-4.056-7.706-20.278-.81-7.3 4.46-7.3 14.601-10.545 3.65-32.04v-35.284l4.056-6.489-.811-27.984 5.272-12.573 12.978-6.084 29.2 4.056 19.874-4.056 14.6 3.245 45.83-5.272 32.039-12.978 17.845-4.462 18.25-12.572 28.39-23.523 66.513-21.901 30.012-.811 32.04-13.789 13.383-15.006 16.628-28.39 10.486-7.776 14.968-6.291 5.531 3.154" fill="none" stroke="#e3000b" stroke-width="1px" stroke-linejoin="round"/><path d="M6335.591 1361.243l22.915 52.709 14.914 29.184 6.475 8.725 34.018 16.209 24.412 28.151" fill="none" stroke="#e3000b" stroke-width="5" stroke-linejoin="round"/><path d="M3955.972 1376.512l1.39 4.543 1.435 9.464-.287 12.618 7.743 29.252 4.875 6.022 6.596 4.015 8.317 2.007 35.847-4.014h10.61l120.448 44.164 18.64 11.184 13.48 10.611 6.308 8.89 4.589 10.897 48.179 161.17.286 14.052-15.199 114.425-4.588 14.339-8.89 11.758-9.75 7.456-11.472 3.728-36.134 5.162-32.98.287-15.486 4.875-18.64 14.626-16.92 15.486-11.472 17.207-12.331 20.935-2.581 16.633 2.58 4.302" fill="none" stroke="#ed028c" stroke-width="5" stroke-linejoin="round"/><path d="M7685.489 2127.254l-34.414-33.553-6.882-10.898-1.721-11.471-13.479-95.21-.86-34.701-5.147-23.317-40.164-57.841-12.618-16.633-29.539-15.2-12.905-11.757-6.882-12.619-9.177-62.231-21.222-172.641 9.75-76.856-23.515-115.859 57.929-209.635 94.637-139.375 1.147-8.03-.86-25.236-105.822-181.245-10.037-58.216-4.015-7.169" fill="none" stroke="#2e3092" stroke-width="5" stroke-linejoin="round"/><path d="M7460.125 2042.827l21.213-27.224 48.084-37.123 2.828-9.192-5.303-24.749 8.132-20.86 9.546-17.677 12.374-15.203 16.617-1.06 34.295-23.689 12.02-40.305 16.617-26.163 22.628-21.92 45.608-37.83 54.094-29.345" fill="none" stroke="#a6ce38" stroke-width="5" stroke-linejoin="round"/><path d="M7463.938 2045.952l21.466-27.167 48.143-37.18 3.703-10.942-5.053-26.124 7.882-20.11 8.42-15.302 11.125-14.203 15.867-.56 36.545-24.814 12.645-41.93 15.742-24.663 22.128-21.92 46.3-38.023 52.554-28.13" opacity=".98000004" fill="none" stroke="#3b8476" stroke-width="5" stroke-linejoin="round"/><path d="M7685.489 2127.254l18.64 18.641 8.604 12.905 14.339 26.383 17.41 33.574" fill="none" stroke="#2e3092" stroke-width="1px" stroke-linejoin="round"/><path d="M7744.481 2218.757l6.418 9.023 10.545 11.356 11.964 7.908 32.851 18.454 7.503 6.489 6.286 9.531 14.6 41.367 8.923 18.656 11.559 17.643s15.006 13.789 15.006 12.978c0-.811 16.425 7.908 16.425 7.908l10.748 3.245 20.684 1.014 17.642-2.839 18.25-7.909 16.02-11.558 37.515-32.04 14.6-8.314 20.482-9.126 37.11-9.733" fill="none" stroke="#2e3092" stroke-width="5" stroke-linejoin="round"/><path d="M6445.625 1490L6420 1460.25l-34.25-15.875-4.625-7.25-13.75-26.375-24.625-57.875-5.5-14.125.25-18.5 6.75-15 13.25-14.75 19.5-11.25 43.25-20.5 9-13.25 6.75-16.25v-85.5l3.5-19.25 8-20.5 9.25-16.25 32-26 8.25-14 9.75-41.5-.25-46.75-1.5-18.75-16.75-49.25-3.5-3" fill="none" stroke="#05aeef" stroke-width="5" stroke-linejoin="round"/><path d="M6484.75 888.5l-4.75-3-10.25-32.5-3.75-21-4.25-60.5-3.5-4.75-15.5-4.5L6252 555.75l-27-63.25-7.75-6.25-89-71.75-12.5-5.5-47.75-7.75-14 1-22.167-7.133-23.833-12.18-9.438-21.375-3.915-.766-50.558 18.208-9.37 4.95-3.358 2.828-8.132 10.784-2.652 6.187-17.5 51.972-1.592 7.071-1.414 176.777-17.854 122.683-3.359 10.606-8.132 14.673-52.502 77.959-6.718 7.424-7.071 6.541-9.546 7.248-14.672 6.01-11.137 2.121-11.49.708-21.568-4.243-34.471.53-3.712 2.829 1.414 18.208 9.351 57.69-1.802 11.694-5.994 9.719-11.007 7.279-27.082 13.999-3.76-1.314-19.81-15.805" fill="none" stroke="#05aeef" stroke-width="1px" stroke-linejoin="round"/><path d="M6340.188 1359.312l23.278 54.498 13.534 26.315 5.375 8.125 34.375 16.125 25.125 28.75 31.25 46.625" fill="none" stroke="#ec008b" stroke-width="5" stroke-linejoin="round"/><path d="M6340.25 1360.187l.125-4.687 20-8.188 1.375-3.5-44.84-118.755-23.334-59.573-9.326-16.484-66-83.75-11-12-52.5-49L6139 986.5l-6.75-10.75-11.5-34.75-31.25-126.75-21.25-62.5-41-118.5 1-34.25-13.5-66.75-4.25-10.75-13.25-20.25-1.75-9.25-.75-9.25 3-24.5.25-13.5 11.25-34 .5-13-3.25-15.5-8-18.25 1.25-5 4.75-2.5" fill="none" stroke="#ec008b" stroke-width="1px" stroke-linejoin="round"/><path d="M9979.085 1179.637l-3.653 20.64v17.439l-8.111 56.374-8.314 44.207-6.084 40.759-3.65 12.573-8.72 10.747-25.956 18.657-19.67 11.558-14.803 8.72-28.795.811" fill="none" stroke="#ee7203" stroke-width="5" stroke-linejoin="round"/><path d="M9874.519 1614.282l-5.496-50.262-3.44-59.363 7.275-18.287 17-52.892 10.342-18.251 17.033-10.544 26.768-19.062 9.818-11.823 3.875-13.548 6.155-41.773 8.302-43.403 8.28-57.61-.06-17.066 3.603-19.93 2.744-26.608 16.901-73.225" fill="none" stroke="#554596" stroke-width="5" stroke-linejoin="round"/><path d="M10003.619 1080.635l15.209-65.499 12.572-58.402 3.651-27.173 8.517-18.656 13.383-16.628 17.44-9.734 23.928-11.761 32.851-20.684 17.439-17.845 34.879-43.801 44.41-41.165 15.208-13.384" fill="none" stroke="#554596" stroke-width="1px" stroke-linejoin="round"/><path d="M10243.106 735.903l16.426-7.097 44.409-13.587 81.519 1.014 24.334 4.867 11.762 3.245 22.711 13.789 51.507 38.934 14.601 8.112 14.6 3.65 27.579 3.244 31.634 6.084 56.374-2.434 10.544-4.055 13.79-8.517 6.489-11.762 2.433-12.978.406-63.674 7.3-44.612 8.111-21.495 9.328-13.789 9.328-8.923" fill="none" stroke="#554596" stroke-width="5" stroke-linejoin="round"/><path d="M9886.45 1273.124l2.387 15.619 13.593 19.82 5.475 23.929-1.419 30.214 3.853 12.979 2.433 4.055 42.788 27.579 12.775 25.348 9.328 10.24 11.863 25.247 6.59 26.159 29.201 50.391 8.314 10.241 6.388 4.461 10.038 2.535 59.212-17.541 22.104 4.664 32.648 27.376 22.914 14.195 27.376 13.992 10.139 8.922 8.517 15.412 15.817 47.857 12.776 35.69 3.041 17.439 13.181 49.885-.811 20.278v12.775l3.042 22.104" fill="none" stroke="#fc0" stroke-width="5" stroke-linejoin="round"/><path d="M9731.083 1190.347l76.57 2.581 46.171-5.448 9.75 5.162 6.597 8.89 2.724 13.335 11.008 74.534 13.942 20.39 5.305 24.089-1.29 30.542 3.154 11.471 3.872 7.313 43.11 27.751 12.668 25.016 9.034 9.894 11.184 23.803 6.74 25.953 30.111 52.194 8.317 10.611 10.754 6.453 10.324 1.72 81.158-23.802 22.656-10.611 26.924-12.122 51.507-11.356" fill="none" stroke="#79ac2b" stroke-width="5" stroke-linejoin="round"/><path d="M9731.083 1190.347l-50.498 1.616-51.912-1.217-34.068 6.084-66.107 16.628-9.328-2.434-3.245-6.083 1.217-6.489 7.3-3.65 5.273-4.867.81-17.439-2.027-15.412-8.111-20.684-9.734-13.789-10.95-23.523-20.279-24.739-11.356-19.468-2.027-21.9-4.462-3.65-12.572-3.65" fill="none" stroke="#79ac2b" stroke-width="1px" stroke-linejoin="round"/><path d="M9700.255 95.311l-13.383 3.853-3.245 3.244 19.467 99.769 5.273 9.328 75.232 50.899 26.565 10.139 25.55 9.328 51.508 15.818 15.006 6.286 3.447 5.069-2.434 62.66 23.32 129.985-3.447 160.198 4.664 27.376 2.84 35.893-89.834 243.543v12.166l3.245 20.482-1.623 12.572-4.258 24.131 5.07 31.635 4.055 8.922 38.124 38.123 1.407 6.224" fill="none" stroke="#ca5f8f" stroke-width="1px" stroke-linejoin="round"/><path d="M9876.845 1274.471l2.44 16.337 14.02 20.797 4.867 22.509-1.217 30.417 3.346 13.688 5.374 8.619 42.584 27.578 13.384 25.145 8.111 9.328 10.342 21.495 7.098 26.565 29.606 52.115 2.028 4.461-.608 8.72-3.651 8.517-8.719 9.328-18.25 6.286-11.762 4.259-6.895 9.125-6.286 16.831-11.559 46.843-4.055 84.155 3.244 18.251 10.95 21.089 18.657 17.44 20.684 11.761 11.355 8.922 8.517 16.223 8.923 32.445v48.668" fill="none" stroke="#ca5f8f" stroke-width="5" stroke-linejoin="round"/><path d="M10233.373 1508.71l33.256-5.272 68.947-.406" fill="none" stroke="#79ac2b" stroke-width="1px" stroke-linejoin="round"/><path d="M9871.877 1275.181l2.743 17.655 14.123 20.188 4.46 21.698-1.115 31.026 3.65 13.992 6.692 10.849 42.484 26.97 12.47 24.639 9.329 10.544 8.72 19.366 7.3 26.97 30.214 52.622 1.318 3.955-.811 6.489-2.94 5.88-7.402 7.808-17.135 6.387-13.79 4.969-7.908 11.254-6.59 17.135-5.741 26.539-5.21 3.777-62.862 1.318-4.766-5.272.102-25.652-.609-10.545" fill="none" stroke="#d20a11" stroke-width="5" stroke-linejoin="round"/><path d="M9130.568 829.579l23.516 5.736h17.206l79.725-22.942 12.045-8.03H9274.53M9449.007 1025.681l-24.204-11.703-35.848-60.51-18.64-16.346-20.648-47.032" fill="none" stroke="#79ac2b" stroke-width="5" stroke-linejoin="round"/><path d="M9274.53 804.343l6.31 1.434 26.097 18.64 24.09 37.568 12.618 15.487 6.022 12.618" fill="none" stroke="#79ac2b" stroke-width="1px" stroke-linejoin="round"/><path d="M10335.576 1503.032l76.893-.382 102.954-32.98 160.396-41.596 7.37 1.16" fill="none" stroke="#79ac2b" stroke-width="5" stroke-linejoin="round"/><path d="M10683.189 1429.234l6.596 2.868 8.89 28.965 6.309 13.191 7.456 12.619 13.766 28.391 16.92 22.369 20.934 33.84 10.038 9.177 15.199 30.972 2.868 13.478 6.022 16.92 4.302 23.516" fill="none" stroke="#79ac2b" stroke-width="1px" stroke-linejoin="round"/><path d="M4361.173 2452.87l10.545 17.033 5.678 16.629 3.245 59.618 7.3 26.767 17.44 31.229-.406 11.559-4.462 10.139-14.702 3.042-34.777-3.853-21.393 8.618-12.877 7.604-8.416 13.992-11.54 28.536-7.575 12.972-9.054 6.784-11.13 2.442-15.636-2.892-34.577-12.164-16.42-3.161-9.947-.354-12.71 5.152-19.297 2.581-18.844-2.539" fill="none" stroke="#756fb3" stroke-width="5" stroke-linejoin="round"/><path d="M4361.173 2452.87l-19.813-44.286-7.17-40.722-2.58-24.663 5.161-28.965 3.728-12.905 2.581-21.795 41.87-83.74.86-10.897 2.295-2.295 3.728-3.441h2.868l11.758 10.324 6.882 2.868 8.317 2.294 6.596.86 56.208-12.331 9.177-1.434 12.332-4.875 21.795-4.875 21.795-20.935 3.728-1.721 3.442 2.294 2.294 6.883M4141.618 2692.604l-2.007 2.329-2.294 13.048-7.027 17.924-5.735 9.177-5.162 16.203-7.456 9.32-8.03 26.671-2.868 42.73-6.453 16.203v41.296l-4.014 16.633-13.766 19.071-11.901 5.449-18.354 27.244-6.022 4.588-5.736 1.434-11.184.287-4.732-1.864-98.509-1.864" fill="none" stroke="#756fb3" stroke-width="1px" stroke-linejoin="round"/><path d="M3960.453 1375.012l1.928 5.613 1.29 12.045-.286 10.611 7.6 27.674 3.871 4.301 5.306 3.012 6.882 1.147 34.987-4.015 11.472.287 122.31 44.881 19.502 11.758 13.622 11.04 7.17 10.181 4.444 10.754 48.61 162.604.143 15.199-15.2 114.855-5.592 16.06-9.607 12.762-11.328 8.316-12.761 4.015-36.565 5.019-32.836.286-13.192 4.446-17.35 13.621-16.346 14.913-11.615 17.35-11.614 19.501-2.294 14.196 1.72 2.581" fill="none" stroke="#699bc1" stroke-width="5" stroke-linejoin="round"/><path d="M3962.381 1380.625l-9.274-16.658-11.795-47.562.317-4.616 3.402-1.855 5.162-1.362 29.545-7.106 1.825-4.461-4.056-36.501 3.65-9.531 9.329-15.614v-6.084l-20.076-21.495-17.034-21.292-19.873-21.901-15.006-10.342-16.02-4.664-20.886-6.286-15.614-12.776-5.678-3.041-12.167-3.448-5.881-9.328-82.33-115.789-9.328-8.922-24.537-18.656-22.509-27.782h-3.447l-34.473 69.352-4.542 1.947-15.331 6.57-13.181 11.964-12.167 5.475-72.394 53.941-24.131 5.475-43.193 18.859-36.906 44.207-22.915 18.858-16.628 7.098 2.839 7.097 10.139-4.461-2.23-7.3M3703.547 943.553l-.811-5.272 18.453-38.326 12.167-36.298 1.217-13.384 20.075-30.823 3.853-.406 34.676 34.676 7.909 9.937 4.056.811 97.335-64.891 64.688-51.101h3.042l46.437 52.723 17.034 13.79M3977.507 1260.504l-7.097-52.724M4033.678 814.989l17.462 15.451 20.934 24.089 15.486 24.377 34.987 18.066 38.142 28.678.86 4.876-35.847 85.46 8.89 36.994 16.06 30.399 3.728 21.508 1.434 2.294 21.795-3.441 28.965 19.501 5.162 5.449 8.316 7.743 5.736 14.339 4.875 27.817 9.464 14.626 12.331 24.09 28.105 83.452 3.154 1.721 54.775-18.354 3.155 2.294-1.434 114.425.286 38.715 7.52 27.022 2.518 29.76-34.7 18.354-7.17 7.17.287 2.007 16.633 15.199 8.89 17.207-.86 3.155-39.862 10.324-65.386-.86-9.177-3.729-.43-2.007" fill="none" stroke="#699bc1" stroke-width="1px" stroke-linejoin="round"/><path d="M4218.762 1563.16l-2.151-8.317-2.581-1.72-3.728 2.294" fill="none" stroke="#699bc1" stroke-width="5" stroke-linejoin="round"/><path d="M4210.732 1127.543l.717-4.302 34.557-41.44 19.644-21.938M4338.492 1284.124l44.88-15.199 3.012 1.577 13.909 106.252-3.298 38.141-1.864.861-9.894-10.755-36.421-1.434-6.022-3.584-2.725 1.147M3659.973 1014.552l-1.434-4.015-24.663-23.516 5.449-21.508 11.758-13.766 16.92-29.251 3.728-.574 26.097 16.92 4.908-.561M3754.648 819.45l79.113-116.914v-4.015l-24.376-55.635 5.162-.573 26.957 23.802 29.825 14.339 47.892 9.751 50.986 58.271M3960.88 1375.685l3.65-4.867 53.94-23.523 11.355 4.461 4.056-.405 3.245-3.245 2.027-21.495-13.789-28.795-4.867-4.461-6.083-1.217-29.275 6.907-3.576-2.04M3990.485 1235.359l14.77-42.431 25.81-59.936 72.268-88.902 22.369-28.104M4054.724 1950.025l-.565 2.781-3.48 6.163-8.281 9.654v3.042l7.097 7.097 4.056 5.881 6.692 2.839 4.664 8.111-8.517 73.408-2.028 2.433-159.996-15.411-3.447 1.622-4.867 48.668-12.978 21.698-8.923 7.908-5.07 23.726-5.677 10.342-3.447 10.747-8.112 15.412-5.475 35.487-11.964 10.95-5.07 1.622-.81 5.07 1.419 2.839 7.706 4.056v16.02l5.272 3.447 17.236 6.083 2.434 3.042-.811 2.839-9.328 15.614 2.433 2.839 17.237 6.489 7.705-2.433 7.3-5.678.812-3.447-10.545-15.209-3.042-1.419-8.618 1.926-3.143-1.521" fill="none" stroke="#699bc1" stroke-width="1px" stroke-linejoin="round"/><path d="M4042.398 1968.623l-15.061 13.521-7.17-.86-19.787-12.906-6.596 1.721-7.17 8.03-9.464 4.015-39.181-1.672-11.578-6.071-22.656-.574-4.875 4.302-7.941 79.516M3903.735 1973.827l-3.154-5.448 7.169-17.781 26.384-22.655 6.022.286 5.162 4.876M4056.39 2069.001l-4.664 43.395-7.706 1.014-4.867-1.622-2.433 2.028-12.572 66.31-.203 8.314-2.434 2.231h-19.061l-8.72 2.636-18.048-2.839-7.908-2.636-4.056 1.419-13.384 39.949v22.103l3.245 13.384-3.042.811-19.67-5.881-28.795-3.447-.811-2.839 7.706-19.265 6.489-23.523-1.014-2.839-41.57-9.53-12.979-3.853-5.88-3.042-6.084-1.622-3.245 1.216M3841.845 2196.146l-3.853 2.028-49.884-.203-13.587-3.245-8.111-10.95-6.895-4.056-3.853-.405-9.53-6.084-.406-6.894-10.342-.811v4.866l10.748 2.434" fill="none" stroke="#699bc1" stroke-width="1px" stroke-linejoin="round"/><path d="M3735.384 2170.392l-12.167 19.468 1.217 1.825 6.286 2.23 8.517 7.909-4.461 14.6.81 3.447 26.363 9.531 25.145 11.559 32.242 3.244M3735.384 2165.526l-20.684-21.09-6.286-7.706 1.42-29.2 3.447-14.195 1.014-15.412-3.65-1.622v-3.65l5.677-7.3 120.657-100.986 3.244-.203 15.817 8.719 47.695.946M4050.679 1958.969l2.466-.282 19.67 13.586 29.607-.203 81.316-9.936 2.636-3.447 1.825-18.859 1.623-1.825 17.033 1.419 1.825-1.825 7.909-88.819M4072.816 1972.273l-12.573 15.209" fill="none" stroke="#699bc1" stroke-width="1px" stroke-linejoin="round"/><path d="M4206.855 1939.422l89.48 8.309 1.721-2.008 8.604-35.847 7.742.287 8.03 4.588 22.082 4.302 10.324-.861 3.442 2.294 8.89 38.716-9.177 49.039-3.728 2.868 5.735 6.596 50.474-5.449 49.612-20.935 1.72.86v5.736l-7.742 13.478 13.765 13.766 10.324-10.038-16.633-17.206" fill="none" stroke="#699bc1" stroke-width="1px" stroke-linejoin="round"/><path d="M4306.66 1909.876l3.154-13.766 6.883-.86 40.436 10.898 1.434 1.434-.287 12.904M4333.617 1559.432l61.218-15.032 25.957-25.55 26.361-17.034 23.523-19.467 9.328-11.356 27.579-18.251 62.457-85.574 3.65-14.601 3.65-33.662 21.901-42.179 6.083-4.461 81.52-34.067 29.336-15.731 11.471-2.581 15.773-12.619 17.78-.86 19.788-7.743v-5.449l-11.185-20.074 1.721-33.267 3.728-48.179 18.64-74.562 13.193-41.01 11.758-63.951 22.368-41.583 4.61-13.219 7.3-45.423 17.034-23.117 66.108-106.259 36.906-42.584 64.08-27.984 125.726-94.497 15.006 2.027 6.083-5.272 16.252-29.16 19.886-9.004 132.336-47.148 1.434-2.581-2.007-11.758 1.147-2.581 87.467-19.787 14.913-8.03 38.715-30.972 11.758-6.023 37.568-5.735 29.825-12.045 5.449-.287 40.436 13.766 12.905 1.434 15.772-2.581 13.766-3.442 28.965-23.229 15.772-6.022 51.907-11.758 73.129-20.361 46.458-1.721 8.03-4.015 26.957-24.09 21.222-9.463 4.588 2.294 6.883 39.289 7.743 12.045 14.626 16.059 23.802 41.009 4.015 1.721 6.596-3.728" fill="none" stroke="#699bc1" stroke-width="1px" stroke-linejoin="round"/><path d="M5733.205 2306.055l20.684-8.517 24.74-12.979 63.268-18.25 19.873-5.272 16.628-9.328 30.418-27.173 36.095-26.768 47.857-27.984 61.24-37.312 21.495-10.95 10.95-4.056 36.096-2.839 42.99-1.622 55.157-6.895" fill="none" stroke="#b7037f" stroke-width="5" stroke-linejoin="round"/><path d="M6220.696 2106.11l3.65-4.056 2.434-7.503 1.42-24.536 5.474-16.223 10.748-20.887 16.02-16.425 2.839.811 1.825 4.461 3.042.406 50.087-29.607 1.42-4.258 11.355-9.125 14.804-6.286.81-3.853 13.993-7.098 16.83-1.216.812 1.216.608 9.125 1.42 6.084-.811.608-8.72.406-9.328 2.23-5.475 2.434-2.23 1.825-5.881 1.217-7.503 3.244-7.098 5.475-4.258 4.056h-1.623l-6.286-5.07-2.839-1.014" fill="none" stroke="#b7037f" stroke-width="1px" stroke-linejoin="round"/><path d="M6244.422 2032.905l-25.348 16.223-10.747 9.936-5.273 19.062 1.622 3.65 4.462 2.434 13.18 12.572 2.028 5.272M6220.696 2106.11l1.825 2.636-17.236 49.277 2.028 33.256h3.853l31.025-20.684 7.098-2.636 3.65.608 13.79 13.79 8.313 14.397 2.84 13.384-1.015 11.964-7.503 11.964-9.53 12.979v4.258l1.014 4.867 2.433 1.216 4.867 2.434 5.678-2.231 18.656-15.208.202-2.637-5.272-9.125 1.622-4.258 11.356-6.287 9.328-8.314 7.3-11.964 5.678-12.775 8.72-9.328 15.209-23.118 7.908-26.564-.81-4.259 7.908-23.725 8.111-5.273 16.02-8.111 7.097 1.014 31.432-22.104 1.42.812-3.448 26.97-1.622.811-27.782-6.489M5734.422 2306.308l-5.507-.391-9.3-7.536-36.772-14.563-15.734-10.936-12.373.558-7.6 5.592-21.724 9.75-36.134 11.758" fill="none" stroke="#b7037f" stroke-width="1px" stroke-linejoin="round"/><path d="M4050.566 1952.605l24.663 18.641 4.014 6.883 65.673 41.296 3.728 79.438-10.324 33.266-2.294 35.561-5.162 25.81-26.67 28.391-4.302 46.745 2.007 5.162 7.456 10.897 1.147 7.743-12.905 30.972 1.434 5.736 7.743 12.332 16.347 9.463 31.259 31.833 10.037 24.949 23.802 21.222 1.721 4.875-10.61 8.604-.287 4.301 20.074 38.429 14.626 19.501 12.618 10.324 39.576 71.694 5.573 5.548-.012 6.959" fill="none" stroke="#ed028c" stroke-width="1px" stroke-linejoin="round"/><path d="M9878.5 1285.5l-106 31.5-45.5 19.5-33 27-22.5 20-38.5 17-64.5 7-33 10.5-5.917 7.516-20.492 30.766L9499 1495.5l-11 106.5-8.5 52-8.5 20-6.5 18.5-11 16.5-23 20.5-34.5 9-65 3.5-149.5 3.5-168-18-150-8.5-23.5 1.5-26.5 8.5-32 15.5-32 27.5-35.5 41.5-57 56-61 26.5-135.5 26-89.5-24.5-149.5-36-48.5-10.5-121-12-75-25-55-21.5h-35l-35 10.5-80 45.5-45.5 5H7674l-39 14-65.5 48.5-132.5 94-40.5 16-206.5 65.5-222 70.5-169 89-33.5 30-15 24.5-34 52-66.5 62-36 21.5-39.5 15-70 5-69 22.5H6404l-42.5-19-128.822-97.918L6183 2325.5l-24.5-12-62-24.5-50-5-77-1.5-53.5-21.5-58.5-21.5-42-2-72 .5-39 20-44.5 35.5-28.5 13.5-72.5 9.5-86.5 11.5-36-4-99.5-36-136.5-39-26-3.5-39 3.5-60.5 19-48.5 17.5-36 15.5-34.5 29.5-80.5 72-36.5 23.5-49 21-75 20.5-36.5 2-74-4.5-22 4.5-29.5 13-23 24-29.5 47.5-23 27-25.5 22-29 15.5-28.182 5.038-18.208.176-22.274-3.005-18.385-9.192L4297 2588.5l-24.5-23-98-138.5-30.5-27-39.5-22-104.5-47-35-5-64 10-203.5 41-175 46-43 31-127 95.5-22.5 31.5-28.5 59.5-1 40 5.5 86.5-13 63-30 76.5-1.5 27 52 632.5 81.5 1071.5 10 144.5 33.5 401.5L3473 5422l28 121.5 4 30-2 66.5 1 54.5 11 50.5 5.5 31 2.5 15-2 12-25 47.5-50.5 63-8 27-1 36 3.5 28 9 19.5 22.5 18 18 3.5 209 20.5 45 21 70 62.5 27 8.5 36.5 1 47-16 52.5-20.5 31 3.5 28 14.5 78 53L4440 6455l140 120.5 139 125 25 30.5 16.5 8.5 20.5 5 428-30.5 93 20 37.5-3.5 23.5-16 50.5-63 15-14.5 18-8 20.5 2 17.5 9.5 12 17.5 5.5 18-7 109.5" fill="none" stroke="#f7931d" stroke-width="5" stroke-linejoin="round"/><path d="M9633 1400.5l-20.088 10.526-45.962 7.071-42.426-3.535-39.245-13.082-25.102-23.334-11.314-37.123-8.131-35.709L9338.5 1081.5 9315 1044l-19.5-21L9100 805l-11.5-15.5-9-20-8-31.5-2-21v-19.5l33-173-6.5-18-17-18-23.5-12.5-392-122.5-34.5-4.5-38.5.5-32 7.5-173.5 65.5-61 26-165.5 54-44 24.5-233 158.5-83 48.5-82.5 62-54.5 26.5-58.5 47-67 23M4033.84 1943.124l-151.675 230.517-14.35 34.408-5.27 29.344 5.144 24.911 14.975 26.976 18.87 16.946 26.616 13.795L3965 2326M6361.5 2464.5l19 31 10.5 58 8 19 14.5 24 14.5 16 24.5 18 23 10.5 40.5 4.5 29-6 55.5-19 30.5-4 30.5-1.5 38 12.5 26.5 20.5 43.5 34 53 22 25 22 28 54 19.5 30.5 11.5 36L6929 3065l7.5 19.5 17 17 15 4.5 19 4 81.5-17.5 49.5 3.5 13.75 9.5 11.125 13.5 16.875 13.375 28.25 17.875" fill="none" stroke="#f7931d" stroke-width="5" stroke-linejoin="round"/><path d="M8667 1545.5l1 24.5 6 21 8.5 14 10 8 12.5 8 20.5 4.5 47-4 29.5-.5 68 11.5 23.5-2.5 25-10 21.5-14.5 30.5-34 28-23.5 59.5-42 108.5-56.5 153-74 30-4 95 14.5 40.78 15.48M9612.912 1411.026L9647 1406.5l31 8 94 32 23.969 3.606 75.531 9.394 33-4 108-30 178 17 199-74.5 93-57 660-171.5 224.5-48 34.493-14.095 337.247-219.77L11785 828l164-52 123-37.5" fill="none" stroke="#f7931d" stroke-width="5" stroke-linejoin="round"/><path d="M12129.5 963l-70-11-31 .5-45.5 6.5-25 2.5-21-4.5-20.5-16.5-12-13.5-8-21.5-1-15.5 8-65 8.5-18.5 14-16 19-13M5631.5 2307l15.5 6 13 12 16 88.5 2 364.5-2.5 31.5-10.5 31.5-16 26-24 36.5-24 71-13 25.5-18.5 16.5-21 14-21.5 7.5-55.768 18.5-23.732 13.121-19.328 20.879-10.878 22.179-4.243 26.87L5415.5 3256l7 20 10.5 21 .5 15.5-8.5 22.5-21 27-23 13-44 16-98 8-20.5 7-103 45.5-19.5 19-10 28.5-3.5 30.5-.5 33-10.5 37-33.5 45-68.5 61.5-34 19-62 48.5-32 9-24 17-12 15.5-13 50.5-8.5 23.5-28.5 29.5-56 35-31 7-34-2-59-15-44.5 1-35 15.5-114 78.5-33 39-12.5 28-170 513-10 60.5-45 126.5-24 34.5-21 20-23 8.5-133 5.5-28 11-18 15-19.5 28.5-110.5 263.5-12 34.5-23 17-21.5 8.5-30-.5-144.5-37.5-15.5-.5-13 4-15.5 11-5 8-6 21.5M3813.5 6149.5l233 219.5 799 1273 19 43.5 206 528 18.5 33 25 23 164.5 135 21.5 24.5 19.5 34 11 31 10.5 53 138 880.5 8 35 14 24 40 50 26.5 28.5 69.5 122 14 44-3.5 26-19 32-47 102-25 42-18.5 13-34.5 7-27.5 6-23 9-20.5 19.5-24 48.5-8 40-10.5 40.5-23.5 32.5-26 14-19.5 1-77-17.5-56-9.5-94.5-1-12.464-3.53-8.142-5.971L5007 10033.5l-18-28.5-12-47-16-15.5-33-12.5-20-9.5-13-15-2.5-14 3.5-28.5M7592.559 5044.47l-10.059 2.03-93 19.5-18.5 8.5-100 58.5-106.5 50-86.5 45.5-75 45.5-56.5 39-38 18.5-46 13.5-17.5.5-37.5-2-28.5 4.5-58 38-17 17.5-27 38.5-25 14-26 5-51 6-95-18.5-25 2-23 7.5-20.5 17-34.5 45-19.5 15.5-39.5 15.5-28.5 6-67.5 3.5-27.5 5.5-34.5 15.5-30 23-118 79.5-123 79.5-43.5 34-38.5 44-30 41.5-31 26.5-58.5 23L5665 5958l-32 1.5-67-5-173.5 35-41.5-1-30.5-6-138.5-51-49.5-2.5-48-2-184-37.5-386-23.5-563.5 6.5-57-11-226-83-35.5-1.5-78 2-16 5-8 6-9.5 13M125 6238l23-29.5 33.5-23.5 43.5-16 88.5 4 87.5 18 440.5 70 954.5-42 444.5-22 33.5-6 99.5-40 27-17 25-25.5 14-20.5 14.5-50.5-5-65-6.5-29.5-1.5-35.5 7-14.5 17.5-11.5 50.5-21.5 22.5 3.5 19.5 11 134 187.5 17.5 13.5 26 11.5 28.5-2 257-90.5 29-1 133.5 42 33.5 15.5 21.5 13 18.5 4.5 19.5-4.5 110.5-29 16-14.5 25-26 8.5-18" fill="none" stroke="#f7931d" stroke-width="5" stroke-linejoin="round"/><path d="M2400.5 6134l-13.5 29-12 30.5-3 48 7.5 45 11.5 29 14 17 469.5 455.5 48 48.5 887 1044.5 37 50.5 12.5 24 205.5 594 43 70.5 10.5 14.5 24.5 19.5 21.5 13.5 26.5 4 25.5.5 52-12 30.5 5 21.5 7 17 8.5 21 17 20 23 24 64.5 54 70.5 14.5 18 7.5 22-4 19.5-25.5 56.5-20 48.5-6.5 47 2.5 51.5 14.5 43.5 25 51.5 62.5 85 24 27 308.5 322 18.5 24.5 8.5 23 14 124.5-1.5 25.5-2.5 18M5644.5 9711l1.5-23 11.5-22 18-9.5L6233 9499l302-32.5 19-6 14.5-7.5 83-74M1546.238 5768.926L1834.5 5911.5l34.5 7 193 16 17.5 6 21.5 15 66 73.5 116 132.5 11.5 8 10.5 4 13-.5M5338 5397.5l-32 5.5-15 6-28.5 23-30 43-21.5 30-52 58.5-10 21-2 23 1.5 31.5-2 21-8 17-9 15-20 28-23 15.5-25 10-54.5 9.5-40-2-39.5-19.5-14.5-4-18 1-15 4-20.5 12-21.5 8.5-13 2h-15l-19-6.5-32-15-19-4-99.5 4.5-121-10-86 10.5-24.5-2.5-44-5-28 5-29.5 15.5-52 36.5-20.5 22-17 32.5-11.5 15-15 9.5-19 4" fill="none" stroke="#f7931d" stroke-width="5" stroke-linejoin="round"/><path d="M6108.76 5714.842l99.364-68.54 53.13 2.027 73.001-45.018 100.58-13.789 7.706-5.272 4.867-6.895 1.217-43.396 2.028-14.194 4.46-6.084 12.168-7.706 4.056-6.894 3.244-12.573 8.517-19.873 13.79-18.656 10.544-3.244 23.523-.811 49.479-15.818 28.795 4.056 12.978 10.14 17.44 2.433 12.167-4.867 10.544-6.49 14.6-12.977 9.735-3.65 17.844 2.839 7.3-2.84 5.678-7.705 7.706-19.062 8.517-7.706 36.907-17.439 19.061-9.734 16.223-5.677 13.384-14.195 21.09-9.734 25.144 3.245 10.95-2.028 12.573-9.734 21.09-8.517 12.978.811 9.733 7.3 15.817 19.468 8.923 5.678 8.517-2.84 27.984-25.55 6.083-11.356 27.173-20.278 8.923-8.923 10.545-17.844 39.745-27.173 25.956-.812 16.629-5.272 11.761-15.411 19.062-16.629 8.111-12.978 9.328-20.684 12.978-6.083 16.223-.406 17.845 6.895 15.006 2.433 46.64-10.544 37.718-24.334 12.572-11.356 6.895-2.028h9.328l13.384 4.461 12.572-.811 7.706-4.461 12.572-10.14 8.517-4.055 17.845.405 8.112-4.055 5.272-5.273 3.244-16.222 5.273-10.545 18.25-10.95 11.356-1.623 20.684 2.84 13.384 6.488 8.922-2.433 11.356-11.761 8.517-3.65 16.628.405 38.935-6.895" fill="none" stroke="#4896d2" stroke-width="5" stroke-linejoin="round"/><text x="89.453102" y="206.96094" style="-inkscape-font-specification:Sans" font-weight="400" font-size="144px" font-family="Sans"><tspan x="89.453102" y="206.96094">2000</tspan></text><text x="89.453125" y="14697.961" style="-inkscape-font-specification:Sans" font-weight="400" font-size="144px" font-family="Sans"/><path d="M5303.572 2336.618l-2.627 3.2-12.33 1.738-13.264-1.128-5.644 7.055-15.24-1.976-11.852-9.313-14.675 1.129-15.24 3.105-9.03-1.411-14.393.564-16.932 9.031-41.203 5.362-29.35 5.644-76.76 6.491M5265.192 2166.163l1.129 4.798M5261.665 2173.077l4.656-2.116" fill="none" stroke="#e3000b" stroke-width="1px" stroke-linejoin="round"/><path d="M3986.216 2373.729l-2.54-1.129-7.62-6.209-3.668-.564-6.209 7.62.847 3.104 15.522-1.976 7.055-1.411 9.595-7.901 12.7-11.007 3.386-.846 18.061 2.54 36.123 10.724 32.287 14.153 28.106 15.479 19.19 18.908 8.75 2.54 14.674 18.625 6.568 10.347" fill="none" stroke="#ed028c" stroke-width="1px" stroke-linejoin="round"/><path d="M4270.998 2597.683l.886 12.781 10.71 32.886" fill="none" stroke="#ed028c" stroke-width="5" stroke-linejoin="round"/><path d="M4276.013 2598.455l-.499-6.486 21.851-16.662 83.663-49.185 15.24-5.927 64.343-56.159 72.528-35.841 41.203-35.559 7.62-10.159 65.472-47.411 9.595-11.853 49.67-69.706 91.717-115.988 3.422-1.27 4.798 1.305 11.43 3.633" fill="none" stroke="#00a54f" stroke-width="1px" stroke-linejoin="round"/><path d="M4275.814 2597.258l1.098 12.971 10.476 31.729" fill="none" stroke="#00a54f" stroke-width="5" stroke-linejoin="round"/><path d="M4287.687 2640.56l-.998 5.488 9.966 27.234 8.24 14.473 3.915 1.442 35.56-16.777 5.02 1.721 40.722 39.145 25.81 56.639 15.486 18.928 17.493 11.184 31.26 14.626 5.85 4.534 7.62 4.727 29.897 18.433 8.268 2.749 12.736 1.986 14.123 18.263 55.1 12.109 13.15.503" fill="none" stroke="#00a54f" stroke-width="1px" stroke-linejoin="round"/><path d="M4281.796 2641.953l3.861 4.271 9.961 27.487 8.603 14.769 13.143 14.306.167 8.466-2.258 17.214-17.78 38.099 1.412 2.54 12.417 5.079 1.975 4.233-11.57 38.663-6.773 18.908-1.13 11.289-5.925 30.478 3.104 6.774 6.49 2.822 3.952-1.411 14.957-4.798 40.356 3.669 13.546-3.951 20.883-11.571 17.215-7.619 14.957-11.289 10.442-14.11 8.466-2.822 22.86-2.258 9.736-3.81 7.549-7.479 3.997-1.653 37.916 23.371 8.03 2.581 12.618 2.008 14.34 18.353 54.487 12.045 13.192.287 17.338-1.775 17.497 2.919 26.81 11.853 75.068 51.362 53.62 27.657 22.294 3.668 18.626 11.571 5.927 9.313" fill="none" stroke="#ed028c" stroke-width="1px" stroke-linejoin="round"/><path d="M4304.221 2688.48l4.569 1.52 35.92-16.713" fill="none" stroke="#ed028c" stroke-width="1px" stroke-linejoin="round"/><path d="M9450.613 1677.011l8.317 16.633 9.75 56.496-9.464 30.685-11.47 7.743-21.51 5.162-32.119 16.92-4.588 4.015-1.434 6.883 1.434 12.044-.86 14.339M9458.93 1693.644l.86-6.882 4.302-5.736 7.425-1.605" fill="none" stroke="#000" stroke-width="5" stroke-linejoin="round"/><path d="M9886.804 1122.954v3.728l-6.883 14.626.287 22.082-2.868 29.825.574 24.09-4.736 31.957 3.667 25.209" fill="none" stroke="#ca5f8f" stroke-width="5" stroke-linejoin="round"/><path d="M5146.826 9838.325l-10.008 83.448-2.816 3.674-4.568 4.145-23.644 12.09" fill="none" stroke="#bfd730" stroke-width="5" stroke-linejoin="round"/><path d="M4950.5 8807l32.5 36 39 53.5 4 17-3 390.5 6.5 13-1 8.5-4 2.5-115 1.5-8.5 3-8 6.5-5.25 13.5-2.75 3.875-.625 1.875 26.25 41.375 37.875 83.875 2.5 8.312 3 42.688 5.687 29.93 4.09 8.012" fill="none" stroke="#05a1e6" stroke-width="1px" stroke-linejoin="round"/><path d="M4616.707 9300.307l-10.161 3.19-5.507 5.232 1.813 4.474 4.14 1.372 2.865-2.311 1.623-8.045 5.227-3.912 13.543 2.943 66 16.25 34.5 6 28 .25 50.5 10.25 16 6.25 13.5 9.75 11.75 10 9.25 3.5 21.875-7 1.937.187L4910 9400.5l37.625 83.188 2.43 8.438 2.973 42.374 5.704 30.125-.577 9.278" fill="none" stroke="#80cc28" stroke-width="1px" stroke-linejoin="round"/><path d="M4924.44 10756.503l-9.899-.883-2.475-2.475-4.95-14.319-15.91-84.5-1.59-24.748 2.474-17.855v-8.308l-1.414-7.248-4.773-10.43-1.06-6.541 3.182-44.901 5.303-21.39v-8.132l-10.784-30.405-1.414-10.076 1.414-8.132 4.066-7.248 11.668-15.38 33.057-47.553 7.955-11.313.147-3.103-9.75-7.438-25.312-25.437 1-6.563" fill="none" stroke="#05a1e6" stroke-width="1px" stroke-linejoin="round"/><path d="M3206.5 4984l11.5-10 39-36 18-7.5 68-3h52l13.5 9 10.5 14" fill="none" stroke="#f7931d" stroke-width="5" stroke-linejoin="round"/><path d="M3531.836 5899.323l8.111 4.393 7.542 2.686" fill="none" stroke="#006bb4" stroke-width="5" stroke-linejoin="round"/><path d="M5083 2264.5l-26.5-1.5-20-10-15-14.5-8-16-4.5-18.5 5.5-112.5-2-17-9-16.5-72-130.5-5.5-21-20.5-88-15.5-20-21-11.5-20-4-54.5-4-30-14-30.5-36-18-32-14.5-57-7-47.5 5.5-26.5 10.5-20.5 39.5-31 25-41 52.5-30 24.105-33.469" fill="none" stroke="#f7931d" stroke-width="5" stroke-linejoin="round"/><path d="M5377.75 10527.75h4.75l12.75-8 10.5-.5 13.25 1.75 9 3.25 65.75 46.25 21.5 22 20.25 15.5 19.75 11.5 9.25 7.75 11 11.25 9.25 12.25 17.25 23 11.5 10.25 58.5 49.5 75 42.75 11.5 1 79-9.25 14.25 1 15.25 6.25 13.75 12.75 109.5 101.5 9.75 12.75 8 17 3.75 14.5 11 57 1 35.75-3.75 7.75-14.25 30.5-2 14 3.5 12 18.5 33.25 5 12.75 3.25 17-3 14.75-6.75 14.75-100.5 105" fill="none" stroke="#f68c58" stroke-width="5" stroke-linejoin="round"/><path d="M5377.75 10527.75l-10.426-7.605-9.39-6.941-9.595-17.557-14.902-17.76-17.76-15.923-25.11-25.722-28.989-27.764-15.106-21.23-21.435-36.95-14.29-17.557-10.412-10.003-7.144-7.553-15.311-32.663-3.267-13.065-1.429-9.39v-28.58l3.063-12.657-3.063-2.654-3.062-.204-75.41 6.808-16.864 6.436-13.185 1.119-12.824 4.261-5.984-1.423-17.395 4.403-13.857.505-16.673-5.052-23.24-.142-8.084-2.238-5.918-3.609-25.983-2.887-6.135.287-4.836-.866-18.044.866-13.858-1.299-17.105-4.403-22.591-3.392-79.032-2.887h-83.074l-113.171-5.052-1.66 1.515-5.125 33.201-.505 39.769 4.725 45.228 3.864 15.038-3.031 5.413-20.291 13.853-5.002 1.326-68.898 9.901-21.843 7.86-27.56 8.982-10.921 3.164-11.432.102-1.94 1.634" fill="none" stroke="#f68c58" stroke-width="1px" stroke-linejoin="round"/><path d="M4408.057 10393.474l-2.552 3.164-14.596 25.926-14.086 16.332-11.84 8.165-11.432 5.308-176.38 26.335-322.137 93.497-92.069 21.435-12.86 1.429" fill="none" stroke="#f68c58" stroke-width="5" stroke-linejoin="round"/><path d="M3750.104 10595.065l-7.757 1.225-29.192 11.636-33.276 10.411-54.506 2.654-54.914 10.411-3.47 2.042-8.166 8.166-14.699 6.736-8.574 6.941-2.45 2.858-19.189 38.379-11.636 12.657M4772.5 10212.474l4.75 3.804 6.171 8.566 5.728 3.873 72.735 2.781 13.292-2.042 11.68-7.564" fill="none" stroke="#f68c58" stroke-width="1px" stroke-linejoin="round"/><path d="M6473.125 1539.75l4.436 3.321 16.189 9.929 31.25 18.75 8.5 7.5L6550 1620l21.25 19.25 14.75 8.25 44.75 12.5 3 2.25.5 9L6645 1712l15.25 18.5 7.75 17.25 11.5 11.75 8.5 9.75 5.75 6 3.75 6.25 1.75 19 6.25 16.5 47 15.5 15.5 3.25 16 18 7.75 13.75 14.5 3.75 16.5.75 21.5-4 38.75 4.5 17.25 9.75 22.25 3.5 29.75 2.75 18.5-4 22-9 72.75-25.75 20-4 11.5-2 26.25-2 26-1 8.75-4.25 6-3.5h7.25l10.75 7.75 14.25 11L7207 1857l9 3.25 34.25-2 14.75.75 22.5 2.75 19 5.988 6.083 5.07 1.42 23.624 3.447 17.338 4.36 1.267 42.178-15.817 141.796-51.875 29.928-6.409 25.967-.98 5.634 2.45 6.124 16.903 3.92 2.94 34.295 10.288 34.05 31.846 10.044 7.349 33.561 11.268 46.805 27.198 72.252 45.072 11.765 1.363 24.65-2.452 15.45-4.471 32.734.084 12.35 2.004 33.008.844 19.816 2.457 30.55 9.279 26.582 13.489 15.491 12.055" fill="none" stroke="#ec008b" stroke-width="1px" stroke-linejoin="round"/><path d="M7460.625 2041.077l-1.375 5.424-18.25 25.375-3.75 26.124L7303 2270.25l-1.25 10.75 21 99.75 2.75 26.25-2 15-4.75 11.25-54.25 46.5-33.25 35.75L7160 2574l-32.5 14.25-42.5 28.25-78.25 76.75-9.25 15.75-31 14.5-16.5 14.5h-4.75l-15-12.5-7.25-1.75-17 .75-6.75-2.5-1.5-2.75L6894 2705l-4.25-3-9.25-2.5-14.5-1.5-22.25.25-15-5.25" fill="none" stroke="#a6ce38" stroke-width="1px" stroke-linejoin="round"/><path d="M7465.25 2044l-5.411 3.456-17.964 24.857-3.625 26L7304 2270.625l-1.313 10.813 21.063 99.062 2.75 26.563-2 15.375-4.625 11.062-54.75 46.875-33.625 36.313-71.011 58.192-32.483 14.143-42.515 28.372-77.781 76.324-9.458 16.042.354 5.303 4.269 9.936 8.125 6.75 3.625 6.125 13.375 23 27 39.125 5 12.125 10.5 36.625 17.875 34.75 6.125 3.75 6.75 3.75 7.375 8.25 2.25 5.625 2 20.625-1.75 26-29.75 42.75v5l2.375 6.5-1.5 5.25-4.25 10.75-1 16.75 3 12.25 5.375 10.125 8.375 8 20.375 14.5 17 15.125 15 19 14.75 11.75 34.875 22.25" fill="none" stroke="#3b8476" stroke-width="1px" stroke-linejoin="round"/><path d="M8185 1189l-9.75 3-8.063 5.438-28.937 22.563-13.75 15.25-5 10.75-10.25 7-11.25 18.25-45.75 66.5-21 21.5-3 8.5-3.5 23-6 16-6 7.25-38.5 47-20 29.25L7948 1506l-1.875 11 .625 11.25 2 12.25-.75 11.5-2.25 15.75-20.25 33-6 11.5-.75 15.75 1 24.75-1 5.25-2.75 2.75-30.75-1.5-13 1-11.25 4.25-26.125 12.75-32.875 11.5-39.605 21.47-5.392.64" fill="none" stroke="#a6ce38" stroke-width="1px" stroke-linejoin="round"/><path d="M8185.25 1189.938l-9.375 2.938-8.063 5.375-28.875 22.5-13.437 14.812-5.25 11.188-10.438 7.187-11.25 18.125-45.062 65.688-21.438 22.062-2.875 8.313-3.437 23-6.125 16.25-5.75 7.062-38.75 47-20 29.375-6.188 15.438L7947 1517l.812 11.375 2 11.687-.812 12.313-2.25 15.75-20.188 32.812-6 11.813-.75 15.187 1 24.688-1 5.812-3.187 3.25-31.375-1.563-12.625 1.126-11.375 4.312-26.063 12.75-32.5 11.188-39.81 21.64-3 4.846" fill="none" stroke="#3b8476" stroke-width="1px" stroke-linejoin="round"/></svg>