<svg xmlns="http://www.w3.org/2000/svg" width="12250" height="14800"><path style="fill:none;fill-rule:evenodd;stroke:#006bb4;stroke-width:1px;stroke-linecap:butt;stroke-linejoin:round;stroke-opacity:1" d="m3847.19 6559.64 13.44.3513.61 15.82.536.98-1.36 3.43-4 .59-17.63-20.7-15.41-21.09-33.66-38.12-10.54-15.41-58.81-66.11-27.17-65.3-23.93-40.96-6.49-23.52-30.42-82.33-1.22-30.42-6.85-18.91-2.63-18.95-1.8-35.92-25.54-64.66 2.79-13.57.8-16.56-46.84-82.44-14.94-24.48-2.51-1.1"/><path style="fill:none;fill-rule:evenodd;stroke:#e3000b;stroke-width:1px;stroke-linecap:butt;stroke-linejoin:round;stroke-opacity:1" d="m5397.8 2194.12-47.84-7.5-9.61.57-12.47 2.01-28.1-1.15-35.56-18.07-26.1-10.61-22.94-3.44-17.21-.57-12.62 1.43-18.07-.29-27.82 5.16-16.35-4.88-12.62.29-12.9-11.47h-6.31l-12.04 2.58-36.13-14.05-39-.86-38.43-8.32-4.3-2.01-6.35.04-7.99 3.69-61.94 16.06-11.18-1.43-55.64-1.15-11.18-3.44-2.58-1.72-5.45-5.16-120.45-130.48-27.53-24.38-3.73-7.17-59.94-50.19-10.04-4.88-12.33-5.16-14.63-20.07-12.33-10.61-24.38-14.05-12.91-2.29"/><path style="fill:none;fill-rule:evenodd;stroke:#9c8dce;stroke-width:5;stroke-linecap:butt;stroke-linejoin:round;stroke-miterlimit:4;stroke-dasharray:none;stroke-opacity:1" d="m5126.59 9944.75-27.01 20.32-29.75 29.84-16.44 77.56 2.74 6.56 9.5 10.47 12.07 20.95-0.39.21-0.91.37-3.24 7.74-17.08 2.06-76.51 5.25-26.79 1.1-10.77-2.07-10.63 4.42-10.08 9.94-11.19 2.48-9.53-.69-21.13-8.56-19.06-4.7-38.26-33.84-24.17-13.54-2.76-5.25 2.07-4.83 15.74-19.61 4.14-9.94-1.38-10.22-3.59-8.84-9.12-7.73-43.37-27.9"/><path style="fill:none;fill-rule:evenodd;stroke:#9c8dce;stroke-width:1px;stroke-linecap:butt;stroke-linejoin:round;stroke-opacity:1" d="m4759.72 9998.32-17.4-12.15-17.95-14.64-33.42-19.33-.49-3.68 20.18-30.31 2.05-3.2 13.22-20.64-2.91-4.12-49.18-8.21-4.14-3.59-6.35-18.51-33.7-57.73-18.78-24.58-10.77-20.16 1.38-9.67-2.49-3.87-23.2-3.04-27.35-6.35-3.31-4.14-6.35-90.05"/><path style="fill:none;fill-rule:evenodd;stroke:#f24dae;stroke-width:1px;stroke-linecap:butt;stroke-linejoin:round;stroke-opacity:1" d="m4226.88 9708.69 81.53 44.23 10.75 2.55"/><path style="fill:none;fill-rule:evenodd;stroke:#f24dae;stroke-width:5;stroke-linecap:butt;stroke-linejoin:round;stroke-miterlimit:4;stroke-dasharray:none;stroke-opacity:1" d="m4316.8 9754.48 11.5 7.06 101.62 77.96 62.98 47.78 29.28 16.85 72.92 37.56 73.47 76.79 83.97 56.07 43.64 22.1 23.2 13.81 38.12 33.42 20.16 5.52 21.27 8.56 11.6.8313.26-3.31 10.77-10.22 7.73-3.31 9.94 1.93 18.78-0.290.155.01.127.9-5.43 31.72-3.59 8.56-2.06 3.31-0.980.154.42 16.57 1.1 21.27 3.59 24.31 1.66 5.52 3.87 2.76 8.01-0.280.6916.57 10.22 5.52 9.67 1.38 15.19-2.76 16.02-6.63 133.56-29.19 16.15-8.34 9-7.81 4.82-6.08"/><path style="fill:none;fill-rule:evenodd;stroke:#f24dae;stroke-width:1px;stroke-linecap:butt;stroke-linejoin:round;stroke-opacity:1" d="m5226.43 10266.34 7.25-7.8 2.78-5.04.42-17.13 2.76-50.82 2.76-9.12 38.12-74.03 6.08-7.18 14.92-3.87 26.79-11.6 35.2-28.05 22.27-22.46 13.79-20.47 12.98-25.14 13.81-15.47 12.98-12.43 19.06-48.89 5.25-19.33 15.19-37.84 26.79-49.72 8.84-37.84 6.35-12.71 10.22-14.64 24.86-29.06.63-14.64 30.66-55.52v-11.05l.83-4.97 31.76-25.41 36.46-42.54 1.38-4.97"/><path style="fill:none;fill-rule:evenodd;stroke:#f24dae;stroke-width:5;stroke-linecap:butt;stroke-linejoin:round;stroke-miterlimit:4;stroke-dasharray:none;stroke-opacity:1" d="m5667.63 9546.71 1.66-3.59 26.79-31.76 18.23-22.37 4.7-10.22 3.04-10.22 2.49-22.37 4.14-11.88 3.87-6.63 11.32-17.68 3.31-8.56 8.84-33.42 2.21-6.35 5.52-6.91 17.13-15.19 19.89-16.02 10.77-14.64 3.87-7.46"/><path style="fill:none;fill-rule:evenodd;stroke:#f24dae;stroke-width:1px;stroke-linecap:butt;stroke-linejoin:round;stroke-opacity:1" d="m5815.41 9301.43 6.9-18.62 6.42-19.6 7.1-13.18 30.42-29.74 4.39-8.79.68-41.91 11.83-211.91"/><path d="m4226.35 9709.5 81.53 44.31 7.99 6.25" style="fill:none;fill-rule:evenodd;stroke:#f580c5;stroke-width:1px;stroke-linecap:butt;stroke-linejoin:round;stroke-opacity:1"/><path d="m4313.99 9758.42 11.44 7.18 100.99 77.4 63.48 48.28 31.03 17.35 71.42 36.81 73.22 76.54 85.72 57.32 41.89 21.35 22.95 13.56 39.37 34.42 22.16 5.52 21.27 8.81 13.85.3314.01-3.81 11.77-11.22 4.98-1.56 9.19 1.93 16.28-0.280.32.12.825.17-5.3 32.09-4.34 8.56-1.51 4.07-0.530.654.42 16.57.8522.27 4.09 24.81 1.66 5.52 7.62 4.26 7.01-0.780.4417.07 11.47 5.52 10.92 1.63 16.69-4.01 15.77-6.38 133.56-28.82 17.02-9.46 9.5-7.44 5.32-6.83" style="fill:none;fill-rule:evenodd;stroke:#f580c5;stroke-width:5;stroke-linecap:butt;stroke-linejoin:round;stroke-miterlimit:4;stroke-dasharray:none;stroke-opacity:1"/><path d="m5230.68 10269.34 3.8-10.27 2.96-5.18 4.33-17.21 2.76-50.73 2.85-9.2 37.94-73.67 5.9-7.01 14.92-3.87 27.06-11.78 35.02-27.96 22.1-22.37 11.31-11.37 6.87-0.460.254.5h4.5l6-1.5 5-2.75 7.25-7.5 6.5-4.25 129.5-48.5" style="fill:none;fill-rule:evenodd;stroke:#f580c5;stroke-width:1px;stroke-linecap:butt;stroke-linejoin:round;stroke-opacity:1"/><path style="fill:none;fill-rule:evenodd;stroke:#f580c5;stroke-width:5;stroke-linecap:butt;stroke-linejoin:round;stroke-miterlimit:4;stroke-dasharray:none;stroke-opacity:1" d="m5590.5 9958.25 17.5-6.25 28-16.75 34.88-21 86-75.62 7.62-12.88 14.12-30.38 4.62-8.88 51.88-38"/><path style="fill:none;fill-rule:evenodd;stroke:#f580c5;stroke-width:1px;stroke-linecap:butt;stroke-linejoin:round;stroke-opacity:1" d="m5833.62 9749.25 9.46-6.25 106.92-18.5 150.5-59.02.5-10.5 13.5-3.5 36-18.5 16.5-25.01.27-5.53 79.73-19.32"/><path d="m5830.75 9745.08 12.07-4.11 106.92-17.36 150.59-59.27 22.5-10.23 13.5-3.59 35.38-18.32 16.68-24.91 10.62-5.79 80-19.5" style="fill:none;fill-rule:evenodd;stroke:#4dbd38;stroke-width:1px;stroke-linecap:butt;stroke-linejoin:round;stroke-opacity:1"/><path style="fill:none;fill-rule:evenodd;stroke:#05a1e6;stroke-width:5;stroke-linecap:butt;stroke-linejoin:round;stroke-miterlimit:4;stroke-dasharray:none;stroke-opacity:1" d="m4963.51 9571.38 38.74 149.62 17.25.22.5 72.75 21.62 30.61.949.89-3.65 17.81-15.56 72.12-1.77 10.61 4.6 9.9 11.31 13.79 5.66 8.84 2.83 5.66v4.6l-2.12 7.78-2.47 5.83-9.72 7.78-25.81 1.59-41.54 2.48-4.6 6.01.4428.47-5.56 33.22-2.83 6.89-3.01 5.3-0.890.724.5 16.14.6220.99 3.71 24.48-2.95 5.25-7.3 5.09-28.2 6.01-13.61 2.83-13.44 7.51"/><path style="fill:none;fill-rule:evenodd;stroke:#4dbd38;stroke-width:5;stroke-linecap:butt;stroke-linejoin:round;stroke-miterlimit:4;stroke-dasharray:none;stroke-opacity:1" d="m5832.25 9744.38-52.12 38.38-5.62 10-14.5 31.25-7.01.25-85 75-13.97 8.44-12.4 7.06-24.88-1.62-14.12-6-35.42-19.34-56.22-61.87-153.44-72.12-4.6-6.01-5.3-3.54-5.3-.35-3.89 3.54-4.6 15.91-4.95 5.3-63.99 43.84-56.92 63.99-18.74 12.73-79.9 45.61-18.03 14.14-20.29 20.95-8.94 8.75-4.5 5.04-8.18 5.83-1.41 1.44-16.14-.99-54.41 28.53-73.96 49.53-25.5 36.94-12.75 98.74 1.41 24.5 15.36 56.09"/><path d="m4958.74 9572.62 38.74.17.25 139.26 22.94 74.78 21.08 29.36.977.76-3.07 15.54-3.18 15.2-2.91 2.77-17.56-.55-53 28-73.25 49-24 35-12.75 97.5 1.52.15.18 55.83" style="fill:none;fill-rule:evenodd;stroke:#80cc28;stroke-width:5;stroke-linecap:butt;stroke-linejoin:round;stroke-miterlimit:4;stroke-dasharray:none;stroke-opacity:1"/><path style="fill:none;fill-rule:evenodd;stroke:#33baab;stroke-width:5;stroke-linecap:butt;stroke-linejoin:round;stroke-miterlimit:4;stroke-dasharray:none;stroke-opacity:1" d="m4915.65 10324.31 12.92-7.27 13.33-2.65 29.31-6.8 7.89-6.1 4.74-7.42-4.34-25.66-.38-21.86-4.38-15.63.26-8.35 3.26-4.43 3.08-7.14 5.94-34.47-.81-27.47 2.35-3.01 41.54-2.1 25.56-1.59 11.97-10.15 3.1-7.33 1.62-7.9.12-6.22-4.08-7.66-5.91-9.34-10.94-12.91-3.35-7.65 1.52-8.36 15.31-71.5 30.28-31.36 17.28-12.77 16.71-10.71 81.77-46.96 57.92-66.01 62-42.5 7.25-6.25 3.75-15.75 4.5-1.62 7.88 9.25 153.25 71.88 54.75 60.88 37.25 20.25 14.76.39.75 1.62 19.88-12.12 31.38-27.75"/><path style="fill:none;fill-rule:evenodd;stroke:#bfd730;stroke-width:5;stroke-linecap:butt;stroke-linejoin:round;stroke-miterlimit:4;stroke-dasharray:none;stroke-opacity:1" d="m5082.48 9470.28 24.4 17.68 30.76 20.51 7.42 8.13 4.24 30.41 8.84 67.88"/><path style="fill:none;fill-rule:evenodd;stroke:#bfd730;stroke-width:1px;stroke-linecap:butt;stroke-linejoin:round;stroke-opacity:1" d="m5157.43 9610.28.7119.09-3.18 136.82-1.77 21.57-6.72 55.15"/><path style="fill:none;fill-rule:evenodd;stroke:#05a1e6;stroke-width:1px;stroke-linecap:butt;stroke-linejoin:round;stroke-opacity:1" d="m4884.38 9358.25-2.91-.68-21.76 6.94-8.75-3.35-12.01-10.12-13.15-9.63-16.35-6.3-50.55-10.39-27.94-.11-34.53-6.01-65.97-16.27-4.67-5.3"/><path style="fill:none;fill-rule:evenodd;stroke:#05a1e6;stroke-width:5;stroke-linecap:butt;stroke-linejoin:round;stroke-miterlimit:4;stroke-dasharray:none;stroke-opacity:1" d="m4626 9298.25-.75-7.25-18.25-42-1.75-6.5.75-8.25 1-6.75 4.75-12.75 3.25-12 2-10.5v-10.75l-16.25-52.75-4.75-20-11.25-20.25-8-7.75-11-9.75-8.75-11.25-9.75-23.25-26-29.25-5-9.5-33.5-33.5L4473 8952l-1.5-10.75.39-8.45 2.62-7.3 4-8.5"/><path style="fill:none;fill-rule:evenodd;stroke:#80cc28;stroke-width:1px;stroke-linecap:butt;stroke-linejoin:round;stroke-opacity:1" d="m4885.88 10292.13.286.61 6.81 24.31 38.27 38.89 8.04 6.01 12.44 9.23 107.49 69.87 3.85 1.14 37.81-11.030.192.69 10.69 38.69 1.69 8.88 2.88 31.12 22.25 46.38 6.17 14.16 18.56 59.75 4.77 22.98 7.78 33.23 32.7 80.96 4.95 16.97.534.6"/><path style="fill:none;fill-rule:evenodd;stroke:#4dbd38;stroke-width:1px;stroke-linecap:butt;stroke-linejoin:round;stroke-opacity:1" d="m4881.66 10294.23 3.62 5.04 6.81 24.13 38.36 38.98 20.68 15.47 107.49 70.03 4.62 1.38 44.62-13.02.62-10.12"/><path style="fill:none;fill-rule:evenodd;stroke:#f5777b;stroke-width:5;stroke-linecap:butt;stroke-linejoin:round;stroke-miterlimit:4;stroke-dasharray:none;stroke-opacity:1" d="m5051.01 10231.92 12.83-4.45 13.44-1.21 16.66-6.36 75.56-6.61 8.11-5.54 4.24-8.63.27-17.15 2.47-8.32 5.8-6.7 4.91-1.87 7.13-2.54 53.63 6.36 13.79 11.31 25.46 22.98 26.52 14.5 8.84-0.71.08-22.27 62.58-17.32 24.75-7.07 8.84 3.18 6.01 5.3 10.96 32.53-0.71.37-1.06 9.55.7110.96 6.72 12.73 9.19 3.89 33.94 7.07 37.48 4.24 32.53 14.5 8.49 2.12 59.75 3.18 10.25 4.24 40.66 26.16 13.79 1.77 38.18 2.47 98.64 32.17 74.6 29.34 25.1 15.2 123.39 48.08 19.8 5.66 18.74 3.54 17.32-4.95 73.54 6.01 20.51 3.54 15.91-0.350.623.54"/><path style="fill:none;fill-rule:evenodd;stroke:#bfd730;stroke-width:5;stroke-linecap:butt;stroke-linejoin:round;stroke-miterlimit:4;stroke-dasharray:none;stroke-opacity:1" d="m5105.79 9941.68-19.87 17.16-35.39 34.68-3.67 3.18-15.13-.98-56.41 29.16-75.21 50.41-26.75 38.94-12.75 98.49.9126.75 15.61 56.84"/><path style="fill:none;fill-rule:evenodd;stroke:#ed1c24;stroke-width:5;stroke-linecap:butt;stroke-linejoin:round;stroke-miterlimit:4;stroke-dasharray:none;stroke-opacity:1" d="m5049.38 10227.12 12.38-4.12 12.5-0.25.25-7.08.25-6.75 7-4 4-7.25-.5-16 3-9.25 7.5-10.01.75-4.5 56.62 6.75 41.25 34.5 24.38 13.38 12.17-0.94.08-21.81 87.5-24.38 25.25-5.04.5-21.5 16-3.25 30.75.2531.5-4.5 44.5 2 30 5.75 18.75-1.75 36-8 23.25-7.06.75-26.5 46.25-23.75 16.75-4.75 34.75-7.07.75-3.06.25-14.25 61-18.75 18.5-7.08.5-21.5 20.5-4.030.54.5 23.5-2.5 100.5-22.5 26-11 26.5-10.02.5-4 42 1 13.5-1 18-8 61-31 18-12.5 76-74.5 17.5-3 11-6.5 16-20 11-6 11.5-1 11 4 7.5 8.5 18 26 11 8 11.5 4h13l6.5-3.01.5-8 13-18 8.5-10.5 8.5-3.5 15.5-3.070.54.58.5.5"/><path style="fill:none;fill-rule:evenodd;stroke:#ed1c24;stroke-width:1px;stroke-linecap:butt;stroke-linejoin:round;stroke-opacity:1" d="M4189.69 10194.89 4296 10198l12-3.5 382 17h82.5l5.75 4.26.8.5 5.25 3.5 72.25 2.75 13-2 10.25-6.5h5.75l15 1.5 29.25-1.25 26.12.6.22 3.75 7.4 1.91 23.5.3516.75 4.75 13.58-0.46.92-4.09 6.75-5.71"/><path style="fill:none;fill-rule:evenodd;stroke:#ed1c24;stroke-width:1px;stroke-linecap:butt;stroke-linejoin:round;stroke-opacity:1" d="m4772.5 10211.5 79.53.23.25 3.25 15.5 4.25"/><path style="fill:none;fill-rule:evenodd;stroke:#bfd730;stroke-width:1px;stroke-linecap:butt;stroke-linejoin:round;stroke-opacity:1" d="m4876.25 10294.88 7.75 4.38 7.44.8.93 9.12v2.48l-10.46 11.73-14.06.27-197.6 301.28"/><path style="fill:none;fill-rule:evenodd;stroke:#f5777b;stroke-width:1px;stroke-linecap:butt;stroke-linejoin:round;stroke-opacity:1" d="m5053.4 10231.83-7.96.53-16.72 4.17-13.87.52-16.62-4.86-23.69-.26-7.42-1.95-6.45-3.89-25.46-2.83-7.42.35-2.92 3.45 2.12 31.19v3.25l-2 3.25-10.25 1.5-86.25 80.5-21.75 12.5-28.75 29.75-12.07.75-19.25 9.5-69.75 38.75-32.25 13.25-44.75 11.5-40 42"/><path style="fill:none;fill-rule:evenodd;stroke:#9e7b65;stroke-width:5;stroke-linecap:butt;stroke-linejoin:round;stroke-miterlimit:4;stroke-dasharray:none;stroke-opacity:1" d="m5817.58 9748.97-41.52 30.42-6.69 12.83-13.62 29.3-6.12 10.19-84.12 73.94-13.97 8.8-10.99 6.35-22.58-1.62-14.48-5.82-32.77-18.11-56.92-62.4-153.77-72.18-8.92 1.21-6.62-1.88-4.5-5.38-.38-5 .88-16.38-3.25-11.75-6.75-9.5-13-7-106.5-16.25h-94.25l-40.25-10.25-37.25-2.5-30-10.25-11.5-.75-61 10.75-11.25 7-8 7.25-4.75 9-6.5 18.25-6.25 5.25-10.5 3.25-16.25 2-9.75 7.25-9.25 9.5-36.04.75-10.25 16-12.5 25.25-13.5 16.75-14.5 14-26.5 18-8.75 8.25-6.62 7.54-15.8 24.77"/><path style="fill:none;fill-rule:evenodd;stroke:#9e7b65;stroke-width:1px;stroke-linecap:butt;stroke-linejoin:round;stroke-opacity:1" d="m4710.28 9912.48-0.18.77-23.69 35.8-12.04 17.95-14.5 24.75-14.62 22.25-11.12 14.62-8.88 17.38-6.25 11.5-3.5 17.25.41.5-2.5 12.25-5.75 12.75-12.5 22.75-16.02.25-4.09.25-6.5 44-.75 39 4.75 45.5 5 19 16.5 33.25 26 46 18 33.5 6.5 15.5 10.75 36.25 9.75 12.25 51.5 55.5"/><path style="fill:none;fill-rule:evenodd;stroke:#05a1e6;stroke-width:1px;stroke-linecap:butt;stroke-linejoin:round;stroke-opacity:1" d="m4914.47 10318.95-4.74 6.58-3.73 5.97-16 17h-13.5l-223 340"/><path style="fill:none;fill-rule:evenodd;stroke:#33baab;stroke-width:1px;stroke-linecap:butt;stroke-linejoin:round;stroke-opacity:1" d="m4917 10323.62-6.01.88-4.88 7.81-0.690.3124.56 24.81 8.35 5.99 12.37 9.35 107.28 69.92.1.75 45.38-13.44 24.38-13.62 4.56.383.94 2.25 20.78 66.75 12.85 33.38 14.94 36.74 2.31 9.94 42.2.43.88 69.75 26.12 33.44 4.97 6.6"/><path style="fill:none;fill-rule:evenodd;stroke:#33baab;stroke-width:5;stroke-linecap:butt;stroke-linejoin:round;stroke-miterlimit:4;stroke-dasharray:none;stroke-opacity:1" d="m5307.78 10759.77 54.9 154.93 124.82 332.8 8.5 22-.5 18-2.5 15.5-41.5 97.5-12 16-15 12-121 75-22.5 16-15.5 18.5-12 19-14 37-57 145.5-8.5 35.5-0.530.53.5 37.5 10 32 14.5 25.5 13 17 14.5 11.58.57.5 96 73 20 21.53.38.5 100.5 113 59 90 41.5 80.5 54.5 83 26 54 17 24.5 19.52.45.5 71.53.68.5 36.55.9.5 23.56.21.5-.5 13 2.5 231.52.27.5 5 14 6 16.5 9.5 12.5 14.5 10.5 22.5 14.5 130 44 35.58.322.45 5.48 14.67 6.54 43.45 20.93 15.82 8.36.30.65 71.58 33.41 33.43 20.86 12.27-0.25.1-5.49 15.1-15.38 8-7.62 4.83.15.49 4.44 23.93 59.7 34.43 75.15 30.04 59.01 55.07 68.72 44.64 61.45 55.46 88.66 33.77 43.72"/><path style="fill:none;fill-rule:evenodd;stroke:#56cbf5;stroke-width:5;stroke-linecap:butt;stroke-linejoin:round;stroke-miterlimit:4;stroke-dasharray:none;stroke-opacity:1" d="m5907.27 13032.5.1834.26 1.77 25.51 9.91 29.28 9.16 12.59 14.05 10.33 19.29 11.94 132.3 45.74 34 .42 27.58 5.48 25.46 13.61 45.61 22.45 84.85 30.58 71.06 32.88 33.26 20.68 10-.25 10.25-4.25 14.75-14.5 8-8.5 9.25-0.260.55.5 23.75 57.75 34.25 75.5 30.75 60.25 55.25 69.25 44.47 61.09 55.28 88.66 33.77 43.74"/><path style="fill:none;fill-rule:evenodd;stroke:#05a1e6;stroke-width:5;stroke-linecap:butt;stroke-linejoin:round;stroke-miterlimit:4;stroke-dasharray:none;stroke-opacity:1" d="m4653.5 10688.5-36.75 39.25-37.5 55.25-109.25 162.25-7.5 11.75-6.75 14.25-5 13-2.5 13.25-7.06.75-1.5 34.75-11.07.750.75.7512.040.2527.75 63.5 17.26.3.25 25.75 4.25 25.25-3.53.4.25 18 14 25.5 3.25 15.5 8.5 66.5-3.02.5-20.25 59-4.5 18.25-0.750.59.5 23.58.24.51.20.5-1 35-16.5 37.5-7 19-4.5 45.5-5.080.53.5 72.52.74.5 9.5 31 12 21 109 126.5 22 26 53 91.5 162.5 302.5 10.52.11.59.20.5 13 122 66.5 24.5 7.5 189 35 18.5 6 75 26.52.4.5 32.5 5 23 9 85 62 33.5 29 9 14 9.5 18.5 26 69 17.5 25 32 41.5 17.5 17.5 71.5 52.5 74.5 34 34 5.5 31.5-1.04.5-16 160-15 27-7 11.5-12.02.5-10.97 19.51-5.18 11.09 1.74 34.66 28.67 30.25 15.74 17.66 8.77 83.34 30.23 71.93 33.76"/><path style="fill:none;fill-rule:evenodd;stroke:#ed028c;stroke-width:5;stroke-linecap:butt;stroke-linejoin:round;stroke-miterlimit:4;stroke-dasharray:none;stroke-opacity:1" d="m6378.71 13251.75-16.37 9.68-18.62 11.85-4.01 4.24 1.24 3.89 4.29 3.44 40.81 19.57 31.68 19.11 7.52-0.26.1-4.74 12.35-12.38 10-10.12 12.08-0.410.997.19 25.93 63.45 33.68 73.9 29.04 56.26 53.82 67.72 43.64 60.45 55.96 89.16 27.27 35.34 8.9.9411.67-4.6 7.78-10.61 1.41-12.37-9.55-30.76-1.77-13.08 7.42-16.97 17.32-24.75 12.02-28.28 47.02-105.71 10.96-13.08 9.9-8.13 13.44-6.72 19.09-4.6 23.33-1.06 28.64 8.13 20.86 9.9 9.9 8.84 41.72 51.62 23.03 28.98 16.73 17.21 44.93 43.97 9.08 13.38 66.92 142.91 14.82 25.33 24.85 51.62 39.19 108.02 8.13 23.9.4815.29-3.35 11.47-12.43 8.6-33.46 11.95-6.69 7.65-0.490.655.97 12.43"/><path style="fill:none;fill-rule:evenodd;stroke:#33baab;stroke-width:5;stroke-linecap:butt;stroke-linejoin:round;stroke-miterlimit:4;stroke-dasharray:none;stroke-opacity:1" d="m6972.5 14116 13-28-.75-15.5-4.12-13.04-29.63-30.96-18.5-33-95-95.5-27.25-41.5"/><path d="m6977.25.12.75-29.25-.25-17.25-4.62-14.54-29.88-30.96-18.5-33.25-95-95-27.62-42" style="fill:none;fill-rule:evenodd;stroke:#56cbf5;stroke-width:5;stroke-linecap:butt;stroke-linejoin:round;stroke-miterlimit:4;stroke-dasharray:none;stroke-opacity:1"/><path style="fill:none;fill-rule:evenodd;stroke:#33baab;stroke-width:1px;stroke-linecap:butt;stroke-linejoin:round;stroke-opacity:1" d="m6748.88.4.5 2.62 55.5 86.62 2.62 7.5"/><path style="fill:none;fill-rule:evenodd;stroke:#56cbf5;stroke-width:1px;stroke-linecap:butt;stroke-linejoin:round;stroke-opacity:1" d="m6753.12 13760.75 1.12 5.56 55.31 86.25 5.81 5.06"/><path style="fill:none;fill-rule:evenodd;stroke:#ed028c;stroke-width:5;stroke-linecap:butt;stroke-linejoin:round;stroke-miterlimit:4;stroke-dasharray:none;stroke-opacity:1" d="m6671 13076.75 3.5-7.01.75-23.25 13.25-10.75 14.5-4.5 38.25-2.75 25.25-6.5 137.5-47.75 14-8 46.75-34.75 16.5-8.25 41.75-14.5 45.12-32.69 8.84-9.19 29.7-40.31 44.19-55.15 55.86-57.63 67.18-106.42 26.87-77.78 9.55-15.91 12.37-34.3 9.9-17.32 37.48-32.53 6.36-4.24 11.67-6.01 3.54-3.18 3.18-33.23M7541.48 14663.69l-10.28-34.65-10.28-38.48-15.06-44.93-37.52-94.88-9.56-16.49-15.77-21.51-17.92-20.07-82.69-105.15-9.08-12.43"/><path style="fill:none;fill-rule:evenodd;stroke:#ed028c;stroke-width:1px;stroke-linecap:butt;stroke-linejoin:round;stroke-opacity:1" d="m7333.32 14275.1-15.53-24.86-19.6-38.95-14.58-30.11-55.68-103"/><path style="fill:none;fill-rule:evenodd;stroke:#4cb848;stroke-width:5;stroke-linecap:butt;stroke-linejoin:round;stroke-miterlimit:4;stroke-dasharray:none;stroke-opacity:1" d="m7139.06 13673.12-10.62-23.52-9.9-14.73-62.16-61.57-64.34-80.32-12.51-10.48-22.64-10.14-27.04-7.77-23.66 1.35-14.87-6.76-6.76-10.14-11.83-19.27-13.86-9.46-49.68-33.8-16.56-5.07-21.29-6.42-20.62-7.1-15.21-3.38-8.45-6.42-5.07-9.12-8.45-34.47-37.18-82.13"/><path style="fill:none;fill-rule:evenodd;stroke:#4cb848;stroke-width:1px;stroke-linecap:butt;stroke-linejoin:round;stroke-opacity:1" d="m6676.37 13234.01-.02-6.62-2.15-11.71-2.87-7.17-4.3-2.87-22.94 4.06-6.21-2.87-40.63 14.1-11.53-3.35-126.42 28.56-24.62-1.49-13.8 1.43-18.82-.84-8.07.84-10.28 4.6-12.91 16.73-2.75 22.82-1.54 14.83 1.9 4.65 10.75 5.26 33.73 20.78 1.43 1.16-0.41.87-2.79.08-2.62-1.44-2.28 1.35-1.69 3.21.932.37 8.23 3.43 16.49 14.82 9.8 12.43v3.82l-15.3 10.52-6.93 2.15-1.43 3.82 20.07 30.83 10.52 18.64 5.97 13.38 1.67 9.56 3.58 21.51 2.15 2.87 18.16 2.39 2.87 2.15.963.58 1.91 26.29 6.69 21.27 4.06 27.96 3.35 46.84 10.75 54.25-4.06 16.25.486.45 22.7 39.43"/><path style="fill:none;fill-rule:evenodd;stroke:#ed028c;stroke-width:1px;stroke-linecap:butt;stroke-linejoin:round;stroke-opacity:1" d="m6378.71 13251.75 14.79-6.5 8.5-1.02.751.01.75-1.5 24.5 1.5 127-28.75 29.5-29.25 10-22 10.75-20.75 16.5-40.75 15.5-20.02.75-7"/><path style="fill:none;fill-rule:evenodd;stroke:#f8b100;stroke-width:5;stroke-linecap:butt;stroke-linejoin:round;stroke-miterlimit:4;stroke-dasharray:none;stroke-opacity:1" d="m5200.14 9898.32 67.16 108.98"/><path style="fill:none;fill-rule:evenodd;stroke:#006bb4;stroke-width:5;stroke-linecap:butt;stroke-linejoin:round;stroke-miterlimit:4;stroke-dasharray:none;stroke-opacity:1" d="m3110.72 5696.88 177.1-1.35 9.46 2.37 9.8 8.79 3.04 8.45v11.49l-1.35 66.24 1.35 12.17 4.73 10.48 6.76 6.42 6.76 4.73 7.44 1.35 56.44.347.1 2.37 64.55 38.87 35.49 25.69 15.55 4.06h16.9l16.22-5.41 34.14-26.02 7.44-6.08 14.2-3.38 10.48 1.35 98.35 67.6"/><path style="fill:none;fill-rule:evenodd;stroke:#006bb4;stroke-width:5;stroke-linecap:butt;stroke-linejoin:round;stroke-miterlimit:4;stroke-dasharray:none;stroke-opacity:1" d="m3309.78 5729.66 4.73-8.79 12.51-17.91 6.76-14.53 1.01-9.13-14.87-38.53-11.15-17.57-22.98-56.78-10.82-31.09-12.17-18.25"/><path d="m3712.65 5927.38 7.54 4.57 14.05 14.05 37.57 48.18 5.74 4.88 63.95 80.01 6.88 10.61 5.74 13.19 25.52 34.7 8.89 14.05 5.45 8.6 15.2 3.15 7.74 6.02 34.99 14.34 11.18 12.04 3.44 2.87 2.58-0.3.02-6.88M3110.72 5696.88l-78.22 1.35-34.41 24.95h-7.46l-134.79-49.04-12.62-1.72-14.05 1.43-35.27 13.77-9.46.57-16.06-5.16-78.29 11.18-44.45 12.91-86.61 33.55-2.29 2.29-2.58 8.6v36.99l3.15 25.52-0.57.21-4.3 24.09v26.96l-2.87 8.32-28.68 38.14-36.99 68.25-8.32 14.05-3.15 14.63-0.57.74-5.16 22.94-8.03 22.66-22.66 37.85-14.34 12.33M3262.81 5517.07l-7.76-10.99-7.74-7.74-35.56-50.76-8.32-18.07-19.5-28.1-21.8-22.37-13.19-8.03-23.23-14.91-10.61-10.61-7.74-15.49-28.1-141.1-3.44-4.59-5.45-4.01-35.56-2.29-84.31 40.44-36.42 30.69" style="fill:none;fill-rule:evenodd;stroke:#006bb4;stroke-width:1px;stroke-linecap:butt;stroke-linejoin:round;stroke-opacity:1"/><path d="m3032.5 5698.23-15.49-8.32-13.19-11.18-12.62-29.25-4.88-5.74-211.36-114.14" style="fill:none;fill-rule:evenodd;stroke:#006bb4;stroke-width:1px;stroke-linecap:butt;stroke-linejoin:round;stroke-opacity:1"/><path d="m1409.68 4233.09 14.56 12.03 10.9 14.34 10.9 18.93 10.61 25.24 47.61 94.35 84.31 172.93 185.26 379.98 5.74 8.03 9.75 7.17 171.78 118.73 91.48 45.88 26.1 16.06 23.23 8.6 15.49 3.15 174.36 12.9 7.74 2.58 13.19 6.88 7.74 8.6 22.37 29.82 14.91 13.19 27.53 7.74 22.94 6.88 102.09 59.65 55.35 33.55 155.43 139.37 40.15 42.44 17.21 9.18" style="fill:none;fill-rule:evenodd;stroke:#006bb4;stroke-width:5;stroke-linecap:butt;stroke-linejoin:round;stroke-miterlimit:4;stroke-dasharray:none;stroke-opacity:1"/><path d="m1280.29 4133.74 29.81 99.36 3.65 2.43 46.23-22.51 4.26-0.810.232.23 7.5 17.03 5.68 6.08 6.08 1.62 7.1.4113.59-7.1 5.5 2.01M2931.55 5542.79l5.45 10.61-0.29.88-16.92 20.65-10.04 18.93.865.16M3079.25 5188.91l-4.3-19.5" style="fill:none;fill-rule:evenodd;stroke:#006bb4;stroke-width:1px;stroke-linecap:butt;stroke-linejoin:round;stroke-opacity:1"/><path style="fill:none;fill-rule:evenodd;stroke:#006bb4;stroke-width:5;stroke-linecap:butt;stroke-linejoin:round;stroke-miterlimit:4;stroke-dasharray:none;stroke-opacity:1" d="m3074.94 5169.4-5.45-28.39-12.33-33.84-111.84-292.51"/><path style="fill:none;fill-rule:evenodd;stroke:#006bb4;stroke-width:1px;stroke-linecap:butt;stroke-linejoin:round;stroke-opacity:1" d="m2945.32 4814.66-4.59-15.2 1.72-75.42"/><path style="fill:none;fill-rule:evenodd;stroke:#006bb4;stroke-width:5stroke-linecap:butt;stroke-linejoin:round;stroke-miterlimit:4;stroke-dasharray:none;stroke-opacity:1" d="m2942.45 4724.04.86-68.54 2.58-12.04 4.3-14.63 1.43-10.04 8.6-14.34 24.95-39.86 5.45-12.91 16.63-52.48-.57-20.36-7.46-38.43 3.44-53.34 5.74-45.88 22.66-108.69"/><path style="fill:none;fill-rule:evenodd;stroke:#006bb4;stroke-width:1px;stroke-linecap:butt;stroke-linejoin:round;stroke-opacity:1" d="m3031.07 4232.5 31.55-152.57 2.29-24.09-2.87-22.66-8.32-24.95-39.29-126.18"/><path style="fill:none;fill-rule:evenodd;stroke:#006bb4;stroke-width:5;stroke-linecap:butt;stroke-linejoin:round;stroke-miterlimit:4;stroke-dasharray:none;stroke-opacity:1" d="m3014.43 3882.05-8.32-28.1-.86-28.68 4.59-25.52 6.02-18.93 9.18-30.97 6.6-17.21 8.6-19.5 36.99-68.83 8.89-18.93 32.69-82.88 6.31-23.52 4.88-15.2 14.05-23.8 3.73-14.34 7.74-57.07-1.15-175.8-11.76-34.41-.86-8.89.29-6.88 30.11-95.5"/><path style="fill:none;fill-rule:evenodd;stroke:#006bb4;stroke-width:1px;stroke-linecap:butt;stroke-linejoin:round;stroke-opacity:1" d="m3172.16 3087.1 19.15-66.24 5.27-8.11 6.49-7.3 9.13-9.33 4.06-8.72 30.42-91.05v-4.66L3197 2708.17l-2.84-2.03"/><path style="fill:none;fill-rule:evenodd;stroke:#006bb4;stroke-width:5;stroke-linecap:butt;stroke-linejoin:round;stroke-miterlimit:4;stroke-dasharray:none;stroke-opacity:1" d="m3194.16 2706.15-8.31-1.82-9.94-2.43-11.36 2.23-21.9 5.88-9.73 2.43-11.96.61-12.98-1.01-3.45-1.82-1.82-5.07 2.64-12.78 4.87-13.79 1.62-21.09-.2-8.31 1.22-7.91 8.52-14.6 15.21-10.34 16.63-8.92 10.14-10.75 9.53-6.89 9.73-2.43 10.95 1.42 63.07 19.06 29.81 9.73 20.48.6120.08-2.43 15.82-11.36 9.53-10.54 6.29-11.96 1.62-19.47-.2-35.69 8.92-27.78 6.29-20.68 1.42-23.12-7.71-33.26-39.75-153.1-8.52-20.07-9.53-15.41-37.92-51.3-15.82-25.35-4.46-20.48 2.64-17.24 9.13-18.86 16.83-19.87 17.24-8.92 37.72-8.72"/><path d="m3097.68 2704.99 2.92-14.21 4.72-13.5 1.77-21.81-.2-7.74 1.93-9.2 8.52-14.74 17.79-12.49 16.34-8.35 7.7-9.31 11.82-8.47 11.88-2.72 11.95 1.42 64.07 19.49 28.52 9.3 19.62.7518.35-2.29 13.95-10.35 9.39-9.83 5.43-11.25 1.05-17.75.08-35.69 9.07-28.64 6.86-21.54.42-19.39-7.71-34.69-39.32-151.81-8.66-20.36-9.24-14.7-37.78-50.59-16.25-26.78-4.6-21.77 2.92-19.1 9.7-19.86 17.69-20.16 19.24-10.21 37.86-8.72 17.61-2.08 11.61-6.6 6.74-.72" style="fill:none;fill-rule:evenodd;stroke:#069edb;stroke-width:5;stroke-linecap:butt;stroke-linejoin:round;stroke-miterlimit:4;stroke-dasharray:none;stroke-opacity:1"/><path style="fill:none;fill-rule:evenodd;stroke:#069edb;stroke-width:1px;stroke-linecap:butt;stroke-linejoin:round;stroke-opacity:1" d="m3371.47 2048.53 1.72-0.29.72-3.73 12.33-26.96 7.74-24.09 4.45-6.74 20.93-19.64.43-13.48 2.15-8.75 9.46-21.51 6.45-15.63 11.18-19.64 13.62-8.89 5.02-5.02 10.61-26.1v-8.03l-2.44-15.06-1.29-20.07-4.3-12.9-5.74-10.61-9.32-8.03-30.54-16.63-26.81-20.22-39.29-20.79-10.75-4.01-60.51-45.02-131.2-103.81-22.66-16.63-76.28-77-33.27-40.15-11.9-20.93-11.61-19.64-20.5-16.78-20.65-61.51v-6.17l8.32-23.37v-23.09l10.9-32.55 1.43-43.02-1.29-35.42 1.72-42.59-2.72-17.64-3.73-32.69-11.9-35.27-14.77-27.96-4.59-14.34"/><path style="fill:none;fill-rule:evenodd;stroke:#069edb;stroke-width:5;stroke-linecap:butt;stroke-linejoin:round;stroke-miterlimit:4;stroke-dasharray:none;stroke-opacity:1" d="m2944.6 976.12-5.02-18.5-.86-9.46 1.58-16.49-3.44-16.35-4.59-9.32-58.22-87.9-6.45-15.49-4.01-19.93.86-18.35 10.18-73.42 2.01-5.59 13.62-18.21 15.94-22.06"/><path style="fill:none;fill-rule:evenodd;stroke:#069edb;stroke-width:1px;stroke-linecap:butt;stroke-linejoin:round;stroke-opacity:1" d="m2906.2 645.06 9.94-13.59v-7.3l-11.25-27.98-5.48-9.33v-5.47l5.78-7.91 24.23-43.9-3.14-8.01M2855.1 3591.5l-4.26.41-3.04-2.64.2-3.45 18.25-18.86 16.43-21.09 2.84-15.82 3.45-33.66 4.46-11.36 10.34-13.79 5.88-15.61 22.91-58.2 5.88-7.3 62.05-49.88 45.63-36.1 3.24-5.88 35.08-100.78.41-9.12-.61-7.5-3.85-9.73-18.25-21.09-2.84-3.45-1.83-7.1 7.91-102.2 1.22-35.89 4.87-32.24-.81-16.22 4.26-30.82 1.82-8.31 1.62-30.62 2.43-9.94 10.95-68.14.41-50.09 4.87-24.13.66-28.13M3398.72 1457.05l-5.16 3.15-5.45 27.24-11.76 20.93-1.72 8.32-2.01 12.9-5.16 25.24-1.72 2.01-4.01-.57-10.04-7.46-31.26-12.9-46.17-5.16-14.63-.86-11.18-3.15-12.62-5.16-14.34-8.89-13.77-5.74-6.31-5.16-10.61-11.76-6.6-11.47h-4.88l-47.03 35.56-12.9 14.91-48.47 39.29-27.82 15.2-11.18 10.04-6.31 14.34-16.35 39.29-11.76 19.21-7.46 9.18-16.06 13.77-7.46 10.04-15.49 19.5-19.21 32.12-20.65 27.82-16.35 36.42-11.76 18.64-3.73 9.75v10.61l8.32 18.93 1.72 12.33 2.29 9.46 2.01 16.92 9.46 22.37 1.72 12.62v12.9l-1.43 10.61-9.18 36.42 1.43 6.88 8.89 18.64 2.29 7.17-0.87.74-4.01 6.88-11.47 12.33-2.58 7.17-1.72 7.74 3.15 18.07-5.16 33.55 1.72 15.49 2.87 13.19 3.44 40.72 2.29 3.73 11.47 3.15 1.43 3.15 1.15 5.16-5.16 19.5 5.45 10.61 1.15 18.07-3.44 6.31.292.87 38.72 14.34 1.43 2.58-8.03 6.31-2.58 6.02 1.72 8.03 6.31 7.46 33.84 38.43 2.29 6.88 4.59 11.76 26.38 53.34 6.02 9.46 7.74 4.3 41.87 24.38 63.95 83.74"/><path style="fill:none;fill-rule:evenodd;stroke:#069edb;stroke-width:5;stroke-linecap:butt;stroke-linejoin:round;stroke-miterlimit:4;stroke-dasharray:none;stroke-opacity:1" d="m3182.88 2582.44-19.9-8.96-31.83-21.51M3325.4 2611.12l101.42-14.12 8.03-.86"/><path style="fill:none;fill-rule:evenodd;stroke:#069edb;stroke-width:1px;stroke-linecap:butt;stroke-linejoin:round;stroke-opacity:1" d="m3434.85 2596.14 31.55-4.59 241.18 5.74 68.83 5.16 50.19 7.74 17.49 7.46 62.8 35.85 13.77 6.02 13.77 4.01 93.2 16.92 8.6 2.87 3.15 3.73.574.88 5.74 2.29 7.74-1.72 18.07-7.46 62.52 9.46 8.46 3.3"/><path style="fill:none;fill-rule:evenodd;stroke:#069edb;stroke-width:5;stroke-linecap:butt;stroke-linejoin:round;stroke-miterlimit:4;stroke-dasharray:none;stroke-opacity:1" d="m4141.04 2697.37 6.12.8913.03 1.79 10.77-0.94.56-1.74 12.25-5.19 8.34-0.050.23.48 35.89 12.39 15.63 3.17 14.12-3.5 9.67-7.24 8.74-14.72 11.85-29.56 6.89-11.15 10.95-6.89 20.38-8.01 15.01 1.22"/><path style="fill:none;fill-rule:evenodd;stroke:#0166a5;stroke-width:5;stroke-linecap:butt;stroke-linejoin:round;stroke-miterlimit:4;stroke-dasharray:none;stroke-opacity:1" d="m5435.28 2449.01 18.49-28.38v-20.65l2.58-11.47 5.16-6.02 18.07-5.45 38.95-27.36 8.08-0.170.2413.77 7.17-1.72 18.64-34.41 4.3-32.41-3.73-10.61-7.46-10.04-44.74-16.06-9.18-7.74-6.6-17.49-12.04-22.66-4.59-29.82v-13.48l-6.88-28.39-11.76-27.24-2.87-25.52 3.44-36.71-20.07-111.84.57-10.9 4.88-16.92 8.03-10.61 14.34-10.61 39-24.66 10.04-14.62 5.74-18.07 3.81-29.94"/><path style="fill:none;fill-rule:evenodd;stroke:#0166a5;stroke-width:5;stroke-linecap:butt;stroke-linejoin:round;stroke-miterlimit:4;stroke-dasharray:none;stroke-opacity:1" d="m5461.52 2382.49-348.02 78.09-43.8 14.2-47.86 5.68-28.8 12.98-46.23 31.23-51.51 29.2-51.1 18.25-19.47 7.3-76.65 7.71-52.32-2.03-49.07-1.62-22.71 2.03-31.63.81-46.23 8.52-15.82 7.3-8.52 12.57-5.27 18.66-11.76 16.22-17.84 14.6-15.41 8.52-14.6 6.89-16.63-2.43-17.03-10.54-15.82-17.84-7.98-9.6-14.77-5.59-18.22-2.24"/><path style="fill:none;fill-rule:evenodd;stroke:#0166a5;stroke-width:1px;stroke-linecap:butt;stroke-linejoin:round;stroke-opacity:1" d="m5435.28 2449.01-8.69 16.84-12.98 12.57-8.52 12.17-19.87 17.44-38.12 19.87-18.66 13.38-14.19 1.62-14.6 3.65-25.96-1.62-6.08 2.43-2.84 3.24-8.92 20.28-4.87 1.22-7.71-2.03-7.71 2.84-5.27 6.08-5.27 12.57-18.66 8.52-7.3 6.49-4.87 9.73v8.52l12.17 33.66 4.06 12.57 3.65 28.8"/><path style="fill:none;fill-rule:evenodd;stroke:#0166a5;stroke-width:5;stroke-linecap:butt;stroke-linejoin:round;stroke-miterlimit:4;stroke-dasharray:none;stroke-opacity:1" d="m5559.02 2361.55-39.15 76.31-30.82 182.1-6.08 12.98-12.98 4.06-15.82 3.24-12.57 6.08-67.73 81.52"/><path style="fill:none;fill-rule:evenodd;stroke:#e3000b;stroke-width:5;stroke-linecap:butt;stroke-linejoin:round;stroke-miterlimit:4;stroke-dasharray:none;stroke-opacity:1" d="m5397.8 2194.12 42.58 5.27 21.09 4.06 12.98-2.43 13.38-6.89 27.17-22.31 25.15-17.84 21.9-6.08 24.33 2.84 8.52 8.92 1.62 10.14-1.22 27.98 8.52 38.12.8123.12-12.57 20.68-4.87 14.19-5.23 34.47-57.57 110.7-34.12 202.6-20.45 101.03"/><path style="fill:none;fill-rule:evenodd;stroke:#e3000b;stroke-width:5;stroke-linecap:butt;stroke-linejoin:round;stroke-miterlimit:4;stroke-dasharray:none;stroke-opacity:1" d="m5625.99 2109.76-14.2 28.53-15.92 29.25"/><path style="fill:none;fill-rule:evenodd;stroke:#e3000b;stroke-width:1px;stroke-linecap:butt;stroke-linejoin:round;stroke-opacity:1" d="m5469.83 2742.68-8.36 36.26-32.85 53.94-30.01 68.14-3.45 13.38 3.45 24.54-0.61.56-2.84 2.43-6.69.2-2.64-2.84v-2.23l2.23-2.03h7.3l3.24-3.04M4955.03 2122.99l-3.55-5.77-8.89-4.73-14.2-19.21-6.6-14.05v-4.73l13.34-23.52 6.02-15.49 14.63-22.37 10.75-5.88 7.46-19.07v-10.32l9.18-18.5-2.01-8.46-7.89-58.93-6.45-14.91-15.49-9.46-.72-3.87 5.88-20.22-1.86-5.3-38.57-20.36-6.6-5.45-12.91-14.05-11.47-9.75-27.82-10.9-49.9-21.8-21.51-6.59h-16.92l-20.07 1.15-16.92 2.01-30.4-.57-70.55 9.46v7.17M5625.99 2109.76l1.97-9.94 3.04-19.06 1.83-39.95-6.89-24.94-7.3-16.63-15.61-13.59-12.78-14.6-8.92-39.54-13.79-54.95-26.15-50.64 2.44-17.57-6.6-6.02-11.33 1.86"/><path style="fill:none;fill-rule:evenodd;stroke:#e3000b;stroke-width:5;stroke-linecap:butt;stroke-linejoin:round;stroke-miterlimit:4;stroke-dasharray:none;stroke-opacity:1" d="m5604.64 2253.33 9.33 5.68h11.76l18.25-1.62 14.19 8.52"/><path style="fill:none;fill-rule:evenodd;stroke:#e3000b;stroke-width:1px;stroke-linecap:butt;stroke-linejoin:round;stroke-opacity:1" d="m5658.18 2265.9 25.15 17.03 36.5 14.6 30.42 23.93 62.86 37.72 109.1 28.39 32.45 11.36 64.89 4.46 40.15-14.6 9.33-10.54 22.71-23.93 29.2-11.76 23.93-15.01 14.6-1.62 7.71-2.03 7.29 2.67"/><path style="fill:none;fill-rule:evenodd;stroke:#e3000b;stroke-width:5;stroke-linecap:butt;stroke-linejoin:round;stroke-miterlimit:4;stroke-dasharray:none;stroke-opacity:1" d="m5562.87 2366.28 4.66 20.89 4.87 5.27 9.33 1.42 2.64-1.82"/><path style="fill:none;fill-rule:evenodd;stroke:#e3000b;stroke-width:1px;stroke-linecap:butt;stroke-linejoin:round;stroke-opacity:1" d="m5581.73 2393.86 2.64-1.82.04-13.13 1.86-2.73 4.16.2925.98 22.46 9.94 13.59 4.46 8.31 7.1 19.26-0.61.45-8.72 5.88v3.04l33.66 26.57 6.29 8.31 20.08 12.17 15.41 4.87 7.71 4.46 7.1 10.14 12.17 5.07 10.34 6.08 29.4 9.53 2.84 4.05 13.79 31.64 5.68 11.15 8.92 12.17 11.76 29.61 5.88 4.46 4.06.211.36-1.42 3.04 1.22 10.34 25.96 5.27 4.66 2.03 6.08 1.42 18.45 2.84 2.64 11.96-1.42 3.65 1.22 3.04 7.71 3.04 2.03 34.07-16.63h5.68l2.43 5.47-1.62 3.04-4.87.41-3.85-5.27-5.07.2"/><path style="fill:none;fill-rule:evenodd;stroke:#e3000b;stroke-width:1px;stroke-linecap:butt;stroke-linejoin:round;stroke-opacity:1" d="m5628.57 2449.42-18.45 18.05-8.92 1.01-21.7 26.36-22.51 4.26-18.25 11.76-16.83 5.68-11.56 7.3-69.76 19.87-12.37-.61-15.21-2.43-16.83.81-29.4 5.07-5.68-1.01-2.23-3.45 1.82-13.59-2.03-5.68-10.95-19.47-46.23-175.81-4.06-10.34-4.66-11.15-2.23-16.83-4.26-4.87-10.95-3.65-2.23-3.45 3.85-17.44-1.22-4.46-12.17-16.63-7.1-8.92-1.62-5.47-.2-12.57-3.65-5.27v-12.37l8.92-15.82 13.79-35.08 15.61-50.09-1.62-5.88-32.65-41.77-7.3-35.89-7.71-14.8-2.23-6.49-1.22-10.75 11.56-48.26-1.62-11.96-20.48-37.31-3.65-1.42-15.21 4.06-19.67 2.03-31.03 23.73-25.55 21.09-13.99 5.47-15.41 2.84-27.58-16.22-12.78-6.69-12.98-10.54-5.27-.41-18.86 12.37-11.96 4.06-30.82 2.23-3.35 3.85"/><path style="fill:none;fill-rule:evenodd;stroke:#e3000b;stroke-width:1px;stroke-linecap:butt;stroke-linejoin:round;stroke-opacity:1" d="m4981.16 1950.88 2.15 1.72 3.95.226.77-25.25-.2-5.88 1.52-2.54M5631 2080.76l10.14-9.94 20.68-27.17 24.33-9.73h5.68l17.44-8.52 6.49-21.9 4.87-6.49 23.93-10.54 12.57-4.06 16.22-11.36 7.71-7.71 11.76-2.43 11.76-2.43 8.92-8.52 6.08-12.98v-13.38l-4.46-11.36.41-7.71 4.06-6.08 11.36-12.17 3.65-13.38 4.87-9.73 7.71-4.06 14.6-9.73 11.36-9.33 2.43-7.71-3.65-11.36.81-7.3 51.51-74.22 11.36-10.95 4.87-18.66-11.76-24.33-16.63-6.89-5.68-4.06-7.71-20.28-.81-7.3 4.46-7.3 14.6-10.54 3.65-32.04v-35.28l4.06-6.49-.81-27.98 5.27-12.57 12.98-6.08 29.2 4.06 19.87-4.06 14.6 3.25 45.83-5.27 32.04-12.98 17.84-4.46 18.25-12.57 28.39-23.52 66.51-21.9 30.01-0.81.04-13.79 13.38-15.01 16.63-28.39 10.49-7.78 14.97-6.29 5.53 3.15"/><path style="fill:none;fill-rule:evenodd;stroke:#e3000b;stroke-width:5;stroke-linecap:butt;stroke-linejoin:round;stroke-miterlimit:4;stroke-dasharray:none;stroke-opacity:1" d="m6335.59 1361.24 22.91 52.71 14.91 29.18 6.48 8.72 34.02 16.21 24.41 28.15"/><path style="fill:none;fill-rule:evenodd;stroke:#ed028c;stroke-width:5;stroke-linecap:butt;stroke-linejoin:round;stroke-miterlimit:4;stroke-dasharray:none;stroke-opacity:1" d="m3955.97 1376.51 1.39 4.54 1.43 9.46-0.290.627.74 29.25 4.88 6.02 6.6 4.01 8.32 2.01 35.85-4.01h10.61l120.45 44.16 18.64 11.18 13.48 10.61 6.31 8.89 4.59 10.9 48.18 161.17.2914.05-15.2 114.42-4.59 14.34-8.89 11.76-9.75 7.46-11.47 3.73-36.13 5.16-32.98.29-15.49 4.88-18.64 14.63-16.92 15.49-11.47 17.21-12.33 20.93-2.58 16.63 2.58 4.3"/><path style="fill:none;fill-rule:evenodd;stroke:#2e3092;stroke-width:5;stroke-linecap:butt;stroke-linejoin:round;stroke-miterlimit:4;stroke-dasharray:none;stroke-opacity:1" d="m7685.49 2127.25-34.41-33.55-6.88-10.9-1.72-11.47-13.48-95.21-.86-34.7-5.15-23.32-40.16-57.84-12.62-16.63-29.54-15.2-12.91-11.76-6.88-12.62-9.18-62.23-21.22-172.64 9.75-76.86-23.52-115.86 57.93-209.63 94.64-139.38 1.15-8.03-.86-25.24-105.82-181.25-10.04-58.22-4.01-7.17"/><path style="fill:none;fill-rule:evenodd;stroke:#a6ce38;stroke-width:5;stroke-linecap:butt;stroke-linejoin:round;stroke-miterlimit:4;stroke-dasharray:none;stroke-opacity:1" d="m7460.13 2042.83 21.21-27.22 48.08-37.12 2.83-9.19-5.3-24.75 8.13-20.86 9.55-17.68 12.37-15.2 16.62-1.06 34.29-23.69 12.02-40.31 16.62-26.16 22.63-21.92 45.61-37.83 54.09-29.34"/><path d="m7463.94 2045.95 21.47-27.17 48.14-37.18 3.7-10.94-5.05-26.12 7.88-20.11 8.42-15.3 11.12-14.2 15.87-0.56.54-24.81 12.65-41.93 15.74-24.66 22.13-21.92 46.3-38.02 52.55-28.13" style="opacity:.98;fill:none;fill-rule:evenodd;stroke:#3b8476;stroke-width:5;stroke-linecap:butt;stroke-linejoin:round;stroke-miterlimit:4;stroke-dasharray:none;stroke-opacity:1"/><path style="fill:none;fill-rule:evenodd;stroke:#2e3092;stroke-width:1px;stroke-linecap:butt;stroke-linejoin:round;stroke-opacity:1" d="m7685.49 2127.25 18.64 18.64 8.6 12.9 14.34 26.38 17.41 33.57"/><path style="fill:none;fill-rule:evenodd;stroke:#2e3092;stroke-width:5;stroke-linecap:butt;stroke-linejoin:round;stroke-miterlimit:4;stroke-dasharray:none;stroke-opacity:1" d="m7744.48 2218.76 6.42 9.02 10.54 11.36 11.96 7.91 32.85 18.45 7.5 6.49 6.29 9.53 14.6 41.37 8.92 18.66 11.56 17.64s15.01 13.79 15.01 12.98c0-.81 16.43 7.91 16.43 7.91l10.75 3.25 20.68 1.01 17.64-2.84 18.25-7.91 16.02-11.56 37.51-32.04 14.6-8.31 20.48-9.13 37.11-9.73"/><path style="fill:none;fill-rule:evenodd;stroke:#00a650;stroke-width:5;stroke-linecap:butt;stroke-linejoin:round;stroke-miterlimit:4;stroke-dasharray:none;stroke-opacity:1" d="m6445.62 1490-25.62-29.75-34.25-15.88-4.62-7.25-13.75-26.38-24.62-57.88-5.5-14.12.25-18.5 6.75-15.01.25-14.75 19.5-11.25 43.25-20.5 9-13.25 6.75-16.25v-85.5l3.5-19.25 8-20.5 9.25-16.25 32-26 8.25-14.09.75-41.5-.25-46.75-1.5-18.75-16.75-49.25-3.5-3"/><path style="fill:none;fill-rule:evenodd;stroke:#00a650;stroke-width:1px;stroke-linecap:butt;stroke-linejoin:round;stroke-opacity:1" d="m6484.75 888.5-4.75-3-10.25-32.5-3.75-21-4.25-60.5-3.5-4.75-15.5-4.5L6252 555.75l-27-63.25-7.75-6.25-89-71.75-12.5-5.5-47.75-7.75-14 1-22.17-7.13-23.83-12.18-9.44-21.38-3.92-.77-50.56 18.21-9.37 4.95-3.36 2.83-8.13 10.78-2.65 6.19-17.5 51.97-1.59 7.07-1.41 176.78-17.85 122.68-3.36 10.61-8.13 14.67-52.5 77.96-6.72 7.42-7.07 6.54-9.55 7.25-14.67 6.01-11.14 2.12-11.49.71-21.57-4.24-34.47.53-3.71 2.83 1.41 18.21 9.35 57.69-1.8 11.69-5.99 9.72-11.01 7.28-27.08 14-3.76-1.31-19.81-15.8"/><path style="fill:none;fill-rule:evenodd;stroke:#81b8dc;stroke-width:5;stroke-linecap:butt;stroke-linejoin:round;stroke-miterlimit:4;stroke-dasharray:none;stroke-opacity:1" d="m6340.19 1359.31 23.28 54.5 13.53 26.32 5.38 8.12 34.38 16.12 25.12 28.75 31.25 46.62"/><path style="fill:none;fill-rule:evenodd;stroke:#81b8dc;stroke-width:1px;stroke-linecap:butt;stroke-linejoin:round;stroke-opacity:1" d="m6340.25 1360.19.12-4.69 20-8.19 1.38-3.5-44.84-118.75-23.33-59.57-9.33-16.48-66-83.75-11-12-52.5-49-15.75-17.75-6.75-10.75-11.5-34.75-31.25-126.75-21.25-62.5-41-118.5 1-34.25-13.5-66.75-4.25-10.75-13.25-20.25-1.75-9.25-.75-9.25 3-24.5.25-13.5 11.25-34 .5-13-3.25-15.5-8-18.25 1.25-5.04.75-2.5"/><path d="m9979.08 1179.64-3.65 20.64v17.44l-8.11 56.37-8.31 44.21-6.08 40.76-3.65 12.57-8.72 10.75-25.96 18.66-19.67 11.56-14.8 8.72-28.8.81" style="fill:none;fill-rule:evenodd;stroke:#ee7203;stroke-width:5;stroke-linecap:butt;stroke-linejoin:round;stroke-miterlimit:4;stroke-dasharray:none;stroke-opacity:1"/><path d="m9874.52 1614.28-5.5-50.26-3.44-59.36 7.28-18.29 17-52.89 10.34-18.25 17.03-10.54 26.77-19.06 9.82-11.82 3.88-13.55 6.16-41.77 8.3-43.4 8.28-57.61-.06-17.07 3.6-19.93 2.74-26.61 16.9-73.22" style="fill:none;fill-rule:evenodd;stroke:#554596;stroke-width:5;stroke-linecap:butt;stroke-linejoin:round;stroke-miterlimit:4;stroke-dasharray:none;stroke-opacity:1"/><path d="m10003.62 1080.63 15.21-65.5 12.57-58.4 3.65-27.17 8.52-18.66 13.38-16.63 17.44-9.73 23.93-11.76 32.85-20.68 17.44-17.84 34.88-43.8 44.41-41.16 15.21-13.38" style="fill:none;fill-rule:evenodd;stroke:#554596;stroke-width:1px;stroke-linecap:butt;stroke-linejoin:round;stroke-opacity:1"/><path d="m10243.11 735.9 16.43-7.1 44.41-13.59 81.52 1.01 24.33 4.87 11.76 3.25 22.71 13.79 51.51 38.93 14.6 8.11 14.6 3.65 27.58 3.24 31.63 6.08 56.37-2.43 10.54-4.05 13.79-8.52 6.49-11.76 2.43-12.98.41-63.67 7.3-44.61 8.11-21.5 9.33-13.79 9.33-8.92" style="fill:none;fill-rule:evenodd;stroke:#554596;stroke-width:5;stroke-linecap:butt;stroke-linejoin:round;stroke-miterlimit:4;stroke-dasharray:none;stroke-opacity:1"/><path d="m9886.45 1273.12 2.39 15.62 13.59 19.82 5.48 23.93-1.42 30.21 3.85 12.98 2.43 4.05 42.79 27.58 12.78 25.35 9.33 10.24 11.86 25.25 6.59 26.16 29.2 50.39 8.31 10.24 6.39 4.46 10.04 2.54 59.21-17.54 22.1 4.66 32.65 27.38 22.91 14.2 27.38 13.99 10.14 8.92 8.52 15.41 15.82 47.86 12.78 35.69 3.04 17.44 13.18 49.88-0.81.28v12.78l3.04 22.1" style="fill:none;fill-rule:evenodd;stroke:#fc0;stroke-width:5;stroke-linecap:butt;stroke-linejoin:round;stroke-miterlimit:4;stroke-dasharray:none;stroke-opacity:1"/><path d="m9731.08 1190.35 76.57 2.58 46.17-5.45 9.75 5.16 6.6 8.89 2.72 13.34 11.01 74.53 13.94 20.39 5.31 24.09-1.29 30.54 3.15 11.47 3.87 7.31 43.11 27.75 12.67 25.02 9.03 9.89 11.18 23.8 6.74 25.95 30.11 52.19 8.32 10.61 10.75 6.45 10.32 1.72 81.16-23.8 22.66-10.61 26.92-12.12 51.51-11.36" style="fill:none;fill-rule:evenodd;stroke:#79ac2b;stroke-width:5;stroke-linecap:butt;stroke-linejoin:round;stroke-miterlimit:4;stroke-dasharray:none;stroke-opacity:1"/><path d="m9731.08 1190.35-50.5 1.62-51.91-1.22-34.07 6.08-66.11 16.63-9.33-2.43-3.24-6.08 1.22-6.49 7.3-3.65 5.27-4.87.81-17.44-2.03-15.41-8.11-20.68-9.73-13.79-10.95-23.52-20.28-24.74-11.36-19.47-2.03-21.9-4.46-3.65-12.57-3.65" style="fill:none;fill-rule:evenodd;stroke:#79ac2b;stroke-width:1px;stroke-linecap:butt;stroke-linejoin:round;stroke-opacity:1"/><path d="m9700.26 95.31-13.38 3.85-3.24 3.24 19.47 99.77 5.27 9.33 75.23 50.9 26.56 10.14 25.55 9.33 51.51 15.82 15.01 6.29 3.45 5.07-2.43 62.66 23.32 129.99-3.45 160.2 4.66 27.38 2.84 35.89-89.83 243.54v12.17l3.24 20.48-1.62 12.57-4.26 24.13 5.07 31.64 4.06 8.92 38.12 38.12 1.41 6.22" style="fill:none;fill-rule:evenodd;stroke:#ca5f8f;stroke-width:1px;stroke-linecap:butt;stroke-linejoin:round;stroke-opacity:1"/><path d="m9876.84 1274.47 2.44 16.34 14.02 20.8 4.87 22.51-1.22 30.42 3.35 13.69 5.37 8.62 42.58 27.58 13.38 25.14 8.11 9.33 10.34 21.5 7.1 26.57 29.61 52.12 2.03 4.46-0.62.72-3.65 8.52-8.72 9.33-18.25 6.29-11.76 4.26-6.89 9.12-6.29 16.83-11.56 46.84-4.06 84.16 3.24 18.25 10.95 21.09 18.66 17.44 20.68 11.76 11.36 8.92 8.52 16.22 8.92 32.45v48.67" style="fill:none;fill-rule:evenodd;stroke:#ca5f8f;stroke-width:5;stroke-linecap:butt;stroke-linejoin:round;stroke-miterlimit:4;stroke-dasharray:none;stroke-opacity:1"/><path d="m10233.37 1508.71 33.26-5.27 68.95-.41" style="fill:none;fill-rule:evenodd;stroke:#79ac2b;stroke-width:1px;stroke-linecap:butt;stroke-linejoin:round;stroke-opacity:1"/><path style="fill:none;fill-rule:evenodd;stroke:#d20a11;stroke-width:5;stroke-linecap:butt;stroke-linejoin:round;stroke-miterlimit:4;stroke-dasharray:none;stroke-opacity:1" d="m9871.88 1275.18 2.74 17.66 14.12 20.19 4.46 21.7-1.12 31.03 3.65 13.99 6.69 10.85 42.48 26.97 12.47 24.64 9.33 10.54 8.72 19.37 7.3 26.97 30.21 52.62 1.32 3.96-0.82.49-2.94 5.88-7.4 7.81-17.14 6.39-13.79 4.97-7.91 11.25-6.59 17.14-5.74 26.54-5.21 3.78-62.86 1.32-4.77-5.27.1-25.65-.61-10.54"/><path d="m9130.57 829.58 23.52 5.74h17.21l79.72-22.94 12.04-8.03H9274.53M9449.01 1025.68l-24.2-11.7-35.85-60.51-18.64-16.35-20.65-47.03" style="fill:none;fill-rule:evenodd;stroke:#79ac2b;stroke-width:5;stroke-linecap:butt;stroke-linejoin:round;stroke-miterlimit:4;stroke-dasharray:none;stroke-opacity:1"/><path d="m9274.53 804.34 6.31 1.43 26.1 18.64 24.09 37.57 12.62 15.49 6.02 12.62" style="fill:none;fill-rule:evenodd;stroke:#79ac2b;stroke-width:1px;stroke-linecap:butt;stroke-linejoin:round;stroke-opacity:1"/><path d="m10335.58 1503.03 76.89-0.38.95-32.98 160.4-41.6 7.37 1.16" style="fill:none;fill-rule:evenodd;stroke:#79ac2b;stroke-width:5;stroke-linecap:butt;stroke-linejoin:round;stroke-miterlimit:4;stroke-dasharray:none;stroke-opacity:1"/><path d="m10683.19 1429.23 6.6 2.87 8.89 28.96 6.31 13.19 7.46 12.62 13.77 28.39 16.92 22.37 20.93 33.84 10.04 9.18 15.2 30.97 2.87 13.48 6.02 16.92 4.3 23.52" style="fill:none;fill-rule:evenodd;stroke:#79ac2b;stroke-width:1px;stroke-linecap:butt;stroke-linejoin:round;stroke-opacity:1"/><path d="m4361.17 2452.87 10.54 17.03 5.68 16.63 3.24 59.62 7.3 26.77 17.44 31.23-0.41.56-4.46 10.14-14.7 3.04-34.78-3.85-21.39 8.62-12.88 7.6-8.42 13.99-11.54 28.54-7.58 12.97-9.05 6.78-11.13 2.44-15.64-2.89-34.58-12.16-16.42-3.16-9.95-.35-12.71 5.15-19.3 2.58-18.84-2.54" style="fill:none;fill-rule:evenodd;stroke:#756fb3;stroke-width:5;stroke-linecap:butt;stroke-linejoin:round;stroke-miterlimit:4;stroke-dasharray:none;stroke-opacity:1"/><path d="m4361.17 2452.87-19.81-44.29-7.17-40.72-2.58-24.66 5.16-28.96 3.73-12.9 2.58-21.8 41.87-83.74.86-10.9 2.29-2.29 3.73-3.44h2.87l11.76 10.32 6.88 2.87 8.32 2.29 6.6.8656.21-12.33 9.18-1.43 12.33-4.88 21.8-4.88 21.8-20.93 3.73-1.72 3.44 2.29 2.29 6.88M4141.62 2692.6l-2.01 2.33-2.29 13.05-7.03 17.92-5.74 9.18-5.16 16.2-7.46 9.32-8.03 26.67-2.87 42.73-6.45 16.2v41.3l-4.01 16.63-13.77 19.07-11.9 5.45-18.35 27.24-6.02 4.59-5.74 1.43-11.18.29-4.73-1.86-98.51-1.86" style="fill:none;fill-rule:evenodd;stroke:#756fb3;stroke-width:1px;stroke-linecap:butt;stroke-linejoin:round;stroke-opacity:1"/><path d="m3960.45 1375.01 1.93 5.61 1.29 12.04-0.290.617.6 27.67 3.87 4.3 5.31 3.01 6.88 1.15 34.99-4.01 11.47.29122.31 44.88 19.5 11.76 13.62 11.04 7.17 10.18 4.45 10.75 48.61 162.6.1415.2-15.2 114.86-5.59 16.06-9.61 12.76-11.33 8.32-12.76 4.01-36.56 5.02-32.84.29-13.19 4.45-17.35 13.62-16.35 14.91-11.61 17.35-11.61 19.5-2.29 14.2 1.72 2.58" style="fill:none;fill-rule:evenodd;stroke:#699bc1;stroke-width:5;stroke-linecap:butt;stroke-linejoin:round;stroke-miterlimit:4;stroke-dasharray:none;stroke-opacity:1"/><path d="m3962.38 1380.62-9.27-16.66-11.79-47.56.32-4.62 3.4-1.85 5.16-1.36 29.54-7.11 1.83-4.46-4.06-36.5 3.65-9.53 9.33-15.61v-6.08l-20.08-21.5-17.03-21.29-19.87-21.9-15.01-10.34-16.02-4.66-20.89-6.29-15.61-12.78-5.68-3.04-12.17-3.45-5.88-9.33-82.33-115.79-9.33-8.92-24.54-18.66-22.51-27.78h-3.45l-34.47 69.35-4.54 1.95-15.33 6.57-13.18 11.96-12.17 5.47-72.39 53.94-24.13 5.47-43.19 18.86-36.91 44.21-22.91 18.86-16.63 7.1 2.84 7.1 10.14-4.46-2.23-7.3M3703.55 943.55l-.81-5.27 18.45-38.33 12.17-36.3 1.22-13.38 20.08-30.82 3.85-0.410.6834.68 7.91 9.94 4.06.8197.34-64.89 64.69-51.1h3.04l46.44 52.72 17.03 13.79M3977.51 1260.5l-7.1-52.72" style="fill:none;fill-rule:evenodd;stroke:#699bc1;stroke-width:1px;stroke-linecap:butt;stroke-linejoin:round;stroke-opacity:1"/><path d="m4033.68 814.99 17.46 15.45 20.93 24.09 15.49 24.38 34.99 18.07 38.14 28.68.864.88-35.85 85.46 8.89 36.99 16.06 30.4 3.73 21.51 1.43 2.29 21.8-3.44 28.96 19.5 5.16 5.45 8.32 7.74 5.74 14.34 4.88 27.82 9.46 14.63 12.33 24.09 28.1 83.45 3.15 1.72 54.77-18.35 3.15 2.29-1.43 114.42.2938.72 7.52 27.02 2.52 29.76-34.7 18.35-7.17 7.17.292.01 16.63 15.2 8.89 17.21-0.86.15-39.86 10.32-65.39-.86-9.18-3.73-.43-2.01" style="fill:none;fill-rule:evenodd;stroke:#699bc1;stroke-width:1px;stroke-linecap:butt;stroke-linejoin:round;stroke-opacity:1"/><path d="m4218.76 1563.16-2.15-8.32-2.58-1.72-3.73 2.29" style="fill:none;fill-rule:evenodd;stroke:#699bc1;stroke-width:5;stroke-linecap:butt;stroke-linejoin:round;stroke-miterlimit:4;stroke-dasharray:none;stroke-opacity:1"/><path d="m4210.73 1127.54.72-4.3 34.56-41.44 19.64-21.94M4338.49 1284.12l44.88-15.2 3.01 1.58 13.91 106.25-3.3 38.14-1.86.86-9.89-10.76-36.42-1.43-6.02-3.58-2.72 1.15M3659.97 1014.55l-1.43-4.01-24.66-23.52 5.45-21.51 11.76-13.77 16.92-29.25 3.73-0.570.116.92 4.91-.56M3754.65 819.45l79.11-116.91v-4.01l-24.38-55.63 5.16-0.570.9623.8 29.83 14.34 47.89 9.75 50.99 58.27M3960.88 1375.68l3.65-4.87 53.94-23.52 11.36 4.46 4.06-0.41.24-3.25 2.03-21.5-13.79-28.8-4.87-4.46-6.08-1.22-29.27 6.91-3.58-2.04M3990.49 1235.36l14.77-42.43 25.81-59.94 72.27-88.9 22.37-28.1M4054.72 1950.03l-.56 2.78-3.48 6.16-8.28 9.65v3.04l7.1 7.1 4.06 5.88 6.69 2.84 4.66 8.11-8.52 73.41-2.03 2.43-160-15.41-3.45 1.62-4.87 48.67-12.98 21.7-8.92 7.91-5.07 23.73-5.68 10.34-3.45 10.75-8.11 15.41-5.48 35.49-11.96 10.95-5.07 1.62-0.810.071.42 2.84 7.71 4.06v16.02l5.27 3.45 17.24 6.08 2.43 3.04-0.81.84-9.33 15.61 2.43 2.84 17.24 6.49 7.71-2.43 7.3-5.68.81-3.45-10.54-15.21-3.04-1.42-8.62 1.93-3.14-1.52" style="fill:none;fill-rule:evenodd;stroke:#699bc1;stroke-width:1px;stroke-linecap:butt;stroke-linejoin:round;stroke-opacity:1"/><path d="m4042.4 1968.62-15.06 13.52-7.17-.86-19.79-12.91-6.6 1.72-7.17 8.03-9.46 4.01-39.18-1.67-11.58-6.07-22.66-.57-4.88 4.3-7.94 79.52" style="fill:none;fill-rule:evenodd;stroke:#699bc1;stroke-width:1px;stroke-linecap:butt;stroke-linejoin:round;stroke-opacity:1"/><path d="m3903.74 1973.83-3.15-5.45 7.17-17.78 26.38-22.66 6.02.295.16 4.88M4056.39 2069l-4.66 43.4-7.71 1.01-4.87-1.62-2.43 2.03-12.57 66.31-0.28.31-2.43 2.23h-19.06l-8.72 2.64-18.05-2.84-7.91-2.64-4.06 1.42-13.38 39.95v22.1l3.24 13.38-3.04.81-19.67-5.88-28.8-3.45-.81-2.84 7.71-19.27 6.49-23.52-1.01-2.84-41.57-9.53-12.98-3.85-5.88-3.04-6.08-1.62-3.24 1.22M3841.85 2196.15l-3.85 2.03-49.88-.2-13.59-3.25-8.11-10.95-6.89-4.06-3.85-.41-9.53-6.08-.41-6.89-10.34-.81v4.87l10.75 2.43M3735.38 2170.39l-12.17 19.47 1.22 1.82 6.29 2.23 8.52 7.91-4.46 14.6.813.45 26.36 9.53 25.15 11.56 32.24 3.24M3735.38 2165.53l-20.68-21.09-6.29-7.71 1.42-29.2 3.45-14.2 1.01-15.41-3.65-1.62v-3.65l5.68-7.3 120.66-100.99 3.24-0.210.828.72 47.7.95M4050.68 1958.97l2.47-0.280.6713.59 29.61-0.28.32-9.94 2.64-3.45 1.83-18.86 1.62-1.82 17.03 1.42 1.82-1.82 7.91-88.82M4072.82 1972.27l-12.57 15.21" style="fill:none;fill-rule:evenodd;stroke:#699bc1;stroke-width:1px;stroke-linecap:butt;stroke-linejoin:round;stroke-opacity:1"/><path d="m4206.86 1939.42 89.48 8.31 1.72-2.01 8.6-35.85 7.74.298.03 4.59 22.08 4.3 10.32-0.860.442.29 8.89 38.72-9.18 49.04-3.73 2.87 5.74 6.6 50.47-5.45 49.61-20.93 1.72.86v5.74l-7.74 13.48 13.77 13.77 10.32-10.04-16.63-17.21" style="fill:none;fill-rule:evenodd;stroke:#699bc1;stroke-width:1px;stroke-linecap:butt;stroke-linejoin:round;stroke-opacity:1"/><path d="m4306.66 1909.88 3.15-13.77 6.88-0.860.4410.9 1.43 1.43-0.29.9M4333.62 1559.43l61.22-15.03 25.96-25.55 26.36-17.03 23.52-19.47 9.33-11.36 27.58-18.25 62.46-85.57 3.65-14.6 3.65-33.66 21.9-42.18 6.08-4.46 81.52-34.07 29.34-15.73 11.47-2.58 15.77-12.62 17.78-0.86.79-7.74v-5.45l-11.18-20.07 1.72-33.27 3.73-48.18 18.64-74.56 13.19-41.01 11.76-63.95 22.37-41.58 4.61-13.22 7.3-45.42 17.03-23.12 66.11-106.26 36.91-42.58 64.08-27.98 125.73-94.5 15.01 2.03 6.08-5.27 16.25-29.16 19.89-9.01.34-47.15 1.43-2.58-2.01-11.76 1.15-2.58 87.47-19.79 14.91-8.03 38.72-30.97 11.76-6.02 37.57-5.74 29.82-12.04 5.45-0.290.4413.77 12.91 1.43 15.77-2.58 13.77-3.44 28.96-23.23 15.77-6.02 51.91-11.76 73.13-20.36 46.46-1.72 8.03-4.01 26.96-24.09 21.22-9.46 4.59 2.29 6.88 39.29 7.74 12.04 14.63 16.06 23.8 41.01 4.01 1.72 6.6-3.73" style="fill:none;fill-rule:evenodd;stroke:#699bc1;stroke-width:1px;stroke-linecap:butt;stroke-linejoin:round;stroke-opacity:1"/><path d="m5733.21 2306.05 20.68-8.52 24.74-12.98 63.27-18.25 19.87-5.27 16.63-9.33 30.42-27.17 36.1-26.77 47.86-27.98 61.24-37.31 21.5-10.95 10.95-4.06 36.1-2.84 42.99-1.62 55.16-6.89" style="fill:none;fill-rule:evenodd;stroke:#b7037f;stroke-width:5;stroke-linecap:butt;stroke-linejoin:round;stroke-miterlimit:4;stroke-dasharray:none;stroke-opacity:1"/><path d="m6220.7 2106.11 3.65-4.06 2.43-7.5 1.42-24.54 5.48-16.22 10.75-20.89 16.02-16.43 2.84.811.82 4.46 3.04.4150.09-29.61 1.42-4.26 11.36-9.12 14.8-6.29.81-3.85 13.99-7.1 16.83-1.22.811.22.619.12 1.42 6.08-.81.61-8.72.41-9.33 2.23-5.48 2.43-2.23 1.82-5.88 1.22-7.5 3.24-7.1 5.47-4.26 4.06h-1.62l-6.29-5.07-2.84-1.01" style="fill:none;fill-rule:evenodd;stroke:#b7037f;stroke-width:1px;stroke-linecap:butt;stroke-linejoin:round;stroke-opacity:1"/><path d="m6244.42 2032.9-25.35 16.22-10.75 9.94-5.27 19.06 1.62 3.65 4.46 2.43 13.18 12.57 2.03 5.27M6220.7 2106.11l1.82 2.64-17.24 49.28 2.03 33.26h3.85l31.03-20.68 7.1-2.64 3.65.6113.79 13.79 8.31 14.4 2.84 13.38-1.01 11.96-7.5 11.96-9.53 12.98v4.26l1.01 4.87 2.43 1.22 4.87 2.43 5.68-2.23 18.66-15.21.2-2.64-5.27-9.12 1.62-4.26 11.36-6.29 9.33-8.31 7.3-11.96 5.68-12.78 8.72-9.33 15.21-23.12 7.91-26.56-.81-4.26 7.91-23.73 8.11-5.27 16.02-8.11 7.1 1.01 31.43-22.1 1.42.81-3.45 26.97-1.62.81-27.78-6.49M5734.42 2306.31l-5.51-.39-9.3-7.54-36.77-14.56-15.73-10.94-12.37.56-7.6 5.59-21.72 9.75-36.13 11.76" style="fill:none;fill-rule:evenodd;stroke:#b7037f;stroke-width:1px;stroke-linecap:butt;stroke-linejoin:round;stroke-opacity:1"/><path style="fill:none;fill-rule:evenodd;stroke:#ed028c;stroke-width:1px;stroke-linecap:butt;stroke-linejoin:round;stroke-opacity:1" d="m4050.57 1952.61 24.66 18.64 4.01 6.88 65.67 41.3 3.73 79.44-10.32 33.27-2.29 35.56-5.16 25.81-26.67 28.39-4.3 46.74 2.01 5.16 7.46 10.9 1.15 7.74-12.9 30.97 1.43 5.74 7.74 12.33 16.35 9.46 31.26 31.83 10.04 24.95 23.8 21.22 1.72 4.88-10.61 8.6-0.290.320.07 38.43 14.63 19.5 12.62 10.32 39.58 71.69 5.57 5.55-0.02.96"/><path style="fill:none;fill-rule:evenodd;stroke:#f7931d;stroke-width:5;stroke-linecap:butt;stroke-linejoin:round;stroke-miterlimit:4;stroke-dasharray:none;stroke-opacity:1" d="m9878.5 1285.5-106.03.5-45.5 19.5-33 27-22.5 20-38.5 17-64.5 7-33 10.5-5.92 7.52-20.49 30.77-10.09 39.22-11.01.5-8.5 52-8.5 20-6.5 18.5-11.02.5-23.02.5-34.5 9-65 3.5-149.5 3.5-168-18-150-8.5-23.5 1.5-26.5 8.5-32.02.5-32.03.5-35.5 41.5-57 56-61 26.5-135.5 26-89.5-24.5-149.5-36-48.5-10.5-121-12-75-25-55-21.5h-35l-35 10.5-80.05.5-45.5 5H7674l-39 14-65.5 48.5-132.5 94-40.5 16-206.5 65.5-222.07.5-169 89-33.5 30-15 24.5-34 52-66.5 62-36 21.5-39.5 15-70 5-69 22.5H6404l-42.5-19-128.82-97.92-49.68-41.09-24.5-12-62-24.5-50-5-77-1.5-53.5-21.5-58.5-21.5-42-2-72 .5-39 20-44.5 35.5-28.5 13.5-72.5 9.5-86.5 11.5-36-4-99.5-36-136.5-39-26-3.5-39.03.5-60.5 19-48.5 17.5-36.02.5-34.5 29.5-80.5 72-36.5 23.5-49 21-75 20.5-36.5 2-74-4.5-22.04.5-29.5 13-23 24-29.5 47.5-23 27-25.5 22-29 15.5-28.18 5.04-18.21.18-22.27-3-18.38-9.19-38.95-23.02-24.5-23-98-138.5-30.5-27-39.5-22-104.5-47-35-5-64 10-203.5 41-175 46-43 31-127 95.5-22.5 31.5-28.5 59.5-1 40 5.5 86.5-13 63-30 76.5-1.5 27 52 632.5 81.5 1071.51.144.5 33.5 401.5 34.5 238.53.121.5 4 30-2 66.51.54.51.50.5 5.53.2.5 15-2 12-25 47.5-50.5 63-8 27-1 36 3.5 28 9 19.5 22.5 18 18 3.52.20.5 45 21 70 62.53.8.5 36.5 1 47-16 52.5-20.53.3.53.14.5 78 53 326.5 261.51.120.5 139 125 25 30.5 16.5 8.5 20.5 5 428-30.5 93 20 37.5-3.5 23.5-16.05.5-63 15-14.5 18-8 20.52.17.5 9.51.17.5 5.5 18-7 109.5"/><path style="fill:none;fill-rule:evenodd;stroke:#f7931d;stroke-width:5;stroke-linecap:butt;stroke-linejoin:round;stroke-miterlimit:4;stroke-dasharray:none;stroke-opacity:1" d="m9633 1400.5-20.09 10.53-45.96 7.07-42.43-3.54-39.24-13.08-25.1-23.33-11.31-37.12-8.13-35.71-102.24-223.82-23.5-37.5-19.5-21L9100 805l-11.5-15.5-9-20-8-31.5-2-21v-19.5l33-173-6.5-18-17-18-23.5-12.5-392-122.5-34.5-4.5-38.5.5-32 7.5-173.5 65.5-61 26-165.5 54-44 24.5-233.02.5-83.05.5-82.5 62-54.5 26.5-58.5 47-67 23M4033.84 1943.12l-151.67 230.52-14.35 34.41-5.27 29.34 5.14 24.91 14.97 26.98 18.87 16.95 26.62 13.79L3965 2326M6361.5 2464.5l19 31 10.5 58 8 19 14.52.14.52.24.5 18 23 10.5 40.5 4.5 29-6 55.5-19.03.5-4.03.5-1.54.12.5 26.5 20.5 43.5 34 53 22 25 22 28 54 19.5 30.5 11.5 36L6929 3065l7.5 19.5 17 17 15 4.5 19 4 81.5-17.5 49.5 3.5 13.75 9.5 11.12 13.5 16.88 13.38 28.25 17.88"/><path style="fill:none;fill-rule:evenodd;stroke:#f7931d;stroke-width:5;stroke-linecap:butt;stroke-linejoin:round;stroke-miterlimit:4;stroke-dasharray:none;stroke-opacity:1" d="m8667 1545.51.24.5 6 21 8.5 14 10 8 12.58.20.5 4.5 47-4 29.5-.5 68 11.5 23.5-2.5 25-10 21.5-14.5 30.5-34 28-23.5 59.5-42.01.5-56.5 153-74 30-4 95 14.5 40.78 15.48M9612.91 1411.03l34.09-4.53 31 8 94 32 23.97 3.61 75.53 9.39 33-4 108-30 178 17 199-74.5 93-57 660-171.5 224.5-48.03.49-14.1 337.25-219.77 46.26-29.64 164-52 123-37.5"/><path style="fill:none;fill-rule:evenodd;stroke:#f7931d;stroke-width:5;stroke-linecap:butt;stroke-linejoin:round;stroke-miterlimit:4;stroke-dasharray:none;stroke-opacity:1" d="m12129.5 963-70-11-31 .5-45.5 6.5-25.02.5-21-4.5-20.5-16.5-12-13.5-8-21.5-1-15.5 8-65 8.5-18.5 14-16 19-13M5631.5 2307l15.5 6 13 12 16 88.52.364.5-2.5 31.5-10.5 31.5-16 26-24 36.5-24 71-13 25.5-18.5 16.5-21 14-21.5 7.5-55.77 18.5-23.73 13.12-19.33 20.88-10.88 22.18-4.24 26.87 2.45 116.45 7 20 10.5 21 .5 15.5-8.5 22.5-21 27-23 13-44 16-98 8-20.5 7-103 45.5-19.5 19-10 28.5-3.5 30.5-.5 33-10.5 37-33.5 45-68.5 61.5-34 19-62 48.5-32 9-24 17-12 15.5-13.05.5-8.5 23.5-28.5 29.5-56 35-31 7-34-2-59-15-44.5 1-35 15.5-114.08.5-33 39-12.5 28-170 513-10 60.5-45.01.5-24.03.5-21 20-23 8.5-133.05.5-28 11-18 15-19.5 28.5-110.5 263.5-12.03.5-23 17-21.5 8.5-30-.5-144.5-37.5-15.5-.5-13 4-15.5 11-5 8-6 21.5M3813.5 6149.5l233 219.5 799 1273 19 43.5 206 528 18.5 33 25 23 164.51.21.5 24.5 19.5 34 11 31 10.5 53 138 880.5 8 35 14 24 40 50 26.5 28.5 69.5 122 14 44-3.5 26-19 32-47 102-25 42-18.5 13-34.5 7-27.5 6-23 9-20.5 19.5-24.05.5-8 40-10.5 40.5-23.5 32.5-26 14-19.5 1-77-17.5-56-9.5-94.5-1-12.46-3.53-8.14-5.97-65.89-93-18-28.5-12-47-16-15.5-33-12.5-20-9.5-13-15-2.5-14.03.5-28.5M7592.56 5044.47l-10.06 2.03-93.02.5-18.5 8.5-100.06.5-106.5 50-86.5 45.5-75.05.5-56.5 39-38 18.5-46.01.5-17.5.5-37.5-2-28.5 4.5-58 38-17 17.5-27.04.5-25 14-26 5-51 6-95-18.5-25 2-23 7.5-20.5 17-34.5 45-19.5 15.5-39.5 15.5-28.5 6-67.5 3.5-27.5 5.5-34.5 15.5-30 23-118 79.5-123.08.5-43.5 34-38.5 44-30 41.5-31.03.5-58.5 23L5665 5958l-32 1.5-67-5-173.5 35-41.5-1-30.5-6-138.5-51-49.5-2.5-48-2-184-37.5-386-23.5-563.5 6.5-57-11-226-83-35.5-1.5-78 2-16 5-8 6-9.5 13M125 6238l23-29.5 33.5-23.5 43.5-16.09.54.09.518.04.570.1.5-42.04.5-22.03.5-6.1.5-40 27-17 25-25.5 14-20.5 14.5-50.5-5-65-6.5-29.5-1.5-35.5 7-14.5 17.5-11.5 50.5-21.5 22.5 3.5 19.5 11 134 187.5 17.5 13.53.11.5 28.5-2 257-90.5 29-1 133.54.33.5 15.5 21.51.18.5 4.5 19.5-4.5 110.5-29 16-14.5 25-26 8.5-18"/><path style="fill:none;fill-rule:evenodd;stroke:#f7931d;stroke-width:5;stroke-linecap:butt;stroke-linejoin:round;stroke-miterlimit:4;stroke-dasharray:none;stroke-opacity:1" d="m5644.6.1.5-23.01.5-22 18-9.5L6233 9499l302-32.5 19-6 14.5-7.5 83-74M1546.24 5768.93l288.26 142.57 34.5 7 193 16 17.56.21.5 15 66 73.51.132.5 11.58.10.5 4 13-.5M5338 5397.5l-32 5.5-15 6-28.5 23-30 43-21.5 30-52 58.5-10 21-2 23 1.5 31.5-2 21-8 17-9 15-20 28-23 15.5-25 10-54.5 9.5-40-2-39.5-19.5-14.5-4-18 1-15 4-20.5 12-21.5 8.5-13 2h-15l-19-6.5-32-15-19-4-99.5 4.5-121-10-86 10.5-24.5-2.5-44-5-28 5-29.5 15.5-52.04.5-20.5 22-17 32.5-11.5 15-15 9.5-19 4"/><path style="fill:none;fill-rule:evenodd;stroke:#4896d2;stroke-width:5;stroke-linecap:butt;stroke-linejoin:round;stroke-miterlimit:4;stroke-dasharray:none;stroke-opacity:1" d="m6108.76 5714.84 99.36-68.54 53.13 2.03 73-45.02 100.58-13.79 7.71-5.27 4.87-6.89 1.22-43.4 2.03-14.19 4.46-6.08 12.17-7.71 4.06-6.89 3.24-12.57 8.52-19.87 13.79-18.66 10.54-3.24 23.52-0.81.48-15.82 28.8 4.06 12.98 10.14 17.44 2.43 12.17-4.87 10.54-6.49 14.6-12.98 9.73-3.65 17.84 2.84 7.3-2.84 5.68-7.71 7.71-19.06 8.52-7.71 36.91-17.44 19.06-9.73 16.22-5.68 13.38-14.19 21.09-9.73 25.15 3.24 10.95-2.03 12.57-9.73 21.09-8.52 12.98.819.73 7.3 15.82 19.47 8.92 5.68 8.52-2.84 27.98-25.55 6.08-11.36 27.17-20.28 8.92-8.92 10.54-17.84 39.75-27.17 25.96-0.81.63-5.27 11.76-15.41 19.06-16.63 8.11-12.98 9.33-20.68 12.98-6.08 16.22-0.410.846.89 15.01 2.43 46.64-10.54 37.72-24.33 12.57-11.36 6.89-2.03h9.33l13.38 4.46 12.57-0.82.71-4.46 12.57-10.14 8.52-4.06 17.84.418.11-4.06 5.27-5.27 3.24-16.22 5.27-10.54 18.25-10.95 11.36-1.62 20.68 2.84 13.38 6.49 8.92-2.43 11.36-11.76 8.52-3.65 16.63.4138.93-6.89"/><text x="89.45" y="206.96" xml:space="preserve" style="font-style:normal;font-weight:400;font-size:144px;font-family:Sans;-inkscape-font-specification:Sans;fill:#000;fill-opacity:1;stroke:none"><tspan x="89.45" y="206.96">2000</tspan></text><text x="89.45" y="14697.96" xml:space="preserve" style="font-style:normal;font-weight:400;font-size:144px;font-family:Sans;-inkscape-font-specification:Sans;fill:#000;fill-opacity:1;stroke:none"/><path d="m5303.57 2336.62-2.63 3.2-12.33 1.74-13.26-1.13-5.64 7.05-15.24-1.98-11.85-9.31-14.67 1.13-15.24 3.1-9.03-1.41-14.39.56-16.93 9.03-41.2 5.36-29.35 5.64-76.76 6.49M5265.19 2166.16l1.13 4.8M5261.66 2173.08l4.66-2.12" style="fill:none;fill-rule:evenodd;stroke:#e3000b;stroke-width:1px;stroke-linecap:butt;stroke-linejoin:round;stroke-opacity:1"/><path style="fill:none;fill-rule:evenodd;stroke:#ed028c;stroke-width:1px;stroke-linecap:butt;stroke-linejoin:round;stroke-opacity:1" d="m3986.22 2373.73-2.54-1.13-7.62-6.21-3.67-.56-6.21 7.62.853.1 15.52-1.98 7.06-1.41 9.6-7.9 12.7-11.01 3.39-0.850.062.54 36.12 10.72 32.29 14.15 28.11 15.48 19.19 18.91 8.75 2.54 14.67 18.62 6.57 10.35"/><path style="fill:none;fill-rule:evenodd;stroke:#ed028c;stroke-width:5;stroke-linecap:butt;stroke-linejoin:round;stroke-miterlimit:4;stroke-dasharray:none;stroke-opacity:1" d="m4271 2597.68.8912.78 10.71 32.89"/><path d="m4276.01 2598.45-.5-6.49 21.85-16.66 83.66-49.19 15.24-5.93 64.34-56.16 72.53-35.84 41.2-35.56 7.62-10.16 65.47-47.41 9.6-11.85 49.67-69.71 91.72-115.99 3.42-1.27 4.8 1.3 11.43 3.63" style="fill:none;fill-rule:evenodd;stroke:#00a54f;stroke-width:1px;stroke-linecap:butt;stroke-linejoin:round;stroke-opacity:1"/><path style="fill:none;fill-rule:evenodd;stroke:#00a54f;stroke-width:5;stroke-linecap:butt;stroke-linejoin:round;stroke-miterlimit:4;stroke-dasharray:none;stroke-opacity:1" d="m4275.81 2597.26 1.1 12.97 10.48 31.73"/><path style="fill:none;fill-rule:evenodd;stroke:#00a54f;stroke-width:1px;stroke-linecap:butt;stroke-linejoin:round;stroke-opacity:1" d="m4287.69 2640.56-1.050.499.97 27.23 8.24 14.47 3.92 1.44 35.56-16.78 5.02 1.72 40.72 39.15 25.81 56.64 15.49 18.93 17.49 11.18 31.26 14.63 5.85 4.53 7.62 4.73 29.9 18.43 8.27 2.75 12.74 1.99 14.12 18.26 55.1 12.11 13.15.5"/><path d="m4281.8 2641.95 3.86 4.27 9.96 27.49 8.6 14.77 13.14 14.31.178.47-2.26 17.21-17.78 38.1 1.41 2.54 12.42 5.08 1.98 4.23-11.57 38.66-6.77 18.91-1.13 11.29-5.93 30.48 3.1 6.77 6.49 2.82 3.95-1.41 14.96-4.8 40.36 3.67 13.55-3.95 20.88-11.57 17.21-7.62 14.96-11.29 10.44-14.11 8.47-2.82 22.86-2.26 9.74-3.81 7.55-7.48 4-1.65 37.92 23.37 8.03 2.58 12.62 2.01 14.34 18.35 54.49 12.04 13.19.2917.34-1.77 17.5 2.92 26.81 11.85 75.07 51.36 53.62 27.66 22.29 3.67 18.63 11.57 5.93 9.31" style="fill:none;fill-rule:evenodd;stroke:#ed028c;stroke-width:1px;stroke-linecap:butt;stroke-linejoin:round;stroke-opacity:1"/><path style="fill:none;fill-rule:evenodd;stroke:#ed028c;stroke-width:1px;stroke-linecap:butt;stroke-linejoin:round;stroke-opacity:1" d="m4304.22 2688.48 4.57 1.52 35.92-16.71"/><path d="m9450.61 1677.01 8.32 16.63 9.75 56.5-9.46 30.68-11.47 7.74-21.51 5.16-32.12 16.92-4.59 4.01-1.43 6.88 1.43 12.04-0.86.34M9458.93 1693.64l.86-6.88 4.3-5.74 7.43-1.6" style="fill:none;fill-rule:evenodd;stroke:#000;stroke-width:5;stroke-linecap:butt;stroke-linejoin:round;stroke-miterlimit:4;stroke-dasharray:none;stroke-opacity:1"/><path style="fill:none;fill-rule:evenodd;stroke:#ca5f8f;stroke-width:5;stroke-linecap:butt;stroke-linejoin:round;stroke-miterlimit:4;stroke-dasharray:none;stroke-opacity:1" d="M9886.8 1122.95v3.73l-6.88 14.63.2922.08-2.87 29.82.5724.09-4.74 31.96 3.67 25.21"/><path d="m5146.83 9838.33-10.01 83.45-2.82 3.67-4.57 4.14-23.64 12.09" style="fill:none;fill-rule:evenodd;stroke:#bfd730;stroke-width:5;stroke-linecap:butt;stroke-linejoin:round;stroke-miterlimit:4;stroke-dasharray:none;stroke-opacity:1"/><path style="fill:none;fill-rule:evenodd;stroke:#05a1e6;stroke-width:1px;stroke-linecap:butt;stroke-linejoin:round;stroke-opacity:1" d="m4950.59.32.5 36 39 53.5 4 17-3 390.5 6.5 13-1 8.5-4.02.5-115.01.5-8.5 3-8 6.5-5.25 13.5-2.75 3.88-0.620.8826.25 41.38 37.88 83.88 2.5 8.31.42.69 5.69 29.93 4.09 8.01"/><path d="m4616.71 9300.31-10.16 3.19-5.51 5.23 1.81 4.47 4.14 1.37 2.87-2.31 1.62-8.04 5.23-3.91 13.54 2.95.16.25 34.5 6 28 .25 50.5 10.25.6.25 13.5 9.75 11.75.9.25 3.5 21.88-7.01.940.190.4441.81 37.62 83.19 2.43 8.44 2.97 42.37 5.7 30.12-0.59.28" style="fill:none;fill-rule:evenodd;stroke:#80cc28;stroke-width:1px;stroke-linecap:butt;stroke-linejoin:round;stroke-opacity:1"/><path d="m4924.44 10756.5-9.9-.88-2.47-2.48-4.95-14.32-15.91-84.5-1.59-24.75 2.47-17.86v-8.31l-1.41-7.25-4.77-10.43-1.06-6.54 3.18-44.9 5.3-21.39v-8.13l-10.78-30.41-1.41-10.08 1.41-8.13 4.07-7.25 11.67-15.38 33.06-47.55 7.95-11.31.15-3.1-9.75-7.44-25.31-25.44 1-6.56" style="fill:none;fill-rule:evenodd;stroke:#05a1e6;stroke-width:1px;stroke-linecap:butt;stroke-linejoin:round;stroke-opacity:1"/><path style="fill:none;fill-rule:evenodd;stroke:#f7931d;stroke-width:5;stroke-linecap:butt;stroke-linejoin:round;stroke-miterlimit:4;stroke-dasharray:none;stroke-opacity:1" d="m3206.55.11.5-10 39-36 18-7.5 68-3h52l13.59.10.5 14"/><path d="m3531.84 5899.32 8.11 4.39 7.54 2.69" style="fill:none;fill-rule:evenodd;stroke:#006bb4;stroke-width:5;stroke-linecap:butt;stroke-linejoin:round;stroke-miterlimit:4;stroke-dasharray:none;stroke-opacity:1"/><path d="m5083 2264.5-26.5-1.5-20-10-15-14.5-8-16-4.5-18.5 5.5-112.5-2-17-9-16.5-72-130.5-5.5-21-20.5-88-15.5-20-21-11.5-20-4-54.5-4-30-14-30.5-36-18-32-14.5-57-7-47.5 5.5-26.5 10.5-20.5 39.5-31 25-41 52.5-30.02.1-33.47" style="fill:none;fill-rule:evenodd;stroke:#f7931d;stroke-width:5;stroke-linecap:butt;stroke-linejoin:round;stroke-miterlimit:4;stroke-dasharray:none;stroke-opacity:1"/><path style="fill:none;fill-rule:evenodd;stroke:#f68c58;stroke-width:5;stroke-linecap:butt;stroke-linejoin:round;stroke-miterlimit:4;stroke-dasharray:none;stroke-opacity:1" d="M5377.75 10527.75h4.75l12.75-8.01.5-0.510.251.76.3.25 65.75 46.25 21.52.20.25 15.5 19.75 11.5 9.25 7.75.11.25 9.25 12.25 17.25.11.5 10.25 58.5 49.58.42.75 11.5 1 79-9.25 14.25.15.25 6.25 13.75 12.75 109.5 101.5 9.75 12.75 8 17 3.75 14.5 11 57 1 35.75-3.75 7.75-14.25 30.5-2 14 3.51.18.5 33.26.12.75 3.25 17-3 14.75-6.75 14.75-100.5 105"/><path style="fill:none;fill-rule:evenodd;stroke:#f68c58;stroke-width:1px;stroke-linecap:butt;stroke-linejoin:round;stroke-opacity:1" d="m5377.75 10527.75-10.43-7.61-9.39-6.94-9.59-17.56-14.9-17.76-17.76-15.92-25.11-25.72-28.99-27.76-15.11-21.23-21.43-36.95-14.29-17.56-10.41-10-7.14-7.55-15.31-32.66-3.27-13.06-1.43-9.39v-28.58l3.06-12.66-3.06-2.65-3.06-.2-75.41 6.81-16.86 6.44-13.18 1.12-12.82 4.26-5.98-1.42-17.39 4.4-13.86.51-16.67-5.05-23.24-.14-8.08-2.24-5.92-3.61-25.98-2.89-6.13.29-4.84-.87-18.04.87-13.86-1.3-17.11-4.4-22.59-3.39-79.03-2.89h-83.11l-113.17-5.05-1.66 1.51-5.12 33.2-0.510.774.72 45.23 3.86 15.04-3.03 5.41-20.29 13.85-5.01.33-68.9 9.9-21.84 7.86-27.56 8.98-10.92 3.16-11.43.1-1.94 1.63"/><path style="fill:none;fill-rule:evenodd;stroke:#f68c58;stroke-width:5;stroke-linecap:butt;stroke-linejoin:round;stroke-miterlimit:4;stroke-dasharray:none;stroke-opacity:1" d="m4408.06 10393.47-2.55 3.16-14.6 25.93-14.09 16.33-11.84 8.16-11.43 5.31-176.38 26.34-322.14 93.5-92.07 21.43-12.86 1.43"/><path style="fill:none;fill-rule:evenodd;stroke:#f68c58;stroke-width:1px;stroke-linecap:butt;stroke-linejoin:round;stroke-opacity:1" d="m3750.1 10595.07-7.76 1.23-29.19 11.64-33.28 10.41-54.51 2.65-54.91 10.41-3.47 2.04-8.17 8.17-14.7 6.74-8.57 6.94-2.45 2.86-19.19 38.38-11.64 12.66M4772.5 10212.47l4.75 3.8 6.17 8.57 5.73 3.87 72.73 2.78 13.29-2.04 11.68-7.56"/><path d="m6473.12 1539.75 4.44 3.32 16.19 9.93 31.25 18.75 8.5 7.5L6550 1620l21.25 19.25 14.75 8.25 44.75 12.53.2.25.5 9L6645 1712l15.25 18.5 7.75 17.25 11.5 11.75 8.5 9.75 5.76.3.75 6.25 1.75.6.25 16.55.15.5 15.5 3.25 16 18 7.75 13.75 14.5 3.75 16.5.7521.5-4.040.754.5 17.25 9.75 22.25 3.5 29.75 2.75 18.5-4 22-9 72.75-25.75 20-4 11.5-2.03.25-2 26-1 8.75-4.25 6-3.5h7.25l10.75 7.75 14.25 11L7207 1857l9 3.25 34.25-2.01.750.750.52.75.5.99 6.08 5.07 1.42 23.62 3.45 17.34 4.36 1.27 42.18-15.82 141.8-51.88 29.93-6.41 25.97-0.980.632.45 6.12 16.9 3.92 2.94 34.3 10.29 34.05 31.85 10.04 7.35 33.56 11.27 46.8 27.2 72.25 45.07 11.77 1.36 24.65-2.45 15.45-4.47 32.73.812.35.33.01.8419.82 2.46 30.55 9.28 26.58 13.49 15.49 12.06" style="fill:none;fill-rule:evenodd;stroke:#81b8dc;stroke-width:1px;stroke-linecap:butt;stroke-linejoin:round;stroke-opacity:1"/><path style="fill:none;fill-rule:evenodd;stroke:#a6ce38;stroke-width:1px;stroke-linecap:butt;stroke-linejoin:round;stroke-opacity:1" d="m7460.63 2041.08-1.38 5.42-18.25 25.38-3.75 26.12L7303 2270.25l-1.25 10.75.99.75 2.75 26.25-2 15-4.75 11.25-54.25 46.5-33.25 35.75L7160 2574l-32.5 14.25-42.5 28.25-78.25 76.75-9.25 15.75-31.01.5-16.5 14.5h-4.75l-15-12.5-7.25-1.75-17 .75-6.75-2.5-1.5-2.75L6894 2705l-4.25-3-9.25-2.5-14.5-1.5-22.25.25-15-5.25"/><path style="fill:none;fill-rule:evenodd;stroke:#3b8476;stroke-width:1px;stroke-linecap:butt;stroke-linejoin:round;stroke-opacity:1" d="m7465.25 2044-5.41 3.46-17.96 24.86-3.62 26-134.25 172.31-1.31 10.81 21.06 99.06 2.75 26.56-2.02.38-4.62 11.06-54.75 46.88-33.62 36.31-71.01 58.19-32.48 14.14-42.51 28.37-77.78 76.32-9.46 16.04.355.3 4.27 9.94 8.12 6.75 3.62 6.12 13.38 23 27 39.12.12.12 10.5 36.62 17.88 34.75 6.12 3.75 6.75 3.75 7.38 8.25 2.25 5.62.20.62-1.75 26-29.75 42.75v5l2.38 6.5-1.5 5.25-4.25 10.75-1.02.753.010.255.38 10.12 8.39.20.38 14.52.15.12 15 19 14.75 11.75 34.88 22.25"/><path style="fill:none;fill-rule:evenodd;stroke:#a6ce38;stroke-width:1px;stroke-linecap:butt;stroke-linejoin:round;stroke-opacity:1" d="m8185 1189-9.75 3-8.06 5.44-28.94 22.56-13.75 15.25-5.01.75-10.25 7-11.25 18.25-45.75 66.5-21.02.5-3.08.5-3.5 23-6 16-6 7.25-38.5 47-20 29.25L7948 1506l-1.88 11 .62 11.25.12.25-0.75.5-2.25 15.75-20.25 33-6 11.5-0.75.751.02.75-1.05.25-2.75 2.75-30.75-1.5-13 1-11.25 4.25-26.12 12.75-32.88 11.5-39.6 21.47-5.39.64"/><path d="m8185.25 1189.94-9.38 2.94-8.06 5.38-28.88 22.5-13.44 14.81-5.25 11.19-10.44 7.19-11.25 18.12-45.06 65.69-21.44 22.06-2.88 8.31-3.44 23-6.12 16.25-5.75 7.06-38.75 47-20 29.38-6.19 15.44-1.94 10.75.8111.38.11.69-0.81.31-2.25 15.75-20.19 32.81-6.01.81-0.75.191.02.69-1.05.81-3.19 3.25-31.38-1.56-12.62 1.12-11.38 4.31-26.06 12.75-32.5 11.19-39.81 21.64-3.04.85" style="fill:none;fill-rule:evenodd;stroke:#3b8476;stroke-width:1px;stroke-linecap:butt;stroke-linejoin:round;stroke-opacity:1"/><path d="m1753.49 3530.05 5.37 29.79 3.98 16.11-1.04 45.56 4.68 21.65 1.56 14.38-1.73 17.67" style="opacity:1;fill:none;fill-opacity:1;fill-rule:nonzero;stroke:#f49392;stroke-width:5;stroke-linecap:butt;stroke-linejoin:round;stroke-miterlimit:4;stroke-dasharray:none;stroke-opacity:1"/><path d="m1753.49 3530.05-3.29-10.39M1766.31 3675.2l-1.91 25.46-7.45 20.61-2.6 8.14-12.47 20.44-1.04 4.5 1.21 5.72 7.28 19.23 5.02 10.74v4.5l7.45 13.16 7.45 22.69-0.35.98-6.06 10.57-4.85 14.2-1.56 9.18-1.91 29.27 1.91 1.73 15.24.529.35 2.77 4.85 5.72 1.91 4.68-1.39 22.17-5.72 8.66-502.16 182.92-0.750.1731.53 104.84.56.24-3.49 6.12-19.2 12.45-14.03 6.41-75.52 178.24-3.98 11.43-4.5 6.06-21.65 15.07v5.54l3.64 5.2v6.41l-.17 168.54" style="opacity:1;fill:none;fill-opacity:1;fill-rule:nonzero;stroke:#f49392;stroke-width:1;stroke-linecap:butt;stroke-linejoin:round;stroke-miterlimit:4;stroke-dasharray:none;stroke-opacity:1"/><path d="m4024.58 8434.1 39.92 115.44.70.5 10.5 14.5 24.5 19.5 21.5 13.5 26.54.25.5.5 52-12 30.55.21.5 7 17 8.5 21 17 20 23 24 64.55.70.5 14.52.7.5 22-4 19.5-25.5 56.5-20.05.5-6.55.2.5 51.5 14.5 43.52.51.5 62.5 85 24 27 308.53.18.5 24.5 8.5 23 14 124.5-1.5 25.5-2.5 18" style="fill:none;fill-rule:evenodd;stroke:#f7931d;stroke-width:5;stroke-linecap:butt;stroke-linejoin:round;stroke-miterlimit:4;stroke-dasharray:none;stroke-opacity:1"/><path style="fill:none;fill-rule:evenodd;stroke:#006bb4;stroke-linejoin:round;stroke-miterlimit:4;stroke-dasharray:none;stroke-opacity:1;stroke-width:5" d="m3001.41 4451.65-2.18-11.23 3.44-53.34 5.74-45.88 5.7-27.36"/></svg>