<svg xmlns="http://www.w3.org/2000/svg" height="1600" width="1050"><path d="M159.36 270.683l3.428 9.228 1.846 12.129-.527 25.312 3.427 20.038 5.01 18.72 28.212 57.216 10.81 18.193 12.13 11.074 16.083 14.766 7.12 14.765 1.581 40.341.528 22.675-7.91 38.232-2.637 16.611 2.11 23.73-1.32 11.338-6.063 22.148-1.319 16.61 10.02 25.313 3.164 11.865-2.9 16.347-3.428 8.438-7.383 8.7-18.984 18.721-8.701 13.974-3.164 12.656-.528 15.82v7.12l4.746 8.7 7.647 7.91 11.865 24.521 17.93 57.216" fill="none" stroke="#ef7d00" stroke-width="5" stroke-linejoin="round"/><path d="M242.152 901.11l3.955 8.437 4.746 18.72 23.73 39.55 24.785 28.74 25.312 36.123 11.074 11.074 7.646 6.592 15.82 26.63 4.219 1.846 16.611-2.637 19.511 1.318 7.12 9.229 14.765 8.7 32.167 11.602 7.91-.264 29.794-7.382 49.043 8.173 8.173 6.592 25.576 37.968 16.084 13.71 12.128 22.94 51.415 31.64 20.303 13.974 31.64 10.283 5.537 10.283 16.083 15.293 55.898 12.129 65.39 27.948 5.8 6.065 25.312 47.196 22.148 47.987 18.193 66.444" fill="none" stroke="#ef7d00" stroke-linejoin="round"/><text x="89.453133" y="206.96094" style="line-height:125%;-inkscape-font-specification:Sans" font-weight="400" font-size="144px" font-family="Sans" letter-spacing="0" word-spacing="0"><tspan x="89.453133" y="206.96094">2020</tspan></text></svg>