<svg xmlns="http://www.w3.org/2000/svg" height="5050" width="4550"><path d="m4297.5 902-152-81H4107l-183-97.25-24-25.25-96.25-57.5-26.25-9.5-56.75-32.5-30.25-2-16.25-6.5H3657l-25 8.75-71.5 5.25-18.5 4.5-29-1-29.5-11.5-25-10-11-12.5-3.5-20 14-74.5-4-26-12-18-30-18-140.5-77h-17l-18.12 4.5-29.12 9.75-21.061.62-63.75 55.88-22 29-209.5 407.25-10.25 10.25-32.37 20.89-197.28 319.61-13.44 44.9-44.19 55.15-27.93 42.43-31.47 30.05-439.11 525.73-32.17 41.01-30.05 51.62-186.32 330.93-20.86 33.59-14.85 20.15-21.21 21.92-145.31 119.5-300.17 230.87-174.3 159.45-28.28 29.34-135.06 120.21-59.4 60.81-55.15 48.08-27.93 27.22-29.7 35-212.49 267.29" style="opacity:1;fill:none;fill-opacity:.38;fill-rule:nonzero;stroke:#f41a28;stroke-width:5;stroke-linecap:butt;stroke-linejoin:round;stroke-miterlimit:4;stroke-dasharray:none;stroke-opacity:1"/><text style="font-style:normal;font-weight:400;font-size:144px;line-height:125%;font-family:Sans;-inkscape-font-specification:Sans;letter-spacing:0;word-spacing:0;fill:#000;fill-opacity:1;stroke:none" xml:space="preserve" y="206.96" x="89.45"><tspan y="206.96" x="89.45">2010</tspan></text><text style="font-style:normal;font-weight:400;font-size:144px;line-height:125%;font-family:Sans;-inkscape-font-specification:Sans;letter-spacing:0;word-spacing:0;fill:#000;fill-opacity:1;stroke:none" xml:space="preserve" y="4947.96" x="89.45"/></svg>