<?xml version="1.0" encoding="UTF-8" standalone="no"?>
<svg
   xmlns:dc="http://purl.org/dc/elements/1.1/"
   xmlns:cc="http://creativecommons.org/ns#"
   xmlns:rdf="http://www.w3.org/1999/02/22-rdf-syntax-ns#"
   xmlns:svg="http://www.w3.org/2000/svg"
   xmlns="http://www.w3.org/2000/svg"
   xmlns:xlink="http://www.w3.org/1999/xlink"
   version="1.1"
   id="svg2"
   width="5250"
   height="3650"
   viewBox="-1900 -500 5250 3650">
  <metadata
     id="metadata8">
    <rdf:RDF>
      <cc:Work
         rdf:about="">
        <dc:format>image/svg+xml</dc:format>
        <dc:type
           rdf:resource="http://purl.org/dc/dcmitype/StillImage" />
        <dc:title></dc:title>
      </cc:Work>
    </rdf:RDF>
  </metadata>
  <defs
     id="defs6" />
  <image
     xlink:href="../streetmap/wawosm.png"
     style="display:none"
     width="4337.813"
     height="3718.125"
     preserveAspectRatio="none"
     id="image10"
     x="-1023.75"
     y="-636.56299" />
  <text
     style="font-style:normal;font-weight:normal;font-size:143.99990845px;line-height:125%;font-family:Sans;-inkscape-font-specification:Sans;letter-spacing:0px;word-spacing:0px;fill:#000000;fill-opacity:1;stroke:none"
     xml:space="preserve"
     id="text2995"
     y="-293.03896"
     x="-1810.5469"><tspan
       id="tspan1"
       y="-293.03897"
       x="-1810.5469">1965</tspan></text>
  <path
     id="path820"
     d="m 813.87903,743.43082 31.46023,-14.8875 90.4483,-44.38143 10.8144,-3.79209 29.21314,-7.44372"
     style="opacity:1;fill:none;fill-opacity:1;fill-rule:nonzero;stroke:#ff7400;stroke-width:5;stroke-linecap:butt;stroke-linejoin:round;stroke-miterlimit:4;stroke-dasharray:none;stroke-opacity:1" />
  <path
     id="path5841"
     d="m 813.87903,743.43082 -10.8735,4.2256 -10.3284,0.9931 -19.2664,0.3973 -25.4237,3.1779 -40.9163,16.4857 -29.3962,7.7463 -22.8416,9.5339 -8.9381,7.15039 -10.7256,8.5408 -7.7463,3.9724 -11.5201,2.9794 -3.3766,1.9862 -4.5683,7.3491 -19.2665,66.34 -5.3628,24.4306 -3.3766,9.7326 -12.3146,18.6706 -2.9793,11.1229 0.9931,22.04709 2.5821,13.3077 4.5683,20.6568 -2.5821,18.2733 -0.3972,13.9036 2.5821,12.7119 6.7531,14.6981 13.9036,15.6912 -1.98619,4.171 -13.30774,7.7464 -49.6557,20.2595 -4.5679,-2.9796 -23.83475,-104.0783 -5.76006,-9.5339 -11.32151,-9.7325 -71.90148,-59.98419 -9.5339,-3.7738 h -30.98517 l -151.9465,10.1298 -24.50555,-1.41822"
     style="opacity:1;fill:none;fill-opacity:1;fill-rule:nonzero;stroke:#ff7400;stroke-width:1;stroke-linecap:butt;stroke-linejoin:round;stroke-miterlimit:4;stroke-dasharray:none;stroke-opacity:1" />
  <path
     id="path12725"
     d="m 674.49656,1925.0929 4.56832,10.7256 3.17797,2.1849 114.00953,39.7246 3.57522,-1.1918 1.7876,-1.589 -2.28973,-150.3589 3.87872,-3.5738 139.23467,-2.9793 54.81994,-12.9105 10.527,0.1986 3.3766,-2.5821 -4.1711,-109.6398 -3.5752,-47.4709 -9.1366,-85.8051 -14.6723,-58.5506"
     style="opacity:1;fill:none;fill-opacity:1;fill-rule:nonzero;stroke:#ff7400;stroke-width:1;stroke-linecap:butt;stroke-linejoin:round;stroke-miterlimit:4;stroke-dasharray:none;stroke-opacity:1" />
  <path
     id="path834"
     d="m 974.49588,1480.8778 -1.27048,-5.0699 v -7.5476 l 8.3422,-25.0265 0.3972,-7.9449 -35.35484,-94.7432 -15.294,-43.9949 -30.8859,-83.8189 -9.8318,-22.9409 -49.3578,-132.7794 -3.2773,-3.6745 -17.28016,-46.1798 -23.63612,-38.1356 -6.75318,-17.47889 -10.72563,-22.2457 -17.97538,-109.4413 -4.07177,-17.4788 2.5821,-4.767 17.3795,-10.92419 18.47193,-29.4955 0.59587,-4.5683 3.57521,-4.6677"
     style="opacity:1;fill:none;fill-opacity:1;fill-rule:nonzero;stroke:#ff7400;stroke-width:1;stroke-linecap:butt;stroke-linejoin:round;stroke-miterlimit:4;stroke-dasharray:none;stroke-opacity:1" />
  <path
     id="path842"
     d="m 975.8151,672.92608 1.9787,-11.07475 -7.5477,-24.03337 -4.96564,-28.80032 -7.349,-16.4857 -21.8485,-28.40306 -6.7532,-11.71875 -80.2437,-215.70446 -21.45123,-36.34799 -27.41,-39.72457"
     style="opacity:1;fill:none;fill-opacity:1;fill-rule:nonzero;stroke:#ff7400;stroke-width:1;stroke-linecap:butt;stroke-linejoin:round;stroke-miterlimit:4;stroke-dasharray:none;stroke-opacity:1" />
  <path
     id="path844"
     d="m 975.8151,672.92608 1.5814,4.02059 6.5546,17.47881 14.3008,20.45816 38.7315,52.43648 13.4094,14.3124 3.2303,0.4213 22.0503,-16.8537 4.2134,0.2809 10.1122,14.3257 4.4942,12.83649 12.6238,22.9003 23.3309,35.3296 10.9549,10.9549 28.5109,21.629 51.4038,29.9153 13.483,5.3371 332.8608,34.4097 69.9429,7.30319 220.924,77.2462 45.9264,31.8816"
     style="opacity:1;fill:none;fill-opacity:1;fill-rule:nonzero;stroke:#ff7400;stroke-width:1;stroke-linecap:butt;stroke-linejoin:round;stroke-miterlimit:4;stroke-dasharray:none;stroke-opacity:1" />
  <path
     style="opacity:1;fill:none;fill-opacity:1;fill-rule:nonzero;stroke:#ff7400;stroke-width:1;stroke-linecap:butt;stroke-linejoin:round;stroke-miterlimit:4;stroke-dasharray:none;stroke-opacity:1"
     d="m 619.67649,807.83927 -2.3835,4.96557 121.35859,229.01216 2.9794,9.5339 22.0471,84.6134 20.2595,51.4433 39.7246,104.6743 1.3904,10.1297 2.1848,79.6478 3.7739,21.6499 19.56435,91.6645 9.13665,32.5741 6.65381,2.5821 108.64716,-31.6806 4.59395,2.6254"
     id="path838" />
  <path
     id="path10170"
     d="m 974.4174,1480.9719 4.7669,0.7945 22.0472,-6.9518 5.9587,0.1986 5.3628,2.9794 8.3421,23.8347 30.1907,38.3342 11.3215,4.5684 22.2458,-2.9794 50.8474,4.1711 66.5387,-0.1986 29.7934,-5.1642 4.5684,1.9862 18.8691,110.633 5.1642,17.876 10.527,23.6361 12.3147,22.0472 71.3056,97.1266 99.9073,150.3575 47.6695,54.224 6.5545,7.7463 62.3676,99.1129 3.5752,9.7325 0.9931,10.527 -0.3972,12.5132"
     style="opacity:1;fill:none;fill-opacity:1;fill-rule:nonzero;stroke:#ff7400;stroke-width:1;stroke-linecap:butt;stroke-linejoin:round;stroke-miterlimit:4;stroke-dasharray:none;stroke-opacity:1" />
  <path
     id="path840"
     d="m 760.10283,797.60973 -3.6745,-0.1986 -2.7808,-14.69806 -13.3077,-32.77278 -13.0098,-32.07759 -5.85933,-8.83872 -60.28211,-106.46187 -5.36278,-8.14354 -10.32839,-6.25661 -88.08925,-32.9714 -46.875,-16.78364 -29.4955,-11.71875 -11.02357,-7.54766 -16.58501,-15.19466 -22.5437,-29.89274 -80.71372,-140.82389"
     style="opacity:1;fill:none;fill-opacity:1;fill-rule:nonzero;stroke:#ff7400;stroke-width:1;stroke-linecap:butt;stroke-linejoin:round;stroke-miterlimit:4;stroke-dasharray:none;stroke-opacity:1" />
  <path
     id="path12059"
     d="m 1139.0154,596.38198 -0.8427,-5.8988 9.2696,-7.02238 12.6403,-3.08985 7.0223,-4.77521 5.3371,-11.23581 11.7976,-37.92085 v -51.40382 l 8.4268,-21.06713"
     style="opacity:1;fill:none;fill-opacity:1;fill-rule:nonzero;stroke:#ff7400;stroke-width:1;stroke-linecap:butt;stroke-linejoin:round;stroke-miterlimit:4;stroke-dasharray:none;stroke-opacity:1" />
  <path
     style="opacity:1;fill:none;fill-opacity:1;fill-rule:nonzero;stroke:#ff7400;stroke-width:1;stroke-linecap:butt;stroke-linejoin:round;stroke-miterlimit:4;stroke-dasharray:none;stroke-opacity:1"
     d="m 975.81505,672.92623 12.5057,-5.11607 13.90365,-9.33527 25.0265,-16.08846 64.9496,-30.98516 11.5202,-0.7945 11.7187,-2.38347 7.2369,1.66541 11.2921,4.53822 4.5457,-1.49806 3.7842,-10.3269 -0.5518,-4.02065 -12.6021,-8.82995 -6.3559,-9.5339 -32.3756,-44.29289 -41.5121,-68.92214 L 1024.6688,414.566 935.11265,206.95398 805.93367,-75.389189"
     id="path824" />
  <path
     style="opacity:1;fill:none;fill-opacity:1;fill-rule:nonzero;stroke:#ff7400;stroke-width:1;stroke-linecap:butt;stroke-linejoin:round;stroke-miterlimit:4;stroke-dasharray:none;stroke-opacity:1"
     d="m 890.00793,1188.3915 -1.90396,3.9043 -101.00438,37.7124 -104.18492,35.4876 -10.72907,7.9501 -3.71075,4.8963 -39.61282,73.6615 -67.7797,122.4136 -8.7394,17.0815 -4.17066,10.7254 -160.68591,295.7494 -39.92321,73.8878 -80.8395,122.3516 -14.3009,23.8348"
     id="path828" />
  <path
     style="opacity:1;fill:none;fill-opacity:1;fill-rule:nonzero;stroke:#78344e;stroke-width:1;stroke-linecap:butt;stroke-linejoin:round;stroke-miterlimit:4;stroke-dasharray:none;stroke-opacity:1"
     d="m -1684.641,2818.0981 -122.6563,20.8312"
     id="path2542" />
  <path
     style="opacity:1;fill:none;fill-opacity:1;fill-rule:nonzero;stroke:#78344e;stroke-width:1;stroke-linecap:butt;stroke-linejoin:round;stroke-miterlimit:4;stroke-dasharray:none;stroke-opacity:1"
     d="m -1145.3542,2563.3529 -38.8624,19.3681 -23.5532,15.6992 -226.7568,166.5452 -23.0945,11.8113 -24.1834,6.8728 -202.8365,34.4486"
     id="path2538" />
  <path
     style="opacity:1;fill:none;fill-opacity:1;fill-rule:nonzero;stroke:#78344e;stroke-width:1;stroke-linecap:butt;stroke-linejoin:round;stroke-miterlimit:4;stroke-dasharray:none;stroke-opacity:1"
     d="m -993.35825,2448.6944 -3.6989,22.2736 -4.33055,12.6645 -7.3435,10.5942 -18.994,10.5026 -117.629,58.6236"
     id="path2534" />
  <path
     style="opacity:1;fill:none;fill-opacity:1;fill-rule:nonzero;stroke:#78344e;stroke-width:1;stroke-linecap:butt;stroke-linejoin:round;stroke-miterlimit:4;stroke-dasharray:none;stroke-opacity:1"
     d="m -877.32793,2113.9739 -8.0168,24.0502 -62.92052,106.9651 -6.0299,12.8463 -0.7865,9.9624 1.573,28.3142 -3.146,16.5166 -18.0896,33.5577 -9.9625,21.4978 -8.6515,81.0102"
     id="path845" />
  <path
     id="path841"
     d="m -877.32793,2113.9739 0.897,-2.691 8.6516,-9.7003 13.3706,-7.865 10.4867,-3.4082 77.86418,1.3108 13.6327,3.1461 47.7148,28.8385 14.9436,3.4082 14.4193,0.7865 178.7991,-34.8684 572.838998,-239.3602"
     style="opacity:1;fill:none;fill-opacity:1;fill-rule:nonzero;stroke:#78344e;stroke-width:1;stroke-linecap:butt;stroke-linejoin:round;stroke-miterlimit:4;stroke-dasharray:none;stroke-opacity:1" />
  <path
     style="opacity:1;fill:none;fill-opacity:1;fill-rule:nonzero;stroke:#78344e;stroke-width:5;stroke-linecap:butt;stroke-linejoin:round;stroke-miterlimit:4;stroke-dasharray:none;stroke-opacity:1"
     d="m 545.85785,1331.5951 7.8365,-12.2288 8.4432,-8.8472 6.286,-4.837 90.9815,-35.3531 127.23197,-43.3415"
     id="path2882" />
  <path
     style="opacity:1;fill:none;fill-opacity:1;fill-rule:nonzero;stroke:#78344e;stroke-width:1;stroke-linecap:butt;stroke-linejoin:round;stroke-miterlimit:4;stroke-dasharray:none;stroke-opacity:1"
     d="m 76.290648,1853.5709 16.2545,-11.2732 125.578802,-160.1851 23.557,-30.1968 14.8335,-9.1728 22.2355,-7.6902 15.1966,-9.2402 33.8777,-41.0172 4.897,-4.0942 12.4904,-20.5804 5.0437,-11.9503 8.7784,-11.0821 6.7286,-4.139 48.4149,-20.864 24.149,-2.209 3.0045,-1.6774 104.5271,-176.6039"
     id="path873" />
</svg>
