<?xml version="1.0" encoding="UTF-8" standalone="no"?>
<svg
   xmlns:dc="http://purl.org/dc/elements/1.1/"
   xmlns:cc="http://creativecommons.org/ns#"
   xmlns:rdf="http://www.w3.org/1999/02/22-rdf-syntax-ns#"
   xmlns:svg="http://www.w3.org/2000/svg"
   xmlns="http://www.w3.org/2000/svg"
   xmlns:xlink="http://www.w3.org/1999/xlink"
   version="1.1"
   id="svg2"
   width="1500"
   height="2800"
   viewBox="0 0 1500 2800">
  <metadata
     id="metadata8">
    <rdf:RDF>
      <cc:Work
         rdf:about="">
        <dc:format>image/svg+xml</dc:format>
        <dc:type
           rdf:resource="http://purl.org/dc/dcmitype/StillImage" />
        <dc:title></dc:title>
      </cc:Work>
    </rdf:RDF>
  </metadata>
  <defs
     id="defs6" />
  <image
     width="3305"
     height="2685.3125"
     preserveAspectRatio="none"
     xlink:href="file:///home/alexander/timelines/timelines/streetmap/../streetmap/wawosm.png"
     id="image10"
     x="-1850"
     y="189.6875"
     style="display:none" />
  <path
     style="opacity:1;fill:none;fill-opacity:1;fill-rule:nonzero;stroke:#393185;stroke-width:5;stroke-linecap:butt;stroke-linejoin:round;stroke-miterlimit:4;stroke-dasharray:none;stroke-opacity:1"
     d="m 116.5254,252.08474 308.8244,231.95951 18.0731,21.18924 10.9063,12.77586 19.3196,14.6455 21.5008,10.28301 33.9651,10.28301 26.7982,4.6741 88.4962,33.03027 9.0365,5.29731 5.609,8.72498 59.8284,105.63456 1.558,5.29731 4.3625,38.32758 8.4134,20.56603 20.566,29.29099 4.9857,16.82675 18.0732,109.37384 10.5946,22.12405 6.8553,17.76156 23.6821,38.3276 25.2401,66.9954 34.2767,100.9604 20.2545,37.7044 30.5374,82.8873 0.6232,19.008 -4.9857,64.8141 -6.5437,17.1384 -65.749,83.5105 -4.0509,13.7107 49.2338,178.2388 42.6901,139.2881 26.7982,76.3435 21.8124,28.9794 47.6758,57.9588 2.1812,11.2178 -11.841,56.7124 10.283,152.0639 4.9857,40.8204 5.9205,22.4357 11.8411,16.5151 180.1084,174.4996 14.3339,16.5151 18.6964,27.733 40.8205,60.7633 82.8873,140.846"
     id="path4506" />
  <path
     style="opacity:1;fill:none;fill-opacity:1;fill-rule:nonzero;stroke:#00923f;stroke-width:5;stroke-linecap:butt;stroke-linejoin:round;stroke-miterlimit:4;stroke-dasharray:none;stroke-opacity:1"
     d="m 1279.4629,854.23263 -62.0097,33.03028 -14.0223,10.28301 -8.1018,13.39907 -3.116,14.95711 1.2464,51.41505 -4.3625,17.13835 -9.9714,19.008 -12.4642,12.4642 -70.7347,56.7124 -16.2035,23.0589 -29.6026,23.0588 -23.9937,12.1527 -190.3915,64.5025 -178.5505,60.4517 -207.2182,80.706"
     id="path4535" />
  <text
     style="font-style:normal;font-weight:normal;font-size:143.99990845px;line-height:125%;font-family:Sans;-inkscape-font-specification:Sans;letter-spacing:0px;word-spacing:0px;fill:#000000;fill-opacity:1;stroke:none"
     xml:space="preserve"
     id="text2995"
     y="206.96104"
     x="89.453079"><tspan
       id="tspan1"
       y="206.96104"
       x="89.453079">2010</tspan></text>
  <text
     style="font-style:normal;font-weight:normal;font-size:144px;line-height:125%;font-family:Sans;-inkscape-font-specification:Sans;letter-spacing:0px;word-spacing:0px;fill:#000000;fill-opacity:1;stroke:none"
     xml:space="preserve"
     id="text2999"
     y="2697.9609"
     x="89.453133"><tspan
       id="tspan2"
       y="2697.9609"
       x="89.453133">2010</tspan></text>
</svg>
