<?xml version="1.0" encoding="UTF-8" standalone="no"?>
<svg
   xmlns:dc="http://purl.org/dc/elements/1.1/"
   xmlns:cc="http://creativecommons.org/ns#"
   xmlns:rdf="http://www.w3.org/1999/02/22-rdf-syntax-ns#"
   xmlns:svg="http://www.w3.org/2000/svg"
   xmlns="http://www.w3.org/2000/svg"
   xmlns:xlink="http://www.w3.org/1999/xlink"
   viewBox="-1950 -50 5300 2550"
   height="2550"
   width="5300"
   id="svg2"
   version="1.1">
  <metadata
     id="metadata8">
    <rdf:RDF>
      <cc:Work
         rdf:about="">
        <dc:format>image/svg+xml</dc:format>
        <dc:type
           rdf:resource="http://purl.org/dc/dcmitype/StillImage" />
        <dc:title></dc:title>
      </cc:Work>
    </rdf:RDF>
  </metadata>
  <defs
     id="defs6" />
  <image
     style="display:none"
     y="-91.67"
     x="-50"
     id="image10"
     xlink:href="../basemap/mhgosm.png"
     preserveAspectRatio="none"
     height="3068.33"
     width="3945.01" />
  <path
     id="path840"
     d="m 868,1072.59 -8.39,8.47 -7.26,1.59 -16.47,-1.95 -16.73,-3.05 -10.17,-3.84 -4.6,-8.18 -3.33,-12.11 -7.87,-35.72 -5.31,-5.81 -11.64,-10.33 -11.17,-7.24"
     style="fill:none;stroke:#ee7100;stroke-width:5;stroke-linecap:butt;stroke-linejoin:round;stroke-miterlimit:4;stroke-dasharray:none;stroke-opacity:1" />
  <path
     id="path850"
     d="m 1890.59,553.47 -14.62,1.44 -20.37,9.35 -65.68,37.63 -11.27,9.83 -6.95,10.31 -2.16,14.14 1.2,11.27 5.27,20.13 8.39,30.2 9.35,17.74 11.98,16.54 7.67,9.83 1.2,5.51 -0.72,4.31 -1.92,4.07 -15.1,7.19 -26.13,15.34 -23.01,10.55 -39.07,14.62 -15.34,3.36"
     style="opacity:1;fill:none;fill-opacity:1;fill-rule:nonzero;stroke:#ee7100;stroke-width:5;stroke-linecap:butt;stroke-linejoin:round;stroke-miterlimit:4;stroke-dasharray:none;stroke-opacity:1" />
  <path
     id="path877"
     d="m 776.1,807.29 -15.21,-9.32 -33.56,-7.43 -4.31,-4.79 -27.09,-52.01 -9.35,-10.79 -11.27,-8.39 -13.18,-5.75 -79.1,-27.57 -24.45,-23.73 -35.24,-60.88 -2.64,-10.79 0.72,-10.31 9.11,-29.48 25.41,-91.32"
     style="opacity:1;fill:none;fill-opacity:1;fill-rule:nonzero;stroke:#ee7100;stroke-width:1;stroke-linecap:butt;stroke-linejoin:round;stroke-miterlimit:4;stroke-dasharray:none;stroke-opacity:1" />
  <path
     id="path887"
     d="m 968.37,1051.11 -1.4,0.16 -2.81,-0.79 -2.64,-2.28 -3.96,-20.61 -10.31,-19.42 -39.91,-48.96 -1.73,-1.96 -4.91,-0.18 -27.36,20.24 -3.77,-0.41"
     style="opacity:1;fill:none;fill-opacity:1;fill-rule:nonzero;stroke:#ee7100;stroke-width:1;stroke-linecap:butt;stroke-linejoin:round;stroke-miterlimit:4;stroke-dasharray:none;stroke-opacity:1" />
  <path
     id="path863"
     d="m 1097.09,1009.5 10.47,-15.22 -1.5,-5.75 -22.05,-13.42 -0.72,-5.27 31.24,-49.95"
     style="opacity:1;fill:none;fill-opacity:1;fill-rule:nonzero;stroke:#ee7100;stroke-width:1;stroke-linecap:butt;stroke-linejoin:round;stroke-miterlimit:4;stroke-dasharray:none;stroke-opacity:1" />
  <path
     id="path893"
     d="m 1160.85,843.27 7.06,10e-5 12.46,8.63 8.63,6.23 9.83,11.27 6.95,13.66 4.55,13.66 1.2,14.14 v 10.07 l 2.65,2.66 21.72,-0.92 5.52,-3.82 8.34,-8.94 30.4,-67.61 c 0,0 5.82,-6.01 5.89,-6.06 l 6.67,-4.87 6.72,-6.24 7.04,-1.69 13.99,-5.59 h 0.01 l 11.51,-2.64 c 0.03,0 0.06,-0.01 0.09,-0.01 h 3e-4 c 0.07,0 0.13,0.01 0.2,0.03 l 7.91,2.88 c 0.07,0.03 0.14,0.07 0.19,0.13 l 7.91,8.39 c 0.02,0.03 0.04,0.05 0.06,0.08 l 7.43,11.98 c 0.04,0.07 0.07,0.15 0.07,0.24 l 1.2,22.46 4.76,13.55 4.69,8.45 11.04,4.93 6.08,1.89 209.32,14.4 c 0.01,-10e-5 16.33,2.23 16.33,2.23 l 12.69,0.89 5.1,-2.02 4.67,-11.63 6.95,-10.79 9.59,-9.35 8.87,-14.38 2.88,-14.14 -1.44,-16.54 -3.36,-9.35 -0.24,-3.6 2.88,-4.31 9.35,-0.24 26.13,-4.55"
     style="opacity:1;fill:none;fill-opacity:1;fill-rule:nonzero;stroke:#ee7100;stroke-width:1;stroke-linecap:butt;stroke-linejoin:round;stroke-miterlimit:4;stroke-dasharray:none;stroke-opacity:1" />
  <path
     id="path899"
     d="m 1214.17,923.58 -3.13,4.06 -1.2,13.42 -3.24,11.87 -4.07,9.71 -3.24,5.99"
     style="fill:none;stroke:#ee7100;stroke-width:1;stroke-linecap:butt;stroke-linejoin:round;stroke-miterlimit:4;stroke-dasharray:none;stroke-opacity:1" />
  <path
     id="path905"
     d="m 646.08,970.55 86.53,17.74 8.15,4.07 17.26,1.44 8.9,1.7"
     style="opacity:1;fill:none;fill-opacity:1;fill-rule:nonzero;stroke:#ee7100;stroke-width:1;stroke-linecap:butt;stroke-linejoin:round;stroke-miterlimit:4;stroke-dasharray:none;stroke-opacity:1" />
  <path
     id="path907"
     d="m 646.08,970.55 -336.3,-62.32 -28.28,-7.43 -21.09,-4.07 -4.07,-3.6 -23.01,-32.36 -11.75,-8.87 -8.15,-8.39 -4.07,-1.44 -5.75,1.2 -15.58,11.98 -13.18,16.06 -4.79,2.4 -70.95,34.04 -5.75,7.43"
     style="opacity:1;fill:none;fill-opacity:1;fill-rule:nonzero;stroke:#ee7100;stroke-width:1;stroke-linecap:butt;stroke-linejoin:round;stroke-miterlimit:4;stroke-dasharray:none;stroke-opacity:1" />
  <path
     id="path859"
     d="m 1095.12,1010.78 5.31,1.85 10.34,5.51 11.61,8.81 13.22,7.37 9.83,2.88 5.17,2.12 4.49,-0.34 39.81,-63.02 -1.64,-5.72"
     style="opacity:1;fill:none;fill-opacity:1;fill-rule:nonzero;stroke:#ee7100;stroke-width:1;stroke-linecap:butt;stroke-linejoin:round;stroke-miterlimit:4;stroke-dasharray:none;stroke-opacity:1" />
  <path
     id="path851"
     d="m 1114.53,919.87 45.84,-75.7 4.83,-7.84 19.19,-35.76 4.6,-9.49 -1.79,-6.41 -11.15,-5.03 v 0 l -1.53,-2.27"
     style="opacity:1;fill:none;fill-opacity:1;fill-rule:nonzero;stroke:#ee7100;stroke-width:1;stroke-linecap:butt;stroke-linejoin:round;stroke-miterlimit:4;stroke-dasharray:none;stroke-opacity:1" />
  <path
     id="path942"
     d="m 1299.43,825.13 2.46,-4.63 32.72,-55.49 6.45,-8.51 48.11,-39.28 39.05,-36.15 14.49,-10.58 22.12,-13.3 12.39,-7.75 19.36,-16.97 8.08,-5.78 11.23,-3.81 84.53,-15.47 10.79,-1.9"
     style="opacity:1;fill:none;fill-opacity:1;fill-rule:nonzero;stroke:#ee7100;stroke-width:1;stroke-linecap:butt;stroke-linejoin:round;stroke-miterlimit:4;stroke-dasharray:none;stroke-opacity:1" />
  <path
     id="path869"
     d="m 866.29,1073.91 31.7,-27.06 46.57,-36.05 4.28,0.81"
     style="opacity:1;fill:none;fill-opacity:1;fill-rule:nonzero;stroke:#ee7100;stroke-width:1;stroke-linecap:butt;stroke-linejoin:round;stroke-miterlimit:4;stroke-dasharray:none;stroke-opacity:1" />
  <path
     id="path855"
     d="m 1193.25,970.25 -77.09,-46.44 -0.93,-0.39 -0.69,-3.54"
     style="opacity:1;fill:none;fill-opacity:1;fill-rule:nonzero;stroke:#ee7100;stroke-width:1;stroke-linecap:butt;stroke-linejoin:round;stroke-miterlimit:4;stroke-dasharray:none;stroke-opacity:1" />
  <text
     style="font-style:normal;font-weight:normal;font-size:144px;line-height:125%;font-family:Sans;-inkscape-font-specification:Sans;letter-spacing:0px;word-spacing:0px;fill:#000000;fill-opacity:1;stroke:none"
     xml:space="preserve"
     id="text2992"
     y="156.96"
     x="-1860.55"><tspan
       id="tspan1"
       y="156.96"
       x="-1860.55">1970</tspan></text>
  <path
     id="path865"
     d="m 1095.12,1010.78 -23.96,-8.23 -10.1,-5.58 -8.45,-7.64 -5.3,-2.03 -5.59,0.81 -2.73,4.47 -0.12,6.22 -0.8,6.47 -4.86,5.4 -40.61,28.49 -24.22,11.96"
     style="opacity:1;fill:none;fill-opacity:1;fill-rule:nonzero;stroke:#ee7100;stroke-width:1;stroke-linecap:butt;stroke-linejoin:round;stroke-miterlimit:4;stroke-dasharray:none;stroke-opacity:1" />
  <path
     id="path2596"
     d="m 1174.52,777.36 -9.59,-42.74 -0.67,-7.64 -9.14,-34.23 -3.9,-21.65 -1.2,-28.76 1.57,-10.26 6.74,-34.16 7.12,-37 3,-21.87 4.34,-10.34 3.75,-6.97 25.84,-26.82 19.1,-21.24 8.61,-12.15 5.09,-8.82 6.05,-6.05 7.16,-13.05 4.62,-12.73 3.34,-16.87 0.64,-6.84 4.62,-17.67 2.39,-7.96 6.84,-13.85"
     style="opacity:1;fill:none;fill-opacity:1;fill-rule:nonzero;stroke:#ee7100;stroke-width:1;stroke-linecap:butt;stroke-linejoin:round;stroke-miterlimit:4;stroke-dasharray:none;stroke-opacity:1" />
  <path
     id="path4611"
     d="m 802.91,1059.92 -2,8.33 -3.87,5.79 -5.83,13.56 -0.53,27.33 2.44,6.57 42.48,33.37"
     style="opacity:1;fill:none;fill-opacity:1;fill-rule:nonzero;stroke:#ee7100;stroke-width:5;stroke-linecap:butt;stroke-linejoin:round;stroke-miterlimit:4;stroke-dasharray:none;stroke-opacity:1" />
  <path
     id="path837"
     d="m 766.92,995.5 -2.86,-3.14 -1.73,-3.03 -0.48,-7.64 4.31,-11.98 v -3.24 l -2.88,-4.31 -13.42,-8.63 -12.22,-9.35 -142.62,-154.84 -22.05,-32.36 2.16,-3.6 26.13,-5.75 13.66,-1.92 24.69,17.02 18.1,11.67 69.63,16.13"
     style="opacity:1;fill:none;fill-opacity:1;fill-rule:nonzero;stroke:#ee7100;stroke-width:1;stroke-linecap:butt;stroke-linejoin:round;stroke-miterlimit:4;stroke-dasharray:none;stroke-opacity:1" />
  <path
     style="opacity:1;fill:none;fill-opacity:1;fill-rule:nonzero;stroke:#ee7100;stroke-width:1;stroke-linecap:butt;stroke-linejoin:round;stroke-miterlimit:4;stroke-dasharray:none;stroke-opacity:1"
     d="m 933.93,1086.39 -1.54,3.65 1.32,50.1 12.22,13.18 22.29,17.74 3.84,0.72 6.71,-1.44"
     id="path839" />
  <path
     style="opacity:1;fill:none;fill-opacity:1;fill-rule:nonzero;stroke:#ee7100;stroke-width:1;stroke-linecap:butt;stroke-linejoin:round;stroke-miterlimit:4;stroke-dasharray:none;stroke-opacity:1"
     d="m 1097.09,1009.5 1.78,3.05"
     id="path845" />
  <path
     id="path4212"
     d="m 657.18,856.28 -0.81,4.52 -29.43,26.07"
     style="opacity:1;fill:none;fill-opacity:1;fill-rule:nonzero;stroke:#ee7100;stroke-width:1;stroke-linecap:butt;stroke-linejoin:round;stroke-miterlimit:4;stroke-dasharray:none;stroke-opacity:1" />
  <path
     id="path4214"
     d="m 656.37,860.8 4.63,0.46"
     style="opacity:1;fill:none;fill-opacity:1;fill-rule:nonzero;stroke:#ee7100;stroke-width:1;stroke-linecap:butt;stroke-linejoin:round;stroke-miterlimit:4;stroke-dasharray:none;stroke-opacity:1" />
  <path
     id="path4929"
     d="m 793.17,1017.79 5.46,-5.82 13.44,-1.31"
     style="opacity:1;fill:none;fill-opacity:1;fill-rule:nonzero;stroke:#ee7100;stroke-width:5;stroke-linecap:butt;stroke-linejoin:round;stroke-miterlimit:4;stroke-dasharray:none;stroke-opacity:1" />
  <path
     id="path16904"
     d="m 812.07,1010.66 19.01,-1.31 38.51,-28.51 v -3.93 l -11.96,-15.24 7.61,-12.41 m 0,0 0.04,-7.12 -46.81,-73.11 3.48,-9.38 -0.35,-3.48 L 789.49,819.67 776.1,807.29"
     style="opacity:1;fill:none;fill-opacity:1;fill-rule:nonzero;stroke:#ee7100;stroke-width:1;stroke-linecap:butt;stroke-linejoin:round;stroke-miterlimit:4;stroke-dasharray:none;stroke-opacity:1" />
  <path
     id="path12655"
     d="m 944.56,1010.8 0.77,-4.82"
     style="opacity:1;fill:none;fill-opacity:1;fill-rule:nonzero;stroke:#ee7100;stroke-width:1;stroke-linecap:butt;stroke-linejoin:round;stroke-miterlimit:4;stroke-dasharray:none;stroke-opacity:1" />
  <path
     id="path14027"
     d="m 1199.3,968.63 -4.41,7.33"
     style="opacity:1;fill:none;fill-opacity:1;fill-rule:nonzero;stroke:#ee7100;stroke-width:1;stroke-linecap:butt;stroke-linejoin:round;stroke-miterlimit:4;stroke-dasharray:none;stroke-opacity:1" />
  <path
     id="path16192"
     d="m 853.85,992.31 4.1,0.74 39.16,49.81 5.49,0.41"
     style="opacity:1;fill:none;fill-opacity:1;fill-rule:nonzero;stroke:#ee7100;stroke-width:1;stroke-linecap:butt;stroke-linejoin:round;stroke-miterlimit:4;stroke-dasharray:none;stroke-opacity:1" />
  <path
     id="path841"
     d="m 961.52,1048.21 0.09,9.25 0.09,9.24 -1.99,3.9 -18.51,11.55 -9.77,5.69 -15.15,6.74 -10.76,2.71 -6.1,0.34 -5.59,7.8 -8.56,8.39 -14.92,18.56 -62.88,80.17 -40.17,52.37 -9.49,12.37 -5.76,11.36 -6.27,6.78 -3.56,10.85 -0.68,4.58 -9.15,20.68 -17.97,82.54"
     style="opacity:1;fill:none;fill-opacity:1;fill-rule:nonzero;stroke:#ee7100;stroke-width:1;stroke-linecap:butt;stroke-linejoin:round;stroke-miterlimit:4;stroke-dasharray:none;stroke-opacity:1" />
  <path
     style="opacity:1;fill:none;fill-opacity:1;fill-rule:nonzero;stroke:#ee7100;stroke-width:1;stroke-linecap:butt;stroke-linejoin:round;stroke-miterlimit:4;stroke-dasharray:none;stroke-opacity:1"
     d="m 835.59,1154.87 8.9,6.72 0.48,3.18"
     id="path3171" />
</svg>
