<?xml version="1.0" encoding="UTF-8" standalone="no"?>
<svg
   xmlns:dc="http://purl.org/dc/elements/1.1/"
   xmlns:cc="http://creativecommons.org/ns#"
   xmlns:rdf="http://www.w3.org/1999/02/22-rdf-syntax-ns#"
   xmlns:svg="http://www.w3.org/2000/svg"
   xmlns="http://www.w3.org/2000/svg"
   xmlns:xlink="http://www.w3.org/1999/xlink"
   version="1.1"
   id="svg2"
   width="5300"
   height="2550"
   viewBox="-1950 -50 5300 2550">
  <metadata
     id="metadata8">
    <rdf:RDF>
      <cc:Work
         rdf:about="">
        <dc:format>image/svg+xml</dc:format>
        <dc:type
           rdf:resource="http://purl.org/dc/dcmitype/StillImage" />
        <dc:title></dc:title>
      </cc:Work>
    </rdf:RDF>
  </metadata>
  <defs
     id="defs6" />
  <image
     width="3945.01"
     height="3068.33"
     preserveAspectRatio="none"
     xlink:href="../basemap/mhgosm.png"
     id="image10"
     x="-50"
     y="-91.67"
     style="display:none" />
  <path
     style="opacity:1;fill:none;fill-opacity:1;fill-rule:nonzero;stroke:#ee7100;stroke-width:5;stroke-linecap:butt;stroke-linejoin:round;stroke-miterlimit:4;stroke-dasharray:none;stroke-opacity:1"
     d="M 877.43,941.96 855.25,889.49 848.64,881.02 831.69,866.95 811.36,844.58 785.08,814.41 776.1,807.29"
     id="path836" />
  <path
     style="opacity:1;fill:none;fill-opacity:1;fill-rule:nonzero;stroke:#ee7100;stroke-width:5;stroke-linecap:butt;stroke-linejoin:round;stroke-miterlimit:4;stroke-dasharray:none;stroke-opacity:1"
     d="m 907.63,960.09 -1.99,-2.64 -4.94,-0.47 -7.46,7.55 -4.36,-0.31 -7.11,-11.67 -4.33,-10.6 -0.88,-10.4 1.2,-9.43 2.28,-8.15 3.6,-6.35 6.11,-4.91 55.85,-33.44 10.55,-4.55 13.78,-4.19 12.34,-1.68 18.58,1.32 12.58,3.12 15.11,6.85 19.81,13.4"
     id="path838" />
  <path
     style="fill:none;stroke:#ee7100;stroke-width:5;stroke-linecap:butt;stroke-linejoin:round;stroke-miterlimit:4;stroke-dasharray:none;stroke-opacity:1"
     d="m 868,1072.59 -8.39,8.47 -7.26,1.59 -16.47,-1.95 -16.73,-3.05 -10.17,-3.84 -4.6,-8.18 -3.33,-12.11 -7.87,-35.72 -5.31,-5.81 -11.64,-10.33 -11.17,-7.24"
     id="path840" />
  <path
     style="opacity:1;fill:none;fill-opacity:1;fill-rule:nonzero;stroke:#ee7100;stroke-width:5;stroke-linecap:butt;stroke-linejoin:round;stroke-miterlimit:4;stroke-dasharray:none;stroke-opacity:1"
     d="m 1042.73,879.97 -4.4,0.4 -4.68,3.3 -3.98,0.05 -2.37,-1.53 -0.51,-3.81 0.85,-3.9 12.54,-18.39 7.97,-10.68 6.95,-6.61 9.49,-5.93 12.54,-4.41 11.02,-2.37 25.08,0.51"
     id="path848" />
  <path
     style="opacity:1;fill:none;fill-opacity:1;fill-rule:nonzero;stroke:#ee7100;stroke-width:5;stroke-linecap:butt;stroke-linejoin:round;stroke-miterlimit:4;stroke-dasharray:none;stroke-opacity:1"
     d="m 1890.59,553.47 -14.62,1.44 -20.37,9.35 -65.68,37.63 -11.27,9.83 -6.95,10.31 -2.16,14.14 1.2,11.27 5.27,20.13 8.39,30.2 9.35,17.74 11.98,16.54 7.67,9.83 1.2,5.51 -0.72,4.31 -1.92,4.07 -15.1,7.19 -26.13,15.34 -23.01,10.55 -39.07,14.62 -15.34,3.36"
     id="path850" />
  <path
     style="opacity:1;fill:none;fill-opacity:1;fill-rule:nonzero;stroke:#ee7100;stroke-width:1;stroke-linecap:butt;stroke-linejoin:round;stroke-miterlimit:4;stroke-dasharray:none;stroke-opacity:1"
     d="m 776.1,807.29 -15.21,-9.32 -33.56,-7.43 -4.31,-4.79 -27.09,-52.01 -9.35,-10.79 -11.27,-8.39 -13.18,-5.75 -79.1,-27.57 -24.45,-23.73 -35.24,-60.88 -2.64,-10.79 0.72,-10.31 9.11,-29.48 25.41,-91.32"
     id="path877" />
  <path
     style="opacity:1;fill:none;fill-opacity:1;fill-rule:nonzero;stroke:#ee7100;stroke-width:1;stroke-linecap:butt;stroke-linejoin:round;stroke-miterlimit:4;stroke-dasharray:none;stroke-opacity:1"
     d="m 907.35,959.22 39.91,48.96 10.31,19.42 3.96,20.61 2.64,2.28 2.81,0.79 1.4,-0.16"
     id="path887" />
  <path
     style="opacity:1;fill:none;fill-opacity:1;fill-rule:nonzero;stroke:#ee7100;stroke-width:1;stroke-linecap:butt;stroke-linejoin:round;stroke-miterlimit:4;stroke-dasharray:none;stroke-opacity:1"
     d="m 1095.12,1010.78 1.97,-1.28 10.47,-15.22 -1.5,-5.75 -22.05,-13.42 -0.72,-5.27 31.24,-49.95"
     id="path863" />
  <path
     style="opacity:1;fill:none;fill-opacity:1;fill-rule:nonzero;stroke:#ee7100;stroke-width:1;stroke-linecap:butt;stroke-linejoin:round;stroke-miterlimit:4;stroke-dasharray:none;stroke-opacity:1"
     d="m 1160.85,843.27 7.06,10e-5 12.46,8.63 8.63,6.23 9.83,11.27 6.95,13.66 4.55,13.66 1.2,14.14 v 10.07 l 2.65,2.66 21.72,-0.92 5.52,-3.82 8.34,-8.94 30.4,-67.61 c 0,0 5.82,-6.01 5.89,-6.06 l 6.67,-4.87 6.72,-6.24 7.04,-1.69 13.99,-5.59 h 0.01 l 11.51,-2.64 c 0.03,0 0.06,-0.01 0.09,-0.01 h 3e-4 c 0.07,0 0.13,0.01 0.2,0.03 l 7.91,2.88 c 0.07,0.03 0.14,0.07 0.19,0.13 l 7.91,8.39 c 0.02,0.03 0.04,0.05 0.06,0.08 l 7.43,11.98 c 0.04,0.07 0.07,0.15 0.07,0.24 l 1.2,22.46 4.76,13.55 4.69,8.45 11.04,4.93 6.08,1.89 209.32,14.4 c 0.01,-10e-5 16.33,2.23 16.33,2.23 l 12.69,0.89 5.1,-2.02 4.67,-11.63 6.95,-10.79 9.59,-9.35 8.87,-14.38 2.88,-14.14 -1.44,-16.54 -3.36,-9.35 -0.24,-3.6 2.88,-4.31 9.35,-0.24 26.13,-4.55"
     id="path893" />
  <path
     style="fill:none;stroke:#ee7100;stroke-width:1;stroke-linecap:butt;stroke-linejoin:round;stroke-miterlimit:4;stroke-dasharray:none;stroke-opacity:1"
     d="m 1214.17,923.58 -3.13,4.06 -1.2,13.42 -3.24,11.87 -4.07,9.71 -3.24,5.99 -6.05,1.62"
     id="path899" />
  <path
     style="opacity:1;fill:none;fill-opacity:1;fill-rule:nonzero;stroke:#ee7100;stroke-width:1;stroke-linecap:butt;stroke-linejoin:round;stroke-miterlimit:4;stroke-dasharray:none;stroke-opacity:1"
     d="m 1113.22,826.61 17.41,1.08 22.53,6.35 5.27,3.12 6.9,-1.45"
     id="path873" />
  <path
     style="opacity:1;fill:none;fill-opacity:1;fill-rule:nonzero;stroke:#ee7100;stroke-width:1;stroke-linecap:butt;stroke-linejoin:round;stroke-miterlimit:4;stroke-dasharray:none;stroke-opacity:1"
     d="m 646.08,970.55 86.53,17.74 8.15,4.07 17.26,1.44 8.9,1.7"
     id="path905" />
  <path
     style="opacity:1;fill:none;fill-opacity:1;fill-rule:nonzero;stroke:#ee7100;stroke-width:1;stroke-linecap:butt;stroke-linejoin:round;stroke-miterlimit:4;stroke-dasharray:none;stroke-opacity:1"
     d="m 646.08,970.55 -336.3,-62.32 -28.28,-7.43 -21.09,-4.07 -4.07,-3.6 -23.01,-32.36 -11.75,-8.87 -8.15,-8.39 -4.07,-1.44 -5.75,1.2 -15.58,11.98 -13.18,16.06 -4.79,2.4 -70.95,34.04 -5.75,7.43"
     id="path907" />
  <path
     style="opacity:1;fill:none;fill-opacity:1;fill-rule:nonzero;stroke:#ee7100;stroke-width:1;stroke-linecap:butt;stroke-linejoin:round;stroke-miterlimit:4;stroke-dasharray:none;stroke-opacity:1"
     d="m 1095.12,1010.78 5.31,1.85 10.34,5.51 11.61,8.81 13.22,7.37 9.83,2.88 5.17,2.12 4.49,-0.34 39.81,-63.02 -1.64,-5.72"
     id="path859" />
  <path
     style="opacity:1;fill:none;fill-opacity:1;fill-rule:nonzero;stroke:#ee7100;stroke-width:1;stroke-linecap:butt;stroke-linejoin:round;stroke-miterlimit:4;stroke-dasharray:none;stroke-opacity:1"
     d="m 1114.53,919.87 45.84,-75.7 4.83,-7.84 19.19,-35.76 4.6,-9.49 -1.79,-6.41 -11.15,-5.03 v 0 l -1.53,-2.27"
     id="path851" />
  <path
     style="opacity:1;fill:none;fill-opacity:1;fill-rule:nonzero;stroke:#ee7100;stroke-width:1;stroke-linecap:butt;stroke-linejoin:round;stroke-miterlimit:4;stroke-dasharray:none;stroke-opacity:1"
     d="m 1299.43,825.13 2.46,-4.63 32.72,-55.49 6.45,-8.51 48.11,-39.28 39.05,-36.15 14.49,-10.58 22.12,-13.3 12.39,-7.75 19.36,-16.97 8.08,-5.78 11.23,-3.81 84.53,-15.47 10.79,-1.9"
     id="path942" />
  <path
     id="path841"
     d="m 961.52,1048.21 0.09,9.25 0.09,9.24 -1.99,3.9 -18.51,11.55 -9.77,5.69 -15.15,6.74 -10.76,2.71 -6.1,0.34 -5.59,7.8 -8.56,8.39 -14.92,18.56 -62.88,80.17 -40.17,52.37 -9.49,12.37 -5.76,11.36 -6.27,6.78 -3.56,10.85 -0.68,4.58 -9.15,20.68 -17.97,82.54 2.03,16.61 v 2.88 l -9.15,10.85 -1.86,5.42 -15.93,51.36 0.51,7.29 14.41,30.85 6.44,18.64 0.34,6.61 -1.19,3.73 -4.58,4.92 -36.44,10.85 -21.19,11.69 -5.59,4.07"
     style="opacity:1;fill:none;fill-opacity:1;fill-rule:nonzero;stroke:#ee7100;stroke-width:1;stroke-linecap:butt;stroke-linejoin:round;stroke-miterlimit:4;stroke-dasharray:none;stroke-opacity:1" />
  <path
     style="opacity:1;fill:none;fill-opacity:1;fill-rule:nonzero;stroke:#ee7100;stroke-width:1;stroke-linecap:butt;stroke-linejoin:round;stroke-miterlimit:4;stroke-dasharray:none;stroke-opacity:1"
     d="m 866.29,1073.91 31.7,-27.06 46.57,-36.05 4.28,0.81"
     id="path869" />
  <path
     style="opacity:1;fill:none;fill-opacity:1;fill-rule:nonzero;stroke:#ee7100;stroke-width:1;stroke-linecap:butt;stroke-linejoin:round;stroke-miterlimit:4;stroke-dasharray:none;stroke-opacity:1"
     d="m 1046.42,882.55 67.89,40.14 78.94,47.55"
     id="path855" />
  <path
     style="opacity:1;fill:none;fill-opacity:1;fill-rule:nonzero;stroke:#ee7100;stroke-width:1;stroke-linecap:butt;stroke-linejoin:round;stroke-miterlimit:4;stroke-dasharray:none;stroke-opacity:1"
     d="m 1175.93,1005.74 0.68,4.85 10.25,6.02 5.93,0.59 31.78,9.49 23.05,11.27 13.31,7.97 29.15,37.2 10,7.12 10.76,5.34 14.07,2.03 20.25,-3.64 13.05,-3.98 3.05,-3.98 20.34,-35.51 4.66,-2.88 6.53,0.93 29.07,17.12 10.68,4.15 17.97,2.54 54.24,1.19 10,-4.41 14.58,-5.08 11.7,-1.36 40.85,2.2 30.34,-0.34 19.15,0.17 25.59,3.05 9.66,2.88 17.12,10"
     id="path843" />
  <text
     x="-1860.55"
     y="156.96"
     id="text2992"
     xml:space="preserve"
     style="font-style:normal;font-weight:normal;font-size:144px;line-height:125%;font-family:Sans;-inkscape-font-specification:Sans;letter-spacing:0px;word-spacing:0px;fill:#000000;fill-opacity:1;stroke:none"><tspan
       x="-1860.55"
       y="156.96"
       id="tspan1">1980</tspan></text>
  <path
     style="opacity:1;fill:none;fill-opacity:1;fill-rule:nonzero;stroke:#ee7100;stroke-width:1;stroke-linecap:butt;stroke-linejoin:round;stroke-miterlimit:4;stroke-dasharray:none;stroke-opacity:1"
     d="m 1095.12,1010.78 -23.96,-8.23 -10.1,-5.58 -8.45,-7.64 -5.3,-2.03 -5.59,0.81 -2.73,4.47 -0.12,6.22 -0.8,6.47 -4.86,5.4 -40.61,28.49 -24.22,11.96"
     id="path865" />
  <path
     style="opacity:1;fill:none;fill-opacity:1;fill-rule:nonzero;stroke:#ee7100;stroke-width:1;stroke-linecap:butt;stroke-linejoin:round;stroke-miterlimit:4;stroke-dasharray:none;stroke-opacity:1"
     d="m 1174.52,777.36 -9.59,-42.74 -0.67,-7.64 -9.14,-34.23 -3.9,-21.65 -1.2,-28.76 1.57,-10.26 6.74,-34.16 7.12,-37 3,-21.87 4.34,-10.34 3.75,-6.97 25.84,-26.82 19.1,-21.24 8.61,-12.15 5.09,-8.82 6.05,-6.05 7.16,-13.05 4.62,-12.73 3.34,-16.87 0.64,-6.84 4.62,-17.67 2.39,-7.96 6.84,-13.85 -1.11,-10.82 v -31.2 l 1.27,-27.86 -2.87,-15.28 -3.18,-9.55 -6.84,-10.82 -13.21,-14.01 -14.17,-13.37 -25.31,-21.65 -15.6,-12.73 -9.55,-10.19 -2.87,-8.75 13.69,-85.64 1.11,-77.68"
     id="path2596" />
  <path
     style="opacity:1;fill:none;fill-opacity:1;fill-rule:nonzero;stroke:#ee7100;stroke-width:5;stroke-linecap:butt;stroke-linejoin:round;stroke-miterlimit:4;stroke-dasharray:none;stroke-opacity:1"
     d="m 855.25,889.49 13.54,13.48 10.04,6.08 18.91,24.64 2.21,10.82 -1.41,6.29 -42.84,38.35 -22.85,5.79 -16.33,2.3 -14.41,1.69 -7.2,3.6 -2.33,4.56 0.59,10.69"
     id="path3169" />
  <path
     style="opacity:1;fill:none;fill-opacity:1;fill-rule:nonzero;stroke:#ee7100;stroke-width:5;stroke-linecap:butt;stroke-linejoin:round;stroke-miterlimit:4;stroke-dasharray:none;stroke-opacity:1"
     d="m 802.91,1059.92 -2,8.33 -3.87,5.79 -5.83,13.56 -0.53,27.33 2.44,6.57 42.48,33.37"
     id="path4611" />
  <path
     style="opacity:1;fill:none;fill-opacity:1;fill-rule:nonzero;stroke:#ee7100;stroke-width:1;stroke-linecap:butt;stroke-linejoin:round;stroke-miterlimit:4;stroke-dasharray:none;stroke-opacity:1"
     d="m 835.59,1154.87 8.9,6.72 0.48,3.18"
     id="path3171" />
  <path
     style="opacity:1;fill:none;fill-opacity:1;fill-rule:nonzero;stroke:#ee7100;stroke-width:1;stroke-linecap:butt;stroke-linejoin:round;stroke-miterlimit:4;stroke-dasharray:none;stroke-opacity:1"
     d="m 766.92,995.5 -2.86,-3.14 -1.73,-3.03 -0.48,-7.64 4.31,-11.98 v -3.24 l -2.88,-4.31 -13.42,-8.63 -12.22,-9.35 -142.62,-154.84 -22.05,-32.36 2.16,-3.6 26.13,-5.75 13.66,-1.92 24.69,17.02 18.1,11.67 69.63,16.13"
     id="path837" />
  <path
     id="path839"
     d="m 933.93,1086.39 -1.54,3.65 1.32,50.1 12.22,13.18 22.29,17.74 3.84,0.72 6.71,-1.44"
     style="opacity:1;fill:none;fill-opacity:1;fill-rule:nonzero;stroke:#ee7100;stroke-width:1;stroke-linecap:butt;stroke-linejoin:round;stroke-miterlimit:4;stroke-dasharray:none;stroke-opacity:1" />
  <path
     id="path845"
     d="m 1097.09,1009.5 1.78,3.05"
     style="opacity:1;fill:none;fill-opacity:1;fill-rule:nonzero;stroke:#ee7100;stroke-width:1;stroke-linecap:butt;stroke-linejoin:round;stroke-miterlimit:4;stroke-dasharray:none;stroke-opacity:1" />
  <path
     style="opacity:1;fill:none;fill-opacity:1;fill-rule:nonzero;stroke:#ee7100;stroke-width:1;stroke-linecap:butt;stroke-linejoin:round;stroke-miterlimit:4;stroke-dasharray:none;stroke-opacity:1"
     d="m 1158.43,837.16 9.47,6.11"
     id="path3441" />
  <path
     style="opacity:1;fill:none;fill-opacity:1;fill-rule:nonzero;stroke:#ee7100;stroke-width:1;stroke-linecap:butt;stroke-linejoin:round;stroke-miterlimit:4;stroke-dasharray:none;stroke-opacity:1"
     d="m 1186.86,1016.61 10,11.61 31.06,39.95 32.61,41.13 9.83,17.37 3.93,6.55 8.52,13.11 11.63,16.71 -4.75,43.75 v 6.55 l 2.62,6.39 22.61,39.65 40.14,75.05 15.4,27.53 12.62,22.12 3.77,10.16 11.8,46.53 5.41,9.34 7.05,10.98 9.01,17.37 6.88,8.19 9.5,4.1 16.06,4.26 9.18,4.75 159.76,117.98 35.39,25.4 9.5,7.54 9.5,11.63 4.26,11.14"
     id="path3497" />
  <path
     id="path4212"
     d="m 657.18,856.28 -0.81,4.52 -29.43,26.07"
     style="opacity:1;fill:none;fill-opacity:1;fill-rule:nonzero;stroke:#ee7100;stroke-width:1;stroke-linecap:butt;stroke-linejoin:round;stroke-miterlimit:4;stroke-dasharray:none;stroke-opacity:1" />
  <path
     id="path4214"
     d="m 656.37,860.8 4.63,0.46"
     style="opacity:1;fill:none;fill-opacity:1;fill-rule:nonzero;stroke:#ee7100;stroke-width:1;stroke-linecap:butt;stroke-linejoin:round;stroke-miterlimit:4;stroke-dasharray:none;stroke-opacity:1" />
  <path
     style="opacity:1;fill:none;fill-opacity:1;fill-rule:nonzero;stroke:#ee7100;stroke-width:1;stroke-linecap:butt;stroke-linejoin:round;stroke-miterlimit:4;stroke-dasharray:none;stroke-opacity:1"
     d="m 1194.89,975.96 4.41,-7.33"
     id="path13966" />
  <path
     id="path851-3"
     d="m 1115.22,923.41 -0.69,-3.54"
     style="opacity:1;fill:none;fill-opacity:1;fill-rule:nonzero;stroke:#ee7100;stroke-width:1;stroke-linecap:butt;stroke-linejoin:round;stroke-miterlimit:4;stroke-dasharray:none;stroke-opacity:1" />
</svg>
