<svg viewBox="-1310, -2510, 8150, 7250" height="7250" width="8150" xmlns="http://www.w3.org/2000/svg"><path style="fill:none;stroke:#408335;stroke-width:5;stroke-linecap:butt;stroke-linejoin:round;stroke-miterlimit:4;stroke-dasharray:none;stroke-opacity:1" d="m933.406 1478.684 19.326-5.476 21.904-3.865 23.807-6.538 24.831-8.279 53.793-20.615 17.394-4.51 25.125-4.51 40.264 2.578 51.537 4.831 80.528 7.731 16.75-3.221 13.529-9.02 10.951-11.917 11.743-20.863 11.127-24.233 27.38-90.513 5.476-12.562 33.5-45.418 19.326-13.207 21.903-5.153 18.039 1.61 64.422 8.697 14.495-2.255 14.817-5.476 10.63-7.408 52.826-45.096 15.783-14.173 15.728-14.012 9.801-5.782 19.818-1.647 25.51 3.397 9.08 5.843 10.899 12.846 11.918 16.427 9.663 16.75 10.952 7.087 10.952 3.22 18.36.645 10.63.966 9.019 3.866 12.087 6.417 13.037 5.824 9.342 1.289 41.23-2.577 11.596-3.866 6.628-4.108 5.29-4.266 28.024-18.039 9.663-1.288 22.87-.322 10.032-3.474 10.905-6.512 14.817-5.153 12.884-.645 10.63 2.577 13.529 8.053 12.562 12.562 35.754 38.332 8.053 14.817 3.221 14.817 12.24 20.293 2.9 11.918 7.18 9.636 6.348 6.47 20.293 9.34 20.938 12.241 12.884 10.307 11.918 3.544 14.495-.644 12.885 1.61 23.514 6.764 20.937 4.832 25.329 15.495 36.194 24.447 20.937 9.985 77.951 25.447 100.499 29.634 27.864 8.112 19.8 5.764"/><path style="fill:none;stroke:#408335;stroke-width:5;stroke-linecap:butt;stroke-linejoin:round;stroke-miterlimit:4;stroke-opacity:1;stroke-dasharray:none" d="M933.406 1478.685 917.75 1478l-13.25-4.25L891 1465l-8.75-11.5-7.79-18.623"/><text style="font-style:normal;font-weight:400;font-size:144px;font-family:Sans;-inkscape-font-specification:Sans;fill:#000;fill-opacity:1;stroke:none" xml:space="preserve" y="4637.9609" x="-1220.5469"/><text style="font-style:normal;font-weight:400;font-size:144px;font-family:Sans;-inkscape-font-specification:Sans;fill:#000;fill-opacity:1;stroke:none" xml:space="preserve" y="-2303.0391" x="-1220.5469"><tspan y="-2303.0391" x="-1220.5469">1885</tspan></text><path d="m892.908 1228.002 9.253 49.04 6.442 27.701 1.289 22.548-10.952 38.01-19.97 41.874-4.51 27.701" style="fill:none;stroke:#408335;stroke-width:5;stroke-linecap:butt;stroke-linejoin:round;stroke-miterlimit:4;stroke-dasharray:none;stroke-opacity:1"/></svg>