<?xml version="1.0" encoding="UTF-8" standalone="no"?>
<svg
   id="svg2"
   width="8150"
   height="7300"
   viewBox="-1310, -2520, 8150, 7300"
   version="1.1"
   xmlns:xlink="http://www.w3.org/1999/xlink"
   xmlns="http://www.w3.org/2000/svg"
   xmlns:svg="http://www.w3.org/2000/svg"
   xmlns:rdf="http://www.w3.org/1999/02/22-rdf-syntax-ns#"
   xmlns:cc="http://creativecommons.org/ns#"
   xmlns:dc="http://purl.org/dc/elements/1.1/">
  <metadata
     id="metadata6546">
    <rdf:RDF>
      <cc:Work
         rdf:about="">
        <dc:format>image/svg+xml</dc:format>
        <dc:type
           rdf:resource="http://purl.org/dc/dcmitype/StillImage" />
      </cc:Work>
    </rdf:RDF>
  </metadata>
  <defs
     id="defs6" />
  <path
     style="opacity:1;fill:none;stroke:#f68b1f;stroke-width:1;stroke-linejoin:round;stroke-miterlimit:4;stroke-dasharray:none;stroke-opacity:1"
     d="m 2720.31,1648.99 -17.39,-21.21 -26.86,-5.89 -16.77,-5.85 -24.29,-13.1 -17.65,-12.35 -27.57,-32.32 -58.33,-29.5 -49.86,-27.44 -76.22,-33.52 -67.36,-39.48 -4.95,-15.05 -31.6,-29.09 -0.42,-3.01 5.95,-7.82 -0.3,-2.96 -22.32,-14.78"
     id="path1623" />
  <image
     xlink:href="../basemap/berosm.png"
     style="display:none"
     x="-1488.33"
     y="-2537.86"
     width="8424.52"
     height="7397.14"
     id="image12" />
  <path
     style="fill:none;stroke:#408335;stroke-width:5;stroke-linecap:butt;stroke-linejoin:round;stroke-miterlimit:4;stroke-opacity:1;stroke-dasharray:none"
     id="path3632"
     d="m 2589.18,1454.21 10.46,8.14 5.42,7.15 4.54,8.9 3.04,13.6 0.13,20.88 -8.58,27.65" />
  <path
     style="fill:none;stroke:#e94e0f;stroke-width:5;stroke-linecap:butt;stroke-linejoin:round;stroke-miterlimit:4;stroke-opacity:1;stroke-dasharray:none"
     id="path3737"
     d="m 1818.38,1336.59 10.24,-3.87 24.6,-4.1 49.65,-4.1 5.92,-5.01 6.38,-7.74 5.01,-3.19 11.39,-1.37 8.66,2.73 h 9.11 l 24.6,17.31 20.04,8.66 17.31,4.1 5.61,0.13" />
  <path
     style="fill:none;stroke:#e94e0f;stroke-width:5;stroke-linecap:butt;stroke-linejoin:round;stroke-miterlimit:4;stroke-dasharray:none;stroke-opacity:1"
     id="path3627"
     d="m 1124.63,1332.72 104.8,-11.23 11.6,2.58 10.31,10.31 28.35,36.08 25.12,19.97 54.76,41.23 15.46,3.22 8.73,11.88 21.76,15.14 35.87,20.33" />
  <path
     style="fill:none;stroke:#408335;stroke-width:5;stroke-linecap:butt;stroke-linejoin:round;stroke-miterlimit:4;stroke-opacity:1;stroke-dasharray:none"
     id="path7114"
     d="m 1589.66,1747.02 -3.66,13.48 -1,31 0.5,13.5 4,12 5.98,7.31 10.82,8.7" />
  <path
     style="fill:none;stroke:#408335;stroke-width:5;stroke-linecap:butt;stroke-linejoin:round;stroke-miterlimit:4;stroke-opacity:1;stroke-dasharray:none"
     id="path7116"
     d="m 1585,1791.5 -5.5,11 -6.5,7.5 -5.5,5 -12.87,7.75" />
  <path
     style="fill:none;stroke:#408335;stroke-width:5;stroke-linecap:butt;stroke-linejoin:round;stroke-miterlimit:4;stroke-opacity:1;stroke-dasharray:none"
     id="path3637-7"
     d="m 1570.22,2213.74 -1.29,24.48 -12.88,35.43 -25.12,53.47 -14.82,26.41 -37.37,47.67 -59.91,65.07 -52.83,58.62 -55.4,52.18 -12.65,16.45" />
  <path
     style="fill:none;stroke:#e94e0f;stroke-width:5;stroke-linecap:butt;stroke-linejoin:round;stroke-miterlimit:4;stroke-opacity:1;stroke-dasharray:none"
     id="path3615-6"
     d="m 1100.58,1244.83 0.64,29.63 3.62,31.18 3.71,16.81 6.37,6.07 10.54,4.23" />
  <path
     style="fill:none;stroke:#408335;stroke-width:5;stroke-linecap:butt;stroke-linejoin:round;stroke-miterlimit:4;stroke-opacity:1;stroke-dasharray:none"
     id="path4151"
     d="m 963.68,1471.28 -16.18,9.22 -12,14 -10.5,18.5 -1.5,14 1.5,10.5 6.8,15.27" />
  <text
     style="font-size:144px;font-style:normal;font-weight:normal;fill:#000000;fill-opacity:1;stroke:none;font-family:Sans;-inkscape-font-specification:Sans"
     xml:space="preserve"
     id="text2838"
     y="4677.96"
     x="-1220.55"><tspan
       id="tspan2"
       y="4677.96"
       x="-1220.55"></tspan></text>
  <text
     style="font-size:144px;font-style:normal;font-weight:normal;fill:#000000;fill-opacity:1;stroke:none;font-family:Sans;-inkscape-font-specification:Sans"
     xml:space="preserve"
     id="text2838-3"
     y="-2313.04"
     x="-1220.55"><tspan
       id="tspan1"
       y="-2313.04"
       x="-1220.55">1910</tspan></text>
  <path
     style="fill:none;stroke:#666666;stroke-width:5;stroke-linecap:butt;stroke-linejoin:round;stroke-miterlimit:4;stroke-opacity:1;stroke-dasharray:none"
     id="path3843"
     d="m 774.6,1359.5 25.77,7.73 86.33,-9.02 258.68,-22.61" />
  <path
     style="fill:none;stroke:#408335;stroke-width:5;stroke-linecap:butt;stroke-linejoin:round;stroke-miterlimit:4;stroke-opacity:1;stroke-dasharray:none"
     id="path8905"
     d="m 933.41,1478.68 -15.66,-0.68 -13.25,-4.25 -13.5,-8.75 -8.75,-11.5 -7.79,-18.62" />
  <path
     style="fill:none;stroke:#408335;stroke-width:5;stroke-linecap:butt;stroke-linejoin:round;stroke-miterlimit:4;stroke-dasharray:none;stroke-opacity:1"
     id="path3633"
     d="m 1680.38,1611.39 -9.66,30.28 -41.87,51.54 -53.47,73.44 -37.36,46.38 -13.53,15.46 -24.48,36.72 -86.97,115.32 -88.26,116.6 -98.57,128.2 -28.35,28.99 -26.41,21.26 -89.55,49.61 -63.78,38.01 -57.34,29.63 -85.68,50.89 -60.56,35.43 -109.52,63.78 -55.4,28.99" />
  <path
     style="fill:none;stroke:#408335;stroke-width:5;stroke-linecap:butt;stroke-linejoin:round;stroke-miterlimit:4;stroke-dasharray:none;stroke-opacity:1"
     id="path3631"
     d="m 874.46,1434.88 4.51,-27.7 19.97,-41.87 10.95,-38.01 -1.29,-22.55 -6.44,-27.7 -12.88,-68.29 -9.02,-54.76 -3.22,-36.72 4.51,-21.26 9.66,-16.11 22.55,-12.24 17.39,-5.15 38.01,-1.29 54.11,-14.82 120.47,-24.48 86.33,-18.68 101.79,-23.19 48.96,-10.31 141.08,-28.35 30.28,-4.51 23.19,-14.82 32.21,-22.55 54.11,-41.87 65.71,-47.67 47.03,-30.28 27.06,-8.37 53.68,-12.73 62.29,-5.24" />
  <path
     style="fill:none;stroke:#408335;stroke-width:5;stroke-linecap:butt;stroke-linejoin:round;stroke-miterlimit:4;stroke-dasharray:none;stroke-opacity:1"
     id="path3631-6"
     d="m 2632.54,1438.1 44.45,-74.09 6.44,-22.55 -5.15,-34.14 -24.48,-67 -28.35,-67.64 -18.68,-14.17 -52.18,-20.62 -26.41,-12.88 -28.99,-40.59 -65.71,-112.74 -21.9,-28.35 -76.02,-50.89 -58.62,-37.36 -28.99,-10.95 -41.23,-26.41 -51.54,-42.52 -25.12,-13.53 -21.26,-9.02 -53.47,-3.22 -66.35,2.58 -38.01,1.93 -33.49,-0.58" />
  <path
     style="fill:none;stroke:#408335;stroke-width:5;stroke-linecap:butt;stroke-linejoin:round;stroke-miterlimit:4;stroke-dasharray:none;stroke-opacity:1"
     id="path4196-3"
     d="m 933.42,1478.68 19.33,-5.48 21.9,-3.87 23.81,-6.54 24.83,-8.28 53.79,-20.62 17.39,-4.51 25.12,-4.51 40.26,2.58 51.54,4.83 80.53,7.73 16.75,-3.22 13.53,-9.02 8.25,-10.34 12.34,-22.64 14.73,-32.03 25.87,-82.52 5.48,-12.56 33.5,-45.42 19.33,-13.21 21.9,-5.15 18.04,1.61 64.42,8.7 14.49,-2.25 14.82,-5.48 10.63,-7.41 52.83,-45.1 15.78,-14.17 15.73,-14.01 9.8,-5.78 19.82,-1.65 25.51,3.4 9.08,5.84 10.9,12.85 11.92,16.43 9.66,16.75 10.95,7.09 10.95,3.22 18.36,0.64 10.63,0.97 9.02,3.87 12.09,6.42 13.04,5.82 9.34,1.29 41.23,-2.58 11.6,-3.87 6.63,-4.11 5.29,-4.27 14.31,-11.15 10.93,-6.04 12.45,-2.13 20.75,-1.26 11.84,-3.35 11.21,-5.7 14.82,-5.15 12.88,-0.64 10.63,2.58 13.53,8.05 12.56,12.56 35.75,38.33 8.05,14.82 3.22,14.82 12.24,20.29 4.09,12.59 5.99,8.97 6.86,5 19.78,10.81 20.94,12.24 12.67,9.55 12.05,2.84 14.58,0.82 12.88,1.61 23.51,6.76 20.94,4.83 25.33,15.49 36.19,24.45 20.94,9.99 77.95,25.45 143.14,38.66" />
  <path
     d="m 1554.63,1822.75 -23.06,3.17 -35.43,13.53 -16.35,7.11 -13.67,2.45 -33.12,-1.18 -47.67,1.29 -37.36,5.8 -43.16,1.29 -79.24,0 -30.92,-5.8 -25.77,-12.88 -21.26,-18.68 -46.38,-55.4 -77.31,-96.63 -25.12,-29.63 -24.48,-33.5 -42.52,-50.89 -1.55,-2.6"
     id="path7331"
     style="fill:none;stroke:#408335;stroke-width:5;stroke-linecap:butt;stroke-linejoin:round;stroke-miterlimit:4;stroke-dasharray:none;stroke-opacity:1" />
  <path
     d="m 2389.03,1978.6 66.35,-16.75 23.84,-14.17 15.46,-19.97 8.37,-32.86 18.68,-156.55 8.37,-56.05 8.37,-46.38 13.53,-27.7 23.19,-32.21 28.99,-35.43"
     id="path7333"
     style="fill:none;stroke:#408335;stroke-width:5;stroke-linecap:butt;stroke-linejoin:round;stroke-miterlimit:4;stroke-dasharray:none;stroke-opacity:1" />
  <path
     style="fill:none;stroke:#408335;stroke-width:5;stroke-linecap:butt;stroke-linejoin:round;stroke-miterlimit:4;stroke-dasharray:none;stroke-opacity:1"
     id="path3859"
     d="m 2589.18,1454.21 10.52,-0.52 12.7,-3.41 8.49,-3.18 4.95,-3.54 6.7,-5.47" />
  <path
     style="fill:none;stroke:#408335;stroke-width:5;stroke-linecap:butt;stroke-linejoin:round;stroke-miterlimit:4;stroke-dasharray:none;stroke-opacity:1"
     id="path7931"
     d="m 2401.27,1975.38 -119.18,29.63 -77.95,16.75 -22.55,6.44 -36.08,8.37 -97.28,13.53 -33.5,1.29 -41.23,-16.75 -30.28,-14.82 -38.01,-26.41 -26.41,-15.46 -38.65,-15.46 -36.72,-8.37 -53.47,-3.22 -37.44,0.62 -15.1,-3.35 -15.74,-8.86 -19.33,-22.55 -16.75,-45.74 -16.11,-22.55 -23.19,-15.46" />
  <path
     style="opacity:1;fill:none;stroke:#f68b1f;stroke-width:5;stroke-linejoin:round;stroke-opacity:1"
     d="m 2720.31,1648.99 6.49,8.64 0.09,2.89 -1.34,3.58 -39.15,29.02 -4.82,0.83 -8.65,-3.76 -1.5,-1.74 0.89,-1.86 3.22,-0.54 3.9,1.97 7.53,10.73"
     id="path1621" />
  <path
     style="opacity:1;fill:none;stroke:#f68b1f;stroke-linejoin:round"
     d="m 2686.98,1698.73 6.19,8.59 143.93,262.67 0.13,3.41 -22.72,31.27 v 3.04 l 11.34,12.95 2.59,0.27 15.27,-13.07 h 2.78 l 59.65,67.65 36.39,39.21 3.87,-0.13 16.92,-14.68 14.53,-22.46 8.68,-6.49 4.99,0.07 114.86,43.52 53.75,38.39 14.95,20.02 6.04,2.6 93.4,-12 45.12,1.26 18.07,6 21.05,0.06 16.52,5.82 11.45,7.15 38.47,9.25 16.19,-0.38 18.87,-3.64 35.29,-8.55 h 12.02 l 9.77,2.47 13.8,12.5 35.88,53.32 12.39,13.5"
     id="path3380" />
  <path
     style="fill:none;stroke:#f78f98;stroke-width:5;stroke-linecap:butt;stroke-linejoin:round;stroke-miterlimit:4;stroke-dasharray:none;stroke-opacity:1"
     d="m 2430.36,1428.24 -18.17,36.94 -17.03,23.61 -4.92,5.61 -12.3,-3.1 -9.17,0.03 -10.14,5.46 -88.67,22.09 -15.61,-1.28 -39.13,4.2 -63.01,-0.04 -44.08,8.83 -19.54,-0.72 -45.17,3.81 -103.56,0.12 -17.46,4.77 -25.74,4.35 -14.6,-1.07 -44.33,-15.55 -13.88,-3.46 -23.54,0.71 -26.22,-6.85 -13.47,2.15 -19.96,-2.44 -13.8,-9.17 -0.95,-5.75 9.06,-52.99 20.23,-60.09 7.6,-15.28 23.25,-30.2 9.37,-5.08 11.24,-1.77 19.47,-7.62 26.48,-4.74 48.28,-3.8 4.99,-4.32 6.73,-7.86 6.09,-3.7 13.01,-1.88 9.4,2.94 9.57,0.09 24.33,17.24 20.11,8.8 16.6,4.51 5.25,0.07"
     id="path15610" />
  <path
     style="fill:none;stroke:#62ad2d;stroke-width:5;stroke-linejoin:round;stroke-miterlimit:4;stroke-dasharray:none;stroke-opacity:1"
     id="path3629-4-0"
     d="m 2370.34,1496.08 h 7.09 l 14.17,3.22 7.73,-7.73 16.75,-23.84 18.68,-37.36" />
  <path
     style="fill:none;stroke:#62ad2d;stroke-width:5;stroke-linecap:butt;stroke-linejoin:round;stroke-miterlimit:4;stroke-dasharray:none;stroke-opacity:1"
     d="m 1342.58,1412.91 19.31,14.4 15.18,3.01 10.57,13.21 20.69,14.56 11.64,6.51 24.45,13.55 99.13,33.47 106.8,39.3 11.27,-0.54 13.03,3.86 37.65,0.03 6.29,-3.09 4.61,-6.62 1.85,-15.26 14.93,-8.08 20.29,2.58 14.17,-1.93 25.12,6.44 h 10.31 l 12.88,-0.64 12.88,3.22 45.74,15.46 14.82,1.29 27.7,-4.51 16.75,-4.51 h 51.54 51.54 l 45.1,-3.87 19.33,0.64 20.61,-3.87 24.48,-5.15 h 63.13 l 17.39,-1.93 20.61,-1.93 16.11,1.29 48.96,-12.24 41.23,-10.31 9.66,-5.15"
     id="path3625-3" />
  <path
     style="fill:none;stroke:#e94e0f;stroke-width:5;stroke-linecap:butt;stroke-linejoin:round;stroke-miterlimit:4;stroke-opacity:1;stroke-dasharray:none"
     id="path3627-2"
     d="m 1731.14,1516.3 -0.46,-14.58 9.11,-51.93 19.13,-58.31 7.29,-15.49 23.23,-29.61 6.83,-3.64 11.84,-2.28 20.5,-7.74" />
  <path
     d="m 1441.37,1482.23 108.55,36.72 57.66,21.58 42.01,15.41 11.84,-0.46 12.3,3.64 40.54,-0.46 7.74,-4.56 5.01,-7.29 4.1,-30.52"
     id="path3627-8-6"
     style="fill:none;stroke:#e94e0f;stroke-width:5;stroke-linecap:butt;stroke-linejoin:round;stroke-miterlimit:4;stroke-dasharray:none;stroke-opacity:1" />
  <path
     style="fill:none;stroke:#408335;stroke-width:5;stroke-linecap:butt;stroke-linejoin:round;stroke-miterlimit:4;stroke-opacity:1;stroke-dasharray:none"
     id="path3635"
     d="m 1714.93,1563.62 -0.08,29.74 -1.29,29.96 -2.25,53.79 -1.61,17.72 -5.48,26.09 -12.56,34.79 -28.35,83.75 -20.94,54.44 -37.04,116.93 -34.47,95.02 -7.41,25.45 0.32,20.62 1.61,27.7 4.83,34.14" />
  <path
     style="fill:none;stroke:#408335;stroke-width:5;stroke-linecap:butt;stroke-linejoin:round;stroke-miterlimit:4;stroke-opacity:1;stroke-dasharray:none"
     id="path3633-7"
     d="m 1680.38,1611.39 12.24,-9.66 13.92,-14.34 8.39,-23.78 3.29,-38.02 2.42,-25.1 11.42,-59.76 9.55,-27.93" />
  <path
     style="fill:none;stroke:#ffd500;stroke-width:5;stroke-linecap:butt;stroke-linejoin:round;stroke-miterlimit:4;stroke-dasharray:none;stroke-opacity:1"
     id="path3623-1"
     d="m 1551.53,1513.18 -13.8,6.53 -66.72,37.57 -32.72,15.8 -6.46,5.81 -1.95,7.95 1.04,59.45 -2.48,8.97 -8.32,8.96 -5.15,9.66 -1.93,16.11 18.04,78.6 16.67,69.61" />
  <path
     style="fill:none;stroke:#408335;stroke-width:5;stroke-linejoin:round;stroke-opacity:1;stroke-dasharray:none"
     d="m 1680.38,1611.39 20.39,-85.64 8.03,-38.4 23.25,-46.63"
     id="path334" />
</svg>
