<svg width="8100" height="7250" viewBox="-1260, -2510, 8100, 7250" xmlns="http://www.w3.org/2000/svg"><path style="opacity:.99918;fill:none;stroke:#bc90c1;stroke-width:1;stroke-linejoin:round;stroke-miterlimit:4;stroke-dasharray:none;stroke-opacity:1" d="m2720.306 1648.993-17.389-21.208-26.856-5.89-16.77-5.849-24.293-13.1-17.655-12.355-27.57-32.324-58.333-29.498-49.86-27.44-76.22-33.522-67.361-39.484-4.946-15.054-31.6-29.09-.416-3.006 5.95-7.818-.302-2.956-22.32-14.783-7.122-9.845-15.175-4.298-34.46-8.577-28.318-27.341-55.35-31.218-13.147 3.692-13.916-.526-2.832-7.227-17.138.332-37.872-9.263-9.482 5.51-24.644 32.777-16.944 16.71-12.13 6.819-10.388 15.855.794 12.41 10.886 24.228-1.978 1.888-17.79-9.186-7.746-10.527-23.476 2.685-1.525-1.126-1.196-13.273 1.544-1.345 36.73-4.084 3.884-1.501"/><path style="opacity:.99918;fill:none;stroke:#bc90c1;stroke-width:5;stroke-linejoin:round;stroke-opacity:1" d="m2720.306 1648.993 6.495 8.636.086 2.885-1.34 3.578-39.151 29.022-4.818.826-8.646-3.761"/><path d="m1862.441 1615.394 2.188 7.274 76.018 26.09 110.068 33.137" style="fill:none;stroke:#7d64b1;stroke-width:5;stroke-linecap:butt;stroke-linejoin:round;stroke-miterlimit:4;stroke-opacity:1;stroke-dasharray:none"/><path d="m1523.963 736.075 29.506 27.523 114.028 106.296 27.057 27.058 47.672 50.893 28.99 36.077 43.163 57.98 37.365 50.893 5.154 38.654 10.952 105.008 11.596 122.402 9.663 88.903 9.02 89.547-5.155 23.192-16.427 24.48-14.244 31.834" style="fill:none;stroke:#7d64b1;stroke-width:5;stroke-linecap:butt;stroke-linejoin:round;stroke-miterlimit:4;stroke-opacity:1;stroke-dasharray:none"/><path d="m1731.137 1516.305-.455-14.577 9.11-51.931 19.133-58.308 7.289-15.489 23.232-29.61 6.833-3.644 11.844-2.277 20.499-7.744" style="fill:none;stroke:#f1471d;stroke-width:5;stroke-linecap:butt;stroke-linejoin:round;stroke-miterlimit:4;stroke-opacity:1;stroke-dasharray:none"/><path d="m1950.027 632.978 1.092-19.39-7.699-43.226-21.55-40.523-99.815-94.01-98.579-88.28M2757.77 1957.357l-220.75-245.487-12.342-21.156-1.367-19.588 6.833-19.588 7.289-14.577M2572.101 1452.757l12.374 9.546 15.91 16.263 6.718 9.546 1.768 10.96v10.607l-.354 15.91" style="fill:none;stroke:#008940;stroke-width:5;stroke-linecap:butt;stroke-linejoin:round;stroke-miterlimit:4;stroke-opacity:1;stroke-dasharray:none"/><path d="m1818.383 1336.592 10.239-3.868 24.598-4.1 49.654-4.1 5.921-5.01 6.378-7.744 5.01-3.189 11.39-1.366 8.654 2.733h9.111l24.599 17.31 20.043 8.655 17.31 4.1 19.589.456 17.31-6.833 31.432-16.4 5.01-8.2 3.645-9.566 2.733-50.108-3.189-11.844-5.466-9.11v-10.478l24.599-20.5 4.1-7.743-1.822-6.833-23.688-22.321-9.566-10.022-6.378-15.033 2.278-11.844 5.922-14.121-11.844-43.276 2.733-9.566 6.377-11.844 11.844-11.844 5.011-23.688-.455-22.776-2.278-24.144-1.822-81.54 1.367-30.521 4.1-36.443 10.048-71.18M1124.63 1332.722l104.795-11.228 11.596 2.577 10.307 10.307 28.346 36.077 25.125 19.97 54.759 41.23 15.461 3.222 8.73 11.884 21.76 15.14 35.865 20.326" style="fill:none;stroke:#f1471d;stroke-width:5;stroke-linecap:butt;stroke-linejoin:round;stroke-miterlimit:4;stroke-dasharray:none;stroke-opacity:1"/><path d="m865.163 2267.098 31.2-21.79 9.018-11.596 31.567-53.47 14.817-28.346 3.222-16.106 12.24-39.941 11.596-17.394 16.105-10.308 16.75-11.596 17.394-8.375 31.567-4.51 35.432-5.797 16.106-9.664 28.99-28.345 23.192-38.654 7.73-21.26 2.577-21.258-1.288-22.548-5.798-18.038-10.952-32.211-.644-10.952 9.019-19.971 1.289-16.75 2.576-108.23 2.577-17.393" style="fill:none;stroke:#f78f98;stroke-width:5;stroke-linecap:butt;stroke-linejoin:round;stroke-miterlimit:4;stroke-dasharray:none;stroke-opacity:1"/><path d="m1680.381 1611.394-9.663 30.278-41.874 51.538-53.47 73.441-37.366 46.384-13.528 15.462-24.48 36.72-86.97 115.316-88.26 116.604-98.565 128.2-28.346 28.99-26.413 21.26-89.547 49.605-63.778 38.009-57.336 29.634-85.681 50.894-60.557 35.432-109.518 63.778-55.403 28.99" style="fill:none;stroke:#008940;stroke-width:5;stroke-linecap:butt;stroke-linejoin:round;stroke-miterlimit:4;stroke-dasharray:none;stroke-opacity:1"/><path d="M2370.343 1496.078h7.086l14.173 3.221 7.73-7.73 16.75-23.837 18.683-37.365" style="fill:none;stroke:#4fb638;stroke-width:5;stroke-linejoin:round;stroke-miterlimit:4;stroke-opacity:1;stroke-dasharray:none"/><path d="m569.337 1243.258 7.491 11.236 14.173 8.375 16.106 5.154 31.566-7.086 33.5 4.51 14.817 12.24 67 65.71 20.614 16.106" style="fill:none;stroke:#666;stroke-width:5;stroke-linecap:butt;stroke-linejoin:round;stroke-miterlimit:4;stroke-opacity:1;stroke-dasharray:none"/><path d="m1591 1746.5-5 14-1 31 .5 13.5 4 12 9.5 12M1584.5 1793l-5 9.5-6.5 7.5-5.5 5-12.5 7.5M1568.93 2210.52v27.703l-12.884 35.432-25.124 53.47-14.818 26.413-37.364 47.673-59.913 65.066-52.826 58.624-55.403 52.182-19.327 25.125" style="fill:none;stroke:#008940;stroke-width:5;stroke-linecap:butt;stroke-linejoin:round;stroke-miterlimit:4;stroke-opacity:1;stroke-dasharray:none"/><path d="m1951.233 628.615-.346 16.768 5.154 33.5 4.365 30.956-4.942 20.26-8.515 11.134-17.47 9.88-12.015 2.24-62.287 5.24-25.38 8.905-18.87 15.007-27.877 33.783-6.264 24.238 4.739 42.497 10.335 56.562 12.542 26.368 23.598 47.135" style="fill:none;stroke:#008940;stroke-width:5;stroke-linecap:butt;stroke-linejoin:round;stroke-miterlimit:4;stroke-dasharray:none;stroke-opacity:1"/><path d="m1100.251 1237.511.33 7.32.645 29.635 3.625 31.182 3.913 12.192 16.71 14.921" style="fill:none;stroke:#f1471d;stroke-width:5;stroke-linecap:butt;stroke-linejoin:round;stroke-miterlimit:4;stroke-opacity:1;stroke-dasharray:none"/><path d="m963.5 1470.5-16 10-12 14L925 1513l-1.5 14 1.5 10.5 6 14.5" style="fill:none;stroke:#008940;stroke-width:5;stroke-linecap:butt;stroke-linejoin:round;stroke-miterlimit:4;stroke-opacity:1;stroke-dasharray:none"/><text x="-1170.5469" y="4637.9609" xml:space="preserve" style="font-size:144px;font-style:normal;font-weight:400;fill:#000;fill-opacity:1;stroke:none;font-family:Sans;-inkscape-font-specification:Sans"/><text x="-1170.5469" y="-2303.0391" xml:space="preserve" style="font-size:143.99990845px;font-style:normal;font-weight:400;fill:#000;fill-opacity:1;stroke:none;font-family:Sans;-inkscape-font-specification:Sans"><tspan x="-1170.5469" y="-2303.0391">1925</tspan></text><path d="m774.604 1359.503 25.769 7.73 86.326-9.018 258.68-22.608" style="fill:none;stroke:#666;stroke-width:5;stroke-linecap:butt;stroke-linejoin:round;stroke-miterlimit:4;stroke-opacity:1;stroke-dasharray:none"/><path d="m934.75 1477.5-17 .5-13.25-4.25L891 1465l-8.75-11.5-7-18.5" style="fill:none;stroke:#008940;stroke-width:5;stroke-linecap:butt;stroke-linejoin:round;stroke-miterlimit:4;stroke-opacity:1;stroke-dasharray:none"/><path style="fill:none;stroke:#008940;stroke-width:5;stroke-linecap:butt;stroke-linejoin:round;stroke-miterlimit:4;stroke-dasharray:none;stroke-opacity:1" d="m1556.683 1821.41-25.117 4.51-35.432 13.528-21.904 10.307-41.23-1.932-47.672 1.288-37.365 5.798-43.163 1.289h-79.24l-30.922-5.798-25.769-12.885-21.26-18.682-46.383-55.403-77.307-96.634-25.125-29.634-24.48-33.5-42.519-50.893-1.555-2.598M2401.266 1975.379l-119.181 29.634-77.95 16.75-22.549 6.442-36.076 8.375-97.278 13.529-33.5 1.288-41.23-16.75-30.278-14.817-38.009-26.413-26.413-15.461-38.653-15.462-36.721-8.375-53.47-3.22-40.587 1.932-27.701-13.529-19.327-22.547-16.75-45.74-16.105-22.548-23.192-15.461-8.294-4.86"/><path style="fill:none;stroke:#008940;stroke-width:5;stroke-linecap:butt;stroke-linejoin:round;stroke-miterlimit:4;stroke-dasharray:none;stroke-opacity:1" d="m1913.213 753.493-65.993 6.088-45.724 11.746-27.058 8.375-47.028 30.278-65.71 47.673-54.115 41.874-32.211 22.548-23.192 14.817-30.279 4.51-141.084 28.346-48.961 10.307-101.787 23.192-86.326 18.683-120.47 24.48-54.114 14.817-38.01 1.288-17.393 5.154-22.548 12.24-9.664 16.106-4.51 21.26 3.222 36.72 9.02 54.759 12.884 68.287 6.442 27.702 1.288 22.548-10.952 38.009-19.97 41.874-4.51 27.702 1.288 36.076 7.087 21.26 19.327 28.345 29.634 32.212M2389.026 1978.6l66.355-16.75 23.836-14.173 15.461-19.97 8.375-32.856 18.683-156.546 8.374-56.047 8.375-46.384 13.529-27.702 23.192-32.21 28.99-35.433 11.596-37.365 16.75-65.066 44.451-74.086 6.442-22.548-5.154-34.144-24.48-66.999-28.346-67.643-18.682-14.173-52.182-20.615-26.413-12.884-28.99-40.586-65.711-112.74-21.904-28.345-76.018-50.894-58.624-37.365-28.99-10.951-41.23-26.413-51.538-42.52-25.125-13.528-21.259-9.019-53.47-3.221-66.355 2.577-38.01 1.933-37.742-.44M1723.624 347.924l-143.16-125.638L1424.27 79.56l-104.427-91.77-26.122-26.83-21.84-33.146L1116.5-283.5l-31-52.5-92-126.5L912-577l-14.5-29-7-30.5.5-26 13-180 6.5-143 16-242-4-29 9-35.5 2.5-66.5-2.5-39-6-33-119-411.5-87.5-310-18-41.5-16.5-29-22.5-30-48-51.5-53.5-102M1951.233 628.615l6.058-24.313 13.279-15.106 78.845-75.768 65.21-60.307 46.096-48.423 52.72-50.143 33.25-38.654 36.077-56.941 76.268-121.258 137.508-212.093 45.956-68.11 12-29 19.5-17 134.5-205 24-31.5 97.5-152.5 45-52.5 188-169.5 166.5-151L3268-980l30-14 382.5-150.5 53.5-27 39.5-21.5M2755.588 1954.765l92.768 99.854 34.143 30.923 29.635 30.278 50.893 54.115 86.97 91.48 35.432 32.21 26.413 18.683 30.923 28.99 45.74 48.96 157.834 184.893 63.134 66.354 74.73 81.172 16.105 20.615 51.538 59.269 38.653 39.942 10.919 12.132M4073.239 2168.106l-121.975-5.258-65.71-3.22-36.077-1.29-38.009-7.086-52.182-4.51-57.336 5.154-30.278-1.932-41.875-9.02-50.249-26.413-55.403-41.23-115.96-83.104-152.68-109.518-101.144-74.73-76.018-55.403-23.836-20.615-37.365-41.875-52.826-39.297-57.98-24.48-21.904-21.904-23.192-14.173-75.374-45.096-68.287-44.45-14.495-4.51-41.29-14.8"/><path d="m1269.226 1475.762 23.688-7.744 56.03-20.499 18.222-2.277 12.3 5.01 22.776 15.489 37.243 20.854 5.015 1.655" style="fill:none;stroke:#666;stroke-width:5;stroke-linejoin:round;stroke-miterlimit:4;stroke-dasharray:none;stroke-opacity:1"/><path d="m1171.445 1672.595 11.596-18.038 81.816-47.673 28.346-15.461 26.26-4.533 10.46-5.453 2.256-13.85 36.72-44.13 31.245-48.316 19.817-10.543 24.451 13.547 99.127 33.472 106.799 39.298 11.272-.538 13.027 3.86 37.65.027 6.293-3.093 4.61-6.624 3.458-28.557-.73-14.516 9.056-52.99 20.231-60.09 7.596-15.281 23.248-30.204 9.371-5.084 11.236-1.766 19.474-7.62 26.484-4.736 48.276-3.798 4.99-4.318 6.735-7.86 6.092-3.697 13.007-1.88 9.4 2.94 9.566.094 24.332 17.24 20.11 8.805 16.6 4.507 17.49.22 17.809-6.817 29.234-15.723 4.072-6.238 3.37-9.032 2.49-48.324-2.892-10.275-5.799-9.95.056-13.805 25.039-20.634 3.264-6.065-.979-3.623-7.553-7.173" style="fill:none;stroke:#f78f98;stroke-width:5;stroke-linecap:butt;stroke-linejoin:round;stroke-miterlimit:4;stroke-dasharray:none;stroke-opacity:1"/><path d="m1441.374 1482.227 108.552 36.721 57.658 21.582 42.013 15.406 11.844-.455 12.3 3.644 40.542-.456 7.744-4.555 5.01-7.288 4.1-30.521" style="fill:none;stroke:#f1471d;stroke-width:5;stroke-linecap:butt;stroke-linejoin:round;stroke-miterlimit:4;stroke-dasharray:none;stroke-opacity:1"/><path d="m1680.381 1611.394 11.534-32.644 8.806-37.382 3.409-36.03 3.533-18.64 15.203-26.516 9.192-19.446 9.546-27.93" style="fill:none;stroke:#008940;stroke-width:5;stroke-linecap:butt;stroke-linejoin:round;stroke-miterlimit:4;stroke-opacity:1;stroke-dasharray:none"/><path d="m1726.283 1456.026-5.647 44.468-2.418 25.099.931 16.256.852 30.57-5.154 20.937-1.289 29.956-2.254 53.793-1.611 17.716-5.476 26.09-12.562 34.789-28.346 83.749-20.937 54.437-37.043 116.926-34.466 95.023-7.408 25.446.322 20.616 1.61 27.701 4.832 34.144" style="fill:none;stroke:#008940;stroke-width:5;stroke-linecap:butt;stroke-linejoin:round;stroke-miterlimit:4;stroke-opacity:1;stroke-dasharray:none"/><path d="m1724.992 1520.532 14.98.67 20.292 2.577 14.173-1.932 25.125 6.442h10.308l12.884-.644 12.884 3.221 45.74 15.461 14.817 1.289 27.702-4.51 16.75-4.51H2043.721l45.096-3.865 19.326.644 20.615-3.865 24.48-5.154h63.135l17.394-1.932 20.615-1.933 16.105 1.288 48.961-12.24 41.23-10.307 9.664-5.154" style="fill:none;stroke:#4fb638;stroke-width:5;stroke-linejoin:round;stroke-miterlimit:4;stroke-opacity:1;stroke-dasharray:none"/><path style="fill:none;stroke:#fcd205;stroke-width:5;stroke-linecap:butt;stroke-linejoin:round;stroke-miterlimit:4;stroke-dasharray:none;stroke-opacity:1" d="m1447.817 1840.093-16.75-71.509-18.038-78.595 1.933-16.105 5.154-9.664 10.951-14.172-2.577-65.711 4.51-7.73 38.009-19.328 51.727-27.74 14.99-9.834 13.803-6.53"/><path d="m2891.068 1354.136-25.962 22.761-85.038 71.509-15.461 11.596-23.192 10.952-34.144 9.663-41.23-.644-119.503-34.788-100.499-29.634-77.95-25.447-20.938-9.986-36.194-24.447-25.33-15.494-20.936-4.832-23.514-6.764-12.885-1.611-14.495.644-11.918-3.543-12.884-10.307-20.938-12.24-20.293-9.342-6.348-6.47-7.18-9.635-2.9-11.919-12.24-20.293-3.22-14.817-8.054-14.817-35.754-38.331-12.562-12.562-13.529-8.053-10.63-2.577-12.884.644-14.817 5.154-10.905 6.511-10.032 3.474-22.87.322-9.663 1.289-28.024 18.038-5.29 4.266-6.628 4.109-11.596 3.865-41.23 2.578-9.342-1.289-13.037-5.823-12.087-6.417-9.02-3.865-10.629-.967-18.36-.644-10.952-3.221-10.952-7.086-9.663-16.75-11.918-16.428-10.899-12.847-9.08-5.843-25.51-3.397-19.818 1.647-9.801 5.782-15.728 14.014-15.783 14.173-52.826 45.095-10.63 7.409-14.817 5.476-14.495 2.254-64.422-8.697-18.038-1.61-21.904 5.154-19.327 13.206-33.5 45.418-5.475 12.562-27.38 90.513-11.127 24.233-11.742 20.863-10.952 11.918-13.529 9.02-16.75 3.22-80.528-7.73-51.537-4.832-40.264-2.577-25.125 4.51-17.394 4.51-53.792 20.614-24.832 8.28-23.807 6.537-21.904 3.866-19.326 5.476-50.572 23.514-58.946 30.6-16.428 7.087-31.889 19.649-15.139 18.682-25.447 32.211-20.615 36.399-10.952 19.326-34.788 31.89" style="fill:none;stroke:#008940;stroke-width:5;stroke-linecap:butt;stroke-linejoin:round;stroke-miterlimit:4;stroke-dasharray:none;stroke-opacity:1"/></svg>