<?xml version="1.0" encoding="UTF-8" standalone="no"?>
<svg
   xmlns:dc="http://purl.org/dc/elements/1.1/"
   xmlns:cc="http://creativecommons.org/ns#"
   xmlns:rdf="http://www.w3.org/1999/02/22-rdf-syntax-ns#"
   xmlns:svg="http://www.w3.org/2000/svg"
   xmlns="http://www.w3.org/2000/svg"
   xmlns:xlink="http://www.w3.org/1999/xlink"
   id="svg2"
   version="1.1"
   width="9350"
   height="5700"
   viewBox="0 0 9350 5700">
  <metadata
     id="metadata8">
    <rdf:RDF>
      <cc:Work
         rdf:about="">
        <dc:format>image/svg+xml</dc:format>
        <dc:type
           rdf:resource="http://purl.org/dc/dcmitype/StillImage" />
        <dc:title></dc:title>
      </cc:Work>
    </rdf:RDF>
  </metadata>
  <defs
     id="defs6" />
  <image
     width="6104"
     height="4323.6665"
     preserveAspectRatio="none"
     xlink:href="file:///home/alexander/timelines/timelines/streetmap/../streetmap/istosm.png"
     id="image10"
     x="1450"
     y="-223.6665"
     style="display:none" />
  <path
     style="fill:none;fill-rule:evenodd;stroke:#e62424;stroke-width:5;stroke-linecap:butt;stroke-linejoin:round;stroke-miterlimit:4;stroke-dasharray:none;stroke-opacity:1"
     d="m 2566.5052,2430.2462 28.5457,-21.6021 10.3728,-10.9492 14.9831,-3.4576 15.5593,-0.5763 84.1356,10.3729 16.1356,2.8814 21.322,-6.339 36.3051,-14.9831 25.9322,-19.0169 L 2928,2322 l 105.017,-4.4068 13.8305,-5.1864 81.8305,-60.5085 23.0508,-9.2203 28.2373,-3.4577 19.017,-2.8813 14.4067,-9.2204 29.9661,-39.1864 9.7966,-20.7458 4.6102,-29.9661 10.9492,-24.2034 23.6271,-37.4576 6.339,-19.0169 3.4576,-39.7627 5.1864,-29.9661 -0.5762,-24.2034 -4.6102,-20.1695 -13.8305,-42.0678 -2.8814,-72.6102 -7.4915,-18.4407 -10.9491,-23.0508 -10.9492,-35.1526 -21.322,-36.305 -2.8814,-11.5255 1.1526,-18.4406 5.1864,-51.8645 -4.6102,-16.1355 -17.8644,-26.5085 -2.8813,-18.4407 -0.5763,-17.2881 5.1864,-14.4068 12.1017,-9.7966 20.7458,-10.3729 h 14.4068 l 10.3729,0.5763 16.1355,9.7966 9.2204,14.4068 4.6102,12.1017 -4.0339,19.0169 -1.1526,14.9831 v 12.1016 l 10.3729,13.8306 7.4915,6.9152 20.7458,8.6441 36.3051,5.7627 68.5762,12.1017 31.1187,12.1017 25.3559,21.8983 23.6271,26.5085 10.9492,32.2711 8.6441,24.2034 16.7118,16.1356 23.6271,12.1017 13.2543,12.678 7.4915,17.8644 16.1356,40.339 20.1695,23.6271 221.8644,198.2373"
     id="path4186" />
  <path
     style="fill:none;fill-rule:evenodd;stroke:#e62424;stroke-width:5;stroke-linecap:butt;stroke-linejoin:round;stroke-miterlimit:4;stroke-dasharray:none;stroke-opacity:1"
     d="m 3234.7119,1663.5254 -13.2543,24.2034 -12.6779,13.2542 -20.1695,2.8814 -13.2543,-5.1864 -11.0821,-9.5088"
     id="path4188" />
  <path
     style="fill:none;fill-rule:evenodd;stroke:#7b7156;stroke-width:5;stroke-linecap:butt;stroke-linejoin:round;stroke-miterlimit:4;stroke-dasharray:none;stroke-opacity:1"
     d="m 4156.4576,1834.1017 -1.1525,81.2543"
     id="path4194" />
  <path
     style="fill:none;fill-rule:evenodd;stroke:#6bb8b0;stroke-width:5;stroke-linecap:butt;stroke-linejoin:round;stroke-miterlimit:4;stroke-dasharray:none;stroke-opacity:1"
     d="m 4344.3678,1598.448 43.1935,-19.1518"
     id="path4198" />
  <text
     x="89.452698"
     y="206.96094"
     id="text3019"
     xml:space="preserve"
     style="font-style:normal;font-weight:normal;font-size:143.99993896px;line-height:125%;font-family:Sans;-inkscape-font-specification:Sans;letter-spacing:0px;word-spacing:0px;fill:#000000;fill-opacity:1;stroke:none"><tspan
       x="89.452698"
       y="206.96094"
       id="tspan1">1995</tspan></text>

  <text
     style="font-style:normal;font-weight:normal;font-size:144px;line-height:125%;font-family:Sans;-inkscape-font-specification:Sans;letter-spacing:0px;word-spacing:0px;fill:#000000;fill-opacity:1;stroke:none"
     xml:space="preserve"
     id="text3781"
     y="8997.9609"
     x="-1610.547"><tspan
       id="tspan2"
       y="5597.9609"
       x="89.453133">1995</tspan></text>
</svg>
