<svg xmlns="http://www.w3.org/2000/svg" width="2550" height="2800" viewBox="50 0 2550 2800"><path style="color:#000;font-style:normal;font-variant:normal;font-weight:400;font-stretch:normal;font-size:medium;line-height:normal;font-family:sans-serif;font-variant-ligatures:normal;font-variant-position:normal;font-variant-caps:normal;font-variant-numeric:normal;font-variant-alternates:normal;font-feature-settings:normal;text-indent:0;text-align:start;text-decoration:none;text-decoration-line:none;text-decoration-style:solid;text-decoration-color:#000;letter-spacing:normal;word-spacing:normal;text-transform:none;writing-mode:lr-tb;direction:ltr;text-orientation:mixed;dominant-baseline:auto;baseline-shift:baseline;text-anchor:start;white-space:normal;shape-padding:0;clip-rule:nonzero;display:inline;overflow:visible;visibility:visible;opacity:1;isolation:auto;mix-blend-mode:normal;color-interpolation:sRGB;color-interpolation-filters:linearRGB;solid-color:#000;solid-opacity:1;vector-effect:none;fill:none;fill-opacity:1;fill-rule:nonzero;stroke:#ef4722;stroke-width:5;stroke-linecap:butt;stroke-linejoin:round;stroke-miterlimit:4;stroke-dasharray:none;stroke-dashoffset:0;stroke-opacity:1;color-rendering:auto;image-rendering:auto;shape-rendering:auto;text-rendering:auto;enable-background:accumulate" d="m1543.64 2293.18-30.06-5.22c-.17-.03-.35-.08-.51-.15l-10.5-4.25c-.1-.04-.2-.09-.29-.14l-25-14.11-87.29-25.62-6.48-.86-8.47 4.81-40.46 25.22c-.3.19-.64.31-1 .36l-5.75.75c-.35.04-.7.02-1.04-.08l-91.75-27.25c-.21-.06-.41-.15-.6-.27l-14.25-8.75a2.4 2.4 0 0 1-.65-.58l-7.5-9.5a2.46 2.46 0 0 1-.45-.9l-3-11.25c-.08-.31-.1-.63-.07-.94l1.5-12.5c.03-.21.08-.41.15-.61l13.3-33.99-.46-7.88-3.49-29.18c0-.02-.01-.03-.01-.05l-3.48-35.01-3.99-13.4-8.23-8-9.96-4.63-8.36-.7-9.29.71-18.24 5.42c-.6.02-.13.04-.19.05l-8.25 1.75c-.17.04-.34.06-.52.06h-11.5c-.52 0-1.03-.16-1.45-.46l-16.5-11.75c-.23-.16-.43-.36-.59-.59l-13-18.25c-.12-.16-.21-.34-.29-.53l-50.5-127.25-9.55-36.92-8.88-15.38-11.75-9.38-20-11.5-7-5.5-4-9.25-.5-52.5-18.25-35.25-25.5-28.5-15-16.75-2-8.75v-14.75l13-18.25 1.75-12.25-2-14-18.75-96-8.5-14.25-34-26.75-35.5-23.75-26-6.75-22.75-19-68-62.75-58.75-23-45.25-22.75-26.5-14.75-57.75-54.25-5.25-5.5-1.75-6.25 2-9 14.5-29.5 28.25-70 4-21.25-.75-21-15.5-24-1.75-9.75 2.5-7.25 6-7.5 9-3 21 2.5 6.25-3.75 6.25-6.25 2.25-9.25 7.5-59-1.75-8.5-7-12.75-13.75-7-42.25-25.25-5.25-8-16.5-53.5 2.25-29-4.75-13-30.5-54.5v-8.25l2.25-9.75 6.25-4.75 11.25-3.25 14.25.9.75-1.5 10-7.5 29.75-63.5 8-7 11.25-3.5 21.5 6 8-.75 9-3 6.25-5.75 8.25-22.5-8.25-52.04.75-15.02.75-29.08.75-8.25 13.25-1.25 20.25 6.25 6.75-2.25 9.25-6 24-41.25 9.75-10.5 7-3.25 12-.75 45 14.25 8 .75 10.5-4.5 5.5-8.25 7.25-17.25 6.75-8.03.5-15.75 8.25-2.010.751.25 11.5 4.75 41.75 27.25 7.5 2h8.5l12.5-5.25 54.5-29.01.75-5.010.751.75 15.75 5.75 13.25-2.5 8.5-8.05.5-7.75V404l-3.5-6.5-9.25-11-3.5-10 4-10 13.25-11.5 4.25-8.75 2.5-14.75 1.5-14.5 6-10.5 22.25-21.75 5.75-11.75 5.5-24.09.25-18.5v-8.75l-3.75-8.25-22-24.75-18.5-29.75-1.5-11.5 7-19.25-2-22.25"/><path style="opacity:1;fill:none;fill-opacity:.38;fill-rule:nonzero;stroke:#ee1d23;stroke-width:5;stroke-linecap:butt;stroke-linejoin:round;stroke-miterlimit:4;stroke-dasharray:none;stroke-opacity:1" d="m1485.07 2151.16 33.94-31.47 29.7-48.44"/><text style="font-style:normal;font-weight:400;font-size:144px;line-height:125%;font-family:Sans;-inkscape-font-specification:Sans;letter-spacing:0;word-spacing:0;fill:#000;fill-opacity:1;stroke:none" xml:space="preserve" y="206.96" x="139.45"><tspan y="206.96" x="139.45">1995</tspan></text><path d="m1480.5 2285.16 12.65-12.88 9.06-19.59-.38-11.87-3.71-10.83-35.44-30.36-28.87-37.71-9.31-2.17-18.69 1.96-196.39 42.66-32.17 14.64-21.25.5-29.25 1-25.5-9.5-13.5-10.75-28-47.25-13.75-16.5-17.25-41-26.5-28.5-14.25-34.25-16.5-19.75-39.75-38.5-7.5-18.75-2-22 13-105.5 6.25-23.25 3.25-20.25-3-13.25-46.75-65.5-13.75-11-34.5-17.25-24.25-19.25-66.22-55.08-12.44-18.72-7.58-29.94-14.4-18.39-34.23-23.49-28.38-12.53-16.6-4.12-27.49-18.42-31.93-10.24-30.12-13.01-19.24-19.29-30.97-41.45-15.06-8.45-15.4-8.09-14.03-12.56-63.13-95.74-11.84-7.78-24.16-6.86-14.58-7.9-20.78-18.62" style="opacity:1;fill:none;fill-opacity:.38;fill-rule:nonzero;stroke:#00a54f;stroke-width:5;stroke-linecap:butt;stroke-linejoin:round;stroke-miterlimit:4;stroke-dasharray:none;stroke-opacity:1"/></svg>