<svg xmlns="http://www.w3.org/2000/svg" height="2800" width="2600"><path d="M1709.906 2486.922a1.91 1.91 0 0 1-.101-.088l-30.5-28.25a2.56 2.56 0 0 1-.246-.264l-15.75-19.5a2.953 2.953 0 0 1-.096-.125l-28.5-40.25a2.48 2.48 0 0 1-.23-.4l-8.75-19a2.559 2.559 0 0 1-.159-.46l-4.928-20.445-15.931-30.146-17.235-17.479-12.234-6.716-31.608-10.62-30.062-5.216a2.48 2.48 0 0 1-.51-.147l-10.5-4.25c-.1-.04-.197-.087-.29-.139l-25-14.109-87.292-25.615-6.478-.863-8.473 4.808-40.457 25.223c-.303.189-.644.311-.998.357l-5.75.75c-.347.045-.7.017-1.035-.082l-91.75-27.25a2.501 2.501 0 0 1-.598-.265l-14.25-8.75a2.502 2.502 0 0 1-.654-.583l-7.5-9.5a2.502 2.502 0 0 1-.453-.904l-3-11.25a2.5 2.5 0 0 1-.066-.943l1.5-12.5a2.47 2.47 0 0 1 .154-.612l13.3-33.99-.464-7.877-3.49-29.175c0-.017-.01-.034-.01-.051l-3.477-35.012-3.994-13.397-8.23-8-9.961-4.632-8.358-.698-9.285.715-18.244 5.424a2.606 2.606 0 0 1-.194.049l-8.25 1.75a2.52 2.52 0 0 1-.519.055h-11.5a2.5 2.5 0 0 1-1.45-.463l-16.5-11.75a2.502 2.502 0 0 1-.587-.586l-13-18.25a2.496 2.496 0 0 1-.287-.53l-50.5-127.25-9.551-36.921-8.875-15.375L1025 1856l-20-11.5-7-5.5-4-9.25-.5-52.5-18.25-35.25-25.5-28.5-15-16.75-2-8.75v-14.75l13-18.25 1.75-12.25-2-14-18.75-96-8.5-14.25-34-26.75-35.5-23.75-26-6.75-22.75-19-68-62.75-58.75-23-45.25-22.75-26.5-14.75-57.75-54.25-5.25-5.5-1.75-6.25 2-9 14.5-29.5 28.25-70 4-21.25-.75-21-15.5-24-1.75-9.75 2.5-7.25 6-7.5 9-3 21 2.5 6.25-3.75 6.25-6.25 2.25-9.25 7.5-59-1.75-8.5-7-12.75-13.75-7-42.25-25.25-5.25-8-16.5-53.5 2.25-29-4.75-13-30.5-54.5v-8.25l2.25-9.75 6.25-4.75 11.25-3.25 14.25 3 9.75-1.5 10-7.5 29.75-63.5 8-7 11.25-3.5 21.5 6 8-.75 9-3 6.25-5.75 8.25-22.5-8.25-52 4.75-15 21.75-29 8.75-8.25 13.25-1.25 20.25 6.25 6.75-2.25 9.25-6 24-41.25 9.75-10.5 7-3.25 12-.75 45 14.25 8 .75 10.5-4.5 5.5-8.25 7.25-17.25 6.75-8 26.5-15.75 8.25-2 126.75 1.25 11.5 4.75 41.75 27.25 7.5 2h8.5l12.5-5.25 54.5-29 10.75-5 10.75 1.75 15.75 5.75 13.25-2.5 8.5-8 5.5-7.75V404l-3.5-6.5-9.25-11-3.5-10 4-10L1240 355l4.25-8.75 2.5-14.75 1.5-14.5 6-10.5 22.25-21.75 5.75-11.75 5.5-24 9.25-18.5v-8.75l-3.75-8.25-22-24.75-18.5-29.75-1.5-11.5 7-19.25-2-22.25" style="line-height:normal;font-variant-ligatures:normal;font-variant-position:normal;font-variant-caps:normal;font-variant-numeric:normal;font-variant-alternates:normal;font-feature-settings:normal;text-indent:0;text-align:start;text-decoration-line:none;text-decoration-style:solid;text-decoration-color:#000;text-transform:none;text-orientation:mixed;shape-padding:0;isolation:auto;mix-blend-mode:normal" color="#000" font-weight="400" font-family="sans-serif" white-space="normal" overflow="visible" fill="none" stroke="#ef4722" stroke-width="5" stroke-linejoin="round"/><path d="M1463 2282l-30 21.5-10.25 19-8.5 14.25-8 20.75-10 8.5-21 8.5-32.25 1.75-47.75-.25-12-7.25-20.5-23.5-3-15.25-3.5-36.75-7-16.75-28.5-27.75-19.25-16.75-24.25-13-21.25.5-29.25 1-25.5-9.5-13.5-10.75-28-47.25-13.75-16.5-17.25-41-26.5-28.5-14.25-34.25-16.5-19.75-39.75-38.5-7.5-18.75-2-22 13-105.5 6.25-23.25 3.25-20.25-3-13.25L895 1706l-13.75-11-34.5-17.25-24.25-19.25" fill="none" stroke="#00a54f" stroke-width="5" stroke-linejoin="round"/><path d="M1485.073 2151.156l33.941-31.466 29.699-48.437" fill="none" stroke="#ee1d23" stroke-width="5" stroke-linejoin="round"/><path d="M186.825 1651.939l-33.941 89.802-8.839 13.082-35.355 29.345" fill="none" stroke="#b01f8d" stroke-width="5" stroke-linejoin="round"/><text x="89.453079" y="208.76103" style="line-height:125%;-inkscape-font-specification:Sans" font-weight="400" font-size="143.99993896px" font-family="Sans" letter-spacing="0" word-spacing="0"><tspan x="89.453079" y="208.76103">2000</tspan></text></svg>