<?xml version="1.0" encoding="UTF-8" standalone="no"?>
<!-- Created with Inkscape (http://www.inkscape.org/) -->

<svg
   xmlns:dc="http://purl.org/dc/elements/1.1/"
   xmlns:cc="http://creativecommons.org/ns#"
   xmlns:rdf="http://www.w3.org/1999/02/22-rdf-syntax-ns#"
   xmlns:svg="http://www.w3.org/2000/svg"
   xmlns="http://www.w3.org/2000/svg"
   xmlns:xlink="http://www.w3.org/1999/xlink"
   xmlns:inkscape="http://www.inkscape.org/namespaces/inkscape"
   version="1.1"
   width="2900"
   height="2473"
   id="svg2">
  <metadata
     id="metadata8">
    <rdf:RDF>
      <cc:Work
         rdf:about="">
        <dc:format>image/svg+xml</dc:format>
        <dc:type
           rdf:resource="http://purl.org/dc/dcmitype/StillImage" />
        <dc:title />
      </cc:Work>
    </rdf:RDF>
  </metadata>
  <defs
     id="defs6" />
  <image
     xlink:href="../streetmap/vieosm.png"
     style="display:none"
     id="image10"
     height="2473"
     width="2473"
     y="0"
     x="0" />
  <path
     d="m 490.5,2473.5 -11,-110.5 -5,-54 5,-81.5 14,-65 28.5,-76 31.5,-59.5 32.5,-46 51.5,-56.5 132,-115 62.5,-53.5 25.5,-25.5 38,-27.5 65.5,-26.5 64.5,-21 46.5,-17 23,-14 28,-18.5 48.5,-11.5 41.5,-5 36.5,-15.5 106.5,-54.5 99,-50.5 23,-8 15,1 23,11.5 16.5,3 22.5,-7 9.5,-10 7.5,-15 1,-20.5 -5,-23.5 -14.5,-16.5 -27,-14.5 -7.5,-10.5 -21,-125 -3,-28 5.5,-18.5 8,-14 24,-28.5 46,-50 7,-23.5 -3.5,-24.5 -2,-20 -8,-107 -12.5,-62.5 -13.5,-43 -60,-75.5 -6.5,-17.5 -5,-24.5 5,-26 7.5,-19.5 19.5,-19 63.5,-41.5 24,-16.5 11,-13 15.5,-24 6.5,-24 12.5,-52.5 12,-34 11.5,-25.5 49.5,-55.5 63,-78 31,-32.5 44,-33 43,-22.5 59,-23 178.5,-56.5 47,-16"
     inkscape:connector-curvature="0"
     id="path3776"
     style="fill:none;stroke:#009ddd;stroke-width:5;stroke-linecap:butt;stroke-linejoin:round;stroke-miterlimit:4;stroke-opacity:1;stroke-dasharray:none" />
  <path
     d="m 1522,636 -51.5,-69.5 -47,-78 -26,-41.5 -12.5,-15 -12.5,-7.5 -17,3.5 -13.5,16 -34,80 -13.5,36 -1,15 -1,16 -9,12.5 -13,5 -23,-4 -27,-2 -27,-13.5 -51.5,-5 -15,-5 -16,0.5 -14.5,6.5 -9,12 -3,15.5 2,17.5 -2.5,13.5 -4.5,7 -10.5,7 -30,4.5 -15,1 -14,9.5 -72,105.5 -5,17 3,36 -5,12.5 -20.5,21 -11.5,6 -27,1 -11.5,5.5 -22.5,20 -44.5,19 -17,12.5 -14.5,32 -5.5,15.5 -14,63.5 2,20 9,21 -2,18 -8,21.5 -13.5,61.5 -15,67.5 -11,52 1,13 19,24 8,11.5 1.5,12.5 -4.5,14.5 -10.5,10.5 -15.5,4 -30.5,-1.5 -83,-16 -52,5.5 -61,0 -77,-5.5 -40,-9 -21.5,-3 -103.5,-45"
     inkscape:connector-curvature="0"
     id="path3778"
     style="fill:none;stroke:#009ddd;stroke-width:5;stroke-linecap:butt;stroke-linejoin:round;stroke-miterlimit:4;stroke-opacity:1;stroke-dasharray:none" />
  <path
     d="m 1668,407 -9,21.5 -6.5,16.5 -10,34.5 -7,24.5 -9.5,34.5 -12.5,24 -14,16 -22.5,16 -53.5,35.5 -26.5,19.5 -8,10 -7,18.5 -9.5,16.5 -58,41.5 -82,2 -42,0.5 -36.5,-9 -23,3 -20,5.5 -10,11 -6,26 -6,13.5 -22.5,14 -11,9 -5,26.5 -10,68.5 -3.5,11.5 -12.5,11.5 -33,14.5 -10,17 -11,37.5 -7.5,28 -25.5,68.5 -1.5,35 -19,47.5 2.5,79.5 14.5,54.5 8,39 -5,20 -16,45.5 3,16.5 5.5,21.5 -5,21.5 -11,15.5 -26.5,24.5 -12.5,9.5 -9,8.5 -5.5,22.5 -4.5,26 2,43 2.5,52.5 -3.5,22.5 -21,57.5 -6,18 -8,39 -24.5,43 -42.5,83 -10,14 -15.5,15 -12,18 -6.5,19 -1,62.5 -3.5,111.5 -4.5,19 -7,14 -21,30.5 -11.5,28 -20,52 -4.5,19.5 -2.5,15"
     inkscape:connector-curvature="0"
     id="path3780"
     style="fill:none;stroke:#986a3a;stroke-width:5;stroke-linecap:butt;stroke-linejoin:round;stroke-miterlimit:4;stroke-opacity:1;stroke-dasharray:none" />
  <path
     d="m 233,1325 19.5,7.5 11,8.5 15,29 21,10.5 94,17 74.5,8.5 54.5,13 59.5,16 74.5,24 35,12.5 90.5,5 30.5,9 77.5,34 22.5,8.5 19.5,1 24,-0.5 12,-5 16.5,-12.5 16.5,-14.5 14,-23.5 17.5,-13 28,-4.5 27,-1.5 22,-4.5 47.5,-12 20.5,-15 14,-23.5 3,-33.5 2.5,-15.5 16,-11.5 14.5,-8 31,-8 15,-10.5 37,-29.5 18,-11.5 13.5,-2.5 41,14.5 13,-1 29,-10.5 24,-35.5 22.5,-24 21,-25 10,-15.5 5,-18 0,-12.5 -6,-12.5 -12,-18.5 -10,-3.5 -20,-5 -27,-5 -19.5,-11.5 -13.5,-15.5 -21.5,-38.5 -13.5,-16 -20.5,-25 -9,-18.5 -7,-23.5 -1,-16.5 -2.5,-32 -8.5,-19.5 -10.5,-12.5 -19,-23 -12.5,-24 -14,-36.5 -6.5,-14.5 -11,-8 -5,-9 -3.5,-15.5 1,-17 10.5,-17.5 13,-24 28.5,-61 9.5,-19.5 2.5,-12 1,-22.5 7.5,-22.5 7,-14.5"
     inkscape:connector-curvature="0"
     id="path3782"
     style="fill:none;stroke:#00a650;stroke-width:5;stroke-linecap:butt;stroke-linejoin:round;stroke-miterlimit:4;stroke-opacity:1;stroke-dasharray:none" />
  <path
     d="m 760,1090 -8.5,31.5 -12,45.5 -7.5,37 -4,27 4.5,27 18.5,17 21.5,22 16,11.5 56,5 36.5,5.5 14.5,-0.5 28.5,-7 25,1.5 17,5 36.5,15 25,10.5 12.5,1 23,-9 50.5,-14 27,-13 27,-16.5 24.5,-15.5 17.5,-17.5 8.5,-18 2.5,-16.5 5,-17.5 8,-14.5 11.5,-14 17.5,-17 14,-10.5 19.5,-9.5 13.5,-6 17,1.5 27.5,13 27.5,4 20.5,3.5 46.5,8.5 10.5,0.5 55,24.5 33,24 26.5,25 72,64 34.5,26.5 50.5,34 11.5,8.5 22.5,6 24,15.5 40,35.5 23.5,27.5 0,15 -8,24 -17.5,27 -24.5,31.5 -18.5,27 -4.5,17 5.5,23 18.5,32.5 23.5,25.5 16,17.5 29.5,43.5"
     inkscape:connector-curvature="0"
     id="path3784"
     style="fill:none;stroke:#f5821f;stroke-width:5;stroke-linecap:butt;stroke-linejoin:round;stroke-miterlimit:4;stroke-opacity:1;stroke-dasharray:none" />
  <path
     d="m 1365,1272 -20,-8 -18.5,2.5 -15.5,0 -21.5,-7.5 -28,-20.5 -46,-55 -8,-12 -6.5,-26.5 5.5,-46.5 4,-33 12,-9 39,8.5 43.5,-30.5 21.5,-15 44,-11 39,-7 41.5,-11 32,-8.5 33,-0.5 40,6.5 45,7.5 28.5,5 106.5,4 27.5,12.5 20,21 38.5,30 21.5,18.5 27.5378,32.2586"
     inkscape:connector-curvature="0"
     id="path3786"
     style="fill:none;stroke:#a066aa;stroke-width:5;stroke-linecap:butt;stroke-linejoin:round;stroke-miterlimit:4;stroke-opacity:1;stroke-dasharray:none" />
  <path
     d="m 2012,603.5 -28,28 -43.5,36.5 -46.5,39 -10.5,11.5 -11,16.5 -14,13.5 -43.5,36.5 -8,10.5 -5.5,11.5 -18,17 -69.5,54.5 -53,44 -106,87.5 -52.5,42.5 -48.5,36 -36,13.5 -14,11.5 -21.5,23.5 -9.5,14 -4.5,23.5 -6,26 -8,27 -23,73.5 0,19.5 9,20 15.5,31 6.5,18.5 6.5,31 25,65.5 3,23.5 7.5,43 34,129"
     inkscape:connector-curvature="0"
     id="path3788"
     style="fill:none;stroke:#ed1c24;stroke-width:5;stroke-linecap:butt;stroke-linejoin:round;stroke-miterlimit:4;stroke-opacity:1;stroke-dasharray:none" />
  <path
     d="m 1424,1479 -34,17 -35.5,19 -60.5,30 -60,31 -24,8 -40.5,-0.5 -27,-5.5"
     inkscape:connector-curvature="0"
     id="path3790"
     style="fill:none;stroke:#003563;stroke-width:5;stroke-linecap:butt;stroke-linejoin:round;stroke-miterlimit:4;stroke-opacity:1;stroke-dasharray:none" />
  <path
     d="m 1243,1571 3,13.5 -2.5,8 -10.5,29.5"
     inkscape:connector-curvature="0"
     id="path3792"
     style="fill:none;stroke:#003563;stroke-width:5;stroke-linecap:butt;stroke-linejoin:round;stroke-miterlimit:4;stroke-opacity:1;stroke-dasharray:none" />
  <path
     d="m 1292,1545.5 1,-8 -18,-26.5 1,-8.5 17.5,-30.5 15.5,-32.5"
     inkscape:connector-curvature="0"
     id="path3794"
     style="fill:none;stroke:#003563;stroke-width:5;stroke-linecap:butt;stroke-linejoin:round;stroke-miterlimit:4;stroke-opacity:1;stroke-dasharray:none" />
  <path
     d="m 947,1687.5 5,3 -12.5,39 -10.5,29 -2,16 1.5,30 5.5,13.5 31.5,27 20.5,24.5 24,49.5 20,55 2,18 -3.5,12.5 -13,15.5 -16.5,10.5 -18.5,27.5 -51,93 -7,18.5 1,22 0,11.5 -27,51.5 -20.5,48.5 -26,70 -20.5,60 -6.5,41.5"
     inkscape:connector-curvature="0"
     id="path3796"
     style="fill:none;stroke:#003563;stroke-width:5;stroke-linecap:butt;stroke-linejoin:round;stroke-miterlimit:4;stroke-opacity:1;stroke-dasharray:none" />
  <path
     d="m 950.5,1690 -5.5,-3.5 -3,-7.5 3.5,-6 109.5,-36 19,-5 32,-23 9.5,-13 -9,-24.5 21,-9.5 16.5,16"
     inkscape:connector-curvature="0"
     id="path3798"
     style="fill:none;stroke:#003563;stroke-width:1px;stroke-linecap:butt;stroke-linejoin:miter;stroke-opacity:1" />
  <path
     d="m 1108,1571 -85.5,34 -27.5,26 6.5,18.5 -2,6.5"
     inkscape:connector-curvature="0"
     id="path3800"
     style="fill:none;stroke:#003563;stroke-width:1px;stroke-linecap:butt;stroke-linejoin:miter;stroke-opacity:1" />
  <path
     d="m 1026.5,1604 -3.5,4.5 10.5,29.5 -0.5,7"
     inkscape:connector-curvature="0"
     id="path3802"
     style="fill:none;stroke:#003563;stroke-width:1px;stroke-linecap:butt;stroke-linejoin:miter;stroke-opacity:1" />
  <path
     d="m 943.5,1684.5 -7.5,9 -22.5,12.5 -23,8 -33,24 -26.5,39.5 -36.5,42.5 -5.5,-0.5 -10,-14.5 -20.5,-13 -29,-11.5 -31,-4.5 -37,-17 -29,-23 -85,-11.5 -17,1.5 -40,17 -18,23.5 -12.5,-0.5 -26,-3 -15.5,-15.5 -16,-24 -32.5,-71"
     inkscape:connector-curvature="0"
     id="path3804"
     style="fill:none;stroke:#003563;stroke-width:1px;stroke-linecap:butt;stroke-linejoin:miter;stroke-opacity:1" />
  <path
     d="m 1129,1563.5 -14.5,-26 -32.5,-60.5 -13,-18 -33,-5.5 -10.5,-30.5 1,-10.5 11.5,-32 2.5,-19 -7,-24.5 -4,-23.5 -14.5,-53.5 -0.5,-19.5"
     inkscape:connector-curvature="0"
     id="path3806"
     style="fill:none;stroke:#003563;stroke-width:1px;stroke-linecap:butt;stroke-linejoin:miter;stroke-opacity:1" />
  <path
     d="m 1308,1442 7,-14 5.5,-18 3,-31.5 0,-37.5 3.5,-17.5 -1,-21 11.5,-35 8.5,-23.5 8.5,1.5 12.5,7 -3.5,13.5 -8,5 -20,2"
     inkscape:connector-curvature="0"
     id="path3808"
     style="fill:none;stroke:#003563;stroke-width:1px;stroke-linecap:butt;stroke-linejoin:miter;stroke-opacity:1" />
  <path
     d="m 1421,1480.5 36,-19.5 18,-5 37,1.5 63,6.5 22,9.5 6,0.5 17.5,17.5 4.5,-1.5 26,-28 18.5,-37.5 40.5,-46 31.5,-28 9.5,12 -9.5,7 -12,-9"
     inkscape:connector-curvature="0"
     id="path3810"
     style="fill:none;stroke:#003563;stroke-width:1px;stroke-linecap:butt;stroke-linejoin:miter;stroke-opacity:1" />
  <path
     d="m 1234.5,1617.5 -8,17.5 -63,95 3,6 24,22 0,9.5"
     inkscape:connector-curvature="0"
     id="path3812"
     style="fill:none;stroke:#003563;stroke-width:1px;stroke-linecap:butt;stroke-linejoin:miter;stroke-opacity:1" />
  <path
     d="m 1232,1621 3,5 16,12.5 140,14.5 55,5 29,3 77.5,18.5 2.5,-2 8,-26.5 3.5,-3 67.5,11.5 160.5,10 6.5,-0.5 14.5,-10.5 2,2.5 29,34.5 34,51 25.5,44"
     inkscape:connector-curvature="0"
     id="path3814"
     style="fill:none;stroke:#003563;stroke-width:1px;stroke-linecap:butt;stroke-linejoin:miter;stroke-opacity:1" />
  <path
     d="m 1798.5,1669.5 8,6 6,8.5 5,1 9.5,-9.5 5.5,2"
     inkscape:connector-curvature="0"
     id="path3816"
     style="fill:none;stroke:#003563;stroke-width:1px;stroke-linecap:butt;stroke-linejoin:miter;stroke-opacity:1" />
  <text
     x="89.453178"
     y="206.96085"
     id="text3818"
     xml:space="preserve"
     style="font-size:143.99993896px;font-style:normal;font-weight:normal;line-height:125%;letter-spacing:0px;word-spacing:0px;fill:#000000;fill-opacity:1;stroke:none;font-family:Sans;-inkscape-font-specification:Sans"><tspan
       x="89.453178"
       y="206.96085"
       id="tspan1">2005</tspan></text>
  <text
     x="89.453125"
     y="2370.9609"
     id="text3822"
     xml:space="preserve"
     style="font-size:144px;font-style:normal;font-weight:normal;line-height:125%;letter-spacing:0px;word-spacing:0px;fill:#000000;fill-opacity:1;stroke:none;font-family:Sans;-inkscape-font-specification:Sans"><tspan
       x="89.453125"
       y="2370.9609"
       id="tspan2">2005</tspan></text>
</svg>
