<?xml version="1.0" encoding="UTF-8" standalone="no"?>
<svg
   xmlns:dc="http://purl.org/dc/elements/1.1/"
   xmlns:cc="http://creativecommons.org/ns#"
   xmlns:rdf="http://www.w3.org/1999/02/22-rdf-syntax-ns#"
   xmlns:svg="http://www.w3.org/2000/svg"
   xmlns="http://www.w3.org/2000/svg"
   xmlns:xlink="http://www.w3.org/1999/xlink"
   version="1.1"
   viewBox="-150, -1575, 3150, 6200"
   width="3150"
   height="6200"
   id="svg2">
  <metadata
     id="metadata8">
    <rdf:RDF>
      <cc:Work
         rdf:about="">
        <dc:format>image/svg+xml</dc:format>
        <dc:type
           rdf:resource="http://purl.org/dc/dcmitype/StillImage" />
        <dc:title></dc:title>
      </cc:Work>
    </rdf:RDF>
  </metadata>
  <defs
     id="defs6" />
  <image
     xlink:href="./../basemap/vieosm.png"
     id="image10"
     height="4496.36"
     width="2922.64"
     y="0"
     x="0"
     style="display:none" />
  <path
     d="m 2178.0,84.5 -47,16 -178.5,56.5 -59,23 -43,22.5 -44,33 -31,32.5 -63,78 -49.5,55.5 -11.5,25.5 -12,34 -12.5,52.5 -6.5,24 -15.5,24 -11,13 -24,16.5 -63.5,41.5 -19.5,19 -7.5,19.5 -5,26 5,24.5 6.5,17.5 60,75.5 13.5,43 12.5,62.5 8,107.0 2,20 3.5,24.5 -7,23.5 -46,50 -24,28.5 -8,14 -5.5,18.5 3,28 21,125 7.5,10.5 27,14.5 14.5,16.5 5,23.5 -1,20.5 -7.5,15 -9.5,10 -22.5,7 -16.5,-3 -23,-11.5 -15,-1 -23,8 -99,50.5 -106.5,54.5 -36.5,15.5 -41.5,5 -48.5,11.5 -28,18.5 -23,14 -46.5,17 -64.5,21 -65.5,26.5 -38,27.5 -25.5,25.5 -62.5,53.5 -132,115 -51.5,56.5 -32.5,46 -31.5,59.5 -28.5,76 -14,65 -5,81.5 5,54 11,110.5 34.66,362.11 6.95,47.24 12.97,42.61 50.94,109.76"
     id="path3776"
     style="fill:none;stroke:#009ee3;stroke-width:5;stroke-linecap:butt;stroke-linejoin:round;stroke-miterlimit:4;stroke-dasharray:none;stroke-opacity:1" />
  <path
     d="m 1666.06,407 -9.92,21.81 -11.82,33.58 -5.6,23.04 -7.41,31.35 -6.43,22.43 -16.28,25.84 -11.34,13.14 -23.63,16.31 -63.63,41.54 -18.83,18.07 -2.68,6.73 L 1482,678 l -9.5,16.5 -58,41.5 -82,2 -42,0.5 -36.5,-9 -23,3 -20,5.5 -10,11 -6,26 -6,13.5 -22.5,14 -11,9 -5,26.5 -10,68.5 -3.5,11.5 -12.5,11.5 -33,14.5 -10,17 -11,37.5 -7.5,28 -25.5,68.5 -1.5,35 -19,47.5 2.5,79.5 14.5,54.5 8,39 -5,20 -16,45.5 3,16.5 5.5,21.5 -5,21.5 -11,15.5 -26.5,24.5 -12.5,9.5 -9,8.5 -5.5,22.5 -4.5,26 2,43 2.5,52.5 -3.5,22.5 -21,57.5 -6,18 -8,39 -24.5,43 -42.5,83 -10,14 -15.5,15 -12,18 -6.5,19 -1,62.5 -3.5,111.5 -4.5,19 -7,14 -21,30.5 -11.5,28 -20,52 -4.5,19.5 -2.5,15"
     id="path3780"
     style="fill:none;stroke:#9d6830;stroke-width:5;stroke-linecap:butt;stroke-linejoin:round;stroke-miterlimit:4;stroke-dasharray:none;stroke-opacity:1" />
  <path
     d="m 233,1325 19.5,7.5 11,8.5 15,29 21,10.5 94,17 74.5,8.5 54.5,13 59.5,16 74.5,24 22.61,8.47 91.99,4.92 41.39,13.1 77.5,34 22.5,8.5 19.5,1 24,-0.5 12,-5 16.5,-12.5 16.5,-14.5 14,-23.5 17.5,-13 28,-4.5 27,-1.5 22,-4.5 47.5,-12 20.5,-15 14,-23.5 3,-33.5 2.5,-15.5 13.18,-12.86 17.32,-6.64 31,-8 15,-10.5 37,-29.5 18,-11.5 13.5,-2.5 41,14.5 13,-1 29,-10.5 24,-35.5 22.5,-24 21,-25 10,-15.5 5,-18 V 1141 l -6,-12.5 -12,-18.5 -10,-3.5 -20,-5 -27,-5 -19.5,-11.5 -13.5,-15.5 -21.5,-38.5 -13.5,-16 -20.5,-25 -9,-18.5 -7,-23.5 -1,-16.5 -2.5,-32 -8.5,-19.5 -10.5,-12.5 -19,-23 -12.5,-24 -14,-36.5 -6.5,-14.5 -11,-8 -5,-9 -3.5,-15.5 1,-17 10.5,-17.5 13,-24 28.5,-61 9.5,-19.5 2.5,-12 1,-22.5 7.5,-22.5 7,-14.5"
     id="path3782"
     style="fill:none;stroke:#00963f;stroke-width:5;stroke-linecap:butt;stroke-linejoin:round;stroke-miterlimit:4;stroke-opacity:1;stroke-dasharray:none" />
  <path
     d="m 1365,1272 -20,-8 -18.5,2.5 -15.5,0 -21.5,-7.5 -28,-20.5 -46,-55 -8,-12 -6.5,-26.5 5.5,-46.5 4,-33 12,-9 39,8.5 43.5,-30.5 21.5,-15 44,-11 39,-7 41.5,-11 32,-8.5 33,-0.5 40,6.5 45,7.5 28.5,5 106.5,4 27.5,12.5 20,21 38.5,30 21.5,18.5 27.54,32.26"
     id="path3786"
     style="fill:none;stroke:#a862a4;stroke-width:5;stroke-linecap:butt;stroke-linejoin:round;stroke-miterlimit:4;stroke-opacity:1;stroke-dasharray:none" />
  <path
     d="m 1424,1479 -34,17 -35.5,19 -60.5,30 -60,31 -24,8 -40.5,-0.5 -27,-5.5"
     id="path3790"
     style="fill:none;stroke:#005d95;stroke-width:5;stroke-linecap:butt;stroke-linejoin:round;stroke-miterlimit:4;stroke-opacity:1;stroke-dasharray:none" />
  <path
     d="m 1243,1571 3,13.5 -2.5,8 -10.5,29.5"
     id="path3792"
     style="fill:none;stroke:#005d95;stroke-width:5;stroke-linecap:butt;stroke-linejoin:round;stroke-miterlimit:4;stroke-opacity:1;stroke-dasharray:none" />
  <path
     d="m 1292,1545.5 1,-8 -18,-26.5 1,-8.5 17.5,-30.5 15.5,-32.5"
     id="path3794"
     style="fill:none;stroke:#005d95;stroke-width:5;stroke-linecap:butt;stroke-linejoin:round;stroke-miterlimit:4;stroke-opacity:1;stroke-dasharray:none" />
  <path
     d="m 950.5,1690 -5.5,-3.5 -3,-7.5 3.5,-6 109.5,-36 19,-5 32,-23 9.5,-13 -9,-24.5 21,-9.5 16.5,16"
     id="path3798"
     style="fill:none;stroke:#005d95;stroke-width:1px;stroke-linecap:butt;stroke-linejoin:round;stroke-opacity:1" />
  <path
     d="m 1108,1571 -85.5,34 -27.5,26 6.5,18.5 -2,6.5"
     id="path3800"
     style="fill:none;stroke:#005d95;stroke-width:1px;stroke-linecap:butt;stroke-linejoin:round;stroke-opacity:1" />
  <path
     d="m 1026.5,1604 -3.5,4.5 10.5,29.5 -0.5,7"
     id="path3802"
     style="fill:none;stroke:#005d95;stroke-width:1px;stroke-linecap:butt;stroke-linejoin:round;stroke-opacity:1" />
  <path
     d="m 943.5,1684.5 -7.5,9 -22.5,12.5 -23,8 -33,24 -26.5,39.5 -36.5,42.5 -5.5,-0.5 -10,-14.5 -20.5,-13 -29,-11.5 -31,-4.5 -37,-17 -29,-23 -85,-11.5 -17,1.5 -40,17 -18,23.5 -12.5,-0.5 -26,-3 -15.5,-15.5 -16,-24 -32.5,-71"
     id="path3804"
     style="fill:none;stroke:#005d95;stroke-width:1px;stroke-linecap:butt;stroke-linejoin:round;stroke-opacity:1" />
  <path
     d="m 1234.5,1617.5 -8,17.5 -63,95 3,6 24,22 0,9.5"
     id="path3812"
     style="fill:none;stroke:#005d95;stroke-width:1px;stroke-linecap:butt;stroke-linejoin:round;stroke-opacity:1" />
  <text
     x="-60.55"
     y="-1368.04"
     id="text3818"
     xml:space="preserve"
     style="font-size:144.0px;font-style:normal;font-weight:normal;line-height:125%;letter-spacing:0px;word-spacing:0px;fill:#000000;fill-opacity:1;stroke:none;font-family:Sans;-inkscape-font-specification:Sans"><tspan
       x="-60.55"
       y="-1368.04"
       id="tspan1">2005</tspan></text>
  <path
     d="m 923.5,2193.09 0,9.91 -27,51.5 -20.5,48.5 -26,70 -20.5,60 -6.5,41.5 -26.61,158.3 -0.65,54.36 -7.73,176.84 -6.5,129.5 -1,36.5 0,17 -7.5,39.5 2.5,18 -22,117.5 0,15.5 13.5,76 5.5,16.5 4,40.5 -0.5,7.5 -45.5,119 0.5,17 7,22.5 16.5,22.5 9,10 4,9.5 -1,8 -7.5,24 -5.93,32.05 -8.49,24.75 -19.09,17.68 -33.94,13.44 -7.78,12.02 -53.03,238.29 -22.63,41.01 -67.18,116.67 -45.25,93.34 -10.61,16.26 -31.82,16.26 -25.46,3.54 -171.83,-23.33 -15.56,2.83 -8.49,9.9 -41.72,117.38 -7.78,10.61 -23.33,4.95 -29.7,-15.56 -57.28,-36.77 -45.96,-23.33 -26.87,-3.54 -12.02,-2.47 -26.87,-17.32 -2.83,-8.84"
     id="path3796"
     style="fill:none;stroke:#005d95;stroke-width:1;stroke-linecap:butt;stroke-linejoin:round;stroke-miterlimit:4;stroke-dasharray:none;stroke-opacity:1" />
  <path
     style="fill:none;stroke:#005d95;stroke-width:5;stroke-linecap:butt;stroke-linejoin:round;stroke-miterlimit:4;stroke-dasharray:none;stroke-opacity:1"
     id="path4161"
     d="m 947.0,1687.5 5,3 -12.5,39 -10.5,29 -2,16 1.5,30 5.5,13.5 31.5,27 20.5,24.5 24,49.5 20,55 2,18 -3.5,12.5 -13,15.5 -16.5,10.5 -18.5,27.5 -51.0,93 -7,18.5 1,24.65" />
  <path
     id="path6617"
     d="m 780.7,3010.45 4.34,-86.8 5.79,-110.81 3.18,-95.19 1.74,-31.25 0.29,-52.66 21.7,-129.91 11.86,-72.04 2.6,-6.94"
     style="fill:none;fill-rule:evenodd;stroke:#005d95;stroke-width:5;stroke-linecap:butt;stroke-linejoin:round;stroke-miterlimit:4;stroke-dasharray:none;stroke-opacity:1" />
  <path
     style="opacity:1;fill:none;fill-opacity:0.08;fill-rule:nonzero;stroke:#005d95;stroke-width:5;stroke-linecap:butt;stroke-linejoin:round;stroke-miterlimit:4;stroke-dasharray:none;stroke-opacity:1"
     d="m 298.25,2246.34 0.72,-10.71 2.17,-5.35 23.87,-44.56 8.39,-22.71 0.29,-6.8"
     id="path841" />
  <path
     style="opacity:1;fill:none;fill-opacity:0.08;fill-rule:nonzero;stroke:#005d95;stroke-width:1;stroke-linecap:butt;stroke-linejoin:round;stroke-miterlimit:4;stroke-dasharray:none;stroke-opacity:1"
     d="m 298.25,2246.34 -4.05,43.98 0.43,11.57 -2.03,2.46 -25.17,14.03 -3.62,-0.72 -10.99,-10.85 -0.43,-7.96 1.59,-2.46 9.98,-2.6 15.91,0.29 12.88,-2.75 1.59,-1.3"
     id="path843" />
  <path
     style="opacity:1;fill:none;fill-opacity:0.08;fill-rule:nonzero;stroke:#005d95;stroke-width:1;stroke-linecap:butt;stroke-linejoin:round;stroke-miterlimit:4;stroke-dasharray:none;stroke-opacity:1"
     d="m 333.69,2156.21 -3.76,-37.18 -3.91,-8.39 -12.73,-10.56 -2.46,-8.39 0.58,-15.91 6.65,-39.2 17.79,-54.97 3.33,-6.08 21.27,-19.96 L 472.5,1766.5"
     id="path845" />
  <path
     style="opacity:1;fill:none;fill-opacity:0.08;fill-rule:nonzero;stroke:#005d95;stroke-width:1;stroke-linecap:butt;stroke-linejoin:round;stroke-miterlimit:4;stroke-dasharray:none;stroke-opacity:1"
     d="m 502.66,1737.56 3.18,-5.93 -1.45,-23.15 -6.51,-25.46 -19.67,-6.37 -4.34,-13.89 -1.45,-18.23 -3.47,-13.89 5.5,-29.66 -1.01,-14.9 23.44,-34.0 12.73,-7.38 24.16,-5.35 25.46,-0.58 9.4,-11.43 33.27,-27.63 22.28,-14.32 30.81,6.37 5.35,-2.6 15.48,-28.35"
     id="path847" />
  <path
     style="fill:none;stroke:#ef7c00;stroke-width:5;stroke-linecap:butt;stroke-linejoin:round;stroke-miterlimit:4;stroke-dasharray:none;stroke-opacity:1"
     id="path3784"
     d="m 757.85,1088.36 -8.7,35.08 -9.54,39.26 -10.16,44.67 -3.53,21.8 2.6,17.78 3.99,11.04 18.5,17 21.5,22 16,11.5 56,5 36.5,5.5 14.5,-0.5 28.5,-7 25,1.5 17,5 36.5,15 25,10.5 12.5,1 23,-9 50.5,-14 27,-13 27,-16.5 24.5,-15.5 17.5,-17.5 8.5,-18 2.5,-16.5 5,-17.5 8,-14.5 11.5,-14 17.5,-17 10.83,-15.41 18.27,-9.7 17.9,-3.14 20.58,1.5 27.19,15.35 34.97,14.02 16.51,3.6 32.18,2.26 36.99,6.74 36.08,14.27 33,24 26.5,25 72,64 34.5,26.5 50.5,34 11.5,8.5 22.5,6 24,15.5 40,35.5 23.5,27.5 v 15 l -8,24 -17.5,27 -24.5,31.5 -18.5,27 -7.36,13.52 -2.79,16.56 4.02,18.64 25.02,24.61 24.11,24.68 13.03,17.7 28.89,44.63" />
  <path
     style="fill:none;stroke:#e3000f;stroke-width:5;stroke-linecap:butt;stroke-linejoin:round;stroke-miterlimit:4;stroke-dasharray:none;stroke-opacity:1"
     id="path3788-3"
     d="m 2012,603.5 -28,28 -43.5,36.5 -46.5,39 -10.5,11.5 -11,16.5 -14,13.5 -43.5,36.5 -8,10.5 -5.5,11.5 -18,17 -69.5,54.5 -53,44 -106.0,87.5 -52.5,42.5 -48.5,36 -36,13.5 -14,11.5 -21.5,23.5 -9.5,14 -4.5,23.5 -6,26 -8,27 -24.33,74.73 1.33,22.36 9,15.91 15.5,31 6.5,18.5 6.5,31 25,65.5 3,23.5 7.5,43 30.74,116.62" />
  <path
     style="fill:none;stroke:#005d95;stroke-width:1px;stroke-linecap:butt;stroke-linejoin:round;stroke-opacity:1"
     id="path3806"
     d="m 1129,1563.5 -14.5,-26 -32.5,-60.5 -13,-18 -6.65,-3.8 -23.48,-1.08 -8.04,-6.56 -3.79,-15.14 -2.89,-15.92 15.49,-44.89 5.48,-21.24 -2.47,-10.87 -5.45,-27.32 -14.8,-55.85 1.96,-9.25" />
  <path
     style="fill:none;stroke:#005d95;stroke-width:1px;stroke-linecap:butt;stroke-linejoin:round;stroke-opacity:1"
     id="path3808"
     d="m 1308,1442.0 7,-14 5.5,-18 3,-31.5 v -37.5 l 3.5,-17.5 0.02,-21.51 10.07,-30.5 9.49,-28.65 7.92,2.66 12.65,4.2 -6.11,19.68 -5.54,1.62 -18.41,0.49" />
  <path
     style="fill:none;stroke:#005d95;stroke-width:1px;stroke-linecap:butt;stroke-linejoin:round;stroke-opacity:1"
     id="path3810"
     d="m 1421,1480.5 16.87,-7.22 32.32,-14.82 41.81,-0.95 63,6.5 22,9.5 19.71,21.47 4.92,-0.71 3.37,-4.26 26.0,-28 18.5,-37.5 40.5,-46 31.5,-28 9.5,12 -9.5,7 -12,-9" />
  <path
     style="fill:none;stroke:#005d95;stroke-width:1px;stroke-linecap:butt;stroke-linejoin:round;stroke-opacity:1"
     id="path3814"
     d="m 1232,1621.0 3,5 16,12.5 140,14.5 55,5 29,3 77.5,18.5 2.5,-2 8,-26.5 3.5,-3 67.5,11.5 160.5,10 6.5,-0.5 12.04,-8.97 4.46,0.97 24.09,34.3 29.29,45.37 35.12,49.83 53.53,78.22 29.61,27.57 39.77,35.7 64.44,47.02 68.14,26.75" />
  <path
     style="fill:none;stroke:#005d95;stroke-width:1px;stroke-linecap:butt;stroke-linejoin:round;stroke-opacity:1"
     id="path3816"
     d="m 1798.5,1669.5 3.4,2.52 9.07,13.1 3.77,0.9 10.32,-9.91 3.35,0.67" />
  <path
     d="m 1522,636 -51.5,-69.5 -47,-78 -26,-41.5 -12.5,-15 -12.5,-7.5 -17,3.5 -13.5,16 -34,80 -13.5,36 -1,15 -1,16 -9,12.5 -13,5 -23,-4 -27,-2 -27,-13.5 -51.5,-5 -15,-5 -16,0.5 -14.5,6.5 -9,12 -3,15.5 2,17.5 -2.5,13.5 -4.5,7 -10.5,7 -30,4.5 -15,1 -14,9.5 -72,105.5 -5,17 3,36 -5,12.5 -20.5,21 -11.5,6 -27,1 -11.5,5.5 -22.5,20 -44.5,19 -17,12.5 -14.5,32 -5.5,15.5 -14,63.5 2,20 9,21 -2,18 -8,21.5 -13.5,61.5 -15,67.5 -11,52 1,13 19,24 8,11.5 1.5,12.5 -4.5,14.5 -10.5,10.5 -15.5,4 -30.5,-1.5 -83,-16 -52,5.5 -61,0 -77,-5.5 -40,-9 -21.5,-3 -103.5,-45"
     id="path3778"
     style="fill:none;stroke:#bed630;stroke-width:5;stroke-linecap:butt;stroke-linejoin:round;stroke-miterlimit:4;stroke-opacity:1;stroke-dasharray:none" />

  <text
     x="-35.65"
     y="7347.95"
     id="text3004"
     xml:space="preserve"
     style="font-style:normal;font-weight:normal;font-size:144px;line-height:125%;font-family:Sans;-inkscape-font-specification:Sans;letter-spacing:0px;word-spacing:0px;fill:#000000;fill-opacity:1;stroke:none"><tspan
       x="-60.55"
       y="4522.95"
       id="tspan2">2005</tspan></text>
</svg>
