<svg xmlns="http://www.w3.org/2000/svg" width="6100" height="7500" viewBox="-800 -300 6100 7500"><path style="fill:none;fill-rule:evenodd;stroke:#f1598c;stroke-width:5;stroke-linecap:butt;stroke-linejoin:round;stroke-miterlimit:4;stroke-dasharray:none;stroke-opacity:1" d="m2084.85 99.26-12.94 17.2-133.57 85.12-53.63 57.24-22.95 46.22-66.62 29.76-107.06 17.75-28.62-.66-32.02 21.36-42.07 45.69-27.85 33.3-18.16 36.33-3.63 44.8 15.74 46.01 45.15 53.02 66.56 65.71 62.47 84.62 177.59 148.41 303.93 236.12 74.26 79.95 95.15 77.47 36.6 40.9 58.11 34.39 31.66 15.21 83.01 28.38 98.87 7.82 154.03 39.01 28.93 13.42 18.79 23.87-0.4819.48-11.88 32.32-13.85 60.87-24.073.43-7.48 102.85 12.12 29.93 31.65 47.91 6.18 33.79-4.07 46.67-12.77 39.19-18.44 28.01-114.21 112.37-7.31 18.9 1.84 19.47 11.26 46.85 15.03 20.8 44.56 35.52 11.81 19.62 5.76 104.4-15.7 74.04-18.27 29.76-56.17 82.93-35.01 63.37-2.56 25.39 1.7 89.34-13.7 78.77-48.8 217.48-0.8655.65 12.84 39.39 7.22 15.62 13.39 13.01 11.93 7.59 48.9 7.27 27.29-3.83 42.62-13.22 25.21-7.04 29.34-3.25 21.41 8.75 18.78 14.12 16.51 21.69 7.59 23.020.3765.24-8.56 453.79 10.27 23.97 23.97 21.41 23.97 5.14 194.36-4.28 53.94-9.42 107.03-36.82 47.95-24.83 31.84-9.52 61.49 6.09 40.24 28.25 21.41 11.99 56.68 22.83 33.32-0.1940.52-6.55 172.1-5.14 15.89 5.32 8.56 6.85 38.53 77.06v70.21l5.99 19.69 16.27 17.98 30.82 19.69 15.5 26.54 40.34 100.19 5.79 11.4 7.02 8.84 64.51 31.2 39.01 7.99 151.49 50.16 28.12 11.96 411.84 266.39 66.62 61.95 93.42 69.69 60.14 26.68 101.89 41.95 25.69 14.56 18.84 25.69 7.71 27.4v28.25l-43.67 102.74-17.98 65.07-116.44 175.52-29.97 50.52-42.81 82.2"/><path style="fill:none;fill-rule:evenodd;stroke:#f1598c;stroke-width:5;stroke-linecap:butt;stroke-linejoin:round;stroke-miterlimit:4;stroke-dasharray:none;stroke-opacity:1" d="m2778.3 2523.84 41.54-31.32 74.47-3.03 69.02 3.03 56.91 17.56 45.19 20.6376.013.32 28.98-4.74 23.3-12.12 47.83-36.32 34.69-29.03 58.01-68.73 18.09-31.71 4.51-33.6-6.1-34.85-64.57-235.84.46-40.43 13.92-31.49 38.85-63.2 35.92-34.34 37.28-13.35 50.5-29.98 46.75-48.18 21.81-41.62 18.99-56.21 3.41-46.41-5.12-48.35"/><path style="fill:none;fill-rule:evenodd;stroke:#d70c20;stroke-width:5;stroke-linecap:butt;stroke-linejoin:round;stroke-miterlimit:4;stroke-dasharray:none;stroke-opacity:1" d="m4033.13 4186.52-12.71 24.22-26.62 24.73-26.95 23.95-49.34 29.41-24.82 1.21-20.58-3.63-101.5-27.41-22.69-2.26-258.44 52.07-26.5 10.42-14.2 11.98-25.84 24.83-20.39 4.71-66.85 7.5-18.17 11.93-42.26 57.96-34.06 33.53-29.73 13.2-32.59-1.7-38.75-4.24-69.62 13.32-101.11 62.36-65.99 1.82-181.75 45-56.03 14.26-43.01-2.2-39.35-14.89-43.59-27.33-70.96-42.07-10.29-10.29-4.4-21.8 2.38-20.29 31.92-52.97 30.75-56.46 4.65-26.73-4.71-19.89-16.77-27.4-77.71-45.7-50.86-3.63-23.61-7.27-29.67-13.92-76.38-56.3-48.94-52.08-10.9-18.77-1.21-59.94 14.53-34.51 4.24-57.52-9.69-38.75 6.05-34.51-20.58-68.41-9.69-62.36 12.38-83.74 19.19-48.41 4.59-19.15-2.86-27.57-9.69-19.1-15.74-24.22-4.84-10.29-2.42-102.92-7.87-12.71-26.64-26.64-22.4-17.56-28.46-14.53-53.7-9.48-122.55 3.94-58.18 8.95-83.04 23.05-126.53 25.62-128.74 24.22-41.77 3.63-199.79 4.24-42.38 7.87-226.43 1.21-36.93 3.03-96.26 29.06-43.59 4.24-169.53-3.45-509.77 1.64"/><path style="fill:none;fill-rule:evenodd;stroke:#00823a;stroke-width:5;stroke-linecap:butt;stroke-linejoin:round;stroke-miterlimit:4;stroke-dasharray:none;stroke-opacity:1" d="m3905.99 4290.66 25.43-41.77v-12.71l-3.1-17.19-50.17-38.51-39.96-28.46-62.96-20.58-49.04-33.3-56.91-13.92-26.03 5.45-32.69-7.27-42.99 4.84-30.88 15.14-39.96 36.93-25.43 67.2-25.43 53.88-47.22 62.36-42.99 13.92-29.06 18.77-42.38 1.21-71.44 26.64-12.11 13.93-30.88 61.75-14.53 42.99-36.33 85.37 1.21 32.09-23.61 44.80.6118.77 5.45 20.58 48.43 59.94 1.82 12.11-10.9 128.96-34.51 57.52-44.2 127.75-42.38 27.24-18.77 3.63h-8.48l-19.98-10.29-104.13 3.03-10.9 1.82-7.87 9.69-15.14 22.4-12.71 6.05-38.14 6.05-25.43 9.69-15.14 13.32-15.74 35.11 9.08 39.96-1.82 10.9-9.69 9.08-21.8 4.24-20.58 13.92-29.67 9.08-12.71 13.92-15.74 35.72-9.08 70.23-1.21 93.84-7.87 13.92-31.48 15.14-32.69 30.88-4.24 18.16 5.45 75.68 4.84 28.46-1.82 42.38 23.61 79.31 6.66 67.2 6.05 157.41 4.84 30.88 10.9 29.06 21.8 35.72 147.72 182.84 13.92 34.51 21.8 34.51 2.42 24.22 1.82 39.35 10.29 15.74 16.95 13.32 59.33 42.99 11.5 23.01 5.45 23.61 15.74 163.47-0.61115.64 7.87 101.11 9.69 29.06 9.08 13.32 12.11 7.27h40.26"/><path style="fill:none;fill-rule:evenodd;stroke:#1c3379;stroke-width:5;stroke-linecap:butt;stroke-linejoin:round;stroke-miterlimit:4;stroke-dasharray:none;stroke-opacity:1" d="m4771.15 1751.48-39.35-10.9-10.29 2.42-7.91 7.69-6.02 41.96-41.77 141.67-25.43 38.14-51.46 50.86-30.88 23.01-75.68 26.64-37.54 6.05-96.26 85.37-49.04 47.22-82.94 46.62-12.71-2.42-17.56-18.77-22.4-13.92h-93.84l-17.56-6.05-61.75-17.56h-23.01l-21.8 6.66-21.19 10.29-72.65 65.99-20.58 27.85-95.66 169.52-10.29 37.54-6.05 125.32-8.48 59.33 1.82 29.06 12.11 39.96 41.17 68.41 32.69 41.77 84.15 100.5 4.84 16.95-4.84 10.29-10.9 12.71-165.28 90.21-78.71 29.67-23.7 12.36-13.86 28.02-7.24 43.78-11.5 344.49-6.05 13.92-13.32 6.66-69.02-2.42-107.16-24.82-21.19 1.21-59.94 19.37-39.96-4.24h-14.53l-18.77 10.9-12.71 17.56v20.58l7.27 24.22 12.11 27.24 46.62 141.67 48.43 93.24 8.48 32.69 75.68 113.82 7.27 24.82v25.43l-5.45 27.24 3.03 17.56 9.48 10.25 54.1 21.73 8.47 8.58 5.45 9.08 20.58 36.93 39.96 38.14 21.19 13.32 11.5 6.66 7.87 10.9 5.45 14.53 5.45 208.87 7.27 29.06 31.48 23.61 69.62 19.98 50.25-0.6120.58 11.5 150.15 184.66 8.48 13.92v13.32l-16.35 51.46v16.95l-21.8 78.1v18.16l5.45 52.67-15.74 67.81 15.74 84.15-2.42 31.48-26.64 79.31-12.71 50.25-15.14 22.4-74.47 79.92-3.63 15.74-23.01 90.81 5.45 81.13-6.05 18.16-49.65 85.37-16.35 47.22-32.09 67.81-18.77 91.42-38.14 58.73-4.84 41.77 7.87 46.01-3.63 20.58-7.27 21.19-35.11 39.96-7.87 20.58-10.9 90.81-30.27 79.92-10.29 326.33-55.09 293.03-9.69 6.05-79.31-2.42-18.77-5.45-71.44 1.82-39.96 21.8-10.9 1.21-53.88-26.64-24.22-15.74-46.62-1.82-60.58 32.48-35.29-.25"/><text style="font-style:normal;font-weight:400;font-size:144px;font-family:Sans;-inkscape-font-specification:Sans;fill:#000;fill-opacity:1;stroke:none" xml:space="preserve" y="-93.04" x="-710.55"><tspan y="-93.04" x="-710.55">2015</tspan></text><text style="font-style:normal;font-weight:400;font-size:144px;font-family:Sans;-inkscape-font-specification:Sans;fill:#000;fill-opacity:1;stroke:none" xml:space="preserve" y="7097.96" x="-710.55"/><path d="m4024.62 4216.98 141.57 77.96" style="fill:none;fill-rule:evenodd;stroke:#000;stroke-width:5;stroke-linecap:butt;stroke-linejoin:round;stroke-miterlimit:4;stroke-dasharray:none;stroke-opacity:1"/></svg>