<?xml version="1.0" encoding="UTF-8" standalone="no"?>
<svg
   version="1.1"
   id="svg2"
   width="1350"
   height="2100"
   viewBox="0 0 1350 2100"
   xmlns:xlink="http://www.w3.org/1999/xlink"
   xmlns="http://www.w3.org/2000/svg"
   xmlns:svg="http://www.w3.org/2000/svg"
   xmlns:rdf="http://www.w3.org/1999/02/22-rdf-syntax-ns#"
   xmlns:cc="http://creativecommons.org/ns#"
   xmlns:dc="http://purl.org/dc/elements/1.1/">
  <metadata
     id="metadata8">
    <rdf:RDF>
      <cc:Work
         rdf:about="">
        <dc:format>image/svg+xml</dc:format>
        <dc:type
           rdf:resource="http://purl.org/dc/dcmitype/StillImage" />
      </cc:Work>
    </rdf:RDF>
  </metadata>
  <defs
     id="defs6" />
  <image
     width="1239"
     height="2065"
     preserveAspectRatio="none"
     xlink:href="../streetmap/bweosm.png"
     id="image10"
     x="50"
     y="-15"
     style="display:none" />
  <path
     style="opacity:1;fill:none;fill-opacity:1;fill-rule:nonzero;stroke:#dc003c;stroke-width:1;stroke-linecap:butt;stroke-linejoin:round;stroke-miterlimit:4;stroke-dasharray:none;stroke-opacity:1"
     d="m 516.44068,306.94915 40,15.9322 12.37288,14.0678 7.28814,9.83051 2.20339,7.79661 -1.18644,4.57627 -3.05085,2.71186 -5.76271,2.20339 -3.22034,6.1017 -5.08475,12.71186 -1.52542,10.84746 2.88135,19.49152"
     id="path836" />
  <path
     style="opacity:1;fill:none;fill-opacity:1;fill-rule:nonzero;stroke:#dc003c;stroke-width:5;stroke-linecap:butt;stroke-linejoin:round;stroke-miterlimit:4;stroke-dasharray:none;stroke-opacity:1"
     d="m 711.35593,1282.5424 3.38983,22.3729 -1.01694,8.983 -10.33899,58.6441 -8.47457,44.0678 0.16949,13.5593 4.57627,77.7966 2.88135,20.5085 13.22034,45.2542 16.44068,52.5424 2.37288,1.5254 2.71187,-1.0169"
     id="path838" />
  <path
     style="opacity:1;fill:none;fill-opacity:1;fill-rule:nonzero;stroke:#dc003c;stroke-width:1;stroke-linecap:butt;stroke-linejoin:round;stroke-miterlimit:4;stroke-dasharray:none;stroke-opacity:1"
     d="m 737.28814,1626.7797 22.88135,-8.1356 10.33899,-7.4577 9.32203,-12.3728 4.0678,-2.3729 31.35593,22.2034 3.05085,6.4406"
     id="path842" />
  <path
     style="opacity:1;fill:none;fill-opacity:1;fill-rule:nonzero;stroke:#dc003c;stroke-width:1;stroke-linecap:butt;stroke-linejoin:round;stroke-miterlimit:4;stroke-dasharray:none;stroke-opacity:1"
     d="m 711.35593,1282.5424 -16.44067,-95.2543 2.20339,-7.2881 -3.89831,-16.2712 -2.37288,-11.8644 -5.08475,-5.7627 -8.30508,-8.1356 -1.86441,-7.4576 2.37288,-17.1187 6.77966,-25.7627 -0.16949,-12.8813 -4.23728,-20.678 -12.20339,-24.2373 -0.84746,-8.983 -11.86441,-29.6611 -0.33898,-7.2881 2.54237,-9.322 10.67797,-24.2373 0.33898,-6.9492 -2.0339,-11.0169 -4.74576,-4.4068 -4.57627,-1.017 -7.28814,0.8475 -3.05085,-0.5085 -3.8983,-3.5593 -29.32203,-87.7966 -5.25424,-13.7288 -0.67797,-7.4576 1.35593,-11.356 4.91526,-26.7796 1.69491,-18.9831 -5.42373,-116.6102 -3.72881,-13.7288 -23.38983,-163.72878 -1.52542,-3.22034 -10.50848,-0.84746 -2.0339,-1.52542 -7.79661,-44.74577"
     id="path846" />
  <path
     style="opacity:1;fill:none;fill-opacity:1;fill-rule:nonzero;stroke:#dc003c;stroke-width:1;stroke-linecap:butt;stroke-linejoin:round;stroke-miterlimit:4;stroke-dasharray:none;stroke-opacity:1"
     d="m 711.35593,1282.5424 2.37289,-1.017 22.88135,-5.2542 30.16949,-8.1356 13.22034,0.8474 7.11865,-2.5423 6.61017,-5.9322 6.44067,-7.6271 0.1695,-5.2543 -9.83051,-12.8813 -17.45763,-15.7628 -38.30509,-44.4067 -8.30508,-4.9153 -10.84746,-1.3559 -11.01695,1.8644 -6.10169,1.5254 -3.72882,-1.6949"
     id="path848" />
  <text
     x="89.453133"
     y="206.96094"
     id="text3019"
     xml:space="preserve"
     style="font-style:normal;font-weight:normal;font-size:143.99993896px;line-height:125%;font-family:Sans;-inkscape-font-specification:Sans;letter-spacing:0px;word-spacing:0px;fill:#000000;fill-opacity:1;stroke:none"><tspan
       x="89.453133"
       y="206.96094"
       id="tspan1">2005</tspan></text>
  <path
     style="opacity:1;fill:none;fill-opacity:1;fill-rule:nonzero;stroke:#dc003c;stroke-width:1;stroke-linecap:butt;stroke-linejoin:round;stroke-miterlimit:4;stroke-dasharray:none;stroke-opacity:1"
     d="m 516.44068,306.94915 -8.81356,-5.59322 -6.77966,-7.45763 -1.69492,-12.0339 7.62712,-22.0339 4.57627,-5.08474 9.32204,-5.76272 4.06779,-8.13559 v -11.35593 l -1.69491,-25.76271 -3.72881,-46.61017 -3.22034,-16.44068 -0.50848,-19.32203"
     id="path1424" />
  <path
     style="opacity:1;fill:none;fill-opacity:1;fill-rule:nonzero;stroke:#dc003c;stroke-width:1;stroke-linecap:butt;stroke-linejoin:round;stroke-miterlimit:4;stroke-dasharray:none;stroke-opacity:1"
     d="m 667.79644,1025.9168 2.03743,-4.1947 87.12993,-38.35158 3.47561,-4.43439 2.03743,-15.70017 4.31455,-5.87258 18.33684,-12.46426 36.91337,-28.76366 26.36669,-14.98108 16.17956,-6.47182 42.42641,-15.70017 68.7931,-22.89109 8.98865,0.7191 49.37759,5.99243 9.5879,-1.19849 11.2658,-3.35576 22.6514,-7.67031 147.2939,-78.74054 1.3184,-3.35576 -5.8726,-17.61774"
     id="path1582" />
</svg>
