<svg xmlns="http://www.w3.org/2000/svg" height="4150" width="5500"><path d="M2843.058 1205.098l-1.096-4.045-5.847-12.62-4.166-2.314-3.703 1.389-53.232 32.865-5.555 8.795-7.406 5.555-145.81 88.875-8.333 5.091-9.258 18.053-4.629 6.48-6.48 2.778-6.48-2.314-6.14-5.684-7.885 1.577-14.066 6.728M3395.945 1252.13L3477.5 1457l33.5 82 7 10" fill="none" stroke="#0070c1" stroke-linejoin="round"/><path d="M2867 1385l-14-.25-18 10.75-22 9.5-49 29-73 43.5-21.5 12-43.5 17.5-1 6.5 26.5 62.5-1 7-14 9-188 118.5-18.5 12.5-117 71-9 2-22.5-2-15 3.5-11 8-6.5 7-5.5 22-.5 15-13.5 17-144 190.5-28 35-72 55-12 3.5-11.5-1.5-13-1-8.5 4.5-3.5 8.5v15l-2.5 8.5-6.5 7-61.174 48.626-98.642 74.6-8.838 3.535-12.021 1.061-6.02-1.28-7.805-1.042-7.186 8.125-5.82 19.86-16.1 20.054-6.213 8.05M2585 1355l3.5-2.5 14-27 4.5-7.5 151-93 6.5-2 11.5-3.5" fill="none" stroke="#0070c1" stroke-width="1px" stroke-linejoin="round"/><path d="M2221 1877l13-4 6-6 42.5-55.5 31.5-18M2628 1521l2.5-5.5 21.5-8.5 1.5 2 14 33h4l9.5-5.5 9.5-4 1.366-5.729L2687.5 1515l2-10.5 6.5-8.5 92.5-53.5 7-9 40.5-25 19.5-11.5 11.5-12 77.75-40.75 8.25-1.25 7.25 3.5 5.25 6.25 4 .75M3526 1554.5l-6.5 10 9 19 4 4 11-19-25.5-19.5-17.5 5.5-264 25.5-121 13.5-14-5-21.5-3.5h-35.508l-2.587-3.638 4.146-13.338v-12.471l11.086-19.054 2.598-18.881 5.993-1.4 8.623 4.545 3.675-2.695 5.634-16.903 8.084-65.651-3.04-24.31M1928.698 2190.982l12.374-2.121 9.9 1.06 8.131 1.061 6.01-2.828 2.122-4.95 4.596-14.85 5.303-7.424 7.071-7.071 2.829-7.425M684.623 2757.852l70.893-2.259 370.846-212.961 26.267-20.9 13.84-19.49 2.542-19.488 5.366-3.672 60.443 1.13 87.534-25.833 22.273-6.717 36.77-7.071 40.659-4.95 14.142-3.535 17.677-10.254 11.668-7.07 6.543-1.728 22.172-2.26 25.42-4.518 1.775-1.409" fill="none" stroke="#0070c1" stroke-width="1px" stroke-linejoin="round"/><path d="M1796 2098l-2.76 19.331L1704 2174.5l-88 142m0 0l-27.5 42m0 0l-8 2.5-8.5-9-11-4-36.5 22.5-6.5 13.5-.5 4 2 3.5 1.953 13.367" fill="none" stroke="#0070c1" stroke-width="1px" stroke-linejoin="round"/><path d="M1580.5 2361l1.216 7.23-14.707 21.096-16.409 32.406-7.78 8.062-8.201.993-5.96-5.481-.132-6.147 11.628-11.048 97.442-11.015 17.512-4.519 36.152-16.381 6.92-3.107 26.163-.027 7.778-2.475 3.182-7.071 5.384-18.954 27.496-29.837M1801.25 2043.25l-4.5-9.75-14.75-19.25-7-12.25v-19l6-17.5 9.5-8 13.5-9.5 21.5-11 11-15 16.5-35 8.5-13 7-24 10-16 13-6 21-3.5 15-.5 13.5-3.5 9.5-7.5 8-18.5 6.5-8.5 19.5-20 9-13 13.5-25.5 20-19.5 14.5-17M2051.5 2386l8 3 26.615 65.997M3166.091 2690.828l-11.045 11.122-18.546 18.338-60.16 40.954-7.626 1.412-5.367-2.824-24.29-18.36-1.694-5.648 2.26-13.557 3.671-3.672 7.344-1.412 24.572 18.923 8.473 3.955 12.145 1.977 9.886-.848" fill="none" stroke="#0070c1" stroke-width="1px" stroke-linejoin="round"/><path d="M2039.533 1693.364l11.04-7.884 11.038-7.885 11.04-11.04 20.5-18.135 14.982-7.096 43.367-27.598 45.733-26.02 75.696-48.099 55.983-33.117 90.677-54.406 38.637-22.866 17.347-18.136 14.981-18.135 8.674-9.462 14.981-8.674 34.694-16.558 4.069-1.946M1798.5 2107.5l12 22.5 1 17.5 3.5 15 6.5 8.5 13 9 12.5.5 9-.5 12.5-3.5 6.5-1.5 13.5 1.5 10.5 1.5 11 6 9 8 7 9.5 15.5 36.5 10.5 20.5 10.5 16 12 13 16.5 16 10 12.5 11 17 8.5 11 12.5 12.5 14 31.5 6-1.5" fill="none" stroke="#0070c1" stroke-width="5" stroke-linejoin="round"/><path d="M1800.25 2041.5l1.75 8 .25 11.5-6.75 24.5.5 12.5 3 11" fill="none" stroke="#0070c1" stroke-width="5" stroke-linejoin="round"/><path d="M3132.204 1380.81L3137 1377l-3.5-14.5 4-9 8-1 25-2.5 3 2.5 3.28 32.818M2326.707 1505.226l3.107 11.806 88.23 206.906 3.107 18.019-3.728 19.882 105.006 246.673 52.193 130.48-2.99 7.014-31.633 18.076-40.107-.283-108.175 65.81-6.214 8.473-14.405 48.015-7.908 15.534-15.252 14.405-13.557 9.32-243.747 131.9-4.52-2.26M3207.146 1583.204l-6.835-27.028-1.553-35.106 6.213-9.63 54.368-4.04 20.193 7.767 12.427 22.68 1.243 23.61-7.146 6.524-26.096 2.486.621 6.834M2558.827 1353.87l-6.119-3.163-14.25-37.656-8.013-20.094-19.091-27.578-23.335-43.84-1.414-24.749-.707-7.778M2969.5 1353.5l29.31-16.645 7.46-4.46.494-4.562-2.175-5.902.663-5.747 3.8-2.472" fill="none" stroke="#0070c1" stroke-width="1px" stroke-linejoin="round"/><text style="line-height:125%;-inkscape-font-specification:Sans" y="206.96094" x="89.453133" font-weight="400" font-size="143.99993896px" font-family="Sans" letter-spacing="0" word-spacing="0"><tspan y="206.96094" x="89.453133">1990</tspan></text><path d="M3086.155 1388.641l2.55 22.562M3116.627 1382.385l16.875-3.601" fill="none" stroke="#0070c1" stroke-width="5" stroke-linejoin="round"/><path d="M2944.75 1344.25l22.3-19.444 3.813-8.897-1.835-10.309-14.687-10.168-20.619.989-1.836-.989-.14-9.461 8.19-6.92 7.061-.848 14.687 11.016M2691.866 1526.771l7.74 19.272 1.36 3.21-1.398 4.594L2650.5 1583M2687.5 1515l-11.499-26.26M2676.001 1488.74l-65.108-159.774 1.199-2.796M2610.893 1328.966L2607 1318M2251.484 1852.69l-6.637 2.118-27.538-.706-424.07 263.229" fill="none" stroke="#0070c1" stroke-linejoin="round"/><path d="M2217.309 1854.102l22.595-16.664 3.596-2.938M1704 2174.5l-168.93 104.536-1.694 5.084 5.084 9.32-1.13 3.107-21.465 13.84-13.84 28.244-22.313 21.183-2.824 9.038 6.214 18.924 7.626 4.801 21.748-4.236 5.024-.341M3176.741 1384.88l3.835 3.052 21.466 3.107 2.824 2.542 1.13 13.275 4.52 5.083 2.824-.282 8.473-3.954 29.656-3.107 33.893 1.977 30.222 7.344 71.457 24.854 3.955 4.52.564 7.908 27.115 47.733 17.229 25.42 5.931 4.236 46.038 13.84 8.593 1.874.916 7.24 3.118 2.958M1126.362 2542.632l17.386-.078 24.572 5.79 12.287-4.52 4.095-14.404 7.343-14.687 10.592-12.85 32.183-21.67M1461.212 2417.29l.848 3.814 29.656 11.58 2.825 6.779-6.497 12.71-5.084 5.225-8.19.988-54.23-5.931-83.743-2.4M1580.5 2361l11.06 24.94 8.755 7.202 6.778 3.813 10.733 2.26M3046.05 1555.553l-15.416 16.975-9.7 25.983-.911 34.886-6.228 13.534-9.604 17.229-34.599 43.072-23.866 30.504-16.218 14.912-84.91 79.708-21.826 17.322-21.48 21.133-10.392 15.243-2.772 15.243 9.007 94.231 33.258 158.322-1.039 16.975-6.929 18.362-39.84 77.255-10.393 30.487 9.354 55.083 3.464 40.533 10.393 42.959-.837 15.273 5.34 7.938 14.898-3.465 15.243-9.353 10.74-12.126 3.118-14.204 7.967-14.55 22.173-22.865 18.36-13.857 52.66-24.25 10.392.345 11.433 3.118 5.196-.346 29.794-35.683 3.81-1.386 12.126 5.543 28.408 6.236 32.911 6.236 2.426 3.464-.693 8.315.693 15.243 1.385 7.622v6.582l-3.118 6.236-21.825 18.707-.693 3.118 6.929 11.78-1.04 6.928-76.909 43.305-21.825 5.543-101.506 56.469-.693 6.236 33.604 37.069 4.85.693 67.556-38.801 31.179 2.771 2.425-2.771 2.425-3.118 16.283-9.354 2.771 1.386 13.511 20.44-.346 2.77-12.818 7.969-.693 2.425 14.896 25.29-.346 3.118-34.99 21.133-4.157 2.771v3.118l1.039 3.464-.693 3.465-15.243 8.314-13.858 16.976v3.118l18.015 14.204 12.472-3.811 50.233-38.801 80.027-35.683 3.464 2.425 31.526 76.216 5.197 14.55-.346 7.968-4.158 13.858M755.516 2755.593l-44.467 31.612-6.391 10.386-1.398 10.185 1.11 9.985 24.043 59.513-3.184 6.981-16.903-1.592-16.903-8.696-15.065-8.697-17.27-1.347-11.514 4.165-21.925 22.904-33.928 39.44" fill="none" stroke="#0070c1" stroke-linejoin="round"/><path d="M684.623 2757.852l-2.57 1.188-.23 2.628 19.24 46.907 3.307 9.186" fill="none" stroke="#0070c1" stroke-linejoin="round"/><path d="M3790.51 1024.963l8.131-6.01 11.314-7.778 37.123-30.052 14.496-15.557 18.385-25.81 27.93-57.982 32.375-72.16 9.986-7.19 15.578-5.992 3.195-11.184-4.393-16.377 3.594-20.37 22.768-32.754 22.368-16.776 307.164-170.558 18.374.798 16.776.4 9.986-4.793 7.989-14.78 19.572-21.968 197.408-107.133 46.246-13.496 27.561-17.974-11.584-25.963-11.184 4.393 3.196 12.782-2.397 11.184-51.11 28.819" fill="none" stroke="#0070c1" stroke-width="1px" stroke-linejoin="round"/><path d="M4393.221 488.07l-12.183.998-16.776-3.395-6.191 1.598-5.592 7.19-8.788 15.777-23.167 18.175M3968.224 748.5l-9.985 7.19-14.18 6.99-2.996 7.39 1.398 18.374-7.39 8.987-.798 11.783 1.198 10.984" fill="none" stroke="#0070c1" stroke-linejoin="round"/><path d="M2843.058 1205.098l5.092 12.035 6.48 10.184 14.813 11.11 17.59 13.423 15.275 11.572 17.127 11.11 26.385 9.257 34.717 14.813 28.699 15.275 14.35 8.332 4.629 5.555 20.367 54.158 3.24 4.166 6.48 4.629 11.573-.926 40.271-3.703 6.48-3.703 5.093-6.018 1.388-7.406 2.778-18.053 5.554-8.332 6.48-6.48 10.184-1.852 12.961-1.388 14.813-3.24 12.035-9.258 12.035-12.035 9.72-3.703 12.499-.926 5.091-3.38 2.315-9.118 3.703-7.407 6.48-3.703 54.622-4.629 41.197-6.017 6.943-4.166 8.795-8.332 18.053-2.777 23.607-1.852 35.18-3.24 13.887-2.315 38.42-10.646 7.406-6.018 15.738-27.31 5.092-4.63 19.441-10.646 13.887-.463 18.516-3.24 19.44-8.332 36.57-28.7 25.921-18.978 44.438-33.328 11.603-10.659 6.792-16.065 13.788-10.606 25.456-.354 10.607-7.07 37.123-26.164" fill="none" stroke="#0070c1" stroke-width="5" stroke-linejoin="round"/><path d="M3540.69 1572.931l7.485.282 95.041 73.294 20.336 10.874 4.943-1.977 5.225-12.569-16.947-35.87-25.984-23.16-19.347-3.672-19.207 1.412-8.686 3.628-5.89 7.102-3.817.63M3213.34 1411.657l-3.644 5.362-1.837 4.41-4.777 4.408-2.94-.734-20.332-18.128-7.35-6.247v-4.41" fill="none" stroke="#0070c1" stroke-linejoin="round"/><path d="M3099.575 2021.511l3.386-1.955 85.094-48.484 5.657 3.536 9.9 21.92 33.233-17.677 19.8 4.95 16.97 4.242 26.87-16.263 6.364-13.435.707-12.021-12.728-33.234M3176.741 1384.881l-1.414 7.778-11.314 15.557-17.677 37.477-41.72 100.409 9.193 51.618-14.85 50.912 8.486 70.71-9.9 20.507 17.678 144.25 7.071 4.95 82.732-6.365 2.12 7.072 11.315 19.091-14.382 12.671-.364 14.994 8.4 15.272 3.517 1.133 72.925-42.266 6.27 2.439" fill="none" stroke="#0070c1" stroke-width="1px" stroke-linejoin="round"/><path d="M3115.223 1884.099l6.178 49.59-.52 17.15-8.488 12.298-26.156 24.077-1.905 5.716 8.488 25.81 6.755 2.771M3202.042 1391.039l26.061.995 19.055-4.157 38.454 2.079 42.265 10.393 40.534 14.897 41.226 20.44 14.896 18.707 11.78 13.857 12.818 5.89 14.55.693 13.857-5.89 2.08-5.89" fill="none" stroke="#0070c1" stroke-linejoin="round"/></svg>