<svg xmlns="http://www.w3.org/2000/svg" height="1659" width="2607"><path d="M1259.063 471.686l6.48 2.314 6.48-2.777 4.63-6.48 9.257-18.054 8.332-5.091 145.81-88.875 7.407-5.555 5.555-8.795 53.232-32.865 3.703-1.389 4.166 2.315 8.332 17.59" fill="none" stroke="#004b4c" stroke-linejoin="round"/><path d="M1644.5 406.5l-2.5-5-20.5-6.5-11.5 10-1 9.5 16-.5 14.5 2 6 7 2.5 12-4 10-27 20-43 24.5-37.5 17.5-23.5 6.5-22 9.5-49 29-73 43.5-21.5 12L1304 625l-1 6.5 26.5 62.5-1 7-14 9-188 118.5L1108 841l-117 71-9 2-22.5-2-15 3.5-11 8-6.5 7-5.5 22-.5 15-13.5 17-144 190.5-28 35-72 55-12 3.5-11.5-1.5-13-1-8.5 4.5-3.5 8.5v15l-2.5 8.5-6.5 7-61.174 48.626-98.642 74.6-8.838 3.535-12.021 1.061-8.84-1.768-6.717 2.829-9.874 6.631 1.39 13.521-15.204 21.213-34.648 24.75-33.941 12.727-38.184.707-11.314-12.728-9.899-20.506-8.839-10.606-10.253-3.536-36.062 21.92-5.304 8.84v3.888l3.536 10.607" fill="none" stroke="#918f8f" stroke-width="1px" stroke-linejoin="round"/><path d="M1521.059 323.098l5.091 12.035 6.48 10.183 14.813 11.11 17.59 13.424 15.276 11.572 17.126 11.11 26.385 9.257 34.717 14.813 28.7 15.275 14.349 8.332 4.629 5.555 20.367 54.158 3.24 4.166 6.48 4.629 11.573-.926 40.271-3.703 6.481-3.703 5.092-6.018 1.388-7.406 2.778-18.053 5.554-8.332 6.48-6.48 10.184-1.852 12.961-1.389 14.813-3.24 12.035-9.258 12.035-12.035 9.721-3.703 12.498-.926 5.092-3.379 2.314-9.119 3.703-7.406 6.48-3.703 54.622-4.629 41.197-6.018 6.944-4.166 8.794-8.332 18.053-2.777 23.608-1.851 35.18-3.24 13.886-2.315 38.42-10.647 7.406-6.017 15.738-27.31 5.092-4.63 19.442-10.646 13.886-.463 18.516-3.24 19.441-8.332 36.569-28.7 25.922-18.978 44.437-33.328 11.604-10.66" fill="none" stroke="#004b4c" stroke-width="5" stroke-linejoin="round"/><path d="M1263 473l3.5-2.5 14-27 4.5-7.5 151-93 6.5-2 11.5-3.5" fill="none" stroke="#004b4c" stroke-width="1px" stroke-linejoin="round"/><path d="M1621.5 462.5l11-.5 9 6 6 3.5 40.5-23-3.5-8v-6l4-6 6 3" fill="none" stroke="#918f8f" stroke-width="1px" stroke-linejoin="round"/><path d="M1643 405.5l16 5.5 16.5 9.5L1704 436l6 6 20.5 54 3.5 7 6.5 1 47-4.5 6-3 2-4 4-27 6.5-9 8.5-6.5 28.5-4 8.5-2 10-7 7.5-8.5 7-6 7.5-2.5 13.5-2.5 4.5-2.5 5-15 11-6 92-9.5 10-4.5 7-9.5 22.5-3 58.5-5 48-12.5 6.5-5.5 16.5-26.5 6-6 18.5-10 10-1 12.5-1 14-4 14.5-6 107-81 13.5-11.5 5.5-15.5" fill="none" stroke="#918f8f" stroke-width="5" stroke-linejoin="round"/><path d="M899 995l13-4 6-6 42.5-55.5 31.5-18M1306 639l2.5-5.5 21.5-8.5 1.5 2 14 33h4l9.5-5.5 9.5-4 1.366-5.729L1365.5 633l2-10.5 6.5-8.5 92.5-53.5 7-9 40.5-25 19.5-11.5 11.5-12M606.698 1308.982l12.374-2.121 9.9 1.06 8.131 1.061 6.01-2.828 2.122-4.95 4.596-14.85 5.303-7.424 7.071-7.071 2.829-7.425" fill="none" stroke="#918f8f" stroke-width="1px" stroke-linejoin="round"/><path d="M.354 1572.38l22.273-6.718 36.77-7.071 40.659-4.95 14.142-3.535 17.677-10.253 11.668-7.072 36.957-6.531 3.25-4.5 12.987-4.164" fill="none" stroke="#004b4c" stroke-width="1px" stroke-linejoin="round"/><path d="M582.278 1298.732l4.636 6.768.586 5-2 9-5 3.5" fill="none" stroke="#004b4c" stroke-width="5" stroke-linejoin="round"/><path d="M479.25 1161.25l-4.5-9.75-14.75-19.25-7-12.25v-19l6-17.5 9.5-8 13.5-9.5 21.5-11 11-15 16.5-35 8.5-13 7-24 10-16 13-6 21-3.5 15-.5 13.5-3.5 9.5-7.5 8-18.5 6.5-8.5 19.5-20 9-13 13.5-25.5 20-19.5 14.5-17M729.5 1504l8 3 62 154" fill="none" stroke="#004b4c" stroke-width="1px" stroke-linejoin="round"/><path d="M717.533 811.365l11.04-7.885 11.038-7.885 11.04-11.04 20.5-18.135 14.982-7.096 43.367-27.598 45.733-26.02 75.696-48.099 55.983-33.117 90.677-54.406 38.637-22.866 17.347-18.136 14.981-18.135 8.674-9.462 14.981-8.674 34.694-16.558 18.135-8.674 7.885-1.577 7.885 7.097" fill="none" stroke="#004b4c" stroke-width="5" stroke-linejoin="round"/><path d="M2468.51 142.963l8.131-6.01 11.314-7.779 37.123-30.052 14.496-15.556 18.385-25.81 27.93-57.982M2382.5 194l-8-5.5-9.5-2.5 3.5-7.5 8-1.5 31.5 40 45 55.5 6.5 10 41 103 9 2 23.5-17 30.5-13.5 44.5-25M582 1321.5l-8 10.5-127.5 97.5-12.5 5-13-1-9.5 1.5-14.25 8.5 1.5 5.75.25 9.75-14.75 20-34.5 24.25L316 1516h-34l-14.25-16-7.5-16.75-11-11.25-10-3.5-35.75 21-3.5 2-.982.525-4.25 12.25 3.752 11.182-2.121 2.475" fill="none" stroke="#004b4c" stroke-width="1px" stroke-linejoin="round"/><path d="M1365 633l-9.5-26.5 2.5-5.5" fill="none" stroke="#918f8f" stroke-width="1px" stroke-linejoin="round"/><text x="89.453125" y="206.96094" style="-inkscape-font-specification:Sans" font-weight="400" font-size="144px" font-family="Sans"><tspan x="89.453125" y="206.96094">1990</tspan></text><path d="M1521.059 323.098l5.091 12.035 6.48 10.183 14.813 11.11 17.59 13.424 15.276 11.572 17.126 11.11 26.385 9.257 34.717 14.813 28.7 15.275 14.349 8.332 4.629 5.555 20.367 54.158 3.24 4.166 6.48 4.629 11.573-.926M2374.679 205.146l8.624-19.403 13.789-10.607 25.456-.353 10.606-7.071 37.123-26.163M476.5 1225.5l12 22.5 1 17.5 3.5 15 6.5 8.5 13 9 12.5.5 9-.5 12.5-3.5 6.5-1.5 13.5 1.5 10.5 1.5 11 6 9 8 7 9.5 15.5 36.5 10.5 20.5 10.5 16 12 13 16.5 16 10 12.5 11 17 8.5 11 12.5 12.5 14 31.5 6-1.5" fill="none" stroke="#004b4c" stroke-width="5" stroke-linejoin="round"/><path d="M478.25 1159.5l1.75 8 .25 11.5-6.75 24.5.5 12.5 3 11" fill="none" stroke="#004b4c" stroke-width="5" stroke-linejoin="round"/><path d="M39.244 1562.48l59.75 8.132 56.216 7.07 9.546-6.01 7.056-15.64-2.942-4.42-26.447-13.884.766-4.77M283.55 1515.457L216 1525.75l-8.25 7.5L206 1542l3.25 6.75 10.5.75 7.75-6.75 27.75-54.5 1.25-9.5" fill="none" stroke="#004b4c" stroke-width="1px" stroke-linejoin="round"/><path d="M254 1479.75l-.75 7.75-19.5 38.5-7.75 15.5-5.75 6-9.75-.5-2.75-5.5 2.25-8.25 6.5-6.25 62.75-9" fill="none" stroke="#918f8f" stroke-width="1px" stroke-linejoin="round"/><path d="M447 1429l-27 29.25-3.25 12.25-1.5 16-2 6.25-13.75-.25-22.5-2-12.75 1.5" fill="none" stroke="#004b4c" stroke-width="1px" stroke-linejoin="round"/><path d="M446.5 1432.75l-23 24.25-2.75 5-2.5 10.75-1.5 15.5-2.25 6.5h-5.75l-26.5-2h-6.5l-9.5 1.25" fill="none" stroke="#918f8f" stroke-width="1px" stroke-linejoin="round"/><path d="M2269.5 699.5l17-.5 22.5 3 24.5 21.5 11 19 7 17.5-5.5 14-5.5 1.5-23.5-15-16.5-13.5-37-28.5-22-16L2224 692l-10.5 11.5-6-4.5-8-15.5 3.5-6.5-11-11-12.5 4-3-1.5-2-6-41.5-12-17-6.5-31.5-45.5-13-29.5-3.5-10.5-67-24-34-8.5-23-2.5h-40l-11 5h-5.5l-2.5-7-3-11.5-24-3-1.291-4.16-3.295-32.512-4.394-4.613-34.928 4.613-4.174 9.886 2.856 12.521-2.856 1.099" fill="none" stroke="#004b4c" stroke-width="1px" stroke-linejoin="round"/><path d="M1796.737 499.106l14.06-5.711" fill="none" stroke="#004b4c" stroke-width="5" stroke-linejoin="round"/><path d="M1004.707 623.226l3.107 11.806 88.23 206.906 3.107 18.019-3.729 19.883 105.007 246.672 52.193 130.481-5.297 7.907-29.436 16.256h-40.421l-110.717 69.857-20.21 58.434-12.742 18.453-263.173 145.865-6.59-.878" fill="none" stroke="#004b4c" stroke-width="1px" stroke-linejoin="round"/></svg>