<?xml version="1.0" encoding="UTF-8" standalone="no"?>
<svg
   xmlns:dc="http://purl.org/dc/elements/1.1/"
   xmlns:cc="http://creativecommons.org/ns#"
   xmlns:rdf="http://www.w3.org/1999/02/22-rdf-syntax-ns#"
   xmlns:svg="http://www.w3.org/2000/svg"
   xmlns="http://www.w3.org/2000/svg"
   xmlns:xlink="http://www.w3.org/1999/xlink"
   viewBox="0 0 4750 5650"
   height="5650"
   width="4750"
   version="1.1"
   id="svg2">
  <metadata
     id="metadata8">
    <rdf:RDF>
      <cc:Work
         rdf:about="">
        <dc:format>image/svg+xml</dc:format>
        <dc:type
           rdf:resource="http://purl.org/dc/dcmitype/StillImage" />
        <dc:title></dc:title>
      </cc:Work>
    </rdf:RDF>
  </metadata>
  <defs
     id="defs6" />
  <image
     xlink:href="../streetmap/aklosm.png"
     y="-21.75"
     x="50"
     id="image4782"
     preserveAspectRatio="none"
     height="5671.75"
     width="4861.5"
     style="display:none" />
  <path
     id="path4138"
     d="m 2441.4492,2130.4915 110.7796,36.3898 28.661,11.2712 11.5932,12.8814 41.8645,7.7288 87.5932,-5.7966 19.9661,6.4407 13.5932,10.5932 128.5,142.5 34,37 43,25 118,56 25,5 23.5,-0.5 40.5,-11.5 29,-2 68.5,6 36,13.5 42.5,22.5 29.5,16.5 91.5,45 17,15.5 12.5,22.5 17.5,75.5 14,62.5 2,30.5 -9.5,40.5 -26.5,90 -19,32.5 -30,37 -58,63 -10,20.5 -22,81 v 16.5 l 21,97.5 1.5,25.5 -5,19 -13,21 -14.5,15.5 -110,72 -13,17.5 -5,19.5 1.5,12 11,49 33.5,259.5 10.5,93.5 8,21.5 99,184 90.5,155.5 77,184.5 25.5,42.5 15,35.5 8.5,9.5 21.5,2 86,-10 22,-7.5 37.5,-22.5 30,-11"
     style="fill:none;fill-rule:evenodd;stroke:#fec231;stroke-width:5;stroke-linecap:butt;stroke-linejoin:round;stroke-miterlimit:4;stroke-dasharray:none;stroke-opacity:1" />
  <path
     id="path4140"
     d="m 2439.75,2135.25 103.75,34.25 26.25,9 6,4.75 2.25,9.5 -4.75,7 -7.75,3.25 -13.75,1.75 -7,7.25 -3.5,11.5 8.75,36 74,167 1,14 -7,11.5 -17.5,21.5 -11,26.5 -8,38 1.5,33 7.5,26.5 15,30 63.5,85 33,38 23,21.5 87.5,61.5 91.5,70 16,16.5 14,25.5 19.5,49 18.5,42.5 4,30.5 13.5,24 20,19.5 14.5,12 26,51.5 139.5,221.5 19,43 3.5,15.75 10.75,47.5 27.25,211.75 16.75,142.5 8.75,22.25 98.75,183.25 90,155.25 77.25,184.5 24.25,40.5 19.75,45.5 51,146.25 10.5,18.5 22,19 145.5,101.5 205.5,109.5 128,126.5 120,119.5 200.5,163 38.5,39.5 52,69 87,128"
     style="fill:none;fill-rule:evenodd;stroke:#ee2926;stroke-width:5;stroke-linecap:butt;stroke-linejoin:round;stroke-miterlimit:4;stroke-dasharray:none;stroke-opacity:1" />
  <path
     id="path4142"
     d="m 1942.25,703.24999 12.25,9.75 49.75,64.75 58.25,59.5 26.25,36.5 7.5,20.25 13,34 19,57.25001 6.75,15.5 54.5,116.75 38,76.25 36,65.5 10.75,21 18.25,40 20.5,35.75 13,17.5 22.75,26.5 20.5,23 7.25,11.75 2.5,12.5 -1,15 -7.5,28.5 -11.5,31.5 -13.25,27.5 -18.25,28.75 -39.75,49.5 -2.25,12 -1.75,16.5 -6.5,8.5 -9.5,6.75 -15,6.5"
     style="fill:none;fill-rule:evenodd;stroke:#939598;stroke-width:5;stroke-linecap:butt;stroke-linejoin:round;stroke-miterlimit:4;stroke-dasharray:none;stroke-opacity:1" />
  <path
     id="path4144"
     d="m 2365.75,1418.75 16.25,5.25 3.5,5"
     style="fill:none;fill-rule:evenodd;stroke:#939598;stroke-width:5;stroke-linecap:butt;stroke-linejoin:round;stroke-miterlimit:4;stroke-dasharray:none;stroke-opacity:1" />
  <path
     id="path4146"
     d="m 2385,1427.5 0.25,4 -18.25,15.75 -14.25,9.75 1.75,9.75 6.5,16.5 -1,16 -7.75,25.5 -10.75,22.75 -22.5,31 -34.25,44 -35.75,52.25 -11,30.5 -5.5,21.75 -6,26.25 2,28.5 4.5,25.25 -3.5,16.75 -98,184.25 -4.25,15.5 -0.5,14.25 3.25,11.5 15.25,15.25 19,13.5 13.25,21 9.25,8.75 32.5,10.25 20.25,15.25 15,12.25 56.75,19 7,-0.25 43.25,-8.5 11,-6.5 18.25,-11.5 2.75,-4.5 8,-21.25 3.5,-2 34.25,10.25 0.75,3.5 -5.75,15.5 -2.5,1.5 -21.75,-7 -22,5.25"
     style="fill:none;fill-rule:evenodd;stroke:#939598;stroke-width:1px;stroke-linecap:butt;stroke-linejoin:round;stroke-opacity:1" />
  <path
     id="path4148"
     d="m 2254.9238,1677.4741 -9.1924,7.0711"
     style="fill:none;fill-rule:evenodd;stroke:#939598;stroke-width:1px;stroke-linecap:butt;stroke-linejoin:round;stroke-opacity:1" />
  <text
     x="89.453133"
     y="206.96103"
     id="text3639-3"
     xml:space="preserve"
     style="font-style:normal;font-weight:normal;font-size:143.99993896px;font-family:Sans;-inkscape-font-specification:Sans;fill:#000000;fill-opacity:1;stroke:none"><tspan
       x="89.453133"
       y="206.96103"
       id="tspan1">2015</tspan></text>
  <path
     id="path4785"
     d="m 1956.1711,713.334 3.5356,-7.42462 17.3241,-4.94975"
     style="fill:none;fill-rule:evenodd;stroke:#939598;stroke-width:5;stroke-linecap:butt;stroke-linejoin:round;stroke-miterlimit:4;stroke-dasharray:none;stroke-opacity:1" />
  <path
     id="path4787"
     d="m 1975.6166,700.95963 2.8284,-3.18198 -9.5459,-8.83883 -41.3658,14.84924 -2.1213,-1.76777 -4.5962,-20.15254"
     style="fill:none;fill-rule:evenodd;stroke:#939598;stroke-width:1px;stroke-linecap:butt;stroke-linejoin:round;stroke-opacity:1" />
  <path
     id="path4789"
     d="m 1944.8574,704.84872 -24.7487,-23.33452 -41.0122,-70.00357 -13.435,-35.35534 -18.3848,-76.72109 -15.9099,-41.01219 -22.6274,-47.0226 -7.0711,-33.94113 -4.5962,-38.53732 -3.182,-43.13351 -8.4852,-30.75915 -15.2028,-1.41421 0.7071,3.18198 3.5355,0.70711 1.4142,27.57716 2.8284,1.06066 20.1526,-2.82843 0.3535,3.18199 -3.5355,18.73833"
     style="fill:none;fill-rule:evenodd;stroke:#939598;stroke-width:1px;stroke-linecap:butt;stroke-linejoin:round;stroke-opacity:1" />
  <text
     x="89.453133"
     y="5547.9609"
     id="text3639-3-6"
     xml:space="preserve"
     style="font-style:normal;font-weight:normal;font-size:143.99993896px;font-family:Sans;-inkscape-font-specification:Sans;fill:#000000;fill-opacity:1;stroke:none"><tspan
       x="89.453133"
       y="5547.9609"
       id="tspan2">2015</tspan></text>
</svg>
