<?xml version="1.0" encoding="UTF-8" standalone="no"?>
<svg
   xmlns:dc="http://purl.org/dc/elements/1.1/"
   xmlns:cc="http://creativecommons.org/ns#"
   xmlns:rdf="http://www.w3.org/1999/02/22-rdf-syntax-ns#"
   xmlns:svg="http://www.w3.org/2000/svg"
   xmlns="http://www.w3.org/2000/svg"
   xmlns:xlink="http://www.w3.org/1999/xlink"
   version="1.1"
   id="svg2"
   width="1450"
   height="2450"
   viewBox="0 0 1450 2450">
  <metadata
     id="metadata8">
    <rdf:RDF>
      <cc:Work
         rdf:about="">
        <dc:format>image/svg+xml</dc:format>
        <dc:type
           rdf:resource="http://purl.org/dc/dcmitype/StillImage" />
        <dc:title></dc:title>
      </cc:Work>
    </rdf:RDF>
  </metadata>
  <defs
     id="defs6" />
  <image
     xlink:href=".././../timelines/streetmap/bodosm.png"
     width="2154"
     height="2393.333"
     preserveAspectRatio="none"
     id="image10"
     x="-125"
     y="106.66699"
     style="display:none" />
  <path
     style="opacity:1;fill:none;fill-opacity:0.34901961;fill-rule:nonzero;stroke:#cf56a0;stroke-width:5;stroke-linecap:butt;stroke-linejoin:round;stroke-miterlimit:4;stroke-dasharray:none;stroke-opacity:1"
     d="m 498.89831,116.83648 72.61017,214.16949 72.30508,218.44068 26.23729,74.13559 41.18644,63.76271 5.79661,13.42373 4.57627,3.35593 15.86441,0.91526 4.57627,3.9661 5.18644,10.37288 5.49153,6.71186 20.74576,19.52543 37.84969,32.39367 42.3876,31.36904"
     id="path821" />
  <path
     style="opacity:1;fill:none;fill-opacity:0.34901961;fill-rule:nonzero;stroke:#cf56a0;stroke-width:1;stroke-linecap:butt;stroke-linejoin:round;stroke-miterlimit:4;stroke-dasharray:none;stroke-opacity:1"
     d="m 853.71187,809.37885 26.84743,15.86441 17.0848,2.74576 23.7966,-3.9661 50.339,-9.45763 19.5254,0.30509 25.0169,7.01695 22.8814,292.57627 3.9661,18.9153 -16.7797,37.5254 5.7966,41.1864 -4.2711,10.3729 v 5.1864 l 6.1017,6.7119 3.3559,10.3729 3.3559,2.1356 34.1695,-4.8814 4.2712,3.356 15.2542,54 22.7396,36.4684 17.3127,22.7239 17.6308,27.2469 13.3751,15.4245 41.8511,36.6736 1.7258,4.5303 -9.9234,18.984 v 5.609 l 31.4962,25.4558 2.5887,7.119 0.8629,9.492 -13.1594,39.0467 1.5101,5.1774 29.5547,11.0022 6.6875,4.9617 37.5366,12.0807 7.7662,28.6918 -0.8629,3.6673 -34.0849,32.5749 -0.8629,4.9617 31.0647,43.3613 0.6472,5.1774 -6.6876,41.4197 -4.746,14.238 -2.1572,19.6312 -3.0202,8.6291 6.2561,25.8873 0.8629,22.2199 -5.1775,23.5143 -7.119,43.577 2.8045,11.0021 7.3347,11.6493 1.7258,23.5143 -1.7258,2.373 -38.3995,10.1392 -31.7119,30.6333 -17.6897,21.5727 -8.6291,18.984 -25.4558,31.712 -23.2986,22.2199 -7.119,16.611 -4.0988,9.9235 -4.5303,1.7258 -1.2944,3.2359 1.5101,23.9458 4.9618,9.2763 1.2943,30.4175 -8.2275,9.9241 1.2203,21.356 -2.7457,30.5085 2.1355,27.4576 7.017,26.5424 3.3559,10.0677 3.661,8.2373 1.5255,15.2543"
     id="path823" />
  <text
     style="font-style:normal;font-weight:normal;font-size:143.99993896px;line-height:125%;font-family:Sans;-inkscape-font-specification:Sans;letter-spacing:0px;word-spacing:0px;fill:#000000;fill-opacity:1;stroke:none"
     xml:space="preserve"
     id="text2992"
     y="206.96089"
     x="89.453156"><tspan
       id="tspan1"
       y="206.96089"
       x="89.453156">2020</tspan></text>
</svg>
