<svg xmlns="http://www.w3.org/2000/svg" viewBox="-150 -100 2200 2250" height="2250" width="2200"><text x="-60.55" y="106.96" xml:space="preserve" style="font-style:normal;font-weight:400;font-size:144px;line-height:125%;font-family:Sans;-inkscape-font-specification:Sans;letter-spacing:0;word-spacing:0;fill:#000;fill-opacity:1;stroke:none"><tspan x="-60.55" y="106.96">1965</tspan></text><path style="opacity:1;fill:none;fill-opacity:1;fill-rule:nonzero;stroke:#f69d0f;stroke-width:1;stroke-linecap:butt;stroke-linejoin:round;stroke-miterlimit:4;stroke-dasharray:none;stroke-opacity:1" d="m799.48 1161.7 11.01-20.06 14.55-13.76 2.78-8.36M875.38 766.28l-.98-5.01-5.67-7.66L841.07 742l-6.98-3.05-41.88-28.9M764.42 494.69l10.76-57.64M828.83 246.33l-12.04 180.18-2.16 7.08-3.54 3.15-6.29 1.38-26.2-4.28-2.98.81-.43 2.4M875.38 766.28l12.72 63.1 1.4 10.91-25.49 112.57-4.55 5.52-1.57 6.69 1.97 5.6-0.69.15-4.03 16.42-27.31 129.28M771.56 1197.09l27.92-35.39"/><path d="m764.42 494.69-10.95 79.29 4.72 19.66-0.98.15-9.83 13.37-3.15.98-12.19 2.36-3.99 1.35-1.5 2.67.440.77 2.34 17.73 3.74 5.9 4.13 2.95 14.45 4.72 40.7 22.71" style="opacity:1;fill:none;fill-opacity:1;fill-rule:nonzero;stroke:#f69d0f;stroke-width:5;stroke-linecap:butt;stroke-linejoin:round;stroke-miterlimit:4;stroke-dasharray:none;stroke-opacity:1"/><path d="m725.82 599.68-6.11-9.82-14.45-16.33-22.45-28.51-138.76-174.49" style="opacity:1;fill:none;fill-opacity:1;fill-rule:nonzero;stroke:#f69d0f;stroke-width:1;stroke-linecap:butt;stroke-linejoin:round;stroke-miterlimit:4;stroke-dasharray:none;stroke-opacity:1"/><path style="opacity:1;fill:none;fill-opacity:1;fill-rule:nonzero;stroke:#f69d0f;stroke-width:5;stroke-linecap:butt;stroke-linejoin:round;stroke-miterlimit:4;stroke-dasharray:none;stroke-opacity:1" d="m726.55 617.53-.01-7.27-1.38-7.67-1.87-2.95"/><path style="opacity:1;fill:none;fill-opacity:1;fill-rule:nonzero;stroke:#f69d0f;stroke-width:1;stroke-linecap:butt;stroke-linejoin:round;stroke-miterlimit:4;stroke-dasharray:none;stroke-opacity:1" d="m838.02 740.82-6.69 16.03-1.57 9.63M771.56 1197.09l-27.92 35.39-13.76 45.22-3.34 1.97-42.27-11.6-10.03 3.54M977.28 1196.4l1.11 5.84 1.53 2.22 6.95-.56-1.95-7.37h-7.79l-10.29-59.51 1.11-4.45 6.95-3.61v-4.73l-64.23-72.58-28.36-38.65-9.45-19.47-17.74-3.31-16.32-2.11-40.18 5.28-4.45-2.64M794.17 990.77l-3.2 6.12-41.53 29.36-1.4 9.13-5.55 3.96-9.57-1.41-147.41 104.22-131.48 96.66-70.33 54.76"/><path style="opacity:1;fill:none;fill-opacity:1;fill-rule:nonzero;stroke:#f69d0f;stroke-width:1;stroke-linecap:butt;stroke-linejoin:round;stroke-miterlimit:4;stroke-dasharray:none;stroke-opacity:1" d="m825.83 1121.59-45.22-46.8 13.76-76.68-.39-43.65 30.67-139.6 5.11-48.37M825.83 1121.59l4.63 5.58 28.78 3.48 1.39 3.34-5.28 30.31 1.95 5.84 7.93 35.04 5.01 34.34"/><path style="opacity:1;fill:none;fill-opacity:1;fill-rule:nonzero;stroke:#f69d0f;stroke-width:1;stroke-linecap:butt;stroke-linejoin:round;stroke-miterlimit:4;stroke-dasharray:none;stroke-opacity:1" d="m797.32 938.92-2.56 2.16-16.52-2.95-3.15 1.97-1.18 2.16-235.56-48.17-3.54 1.77-2.56 13.76-3.34 3.54-50.53 44.44"/></svg>