<svg xmlns="http://www.w3.org/2000/svg" width="2200" height="2250" viewBox="-150 -100 2200 2250"><text style="line-height:125%;-inkscape-font-specification:Sans" y="106.96094" x="-60.546875" font-weight="400" font-size="143.99993896px" font-family="Sans" letter-spacing="0" word-spacing="0"><tspan y="106.96094" x="-60.546875">1995</tspan></text><path d="M799.483 1161.698l11.011-20.056 14.55-13.764 2.776-8.36M825.83 1121.586l-45.223-46.797 13.764-76.685-.394-43.65 30.674-139.606 5.113-48.37M875.38 766.282l-.982-5.014-5.669-7.658-27.66-11.612-6.98-3.047-41.881-28.905M764.42 494.69l10.763-57.644M583.116 420.028l-4.409.145-38.823 41.018-3.832.104-41.363-54.198-10.01-13.903-41.99-33.925-31.7-93.988-6.673-3.893-28.642 10.288-12.235-12.791-5.283-2.503-17.519-1.112-2.78-3.615 1.39-83.143 26.139.834M856.505 81.824l-2.753 14.157-3.146 58.202-17.303 25.168-16.517 247.16-2.163 7.078-3.54 3.146-6.291 1.377-26.198-4.277-2.984.809-.427 2.402" fill="none" stroke="#f69d0f" stroke-linejoin="round"/><path d="M794.173 990.77l4.45 2.642 40.18-5.283 16.325 2.11 17.74 3.312 9.454 19.465 28.363 38.652 64.235 72.577v4.727l-6.952 3.615-1.112 4.45 10.288 59.507h7.786l1.947 7.369 4.45 12.235 32.534 5.979 1.112 2.78.279 3.06-1.808 2.64-20.3 9.316-.694 3.754 1.251 4.45 2.92 1.807 11.54 4.866 1.668 3.198-.556 3.893-1.807 2.92-8.343 8.759-15.015 8.064-50.61 23.914-69.657 27.53-5.283 4.031-3.059 5.284-3.337 9.871-7.09 7.786-31.979 79.112-11.957 83.143" fill="none" stroke="#f69d0f" stroke-linejoin="round"/><path d="M875.38 766.282l12.717 63.097 1.399 10.914-25.492 112.572-4.55 5.52-1.573 6.686 1.966 5.604-.688 3.146-4.03 16.418-27.309 129.28M702.35 694.415l-73.146 40.603-22.452 98.92M606.752 833.938l-27.884 132.313-12.191 32.247-4.138 4.23-7.23 1.112-61.454-23.358-30.032-2.503-7.23 2.781-80.362 76.192-35.037 64.79-34.203 51.444-6.396 5.561-6.118 2.225-16.406 18.075-17.24 66.18 8.342 38.097 5.283 9.732 37.132 32.129.13 4.438-106.834 81.846M485.077 1447.79l76.881-107.752 13.37-26.741 29.298-61.938 12.19-11.207 17.5-5.506 21.826-5.505 51.713-24.186 18.68-6.095 15.926-1.966 24.185.197h4.916l27.92-35.393" fill="none" stroke="#f69d0f" stroke-linejoin="round"/><path d="M485.077 1447.79l-10.814 18.679-8.259 31.46-1.966 10.618-5.899 3.146-18.483-12.78M764.42 494.69l-10.948 79.29 4.72 19.663-.984 3.146-9.831 13.371-3.146.983-12.191 2.36-3.99 1.354-1.502 2.674.404 40.771 2.335 17.728 3.736 5.899 4.13 2.95 14.451 4.718 40.702 22.71" fill="none" stroke="#f69d0f" stroke-width="5" stroke-linejoin="round"/><path d="M702.35 694.415l2.949-.885 3.932 1.18 11.405-5.31 5.112-5.308 3.54-8.062" fill="none" stroke="#f69d0f" stroke-width="5" stroke-linejoin="round"/><path d="M725.825 599.675l-6.11-9.816-14.45-16.329-22.46-28.509-138.757-174.49" fill="none" stroke="#f69d0f" stroke-linejoin="round"/><path d="M726.548 617.53l-.013-7.272-1.376-7.668-1.868-2.95" fill="none" stroke="#f69d0f" stroke-width="5" stroke-linejoin="round"/><path d="M838.022 740.819l-6.685 16.025-1.573 9.634M825.83 1121.586l4.632 5.58 28.78 3.475 1.39 3.337-5.283 30.31 1.947 5.84 7.925 35.036 5.005 34.342-3.615 4.866-14.182 4.589-15.433 8.064-48.662 33.785M771.562 1197.09l-27.92 35.393-13.764 45.225-3.343 1.966-42.275-11.601-10.028 3.54M-36.573 1549.052v-6.685l29.494-6.686 63.314-27.92 148.65-76.292" fill="none" stroke="#f69d0f" stroke-linejoin="round"/></svg>