<svg xmlns="http://www.w3.org/2000/svg" width="3125" viewBox="-225, 0, 3125, 4370" height="4370"><path d="M1246.929 702.701l-21.586 19.192L1211 738l-10 11-6 26-6 13.5-22.5 14-11 9-5 26.5-10 68.5-3.5 11.5-12.5 11.5-33 14.5-10 17-11 37.5-7.5 28-25.5 68.5-1.5 35-19 47.5 2.5 79.5 14.5 54.5 8 39-5 20-16 45.5 3 16.5 5.5 21.5-5 21.5-11 15.5-26.5 24.5" fill="none" stroke="#986a3a" stroke-width="5" stroke-linejoin="round"/><path d="M233 1325l19.5 7.5 11 8.5 15 29 21 10.5 94 17 74.5 8.5 54.5 13 59.5 16 74.5 24 35 12.5 90.5 5 30.5 9 77.5 34 22.5 8.5 19.5 1 24-.5 12-5 16.5-12.5 16.5-14.5 14-23.5 17.5-13 28-4.5 27-1.5 22-4.5 47.5-12 20.5-15 14-23.5 3-33.5 2.5-15.5 16-11.5 14.5-8 31-8 15-10.5 37-29.5 18-11.5 13.5-2.5 41 14.5 13-1 29-10.5 24-35.5 22.5-24 21-25 10-11.5" fill="none" stroke="#00a650" stroke-width="5" stroke-linejoin="round"/><text x="-135.547" y="206.961" style="line-height:125%;-inkscape-font-specification:Sans" font-size="144" font-weight="400" letter-spacing="0" word-spacing="0" font-family="Sans"><tspan x="-135.547" y="206.961">1900</tspan></text><text x="-135.547" y="4267.961" style="line-height:125%;-inkscape-font-specification:Sans" font-size="144" font-weight="400" letter-spacing="0" word-spacing="0" font-family="Sans"/><path d="M1308 524l-13.5 36-1 15-1 16-9 12.5-13 5-23-4-27-2-27-13.5-51.5-5-15-5-16 .5-14.5 6.5-9 12-3 15.5 2 17.5-2.5 13.5-4.5 7-10.5 7-30 4.5-15 1-14 9.5L938 779l-5 17 3 36-5 12.5-20.5 21-11.5 6-27 1-11.5 5.5-22.5 20-44.5 19-17 12.5-14.5 32-5.5 15.5-14 63.5 2 20 9 21-2 18-8 21.5-13.5 61.5-15 67.5-11 52 1 13 19 24 8 11.5 1.5 12.5-4.5 14.5-10.5 10.5-15.5 4-30.5-1.5-83-16-52 5.5h-61l-77-5.5-40-9-21.5-3-103.5-45" fill="none" stroke="#009ddd" stroke-width="5" stroke-linejoin="round"/><path d="M1498.247 1179.864L1532.5 1145l46-50 7-23.5-3.5-24.5-2-20-3.757-50.246" fill="none" stroke="#00a650" stroke-width="5" stroke-linejoin="round"/><path d="M1245.5 702.5l13-24 28.5-61 9.5-19.5 2.5-12 1-22.5 7.5-22.5 7-14.5" fill="none" stroke="#986a3a" stroke-width="5" stroke-linejoin="round"/></svg>