<?xml version="1.0" encoding="UTF-8" standalone="no"?>
<svg
   version="1.1"
   id="svg2"
   width="6200"
   height="4950"
   viewBox="0 0 6200 4950"
   xmlns:xlink="http://www.w3.org/1999/xlink"
   xmlns="http://www.w3.org/2000/svg"
   xmlns:svg="http://www.w3.org/2000/svg"
   xmlns:rdf="http://www.w3.org/1999/02/22-rdf-syntax-ns#"
   xmlns:cc="http://creativecommons.org/ns#"
   xmlns:dc="http://purl.org/dc/elements/1.1/">
  <metadata
     id="metadata8">
    <rdf:RDF>
      <cc:Work
         rdf:about="">
        <dc:format>image/svg+xml</dc:format>
        <dc:type
           rdf:resource="http://purl.org/dc/dcmitype/StillImage" />
      </cc:Work>
    </rdf:RDF>
  </metadata>
  <defs
     id="defs6" />
  <image
     style="display:none"
     width="6343.77"
     height="4902"
     preserveAspectRatio="none"
     xlink:href="../basemap/szvosm.png"
     id="image10"
     x="0"
     y="-2" />
  <path
     style="opacity:1;fill:none;fill-opacity:1;fill-rule:nonzero;stroke:#ef3340;stroke-width:5;stroke-linecap:butt;stroke-linejoin:round;stroke-miterlimit:4;stroke-dasharray:none;stroke-opacity:1"
     d="m 4185.97,350.92 -47.25,79.53 -18.44,13.25 -20.75,10.37 h -23.05 l -74.92,-17.86 -20.17,0.58 -27.66,14.41 -21.32,23.05 -5.19,17.86 -1.15,48.98 -7.49,43.8 -16.14,269.12 -2.88,48.41 31.69,203.42 2.88,20.17 5.76,72.03 32.85,158.47 -5.19,22.47 -9.8,13.83 -20.17,10.37 -72.03,13.25 -80.98,6.12 -17.15,7.71 -10.57,8.65 -7.69,14.22 -2.69,13.65 40.14,245.28 2.5,18.45 -3.46,7.88 -7.68,5 -85.8,22.57 -21.58,9.5 -7.3,11.52 -3.08,10.37 -2.96,54.17 -6.83,11.14 -16.59,15.31 -14.43,42.69 -11.78,24.07 -8.95,12.12 -7.7,10.68 -5.91,23.54 8.12,74.43 12.87,119.49 -8.64,23.63 -17.96,18.23 -21.61,48.42 -3.76,15.7 -2.92,17.79 1.57,42.21 21.26,122.09 7.48,67.69 22.47,48.98 40.72,56.86 11.14,14.02 21.32,9.22 60.51,-6.34 17.29,0.19 16.14,7.88 7.49,12.29 2.12,32.85 3.07,78.18 -2.65,104.07 8.76,29.98 11.36,17.88 16.14,8.07 28.62,-0.96 206.88,1.15 19.23,1.12 18.47,5.61 70.06,33.61 12.68,1.15 55.9,4.03"
     id="path817" />
  <text
     style="font-style:normal;font-weight:normal;font-size:144px;font-family:Sans;-inkscape-font-specification:Sans;fill:#000000;fill-opacity:1;stroke:none"
     xml:space="preserve"
     id="text3652"
     y="206.96"
     x="89.45"><tspan
       id="tspan1"
       y="206.96"
       x="89.45">2015</tspan></text>
  <text
     style="font-style:normal;font-weight:normal;font-size:144px;font-family:Sans;-inkscape-font-specification:Sans;fill:#000000;fill-opacity:1;stroke:none"
     xml:space="preserve"
     id="text3652-1"
     y="4847.96"
     x="89.45"><tspan
       id="tspan2"
       y="4847.96"
       x="89.45"></tspan></text>
  <path
     id="path819-6"
     d="m 2513.64,2615.66 175.76,-26.51 142.92,-23.05 37.46,-5.19 47.28,-22.52 9.37,-8.89 4.58,-8.59 1.01,-10.12 -5.76,-69.15 -10.37,-156.17 5.76,-25.36 9.76,-12.49 19.44,-7.97 239.04,-25.81 64.2,-1.26 288.79,-38.33 158.47,-14.98 52.44,-4.03 104.31,-17.86 171.15,-38.03 38.61,-13.83 27.66,-3.46 38.03,-10.95 123.32,-29.97 393.02,-72.61 102.17,-20.69 147.93,-66.91 52.21,-6.06 63.14,0.47 69.22,10.86 564.01,-64.61"
     style="fill:none;fill-opacity:1;fill-rule:nonzero;stroke:#78be20;stroke-width:5;stroke-linecap:butt;stroke-linejoin:round;stroke-miterlimit:4;stroke-dasharray:none;stroke-opacity:1" />
</svg>
