<?xml version="1.0" encoding="UTF-8" standalone="no"?>
<svg
   xmlns:dc="http://purl.org/dc/elements/1.1/"
   xmlns:cc="http://creativecommons.org/ns#"
   xmlns:rdf="http://www.w3.org/1999/02/22-rdf-syntax-ns#"
   xmlns:svg="http://www.w3.org/2000/svg"
   xmlns="http://www.w3.org/2000/svg"
   xmlns:xlink="http://www.w3.org/1999/xlink"
   version="1.1"
   width="7600"
   height="7400"
   viewBox="0 0 7600 7400"
   id="svg2">
  <metadata
     id="metadata8">
    <rdf:RDF>
      <cc:Work
         rdf:about="">
        <dc:format>image/svg+xml</dc:format>
        <dc:type
           rdf:resource="http://purl.org/dc/dcmitype/StillImage" />
        <dc:title></dc:title>
      </cc:Work>
    </rdf:RDF>
  </metadata>
  <defs
     id="defs6" />
  <image
     xlink:href=".././../streetmap/bueosm.png"
     id="image10"
     height="7506"
     width="7506"
     y="0"
     x="0"
     style="display:none" />
  <path
     d="M 4848.3442,3216.4611 5000,3194.5 l 95.5,-16 68.5,-3 74.5,-7 37.6143,5.8145 7.3071,17.9828 3.7951,15.4959 -2.5273,43.9058"
     id="path3778"
     style="fill:none;stroke:#6d2281;stroke-width:5;stroke-linecap:butt;stroke-linejoin:round;stroke-miterlimit:4;stroke-dasharray:none;stroke-opacity:1" />
  <path
     d="m 4709.8194,2488.6311 8.1806,4.8689 68,52.5 75.5,65.5 54.5,43.5 23.5,21.5 29.5,33 13.5,14 29,16 14,10 8,12.5 5.5,15.5 -1.5,21.5 6.5,12.5 15.5,11 24.5,0 85.5,-4.5 68,-4 3.9877,7.0116 0.7512,33.7316 3.0778,5.5341 135.5118,87.9905"
     id="path3780"
     style="fill:none;stroke:#008067;stroke-width:5;stroke-linecap:butt;stroke-linejoin:round;stroke-miterlimit:4;stroke-dasharray:none;stroke-opacity:1" />
  <path
     d="m 5375,2684.5 -38.5,52 -14.5,16 -3,10 5.5,117 -3,10.5 -4.5,5 -7.5,4.5 -16,1 -7,11 10.5,251 -5,90"
     id="path3782"
     style="fill:none;stroke:#0168b3;stroke-width:5;stroke-linecap:butt;stroke-linejoin:round;stroke-miterlimit:4;stroke-dasharray:none;stroke-opacity:1" />
  <path
     d="m 5433.5,2871 -98.5,7 -105.5,7 -67.5,8.5 -79.5,2 -71,4.5 -29,-1.5 -47.5,-10 -24,0.5 -33,2 -36.5,-8 -182,-21.5 -22,-4.5 -81.5,-33 -57,-63.5 -47.5,-50.5 -43,-54.5 -53.5,-22 -12.136,-4.6446"
     id="path3784"
     style="fill:none;stroke:#ee1b2e;stroke-width:5;stroke-linecap:butt;stroke-linejoin:round;stroke-miterlimit:4;stroke-dasharray:none;stroke-opacity:1" />
  <path
     d="m 5415.7448,2954.2694 -32.1734,1.7677 -175.3625,14.8493 -22.9809,-6.364 -179.6052,14.4957 -36.416,2.4749 -15.2028,-12.3744 -8.1317,1.0607 -17.6777,14.4957 -121.9759,10.6066 -25.4558,7.071 -216.3747,117.3798 -62.9325,35.3553"
     id="path3788"
     style="fill:none;stroke:#00aedb;stroke-width:5;stroke-linecap:butt;stroke-linejoin:round;stroke-miterlimit:4;stroke-dasharray:none;stroke-opacity:1" />
  <text
     x="89.453087"
     y="206.96101"
     id="text2992"
     xml:space="preserve"
     style="font-style:normal;font-weight:normal;font-size:143.99993896px;line-height:125%;font-family:Sans;-inkscape-font-specification:Sans;letter-spacing:0px;word-spacing:0px;fill:#000000;fill-opacity:1;stroke:none"><tspan
       x="89.453087"
       y="206.96101"
       id="tspan1">1950</tspan></text>
  <path
     style="fill:none;fill-rule:evenodd;stroke:#008bcb;stroke-width:5;stroke-linecap:butt;stroke-linejoin:round;stroke-miterlimit:4;stroke-dasharray:none;stroke-opacity:1"
     d="m 5375.1356,2676.9682 -84.1536,-46.2754 -48.4163,-39.7225 -35.1398,-35.8146 -99.0996,-61.1589 -65.142,-46.8506 -53.4671,-60.7341 -42.4068,-40.6399 -45.0572,-14.5773 -56.1007,-2.6504 -41.0815,11.9269 -42.4068,27.8294 -53.892,38.8729 -35.3389,18.1113 -31.8051,12.3686 -46.3824,17.6695 -39.3147,3.5339 -22.9703,-2.2087 -34.8972,-13.6938 -120.5943,-63.6102 -51.6833,-17.2278 -86.5805,-40.6398 -51.2415,-18.553 -56.5424,3.9757 -38.4311,11.0434 -68.4693,31.8051 -37.1059,37.1059 -26.946,29.5964 -37.9894,30.0381 -70.2363,47.7077 -32.2468,15.9025 -45.0572,14.5773 -43.2902,2.6505 -63.1685,8.393 -59.1928,3.9756 -52.125,-3.5339 -47.2659,-15.9025 -58.751,-35.339 -66.7023,-64.0519 -47.7077,-42.4068 -86.1387,-135.1716 -437.7617,-427.6017"
     id="path4142" />
  <path
     style="fill:none;fill-rule:evenodd;stroke:#008bcb;stroke-width:5;stroke-linecap:butt;stroke-linejoin:round;stroke-miterlimit:4;stroke-dasharray:none;stroke-opacity:1"
     d="m 4956,2954.5 -106,5 -32,3.5 -35,11 -77.5,37.5 -213,108 -193.5,103 -273,99.5 -66,23 -49.5,11.5 -290,46.5 -218,25 -139.5,13 -202.5,-7 -49,5.5 -254.5,47.5 -278,43.5 -185.5,37.5 -79.5,0 -61.5,10 -102.5,22 -479,183.5 -42,8.5 -387,63 -37.5,1 -214.5,-40.5 -329,-60 -454.5,-156"
     id="path4187" />
  <text
     x="89.453133"
     y="7297.9609"
     id="text2992-3"
     xml:space="preserve"
     style="font-style:normal;font-weight:normal;font-size:143.99993896px;line-height:125%;font-family:Sans;-inkscape-font-specification:Sans;letter-spacing:0px;word-spacing:0px;fill:#000000;fill-opacity:1;stroke:none"><tspan
       x="89.453133"
       y="7297.9609"
       id="tspan2"></tspan></text>
  <path
     id="path4144"
     d="m 4845.2688,2328.1024 -20.7617,-3.5338 -28.2712,-14.1356 -80.8379,-49.4746 -33.1303,-6.6261 -73.3284,-3.5339 -64.4936,-2.2087 -48.1494,-15.4608 -49.9163,-27.8294 -81.7214,-57.4259 -52.125,-35.3389 -54.7754,-68.0276 -17.2278,-33.1303 -62.2849,-179.7871 -56.9841,-175.8114 -95.4153,-247.8146 -8.393,-33.1303 -7.0678,-28.7129 -17.2278,-31.8051 -18.9947,-18.9947 -68.911,-62.7267 -58.751,-94.5318 -43.2903,-49.0328 -43.2903,-77.3041 -30.9216,-34.01367 -81.7214,-72.0032 -100.7161,-125.4534 -45.4989,-33.572 -29.1547,-26.946 -47.2658,-54.7754 -41.0816,-28.2712 -41.0816,-7.9513 -77.7458,-9.7182 -31.805,-12.8104 -40.1981,-28.7129 -116.1769,-101.5996 -166.0933,-161.67579 -24.2955,-60.0763 -18.1112,-20.7617 -110.3892,-106.48854 -2.0475,-8.98606 2.117,-13.76198 21.6839,-26.347905"
     style="fill:none;fill-rule:evenodd;stroke:#008bcb;stroke-width:5;stroke-linecap:butt;stroke-linejoin:round;stroke-miterlimit:4;stroke-dasharray:none;stroke-opacity:1" />
</svg>
