<?xml version="1.0" encoding="UTF-8" standalone="no"?>
<!-- Created with Inkscape (http://www.inkscape.org/) -->

<svg
   xmlns:dc="http://purl.org/dc/elements/1.1/"
   xmlns:cc="http://creativecommons.org/ns#"
   xmlns:rdf="http://www.w3.org/1999/02/22-rdf-syntax-ns#"
   xmlns:svg="http://www.w3.org/2000/svg"
   xmlns="http://www.w3.org/2000/svg"
   xmlns:xlink="http://www.w3.org/1999/xlink"
   version="1.1"
   width="6988"
   height="8550"
   id="svg2">
  <metadata
     id="metadata8">
    <rdf:RDF>
      <cc:Work
         rdf:about="">
        <dc:format>image/svg+xml</dc:format>
        <dc:type
           rdf:resource="http://purl.org/dc/dcmitype/StillImage" />
        <dc:title></dc:title>
      </cc:Work>
    </rdf:RDF>
  </metadata>
  <defs
     id="defs6" />
  <image
     xlink:href="../streetmap/bjsosm.png"
     style="display:none"
     id="image10"
     height="8540.8887"
     width="6988"
     y="9.1113281"
     x="0" />
  <path
     d="m 5375,1509 -27,52 -20,61 -57,419 -28,241 -12,27 -35,42 -34,33 -80,62 -35,62 -59,151 -27,60 -27,26 -38,21 -341,23 -22,7 -20,19 -3,30 11,231 -5,68 -12,52 -26,39 -70,28 -101,5 -24,13 -53,58 -17,7 -170,2 -47,14"
     id="path2987"
     style="fill:none;stroke:#cf4818;stroke-width:5;stroke-linecap:butt;stroke-linejoin:round;stroke-miterlimit:4;stroke-opacity:1;stroke-dasharray:none" />
  <path
     d="m 2162,3692 81,-1 23,-5 24,-11 353,-12 113,2 154,1 150,-2 334,-8 218,-3 234,-2 46,9 58,36 66,61 98,87 2,16 -5,18 -35,48 -3,17 13,27 59,54 7,24 2,46 -2,119 -4,343 -1,215 -6,313"
     id="path3757"
     style="fill:none;stroke:#2aacbc;stroke-width:5;stroke-linecap:butt;stroke-linejoin:round;stroke-miterlimit:4;stroke-opacity:1;stroke-dasharray:none" />
  <path
     d="m 3349,3650 -21,-518"
     id="path3759"
     style="fill:none;stroke:#3cdb77;stroke-width:5;stroke-linecap:butt;stroke-linejoin:round;stroke-miterlimit:4;stroke-opacity:1;stroke-dasharray:none" />
  <path
     d="m 3569,2007 6,65 1,31 -6,31 -6,58 1,38 6,131 6,83 -5,29 -23,45 2,54 6,22 19,29 21,52 10,55 16,32 8,57 1,64 -4,38 -1,88 -18,105 5,63 15,96 -5,33 -4,71 1,80 11,355 11,224 -10,12 -18,5 -5,11 7,139 8,133 10,352 4,217 6,123 17,54 3,58 12,307 1,85 -1,84 7,29 18,20 18,5 40,0"
     id="path3761"
     style="fill:none;stroke:#ab00bc;stroke-width:5;stroke-linecap:butt;stroke-linejoin:round;stroke-miterlimit:4;stroke-opacity:1;stroke-dasharray:none" />
  <path
     d="m 1888,3104 3,43 4,31 19,41 26,30 19,11 31,5 49,18 111,49 32,16 143,-12 9,-9 18,-19 33,-4 20,1 13,11 4,45 8,84 7,166 8,44 54,173 9,42 15,173 9,91 7,54 4,33 18,16 21,7 84,10 53,-5 58,-3 40,-20 74,-11 164,1 26,13 16,27 4,76 14,438 3,231 1,198 10,24 29,39 13,16 7,53 -4,43 -15,26 -34,33 -35,54 -9,35 1,204 -5,58 3,109 -7,47 -45,86 -20,80 15,153 -10,27 -32,18 -208,-2 -44,-5 -20,3 -26,19 -97,76 -14,25 2,60 12,123 17,150 12,203 8,73 1,105 3,331 0,82 -7,15 -63,32 -56,16 -26,29 0,21 40,122 4,30 -16,37 -25,37 -7,48 -3,42 3,54 21,72 16,237"
     id="path3763"
     style="fill:none;stroke:#2eb3a2;stroke-width:5;stroke-linecap:butt;stroke-linejoin:round;stroke-miterlimit:4;stroke-opacity:1;stroke-dasharray:none" />
  <path
     d="m 3839,4708 3,29 -13,16 -18,7 -92,2 -20,11 -30,35 -21,12 -47,2 -153,7 -36,9 -43,-2 -38,-2 -366,15 -27,-6 -12,-13 -16,-24 -4,-54 -8,-508 1,-65 11,-17 54,-20 49,-19 63,-29 34,-8 266,1 407,-11 22,12 14,29 -2,72 12,420 5,34 7,87"
     id="path3765"
     style="fill:none;stroke:#276ad5;stroke-width:5;stroke-linecap:butt;stroke-linejoin:round;stroke-miterlimit:4;stroke-opacity:1;stroke-dasharray:none" />
  <path
     d="m 800,4430 72,93 32,41 4,25 -1,117 10,15 23,3 981,-1 1050,4 253,2 437,-18 244,-3 507,3 49,-10 80,-2 222,2 88,6 40,-7 44,-9 42,-4 106,5 219,1 126,-5 39,-6 47,-7 39,0 50,8 54,5 87,5 45,2 59,2 25,5 45,22 25,17 23,6 32,-7 27,-6 19,1 32,5 92,-1 23,5 18,12 19,39 60,118 20,15 121,44 79,33 24,22 203,216 28,14 40,14"
     id="path3767"
     style="fill:none;stroke:#980f00;stroke-width:5;stroke-linecap:butt;stroke-linejoin:round;stroke-miterlimit:4;stroke-opacity:1;stroke-dasharray:none" />
  <path
     d="m 2870,4203 -27,-83 8,-59 -55,-142 -10,-24 -8,-37 -8,-76 -9,-23 -43,-77 -7,-46 -22,-152 -3,-101 -6,-191 -7,-34 -111,-130 -15,-19 -25,-83 -57,-183 -14,-23 -36,-41 -27,-58 -42,-81 -84,-190 -8,-11 -11,-19 -8,-21 12,-42 39,-50 20,-12 23,-6 24,8 27,13 178,2 208,4 39,-6 46,0 39,7 131,0 48,7 48,25 457,252 469,260 25,6 27,15 21,36 2,32 -3,59 -16,67 -22,70 -68,273 -36,69 -45,96 -48,90 -83,168 -5,32 6,126 7,52 12,49 6,86 0,39 3,47 7,18"
     id="path3769"
     style="fill:none;stroke:#f3e161;stroke-width:5;stroke-linecap:butt;stroke-linejoin:round;stroke-miterlimit:4;stroke-opacity:1;stroke-dasharray:none" />
  <path
     d="m 2321,2508 -31,-79 -30,-65 -31,-61 -8,-45 -40,-90 -24,-38 -39,-63 -42,-131 0,-30 16,-25 21,-16 55,-22 37,-9 37,-5 24,1 56,-20 54,-10 17,-9 19,-20 4,-20 -2,-23 -39,-140 -14,-33 -36,-149 -11,-19 -11,-11 -17,-9 -25,-1 -44,0 -16,-8 -21,-21 -9,-19 0,-74 0,-39 -18,-117 -21,-48 -41,-45 -68,-198 -61,-189 -33,-167 -6,-104 4,-21 11,-9 15,-8 91,0 23,-1 11,-9 20,-33 4,-155"
     id="path3771"
     style="fill:none;stroke:#ca65e2;stroke-width:5;stroke-linecap:butt;stroke-linejoin:round;stroke-miterlimit:4;stroke-opacity:1;stroke-dasharray:none" />
  <path
     d="m 2152,6247 -93,45 -49,29 -40,22 -43,7 -151,23 -150,34 -115,12 -118,5 -114,30 -28,11 -24,28 -2,33 8,32 19,61 9,57 7,84 14,103 -4,26 -13,23 -20,13 -20,1 -232,1 -26,9 -24,26 -13,42 -38,103 -22,318 -4,64 -2,26 -15,17 -16,13 -33,5 -633,-1"
     id="path3773"
     style="fill:none;stroke:#d94110;stroke-width:5;stroke-linecap:butt;stroke-linejoin:round;stroke-miterlimit:4;stroke-opacity:1;stroke-dasharray:none" />
  <path
     d="m 3753,5676 0,107 8,20 21,12 112,39 110,-1 54,4 39,15 22,35 10,37 6,99 7,71 -1,76 -8,40 1,26 13,41 20,23 58,26 29,5 37,-1 80,-28 57,-26 77,-41 35,-11 41,2 32,12 30,25 258,419 63,103 20,11 27,1 25,-14 44,-25 339,-214 62,-39 77,-82 196,-214 57,-66"
     id="path3775"
     style="fill:none;stroke:#ed00c5;stroke-width:5;stroke-linecap:butt;stroke-linejoin:round;stroke-miterlimit:4;stroke-opacity:1;stroke-dasharray:none" />
  <text
     x="89.453178"
     y="206.96085"
     id="text3777"
     xml:space="preserve"
     style="font-size:143.99993896px;font-style:normal;font-weight:normal;line-height:125%;letter-spacing:0px;word-spacing:0px;fill:#000000;fill-opacity:1;stroke:none;font-family:Sans;-inkscape-font-specification:Sans"><tspan
       x="89.453178"
       y="206.96085"
       id="tspan1">2010</tspan></text>
  <text
     x="89.453125"
     y="8447.9609"
     id="text3781"
     xml:space="preserve"
     style="font-size:144px;font-style:normal;font-weight:normal;line-height:125%;letter-spacing:0px;word-spacing:0px;fill:#000000;fill-opacity:1;stroke:none;font-family:Sans;-inkscape-font-specification:Sans"><tspan
       x="89.453125"
       y="8447.9609"
       id="tspan2">2010</tspan></text>
</svg>
