<?xml version="1.0" encoding="UTF-8" standalone="no"?>
<svg
   xmlns:dc="http://purl.org/dc/elements/1.1/"
   xmlns:cc="http://creativecommons.org/ns#"
   xmlns:rdf="http://www.w3.org/1999/02/22-rdf-syntax-ns#"
   xmlns:svg="http://www.w3.org/2000/svg"
   xmlns="http://www.w3.org/2000/svg"
   xmlns:xlink="http://www.w3.org/1999/xlink"
   viewBox="0 0 2500 1900"
   height="1900"
   width="2500"
   id="svg2"
   version="1.1">
  <metadata
     id="metadata8">
    <rdf:RDF>
      <cc:Work
         rdf:about="">
        <dc:format>image/svg+xml</dc:format>
        <dc:type
           rdf:resource="http://purl.org/dc/dcmitype/StillImage" />
        <dc:title></dc:title>
      </cc:Work>
    </rdf:RDF>
  </metadata>
  <defs
     id="defs6" />
  <image
     style="display:none"
     y="-53"
     x="100"
     id="image10"
     xlink:href="file:///home/alexander/timelines/timelines/streetmap/../streetmap/hrkosm.png"
     preserveAspectRatio="none"
     height="1953"
     width="2387" />
  <path
     id="path4510"
     d="m 247.5,1201 139.5,-74.5 46,-22.5 30,-9.5 36.5,-5.5 22,-9.5 26,-16 35.5,-8 78.5,-21 33.5,-4.5 21.89433,3.3748 13.85567,12.3752 25.75,49.75 13.5,22 34,49 10.5,28 13.5,15.5 67,44 18.5,5.5 H 932 l 28,-11.5 29.5,-2.5 27,3 13.5,2.5 73,23.5 38.5,5.5 143,38.5 45,5.5 61,15 34,18 188.5,93.5 45.5,14 240.5,74.5 82.5,20.5 40,18.5 85,42.5 78,33 118,62 85.5,41.5"
     style="fill:none;fill-rule:evenodd;stroke:#ff0000;stroke-width:5;stroke-linecap:butt;stroke-linejoin:round;stroke-miterlimit:4;stroke-dasharray:none;stroke-opacity:1" />
  <path
     id="path4512"
     d="M 778.82251,464.57323 890.89893,620.49028"
     style="fill:none;fill-rule:evenodd;stroke:#000000;stroke-width:5;stroke-linecap:butt;stroke-linejoin:round;stroke-miterlimit:4;stroke-dasharray:none;stroke-opacity:1" />
  <text
     style="font-style:normal;font-weight:normal;font-size:144px;font-family:Sans;-inkscape-font-specification:Sans;fill:#000000;fill-opacity:1;stroke:none"
     xml:space="preserve"
     id="text2828"
     y="1797.9609"
     x="89.453125"><tspan
       id="tspan2"
       y="1797.9609"
       x="89.453125">1980</tspan></text>
  <text
     style="font-style:normal;font-weight:normal;font-size:143.99990845px;font-family:Sans;-inkscape-font-specification:Sans;fill:#000000;fill-opacity:1;stroke:none"
     xml:space="preserve"
     id="text2828-6"
     y="206.96094"
     x="89.453133"><tspan
       id="tspan1"
       y="206.96094"
       x="89.453133">1980</tspan></text>
</svg>
