<svg xmlns="http://www.w3.org/2000/svg" height="2100" width="1350"><path d="M516.44 306.95l40 15.931 12.374 14.068 7.288 9.83 2.203 7.797-1.186 4.577-3.051 2.711-5.763 2.204-3.22 6.101L560 382.881l-1.525 10.848 2.88 19.491M711.356 1282.542l3.39 22.373-1.017 8.983-10.34 58.644-8.474 44.068.17 13.56 4.576 77.796 2.881 20.509 13.22 45.254 16.441 52.542 2.373 1.526 2.712-1.017M732.203 1626.271l-.847 2.797-2.712 1.101" fill="none" stroke="#dc003c" stroke-width="5" stroke-linejoin="round"/><path d="M737.288 1626.78l22.881-8.136 10.34-7.458 9.322-12.372 4.067-2.373 31.356 22.203 3.051 6.44M728.644 1630.17l-15.593 6.44-11.526 7.627L690 1655.085l-10.508 12.373-4.407 10.847 2.203 19.153-2.034 8.474-4.068 7.119-7.288 5.593-28.474 13.898-6.61 6.441-4.746 8.644-.678 11.695 5.932 80.848 2.373 7.118 13.39 15.593 4.068 6.441 9.66 37.458 1.187 8.305 5.424 8.644v12.034l12.203 41.695-1.525 18.135M711.356 1282.542l-16.44-95.254 2.203-7.288-3.899-16.271-2.373-11.865-5.084-5.762-8.305-8.136-1.865-7.457 2.373-17.12 6.78-25.762-.17-12.881-4.237-20.678-12.203-24.237-.848-8.983-11.864-29.662-.34-7.288 2.543-9.322 10.678-24.237.34-6.95-2.035-11.016-4.746-4.407-4.576-1.017-7.288.848-3.05-.509-3.9-3.56-29.321-87.796-5.254-13.729-.678-7.457 1.356-11.356 4.915-26.78 1.695-18.983-5.424-116.61-3.729-13.729-23.39-163.729-1.525-3.22-10.509-.847-2.033-1.526-7.797-44.746" fill="none" stroke="#dc003c" stroke-linejoin="round"/><path d="M711.356 1282.542l2.373-1.017 22.881-5.254 30.17-8.135 13.22.847 7.119-2.542 6.61-5.933 6.44-7.627.17-5.254-9.83-12.881-17.458-15.763-38.305-44.407-8.305-4.915-10.848-1.356-11.017 1.864-6.101 1.526-3.73-1.695M614.068 730l3.39-3.729 78.135-12.034 94.238 17.119h12.372l34.746 5.593" fill="none" stroke="#dc003c" stroke-linejoin="round"/><text style="line-height:125%;-inkscape-font-specification:Sans" y="206.96094" x="89.453133" font-weight="400" font-size="143.99993896px" font-family="Sans" letter-spacing="0" word-spacing="0"><tspan y="206.96094" x="89.453133">2010</tspan></text><path d="M516.44 306.95l-8.813-5.594-6.78-7.458-1.694-12.034 7.627-22.033 4.576-5.085 9.322-5.763 4.068-8.136v-11.355l-1.695-25.763-3.729-46.61-3.22-16.441-.509-19.322" fill="none" stroke="#dc003c" stroke-linejoin="round"/></svg>