<svg xmlns="http://www.w3.org/2000/svg" height="2850" width="2300"><path d="M114 336.5l44-6.5 31.5 7 26-5 100-36 23 1 15 9.5 8.5 14 10 48.5 8.5 20.5 15.5 14 65.5 28.5 62.5 15.5 26-2.5 52-8.5 24 3.5 67.5 14 70 5 80.5 3.5 183.5.5 31.5-6.5 33-8 27.5-1 150 12.5 27 10 16.5 22.5 5.5 18.5-2 31.5-26 224.5 2.5 19 24 46.5 17.5 16 19.5 6 31.5 1.5 158.5-2.5 27.5 4.5 62.5 11.5 33.5 3 33.5-4.5 21.5-11 16.5-31 96.5-192.5L1863 601l24-14.5 26.5-5.5 18.5 3.5 66 38 8.5 10.5 10.5 40.5 7.5 65V796l-15.5 77.5-15.5 35-35 58.5-22 40.5-12.5 33.5-.5 40 6.5 58.5 12 29.5 51.5 69 13 20 14.5 46.5 25.5 63.5 12.5 26.5 6.5 19-4.5 24-2.5 65.5-23 82.5-16 117.5-8.5 27-14.5 30.5-36 68.5-23.5 40.5v16l19.5 38 27.5 18 71.5 22.5 12 11.5 25 52.5 6.5 22.5 2 27-12 62-9.5 38.5 1.5 38.5-8.5 53.5v172.5l-29.5 91 4 43 2.5 36.5-6.5 42.5v22l1.5 16 12.5 46" fill="none" stroke="#7cc23d" stroke-width="5" stroke-linejoin="round"/><text style="-inkscape-font-specification:Sans" y="206.96088" x="89.453171" font-weight="400" font-size="143.99993896px" font-family="Sans"><tspan y="206.96088" x="89.453171">2020</tspan></text></svg>