<?xml version="1.0" encoding="UTF-8" standalone="no"?>
<svg
   viewBox="0 0 2300 2850"
   height="2850"
   width="2300"
   id="svg2"
   version="1.1"
   xml:space="preserve"
   xmlns:xlink="http://www.w3.org/1999/xlink"
   xmlns="http://www.w3.org/2000/svg"
   xmlns:svg="http://www.w3.org/2000/svg"
   xmlns:rdf="http://www.w3.org/1999/02/22-rdf-syntax-ns#"
   xmlns:cc="http://creativecommons.org/ns#"
   xmlns:dc="http://purl.org/dc/elements/1.1/"><metadata
     id="metadata8"><rdf:RDF><cc:Work
         rdf:about=""><dc:format>image/svg+xml</dc:format><dc:type
           rdf:resource="http://purl.org/dc/dcmitype/StillImage" /></cc:Work></rdf:RDF></metadata><defs
     id="defs6" /><image
     style="display:none"
     y="-723.83"
     x="-1357.33"
     id="image10"
     xlink:href="../basemap/kweosm.png"
     preserveAspectRatio="none"
     height="5433"
     width="5131.16" /><path
     id="path836"
     d="m 114,336.5 44,-6.5 31.5,7 26,-5 100,-36 23,1 15,9.5 8.5,14 10,48.5 8.5,20.5 15.5,14 65.5,28.5 62.5,15.5 26,-2.5 52,-8.5 24,3.5 67.5,14 70,5 80.5,3.5 183.5,0.5 31.5,-6.5 33,-8 27.5,-1 150,12.5 27,10 16.5,22.5 5.5,18.5 -2,31.5 -26,224.5 2.5,19 24,46.5 17.5,16 19.5,6 31.5,1.5 158.5,-2.5 27.5,4.5 62.5,11.5 33.5,3 33.5,-4.5 21.5,-11 16.5,-31 96.5,-192.5 22.06,-34.05 22.06,-16.05 21.84,-5.11 30.54,6.22 66,38 8.5,10.5 10.5,40.5 7.5,65 v 57.5 l -15.5,73.61 -18.22,38.89 -33.83,53.45 -20.83,39.72 -14.44,40.1 0.67,43.11 7.67,54.62 12,29.5 51.5,69 13,20 14.5,46.5 25.5,63.5 12.5,26.5 6.5,19 -4.5,24 -2.5,65.5 -23,82.5 -16,117.5 -8.5,27 -14.5,30.5 -30.56,62.28 -21.56,48.66 -3.89,17.52 4.66,13.63 17.95,22.07 20.9,16.83 71.5,22.5 12,11.5 25,52.5 6.5,22.5 2,27 -12,62 -9.5,38.5 1.5,38.5 -8.5,53.5 v 172.5 l -29.5,91 4,43 2.5,36.5 -6.5,42.5 v 22 l 1.5,16 12.5,46"
     style="opacity:1;fill:none;fill-opacity:1;fill-rule:nonzero;stroke:#399d33;stroke-width:5;stroke-linecap:butt;stroke-linejoin:round;stroke-miterlimit:4;stroke-dasharray:none;stroke-opacity:1" /><text
     style="font-style:normal;font-weight:normal;font-size:144px;font-family:Sans;-inkscape-font-specification:Sans;fill:#000000;fill-opacity:1;stroke:none"
     xml:space="preserve"
     id="text2847"
     y="206.96"
     x="89.45"><tspan
       id="tspan1"
       y="206.96"
       x="89.45">2020</tspan></text><text
     x="89.45"
     y="4597.96"
     id="text3019-6"
     xml:space="preserve"
     style="font-style:normal;font-weight:normal;font-size:144px;line-height:125%;font-family:Sans;-inkscape-font-specification:Sans;letter-spacing:0px;word-spacing:0px;fill:#000000;fill-opacity:1;stroke:none"><tspan
       x="89.45"
       y="4597.96"
       id="tspan2"></tspan></text></svg>
