<svg viewBox="0 -250 5900 4150" height="4150" width="5900" xmlns="http://www.w3.org/2000/svg"><path d="M4361 2176.572l20 59 2.5 7.5-2 5-15 8" fill="none" stroke="#ef404a" stroke-width="5" stroke-linejoin="round"/><path d="M2617.5 2306.072l48.5-55 30.5-34 7-14 13.5-14 15.5-5.5 115-34 76.5-20 74.5-19 43-8 13.5.5 36 14.5 32.5 17.5 18 5 17-1.5 12-9 14.5-15 150.5-46.5 151.5-49 77.5-21.5 66-18.5 73.5-19.5 38-9 106.5-33 212-65 24.5-6.5 51.5-15 70.5-21.5 37.5-12 20-6 35-1 95.5-23.5 30-.5 21.5-.5 11-3.5 6.5-6 20-18 25.5-10 61.5-17 32-21 92-25 127-35 83.5-25 237-71 101.5-32 14-5 30.5-22 60.5-46.5 70.5-37 19-14.5 11-20 6-30 20-168.5 5-47 10.5-31 21-52 13-50 16-24.5 23-31 35-52 28.5-18.5 22-10.5" fill="none" stroke="#2b720a" stroke-width="5" stroke-linejoin="round"/><path d="M3950.995 80.076l27.505 140.995 27 161 12.5 78.5 26 123.5 28.5 199 32.5 178.5 10 72.5 30 202.5 2.5 48 1.5 56.5 2.5 21 13.5 25.5 6 38.5 26 93.5 13.5 24 12 39.5 21.5 74 14.5 54 9 21 11 19.5 7 27 1.5 13.5 4 23 13.5 48.5 6.5 24.5 6 50.5 59.5 193 2.5 17-3 10-5.5 10-5.5 4.5-8 3-31.5 7-11.5-2-6.5-7-34-84.5-38-130-1.5-20 2.5-9-5-22-11-25.5-14-20.5-7.5-22.5-3-9.5-9.5-8.5-14-2.5-12-.5-66 19h-8.5l-6.5-5.5-34.5-121.5-25.5-87-9-10-28.5-14.5-11.5-3-13-11-13-42-5.5-17.5-13-16.5-15.5-13-15.5-5.5-19-3-19.5-5-42-5.5-9-5-25.5-23.5-35.5-38.5-11-33.5-17-64-12.5-40-7-23-19-37-20-44.5-18.5-65.5-42-150.5-6-29-5-32-6.5-44.5-8-35-9.5-33-81-105-29.5-43-14-35.5-4-18.5-9.742-29.865-8.938-11.67-55.366-20.358-25.573-6.207-38.234-1.49-81.436 23.09-22.097-2.235-24.58-6.951-18.62-14.4-11.917-26.566-42.953-235.865-9.434-15.393-18.621-10.925-238.596-90.621-18.869-9.931-19.366-12.91-19.862-22.594-15.89-38.98-22.841-66.042-9.683-34.51-15.145-71.505" fill="none" stroke="#fdb827" stroke-width="5" stroke-linejoin="round"/><path d="M4002.5 395.572l267.5-84.5 166.5-48.5 74.5-14.5 24.5-3.5 195-63.5" fill="none" stroke="#b11576" stroke-width="5" stroke-linejoin="round"/><path d="M5638 842.072l11.5-5 3-6-12-37-32-98.5-36.5-123-1.5-21.5-23-86.5-48-171v-7.5l2.5-9 6-5.5 11.5-4.5 76.5-22 24-14 23-6 63.5-29 25-6.5 26.5-3 23 2" fill="none" stroke="#0a6797" stroke-width="5" stroke-linejoin="round"/><path d="M4382 2247.072l-32.5 18.5-73 16-56.5 18-1.5-2.5-39.5-133-55.5-191.5 2.5-3.5 2.25-3-.25-6.5-2.5-4.5-3.75-2-3.53-1.862-2.72-2.639-22.5-78.5-9.5-24.5" fill="none" stroke="#ef404a" stroke-width="1px" stroke-linejoin="round"/><path d="M4123 1972.572l-3.5-2-3.77-1.404-3.23-2.596-1-5.5 2-6 2.5-3.5-.5-3.5M4221 2299.072l-17.5 5.5-19 2.5-21 9-13.5 11.5-4.5 1-11.5-7-3-5-18 8.5-28.5 2-27-6H4028l-14.5 1.5-16-7-5.25-4-8.772-.569-53.478 19.568h-5.5l-.5-2.5 3-4 49.5-17 15.75 4.25" fill="none" stroke="#ef404a" stroke-width="1px" stroke-linejoin="round"/><text style="-inkscape-font-specification:Sans" y="-43.03894" x="89.453064" font-weight="400" font-size="143.99993896px" font-family="Sans"><tspan y="-43.03894" x="89.453064">2020</tspan></text><path d="M3927.284 1599.507l75.502-20.134" fill="none" stroke="#ef404a" stroke-width="5" stroke-linejoin="round"/><path d="M4000.956 1579.83l218.271-62.69 3.203 2.746 1.373 5.033-1.373 2.288-12.355 3.203-2.745-.915-2.288-5.949-1.83-1.372M3928.657 1599.049l-594.412 178.003" fill="none" stroke="#ef404a" stroke-width="1px" stroke-linejoin="round"/><path d="M1443.292 2893.212l-7.111-5.735-5.047-8.946-.688-7.8.917-9.176 8.488-16.746 25.004-35.786 30.969-39.686 34.41-44.273 23.628-27.528 6.423-10.323 4.129-10.552 3.67-21.334 3.9-10.323 15.828-23.628 69.278-93.824 10.553-11.47 12.846-17.434 29.363-43.815 15.37-18.122 47.485-52.532 34.821-39.687 20.547-10.921 2.235-7.945.248-9.435-5.959-8.69-20.11-13.903-39.228-34.015-13.904-14.151-.248-3.476.745-14.649 5.214-6.207 33.639-40.953 9.48-8.953 20.014-25.632 7.198-13.694 35.463-41.08 47.576-59.34 11.412-17.907 102.175-129.914 9.13-17.907 11.762-31.074 7.549-9.831 5.618-3.687" fill="none" stroke="#006893" stroke-width="5" stroke-linejoin="round"/><path d="M2058.084 1821.128l15.822-9.297 51.844-16.516 21.563.459 42.44-10.323 5.734 4.588 4.359 11.01-1.247 22.671-1.622 21.087 16.87 61.64 27.9 91.81 31.144 75.589 43.147 130.74 26.927 101.867.649 22.06 3.568 24.332 8.76 32.442 12.976 29.522-5.515 15.247-2.27 8.11.648 5.84 4.217 2.595 128.794-44.77 40.228-27.9 23.358-29.845 12.24-19.312 3.14-.492 4.017 3.48 3.586 11.506 4.552.305 10.605-12.052" fill="none" stroke="#006893" stroke-linejoin="round"/><path d="M2447.366 2418.13l-43.127 8.487-9.864-1.835-4.817-7.111-17.435-41.98-9.405-50.009-65.378-218.386-30.51-77.996-14.223-40.144-47.256-154.614-.23-27.299 4.589-37.162 3.211-4.358 6.653-.689 3.9 5.735-1.836 5.735-31.886 8.947M1443.292 2893.212v0l1.037 3.356-25.791 19.303-8.922 12.328-10.381 16.87-34.226 42.66h-3.569l-18.167-14.274-4.056 1.136-78.346 100.894-5.516 10.056-2.27 22.548-6.164 9.57-7.624 6.002-7.462 2.92-13.3 3.081-6.24 3.91-12.1 8.031L1178.63 3172l-47.527 58.72-91.093 147.21-19.958 28.905-28.904 34.639-15.14 13.993-105.064 92.677-15.829 22.71-2.753 10.552 1.606 9.176-1.606 2.524-4.358 1.147-37.544-24.742-3.04.129M142.377 3134.08l-2.523-8.717-16.746-16.287h-4.588l-28.675 30.739-.23 5.505 448.015 450.996 64.042 64.677 66.322 67.407.124 4.593-10.621 10.972-19.333 23.417.873 3.51" fill="none" stroke="#006893" stroke-linejoin="round"/><path d="M870.945 3548.143l-18.811 5.276-14.91.918-14.912.458-7.111 4.13-4.588 5.964-7.951 12.09-9.784 9.902.993 4.345M1200.194 3141.604l41.916-60.974v-7.111l-3.097-2.868-4.588-1.49-3.555.114-3.327 2.409-1.376 3.785-.115 4.702 2.409 7.226 20.072 20.876 4.552-.184" fill="none" stroke="#006893" stroke-linejoin="round"/><path d="M792.63 3590.109l8.69 6.951.372 3.228-153.074 178.403-9.581-7.8" fill="none" stroke="#006893" stroke-width="5" stroke-linejoin="round"/><path d="M1733.25 1497.786l-50.467 15.14-8.488 7.34-4.358 9.177.23 8.717 3.44 8.488 9.176 9.864 12.617 5.047 22.94-.23 4.817 2.524 44.733 50.467" fill="none" stroke="#f26421" stroke-width="5" stroke-linejoin="round"/></svg>