<svg xmlns="http://www.w3.org/2000/svg" viewBox="-750, -4000, 8750, 12500" width="8750" height="12500"><path d="M2921.702 2617.724L2914.5 2624l-50.5 54.5-12.5 9.5-20 3-23-14-11.5-8.5-12-1.5-30 13-19 3-12.5 1-35-5-34.5 1.5-17 .5-10-3.5-11-5-22.5-33.5-10-8" fill="none" stroke="#00853e" stroke-width="5" stroke-linejoin="round"/><path d="M3735.546 2276.899l5.508 45.851 4.946 20 1.5 34.5-2 33.25-.75 11.75L3753 2458l9.5 34 10 24.5 2.5 23 12.5 26.5 7 22.5-1 29-6 26.5-.5 25.5 22.5 64.5 8.5 26.5 1 53 4 54.5-5.5 39-12.5 25.5-29.5 35-12 29.5-6.5 29.5" fill="none" stroke="#e0a0d0" stroke-width="5" stroke-linejoin="round"/><path d="M2642 2457.5l10.5 4 30-11 39.5-15 43.5-15.5 26-9 25.5-10 19.5-1.5 49.5-15.5 22.5-7 33.5-2.5 46-7.5 60.5-11.5 44-9 135-21 52.5-8.5 54.5-7 62.5-11 62-11 53.5-10.5 30.5-7 35.5-9.5 24 2 25.5-4.5 25.5-3 15.5.5 50.5 9.5 46.5 22.5 39 18 18.5 8 59 14.5 7.5-2" fill="none" stroke="#ee2e24" stroke-width="5" stroke-linejoin="round"/><path d="M3664 2493l-10-12-6.069-8.207-.604-8.224 3.845-8 25.914-15.5 15.5-10.914 1.759-8.896 5.69-13.38L3711.5 2394l12-15 6.5-13.5 5-15.5 10-6.5 13.293 1.483 18.707-.173 30.828 1.931 27.655-4.069L3873 2328.5" fill="none" stroke="#88cebb" stroke-width="5" stroke-linejoin="round"/><path d="M3896.115 2245.752L3891.5 2261l-10 44.5 1 9 18.5 38 5.063 13.526-4.812 21.871 5.37 17.137-6.19 25.19-12.638 12.568-24.551 29.863-20.018 41.845-34.586 29.051-22.12 32.449-9.855 20.274L3773.5 2609l-1.396 27.775-30.448 41.81L3707 2737l-46.236 73.736-69.672 101.509-33.921 51.706-17.663 28.96-23.022 25.743-22.134 47.897-23.292 20.011-52.548 30.256-9.407 9.97" fill="none" stroke="#231f20" stroke-width="5" stroke-linejoin="round"/><path d="M3398.5 1755.5l13 11 27.5 30.5 28 43.5 10.5 26.5 4.5 25 16 43 1.5 24 1 31 7.017 30.483 15.17 37.545 12.649 11.102 33.841-1.591 14.678-.55 18.97 11.313 76.332 75.54 10.814 18.591 17.885 15.764 9.692 19.592 13.678 20.834 11.728 7.657 13.642-.414" fill="none" stroke="#e0a0d0" stroke-width="5" stroke-linejoin="round"/><path d="M3147.741 2215.36l-28.284 17.677-17.678 21.92-45.961 42.427-31.82 28.284-37.477 13.435-45.962 4.95-27.577 3.535-28.284 4.95-17.678 11.314-7.071 23.334 1.414 21.214 13.435 53.74 7.778 32.527 12.728 32.527 14.85 17.677 16.97 16.264 6.364 8.485 5.657 19.092 10.606 14.142 22.628 11.314 19.092 3.535 37.477 2.829 26.87-.707 46.669 2.12 36.77 3.536 50.204 4.243 21.92 7.071 33.234 16.264 31.113 3.535 24.041-6.364 15.557-12.02 16.97-35.356 19.092-13.435 28.284-4.95 26.87-13.435 15.557-8.485 12.02-11.314 28.992-14.142 31.113.707 8.485-1.414 19.092-12.728 23.334-14.85 4.95-7.07 6.364-36.77 9.193-32.527 18.384-36.062 16.97-16.97 41.72-16.971 18.385-2.122 39.598-.707 35.355.707 13.435-4.242 19.092-3.486 36.355 3.036 32.527-3.45 36.477 3.9 30.406 8.485 10.728 1.634 18.556-.269 28.674 13.314 10.631 3.364 13.138.277 5.213-2.248 12.104.313 4.9-4.364 6.364-11.314-6.364-48.79-12.02-9.9-32.527-29.698-31.82-12.728-58.69-21.213-62.225-21.92-19.8.706-22.627 4.95-14.849 4.95-9.9-.707-9.899-7.071-8.485-13.435-13.435-24.042-19.092-19.092-10.607-16.97-24.041-24.042-28.285-28.991-24.041-23.335-21.214-12.02-16.263 1.378-41.012 19.127-82.732 50.205-16.263 9.9-57.983 22.627-25.456-.707-42.426 12.728-28.991 2.12-63.64 17.679-65.054 18.384" fill="none" stroke="#ffd204" stroke-width="5" stroke-linejoin="round"/><path d="M2581.556 2623.517l-13.642-118.95-.707-37.478 5.657-48.79 13.435-31.82 11.313-12.02 21.92-16.264 19.8-16.264 38.183-45.254 28.285-26.87 22.627-9.193 20.506-8.485 12.021-7.778 22.628-28.284 13.435-4.95 16.263-1.414 28.284 12.728 16.264 5.656 38.89 4.95 37.477 6.364 26.87 2.121 23.335.707 23.334 4.243 19.092.707 21.213 15.556 26.87-2.828 13.435-4.242 13.021-7.279 12.435-16.763 31.82-21.335 70.71-20.384 61.52-15.764 23.127-1.914 44.583-12.764 23.627.829L3422 2140l42.5-24 25-15.5 37.996-23.616L3568 2059l20-.5 21.5 12 46.5 46.5 31 31 10 16.5 18.5 18 21.5 37.5 8 6 8.5.5 35-9 22-1.5 66.5 23 89 33.5 12.5 11" fill="none" stroke="#f386a1" stroke-width="5" stroke-linejoin="round"/><path d="M3236.257 2180.136l-10.507-10.886-41-38.75-34.5-25.25-25.215-26.854-36.449-49.63-16.886-22.264-16.702-20.758-5-10.038-1.135-15.593 9.087-67.431 1.635-22.517-2.878-9.091L3049 1849.5l-18.598-15.963L3017 1820l-11.5-8-18.5-6.5-36.5 6.5-28.5.5-62 10.5-97-10-35-5.5-116-29.5" fill="none" stroke="#98005d" stroke-width="5" stroke-linejoin="round"/><path d="M2974 2609l19.49 4.574 34.01 2.426 43-1 30.5 2.5 38 4 53 4 24.5 8 30 15.5 27.5 3.5 24-7.5 14-8.5 15.5-35.5 20-14.5 28-6 43-21 13.5-12.5 30-14.5 33 .5 7.042-1.791L3539 2507.5l7-7 7-41.5 8-29 17.5-34.5 18.5-19 43.5-18 18.5-3 59.5.5 17.5-1 10.5-3 11.5-2 16.5-.5 32.5 2 30.5-4 35.3 4.553 31.2 7.447" fill="none" stroke="#00853e" stroke-width="5" stroke-linejoin="round"/><path d="M3902.5 2359.5l11.822 1.87 19.946-.468 30.373 13.902 8.854 2.73 10.635.66 7.003-2.478 10.717.553 2.65-2.769 4.915-8.867L4006 2334l9-13 17.5-7 16-14 26.5-18 28-17 25.5-13 13.5-12.5 24-8" fill="none" stroke="#00853e" stroke-width="5" stroke-linejoin="round"/><path d="M4319.586 2783.55L4316.5 2767l2-14-3-21-14-23-8.5-32-3.5-19-21-55.5-9-41-13.5-30.5-30-42.5-15.5-24.5-7-42.5-3.5-46.5v-47.5l1.5-32-3.5-28.5-11.5-23-21-10.5" fill="none" stroke="#f386a1" stroke-width="5" stroke-linejoin="round"/><path d="M2862 2681l-6 18.5 1.5 20 8.5 12.5 12 10.5 18 29 6 17-3 10.5-23 25-15.5 22-4 20-11.5 19.5-66 50.5-10.5 14.5-4 17-3.5 13.5-15.5 12-7.5 12.5-2 24-3.5 20.5-9.5 27.5 2 26.5-3 17-2.5 17-2.5 26.5-10.5 18-6 12.5.5 17 5.5 15 13.5 14 9.5 18 17 32.5 6.5 33 7 50.5 4 51 12 39 24 40 21 27 18 28 4 22.5-2 30.5-9 25-25.5 56-45 47.5M2917.5 2619l20-10 37.007.389" fill="none" stroke="#00853e" stroke-width="5" stroke-linejoin="round"/><path d="M4320.5 2783l13 12.5 27 10.5 25 5 12 9 8.5 16 1 19 11 27M3977 2282.5l22 19.5 22 3.5 14.5-3 10-6 22.5-16 45.5-26.5 12-5.5 11-10.5 9.463-4.85 14.537 2.35" fill="none" stroke="#f386a1" stroke-width="5" stroke-linejoin="round"/><path d="M2811 2679l-16-31-14.5-24-27.5-21.5-27-35.5-29.5-43.5-26.385-43.923-17.615-33.077" fill="none" stroke="#00853e" stroke-width="5" stroke-linejoin="round"/><text x="-660.5469" y="-3793.0391" style="line-height:125%;-inkscape-font-specification:Sans" font-size="143.99993896px" font-weight="400" letter-spacing="0" word-spacing="0" font-family="Sans"><tspan x="-660.5469" y="-3793.0391">1900</tspan></text><text x="-660.5469" y="8397.9609" style="line-height:125%;-inkscape-font-specification:Sans" font-size="143.99993896px" font-weight="400" letter-spacing="0" word-spacing="0" font-family="Sans"/><path d="M3984.5 1789l11 4 9 8 9.5 12.5 4 11.5-.5 27-1 25-2.5 31-2.5 43.5 1.5 95.5-3 17.5-6.5 15-15 18.5-5.5 18-1 44 .162 18.668L3974 2196l-24.5 30-9 30.5M4018 1828.5l6.034-10.271 14.512-11.387 14.955-5.342 13.414-2.427L4191 1809l23.5-1 31.5-4 70 4.5 52.5 3 27 3.5 31 15.5 25.5 25 15 21.5 8.5 20.5 7 30.5 4 40 8.5 33.5 12.5 31.5 9.75 22.75 5.25 17.75 8 19.25 46.898 115.808 12.602 31.942 6.5 31 1.5 12" fill="none" stroke="#f58026" stroke-width="5.00000095" stroke-linejoin="round"/><path d="M3885 2444.5l15 .5 21 9 22.5 24.5 36 31 90.5 77 68 49.5 91.5 64.5 94 62 38 22.5" fill="none" stroke="#176fc1" stroke-width="5.00000095" stroke-linejoin="round"/><path d="M4357.25 2782l16 15.5 13.25 21.25 27.25 65.25" fill="none" stroke="#176fc1" stroke-width="5.00000095" stroke-linejoin="round"/><path d="M3981.5 2354l44.5 13.486 15.5-.486 20-1.5 54.5-4.5 29-1 19-5.5 34-2 71.5-3.5 77-4.5 25.5-.5 23 3 42 15 29 15.5 22.5 15.5 21.001 10 11.5 2.5 15-2 13 4.5 32.5 7 10 2.5 31-1.5 17-.5 39.5-8.5 36 1.5 26-8.5" fill="none" stroke="#02b1b0" stroke-width="5.00000095" stroke-linejoin="round"/><path d="M4621.501 2415.5l11.105 8.228.151 14.963-16.945 25.041-12.311 77.268-.5 20-6 36.5-1.5 40-4.5 27.5 2.5 10.5 7 10 23.5 21 11.03 10.797" fill="none" stroke="#02b1b0" stroke-width="5.00000095" stroke-linejoin="round"/><path d="M4175 2661.25l29 37.75 14.5 27 6.5 17.5 4.5 29 2.5 29.5-6 35.5-27 66.5-17.5 42-15 20-24.5 17-15.75 3.5-31.25 3.75-19.25 5.5L4053 3007l-21.5 4.75-21 4.25" fill="none" stroke="#176fc1" stroke-width="5.00000048" stroke-linejoin="round"/><path d="M4025.25 3013l-24.75.5-32-9.25-29.25-.25-26.5 7.75-54.312 25.349-38.188 20.401-25 10-51.5 9-20.25 7.25-39.25 11.75-31.25 3.25-31.5-13-6-1.5H3591l-31.75 5.75-23 2.25-23-4.5-32.25-23.25-23.75-20.25-23.25-24.75-32-44.25-31.5-21.75-19.25-22-21.75-35-2.75-19.25" fill="none" stroke="#176fc1" stroke-width="5.00000048" stroke-linejoin="round"/><path d="M2405.5 2042l12.5-9.5 27-4.5 62.5-1 51.5-4 37-4.5 45-20.5 32.5-28.5 58-69 19.5-26.5 37.5-29 36-19.5 37-11 44-11 52.5-26.5 34.5-23.5 65-27.5 85-38.5 37-14 65.5-7 30 7 26.5 17.5 16.5 24 8 29-.5 32 6 32 3.5 29 7 30 17.5 15.5 23.5 3.5 21.5 1 48.5 11.5 69 3 22-2.5 58-22 130.5-50.5 96-33.5 27.5-9 35.5-5 33 1.5 38.393 5.208 23.432 3.807" fill="none" stroke="#f58026" stroke-width="5.00000048" stroke-linejoin="round"/><path d="M4341.5 2346.5l21.5-13.5 132.5-142.5 17.5-19 16.5-9 27-.5 38 .5 23-3 19-3.5 30-8 73.5-29 10-3.5h6.5l12.5 7.5 6.5 7.5 2.5 22-2 44.5 1.5 35.5 8 35.5 32 57.5 12 36 13.5 20 26.5 14 19.5-.5 48.5-9.5 51-2" fill="none" stroke="#02b1b0" stroke-width="5" stroke-linejoin="round"/><path d="M3386.753 1885.99l-34.129 1.263-20.224 2.95-13.483-2.528-29.915-13.483-42.556-6.742" fill="none" stroke="#f58026" stroke-width="5" stroke-linejoin="round"/><path d="M4361.5 2785l109.5 65.5 25 10.5 46.5 6.5 28-1 24-.5 14.5-2.5 15-11 22-13.5 11.5-14.5 32-18 16-4 54.5-5 17.5 1.5 18-2 57.5-13 69-11" fill="none" stroke="#176fc1" stroke-width="5" stroke-linejoin="round"/><path d="M3886.165 2444.5l-14.664-.75-11-3.25-7.5-10.5-.5-10.25 9.25-24.5 7.25-30.25 4.5-13.75" fill="none" stroke="#176fc1" stroke-width="5.00000048" stroke-linejoin="round"/><path d="M3540.501 2411.75l29.5 23.75 31 13.5 50 20.25 14.25 3.5 29.25-3.75 21-3 53.5 4.5 51-2.5 15-1.5 10.897-5.06 7.91-9.354 2.422-6.771-2.128-14.354" fill="none" stroke="#176fc1" stroke-width="5.00000048" stroke-linejoin="round"/><path d="M3353 2600l-35.5 73.5-3 25.5 8 31 3.5 31.5-2.5 37.5-1.25 82.5 2.75 16.75 22.5 36.25 20.25 22.5 31.25 22.25 31.25 42.5 25.25 26.75 20 17.5 35 25.75 26.75 5.25 22.5-2.5 32.5-5.75h22.5l7.75 1.5 28 12.25 3.25.5 33.25-3.25 23.25-8.75 27-21 11-13.5 9-30" fill="none" stroke="#e0a0d0" stroke-width="5" stroke-linejoin="round"/><path d="M3956.111 2264.157l13.89-45.157 11-17 28-14.5 65.5-11.5 59-7 45.75-5.25" fill="none" stroke="#6e3192" stroke-width="5.00000048" stroke-linejoin="round"/><path d="M4177 2164.5l14-10 8.5-13.5-3-44.5-5.5-45-8-30-3-38.5-.5-30 1.5-39.5 4-30-4.5-23-26.5-81-11-25.5-11-10.5-17.5-20L4075 1613l-23-65.5-15.5-21.5-28.5-30-15-19.5-6.5-25-1.5-25 9.5-26.5 19-34 2.5-27.5-4-26.5-.5-25 2.5-21" fill="none" stroke="#6e3192" stroke-width="5.00000048" stroke-linejoin="round"/><path d="M3889.217 2253.318l-78.21-27.352-19.627.707-34.784 9.193-14.65 19.467-6.865 22.766" fill="none" stroke="#e0a0d0" stroke-width="5" stroke-linejoin="round"/></svg>