<svg width="14600" height="20500" viewBox="-1200, -7450, 14600, 20500" xmlns="http://www.w3.org/2000/svg"><path d="m3398.5 1755.5 13 11 27.5 30.53.43.5 10.5 26.5 4.5 25 16 43 1.5 24 1 31 7.02 30.48 15.17 37.54 12.65 11.1 33.84-1.59 14.68-0.550.9711.31 76.33 75.54 10.81 18.59 17.88 15.76 9.69 19.59 13.68 20.83 11.73 7.66 13.64-.41" style="fill:none;stroke:#d78eaf;stroke-width:5;stroke-linecap:butt;stroke-linejoin:round;stroke-miterlimit:4;stroke-dasharray:none;stroke-opacity:1"/><path d="m3721.34 1531.53-2.34 33.97-12 54-1.5 19.5 10.5 46.5 10.67 33.19" style="fill:none;stroke:#d3a05d;stroke-width:5;stroke-linecap:butt;stroke-linejoin:round;stroke-miterlimit:4;stroke-opacity:1;stroke-dasharray:none"/><path d="m2642.32 2465.36 15.75-1.88 75.4-25.61 58.03-26.87 25.5-10.02.5-1.5 49.5-15.5 22.5-7.03.5-2.5 46-7.5 60.5-11.5 44-9 135-21 52.5-8.5 54.5-7.06.5-11 62-11 53.5-10.5 30.5-7.04.5-9.5 24 2 25.5-4.5 25.5-3.02.50.550.59.5 46.5 22.5 39 18 18.5 8 59 14.5 7.5-2" style="fill:none;stroke:#ee2e24;stroke-width:5;stroke-linecap:butt;stroke-linejoin:round;stroke-miterlimit:4;stroke-dasharray:none;stroke-opacity:1"/><path d="m3664 2493-10-12-6.07-8.21-.6-8.22 3.84-8.03.91-15.5 15.5-10.91 1.76-8.9 5.69-13.38 11.47-13.88 12-15 6.5-13.5 5-15.5 10-6.5 13.29 1.48 18.71-0.170.831.93 27.66-4.07 37.51-14.17" style="fill:none;stroke:#88cebb;stroke-width:5;stroke-linecap:butt;stroke-linejoin:round;stroke-miterlimit:4;stroke-opacity:1;stroke-dasharray:none"/><path d="m3717.57 2043.69 12.17 2.19 43.36 15.95L3796 2073l29 11.5 18.48 7.64 43.88 20.52 7.31 8.21L3899 2139l5 62.5-1.02.5-11.5 38-10 44.5 1 9 18.54.5.06 13.53-4.81 21.87 5.37 17.14-6.19 25.19-12.64 12.57-24.55 29.86-20.02 41.84-34.59 29.05-22.12 32.45-9.85 20.27-3.16 12.73-1.4 27.78-30.45 41.81L3707 2737l-46.24 73.74-69.67 101.51-33.92 51.71-17.66 28.96-23.02 25.74-22.13 47.9-23.29 20.01-52.55 30.26-9.41 9.97" style="fill:none;stroke:#231f20;stroke-width:5;stroke-linecap:butt;stroke-linejoin:round;stroke-miterlimit:4;stroke-dasharray:none;stroke-opacity:1"/><path d="m3147.74 2215.36-28.28 17.68-17.68 21.92-45.96 42.43-31.82 28.28-37.48 13.44-45.96 4.95-27.58 3.54-28.28 4.95-17.68 11.31-7.07 23.33 1.41 21.21 13.44 53.74 7.78 32.53 12.73 32.53 14.85 17.68 16.97 16.26 6.36 8.49 5.66 19.09 10.61 14.14 22.63 11.31 19.09 3.54 37.48 2.83 26.87-0.710.672.12 36.77 3.54 50.2 4.24 21.92 7.07 33.23 16.26 31.11 3.54 24.04-6.36 15.56-12.02 16.97-35.36 19.09-13.44 28.28-4.95 26.87-13.44 15.56-8.49 12.02-11.31 28.99-14.14 31.11.718.49-1.41 19.09-12.73 23.33-14.85 4.95-7.07 6.36-36.77 9.19-32.53 18.38-36.06 16.97-16.97 41.72-16.97 18.38-2.12 39.6-0.71.360.71.44-4.24 19.09-3.49 36.36 3.04 32.53-3.45 36.48 3.9 30.41 8.49 10.73 1.63 18.56-0.270.6713.31 10.63 3.36 13.14.285.21-2.25 12.1.314.9-4.36 6.36-11.31-6.36-48.79-12.02-9.9-32.53-29.7-31.82-12.73-58.69-21.21-62.23-21.92-19.8.71-22.63 4.95-14.85 4.95-9.9-.71-9.9-7.07-8.49-13.44-13.44-24.04-19.09-19.09-10.61-16.97-24.04-24.04-28.28-28.99-24.04-23.33-21.21-12.02-16.26 1.38-41.01 19.13-82.73 50.2-16.26 9.9-57.98 22.63-25.46-.71-42.43 12.73-28.99 2.12-63.64 17.68-65.05 18.38" style="fill:none;stroke:#ffd204;stroke-width:5;stroke-linecap:butt;stroke-linejoin:round;stroke-miterlimit:4;stroke-opacity:1;stroke-dasharray:none"/><path d="m2581.56 2623.52-13.64-118.95-.71-37.48 5.66-48.79 13.44-31.82 11.31-12.02 21.92-16.26 19.8-16.26 38.18-45.25 28.28-26.87 22.63-9.19 20.51-8.49 12.02-7.78 22.63-28.28 13.44-4.95 16.26-1.41 28.28 12.73 16.26 5.66 38.89 4.95 37.48 6.36 26.87 2.12 23.33.7123.33 4.24 19.09.7121.21 15.56 26.87-2.83 13.44-4.24 13.02-7.28 12.44-16.76 31.82-21.33 70.71-20.38 61.52-15.76 23.13-1.91 44.58-12.76 23.63.83L3422 2140l42.5-24 25-15.5 38-23.62L3568 2059l20-.5 21.51.46.5 46.5 31 31 10 16.5 18.52.21.5 37.5 8 6 8.5.5 35-9 22-1.5 66.5 23 89 33.5 12.5 11" style="fill:none;stroke:#f386a1;stroke-width:5;stroke-linecap:butt;stroke-linejoin:round;stroke-miterlimit:4;stroke-opacity:1;stroke-dasharray:none"/><path d="m3236.26 2180.14-10.51-10.89-41-38.75-34.5-25.25-25.22-26.85-36.45-49.63-16.89-22.27-16.7-20.76-5-10.04-1.14-15.59 9.09-67.43 1.63-22.52-2.88-9.09-7.69-11.57-18.6-15.96L3017 1820l-11.5-8-18.5-6.5-36.5 6.5-28.5.5-62 10.5-97-10-35-5.5-116-29.5" style="fill:none;stroke:#98005d;stroke-width:5;stroke-linecap:butt;stroke-linejoin:round;stroke-miterlimit:4;stroke-dasharray:none;stroke-opacity:1"/><path d="m2974 2609 19.49 4.57 34.01 2.43 43-1 30.5 2.5 38 4 53 4 24.5 8 30 15.5 27.5 3.5 24-7.5 14-8.5 15.5-35.5 20-14.5 28-6 43-21 13.5-12.5 30-14.5 33 .5 7.04-1.79 36.96-23.71 7-7 7-41.5 8-29 17.5-34.5 18.5-19.04.5-18.02.5-3.06.50.52.5-1.01.5-3.01.5-2.02.5-0.53.52.03.5-4.040.34.55 31.2 7.45" style="fill:none;stroke:#00853e;stroke-width:5;stroke-linecap:butt;stroke-linejoin:round;stroke-miterlimit:4;stroke-opacity:1;stroke-dasharray:none"/><path d="m3902.5 2359.5 11.82 1.87 19.95-0.470.3713.9 8.85 2.73 10.64.66 7-2.48 10.72.552.65-2.77 4.91-8.87L4006 2334l9-13 17.5-7 16-14 26.5-18 28-17 25.5-13.01.5-12.5 24-8 20.5 2 31-10 44.5-14.5 37-13.5 15-3 28-4.5 18.5-9.5 12.5-7.02.5-12.5 33.5-15.5 8.5-2.5 54.5-19.020.83.86 15.7 14.14.13.51.3.5 45.5.5 30-4.5 34.5-9 22-10 77-28 82-31.5 96-33.5 70-28 52.5-20.06.5-20.5 88.5-33.02.5-9" style="fill:none;stroke:#00853e;stroke-width:5;stroke-linecap:butt;stroke-linejoin:round;stroke-miterlimit:4;stroke-opacity:1;stroke-dasharray:none"/><path d="m4319.59 2783.55-3.09-16.55 2-14-3-21-14-23-8.5-32-3.5-19-21-55.5-9-41-13.5-30.5-30-42.5-15.5-24.5-7-42.5-3.5-46.5v-47.5l1.5-32-3.5-28.5-11.5-23-21-10.5" style="fill:none;stroke:#f386a1;stroke-width:5;stroke-linecap:butt;stroke-linejoin:round;stroke-miterlimit:4;stroke-opacity:1;stroke-dasharray:none"/><path d="m2939 2572-5.5 25.5-19.03.5-50.5 54.5-12.5 9.5-20 3-23-14-11.5-8.5-12-1.5-30 13-19 3-12.5 1-35-5-34.5 1.5-17 .5-10-3.5-11-5-22.5-33.5-10-8-13-3h-34l-27.41-2.92-39.09-4.58-36.5-10.5-42.5-.5-18-3-93-.5-44 4.5-51.07.5-25.5-6.5-21.5-15.5-22-26.5-30-21-8.5-15.5-16-40.5-55.5-48-12-14-9.5-26-5.5-32 8-53.5-12-25-15-5.5-20-.5-17.5 8-68 2" style="fill:none;stroke:#00853e;stroke-width:5;stroke-linecap:butt;stroke-linejoin:round;stroke-miterlimit:4;stroke-opacity:1;stroke-dasharray:none"/><path d="m2189 2616-29 11.5-27.08.5-17.09.5-16.5 22.5-9 20-2.5 27-5.5 28-7.5 17.5-40 60-16.5 31.5-8.5 34-14 69-11 56.5-10.02.5-13.5 23.5-20.02.5-19.5 6-51.5 14-25.5 4M2862 2681l-6 18.5 1.52.8.5 12.51.10.5 18 29 6 17-3 10.5-23 25-15.5 22-4 20-11.5 19.5-66.05.5-10.5 14.5-4 17-3.5 13.5-15.5 12-7.5 12.5-2 24-3.5 20.5-9.5 27.52.26.5-3 17-2.5 17-2.5 26.5-10.5 18-6 12.5.5 17 5.51.13.51.9.5 18 17 32.5 6.5 33 7 50.5 4 51 12 39 24 40 21 27 18 28 4 22.5-2.03.5-9 25-25.5 56-45 47.5M2917.5 2619l20-10 37.01.39" style="fill:none;stroke:#00853e;stroke-width:5;stroke-linecap:butt;stroke-linejoin:round;stroke-miterlimit:4;stroke-opacity:1;stroke-dasharray:none"/><path d="m4320.5 2783 13 12.53.10.5 25 5 12 9 8.5 16 1 19 11 27" style="fill:none;stroke:#f386a1;stroke-width:5;stroke-linecap:butt;stroke-linejoin:round;stroke-miterlimit:4;stroke-opacity:1;stroke-dasharray:none"/><path d="m3892.13 2241.69 6.19-20.02.79-20.37-5.03-61.33-.7-31.18 13.49-49.97-2.14-12.64L3895 2021l-8.5-19-11-23-23.5-36-34.5-34-30.5-25.5-24-26-10-21-11.5-48-7.55-31.99-6.95-39.01" style="fill:none;stroke:#d3a05d;stroke-width:5;stroke-linecap:butt;stroke-linejoin:round;stroke-miterlimit:4;stroke-opacity:1;stroke-dasharray:none"/><path d="m2811 2679-16-31-14.5-24-27.5-21.5-27-35.5" style="fill:none;stroke:#00853e;stroke-width:5;stroke-linecap:butt;stroke-linejoin:round;stroke-miterlimit:4;stroke-dasharray:none;stroke-opacity:1"/><path d="m2011.99 2450.83-21.49-5.33H1974l-36.5 20.5-74.5 15.5-22 9-46.5 28-70 23-44 16.5-37.5 24-25.5 28.5-33 31-37 29.5-27 23-29 38-29.5 36.5-17.01.5-54.5 17-19 15-10.5 18-6 22 .5 47.5-6.02.5-10.42 35.44 6.92 19.06-6.55-18.42-12.76-5.84L1312 2952l-37.5 16-30.5 6.5-38 2-38-4-51.5-32-21-8.5-23.5-1-35 9.5" style="fill:none;stroke:#00853e;stroke-width:5;stroke-linecap:butt;stroke-linejoin:round;stroke-miterlimit:4;stroke-opacity:1;stroke-dasharray:none"/><path d="m3977 2282.52.19.52.3.5 14.5-3 10-6 22.5-16.05.5-26.5 12-5.5 11-10.5 9.46-4.85 14.54 2.35" style="fill:none;stroke:#f386a1;stroke-width:5;stroke-linecap:butt;stroke-linejoin:round;stroke-miterlimit:4;stroke-opacity:1;stroke-dasharray:none"/><text x="-1110.55" y="-7243.04" xml:space="preserve" style="font-size:144px;font-style:normal;font-weight:400;line-height:125%;letter-spacing:0;word-spacing:0;fill:#000;fill-opacity:1;stroke:none;font-family:Sans;-inkscape-font-specification:Sans"><tspan x="-1110.55" y="-7243.04">1905</tspan></text><text x="-1110.55" y="12947.96" xml:space="preserve" style="font-size:144px;font-style:normal;font-weight:400;line-height:125%;letter-spacing:0;word-spacing:0;fill:#000;fill-opacity:1;stroke:none;font-family:Sans;-inkscape-font-specification:Sans"/><path d="m3984.5 1789 11 4 9 8 9.5 12.54.11.5-.5 27-1 25-2.5 31-2.5 43.5 1.5 95.5-3.02.5-6.5 15-15 18.5-5.5 18-1 44 .16 18.67L3974 2196l-24.5 30-9 30.5M4018 1828.5l6.03-10.27 14.51-11.39 14.95-5.34 13.41-2.43 124.09 9.93 23.5-1.03.5-4 70 4.5 52.5 3 27 3.53.15.5 25.5 25 15 21.5 8.5 20.57.30.5 4 40 8.5 33.5 12.5 31.5 9.75 22.75 5.25 17.76.19.25 46.9 115.81 12.6 31.94 6.5 31L4612 2372" style="fill:none;stroke:#f58026;stroke-width:5;stroke-linecap:butt;stroke-linejoin:round;stroke-miterlimit:4;stroke-opacity:1;stroke-dasharray:none"/><path d="M3956.11 2264.16 3970 2219l11-17 28-14.5 65.5-11.5 59-7 45.75-5.25" style="fill:none;stroke:#9194b8;stroke-width:5;stroke-linecap:butt;stroke-linejoin:round;stroke-miterlimit:4;stroke-dasharray:none;stroke-opacity:1"/><path d="m3885 2444.5 15 .5 21 9 22.5 24.5 36 31 90.58.22.17 16.14" style="fill:none;stroke:#176fc1;stroke-width:5;stroke-linecap:butt;stroke-linejoin:round;stroke-miterlimit:4;stroke-dasharray:none;stroke-opacity:1"/><path d="m3981.52.44.5 13.49 15.5-.49 20-1.5 54.5-4.5 48-6.5 34-2 71.5-3.5 77-4.5 25.5-.5 23 3 42 15 29 15.5 22.5 15.5 21 10 11.5 2.5 15-2 13 4.5 32.5 7 10 2.5 31-1.5 17-.5 39.5-8.54.1.5 26-8.5" style="fill:none;stroke:#02b1b0;stroke-width:5;stroke-linecap:butt;stroke-linejoin:round;stroke-miterlimit:4;stroke-opacity:1;stroke-dasharray:none"/><path d="m4621.5 2415.5 11.1 8.23.1514.96-16.94 25.04-12.31 77.27-.5 20-6 36.5-1.5 40-4.5 27.5 2.5 10.5 7 10 23.52.9.59 8.91 5.16 17.21 1.91 6.99" style="fill:none;stroke:#02b1b0;stroke-width:5;stroke-linecap:butt;stroke-linejoin:round;stroke-miterlimit:4;stroke-opacity:1;stroke-dasharray:none"/><path d="m2405.52.12.5-9.5 27-4.5 62.5-1.05.5-4 37-4.5 45-20.5 32.5-28.5 58-69 19.5-26.5 37.5-29 36-19.5 37-11 44-11 52.5-26.5 34.5-23.5 65-27.5 85-38.5 37-14 65.5-7 30 7 26.5 17.5 16.5 24 8 29-.5 32 6 32 3.5 29 7 30 17.5 15.5 23.5 3.5 21.51.48.5 11.5 69 3 22-2.5 58-22 130.5-50.5 96-33.5 27.5-9.04.5-5 33 1.5 38.39 5.21 23.43 3.81" style="fill:none;stroke:#f58026;stroke-width:5;stroke-linecap:butt;stroke-linejoin:round;stroke-miterlimit:4;stroke-opacity:1;stroke-dasharray:none"/><path d="m4792.57 2280.71 24.93 44.79 12 36 13.52.26.51.19.5-0.55.5-9.5 51-2" style="fill:none;stroke:#02b1b0;stroke-width:5;stroke-linecap:butt;stroke-linejoin:round;stroke-miterlimit:4;stroke-opacity:1;stroke-dasharray:none"/><path d="m3386.75 1885.99-34.13 1.26-20.22 2.95-13.48-2.53-29.92-13.48-42.56-6.74" style="fill:none;stroke:#f58026;stroke-width:5;stroke-linecap:butt;stroke-linejoin:round;stroke-miterlimit:4;stroke-opacity:1;stroke-dasharray:none"/><path d="m3886.17 2444.5-14.66-.75-11-3.25-7.5-10.5-.5-10.25 9.25-24.5 7.25-30.25 4.5-13.75" style="fill:none;stroke:#176fc1;stroke-width:5;stroke-linecap:butt;stroke-linejoin:round;stroke-miterlimit:4;stroke-opacity:1;stroke-dasharray:none"/><path d="m3681.4 2470.68 13.1-1.68 21-3 53.5 4.5 51-2.5 15-1.5 10.9-5.06 7.91-9.35 2.42-6.77-2.13-14.35" style="fill:none;stroke:#176fc1;stroke-width:5;stroke-linecap:butt;stroke-linejoin:round;stroke-miterlimit:4;stroke-dasharray:none;stroke-opacity:1"/><path d="m1974.5 2295-5-25.5 10.5-17 31-33.5 10.5-24.5 1-35.5-4.5-38.5-17-37.5-42.5-42.5-23.5-37.5-42-78-37-24.5-23.5-15-13-22.5-10-28.5-21-28-60-43.5-71.5-48-52-29.5-21-8.5-31.5-4.5-52-21.5-34-2.5-19-4-26.5-18-22-31-26-49-9.61-9.89" style="fill:none;stroke:#00853e;stroke-width:5;stroke-linecap:butt;stroke-linejoin:round;stroke-miterlimit:4;stroke-dasharray:none;stroke-opacity:1"/><path d="m4177 2164.5 14-10 8.5-13.5-3-44.5-5.5-45-8-30-3-38.5-.5-30 1.5-39.5 4-30-4.5-23-26.5-81-11-25.5-11-10.5-17.5-20L4075 1613l-23-65.5-15.5-21.5-28.5-30-15-19.5-6.5-25-1.5-25.09.5-26.5 19-34 2.5-27.5-4-26.5-.5-25 2.5-21" style="fill:none;stroke:#9194b8;stroke-width:5;stroke-linecap:butt;stroke-linejoin:round;stroke-miterlimit:4;stroke-dasharray:none;stroke-opacity:1"/><path style="fill:none;stroke:#00853e;stroke-width:5;stroke-linecap:butt;stroke-linejoin:round;stroke-miterlimit:4;stroke-dasharray:none;stroke-opacity:1" d="m2895.71 2515.15 2.79 6.85 8.5 12.5 24.5 24.5 5 8 2.45 6.36"/><path d="m3889.22 2253.32-78.21-27.35-19.63.71-34.78 9.19" style="fill:none;stroke:#d78eaf;stroke-width:5;stroke-linecap:butt;stroke-linejoin:round;stroke-miterlimit:4;stroke-dasharray:none;stroke-opacity:1"/><path style="fill:none;stroke:#00853e;stroke-width:5;stroke-linecap:butt;stroke-linejoin:round;stroke-miterlimit:4;stroke-dasharray:none;stroke-opacity:1" d="m2087 2550 25.5 7.5 15.5-1.01.73-14.18 9.94-9.71"/><path d="m11637.68 2282.21-54.97-258.22" style="opacity:1;fill:none;fill-opacity:1;fill-rule:nonzero;stroke:#118ec6;stroke-width:5;stroke-linecap:butt;stroke-linejoin:round;stroke-miterlimit:4;stroke-dasharray:none;stroke-opacity:1"/><path style="fill:none;stroke:#d78eaf;stroke-width:5;stroke-linecap:butt;stroke-linejoin:round;stroke-miterlimit:4;stroke-dasharray:none;stroke-opacity:1" d="m3756.6 2235.87-12.15 7.44-4.44 11.23.25.53.62.75 1.5 34.5-2.03.25-0.750.758.25 35.75 9.5 34 10 24.5 2.52.12.5 26.57.22.5-1 29-6 26.5-0.530.522.5 64.5 8.5 26.5 1 53 4 54.5-5.5 39-12.5 25.5-29.5 35-12 29.5-6.37 29.5-8.87 30-9.98 13.67-21.74 14.38-33.09 8.92-19.34 6.64-22.12-1.62-25-9.5-23-.5-36 6.5-22 2-24-4.5-32-23-25.5-22-24.5-25-22.6-32.64"/><path style="fill:none;stroke:#88ac95;stroke-width:5;stroke-linecap:butt;stroke-linejoin:round;stroke-miterlimit:4;stroke-dasharray:none;stroke-opacity:1" d="m3324.84 2876.44 4.66 20.06 21.75.19.25.24.71 27.35 30.47 44.42 24.78 25.09 25.62 22.29 33.95 24.44 25.04 4.84 24.19-2.25 32.77-6.6 24.67 1.02 23.27 11.57 26.48-1.29 20.06-6.87 31.5-8.5 23.5-15.03.28-7.33 18.72-4.67 17.5-6.5 48-24.5 54-24.5 24-7h30.5l34 8.5 21.56 1.77 28.94-2.77 22.75-11.25 19.25-5.5 31.25-3.75 15.75-3.5 24.5-17 15-20 17.5-42 27-66.5 6-35.5-2.5-29.5-4.5-29-6.5-17.5-14.5-27-24.67-27.98-41.2-28.83-76.08-56.05L3939.77 2482l-14.75-17.25"/><path d="m4341.5 2346.5 21.5-13.5 83.44-89.74" style="fill:none;stroke:#02b1b0;stroke-width:5;stroke-linecap:butt;stroke-linejoin:round;stroke-miterlimit:4;stroke-dasharray:none;stroke-opacity:1"/></svg>