<svg xmlns="http://www.w3.org/2000/svg" width="14600" height="20500" viewBox="-1200, -7450, 14600, 20500"><path d="m2589.63 2371.62 3.22 7.63 14.08 14.25 6.45 11.71 2.21 16.8-1.7 17.47.1714.59 2.71 5.6" style="opacity:1;fill:none;fill-opacity:1;fill-rule:nonzero;stroke:#ee2e24;stroke-width:5;stroke-linecap:butt;stroke-linejoin:round;stroke-miterlimit:4;stroke-dasharray:none;stroke-opacity:1"/><path d="m2786 2006-56 14.5-35.01.5-75.03.5-30 4-68 6-35.5-.5-19-7-13.5-11-15-6.5-39.5-7-28-5.5-59.5-29-39.5-24.5-62-46-40-29-57.5-35.5-55.5-32.5-33-18-23.5-5-49-8.5-14.5-9-13.5-22.5-18-26.5-19.5-31-16.5-34.5-33.5-85-25.5-70-36-98.5-14-39-20-51-25-44.5-33.5-50-13-14.5-47-42.5-59-47-38.5-31.5-189-141-53-45-77-78-55-70-51-75-39-88-18-67-10-49-2-78 5-45 15-63-1.5-15.5-3-14.5-13-13-17.5-2.5-31.5.5-14.5-5.5-9-7.5-6.5-15.02.5-17 10-16 19-17 10.5-9 8-15.5-.5-20-.5-14L986 63l-11.5-15L946 16.5" style="fill:none;stroke:#b06111;stroke-width:5;stroke-linecap:butt;stroke-linejoin:round;stroke-miterlimit:4;stroke-opacity:1;stroke-dasharray:none"/><path d="m2004.5 2450.5-15-19.5-9.5-26-4.5-32 4-37 2.5-17-11.5-23.5-4-14.5 3-11.5 10.5-17 31-33.5 10.5-24.5 1-35.5-4.5-38.5-17-37.5-42.5-42.5-23.5-37.5-42-78-37-24.5-23.5-15-13-22.5-10-28.5-21-28-60-43.5-71.5-48-52-29.5-21-8.5-31.5-4.5-52-21.5-34-2.5-19-4-26.5-18-22-31-26-49-34-35-42-60-50.5-43.5-33-21-45.5-11.5-68-17.5-44.5-8-42-2-44.5 2.5-48.5 11.5-138 48-77.5 28-18.5 7.5L609 1498l-54.5 37.5-20.01.5-17.02.5-12.5 21-11 47-14 31-23.5 26L402 1724l-75.5 39-55.5 27-12 4.5-32.03.5h-17.5l-16 5-36.5 23" style="fill:none;stroke:#1c3f95;stroke-width:5;stroke-linecap:butt;stroke-linejoin:round;stroke-miterlimit:4;stroke-opacity:1;stroke-dasharray:none"/><path d="M1834.5 692.5 1879 783l26.5 55.5 12 38 28 144 7.52.18.5 23.5 37.53.17.5 13 13 17 31 59 3 29.5-7.5 48-10.5 45-15 22-20.5 19-55 43-7 15.5-2 15 9.53.15.5 26.5 15 16 18.5 28.5 23 20 28 17.53.10.5 33.5 12.51.6.5 31 20 22 14 56.5 35.5 73 34 59.5 24.5 30 10 204 50 108.5 28.5 42 7 92 10.5 62.5-11 30-1 38.5-6.5 18.5 6.51.9.5 13.23 12.01 20.27 17.99 13.52.7.25 14.76.6421.44-3.91 42.27-0.98.75-0.330.294.18 18.1 12.24 16.05 35.57 48.6 11.72 38.19 6.62 23.1 13.16 23.81 10.83 13.6 17.45 5.02" style="fill:none;stroke:#b06111;stroke-width:5;stroke-linecap:butt;stroke-linejoin:round;stroke-miterlimit:4;stroke-opacity:1;stroke-dasharray:none"/><path d="m3721.34 1531.53-2.34 33.97-12 54-1.5 19.5 10.5 46.5 10.67 33.19" style="fill:none;stroke:#d3a05d;stroke-width:5;stroke-linecap:butt;stroke-linejoin:round;stroke-miterlimit:4;stroke-opacity:1;stroke-dasharray:none"/><path d="m3305.43 197.98 41.72 19.8 36.77 4.24 26.87 3.54 37.48 16.26 38.18 26.87 20.51 20.51 9.9 30.41 24.75 114.55-1.41 18.38-2.83 16.26-33.23 41.01-36.06 36.06-14.14 21.21-14.14 26.87-2.83 28.99 2.83 39.6 5.66 36.77 14.14 22.63 3.54 43.84 1.41 45.25 4.95 14.14 9.19 14.14 28.28 15.56 21.21 14.14 32.53 28.99 12.73 25.46 15.09 32.33 23.77 18.92 33.87 19.48 26.31 19.6 14.8 22.09 11.87 17.75 24.41 34.6 18.8 27.89 7.44 19.24 15.97 34.87 10.22 42.99 4.88 35.28 11.56 96.95 12.83 28.7 19.09 41.84.7620.48-11.24 13.07-11.75 13.31-16.41 9.59-33.89-.54-19.07 9.05-11.28 15.16-5.09 28.68-1.21 25.87-1.63 16.82-13.5 66-4.5 22-16.5 28-23.5 36.5-23.02.5-16.02.5-22.04.5-15.5 43-10.5 28-6 41.5.5 35-3 51.5-10.07.5-5.5 30-7.5 22 1 18.5 10.5 25.5-1.5 8.51.13.5 10.52.19.53.5.5 16.57.24.5-4.5 15.5-13 14-27.5 31.5-14.5 11.5-18.5 8.5-32 13-29 8.5-21.5 12-43 25-35 26-46 35.5-22 7-38 4.5-39.5 11.5-20 21-13.5 17.5-38.03.5-16.02.5-2.01.5-18.44 12.07-8.16 14.35-28.9-1.93-31.5 1-43-4-16-4-12.5-4.5-20.5.5-16.5 9.5-53 58-16.5 11.5-19.02.5-66-8.5h-26.5l-19.5 1.5-36.5-4-47.5 2-9-2.5-15.5-8-24-35-7-5.5-18-2.5h-24.5l-42.5-4-29-3.5-34-9.5-44-2.5-20.5-1.5-89.5-.5-52.5 5.5-44 6-25-6-24.5-18-19.5-23.5-31-23.5-10.5-17-14.5-39-54.5-47.5-13-2.5h-16.5l-36.5 20.5-74.5 15.5-22 9-46.5 28-70 23-44 16.5-37.5 24-25.5 28.5-33 31-37 29.5-27 23-29 38-29.5 36.5-17.01.5-54.5 17-19 15-10.5 18-6 22 .5 47.5-9.5 22-11.5 15.5-22.5 14-37.5 16-30.5 6.5-38 2-38-4-51.5-32-21-8.5-23.5-1-35 9.5" style="fill:none;stroke:#1c3f9f;stroke-width:5;stroke-linecap:butt;stroke-linejoin:round;stroke-miterlimit:4;stroke-opacity:1;stroke-dasharray:none"/><path d="m2786 2006 46.5-13.5 21.5-2.5 24.5 1.52.11.5 17.5 14 19 24.5 43.56.3.5 10.5-7.5 22-2 26 3.49 13.54 48.58 52.65 5.32 11.71 14.99 37.42 8.07 8.86 5.31-0.11.24-1.57 26-22.5 6-6 3-24 8-13 16.5-12.03.5-15.5 22-6 20.5-3.5 15.5-4.04.5-10.5 36-10 23-6.51.2.5 8 10 6 20 19.57.8.5 5.5 7.53.3.57 16.76 8.93 20.74 27.5 50.5 8.5 6 14 2 14-4.5 12.56.8.52.8.52.6.56.32.55.41.43 8.5 13.89 11.64 21.35 15.61 37.49 16.18 6.11 10.65-5.41 19.78-0.960.433.05 8.54 10.05 9.17.14.5 18.45 6.93 46.29-5.41 7.64 2.67 30.4 37.02 20.81 34.31" style="fill:none;stroke:#b06111;stroke-width:5;stroke-linecap:butt;stroke-linejoin:round;stroke-miterlimit:4;stroke-opacity:1;stroke-dasharray:none"/><path d="m1854 2303 62.5-1.5 50-.5 27-.5 17.5-6.5 22.5-20.5 52-58.5 25.5-29 30-29.5 27-11.5 16.5 1.5 61.5 22 51 17.5 18 11 18 25 26 39.5 13.52.19.5 14.5 25 5 46.5-4.5 45.5-7.5 30.5-.5 23 7.5 19.5 13.5 7.5 24.52.25.5-3.5 37.5.5 27-.94 23.58 2.43 5.98 5.3 4.28 47.03 10.53 15.75-1.88 75.4-25.61 58.03-26.88 25.5-10.02.5-1.5 49.5-15.5 22.5-7.03.5-2.5 46-7.5 60.5-11.5 44-9 135-21 52.5-8.5 54.5-7.06.5-11 62-11 53.5-10.5 30.5-7.04.5-9.5 24 2 25.5-4.5 25.5-3.02.50.550.59.5 46.5 22.5 39 18 18.5 8 59 14.5 7.5-2.02.5-11.02.5-12 13-22.5 13-28" style="fill:none;stroke:#ee2e24;stroke-width:5;stroke-linecap:butt;stroke-linejoin:round;stroke-miterlimit:4;stroke-opacity:1;stroke-dasharray:none"/><path d="m3664 2493-10-12-6.07-8.21-.6-8.22 3.84-8.03.91-15.5 15.5-10.91 1.76-8.9 5.69-13.38 11.47-13.88 12-15 6.5-13.5 5-15.5 10-6.5 13.29 1.48 18.71-0.170.831.93 27.66-4.07 37.51-14.17" style="fill:none;stroke:#88cebb;stroke-width:5;stroke-linecap:butt;stroke-linejoin:round;stroke-miterlimit:4;stroke-opacity:1;stroke-dasharray:none"/><path d="M2098.5 778.5 2123 800l9 10.5 6 15 3 15 10 26.5 16 36 12.5 18.5L2201 945l29 21 37 23 26 17 15.5 14.5 8.5 11 47 54.5 27.5 29.5 25.5 16.5 24.5 12.5 37.5 23 20 14.5 13.5 8.5 27.5 25.5 23.5 29 19 23.52.18.5 21.5 21 32 20.5 68.5 48.5 28.5 21 14 7.5 13 2 15.5.5 15-4.5 16-2.5 11-.5 11.5 3 21 11.5 13.5 7 37 11 19 5 20.28 10.28 22.05 14.48 12.17 13.41 6.22 15.12 7.86 21.16 6.91 23.05 3.4 42.92-1.11 51.38-2.19 11.26 5.14 9.55 6.09 8.93 8.17 8.47 15.33 8.08 40.49 17.59 28.38 22.64 20.72 20.22 18.54 21.58 17.25 13.79 32.09 31.74 31.1 20.08 28.5 28.47 20.14 11.72 32.28 11.9 17.28 12.24 18.55 17.71L3371 1932l34.05 62.87 44.51 67.09 4.6 15.14-0.73.4-3.26 8-7.52 11-27.67 18.66-5.53 13.47 6.26 23.36 34.79 61.52 14.5 25 12 22.5 9.5 14.5 11.95 43.76 8.44 18.94.5524.41 2.84 10.85 6.3 5.08 22.66 14.02 17.62 16.16L3567 2420l39.5 18.53.24.51.18.51.23.5 5 19 23.93 57.51 22.73 50.44 14.12 36.76.14.76-1.12 17.18" style="fill:none;stroke:#231f20;stroke-width:5;stroke-linecap:butt;stroke-linejoin:round;stroke-miterlimit:4;stroke-opacity:1;stroke-dasharray:none"/><path d="m2869 207.5 38.53.5.5 9.5 15 31 50.5 104.5L3007 448l12 26.52.18.5v37.5l-2 18-19 59-37 98-4.5 18-22 112-6 24-10 20.5-14.02.5-15.5 14-15 14.5-5 12-.5 12 4 16.5L2891 979l72.55.36.5 27.55.36.5 23.5 15.5 26.5 24.53.33.5 15.52.28.52.30.5 25.53.29.5 31.5 27.5 28.5 19.54.28.5 15 12 23.5 35.5 29.5 50.5 18.59 31.27 14.84 30.72 4.54 17.67.5418.34-20.07 61.82-3.77 20.47-5.66 30.81-5.46 16.62-20.4 48.24-2.12 23.74 3.18 11.59-3.46 29.78-3.66 21.99-2.91 21.13 2.9 20.8-6.76 49.61-4.82 40.4m34.05 62.87-2.55 40.13 7.29 31.76 12.36 26.43 12.57 11.64 9.33 1.24 54.16-34.26 17.36-8.03 28.69-9.62 21.74-0.16.5-1.17 74.53-9.76 20.76-0.970.953.78 43.36 15.95L3796 2073l29 11.5 18.48 7.64 43.88 20.52 7.31 8.21L3899 2139l5 62.5-1.02.5-11.5 38-10 44.5 1 9 18.54.5.06 13.53-4.81 21.87 5.37 17.14-6.19 25.19-12.64 12.57-24.55 29.86-20.02 41.84-34.59 29.05-22.12 32.45-9.85 20.27-4.21 16.81-0.34.69-30.45 41.81L3707 2737l-46.24 73.74-69.67 101.51-33.92 51.71-17.66 28.96-23.02 25.74-22.13 47.9-23.29 20.01-52.55 30.26-35.23 37.34-36.84 65.53-24.04.44-1.33 25.11-3.03.07-16.62 41.52-14.11 14.03-33.77 61.28-18.65 51.44-20.64 26.53-26.07 21.63-16.99 21.5-4.78 19.95-51.14 80.67-12.13 24.43-33.73 44.04-45.16 73.75-12.83 12.91-34.5 8.5-73.06.5-17 10-13 11.5-2 16 2 47.5-3.01.57" style="fill:none;stroke:#231f20;stroke-width:5;stroke-linecap:butt;stroke-linejoin:round;stroke-miterlimit:4;stroke-opacity:1;stroke-dasharray:none"/><path d="m3147.74 2215.36-28.28 17.68-17.68 21.92-45.96 42.43-31.82 28.28-37.48 13.44-45.96 4.95-27.58 3.54-28.28 4.95-17.68 11.31-7.07 23.33 1.41 21.21 13.44 53.74 7.78 32.53 12.73 32.53 14.85 17.68 16.97 16.26 6.36 8.49 5.66 19.09 10.61 14.14 22.63 11.31 19.09 3.54 37.48 2.83 26.87-0.710.672.12 36.77 3.54 50.2 4.24 21.92 7.07 33.23 16.26 31.11 3.54 24.04-6.36 15.56-12.02 16.97-35.36 19.09-13.44 28.28-4.95 26.87-13.44 15.56-8.49 12.02-11.31 28.99-14.14 31.11.718.49-1.41 19.09-12.73 23.33-14.85 4.95-7.07 6.36-36.77 9.19-32.53 18.38-36.06 16.97-16.97 41.72-16.97 18.38-2.12 39.6-0.71.360.71.44-4.24 19.09-3.49 36.36 3.04 32.53-3.45 36.48 3.9 30.41 8.49 10.73 1.63 18.56-0.270.6713.31 10.63 3.36 13.14.285.21-2.25 12.1.314.9-4.36 6.36-11.31-6.36-48.79-12.02-9.9-32.53-29.7-31.82-12.73-58.69-21.21-62.23-21.92-19.8.71-22.63 4.95-14.85 4.95-9.9-.71-9.9-7.07-8.49-13.44-13.44-24.04-19.09-19.09-10.61-16.97-24.04-24.04-28.28-28.99-24.04-23.33-21.21-12.02-16.26 1.38-41.01 19.13-82.73 50.2-16.26 9.9-57.98 22.63-25.46-.71-42.43 12.73-28.99 2.12-63.64 17.68-65.05 18.38" style="fill:none;stroke:#ffd204;stroke-width:5;stroke-linecap:butt;stroke-linejoin:round;stroke-miterlimit:4;stroke-opacity:1;stroke-dasharray:none"/><path d="m2581.56 2623.52-13.64-118.95-.71-37.48 5.66-48.79 13.44-31.82 11.31-12.02 21.92-16.26 19.8-16.26 38.18-45.25 28.28-26.87 22.63-9.19 20.51-8.49 12.02-7.78 22.63-28.28 13.44-4.95 16.26-1.41 28.28 12.73 16.26 5.66 38.89 4.95 37.48 6.36 26.87 2.12 23.33.7123.33 4.24 19.09.7121.21 15.56 26.87-2.83 13.44-4.24 13.02-7.28 12.44-16.76 31.82-21.33 70.71-20.38 61.52-15.76 23.13-1.91 44.58-12.76 23.63.83L3422 2140l42.5-24 25-15.5 38-23.62L3568 2059l20-.5 21.51.46.5 46.5 31 31 10 16.5 18.52.21.5 37.5 8 6 8.5.5 35-9 22-1.5 66.5 23 89 33.5 12.5 11" style="fill:none;stroke:#f386a1;stroke-width:5;stroke-linecap:butt;stroke-linejoin:round;stroke-miterlimit:4;stroke-opacity:1;stroke-dasharray:none"/><path d="m3236.26 2180.14-10.51-10.89-41-38.75-34.5-25.25-25.22-26.85-36.45-49.63-16.89-22.27-16.7-20.76-5-10.04-1.14-15.59 9.09-67.43 1.63-22.52-2.88-9.09-7.69-11.57-18.6-15.96L3017 1820l-11.5-8-18.5-6.5-36.5 6.5-28.5.5-62 10.5-97-10-35-5.5-104-26.5-123-31-90-21.5-32.65-11.4-56.35-22.6-44-21-34-15-107.5-69-12.5-6-61.5-24-28-17.5-23.5-20.5-18.5-29-33.5-35.5-31.5-23.5-45.5-24.5-74.5-41-43.5-22.5-47.5-15-26-5.5-50-2-46 .5-51.5 1.5-15.5-4.5-24-13.5" style="fill:none;stroke:#98005d;stroke-width:5;stroke-linecap:butt;stroke-linejoin:round;stroke-miterlimit:4;stroke-opacity:1;stroke-dasharray:none"/><path d="m2974 2609 19.49 4.57 34.01 2.43 43-1 30.5 2.5 38 4 53 4 24.5 8 30 15.5 27.5 3.5 24-7.5 14-8.5 15.5-35.5 20-14.5 28-6 43-21 13.5-12.5 30-14.5 33 .5 7.04-1.79 36.96-23.71 7-7 7-41.5 8-29 17.5-34.5 18.5-19.04.5-18.02.5-3.06.50.52.5-1.01.5-3.01.5-2.02.5-0.53.52.03.5-4.040.34.55 31.2 7.45" style="fill:none;stroke:#00853e;stroke-width:5;stroke-linecap:butt;stroke-linejoin:round;stroke-miterlimit:4;stroke-opacity:1;stroke-dasharray:none"/><path d="m4351 2917.5-13-35.5-11-25.5-3.5-35.5-2.5-32.5-4.5-21.5 2-14-3-21-14-23-8.5-32-3.5-19-21-55.5-9-41-13.5-30.5-30-42.5-15.5-24.5-7-42.5-3.5-46.5v-47.5l1.5-32-3.5-28.5-11-20-23.5-25.5" style="fill:none;stroke:#f58026;stroke-width:5;stroke-linecap:butt;stroke-linejoin:round;stroke-miterlimit:4;stroke-opacity:1;stroke-dasharray:none"/><path d="m3902.5 2359.5 11.82 1.87 19.95-0.470.3713.9 8.85 2.73 10.64.66 7-2.48 10.72.552.65-2.77 4.91-8.87L4006 2334l9-13 17.5-7 16-14 26.5-18 28-17 25.5-13.01.5-12.5 24-8 20.5 2 31-10 44.5-14.5 37-13.5 15-3 28-4.5 18.5-9.5 12.5-7.02.5-12.5 33.5-15.5 8.5-2.5 54.5-19.020.83.86 15.7 14.14.13.51.3.5 45.5.5 30-4.5 34.5-9 22-10 77-28 82-31.5 96-33.5 70-28 52.5-20.06.5-20.5 88.5-33.02.5-9.03.5-12.03.5-22.5 15.5-20 13-16 21.5-10.02.5-1.52.5.5 26.5 11.5 29 11 23.52.44.53.21.5 15 18 9 27.5 1.5 48-4.5 30-.5 234-30 218.5-23.07.5-8.04.5-9.01.5-32.5 337-91.5 49-18.5 123-43 58-20.5 42-21 31-17.5 27.5-8.5 29.5-4.5 27-.5 84 5.5M2939 2572l-5.5 25.5-19.03.5-50.5 54.5-12.5 9.5-20 3-23-14-11.5-8.5-12-1.5-30 13-19 3-12.5 1-35-5-34.5 1.5-17 .5-10-3.5-11-5-22.5-33.5-10-8-13-3h-34l-27.41-2.92-39.09-4.58-36.5-10.5-42.5-.5-18-3-93-.5-44 4.5-51.07.5-25.5-6.5-21.5-15.5-22-26.5-30-21-8.5-15.5-16-40.5-55.5-48-12-14-9.5-26-5.5-32 8-53.5-12-25-15-5.5-20-.5-17.5 8-68 2" style="fill:none;stroke:#00853e;stroke-width:5;stroke-linecap:butt;stroke-linejoin:round;stroke-miterlimit:4;stroke-opacity:1;stroke-dasharray:none"/><path d="m2189 2616-29 11.5-27.08.5-17.09.5-16.5 22.5-9 20-2.5 27-5.5 28-7.5 17.5-40 60-16.5 31.5-8.5 34-14 69-11 56.5-10.02.5-13.5 23.5-20.02.5-19.5 6-51.5 14-25.5 4M2862 2681l-6 18.5 1.52.8.5 12.51.10.5 18 29 6 17-3 10.5-23 25-15.5 22-4 20-11.5 19.5-66.05.5-10.5 14.5-4 17-3.5 13.5-15.5 12-7.5 12.5-2 24-3.5 20.5-9.5 27.52.26.5-3 17-2.5 17-2.5 26.5-10.5 18-6 12.5.5 17 5.51.13.51.9.5 18 17 32.5 6.5 33 7 50.5 4 51 12 39 24 40 21 27 18 28 4 22.5-2.03.5-9 25-25.5 56-45 47.5M2917.5 2619l20-10 37.01.39" style="fill:none;stroke:#00853e;stroke-width:5;stroke-linecap:butt;stroke-linejoin:round;stroke-miterlimit:4;stroke-opacity:1;stroke-dasharray:none"/><path d="m4320.5 2783 13 12.53.10.5 25 5 12 9 8.5 16 1 19 11 27" style="fill:none;stroke:#f58026;stroke-width:5;stroke-linecap:butt;stroke-linejoin:round;stroke-miterlimit:4;stroke-opacity:1;stroke-dasharray:none"/><path d="m3587.86 2268.39 36.06 74.95" style="fill:none;stroke:#1c3f9f;stroke-width:5;stroke-linecap:butt;stroke-linejoin:round;stroke-miterlimit:4;stroke-opacity:1;stroke-dasharray:none"/><path d="m3892.13 2241.69 6.19-20.02.79-20.37-5.03-61.33-.7-31.18 13.49-49.97-2.14-12.64L3895 2021l-8.5-19-11-23-23.5-36-34.5-34-30.5-25.5-24-26-10-21-11.5-48-7.55-31.99-6.95-39.01" style="fill:none;stroke:#d3a05d;stroke-width:5;stroke-linecap:butt;stroke-linejoin:round;stroke-miterlimit:4;stroke-opacity:1;stroke-dasharray:none"/><path d="m3977 2282.52.19.52.3.5 14.5-3 10-6 22.5-16.05.5-26.5 12-5.5 11-10.5 8.5-5 22-6.5" style="fill:none;stroke:#f386a1;stroke-width:5;stroke-linecap:butt;stroke-linejoin:round;stroke-miterlimit:4;stroke-opacity:1;stroke-dasharray:none"/><path d="m2006.77 2443.05-13.44-2.12h-20.51l-36.77 19.8-74.95 16.26-22.63 9.9-46.67 28.28-65.93 21.41-46.5 16.78-37.48 23.33-31.11 33.94-27.58 24.75-33.23 27.58-33.23 28.28-33.23 43.13-21.92 28.28-18.38 13.44-54.45 17.68-21.21 15.56-9.9 19.09-7.07 24.75v46.67l-9.19 19.8-11.31 16.26-19.8 11.31-35.36 15.56-33.94 7.78-33.94.71-37.48-3.54-50.2-31.11-24.04-9.9-24.04-.71-33.94 9.9M2087 2550l25.5 7.5 15.5-1.01.73-14.18 9.94-9.71" style="fill:none;stroke:#00853e;stroke-width:5;stroke-linecap:butt;stroke-linejoin:round;stroke-miterlimit:4;stroke-opacity:1;stroke-dasharray:none"/><path d="m3575.5 2241.58.28.5 6.5 15.5 16.53.1.5 14.5-7.020.51.5 12.5 7.5 15.5" style="fill:none;stroke:#a2c66b;stroke-width:5;stroke-linecap:butt;stroke-linejoin:round;stroke-miterlimit:4;stroke-opacity:1;stroke-dasharray:none"/><path d="m3574.5 2242.5 1.5-5.5 17-9.5 22.5-11.04.5-15.01.5-10.5 10-34.5 9-22 19.5-18.01.5-22.5 13.5-19.5-9-23.5.5-25.5 22.5-39.5 7-19.5 8-34-8.5-45.5-2-37.5 1.5-16-5-13.5-34.5-34.5-24-32.5-59-73-35-37.5-39-43-12.5-17.5-29-24-66-36" style="fill:none;stroke:#a2c66b;stroke-width:1px;stroke-linecap:butt;stroke-linejoin:round;stroke-opacity:1"/><path d="m3741 1987.5 11-8 13.5-9.5 27.5-36.5 28.5-29 22-16.5 27-25 25.5-30.5 7-16h12l15.5-2.01.5-4.5-7.5-58.02.5-19.5-13.5-5-20.5-10.5-25-49.5 1.5-22.5-13.5-36.01.5-37.5-18-50.5-4.5-12.5.5-23-17.5-41.5M3609.78 2376.93l-.38 3.43-6.69 2.8-16.2 14.87-7.75 15.31-10.44 20.32-9.08 32.32-6.18 36.41-1.25 11.36 2.83 3.89 54.92 2.78 8.56 5.11 9.71-3.64 10.65 5.51 21.96 20.22 3.1 18.46 10.61 35.71.3554.45-2.83 14.85-2.47 60.46 2.83 24.4 9.19 12.37.493.53-15.36 24.41 4.97 16.25 3.54 10.61-13.44 46.32-4.95 67.88 3.89 78.49-10.25 37.12-21.57 77.78 19.45 89.1 4.6 1.06 24.04-5.3 16.97 15.2 47.38 27.93 20.15 6.72 8.13 13.08 3.18 15.91-2.47 8.13-13.44 24.04-23.69 25.1-3.89 22.98 1.41 25.81-11.31 34.65 1.06 25.1 3.18 21.21 15.2 38.89 4.95 27.22" style="fill:none;stroke:#a2c66b;stroke-width:1px;stroke-linecap:butt;stroke-linejoin:round;stroke-opacity:1"/><path d="m3644.78 3208.84 5.66 2.12 21.21-5.3 3.18 2.83 1.41 6.72M3660.42 2547.63l2.52 2.32 17.61 6.64.1.06 20.87 17.29 13.43 10.81 22.99 12.17 23.24 10.65 8.8-.7-1.43 5.76-0.270.5214.31 6.08 10.51 26.23 15.91 39.24 10.96 30.41 10.96 23.33v16.62l-6.72 19.8 2.83 58.34 4.95 50.2 6.72 22.98 6.72 3.89 20.15 2.83 24.04 7.07 20.86-2.12 21.57-1.77 22.63-0.35.47-8.49 27.58 2.83 34.65 13.08 24.4-8.84 70.71-2.47 60.1 14.5 18.03 1.77 15.18-4.5 14.76-8.36 20.69-3.16 13.01-4.49 16.62-1.06 13.76.3819.95-5.58 22.15-8.58 20.15-6.36 12.02 7.42 13.79 14.85 22.27 28.64-2.12 5.3-22.27 27.58-9.9 27.58-1.41 37.12-10.61 9.9v10.25l12.02 44.9 8.49 17.32 3.54 21.57-0.72.19-15.91 22.63-17.68 41.72-20.15 44.9-15.56 44.9-3.54 15.91-8.84 16.26.7162.23-3.54 2.83-41.72-1.06-2.12 14.5-26.87 16.26-9.19 4.95-13.44-3.54" style="fill:none;stroke:#a2c66b;stroke-width:1px;stroke-linecap:butt;stroke-linejoin:round;stroke-opacity:1"/><path d="m4422.25 2942.62-1.06 6.36-18.74 16.62-6.01 12.02-3.54 26.16-2.47 12.73 3.18 21.57-2.83 18.03-1.41 4.95M3680.55 2556.58l46.1-5.55 48.57-4.07 3.78 6.54-3.52.5.02 6.35 2.63 6.68-3.78 7.88-2.49 10.44M3618.11 2525.53l-1.53 23-4.99 8.13L3592 2573l-12.41 33.27-8.09 41.23-21.09.5-6 14-16 19-17-2.5-31 15-34 15.5-21 13-26 26-33 15.5-36 34-41.5 25.5-86.03.5-23 12-29 9.5-36.5 17.5" style="fill:none;stroke:#a2c66b;stroke-width:1px;stroke-linecap:butt;stroke-linejoin:round;stroke-opacity:1"/><text x="-1110.55" y="-7243.04" xml:space="preserve" style="font-size:144px;font-style:normal;font-weight:400;line-height:125%;letter-spacing:0;word-spacing:0;fill:#000;fill-opacity:1;stroke:none;font-family:Sans;-inkscape-font-specification:Sans"><tspan x="-1110.55" y="-7243.04">1940</tspan></text><text x="-1110.55" y="12947.96" xml:space="preserve" style="font-size:144px;font-style:normal;font-weight:400;line-height:125%;letter-spacing:0;word-spacing:0;fill:#000;fill-opacity:1;stroke:none;font-family:Sans;-inkscape-font-specification:Sans"/><path d="m3651 2482.5-12.5 25-1.5 40-3.5 32-9.5 33-19 30-33.5 36.5-6.5 21-.5 26.5-3.02.5-10.5 27-14.5 19-34 19-144.5 84-124.5 86-73.5 50.5-54.5 34.5-67.5 27.5-31.5 13-86.5 26.5-70.5 2-58 7-45 4-56.5-10.5-37-12-34-16.5-23.5-15.5L2456 3052l-70-22.5-53.5-4-60.5 3-41 2.5-47-8-30.5 4-171.5 42.5-38.75 13-73.75 20.75-25.03.25-38-6.5-20.5 2.5-16 9-23 21.5-102.5 117-31 27.5-39 23M3107 3069.5l-14 31-17.5 65-16.5 48-27.5 52.5-79.5 129.5-40.5 68-23.5 48.5-44.01.5-8.26 22.14-24.74 54.61-47.05.75-69.5 67-33.5 35.5-40.04.5-44 28-56 19.5-228.5 71" style="fill:none;stroke:#ee6e73;stroke-width:5;stroke-linecap:butt;stroke-linejoin:round;stroke-miterlimit:4;stroke-opacity:1;stroke-dasharray:none"/><path d="m3353 2600-35.5 73.5-3.02.5 8 31 3.5 31.5-2.5 37.5" style="fill:none;stroke:#88ac95;stroke-width:5;stroke-linecap:butt;stroke-linejoin:round;stroke-miterlimit:4;stroke-opacity:1;stroke-dasharray:none"/><path d="m3540.5 2411.75 29.5 23.75.13.55.20.25 14.25 3.5 29.25-3.75 21-3 53.5 4.5 51-2.5 15-1.5 28-13 22-9 15 .5 21 9 22.5 24.5 36 31 90.5 77 68 49.5 91.5 64.5 94 62 38 22.5" style="fill:none;stroke:#176fc1;stroke-width:5;stroke-linecap:butt;stroke-linejoin:round;stroke-miterlimit:4;stroke-opacity:1;stroke-dasharray:none"/><path d="m4357.25 2782 16 15.5 13.25 21.25 27.25 65.25 31.75 55.5 27 30 47 38 39 25.5 30.5 19.5 5.75 3.47" style="fill:none;stroke:#176fc1;stroke-width:5;stroke-linecap:butt;stroke-linejoin:round;stroke-miterlimit:4;stroke-dasharray:none;stroke-opacity:1"/><path d="m3743 2280 3 62.75 1.5 34.5-2.03.25-0.75.75L3753 2458l9.5 34 10 24.5 2.52.12.5 26.57.22.5-1 29-2.7 11.91" style="fill:none;stroke:#d78eaf;stroke-width:5;stroke-linecap:butt;stroke-linejoin:round;stroke-miterlimit:4;stroke-dasharray:none;stroke-opacity:1"/><path d="m3323 2799-1 79.5v23.5l-10.5 40-7.5 13-12.5 13.75-13.75 9-15.75 5-24.5 5.25-71.05.25-41.5 28.25-18.25 20-9.25 16.75-15.26.2.25 33.76.22.5 42.5 80.5 26.5 53 18 19 19.5 15.5 22.58.54.93 16.9" style="fill:none;stroke:#88ac95;stroke-width:5;stroke-linecap:butt;stroke-linejoin:round;stroke-miterlimit:4;stroke-opacity:1;stroke-dasharray:none"/><path style="fill:none;stroke:#176fc1;stroke-width:5;stroke-linecap:butt;stroke-linejoin:round;stroke-miterlimit:4;stroke-dasharray:none;stroke-opacity:1" d="m4592.53.10.5 12.5 6.5 14.75.14.5L4599 3127l-2 23 12.5 23 26 19 42 27.5 32.53.8.59 8.59 8.44 9.74"/><path style="fill:none;stroke:#00853e;stroke-width:5;stroke-linecap:butt;stroke-linejoin:round;stroke-miterlimit:4;stroke-dasharray:none;stroke-opacity:1" d="m3148 2220.5-26 17-14.5 18-33 31-45.5 41-21.38 9.8-18.12 5.7-46.5 4.5-57.5 9.5-14.08.5-7.02.52.02.5 20 82 12 29.5 8.5 12.5 24.5 24.5 5 8 2.45 6.36"/><path style="opacity:1;fill:none;fill-opacity:1;fill-rule:nonzero;stroke:#118ec6;stroke-width:5;stroke-linecap:butt;stroke-linejoin:round;stroke-miterlimit:4;stroke-dasharray:none;stroke-opacity:1" d="m11637.68 2282.21-54.97-258.22"/><path d="M3956.11 2264.16 3970 2219l11-17 28-14.5 65.5-11.5 59-7 57-5 53-17 46-20 65-13.5 57-19.5 34.5-12.5 47.5-8.02.75-6.75 9.25-7.75 10.25-10.03.5-25.25 46.5-37.03.25-32.5 31.75-42.75 29-33.75" style="fill:none;stroke:#9194b8;stroke-width:5;stroke-linecap:butt;stroke-linejoin:round;stroke-miterlimit:4;stroke-dasharray:none;stroke-opacity:1"/><path d="m4177 2164.5 14-10 8.5-13.5-3-44.5-5.5-45-8-30-3-38.5-.5-30 1.5-39.5 4-30-4.5-23-26.5-81-11-25.5-11-10.5-17.5-20L4075 1613l-23-65.5-15.5-21.5-28.5-30-15-19.5-6.5-25-1.5-25.09.5-26.5 19-34 2.5-27.5-4-26.5-.5-25 5.5-41.5 1.5-79.09.5-25 17-19.5 18-22.5 4-13.5 1-17-6.5-27.5.5-67-7-78.5 7.5-33.5 27-89L4141 635l10-29.5-2.5-23.5-31-88.5-5-52.5-7-23.5-83-160-18.5-33-29-35.5" style="fill:none;stroke:#9194b8;stroke-width:5;stroke-linecap:butt;stroke-linejoin:round;stroke-miterlimit:4;stroke-dasharray:none;stroke-opacity:1"/><path d="m4147.5 1766.5 1.5-18 11-18.5 8.5-20.5 3-24-.5-33.5v-26.5l5-16.5 9.5-16 40-59 18.5-37.02.5-42.02.5-46.5 21-25.5 101-87.5 40-20.5 72.5-14.5 92-15 29-7 20.5-15.02.5-10 17-6.5 14.5-12.5 11.5-17.5 2-25.5-8.5-43.5-17.5-46.5-2.5-34.02.5-53L4731 876l7.5-53.5 12.5-74-.5-28.5-2-41 6-39 18-63 58-94.5" style="fill:none;stroke:#9194b8;stroke-width:5;stroke-linecap:butt;stroke-linejoin:round;stroke-miterlimit:4;stroke-dasharray:none;stroke-opacity:1"/><path style="fill:none;stroke:#88ac95;stroke-width:5;stroke-linecap:butt;stroke-linejoin:round;stroke-miterlimit:4;stroke-dasharray:none;stroke-opacity:1" d="m3925 2464.75 14.75 17.25 122.29 104.15 76.08 56.05 41.2 28.83 24.67 27.98 14.53.6.5 17.5 4.53.2.5 29.5-6.04.5-27.07.5-17.5 42-15 20-24.5 17-15.75 3.5-31.25 3.75-19.25 5.5-22.75 11.25-21.5 4.75-21.04.25-18.01.5-9.02.5-1.5 29.5.512.5-31.5 62.5-28.5 45-34.5 39.5-63.5 55-27.5 35-20 30.5-22.5 57.5-11.25 27.5-11.5 20"/><path d="m4179.33 2671.02 59.54 41.6 24.89 21.92.11.96 22.75.24.5 67.84 13.54 31.84 13.06 35.68 17.84 41.85 10.02 43.98 1.33 37.12-0.23.17-14.14 64.92-18.44 71.85-22.81 46.55-30.59 50.75-45.77 96.28-15.01 38.55-7.44 48.32 7.01 73.09-4.08 37.72-11.05 38.99" style="fill:none;stroke:#88ac95;stroke-width:5;stroke-linecap:butt;stroke-linejoin:round;stroke-miterlimit:4;stroke-dasharray:none;stroke-opacity:1"/><path style="fill:none;stroke:#98005d;stroke-width:5;stroke-linecap:butt;stroke-linejoin:round;stroke-miterlimit:4;stroke-dasharray:none;stroke-opacity:1" d="m154.5 1822 36-23 18-6H230l28-2.5 67.44-32.59 66.06-33.41 62.5-35 22-24.5 13-29 11-47 13-23 18.5-21.08.5-56.07.5-48 57-21.5 173-61L966 1346l43.5-2.5 45.5 1.5 54 10 89 23.5 33 3 32-13 21.5-11 31-25.5 28-19 25-9.5 21.5-5.02.5-1.53.5.5 39.51.26.5 3.5"/></svg>