<?xml version="1.0" encoding="UTF-8" standalone="no"?>
<svg
   xmlns:dc="http://purl.org/dc/elements/1.1/"
   xmlns:cc="http://creativecommons.org/ns#"
   xmlns:rdf="http://www.w3.org/1999/02/22-rdf-syntax-ns#"
   xmlns:svg="http://www.w3.org/2000/svg"
   xmlns="http://www.w3.org/2000/svg"
   xmlns:xlink="http://www.w3.org/1999/xlink"
   version="1.1"
   id="svg2"
   width="1600"
   height="2450"
   viewBox="0 0 1600 2450">
  <metadata
     id="metadata8">
    <rdf:RDF>
      <cc:Work
         rdf:about="">
        <dc:format>image/svg+xml</dc:format>
        <dc:type
           rdf:resource="http://purl.org/dc/dcmitype/StillImage" />
        <dc:title></dc:title>
      </cc:Work>
    </rdf:RDF>
  </metadata>
  <defs
     id="defs6" />
  <image
     style="display:none"
     width="2469"
     height="2279.08"
     preserveAspectRatio="none"
     xlink:href="../basemap/kznosm.png"
     id="image10"
     x="-650"
     y="70.92" />
  <path
     style="opacity:1;fill:none;fill-opacity:0.08;fill-rule:nonzero;stroke:#015428;stroke-width:5;stroke-linecap:butt;stroke-linejoin:round;stroke-miterlimit:4;stroke-dasharray:none;stroke-opacity:1"
     d="m 1362.9,2012 -221.51,-226.04 -14.18,-10.26 -9.66,-2.41 -37.72,2.11 -78.77,-6.64 -62.47,-12.07 -12.67,-8.75 -8.45,-14.18 -31.08,-53.11 -24.75,-35.31 -18.41,-20.22 -53.72,-36.52 -181.37,-155.42 -19.62,-19.62 -23.24,-38.02 -88.72,-69.41 -17.2,-18.11 -6.04,-12.07 -16.6,-35.61 -3.92,-14.49 -10.56,-38.33 0.3,-10.26 7.24,-111.06 -0.91,-17.2 -3.62,-10.86 -29.88,-78.16 -10.56,-12.37 -12.68,-11.17 -32.29,-13.58 -6.04,-6.34 -22.94,-28.07 -19.92,-45.57 -35.01,-56.13 -13.28,-34.1 -1.51,-11.17 8.75,-135.8 12.07,-31.39 12.37,-27.16 1.41,-23.5 -4.34,-38.75 6.25,-128.78"
     id="path817" />
  <path
     style="opacity:1;fill:none;fill-opacity:0.08;fill-rule:nonzero;stroke:#28a6d4;stroke-width:5;stroke-linecap:butt;stroke-linejoin:round;stroke-miterlimit:4;stroke-dasharray:none;stroke-opacity:1"
     d="m 1103.96,2237.79 109.69,-105.64"
     id="path819" />
  <path
     style="opacity:1;fill:none;fill-opacity:0.08;fill-rule:nonzero;stroke:#28a6d4;stroke-width:1;stroke-linecap:butt;stroke-linejoin:round;stroke-miterlimit:4;stroke-dasharray:none;stroke-opacity:1"
     d="m 1213.64,2132.15 62.24,-60.84"
     id="path821" />
  <path
     style="opacity:1;fill:none;fill-opacity:0.08;fill-rule:nonzero;stroke:#28a6d4;stroke-width:5;stroke-linecap:butt;stroke-linejoin:round;stroke-miterlimit:4;stroke-dasharray:none;stroke-opacity:1"
     d="m 1275.88,2071.31 135.08,-129.32 16,-17.07 7.04,-9.39 5.55,-15.36 1.49,-20.06 1.07,-141.69"
     id="path823" />
  <path
     style="opacity:1;fill:none;fill-opacity:0.08;fill-rule:nonzero;stroke:#28a6d4;stroke-width:1;stroke-linecap:butt;stroke-linejoin:round;stroke-miterlimit:4;stroke-dasharray:none;stroke-opacity:1"
     d="m 1442.11,1738.41 0.64,-86.42"
     id="path825" />
  <path
     style="opacity:1;fill:none;fill-opacity:0.08;fill-rule:nonzero;stroke:#28a6d4;stroke-width:5;stroke-linecap:butt;stroke-linejoin:round;stroke-miterlimit:4;stroke-dasharray:none;stroke-opacity:1"
     d="m 1442.75,1651.99 1.92,-186.08 0.64,-119.71 -0.21,-8.11 -4.27,-12.59 -5.12,-14.08 -17.28,-27.74 -38.84,-59.75 -14.72,-22.62 -80.66,-119.29 -18.35,-26.89 -6.83,-7.26 -11.31,-7.26 -126.76,-46.95 -5.33,-3.2 -8.72,-7.9 -37.99,-48.57 -11.08,-10.45 -91.79,-50.44 -103.18,-49.32 -14.93,-6.19 -18.24,-2.55 -234.84,-0.22"
     id="path827" />
  <path
     style="opacity:1;fill:none;fill-opacity:0.08;fill-rule:nonzero;stroke:#28a6d4;stroke-width:1;stroke-linecap:butt;stroke-linejoin:round;stroke-miterlimit:4;stroke-dasharray:none;stroke-opacity:1"
     d="M 597.1,812.76 418.21,813.35"
     id="path829" />
  <path
     style="opacity:1;fill:none;fill-opacity:0.08;fill-rule:nonzero;stroke:#28a6d4;stroke-width:5;stroke-linecap:butt;stroke-linejoin:round;stroke-miterlimit:4;stroke-dasharray:none;stroke-opacity:1"
     d="m 419.05,815.35 -48.6,0.75 -30.31,6.2 -11.95,6.17 -36.81,22.51 -52.82,37.46"
     id="path831" />
  <path
     style="opacity:1;fill:none;fill-opacity:0.08;fill-rule:nonzero;stroke:#28a6d4;stroke-width:1;stroke-linecap:butt;stroke-linejoin:round;stroke-miterlimit:4;stroke-dasharray:none;stroke-opacity:1"
     d="m 237.93,886.54 -15.79,12.59 -4.27,9.18 -1.49,16.64 -13.23,97.52 -0.85,15.36 -7.47,122.06 -1.07,7.26 -3.63,7.26 -33.5,40.76 -0.64,2.99 1.49,2.99 34.78,25.61 11.74,6.4 135.08,40.97 9.39,5.55 18.14,13.23 32.86,44.81 5.76,20.06"
     id="path833" />
  <text
     style="font-style:normal;font-weight:normal;font-size:144px;font-family:Sans;-inkscape-font-specification:Sans;fill:#000000;fill-opacity:1;stroke:none"
     xml:space="preserve"
     id="text3652"
     y="206.96"
     x="89.45"><tspan
       id="tspan1"
       y="206.96"
       x="89.45">2015</tspan></text>
  <path
     id="path2079"
     d="m 1106.24,973.58 -33.5,-41.61 -11.8,-12.32 -91.81,-50.5 -100.85,-48.2 -17.38,-7.16 -20.12,-3.79 -236.06,-0.21"
     style="opacity:1;fill:none;fill-opacity:0.08;fill-rule:nonzero;stroke:#ff0066;stroke-width:5;stroke-linecap:butt;stroke-linejoin:round;stroke-miterlimit:4;stroke-dasharray:none;stroke-opacity:1" />
  <path
     id="path2081"
     d="m 1106.24,973.58 2.21,1.47 3.79,-3.16 12.22,-33.39 -2,-3.79 -4.32,0.11 -1.58,3.9 -0.84,6.85 v 17.17"
     style="opacity:1;fill:none;fill-opacity:0.08;fill-rule:nonzero;stroke:#ff0066;stroke-width:1;stroke-linecap:butt;stroke-linejoin:round;stroke-miterlimit:4;stroke-dasharray:none;stroke-opacity:1" />
  <path
     id="path2083"
     d="M 596.73,811.78 418.39,812.31"
     style="opacity:1;fill:none;fill-opacity:0.08;fill-rule:nonzero;stroke:#ff0066;stroke-width:1;stroke-linecap:butt;stroke-linejoin:round;stroke-miterlimit:4;stroke-dasharray:none;stroke-opacity:1" />
  <path
     id="path2085"
     d="m 418.92,810.41 -48.98,1.05 -31.39,6 -14.11,7.58 -34.97,21.8 -53.62,37.5"
     style="opacity:1;fill:none;fill-opacity:0.08;fill-rule:nonzero;stroke:#ff0066;stroke-width:5;stroke-linecap:butt;stroke-linejoin:round;stroke-miterlimit:4;stroke-dasharray:none;stroke-opacity:1" />
  <path
     id="path2087"
     d="m 237.85,885.41 -3.79,2.63 -4.21,-2.74 -11.27,-9.69 -8.64,-4.11 -0.74,-4.85 17.49,-34.02 4.21,-59.62 7.58,-5.69 5.27,-10.43 1.69,-6.11 -1.26,-9.48 1.79,-27.91 6.74,-104.7 3.48,-8.74 12.11,-17.49 5.06,-4 7.16,-2.84 4.21,-4.95 1.26,-7.48 -7.16,-40.13 -4.42,-37.29 4.21,-89.85 4.42,-4.74 10.64,-0.32 3.48,-2.21 48.75,-72.65 8.34,-2.98 8.34,1.19 27.41,18.77 5.36,0.3 28.9,-4.77 5.36,-1.49 6.26,-12.51 11.92,-17.28 26.52,-30.39"
     style="opacity:1;fill:none;fill-opacity:0.08;fill-rule:nonzero;stroke:#ff0066;stroke-width:1;stroke-linecap:butt;stroke-linejoin:round;stroke-miterlimit:4;stroke-dasharray:none;stroke-opacity:1" />
</svg>
