<?xml version="1.0" encoding="UTF-8" standalone="no"?>
<svg
   version="1.1"
   id="svg2"
   width="1600"
   height="2450"
   viewBox="0 0 1600 2450"
   xmlns:xlink="http://www.w3.org/1999/xlink"
   xmlns="http://www.w3.org/2000/svg"
   xmlns:svg="http://www.w3.org/2000/svg"
   xmlns:rdf="http://www.w3.org/1999/02/22-rdf-syntax-ns#"
   xmlns:cc="http://creativecommons.org/ns#"
   xmlns:dc="http://purl.org/dc/elements/1.1/">
  <metadata
     id="metadata8">
    <rdf:RDF>
      <cc:Work
         rdf:about="">
        <dc:format>image/svg+xml</dc:format>
        <dc:type
           rdf:resource="http://purl.org/dc/dcmitype/StillImage" />
      </cc:Work>
    </rdf:RDF>
  </metadata>
  <defs
     id="defs6" />
  <image
     xlink:href="../basemap/kznosm.png"
     y="70.92"
     x="-650"
     id="image10"
     preserveAspectRatio="none"
     height="2279.08"
     width="2469"
     style="display:none" />
  <path
     style="opacity:1;fill:none;fill-opacity:0.08;fill-rule:nonzero;stroke:#015428;stroke-width:5;stroke-linecap:butt;stroke-linejoin:round;stroke-miterlimit:4;stroke-dasharray:none;stroke-opacity:1"
     d="m 1362.9,2012 -221.51,-226.04 -14.18,-10.26 -9.66,-2.41 -37.72,2.11 -78.77,-6.64 -62.47,-12.07 -12.67,-8.75 -8.45,-14.18 -31.08,-53.11 -24.75,-35.31 -18.41,-20.22 -53.72,-36.52 -181.37,-155.42 -19.62,-19.62 -23.24,-38.02 -88.72,-69.41 -17.2,-18.11 -6.04,-12.07 -16.6,-35.61 -3.92,-14.49 -10.56,-38.33 0.3,-10.26 7.24,-111.06 -0.91,-17.2 -3.62,-10.86 -29.88,-78.16 -10.56,-12.37 -12.68,-11.17 -32.29,-13.58 -6.04,-6.34 -22.94,-28.07 -19.92,-45.57 -35.01,-56.13 -13.28,-34.1 -1.51,-11.17 8.75,-135.8 12.07,-31.39 12.37,-27.16 1.41,-23.5 -4.34,-38.75 6.25,-128.78"
     id="path817" />
  <path
     style="opacity:1;fill:none;fill-opacity:0.08;fill-rule:nonzero;stroke:#28a6d4;stroke-width:5;stroke-linecap:butt;stroke-linejoin:round;stroke-miterlimit:4;stroke-dasharray:none;stroke-opacity:1"
     d="m 1213.64,2132.15 -109.69,105.64 -1.93,2.06"
     id="path819" />
  <path
     style="opacity:1;fill:none;fill-opacity:0.08;fill-rule:nonzero;stroke:#28a6d4;stroke-width:1;stroke-linecap:butt;stroke-linejoin:round;stroke-miterlimit:4;stroke-dasharray:none;stroke-opacity:1"
     d="m 1213.64,2132.15 62.24,-60.84"
     id="path821" />
  <path
     style="opacity:1;fill:none;fill-opacity:0.08;fill-rule:nonzero;stroke:#28a6d4;stroke-width:5;stroke-linecap:butt;stroke-linejoin:round;stroke-miterlimit:4;stroke-dasharray:none;stroke-opacity:1"
     d="m 1275.88,2071.31 135.08,-129.32 16,-17.07 7.04,-9.39 5.55,-15.36 1.49,-20.06 1.07,-141.69"
     id="path823" />
  <path
     style="opacity:1;fill:none;fill-opacity:0.08;fill-rule:nonzero;stroke:#28a6d4;stroke-width:1;stroke-linecap:butt;stroke-linejoin:round;stroke-miterlimit:4;stroke-dasharray:none;stroke-opacity:1"
     d="m 1442.11,1738.41 0.64,-86.42"
     id="path825" />
  <path
     style="opacity:1;fill:none;fill-opacity:0.08;fill-rule:nonzero;stroke:#28a6d4;stroke-width:5;stroke-linecap:butt;stroke-linejoin:round;stroke-miterlimit:4;stroke-dasharray:none;stroke-opacity:1"
     d="m 1442.75,1651.99 1.92,-186.08 0.64,-119.71 -0.21,-8.11 -4.27,-12.59 -5.12,-14.08 -17.28,-27.74 -38.84,-59.75 -14.72,-22.62 -80.66,-119.29 -18.35,-26.89 -6.83,-7.26 -11.31,-7.26 -126.76,-46.95 -5.33,-3.2 -8.72,-7.9 -37.99,-48.57 -11.08,-10.45 -91.79,-50.44 -103.18,-49.32 -14.93,-6.19 -18.24,-2.55 -234.84,-0.22"
     id="path827" />
  <path
     style="opacity:1;fill:none;fill-opacity:0.08;fill-rule:nonzero;stroke:#28a6d4;stroke-width:1;stroke-linecap:butt;stroke-linejoin:round;stroke-miterlimit:4;stroke-dasharray:none;stroke-opacity:1"
     d="M 597.1,812.76 418.21,813.35"
     id="path829" />
  <path
     style="opacity:1;fill:none;fill-opacity:0.08;fill-rule:nonzero;stroke:#28a6d4;stroke-width:5;stroke-linecap:butt;stroke-linejoin:round;stroke-miterlimit:4;stroke-dasharray:none;stroke-opacity:1"
     d="m 419.05,815.35 -48.6,0.75 -30.31,6.2 -11.95,6.17 -36.81,22.51 -52.82,37.46"
     id="path831" />
  <path
     style="opacity:1;fill:none;fill-opacity:0.08;fill-rule:nonzero;stroke:#28a6d4;stroke-width:1;stroke-linecap:butt;stroke-linejoin:round;stroke-miterlimit:4;stroke-dasharray:none;stroke-opacity:1"
     d="m 237.93,886.54 -15.79,12.59 -4.27,9.18 -1.49,16.64 -13.23,97.52 -0.85,15.36 -7.47,122.06 -1.07,7.26 -3.63,7.26 -33.5,40.76 -0.64,2.99 1.49,2.99 34.78,25.61 11.74,6.4 135.08,40.97 9.39,5.55 18.14,13.23 32.86,44.81 5.76,20.06 8.54,2.02 8.07,12.56 3.08,5.91 16.63,16.12 1.99,5.76 29.84,32.3 8.4,1.38 150.84,273.77 3.42,2.57 12.38,8.31 1.65,4.17 4.25,52.3 6.32,21.21 -1.12,21.12 23.84,109.34 13.64,158.4 3.15,2.66 100.66,2.36 3.42,2.95 -4.78,143.23 0.01,6.47 -13.13,16.69 -0.71,5.51"
     id="path833" />
  <text
     style="font-style:normal;font-weight:normal;font-size:144px;font-family:Sans;-inkscape-font-specification:Sans;fill:#000000;fill-opacity:1;stroke:none"
     xml:space="preserve"
     id="text3652"
     y="206.96"
     x="89.45"><tspan
       id="tspan1"
       y="206.96"
       x="89.45">2025</tspan></text>
  <path
     style="opacity:1;fill:none;fill-opacity:0.14;fill-rule:nonzero;stroke:#28a6d4;stroke-width:5;stroke-linecap:butt;stroke-linejoin:round;stroke-miterlimit:4;stroke-dasharray:none;stroke-opacity:1"
     d="m 1102.03,2239.84 -30.81,30.65 -16.18,14.78 -12.45,7.78 -16.18,7.93 -9.02,2.49 -4.98,0.62 -73.46,-0.39 -83.26,-0.05 -30.44,-0.59 -38.2,-5.17 -2.81,-3.28 1.38,-9.76"
     id="path848" />
</svg>
