<?xml version="1.0" encoding="UTF-8" standalone="no"?>
<svg
   xmlns:dc="http://purl.org/dc/elements/1.1/"
   xmlns:cc="http://creativecommons.org/ns#"
   xmlns:rdf="http://www.w3.org/1999/02/22-rdf-syntax-ns#"
   xmlns:svg="http://www.w3.org/2000/svg"
   xmlns="http://www.w3.org/2000/svg"
   xmlns:xlink="http://www.w3.org/1999/xlink"
   version="1.1"
   id="svg2"
   width="8550"
   height="7200"
   viewBox="-1750 -900 8550 7200">
  <metadata
     id="metadata8">
    <rdf:RDF>
      <cc:Work
         rdf:about="">
        <dc:format>image/svg+xml</dc:format>
        <dc:type
           rdf:resource="http://purl.org/dc/dcmitype/StillImage" />
        <dc:title></dc:title>
      </cc:Work>
    </rdf:RDF>
  </metadata>
  <defs
     id="defs6" />
  <image
     xlink:href="../streetmap/wuhosm.png"
     y="-167.46655"
     x="-100"
     id="image10"
     preserveAspectRatio="none"
     height="4067.4666"
     width="4358"
     style="display:none" />
  <path
     style="fill:none;fill-rule:evenodd;stroke:#3c86c5;stroke-width:5;stroke-linecap:butt;stroke-linejoin:round;stroke-miterlimit:4;stroke-dasharray:none;stroke-opacity:1"
     d="m 149,1433 6,98 9.5,14.5 10.5,12.5 16.5,7.5 28.5,-1 336.5,-20.5 18.5,5.5 16.5,13 62,91.5 15,14.5 28.5,10 77.5,25.5 436.5,258 53,42 28.5,20 85.5,45 61.5,57 38,28 65,38 19.5,7 18.5,2.5 19,0.5 12,5.5 16,10.5 24,26 13.5,11.5 32,14 12.5,6 18.5,1 126,-29 83.5,-24 280,-140.5 207.5,-212 20,-32.5 16.5,-34 112,-177.5 12,-45.5 150.5,-252.5 28.5,-41 47,-110 116.1365,-364.47856"
     id="path4508" />
  <text
     x="-1660.5469"
     y="-693.03906"
     id="text3817"
     xml:space="preserve"
     style="font-style:normal;font-weight:normal;font-size:144px;line-height:125%;font-family:Sans;-inkscape-font-specification:Sans;letter-spacing:0px;word-spacing:0px;fill:#000000;fill-opacity:1;stroke:none"><tspan
       x="-1660.5469"
       y="-693.03906"
       id="tspan1">2010</tspan></text>
  <text
     style="font-style:normal;font-weight:normal;font-size:144px;font-family:Sans;-inkscape-font-specification:Sans;fill:#000000;fill-opacity:1;stroke:none"
     xml:space="preserve"
     id="text3914-4"
     y="6083.6836"
     x="-1660.5469"><tspan
       id="tspan2"
       y="6083.6836"
       x="-1660.5469">2010</tspan></text>
</svg>
