<?xml version="1.0" encoding="UTF-8" standalone="no"?>
<svg
   xmlns:dc="http://purl.org/dc/elements/1.1/"
   xmlns:cc="http://creativecommons.org/ns#"
   xmlns:rdf="http://www.w3.org/1999/02/22-rdf-syntax-ns#"
   xmlns:svg="http://www.w3.org/2000/svg"
   xmlns="http://www.w3.org/2000/svg"
   xmlns:xlink="http://www.w3.org/1999/xlink"
   viewBox="0 0 4200 3650"
   height="3650"
   width="4200"
   id="svg2"
   version="1.1">
  <metadata
     id="metadata8">
    <rdf:RDF>
      <cc:Work
         rdf:about="">
        <dc:format>image/svg+xml</dc:format>
        <dc:type
           rdf:resource="http://purl.org/dc/dcmitype/StillImage" />
        <dc:title></dc:title>
      </cc:Work>
    </rdf:RDF>
  </metadata>
  <defs
     id="defs6" />
  <image
     xlink:href="../streetmap/wuhosm.png"
     y="-167.46655"
     x="-100"
     id="image10"
     preserveAspectRatio="none"
     height="4067.4666"
     width="4358"
     style="display:none" />
  <path
     id="path4506"
     d="m 531.81564,3526.4311 56.45463,-80.033 421.81543,-589.3687 153.5321,-257.9569 71.1707,-193.7897 19.4595,-40.4919 56.6848,-84.3314 85.9622,-109.8655 39.6159,-39.9872 33.5419,-65.0489 10.7363,-7.9502 15.3352,-6.9882 143.2313,-81.4299 44.0782,-19.2093 12.6915,-8.7515 8.2794,-10.6883 28.512,-129.2335 8.9998,-20.9675 22.5443,-20.6439 42.2826,-14.0942 26.4253,-23.5822 62.1668,-13.3312 h 47.6518 l 44.296,-14.7653 15.2088,3.3715 17.9249,9.5737 25.5177,39.5404 18.7611,13.8716 47.18,10.3055 69.0363,4.6059 22.8381,-6.0667 18.4364,-26.879 57.7191,-87.9209 234.9033,-230.2052 5.3692,-16.7788 6.0404,-56.3768 -8.725,-46.9807 -27.5173,-57.0479 -28.1883,-104.0286 -1.3424,-24.1615 28.8596,-126.84766 0.6711,-34.2288 -8.0538,-20.1346 -15.5076,-21.05587 -24.9855,-16.39753 -76.3414,-12.25006 -184.2132,-31.22955 -12.5092,-9.9864 -44.6361,-110.72509"
     style="fill:none;fill-rule:evenodd;stroke:#d4b063;stroke-width:5;stroke-linecap:butt;stroke-linejoin:round;stroke-miterlimit:4;stroke-dasharray:none;stroke-opacity:1" />
  <path
     id="path4510"
     d="M 364.721,2383.9232 617.5,2380.5 694,2366 l 147,3.5 85,-15 32,-11 20.5,-8.5 13.5,-1.5 19,3.5 71.5,29 74,18.5 133,50.5 173,50 115.5,22 134.5,56.5 34,8.5 33.5,4 17.5,-5.5 77.5,-23.5 29.5,-5 33,2.5 23,5.721 5.1442,9.9608 5.8558,113.8182 9.5,13 22.5,13 81.5,64 21.2349,13.2006 177.9236,39.4828 42.3415,4.3166 50.5,15.5 112,4.5 98,16 15.5,8.5 16,14.5 17.5,13 24.5,9 18.5,6.5 46.5,-20 13,-0.5 52,4.5 14.5,-5.5 10,-9.5 21,-52 75,-168.5 62.7696,-134.9906 L 3237,2186.5 l 81.5,-102.5 47.5,-25.5 11.5,-15 7.5,-24 -2,-17 -18.5,-64 -2.5,-15 -1,-16 8,-17.5 14.5,-17.5 61.5,-40.5 143.5,-75.5 19.3032,-6.6208 207.3471,-39.0422 32.6459,-1.0486 17.4763,7.4105 49.3499,28.9702 33.8964,6.6193 50.9812,-15.279 71.2116,-19.384"
     style="fill:none;fill-rule:evenodd;stroke:#8ec921;stroke-width:5;stroke-linecap:butt;stroke-linejoin:round;stroke-miterlimit:4;stroke-dasharray:none;stroke-opacity:1" />
  <path
     id="path4537"
     d="m 1663.5108,1052.1004 12.4036,29.3652 3.5378,27.1742 -16.6462,74.2597 -3.8779,37.1658 -1.7677,53.7401 14.1421,45.9619 59.7505,161.9275 13.0815,13.0814 35.3553,13.7886 11.3137,10.9602 20.8597,48.0832 39.9515,38.8909 7.7782,15.9099 23.3345,75.6604 47.7297,90.1562 3.182,90.5096 -6.0104,85.9135 35.3553,117.0262 10.6066,13.7885 17.6777,9.546 17.6777,4.9497 20.5061,0.7071 38.5373,-12.3743 70.3571,-27.9307 9.1924,-8.4853 12.0208,-14.4957 17.6777,-10.6066 29.3449,0.3535 13.7886,6.0104 94.0452,88.3884 45.002,58.6679 10.9089,8.881 200.4153,81.6506 12.3744,12.0208 3.8891,12.728 3.1819,17.6776 -5.6568,13.4351 -25.8094,41.0122 -39.598,85.2063 -2.8284,22.981 0.7071,16.9706 8.1317,8.4852 14.4957,8.8389 44.1942,8.1317 45.2548,12.0208 h 38.1838 l 35.3553,10.2531 30.4056,11.6672 77.0747,38.5373 33.5875,7.0711 22.6274,15.2028 21.9204,26.5165 13.0814,15.9099 3.182,18.7383 -70.7107,158.392 4.2427,14.1421 10.9601,7.4246 15.9099,6.364 25.1023,1.4142 23.6881,7.7782 299.8133,109.248 25.8094,11.6672 60.1041,49.8511 13.0814,21.9203 7.0711,26.87 4.5962,33.5876 15.2028,33.5876 32.5269,39.9515 100.0556,74.9533 18.3848,6.7175 133.9967,3.8891 88.0348,-14.8492"
     style="fill:none;fill-rule:evenodd;stroke:#ec7baf;stroke-width:5;stroke-linecap:butt;stroke-linejoin:round;stroke-miterlimit:4;stroke-dasharray:none;stroke-opacity:1" />
  <path
     id="path4508"
     d="m 149,1433 6,98 9.5,14.5 10.5,12.5 16.5,7.5 28.5,-1 336.5,-20.5 18.5,5.5 16.5,13 62,91.5 15,14.5 28.5,10 77.5,25.5 436.5,258 53,42 28.5,20 85.5,45 61.5,57 38,28 65,38 19.5,7 18.5,2.5 19,0.5 12,5.5 16,10.5 24,26 13.5,11.5 32,14 12.5,6 18.5,1 126,-29 83.5,-24 280,-140.5 207.5,-212 20,-32.5 16.5,-34 112,-177.5 12,-45.5 150.5,-252.5 28.5,-41 47,-110 159,-499.00001 5.5,-26 7,-213 -7.5,-38 -54.5,-143.5 -13.5,-19.5 -100.5,-128.5"
     style="fill:none;fill-rule:evenodd;stroke:#3c86c5;stroke-width:5;stroke-linecap:butt;stroke-linejoin:round;stroke-miterlimit:4;stroke-dasharray:none;stroke-opacity:1" />
  <text
     style="font-style:normal;font-weight:normal;font-size:144px;font-family:Sans;-inkscape-font-specification:Sans;fill:#000000;fill-opacity:1;stroke:none"
     xml:space="preserve"
     id="text3914"
     y="206.96097"
     x="89.453094"><tspan
       id="tspan1"
       y="206.96097"
       x="89.453094">2015</tspan></text>
</svg>
