<?xml version="1.0" encoding="UTF-8" standalone="no"?>
<svg
   id="svg2"
   height="5100"
   width="3250"
   viewBox="-50, 0, 3250, 5100"
   version="1.1"
   xml:space="preserve"
   xmlns:xlink="http://www.w3.org/1999/xlink"
   xmlns="http://www.w3.org/2000/svg"
   xmlns:svg="http://www.w3.org/2000/svg"
   xmlns:rdf="http://www.w3.org/1999/02/22-rdf-syntax-ns#"
   xmlns:cc="http://creativecommons.org/ns#"
   xmlns:dc="http://purl.org/dc/elements/1.1/"><metadata
     id="metadata8"><rdf:RDF><cc:Work
         rdf:about=""><dc:format>image/svg+xml</dc:format><dc:type
           rdf:resource="http://purl.org/dc/dcmitype/StillImage" /></cc:Work></rdf:RDF></metadata><defs
     id="defs6" /><image
     xlink:href="../streetmap/caiosm.png"
     id="image10"
     height="5258.25"
     width="3213.375"
     y="-158.25"
     x="-160"
     style="display:none" /><path
     style="fill:none;stroke:#eb151f;stroke-width:5;stroke-linecap:butt;stroke-linejoin:round;stroke-miterlimit:4;stroke-dasharray:none;stroke-opacity:1"
     id="path3006"
     d="m 686.5,740 43.5,58 9,27.5 28,38 3,13.5 -2.5,15.5 -11.5,38 -3,20.5 -24.5,58 0.5,13 7.5,24 -9,12.5 -9,24.5 -0.54393,162.3864 2.25534,65.1433 -3.88738,333.0061 -2.93074,33.975 1.628,15.6472 14.22222,13.0374 3.25649,8.8046 -1.5,55.5 1,15.5 4.5,19.5 3.02731,30.8219 L 738,1878 l -8.5,23 -17,39.5 -7.65296,18.3621 -11.4584,7.1138 -122.24992,16.0905 -95.24235,12.3078 -55.71167,35.761 -16.13804,6.0562 -281,72 -14.65854,4.7574 -10.104933,11.6094 L 92,2137.5 91.894786,2155.782 97,2171 l 32,70 44,159.5 13,41 26,52.5 10,40.5 2.5,88.5 6.5,43.5 3,113.5 1.5,62.5 3.5,28 14,39.5 26.5,43" /><path
     style="fill:none;stroke:#308ccb;stroke-width:5;stroke-linecap:butt;stroke-linejoin:round;stroke-miterlimit:4;stroke-dasharray:none;stroke-opacity:1"
     id="path3776"
     d="m 1954.5,142.5 -9,24 0.5,52.5 -28,112 -8,39 -12,25 -22.5,23 -96.5,91 -23,25.5 -19,28 -19,40 -70.5,156 -19,38.5 -3.5,19 6,87.5 -1,34 -5.5,24 -16.5,33 -43,65 -37.5,52 -16.5,35.5 -16,29.5 -49.5,72 -28.5,24 -144.5,131.5 -128,66 -65.5,38 -18.5,15 -43.5,45 -22,15 -104.5,51.5 -147.5,66.5 -12.5,10 -16.74714,29.2745 L 598,1869.5 l -20,33.5 1,30 7.17541,22.588 4.28051,23.9359 L 609.5,2008 l 10.5,21 9,35.5 -26.5,120.5 -12,18 -26.18759,32.7725 L 558,2258 l -5.5,36 -4.5,25.5 -32.5,129 -1,23.5 3,52 -15,86.5 -3,36.5 3,26 23,45 31,36.5 33,42.5 103.5,159.5 114.5,187.5 136.5,216 22,27 29,24 92.5,64 28,22 22.5,20.5 23.5,34 42,85.5 89,176.5 18.5,23 36.5,38.5 11.5,20.5 198.5,471 95,196 86.5,140 47,78.5 104.5,138.5 10.5,19 1,39" /><path
     id="path4236"
     d="m 764.12356,1841.1241 23.29699,11.9479 23.4686,8.4132 10.80517,-0.037 8.27125,-4.3241 102.64831,-95.2198 35.23046,-32.6971 56.61276,-32.1334 111.0933,-46.2305 7.7626,-7.1196 158.1319,-180.3968 9.9177,-4.1732 11.7376,2.2674 72.5333,61.7281 12.2924,13.5385 10.4421,4.5556 17.2972,-2.0245 29.7744,-12.3251 31.6718,-8.4435 75.0284,-30.0496 12.1558,1.3506 69.5577,44.571 14.5461,3.4094 19.8951,-8.8119 105.0793,-66.6039 4.3222,-8.3564 5.4025,-36.4672 32.4153,-58.7526 -1.3507,-14.857 -7.4285,-46.5969 -14.1816,-27.0127 -15.5323,-19.5843 -8.7797,-17.6429 -2.6836,-12.1696 3.1984,-10.0238 91.4587,-108.1802 64.494,-62.4627 3.7102,-8.0159 27.5665,-196.46303 9.5504,-19.10087 41.0669,-35.33661 83.077,-56.33827 18.3016,-9.17334 41.2985,-11.8345 53.8699,-9.48412 30.0768,-8.19176 61.2748,-8.41821 27.7644,-3.72435 234.5354,-95.13686 14.5813,-7.37157 11.2699,-8.49922 37.7678,-36.76829 19.8334,-13.96374 110.7829,-36.41606 21.0521,-14.507 128.6209,-44.67702 18.6402,-2.65526 29.0817,-0.58134 42.2489,-12.65773 67.0458,-3.42344"
     style="fill:none;fill-rule:evenodd;stroke:#0caf45;stroke-width:5;stroke-linecap:butt;stroke-linejoin:round;stroke-miterlimit:4;stroke-dasharray:none;stroke-opacity:1" /><text
     style="font-style:normal;font-weight:normal;font-size:144px;line-height:125%;font-family:Sans;-inkscape-font-specification:Sans;letter-spacing:0px;word-spacing:0px;fill:#000000;fill-opacity:1;stroke:none"
     xml:space="preserve"
     id="text3788"
     y="4997.9609"
     x="39.453125"><tspan
       id="tspan2"
       y="4997.9609"
       x="39.453125">2020</tspan></text><text
     style="font-style:normal;font-weight:normal;font-size:144px;line-height:125%;font-family:Sans;-inkscape-font-specification:Sans;letter-spacing:0px;word-spacing:0px;fill:#000000;fill-opacity:1;stroke:none"
     xml:space="preserve"
     id="text3792"
     y="206.96075"
     x="39.453125"><tspan
       id="tspan1"
       y="206.96075"
       x="39.453125">2020</tspan></text></svg>
