<svg xmlns="http://www.w3.org/2000/svg" height="5650" width="10550"><path d="M4550.84 2820.007l-2.915 16.905 2.074 10.826 28.587 67.795 7.315 10.303 9.876 6.902 158.626 32.034L4857 2972l15.5 10 15 32 3 19.5 2 34-17.755 51.929-23.726 83.915-17.174 71.91-39.675 126.324-13.879 42.165-9.791 43.757 1.846 10.13 13.524 23.26 8.809 4.658 31.019 5.33 67.42 22.356 33.528 4.797 28.897 20.035 66.439 33.555 11.235 11.096L5292 3761l22.73 16.373 20.504 21.185 39.16 32.76L5389 3837.5l11.5-3.5 7.5-9.5 13.25-25 1.5-63.5 5.25-9.5 16.5-6.5 96.843-11.672 16.317 2.996 100.656 54.628 12.684.854 19.01-4.941 33.49-7.865 88.722-29.258 96.71-2.984 8.564-5.957 12.184-21.799 14.36-36.481 11.6-10.674 86.118-33.135L6136 3574.5l175.31-66.157L6351 3501l16 4.5 26.5 24 21.5 14.5 16 5 45.5-1 17.74-2.438 11.639 3.703 418.983 204.73 13.225 1.587 16.4 1.587 13.226-1.587" fill="none" stroke="#009cd8" stroke-width="5" stroke-linejoin="round"/><path d="M5800.5 1983v110l-6.5 10.5-14.5 10.5-47.5 22-38.5 10.5-84 46.5-65.5 47-48.5 25-37 23-43 32.5-3 8-6.5 65.5 1 147.5-5 19.5-40.5 117.5-28 69-35 144-3 27.5 10.5 39 3.5 59 19 38 12 38-2.5 12.5-20.5 34.5-1 20.5-17.5 38.5-9.5 31.5-16.5 31.5 2 20 7.309 13.817L5469.5 3477.5l9.5 18 4.5 20.5.5 19-5 17.5-61 152.5-1.5 138.5-4 9.5-20 28.5-5.5 26v42.5l-.048 17.859 12.135 32.233-1.138 55.743-3.413 36.784-4.171 48.159-6.12 9.019-95.508 44.07-28.44 1.896-67.5 22.374-7.963 6.067-16.685 28.061-58.02 31.475-23.89 9.859-30.522 26.36-15.016 13.406-9.117 3.754-33.786-8.848-46.388-22.792h-19.038l-29.227 10.993-34.323 8.85-8.58 9.116-42.366 58.455-137.557 230.333-10.457 9.92-32.981 14.212-9.117 10.458-27.619 46.12-13.675 32.445-10.457 25.205-43.44 33.518" fill="none" stroke="#00944b" stroke-width="5" stroke-linejoin="round"/><path d="M5935.5 3573.5l-25-29-13-7-13.5-3.5-31.5 1-12-4.5-34-17.5-20.5-4-130 1-10-1-11-5-6.5-4-32-34-4.5-7-2-17-4-244 3.5-26.5v-57l-6-26-2-174.5 9-48.5 4.5-39.5 6.5-116.5-2-47.5 4-65.5 7.5-24 20.5-19.5 24-12 61-30 13-12.5 9.5-12.5 7.5-16.5 80-349 13.5-20.5 17.5-13 72-33 33.5-5.5 21 2 83 21h18.5l22.5-3.5 26.5-7 40-15 30.5-6 29 2 33 4.5 27-6.5 30-9.5 183-94.5 24.5-11 80.5-20 43.5-16.5 105-23 29-3 47.5-19.5 17.5-2 103.5 19 31.5-5.5 23-7.5 48-31.5 17-12.5 128-146.5 18.5-14.5 17.5-5.5 220.5-.5 16-4 34.5-20.5 21-6.5 34-.5 57.5-14.5 42-37.5 136.5-82 24.5-9 502 2.5 36.5-2.5 106.5-27 28.5-.5 255.5 2 27-4 23-12 367.5-229 24.5-9 33.5.5 88 33 26 4 122 5.5 46 10.5h18l23.5-5.5 73.5-39 30.5-9.5 95-9.5 31.5 11.5 115 35 25.5 1.5 37.5-11 92-30 88.5-2 21-6 82.5-46.5 118.5-46.5 31-8 29.5-12.5" fill="none" stroke="#e0007c" stroke-width="5" stroke-linejoin="round"/><path d="M7700.5 1531.5l9.5-12.5 3-15-3.5-16.5-9.5-10.5-119.5-114.5-20-25.5-62.5-81-59.5-67-29-15-17-21.5-28.5-41.5-12.5-33-14-17-26.5-22.5-79.5-44.5-13-12-37.5-43.5-23.5-33-16-15.5-34-27.5-26-31.5-8.5-17-4-38-5-20.5 1-46-6.5-47.5 4-17.5L7078 608l7.5-50 16-22 29.5-42 2-22.5-12.5-84.5 4.5-22 39-75 82-117.5 7-16.5 14-54" fill="none" stroke="#e0007c" stroke-width="5" stroke-linejoin="round"/><text style="-inkscape-font-specification:Sans" y="206.96094" x="89.453125" font-weight="400" font-size="144px" font-family="Sans"><tspan y="206.96094" x="89.453125">2020</tspan></text><text style="-inkscape-font-specification:Sans" y="5547.9609" x="89.453125" font-weight="400" font-size="144px" font-family="Sans"/><path d="M4539.955 4783.538l-27.76 20.95-23.06 7.777-31.372-10.19-40.19-39.722-22.019-32.675L4345 4697l-91-44-30-4.5-58.5-.5-48-21.5-80.5-9-80.662-21.248-45.124-21.64-32.718-6.259L3843 4573.5l-123.5 49-12.5 10-20 26.5-85.5 142.5-65 57.5-61.033 43.903-56.062 31.099L3376.5 4950l-102 44.5-23.5-2.5-20-13-13-18.5-3.5-14-1.5-60-14-33.5-17-22-17-6-34 3.5-17-7-41.5-17.5-58-14-52.5-6.5-67.583 15.553-89.3 26.447-25.617 9.5-57.5 2-32-5-18 3.5-23 12-20.5 16-15.515 18.817L2603 4944l-14.5 29.5-1 18.5 2.5 33-1 23.5-3.5 12.5-16.5 12.5-64 28.5-58-3.5-30-10.5-45-11-45.5-22.46-24-.54-129.5-8-29-4.5-21.5-16-123.5-124-24-11.5-92-15-16-6.5-20.5-17-96-99.5-28.5-19-28-8.5-28-2-75 9.5-17 10.5-26.5 18.5-29 11-69.5 1-11.5 4-76.5 36-17 19.5-20.5 27-21 11-86 23.5-41.5 4-20.5 10.5-107 79.5-47 56-37.5 22.5-15 14.5-11.5 22-21 80-16.5 26.5-15.5 15.5-37.5 20-16 12-17.5 20-34.5 93.5-25 41-18 27-18.5 16.5-21.5 12-26.5 5.5-59-2.5-30.5-13.5-118.5-56.5-25-3.5-59 2-30-6L277 5369l-33.5-7-76.5-8.5-44.5 2" fill="none" stroke="#4d4399" stroke-width="5" stroke-linejoin="round"/></svg>