<?xml version="1.0" encoding="UTF-8" standalone="no"?>
<svg
   xmlns:dc="http://purl.org/dc/elements/1.1/"
   xmlns:cc="http://creativecommons.org/ns#"
   xmlns:rdf="http://www.w3.org/1999/02/22-rdf-syntax-ns#"
   xmlns:svg="http://www.w3.org/2000/svg"
   xmlns="http://www.w3.org/2000/svg"
   xmlns:xlink="http://www.w3.org/1999/xlink"
   version="1.1"
   width="7600"
   height="5400"
   viewBox="0, 0, 7600, 5400"
   id="svg2">
  <metadata
     id="metadata8">
    <rdf:RDF>
      <cc:Work
         rdf:about="">
        <dc:format>image/svg+xml</dc:format>
        <dc:type
           rdf:resource="http://purl.org/dc/dcmitype/StillImage" />
        <dc:title></dc:title>
      </cc:Work>
    </rdf:RDF>
  </metadata>
  <defs
     id="defs6" />
  <image
     xlink:href="./../streetmap/rioosm.png"
     id="image10"
     height="5596.2002"
     width="7772.5"
     y="-96.200073"
     x="-172.5"
     style="display:none" />
  <path
     d="M 6094.1301,3696.5025 6120,3697 l 31,0.5 20,10.5 52,65.5 16,38 21.5,24.5 32.5,56.5 19.5,31 38.5,37.5 11,23 3,25 -0.5,29.5 18,33.5 21,22 30.5,24.5 44.5,11.5 48.5,6 63,8 60.5,-13.5 21.5,2.5 28.5,10 82.9412,24.0541 58.1319,23.3641 14.7357,14.7338"
     id="path2987"
     style="fill:none;stroke:#00a63f;stroke-width:5;stroke-linecap:butt;stroke-linejoin:round;stroke-miterlimit:4;stroke-dasharray:none;stroke-opacity:1" />
  <path
     d="m 7176,4756.5 2,-92 8.5,-29 23,-19 39,-28.5 13,-17.5 9,-27.5 -6,-83 12,-43.5 5,-35 -6,-35.5 4,-32.5 18.5,-76.5 7,-36 3,-25 -9.5,-24.5 -30,-47.5 -38.5,-67 -16.5,-12 -30.5,-4.5 -127,48.5 -25.5,16.5 -55.5,31.5 -49,32.5 -51.5,31 -42.5,35 -21.5,6.5 -37,11 -94.5,41.5 -38.5,21 -19,4.5 -30.5,1.5 -17,4 -57,26.5 -31,24"
     id="path3757"
     style="fill:none;stroke:#ff8701;stroke-width:5;stroke-linecap:butt;stroke-linejoin:round;stroke-miterlimit:4;stroke-dasharray:none;stroke-opacity:1" />
  <text
     x="89.453133"
     y="206.96094"
     id="text3759"
     xml:space="preserve"
     style="font-style:normal;font-weight:normal;font-size:143.99993896px;line-height:125%;font-family:Sans;-inkscape-font-specification:Sans;letter-spacing:0px;word-spacing:0px;fill:#000000;fill-opacity:1;stroke:none"><tspan
       x="89.453133"
       y="206.96094"
       id="tspan1">1985</tspan></text>
  <text
     x="89.453125"
     y="5297.9609"
     id="text3763"
     xml:space="preserve"
     style="font-style:normal;font-weight:normal;font-size:144px;line-height:125%;font-family:Sans;-inkscape-font-specification:Sans;letter-spacing:0px;word-spacing:0px;fill:#000000;fill-opacity:1;stroke:none"><tspan
       x="89.453125"
       y="5297.9609"
       id="tspan2">1985</tspan></text>
  <path
     d="m 7447.5,4773 -27,66.5"
     id="path3767"
     style="fill:none;stroke:#000000;stroke-width:5;stroke-linecap:butt;stroke-linejoin:round;stroke-miterlimit:4;stroke-dasharray:none;stroke-opacity:1" />
  <path
     d="M 7456.5,4765 7569,4737"
     id="path3769"
     style="fill:none;stroke:#000000;stroke-width:5;stroke-linecap:butt;stroke-linejoin:round;stroke-miterlimit:4;stroke-dasharray:none;stroke-opacity:1" />
  <path
     style="fill:none;fill-rule:evenodd;stroke:#ffcc00;stroke-width:5;stroke-linecap:butt;stroke-linejoin:round;stroke-miterlimit:4;stroke-dasharray:none;stroke-opacity:1"
     d="m 7250.9718,4133.4441 2.5281,9.6066 -9.6066,15.6739 -12.1347,43.4826"
     id="path5400" />
  <path
     style="fill:none;fill-rule:evenodd;stroke:#ffcc00;stroke-width:1px;stroke-linecap:butt;stroke-linejoin:round;stroke-opacity:1"
     d="m 7232.2642,4199.6791 -3.0337,5.0562 -9.101,6.5729 -2.0224,12.1347 3.0337,8.5954 -2.0225,3.5392 -7.0785,2.5281 -7.0786,0.5056 -6.0673,-4.0449 -11.1235,-9.101 -10.1122,0.5056 -6.573,6.573 0.5057,20.73 4.0448,4.0449 10.1123,4.0449 5.0561,4.0449 -0.5056,6.0674 -6.0674,10.6178 -12.1346,4.5505 -3.0337,4.0449 -0.5056,13.6515 -9.6066,8.5954 -9.6066,-1.5169"
     id="path5402" />
  <path
     id="path831"
     d="m 6803.253,4776.8341 -14.9155,-0.2528 -11.3763,5.0561 -8.3426,1.7696 h -5.8145 l -7.0785,-5.0561 -3.5393,-5.5617 -0.7584,-5.5618 2.528,-5.5617 -0.7584,-3.7921 -11.1235,-10.365 -5.8145,-6.0673 -7.5842,-11.8819 -7.5841,-4.0449 -8.3426,-2.528 -5.0561,-7.3314 -1.7697,-6.0673 2.2753,-21.9941 4.5505,-8.3426 10.1122,-2.7809 h 7.3314 l 6.3201,5.0561 3.5393,6.8258 19.2132,14.4099 11.6291,1.264 8.8482,3.0337 10.8706,0.7584 10.6179,-6.8257 21.4884,-8.3426 8.0898,1.264 9.101,5.5617 h 8.0898 l 6.573,-4.0449 6.3201,-10.6178 10.365,-5.8145 7.5842,0.7584 7.3314,8.3426 8.3426,7.3313 7.8369,3.7921 7.837,-2.0224 14.9155,-5.5617 6.573,-6.8258 3.0337,-10.8706 7.5841,-9.101 4.0449,-9.3539 8.3426,-6.8257 12.1347,-7.3314 3.7921,-10.1122 5.0561,-28.3142"
     style="opacity:1;fill:none;fill-opacity:1;fill-rule:nonzero;stroke:#9e0b0f;stroke-width:5;stroke-linecap:butt;stroke-linejoin:round;stroke-miterlimit:4;stroke-dasharray:none;stroke-opacity:1" />
  <path
     d="m 7065.5,4036.5 -118.5,26.5 -86.5,52.5 -31,8 -129,13.5 -42.5,-14 -69.5,14.5 -124,-15.5 -26.5,-7 -39,-34 -70,-59.5 -44.5,-20 -40,-5 -85,9 -106.5,5.5 -71,10.5 -60.5,21.5 -14.5,7 -13.5,-1 -12,-9 -79.5,-83 -21,-12 -50.5,-12.5 -81.5,-20.5 h -130.5 l -18.5,-6.5 -56.5,-34 -41,-38 -26,-24 -22.5,-5.5 -39.4999,7.5 -21,5.5 -63,-16 -21,-10 -15,-16 -20,-30.5 -28.5,-30.5 -54,-34 -102.5,-69.5 -184,-120.5 -64,-38 -35,-11.5 -54.5,-8 -41.5,-14 -119.5,-64 -139.1201,-65.5852"
     id="path2991"
     style="fill:none;stroke:#01b1ae;stroke-width:5;stroke-linecap:butt;stroke-linejoin:round;stroke-miterlimit:4;stroke-dasharray:none;stroke-opacity:1" />
</svg>
