<?xml version="1.0" encoding="UTF-8" standalone="no"?>
<svg
   xmlns:dc="http://purl.org/dc/elements/1.1/"
   xmlns:cc="http://creativecommons.org/ns#"
   xmlns:rdf="http://www.w3.org/1999/02/22-rdf-syntax-ns#"
   xmlns:svg="http://www.w3.org/2000/svg"
   xmlns="http://www.w3.org/2000/svg"
   xmlns:xlink="http://www.w3.org/1999/xlink"
   version="1.1"
   width="7700"
   height="5950"
   viewBox="0, 0, 7700, 5950"
   id="svg2">
  <metadata
     id="metadata8">
    <rdf:RDF>
      <cc:Work
         rdf:about="">
        <dc:format>image/svg+xml</dc:format>
        <dc:type
           rdf:resource="http://purl.org/dc/dcmitype/StillImage" />
        <dc:title></dc:title>
      </cc:Work>
    </rdf:RDF>
  </metadata>
  <defs
     id="defs6" />
  <image
     xlink:href="./../streetmap/rioosm.png"
     id="image10"
     height="5596.2002"
     width="7772.5"
     y="-96.200073"
     x="-172.5"
     style="display:none" />
  <path
     d="M 6094.1301,3696.5025 6120,3697 l 31,0.5 20,10.5 52,65.5 16.4381,36.9213 21.2853,24.13 35.0075,56.5594 12.7624,24.8496 L 6351,3961 l 11,23 3,25 -0.5,29.5 18,33.5 21,22 30.5,24.5 13.2339,5.8858 35.4947,7.2361 50.8607,2.8998 54.8683,7.8965 59.2319,-12.1001 13.0832,-0.2878 L 6672,4133 l 25.9247,8.6114 16.4652,0.8366 13.4568,-0.7124 17.2903,1.9339 29.5559,8.3383 57.4534,34.7723 12.9868,1.9789 31.1855,1.6322"
     id="path2987"
     style="fill:none;stroke:#00a63f;stroke-width:5;stroke-linecap:butt;stroke-linejoin:round;stroke-miterlimit:4;stroke-dasharray:none;stroke-opacity:1" />
  <path
     d="m 7176,4756.5 2,-92 8.5,-29 23,-19 39,-28.5 13,-17.5 9,-27.5 -6,-83 12,-43.5 5,-35 -6,-35.5 4,-32.5 18.5,-76.5 7,-36 3,-25 -9.5,-24.5 -30,-47.5 -38.5,-67 -16.5,-12 -30.5,-4.5 -127,48.5 -25.5,16.5 -55.5,31.5 -49,32.5 -51.5,31 -42.5,35 -21.5,6.5 -37,11 -94.5,41.5 -38.5,21 -19,4.5 -30.5,1.5 -17,4 -57,26.5 -31,24"
     id="path3757"
     style="fill:none;stroke:#ff8701;stroke-width:5;stroke-linecap:butt;stroke-linejoin:round;stroke-miterlimit:4;stroke-dasharray:none;stroke-opacity:1" />
  <text
     x="89.453133"
     y="206.96094"
     id="text3759"
     xml:space="preserve"
     style="font-style:normal;font-weight:normal;font-size:143.99993896px;line-height:125%;font-family:Sans;-inkscape-font-specification:Sans;letter-spacing:0px;word-spacing:0px;fill:#000000;fill-opacity:1;stroke:none"><tspan
       x="89.453133"
       y="206.96094"
       id="tspan1">1985</tspan></text>
  <text
     x="89.453125"
     y="5847.9609"
     id="text3763"
     xml:space="preserve"
     style="font-style:normal;font-weight:normal;font-size:144px;line-height:125%;font-family:Sans;-inkscape-font-specification:Sans;letter-spacing:0px;word-spacing:0px;fill:#000000;fill-opacity:1;stroke:none"><tspan
       x="89.453125"
       y="5847.9609"
       id="tspan2">1985</tspan></text>
  <path
     d="m 7447.5,4773 -27,66.5"
     id="path3767"
     style="fill:none;stroke:#000000;stroke-width:5;stroke-linecap:butt;stroke-linejoin:round;stroke-miterlimit:4;stroke-dasharray:none;stroke-opacity:1" />
  <path
     d="m 7467.7665,4767.3417 98.7589,-23.9275"
     id="path3769"
     style="fill:none;stroke:#000000;stroke-width:5;stroke-linecap:butt;stroke-linejoin:round;stroke-miterlimit:4;stroke-dasharray:none;stroke-opacity:1" />
  <path
     d="m 7065.5,4036.5 -108.6397,22.2506 -34.67,15.8557 -61.6903,40.8937 -31,8 -129,13.5 -39.2968,-11.946 -13.9534,0.3597 -58.7498,12.0863 -124,-15.5 -25.7576,-8.8274 -34.6574,-26.1794 L 6329,4021.5 l -44.5,-20 -40,-5 -85,9 -106.5,5.5 -71,10.5 -60.5,21.5 -14.5,7 -13.5,-1 -12,-9 -79.5,-83 -21,-12 -50.5,-12.5 -81.5,-20.5 h -130.5 l -18.5,-6.5 -56.5,-34 -41,-38 -26,-24 -22.5,-5.5 -39.4999,7.5 -21,5.5 -63,-16 -21,-10 -15,-16 -20,-30.5 -28.5,-30.5 -54,-34 -102.5,-69.5 -184,-120.5 -64,-38 -35,-11.5 -54.5,-8 -41.5,-14 -119.5,-64 -139.1201,-65.5852"
     id="path2991"
     style="fill:none;stroke:#01b1ae;stroke-width:5;stroke-linecap:butt;stroke-linejoin:round;stroke-miterlimit:4;stroke-dasharray:none;stroke-opacity:1" />
</svg>
