<?xml version="1.0" encoding="UTF-8" standalone="no"?>
<svg
   xmlns:dc="http://purl.org/dc/elements/1.1/"
   xmlns:cc="http://creativecommons.org/ns#"
   xmlns:rdf="http://www.w3.org/1999/02/22-rdf-syntax-ns#"
   xmlns:svg="http://www.w3.org/2000/svg"
   xmlns="http://www.w3.org/2000/svg"
   xmlns:xlink="http://www.w3.org/1999/xlink"
   version="1.1"
   id="svg2"
   width="1010"
   height="850"
   viewBox="0 0 1010 850">
  <metadata
     id="metadata8">
    <rdf:RDF>
      <cc:Work
         rdf:about="">
        <dc:format>image/svg+xml</dc:format>
        <dc:type
           rdf:resource="http://purl.org/dc/dcmitype/StillImage" />
        <dc:title></dc:title>
      </cc:Work>
    </rdf:RDF>
  </metadata>
  <defs
     id="defs6" />
  <image
     style="display:none"
     width="6752"
     height="8252.4443"
     preserveAspectRatio="none"
     xlink:href="file:///home/lexande/timelines/timelines/streetmap/../../timelines/streetmap/bjsosm.png"
     id="image10"
     x="-2750"
     y="-3877.4443" />
  <path
     style="opacity:1;fill:#808080;fill-opacity:1;fill-rule:nonzero;stroke:none;stroke-width:2.19791675;stroke-linecap:butt;stroke-linejoin:round;stroke-miterlimit:4;stroke-dasharray:none;stroke-opacity:1"
     d="M 63.8301,798.431 567.0412,780.947 807.9925,771.658 963.03178,766.38658 934.2051,52.083 233.7526,66.835 146.879,108.36 48.5315,141.142 Z"
     id="path817" />
  <path
     style="opacity:1;fill:#aaeeff;fill-opacity:1;fill-rule:nonzero;stroke:none;stroke-width:2.19791675;stroke-linecap:butt;stroke-linejoin:round;stroke-miterlimit:4;stroke-dasharray:none;stroke-opacity:1"
     d="m 412.9636,617.034 9.2883,10.381 5.4637,1.64 -0.5463,26.226 -25.1333,20.762 -7.6492,-4.918 -14.2058,4.918 -12.0202,-4.918 -10.9275,-29.504 v -20.216 l 11.4739,-18.03 6.5564,-1.639 33.8753,10.381 4.371,-11.474 -19.6695,-18.577 -4.9174,-9.834 v -32.783 l 7.1029,-34.968 8.742,-13.659 2.1855,-34.968 -5.4638,-18.031 -10.9274,-19.669 -9.8348,-53.545 7.1029,-19.123 17.484,-2.732 21.3086,-17.484 9.8347,-19.669 18.5768,-7.103 -0.5464,19.123 1.0927,6.556 v 23.495 l 3.8247,27.865 -9.8347,15.298 -4.9174,1.639 8.1956,28.412 -2.1855,12.567 -12.5667,14.205 -5.4637,-5.464 h -9.2884 l 2.1855,20.763 10.3812,1.092 2.1854,14.206 -4.371,16.938 -14.7521,2.185 3.2783,22.948 14.2057,2.732 -0.5463,3.824 -3.2783,0.547 -4.9174,38.792 -2.1855,34.968 -8.7419,3.279 z"
     id="path821" />
  <path
     style="opacity:1;fill:#aaeeff;fill-opacity:1;fill-rule:nonzero;stroke:none;stroke-width:2.19791675;stroke-linecap:butt;stroke-linejoin:round;stroke-miterlimit:4;stroke-dasharray:none;stroke-opacity:1"
     d="m 267.0815,78.855 18.0303,5.464 25.1333,3.825 3.2782,33.328 19.1231,16.938 6.5565,-21.855 56.2766,31.143 v 7.103 l 13.1131,7.103 37.1534,31.69 45.3491,21.855 7.6493,38.246 -27.3188,14.752 -0.5464,20.216 -7.6492,-6.01 -9.8347,-20.216 -0.5464,-15.298 31.1433,-14.753 2.1856,-6.556 -7.103,-12.567 -69.9359,-19.123 -14.2057,-14.205 -6.5566,-12.021 -43.7099,-13.659 -28.4115,-19.123 -10.3811,-13.66 -22.4014,-15.844 H 267.6279 L 259.9786,88.69 Z"
     id="path819" />
  <path
     style="opacity:1;fill:#808080;fill-opacity:1;fill-rule:nonzero;stroke:none;stroke-width:2.19791675;stroke-linecap:butt;stroke-linejoin:round;stroke-miterlimit:4;stroke-dasharray:none;stroke-opacity:1"
     d="m 388.923,619.314 11.1539,2.411 3.5045,7.462 -5.37,7.517 -6.0101,7.103 -2.1855,-6.557 -6.0102,-3.824 -1.5453,-9.355 z"
     id="path823" />
  <path
     style="opacity:1;fill:#808080;fill-opacity:1;fill-rule:nonzero;stroke:none;stroke-width:2.19791675;stroke-linecap:butt;stroke-linejoin:round;stroke-miterlimit:4;stroke-dasharray:none;stroke-opacity:1"
     d="m 418.8042,430.415 19.3172,3.09 5.0226,-7.727 3.0907,-12.363 -1.5454,-10.431 -6.1816,-13.522 -16.9991,1.932 -10.8177,12.363 3.8634,18.931 z"
     id="path825" />
  <path
     style="opacity:1;fill:#aaeeff;fill-opacity:1;fill-rule:nonzero;stroke:none;stroke-width:2.19791675;stroke-linecap:butt;stroke-linejoin:round;stroke-miterlimit:4;stroke-dasharray:none;stroke-opacity:1"
     d="m 511.9134,587.271 0.1932,9.079 -48.4863,1.738 -7.18143,-149.78761 118.83513,-4.75039 6.1816,149.129 -47.3273,2.125 -0.5796,-9.465 39.0209,-1.546 -4.2498,-131.17496 -103.06298,4.36344 6.09028,131.44852 z"
     id="path827" />
  <path
     id="path822"
     d="M 262.00029,55.722082 247.67464,37.257906 191.64541,34.711123 98.36949,81.826607 93.91262,104.11096 95.504359,115.25313 178.59315,82.463303 233.34898,61.133996 Z"
     style="opacity:1;fill:#aaeeff;fill-opacity:1;fill-rule:nonzero;stroke:none;stroke-width:5;stroke-linecap:butt;stroke-linejoin:round;stroke-miterlimit:4;stroke-dasharray:none;stroke-opacity:1" />
</svg>
