<?xml version="1.0" encoding="UTF-8" standalone="no"?>
<!-- Created with Inkscape (http://www.inkscape.org/) -->

<svg
   xmlns:dc="http://purl.org/dc/elements/1.1/"
   xmlns:cc="http://creativecommons.org/ns#"
   xmlns:rdf="http://www.w3.org/1999/02/22-rdf-syntax-ns#"
   xmlns:svg="http://www.w3.org/2000/svg"
   xmlns="http://www.w3.org/2000/svg"
   xmlns:xlink="http://www.w3.org/1999/xlink"
   version="1.1"
   width="3500"
   height="3030"
   viewBox="0, 0, 3500, 3030"
   id="svg2">
  <metadata
     id="metadata8">
    <rdf:RDF>
      <cc:Work
         rdf:about="">
        <dc:format>image/svg+xml</dc:format>
        <dc:type
           rdf:resource="http://purl.org/dc/dcmitype/StillImage" />
        <dc:title></dc:title>
      </cc:Work>
    </rdf:RDF>
  </metadata>
  <defs
     id="defs6" />
  <image
     xlink:href="file:///home/alexander/timelines/timelines/dub/../streetmap/dubosm.png"
     x="-100"
     y="6.6666698"
     width="3628"
     height="3023.3333"
     id="image10"
     style="display:none" />
  <path
     d="m 3199.5,2963.4999 -20.5,-50.5 -7.5,-28 -6.5,-31.5 -11,-21 -15.5,-24.5 -12,-24 -78.5,-312 -4,-25.5 0,-85.5 4,-25.5 27,-65 3,-46 5.5,-87.5 7.5,-39.5 27.5,-47 17.5,-40.5 10,-11 58.5,-32.5 14,-10 12.5,-12.5 4.5,-24 -5.5,-13.5 -13.5,-19 -14,-11 -185.5,-86.5 -42,-21.5 -13.5,-10.5 -9.5,-15.5 -3,-21.5 -0.5,-32 6,-21 1.5,-14 -6.5,-17.5 -17.5,-26 -32,-35.5 -31,-19.5 -21,-7.5 -25,-2.5 -51.5,8 -31.5,6 -16.5,-0.5 -19.5,-3.5 -23.5,-8.5 -59.5,-35.5 -43.5,-23.5 -57.5,-21.5 -45,-24 -137,-97.5 -81.5,-89 -74,-81.5 -75.5,-95 -80,-103.99998 -55,-66.5 -25.5,-23 -55.5,-40 -29.5,-14.5 -38.5,-16.5 -12.5,-13.5 -25.5,-37.5 -2,-21 5.5,-16 11,-14.5 26,-21.5 32,-19 100,-83 116.5,-102.5 90.5,-76.5 25,-14 62,-32.5 56,-44 40,-31.5 29.5,-15.5 71.5,-23 66,-18.5 38,-16 46,-27.5 34.5,-33 59,-71.999998 L 2726,72 l 35.5,2 39.5,3.5 88.5,6 157.5,-9 30,2 204.5,9 64.5,9 97,27"
     id="path3025"
     style="fill:none;stroke:#232986;stroke-width:5;stroke-linecap:butt;stroke-linejoin:round;stroke-miterlimit:4;stroke-opacity:1;stroke-dasharray:none" />
  <text
     x="89.453125"
     y="2927.9609"
     id="text3819"
     xml:space="preserve"
     style="font-size:144px;font-style:normal;font-weight:normal;line-height:125%;letter-spacing:0px;word-spacing:0px;fill:#000000;fill-opacity:1;stroke:none;font-family:Sans;-inkscape-font-specification:Sans"><tspan
       x="89.453125"
       y="2927.9609"
       id="tspan2">1995</tspan></text>
  <text
     x="89.453125"
     y="206.96094"
     id="text3823"
     xml:space="preserve"
     style="font-size:144px;font-style:normal;font-weight:normal;line-height:125%;letter-spacing:0px;word-spacing:0px;fill:#000000;fill-opacity:1;stroke:none;font-family:Sans;-inkscape-font-specification:Sans"><tspan
       x="89.453125"
       y="206.96094"
       id="tspan1">1995</tspan></text>
</svg>
