<?xml version="1.0" encoding="UTF-8" standalone="no"?>
<svg
   xmlns:dc="http://purl.org/dc/elements/1.1/"
   xmlns:cc="http://creativecommons.org/ns#"
   xmlns:rdf="http://www.w3.org/1999/02/22-rdf-syntax-ns#"
   xmlns:svg="http://www.w3.org/2000/svg"
   xmlns="http://www.w3.org/2000/svg"
   xmlns:xlink="http://www.w3.org/1999/xlink"
   viewBox="-100 0 2600 1400"
   height="1400"
   width="2600"
   id="svg2"
   version="1.1">
  <metadata
     id="metadata8">
    <rdf:RDF>
      <cc:Work
         rdf:about="">
        <dc:format>image/svg+xml</dc:format>
        <dc:type
           rdf:resource="http://purl.org/dc/dcmitype/StillImage" />
        <dc:title></dc:title>
      </cc:Work>
    </rdf:RDF>
  </metadata>
  <defs
     id="defs6" />
  <image
     xlink:href="../streetmap/crlosm.png"
     width="2365"
     height="1505"
     preserveAspectRatio="none"
     id="image10"
     x="25"
     y="-30"
     style="display:none" />
  <path
     id="path2309"
     d="m 478.5311,1182.7132 5.20143,6.0404 3.85912,1.0067 35.40328,-1.0067 7.71825,-3.188 10.57065,-6.8793 95.80698,-3.8591 13.08747,3.6913 43.28931,26.6783 13.25526,3.6914 14.59756,-0.839 31.54415,-3.3557 20.47014,-4.1948 9.56392,2.1813 8.38941,6.3759 41.27586,40.437 9.89949,5.3692 48.49075,15.7721 18.96005,2.349 14.59756,-2.1813 16.7788,-7.2148 41.94702,-35.0677 8.55719,-4.5303 8.22165,-2.5168 40.2691,-4.3625 59.7325,-21.4769 53.4443,-20.913 3.9745,0.4617"
     style="opacity:1;fill:none;fill-opacity:0.39607843;fill-rule:nonzero;stroke:#716b9f;stroke-width:5;stroke-linecap:butt;stroke-linejoin:round;stroke-miterlimit:4;stroke-dasharray:none;stroke-opacity:1" />
  <path
     id="path1503"
     d="m 1756.2542,1050.7288 -28,-5.4576 -18.0339,-5.6949 -11.3898,-11.6271 -10.4407,-5.4577 -30.1356,-2.3729 -4.2711,3.0848 -3.5594,4.7458 -25.9002,60.1316 -5.7048,3.6913 -7.5505,2.1812 -104.7125,-4.1845 -2.8608,-1.0908"
     style="opacity:1;fill:none;fill-opacity:0.396078;fill-rule:nonzero;stroke:#716b9f;stroke-width:5;stroke-linecap:butt;stroke-linejoin:round;stroke-miterlimit:4;stroke-dasharray:none;stroke-opacity:1" />
  <path
     id="path836"
     d="m 1738.1862,1202.2035 -6.7286,2.288 -13.1695,-3.0847 -5.4576,-4.2712 -2.6101,-7.5932 -10e-5,-31.7966 2.6102,-6.4068 8.3051,-9.4915 3.5593,-5.2204 4.5085,-20.8813 29.4237,-51.4916"
     style="opacity:1;fill:none;fill-opacity:0.396078;fill-rule:nonzero;stroke:#716b9f;stroke-width:5;stroke-linecap:butt;stroke-linejoin:round;stroke-miterlimit:4;stroke-dasharray:none;stroke-opacity:1" />
  <path
     id="path3503"
     d="m 296.14549,1187.4113 -171.47939,6.8793"
     style="opacity:1;fill:none;fill-opacity:0.39607843;fill-rule:nonzero;stroke:#716b9f;stroke-width:1;stroke-linecap:butt;stroke-linejoin:round;stroke-miterlimit:4;stroke-dasharray:none;stroke-opacity:1" />
  <text
     style="font-style:normal;font-weight:normal;font-size:143.99993896px;line-height:125%;font-family:Sans;-inkscape-font-specification:Sans;letter-spacing:0px;word-spacing:0px;fill:#000000;fill-opacity:1;stroke:none"
     xml:space="preserve"
     id="text2994"
     y="206.96094"
     x="-10.5469"><tspan
       id="tspan1"
       y="206.96094"
       x="-10.5469">1990</tspan></text>
  <path
     id="path2311"
     d="m 1157.4368,1175.1816 3.5818,0.4481 54.3712,-20.2738 23.017,-10.322 149.8474,-58.6102 17.4407,-3.6779 95.0533,4.4737 2.9467,1.4585"
     style="opacity:1;fill:none;fill-opacity:0.39607843;fill-rule:nonzero;stroke:#716b9f;stroke-width:1;stroke-linecap:butt;stroke-linejoin:round;stroke-miterlimit:4;stroke-dasharray:none;stroke-opacity:1" />
  <path
     id="path2343"
     d="m 1756.2542,1050.7288 13.8254,2.1165 25.2521,3.1879"
     style="opacity:1;fill:none;fill-opacity:0.39607843;fill-rule:nonzero;stroke:#716b9f;stroke-width:5;stroke-linecap:butt;stroke-linejoin:round;stroke-miterlimit:4;stroke-dasharray:none;stroke-opacity:1" />
  <path
     style="opacity:1;fill:none;fill-opacity:0.39607843;fill-rule:nonzero;stroke:#716b9f;stroke-width:1;stroke-linecap:butt;stroke-linejoin:round;stroke-miterlimit:4;stroke-dasharray:none;stroke-opacity:1"
     d="m 478.53096,1182.7133 -2.6846,-1.5101 -179.70101,6.2082"
     id="path4126" />
  <path
     style="opacity:1;fill:none;fill-opacity:0.39607843;fill-rule:nonzero;stroke:#716b9f;stroke-width:1;stroke-linecap:butt;stroke-linejoin:round;stroke-miterlimit:4;stroke-dasharray:none;stroke-opacity:1"
     d="m 124.66603,1194.2907 -17.44988,0.8388 -134.397814,3.5248"
     id="path856-3" />
  <path
     style="opacity:1;fill:none;fill-opacity:0.396078;fill-rule:nonzero;stroke:#716b9f;stroke-width:5;stroke-linecap:butt;stroke-linejoin:round;stroke-miterlimit:4;stroke-dasharray:none;stroke-opacity:1"
     d="m 1758.6271,1064.2542 5.8316,-8.8921 2.0974,-1.5101 3.5235,-1.0067"
     id="path2253" />
</svg>
