<svg viewBox="0, -3443, 5050, 8550" height="8550" width="5050" xmlns="http://www.w3.org/2000/svg"><path style="fill:none;stroke:#00c000;stroke-width:5;stroke-linecap:butt;stroke-linejoin:round;stroke-miterlimit:4;stroke-opacity:1;stroke-dasharray:none" d="m638.31 4742.66-3.07-59.06 5.37-11.51 21.48-33.75 9.97-19.18.77-22.24-1.53-75.94 5.37-27.61 13.81-49.09-1.53-36.82-20.71-42.95-43.72-41.42-15.34-21.48-14.57-37.58-2.3-37.58-.77-223.97 4.6-144.97 9.97-52.16 23.01-61.36 35.38-60.49 75-120.5 51.5-68.5 92-144.5 72-111 128.5-200.5 64-92.5 34.5-48.5 43-42.5 126.5-101.01.5-116.04.5-39 36-24 38-22 70.5-36.5 30-20 29-24 33-31.5 67.5-76.5 69-76 20-27.5 17-31.5 15.5-40 10-31.5 6-42 .5-40.5-6.5-133-1.5-45.03.5-40.5 12-30.5 18.5-38.04.5-49.5 116.5-159.5 68-92.5 30.5-52.5 17-45 28-72 28.5-53.5 32-48.5 101-106.5 86.5-90.5 39-27.5 180-57 82.4-22.47 68.58-37.52L2993 809l66.5-55.5 80-70 43-26 47.74-3.85 38.95 14.18 33.1 23.11 25.44 36.48 24.14 35.62 5.68 100.57 2.1 52.13L3405.5 976l44 19.5 29.5 2 35-10 110-51.5 179.5-87.5 63-39 80-65L4069 645l293.5-232 61-48.5 29-16 248-85 46.5-7.5 53.5-5.5 93-29L4930 207"/><path style="fill:none;stroke:#00f;stroke-width:5;stroke-linecap:butt;stroke-linejoin:round;stroke-miterlimit:4;stroke-opacity:1;stroke-dasharray:none" d="M630.5 4741.5 626 4690l4.5-16.02.5-19.5 11.5-17.75 9.75-19.5.57-18.75-1.32-78.05.5-29.75 15.5-52 8-16.75 34.5-36.5 26-30.5 5.5-18 3-30-1.5-28.5 12-37.5-8.5-43.5L736 4066l3-16.5 7-15.5 71.5-57.04.5-35 26-28.5 26-68.5 11.5-36.5 1-45-2.5-61.05.5-39.5 18-44 53-68.5 11-29-.5-51.5-4.5-53-12.5-38.5-27.5-35.5-31.5-22.5-71-30.5-30.5-26.5-10-17-8.5-22.5-93.5-218-14-43.34M995 3396.5V3351l13.5-49 20-32 62-76 19.5-28.5 13.5-37.5 3-37-9-55.5 8.5-44.02.5-40 38-52 41-41 76.5-61.5 22.5-5 54 12 155 41.5 56.52.124.5 63 96 62.59.64.54.19.5 50 15 24-.5 17-8"/><text style="font-size:144px;font-style:normal;font-weight:400;line-height:125%;letter-spacing:0;word-spacing:0;fill:#000;fill-opacity:1;stroke:none;font-family:Sans;-inkscape-font-specification:Sans" xml:space="preserve" y="-3236.04" x="89.45"><tspan y="-3236.04" x="89.45">1965</tspan></text><text style="font-size:144px;font-style:normal;font-weight:400;line-height:125%;letter-spacing:0;word-spacing:0;fill:#000;fill-opacity:1;stroke:none;font-family:Sans;-inkscape-font-specification:Sans" xml:space="preserve" y="5004.96" x="89.45"/><path d="m513 4839.5-6-28-1-34.5-6-36.5-13-32-31-54-40-55-21.5-23-44-34.5-12.5-18-11-39 .5-35.5 54-134.5 13-41 72-170 30.5-66.5 67-162.5 72.5-160.5L672 3651l89-150.5 31.5-82 17-54 8.5-48-4-52.5-7.5-35-66-155.5-29-68-24-71.5-3-51.5 2.5-48.5 9.5-70.5 7-54.5 10.5-81.5 16.5-154L763 2236l12.5-112.02.5-148 15-119.5 22.5-176.5 9.5-72.5c-3-.5 2-43 2-43V1511l-7-131-8.5-215-7-154.5L827 941l13-75 28.5-166L917 445.5l25.5-145.03.09-17.21" style="fill:none;stroke:red;stroke-width:5;stroke-linecap:butt;stroke-linejoin:round;stroke-miterlimit:4;stroke-dasharray:none;stroke-opacity:1"/></svg>