<?xml version="1.0" encoding="UTF-8" standalone="no"?>
<svg
   xmlns:dc="http://purl.org/dc/elements/1.1/"
   xmlns:cc="http://creativecommons.org/ns#"
   xmlns:rdf="http://www.w3.org/1999/02/22-rdf-syntax-ns#"
   xmlns:svg="http://www.w3.org/2000/svg"
   xmlns="http://www.w3.org/2000/svg"
   xmlns:xlink="http://www.w3.org/1999/xlink"
   id="svg2"
   viewBox="35, 1367, 5400, 5350"
   height="5350"
   width="5400"
   version="1.1">
  <metadata
     id="metadata42">
    <rdf:RDF>
      <cc:Work
         rdf:about="">
        <dc:format>image/svg+xml</dc:format>
        <dc:type
           rdf:resource="http://purl.org/dc/dcmitype/StillImage" />
        <dc:title></dc:title>
      </cc:Work>
    </rdf:RDF>
  </metadata>
  <defs
     id="defs6" />
  <image
     xlink:href="../../streetmap/sfoosm.png"
     id="image12"
     height="12015"
     width="9078"
     y="267"
     x="0"
     style="display:none" />
  <path
     style="fill:none;stroke:#5a0000;stroke-width:1px;stroke-linecap:butt;stroke-linejoin:round;stroke-opacity:1"
     id="path3592"
     d="m 654.5,4459.5001 -5,2.5 -9.5,-6.5 -9,-2.5 -38,3 -4.5,-0.5 -2,-3.5 -1.5,-21 -2.5,-3.5 -152,8 -246.5,14 -2.5,3.5 4,80 -2,3 -8,0.5 -2.5,-2.5 -1.5,-23.5 2.5,-3 7.5,-0.5 2,-2.5" />
  <text
     style="font-size:144px;font-style:normal;font-weight:normal;fill:#000000;fill-opacity:1;stroke:none;font-family:Sans;-inkscape-font-specification:Sans"
     xml:space="preserve"
     id="text3639"
     y="6624.9609"
     x="124.453125"><tspan
       id="tspan2"
       y="6624.9609"
       x="124.453125">1945</tspan></text>
  <text
     style="font-size:143.99993896px;font-style:normal;font-weight:normal;fill:#000000;fill-opacity:1;stroke:none;font-family:Sans;-inkscape-font-specification:Sans"
     xml:space="preserve"
     id="text3639-3"
     y="1573.96094"
     x="124.453178"><tspan
       id="tspan1"
       y="1573.96094"
       x="124.453178">1945</tspan></text>
  <path
     style="fill:none;stroke:#5a0000;stroke-width:5;stroke-linecap:butt;stroke-linejoin:round;stroke-miterlimit:4;stroke-opacity:1;stroke-dasharray:none"
     id="path2979"
     d="m 1010.9,4137.3 -4.4,2.2 -22.50002,5 -14,6.5 -28.5,21.5 -137,122.5 -34.99998,29.5 -38,36.5 -25,25.5 -29.5,42.5 -23.5,31.5" />
  <path
     style="fill:none;stroke:#5a0000;stroke-width:1px;stroke-linecap:butt;stroke-linejoin:round;stroke-opacity:1"
     id="path3602"
     d="m 582,4554.5 -30,55 -8,20 -2.5,63 -2.5,88 4,13 37,47 23,29.5 6.5,2.5 78,-1 4,3.5 1,13 3.5,2 72.49834,-0.6776" />
  <path
     style="fill:none;stroke:#5a0000;stroke-width:1.00000012px;stroke-linecap:butt;stroke-linejoin:round;stroke-opacity:1"
     id="path3594"
     d="m 655,4457.5002 -8,15 -15,17 -24.50001,24.5 -14.49999,18.5 -10,22 -1.5,14 -1.5,44 3.5,5 31.99999,16 8,9.5 11.50001,23.5 18.5,16.5 26.50001,13.5 31.50001,13 71.00002,18.5 8.4307,2.2898 32.74491,8.397 85.96245,0.068 18.1998,-2.1 12.2498,0.35 55.6493,28.6997" />
  <path
     style="fill:none;stroke:#5a0000;stroke-width:1.00000012px;stroke-linecap:butt;stroke-linejoin:round;stroke-opacity:1"
     id="path2891"
     d="m 781.18974,4727.2048 1.4,4.1999 -0.35,50.3993" />
  <path
     style="fill:none;stroke:#5a0000;stroke-width:1px;stroke-linecap:butt;stroke-linejoin:round;stroke-opacity:1"
     id="path2843"
     d="M 1470.7165,3683.993 1520.5,3636 l -0.027,-2.0489 -1.2587,-3.165 1.0361,-2.6077 2.7193,-2.2152 3.9941,0.8579 3.2861,3.4289 0.5716,4.3572 -2.3216,2.2504 -2.7861,0.8212 -3.3452,-1.6012 L 1520.5,3636" />
  <path
     style="fill:none;stroke:#5a0000;stroke-width:1;stroke-linecap:butt;stroke-linejoin:round;stroke-miterlimit:4;stroke-dasharray:none;stroke-opacity:1"
     id="path2818"
     d="m 1010.9,4137.3 16.6,-8.3 69.5,-72 36.0666,-35.6146 80.4024,-81.1692 62.031,-63.2162 52.5121,-50.0601 113.6076,-113.5238 29.0968,-29.4231 4.3427,0.065 L 1495.5,3705 v 4.5 l -7,6.5 h -4.5 l -20.4099,-19.946 -4.5421,-0.5361" />
  <path
     id="path8203"
     d="m 1051.0417,4026.3634 29.4586,-0.3637 24,-3 28.1674,-1.4931"
     style="fill:none;stroke:#5a0000;stroke-width:1px;stroke-linecap:butt;stroke-linejoin:round;stroke-opacity:1" />
  <path
     id="path8197"
     d="m 1051.0417,4026.3634 -11.0414,0.1363 -15,2 -34.99999,9.5 -126.5,32 -7.5,3.5 -3.3658,4.039"
     style="fill:none;stroke:#5a0000;stroke-width:5;stroke-linecap:butt;stroke-linejoin:round;stroke-miterlimit:4;stroke-dasharray:none;stroke-opacity:1" />
  <path
     id="path3600"
     d="m 852.63451,4077.5387 -1.6342,1.961 -98.5,15.5 -2.5,6 -100,6.5 -3,3 0.5,23 -1.5,3 -521,28.5"
     style="fill:none;stroke:#5a0000;stroke-width:1px;stroke-linecap:butt;stroke-linejoin:round;stroke-opacity:1" />
</svg>
