<?xml version="1.0" encoding="UTF-8" standalone="no"?>
<!-- Created with Inkscape (http://www.inkscape.org/) -->

<svg
   xmlns:dc="http://purl.org/dc/elements/1.1/"
   xmlns:cc="http://creativecommons.org/ns#"
   xmlns:rdf="http://www.w3.org/1999/02/22-rdf-syntax-ns#"
   xmlns:svg="http://www.w3.org/2000/svg"
   xmlns="http://www.w3.org/2000/svg"
   xmlns:xlink="http://www.w3.org/1999/xlink"
   version="1.1"
   width="3350"
   height="3050"
   viewBox="0, 0, 3350, 3050"
   id="svg2">
  <metadata
     id="metadata25">
    <rdf:RDF>
      <cc:Work
         rdf:about="">
        <dc:format>image/svg+xml</dc:format>
        <dc:type
           rdf:resource="http://purl.org/dc/dcmitype/StillImage" />
        <dc:title></dc:title>
      </cc:Work>
    </rdf:RDF>
  </metadata>
  <defs
     id="defs6" />
  <image
     xlink:href="../streetmap/sfoosm.png"
     style="display:none"
     id="image12"
     height="3471"
     width="3471"
     y="-221"
     x="-4.4408921e-16" />
  <path
     d="m 2741.629,-222.1314 28.2132,111.36789 31.6779,89.589252 16.334,40.58739 7.9195,10.39433 6.4346,7.919488 21.2836,13.36415 11.8792,6.92955 24.2535,12.37421 15.839,6.92955 8.9094,1.97987 75.2352,-12.3742 36.1326,-5.93962 13.3642,7.91949 7.4245,5.93962 4.9497,13.36414 16.3339,158.8848 -0.4949,29.20313 -29.6981,100.97351 -20.2937,61.87103 -0.495,16.33395 0.495,17.32389 18.3138,109.88295 5.4447,26.23331 22.7685,35.63771 8.9094,14.35408 6.4346,22.76854 L 3047,846.5 l -7.5,36 -9,36.5 -9,43 0.5,17.5 5.5,16 4.5,7.5 21.5,33.5 3,7.5 0,9 -4,9 -66.5,134.5 -4,7.5 -10,9 -12,6 -11.5,1 -13,-1.5 -20,-12 -27.5,-16.5 -29,-15.5 -27.5,-9.5 -41.5,-10.5 -46.5,-22 -30,-16 -28,-12.5 -51.5,-16 -49,-11 -49.5,-6 -65,-8.5 -46,-4 -69,-5.5 -46,-2.5 -58.5,3 -45.5,4.5 -151,31 -186,36.5 -80,16.5 -37.5,12 -36.5,16.5 -186,106 -11.5397,8.4836 -30.4603,30.5164 -89,89.5 -182,180.5 -6.5,15 -2.5,23 1,30 6.5,88 15.5,201.5 3,45.5 -3.5,13.5 -48,92 -35.5,31.5 -46.5,45.5 -38.5,37.5 -19,18.5 -30.5,23.5 -30,23 -31.5,17 -25,15.5 -17.5,15.5 -13.5,19.5 -10,21 -8.5,35 -3.5,33.5 -4.5,39 -7,17.5 -12,18.5 -53.5,55 -15,10 -20,8.5 -59.5,1 -26.5,-0.5 -14,3.5 -11.5,8.5 -13,16.5 -38,59 -7.5,16 -1.5,16.5 0,16.5 2.00212,29.2031 3.95975,32.6679 8.41446,41.5774 1.97987,76.2251 4.45471,14.354 16.82892,38.1126 20.2937,20.2937 17.81885,14.8491 30.68803,25.9503 11.38427,11.8793 11.38427,15.8389 18.31382,27.2233 19.30376,26.7283 22.27357,17.8188 26.23332,22.2736"
     id="path3610"
     style="fill:none;stroke:#009ada;stroke-width:5;stroke-linecap:butt;stroke-linejoin:round;stroke-miterlimit:4;stroke-opacity:1;stroke-dasharray:none" />
  <path
     d="m 654.5,2102.5 -5,2.5 -9.5,-6.5 -9,-2.5 -38,3 -4.5,-0.5 -2,-3.5 -1.5,-21 -2.5,-3.5 -152,8 -246.5,14 -2.5,3.5 4,80 -2,3 -8,0.5 -2.5,-2.5 -1.5,-23.5 2.5,-3 7.5,-0.5 2,-2.5"
     id="path3592"
     style="fill:none;stroke:#d31345;stroke-width:1px;stroke-linecap:butt;stroke-linejoin:miter;stroke-opacity:1" />
  <path
     d="m 655,2100.5 -8,15 -15,17 -24.5,24.5 -14.5,18.5 -10,22 -1.5,14 -1.5,44 3.5,5 32,16 8,9.5 11.5,23.5 18.5,16.5 26.5,13.5 31.5,13 71,18.5 40.5,11 40,-0.5 14.5,0 3,4 -3.5,16 2.5,7.5 4.5,1 4,-3 9,-15 1,-3.5 -1.5,-2 -11.5,0 -6.5,-4"
     id="path3594"
     style="fill:none;stroke:#d31345;stroke-width:1px;stroke-linecap:butt;stroke-linejoin:miter;stroke-opacity:1" />
  <path
     d="m 894,2395.5 9.5,-4.5 39,-60.5 23.5,-39.5 6.5,-6 15,-12.5 20.5,-4.5 8.5,-4.5 6,-5.5 6.5,-14 6,-3.5 35,-21 34.5,-21.5 15,-12.5 20.5,-20.5 9.5,-10.5 7,-19.5 7.5,-32.5 5,-13.5 -2.5,-4 -34.5,2.5 -2,-3 -14,-193.5 4.5,-6.5 -0.5,-10.5 5,-5.5 0,-17.5 -2.5,-2.5 -5,-1 -3.5,-3.5 -2.5,-43 -5,-10.5 -2.5,-55 -5,-64.5 3.5,-4.5 27.5,-1"
     id="path3596"
     style="fill:none;stroke:#d31345;stroke-width:1px;stroke-linecap:butt;stroke-linejoin:miter;stroke-opacity:1" />
  <path
     d="M 1129.5,1665.5 1103,1666"
     id="path3598"
     style="fill:none;stroke:#d31345;stroke-width:5;stroke-linecap:butt;stroke-linejoin:miter;stroke-miterlimit:4;stroke-opacity:1;stroke-dasharray:none" />
  <path
     d="m 1104.5,1666 -24,3 -40.5,0.5 -15,2 -35,9.5 -126.5,32 -7.5,3.5 -5,6 -98.5,15.5 -2.5,6 -100,6.5 -3,3 0.5,23 -1.5,3 -521,28.5"
     id="path3600"
     style="fill:none;stroke:#d31345;stroke-width:1px;stroke-linecap:butt;stroke-linejoin:miter;stroke-opacity:1" />
  <path
     d="m 582,2197.5 -30,55 -8,20 -2.5,63 -2.5,88 4,13 37,47 23,29.5 6.5,2.5 78,-1 4,3.5 1,13 3.5,2 107,-1 15,-10.5 35,-51.5 3.5,-11 10,-11 19,-29.5"
     id="path3602"
     style="fill:none;stroke:#d31345;stroke-width:1px;stroke-linecap:butt;stroke-linejoin:miter;stroke-opacity:1" />
  <path
     d="m 880,2387 5,-6 20.5,0.5 5.5,-3"
     id="path3604"
     style="fill:none;stroke:#d31345;stroke-width:1px;stroke-linecap:butt;stroke-linejoin:miter;stroke-opacity:1" />
  <path
     d="m 1569.5,1334 7.5,10 15.5,14 5,12.5 2.5,13 -3,61 -2.5,38 -2.5,10 -7,10 -72.5,71.5"
     id="path3606"
     style="fill:none;stroke:#d31345;stroke-width:1px;stroke-linecap:butt;stroke-linejoin:miter;stroke-opacity:1" />
  <path
     d="m 1527,1559 0.5,6 25.5,24 4.5,2 14.5,-1.5 4,4 13,165 0.5,35 7,61.5 13,181.5 -1.5,12.5 -70,250.5 -21,59.5 -28.5,78 -14.5,20.5 -1.5,7 1,13 -6,20.5 -5.5,11.5 -20,27 -4.5,5 -20,7.5 -5,5 -19.5,33 -3.5,12"
     id="path3608"
     style="fill:none;stroke:#d31345;stroke-width:1px;stroke-linecap:butt;stroke-linejoin:miter;stroke-opacity:1" />
  <path
     d="m 1570,1336.5 -6.5,-16 -23.5,-28 -10,-1.5 -16,2.5 -16.5,3.5 -57,58.5 -107.5,106.5 -57.5,58 -67.8333,66.1682 L 1169,1625.5 l -72,74.5 -69.5,72 -21,10.5 -22.5,5 -14,6.5 -28.5,21.5 -137,122.5 -35,29.5 -38,36.5 -25,25.5 -29.5,42.5 -23.5,31.5"
     id="path2818"
     style="fill:none;stroke:#d31345;stroke-width:5;stroke-linecap:butt;stroke-linejoin:round;stroke-miterlimit:4;stroke-opacity:1;stroke-dasharray:none" />
  <path
     d="m 2997,1175.5 1.5,12 6,8.5 82.5,41.5 25.5,16 26.5,21 24,25.5 21,19 21,14 39.4572,17.318 10.8499,3.85 46.1994,25.1996 85.0489,49.6994 27.6496,20.6497 45.8494,34.2995 11.1998,11.1999"
     id="path2863"
     style="fill:none;stroke:#009ada;stroke-width:5;stroke-linecap:butt;stroke-linejoin:round;stroke-miterlimit:4;stroke-opacity:1;stroke-dasharray:none" />
  <path
     d="m 3005.5,1196 -11.5,1 -11.5,6"
     id="path3637"
     style="fill:none;stroke:#009ada;stroke-width:5;stroke-linecap:butt;stroke-linejoin:round;stroke-miterlimit:4;stroke-opacity:1;stroke-dasharray:none" />
  <text
     x="89.453125"
     y="2947.9609"
     id="text3639"
     xml:space="preserve"
     style="font-size:144px;font-style:normal;font-weight:normal;fill:#000000;fill-opacity:1;stroke:none;font-family:Sans;-inkscape-font-specification:Sans"><tspan
       x="89.453125"
       y="2947.9609"
       id="tspan2">2010</tspan></text>
  <path
     d="m 3078.7023,681.18564 5.9397,-31.67796 4.9496,-32.17294 4.4548,-16.82892 8.4144,-12.3742 11.3843,-11.87924 15.839,-9.89937 73.2553,-30.19306 65.3358,-31.18299 49.4968,-25.24338 49.4968,-35.14275 47.517,-34.64777 20.7886,-12.37421 20.2937,-12.3742 16.334,-10.88931"
     id="path3057"
     style="fill:none;stroke:#009ada;stroke-width:5;stroke-linecap:butt;stroke-linejoin:round;stroke-miterlimit:4;stroke-opacity:1;stroke-dasharray:none" />
  <text
     x="89.453178"
     y="206.96094"
     id="text3639-3"
     xml:space="preserve"
     style="font-size:143.99993896px;font-style:normal;font-weight:normal;fill:#000000;fill-opacity:1;stroke:none;font-family:Sans;-inkscape-font-specification:Sans"><tspan
       x="89.453178"
       y="206.96094"
       id="tspan2-3">2010</tspan></text>
  <path
     d="m 1158.75,2124.5 -9.5,30.25 -43,42 -76.75,46.75 -7,14.5 -11,8.5"
     id="path3002"
     style="fill:none;stroke:#d31345;stroke-width:5;stroke-linecap:butt;stroke-linejoin:round;stroke-miterlimit:4;stroke-opacity:1;stroke-dasharray:none" />
</svg>
