<?xml version="1.0" encoding="UTF-8" standalone="no"?>
<!-- Created with Inkscape (http://www.inkscape.org/) -->

<svg
   xmlns:dc="http://purl.org/dc/elements/1.1/"
   xmlns:cc="http://creativecommons.org/ns#"
   xmlns:rdf="http://www.w3.org/1999/02/22-rdf-syntax-ns#"
   xmlns:svg="http://www.w3.org/2000/svg"
   xmlns="http://www.w3.org/2000/svg"
   xmlns:xlink="http://www.w3.org/1999/xlink"
   version="1.1"
   width="4900"
   height="4300"
   id="svg2">
  <metadata
     id="metadata18">
    <rdf:RDF>
      <cc:Work
         rdf:about="">
        <dc:format>image/svg+xml</dc:format>
        <dc:type
           rdf:resource="http://purl.org/dc/dcmitype/StillImage" />
        <dc:title></dc:title>
      </cc:Work>
    </rdf:RDF>
  </metadata>
  <defs
     id="defs6" />
  <image
     xlink:href="../streetmap/wasosm.png"
     style="display:none"
     id="image12"
     height="5780.5"
     width="5255"
     y="-980.5"
     x="-350" />
  <text
     x="89.453125"
     y="206.96094"
     id="text2819"
     xml:space="preserve"
     style="font-size:144px;font-style:normal;font-weight:normal;fill:#000000;fill-opacity:1;stroke:none;font-family:Sans;-inkscape-font-specification:Sans"><tspan
       x="89.453125"
       y="206.96094"
       id="tspan1">1960</tspan></text>
  <text
     x="89.453125"
     y="4197.9609"
     id="text2819-1"
     xml:space="preserve"
     style="font-size:144px;font-style:normal;font-weight:normal;fill:#000000;fill-opacity:1;stroke:none;font-family:Sans;-inkscape-font-specification:Sans"><tspan
       x="89.453125"
       y="4197.9609"
       id="tspan2">1960</tspan></text>
  <path
     d="M 1822.972,2344.1828 1847.5,2401 l 6,0.25 5.5,2.5 3.25,6.25 0.25,6 -3.75,7.25 10.25,24.25"
     id="path2994"
     style="fill:none;stroke:#306c6a;stroke-width:5;stroke-linecap:butt;stroke-linejoin:round;stroke-miterlimit:4;stroke-opacity:0.94117647;stroke-dasharray:none" />
  <path
     d="m 2447.25,2400.25 -2.75,5.75 -1.25,6.5 1.25,5.75 4.75,3.25 5,1.25 5.5,2.5"
     id="path3764"
     style="fill:none;stroke:#306c6a;stroke-width:5;stroke-linecap:butt;stroke-linejoin:round;stroke-miterlimit:4;stroke-opacity:0.94117647;stroke-dasharray:none" />
  <path
     d="m 2514,2082 -6.5,-4 0,-12.5 1.5,0.5 8.5,27 16.5,54 -0.5,8 -16,11.5 -51.5,41.5 -10.5,10.5 -36,84.5 -1,20 3.5,17.5 13,32"
     id="path3766"
     style="fill:none;stroke:#306c6a;stroke-width:1px;stroke-linecap:butt;stroke-linejoin:miter;stroke-opacity:0.94117647" />
  <path
     d="m 2467.5,2446.5 32.5,71 1,34 4,5 78.5,0.5 4.5,4.5 1.5,36 5,3.5 148.5,-0.5 2.5,-3 0,-8.5 5.5,-3.5 85.5,0 44,23 6.5,-2 18.5,6 1,4 -1,2 3,4.5 56.6213,28.5303 22.8232,0.3536 3.2019,1.2573 0.1193,3.9046 2.9362,1.8078 L 2509,2659 l 3,-3.5 0,-11.5 -5,-4.5 -163.75,0.75"
     id="path3768"
     style="fill:none;stroke:#306c6a;stroke-width:1px;stroke-linecap:butt;stroke-linejoin:miter;stroke-opacity:0.94117647" />
  <path
     d="m 2741.5,2600 4,4.5 0,31 4.5,4 89,0.5 6,16.5 3.5,2 42,-0.5 9.5,0.5 2.5,4 0.5,50.5 4,3 5,1.5 159,-1 2,-2.5 0,-3.75 3,-2.75 33,0 2.5,1.75 0.5,4.75 3.25,2.75 52.75,-0.75"
     id="path3770"
     style="fill:none;stroke:#306c6a;stroke-width:1px;stroke-linecap:butt;stroke-linejoin:miter;stroke-opacity:0.94117647" />
  <path
     d="m 3071,2716.25 2,1.75 0.25,4.75 3,2.25 32.25,-0.25 2.75,-1.75 0.25,-4.25 3.25,-2"
     id="path3772"
     style="fill:none;stroke:#306c6a;stroke-width:1px;stroke-linecap:butt;stroke-linejoin:miter;stroke-opacity:0.94117647" />
  <path
     d="m 2847.25,2658 -18,0.25 -41.5,-18.5"
     id="path3774"
     style="fill:none;stroke:#306c6a;stroke-width:1px;stroke-linecap:butt;stroke-linejoin:miter;stroke-opacity:0.94117647" />
</svg>
