<?xml version="1.0" encoding="UTF-8" standalone="no"?>
<svg
   version="1.1"
   id="svg2"
   width="3950"
   height="3950"
   viewBox="0 -300 3950 3950"
   xml:space="preserve"
   xmlns:xlink="http://www.w3.org/1999/xlink"
   xmlns="http://www.w3.org/2000/svg"
   xmlns:svg="http://www.w3.org/2000/svg"
   xmlns:rdf="http://www.w3.org/1999/02/22-rdf-syntax-ns#"
   xmlns:cc="http://creativecommons.org/ns#"
   xmlns:dc="http://purl.org/dc/elements/1.1/"><metadata
     id="metadata8"><rdf:RDF><cc:Work
         rdf:about=""><dc:format>image/svg+xml</dc:format><dc:type
           rdf:resource="http://purl.org/dc/dcmitype/StillImage" /></cc:Work></rdf:RDF></metadata><defs
     id="defs6" /><image
     width="4272"
     height="4272"
     preserveAspectRatio="none"
     xlink:href="../basemap/dohosm.png"
     id="image10"
     x="-150"
     y="-622"
     style="display:none" /><path
     style="opacity:1;fill:none;fill-opacity:1;fill-rule:nonzero;stroke:#f9b428;stroke-width:5;stroke-linecap:butt;stroke-linejoin:round;stroke-miterlimit:4;stroke-dasharray:none;stroke-opacity:1"
     d="m 1455.5,2537 25.25,-9.25 38,2.5 10.75,-1.25 85.25,-34.5 23.25,-13.25 80.5,-55 22.5,-14 71,-32.5 24.75,-9 48.75,-14.25 60.5,-14.25 25.25,-9.75 56,-26 30.25,-15.5 20.25,-12.25 30.25,-23.75 27.5,-26 13.25,-19.75 8.25,-14.25 7,-5.75 13.25,-7 36,-2.5 17.5,-3.25 24.25,-10.75 28.75,-8.25 17.25,-3.25 38.5,-2.75 20.75,6 37.5,26.5 13.25,4.25 14.25,1 118.25,-20.25 26.75,-7 19.5,-9.25 68,-36.5 40.25,-18.75 33.75,-5 77.75,-4.5 64.25,4 19.25,5.75 20.5,15.75 26.75,19.5 25.25,8.75 28,2.5 36.75,0.75 47.75,-6 32.25,-1.5 23.5,2.75 24.25,10.25 42.25,34 25.5,25 12,16"
     id="path836" /><path
     style="fill:none;stroke:#81ba26;stroke-width:5;stroke-linecap:butt;stroke-linejoin:round;stroke-miterlimit:4;stroke-dasharray:none;stroke-opacity:1"
     d="m 2725.8,2343.62 -15.2,-19.45 -17.68,-24.04 -15.56,-25.1 -18.74,-39.95 -14.81,-24.07 -22.11,-33.34 -23.73,-21.99 -32.43,-24.68 -0.43,-0.41 -21.21,-26.16 -0.21,-0.3 -14.5,-24.39 -0.19,-0.39 -6.72,-17.68 -0.1,-0.34 -10.6,-46.97 -7.06,-26.11 -11.38,-15.5 -19.45,-12.02 -25.1,-3.18 -27.93,4.6 -10.61,4.24 -38.89,19.45 -89.45,26.52 -19.8,7.07 -22.98,14.5 -23.33,7.07 -23.69,3.18 -26.52,-2.12 -22.27,-4.95 -73.54,-20.86 -86.27,-42.78 -37.48,-11.67 -54.45,-14.85 -142.13,-56.22 -63.99,-32.53 -30.41,-18.38 -22.27,-19.8 -14.85,-19.8 -35,-68.24 -62.58,-122.68 -12.37,-12.73 -13.44,-7.07 -22.63,-2.47 -97.93,0.35 -73.54,6.36 -40.66,8.13 -113.84,45.61 -34.65,16.62 -69.3,35.71 -31.47,12.37 -44.19,16.62 -30.05,8.49 -19.8,0.35 -35.71,-5.3 -55.15,-9.19 -323.15,-66.11 -126.22,-28.64 -66.82,-24.4 -81.67,-28.64 -40.31,-22.98 -28.64,-24.04 -40.66,-20.86"
     id="path844" /><path
     style="fill:none;stroke:#e2251c;stroke-width:5;stroke-linecap:butt;stroke-linejoin:round;stroke-miterlimit:4;stroke-dasharray:none;stroke-opacity:1"
     d="m 3573.98,3526.96 -101.82,-213.55 -124.1,-254.56 -7.07,-18.38 -2.12,-21.92 -3.89,-13.79 -152.03,-307.59 -82.73,-172.18 -17.32,-34.65 -9.9,-15.56 -22.63,-22.63 -162.28,-125.16 -61.52,-39.24 -21.92,-9.9 -125.16,-45.96 -17.68,-8.49 -13.83,-15.17 -22.28,-33.59 -0.38,-0.45 -24.04,-22.27 -0.19,-0.15 -32.29,-24.57 -20.91,-25.79 -14.29,-24.05 -6.58,-17.31 -10.57,-46.85 -0.03,-0.1 -7.07,-26.16 -50.85,-108.6 -6.36,-33.59 -3.54,-42.78 7.07,-78.14 8.13,-25.1 29.34,-35.71 51.27,-30.76 66.47,-41.72 7.42,-12.02 4.6,-18.74 -1.77,-61.52 -4.6,-14.85 -10.61,-18.03 -76.37,-82.02 -10.25,-21.57 -2.12,-19.8 6.72,-27.58 9.19,-41.01 36.06,-102.53 0.71,-20.15 0.35,-56.92 -6.72,-37.83 -9.9,-29.34 -19.8,-28.28 -4.6,-21.21 1.77,-24.75 18.38,-53.03 28.28,-26.52 10.25,-22.63 -0.35,-22.63 -13.44,-50.56 -14.85,-29.34 -20.51,-22.63 -41.01,-23.33 -31.47,-13.08 -12.37,-4.95 -22.98,-1.06 -82.73,8.49 -70.71,3.54 -41.72,-8.13 -51.27,-16.62 -29.7,-24.75 -20.15,-33.23 -32.53,-60.46 -2.12,-22.27 4.24,-16.26 12.02,-19.45 15.56,-10.61 24.04,-15.91 12.37,-17.68 6.72,-25.46 -1.77,-21.57 -7.78,-18.03 -61.87,-123.74 -12.37,-38.89 -11.67,-45.96 -15.91,-69.3"
     id="path838" /><path
     style="opacity:1;fill:none;fill-opacity:1;fill-rule:nonzero;stroke:#e2251c;stroke-width:5;stroke-linecap:butt;stroke-linejoin:round;stroke-miterlimit:4;stroke-dasharray:none;stroke-opacity:1"
     d="m 3277.7,2888.45 13.08,10.96 14.14,4.6 16.26,1.77 15.91,-4.95 14.85,-9.19 278.95,-189.15 10.61,-5.3 36.77,-16.62 10.61,-9.19 11.31,-14.85 28.28,-54.45 11.31,-13.79 14.14,-11.67 13.08,-5.66 74.6,-30.76"
     id="path846" /><text
     x="89.45"
     y="-93.04"
     id="text3019"
     xml:space="preserve"
     style="font-style:normal;font-weight:normal;font-size:144px;line-height:125%;font-family:Sans;-inkscape-font-specification:Sans;letter-spacing:0px;word-spacing:0px;fill:#000000;fill-opacity:1;stroke:none"><tspan
       x="89.45"
       y="-93.04"
       id="tspan1">2025</tspan></text><path
     style="fill:none;stroke:#ec6b05;stroke-width:5;stroke-linejoin:round;stroke-dasharray:none;stroke-opacity:1"
     d="m 2228.41,-24.24 13.36,41.46 8.78,46.64 3.31,33.6 -4.37,73.47 -6.16,36.46 -18.5,58.21 -0.29,10 15.93,31.64 8.57,5.18 183.47,-6.64 17.65,-3.43 25.13,-8.14 7.39,0.64 6.17,5.43 12.28,27.65 8.49,24.19 0.47,0.81 4,4.59 0.74,0.58 7.2,3.72 1.68,0.22 10.91,-2.38 5.45,2.58 4.31,6.04 70.26,217.82 -1.55,6.97 -2.96,4.92 -4.27,2.81 -55.61,18.52 -0.91,0.54 -7.09,6.6 -0.55,0.75 -5.42,11.34 -0.24,0.9 -0.9,12.97 0.09,0.86 24.75,86.62 0.05,0.16 6.2,11.83 6.28,8.59 7.23,7.27 2.25,9.65 -1.94,26.64"
     id="path10646" /><path
     style="color:#000000;fill:none;stroke:#e8308a;stroke-width:5;stroke-linejoin:round;stroke-dasharray:none;stroke-opacity:1"
     d="m 2585.04,804.39 1.97,-27.02 c 0.02,-0.25 0,-0.5 -0.06,-0.75 l -2.5,-10.71 c -0.11,-0.45 -0.33,-0.87 -0.66,-1.2 l -7.79,-7.83 c -0.04,-0.04 -0.08,-0.07 -0.12,-0.11 l -5.47,-7.63 -5.64,-10.7 -24.61,-86.12 0.84,-12.06 5.01,-10.48 6.35,-5.91 55.4,-18.45 c 0.21,-0.07 0.4,-0.16 0.58,-0.28 l 5.02,-3.3 c 0.31,-0.21 0.58,-0.48 0.77,-0.8 l 3.46,-5.76 c 0.14,-0.23 0.24,-0.48 0.3,-0.74 l 1.79,-8.03 c 0.1,-0.43 0.08,-0.89 -0.06,-1.31 l -70.59,-218.84 c -0.08,-0.25 -0.2,-0.48 -0.35,-0.69 l -4.92,-6.88 c -0.25,-0.35 -0.58,-0.62 -0.96,-0.81 l -6.8,-3.22 c -0.5,-0.24 -1.06,-0.3 -1.6,-0.18 l -10.86,2.37 -5.98,-3.09 -3.37,-3.87 -8.36,-23.83 c -0.02,-0.06 -0.05,-0.12 -0.07,-0.19 l -12.32,-27.74 -24.84,-37.47"
     id="path1135" /><path
     style="fill:none;stroke:#e8308a;stroke-width:1;stroke-linejoin:round;stroke-dasharray:none;stroke-opacity:1"
     d="m 2468.58,260.78 -7.09,-19.95 -4.88,-17.45 -6.31,-6.78 -32.21,-13.16 -9.95,-8.78 -22.75,-33.88 -49.66,-52.83 -8.62,-6.5 -8.74,-42.44 1.09,-8.23 35.71,-54.99"
     id="path14343" /><path
     style="fill:none;stroke:#ec6b05;stroke-width:1;stroke-linejoin:round;stroke-dasharray:none;stroke-opacity:1"
     d="m 2226.53,-23.5 -11.87,-31.36 -20.01,-37.47 -32.69,-49.4 -16.7,-17.46 -41.44,8.89 -3.52,6.52 6.57,29.51 0.37,9.74 52.2,251.85"
     id="path14345" /><path
     style="fill:none;stroke:#ec6b05;stroke-width:5;stroke-linejoin:round;stroke-dasharray:none;stroke-opacity:1"
     d="m 2157.3,147.17 17.53,86.98 5.83,13.97 7.56,8.98 8.74,4.73 21.6,6.93 6,6.83"
     id="path14347" /><path
     style="fill:#000000;fill-opacity:0;stroke:#00aea9;stroke-width:5;stroke-linejoin:round;stroke-opacity:1"
     d="m 2162.24,146.23 17.03,85.81 5.38,13.26 5.45,7 7.94,5.65 19.25,5.18 3.63,-1.55 17.63,-55.32 6.06,-35.74 4.31,-72.96 -3.23,-32.58 -8.35,-46.31 -13.66,-41.19"
     id="path1" /><path
     style="fill:#000000;fill-opacity:0;stroke:#00aea9;stroke-width:1;stroke-linejoin:round;stroke-dasharray:none;stroke-opacity:1"
     d="m 2225.68,-23.02 -11.95,-31.55 -20,-37.4 -32.42,-49.01 -16.4,-17.21 -40.47,8.71 -3.14,5.82 6.46,28.85 0.48,10.31 43.69,210.86 -6.45,10.06 -84.19,18.85"
     id="path2" /><path
     style="fill:#000000;fill-opacity:0;stroke:#00aea9;stroke-width:1;stroke-linejoin:round;stroke-dasharray:none;stroke-opacity:1"
     d="m 2145.49,116.43 9.72,5.64 5.18,25.21"
     id="path3" /></svg>
