<?xml version="1.0" encoding="UTF-8" standalone="no"?>
<svg
   xmlns:dc="http://purl.org/dc/elements/1.1/"
   xmlns:cc="http://creativecommons.org/ns#"
   xmlns:rdf="http://www.w3.org/1999/02/22-rdf-syntax-ns#"
   xmlns:svg="http://www.w3.org/2000/svg"
   xmlns="http://www.w3.org/2000/svg"
   xmlns:xlink="http://www.w3.org/1999/xlink"
   viewBox="0 0 5500 7050"
   height="7050"
   width="5500"
   id="svg2"
   version="1.1">
  <metadata
     id="metadata8">
    <rdf:RDF>
      <cc:Work
         rdf:about="">
        <dc:format>image/svg+xml</dc:format>
        <dc:type
           rdf:resource="http://purl.org/dc/dcmitype/StillImage" />
        <dc:title></dc:title>
      </cc:Work>
    </rdf:RDF>
  </metadata>
  <defs
     id="defs6" />
  <image
     style="display:none"
     y="0.64"
     x="0"
     id="image10"
     xlink:href="../basemap/romosm.png"
     preserveAspectRatio="none"
     height="7034.36"
     width="5527" />
  <path
     id="path4525"
     d="m 2780.5,5179.5 -36,-14.5 -13.5,-2.5 h -31.5 l -18,-4 -122.5,-49.5 -10,-10 -3,-7 -9,-31 -0.5,-17 -0.5,-19.5 5,-10.5 35,-37.5 11.5,-9 20,-10 13,-8.5 9,-11 21.5,-32 10,-8 25.5,-19 13,-16 10.5,-30.5 5,-17 12,-22 7,-21.5 9,-70 53.5,-135.5 9,-26.5 1,-27.5 -23,-83 -4.5,-26.5 20,-43 63.5,-63 27.5,-110.5 12,-34.5 16,-25.5 85.5,-105"
     style="fill:none;fill-rule:evenodd;stroke:#0071bb;stroke-width:5;stroke-linecap:butt;stroke-linejoin:round;stroke-miterlimit:4;stroke-dasharray:none;stroke-opacity:1" />
  <text
     style="font-style:normal;font-weight:normal;font-size:144.0px;line-height:180.0px;font-family:Sans;-inkscape-font-specification:Sans;letter-spacing:0px;word-spacing:0px;fill:#000000;fill-opacity:1;stroke:none"
     xml:space="preserve"
     id="text3000"
     y="206.96"
     x="89.45"><tspan
       style="line-height:180.0px"
       id="tspan1"
       y="206.96"
       x="89.45">1975</tspan></text>
  <text
     style="font-style:normal;font-weight:normal;font-size:144px;line-height:180px;font-family:Sans;-inkscape-font-specification:Sans;letter-spacing:0px;word-spacing:0px;fill:#000000;fill-opacity:1;stroke:none"
     xml:space="preserve"
     id="text3004"
     y="6947.96"
     x="89.45"><tspan
       style="line-height:180px"
       id="tspan2"
       y="6947.96"
       x="89.45">1975</tspan></text>
  <path
     id="path4623"
     d="m 3173.67,4187.13 5.48,3.36 16.44,-1.41 57.1,38.18 44.37,33.94 41.72,35.36"
     style="fill:none;fill-rule:evenodd;stroke:#f7d304;stroke-width:5;stroke-linecap:butt;stroke-linejoin:round;stroke-miterlimit:4;stroke-dasharray:none;stroke-opacity:1" />
  <path
     id="path4625"
     d="m 3060.18,4101.74 53.74,41.9 5.66,7.78 6.01,2.47 49.5,34.65"
     style="fill:none;fill-rule:evenodd;stroke:#f7d304;stroke-width:1px;stroke-linecap:butt;stroke-linejoin:round;stroke-opacity:1" />
  <path
     id="path4627"
     d="m 3336.31,4294.43 26.34,19.98 5.13,2.47 10.96,1.24 89.8,39.95 24.04,16.79 22.98,10.96 53.03,18.21 79.37,29.52 56.75,9.72 51.44,2.3 47.73,14.85 174.66,66.82 30.05,18.38 37.12,6.72 19.8,0.71 117.73,43.84 25.26,7.85 33.25,-1.25"
     style="fill:none;fill-rule:evenodd;stroke:#f7d304;stroke-width:1px;stroke-linecap:butt;stroke-linejoin:round;stroke-opacity:1" />
  <path
     style="fill:none;fill-rule:evenodd;stroke:#f7d304;stroke-width:1;stroke-linecap:butt;stroke-linejoin:round;stroke-miterlimit:4;stroke-dasharray:none;stroke-opacity:1"
     d="m 4241.75,4603.5 41.25,17 28.5,-0.5 15.55,-1.47 24.51,-4.01 36.28,-8.65 14.37,-1.93 106.85,-2.59 18.41,2.6 93.7,14.29 44.4,9.65"
     id="path4556" />
</svg>
