<?xml version="1.0" encoding="UTF-8" standalone="no"?>
<svg
   xmlns:dc="http://purl.org/dc/elements/1.1/"
   xmlns:cc="http://creativecommons.org/ns#"
   xmlns:rdf="http://www.w3.org/1999/02/22-rdf-syntax-ns#"
   xmlns:svg="http://www.w3.org/2000/svg"
   xmlns="http://www.w3.org/2000/svg"
   xmlns:xlink="http://www.w3.org/1999/xlink"
   version="1.1"
   id="svg2"
   width="5527"
   height="7035"
   viewBox="0 0 5527 7035">
  <metadata
     id="metadata8">
    <rdf:RDF>
      <cc:Work
         rdf:about="">
        <dc:format>image/svg+xml</dc:format>
        <dc:type
           rdf:resource="http://purl.org/dc/dcmitype/StillImage" />
        <dc:title></dc:title>
      </cc:Work>
    </rdf:RDF>
  </metadata>
  <defs
     id="defs6" />
  <image
     xlink:href="../streetmap/romosm.png"
     y="0.63623047"
     x="0"
     id="image10"
     preserveAspectRatio="none"
     height="7034.3638"
     width="5527"
     style="display:none" />
  <path
     style="fill:none;fill-rule:evenodd;stroke:#008751;stroke-width:5;stroke-linecap:butt;stroke-linejoin:round;stroke-miterlimit:4;stroke-dasharray:none;stroke-opacity:1"
     d="m 5372.5,4584.5 -38.5,-8 -22.5,-2.5 -40.5,7.5 -77,4.5 -39,6 -30,-10.5 -33,-4 -19.5,4.5 -40.5,19 -20,2.5 -16.5,-1.5 -44,-3 -134,-6 -42,1 -54,17 -31.5,17 -18.5,0.5 -153.5,-26 h -117 l -52.5,14 -37,3.5 -28.5,0.5 -57.5,-25 -79,-12 -27,-7 -51,-19.5 -23,-1 -36.5,-5 -32,-19 -84.5,-32.5 -96,-35.5 -22.5,-12.5 -19,-18 -9.5,-13.5 -1,-10 4,-86 -5.5,-26 -8.5,-16 -16.5,-12 -27,-6.5 -30.5,-10.5 -33,-20 -28.5,-6.5 -22.5,-4 -17,1.5 -37.5,24.5 -11,5.5 -123.5,-8.5 -23,-6 H 3337 l -44.5,-13 h -15 l -22.5,8.5 -21,13 -42,10 -83.9124,18.7062 -13.5073,2.0959"
     id="path4556" />
  <path
     style="fill:none;fill-rule:evenodd;stroke:#f37027;stroke-width:5;stroke-linecap:butt;stroke-linejoin:round;stroke-miterlimit:4;stroke-dasharray:none;stroke-opacity:1"
     d="m 2014,3958 46.5,40 35,7 40.5,17 16,39.5 27,15.5 23,1 50,-14.5 25,-19.5 35,-29 15.5,-6.5 54,-65 17.5,-3.5 13.5,2 230,-75.5 12,4.5 15.5,-2.5 43,-15.5 28,19 41,51 28,26 9.5,21.5 41.5,27.5 94,17.5 20,2 26,14.5 14.5,23.5 35,114 38.5,97 233,253.5 32.5,17.5 14,19 43.5,30 15.5,8 87.5,6.5 52.5,20.5 199.5,147 88.5,82 60,56 61,33.5"
     id="path4554" />
  <path
     style="fill:none;fill-rule:evenodd;stroke:#0071bb;stroke-width:5;stroke-linecap:butt;stroke-linejoin:round;stroke-miterlimit:4;stroke-dasharray:none;stroke-opacity:1"
     d="m 2780.5,5179.5 -36,-14.5 -13.5,-2.5 h -31.5 l -18,-4 -122.5,-49.5 -10,-10 -3,-7 -9,-31 -0.5,-17 -0.5,-19.5 5,-10.5 35,-37.5 11.5,-9 20,-10 13,-8.5 9,-11 21.5,-32 10,-8 25.5,-19 13,-16 10.5,-30.5 5,-17 12,-22 7,-21.5 9,-70 53.5,-135.5 9,-26.5 1,-27.5 -23,-83 -4.5,-26.5 20,-43 63.5,-63 27.5,-110.5 12,-34.5 16,-25.5 85.5,-105 24.5,-25.5 22,-37.5 13,-13.5 25.5,-14 21.5,-6.5 26.5,-6 8,-2 52,-59.5 27,-8.5 9,-0.5 86,41 h 13.5 l 30,-12.5 17.5,-12 46,-41.5 18,-6 91.5,-6 73,15 24,-1.5 37.5,-4 13.5,-5 28,-31 22.5,-52.5 12.5,-29 11,-9 25,-11.5 24.5,-8 18.5,-19.5"
     id="path4525" />
  <path
     style="fill:none;fill-rule:evenodd;stroke:#0071bb;stroke-width:5;stroke-linecap:butt;stroke-linejoin:round;stroke-miterlimit:4;stroke-dasharray:none;stroke-opacity:1"
     d="m 3223.5,3848.5 13.5,-17.5 3,-18.5 -6.5,-33 -19,-26.5 -15.5,-16.5 -19,-13.5 -9,-13.5 -3.5,-85 3,-18 52,-58 26.5,-10.5 21.5,-21.5 5.5,-28 33,-46.5 14,-40 -10,-26 -13,-47"
     id="path4527" />
  <path
     style="fill:none;fill-rule:evenodd;stroke:#60b22f;stroke-width:5;stroke-linecap:butt;stroke-linejoin:round;stroke-miterlimit:4;stroke-dasharray:none;stroke-opacity:1"
     d="m 2720,3854.5 23,-66.5 12,-41.5 16,-51 5,-41 v -18 l 9.5,-25.5 33.5,-33 42.5,-16.5 20,-9 13.5,-10.5 33.5,-33.5 7.5,-13 5.5,-21.5 6,-38.5 1,-75 -6,-14.5 -29,-26 -16.5,-24.5 -40.5,-27.5 -7.5,-13 -17.5,-68.5 16,-75 21.5,-34 19.5,-63 25,-132 5,-39.5 -6,-42 5,-48.5 6.5,-58 2,-31 2.5,-38.5 23.5,-49.5 3.5,-19.5 -4.5,-8.5 -35.5,-31 h -10 l -12,3 H 2882 l -38.5,-57.5 -0.5,-14 8,-12 16.5,-17 3.5,-12.5 V 2384 l -13.5,-45.5"
     id="path4558" />
  <path
     id="path4587"
     d="m 2777.1361,4434.0962 9.6625,25.129 14.7517,53.2748 -1,27.5 -9,26.5 -53.5,135.5 -9,70 -7,21.5 -12,22 -5,17 -10.5,30.5 -11.5,12.75 -28.25,21.25 -8,7 -20.4822,30.818 -10.0607,12.0607 -13.7071,8.1464 -17.5251,7.8787 -13.9749,13.5962 -35,37.5 -236.931,245.9666 -188.052,178.0327 -30.7591,52.6795 -32.8805,96.1665 -18.0312,23.6881 -18.0313,12.0208 -45.6362,17.1065 -90.1283,26.7341 -154.1007,48.1052 -62.5,5 -31,7.5 -25,12 -56,38.5 -24.5,13.5 -84.5,30 -65.5,36 -91,50.5 -215,107.5 -263,170 -45,46 -175,160.5 -82,155 -3.5,29.5 4.5,17.5 13,16.5 26.5,23.5 42,17 23.5,16 58.5,57 290.5,181"
     style="fill:none;fill-rule:evenodd;stroke:#a2cae9;stroke-width:5;stroke-linecap:butt;stroke-linejoin:round;stroke-miterlimit:4;stroke-dasharray:none;stroke-opacity:1" />
  <path
     style="fill:none;fill-rule:evenodd;stroke:#a2acb2;stroke-width:5;stroke-linecap:butt;stroke-linejoin:round;stroke-miterlimit:4;stroke-dasharray:none;stroke-opacity:1"
     d="m 149,5687.5 74.5,104.5 14.5,16 13,8.5 18,3.5 16,-7 473,-281 323,-191.5 73.5,-33.5 45.5,-1 157.5,22.5 17.5,2.5 18,-6 142,-62 33,-12 117,-16 36,7.5 71,23.5 16.5,1 20,-3.5 171,-82.5 39,-29.5 59.5,-63.5 25,-19 27,-7.5 69.5,4.5 109,7 19,-2 20.5,-6 12,-10 14.5,-15.5 71,-144.5 5.5,-17.5 19,-136.5 12.5,-29 12.5,-17 27.5,-21.5 11.5,-17.5 11,-33 v -26 l -8,-20.5 -17,-26.5 -3,-14 3.5,-26.5 16.5,-19.5 18,-4 185,-17 154,33 60.5,2.5 53,-3 29.5,-8 14.5,-14 15.5,-26.5 13,-22.5 23,-9 67.5,-8 21,-5.5 39,-28 34.5,-38 6.5,-22.5 21,-217 55,-109.5 v -36 l -12.5,-47 -54,-137 -6.5,-41.5 0.5,-27.5 16.5,-55.5 -0.5,-24.5 -9.5,-25.5 -16,-20.5 -27,-26.5 -9.5,-13.5 -2.5,-22.5 -3,-43.5 -11.5,-18.5 -24,-18.5 -77.5,-58.5 -15.5,-19 -10.5,-22 -2,-26.5 5,-167 -3.5,-49.5 -19.5,-185 -0.5,-87 2,-50 7.5,-20 40.5,-49.5 32,-44 27,-52 11.5,-30.5 5.5,-40.5 8.5,-171.5 9,-26.5 17,-23.5 24.5,-13 h 30 l 18.5,-4.5 23.5,-10.5 28,-23.5 14.5,-21.5 18.5,-46.5 39.5,-31.5 120,-152.5 24,-31.5 52,-50.5 38.5,-19.5 115,-115.5 13.5,-27 22.5,-40 72,-50.5 64,-20.5 26.5,-16 32,-29.5 24.5,-36 110,-118 12.5,-21.5 13,-48.5 41,-134.5 13,-27.5 17.5,-22 216,-222.5 19,-21.5 12.5,-34.5 33,-142 11,-22 68.5,-91.5 7.5,-22 3,-34.5 -3,-82.5 9,-108 2.5,-164 7.5,-27 28.5,-38.5 11.5,-21 4.5,-48"
     id="path4589" />
  <path
     style="fill:none;fill-rule:evenodd;stroke:#a2acb2;stroke-width:5;stroke-linecap:butt;stroke-linejoin:round;stroke-miterlimit:4;stroke-dasharray:none;stroke-opacity:1"
     d="m 1000,1560 59,58 36,16 48.5,20.5 14,13.5 94,203 3,16.5 -3,19.5 -13,102 v 25.5 l 8.5,20 120,182.5 11,8.5 26.5,17 11.5,10 60.5,85.5 13,11 14.5,7.5 h 15 l 39.5,-1 17.5,4.5 14.5,11 8,13 44,124 8,11.5 15.5,10.5 16,2 19.5,3.5 15.5,9.5 8.5,12 2.5,12 8,32 9.5,12.5 9,7 49,14.5 18.5,14 11,10.5 39.5,45.5 17,32.5 8.5,11.5 27,21 7.5,13.5 1.5,15.5 -2.5,116.5 16,73 v 15 l -9.5,59.5 2,15 3.5,12.5 29.5,34 6,15 4,21 0.5,26 -3.5,24 1.5,42 4.5,14.5 49.5,57 11,19.5 21.5,55 44,67.5 8.5,16.5 1.5,17 -8.5,66 6,21.5 7,10 10.5,7.5 13,2.5 11,1 35.5,-4 15,4 10,6 11,12 4.5,17.5 9.5,23 12.5,19 3,17.5 -0.5,40.5 v 19.5 l 11,27 15.5,27.5 1.5,19.5 -6.5,44 2.5,42.5 5,25 6.5,12.5 62.5,63.5 32,22.5 36.5,11.5 16.5,13 44.5,49.5 13.5,25.5 17,127 -1.5,52.5 -4.5,59 -6,34 7,26.5 12.5,14 20,5.5 28,1"
     id="path4621" />
  <path
     style="fill:none;fill-rule:evenodd;stroke:#f7d304;stroke-width:5;stroke-linecap:butt;stroke-linejoin:round;stroke-miterlimit:4;stroke-dasharray:none;stroke-opacity:1"
     d="m 3173.672,4187.1274 5.4801,3.3588 16.4402,-1.4143 57.0989,38.1838 44.3709,33.9411 41.7193,35.3554"
     id="path4623" />
  <path
     style="fill:none;fill-rule:evenodd;stroke:#f7d304;stroke-width:1px;stroke-linecap:butt;stroke-linejoin:round;stroke-opacity:1"
     d="m 3060.1814,4101.7443 53.7401,41.896 5.6568,7.7782 6.0105,2.4749 49.4974,34.6482"
     id="path4625" />
  <path
     style="fill:none;fill-rule:evenodd;stroke:#f7d304;stroke-width:1px;stroke-linecap:butt;stroke-linejoin:round;stroke-opacity:1"
     d="m 3336.3066,4294.4309 26.3397,19.9757 5.1265,2.4749 10.9602,1.2374 89.8025,39.9516 24.0417,16.7938 22.9809,10.9601 53.0331,18.208 79.3727,29.5217 56.7453,9.7227"
     id="path4627" />
  <text
     x="89.453087"
     y="206.96103"
     id="text3000"
     xml:space="preserve"
     style="font-style:normal;font-weight:normal;font-size:143.99993896px;line-height:179.99992371px;font-family:Sans;-inkscape-font-specification:Sans;letter-spacing:0px;word-spacing:0px;fill:#000000;fill-opacity:1;stroke:none;"><tspan
       x="89.453087"
       y="206.96103"
       id="tspan1"
       style="line-height:179.99992371px;">2020</tspan></text>
  <text
     x="89.453133"
     y="6932.9609"
     id="text3004"
     xml:space="preserve"
     style="font-style:normal;font-weight:normal;font-size:144px;line-height:125%;font-family:Sans;-inkscape-font-specification:Sans;letter-spacing:0px;word-spacing:0px;fill:#000000;fill-opacity:1;stroke:none"><tspan
       x="89.453133"
       y="6932.9609"
       id="tspan2">2020</tspan></text>
</svg>
