<svg xmlns="http://www.w3.org/2000/svg" width="3800" height="2850"><path d="M1415.5 317l89.5-1 333-18 79-10.5 40.5 8.5 59.5 16.5 10.5 10.5 13 17.5 33 10.5 46 3.5 45.5-7.5 95-28 35.5.5 90 17 35 25.5 49 34 16 9 33.5 4.5 78 1 31 9 18.5 15 7.5 24.5v18.5l-13.5 236-15 49 3 131 3.5 12 30 72.5 8.5 36.5 13 29.5 19.5 23.5 20 16 143.5 76 10 16.5v10l-4.5 13.5-19.5 34.5-3.5 12 3 37.5 5 32 .5 22.5-7.5 21.5-17 22-84 87-8 19v15l3 13.5 10 15.5 42 36.5 17.5 24.5 6.5 13 2.5 16.5-1.5 37 4 18.5 16.5 26.5 31 50.5 44 72.5 7.5 23.5 2 24.5 2 37.5 5.5 194.5 7 41 17 36 17 22.5 30 32.5 20 37 7.5 28 2.5 42v327" fill="none" stroke="#86318c" stroke-width="5" stroke-linejoin="round"/><path d="M1832.5 117L1817 335l71 319 17.5 54.5L1920 737l152 246.5 9 31-1 20-9.5 24-4.5 32.5 5.914 36.353 67.94 119.5 21.146 56.818-1.5 16.829-5.5 11-81 87.5-57.5 76.5-7.5 24 8 478 6 33.5 8.5 19.5 50.5 54 19 38.5 7.5 40 6 145 9 27.5 34 35 38.5 35.5 18 24 24 52.5 13 18.5 22 24 37 36 11.5 17.5 25 81 21.5 32.5" fill="none" stroke="#e4391f" stroke-width="5" stroke-linejoin="round"/><path d="M106 1127.5l56-59 21-12.5 71-35 26.5-7 476 1.5 23-1.5 33-15 47-33.5 169-66.5 35-5.5L1273 912l346 88 202 69.5 29 1.5 38-6.5 69.5-19.5 16.5-4.5 39.5 4 20.5 18.5 23.5 28 22.5 40 64 113 22 58.5 9.5 12.5 14.5 7h15.5l813 1.5 510 3 72.5-10.5 28.5-5.5 14.5-9 12.5-20 8.5-20-1.5-17.5-32-102-5-66.5-29.5-110-16-26-19.5-16.5-21-5-86.5-1.5" fill="none" stroke="#5eb759" stroke-width="5" stroke-linejoin="round"/><text x="89.453186" y="206.96083" style="line-height:125%;-inkscape-font-specification:Sans" font-weight="400" font-size="143.99993896px" font-family="Sans" letter-spacing="0" word-spacing="0"><tspan x="89.453186" y="206.96083">2020</tspan></text></svg>