<svg xmlns="http://www.w3.org/2000/svg" width="2000" height="2950"><path d="M99.83 2084.73l33.062 28.27 20.124 31.623 11.02 10.062 30.665 10.062 68.518 27.79 58.934 4.792 17.728-5.75 27.79-25.874 13.896-6.229 40.248-7.666 47.914-34.019 9.104-13.895 13.416-25.874 14.853-11.02 18.687-4.312 20.124 4.312 22.52 4.312 19.165-3.354 17.25-15.812 12.457-38.81 12.458-20.603 35.935-46.477 40.248-23.957 30.666-19.166 66.121-31.623 18.208-2.875 15.811 4.312 31.145 13.895 21.082 3.833 19.645-4.312 15.332-12.458 69.476-66.6 24.436-29.228 15.812-5.75 17.25-.48 31.143 8.626 52.227-5.75 46.956-21.562 22.04-3.354 57.977 11.5 21.082-1.438 16.77-7.187 27.79-32.102 20.604-21.562 42.164-18.207 18.687-.48 30.186 13.417 15.332 3.354 31.624-2.396 14.853 6.229 6.708 12.937v15.332l-19.645 66.122 2.875 9.583 9.104 10.54 11.978 6.23 24.916-6.708 11.978-3.833 36.415-4.792 29.228-1.437 15.812.958 30.186-12.937 32.581-5.27 26.832.479 30.665 3.833 16.77-4.792 25.395-18.686 24.436-15.333 24.437-35.456 4.312-15.333-4.791-21.561-13.896-9.583-31.144-17.25-9.583-10.54-8.145-19.645 4.312-20.124 4.312-23.957 3.354-13.896 17.25-33.54 3.353-34.498 11.02-12.458 13.896-14.374 3.833-16.77-5.75-19.645-12.457-15.332-19.645-67.56v-17.248l5.75-32.582-1.438-15.812-29.707-70.434-11.02-13.895-146.618-122.66-22.04-27.79-12.458-32.103-7.187-19.645 3.833-16.77 13.416-31.624 1.917-17.249-4.313-22.04-13.895-23.957-12.458-15.812-23.477-9.104-39.77-2.875-11.978-8.145-11.979-12.458-10.54-16.29-2.396-25.874 4.312-23 26.353-51.268 7.666-34.977-2.396-23.478-6.708-27.79-21.561-30.186-14.853-20.124-18.208-29.228-37.852-30.665-7.187-9.583-2.875-20.124-3.354-38.81-6.708-20.125-58.935-123.618-8.624-9.104-45.04-21.561" fill="none" stroke="#2a6cab" stroke-width="5" stroke-linejoin="round"/><path d="M1369.307 1642.038l-17.618-20.329-7.453-31.509-13.214-21.005-3.727-32.865-38.962-64.711-20.667-24.733-19.651-66.745 7.115-39.301-4.405-14.569-16.94-26.765-1.694-17.28 11.18-35.913-1.355-12.874-33.541-102.32M1103.156 836.563l-22.999-66.121-64.684-64.206-2.875-15.332 4.791-45.519-17.728-40.248v-19.165L1068.178 436l20.124-32.103 7.188-6.228M1110.343 388.086l47.435-27.79 81.454-104.454 5.27-2.395 10.063 3.833-1.917 12.937 13.837 17.863 22.467 10.348M1526.239 1546.174l20.124-6.708 11.02-6.708 6.708-12.458 14.374-88.641-8.145-39.77-22.04-72.83 2.395-36.893M1556.425 1147.048l19.645-70.913-2.396-23-6.708-26.352-2.396-14.374 13.895-45.519v-12.937" fill="none" stroke="#bcd646" stroke-width="5" stroke-linejoin="round"/><path d="M1550.675 1282.166l.48-15.812-12.458-34.019v-19.166l17.728-66.121" fill="none" stroke="#bcd646" stroke-width=".99999899" stroke-linejoin="round"/><path d="M1208.375 1131.12l-105.22-294.557M1095.49 397.668l14.853-9.582" fill="none" stroke="#bcd646" stroke-width="1.00047457" stroke-linejoin="round"/><path d="M1216.473 285.07l2.635-33.54" fill="none" stroke="#bcd646" stroke-width="5.00237274" stroke-linejoin="round"/><path d="M1219.108 251.53l-3.114-9.104-21.082-39.529-20.843-22.28-62.768-33.3-22.999-1.438-15.332-3.354-24.436-20.364-45.04-12.936-21.082-26.593-17.728-13.655-7.427 4.312 7.906 10.541 6.947 9.822-6.468 5.031 9.104 11.26 5.03-3.593 5.51.479 7.667-6.469 4.073.24M1217.692 246.5l6.607 6.437 2.032 5.929 31.34 17.787M1288.952 298.428l23.012 9.056 12.872 4.652 5.254 11.018 54.125 113.33 7.03 21.176 3.22 39.098 2.963 19.26 6.183 8.386 38.2 30.916 19.058 30.408 14.569 19.735 21.345 29.815 6.945 28.545 2.541 24.394-7.877 35.913-26.257 50.82-4.236 22.447 2.372 25.58 2.202 18.972 17.11 41.928 17.872 43.028 14.992 13.806 28.99.88 7.046 4.028 4.543 5.257 6.774 1.384 5.84-.402 3.664 4.012" fill="none" stroke="#bcd646" stroke-width="1.00047457" stroke-linejoin="round"/><path d="M1551.437 941.59l7.008-6.977 9.74-3.388 4.49 1.778.932 3.304-4.913 4.997-4.33 2.22.293 4.448 5.143 4.288M1445.877 1743.002l-57.597-15.247-6.437 2.372-4.743 6.098-20.329 74.538-.339 7.792 7.623 17.364-3.896 16.008.508 2.71 91.627 23.527 13.742 24.754.17 3.726-3.22 12.367 1.017 3.218 32.356 8.81 3.558-1.864 4.235-15.077 4.743-4.235 86.226-50.82 2.54 3.387-2.71 10.673-3.896 2.033-16.263-4.066M1369.307 1642.038l5.42 9.825-.677 29.476 7.539 17.28 5.929 3.048 26.85 6.014 2.202 3.134-5.166 20.837-2.795 1.27" fill="none" stroke="#bcd646" stroke-width="1.00047457" stroke-linejoin="round"/><path d="M1445.877 1743.002l2.71-1.694 5.083-21.345-2.033-4.066-13.214-3.388-49.296-50.313-14.4-10.333M1453.67 1880.726l-3.876 15.217 1.504 2.74 69.116 17.956 2.88-1.186 3.896-16.601M1364.055 1835.919l14.488 23.135M1362.446 1842.017l4.066-1.863M1374.05 1681.34l-5.929 5.166-22.022 9.825-9.825 9.825-21.853-1.609-.509-3.049 4.913-7.115 21.006-.17h10.164" fill="none" stroke="#bcd646" stroke-width="1.00047457" stroke-linejoin="round"/><path d="M1368.121 1686.506l23.886-10.08 9.656-.17 4.235-1.185 1.016-2.88-.169-6.945-4.404-3.388-16.771-1.864M1541.092 2002.318l-8.145 31.863.24 3.114 2.635.958 17.968-11.02.479-2.875-26.832-44.8 13.176-53.184 5.51-2.636 14.135 3.833 44.32-26.113 1.467-4.51-72.619-125.338 2.396-5.75 38.57-21.8 1.678-5.99-31.384-51.507v-8.385l6.468-24.197-2.635-3.833-38.571-7.427-2.396-4.791 1.438-56.3" fill="none" stroke="#bcd646" stroke-width="1.00047457" stroke-linejoin="round"/><path d="M1526.239 1546.174l-75.705 27.31-9.822 5.75-9.343 12.458-3.115 12.937-1.916 13.176v22.28l-3.354 11.98-21.562 14.613-16.051 3.354-6.469-.479-.958-4.552 2.635-3.594h2.875l7.667 2.396" fill="none" stroke="#bcd646" stroke-width="1.00047457" stroke-linejoin="round"/><path d="M1409.328 1683.448l-.958-7.427 2.156-11.978 3.833-6.469M1435.441 1709.561v5.27l-5.27 21.323-3.975 1.739M1450.534 1573.485l-14.973 4.791-5.63 4.312-4.791 8.865-.719 6.109 2.036 2.276 4.313 1.437 5.15-.719 3.594-13.296 9.703-9.223 8.385-3.235 77.261 11.74 3.474 4.072 3.234 9.703 6.469 10.062 34.738 26.952 12.338 22.879 4.072 4.192 15.093 8.505 1.558 2.396-2.276 6.468-3.834 2.755-62.831-1.966-4.584 4.341-13.938 53.644-8.385 4.998-.509 2.287 13.944 23.78M1113.697 865.551l-2.396 7.187-148.774 52.706-2.156 7.666 21.322 57.977-2.156 8.624-7.187 14.854-11.5 8.624-28.269 5.031-50.31 8.385-9.583 9.104-9.822 35.696-.719 55.102 29.946 105.171 7.188 9.344 44.8 16.53 12.697 9.823 46.956 50.31 11.26 28.269 20.842 14.614 8.625 26.592-1.917 9.823-15.332 18.207-4.313 12.458v31.623l-11.26 41.446v12.937l57.737 97.985 5.27 1.677 18.927-5.75 15.572 1.677 11.74 4.312 34.258 18.926 13.416 17.49 23.478 45.518 7.427 5.27 22.52 2.875 24.675-7.906 19.645-8.864 13.655-4.552 38.866 2.071" fill="none" stroke="#bcd646" stroke-width="1.00047457" stroke-linejoin="round"/><path d="M1123.28 893.342l7.906 2.875 4.312-2.636v-5.99l-8.385-5.51-36.415-1.916M1192.037 1705.489l4.791 9.582v9.583l2.636 11.02 12.936 7.907 12.937 4.791 38.571 8.624 13.416 9.104 36.655 65.643 4.552 1.916 7.546.959 5.148 3.392 1.86 3.38.355 4.981-1.174 4.375-2.788 3.25-.406 3.5 4.551 8.505-.18 1.617-1.437.78-13.475-3.475-2.28 1.302-31.74 126.27-4.791 2.635-17.25-4.072-39.528 23.238v5.27l48.153 12.698 3.834-2.875 9.343-36.894" fill="none" stroke="#bcd646" stroke-width="1.00047457" stroke-linejoin="round"/><path d="M1313.979 1831.743l-.24 5.75-2.396 5.989-.17 5.227 1.95 3.897 3.012 2.615 1.437 5.75-1.32 5.254M1313.74 1837.492l4.79-3.833" fill="none" stroke="#bcd646" stroke-width="1.00047457" stroke-linejoin="round"/><path d="M1316.135 1855.22l4.791 1.678 5.031-1.198 3.521-1.704M1346.099 1696.331l1.899 9.876 6.947 9.104M1430.89 1872.71l2.874 5.03-4.072 15.692-95.23 56.42-34.618-9.224-1.557-3.953M1332.266 1850.746l5.702-1.529 22.7 5.42M1451.637 1715.897l27.612 6.607 2.372 2.54 1.186 6.1-15.755 61.154-.17 6.945 7.793 17.787 5.59 3.388 29.985 16.094 14.738-1.694 30.662-12.367 11.858 8.47M1527.437 1979.558l-27.351-45.64-.17-4.743" fill="none" stroke="#bcd646" stroke-width="1.00047457" stroke-linejoin="round"/><path d="M1504.152 1914.098l18.634-73.86-3.558-4.912M1507.552 1637.93l-.52 31.381 1.863 2.203 3.05 2.033 28.628 7.623 1.741 5.731M1580.383 1853.113l-3.219 14.4-2.372 3.557M1591.055 1875.136l3.473 2.117M1394.954 1703.332l2.156 4.073-8.145 35.217.838 2.995 54.982 90.198-8.266 33.9 2.037 4.911M1444.785 1835.815l18.806 32.941-.958 4.672-6.948 4.312-2.015 2.986M1449.794 1895.943l-20.222 75.11-2.156 1.198-4.672-1.317-2.635 1.677-7.068 26.472 1.677 2.755 10.9 2.755 1.678 2.995-2.995 12.817 50.67 85.887 3.114 2.395 14.374.6 2.755 3.952-29.686 117.303-93.172 143.315-21.344 27.104-17.957 21.345-5.42 13.552 3.387 13.213 9.487 8.47 53.53 6.777 8.47 6.437 6.438 9.825-2.033 13.553-11.18 10.164-43.367 14.23-10.842 12.535-38.624 109.434-5.76 14.908-10.164 5.082-25.071-12.197-1.355-9.148 31.509-26.427.338-5.082 4.744-3.388 39.3 11.52 11.52 10.164 1.694 8.47-2.032 12.874-8.81 7.115-30.492 9.826-7.454-1.017-4.065-7.792M1354.945 1715.311l10.302 17.489-4.791 19.645 2.395 3.354 20.364 5.03 1.198 2.396-20.358 72.694M1360.16 1851.927l-25.698 97.924-46.357 27.312M1411.404 1731.652l-51.428 202.627" fill="none" stroke="#bcd646" stroke-width="1.00047457" stroke-linejoin="round"/><path d="M1429.572 1971.053l1.198 2.276 4.432 1.318 2.276 2.276-7.068 25.395-3.114 5.27M1280.2 2007.708l-3.115 1.198-31.025-8.385M1222.942 2014.296l-8.026 10.302-9.343 20.962-7.701 37.263-1.694 22.022-.678 30.493-5.082 7.454-25.75 8.47-9.147 5.42-1.355 9.826-.678 14.569-5.76 9.825-24.055 15.585-26.765 26.088-5.76 16.263v23.377l19.99 45.739 28.12 42.35 10.503 18.296.678 12.875-6.776 20.328 2.372 33.203 13.89 19.65 27.105 30.493 3.05 14.569-1.356 39.64-8.47 7.454-22.7 9.147-11.858 10.842-9.148.678-9.148-7.454-2.371-14.569-4.405-3.049h-7.454l-12.874 9.148-23.717.677-5.082-3.388-10.503-18.295h-6.437l-11.52 6.776-4.065 9.825-.339 16.94-46.077 48.788 2.71 23.717-8.809 13.552-41.673 6.776-4.065-2.71-4.066-5.76-9.825-6.098-25.41-51.16-.34-19.99 1.694-2.71 22.023-2.372 5.082-28.12 2.71-27.105 4.405-3.05 58.952-3.726 1.016-4.405-7.792-12.535-5.421-1.694-16.94 4.065-4.066-2.71-18.296-25.41h-3.049l-14.907 27.781v3.389l13.552 4.404h2.71l7.115-8.131 1.017-12.197 4.065-.339" fill="none" stroke="#bcd646" stroke-width="1.00047457" stroke-linejoin="round"/><path d="M1038.633 2566.298l4.744-3.388 33.202-.678M1189.74 1078.435l1.356-5.59 39.301-43.706 3.727-7.115 3.727-.338 17.956 11.858 4.066-1.186-16.601-25.241 7.961-33.034-2.032-8.64-.17-53.87-2.54-18.295v-16.601l3.557-2.202h26.935l17.279 10.164 47.94 18.295 14.23-2.371 22.531 9.147 4.743-.677 12.875-7.284 11.18-14.57 1.356-3.895-1.864-2.71-23.885-9.149.169-21.852-27.782-9.656-1.017-2.372 1.525-7.115 2.88-1.355 82.838 32.695 12.366 4.235 14.569-8.301 5.76 3.219v3.218l-8.81 6.437-11.688-4.573" fill="none" stroke="#bcd646" stroke-width="1.00047457" stroke-linejoin="round"/><path d="M1359.143 829.075l-21.684-6.099-2.54 1.525-5.083 25.41 1.017 2.033 19.65 6.268 32.864 13.213M1212.61 1048.79l-4.405-.17-18.803-16.601h-2.71l-7.285 7.115-1.694 6.437" fill="none" stroke="#bcd646" stroke-width="1.00047457" stroke-linejoin="round"/><path d="M962.527 925.444l-49.476 18.624-4.407-.678-5.424-17.966-6.78-1.695-8.474 4.068-10.508-3.051-14.238-29.153-19.66-22.712-13.56-1.017h-13.898l-11.526 7.458h-7.796l-4.746-2.712-1.356-7.796-5.424-2.034-29.83-7.458-31.865-1.356-2.034-4.407 34.238-65.084v-4.746l-3.051-17.966-12.204-12.204-4.067 2.034-14.577 29.153-45.423 9.491-8.814 6.78-8.474 10.17v3.05l42.372 70.509-2.542 4.407-26.61-.34-5.085 4.068-8.474 18.644-7.797 5.085-1.695 4.407 56.271 70.508h2.034l.34-6.101-12.204-5.763" fill="none" stroke="#bcd646" stroke-linejoin="round"/><path d="M701.525 884.746h6.102l3.051 5.762-2.542 4.407h-6.441l-2.712-5.762M1336.274 1706.157l-8.986 24.012-24.746 30-10 7.458-46.44.34-4.746 3.558-27.797 104.916 12.543 21.694-1.865 6.272-75.593 43.56-117.803 27.491-77.182-4.314-33.735-11.708-1.45-4.86-.338-12.162-13.56-3.092-3.729 1.356-42.033 43.39-12.882 21.695-33.22 17.966-2.034 9.152 4.407 10.17v4.746l-16.95 11.525-21.694 47.797-25.085 116.61 1.695 5.423 45.763 30.509-1.017 19.322-12.543 6.78-2.373 3.39 3.051 12.203-13.898 18.983-18.305 28.135-12.543 7.458-12.203 14.237-2.712 13.22-5.085 6.78-18.305 7.458-16.27 12.881-39.662 90.848-2.034 16.949-5.084 3.39-22.034-1.695-4.407-7.119v-7.457l5.763-3.73h23.39l6.779-5.423" fill="none" stroke="#bcd646" stroke-linejoin="round"/><path d="M919.924 1959.436l-25.687-8.25-4.237.17M1224.237 1904.407l28.084-17.922 28.045-109.736 12.176-9.122" fill="none" stroke="#bcd646" stroke-linejoin="round"/><path d="M1252.321 1886.485l56.154-33.095 2.699-4.681" fill="none" stroke="#bcd646" stroke-linejoin="round"/><path d="M1275.424 1872.712l90.339 24.407 4.068-1.865M1331.225 1838.01l5.894-.722 122.542-73.56.339-1.525-2.203-2.203-89.322-23.56-3.228-3.64M894.237 1951.186l-22.555-3.053-10.307 1.198-118.89 28.524-4.075-1.438-21.572-65.437-9.828-15.34-41.228-34.757-4.554 1.678-31.4 37.153-4.794.48-3.836-4.315-2.636.719-8.63 10.786h-3.115l-31.64-26.606h-.96l-1.917 2.157-5.992-4.075v-1.438l14.142-29.722 4.314-15.34v-12.705l-4.554-4.075-12.704-2.157.48-7.91 19.109 4.066 2.823 1.926 1.318 4.075.72 6.232-1.2 2.158h-3.834l-2.397 1.678" fill="none" stroke="#bcd646" stroke-linejoin="round"/><path d="M574.218 1880.778l6.472-16.06 3.835-1.678 36.673 32.839M651.64 1873.827h4.075l43.864 36.434h4.315l4.794-6.472h3.835M1234.124 1022.024l-.734-3.719-7.797-6.102v-21.017l-31.186-30.17L1186.61 940l-35.254-54.576-5.424-31.865 1.695-11.864 22.034-19.322 1.695-5.763-3.39-42.373-20.678-26.78-7.797-2.372-44.745 13.56-2.034 5.423 24.746 62.034-2.373 14.237 13.56 36.271-1.532 5.472M1054.746 892.542l-3.051-1.017-9.492-26.78-3.787-.958-58.585 20.959-4.407-2.373.339-45.424-4.746.34-16.95 3.389-12.203-.678-3.39-2.712-9.152-14.915-42.712-2.712-21.356 30.508 20.34 39.662 8.813 3.39 43.39-1.696M876.44 834.915L941.865 840" fill="none" stroke="#bcd646" stroke-linejoin="round"/><path d="M1038.416 863.787l47.795-17.542 1.438-3.356-20.853-60.404-5.993-8.868 1.438-4.315 32.505-10.658M1074.647 1623.316l-20.918 6.175-52.204 34.577-76.61 27.457L810 1687.458l-9.153-5.763-49.491-90.509-23.729-16.61-38.644-20-47.797-65.085-4.745-2.372-2.373 3.05 2.034 13.56 13.22 18.305 39.661 31.525M1359.976 1934.28l-9.976 37.923-23.22 14.407-2.034 3.22-4.068 16.78-13.22 14.746-6.272 23.898-17.627 51.865-2.373 18.644-15.593 24.406v9.492l8.814 11.695-.34 9.83-10.847 13.22-1.695 16.441 26.102 45.424 1.017 11.526-4.068 29.152-15.084 22.373-18.814 14.068-2.373 3.898-.17 16.78 2.543 2.203h9.492l25.762 35.932 12.543 13.39 12.373 4.576.508 32.204-3.39 5.762-7.457.678-16.272-8.813v-3.898l16.441-12.712.678-3.39-1.525-14.237" fill="none" stroke="#bcd646" stroke-linejoin="round"/><path d="M1301.186 2045.254l-4.067-4.915-5.255-1.186-1.525-2.882 14.576-51.186 2.882-2.034 15.254 3.22 3.05-2.542 8.361-33.878M1358.644 1935.424l-16.78-4.238-3.05 1.695M1199.828 1106.316l-1.199 8.63-106.905 115.533-61.842 25.648-120.328 94.68-60.883 37.633-13.902 14.382-17.259 32.838-44.104 83.655-15.34 16.299-111.939 81.257-21.093 16.06-10.787 13.183-3.356 13.423 3.117 23.011 7.67 18.457v11.745l-9.588 18.697-35.475 39.07-114.575 88.688-13.424 17.978-24.449 81.257-10.067 249.045-8.39 53.213 2.637 17.498 24.929 32.36 34.996 22.53 12.943 14.143 19.416 42.666 57.048 101.392 29.243 33.797 16.539 13.183 3.116 9.588v11.506l-9.828 13.183-55.13 10.067-10.786 14.382-76.464 92.284-16.06 41.467-14.381 87.73-4.075 7.91-10.787 7.91-6.232-1.199-60.164-197.27-29.243-30.442-11.505-1.199-60.404 28.764-3.835-.48-2.397-11.505-26.606 7.67-2.637 5.034 10.307 47.7 4.554 1.438 123.444-29.483 4.554 3.116" fill="none" stroke="#bcd646" stroke-linejoin="round"/><path d="M391.09 2794.983l-1.439 3.835-5.034 2.158v2.157l1.918 6.711 7.43 6.952 7.91-2.637 24.929-14.861M596.75 2572.544l45.782-12.464h5.752l4.075 4.314.24 5.753-3.116 1.199-29.723-25.169-16.3-7.91M1091.724 1230.48l99.954-32.12 11.505-10.307 29.004-36.913 5.033-.48 3.356 4.315.48 6.711-1.918 2.397-11.506 4.315-2.876-1.918-11.266-36.913-9.827-10.787" fill="none" stroke="#bcd646" stroke-linejoin="round"/><text style="line-height:125%;-inkscape-font-specification:Sans" y="206.95502" x="89.453087" font-weight="400" font-size="143.99993896px" font-family="Sans" letter-spacing="0" word-spacing="0"><tspan y="206.95502" x="89.453087">2020</tspan></text></svg>