<?xml version="1.0" encoding="UTF-8" standalone="no"?>
<svg
   version="1.1"
   id="svg2"
   width="1600"
   height="1375"
   viewBox="0 -400 1600 1375"
   xmlns:xlink="http://www.w3.org/1999/xlink"
   xmlns="http://www.w3.org/2000/svg"
   xmlns:svg="http://www.w3.org/2000/svg"
   xmlns:rdf="http://www.w3.org/1999/02/22-rdf-syntax-ns#"
   xmlns:cc="http://creativecommons.org/ns#"
   xmlns:dc="http://purl.org/dc/elements/1.1/">
  <metadata
     id="metadata8">
    <rdf:RDF>
      <cc:Work
         rdf:about="">
        <dc:format>image/svg+xml</dc:format>
        <dc:type
           rdf:resource="http://purl.org/dc/dcmitype/StillImage" />
      </cc:Work>
    </rdf:RDF>
  </metadata>
  <defs
     id="defs6" />
  <image
     xlink:href="../timelines/basemap/alcosm.png"
     y="-603"
     x="-55"
     id="image10"
     preserveAspectRatio="none"
     height="1853"
     width="1853"
     style="display:none" />
  <path
     style="opacity:1;fill:none;fill-opacity:1;fill-rule:nonzero;stroke:#ec7405;stroke-width:1;stroke-linecap:butt;stroke-linejoin:round;stroke-miterlimit:4;stroke-dasharray:none;stroke-opacity:1"
     d="m 384.6,919.12 82.55,-38.59 26.17,-16.11 15.44,-15.44 11.75,-14.09 6.38,-3.02 12.08,-1.34 22.82,-3.69 60.07,-16.78 7.38,-3.02 3.36,-3.69 4.36,-8.05 10.07,-10.74 11.07,-14.43 3.36,-7.05 v -6.71 l -5.03,-8.05 -30.2,-32.55"
     id="path836" />
  <path
     style="opacity:1;fill:none;fill-opacity:1;fill-rule:nonzero;stroke:#ec7405;stroke-width:5;stroke-linecap:butt;stroke-linejoin:round;stroke-miterlimit:4;stroke-dasharray:none;stroke-opacity:1"
     d="m 626.22,715.76 -11.07,-9.73 -116.28,-58.39 -7.21,-7.05 -18.12,-0.5 -11.58,-7.38 -4.19,-3.69 -0.84,-12.58 -14.09,-48.66 -15.27,-90.44 -2.68,-25.84 -2.68,-3.69 -4.87,-2.52 -126.18,17.45 -5.54,-2.01 -2.52,-5.2 -7.89,-31.04 -7.89,-10.4 -21.48,-21.48 -12.25,-7.55 -11.24,-14.93 L 94.5,237.73 89.63,229.01 68.66,208.71"
     id="path838" />
  <path
     style="opacity:1;fill:none;fill-opacity:1;fill-rule:nonzero;stroke:#ec7405;stroke-width:1;stroke-linecap:butt;stroke-linejoin:round;stroke-miterlimit:4;stroke-dasharray:none;stroke-opacity:1"
     d="m 621.86,810.06 9.85,0.25 2.61,4.27 4.27,12.1 5.46,3.08 4.98,2.61 h 4.75 l 32.98,-22.07 20.64,-18.75 12.1,-22.07 8.07,-8.31 113.66,-70 6.88,-1.66 28,-0.47 9.02,-3.56 16.37,-14 25.15,-29.42 83.05,-91.12 8.15,-9.28 17.55,-18.43 16.25,-8.59 147.58,-66.66 9.52,-6.69 16.35,-16.27 9.27,-5.14 12.93,-3.14 15.25,1.56 24.3,10.91 11.24,4.39 12.17,0.6 13.5,-4.98 10.5,-9.38 16.23,-15.49 5.68,-8.46"
     id="path840" />
  <path
     style="opacity:1.0;fill:none;stroke:#ec7405;stroke-width:1;stroke-linejoin:round;stroke-miterlimit:4;stroke-dasharray:none;stroke-opacity:1"
     d="m 1374.8,283.5 27.06,-169.85 6.38,-24.06 40.62,-152.92 1.2,-14.13 8.08,-31.08 6.76,-10.37 10.34,-8.37 15.86,-8.2 10.05,-8.04 4.07,-7.83 2.09,-14.57 17.95,-148.0"
     id="path837" />
  <path
     style="opacity:1.0;fill:none;stroke:#ec7405;stroke-width:5;stroke-linejoin:round;stroke-miterlimit:4;stroke-dasharray:none;stroke-opacity:1"
     d="m 1356.2,395.89 2.35,-6.23 16.25,-106.16"
     id="path839" />
  <path
     style="opacity:1.0;fill:none;stroke:#ec7405;stroke-width:5;stroke-linejoin:round;stroke-miterlimit:4;stroke-dasharray:none;stroke-opacity:1"
     d="m 1525.26,-313.93 0.85,-4.7 2.33,-7.26 4.94,-7.9 7.69,-9.4"
     id="path841" />
</svg>
