<?xml version="1.0" encoding="UTF-8" standalone="no"?>
<svg
   xmlns:dc="http://purl.org/dc/elements/1.1/"
   xmlns:cc="http://creativecommons.org/ns#"
   xmlns:rdf="http://www.w3.org/1999/02/22-rdf-syntax-ns#"
   xmlns:svg="http://www.w3.org/2000/svg"
   xmlns="http://www.w3.org/2000/svg"
   xmlns:xlink="http://www.w3.org/1999/xlink"
   viewBox="0 0 600 375"
   height="375"
   width="600"
   id="svg2"
   version="1.1">
  <metadata
     id="metadata8">
    <rdf:RDF>
      <cc:Work
         rdf:about="">
        <dc:format>image/svg+xml</dc:format>
        <dc:type
           rdf:resource="http://purl.org/dc/dcmitype/StillImage" />
        <dc:title></dc:title>
      </cc:Work>
    </rdf:RDF>
  </metadata>
  <defs
     id="defs6" />
  <image
     xlink:href="streetmap/avnosm.png"
     width="1215"
     height="972"
     preserveAspectRatio="none"
     id="image10"
     x="-275"
     y="-447"
     style="display:none" />
  <path
     id="path836"
     d="m 72.46508,67.08244 15.34062,8.82086 78.62069,8.43734 8.43734,-0.38351 11.88898,36.43397 0.76703,23.01093 5.36922,21.09336 -1.15054,21.09335 -1.15055,24.16148 -6.51976,48.32296 -0.38352,38.35156 3.83515,3.83515 161.07653,-22.62742 10.35492,-11.88898 12.2725,-8.05382 33.36585,-9.97141 13.03953,15.72414 18.79226,-1.53406 10.35492,6.90328 30.29773,-0.38352 5.75273,-2.68461 10.35492,6.90328 6.90328,1.15055 4.21867,-1.91758 5.36922,-8.05382 4.21867,-1.53407 20.70984,2.3011"
     style="opacity:1;fill:none;fill-opacity:0.34901961;fill-rule:nonzero;stroke:#78ba58;stroke-width:5;stroke-linecap:butt;stroke-linejoin:round;stroke-miterlimit:4;stroke-dasharray:none;stroke-opacity:1" />
</svg>
