<?xml version="1.0" encoding="UTF-8" standalone="no"?>
<svg
   version="1.1"
   id="svg2"
   width="2975"
   height="2050"
   viewBox="0 0 2975 2050"
   xmlns:xlink="http://www.w3.org/1999/xlink"
   xmlns="http://www.w3.org/2000/svg"
   xmlns:svg="http://www.w3.org/2000/svg"
   xmlns:rdf="http://www.w3.org/1999/02/22-rdf-syntax-ns#"
   xmlns:cc="http://creativecommons.org/ns#"
   xmlns:dc="http://purl.org/dc/elements/1.1/">
  <metadata
     id="metadata8">
    <rdf:RDF>
      <cc:Work
         rdf:about="">
        <dc:format>image/svg+xml</dc:format>
        <dc:type
           rdf:resource="http://purl.org/dc/dcmitype/StillImage" />
      </cc:Work>
    </rdf:RDF>
  </metadata>
  <defs
     id="defs6" />
  <image
     xlink:href="../timelines/basemap/aytosm.png"
     width="3239"
     height="2159.33"
     preserveAspectRatio="none"
     id="image10"
     x="-125"
     y="5.67"
     style="display:none" />
  <path
     style="opacity:1;fill:none;fill-opacity:1;fill-rule:nonzero;stroke:#ff6600;stroke-width:5;stroke-linecap:butt;stroke-linejoin:round;stroke-miterlimit:4;stroke-dasharray:none;stroke-opacity:1"
     d="m 431.75,1341.68 23.05,38.78"
     id="path838" />
  <path
     style="opacity:1;fill:none;fill-opacity:1;fill-rule:nonzero;stroke:#ff6600;stroke-width:1;stroke-linecap:butt;stroke-linejoin:round;stroke-miterlimit:4;stroke-dasharray:none;stroke-opacity:1"
     d="m 454.8,1380.46 55.32,90.85 26.85,43.93 13.02,16.81 16.27,13.83 37.42,26.3"
     id="path840" />
  <path
     style="opacity:1;fill:none;fill-opacity:1;fill-rule:nonzero;stroke:#ff6600;stroke-width:5;stroke-linecap:butt;stroke-linejoin:round;stroke-miterlimit:4;stroke-dasharray:none;stroke-opacity:1"
     d="m 603.68,1572.19 27.66,18.98 8.14,1.36 15.73,-0.27 6.78,1.9 42.31,29.29 6.78,7.32 48.27,53.42 15.19,17.63 3.25,10.3 3.53,1.9 5.15,-0.81 13.29,3.8 3.8,5.69 24.14,49.63 5.69,1.63 39.05,-20.88 112.01,1.48 8.15,-1.66 4.59,2.08"
     id="path842" />
  <path
     style="opacity:1;fill:none;fill-opacity:1;fill-rule:nonzero;stroke:#ff6600;stroke-width:1;stroke-linecap:butt;stroke-linejoin:round;stroke-miterlimit:4;stroke-dasharray:none;stroke-opacity:1"
     d="m 997.17,1754.97 87.86,34.71 10.03,0.81 66.98,-16.27 35.25,-11.39 179.25,-54.51 13.02,-8.41 95.46,-70.78 8.41,-9.76 17.63,-34.44 87.05,-135.05 24.14,-34.71 10.03,-12.47 21.42,-16 84.07,-61.83 251.39,-179.8 21.15,-14.92 15.19,-11.12 287.46,-205.83 27.93,-21.42 30.37,-19.53 25.22,-7.86 90.58,-18.71 26.58,-0.81 27.93,2.44 373.42,39.86"
     id="path844" />
  <path
     style="opacity:1;fill:none;fill-opacity:1;fill-rule:nonzero;stroke:#ff6600;stroke-width:1;stroke-linecap:butt;stroke-linejoin:round;stroke-miterlimit:4;stroke-dasharray:none;stroke-opacity:1"
     d="m 1991.07,1142.9 11.93,2.71 5.69,6.78 2.44,33.63 16.81,58.58 v 10.31 l -9.49,21.97 -2.71,21.42 -9.22,72.68"
     id="path846" />
  <path
     id="path821"
     d="m 499.2,1816.59 50.17,0.83 89.31,-6.62 27.57,-3.58 39.14,-2.76 33.35,-7.99 47.69,-16.82 11.58,-1.1 9.1,2.48 22.88,-3.03 21.23,36.94 -0.55,27.29 -17.09,24.81 58.99,97.03 11.85,5.51 5.51,0.55 11.58,9.1 10.75,3.58 12.96,0.83"
     style="opacity:1;fill:none;fill-opacity:0.4;fill-rule:nonzero;stroke:#0080fe;stroke-width:5;stroke-linecap:butt;stroke-linejoin:round;stroke-miterlimit:4;stroke-dasharray:none;stroke-opacity:1" />
  <path
     id="path823"
     d="m 453.71,1262.52 52.65,21.78 145.0,13.51 125.7,-2.76 50.17,-4.96 15.16,2.48 73.32,18.74 6.62,-5.24 -1.93,-29.5 -52.37,-294.4 -33.63,-150.78 -1.1,-27.57 2.76,-39.42 6.06,-33.63 60.37,-181.38 4.41,-26.74 1.1,-71.95 19.02,-198.75 4.13,-10.2 7.17,-12.68 -0.83,-25.91 3.31,-17.92 0.55,-60.64 -9.65,-28.39"
     style="opacity:1;fill:none;fill-opacity:0.4;fill-rule:nonzero;stroke:#cc0098;stroke-width:5;stroke-linecap:butt;stroke-linejoin:round;stroke-miterlimit:4;stroke-dasharray:none;stroke-opacity:1" />
  <path
     style="fill:none;stroke:#cc0098;stroke-width:1;stroke-linejoin:round;stroke-miterlimit:4;stroke-dasharray:none;stroke-opacity:1"
     d="m 453.71,1262.52 -43.68,-17.41 -19.33,-3.9 -18.41,-2.09 -15.01,-3.54 -5.53,0.61 -3.72,3.33 -3.04,6.91 -2.19,10.32 -3.11,9.07 -1.86,20.55 -4.88,13.97 -26.17,70.54 -15.36,46.62 -5.13,22.51 -1.73,21.54 1.5,22.76 6.7,27.43 15.94,41.95 3.37,23.07 0.83,38.7 -3.36,35.84 -7.01,38.17"
     id="path864" />
  <path
     style="fill:none;stroke:#cc0098;stroke-width:5;stroke-linejoin:round;stroke-miterlimit:4;stroke-dasharray:none;stroke-opacity:1"
     d="m 302.52,1689.45 0.66,4.54 4.69,2.68 128.7,1.15 30.13,104.46 5.22,5.27 14.93,6.04"
     id="path866" />
  <path
     style="opacity:1;fill:none;fill-opacity:1;fill-rule:nonzero;stroke:#ff6600;stroke-width:1;stroke-linecap:butt;stroke-linejoin:round;stroke-miterlimit:4;stroke-dasharray:none;stroke-opacity:1"
     d="m 57.78,907.51 7.86,15.73 9.76,8.14 61.02,43.66 13.56,13.29 68.07,75.66 93.02,100.34 20.88,30.64 14.92,33.63 4.88,7.59 25.76,25.76 18.44,21.42 11.12,18.44 24.68,39.86"
     id="path836" />
</svg>
