<?xml version="1.0" encoding="UTF-8" standalone="no"?>
<svg
   xmlns:dc="http://purl.org/dc/elements/1.1/"
   xmlns:cc="http://creativecommons.org/ns#"
   xmlns:rdf="http://www.w3.org/1999/02/22-rdf-syntax-ns#"
   xmlns:svg="http://www.w3.org/2000/svg"
   xmlns="http://www.w3.org/2000/svg"
   xmlns:xlink="http://www.w3.org/1999/xlink"
   version="1.1"
   id="svg2"
   width="1425"
   height="1150"
   viewBox="0 0 1425 1150">
  <metadata
     id="metadata8">
    <rdf:RDF>
      <cc:Work
         rdf:about="">
        <dc:format>image/svg+xml</dc:format>
        <dc:type
           rdf:resource="http://purl.org/dc/dcmitype/StillImage" />
        <dc:title></dc:title>
      </cc:Work>
    </rdf:RDF>
  </metadata>
  <defs
     id="defs6" />
  <image
     xlink:href="basemap/bgyosm.png"
     y="-796"
     x="-500"
     id="image10"
     preserveAspectRatio="none"
     height="2121"
     width="2121"
     style="display:none" />
  <path
     id="path816"
     d="m 61.32,1081.65 17.21,-7.12 17.88,-4.47 24.5,-15.23"
     style="opacity:1;fill:none;fill-opacity:0.4;fill-rule:nonzero;stroke:#1c49a2;stroke-width:5;stroke-linecap:butt;stroke-linejoin:round;stroke-miterlimit:4;stroke-dasharray:none;stroke-opacity:1" />
  <path
     id="path818"
     d="m 120.91,1054.84 12.25,-7.45 13.41,-13.57 6.62,-8.77 28.8,-92.53"
     style="opacity:1;fill:none;fill-opacity:0.4;fill-rule:nonzero;stroke:#1c49a2;stroke-width:1;stroke-linecap:butt;stroke-linejoin:round;stroke-miterlimit:4;stroke-dasharray:none;stroke-opacity:1" />
  <path
     id="path820"
     d="m 181.98,932.52 5.63,-17.05 12.58,-27.64 13.08,-32.94 6.12,-8.44 8.28,-6.29 92.86,-72.83 10.59,-5.96 17.21,-7.61 60.58,-16.55 8.77,-3.48 10.43,-7.45 146.98,-164.53 58.92,-97.16 8.28,-7.12 37.24,-17.21 18.21,-7.78 29.79,-13.08 57.1,-25.82 63.23,-28.8 157.74,-69.35 15.89,-8.11 11.09,-7.12 65.55,-55.12 93.85,-57.93 21.68,-13.9 24.17,-8.28 22.01,-9.77 26.48,-11.92 17.88,-13.08 65.05,-49.16"
     style="opacity:1;fill:none;fill-opacity:0.4;fill-rule:nonzero;stroke:#1c49a2;stroke-width:5;stroke-linecap:butt;stroke-linejoin:round;stroke-miterlimit:4;stroke-dasharray:none;stroke-opacity:1" />
  <path
     id="path822"
     d="m -139.29,850.42 -18.54,-16.22 -11.59,-12.91 -10.26,-5.63 -8.94,-1.99 -25.49,6.62"
     style="opacity:1;fill:none;fill-opacity:0.4;fill-rule:nonzero;stroke:#f2f2f2;stroke-width:8;stroke-linecap:butt;stroke-linejoin:round;stroke-miterlimit:4;stroke-dasharray:none;stroke-opacity:1" />
</svg>
