<?xml version="1.0" encoding="UTF-8" standalone="no"?>
<svg
   viewBox="0 0 650 500"
   height="500"
   width="650"
   id="svg2"
   version="1.1"
   xmlns:xlink="http://www.w3.org/1999/xlink"
   xmlns="http://www.w3.org/2000/svg"
   xmlns:svg="http://www.w3.org/2000/svg"
   xmlns:rdf="http://www.w3.org/1999/02/22-rdf-syntax-ns#"
   xmlns:cc="http://creativecommons.org/ns#"
   xmlns:dc="http://purl.org/dc/elements/1.1/">
  <metadata
     id="metadata8">
    <rdf:RDF>
      <cc:Work
         rdf:about="">
        <dc:format>image/svg+xml</dc:format>
        <dc:type
           rdf:resource="http://purl.org/dc/dcmitype/StillImage" />
      </cc:Work>
    </rdf:RDF>
  </metadata>
  <defs
     id="defs6" />
  <path
     id="path899"
     d="M 345.07,66.16 379.01,34.69 408.71,-13.75"
     style="opacity:1;fill:none;fill-opacity:0.38;fill-rule:nonzero;stroke:#f2f2f2;stroke-width:8;stroke-linecap:butt;stroke-linejoin:round;stroke-miterlimit:4;stroke-dasharray:none;stroke-opacity:1" />
  <path
     style="color:#000000;font-style:normal;font-variant:normal;font-weight:normal;font-stretch:normal;font-size:medium;line-height:normal;font-family:sans-serif;font-variant-ligatures:normal;font-variant-position:normal;font-variant-caps:normal;font-variant-numeric:normal;font-variant-alternates:normal;font-feature-settings:normal;text-indent:0;text-align:start;text-decoration:none;text-decoration-line:none;text-decoration-style:solid;text-decoration-color:#000000;letter-spacing:normal;word-spacing:normal;text-transform:none;writing-mode:lr-tb;direction:ltr;text-orientation:mixed;dominant-baseline:auto;baseline-shift:baseline;text-anchor:start;white-space:normal;shape-padding:0;clip-rule:nonzero;display:inline;overflow:visible;visibility:visible;opacity:1;isolation:auto;mix-blend-mode:normal;color-interpolation:sRGB;color-interpolation-filters:linearRGB;solid-color:#000000;solid-opacity:1;vector-effect:none;fill:none;fill-opacity:1;fill-rule:nonzero;stroke:#f2f2f2;stroke-width:8;stroke-linecap:butt;stroke-linejoin:round;stroke-miterlimit:4;stroke-dasharray:none;stroke-dashoffset:0;stroke-opacity:1;color-rendering:auto;image-rendering:auto;shape-rendering:auto;text-rendering:auto;enable-background:accumulate"
     d="m 752.2,344.79 5.51,-58.73 -0.01,-0.53 -2.1,-17.56 -0.2,-0.71 -9.7,-22.02 -0.64,-0.87 -12.58,-11.01 -0.35,-0.26 -9.96,-6.03 -0.73,-0.3 -13.63,-3.15 -0.34,-0.06 -74.46,-6.55 -0.77,0.05 -10.49,2.36 -0.5,0.17 -18.22,8.46 -11.26,0.98 -10.62,-2.17 -13.22,-9.98 -16.05,-19.11 -2.84,-7.8 0.52,-28.64 -0.11,-0.78 -3.93,-12.85 -0.5,-0.9 -9.96,-11.54 -0.71,-0.57 -11.8,-6.29 -1.08,-0.29 -13.11,-0.52 -0.82,0.1 -10.49,3.15 -0.58,0.26 -40.38,24.64 -0.4,0.3 -7.6,7.08 -0.51,0.67 -8.13,15.47 -0.23,0.65 -3.59,17.19 -4.35,7.73 -6.19,5.95 -8.54,3.32 h -8.76 l -7.25,-2.81 -2.34,-2.15 -5.39,-15.2 0.74,-13.65 4.58,-16.78 9.81,-18.61 11.02,-7.52 0.03,-0.02 7.87,-5.51 0.82,-0.96 3.93,-8.13 0.25,-1.17 -0.26,-8.13 -0.29,-1.09 -4.98,-9.44 -0.87,-0.94 -12.24,-7.81 -10.67,-8.07 -1.07,-0.47 -8.46,-1.49 -20.62,-12.22 -9.25,-8.48 -1.01,-0.56 -8.21,-2.31 -6.51,-2.94 -20.04,-7.81 -9.96,-11.54 -3.93,-6.82 -2.1,-11.54 3.15,-22.55 34.08,-207.9 v -8.65 l -4.46,-12.59 -6.82,-8.39 -18.61,-16.52 -4.46,-8.39 -1.05,-10.75 1.05,-6.55 10.49,-8.39 9.04,-2.79 10.75,0.74 20.95,5.0 12.24,-1.85 11.68,-7.6 14.09,-34.3 1.48,-9.08 -3.52,-10.38 -7.23,-6.67 -55.06,-29.11 -8.16,-2.23 -17.43,-0.56"
     id="path825" />
  <path
     id="path870"
     d="M -86.25,-192.98 -103.25,-219.62 -115,-229 l -20,-11.5 -7,-5.5 -4,-9.25 -0.5,-52.5 -18.25,-35.25 -25.5,-28.5 -15,-16.75 -2,-8.75 v -14.75 l 13,-18.25 1.75,-12.25 -2,-14 -18.75,-96 -8.5,-14.25 -34,-26.75 -35.5,-23.75 -26,-6.75 -22.75,-19 -68,-62.75 -58.75,-23 -45.25,-22.75 -26.5,-14.75 -57.75,-54.25 -5.25,-5.5 -1.75,-6.25 2,-9 14.5,-29.5 28.25,-70 4,-21.25 -0.75,-21 -15.5,-24 -1.75,-9.75 2.5,-7.25 6,-7.5 9,-3 21,2.5 6.25,-3.75 6.25,-6.25 2.25,-9.25 7.5,-59 -1.75,-8.5 -7,-12.75 -13.75,-7 -42.25,-25.25 -5.25,-8 -16.5,-53.5 2.25,-29 -4.75,-13 -30.5,-54.5 v -8.25 l 2.25,-9.75 6.25,-4.75 11.25,-3.25 14.25,3 9.75,-1.5 10,-7.5 29.75,-63.5 8,-7 11.25,-3.5 21.5,6 8,-0.75 9,-3 6.25,-5.75 8.25,-22.5 -8.25,-52 4.75,-15 21.75,-29 8.75,-8.25 13.25,-1.25 20.25,6.25 6.75,-2.25 9.25,-6 24,-41.25 9.75,-10.5 7,-3.25 12,-0.75 45,14.25 8,0.75 10.5,-4.5 5.5,-8.25 7.25,-17.25 6.75,-8 26.5,-15.75 8.25,-2 126.75,1.25 11.5,4.75 41.75,27.25 7.5,2 h 8.5 l 12.5,-5.25 54.5,-29 10.75,-5 10.75,1.75 15.75,5.75 13.25,-2.5 8.5,-8 5.5,-7.75 v -8.75 l -3.5,-6.5 -9.25,-11 -3.5,-10 4,-10 13.25,-11.5 4.25,-8.75 2.5,-14.75 1.5,-14.5 6,-10.5 22.25,-21.75 5.75,-11.75 5.5,-24 9.25,-18.5 v -8.75 l -3.75,-8.25 -22,-24.75 -18.5,-29.75 -1.5,-11.5 7,-19.25 -2,-22.25"
     style="color:#000000;font-style:normal;font-variant:normal;font-weight:normal;font-stretch:normal;font-size:medium;line-height:normal;font-family:sans-serif;font-variant-ligatures:normal;font-variant-position:normal;font-variant-caps:normal;font-variant-numeric:normal;font-variant-alternates:normal;font-feature-settings:normal;text-indent:0;text-align:start;text-decoration:none;text-decoration-line:none;text-decoration-style:solid;text-decoration-color:#000000;letter-spacing:normal;word-spacing:normal;text-transform:none;writing-mode:lr-tb;direction:ltr;text-orientation:mixed;dominant-baseline:auto;baseline-shift:baseline;text-anchor:start;white-space:normal;shape-padding:0;clip-rule:nonzero;display:inline;overflow:visible;visibility:visible;opacity:1;isolation:auto;mix-blend-mode:normal;color-interpolation:sRGB;color-interpolation-filters:linearRGB;solid-color:#000000;solid-opacity:1;vector-effect:none;fill:none;fill-opacity:1;fill-rule:nonzero;stroke:#f2f2f2;stroke-width:8;stroke-linecap:butt;stroke-linejoin:round;stroke-miterlimit:4;stroke-dasharray:none;stroke-dashoffset:0;stroke-opacity:1;color-rendering:auto;image-rendering:auto;shape-rendering:auto;text-rendering:auto;enable-background:accumulate" />
  <path
     id="path864"
     d="m -905,-755 -27.75,-38 -17.5,-42.75 -3,-15.25 1.75,-16.5 5.5,-11.25 8.25,-8 12.5,-8.25 14,-1.75 11.25,1.5 11.5,5.5 8.25,9.5 21.75,38.25 11.75,13.75 18.25,13 22.25,11 13.25,12 12.25,12.5 9.25,17.75 8.75,27 11.75,19.5 15.25,13.75 17,13.5 12.25,9.25 45.25,14.25 10.25,7 7.25,10 24.5,42.5 13.25,19.5 11,9 21,11.25 63.5,23.5 13.5,0.75 28.75,8 16,9.75 12.5,4.5 20,2.5 12.5,6.25 10,11.25 6.25,15 v 13.75 l -5,12 -10.93,44.81 3.54,11.67 32.35,46.32 26.3,32.71 14.75,34 -1,16.25 -22.25,62.5 3,17 6.5,13 10.5,14.5 12.25,7.5 14.5,3.75 21.75,2 16.75,-1.5 14.25,-6 5.75,-5.25 7.5,-9 3,-7.75 4.5,-23.5 6.5,-19.75 5.75,-11.25 12.5,-13 18.25,-8.75 13.75,-2 32,1.75 16.5,7.25 14.25,8.75 13.5,15 8,16.5 6.25,20.25 5.57,21.33 50.39,126.97 12.58,17.66 15.51,11.04 H 8.74 l 7.89,-1.68 18.4,-5.47 c 0.17,-0.05 0.34,-0.08 0.52,-0.1 l 9.75,-0.75 c 0.13,-0.01 0.27,-0.01 0.4,0 l 9,0.75 c 0.29,0.02 0.58,0.1 0.85,0.22 l 10.75,5 c 0.25,0.12 0.49,0.28 0.69,0.47 l 9,8.75 c 0.31,0.3 0.53,0.67 0.65,1.08 l 4.25,14.25 c 0.05,0.15 0.08,0.31 0.09,0.47 l 3.5,35.23 3.5,29.22 c 0,0.05 0.01,0.1 0.01,0.15 l 0.5,8.5 c 0.02,0.36 -0.04,0.72 -0.17,1.06 l -13.38,34.2 -1.4,11.71 2.74,10.29 6.9,8.74 13.59,8.35 90.93,27.01 4.69,-0.61 40.04,-24.96 c 0.03,-0.02 0.06,-0.04 0.09,-0.05 l 9.25,-5.25 c 0.47,-0.27 1.02,-0.38 1.56,-0.3 l 7.5,1 c 0.13,0.02 0.25,0.04 0.37,0.08 l 87.75,25.75 c 0.18,0.05 0.36,0.13 0.53,0.22 l 25.11,14.17 10.1,4.09 29.99,5.21 c 0.13,0.02 0.25,0.05 0.37,0.09 l 32,10.75 c 0.14,0.05 0.28,0.11 0.41,0.18 l 12.75,7 c 0.21,0.12 0.41,0.26 0.58,0.44 l 17.75,18 c 0.17,0.17 0.32,0.37 0.43,0.59 l 16.25,30.75 c 0.1,0.18 0.17,0.38 0.22,0.58 l 4.94,20.51 8.55,18.57 28.32,40.0 15.59,19.3 30.32,28.08 42.67,35.48 15.64,6.74 37.45,6.2 25.34,6.72 79.75,4 22.75,9 40.25,18.75 6.75,12.5 3.75,13.5 -1.25,7 -3,7.25 -13.75,25.5 -10.5,10.75 -13.75,8 -54.25,8.75 h -11.5 l -15,-1.25 -23,-13.5"
     style="color:#000000;font-style:normal;font-variant:normal;font-weight:normal;font-stretch:normal;font-size:medium;line-height:normal;font-family:sans-serif;font-variant-ligatures:normal;font-variant-position:normal;font-variant-caps:normal;font-variant-numeric:normal;font-variant-alternates:normal;font-feature-settings:normal;text-indent:0;text-align:start;text-decoration:none;text-decoration-line:none;text-decoration-style:solid;text-decoration-color:#000000;letter-spacing:normal;word-spacing:normal;text-transform:none;writing-mode:lr-tb;direction:ltr;text-orientation:mixed;dominant-baseline:auto;baseline-shift:baseline;text-anchor:start;white-space:normal;shape-padding:0;clip-rule:nonzero;display:inline;overflow:visible;visibility:visible;opacity:1;isolation:auto;mix-blend-mode:normal;color-interpolation:sRGB;color-interpolation-filters:linearRGB;solid-color:#000000;solid-opacity:1;vector-effect:none;fill:none;fill-opacity:1;fill-rule:nonzero;stroke:#f2f2f2;stroke-width:8;stroke-linecap:butt;stroke-linejoin:round;stroke-miterlimit:4;stroke-dasharray:none;stroke-dashoffset:0;stroke-opacity:1;color-rendering:auto;image-rendering:auto;shape-rendering:auto;text-rendering:auto;enable-background:accumulate" />
  <path
     id="path897"
     d="m 323,197 -30,21.5 -10.25,19 -8.5,14.25 -8,20.75 -10,8.5 -21,8.5 -32.25,1.75 -47.75,-0.25 -12,-7.25 -20.5,-23.5 -3,-15.25 -3.5,-36.75 -7,-16.75 L 80.75,163.75 61.5,147 37.25,134 16,134.5 l -29.25,1 -25.5,-9.5 -13.5,-10.75 L -80.25,68 -94,51.5 -111.25,10.5 -137.75,-18 -152,-52.25 -168.5,-72 l -39.75,-38.5 -7.5,-18.75 -2,-22 13,-105.5 6.25,-23.25 3.25,-20.25 -3,-13.25 -46.75,-65.5 -13.75,-11 -34.5,-17.25 -24.25,-19.25"
     style="opacity:1;fill:none;fill-opacity:0.38;fill-rule:nonzero;stroke:#f2f2f2;stroke-width:8;stroke-linecap:butt;stroke-linejoin:round;stroke-miterlimit:4;stroke-dasharray:none;stroke-opacity:1" />
  <path
     id="path901"
     d="m -953.17,-433.06 -33.94,89.8 -8.84,13.08 -35.36,29.34"
     style="opacity:1;fill:none;fill-opacity:0.38;fill-rule:nonzero;stroke:#f2f2f2;stroke-width:8;stroke-linecap:butt;stroke-linejoin:round;stroke-miterlimit:4;stroke-dasharray:none;stroke-opacity:1" />
  <text
     x="-1050.55"
     y="-1876.24"
     id="text2992"
     xml:space="preserve"
     style="font-style:normal;font-weight:normal;font-size:144px;line-height:125%;font-family:Sans;-inkscape-font-specification:Sans;letter-spacing:0px;word-spacing:0px;fill:#000000;fill-opacity:1;stroke:#f2f2f2;stroke-width:8;stroke-miterlimit:4;stroke-dasharray:none"><tspan
       style="stroke:#f2f2f2;stroke-width:8;stroke-miterlimit:4;stroke-dasharray:none"
       x="-1050.55"
       y="-1876.24"
       id="tspan1">2020</tspan></text>
  <path
     id="path1521"
     d="m -906.92,-900.03 17.94,18.74 8.4,10.16 6.89,12.02"
     style="opacity:1;fill:none;fill-opacity:0.38;fill-rule:nonzero;stroke:#f2f2f2;stroke-width:8;stroke-linecap:butt;stroke-linejoin:round;stroke-miterlimit:4;stroke-dasharray:none;stroke-opacity:1" />
  <path
     style="opacity:1;fill:none;fill-opacity:0.4;fill-rule:nonzero;stroke:#f2f2f2;stroke-width:8;stroke-linecap:butt;stroke-linejoin:round;stroke-miterlimit:4;stroke-dasharray:none;stroke-opacity:1"
     d="m 394.22,-357.62 73.23,34.3 13.35,3.15 97.88,-10.2 17.05,0.18 24.66,10.38 17.05,11.68 9.27,2.78 35.22,-5.0 51.91,19.46 128.28,48.76 45.79,27.44 20.21,7.23 36.52,12.61 42.64,25.58 9.27,-0.56 13.53,-4.45 9.27,3.15 15.57,7.04 29.48,17.61 29.85,25.21 89.91,47.27 33.0,18.35 16.87,15.39 12.05,7.79 13.9,6.3 14.09,0.56 22.62,-6.67 11.49,2.78 9.83,5.0 18.35,22.25"
     id="path833" />
  <image
     style="display:none;stroke:#f2f2f2;stroke-width:8;stroke-miterlimit:4;stroke-dasharray:none"
     y="-2031"
     x="-1090"
     id="image10"
     xlink:href="../timelines/streetmap/bioosm.png"
     preserveAspectRatio="none"
     height="3196"
     width="3196" />
  <path
     id="path824"
     d="m 142.27,235.49 -66.59,-4.98 -9.96,-8.65 -8.39,-5.5 15.21,-50.07 3.41,-2.1 25.17,21.76 h 2.88 l 3.15,-3.15 18.88,-59.25 -0.52,-7.08 6.55,-8.13 5.51,-3.67 11.27,-2.36 5.77,-5.5 8.39,-14.94 9.7,-8.39 13.11,-7.87 12.85,-3.67 12.58,1.31 11.01,2.88 11.8,5.24 8.39,6.82 5.77,0.52 14.68,-2.36 h 15.47 l 7.6,-2.1 6.29,0.79 6.82,8.39 13.63,18.88 16.78,19.14 13.89,11.27 11.54,8.65 v 18.88 l -21.5,15.99 v 4.72 l 30.67,23.33 0.52,3.41 -2.62,3.41 -16.52,3.15 -6.82,2.88 -3.15,7.6 2.1,9.18 7.6,15.21 8.39,8.65 8.65,7.34 9.7,3.67 8.65,0.26 6.29,4.46 9.18,16.52 -5.24,1.83 0.71,7.69"
     style="opacity:1;fill:none;fill-opacity:0.4;fill-rule:nonzero;stroke:#006f2b;stroke-width:5;stroke-linecap:butt;stroke-linejoin:round;stroke-miterlimit:4;stroke-dasharray:none;stroke-opacity:1" />
  <path
     style="fill:none;stroke:#006f2b;stroke-width:1;stroke-linejoin:round;stroke-dasharray:none;stroke-opacity:1"
     d="m 391.52,299.55 -0.36,6.09 -4.09,15.73 1.09,7.57 5.91,6.61 4.48,7.86 2.41,15.79 10.51,49.55 4.75,12.46 8.37,8.7 9.88,2.7 11.92,-0.67 9.52,-4.84 13.04,-11.96 9.32,-3.16 35.26,-2.73 11.97,-1.53 17.86,-9.35 10.0,-2.72 24.5,0.64"
     id="path3822" />
</svg>
