<?xml version="1.0" encoding="UTF-8" standalone="no"?>
<svg
   xmlns:dc="http://purl.org/dc/elements/1.1/"
   xmlns:cc="http://creativecommons.org/ns#"
   xmlns:rdf="http://www.w3.org/1999/02/22-rdf-syntax-ns#"
   xmlns:svg="http://www.w3.org/2000/svg"
   xmlns="http://www.w3.org/2000/svg"
   xmlns:xlink="http://www.w3.org/1999/xlink"
   id="svg2"
   height="975"
   width="875"
   viewBox="-1700 -50 875 975"
   version="1.1">
  <metadata
     id="metadata8">
    <rdf:RDF>
      <cc:Work
         rdf:about="">
        <dc:format>image/svg+xml</dc:format>
        <dc:type
           rdf:resource="http://purl.org/dc/dcmitype/StillImage" />
        <dc:title></dc:title>
      </cc:Work>
    </rdf:RDF>
  </metadata>
  <defs
     id="defs6" />
  <image
     xlink:href="../timelines/drs/./../streetmap/bjsosm.png"
     id="image10"
     height="8540.89"
     width="6988"
     y="-4180.89"
     x="-4535"
     style="display:none" />
  <path
     id="path817"
     d="m -1133.03,863.23 -6.54,-194.67 -10.98,-3.66 -9.76,-7.73 -2.44,-10.57 -1.0,-27.24 -33.56,1.22 -3.63,-85.26 -120.65,3.7 -99.51,-0.09 -16.68,-514.91 -198.66,2.59"
     style="opacity:1;fill:none;fill-opacity:1;fill-rule:nonzero;stroke:#ff0000;stroke-width:5;stroke-linecap:butt;stroke-linejoin:round;stroke-miterlimit:4;stroke-dasharray:none;stroke-opacity:1" />
  <path
     id="path819"
     d="m -1200.94,535.31 84.54,-4.67 213.09,-8.39 -13.51,-502.26 -236.33,2.3 -10.93,9.78 4.31,102.92 -65.26,1.15 -162.72,6.9 0.29,20.41 -45.71,1.73"
     style="opacity:1;fill:none;fill-opacity:1;fill-rule:nonzero;stroke:#ff0000;stroke-width:5;stroke-linecap:butt;stroke-linejoin:round;stroke-miterlimit:4;stroke-dasharray:none;stroke-opacity:1" />
  <path
     id="path821"
     d="m -1421.1,538.92 3.02,109.3"
     style="opacity:1;fill:none;fill-opacity:1;fill-rule:nonzero;stroke:#ff0000;stroke-width:5;stroke-linecap:butt;stroke-linejoin:round;stroke-miterlimit:4;stroke-dasharray:none;stroke-opacity:1" />
  <path
     id="path823"
     d="m -903.31,522.25 4.04,103.61"
     style="opacity:1;fill:none;fill-opacity:1;fill-rule:nonzero;stroke:#ff0000;stroke-width:5;stroke-linecap:butt;stroke-linejoin:round;stroke-miterlimit:4;stroke-dasharray:none;stroke-opacity:1" />
  <path
     id="path825"
     d="m -1139.57,668.55 12.6,-6.71 5.29,-6.51 2.64,-10.57 -5.33,-113.58"
     style="opacity:1;fill:none;fill-opacity:1;fill-rule:nonzero;stroke:#ff0000;stroke-width:5;stroke-linecap:butt;stroke-linejoin:round;stroke-miterlimit:4;stroke-dasharray:none;stroke-opacity:1" />
  <path
     id="path827"
     d="m -898.06,638.47 4.07,115.06 -162.63,8.54 -17.89,2.03 -76.44,21.96 -37.0,13.82 -17.08,3.66 -67.49,5.69 -65.87,3.25 -78.47,0.81"
     style="opacity:1;fill:none;fill-opacity:1;fill-rule:nonzero;stroke:#ff0000;stroke-width:5;stroke-linecap:butt;stroke-linejoin:round;stroke-miterlimit:4;stroke-dasharray:none;stroke-opacity:1" />
</svg>
