<?xml version="1.0" encoding="UTF-8" standalone="no"?>
<svg
   xmlns:dc="http://purl.org/dc/elements/1.1/"
   xmlns:cc="http://creativecommons.org/ns#"
   xmlns:rdf="http://www.w3.org/1999/02/22-rdf-syntax-ns#"
   xmlns:svg="http://www.w3.org/2000/svg"
   xmlns="http://www.w3.org/2000/svg"
   xmlns:xlink="http://www.w3.org/1999/xlink"
   viewBox="0 0 1375 1525"
   height="1525"
   width="1375"
   id="svg2"
   version="1.1">
  <metadata
     id="metadata8">
    <rdf:RDF>
      <cc:Work
         rdf:about="">
        <dc:format>image/svg+xml</dc:format>
        <dc:type
           rdf:resource="http://purl.org/dc/dcmitype/StillImage" />
        <dc:title></dc:title>
      </cc:Work>
    </rdf:RDF>
  </metadata>
  <defs
     id="defs6" />
  <image
     xlink:href="streetmap/btsosm.png"
     width="1801"
     height="2251.25"
     preserveAspectRatio="none"
     id="image10"
     x="-275"
     y="-76.25"
     style="display:none" />
  <path
     id="path817"
     d="m 72.19,1071.51 9.76,19.22 8.24,6.71 9.15,0.61 54.92,0.61 36.61,3.66 7.93,3.36 7.93,10.37 8.24,16.17 8.54,7.63 34.17,25.93 18,7.93 94.12,26.54 5.34,-4.58 106.17,-34.17 2.75,-7.32 7.02,0.92 9.46,-3.36 13.12,-8.24 5.19,-7.93 13.42,-0.92 7.32,-8.54 49.73,-36.92 16.47,-24.1 38.14,-36.92 16.78,-72.92 25.93,-42.71 38.75,-76.88 10.37,-42.1 -5.8,-51.56 11.9,-97.32 12.81,-58.88 3.97,-7.63 31.42,-42.1 29.59,-55.22 12.2,-13.42 25.63,-34.47 30.51,-41.19 54,-82.98 23.49,-64.07 0.92,-14.34 -1.22,-12.51 -3.97,-10.37 0.61,-10.07 11.9,-18 46.37,-54.61 7.02,-0.92 10.98,5.19 h 7.02 l 7.63,-3.97 20.14,-26.54 14.34,-12.2 49.73,-34.78"
     style="opacity:1;fill:none;fill-opacity:1;fill-rule:nonzero;stroke:#e31e24;stroke-width:5;stroke-linecap:butt;stroke-linejoin:round;stroke-miterlimit:4;stroke-dasharray:none;stroke-opacity:1" />
  <path
     id="path819"
     d="m 605.78,1465.37 19.53,-28.98 1.22,-8.85 -0.61,-45.15 2.44,-85.42 3.97,-76.88 -3.66,-7.63 -39.97,-39.66 -3.2,-20.44 -16.93,-10.68 -36.31,-7.02"
     style="opacity:1;fill:none;fill-opacity:1;fill-rule:nonzero;stroke:#e31e24;stroke-width:5;stroke-linecap:butt;stroke-linejoin:round;stroke-miterlimit:4;stroke-dasharray:none;stroke-opacity:1" />
  <path
     id="path823"
     d="m 369.8,1200.25 5.49,4.88 13.73,10.07 16.63,5.34 22.12,3.2 54.76,3.97 27.92,0.61 41.19,-1.98 2.14,-4.73 -0.46,-11.59 -2.44,-10.22 1.37,-4.58 36.46,-22.42"
     style="opacity:1;fill:none;fill-opacity:1;fill-rule:nonzero;stroke:#e31e24;stroke-width:5;stroke-linecap:butt;stroke-linejoin:round;stroke-miterlimit:4;stroke-dasharray:none;stroke-opacity:1" />
  <path
     id="path825"
     d="m 624.08,1208.03 -6.71,3.05 -58.12,14.49 -7.63,0.76"
     style="opacity:1;fill:none;fill-opacity:1;fill-rule:nonzero;stroke:#e31e24;stroke-width:5;stroke-linecap:butt;stroke-linejoin:round;stroke-miterlimit:4;stroke-dasharray:none;stroke-opacity:1" />
  <path
     id="path827"
     d="m 527.68,946.58 -3.66,15.1 9.92,26.24 1.83,1.98 26.39,12.66 32.64,23.03 32.95,17.08"
     style="opacity:1;fill:none;fill-opacity:1;fill-rule:nonzero;stroke:#e31e24;stroke-width:5;stroke-linecap:butt;stroke-linejoin:round;stroke-miterlimit:4;stroke-dasharray:none;stroke-opacity:1" />
  <path
     id="path829"
     d="m 643.92,1028.19 -5.95,29.9 -3.05,6.86 -7.32,22.27 -6.71,14.34 -27.15,35.24 -8.24,15.56"
     style="opacity:1;fill:none;fill-opacity:1;fill-rule:nonzero;stroke:#e31e24;stroke-width:5;stroke-linecap:butt;stroke-linejoin:round;stroke-miterlimit:4;stroke-dasharray:none;stroke-opacity:1" />
  <path
     id="path831"
     d="m 635.53,1063.12 14.8,-10.98 29.29,-32.8 47.59,-54.31 1.22,-4.58 9.92,-11.59 9.46,-11.59 169.17,-263.44 15.41,-17.54 15.56,-11.59 16.32,-8.39 230.64,-118.83 5.03,-5.19 32.03,-17.69 17.08,-13.42 19.98,-9.92 16.02,-3.97 26.08,-3.2"
     style="opacity:1;fill:none;fill-opacity:1;fill-rule:nonzero;stroke:#e31e24;stroke-width:5;stroke-linecap:butt;stroke-linejoin:round;stroke-miterlimit:4;stroke-dasharray:none;stroke-opacity:1" />
  <path
     id="path833"
     d="m 738.8,947.49 20.9,1.07 10.98,5.19 33.56,40.58 5.64,1.68 86.19,-17.39 352.22,-39.97"
     style="opacity:1;fill:none;fill-opacity:1;fill-rule:nonzero;stroke:#e31e24;stroke-width:5;stroke-linecap:butt;stroke-linejoin:round;stroke-miterlimit:4;stroke-dasharray:none;stroke-opacity:1" />
  <path
     id="path835"
     d="m 881.58,730.27 27,16.47 5.19,-1.53 7.02,-12.2"
     style="opacity:1;fill:none;fill-opacity:1;fill-rule:nonzero;stroke:#e31e24;stroke-width:5;stroke-linecap:butt;stroke-linejoin:round;stroke-miterlimit:4;stroke-dasharray:none;stroke-opacity:1" />
  <path
     id="path837"
     d="m 649.71,1000.27 21.05,9.76 9.15,8.54"
     style="opacity:1;fill:none;fill-opacity:1;fill-rule:nonzero;stroke:#e31e24;stroke-width:5;stroke-linecap:butt;stroke-linejoin:round;stroke-miterlimit:4;stroke-dasharray:none;stroke-opacity:1" />
</svg>
