<?xml version="1.0" encoding="UTF-8" standalone="no"?>
<svg
   version="1.1"
   id="svg2"
   width="2750"
   height="5450"
   viewBox="0 -950 2750 5450"
   xmlns:xlink="http://www.w3.org/1999/xlink"
   xmlns="http://www.w3.org/2000/svg"
   xmlns:svg="http://www.w3.org/2000/svg"
   xmlns:rdf="http://www.w3.org/1999/02/22-rdf-syntax-ns#"
   xmlns:cc="http://creativecommons.org/ns#"
   xmlns:dc="http://purl.org/dc/elements/1.1/">
  <metadata
     id="metadata8">
    <rdf:RDF>
      <cc:Work
         rdf:about="">
        <dc:format>image/svg+xml</dc:format>
        <dc:type
           rdf:resource="http://purl.org/dc/dcmitype/StillImage" />
      </cc:Work>
    </rdf:RDF>
  </metadata>
  <defs
     id="defs6" />
  <image
     xlink:href="../timelines/streetmap/budosm.png"
     width="2735.9995"
     height="4559.999"
     preserveAspectRatio="none"
     id="image10"
     x="50.000355"
     y="-44.999157"
     style="display:none" />
  <path
     style="fill:none;fill-rule:evenodd;stroke:#f2f2f2;stroke-width:8;stroke-linecap:butt;stroke-linejoin:round;stroke-miterlimit:4;stroke-dasharray:none;stroke-opacity:1"
     d="m 1387.5002,1287.0007 -51.5,8.5 -38,21 -8,1.5 h -15.5 l -11,5 -8.5,8.5 -4.5,9.5 -4,18.5 -235,231.5 -1.9482,4.75 -0.3018,21.25 -2.25,3 -28.74994,6 -8.25,2.25 -2.75,6 -6.5,4"
     id="path4512" />
  <path
     style="fill:none;fill-rule:evenodd;stroke:#f2f2f2;stroke-width:8;stroke-linecap:butt;stroke-linejoin:round;stroke-miterlimit:4;stroke-dasharray:none;stroke-opacity:1"
     d="m 1849.5001,1540.5007 -169.4999,28.5 -38.5,13 -43.5,-3 -48,3.5 -30.5,3 -25.5,7.5 -221.5,1 -209,80 h -20.5 l -15.5,-7 -14,-12 -8,-11.5 -16.49994,-63 -12,-27.5 -15.5,-29 -20.00003,-14.5 -24.49999,-9 -70.49999,-12.5 -43,-22 -18,-10.5 -21.99999,-5.5 -31.00002,6 -19.5,9.5 -24.49999,23 -6.5,16 1.5,22.5 13,59.5"
     id="path4510" />
  <path
     style="fill:none;fill-rule:evenodd;stroke:#f2f2f2;stroke-width:8;stroke-linecap:butt;stroke-linejoin:round;stroke-miterlimit:4;stroke-dasharray:none;stroke-opacity:1"
     d="m 1368.5994,1913.3867 373.9007,198.6139 39,10 41.5,3 45.5,-8 63.5,6 54.5,26"
     id="path909" />
  <path
     style="fill:none;fill-rule:evenodd;stroke:#f2f2f2;stroke-width:8;stroke-linecap:butt;stroke-linejoin:round;stroke-miterlimit:4;stroke-dasharray:none;stroke-opacity:1"
     d="m 1380.5002,660.50076 -27,-5 -43.5,3 -28,11.5 -36,22.5 -11,12.99999 -168.5127,614.20965"
     id="path4508" />
  <path
     style="fill:none;fill-rule:evenodd;stroke:#f2f2f2;stroke-width:8;stroke-linecap:butt;stroke-linejoin:round;stroke-miterlimit:4;stroke-dasharray:none;stroke-opacity:1"
     d="m 634.50025,2133.0006 63.5,6 35.99999,-3 36.50002,-9.5 40.99999,-12.5 37,-16.5 32.99999,-24 19,-22 11.5,-24 22.49999,-94.5 15,-29.9999 21.00003,-21 34.49994,-32.5 37,-47.5 10.5,-28 39.5,-28 75.5,-43 46.5,-13 16,-10 8,-12 30,-70 7,-10 22.5,-15"
     id="path4506" />
  <path
     style="fill:none;fill-rule:evenodd;stroke:#ed6e86;stroke-width:1;stroke-linecap:butt;stroke-linejoin:round;stroke-miterlimit:4;stroke-dasharray:none;stroke-opacity:1"
     d="m 2463.6128,1399.857 187.833,-84.868 48.0833,-27.9308"
     id="path4539" />
  <path
     style="fill:none;fill-rule:evenodd;stroke:#8a236c;stroke-width:5;stroke-linecap:butt;stroke-linejoin:round;stroke-miterlimit:4;stroke-dasharray:none;stroke-opacity:1"
     d="m 908.83164,719.37592 6.3137,-18.15559 32.52689,-127.63276 0.7072,-15.9099 -4.5962,-22.62741"
     id="path4541" />
  <path
     style="fill:none;fill-rule:evenodd;stroke:#ee741d;stroke-width:1;stroke-linecap:butt;stroke-linejoin:round;stroke-miterlimit:4;stroke-dasharray:none;stroke-opacity:1"
     d="m 1130.0002,1905.0007 11.5,19.9999 18,58 2.5,16.5 5.5,39 1,22 v 24 l 4,17 16,22.5 4.5,14 v 13.5 l -5,28 -11,50.5 7.5,253 -4.5,14.5 -8,11 -16,12 -11,14 -2,12.5 v 16 l 3,27 -2.155,39.0052"
     id="path4543" />
  <path
     id="path4545"
     d="m 852.24823,1483.2804 -0.44003,-78.1249 3.4059,-34.0052 -2.64766,-23.988 -13.43499,-68.5893 0.7071,-36.0625 13.78849,-57.6292 3.1558,-16.1729 5.3295,-27.3141 15.2028,-33.5875 34.6483,-56.2151 12.72789,-14.8493 4.5962,-21.9203 1.4142,-23.68794 -4.2427,-59.0435 v -44.1942 l 8.8389,-31.4662 v -32.1734 l -4.9498,-15.2028 -23.68799,-45.60834 -2.8285,-16.61701 v -15.20279 l 5.5637,-14.9056"
     style="fill:none;fill-rule:evenodd;stroke:#8a236c;stroke-width:1;stroke-linecap:butt;stroke-linejoin:round;stroke-miterlimit:4;stroke-dasharray:none;stroke-opacity:1" />
  <path
     id="path4547"
     d="m 943.78323,535.05026 -7.0711,-32.88046 v -14.14214 l 10.253,-95.81295 -4.5962,-16.97056 -38.89079,-73.5391 -3.182,-13.08147 1.4142,-13.78858 45.25479,-90.86322 15.55643,-15.55634 52.32584,-103.944683 25.8239,-55.2411005 3.7342,-17.4258 7.4682,-70.9480995 -2.1783,-17.737 -28.9393,-88.685197 -22.09354,-27.6946 -74.37102,-72.8152 -10.89115,-18.6705 -5.91234,-21.7823 -9.33528,-39.2082 -37.65228,-119.8027 -31.11758,-76.5492 -8.71293,-12.7582 -47.92108,-41.3864 -8.40174,-5.9124 -5.91235,-12.447 -2.80058,-16.1812 4.04529,-10.5799 5.91234,-8.713 11.20233,-3.7341 8.40175,-2.1782 30.49523,7.157 13.38056,0.3112 18.35938,-4.3564 88.37394,-36.0964 19.29291,-2.4894 85.57334,1.2447 13.6918,-1.5559 10.2688,-4.0453 17.737,-8.0906 14.3141,-9.3353 12.7582,-14.314 35.4741,-46.6764 79.0386,-97.7092"
     style="fill:none;fill-rule:evenodd;stroke:#8a236c;stroke-width:1;stroke-linecap:butt;stroke-linejoin:round;stroke-miterlimit:4;stroke-dasharray:none;stroke-opacity:1" />
  <path
     style="fill:none;fill-rule:evenodd;stroke:#ee741d;stroke-width:5;stroke-linecap:butt;stroke-linejoin:round;stroke-miterlimit:4;stroke-dasharray:none;stroke-opacity:1"
     d="m 1143.8452,2629.0058 -7.845,142.7447 -9.75,20.5"
     id="path4578" />
  <path
     style="fill:none;fill-rule:evenodd;stroke:#804e1a;stroke-width:5;stroke-linecap:butt;stroke-linejoin:round;stroke-miterlimit:4;stroke-dasharray:none;stroke-opacity:1"
     d="m 1240.0002,2102.5006 75.2333,134.2924 76.9311,181.2594 10.3356,31.4482 1,8"
     id="path4614" />
  <path
     id="path4655"
     d="m 1861.9612,1532.0707 158.4056,-23.9514"
     style="fill:none;fill-rule:evenodd;stroke:#ed6e86;stroke-width:1;stroke-linecap:butt;stroke-linejoin:round;stroke-miterlimit:4;stroke-dasharray:none;stroke-opacity:1" />
  <path
     style="fill:none;fill-rule:evenodd;stroke:#ed6e86;stroke-width:5;stroke-linecap:butt;stroke-linejoin:round;stroke-miterlimit:4;stroke-dasharray:none;stroke-opacity:1"
     d="m 2020.3668,1508.1193 46.1333,-8.1186 h 35 l 149.5,-39 189.9999,-50.5 22.6128,-10.6437"
     id="path4657" />
  <path
     style="fill:none;fill-rule:evenodd;stroke:#804e1a;stroke-width:1;stroke-linecap:butt;stroke-linejoin:round;stroke-miterlimit:4;stroke-dasharray:none;stroke-opacity:1"
     d="m 1403.5002,2457.5006 3.5,23 4.5,54 8.25,21 11.75,20.75 32.25,41.25 37.75,50.9999 3.75,11.5 25,80.25 2,6.5"
     id="path4659" />
  <path
     style="fill:none;fill-rule:evenodd;stroke:#804e1a;stroke-width:1;stroke-linecap:butt;stroke-linejoin:round;stroke-miterlimit:4;stroke-dasharray:none;stroke-opacity:1"
     d="m 234.00031,4369.5003 149.49998,-185 12,-16 17.49999,-9 193.49998,-60.9999 256.49998,-17 17.5,-5 19.5,-6.5 17.5,-16 18.49999,-29 48.50003,-92 50.49994,-42 72,-42.5 10,-10.5"
     id="path4663" />
  <path
     style="fill:none;fill-rule:evenodd;stroke:#804e1a;stroke-width:5;stroke-linecap:butt;stroke-linejoin:round;stroke-miterlimit:4;stroke-dasharray:none;stroke-opacity:1"
     d="m 1117.0002,3838.0004 65,-97.5 9.5,-9.5 15.5,-9 h 17.5 l 18,8.5 43,36 15.5,3 11.5,-1.5 12.5,-10.5 23.5,-49.5 41,-55.5 14,-17 51,-85.5 75.5,-117 45.5,-79.9999 58.5,-105 13,-35 -0.5,-21.5 -38.5,-168 -16.5,-141.5 -2.75,-14.75 -17.25,-40.25 -32,-45.25 -7.25,-15"
     id="path4669" />
  <path
     style="fill:none;fill-rule:evenodd;stroke:#804e1a;stroke-width:5;stroke-linecap:butt;stroke-linejoin:round;stroke-miterlimit:4;stroke-dasharray:none;stroke-opacity:1"
     d="m 234.00031,4369.5003 -66.49999,87"
     id="path4671" />
  <path
     style="fill:none;fill-rule:evenodd;stroke:#f2f2f2;stroke-width:8;stroke-linecap:butt;stroke-linejoin:round;stroke-miterlimit:4;stroke-dasharray:none;stroke-opacity:1"
     d="M 31.615572,1343.6268 176.57243,1331.606"
     id="path4684" />
  <path
     id="path4511"
     d="m 573.59636,1442.8169 -7.46822,-2.0227 -15.71438,0.6224 -4.66764,1.867 -7.46822,5.7568 -25.20524,26.2943 -6.37911,4.2009 -8.09057,2.645 -13.38056,2.0226 -47.60991,-0.1555 -5.28998,-0.778 -6.5347,-3.1117 -10.11321,-8.713 -5.91234,-2.645 -5.13441,-0.9335 h -5.60116 l -5.75675,0.3112 -4.82323,2.8006 -11.82468,12.6026 -6.37911,3.1118 -15.71438,4.6676 -6.69028,3.8897 -6.69028,10.2688 -0.77794,5.9123 -0.46676,17.5815 -10.73557,18.5149 -4.82322,18.3594 0.31117,9.0241 6.69028,15.092"
     style="fill:none;fill-rule:evenodd;stroke:#e10984;stroke-width:1;stroke-linecap:butt;stroke-linejoin:round;stroke-miterlimit:4;stroke-dasharray:none;stroke-opacity:1" />
  <path
     id="path4513"
     d="m 228.81352,1661.4179 11.20233,2.4894 7.62381,-1.4003 8.40175,-4.512 10.2688,-9.1797 3.11176,-1.8671 7.62381,-1.867 16.02555,0.3111 29.56171,-7.6238 5.1344,-6.2235 2.02264,-3.2673"
     style="fill:none;fill-rule:evenodd;stroke:#e10984;stroke-width:1;stroke-linecap:butt;stroke-linejoin:round;stroke-miterlimit:4;stroke-dasharray:none;stroke-opacity:1" />
  <path
     id="path4515"
     d="m 331.34596,1590.003 3.73411,7.7794 1.86706,6.6903 -0.31118,6.6903 -6.84587,17.1147"
     style="fill:none;fill-rule:evenodd;stroke:#e10984;stroke-width:5;stroke-linecap:butt;stroke-linejoin:round;stroke-miterlimit:4;stroke-dasharray:none;stroke-opacity:1" />
  <path
     style="opacity:1;fill:none;fill-opacity:1;fill-rule:nonzero;stroke:#e0be00;stroke-width:5;stroke-linecap:butt;stroke-linejoin:round;stroke-miterlimit:4;stroke-dasharray:none;stroke-opacity:1"
     d="m 226.14801,2490.9445 23.80586,-2.9097 11.63842,-6.6127 7.40627,-9.7868 13.22548,-23.0124 8.99333,-6.3482 17.72215,-9.2579 23.80586,-7.1417 20.63175,-0.2645 102.36523,1.3225 13.48999,1.8516 26.71547,9.5223 32.53468,12.6965 15.07705,2.3806 h 24.33489 l 89.13974,27.2445 16.3996,8.9933 50.25682,34.3863 7.67078,3.7031 23.01234,5.5547 11.37391,6.3482 25.12842,19.0447 5.29019,10.0514 3.43863,7.1417 8.4643,4.2322 8.1998,-2.3806 10.05137,-11.9029 2.38058,-10.0514 -12.43195,-32.2702 v -23.5413 l 19.3092,-169.5507 5.2902,-9.5223 87.81719,-366.6104 1.85157,-25.1284 21.95433,-12.6964 19.5737,-17.7222 7.1417,-13.7545 11.374,-40.999 5.8192,-6.3482 -0.2645,-5.5547 -8.4644,-9.7869 -5.0256,-11.6384 -32.5347,-42.8506 -32.27019,-46.0246 -33.06371,-60.5727 -15.34155,-42.8506 -5.02569,-0.529 -3.17411,-3.1741 v -2.3806 l 2.64509,-5.0257 1.32255,-3.1741 -6.08372,-23.5414 -5.5547,-28.3025 -4.23216,-39.9409 -0.52902,-107.6555 3.43863,-33.3282 -6.61274,-16.3996 -4.62892,-1.8515 -14.68028,1.587 -3.43863,-19.8382 -6.21597,-14.9448 -0.13226,-18.9124 7.27402,-41.7926 -0.52902,-50.9181 10.6562,-74.7416 -1.30925,-11.9704 -9.7259,-29.9258 -14.21478,-16.8333 -38.34249,-76.31094 -15.14996,-54.0536 -14.02774,-86.972 0.18703,-15.524"
     id="path838" />
  <path
     style="opacity:1;fill:none;fill-opacity:1;fill-rule:nonzero;stroke:#e0be00;stroke-width:5;stroke-linecap:butt;stroke-linejoin:round;stroke-miterlimit:4;stroke-dasharray:none;stroke-opacity:1"
     d="m 826.64026,2562.2356 5.04998,3.1796 14.40182,-3.3667 35.53694,9.1648"
     id="path840" />
  <path
     style="opacity:1;fill:none;fill-opacity:1;fill-rule:nonzero;stroke:#e0be00;stroke-width:5;stroke-linecap:butt;stroke-linejoin:round;stroke-miterlimit:4;stroke-dasharray:none;stroke-opacity:1"
     d="m 816.26897,2577.7036 1.2065,8.2856 4.48887,14.4018 3.5537,7.1074 0.18703,13.6537 3.17963,28.6166 2.61851,6.5462 3.55369,21.8833 16.64625,43.9536"
     id="path842" />
  <path
     style="opacity:1;fill:none;fill-opacity:1;fill-rule:nonzero;stroke:#e0be00;stroke-width:5;stroke-linecap:butt;stroke-linejoin:round;stroke-miterlimit:4;stroke-dasharray:none;stroke-opacity:1"
     d="m 930.53713,1929.126 -20.47857,-3.3758 -25.62401,-6.1722 -20.94809,-6.3593 -24.12772,-10.474 -15.14996,-8.9778 -74.62758,-46.0109 -34.22769,-17.7685 -8.97775,-8.7907 -9.16479,-13.6537 -2.24444,-13.0926 -0.18704,-56.485 -7.10739,-47.5073 -2.43147,-37.4073 3.74073,-45.8239 1.12222,-73.5054 2.61851,-17.3944 -0.37407,-16.8333 4.67591,-9.1648 30.29992,-40.5869 11.7833,-12.7185 18.14255,-11.5963 36.28509,-17.7684 4.30184,-4.4889 13.27959,-36.8462 2.99259,-2.6185 12.71848,-0.5611 -0.50695,-8.5332"
     id="path844" />
  <path
     style="opacity:1;fill:none;fill-opacity:1;fill-rule:nonzero;stroke:#e0be00;stroke-width:5;stroke-linecap:butt;stroke-linejoin:round;stroke-miterlimit:4;stroke-dasharray:none;stroke-opacity:1"
     d="m 822.88171,1334.7729 -11.76549,31.551"
     id="path846" />
  <path
     style="opacity:1;fill:none;fill-opacity:1;fill-rule:nonzero;stroke:#e0be00;stroke-width:5;stroke-linecap:butt;stroke-linejoin:round;stroke-miterlimit:4;stroke-dasharray:none;stroke-opacity:1"
     d="m 70.077424,924.35646 5.6111,11.2222 1.12222,16.6463 5.23702,14.9629 7.48146,12.1574 v 7.6685 l 4.67592,4.3018 h 4.86295 l 20.761046,-13.0926 16.83329,3.9278 17.20737,8.4167 17.3944,13.65364 11.40922,14.9629 56.48504,72.9443 36.09806,66.0239 48.25542,74.6276 39.46472,41.148 43.95359,45.0758 15.52403,10.4741 36.09805,39.2777 12.15738,11.4092 17.3944,13.8407 20.76105,20.0129 16.64626,18.8907 5.98517,2.9926 32.54435,0.9352 63.77947,16.8332 30.86103,6.9204 10.28701,10.1 13.65367,4.6759 10.66108,9.7259 3.74073,5.237"
     id="path848" />
  <path
     style="opacity:1;fill:none;fill-opacity:1;fill-rule:nonzero;stroke:#e0be00;stroke-width:5;stroke-linecap:butt;stroke-linejoin:round;stroke-miterlimit:4;stroke-dasharray:none;stroke-opacity:1"
     d="m 688.98136,1607.227 -4.30184,2.6185 -24.68883,7.1074 -16.64625,41.5221 -31.04807,40.5869 -0.56111,10.1 -5.23702,21.8832 -4.30184,3.1797 -12.15738,-1.3093 -15.33699,3.7407 h -7.48146 l -11.03516,-1.4963 -7.10739,2.6186 -5.04999,5.0499 -1.68332,4.4889 -3.36666,11.5963 -13.84071,13.6537 -4.86295,20.0129 -17.20736,24.5018 -5.23702,14.2147 -3.74073,9.7259 -2.61852,29.1777 -2.24443,7.2945 -2.99259,1.8703 -5.42406,-0.374 -44.32766,-15.5241 -5.6111,5.6111"
     id="path850" />
  <path
     style="opacity:1;fill:none;fill-opacity:1;fill-rule:nonzero;stroke:#e0be00;stroke-width:5;stroke-linecap:butt;stroke-linejoin:round;stroke-miterlimit:4;stroke-dasharray:none;stroke-opacity:1"
     d="m 917.84067,1721.7505 -14.81254,3.4386 -13.22548,-11.3739 -33.06371,-14.2835 -15.60606,-10.0514 -17.72215,-18.7802 -23.01234,-14.8125 -33.59272,-25.3929 -15.87058,-9.2579 -20.89626,-17.4576 -31.21213,-30.6831 -10.05137,-9.2579"
     id="path852" />
  <path
     style="opacity:1;fill:none;fill-opacity:1;fill-rule:nonzero;stroke:#e0be00;stroke-width:5;stroke-linecap:butt;stroke-linejoin:round;stroke-miterlimit:4;stroke-dasharray:none;stroke-opacity:1"
     d="m 667.35005,2112.1667 5.02569,-32.2702 129.08069,-83.585 129.0807,-67.1855"
     id="path854" />
  <path
     style="opacity:1;fill:none;fill-opacity:1;fill-rule:nonzero;stroke:#e0be00;stroke-width:5;stroke-linecap:butt;stroke-linejoin:round;stroke-miterlimit:4;stroke-dasharray:none;stroke-opacity:1"
     d="m 681.36906,2142.0563 3.17412,-16.1351 251.28414,49.4633 5.02568,-3.4387 9.78686,-46.0246 0.2645,-11.1094 15.6061,-66.3919 6.0837,-4.7612 38.61844,11.1094 58.9856,6.8772 34.1218,3.9677 75.9143,2.1161 28.3025,-1.8516 24.5994,2.9096 32.7992,-0.2645 20.8962,-5.5547 16.9286,-6.8773 30.6832,-9.7868 30.6831,-2.1161 68.7725,-35.4443 7.6708,-9.5223 76.4432,-137.8095 38.3539,-64.5404 6.0838,-13.49 6.8772,-20.8962 1.5871,-18.2512 1.8515,-105.8039 -16.3996,-92.8428 -32.5347,-62.6888 -66.3919,-84.1141 -103.9522,-105.2748 -111.0941,-105.0103 -111.623,-103.4233 -32.7992,-33.8572 -11.1094,-8.1998 -15.0771,-7.4063 -156.32522,-53.95994 -32.79919,-11.374 -21.9543,-15.606 -57.13408,-55.5471 -57.6631,-60.3081"
     id="path856" />
  <path
     style="opacity:1;fill:none;fill-opacity:1;fill-rule:nonzero;stroke:#e0be00;stroke-width:5;stroke-linecap:butt;stroke-linejoin:round;stroke-miterlimit:4;stroke-dasharray:none;stroke-opacity:1"
     d="m 826.82729,1363.1443 63.76889,-2.185 121.67442,61.6308 17.1932,11.1094 67.1854,71.6821 8.9933,9.5223 47.0828,62.9533 14.019,29.0961 5.8192,22.4833 3.4386,19.8382 2.3806,43.3796 -1.5871,26.7155 -8.4643,77.5013 -18.5157,67.1854 -7.1417,15.6061 -8.9933,8.1998 -108.1845,76.9723 -6.8772,0.529 -77.23688,-33.5927"
     id="path858" />
  <path
     style="opacity:1;fill:none;fill-opacity:1;fill-rule:nonzero;stroke:#e0be00;stroke-width:5;stroke-linecap:butt;stroke-linejoin:round;stroke-miterlimit:4;stroke-dasharray:none;stroke-opacity:1"
     d="m 1025.4961,1964.8348 -41.52804,29.0961 h -7.9353 l -49.46328,-8.1998"
     id="path860" />
  <path
     style="opacity:1;fill:none;fill-opacity:1;fill-rule:nonzero;stroke:#e0be00;stroke-width:5;stroke-linecap:butt;stroke-linejoin:round;stroke-miterlimit:4;stroke-dasharray:none;stroke-opacity:1"
     d="m 987.67116,1822.2641 83.05614,-62.9533 6.8772,-10.3158 4.2322,-7.1418 -3.4387,-23.0123 -14.8978,-44.8402 -13.9337,-24.7259 -37.2959,-24.3348"
     id="path862" />
  <path
     style="opacity:1;fill:none;fill-opacity:1;fill-rule:nonzero;stroke:#e0be00;stroke-width:5;stroke-linecap:butt;stroke-linejoin:round;stroke-miterlimit:4;stroke-dasharray:none;stroke-opacity:1"
     d="m 1070.7273,1320.2249 8.1998,4.2321 h 4.2321 l 162.9379,-128.2871 6.3483,-6.3483 24.8639,-67.4499 -0.529,-14.5481 112.6811,-300.74744 1.8515,-22.2188 0.2645,-17.9867 -7.4062,-12.9609 -14.019,-13.2255 -6.0838,-8.7288 -3.4386,-14.019 0.2645,-15.0771 21.6898,-87.5527 v -9.2578 l 2.9096,-14.2835 3.7032,-3.1741 203.9369,-7.4063 6.3482,-5.8192 13.7545,-55.8116 25.9219,-94.6944 15.3416,-90.7268 -0.529,-47.0827 37.5603,-137.2805"
     id="path864" />
  <path
     style="opacity:1;fill:none;fill-opacity:1;fill-rule:nonzero;stroke:#e0be00;stroke-width:5;stroke-linecap:butt;stroke-linejoin:round;stroke-miterlimit:4;stroke-dasharray:none;stroke-opacity:1"
     d="m 1610.8559,523.52186 -2.6451,-6.8773 2.9096,-8.1998 4.2322,-2.6451 19.5737,4.4967 22.2188,19.5737 48.9343,30.6831 10.0513,8.7289 h 3.9677 l 20.6317,-22.4834"
     id="path866" />
  <path
     style="opacity:1;fill:none;fill-opacity:1;fill-rule:nonzero;stroke:#e0be00;stroke-width:5;stroke-linecap:butt;stroke-linejoin:round;stroke-miterlimit:4;stroke-dasharray:none;stroke-opacity:1"
     d="m 1727.7692,560.02416 -21.6898,0.529"
     id="path868" />
  <path
     style="opacity:1;fill:none;fill-opacity:1;fill-rule:nonzero;stroke:#e0be00;stroke-width:5;stroke-linecap:butt;stroke-linejoin:round;stroke-miterlimit:4;stroke-dasharray:none;stroke-opacity:1"
     d="m 1380.9971,1286.3676 28.3025,32.0057 7.1417,-1.058 80.1465,-76.7078 57.9276,-99.9847 73.0046,-113.4746 70.0951,-74.59174 6.0837,-20.1027 4.2321,-8.4643 85.7012,-94.959 6.3482,-1.058 7.1418,2.3805 82.7915,73.0047 3.1741,5.8192 1.3225,16.3996 2.9096,7.4063 51.5794,46.5537"
     id="path870" />
  <path
     style="opacity:1;fill:none;fill-opacity:1;fill-rule:nonzero;stroke:#e0be00;stroke-width:5;stroke-linecap:butt;stroke-linejoin:round;stroke-miterlimit:4;stroke-dasharray:none;stroke-opacity:1"
     d="m 1496.5878,1240.6075 103.4232,45.7601 19.8382,15.6061 226.4203,198.1177 5.8192,7.4063 25.1284,146.8028 4.4967,5.2902 18.5156,11.1094 4.4967,5.8192 6.0837,26.98 -2.3806,3.7031 -14.548,0.7936 -9.2578,3.7031 -77.5013,96.8105 -6.0838,36.7669 -4.4966,5.8192 -9.2579,5.8192 -19.5737,-2.9096 -6.0837,4.4966 -9.2578,28.0381 -141.2482,131.9903 -28.038,2.3805 -8.4643,5.0257 -18.5157,34.3863 -0.529,6.3482 2.6451,13.49 28.567,97.6041 20.3673,46.0246 9.5223,29.0961 15.0771,4.7612 -0.2645,6.8772 -14.2836,15.0771 -7.6707,4.4966 -7.6708,7.9353 -8.7288,12.961 -153.9446,149.9769"
     id="path872" />
  <path
     style="opacity:1;fill:none;fill-opacity:1;fill-rule:nonzero;stroke:#e0be00;stroke-width:5;stroke-linecap:butt;stroke-linejoin:round;stroke-miterlimit:4;stroke-dasharray:none;stroke-opacity:1"
     d="m 1152.7253,1868.0243 17.4576,16.3996 15.6061,12.961 56.076,54.2244 55.8115,84.9076 0.529,3.1741 1.3226,7.1418 4.2321,9.2578"
     id="path874" />
  <path
     style="opacity:1;fill:none;fill-opacity:1;fill-rule:nonzero;stroke:#e0be00;stroke-width:5;stroke-linecap:butt;stroke-linejoin:round;stroke-miterlimit:4;stroke-dasharray:none;stroke-opacity:1"
     d="m 1265.9354,2068.5226 -1.3226,5.0257 55.547,96.8105 14.2836,6.3482 17.7221,30.4186 39.6764,105.0103 48.4053,130.1388 7.6708,2.3806"
     id="path876" />
  <path
     style="opacity:1;fill:none;fill-opacity:1;fill-rule:nonzero;stroke:#e0be00;stroke-width:5;stroke-linecap:butt;stroke-linejoin:round;stroke-miterlimit:4;stroke-dasharray:none;stroke-opacity:1"
     d="m 1463.5241,2430.1072 117.4422,143.3643 27.509,-16.6642 48.1408,-47.6117 -131.9903,-137.8095"
     id="path878" />
  <path
     style="opacity:1;fill:none;fill-opacity:1;fill-rule:nonzero;stroke:#e0be00;stroke-width:5;stroke-linecap:butt;stroke-linejoin:round;stroke-miterlimit:4;stroke-dasharray:none;stroke-opacity:1"
     d="m 1580.9663,2573.4715 -29.096,17.7221 -14.5481,10.8449 143.0997,199.7048 5.2902,2.116 42.3216,-36.7668 1.058,-6.8773 -49.4633,-73.7981 -29.6251,-40.999 -14.548,5.8192 -35.1798,-35.9733 -30.4186,-29.8896 -0.2645,-5.5547"
     id="path880" />
  <path
     style="opacity:1;fill:none;fill-opacity:1;fill-rule:nonzero;stroke:#e0be00;stroke-width:5;stroke-linecap:butt;stroke-linejoin:round;stroke-miterlimit:4;stroke-dasharray:none;stroke-opacity:1"
     d="m 1631.4877,2264.5242 109.7715,-109.2425 14.548,-12.1674 0.7935,-4.7612 -12.961,-20.8962 -29.8895,-16.1351 -4.4967,10.3159 21.4253,11.1094 4.2321,-7.1418 3.4387,-1.3225"
     id="path882" />
  <path
     style="opacity:1;fill:none;fill-opacity:1;fill-rule:nonzero;stroke:#e0be00;stroke-width:5;stroke-linecap:butt;stroke-linejoin:round;stroke-miterlimit:4;stroke-dasharray:none;stroke-opacity:1"
     d="m 1756.6007,2138.3531 3.9677,7.6708 264.2451,275.619"
     id="path884" />
  <path
     style="opacity:1;fill:none;fill-opacity:1;fill-rule:nonzero;stroke:#e0be00;stroke-width:5;stroke-linecap:butt;stroke-linejoin:round;stroke-miterlimit:4;stroke-dasharray:none;stroke-opacity:1"
     d="m 1743.6397,2117.4569 10.8449,1.058 19.0447,11.1094 21.4253,15.3416 569.2247,359.204 336.9853,167.9636"
     id="path886" />
  <path
     style="opacity:1;fill:none;fill-opacity:1;fill-rule:nonzero;stroke:#e0be00;stroke-width:5;stroke-linecap:butt;stroke-linejoin:round;stroke-miterlimit:4;stroke-dasharray:none;stroke-opacity:1"
     d="m 1908.4292,1707.2024 22.7479,-0.2645 45.7601,23.2769 227.7428,253.4002 12.1675,5.0257 58.9856,10.3159 7.1418,-2.9096 5.5547,-5.8193 0.7935,-6.3482 -4.7612,-81.998"
     id="path888" />
  <path
     style="opacity:1;fill:none;fill-opacity:1;fill-rule:nonzero;stroke:#e0be00;stroke-width:5;stroke-linecap:butt;stroke-linejoin:round;stroke-miterlimit:4;stroke-dasharray:none;stroke-opacity:1"
     d="m 1884.6234,1711.6991 -152.0931,35.9733 -9.7868,5.8192 h -3.4386 l -4.4967,-3.4386 -2.6451,-8.9933 1.5871,-11.903 -2.9096,-5.2902 -10.3159,-4.2321 -33.5927,3.9676 -90.9914,14.0191 -58.9856,1.3225 -81.469,-16.1351 -74.8562,-12.1674 -15.8706,-1.3226 -20.6317,-20.8962 -33.3282,-3.4387 -110.565,-37.2958"
     id="path940" />
  <path
     style="opacity:1;fill:none;fill-opacity:1;fill-rule:nonzero;stroke:#e0be00;stroke-width:5;stroke-linecap:butt;stroke-linejoin:round;stroke-miterlimit:4;stroke-dasharray:none;stroke-opacity:1"
     d="m 1324.1275,1688.4223 17.7221,2.9096 41.2635,54.2244 5.5547,3.4387 106.8619,18.7801 174.0474,69.3016 60.5727,9.7868 4.4966,2.3806 33.0637,4.7612"
     id="path942" />
  <path
     style="opacity:1;fill:none;fill-opacity:1;fill-rule:nonzero;stroke:#e0be00;stroke-width:5;stroke-linecap:butt;stroke-linejoin:round;stroke-miterlimit:4;stroke-dasharray:none;stroke-opacity:1"
     d="m 1297.412,1596.6374 0.7935,29.8896 -1.587,7.6708 45.2311,57.1341"
     id="path944" />
  <path
     style="opacity:1;fill:none;fill-opacity:1;fill-rule:nonzero;stroke:#e0be00;stroke-width:5;stroke-linecap:butt;stroke-linejoin:round;stroke-miterlimit:4;stroke-dasharray:none;stroke-opacity:1"
     d="m 1383.1131,1745.5563 16.3996,21.9543 11.3739,108.1845 -4.2321,6.8772 -18.7802,11.1094 -65.0694,42.0571 -145.2157,31.2121 -5.8193,4.7612 -1.587,6.6127 23.8059,42.8506 34.1217,65.3338"
     id="path946" />
  <path
     style="opacity:1;fill:none;fill-opacity:1;fill-rule:nonzero;stroke:#e0be00;stroke-width:5;stroke-linecap:butt;stroke-linejoin:round;stroke-miterlimit:4;stroke-dasharray:none;stroke-opacity:1"
     d="m 1170.1829,1978.3248 -11.1094,-16.3996 -11.903,-48.9343 -13.7545,-8.9933 -26.4509,-37.8249 -39.6765,-40.7345 -13.7545,-4.7611 -36.2378,-43.6441 -37.29584,-41.2635 -13.7545,-25.3929 -0.5291,-5.2902 -15.87053,-30.1541 -14.01901,-34.3863 -6.87725,-20.1027 -0.52902,-11.1094 -7.93529,-27.509 -4.49666,-12.961 -7.14176,-42.586 -1.32255,-14.2836 9.52235,-0.7935 -0.0469,-10.7001 19.24343,-3.6253 -1.12222,-40.2129 -10.66108,-0.7481 1.49629,-22.8185 8.97776,-35.3499 2.38609,-8.4863"
     id="path948" />
</svg>
