<?xml version="1.0" encoding="UTF-8" standalone="no"?>
<svg
   xmlns:dc="http://purl.org/dc/elements/1.1/"
   xmlns:cc="http://creativecommons.org/ns#"
   xmlns:rdf="http://www.w3.org/1999/02/22-rdf-syntax-ns#"
   xmlns:svg="http://www.w3.org/2000/svg"
   xmlns="http://www.w3.org/2000/svg"
   xmlns:xlink="http://www.w3.org/1999/xlink"
   viewBox="0 0 2125 1300"
   height="1300"
   width="2125"
   id="svg2"
   version="1.1">
  <metadata
     id="metadata8">
    <rdf:RDF>
      <cc:Work
         rdf:about="">
        <dc:format>image/svg+xml</dc:format>
        <dc:type
           rdf:resource="http://purl.org/dc/dcmitype/StillImage" />
        <dc:title></dc:title>
      </cc:Work>
    </rdf:RDF>
  </metadata>
  <defs
     id="defs6" />
  <g
     id="g10">
    <image
       xlink:href="streetmap/bzgosm.png"
       style="display:none"
       y="-125"
       x="15"
       id="image12"
       preserveAspectRatio="none"
       height="1417.8182"
       width="2228" />
    <path
       id="path837"
       d="m 2061.3226,70.64816 -15.1553,64.76462 -9.6761,80.15326 -7.7774,18.95804 -10.8459,19.04213 -13.6086,13.42775 -19.2783,20.43109 -11.0143,18.16919 -5.5509,9.01813 -23.7342,51.9981 -9.1137,11.52927 -14.6581,12.52046 -14.9441,7.86336 -17.5838,5.72649 -32.9395,2.18641 -31.7424,3.06504 -15.4932,6.2294 -15.0737,10.02975 -8.6914,10.53578 -5.1617,10.51049 -10.8772,7.20985 -7.3692,3.00301 -11.2895,-0.41431 -38.8386,-7.05054 -10.8799,-0.38141 -13.5543,2.91721 -217.7161,98.76065 -17.0252,9.25517 -23.6222,17.03176 -30.112,20.27169 -9.6014,9.52541 -6.9564,12.54553 -3.7592,12.78609 -3.8017,24.22188 -6.4906,17.92949 -13.2851,16.95585 -20.5842,14.65744 -69.0494,39.53462 -22.0095,9.65517 -10.1892,8.42905 -8.2882,8.27046 -8.7351,13.88168 -9.9232,14.97397 -8.0103,7.1808 -10.1214,4.85372 -93.1058,34.22659 -35.0739,19.58304 -13.3336,5.21939 -92.40117,15.74702 -68.15322,-4.5794 -37.96087,-1.1391 -50.1523,-2.5504 -14.78033,0.2199 -17.93396,0.4397 -14.3989,-3.4418 -31.22558,-11.66943 -63.82491,-14.5804 -45.26416,-9.34962 -46.97688,6.08126 -29.62481,-5.69491 -18.73848,-4.42926 -30.26506,-8.45989 -9.24794,0.65959 -33.6296,-11.14492 -13.17033,-5.48825 -42.94721,-7.58235 -23.28896,-2.04399 -20.38684,3.95754 -20.3222,-1.6246 -28.40567,-5.82262 -46.92195,0.16516 -20.25624,-6.1184 -14.30982,-1.80628 -149.219627,-44.53682"
       style="fill:none;stroke:#ee1d23;stroke-width:5;stroke-linejoin:round;stroke-opacity:1" />
    <path
       id="path839"
       d="m 384.98189,804.87792 -0.40589,-12.36861 19.26931,-37.62127 14.49653,-10.27725 7.54749,-3.38383 -0.65959,-7.70526 -33.29348,-59.41255 2.15548,-4.16132 10.48434,-7.60137 4.54941,-6.85174 48.91049,-27.51559"
       style="fill:none;stroke:#ee1d23;stroke-width:5;stroke-linejoin:round;stroke-opacity:1" />
    <path
       id="path841"
       d="m 483.97697,828.43385 11.52207,-30.53695 80.38104,-126.52568 80.43947,47.41543 23.4444,-1.09932 34.03671,-4.98819 21.88278,1.31919 18.53529,-7.18509 16.03414,0.29925"
       style="fill:none;stroke:#ee1d23;stroke-width:5;stroke-linejoin:round;stroke-opacity:1" />
    <path
       id="path843"
       d="M 575.88008,671.37122 707.79192,447.52834 v -3.87191 l -4.00902,-5.84854 -13.45676,-1.94958"
       style="fill:none;stroke:#ee1d23;stroke-width:5;stroke-linejoin:round;stroke-opacity:1" />
    <path
       id="path845"
       d="m 782.15405,879.597 -0.6828,13.4941 -8.84433,37.8787 1.79558,8.7611 38.01206,5.1349 72.44566,19.0179 -15.91776,45.5805 5.06072,60.5126 3.98498,10.3067 -2.6251,3.4618 -68.80968,-5.6725 -27.02302,-2.6384 -12.1679,-5.2872 -100.60858,-86.4356 -14.87071,-5.107 -35.01525,-3.7499 -59.11882,-1.974 -23.214,3.55159 -2.53857,-1.42771 -13.0388,-49.98337 -7.17031,-23.22471 -0.0584,-5.7957 5.67533,-17.6868 10.73749,-20.51627 5.32925,-15.88846"
       style="fill:none;stroke:#ee1d23;stroke-width:5;stroke-linejoin:round;stroke-opacity:1" />
    <path
       id="path847"
       d="m 878.00816,1080.2835 5.41367,5.8993 9.66342,2.5136 19.46149,9.7292 71.7492,51.2568 11.31406,7.9995 22.2455,8.8002"
       style="fill:none;stroke:#ee1d23;stroke-width:5;stroke-linejoin:round;stroke-opacity:1" />
    <path
       id="path849"
       d="m 878.00816,1080.2835 5.36615,16.7344 -8.62371,62.1458 -13.36889,54.4501 -2.70432,17.8938 -4.36246,3.9595 -9.46227,4.9294"
       style="fill:none;stroke:#ee1d23;stroke-width:5;stroke-linejoin:round;stroke-opacity:1" />
    <path
       id="path851"
       d="m 884.88022,963.8837 34.70762,7.3058 131.41306,-16.9815 7.5277,-4.0816 19.7686,-14.5414 11.8376,-5.4159 72.9328,-5.0207 98.3747,-6.6577 14.9668,2.4187 32.2139,9.6973 42.6397,17.4822 45.8454,16.2516 36.2447,5.4946 3.8024,3.4028 v 5.1654 l -5.2226,28.8581 -0.2198,7.8431 3.6689,5.7615 14.3315,21.4256 9.5809,22.5822 0.7239,8.7259 -0.9605,4.0046 -13.8832,55.3475 -15.331,58.6847"
       style="fill:none;stroke:#ee1d23;stroke-width:5;stroke-linejoin:round;stroke-opacity:1" />
  </g>
</svg>
