<?xml version="1.0" encoding="UTF-8" standalone="no"?>
<svg
   xmlns:dc="http://purl.org/dc/elements/1.1/"
   xmlns:cc="http://creativecommons.org/ns#"
   xmlns:rdf="http://www.w3.org/1999/02/22-rdf-syntax-ns#"
   xmlns:svg="http://www.w3.org/2000/svg"
   xmlns="http://www.w3.org/2000/svg"
   xmlns:xlink="http://www.w3.org/1999/xlink"
   id="svg2"
   viewBox="0 0 1025 300"
   height="300"
   width="1025"
   version="1.1">
  <metadata
     id="metadata8">
    <rdf:RDF>
      <cc:Work
         rdf:about="">
        <dc:format>image/svg+xml</dc:format>
        <dc:type
           rdf:resource="http://purl.org/dc/dcmitype/StillImage" />
        <dc:title></dc:title>
      </cc:Work>
    </rdf:RDF>
  </metadata>
  <defs
     id="defs6" />
  <path
     style="fill:none;stroke:#f2f2f2;stroke-width:8;stroke-linecap:butt;stroke-linejoin:round;stroke-miterlimit:4;stroke-dasharray:none;stroke-opacity:1"
     id="path2987"
     d="m -877,262 61,86 31.48,48.18 24.33,9.14 35.96,2.51 L -698,407 l 37,-5 30,-19 56,-53 72,-35 39,-9 125,29 40,13 17,5 14,-6 32,-15 51,-45 51,-9 L 3.58,247.9 174,247 l 30,5.14 31.9,-9.13 36.2,-22.39 L 295,213 l 107,-1 303,1 258,12" />
  <path
     style="fill:none;stroke:#f2f2f2;stroke-width:8;stroke-linecap:butt;stroke-linejoin:round;stroke-miterlimit:4;stroke-dasharray:none;stroke-opacity:1"
     id="path3757"
     d="m -1551.17,-12.44 35.86,-52.37 27.08,-18.87 49.27,-87.54 L -1428,-182 l 39.52,-26.44 31.78,-6.25 34.17,-3.27 27.89,3.03 43.62,24.94 16.63,-0.68 17.98,-10.23 22.47,-20.17 37.04,-39.06 6.41,-17.43 36.64,-145.74 L -1101,-437 l 83.13,-59.53 50.9,-29.91 L -900,-546 l 29.35,-4.71 40.95,15.52 L -715,-492 l 70,53 38,18 57,7 87,36 55,20 87,16 187,2 19.14,8.04 5.06,13.5 -3.27,10.8 -20.21,20.84 -12.26,38.24 -0.77,16.09 22.46,64.27 15,25 18.58,24.15 12.77,6.89 L -39,-113 l 90,5 372,35 53,1 49.79,10.53 80.77,21.52 23.2,-1.52 77.32,-24.0 72.49,-37.07 48.91,-2.35 L 886,-89 l 82,17 103,40 28,21 41,42 341,141 42.54,6.54 108.32,11.01 90.68,2.76 33.81,-8.16 63.58,-49.45 L 1873,106 l 26.22,-11.15 38.13,-1.46 114.33,11.85 91.93,31.85" />
  <path
     style="fill:none;stroke:#f2f2f2;stroke-width:8;stroke-linecap:butt;stroke-linejoin:round;stroke-miterlimit:4;stroke-dasharray:none;stroke-opacity:0.94"
     id="path3797"
     d="m 1260.62,-306.15 3.37,79.19 -8.05,21.26 -17.3,13.24 -15.93,2.53 -150.15,5.74 -16.25,7.89 L 1050,-168 1022.13,-45.97 986.29,133.57 959.43,172.05 941.21,224.34 905.8,350.17 838,486 l -36.65,77 -8.04,42.33 7.74,46.54 13.49,35.02 15.82,20.12 L 945,825 l 101,103 360.23,386.8 40.77,59.93 112.89,399.49 26.51,43.49 95.05,63.53 185.58,242.23 65.85,122.1 31.12,19.48 70.13,16.37 29.23,37.59 31.59,99.32 33.09,39.8 9.34,21.13 5.17,46.22 125.16,187.38 37.48,62.23 39.6,93.34 16.75,80.68 -0.49,80.54 -1.85,40.34 -7.94,39.06 -21.19,56.28 -23.17,38.4 -31.12,60.91 -18.54,51.64 -1.32,95.34 7.28,33.77 41.71,92.69 39.06,63.56 54.29,80.77 30.46,50.32 31.12,74.81 43.7,165.52 13.24,19.86 212.53,268.14 31.78,50.32 27.15,31.78 35.09,34.43 31.78,56.28 37.74,37.74 23.83,52.3 20.52,29.79 21.19,23.17 12.58,26.48 17.88,64.88 5.3,30.46 -3.97,19.2 -8.61,33.1 -33.77,69.52 -2.65,17.21 3.97,15.89 12.58,16.55 15.23,5.96 160.88,34.43 45.82,10.87 15.39,17.86 3.69,25.86 -6.77,40.02 -16.01,37.56 -22.17,24.63 -37.56,33.87 -11.08,21.55 v 22.17 l 3.08,25.25 9.24,16.01 47.41,35.1 46.18,35.1 150.24,157.63 49.87,39.41 37.56,24.63 43.72,12.31 58.49,8.62 115.76,14.16 43.72,19.7 54.18,36.94 29.56,9.24 33.87,3.08 142.23,3.69 22.78,-5.54 12.31,-14.16 4.93,-21.55 19.09,-132.38 12.31,-22.17 94.82,-92.36" />
  <path
     style="fill:none;stroke:#f2f2f2;stroke-width:8;stroke-linecap:butt;stroke-linejoin:round;stroke-miterlimit:4;stroke-dasharray:none;stroke-opacity:1"
     id="path3801"
     d="m 971.49,2713.38 -139.44,-2.6 -42.55,-0.44 -62.2,4.77 -38.17,-0.71 -33.96,-14.28 -29.05,-22.59 -10.38,-16.65 -2.28,-22.64 L 622,2476 624.52,2397.01 622.22,2376.38 561,2186 538.65,2138.61 497.44,2084.05 292.82,1924.56 161.58,1825.06 114.0,1784.0 86.75,1754.44 71.76,1724.63 64.07,1687.34 59.12,1651.05 53.83,1548.5 55.95,1459.82 59.34,1381 57.82,1314.35 41.07,1141.22 27.1,1002.65 22.1,857.96 28.13,811.55 41,669 55,534 57.39,477.71 35.73,324.61 34.55,225.2 37.37,208 44.31,190.54 74.08,137.69 79,105 80.81,49.84 78.55,8.37 71.73,-7.15 51.31,-32.96 47,-59 l 7.5,-265.5 8.07,-25.35 22.96,-64.72 L 85,-432 v -22 l 2,-114 30,-82 11,-40 2,-34 0.84,-44.35 -6.49,-26.43 L 111.27,-816.5 74.3,-853.73 51.35,-892.18 38.12,-933.57 37,-964 v -61 l 3.87,-18.47 11.93,-14.67 L 138,-1135 l 4,-8 -4,-82 -21.34,-96.12 -4.48,-30.69 -13.01,-38.62 -54.63,-75.73 -71.53,-82.44 -93.87,-85.13 -32.05,-16.35 -155.34,-42.21 -42.75,-17.26 -18.75,-16.4 -18.88,-27.54 -5.67,-14.46 -4.21,-25.09 -4.83,-175.88 -9.38,-103.23 2.58,-38.53 44.88,-117.92 32.67,-111.43 21.32,-35.87 36.99,-30.8 27.04,-26.38 30.94,-48.44 11.92,-45.02 16.55,-64.22 -5.3,-33.77 -73.49,-129.77 -6.62,-36.41 3.69,-51.4 18.82,-103.53 -5.51,-104.06 4.04,-34.17 26.31,-104.81 5.4,-55.84 -8.86,-60.36 -17.42,-33.37 -14.57,-27.15 -66.87,-84.08 -13.9,-26.48 -4.48,-33.75 -0.15,-51.66 35.33,-184.0 18.29,-68.25 12.87,-99.92 75.85,-307.92 7.0,-29.66 11.08,-19.09 0.62,-17.86 0.62,-43.72 7.39,-28.94" />
  <path
     style="fill:none;stroke:#f2f2f2;stroke-width:8;stroke-linecap:butt;stroke-linejoin:round;stroke-miterlimit:4;stroke-dasharray:none;stroke-opacity:1"
     id="path3866"
     d="M 83.89,100.54 91.76,4.26 96.88,-60.41 V -223.04 l -3.19,-33.38 -4.94,-94.41 -14.17,-56.81 -1.34,-29.39" />
  <image
     xlink:href="../timelines/can/./../streetmap/canosm.png"
     id="image10"
     height="13036.33"
     width="10863.61"
     y="-7217.83"
     x="-3095"
     style="display:none" />
  <path
     id="path832"
     d="m 55.07,78.03 23.4,-3.4 h 59.98 l 13.19,3.4 39.14,10.63 16.59,0.42 17.44,-4.68 22.97,-8.93 17.87,-8.51 12.34,-2.13 h 15.74 l 15.74,4.25 109.75,32.76 42.54,4.68 64.66,12.76 72.32,2.55 77.42,3.4 27.22,-0.42 48.07,-0.85 70.19,-2.55 6.38,1.28 7.23,6.81 0.43,7.23 -2.98,71.89 1.7,6.81 6.38,5.11 130.59,6.81"
     style="opacity:1;fill:none;fill-opacity:1;fill-rule:nonzero;stroke:#5ebc2a;stroke-width:5;stroke-linecap:butt;stroke-linejoin:round;stroke-miterlimit:4;stroke-dasharray:none;stroke-opacity:1" />
</svg>
