<?xml version="1.0" encoding="UTF-8" standalone="no"?>
<svg
   xmlns:dc="http://purl.org/dc/elements/1.1/"
   xmlns:cc="http://creativecommons.org/ns#"
   xmlns:rdf="http://www.w3.org/1999/02/22-rdf-syntax-ns#"
   xmlns:svg="http://www.w3.org/2000/svg"
   xmlns="http://www.w3.org/2000/svg"
   xmlns:xlink="http://www.w3.org/1999/xlink"
   viewBox="0 0 600 1150"
   height="1150"
   width="600"
   id="svg2"
   version="1.1">
  <metadata
     id="metadata8">
    <rdf:RDF>
      <cc:Work
         rdf:about="">
        <dc:format>image/svg+xml</dc:format>
        <dc:type
           rdf:resource="http://purl.org/dc/dcmitype/StillImage" />
        <dc:title></dc:title>
      </cc:Work>
    </rdf:RDF>
  </metadata>
  <defs
     id="defs6" />
  <image
     xlink:href="streetmap/cbuosm.png"
     width="626.50043"
     height="1253.0009"
     preserveAspectRatio="none"
     id="image10"
     x="59.999557"
     y="-53.000885"
     style="display:none" />
  <path
     id="path817"
     d="m 61.016508,559.72836 5.491529,-3.25424 6.508479,1.01695 78.915314,-49.22038 21.15256,-10.98306 35.59325,-19.32204 20.1356,-6.71186 22.3729,-5.28815 30.91528,-1.22034 31.93222,3.25424 -0.81356,16.47458 15.45764,36.81359 6.30508,5.89831 1.42374,9.15255 -3.45764,9.96611 1.01695,14.2373 4.2712,18.50849 -5.89832,62.64409 -14.64407,63.051 0.81356,10.5762 76.06785,200.9493 32.33901,96.2035 15.05085,33.5593 16.67798,34.983 6.50848,3.2543 7.52543,-7.5254"
     style="opacity:1;fill:none;fill-opacity:1;fill-rule:nonzero;stroke:#e2001a;stroke-width:5;stroke-linecap:butt;stroke-linejoin:round;stroke-miterlimit:4;stroke-dasharray:none;stroke-opacity:1" />
  <path
     id="path819"
     d="m 282.10142,464.74524 7.72881,107.18652 1.22034,57.55934 -2.0339,5.6949 -4.47458,1.8305 -14.84746,0.2034 -6.71188,6.5085 -10.57627,0.8136 -16.27121,4.0678 -58.57631,19.322 -58.16953,12.8136 -11.79662,0.4067 -26.440695,-4.6779"
     style="opacity:1;fill:none;fill-opacity:1;fill-rule:nonzero;stroke:#e2001a;stroke-width:5;stroke-linecap:butt;stroke-linejoin:round;stroke-miterlimit:4;stroke-dasharray:none;stroke-opacity:1" />
  <path
     id="path821"
     d="m 265.42344,640.2708 3.25424,4.8813 55.52546,9.1526 6.30509,-3.2542"
     style="opacity:1;fill:none;fill-opacity:1;fill-rule:nonzero;stroke:#e2001a;stroke-width:5;stroke-linecap:butt;stroke-linejoin:round;stroke-miterlimit:4;stroke-dasharray:none;stroke-opacity:1" />
  <path
     id="path823"
     d="m 284.54209,637.0165 8.94917,12.6102"
     style="opacity:1;fill:none;fill-opacity:1;fill-rule:nonzero;stroke:#e2001a;stroke-width:5;stroke-linecap:butt;stroke-linejoin:round;stroke-miterlimit:4;stroke-dasharray:none;stroke-opacity:1" />
  <path
     id="path825"
     d="m 289.01667,648.8132 1.62712,8.5423 -1.22034,22.7797 -2.23729,16.8813 -14.44069,35.1866 -15.45763,31.5254 -11.18645,39.0509 -1.42373,19.9322 4.67796,18.9152 11.18645,25.4238 5.49154,6.3051 18.71187,9.5594 3.86441,4.4745 2.64407,6.9153 -1.42373,9.3559 -15.45764,54.5085 -7.11864,65.695 -0.61017,15.8644 0.61017,24.2034 -2.0339,19.9322"
     style="opacity:1;fill:none;fill-opacity:1;fill-rule:nonzero;stroke:#e2001a;stroke-width:5;stroke-linecap:butt;stroke-linejoin:round;stroke-miterlimit:4;stroke-dasharray:none;stroke-opacity:1" />
  <path
     id="path827"
     d="m 314.03364,467.99948 2.23729,-24.81357 9.35594,-18.71189 2.0339,-12.40679 23.59324,-49.83053 6.50847,-206.64422 3.25424,-15.45764 10.1695,-2.0339 2.84746,2.23729 -1.83051,12.40679 -14.64408,4.27119"
     style="opacity:1;fill:none;fill-opacity:1;fill-rule:nonzero;stroke:#e2001a;stroke-width:5;stroke-linecap:butt;stroke-linejoin:round;stroke-miterlimit:4;stroke-dasharray:none;stroke-opacity:1" />
  <path
     id="path829"
     d="m 351.25401,362.2367 30.3051,-50.64411 5.08475,-5.28814 6.71187,-1.83051 30.71189,5.69492 8.33898,-1.22034 6.50849,-4.47458 4.67796,-3.86441 3.45763,-9.35594 14.03391,-45.96613 2.23729,-13.01696 -0.61017,-14.64407 -2.44068,-15.05086 -8.33899,-38.44071 -19.72883,-107.18652"
     style="opacity:1;fill:none;fill-opacity:1;fill-rule:nonzero;stroke:#e2001a;stroke-width:5;stroke-linecap:butt;stroke-linejoin:round;stroke-miterlimit:4;stroke-dasharray:none;stroke-opacity:1" />
  <path
     id="path831"
     d="m 314.03364,467.99948 12.2034,2.84747 38.6441,0.81356 6.10169,-0.61017 3.66102,-2.44069 5.28814,-7.93221 11.59322,-9.96611 7.72883,-1.62712 29.89832,0.61017 26.4407,-6.30508 24.20341,6.10169 48.00003,81.96617 -0.81356,9.9661"
     style="opacity:1;fill:none;fill-opacity:1;fill-rule:nonzero;stroke:#e2001a;stroke-width:5;stroke-linecap:butt;stroke-linejoin:round;stroke-miterlimit:4;stroke-dasharray:none;stroke-opacity:1" />
</svg>
