<?xml version="1.0" encoding="UTF-8" standalone="no"?>
<svg
   xmlns:dc="http://purl.org/dc/elements/1.1/"
   xmlns:cc="http://creativecommons.org/ns#"
   xmlns:rdf="http://www.w3.org/1999/02/22-rdf-syntax-ns#"
   xmlns:svg="http://www.w3.org/2000/svg"
   xmlns="http://www.w3.org/2000/svg"
   xmlns:xlink="http://www.w3.org/1999/xlink"
   viewBox="0 0 500 1075"
   height="1075"
   width="500"
   id="svg2"
   version="1.1">
  <metadata
     id="metadata8">
    <rdf:RDF>
      <cc:Work
         rdf:about="">
        <dc:format>image/svg+xml</dc:format>
        <dc:type
           rdf:resource="http://purl.org/dc/dcmitype/StillImage" />
        <dc:title></dc:title>
      </cc:Work>
    </rdf:RDF>
  </metadata>
  <defs
     id="defs6" />
  <image
     xlink:href="basemap/cfrosm.png"
     width="661.7"
     height="1323.4"
     preserveAspectRatio="none"
     id="image10"
     x="-5"
     y="-128.4"
     style="display:none" />
  <path
     id="path836"
     d="m 84.17,53.66 6.04,24.16 5.75,4.89 4.31,2.59 13.52,-2.59 7.19,-4.6 13.52,-3.16 19.27,-0.86 14.38,4.03 3.74,5.47 -6.9,17.55 -15.24,6.04 -6.62,4.6 -5.18,8.92 -1.15,20.42 4.89,21.57 -6.62,15.82 0.58,13.23 -1.73,8.63 6.76,41.13 4.03,14.96 -5,21.77 -46.7,0.55 0.27,34.33 -0.51,1.53 -8.41,11.12 v 15.34 l 3.7,3.5 18.32,0.55 2.07,1.21 5.01,8.35 10.41,10.13 0.75,1.7 0.86,23.3 -1.27,2.27 -13.31,7.49 -3.5,5 -5.35,15.49 -1.17,1.38 -6.9,3.74 -0.85,0.28 -5.73,0.78 -16.13,11.29 -1.24,3.29 2.17,16.8 1.68,3.36 11.14,10.61 12.15,4.82 15.89,6.54 11.79,17.11 13.95,-8.77 70.04,102.69 35.67,-24.59 -10.07,-14.81 18.84,-21.72"
     style="fill:none;stroke:#f04b4a;stroke-width:5;stroke-linecap:butt;stroke-linejoin:round;stroke-miterlimit:4;stroke-dasharray:none;stroke-opacity:1" />
  <path
     id="path854"
     d="m 445.44,192.59 -31.93,23.59 -86,-6.9 -5.75,2.59 -44.58,52.93 -8.05,3.74 -17.26,-9.49 -39.12,14.96 -3.74,-2.3 -7.48,-15.24 -13.23,1.15 -31.06,14.96 -17.57,0.66 -49.19,0.58 -2.47,2.52 0.28,35.97 -8.4,11.12 -0.51,1.51 v 17.26 l 0.78,1.82 5.18,4.89 1.64,0.68 17.91,0.53 4.47,7.46 0.4,0.51 9.92,9.66 0.77,20.78 -12.48,7.02 -0.82,0.75 -4.03,5.75 -0.31,0.62 -5.15,14.9 -5.65,3.06 -5.88,0.8 -1.1,0.43 -17.26,12.08 -0.91,1.17 -1.72,4.6 -0.14,1.2 2.3,17.83 0.24,0.8 2.01,4.03 0.35,0.53 12.22,11.79 13.46,5.33 14.31,5.68 13.95,19.27 13.66,-8.63 85.72,126.56 4.69,1.65 4.75,-0.23 27.04,-10.64 c 0.31,-0.12 0.63,-0.18 0.96,-0.17 l -10e-6,-5e-4 c 0.85,0.01 1.64,0.46 2.08,1.19 l 5.75,9.3 13.63,8.9 c 0.44,0.29 0.78,0.71 0.97,1.2 l 3.31,8.63 c 0.04,0.1 0.07,0.21 0.1,0.31 l 5.06,21.1 5.31,7.48 23.27,30.75 c 0.08,0.11 0.15,0.22 0.22,0.34 l 2.59,4.89 c 0.32,0.61 0.38,1.33 0.15,1.98 l -1.44,4.17 c -0.21,0.6 -0.64,1.11 -1.21,1.4 l -27.4,14.26 -0.61,1.39 21.44,40.21 c 0.21,0.39 0.31,0.82 0.29,1.26 l -0.14,4.17 c -0.02,0.45 -0.15,0.89 -0.4,1.27 l -1.58,2.45 c -0.25,0.38 -0.59,0.69 -1,0.89 l -17.11,8.34 -0.88,5.62 10.58,6.51 23.39,23.8 -0.71,3.76 -9.17,6.82 -22.44,23.59 22.58,62.27 -34.8,26.75 -35.52,11.65 -23.44,3.02 -3.88,3.88 1.01,52.35"
     style="fill:none;stroke:#2ab455;stroke-width:5;stroke-linecap:butt;stroke-linejoin:round;stroke-miterlimit:4;stroke-dasharray:none;stroke-opacity:1" />
  <path
     id="path848"
     d="m 89.88,483.85 16.98,7.16 15.56,21.01 13.73,-8.14 83.49,123.46 7.63,2.64 7.24,0.12 25.09,-9.88 4.94,8 c 0.19,0.31 0.45,0.58 0.76,0.78 l 13.42,8.76 2.96,7.72 5.14,21.41 c 0.07,0.31 0.21,0.6 0.39,0.86 l 5.61,7.91 c 0.01,0.02 0.03,0.04 0.04,0.06 l 23.18,30.62 1.99,3.75 -0.76,2.2 -27.3,14.21 c -0.51,0.26 -0.91,0.7 -1.14,1.22 l -1.44,3.31 c -0.3,0.7 -0.27,1.5 0.09,2.17 l 21.69,40.68 -0.1,2.81 -0.83,1.28 -16.49,8.04 -57.87,32.02 -48.47,17.26 -24.02,6.76 -18.84,3.16 -27.76,1.58 -2.73,3.02 1.01,31.93 10.64,20.71"
     style="fill:none;stroke:#00aaea;stroke-width:5;stroke-linecap:butt;stroke-linejoin:round;stroke-miterlimit:4;stroke-dasharray:none;stroke-opacity:1" />
</svg>
