<?xml version="1.0" encoding="UTF-8" standalone="no"?>
<svg
   xmlns:dc="http://purl.org/dc/elements/1.1/"
   xmlns:cc="http://creativecommons.org/ns#"
   xmlns:rdf="http://www.w3.org/1999/02/22-rdf-syntax-ns#"
   xmlns:svg="http://www.w3.org/2000/svg"
   xmlns="http://www.w3.org/2000/svg"
   xmlns:xlink="http://www.w3.org/1999/xlink"
   version="1.1"
   id="svg2"
   width="2400"
   height="1425"
   viewBox="0 0 2400 1425">
  <metadata
     id="metadata8">
    <rdf:RDF>
      <cc:Work
         rdf:about="">
        <dc:format>image/svg+xml</dc:format>
        <dc:type
           rdf:resource="http://purl.org/dc/dcmitype/StillImage" />
        <dc:title></dc:title>
      </cc:Work>
    </rdf:RDF>
  </metadata>
  <defs
     id="defs6" />
  <image
     xlink:href="../timelines/dlc/./../streetmap/dlcosm.png"
     y="-3601.65"
     x="-4350"
     id="image10"
     preserveAspectRatio="none"
     height="5776.65"
     width="10503"
     style="display:none" />
  <path
     style="opacity:1;fill:none;fill-opacity:1;fill-rule:nonzero;stroke:#f2f2f2;stroke-width:8;stroke-linecap:butt;stroke-linejoin:round;stroke-miterlimit:4;stroke-dasharray:none;stroke-opacity:1"
     d="m 1267,-1291.5 -43,22 -34,-2 -22.92,-10.64 -39.36,-32.72 L 1094,-1328.5 l -51.5,-9 -60,-1 -35,-18.5 -10,-1.5 -12,3 -151.5,60 -78.5,3 -203.48,5.35 L 383,-1273 l -24.5,7.5 -12.5,10 -21,35.5 -20,40.5 -14,16.5 -46.5,32.5 -14.5,10 -9.5,21 -6.5,56.5 -28.5,104 -16.5,31 -0.5,49 -8.5,78 -17,51.5 -2.92,43.09 -20.51,108.19 0.71,18.38 4.95,12.73 8.49,7.78 159.1,41.01 139.18,20.32 15.5,10 15,32 3,19.5 2,34 -103,337.5 -11.5,35 -7.5,47.5 v 10 l 7,8.5 88.5,40 164,68.5 262,146.5 24,22.5 15.5,18.5 18,15.5 39.5,20 11.5,-3.5 7.5,-9.5 13.25,-25 1.5,-63.5 5.25,-9.5 16.5,-6.5 108.5,-11.5 22,5.5 84,42.5 12,3 22.5,3 30,-8.5 104,-29 26.5,-11 105.5,-57.5 56,-27 120.5,-55 192.5,-68 22.5,-5.5 16,4.5 26.5,24 21.5,14.5 16,5 45.5,-1 13.54,-1.39 12.83,1.51 414.74,203.79 15.47,3.4 13.59,1.89 10.94,-0.38 9.06,-0.75"
     id="path836" />
  <path
     style="opacity:1;fill:none;fill-opacity:1;fill-rule:nonzero;stroke:#f2f2f2;stroke-width:8;stroke-linecap:butt;stroke-linejoin:round;stroke-miterlimit:4;stroke-dasharray:none;stroke-opacity:1"
     d="m 1375.5,-1467.0 v 110 l -6.5,10.5 -14.5,10.5 -47.5,22 -38.5,10.5 -84,46.5 -65.5,47 -48.5,25 -37,23 -43,32.5 -3,8 -6.5,65.5 1,147.5 -5,19.5 -40.5,117.5 -28,69 -35,144 -3,27.5 10.5,39 3.5,59 19,38 12,38 -2.5,12.5 -20.5,34.5 -1,20.5 -17.5,38.5 -9.5,31.5 -16.5,31.5 2,20 6,15.5 188.5,180 9.5,18 4.5,20.5 0.5,19 -5,17.5 -61,152.5 -1.5,138.5 -4,9.5 -20,28.5 -5.5,26 v 42.5 l -0.05,17.86 12.13,32.23 -1.14,55.74 -3.41,36.78 -4.17,48.16 -3.41,8.34 -98.22,44.75 -28.44,1.9 -67.5,22.37 -7.96,6.07 -16.69,28.06 -58.02,31.47 -23.89,9.86 -30.52,26.36 -15.02,13.41 -9.12,3.75 -33.79,-8.85 -46.39,-22.79 h -19.04 l -29.23,10.99 -34.32,8.85 -8.58,9.12 -42.37,58.45 -137.56,230.33 -10.46,9.92 -32.98,14.21 -9.12,10.46 -27.62,46.12 -13.68,32.45 -10.46,25.21 -43.44,33.52"
     id="path838" />
  <path
     style="opacity:1;fill:none;fill-opacity:1;fill-rule:nonzero;stroke:#f2f2f2;stroke-width:8;stroke-linecap:butt;stroke-linejoin:round;stroke-miterlimit:4;stroke-dasharray:none;stroke-opacity:1"
     d="m 1510.5,123.5 -25,-29 -13,-7 -13.5,-3.5 -31.5,1 -12,-4.5 -34,-17.5 -20.5,-4 -130,1 -10,-1 -11,-5 -6.5,-4 -32,-34 -4.5,-7 -2,-17 -4,-244 3.5,-26.5 v -57 l -6,-26 -2,-174.5 9,-48.5 4.5,-39.5 6.5,-116.5 -2,-47.5 4,-65.5 7.5,-24 20.5,-19.5 24,-12 61,-30 13,-12.5 9.5,-12.5 7.5,-16.5 80,-349 13.5,-20.5 17.5,-13 72,-33 33.5,-5.5 21,2 83,21 h 18.5 l 22.5,-3.5 26.5,-7 40,-15 30.5,-6 29,2 33,4.5 27,-6.5 30,-9.5 183,-94.5 24.5,-11 80.5,-20 43.5,-16.5 105,-23 29,-3 47.5,-19.5 17.5,-2 103.5,19 31.5,-5.5 23,-7.5 48,-31.5 17,-12.5 128,-146.5 18.5,-14.5 17.5,-5.5 220.5,-0.5 16,-4 34.5,-20.5 21,-6.5 34,-0.5 57.5,-14.5 42,-37.5 136.5,-82 24.5,-9 502,2.5 36.5,-2.5 106.5,-27 28.5,-0.5 255.5,2 27,-4 23,-12 367.5,-229 24.5,-9 33.5,0.5 88,33 26,4 122,5.5 46,10.5 h 18 l 23.5,-5.5 73.5,-39 30.5,-9.5 95,-9.5 31.5,11.5 115,35 25.5,1.5 37.5,-11 92,-30 88.5,-2 21,-6 82.5,-46.5 118.5,-46.5 31,-8 29.5,-12.5"
     id="path840" />
  <path
     style="opacity:1;fill:none;fill-opacity:1;fill-rule:nonzero;stroke:#f2f2f2;stroke-width:8;stroke-linecap:butt;stroke-linejoin:round;stroke-miterlimit:4;stroke-dasharray:none;stroke-opacity:1"
     d="m 3275.5,-1918.5 9.5,-12.5 3,-15 -3.5,-16.5 -9.5,-10.5 -119.5,-114.5 -20,-25.5 -62.5,-81 -59.5,-67 -29,-15 -17,-21.5 -28.5,-41.5 -12.5,-33 -14,-17 -26.5,-22.5 -79.5,-44.5 -13,-12 -37.5,-43.5 -23.5,-33 -16,-15.5 -34,-27.5 -26,-31.5 -8.5,-17 -4,-38 -5,-20.5 1,-46 -6.5,-47.5 4,-17.5 15.5,-36.5 7.5,-50 16,-22 29.5,-42 2,-22.5 -12.5,-84.5 4.5,-22 39,-75 82,-117.5 7,-16.5 14,-54"
     id="path842" />
  <path
     id="path841"
     d="M 114.96,1333.54 87.2,1354.49 64.14,1362.27 32.76,1352.08 10.24,1322.04 -29.45,1279.68 -80,1247 l -91,-44 -30,-4.5 -58.5,-0.5 -48,-21.5 -80.5,-9 -194,-44 -123.5,49 -12.5,10 -20,26.5 -85.5,142.5 -65,57.5 -160,91 -102,44.5 -23.5,-2.5 -20,-13 -13,-18.5 -3.5,-14 -1.5,-60 -14,-33.5 -17,-22 -17,-6 -34,3.5 -17,-7 -41.5,-17.5 -58,-14 -52.5,-6.5 -162.5,42 -20,9.5 -57.5,2 -32,-5 -18,3.5 -23,12 -20.5,16 -20.5,22.5 -5,58 -14.5,29.5 -1,18.5 2.5,33 -1,23.5 -3.5,12.5 -16.5,12.5 -64,28.5 -58,-3.5 -30,-10.5 -45,-11 -45.5,-19.5 -24,-3.5 -129.5,-8 -29,-4.5 -21.5,-16 -123.5,-124 -24,-11.5 -92,-15 -16,-6.5 -20.5,-17 -96,-99.5 -28.5,-19 -28,-8.5 -28,-2 -75,9.5 -17,10.5 -26.5,18.5 -29,11 -69.5,1 -11.5,4 -76.5,36 -17,19.5 -20.5,27 -21,11 -86,23.5 -41.5,4 -20.5,10.5 -107,79.5 -47,56 -37.5,22.5 -15,14.5 -11.5,22 -21,80 -16.5,26.5 -15.5,15.5 -37.5,20 -16,12 -17.5,20 -34.5,93.5 -25,41 -18,27 -18.5,16.5 -21.5,12 -26.5,5.5 -59,-2.5 -30.5,-13.5 -118.5,-56.5 -25,-3.5 -59,2 -30,-6 -69.5,-23.5 -33.5,-7 -76.5,-8.5 -44.5,2"
     style="opacity:1;fill:none;fill-opacity:1;fill-rule:nonzero;stroke:#f2f2f2;stroke-width:8;stroke-linecap:butt;stroke-linejoin:round;stroke-miterlimit:4;stroke-dasharray:none;stroke-opacity:1" />
  <path
     style="opacity:1;fill:none;fill-opacity:1;fill-rule:nonzero;stroke:#4ca9ec;stroke-width:5;stroke-linecap:butt;stroke-linejoin:round;stroke-miterlimit:4;stroke-dasharray:none;stroke-opacity:1"
     d="m 66.11,1346.16 9.26,6.35 11.83,1.98 12.24,-2.24 28.04,-19.31 23.54,-21.35 16.4,-34.46 10.84,-25.66 24.5,-43.65 12.26,-10.31 33.06,-17.72 10.84,-14.02 132.52,-215.84 47.35,-65.86 15.08,-10.05 15.87,-4.23 19.04,-4.76 21.43,-8.73 12.43,2.12 9.26,3.44 14.55,9.26 7.14,3.97 17.46,-1.85 26.98,10.32 11.64,1.32 9.79,-6.35 36.5,-34.39 11.37,-6.08 39.68,-16.93 34.92,-22.75 15.08,-22.75 10.05,-10.58 19.84,-6.61 54.75,-16.93 20.63,-0.26 93.37,-43.64 4.23,-5.03 2.12,-12.43 4.5,-75.91 -0.79,-57.4 -2.38,-71.68 -0.53,-29.36 4.7,-14.27 10.64,-18.0 11.64,-16.4 3.17,-11.64 1.59,-126.7 1.85,-9.79 15.05,-36.98"
     id="path829" />
  <path
     style="opacity:1;fill:none;fill-opacity:1;fill-rule:nonzero;stroke:#4ca9ec;stroke-width:5;stroke-linecap:butt;stroke-linejoin:round;stroke-miterlimit:4;stroke-dasharray:none;stroke-opacity:1"
     d="m 1024.59,202.95 22.59,8.99 251.55,-32.01 23.01,-0.53 19.57,-8.46 29.62,-7.94 17.46,6.08 15.87,2.91 14.55,-3.17 39.41,7.94 44.44,1.06 67.19,-27.24 27.24,-55.02 23.28,-24.86 89.14,-1.85 9.79,7.14 32.53,79.62 74.86,17.99 69.83,-8.46 100.78,17.46 11.9,-0.53 19.04,-2.65 13.23,1.32 16.14,8.46 9.52,9.79 6.08,12.7 65.86,44.44 10.84,3.44 89.67,-0.79 13.75,3.17 12.96,5.82 10.58,8.73 5.82,2.91 35.18,3.97 11.9,-0.79 13.23,-6.61"
     id="path825" />
</svg>
