<?xml version="1.0" encoding="UTF-8" standalone="no"?>
<svg
   viewBox="0 -550 5725 2375"
   height="2375"
   width="5725"
   id="svg2"
   version="1.1"
   xmlns:xlink="http://www.w3.org/1999/xlink"
   xmlns="http://www.w3.org/2000/svg"
   xmlns:svg="http://www.w3.org/2000/svg"
   xmlns:rdf="http://www.w3.org/1999/02/22-rdf-syntax-ns#"
   xmlns:cc="http://creativecommons.org/ns#"
   xmlns:dc="http://purl.org/dc/elements/1.1/">
  <metadata
     id="metadata8">
    <rdf:RDF>
      <cc:Work
         rdf:about="">
        <dc:format>image/svg+xml</dc:format>
        <dc:type
           rdf:resource="http://purl.org/dc/dcmitype/StillImage" />
      </cc:Work>
    </rdf:RDF>
  </metadata>
  <defs
     id="defs6" />
  <path
     id="path836"
     d="m 3666.5424,302.8644 54.6101,-6.4068 102.5085,-9.4576 29.5932,0.3051 18.4652,7.1504 17.1065,8.3274 65.7164,47.5602 17.8368,5.3264 17.5993,3.5266 28.0216,-2.9418 104.9492,-11.8984 110.4406,-3.661 95.4916,-1.5254 126,61.6271 9.4576,0.9153 27.1525,-4.8814 98.2373,-38.1356"
     style="opacity:1;fill:none;fill-opacity:1;fill-rule:nonzero;stroke:#f2f2f2;stroke-width:8;stroke-linecap:butt;stroke-linejoin:round;stroke-miterlimit:4;stroke-dasharray:none;stroke-opacity:1" />
  <image
     xlink:href="../timelines/streetmap/dnkosm.png"
     style="display:none"
     width="5373"
     height="2686.5"
     preserveAspectRatio="none"
     id="image10"
     x="-32"
     y="-719.875" />
  <path
     style="opacity:0.99918;fill:none;stroke:#0069b4;stroke-width:1;stroke-linejoin:round;stroke-miterlimit:4;stroke-dasharray:none;stroke-opacity:1"
     d="M 4346.7004,-179.47922 4548.154,-299.88638"
     id="path834" />
  <path
     style="opacity:0.99918;fill:none;stroke:#0069b4;stroke-width:5;stroke-linejoin:round;stroke-miterlimit:4;stroke-dasharray:none;stroke-opacity:1"
     d="m 4548.154,-299.88638 131.965,-77.05839 0.9229,-2.20241 -0.8398,-3.83706 -15.6493,-25.16448 -9.3402,-7.82824 -37.0407,-27.60721 -8.369,-8.14167 -41.5225,-41.73719"
     id="path837" />
  <path
     style="opacity:0.99918;fill:none;stroke:#0069b4;stroke-width:5;stroke-linejoin:round;stroke-miterlimit:4;stroke-dasharray:none;stroke-opacity:1"
     d="m 4346.7004,-179.47922 -10.331,5.36722 -16.1096,5.87293 -35.0657,10.09532 -57.5728,14.95649 -18.8221,9.70667 -18.0914,12.62881 -87.3616,79.607446 -10.872,10.341399 -9.7698,14.908759 -57.6216,130.246556 -5.3924,17.48135 -0.246,13.30267 3.121,13.56048 15.2247,28.76849 3.763,8.65543 2.5614,14.11102 0.3993,10.27309 1.7081,16.33694 4.7052,15.50811 -2.3206,4.07143 -35.4099,5.48797 -147.5316,24.10533 -17.559,2.47998 -10.2242,-2.84799"
     id="path839" />
  <path
     style="opacity:0.99918;fill:none;stroke:#0069b4;stroke-width:5;stroke-linejoin:round;stroke-miterlimit:4;stroke-dasharray:none;stroke-opacity:1"
     d="m 4050.9271,252.24996 3.3514,2.754 21.5405,-4.38525 10.9468,-4.39348 19.6493,-10.00086 14.5123,-9.17216 7.8152,-3.3019 17.2485,-4.21533 7.1007,1.1078 16.4431,7.38162 7.8785,-0.0683 97.4288,34.45999 53.6071,29.233 5.2579,0.54325 3.2016,-1.83248 3.5953,-11.84276 3.7815,-3.12803 77.9802,-16.24735 13.9048,0.30593 6.3161,0.61064 39.0752,10.27344 7.3584,0.24967 26.192,-1.59162 8.5457,2.63125 37.1136,10.25244 23.4372,1.67705 17.0092,-11.58545 3.2594,-0.26937 4.4639,1.18799 7.7061,5.09053 3.9347,0.5879 4.2082,-2.05929 10.7147,-12.0375 4.0619,-2.17865 7.6648,1.35038 7.7037,4.34612 1.1215,2.69628 -0.543,4.39361 -3.0127,5.75926 -15.781,41.66797 v 2.75288 l 1.1888,1.78563 37.7081,10.7605 4.0149,1.54702 2.4142,-3.40375 2.6828,-10.03266 13.9186,-21.66345 0.9669,-2.58603 0.1321,-2.82729 -2.1532,-2.59313 -35.8315,-18.25136 -2.8692,-4.02645 -3.8905,-5.71452"
     id="path841" />
  <path
     style="opacity:0.99918;fill:none;stroke:#0069b4;stroke-width:5;stroke-linejoin:round;stroke-miterlimit:4;stroke-dasharray:none;stroke-opacity:1"
     d="m 4636.7202,322.5003 -8.6089,13.64908 -4.3774,-1.082 -1.6652,-3.12959 1.6906,-3.34183 7.7517,-1.35039 6.9123,-8.5715"
     id="path862" />
  <path
     style="opacity:0.99918;fill:none;stroke:#0069b4;stroke-width:5;stroke-linejoin:round;stroke-miterlimit:4;stroke-dasharray:none;stroke-opacity:1"
     d="m 4651.6318,284.29156 -0.7571,-14.53732 84.5402,-153.83843 14.5404,-12.60972 5.9977,-11.10271 39.3926,-71.99948 8.6918,-13.29928 12.6007,-12.4162 11.3268,-8.70487 5.0594,-0.2317 32.0176,15.35477 45.6889,44.02656 1.3414,11.36916 38.19,28.85909 8.1349,-0.30662 4.6352,-2.55021 7.0064,1.06495 11.3091,24.8548 3.5495,2.28208 5.989,1.1646 31.9558,25.92362 6.0558,16.25879 5.6607,7.9035 9.3283,9.20233 52.756,22.7377 11.3951,-2.66976 80.4689,34.30805 5.4325,5.64449 1.3906,4.90254 1.3312,14.40666 4.0597,6.24933 8.0641,10.01951 6.0992,3.60094 63.5092,23.01863 6.3292,4.28315 37.3105,35.58438 8.2871,4.44507 10.83,2.41796 26.5243,4.66837 7.9524,2.98677 6.9055,5.94947 6.9077,3.87652 10.0049,-0.0574 231.0237,-21.54226 39.5949,-4.87577"
     id="path864" />
  <path
     style="opacity:0.99918;fill:none;stroke:#0069b4;stroke-width:5;stroke-linejoin:round;stroke-miterlimit:4;stroke-dasharray:none;stroke-opacity:1"
     d="m 4827.9649,-14.21645 71.9139,-50.39908 21.5919,-14.18607 3.8627,-0.9613 6.3319,0.0318 57.0096,25.65884 47.7095,38.03584 19.9778,26.11132 20.5541,26.16798 8.2862,8.41989"
     id="path866" />
  <path
     style="opacity:0.99918;fill:none;stroke:#0069b4;stroke-width:5;stroke-linejoin:round;stroke-miterlimit:4;stroke-dasharray:none;stroke-opacity:1"
     d="m 4679.632,339.34633 -31.668,106.52317 -3.3436,19.7951 -8.7112,23.4433 117.0918,41.778 138.1889,111.0967 10.1749,9.2142 7.3388,9.9096 22.9067,18.4777 10.7701,10.2871 95.0121,76.1746 1.6867,2.9374 v 3.3536 l -4.8144,6.7439 -24.6157,32.6346 -70.4997,83.5287 -10.9651,20.1215 5.8512,7.8131 -5.4698,8.0543 -3.4028,-0.6219 -2.8969,-2.1761 -0.5959,-3.728 7.5411,-11.3061"
     id="path896" />
  <path
     style="opacity:0.99918;fill:none;stroke:#0069b4;stroke-width:5;stroke-linejoin:round;stroke-miterlimit:4;stroke-dasharray:none;stroke-opacity:1"
     d="m 5026.1067,756.4434 89.888,-116.2451 1.3202,-8.0995 -1.7832,-6.6659 -4.9913,-7.1055 -17.4026,-13.0662 -5.5195,0.9037 -36.28,45.9259 -2.252,1.0001 -6.0818,-1.7961 -133.5159,-107.7087 -1.288,-4.5207 3.8256,-6.2611 -1.3109,-4.4383 -13.5814,-11.0075 -5.6297,-3.541 -7.1896,-5.3301 -4.4522,-0.1984 -3.4518,4.4243 -5.3985,-0.585 -82.6128,-65.2315 -2.0834,-5.1399 -14.1106,-11.6114 -7.2118,-2.557 -33.1124,-25.11 -144.3675,-41.58678 -7.0773,1.53047 -4.041,-16.36047 7.2213,-1.6405 3.897,16.4705"
     id="path898" />
  <path
     style="opacity:0.99918;fill:none;stroke:#0069b4;stroke-width:5;stroke-linejoin:round;stroke-miterlimit:4;stroke-dasharray:none;stroke-opacity:1"
     d="m 4580.4363,362.42219 -71.0509,27.15758 -3.6058,4.43763 -11.5777,25.0609 -13.7055,16.3777 -109.2416,-56.53408 6.3586,-14.43353 -51.4286,-25.1983 -26.9512,0.44462 -29.6466,-18.14978 -26.1153,-2.8492 -57.6145,-0.5922 -24.1905,5.13857 -34.1497,14.95967 -17.5495,6.95781 -12.7319,0.94396 -25.6247,0.23505 -9.5729,3.03818 -11.2783,0.0698 -9.6837,-1.57019 -49.9992,7.75008 -29.9767,7.9443 -14.588,2.75738 -28.564,9.02779 -133.12,53.24317 -19.472,11.2623 -1.6811,4.4026 1.6573,5.944 13.0673,22.1956 35.7008,50.4288 7.8381,16.0889 0.1859,14.7391 -3.031,8.035 -8.8852,17.3561 -4.3717,9.14905"
     id="path900" />
  <path
     style="opacity:0.99918;fill:none;stroke:#0069b4;stroke-width:5;stroke-linejoin:round;stroke-miterlimit:4;stroke-dasharray:none;stroke-opacity:1"
     d="m 4480.4964,435.456 -24.5169,64.8401 -4.3084,1.303 -139.4412,-68.0169 -10.6192,-12.0251 h -4.6765 l -183.6728,148.7629 -3.1107,5.2905 -7.7849,18.6192 1.3148,7.4931 34.2488,44.5756 1.4421,4.0233 -0.2346,6.0172 -81.8543,230.2354 -10.3772,3.4802"
     id="path902" />
  <path
     style="opacity:0.99918;fill:none;stroke:#0069b4;stroke-width:5;stroke-linejoin:round;stroke-miterlimit:4;stroke-dasharray:none;stroke-opacity:1"
     d="m 4668.9873,501.3055 -23.6242,64.7942 1.7659,5.2765 10.3184,4.713 -28.9113,33.0939 -47.6363,40.1106 -5.0408,9.6165 -26.2791,63.9725"
     id="path904" />
  <path
     style="opacity:0.99918;fill:none;stroke:#0069b4;stroke-width:5;stroke-linejoin:round;stroke-miterlimit:4;stroke-dasharray:none;stroke-opacity:1"
     d="m 4239.0468,1006.9227 49.0851,39.4506 5.4698,11.2681 11.3725,30.4103 34.7684,13.1283 21.473,45.6686 5.1802,2.8811 5.8781,-2.2386 66.3346,-190.1122 -2.1544,-6.1537 -5.3486,-5.5401 -49.1965,-16.1287 -2.383,-4.8339 152.4375,-433.963 -27.9169,-12.44257 -35.3116,-10.85784"
     id="path906" />
  <path
     style="opacity:0.99918;fill:none;stroke:#0069b4;stroke-width:5;stroke-linejoin:round;stroke-miterlimit:4;stroke-dasharray:none;stroke-opacity:1"
     d="m 4520.5422,485.9347 4.8628,-2.4018 3.0689,-5.6624 7.3451,-22.1407 3.4759,-0.84 96.6143,34.2181"
     id="path908" />
  <path
     style="opacity:0.99918;fill:none;stroke:#0069b4;stroke-width:5;stroke-linejoin:round;stroke-miterlimit:4;stroke-dasharray:none;stroke-opacity:1"
     d="m 4816.0504,581.0984 -0.587,7.7896 -13.6591,16.8623 -0.9714,5.8093 2.516,5.8476 21.037,14.4607 1.6825,6.3374 -1.1632,8.2471 -76.8309,96.515 -8.3634,-0.15362 -4.8126,6.09642 1.5095,7.8946 -16.6874,22.834 -96.4815,157.7844 -7.9875,13.2621 -24.4198,59.1402 -38.618,103.4671 -12.3441,25.3751 -21.308,42.0746 -79.6339,155.3229 -3.7793,14.2107 -2.0211,41.9739 -2.8526,76.5838 -4.7819,37.3115 -11.3356,263.0706"
     id="path910" />
  <path
     style="opacity:0.99918;fill:none;stroke:#0069b4;stroke-width:5;stroke-linejoin:round;stroke-miterlimit:4;stroke-dasharray:none;stroke-opacity:1"
     d="m 4748.0743,742.9674 1.6292,7.6553 -4.5771,6.06427 -8.7186,0.11783"
     id="path912" />
  <path
     style="opacity:0.99918;fill:none;stroke:#0069b4;stroke-width:5;stroke-linejoin:round;stroke-miterlimit:4;stroke-dasharray:none;stroke-opacity:1"
     d="m 4433.3876,1392.0019 -49.2295,-1.7964 -8.8867,4.1011 -73.6256,61.656 -59.532,54.897 -46.6672,37.8436"
     id="path956" />
  <path
     style="opacity:0.99918;fill:none;stroke:#ab0101;stroke-width:5;stroke-linejoin:round;stroke-dasharray:none;stroke-opacity:1"
     d="m 77.1797,-203.08748 -7.4048,-5.93359 -6.595,-39.31856 143.7974,-25.06119 14.5711,1.84085 7.807,6.59389 13.2385,20.43603 4.5059,1.33051 198.0062,-28.84588 16.2881,1.38834 22.6462,4.86587 27.3524,-125.19647"
     id="path855" />
  <path
     style="opacity:0.99918;fill:none;stroke:#ab0101;stroke-width:5;stroke-linejoin:round;stroke-dasharray:none;stroke-opacity:1"
     d="m 484.0403,-265.79121 -51.7213,238.87308 2.0175,12.87461 36.4699,53.89057 55.585,62.8692 48.6073,48.2163 63.2053,48.00544 57.6768,45.82975 3.3931,6.67085 -2.8566,5.4791 -11.2726,13.10271 -0.078,4.36341 2.3135,4.00345 9.4815,3.09639 44.4635,23.52457 10.409,-0.43705 178.8199,-38.28105 23.5363,-7.34383 18.0325,-2.89307 12.1707,-5.38205 4.4271,0.58084 6.0915,7.00208 61.409,213.82015 1.5496,7.83127 2.6511,3.04436 5.9757,0.84529 66.4457,-19.10597 -6.3656,-21.08437 61.0222,-17.31492 28.2517,94.3231 -62.1286,18.15639 -20.7797,-74.0802"
     id="path857" />
</svg>
