<?xml version="1.0" encoding="UTF-8" standalone="no"?>
<svg
   version="1.1"
   id="svg2"
   width="2350"
   height="2350"
   viewBox="0 0 2350 2350"
   xmlns:xlink="http://www.w3.org/1999/xlink"
   xmlns="http://www.w3.org/2000/svg"
   xmlns:svg="http://www.w3.org/2000/svg"
   xmlns:rdf="http://www.w3.org/1999/02/22-rdf-syntax-ns#"
   xmlns:cc="http://creativecommons.org/ns#"
   xmlns:dc="http://purl.org/dc/elements/1.1/">
  <metadata
     id="metadata8">
    <rdf:RDF>
      <cc:Work
         rdf:about="">
        <dc:format>image/svg+xml</dc:format>
        <dc:type
           rdf:resource="http://purl.org/dc/dcmitype/StillImage" />
      </cc:Work>
    </rdf:RDF>
  </metadata>
  <defs
     id="defs6" />
  <path
     style="opacity:1;fill:none;fill-opacity:1;fill-rule:nonzero;stroke:#f2f2f2;stroke-width:8;stroke-linecap:butt;stroke-linejoin:round;stroke-miterlimit:4;stroke-dasharray:none;stroke-opacity:1"
     d="m 1192.211,1257.6627 -55.2262,54.4592 -21.0934,13.8066 -34.5164,19.1758 -15.3406,24.9285 -27.6131,31.8318 -22.2439,27.9966 -17.6417,30.2977 -13.4231,23.3945 -3.0681,30.2977 3.8352,31.0648 6.1362,16.4911 10.7384,23.3945 40.2692,28.3801 34.8999,23.3945 67.4987,33.7493 34.1329,24.545 473.2582,245.8335 27.2296,14.1901 31.0648,23.0109 24.545,18.0252 32.5988,29.5307 51.3911,48.323 507.0075,488.2153 281.1169,271.1455 23.3944,18.7922 37.9681,22.2439 22.6274,9.9714 39.5021,11.889 34.1329,4.2187 41.4197,-0.767 43.7207,-8.0539 41.8032,-10.3549 117.7393,-35.2834"
     id="path817" />
  <image
     xlink:href="../timelines/streetmap/drsosm.png"
     y="-269.66675"
     x="-585"
     id="image10"
     preserveAspectRatio="none"
     height="3394.6667"
     width="3819"
     style="display:none" />
  <path
     style="opacity:1;fill:none;fill-opacity:0.52549;fill-rule:nonzero;stroke:#f06403;stroke-width:5;stroke-linecap:butt;stroke-linejoin:round;stroke-miterlimit:4;stroke-dasharray:none;stroke-opacity:1"
     d="m 664.5,994.25 11,-1.5 44,23.875 9,1.875 29.375,-2.75 4,0.75 2.375,2.75 6.25,65.875 2.125,3.625 2.25,1.125 18.75,-2.875 54.125,-17.75 13.375,-4 74.25,-11.75 8.25,19.625 4.875,5.875 43,30 20,15.875 31.875,38 35.375,31.75 15.625,28.25 19.125,30.125 28.625,36.25 9.875,15.125 15.7039,53.6206 4.6017,10.8804 7.8523,9.4708 13.3486,10.9114 13.4941,4.5623 11.2759,0.7133 18.7475,-0.01"
     id="path863" />
  <path
     style="opacity:1;fill:none;fill-opacity:0.52549;fill-rule:nonzero;stroke:#f06403;stroke-width:5;stroke-linecap:butt;stroke-linejoin:round;stroke-miterlimit:4;stroke-dasharray:none;stroke-opacity:1"
     d="m 1751.017,2289.3671 -19.816,-16.1514 -1.3572,-5.0218 1.9001,-6.2434 9.3651,-20.766 0.4072,-9.3651 -1.0858,-20.2231 3.2574,-8.0078 51.7114,-59.7193 -19.4087,-15.2013 -12.3511,-11.8081 -8.1435,-12.4868 -7.1935,-13.0297 v -4.7503 l -2.5787,-2.8503 -22.5305,-4.0718 -11.9439,-4.7504 -19.273,-0.1357 -16.4228,-4.4789 -17.5086,-10.0437 -9.3651,-7.7364 -20.2231,-26.4665 -158.3918,-133.8254 -5.7005,5.1575 -21.7161,26.6023 -11.4009,8.6864 -3.8004,-0.4072 -33.117,-33.9314 -26.3308,-53.6116 -2.0359,-6.6506 20.6303,-42.0749 11.6724,-21.8518 -1.3572,-3.3932 -104.5088,-66.3698 -11.1295,-3.3932 -17.3729,-1.2215 -18.3229,-13.4368 -12.8939,8.9579 -6.3792,7.1934 h -4.3432 l -55.376,-29.4524 -22.259,-12.4868 -10.4509,-3.3931 -8.9579,-5.1576 23.752,-36.2388 35.4244,-44.518 16.1513,-19.0016 6.3791,-8.5507 15.337,-29.181 12.6225,-10.9938 14.6584,-32.1669 1.3572,-12.6225 -2.0359,-16.2871 -11.5366,-47.9111"
     id="path819" />
  <path
     id="path840"
     d="m 1795.3992,2143.8692 16.4758,-17.1192 5,-16.375 3,-7.625 4.125,-2.125 10.875,2.75 3.5,-1.375 25,-28.875 5.875,-8.5 46.625,-37.875 -15.25,-22.25 -8.75,-23.875 -3.125,-4.375 -12.375,-7.75 -2.75,-5.75 -1.625,-23.125 -4,-6.5 -18.375,-15.125 -15,-11.875 -18.5,-21.5 -20.25,-10.75 -20.5,-12.875 -21.25,-10.125 -51.75,-14.875 -10.75,-5.125 -40.5,-23 -19.5,-6 -13.875,-7 -15.875,-13.625 -9.25,-11.625 -0.125,-4.25 1.75,-4.75 8.875,-14.125 -0.25,-4.25 -3.25,-3.625 -50.25,-32 -200.375,-126.75 -21.5,-11.25 -20.125,-8.25 -63.875,-35.5 -17,-7.25 -113.625,-25 h -8.375 l -29.375,1.5625 -1.375,-19 -42.5,-19.4375 -2.25,-3.625 -0.25,-8.5 -4.5,-9.5 -15.375,-16.875 -19.375,18 -98.25,-52.25 -109,-23 -27.5,-12 -25.25,-10.5 -25.5,-5.5 -7.75,-3.75 -29,-5.75 -6.25,-3.75 h -8.75 l -15,7.5 -23.5,-1 -26,12 -23,5.5 -53,16 -2.75,2.5 0.75,7.5"
     style="opacity:1;fill:none;fill-opacity:0.5254902;fill-rule:nonzero;stroke:#f06403;stroke-width:5;stroke-linecap:butt;stroke-linejoin:round;stroke-miterlimit:4;stroke-dasharray:none;stroke-opacity:1" />
  <path
     style="opacity:1;fill:none;fill-opacity:0.5254902;fill-rule:nonzero;stroke:#f2f2f2;stroke-width:8;stroke-linecap:butt;stroke-linejoin:round;stroke-miterlimit:4;stroke-dasharray:none;stroke-opacity:1"
     d="m 1905.7258,1439.9175 9.2133,-11.9006 2.6873,-14.2039 6.91,-7.6778 11.5167,-9.9812 4.2228,-7.6778 1.9194,-13.0522"
     id="path1451" />
  <path
     style="opacity:1;fill:none;fill-opacity:0.5254902;fill-rule:nonzero;stroke:#f2f2f2;stroke-width:8;stroke-linecap:butt;stroke-linejoin:round;stroke-miterlimit:4;stroke-dasharray:none;stroke-opacity:1"
     d="m 1919.1619,1452.5859 8.4456,-5.3745 23.8012,-7.2939"
     id="path1453" />
  <path
     style="opacity:1;fill:none;fill-opacity:0.5254902;fill-rule:nonzero;stroke:#f06403;stroke-width:5;stroke-linecap:butt;stroke-linejoin:round;stroke-miterlimit:4;stroke-dasharray:none;stroke-opacity:1"
     d="m 1915.875,2026.75 22.1719,26.183 16.2871,11.1295 36.103,14.1155 39.6319,24.702 21.7161,15.2013 7.3291,4.0718 149.5697,33.117 75.4634,-9.7722 8.1436,2.9859"
     id="path4385" />
  <path
     style="opacity:1;fill:none;fill-opacity:0.5254902;fill-rule:nonzero;stroke:#f06403;stroke-width:5;stroke-linecap:butt;stroke-linejoin:round;stroke-miterlimit:4;stroke-dasharray:none;stroke-opacity:1"
     d="m 2059.1141,2122.1531 -56.2639,101.8603 57.1996,52.9768 -0.192,4.7986 -7.8697,3.455 -4.0308,-0.9597 -6.3342,-7.102 -0.3839,-3.8389 5.3744,-6.1422 -0.9597,-3.8389"
     id="path4387" />
  <path
     style="opacity:1;fill:none;fill-opacity:0.5254902;fill-rule:nonzero;stroke:#f06403;stroke-width:5;stroke-linecap:butt;stroke-linejoin:round;stroke-miterlimit:4;stroke-dasharray:none;stroke-opacity:1"
     d="m 1990.437,2078.178 7.2307,-15.0146 29.7514,-40.3084 22.4576,-13.0523 7.102,-5.9503 11.1328,-19.5784 13.82,-32.2467 5.7584,-28.024 32.0548,-28.7918 1.7275,-4.9905 -5.7584,-13.6281 -27.64,-37.8132 -23.9932,-31.479 -1.7275,-8.8294 -12.2845,-12.2845 -16.6992,-7.8698 -15.9314,-13.82 -6.91,-3.2631 -29.9435,-8.4456 -131.6742,-57.5835 -33.0146,-26.4884 -88.8705,-48.946 -43.3796,-7.2939 -86.3753,-4.2228 -72.7472,-29.7515 -25.7206,-15.7395 -8.2536,-0.9597 -21.3059,-0.7678 -30.5193,-8.4455 -78.3136,10.365 -3.455,2.3033 -7.9551,14.617"
     id="path4389" />
  <path
     style="opacity:1;fill:none;fill-opacity:0.5254902;fill-rule:nonzero;stroke:#f06403;stroke-width:5;stroke-linecap:butt;stroke-linejoin:round;stroke-miterlimit:4;stroke-dasharray:none;stroke-opacity:1"
     d="m 75.89115,1650.6422 51.8472,-8.6864 8.95789,3.2574 4.88612,5.429 3.25742,19.0016 2.98596,6.7863 5.97193,4.3432 7.60063,2.4431 18.45869,-0.2715 81.16393,-19.8159 17.37288,-5.1576 9.5008,-5.1576 8.68644,-17.9157 14.65837,-37.1889 8.14353,-17.1014 11.12951,-13.5726 15.47272,-16.0156 13.84401,-11.6724 4.88613,-2.7145"
     id="path4391" />
  <path
     style="opacity:1;fill:none;fill-opacity:0.5254902;fill-rule:nonzero;stroke:#f06403;stroke-width:1;stroke-linecap:butt;stroke-linejoin:round;stroke-miterlimit:4;stroke-dasharray:none;stroke-opacity:1"
     d="m 364.71531,1536.6327 10.04369,-4.6147 22.25901,-8.0078 13.43683,-1.7644 9.5008,1.6287 6.10765,3.2574 6.92201,5.8362 4.34322,9.0936 9.36508,38.4104 6.1076,8.2792 7.1935,5.0219 8.6864,2.986 12.4868,-1.2216 113.1952,-17.78"
     id="path4393" />
  <path
     style="opacity:1;fill:none;fill-opacity:0.5254902;fill-rule:nonzero;stroke:#f06403;stroke-width:5;stroke-linecap:butt;stroke-linejoin:round;stroke-miterlimit:4;stroke-dasharray:none;stroke-opacity:1"
     d="m 594.3631,1577.7576 4.7504,-6.3791 0.8143,-13.5726 4.8862,-15.0655 19.273,-41.5321 4.8861,-16.9657 4.7504,-1.7644 18.8659,13.1654 11.4009,12.4867 6.922,9.6365 3.9361,1.493 53.0687,3.9361 35.4244,-1.0858 93.515,-38.6818 h 10.9937 l 40.8535,17.2371 8.2792,6.5148 15.4727,-17.3728 11.9439,-8.9579 L 989.5,1435.25"
     id="path4395" />
  <path
     style="opacity:1;fill:none;fill-opacity:0.5254902;fill-rule:nonzero;stroke:#f06403;stroke-width:5;stroke-linecap:butt;stroke-linejoin:round;stroke-miterlimit:4;stroke-dasharray:none;stroke-opacity:1"
     d="m 1843.8533,1691.3599 60.2622,-83.607 -0.8144,-8.6864 -11.4009,-15.7442 -11.1295,-21.4446 -22.5305,-28.5024 -8.415,-25.7879 -20.0874,-28.7738 -5.9719,-4.3432 -30.4025,-1.3573 -103.9659,-23.8877 -50.4899,-2.1716 -159.6134,26.3308 -5.7004,-1.0859 -17.6444,-7.0577 -38.8175,-6.2434 -27.1451,0.8144 -34.2029,-13.3011 -48.8612,-70.8488 -11.6724,-67.0485 -45.8753,-11.1295 -35.8316,-13.844 -25.5164,-3.5289 -23.3448,13.0297 -34.4743,35.0172 -42.0749,19.816 -9.2294,9.7722 -6.2434,8.9579 -4.8861,8.9579 -48.0469,54.8332"
     id="path4397" />
  <path
     style="opacity:1;fill:none;fill-opacity:0.5254902;fill-rule:nonzero;stroke:#f06403;stroke-width:5;stroke-linecap:butt;stroke-linejoin:round;stroke-miterlimit:4;stroke-dasharray:none;stroke-opacity:1"
     d="m 916.9829,1507.1802 -65.284,73.9705 -16.5585,24.1592 -30.1311,-2.1716 -65.6912,10.5866 -39.9034,8.9579 -94.8722,1.7644 -2.4431,-2.3073 -1.9001,-14.2512 4.0718,-3.9361 27.9594,13.7083 5.0219,5.9719"
     id="path4399" />
  <path
     style="opacity:1;fill:none;fill-opacity:0.5254902;fill-rule:nonzero;stroke:#f06403;stroke-width:5;stroke-linecap:butt;stroke-linejoin:round;stroke-miterlimit:4;stroke-dasharray:none;stroke-opacity:1"
     d="m 594.3631,1577.7576 4.3432,4.3432 1.493,25.7879"
     id="path4401" />
  <path
     style="opacity:1;fill:none;fill-opacity:0.5254902;fill-rule:nonzero;stroke:#f06403;stroke-width:5;stroke-linecap:butt;stroke-linejoin:round;stroke-miterlimit:4;stroke-dasharray:none;stroke-opacity:1"
     d="m 835.1404,1605.3099 11.4009,4.8861 16.0156,-14.1155 37.7318,-14.1154 42.0749,-43.1608 30.9455,-15.4727 80.8924,-25.245 20.9235,-3.8991"
     id="path4403" />
  <path
     style="opacity:1;fill:none;fill-opacity:0.5254902;fill-rule:nonzero;stroke:#f06403;stroke-width:5;stroke-linecap:butt;stroke-linejoin:round;stroke-miterlimit:4;stroke-dasharray:none;stroke-opacity:1"
     d="m 937.7489,1157.9582 0.2715,6.5148 -2.1716,9.2294 -3.8003,47.2325 2.443,1.9001 17.1015,3.5289 3.8003,4.3432 -10.5866,88.2217 -10.5866,14.1154 0.5429,4.8862 98.8082,50.7614 13.3012,11.4009"
     id="path4405" />
  <path
     style="opacity:1;fill:none;fill-opacity:0.5254902;fill-rule:nonzero;stroke:#f06403;stroke-width:5;stroke-linecap:butt;stroke-linejoin:round;stroke-miterlimit:4;stroke-dasharray:none;stroke-opacity:1"
     d="m 1019.7272,1430.4953 -10.5866,13.0296 -14.3869,30.1311 -6.7863,15.2013 -1.0858,20.9017 22.8019,74.6491 5.7005,6.5149 40.4462,23.6162 32.5742,18.4587 36.5102,19.0016"
     id="path4407" />
  <path
     style="opacity:1;fill:none;fill-opacity:0.5254902;fill-rule:nonzero;stroke:#f06403;stroke-width:5;stroke-linecap:butt;stroke-linejoin:round;stroke-miterlimit:4;stroke-dasharray:none;stroke-opacity:1"
     d="m 1124.9146,1651.9995 -6.922,13.5726 -30.4026,95.8223 -7.3291,11.4009 -24.4307,13.3011 -29.5881,-20.6303 -4.423,-8.455 -9.0214,-5.3744 h -3.8389 l -1.7275,2.6872 1.3436,3.455 8.2536,5.9503 9.4136,1.7369"
     id="path4409" />
  <path
     style="opacity:1;fill:none;fill-opacity:0.5254902;fill-rule:nonzero;stroke:#f06403;stroke-width:5;stroke-linecap:butt;stroke-linejoin:round;stroke-miterlimit:4;stroke-dasharray:none;stroke-opacity:1"
     d="m 1055.8302,1786.0964 -100.616,55.5625 -6.1423,10.557 -3.263,17.275 1.9194,16.5073 4.6067,10.9409 8.0617,10.173 6.1422,4.9906 19.3865,9.9812 5.3744,5.1825 1.1517,5.7583 -0.9597,4.4148 -3.455,3.6469 -5.1825,2.1114 -7.4859,-1.9194 -14.9717,-6.3342 -17.659,-3.2631 -12.2844,-0.3839 -12.6684,1.9195 -24.7609,10.365 -23.2254,12.6684 -4.0308,3.263 -7.2939,13.6281 -1.5356,7.102 -63.3419,51.2493 -14.9717,-0.1919 -1.1516,-1.9195 0.5758,-4.2228 3.647,-2.1114 23.9931,-0.9597"
     id="path4411" />
  <path
     style="opacity:1;fill:none;fill-opacity:0.5254902;fill-rule:nonzero;stroke:#f06403;stroke-width:5;stroke-linecap:butt;stroke-linejoin:round;stroke-miterlimit:4;stroke-dasharray:none;stroke-opacity:1"
     d="m 613.75,1325.25 9.7832,18.3115 5.3744,13.8201 14.9717,16.8911 4.2228,1.1517 15.3556,20.7301 35.3179,28.0239 10.365,48.7541 11.1328,64.1096 18.0429,76.778"
     id="path4413" />
  <path
     style="opacity:1;fill:none;fill-opacity:0.5254902;fill-rule:nonzero;stroke:#f06403;stroke-width:5;stroke-linecap:butt;stroke-linejoin:round;stroke-miterlimit:4;stroke-dasharray:none;stroke-opacity:1"
     d="m 1057.7128,1386.1733 59.8869,108.257 13.82,57.1996 9.2134,-1.5355 47.6023,2.3033 3.8389,8.4456"
     id="path4415" />
  <path
     style="opacity:1;fill:none;fill-opacity:0.5254902;fill-rule:nonzero;stroke:#f06403;stroke-width:5;stroke-linecap:butt;stroke-linejoin:round;stroke-miterlimit:4;stroke-dasharray:none;stroke-opacity:1"
     d="m 1188.2354,1552.3977 12.0069,-0.1566"
     id="path4417" />
  <path
     style="opacity:1;fill:none;fill-opacity:0.5254902;fill-rule:nonzero;stroke:#f06403;stroke-width:5;stroke-linecap:butt;stroke-linejoin:round;stroke-miterlimit:4;stroke-dasharray:none;stroke-opacity:1"
     d="m 1263.8976,1699.7749 6.1064,9.25 1.1517,13.4361 -1.1517,36.0857 -33.9301,81.84 -18.1872,71.3917 -4.0718,4.0717 -14.1155,-3.5288 -4.3432,2.1716 -8.9579,38.2746 5.1576,20.3588 2.9859,3.2574 12.7583,-0.2714 2.9859,-3.8003 -1.9001,-7.6006 -19.816,-5.4291"
     id="path4419" />
  <path
     style="opacity:1;fill:none;fill-opacity:0.5254902;fill-rule:nonzero;stroke:#f06403;stroke-width:5;stroke-linecap:butt;stroke-linejoin:round;stroke-miterlimit:4;stroke-dasharray:none;stroke-opacity:1"
     d="m 1245.5747,1686.3381 10.5866,-10.7223 68.6772,-108.0377 8.6864,-20.0873 12.7582,-35.8316 11.6724,-54.8332 -2.1716,-10.3151"
     id="path4421" />
  <path
     style="opacity:1;fill:none;fill-opacity:0.5254902;fill-rule:nonzero;stroke:#f06403;stroke-width:5;stroke-linecap:butt;stroke-linejoin:round;stroke-miterlimit:4;stroke-dasharray:none;stroke-opacity:1"
     d="m 1484.5986,1561.2272 62.1902,-99.4275"
     id="path4423" />
  <path
     style="opacity:1;fill:none;fill-opacity:0.52549;fill-rule:nonzero;stroke:#f06403;stroke-width:5;stroke-linecap:butt;stroke-linejoin:round;stroke-miterlimit:4;stroke-dasharray:none;stroke-opacity:1"
     d="m 959.465,1086.0236 7.6007,-1.0858 13.0296,1.3572 39.089,1.9002 58.3621,14.9298 25.7878,-14.9298 6.6567,-3.144 -1.8589,-15.7458 -16.3399,-49.0568 -38.9707,-61.59992 -29.1026,-53.12301 -13.7151,-29.20035 -12.3375,-19.80691 -12.09735,-25.41528 -5.41576,-26.88845"
     id="path4425" />
  <path
     style="opacity:1;fill:none;fill-opacity:0.52549;fill-rule:nonzero;stroke:#f06403;stroke-width:5;stroke-linecap:butt;stroke-linejoin:round;stroke-miterlimit:4;stroke-dasharray:none;stroke-opacity:1"
     d="m 1295.2503,1308.6136 24.1591,1.9002 73.4395,-19.1613 56.0479,-26.1046 82.9203,-25.7206 14.2039,0.3839"
     id="path4427" />
  <path
     style="opacity:1;fill:none;fill-opacity:0.5254902;fill-rule:nonzero;stroke:#f06403;stroke-width:5;stroke-linecap:butt;stroke-linejoin:round;stroke-miterlimit:4;stroke-dasharray:none;stroke-opacity:1"
     d="m 1181.7093,489.40611 8.4456,-11.13282 22.6495,1.91945 32.2468,23.4173 14.2039,12.28448 14.5878,23.03341 7.6778,5.37446 56.4319,9.59725 15.3556,-0.76778 22.6495,-5.37446 14.5878,6.14224 11.1328,9.98114 6.91,12.28448 -0.7677,4.99057 -6.1423,8.82948 v 5.75835 l 57.1996,78.69746 13.0523,23.80118 -42.6118,155.4755 -17.275,30.7112 -1.1517,13.0523 0.7678,22.2656 -3.455,17.275 -5.7584,14.5879 -5.7583,16.1233 -39.5407,89.4464 -3.8389,13.8201 -19.9623,24.185 -77.5458,133.9777 -6.91,19.9623 -3.0711,50.6734 -9.5973,19.5784 2.3033,61.4225 -1.501,13.7291"
     id="path4429" />
  <path
     style="opacity:1;fill:none;fill-opacity:0.5254902;fill-rule:nonzero;stroke:#f06403;stroke-width:5;stroke-linecap:butt;stroke-linejoin:round;stroke-miterlimit:4;stroke-dasharray:none;stroke-opacity:1"
     d="m 1471.9302,698.2423 15.7395,-54.89628 11.1328,-21.49784 15.3556,-37.23734 11.1328,-9.21336 101.7309,-71.78744 21.4978,-31.0951 13.0523,-23.0334 11.5167,-36.08567 11.1328,-75.62634 3.0711,-13.82004 9.9812,-27.2562 5.7583,-21.88173 14.9717,-66.41298 13.4362,-24.18508 11.9006,-25.33674 2.3033,-11.51671 13.0523,-23.41729 13.0522,-12.28448 16.1234,-18.42673 12.2845,-37.23733"
     id="path4431" />
  <path
     style="opacity:1;fill:none;fill-opacity:0.5254902;fill-rule:nonzero;stroke:#f06403;stroke-width:5;stroke-linecap:butt;stroke-linejoin:round;stroke-miterlimit:4;stroke-dasharray:none;stroke-opacity:1"
     d="m 62.86149,574.60939 20.6303,21.44465 35.83157,17.91578 59.17637,13.02966 39.08899,11.12951 31.21689,0.27145 33.38851,5.15757 24.97352,0.81436 20.08739,8.14353 45.87527,4.34322 31.21689,-11.40095 15.20127,1.08581 18.73014,10.85805 67.5914,24.43061 39.0889,-2.17161 62.9767,22.25901 33.1171,16.01562 91.2076,70.03444 85.2357,97.9939 5.972,12.4868 22.259,70.8487 23.6162,10.5866 15.4727,0.8144 23.3449,21.1732 11.4009,17.9158 15.8133,33.7105"
     id="path4433" />
  <path
     style="fill:none;stroke:#f06403;stroke-width:5;stroke-linejoin:round;stroke-opacity:1"
     d="m 2121.4722,1890.221 3.8423,9.8651 4.5967,8.9903 -7.8062,8.9491 6.1029,8.9848 3.5318,0.3948 2.8341,-2.8995 1.0725,-5.6321 -5.7519,-10.1749"
     id="path865" />
</svg>
