<?xml version="1.0" encoding="UTF-8" standalone="no"?>
<svg
   version="1.1"
   id="svg2"
   width="3150"
   height="3275"
   viewBox="0 350 3150 3275"
   xmlns:xlink="http://www.w3.org/1999/xlink"
   xmlns="http://www.w3.org/2000/svg"
   xmlns:svg="http://www.w3.org/2000/svg"
   xmlns:rdf="http://www.w3.org/1999/02/22-rdf-syntax-ns#"
   xmlns:cc="http://creativecommons.org/ns#"
   xmlns:dc="http://purl.org/dc/elements/1.1/">
  <metadata
     id="metadata8">
    <rdf:RDF>
      <cc:Work
         rdf:about="">
        <dc:format>image/svg+xml</dc:format>
        <dc:type
           rdf:resource="http://purl.org/dc/dcmitype/StillImage" />
      </cc:Work>
    </rdf:RDF>
  </metadata>
  <defs
     id="defs6" />
  <image
     xlink:href="../timelines/basemap/fkbosm.png"
     y="-94.08"
     x="20"
     id="image10"
     preserveAspectRatio="none"
     height="3764.08"
     width="5314"
     style="display:none" />
  <path
     style="opacity:1;fill:none;fill-opacity:1;fill-rule:nonzero;stroke:#43ad6e;stroke-width:1;stroke-linecap:butt;stroke-linejoin:round;stroke-miterlimit:4;stroke-dasharray:none;stroke-opacity:1"
     d="m 1751.36,681.7 2.29,22.12 3.11,57.44 -1.75,35.5 -7,25.75 -19,39 -11.5,18.75 -24.25,30.75 -14.25,12 -13,18.5 -11.75,25.5 -16.75,41.75 -17.25,54.5 -0.25,8 4.75,12.25 8.75,5.75 19.25,4.75 8.5,7.25 4,6.75 2.25,13.25 -4.5,17.25 -14,50.75 -62.75,228.5 -5.25,30.25 -14.5,82.25 -16.5,65.25 -6.5,42.5 -5.75,16.5 -12.75,11.5 -102.5,89.25 -52.5,44.25 -5.75,7.5 -0.25,7.75 3,6.25 36.5,24 3.5,7.25 0.25,11.75 -6.5,87.5 -10.5,158.75 -3.77,134.85"
     id="path836" />
  <path
     style="opacity:1;fill:none;fill-opacity:1;fill-rule:nonzero;stroke:#43ad6e;stroke-width:5;stroke-linecap:butt;stroke-linejoin:round;stroke-miterlimit:4;stroke-dasharray:none;stroke-opacity:1"
     d="m 1751.36,681.7 -10.11,-23.44 -20.75,-28.75 -7,-11 0.75,-8.25 6.5,-44.25 14,-24.5 12.75,-10.25 15,-7.25 9.25,-5.5 7.5,-8.75 18.75,-29.75 10.75,-12.75 15.75,-11.5 1,-5 -7.5,-9.5 -12.5,-10 -14,-3.25"
     id="path838" />
  <path
     style="opacity:1;fill:none;fill-opacity:1;fill-rule:nonzero;stroke:#43ad6e;stroke-width:5;stroke-linecap:butt;stroke-linejoin:round;stroke-miterlimit:4;stroke-dasharray:none;stroke-opacity:1"
     d="m 1671.54,2491.21 7.02,24.32 3.18,29.18 -0.58,8.26 -27.61,11.71 -11.61,0.86 -17.43,6.06 -28.31,-2.73 -0.82,13.24 3.12,12.38 15.25,25.25 40.5,30 8,8.5 6.25,12 2.75,15.75 1.25,83.5 4.5,15 21.25,38.25 3.25,17 -1,18.75 -3.75,16.25 -20.75,39.25 -1.5,9.25 7.56,76.88"
     id="path840" />
  <path
     id="path867"
     d="m 1682.06,3000.13 5.44,55.37 -0.25,16.25 -6.5,27.25 -22.5,78.25 -10.25,15.5 -19.75,21.75 -5.75,14.25 -1,16.25 0.25,65.75 2.5,19.75 6,17 4.25,6.5 24.5,19.25 21.75,17.25 11.5,13.75 31.75,16.5 53.75,26.5 35.25,8 28,20.75 11.25,11 11.75,5.75 21.5,1.25 27,-7.5 24,2 14.75,-2.5 15,-8.25 9,-7.5 11.25,-2.5 h 14.5 l 46,9.5 33.5,19.75 12.5,12.25 24.25,22 22,27.75 6.5,10"
     style="opacity:1;fill:none;fill-opacity:1;fill-rule:nonzero;stroke:#43ad6e;stroke-width:1;stroke-linecap:butt;stroke-linejoin:round;stroke-miterlimit:4;stroke-dasharray:none;stroke-opacity:1" />
  <path
     style="fill:none;stroke:#ed1c24;stroke-width:5;stroke-linecap:butt;stroke-linejoin:round;stroke-miterlimit:4;stroke-dasharray:none;stroke-opacity:1"
     d="m 1874.21,2364.24 216.64,62.32 131.29,33.7 64.79,18.18 8.6,4.62 31.68,8.6 h 27.38 l 22.76,2.39 13.69,-2.55 5.73,-3.5 8.28,10.66 9.39,7.32 16.24,-20.85 -18.15,-11.46 -15.76,14.33"
     id="path909" />
  <path
     style="opacity:1;fill:none;fill-opacity:1;fill-rule:nonzero;stroke:#43ad6e;stroke-width:1;stroke-linecap:butt;stroke-linejoin:round;stroke-miterlimit:4;stroke-dasharray:none;stroke-opacity:1"
     d="m 2172,2069.25 4.88,-4.75 14.62,-80.62 18.12,-110.38 5.88,-9.75 6.12,-4.75 14.88,-8.25 7.12,-7.12 3.88,-11.25 1.25,-39.75"
     id="path911" />
  <path
     style="opacity:1;fill:none;fill-opacity:1;fill-rule:nonzero;stroke:#43ad6e;stroke-width:5;stroke-linecap:butt;stroke-linejoin:round;stroke-miterlimit:4;stroke-dasharray:none;stroke-opacity:1"
     d="m 2248.75,1792.63 2.38,-46.62 -3,-40.25 2.25,-13.62 5.5,-10.12 24.62,-33.38 26.38,-42.62 14.12,-29.62 11.75,-18.38 6.62,-16.88 13.62,-49.38 2.88,-15 15.12,-36.38 6.38,-9.38 7.88,-5.38"
     id="path913" />
  <path
     style="opacity:1;fill:none;fill-opacity:1;fill-rule:nonzero;stroke:#43ad6e;stroke-width:1;stroke-linecap:butt;stroke-linejoin:round;stroke-miterlimit:4;stroke-dasharray:none;stroke-opacity:1"
     d="m 2385.25,1425.63 5.12,-5.12 1.12,-13.38 4.38,-12.88 0.5,-6.38 -4,-7.12 -15,-9.25 -46.75,-17.25 -16.62,0.62 -4.5,-2.25 -1.25,-3.88 6,-29.5 14.5,-81.25 32.5,-180.88 32.75,-183.75 24.5,-135.88 2.75,-6.12 11,-13 6.2,-2.34 13.93,0.46"
     id="path915" />
  <path
     style="opacity:1;fill:none;fill-opacity:1;fill-rule:nonzero;stroke:#43ad6e;stroke-width:5;stroke-linecap:butt;stroke-linejoin:round;stroke-miterlimit:4;stroke-dasharray:none;stroke-opacity:1"
     d="m 2452.38,716.5 13.75,2.62 45.38,18.75 40.88,24.5 18.25,7.25 14,2.75 17.38,-0.25 59.38,-8.38 16.12,-5.75 13.5,-9.38"
     id="path917" />
  <path
     style="opacity:1;fill:none;fill-opacity:1;fill-rule:nonzero;stroke:#43ad6e;stroke-width:1;stroke-linecap:butt;stroke-linejoin:round;stroke-miterlimit:4;stroke-dasharray:none;stroke-opacity:1"
     d="m 931.5,1930.5 -16.25,4.75 -22.5,-2.5 -14,4 -16,12.5 -18,4.5 -235.75,-45.75 -72,-29.25 -74.25,-30.25 -50.5,-32.25 -139.5,-92.62 -5.67,-2.89 -17.08,0.02"
     id="path983" />
  <path
     style="opacity:1;fill:none;fill-opacity:1;fill-rule:nonzero;stroke:#43ad6e;stroke-width:5;stroke-linecap:butt;stroke-linejoin:round;stroke-miterlimit:4;stroke-dasharray:none;stroke-opacity:1"
     d="m 250,1720.75 -5.12,-0.12 -23.25,-9.12 -16.75,-7.5 -12.62,-2.75 -66.88,-4.75 -2.38,-1.75 -2.5,-2.12 -0.38,-4.38 3.12,-30.5 1.12,-2.12"
     id="path985" />
  <path
     style="opacity:1;fill:none;fill-opacity:1;fill-rule:nonzero;stroke:#43ad6e;stroke-width:1;stroke-linecap:butt;stroke-linejoin:round;stroke-miterlimit:4;stroke-dasharray:none;stroke-opacity:1"
     d="m 124.38,1655.63 11.75,-18.5 0.25,-4.62 -4.12,-6.38 -75.12,-49.38"
     id="path987" />
  <path
     style="opacity:1;fill:none;fill-opacity:1;fill-rule:nonzero;stroke:#43ad6e;stroke-width:1;stroke-linecap:butt;stroke-linejoin:round;stroke-miterlimit:4;stroke-dasharray:none;stroke-opacity:1"
     d="m 2354.5,2377.25 6,-6.25 9.5,-3.75 21.25,-0.5 29.5,-9 31.25,-5.5 27.5,-0.25 32.5,7.75 36,15.5 46.25,22.5 26.75,6.75 h 26.5 l 204.25,-23.25 32,-3.25 27.5,1.25 32.25,11 21,10 21,17 18.75,21 15,27.25 9.25,26.25 9.75,46.75 17,82.75 10.25,22.75 16.75,24.75"
     id="path1024" />
  <path
     style="opacity:1;fill:none;fill-opacity:1;fill-rule:nonzero;stroke:#f2f2f2;stroke-width:8;stroke-linecap:butt;stroke-linejoin:round;stroke-miterlimit:4;stroke-dasharray:none;stroke-opacity:1"
     d="m 2455,2503.75 37.75,18"
     id="path1028" />
  <path
     style="opacity:1;fill:none;fill-opacity:1;fill-rule:nonzero;stroke:#ed1c24;stroke-width:5;stroke-linecap:butt;stroke-linejoin:round;stroke-miterlimit:4;stroke-dasharray:none;stroke-opacity:1"
     d="m 1318.6,2753.38 -10.13,-1.58 -53.35,-33.99 v -52.9 l 4.95,-10.35 9.45,-8.55 20.48,-16.43 16.66,-22.29 11.48,-10.35"
     id="path843" />
  <path
     id="path832"
     d="m 1318.15,2596.93 14.86,-18.68 9,-11.48 13.06,-10.13 17.78,-13.51 11.48,-12.83 10.58,-16.66 2.48,-24.31 3.15,-7.65 6.98,-13.96 1.58,-9.68 2.93,-39.39 -0.23,-22.06"
     style="opacity:1;fill:none;fill-opacity:1;fill-rule:nonzero;stroke:#ed1c24;stroke-width:1;stroke-linecap:butt;stroke-linejoin:round;stroke-miterlimit:4;stroke-dasharray:none;stroke-opacity:1" />
  <path
     style="opacity:1;fill:none;fill-opacity:1;fill-rule:nonzero;stroke:#ed1c24;stroke-width:5;stroke-linecap:butt;stroke-linejoin:round;stroke-miterlimit:4;stroke-dasharray:none;stroke-opacity:1"
     d="m 1411.79,2396.59 0.68,-6.3 14.63,-31.51 4.75,-46.04 53.5,2.44 46.42,7.87 54.02,1.4 -8.31,117.27 -19.7,-3.71 -18.01,-4.28 -10.24,-5.63 -19.81,-14.07 -11.26,0.23 -5.29,84.64 -2.7,12.83 -3.6,9.79 -9.34,14.63 -6.75,9.23 1.24,4.61 6.64,1.8 94.66,9.79 50.65,5.06 18.23,-6.19 11.14,-0.11 23.3,-9.68 0.23,-9.12 28.7,0.11 21.95,-2.81 6.75,-0.68 6.42,-14.41 -2.45,-134.5 -3.01,-27.23 0.63,-27.65 61.91,3.46 18.6,0.38"
     id="path834" />
  <path
     id="path839"
     d="m 1431.84,2312.73 -53.71,-3.71 3.26,-61.79 -15.31,-0.23 -11.71,-5.74 -22.62,-15.98 -25.55,-16.21 -19.58,-23.86 -12.16,-11.26 -115.7,-93.42 -16.66,-14.86 -19.13,-19.36 -25.44,-20.93 -20.26,-16.4 21.27,-27.98 20.6,-23.74 20.35,-21.31 -33.44,-38.65"
     style="opacity:1;fill:none;fill-opacity:1;fill-rule:nonzero;stroke:#ed1c24;stroke-width:5;stroke-linecap:butt;stroke-linejoin:round;stroke-miterlimit:4;stroke-dasharray:none;stroke-opacity:1" />
  <path
     style="opacity:1;fill:none;fill-opacity:1;fill-rule:nonzero;stroke:#43ad6e;stroke-width:5;stroke-linecap:butt;stroke-linejoin:round;stroke-miterlimit:4;stroke-dasharray:none;stroke-opacity:1"
     d="m 1386.48,2245.1 -3.69,69.62"
     id="path841" />
  <path
     id="path934"
     d="m 2286.93,2478.43 -19.28,32.73 -8.33,10.13 -11.26,26.11 -7.43,10.8 -9.9,9.9 -11.26,6.3 -10.8,11.03 -7.43,3.38 -11.93,1.35 -18.23,11.71 -4.28,3.38 -2.48,6.53 -0.9,10.13 -3.38,20.26 2.03,28.59 4.28,8.33 6.75,6.98 22.51,9.45 13.28,10.58 22.96,26.34 7.2,12.16 13.73,8.33 1.13,3.15 -1.13,5.4 -11.48,15.08 -15.31,27.01"
     style="opacity:1;fill:none;fill-opacity:1;fill-rule:nonzero;stroke:#ed1c24;stroke-width:5;stroke-linecap:butt;stroke-linejoin:round;stroke-miterlimit:4;stroke-dasharray:none;stroke-opacity:1" />
  <path
     id="path936"
     d="m 1515.11,1917.79 -33.09,242.89 -1.58,29.04 2.7,23.64 10.13,63.93 -2.03,6.98 -8.33,8.78 -2.93,7.43 -0.45,14.86"
     style="opacity:1;fill:none;fill-opacity:1;fill-rule:nonzero;stroke:#ed1c24;stroke-width:5;stroke-linecap:butt;stroke-linejoin:round;stroke-miterlimit:4;stroke-dasharray:none;stroke-opacity:1" />
  <path
     id="path938"
     d="m 1577.47,2441.72 -8.26,119.64"
     style="opacity:1;fill:none;fill-opacity:1;fill-rule:nonzero;stroke:#ed1c24;stroke-width:5;stroke-linecap:butt;stroke-linejoin:round;stroke-miterlimit:4;stroke-dasharray:none;stroke-opacity:1" />
  <path
     id="path940"
     d="m 2108.72,1786.55 -7.2,20.71 2.03,4.28 46.6,20.26 4.5,6.3 0.45,5.4 -4.73,6.98 -30.61,25.21 -3.83,7.43 -0.9,4.05 1.58,6.3 1.13,6.3 -60.1,91.39 -2.25,6.3 0.9,4.5 4.05,3.83 44.8,11.71 4.95,2.93 14.63,13.28 3.38,7.2 -13.96,76.99 -31.97,45.25 -23.19,23.86 -46.82,38.72 -32.19,20.93 -57.43,26.8 -111.2,67.09 -17.92,15.1 -23.83,18.58 -20.81,13.6"
     style="opacity:1;fill:none;fill-opacity:1;fill-rule:nonzero;stroke:#ed1c24;stroke-width:5;stroke-linecap:butt;stroke-linejoin:round;stroke-miterlimit:4;stroke-dasharray:none;stroke-opacity:1" />
  <path
     id="path944"
     d="m 1378.14,2309.02 -112.38,-7.23 -32.03,4.33 -23.14,20.67 -24.32,8.6 -14.46,9.47 -41.22,49.31 -21.11,-14.46 -87.12,-19.13 -6.08,-0.9 -31.96,5.18 -4.05,8.55 -26.11,26.11 -39.84,27.69 -9.9,-5.18 -61.9,-9.9 -116.15,67.53 -102.87,33.09 -2.48,2.93 -2.25,4.95 -4.28,2.7 -4.28,-1.13 -7.43,-6.75 -27.24,-13.28 -0.9,-2.59 1.8,-3.15 3.83,0.11 28.14,12.61 8.78,1.13 6.3,2.48"
     style="opacity:1;fill:none;fill-opacity:1;fill-rule:nonzero;stroke:#ed1c24;stroke-width:5;stroke-linecap:butt;stroke-linejoin:round;stroke-miterlimit:4;stroke-dasharray:none;stroke-opacity:1" />
  <path
     style="fill:none;stroke:#43ad6e;stroke-width:5;stroke-linecap:butt;stroke-linejoin:round;stroke-miterlimit:4;stroke-dasharray:none;stroke-opacity:1"
     d="m 931.5,1930.5 22.75,-8 h 11.25 l 12.5,4.5 12.75,10.75 10.75,12.5 71.75,111.25 21.25,33 10.75,23 8.25,15.75 30,41.25 16.25,37 0.5,21 -0.5,33.5 2.43,7.48 19.02,8.58 9.64,13.39 28.63,30.43"
     id="path837" />
  <path
     id="path946"
     d="m 1103.63,2238.88 9.55,8.75 70.83,30.24 11.38,15.76 35.81,37.41 9.95,12.5 8.75,5.81 17.59,8.68 15.04,10.66 16.79,16.47 8.2,8.68 7.88,3.1 96.46,-3.98 40.19,18.07 46.4,3.24"
     style="opacity:1;fill:none;fill-opacity:1;fill-rule:nonzero;stroke:#ed1c24;stroke-width:5;stroke-linecap:butt;stroke-linejoin:round;stroke-miterlimit:4;stroke-dasharray:none;stroke-opacity:1" />
  <path
     style="fill:none;stroke:#43ad6e;stroke-width:5;stroke-linecap:butt;stroke-linejoin:round;stroke-miterlimit:4;stroke-dasharray:none;stroke-opacity:1"
     d="m 465.83,3109.8 17.5,45.96 7.42,12.9 38.36,39.07 2.3,-0.18 6.36,-4.6 16.09,-19.09 1.77,-4.95 12.37,-54.98 2.83,-8.84 22.45,-27.75 9.19,-18.74 16.62,-28.99 19.98,-27.22 33.59,-27.22 24.75,-35.18 16.26,-26.87 21.74,-33.41 27.22,-39.24 24.22,-30.05 24.75,-19.09 62.93,-56.39 9.9,-11.31 37.48,-35.18 17.5,-19.8 12.55,-15.73 10.43,-21.39 8.13,-24.22 15.38,-33.06 12.9,-18.74 7.95,-17.68 32.53,-47.55 16.97,-18.03 8.66,-6.01 9.02,-7.07 16.97,-26.16 43.04,-45.19 41.56,-49.56 13.05,-8.36 24.74,-8.9 22.89,-20.21 29.68,-4.02 121.44,7.82 93.17,5.24"
     id="path903" />
  <path
     style="fill:none;stroke:#43ad6e;stroke-linejoin:round;stroke-opacity:1"
     d="m 1875.34,2361.41 -43.07,-12.72 -17.55,-4.85 -7.92,-2.84 -10.62,-0.2 -57.64,-3.32 -151.83,-10.43 -56.81,-1.32 -44.82,-7.67 -6.36,-0.29"
     id="path2123" />
  <path
     style="fill:none;stroke:#ed1c24;stroke-linejoin:round;stroke-opacity:1"
     d="m 1875.38,2362.59 -68.34,-20.29 -11.09,-0.49 -63.49,-3.76 -144.78,-9.92 -58.12,-1.43 -44.35,-7.61 -3.99,-0.26 -3.44,-2.9"
     id="path4379" />
  <path
     style="fill:none;stroke:#43ad6e;stroke-width:5;stroke-linecap:butt;stroke-linejoin:round;stroke-miterlimit:4;stroke-dasharray:none;stroke-opacity:1"
     d="m 2172,2069.25 -56.67,55.8 -29.47,40.95 -21.8,23.43 -49.22,40.45 -32.87,21.38 -35.58,16.04 5.66,13.6 4.27,27.87 0.9,26.37 -2.06,22.31 -4.07,18.91 -4.92,3.42"
     id="path1272" />
  <path
     style="fill:none;stroke:#43ad6e;stroke-linejoin:round;stroke-opacity:1"
     d="m 1669.33,2491.78 -4.15,-16.59 3.77,-66.75 4.4,-71.24 -2.56,-4.45"
     id="path6194" />
  <path
     style="fill:none;stroke:#43ad6e;stroke-linejoin:round;stroke-opacity:1"
     d="m 1673.35,2337.2 3.95,-3.99"
     id="path6267" />
  <path
     style="fill:none;stroke:#ed1c24;stroke-linejoin:round;stroke-opacity:1"
     d="m 1675.28,2333.9 -2.84,2.61 -3.48,55.39 -4.78,83.59 4.34,16.58"
     id="path6302" />
  <path
     style="opacity:1;fill:none;fill-opacity:1;fill-rule:nonzero;stroke:#ed1c24;stroke-width:5;stroke-linecap:butt;stroke-linejoin:round;stroke-miterlimit:4;stroke-dasharray:none;stroke-opacity:1"
     d="m 1579.96,2396.94 115.6,-0.44 34.5,-7.26 18.71,-1.39 45.25,12.8 81.26,27.91 7.43,0.45 9.68,-4.05 26.79,-0.23 4.28,-0.68 9.23,-5.18 6.98,-6.08 5.4,-17.78 -0.57,-7.89 1.77,-1.71"
     id="path7789" />
  <path
     style="opacity:1;fill:none;fill-opacity:1;fill-rule:nonzero;stroke:#ed1c24;stroke-width:5;stroke-linecap:butt;stroke-linejoin:round;stroke-miterlimit:4;stroke-dasharray:none;stroke-opacity:1"
     d="m 1940.26,2265.62 7.02,16.65 4.14,25.08 70.01,-4.33 9.87,-3.82 9.23,-9.55 17.99,-22.92 18.15,-32.31 -1.59,-9.23"
     id="path942" />
  <path
     style="opacity:1;fill:none;fill-opacity:1;fill-rule:nonzero;stroke:#43ad6e;stroke-width:5;stroke-linecap:butt;stroke-linejoin:round;stroke-miterlimit:4;stroke-dasharray:none;stroke-opacity:1"
     d="m 1875.62,2359.42 216.47,62.51 131,33.43 13.9,0.65 22.75,-12.25 16.75,-10.5 30.25,-15.25 34,-23.5 13.75,-17.25"
     id="path1765" />
  <path
     style="fill:none;stroke:#ed1c24;stroke-width:5;stroke-linejoin:round;stroke-miterlimit:4;stroke-dasharray:none;stroke-opacity:1"
     d="m 1676.85,2541.56 -3.25,-25.27 -6.97,-23.7"
     id="path7462" />
</svg>
