<?xml version="1.0" encoding="UTF-8" standalone="no"?>
<svg
   version="1.1"
   id="svg2"
   width="1350"
   height="3275"
   viewBox="0 0 1350 3275"
   xmlns:xlink="http://www.w3.org/1999/xlink"
   xmlns="http://www.w3.org/2000/svg"
   xmlns:svg="http://www.w3.org/2000/svg"
   xmlns:rdf="http://www.w3.org/1999/02/22-rdf-syntax-ns#"
   xmlns:cc="http://creativecommons.org/ns#"
   xmlns:dc="http://purl.org/dc/elements/1.1/">
  <metadata
     id="metadata8">
    <rdf:RDF>
      <cc:Work
         rdf:about="">
        <dc:format>image/svg+xml</dc:format>
        <dc:type
           rdf:resource="http://purl.org/dc/dcmitype/StillImage" />
      </cc:Work>
    </rdf:RDF>
  </metadata>
  <defs
     id="defs6" />
  <image
     xlink:href="streetmap/gl_osm.png"
     y="-410"
     x="-515"
     id="image12"
     preserveAspectRatio="none"
     height="4512.5"
     width="2375"
     style="display:none" />
  <path
     style="fill:none;stroke:#03096b;stroke-width:5;stroke-linejoin:round;stroke-opacity:1"
     d="m 1278.7831,170.06155 5.0073,-2.2629 -32.7208,-90.4648 -131.7528,47.37713 -142.6175,8.45619 -6.8058,0.11861 47.5568,80.4198 4.3633,15.15043 -0.019,14.26024 -5.4887,38.40242 -34.9932,-7.15429 -13.4562,2.72764 -10.5359,8.01928 -4.5201,10.44024 -2.9165,14.1937 -0.7716,23.38961 6.333,14.13981 2.6695,65.24459 4.6204,20.44234 15.1759,21.65813 15.4202,20.19685 6.8838,21.31961 -91.1318,67.11856"
     id="path887" />
  <path
     style="fill:none;stroke:#ff0000;stroke-width:5;stroke-linejoin:round;stroke-opacity:1"
     d="m 64.089311,3209.6928 116.887499,-187.6383 1.09122,-22.7195 4.79774,-7.3108 111.49302,-33.3459 13.80105,-12.5238 -9.31703,-12.4702 5.00727,-62.4682 -30.12355,-93.021 -3.75385,-94.0669 64.60106,-112.5398 60.64934,-56.3045 33.62518,-4.8118 -6.2482,-60.0659 0.30954,-21.781 8.63462,-1.7132 -26.9407,-177.1387 -41.33229,6.9713 21.73122,146.8143 42.06941,-6.0101"
     id="path893" />
  <path
     style="fill:none;stroke:#ff0000;stroke-width:5;stroke-linejoin:round;stroke-opacity:1"
     d="m 432.84826,2510.4721 15.51187,99.9989 -14.76988,10.0661 -11.25621,7.9448 -11.00411,10.8889 -10.40691,16.2882 -10.95466,19.4758 -9.69391,22.977 -5.27783,22.2796 -1.04298,20.3856 1.74111,17.6073 5.63747,22.3239 9.06229,27.1998 9.63998,19.2194 11.61862,12.949 -62.09858,71.3373 -37.39469,34.7408"
     id="path895" />
  <path
     style="fill:none;stroke:#ff0000;stroke-width:5;stroke-linejoin:round;stroke-opacity:1"
     d="m 180.1054,3009.8236 10.09985,-9.9567 5.80253,-9.4139"
     id="path897" />
</svg>
