<?xml version="1.0" encoding="UTF-8" standalone="no"?>
<svg
   xmlns:dc="http://purl.org/dc/elements/1.1/"
   xmlns:cc="http://creativecommons.org/ns#"
   xmlns:rdf="http://www.w3.org/1999/02/22-rdf-syntax-ns#"
   xmlns:svg="http://www.w3.org/2000/svg"
   xmlns="http://www.w3.org/2000/svg"
   xmlns:xlink="http://www.w3.org/1999/xlink"
   viewBox="0 0 1475 1950"
   height="1950"
   width="1475"
   id="svg2"
   version="1.1">
  <metadata
     id="metadata8">
    <rdf:RDF>
      <cc:Work
         rdf:about="">
        <dc:format>image/svg+xml</dc:format>
        <dc:type
           rdf:resource="http://purl.org/dc/dcmitype/StillImage" />
        <dc:title></dc:title>
      </cc:Work>
    </rdf:RDF>
  </metadata>
  <defs
     id="defs6" />
  <image
     xlink:href="basemap/gnbosm.png"
     width="1665"
     height="2140.71"
     preserveAspectRatio="none"
     id="image10"
     x="-100"
     y="-10.71"
     style="display:none" />
  <path
     id="path817"
     d="m 171.82,944.15 14.24,17.69 7.98,5.82 14.02,4.1 191.57,95.57 11.65,1.94 99.88,2.59 107.4,11.33 12.94,1.29 1.89,-0.6 3.24,-2.8 0.63,-0.84 1.29,-2.8 0.22,-0.86 1.29,-17.04 -0.15,-1.07 -3.52,-9.33 -0.17,-4.16 1.16,-1.68 h 2.4 l 2.23,2.97 1.81,5.84 0.58,0.98 4.53,4.75 1.28,0.72 68.6,14.89 0.58,0.06 10.14,-0.21 1.38,-0.45 6.47,-4.53 0.07,-0.05 L 750,1058.83 l 12.47,-3.33 1.17,-0.69 3.73,-3.91 1.53,0.09 3.63,3.82 1.63,0.77 26.32,1.94 11.19,-0.12 4.75,9.49 -0.43,2.16 -4.75,2.59 -0.65,3.67 17.91,31.71 0.43,3.02 -11.11,16.72 -3.34,17.91 9.28,233.96 -3.67,9.06 1.08,21.36 -2.8,5.61 -13.16,12.3 -2.37,5.39 2.8,65.8 3.45,4.96 0.22,21.79 3.02,4.96 4.1,1.51 16.18,-0.65 7.12,4.96 1.29,18.98 -1.51,3.02 -4.31,2.16 -14.45,0.86 -14.89,-3.67 -6.69,-0.43 -8.41,6.69 -42.71,1.08 -18.34,-2.8 -5.39,-4.1 -1.73,-7.55 -17.47,-12.3 -7.33,-1.73 -4.75,3.24 -4.96,10.14 -18.55,92.55 -1.08,26.53 1.51,14.02 -12.08,58.89 -42.71,109.37 -11.43,33.87 -15.75,3.88 -48.32,-26.53 -29.55,-6.26"
     style="opacity:1;fill:none;fill-opacity:0.35;fill-rule:nonzero;stroke:#0077be;stroke-width:5;stroke-linecap:butt;stroke-linejoin:round;stroke-miterlimit:4;stroke-dasharray:none;stroke-opacity:1" />
  <path
     id="path833"
     d="m 832.59,1530.71 3.87,-3.86 h 3.81 l 2.9,2.44 -0.98,3.68 -2.48,2.7"
     style="opacity:1;fill:none;fill-opacity:0.35;fill-rule:nonzero;stroke:#0077be;stroke-width:5;stroke-linecap:butt;stroke-linejoin:round;stroke-miterlimit:4;stroke-dasharray:none;stroke-opacity:1" />
  <path
     id="path841"
     d="m 1281.98,1075.89 -26.96,-21.99 -3.82,-1.32 -5.76,-1.03 c -0.63,-0.11 -1.2,-0.47 -1.58,-0.98 l -2.9,-3.97 c -0.29,-0.4 -0.46,-0.88 -0.48,-1.38 l -1.19,-32.05 -2.22,-2.5 -30.69,3.01 -10.12,7.52 c -0.38,0.28 -0.83,0.45 -1.3,0.49 l -78.86,5.95 -2.93,4.07 -7.63,38.9 -3.05,36.31 -4.27,3.05 -51.41,-15.86 -73.07,-9.15 -23.8,22.42 -21.81,-8.85 -5.64,-12.51 -8.69,-7.63 -92.29,51.56 -2.62,14.19 -7.55,10.25 -44.76,26.75 -14.89,6.36 -20.06,6.58 -15.86,3.34 -15.32,2.48 -53.18,5.07 -76.8,3.24 -38.72,0.54 -74.43,-0.97 -39.8,-2.27 -4.21,4.42 -2.59,113.15 0.86,15.86 0.22,68.49 -3.56,2.16 -36.13,-1.4 -3.13,4.53 2.91,11.65"
     style="fill:none;stroke:#e5007d;stroke-width:5;stroke-linecap:butt;stroke-linejoin:round;stroke-miterlimit:4;stroke-dasharray:none;stroke-opacity:1" />
  <path
     id="path835"
     d="m 465.78,807.46 99.61,108 16.78,19.98 9.15,30.05 3.97,4.88 0.31,8.08 -8.54,41.64 1.37,4.12 25.17,26.39 1.98,5.64 -2.44,17.69 1.68,3.97 4.24,0.3 11.87,1.19 2.02,-1.75 0.88,-1.91 1.22,-16.04 -3.47,-9.19 -0.16,-0.78 -0.21,-5.39 0.44,-1.52 2.37,-3.45 2.06,-1.08 4.96,10e-5 2,1 3.24,4.31 0.39,0.76 1.77,5.7 3.6,3.77 67.56,14.66 9.09,-0.19 5.82,-4.07 12.91,-9.68 0.86,-0.41 12.26,-3.27 4.04,-4.24 1.96,-0.77 3.67,0.22 1.66,0.77 3.65,3.83 25.36,1.87 3.43,-2.69 -0.31,-10.53 9.92,-21.97 1.53,-6.41 13.73,-19.53 93.51,-100.83 4.12,-2.75 4.27,-1.07 27.46,11.9 5.03,0.15 10.83,-3.05 5.34,0.76 13.88,13.27 35.69,12.97 29.29,32.19 10.22,13.42 14.03,35.08 6.86,10.07 17.13,8.91 8.92,0.19 78.14,-5.89 10.1,-7.5 c 0.36,-0.27 0.79,-0.44 1.25,-0.48 l 32.64,-3.2 c 0.12,-0.01 0.24,-0.01 0.35,-0.01 v -10e-5 c 0.68,0.03 1.31,0.33 1.76,0.84 l 3.66,4.12 c 0.39,0.43 0.61,0.99 0.63,1.57 l 1.19,32.19 1.86,2.54 4.96,0.89 c 0.13,0.02 0.25,0.06 0.38,0.1 l 4.42,1.53 c 0.28,0.1 0.54,0.24 0.77,0.43 l 27.3,22.27 9.95,11.82 43.93,66.66 47.59,-18.61 24.1,-8.85 1.07,-3.97 -1.07,-3.81 -23.19,-23.95"
     style="fill:none;stroke:#009e3d;stroke-width:5;stroke-linecap:butt;stroke-linejoin:round;stroke-miterlimit:4;stroke-dasharray:none;stroke-opacity:1" />
  <path
     id="path862"
     d="m 1095.99,1022.56 9.17,4.53 3.34,3.24 -7.87,39.26 -2.16,34.3 -1.19,0.76 -16.61,-4.96 -5.82,4.96 -14.13,37.11 v 28.8 l 2.48,18.44 11.65,42.93 32.36,88.45 -9.49,12.08"
     style="opacity:1;fill:none;fill-opacity:0.35;fill-rule:nonzero;stroke:#f59c00;stroke-width:5;stroke-linecap:butt;stroke-linejoin:round;stroke-miterlimit:4;stroke-dasharray:none;stroke-opacity:1" />
  <path
     id="path864"
     d="m 57.27,55.35 8.84,19.63 15.75,34.73 21.36,32.14 14.67,32.79 27.18,49.19 20.06,34.08 15.32,30.42 7.12,25.46 5.82,14.24 11.22,17.04 21.79,31.28 15.53,15.75 25.67,28.91 22.65,28.48 10.35,14.24 23.3,35.38 18.12,30.63 84.57,137.85 11.22,11.22 11.87,7.33 14.89,8.2 8.63,7.98 9.06,12.94 27.18,33.65 25.67,21.57 12.08,12.94 11,15.53 7.98,9.06 11.65,7.55 16.4,8.2 8.84,8.41 33.22,36.24 10.14,12.3 13.59,28.04 v 5.61 l -11.65,27.61 -0.43,5.82 0.65,4.31 21.79,46.17 3.02,2.8 10.57,3.67 2.59,2.16 7.12,16.4 0.65,4.75 -29.77,122.96 -53.93,227.59"
     style="opacity:1;fill:none;fill-opacity:0.35;fill-rule:nonzero;stroke:#5b358c;stroke-width:5;stroke-linecap:butt;stroke-linejoin:round;stroke-miterlimit:4;stroke-dasharray:none;stroke-opacity:1" />
  <path
     id="path866"
     d="m 740.81,922.49 15.75,89.1"
     style="opacity:1;fill:none;fill-opacity:0.35;fill-rule:nonzero;stroke:#f2f2f2;stroke-width:8;stroke-linecap:butt;stroke-linejoin:round;stroke-miterlimit:4;stroke-dasharray:none;stroke-opacity:1" />
</svg>
