<?xml version="1.0" encoding="UTF-8" standalone="no"?>
<svg
   viewBox="0 0 875 1425"
   height="1425"
   width="875"
   id="svg2"
   version="1.1"
   xmlns:xlink="http://www.w3.org/1999/xlink"
   xmlns="http://www.w3.org/2000/svg"
   xmlns:svg="http://www.w3.org/2000/svg"
   xmlns:rdf="http://www.w3.org/1999/02/22-rdf-syntax-ns#"
   xmlns:cc="http://creativecommons.org/ns#"
   xmlns:dc="http://purl.org/dc/elements/1.1/">
  <metadata
     id="metadata8">
    <rdf:RDF>
      <cc:Work
         rdf:about="">
        <dc:format>image/svg+xml</dc:format>
        <dc:type
           rdf:resource="http://purl.org/dc/dcmitype/StillImage" />
      </cc:Work>
    </rdf:RDF>
  </metadata>
  <defs
     id="defs6" />
  <image
     y="36"
     x="-135"
     id="image10"
     xlink:href="../timelines/streetmap/grxosm.png"
     preserveAspectRatio="none"
     height="1614"
     width="1345"
     style="display:none" />
  <path
     id="path836"
     d="m 751.57627,1104.7119 -34.16949,-5.2882 -9.9661,-5.6949 -8.54237,-17.8983 L 589.0678,851.6949 v -5.4915 l 2.64407,-5.6949 17.69491,-16.8814 10.16949,-13.0169 v -3.4577 l -4.67796,-6.1016 -8.94916,-7.93226 -1.62711,-3.8644 4.06779,-13.42373"
     style="opacity:1;fill:none;fill-opacity:1;fill-rule:nonzero;stroke:#d42a40;stroke-width:1;stroke-linecap:butt;stroke-linejoin:round;stroke-miterlimit:4;stroke-dasharray:none;stroke-opacity:1" />
  <path
     id="path838"
     d="M 608.38983,775.83051 615.1017,755.08474 613.0678,750 l -6.1017,-9.9661 -0.81356,-4.47458 4.0678,-16.47458 -2.64407,-5.8983 -21.15254,-12.20339 -47.38983,-16.27119 -4.0678,-3.45763 0.61017,-32.54237 -4.47457,-7.11864 -1.42373,-61.62712 -4.47458,-8.33898 -0.61017,-20.54238 2.0339,-6.91525 30.1017,-29.08475 1.42372,-4.27118 -1.01694,-3.66102 -57.96611,-74.44068 -4.27118,-1.62712 -66.91526,55.11865 -4.88135,0.61017 -4.0678,-1.83051 -20.54237,-45.35593 -20.33899,-11.79661 -8.33898,-11.38984 -21.15254,-17.28813 -10.98305,-10.77966 -11.79661,-16.27119 -11.59322,-22.98305 -11.79661,-10.98305 -24.81356,-22.98305 -9.15255,-15.05085 -14.03389,-26.64407 -8.74577,-8.54237 -20.33898,-13.22034 -41.49152,-42.30508 -19.72882,-36.61017 -14.0339,-22.98305 L 117.20339,106.47457 106.42373,96.71186 95.84746,88.98305 58.42373,68.64406"
     style="opacity:1;fill:none;fill-opacity:1;fill-rule:nonzero;stroke:#d42a40;stroke-width:5;stroke-linecap:butt;stroke-linejoin:round;stroke-miterlimit:4;stroke-dasharray:none;stroke-opacity:1" />
  <path
     id="path840"
     d="m 751.57627,1104.7119 22.57627,4.0678 1.62712,2.2373 -5.28813,34.5762 0.40678,7.9322 37.62712,60.8136 0.20339,4.8813 -3.05085,4.0678 -43.52543,29.0848 -11.18644,8.5424 -13.22033,18.1016 -6.1017,3.6611 -78.30508,-1.8305 -17.28814,-3.2543 -4.88136,2.2373 -4.67796,20.9492 -11.79661,14.644 -8.54238,18.1017 -20.74576,7.5254 -26.64407,24 -5.8983,1.6272 -7.11865,-2.0339 -37.8305,-24.6102 -23.38983,-42.3051 -6.50848,-0.6102 -47.59322,33.356 -22.16949,30.5085 L 381,1367.6949"
     style="opacity:1;fill:none;fill-opacity:1;fill-rule:nonzero;stroke:#d42a40;stroke-width:5;stroke-linecap:butt;stroke-linejoin:round;stroke-miterlimit:4;stroke-dasharray:none;stroke-opacity:1" />
</svg>
