<?xml version="1.0" encoding="UTF-8" standalone="no"?>
<svg
   viewBox="0 0 1150 1275"
   height="1275"
   width="1150"
   id="svg2"
   version="1.1"
   xmlns:xlink="http://www.w3.org/1999/xlink"
   xmlns="http://www.w3.org/2000/svg"
   xmlns:svg="http://www.w3.org/2000/svg"
   xmlns:rdf="http://www.w3.org/1999/02/22-rdf-syntax-ns#"
   xmlns:cc="http://creativecommons.org/ns#"
   xmlns:dc="http://purl.org/dc/elements/1.1/">
  <metadata
     id="metadata8">
    <rdf:RDF>
      <cc:Work
         rdf:about="">
        <dc:format>image/svg+xml</dc:format>
        <dc:type
           rdf:resource="http://purl.org/dc/dcmitype/StillImage" />
      </cc:Work>
    </rdf:RDF>
  </metadata>
  <defs
     id="defs6" />
  <image
     xlink:href="basemap/grzosm.png"
     y="-88.8"
     x="-50"
     id="image10"
     preserveAspectRatio="none"
     height="1378.8"
     width="1149"
     style="display:none" />
  <path
     id="path836"
     d="m 449.32,1208.44 7.12,5.29 h 3.46 l 17.08,-5.29 3.86,-3.86 2.64,-5.69 -3.05,-23.8"
     style="opacity:1;fill:none;fill-opacity:0.4;fill-rule:nonzero;stroke:#e30109;stroke-width:1;stroke-linecap:butt;stroke-linejoin:round;stroke-miterlimit:4;stroke-dasharray:none;stroke-opacity:1" />
  <path
     id="path838"
     d="m 480.44,1175.08 -11.59,-65.69 2.03,-19.93 -7.53,-38.03 -6.92,-20.54 2.03,-20.34 3.25,-18.92 1.42,-8.34 2.64,-7.73 26.44,-4.47 3.05,-5.29 -1.63,-31.32 2.64,-19.73 -9.76,-68.95 -4.27,-45.15 3.05,-3.86 141.97,-24.41 -30.1,-80.14 -10.98,-57.56 -1.22,-11.19 -29.49,-35.8 -10.58,-9.15 -14.85,-16.88 -15.46,-30.1 -7.32,-24.61 1.02,-5.29 2.85,-2.85 0.2,-17.29 -19.12,-42.1 14.44,-4.68 -71.19,-150.51 -38.24,-44.54 -17.08,-12 -4.27,-7.73 -2.64,-16.68 -4.68,-19.32 6.71,-78.92 3.46,-8.75"
     style="opacity:1;fill:none;fill-opacity:0.4;fill-rule:nonzero;stroke:#e30109;stroke-width:5;stroke-linecap:butt;stroke-linejoin:round;stroke-miterlimit:4;stroke-dasharray:none;stroke-opacity:1" />
  <path
     id="path840"
     d="m 587.63,638.54 4.68,3.25 7.93,-0.61 4.47,4.07 33.56,8.34 2.03,2.44 3.25,8.34 16.68,24.81 18.1,7.53 3.46,3.86 10.17,27.05 0.41,14.64 2.85,25.22 73.63,-33.56 10.78,6.1 29.9,8.54 31.93,12.81 8.54,1.63 8.95,-5.9 20.54,-7.73 21.56,-21.15 h 3.05 l 15.46,18.51 12.81,12.41 v 6.31 l -5.08,4.68 v 3.25 l 12.81,22.78 3.46,0.61 18.51,-9.15 L 982,782.34 990.95,779.9 994,773.19"
     style="opacity:1;fill:none;fill-opacity:0.4;fill-rule:nonzero;stroke:#e30109;stroke-width:5;stroke-linecap:butt;stroke-linejoin:round;stroke-miterlimit:4;stroke-dasharray:none;stroke-opacity:1" />
  <path
     id="path842"
     d="m 640.31,656.03 9.97,-0.2 26.03,-15.86 52.27,-40.47 7.32,-0.41 28.27,15.05 6.31,1.83 6.51,4.68 -1.01,6.68 4.0,7.5 7.86,-4.28 -10.85,-9.91"
     style="opacity:1;fill:none;fill-opacity:0.4;fill-rule:nonzero;stroke:#e30109;stroke-width:5;stroke-linecap:butt;stroke-linejoin:round;stroke-miterlimit:4;stroke-dasharray:none;stroke-opacity:1" />
  <path
     id="path844"
     d="m 600.24,641.19 26.03,-10.17 22.37,-33.15 12.61,-28.07 15.25,1.02 21.15,-5.9 26.03,-20.75 23.8,-13.02 16.47,-10.58 -10.78,-26.24 -7.12,-13.22 2.03,-5.49 9.36,-11.8 0.41,-5.69 -6.92,-8.54 -0.2,-5.29 L 778,407.9 l -0.61,-19.12 5.29,-28.27 0.61,-24.81 -6.51,-28.68 2.64,-5.08 7.93,-3.25 11.8,-16.27 8.54,-5.29 6.71,-10.58 3.66,-17.9 2.85,-5.29 14.44,-7.73 5.9,-13.22 18.1,-6.92 14.44,-10.98 4.88,-14.85 5.08,-7.93 0.41,-8.14 3.25,-5.69 7.32,-1.02 13.22,5.49 14.44,-2.64 44.75,-22.98 12.41,-3.25 27.86,-13.02 9.97,-2.85 15.86,-9.76 22.58,-12.81 11.8,-10.98 14.85,-21.36 3.86,-10.17"
     style="opacity:1;fill:none;fill-opacity:0.4;fill-rule:nonzero;stroke:#e30109;stroke-width:5;stroke-linecap:butt;stroke-linejoin:round;stroke-miterlimit:4;stroke-dasharray:none;stroke-opacity:1" />
  <path
     id="path846"
     d="m 763.97,520.58 29.9,-17.29 12.61,-10.37 14.64,-13.63 0.81,-8.95 2.85,-3.25 31.12,-4.88 1.83,-2.03 -0.81,-14.64 2.85,-4.27 9.76,3.25 3.05,-4.68 7.12,-6.31 -0.2,-13.02 -10.98,-6.51 -4.68,1.42 -10.78,20.14 3.86,9.97"
     style="opacity:1;fill:none;fill-opacity:0.4;fill-rule:nonzero;stroke:#e30109;stroke-width:5;stroke-linecap:butt;stroke-linejoin:round;stroke-miterlimit:4;stroke-dasharray:none;stroke-opacity:1" />
  <path
     id="path848"
     d="m 115.15,463.42 -6.51,-0.41 -30.92,27.46 0.41,5.08 8.14,3.86 44.14,34.58 32.34,20.95 72.2,2.24 41.29,-8.75 10.78,46.37 31.93,-7.93 15.66,-7.93 0.41,-7.53 2.44,-4.68 2.64,-0.61 5.29,8.75 2.03,3.05 6.92,2.24 116.54,7.32 14.03,-2.85 11.59,3.66 27.46,-0.61 20.95,-9.15"
     style="opacity:1;fill:none;fill-opacity:0.4;fill-rule:nonzero;stroke:#e30109;stroke-width:5;stroke-linecap:butt;stroke-linejoin:round;stroke-miterlimit:4;stroke-dasharray:none;stroke-opacity:1" />
  <path
     id="path850"
     d="m 266.47,549.86 3.46,14.64 9.36,-2.44"
     style="opacity:1;fill:none;fill-opacity:0.4;fill-rule:nonzero;stroke:#e30109;stroke-width:5;stroke-linecap:butt;stroke-linejoin:round;stroke-miterlimit:4;stroke-dasharray:none;stroke-opacity:1" />
  <path
     id="path852"
     d="m 287.02,594.81 -37.83,6.92 -17.29,0.2 -21.15,-1.63 -39.46,-7.53 -6.92,34.37 -75.46,-14.64 -19.32,7.53 -1.63,5.9 2.64,117.97 4.27,6.3"
     style="opacity:1;fill:none;fill-opacity:0.4;fill-rule:nonzero;stroke:#e30109;stroke-width:5;stroke-linecap:butt;stroke-linejoin:round;stroke-miterlimit:4;stroke-dasharray:none;stroke-opacity:1" />
  <path
     style="fill:none;stroke:#e30109;stroke-width:5;stroke-linejoin:round;stroke-opacity:1"
     d="m 627.29,772.37 18.34,48.39 67.62,129.72 25.07,2.04 35.57,6.52 13.02,6.84 10.19,15.66 11.31,19.9 8.19,10.92 0.76,4.49 -1.68,3.93 -15.48,8.7 0.58,5.03 20.07,11.02 0.99,4.09 -8.07,13.16 -3.53,0.97 -27.46,-13.27 -1.35,-1.97 0.38,-4.78 18.4,-14.25"
     id="path841" />
  <path
     style="fill:none;stroke:#e30109;stroke-width:5;stroke-linejoin:round;stroke-opacity:1"
     d="m 249.19,601.73 -1.26,4.76 11.05,43.91 -0.62,5.34 -6.22,9.0 16.22,49.74 11.13,53.0 -0.8,2.22 -18.56,0.89 -2.06,4.28 2.36,24.93 -3.06,6.51"
     id="path866" />
  <path
     style="fill:none;stroke:#e30109;stroke-width:5;stroke-linejoin:round;stroke-opacity:1"
     d="m 280.14,565.94 3.36,-3.53 14.92,-2.73 -11.54,-47.93 -38.67,-95.74 2.62,-3.77 6.9,-0.48 4.81,-2.04 2.47,0.9 8.99,17.45 -1.17,4.01 -12.6,5.47 -0.77,7.08"
     id="path868" />
</svg>
