<?xml version="1.0" encoding="UTF-8" standalone="no"?>
<svg
   version="1.1"
   id="svg2"
   width="2175"
   height="1425"
   viewBox="0 0 2175 1425"
   xmlns:xlink="http://www.w3.org/1999/xlink"
   xmlns="http://www.w3.org/2000/svg"
   xmlns:svg="http://www.w3.org/2000/svg"
   xmlns:rdf="http://www.w3.org/1999/02/22-rdf-syntax-ns#"
   xmlns:cc="http://creativecommons.org/ns#"
   xmlns:dc="http://purl.org/dc/elements/1.1/">
  <metadata
     id="metadata8">
    <rdf:RDF>
      <cc:Work
         rdf:about="">
        <dc:format>image/svg+xml</dc:format>
        <dc:type
           rdf:resource="http://purl.org/dc/dcmitype/StillImage" />
      </cc:Work>
    </rdf:RDF>
  </metadata>
  <defs
     id="defs6" />
  <image
     xlink:href="../timelines/basemap/helosm.png"
     y="-2704.23"
     x="-1610"
     id="image10"
     preserveAspectRatio="none"
     height="4365"
     width="4365"
     style="display:none" />
  <path
     style="opacity:1;fill:none;fill-opacity:1;fill-rule:nonzero;stroke:#f2f2f2;stroke-width:8;stroke-linecap:butt;stroke-linejoin:round;stroke-miterlimit:4;stroke-dasharray:none;stroke-opacity:1"
     d="m 2637.75,482.25 -45,6.75 -11.75,3.25 -12,4.25 -17.25,9.25 -12.5,8 -15.75,6 -17.75,2.25 -16.5,-3 -56.75,-20.5 -64,-32.5 -13.75,-12 -11.75,-11.75 -27.5,-37.5 -26,-26.5 -10.5,-5.75 -11,-2.75 -30.25,-4 -14,3.5 -12.75,5.5 -14.75,9.75 -17,20 -14.75,17.25 -10.75,8.25 -37,20 -17.25,4.75 -43,8.5 -28.25,2.75 -44.25,-3.25 -22,-0.5 -14.75,0.75 -13,4 -16.25,6 -13,9.5 -11,9 -10,14.25 -24.5,39.5 -57.5,99 -17.5,24.5 -19,16.75 -17.5,10.75 -21.75,6.5 -16.5,10 -13.5,12.25 -24,20.5 -19.25,9 -17.25,4.75 -53.75,11.5 -14.25,5.75 -10.25,5.75 -18.25,12 -13,6.5 -13.75,3.75 -16.75,3.25 -28.25,1 -13.75,-2 -100.5,-22.75 -39.75,-16.75 -35.75,-7.25 -9.25,-1 -10.5,4.25 -10.5,8.25 -9.5,15.75 -7.75,13.75 -10,16 -10.25,10.75 -10.5,5 -15,4.75 -9.75,6.25 -8.5,11 -5.25,13.5 1.5,38.5 4.5,72.5 -4.5,17.5 -20,34.25 -11,7.75 -17.25,8.5 -39.75,2.25 -15.5,2.25 -17,5.5 -42.25,27.5 -8.75,11 -16.5,21 -12,21.25 -11.75,9.75 -20.25,9.75 -40,3.5 -45.52,3.25 -23.04,-6.89 -31.78,-6.09 -27.54,2.65 -20.39,9.53 -20.92,12.18 -51.91,23.04 -55.88,19.6 -24.36,7.15 -16.42,2.38 -19.07,-1.06 -18.01,-5.83 -21.98,-14.83 -25.69,-24.36 -17.48,-12.71 -49.52,-16.15 -122.62,-43.96 -37.61,-14.57 -11.92,-8.47 -13.24,-13.51 -6.09,-11.39 -6.36,-23.31 v -14.57 l 5.83,-28.87 12.98,-29.4 14.57,-34.96 8.47,-26.75 -0.79,-17.21 -3.71,-15.36 -14.04,-19.6 -11.12,-9.8 -23.04,-7.15 -24.1,-1.32 -21.19,-0.53 -16.95,4.77 -16.15,11.92 -10.33,15.62 -9.53,24.1 -11.12,40.25 -6.89,15.1 -13.24,16.42 -16.68,11.12 -27.01,9.53 -41.05,6.09 -155.99,-1.59 -22.25,2.65 -19.07,6.89 -58.53,45.55 -23.31,20.39 -33.37,26.75 -10.06,14.3 -18.01,29.93 -21.98,31.25 -13.24,14.04 -12.18,10.59 -66.74,28.87"
     id="path4506" />
  <path
     style="opacity:1;fill:none;fill-opacity:1;fill-rule:nonzero;stroke:#f2f2f2;stroke-width:8;stroke-linecap:butt;stroke-linejoin:round;stroke-miterlimit:4;stroke-dasharray:none;stroke-opacity:1"
     d="m 2180.09,404.35 6.36,-27.93 -3.18,-32.17 -23.33,-73.89 -24.4,-28.99 -24.4,-58.34 -2.12,-19.09 3.54,-19.8 37.12,-77.43 15.56,-15.2 55.15,-31.47 26.52,-7.42 58.34,7.07 27.22,-2.12 24.75,-6.01 38.89,-23.69"
     id="path4508" />
  <path
     style="opacity:1;fill:none;fill-opacity:1;fill-rule:nonzero;stroke:#f2f2f2;stroke-width:8;stroke-linecap:butt;stroke-linejoin:round;stroke-miterlimit:4;stroke-dasharray:none;stroke-opacity:1"
     d="m 1093.98,1035.44 -3.89,-77.78 -54.8,-242.18 -0.71,-17.32 4.6,-56.57 -13.08,-70.36 -0.35,-54.8 5.66,-33.59 26.52,-96.52 14.5,-32.53 21.57,-30.76 25.1,-28.28 41.37,-31.82 72.48,-48.44 293.45,-304.06 113.84,-117.73 23.69,-31.11 89.8,-117.73 17.68,-32.17 14.14,-30.76 9.9,-36.77 159.1,-690.14 22.98,-101.47 13.08,-35.36 66.82,-143.19 16.62,-44.19 33.23,-130.11 68.24,-260.92 8.84,-20.15 67.18,-146.02 15.91,-43.84 7.78,-37.83 80.26,-454.67"
     id="path4510" />
  <path
     style="opacity:1;fill:none;fill-opacity:1;fill-rule:nonzero;stroke:#f2f2f2;stroke-width:8;stroke-linecap:butt;stroke-linejoin:round;stroke-miterlimit:4;stroke-dasharray:none;stroke-opacity:1"
     d="m -1511.5,757 100,-73.5 85.5,-73 29,-19 30.5,-10.5 25.5,-5 247.5,-96 27,-3.5 24.5,3.5 25.5,13 21.5,8.5 18.5,1 18.5,-2 72,-18.5 22.5,-1.5 28.5,5 23,5 21.5,2 18.5,-4.5 16.5,-8 20.5,-13.5 15.5,-14.5 26.5,-20.5 22,-8.5 26.5,-5.5 126,-25.5 27.5,-10.5 19,-12.5 31.5,-22 21.5,-9.5 26,-6 120,-2 131.5,-28.5 35,-4.5 101,-3 137.5,17 h 23.5 l 28,-5.5 24.5,-11 29,-22 37,-30.5 23.5,-8.5 27.5,-8 30.5,4.5 91.5,26 h 21 l 57.5,-3 38.5,15.5 117,81 36.5,16.5 32.5,20 49,47.5 114.5,118 12.59,20.22"
     id="path4512" />
  <path
     style="opacity:1;fill:none;fill-opacity:1;fill-rule:nonzero;stroke:#f2f2f2;stroke-width:8;stroke-linecap:butt;stroke-linejoin:round;stroke-miterlimit:4;stroke-dasharray:none;stroke-opacity:1"
     d="m 654,263.5 -12,-16 -10.5,-30.5 -0.5,-28.5 8.5,-32 22.5,-53 2,-29.5 -5,-28 -12,-25.5 -21.5,-22.5 -78.5,-51 -22,-25 -17,-34 -58,-124.5 -14,-53.5 -7,-162.5 -4,-38.5 -14,-50.5 v -22 l 9,-59 -3,-30 -42.5,-91 -7.5,-35 -27.5,-152.5 -8,-144.5 2.5,-32.5 4.5,-20 16,-24.5 23.5,-21.5 69,-59 36,-10 37,3.5 69,38.5 79,48 52.5,47.5 27,12 22,6.5 35,-1.5 48,-3.5 42,9 31.5,13 61,41.5 52.5,39 32,17 27,3.5 39,-0.5 21,-5 35,-21 32.5,-35.5 58.5,-116 50,-109 23,-37.5 21,-17.5 35,-19 30,-6 29.5,-2 41,9.5 68.5,25.5 38.5,5.5 39.5,0.5 52.5,-8 55.5,-10 29.5,4 35.5,11.5 10,4 84,36 20,13.5 15,23.5 4,24"
     id="path4539" />
  <path
     style="opacity:1;fill:none;fill-opacity:0.14;fill-rule:nonzero;stroke:#00985e;stroke-width:5;stroke-linecap:butt;stroke-linejoin:round;stroke-miterlimit:4;stroke-dasharray:none;stroke-opacity:1"
     d="m 1269.04,754.39 -15.33,-22.1 -11.39,-24.72 -31.48,-32.42 -67.97,-56.31 -19.17,-25.74 -2.15,-6.03 -0.27,-4.69 3.22,-28.15 2.41,-82.32 -2.41,-11.4 -14.48,-66.77 -0.13,-3.49 0.94,-3.49 78.57,-49.47 7.51,1.74"
     id="path928" />
  <path
     style="opacity:1;fill:none;fill-opacity:0.14;fill-rule:nonzero;stroke:#00985e;stroke-width:5;stroke-linecap:butt;stroke-linejoin:round;stroke-miterlimit:4;stroke-dasharray:none;stroke-opacity:1"
     d="m 1050.49,1243.07 -2.68,-1.34 -3.08,-8.58 -1.34,-0.94 -10.19,2.95 -0.4,2.15 2.28,6.17 1.88,0.4 52.69,-4.83 2.68,-3.62 8.31,-15.69 -2.01,-22.79 -2.95,-4.56 -32.85,-47.46 0.13,-4.16 45.72,-31.1 0.27,-3.75 -47.86,-64.49 -4.69,-3.35 -42.1,-0.4 -45.99,-1.88 -3.22,-1.07 -5.63,-10.19 -9.38,-25.07 -2.41,-19.84 -1.47,-7.24 6.84,-54.03 4.96,-7.37 2.82,-8.04 5.23,-10.06 19.31,-16.09 -0.05,-5.58 -28.84,-36.98 -14.03,-18.58 -14.79,-22.94 -6.83,-13.27 v -3.79 l 7.39,-14.22 9.86,-11.38 13.46,-12.51 15.36,-11.19 28.82,-11.76 5.5,-3.6 1.33,-8.15 4.93,-10.24 1.33,-6.45 -3.03,-15.17 -2.46,-5.12 -2.86,-5.96 -0.18,-5.83 -4.33,-20.45 47.2,-11.39 1.71,-2.65 -8.34,-37.16 1.33,-3.79 35.08,-7.77 2.46,1.52 3.79,18.01 2.65,1.52 33.94,-8.34 5.8,3.48"
     id="path1403" />
  <path
     id="path1405"
     d="m 1092.32,1235.43 2.76,4 58.59,-5.69 47.4,-19.34 4.36,-17.25 4.17,-6.83 -0.76,-9.67 -4.17,-6.07 -19.34,-25.98 -3.03,-6.83 -1.9,-5.5 -0.19,-9.86 -0.95,-5.88 -1.33,-23.51 v -7.39 l 1.14,-1.71 6.64,-0.38 1.9,-2.09 -0.19,-14.22 -1.9,-2.46 -19.91,1.52 -66.93,3.22 -3.6,0.95 -2.46,2.28 -4.55,0.38"
     style="opacity:1;fill:none;fill-opacity:0.14;fill-rule:nonzero;stroke:#00985e;stroke-width:5;stroke-linecap:butt;stroke-linejoin:round;stroke-miterlimit:4;stroke-dasharray:none;stroke-opacity:1" />
  <path
     id="path1407"
     d="m 1177.94,1097.23 -3.79,-2.46 -2.84,0.19 -2.46,-2.65 -0.38,-18.77 -2.46,-3.22"
     style="opacity:1;fill:none;fill-opacity:0.14;fill-rule:nonzero;stroke:#00985e;stroke-width:5;stroke-linecap:butt;stroke-linejoin:round;stroke-miterlimit:4;stroke-dasharray:none;stroke-opacity:1" />
  <path
     id="path1411"
     d="m 1074.23,1059.12 1.33,-4.36 7.96,-5.31 31.76,-1.04 4.65,-1.99 18.49,-11.57 1.42,-1.9 4.36,-10.62 17.63,-30.53 1.33,-7.2 -2.46,-50.25 2.09,-7.2 -1.52,-20.86 -2.84,-6.26 -0.19,-14.22 25.98,-33.56 -0.76,-3.03 -8.69,-5.48 -1.74,-3.62 -2.09,-36.97 -2.46,-3.6 -14.98,1.9 -4.31,-2.41 -2.15,-39.82 -4.92,-7.44 -11.57,-9.86 -2.65,-2.84 -7.96,-7.02 -41.52,-3.22 -8.72,-5.5 -28.25,-21.05 -3.6,-0.95 -10.81,1.33 -25.79,8.34"
     style="opacity:1;fill:none;fill-opacity:0.14;fill-rule:nonzero;stroke:#00985e;stroke-width:5;stroke-linecap:butt;stroke-linejoin:round;stroke-miterlimit:4;stroke-dasharray:none;stroke-opacity:1" />
  <path
     id="path1415"
     d="m 938.09,750.06 -33.75,2.65 -24.84,-21.43 -6.45,-5.12 -15.36,-11.38 -58.4,-41.14 -5.88,-9.48 -3.41,-7.02 -2.09,-40.76 -2.46,-6.83 -11.38,-27.68 -0.95,-7.21 -0.38,-26.92 -1.33,-2.46 -7.58,-0.38 -16.87,-8.34 -1.14,-2.65 -0.19,-10.43 -2.84,-1.9 -26.17,-12.7 -0.95,-2.65 1.71,-4.93 -1.71,-5.69 -3.41,-3.41 -0.19,-3.98 4.74,-10.24 6.07,-7.2"
     style="opacity:1;fill:none;fill-opacity:0.14;fill-rule:nonzero;stroke:#00985e;stroke-width:5;stroke-linecap:butt;stroke-linejoin:round;stroke-miterlimit:4;stroke-dasharray:none;stroke-opacity:1" />
  <path
     id="path1417"
     d="m 1162.71,990.35 2.28,2.82 17.03,-0.54 2.41,1.74 3.62,61.4 -0.94,4.56 0.54,4.56 -2.12,3.89"
     style="opacity:1;fill:none;fill-opacity:0.14;fill-rule:nonzero;stroke:#00985e;stroke-width:5;stroke-linecap:butt;stroke-linejoin:round;stroke-miterlimit:4;stroke-dasharray:none;stroke-opacity:1" />
  <path
     id="path1419"
     d="m 1128.52,1071.73 -2.41,-2.55 -0.8,-18.64 -3.89,-4.29"
     style="opacity:1;fill:none;fill-opacity:0.14;fill-rule:nonzero;stroke:#00985e;stroke-width:5;stroke-linecap:butt;stroke-linejoin:round;stroke-miterlimit:4;stroke-dasharray:none;stroke-opacity:1" />
  <path
     id="path1421"
     d="m 1075.55,1054.76 -29.75,22.47 -3.08,-0.4 -2.95,-4.16 -2.95,-1.07 -17.03,10.59 -6.7,25.34 -2.82,2.28 -4.29,-0.13 -54.57,39.55 -0.67,3.08 0.94,8.31 4.69,8.04 -1.21,3.89 -8.85,7.37 -0.94,2.15 1.21,19.44 -4.42,4.29 -0.67,2.28 4.96,45.72 v 7.24 l -2.49,4.75 -36.88,69.4 -9.11,16.25 -4.1,0.65 -14.91,-7.71 -8.45,-5.71 -6.85,-7.57 -5.81,-10.4 -3.26,-10.63 -1.76,-9.26 0.87,-12.01 3,-11.19 3.45,-10.34 6.15,-7.17 1.45,-9.48"
     style="opacity:1;fill:none;fill-opacity:0.14;fill-rule:nonzero;stroke:#00985e;stroke-width:5;stroke-linecap:butt;stroke-linejoin:round;stroke-miterlimit:4;stroke-dasharray:none;stroke-opacity:1" />
  <path
     id="path1434"
     d="m 1356.55,1090.97 -36.78,18.96 -7.2,4.74 -3.6,1.14 -9.48,-2.46 h -13.46 l -29.96,-20.86 h -3.22 l -3.03,4.36 h -3.22 l -9.67,-6.45 -2.84,-0.95 -19.91,-13.46 -0.38,-5.69 -2.09,-2.65 -26.17,1.14"
     style="opacity:1;fill:none;fill-opacity:0.14;fill-rule:nonzero;stroke:#00985e;stroke-width:5;stroke-linecap:butt;stroke-linejoin:round;stroke-miterlimit:4;stroke-dasharray:none;stroke-opacity:1" />
  <path
     id="path1438"
     d="m 920.84,779.45 -7.58,-13.84 -8.91,-12.89"
     style="opacity:1;fill:none;fill-opacity:0.14;fill-rule:nonzero;stroke:#00985e;stroke-width:5;stroke-linecap:butt;stroke-linejoin:round;stroke-miterlimit:4;stroke-dasharray:none;stroke-opacity:1" />
  <path
     id="path1440"
     d="m 878.18,730.35 -85.7,-2.28 -14.41,-1.9 -5.31,-3.79 -20.67,-14.22 -7.2,-3.98 -20.1,-16.31 -9.48,-9.86 -8.91,-8.53 -7.77,-5.5 -11.57,-4.74 -86.08,-34.7 -4.93,-0.57 -2.28,0.38 -20.67,35.46 -2.09,3.03 -11.76,8.15 -0.38,2.28 0.19,1.9 2.46,1.52 12.32,4.17 1.9,0.19 1.52,-1.33 0.19,-1.71 -3.79,-18.39"
     style="opacity:1;fill:none;fill-opacity:0.14;fill-rule:nonzero;stroke:#00985e;stroke-width:5;stroke-linecap:butt;stroke-linejoin:round;stroke-miterlimit:4;stroke-dasharray:none;stroke-opacity:1" />
  <path
     id="path1444"
     d="m 1108.95,1105.92 3.49,4.96 2.68,33.25 16.22,23.46 0.67,4.56 0.94,19.17 2.55,2.95 10.99,-1.07 1.88,-2.82 -1.47,-22.79 -2.01,-3.08 -13.14,0.54 -2.55,-0.54"
     style="opacity:1;fill:none;fill-opacity:0.14;fill-rule:nonzero;stroke:#00985e;stroke-width:5;stroke-linecap:butt;stroke-linejoin:round;stroke-miterlimit:4;stroke-dasharray:none;stroke-opacity:1" />
  <path
     id="path1446"
     d="m 1062.96,1140.78 -51.75,36.6 -6.57,5.87 -0.19,10.1 8.08,10.51 10.74,8.86 9.53,24.6"
     style="opacity:1;fill:none;fill-opacity:0.14;fill-rule:nonzero;stroke:#00985e;stroke-width:5;stroke-linecap:butt;stroke-linejoin:round;stroke-miterlimit:4;stroke-dasharray:none;stroke-opacity:1" />
  <path
     id="path1448"
     d="m 1377.78,465.09 -11.19,26.92 -2.28,1.52 -18.58,-8.72 -3.6,2.46 -7.02,15.55 -44.18,42.85 -4.93,2.09 -8.15,-1.33 -1.52,0.95 -4.74,5.5 -9.29,14.03 -6.07,13.46 -3.41,13.08 -1.71,11 -0.57,16.69 2.46,15.55 7.94,34.14 11.82,29.07 -1.72,45.36 -7.18,29.32 -3.94,5.25 -7.1,3.89 -3.83,5.82 -3.68,25.63 -3.15,8.87 -18.56,28.59 -15.66,15.83 -43.4,31.33 -3.32,6.51"
     style="opacity:1;fill:none;fill-opacity:0.14;fill-rule:nonzero;stroke:#00985e;stroke-width:5;stroke-linecap:butt;stroke-linejoin:round;stroke-miterlimit:4;stroke-dasharray:none;stroke-opacity:1" />
  <path
     id="path1450"
     d="m 946.19,972.39 -1.84,4.82 -17.82,21.8 -0.19,3.98 7.21,28.25 3.79,23.51 2.28,11.38 1.52,33.75 -2.28,7.96 1.71,23.7 -1.9,8.15 1.52,10.43 -2.46,4.17 -96.32,6.07 -2.46,1.9 0.38,8.53 -0.95,1.9 -3.79,2.28 -1.71,4.17 6.83,20.48 6.07,14.6 20.29,28.63 1.71,7.77 -1.14,3.6 -3.22,3.79 -2.65,0.38 -1.14,-2.84 0.19,-3.6 4.17,-6.45 2.28,-2.84"
     style="opacity:1;fill:none;fill-opacity:0.14;fill-rule:nonzero;stroke:#00985e;stroke-width:5;stroke-linecap:butt;stroke-linejoin:round;stroke-miterlimit:4;stroke-dasharray:none;stroke-opacity:1" />
  <path
     id="path1452"
     d="m 866.23,1242.66 38.3,-21.99 22.37,-14.22 15.26,-0.64"
     style="opacity:1;fill:none;fill-opacity:0.14;fill-rule:nonzero;stroke:#00985e;stroke-width:5;stroke-linecap:butt;stroke-linejoin:round;stroke-miterlimit:4;stroke-dasharray:none;stroke-opacity:1" />
  <path
     id="path1454"
     d="m 1168.46,799.55 5.5,-4.55 7.96,-0.76 2.46,-3.03 -1.52,-33.75 -2.28,-2.84 -11.57,-5.31 -7.96,-5.88 -50.62,-42.28 v -3.6 l 16.69,-20.86 -0.57,-4.74 -11.76,-9.29 -3.79,-15.74 -1.71,-1.71 -13.84,0.38 -3.6,-2.46 -12.7,-52.71"
     style="opacity:1;fill:none;fill-opacity:0.14;fill-rule:nonzero;stroke:#00985e;stroke-width:5;stroke-linecap:butt;stroke-linejoin:round;stroke-miterlimit:4;stroke-dasharray:none;stroke-opacity:1" />
  <path
     id="path1456"
     d="m 1044.84,619.62 4.17,2.28 30.53,-6.83 5.5,1.9"
     style="opacity:1;fill:none;fill-opacity:0.14;fill-rule:nonzero;stroke:#00985e;stroke-width:5;stroke-linecap:butt;stroke-linejoin:round;stroke-miterlimit:4;stroke-dasharray:none;stroke-opacity:1" />
  <path
     style="fill:none;stroke:#00985e;stroke-width:5;stroke-linejoin:round;stroke-opacity:1"
     d="m 1035.08,1243.48 11.57,38.17 -1.35,4.02 -36.21,10.86 -1.06,4.39 7.98,5.02 2.5,-0.49 2.34,-2.68 -1.45,-6.1 1.42,-3.79"
     id="path924" />
  <path
     style="fill:none;stroke:#00985e;stroke-width:5;stroke-linejoin:round;stroke-opacity:1"
     d="m 1252.85,783.72 -13.12,1.04 -57.81,9.48"
     id="path883" />
  <path
     style="fill:none;stroke:#00985e;stroke-width:5;stroke-linejoin:round;stroke-opacity:1"
     d="m 985.34,876.79 31.58,-22.15 6.75,-24.46 2.12,-1.88 58.88,-17.72 5.63,-0.07 24.22,-7.31 19.46,-0.12 19.52,-1.64"
     id="path885" />
  <path
     style="fill:none;stroke:#0097a0;stroke-width:1;stroke-linejoin:round;stroke-dasharray:none;stroke-opacity:1"
     d="m 1291.86,172.13 2.93,-1.11 1.58,-3.79 -1.12,-6.61 1.49,-4.37 34.84,-35.52 7.95,-4.27 11.3,-2.83 10.9,-0.41 38.52,4.5 93.31,-3.34 13.05,2.87 12.9,6.38 8.39,6.42 24.43,27.45"
     id="path4727" />
  <path
     style="fill:none;stroke:#0097a0;stroke-width:5;stroke-linejoin:round;stroke-opacity:1"
     d="m 249.25,947.33 -2.15,-8.1 0.98,-4.89 19.15,-15.9 12.94,-8.16 1.57,-4.87 -10.59,-32.88 -4.48,-6.86 -21.34,-22.38 -15.82,-5.63 -9.05,-6.13 -4.98,-4.29 -0.42,-3.67 1.69,-6.03 -0.57,-4.95 -3.86,-5.15 -5.08,-1.64 -24.07,-4.58 -26,-2.56 -60.76,-11.8 -3.06,-2.78 -3.61,-20.47 -3.7,-5.05 -9.73,-9.25 -3.48,-7.44 -4.29,-37.63 0.57,-57.51 3.75,-13.96 7.1,-15.23 16.42,-20.17 16.1,-25.26 13.2,-17.34 1.98,-6.06 -0.71,-7.38 -3.35,-8.87 -4.09,-4.2 -4.47,-1.91 -9.36,-0.43 -11.48,-4.26 -11.17,-0.49 -2.64,-2.8 -1.71,-6.66 0.31,-19.98 2.28,-10.33 7.34,-13.63 16.44,-26.96 7.02,-17.06 -0,-6.02 -1.84,-5.97 -4.18,-6.48 -13.42,-12.5 -0.77,-4.24 0.88,-5.65 6.98,-13.88 2.04,-29 1.74,-5.15 4.08,-2.54 9.97,-4.09 1.41,-3.24 1.01,-19.52 2.32,-3.42 2.6,-1.11 21.74,3.48 3.64,3.18 8.15,14.19 8.1,4.92 51.51,2.23 15.08,3.72 23.49,1.04 10.85,-0.72 13.21,-10.94 8.46,-3.15 57.82,1.63 24.46,-8.8 5.17,-5.94 6.41,-12.73 6.69,-7.94 10.52,-6.06 8.37,-1.38 14.02,-1.75 22.47,-5.03 11.19,-0.2 8.65,1.25 12.5,4.89 8.91,5.79 87.95,65.53 25.71,16.18 24.38,14.09 11.56,2.83 12.64,0.58 9.36,-0.29 9.03,-3.3 8.3,-7.06 67.57,-91.91 4.93,-9.37 2.09,-8.16 3.72,-26.27 3.62,-11.34 11.01,-19.76 7.77,-6.24 11.47,-8.55 57.54,-26.61 15.25,-8.68 60.26,-25.71 8.46,-5.12 11.96,-9.34 27.43,-34.56 11.17,-7.38 12.27,-1.82 22.2,-0.12 4.15,2.3 16.57,30.58 10.38,12.46 9.01,6.29 19.18,11.17 11.04,4.15 15.97,1.3 14.31,-0.68 21.17,-4.02 21.9,-7.43 23.09,-10.62 37.01,-16.45 5.79,-0.2 5.9,2.41 6.03,6.78 27.73,37.35 24.83,25.48 3.88,1.04"
     id="path326" />
  <path
     style="fill:none;stroke:#0097a0;stroke-width:5;stroke-linejoin:round;stroke-dasharray:none;stroke-opacity:1"
     d="m 1552.34,157.49 9.93,6.22 25.13,16.97 16.64,13.28 4.62,0.68 4.97,-2.29 7.8,-13.8 5.6,-3.8 27.82,7.72 6.59,5.28 3.24,5.65 9.06,22.77 75.68,32.2 130.74,55.06 44.11,13.13 15.23,4.77 15.99,8.87 20.73,15.52 10.58,12.71 6.59,14.68 4.16,14.59 1.07,9.6 -1.93,15.19 -2.77,11.8 -6.4,13.27 -3.59,5.66 0.41,2.98 3.29,2.79 20.94,4.94 11.35,5.34 6,1.79 16.48,-0.61 23.39,-2.24 23.57,-4.71 25.08,-8.26"
     id="path4729" />
  <path
     style="fill:none;stroke:#00985e;stroke-width:5;stroke-linejoin:round;stroke-dasharray:none;stroke-opacity:1"
     d="m 988.12,1036.61 31.67,45.58"
     id="path15111" />
  <path
     style="fill:none;stroke:#00985e;stroke-width:5;stroke-linejoin:round;stroke-dasharray:none;stroke-opacity:1"
     d="m 995.94,633.64 -19.74,-82.66 -37.74,9 -3.63,-0.92 -19.15,-30.94 10.49,-19.2 -0.52,-4.74 10.38,-18.58 -0.97,-3.97 -6.57,-3.54"
     id="path23353" />
  <path
     style="fill:none;stroke:#00985e;stroke-width:5;stroke-linejoin:round;stroke-opacity:1"
     d="m 1115.76,583.58 19.56,-4.13 9.67,0.64 6.93,5.41 8.22,3.57 9.67,-0.75 12.3,-5.87 14.3,-5.86 22.06,-2.68 15.77,0.63 15.82,3.3 24.53,8.74 12.21,6.68 12.48,14.5 65.81,75.27 8.3,13.71 8.66,29.69 -1.17,10.13 -14.29,65.62 29.54,16.52 -20.21,88.49 -12,15.6 -3.73,2.07 -20.28,0.54"
     id="path330" />
  <path
     style="fill:none;stroke:#00985e;stroke-width:5;stroke-linejoin:round;stroke-opacity:1"
     d="m 985.24,588.83 -9.63,2.36 -6.46,10.83 5.28,22.88 8.97,4.87 6.16,26.89 3.15,2.36 7.65,-2.02"
     id="path1775" />
</svg>
