<?xml version="1.0" encoding="UTF-8" standalone="no"?>
<svg
   xmlns:dc="http://purl.org/dc/elements/1.1/"
   xmlns:cc="http://creativecommons.org/ns#"
   xmlns:rdf="http://www.w3.org/1999/02/22-rdf-syntax-ns#"
   xmlns:svg="http://www.w3.org/2000/svg"
   xmlns="http://www.w3.org/2000/svg"
   xmlns:xlink="http://www.w3.org/1999/xlink"
   viewBox="0 0 1100 700"
   height="700"
   width="1100"
   id="svg2"
   version="1.1">
  <metadata
     id="metadata8">
    <rdf:RDF>
      <cc:Work
         rdf:about="">
        <dc:format>image/svg+xml</dc:format>
        <dc:type
           rdf:resource="http://purl.org/dc/dcmitype/StillImage" />
        <dc:title></dc:title>
      </cc:Work>
    </rdf:RDF>
  </metadata>
  <defs
     id="defs6" />
  <image
     xlink:href="streetmap/hkdosm.png"
     width="1258"
     height="1006.4"
     preserveAspectRatio="none"
     id="image10"
     x="-100"
     y="-156.40002"
     style="display:none" />
  <path
     id="path842"
     d="m 1041.0215,198.42972 -8.5508,1.00586 -18.4766,10.66992 -0.2656,0.13281 -22.3887,9.5957 -1.7304,0.0879 -8.5293,-2.66602 -0.8574,-0.46875 -8.7422,-7.31055 -0.2637,-0.25586 -12.8984,-14.50976 -8.3555,-7.05078 -47.4238,-26.40625 -34.34183,-15.41407 -0.30665,-0.16406 -68.31445,-42.93164 -29.17773,-8.48828 -25.70508,-0.53516 -0.36133,-0.0352 -64.48437,-10.83789 -83.27735,-10.01368 -8.81836,51.35157 -0.63672,1.2832 -184.82226,197.83008 -19.69141,28.59375 -3.09179,0.85937 -52.80079,-23.92968 -13.05468,27.86523 -0.25782,0.43164 -46.37304,62.37305 -0.12305,0.15039 -20.33789,23.32226 -0.44922,0.4043 -15.45703,10.84766 -0.54492,0.28906 -14.91406,5.69336 -0.71452,2.25832 29.14718,64.0471 -2.10934,14.19007 -5.94449,10.35492 -35.66695,42.37847 -8.62909,32.98234"
     style="color:#000000;font-style:normal;font-variant:normal;font-weight:normal;font-stretch:normal;font-size:medium;line-height:normal;font-family:sans-serif;font-variant-ligatures:normal;font-variant-position:normal;font-variant-caps:normal;font-variant-numeric:normal;font-variant-alternates:normal;font-feature-settings:normal;text-indent:0;text-align:start;text-decoration:none;text-decoration-line:none;text-decoration-style:solid;text-decoration-color:#000000;letter-spacing:normal;word-spacing:normal;text-transform:none;writing-mode:lr-tb;direction:ltr;text-orientation:mixed;dominant-baseline:auto;baseline-shift:baseline;text-anchor:start;white-space:normal;shape-padding:0;clip-rule:nonzero;display:inline;overflow:visible;visibility:visible;opacity:1;isolation:auto;mix-blend-mode:normal;color-interpolation:sRGB;color-interpolation-filters:linearRGB;solid-color:#000000;solid-opacity:1;vector-effect:none;fill:none;fill-opacity:1;fill-rule:nonzero;stroke:#ff0000;stroke-width:5;stroke-linecap:butt;stroke-linejoin:round;stroke-miterlimit:4;stroke-dasharray:none;stroke-dashoffset:0;stroke-opacity:1;color-rendering:auto;image-rendering:auto;shape-rendering:auto;text-rendering:auto;enable-background:accumulate" />
  <path
     id="path836"
     d="m 1040.4375,193.46292 -9.0625,1.06641 -0.959,0.31836 -18.793,10.85351 -21.4042,9.17188 -7.17,-2.24024 -8.2187,-6.87304 -12.8946,-14.50586 -0.2558,-0.25 -8.6777,-7.32227 -0.3965,-0.27344 -47.7285,-26.57617 -0.1915,-0.0957 -34.28316,-15.38672 -68.46289,-43.02539 -0.63086,-0.2832 -29.83007,-8.67969 -0.64649,-0.0977 -25.85156,-0.53906 -64.36328,-10.81641 -0.11524,-0.0176 -85.69531,-10.30468 -0.24805,-0.0176 v 3e-5 l -2.51367,2.07617 -9.09375,52.95703 -184.43945,197.41992 -0.23242,0.28907 -18.60938,27.02343 -53.14648,-24.08593 -3.29492,1.21679 -13.9961,29.87305 -46.16406,62.0918 -20.07422,23.01953 -14.95508,10.49609 -14.625,5.58399 -14.27194,3.4766 -9.01261,-4.60218 L 134.328,408.19007 110.35828,366.38688 53.0227,319.59798"
     style="color:#000000;font-style:normal;font-variant:normal;font-weight:normal;font-stretch:normal;font-size:medium;line-height:normal;font-family:sans-serif;font-variant-ligatures:normal;font-variant-position:normal;font-variant-caps:normal;font-variant-numeric:normal;font-variant-alternates:normal;font-feature-settings:normal;text-indent:0;text-align:start;text-decoration:none;text-decoration-line:none;text-decoration-style:solid;text-decoration-color:#000000;letter-spacing:normal;word-spacing:normal;text-transform:none;writing-mode:lr-tb;direction:ltr;text-orientation:mixed;dominant-baseline:auto;baseline-shift:baseline;text-anchor:start;white-space:normal;shape-padding:0;clip-rule:nonzero;display:inline;overflow:visible;visibility:visible;opacity:1;isolation:auto;mix-blend-mode:normal;color-interpolation:sRGB;color-interpolation-filters:linearRGB;solid-color:#000000;solid-opacity:1;vector-effect:none;fill:none;fill-opacity:1;fill-rule:nonzero;stroke:#0070c0;stroke-width:5;stroke-linecap:butt;stroke-linejoin:round;stroke-miterlimit:4;stroke-dasharray:none;stroke-dashoffset:0;stroke-opacity:1;color-rendering:auto;image-rendering:auto;shape-rendering:auto;text-rendering:auto;enable-background:accumulate" />
  <path
     id="path844"
     d="m 59.73422,532.64087 107.1926,-26.84609"
     style="opacity:1;fill:none;fill-opacity:1;fill-rule:nonzero;stroke:#f2f2f2;stroke-width:8;stroke-linecap:butt;stroke-linejoin:round;stroke-miterlimit:4;stroke-dasharray:none;stroke-opacity:1" />
</svg>
