<?xml version="1.0" encoding="UTF-8" standalone="no"?>
<svg
   version="1.1"
   id="svg2"
   width="2225"
   height="2050"
   viewBox="-50 -100 2225 2050"
   xmlns:xlink="http://www.w3.org/1999/xlink"
   xmlns="http://www.w3.org/2000/svg"
   xmlns:svg="http://www.w3.org/2000/svg"
   xmlns:rdf="http://www.w3.org/1999/02/22-rdf-syntax-ns#"
   xmlns:cc="http://creativecommons.org/ns#"
   xmlns:dc="http://purl.org/dc/elements/1.1/">
  <metadata
     id="metadata8">
    <rdf:RDF>
      <cc:Work
         rdf:about="">
        <dc:format>image/svg+xml</dc:format>
        <dc:type
           rdf:resource="http://purl.org/dc/dcmitype/StillImage" />
      </cc:Work>
    </rdf:RDF>
  </metadata>
  <defs
     id="defs6" />
  <image
     xlink:href="../timelines/streetmap/hrkosm.png"
     style="display:none;stroke:#f2f2f2;stroke-width:8;stroke-miterlimit:4;stroke-dasharray:none"
     width="2387"
     height="1953"
     preserveAspectRatio="none"
     id="image10"
     x="200.00021"
     y="31.999605" />
  <path
     style="fill:none;fill-rule:evenodd;stroke:#f2f2f2;stroke-width:8;stroke-linecap:butt;stroke-linejoin:round;stroke-miterlimit:4;stroke-dasharray:none;stroke-opacity:1"
     d="m 1868.5002,631.99961 -75,137 -23,28 -163.5,165.5 -25.5,13 -42,5 -107.5,8 -200.5,9 -69.5,2 -51.5,-4.5 -58.5,-13.5 -28,-12 -54.49999,-28 -32,-6 -26,3 -35,9.5 -26,7.5 -26.5,21.5 -20,25.49999 -5.5,22 8,46.5 25.5,51.5 16.5,31.25"
     id="path4508" />
  <path
     style="fill:none;fill-rule:evenodd;stroke:#f2f2f2;stroke-width:8;stroke-linecap:butt;stroke-linejoin:round;stroke-miterlimit:4;stroke-dasharray:none;stroke-opacity:1"
     d="m 1140.5002,1357.4996 22,-85 4.5,-59.5 v -23.5 l -3.5,-22.5 -6,-15.5 -11,-18.5 -20,-14 -118,-50 -39.49999,-20.5 -83.5,-41 -18.5,-13.49999 -7,-11 -4.5,-22 -11.5,-17 -22,-24.5 -10.5,-14.5 -5.5,-16 -77.5,-400 -5.5,-20 -9,-20 -13,-19.5 -19,-13.5 -16.5,-8.5 -15,-2 -8.5,-4.5 -13,-12.5 -9,-15.5 -5.5,-17.5 -24,-111.5 L 561.85234,133.14875 537.79242,101.211"
     id="path4506" />
  <path
     style="fill:none;fill-rule:evenodd;stroke:#f2f2f2;stroke-width:8;stroke-linecap:butt;stroke-linejoin:round;stroke-miterlimit:4;stroke-dasharray:none;stroke-opacity:1"
     d="m 347.50021,1285.9996 139.5,-74.5 46,-22.5 30,-9.5 36.5,-5.5 22,-9.5 26,-16 35.5,-8 78.5,-21 33.5,-4.5 21.89433,3.3748 13.85567,12.3752 25.75,49.75 13.5,22 34,49 10.5,28 13.5,15.5 67,44 18.49999,5.5 h 18.5 l 28,-11.5 29.5,-2.5 27,3 13.5,2.5 73,23.5 38.5,5.5 143,38.5 45,5.5 61,15 34,18 188.5,93.5 45.5,14 240.5,74.5 82.5,20.5 40,18.5 85,42.5 78,33 118,62 85.5,41.5"
     id="path4510" />
  <path
     id="path833"
     d="m 581.82841,1203.5492 20.22445,-2.8089 -10.67402,-88.5756 v -51.3102 l 54.11914,8.4268 21.53529,29.4004 13.48297,-9.925 20.59898,11.7976 4.30706,-0.9363 2.99622,-2.9962 27.71499,-77.9016 -13.67023,-8.0523 -8.42686,-8.6141 -7.30327,-14.23209 -2.24717,-11.04851 -0.56179,-18.35182 5.61791,-48.87576 -0.93632,-24.15698 -8.23959,-48.6885 -6.92875,-31.64752 -23.22067,-54.68093 -22.47161,-47.75218 -37.45269,-70.97285 -28.83857,-59.9243 -13.48297,-12.54665 -54.11914,-44.94323 -16.66644,-26.02962 3.558,-45.69228 -24.34425,-85.76666 -58.05167,-76.59075 1.31085,-8.23959 42.5088,-48.87576 170.12971,-251.458904"
     style="opacity:1;fill:none;fill-opacity:1;fill-rule:nonzero;stroke:#ba2d20;stroke-width:5;stroke-linecap:butt;stroke-linejoin:round;stroke-miterlimit:4;stroke-dasharray:none;stroke-opacity:1" />
  <path
     style="opacity:1;fill:none;fill-opacity:1;fill-rule:nonzero;stroke:#ba2d20;stroke-width:5;stroke-linecap:butt;stroke-linejoin:round;stroke-miterlimit:4;stroke-dasharray:none;stroke-opacity:1"
     d="m 4.120662,1423.2093 115.541548,2.4344 14.23202,-3.558 15.9174,-7.8651 147.18907,-105.4293 111.79628,-55.8045 h 5.24337 l 19.10088,-9.925 29.96215,-7.3033 61.79694,-9.1759 27.1532,-1.3108 52.80829,-8.0523 42.32154,-4.1198"
     id="path835" />
  <path
     id="path841"
     d="m 647.18335,1213.0997 154.49234,-19.2882 3.74527,15.5429 4.1198,3.1835 15.16834,-2.6217 2.0599,62.3587 5.05611,18.1646 -2.24716,14.232 2.62169,22.0971 -5.99243,23.0334 -6.36696,57.1153 -63.29505,-1.3109 -0.56179,64.4187 -29.77489,71.5347 -68.53842,83.5195 -20.03719,11.7975 -11.61033,11.9849 -18.72635,30.8985 -7.49053,22.8461 -7.67781,2.6217"
     style="opacity:1;fill:none;fill-opacity:1;fill-rule:nonzero;stroke:#ba2d20;stroke-width:5;stroke-linecap:butt;stroke-linejoin:round;stroke-miterlimit:4;stroke-dasharray:none;stroke-opacity:1" />
  <path
     id="path843"
     d="m 1148.3003,1855.0388 -18.7263,1.1235 -1.8727,-2.6216 1.3109,-8.8014 3.1835,0.1872 16.2919,10.4868 114.9797,22.4716 65.9168,0.1873 0.9363,-28.0895 -2.0599,-46.0669 v -66.4785 l 51.872,-207.1134 20.4117,-47.5649 18.3518,-67.0403 -154.8669,-39.3253 -23.7824,-8.9887 -9.3632,0.3746 -45.1305,-10.674 -24.906,-8.0524 -42.5088,-13.4829 -4.8689,-7.6778 -10.2995,-4.8689 -9.3631,-3.7453 -26.7787,-21.5353 36.3291,-47.7521 5.6179,-3.9326 56.179,-73.5945 36.8909,30.5239 39.6999,21.1608 28.5065,28.3035 24.7171,-16.3928 5.0318,-6.6207 123.1462,-83.4217 17.214,34.428 91.1017,-1.589 27.8072,3.4428 162.6059,35.7521 31.25,6.6208 49.5233,4.5021 9.7987,0.2649 25.1589,-5.2967 64.8835,-26.483 194.6504,-37.6059 6.0911,-7.6801"
     style="opacity:1;fill:none;fill-opacity:1;fill-rule:nonzero;stroke:#ba2d20;stroke-width:5;stroke-linecap:butt;stroke-linejoin:round;stroke-miterlimit:4;stroke-dasharray:none;stroke-opacity:1" />
  <path
     id="path845"
     d="m 1067.028,1297.7427 -60.4861,80.7106 -29.02583,10.1122 -48.1267,11.0486 -69.10022,6.5542 -40.4489,0.749"
     style="opacity:1;fill:none;fill-opacity:1;fill-rule:nonzero;stroke:#ba2d20;stroke-width:5;stroke-linecap:butt;stroke-linejoin:round;stroke-miterlimit:4;stroke-dasharray:none;stroke-opacity:1" />
  <path
     id="path870"
     d="m 1423.1464,1146.0165 21.7161,-18.2733 342.161,-339.77749 18.5381,-29.13136 59.3221,-115.73093 -113.0826,-57.20339 -52.9661,-11.38771 -29.6611,-3.97246 -41.5784,-0.79449 -53.4957,1.05932 -32.3093,-5.03178 -6.6208,2.38348 -57.7331,101.43008 -32.8389,53.23093 -4.767,12.71187 -12.7119,42.63771 -21.1864,32.30932 -23.5699,28.07204 -67.5318,69.12076 -50.3178,49.78813 -45.5508,27.27755 8.4745,7.15043 7.4153,14.56569 5.5614,14.036 0.7945,16.6843 38.4005,21.4513 11.6525,10.0635 25.4237,47.9344 12.4471,31.7796 12.447,-5.0318 15.0953,33.8983 12.1822,5.5615"
     style="opacity:1;fill:none;fill-opacity:1;fill-rule:nonzero;stroke:#ba2d20;stroke-width:5;stroke-linecap:butt;stroke-linejoin:round;stroke-miterlimit:4;stroke-dasharray:none;stroke-opacity:1" />
</svg>
