<?xml version="1.0" encoding="UTF-8" standalone="no"?>
<!-- Created with Inkscape (http://www.inkscape.org/) -->

<svg
   version="1.1"
   id="svg2"
   width="1050"
   height="1100"
   viewBox="0 0 1050 1100"
   xmlns:xlink="http://www.w3.org/1999/xlink"
   xmlns="http://www.w3.org/2000/svg"
   xmlns:svg="http://www.w3.org/2000/svg">
  <defs
     id="defs6" />
  <g
     id="g8">
    <image
       width="1084"
       height="1445.3334"
       preserveAspectRatio="none"
       style="display:none;image-rendering:optimizeSpeed"
       xlink:href="iarosm.png"
       id="image10"
       x="-10"
       y="-275" />
    <path
       style="fill:none;stroke:#cc0000;stroke-width:5;stroke-linejoin:round;stroke-opacity:1"
       d="m 508.26084,929.7057 20.02485,-9.3264 363.51043,12.5682 63.99476,24.9475 2.85088,5.3286 -11.89025,48.0347 2.96112,3.3339 38.7205,6.7314 2.05697,3.7503 -3.93437,18.5024"
       id="path860" />
    <path
       style="fill:none;stroke:#cc0000;stroke-width:5;stroke-linejoin:round;stroke-opacity:1"
       d="m 891.79612,932.9475 4.71719,-6.0963 L 783.95022,691.2663 760.57579,506.63716 755.09521,495.19967 740.95532,484.09333 730.1137,475.95249 722.85427,466.90076 718.5166,453.93532 707.22605,436.56618 668.92828,401.58666 640.37586,384.11992 614.32705,370.77936 583.20226,357.50328 543.00124,345.8271 427.71213,327.39712 409.39619,325.94276 395.92361,311.116 H 387.403 l -61.39247,43.69407 -5.57285,-0.18385 -9.15372,-13.67684 -16.18971,-10.55036 -8.81228,-8.77746 -2.93288,-6.73028 1.3285,-16.59687 -3.19333,-4.41835 -90.41681,-49.9456 L 180.84331,235.363 61.341183,105.90401 v -4.45478 L 112.02899,54.49805"
       id="path862" />
  </g>
</svg>
