<?xml version="1.0" encoding="UTF-8" standalone="no"?>
<svg
   xmlns:dc="http://purl.org/dc/elements/1.1/"
   xmlns:cc="http://creativecommons.org/ns#"
   xmlns:rdf="http://www.w3.org/1999/02/22-rdf-syntax-ns#"
   xmlns:svg="http://www.w3.org/2000/svg"
   xmlns="http://www.w3.org/2000/svg"
   xmlns:xlink="http://www.w3.org/1999/xlink"
   id="svg2"
   version="1.1"
   width="2175"
   height="2175"
   viewBox="0 0 2175 2175">
  <metadata
     id="metadata8">
    <rdf:RDF>
      <cc:Work
         rdf:about="">
        <dc:format>image/svg+xml</dc:format>
        <dc:type
           rdf:resource="http://purl.org/dc/dcmitype/StillImage" />
        <dc:title></dc:title>
      </cc:Work>
    </rdf:RDF>
  </metadata>
  <defs
     id="defs6" />
  <image
     xlink:href="../timelines/streetmap/istosm.png"
     style="display:none"
     y="-623.66602"
     x="-1225"
     id="image10"
     preserveAspectRatio="none"
     height="4323.6665"
     width="6104" />
  <path
     style="opacity:0.99918;fill:none;stroke:#f2f2f2;stroke-width:8;stroke-linejoin:round;stroke-miterlimit:4;stroke-dasharray:none;stroke-opacity:1"
     d="m -187.18064,1016.1415 48.45775,15.465 24.2531,3.0804 21.1917,-2.1951 20.0176,-6.6311 51.8544,-20.63 104.44149,-29.43126 10.865,-7.8575 7.546,-17.2158 22.2433,-90.218 9.9742,-10.9678 14.2661,-10.1418 57.6404,-33.2526 29.0999,-25.0115 24.7378,-27.6049 26.4045,-30.2208 25.4357,-57.30981 16.5437,-36.5313 36.8921,-50.6242 20.5323,-19.10131 23.7987,-9.8134 42.8747,-2.3172 24.974,2.9265 98.5813,43.87861 18.9186,3.9296 14.4779,-1.9396 20.7609,-7.9682 20.2552,-20.61111 12.8414,-12.215 11.3865,-3.6876 19.1979,-2.4196 38.5942,8.7096 35.1725,13.631 24.8394,16.69141 20.6229,7.0422 49.1521,13.6626 19.6909,6.3264 32.9084,22.3196 16.0411,4.9246 28.134,2.1986 31.3542,-2.557 90.3467,-8.0172 32.5643,4.8129 98.2833,13.7566 89.8168,5.3871 21.0669,1.3192 15.7063,-5.6222 41.4409,-31.8876 12.1404,-4.6179 15.5223,0.4019 88.3129,35.1616 14.1035,15.825 10.0151,25.9934 8.9326,38.86791 9.674,24.6444 20.8078,26.1462 27.7641,28.8352 24.4711,13.2551 57.5816,19.4398 70.9013,22.0285"
     id="path860" />
  <path
     style="fill:none;fill-rule:evenodd;stroke:#f2f2f2;stroke-width:8;stroke-linecap:butt;stroke-linejoin:round;stroke-miterlimit:4;stroke-dasharray:none;stroke-opacity:1"
     d="m 2027.6884,2015.9112 30.6554,-23.4935 19.4835,-22.8703 16.7686,-17.8005 19.3113,-24.7987 5.3244,-17.4381 4.8898,-27.3393 7.3347,-34.5984 14.3791,-23.5085 20.1356,-13.1585 25.9073,-0.354 36.9634,5.9051 50.1627,8.7571 121.8136,32.5004 99.5034,50.3501 77.0663,35.5988 44.7993,24.679 147.9865,85.0105 15.6701,10.4509 41.3372,35.6057 47.9361,43.1827 31.0315,28.2996 17.9036,32.2729 12.4274,45.5023 28.6933,89.7765 25.2331,51.8048 24.6735,34.0394 153.5673,192.3507 27.2064,33.8123 97.6618,97.8057 69.9296,65.622 110.8132,117.6118 42.7644,50.5424 21.2217,30.9172 20.9051,15.6526 39.9002,14.8098 92.6266,29.1681 55.3438,22.7362 42.5658,27.3798 104.5306,43.2821 89.2772,20.0162 172.089,76.2333 47.5245,21.4356 36.7824,21.5769 38.6219,31.357 388.2007,344.8521"
     id="path4184-3" />
  <path
     style="fill:none;fill-rule:evenodd;stroke:#f2f2f2;stroke-width:8;stroke-linecap:butt;stroke-linejoin:round;stroke-miterlimit:4;stroke-dasharray:none;stroke-opacity:1"
     d="m 2143.3223,-286.83666 -28.2683,22.0405 -15.9992,11.5977 -10.1398,12.0883 -5.1657,15.3665 -13.4287,74.2223 0.215,18.1275 4.2681,39.102796 -0.7173,21.0535 -14.8657,54.2212 -1.9565,25.7731996 11.4867,137.6606044 7.2816,24.1467 -2.0336,12.93819 -9.644,11.3066 -15.2869,7.9723 -67.159,13.1828 -24.4641,9.2788 -29.6169,21.0464 -50.5877,49.317 -17.1661,34.1079 -12.2278,72.47059 -9.6525,34.6363 0.2192,21.5311 25.7327,86.86 9.5076,21.1582 23.0141,37.40651 40.7227,75.9759 15.79,35.96951 8.0783,26.0853 1.6706,22.0136 -6.2332,16.8954 -11.5735,8.2316 -20.6688,11.7572 -35.8587,17.9294 -36.7772,10.4208 -35.2981,6.5518 -64.0383,3.6065 -11.5417,3.862 -16.2089,11.956 -73.5862,59.8359 -13.4107,16.1827 -8.12,16.52 -2.0907,17.3837 1.6203,25.474 4.7732,49.47106 4.4824,44.8233 -2.4663,45.6384 -5.9238,76.9094 -4.6495,32.7041 -13.5096,62.5803 -6.5097,15.5098 -11.376,11.7461 -91.9965,80.6681 -45.1264,30.0718 -9.5001,7.538 -26.1318,34.7472 -53.788,73.7548 -10.5947,17.5219 -30.2897,42.7179 -8.1515,20.3737 -4.5482,37.5569 -0.797,59.0396 -5.1513,15.5922 -12.0023,9.9063 -28.9583,10.4206 -60.0987,15.9392"
     id="path4180-6" />
  <path
     style="fill:none;fill-rule:evenodd;stroke:#f2f2f2;stroke-width:8;stroke-linecap:butt;stroke-linejoin:round;stroke-miterlimit:4;stroke-dasharray:none;stroke-opacity:1"
     d="m 1723.7467,311.79473 40.2376,2.1181 32.866,4.3379 28.386,11.8846 18.0472,20.4819 4.1295,12.4636 3.4532,26.55149"
     id="path4182-7" />
  <path
     id="path4190-5"
     d="m -30.18779,1385.0793 -20.0507,-45.5448 -15.708,-24.1086 -33.46,-22.9539 -10.5301,-15.4706 -15.5925,-70.4685 -15.1655,-50.3862 -37.96505,-87.1749 -4.408,-24.6814 8.0338,-51.03576 -0.4043,-16.7044 -5.8441,-24.8206 -26.5991,-54.136 -27.0847,-33.4237 -31.1186,-28.2373 -25.9322,-16.1356 -28.2298,-9.6494 -80.4872,-3.8868 -48.2676,-4.1478 -15.4417,-5.2171 -9.0992,-7.6413 -53.7304,-58.8982 -18.353,-10.5409 -98.3498,7.4704 -42.7871,-3.7262 -92.7797,-18.44071 -81.8305,-53.5932 -60.50846,-8.0678"
     style="fill:none;fill-rule:evenodd;stroke:#f2f2f2;stroke-width:8;stroke-linecap:butt;stroke-linejoin:round;stroke-miterlimit:4;stroke-dasharray:none;stroke-opacity:1" />
  <path
     style="fill:none;fill-rule:evenodd;stroke:#f2f2f2;stroke-width:8;stroke-linecap:butt;stroke-linejoin:round;stroke-miterlimit:4;stroke-dasharray:none;stroke-opacity:1"
     d="m 559.7114,1263.5253 -13.2543,24.2034 -12.6779,13.2542 -20.1695,2.8814 -13.2543,-5.1864 -11.0818,-9.5083 -9.0877,-12.4795 -3.0472,-6.7158 -20.425,-46.6021 -8.5325,-13.1978 -17.0997,-9.8405 -18.5626,-6.4495 -19.3938,3.8125 -21.2781,12.8115 -17.3749,13.1444 -13.5378,15.0929 -13.4602,19.0169 -24.2034,23.6271 -24.7797,24.7797 -17.8309,20.6573 -18.0522,11.6474 -27.2288,6.6649 -29.0915,-4.3933 -81.651,-9.8879 -42.74669,-9.8697 -34.7064,-19.9127 -13.5653,-3.719 -20.8515,4.3559 -14.872,11.203 -8.3785,15.8358 -5.9247,20.8035 -8.328,33.5032"
     id="path4188-6-5" />
  <path
     style="opacity:1;fill:none;fill-opacity:1;fill-rule:nonzero;stroke:#f2f2f2;stroke-width:8;stroke-linecap:butt;stroke-linejoin:round;stroke-miterlimit:4;stroke-dasharray:none;stroke-opacity:1"
     d="m 1930.8801,1480.8667 55.334,-17.3031 17.8439,-16.7624 17.6636,-11.7157 72.3694,-1.4725 35.176,-0.3173 19.5007,-2.9827 12.8689,5.1638 27.5382,67.9906 25.585,43.5478 12.9773,8.8318 9.7331,4.8665 14.7797,2.1629 14.5995,-3.9653 60.561,-26.8559 67.4102,-18.0241 37.3099,-8.6516 22.3499,-4.506 10.2737,0.3605 16.0415,7.5701 39.4728,31.3619 89.3996,80.9283 11.8959,4.506 19.2858,-0.9012 22.8906,-9.1923 26.8559,-12.4366 11.5354,-13.5181 5.0468,-18.5649 4.506,-47.7638 7.2097,-15.3205 c 0,0 10.6342,-11.175 11.3551,-11.175 0.721,0 20.5475,-7.0294 20.5475,-7.0294 l 92.2834,-18.0241 22.7104,-7.9306 31.1817,0.5407 46.322,9.7331 141.6695,29.5595 80.5677,36.7692 25.7745,3.9653 34.9668,-2.1629 h 24.5127 l 23.0709,5.5875 58.5784,43.6183 55.8747,18.7451 150.6815,9.3725 109.7668,8.2911 39.8976,3.4996 27.3732,-1.6216 20.3264,-6.5643 50.107,-12.2564 29.5595,-5.227 22.3499,1.8024 46.2818,24.846 103.859,11.9232"
     id="path1515-6" />
  <path
     style="fill:none;fill-rule:evenodd;stroke:#f2f2f2;stroke-width:8;stroke-linecap:butt;stroke-linejoin:round;stroke-miterlimit:4;stroke-dasharray:none;stroke-opacity:1"
     d="m 6546.1328,5179.2328 -169.7871,-72.8174 -26.3152,-16.9426 -155.0073,-137.3437 -111.0285,-98.7721 -34.9667,-23.7919 -32.083,-12.6168 -189.974,-46.1417 -56.2353,-9.3726 -56.2352,-25.2337 -36.7692,-36.4087 -69.9335,-72.8174 -15.5007,-20.908 -11.175,-43.9788 -7.5701,-24.5128 -10.454,-15.5007 -30.2805,-33.5249 -127.6106,-116.4357 -61.282,-63.8053 -45.7812,-33.8853 -28.4781,-30.2805 -57.6772,-58.7586 -53.7118,-84.7133 -16.9427,-20.5475 -22.3499,-14.0588 -25.5942,-9.0121 -38.2111,2.5234 -32.4434,0.3605 -22.7104,-6.4887 -25.2337,-14.7798 -18.0241,-24.1523 -17.6637,-34.6063 -14.4192,-18.745 -19.4661,-17.3032 -66.3287,-31.7224 -85.4343,-68.1311 -48.665,-37.8506 -79.6666,-33.8854 -16.9427,-10.4539 -47.5836,-45.4208 -22.3499,-15.5007 -22.7104,-3.2444 -87.9576,7.9306 h -27.3967 l -121.8429,-34.6062 -30.641,-15.5008 -53.3514,-36.4087 -22.3498,-1.4419 -24.8733,8.2911 -15.1403,1.0814 -33.5248,-9.3725 -37.4901,-21.6289 -36.0483,-2.5234 -12.6168,-5.0468 -21.2685,-18.3845 -16.9426,-11.5355 -18.3846,-2.1629 -17.3032,3.9653 -11.8959,6.8492 -11.8959,12.6169 -16.2217,7.9306 -15.5007,2.1629 -16.5822,-4.3258 -10.8145,-5.0468 -10.0935,-12.6168 -19.8265,-46.1418 -12.9773,-25.5942 -20.187,-29.92 -39.6531,-33.1644 -83.6318,-103.8188 -65.2473,-56.5957 -16.5822,-24.5128 -8.6515,-18.3846 -15.8613,-15.1402 -272.8849,-152.484 -18.7451,-11.5354 -14.4193,-12.6169 -103.4584,-137.7042 -69.573,-112.4704 -5.4073,-14.4193 -1.0814,-14.7797 1.8024,-24.5128 v -14.7798 l -6.8492,-13.6983 -12.2563,-11.175 -14.4193,-5.4072 -45.7813,3.2443 -12.2564,-1.4419 -14.0588,-8.2911 -25.2337,-32.0829 -33.1644,-56.2352 -12.2564,-13.3378 -41.4554,-17.3032 -16.5822,-10.0935 -10.0935,-13.6983 -6.8491,-32.4434 -5.7678,-13.3378 -15.8612,-11.5355 -81.4689,-18.3846 -13.3379,-5.7677 -16.2217,-16.5821 -3.9653,-19.4661 6.1282,-26.6757 v -16.5821 l -17.3031,-32.0829 -16.9427,-57.3167 -8.6516,-16.5822 -89.76,-80.748 -22.3499,-10.454 h -15.5007 l -130.4946,27.0362 -23.0708,-2.8839 -73.8989,-42.5369 -10.8144,-9.012 -5.7677,-11.5354 -20.187,-66.6892 -41.816,-68.8521 -17.6636,-19.4661 -47.5836,-34.6062 -27.0362,-51.549 0.3605,-16.9426 3.3924,-17.028 5.3913,-25.076 1.6299,-69.68 -15.2334,-83.2525 -13.2905,-67.5171 -11.4096,-35.8587 -11.4096,-28.9314 -14.6695,-28.9315 -11.0021,-18.3368 -17.5218,-19.9668 -18.3369,-11.0021 -26.4865,-10.5946 -26.0791,-2.0374 -28.5239,4.8898 -35.8587,12.2245 -36.6737,13.8545 -229.4142,102.6863 -52.1581,28.1165 -45.1839,23.2111 -42.206,7.8518 -24.5275,5.3129 -19.8573,17.6943 -36.1093,36.7991 -24.4491,19.9668 -26.894,14.6695 -20.7818,10.1871 -34.2287,8.5572 -17.9294,3.6674 -44.4159,2.4449 -83.9419,21.1892 -109.6136,30.1539 -51.3431,32.1914 -22.00424,26.4865 -24.0416,27.3015 -48.0833,55.0105 -11.8171,12.6321 -11.4096,7.7422 -15.0769,2.0374 -16.2994,-3.6674 -48.0833,-12.6322 -19.9959,-2.9664 -15.5008,2.5234 -18.745,12.9774 -13.3379,14.7797 -32.8038,50.4675 -21.629,22.3499 -36.7691,40.7345 -17.3032,9.012 -24.1523,5.7678 -19.1055,1.8024 -134.8204,0.3605 -201.87,41.4554 -175.915204,-7.5701 -23.7919,3.9653 -29.199,9.733 -25.5943,14.4193 -21.628896,23.7918 -14.7797,22.3499 -9.3726,19.1056 -35.6877,97.3301 -7.9306,18.7451 -14.0588,16.9427 -21.629,18.0241 -14.7797,11.5354 -17.6636,8.6516 -22.3499,7.5701 -22.7104,3.6048 -26.6757,-2.5234 -281.1761,-32.0829 -16.9426,-3.9653 -16.9427,-11.1749 -18.0241,-20.908 -31.7224,-45.0603 -16.5822,-13.6983 -20.187,-11.8959 -108.8656,-47.5836 -51.1885,-22.3499 -19.8265,-13.6983 -9.733,-16.5822 -2.5234,-18.0241 4.6863,-16.9427 8.2911,-22.7104 0.7209,-12.9773 -4.3257,-18.3846 -10.8145,-16.9427 -14.7798,-19.8265 -6.8491,-17.3031 -6.4887,-39.6531 -8.2911,-21.2684 -17.6636,-20.5475 -23.4314,-30.641 -6.12816,-19.8265 -2.5233,-32.0829 v -22.7104 l 13.33776,-27.7571 10.454,-17.6636 20.5475,-18.3846 16.2217,-14.4193 12.9773,-18.0241 8.6516,-29.5595 -0.721,-11.5355 -6.1282,-18.745 -12.6168,-16.2217 -11.175,-6.4887 -34.9668,-12.6169 -14.77966,-11.1749 -11.5355,-17.3032 -2.8838,-15.1402 v -64.5263"
     id="path4176-3" />
  <path
     style="fill:none;fill-rule:evenodd;stroke:#f2f2f2;stroke-width:8;stroke-linecap:butt;stroke-linejoin:round;stroke-miterlimit:4;stroke-dasharray:none;stroke-opacity:1"
     d="m 2316.8619,556.65913 -33.4138,7.7422 -18.3368,0.4075 h -10.5946 l -58.2704,54.19551 -22.0042,11.8171 -32.5988,22.0042 -13.8545,6.9272 -11.4096,13.4471 -8.5572,2.4449 -66.0126,6.9272 -34.2288,5.2973 -58.2704,15.4845"
     id="path4178" />
  <path
     style="fill:none;fill-rule:evenodd;stroke:#f2f2f2;stroke-width:8;stroke-linecap:butt;stroke-linejoin:round;stroke-miterlimit:4;stroke-dasharray:none;stroke-opacity:1"
     d="m -7.91749,1997.4977 53.019146,6.5366 16.1356,2.8814 21.322,-6.339 36.305104,-14.9831 25.9322,-19.0169 108.2034,-44.5763 105.017,-4.4068 13.8305,-5.1864 81.8305,-60.5085 23.0508,-9.2203 28.2373,-3.4577 19.017,-2.8813 14.4067,-9.2204 29.9661,-39.1864 9.7966,-20.7458 4.6102,-29.9661 10.9492,-24.2034 23.6271,-37.4576 6.339,-19.0169 3.4576,-39.7627 5.1864,-29.9661 -0.5762,-24.2034 -4.6102,-20.1695 -13.8305,-42.0678 -2.8814,-72.6102 -7.4915,-18.4407 -10.9491,-23.0508 -10.9492,-35.1526 -21.322,-36.305 -2.8814,-11.5255 1.1526,-18.4406 5.1864,-51.8645 -4.6102,-16.1355 -17.8644,-26.5085 -2.8813,-18.4407 -0.5763,-17.2881 5.1864,-14.4068 12.1017,-9.7966 20.7458,-10.3729 h 14.4068 l 10.3729,0.5763 16.1355,9.7966 9.2204,14.4068 4.6102,12.1017 -4.0339,19.0169 -1.1526,14.9831 v 12.1016 l 10.3729,13.8306 7.4915,6.9152 20.7458,8.6441 36.3051,5.7627 68.5762,12.1017 31.1187,12.1017 25.3559,21.8983 23.6271,26.5085 10.9492,32.2711 8.6441,24.2034 16.7118,16.1356 23.6271,12.1017 13.2543,12.678 7.4915,17.8644 16.1356,40.339 20.1695,23.6271 221.86444,198.2373 18.4407,28.2373 1.7288,69.7288"
     id="path4186" />
  <path
     style="fill:none;fill-rule:evenodd;stroke:#f2f2f2;stroke-width:8;stroke-linecap:butt;stroke-linejoin:round;stroke-miterlimit:4;stroke-dasharray:none;stroke-opacity:1"
     d="m 1481.4576,1434.1021 -1.1525,81.2543"
     id="path4194" />
  <path
     style="fill:none;fill-rule:evenodd;stroke:#f2f2f2;stroke-width:8;stroke-linecap:butt;stroke-linejoin:round;stroke-miterlimit:4;stroke-dasharray:none;stroke-opacity:1"
     d="m 1616.3051,1299.8309 74.9152,45.2373"
     id="path4196" />
  <path
     style="fill:none;fill-rule:evenodd;stroke:#f2f2f2;stroke-width:8;stroke-linecap:butt;stroke-linejoin:round;stroke-miterlimit:4;stroke-dasharray:none;stroke-opacity:1"
     d="m 1669.3678,1198.4484 43.1935,-19.1518"
     id="path4198" />
  <path
     style="fill:none;fill-rule:evenodd;stroke:#f2f2f2;stroke-width:8;stroke-linecap:butt;stroke-linejoin:round;stroke-miterlimit:4;stroke-dasharray:none;stroke-opacity:1"
     d="m 1010.4642,1046.0489 13.0395,55.8255"
     id="path4200" />
  <path
     style="fill:none;fill-rule:evenodd;stroke:#f57e46;stroke-width:5;stroke-linecap:butt;stroke-linejoin:round;stroke-miterlimit:4;stroke-dasharray:none;stroke-opacity:1"
     d="m 53.408956,74.067336 17.4396,17.4395 11.0021,4.0749 30.561404,12.632004 11.0021,8.9647 6.5197,12.632 64.7902,179.701 1.6299,57.048"
     id="path4826" />
  <path
     style="fill:none;fill-rule:evenodd;stroke:#f57e46;stroke-width:1;stroke-linecap:butt;stroke-linejoin:round;stroke-miterlimit:4;stroke-dasharray:none;stroke-opacity:1"
     d="m 196.35396,362.48454 17.1144,117.76329 4.4823,12.632 16.2995,18.7444 40.7485,28.9314 13.447,17.9294 71.7174,100.64881 35.0437,37.4887 8.5572,5.7048 53.3806,26.4865 35.0437,32.1913 55.418,30.9689 81.0896,74.1998 26.894,74.5323 77.8297,72.53236 9.3722,19.1518 5.2973,16.2994 0.4075,21.1893 24.4491,46.0458 18.3368,13.8545 37.4887,74.1623 12.632,14.262 23.2267,23.2267 39.9335,74.5698 8.1497,8.1497 87.60944,38.3036 9.3721,7.3347 13.8545,23.2267 -0.815,5.2973 -33.41374,42.7859 -53.3806,68.8651 -34.2288,37.8961 -23.3552,12.7606 -20.6752,3.0711"
     id="path4828" />
  <path
     id="path5456"
     d="m 407.49466,1746.7628 2.549,20.9018 23.4507,56.0779 8.6666,11.2155 14.2744,11.2156 9.1764,3.5686 13.2547,-2.0392 29.0176,-4.4842 23.5953,1.1662 24.3667,-5.3486"
     style="fill:none;fill-rule:evenodd;stroke:#054d7e;stroke-width:1;stroke-linecap:butt;stroke-linejoin:round;stroke-miterlimit:4;stroke-dasharray:none;stroke-opacity:1" />
  <path
     id="path5460"
     d="m 408.00446,1748.802 -4.5882,-52.5092 -10.196,-48.4309 -18.8625,-6.1176 -16.8234,-17.3332 -5.098,-1.5293 -14.2743,5.0979 -38.2349,-19.3723 -21.9214,-19.8822 -17.8429,-29.0585 -22.4312,-21.9213 -12.2351,-20.392 -24.9802,-20.3919 -7.1372,-16.3136 -12.7449,-18.8625 -8.6666,-42.3133 -6.6274,-22.4312 5.098,-46.3917"
     style="fill:none;fill-rule:evenodd;stroke:#054d7e;stroke-width:5;stroke-linecap:butt;stroke-linejoin:round;stroke-miterlimit:4;stroke-dasharray:none;stroke-opacity:1" />
  <path
     id="path929"
     d="m 1647.1805,213.95184 7.9307,3.9653 5.4072,8.2911 -0.3605,15.1403 5.4072,8.291 10.454,3.6049 15.1403,4.3257 30.641,28.1177"
     style="opacity:1;fill:none;fill-opacity:1;fill-rule:nonzero;stroke:#f2f2f2;stroke-width:8;stroke-linecap:butt;stroke-linejoin:round;stroke-miterlimit:4;stroke-dasharray:none;stroke-opacity:1" />
  <path
     id="path836"
     d="m 1486.2187,1428.2346 3.5851,-3.7738 6.7929,-12.0763 12.4537,-45.286 5.8494,-13.3971 59.0606,-32.455 27.3603,-12.0763 5.0946,-3.7738"
     style="opacity:1;fill:none;fill-opacity:1;fill-rule:nonzero;stroke:#93aaa1;stroke-width:5;stroke-linecap:butt;stroke-linejoin:round;stroke-miterlimit:4;stroke-dasharray:none;stroke-opacity:1" />
  <path
     id="path838"
     d="m 2025.311,2090.1652 36.9836,20.1901 23.9638,7.7363 7.359,-13.7745 5.2834,1.8869 2.8303,-2.8303 0.7548,-16.6049 8.4911,-24.5299 6.0382,-39.0592 2.0756,-10.9441 -16.7936,-5.6608 -43.7765,-9.2459 -9.0572,12.831 -11.8875,8.8686 -8.8686,5.0946 -9.8119,12.4537 12.0762,27.1716 0.9435,4.1512 -2.453,10.7554 z"
     style="opacity:1;fill:none;fill-opacity:1;fill-rule:nonzero;stroke:#9f552b;stroke-width:5;stroke-linecap:butt;stroke-linejoin:round;stroke-miterlimit:4;stroke-dasharray:none;stroke-opacity:1" />
  <path
     style="opacity:1;fill:none;fill-opacity:1;fill-rule:nonzero;stroke:#00ffff;stroke-width:5;stroke-linecap:butt;stroke-linejoin:round;stroke-miterlimit:4;stroke-dasharray:none;stroke-opacity:1"
     d="m 1472.7708,1584.7643 c 43.7408,-81.7615 299.0359,45.2105 347.2881,127.1474 48.2522,81.9369 70.957,135.5599 101.8447,172.9422 30.8877,37.3823 44.3238,46.9638 67.7374,59.6389 23.4136,12.6751 66.9691,18.5676 66.9691,18.5676"
     id="path835" />
  <path
     style="opacity:1;fill:none;fill-opacity:1;fill-rule:nonzero;stroke:#00ffff;stroke-width:5;stroke-linecap:butt;stroke-linejoin:round;stroke-miterlimit:4;stroke-dasharray:none;stroke-opacity:1"
     d="m 2056.6101,1963.0604 c 0,0 -44.2784,-13.5212 -63.7123,-25.6148 -25.4166,-15.8165 -47.9629,-36.7423 -66.8606,-59.9596 -37.7758,-46.4103 -60.2316,-104.5175 -87.3839,-158.3307 -111.7358,-221.4491 -273.8146,-144.6902 -327.6339,-187.9389"
     id="path837" />
  <path
     style="opacity:1;fill:none;fill-opacity:1;fill-rule:nonzero;stroke:#00ffff;stroke-width:5;stroke-linecap:butt;stroke-linejoin:round;stroke-miterlimit:4;stroke-dasharray:none;stroke-opacity:1"
     d="m 1717.9642,1323.8689 c 43.6433,45.8184 189.8736,55.0559 246.8039,109.9143"
     id="path839" />
  <path
     style="opacity:1;fill:none;fill-opacity:1;fill-rule:nonzero;stroke:#00ffff;stroke-width:5;stroke-linecap:butt;stroke-linejoin:round;stroke-miterlimit:4;stroke-dasharray:none;stroke-opacity:1"
     d="m 1964.7681,1433.7832 c -58.648,-54.9057 -46.3449,-123.1024 -93.0044,-201.3082"
     id="path841" />
  <path
     style="opacity:1;fill:none;fill-opacity:1;fill-rule:nonzero;stroke:#00ffff;stroke-width:5;stroke-linecap:butt;stroke-linejoin:round;stroke-miterlimit:4;stroke-dasharray:none;stroke-opacity:1"
     d="m 1495.5462,1598.1449 c 63.8209,-87.2303 411.1853,-187.4977 469.2219,-164.3617"
     id="path843" />
  <path
     style="opacity:1;fill:none;fill-opacity:1;fill-rule:nonzero;stroke:#00ffff;stroke-width:5;stroke-linecap:butt;stroke-linejoin:round;stroke-miterlimit:4;stroke-dasharray:none;stroke-opacity:1"
     d="m 2018.1872,1999.0599 c 0,0 -78.3533,-65.9826 -111.071,-101.8646 -45.4691,-49.8667 -66.639,-117.37 -99.9585,-176.055 -59.4341,-104.6801 -335.6423,-204.2396 -368.2653,-143.4933"
     id="path845" />
  <path
     style="opacity:1;fill:none;fill-opacity:1;fill-rule:nonzero;stroke:#00ffff;stroke-width:5;stroke-linecap:butt;stroke-linejoin:round;stroke-miterlimit:4;stroke-dasharray:none;stroke-opacity:1"
     d="m 1470.0236,1533.2092 c 22.7075,37.9879 243.8758,-15.8061 343.2336,183.1149 28.5865,57.232 64.1454,136.4414 93.889,167.3892 34.8423,36.2531 111.041,115.3466 111.041,115.3466"
     id="path847" />
  <path
     style="opacity:1;fill:none;fill-opacity:1;fill-rule:nonzero;stroke:#00ffff;stroke-width:5;stroke-linecap:butt;stroke-linejoin:round;stroke-miterlimit:4;stroke-dasharray:none;stroke-opacity:1"
     d="m 1470.0236,1533.2092 c 31.6823,65.3014 393.0168,-106.4047 494.7445,-99.426"
     id="path849" />
  <path
     style="opacity:1;fill:none;fill-opacity:1;fill-rule:nonzero;stroke:#00ffff;stroke-width:5;stroke-linecap:butt;stroke-linejoin:round;stroke-miterlimit:4;stroke-dasharray:none;stroke-opacity:1"
     d="m 1470.0236,1533.2092 c 3.1903,8.8499 -3.567,22.5983 -31.1312,44.4378"
     id="path851" />
  <path
     style="opacity:1;fill:none;fill-opacity:1;fill-rule:nonzero;stroke:#00ffff;stroke-width:5;stroke-linecap:butt;stroke-linejoin:round;stroke-miterlimit:4;stroke-dasharray:none;stroke-opacity:1"
     d="m 1438.8924,1577.647 c 40.9169,-39.4138 481.49,-177.2954 525.8757,-143.8638"
     id="path853" />
  <path
     id="path848"
     d="m 555.84606,1839.0364 21.9214,-2.0392 16.3135,-11.2156 16.3136,-7.6469 12.2352,-5.098 22.4311,-2.0392 15.8038,-1.5294 15.2939,-5.098 57.6073,-6.1176 4.0784,-2.0392 v -8.1568 l -4.0784,-3.5686 -5.6078,-19.3723 3.0588,-15.8038 7.647,-20.9017 -1.5294,-4.0784 -3.5686,-10.7058 5.098,-46.3917 13.2547,-40.7839 7.1372,-6.6273 26.5096,-13.7646 13.2547,-14.7842 14.2744,-4.5882 9.6862,-8.6665 27.0193,-7.647 43.8427,-6.1176 13.7646,3.5686 173.33154,111.6459 23.4508,10.7058 69.8424,24.4703 40.2741,4.0784 47.9211,1.0196 85.6462,-1.0196 50.47,9.1764 28.5488,6.6274 97.3715,8.6666 6.6274,-1.0196 2.0392,-4.0784 2.0392,-32.6272 -7.647,-8.1567 5.098,-22.941 -20.3919,-26.5095 -9.1764,-6.1176 -1.9796,-6.7598 8.0972,-18.1806 -1.0183,-2.4143"
     style="fill:none;fill-rule:evenodd;stroke:#054d7e;stroke-width:5;stroke-linecap:butt;stroke-linejoin:round;stroke-miterlimit:4;stroke-dasharray:none;stroke-opacity:1" />
  <path
     id="path852"
     d="m 1508.1515,1614.3896 -0.9812,-2.3261 -24.5101,-12.1227 -21.9213,-3.0588 -3.5686,-3.0588 -1.5294,-6.6274 36.2156,-67.9885"
     style="fill:none;fill-rule:evenodd;stroke:#054d7e;stroke-width:1;stroke-linecap:butt;stroke-linejoin:round;stroke-miterlimit:4;stroke-dasharray:none;stroke-opacity:1" />
  <path
     id="path5458"
     d="m 1491.8565,1519.2073 3.0389,-15.1087 36.7055,-36.1957 31.6075,-18.8625 71.8816,-29.0585 10.196,-9.6862 20.392,-36.1957 30.0781,-35.1761"
     style="fill:none;fill-rule:evenodd;stroke:#054d7e;stroke-width:5;stroke-linecap:butt;stroke-linejoin:round;stroke-miterlimit:4;stroke-dasharray:none;stroke-opacity:1" />
  <path
     style="fill:none;stroke:#7472b5;stroke-width:5;stroke-linejoin:round;stroke-opacity:1"
     d="m 1325.3054,1497.1461 -7.891,-10.4408 -4.8354,-12.4835 -3.6209,-14.5406 -4.4865,-6.606 -12.267,-5.7249 -10.0909,-13.4156 -8.9042,-3.9785 -14.9897,-1.6778 -18.4001,-7.6188 -8.1754,-7.5011 -15.2895,-22.125 -10.4656,-17.3161 -33.4834,-40.7259 -8.6361,-13.727 -18.3478,-39.85 -3.6779,-12.5575 -6.4706,-7.8614 -33.5063,-18.0283 -10.0027,-9.2091 -10.991,-18.9553 -15.9545,-37.4227 -5.2318,-26.775 -2.7825,-10.9202 -23.2471,-33.8846 -1.1095,-6.4472 1.3256,-30.0862 10.6818,-16.3439 3.4966,-19.5504 16.1193,-19.3796 16.2953,-10.9454 36.1114,-10.81348 14.5052,-8.07723 15.4115,-17.17597 4.3246,-12.71087 -4.795,-12.69958 -14.0894,-26.39029 -9.8577,-9.33028 -4.9343,-8.20061 -1.0993,-9.57861 3.4698,-11.53252 13.6527,-26.85025 0.5089,-16.39903 -8.7792,-16.60587 -2.2259,-8.2072 -3.3706,-29.82278 3.907,-11.03087 7.9379,-9.65061 15.9252,-7.94463 10.1657,-12.59883 10.627,-13.80402 15.3368,-3.73074 13.3363,-17.66388 1.5364,-32.65105 -4.2355,-44.08617 -7.6449,-41.9478 0.8668,-10.99849 2.2791,-11.53228 -3.0395,-8.66932 -32.4014,-17.23073 -25.9946,-1.39404"
     id="path865" />
</svg>
