<?xml version="1.0" encoding="UTF-8" standalone="no"?>
<svg
   version="1.1"
   width="2975"
   height="2175"
   viewBox="0 0 2975 2175"
   id="svg2"
   xmlns:xlink="http://www.w3.org/1999/xlink"
   xmlns="http://www.w3.org/2000/svg"
   xmlns:svg="http://www.w3.org/2000/svg"
   xmlns:rdf="http://www.w3.org/1999/02/22-rdf-syntax-ns#"
   xmlns:cc="http://creativecommons.org/ns#"
   xmlns:dc="http://purl.org/dc/elements/1.1/">
  <metadata
     id="metadata8">
    <rdf:RDF>
      <cc:Work
         rdf:about="">
        <dc:format>image/svg+xml</dc:format>
        <dc:type
           rdf:resource="http://purl.org/dc/dcmitype/StillImage" />
      </cc:Work>
    </rdf:RDF>
  </metadata>
  <defs
     id="defs6" />
  <path
     style="fill:none;stroke:#f2f2f2;stroke-width:8;stroke-linecap:butt;stroke-linejoin:round;stroke-miterlimit:4;stroke-dasharray:none;stroke-opacity:1"
     id="path3006-3"
     d="m 678,935.5 31.03,-8.68 28.05,-9.84 21.26,-2 15.62,3.44 17.07,10.19 14.2,21.19 18.08,16.57 37.16,12.31 135.02,33.81 16,6.5 66.27,29.71 17.75,12.5 40.03,48.59 53.95,43.69 48.95,46.74 38.21,61.97 15.59,10.74 47.2,2.73 80.33,-2.64 23.77,7.42 18.82,14.15 18.58,19.26 12.04,25.08 9.97,33.45 2.15,22.95 9.36,40.22 9.76,18.8 39.47,59.4 13.31,12.23 22.13,8.92 30.5,2.04 25.74,1.25 15.12,4.28 19.09,10.39 18.09,11.06 8.4,12.87 27.41,105.68 27,41.85 32.91,100.34 29.19,42.48 100.13,185.44 22.27,30.89 28,29 96,57 16.5,5.5 19.5,2 273.5,21 27.52,-0.55 77.68,-14.52 405.61,-96.32 104.69,-26.11 36,-0.5 34.5,2.5 39.4,7.32 20.61,0.88 14.33,-5.25 18.65,-11.95 53.02,-56.14 64.48,-37.86" />
  <path
     style="fill:none;stroke:#f2f2f2;stroke-width:8;stroke-linecap:butt;stroke-linejoin:round;stroke-miterlimit:4;stroke-dasharray:none;stroke-opacity:1"
     id="path3776-6"
     d="m 1348.5,215.5 -4,217.5 -5.5,363 3.86,34.04 7.72,55.98 5.02,29.12 6.81,18.61 16.1,21.75 67.09,76.43 56.91,60.07 24,27 13.5,16 13.5,16.5 48,50.5 23.08,26.27 2.96,14.83 -4.71,32.07 -6.44,25.51 -13.46,18.65 -5.24,18.3 1.79,29.88 5.37,23.69 -3.83,23.73 -13.42,21.38 -20.07,16.27 -18.05,22.43 -20.28,25.11 -5.34,22.58 0.89,94.68 1.89,60.83 8.84,38.3 56.77,129.82 11.03,28.63 -1.31,43.55 -7.88,19.83 -10.17,15.06 -15.74,23.5 -22.71,21.11 -16,18.5 -9,27.5 -21.5,42 -31,40.5 -18,16.5 -44,22 -56.5,19.5 -127,33 -20.07,17 -66.27,159.39 -7.75,10.34 -54.5,43.89 -166.02,169.74" />
  <path
     style="fill:none;stroke:#f2f2f2;stroke-width:8;stroke-linecap:butt;stroke-linejoin:round;stroke-miterlimit:4;stroke-dasharray:none;stroke-opacity:1"
     id="path3778-7"
     d="m -59.29,1105.09 6.3,70.48 5.19,40.86 8.5,14.55 16.59,11.62 23.24,7.5 62.73,-4.6 227.2,-25.77 186.18,-19.99 49.96,-5.26 18.93,1.05 34.19,8.41 170.23,39.81 25.38,10.07 114.16,30.59 140.42,43.65 94.14,32.61 25.77,11.04 23.14,14.2 22.09,21.56 20.51,25.24 25.24,32.61 15.25,10.52 25.24,4.21 22.61,1.05 75.43,-23.09 18.05,-7.92 18.65,-12.68 20.27,-4.06 47.36,-0.48 26.94,-10.68 21.04,-8.41 24.13,-23.76 24.89,-7.06 22.5,-3.89 22.77,2.7 26.08,2.7 90.53,31.42 158.7,65.16 22.22,0.58 19.99,-7.36 96.25,-42.07 31.03,-7.36 27.35,-16.3 124.65,-54.17 293.47,-126.75 101.5,-31.03 28.93,-14.2 47.86,-20.51 39.44,-25.77 62.59,-26.3" />
  <image
     xlink:href="../timelines/basemap/kbposm.png"
     x="-165"
     y="-65"
     width="3655"
     height="2795"
     id="image10"
     style="display:none" />
  <path
     d="m 1267,1401.5 -11.5,-3.5 -14,0.5 -14,1.5 -21.5,-5.5 -58.5,-15.5 -18.5,-3.5 -25.5,1 -42.5,12.5 -64,18.5 -18,0.5 -72,-15 -14,1 -823.88,331.05 -7.62,-3.55"
     id="path3780"
     style="fill:none;stroke:#e48516;stroke-width:1;stroke-linecap:butt;stroke-linejoin:round;stroke-miterlimit:4;stroke-dasharray:none;stroke-opacity:1" />
  <path
     d="m 235.5,1659 4.5,11 -2.5,19 -18.5,63.5 -8.5,10 -14.5,14 -0.5,6.5 3,8 79.5,59.5 11.5,4.5 22.5,10 12,10 6.5,10.5 7,14 5,19.5 12.5,19 12,16 17,14.5 19,11.5 27.5,10.5 26,3.5"
     id="path3782"
     style="fill:none;stroke:#e48516;stroke-width:5;stroke-linecap:butt;stroke-linejoin:round;stroke-miterlimit:4;stroke-dasharray:none;stroke-opacity:1" />
  <path
     style="fill:none;stroke:#e48516;stroke-width:5;stroke-linecap:butt;stroke-linejoin:round;stroke-miterlimit:4;stroke-dasharray:none;stroke-opacity:1"
     d="m 1250,1439.5 34.5,-23 -0.5,-6 -8.5,-4.5 -9.5,-5 6.1,-25.94 3.02,-4.88 10.75,-6.09 0.36,-5.14 -30.24,-39.8 -30.69,-97.61 -21.88,-32.86"
     id="path3784" />
  <path
     d="m 2547,435.5 -3.5,-2 v -5.5 l 24,-38 21,-45 18,-60 6,-49.5 8,-106 -4,-5.5 -19,-2 -29.5,-2 -17.5,7.5 -6.5,1.5 -10,0.5 -10.5,-7 -10,-15.5 -28.74,-38.36 2.27,-4.17 13.34,0.4 -1.15,23.07"
     id="path3828"
     style="fill:none;stroke:#e48516;stroke-width:5;stroke-linecap:butt;stroke-linejoin:round;stroke-miterlimit:4;stroke-dasharray:none;stroke-opacity:1" />
  <path
     id="path825"
     d="m 235.5,1659 1.36,-1.35"
     style="opacity:1;fill:none;fill-opacity:1;fill-rule:nonzero;stroke:#e48516;stroke-width:1;stroke-linecap:butt;stroke-linejoin:round;stroke-miterlimit:4;stroke-dasharray:none;stroke-opacity:1" />
  <path
     style="opacity:1;fill:none;fill-opacity:1;fill-rule:nonzero;stroke:#e48516;stroke-width:5;stroke-linecap:butt;stroke-linejoin:round;stroke-miterlimit:4;stroke-dasharray:none;stroke-opacity:1"
     d="m 1075.97,767.7 -61.13,-56.77 -27.3,-40.7 -1.26,-6.57 -2.02,-20.73 1.01,-15.42 5.31,-15.67 0.25,-11.63 -0.92,-5.24 -19.67,-33.94 0.11,-9.54 -65.65,-286.12 -5.58,-5.98 -21.35,-5.52"
     id="path580" />
  <path
     style="opacity:1;fill:none;fill-opacity:1;fill-rule:nonzero;stroke:#e48516;stroke-width:5;stroke-linecap:butt;stroke-linejoin:round;stroke-miterlimit:4;stroke-dasharray:none;stroke-opacity:1"
     d="m 617.46,1800.81 2.78,-7.33 8.09,-4.3 15.67,-41.97 -34.63,-14.41 -30.84,-16.18 -20.22,-16.69 -16.69,-18.96 -15.17,-23.76 -26.04,-63.96 v -8.85 l -22.75,-56.63 0.51,-5.31 -11.88,-28.82 -5.06,-13.4 -1.01,-14.92 3.79,-13.15 4.8,-8.34 11.88,-10.62 99.1,-38.43 0.76,-3.29 -28.57,-70.79 -2.53,-12.39 1.01,-64.97 9.1,-13.15 16.43,-16.18 15.67,-7.08 10.11,-7.33 38.17,-17.44 12.89,0.25 49.04,-21.49 98.34,-16.18 146.37,-5.56 27.3,0.25 59.16,9.35 140.31,11.12 17.95,8.6 7.49,12.49 4.63,7.7 11.59,-6.69 15.22,-9.45 19.47,-0.25 13.9,-22.5 45.25,-3.03 15.17,8.85 50.06,-3.03 12.89,-7.58 13.4,-5.31 7.08,-1.52 h 5.31 l 12.64,6.83 75.34,-72.56 29.07,27.05 -15.93,17.44 -29.79,-28.86"
     id="path827" />
  <path
     style="opacity:1;fill:none;fill-opacity:1;fill-rule:nonzero;stroke:#e48516;stroke-width:5;stroke-linecap:butt;stroke-linejoin:round;stroke-miterlimit:4;stroke-dasharray:none;stroke-opacity:1"
     d="m 2651.56,2115.82 8.58,-15.73 -3.93,-35.04 -32.53,-85.09 v -8.94 l 162.31,-65.78 122.99,-124.06 -17.88,-17.16 -53.99,-141.22 -133.36,59.35 -7.15,-0.72 -21.45,-43.98 -63.64,-168.75 9.65,-26.81 3.58,-2.5 14.3,-41.12 5.72,-2.15 32.36,12.6 42.52,15.7 4.75,-5.55 -54.62,-122.26 0.78,-11.5 -8.95,-23.09 1.4,-5.9 -1.88,-5.71 6.4,-11.15"
     id="path1119" />
  <path
     style="opacity:1;fill:none;fill-opacity:1;fill-rule:nonzero;stroke:#e48516;stroke-width:5;stroke-linecap:butt;stroke-linejoin:round;stroke-miterlimit:4;stroke-dasharray:none;stroke-opacity:1"
     d="m 2543.5,428 -69.64,105.42 -15.73,17.16 -44.33,31.46 -14.3,11.08 -3.93,8.58 -1.07,6.08 -2.15,55.06 -0.36,10.37 -42.55,32.89 27.89,123.34 80.08,164.82 10.01,10.01 99.39,51.13 14.3,12.87 26.46,59.35 4.29,5.72 44.82,105.92 h 10.85 l 18.72,-49.47 8.44,-14.13 7.66,-7.71 54.63,-24.84 -4.1,-10.09"
     id="path831" />
  <path
     style="fill:none;stroke:#e48516;stroke-width:5;stroke-linejoin:round;stroke-opacity:1"
     d="m 987.78,591.3 2.27,-5.63 40.2,-13.33 39.2,-2.58 85.64,0.82"
     id="path499" />
  <path
     style="fill:none;stroke:#e48516;stroke-width:5;stroke-linejoin:round;stroke-dasharray:none;stroke-opacity:1"
     d="m 2656.68,1239.26 4.45,11.15"
     id="path4881" />
</svg>
