<?xml version="1.0" encoding="UTF-8" standalone="no"?>
<svg
   xmlns:dc="http://purl.org/dc/elements/1.1/"
   xmlns:cc="http://creativecommons.org/ns#"
   xmlns:rdf="http://www.w3.org/1999/02/22-rdf-syntax-ns#"
   xmlns:svg="http://www.w3.org/2000/svg"
   xmlns="http://www.w3.org/2000/svg"
   xmlns:xlink="http://www.w3.org/1999/xlink"
   version="1.1"
   id="svg2"
   width="1525"
   height="1850"
   viewBox="0 0 1525 1850">
  <metadata
     id="metadata8">
    <rdf:RDF>
      <cc:Work
         rdf:about="">
        <dc:format>image/svg+xml</dc:format>
        <dc:type
           rdf:resource="http://purl.org/dc/dcmitype/StillImage" />
        <dc:title></dc:title>
      </cc:Work>
    </rdf:RDF>
  </metadata>
  <defs
     id="defs6" />
  <g
     id="g10">
    <image
       xlink:href="basemap/kejosm.png"
       y="-35"
       x="-110"
       id="image12"
       style="display:none;image-rendering:optimizeSpeed"
       preserveAspectRatio="none"
       height="1920"
       width="1728" />
    <path
       style="fill:none;stroke:#006e36;stroke-width:5;stroke-linejoin:round;stroke-opacity:1"
       d="m 630.45,1712.03 -13.48,12.38 -11.78,-11.44 13.55,-12.92 93.08,91.55 4.27,-0.78 120.84,-112.55 0.12,-5.56 -133.03,-142.74 -67.27,-28.84 -18.55,-16.66 -2.66,-195.05 -3.05,-4.93 -0.17,-95.99 43.5,-106.69 10.37,-5.15 4.28,-12.31 -4.34,-4.28 5.59,-19.07 6.45,-6.94 19.19,-49.71 22.01,-61.17 47.07,-91.33 7.02,-7.79 5.84,-2.73 13.08,-37.83 9.53,-10.72 11.63,-6.02 25.86,-35.92 1.26,-48.71 17.02,-51.5 75.46,-13.99 64.46,-24.45 94.3,-173.26 99.7,-183.44 v -5.91 l -32.56,-104.52 -6.02,-3.19 -156.39,-47.9 -3.11,-8.93"
       id="path855" />
    <path
       style="fill:none;stroke:#006e36;stroke-width:5;stroke-linejoin:round;stroke-opacity:1"
       d="m 663.49,1078.19 10.15,4.2 4.46,-8.57 0.66,-6.56 -8.3,-2.91"
       id="path857" />
    <path
       style="fill:none;stroke:#006e36;stroke-width:5;stroke-linejoin:round;stroke-opacity:1"
       d="m 678.76,1067.25 5.78,0.43 44.31,18.18 -3.85,11.59 2.45,170.35 -115.91,1.76"
       id="path859" />
    <path
       style="fill:none;stroke:#006e36;stroke-width:5;stroke-linejoin:round;stroke-opacity:1"
       d="m 727.45,1267.79 195.89,-3.54 3.77,4.06 2.1,122.72 3.97,2.88 376.29,-5.06 6.49,2.69 132.34,254.23 9.21,8.74"
       id="path861" />
    <path
       style="fill:none;stroke:#006e36;stroke-width:5;stroke-linejoin:round;stroke-opacity:1"
       d="m 64.95,1231.77 9.31,-8.62 5.89,-1.9 23.95,-0.21 26.55,7.22 14.4,1.15 59.94,-5.52 86.11,-9.41 9.58,0.38 156.06,61.22 12.99,25.76 8.76,2.19 5.1,-7.1 133.39,53.76"
       id="path863" />
  </g>
</svg>
