<?xml version="1.0" encoding="UTF-8" standalone="no"?>
<svg
   version="1.1"
   id="svg2"
   width="650"
   height="700"
   viewBox="0 0 650 700"
   xmlns:xlink="http://www.w3.org/1999/xlink"
   xmlns="http://www.w3.org/2000/svg"
   xmlns:svg="http://www.w3.org/2000/svg"
   xmlns:rdf="http://www.w3.org/1999/02/22-rdf-syntax-ns#"
   xmlns:cc="http://creativecommons.org/ns#"
   xmlns:dc="http://purl.org/dc/elements/1.1/">
  <metadata
     id="metadata8">
    <rdf:RDF>
      <cc:Work
         rdf:about="">
        <dc:format>image/svg+xml</dc:format>
        <dc:type
           rdf:resource="http://purl.org/dc/dcmitype/StillImage" />
      </cc:Work>
    </rdf:RDF>
  </metadata>
  <defs
     id="defs6" />
  <image
     xlink:href="streetmap/kp_osm.png"
     style="display:none"
     y="-150"
     x="-60"
     id="image12"
     preserveAspectRatio="none"
     height="1056"
     width="1056" />
  <path
     style="opacity:0.99918;fill:none;stroke:#d0324d;stroke-width:5;stroke-linejoin:round;stroke-opacity:1"
     d="m 506.49332,195.15881 12.8925,-0.92726 56.46184,5.39785 -0.38266,35.58441 -19.47115,28.84157 9.25461,13.41995 -7.49585,66.73531 -5.77838,6.85898 -0.54742,8.16692 -2.08124,4.44084 -7.92477,1.02478 -41.32603,0.86708 -5.53915,3.04568 -21.25154,21.26445 -102.6021,131.08546 -8.55975,14.08104 -71.02148,92.15384 -4.43793,2.06234 -32.0598,2.15631 -5.11421,-57.51998 -10.25763,-23.35275 -15.17211,-97.80044 3.73819,-12.2562 -8.67535,-45.57428 -4.15679,-3.08817 -158.45398,5.83368"
     id="path837" />
  <path
     style="opacity:0.99918;fill:none;stroke:#d0324d;stroke-width:5;stroke-linejoin:round;stroke-opacity:1"
     d="m 205.99964,56.52598 81.9888,54.00728 40.62618,22.46325 19.82825,16.61122 25.43893,17.55579 5.53875,1.65562 5.5629,-3.20692 33.76141,-35.49934 h 4.8902 l 86.88689,40.63159 0.39764,2.32098 -8.56036,16.00114 0.9951,2.29221 3.13899,3.80001 -3.0353,17.98959 1.63343,3.56401 21.35471,5.78545 9.97525,-1.09428 5.48105,0.6248 7.98111,47.64342 10.31417,0.94665"
     id="path839" />
</svg>
