<?xml version="1.0" encoding="UTF-8" standalone="no"?>
<svg
   xmlns:dc="http://purl.org/dc/elements/1.1/"
   xmlns:cc="http://creativecommons.org/ns#"
   xmlns:rdf="http://www.w3.org/1999/02/22-rdf-syntax-ns#"
   xmlns:svg="http://www.w3.org/2000/svg"
   xmlns="http://www.w3.org/2000/svg"
   xmlns:xlink="http://www.w3.org/1999/xlink"
   version="1.1"
   id="svg2"
   width="1025"
   height="1000"
   viewBox="0 0 1025 1000">
  <metadata
     id="metadata8">
    <rdf:RDF>
      <cc:Work
         rdf:about="">
        <dc:format>image/svg+xml</dc:format>
        <dc:type
           rdf:resource="http://purl.org/dc/dcmitype/StillImage" />
        <dc:title></dc:title>
      </cc:Work>
    </rdf:RDF>
  </metadata>
  <defs
     id="defs6" />
  <g
     id="g10">
    <image
       xlink:href="streetmap/lnxosm.png"
       y="-80"
       x="-15"
       id="image12"
       style="display:none;image-rendering:optimizeSpeed"
       preserveAspectRatio="none"
       height="1168"
       width="1168" />
    <path
       style="fill:none;stroke:#f43d00;stroke-width:5;stroke-linejoin:round;stroke-opacity:1"
       d="m 251.7478,620.93886 h 6.86986 l 0.55012,47.86196 12.56727,24.90822 48.86043,53.72452 4.42863,1.10304 58.7084,-17.50112 75.5751,-15.76789 9.76739,1.87176 3.63822,-2.27169 0.48733,-14.08863 30.91038,-46.23953 5.92586,1.12997 90.6696,164.60217 74.7435,-38.50586 7.19884,0.55729 38.72019,22.45303 48.43829,6.67711 10.68993,-0.5977 37.14578,-15.66763 36.73021,-47.04366 10.68223,-5.65664 6.86563,-3.04152 71.31312,-98.90673 -0.88592,-6.58243 -98.84248,-71.86171 -6.86323,0.92496 -71.64012,99.73748 v 5.69127 l 85.23034,60.45262 4.41177,7.77719 1.16973,5.23705 -2.22038,7.5274"
       id="path855" />
    <path
       style="fill:none;stroke:#f43d00;stroke-width:5;stroke-linejoin:round;stroke-opacity:1"
       d="m 817.64292,795.18788 53.97084,65.70767 90.08819,65.01315 3.0131,8.7749"
       id="path857" />
    <path
       style="fill:none;stroke:#f43d00;stroke-width:5;stroke-linejoin:round;stroke-opacity:1"
       d="m 258.61766,620.93886 -0.81371,-10.97996 2.87097,-3.00528 57.07344,0.29751 13.19209,7.03506 34.7111,-5.95009 0.21452,-5.8787 -19.73361,-25.66782 -1.49541,-9.49447 20.95962,-31.55029 2.379,-7.32412 1.08283,-33.80458 14.50813,-99.98576 2.63272,-2.96516 16.45779,0.45392 4.48887,5.34405 2.11215,6.87148 2.32041,1.76624 28.76563,1.2365 3.21773,-3.70883 -0.84697,-47.14414 -54.49592,-4.8711"
       id="path859" />
    <path
       style="fill:none;stroke:#f43d00;stroke-width:5;stroke-linejoin:round;stroke-opacity:1"
       d="m 442.71496,356.48442 -2.73342,-28.74241 12.54592,-21.84419 -11.67893,-45.11757 5.8339,-18.09056 -12.37844,-36.92612 -33.32457,-131.59964 -36.13128,3.21963 -21.29485,-0.22973 -31.36188,-2.75894 -25.24186,-0.44586 -22.7949,5.00838 -29.65753,5.08298 -66.01606,24.1921 -37.21198,20.55747 -64.054507,37.63005"
       id="path861" />
  </g>
</svg>
