<?xml version="1.0" encoding="UTF-8" standalone="no"?>
<svg
   xmlns:dc="http://purl.org/dc/elements/1.1/"
   xmlns:cc="http://creativecommons.org/ns#"
   xmlns:rdf="http://www.w3.org/1999/02/22-rdf-syntax-ns#"
   xmlns:svg="http://www.w3.org/2000/svg"
   xmlns="http://www.w3.org/2000/svg"
   xmlns:xlink="http://www.w3.org/1999/xlink"
   version="1.1"
   id="svg2"
   width="1225"
   height="1200"
   viewBox="0 0 1225 1200">
  <metadata
     id="metadata8">
    <rdf:RDF>
      <cc:Work
         rdf:about="">
        <dc:format>image/svg+xml</dc:format>
        <dc:type
           rdf:resource="http://purl.org/dc/dcmitype/StillImage" />
        <dc:title></dc:title>
      </cc:Work>
    </rdf:RDF>
  </metadata>
  <defs
     id="defs6" />
  <image
     style="display:none"
     width="1464"
     height="1464"
     preserveAspectRatio="none"
     xlink:href="../timelines/basemap/nceosm.png"
     id="image10"
     x="-30"
     y="-74" />
  <path
     style="opacity:1;fill:none;fill-opacity:0.4;fill-rule:nonzero;stroke:#1a75bc;stroke-width:1;stroke-linecap:butt;stroke-linejoin:round;stroke-miterlimit:4;stroke-dasharray:none;stroke-opacity:1"
     d="m 672.51,643.97 51.66,-25.22 9.36,-6.51 5.29,-8.95 2.85,-7.32 4.07,-14.64 7.73,-8.14 128.95,-48.41 37.36,-15.33 13.03,-1.8 26.29,-0.67 14.16,-3.6 13.71,-6.29 10.56,-0.22 9.44,2.25 9.44,6.29 4.72,6.07 20.67,34.61 5.62,4.94 5.84,2.7 33.03,3.6"
     id="path817" />
  <path
     style="opacity:1;fill:none;fill-opacity:0.4;fill-rule:nonzero;stroke:#1a75bc;stroke-width:5;stroke-linecap:butt;stroke-linejoin:round;stroke-miterlimit:4;stroke-dasharray:none;stroke-opacity:1"
     d="m 672.51,643.97 -60.2,31.73 -24,20.34 -41.49,37.83 -18.71,20.75 -22.37,32.54 -15.86,15.46 -20.75,32.54 -11.8,28.47 -2.44,10.58 -19.53,47.19 -6.51,10.98 -67.93,65.49 -6.92,3.66 -71.59,-12.2 -4.07,0.81 -13.02,6.1 -3.39,-0.45 -1.18,-16.72 -11.89,-13.65 -51.08,-89.67 -8.93,-1.95 -37.42,15.46 -11.8,-5.69 -17.9,6.1"
     id="path819" />
  <path
     style="opacity:1;fill:none;fill-opacity:0.4;fill-rule:nonzero;stroke:#1a75bc;stroke-width:5;stroke-linecap:butt;stroke-linejoin:round;stroke-miterlimit:4;stroke-dasharray:none;stroke-opacity:1"
     d="m 265.32,996.24 -2.68,5.74 6.28,57.26 -3.7,5.25 -62.19,8.85 -6.19,2.09 -23.1,4.52 -3.03,4.03 3.21,23.79 4.92,3.44 10.08,2.85 3.75,6.81 2.17,15.47"
     id="path821" />
  <path
     id="path818"
     d="m 738.38,61.79 8.91,-0.64 22.92,207.56 2.23,4.46 11.78,7 34.06,-1.59 4.78,92 94.55,208.84 7.32,2.23 53.16,-22.6 13.69,-7.64 19.74,-27.7 15.28,-9.87 42.02,-102.19 7.96,-38.2 73.22,12.42 16.24,1.91 v -99.96 l -13.37,-49.34 3.5,-50.94 -3.82,-5.73 -72.27,-9.55"
     style="opacity:1;fill:none;fill-opacity:0.4;fill-rule:nonzero;stroke:#d71a20;stroke-width:5;stroke-linecap:butt;stroke-linejoin:round;stroke-miterlimit:4;stroke-dasharray:none;stroke-opacity:1" />
  <path
     id="path820"
     d="m 1146.82,384.28 6.05,-5.41 13.05,0.96"
     style="opacity:1;fill:none;fill-opacity:0.4;fill-rule:nonzero;stroke:#d71a20;stroke-width:5;stroke-linecap:butt;stroke-linejoin:round;stroke-miterlimit:4;stroke-dasharray:none;stroke-opacity:1" />
  <path
     id="path822"
     d="m 770.21,268.72 47.12,-2.23 0.96,12.1"
     style="opacity:1;fill:none;fill-opacity:0.4;fill-rule:nonzero;stroke:#d71a20;stroke-width:5;stroke-linecap:butt;stroke-linejoin:round;stroke-miterlimit:4;stroke-dasharray:none;stroke-opacity:1" />
  <path
     style="opacity:1;fill:none;fill-opacity:0.14;fill-rule:nonzero;stroke:#00a652;stroke-width:5;stroke-linecap:butt;stroke-linejoin:round;stroke-miterlimit:4;stroke-dasharray:none;stroke-opacity:1"
     d="m 189.77,1137.08 -2.02,-15.06 -2.02,-3.6 -8.99,-2.7 -7.42,-5.17 -3.82,-26.97 4.49,-7.19 25.39,-5.62 6.74,-2.47 60.45,-8.54 1.35,-2.92 -6.07,-55.73 -1.8,-20.22 -11.01,-12.13 -50.34,-89.21 -7.64,-27.64 -20.67,-71.91 -20.9,-92.81 -10.34,-26.74 -12.36,-33.48 -20.22,-40.9 -5.62,-20.9 -1.12,-24.27 7.19,-48.09 -2.47,-29.89 -11.69,-61.57 -13.71,-33.48"
     id="path1409" />
</svg>
