<?xml version="1.0" encoding="UTF-8" standalone="no"?>
<svg
   xmlns:dc="http://purl.org/dc/elements/1.1/"
   xmlns:cc="http://creativecommons.org/ns#"
   xmlns:rdf="http://www.w3.org/1999/02/22-rdf-syntax-ns#"
   xmlns:svg="http://www.w3.org/2000/svg"
   xmlns="http://www.w3.org/2000/svg"
   xmlns:xlink="http://www.w3.org/1999/xlink"
   version="1.1"
   id="svg2"
   width="1800"
   height="1000"
   viewBox="0 0 1800 1000">
  <metadata
     id="metadata8">
    <rdf:RDF>
      <cc:Work
         rdf:about="">
        <dc:format>image/svg+xml</dc:format>
        <dc:type
           rdf:resource="http://purl.org/dc/dcmitype/StillImage" />
        <dc:title></dc:title>
      </cc:Work>
    </rdf:RDF>
  </metadata>
  <defs
     id="defs6" />
  <g
     id="g10">
    <image
       xlink:href="nt_osm.png"
       y="-85"
       x="-90"
       id="image12"
       style="display:none;image-rendering:optimizeSpeed"
       preserveAspectRatio="none"
       height="1075.64"
       width="1972.0" />
    <path
       style="fill:none;stroke:#808000;stroke-width:5;stroke-linejoin:round"
       d="m 65.98,929.44 -3.71,5.79 -0.19,8.27 2.42,1.78 149.2,0.39 5.6,-2.49 2.52,-3.33 1.62,-6.77 -0.13,-340.18 -1.85,-3.3 -3.11,-2.3 -5.2,-2.07 -25.65,-0.19 -2.42,-1.13 -1.73,-4.25 0.35,-29.07 -3.03,-11.61 -5.8,-8.4 -9.57,-8.71 -1.67,-6.16 -2.31,-24.67 -5.12,-14.21 -3.93,-6.97 -10.38,-14.15 v -5.15 l 16.86,-16.88 1.07,-2.95 -0.73,-2.75 -4.97,-9.04 0.94,-9.53 2.5,-1.8 5.4,0.78 5.22,2.55 4.34,-1.39 22.44,-10.09 14.3,-7.87 19.23,-5.56 17.23,-2.91 23.1,-2.19 71.03,-3.73 131.6,-52.16 4.08,-0.66 4.61,2.51 29.23,31.43 3.1,7.14 23.29,95.53 10.48,40.38 3.09,3.15 5.23,0.94 83.04,-21.15 12.77,-13.53 7.93,-6.09 40.97,-15.94 7.3,-1.1 39.45,0.23"
       id="path837" />
    <path
       style="fill:none;stroke:#808000;stroke-width:5;stroke-linejoin:round"
       d="m 414.99,347.2 -11.11,-32.46 -41.2,-203.44 -3.87,-3.83 -161.65,-40.48 -11.39,-0.49 -16.07,4.04 -32.71,13.34 -36.32,19.28 -20.98,12.35 -1.93,3.92 0.96,5.71 34.64,103.82 13.89,31.61 16.56,46.34 -1.04,9.31 -9.77,38.54 v 6.58 l 8.46,19.28 13.77,20.37 7.74,7.4"
       id="path839" />
    <path
       style="fill:none;stroke:#808000;stroke-width:5;stroke-linejoin:round"
       d="m 1390.59,91.66 -73.35,77.63 -0.69,7.31 25.38,144.03 3.01,6.7 3.15,3.63 115.95,-20.54 176.75,56.09 3.32,-2.35 30.05,-98.61 7.2,-9.23 46.16,-46.15 1.62,-4.25 -0.89,-14.47"
       id="path841" />
  </g>
</svg>
