<?xml version="1.0" encoding="UTF-8" standalone="no"?>
<svg
   viewBox="0 0 1425 1475"
   height="1475"
   width="1425"
   id="svg2"
   version="1.1"
   xmlns:xlink="http://www.w3.org/1999/xlink"
   xmlns="http://www.w3.org/2000/svg"
   xmlns:svg="http://www.w3.org/2000/svg"
   xmlns:rdf="http://www.w3.org/1999/02/22-rdf-syntax-ns#"
   xmlns:cc="http://creativecommons.org/ns#"
   xmlns:dc="http://purl.org/dc/elements/1.1/">
  <metadata
     id="metadata8">
    <rdf:RDF>
      <cc:Work
         rdf:about="">
        <dc:format>image/svg+xml</dc:format>
        <dc:type
           rdf:resource="http://purl.org/dc/dcmitype/StillImage" />
      </cc:Work>
    </rdf:RDF>
  </metadata>
  <defs
     id="defs6" />
  <image
     xlink:href="basemap/nteosm.png"
     width="1604"
     height="1833.14"
     preserveAspectRatio="none"
     id="image10"
     x="-30"
     y="-158.14"
     style="display:none" />
  <path
     id="path836"
     d="m 434.05,903.37 40.65,6.9 30.68,2.68 41.8,-7.67 h 18.79 l 23.39,10.35 18.79,11.51 101.63,30.68 13.42,-0.77 33.37,-8.05 19.94,-9.97 14.19,-8.82 46.41,-20.33 30.3,-14.96 30.3,-18.03 8.82,-9.97 15.72,-13.42 22.24,-11.51 49.86,-15.72 21.86,-15.34 41.42,-24.55 76.7,-18.79 59.44,-16.87 18.79,-0.77 21.09,-6.9 29.53,-13.42 28.0,-26.08 17.26,-28.76 18.79,-57.91 15.72,-49.47"
     style="opacity:1;fill:none;fill-opacity:1;fill-rule:nonzero;stroke:#00a54f;stroke-width:5;stroke-linecap:butt;stroke-linejoin:round;stroke-miterlimit:4;stroke-dasharray:none;stroke-opacity:1" />
  <path
     id="path838"
     d="m 1342.99,567.41 8.82,-34.9 1.15,-21.09 -4.22,-25.31 -14.57,-56.76 -19.94,-76.7 -12.27,-21.48 -13.81,-14.57"
     style="opacity:1;fill:none;fill-opacity:1;fill-rule:nonzero;stroke:#00a54f;stroke-width:1;stroke-linecap:butt;stroke-linejoin:round;stroke-miterlimit:4;stroke-dasharray:none;stroke-opacity:1" />
  <path
     id="path840"
     d="m 1288.14,316.59 -33.75,-32.6 -2.3,-11.12 47.17,-90.89 6.14,-16.11 -5.37,-6.52 -21.86,-2.68 h -39.89"
     style="opacity:1;fill:none;fill-opacity:1;fill-rule:nonzero;stroke:#00a54f;stroke-width:5;stroke-linecap:butt;stroke-linejoin:round;stroke-miterlimit:4;stroke-dasharray:none;stroke-opacity:1" />
  <path
     id="path842"
     d="m 505.39,912.95 -5.37,3.84 -55.23,60.6 -10.35,12.27 -6.14,2.3 -85.91,-52.16 27.61,-49.09 21.48,-42.19 -2.3,-9.59 -42.57,-40.65 -22.24,-12.27 -198.28,-58.29 -59.44,-8.82"
     style="opacity:1;fill:none;fill-opacity:1;fill-rule:nonzero;stroke:#00a54f;stroke-width:5;stroke-linecap:butt;stroke-linejoin:round;stroke-miterlimit:4;stroke-dasharray:none;stroke-opacity:1" />
  <path
     id="path850"
     d="m 546.27,105.92 24.68,11.39 41.22,8.41 11.93,-9.49 26.58,-16.81 21.69,-10.03 48.54,-18.44 8.95,0.27 4.88,3.8 2.71,4.07 -3.8,13.02 -0.81,15.46 4.07,5.97 8.68,2.17 23.32,-1.36 9.49,6.51 11.66,17.36 19.53,10.31 8.68,7.59 8.14,62.64 7.59,7.32 31.73,11.39 12.75,2.71 32,4.88 46.37,9.22 31.19,36.34 -7.32,20.61 -32.27,33.63 -15.73,17.08 -4.34,8.95 -5.42,66.71 0.54,149.69 31.19,32.27 1.36,4.61 -19.53,18.44 -2.44,4.88 -2.44,11.93 3.53,11.66 13.29,10.31 5.69,8.68 2.98,24.95 -3.25,13.83 -29.83,30.64 -8.41,12.47 -0.81,15.19 8.63,23.67 6.67,21.62 24.71,37.07 39.01,52.29 c 0.09,0.12 0.16,0.24 0.23,0.37 l 25.22,50.17 c 0.02,0.04 0.04,0.08 0.06,0.12 l 29.92,68.21 6.2,6.46 c 0.19,0.19 0.34,0.42 0.46,0.66 l 23.32,49.08 c 0.16,0.34 0.24,0.7 0.24,1.07 v 6.51 c 0,0.23 -0.03,0.46 -0.1,0.69 l -1.63,5.69 c -0.09,0.33 -0.25,0.63 -0.46,0.89 l -3.53,4.34 c -0.18,0.22 -0.4,0.41 -0.64,0.56 l -13.28,8.07 -10.26,17.88 c -0.14,0.24 -0.31,0.45 -0.51,0.63 l -11.45,10.12 -13.94,19.56 -24.82,-6.87"
     style="color:#000000;font-style:normal;font-variant:normal;font-weight:normal;font-stretch:normal;font-size:medium;line-height:normal;font-family:sans-serif;font-variant-ligatures:normal;font-variant-position:normal;font-variant-caps:normal;font-variant-numeric:normal;font-variant-alternates:normal;font-feature-settings:normal;text-indent:0;text-align:start;text-decoration:none;text-decoration-line:none;text-decoration-style:solid;text-decoration-color:#000000;letter-spacing:normal;word-spacing:normal;text-transform:none;writing-mode:lr-tb;direction:ltr;text-orientation:mixed;dominant-baseline:auto;baseline-shift:baseline;text-anchor:start;white-space:normal;shape-padding:0;clip-rule:nonzero;display:inline;overflow:visible;visibility:visible;opacity:1;isolation:auto;mix-blend-mode:normal;color-interpolation:sRGB;color-interpolation-filters:linearRGB;solid-color:#000000;solid-opacity:1;vector-effect:none;fill:none;fill-opacity:1;fill-rule:nonzero;stroke:#ee1d23;stroke-width:5;stroke-linecap:butt;stroke-linejoin:round;stroke-miterlimit:4;stroke-dasharray:none;stroke-dashoffset:0;stroke-opacity:1;color-rendering:auto;image-rendering:auto;shape-rendering:auto;text-rendering:auto;enable-background:accumulate" />
  <path
     id="path844"
     d="m 295.69,351.61 28.47,13.29 23.59,2.17 37.15,-10.58 17.9,8.68 7.32,-0.54 11.12,-18.71 9.22,-2.71 50.17,-52.07 78.92,89.22 -7.86,54.24 53.69,37.97 36.07,40.41 79.19,52.61 18.71,14.1 30.37,42.31 33.36,39.32 35.53,31.73 23.05,41.76 7.59,23.86 49.41,53.62 6.78,21.97 c 0.07,0.23 0.18,0.45 0.31,0.65 l 24.95,37.42 c 0.02,0.04 0.05,0.07 0.08,0.11 l 38.92,52.16 25.09,49.92 30.08,68.55 c 0.12,0.27 0.28,0.51 0.49,0.73 l 6.23,6.49 22.91,48.21 v 5.6 l -1.39,4.87 -2.93,3.61 -13.46,8.18 c -0.36,0.22 -0.66,0.53 -0.87,0.89 l -10.37,18.08 -11.35,10.03 c -0.14,0.13 -0.27,0.27 -0.38,0.42 l -14.1,19.8 -7.73,12.03 -14.37,8.95 -9.49,9.22 -7.32,14.92 -8.95,11.39 -12.2,32 -8.41,11.66 -4.88,9.49 -7.59,5.15 -40.68,10.03 -13.29,-4.07 -113.08,28.75 -32.27,10.03 -89.76,24.41 -8.14,-1.9 -10.85,-4.07 -10.85,1.36 -16.81,7.86 -16.81,12.75 -9.22,2.17 -18.44,19.25 -7.05,13.02 -12.47,5.42"
     style="color:#000000;font-style:normal;font-variant:normal;font-weight:normal;font-stretch:normal;font-size:medium;line-height:normal;font-family:sans-serif;font-variant-ligatures:normal;font-variant-position:normal;font-variant-caps:normal;font-variant-numeric:normal;font-variant-alternates:normal;font-feature-settings:normal;text-indent:0;text-align:start;text-decoration:none;text-decoration-line:none;text-decoration-style:solid;text-decoration-color:#000000;letter-spacing:normal;word-spacing:normal;text-transform:none;writing-mode:lr-tb;direction:ltr;text-orientation:mixed;dominant-baseline:auto;baseline-shift:baseline;text-anchor:start;white-space:normal;shape-padding:0;clip-rule:nonzero;display:inline;overflow:visible;visibility:visible;opacity:1;isolation:auto;mix-blend-mode:normal;color-interpolation:sRGB;color-interpolation-filters:linearRGB;solid-color:#000000;solid-opacity:1;vector-effect:none;fill:none;fill-opacity:1;fill-rule:nonzero;stroke:#007cc2;stroke-width:5;stroke-linecap:butt;stroke-linejoin:round;stroke-miterlimit:4;stroke-dasharray:none;stroke-dashoffset:0;stroke-opacity:1;color-rendering:auto;image-rendering:auto;shape-rendering:auto;text-rendering:auto;enable-background:accumulate" />
  <path
     id="path852"
     d="m 1254.39,283.99 -31.51,-27.84 -17.08,-11.39 -14.64,-5.69"
     style="opacity:1;fill:none;fill-opacity:1;fill-rule:nonzero;stroke:#00a54f;stroke-width:5;stroke-linecap:butt;stroke-linejoin:round;stroke-miterlimit:4;stroke-dasharray:none;stroke-opacity:1" />
  <path
     style="fill:none;stroke:#00ffff;stroke-width:5;stroke-linejoin:round;stroke-dasharray:none"
     d="m 750.87,972.29 c -1.33,104.33 -98.56,105.55 -97.47,158.23"
     id="path310" />
  <path
     style="fill:none;stroke:#00ffff;stroke-width:5;stroke-linejoin:round;stroke-dasharray:none"
     d="m 590.35,1124.23 c 8.9,17.38 157.43,-32.55 158.37,-52.34"
     id="path5458" />
</svg>
