<?xml version="1.0" encoding="UTF-8" standalone="no"?>
<svg
   version="1.1"
   id="svg2"
   width="1275"
   height="1050"
   viewBox="0 0 1275 1050"
   xmlns:xlink="http://www.w3.org/1999/xlink"
   xmlns="http://www.w3.org/2000/svg"
   xmlns:svg="http://www.w3.org/2000/svg"
   xmlns:rdf="http://www.w3.org/1999/02/22-rdf-syntax-ns#"
   xmlns:cc="http://creativecommons.org/ns#"
   xmlns:dc="http://purl.org/dc/elements/1.1/">
  <metadata
     id="metadata8">
    <rdf:RDF>
      <cc:Work
         rdf:about="">
        <dc:format>image/svg+xml</dc:format>
        <dc:type
           rdf:resource="http://purl.org/dc/dcmitype/StillImage" />
      </cc:Work>
    </rdf:RDF>
  </metadata>
  <defs
     id="defs6" />
  <image
     xlink:href="basemap/oelosm.png"
     y="-110"
     x="-115"
     id="image12"
     style="display:none;image-rendering:optimizeSpeed"
     preserveAspectRatio="none"
     height="1219.71"
     width="1423" />
  <path
     style="fill:none;stroke:#ff0101;stroke-width:5;stroke-linejoin:round;stroke-opacity:1"
     d="m 63.68,966.11 122.43,-1.31 2.6,0.24 20.36,22.41 3.38,5.92 4.07,-0.4 94.58,-87.44 44.07,-29.5 15.28,-26.08 246.26,-229.21 0.41,-2.94 -2.33,-7.25 -55.95,-54.48 0.77,-5.62 53.49,-47.78 0.16,-5.67 -7.25,-10.24 1.22,-5.32 20.34,-5.8 28.58,-7.14 100.49,-149.12 24,-33.57 49.26,-47.63 34.8,-22.91 130.15,-25.17 0.76,-9.83 27.99,-65.56 4.45,-0.82 17.21,12.41 134.8,-1.99 10.36,6.78 17.53,-2.96 2.48,-3.44 -5.5,-30.63 2.84,-17.49 -1.19,-16.65"
     id="path855" />
  <path
     style="fill:none;stroke:#ff0101;stroke-width:5;stroke-linejoin:round;stroke-opacity:1"
     d="m 994.84,190.1 3.43,32.43 67.37,160.32 49.57,110.41 -1.41,21.27"
     id="path452" />
  <path
     style="fill:none;stroke:#ff0101;stroke-width:5;stroke-linejoin:round;stroke-opacity:1"
     d="m 994.84,190.1 168.93,13.09 44.35,6.04"
     id="path2656" />
</svg>
