<?xml version="1.0" encoding="UTF-8" standalone="no"?>
<svg
   xmlns:dc="http://purl.org/dc/elements/1.1/"
   xmlns:cc="http://creativecommons.org/ns#"
   xmlns:rdf="http://www.w3.org/1999/02/22-rdf-syntax-ns#"
   xmlns:svg="http://www.w3.org/2000/svg"
   xmlns="http://www.w3.org/2000/svg"
   xmlns:xlink="http://www.w3.org/1999/xlink"
   viewBox="0 0 1025 475"
   height="475"
   width="1025"
   id="svg2"
   version="1.1">
  <metadata
     id="metadata8">
    <rdf:RDF>
      <cc:Work
         rdf:about="">
        <dc:format>image/svg+xml</dc:format>
        <dc:type
           rdf:resource="http://purl.org/dc/dcmitype/StillImage" />
        <dc:title></dc:title>
      </cc:Work>
    </rdf:RDF>
  </metadata>
  <defs
     id="defs6" />
  <image
     xlink:href="streetmap/ogxosm.png"
     width="1145"
     height="572.5"
     preserveAspectRatio="none"
     id="image10"
     x="-100"
     y="-107.5"
     style="display:none" />
  <path
     id="path836"
     d="m 98.77966,63.64407 12.47458,20.06779 -7.59322,39.86441 -0.81356,17.62712 -10.30509,18.98305 -17.8983,65.08475 3.52542,28.47457 11.93221,17.62712 4.61016,11.66102 1.89831,19.25424 4.88136,10.57627 11.66101,9.76271 18.16949,8.13559 110.64407,49.62712 62.91526,21.9661 8.13559,-1.35593 7.05085,-4.33898 3.79661,-7.59322 21.69491,-77.28814 6.50848,-8.13559 5.9661,-4.0678 9.22034,-0.54237 69.9661,4.33898 126.37288,31.72881 115.52543,2.71187 18.98305,-1.62712 107.66101,-34.44068 13.28814,-7.32203 147.79665,-120.67797 -0.8136,-5.9661 L 947.322,145"
     style="opacity:1;fill:none;fill-opacity:0.39607843;fill-rule:nonzero;stroke:#b38710;stroke-width:5;stroke-linecap:butt;stroke-linejoin:round;stroke-miterlimit:4;stroke-dasharray:none;stroke-opacity:1" />
</svg>
