<?xml version="1.0" encoding="UTF-8" standalone="no"?>
<svg
   version="1.1"
   id="svg2"
   width="1000"
   height="1850"
   viewBox="4700 0 1000 1850"
   xmlns:xlink="http://www.w3.org/1999/xlink"
   xmlns="http://www.w3.org/2000/svg"
   xmlns:svg="http://www.w3.org/2000/svg"
   xmlns:rdf="http://www.w3.org/1999/02/22-rdf-syntax-ns#"
   xmlns:cc="http://creativecommons.org/ns#"
   xmlns:dc="http://purl.org/dc/elements/1.1/">
  <metadata
     id="metadata8">
    <rdf:RDF>
      <cc:Work
         rdf:about="">
        <dc:format>image/svg+xml</dc:format>
        <dc:type
           rdf:resource="http://purl.org/dc/dcmitype/StillImage" />
      </cc:Work>
    </rdf:RDF>
  </metadata>
  <defs
     id="defs6" />
  <image
     xlink:href="../timelines/streetmap/osa2osm.png"
     y="-9059.2275"
     x="3048.5"
     id="image4530"
     preserveAspectRatio="none"
     height="15819.227"
     width="9158.5"
     style="display:none" />
  <path
     style="fill:none;fill-rule:evenodd;stroke:#f2f2f2;stroke-width:8;stroke-linecap:butt;stroke-linejoin:round;stroke-miterlimit:4;stroke-dasharray:none;stroke-opacity:1"
     d="m 5206.89,-115.19966 12.375,-20.5061 v -12.0208 l -4.95,-25.1023 2.121,-27.2236 20.86,-59.397 9.192,-9.5459 15.91,-8.8389 19.446,-0.7071 163.341,7.7782 180.666,1.4142 40.659,-13.435 90.51,4.5962 86.974,18.3848 28.284,1.0606 6.364,-3.8891 6.364,-7.4246 5.657,-14.4957 11.313,-71.0642 -5.656,-67.1751 -49.144,-115.9656 -7.779,-22.9809 0.708,-14.1422 30.052,-41.7193 14.849,-8.1317 108.894,-26.1629 68.236,-2.8285 159.099,-22.6274 65.054,-15.9099 40.305,-1.7678 84.146,-10.9601 4.242,-3.8891 5.657,-12.7279 0.354,-42.0729 4.596,-7.7781 12.021,-9.546 71.771,-41.0122 25.102,-21.2132 122.683,-68.2358"
     id="path4608" />
  <path
     style="fill:none;fill-rule:evenodd;stroke:#f2f2f2;stroke-width:8;stroke-linecap:butt;stroke-linejoin:round;stroke-miterlimit:4;stroke-dasharray:none;stroke-opacity:1"
     d="m 5439,316.49954 16.634,-73.2374 9.116,-16.5126 15.5,-15.25 26,-19 7,-9 9,-39 28.25,-104.750001 11.5,-551.999999 1.75,-12.25 9.25,-11 8.75,-4.75 20,-12.25 8.75,-11.25 7.5,-19.5 -3.75,-237 1.5,-13.5 10.5,-21.75 7.5,-38 -0.193,-28.0876 -25.411,-93.54214 4.27,-49.3604 6.011,-13.435 52.679,-80.9637 11.644,-20.1112 1.75,-17.5 -4.25,-23.25 0.5,-8 36.25,-55 16.75,-37.25 2,-24.75 -2,-27.25 -26,-104.5 v -15.25 l 5.5,-12 11.5,-16.5 3.5,-16 -6.25,-15.5 -35.5,-29.75 -83.25,-54.5 -9.75,-12 -5.25,-14.75 5.25,-29.5 -3,-13.5 -5.75,-8 -16.75,-12 -5.75,-9.75 -6.75,-29.75 2.75,-81.25 -6.75,-21.75 1,-18.5 31.75,-68.75 8,-33 2.5,-90.25 2.5,-25.5 8,-12.75 57,-63.5 13.25,-32.25 11.5,-73.75 3.25,-35 -5.75,-29.5 -66,-152.5"
     id="path4637" />
  <path
     style="fill:none;fill-rule:evenodd;stroke:#f2f2f2;stroke-width:8;stroke-linecap:butt;stroke-linejoin:round;stroke-miterlimit:4;stroke-dasharray:none;stroke-opacity:1"
     d="m 5160.221,-571.99066 1.768,53.7401 26.87,49.4975 56.215,35.0018 39.598,14.1421 4.95,5.3033 13.789,43.8407 15.556,75.3068 -10.607,98.6414 1.768,13.7886 2.121,7.7782 6.718,6.7175 25.102,1.7678 122.33,19.799 210.364,9.1923 54.801,8.1318 46.669,2.1213 85.56,-0.7071 49.144,-2.8284 104.298,-41.0122 h 7.071 l 68.236,20.8596 h 9.546 l 27.577,-7.0711 54.801,-2.8284 7.424,4.2427 4.95,9.5459 -11.667,137.1786991 -37.123,251.3765009"
     id="path4667" />
  <path
     style="fill:none;fill-rule:evenodd;stroke:#f2f2f2;stroke-width:8;stroke-linecap:butt;stroke-linejoin:round;stroke-miterlimit:4;stroke-dasharray:none;stroke-opacity:1"
     d="m 6477.915,-1419.1046 -273.65,260.2153 -78.489,67.8822 -8.486,12.728 -44.547,171.82694 -6.364,13.435 -15.557,12.728 -28.991,16.9705 -61.518,75.6605 -9.9,6.3639 -135.764,-6.3639 -82.732,14.1421 -109.601,-40.3051 -14.85,-1.4142 -133.289,126.5721 -3.182,12.0208 0.884,7.0711 15.38,45.4315 7.601,6.0105 206.298,16.4402 4.95,6.364 -6.364,61.1647 -2.475,70.7107 -3.182,198.697 -7.778,76.7211 -35.709,216.374699 1.061,77.781701 -7.033,70.8723 -14.979,68.616 1.152,9.7113 4.596,9.5459 26.87,14.1421 10.253,13.7886 195.162,243.9519 12.728,12.0208 11.313,8.1317 15.203,4.5962 42.073,-4.2426 122.683,-19.4455 7.778,1.0607 8.486,7.7782 6.363,13.435 3.89,167.2307 3.535,11.6673 5.303,5.3033 9.9,1.0607 h 141.775 l 60.811,3.5355 74.6,20.5061 5.303,5.6568 2.828,8.8389 2.122,32.1733 15.556,83.7922 7.425,9.1924 11.667,6.3639 37.477,10.6066 h 34.648 l 15.556,2.1214"
     id="path4730" />
  <path
     style="fill:none;fill-rule:evenodd;stroke:#f2f2f2;stroke-width:8;stroke-linecap:butt;stroke-linejoin:round;stroke-miterlimit:4;stroke-dasharray:none;stroke-opacity:1"
     d="m 5550.898,1564.5315 68.602,-86.032 19,-25.5 23.5,-40.5 20,-79 4.5,-166 -9,-116 -44.5,-68.49996 0.5,-11.5 37.5,-429.5 51.5,-336.5 -2,-5.5 -9.5,-9 -248.5,-75.5 -7.5,-6 -2.879,-6.6109 3.056,-180.010401 28.823,-37.878699 v -179 l 8.5,-299 -24.677,-73.2322 -11.573,-11.5178 -5.75,-14.25 -5.5,-20.75 -15.25,-84.5 3.5,-10.5 42.25,-63.75 2.75,-10.25 -0.25,-33 -17.5,-122.50004 -1,-251 -22,-154.75 9.75,-211.25 -10,-59.25 -15.25,-42.75 -2.75,-16.75 -0.75,-32.75 6.75,-22 16.75,-63.75 v -29.5 l 4.5,-141 -3,-25 -51,-139.5 -3.5,-16 2,-15 5.5,-13.5 13,-20 5.5,-17.5 3,-20.5 -0.5,-30"
     id="path4763" />
  <path
     style="fill:none;fill-rule:evenodd;stroke:#f2f2f2;stroke-width:8;stroke-linecap:butt;stroke-linejoin:round;stroke-miterlimit:4;stroke-dasharray:none;stroke-opacity:1"
     d="m 5137.5,762.49954 7,-125.5 26.5,-61 11.5,-9 107,-22.5 44,3.5 11.5,-5.5 9.5,-9.5 15,-68 64,-243 13.5,-106 4.086,-236.3232 -19.586,-62.1768 9,-126.5 -3,-40 2,-89.5 -1.5,-31 -17.5,-125.5 5,-60"
     id="path4797" />
  <path
     style="fill:none;fill-rule:evenodd;stroke:#f2f2f2;stroke-width:8;stroke-linecap:butt;stroke-linejoin:round;stroke-miterlimit:4;stroke-dasharray:none;stroke-opacity:1"
     d="m 4371.797,233.75754 -18.738,7.4246 -10.96,6.0104 -1.061,8.8389 3.889,10.6066 106.773,115.2584 20.153,27.5771 6.01,4.5962 118.794,-1.4142 7.425,5.3033 8.132,24.3952 4.242,27.9307 63.993,194.8079 4.95,6.0104 8.839,3.5356 117.38,-0.7071 128.34,47.0226 192.686,25.1023"
     id="path5182" />
  <path
     style="fill:none;fill-rule:evenodd;stroke:#f2f2f2;stroke-width:8;stroke-linecap:butt;stroke-linejoin:round;stroke-miterlimit:4;stroke-dasharray:none;stroke-opacity:1"
     d="m 5733.588,-124.11136 49.948,6.4368 27.577,-1.7677 34.295,5.3033 54.801,-2.4749 91.216,-2.8284 224.86,21.213199 180.313,-2.828499 871.862,36.062499 24.749,-7.0711 22.627,-14.8492 15.557,-20.506099 19.799,-78.4889 26.163,-45.2548 34.648,-99.7021 v -38.1837 l 24.749,-47.3762 41.012,-42.4264 18.385,-9.8995 497.449,-76.014 43.152,0.7666 154.25,36.25 25.75,3.25 35.5,-2.75 29.5,-3.75 36.5,-7.75 163.25,-52.75 42.5,-9 98,-21.5 74,-10 41.5,-4 74,-0.5 141,4 15,5.5 211.5,134 26.5,9 205,40 90,9 36.5,6 91,3"
     id="path5345" />
  <path
     style="fill:none;fill-rule:evenodd;stroke:#f2f2f2;stroke-width:8;stroke-linecap:butt;stroke-linejoin:round;stroke-miterlimit:4;stroke-dasharray:none;stroke-opacity:1"
     d="m 5667.5,187.99954 43,24.5 18,4 63.5,45 19,22 8,23.5 64,209.5 21,178.5 -20,199.5 15,110.49996 23,81.5 65.5,167 9,6.5 60,8.5 83.5,-7.5 210.5,5 c 0,0 12,4.5 14,5 2,0.5 98.5,57.5 98.5,57.5 l 15.5,3.5 91,-12 130,3 33,9.5 109,16.5 13,-2 46,-29 10.5,-3 73,17.5 9,6.5 5.5,11.5 v 15.5 l -9,45 -50,103 -76.5,62 -8,17.5 -5,30 -7.5,44 -8,49.5 16,264.5 -59.5,332.5 -8,17.5 -18.5,14.5 -45.5,27.5 -123.5,223 -9.5,71.5 -19,56.5 -10.5,18.5 -49,42.5 -19.5,19 -21.5,48 v 18 l 13,48.5 v 11 l -7.5,15 -11,20 v 16 l 2.5,31.5 -6,30.5 2,33 -3,16.5 -15,20.5 -23,21 -4,8.5 -10.672,35.207"
     id="path5585" />
  <path
     style="fill:none;fill-rule:evenodd;stroke:#f2f2f2;stroke-width:8;stroke-linecap:butt;stroke-linejoin:round;stroke-miterlimit:4;stroke-dasharray:none;stroke-opacity:1"
     d="m 5500,-93.000461 14.5,24.5 2,19.5 -81.5,361.000001 -88,422 -32.5,70.5 -54,168.5 -220.5,238.99996 -189.5,370.5 -153,440 -17.5,25 -426,361.5 -13.5,14.5 -7.5,16 -78,256.5 -186.5,307.5 -64,53 -132,66.5 -13,10 -57.5,100.5 -64,61 -78,75.5 -9,22.5 -11.5,39.5 -284.5,313 -24,14.5 -113.5,40 -41,37 -289,280 -182.5,102 -63.5,81.5 -133.5,79.5 -14,19 -22,42 -16,14 -26,15 -74.5,24 -81.5,74.5 -41.5,100 -23.5,20.5 -74.5,29.5 -61.5,55 -54.5,31 -105.5,67 -20,1 -70.5,-3 -98,58 -22.5,7 -17.5,8.5 -9.5,16 -14.5,25.5 -14,10 -23,1 -32.5,-7.5 -36,1 -120.5,47.5 -51,10 -27.5,17 -109,91.5 -12.5,24 v 30.5 l 32.5,58 5,23 1,45.5 22.5,34 v 15 l -7,19.5 -77,85.5 -50.5,94.5 -0.5,19.5 7,15.5 12,19.5 2.5,17.5 -4.5,20 -49.5,95.5 -10.5,91 -15.5,51.5 4,16 9.5,39.5 v 14 l -10.5,26.5 -2.5,16 2.5,16.5 14,15.5 20,14 22.5,6.5 29.5,3.5 192,101.5 18.5,18 9,19 7.5,21.5 28,117.5 v 12.5 l -8,16.5 -13,15 -68,47.5"
     id="path5976" />
  <path
     id="path4602"
     d="m 4615,2002.4995 17,-26.5 10,-4 16,1 27,7.5 11.5,-1 23.5,-21"
     style="fill:none;fill-rule:evenodd;stroke:#f2f2f2;stroke-width:8;stroke-linecap:butt;stroke-linejoin:round;stroke-miterlimit:4;stroke-dasharray:none;stroke-opacity:1" />
  <path
     id="path4676"
     d="m 5416.548,402.04894 2.828,25.4558 32.527,57.9828 8.132,22.2738 -1.768,38.8909 -13.435,94.7523 4.243,51.6188 -9.9,57.2757 0.707,153.4421 -5.657,16.2635 -67.882,122.32986 -37.477,109.601 -28.991,55.154 -21.92,102.531 3.535,14.142 3.536,16.264 11.313,12.02 44.548,26.163 254.559,235.467 317.491,230.517 38.183,34.648 22.628,36.062 19.092,46.669 38.183,126.572 9.9,15.557 149.199,195.161 7.779,18.385 47.376,260.922 4.95,98.288 43.133,172.534 94.752,193.748 24.042,69.296 0.336,19.843 -16.563,54.805 -28.177,39.316 -6.25,19.5 12.75,94.5 7.5,27.25 -2.25,26"
     style="fill:none;fill-rule:evenodd;stroke:#f2f2f2;stroke-width:8;stroke-linecap:butt;stroke-linejoin:round;stroke-miterlimit:4;stroke-dasharray:none;stroke-opacity:1" />
  <path
     style="fill:none;fill-rule:evenodd;stroke:#f9f9f9;stroke-width:8;stroke-linecap:butt;stroke-linejoin:round;stroke-miterlimit:4;stroke-dasharray:none;stroke-opacity:1"
     d="m 5595.446,1613.6765 18.554,24.323 29.5,52.5 3,17 -2,20.5 -13.5,21.5 -178,176.5 -6,18.5 -3,29 4,19 190.5,378.5 6,22.5 1,26.5 -3,18.5 -11,17.5 -13.5,14.5 -18.5,13.5 -134,78 -40.5,30 -343.722,290.59 -108.278,98.91 -57.5,36"
     id="path4532" />
  <path
     style="fill:none;fill-rule:evenodd;stroke:#f2f2f2;stroke-width:8;stroke-linecap:butt;stroke-linejoin:round;stroke-miterlimit:4;stroke-dasharray:none;stroke-opacity:1"
     d="m 1585.5,6528.9995 -20,-96.5 -8,-20.5 -4,-21 1,-19.5 11,-21.5 20,-21.5 32,-13.5 95,-40 20,-15.5 13,-22 17,-136.5 13.9011,-39.041 24.0989,-40.959 18.5,-16 28,-16.5 28,-5 418,-34.5 25,-5.5 50,-18 21,-17 46,-53.5 20,-11.5 19.5,-6.5 41,-2 63.5,-19 15.5,-11.5 32.5,-61 2,-22.5 -4.5,-20.5 -9.5,-30 -53,-251.5 11,-162.5 -0.5,-50 -14.5,-77.5 2,-22.5 8,-13.5 17,-33.5 v -15 l -6.5,-18 -90.5,-162.5 v -16.5 -20 l 6,-16 277,-318 211,-146 31,-14 67.5,-18 26,-10 29.5,-21 97,-79.5 79,-62.5 36,-48 67.5,-157 252,-354.5 60.5,-108.5 22.5,-28.5 343,-297 43.5,-33 242,-282 142.5,-238.5 105.5,-171 186,-277 80.5,-120.5 155,-228.5 31.5,-31 241.5,-215 15.5,-23 14.5,-29.5 72,-192.5 80.5,-174 4.5,-22.5 12.5,-173.99996 10,-26 10.5,-27.5 20.5,-29.5 35,-57 117,-236.5 62.5,-172 2.5,-119 -14,-34.5 -21.566,-37.9332"
     id="path4693" />
  <path
     style="fill:none;fill-rule:evenodd;stroke:#f2f2f2;stroke-width:8;stroke-linecap:butt;stroke-linejoin:round;stroke-miterlimit:4;stroke-dasharray:none;stroke-opacity:1"
     d="m 5386.074,47.848039 -4.574,-25.8485 2.25,-17.2499999 21.5,-74.7500001 16.25,-73.999999"
     id="path1149" />
  <path
     style="fill:none;fill-rule:evenodd;stroke:#f2f2f2;stroke-width:8;stroke-linecap:butt;stroke-linejoin:round;stroke-miterlimit:4;stroke-dasharray:none;stroke-opacity:1"
     d="m 9510.5,-361.00046 -20.5,51.5 -18.5,19.5 -48,24.5 -17.5,19.5 -45,61.5 -168.5,152.499999 -15,28.5000001 -21,120.5000009 -21.5,59.5 -30,55.5 -26.5,35.5 -19,21 -142,123.5 -43.5,44.5 -238,316.5 -20.5,17.5 -54,25 -215.5,152.5 -35.5,11.5 -43,4.5 -44,-8.5 -71.5,-9.5 -30.5,-15 -15.75,-15.25 -27.75,-7.75 -64.25,-0.5 -12,4.5 -62,66.25 -104.25,65.24996 -11.75,13 -22,51.25 -9.25,11.5 -33.25,30.5 -19.25,21.75 -16.25,10 -17.75,7 -26.5,2.5 -34,-7 -44.5,2.5 -21.5,14 -21.5,24.5 -11,18.5 -10,24 -27.5,27 -20,10.5 -25,-0.5 -51.5,-25.5 -34,-7 -47,6.5 -52,25.5 -30,1.5 -74,-9.5 -20,-11 -14.5,-17.5 -37,-92.5 -15,-25.5 -74,-111 -45.5,-128.99996 -79.5,-134 -35.5,-45.5 -120.5,-110 -63,-35.5 -43,-16 -59,-34 -75.334,-26.5586 -62.215,-12.9709 -82.918,-30.3322 -123.283,-41.3883 -148.058,-47.5646 -41.012,-23.6881 -84.853,-74.2462 -25.102,-13.7886 -45.608,-19.4454 -32.174,-14.1421 -105.509,-53.3082 -22.934,-14.5668"
     id="path4805" />
  <path
     style="fill:none;fill-rule:evenodd;stroke:#f2f2f2;stroke-width:8;stroke-linecap:butt;stroke-linejoin:round;stroke-miterlimit:4;stroke-dasharray:none;stroke-opacity:1"
     d="m 5236.5,-115.50046 -88,-39.5 -17.5,-0.5 -17.5,4.5 -19.5,11 -26,13.5 -18.5,0.5 -15.5,-3 -14.5,-14.5 -40,-89.5 v -16.5 l 4,-24.5 22.375,-48.5 16,-17.25 54.875,-61.25 27.25,-25 133.625,-126.875 33,-29.625 86.375,-49.875 89.25,-57.5 41.125,-26.375 15.625,-10.25 24,-17 22.5,-6.5 48.375,3.5 19.125,8.5 34,26 13,5.5 14,1.5 18,-1.5 51,-21.5 16.5,-1 19.25,5.875 98.75,72.625 10,11 34,91 -0.5,18 -12.5,55.5 -6,104.5 5,50 -2,15 -11.5,47.5 -7,35.5 -11,27 -83,313.5 -8,15.5 -31.5,37.5 -17,10 -20,1.5 -298.5,-88.000001 -20,-16 -32.625,-61.75 -36.75,-41.75 -41.125,-64 -55,-26.499999"
     id="path4983" />
  <path
     id="path4575"
     d="m 5641.073,175.99094 -15.182,71.3895 -19.22,80.9189"
     style="fill:none;fill-rule:evenodd;stroke:#ff6600;stroke-width:5;stroke-linecap:butt;stroke-linejoin:round;stroke-miterlimit:4;stroke-dasharray:none;stroke-opacity:1" />
  <path
     id="path4577"
     d="m 5606.671,328.29934 -6.461,22.612 -39.086,92.7094"
     style="fill:none;fill-rule:evenodd;stroke:#ff6600;stroke-width:1;stroke-linecap:butt;stroke-linejoin:round;stroke-miterlimit:4;stroke-dasharray:none;stroke-opacity:1" />
  <path
     id="path4579"
     d="m 5561.124,443.62074 -4.361,9.2064 -63.476,106.4382 -26.165,53.2999"
     style="fill:none;fill-rule:evenodd;stroke:#ff6600;stroke-width:5;stroke-linecap:butt;stroke-linejoin:round;stroke-miterlimit:4;stroke-dasharray:none;stroke-opacity:1" />
  <path
     id="path4584"
     d="m 5376.351,669.41834 -2.035,4.19345 -8.3302,32.14924 1.5443,6.64987"
     style="fill:none;fill-rule:evenodd;stroke:#ff6600;stroke-width:5;stroke-linecap:butt;stroke-linejoin:round;stroke-miterlimit:4;stroke-dasharray:none;stroke-opacity:1" />
  <path
     id="path4586"
     d="m 5431.589,463.48714 -2.746,4.6839 -40.54,125.82 -6.461,31.4953 -12.4758,47.53221 -8.3833,32.42868 1.6798,8.15403"
     style="fill:none;fill-rule:evenodd;stroke:#006600;stroke-width:5;stroke-linecap:butt;stroke-linejoin:round;stroke-miterlimit:4;stroke-dasharray:none;stroke-opacity:1" />
  <path
     id="path4590"
     d="m 5365.53,712.70434 0.968,3.2303 2.585,5.1685 v 6.9451 l -2.585,13.8903 -29.4703,139.72654 -55.3247,182.01072 -4.199,5.33 -5.33,1.6151 -10.96,2.3836"
     style="fill:none;fill-rule:evenodd;stroke:#ff6600;stroke-width:1;stroke-linecap:butt;stroke-linejoin:round;stroke-miterlimit:4;stroke-dasharray:none;stroke-opacity:1" />
  <path
     id="path5644"
     d="m 4751.289,1877.8715 22.935,17.1206 20.997,10.983 121.136,39.0866 14.536,0.646 16.475,-6.4606 14.536,-12.2751"
     style="fill:none;fill-rule:evenodd;stroke:#f2f2f2;stroke-width:8;stroke-linecap:butt;stroke-linejoin:round;stroke-miterlimit:4;stroke-dasharray:none;stroke-opacity:1" />
  <path
     id="path4594"
     d="m 5045.419,1352.0612 -9.593,29.2373 -82.23,124.2584 -137.735,205.8031 -5.254,6.8525 -14.847,10.964 -26.268,39.516 -10.05,18.0449"
     style="fill:none;fill-rule:evenodd;stroke:#ff6600;stroke-width:1;stroke-linecap:butt;stroke-linejoin:round;stroke-miterlimit:4;stroke-dasharray:none;stroke-opacity:1" />
  <path
     id="path4592"
     d="m 5261.214,1073.0045 -6.566,1.9877 -206.488,272.9575 -2.741,4.1115"
     style="fill:none;fill-rule:evenodd;stroke:#ff6600;stroke-width:5;stroke-linecap:butt;stroke-linejoin:round;stroke-miterlimit:4;stroke-dasharray:none;stroke-opacity:1" />
  <path
     id="path4581"
     d="m 5467.122,612.56524 -9.691,22.612 -5.007,5.1685 -9.206,2.7458 -13.244,0.969 -10.499,-1.9381 -11.79,-2.5843 h -7.107 l -7.43,3.7149 -5.653,6.4606 -8.399,17.1205 -2.745,2.5842"
     style="fill:none;fill-rule:evenodd;stroke:#ff6600;stroke-width:1;stroke-linecap:butt;stroke-linejoin:round;stroke-miterlimit:4;stroke-dasharray:none;stroke-opacity:1" />
  <path
     id="path4588"
     d="m 5431.589,463.48714 27.942,-39.5711 6.46,-15.99 5.169,-24.8733 27.457,-150.3702 14.537,-82.6955 28.749,-97.393401"
     style="fill:none;fill-rule:evenodd;stroke:#006600;stroke-width:1;stroke-linecap:butt;stroke-linejoin:round;stroke-miterlimit:4;stroke-dasharray:none;stroke-opacity:1" />
  <path
     style="fill:none;stroke:#006600;stroke-width:1;stroke-linejoin:round;stroke-miterlimit:4;stroke-dasharray:none;stroke-opacity:1"
     d="m 5364.4386,712.49758 1.0878,3.82018 2.5362,5.10927 0.037,6.67763 -2.4729,13.81017 -29.3798,138.61211"
     id="path6028" />
</svg>
