<?xml version="1.0" encoding="UTF-8" standalone="no"?>
<svg
   xmlns:dc="http://purl.org/dc/elements/1.1/"
   xmlns:cc="http://creativecommons.org/ns#"
   xmlns:rdf="http://www.w3.org/1999/02/22-rdf-syntax-ns#"
   xmlns:svg="http://www.w3.org/2000/svg"
   xmlns="http://www.w3.org/2000/svg"
   xmlns:xlink="http://www.w3.org/1999/xlink"
   version="1.1"
   id="svg2"
   width="350"
   height="900"
   viewBox="0 0 350 900">
  <metadata
     id="metadata8">
    <rdf:RDF>
      <cc:Work
         rdf:about="">
        <dc:format>image/svg+xml</dc:format>
        <dc:type
           rdf:resource="http://purl.org/dc/dcmitype/StillImage" />
        <dc:title></dc:title>
      </cc:Work>
    </rdf:RDF>
  </metadata>
  <defs
     id="defs6" />
  <image
     xlink:href="basemap/oz_osm.png"
     y="10"
     x="-135"
     id="image12"
     preserveAspectRatio="none"
     height="997.17"
     width="598.3"
     style="display:none" />
  <path
     id="path855"
     d="m 287.22,790.6 -77.66,15.51 -13.4,5.3 -8.84,6.94 -5.0,5.13 -11.56,16.68 -6.32,2.1 -5.48,-1.53 -8.58,-8.97 -18.16,-13.13 -8.58,-11.38 -2.75,-12.47 0.66,-11.39 4.18,-11.03 6.45,-11.66 1.32,-9.81 -1.02,-39.87 1.33,-22.99 6.47,-70.89 -8.26,-31.96 -1.21,-49.74 1.79,-38.24 2.97,-41.49 1.13,-25.67 0.74,-26.67 -6.82,-33.2 1.42,-11.86 4.66,-10.0 9.25,-12.07 14.44,-14.84 2.23,-8.49 -2.16,-14.82 -3.91,-17.16 1.94,-12.09 4.99,-14.87 -22.04,-26.48 -6.49,-19.14 35.75,-74.05 16.05,-22.6 22.59,-28.44 18.74,-14.94 9.57,-6.83 10.66,-0.94"
     style="fill:none;stroke:#e33238;stroke-width:5;stroke-linejoin:round;stroke-opacity:1" />
  <path
     id="path857"
     d="M 148.73,182.25 81.19,152.25 60.62,158.11"
     style="fill:none;stroke:#e33238;stroke-width:5;stroke-linejoin:round;stroke-opacity:1" />
</svg>
