<?xml version="1.0" encoding="UTF-8" standalone="no"?>
<svg
   xmlns:dc="http://purl.org/dc/elements/1.1/"
   xmlns:cc="http://creativecommons.org/ns#"
   xmlns:rdf="http://www.w3.org/1999/02/22-rdf-syntax-ns#"
   xmlns:svg="http://www.w3.org/2000/svg"
   xmlns="http://www.w3.org/2000/svg"
   xmlns:xlink="http://www.w3.org/1999/xlink"
   version="1.1"
   id="svg2"
   width="1275"
   height="1275"
   viewBox="0 0 1275 1275">
  <metadata
     id="metadata8">
    <rdf:RDF>
      <cc:Work
         rdf:about="">
        <dc:format>image/svg+xml</dc:format>
        <dc:type
           rdf:resource="http://purl.org/dc/dcmitype/StillImage" />
        <dc:title></dc:title>
      </cc:Work>
    </rdf:RDF>
  </metadata>
  <defs
     id="defs6" />
  <image
     xlink:href="streetmap/ozhosm.png"
     style="display:none"
     y="-440"
     x="-330"
     id="image12"
     preserveAspectRatio="none"
     height="1832"
     width="1603" />
  <path
     style="opacity:0.99918;fill:none;stroke:#244082;stroke-width:5;stroke-linejoin:round;stroke-miterlimit:4;stroke-dasharray:none;stroke-opacity:1"
     d="m 725.3529,63.95713 -101.06529,38.65979 -35.34044,18.09417 -38.58768,25.86765 -49.98044,26.6856 -35.4719,14.73166 -13.55285,8.12199 -39.70674,27.85857 -21.34877,9.38243 -34.35642,7.40866 -41.13187,4.52136 -100.23715,30.04753 -31.0379,3.57163 -30.41309,-1.48895 -30.24122,-7.18227 -18.40454,-7.33908 -10.33201,23.20355 8.81776,59.97377 12.44755,57.91333 7.53454,16.84128 -55.74191,71.69825 42.8755,34.68992 7.58378,14.12154 18.9227,34.48959 17.38826,13.0465 26.01408,14.868 36.7247,8.665 111.41062,75.7604 8.71494,0.01 14.52063,-3.0764 4.62585,-2.9647 12.0278,-9.1149 5.34946,-1.6315 9.67589,0.2844 7.05184,3.7116 179.60071,224.09 52.86239,67.7524 40.97818,46.6817 -0.52398,10.845 -18.84952,64.8902 -7.95952,36.2965 2.37085,35.7759 25.52022,49.5007"
     id="path855" />
  <path
     style="opacity:0.99918;fill:none;stroke:#244082;stroke-width:5;stroke-linejoin:round"
     d="m 663.52986,1013.9116 11.16664,2.9654 16.0539,-23.5876 32.6258,-35.08 17.5965,1.172 3.4963,-0.2196 3.0782,-8.1034 97.1456,-492.09366 0.35926,-4.06868 -6.73976,-1.98486 -61.50644,10.34215"
     id="path833" />
  <path
     style="opacity:0.99918;fill:none;stroke:#244082;stroke-width:5;stroke-linejoin:round"
     d="M 719.1661,962.5771 710.361,953.824 629.70278,852.5412 570.09635,900.2176"
     id="path835" />
  <path
     style="opacity:0.99918;fill:none;stroke:#244082;stroke-width:5;stroke-linejoin:round"
     d="m 1214.3136,790.1705 -183.9743,-86.4394 -5.8315,-6.157 -7.0013,-17.3712 -6.5143,-57.7587 -42.9698,3.9617 -9.6285,-6.3247 -4.1093,2.1254 -19.484,20.3725 -11.4814,2.1193 -117.3371,12.0004"
     id="path837" />
  <path
     style="fill:none;stroke:#244082;stroke-width:5;stroke-linejoin:round;stroke-opacity:1"
     d="m 976.71082,626.03074 69.17868,-76.91789 127.4526,-92.83715"
     id="path836" />
</svg>
