<?xml version="1.0" encoding="UTF-8" standalone="no"?>
<svg
   id="svg2"
   viewBox="0 0 4100 2500"
   height="2500"
   width="4100"
   version="1.1"
   xmlns:xlink="http://www.w3.org/1999/xlink"
   xmlns="http://www.w3.org/2000/svg"
   xmlns:svg="http://www.w3.org/2000/svg"
   xmlns:rdf="http://www.w3.org/1999/02/22-rdf-syntax-ns#"
   xmlns:cc="http://creativecommons.org/ns#"
   xmlns:dc="http://purl.org/dc/elements/1.1/">
  <metadata
     id="metadata8">
    <rdf:RDF>
      <cc:Work
         rdf:about="">
        <dc:format>image/svg+xml</dc:format>
        <dc:type
           rdf:resource="http://purl.org/dc/dcmitype/StillImage" />
      </cc:Work>
    </rdf:RDF>
  </metadata>
  <defs
     id="defs6" />
  <image
     xlink:href="basemap/phxosm.png"
     x="20"
     y="752.91"
     width="4217.73"
     height="1687.09"
     id="image10"
     style="display:none" />
  <path
     style="fill:none;stroke:#2291d0;stroke-width:5;stroke-linecap:butt;stroke-linejoin:miter;stroke-miterlimit:4;stroke-dasharray:none;stroke-opacity:1"
     id="path3006"
     d="m 2080.33,2184.95 0.17,9.05 3.5,15.5 14,9 35,0.5 24.5,12.5 31.5,14 8.5,9 20,8 18.5,18.5 26,8 115.5,124.5 639.5,-0.5 619.7,-2.14 412.61,-4.92" />
  <path
     style="fill:none;stroke:#2291d0;stroke-width:5;stroke-linecap:butt;stroke-linejoin:round;stroke-miterlimit:4;stroke-dasharray:none;stroke-opacity:1"
     id="path3776"
     d="m 412,1725 -6,17 -8.5,7 -2.5,8.5 -0.5,158.5 2.5,2 35.5,1 26,10.5 6.5,1.5 h 27 l 5,-3.5 16.5,-9 8.5,-1.5 395,-2 75,3 12,-2 11,-7.5 16,-7.5" />
  <path
     style="fill:none;stroke:#f2f2f2;stroke-width:8;stroke-linecap:butt;stroke-linejoin:round;stroke-miterlimit:4;stroke-dasharray:none;stroke-opacity:1"
     id="path3778"
     d="m 1475.5,1920.5 24.5,0.5 8.5,12 7,18.5 -2.5,20 -1,29 6.5,24.5 8.5,20 12,14.5 25,21.5 10.5,6.5 v 6.5 l -2.5,8 -7,3 -44.5,15.5 -11,0.5 -28.5,-14 -11.5,-0.5 -243.5,2" />
  <path
     d="m 2058.26,2070.97 -25.76,-19.97 -25,-17 -65,-14.5 -7.5,-5.5 -7,-6.5 -31,-42 -19,-14.5 -343.5,-49 -502.5,-0.5 -616,-1.5 -4,-3 v -171 l 1,-740 -38.5,-21.5 -79,0.5 -41.5,-2.5 -168.5,-1 -6,-6 2,-174 -1.28,-118.55 2.7,-586.51 -5.39,-4.72 -16.85,1.35"
     id="path4198"
     style="fill:none;stroke:#2291d0;stroke-width:5;stroke-linecap:butt;stroke-linejoin:miter;stroke-miterlimit:4;stroke-dasharray:none;stroke-opacity:1" />
  <path
     style="fill:none;fill-rule:evenodd;stroke:#2291d0;stroke-width:5;stroke-linecap:butt;stroke-linejoin:round;stroke-miterlimit:4;stroke-dasharray:none;stroke-opacity:1"
     d="m 2057.42,2069.78 9.77,10.96 8.82,22.4 4.53,41 0.24,42.43"
     id="path4200" />
  <path
     style="fill:none;stroke:#a4cf4e;stroke-width:5;stroke-linejoin:round;stroke-opacity:1"
     d="m 2224.24,2190.22 -15.76,0.43 -5.69,-2.91 -18.01,-14.02 -12.55,-3.44 -13.45,1.32 -8.13,5.47 -11.64,7.83 -14.75,1.68 1.01,118.27 0.09,73.35 3.51,11.89 8.2,14.41 12.07,7.52 15.13,3.98 h 203.86 l 9.2,2.55 46.09,0.05"
     id="path11172" />
  <path
     style="fill:none;stroke:#a4cf4e;stroke-width:5;stroke-linejoin:round;stroke-opacity:1"
     d="m 2124.25,2186.59 -29.55,2.51 -5.15,3.84 1.91,7.91 0.81,7.53 -1.27,5.63 -7.73,11.81 -2.36,7 0.52,33.24 4.27,9.78 6.25,9.74 0.86,4.45 0.02,11.49 3,3.75 29.43,-0.41"
     id="path12689" />
</svg>
