<?xml version="1.0" encoding="UTF-8" standalone="no"?>
<svg
   id="svg2"
   viewBox="-20 -50 2575 2125"
   height="2125"
   width="2575"
   version="1.1"
   xmlns:xlink="http://www.w3.org/1999/xlink"
   xmlns="http://www.w3.org/2000/svg"
   xmlns:svg="http://www.w3.org/2000/svg"
   xmlns:rdf="http://www.w3.org/1999/02/22-rdf-syntax-ns#"
   xmlns:cc="http://creativecommons.org/ns#"
   xmlns:dc="http://purl.org/dc/elements/1.1/">
  <metadata
     id="metadata8">
    <rdf:RDF>
      <cc:Work
         rdf:about="">
        <dc:format>image/svg+xml</dc:format>
        <dc:type
           rdf:resource="http://purl.org/dc/dcmitype/StillImage" />
      </cc:Work>
    </rdf:RDF>
  </metadata>
  <defs
     id="defs6">
    <marker
       style="overflow:visible"
       id="marker1757"
       refX="0"
       refY="0"
       orient="auto">
      <path
         transform="matrix(0.8,0,0,0.8,10,0)"
         style="fill:#7b2c1d;fill-opacity:1;fill-rule:evenodd;stroke:#7b2c1d;stroke-width:1pt;stroke-opacity:1"
         d="M 0,0 5,-5 -12.5,0 5,5 Z"
         id="path1755" />
    </marker>
    <marker
       style="overflow:visible"
       id="marker1567"
       refX="0"
       refY="0"
       orient="auto">
      <path
         transform="matrix(0.8,0,0,0.8,10,0)"
         style="fill:#7b2c1d;fill-opacity:1;fill-rule:evenodd;stroke:#7b2c1d;stroke-width:1pt;stroke-opacity:1"
         d="M 0,0 5,-5 -12.5,0 5,5 Z"
         id="path1565" />
    </marker>
    <marker
       style="overflow:visible"
       id="marker1557"
       refX="0"
       refY="0"
       orient="auto">
      <path
         transform="matrix(0.8,0,0,0.8,10,0)"
         style="fill:#7b2c1d;fill-opacity:1;fill-rule:evenodd;stroke:#7b2c1d;stroke-width:1pt;stroke-opacity:1"
         d="M 0,0 5,-5 -12.5,0 5,5 Z"
         id="path1555" />
    </marker>
    <marker
       style="overflow:visible"
       id="marker1481"
       refX="0"
       refY="0"
       orient="auto">
      <path
         transform="matrix(0.8,0,0,0.8,10,0)"
         style="fill:#7b2c1d;fill-opacity:1;fill-rule:evenodd;stroke:#7b2c1d;stroke-width:1pt;stroke-opacity:1"
         d="M 0,0 5,-5 -12.5,0 5,5 Z"
         id="path1479" />
    </marker>
    <marker
       style="overflow:visible"
       id="marker1471"
       refX="0"
       refY="0"
       orient="auto">
      <path
         transform="matrix(0.8,0,0,0.8,10,0)"
         style="fill:#7b2c1d;fill-opacity:1;fill-rule:evenodd;stroke:#7b2c1d;stroke-width:1pt;stroke-opacity:1"
         d="M 0,0 5,-5 -12.5,0 5,5 Z"
         id="path1469" />
    </marker>
    <marker
       style="overflow:visible"
       id="marker1401"
       refX="0"
       refY="0"
       orient="auto">
      <path
         transform="matrix(0.8,0,0,0.8,10,0)"
         style="fill:#7b2c1d;fill-opacity:1;fill-rule:evenodd;stroke:#7b2c1d;stroke-width:1pt;stroke-opacity:1"
         d="M 0,0 5,-5 -12.5,0 5,5 Z"
         id="path1399" />
    </marker>
    <marker
       style="overflow:visible"
       id="marker1391"
       refX="0"
       refY="0"
       orient="auto">
      <path
         transform="matrix(0.8,0,0,0.8,10,0)"
         style="fill:#7b2c1d;fill-opacity:1;fill-rule:evenodd;stroke:#7b2c1d;stroke-width:1pt;stroke-opacity:1"
         d="M 0,0 5,-5 -12.5,0 5,5 Z"
         id="path1389" />
    </marker>
    <marker
       orient="auto"
       refY="0"
       refX="0"
       id="marker1327"
       style="overflow:visible">
      <path
         id="path1325"
         d="M 0,0 5,-5 -12.5,0 5,5 Z"
         style="fill:#7b2c1d;fill-opacity:1;fill-rule:evenodd;stroke:#7b2c1d;stroke-width:1pt;stroke-opacity:1"
         transform="matrix(-0.8,0,0,-0.8,-10,0)" />
    </marker>
    <marker
       orient="auto"
       refY="0"
       refX="0"
       id="marker1317"
       style="overflow:visible">
      <path
         id="path1315"
         d="M 0,0 5,-5 -12.5,0 5,5 Z"
         style="fill:#7b2c1d;fill-opacity:1;fill-rule:evenodd;stroke:#7b2c1d;stroke-width:1pt;stroke-opacity:1"
         transform="matrix(-0.8,0,0,-0.8,-10,0)" />
    </marker>
    <marker
       orient="auto"
       refY="0"
       refX="0"
       id="marker1127"
       style="overflow:visible">
      <path
         id="path1125"
         d="M 0,0 5,-5 -12.5,0 5,5 Z"
         style="fill:#7b2c1d;fill-opacity:1;fill-rule:evenodd;stroke:#7b2c1d;stroke-width:1pt;stroke-opacity:1"
         transform="matrix(0.8,0,0,0.8,10,0)" />
    </marker>
  </defs>
  <path
     style="fill:none;stroke:#f2f2f2;stroke-width:8;stroke-linecap:butt;stroke-linejoin:round;stroke-miterlimit:4;stroke-dasharray:none;stroke-opacity:1"
     id="path2987"
     d="m -43.68,1214.85 38.18,55.15 24.2,39.71 17.59,12.24 24.55,4.71 37.83,0.23 64.12,-6.69 42.34,-7.43 22.36,4.68 35.53,25.22 25.07,18.38 25.46,4.3 34.27,-4.36 29.96,-8.28 21.18,-13.44 10.61,-16.26 12.73,-26.87 12.73,-12.02 24.75,-7.78 93.34,-12.73 114.58,-15.21 18.99,-7.17 46.28,-28.26 23.09,-11.59 19.8,-9.19 21.93,-5.45 58.93,-33.63 33.73,-5.38 47.98,8.7 27.17,22.69 21.08,20.08 18.67,5.39 17.6,-1.08 75.31,-12.85 18.06,-11.9 8.28,-23.33 -5.6,-83.5 -11.8,-21.48 -25.84,-23.07 -5.42,-12.22 -2.38,-34.62 0.59,-18.59 0.09,-10.17 7.1,-13.62 9.34,-12.2 16.52,-9.67 21.25,-3.91 42.67,6.66 17.32,-7.36 20.86,-19.12 15.37,-24.75 6.97,-18.33 3.83,-37 2.83,-26.16 6.16,-11.07 23.01,-12.96 21.42,-20.09 15.97,-33.99 11.6,-16.15 19.11,-13.15 25.84,-12.16 32.24,-13.49 30.26,1.46 48.11,-6.27 105.34,-40.74 47.39,-29.93 49.93,-32.91 25.57,-17.76 32.32,-52.39 16.8,-17.2 22.1,-13.53 28.99,-11.93 27.91,-2.95 36.23,5.66 30.43,0.47 38.4,-17.68 41.55,-22.54 19.23,-20.24 34.65,-24.04 26.26,-7.75 23.22,-0.79 45.71,6.45 52.1,-1.45 71,1.32 17.17,5.37 44.71,32.5 19.26,9.39 49.88,9.41 21.21,4.24 99,-7.78 36.06,2.83 43.84,2.83 39.6,-4.24 65.05,-16.26 113.14,-20.51" />
  <path
     style="fill:none;stroke:#f2f2f2;stroke-width:8;stroke-linecap:butt;stroke-linejoin:round;stroke-miterlimit:4;stroke-dasharray:none;stroke-opacity:1"
     id="path3759"
     d="m 2172.93,883.14 -6.19,22 -3.54,15.56 4.24,16.97 -12.02,33.94 -20.51,15.56 -23.83,4.09 -45.68,0.55 -39.1,-5.75 -31.86,-19.13 -75.18,-51.83 -89.11,-49.55 -52.33,-24.04 -21.21,-8.79 -22.41,-2.01 -106.34,15.33 -59.32,-3.42 -31.84,6.96 -20.18,7.84 -27.91,20.06 -21.84,8.48 -56.65,0.8 -23.77,-4.44 -14.43,-14.67 -11.24,-23.95 -29.7,-38.24 -41.07,-29.01 -37.71,-55.7 -18.04,-21.37 -21.82,-9.86 -28.55,-10.05 -31.68,-6.04 -9.65,-7.87 -11.64,-17.79 -14.07,-31.59 -3.89,-42.48 -8.77,-11.1 -18.25,-10.43 -28.3,-6.8 -17.86,-10.13 -14.84,-21.48 -18.38,-12.65 -20.58,-1.81 -25.46,1.41 -153.87,11.98 -130.66,17.45 -37.4,6.48 -25.51,2.13 -31.48,3.25 -23.16,7.93 -22.59,13.65 -41.88,40.86 -12.47,25.58 -3.49,27.28 6.98,31.42 34.91,86.63 2.61,27.51 -7.62,30.79 -12.35,22.78 -14.06,12.82 -10.97,6.98 -29.08,13.94" />
  <image
     xlink:href="../timelines/basemap/prgosm.png"
     style="display:none"
     x="-125"
     y="-25.57"
     width="3032"
     height="2165.71"
     id="image10" />
  <path
     style="fill:none;stroke:#f2f2f2;stroke-width:8;stroke-linecap:butt;stroke-linejoin:round;stroke-miterlimit:4;stroke-dasharray:none;stroke-opacity:1"
     id="path3757"
     d="m 2182.32,118.13 -1.74,44.49 -9.34,25.63 -11.11,14.76 -13.67,12.11 -29.23,19.9 -24.33,11.44 -20.18,3.36 -25.68,-3.98 -35.9,-27.15 -105.33,-123.89 -24.04,-24.75 -19.8,-6.36 -18.38,-2.12 -26.16,9.34 -60.81,25.31 -36.77,4.95 -64.35,4.95 -31.82,3.54 -38.89,17.68 -49.5,22.63 -23.33,2.83 -36.77,0.71 -32.53,5.66 -27.58,14.85 -18.38,24.04 -12.73,28.99 -1.27,44.89 6.27,27.03 18.33,32.73 29.7,48.79 5.77,19.59 -2.8,26.25 -12.14,24.69 -7.8,22.8 -6.36,19.09 5.48,46.11 19.8,41.83 v 16.55 l -1.41,16.57 -18.21,57.13 -61.87,118.72 -25.11,41.08 -4.86,20.42 6.98,46.76 0.71,79.2 2.12,108.89 -4.92,35.45 4.04,14.96 5.98,11.21 28.85,31.01 55.71,79.2 16.38,26.58 74.28,78.78 28.84,17.89 48.23,13.23 58.69,13.29 36.32,6.16 52.07,24.4 72.24,38.14 58.1,32.77 54.22,44.35 31.82,21.92 39.04,23.24 26.43,11.85 24.8,7.75 22.64,3.45 33.12,-5.28 58,-11.26 56.33,-17.86 50.32,-14.32 32.55,-6.51" />
  <path
     style="fill:none;stroke:#f2f2f2;stroke-width:8;stroke-linecap:butt;stroke-linejoin:round;stroke-miterlimit:4;stroke-dasharray:none;stroke-opacity:1"
     id="path3761"
     d="m 1001.5,784.5 41,-8.5 14,-2.5 h 14.5" />
  <path
     id="path853"
     d="m 1146.25,2007.34 -53.52,3.24 -9.08,-1.46 -4.7,-2.92 -2.59,-4.54 -13.3,-50.27 -0.81,-10.54 4.87,-10.22 0.97,-11.03 -2.76,-20.6 -2.59,-18 -7.14,-24.49 -2.11,-38.43 0.49,-21.73 6,-35.03 10.7,-52.06 2.43,-26.11 -0.97,-57.41 6,-16.87 19.62,-28.7 17.19,-20.27"
     style="opacity:1;fill:none;fill-opacity:1;fill-rule:nonzero;stroke:#7b2c1d;stroke-width:1;stroke-linecap:butt;stroke-linejoin:round;stroke-miterlimit:4;stroke-dasharray:none;stroke-opacity:1" />
  <path
     id="path886"
     d="m 1146.25,2007.34 14.27,-1.62 19.46,-6.16 13.95,-9.08 24.65,-16.38 17.03,-9.57 13.78,-0.81 45.41,-20.76 11.03,-2.76 11.03,0.81 26.6,15.89 8.27,4.05 13.62,3.57 30.16,-0.16"
     style="opacity:1;fill:none;fill-opacity:1;fill-rule:nonzero;stroke:#7b2c1d;stroke-width:5;stroke-linecap:butt;stroke-linejoin:round;stroke-miterlimit:4;stroke-dasharray:none;stroke-opacity:1" />
  <path
     id="path890"
     d="m 1349.63,445.34 -4.55,-0.51 -4.7,-1.14"
     style="opacity:1;fill:none;fill-opacity:1;fill-rule:nonzero;stroke:#7b2c1d;stroke-width:5;stroke-linecap:butt;stroke-linejoin:round;stroke-miterlimit:4;stroke-dasharray:none;stroke-opacity:1" />
  <path
     id="path892"
     d="m 768.4,1534.45 18.49,-17.51 8.6,-8.6 5.03,-4.54 7.14,-1.78 8.27,1.95 24.33,10.7 7.14,1.14 8.92,-1.78 6.32,-5.51 16.54,-18.16 12.65,-7.14 11.68,-2.11 11.51,-0.49"
     style="opacity:1;fill:none;fill-opacity:1;fill-rule:nonzero;stroke:#7b2c1d;stroke-width:1;stroke-linecap:butt;stroke-linejoin:round;stroke-miterlimit:4;stroke-dasharray:none;stroke-opacity:1" />
  <path
     id="path894"
     d="m 768.4,1534.45 -6,4.54 -30.81,19.3 -15.24,2.43 -41.34,5.48 -4.98,3.5 -52.23,65.21"
     style="opacity:1;fill:none;fill-opacity:1;fill-rule:nonzero;stroke:#7b2c1d;stroke-width:5;stroke-linecap:butt;stroke-linejoin:round;stroke-miterlimit:4;stroke-dasharray:none;stroke-opacity:1" />
  <path
     id="path896"
     d="m 915,1480.61 8.76,2.11 43.46,8.92 h 19.46 l 18.81,-5.03 23.03,-9.57 19.95,-14.76 11.84,-14.27 12.49,-30.65 9.41,-24.49 5.03,-10.7 10.54,-7.62 3.89,-6.32 13.78,-41.03 4.87,-27.08 0.65,-14.76 8.11,-8.92 0.16,-6.32 -2.92,-9.57 -3.08,-48.81 0.81,-18.81 7.46,-54.81 -1.95,-16.05 -2.92,-19.14 -0.32,-25.46 -23.68,-78 -24.33,-54.16 -1.95,-6.49 1.46,-2.43 92.6,-14.92"
     style="opacity:1;fill:none;fill-opacity:1;fill-rule:nonzero;stroke:#7b2c1d;stroke-width:5;stroke-linecap:butt;stroke-linejoin:round;stroke-miterlimit:4;stroke-dasharray:none;stroke-opacity:1" />
  <path
     id="path898"
     d="m 1170.42,921.45 47.52,-11.03 2.92,-3.57 3.08,-26.92 2.11,-1.46 134.44,6.49 20.6,-0.32 2.76,1.46 1.62,3.73 3.24,1.95 h 14.43 l 41.19,28.22 22.38,12.97 30,5.35 38.6,-1.14 1.95,1.78 8.43,16.87 v 6.32 l -1.78,8.92 1.46,3.57 23.19,7.3 18.81,0.81 22.87,11.68 0.32,3.24 -7.62,15.08 2.43,4.7 23.35,-7.46 1.9,-0.68 -4.98,-11.8 -10.7,-0.65 -4.7,-2.43"
     style="opacity:1;fill:none;fill-opacity:1;fill-rule:nonzero;stroke:#7b2c1d;stroke-width:5;stroke-linecap:butt;stroke-linejoin:round;stroke-miterlimit:4;stroke-dasharray:none;stroke-opacity:1" />
  <path
     id="path900"
     d="m 1045.42,940.66 6.89,43.83 4.99,14.93 16.47,50.06 7.8,11.24 v 8.03 l 2.52,8.26 -0.46,3.67 -18.12,8.94 -29.13,11.01 -26.6,3.9 -9.4,3.21 -17.2,10.55 -15.82,12.16 -8.03,2.98 -25,0.92 -7.8,4.82"
     style="opacity:1;fill:none;fill-opacity:1;fill-rule:nonzero;stroke:#7b2c1d;stroke-width:5;stroke-linecap:butt;stroke-linejoin:round;stroke-miterlimit:4;stroke-dasharray:none;stroke-opacity:1" />
  <path
     id="path902"
     d="m 1076.36,938.8 -2.81,-16.84 -0.23,-34.17 1.83,-10.55 2.06,-15.6 -0.23,-19.49 -0.23,-8.49 5.96,-12.16 v -3.9 l -2.52,-17.89 -0.23,-42.43 -1.61,-12.84 -1.15,-19.95 -4.59,-16.74 0.23,-9.17 5.96,-4.59 0.69,-7.57 3.9,-3.21 13.53,-0.92 4.13,-1.83 7.57,-12.61 5.96,-7.34 20.18,-0.23 1.38,-1.61 -8.72,-35.09 -2.29,-4.59 -4.36,-2.98 -21.25,2.82 -1.78,-1.46 -0.49,-2.27 1.46,-2.27 24,-4.7 3.73,-1.78 2.76,-5.19 -0.16,-9.08 -5.68,-15.73 -12.49,-30.97 1.78,-3.24 129.25,-29.19 16.54,-5.84 15.41,0.32 15.41,-0.49 26.92,5.68 48.98,12.32 9.73,0.49 6.49,-3.57 19.78,-5.51 7.3,0.65 17.51,13.78 h 32.76 l 4.38,2.92 26.6,0.49 16.22,-2.76 19.78,-5.68 4.22,-2.76 -3.24,-128.28 -1.46,-4.22 -99.9,-10.22 -23.19,5.35 -4.54,1.95"
     style="opacity:1;fill:none;fill-opacity:1;fill-rule:nonzero;stroke:#7b2c1d;stroke-width:5;stroke-linecap:butt;stroke-linejoin:round;stroke-miterlimit:4;stroke-dasharray:none;stroke-opacity:1" />
  <path
     id="path906"
     d="m 1177.71,856.74 2.27,-3.08 18.97,-1.95 19.3,-7.3 7.31,-3.71 2.03,-2.82 0.47,-9.36 1.78,-1.76 22.4,1.21 13.2,-12.27 30.16,-42.33 29.03,-30.16 16.87,-12.97 32.6,-11.19 19.62,8.92 6.97,-1.3 9.08,-7.14 6.32,0.81 16.87,12.49 7.78,1.78 12.32,0.49 30,2.92 79.95,14.76 15.57,20.43 16.05,4.22 20.92,-3.24 4.22,2.11 1.95,3.41 12.97,63.25 4.7,4.54 116.11,-8.6 175.31,25.95 183.25,-17.03 36.16,0.32 125.36,9.73 17.68,3.08 14.6,4.05 18.81,9.57 14.11,9.57 6.16,5.03 0.97,3.89 -5.19,6"
     style="opacity:1;fill:none;fill-opacity:1;fill-rule:nonzero;stroke:#7b2c1d;stroke-width:5;stroke-linecap:butt;stroke-linejoin:round;stroke-miterlimit:4;stroke-dasharray:none;stroke-opacity:1" />
  <path
     id="path908"
     d="m 1110.9,545.38 -4.22,-2.11 -25.62,5.68 -20.43,7.14 -23.19,12.49 -20.92,10.87 -9.57,3.89 -4.05,-1.62 -7.3,-12.32 -4.22,-64.06 -0.5,-6.17 -184.7,16.55 -130.13,17.36 -40.96,6.96 -37.79,7.62 -241.15,65.52 -29.19,5.51 -12.16,1.78 -12.97,-0.65"
     style="opacity:1;fill:none;fill-opacity:1;fill-rule:nonzero;stroke:#7b2c1d;stroke-width:5;stroke-linecap:butt;stroke-linejoin:round;stroke-miterlimit:4;stroke-dasharray:none;stroke-opacity:1" />
  <path
     style="opacity:1;fill:none;fill-opacity:1;fill-rule:nonzero;stroke:#7b2c1d;stroke-width:5;stroke-linecap:butt;stroke-linejoin:round;stroke-miterlimit:4;stroke-dasharray:none;stroke-opacity:1"
     d="m 1347.13,728.32 2.65,-4.88 7.14,-27.08 -1.46,-29.87 5.45,-1.31 18.39,-4.82 9.41,-3.57 9.89,-4.87 51.61,-21.18 172.49,-60.05 93.07,-52.29 31.32,-21.99 13.84,-13.25"
     id="path906-3" />
  <path
     id="path2186"
     d="m 1400.09,650.99 -4.21,-9.41 -0.11,-5.27 1.38,-5.73 4.13,-3.67 2.41,-3.9 0.46,-5.85 -3.33,-30.04 1.03,-51.26 3.21,-16.51 4.11,-1.32 14.59,11.07"
     style="opacity:1;fill:none;fill-opacity:1;fill-rule:nonzero;stroke:#7b2c1d;stroke-width:1;stroke-linecap:butt;stroke-linejoin:round;stroke-miterlimit:4;stroke-dasharray:none;stroke-opacity:1" />
  <path
     id="path2777"
     d="m 1528.22,459.37 2.29,-2.29 122.13,-1.83 105.38,-2.41 49.65,-22.59 2.98,1.49 10.66,19.54 1.84,-0.74 126.14,-69.26 58.48,-30.62 25.34,-8.72 10.55,-7.34 8.94,-5.96"
     style="opacity:1;fill:none;fill-opacity:1;fill-rule:nonzero;stroke:#7b2c1d;stroke-width:5;stroke-linecap:butt;stroke-linejoin:round;stroke-miterlimit:4;stroke-dasharray:none;stroke-opacity:1" />
  <path
     id="path2779"
     d="m 1227.6,837.89 0.29,14.8 -3.96,27.24"
     style="opacity:1;fill:none;fill-opacity:1;fill-rule:nonzero;stroke:#7b2c1d;stroke-width:5;stroke-linecap:butt;stroke-linejoin:round;stroke-miterlimit:4;stroke-dasharray:none;stroke-opacity:1" />
  <path
     id="path2781"
     d="m 1220.85,906.85 -3.73,10.7 -2.43,15.89 7.78,18 5.51,7.95 17.03,44.92 3.89,10.22 20.92,24.49 11.19,5.68 77.68,-0.81 6.81,-5.51 2.76,-0.81 14.6,8.6 8.43,1.62 14.76,2.76 4.05,-0.49 18.06,-10.39 1.24,2.28 4.38,10.05 29.03,21.73 6.97,4.7 18.16,15.89 32.6,20.6 3.89,3.57 1.78,4.87 1.14,20.76 21.41,52.06 4.22,4.38 7.14,-0.32 36,-11.35 18.81,-11.51 14.92,-6.16 9.73,0.49 16.54,5.51 8.43,-0.32 37.14,-6.97 32.11,-1.46 4.38,1.62 1.95,3.41 12.16,39.08 5.51,7.14 38.43,32.43 3.73,2.92 3.57,0.32 1.95,-2.27 9.41,-13.3 2.59,-0.49 h 4.05 l 2.43,1.3 21.57,21.57"
     style="opacity:1;fill:none;fill-opacity:1;fill-rule:nonzero;stroke:#7b2c1d;stroke-width:5;stroke-linecap:butt;stroke-linejoin:round;stroke-miterlimit:4;stroke-dasharray:none;stroke-opacity:1" />
  <path
     style="opacity:1;fill:none;fill-opacity:1;fill-rule:nonzero;stroke:#7b2c1d;stroke-width:1;stroke-linecap:butt;stroke-linejoin:round;stroke-miterlimit:4;stroke-dasharray:none;stroke-opacity:1"
     d="m 1792.82,76.05 24.97,-10.38 10.87,-4.05 3.57,-5.84 -0.81,-10.7 -4.87,-12.16"
     id="path3541" />
  <path
     style="opacity:1;fill:none;fill-opacity:1;fill-rule:nonzero;stroke:#7b2c1d;stroke-width:5;stroke-linecap:butt;stroke-linejoin:round;stroke-miterlimit:4;stroke-dasharray:none;stroke-opacity:1"
     d="m 1596.79,118.57 26.03,-11.81 96.55,-8.49 36.47,-4.93 41.65,-16.95"
     id="path3539" />
  <path
     style="opacity:1;fill:none;fill-opacity:1;fill-rule:nonzero;stroke:#7b2c1d;stroke-width:5;stroke-linecap:butt;stroke-linejoin:round;stroke-miterlimit:4;stroke-dasharray:none;stroke-opacity:1"
     d="m 1826.56,32.92 -8.35,-19.14 -0.16,-4.78 7.54,-7.22"
     id="path3609" />
  <path
     style="opacity:1;fill:none;fill-opacity:1;fill-rule:nonzero;stroke:#7b2c1d;stroke-width:5;stroke-linecap:butt;stroke-linejoin:round;stroke-miterlimit:4;stroke-dasharray:none;stroke-opacity:1"
     d="m 1582.49,171.9 -0.03,2.86 7.68,8.49 12.27,6.88 15.71,11.7 9.86,2.52 47.93,10.32 10.32,6.99 7.91,9.75 10.09,23.74 7.8,11.35 21.79,21.9 5.62,1.95 6.42,-0.46 15.14,-4.7 9.63,-0.34 8.49,3.1 7.34,8.72 0.69,7.91 -2.75,8.49 -5.85,6.99 -10.78,12.5 -17.66,13.19 -2.41,4.36 v 3.9 l 0.92,16.17 -1.49,15.82 3.67,14.22 6.88,45.3 1.15,9.98 1.49,21.44 2e-4,11.12 -4.59,8.03 1.42,8.76 0.32,14.76 3.89,11.68 8.43,11.03 6.97,16.05 1.95,10.7 -0.81,6.97 -3.57,7.14 -8.76,7.62 -43.79,29.84 -4.87,4.38 -4.54,5.84 -6.97,17.84 0.32,8.27 17.03,50.27 32.27,127.95 -3.08,3.89"
     id="path3611" />
  <path
     style="opacity:1;fill:none;fill-opacity:1;fill-rule:nonzero;stroke:#7b2c1d;stroke-width:5;stroke-linecap:butt;stroke-linejoin:round;stroke-miterlimit:4;stroke-dasharray:none;stroke-opacity:1"
     d="m 1639.41,847.5 -3.08,2.92 5.84,28.54 -3.41,3.08 -170.87,6.77 -45.9,0.59 -1.91,1.94 0.23,9.29 -1.72,1.38"
     id="path3628" />
  <path
     style="opacity:1;fill:none;fill-opacity:1;fill-rule:nonzero;stroke:#7b2c1d;stroke-width:5;stroke-linecap:butt;stroke-linejoin:round;stroke-miterlimit:4;stroke-dasharray:none;stroke-opacity:1"
     d="m 1077.82,936.37 -19.14,3.24 -26.6,1.62 -9.24,-1.3 -14.92,-6.81 -19.46,-0.97 -30.65,2.59 -140.6,27.73 -18.33,-1.46 -14.27,3.41 -12.32,2.92 -33.57,-0.16 -54,6.16 -49.79,2.59 -66,18.33 -10.87,0.97 -196.71,10.7 -22.06,9.57 -18.97,3.73 -21.41,15.08 -12.97,5.84 -9.57,2.11 -27.08,-0.16 -18.65,4.87 -14.43,9.08 -19.78,15.08 -10.22,5.03 -5.35,-0.65 -24.65,-19.46 -6.16,-3.08 -16.38,-0.32 -7.78,-2.92 -16.22,-13.95 -4.38,-1.78 -48.65,-0.81 -19.14,10.38"
     id="path3630" />
  <path
     id="path1853"
     d="M 990.88,499.15 976.56,323.52"
     style="opacity:1;fill:none;fill-opacity:1;fill-rule:nonzero;stroke:#7b2c1d;stroke-width:5;stroke-linecap:butt;stroke-linejoin:round;stroke-miterlimit:4;stroke-dasharray:none;stroke-opacity:1" />
  <path
     id="path1857"
     d="m 275.01,884.12 37.7,1.44 77.66,-16.48 174.68,-71.89 52.73,-29.66 61.18,-9.89 27.19,-7 39.96,3.3 18.54,-0.41 98.05,-25.54 19.36,-7 1.24,-28.22 14.63,-15.86 1.65,-6.59 -1.03,-8.86 -5.77,-10.51 -0.21,-7.42 19.77,-26.16 32.96,-23.69 61.64,-10.35"
     style="opacity:1;fill:none;fill-opacity:1;fill-rule:nonzero;stroke:#7b2c1d;stroke-width:5;stroke-linecap:butt;stroke-linejoin:round;stroke-miterlimit:4;stroke-dasharray:none;stroke-opacity:1" />
  <path
     id="path1859"
     d="m 1079.82,796.37 105.26,-3.91 13.18,-3.3 23.48,-9.89 3.5,0.82 6.59,24.92 -3.77,23.51"
     style="opacity:1;fill:none;fill-opacity:1;fill-rule:nonzero;stroke:#7b2c1d;stroke-width:5;stroke-linecap:butt;stroke-linejoin:round;stroke-miterlimit:4;stroke-dasharray:none;stroke-opacity:1" />
  <path
     id="path1861"
     d="m 2044.47,334.12 15.66,0.41 32.34,8.86 112.26,1.44 90.02,6.39 4.12,2.47 v 18.95 l 4.12,28.22 5.15,12.57 4.33,25.34 8.03,5.36"
     style="opacity:1;fill:none;fill-opacity:1;fill-rule:nonzero;stroke:#7b2c1d;stroke-width:5;stroke-linecap:butt;stroke-linejoin:round;stroke-miterlimit:4;stroke-dasharray:none;stroke-opacity:1" />
  <path
     id="path1863"
     d="m 2495.58,402.1 -109.38,10.3 -40.58,12.98 -57.68,21.22 -59.53,4.53 -174.68,26.78 -198.16,-33.78 -9.27,-5.97"
     style="opacity:1;fill:none;fill-opacity:1;fill-rule:nonzero;stroke:#7b2c1d;stroke-width:5;stroke-linecap:butt;stroke-linejoin:round;stroke-miterlimit:4;stroke-dasharray:none;stroke-opacity:1" />
  <path
     id="path1865"
     d="m 1705.74,656.95 73.1,-22.31 65.25,-9.61 67.29,-3.2 27.67,4.95 77.2,7.28"
     style="opacity:1;fill:none;fill-opacity:1;fill-rule:nonzero;stroke:#7b2c1d;stroke-width:5;stroke-linecap:butt;stroke-linejoin:round;stroke-miterlimit:4;stroke-dasharray:none;stroke-opacity:1" />
  <path
     id="path1867"
     d="m 442.29,707.76 185.86,-72.54 12.82,-2.33 83.9,-3.79 25.93,-11.36 26.22,-2.04 135.34,1.66"
     style="opacity:1;fill:none;fill-opacity:1;fill-rule:nonzero;stroke:#7b2c1d;stroke-width:5;stroke-linecap:butt;stroke-linejoin:round;stroke-miterlimit:4;stroke-dasharray:none;stroke-opacity:1" />
  <path
     id="path1873"
     d="m 1106.68,543.27 6,-1.14"
     style="opacity:1;fill:none;fill-opacity:1;fill-rule:nonzero;stroke:#7b2c1d;stroke-width:5;stroke-linecap:butt;stroke-linejoin:round;stroke-miterlimit:4;stroke-dasharray:none;stroke-opacity:1" />
  <path
     id="path1875"
     d="m 1136.16,658.67 4.42,3.39 37.9,11.12 3.09,4.94 7.83,2.47"
     style="opacity:1;fill:none;fill-opacity:1;fill-rule:nonzero;stroke:#7b2c1d;stroke-width:5;stroke-linecap:butt;stroke-linejoin:round;stroke-miterlimit:4;stroke-dasharray:none;stroke-opacity:1" />
  <path
     id="path1877"
     d="m 1089.29,1604.05 11.54,-16.89 0.82,-11.33 13.3,-15.92 6.16,-13.62 -0.97,-11.03 -7.62,-12.16 -8.6,-14.27 -1.78,-9.24 1.14,-9.24 8.11,-23.19 16.38,-34.06 4.05,-18 8.11,-10.54 38.11,-96.98 37.46,-106.71 8.43,-28.54 3.41,-23.68 -0.65,-19.95 -3.89,-18.97 -7.14,-14.43 -7.3,-7.62 -9.73,-7.62 -1.78,-3.73 -3.24,-11.35 -4.22,-13.95 -14.6,-115.3 -2.92,-48.49 5.84,-30.49 -4.54,-36.81 -6.81,-16.54 -1.62,-10.54 0.81,-18.49 3.24,-28.7 16.05,-44.11 6.16,-28.06 3.41,-10.87 1.78,-6.16 6.32,-11.19 9.57,-6.81 0.16,-5.19 -13.14,-28.87 0.81,-2.76 6,-3.24 40.06,-8.6 22.54,-2.92 5.84,-5.35 5.19,-1.78 13.3,-0.32 31.3,-9.08 8.92,-1.95 10.05,-3.24 12.65,-6 7.78,-17.03 0.81,-45.41 -4.22,-23.51 -11.84,-24.81 0.65,-7.14 24.33,-22.06 11.35,-13.78 9.08,-6.81 7.14,-18.81 5.68,-18.81 -2.43,-11.19 -7.95,-13.95 -8.76,-30.16 -8.6,-37.95 -3.41,-3.89 -10.22,-3.24 -2.43,-4.54 -0.65,-15.57 3.57,-10.38 6.97,-9.41 9.57,-9.08 8.6,-5.84 12.97,-6.81 29.84,-6.65 55.95,-18.16 31.95,-5.51 20.27,-0.16 12,0.65 25.46,4.54 3.24,-1.78 6.65,-15.89 -0.49,-7.46 -2.59,-7.14 3.08,-9.73 10.7,-18.16 v -7.62 l -37.46,-96.17 2.59,-8.11"
     style="opacity:1;fill:none;fill-opacity:1;fill-rule:nonzero;stroke:#7b2c1d;stroke-width:5;stroke-linecap:butt;stroke-linejoin:round;stroke-miterlimit:4;stroke-dasharray:none;stroke-opacity:1" />
  <path
     id="path1879"
     d="m 1349.78,723.44 3.8,3.1"
     style="opacity:1;fill:none;fill-opacity:1;fill-rule:nonzero;stroke:#7b2c1d;stroke-width:5;stroke-linecap:butt;stroke-linejoin:round;stroke-miterlimit:4;stroke-dasharray:none;stroke-opacity:1" />
  <path
     id="path1881"
     d="m 1355.45,666.49 -11.35,4.43 -11.95,8.24 -8.45,5.97 -5.15,1.03 -2.68,-2.68 v -7.21 l -4.74,-13.18 -11.95,-85.28"
     style="opacity:1;fill:none;fill-opacity:1;fill-rule:nonzero;stroke:#7b2c1d;stroke-width:5;stroke-linecap:butt;stroke-linejoin:round;stroke-miterlimit:4;stroke-dasharray:none;stroke-opacity:1" />
  <path
     id="path1883"
     d="m 1605.36,1017.45 -30.29,8.71 -32.34,3.79 -34.96,-1.46 -37.29,-6.41 -8.45,0.73 -33.87,16.84 -14.93,-25.73 -19.52,-19.52 -28.84,3.2 -3.79,-2.33 -7.28,-14.86 1.17,-5.83 5.24,-6.12 6.41,-36.12 -12.24,-47.78 -6.99,-24.16 -1.44,-20.19 9.89,-5.97 3.3,-4.74 5.36,-1.44 19.77,8.86 9.27,8.45 53.35,14.83 10.51,0.82 62.41,-2.68 119.6,-10.87"
     style="opacity:1;fill:none;fill-opacity:1;fill-rule:nonzero;stroke:#7b2c1d;stroke-width:5;stroke-linecap:butt;stroke-linejoin:round;stroke-miterlimit:4;stroke-dasharray:none;stroke-opacity:1" />
  <path
     id="path1885"
     d="m 1630.6,1009.31 162.76,-53.09 6.18,-0.41 2.68,8.24"
     style="opacity:1;fill:none;fill-opacity:1;fill-rule:nonzero;stroke:#7b2c1d;stroke-width:5;stroke-linecap:butt;stroke-linejoin:round;stroke-miterlimit:4;stroke-dasharray:none;stroke-opacity:1" />
  <path
     id="path1887"
     d="m 1799.54,955.8 74.98,-8.03 19.57,-5.97 20.19,24.31 31.93,23.48 14.42,14.42 11.33,6.8 -4.53,10.3 -10.71,-6.59 4.33,-10.3"
     style="opacity:1;fill:none;fill-opacity:1;fill-rule:nonzero;stroke:#7b2c1d;stroke-width:5;stroke-linecap:butt;stroke-linejoin:round;stroke-miterlimit:4;stroke-dasharray:none;stroke-opacity:1" />
  <path
     id="path1889"
     d="m 1971.96,1010.8 39.14,18.54 41.82,11.54 12.15,14.63 1.24,6.18 -6.39,37.9 -0.21,5.97 2.68,2.68 21.83,5.15 18.33,10.71 16.48,14.83 43.67,41.61 55,42.02 15.86,6.59 110.2,5.56 13.18,-1.03 13.18,-4.94 22.45,-3.5"
     style="opacity:1;fill:none;fill-opacity:1;fill-rule:nonzero;stroke:#7b2c1d;stroke-width:5;stroke-linecap:butt;stroke-linejoin:round;stroke-miterlimit:4;stroke-dasharray:none;stroke-opacity:1" />
  <path
     id="path1891"
     d="m 2119.24,841.68 -5.16,6.14"
     style="opacity:1;fill:none;fill-opacity:1;fill-rule:nonzero;stroke:#7b2c1d;stroke-width:5;stroke-linecap:butt;stroke-linejoin:round;stroke-miterlimit:4;stroke-dasharray:none;stroke-opacity:1" />
  <path
     id="path1893"
     d="m 1915.52,862.28 v 10.51 l 18.54,44.49 -1.65,5.56 -6.59,10.71 -3.5,1.44 -28.22,6.8"
     style="opacity:1;fill:none;fill-opacity:1;fill-rule:nonzero;stroke:#7b2c1d;stroke-width:5;stroke-linecap:butt;stroke-linejoin:round;stroke-miterlimit:4;stroke-dasharray:none;stroke-opacity:1" />
  <path
     id="path1895"
     d="m 1243.99,1000.09 -6.8,1.65 -9.48,-2.68 -43.67,9.48"
     style="opacity:1;fill:none;fill-opacity:1;fill-rule:nonzero;stroke:#7b2c1d;stroke-width:5;stroke-linecap:butt;stroke-linejoin:round;stroke-miterlimit:4;stroke-dasharray:none;stroke-opacity:1" />
  <path
     id="path1897"
     d="m 663.51,968.37 21.42,4.53"
     style="opacity:1;fill:none;fill-opacity:1;fill-rule:nonzero;stroke:#7b2c1d;stroke-width:5;stroke-linecap:butt;stroke-linejoin:round;stroke-miterlimit:4;stroke-dasharray:none;stroke-opacity:1" />
  <path
     id="path1899"
     d="m 1615.57,774.2 33.34,-7.01 83.9,-20.39"
     style="opacity:1;fill:none;fill-opacity:1;fill-rule:nonzero;stroke:#7b2c1d;stroke-width:5;stroke-linecap:butt;stroke-linejoin:round;stroke-miterlimit:4;stroke-dasharray:none;stroke-opacity:1" />
  <path
     id="path1901"
     d="m 1687.22,843.51 0.58,6.26 15.44,-1.31 -0.44,-5.83"
     style="opacity:1;fill:none;fill-opacity:1;fill-rule:nonzero;stroke:#7b2c1d;stroke-width:5;stroke-linecap:butt;stroke-linejoin:round;stroke-miterlimit:4;stroke-dasharray:none;stroke-opacity:1" />
  <path
     id="path1958"
     d="m 1199.93,601.65 -20.42,8.3 -12.77,3.5 -16.27,10.71 -17.92,18.95"
     style="opacity:1;fill:none;fill-opacity:1;fill-rule:nonzero;stroke:#7b2c1d;stroke-width:5;stroke-linecap:butt;stroke-linejoin:round;stroke-miterlimit:4;stroke-dasharray:none;stroke-opacity:1" />
  <path
     id="path1960"
     d="m 1404.46,1170.65 10.71,-5.15 25.54,0.21 2.27,1.85 0.21,12.57 -1.85,5.36 -34.81,30.28 -3.09,-0.41 -28.43,-40.99 1.03,-3.5 9.27,-7.42 2.68,-7 1.44,-4.53 2.68,-33.58 19.98,-33.99 5.56,-3.09 37.49,-3.09 5.15,-6.39"
     style="opacity:1;fill:none;fill-opacity:1;fill-rule:nonzero;stroke:#7b2c1d;stroke-width:5;stroke-linecap:butt;stroke-linejoin:round;stroke-miterlimit:4;stroke-dasharray:none;stroke-opacity:1" />
  <path
     id="path2057"
     d="m 850.75,730.66 -7,10.71"
     style="opacity:1;fill:none;fill-opacity:1;fill-rule:nonzero;stroke:#7b2c1d;stroke-width:5;stroke-linecap:butt;stroke-linejoin:round;stroke-miterlimit:4;stroke-dasharray:none;stroke-opacity:1" />
  <path
     id="path2059"
     d="m 882.07,720.97 26.16,-10.09 6.8,-2.06 5.15,-5.15 0.41,-5.97 -3.09,-21.22 8.24,-33.78 2.27,-18.13 3.09,-5.15 2.88,-2.06 71.07,-11.74 14.63,5.36 74.16,-17.51 27.4,-9.48 4.74,1.85"
     style="opacity:1;fill:none;fill-opacity:1;fill-rule:nonzero;stroke:#7b2c1d;stroke-width:5;stroke-linecap:butt;stroke-linejoin:round;stroke-miterlimit:4;stroke-dasharray:none;stroke-opacity:1" />
  <path
     id="path2061"
     d="m 917.91,680.19 -21.42,-1.65"
     style="opacity:1;fill:none;fill-opacity:1;fill-rule:nonzero;stroke:#7b2c1d;stroke-width:5;stroke-linecap:butt;stroke-linejoin:round;stroke-miterlimit:4;stroke-dasharray:none;stroke-opacity:1" />
  <path
     id="path2063"
     d="m 1366.63,932.36 6.31,20.56 7.42,-3.09"
     style="opacity:1;fill:none;fill-opacity:1;fill-rule:nonzero;stroke:#7b2c1d;stroke-width:5;stroke-linecap:butt;stroke-linejoin:round;stroke-miterlimit:4;stroke-dasharray:none;stroke-opacity:1" />
</svg>
