<?xml version="1.0" encoding="UTF-8" standalone="no"?>
<svg
   xmlns:dc="http://purl.org/dc/elements/1.1/"
   xmlns:cc="http://creativecommons.org/ns#"
   xmlns:rdf="http://www.w3.org/1999/02/22-rdf-syntax-ns#"
   xmlns:svg="http://www.w3.org/2000/svg"
   xmlns="http://www.w3.org/2000/svg"
   xmlns:xlink="http://www.w3.org/1999/xlink"
   viewBox="0 0 1050 1050"
   height="1050"
   width="1050"
   id="svg2"
   version="1.1">
  <metadata
     id="metadata8">
    <rdf:RDF>
      <cc:Work
         rdf:about="">
        <dc:format>image/svg+xml</dc:format>
        <dc:type
           rdf:resource="http://purl.org/dc/dcmitype/StillImage" />
        <dc:title></dc:title>
      </cc:Work>
    </rdf:RDF>
  </metadata>
  <defs
     id="defs6" />
  <image
     xlink:href="basemap/pz_osm.png"
     width="1308"
     height="1308"
     preserveAspectRatio="none"
     id="image10"
     x="-200"
     y="-108"
     style="display:none" />
  <path
     id="path840"
     d="m 65.34,652.48 17.11,20.57 5.61,2.16 16.83,-1.44 3.6,4.46 0.29,7.33 2.01,6.76 4.6,3.88 6.04,4.17 19.7,4.31 10.35,4.17 11.65,8.77 5.18,1.58 97.08,-28.76 52.78,-15.53 39.98,-10.5 7.77,-2.73 27.18,-15.24 8.77,-3.88 10.07,-0.14 5.61,0.43 12.94,7.33 6.9,1.29 85.28,-38.11 9.49,-1.29 68.6,4.94 8.36,1.01 31.96,6.85 1.45,-0.12 5.1,-2.04 11.69,1.99 3.72,6.21 0.09,0.14 9.78,14.1 1.51,1.01 37.9,8.42 2.72,3.77 1.14,57.04 0.14,0.77 4.17,11.97 V 751 l 0.03,0.39 1.15,7.19 0.31,0.86 14.67,25.31 6.19,0.04 34.08,-34.52 38.97,39.26 40.41,57.1 4.75,4.03 93.48,53.93 11.65,10.07 15.1,12.51 v 9.06"
     style="fill:none;stroke:#e35211;stroke-width:5;stroke-linecap:butt;stroke-linejoin:round;stroke-miterlimit:4;stroke-dasharray:none;stroke-opacity:1" />
  <path
     id="path852"
     d="m 330.64,954.1 15.46,0.61 12.41,-13.42 5.29,-2.44 33.97,0.41 15.86,11.59 9.56,3.25 84,-7.73 8.34,4.88 4.68,-0.41 33.15,-41.7 3.86,-9.15 1.02,-6.31 6.92,-108.2 6.31,-43.53 7.73,-45.56 11.29,-60.2 6.83,-22.24 9.63,-51.47 5.14,-34.84 -0.54,-12.42 -7.36,-13.63 -55.05,-63.65 -33.78,-40.75 -27.04,-78.24 -0.86,-12.66 4.03,-15.82 74.21,-163.38 12.66,-29.91 9.49,-5.47"
     style="fill:none;stroke:#c00e0e;stroke-width:5;stroke-linecap:butt;stroke-linejoin:round;stroke-miterlimit:4;stroke-dasharray:none;stroke-opacity:1" />
  <path
     id="path854"
     d="m 670.24,641.98 -10.79,4.46 -23.73,-2.88 -34.78,-4.18 -0.5,-2.29 6.04,-20.37"
     style="opacity:1;fill:none;fill-opacity:1;fill-rule:nonzero;stroke:#e35211;stroke-width:5;stroke-linecap:butt;stroke-linejoin:round;stroke-miterlimit:4;stroke-dasharray:none;stroke-opacity:1" />
  <path
     id="path856"
     d="m 680.86,642.19 -20.54,9.28 -63.28,-8.2 -1.58,-6.22 7.2,-24.6"
     style="opacity:1;fill:none;fill-opacity:1;fill-rule:nonzero;stroke:#fbc30a;stroke-width:5;stroke-linecap:butt;stroke-linejoin:round;stroke-miterlimit:4;stroke-dasharray:none;stroke-opacity:1" />
  <path
     id="path858"
     d="m 720.32,748.56 28.9,28.59"
     style="opacity:1;fill:none;fill-opacity:1;fill-rule:nonzero;stroke:#e35211;stroke-width:5;stroke-linecap:butt;stroke-linejoin:round;stroke-miterlimit:4;stroke-dasharray:none;stroke-opacity:1" />
  <path
     id="path846"
     d="m 694.84,60.96 -4.89,12.66 1.44,4.6 4.89,2.01 2.01,4.6 -38.26,103.84 -46.6,108.44 -12.94,24.74 -21,36.82 -6.9,16.97 -8.92,35.95 -3.45,9.2 -7.77,9.2 0.45,4.69 55.23,63.86 c 0.12,0.14 0.22,0.29 0.31,0.45 l 7.77,14.38 c 0.18,0.33 0.28,0.7 0.3,1.08 l 0.57,13.23 c 0.01,0.16 -6e-4,0.32 -0.02,0.47 l -5.18,35.09 c -0,0.01 -0,0.03 -0.01,0.04 l -9.22,49.17 6.75,0.56 0.52,0.06 31.47,6.74 5.04,-2.02 1.35,-0.14 13.52,2.3 1.72,1.18 4.27,7.12 9.18,13.22 37.88,8.42 1.48,0.98 3.74,5.18 0.47,1.41 1.14,57.42 4.18,11.99 0.14,0.82 v 23.1 l 1.05,6.54 14.44,24.91 116.01,203.58"
     style="fill:none;stroke:#fbc30a;stroke-width:5;stroke-linecap:butt;stroke-linejoin:round;stroke-miterlimit:4;stroke-dasharray:none;stroke-opacity:1" />
</svg>
