<?xml version="1.0" encoding="UTF-8" standalone="no"?>
<svg
   xmlns:dc="http://purl.org/dc/elements/1.1/"
   xmlns:cc="http://creativecommons.org/ns#"
   xmlns:rdf="http://www.w3.org/1999/02/22-rdf-syntax-ns#"
   xmlns:svg="http://www.w3.org/2000/svg"
   xmlns="http://www.w3.org/2000/svg"
   xmlns:xlink="http://www.w3.org/1999/xlink"
   viewBox="0 0 1200 1200"
   height="1200"
   width="1200"
   id="svg2"
   version="1.1">
  <metadata
     id="metadata8">
    <rdf:RDF>
      <cc:Work
         rdf:about="">
        <dc:format>image/svg+xml</dc:format>
        <dc:type
           rdf:resource="http://purl.org/dc/dcmitype/StillImage" />
        <dc:title></dc:title>
      </cc:Work>
    </rdf:RDF>
  </metadata>
  <defs
     id="defs6" />
  <image
     xlink:href="streetmap/qfbosm.png"
     style="display:none"
     y="-155"
     x="-40"
     id="image10"
     preserveAspectRatio="none"
     height="1355"
     width="1355" />
  <path
     id="path836"
     d="m 272.95,149.55 15.24,27.04 8.92,22.15 25.6,68.17 -0.86,15.82 -3.45,9.49 -15.53,20.42 -16.97,24.45 -18.98,39.69 -6.33,11.79 2.01,7.48 38.83,33.37 15.82,11.79 32.5,32.22 18.7,13.81 26.17,14.38 17.55,17.26 8.05,11.51 3.16,10.35 13.52,15.24 10.35,7.19 29.91,12.94 39.41,20.13 52.06,34.23 10.64,8.05 14.38,5.75 54.08,17.83 7.48,1.73 10.35,3.16 18.12,-0.29 10.07,4.89 4.03,5.18 24.74,6.62 12.66,6.62 4.6,9.78 0.29,6.62 -6.04,6.62 -2.3,6.33 0.86,7.48 5.47,6.33 4.6,4.6 14.09,4.89 11.51,4.89 8.63,6.62 19.27,8.05 31.64,7.19 9.78,4.89 16.97,-3.74 33.65,-2.3 23.87,4.03 30.49,7.48 9.2,0.58 9.49,6.62 17.26,6.33 18.7,-1.73 h 15.24 l 41.71,6.62 47.75,10.07 43.15,16.4 2.01,10.93"
     style="opacity:1;fill:none;fill-opacity:1;fill-rule:nonzero;stroke:#e30119;stroke-width:5;stroke-linecap:butt;stroke-linejoin:round;stroke-miterlimit:4;stroke-dasharray:none;stroke-opacity:1" />
  <path
     id="path838"
     d="m 740.07,706.42 2.59,31.35"
     style="opacity:1;fill:none;fill-opacity:1;fill-rule:nonzero;stroke:#e30119;stroke-width:5;stroke-linecap:butt;stroke-linejoin:round;stroke-miterlimit:4;stroke-dasharray:none;stroke-opacity:1" />
  <path
     id="path840"
     d="m 776.89,1138.45 -7.19,-13.81 -29.63,-15.53 -17.83,-8.34 -12.08,-8.63 -12.94,-16.97 -21.57,-49.47 -4.03,-27.04 0.29,-19.27 1.15,-23.87 2.3,-23.3 1.15,-52.35 -5.75,-43.72 1.15,-35.95 3.16,-33.65 9.49,-75.36 2.59,-6.62 5.87,-7.27 0.74,-5.68"
     style="opacity:1;fill:none;fill-opacity:1;fill-rule:nonzero;stroke:#e30119;stroke-width:5;stroke-linecap:butt;stroke-linejoin:round;stroke-miterlimit:4;stroke-dasharray:none;stroke-opacity:1" />
  <path
     id="path842"
     d="m 516.58,596.25 1.73,-4.39 25.42,-39.05 18.92,-20.95 21.76,19.12 18.1,-8.75 33.76,-30.31 0.61,-14.44 L 668,460.68 l 13.83,-4.88 3.86,-7.12 43.32,-43.12 16.07,-12.2 4.47,-35.39 -9.15,-2.85"
     style="opacity:1;fill:none;fill-opacity:1;fill-rule:nonzero;stroke:#e30119;stroke-width:5;stroke-linecap:butt;stroke-linejoin:round;stroke-miterlimit:4;stroke-dasharray:none;stroke-opacity:1" />
  <path
     id="path844"
     d="m 749.56,357.97 21.97,-76.07 13.83,-41.9 17.9,-27.86 0.81,-51.66 5.29,-13.42 18.1,-28.27 1.22,-8.75 -0.81,-22.98 2.03,-13.83 6.71,-20.54"
     style="opacity:1;fill:none;fill-opacity:1;fill-rule:nonzero;stroke:#e30119;stroke-width:5;stroke-linecap:butt;stroke-linejoin:round;stroke-miterlimit:4;stroke-dasharray:none;stroke-opacity:1" />
  <path
     id="path846"
     d="m 745.08,393.36 -3.86,16.47 3.05,46.37 4.88,21.56 1.63,18.71 -7.93,60 -16.27,61.02 -0.61,10.37 -27.25,41.29 -4.95,2.46"
     style="opacity:1;fill:none;fill-opacity:1;fill-rule:nonzero;stroke:#e30119;stroke-width:5;stroke-linecap:butt;stroke-linejoin:round;stroke-miterlimit:4;stroke-dasharray:none;stroke-opacity:1" />
  <path
     id="path848"
     d="m 562.64,531.86 -33.36,-28.88 -18.92,-12.2 -26.03,-12.2 -6.51,-5.49 71.39,-68.14 11.41,-11.41 -1.31,-63.44 2.01,-9.68 5.68,-7.26 6.93,-4.53 24.22,-4.53"
     style="opacity:1;fill:none;fill-opacity:1;fill-rule:nonzero;stroke:#e30119;stroke-width:5;stroke-linecap:butt;stroke-linejoin:round;stroke-miterlimit:4;stroke-dasharray:none;stroke-opacity:1" />
  <path
     id="path850"
     d="m 719.86,624.61 -38.85,-8.34 -1.63,7.73 -16.27,19.53 -5.29,9.76 -4.88,16.47 -4.88,24.2 0.41,38.24 -5.49,8.54 -13.63,12.2 -42.92,34.98 -14.03,12 -20.75,7.73 -23.39,10.17 -10.78,1.02 -27.66,-3.66 -6.92,-16.47 -13.02,-18.1 -41.69,-24 -34.78,-16.07 -44.54,-12 -47.19,-21.15 -24.61,-8.75 -45.36,-14.03 -15.05,-6.71 L 168.88,661.83 154.03,648 87.73,600.41 53.76,581.9"
     style="opacity:1;fill:none;fill-opacity:1;fill-rule:nonzero;stroke:#e30119;stroke-width:5;stroke-linecap:butt;stroke-linejoin:round;stroke-miterlimit:4;stroke-dasharray:none;stroke-opacity:1" />
  <path
     id="path852"
     d="m 219.53,679.12 5.9,-2.85 11.19,-21.15 28.27,-35.19 9.56,-5.29 14.24,-13.83 22.37,-19.53 80.14,-22.78 5.69,-3.86 18.92,-15.46 7.59,1.55"
     style="opacity:1;fill:none;fill-opacity:1;fill-rule:nonzero;stroke:#e30119;stroke-width:5;stroke-linecap:butt;stroke-linejoin:round;stroke-miterlimit:4;stroke-dasharray:none;stroke-opacity:1" />
  <path
     id="path854"
     d="m 190.85,668.75 -9.76,4.88 -6.92,7.73 -4.27,12.2 -2.44,11.19 -7.53,5.08 -14.85,67.12"
     style="opacity:1;fill:none;fill-opacity:1;fill-rule:nonzero;stroke:#e30119;stroke-width:5;stroke-linecap:butt;stroke-linejoin:round;stroke-miterlimit:4;stroke-dasharray:none;stroke-opacity:1" />
  <path
     id="path856"
     d="m 675.06,765.67 -10.07,7.19 -16.11,5.75 -48.32,9.49 h -14.67"
     style="opacity:1;fill:none;fill-opacity:1;fill-rule:nonzero;stroke:#e30119;stroke-width:5;stroke-linecap:butt;stroke-linejoin:round;stroke-miterlimit:4;stroke-dasharray:none;stroke-opacity:1" />
  <path
     id="path858"
     d="m 553.97,806.23 6.9,21.57 -1.73,9.49 -5.75,10.93 -27.9,31.06 -8.34,11.51 -14.09,29.05 -18.7,19.56 -5.18,8.92 -2.88,41.13 -4.31,2.01 -11.22,-1.73 -96.93,-36.24"
     style="opacity:1;fill:none;fill-opacity:1;fill-rule:nonzero;stroke:#e30119;stroke-width:5;stroke-linecap:butt;stroke-linejoin:round;stroke-miterlimit:4;stroke-dasharray:none;stroke-opacity:1" />
</svg>
