<?xml version="1.0" encoding="UTF-8" standalone="no"?>
<svg
   xmlns:dc="http://purl.org/dc/elements/1.1/"
   xmlns:cc="http://creativecommons.org/ns#"
   xmlns:rdf="http://www.w3.org/1999/02/22-rdf-syntax-ns#"
   xmlns:svg="http://www.w3.org/2000/svg"
   xmlns="http://www.w3.org/2000/svg"
   xmlns:xlink="http://www.w3.org/1999/xlink"
   viewBox="0 0 1100 925"
   height="925"
   width="1100"
   id="svg2"
   version="1.1">
  <metadata
     id="metadata8">
    <rdf:RDF>
      <cc:Work
         rdf:about="">
        <dc:format>image/svg+xml</dc:format>
        <dc:type
           rdf:resource="http://purl.org/dc/dcmitype/StillImage" />
        <dc:title></dc:title>
      </cc:Work>
    </rdf:RDF>
  </metadata>
  <defs
     id="defs6" />
  <image
     xlink:href="streetmap/qulosm.png"
     width="1120"
     height="1120"
     preserveAspectRatio="none"
     id="image10"
     x="25"
     y="-70"
     style="display:none" />
  <path
     id="path823"
     d="m 285.79057,685.6602 -9.10849,1.4382 -14.14214,-0.2397 -0.47939,-5.513 5.27333,-3.1161 7.91001,-0.9588 10.54668,8.3894 20.37426,-1.1984 18.45669,2.6366 17.73759,1.1985 25.40791,-0.2397 18.93608,-3.1161 9.58789,-2.8763 8.86879,5.2733 23.73003,8.6291 29.72245,2.397 51.02251,-1.1357 15.82031,-2.8769 1.88867,-1.5664 2.95703,-7.7325 7.81055,-8.9258 21.71875,-12.1445 8.17578,-2.8027 1.54883,-1.5391 1.67773,-4.7949 0.13867,-0.7168 0.23829,-5.5137 -0.36329,-1.4101 -8.30859,-13.61721 -1.78906,-27.29101 12.80273,-9.76563 17.17774,-6.82422 4.54906,-1.57144 32.0339,-12.20339 23.22034,-3.05085 19.32203,-4.91525 47.28813,-8.47458 8.64407,3.89831 17.28814,-4.40678 15.25424,-5.59322 10,-6.44068 40.33898,-28.13559 6.10169,-42.20339 -4.23728,-11.69492 0.16949,-7.62712 3.05084,-7.11864 29.15255,-26.61017 -0.84746,-3.8983 -11.35593,-5.25424 -1.86441,-2.54237 1.52542,-5.93221 18.47458,-32.88135 12.37288,-15.42373 13.55932,-12.71187 8.30509,-7.45762 v -5.42373 l -2.88136,-4.23729 -8.13559,-7.45763 -13.05085,-4.57627 -5.59322,-5.25424 -0.33898,-5.42373 3.22034,-3.8983 5.9322,-1.01695 16.1017,4.0678 6.77966,-0.1695 9.66101,-5.08474 4.91526,-4.91526 21.69491,-30.16949 1.01695,-6.10169 -4.23729,-9.32204 -7.28813,-4.57627 -9.49153,-0.67796 -32.20339,3.8983 -9.66101,-2.20339 -9.15255,-7.11864 -4.40678,-7.45763 -0.50847,-10.67797 3.22034,-33.22033 3.8983,-19.49153 6.1017,-20 5.9322,-11.01695 12.37288,-15.76271 11.86441,-9.66102 27.9661,-16.44068 34.23729,-16.27118 24.0678,-7.62712 21.35593,-4.40678 17.96609,1.18644 22.3729,11.35593"
     style="color:#000000;font-style:normal;font-variant:normal;font-weight:normal;font-stretch:normal;font-size:medium;line-height:normal;font-family:sans-serif;font-variant-ligatures:normal;font-variant-position:normal;font-variant-caps:normal;font-variant-numeric:normal;font-variant-alternates:normal;font-feature-settings:normal;text-indent:0;text-align:start;text-decoration:none;text-decoration-line:none;text-decoration-style:solid;text-decoration-color:#000000;letter-spacing:normal;word-spacing:normal;text-transform:none;writing-mode:lr-tb;direction:ltr;text-orientation:mixed;dominant-baseline:auto;baseline-shift:baseline;text-anchor:start;white-space:normal;shape-padding:0;clip-rule:nonzero;display:inline;overflow:visible;visibility:visible;opacity:1;isolation:auto;mix-blend-mode:normal;color-interpolation:sRGB;color-interpolation-filters:linearRGB;solid-color:#000000;solid-opacity:1;vector-effect:none;fill:none;fill-opacity:1;fill-rule:nonzero;stroke:#ee2d34;stroke-width:5;stroke-linecap:butt;stroke-linejoin:round;stroke-miterlimit:4;stroke-dasharray:none;stroke-dashoffset:0;stroke-opacity:1;color-rendering:auto;image-rendering:auto;shape-rendering:auto;text-rendering:auto;enable-background:accumulate" />
  <path
     id="path817"
     d="m 259.90327,853.2086 18.93608,-0.9588 10.78637,-4.0749 57.28764,-20.3742 10.54668,-1.1985 12.94365,-3.3558 15.10092,-6.7115 35.47519,-28.7637 16.05971,-11.5054 25.6476,-25.6476 40.50883,-29.9622 -1.67788,-12.2245 7.22217,-16.1229 14.43555,-2.625 2.61328,-6.834 0.45313,-0.7539 8.39062,-9.5879 0.66016,-0.5351 22.29297,-12.4649 0.4082,-0.1816 7.24219,-2.4825 1.15429,-3.3007 0.19141,-4.3828 -8.23242,-13.49223 -0.36133,-1.13867 -1.91601,-29.24414 0.97851,-2.15039 14.14063,-10.78711 0.59375,-0.33594 17.49804,-6.95117 3.08011,-1.27163 -19.89487,-48.41884 -8.14971,-6.47182 -9.34819,-4.07486 -31.16064,-6.71152 -19.65517,-10.78637 -11.50546,-4.31455 -12.46426,-0.95879 -20.61396,4.07485 -20.37426,-15.34062 -14.38184,-5.75273 -18.93608,-6.47183 -22.77123,-15.10092 -10.78638,-32.83852 -26.12699,-52.73339 -0.4794,-7.91001 5.03364,-32.11942 -2.87636,-12.22456 -7.19092,-10.06729 -11.50546,-8.6291 -16.05972,-4.79394 -22.53154,-7.19092 -11.26577,-10.54667 -5.27333,-7.43062 v -5.27334 l 11.74516,-14.14213 12.94365,-6.71152 -1.43818,-6.71153 -20.37427,-32.83851 -4.31455,-3.35576 -89.40706,50.09671 -2.39697,16.77881 -68.5534,39.31034 -10.06729,0.95879 -36.913368,-1.43818 0.239697,-31.16064 3.116064,-13.18335"
     style="color:#000000;font-style:normal;font-variant:normal;font-weight:normal;font-stretch:normal;font-size:medium;line-height:normal;font-family:sans-serif;font-variant-ligatures:normal;font-variant-position:normal;font-variant-caps:normal;font-variant-numeric:normal;font-variant-alternates:normal;font-feature-settings:normal;text-indent:0;text-align:start;text-decoration:none;text-decoration-line:none;text-decoration-style:solid;text-decoration-color:#000000;letter-spacing:normal;word-spacing:normal;text-transform:none;writing-mode:lr-tb;direction:ltr;text-orientation:mixed;dominant-baseline:auto;baseline-shift:baseline;text-anchor:start;white-space:normal;shape-padding:0;clip-rule:nonzero;display:inline;overflow:visible;visibility:visible;opacity:1;isolation:auto;mix-blend-mode:normal;color-interpolation:sRGB;color-interpolation-filters:linearRGB;solid-color:#000000;solid-opacity:1;vector-effect:none;fill:none;fill-opacity:1;fill-rule:nonzero;stroke:#39b663;stroke-width:5;stroke-linecap:butt;stroke-linejoin:round;stroke-miterlimit:4;stroke-dasharray:none;stroke-dashoffset:0;stroke-opacity:1;color-rendering:auto;image-rendering:auto;shape-rendering:auto;text-rendering:auto;enable-background:accumulate" />
</svg>
