<?xml version="1.0" encoding="UTF-8" standalone="no"?>
<svg
   xmlns:dc="http://purl.org/dc/elements/1.1/"
   xmlns:cc="http://creativecommons.org/ns#"
   xmlns:rdf="http://www.w3.org/1999/02/22-rdf-syntax-ns#"
   xmlns:svg="http://www.w3.org/2000/svg"
   xmlns="http://www.w3.org/2000/svg"
   xmlns:xlink="http://www.w3.org/1999/xlink"
   viewBox="0 0 1125 1225"
   height="1225"
   width="1125"
   id="svg2"
   version="1.1">
  <metadata
     id="metadata8">
    <rdf:RDF>
      <cc:Work
         rdf:about="">
        <dc:format>image/svg+xml</dc:format>
        <dc:type
           rdf:resource="http://purl.org/dc/dcmitype/StillImage" />
        <dc:title></dc:title>
      </cc:Work>
    </rdf:RDF>
  </metadata>
  <defs
     id="defs6" />
  <image
     xlink:href="streetmap/rbaosm.png"
     width="1119"
     height="1398.75"
     preserveAspectRatio="none"
     id="image10"
     x="10"
     y="-198.75"
     style="display:none" />
  <path
     id="path842"
     d="m 1006.9007,356.9849 -69.99157,-3.83516 -75.02523,-0.47939 -30.20185,-8.14971 -17.4979,-3.59546 -24.44911,5.03364 -27.28973,3.25212 -24.20898,69.51172 c -0.16387,0.46906 -0.18428,0.97632 -0.0586,1.45703 l 6.60547,25.24023 -3.51953,46.00781 -3.5625,6.28516 -4.93164,3.94531 h -7.72265 l -17.0293,-7.23047 c -0.0634,-0.0267 -0.12796,-0.0509 -0.19336,-0.0723 l -29.00391,-9.58789 c -0.34644,-0.11438 -0.71376,-0.15188 -1.07617,-0.10938 l -4.07422,0.47852 c -1.28022,0.15085 -2.23593,1.25031 -2.20703,2.53906 l 0.23828,10.54688 c 10e-4,0.0587 0.005,0.11728 0.01,0.17578 l 4.29687,46.0625 -1.17383,17.3789 -2.50976,12.76954 -5.46875,8.09374 -19.9668,14.80079 -8.80469,5.70898 c -0.37387,0.24296 -0.67598,0.58147 -0.875,0.98047 l -4.04687,8.09375 -11.49023,-0.82227 -18.68165,-5.4375 -4.2941,-2.15427 -6.95122,-17.7376 2.39697,-38.11185 -17.49789,-24.92851 -5.51304,-1.67788 -54.89066,23.73002 -8.14971,6.95122 -138.06559,46.50126 -7.43062,-0.2397 -11.74516,9.1085 -45.54247,25.6476 -94.9201,136.38771 -40.98822,47.22035 -77.901597,121.52645 -8.389403,12.4643 -2.876366,14.8612 -0.479395,11.2658 4.793945,40.7485 -4.793945,8.8688"
     style="color:#000000;font-style:normal;font-variant:normal;font-weight:normal;font-stretch:normal;font-size:medium;line-height:normal;font-family:sans-serif;font-variant-ligatures:normal;font-variant-position:normal;font-variant-caps:normal;font-variant-numeric:normal;font-variant-alternates:normal;font-feature-settings:normal;text-indent:0;text-align:start;text-decoration:none;text-decoration-line:none;text-decoration-style:solid;text-decoration-color:#000000;letter-spacing:normal;word-spacing:normal;text-transform:none;writing-mode:lr-tb;direction:ltr;text-orientation:mixed;dominant-baseline:auto;baseline-shift:baseline;text-anchor:start;white-space:normal;shape-padding:0;clip-rule:nonzero;display:inline;overflow:visible;visibility:visible;opacity:1;isolation:auto;mix-blend-mode:normal;color-interpolation:sRGB;color-interpolation-filters:linearRGB;solid-color:#000000;solid-opacity:1;vector-effect:none;fill:none;fill-opacity:1;fill-rule:nonzero;stroke:#a175b7;stroke-width:5;stroke-linecap:butt;stroke-linejoin:round;stroke-miterlimit:4;stroke-dasharray:none;stroke-dashoffset:0;stroke-opacity:1;color-rendering:auto;image-rendering:auto;shape-rendering:auto;text-rendering:auto;enable-background:accumulate" />
  <path
     id="path836"
     d="m 174.19259,1160.2103 170.66442,-217.8848 85.8116,-35.95459 4.79395,-5.51303 14.38183,-68.07401 -9.1085,-31.16064 -2.87636,-15.34062 1.91758,-15.58032 7.43061,-16.53911 10.30698,-15.10092 31.40033,-23.96972 14.14214,-14.38184 1.91758,-5.03364 -2.39697,-13.42304 2.63667,-10.54668 -0.2397,-13.42304 35.95458,-16.53911 16.29941,-9.1085 40.50883,-21.57275 3.85641,-0.23586 18.93555,5.51172 c 0.16938,0.0495 0.34353,0.0809 0.51953,0.0937 l 13.42383,0.95899 c 1.00871,0.0721 1.9615,-0.47063 2.41406,-1.375 l 4.49023,-8.97852 8.29688,-5.38281 c 0.0439,-0.0286 0.0869,-0.0585 0.1289,-0.0898 l 20.37305,-15.09961 c 0.22779,-0.16856 0.42527,-0.37463 0.58399,-0.60938 l 5.99218,-8.86914 c 0.1871,-0.27742 0.31656,-0.58958 0.38086,-0.91797 l 2.63672,-13.42187 c 0.0203,-0.10385 0.034,-0.20888 0.041,-0.31446 l 1.19922,-17.73828 c 0.009,-0.13341 0.007,-0.2673 -0.006,-0.40039 l -4.30469,-46.17383 -0.1875,-8.18359 1.26562,-0.15039 28.37891,9.38281 17.4043,7.39063 c 0.30899,0.13056 0.6411,0.19768 0.97656,0.19726 h 9.10937 c 0.56715,-2e-5 1.11745,-0.19286 1.56055,-0.54687 l 5.99219,-4.79492 c 0.24825,-0.19843 0.45639,-0.44237 0.61328,-0.71875 l 4.07617,-7.19141 c 0.18061,-0.31957 0.28861,-0.67499 0.31641,-1.04102 l 3.5957,-46.98046 c 0.0212,-0.27695 -0.004,-0.55551 -0.0742,-0.82422 l -6.51758,-24.91211 23.95899,-68.79297 7.94545,-25.03116 8.1497,-11.50547 8.8688,-17.0185 1.91758,-12.46426 -1.43818,-17.25819 25.4079,-21.81245 34.7561,-20.37426 25.6476,-12.70396 27.80488,-20.37426 35.95458,-14.38183 21.33305,-2.63667 11.74516,-6.71152 59.44492,-69.75189 10.307,-18.69639 23.9697,-24.92851"
     style="color:#000000;font-style:normal;font-variant:normal;font-weight:normal;font-stretch:normal;font-size:medium;line-height:normal;font-family:sans-serif;font-variant-ligatures:normal;font-variant-position:normal;font-variant-caps:normal;font-variant-numeric:normal;font-variant-alternates:normal;font-feature-settings:normal;text-indent:0;text-align:start;text-decoration:none;text-decoration-line:none;text-decoration-style:solid;text-decoration-color:#000000;letter-spacing:normal;word-spacing:normal;text-transform:none;writing-mode:lr-tb;direction:ltr;text-orientation:mixed;dominant-baseline:auto;baseline-shift:baseline;text-anchor:start;white-space:normal;shape-padding:0;clip-rule:nonzero;display:inline;overflow:visible;visibility:visible;opacity:1;isolation:auto;mix-blend-mode:normal;color-interpolation:sRGB;color-interpolation-filters:linearRGB;solid-color:#000000;solid-opacity:1;vector-effect:none;fill:none;fill-opacity:1;fill-rule:nonzero;stroke:#f855a6;stroke-width:5;stroke-linecap:butt;stroke-linejoin:round;stroke-miterlimit:4;stroke-dasharray:none;stroke-dashoffset:0;stroke-opacity:1;color-rendering:auto;image-rendering:auto;shape-rendering:auto;text-rendering:auto;enable-background:accumulate" />
</svg>
