<?xml version="1.0" encoding="UTF-8" standalone="no"?>
<svg
   xmlns:dc="http://purl.org/dc/elements/1.1/"
   xmlns:cc="http://creativecommons.org/ns#"
   xmlns:rdf="http://www.w3.org/1999/02/22-rdf-syntax-ns#"
   xmlns:svg="http://www.w3.org/2000/svg"
   xmlns="http://www.w3.org/2000/svg"
   xmlns:xlink="http://www.w3.org/1999/xlink"
   version="1.1"
   id="svg2"
   width="1425"
   height="1725"
   viewBox="0 0 1425 1725">
  <metadata
     id="metadata8">
    <rdf:RDF>
      <cc:Work
         rdf:about="">
        <dc:format>image/svg+xml</dc:format>
        <dc:type
           rdf:resource="http://purl.org/dc/dcmitype/StillImage" />
        <dc:title></dc:title>
      </cc:Work>
    </rdf:RDF>
  </metadata>
  <defs
     id="defs6" />
  <image
     xlink:href="../timelines/streetmap/sxbosm.png"
     style="display:none"
     y="-1.286"
     x="-140"
     id="image10"
     preserveAspectRatio="none"
     height="1786.2858"
     width="1563" />
  <path
     id="path835"
     d="m 397.71289,628.03872 -38.16016,11.88867 -0.47851,0.20704 -23.6211,13.22656 -7.95117,1.55664 -3.71875,-0.71485 -2.46484,-2.60937 -11.53516,-22.31445 -0.23242,-0.36914 -5.5625,-7.28711 -1.39844,-0.91211 -6.32812,-1.53516 -0.49414,-0.0684 v 9e-5 l -0.70117,0.0723 -6.13477,1.53515 -1.28125,0.78513 -12.19727,14.04492 -3.48437,1.11524 -43.44531,-9.63282 -0.20508,-0.0371 -7.0957,-0.95898 -1.56446,0.30078 -4.41015,2.49414 -0.60743,0.48047 -15.74023,17.05078 -2.41406,1.01758 -23.76953,-5.20117 -3.15748,-1.03825 -6.77966,-21.83051 0.40678,-6.50847 18.0339,-19.66102 v -2.71186 l -2.71186,-5.01695 -5.83051,-18.44068 -4.33899,-2.71187 -24.67796,-5.01695 -3.66102,-3.11864 -7.72881,-24.40678 -2.16949,-2.98305 -12.33899,-3.25424"
     style="color:#000000;font-style:normal;font-variant:normal;font-weight:normal;font-stretch:normal;font-size:medium;line-height:normal;font-family:sans-serif;font-variant-ligatures:normal;font-variant-position:normal;font-variant-caps:normal;font-variant-numeric:normal;font-variant-alternates:normal;font-feature-settings:normal;text-indent:0;text-align:start;text-decoration:none;text-decoration-line:none;text-decoration-style:solid;text-decoration-color:#000000;letter-spacing:normal;word-spacing:normal;text-transform:none;writing-mode:lr-tb;direction:ltr;text-orientation:mixed;dominant-baseline:auto;baseline-shift:baseline;text-anchor:start;white-space:normal;shape-padding:0;clip-rule:nonzero;display:inline;overflow:visible;visibility:visible;opacity:1;isolation:auto;mix-blend-mode:normal;color-interpolation:sRGB;color-interpolation-filters:linearRGB;solid-color:#000000;solid-opacity:1;vector-effect:none;fill:none;fill-opacity:1;fill-rule:nonzero;stroke:#ee1d23;stroke-width:5;stroke-linecap:butt;stroke-linejoin:round;stroke-miterlimit:4;stroke-dasharray:none;stroke-dashoffset:0;stroke-opacity:1;color-rendering:auto;image-rendering:auto;shape-rendering:auto;text-rendering:auto;enable-background:accumulate" />
  <path
     id="path859"
     d="m 399.19922,632.81216 -37.91016,11.8125 -23.74218,13.29492 -0.74024,0.27149 -8.82031,1.72656 -0.95313,0.002 -4.98632,-0.95898 -1.34376,-0.73828 -3.26171,-3.45313 -0.40235,-0.56836 -11.5957,-22.43164 -4.89258,-6.4082 -4.86719,-1.18164 -4.77539,1.19336 -12.13867,13.97851 -1.12695,0.74219 -4.79297,1.53516 -1.30273,0.0586 -44.00196,-9.75586 -6.1582,-0.83203 -3.33789,1.88477 -15.8418,17.1621 -0.86719,0.60938 -3.64257,1.5332 -1.50391,0.13867 -24.54688,-5.36914 -3.1719,-0.49928 -11.79661,13.01695 -3.79661,15.8644 6.64406,14.64409 v 3.3898 l -63.32203,70.1017"
     style="color:#000000;font-style:normal;font-variant:normal;font-weight:normal;font-stretch:normal;font-size:medium;line-height:normal;font-family:sans-serif;font-variant-ligatures:normal;font-variant-position:normal;font-variant-caps:normal;font-variant-numeric:normal;font-variant-alternates:normal;font-feature-settings:normal;text-indent:0;text-align:start;text-decoration:none;text-decoration-line:none;text-decoration-style:solid;text-decoration-color:#000000;letter-spacing:normal;word-spacing:normal;text-transform:none;writing-mode:lr-tb;direction:ltr;text-orientation:mixed;dominant-baseline:auto;baseline-shift:baseline;text-anchor:start;white-space:normal;shape-padding:0;clip-rule:nonzero;display:inline;overflow:visible;visibility:visible;opacity:1;isolation:auto;mix-blend-mode:normal;color-interpolation:sRGB;color-interpolation-filters:linearRGB;solid-color:#000000;solid-opacity:1;vector-effect:none;fill:none;fill-opacity:1;fill-rule:nonzero;stroke:#00ab4d;stroke-width:5;stroke-linecap:butt;stroke-linejoin:round;stroke-miterlimit:4;stroke-dasharray:none;stroke-dashoffset:0;stroke-opacity:1;color-rendering:auto;image-rendering:auto;shape-rendering:auto;text-rendering:auto;enable-background:accumulate" />
  <path
     id="path831"
     d="m 619.70505,724.80637 -10.54492,5.4649 -0.084,0.055 -33.45898,26.7676 -5.84961,1.0957 -11.47266,-5.6407 -13.55469,-13.7461 -0.0625,-0.053 -9.92578,-7.2539 -10.49609,-12.0234 -7.83594,-10.7032 -33.73828,-56.16401 -0.10937,-0.12891 -10.92969,-9.01367 -0.11524,-0.0703 -22.24218,-9.9707 -0.0391,-0.0156 -9.77929,-3.45117 -0.11719,-0.0254 -19.36719,-1.91797 -0.0508,-0.002 9e-5,2.4e-4 -0.043,0.002 -21.47656,1.91601"
     style="color:#000000;font-style:normal;font-variant:normal;font-weight:normal;font-stretch:normal;font-size:medium;line-height:normal;font-family:sans-serif;font-variant-ligatures:normal;font-variant-position:normal;font-variant-caps:normal;font-variant-numeric:normal;font-variant-alternates:normal;font-feature-settings:normal;text-indent:0;text-align:start;text-decoration:none;text-decoration-line:none;text-decoration-style:solid;text-decoration-color:#000000;letter-spacing:normal;word-spacing:normal;text-transform:none;writing-mode:lr-tb;direction:ltr;text-orientation:mixed;dominant-baseline:auto;baseline-shift:baseline;text-anchor:start;white-space:normal;shape-padding:0;clip-rule:nonzero;display:inline;overflow:visible;visibility:visible;opacity:1;isolation:auto;mix-blend-mode:normal;color-interpolation:sRGB;color-interpolation-filters:linearRGB;solid-color:#000000;solid-opacity:1;vector-effect:none;fill:none;fill-opacity:1;fill-rule:nonzero;stroke:#ee1d23;stroke-width:1;stroke-linecap:butt;stroke-linejoin:round;stroke-miterlimit:4;stroke-dasharray:none;stroke-dashoffset:0;stroke-opacity:1;color-rendering:auto;image-rendering:auto;shape-rendering:auto;text-rendering:auto;enable-background:accumulate" />
  <path
     id="path836"
     d="m 398.49998,630.92359 21.42969,-1.91211 19.26172,1.90625 9.70312,3.42383 22.16406,9.93554 10.81055,8.91602 33.70508,56.11135 0.0254,0.037 7.86328,10.7383 0.0254,0.035 10.54688,12.08 0.082,0.074 9.93945,7.2637 13.58594,13.7773 0.13476,0.098 11.69727,5.752 0.3125,0.043 6.13672,-1.1504 0.2207,-0.1 33.51953,-26.8164 10.50196,-5.4414"
     style="color:#000000;font-style:normal;font-variant:normal;font-weight:normal;font-stretch:normal;font-size:medium;line-height:normal;font-family:sans-serif;font-variant-ligatures:normal;font-variant-position:normal;font-variant-caps:normal;font-variant-numeric:normal;font-variant-alternates:normal;font-feature-settings:normal;text-indent:0;text-align:start;text-decoration:none;text-decoration-line:none;text-decoration-style:solid;text-decoration-color:#000000;letter-spacing:normal;word-spacing:normal;text-transform:none;writing-mode:lr-tb;direction:ltr;text-orientation:mixed;dominant-baseline:auto;baseline-shift:baseline;text-anchor:start;white-space:normal;shape-padding:0;clip-rule:nonzero;display:inline;overflow:visible;visibility:visible;opacity:1;isolation:auto;mix-blend-mode:normal;color-interpolation:sRGB;color-interpolation-filters:linearRGB;solid-color:#000000;solid-opacity:1;vector-effect:none;fill:none;fill-opacity:1;fill-rule:nonzero;stroke:#00ab4d;stroke-width:1;stroke-linecap:butt;stroke-linejoin:round;stroke-miterlimit:4;stroke-dasharray:none;stroke-dashoffset:0;stroke-opacity:1;color-rendering:auto;image-rendering:auto;shape-rendering:auto;text-rendering:auto;enable-background:accumulate" />
  <path
     id="path843"
     d="m 620.58398,722.83567 3.93167,1.0551 1.64649,1.4238 18.58984,43.0585 5.0918,4.8243 0.63867,0.9863 2.49414,7.0937 0.13867,0.7207 0.54883,12.5547 2.94532,5.3848 7.29687,8.3262 0.26953,0.3711 9.9707,16.7793 0.10547,0.1933 4.49219,9.3457 2.10156,1.3789 10.48047,2.2989 0.85938,0.3671 5.84765,3.9297 0.41602,0.3496 7.86133,8.2461 0.30273,0.3887 15.3418,24.2578 0.2207,0.4414 3.16406,8.2442 0.14454,0.5742 4.50781,34.6113 0.0195,0.291 0.1914,14.7657 -1.82235,7.9112 -19.33789,36.5879 -1.06641,9.5996 10.12891,86.19923 -0.0273,0.7617 -1.7246,9.0117 -0.32813,0.8438 -7.0957,11.5039 -0.0371,0.061 -62.78711,95.711 -52.65235,117.3671 -0.10937,0.2149 -12.46289,21.8594 -0.26172,0.375 -7.14648,8.4629 -21.46875,36.8574 -27.81836,68.7812 -0.85352,5.8008 1.60547,8.2031 5.10742,13.8086 0.15039,0.7071 2.87696,45.0644 -0.0117,0.4434 -1.3418,11.6972 -0.0781,0.3926 -17.0664,60.5957 -4.81153,4.3682 -4.88135,1.6272 -31.59322,-6.7797 -29.28814,-7.7288 -27.25424,-6.5085 -2.98305,0.678 -2.71186,2.4406 -11.9322,44.339 -1.76272,2.3051 -3.52542,0.4068 -8.27119,-3.9322 -74.71186,-26.8475 -3.11865,-0.2712 -3.52542,0.9492 -1.62712,2.5763 -4.20339,11.5254 -1.35593,2.3051 -4.74576,0.4068 -16.1356,-3.9322 -1.76271,0.5423 -1.49152,2.4407 -6.91526,34.1695 -5.9661,14.7797"
     style="color:#000000;font-style:normal;font-variant:normal;font-weight:normal;font-stretch:normal;font-size:medium;line-height:normal;font-family:sans-serif;font-variant-ligatures:normal;font-variant-position:normal;font-variant-caps:normal;font-variant-numeric:normal;font-variant-alternates:normal;font-feature-settings:normal;text-indent:0;text-align:start;text-decoration:none;text-decoration-line:none;text-decoration-style:solid;text-decoration-color:#000000;letter-spacing:normal;word-spacing:normal;text-transform:none;writing-mode:lr-tb;direction:ltr;text-orientation:mixed;dominant-baseline:auto;baseline-shift:baseline;text-anchor:start;white-space:normal;shape-padding:0;clip-rule:nonzero;display:inline;overflow:visible;visibility:visible;opacity:1;isolation:auto;mix-blend-mode:normal;color-interpolation:sRGB;color-interpolation-filters:linearRGB;solid-color:#000000;solid-opacity:1;vector-effect:none;fill:none;fill-opacity:1;fill-rule:nonzero;stroke:#ee1d23;stroke-width:5;stroke-linecap:butt;stroke-linejoin:round;stroke-miterlimit:4;stroke-dasharray:none;stroke-dashoffset:0;stroke-opacity:1;color-rendering:auto;image-rendering:auto;shape-rendering:auto;text-rendering:auto;enable-background:accumulate" />
  <path
     id="path837"
     d="m 509.76174,1592.5642 17.01172,-60.4024 1.29492,-11.2754 -2.83984,-44.4765 -5.05079,-13.6543 -0.10742,-0.3868 -1.72656,-8.8222 -0.0195,-0.8438 0.95898,-6.5195 0.1543,-0.5742 27.99805,-69.2246 0.15625,-0.3203 21.66992,-37.2012 0.25,-0.3535 7.13867,-8.4551 12.29102,-21.5547 52.68359,-117.4375 0.18945,-0.3496 62.87891,-95.8496 6.83594,-11.084 1.5664,-8.1836 -10.11914,-86.09963 -0.002,-0.5664 1.15039,-10.3555 0.27539,-0.8926 19.55859,-37.0078 4.501,0.2101 4.38963,1.2763 27.28125,5.6445 56.70563,24.0949 10.14984,-5.0441 13.55078,-27.3711 9.00781,-10.334 c 0.0282,-0.032 0.0555,-0.065 0.082,-0.098 l 5.9668,-7.5937 c 0.096,-0.1227 0.18035,-0.2542 0.25195,-0.3926 l 3.79688,-7.3223 c 0.1127,-0.2169 0.19298,-0.4492 0.23828,-0.6894 l 2.98247,-15.8633 c 0.018,-0.094 0.027,-0.1892 0.037,-0.2852 l 0.7851,-10.9804 3.4024,-8.1426 13.2226,-10.9961 c 0.069,-0.058 0.1353,-0.1186 0.1973,-0.1836 l 4.2031,-4.3379 c 0.3776,-0.3896 0.6186,-0.8914 0.6856,-1.4297 l 7.5918,-60.4746 -0.5349,-3.6141 -4.2481,-2.9428 -103.54922,-42.762 -15.9159,-9.0126 -32.61573,-24.0661 6.11974,-12.6567 0.23047,-0.9649 0.19141,-5.4668 -0.16407,-0.9844 -1.43945,-3.7382 -0.32617,-0.5938 -2.47852,-3.3379 -0.93164,-1.3027 0.0508,-1.4609 32.125,-74.44926 0.10743,-0.30273 0.95898,-3.35547 0.0918,-0.83594 -1.41016,-23.89648 0.64648,-2.06836 6.5918,-6.86328 0.47461,-0.70313 24.92969,-55.22656 1.92498,-3.26686 46.33265,2.00106 19.00281,-8.42671 6.60406,0.0894 61.85545,57.76132 4.13989,-0.75796 18.45529,-17.06458 4.88795,-12.03492 2.64681,-2.41704 11.98975,0.24391 35.79301,-17.0868 29.1645,-18.01278 3.2415,-4.66655 1.6935,-5.85427 -0.2574,-6.98935 -5.6599,-21.75023 -1.7401,-68.83246 1.1648,-16.99388 5.1017,-18.13534"
     style="color:#000000;font-style:normal;font-variant:normal;font-weight:normal;font-stretch:normal;font-size:medium;line-height:normal;font-family:sans-serif;font-variant-ligatures:normal;font-variant-position:normal;font-variant-caps:normal;font-variant-numeric:normal;font-variant-alternates:normal;font-feature-settings:normal;text-indent:0;text-align:start;text-decoration:none;text-decoration-line:none;text-decoration-style:solid;text-decoration-color:#000000;letter-spacing:normal;word-spacing:normal;text-transform:none;writing-mode:lr-tb;direction:ltr;text-orientation:mixed;dominant-baseline:auto;baseline-shift:baseline;text-anchor:start;white-space:normal;shape-padding:0;clip-rule:nonzero;display:inline;overflow:visible;visibility:visible;opacity:1;isolation:auto;mix-blend-mode:normal;color-interpolation:sRGB;color-interpolation-filters:linearRGB;solid-color:#000000;solid-opacity:1;vector-effect:none;fill:none;fill-opacity:1;fill-rule:nonzero;stroke:#8781bd;stroke-width:5;stroke-linecap:butt;stroke-linejoin:round;stroke-miterlimit:4;stroke-dasharray:none;stroke-dashoffset:0;stroke-opacity:1;color-rendering:auto;image-rendering:auto;shape-rendering:auto;text-rendering:auto;enable-background:accumulate" />
  <path
     id="path861"
     d="m 619.28906,727.66577 2.76172,0.7402 18.3125,42.4199 0.57617,0.8222 5.02735,4.7618 2.16992,6.1757 0.55859,12.7657 0.30469,1.0898 3.35547,6.1367 0.3125,0.4473 7.32812,8.3613 9.79688,16.4863 4.74609,9.8731 0.88086,1.0059 3.06836,2.0136 0.83594,0.3516 10.4668,2.2949 5.22656,3.5137 7.5039,7.8691 15.07422,23.8379 2.96875,7.7363 4.44922,34.1739 0.19141,14.6191 8.6582,2.1016 27.52539,5.6953 0.47266,0.1484 111.29097,47.4649 8.2188,1.1738 0.4805,0.1172 17.2207,6.1015 0.7656,0.4375 3.7422,3.11723 18.0429,6.7676 7.5295,1.5265 29.5594,-22.10173 16.6779,-10.7119 24.9492,-45.6949 6.9152,-8.8136 8.8136,-8.2712 10.4407,-5.6949 12.4746,-5.5593 13.5593,-1.2203 16.4068,0.5423 17.2203,5.9661 24.9491,9.2204 17.4916,6.2373 24.4068,-0.4068 43.2542,-18.1695 40.9491,-12.6102 9.8983,-6.644 17.7628,-8.5424 22.644,-10.7119 13.2882,-3.1186 15.8644,-0.8136 15.4576,2.9831 8.9492,3.1186 18.4406,3.7966 1.2204,2.8475 -0.678,4.7457 -8.4068,15.3221 -18.8474,29.5593 0.5423,4.0678 8,3.5254"
     style="color:#000000;font-style:normal;font-variant:normal;font-weight:normal;font-stretch:normal;font-size:medium;line-height:normal;font-family:sans-serif;font-variant-ligatures:normal;font-variant-position:normal;font-variant-caps:normal;font-variant-numeric:normal;font-variant-alternates:normal;font-feature-settings:normal;text-indent:0;text-align:start;text-decoration:none;text-decoration-line:none;text-decoration-style:solid;text-decoration-color:#000000;letter-spacing:normal;word-spacing:normal;text-transform:none;writing-mode:lr-tb;direction:ltr;text-orientation:mixed;dominant-baseline:auto;baseline-shift:baseline;text-anchor:start;white-space:normal;shape-padding:0;clip-rule:nonzero;display:inline;overflow:visible;visibility:visible;opacity:1;isolation:auto;mix-blend-mode:normal;color-interpolation:sRGB;color-interpolation-filters:linearRGB;solid-color:#000000;solid-opacity:1;vector-effect:none;fill:none;fill-opacity:1;fill-rule:nonzero;stroke:#00ab4d;stroke-width:5;stroke-linecap:butt;stroke-linejoin:round;stroke-miterlimit:4;stroke-dasharray:none;stroke-dashoffset:0;stroke-opacity:1;color-rendering:auto;image-rendering:auto;shape-rendering:auto;text-rendering:auto;enable-background:accumulate" />
  <path
     id="path902"
     d="m 67.09839,1215.5749 23.10682,-3.5475 4.5063,3.164 1.62994,32.5029 2.58873,3.4517 16.01178,3.8351 5.94449,7.0951 55.03448,28.8595 12.2725,2.6846 4.31455,-0.8629 29.33894,-32.2153 10.64255,-6.7115 10.83432,-3.5475 13.51892,-0.1918 32.31118,8.1497 3.45164,-1.3423 14.28596,-31.0648 2.01345,-8.3414 0.95879,-18.0253 3.35576,-33.0782 -8.6291,-20.8057 -2.49285,-14.5736 -10.83431,-41.3238 0.67115,-7.2868 6.90328,-11.889 34.70816,-36.5298 7.86207,-4.4104 7.28679,-0.3836 11.50547,3.8352 4.69806,1.5341 16.39529,-0.7671 2.39697,-3.5475 4.21868,-21.381 4.02691,-6.328 5.94449,-3.73933 37.10513,-4.4104 7.3698,4.5939 5.94531,3.83393 0.82422,0.3438 4.41016,0.959 1.75586,-0.2656 3.06836,-1.7247 1.24414,-1.789 0.57421,-3.64453 -0.0527,-1.0333 -2.98438,-11.1894 v -2.916 l 4.5293,-9.0606 0.26172,-0.9863 0.19141,-3.6445 -0.36133,-1.4317 -2.6836,-4.4101 -1.17382,-1.0078 -5.2283,-1.48353 -5.05694,-0.79251 -6.68152,-2.43959 -5.74679,-3.93594 -2.27912,-3.80213 -4.26532,-12.41024 -0.46567,-8.98411 2.33494,-8.18028 13.49121,-22.03635 5.34857,-2.74862 14.94196,1.51382 10.85785,0.70112 7.99795,-1.17242 3.06719,-1.49587 3.31582,-3.24615 2.11663,-2.04913 7.26815,-9.90137 30.59136,-37.10169 2.90242,-4.20953 13.65762,-25.49738 0.22265,-0.7949 2.10938,-19.75 -0.0332,-0.7422 -2.0625,-10.6289 0.92188,-1.4161 27.20703,-6.0156 1.35938,-0.8144 4.83789,-5.6446 3.70703,0.4024 1.99023,-0.6738 5.42383,-5.1524 0.0898,-0.09 5.28711,-5.5586 6.50378,-2.6662 20.13456,-6.1362 16.29942,-1.3423 26.07905,1.1505 10.16316,-3.4516 26.27082,-17.2582 4.79394,-4.9857 14.95711,-8.2456 2.30109,0.7671 6.8074,2.7805 4.34973,-8.1488 1.70312,-3.6641 0.15625,-4.4492 -1.13281,-2.9434 -2.28906,-3.082 -0.0273,-0.037 -1.43945,-2.0137 -0.46289,-1.539 0.0957,-2.7813 0.20313,-0.9043 32.24609,-74.73238 0.79883,-2.79101 -1.41406,-23.92774 0.10937,-0.89453 0.95899,-3.06836 0.58398,-0.98633 6.70117,-6.97461 24.75,-54.83398 0.21816,-3.35054 -40.46264,-14.59425 -4.10252,-1.08991 -17.00919,0.67422 -1.05654,-13.17932 27.42698,-32.36467 31.39731,-39.17926 61.70257,-70.75056 4.69347,-12.41199 3.35176,-13.43203 0.26969,-10.22617 -2.68794,-18.7569 1.19539,-11.05852 10.98652,-34.06169 10.63642,-57.35175 -1.79709,-3.88382 -28.67695,-13.42594 -27.66132,4.16406 -3.11085,-0.92673 -1.26936,-3.53195 7.13049,-13.73047 -2.36951,-18.19107 -4.47984,-8.58721 -44.073,-48.039446 -2.907,-13.17922"
     style="color:#000000;font-style:normal;font-variant:normal;font-weight:normal;font-stretch:normal;font-size:medium;line-height:normal;font-family:sans-serif;font-variant-ligatures:normal;font-variant-position:normal;font-variant-caps:normal;font-variant-numeric:normal;font-variant-alternates:normal;font-feature-settings:normal;text-indent:0;text-align:start;text-decoration:none;text-decoration-line:none;text-decoration-style:solid;text-decoration-color:#000000;letter-spacing:normal;word-spacing:normal;text-transform:none;writing-mode:lr-tb;direction:ltr;text-orientation:mixed;dominant-baseline:auto;baseline-shift:baseline;text-anchor:start;white-space:normal;shape-padding:0;clip-rule:nonzero;display:inline;overflow:visible;visibility:visible;opacity:1;isolation:auto;mix-blend-mode:normal;color-interpolation:sRGB;color-interpolation-filters:linearRGB;solid-color:#000000;solid-opacity:1;vector-effect:none;fill:none;fill-opacity:1;fill-rule:nonzero;stroke:#00aeef;stroke-width:5;stroke-linecap:butt;stroke-linejoin:round;stroke-miterlimit:4;stroke-dasharray:none;stroke-dashoffset:0;stroke-opacity:1;color-rendering:auto;image-rendering:auto;shape-rendering:auto;text-rendering:auto;enable-background:accumulate" />
  <path
     id="path870"
     d="m 962.1017,807.64377 -54.7797,-9.4916 -17.2087,-8.9686 -103.26373,-42.6445 -15.38477,-8.7129 -34.08203,-25.1328 -1.06445,-0.5996 -9.7793,-4.0274 -0.32226,-0.1191 -2.30078,-0.7676 -1.47266,-0.2559 4e-5,-2e-4 -2.52344,0.6211 -14.95703,8.2461 -1.18945,0.9121 -4.4043,4.582 -25.26758,16.5976 -8.66992,2.9453 -25.14062,-1.1093 -0.63086,0.012 -16.29883,1.3437 -1.04688,0.1992 -20.13476,6.1368 -8.66992,4.0016 -5.24415,5.5137 -4.5371,4.3125 -3.86719,-0.418 -2.16602,0.8574 -5.15234,6.0098 -27.38867,6.0586 -34.70375,5.81562 -15.87335,39.27816 -10.9899,-2.60035 -16.8147,-10.75216 -14.54201,-7.20237 -12.36472,-0.9439 -21.24791,1.14811 -23.09141,7.37296 -50.38022,10.82964"
     style="color:#000000;font-style:normal;font-variant:normal;font-weight:normal;font-stretch:normal;font-size:medium;line-height:normal;font-family:sans-serif;font-variant-ligatures:normal;font-variant-position:normal;font-variant-caps:normal;font-variant-numeric:normal;font-variant-alternates:normal;font-feature-settings:normal;text-indent:0;text-align:start;text-decoration:none;text-decoration-line:none;text-decoration-style:solid;text-decoration-color:#000000;letter-spacing:normal;word-spacing:normal;text-transform:none;writing-mode:lr-tb;direction:ltr;text-orientation:mixed;dominant-baseline:auto;baseline-shift:baseline;text-anchor:start;white-space:normal;shape-padding:0;clip-rule:nonzero;display:inline;overflow:visible;visibility:visible;opacity:1;isolation:auto;mix-blend-mode:normal;color-interpolation:sRGB;color-interpolation-filters:linearRGB;solid-color:#000000;solid-opacity:1;vector-effect:none;fill:none;fill-opacity:1;fill-rule:nonzero;stroke:#8cc43e;stroke-width:5;stroke-linecap:butt;stroke-linejoin:round;stroke-miterlimit:4;stroke-dasharray:none;stroke-dashoffset:0;stroke-opacity:1;color-rendering:auto;image-rendering:auto;shape-rendering:auto;text-rendering:auto;enable-background:accumulate" />
  <path
     id="path900"
     d="m 862.7119,1334.8302 -7.45766,-5.2881 -5.83051,-5.9661 -1.49152,-6.7797 3.25423,-54.6441 8,-16.4067 4.61016,-35.1187 -0.9491,-10.983 2.0339,-29.1526 -6.37292,-7.7288 -7.72882,-11.1186 -13.28813,-28.2034 -5.42373,-18.3051 0.13559,-4.339 10.16949,-12.339 16.54238,-14.7796 11.79664,-8.5424 51.3898,-45.8305 0.2712,-4.2034 -2.5057,-2.1329 -18.4395,-6.9161 -0.7226,-0.4199 -3.7246,-3.1035 -16.5645,-5.86913 -8.2949,-1.1856 -0.627,-0.1758 -46.31615,-20.331 -2.67209,-10.3311 13.69531,-27.6621 c 0.0951,-0.1922 0.2146,-0.3715 0.35547,-0.5332 l 9.17774,-10.5273 5.78124,-7.3575 3.51954,-6.7871 2.88867,-15.3613 0.80273,-11.248 c 0.0196,-0.2702 0.0829,-0.5354 0.1875,-0.7852 l 3.79684,-9.084 c 0.155,-0.372 0.3976,-0.701 0.7071,-0.959 l 13.5918,-11.3047 3.5293,-3.6425 7.5841,-59.7405 -1.8263,-1.2182 -103.54889,-42.7617 -0.55664,-0.2715 -15.91602,-9.0117 -0.50195,-0.3282 -33.83008,-24.9453 -9.05274,-3.7285 -0.0605,-0.02 -12.375,6.8223 -4.26758,4.4394 -0.85938,0.7129 -26.26953,17.2578 -1.13867,0.5547 -10.16211,3.4531 -1.82812,0.2598 -25.76367,-1.1367 -15.44922,1.2734 -19.62305,5.9785 -5.43273,-4.6529 -23.05085,-53.966 -5.55932,-0.4068 -20.61017,26.5763 -3.11864,0.1355 -7.45763,-3.7966"
     style="color:#000000;font-style:normal;font-variant:normal;font-weight:normal;font-stretch:normal;font-size:medium;line-height:normal;font-family:sans-serif;font-variant-ligatures:normal;font-variant-position:normal;font-variant-caps:normal;font-variant-numeric:normal;font-variant-alternates:normal;font-feature-settings:normal;text-indent:0;text-align:start;text-decoration:none;text-decoration-line:none;text-decoration-style:solid;text-decoration-color:#000000;letter-spacing:normal;word-spacing:normal;text-transform:none;writing-mode:lr-tb;direction:ltr;text-orientation:mixed;dominant-baseline:auto;baseline-shift:baseline;text-anchor:start;white-space:normal;shape-padding:0;clip-rule:nonzero;display:inline;overflow:visible;visibility:visible;opacity:1;isolation:auto;mix-blend-mode:normal;color-interpolation:sRGB;color-interpolation-filters:linearRGB;solid-color:#000000;solid-opacity:1;vector-effect:none;fill:none;fill-opacity:1;fill-rule:nonzero;stroke:#f4921e;stroke-width:5;stroke-linecap:butt;stroke-linejoin:round;stroke-miterlimit:4;stroke-dasharray:none;stroke-dashoffset:0;stroke-opacity:1;color-rendering:auto;image-rendering:auto;shape-rendering:auto;text-rendering:auto;enable-background:accumulate" />
</svg>
