<?xml version="1.0" encoding="UTF-8" standalone="no"?>
<svg
   xmlns:dc="http://purl.org/dc/elements/1.1/"
   xmlns:cc="http://creativecommons.org/ns#"
   xmlns:rdf="http://www.w3.org/1999/02/22-rdf-syntax-ns#"
   xmlns:svg="http://www.w3.org/2000/svg"
   xmlns="http://www.w3.org/2000/svg"
   xmlns:xlink="http://www.w3.org/1999/xlink"
   viewBox="0 0 625 675"
   height="675"
   width="625"
   id="svg2"
   version="1.1">
  <metadata
     id="metadata8">
    <rdf:RDF>
      <cc:Work
         rdf:about="">
        <dc:format>image/svg+xml</dc:format>
        <dc:type
           rdf:resource="http://purl.org/dc/dcmitype/StillImage" />
        <dc:title></dc:title>
      </cc:Work>
    </rdf:RDF>
  </metadata>
  <defs
     id="defs6" />
  <image
     xlink:href="streetmap/sz_osm.png"
     style="display:none"
     y="-108.33"
     x="-65"
     id="image10"
     preserveAspectRatio="none"
     height="933.33"
     width="700" />
  <path
     id="path817"
     d="m 71.24,386.97 129.25,10.37 155.66,36.07 4.88,-26.03 19.25,-37.15 14.92,-13.56 23.05,-6.78 17.08,-4.07 17.63,1.36 18.44,4.88 5.42,-1.36 16.54,-78.64 -2.17,-109.02 17.36,-60.47 7.05,-11.12 55.32,-36.88"
     style="opacity:1;fill:none;fill-opacity:0.53;fill-rule:nonzero;stroke:#fed265;stroke-width:8;stroke-linecap:butt;stroke-linejoin:round;stroke-miterlimit:4;stroke-dasharray:none;stroke-opacity:1" />
  <path
     id="path819"
     d="m 329.31,582.56 11.39,5.97 -9.49,21.15 -12.75,-5.97 62.37,-121.22 7.86,-45.83 31.46,-58.03 -161.63,-126.37 -49.36,-24.41 12.7,-26.83 10.62,-17.38 26.03,-25.49 37.97,-28.2 41.49,-23.32 49.36,-4.34 1.9,-5.69 -9.22,-13.83"
     style="opacity:1;fill:none;fill-opacity:0.53;fill-rule:nonzero;stroke:#fed265;stroke-width:8;stroke-linecap:butt;stroke-linejoin:round;stroke-miterlimit:4;stroke-dasharray:none;stroke-opacity:1" />
  <path
     id="path823"
     d="m 356.15,433.41 -1.97,11.91 -123.11,93.19 -11.51,10.35 -11.89,2.3 h -9.97 L 67.7,610.61"
     style="opacity:1;fill:none;fill-opacity:0.53;fill-rule:nonzero;stroke:#fed265;stroke-width:8;stroke-linecap:butt;stroke-linejoin:round;stroke-miterlimit:4;stroke-dasharray:none;stroke-opacity:1" />
</svg>
