<?xml version="1.0" encoding="UTF-8" standalone="no"?>
<svg
   xmlns:dc="http://purl.org/dc/elements/1.1/"
   xmlns:cc="http://creativecommons.org/ns#"
   xmlns:rdf="http://www.w3.org/1999/02/22-rdf-syntax-ns#"
   xmlns:svg="http://www.w3.org/2000/svg"
   xmlns="http://www.w3.org/2000/svg"
   xmlns:xlink="http://www.w3.org/1999/xlink"
   version="1.1"
   id="svg2"
   width="900"
   height="875"
   viewBox="0 0 900 875">
  <metadata
     id="metadata8">
    <rdf:RDF>
      <cc:Work
         rdf:about="">
        <dc:format>image/svg+xml</dc:format>
        <dc:type
           rdf:resource="http://purl.org/dc/dcmitype/StillImage" />
        <dc:title></dc:title>
      </cc:Work>
    </rdf:RDF>
  </metadata>
  <defs
     id="defs6" />
  <g
     id="g10">
    <image
       xlink:href="streetmap/tsrosm.png"
       style="display:none"
       width="1177"
       height="1177"
       preserveAspectRatio="none"
       id="image12"
       x="-90"
       y="-100" />
    <path
       style="fill:none;stroke:#e3a900;stroke-width:5;stroke-linejoin:round;stroke-opacity:1"
       d="m 316.58386,107.34087 4.91745,8.38261 -22.42084,8.81123 -15.10121,8.00621 -16.31729,13.27787 -23.3356,23.74087 -11.34879,11.80943 -8.66996,14.88726 -12.01978,30.47339 -3.59103,32.58268 -1.58151,21.17676 3.95845,4.85791 36.60553,10.62444 35.37525,4.73762 83.96549,7.14623 5.87344,2.77336 40.81057,3.24323 41.95565,1.97339 14.17641,2.32686 46.93993,-0.76066 20.29939,-3.91915 54.01221,-13.87251 19.73389,-11.98739 8.6604,-0.79228 15.6688,1.93553 -4.21779,32.69223 17.57639,46.50332 15.10801,15.07692 8.01426,18.50569 4.85145,19.39316 64.01486,237.08428 4.73665,0.41273 3.50727,3.29271 1.52325,7.45622 10.20796,6.6893 18.76354,16.13349 25.96344,12.72455 39.79655,14.96627"
       id="path855" />
    <path
       style="fill:none;stroke:#e3a900;stroke-width:5;stroke-linejoin:round;stroke-opacity:1"
       d="m 750.26506,669.19302 -5.70448,2.01706 -5.44045,-0.58493 -2.48224,-3.93499 0.27774,-5.86204 3.58226,-2.79676"
       id="path857" />
    <path
       style="fill:none;stroke:#e3a900;stroke-width:5;stroke-linejoin:round;stroke-opacity:1"
       d="m 736.91563,660.82812 -61.69204,-48.9802 -18.43206,-8.31473 -18.4078,-4.94213 -121.37734,-18.82395 -123.37504,53.12696 -41.19693,22.92432 -32.79407,9.43956 -44.60171,5.18181 -49.88698,3.29065 -41.64957,-3.31955 -33.78386,-9.09427 -26.58225,-11.19966 -22.67172,-20.84845 -16.7787,-21.38597 -13.01393,-25.281 -9.75861,-24.73286 167.2903,-76.42811 -40.12161,-84.04384 -9.29642,1.83471"
       id="path859" />
    <path
       style="fill:none;stroke:#e3a900;stroke-width:5;stroke-linejoin:round;stroke-opacity:1"
       d="m 635.15071,288.77576 65.3073,10.41266 30.69233,-38.17205 11.58489,-16.22319 15.50178,-34.89506 -6.35389,-138.14453 -5.27129,-4.36967 -51.38049,4.33434 -111.28273,81.6382 26.43646,38.26051 10.21321,28.86304 8.33597,26.25707 9.68274,17.69058 -3.46628,24.3481"
       id="path861" />
    <path
       style="fill:none;stroke:#e3a900;stroke-width:5;stroke-linejoin:round;stroke-opacity:1"
       d="m 334.95621,305.11389 -1.15404,19.04978 1.82796,14.61355 -1.09932,15.91709 2.76759,6.99664 3.84457,5.29538 18.48667,13.07321 v 6.64366 l -50.69757,39.19028 -11.68398,10.73201 -16.32963,19.43461 -52.71514,25.38044"
       id="path863" />
    <path
       style="fill:none;stroke:#e3a900;stroke-width:5;stroke-linejoin:round;stroke-opacity:1"
       d="m 308.93207,425.89348 24.13345,45.68027 46.30132,64.21519 12.29039,6.96104 13.54586,4.1607 17.64307,-2.19196 34.02036,-17.55619 17.03613,-11.8598 163.20459,-81.97694 19.96765,-5.83263 19.14539,-5.87254"
       id="path865" />
    <path
       style="fill:none;stroke:#e3a900;stroke-width:5;stroke-linejoin:round;stroke-opacity:1"
       d="m 379.36684,535.78894 -4.54955,25.76495 0.61237,18.56427 -2.11957,6.44835 15.56555,30.27256 1.53905,13.32605 14.99373,50.58015 -4.75257,34.33028 -4.48642,66.90417 -6.33899,30.28224 -3.09948,1.77948 -62.86769,-10.40541 -125.48758,-38.54088 -38.50362,-30.48303 -26.63501,-38.27411 -4.15512,-13.59113 -2.39113,-26.62775 -3.55483,-6.0022"
       id="path867" />
  </g>
  <path
     style="fill:none;stroke:#e3a900;stroke-width:5;stroke-linejoin:round;stroke-opacity:1"
     d="m 127.95529,771.09673 9.93526,5.23195 24.7082,-39.02151"
     id="path839" />
</svg>
