<?xml version="1.0" encoding="UTF-8" standalone="no"?>
<svg
   xmlns:dc="http://purl.org/dc/elements/1.1/"
   xmlns:cc="http://creativecommons.org/ns#"
   xmlns:rdf="http://www.w3.org/1999/02/22-rdf-syntax-ns#"
   xmlns:svg="http://www.w3.org/2000/svg"
   xmlns="http://www.w3.org/2000/svg"
   xmlns:xlink="http://www.w3.org/1999/xlink"
   version="1.1"
   id="svg2"
   width="900"
   height="875"
   viewBox="0 0 900 875">
  <metadata
     id="metadata8">
    <rdf:RDF>
      <cc:Work
         rdf:about="">
        <dc:format>image/svg+xml</dc:format>
        <dc:type
           rdf:resource="http://purl.org/dc/dcmitype/StillImage" />
        <dc:title></dc:title>
      </cc:Work>
    </rdf:RDF>
  </metadata>
  <defs
     id="defs6" />
  <g
     id="g10">
    <image
       xlink:href="basemap/tsrosm.png"
       style="display:none"
       width="1177"
       height="1177"
       preserveAspectRatio="none"
       id="image12"
       x="-90"
       y="-100" />
    <path
       style="fill:none;stroke:#e3a900;stroke-width:5;stroke-linejoin:round;stroke-opacity:1"
       d="m 316.58,107.34 4.92,8.38 -22.42,8.81 -15.1,8.01 -16.32,13.28 -23.34,23.74 -11.35,11.81 -8.67,14.89 -12.02,30.47 -3.59,32.58 -1.58,21.18 3.96,4.86 36.61,10.62 35.38,4.74 83.97,7.15 5.87,2.77 40.81,3.24 41.96,1.97 14.18,2.33 46.94,-0.76 20.3,-3.92 54.01,-13.87 19.73,-11.99 8.66,-0.79 15.67,1.94 -4.22,32.69 17.58,46.5 15.11,15.08 8.01,18.51 4.85,19.39 64.01,237.08 4.74,0.41 3.51,3.29 1.52,7.46 10.21,6.69 18.76,16.13 25.96,12.72 39.8,14.97"
       id="path855" />
    <path
       style="fill:none;stroke:#e3a900;stroke-width:5;stroke-linejoin:round;stroke-opacity:1"
       d="m 750.27,669.19 -5.7,2.02 -5.44,-0.58 -2.48,-3.93 0.28,-5.86 3.58,-2.8"
       id="path857" />
    <path
       style="fill:none;stroke:#e3a900;stroke-width:5;stroke-linejoin:round;stroke-opacity:1"
       d="m 736.92,660.83 -61.69,-48.98 -18.43,-8.31 -18.41,-4.94 -121.38,-18.82 -123.38,53.13 -41.2,22.92 -32.79,9.44 -44.6,5.18 -49.89,3.29 -41.65,-3.32 -33.78,-9.09 -26.58,-11.2 -22.67,-20.85 -16.78,-21.39 -13.01,-25.28 -9.76,-24.73 167.29,-76.43 -40.12,-84.04 -9.3,1.83"
       id="path859" />
    <path
       style="fill:none;stroke:#e3a900;stroke-width:5;stroke-linejoin:round;stroke-opacity:1"
       d="m 635.15,288.78 65.31,10.41 30.69,-38.17 11.58,-16.22 15.5,-34.9 -6.35,-138.14 -5.27,-4.37 -51.38,4.33 -111.28,81.64 26.44,38.26 10.21,28.86 8.34,26.26 9.68,17.69 -3.47,24.35"
       id="path861" />
    <path
       style="fill:none;stroke:#e3a900;stroke-width:5;stroke-linejoin:round;stroke-opacity:1"
       d="m 334.96,305.11 -1.15,19.05 1.83,14.61 -1.1,15.92 2.77,7.0 3.84,5.3 18.49,13.07 v 6.64 l -50.7,39.19 -11.68,10.73 -16.33,19.43 -52.72,25.38"
       id="path863" />
    <path
       style="fill:none;stroke:#e3a900;stroke-width:5;stroke-linejoin:round;stroke-opacity:1"
       d="m 308.93,425.89 24.13,45.68 46.3,64.22 12.29,6.96 13.55,4.16 17.64,-2.19 34.02,-17.56 17.04,-11.86 163.2,-81.98 19.97,-5.83 19.15,-5.87"
       id="path865" />
    <path
       style="fill:none;stroke:#e3a900;stroke-width:5;stroke-linejoin:round;stroke-opacity:1"
       d="m 379.37,535.79 -4.55,25.76 0.61,18.56 -2.12,6.45 15.57,30.27 1.54,13.33 14.99,50.58 -4.75,34.33 -4.49,66.9 -6.34,30.28 -3.1,1.78 -62.87,-10.41 -125.49,-38.54 -38.5,-30.48 -26.64,-38.27 -4.16,-13.59 -2.39,-26.63 -3.55,-6.0"
       id="path867" />
  </g>
  <path
     style="fill:none;stroke:#e3a900;stroke-width:5;stroke-linejoin:round;stroke-opacity:1"
     d="m 127.96,771.1 9.94,5.23 24.71,-39.02"
     id="path839" />
</svg>
