<?xml version="1.0" encoding="UTF-8" standalone="no"?>
<svg
   xmlns:dc="http://purl.org/dc/elements/1.1/"
   xmlns:cc="http://creativecommons.org/ns#"
   xmlns:rdf="http://www.w3.org/1999/02/22-rdf-syntax-ns#"
   xmlns:svg="http://www.w3.org/2000/svg"
   xmlns="http://www.w3.org/2000/svg"
   xmlns:xlink="http://www.w3.org/1999/xlink"
   version="1.1"
   id="svg2"
   width="1325"
   height="650"
   viewBox="0 0 1325 650">
  <metadata
     id="metadata8">
    <rdf:RDF>
      <cc:Work
         rdf:about="">
        <dc:format>image/svg+xml</dc:format>
        <dc:type
           rdf:resource="http://purl.org/dc/dcmitype/StillImage" />
        <dc:title></dc:title>
      </cc:Work>
    </rdf:RDF>
  </metadata>
  <defs
     id="defs6" />
  <g
     id="g10">
    <image
       xlink:href="streetmap/vinosm.png"
       style="display:none"
       y="-15"
       x="45"
       id="image12"
       preserveAspectRatio="none"
       height="661"
       width="1322" />
    <path
       style="opacity:0.99918;fill:none;stroke:#38b1eb;stroke-width:5;stroke-linejoin:round;stroke-miterlimit:4;stroke-dasharray:none;stroke-opacity:1"
       d="m 744.30305,282.6282 -17.7232,31.39055 -0.82077,4.61176 -39.49193,35.55309 -54.57159,47.78833 -60.73533,5.37201 -146.02528,14.32572 -107.40178,0.69657 -162.82397,-40.1077 -3.99173,-2.83078 -63.091384,-14.77515 -7.656049,-5.87301 -4.089431,-5.80509 -3.075408,-5.59886 -3.728554,-14.48704 -4.291523,-8.15803 1.285956,-3.62637 112.992563,-60.46841 19.82508,-11.75216 13.0217,-6.72957 8.62061,-0.93772 30.70804,17.68146 53.95275,18.87779 235.75083,1.53801 84.48006,14.17666 120.29985,-10.70213 27.8772,-3.06463 97.04029,25.35014 68.98885,-17.76763 76.0602,-25.53586 31.7852,-21.13826 6.4975,-1.39625 39.0133,-30.43139 1.4597,-7.91424 -6.474,-129.205902 3.8101,-3.833801 146.53,-6.293682 4.4089,5.111428 0.951,27.673447 3.619,4.96336 2.7405,71.07019 9.8797,2.82426 -1.9834,7.87074 -4.0689,1.13308 -2.4237,-2.8577 -1.2292,-8.87687"
       id="path855" />
    <path
       style="opacity:0.99918;fill:none;stroke:#38b1eb;stroke-width:5;stroke-linejoin:round;stroke-miterlimit:4;stroke-dasharray:none;stroke-opacity:1"
       d="m 631.69556,401.97193 -4.54412,11.82998 -16.94717,15.58329 -80.15309,111.46827 -60.25175,55.50025"
       id="path857" />
    <path
       style="opacity:0.99918;fill:none;stroke:#38b1eb;stroke-width:5;stroke-linejoin:round;stroke-miterlimit:4;stroke-dasharray:none;stroke-opacity:1"
       d="m 1090.2971,104.91668 4.9887,-5.47773 143.5923,-8.83846 4.7927,3.74101"
       id="path859" />
  </g>
</svg>
