<?xml version="1.0" encoding="UTF-8" standalone="no"?>
<svg
   xmlns:dc="http://purl.org/dc/elements/1.1/"
   xmlns:cc="http://creativecommons.org/ns#"
   xmlns:rdf="http://www.w3.org/1999/02/22-rdf-syntax-ns#"
   xmlns:svg="http://www.w3.org/2000/svg"
   xmlns="http://www.w3.org/2000/svg"
   xmlns:xlink="http://www.w3.org/1999/xlink"
   viewBox="0 0 2200 2325"
   height="2325"
   width="2200"
   id="svg2"
   version="1.1">
  <metadata
     id="metadata8">
    <rdf:RDF>
      <cc:Work
         rdf:about="">
        <dc:format>image/svg+xml</dc:format>
        <dc:type
           rdf:resource="http://purl.org/dc/dcmitype/StillImage" />
        <dc:title></dc:title>
      </cc:Work>
    </rdf:RDF>
  </metadata>
  <defs
     id="defs6" />
  <image
     xlink:href="streetmap/xvsosm.png"
     style="display:none"
     y="-78.272705"
     x="-155"
     id="image10"
     preserveAspectRatio="none"
     height="2583.2727"
     width="2368" />
  <path
     style="color:#000000;font-style:normal;font-variant:normal;font-weight:normal;font-stretch:normal;font-size:medium;line-height:normal;font-family:sans-serif;font-variant-ligatures:normal;font-variant-position:normal;font-variant-caps:normal;font-variant-numeric:normal;font-variant-alternates:normal;font-variant-east-asian:normal;font-feature-settings:normal;font-variation-settings:normal;text-indent:0;text-align:start;text-decoration:none;text-decoration-line:none;text-decoration-style:solid;text-decoration-color:#000000;letter-spacing:normal;word-spacing:normal;text-transform:none;writing-mode:lr-tb;direction:ltr;text-orientation:mixed;dominant-baseline:auto;baseline-shift:baseline;text-anchor:start;white-space:normal;shape-padding:0;shape-margin:0;inline-size:0;clip-rule:nonzero;display:inline;overflow:visible;visibility:visible;opacity:1;isolation:auto;mix-blend-mode:normal;color-interpolation:sRGB;color-interpolation-filters:linearRGB;solid-color:#000000;solid-opacity:1;vector-effect:none;fill:none;fill-opacity:1;fill-rule:nonzero;stroke:#e0674a;stroke-width:5;stroke-linecap:butt;stroke-linejoin:round;stroke-miterlimit:4;stroke-dasharray:none;stroke-dashoffset:0;stroke-opacity:1;color-rendering:auto;image-rendering:auto;shape-rendering:auto;text-rendering:auto;enable-background:accumulate;stop-color:#000000;stop-opacity:1"
     d="m 1373.5477,1912.1484 -13.0606,-6.1308 -1.3437,-3.2617 10.6894,-47.5352 8.7754,-17.2676 0.1778,-0.4551 2.4843,-8.8339 15.6094,-23.8399 0.4023,-1.2226 0.2891,-4.8887 -0.2402,-1.2266 -3.1641,-6.6152 -0.3437,-0.5313 -4.6016,-5.4648 -0.5918,-0.5117 -17.1348,-10.6738 -4.9101,-6.7227 -3.2383,-11.6016 v -6.8457 l 5.6523,-24.0195 2.9317,-8 5.5351,-5.7988 28.0196,-20.8711 0.4199,-0.3965 6.041,-7.1914 0.3223,-0.4902 10.9297,-21.8594 0.2539,-0.8906 0.2871,-3.1641 -0.014,-0.5801 -0.8633,-6.041 -0.5547,-1.2461 -48.5097,-58.2129 -0.4024,-1.8105 -0.2109,-3.1739 11.4961,-14.7812 0.4707,-1.0117 0.8633,-4.0274 -0.3242,-1.8476 -2.877,-4.6035 -1.6035,-1.1211 -31.0254,-6.545 -42.8477,-21.9961 -1.286,-3.6741 95.9268,-198.0378 21.5728,-12.0808 6.9033,-20.4222 -5.4651,-14.3818 39.1185,-81.1135 303.4567,-348.9033 6.0404,-10.3549 1.1505,-11.5055 -2.0134,-118.2186 90.8932,-107.5762 4.0269,-1.4381 5.7527,2.8763 4.0269,-0.2876 23.2986,-21.5728 35.0917,-9.2043 17.2582,-24.1615 5.538,-3.0373 11.3899,-8.5424 5.6949,-16.4746 -4.8814,-8.339 1.2204,-4.2712 20.5423,-17.2881 46.9831,-65.2881 3.661,-10.1695 -1.2203,-6.9152 9.7627,-22.7797 6.1017,-9.1525 13.0169,-34.7797 10.7797,-17.8983 9.7627,-13.4237 24.2034,-5.695 22.1695,-34.7796 -2.2373,-30.30511 -12.6102,-16.0678 -5.0847,-1.62711 -15.0509,-0.40678 -3.661,3.66101 -3.0508,-0.61017 -23.3899,-18.71186 v -6.30509 l 24.4068,-44.13559 19.5254,-77.49153 -2.4407,-3.05084 -36.4067,-16.0678 -25.017,-0.20339 -5.6949,2.44068 -12.4068,13.83051 -20.339,10.98305 -13.4237,-0.40678 -4.2712,-8.33898 -6.3051,-4.88136 h -4.6779 l -51.4577,60.40678 0.4068,9.55932"
     id="path847" />
  <path
     style="opacity:1;fill:none;fill-opacity:1;fill-rule:nonzero;stroke:#ee335e;stroke-width:5;stroke-linecap:butt;stroke-linejoin:round;stroke-miterlimit:4;stroke-dasharray:none;stroke-opacity:1"
     d="m 1321.4394,2255.6186 19.8469,-86.2907 0.2876,-9.492 7.1909,-16.3952 -19.2716,-74.4977 0.2876,-8.3414 4.8898,-7.1909 6.3281,-4.3145 14.3817,-0.8629 33.6534,-16.6829 1.4382,-5.1774 -2.3011,-39.9814 4.6022,-14.0942 14.9571,-36.5296 -1.9266,-4.8062 -34.3809,-14.2858 -13.9395,-6.5449 -1.25,-1.3125 -2.0136,-4.8887 -0.127,-1.5 10.9297,-48.6113 0.2109,-0.584 8.8047,-17.3262 2.5234,-8.9687 0.3145,-0.6915 15.4551,-23.6054 0.2109,-3.5801 -2.748,-5.7461 -4.1426,-4.918 -17.2109,-10.7226 -0.6954,-0.6465 -5.4648,-7.4785 -0.3906,-0.8028 -3.4512,-12.3691 -0.092,-0.6719 v -7.4785 l 0.066,-0.5723 5.752,-24.4492 0.088,-0.2871 3.1621,-8.6289 0.539,-0.8652 6.041,-6.3281 0.3145,-0.2793 27.9551,-20.8243 5.664,-6.7421 10.586,-21.1739 0.2187,-2.4023 -0.7207,-5.0508 -48.4433,-58.1328 -0.5215,-1.0567 -0.5742,-2.5898 -0.055,-0.375 -0.2871,-4.3145 0.5214,-1.7011 11.7286,-15.0821 0.5312,-2.4765 -1.7754,-2.8418 -30.3125,-6.3965 -0.625,-0.2227 -43.1465,-22.1464 -15.2538,-11.4312 -39.9815,4.3146 -12.0807,-5.4651 -24.4491,-25.3121 -5.1775,-0.2876 -54.0757,46.3095 -30.4895,32.5029 -15.2447,23.011 -11.5055,14.3818 -49.7611,52.9251 -16.3953,12.0808 -16.6829,6.9033 -48.6106,9.7796 -27.6131,2.5887 -69.6081,13.2313 -28.47604,9.492 -30.48948,11.5055 -22.43566,5.1775 -50.33642,8.3414 -30.77712,3.7393 -27.90076,9.7797 -17.2582,6.6156 -27.32548,13.8066 -219.17913,122.2455 -116.20521,79.1001 -55.22624,22.7233 -173.4449,111.3154 -0.86291,5.4651 9.49201,34.804 4.02691,3.164 63.28006,-10.0672 2.58873,2.301 2.58873,13.519"
     id="path836-3" />
</svg>
