<?xml version="1.0" encoding="UTF-8" standalone="no"?>
<svg
   id="svg2"
   viewBox="25, -25, 2550, 3650"
   height="3650"
   width="2550"
   version="1.1"
   xmlns:xlink="http://www.w3.org/1999/xlink"
   xmlns="http://www.w3.org/2000/svg"
   xmlns:svg="http://www.w3.org/2000/svg"
   xmlns:rdf="http://www.w3.org/1999/02/22-rdf-syntax-ns#"
   xmlns:cc="http://creativecommons.org/ns#"
   xmlns:dc="http://purl.org/dc/elements/1.1/">
  <metadata
     id="metadata8">
    <rdf:RDF>
      <cc:Work
         rdf:about="">
        <dc:format>image/svg+xml</dc:format>
        <dc:type
           rdf:resource="http://purl.org/dc/dcmitype/StillImage" />
      </cc:Work>
    </rdf:RDF>
  </metadata>
  <defs
     id="defs6" />
  <image
     xlink:href="../streetmap/athosm.png"
     style="display:none"
     id="image10"
     height="2926"
     width="2660"
     y="-50"
     x="-100" />
  <path
     d="m 2475,850 -198.5,48.5 -24.5,22.5 -32.5,42 -62.5,107.5 -16,12 -59.5,28.5 -40.5,13 -31,19 -43.5,43 -51,22 -31,26 -87.5,77.5 -32,29 -25,9.5 -21,0.5 -49.5,-25 -23,-2 -19,4 -18.5,7.5 -24.5,16.5 -12,16 -13,57.5 -18.5,65 -13,22.5 -56.5,60.5 -31,11 -56,16 -34.19,11.45 -37.65,-1.04 -38.75,-6.93 -18.41,-11.7 L 1176,1578.5 l -6.58,-0.95"
     id="path3776-3"
     style="fill:none;stroke:#2888d2;stroke-width:5;stroke-linecap:butt;stroke-linejoin:round;stroke-miterlimit:4;stroke-dasharray:none;stroke-opacity:1" />
  <path
     style="fill:none;stroke:#e71107;stroke-width:5;stroke-linecap:butt;stroke-linejoin:round;stroke-miterlimit:4;stroke-opacity:1;stroke-dasharray:none"
     id="path3006"
     d="m 857,1126 12,12.5 11,4.5 70,4 24.5,6.5 35,19 14,6 41.5,8.5 16,-6.5 19.5,-1 17,9 14.5,17 1.5,17.5 -3.5,51.5 -27.5,122 5,17.5 22,38 11,6.5 38.5,10 23,-4.5 22,5 71,105 -8,56 -31,37 -32.5,25.5 -17,49 -71.5,73 0,9.5 12.5,20 16,19 56,10 67,12.5 6,5.5 11.5,33.5 9.5,72.5 8,45.5 8.5,13 6,5.5 17.5,81.5" />
  <path
     style="fill:none;stroke:#438f50;stroke-width:5;stroke-linecap:butt;stroke-linejoin:round;stroke-miterlimit:4;stroke-opacity:1;stroke-dasharray:none"
     id="path3778"
     d="m 167,2017.5 60,1 40,-9.5 27,1.5 28,5 24.5,14 46.5,38 8.5,6 17,-0.5 21.5,-6 11.5,-11 10.5,-19 28.5,-63 16.5,-18.5 16,-8 377,-149 12,-9 38.5,-39.5 10,-17 54,-127 12.5,-18 16.5,-11.5 25,-10 26,6 44,20 18.5,1 9.5,-2.5 10.5,-10 51,-256 4.5,-22 -1,-7 -9.5,-13.5 -77,-10 -7.5,-6.5 0,-25 2,-35.5 6.5,-14 46.5,-68 6,-17 10.5,-78.5 5.5,-45 12.5,-29.5 26,-55.5 20.5,-23.5 91.5,-76.5 12,-17 21,-56 8,-16.5 66,-61.5 10,-15 9.5,-31 15.5,-13 48.5,-14.5 17.5,-12.5 16,-38.5 8.5,-17.5 15.5,-7.5 18,-1.5 15,4 50.5,30 17,0 117.5,-2 11.5,4.5 37.5,30 26,9 19,-0.5 23.5,-14.5 35,-24 15,-18 68.5,-97.5 16,-23 36.5,-30 23.5,-15 5.5,-14.5 -4,-26.5 -28.5,-68.5 1.5,-18.5 9,-38 -2.5,-28.5 4.5,-16.5 9,-8 26,-10 7.5,-13.5 -0.5,-27.5" />
  <text
     style="font-size:144.0px;font-style:normal;font-weight:normal;line-height:125%;letter-spacing:0px;word-spacing:0px;fill:#000000;fill-opacity:1;stroke:none;font-family:Sans;-inkscape-font-specification:Sans"
     xml:space="preserve"
     id="text3780"
     y="181.96"
     x="114.45"><tspan
       id="tspan1"
       y="181.96"
       x="114.45">2005</tspan></text>
  <path
     id="path4490"
     d="m 419.99,2083.3 25.57,1.55 10.07,-13.95 60.44,1.55 83.3,4.65 24.02,6.97 59.28,23.63 17.82,12.01 33.32,22.08 8.14,19.37 8.91,13.17 8.91,4.65"
     style="fill:none;fill-rule:evenodd;stroke:#83b81a;stroke-width:5;stroke-linecap:butt;stroke-linejoin:round;stroke-miterlimit:4;stroke-dasharray:none;stroke-opacity:1" />
  <path
     id="path4577"
     d="m 868.25,2399.25 -2.22,-4.64 4.42,-9.55 5.39,-1.12"
     style="fill:none;fill-rule:evenodd;stroke:#83b81a;stroke-width:1px;stroke-linecap:butt;stroke-linejoin:round;stroke-opacity:1" />
  <path
     id="path826"
     d="m 1189.55,1864.4 2.05,3.02 -3.62,19.57"
     style="opacity:1;fill:none;fill-opacity:1;fill-rule:nonzero;stroke:#83b81a;stroke-width:1;stroke-linecap:butt;stroke-linejoin:round;stroke-miterlimit:4;stroke-dasharray:none;stroke-opacity:1" />
  <path
     id="path4579"
     d="m 757.75,2177.5 13.75,5.5 10.75,4.25 6.5,4.75 5.5,10.25 0.25,9.25 v 12.25 l -1.5,3.5 -15.75,17.25 -20.75,0.75 -16.25,9.75 -19.75,5 -10,6 -4.75,8.5 -7,17.75 2.25,16.25 6.25,11 9.25,6.25 11,5.5 7.75,7.25 7.75,8.25 25.25,43 16.5,16.75 28.5,15.75 29.74,17.49 5.91,-1.34 19.35,-39.14 5.75,-2 4.13,-8.5 -2.3,-4.81 28.16,-53.44 74,-23.5 67.75,-275 11.5,-8 3.75,-8.75 41.25,-40.5 53.5,-63.5 47.75,-36 -1.62,-8.39 -36.85,-6.62 -15.9,-18.77 -3.13,-7.47 v -11.75 l 18.75,-19.25 1.5,-6.75 18.75,-16.25 3,-9 11.25,-12.25 30,-10 23.5,-23.25 23.25,-2.25 11.5,-8 28.5,-9.25 3,-5 -3.75,-6.25 -10.5,-1 -41.5,-22.25 -1.44,-6.88 28.16,-33.29 3.44,-24.82"
     style="fill:none;fill-rule:evenodd;stroke:#83b81a;stroke-width:1px;stroke-linecap:butt;stroke-linejoin:round;stroke-opacity:1" />
  <path
     style="opacity:1.0;fill:none;stroke:#83b81a;stroke-linejoin:round;stroke-opacity:1"
     d="m 842.99,2439.74 6.29,4.28 18.21,19.37 3.26,7.36 10.75,18.25 6.92,2.28 22.47,4.26 52.69,54.24 7.54,16.64 9.13,9.82 24.75,24.5 26.75,15 20.75,22.25 41.75,60.25 1.75,8.25 2.25,26.25 0.25,24.75 11,51 10.75,48.25 101.75,196.5 4.25,9 14.75,52 9,17 1,15 12.25,12.5 13.25,24 18.25,18.25 6.25,11 9.75,30 7.25,5.25 18.75,8.25 17.5,21 11.75,11 38.5,22.75 6.25,15 3.25,3 8,-0.5 8.25,-9.75 8.25,-2.25 17.5,1.75 18.5,5.25 12.25,6.25 13.5,11.5 9,10 6.75,12 5.75,13.25 2.75,9.25 0.25,14.25 -1.75,13.25 -4.75,18.5 -5.75,11.5 -5.25,6.75 -6.5,5.25 v 9.75 l -3.5,3.5 -8.75,0.5 -3.25,6 14,59.5"
     id="path1534" />
</svg>
