<svg xmlns="http://www.w3.org/2000/svg" viewBox="0, 0, 2560, 3600" height="3600" width="2560"><path d="M2475 850l-198.5 48.5L2252 921l-32.5 42-62.5 107.5-16 12-59.5 28.5-40.5 13-31 19-43.5 43-51 22-31 26-87.5 77.5-32 29-25 9.5-21 .5-49.5-25-23-2-19 4-18.5 7.5-24.5 16.5-12 16-13 57.5-18.5 65-13 22.5-56.5 60.5-31 11-56 16-35.5 6.5-61-9.5-112-18.5-80-11.5-21-5-34.5 3-48-15-35.5-22-16-39-12.5-10.5-114-59.5-68.5-17.5-50-33-102.5-30.5-110.5-66.5-23-1.5" fill="none" stroke="#2888d2" stroke-width="5" stroke-linejoin="round"/><path d="M742 947.5l71.5 78 12 22.5 31.5 78 12 12.5 11 4.5 70 4 24.5 6.5 35 19 14 6 41.5 8.5 16-6.5 19.5-1 17 9 14.5 17 1.5 17.5-3.5 51.5-27.5 122 5 17.5 22 38 11 6.5 38.5 10 23-4.5 22 5 71 105-8 56-31 37-32.5 25.5-17 49-71.5 73v9.5l12.5 20 16 19 56 10 67 12.5 6 5.5 11.5 33.5 9.5 72.5 8 45.5 8.5 13 6 5.5 17.5 81.5 12.5 33.5 23 39 11 27.5-2.5 243 1.5 47 37 339.5" fill="none" stroke="#e71107" stroke-width="5" stroke-linejoin="round"/><path d="M167 2017.5l60 1 40-9.5 27 1.5 28 5 24.5 14 46.5 38 8.5 6 17-.5 21.5-6 11.5-11 10.5-19 28.5-63 16.5-18.5 16-8 377-149 12-9 38.5-39.5 10-17 54-127 12.5-18 16.5-11.5 25-10 26 6 44 20 18.5 1 9.5-2.5 10.5-10 51-256 4.5-22-1-7-9.5-13.5-77-10-7.5-6.5v-25l2-35.5 6.5-14 46.5-68 6-17 10.5-78.5 5.5-45 12.5-29.5 26-55.5 20.5-23.5L1365 798l12-17 21-56 8-16.5 66-61.5 10-15 9.5-31 15.5-13 48.5-14.5L1573 561l16-38.5 8.5-17.5 15.5-7.5 18-1.5 15 4 50.5 30h17l117.5-2 11.5 4.5 37.5 30 26 9 19-.5 23.5-14.5 35-24 15-18L2067 417l16-23 36.5-30 23.5-15 5.5-14.5-4-26.5-28.5-68.5 1.5-18.5 9-38-2.5-28.5 4.5-16.5 9-8 26-10 7.5-13.5-.5-27.5" fill="none" stroke="#438f50" stroke-width="5" stroke-linejoin="round"/><text style="line-height:125%;-inkscape-font-specification:Sans" y="206.961" x="89.453" font-size="144" font-weight="400" letter-spacing="0" word-spacing="0" font-family="Sans"><tspan y="206.961" x="89.453">2015</tspan></text><text style="line-height:125%;-inkscape-font-specification:Sans" y="3497.961" x="89.453" font-size="144" font-weight="400" letter-spacing="0" word-spacing="0" font-family="Sans"/><path d="M419.993 2083.303l25.571 1.55 10.074-13.949 60.441 1.55 83.302 4.65 24.021 6.974 59.28 23.634 17.822 12.01 33.32 22.085 8.137 19.373 8.911 13.173 8.912 4.65M810.152 2420.77l8.911 5.423 30.22 17.823 18.21 19.372 3.875 10.074M879.505 2487.023l8.911 4.261 22.472 4.262 52.693 54.243 10.073 18.985" fill="none" stroke="#83b81a" stroke-width="5" stroke-linejoin="round"/><path d="M846.5 2443.25l21.75-44 5.75-2 4.134-8.5-2.298-4.806L904 2330.5l74-23.5 67.75-275 11.5-8 3.75-8.75 41.25-40.5 53.5-63.5 47.75-36-1.5-8.75-36-6.5-16.75-19.25-3.25-6.75v-11.75l18.75-19.25 1.5-6.75L1185 1780l3-9 11.25-12.25 30-10 23.5-23.25 23.25-2.25 11.5-8 28.5-9.25 3-5-3.75-6.25-10.5-1-41.5-22.25-1.442-5.192 28.884-35.106 3.558-24.702" fill="none" stroke="#83b81a" stroke-linejoin="round"/><path d="M868.25 2399.25l-2.221-4.64 4.42-9.547 5.387-1.118M757.75 2177.5l13.75 5.5 10.75 4.25 6.5 4.75 5.5 10.25.25 9.25v12.25l-1.5 3.5-15.75 17.25-20.75.75-16.25 9.75-19.75 5-10 6-4.75 8.5-7 17.75 2.25 16.25 6.25 11 9.25 6.25 11 5.5 7.75 7.25 7.75 8.25 25.25 43 16.5 16.75 28.5 15.75" fill="none" stroke="#83b81a" stroke-linejoin="round"/><path d="M870.75 2470.75L881.5 2489" fill="none" stroke="#83b81a"/><path d="M971.75 2565.75l8.5 10.5 24.75 24.5 26.75 15 20.75 22.25 41.75 60.25 1.75 8.25 2.25 26.25.25 24.75 11 51 10.75 48.25 101.75 196.5 4.25 9 14.75 52 9 17 1 15 12.25 12.5 13.25 24 18.25 18.25 6.25 11 9.75 30 7.25 5.25 18.75 8.25 17.5 21 11.75 11 38.5 22.75 6.25 15 3.25 3 8-.5 8.25-9.75 8.25-2.25 17.5 1.75 18.5 5.25 12.25 6.25 13.5 11.5 9 10 6.75 12 5.75 13.25 2.75 9.25.25 14.25-1.75 13.25-4.75 18.5-5.75 11.5-5.25 6.75-6.5 5.25v9.75l-3.5 3.5-8.75.5-3.25 6 14 59.5" fill="none" stroke="#83b81a" stroke-linejoin="round"/></svg>