<svg xmlns="http://www.w3.org/2000/svg" height="4000" width="4600"><path d="m1991.9 2628.95 76.6-13.45 29-5.5 108.5 75.52.2.5 126-60 8.5-5.5 5.5-15.5-4-85.5-12-55.5 3-14.5 198-213.5 9-6 65.84-13.75" style="fill:none;fill-rule:evenodd;stroke:#6b9525;stroke-width:5;stroke-linecap:butt;stroke-linejoin:round;stroke-miterlimit:4;stroke-dasharray:none;stroke-opacity:1"/><path d="m1504.5 2874-27 11.5-51.02.5H1406l-61.5 24.5" style="fill:none;fill-rule:evenodd;stroke:#e3001b;stroke-width:5;stroke-linecap:butt;stroke-linejoin:round;stroke-miterlimit:4;stroke-dasharray:none;stroke-opacity:1"/><text x="89.45" y="206.96" xml:space="preserve" style="font-style:normal;font-weight:400;font-size:144px;line-height:125%;font-family:Sans;-inkscape-font-specification:Sans;letter-spacing:0;word-spacing:0;fill:#000;fill-opacity:1;stroke:none"><tspan x="89.45" y="206.96">1970</tspan></text><path d="m1341 2701.5 163.5 172.5 69.5 7.5 27.5 10.5 97.5-9.01.75-6.5 15.75-15.5 10.75-4.25 9.75.259.5 4.25 15.25 19.5L1805 2916l36.5 18 37-1 36-13 16.5-8.5 8.5-20.5 19.5-32.5 175.5-245 7-20.5 121.78-571.52" style="fill:none;fill-rule:evenodd;stroke:#e3001b;stroke-width:5;stroke-linecap:butt;stroke-linejoin:round;stroke-miterlimit:4;stroke-dasharray:none;stroke-opacity:1"/><path style="fill:none;fill-rule:evenodd;stroke:#1957a0;stroke-width:5;stroke-linecap:butt;stroke-linejoin:round;stroke-miterlimit:4;stroke-dasharray:none;stroke-opacity:1" d="m1516.84 2343.57 3.66 13.93 8 44 3.09 69.03 10.61 68.59-4.95 46.67-2.12 57.98 4.95 21.92 53.74 70.71 14.14 29.7 36.06 54.45 49.98 53.95"/></svg>