<svg xmlns="http://www.w3.org/2000/svg" height="2500" width="1550"><path d="m138.98 259.31 23.01 10.74 19.56 14.96 70.95 28.38 29.15 30.3 139.6 55.23 53.31 15.72 6.52 9.59-4.99 16.49-16.11 19.94-13.42 7.29-71.72 23.39-74.4 19.18-25.7 13.81-16.87 16.49-9.2 17.26-3.84 20.33-14.96 129.24 4.99 11.89 46.79 44.87 13.81 19.56 19.18 35.67 13.42 36.82 18.41 50.62 16.49 27.61 20.33 17.64 34.52 20.33 87.44 52.93 20.71 16.49 16.87 22.63 11.89 25.31L618 1252.63l15.34 24.16 1.15 8.05-3.07 9.2-54.08 101.25-8.05 15.72 3.45 8.05 76.32 28.38 24.16 33.75 23.78 24.93 31.06 21.48 32.6 18.79 3.84 8.44 3.84 13.81 3.45 4.6 8.44 1.92 42.95-26.46 51.77-9.97 7.67.777.29 6.14 6.9 19.94 87.06 128.86 21.09 22.24 318.75.18.41 10.74 5.75 23.78 97.8 149.57" style="opacity:1;fill:none;fill-opacity:1;fill-rule:nonzero;stroke:#293785;stroke-width:5;stroke-linecap:butt;stroke-linejoin:round;stroke-miterlimit:4;stroke-dasharray:none;stroke-opacity:1"/><text style="font-style:normal;font-weight:400;font-size:144px;font-family:Sans;-inkscape-font-specification:Sans;fill:#000;fill-opacity:1;stroke:none" xml:space="preserve" y="206.96" x="89.45"><tspan y="206.96" x="89.45">2020</tspan></text></svg>