<svg xmlns="http://www.w3.org/2000/svg" height="10200" width="7600" viewBox="0, 0, 7600, 10200"><path d="M5079 4381l40 23 136-2 104 49 10 21 7 17 5 20 58 146v66l-12 33-16 63 5 14 122 50 268 97 22-6 62-17 24 3 20 18 103 204 31 70 5 27-17 33-15 12-51 23-56 13-66 7-118-7-70.267 13.914" fill="none" stroke="#0ba044" stroke-width="5" stroke-linejoin="round"/><path d="M5547.189 3636.383L5583 3747l32 87 3 42v88l-24 61-60 97-22 31-33 21-45 34-43 71-38 30-82 28-87 2-84 31-92 44-87 26-16 10h-109l-75 8-93 5h-105l-13 6 3 87-25 71-34 42-9 26 2 46-6 59 3 111-4 81-15 36-129 116-60 63-90 98-53 18-112 11-97 3-29-10-36-35-30-12-48-3-33 4-44 21-130 69-83 41-97 82-32 44-70 34-89 54-27 8h-19l-122-30-16 2-151 41-35-1-121 1-33 13-26 16-68 72-36 16-110 45-26-1-47-6-70 4-272-50-95-18-522-44-24 7-27 19-117 102-21 34-10 175-10 24-19 16-19 8-161 6-281-35H508l-25-6-90-53-46-38-59-70-45-39-17-14-25-3-33 11-20 14-16 20-6 35" fill="none" stroke="#094299" stroke-width="5" stroke-linejoin="round"/><text style="line-height:125%;-inkscape-font-specification:Sans" y="206.961" x="89.453" font-weight="400" font-size="144" font-family="Sans" letter-spacing="0" word-spacing="0"><tspan y="206.961" x="89.453">1980</tspan></text><text style="line-height:125%;-inkscape-font-specification:Sans" y="10097.961" x="89.453" font-weight="400" font-size="144" font-family="Sans" letter-spacing="0" word-spacing="0"/><path d="M4326 5118l-12 27 3 28 11 16 38 13 35-8 44-6 35 11 92 39 98 1 42-2 88-39 17-28 33-46 57-38 27-17 73-142 24-17 35-27 28-28 51-20 47-34 17-24 14-24 41-28 8-19 2-32-22-142 4-27 85-143 36-52 19-35" fill="none" stroke="#094299" stroke-width="5"/><path d="M3332 5520l-7 44-1 36 10 132 40 126 104 295 119 347 9 53 14 91 10 30 59 118 182 290 43 57 54 53 13 35 42 132 33 48 18 25 27 63 27 74 34 85 5 49-3 122-7 392 7 147 53 109 26 30 83 75 28 11 97 16 35 3 21.5 10 14.5 11.5 77 105.5 41 61 14.5 27.5L4797 9137" fill="none" stroke="#094299" stroke-width="5" stroke-linejoin="round"/><path d="M4595.95 4669.364l42.116 66.46" fill="none" stroke="#000" stroke-width="5" stroke-linejoin="round"/></svg>