<svg xmlns="http://www.w3.org/2000/svg" width="2500" height="5150"><text x="89.453125" y="5047.9609" style="line-height:125%;-inkscape-font-specification:Sans" font-size="144px" font-weight="400" letter-spacing="0" word-spacing="0" font-family="Sans"/><text x="89.453178" y="206.96085" style="line-height:125%;-inkscape-font-specification:Sans" font-size="143.99993896px" font-weight="400" letter-spacing="0" word-spacing="0" font-family="Sans"><tspan x="89.453178" y="206.96085">1915</tspan></text><path d="M2179 3248.5l-10.25-203.25" fill="none" stroke="#000" stroke-width="5" stroke-linejoin="round"/><path d="M2168.75 3046.25L2164 2946l-2.75-3-25.25.25-2-2.25-5.375-97.232.456-.912" fill="none" stroke="#000" stroke-width="1px" stroke-linejoin="round"/><path d="M2128.5 2843.5l3.75-4 64.5-3M2179 3247l.5 10.75-2.75 2.5-61 2.75-14.25-2.25-104.75 4.25-187.25 9-2.75-2.5-5.25-118.75-6.336-160.312 18.881-17.883.836-4.966-51.449-56.113.193-5.116 15.72-19.205 5.223 1.022 25.063 27.046-.822 4.932-16.989 15.893-.274 5.48" fill="none" stroke="#000" stroke-width="1px" stroke-linejoin="round"/></svg>