<svg xmlns="http://www.w3.org/2000/svg" width="2500" height="5150"><text x="89.45" y="5047.96" xml:space="preserve" style="font-size:144px;font-style:normal;font-weight:400;line-height:125%;letter-spacing:0;word-spacing:0;fill:#000;fill-opacity:1;stroke:none;font-family:Sans;-inkscape-font-specification:Sans"/><text x="89.45" y="206.96" xml:space="preserve" style="font-size:144px;font-style:normal;font-weight:400;line-height:125%;letter-spacing:0;word-spacing:0;fill:#000;fill-opacity:1;stroke:none;font-family:Sans;-inkscape-font-specification:Sans"><tspan x="89.45" y="206.96">1935</tspan></text><path d="m2179 3248.5-10.25-203.25" style="fill:none;stroke:#000;stroke-width:5;stroke-linecap:butt;stroke-linejoin:round;stroke-miterlimit:4;stroke-opacity:1;stroke-dasharray:none"/><path d="M2168.75 3046.25 2164 2946l-2.75-3-25.25.25-2-2.25-5.5-99.5-9.5-187.5-1-28.25 1.25-15.75 4-11.5 8.25-15.02.75-10v-16.25l-3.75-16.5-12.75-34.25-16-18-27-19-16-14-5.5-7" style="fill:none;stroke:#000;stroke-width:1px;stroke-linecap:butt;stroke-linejoin:round;stroke-opacity:1"/><path d="m2128.5 2843.5 3.75-4.064.5-3M2179 3247l.5 10.75-2.75 2.5-61.02.75-14.25-2.25-104.75 4.25-187.25 9-2.75-2.5-5.25-118.75-2.5-2.75-28.25.75-3-2.5-9.25-234.5 31-37" style="fill:none;stroke:#000;stroke-width:1px;stroke-linecap:butt;stroke-linejoin:round;stroke-opacity:1"/></svg>