<?xml version="1.0" encoding="UTF-8" standalone="no"?>
<svg
   xmlns:dc="http://purl.org/dc/elements/1.1/"
   xmlns:cc="http://creativecommons.org/ns#"
   xmlns:rdf="http://www.w3.org/1999/02/22-rdf-syntax-ns#"
   xmlns:svg="http://www.w3.org/2000/svg"
   xmlns="http://www.w3.org/2000/svg"
   xmlns:xlink="http://www.w3.org/1999/xlink"
   viewBox="0 0 1950 2650"
   height="2650"
   width="1950"
   id="svg2"
   version="1.1">
  <metadata
     id="metadata8">
    <rdf:RDF>
      <cc:Work
         rdf:about="">
        <dc:format>image/svg+xml</dc:format>
        <dc:type
           rdf:resource="http://purl.org/dc/dcmitype/StillImage" />
        <dc:title></dc:title>
      </cc:Work>
    </rdf:RDF>
  </metadata>
  <defs
     id="defs6" />
  <image
     style="display:none"
     y="-73.5"
     x="-50"
     id="image10"
     xlink:href="file:///home/lexande/timelines/timelines/streetmap/../streetmap/urcosm.png"
     preserveAspectRatio="none"
     height="2923.5"
     width="1949" />
  <path
     id="path836"
     d="m 180.64407,380.03389 -18.71187,5.28814 -8.13559,6.10169 -5.69491,14.64407 3.66101,90.71186 -2.44068,46.37289 8.94916,18.71186 20.33898,19.5254 44.33898,32.5424 17.08475,4.4746 24,-2.8475 25.62712,-9.3559 11.38983,-8.1356 L 310,581.7966 510.54237,355.22033 l 54.50848,-54.10169 108.61017,-99.25424 37.01695,-23.18644 48,-24 19.9322,-7.32203 h 11.79661 l 13.42373,8.13559 9.76271,13.83051 53.69492,126.91525 89.49156,172.88136 183.4576,368.54236 11.3898,30.5085 158.6441,518.6441 6.9152,10.983 11.7967,6.1017 16.6779,5.2881 21.9661,0.4068 115.1187,-6.9152 16.6779,-4.8814 18.3051,-8.5424 46.3729,-9.3559 61.0169,-16.678 19.1187,-0.8135 26.4407,6.5085 15.8644,9.7627 10.5762,14.2373 4.4746,12.6101 14.2373,81.356 3.2543,124.8813 2.0338,90.7119 6.1017,19.1186 24.8136,33.3559 17.0847,31.3221 16.678,23.5932 19.9322,69.9661 2.0339,14.6441 -6.5085,28.0678 -3.2542,180.2034 -7.322,85.4237 -4.8814,6.9152 -14.6441,16.2712 -10.5762,23.5933 -14.6441,58.983 -15.4576,74.0339 -6.5085,35.7966 -4.4746,44.7458 -8.9491,23.5932 -27.2543,68.7458"
     style="opacity:1;fill:none;fill-opacity:1;fill-rule:nonzero;stroke:#2c508e;stroke-width:5;stroke-linecap:butt;stroke-linejoin:round;stroke-miterlimit:4;stroke-dasharray:none;stroke-opacity:1" />
  <text
     style="font-style:normal;font-weight:normal;font-size:143.99993896px;font-family:Sans;-inkscape-font-specification:Sans;fill:#000000;fill-opacity:1;stroke:none"
     xml:space="preserve"
     id="text2847"
     y="206.96094"
     x="89.453133"><tspan
       id="tspan1"
       y="206.96094"
       x="89.453133">2020</tspan></text>
</svg>
