<svg xmlns="http://www.w3.org/2000/svg" width="5600" height="8000" viewBox="-25 -25 5600 8000"><path style="fill:none;fill-rule:evenodd;stroke:#b56631;stroke-width:5;stroke-linecap:butt;stroke-linejoin:round;stroke-miterlimit:4;stroke-dasharray:none;stroke-opacity:1" d="m3895.45 4176.73 11.67-2.12 13.44 5.3 6.01 7.78v8.49l-.35 19.45 3.54 8.84 7.42 9.55 24.04 17.32 18.74 5.3 20.86-0.7146.67 7.42 16.97 8.49 7.07 12.37 22.63 43.49 8.84 8.49 8.84 8.49 24.4 10.25 22.63 16.97 10.96 11.31 10.25 12.37 24.75 13.79 9.9 12.73 20.51 7.42 19.09 16.26 16.97 7.42 58.69 18.38h17.32l24.4-3.54 17.68-10.25 16.97-1.41 12.02 1.06 18.38 8.13 19.45 9.55 12.37 4.24 15.91-0.7115.91-4.6 9.19-4.6 12.02-12.73 55.51-53.74 16.62-7.07 28.28-6.01 15.2-8.84 13.08-14.5 8.49-5.66 14.85-3.54 15.56-7.07 17.32-20.86 20.51-12.73 10.25-10.25 7.78-19.45 11.31-9.55 7.78-5.3 43.49-10.25 19.8 3.18h11.67"/><text style="font-style:normal;font-weight:400;font-size:144px;line-height:125%;font-family:Sans;-inkscape-font-specification:Sans;letter-spacing:0;word-spacing:0;fill:#000;fill-opacity:1;stroke:none" xml:space="preserve" y="7872.96" x="64.45"/><text style="font-style:normal;font-weight:400;font-size:144px;line-height:125%;font-family:Sans;-inkscape-font-specification:Sans;letter-spacing:0;word-spacing:0;fill:#000;fill-opacity:1;stroke:none" xml:space="preserve" y="181.96" x="64.45"><tspan y="181.96" x="64.45">1925</tspan></text><path style="fill:none;fill-rule:evenodd;stroke:#b56631;stroke-width:1px;stroke-linecap:butt;stroke-linejoin:round;stroke-opacity:1" d="m3895.45 4176.73-66.51 62.06-2.85 5.99-2.08 6.78 1.84 8.36 1.86 5.31-0.142.46-4.18 2.98-2.34 4.380.234.147.015.24 8.13 20.15 2.3 16.44-2.47 10.78-7.42 10.96-13.44 7.25-5.52-.54-3.91 2.08-5.6 13.31-6.57 5.14-8.39.56-17.9-7.86-7.39 1.48-33.09 18.02-85.38 47.02-9.55 8.13-4.77 8.31-46.85 111.9-3.01 1.06-7.07-2.65"/><path style="fill:none;fill-rule:evenodd;stroke:#b56631;stroke-width:5;stroke-linecap:butt;stroke-linejoin:round;stroke-opacity:1;stroke-miterlimit:4;stroke-dasharray:none" d="m3895.45 4176.73 4.3-6.98 1.75-10.75-1.5-12.5 2.25-16.75 4-12.25 13.75-18.027.75-22.020.75-19 6-4.25 10.5-4.5 16.75-1.75 14.25 8.5 25.25 26.5 10.5 21.25 19.75 13.75 5.5 2 17-1.25 27.5-12.5 17.25-3.75 21.25 1.75 28.75 2.75 8.25 1.5 16-5.75 8.25-7.25 38.5-50"/></svg>