<svg xmlns="http://www.w3.org/2000/svg" width="5600" height="8000" viewBox="-25 -25 5600 8000"><path style="fill:none;fill-rule:evenodd;stroke:#b56631;stroke-width:5;stroke-linecap:butt;stroke-linejoin:round;stroke-miterlimit:4;stroke-dasharray:none;stroke-opacity:1" d="m3895.45 4176.73 11.67-2.12 13.44 5.3 6.01 7.78v8.49l-.35 19.45 3.54 8.84 7.42 9.55 24.04 17.32 18.74 5.3 20.86-0.7146.67 7.42 16.97 8.49 7.07 12.37 22.63 43.49 8.84 8.49 8.84 8.49 24.4 10.25 22.63 16.97 10.96 11.31 10.25 12.37 24.75 13.79 9.9 12.73 20.51 7.42 19.09 16.26 16.97 7.42 58.69 18.38h17.32l24.4-3.54 17.68-10.25 16.97-1.41 12.02 1.06 18.38 8.13 19.45 9.55 12.37 4.24 15.91-0.7115.91-4.6 9.19-4.6 12.02-12.73 55.51-53.74 16.62-7.07 28.28-6.01 15.2-8.84 13.08-14.5 8.49-5.66 14.85-3.54 15.56-7.07 17.32-20.86 20.51-12.73 10.25-10.25 7.78-19.45 11.31-9.55 7.78-5.3 43.49-10.25 19.8 3.18h11.67"/><text style="font-style:normal;font-weight:400;font-size:144px;line-height:125%;font-family:Sans;-inkscape-font-specification:Sans;letter-spacing:0;word-spacing:0;fill:#000;fill-opacity:1;stroke:none" xml:space="preserve" y="7872.96" x="64.45"/><text style="font-style:normal;font-weight:400;font-size:144px;line-height:125%;font-family:Sans;-inkscape-font-specification:Sans;letter-spacing:0;word-spacing:0;fill:#000;fill-opacity:1;stroke:none" xml:space="preserve" y="181.96" x="64.45"><tspan y="181.96" x="64.45">1945</tspan></text><path style="fill:none;fill-rule:evenodd;stroke:#b56631;stroke-width:1px;stroke-linecap:butt;stroke-linejoin:round;stroke-opacity:1" d="m3895.45 4176.73-66.51 62.06-2.85 5.99-2.08 6.78 1.84 8.36 1.86 5.31-0.142.46-4.18 2.98-2.34 4.380.234.147.015.24 8.13 20.15 2.3 16.44-2.47 10.78-7.42 10.96-13.44 7.25-5.52-.54-3.91 2.08-5.6 13.31-6.57 5.14-8.39.56-17.9-7.86-7.39 1.48-33.09 18.02-85.38 47.02-9.55 8.13-4.77 8.31-46.85 111.9-3.01 1.06-7.07-2.65"/><path style="fill:none;fill-rule:evenodd;stroke:#b56631;stroke-width:5;stroke-linecap:butt;stroke-linejoin:round;stroke-opacity:1;stroke-miterlimit:4;stroke-dasharray:none" d="m3895.45 4176.73 4.3-6.98 1.75-10.75-1.5-12.5 2.25-16.75 4-12.25 13.75-18.027.75-22.020.75-19 6-4.25 10.5-4.5 16.75-1.75 14.25 8.5 25.25 26.5 10.5 21.25 19.75 13.75 5.5 2 17-1.25 27.5-12.5 17.25-3.75 21.25 1.75 28.75 2.75 8.25 1.5 16-5.75 8.25-7.25 38.5-50"/><path style="fill:none;fill-rule:evenodd;stroke:#21b259;stroke-width:5;stroke-linecap:butt;stroke-linejoin:round;stroke-miterlimit:4;stroke-dasharray:none;stroke-opacity:1" d="m2165.86 4431.64 22.63 7.78 17.68 7.78 36.77 28.28 25.81 18.38 21.57 6.36 17.32-0.7121.57-6.01 48.08-2.12h33.23l21.21 6.36 58.69 28.28 20.15 15.2 10.25 6.72 13.44 3.89 42.07 2.47 10.25 1.41 33.23 16.62 136.83 41.72 14.14 6.72 12.02 7.42 9.55 1.06 6.72-2.47 9.9-9.9 13.08-3.18 48.44 12.37 18.03 5.3 16.97-2.83 36.06-10.25 45.25 4.6 86.27 28.28 4.72 1.65m486.9 178.76 6.55 52.58 8.77 52.31 18.59 64.37 8.26 37.87"/><path d="m3077.79 4652.85 10.05 3.86 37.22-0.1992.67-8.75 26.61 13.4 42.06 17.86 115.56 30.52 16.93 1.12 37.59-6.33 9.3 1.86 18.42-4.28 12.28-6.89 2.610.932.23 4.47-0.742.23-5.21 1.86-11.17-2.61M3605.54 5036.37l8.95 10.39 19.17 63.27 36.1 26.05 5.4 10.24 6.51 16.56-0.7413.4-4.84 12.28-3.91.19-38.15-.37-4.39 4.81-6.59 28.68-2.43 4.49-17.53 5.87-26.21 8.65-10.13 6.12-9.25 11.75-6.25 12.75-2.25 14.52.011.754.013.5 17.25 26.75 1.25 13.5-1.5 13-24.25 45.5-4.5 13-1 10.51.022.5-3.5 10.5-7.5 14.5-16.5 13.25-22.75 14.5-29.75 12.5-16.04.75-21.25 2.34-8.41-3.5-13.69-8.16-39.48-48.16-55.27-23.42-8.68-4.47-10 .79-15 10.53-22.57 21.91-20.1 49.5" style="fill:none;fill-rule:evenodd;stroke:#21b259;stroke-width:1px;stroke-linecap:butt;stroke-linejoin:round;stroke-opacity:1"/><path d="m3620.62 5226.37 26.07 38.19 17.76 32.5 10.13 19.74 3.82 1.84 17.03 13.03 24.94 120.22 5.58 4.09 127.66-8.93 18.61 4.84 29.4 14.89" style="fill:none;fill-rule:evenodd;stroke:#21b259;stroke-width:1px;stroke-linecap:butt;stroke-linejoin:round;stroke-opacity:1"/></svg>