<?xml version="1.0" encoding="UTF-8" standalone="no"?>
<svg
   xmlns:dc="http://purl.org/dc/elements/1.1/"
   xmlns:cc="http://creativecommons.org/ns#"
   xmlns:rdf="http://www.w3.org/1999/02/22-rdf-syntax-ns#"
   xmlns:svg="http://www.w3.org/2000/svg"
   xmlns="http://www.w3.org/2000/svg"
   xmlns:xlink="http://www.w3.org/1999/xlink"
   viewBox="-25 -25 5600 8000"
   height="8000"
   width="5600"
   id="svg2"
   version="1.1">
  <metadata
     id="metadata8">
    <rdf:RDF>
      <cc:Work
         rdf:about="">
        <dc:format>image/svg+xml</dc:format>
        <dc:type
           rdf:resource="http://purl.org/dc/dcmitype/StillImage" />
        <dc:title></dc:title>
      </cc:Work>
    </rdf:RDF>
  </metadata>
  <defs
     id="defs6" />
  <image
     style="display:none"
     y="-535.66"
     x="41"
     id="image10"
     xlink:href="../basemap/stoosm.png"
     preserveAspectRatio="none"
     height="8435.66"
     width="5509" />
  <path
     id="path4506"
     d="M 3575.25,4665.25 3550,4652 l -31.5,-8.5 -35.5,-1 -31.5,4.5 -27.25,8.25 -35.75,16 -46.25,6 -19.25,-3 -74.5,-28.5 -67.5,-38.25 -25.5,-18.75 -42.5,-40.5 -11.75,-25.25 -9.5,-29.75 -31.25,-46.5 -29.25,-38.25 -7.75,-37.5 -15,-102.75 -20.25,-44 -27.5,-36.5 -92,-73.75 -69.25,-61 -32,-70 -4.5,-235.25 -4,-22.25 -14.25,-23 -47.5,-66.25 -20.5,-15.75 -28,-7 -55.25,-15 -18.5,-12.75 -44.75,-60 -12.75,-9.5 -23.5,-11 -51.75,-31.25 -55.25,-65 -25,-13.25 -44.75,-38.5"
     style="fill:none;fill-rule:evenodd;stroke:#0691d2;stroke-width:5;stroke-linecap:butt;stroke-linejoin:round;stroke-miterlimit:4;stroke-dasharray:none;stroke-opacity:1" />
  <path
     id="path4508"
     d="m 2120.75,3659.75 26.25,12.5 58,6.25 72,29 32.25,7.5 26.75,-0.5 31.75,8.75 39.25,27.5 33.25,30 51.93,111.52 27.87,21.68 20.06,-5.26 223.92,61.89 3.46,4.9"
     style="fill:none;fill-rule:evenodd;stroke:#0691d2;stroke-width:5;stroke-linecap:butt;stroke-linejoin:round;stroke-miterlimit:4;stroke-dasharray:none;stroke-opacity:1" />
  <path
     id="path4510"
     d="m 3282,3616.75 34.25,45 16,67.25 1,39.75 -4.5,15 -9,17 -15,16.5 -10.25,15 -6.25,18.75 0.75,28.25 5,14 19.25,32.75 15.75,20 16.25,9.75 28.25,17.75 10,12 17,31.5 5,11.75 21.75,110.5 8.75,32.25 14,42 23.75,129.5 6.25,16.25 18.25,31 25.75,24.5 31.75,22 61.75,29.25 9,12 10.75,25.75 10,31 0.5,16 -3.25,14 -5.5,9.75 -11.75,13.75 -47.75,19 -9.5,1 -24,-6.75 -11.75,2.5 -12.25,8 -15,17.75 -8.75,8.5 -15,11.5 -6.25,11.5 -0.5,11.75 7,19.75 23.75,37.75 16.5,25.5 11.5,32.5 34.25,41.25 1.25,22 0.75,8.5 -4.5,11.5 -12.75,12.75 -17,3.25 -17.25,-1 -20.5,-2.25 -97.25,-17 -31.75,1.75 -93.5,24.25 -11.5,7.75 -34.25,38.25 -24.25,18 -59,43.75 -44.5,27.75 -124.5,15 -67.75,11 -27.25,8.5 -88.25,9.75 -20.25,2 -48.25,14.75 -28.25,10.5 -22.75,11.5 -27.75,16.5 -11.5,9 -8,10.25 -20.5,31.25 -11.5,10.75 -22.75,10.25 -30.75,11.25 -22.75,5.5 -58,3.5 -21.5,4.75 -16.5,10 -9.5,13 -8.5,14.25 -4.75,22 -5,41.5 -6.75,20 -5.75,23.5 -9.5,16.5 -48.75,69.5 -11.75,15 -18.5,15 -12.5,5.25 -4,2 -42.5,2.5 -56.75,4.25 -35,7.5 -45,13.75 -23,12.25 -12,11.5 -10.75,16 -4.25,24.25 1.5,17 6,19.5 8.5,20.25 38.75,51.75 13.25,20.75 21,43 6.5,19.5 1,16 -2.5,22.5 -4,16.5 -9.5,22.75 -14.5,19.75 -18,20.25 -17.5,12 -30.5,9.75 -23,2.25 -26.5,-0.25 -35.25,-2.75 -14.5,2.25 -20.5,9.5 -12.75,9.75 -15,19.5 -10.75,18.25 -6.75,19.5 -2.5,21 -4.75,10 -7,9.5 -10,6.5 -80.25,22 -22.75,-1 -18.75,-3.5 -20.25,-6.75 -12.5,-10.5 -16,-18.75 -12.5,-6.5 -32.25,-6.5 -117.5,-10.75"
     style="fill:none;fill-rule:evenodd;stroke:#ee1d23;stroke-width:5;stroke-linecap:butt;stroke-linejoin:round;stroke-miterlimit:4;stroke-dasharray:none;stroke-opacity:1" />
  <path
     id="path4512"
     d="m 3148,5001.25 -0.75,11 -2.25,26 -4,12.25 -19,30.5 -15.5,15.75 -56.5,42.5 -23,11.5 -30.75,9.25 -99.5,27.75 -49.75,14.75 -34.75,26 -18.25,12.25 -34.25,16.5 -11.75,9 -11.5,11.5 -9.75,15.25 -2.75,11.75 -2.25,16.75 6.5,35.5"
     style="fill:none;fill-rule:evenodd;stroke:#ee1d23;stroke-width:5;stroke-linecap:butt;stroke-linejoin:round;stroke-miterlimit:4;stroke-dasharray:none;stroke-opacity:1" />
  <path
     id="path4516"
     d="m 3627.25,4588.25 22.75,-14.5 42.5,-15 14.5,-7.5 26,-34.5 40.75,-66 7.5,-28.25 1.25,-11.75 -11.75,-37.75 -11.25,-38.25 1.5,-10.75 2.25,-14 12.5,-15.75 32.5,-40.75"
     style="fill:none;fill-rule:evenodd;stroke:#ee1d23;stroke-width:5;stroke-linecap:butt;stroke-linejoin:round;stroke-miterlimit:4;stroke-dasharray:none;stroke-opacity:1" />
  <path
     id="path4543"
     d="m 1686.79,4197.24 11.31,-25.1 11.31,-15.56 10.96,-12.37 25.46,-18.74 22.98,-11.67 34.65,-11.31 32.88,-7.42 32.88,-1.41 37.83,2.83 22.63,7.42 16.26,8.84 10.25,9.9 74.6,74.6 27.93,30.76 10.61,19.8 6.72,26.16 1.41,28.28 -2.12,18.38 -4.95,25.81 -1.06,18.03 4.6,18.03 11.31,13.79 10.96,12.73 10.96,7.07 22.63,8.84 36.06,6.72 22.63,7.78 17.68,7.78 36.77,28.28 25.81,18.38 21.57,6.36 17.32,-0.71 21.57,-6.01 48.08,-2.12 h 33.23 l 21.21,6.36 58.69,28.28 20.15,15.2 10.25,6.72 13.44,3.89 42.07,2.47 10.25,1.41 33.23,16.62 136.83,41.72 14.14,6.72 12.02,7.42 9.55,1.06 6.72,-2.47 9.9,-9.9 13.08,-3.18 48.44,12.37 18.03,5.3 16.97,-2.83 36.06,-10.25 45.25,4.6 86.27,28.28 20.51,5.3 26.87,-1.77 108.89,-10.61 11.31,-3.18 8.13,-6.36 9.55,-29.34 18.03,-41.72 26.16,-72.12 7.78,-6.36 104.3,-9.55 20.51,2.12 10.61,4.95 57.98,116.32 5.3,18.38 -3.18,7.07 -11.67,10.96 -14.68,11.52 -7.32,13.62 -0.29,12.95 7.09,22.08 23.45,34.61 16.28,27.1 12.37,33.55 33.63,40.89 6.55,52.58 8.77,52.31 49.75,172.25 5.75,47.5 2.25,13.75 -10.75,21.25 -5.25,23 -6,9.75 -12,6 -26.87,10.88 -10.13,6.12 -9.25,11.75 -6.25,12.75 -2.25,14.5 2,11.75 4,13.5 17.25,26.75 1.25,13.5 -1.5,13 -24.25,45.5 -4.5,13 -1,10.5 1,22.5 -3.5,10.5 -7.5,14.5 -16.5,13.25 -22.75,14.5 -29.75,12.5 -16,4.75 -21,4 -8.75,5.25 -8.75,7.5 -7.25,13.75 -22.5,72.75 -30,45.25 -14.25,27 -13.5,30.5 -14,13.75 -45.75,26.75 -23.5,20.75 -20.5,13.25 -17,7.75 -16.5,2 -15.75,-3.5 -11.25,-4 -13.75,-10 -10.75,-13.75 -8.25,-12.25 -12,-38.25 -13.25,-27.25"
     style="fill:none;fill-rule:evenodd;stroke:#21b259;stroke-width:5;stroke-linecap:butt;stroke-linejoin:round;stroke-miterlimit:4;stroke-dasharray:none;stroke-opacity:1" />
  <path
     id="path4545"
     d="m 3637.75,5170 10.25,7.25 35.75,10 23,17.75 13.75,13.5 3,10.75 -1.75,16.5 -7.25,42.5 2.75,49.5 10.5,39.5 21,62.25 1,15.25 -2.5,39.5 -5.25,15 -6,11.25 -26.25,21.25 -43,42 -9.5,14.5 -7,17 -4.5,20.25 -3,22.25 0.5,17.75 4.25,49.5 -0.25,55 2,9.5 5.5,12.25 11.25,15.75 23,21.25 7,9.5 5.25,11.75 5.25,13.25 4.5,21.25 6.25,60.25 5,21.75 21,40.75 14.5,24.75 8.25,19.5 v 18.25 l 1.75,11.25 4.25,9 33.25,39.5"
     style="fill:none;fill-rule:evenodd;stroke:#21b259;stroke-width:5;stroke-linecap:butt;stroke-linejoin:round;stroke-miterlimit:4;stroke-dasharray:none;stroke-opacity:1" />
  <path
     id="path4547"
     d="m 3720.5,5218.5 15.5,5.5 24.75,-1.25 45.5,-5.25 52.25,0.75 12.75,2.75 12.5,5.75 7.5,6 7.25,8.5 3.75,10.75 3.25,10.75 2.25,19.25 v 14.25 l -2.75,18.25 -8,33 v 14.25 l 2.5,17.25 9,19.75 29.5,42 9.25,11.25 10.25,8 10.25,6.25 49,18 17.25,5.5"
     style="fill:none;fill-rule:evenodd;stroke:#21b259;stroke-width:5;stroke-linecap:butt;stroke-linejoin:round;stroke-miterlimit:4;stroke-dasharray:none;stroke-opacity:1" />
  <path
     id="path4653"
     d="m 3228.37,4526.16 20.13,19.34 34,16 77,22 36,20.5 17.75,15.5 46.5,73 17.5,22 27.25,28 10.75,17.75 11.62,33.75 14.12,51.75 6.5,28.5 -2.25,15.25 -6.75,10.75 -22.75,17.5 -80.5,32.75 -65.5,18.25 -19,11.25 -14.25,13.75 -55.75,95.25 -30.5,34 -36.5,28 -23,25.25 -18.5,31.5 -12.75,37.25 -3.25,57.25 -8,80 -5.75,23.5 -14.25,27 -23,23 -25.36,18.35"
     style="fill:none;fill-rule:evenodd;stroke:#f166a7;stroke-width:5;stroke-linecap:butt;stroke-linejoin:round;stroke-miterlimit:4;stroke-dasharray:none;stroke-opacity:1" />
  <path
     id="path4691"
     d="m 3572.75,4832.25 49.25,21.75 36,14.25 45.75,7 48.75,35 20.75,11 42.75,1.75 16.75,8.5 12.25,11.5 31.25,43.5 15.75,17.25 19,12 50.5,23 11.75,1.75 37,-1 25.25,-2 78.5,-0.75 62.5,-3.5 25.75,-1 13.25,3.25 14.25,7.25 30.75,14.75 35.75,9.5 20.25,3 11.5,-1 36.25,-13.75 22,-3.25 13.25,2.5 17.5,7.25 32,24.75 35.25,22.5 10,4 63.25,16 30.5,9.5 26.25,16.25 25,7.75 15,8 20.75,2.75 15.75,9.75 8,10.75 9.25,10 12.75,5 19.25,2.25 10.5,1.25 15.5,9 11.75,12.25 11.25,5.75 10.25,3 11.5,-0.75 10.25,-2.25 12.5,-7.25 21.5,-24 12.75,-8 14,-3 21.25,2 31.75,0.5 9.5,2 10.25,6.75 15,15.5 8.5,4.5 12.5,3 35.75,-3.75 9.5,-5.5 16.5,-7.25 13.5,-1.25 14.75,2.25 10.5,6.75 30.75,27.75 21.5,26 30.5,29.5 16,10 12.25,3 8,0.5 63.25,-7.75 16,1.75 11.5,8.25 9.25,11.5 18.25,34.75 13,11.25 9,8 34.75,19.5 9.5,10.25 9.5,18.75 5.75,9.25 11.25,8.75 11.5,6 20.75,1.5"
     style="fill:none;fill-rule:evenodd;stroke:#00aaad;stroke-width:5;stroke-linecap:butt;stroke-linejoin:round;stroke-miterlimit:4;stroke-dasharray:none;stroke-opacity:1" />
  <path
     id="path4693"
     d="m 5173.75,5305.75 5.25,14.25 0.75,15 -0.75,20 -3.25,26 -6.5,20 -1,13.25 2.75,9.5 7.75,14.5 10.25,7.5 33,21.75 8.5,13.5 2.75,15 v 13 l -3.75,11.25 -1.75,12.5 3.25,10.75 6.5,13.25 8.75,6.75 12.75,7 39,16 7.5,0.5 21.25,-2"
     style="fill:none;fill-rule:evenodd;stroke:#00aaad;stroke-width:5;stroke-linecap:butt;stroke-linejoin:round;stroke-miterlimit:4;stroke-dasharray:none;stroke-opacity:1" />
  <path
     id="path4732"
     d="m 3827.57,4239.66 67.88,-62.93 11.67,-2.12 13.44,5.3 6.01,7.78 v 8.49 l -0.35,19.45 3.54,8.84 7.42,9.55 24.04,17.32 18.74,5.3 20.86,-0.71 46.67,7.42 16.97,8.49 7.07,12.37 22.63,43.49 8.84,8.49 8.84,8.49 24.4,10.25 22.63,16.97 10.96,11.31 10.25,12.37 24.75,13.79 9.9,12.73 20.51,7.42 19.09,16.26 16.97,7.42 58.69,18.38 h 17.32 l 24.4,-3.54 17.68,-10.25 16.97,-1.41 12.02,1.06 18.38,8.13 19.45,9.55 12.37,4.24 15.91,-0.71 15.91,-4.6 9.19,-4.6 12.02,-12.73 55.51,-53.74 16.62,-7.07 28.28,-6.01 15.2,-8.84 13.08,-14.5 8.49,-5.66 14.85,-3.54 15.56,-7.07 17.32,-20.86 20.51,-12.73 10.25,-10.25 7.78,-19.45 11.31,-9.55 7.78,-5.3 43.49,-10.25 19.8,3.18 h 11.67"
     style="fill:none;fill-rule:evenodd;stroke:#b56631;stroke-width:5;stroke-linecap:butt;stroke-linejoin:round;stroke-miterlimit:4;stroke-dasharray:none;stroke-opacity:1" />
  <text
     x="64.45"
     y="7872.96"
     id="text3765"
     xml:space="preserve"
     style="font-style:normal;font-weight:normal;font-size:144px;line-height:125%;font-family:Sans;-inkscape-font-specification:Sans;letter-spacing:0px;word-spacing:0px;fill:#000000;fill-opacity:1;stroke:none"><tspan
       x="64.45"
       y="7872.96"
       id="tspan2"></tspan></text>
  <text
     x="64.45"
     y="181.96"
     id="text3769"
     xml:space="preserve"
     style="font-style:normal;font-weight:normal;font-size:144px;line-height:125%;font-family:Sans;-inkscape-font-specification:Sans;letter-spacing:0px;word-spacing:0px;fill:#000000;fill-opacity:1;stroke:none"><tspan
       x="64.45"
       y="181.96"
       id="tspan1">1980</tspan></text>

  <path
     id="path6975"
     d="m 3828.94,4238.79 -3.78,2.18 -12.29,6.66"
     style="fill:none;fill-rule:evenodd;stroke:#b56631;stroke-width:1px;stroke-linecap:butt;stroke-linejoin:round;stroke-opacity:1" />
</svg>
