<svg xmlns="http://www.w3.org/2000/svg" viewBox="-500, -950, 7200, 8700" height="8700" width="7200"><path d="M4890.5 6973.3l7.25 1.95 54 15.75 21.52 13.19 14.98 8.31 12 2.75 19.5-.5 15-3.5 16.676-12.326 11.156-12.489 23.094-58.122 7.968-32.705L5098 6801l-1-24-1.781-43.035-5.74-102.807-8.625-94.603-4.854-21.055-23-119.5-14-81.5-7-27-11.81-11.302L4906 6180l-73.106-58.059-18.048-14.838-17.846-1.04-25.285 9.773-49.488 18.891L4699 6138.5l-63-19-63-34.5-25.5-18-27-27.5-39.5-34.5-34.5-44-25.5-46-1-12 5.5-25.5 10.5-19 35.5-47 25.5-27 9.5-13.5 3.5-22.5 3-37.5.5-32-1-27-5.5-12-20-18-27-13.5-19-2.5-32 1-16.5-3.5-30-14-16.5-15-34.5-15.5" fill="none" stroke="#ee2722" stroke-width="5" stroke-linejoin="round"/><path d="M5953 6696.5l14.802-17.119 13.2-16.467 3.243-16.301-3.746-22.613-19.5-28-28-40-5.5-4.5-56.5-41-25-12.5-52-22-16-9.5-15.5-7.5-27-10-17.5-9-12-11-12-24-5-25 2.5-36-9.5-84-8.5-27.5-14-27-14.5-23.5-18.5-21.5-25-22-84.5-57.5-42.5-23-21-3.5-61.5 1.5-16 3.5-12.5 10.5-15.5 20-18 11-17.5 8-67.601 20.163-21.936 1.261-36.096-1.545-71.45-.41-22.143.341-18.248 4.469-13.71 11.721-9.72 14.075-2.596 14.925-3.268 53.958L5038 6260.5l-1.413 24.397 7.62 30.896 12.147 73.268 18.207 93.207 3.19 17.197" fill="none" stroke="#33b652" stroke-width="5" stroke-linejoin="round"/><path d="M5229.912 6662.973l.587-25.473.5-22.5-1.5-24-7-15-21.5-20.5-33.5-35-19-22-10.5-18-34.5-97-2.5-23.5 2.5-21 13.5-28 38-82.5 6-24 1-29.5-2.5-16-13.5-37-21-36.5-5-19.5-56-305v-23l4-21.5 12.5-25.5 31.5-59 14-14 99-79.5 19-17.5 36.5-48 31-48.5 16-24.5 97-103.5 45-70.5 47-73 23.5-36.5 9-9 35-22 31-21 21.5-15.5 12.5-19.5 1.5-13-4-20.5-13-27.5-.5-22 7-17.5 22.5-18.5 12.5-17 4.5-17.5v-19l-3-21.5-9-18.5-14.5-18-14.5-12.5L5517 4700l-12.5-17-8.5-22-5-25-9-17-15-17-20.5-11-101.329-11.871L5328 4573l-24.5-12.5-34-20.5-72-44-15-5.5-20.5-8.5-39.5-9.5-20.5-.5-62-2.5-14-5-10-5-12.5-9-10.5-9-71.5-88.5-12.5-8-16-9-49-20.5-13-8.5-13-13.5-14-16.5-8-20.5-4.5-23.5.5-16.5 5.5-34 18-67 10-36.5 14.5-81 11-61 1-26.5-5-23.5-9-24-13-20.5-20.5-20-15.5-10.5-16-6-20-6.5-68-10.5-17.5-9-23-16-88.5-80.5-107.5-99.5-105-97-28-31.5-11.5-25.5-7-28 2.5-28.5 2.5-50-2-27.5-11.5-30.5-19-38-12.5-30.5-3.5-25.5" fill="none" stroke="#6ac2ee" stroke-width="5" stroke-linejoin="round"/><path d="M4783.728 7136.734l22.627 5.657 24.042 1.414 6.364-2.121 9.9-10.607 33.233-53.033 10.607-14.142 7.07-8.485 11.315-16.97" fill="none" stroke="#9f5443" stroke-width="5" stroke-linejoin="round"/><path d="M5608.52 6877.436l16.574-1.465 7.405-.97 55-29.5 183-100.5 82.5-48.5" fill="none" stroke="#33b652" stroke-width="5" stroke-linejoin="round"/><path d="M6008.5 7258.5l26.5-55 19.5-43.5 17-36 3.5-12-1.5-26.5-6.5-15-42.313-53.672-14.894-8.125-13.281-2.566-20.662 3.064-40.54 11.453-31.81-1.654-45.5-17.5-15-3.5-19.5-6.5-12.926-9.558-14.075-16.442-16.5-23.5-8-4.5-19-3-40.5-1-36.5-1.5-11.5-2-8.5-3.5-17-14.5-16.5-24-14-28.5-10.5-14-14-8.5-49-12.5-34 6.5-72 14.5-5.5 3.5-28 31-5 19-2 37-12.5 32-29.038 18.613L5304 6988.5l-34.5 10-13 .5-52.5 22-33.5 10-16.5 4.5-26.5 3.5-40.5 3-36-4.5-63.5-20-18-10-46.5-13-21-8-13-13-36-47-23-16-9-4.5-26.5-7-9.616-2.198" fill="none" stroke="#2d7bc8" stroke-width="5" stroke-linejoin="round"/><text style="-inkscape-font-specification:Sans" y="-743.03912" x="-410.54691" font-weight="400" font-size="144px" font-family="Sans"><tspan y="-743.03912" x="-410.54691">1990</tspan></text><text style="-inkscape-font-specification:Sans" y="7647.9609" x="-410.54691" font-weight="400" font-size="144px" font-family="Sans"/><path d="M3150.777 4458.55l-19.557-3.872-11.314 2.829-17.678 14.849-152.735-.707-48.729 8.883-27.86.191-31.356 7.136-36.776 15.415-48.395 30.965-49.421 32.869-54.109 38.656-42.765 35.59-35.596 24.527-44.71 39.9-33.15 36.737-48.471 57.935-29.334 31.867" fill="none" stroke="#dab006" stroke-linejoin="round"/><path d="M2418.821 4832.32l-13.697 14.324-29.984 46.34-24.694 44.395-3.208 10.37-50.499 168.457-7.73 24.071-20.46 40.6-17.677 62.932 3.753 5.804 12.605 3.239 11.926-.558 5.657-1.414 6.364 13.435v63.64" fill="none" stroke="#dab006" stroke-width="5" stroke-linejoin="round"/><path d="M2172.915 5576.375l-62.91-15.765-26.334-31.177-2.812-8.289 5.964-8.634 14.142-19.8 11.314-21.212 9.87-17.66 2.215-19.464 21.856-43.487 21.92-57.982 15.238-43.888-1.263-58.708" fill="none" stroke="#dab006" stroke-linejoin="round"/><path d="M2184.748 5233.476l13.09-.273 55.155 12.02" fill="none" stroke="#dab006" stroke-width="5" stroke-linejoin="round"/><path d="M2184.748 5233.476l-2.633-3.167-1.887-33.169.587-33.234 4.149-14.213 2.817-24.942-8.81-22.825-16.228-14.635-22.18-8.945-14.85-7.778-4.242-10.607 10.607-14.142 12.02-9.192 14.85-.707 44.548 16.263 9.9 3.536 22.627-6.364 34.648-9.9 23.334-13.435 11.314-17.677 4.46-9.072-.24-27.892 3.77-4.67 20.668 5.23 2.778 6.941M2291.177 5327.955l-3.827 4.189-23.195.277-4.158 3.742-.157 23.146 3.724 2.95h23.63l3.644-3.857.339-30.447" fill="none" stroke="#dab006" stroke-linejoin="round"/><path d="M2305.319 5008.343l4.035-.78 13.906 5.475 5.594-3.069M2162.743 5087.291l20.342 3.272 14.762-2.355 11.01-5.62 5.519-.04 27.303 33.275 19.907.751" fill="none" stroke="#dab006" stroke-linejoin="round"/><path d="M2261.586 5116.574l17.57.663 14.85 4.95" fill="none" stroke="#dab006" stroke-width="5" stroke-linejoin="round"/><path d="M2180.815 5163.906l-6.83 2.073-3.016 7.827 1.997 9.499-9.363 25.538 1.585 9.781 16.141.298" fill="none" stroke="#dab006" stroke-linejoin="round"/></svg>