<svg xmlns="http://www.w3.org/2000/svg" width="6600" height="7300"><path d="M4902 6943.5l-16.5-9.25-12.25-10.25-10.5-17-16.851-34.974-7.826-26.333-3.025-44.167 16.452-44.776 18.91-27.04 17.618-22.992 28.823-43.376 9.399-19.842 21.25-49.75 6.5-19.75-1-19.5-.25-28.25-2.5-23.5-8-21-15.25-39.5-21.5-48.75-19-31-21.914-27.89L4832 6297l-35.5-29-52.75-27.5-140.75-60.75-28.5-17.5-24.5-19-16.25-19-13-26.25-31-54-11.25-18.25-15.25-23.5-18.5-26.75-14.25-22.5-15-28.25-6.75-10.25-8.329-11.124L4328 5862.5l-50.5-26.25-49.5-16.75-37-15.25-30.5-7-47.75-7.5-32.25-.5-24 2-21.25 5.25-120 42-75 25-40.25 9.5-121.25 36-61 23-85 26.5-44.25 19.25-32.25 23.5-61 44-22 12.5-23.75 6-45.5 3.5-37.5 11.75-46.5 16-26.25 15-38.5 25-35.75 19.25-35.033 29.463-51.254 47.304-31.963 39.733-13.75 11-47.25 22.75-41 2.5-42.75-2.25-34.25 3.75-49 17-35.5 14.75-99.75 58-18.25 18-14 30.5-20.75 26.75-27 27.25-65.5 46.25-152.5 90.25-98.5 58-31.5 12-96.5 24.25-34.25 5-12 6.75L2026 6764l-38.5 26.5-11.25 14.25-15.5 17-25.25 16.5-22 10.25-22.5 6.5-32.912-4.526-41.31-14.729-28.402-25.334-39.414-54.578-12.813-56.547 1.027-40.492 25.803-72.718 5.183-37.596-3.034-36.769-32.284-101.081 4.542-17.748 14.095-17.142 19.019-7.24 64-17.5" fill="none" stroke="#028685" stroke-width="5" stroke-linejoin="round"/><path d="M3150.777 4458.55l-19.557-3.872-11.314 2.828-17.678 14.85-152.735-.708-48.729 8.884-27.86.19-31.356 7.137-36.776 15.415-48.395 30.965-49.421 32.869-54.109 38.656-42.765 35.59-35.596 24.526-44.71 39.9-33.15 36.738-48.471 57.935-29.334 31.867" fill="none" stroke="#dab006" stroke-linejoin="round"/><path d="M2418.822 4832.32l-13.698 14.324-29.984 46.34-24.694 44.395-3.207 10.37-50.5 168.457-7.73 24.07-20.46 40.6-17.677 62.933 3.753 5.804 12.605 3.239 11.926-.558 31.82-10.606 16.263-7.779 3.536-8.485-5.628-31.083 3.996-27.642" fill="none" stroke="#dab006" stroke-width="5" stroke-linejoin="round"/><path d="M2329.143 5166.699l9.216-25.857 13.032-25.729" fill="none" stroke="#dab006" stroke-linejoin="round"/><path d="M2351.39 5115.114l4.794-12.22.294-11.402-12.964-21.984-.158-12.675 2.61-17.614-18.02-16.734-2.12-7.779" fill="none" stroke="#dab006" stroke-width="5" stroke-linejoin="round"/><path d="M2631.537 4120.417l-13.43 27.158-7.241 27.43-5.027 23.524-4.46 12.946 1.658 17.21 10.287 20.951 5.722.535 52.972-26.828 4.803 1.502 11.75 21.943 20.506 19.8 15.433 12.65 5.71 7.85 2.051 10.855-8.345 23.799 4.243 18.384 17.094 32.551-.585 8.498-11.37 7.522-25.17 26.875-.362 14.62 16.686 31.015 5.22 16.536-5.592 13.965-2.609 14.181-14.596 40.453.07 20.766" fill="none" stroke="#dab006" stroke-linejoin="round"/><path d="M5225.5 6646l-1.5 28.5-3 19-5.5 13-29.5 22.5-39.5 32.5-19 9-12 3-19 1-26 .5-12-2.5-4.5-6-8.5-47-12-37-9-26.5-32.793-87.121L4955 6489l-16-42-8.5-19.5-17.5-41-19.5-31-26.5-33.5-33-36.5-34-26.5-57.5-29.5-89-38.5-36.5-17-14.5-9-10.5-13.5-3.5-12.5-3-21-5.5-43.5-5-20-15.5-31.5-13.5-27-21.5-34.5-17.5-36-27.5-42.5-11-15-26-26.5-23.5-27-30.5-20-37-18.5-20-15.5-41.5-42.5-26.5-25-37.5-30.5-16-17-26.5-26-64.798-80.152-87.247-109.633-68.101-93.069L3841 5177l-44.734-55.28-44.734-55.316-81.101-118.72-16.431-34.849-18-41.835-22-93-17-79-12-26-22-36-36-42-39-60-26-51-16-13-22-13-85.43-22.72-104.077 10.94-91.493.78-33-2-47-19-77-1-36-4-53-17-66-26-38-9-29 3-29 19-40 43-29 31-19 10-67 36-31 29-31 48-140 310-23 41-38 126-23 76-14 29-18 71" fill="none" stroke="#ab118e" stroke-width="5" stroke-linejoin="round"/><path d="M4890.5 6973.3l7.25 1.95 54 15.75 21.521 13.19 14.979 8.31 12 2.75 19.5-.5 15-3.5 16.677-12.326 11.155-12.49 23.095-58.121 7.968-32.705L5098 6801l-1-24-1.782-43.035-5.738-102.807-8.626-94.603L5076 6515.5l-23-119.5-14-81.5-7-27-7-10-119-97.5-68-61.5-22-8-19-1-25.5 10.5-48 18.5H4699l-63-19-63-34.5-25.5-18-27-27.5-39.5-34.5-34.5-44-25.5-46-1-12 5.5-25.5 10.5-19 35.5-47 25.5-27 9.5-13.5 3.5-22.5 3-37.5.5-32-1-27-5.5-12-20-18-27-13.5-19-2.5-32 1-16.5-3.5-30-14-16.5-15-34.5-15.5" fill="none" stroke="#ee2722" stroke-width="5" stroke-linejoin="round"/><path d="M6247 6620l-8.5 7-17 17-21.5 33-17 24.5-44.5 39.5-18 12.5-37.5 13-16 4-14-2.5-8.5-5-6-9-17-24-10.5-15.5-12-21-3-23.5-5.5-20-10-26-19.5-28-28-40-5.5-4.5-56.5-41-25-12.5-52-22-16-9.5-15.5-7.5-27-10-17.5-9-12-11-12-24-5-25 2.5-36-9.5-84-8.5-27.5-14-27-14.5-23.5-18.5-21.5-25-22-84.5-57.5-42.5-23-21-3.5-61.5 1.5-16 3.5-12.5 10.5-15.5 20-18 11-17.5 8-74.5 23-16 3-26-1-68-1.5-27.5-2-19.5 5.5-16 9-9.5 12-6.5 17-5.5 47-5.5 39.5.5 23 5.707 32.293 12.146 73.268 18.208 93.207 3.189 17.197" fill="none" stroke="#33b652" stroke-width="5" stroke-linejoin="round"/><path d="M6378.961 6565.392l16.264-14.142 7.07-12.021 13.436-29.699 1.414-18.385-2.121-22.627-8.485-12.02-19.8-21.214-32.526-24.749-12.728-15.556-12.728-17.678-26.163-43.133" fill="none" stroke="#915fb6" stroke-width="5" stroke-linejoin="round"/><path d="M5229.913 6662.972l.587-25.472.5-22.5-1.5-24-7-15-21.5-20.5-33.5-35-19-22-10.5-18-34.5-97-2.5-23.5 2.5-21 13.5-28 38-82.5 6-24 1-29.5-2.5-16-13.5-37-21-36.5-5-19.5-56-305v-23l4-21.5 12.5-25.5 31.5-59 14-14 99-79.5 19-17.5 36.5-48 31-48.5 16-24.5 97-103.5 45-70.5 47-73 23.5-36.5 9-9 35-22 31-21 21.5-15.5 12.5-19.5 1.5-13-4-20.5-13-27.5-.5-22 7-17.5 22.5-18.5 12.5-17 4.5-17.5v-19l-3-21.5-9-18.5-14.5-18-14.5-12.5L5517 4700l-12.5-17-8.5-22-5-25-9-17-15-17-20.5-11-101.329-11.871L5328 4573l-24.5-12.5-34-20.5-72-44-15-5.5-20.5-8.5-39.5-9.5-20.5-.5-62-2.5-14-5-10-5-12.5-9-10.5-9-71.5-88.5-12.5-8-16-9-49-20.5-13-8.5-13-13.5-14-16.5-8-20.5-4.5-23.5.5-16.5 5.5-34 18-67 10-36.5 14.5-81 11-61 1-26.5-5-23.5-9-24-13-20.5-20.5-20-15.5-10.5-16-6-20-6.5-68-10.5-17.5-9-23-16-88.5-80.5-107.5-99.5-105-97-28-31.5-11.5-25.5-7-28 2.5-28.5 2.5-50-2-27.5-11.5-30.5-19-38-12.5-30.5-3.5-25.5" fill="none" stroke="#6ac2ee" stroke-width="5" stroke-linejoin="round"/><path d="M4395 3534l-35.5-23-25.5-7.5-37-5-265.5 3.5-17 5.5-193.5 46-20.5.5-15-1.5-13-6-18.5-17.5-17.5-27.5-12.5-30-4.5-16.5-4-33.5-11.5-17-13.5-6.5-22-3.5-22.5-1h-50l-22 1.1" fill="none" stroke="#6ac2ee" stroke-width="5" stroke-linejoin="round"/><path d="M4904.5 6939l-16.5-9-11.5-10-8.816-14.108-16.76-34.316-7.76-26.9-3.366-40.758 16.519-45 14.651-21.4 21.152-28.05 29.64-44.968 9.24-20 21.5-49.5 6-23-.5-20-.5-27.5-3-24.5-9.5-23.5-14.5-38-20.5-48-20-31-22.414-29.39L4835.5 6293l-36-29-52.5-27-143-63-27-16.5-25-19-15-18.5-12-23.5-32.5-58-11.5-18-15-22.5-18.5-27.5-14.5-23-14.5-27.5-7.5-11-7.579-9.874L4328 5857l-49.5-25.5-50.5-18-37-14.5-30.5-7-49-7.5-32-.5-25 2.5-21.5 5.5-121 42.5-77 25.5-38 8.5-118.5 36-63 22.5-86 27-45 20-32 23.5-61 45-21.5 11-23.5 5.5-44.5 3.5-39.5 12.5-45 15.5-32 19-35.5 22.5-33.5 18.5-37.5 31.5-49 46.5-35 42-12.5 8.5-44 21-44 3.5-38-4-36 4-49.5 17.5-34.5 14.5-101.5 59-19.5 19.5-13.5 29-21 27.5-28 27.5-65 46-150.5 88.5L2237 6692l-29 11-98.5 24.5-31.5 5-12 6-42.5 21.5-40 27.5-13.5 17-13.5 14-26 17-19.5 9-20 10.5-53.5 9.5-29.5-1.5" fill="none" stroke="#f68b11" stroke-width="5" stroke-linejoin="round"/><path d="M5171.43 5588.377l16.47-13.642 46.255-12.728 28.992-14.85 19.799-1.413 57.982 3.535 47.377-14.85 76.367-59.396 18.385-12.02 36.77-18.386 101.823-112.43 9.192-14.849v-16.263l-4.242-19.8-2.829-24.041 12.021-47.376 21.92-37.477 16.264-18.384 33.234-32.527 42.426-25.456 19.092-13.435 14.85-11.314 26.87-38.184 19.091-38.184 9.193-53.74 43.84-130.814 12.728-15.557 17.678-5.657 62.225-23.334 29.699-3.536 33.94-7.07 23.335-16.971 25.456-21.213 12.021-3.536 31.82-4.243" fill="none" stroke="#a73e10" stroke-width="5" stroke-linejoin="round"/><path d="M2289.812 5410.874l-3.822 4.605-52.089-1.964-6.364 2.121-4.242 45.255-9.193 10.606-24.748 16.264-10.28 7.581-8.43 23.955.15 8.702 4.418 12.795 16.263 31.113 3.665 9.48-6.052 6.965-28.476-7.876" fill="none" stroke="#dab006" stroke-linejoin="round"/><path d="M2172.915 5576.375l-62.91-15.765-26.334-31.177-2.812-8.289 5.964-8.634 14.142-19.8 11.314-21.213 9.87-17.66 2.215-19.463 21.856-43.487 21.92-57.982 15.239-43.888-1.264-58.708" fill="none" stroke="#dab006" stroke-linejoin="round"/><path d="M2184.749 5233.475l13.09-.273 55.154 12.021M2284.813 5250.88l6.364 13.435v63.64" fill="none" stroke="#dab006" stroke-width="5" stroke-linejoin="round"/><path d="M2291.177 5327.955l-.743 66.687-.622 16.232-.407 12.59 5.318 5.877 5.978 1.489 17.288-8.852M2184.749 5233.475l-2.634-3.166-1.887-33.169.587-33.234 4.149-14.214 2.817-24.941-8.809-22.826-16.229-14.634-22.18-8.945-14.849-7.778-4.243-10.607 10.607-14.142 12.02-9.192 14.85-.707 44.548 16.263 9.9 3.536 22.627-6.364 34.648-9.9 23.334-13.435 11.314-17.678 4.46-9.071-.24-27.893 3.77-4.67 20.669 5.23 2.777 6.942" fill="none" stroke="#dab006" stroke-linejoin="round"/><path d="M2291.177 5327.955l-3.827 4.189-23.195.277-4.158 3.742-.156 23.146 3.723 2.95h23.63l4.207-4.105M2305.32 5008.342l4.034-.778 13.906 5.474 5.594-3.069M2162.743 5087.291l20.342 3.272 14.762-2.355 11.011-5.62 5.518-.04 27.303 33.275 19.907.75" fill="none" stroke="#dab006" stroke-linejoin="round"/><path d="M2261.586 5116.574l17.57.663 14.85 4.95" fill="none" stroke="#dab006" stroke-width="5" stroke-linejoin="round"/><path d="M2180.815 5163.906l-6.83 2.073-3.016 7.826 1.997 9.5-9.363 25.538 1.585 9.781 16.142.298" fill="none" stroke="#dab006" stroke-linejoin="round"/><path d="M4783.728 7136.734l22.628 5.657 24.041 1.414 6.364-2.121 9.9-10.607 33.234-53.033 10.606-14.142 7.072-8.485 11.313-16.971" fill="none" stroke="#9f5443" stroke-width="5" stroke-linejoin="round"/><text x="89.453125" y="7197.9609" style="-inkscape-font-specification:Sans" font-weight="400" font-size="144px" font-family="Sans"/><text x="89.453125" y="206.96094" style="-inkscape-font-specification:Sans" font-weight="400" font-size="144px" font-family="Sans"><tspan x="89.453125" y="206.96094">2010</tspan></text><path d="M6534 45.5L6477 76l-100.5 67.5-130 74-25 9.5-42.5 13-28 11-175.5 174-21 31.5-52.5 94-61 94.5-12.5 24-6.5 46.5-13.5 100.5-16 47.5-69 121.5-15.5 73-34.5 77.5-18 31-41 40-32 42-22 31-112 96-25 11-43.5 13-50.5 26L5203 1489l-25 11-31.5 7-102.5 17.5-74.5 27-51.5 34.5-44 49-30 49.5-17 17-30 14-101.5 16.5-51 1.5-29 6-24.5 16.5-32.5 43-64.5 81-81 61.5-84.5 44-22 19.5-27.5 42-31 36-39.5 83.5-10 37 1.5 27.5 34.5 54" fill="none" stroke="#00a6df" stroke-width="5" stroke-linejoin="round"/><path d="M3561.365 3339.116l-39.998-35.165-12.317-16.217-15.483-62.267-22.067-89.967-5.625-7.41-11.624-15.65-6.968-11.623-5.816-18.7-1.062-156.266-5.112-99.215" fill="none" stroke="#da0b17" stroke-width="5" stroke-linejoin="round"/><path d="M4256.5 3113l-1.518-20.71L4265.5 3066l-3.5-38-2-51.5 1.5-61.5-6.5-10-21.5-4-25.5-9.5-55.5 17.5-33.5 17-19 15-36 9-388.5 9.5-15.507 7.924-14.607 21.57-9.387 13.12L3599 3021l-31.952 17.733L3543 3041l-285 4.5-21-6-18-13.5-33.5-26.5-22-18-14.5-3-19 2.5-173 35-388.5 70.5-35-6.5-68.5-21h-125l-91-34-159-67-22-7-264.406 9.463L1780 2979l-10.508 13.273" fill="none" stroke="#13ae58" stroke-width="5" stroke-linejoin="round"/><path d="M1108 3887l107.5 80.5 25.493 9.299 14.586 2.245L1274 3968l60-49 12-72 16-31 18.5-42 21-14.5 48.652-10.052 66.486 8.623 82.596 29.195L1650.5 3789l33-6 20.5-9.5 8-10 3-20-21.591-110.986-3.91-61.514-1-152 69-230.5 10.5-17.5 15-10 15-3 125-3 27 5 48 10 37 16 136.535-1.033 12.605-10.987 5.325-16.485 2.944-89.892L2205.1 3029l9.9-28" fill="none" stroke="#b34e20" stroke-width="5" stroke-linejoin="round"/><path d="M5491 6838l20-5 24 8 19.5 17.5 19.5 13 17.749 3.577 19.502.846L5624 6878l8.5-3 55-29.5 183-100.5 82.5-48.5 16-7 15 1 11 6 8 14.5 34 49.75 3.5 5.25 9 5.5 16.5 4 18.106-4.233 39.248-13.12 20.364-15.011 41.496-36.677 39.952-59.75 17.324-17.324 18.385-13.789 53.033-22.98 91.216-36.417 14.142-7.07 28.992-4.95 25.456 2.828 23.334 20.506 41.72 48.79 6.363 22.628 2.829 25.456-2.829 21.92-9.192 18.385-6.364 12.728-16.263 14.142-57.983 44.547" fill="none" stroke="#915fb6" stroke-width="5" stroke-linejoin="round"/><path d="M3072.25 6201l9.5-8.75 5.75-4.75 14 .5 16.5 7.5 12 9.5 7 15 2.5 13 .5 27-6 36.5.5 21.5 4.5 20 18.5 56 8.5 16 13 8 30.5 9.5 42 9.5 33.5 4.5 25.5 3 11-1.5" fill="none" stroke="#de6dbd" stroke-width="5" stroke-linejoin="round"/><path d="M6008.5 7258.5l26.5-55 19.5-43.5 17-36 3.5-12-1.5-26.5-6.5-15-48.5-59.5-3-3.5-6.5-2.5-19.5 8.5-14.5 6.5-71.5-1-45.5-17.5-15-3.5-19.5-6.5-12.926-9.558-14.074-16.442-16.5-23.5-8-4.5-19-3-40.5-1-36.5-1.5-11.5-2-8.5-3.5-17-14.5-16.5-24-14-28.5-10.5-14-14-8.5-49-12.5-34 6.5-72 14.5-5.5 3.5-28 31-5 19-2 37-12.5 32-17 6-55 14.5-34.5 10-13 .5-52.5 22-33.5 10-16.5 4.5-26.5 3.5-40.5 3-36-4.5-63.5-20-18-10-46.5-13-21-8-13-13-36-47-23-16-9-4.5-26.5-7" fill="none" stroke="#2d7bc8" stroke-width="5" stroke-linejoin="round"/><path d="M2291.5 2980l11.5 7.5 23-1.5 19 21 1.5 13 12 1 1 12.5 7 2 16.5 18 6.5.5 16 20.5v45l-15.5 15-33.5 1.5-8.5-7.5-13.5 1-6.5-4.5-2-8.5 7-4 1.5-11.5-5-5-9-3-9-17-15-12.5-4.5-15-7-5-40.5-14.5-5-9.5 8-23 44-16.5z" fill="none" stroke="#dd127b" stroke-width="5" stroke-linejoin="round"/></svg>