<?xml version="1.0" encoding="UTF-8" standalone="no"?>
<svg
   version="1.1"
   width="7200"
   height="8700"
   viewBox="-500, -950, 7200, 8700"
   id="svg2"
   xmlns:xlink="http://www.w3.org/1999/xlink"
   xmlns="http://www.w3.org/2000/svg"
   xmlns:svg="http://www.w3.org/2000/svg"
   xmlns:rdf="http://www.w3.org/1999/02/22-rdf-syntax-ns#"
   xmlns:cc="http://creativecommons.org/ns#"
   xmlns:dc="http://purl.org/dc/elements/1.1/">
  <metadata
     id="metadata37">
    <rdf:RDF>
      <cc:Work
         rdf:about="">
        <dc:format>image/svg+xml</dc:format>
        <dc:type
           rdf:resource="http://purl.org/dc/dcmitype/StillImage" />
      </cc:Work>
    </rdf:RDF>
  </metadata>
  <defs
     id="defs6" />
  <image
     xlink:href="../basemap/hkgosm.png"
     style="display:none"
     id="image12"
     height="8748.44"
     width="6873.78"
     y="-948.44"
     x="-562.22" />
  <path
     id="path901"
     d="m 3534.53,3342.96 17.51,-17.02 6.42,-25.36 -12.54,-64.03 -10.63,-543.78 -2.82,-130.48 -32.12,-151.98 -47.26,-226.56 -16.32,-321.14 -0.46,-229.11 -1.84,-94.68 6.65,-18.78 53.42,-35.21 24.27,-4.39 7.39,-5.62 1.88,-8.29 -0.38,-8.67 -9.79,-30.47 -3.33,-116.14 11.43,-44.55 22.74,-51.6 60.56,-74.69 18.16,-7.76 21.61,0.72 116.47,74.1 22.99,6.41 250.31,67.19 58.89,31.72 41.32,11.96 59.33,3.36 67.9,-5.63 50.71,-6.14 30.16,-13.52 20.64,-33.81 11.96,-61.37 4.4,-71.46 -7.05,-19.24 -37.28,-29.02 -15.43,-25.46 -9.86,-30.57 -3.02,-189.19 -22.27,-182.41 2.62,-20.12 10.51,-17.41 16.18,-8.02 26.97,-8.14 124.49,-91.98"
     style="fill:none;stroke:#f8779e;stroke-width:5;stroke-linejoin:round;stroke-opacity:1" />
  <path
     id="path899"
     d="m 3942.87,2977.41 -2.95,-242.75 -5.02,-25.27 -72.41,-154.93 -23.42,-22.02 -48.35,-28.36 -133.52,-14.01 -58.88,-24.76 -37.64,-28.47 -72.78,-19.79 -29.22,-18.54 -24.23,-51.45 -74.18,-183.89 -43.12,-73.65 -14.26,-13.14 -20.0,-1.79 -52.7,24.76 -17.73,3.03 -27.72,-10.84 -15.13,-14.33 -109.49,-118.93 -15.96,-34.27 -11.94,-25.52 -27.57,-27.54 -29.69,-34.12 -17.46,-38.76 -9.74,-41.73 -139.01,-217.02 -2.17,-10.34 2.58,-20.01 18.18,-38.94 -0.53,-20.13 -10.11,-25.88 -186.75,-282.22 -39.62,-44.65 -61.62,-57.28 -39.57,-29.5 -102.68,-66.39 -30.19,-8.49 -131.04,-9.28 -38.33,-7.44 -81.58,-34.88 -33.11,-19.29 -24.9,-20.95 -52.18,-31.76 -64.28,-47.84 -30.98,-11.62 -37.61,-3.88 -57.84,-1.53 -15.23,-4.36 -17.22,-11.77 -9.04,-13.1 -11.61,-24.81 -15.14,-13.77 -89.71,-50.71 -12.5,-13.94 -8.05,-17.57 -2.56,-18.02 -2.05,-231.78 -5.11,-100.74 -31.78,-216.66 -7.68,-27.57 -33.91,-66.45 -4.54,-17.48 0.02,-13.13 3.82,-15.43 7.69,-15.05 230.24,-367.31 13.43,-22.72 4.19,-20.36 -4.07,-114.91 -4.8,-18.01 -10.63,-17.57 -15.73,-12.65 -23.3,-7.74 -136.07,5.71 -129.47,23.9 -37.7,3.98 -32.43,-1.75 -31.1,-9.14 -47.14,-17.79 -61.7,-4.4 -80.55,-16.9 -53.55,3.86 -49.36,22.44 -15.87,1.62 -12.47,-2.53 -234.83,-97.78 -20.02,-0.33 -28.7,10.46 -128.68,51.69 -24.17,3.8 -59.87,-8.59 -47.57,-0.51 -34.05,10.46 -331.5,111.5"
     style="fill:none;stroke:#3abca8;stroke-width:5;stroke-linejoin:round;stroke-opacity:1" />
  <path
     id="path5032"
     d="m 3343.69,2965.17 -128.67,6.25 -84.53,14.41 -173.41,35.13 -154.57,27.79 -27.55,14.02 -52.68,32.14 -23.2,13.53 -15.47,5.32 -143.06,27.55 -149.1,31.9 -34.56,14.5 -41.32,25.62 -22.07,7.48 -114.09,2.4 -78.48,-11.36 -34.74,-0.45 -18.37,5.07 -17.16,10.87 -16.34,16.7 -63.57,67.67 -15.72,6.49 -21.53,6.15 -16.4,2.73 -23.86,-0.62 -29.38,-7.56 -18.87,-8.24 -27.0,-11.6 -33.49,-9.57 -34.86,-7.52 -63.91,-7.86 -15.04,-7.86 -19.14,-11.62 -10.25,-13.33 -14.7,-10.25 -95.35,-21.87 -25.29,-8.2 -21.19,-3.42 -17.77,1.37 -58.78,21.19 -18.45,1.71 -77.24,0.34 -24.61,-2.39 -47.85,-16.75 -49.9,-14.35 -19.82,-13.67 -12.3,-12.99 -7.86,-13.67 -6.15,-44.77 -0.86,-57.11 -1.25,-91.99 -8.83,-30.66 -21.29,-27.31 -28.03,-30.45 -23.2,-21.27 -21.27,-14.98 -40.6,-15.47 -21.75,-4.83 -17.88,-10.15 -69.11,-75.4 -103.91,-111.16 -126.09,-97.34 -217.54,-192.65 -88.45,-59.45 -88.93,-67.66 -19.82,-20.78 -10.63,-18.37 -65.73,-141.61 -8.7,-12.08 -15.47,-11.6 -33.35,-16.43 -11.12,-8.7 -9.18,-12.08 -8.22,-17.88 L 7.73,1821.62 -48.33,1715.77 -193.81,1435.93 l -56.55,-90.38 -14.98,-27.07 -4.83,-20.3 -8.22,-29.97 -41.57,-80.71 -2.42,-20.78 5.8,-17.4 22.72,-32.38 16.43,-16.43 40.12,-19.82 12.57,-15.47 15.47,-33.83 16.43,-51.23 5.8,-37.7 6.77,-114.06 8.7,-38.67 15.47,-40.6 17.4,-28.03 102.95,-173.99 12.57,-32.38 5.32,-24.17 2.42,-29.48 -4.35,-29.48 -6.77,-30.45 -23.68,-50.75 -5.32,-26.58 0.97,-19.82 7.73,-25.62 25.13,-61.86 20.78,-37.7 53.16,-74.43 9.67,-26.58 11.12,-32.38 3.38,-18.37 3.83,-36.43 31.45,-317.84 8.22,-56.06 11.6,-35.28 22.23,-33.35 17.4,-25.62 7.25,-28.03 -0.48,-25.62 -44.74,-152.48 -16.47,-18.94 -77.5,-17.07 -11.6,-8.22 -10.15,-19.82 -4.35,-26.1 -0.97,-26.1"
     style="opacity:1;fill:none;fill-opacity:1;fill-rule:nonzero;stroke:#651438;stroke-width:5;stroke-linecap:butt;stroke-linejoin:round;stroke-miterlimit:4;stroke-dasharray:none;stroke-opacity:1" />
  <path
     id="path4311-3"
     d="m 4445.05,2923.58 -55.1,0.97 -9.18,4.83 -31.93,59.03 -11.28,9.91 -58.78,25.63 -25.97,7.52 -76.89,14.7 -16.4,1.71 -32.13,-16.75 -18.8,-2.73 -17.77,-8.2 -17.09,-11.62 -5.81,-10.59 -5.47,-15.04 -6.84,-425.83 -3.42,-11.62 -7.86,-8.2 -11.62,-5.47 -27.68,-0.68 -87.15,17.43 -22.56,-1.03 -21.19,-8.2 -35.88,-27.34 -20.85,-10.25 -21.19,-4.78 -40.67,-1.37 -30.07,6.15 -49.55,14.35 -24.95,4.1 -40.33,1.37 -270.67,2.73 -25.97,-3.42 h -26.32 l -17.77,2.39 -30.42,10.59 -112.78,48.53 -6.84,7.52 -3.76,11.28 -3.76,55.02 8.54,22.56 45.11,42.38 14.01,18.11 27.0,39.64 4.44,21.87 v 47.85 l -5.47,8.54 -87.15,23.58 -96.38,32.13 -29.39,6.84 -15.04,16.4 -8.54,14.7 -2.05,12.64 14.99,61.94 9.41,46.87 -2.18,23.8 -9.57,11.62 -18.45,9.23 -34.18,11.96 -151.06,33.83 h -22.21 l -78.6,-9.57 -41.69,3.42 -31.44,11.62 -28.9,12.02 -21.13,17.71 -40.19,29.73 -34.18,12.99 -49.55,15.04 -23.92,-1.71 -54.0,-30.07 -17.16,-5.89 -41.22,-2.07 -112.59,2.36 -95.2,-13.41 -33.77,-10.92 -26.81,-24.83 -35.75,-67.2 -28.47,-23.5 -35.09,-11.92 -144.66,3.97 -30.12,11.26 -28.8,20.19 -47.67,46.68 -25.16,53.96 -14.9,10.59 -25.82,12.25 -26.81,16.22 -11.92,13.9 -29.46,83.75 -4.97,39.39 -30.79,87.06 -6.29,4.97 -17.55,4.3 -23.83,-4.3 -35.75,-29.46 -31.22,-45.93 -13.17,-6.09 -43.68,2.31 -38.27,-0.62 -39.99,-12.51 -30.48,-20.29 -133.65,-123.86"
     style="opacity:1;fill:none;fill-opacity:1;fill-rule:nonzero;stroke:#86656d;stroke-width:5;stroke-linecap:butt;stroke-linejoin:round;stroke-miterlimit:4;stroke-dasharray:none;stroke-opacity:1" />
  <path
     id="path865"
     d="m 4523.83,2428.9 -18.61,70.56 -6.28,11.36 -47.36,15.95 -32.14,16.19 -65.01,18.12 -59.93,0.48 -53.16,16.67 -29.97,8.94 -20.54,4.35 -19.82,-0.72 -47.12,29.72 -242.38,5.56 -14.5,5.56 -14.74,11.12 -43.26,71.29 -5.56,18.61 4.11,298.21 -8.22,16.43 -14.74,9.91 -12.57,14.74 -14.98,33.59 -31.17,59.21 -0.24,30.93 -3.14,19.09 -7.73,17.88 -8.46,21.51 -6.77,6.52 -10.63,2.42 -14.02,-3.62 -75.88,-23.92 -26.82,-14.5 -13.53,-1.21 -269.93,3.38 -14.74,6.28 -23.44,44.71 -9.67,5.56 -10.63,1.21 -14.74,-4.11 -177.38,-103.67 -19.22,-22.87 -31.59,-78.18 -10.33,-48.29 -19.57,-82.89 -5.07,-7.25 -6.52,-3.87 -14.26,-2.17 -83.37,17.4 -67.66,24.89 h -17.88 l -17.4,-3.87 -21.02,-9.42 -19.33,-14.98 -11.6,-21.27 -30.93,-79.26 v -9.91 l 1.21,-67.91 -3.62,-12.32 -9.18,-8.46 -15.47,-5.8 -120.83,-22.72 -54.37,-10.87 -127.11,-41.32 -163.12,-103.43 -36.49,-12.32 -92.31,-23.68 -89.41,-2.9 -9.67,-3.87 -9.18,-10.15 -3.14,-13.29 -4.59,-114.3 9.42,-119.14 5.32,-14.5 11.84,-20.3 23.44,-20.06 65.25,-53.41 10.63,-8.22 39.03,-11.1"
     style="opacity:1;fill:none;fill-opacity:1;fill-rule:nonzero;stroke:#003892;stroke-width:5;stroke-linecap:butt;stroke-linejoin:round;stroke-miterlimit:4;stroke-dasharray:none;stroke-opacity:1" />
  <path
     id="path852"
     d="m 4763.05,7575.11 13.33,20.85 11.28,9.23 19.82,5.47 10.94,1.37 18.8,-1.37 12.99,-6.49 13.33,-15.72 20.16,-20.51 8.89,-14.35 21.53,-12.99 18.45,-20.16 16.06,-12.3 18.8,-4.78 37.25,-1.03 68.01,-14.35 36.57,2.73 14.7,-5.47 20.51,-14.01 12.64,-15.04 5.47,-14.35 -0.34,-16.4 -8.2,-16.4 -187.28,-306.21 -1.71,-22.56 7.52,-15.72 44.51,-51.14"
     style="opacity:1;fill:none;fill-opacity:1;fill-rule:nonzero;stroke:#ccce08;stroke-width:5;stroke-linecap:butt;stroke-linejoin:round;stroke-miterlimit:4;stroke-dasharray:none;stroke-opacity:1" />
  <path
     d="m 4902.0,6943.5 -16.5,-9.25 -12.25,-10.25 -10.5,-17 -16.85,-34.97 -7.83,-26.33 -2.9,-41.66 16.18,-46.37 19.05,-27.95 17.62,-22.99 28.82,-43.38 9.4,-19.84 21.25,-49.75 10.74,-27.06 1.17,-16.04 -1.14,-25.68 -8.03,-22.22 -8,-21 -15.25,-39.5 -21.5,-48.75 -19,-31 -21.91,-27.89 -32.59,-37.61 -35.5,-29 -52.75,-27.5 -140.75,-60.75 -28.5,-17.5 -24.5,-19 -16.25,-19 -13,-26.25 -31,-54 -11.25,-18.25 -15.25,-23.5 -18.5,-26.75 -14.25,-22.5 -15,-28.25 -6.75,-10.25 -8.33,-11.12 -72.42,-40.88 -50.5,-26.25 -49.5,-16.75 -37,-15.25 -30.5,-7 -47.75,-7.5 -32.25,-0.5 -23.89,5.68 -213.34,70.59 -309.63,93.49 -45.15,18.75 -32.25,23.5 -61.63,46.68 -37.96,24.77 -21.29,7.61 -23.93,4.58 -70.32,1.62 -22.63,5.36 -30.38,13.97 -28.26,17.42 -40.74,25.55 -34.65,34.9 -51.25,47.3 -31.96,39.73 -13.75,11 -47.25,22.75 -41,2.5 -42.75,-2.25 -34.25,3.75 -49,17 -35.5,14.75 -99.75,58 -18.25,18 -14,30.5 -20.75,26.75 -27,27.25 -65.5,46.25 -152.5,90.25 -98.5,58 -31.5,12 -96.5,24.25 -34.25,5 -12,6.75 -41.25,20.75 -38.5,26.5 -11.25,14.25 -15.5,17 -25.25,16.5 -22,10.25 -22.5,6.5 -32.91,-4.53 -41.31,-14.73 -28.4,-25.33 -39.41,-54.58 -12.81,-56.55 1.03,-40.49 25.8,-72.72 5.18,-37.6 -3.03,-36.77 -32.28,-101.08 4.54,-17.75 14.09,-17.14 19.02,-7.24 64,-17.5"
     id="path4516"
     style="fill:none;stroke:#028685;stroke-width:5;stroke-linecap:butt;stroke-linejoin:round;stroke-miterlimit:4;stroke-dasharray:none;stroke-opacity:1" />
  <path
     style="fill:none;stroke:#dab006;stroke-width:1;stroke-linecap:butt;stroke-linejoin:round;stroke-miterlimit:4;stroke-dasharray:none;stroke-opacity:1"
     d="m 3150.78,4458.55 -19.56,-3.87 -11.31,2.83 -17.68,14.85 -152.74,-0.71 -48.73,8.88 -27.86,0.19 -31.36,7.14 -36.78,15.41 -48.4,30.97 -49.42,32.87 -54.11,38.66 -42.77,35.59 -35.6,24.53 -44.71,39.9 -33.15,36.74 -48.47,57.94 -29.33,31.87"
     id="path871" />
  <path
     style="fill:none;stroke:#dab006;stroke-width:5;stroke-linecap:butt;stroke-linejoin:round;stroke-miterlimit:4;stroke-dasharray:none;stroke-opacity:1"
     d="m 2418.82,4832.32 -13.7,14.32 -29.98,46.34 -24.69,44.39 -3.21,10.37 -50.5,168.46 -7.73,24.07 -20.46,40.6 -17.68,62.93 3.75,5.8 12.6,3.24 11.93,-0.56 31.82,-10.61 16.26,-7.78 3.54,-8.49 -5.63,-31.08 4.0,-27.64"
     id="path859" />
  <path
     style="fill:none;stroke:#dab006;stroke-width:1;stroke-linecap:butt;stroke-linejoin:round;stroke-miterlimit:4;stroke-dasharray:none;stroke-opacity:1"
     d="m 2329.14,5166.7 9.22,-25.86 13.03,-25.73"
     id="path857" />
  <path
     style="fill:none;stroke:#dab006;stroke-width:5;stroke-linecap:butt;stroke-linejoin:round;stroke-miterlimit:4;stroke-dasharray:none;stroke-opacity:1"
     d="m 2351.39,5115.11 4.79,-12.22 0.29,-11.4 -12.96,-21.98 -0.16,-12.67 2.61,-17.61 -18.02,-16.73 -2.12,-7.78"
     id="path3618" />
  <path
     style="fill:none;stroke:#dab006;stroke-width:1;stroke-linecap:butt;stroke-linejoin:round;stroke-miterlimit:4;stroke-dasharray:none;stroke-opacity:1"
     d="m 2631.54,4120.42 -13.43,27.16 -7.24,27.43 -5.03,23.52 -4.46,12.95 1.66,17.21 10.29,20.95 5.72,0.54 52.97,-26.83 4.8,1.5 11.75,21.94 20.51,19.8 15.43,12.65 5.71,7.85 2.05,10.86 -8.35,23.8 4.24,18.38 17.09,32.55 -0.59,8.5 -11.37,7.52 -25.17,26.87 -0.36,14.62 16.69,31.01 5.22,16.54 -5.59,13.97 -2.61,14.18 -14.6,40.45 0.07,20.77"
     id="path875" />
  <path
     d="m 5225.5,6646.0 -1.5,28.5 -3,19 -5.5,13 -29.5,22.5 -37.7,30.85 -19.73,8.65 -13.07,5.0 -19,1 -26,0.5 -12,-2.5 -4.5,-6 -8.5,-47 -11.36,-49.39 -12.54,-25.41 -29.89,-75.83 -36.71,-79.88 -16,-42 -8.5,-19.5 -17.5,-41 -19.5,-31 -26.5,-33.5 -33,-36.5 -34,-26.5 -57.5,-29.5 -89,-38.5 -36.5,-17 -14.5,-9 -10.5,-13.5 -3.5,-12.5 -3,-21 -5.5,-43.5 -5,-20 -15.5,-31.5 -13.5,-27 -21.5,-34.5 -17.5,-36 -27.5,-42.5 -11,-15 -26,-26.5 -23.5,-27 -30.5,-20 -37,-18.5 -20,-15.5 -41.5,-42.5 -26.5,-25 -37.5,-30.5 -16,-17 -26.5,-26 -64.8,-80.15 -87.25,-109.63 -68.1,-93.07 -122.35,-159.65 -44.73,-55.28 -44.73,-55.32 -81.1,-118.72 -16.43,-34.85 -18,-41.84 -22,-93 -17,-79 -12,-26 -22,-36 -36,-42 -39,-60 -26,-51 -16,-13 -22,-13 -85.43,-22.72 -104.08,10.94 -91.49,0.78 -33,-2 -47,-19 -77,-1 -36,-4 -53,-17 -66,-26 -38,-9 -29,3 -29,19 -40,43 -29,31 -19,10 -67,36 -31,29 -31,48 -140,310 -23,41 -38,126 -23,76 -14,29 -18,71"
     id="path3600"
     style="fill:none;stroke:#ab118e;stroke-width:5;stroke-linecap:butt;stroke-linejoin:round;stroke-miterlimit:4;stroke-dasharray:none;stroke-opacity:1" />
  <path
     d="m 4890.5,6973.3 7.25,1.95 54,15.75 21.52,13.19 14.98,8.31 12,2.75 19.5,-0.5 15,-3.5 16.68,-12.33 11.16,-12.49 23.09,-58.12 7.97,-32.7 4.36,-94.61 -1,-24 -1.78,-43.04 -5.74,-102.81 -8.63,-94.6 -4.85,-21.05 -23,-119.5 -14,-81.5 -7,-27 -11.81,-11.3 -114.19,-96.2 -73.11,-58.06 -18.05,-14.84 -17.85,-1.04 -25.29,9.77 -49.49,18.89 -23.23,3.77 -63,-19 -63,-34.5 -25.5,-18 -27,-27.5 -39.5,-34.5 -34.5,-44 -25.5,-46 -1,-12 5.5,-25.5 10.5,-19 35.5,-47 25.5,-27 9.5,-13.5 3.5,-22.5 3,-37.5 0.5,-32 -1,-27 -5.5,-12 -20,-18 -27,-13.5 -19,-2.5 -32,1 -16.5,-3.5 -30,-14 -16.5,-15 -34.5,-15.5"
     id="path3592"
     style="fill:none;stroke:#ee2722;stroke-width:5;stroke-linecap:butt;stroke-linejoin:round;stroke-miterlimit:4;stroke-dasharray:none;stroke-opacity:1" />
  <path
     d="m 6247.0,6620.0 -8.5,7 -17,17 -24.12,17.94 -37.1,37.03 -21.79,42.03 -18,12.5 -22.69,13.48 -30.81,3.52 -14,-2.5 -8.5,-5 -6,-9 -17,-24 -10.5,-15.5 -12,-21 -7.89,-25.88 -4.56,-20.68 -6.05,-22.94 -19.5,-28 -28,-40 -5.5,-4.5 -56.5,-41 -25,-12.5 -52,-22 -16,-9.5 -15.5,-7.5 -27,-10 -17.5,-9 -12,-11 -12,-24 -5,-25 2.5,-36 -9.5,-84 -8.5,-27.5 -14,-27 -14.5,-23.5 -18.5,-21.5 -25,-22 -84.5,-57.5 -42.5,-23 -21,-3.5 -61.5,1.5 -16,3.5 -12.5,10.5 -15.5,20 -18,11 -17.5,8 -67.6,20.16 -21.94,1.26 -36.1,-1.55 -71.45,-0.41 -22.14,0.34 -18.25,4.47 -13.71,11.72 -9.72,14.08 -2.6,14.92 -3.27,53.96 -7.73,32.54 -1.41,24.4 7.62,30.9 12.15,73.27 18.21,93.21 3.19,17.2 7.7,35.69 4.11,23.68 6.04,11.36 8.7,7.73 15.95,6.52 11.12,1.21 12.81,-2.9 11.84,-6.52 13.29,-16.92 7.25,-9.67 6.52,-5.32 10.87,-6.28 13.05,-1.93 9.91,1.69 26.1,14.26 106.09,71.53"
     id="path3594"
     style="fill:none;stroke:#33b652;stroke-width:5;stroke-linecap:butt;stroke-linejoin:round;stroke-miterlimit:4;stroke-dasharray:none;stroke-opacity:1" />
  <path
     d="m 6378.96,6565.39 16.26,-14.14 7.07,-12.02 13.44,-29.7 1.41,-18.38 -2.12,-22.63 -8.49,-12.02 -19.8,-21.21 -32.53,-24.75 -12.73,-15.56 -12.73,-17.68 -26.16,-43.13"
     id="path3598"
     style="fill:none;stroke:#915fb6;stroke-width:5;stroke-linecap:butt;stroke-linejoin:round;stroke-miterlimit:4;stroke-dasharray:none;stroke-opacity:1" />
  <path
     d="m 5229.91,6662.97 0.59,-25.47 0.5,-22.5 -1.5,-24 -7,-15 -21.5,-20.5 -33.5,-35 -19,-22 -10.5,-18 -34.5,-97 -2.5,-23.5 2.5,-21 13.5,-28 38,-82.5 6,-24 1,-29.5 -2.5,-16 -13.5,-37 -21,-36.5 -5,-19.5 -56,-305 v -23 l 4,-21.5 12.5,-25.5 31.5,-59 14,-14 99,-79.5 19,-17.5 36.5,-48 31,-48.5 16,-24.5 97,-103.5 45,-70.5 47,-73 23.5,-36.5 9,-9 35,-22 31,-21 21.5,-15.5 12.5,-19.5 1.5,-13 -4,-20.5 -13,-27.5 -0.5,-22 7,-17.5 22.5,-18.5 12.5,-17 4.5,-17.5 v -19 l -3,-21.5 -9,-18.5 -14.5,-18 -14.5,-12.5 -121.5,-86.5 -12.5,-17 -8.5,-22 -5,-25 -9,-17 -15,-17 -20.5,-11 -101.33,-11.87 -17.17,-6.13 -24.5,-12.5 -34,-20.5 -72,-44 -15,-5.5 -20.5,-8.5 -39.5,-9.5 -20.5,-0.5 -62,-2.5 -14,-5 -10,-5 -12.5,-9 -10.5,-9 -71.5,-88.5 -12.5,-8 -16,-9 -49,-20.5 -13,-8.5 -13,-13.5 -14,-16.5 -8,-20.5 -4.5,-23.5 0.5,-16.5 5.5,-34 18,-67 10,-36.5 14.5,-81 11,-61 1,-26.5 -5,-23.5 -9,-24 -13,-20.5 -20.5,-20 -15.5,-10.5 -16,-6 -20,-6.5 -68,-10.5 -17.5,-9 -23,-16 -88.5,-80.5 -107.5,-99.5"
     id="path3602"
     style="fill:none;stroke:#6ac2ee;stroke-width:5;stroke-linecap:butt;stroke-linejoin:round;stroke-miterlimit:4;stroke-dasharray:none;stroke-opacity:1" />
  <path
     d="m 4904.5,6939.0 -16.5,-9 -11.5,-10 -8.82,-14.11 -16.76,-34.32 -7.76,-26.9 -3.37,-40.76 16.52,-45 14.65,-21.4 21.15,-28.05 29.64,-44.97 9.24,-20 21.5,-49.5 10.28,-26.67 1.52,-19.8 -1.74,-25.97 -8.06,-22.55 -9.5,-23.5 -14.5,-38 -20.5,-48 -20,-31 -22.41,-29.39 -32.09,-37.11 -36,-29 -52.5,-27 -143,-63 -27,-16.5 -25,-19 -15,-18.5 -12,-23.5 -32.5,-58 -11.5,-18 -15,-22.5 -18.5,-27.5 -14.5,-23 -14.5,-27.5 -7.5,-11 -7.58,-9.87 -75.42,-42.13 -49.5,-25.5 -50.5,-18 -37,-14.5 -30.5,-7 -49,-7.5 -30.8,0.41 -24.64,5.01 -213.35,70.59 -310.41,94.2 -47.81,19.29 -32,23.5 -60.88,46.62 -37.02,23.89 -18.91,7.23 -24.09,4.74 -71.44,1.93 -21.43,4.84 -33.46,14.88 -29.48,18.38 -40.2,25.99 -36.59,35.99 -49,46.5 -35,42 -12.5,8.5 -44,21 -44,3.5 -38,-4 -36,4 -49.5,17.5 -34.5,14.5 -101.5,59 -19.5,19.5 -13.5,29 -21,27.5 -28,27.5 -65,46 -150.5,88.5 -100.5,59.5 -29,11 -98.5,24.5 -31.5,5 -12,6 -42.5,21.5 -40,27.5 -27.4,16.04 -83.49,11.71 -19.11,10.44 -48.48,38.36"
     id="path3606"
     style="fill:none;stroke:#f68b11;stroke-width:5;stroke-linecap:butt;stroke-linejoin:round;stroke-miterlimit:4;stroke-dasharray:none;stroke-opacity:1" />
  <path
     d="m 6131.47,4709.24 -31.82,4.24 -12.02,3.54 -25.46,21.21 -23.33,16.97 -33.94,7.07 -29.7,3.54 -62.23,23.33 -17.68,5.66 -12.73,15.56 -43.84,130.81 -9.19,53.74 -19.09,38.18 -26.87,38.18 -14.85,11.31 -19.09,13.44 -42.43,25.46 -33.23,32.53 -16.26,18.38 -21.92,37.48 -12.02,47.38 2.83,24.04 4.24,19.8 v 16.26 l -9.19,14.85 -101.82,112.43 -36.77,18.38 -18.38,12.02 -76.37,59.4 -47.38,14.85 -57.98,-3.54 -19.8,1.41 -28.99,14.85 -46.25,12.73 -16.47,13.64 -38.35,30.31 -16.9,16.2 -38.2,71.75 -5.45,15.38 -2.45,14.85 0.52,17.69 7.95,16.99 236.63,234.8 28.61,18.56 17.56,3.87 48.03,-0.77 15.23,1.81 19.11,7.49 60.42,46.48 23.24,19.37 10.59,14.98 4.65,11.1 1.55,12.91 -2.32,16.53 -7.23,12.14 -62.49,65.33"
     id="path3614"
     style="fill:none;stroke:#a73e10;stroke-width:5;stroke-linecap:butt;stroke-linejoin:round;stroke-miterlimit:4;stroke-dasharray:none;stroke-opacity:1" />
  <path
     style="fill:none;stroke:#dab006;stroke-width:1;stroke-linecap:butt;stroke-linejoin:round;stroke-miterlimit:4;stroke-dasharray:none;stroke-opacity:1"
     d="m 2289.81,5410.87 -3.82,4.61 -52.09,-1.96 -6.36,2.12 -4.24,45.25 -9.19,10.61 -24.75,16.26 -10.28,7.58 -8.43,23.95 0.15,8.7 4.42,12.8 16.26,31.11 3.67,9.48 -6.05,6.96 -28.48,-7.88"
     id="path867" />
  <path
     style="fill:none;stroke:#dab006;stroke-width:1;stroke-linecap:butt;stroke-linejoin:round;stroke-miterlimit:4;stroke-dasharray:none;stroke-opacity:1"
     d="m 2172.91,5576.38 -62.91,-15.76 -26.33,-31.18 -2.81,-8.29 5.96,-8.63 14.14,-19.8 11.31,-21.21 9.87,-17.66 2.22,-19.46 21.86,-43.49 21.92,-57.98 15.24,-43.89 -1.26,-58.71"
     id="path853" />
  <path
     style="fill:none;stroke:#dab006;stroke-width:5;stroke-linecap:butt;stroke-linejoin:round;stroke-miterlimit:4;stroke-dasharray:none;stroke-opacity:1"
     d="m 2184.75,5233.48 13.09,-0.27 55.15,12.02"
     id="path3624" />
  <path
     style="fill:none;stroke:#dab006;stroke-width:5;stroke-linecap:butt;stroke-linejoin:round;stroke-miterlimit:4;stroke-dasharray:none;stroke-opacity:1"
     d="m 2284.81,5250.88 6.36,13.44 v 63.64"
     id="path849" />
  <path
     style="fill:none;stroke:#dab006;stroke-width:1;stroke-linecap:butt;stroke-linejoin:round;stroke-miterlimit:4;stroke-dasharray:none;stroke-opacity:1"
     d="m 2291.18,5327.95 -0.74,66.69 -0.62,16.23 -0.41,12.59 5.32,5.88 5.98,1.49 17.29,-8.85"
     id="path3620" />
  <path
     d="m 2184.75,5233.48 -2.63,-3.17 -1.89,-33.17 0.59,-33.23 4.15,-14.21 2.82,-24.94 -8.81,-22.83 -16.23,-14.63 -22.18,-8.95 -14.85,-7.78 -4.24,-10.61 10.61,-14.14 12.02,-9.19 14.85,-0.71 44.55,16.26 9.9,3.54 22.63,-6.36 34.65,-9.9 23.33,-13.44 11.31,-17.68 4.46,-9.07 -0.24,-27.89 3.77,-4.67 20.67,5.23 2.78,6.94"
     id="path3626"
     style="fill:none;stroke:#dab006;stroke-width:1;stroke-linecap:butt;stroke-linejoin:round;stroke-miterlimit:4;stroke-dasharray:none;stroke-opacity:1" />
  <path
     d="m 2291.18,5327.95 -3.83,4.19 -23.2,0.28 -4.16,3.74 -0.16,23.15 3.72,2.95 h 23.63 l 4.21,-4.1"
     id="path3622"
     style="fill:none;stroke:#dab006;stroke-width:1;stroke-linecap:butt;stroke-linejoin:round;stroke-miterlimit:4;stroke-dasharray:none;stroke-opacity:1" />
  <path
     d="m 2305.32,5008.34 4.03,-0.78 13.91,5.47 5.59,-3.07"
     id="path3628"
     style="fill:none;stroke:#dab006;stroke-width:1;stroke-linecap:butt;stroke-linejoin:round;stroke-miterlimit:4;stroke-dasharray:none;stroke-opacity:1" />
  <path
     style="fill:none;stroke:#dab006;stroke-width:1;stroke-linecap:butt;stroke-linejoin:round;stroke-miterlimit:4;stroke-dasharray:none;stroke-opacity:1"
     d="m 2162.74,5087.29 20.34,3.27 14.76,-2.35 11.01,-5.62 5.52,-0.04 27.3,33.27 19.91,0.75"
     id="path863" />
  <path
     style="fill:none;stroke:#dab006;stroke-width:5;stroke-linecap:butt;stroke-linejoin:round;stroke-miterlimit:4;stroke-dasharray:none;stroke-opacity:1"
     d="m 2261.59,5116.57 17.57,0.66 14.85,4.95"
     id="path3630" />
  <path
     d="m 2180.81,5163.91 -6.83,2.07 -3.02,7.83 2.0,9.5 -9.36,25.54 1.59,9.78 16.14,0.3"
     id="path3632"
     style="fill:none;stroke:#dab006;stroke-width:1;stroke-linecap:butt;stroke-linejoin:round;stroke-miterlimit:4;stroke-dasharray:none;stroke-opacity:1" />
  <path
     d="m 4783.73,7136.73 22.63,5.66 24.04,1.41 6.36,-2.12 9.9,-10.61 33.23,-53.03 10.61,-14.14 7.07,-8.49 11.31,-16.97"
     id="path3611"
     style="fill:none;stroke:#9f5443;stroke-width:5;stroke-linecap:butt;stroke-linejoin:round;stroke-miterlimit:4;stroke-dasharray:none;stroke-opacity:1" />
  <path
     d="m 6534.0,45.5 -57,30.5 -100.5,67.5 -130,74 -25,9.5 -42.5,13 -28,11 -175.5,174 -21,31.5 -52.5,94 -61,94.5 -12.5,24 -6.5,46.5 -13.5,100.5 -16,47.5 -69,121.5 -15.5,73.0 -34.5,77.5 -18,31 -41,40 -32,42 -22,31 -112.0,96 -25,11 -43.5,13 -50.5,26 -126.5,63.5 -25,11 -31.5,7 -102.5,17.5 -74.5,27 -51.5,34.5 -44,49 -30,49.5 -17,17 -30,14 -101.5,16.5 -51,1.5 -29,6 -24.5,16.5 -32.5,43 -64.5,81 -81,61.5 -84.5,44.0 -22,19.5 -27.5,42 -31,36 -39.5,83.5 -10,37 1.5,27.5 34.5,54 20,34 16.5,25 10.5,46 13,24.5 11.0,13.0 22.0,9.0 36.82,-2.31 26.92,10.05 10.07,9.11 11.8,34.34 10.89,56.31 7,33.5 14.5,25 24.5,28 8,18.5 -1.5,17.5 -5,13 -55,34 -59,37 -53.5,95 -11.5,33.5 -13,16.5 -11.09,7.51 -11.2,0.31 -26.21,-7.81 -31.5,-13.5 -84.5,-55 -26,-6.5 h -23.5 l -343.0,5.5 -43.5,6.5 -78,0.5 -64.5,-5 -145,3 -37,16.5 -16,12.5 -9.5,12 -5.5,13 9.5,360.5 -11,29.5 -15,25.5 -11.97,35.63 -14.2,40.04 -4.41,24.73 0.65,17.56 6.25,19.68 8.52,11.19 10.68,7.09 18.95,1.26 23.48,-2.36 33.15,-5.48"
     id="path3617"
     style="fill:none;stroke:#00a6df;stroke-width:5;stroke-linecap:butt;stroke-linejoin:round;stroke-miterlimit:4;stroke-dasharray:none;stroke-opacity:1" />
  <path
     d="m 4503.9,2874.31 65.64,-11.45 13.5,-9.75 14.41,-24.91 18.6,-36.52 1.12,-11.18 -5.77,-7.5 -61.41,-75.5 -55.5,-71 -5.5,-28.5 7.5,-44 31,-122.5 10,-93.5 -1.5,-57 2.5,-26.5 -11,-27 -105.5,-111.5 -159.5,-138.5 -86.5,-78.0 -8,-21 -23.5,-73 -12,-64.5 -18.5,-24 -27.5,-14.5 -341.5,-69 -126,-24 -31,1.5 -78.5,13.5 -55.5,0.5 -42,-3.5 -29,6.5 -288,171 -145.5,127.5 -30.5,19.5 -36.98,14.38 -125.28,31.47 -15.06,16.24 -26.32,51.25 -39.37,57.65 -32.5,37.5 -29,17 -243.5,101 -101.08,0.32 -18.26,2.81 -19.35,9.5 -32.47,16.61 -33.95,1.57 -58.57,-3.55 -85.74,26.83 -113.58,5.42 -223.5,3.5 -49.97,-9.43 -53.03,-9.57 -38,-10 -57,-9 -30.5,0.5 -20,4.5 -481.36,446.36 -9.29,24.91 -1.32,76.7 7.96,17.03 26.43,18.25 36.2,5.43 32.49,15.23 36.58,20.15 34.51,30.07 8.73,14.59 0.74,34.75 1.33,99.05 0.7,34.31 -5.3,47.67 -18.54,35.42 -22.84,32.44 -45.35,49.66 -48.33,45.02 -45.69,38.04 -5.81,12.75 -0.91,15.63 6.35,15.1 13.65,21.92 76.58,108.76 18.35,34.06 59.28,53.29 13.26,13.61 5.3,23.5 v 16.55 l -18.87,60.25 -12.58,30.46 -6.62,28.14 -1.32,19.53 1.66,14.57 2.67,7.86 11.01,15.42 21.39,16.21"
     id="path4461-6"
     style="fill:none;stroke:#96499a;stroke-width:5;stroke-linecap:butt;stroke-linejoin:round;stroke-miterlimit:4;stroke-dasharray:none;stroke-opacity:1" />
  <path
     d="m 3561.36,3339.12 -40.0,-35.17 -12.32,-16.22 -15.48,-62.27 -22.07,-89.97 -5.63,-7.41 -11.62,-15.65 -6.97,-11.62 -5.82,-18.7 -1.06,-156.27 -5.11,-99.21 -11.79,-112.14 -7.5,-95 -1.5,-173.5 -2.49,-42.54 -77.51,-172.96 -49.5,-75.5 -88,-121.5 -86,-77 -27.5,-29.5 -51.5,-22.5 -30.5,-29.5 -30.5,-35.5 -18.27,-40.37 -9.47,-40.74 -188.89,-294.47 -36.36,-58.16 -2.51,-16.12 3.11,-13.81 7.65,-13.1 174.8,-126.03 165.45,-132.71 12.5,-19.5 17.5,-44 63.22,-135.49 13.69,-16.21 5.08,-19.09 -0.23,-20.79 -6.92,-27.59 -15.13,-20.61 -12.93,-11.99 -9.85,-16.32 15.17,-84.18 6.22,-32.03 -1.76,-28.73 -3.84,-39.66 3.54,-29.55 51.06,-215.06 9.71,-21.28 15.95,-15.7 52.62,-14.89 56.4,-21.31 19.87,-9.64 78.52,-81.6 33.43,-7.09 82.8,-4.56 41.66,2.91 38.65,0.96 40.86,-11.53 38.11,-13.35 21.46,-12.77 44.1,4.41 24.29,-4.01 23.53,-9.67"
     id="path3608"
     style="fill:none;stroke:#da251e;stroke-width:5;stroke-linecap:butt;stroke-linejoin:round;stroke-miterlimit:4;stroke-dasharray:none;stroke-opacity:1" />
  <path
     d="m 4256.5,3113.0 -1.52,-20.71 10.52,-26.29 -3.5,-38 -2,-51.5 1.5,-61.5 -8.79,-7.83 -19.21,-6.17 -25.5,-9.5 -10.94,-0.56 -44.56,18.06 -33.5,17 -19,15 -36,9 -388.5,9.5 -15.51,7.92 -14.61,21.57 -9.39,13.12 -37.0,18.89 -31.95,17.73 -24.05,2.27 -285,4.5 -21,-6 -18,-13.5 -33.5,-26.5 -22,-18 -18.18,-5.79 -31.26,5.09 -157.05,35.2 -388.5,70.5 -35,-6.5 -68.5,-21 h -125 l -91,-34 -159.0,-67 -22,-7 -250.05,5.94 -22.46,6.14 -59.89,75.89 -17.59,15.53 -27,9 -34.17,6.36 -55.83,3.14 -198,-0.5 -36,4.5 -124,1.5 -58,-2 -16,-7 -18,-19 -18,-30 -2.59,-108.23 -9.44,-25.28 -32.97,-36.48 -29,-30 -185.0,-190 -162,-139.5 -119.5,-107 -70.0,-63.5 -9,-20.5 -2,-27.5 -4.5,-50.5 -12,-27.5 -29.5,-36 -75,-157 -107,-247.5 -26.5,-120.5 -28.5,-54.5 -26.5,-36.5 -48,-47 -28.5,-50.0 -21,-31.5 -60.0,-116"
     id="path3610"
     style="fill:none;stroke:#13ae58;stroke-width:5;stroke-linecap:butt;stroke-linejoin:round;stroke-miterlimit:4;stroke-dasharray:none;stroke-opacity:1" />
  <path
     d="m 1108.0,3887.0 105.07,76.95 28.15,10.08 16.82,2.49 15.96,-8.51 60,-49 12,-72 16,-31 18.5,-42.0 21,-14.5 48.65,-10.05 66.49,8.62 82.6,29.2 51.27,1.73 33,-6 20.5,-9.5 8,-10 3,-20 -21.59,-110.99 -3.91,-61.51 1.35,-153.59 50.0,-160.67 16.66,-68.24 10.5,-17.5 15,-10 15,-3 125,-3 30.78,2.38 41.59,9.0 35.51,15.75 24.77,4.49 89.36,1.31 26.52,-2.97 12.6,-10.99 5.33,-16.48 2.94,-89.89 12.69,-38.6 9.9,-28 14.0,-31 0.15,-22.45 12.35,-29.55 32.5,-58.5 11,-11.5 21,-5 35,2 25.5,5.5 53.5,44 30.56,27.1 18.49,6.09 14.92,-1.64 34.91,-28.23 58.62,-56.82 29.5,-15 27.5,-3 123.5,-2.5 13.5,-6.5 37,-21 37.5,-23 19.5,-6 24.53,-3.33 100.47,0.83 33.72,-5.84 30.72,-18.29 48.52,-2.51 33.1,13.61 25.76,6.42 44.89,-2.23 46.37,-11.07 23.27,4.21 20.99,10.75 8.39,15.19 -0.77,16.29 -35.2,110.16 2.86,23.02 9.76,18.83 20.12,15.98 13.81,5.38 43.55,-1.29 44.24,-2.63 85.99,-6.16 73.85,-3.22 63.44,7.05 41.05,-5.23 25.98,-12.32 16.09,-15.79 15.23,-15.21 17.3,-10.63 188.98,-7.44 20.5,2.5 32.88,3.41 32.12,10.06 24.69,17.48 20.11,23.25 19.97,3.38 24.9,-2.26 258.82,-52.81 138.4,-24.32 71.6,-12.18 108,-13.5 21.5,-2.5 30.2,-10.16 20.75,-15.95 20.79,-41.0 14.43,-21.5 14.96,-106.77 4.23,-25.33 8.58,-13.18 32.83,-13.42 31.51,-1.33 211.11,-1.24 28.09,5.96 42.67,24.22 9.16,10.89 26.68,69.59 12.16,25.54 20.94,15.58 19.87,8.44 35.48,4.51 47.13,3.16 17.11,0.98 51.39,-16.85 70.27,-18.67 38.7,-3.77 212.27,16.9 86.09,2.57 74.54,11.33 20.38,-0.94 62.55,-38.99 54.96,-55.02 44.26,-22.39 21.36,-25.44 9.89,-19.75 5.73,-20.79 -4.81,-31.12 -84.43,-144.85 -1.97,-14.73 5.36,-41.98 4.94,-14.78 34.62,-41.46 16.82,-17.62 8.79,-4.99 9.93,-2.29 58.12,1.42 16.31,-3.32 11.22,-6.7 30.17,-36.43"
     id="path3612"
     style="fill:none;stroke:#b34e20;stroke-width:5;stroke-linecap:butt;stroke-linejoin:round;stroke-miterlimit:4;stroke-dasharray:none;stroke-opacity:1" />
  <path
     d="m 5492.49,6842.95 28.72,-5.8 13.79,3.85 16.17,11.41 20.4,21.31 15.1,4.54 21.85,-0.83 16.57,-1.47 7.4,-0.97 55,-29.5 183,-100.5 82.5,-48.5 15.67,-3.4 15.25,2.72 12.94,6.72 6.13,8.46 34,49.75 3.5,5.25 9,5.5 16.5,4 33.78,-3.93 23.57,-13.43 20.36,-15.01 20.05,-41.52 37.49,-36.25 23.91,-18.66 17.32,-17.32 18.38,-13.79 53.03,-22.98 91.22,-36.42 14.14,-7.07 28.99,-4.95 25.46,2.83 23.33,20.51 41.72,48.79 3.9,24.44 0.09,23.51 -5.64,21.87 -7.63,16.91 -5.95,12.77 -10.22,15.75 -24.19,13.38 -27.42,22.3"
     id="path3596"
     style="fill:none;stroke:#915fb6;stroke-width:5;stroke-linecap:butt;stroke-linejoin:round;stroke-miterlimit:4;stroke-dasharray:none;stroke-opacity:1" />
  <path
     style="fill:none;stroke:#de6dbd;stroke-width:5;stroke-linecap:butt;stroke-linejoin:round;stroke-miterlimit:4;stroke-dasharray:none;stroke-opacity:1"
     id="path3616"
     d="m 3072.25,6201.0 9.5,-8.75 5.75,-4.75 14,0.5 16.5,7.5 12,9.5 7,15 5.49,14.51 2.74,28.18 -2.27,37.21 -0.52,23.28 3.23,21.1 16.69,49.87 6.1,14.16 14.31,17.4 25.34,13.57 42.13,16.67 23.19,1.14 24.07,0.87" />
  <path
     d="m 6008.5,7258.5 26.5,-55 19.5,-43.5 17,-36 3.5,-12 -1.5,-26.5 -6.5,-15 -42.31,-53.67 -14.89,-8.12 -13.28,-2.57 -20.66,3.06 -40.54,11.45 -31.81,-1.65 -45.5,-17.5 -15,-3.5 -19.5,-6.5 -12.93,-9.56 -14.07,-16.44 -16.5,-23.5 -8,-4.5 -19,-3 -40.5,-1 -36.5,-1.5 -11.5,-2 -8.5,-3.5 -17,-14.5 -16.5,-24 -14,-28.5 -10.5,-14 -14,-8.5 -49,-12.5 -34.0,6.5 -72,14.5 -5.5,3.5 -28,31 -5,19 -2,37 -12.5,32.0 -29.04,18.61 -42.96,1.89 -34.5,10 -13,0.5 -52.5,22 -33.5,10 -16.5,4.5 -26.5,3.5 -40.5,3 -36,-4.5 -63.5,-20 -18,-10 -46.5,-13 -21,-8 -13,-13 -36,-47.0 -23,-16 -9,-4.5 -26.5,-7 -52.5,-12 -26,-3 -22,13 -31.64,38.2 -17.39,7.2 -48.58,-2.82 -24.96,1.65 -23.81,2.27 -39.11,30.52 -43.56,11.52"
     id="path2818"
     style="fill:none;stroke:#2d7bc8;stroke-width:5;stroke-linecap:butt;stroke-linejoin:round;stroke-miterlimit:4;stroke-dasharray:none;stroke-opacity:1" />
  <path
     d="m 2291.5,2980.0 11.5,7.5 23,-1.5 19,21 1.5,13 12,1 1,12.5 7,2 16.5,18 6.5,0.5 16,20.5 v 45 l -15.5,15 -33.5,1.5 -8.5,-7.5 -13.5,1 -6.5,-4.5 -2,-8.5 7,-4 1.5,-11.5 -5,-5 -9,-3 -9,-17 -15,-12.5 -4.5,-15 -7,-5 -40.5,-14.5 -5,-9.5 8,-23 z"
     id="path2836"
     style="fill:none;stroke:#dd127b;stroke-width:5;stroke-linecap:butt;stroke-linejoin:round;stroke-miterlimit:4;stroke-dasharray:none;stroke-opacity:1" />
  <text
     x="-410.55"
     y="-743.04"
     id="text4378-3"
     xml:space="preserve"
     style="font-style:normal;font-weight:normal;font-size:144px;font-family:Sans;-inkscape-font-specification:Sans;fill:#000000;fill-opacity:1;stroke:none"><tspan
       x="-410.55"
       y="-743.04"
       id="tspan1">2020</tspan></text>
  <text
     x="-410.55"
     y="7647.96"
     id="text4378"
     xml:space="preserve"
     style="font-style:normal;font-weight:normal;font-size:144px;font-family:Sans;-inkscape-font-specification:Sans;fill:#000000;fill-opacity:1;stroke:none"><tspan
       x="-410.55"
       y="7647.96"
       id="tspan2"></tspan></text>
</svg>
