<svg xmlns="http://www.w3.org/2000/svg" viewBox="-500, -950, 7200, 8700" height="8700" width="7200"><path d="M3342.852 2967.8l-127.837 3.625-84.532 14.409-173.41 35.128-154.568 27.794-27.549 14.016-52.681 32.14-23.2 13.533-15.465 5.317-143.062 27.549-149.103 31.899-34.557 14.499-41.323 25.616-21.266 2.9-133.878 1.691-46.882-6.766-47.365.242-18.366 5.074-17.158 10.875-16.342 16.702-63.566 67.667-15.721 6.494-21.53 6.151-16.405 2.734-24.265 1.026-31.783-6.494-16.063-7.86-26.998-14.696-33.492-9.569-34.86-7.518-63.908-7.86-15.037-7.861-19.138-11.62-10.253-13.328-14.696-10.253-95.35-21.872-25.29-8.203-21.188-3.417-17.772 1.367-58.782 21.189-18.454 1.709-77.237.341-24.607-2.392-47.845-16.746-49.897-14.354-19.822-13.67-12.303-12.987-7.86-13.67-6.152-44.77-.86-57.115-1.249-91.99-8.827-30.658-21.288-27.307-28.033-30.449-23.199-21.265-21.266-14.983-40.598-15.466-21.75-4.834-17.882-10.15-69.114-75.396-103.913-111.163-159.494-130.012-184.144-159.977-88.446-59.448-88.93-67.664-19.816-20.783-10.633-18.366-65.731-141.612-8.7-12.082-15.466-11.6-33.349-16.433-11.116-8.7-9.183-12.082-8.216-17.883-55.098-114.546-56.065-105.846-145.478-279.84-56.548-90.38-14.983-27.065-4.833-20.3-8.216-29.965-41.565-80.714-2.417-20.783 5.8-17.399 22.716-32.382 16.432-16.433 40.115-19.816 12.567-15.466 15.466-33.832 16.433-51.231 5.8-37.699 6.766-114.062 8.7-38.666 15.466-40.598 17.399-28.033 102.946-173.993 12.566-32.382 5.317-24.166 2.416-29.482-4.35-29.483-6.766-30.448-23.682-50.749-5.317-26.582.967-19.816 7.733-25.616 25.132-61.864 20.783-37.699 53.165-74.43 9.666-26.583L72.98 45.432l3.383-18.366 1.934-32.382 33.348-321.888 8.217-56.065 11.6-35.282 22.232-33.349 17.4-25.615 7.249-28.033-.483-25.615-42.049-155.145-14.5-16.916-82.163-16.432-11.6-8.217-10.15-19.816-4.349-26.099-.967-26.099" fill="none" stroke="#651438" stroke-width="5" stroke-linejoin="round"/><path d="M4445.054 2923.577l-55.098.967-9.183 4.833-31.931 59.032-11.278 9.911-58.782 25.632-25.974 7.519-76.895 14.695-16.404 1.709-32.125-16.746-18.797-2.734-17.77-8.202-17.089-11.62-5.81-10.594-5.468-15.038-6.835-425.827-3.417-11.62-7.86-8.202-11.62-5.468-27.683-.684-87.147 17.43-22.556-1.026-21.189-8.202-35.884-27.34-20.847-10.253-21.19-4.784-40.668-1.368-30.075 6.152-49.554 14.354-24.948 4.101-40.328 1.367-270.67 2.734-25.974-3.418h-26.315l-17.771 2.393-30.416 10.594-112.78 48.53-6.835 7.518-3.76 11.278-3.759 55.023 8.544 22.556 45.112 42.377 14.012 18.113 26.999 39.644 4.443 21.872v47.846l-5.469 8.544-87.147 23.581-96.375 32.125-29.391 6.835-15.038 16.405-8.544 14.695-2.05 12.645 14.988 61.936 12.352 47.084-5.126 23.581-9.57 11.62-18.454 9.228-34.176 11.961-151.056 33.834h-22.214l-78.604-9.57-41.694 3.418-31.441 11.62-56.048 38.277-34.176 21.189-34.175 12.986-49.555 15.037-23.923-1.708-53.997-30.075-28.366-3.417-165.751 2.392" fill="none" stroke="#86656d" stroke-width="5" stroke-linejoin="round"/><path d="M4445.054 2923.577l-55.098.967-9.183 4.833-31.931 59.032-11.278 9.911-58.782 25.632-25.974 7.519-76.895 14.695-16.404 1.709-32.125-16.746-18.797-2.734-17.77-8.202-17.089-11.62-5.81-10.594-5.468-15.038-6.835-425.827-3.417-11.62-7.86-8.202-11.62-5.468-27.683-.684-87.147 17.43-22.556-1.026-21.189-8.202-35.884-27.34-20.847-10.253-21.19-4.784-40.668-1.368-30.075 6.152-49.554 14.354-24.948 4.101-40.328 1.367-270.67 2.734-25.974-3.418h-26.315l-17.771 2.393-30.416 10.594-112.78 48.53-6.835 7.518-3.76 11.278-3.759 55.023 8.544 22.556 45.112 42.377 14.012 18.113 26.999 39.644 4.443 21.872v47.846l-5.469 8.544-87.147 23.581-96.375 32.125-29.391 6.835-15.038 16.405-8.544 14.695-2.05 12.645 14.988 61.936 12.352 47.084-5.126 23.581-9.57 11.62-18.454 9.228-34.176 11.961-151.056 33.834h-22.214l-78.604-9.57-41.694 3.418-31.441 11.62-56.048 38.277-34.176 21.189-34.175 12.986-49.555 15.037-23.923-1.708-53.997-30.075-28.366-3.417-165.751 2.392-72.051-17.981-33.766-10.924-26.814-24.828-35.752-67.201-28.47-23.504-35.09-11.917-144.663 3.972-30.125 11.256-28.8 20.193-47.67 46.676-25.158 53.96-14.897 10.593-25.821 12.248-26.814 16.221-11.917 13.904-29.463 83.752-4.965 39.394-30.787 87.063-6.29 4.965-17.545 4.304-23.834-4.304-35.753-29.462-33.103-49.656-19.863-5.296-33.766 3.972-18.538-4.303-37.407-22.18-48-43.366-113.547-109.242" fill="none" stroke="#86656d" stroke-width="5" stroke-linejoin="round"/><path d="M4523.834 2428.903l-18.608 70.565-6.283 11.357-47.365 15.95-32.14 16.19-65.006 18.125-59.931.484-53.165 16.674-29.965 8.941-20.541 4.35-19.816-.725-47.124 29.724-242.382 5.558-14.5 5.558-14.741 11.117-43.257 71.289-5.558 18.607 4.108 298.206-8.216 16.433-14.741 9.908-12.566 14.74-14.983 33.591-31.174 59.206-.242 30.933-3.141 19.09-7.733 17.883-8.458 21.508-6.767 6.525-10.633 2.416-14.016-3.625-75.88-23.924-26.824-14.5-13.533-1.207-269.932 3.383-14.741 6.283-23.441 44.707-9.666 5.558-10.633 1.208-14.741-4.108-177.377-103.671-20.058-17.883-12.083-24.65-28.999-106.812-19.574-82.889-5.075-7.25-6.524-3.866-14.258-2.175-83.372 17.4-67.664 24.89h-17.883l-17.4-3.866-21.024-9.425-19.332-14.983-11.6-21.266-30.932-79.263v-9.908l1.208-67.906-3.625-12.325-9.183-8.458-15.466-5.8-120.829-22.715-54.373-10.875-127.112-41.323-163.119-103.43-36.49-12.324-92.313-23.683-89.414-2.9-9.666-3.866-9.183-10.15-3.142-13.291-4.591-114.304 9.424-119.138 5.317-14.5 11.841-20.298 23.441-20.058 65.248-53.406 10.633-8.217 35.282-9.908" fill="none" stroke="#003892" stroke-width="5" stroke-linejoin="round"/><path d="M4763.05 7575.114l13.328 20.847 11.278 9.227 19.822 5.468 10.936 1.367 18.797-1.367 12.986-6.493 13.329-15.72 20.164-20.506 8.885-14.354 21.53-12.987 18.456-20.163 16.062-12.304 18.797-4.784 37.251-1.025 68.01-14.354 36.567 2.734 14.696-5.468 20.505-14.012 12.645-15.037 5.468-14.354-.341-16.404-8.203-16.405-187.282-306.213-1.709-22.556 7.52-15.72 44.51-51.137" fill="none" stroke="#ccce08" stroke-width="5" stroke-linejoin="round"/><path d="M4902 6943.5l-16.5-9.25-12.25-10.25-10.5-17-16.852-34.974-7.826-26.333-3.025-44.167 16.452-44.775 18.911-27.042 17.617-22.99 28.823-43.377 9.4-19.841 21.25-49.75 6.5-19.75-1-19.5-.25-28.25-2.5-23.5-8-21-15.25-39.5-21.5-48.75-19-31-21.915-27.89L4832 6297l-35.5-29-52.75-27.5-140.75-60.75-28.5-17.5-24.5-19-16.25-19-13-26.25-31-54-11.25-18.25-15.25-23.5-18.5-26.75-14.25-22.5-15-28.25-6.75-10.25-8.328-11.125-72.422-40.875-50.5-26.25-49.5-16.75-37-15.25-30.5-7-47.75-7.5-32.25-.5-24 2-21.25 5.25-120 42-75 25-40.25 9.5-121.25 36-61 23-85 26.5-44.25 19.25-32.25 23.5-61 44-22 12.5-23.75 6-45.5 3.5-37.5 11.75-46.5 16-26.25 15-38.5 25-35.75 19.25-35.033 29.463-51.254 47.303-31.963 39.734-13.75 11-47.25 22.75-41 2.5-42.75-2.25-34.25 3.75-49 17-35.5 14.75-99.75 58-18.25 18-14 30.5-20.75 26.75-27 27.25-65.5 46.25-152.5 90.25-98.5 58-31.5 12-96.5 24.25-34.25 5-12 6.75L2026 6764l-38.5 26.5-11.25 14.25-15.5 17-25.25 16.5-22 10.25-22.5 6.5-32.912-4.527-41.31-14.728-28.401-25.335-39.414-54.578-12.814-56.546 1.027-40.492 25.803-72.719 5.183-37.596-3.034-36.768-32.283-101.082 4.541-17.748 14.095-17.141 19.02-7.24 64-17.5" fill="none" stroke="#028685" stroke-width="5" stroke-linejoin="round"/><path d="M3150.777 4458.55l-19.558-3.872-11.314 2.829-17.677 14.849-152.735-.707-48.73 8.883-27.86.191-31.356 7.136-36.775 15.415-48.396 30.965-49.42 32.87-54.11 38.655-42.765 35.59-35.595 24.527-44.711 39.9-33.149 36.737-48.472 57.935-29.333 31.867" fill="none" stroke="#dab006" stroke-linejoin="round"/><path d="M2418.82 4832.32l-13.696 14.324-29.984 46.34-24.694 44.395-3.208 10.37-50.5 168.457-7.73 24.071-20.459 40.6-17.678 62.932 3.754 5.805 12.604 3.238 11.927-.557 31.82-10.607 16.263-7.778 3.535-8.485-5.627-31.084 3.995-27.642" fill="none" stroke="#dab006" stroke-width="5" stroke-linejoin="round"/><path d="M2329.142 5166.699l9.216-25.856 13.032-25.73" fill="none" stroke="#dab006" stroke-linejoin="round"/><path d="M2351.39 5115.114l4.793-12.219.295-11.402-12.965-21.985-.158-12.675 2.61-17.613-18.02-16.735-2.12-7.778" fill="none" stroke="#dab006" stroke-width="5" stroke-linejoin="round"/><path d="M2631.536 4120.417l-13.429 27.159-7.242 27.43-5.026 23.523-4.461 12.946 1.659 17.21 10.286 20.952 5.722.535 52.972-26.828 4.804 1.5 11.75 21.945 20.505 19.799 15.433 12.651 5.71 7.85 2.052 10.854-8.345 23.8 4.242 18.384 17.095 32.55-.586 8.499-11.37 7.521-25.169 26.875-.362 14.62 16.686 31.015 5.22 16.536-5.593 13.965-2.608 14.181-14.597 40.454.071 20.765" fill="none" stroke="#dab006" stroke-linejoin="round"/><path d="M5225.5 6646l-1.5 28.5-3 19-5.5 13-29.5 22.5-39.5 32.5-19 9-12 3-19 1-26 .5-12-2.5-4.5-6-8.5-47-12-37-9-26.5-32.794-87.121L4955 6489l-16-42-8.5-19.5-17.5-41-19.5-31-26.5-33.5-33-36.5-34-26.5-57.5-29.5-89-38.5-36.5-17-14.5-9-10.5-13.5-3.5-12.5-3-21-5.5-43.5-5-20-15.5-31.5-13.5-27-21.5-34.5-17.5-36-27.5-42.5-11-15-26-26.5-23.5-27-30.5-20-37-18.5-20-15.5-41.5-42.5-26.5-25-37.5-30.5-16-17-26.5-26-64.798-80.151-87.247-109.633-68.101-93.07L3840.999 5177l-44.734-55.279-44.734-55.316-81.1-118.721-16.432-34.849-18-41.835-22-93-17-79-12-26-22-36-36-42-39-60-26-51-16-13-22-13-85.43-22.72-104.077 10.94-91.493.78-33-2-47-19-77-1-36-4-53-17-66-26-38-9-29 3-29 19-40 43-29 31-19 10-67 36-31 29-31 48-140 310-23 41-38 126-23 76-14 29-18 71" fill="none" stroke="#ab118e" stroke-width="5" stroke-linejoin="round"/><path d="M4890.5 6973.3l7.25 1.95 54 15.75 21.52 13.19 14.98 8.31 12 2.75 19.5-.5 15-3.5 16.676-12.326 11.156-12.489 23.094-58.122 7.968-32.705L5098 6801l-1-24-1.781-43.035-5.74-102.807-8.625-94.603-4.854-21.055-23-119.5-14-81.5-7-27-7-10-119-97.5-68-61.5-22-8-19-1-25.5 10.5-48 18.5H4699l-63-19-63-34.5-25.5-18-27-27.5-39.5-34.5-34.5-44-25.5-46-1-12 5.5-25.5 10.5-19 35.5-47 25.5-27 9.5-13.5 3.5-22.5 3-37.5.5-32-1-27-5.5-12-20-18-27-13.5-19-2.5-32 1-16.5-3.5-30-14-16.5-15-34.5-15.5" fill="none" stroke="#ee2722" stroke-width="5" stroke-linejoin="round"/><path d="M6247 6620l-8.5 7-17 17-21.5 33-17 24.5-44.5 39.5-18 12.5-37.5 13-16 4-14-2.5-8.5-5-6-9-17-24-10.5-15.5-12-21-3-23.5-5.5-20-10-26-19.5-28-28-40-5.5-4.5-56.5-41-25-12.5-52-22-16-9.5-15.5-7.5-27-10-17.5-9-12-11-12-24-5-25 2.5-36-9.5-84-8.5-27.5-14-27-14.5-23.5-18.5-21.5-25-22-84.5-57.5-42.5-23-21-3.5-61.5 1.5-16 3.5-12.5 10.5-15.5 20-18 11-17.5 8-74.5 23-16 3-26-1-68-1.5-27.5-2-19.5 5.5-16 9-9.5 12-6.5 17-5.5 47-5.5 39.5.5 23 5.706 32.293 12.147 73.268 18.207 93.207 3.19 17.197 7.697 35.688 4.108 23.683 6.041 11.358 8.7 7.733 15.95 6.524 11.116 1.209 12.808-2.9 11.841-6.525 13.291-16.916 7.25-9.666 6.525-5.317 10.874-6.283 13.05-1.933 9.908 1.692 26.099 14.257 106.088 71.531" fill="none" stroke="#33b652" stroke-width="5" stroke-linejoin="round"/><path d="M6378.96 6565.392l16.264-14.142 7.071-12.021 13.435-29.699 1.414-18.384-2.121-22.628-8.485-12.02-19.8-21.214-32.526-24.749-12.728-15.556-12.728-17.678-26.163-43.133" fill="none" stroke="#915fb6" stroke-width="5" stroke-linejoin="round"/><path d="M5229.912 6662.973l.587-25.473.5-22.5-1.5-24-7-15-21.5-20.5-33.5-35-19-22-10.5-18-34.5-97-2.5-23.5 2.5-21 13.5-28 38-82.5 6-24 1-29.5-2.5-16-13.5-37-21-36.5-5-19.5-56-305v-23l4-21.5 12.5-25.5 31.5-59 14-14 99-79.5 19-17.5 36.5-48 31-48.5 16-24.5 97-103.5 45-70.5 47-73 23.5-36.5 9-9 35-22 31-21 21.5-15.5 12.5-19.5 1.5-13-4-20.5-13-27.5-.5-22 7-17.5 22.5-18.5 12.5-17 4.5-17.5v-19l-3-21.5-9-18.5-14.5-18-14.5-12.5L5517 4700l-12.5-17-8.5-22-5-25-9-17-15-17-20.5-11-101.329-11.871L5328 4573l-24.5-12.5-34-20.5-72-44-15-5.5-20.5-8.5-39.5-9.5-20.5-.5-62-2.5-14-5-10-5-12.5-9-10.5-9-71.5-88.5-12.5-8-16-9-49-20.5-13-8.5-13-13.5-14-16.5-8-20.5-4.5-23.5.5-16.5 5.5-34 18-67 10-36.5 14.5-81 11-61 1-26.5-5-23.5-9-24-13-20.5-20.5-20-15.5-10.5-16-6-20-6.5-68-10.5-17.5-9-23-16-88.5-80.5-107.5-99.5-105-97-28-31.5-11.5-25.5-7-28 2.5-28.5 2.5-50-2-27.5-11.5-30.5-19-38-12.5-30.5-3.5-25.5" fill="none" stroke="#6ac2ee" stroke-width="5" stroke-linejoin="round"/><path d="M4395 3534l-35.5-23-25.5-7.5-37-5-265.5 3.5-17 5.5-193.5 46-20.5.5-15-1.5-13-6-18.5-17.5-17.5-27.5-12.5-30-4.5-16.5-4-33.5-11.5-17-13.5-6.5-22-3.5-22.5-1h-50l-22 1.1" fill="none" stroke="#6ac2ee" stroke-width="5" stroke-linejoin="round"/><path d="M4904.5 6939l-16.5-9-11.5-10-8.817-14.107-16.76-34.317-7.759-26.899-3.367-40.76 16.519-45 14.651-21.398 21.152-28.05 29.64-44.969 9.24-20 21.5-49.5 6-23-.5-20-.5-27.5-3-24.5-9.5-23.5-14.5-38-20.5-48-20-31-22.413-29.39-32.087-37.11-36-29-52.5-27-143-63-27-16.5-25-19-15-18.5-12-23.5-32.5-58-11.5-18-15-22.5-18.5-27.5-14.5-23-14.5-27.5-7.5-11-7.578-9.874-75.422-42.126-49.5-25.5-50.5-18-37-14.5-30.5-7-49-7.5-32-.5-25 2.5-21.5 5.5-121 42.5-77 25.5-38 8.5-118.5 36-63 22.5-86 27-45 20-32 23.5-61 45-21.5 11-23.5 5.5-44.5 3.5-39.5 12.5-45 15.5-32 19-35.5 22.5-33.5 18.5-37.5 31.5-49 46.5-35 42-12.5 8.5-44 21-44 3.5-38-4-36 4-49.5 17.5-34.5 14.5-101.5 59-19.5 19.5-13.5 29-21 27.5-28 27.5-65 46-150.5 88.5L2237 6692l-29 11-98.5 24.5-31.5 5-12 6-42.5 21.5-40 27.5-13.5 17-13.5 14-26 17-19.5 9-20 10.5-53.5 9.5-29.5-1.5" fill="none" stroke="#f68b11" stroke-width="5" stroke-linejoin="round"/><path d="M6131.473 4709.237l-31.82 4.242-12.02 3.536-25.456 21.213-23.335 16.97-33.941 7.072-29.698 3.535-62.226 23.335-17.678 5.657-12.728 15.556-43.84 130.815-9.193 53.74-19.091 38.184-26.87 38.183-14.85 11.314-19.092 13.435-42.426 25.456-33.234 32.527-16.263 18.385-21.92 37.476-12.022 47.376 2.829 24.042 4.242 19.799v16.263l-9.192 14.85-101.823 112.43-36.77 18.384-18.385 12.021-76.367 59.397-47.376 14.85-57.983-3.536-19.799 1.414-28.991 14.85-46.255 12.727-16.47 13.642-38.351 30.314-16.895 16.196-38.204 71.75-5.446 15.384-2.453 14.847.516 17.687 7.953 16.988 236.626 234.8 28.607 18.558 17.558 3.873 48.027-.775 15.235 1.808 19.107 7.488 60.421 46.477 23.24 19.366 10.586 14.976 4.648 11.103 1.549 12.91-2.324 16.526-7.23 12.136-62.487 65.327" fill="none" stroke="#a73e10" stroke-width="5" stroke-linejoin="round"/><path d="M2289.811 5410.874l-3.822 4.606-52.088-1.965-6.364 2.121-4.243 45.255-9.192 10.607-24.749 16.263-10.28 7.582-8.43 23.954.151 8.702 4.417 12.795 16.263 31.113 3.665 9.481-6.052 6.965-28.476-7.877" fill="none" stroke="#dab006" stroke-linejoin="round"/><path d="M2172.914 5576.375l-62.91-15.765-26.334-31.177-2.811-8.289 5.964-8.634 14.142-19.8 11.313-21.212 9.87-17.66 2.216-19.463 21.856-43.487 21.92-57.983 15.238-43.888-1.264-58.708" fill="none" stroke="#dab006" stroke-linejoin="round"/><path d="M2184.748 5233.476l13.09-.273 55.155 12.02M2284.812 5250.88l6.364 13.436v63.639" fill="none" stroke="#dab006" stroke-width="5" stroke-linejoin="round"/><path d="M2291.176 5327.955l-.742 66.688-.623 16.232-.406 12.589 5.318 5.877 5.978 1.49 17.288-8.853M2184.748 5233.476l-2.634-3.167-1.886-33.169.586-33.234 4.15-14.213 2.816-24.942-8.809-22.825-16.228-14.635-22.18-8.945-14.85-7.778-4.242-10.606 10.606-14.143 12.021-9.192 14.85-.707 44.547 16.264 9.9 3.535 22.627-6.364 34.648-9.9 23.335-13.434 11.313-17.678 4.461-9.072-.241-27.892 3.771-4.67 20.668 5.23 2.778 6.942" fill="none" stroke="#dab006" stroke-linejoin="round"/><path d="M2291.176 5327.955l-3.826 4.19-23.196.276-4.157 3.742-.157 23.146 3.724 2.95h23.63l4.206-4.104M2305.318 5008.343l4.035-.779 13.906 5.474 5.594-3.069M2162.743 5087.291l20.342 3.272 14.762-2.354 11.01-5.62 5.518-.04 27.304 33.274 19.907.751" fill="none" stroke="#dab006" stroke-linejoin="round"/><path d="M2261.586 5116.574l17.57.663 14.849 4.95" fill="none" stroke="#dab006" stroke-width="5" stroke-linejoin="round"/><path d="M2180.814 5163.906l-6.83 2.073-3.016 7.827 1.998 9.499-9.363 25.538 1.585 9.781 16.141.298" fill="none" stroke="#dab006" stroke-linejoin="round"/><path d="M4783.728 7136.734l22.627 5.657 24.042 1.414 6.364-2.121 9.9-10.607 33.233-53.033 10.607-14.142 7.07-8.485 11.315-16.97" fill="none" stroke="#9f5443" stroke-width="5" stroke-linejoin="round"/><path d="M6534 45.5L6477 76l-100.5 67.5-130 74-25 9.5-42.5 13-28 11-175.5 174-21 31.5-52.5 94-61 94.5-12.5 24-6.5 46.5-13.5 100.5-16 47.5-69 121.5-15.5 73-34.5 77.5-18 31-41 40-32 42-22 31-112 96-25 11-43.5 13-50.5 26L5203 1489l-25 11-31.5 7-102.5 17.5-74.5 27-51.5 34.5-44 49-30 49.5-17 17-30 14-101.5 16.5-51 1.5-29 6-24.5 16.5-32.5 43-64.5 81-81 61.5-84.5 44-22 19.5-27.5 42-31 36-39.5 83.5-10 37 1.5 27.5 34.5 54 20 34 16.5 25 10.5 46 13 24.5 33 22 50-.5 26 4 6.5 11 14 93 7 33.5 14.5 25 24.5 28 8 18.5-1.5 17.5-5 13-55 34-59 37-53.5 95-11.5 33.5-13 16.5-19 4h-10l-19.5-4-31.5-13.5-84.5-55-26-6.5h-23.5l-343 5.5-43.5 6.5-78 .5-64.5-5-145 3-37 16.5-16 12.5-9.5 12-5.5 13 9.5 360.5-11 29.5-15 25.5-8 23" fill="none" stroke="#00a6df" stroke-width="5" stroke-linejoin="round"/><path d="M4485.5 2866l85.5-14.5 15-5.5 20.5-26.5 14.5-28.5-1-17-70-76.5-55.5-71-5.5-28.5 7.5-44 31-122.5 10-93.5-1.5-57 2.5-26.5-11-27L4422 2116l-159.5-138.5-86.5-78-8-21-23.5-73-12-64.5-18.5-24-27.5-14.5-341.5-69-126-24-31 1.5-78.5 13.5-55.5.5-42-3.5-29 6.5-288 171-145.5 127.5-30.5 19.5-36.984 14.384-125.277 31.475-15.055 16.242-26.317 51.25-39.368 57.65-32.5 37.5-29 17-243.5 101-53.5 5.5-57.5 2.5-24.5 7.5-35.5 18-28 2.5-65.5-5-79 25-119.5 3.5-223.5 3.5-58-17-45-2-38-10-57-9-30.5.5-20 4.5L947.5 2757l-.5 98.5 5 12 26.431 18.252 36.198 5.434 32.488 15.225 36.584 20.145 34.514 30.075 8.731 14.586.738 34.75 1.329 99.052.702 34.307-5.297 47.67-18.538 35.42-22.841 32.443-45.353 49.655-48.331 45.021-11.586 13.242-6.29 15.228-1.324 14.896 2.317 21.518 6.952 21.186 6.952 13.242 72.497 72.166 7.614 12.91 57.931 128.775 5.297 23.503v16.552l-18.87 60.25-12.579 30.455-6.62 28.138-1.325 19.531 1.656 14.566 2.669 7.864 11.01 15.42 21.394 16.21" fill="none" stroke="#96499a" stroke-width="5" stroke-linejoin="round"/><path d="M3561.365 3339.117l-40-35.166-12.315-16.217-15.483-62.267-22.068-89.967-5.625-7.41-11.623-15.65-6.969-11.623-5.816-18.7-1.062-156.266-5.112-99.215L3423.5 2714.5l-7.5-95-1.5-173.5-9-43-71-172.5-49.5-75.5-88-121.5-86-77-27.5-29.5-51.5-22.5-30.5-29.5-30.5-35.5-25.5-52.5-25-61-177-258-39-63.5 1.5-23.5 14.5-17 346-260 12.5-19.5 17.5-44" fill="none" stroke="#da251e" stroke-width="5" stroke-linejoin="round"/><path d="M4256.5 3113l-1.518-20.709 10.517-26.29-3.5-38-2-51.5 1.5-61.5-6.5-10-21.5-4-25.5-9.5-55.5 17.5-33.5 17-19 15-36 9-388.5 9.5-15.506 7.924-14.608 21.569-9.387 13.12L3599 3021l-31.952 17.733-24.048 2.267-285 4.5-21-6-18-13.5-33.5-26.5-22-18-14.5-3-19 2.5-173 35-388.5 70.5-35-6.5-68.5-21h-125l-91-34-159-67-22-7-264.406 9.464L1780 2979l-47.5 60-14.5 15.5-27 9-90 9.5-198-.5-36 4.5-124 1.5-58-2-16-7-18-19-18-30-2.585-108.232-9.44-25.284L1088 2850.5l-29-30-185-190L712 2491l-119.5-107-70-63.5-9-20.5-2-27.5-4.5-50.5-12-27.5-29.5-36-75-157-107-247.5-26.5-120.5-28.5-54.5-26.5-36.5-48-47-28.5-50-21-31.5-60-116" fill="none" stroke="#13ae58" stroke-width="5" stroke-linejoin="round"/><path d="M1108 3887l107.5 80.5 25.493 9.3 14.585 2.244L1274 3968l60-49 12-72 16-31 18.5-42 21-14.5 48.652-10.052 66.486 8.623 82.596 29.195L1650.5 3789l33-6 20.5-9.5 8-10 3-20-21.591-110.986-3.909-61.513-1-152 69-230.5 10.5-17.5 15-10 15-3 125-3 27 5 48 10 37 16 136.534-1.034 12.605-10.987 5.325-16.484 2.944-89.892L2205.1 3029l9.9-28 14-31 12.5-52 32.5-58.5 11-11.5 21-5 35 2 25.5 5.5 53.5 44 39 37 10.5 1.5 13.5-3.5 94.5-88.5 29.5-15 27.5-3 123.5-2.5 13.5-6.5 37-21 37.5-23 19.5-6 125-2.5 77.5-16.5 36-1.5 35.5 9.5 21 6 50-6 34.5-3.5 30.416 2.583 11.534 7.217 8.02 14.097-1.307 51.629-11.813 47.94-3.55 41.534 4.584 25.516 20.116 15.984 12.5 8 48.5-2 21.083-3.906 36.062-6.791 25.906-.158 21.24 3.405 18.71 1.95 76-5.5 68-2 34.094-5.659 23.126-14.367 14.234-16.316 13.88-13.291L3730 2895l202.5-6.5 20.5 2.5 23 11 36 21.5 28.5 12 28.5 1 53-1.5 19-1 225.5-40.5 154.5-28 55.5-8.5 108-13.5 21.5-2.5" fill="none" stroke="#b34e20" stroke-width="5" stroke-linejoin="round"/><path d="M5491 6838l20-5 24 8 19.5 17.5 19.5 13 17.748 3.578 19.502.845L5624 6878l8.5-3 55-29.5 183-100.5 82.5-48.5 16-7 15 1 11 6 8 14.5 34 49.75 3.5 5.25 9 5.5 16.5 4 18.105-4.233 39.248-13.12 20.364-15.01 41.496-36.677 39.952-59.75 17.324-17.325 18.385-13.788 53.033-22.981 91.216-36.416 14.143-7.072 28.991-4.95 25.456 2.83 23.334 20.505 41.72 48.79 6.364 22.628 2.828 25.456-2.828 21.92-9.193 18.385-6.364 12.728-16.263 14.142-57.983 44.548" fill="none" stroke="#915fb6" stroke-width="5" stroke-linejoin="round"/><path d="M3072.25 6201l9.5-8.75 5.75-4.75 14 .5 16.5 7.5 12 9.5 7 15 2.5 13 .5 27-6 36.5.5 21.5 4.5 20 18.5 56 8.5 16 13 8 30.5 9.5 42 9.5 33.5 4.5 25.5 3 11-1.5" fill="none" stroke="#de6dbd" stroke-width="5" stroke-linejoin="round"/><path d="M6008.5 7258.5l26.5-55 19.5-43.5 17-36 3.5-12-1.5-26.5-6.5-15-48.5-59.5-3-3.5-6.5-2.5-19.5 8.5-14.5 6.5-71.5-1-45.5-17.5-15-3.5-19.5-6.5-12.926-9.558-14.075-16.442-16.5-23.5-8-4.5-19-3-40.5-1-36.5-1.5-11.5-2-8.5-3.5-17-14.5-16.5-24-14-28.5-10.5-14-14-8.5-49-12.5-34 6.5-72 14.5-5.5 3.5-28 31-5 19-2 37-12.5 32-17 6-55 14.5-34.5 10-13 .5-52.5 22-33.5 10-16.5 4.5-26.5 3.5-40.5 3-36-4.5-63.5-20-18-10-46.5-13-21-8-13-13-36-47-23-16-9-4.5-26.5-7-52.5-12-26-3-22 13-31.5 41.5-20 8-47.5-3.5-16-1.5-30 4.5-40.5 28-50 17" fill="none" stroke="#2d7bc8" stroke-width="5" stroke-linejoin="round"/><path d="M2291.5 2980l11.5 7.5 23-1.5 19 21 1.5 13 12 1 1 12.5 7 2 16.5 18 6.5.5 16 20.5v45l-15.5 15-33.5 1.5-8.5-7.5-13.5 1-6.5-4.5-2-8.5 7-4 1.5-11.5-5-5-9-3-9-17-15-12.5-4.5-15-7-5-40.5-14.5-5-9.5 8-23z" fill="none" stroke="#dd127b" stroke-width="5" stroke-linejoin="round"/><text style="-inkscape-font-specification:Sans" y="-743.03912" x="-410.54691" font-weight="400" font-size="144px" font-family="Sans"><tspan y="-743.03912" x="-410.54691">2020</tspan></text><text style="-inkscape-font-specification:Sans" y="7647.9609" x="-410.54691" font-weight="400" font-size="144px" font-family="Sans"/></svg>