<svg xmlns="http://www.w3.org/2000/svg" width="2600" height="2550"><path d="M704.364 1081.06l31.514-13.159 33.206 9.497 17.94 19.262 49.008 23.154 29.473.412 41.096-6.94 18.302-7.813 15.27-16.629 51.804-54.268 12.194-10.51 17.27-8.473 99.322-33.22 15.254-10.848 7.119-11.864 10.847-24.746 5.763-7.796 12.203-6.441 46.102-11.525 384.746-34.916 26.78 3.39 21.694 10.17 40.678 16.27h11.865l16.949-5.423 188.813-96.61 164.407-110.848 18.305-25.423 12.204-22.373 8.135-9.492 14.237-4.745 46.441-11.865 17.966-6.102" fill="none" stroke="#00b0b0" stroke-width="5" stroke-linejoin="round"/><text x="89.453125" y="2447.9609" style="line-height:125%;-inkscape-font-specification:Sans" font-weight="400" font-size="144px" font-family="Sans" letter-spacing="0" word-spacing="0"/><text x="89.453102" y="206.96097" style="line-height:125%;-inkscape-font-specification:Sans" font-weight="400" font-size="144px" font-family="Sans" letter-spacing="0" word-spacing="0"><tspan x="89.453102" y="206.96097">1980</tspan></text></svg>