<svg xmlns="http://www.w3.org/2000/svg" width="2600" height="2550"><path d="M648.56 1094.237l23.39-2.034 28.474 2.373 29.491 10.848 11.187 4.068 166.61 25.254 18.135-4.915 17.628-11.865 18.983-21.356 36.61-62.034 9.83-11.186 12.543-7.797 99.322-33.22 15.254-10.848 7.119-11.864 10.847-24.746 5.763-7.796 12.203-6.441 46.102-11.525 384.746-34.916 26.78 3.39 21.694 10.17 40.678 16.27h11.865l16.949-5.423 188.813-96.61 164.407-110.848 18.305-25.423 12.203-22.373 8.136-9.492 14.237-4.745 46.441-11.865 17.966-6.102 19.655-8.997 34.381-29.13 50.14-95.026 2.865-15.28-7.162-73.54 10.505-21.01 15.28-11.46 39.157-108.398 30.562-33.427 17.19-18.623 7.163-28.651 7.64-17.669 24.832-7.162 22.444-12.893 11.938-11.461 12.415-18.146 9.073-6.685" fill="none" stroke="#00b0b0" stroke-width="5" stroke-linejoin="round"/><path d="M672.627 122.373l3.39 113.22 9.491 17.627 75.933 95.594 6.78 25.084-4.068 18.983-54.916 113.899.678 48.135-3.39 21.695-9.491 23.051-59.661 80-12.881 10.847-60.34 25.763-13.559 10.848-12.881 14.915-24.407 55.593-1.356 16.95 35.254 166.101 38.644 76.61 8.136 5.424 42.034-4.746 8.814 5.424 41.355 92.881v17.627l-10.847 73.899-2.034 36.61.678 8.135 28.475 14.238 42.034 48.135 14.915 46.102 8.135 34.576 2.034 25.085v11.525l-48.135 103.73 2.712 35.931-7.458 8.814-136.95 37.288-10.847 6.78-12.203 16.949.678 96.271-6.78 35.254" fill="none" stroke="#2d9568" stroke-width="5" stroke-linejoin="round"/><text x="89.453125" y="2447.9609" style="line-height:125%;-inkscape-font-specification:Sans" font-weight="400" font-size="144px" font-family="Sans" letter-spacing="0" word-spacing="0"/><text x="89.453102" y="206.96097" style="line-height:125%;-inkscape-font-specification:Sans" font-weight="400" font-size="144px" font-family="Sans" letter-spacing="0" word-spacing="0"><tspan x="89.453102" y="206.96097">2000</tspan></text></svg>