<?xml version="1.0" encoding="UTF-8" standalone="no"?>
<!-- Created with Inkscape (http://www.inkscape.org/) -->

<svg
   xmlns:dc="http://purl.org/dc/elements/1.1/"
   xmlns:cc="http://creativecommons.org/ns#"
   xmlns:rdf="http://www.w3.org/1999/02/22-rdf-syntax-ns#"
   xmlns:svg="http://www.w3.org/2000/svg"
   xmlns="http://www.w3.org/2000/svg"
   xmlns:xlink="http://www.w3.org/1999/xlink"
   version="1.1"
   width="2396"
   height="3294.5"
   id="svg2">
  <metadata
     id="metadata8">
    <rdf:RDF>
      <cc:Work
         rdf:about="">
        <dc:format>image/svg+xml</dc:format>
        <dc:type
           rdf:resource="http://purl.org/dc/dcmitype/StillImage" />
        <dc:title></dc:title>
      </cc:Work>
    </rdf:RDF>
  </metadata>
  <defs
     id="defs6" />
  <image
     xlink:href="file:///home/alexander/timelines/timelines/bne/../streetmap/bneosm.png"
     x="0"
     y="0"
     width="2396"
     height="3294.5"
     id="image10"
     style="display:none" />
  <path
     d="m 1382.5,1875 -31,-15 -17,-12.5 -47.5,-55.5 -2,-19.5 -2.5,-42.5 -13,-44.5 -44.5,-74.5 -27,-45 -13.5,-12.5 -25,-12.5 -10,-14.5 -20,-45.5 -1.5,-13.5 9.5,-17 36,-16 28.5,3.5 30,7 25,7.5 16,4.5 22.5,-1 41.5,-31.5 10.5,-14 23.5,-57.5 32,-41.5 45.5,-52.5 19.5,-38.5 7,-32.5 -4,-78.5 3.5,-26 26,-52 9.5,-29.5 -4,-38 -12.5,-43 5.5,-26.5 29.5,-38.5 11.5,-80.5 24.5,-75 21,-16 40,-14.5 20.5,0 26,0 19,-13.5 65.5,-95.5 39.5,-60.5 13,-70.5 8.5,-13 62,-45 17,-25.5 7.5,-34"
     id="path2987"
     style="fill:none;stroke:#dd0000;stroke-width:5;stroke-linecap:butt;stroke-linejoin:round;stroke-miterlimit:4;stroke-opacity:1;stroke-dasharray:none" />
  <path
     d="m 1139,1450 -144.5,56.5 -13,14.5 -12,18.5 -49.5,51.5 -5.5,17 -10.5,46 -32,65.5 -11,44.5 -13,15.5 -38,19 -86,58 -28.5,11.5 -36.5,10 -16,14 -5,16 0,80.5 -9,30 -24.5,34 -16,57.5 -1,65 62,158 24,67 14,136 -2,50 -15,121 -12,21 -15,12 -34,17 -19.5,31.5 -32,32.5 -26.5,16.5 -39,9 -24.5,24.5 -56,77 -22.5,17.5 -34,11.5 -53.5,7"
     id="path3757"
     style="fill:none;stroke:#dd0000;stroke-width:5;stroke-linecap:butt;stroke-linejoin:round;stroke-miterlimit:4;stroke-opacity:1;stroke-dasharray:none" />
  <path
     d="m 2347.5,3178.5 -29.5,-51 -25.5,-22 -80.5,-51.5 -87,-53 -81.5,-58.5 -50,-48.5 -34,-40.5 -81.5,-107.5 -43,-61.5 -37.5,-49 -21,-44.5 -18,-74.5 -14,-83 -17.5,-68 -20.5,-40.5 -32,-40.5 -21.5,-32 -33,-27.5 -83.5,-46 -11,-9.5 -17.5,-29 -19,-44 12.5,-89.5 5.5,-40.5 -8.5,-39 -42,-55.5 -30,-28.5 -13,-35.5 -17.5,-63 -17,-9.5 -37.5,-6.5 -17,-16.5 -43.5,-7.5 -16.5,-18 -45,-76.25 -22.75,-38.25 1.5,-5.5 33,-17.5 41.5,-25 12.25,-7 15,-12.5 1.5,-4.5 -41.5,-42.25 -44.75,-11.25 -33,-7.75 -2.25,-5.5 -6.25,-15.75 -7.5,-44 -3.25,-26.75 5.25,-16.25 11.5,-10.75 15.5,-3.5 8,-1.5 6.75,-9 -0.5,-11 -7.75,-27.25 8.75,-54.75 8.5,-13.5 24,-9.25 18,-1.25 27.5,7.25 19.5,4.5 8,3.5 6.5,7.5 7.5,-0.5 18,-7.5 6.5,-16 2.5,-43 -2.5,-15 5.5,-30 23,-18.5 -0.5,-36"
     id="path3759"
     style="fill:none;stroke:#009090;stroke-width:5;stroke-linecap:butt;stroke-linejoin:round;stroke-miterlimit:4;stroke-opacity:1;stroke-dasharray:none" />
  <path
     d="m 1182.6361,1439.4054 -7.7781,0 -18.0313,8.1317 -2.7264,-0.4267 -12.5236,-13.2878"
     id="path3761"
     style="fill:none;stroke:#009090;stroke-width:5;stroke-linecap:butt;stroke-linejoin:round;stroke-miterlimit:4;stroke-opacity:1;stroke-dasharray:none" />
  <path
     d="m 1395.4752,1745.2291 8.1318,3.5355 40.305,7.071"
     id="path3763"
     style="fill:none;stroke:#009090;stroke-width:5;stroke-linecap:butt;stroke-linejoin:round;stroke-miterlimit:4;stroke-opacity:1;stroke-dasharray:none" />
  <path
     d="m 1475.5,1896.5 -13.5,19 -14.5,6.5 -14.5,-0.5 -34.5,-4 -9.5,-6 -7,-19 -5,-12.5 -9,-5.5 -8.5,-2 -3.5,7 -13.5,34.5 -21,17 -23.5,8 -79.5,-6.5 -20,5.5"
     id="path3765"
     style="fill:none;stroke:#009090;stroke-width:5;stroke-linecap:butt;stroke-linejoin:round;stroke-miterlimit:4;stroke-opacity:1;stroke-dasharray:none" />
  <path
     d="m 1382,1048 0.5,-13 7.5,-61 23,-157.5 13.5,-73.5 29,-46 1,-22.5 -18,-29 -15.5,-15 -9,-32 -15.5,-24 2.5,-37 -13,-59.5 0,-52.5 -9,-81 8.5,-60 -4.5,-34.5 0,-20.5 -4.5,-24"
     id="path3767"
     style="fill:none;stroke:#009090;stroke-width:1;stroke-linecap:butt;stroke-linejoin:round;stroke-miterlimit:4;stroke-opacity:1;stroke-dasharray:none" />
  <path
     d="m 1173.5,1325.5 -7.5,-0.5 -7.5,4.5 -4,-0.5"
     id="path3769"
     style="fill:none;stroke:#009090;stroke-width:5;stroke-linecap:butt;stroke-linejoin:round;stroke-miterlimit:4;stroke-opacity:1;stroke-dasharray:none" />
  <path
     d="m 1156,1329.5 -6.5,-5.5 -36,-73.5 -7,-32.5 3,-27 -4,-11.5 -23,-34.5 -19.5,-24 -12.5,-37.5 7.5,-53 -2.5,-17.5 -27.5,-83.5 1.5,-28 -2,-12.5 -24,-19 -23,-38 -21.5,-44.5 -8,-40.5 8,-50 16,-25.5 27.5,-27 19,-3.5 17,1 14.5,-9.5 6.5,-23 8.5,-47.5 45.5,-259.5 48.5,-303.5000017"
     id="path3771"
     style="fill:none;stroke:#009090;stroke-width:1px;stroke-linecap:butt;stroke-linejoin:miter;stroke-opacity:1" />
  <path
     d="m 1157.5,1449 5.5,11 -0.5,7 -7,4 -34,12 -43,30 -86,85.5 -54,55 -32.5,59 -25,17 -7,10.5 -8,15.5 -16,2.5 -26,27.5 -32.5,20.5 -44,26.5 -32.5,12.5 -60,18 -15.5,19 -21,42 -19,4.5 -42,9.5 -34,16.5 -31.5,33.5 -44,32 -35,43.5 -21.5,18 -35.5,11 -23.5,7.5 -65.5,-20 -17,6 -25.5,17.5 -10.5,16 -22,-0.5 -21,-8.5 -13,-16.5 -24.5,-11.5 -10.5,7.5 -10,34.5 -10,4.5 -33.5,7.5 -13.5,24.5 -11,28.5 -15.5,6.5 -31,1.5"
     id="path3773"
     style="fill:none;stroke:#009090;stroke-width:1px;stroke-linecap:butt;stroke-linejoin:miter;stroke-opacity:1" />
  <path
     d="m 587.5,1930.5 -6.5,9 -9.5,52"
     id="path3775"
     style="fill:none;stroke:#009090;stroke-width:1px;stroke-linecap:butt;stroke-linejoin:miter;stroke-opacity:1" />
  <path
     d="m 1142,1435 -10,-12.5 -24.5,-20 -24.5,-9 -50.5,-13.5 -36,-17.5 -24.5,-22.5 -16.5,-7.5 -16.5,9.5 -10,0.5 -27.5,-12.5 -22.5,2.5 -10.5,9.5 -32.5,8.5 -29.5,0 -6.5,-7.5 -10.5,-14 -23,-2.5 -10,-21 -38.5,-18 -22.5,-37 -44.5,-40 -2.5,-22.5 -14,-12.5 -42,-6 -31,6.5 -17.5,-3 -35,15.5 -14.5,-2.5 -14,-30.5 -40,-11 -46.5,2 -68,-21 -62,-3.5 -60.5,-23 -44,-5.5 -28.5,-15 -14,7.5 -18,25 -12.5,7"
     id="path3777"
     style="fill:none;stroke:#009090;stroke-width:1px;stroke-linecap:butt;stroke-linejoin:miter;stroke-opacity:1" />
  <path
     d="m 1442.5,1755 4.5,7 19,4 4,17.5 11.5,23 17,15.5 14.5,16 11,5 61,8 20.5,14 6.5,17 19,7 16.5,28.5 2,31 3.5,3 20,-4 28.5,-24.5 31.5,-14.5 87,-57.5 66,-9.5 22,-8.5 47.5,21 66.5,10.5 81,-1 12,8.5 22.5,31 13.5,3 55,-8.5 69.5,11.5 55.5,46.5 33,15.5 7.5,11 -3,26.5 -6.5,35 -6,9.5 1.5,7.5 7.5,3.5 13,1 19.5,-4.5"
     id="path3779"
     style="fill:none;stroke:#009090;stroke-width:1px;stroke-linecap:butt;stroke-linejoin:miter;stroke-opacity:1" />
  <path
     d="m 1504,1993 5.5,6 7,0.5 2.5,5 -18,100.5 -19,31 -7.5,39 12.5,6 0.5,22.5 3,10 24.5,6 26,14.5 59,19.5 7,10 -46,258 -6,9.5 -20,3 -21,-3 -13.5,15.5 -8,22 7.5,48.5 -9,59 3.5,13.5 33,62 -13.5,87 -16,98.5 3.5,4.5 132,23 18.5,-95.5 23,-17 1,-14.5 -22,-21.5 -16,-27 1,-10 3.5,-1.5 11.5,11.5 25,14 16,3.5 24,-6.5 16.5,-14 9,-37 13.5,-4.5 53,4.5 12,7.5 35,-15.5 23.5,-3 19,19.5 134.5,23 11,9.5 6.5,76.5 11.5,22.5 26.5,25.5 39,21.5 9,13.5 -5.2825,9.4645"
     id="path3781"
     style="fill:none;stroke:#009090;stroke-width:1px;stroke-linecap:butt;stroke-linejoin:miter;stroke-opacity:1" />
  <path
     d="m 1878.4292,2745.7851 3.8891,22.981 -17.3242,112.7835 -9.5459,30.4056 -2.4749,42.78 -58.3363,341.179"
     id="path3783"
     style="fill:none;stroke:#009090;stroke-width:1px;stroke-linecap:butt;stroke-linejoin:miter;stroke-opacity:1" />
  <path
     d="m 2082.0759,2969.2309 25.1023,4.2426 14.1421,-1.0606 13.0815,-14.4957 9.1924,-1.0607 2.8284,5.6569 26.163,51.2652 10.9601,12.0208 6.7176,47.3762 25.1022,68.2358 27.2237,30.052 44.9012,70.3571 72.832,54.4473"
     id="path3785"
     style="fill:none;stroke:#009090;stroke-width:1px;stroke-linecap:butt;stroke-linejoin:miter;stroke-opacity:1" />
  <text
     x="89.453125"
     y="3192.4609"
     id="text3791"
     xml:space="preserve"
     style="font-size:144px;font-style:normal;font-weight:normal;line-height:125%;letter-spacing:0px;word-spacing:0px;fill:#000000;fill-opacity:1;stroke:none;font-family:Sans;-inkscape-font-specification:Sans"><tspan
       x="89.453125"
       y="3192.4609"
       id="tspan3793">2010</tspan></text>
  <text
     x="89.453178"
     y="206.96085"
     id="text3791-5"
     xml:space="preserve"
     style="font-size:143.99993896px;font-style:normal;font-weight:normal;line-height:125%;letter-spacing:0px;word-spacing:0px;fill:#000000;fill-opacity:1;stroke:none;font-family:Sans;-inkscape-font-specification:Sans"><tspan
       x="89.453178"
       y="206.96085"
       id="tspan3793-6">2010</tspan></text>
</svg>
