<?xml version="1.0" encoding="UTF-8" standalone="no"?>
<svg
   xmlns:dc="http://purl.org/dc/elements/1.1/"
   xmlns:cc="http://creativecommons.org/ns#"
   xmlns:rdf="http://www.w3.org/1999/02/22-rdf-syntax-ns#"
   xmlns:svg="http://www.w3.org/2000/svg"
   xmlns="http://www.w3.org/2000/svg"
   xmlns:xlink="http://www.w3.org/1999/xlink"
   version="1.1"
   viewBox="0 -750 4350 6300"
   width="4350"
   height="6300"
   id="svg2">
  <metadata
     id="metadata8">
    <rdf:RDF>
      <cc:Work
         rdf:about="">
        <dc:format>image/svg+xml</dc:format>
        <dc:type
           rdf:resource="http://purl.org/dc/dcmitype/StillImage" />
        <dc:title></dc:title>
      </cc:Work>
    </rdf:RDF>
  </metadata>
  <defs
     id="defs6" />
  <image
     xlink:href="../streetmap/bneosm.png"
     x="900"
     y="955.5"
     width="2396"
     height="3294.5"
     id="image10"
     style="display:none" />
  <path
     style="fill:none;fill-rule:evenodd;stroke:#a70532;stroke-width:5;stroke-linecap:butt;stroke-linejoin:round;stroke-miterlimit:4;stroke-dasharray:none;stroke-opacity:1"
     d="m 2389,2010 -1.5,-15.5 -11,-13 -27.5,-22 -33.5,-35 -16.5,-8 -15.5,1.5 -58.5,26 -15,2.5 -51,-6 -29.5,5.5 -99.5,-17.5 -12.5,-8 -11.5,-20 -24,-46.5 -50,-43.5 -44,-38 -23.5,-33.5 -13.5,-12 -71,-13 -41.5,-23 -42.5,-7 h -13 l -16,4 -14,-4 -7,-5.5 -30,-59 -14.5,-12.5 -83.5,-46.5 -14.5,-15 -51,-77 -12.5,-9.5 -69,-16.5 -9,1 -14,15.5 -27.5,38.5 -116.5,74 -17.5,1 -19,-9 -12,-8 -16,-24.5 -43,-19 -18.5,-11.5 -106.5,-93.5"
     id="path4937" />
  <path
     style="fill:none;fill-rule:evenodd;stroke:#a70532;stroke-width:5;stroke-linecap:butt;stroke-linejoin:round;stroke-miterlimit:4;stroke-dasharray:none;stroke-opacity:1"
     d="m 2284,2831.5 24.5,23 32.5,13 39,9.5 36,-6.5 142,-53.5 29.5,-20 23,-28 16.5,-52 25,-35.5 32,-31 26.5,-9.5 14,-9.5 2.5,-19.5 v -21 l 10,-14 14.5,-8.5 3,-7 7,-24.5 13,-12.5 16.5,-15.5 11,-27 13.5,-17 21,-2.5 18,4 15,-7 79,-43.5 117,-24.5"
     id="path4935" />
  <path
     d="m 2804,1268 -7.5,34 -17,25.5 -62,45 -8.5,13 -13,70.5 -39.5,60.5 -65.5,95.5 -19,13.5 h -26 -20.5 l -40,14.5 -21,16 -24.5,75 -11.5,80.5 -29.5,38.5 -5.5,26.5 12.5,43 4,38 -9.5,29.5 -26,52 -3.5,26 4,78.5 -7,32.5 -19.5,38.5 -45.5,52.5 -32,41.5 -23.5,57.5 -10.5,14 -41.5,31.5 -22.5,1 -16,-4.5 -25,-7.5 -30,-7 -28.5,-3.5 -36,16 -9.5,17 1.5,13.5 20,45.5 10,14.5 25,12.5 13.5,12.5 27,45 44.5,74.5 13,44.5 2.5,42.5 2,19.5 47.5,55.5 17,12.5 31,15 6,14.5 1,12 -10,23 -31,51 -4.5,18.5 0.5,18.5 8.5,46 -2.5,21.5 -9.5,35 -5.5,9.5 -59,58 -17,11 -51,23.5 -12,12 -30.5,58 -23.5,101 0.5,30.5 3,56 2,43.5 -13.5,50.5 -11.5,31.5 v 20 l 6.5,19 96.5,81 10,12 30.5,51 3.5,34 4,14 49.5,41 76.5,53.5 14,17 21.5,27 14.5,44"
     id="path2987"
     style="fill:none;stroke:#a70532;stroke-width:5;stroke-linecap:butt;stroke-linejoin:round;stroke-miterlimit:4;stroke-dasharray:none;stroke-opacity:1" />
  <path
     d="m 2039,2405.5 -144.5,56.5 -13,14.5 -12,18.5 -49.5,51.5 -5.5,17 -10.5,46 -32,65.5 -11,44.5 -13,15.5 -38,19 -86,58 -28.5,11.5 -36.5,10 -16,14 -5,16 v 80.5 l -9,30 -24.5,34 -16,57.5 -1,65 62,158 24,67 14,136 -2,50 -15,121 -12,21 -15,12 -34,17 -19.5,31.5 -32,32.5 -26.5,16.5 -39,9 -24.5,24.5 -56,77 -22.5,17.5 -34,11.5 -53.5,7"
     id="path3757"
     style="fill:none;stroke:#a70532;stroke-width:5;stroke-linecap:butt;stroke-linejoin:round;stroke-miterlimit:4;stroke-dasharray:none;stroke-opacity:1" />
  <path
     d="m 3247.5,4134 -29.5,-51 -25.5,-22 -80.5,-51.5 -87,-53 -81.5,-58.5 -50,-48.5 -34,-40.5 -81.5,-107.5 -43,-61.5 -37.5,-49 -21,-44.5 -18,-74.5 -14,-83 -17.5,-68 -20.5,-40.5 -32,-40.5 -21.5,-32 -33,-27.5 -83.5,-46 -11,-9.5 -17.5,-29 -19,-44 12.5,-89.5 5.5,-40.5 -8.5,-39 -42,-55.5 -30,-28.5 -13,-35.5 -17.5,-63 -17,-9.5 -37.5,-6.5 -17,-16.5 -43.5,-7.5 -16.5,-18 -45,-76.25 -19.4471,-31.5735"
     id="path3759"
     style="fill:none;stroke:#e8881d;stroke-width:5;stroke-linecap:butt;stroke-linejoin:round;stroke-miterlimit:4;stroke-dasharray:none;stroke-opacity:1" />
  <path
     d="m 2082.6361,2394.9054 h -7.7781 l -18.0313,8.1317 -2.7264,-0.4267 -12.5236,-13.2878"
     id="path3761"
     style="fill:none;stroke:#e8881d;stroke-width:5;stroke-linecap:butt;stroke-linejoin:round;stroke-miterlimit:4;stroke-dasharray:none;stroke-opacity:1" />
  <path
     d="m 2295.4752,2700.7291 8.1318,3.5355 40.305,7.071"
     id="path3763"
     style="fill:none;stroke:#e8881d;stroke-width:5;stroke-linecap:butt;stroke-linejoin:round;stroke-miterlimit:4;stroke-dasharray:none;stroke-opacity:1" />
  <path
     d="m 2375.5,2852 -13.5,19 -14.5,6.5 -14.5,-0.5 -34.5,-4 -9.5,-6 -7,-19 -5,-12.5 -9,-5.5 -8.5,-2 -3.5,7 -13.5,34.5 -21,17 -23.5,8 -79.5,-6.5 -20,5.5"
     id="path3765"
     style="fill:none;stroke:#e8881d;stroke-width:5;stroke-linecap:butt;stroke-linejoin:round;stroke-miterlimit:4;stroke-dasharray:none;stroke-opacity:1" />
  <path
     d="m 2299,1500 2,-7 -13,-59.5 V 1381 l -9,-81 8.5,-60 -4.5,-34.5 V 1185 l -4.5,-24 -8,-24.5 -7,-46.5 -2.5,-12 7,-11 35.5,-13.5 37,-58.5 7,-40.5 76.9573,-463.51196 7.4033,-17.2743 23.4437,-18.50819 22.8268,-120.30319 -7.4033,-7.40327 -41.3349,13.57267 -4.9356,-3.70164 6.7864,-38.25022 -1.2339,-6.1694 -144.3638,-25.9115 -9.8711,-10.4879 -8.6371,-19.1252 -15.4235,-12.3388 -27.1453,-5.5524 -1.8509,-6.1694 20.359,-131.4081 6.1694,-2.4678 133.259,22.8268 1.8508,4.3186 -4.9355,35.1655"
     id="path3767"
     style="fill:none;stroke:#e8881d;stroke-width:1;stroke-linecap:butt;stroke-linejoin:round;stroke-miterlimit:4;stroke-dasharray:none;stroke-opacity:1" />
  <path
     d="m 2073.5,2281 -7.5,-0.5 -7.5,4.5 -4,-0.5"
     id="path3769"
     style="fill:none;stroke:#e8881d;stroke-width:5;stroke-linecap:butt;stroke-linejoin:round;stroke-miterlimit:4;stroke-dasharray:none;stroke-opacity:1" />
  <path
     d="m 2056,2285 -6.5,-5.5 -36,-73.5 -7,-32.5 3,-27 -4,-11.5 -23,-34.5 -19.5,-24 -12.5,-37.5 7.5,-53 -2.5,-17.5 -27.5,-83.5 1.5,-28 -2,-12.5 -24,-19 -23,-38 -21.5,-44.5 -8,-40.5 8,-50 16,-25.5 27.5,-27 19,-3.5 17,1 14.5,-9.5 6.5,-23 8.5,-47.5 45.5,-259.5 48.5,-303.5 16.9713,-99.5177 -11.7219,-19.1251 -37.0164,-10.488"
     id="path3771"
     style="fill:none;stroke:#e8881d;stroke-width:1px;stroke-linecap:butt;stroke-linejoin:round;stroke-opacity:1" />
  <path
     d="m 1487.5,2886 -6.5,9 -9.5,52"
     id="path3775"
     style="fill:none;stroke:#e8881d;stroke-width:1px;stroke-linecap:butt;stroke-linejoin:round;stroke-opacity:1" />
  <path
     d="m 2042,2390.5 -10,-12.5 -24.5,-20 -24.5,-9 -50.5,-13.5 -36,-17.5 -24.5,-22.5 -16.5,-7.5 -16.5,9.5 -10,0.5 -27.5,-12.5 -22.5,2.5 -10.5,9.5 -32.5,8.5 h -29.5 l -6.5,-7.5 -10.5,-14 -23,-2.5 -10,-21 -38.5,-18 -22.5,-37 -44.5,-40 -2.5,-22.5 -14,-12.5 -42,-6 -31,6.5 -17.5,-3 -35,15.5 -14.5,-2.5 -14,-30.5 -40,-11 -46.5,2 -68,-21 -62,-3.5 -60.5,-23 -44,-5.5 -28.5,-15 -14,7.5 -18,25 -12.5,7 -63.16548,16.9959 -12.72792,-2.8284"
     id="path3777"
     style="fill:none;stroke:#e8881d;stroke-width:1px;stroke-linecap:butt;stroke-linejoin:round;stroke-opacity:1" />
  <path
     d="m 2342.5,2710.5 4.5,7 19,4 4,17.5 11.5,23 17,15.5 14.5,16 11,5 61,8 20.5,14 6.5,17 19,7 16.5,28.5 2,31 3.5,3 20,-4 28.5,-24.5 31.5,-14.5 87,-57.5 66,-9.5 22,-8.5 47.5,21 66.5,10.5 81,-1 12,8.5 22.5,31 13.5,3 55,-8.5 69.5,11.5 55.5,46.5 33,15.5 7.5,11 -3,26.5 -6.5,35 -6,9.5 1.5,7.5 7.5,3.5 13,1 19.5,-4.5 13.141,0.474 9.161,6.5436 11.3423,16.141 7.8524,14.3959 16.141,10.0336 10.0335,4.7987 16.141,1.7449 16.1409,-6.1073 5.6712,-3.49 9.1611,-1.3087 5.6711,1.3087 2.6175,4.3624 -4.3625,23.1209 -6.1073,11.7785 0.8724,23.1208 -11.3423,64.1276 -5.6711,17.8859 v 25.7383 l -11.7785,57.1477 1.3087,2.1812 126.9464,23.5571"
     id="path3779"
     style="fill:none;stroke:#e8881d;stroke-width:1px;stroke-linecap:butt;stroke-linejoin:round;stroke-opacity:1" />
  <path
     d="m 2404,2948.5 5.5,6 7,0.5 2.5,5 -18,100.5 -19,31 -7.5,39 12.5,6 0.5,22.5 3,10 24.5,6 26,14.5 59,19.5 7,10 -46,258 -6,9.5 -20,3 -21,-3 -13.5,15.5 -8,22 7.5,48.5 -9,59 3.5,13.5 33,62 -13.5,87 -16,98.5 3.5,4.5 132,23 18.5,-95.5 23,-17 1,-14.5 -22,-21.5 -16,-27 1,-10 3.5,-1.5 11.5,11.5 25,14 16,3.5 24,-6.5 16.5,-14 9,-37 13.5,-4.5 53,4.5 12,7.5 35,-15.5 23.5,-3 19,19.5 134.5,23 11,9.5 6.5,76.5 11.5,22.5 26.5,25.5 39,21.5 9,13.5 -5.2825,9.4645"
     id="path3781"
     style="fill:none;stroke:#e8881d;stroke-width:1px;stroke-linecap:butt;stroke-linejoin:round;stroke-opacity:1" />
  <path
     d="m 2778.4292,3701.2851 3.8891,22.981 -17.3242,112.7835 -9.5459,30.4056 -2.4749,42.78 -58.3363,341.179 -15.886,43.6224 -27.1453,167.8075 -5.5525,20.359 -28.9961,33.3147 -20.359,115.3677 -4.3186,5.5525 -30.23,-4.3186 -4.9356,2.4677 -1.8508,7.4033 6.7864,27.1454 -6.7864,57.3753 -37.0163,95.0087 -24.0607,41.9519 -4.3186,22.2098 -0.6169,24.6776 4.9355,30.23 -1.2339,24.0606 -25.9114,82.053 0.6169,27.7623 -25.9114,49.3551 -27.7623,96.8595 -5.5525,75.8836 -43.1857,85.1376 4.9355,6.1694 60.4601,14.1896"
     id="path3783"
     style="fill:none;stroke:#e8881d;stroke-width:1px;stroke-linecap:butt;stroke-linejoin:round;stroke-opacity:1" />
  <path
     d="m 2982.0759,3924.7309 25.1023,4.2426 14.1421,-1.0606 13.0815,-14.4957 9.1924,-1.0607 2.8284,5.6569 26.163,51.2652 10.9601,12.0208 6.7176,47.3762 18.9328,50.9615 -4.8571,8.4591 -45.7889,-5.5264 -7.9871,5.0921 -59.0237,364.6942 -7.4033,8.6372 -17.2743,-11.1049 -6.7863,4.3186 -15.4235,95.0086 -3.7016,4.3186 -214.078,-36.3994 -4.9355,3.7016 -72.7989,442.3456 -4.3186,3.0847 -38.2502,-9.2541 -28.3792,4.9355 -14.8066,-3.0847 -28.9961,-22.8268 -33.9317,-7.4032 -7.4033,4.9355"
     id="path3785"
     style="fill:none;stroke:#e8881d;stroke-width:1px;stroke-linecap:butt;stroke-linejoin:round;stroke-opacity:1" />
  <text
     x="89.453125"
     y="5447.9609"
     id="text3791"
     xml:space="preserve"
     style="font-style:normal;font-weight:normal;font-size:144px;line-height:125%;font-family:Sans;-inkscape-font-specification:Sans;letter-spacing:0px;word-spacing:0px;fill:#000000;fill-opacity:1;stroke:none"><tspan
       x="89.453125"
       y="5447.9609"
       id="tspan2">2015</tspan></text>
  <text
     x="89.45314"
     y="-543.0391"
     id="text3791-5"
     xml:space="preserve"
     style="font-style:normal;font-weight:normal;font-size:143.99993896px;line-height:125%;font-family:Sans;-inkscape-font-specification:Sans;letter-spacing:0px;word-spacing:0px;fill:#000000;fill-opacity:1;stroke:none"><tspan
       x="89.45314"
       y="-543.0391"
       id="tspan1">2015</tspan></text>
  <path
     style="fill:none;fill-rule:evenodd;stroke:#e8881d;stroke-width:1px;stroke-linecap:butt;stroke-linejoin:round;stroke-opacity:1"
     d="m 2281.5,1179 -7,-5.5 -104,-19.5 -10.5,-15 19,-133.5 -4.5,-24 -35,-28.5 -31.1095,-30.6544 -14.8322,-30.5369 -0.8725,-94.2283 -6.9799,-19.1947 v -47.1141 l -8.7248,-20.93964 -7.8524,-2.61745 -11.3423,5.2349 -143.538,-27.00851 -1.8508,-4.93552 22.2098,-131.40809 6.1694,-4.93552 308.4697,51.82291"
     id="path4154" />
  <path
     style="fill:none;fill-rule:evenodd;stroke:#e8881d;stroke-width:1px;stroke-linecap:butt;stroke-linejoin:round;stroke-opacity:1"
     d="m 2170.8669,2484.6386 -3.3669,5.8614 42.5,59.5 68,107 13,32 -5,17 -13,-2.5 v 0 l -0.5,-1.5 1.5,-8 3.5,-3"
     id="path4158" />
  <path
     style="fill:none;fill-rule:evenodd;stroke:#e8881d;stroke-width:1px;stroke-linecap:butt;stroke-linejoin:round;stroke-opacity:1"
     d="m 2290,2689 11,13"
     id="path4160" />
  <path
     style="fill:none;fill-rule:evenodd;stroke:#e8881d;stroke-width:1px;stroke-linecap:butt;stroke-linejoin:round;stroke-opacity:1"
     d="m 1663,2276.5 2,-13 38,-39 -3.5,-18.5 9.5,-34.5 6,-37.5 -0.5,-34.5 -1,-10.5 1,-13.5 8.5,-13.5 7,-4 4.5,2 13.5,24.5 -2,7.5 -26.5,1.5 -5,5"
     id="path4162" />
  <path
     style="fill:none;fill-rule:evenodd;stroke:#e8881d;stroke-width:1px;stroke-linecap:butt;stroke-linejoin:round;stroke-opacity:1"
     d="m 2368,2732 -5,8.5 -3,20 -12,2.5 -14,38 -6.5,30.5 4,23 9.5,51 -1,23.5 -7.5,21 -6.5,20.5 3,38 1,18.5 -11.5,24.5 -29,58.5 -27.5,89.5 -19,19.5 -138.5,177 -52.5,82.5 -17.5,90 -11,19 -14.5,18.5 -11,18 -8,46 -3,35.5 -2,38 -4.5,27.5 -12.5,20 -21.5,16 -45,20 -29.5,12.5 -29.5,7 -15.5,6 -107.5,58.5 -38,10.5 -61.5,14 -26.5,6 -4.5,3.5 -2.5,19.5 60.5,268.5 -3.5,5.5 -49,12.5 -57.7039,11.3388 -4.9355,6.7863 9.871,46.2705 -30.8469,99.3272 0.6169,5.5525 8.6372,4.3186 1.8508,6.1694 -15.4235,48.7382 -3.7016,0.6169 -10.488,-3.0847 -4.9355,2.4678 -23.4437,64.1617 7.4032,28.9961 1.2339,7.4033 -6.7863,37.0164 8.6371,18.5081 v 6.7864 l -44.4196,31.4639 -11.7218,6.7863 -35.1656,6.1694 -3.7016,5.5525 3.0847,47.5043 -3.7017,6.7864 -48.1212,5.5524 -26.5284,16.6574 -17.8913,0.6169 -24.0606,-4.9355 -5.5525,3.7016 -11.7218,73.4158 3.7016,3.7017 33.9317,6.7863 34.5486,-1.2339 19.742,5.5525 30.847,29.6131 18.5082,7.4032 26.5284,-4.9355 40.718,-8.0202"
     id="path4164" />
  <path
     style="fill:none;fill-rule:evenodd;stroke:#e8881d;stroke-width:1px;stroke-linecap:butt;stroke-linejoin:round;stroke-opacity:1"
     d="m 2415,2954 81.5,15.5 13.5,23 25.5,24 12,20 34,39.5 -0.5,39 4,9 133.5,117 9,2.5 115.5,-83.5 7,2.5 2.5,16 15.5,17.5 67,21.5 33.5,1 33.5,36.5 54.5,41.5 90,129 105,18.5 4.5,7 -11,71.5 -3,0.5 -13.5,-2 -3.5,1.5 -2,9 -1,1.5 -10.5,-2 -3,1.5 -12.5,71 2.5,4 168.8826,29.3423 1.3334,7.8749 -64.716,55.7828 -25,21.5 -40.5,31 -19,11.5 -41.5,5.5 -19.5,1.5 -35,-2 -17.5,3.5 -60,34 -74.5,37.5 -26,9.5 -4.5,3.5 -3.5,31"
     id="path4211" />
  <path
     style="fill:none;fill-rule:evenodd;stroke:#e8881d;stroke-width:1px;stroke-linecap:butt;stroke-linejoin:round;stroke-opacity:1"
     d="m 2497.3542,2970.1367 -6.0104,-22.9809 -25.1023,-42.0729 -28.6378,-8.8388 -19.799,-3.8891 -4.5962,3.5355"
     id="path4213" />
  <path
     style="fill:none;fill-rule:evenodd;stroke:#e8881d;stroke-width:5;stroke-linecap:butt;stroke-linejoin:round;stroke-miterlimit:4;stroke-dasharray:none;stroke-opacity:1"
     d="m 2404.0161,2904.3758 6.7175,-2.4749 3.8891,-13.7886 10.9602,-7.071 8.8388,0.3535 35.7089,12.0208 12.7279,1.7678 30.0521,1.7678 8.8388,4.9497 22.981,3.182"
     id="path4215" />
  <path
     style="fill:none;fill-rule:evenodd;stroke:#e8881d;stroke-width:1px;stroke-linecap:butt;stroke-linejoin:round;stroke-opacity:1"
     d="m 2542.75,2905 10.5,2.25"
     id="path4217" />
  <path
     style="fill:none;fill-rule:evenodd;stroke:#e8881d;stroke-width:1px;stroke-linecap:butt;stroke-linejoin:round;stroke-opacity:1"
     d="m 2411.4407,2791.5923 7.4247,20.8596 3.5355,30.0521 -0.3536,27.9307 11.6673,18.7383 -4.2426,4.9497"
     id="path4219" />
  <path
     style="fill:none;stroke:#e8881d;stroke-width:1px;stroke-linecap:butt;stroke-linejoin:round;stroke-opacity:1"
     id="path4221"
     d="m 1471.6421,2946.533 -4.6629,-0.2406 -0.5615,-42.393 -8.8679,-6.5864 -6.6517,-0.6092 L 1423.5,2910 l -31.5,33.5 -44,32 -35,43.5 -21.5,18 -35.5,11 -23.5,7.5 -65.5,-20 -17,6 -25.5,17.5 -10.5,16 -22,-0.5 -21,-8.5 -13,-16.5 -24.5,-11.5 -10.5,7.5 -10,34.5 -10,4.5 -33.5,7.5 -13.5,24.5 -11,28.5 -15.5,6.5 -31,1.5 -16.38592,2.4687 -37.95306,20.9396 -24.8658,6.5436 -6.10739,9.5974 -9.59732,61.9463 -7.85236,5.6712 -20.93962,9.1611 -17.01344,26.6107 -7.41612,46.2417 -4.79866,25.302 -5.67114,6.9799 -14.39599,9.5973 -32.71816,11.3423 h -13.08726 l -33.15439,-7.8523 -8.72485,1.3087 -45.80541,22.6846 -11.3423,3.0537 -15.26847,-3.49 h -9.59732 l -11.77854,31.8457 -8.72484,11.3423 -13.95974,8.7248 -2.61746,20.9396 -16.14095,11.7786 -13.52351,4.3624 -29.22821,27.047 -15.70472,12.2148 -20.06713,7.4161 -17.44969,17.4497 -41.00675,15.7047 -18.32217,45.3692 0.87249,83.7585 -41.87924,219.8659 -7.85236,10.9061 -44.93293,36.6443 -10.03356,3.49 -78.08733,16.5772 -21.37586,12.2147 -12.21478,13.0873" />
  <path
     d="m 2057.5002,2404.4996 5.5,11 -0.5,7 -7,4 -34,12 -43,30 -86.0001,85.5 -54,55 -32.5,59 -25,17 -7,10.5 -8,15.5 -16,2.5 -25.9999,27.5 -32.5,20.5 -44,26.5 -32.5,12.5 -60,18 -15.5,19 -21,42 -19,4.5 -12.6551,2.7825"
     id="path3773"
     style="fill:none;stroke:#e8881d;stroke-width:1px;stroke-linecap:butt;stroke-linejoin:round;stroke-opacity:1" />
  <path
     style="fill:none;fill-rule:evenodd;stroke:#e8881d;stroke-width:1px;stroke-linecap:butt;stroke-linejoin:round;stroke-opacity:1"
     d="m 2053.5,2402.5 -4.5,5.5 -17,3 -8.5,-4 -59,23 -3,5 11,34 v 5.5"
     id="path4823" />
  <path
     style="fill:none;stroke:#e8881d;stroke-width:5;stroke-linecap:butt;stroke-linejoin:round;stroke-miterlimit:4;stroke-dasharray:none;stroke-opacity:1"
     id="path4517"
     d="M 2308.4115,1821.4706 2318,1766 l 11,-65 3.5,-15 19,-33 2,-13.5 -3.5,-16.5 -20.5,-29 -9,-15 -14,-29.5 -9,-17.5 2,-33" />
  <path
     id="path4519"
     d="m 2282.5,2001 -2.2301,-10.2976 28.1416,-169.2318"
     style="fill:none;fill-rule:evenodd;stroke:#e8881d;stroke-width:1px;stroke-linecap:butt;stroke-linejoin:round;stroke-opacity:1" />
  <path
     id="path4670"
     d="m 152.71736,4003.5232 -1.74497,-3.4899 11.77853,-70.235 -2.61745,-3.4899 -34.46312,-9.1611 -21.37586,-8.7248 -13.95975,1.3087 -25.73828,9.5973 -2.61745,-0.4362 -4.79866,-12.2148 -14.39599,-12.651 -1.74497,-17.0135 2.61745,-11.3423 16.5772,-8.7248 11.77854,-2.1812 9.59732,5.2349 5.23491,17.0134 7.41611,5.6712 38.3893,9.1611 7.41612,5.2349 3.48993,9.1611 -3.05369,11.7785 1.74497,3.9262"
     style="fill:none;fill-rule:evenodd;stroke:#e8881d;stroke-width:1px;stroke-linecap:butt;stroke-linejoin:round;stroke-opacity:1" />
  <path
     id="path5565"
     d="m 2562.1495,4633.1194 -10.488,-6.7056 -33.9317,-27.7623 -19.1251,-12.3388 -46.2705,-51.206 -8.6371,3.0847 -9.2541,43.1858 4.3186,20.9759 v 12.3388 l -26.5284,33.9317 -15.4235,12.3388 h -4.9355 l -8.6372,-11.7219 -69.7141,-12.3388 -14.8066,2.4678 -11.7218,17.2743 -17.8913,32.0808 -14.1896,33.3148 -24.6776,74.6496 -2.4677,21.5929 1.8508,18.5082 6.7863,9.2541 10.488,8.6372 9.871,4.9355 2.4678,5.5524 -8.0202,25.2945 7.4033,53.0568 -1.2339,53.0568 0.6169,12.9558 14.8066,19.742 16.0404,15.4235 6.7863,4.9355 94.3918,14.8066 41.9518,-17.8913 149.9163,24.0607"
     style="fill:none;fill-rule:evenodd;stroke:#e8881d;stroke-width:1px;stroke-linecap:butt;stroke-linejoin:round;stroke-opacity:1" />
  <path
     style="fill:none;stroke:#e8881d;stroke-width:5;stroke-linecap:butt;stroke-linejoin:round;stroke-miterlimit:4;stroke-dasharray:none;stroke-opacity:1"
     id="path4521"
     d="m 2169.5924,2486.0952 5.3425,-4.8207 L 2185,2473 l 15,-12.5 1.5,-4.5 -41.5,-42.25 -44.75,-11.25 -33,-7.75 -2.25,-5.5 -6.25,-15.75 -7.5,-44 -3.25,-26.75 5.25,-16.25 11.5,-10.75 15.5,-3.5 8,-1.5 6.75,-9 -0.5,-11 -7.75,-27.25 8.75,-54.75 8.5,-13.5 24,-9.25 18,-1.25 27.5,7.25 19.5,4.5 8,3.5 6.5,7.5 7.5,-0.5 18,-7.5 6.5,-16 2.5,-43 -2.5,-15 5.5,-30 23,-18.5 -0.5,-36" />
  <path
     style="fill:none;fill-rule:evenodd;stroke:#e8881d;stroke-width:1px;stroke-linecap:butt;stroke-linejoin:round;stroke-opacity:1"
     d="m 2100.1947,2536.1931 1.9311,-11.5869 59.9946,-37.2069 8.7465,-2.7607"
     id="path4523" />
  <path
     id="path855"
     d="m 1457.5498,2897.313 29.2953,-10.5309"
     style="opacity:1;fill:none;fill-opacity:1;fill-rule:nonzero;stroke:#f1871f;stroke-width:1;stroke-linecap:butt;stroke-linejoin:round;stroke-miterlimit:4;stroke-dasharray:none;stroke-opacity:1" />
</svg>
