<svg xmlns="http://www.w3.org/2000/svg" width="7400" height="7200" viewBox="-1250, -2500, 7400, 7200"><path d="M-1300-2550v7300h7500v-7300z" fill="#fff" stroke="#f6f6f6"/><path d="M-75.49 66.317l-25.101-14.218-31.577-2.166-15.653-5.596-7.233-11.384-23.094-8.924-18.2-2.944-32.311-27.13-77.229 19.523-15.065 15.475-11.551 20.506-38.031 52.004-57.471 35.025-47.882 11.022-20.663 22.515-35.462 7.49-29.101-7.032-3.908 17.96 8.224 3.369-11.864 41.336 17.898.741 13.193 42.187 8.773 12.808 33.472-7.618 13.948-8.87 13.98 1.961 23.694-12.69 22.26-5.09 5.605-6.92-11.592-27.231-7.464-7.923-7.298-.815-3.001 12.996-6.304 3.086-34.894-1.213-15.098-19.711 4.718-14.688 33.431-15.12 25.378-10.097 16.854-.853 4.6 9.263-3.348 8.95 11.066 8.397 36.894-3.479 7.477 12.268.026 31.782 13.63 11.191-.08 12.815 22.152 54.945-.902 46.795.445 23.398-6.532 9.653.858 17.775-7.04 16.23-9.158 8.417-10.444 33.503-2.82 15.487-23.356 36.52-2.397 47.495-12.11 8.5 3.565 22.17 5.38 11.367 4.455 55.97-13.574 33.973-10.558 3.927-4.462 6.845-24.997-5.473-1.56 9.887 16.76 44.12 6.416 20.465.361 16.755-9.534 100.552-7.364 40.013-.468 47.913-3.994 25.403-9.976 33.471 8.323 5.313 30.262 21.85-11.467 22.927-5.562 78.592.878 35.01 15.55 14.46 5.23 19.802 24.935 6.092 91.23 62.924 16.01 3.95 86.864 54.451-91.95 100.816-111.285 130.408-184.746 233.256-88.306 26.102-5.172 62.704-9.703 24.564-21.468 26.459 1.16 18.973-19.845 18.454-11.404 29.02 8.015 28.984-1.669 33.978-7.775 23.009 18.85 14.534 1.48 26.48-9.935 57.45-21.746 44.027 59.35 77.553 33.935 24.989-1.924 14.682 9.939 24.81 27.97 26.279.628 15.959-11.502 13.488-44.747 25.816-27.82 46.687-19.626 12.264 6.332 46.452-45.181 40.01-8.74 15.068-15.406 5.014-6.889 20.055-30.187-10.522-6.647-9.43-10.505-1.255-9.782 8.215-6.938 20.644-16.733 24.048-71.983 35.202 18.41 93.53 1.152 21.837 6.24 10.888 59.827 29.976 12.682-13.739.32-12.564-8.765-4.657-15.084-24.793 40.804-11.469 3.64 34.595-.846 16.352 40.128 13.449 15.508-.416 4.83-37.155-3.52-20.147 9.753-.503 16.627 7.854 4.056 23.142 12.48-1.347 2.699 15.48-13.233 2.89 1.974 12.535-20.547 4.818-14.164-4.536-3.15 10.751 21.622 4.855 5.198 4.838-9.886 12.952 25.111 28.43-.269 12.958 5.896 8.318 35.574 23.433 20.239 6.903 23.813 33.447 43.274 48.626 21.25 2.02 16.215-8.05 44.494-35.424 16.468 15.969 26.415 8.959-15.209 2.938-13 6.55 5.032 15.563 15.798.49 12.517 3.46-37.378 30-32.897 32.46-36.95 2.417-6.219 36.072 10.615 3.117 31.751 29.893 4.312-6.949 15.097 4.956 6.771-21.408-10.498-3.027-23.982-22.534 35.815-43.057 59.642-51.425 24.826-10.99 3.857 15.004 18.273 10.92 67.45 9.574 55.282 16.047 96.491-9.024 26.643-21.013-6.03-28.987-58.594 11.57-65.803 11.586-1.23-14.583 13.842-35.118-.01-51.944 354.863-193.884 32.211-1.288 35.433-5.798 41.874-9.02 57.98-26.413 17.394-14.172 11.596-1.933 48.317-19.971 15.461-5.798 39.298 9.02 37.365 1.932 21.903-7.73h29.634l66.355-5.155 7.087 12.885 22.547 123.69 1.289 33.5-3.221 25.769 4.51 3.865 4.509 46.384 26.413-14.173 23.836-5.154 26.413-.644 19.971 3.221 14.817 5.798 21.904 14.817 20.615 7.731h54.759l5.798-3.865 19.326-5.798 13.53-7.087 28.99-21.259 46.383-41.23 80.528-74.086 36.076-28.345 4.51 6.442-1.289 8.375-3.22 5.798-5.799 5.153 116.605 181.671 33.05 52.432 18.46-22.048 27.085-18.788 233.852-141.729 11.596-7.73-.644 59.912 68.288 70.22 13.528 9.02 67.51 60.047 120.009 73.514-13.43 81.462 68.73 6.502 87.885-8.55 8.837 94.576-1.6 51.593 3.71 6.749.177 12.446 97.726 4.967 102.157 14.556 28.615-3.422-1.621 5.1 75.635 4.865 62.332-146.815-2.297-26.923-62.493-224.24-17.31-74.707-2.733-33.254 2.733-13.21 27.787-7.29 58.764-22.32 38.72-8.656 59.22-28.243 20.955-5.466 41.909-20.955 6.833-5.466 20.954-10.933 13.666-7.288 64.23-32.343 29.155-10.478 38.265-6.833 39.176 14.122 24.598 78.807 11.844 31.888 7.289 22.321 40.998 113.883 5.466 2.278 1.822 6.377 6.833 39.632 5.737 9.805 6.75 62.096 61.422-21.424 40.61-5.023 37.696-11.604 178.057-40.578 22.455-10.48 2.59-9.213 5.466-7.289-2.277-4.555 4.1-7.288 18.22-18.677-1.821-5.011 10.021-8.655 4.556-8.655 10.477-13.21 8.2-29.155 5.921-22.321-3.644-7.289 3.644-3.189 1.367-8.2-3.189-5.921 11.389-22.321-17.31-9.11-2.278-6.378 7.744-17.766-6.378-26.877v-8.655l-1.822-10.477-4.555-5.922-8.2-16.855-.455-9.11-4.556-7.745-5.01-.455-7.745-12.3-2.733-12.299 10.933-21.866 4.1-13.666 5.01-16.854-5.01-2.278-39.176-6.378-25.054-5.921-29.155-10.933-20.499-10.478-19.588-14.121-97.028-76.985-124.817-97.94-135.749-108.873-23.232-18.677-12.755-16.399-10.022-15.943-15.032-35.077-15.944-39.175-15.032-27.332-6.378-15.033h22.321l147.138 6.377.455-7.744 9.11-27.787 13.211-18.222 3.645-10.477 7.744-18.221-.911-10.933-3.19-10.933-53.297-76.985-22.32-37.81-3.19-19.132 8.656-41.909-12.755-15.033-82.907-95.662-21.866-25.965-20.044 25.51-47.375-41.91-14.577-10.477-25.51-21.41-22.777 23.688-44.187-36.443-.455-5.466 1.822-5.466 53.753-65.142 19.588-1.366 33.254-37.354 14.577-5.011 1.822-4.1-1.366-4.1-11.844-10.477-5.467.911-10.477-9.566-15.033-7.744-15.943-8.655-30.977-23.688-16.854-14.577-17.31-9.566-22.322-15.944-15.488-15.033-20.499-16.399-22.777-18.221-16.854-14.122-5.922 11.844v9.11l-.911 6.378-11.844 14.577-4.556 4.556-14.121 7.744-11.844 2.277-9.566.912-14.577-2.734-15.033-7.744-5.01 8.2-6.378 1.366-6.833 13.666-25.966-10.021-5.922 10.477-22.32-11.844-16.4-32.343-19.588 12.3-26.42-30.066-7.29 5.011-28.243-18.677-11.843-6.833-9.567 20.955-189.957 16.855-9.94-11.795-3.726-6.427-5.922-10.477-.911-11.388 1.822-42.82 3.644-23.688.911-24.144-3.644-2.733-3.189-5.466 1.822-5.467 4.1-5.01-1.366-6.378-1.823-15.488.456-20.499-6.833-10.933-.911-13.21-7.289-12.755-14.577-10.478-18.221-3.188.61-29.613-6.443-8.053v-17.394l2.9-.644h17.715l4.188-5.476.966-7.731-3.865-10.308-11.274-15.783-11.274-19.327-5.476-13.85-18.038-32.534-3.543-1.288-21.904-35.11 19.79-13.441 6.301 9.576 40.908-30.601 11.919 12.884 50.249-47.672 10.63 16.106 16.75 25.768 43.484 59.913 3.544.966 17.716-20.615 17.072-21.26 19.004-16.749 78.595-38.653 16.106-8.697-1.289-8.053-29.312-88.903-14.173-64.422-13.528-77.629v-19.004l.644-17.072-2.9-17.394-6.441-30.6-9.02-17.717-12.884-23.192-48.945-46.273 4.201-4.551-6.052-6.194 7.744-8.882-13.21-12.983 3.644-4.1-48.97-44.187-7.288 4.1-24.144-7.516-29.154-25.738-15.943-14.805-25.283-23.915-71.974-65.597-44.187-38.265-58.536-51.703-55.575-49.653 4.1-1.367 32.115-9.11 18.905-2.05 23.687-.912 23.005-.91 19.816-3.19 4.555-5.238 45.326-63.775 34.62-44.187 10.477-16.854 5.922-11.844 16.627-39.86 1.367-6.832 27.63-65.455.833-56.144-5.486-38.825-52.261-121.527-31.314-55.615-3.555-4.05-7.263 6.202-6.558-4.654-4.61 3.279 5.334 6.934-7.252 4.96-7.67-5.06-9.713-.859-6.65 7.686-11.985 5.624-8.276-.19-4.283 8.09-12.946 6.324-22.621-6.587-5.218 4.713-29.813 4.05-4.146-13.446-43.083 3.803-22.982-.787-15.539 5.104-34.084.597-19.337 9.41-35.76-23.512-15.452-4.104-19.453-14.072-28.208-6.486-25.233-10.325-40.321-3.589-56.926-22.777-37.076 2.776-58.541 12.309 2.106-8.006 15.523-5.446 16.46-10.965 25.658-5.592 9.965-10.626-4.662-5.818 3.519-9.04-3.924-24.228-20.04-36.8-17.235-37.358 13.213-5.09-8.156-30.345 8.846-2.012.128-7.247 8.087-.527.615-9.463 5.46-8.2 5.974-22.48-1.924-16.868-6.601 1.702-72.745-149.748 85.422-58.974-25.432-36.83-48.18 5.424-74.41-1.95-46.002-8.542-9.88.903-48.743-11.425-8.87 124.033 31.26.967-13.075 176.009-67.895 14.887-18.555-2.977-31.654 9.573-16.846-.035-66.815-15.221 1.087 25.108 16.991 33.603 9.245 32.707-9.143 120.537-35.447-12.302-26.628.442-26.673 3.958L587.492-445l-23.393-5.234-19.534 5.347-12.007-.934-23.407-14.565-10.579-.344-22.18 6.032-34.612.222-34.46 7.252-29.852-.02-30.289-6.893-1.668-5.575-14.998-2.8-11.81 2.883-22.925-2.712-5.49 56.664-29.822 69.236-19.674 18.066-36.195 77.584-44.155 81.826-6.915 5.67-18.01 7.038-16.537 8.65-3.969 8.654-.013 13.485.961 13.06 7.19 13.464 10.298 12.73 4.689 7.2L160-38.037l13.21 24.144 30.066 32.342 42.365 32.799 29.154 30.52 8.2 23.688-19.588 65.597-57.853-15.032-30.977-2.733-8.2 24.143-14.576-2.278-45.554-29.61-16.854-2.277-11.844-6.378-27.788-5.922-28.243-7.744-18.221-16.399-31.888-15.488-11.388-14.122-16.4-9.566z" fill="#f6f6f6" stroke="#f6f6f6"/><path d="M1834.765 1200.32l6.541-8.839 3.652 1.915 5.54-5.804 4.42 1.768 10.43-2.122h.884l.883 10.607-6.54.707-4.42-.884-2.894 11.194-5.414-2.355-13.082-6.187z" fill="#f6f6f6" stroke="#f6f6f6"/><path d="M1326.576 1579.99l-.124-13.266.655-60.928 5.896-72.72 28.172-51.757 9.172-19.654 8.516-14.413 18.344-14.413 16.379-18.344 15.068-24.895 5.241-16.379v-26.86l-3.275-43.24-3.931-93.685-1.31-98.271 2.62-36.688 7.862-24.896 7.206-20.309 11.793-16.379 48.48-48.48 25.55-12.448 30.137-20.31 38.655-38.654" fill="none" stroke="#ea7713" stroke-width="5" stroke-linejoin="round"/><path d="M1865.273 757.8l7.409 11.274 1.446 29.6 3.385 14.529 11.99 11.746 21.51 44.301 36.72 76.018 12.24 53.149 8.053 21.903 17.716 35.755 18.683 38.653 6.764 19.97 19.005 14.174 22.225 10.307 7.271 6.707 4.325 13.586 8.375 8.053 13.529 12.884 8.944 8.187 18.757 22.736 7.522 15.47 4.46 16.398 16.364 14.838.967 10.952-1.61 22.226-3.866 19.97-7.087 24.803-51.749 112.17 2.144 10.877c.644.322 43.485 20.937 43.485 20.937l6.764 16.105 13.53 31.245 35.753 95.023 27.058 73.763-.967 6.765-5.153 20.615-.322 18.682 4.51 22.226.321 29.634 6.765 33.822 10.63 43.807 18.037 65.388" fill="none" stroke="#1b5ea4" stroke-width="5" stroke-linejoin="round"/><path d="M1171.183 1659.757l12.503 15.415 17.394 17.394 21.903 19.327 15.462 8.375 56.047-.645 44.451-15.461 81.817-16.105 175.872-28.99 17.394.644 28.346-4.51 17.394-7.73 10.308-16.106 12.24-6.442 19.97-5.798h14.174l11.596-4.51 10.307-10.307 7.087-18.039 3.22-9.663 3.866-14.817 7.086-10.952 12.885-12.884 14.817-5.154 16.106 1.933 21.903-.645 16.106 4.51 23.836 8.375 5.154 8.375 3.543 27.701-13.529 28.346 4.188 11.274 76.018 26.09 110.068 33.138 60.13 14.195 62.366 11.936 30.279 15.462 86.325 65.71 32.211 39.942 22.548 54.759 13.529 44.451 7.086 68.288 7.087 48.96 17.394 30.923 12.884 33.5 10.952 49.605 15.461 57.336 10.308 47.028 5.154 40.586-1.289 36.72-5.798 27.058-19.97 33.5-3.866 12.24 1.288 22.548 12.885 44.451 10.952 45.74 12.884 37.365 21.26 34.788 30.922 32.855 43.807 32.211 32.211 12.24 63.134 14.173 45.096-1.288 48.316-3.221 21.904 2.577 25.125 14.817 21.259 19.326 15.461 24.48 34.144 41.23 23.836 19.972" fill="none" stroke="#3a9fd7" stroke-width="5" stroke-linejoin="round"/><path d="M878.325 124.53l18.038 26.412 23.836 41.23 36.72 73.442 18.683 31.567 25.769 50.893 20.615 25.77 34.144 36.076 40.586 45.095 19.327 14.173 23.836 10.952 52.182 20.615 27.057 7.73 39.942 18.039 46.384 19.326 30.278 14.818 43.163 40.586 97.922 90.835 76.662 71.509 114.028 106.296 27.057 27.058 47.672 50.893 28.99 36.077 43.163 57.98 37.365 50.893 5.154 38.654 10.952 105.008 11.596 122.402 9.663 88.903 9.02 89.547-5.155 23.192-16.427 24.48-17.072 36.076-12.884 47.029-5.154 31.566.644 66.355v139.797l-2.577 92.768v57.335l-2.577 23.192-14.173 98.566 3.866 46.384 10.951 94.701 9.664 68.288 12.24 62.49" fill="none" stroke="#7d64b1" stroke-width="5" stroke-linejoin="round"/><path d="M2106.856 1177.51l5.798-4.51 5.798-3.542h6.12l11.991 7.93 51.475 28.243 50.564 21.865 26.877 8.2 148.048 24.143 70.608 11.389 194.513 32.342 160.804 26.421 48.838 7.98 37.767 16.95 63.706 34.216 28.023 14.817 14.817 18.039" fill="none" stroke="#78513d" stroke-width="5" stroke-linejoin="round"/><path d="M1543.018 1526.656l-9.888-3.77-10.395 6.653-51.726 27.74-38.01 19.327-4.509 7.73 2.577 65.711-10.952 14.173-5.153 9.664-1.933 16.105 18.038 78.595 16.75 71.509" fill="none" stroke="#fcd205" stroke-width="5" stroke-linejoin="round"/><path d="M480.839 1115.343l17.394 9.019 16.106 7.086 9.019 10.952 4.51 18.038 15.46 30.279 19.327 42.518 14.173 21.26 14.173 8.374 16.106 5.154 31.566-7.086 33.5 4.51 14.817 12.24 67 65.71 20.614 16.106 25.77 7.73 86.325-9.019 342.726-36.72 11.596 2.577 10.308 10.307 28.346 36.077 25.124 19.97 54.76 41.23 15.46 3.222 8.731 11.884 21.76 15.14 13.96 8.408 21.904 11.918" fill="none" stroke="#4fb638" stroke-width="5" stroke-linejoin="round"/><path d="M1950.027 632.978l1.092-19.39-7.699-43.226-21.55-40.523-99.815-94.01-98.579-88.28M3059.66 2269.79l25.125 15.46 30.923 1.289 29.634-9.02 165.565-48.316 8.375-.644 12.885 3.221 117.248 41.874 13.529 14.818 25.124 47.028" fill="none" stroke="#008940" stroke-width="5" stroke-linejoin="round"/><path d="M1420.97 1465.81l21.904 11.918 107.052 41.22 57.658 21.582 42.013 15.406 11.844-.455 12.3 3.644 40.542-.455 7.744-4.556 5.01-7.288 4.1-30.521" fill="none" stroke="#f1471d" stroke-width="5" stroke-linejoin="round"/><path d="M1440.985 1481.595l103.138 40.131 14.88-9.782 21.201-12.967 7.409-.967 39.297 18.683 8.697 2.255 13.851-6.765 15.461 2.255 31.89 4.832 43.162 1.932 20.293 2.577 14.173-1.932 25.125 6.442h10.307l12.885-.644 12.884 3.22 45.74 15.462 14.817 1.289 27.702-4.51 16.75-4.51H2043.721l45.096-3.865 19.326.644 20.615-3.865 24.48-5.154h63.135l17.394-1.932 20.615-1.933 16.105 1.288 48.961-12.24 41.23-10.307 9.664-5.154" fill="none" stroke="#4fb638" stroke-width="5" stroke-linejoin="round"/><path d="M3191.082 1299.59l-31.567.645-118.537-5.154-39.941 4.51-25.125 5.153-33.5 10.952-30.278 19.971-47.028 41.23-85.038 71.509-15.461 11.596-23.192 10.952-34.144 9.663-41.23-.644-119.503-34.788-100.499-29.634-77.95-25.447-20.938-9.986-36.194-24.447-25.33-15.494-20.936-4.832-23.514-6.764-12.885-1.611-14.495.644-11.918-3.543-12.884-10.307-20.938-12.24-20.293-9.342-6.348-6.47-7.18-9.635-2.9-11.919-12.24-20.293-3.22-14.817-8.054-14.817-35.754-38.331-12.562-12.562-13.529-8.053-10.63-2.577-12.884.644-14.817 5.154-10.905 6.511-10.032 3.474-22.87.323-9.663 1.288-28.024 18.038-5.29 4.266-6.628 4.109-11.596 3.865-43.705 3.638" fill="none" stroke="#008940" stroke-width="5" stroke-linejoin="round"/><path d="M1269.226 1475.762l23.688-7.744 56.03-20.5 18.222-2.277 12.3 5.011 22.776 15.488 37.243 20.855 5.015 1.655" fill="none" stroke="#6cc1b0" stroke-width="5" stroke-linejoin="round"/><path d="M484.704 2389.614l10.952-16.105 19.327-15.462 27.057-30.923 34.144-29.634 22.548-14.817 31.567-11.596 18.038-3.865 26.413-.644 137.863 16.105 18.683.644 24.48-9.663 40.586-28.346 9.02-11.596 31.566-53.47 14.817-28.346 3.222-16.106 12.24-39.941 11.596-17.394 16.105-10.308 16.75-11.596 17.394-8.375 31.567-4.51 35.432-5.797 16.106-9.664 28.99-28.345 23.192-38.654 7.73-21.26 2.577-21.258-1.288-22.548-5.798-18.038-10.952-32.211-.644-10.952 9.019-19.971 1.289-16.75 2.576-108.23 2.577-17.393 11.596-18.038 81.816-47.673 28.346-15.461 26.26-4.533 10.46-5.453 2.256-13.85 36.72-44.13 31.245-48.316 21.953-9.43" fill="none" stroke="#f1471d" stroke-width="5" stroke-linejoin="round"/><path d="M1967.334 709.859l3.98 20.99 5.087 9.879 5.798 5.798 13.151 5.121M2757.77 1957.357l-220.75-245.487-12.342-21.156-1.367-19.588 6.833-19.588 7.289-14.577M2572.101 1452.757l12.374 9.546 15.91 16.263 6.718 9.546 1.768 10.96v10.607l-.354 15.91" fill="none" stroke="#008940" stroke-width="5" stroke-linejoin="round"/><path d="M1818.383 1336.592l10.239-3.868 24.598-4.1 49.654-4.1 5.921-5.01 6.378-7.744 5.01-3.189 11.39-1.366 8.654 2.733h9.111l24.599 17.31 20.043 8.655 17.31 4.1 19.589.456 17.31-6.833 31.432-16.4 5.01-8.2 3.645-9.566 2.733-50.108-3.189-11.844-5.466-9.11v-10.478l24.599-20.5 4.1-7.743-1.822-6.833-23.688-22.321-9.566-10.022-6.378-15.033 2.278-11.844 5.922-14.121-11.844-43.276 2.733-9.566 6.377-11.844 11.844-11.844 5.011-23.688-.455-22.776-2.278-24.144-1.822-81.54 1.367-30.521 4.1-36.443 16.399-116.16 1.366-33.255-3.189-27.787-9.566-27.332-1.038-17.122" fill="none" stroke="#f1471d" stroke-width="5" stroke-linejoin="round"/><path d="M2535.985 1638.874l16.029-30.701 23.192-32.211 28.99-35.432 11.596-37.365 16.75-65.067 44.45-74.085 6.443-22.548-5.154-34.144-24.48-66.999-28.346-67.643-18.682-14.173-52.182-20.615-26.413-12.885-28.99-40.586-65.711-112.739-21.904-28.345-76.018-50.894-58.624-37.365-28.99-10.952-41.23-26.413-51.538-42.518-25.125-13.53-21.26-9.018-53.47-3.221-66.354 2.577" fill="none" stroke="#008940" stroke-width="5" stroke-linejoin="round"/><path d="M2581.293 1453.818l17.324-1.415 13.789-2.12 8.485-3.183 4.95-3.535 8.485-7.425M1720.746 1571.452l-13.307 14.817-14.817 15.461-12.24 9.664-9.664 30.278-41.874 51.538-53.47 73.441-37.366 46.384-13.528 15.462-24.48 36.72-86.97 115.316-88.26 116.604-98.565 128.2-28.346 28.99-26.413 21.26-89.547 49.605-63.778 38.009-57.336 29.634-85.681 50.894-60.557 35.432-109.518 63.778-55.403 28.99-27.057 10.952-29.634 7.73-21.904-2.576-34.144-15.462-128.844-93.412-70.865-49.605-16.105-7.087-22.548-1.932-19.97 1.932-83.75 27.058-14.173 5.798-35.432 24.48-59.913 38.653-28.345 26.414-28.346 43.807-44.451 63.778-14.173 21.903-19.203 20.75M2454.737 1961.528l24.802-1.932 15.784 4.187 37.365 16.106 27.057 7.73 19.326-1.288 34.38-7.906" fill="none" stroke="#008940" stroke-width="5" stroke-linejoin="round"/><path d="M1913.213 753.494l-65.993 6.088-45.725 11.746-27.057 8.375-47.028 30.278-65.71 47.673-54.116 41.874-32.21 22.548-23.193 14.817-30.278 4.51c2.577 1.288-141.085 28.345-141.085 28.345l-48.96 10.308-101.788 23.192-86.325 18.682-120.47 24.48-54.115 14.818-38.009 1.288-17.394 5.154-22.548 12.24-9.663 16.106-4.51 21.26 3.222 36.72 9.019 54.759 12.884 68.287 6.442 27.702 1.289 22.548-10.952 38.009-19.97 41.874-4.51 27.702 1.288 36.076 7.087 21.26 19.326 28.345 29.634 32.211 42.52 50.894 24.48 33.5 25.124 29.634 77.307 96.633 46.384 55.403 21.26 18.683 25.768 12.884 30.923 5.798h79.239l43.163-1.288 37.365-5.798 47.672-1.289 41.23 1.933 21.904-10.308 35.432-13.528 32.856-4.51 19.97 1.933 21.904 9.663 23.192 15.461 16.106 22.548 16.75 45.74 19.326 22.548 27.702 13.528 40.586-1.932 53.47 3.22 36.72 8.376 38.654 15.461 26.413 15.461 38.01 26.414 30.278 14.817 41.23 16.75 33.5-1.29 97.277-13.528 36.076-8.375 22.548-6.442 77.951-16.75 119.181-29.634" fill="none" stroke="#008940" stroke-width="5" stroke-linejoin="round"/><path d="M2389.025 1978.6l66.355-16.749 23.836-14.173 15.462-19.97 1.872-7.345M297 1045.5l19.25 4.25 36.5 7.5 53 8.5 29.25 5.75 22.75 6.5 32.75 15.75 29.25 9.5 26 2.5 30.5-1.5L756.5 1085l117.75-12.5 20.578-2.14 17.415-1.774" fill="none" stroke="#008940" stroke-width="5" stroke-linejoin="round"/><path d="M899.44 1069.152l-22.628-1.768-13.788-4.95-9.9-7.071-13.788-14.85-22.628-33.587-2.475-13.435 1.768-26.87-2.121-12.02-5.657-14.496-10.253-11.668-11.314-8.131-8.485-3.182-64.347-2.475-12.02-4.243-15.557-8.485-121.976-107.127M340 2723l67.5-31.5L609 2592l26-14M963.5 1470.5l-16 10-12 14L925 1513l-1.5 14 1.5 10.5 6 14.5" fill="none" stroke="#008940" stroke-width="5" stroke-linejoin="round"/><text x="-1160.547" y="4597.961" style="-inkscape-font-specification:Sans" font-size="144" font-weight="400" font-family="Sans"/><text x="-1160.547" y="-2293.039" style="-inkscape-font-specification:Sans" font-size="144" font-weight="400" font-family="Sans"><tspan x="-1160.547" y="-2293.039">1970</tspan></text><path d="M807.138 1540.851l-14.801-1.695-25.14-6.035-21.26-11.274-19.971-23.192-9.02-15.784-7.73-32.855-8.697-29.312-17.394-19.327-23.192-13.85-24.158-21.582-14.495-23.192-14.173-13.85-25.447-6.12-21.903-1.29-106.62 28.024-57.98 14.173-14.248-2.67-13.13-3.772-27.702-22.548-32.856-32.855-11.273-22.226-5.154-83.104 1.288-18.36 22.548-58.947 6.12-24.803-.966-22.225-11.596-18.36-12.885-9.986-114.993-23.836-30.923-11.918-31.245-15.945-24.802-9.18-25.93-6.764-60.447-10.46-91.024 2.52-198.536-17.527-150.673-17.191" fill="none" stroke="#008940" stroke-width="5" stroke-linejoin="round"/><path d="M1967.75 711.75l-4-22.75-3.75-28.75-1-22.25 1.232-9.385 3.068-23.606 7.269-15.813 78.845-75.768 65.21-60.307 46.096-48.422 52.72-50.144 33.25-38.653 36.077-56.942 76.268-121.258L2496.543-74.39l45.956-68.109 12-29 19.5-17 134.5-205 24-31.5 97.5-152.5 45-52.5 188-169.5 166.5-151L3268-980l30-14 382.5-150.5 53.5-27 39.5-21.5" fill="none" stroke="#008940" stroke-width="5"/><path d="M914.035-1043.483l2.242-29.403 10.222-154.614-4-29 9-35.5 2.5-66.5-2.5-39-6-33-119-411.5-87.5-310-18-41.5-16.5-29-22.5-30-48-51.5-53.5-102M1723.623 347.924l-143.16-125.638L1424.27 79.56l-104.426-91.77-26.123-26.83-21.84-33.146L1116.498-283.5l-31-52.5-92-126.5-49.816-69.987" fill="none" stroke="#008940" stroke-width="5" stroke-linejoin="round"/><path d="M2514-101l4.5-24-6-26-11-17-28-28-20-29-267-324.5L2157-581l-73.5-78.5-64-61.5-91.5-90-36.5-31-37.5-22.5-25.5-10.5-419.5-148.5-56-22-59-21.5-42-28.5-93-41.5-21.5-1-27 7.5-22 18-11 23-12 61-16.5 26.5-21 16-26.5 10.5-25.5-.5-21-4.5-19-13.5-15.5-23.5-6.5-28" fill="none" stroke="#008940" stroke-width="5" stroke-linejoin="round"/><path d="M1940.112 3246.458L1888.999 3109l-35.323-99-30.279-95.989-27.701-73.44-83.75-233.854-64.421-180.382-26.413-74.085-30.279-78.595-20.615-59.913-4.832-34.144-1.61-27.701-.322-20.615 7.408-25.447 34.466-95.023 37.043-116.926 20.937-54.437 28.346-83.749 12.562-34.788 5.476-26.091 1.61-17.716 2.256-53.793 1.288-29.956 5.154-20.937 18.148-26.57 19.57-12.756 19.917-18.599 25.147-59.968.644-13.85-4.51-11.597-37.686-50.893-2.255-11.918 5.234-68.369 2.819-23.755 7.73-6.442 16.106-4.832 35.432-4.832 8.375-5.153 8.053-12.563-3.543-27.38 3.543-11.273 15.783-16.428 13.851-7.086s14.173-.644 17.394-.966l9.664-12.24 17.394-52.505-.967-12.562-11.274-24.803-15.783-26.735-19.327-28.024-67.321-66.676-8.697-21.26-10.308-53.792-3.22-39.942 6.12-22.226 31.888-35.754 16.75-12.884 20.505-9.193 62.287-5.24 12.015-2.24 17.47-9.88 8.515-11.134 4.942-20.26-4.365-30.956-5.154-33.5.346-16.768" fill="none" stroke="#008940" stroke-width="5"/><path d="M2661.793 1479.347l41.29 14.799 14.495 4.51 68.288 44.45 75.374 45.096 23.192 14.173 21.903 21.904 57.98 24.48 52.826 39.298 37.365 41.874 23.836 20.615 76.019 55.403 101.143 74.73 152.68 109.518 115.96 83.104 55.403 41.23 50.25 26.414 41.874 9.019 30.278 1.933 57.336-5.154 52.182 4.51 38.01 7.086 36.076 1.288 65.71 3.221 149.46 6.443 81.816 5.798 82.46 11.596 317.5 52.815 237.5 39 33 11.5 29 15 36.5 30 28.5 38.5 22 52.5 27 43 23 22.5 38.5 27 38.5 13 89 15 30.5 13.5 25.5 18.5 23.5 29M2755.587 1954.765l92.768 99.854 34.144 30.923 29.634 30.278 50.894 54.115 86.97 91.48 35.432 32.21 26.413 18.683 30.923 28.99 45.74 48.96 157.834 184.893 63.134 66.354 74.73 81.172 16.105 20.615 51.538 59.269 38.653 39.942 98.566 109.517 50.893 57.98 90.541 95.5 12 22 16 26.5 57.5 151 95 239 7.5 27.5L4079 3783l12.5 31.5 29 60 64.5 165 8.5 32.5 3 34.5-1.5 29.5-5.5 34.5-41.5 156-6 44.5-4.5 124 .5 141" fill="none" stroke="#008940" stroke-width="5" stroke-linejoin="round"/><path d="M3500.952 2742.648l17.394 22.548 10.952 24.48 3.865 26.414-11.596 39.941-29.634 42.52-42.519 48.316-17.394 11.596-25.769 13.528-12.884 16.75-11.596 21.904-23.272 21.355-33 18.5-52.5 14.5-116 26-21 10-17 13-68.5 56-25.5 20.5M1847.718 1199.727l-8.69-3.881-12.087-6.417-9.02-3.866-10.629-.966-18.36-.644-10.952-3.221-10.952-7.087-9.663-16.75-11.918-16.427-12.563-9.985-11.596-4.51-13.528-1.288-32.856 5.153-8.374 3.221-11.919 6.765-15.783 14.173-52.826 45.095-10.63 7.409-14.817 5.476-14.495 2.254-64.422-8.697-18.038-1.61-21.904 5.154-19.327 13.206-33.5 45.418-5.475 12.562-27.38 90.513-11.127 24.233-11.742 20.863-10.952 11.918-13.529 9.02-16.75 3.22-80.527-7.73-51.538-4.832-40.264-2.577-25.125 4.51-17.394 4.51-53.792 20.614-24.832 8.28-23.807 6.537-21.904 3.866-19.326 5.476-50.572 23.514-58.946 30.6-16.428 7.087-31.889 19.648-15.139 18.683-25.447 32.21-20.615 36.4-10.952 19.326-34.788 31.89-38.973 42.325-18.221 40.998-13.666 32.342-29.155 40.998-46.887 39.977-64.725 86.495-112.094 143.017-131.422 173.296L82.71 2466.277l-24.48 34.144-9.664 19.327-7.73 24.48-7.087 56.047-9.019 23.192-14.817 19.971-15.461 16.106-22.52 16.744-21.821 18.916-40.984 31.536M3190.704 1300.336l51.593-14.274 41.552-10.307 25.125-.645 23.192 5.154 31.567 9.02 26.413 16.749 27.701 4.51 133.999 8.375 83.749 2.576 86.97 5.154 101.787 5.798 54.759.644 57.335-4.51 74.73-14.172 253.823-38.01 294-47.898 361.5-54 28.5-7.5 56.5-19.5 35.5-8.5 99-17.5 124 .5 205-31 363.5-55 141-22 47.5.5 13 1.5M1568.93 2210.52v27.702l-12.884 35.432-25.124 53.47-14.817 26.414-37.365 47.672-59.913 65.067-52.826 58.624-55.403 52.182-19.327 25.125-11.596 18.038-46.384 47.672-26.413 33.5-25.769 38.009-20.615 40.586-28.346 68.287-14.151 50.474M1950.027 632.978l1.092-19.39-7.699-43.226-21.55-40.523-99.815-94.01-98.579-88.28-10.884-5.273-45.095-2.577-32.211-3.22-103.076-17.395-49.605-9.02-68.932-3.22-55.403 3.22-66.999 3.866-137.22 7.087-34.787-.644-18.038-4.51-85.038-46.384-31.245-22.226-12.884-19.648-31.567-73.442-34.466-85.681-9.663-21.582-9.02-20.937-25.768-46.706-15.14-21.582-15.46-12.24L802.95-66.16l-18.683-6.764L634-125.5l-10-4.5-15-11-240-270.5" fill="none" stroke="#008940" stroke-width="5" stroke-linejoin="round"/></svg>