<svg xmlns="http://www.w3.org/2000/svg" viewBox="-50, 0, 3650, 2050" height="2050" width="3650"><path style="fill:none;stroke:#235099;stroke-width:5;stroke-linecap:butt;stroke-linejoin:round;stroke-miterlimit:4;stroke-opacity:1;stroke-dasharray:none" d="m2895 811-180.5-1.5-36 3-89 17.5-66.5-.5-73.5 20.5-43.012.5-22-2L2344 831l-22.5-11.5h-16l-35 22L2246 857l-66.5 17.5-44.5-6.5-10-6-34-31-17.5-23.5-26-24-32-20.5-30-12.5-42-4-8.5-1.5-53-30-76.5-47-65-54-13.5-13.5-25.5-2.5"/><text style="font-size:144px;font-style:normal;font-weight:400;line-height:125%;letter-spacing:0;word-spacing:0;fill:#000;fill-opacity:1;stroke:none;font-family:Sans;-inkscape-font-specification:Sans" xml:space="preserve" y="206.96" x="39.45"><tspan y="206.96" x="39.45">1950</tspan></text><path style="fill:none;stroke:#235099;stroke-width:1px;stroke-linecap:butt;stroke-linejoin:round;stroke-opacity:1" d="m2892.5811.023.5 1.5 8 .5 5 7.5-0.514.57.010.5L3120 1059l15.5 9 19 7.526.02.5 315-.5 9 5.5 13.5 11"/><path style="fill:none;stroke:maroon;stroke-width:5;stroke-linecap:butt;stroke-linejoin:round;stroke-miterlimit:4;stroke-opacity:1;stroke-dasharray:none" d="m1678.25 596.75-19.75 13.5L1575 688l-11.75 7.5"/><path style="fill:none;stroke:maroon;stroke-width:1px;stroke-linecap:butt;stroke-linejoin:round;stroke-opacity:1" d="m1565 694.75-100.75 57-145.5 50.25-99.034.25"/><path style="fill:none;stroke:maroon;stroke-width:1px;stroke-linecap:butt;stroke-linejoin:round;stroke-opacity:1" d="m1220.25 836.25-80.027.25-111.011.75-175.75-59-246-30.25-107.5 6.75L300.75 789l-85.25 22.25-26.75 22.25-9.25 12.25-6.25 2-24.75-9.25M1192 1136.5l-166.75-58.75M1562 696.25l-.75 4.510.046.5L1637 859.5l20 54.75-8.0108.25-4.5 3.5-416.75 6.25-24.5 92.25-11.012.25"/><path style="fill:none;stroke:maroon;stroke-width:1px;stroke-linecap:butt;stroke-linejoin:round;stroke-opacity:1" d="m1648.75 1022.5-14.0173.75-4.25 63.75-8.5 85.75-13.5 71-22.75 52-18.75 30.5-1.0103.25-34.5 116v60.5l-4 24.5M1604.5 803.75l-1.25 6.5-43.023.5-102.047.75-137.5 63.25-234.25 102-232.25 102.75M1589.25 777.25l-1 4.75-90 54-43.75 26.25-154.5.25-3 2.5.5 46-3.25 3-428.75 4-347.5-3.25-81.5-2.25-26.25 4.5-54.75-6.5-76-.75M1676.5 597.5l33.25-23.75 4.76-3.65h3.09l5.08 7.07-1.1 3.54-4.86 2.87-3.09-.66-3.76-6.19h-4.2"/><path style="fill:none;stroke:maroon;stroke-width:1px;stroke-linecap:butt;stroke-linejoin:round;stroke-opacity:1" d="M1706 576v-3.25l-2.5-4.25.25-3 6.52-4.32 2.69 1.18 2.65 3.76-1.1 3.98"/></svg>