<?xml version="1.0" encoding="UTF-8" standalone="no"?>
<!-- Created with Inkscape (http://www.inkscape.org/) -->

<svg
   xmlns:dc="http://purl.org/dc/elements/1.1/"
   xmlns:cc="http://creativecommons.org/ns#"
   xmlns:rdf="http://www.w3.org/1999/02/22-rdf-syntax-ns#"
   xmlns:svg="http://www.w3.org/2000/svg"
   xmlns="http://www.w3.org/2000/svg"
   xmlns:xlink="http://www.w3.org/1999/xlink"
   version="1.1"
   width="11000"
   height="7850"
   id="svg2">
  <metadata
     id="metadata8">
    <rdf:RDF>
      <cc:Work
         rdf:about="">
        <dc:format>image/svg+xml</dc:format>
        <dc:type
           rdf:resource="http://purl.org/dc/dcmitype/StillImage" />
        <dc:title></dc:title>
      </cc:Work>
    </rdf:RDF>
  </metadata>
  <defs
     id="defs6" />
  <image
     xlink:href="../streetmap/shaosm.png"
     style="display:none"
     id="image10"
     height="6348.7739"
     width="8945.999"
     y="101.22607"
     x="550" />
  <path
     d="m 4365,4023 46,-32 38,-17 72,-23 37,-18 17,-17 8,-22 -2,-25 -19,-36 -12,-71 -17,-49 -14,-17 -68,-58 -35,-26 -35,-39 -32.5,-32.5 -90,-139.5 -10,-31 -59,-175 -0.5,-49.5 6.5,-54.5 -6.5,-24 -67.5,-160 -1,-47.5 30,-89 18,-44.5 31.5,-34 133.5,-88 41.5,-32 40.5,-50 42,-43 27.5,-13.5 36,-10 32.5,0 282,126 31,-1.5 42,-25.5 20,-25.5 43.5,-28 43,-31 10,-22 0,-45 -9,-66 -1,-28 6,-39 -12,-66 1,-38 9,-23 18,-30 13,-48 3,-57 12,-134 12,-75 8,-118 -0.081,-21.0036"
     id="path3794"
     style="fill:none;stroke:#fed700;stroke-width:5;stroke-linecap:butt;stroke-linejoin:round;stroke-miterlimit:4;stroke-opacity:1;stroke-dasharray:none" />
  <path
     d="m 4161,3027 76,-22 31,3 77,2 46,-14 30,-11 44,7 14,-3 26,-12 23,-6 62,-38 36,-23 20,-6 27,-21 28,-8 49,-43 32,-10 101,0 12,-5 9,-22 10,-10 22,-18 99,-21 36,-21 53,-20 38,-7 86,4 51,5 71,33 127,52 101,38 117,76 144,92 43,37 21,25 10,11 17,65 19,102 20,12 51,0 92,7 84,-13 21,3 84,35 36,2 93.9688,-17.0116"
     id="path3839"
     style="fill:none;stroke:#8cc320;stroke-width:5;stroke-linecap:butt;stroke-linejoin:round;stroke-miterlimit:4;stroke-opacity:1;stroke-dasharray:none" />
  <path
     d="M 4695.1362,2545.8643 4691,2563 l -6,28 13,35 36,26 63,28 62,20 56,26 16,16 16,41 12,23 31,51 16,29 4,13 -8,15 -69,32 -69,39 -79,34 -55,20 -102,59 -9,11 3,20 1,20 -17,39 -57,86 -68,105 -23,78 -10,67 -33,311 -7,37 -12,30 -65,74 -232,266 -98,119 -114,132 -21,30 -96,148"
     id="path3860"
     style="fill:none;stroke:#e70012;stroke-width:5;stroke-linecap:butt;stroke-linejoin:round;stroke-miterlimit:4;stroke-opacity:1;stroke-dasharray:none" />
  <path
     d="m 5154,2695.5 93.5,14"
     id="path3864"
     style="fill:none;stroke:#000000;stroke-width:5;stroke-linecap:butt;stroke-linejoin:round;stroke-miterlimit:4;stroke-opacity:1;stroke-dasharray:none" />
  <text
     x="89.453125"
     y="7747.9609"
     id="text3866"
     xml:space="preserve"
     style="font-size:144px;font-style:normal;font-weight:normal;line-height:125%;letter-spacing:0px;word-spacing:0px;fill:#000000;fill-opacity:1;stroke:none;font-family:Sans;-inkscape-font-specification:Sans"><tspan
       x="89.453125"
       y="7747.9609"
       id="tspan2">2000</tspan></text>
  <text
     x="89.453125"
     y="206.96094"
     id="text3870"
     xml:space="preserve"
     style="font-size:144px;font-style:normal;font-weight:normal;line-height:125%;letter-spacing:0px;word-spacing:0px;fill:#000000;fill-opacity:1;stroke:none;font-family:Sans;-inkscape-font-specification:Sans"><tspan
       x="89.453125"
       y="206.96094"
       id="tspan1">2000</tspan></text>
</svg>
