<?xml version="1.0" encoding="UTF-8" standalone="no"?>
<svg
   xmlns:dc="http://purl.org/dc/elements/1.1/"
   xmlns:cc="http://creativecommons.org/ns#"
   xmlns:rdf="http://www.w3.org/1999/02/22-rdf-syntax-ns#"
   xmlns:svg="http://www.w3.org/2000/svg"
   xmlns="http://www.w3.org/2000/svg"
   xmlns:xlink="http://www.w3.org/1999/xlink"
   version="1.1"
   width="8050"
   viewBox="650, -75, 8050, 8500"
   height="8500"
   id="svg2">
  <metadata
     id="metadata44">
    <rdf:RDF>
      <cc:Work
         rdf:about="">
        <dc:format>image/svg+xml</dc:format>
        <dc:type
           rdf:resource="http://purl.org/dc/dcmitype/StillImage" />
        <dc:title></dc:title>
      </cc:Work>
    </rdf:RDF>
  </metadata>
  <defs
     id="defs6">
    <linearGradient
       id="linearGradient29158">
      <stop
         id="stop29160"
         style="stop-color:#6699cc;stop-opacity:1"
         offset="0" />
      <stop
         id="stop29162"
         style="stop-color:#6699cc;stop-opacity:0.41"
         offset="1" />
    </linearGradient>
  </defs>
  <image
     xlink:href=".././../streetmap/parosm.png"
     id="image12"
     height="6886.77"
     width="7997.54"
     y="263.23"
     x="666.14"
     style="display:none" />
  <text
     x="739.45"
     y="131.96"
     id="text2847"
     xml:space="preserve"
     style="font-style:normal;font-weight:normal;font-size:144.0px;font-family:Sans;-inkscape-font-specification:Sans;fill:#000000;fill-opacity:1;stroke:none"><tspan
       x="739.45"
       y="131.96"
       id="tspan1">1875</tspan></text>
  <text
     x="739.45"
     y="8322.96"
     id="text2847-0"
     xml:space="preserve"
     style="font-style:normal;font-weight:normal;font-size:144.0px;font-family:Sans;-inkscape-font-specification:Sans;fill:#000000;fill-opacity:1;stroke:none"><tspan
       x="739.45"
       y="8322.96"
       id="tspan2"></tspan></text>
  <path
     d="m 3956.02,2968.65 -30,-66 -29.5,-50.0 -28.5,-40 -22.25,-14.5"
     id="path3619-0"
     style="fill:none;stroke:#7082c0;stroke-width:5;stroke-linecap:butt;stroke-linejoin:round;stroke-miterlimit:4;stroke-dasharray:none;stroke-opacity:1" />
  <path
     style="fill:none;stroke:#7082c0;stroke-width:5;stroke-linecap:butt;stroke-linejoin:round;stroke-miterlimit:4;stroke-dasharray:none;stroke-opacity:1"
     id="path3619"
     d="m 3847.44,2798.47 -28.47,-5.36 -20.08,1.34 -52.55,9.04 -33.66,10.08 -46.16,34.09 -109,90 -33.5,27 -17.5,15.5 -22.5,27.5 -26.5,49.5 -27,52 -5,19 -3.5,26 3,23.5 9.5,20.5 5.5,20 -1.5,13 -6.17,13.97 -12.33,11.03 L 3368,3273 l -11,6.5 -17,15.5 -10,22.5 -6,18 -2,12 -3.5,23.5 -9.5,15.5 -7.5,16.5" />
</svg>
