<svg width="8050" viewBox="650, -75, 8050, 8500" height="8500" xmlns="http://www.w3.org/2000/svg"><path d="M3649.326 3007.258l-4.777 10.237-82.028 52.159-13.5 3.5-77-27" fill="none" stroke="#0069b5" stroke-width="5" stroke-linejoin="round"/><path d="M3514.221 2945.061l117.364 55.908 6.62 1.455 13.642-2.198 10.4 5.273 8.263 13.92 4.193 3.612 224.818 107.623 33-5.5 21.5 3.5 95 48 23 14 50 24.5 72 33.5 90 36 41 14.5 45 23.5 20 4.5 2.5 5.5-2 7 5 7 11.5 3.5 29.5 91.5 9.5 5.5 21.5-5 80.5-16.5 114.5-20.5 31.5-2 104.5 15.5 6.756.951" fill="none" stroke="#ffcd02" stroke-width="5" stroke-linejoin="round"/><text x="739.453125" y="131.96103" style="-inkscape-font-specification:Sans" font-weight="400" font-size="143.99993896px" font-family="Sans"><tspan x="739.453125" y="131.96103">1900</tspan></text><text x="739.453125" y="8322.9609" style="-inkscape-font-specification:Sans" font-weight="400" font-size="143.99993896px" font-family="Sans"/><path d="M3956.02 2968.654l-30-66-29.5-50-28.5-40-22.25-14.5" fill="none" stroke="#7082c0" stroke-width="5" stroke-linejoin="round"/><path d="M3575.521 3181.347l5.5-16.193 75.365-157.597" fill="none" stroke="#f68c58" stroke-width="5" stroke-linejoin="round"/><path d="M3847.439 2798.466l-28.466-5.356-20.084 1.34-52.553 9.037-33.658 10.078-46.157 34.089-109 90-33.5 27-17.5 15.5-22.5 27.5-26.5 49.5-27 52-5 19-3.5 26 3 23.5 9.5 20.5 5.5 20-1.5 13-6.168 13.973-12.332 11.027L3368 3273l-11 6.5-17 15.5-10 22.5-6 18-2 12-3.5 23.5-9.5 15.5-7.5 16.5-10 17-7 21.5 1 17.5 7.5 16.5 14.5 12 90.5 63 20 6.5 94.5 36 79 30.5 19 15 19.5 17 40.5 15.5 191.5 62 89.5 31 122 41 31 9 22.5 3.5h97l71.5-1 27.5-1 48-12 84.5-22.5 32.5-14.5 48.5-21.5 33-19.5 32-25 25-17 23-11 10-3 11.5-4 16.5-10 19.5-16 38.5-33 13-11.5 11-13.5 13.5-22.5 9-23 6.5-31 5.5-40 10-56 .5-29.5-5-20.5-18-36-14-29-18-37.5-18-30.5-14.5-11-106-107.5-22-32-5-14.5-5-52-12.5-95.5-5.5-36-7.5-31.5v-14.5l-.5-33.5-2.5-59-5.5-17-18-32-20-18-31-12-45-9.5-43.5-2-65.5-11-68-2-63.5 2L4003 2673l-28.5 1.5-39.802-2.185-37.711 10.627L3863 2700l-39.5 7-67 44-27 24.5-17.5 38.5" fill="none" stroke="#7082c0" stroke-width="5" stroke-linejoin="round"/><path d="M3563.02 3333.154l-14 9.5-16.5.5-18.5-7.5-62.5-60-9.5-29-3.5-15.5M3849.508 3182.949l-136.988 1.205-26 5-22.5 12-58 62-6.5 15.5-6 21.5-30.5 33" fill="none" stroke="#7082c0" stroke-width="5" stroke-linejoin="round"/></svg>