<svg viewBox="650, -75, 8050, 8500" width="8050" height="8500" xmlns="http://www.w3.org/2000/svg"><path style="fill:none;stroke:#ead417;stroke-width:5;stroke-linecap:butt;stroke-linejoin:round;stroke-miterlimit:4;stroke-dasharray:none;stroke-opacity:1" d="m3845.312 3182.986-132.792 1.168-26 5-22.5 12-58 62-6.5 15.5-6 21.5-34.5 37-73 78.5-21.5 24.5-40.5 68-42.5 84.5-11 33-40.5 69-9.5 32 4 42 .5 19-6 18.5-12.5 22.5-16.5 12.5-34.5 20-36.5 11.5-16 7-15 13.5-11 19-15 42-17.5 22.5-22 25-21.5 39.5-15.5 24.5-13.5 21.5-12.5 10-13 4-381.5 56.5-61.059 7.649h-25.102l-39.952-11.314-68.235-23.335-72.832 2.122-18.032 2.474-49.497 15.91-49.851 23.688-54.8 19.092-27.578 6.718-38.537 2.828-28.638-3.182-25.81-7.07-130.46-51.973"/><path style="fill:none;fill-rule:evenodd;stroke:#81c99c;stroke-width:5;stroke-linecap:butt;stroke-linejoin:round;stroke-opacity:1;stroke-miterlimit:4;stroke-dasharray:none" d="m4705.013 2913.28 5.356 7.698 28.787 19.415 37.825 10.711 5.69 7.364"/><path style="fill:none;stroke:#623f98;stroke-width:5;stroke-linecap:butt;stroke-linejoin:round;stroke-miterlimit:4;stroke-dasharray:none;stroke-opacity:1" d="m3684.02 3806.154 40.5-49.5 32-34 93.5-67.5 46-37.5 39.5-34 1-8.5-32-122-20.5-16-13-14.5-21.5-61 7.5-103.5-6.5-7v-47.5"/><path d="m3830.52 4443.654-10.5 13-11 7.5-15 3-116-35-13-12.5-6.5-19 1-28 1-10.5-6.5-12.5-9.5-7.5-12.5-7.5-12 .5-18 9-15 25.5-12.5 10-27 9.5-14 11.5-6.5 19.5-7.5 22-4.5 10.5" style="fill:none;stroke:#4395d1;stroke-width:5;stroke-linecap:butt;stroke-linejoin:round;stroke-miterlimit:4;stroke-dasharray:none;stroke-opacity:1"/><path d="m1381.136 5638 127-20 47-2.5 30 7 26 9 36 21.5 40 17 40 5.5 71.5-8.5 87 12.5 47.5 18.5 43.5 18h16l76-13h17l127.5 52 45.5 17 16.5 1.5 19-6 19.5-18 13.5-10.5 18-6 15.5-.5 31.5 8h15.5l90-22.5 40.5-11.5 14.5-18 16-40.5 18-21 18-21 15.5-11.5 18-5.5 141 1 32.5-5 20 7 19 4 35-3.5 27 4 18-.5 24-3.5 56 8 21.5.5 23-10.5 8-14 6-23 8.5-22.5 16.5-20 11-21.5 28.5-34 35.5-60 17.5-22 18-12.5 20.5-2.5 25-8 23.5-26.5 114-132 43.5-44 81.5-35 46-31 83-44 19.5-17.5 16-18 13.5-33 17.5-115 29.5-92 18.385-56.346 36-62 13-35 5-23.5-5.5-38-.5-26 12-38 14-32.5 3-21.5-2.5-30 2-17 47.5-117 10-9 11.5-5 32-4.5 12-4 19-9 12.5-15.5 4.5-15.5 15.5-102 5-21 27-37.5 77.5-89 7-13.5 5-14-2-18-9-37.5-12-48.5-12-45-16-76-6-16.5-12-15-5.5-15.5-10-30 .88-4.575 40.62-65.925 3.5-23.5 36.939-98.162" style="fill:none;stroke:#4395d1;stroke-width:5;stroke-linecap:butt;stroke-linejoin:round;stroke-miterlimit:4;stroke-dasharray:none;stroke-opacity:1"/><path d="m2824.02 2595.154-158 78-273.384 136.346-41 13.5-52 10-38.5 4-52-5-29-5-49-19-118.5-55-43.5-22.5-29.5-26-24.5-38.5-11.5-31.5-22-29.5-21-19-29.5-15-57.5-16-32.5-8.5-25 2.5-26.5 7-24.5 10-19 11.5-10 17.5-3 15.5-2 27.5M3405.52 2517.654l-134 70.5-61 30-45.5 28.5-56 35.5-36.5 25-17 30-4 46.5-7 48-13 35.5-65.5 88-54 75.5-10.5 28-12.5 43-26.5 121-2 25.5 4.5 98 7.5 42.5 3 20.5-3 28.5-6.5 20-22.037 33.422-26.163 21.92-45.608 20.506-22.98 15.203-20.507 24.042-10.253 26.516-4.243 13.789-21.213 177.13-10.253 28.284-14.496 19.8-56.568 48.436-14.496 22.628-50.912 93.338-24.395 26.163-20.506 13.435-32.527 13.081-36.77 4.596-173.947 3.182-17.325-2.475-20.86-5.303-35.708-19.445-30.406-19.8-19.799-6.363-35.355-5.657-59.043-6.364" style="fill:none;stroke:#7082c0;stroke-width:5;stroke-linecap:butt;stroke-linejoin:round;stroke-miterlimit:4;stroke-dasharray:none;stroke-opacity:1"/><path d="m3972.52 2980.154 4.5-6 1.5-72 1-44-16.5-56 45-202.5 29.5-131 9.5-47 96-118.5M3963.02 2802.154l-19-16.5-64.5-56.5-33.655-29.5" style="fill:none;stroke:#74cede;stroke-width:5;stroke-linecap:butt;stroke-linejoin:round;stroke-miterlimit:4;stroke-dasharray:none;stroke-opacity:1"/><path d="m3430.02 3773.654 39-24.5 48.5-38 84.5-85 60.5-48 47.5-37 60.5-26.5 128.5-60 15-2 57 31 6.5-3.5 16-31-30-157-13.5-25.5-44-69.5v-11l23.5-39 29.5-61-2-27.5 20-43.5-3-25.5 4-6 53.5-11 69 7 4-2.5.5-4.5-17-23-10.5-19 7.5-28-4.5-21 14-32.5v-81l9-22 21-23 7.5-2 20 5 53 20 29 3.5 37 8.5 31.502.426 6.999-7.926-4-59.5-2-50" style="fill:none;stroke:#00824e;stroke-width:5;stroke-linecap:butt;stroke-linejoin:round;stroke-miterlimit:4;stroke-dasharray:none;stroke-opacity:1"/><path d="m4701.52 3147.654 56-99.5 25.5-88.5" style="fill:none;stroke:#96a33c;stroke-width:5;stroke-linecap:butt;stroke-linejoin:round;stroke-miterlimit:4;stroke-dasharray:none;stroke-opacity:1"/><path d="m4876.02 2921.154-29.5 12-67.5 28-37 17-38 7.5-32.5 4.5-12.98-13.521-18.834-4.9-21.685 15.42-20 10-17.5 3.5-18.5 13.5-23 3-54.5 21-43.5 24.5-56.68 29.735-43.82 28.266-11 6.5-18.5 24-5.5 1.5-24.5-10.5h-8.5l-5.5 2.5-11 34-30.5 83.5-9.5 5-33-15.5" style="fill:none;stroke:#865e39;stroke-width:5;stroke-linecap:butt;stroke-linejoin:round;stroke-miterlimit:4;stroke-dasharray:none;stroke-opacity:1"/><path d="m4365.52 3503.154-15-30.5-23-34.5-29-25.5-8.5-2-41 31.5-8-.5-13.5-10-27.5-52.5-99-37-34.5-12-37.5 8.5-56.5 17-48 35.5-26 20.5-55 28-20.5 8.5-11.5-3-28.5-20-60-57h-5.5l-26.5 29-16.5 14.5-18.5 12-114 7.5-58.5 4.5-48-17-20 9.5-50.5 25-89.534-3.837" style="fill:none;stroke:#d8ad3d;stroke-width:5;stroke-linecap:butt;stroke-linejoin:round;stroke-miterlimit:4;stroke-dasharray:none;stroke-opacity:1"/><path d="m3415.02 3427.654-13 1.5-14-11-22-2.5-27.5-8-51.5 3.5-7.5 6-8 27.5 5.5 5.25" style="fill:none;stroke:#d8ad3d;stroke-width:5;stroke-linecap:butt;stroke-linejoin:round;stroke-miterlimit:4;stroke-dasharray:none;stroke-opacity:1"/><path d="m5136.02 3181.154-3.5 12-46 58-147 41.5-134.5 35.5-88 24-32.468 37.663-5.29 2.551-5.636 1.276-6.16-.753-5.864-2.289-117.081-106.448-108-96.5-73.5-67.5-26.94-20.025-66.339-15.89-29.221-10.671-56.258-17.94-72.864-17.206-78.878-18.268-125-25-92 28-9 9.5v49.5l-8 9.5-50 40-19.31 15.734-21.69.266M3707.52 3147.654l-52 1.5-18.5 3.5-56 24.5-54.5-6.5-39.5-6.5-7.5 1.5-7 9-31.5 80.5-38 36.5-9.5 15-16.5 45-12.5 38.5-24.5 17.5-41.5 81.5-16.5 36.5-8 29.5-10.5 10.5-261 125" style="fill:none;stroke:#cace2c;stroke-width:5;stroke-linecap:butt;stroke-linejoin:round;stroke-miterlimit:4;stroke-dasharray:none;stroke-opacity:1"/><path d="m3483.52 3588.654 9-11.5 32-29.5 66.5-38.5 36-22.5 50.5-85 35-38.5 53.5-53 41.5-49.5 11.5-10.5 27.5-.5 8-7 1.48-37.536 3.02-28.964 6.5-16.5 6.5-4.5 17-.5 24-7.5 30.5-60 7-6.5 94.5-26 58.5-13 47 10.5 32 7.5 29.5 9 57 20 12.5 3 52.5 13 25 20 16 42 6.5 16.5 20.5 135 13.5 11.5 24 14.5 71.5 25.5 48.5 7.5 20.5 38 51 70 39.5 49.5 16.5 13 67 35.5 21 12 2.5 7-44 30.5-34.733 20.52-.67 9.476 87.404 86.004 72.91 71.472" style="fill:none;stroke:#b89cca;stroke-width:5;stroke-linecap:butt;stroke-linejoin:round;stroke-miterlimit:4;stroke-dasharray:none;stroke-opacity:1"/><path d="m4365.52 2895.154 57.5-6.5 31 13.5 70 47.5 5-2 12-11 24.5-8 39.5-5.5 7 3.5 30.5 39 8-.5 50-36.5 2.5-12-24.5-20.5-29-10-6 1-32 34-8 3" style="fill:none;stroke:#f59fb8;stroke-width:5;stroke-linecap:butt;stroke-linejoin:round;stroke-miterlimit:4;stroke-dasharray:none;stroke-opacity:1"/><path d="m4304.624 3839.991-4.304-14.145-35.3-166.692-47-103.5 1-9 10-32 3-35.5 8-20 6.071-7.918 42.93-34.082 14.33-11.345 31.17-27.155 3.5-12-7.5-13.5-51-31.5-71-40-74-35.5-23-8-2-4.5 7-20-2.5-9-47.493-22.616-34.507-117.384-.5-15 10-28 158-61.5 14.5-1.5h10l60 11.5 20 5.5 5.5.5 8-2 16.5-41 116.5-144 69.5-83 47.191-59.776" style="fill:none;stroke:#f59fb8;stroke-width:5;stroke-linecap:butt;stroke-linejoin:round;stroke-miterlimit:4;stroke-dasharray:none;stroke-opacity:1"/><path d="m4665.645 3413.663 14.629 1.746 1.291.634 15.932 33.04 35.444 4.709 3.589 4.973-15.954 67.884-2.555 5.005-109.5 15-21-1-76.5-20-9.5 2-72.5 58.5-20.5 14.5-48.5 24.5-82.627 43.481-9.55 3.849-8.254.224-7.376-1.005-4.843.251-39.35 18.7-6 .5-130-54.5-43-16.5-8.5-38.5-10-40.5-77-39.5-11-1-20 2.5-44 20-7-1.5-37-68.5-6.5-4-179-83-69-104-2.5-13.5-2-18 16.5-39 9-26.5 65.55-137.074 12.786-3.91 3.186-2.909 1.806-4.358-2.712-6.652-12.849-5.843-7.271 1.948-2.517 4.863.217 4.94 7.355 11.92" style="fill:none;stroke:#81c99c;stroke-width:5;stroke-linecap:butt;stroke-linejoin:round;stroke-miterlimit:4;stroke-dasharray:none;stroke-opacity:1"/><path d="m4850.287 2711.953-110.766 33.7-99 39.5-100.5 39-32.5 15.5-76 42.5-18.5 1.5-9-8.5-10-12.5-22-8-52 .5-8.5 6.5-10.89 11.484-19.365 53.19-11.44 6.828-3.805 18.499v7l7 13.5 8.5 2 21 6 1.5 6.5-1 17.5 6 23.5 14.5 31.5 47.5 75.5 51 46 14 14.5 3 8.5-4 19.5-20 69-19 44-24.5 70.5-4.5 18.5 2 7 10.5 11 17.5 15 2 6-1 5.5-23.5 22-15 8-10.5 4-4.5 5-20.5 39-51.856 101.798 2.878 6.633 1.3 6.016-3.026 2.856-6.491 2.722-7.232.285-5.63-2.51-.72-6.264 2.86-4.32 10.205-3.443 7.025-4.27" style="fill:none;stroke:#f68c58;stroke-width:5;stroke-linecap:butt;stroke-linejoin:round;stroke-miterlimit:4;stroke-dasharray:none;stroke-opacity:1"/><path d="m4154.02 2645.154 39.5 71.5 11 19.5 2 11-.5 58-.5 54.5 3 8.5 22.5 36 25 12 21 6.5 11.5 4.5 5 7.5-.5 11-7.5 41-20.5 55.5-37.5 105-9 12-34 11.5-8.5 6.5-7.5 26.5 11 30.5 4.5 15.5 3.907 17.733-7.406 31.267-29.5 24.5-27.5 19-9.5-1.5-42.5-14.5-24-7-9.5 3-39 65-26 42-24.5 40.5 3 10 48 21 9 9.5 8.5 37 14.5 63 .5 16.5-24 35.5-31 53-13.865 72.56" style="fill:none;stroke:#b0499b;stroke-width:5;stroke-linecap:butt;stroke-linejoin:round;stroke-miterlimit:4;stroke-dasharray:none;stroke-opacity:1"/><path d="m3505.02 2648.654 78 132.5 22 37 13.5 9.5 130.5 28 62 20.5 24.5 29 32.5-6.5 12.5 2.5 45 24.5 5.5 12 20.5 53 78 67.5 10.5 10 51.5 14 172 55 16.5-.5 46.5-14 38-7.5 148.5 44.5 75.5 20.5 88-33h14l11.196-1.074" style="fill:none;stroke:#96a33c;stroke-width:5;stroke-linecap:butt;stroke-linejoin:round;stroke-miterlimit:4;stroke-dasharray:none;stroke-opacity:1"/><path d="m4700.05 3361.901-1.256 6.069-17.385 17.953-10.037.958-2.323 1.419-3.465 12.75 1.17 2.598 4.303 1.371 9.86-1.33 20.827-5.902 4.877-5.15-5.1-27.483-9.5-21-33.5-67-27.5-20.5-21.5-10.5-23.5-74.5-65-83-71-92.5-31.5-42.5-4.5-20-1-59-17.5-21.5-63-3-30.5-2-51.5 7-48.5 3.5-42 11-50.5 14h-14l-88.5-35.5-5.5 1-20 13.5-64 19.5-53 11.5-71.5 14-104 37-7 8-20.469 43.27-23.447 26.067-75.584 47.663-13.5 3.5-77-27" style="fill:none;stroke:#0069b5;stroke-width:5;stroke-linecap:butt;stroke-linejoin:round;stroke-miterlimit:4;stroke-dasharray:none;stroke-opacity:1"/><path d="m3306.443 2846.085 325.142 154.884 6.62 1.455 11.082-3.307 16.086 7.537 5.137 12.765 4.193 3.612 224.818 107.623 33-5.5 21.5 3.5 95 48 23 14 50 24.5 72 33.5 90 36 41 14.5 45 23.5 20 4.5 2.5 5.5-2 7 5 7 11.5 3.5 28.3 88.82 4.484 3.763 215.073-37.249 16.48 3.94 9.569-.98 17.133-4.541 100.46 14.747 209.5 29.5 114 15.5" style="fill:none;stroke:#ffcd02;stroke-width:5;stroke-linecap:butt;stroke-linejoin:round;stroke-miterlimit:4;stroke-dasharray:none;stroke-opacity:1"/><path d="m4303.02 3837.654 13.5 13.5 14.5-1 66.5-32.5 13 1 31.5 32.5 37.5 43 41.5 54 13 16.5 21.5 16.5" style="fill:none;stroke:#f59fb8;stroke-width:5;stroke-linecap:butt;stroke-linejoin:round;stroke-miterlimit:4;stroke-dasharray:none;stroke-opacity:1"/><text x="739.453125" y="131.96103" xml:space="preserve" style="font-style:normal;font-weight:400;font-size:143.99993896px;font-family:Sans;-inkscape-font-specification:Sans;fill:#000;fill-opacity:1;stroke:none"><tspan x="739.453125" y="131.96103">1955</tspan></text><text x="739.453125" y="8322.9609" xml:space="preserve" style="font-style:normal;font-weight:400;font-size:143.99993896px;font-family:Sans;-inkscape-font-specification:Sans;fill:#000;fill-opacity:1;stroke:none"/><path d="m3956.02 2968.654-30-66-29.5-50-28.5-40-20-19-86-78.5-82.5-71-102.56-90.5-26.765-20.94-20.674-14.56-29-10-24-4-31.5 1.5-33.5 10-21 5.5-17-1-16.5-8-14-13.5-11.5-56-14-20.5-20-14-22.5-9.5-33.5-1-29.5 10-116.5 53-97.5 49-176.649 86.281" style="fill:none;stroke:#7082c0;stroke-width:5;stroke-linecap:butt;stroke-linejoin:round;stroke-miterlimit:4;stroke-dasharray:none;stroke-opacity:1"/><path style="fill:none;stroke:#7082c0;stroke-width:5;stroke-linecap:butt;stroke-linejoin:round;stroke-miterlimit:4;stroke-dasharray:none;stroke-opacity:1" d="m3847.439 2798.466-28.466-5.356-20.084 1.34-52.553 9.037-33.658 10.078-46.157 34.089-109 90-33.5 27-17.5 15.5-22.5 27.5-26.5 49.5-27 52-5 19-3.5 26 3 23.5 9.5 20.5 5.5 20-1.5 13-6.168 13.973-12.332 11.027L3368 3273l-11 6.5-17 15.5-10 22.5-6 18-2 12-3.5 23.5-9.5 15.5-7.5 16.5"/><path d="m3960.049 2966.676-30.177-66.53-29.5-50-28.5-40-20-19-86-78.5-82.5-71-102.56-90.5-82.98-69.377-186.097-207.27-19.092-28.992-2.828-31.113-1.06-21.213 36.062-126.218 7.07-35.71-1.767-17.677-8.132-39.598-47.73-91.57" style="fill:none;stroke:#bace2b;stroke-width:5;stroke-linecap:butt;stroke-linejoin:round;stroke-miterlimit:4;stroke-dasharray:none;stroke-opacity:1"/></svg>