<?xml version="1.0" encoding="UTF-8" standalone="no"?>
<svg
   xmlns:dc="http://purl.org/dc/elements/1.1/"
   xmlns:cc="http://creativecommons.org/ns#"
   xmlns:rdf="http://www.w3.org/1999/02/22-rdf-syntax-ns#"
   xmlns:svg="http://www.w3.org/2000/svg"
   xmlns="http://www.w3.org/2000/svg"
   xmlns:xlink="http://www.w3.org/1999/xlink"
   viewBox="0 -2000 6000 6100"
   height="6100"
   width="6000"
   version="1.1"
   id="svg2">
  <metadata
     id="metadata8">
    <rdf:RDF>
      <cc:Work
         rdf:about="">
        <dc:format>image/svg+xml</dc:format>
        <dc:type
           rdf:resource="http://purl.org/dc/dcmitype/StillImage" />
        <dc:title></dc:title>
      </cc:Work>
    </rdf:RDF>
  </metadata>
  <defs
     id="defs6" />
  <image
     style="display:none"
     y="-110.83887"
     x="-250"
     id="image10"
     xlink:href="file:///home/alexander/timelines/timelines/streetmap/../streetmap/hamosm.png"
     preserveAspectRatio="none"
     height="4210.8389"
     width="6216" />
  <path
     id="path4157"
     d="M 1120.5586,2069.6342 1141,2069.5 l 60,18 43.5,19.5 19,11.5 41.5,38 14.5,22 15.5,41.5 11,66 -5.5,15.5 -10.5,10.5"
     style="fill:none;fill-rule:evenodd;stroke:#23b24b;stroke-width:5;stroke-linecap:butt;stroke-linejoin:round;stroke-miterlimit:4;stroke-dasharray:none;stroke-opacity:1" />
  <path
     id="path4228"
     d="m 2992.1347,578.33731 27.7052,-4.12631 19.7137,0 47.9699,15.44237 40.413,34.82747 9.1997,11.8282 4.2713,10.18539 21.0279,80.16891 2.3,12.15676 -0.6572,17.08518 -2.957,17.74229 -26.942,89.36862 -3.9427,23.32784 -1.3143,17.08517 2.9571,26.2848 6.2426,74.2549 -4.9284,190.8939 1.9714,13.1425 3.6141,7.5569 5.9141,8.214 9.5283,6.8998 93.6399,63.4123 22.0136,38.606 12.4854,12.4852 2.673,11.7537 0.284,20.281 -11.9925,38.2774 -8.5426,62.5909 -10.5139,22.5064 -18.2352,83.6188 -9.1997,22.0136 -9.5283,9.5283 -19.7136,13.1424 -194.5082,90.0258 -55.5268,27.9277 -9.1997,7.8854 -5.9141,8.8712 -2.3,11.8282 2.6285,30.2276 12.1568,58.1553 0.3286,13.1425 -3.6142,21.0279 -17.0852,26.2849 -26.942,24.3135 -13.1424,12.8139 -37.1274,61.7694 0,9.8569 3.9427,8.8711 17.4137,12.8139 8.8712,16.0995 2.6285,43.6986 0,87.0687 -4.2713,79.1832 8.5426,58.1553 -9.5283,38.7703 0,14.4566 9.1997,25.6278 16.0995,70.9692 27.3431,30.0548"
     style="fill:none;fill-rule:evenodd;stroke:#0072bc;stroke-width:5;stroke-linecap:butt;stroke-linejoin:round;stroke-miterlimit:4;stroke-dasharray:none;stroke-opacity:1" />
  <path
     id="path4234"
     d="m 3070.6935,2510.9065 -44.1681,9.0573 -53.3411,17.0711 -36.4703,1.6428 -14.1282,4.9284 -10.8425,10.8425 -15.4423,0.3286"
     style="fill:none;fill-rule:evenodd;stroke:#ffdc01;stroke-width:5;stroke-linecap:butt;stroke-linejoin:round;stroke-miterlimit:4;stroke-dasharray:none;stroke-opacity:1" />
  <path
     id="path4230"
     d="m 4475.037,972.7556 10.5139,-23.6564 13.1425,-11.8282 20.3708,-7.557 11.8282,0.6572 101.8539,30.2276 35.156,4.2713 28.5848,-0.6571 19.0566,-3.6142 20.6993,-12.1568 19.7137,-18.728 88.0544,-111.38212 21.685,-16.75661 37.1274,-24.64208 22.9993,-5.25698 19.3851,1.31424 259.2347,65.0551 19.0565,9.52827 12.4854,8.54259 181.3657,153.76659 13.7995,6.2426 29.8991,4.2713 23.3278,-5.9141 21.6851,-11.8282 21.685,-24.6421 19.0565,-26.942 53.2269,-143.9097"
     style="fill:none;fill-rule:evenodd;stroke:#0072bc;stroke-width:5;stroke-linecap:butt;stroke-linejoin:round;stroke-miterlimit:4;stroke-dasharray:none;stroke-opacity:1" />
  <path
     id="path4159"
     d="m 2971.3144,2446.1856 9.9356,-0.9356 19.5,3.25 11.5,5.75 13.75,7.25 10.5,14 11,19.5 7.5,26 5,9.75 8.5,9.5 12.5,7.75 12.75,3.5 14,1.25 12.75,-3.25 39.75,-15.75 17.5,-11 17,-13 13,-9.75 6.5,-19.75 7.75,-24.25 8.5,-12.5 22.5,-17 77.5,-52.5 38,-22.5 27.5,-9.5 52,-6 22,-6 50,-22 9,-7.5 7.5,-14 0,-17 -10.5,-32 -21,-72 0,-11.5 -2,-32.5 -5,-19.5 -19,-46 -64,-73 -16.5,-7.5 -52,-16 -16,-13.5 -9,-20 -5,-39.5 -58,-338.5 19.8715,-132.1933 L 3290.5,1377 l 10.5,-22 16.5,-19 21,-7.5 306.5,-113.5 21,-9 15.5,-10.5 22.5,-20.5 92.5,-90.5 11.5,-20.5 33.5,-98"
     style="fill:none;fill-rule:evenodd;stroke:#23b24b;stroke-width:5;stroke-linecap:butt;stroke-linejoin:round;stroke-miterlimit:4;stroke-dasharray:none;stroke-opacity:1" />
  <path
     id="path4232"
     d="m 3206.8204,2487.7308 3.4285,-9.0959 7.0562,-25.3831 11.4997,-14.7852 11.8282,-16.4281 3.6141,-13.1424 0,-17.0852 -11.8282,-49.9413 -20.0422,-59.4696 0,-10.8425 7.8855,-9.8568 10.1854,-11.8282 75.2405,-52.5698 9.8568,-12.1567 8.5426,-22.6708 18.0709,-15.1138 13.1424,-56.1839 37.7845,-52.5698 15.1138,-25.2992 6.2427,-15.7709 -2.9571,-11.4997 -21.0279,-8.5425 -40.413,-11.8282"
     style="fill:none;fill-rule:evenodd;stroke:#ffdc01;stroke-width:5;stroke-linecap:butt;stroke-linejoin:round;stroke-miterlimit:4;stroke-dasharray:none;stroke-opacity:1" />
  <path
     style="fill:none;fill-rule:evenodd;stroke:#23b24b;stroke-width:5;stroke-linecap:butt;stroke-linejoin:round;stroke-miterlimit:4;stroke-dasharray:none;stroke-opacity:1"
     d="m 2368.7885,2419.6731 -6.0289,-23.4469 0.3535,-11.4905 4.5962,-12.1976 1.2907,-2.7881 13.25,-12.5 14.25,-7.25 20.5,-2.5 30.5,0 42.1591,10.4647 54.4672,19.447 11.9285,1.5041 26.7177,-4.1819 19.7479,-11.384 22.7681,-16.7276 18.1216,-6.2729 110.8203,-4.6465 74.8096,0.2323 14.8689,7.8992 34.1522,30.6672 22.0712,31.5966 23.0004,20.2125 25.7884,13.2427 24.6267,7.2021"
     id="path6771" />
  <text
     x="89.453133"
     y="-1793.03906"
     id="text3019"
     xml:space="preserve"
     style="font-style:normal;font-weight:normal;font-size:143.99993896px;line-height:125%;font-family:Sans;-inkscape-font-specification:Sans;letter-spacing:0px;word-spacing:0px;fill:#000000;fill-opacity:1;stroke:none"><tspan
       x="89.453133"
       y="-1793.03906"
       id="tspan1">1950</tspan></text>
  <text
     x="89.453133"
     y="3997.9609"
     id="text3019-6"
     xml:space="preserve"
     style="font-style:normal;font-weight:normal;font-size:143.99993896px;line-height:125%;font-family:Sans;-inkscape-font-specification:Sans;letter-spacing:0px;word-spacing:0px;fill:#000000;fill-opacity:1;stroke:none"><tspan
       x="89.453133"
       y="3997.9609"
       id="tspan2">1950</tspan></text>
  <path
     style="fill:none;fill-rule:evenodd;stroke:#ffdc01;stroke-width:5;stroke-linecap:butt;stroke-linejoin:round;stroke-miterlimit:4;stroke-dasharray:none;stroke-opacity:1"
     d="m 3208.4688,2485.7907 -8.7188,4.4593 -49.5,14.5 -45.8429,3.9861 -35.2421,2.4989"
     id="path4399" />
  <path
     style="fill:none;fill-rule:evenodd;stroke:#23b24b;stroke-width:5;stroke-linecap:butt;stroke-linejoin:round;stroke-miterlimit:4;stroke-dasharray:none;stroke-opacity:1"
     d="m 1280.5,2330.5 46.5,-19 24.5,-3.5 43.5,3.5 51,7 27.5,9 23.5,12 35,25 28,29.5 30,16.5 30,12 31,5 28,1 35,-9 42.5,-0.5 49.5,-5.5 372,-22 152.5,10.5 22,2 16.5,15.5 11.5,27 3,17.5 0,44.3424"
     id="path6873" />
  <path
     id="path7704"
     d="M 2513.4923,2093.1454 2535,2115 l 7.5,16.5 -3.5,22.5 -7,13 -13,15.5 1.5,10.5 26,21.5 10,10 64,25 28.5,-2.5 22.6967,2.9289 13.6143,-5.6535 7.294,-3.0711 13.4361,6.1422 2.3033,4.6067 4.2228,19.9623 -2.2352,11.3868"
     style="fill:none;fill-rule:evenodd;stroke:#ee1d23;stroke-width:5;stroke-linecap:butt;stroke-linejoin:round;stroke-miterlimit:4;stroke-dasharray:none;stroke-opacity:1" />
  <path
     id="path4236"
     d="m 2898.2721,2555.1061 -11.8282,8.5426 -18.3994,0 -8.214,10.514 -15.771,31.5418 -8.8711,18.3995 -11.8282,9.1997 -8.8712,3.2856 -18.3994,-0.3286 -26.6134,1.3143 -53.2269,-27.5992 -6.5712,-7.5569 0,-7.5569 -1.6428,-51.9126 -14.1282,-103.8253 -0.6571,-11.8282 14.7853,-66.0408 -2.3,-11.1711 -8.214,-25.6277 10.1854,-51.5841 -4.2713,-28.2563 -3.9427,-14.1281 -1.6428,-13.7996 4.9284,-16.428 5.5855,-8.5426 60.1267,-74.9119 70.6406,-75.2405 13.1425,-17.0852 34.8274,-58.1553 36.4703,-34.8275 19.3851,-2.957 186.9513,-8.8712 185.9656,35.156 36.0205,11.2284"
     style="fill:none;fill-rule:evenodd;stroke:#ffdc01;stroke-width:5;stroke-linecap:butt;stroke-linejoin:round;stroke-miterlimit:4;stroke-dasharray:none;stroke-opacity:1" />
  <path
     style="fill:none;fill-rule:evenodd;stroke:#0072bc;stroke-width:5;stroke-linecap:butt;stroke-linejoin:round;stroke-miterlimit:4;stroke-dasharray:none;stroke-opacity:1"
     d="m 3613.5211,1905.1406 13.1712,2.0427 23.6563,-4.2713 68.6693,-24.9707 188.9226,-69.6549 29.5705,-14.7853 35.4846,-19.3851 14.1282,-15.4423 52.2412,-62.4266 18.3994,-29.8991 45.3414,-87.3972 157.0522,-218.8217 23.3279,-32.8561 124.1961,-147.1954 17.7423,-28.5848 8.214,-19.3851 0,-55.8554 2.6285,-11.1711 5.9141,-11.1711 23.3278,-41.3987 4.5999,-16.7566 6.2426,-25.6277 0,-16.0995 -4.2713,-12.1568 -21.0279,-40.413 -48.627,-110.39649 -6.5712,-22.01359 -11.8282,-83.78308 -3.2857,-8.54259 -139.967,-250.03498 -4.2713,-15.77093 -1.3142,-12.48533 -3.2856,-81.48315"
     id="path9647" />
  <path
     style="fill:none;fill-rule:evenodd;stroke:#0072bc;stroke-width:5;stroke-linecap:butt;stroke-linejoin:round;stroke-miterlimit:4;stroke-dasharray:none;stroke-opacity:1"
     d="m 3401.9847,1987.0379 -11.2779,-4.5425 -42.413,-12.0782 -16.3208,-15.5926 -4.9285,-15.1138 -0.3285,-15.7709 8.214,-14.1281 11.4996,-11.1711 13.7996,-5.9141 104.811,-16.0995 76.8833,6.8998 71.9549,21.685"
     id="path9649" />
</svg>
