<svg xmlns="http://www.w3.org/2000/svg" width="8550" height="7200" viewBox="-1750 -900 8550 7200"><path d="M2356.912 4477.777l10.787-48.539 58.65-174.604 4.72-52.584 6.067-22.92 53.258-51.236 69.437-53.932 10.112-20.225 7.416-28.314 7.415-8.09 101.797-63.37M2202.47 660.21l-50.265 115.029-2.9 20.299.339 18.231 21.53 52.972.684 15.38-4.785 86.805-16.745 132.601v12.645l54.68 275.456 5.468 13.67 52.63 51.947 118.248 121.323 44.087 73.477 25.632 26.657 43.744 20.847 72.452 27.683 52.29 22.556 31.44 19.138 43.404 42.378 67.667 78.262 68.693 53.997 18.797 8.886 24.264 4.1h69.719l16.746 7.52 25.29 18.454 158.574 139.778 72.11 59.466 18.456 11.62 14.353 6.151 125.66 27.116" fill="none" stroke="#98acab" stroke-width="5" stroke-linejoin="round"/><path d="M655.376 3362.91l46.398 34.316 13.533 5.317 206.376 53.648 15.95-.967 21.749-7.733 115.995-43.498 14.016-.484 24.65 7.733 184.626 127.596 29.966 7.733 29.965-.483 19.333-9.184 43.015-33.832 130.979-179.793 39.632-80.23 21.749-28.516 11.6-4.35 40.598-7.733 24.166-13.05 282.256-335.904 11.6-28.032-7.733-163.36-5.559-102.222-3.383-51.232 5.317-28.274 3.141-26.582-5.316-18.85-11.6-17.399-14.016-7.25-17.883-6.766-11.116-14.016-2.9-24.166 5.8-37.698 5.8-13.533 14.5-9.667 22.715-2.416 64.764-4.833 122.763-52.198 124.212-64.281 14.982-15.95 33.35-56.064 9.666-26.583 11.116-52.681 5.316-60.414-9.183-30.933-12.083-23.199-34.798-46.398-9.183-33.349-24.65-39.632-34.798-37.215-32.866-29.482-42.048-29.966-54.615-33.349-17.882-11.116-8.217-10.633-10.15-30.449-53.164-177.377-15.466-33.832-139.678-210.726-18.366-14.016-44.949-4.35-68.63 7.734-12.567 4.833-63.798 38.665-17.882 5.316-22.716.484-102.946-20.3-13.533.967-10.15 4.833-21.749 32.382-5.8 7.733-11.6.484-96.662-24.65-22.233-.483-16.916 3.867-41.565 8.7-29-2.417-197.675-45.432-39.149 1.934-29.965 5.8-29 15.465-26.098 23.683-27.066 12.566-44.948 13.05" fill="none" stroke="#018436" stroke-width="5" stroke-linejoin="round"/><path d="M531.816 3526.432l56.454-80.033 421.816-589.37 153.532-257.956 71.17-193.79 19.46-40.492 56.685-84.331 85.962-109.866 39.616-39.987 33.542-65.049 10.736-7.95 15.335-6.988 143.232-81.43 44.078-19.21 12.691-8.75 8.28-10.69 28.512-129.233 9-20.967 22.544-20.644 42.282-14.094 26.426-23.582 62.166-13.332h47.652l44.296-14.765 15.21 3.372 17.924 9.573 25.518 39.54 18.76 13.872 47.18 10.306 69.037 4.606 22.838-6.067 18.437-26.879 57.719-87.92 234.903-230.206 5.37-16.779 6.04-56.377-8.725-46.98-27.518-57.048-28.188-104.029-1.342-24.161 28.86-126.848.67-34.229-8.054-20.135-15.507-21.055-24.986-16.398-76.341-12.25-184.213-31.23-12.51-9.986-44.635-110.725" fill="none" stroke="#d4b063" stroke-width="5" stroke-linejoin="round"/><path d="M4070.712 1718.126l-71.212 19.384-50.981 15.279-33.897-6.62-49.35-28.97-17.476-7.41-32.646 1.048-207.347 39.043-19.303 6.62L3445 1832l-61.5 40.5-14.5 17.5-8 17.5 1 16 2.5 15 18.5 64 2 17-7.5 24-11.5 15-47.5 25.5-81.5 102.5-263.23 335.51L2911 2657l-75 168.5-21 52-10 9.5-14.5 5.5-52-4.5-13 .5-46.5 20-18.5-6.5-24.5-9-17.5-13-16-14.5-15.5-8.5-98-16-112-4.5-50.5-15.5-42.342-4.316-177.923-39.483-21.235-13.2-81.5-64-22.5-13-9.5-13-5.856-113.819-5.144-9.96-23-5.722-33-2.5-29.5 5-77.5 23.5-17.5 5.5-33.5-4-34-8.5L1578 2507l-115.5-22-173-50-133-50.5-74-18.5-71.5-29-19-3.5-13.5 1.5-20.5 8.5-32 11-85 15-147-3.5-76.5 14.5-252.779 3.424-32.359 1.934-15.254.953-29.555 6.197-33.369 24.312-9.534 15.73-3.813 23.359 5.72 34.322-1.43 25.741-5.72 11.918-21.452 22.405-27.171 17.16-25.265 2.384-70.074-6.674-38.612 4.767-115.36 30.985-47.67-1.43-100.583-32.892-46.24-20.02-64.83-45.764-29.555-4.767-163.03-29.555-39.088-20.02-42.903-20.022-28.602-4.767-55.773-1.43-40.042-13.348-75.318-28.125-42.426-26.218-110.593-95.815-9.534-9.534-17.161-3.814-194.968 23.358-21.928-6.674-256.939-128.707-180.667-28.602" fill="none" stroke="#8ec921" stroke-width="5" stroke-linejoin="round"/><path d="M1331.051-797.954L1157.058-590.61l-13.05 19.815-14.5 40.116-3.382 32.865 4.35 35.766 15.949 43.498 25.132 28.516 22.716 16.432 33.349 11.6 101.496 24.649 32.866 19.333 37.698 38.665 31.899 44.948 89.897 99.08L1651.973 4.35l37.699 34.316 88.93 58.964 32.865 19.816 52.682 21.75 12.083 8.699 7.733 10.15 2.9 10.632 3.866 103.43-5.8 84.58 3.867 35.766 14.983 50.264 12.082 19.816 32.866 41.082 9.666 27.066 21.266 27.066 34.315 21.265 46.399 41.566 23.199 32.382 13.44 32.309 41.918 100.642 2.168 9.061-4.443 18.797-9.101 13.184-14.983 6.767-43.499 4.833-28.515 5.8-117.93 65.73-20.782 3.384-148.861 24.65-37.215 2.416-32.382 5.316-21.75 12.083-10.633 12.566-5.8 24.166 18.305 57.437 12.403 29.365 3.538 27.174-16.646 74.26-3.878 37.166-1.768 53.74 14.143 45.962 59.75 161.927 13.082 13.082 35.355 13.788 11.314 10.96 20.86 48.084 39.95 38.89 7.779 15.91 23.334 75.66 47.73 90.157 3.182 90.51-6.01 85.913 35.355 117.026 10.607 13.789 17.677 9.546 17.678 4.95 20.506.707 38.537-12.375 70.358-27.93 9.192-8.486 12.02-14.495 17.678-10.607 29.345.354 13.789 6.01 94.045 88.388 45.002 58.668 10.909 8.881 200.415 81.65 12.375 12.022 3.889 12.728 3.182 17.677-5.657 13.435-25.81 41.012-39.597 85.207-2.829 22.98.707 16.971 8.132 8.486 14.496 8.839 44.194 8.131 45.255 12.021h38.183l35.356 10.253 30.405 11.667 77.075 38.538 33.588 7.07 22.627 15.203 21.92 26.517 13.082 15.91 3.182 18.738-70.711 158.392 4.243 14.142 10.96 7.425 15.91 6.364 25.102 1.414 23.688 7.778 299.813 109.248 25.81 11.668 60.104 49.85 13.081 21.92 7.071 26.87 4.597 33.589 15.202 33.587 32.527 39.952 100.056 74.953 18.385 6.717 133.996 3.89 88.035-14.85 163.342-29.157 23.683.483 233.925 27.066 11.116 3.383 6.283 5.8 4.833 12.083-13.533 144.994.967 11.117 22.716 48.815-.484 13.532-14.016 94.73-4.35 73.464-3.866 35.765-13.05 33.35-18.849 39.148-26.099 24.649-63.798 39.632-9.183 16.433-4.35 16.432 14.5 379.886 3.867 41.082 4.833 18.85 8.7 12.082 14.499 5.317 20.782-.483 154.178-38.182 36.249-1.45 37.698 2.416" fill="none" stroke="#ec7baf" stroke-width="5" stroke-linejoin="round"/><path d="M2807 110.5L2907.5 239l13.5 19.5 54.5 143.5 7.5 38-7 213-5.5 26-159 499-47 110-28.5 41-150.5 252.5-12 45.5-112 177.5-16.5 34-20 32.5-207.5 212-280 140.5-83.5 24-126 29-18.5-1-12.5-6-32-14-13.5-11.5-24-26-16-10.5-12-5.5-19-.5-18.5-2.5-19.5-7-65-38-38-28-61.5-57-85.5-45-28.5-20-53-42-436.5-258-77.5-25.5-28.5-10-15-14.5-62-91.5-16.5-13-18.5-5.5-336.5 20.5-28.5 1-16.5-7.5-10.5-12.5-9.5-14.5-6-98-5.939-20.268-44.465-43.982-11.6-14.016-33.348-92.796-5.8-45.915V904.767" fill="none" stroke="#3c86c5" stroke-width="5" stroke-linejoin="round"/><path d="M1403.549 1248.405l-3.867 19.816.483 10.15 67.665 120.828 3.383 13.533-1.933 8.216-31.9 30.45-5.316 16.432 6.767 98.597 9.183 34.798 71.047 123.729 64.281 50.748 42.049 87.48 18.366 14.017 197.192 45.431 25.616.967 109.713-6.283 23.199-8.217 149.828-75.397 58.723-61.623 23.44-34.798 16.917-3.625 46.64 18.607 48.09 43.257 68.63 41.565 138.712 71.048 188.493 29.965 27.549 8.217 144.511 112.612 1.45 12.083-159.01 155.144-101.014 125.662-6.766 19.816 3.867 202.51 18.849 121.795.966 30.45-6.283 34.798-24.649 123.729-11.116 21.266-13.533 23.682-4.35 21.75-10.15 42.048 1.934 16.432 4.833 43.015 2.417 37.7-7.733 262.44 5.8 18.366 12.566 36.248-.967 36.732-6.766 18.366-18.366 37.699-9.667 43.015 4.833 20.782 6.284 32.383.966 72.98-3.866 42.532 13.05 107.296 3.866 6.767 5.8 5.8 33.832 9.666 9.666 9.183 2.9 14.982 8.7 70.081 23.199 84.58 2.416 20.783-5.316 28.516-12.567 30.449-14.016 24.165-29.482 28.516-9.183 17.4-.967 21.265 5.317 21.75 13.05 17.399 32.382 44.948 17.399 35.282 9.183 40.599 4.833 188.493.483 83.13-41.565 168.677-1.45 32.866 40.116 187.526 3.383 39.149 5.8 194.776-6.767 72.98 29.966 242.625 7.733 87.48 2.9 134.845 4.833 26.583 16.433 42.532 49.298 76.847 27.549 86.03 17.4 103.913 2.416 29.482 2.9 46.882" fill="none" stroke="#ec7800" stroke-width="5" stroke-linejoin="round"/><path d="M4171.498 3569.77l59.93 15.466 24.167-8.216 54.13-35.282 19.817-3.867 54.614 13.533 102.463 36.249 55.582 6.283 42.048 2.9 46.398-8.217 151.278-28.515 93.764-10.633 90.863-18.85 32.382-3.383 17.883-.966 16.916 12.566 27.549 45.915 16.916 8.7 193.81-.484 19.332-8.7 31.416-37.215 19.332-10.633 229.575 6.283 66.214-1.45 113.58-4.833 63.797 7.733 157.561 25.616 229.575 36.732 63.798 3.867 72.014-2.417 81.197-20.3 76.847-22.715 72.98-9.183 70.081-.967 55.582-6.766" fill="none" stroke="#f3d002" stroke-width="5" stroke-linejoin="round"/><path d="M3700.265 4142.016l47.848-69.598 102.463-147.411 5.075-16.433 1.45-42.29" fill="none" stroke="#30b273" stroke-width="5" stroke-linejoin="round"/><path d="M3700.265 4142.016l-42.29 61.864-17.4 14.741-30.932 19.575-7.975-.242-53.406-25.616M3857.1 3866.284l8.842-109.314 25.631-225.9 21.19-216.332-4.102-6.493 4.785-49.555-4.785-4.101-24.265-1.367h-15.72l-38.277 7.86-2.392 5.468 3.759 33.15 2.734 3.418 74.161 5.127" fill="none" stroke="#30b273" stroke-linejoin="round"/><path d="M3850.576 3925.007l8.7 10.15 117.929-23.441 41.323-2.658 48.09 3.866 23.683-1.208 49.781-3.142 74.672-10.874 24.891-6.767 96.663-21.266 21.266-2.174 15.225 3.624h11.84l54.374-15.224 28.274-14.258 8.941-8.7 8.941-10.15 11.117-4.59 88.446-4.592M3835.352 3946.998l11.358-7.975 12.566-3.866" fill="none" stroke="#30b273" stroke-width="5" stroke-linejoin="round"/><path d="M4584.733 3813.603l93.763.241 41.56-5.12" fill="none" stroke="#30b273" stroke-linejoin="round"/><path d="M4720.055 3808.725l25.622-2.614 13.774 2.417 27.79-6.283 97.63-7.492 140.645 7.975 35.524 7.733 90.622 17.4 38.182 7.25 14.016-5.559 18.124-12.566 9.667-16.433 1.45-12.083 1.933-3.866 4.591-3.867 27.066.725" fill="none" stroke="#30b273" stroke-width="5" stroke-linejoin="round"/><path d="M5266.691 3781.462l32.14 1.45 57.757-2.658 155.627-9.183 4.108-4.35 1.934-215.317-.484-26.582-8.458-33.35-44.465-127.836 1.692-11.6 46.64-24.89" fill="none" stroke="#30b273" stroke-linejoin="round"/><path d="M4226.596 3894.558l1.45 31.174 1.45 9.183" fill="none" stroke="#30b273" stroke-width="5" stroke-linejoin="round"/><path d="M4229.495 3934.915l12.325 120.829 11.6 57.031 57.756 173.269 1.45 10.391" fill="none" stroke="#30b273" stroke-linejoin="round"/><text x="-1660.5469" y="-693.03906" style="line-height:125%;-inkscape-font-specification:Sans" font-weight="400" font-size="144px" font-family="Sans" letter-spacing="0" word-spacing="0"><tspan x="-1660.5469" y="-693.03906">2020</tspan></text><text style="-inkscape-font-specification:Sans" y="6083.6836" x="-1660.5469" font-weight="400" font-size="144px" font-family="Sans"/></svg>