<svg xmlns="http://www.w3.org/2000/svg" height="550" width="1300"><path d="m109.62364.022.17-0.4524.44 2.26 182.6 28.51 18.780.9117.88-2.49 45.48-16.52 16.52-2.49 14.26 1.36 28.51-4.53" style="opacity:1;fill:none;fill-opacity:1;fill-rule:nonzero;stroke:#126dc6;stroke-width:5;stroke-linecap:butt;stroke-linejoin:round;stroke-miterlimit:4;stroke-dasharray:none;stroke-opacity:1"/><path d="m480.26 370.56 17.88-2.72 30.32-0.683.85 5.2 9.96-0.237.69 1.36 31-2.49 20.14 1.81 19.01-0.2322.4-4.75 4.30.687.69 5.43 33.26-5.2 23.76-0.6816.07-2.26 1.58-6.79-7.24-30.55 3.85-4.75 28.96-3.85 107.03 19.91 4.98-0.682.04-3.62 2.49-18.55-1.13-17.2 2.26-3.62 4.3-2.72 63.36 1.13 63.81-9.73 141.65 6.11 5.2-1.58 20.82-39.15-3.39-6.11-20.36-5.88-2.26-5.66 7.92-32.81-2.04-25.12 4.75-16.52" style="opacity:1;fill:none;fill-opacity:1;fill-rule:nonzero;stroke:#126dc6;stroke-width:1;stroke-linecap:butt;stroke-linejoin:round;stroke-miterlimit:4;stroke-dasharray:none;stroke-opacity:1"/><text style="font-style:normal;font-weight:400;font-size:144px;font-family:Sans;-inkscape-font-specification:Sans;fill:#000;fill-opacity:1;stroke:none" xml:space="preserve" y="206.96" x="89.45"><tspan y="206.96" x="89.45">2020</tspan></text></svg>