<?xml version="1.0" encoding="UTF-8" standalone="no"?>
<svg
   xmlns:dc="http://purl.org/dc/elements/1.1/"
   xmlns:cc="http://creativecommons.org/ns#"
   xmlns:rdf="http://www.w3.org/1999/02/22-rdf-syntax-ns#"
   xmlns:svg="http://www.w3.org/2000/svg"
   xmlns="http://www.w3.org/2000/svg"
   xmlns:xlink="http://www.w3.org/1999/xlink"
   viewBox="-1350 0 8650 6500"
   height="6500"
   width="8650"
   id="svg2"
   version="1.1">
  <metadata
     id="metadata8">
    <rdf:RDF>
      <cc:Work
         rdf:about="">
        <dc:format>image/svg+xml</dc:format>
        <dc:type
           rdf:resource="http://purl.org/dc/dcmitype/StillImage" />
        <dc:title></dc:title>
      </cc:Work>
    </rdf:RDF>
  </metadata>
  <defs
     id="defs6" />
  <image
     xlink:href="../../timelines/streetmap/../streetmap/delosm.png"
     y="80.67"
     x="-550.0"
     id="image10"
     preserveAspectRatio="none"
     height="6519.33"
     width="5334"
     style="display:none" />
  <path
     id="path4508"
     d="m 2922.71,1294.72 42.6,73.43 11.89,13.08 42.98,31.18 15.73,24.72 7.3,32.58 -2.81,44.94 -1.69,36.52 11.24,29.77 28.09,39.33 20.22,138.2 4.23,161.02 v 27 l -2.5,16 -9.5,11 -34,1.5 -234,-17 -10,2 -3.5,4.5 -5,79 0.5,6.5 -8,11 -71,33.5 -6.38,12.5 -5.21,85.5 6.09,15 147,95.5 h 31 l 44.5,25 29.7,21.82 10.3,21.68 2,88 10,29 8.5,50 12,17 39,32 10.5,11.5 11,16.5 4.5,11 -12,44 4,69 -2.5,16 -48,94 -10.5,44 2.5,41.5 2,19 10,19 13.5,12.5 41.5,19 26,33 62.5,54 17.5,8.5 16,5 58,2.5 30,-7.5 h 15.5 l 13.5,3.5 11.5,10.5 14,23 17.5,17 32.5,26.5 10,7 24,67.5 8.5,12.5 13,9 16,3 h 13 l 57,-26 38.5,-21 15,-5 20,1.5 12,12 34.5,40.5 49,96.5 26.5,68.5 17,25 23.5,25.5 13,16.5 39.5,82.5 74.5,205.5 1.5,16 -15,46 -6,18 3,16 8,17.5 14,12.5 11.5,7.5 11.5,18 22,109.5 9.5,101 8,136 14.5,30.5 106,1453.5 5.5,33.5 5,79.5 22.79,301.25 -6.74,34.83 5.06,65.17 3.93,15.17 -5.06,44.38"
     style="fill:none;fill-rule:evenodd;stroke:#462843;stroke-width:5;stroke-linecap:butt;stroke-linejoin:round;stroke-miterlimit:4;stroke-dasharray:none;stroke-opacity:1" />
  <path
     id="path4544"
     d="m 628.5,3107.5 95.5,-131 24,-48 8,-40 2,-40 -2,-27.5 -7,-28 -25.5,-52.5 -13,-19.5 -31,-28.5 -457,-349 -26.5,-22.5 -29,-37 -15.5,-32.5 -6,-34 2,-51 20.5,-71 12,-20 17.5,-9.5 20,-2.5 56.5,6.5 111.5,-20 58,0.5 29,-2.5 98,-13.5 90.5,-22.5 209.5,-90 63.5,-28 126,-57 21,-5.5 37,-17.5 40.5,-16 53,-33 77,-32 34,-18.5 47,-21.5 26.5,-18 49,-37.5 52,-24.5 28,-14 45.5,-31 101,-29 11.5,-10 106,-65 14,-5 10.5,1 15,4.5 88,62.5 23.5,11.5 255.5,174 12,3.5 h 12.5 l 291.5,-49 14,2.5 69,35.5 18,21.5 23.5,13 261.5,174 77.5,50.75 80.75,6.25 20.5,-1.5 24.25,10.75 47,48.25 20,8 20,1.5 69.5,17 119,-17 58,-19.5 73.5,-30 23.5,-5.5 17,3 17.5,15.5 67,105 22,18 40,61.5 32,44.5 119,261 14.5,22.5 8.5,10.5 11,3.5 115,1 23.5,7.5 13.5,11.5 15,34.5 38,57 64.5,71.5 131.5,131.5 64,54 31.5,37.5 12,10 14.5,4 21,-2 13,-10 232,-195.5 187.05,-165.24 41.01,-19.1 14.04,-20.22 1.12,-21.91 -11.24,-20.22 -17.98,-27.53 -11.8,-50.56 28.09,-423.03 8.43,-34.83 2.81,-38.76"
     style="fill:none;fill-rule:evenodd;stroke:#0182bc;stroke-width:5;stroke-linecap:butt;stroke-linejoin:round;stroke-miterlimit:4;stroke-dasharray:none;stroke-opacity:1" />
  <path
     id="path4573"
     d="m 3507.5,1988 17.5,-14 25,-45 62.5,-49 96.5,-74 98,-58.5 127,-113 27,-15 43,-5 33,3 65,19 22.5,13.5 27,14.5 19,2.5 168,-9 20,-9 82.5,-58"
     style="fill:none;fill-rule:evenodd;stroke:#0182bc;stroke-width:5;stroke-linecap:butt;stroke-linejoin:round;stroke-miterlimit:4;stroke-dasharray:none;stroke-opacity:1" />
  <path
     id="path4603"
     d="m 1711.33,133.15 38.89,49.14 2.12,10.96 0.71,14.85 -5.3,11.31 -29.7,41.72 -4.95,13.79 3.4,20.57 23,31 16.5,18 55.5,33.5 12.5,4 15.5,-2 48,-35.5 17.5,-13.5 19,-7.5 18,0.5 36.5,11 16,12 89.5,137.5 28.5,34.5 L 2250,698 l 14,11 50,18 32.5,4 468,197.5 12.5,10 3.5,14 13.5,93.5 8.5,60 23,39.5 4.5,17.5 27.5,113 21,39.5 22,57 7.5,32 0.5,83 -52.5,122.5 -52,88 -35.5,74.5 -2,84.5 -55,84 0.5,25.5 -43.88,74.09 L 2702,2308.5 l -2.5,94 21,86 2.5,37 -5.5,62 v 35 l -41,137 -10,71.5 -14.5,48 -1,40 -13,109.5 -8.5,47.5 -2.5,63.5 13,30.5 -0.5,49.5 -4.5,33 5,50.5 -28.5,133.5 5.5,26.5 -19.5,90.5 -54.5,53.5 -38.5,38.5 -24,14 -25.5,6.5 -22,4 -18,-4.5 -18,8 -58,46 -58,33.5 -34,6.5 -11.5,5.5 -15,14.5 -30.5,45.5 -17.5,12 -104.5,53 -27,14 -51.5,25 -169.5,84.5 -66.5,31.5 -104,57.5 -127,112 -15.5,7.5 -18,2 -16,-6.5 -33.5,-25.5 -27,-7 -60,-4.5 -46,-17 -31.5,5.5 -24.5,2 h -15 l -32.5,5 -41,-4.5 -40.5,8 -49,14.5 -22,3.5 -27.5,-3 -180,34.5 -15.5,12 -5.5,18 0.5,20.5 26.5,205.5 -2,15.5 -9.5,13.5 -13.5,16"
     style="fill:none;fill-rule:evenodd;stroke:#eeaa02;stroke-width:5;stroke-linecap:butt;stroke-linejoin:round;stroke-miterlimit:4;stroke-dasharray:none;stroke-opacity:1" />
  <path
     id="path4506"
     d="m 1290.5,497.5 17,18.5 L 1714,838.5 l 17.5,9 101,49.5 12,4.5 16.5,3.5 18,-2.5 12,-7 45,-24 14,-1.5 15.5,3.5 11,6.5 8,11 32,72 8.5,16 75,180 25.5,45 18,21.5 18.5,17.5 23,12.5 16.5,8.5 96.5,20.5 78.5,4.5 203,63 17,1.5 33.5,-10.5 34.5,-4 34.5,-16 21,-3.5 85,15 22.5,-5 41,-11.5 17,4 30,4 h 25.5 l 26.5,-8 14.5,-10 108.5,-44 14.19,-6.1 14.81,2.1 23,10.5 35,19.5 77,29.5 32.5,10.5 h 21 l 73.5,-25.5 75,-16.5 190.5,-38 114.5,-16.5 91.5,-11.5 34.5,-19 141,-5.5 131.5,-4 17.5,3.5 17.5,-0.5 15.62,0.19 43.26,-8.99 644.37,-31.46 102.81,-3.93 65.73,3.37 166.85,52.25 h 26.4 l 87.08,29.77 27.53,14.04 68.54,17.42 24.72,11.8"
     style="fill:none;fill-rule:evenodd;stroke:#d63135;stroke-width:5;stroke-linecap:butt;stroke-linejoin:round;stroke-miterlimit:4;stroke-dasharray:none;stroke-opacity:1" />
  <path
     id="path4634"
     d="m 1885.98,1532.17 33.59,-48.79 6.72,-18.38 30.41,-36.42 18.38,-21.21 57.28,-35.36 26.87,-16.97 10.25,-13.79 0.71,-17.68 -10.25,-18.38 -26.87,-19.45 -47.38,-16.62 -177.18,-29.62 -26,-10 -69.5,-11 -41,1 -857,-123.5 -168.5,-1 -24.5,4.5 -332,-3.5 -36.5,-0.5 -81.1,-6.25 -751.59,-76.27 -469.54,-50.05 -43.7,-11.12 -34.16,-20.66 -119.97,-73.09"
     style="fill:none;fill-rule:evenodd;stroke:#01a36a;stroke-width:5;stroke-linecap:butt;stroke-linejoin:round;stroke-miterlimit:4;stroke-dasharray:none;stroke-opacity:1" />
  <path
     id="path4636"
     d="m 1982.15,1268.41 31.82,-8.49 14.14,-1.06 24.75,11.67 20.86,7.42 18.03,-1.77 28.99,-16.97 30.05,-31.82"
     style="fill:none;fill-rule:evenodd;stroke:#01a36a;stroke-width:5;stroke-linecap:butt;stroke-linejoin:round;stroke-miterlimit:4;stroke-dasharray:none;stroke-opacity:1" />
  <path
     style="fill:none;fill-rule:evenodd;stroke:#07bdca;stroke-width:5;stroke-linecap:butt;stroke-linejoin:round;stroke-miterlimit:4;stroke-dasharray:none;stroke-opacity:1"
     d="m 1091.63,4077.73 -39.33,-25.42 -6.75,-11.52 -3.58,-15.89 -4.77,-17.08 -15.49,-23.44 -3.18,-9.93 4.37,-9.93 71.9,-86.6 11.12,-2.78 h 8.74 l 30.19,20.26 8.74,8.74 2.38,11.52 -1.99,10.33 -38.14,69.92 -29.79,56.81 v 11.92 l 4.77,11.92 40.52,30.59 5.16,10.33 -5.16,41.31 -9.14,36.15 -5.96,32.57 3.97,139.83 14.3,94.54 139.83,494.17 -4.77,134.27"
     id="path5944" />
  <path
     id="path892"
     d="m 3754.77,493.78 8.74,125.93 2.38,10.33 6.36,17.88 1.99,9.53 -1.99,10.33 -26.22,58.4 -46.08,78.65 -21.45,36.15 -12.31,26.22 -19.86,26.22 -40.12,90.17 -9.14,19.86 -9.53,12.71 -22.64,47.67 -11.12,40.52 -51.24,109.64 -1.59,12.71 1.19,9.53 5.56,12.31 10.33,7.15 13.11,3.97 73.89,-13.9 11.52,1.59 11.92,5.96 9.14,11.52 3.18,12.31 4.77,21.85 9.14,17.48 32.18,38.93 96.93,143.41 9.53,25.42 8.74,9.93 12.71,6.75 40.92,-6.36 30.59,-16.29 14.7,-0.4 13.11,5.56 7.55,7.15 50.45,59.59 22.25,34.96 7.55,6.36 15.1,7.55 21.05,-1.59 20.66,-6.36 9.34,0.6 33.57,10.13 20.46,12.12 6.95,7.94 0.79,9.53 -1.79,10.73 -12.12,38.14 -15.29,20.66 -7.15,25.82 -5.56,9.73 -8.34,8.34 -13.51,5.36 h -19.27 l -10.33,3.18 -8.34,9.73 -3.18,8.14 v 13.51 l 23.83,63.76 13.71,34.96 0.6,10.33 -4.17,11.32 -6.16,7.35 -10.53,6.16 -12.71,0.6 -22.64,0.2 -70.51,27.61 -10.92,11.92 -4.17,11.72 -0.99,7.35 6.75,17.68 12.51,11.12 68.13,15.69 11.52,9.93 6.95,9.14 2.78,10.92 -0.6,18.87 -12.87,54.64"
     style="opacity:1;fill:none;fill-opacity:1;fill-rule:nonzero;stroke:#e3697e;stroke-width:5;stroke-linecap:butt;stroke-linejoin:round;stroke-miterlimit:4;stroke-dasharray:none;stroke-opacity:1" />
  <path
     id="path888"
     d="m 3889.82,2269.06 -74.42,25.37 -18.54,2.81 -62.36,27.81 -14.04,1.12 h -15.73 l -11.52,-3.37 -93.26,-35.95 -18.82,-2.53 h -13.48 l -10.67,1.12 -15.73,5.34 -182.58,93.82 -9.83,6.46 -8.71,10.39 -7.02,12.08 -8.99,20.22 -5.9,18.26 -1.97,25.56 4.21,55.34 43.02,210.87 v 19.46 l -88.98,94.54 -14.7,20.26 -13.51,6.75 -19.47,5.56 -139.83,9.14 -130.3,-14.3 -90.17,-38.93 -81.04,-5.96 -11.92,-7.15 -17.08,-18.67 -17.08,-29.4 -21.45,-12.31 -94.15,-8.34 -23.83,-15.1 -23.83,-9.14 -17.88,-7.15 -55.61,0.4 -17.08,7.55 -8.74,7.94 -10.33,13.9 -2.78,22.64 -1.59,9.93 -6.36,10.33 -11.12,10.33 -34.16,7.94 -75.87,-4.77 -57.6,-33.77 -26.22,-43.3 -19.07,-27.81 -26.22,-54.03 -10.33,-31.38 -69.12,-123.94 -37.34,-54.42 -35.35,-66.74 -68.33,-62.76 -24.63,-18.27 -160.88,-28.2 -35.35,-22.64 -19.07,-23.44 -46.48,-65.15 -7.15,-19.46 9.53,-123.54 -7.55,-24.23 -17.88,-39.33 -19.46,-33.37 -19.47,-56.01 -23.44,-30.59 -32.57,-116.79 -40.92,-115.6 -19.86,-44.49 1.19,-23.04 5.56,-17.48 15.89,-18.67 21.85,-24.63 17.48,-39.72 17.08,-36.94 22.25,-25.42 76.27,-71.9 19.86,-22.64 7.55,-23.44 15.89,-59.59 22.25,-63.96 18.27,-18.67 113.61,-89.38 11.92,-18.27 9.14,-54.82 28.6,-83.42 23.04,-36.15 17.08,-9.53 150.95,-48.46 78.26,2.78 h 26.62 l 48.07,-25.03 20.66,-19.86 13.11,-23.44 1.99,-18.67 -9.93,-20.26 -23.44,-17.88 -5.16,-13.51 -3.58,-25.03 16.29,-65.15 4.77,-69.92 1.99,-26.62"
     style="opacity:1;fill:none;fill-opacity:1;fill-rule:nonzero;stroke:#e3697e;stroke-width:5;stroke-linecap:butt;stroke-linejoin:round;stroke-miterlimit:4;stroke-dasharray:none;stroke-opacity:1" />
  <path
     id="path924"
     d="m 4908.92,2570.83 13.48,44.94 11.8,26.97 10.67,48.88 30.34,228.65 88.76,154.49 29.21,27.53 25.84,59.55 16.29,57.3 19.1,33.71 16.85,22.47 2.25,105.62 12.92,103.37 -8.99,22.47 v 19.66 l 7.3,14.61 29.77,30.34 56.18,122.47 87.64,142.13 2.25,17.98 -0.56,17.98 6.18,13.48 12.36,8.99 61.8,29.21 83.71,42.13 126.96,110.67 25.28,16.29 115.73,98.88 84.27,86.52 26.97,32.02 126.96,94.94 47.19,55.06 62.92,64.04 32.02,30.9 21.91,23.03 32.02,36.52 35.95,50.56 34.27,56.74 22.47,17.98 23.6,5.62 26.4,1.12 20.79,-8.43 23.03,-15.73 91.01,-84.83 102.81,-91.01 124.72,-108.43 3.37,-14.61 -3.93,-14.04 -10.11,-14.04 1.12,-18.54 8.99,-14.04 468.53,-304.49"
     style="opacity:1;fill:none;fill-opacity:1;fill-rule:nonzero;stroke:#74cddd;stroke-width:5;stroke-linecap:butt;stroke-linejoin:round;stroke-miterlimit:4;stroke-dasharray:none;stroke-opacity:1" />
  <path
     id="path926"
     d="m 4347.98,2909.03 25.28,35.67 0.56,15.17 -4.49,15.45 -10.67,9.83 -104.77,51.4 -19.66,12.36 -25.0,20.79 -32.86,25.28 -28.09,35.95 -127.25,119.66 -14.04,15.73 -23.31,33.71 -12.36,9.55 -18.54,4.78 -16.29,-3.93 -24.44,-14.04 -39.04,-60.95 -64.61,-129.49 -7.87,-35.39 -18.26,-40.45 -2.81,-20.51 8.15,-31.18 v -53.37 l -7.3,-13.76 -14.89,-9.27 -12.36,-2.53 -10.67,2.25 -14.04,9.27 -16.01,17.98 -11.24,16.57 -16.57,9.55 -19.66,6.74 -63.2,-1.4 -16.29,4.78 -27.81,14.89 -126.68,71.07 -20.22,21.35 -13.76,7.87 -52.25,22.47 -23.6,16.01 -32.3,36.8 -16.57,13.76 -223.59,99.44 -28.09,2.81 -59.55,-5.34 -59.83,-14.33 -304.77,-26.97 -265.73,-106.18 -133.14,-99.16 -29.88,-29.06 -11.26,-2.45 -72.21,23.93 -45.43,0.19 -179.56,-20.26 -89.38,-25.42 -29.0,-4.77 -70.31,-16.29 -32.97,3.58 -64.75,16.68 -22.64,1.99 -17.08,-2.38 -12.31,-11.12 -10.33,-17.88 -17.08,-98.91 1.19,-20.66 -8.74,-52.04 -8.34,-12.71 -36.94,-11.92 -46.88,-10.73 -44.49,-17.88 -31.38,-5.96 -42.9,-16.68 -21.05,-3.18 -98.52,-38.53 -50.05,-24.23 -81.83,-60.78 -32.18,-9.93 -15.89,-12.31 -19.46,-34.56 -5.56,-20.26 -6.36,-60.38 4.77,-25.42 23.44,-107.65 6.36,-63.96 6.36,-58.0 5.96,-27.01 14.3,-41.31 -1.59,-18.67 -9.14,-22.64 -22.25,-33.37 -48.46,-58.0 -22.25,-53.23"
     style="opacity:1;fill:none;fill-opacity:1;fill-rule:nonzero;stroke:#883584;stroke-width:5;stroke-linecap:butt;stroke-linejoin:round;stroke-miterlimit:4;stroke-dasharray:none;stroke-opacity:1" />
  <path
     style="opacity:1;fill:none;fill-opacity:0.4;fill-rule:nonzero;stroke:#7d7f83;stroke-width:5;stroke-linecap:butt;stroke-linejoin:round;stroke-miterlimit:4;stroke-dasharray:none;stroke-opacity:1"
     d="m 150.62,2134.15 2.56,-24.34 -1.28,-33.74 -5.98,-15.37 -12.81,-10.68 -16.23,-3.84 -14.09,2.14 -13.67,7.69 -168.25,69.61 -24.34,14.95 -44.41,15.37 -30.32,4.27"
     id="path828" />
  <text
     style="font-style:normal;font-weight:normal;font-size:144px;font-family:Sans;-inkscape-font-specification:Sans;fill:#000000;fill-opacity:1;stroke:none"
     xml:space="preserve"
     id="text3914"
     y="206.96"
     x="-1260.55"><tspan
       id="tspan1"
       y="206.96"
       x="-1260.55">2020</tspan></text>
  <text
     style="font-style:normal;font-weight:normal;font-size:144px;font-family:Sans;-inkscape-font-specification:Sans;fill:#000000;fill-opacity:1;stroke:none"
     xml:space="preserve"
     id="text3914-4"
     y="6397.96"
     x="-1260.55"><tspan
       id="tspan2"
       y="6397.96"
       x="-1260.55">2020</tspan></text>
</svg>
