<svg xmlns="http://www.w3.org/2000/svg" height="2700" width="3500"><path d="M109 724.5l99 80 5.5 10.5 32 64.5 15 18.5L367 947.5l44.5 42.5 72.5 48 34 53.5 251 173 14 16.5 10 20.5 44 150.5 1.5 33 .5 113 5.5 21.5 12.5 31 24 25.5 16 13 19.5 2.5 24.5-2 307-78 121.5-23 351.5-7 20.5-3 34-19.5 22.5-21.5 117.5-120.5 88.5-63 15.5-7 58-1.5 9.5-4.5 6.5-12 18-105.5 18-45.5 8-12.5 37.5-23.5 18-3.5 301.5-10 43 6 72.5 29.5 78 5 71.5 5.5 92 20.5 95 37 21 9 26.5 20 66.5 55.5 67.5 54 20 24 22 41 21.5 42.5 3 26.5 1 15-6.5 16.5-29 51.5-3.5 14.5v33" fill="none" stroke="#31a171" stroke-width="5" stroke-linejoin="round"/><path d="M2560.5 122L2477 223.5l-74 87-5 15.5.5 14s9.5 26 7 23.5 39 68.5 39 68.5l3 17.5 1.5 16-8 28-24 54.5-3 18-1 33-3.5 14-13.5 41.5-7.5 38.5-3.5 8.5-12 6-97 26-128.5 29.5-16 6.5-14.5 10-3.5 13 39 211 15.5 58.5 79.5 284 9 25 15 24.5 67 106.5 110 144 8.5 15 14.5 40.5 53.5 75 156 175.5 128 162 11 17 18 47 33 78 14 20 175.5 167 14.5 8 12 3.5 45 2 23 10.5 32.5 48 19 21.5 20 11 16 2 112-.5 30.5-9.5" fill="none" stroke="#fb3336" stroke-width="5" stroke-linejoin="round"/><path d="M3225 1491.5l157.5 17.5" fill="none" stroke="#000" stroke-width="5" stroke-linejoin="round"/><text style="line-height:125%;-inkscape-font-specification:Sans" y="206.96083" x="89.453186" font-weight="400" font-size="143.99993896px" font-family="Sans" letter-spacing="0" word-spacing="0"><tspan y="206.96083" x="89.453186">2020</tspan></text></svg>