<svg xmlns="http://www.w3.org/2000/svg" viewBox="0, 0, 7600, 5400" width="7600" height="5400"><path d="M7065.5 4036.5L6947 4063l-86.5 52.5-31 8-129 13.5-42.5-14-69.5 14.5-124-15.5-26.5-7-39-34-70-59.5-44.5-20-40-5-85 9-106.5 5.5-71 10.5-60.5 21.5-14.5 7-13.5-1-12-9-79.5-83-21-12-50.5-12.5-81.5-20.5h-130.5l-18.5-6.5-56.5-34-41-38-26-24-22.5-5.5-39.5 7.5-21 5.5-63-16-21-10-15-16-20-30.5-28.5-30.5-54-34-102.5-69.5-184-120.5-64-38-35-11.5-54.5-8-41.5-14-119.5-64-175-82.5-21 4-13 11-25 35-356 184-64 75-12 8-23 3-1151 22-31 9-26 14-26 15-50 41-170 68-31 1-21 4-25 21-175 172-17 9-24 7-201.872 42.335" fill="none" stroke="#01b1ae" stroke-width="5" stroke-linejoin="round"/><path d="M4613 2543.5l29 26.5 16 29 63 116 7 22 16 13 17 2 22-3 21 12 17 47 115 132 31 41 55 106 16 13 30 4 21 1 19 19 24 24 21 12 37 14 51 26 24 15 40 24 62 47 30 29 26 34 21 59 10 26 18 20 34 15 121 34 38 17 32 19 33 42 17 7 62 9 46 12 21 10 25 22 111 51 30 3.5 78 1.5 31 .5 20 10.5 52 65.5 16 38 21.5 24.5 32.5 56.5 19.5 31 38.5 37.5 11 23 3 25-.5 29.5 18 33.5 21 22 30.5 24.5 44.5 11.5 48.5 6 63 8 60.5-13.5 21.5 2.5 28.5 10 134-14 65-19 51.5-16.5 12-14.5 18.5-13 29.5-4 17 6 26-3.5 56-21.5 69-26.25 7.25-.25 29.25 3.75L7235 4035l36.788 64.828 30.462 48.672 10.75 28-3.25 26.5-7.078 36.51-18.422 75.24-4 31 6 34.75-6.5 41.5-10.75 38.75 6 82.75-9.75 29.5-13.25 17.75-36.4 26.493-25.35 21.757-7.5 26.25-2 92.75" fill="none" stroke="#00a63f" stroke-width="5" stroke-linejoin="round"/><path d="M6998 5263l21-32.5 7.5-29 3.5-44 8.5-53.5 12-21 20.5-19 49-38.5 62.5-41 27-24.5 12.5-23 8-25.5-1.5-26.5-9-26.5-36-72-7.5-30 2-92 8.5-29 23-19 39-28.5 13-17.5 9-27.5-6-83 12-43.5 5-35-6-35.5 4-32.5 18.5-76.5 7-36 3-25-9.5-24.5-30-47.5-38.5-67-16.5-12-30.5-4.5-127 48.5-25.5 16.5-55.5 31.5-49 32.5-51.5 31-42.5 35-21.5 6.5-37 11-94.5 41.5-38.5 21-19 4.5-30.5 1.5-17 4-57 26.5-31 24" fill="none" stroke="#ff8701" stroke-width="5" stroke-linejoin="round"/><text x="89.453" y="206.961" style="line-height:125%;-inkscape-font-specification:Sans" font-weight="400" font-size="144" font-family="Sans" letter-spacing="0" word-spacing="0"><tspan x="89.453" y="206.961">2010</tspan></text><text x="89.453" y="5297.961" style="line-height:125%;-inkscape-font-specification:Sans" font-weight="400" font-size="144" font-family="Sans" letter-spacing="0" word-spacing="0"/><path d="M7447.5 4773l-27 66.5M7456.5 4765l112.5-28" fill="none" stroke="#000" stroke-width="5" stroke-linejoin="round"/><path d="M4316.5 3272.5l-103.5-40-14.5-13-13-23.5-19-70.5-21-36.5v-22l5.5-22.5 12.5-19.5 19-18 7-15 2.5-14-2.5-23.5-8.5-17.5-9-15.5-45.5-41-43.5-55-83-77.5-11.5-15.5-25.5-67.5-20.5-40-76-114.5-34.5-52-24-59.5-86.5-207-97-230-9.5-19.5-12-10-18.5-12.5-157-71-653.088-301.667-9.502-6.536-12.394-17.042-23.239-48.027-13.427-15.492-20.657-9.812-13.427-.517-53.707 4.132-13.944-.517-21.173-9.812-83.143-48.543-19.108-21.69-3.098-17.042-3.099-27.37-22.206-49.06-29.436-27.37-105.35-64.036-25.304-6.197-23.755 3.615-36.666 13.943-18.075 6.714-17.042-2.066-14.46-7.746-53.707-40.281-29.436-19.624-24.788-3.615-34.084 6.714-90.373 22.206-19.108 1.549-19.624-3.099-11.419-4.22" fill="none" stroke="#01b1ae" stroke-width="5" stroke-linejoin="round"/><path d="M7250.972 4133.444l2.528 9.607-9.607 15.674-12.134 43.482" fill="none" stroke="#ffd92c" stroke-width="5" stroke-linejoin="round"/><path d="M7232.264 4199.68l-3.034 5.055-9.1 6.573-2.023 12.135 3.034 8.595-2.023 3.54-7.078 2.528-7.079.505-6.067-4.045-11.124-9.1-10.112.505-6.573 6.573.506 20.73 4.045 4.045 10.112 4.045 5.056 4.045-.505 6.067-6.068 10.618-12.134 4.55-3.034 4.045-.506 13.652-9.606 8.595-9.607-1.517" fill="none" stroke="#ffd92c"/></svg>