<?xml version="1.0" encoding="UTF-8" standalone="no"?>
<svg
   xmlns:dc="http://purl.org/dc/elements/1.1/"
   xmlns:cc="http://creativecommons.org/ns#"
   xmlns:rdf="http://www.w3.org/1999/02/22-rdf-syntax-ns#"
   xmlns:svg="http://www.w3.org/2000/svg"
   xmlns="http://www.w3.org/2000/svg"
   xmlns:xlink="http://www.w3.org/1999/xlink"
   id="svg2"
   viewBox="-500 -950 5150 3950"
   height="3950"
   width="5150"
   version="1.1">
  <metadata
     id="metadata37">
    <rdf:RDF>
      <cc:Work
         rdf:about="">
        <dc:format>image/svg+xml</dc:format>
        <dc:type
           rdf:resource="http://purl.org/dc/dcmitype/StillImage" />
        <dc:title></dc:title>
      </cc:Work>
    </rdf:RDF>
  </metadata>
  <defs
     id="defs6" />
  <image
     xlink:href="../../timelines/streetmap/hkgosm.png"
     id="image12"
     height="8748.4443"
     width="7186.2222"
     y="-5698.4438"
     x="-2612.2219"
     style="display:none" />
  <path
     style="fill:none;stroke:#f8779e;stroke-width:5;stroke-linejoin:round;stroke-opacity:1"
     d="m 1484.5342,-1407.0449 17.5124,-17.0154 6.4215,-25.3555 -12.5395,-64.0297 -10.6263,-543.7799 -2.8213,-130.4771 -32.1163,-151.9775 -47.2582,-226.5572 -16.3193,-321.1365 -0.459,-229.1127 -1.8363,-94.6782 6.6472,-18.7778 53.4242,-35.2108 24.2682,-4.3947 7.3895,-5.6194 1.8844,-8.2941 -0.3819,-8.6735 -9.7911,-30.4691 -3.3275,-116.1418 11.4316,-44.549 22.7395,-51.6035 60.5577,-74.6948 18.1569,-7.7608 21.6067,0.7165 116.4659,74.1025 22.9852,6.4065 250.306,67.1872 58.8874,31.7155 41.3214,11.9614 59.3317,3.3634 67.8994,-5.6325 50.7067,-6.1403 30.1556,-13.5245 20.6415,-33.8116 11.9557,-61.3691 4.3978,-71.4585 -7.0541,-19.2375 -37.2771,-29.0187 -15.4258,-25.459 -9.8607,-30.5713 -3.0166,-189.1858 -22.2656,-182.4084 2.6151,-20.1184 10.5075,-17.4084 16.1808,-8.0161 26.9674,-8.1436 124.4864,-91.9774"
     id="path901" />
  <path
     style="fill:none;stroke:#3abca8;stroke-width:5;stroke-linejoin:round;stroke-opacity:1"
     d="m 1892.8699,-1772.5948 -2.9511,-242.7474 -5.0235,-25.2686 -72.4098,-154.9286 -23.4178,-22.0233 -48.3475,-28.3621 -133.5217,-14.008 -58.8841,-24.7565 -37.6417,-28.4704 -72.7774,-19.7936 -29.2166,-18.5357 -24.228,-51.4499 -74.1839,-183.8855 -43.1173,-73.6549 -14.2606,-13.1405 -19.9955,-1.7911 -52.7012,24.756 -17.7265,3.0331 -27.7157,-10.843 -15.1295,-14.333 -109.4934,-118.9303 -15.95562,-34.2733 -11.944,-25.519 -27.566,-27.5408 -29.6856,-34.1201 -17.4619,-38.7618 -9.7383,-41.7265 -139.0069,-217.0167 -2.1726,-10.3385 2.5756,-20.0125 18.1817,-38.9381 -0.5286,-20.1275 -10.1135,-25.8796 -186.7458,-282.2212 -39.6195,-44.6505 -61.6247,-57.2794 -39.5656,-29.5017 -102.6791,-66.3853 -30.1882,-8.4857 -131.0414,-9.2764 -38.3323,-7.4449 -81.583695,-34.8794 -33.1094,-19.288 -24.8960001,-20.9545 -52.1778999,-31.7638 -64.276405,-47.8438 -30.9827,-11.6158 -37.607,-3.882 -57.8421,-1.5255 -15.2297,-4.3579 -17.222,-11.7721 -9.0397,-13.104 -11.6149,-24.8071 -15.1371,-13.7685 -89.7089,-50.705 -12.4968,-13.9362 -8.048,-17.5717 -2.5626,-18.0226 -2.0484,-231.7777 -5.1115,-100.736 -31.7779,-216.6615 -7.6804,-27.5667 -33.9074,-66.4544 -4.5366,-17.4786 0.018,-13.1294 3.8214,-15.4267 7.6923,-15.0492 230.2438,-367.3129 13.4334,-22.7196 4.1907,-20.3642 -4.0694,-114.9086 -4.8035,-18.009 -10.6258,-17.5664 -15.7271,-12.6506 -23.2955,-7.7391 -136.0721,5.7054 -129.4696,23.9015 -37.6966,3.9785 -32.4336,-1.7519 -31.0951,-9.1438 -47.136,-17.788 -61.7041,-4.4028 -80.5524,-16.8977 -53.5519,3.8614 -49.356,22.4419 -15.8714,1.6213 -12.4732,-2.5275 -234.82508,-97.7776 -20.0171,-0.3253 -28.7044,10.4643 -128.6781,51.6862 -24.1725,3.7985 -59.8737,-8.5915 -47.5717,-0.5115 -34.0528,10.4566 -331.5,111.4953"
     id="path899" />
  <path
     style="opacity:1;fill:none;fill-opacity:1;fill-rule:nonzero;stroke:#651438;stroke-width:5;stroke-linecap:butt;stroke-linejoin:round;stroke-miterlimit:4;stroke-dasharray:none;stroke-opacity:1"
     d="m 1293.6852,-1784.8276 -128.6699,6.2529 -84.5326,14.4084 -173.40962,35.1287 -154.5677,27.7934 -27.549,14.0161 -52.6814,32.1405 -23.1992,13.5329 -15.4661,5.3164 -143.0614,27.549 -149.1029,31.8989 -34.5571,14.4994 -41.3235,25.6158 -22.0747,7.4759 -114.0883,2.4006 -78.484895,-11.3622 -34.7429,-0.4476 -18.3660001,5.0748 -17.1576999,10.8746 -16.3421,16.7018 -63.5666,67.6677 -15.720805,6.4933 -21.5306,6.1516 -16.4043,2.7341 -23.8641,-0.6223 -29.3769,-7.5589 -18.8695,-8.2447 -26.9987,-11.5981 -33.492,-9.5691 -34.8591,-7.5187 -63.9084,-7.8604 -15.0372,-7.8603 -19.1383,-11.6197 -10.2527,-13.3285 -14.6955,-10.2527 -95.3499,-21.8724 -25.2899,-8.2021 -21.1889,-3.4176 -17.7713,1.3671 -58.782,21.1888 -18.4548,1.7088 -77.2368,0.3418 -24.6064,-2.3923 -47.8458,-16.7461 -49.8964,-14.3537 -19.8218,-13.6702 -12.3032,-12.9868 -7.8604,-13.6702 -6.1516,-44.77 -0.8594,-57.1147 -1.2498,-91.9909 -8.827,-30.6579 -21.2885,-27.3063 -28.0323,-30.4488 -23.19908,-21.2659 -21.2659,-14.9828 -40.5986,-15.4661 -21.7492,-4.8332 -17.8827,-10.1496 -69.1141,-75.3973 -103.9129,-111.1626 -126.0947,-97.3359 -217.5427,-192.6535 -88.4468,-59.4478 -88.93,-67.6642 -19.816,-20.7826 -10.6329,-18.366 -65.7309,-141.6115 -8.6997,-12.0828 -15.4661,-11.5996 -33.3488,-16.4328 -11.1163,-8.6996 -9.183,-12.0829 -8.2163,-17.8826 -55.098,-114.5458 -56.0646,-105.8462 -145.478,-279.8398 -56.548,-90.3801 -14.9828,-27.0656 -4.8331,-20.2993 -8.2164,-29.9656 -41.5651,-80.7137 -2.4166,-20.7826 5.7998,-17.3993 22.7158,-32.3822 16.4328,-16.4327 40.1151,-19.816 12.5663,-15.4661 15.4661,-33.8321 16.4327,-51.2314 5.7998,-37.6986 6.7664,-114.0625 8.6997,-38.6652 15.4661,-40.5986 17.3993,-28.0323 102.9463,-173.9936 12.5662,-32.3821 5.3165,-24.1658 2.4165,-29.4823 -4.3498,-29.4822 -6.7664,-30.4489 -23.6825,-50.7482 -5.3165,-26.5823 0.9667,-19.816 7.733,-25.6157 25.1324,-61.8644 20.7826,-37.6986 53.1647,-74.4306 9.6663,-26.5824 11.1163,-32.3821 3.3832,-18.366 3.8281,-36.4262 31.4539,-317.8442 8.2164,-56.0646 11.5996,-35.2821 22.2325,-33.3487 17.3994,-25.6158 7.2497,-28.0323 -0.4833,-25.6157 -44.7423,-152.479 -16.4742,-18.9427 -77.4951,-17.0714 -11.5996,-8.2164 -10.1496,-19.8159 -4.3498,-26.0991 -0.9667,-26.099"
     id="path5032" />
  <path
     style="opacity:1;fill:none;fill-opacity:1;fill-rule:nonzero;stroke:#86656d;stroke-width:5;stroke-linecap:butt;stroke-linejoin:round;stroke-miterlimit:4;stroke-dasharray:none;stroke-opacity:1"
     d="m 2395.0536,-1826.423 -55.098,0.9667 -9.183,4.8331 -31.9308,59.0326 -11.278,9.9109 -58.782,25.6317 -25.9734,7.5186 -76.895,14.6955 -16.4043,1.7088 -32.1251,-16.746 -18.7965,-2.7341 -17.7713,-8.2021 -17.0878,-11.6197 -5.8099,-10.5944 -5.4681,-15.0373 -6.8351,-425.8277 -3.4175,-11.6197 -7.8604,-8.2022 -11.6197,-5.468 -27.6822,-0.6836 -87.1478,17.4296 -22.5559,-1.0253 -21.1888,-8.2021 -35.8843,-27.3405 -20.8471,-10.2527 -21.1888,-4.7845 -40.669,-1.3671 -30.0745,6.1516 -49.5546,14.3538 -24.9481,4.1011 -40.3272,1.367 -270.6706,2.734 -25.9735,-3.4175 h -26.3152 l -17.7713,2.3923 -30.4162,10.5944 -112.7794,48.5293 -6.8352,7.5186 -3.7593,11.278 -3.7593,55.0227 8.5439,22.5558 45.1118,42.3778 14.012,18.113 26.9987,39.6437 4.4428,21.8724 v 47.8458 l -5.4681,8.5439 -87.1477,23.5811 -96.37522,32.1251 -29.391,6.8351 -15.0372,16.4043 -8.5439,14.6955 -2.0505,12.6449 14.9877,61.9356 9.4096,46.8703 -2.1832,23.7954 -9.5692,11.6197 -18.4548,9.2274 -34.1756,11.9614 -151.056,33.8339 h -22.2142 l -78.6038,-9.5692 -41.6942,3.4175 -31.4415,11.6197 -28.9004,12.0233 -21.1327,17.7144 -40.1905,29.7279 -34.1755,12.9867 -49.5546,15.0372 -23.9229,-1.7088 -53.9975,-30.0745 -17.1564,-5.8921 -41.2208,-2.0682 -112.5926,2.3622 -95.197895,-13.4081 -33.76590014,-10.9243 -26.81409986,-24.8278 -35.7521,-67.2008 -28.4693,-23.5037 -35.090005,-11.9174 -144.6637,3.9725 -30.1245,11.2553 -28.8003,20.1933 -47.6695,46.6764 -25.1589,53.9592 -14.8967,10.5932 -25.821,12.2484 -26.8141,16.2209 -11.9173,13.9036 -29.4624,83.7527 -4.9656,39.3935 -30.7866,87.063 -6.2897,4.9656 -17.545,4.3035 -23.8347,-4.3035 -35.7522,-29.4624 -31.2154,-45.9308 -13.1733,-6.0878 -43.6751,2.3071 -38.2739,-0.6245 -39.9916,-12.5141 -30.4824,-20.2939 -133.6492,-123.86"
     id="path4311-3" />
  <path
     style="opacity:1;fill:none;fill-opacity:1;fill-rule:nonzero;stroke:#003892;stroke-width:5;stroke-linecap:butt;stroke-linejoin:round;stroke-miterlimit:4;stroke-dasharray:none;stroke-opacity:1"
     d="m 2473.8341,-2321.0966 -18.6077,70.5642 -6.2831,11.3578 -47.3649,15.9494 -32.1405,16.1911 -65.006,18.1244 -59.9311,0.4833 -53.1648,16.6744 -29.9655,8.9413 -20.5409,4.3498 -19.816,-0.7249 -47.1233,29.7239 -242.3828,5.5581 -14.4994,5.5581 -14.7411,11.1163 -43.2567,71.2891 -5.5582,18.6076 4.1082,298.2058 -8.2163,16.4327 -14.7412,9.908 -12.5662,14.7411 -14.9828,33.5905 -31.1738,59.2061 -0.2417,30.9322 -3.1415,19.091 -7.7331,17.8827 -8.458,21.5075 -6.7664,6.5248 -10.633,2.4166 -14.0161,-3.6249 -75.8806,-23.9241 -26.824,-14.4995 -13.5328,-1.2083 -269.9319,3.3832 -14.7411,6.2831 -23.4408,44.7067 -9.6663,5.5582 -10.633,1.2083 -14.7411,-4.1082 -177.37682,-103.6712 -19.2222,-22.8666 -31.5853,-78.1834 -10.332,-48.2946 -19.5743,-82.8886 -5.0748,-7.2498 -6.5247,-3.8665 -14.2578,-2.1749 -83.372,17.3994 -67.6642,24.8907 h -17.8827 l -17.3993,-3.8665 -21.0243,-9.4247 -19.3326,-14.9827 -11.5996,-21.2659 -30.9322,-79.2638 v -9.908 l 1.2083,-67.9058 -3.6249,-12.3246 -9.183,-8.458 -15.4661,-5.7998 -120.8289,-22.7158 -54.373,-10.8746 -127.112,-41.3235 -163.119,-103.4296 -36.490295,-12.3245 -92.3133001,-23.6825 -89.4133999,-2.8999 -9.666305,-3.8665 -9.183,-10.1496 -3.1415,-13.2912 -4.5915,-114.3042 9.4246,-119.1373 5.3165,-14.4995 11.841205,-20.2992 23.4408,-20.0576 65.2475999,-53.4064 10.63299996,-8.2164 39.02520014,-11.1019"
     id="path865" />
  <path
     style="opacity:1;fill:none;fill-opacity:1;fill-rule:nonzero;stroke:#ccce08;stroke-width:5;stroke-linecap:butt;stroke-linejoin:round;stroke-miterlimit:4;stroke-dasharray:none;stroke-opacity:1"
     d="m 2713.0498,2825.1136 13.3285,20.8471 11.2779,9.2274 19.8219,5.4681 10.9361,1.367 18.7966,-1.367 12.9867,-6.4933 13.3285,-15.7208 20.1636,-20.5054 8.8857,-14.3537 21.5306,-12.9867 18.4548,-20.1636 16.0625,-12.3032 18.7966,-4.7846 37.2514,-1.0253 68.0094,-14.3537 36.5678,2.734 14.6955,-5.4681 20.5054,-14.0119 12.6449,-15.0373 5.4681,-14.3537 -0.3417,-16.4043 -8.2022,-16.4043 -187.2821,-306.2132 -1.7088,-22.5559 7.5186,-15.7207 44.5116,-51.1365"
     id="path852" />
  <path
     style="fill:none;stroke:#028685;stroke-width:5;stroke-linecap:butt;stroke-linejoin:round;stroke-miterlimit:4;stroke-dasharray:none;stroke-opacity:1"
     id="path4516"
     d="m 2851.9992,2193.5006 -16.5,-9.25 -12.25,-10.25 -10.5,-17 -16.8511,-34.9747 -7.8258,-26.3325 -2.8953,-41.6628 16.1784,-46.3662 19.0547,-27.955 17.617,-22.9907 28.8232,-43.3763 9.3989,-19.8418 21.25,-49.75 10.7376,-27.0623 1.1748,-16.0395 -1.1365,-25.6818 -8.0259,-22.2164 -8,-21 -15.25,-39.5 -21.5,-48.75 -19,-31 -21.9138,-27.8902 -32.5862,-37.6098 -35.5,-29 -52.75,-27.5 -140.75,-60.75 -28.5,-17.5 -24.5,-19 -16.25,-19 -13,-26.25 -31,-54 -11.25,-18.25 -15.25,-23.5 -18.5,-26.75 -14.25,-22.5 -15,-28.25 -6.75,-10.25 -8.3286,-11.1245 -72.4214,-40.8755 -50.5,-26.25 -49.5,-16.75 -37,-15.25 -30.5,-7 -47.75,-7.5 -32.25,-0.5 -23.8871,5.6752 -213.3363,70.5875 -309.6291,93.4913 -45.1474,18.746 -32.25,23.5 -61.6291,46.6836 -37.9587,24.7678 -21.2875,7.6092 -23.9305,4.5771 -70.3157,1.6222 -22.6287,5.3584 -30.3792,13.9676 -28.2575,17.4244 -40.7445,25.5537 -34.652,34.8991 -51.25352,47.3036 -31.9631,39.7333 -13.75,11 -47.25,22.75 -41,2.5 -42.75,-2.25 -34.25,3.75 -49,17 -35.5,14.75 -99.75,58 -18.25,18 -14,30.5 -20.75,26.75 -27,27.25 -65.5,46.25 -152.5,90.25 -98.5,58 -31.5,12 -96.499895,24.25 -34.25,5 -12,6.75 -41.25,20.75 -38.5,26.5 -11.25,14.25 -15.5,17 -25.250005,16.5 -22,10.25 -22.5,6.5 -32.9122,-4.5264 -41.3099,-14.7287 -28.4015,-25.3341 -39.4141,-54.5784 -12.8134,-56.5463 1.0271,-40.4919 25.803,-72.7188 5.1829,-37.5957 -3.034,-36.7687 -32.2838,-101.0813 4.5418,-17.748 14.0947,-17.1417 19.0194,-7.24 64,-17.5" />
  <path
     id="path871"
     d="m 1100.7766,-291.45023 -19.5574,-3.8716 -11.3137,2.8285 -17.6776,14.8492 -152.73512,-0.7071 -48.7289,8.8833 -27.8609,0.1912 -31.3559,7.1361 -36.7752,15.4147 -48.3957,30.9654 -49.421,32.8687 -54.1084,38.6561 -42.7653,35.5901 -35.5957,24.5264 -44.7109,39.9002 -33.1486,36.7368997 -48.4722,57.9356003 -29.3332,31.867"
     style="fill:none;stroke:#dab006;stroke-width:1;stroke-linecap:butt;stroke-linejoin:round;stroke-miterlimit:4;stroke-dasharray:none;stroke-opacity:1" />
  <path
     id="path859"
     d="m 368.82088,82.32047 -13.6972,14.3236 -29.9839,46.3403 -24.6942,44.3947 -3.2076,10.3707 -50.4992,168.4565 -7.731,24.0709 -20.4588,40.5997 -17.6777,62.9325 3.7536,5.8042 12.6045,3.2386 11.9262,-0.5575 31.8198,-10.6066 16.2634,-7.7782 3.5356,-8.4853 -5.6276,-31.0834 3.9952,-27.6422"
     style="fill:none;stroke:#dab006;stroke-width:5;stroke-linecap:butt;stroke-linejoin:round;stroke-miterlimit:4;stroke-dasharray:none;stroke-opacity:1" />
  <path
     id="path857"
     d="m 279.14198,416.69897 9.216,-25.8562 13.0321,-25.7289"
     style="fill:none;stroke:#dab006;stroke-width:1;stroke-linecap:butt;stroke-linejoin:round;stroke-miterlimit:4;stroke-dasharray:none;stroke-opacity:1" />
  <path
     id="path3618"
     d="m 301.39008,365.11387 4.7929,-12.2189 0.2946,-11.4024 -12.9643,-21.9847 -0.1583,-12.6749 2.6104,-17.6134 -18.0195,-16.7346 -2.1213,-7.7782"
     style="fill:none;stroke:#dab006;stroke-width:5;stroke-linecap:butt;stroke-linejoin:round;stroke-miterlimit:4;stroke-dasharray:none;stroke-opacity:1" />
  <path
     id="path875"
     d="m 581.53628,-629.58313 -13.4293,27.1589 -7.242,27.43 -5.0262,23.5232 -4.4608,12.946 1.6585,17.2107 10.2867,20.9509 5.7217,0.5351 52.9722,-26.8278 4.8034,1.501 11.7498,21.944 20.5061,19.7989 15.4327,12.6515 5.7097,7.8489 2.052,10.8552 -8.3452,23.7988 4.2427,18.3847 17.0942,32.5506 -0.5856,8.4981 -11.3697,7.5219 -25.1692,26.8749 -0.3625,14.6203 16.6863,31.0147 5.2199,16.5356 -5.5923,13.9654 -2.6089,14.1811 -14.5963,40.4531 0.071,20.7656"
     style="fill:none;stroke:#dab006;stroke-width:1;stroke-linecap:butt;stroke-linejoin:round;stroke-miterlimit:4;stroke-dasharray:none;stroke-opacity:1" />
  <path
     style="fill:none;stroke:#ab118e;stroke-width:5;stroke-linecap:butt;stroke-linejoin:round;stroke-miterlimit:4;stroke-dasharray:none;stroke-opacity:1"
     id="path3600"
     d="m 3175.4993,1896.0003 -1.5,28.5 -3,19 -5.5,13 -29.5,22.5 -37.6995,30.8532 -19.7277,8.6488 -13.0728,4.998 -19,1 -26,0.5 -12,-2.5 -4.5,-6 -8.5,-47 -11.3625,-49.3872 -12.5418,-25.4065 -29.8886,-75.8276 -36.7071,-79.8787 -16,-42 -8.5,-19.5 -17.5,-41 -19.5,-31 -26.5,-33.5 -33,-36.5 -34,-26.5 -57.5,-29.5 -89,-38.5 -36.5,-17 -14.5,-9 -10.5,-13.5 -3.5,-12.5 -3,-21 -5.5,-43.5 -5,-20 -15.5,-31.5 -13.5,-27 -21.5,-34.5 -17.5,-36 -27.5,-42.5 -11,-15 -26,-26.5 -23.5,-27 -30.5,-20 -37,-18.5 -20,-15.5 -41.5,-42.50003 -26.5,-25 -37.5,-30.5 -16,-17 -26.5,-26 -64.7979,-80.1516 -87.2473,-109.633 -68.1011,-93.0691 -122.3536,-159.6462 -44.734,-55.2792 -44.7341,-55.3165 -81.1011,-118.7208 -16.4308,-34.8484 -18,-41.8351 -22,-93 -17,-79 -12,-26 -22,-36 -36,-42 -39,-60 -26,-51 -16,-13 -22,-13 -85.4308,-22.7208 -104.0766,10.9402 -91.4926,0.7806 -33,-2 -47,-19 -77.00002,-1 -36,-4 -53,-17 -66,-26 -38,-9 -29,3 -29,19 -40,43 -29,31 -19,10 -67,36 -31,29 -31,48 -140,310 -23,41 -38,126 -23,76 -14,29 -18,71" />
  <path
     style="fill:none;stroke:#ee2722;stroke-width:5;stroke-linecap:butt;stroke-linejoin:round;stroke-miterlimit:4;stroke-dasharray:none;stroke-opacity:1"
     id="path3592"
     d="m 2840.4993,2223.3 7.25,1.9502 54,15.75 21.5213,13.1906 14.9787,8.3094 12,2.75 19.5,-0.5 15,-3.5 16.6769,-12.3258 11.1555,-12.4893 23.0945,-58.1223 7.9681,-32.7048 4.355,-94.6077 -1,-24 -1.7818,-43.0353 -5.7387,-102.8069 -8.6259,-94.6032 -4.8536,-21.0546 -23,-119.5 -14,-81.5 -7,-27 -11.8101,-11.3023 -114.1899,-96.1977 -73.1061,-58.0589 -18.0478,-14.8386 -17.8461,-1.0402 -25.2852,9.7736 -49.488,18.8911 -23.2268,3.773 -63,-19 -63,-34.5 -25.5,-18 -27,-27.5 -39.5,-34.5 -34.5,-44 -25.5,-46 -1,-12 5.5,-25.5 10.5,-19 35.5,-47 25.5,-27 9.5,-13.5 3.5,-22.50003 3,-37.5 0.5,-32 -1,-27 -5.5,-12 -20,-18 -27,-13.5 -19,-2.5 -32,1 -16.5,-3.5 -30,-14 -16.5,-15 -34.5,-15.5" />
  <path
     style="fill:none;stroke:#33b652;stroke-width:5;stroke-linecap:butt;stroke-linejoin:round;stroke-miterlimit:4;stroke-dasharray:none;stroke-opacity:1"
     id="path3594"
     d="m 4196.9992,1870.0003 -8.5,7 -17,17 -24.117,17.9353 -37.0953,37.0326 -21.7877,42.0321 -18,12.5 -22.693,13.4808 -30.807,3.5192 -14,-2.5 -8.5,-5 -6,-9 -17,-24 -10.5,-15.5 -12,-21 -7.8881,-25.8822 -4.557,-20.6802 -6.0549,-22.9376 -19.5,-28 -28,-40 -5.5,-4.5 -56.5,-41 -25,-12.5 -52,-22 -16,-9.5 -15.5,-7.5 -27,-10 -17.5,-9 -12,-11 -12,-24 -5,-25 2.5,-36 -9.5,-84 -8.5,-27.5 -14,-27 -14.5,-23.5 -18.5,-21.5 -25,-22 -84.4999,-57.5 -42.5,-23 -21,-3.5 -61.5,1.5 -16,3.5 -12.5,10.5 -15.5,20 -18,11 -17.5,8 -67.6015,20.1628 -21.9357,1.2613 -36.0959,-1.5456 -71.4501,-0.409 -22.1429,0.3403 -18.2483,4.4688 -13.709,11.7214 -9.7209,14.0752 -2.5957,14.9248 -3.2682,53.9579 -7.7318,32.5421 -1.413,24.397 7.6201,30.8959 12.1464,73.2677 18.2072,93.2072 3.1893,17.1967 7.6976,35.6884 4.1082,23.6825 6.0414,11.3579 8.6997,7.7331 15.9494,6.5247 11.1163,1.2083 12.8078,-2.8999 11.8413,-6.5247 13.2912,-16.9161 7.2497,-9.6663 6.5247,-5.3165 10.8747,-6.2831 13.0495,-1.9332 9.9079,1.6916 26.0991,14.2578 106.0878,71.5307" />
  <path
     style="fill:none;stroke:#915fb6;stroke-width:5;stroke-linecap:butt;stroke-linejoin:round;stroke-miterlimit:4;stroke-dasharray:none;stroke-opacity:1"
     id="path3598"
     d="m 4328.9605,1815.3919 16.2634,-14.1421 7.0711,-12.0209 13.435,-29.6984 1.4143,-18.3848 -2.1214,-22.6274 -8.4852,-12.0209 -19.799,-21.2132 -32.527,-24.7487 -12.7279,-15.5563 -12.7279,-17.6777 -26.1629,-43.1335" />
  <path
     style="fill:none;stroke:#6ac2ee;stroke-width:5;stroke-linecap:butt;stroke-linejoin:round;stroke-miterlimit:4;stroke-dasharray:none;stroke-opacity:1"
     id="path3602"
     d="m 3179.9121,1912.9726 0.5872,-25.4723 0.5,-22.5 -1.5,-24 -7,-15 -21.5,-20.5 -33.5,-35 -19,-22 -10.5,-18 -34.5,-97 -2.5,-23.5 2.5,-21 13.5,-28 38,-82.5 6,-24 1,-29.5 -2.5,-16 -13.5,-37 -21,-36.5 -5,-19.5 -56,-305 v -23.00003 l 4,-21.5 12.5,-25.5 31.5,-59 14,-14 99,-79.5 19,-17.5 36.5,-48 31,-48.5 16,-24.5 97,-103.5 45,-70.4999 47,-73 23.4999,-36.5 9,-9 35,-22 31,-21 21.5,-15.5 12.5,-19.5 1.5,-13 -4,-20.5 -13,-27.5 -0.5,-22 7,-17.5 22.5,-18.5 12.5,-17 4.5,-17.5 v -19 l -3,-21.5 -9,-18.5 -14.5,-18 -14.5,-12.5 -121.4999,-86.5 -12.5,-17 -8.5,-22 -5,-25 -9,-17 -15,-17 -20.5,-11 -101.3288,-11.8714 -17.1712,-6.1286 -24.5,-12.5 -34,-20.5 -72,-44 -15,-5.5 -20.5,-8.5 -39.5,-9.5 -20.5,-0.5 -62,-2.5 -14,-5 -10,-5 -12.5,-9 -10.5,-9 -71.5,-88.5 -12.5,-8 -16,-9 -49,-20.5 -13,-8.5 -13,-13.5 -14,-16.5 -8,-20.5 -4.5,-23.5 0.5,-16.5 5.5,-34 18,-67 10,-36.5 14.5,-81 11,-61 1,-26.5 -5,-23.5 -9,-24 -13,-20.5 -20.5,-20 -15.5,-10.5 -16,-6 -20,-6.5 -68,-10.5 -17.5,-9 -23,-16 -88.5,-80.49997 -107.5,-99.4999 -105,-97 -28,-31.5 -11.5,-25.5 -7,-28 2.5,-28.5 2.5,-50 -2,-27.5 -11.5,-30.5 -19,-38 -12.5,-30.5 -3.5,-25.5" />
  <path
     style="fill:none;stroke:#6ac2ee;stroke-width:5;stroke-linecap:butt;stroke-linejoin:round;stroke-miterlimit:4;stroke-dasharray:none;stroke-opacity:1"
     id="path3604"
     d="m 2315.6698,-1243.744 -21.7002,-5.5002 -46.9703,-2.2553 -265.5,3.5 -17,5.5 -159.4571,43.0022 -54.5428,3.4978 -15,-5.1376 -13,-4.8858 -18.5,-14.9766 -17.5,-27.5 -12.5,-30 -4.5,-16.5 -7.9526,-26.1974 -10.1723,-17.3942 -14.331,-10.544 -18.5441,-8.6229 -22.109,-1.0667 -50.391,2.3252 -26.7766,3.0152" />
  <path
     style="fill:none;stroke:#f68b11;stroke-width:5;stroke-linecap:butt;stroke-linejoin:round;stroke-miterlimit:4;stroke-dasharray:none;stroke-opacity:1"
     id="path3606"
     d="m 2854.4993,2189.0003 -16.5,-9 -11.5,-10 -8.8165,-14.1077 -16.7593,-34.3165 -7.7593,-26.8989 -3.367,-40.7593 16.5186,-45 14.6516,-21.399 21.1516,-28.0505 29.6396,-44.9681 9.2407,-20 21.5,-49.5 10.2785,-26.6732 1.5211,-19.8032 -1.7426,-25.9707 -8.057,-22.5529 -9.5,-23.5 -14.5,-38 -20.5,-48 -20,-31 -22.4138,-29.3902 -32.0862,-37.1098 -36,-29 -52.5,-27 -143,-63 -27,-16.5 -25,-19 -15,-18.5 -12,-23.5 -32.5,-58 -11.5,-18 -15,-22.5 -18.5,-27.5 -14.5,-23 -14.5,-27.5 -7.5,-11 -7.5786,-9.8745 -75.4214,-42.1255 -49.5,-25.5 -50.5,-18 -37,-14.5 -30.5,-7 -49,-7.5 -30.7951,0.4125 -24.6412,5.0104 -213.3493,70.5861 -310.406,94.2001 -47.8083,19.2909 -32,23.5 -60.8812,46.622 -37.0212,23.8915 -18.9084,7.2257 -24.0874,4.7414 -71.437,1.934 -21.4338,4.8443 -33.461,14.878 -29.4805,18.3849 -40.1994,25.9885 -36.5901,35.9897 -49.00002,46.5 -35,42 -12.5,8.5 -44,21 -44,3.5 -38,-4 -36,4 -49.5,17.5 -34.5,14.5 -101.5,59 -19.5,19.5 -13.5,29 -21,27.5 -28,27.5 -65,46 -150.5,88.5 -100.5,59.5 -29,11 -98.499895,24.5 -31.5,5 -12,6 -42.5,21.5 -40,27.5 -27.3966,16.042 -83.494905,11.7083 -19.1109,10.4357 -48.4843,38.3613" />
  <path
     style="fill:none;stroke:#a73e10;stroke-width:5;stroke-linecap:butt;stroke-linejoin:round;stroke-miterlimit:4;stroke-dasharray:none;stroke-opacity:1"
     id="path3614"
     d="m 4081.4731,-40.76333 -31.8198,4.2426 -12.0208,3.5356 -25.4559,21.2132 -23.3345,16.9704997 -33.9411,7.0711003 -29.6985,3.5355 -62.2254,23.3346 -17.6777,5.6568 -12.7279,15.5564 -43.8406,130.8147 -9.1924,53.7401 -19.0919,38.1838 -26.87,38.1838 -14.8493,11.3137 -19.0918,13.435 -42.4265,25.4558 -33.234,32.527 -16.2634,18.3847 -21.9203,37.4767 -12.0209,47.3761 2.8285,24.0417 4.2426,19.7989 v 16.2634 l -9.1924,14.8493 -101.8233,112.4299 -36.7695,18.3848 -18.3848,12.0208 -76.3675,59.397 -47.3762,14.8492 -57.9827,-3.5355 -19.799,1.4142 -28.9914,14.8493 -46.2548,12.7279 -16.4706,13.6421 -38.3504,30.3132 -16.8952,16.1963 -38.2039,71.7508 -5.446,15.3829 -2.453,14.8471 0.5164,17.68743 7.9524,16.9878 236.6261,234.8003 28.6074,18.5575 17.5583,3.8731 48.027,-0.7746 15.2344,1.8075 19.1075,7.4881 60.4211,46.4777 23.2388,19.3657 10.5866,14.9762 4.6478,11.103 1.5493,12.9105 -2.3239,16.5254 -7.2299,12.1359 -62.4867,65.3271" />
  <path
     id="path867"
     d="m 239.81148,660.87447 -3.8223,4.6052 -52.0885,-1.9648 -6.3639,2.1214 -4.2427,45.2548 -9.1924,10.6066 -24.7487,16.2635 -10.2798,7.5816 -8.4306,23.9542 0.1514,8.702 4.417,12.7952 16.2633,31.1127 3.665,9.4812 -6.0523,6.9645 -28.4759,-7.8763"
     style="fill:none;stroke:#dab006;stroke-width:1;stroke-linecap:butt;stroke-linejoin:round;stroke-miterlimit:4;stroke-dasharray:none;stroke-opacity:1" />
  <path
     id="path853"
     d="m 122.91428,826.37517 -62.910195,-15.7649 -26.3337,-31.1771 -2.8118,-8.2889 5.964,-8.6344 14.1422,-19.799 11.3137,-21.2132 9.8702,-17.6605 2.2153,-19.4627 21.8556,-43.487 21.920295,-57.9827 15.2382,-43.8878 -1.2638,-58.7078"
     style="fill:none;stroke:#dab006;stroke-width:1;stroke-linecap:butt;stroke-linejoin:round;stroke-miterlimit:4;stroke-dasharray:none;stroke-opacity:1" />
  <path
     id="path3624"
     d="m 134.74788,483.47587 13.0904,-0.2731 55.1543,12.0208"
     style="fill:none;stroke:#dab006;stroke-width:5;stroke-linecap:butt;stroke-linejoin:round;stroke-miterlimit:4;stroke-dasharray:none;stroke-opacity:1" />
  <path
     id="path849"
     d="m 234.81238,500.88047 6.364,13.435 v 63.6395"
     style="fill:none;stroke:#dab006;stroke-width:5;stroke-linecap:butt;stroke-linejoin:round;stroke-miterlimit:4;stroke-dasharray:none;stroke-opacity:1" />
  <path
     id="path3620"
     d="m 241.17638,577.95497 -0.7428,66.6876 -0.6221,16.2319 -0.4067,12.5893 5.318,5.8776 5.9779,1.4887 17.2879,-8.852"
     style="fill:none;stroke:#dab006;stroke-width:1;stroke-linecap:butt;stroke-linejoin:round;stroke-miterlimit:4;stroke-dasharray:none;stroke-opacity:1" />
  <path
     style="fill:none;stroke:#dab006;stroke-width:1;stroke-linecap:butt;stroke-linejoin:round;stroke-miterlimit:4;stroke-dasharray:none;stroke-opacity:1"
     id="path3626"
     d="m 134.74788,483.47587 -2.6336,-3.1667 -1.8864,-33.1688 0.5863,-33.2341 4.1489,-14.2136 2.8174,-24.9416 -8.809,-22.8253 -16.2289,-14.6344 -22.179895,-8.945 -14.8492,-7.7781 -4.2426,-10.6066 10.6066,-14.1422 12.0208,-9.1924 14.849195,-0.7071 44.5476,16.2635 9.8995,3.5355 22.6275,-6.364 34.6482,-9.8994 23.3345,-13.4351 11.3137,-17.6776 4.4608,-9.072 -0.2417,-27.8921 3.7715,-4.6698 20.6679,5.2297 2.7776,6.9418" />
  <path
     style="fill:none;stroke:#dab006;stroke-width:1;stroke-linecap:butt;stroke-linejoin:round;stroke-miterlimit:4;stroke-dasharray:none;stroke-opacity:1"
     id="path3622"
     d="m 241.17638,577.95497 -3.8266,4.1891 -23.1958,0.2774 -4.1575,3.7414 -0.1566,23.1465 3.7236,2.9492 h 23.6297 l 4.207,-4.1039" />
  <path
     style="fill:none;stroke:#dab006;stroke-width:1;stroke-linecap:butt;stroke-linejoin:round;stroke-miterlimit:4;stroke-dasharray:none;stroke-opacity:1"
     id="path3628"
     d="m 255.31848,258.34287 4.0349,-0.7789 13.9057,5.4743 5.5941,-3.0689" />
  <path
     id="path863"
     d="m 112.74258,337.29137 20.3421,3.2719 14.7622,-2.3546 11.0105,-5.6196 5.518,-0.041 27.3035,33.2749 19.9069,0.7512"
     style="fill:none;stroke:#dab006;stroke-width:1;stroke-linecap:butt;stroke-linejoin:round;stroke-miterlimit:4;stroke-dasharray:none;stroke-opacity:1" />
  <path
     id="path3630"
     d="m 211.58578,366.57427 17.5698,0.663 14.8492,4.9497"
     style="fill:none;stroke:#dab006;stroke-width:5;stroke-linecap:butt;stroke-linejoin:round;stroke-miterlimit:4;stroke-dasharray:none;stroke-opacity:1" />
  <path
     style="fill:none;stroke:#dab006;stroke-width:1;stroke-linecap:butt;stroke-linejoin:round;stroke-miterlimit:4;stroke-dasharray:none;stroke-opacity:1"
     id="path3632"
     d="m 130.81418,413.90627 -6.8303,2.0727 -3.0156,7.8268 1.9977,9.4991 -9.3633,25.5381 1.5851,9.7815 16.1413,0.2975" />
  <path
     style="fill:none;stroke:#9f5443;stroke-width:5;stroke-linecap:butt;stroke-linejoin:round;stroke-miterlimit:4;stroke-dasharray:none;stroke-opacity:1"
     id="path3611"
     d="m 2733.7277,2386.7341 22.6274,5.6568 24.0416,1.4142 6.364,-2.1213 9.8995,-10.6066 33.234,-53.033 10.6066,-14.1421 7.0711,-8.4853 11.3137,-16.9706" />
  <path
     style="fill:none;stroke:#00a6df;stroke-width:5;stroke-linecap:butt;stroke-linejoin:round;stroke-miterlimit:4;stroke-dasharray:none;stroke-opacity:1"
     id="path3617"
     d="m 4483.9992,-4704.4994 -57,30.5 -100.5,67.5 -130,74 -25,9.5 -42.5,13 -28,11 -175.5,174 -21,31.5 -52.5,94 -61,94.5 -12.5,24 -6.5,46.5 -13.5,100.5 -16,47.5 -69,121.5 -15.5,72.9999 -34.5,77.5 -18,31 -41,40 -32,42 -22,31 -111.9999,96 -25,11 -43.5,13 -50.5,26 -126.5,63.5001 -25,11 -31.5,7 -102.5,17.5 -74.5,27 -51.5,34.5 -44,49 -30,49.5 -17,17 -30,14 -101.5,16.5 -51,1.5 -29,6 -24.5,16.5 -32.5,43 -64.5,81 -81,61.5 -84.5,43.9999 -22,19.5 -27.5,42 -31,36 -39.5,83.5 -10,37 1.5,27.5 34.5,54 20,34 16.5,25 10.5,46 13,24.5 10.9979,12.9978 22.0021,9.0022 36.8237,-2.3097 26.9209,10.0501 10.0683,9.1123 11.796,34.335 10.8911,56.3123 7,33.5 14.5,25 24.5,28 8,18.5 -1.5,17.5 -5,13 -55,34 -59,37 -53.5,95 -11.5,33.5 -13,16.5 -11.0898,7.5066 -11.1995,0.3083 -26.2107,-7.8146 -31.5,-13.5 -84.5,-55 -26,-6.5 h -23.5 l -342.9999,5.5 -43.5,6.5 -78,0.5 -64.5,-5 -145,3 -37,16.5 -16,12.5 -9.5,12 -5.5,13 9.5,360.5 -11,29.5 -15,25.5 -11.9655,35.6289" />
  <path
     style="fill:none;stroke:#96499a;stroke-width:5;stroke-linecap:butt;stroke-linejoin:round;stroke-miterlimit:4;stroke-dasharray:none;stroke-opacity:1"
     id="path4461-6"
     d="m 2453.8997,-1875.6871 65.6437,-11.4488 13.4995,-9.747 14.4114,-24.9097 18.598,-36.5168 1.122,-11.1846 -5.7655,-7.503 -61.4095,-75.5025 -55.5,-71 -5.5,-28.5 7.5,-44 31,-122.5 10,-93.5 -1.5,-57 2.5,-26.5 -11,-27 -105.5,-111.5 -159.5,-138.5 -86.5,-77.9999 -8,-21 -23.5,-73 -12,-64.5 -18.5,-24 -27.5,-14.5 -341.4999,-69 -126,-24 -31,1.5 -78.5,13.5 -55.5,0.5 -42,-3.5 -29,6.5 -288,171 -145.50002,127.5 -30.5,19.4999 -36.9838,14.3837 -125.2767,31.4749 -15.0554,16.242 -26.317,51.2492 -39.3671,57.6502 -32.5,37.5 -29,17 -243.5,101 -101.082,0.3166 -18.2606,2.8066 -19.3454,9.4975 -32.4701,16.6073 -33.9494,1.5673 -58.568095,-3.5538 -85.7448,26.8344 -113.579505,5.4241 -223.5,3.5 -49.9737,-9.4332 -53.0263,-9.5668 -38,-10 -57,-9 -30.5,0.5 -20,4.5 -481.35518,446.3646 -9.2892,24.9079 -1.3159,76.6984 7.9602,17.0291 26.4307,18.2525 36.1983,5.4336 32.4877,15.2252 36.58418,20.1456 34.514,30.0746 8.7309,14.5862 0.7378,34.7504 1.3288,99.0512 0.7022,34.3075 -5.2966,47.6695 -18.5382,35.4211 -22.8416,32.4417 -45.35218,49.6558 -48.3316,45.0211 -45.6855,38.0438 -5.8117,12.7467 -0.9078,15.6341 6.3483,15.0989 13.6478,21.916 76.5822,108.7586 18.34788,34.0612 59.2812,53.2944 13.2612,13.6084 5.2966,23.5037 v 16.5519 l -18.8692,60.24897 -12.5794,30.4555 -6.6208,28.1382 -1.3242,19.5313 1.6552,14.5657 2.669,7.864 11.0109,15.4193 21.3936,16.2106" />
  <path
     style="fill:none;stroke:#da251e;stroke-width:5;stroke-linecap:butt;stroke-linejoin:round;stroke-miterlimit:4;stroke-dasharray:none;stroke-opacity:1"
     id="path3608"
     d="m 1511.3649,-1410.8832 -39.999,-35.1658 -12.3164,-16.2169 -15.4828,-62.2669 -22.0673,-89.9667 -5.6253,-7.4109 -11.6235,-15.6494 -6.9681,-11.6227 -5.8165,-18.6997 -1.0616,-156.2665 -5.1123,-99.2148 -11.7927,-112.136 -7.5,-95 -1.5,-173.5 -2.4932,-42.5431 -77.5068,-172.9569 -49.5,-75.5 -88,-121.5 -86,-77 -27.5,-29.4999 -51.50002,-22.5 -30.5,-29.5 -30.5,-35.5 -18.2745,-40.3721 -9.4657,-40.736 -188.8945,-294.4653 -36.3579,-58.1616 -2.5122,-16.1162 3.106,-13.8104 7.6497,-13.0979 174.7992,-126.0324 165.44992,-132.7082 12.5,-19.5 17.5,-44" />
  <path
     style="fill:none;stroke:#13ae58;stroke-width:5;stroke-linecap:butt;stroke-linejoin:round;stroke-miterlimit:4;stroke-dasharray:none;stroke-opacity:1"
     id="path3610"
     d="m 2206.4993,-1636.9995 -1.5178,-20.7094 10.5178,-26.2906 -3.5,-38 -2,-51.5 1.5,-61.5 -8.7898,-7.8274 -19.2102,-6.1726 -25.5,-9.5 -10.9398,-0.5594 -44.5602,18.0594 -33.5,17 -19,15 -36,9 -388.4999,9.5 -15.5066,7.9242 -14.6077,21.5692 -9.387,13.1209 -36.9987,18.8857 -31.9525,17.733 -24.0475,2.267 -285,4.5 -21,-6 -18,-13.5 -33.5,-26.5 -22,-18 -18.1849,-5.7905 -31.2632,5.0908 -157.05192,35.1997 -388.5001,70.5 -35,-6.5 -68.5,-21 h -125 l -91,-34 -158.999895,-67 -22,-7 -250.049505,5.9369 -22.4647,6.1381 -59.8936,75.8904 -17.5921,15.5346 -27,9 -34.1728,6.3613 -55.8272,3.1387 -198,-0.5 -36,4.5 -124,1.5 -58,-2 -16,-7 -18,-19 -18,-30 -2.5858,-108.2323 -9.44,-25.2841 -32.9742,-36.4836 -29,-30 -185.00008,-190 -162,-139.5 -119.5,-107 -69.9999,-63.5 -9,-20.5 -2,-27.5 -4.5,-50.5 -12,-27.5 -29.5,-36 -75,-157 -107,-247.4999 -26.5,-120.5 -28.5,-54.5 -26.5,-36.5 -48,-47 -28.5,-50.0001 -21,-31.5 -60,-116" />
  <path
     style="fill:none;stroke:#b34e20;stroke-width:5;stroke-linecap:butt;stroke-linejoin:round;stroke-miterlimit:4;stroke-dasharray:none;stroke-opacity:1"
     id="path3612"
     d="m -942.00052,-862.99973 105.0672,76.9461 28.1536,10.0824 16.8213,2.4856 15.9579,-8.5141 60,-49 12,-72 16,-31 18.5,-41.9999 21,-14.5 48.6517,-10.05237 66.4862,8.62297 82.596,29.1954 51.266,1.734 33,-6 20.5,-9.5 8,-10 3,-19.99997 -21.5914,-110.9861 -3.9086,-61.5138 1.347,-153.5865 49.997,-160.6731 16.656,-68.2404 10.5,-17.5 15,-10 15,-3 125,-3 30.777205,2.3811 41.591,8.9954 35.5146,15.7544 24.7716999,4.4936 89.3555001,1.3091 26.523895,-2.967 12.6047,-10.9869 5.3253,-16.4845 2.9439,-89.8918 12.6922,-38.6034 9.8999,-28 14.0001,-31 0.1518,-22.4503 12.3482,-29.5497 32.5,-58.5 11,-11.5 21,-5 35,2 25.5,5.5 53.5,44 30.5619,27.0969 18.4945,6.0927 14.918,-1.6436 34.9064,-28.229 58.6192,-56.817 29.5,-15 27.5,-3 123.5,-2.5 13.5,-6.5 37,-21 37.5,-23 19.5,-6 24.5319,-3.3316 100.4681,0.8316 33.7241,-5.8435 30.71542,-18.293 48.5227,-2.5104 33.102,13.6102 25.7596,6.4163 44.8914,-2.2281 46.3744,-11.0679 23.2687,4.2063 20.9947,10.7512 8.3869,15.1855 -0.7728,16.2855 -35.2007,110.1592 2.8601,23.0195 9.7572,18.8259 20.1163,15.9833 13.807,5.3844 43.5519,-1.2915 44.2412,-2.6331 85.9862,-6.1622 73.8461,-3.2172 63.4405,7.0461 41.0466,-5.2298 25.9751,-12.3174 16.0889,-15.7937 15.2343,-15.2127 17.2973,-10.6299 188.9848,-7.443 20.5,2.5 32.8846,3.4054 32.1195,10.0574 24.6899,17.4804 20.1085,23.2461 19.9735,3.3823 24.9033,-2.2576 258.8207,-52.814 138.399,-24.3241 71.601,-12.1759 108,-13.5 21.5,-2.5" />
  <path
     style="fill:none;stroke:#915fb6;stroke-width:5;stroke-linecap:butt;stroke-linejoin:round;stroke-miterlimit:4;stroke-dasharray:none;stroke-opacity:1"
     id="path3596"
     d="m 3442.4916,2092.9503 28.7193,-5.7953 13.7883,3.8453 16.1663,11.4133 20.4044,21.3113 15.1025,4.5376 21.8471,-0.8261 16.5749,-1.4657 7.4048,-0.9704 55,-29.5 183,-100.5 82.5,-48.5 15.6747,-3.3963 15.2542,2.7176 12.9372,6.7228 6.1339,8.4559 34,49.75 3.5,5.25 9,5.5 16.5,4 33.7849,-3.9276 23.5687,-13.426 20.3639,-15.0104 20.0471,-41.5154 37.4866,-36.2504 23.9144,-18.6613 17.3241,-17.3241 18.3848,-13.7886 53.033,-22.981 91.2167,-36.416 14.1422,-7.0711 28.9914,-4.9497 25.4558,2.8284 23.3345,20.5061 41.7193,48.7904 3.8959,24.4401 0.088,23.5118 -5.6379,21.8749 -7.6326,16.9079 -5.9465,12.7746 -10.2231,15.7491 -24.186,13.377 -27.4218,22.2988" />
  <path
     d="m 1022.2493,1451.0006 9.5,-8.75 5.75,-4.75 14,0.5 16.5,7.5 12,9.5 7,15 5.4941,14.513 2.7411,28.1781 -2.2724,37.2121 -0.518,23.2763 3.2286,21.101 16.6861,49.8727 6.0993,14.1647 14.3113,17.4004 25.335,13.5718 42.1264,16.6727 23.1913,1.1388 24.0663,0.87"
     id="path3616"
     style="fill:none;stroke:#de6dbd;stroke-width:5;stroke-linecap:butt;stroke-linejoin:round;stroke-miterlimit:4;stroke-dasharray:none;stroke-opacity:1" />
  <path
     style="fill:none;stroke:#2d7bc8;stroke-width:5;stroke-linecap:butt;stroke-linejoin:round;stroke-miterlimit:4;stroke-dasharray:none;stroke-opacity:1"
     id="path2818"
     d="m 3958.4992,2508.5002 26.5,-55 19.5,-43.5 17,-36 3.5,-12 -1.5,-26.5 -6.5,-15 -42.312,-53.6727 -14.8947,-8.1243 -13.2806,-2.566 -20.6616,3.0634 -40.5406,11.4538 -31.8105,-1.6542 -45.5,-17.5 -15,-3.5 -19.5,-6.5 -12.9256,-9.558 -14.0744,-16.442 -16.5,-23.4999 -8,-4.5 -19,-3 -40.5,-1 -36.5,-1.5 -11.5,-2 -8.5,-3.5 -17,-14.5 -16.5,-24 -14,-28.5 -10.5,-14 -14,-8.5 -49,-12.5 -33.9999,6.5 -72,14.5 -5.5,3.5 -28,31 -5,19 -2,37 -12.5,31.9999 -29.0381,18.6132 -42.9619,1.8868 -34.5,10 -13,0.5 -52.5,22 -33.5,10 -16.5,4.5 -26.5,3.5 -40.5,3 -36,-4.5 -63.5,-20 -18,-10 -46.5,-13 -21,-8 -13,-13 -36,-46.9999 -23,-16 -9,-4.5 -26.5,-7 -52.5,-12 -26,-3 -22,13 -31.6439,38.1973 -17.3931,7.1955 -48.5817,-2.8216 -24.9565,1.6451 -23.8144,2.2651 -39.1104,30.5185 -43.5637,11.5242" />
  <path
     style="fill:none;stroke:#dd127b;stroke-width:5;stroke-linecap:butt;stroke-linejoin:round;stroke-miterlimit:4;stroke-dasharray:none;stroke-opacity:1"
     id="path2836"
     d="m 241.49938,-1769.9995 11.5,7.5 23,-1.5 19,21 1.5,13 12,1 1,12.5 7,2 16.5,18 6.5,0.5 16,20.5 v 45 l -15.5,15 -33.5,1.5 -8.5,-7.5 -13.5,1 -6.5,-4.5 -2,-8.5 7,-4 1.5,-11.5 -5,-5 -9,-3 -9,-17 -15,-12.5 -4.5,-15 -7,-5 -40.5,-14.5 -5,-9.5 8,-23 z" />
</svg>
