<?xml version="1.0" encoding="UTF-8" standalone="no"?>
<svg
   xmlns:dc="http://purl.org/dc/elements/1.1/"
   xmlns:cc="http://creativecommons.org/ns#"
   xmlns:rdf="http://www.w3.org/1999/02/22-rdf-syntax-ns#"
   xmlns:svg="http://www.w3.org/2000/svg"
   xmlns="http://www.w3.org/2000/svg"
   xmlns:xlink="http://www.w3.org/1999/xlink"
   version="1.1"
   id="svg2"
   width="3300"
   height="7400"
   viewBox="0 0 3300 7400">
  <metadata
     id="metadata8">
    <rdf:RDF>
      <cc:Work
         rdf:about="">
        <dc:format>image/svg+xml</dc:format>
        <dc:type
           rdf:resource="http://purl.org/dc/dcmitype/StillImage" />
        <dc:title></dc:title>
      </cc:Work>
    </rdf:RDF>
  </metadata>
  <defs
     id="defs6" />
  <image
     xlink:href="../../timelines/streetmap/../streetmap/jktosm.png"
     width="6040"
     height="8053.3335"
     preserveAspectRatio="none"
     id="image10"
     x="-1350"
     y="-703.3335"
     style="display:none" />
  <path
     id="path4699"
     d="m 2748.9143,2577.1309 -14.9294,-2.3994 -8.2645,-4.2655"
     style="opacity:1;fill:none;fill-opacity:1;fill-rule:nonzero;stroke:#06368b;stroke-width:1;stroke-linecap:butt;stroke-linejoin:round;stroke-miterlimit:4;stroke-dasharray:none;stroke-opacity:1" />
  <path
     id="path4893"
     d="m 1756.6757,255.54406 61.0779,-15.45797 22.6214,-1.13107 10.9337,3.39321 10.1796,7.9175 6.7864,11.31071 12.0648,46.37396 48.259,81.0601 10.9337,27.8997 9.0486,54.2914 v 16.5891 l 3.0162,114.6152 3.7702,15.081 9.8026,17.3431 10.5567,20.7363 13.5729,17.7201 6.7864,19.9822 1.8851,23.7525 -1.8851,23.7525 -9.8026,39.9645 -1.1311,14.704 6.0324,35.8172 24.8836,80.3061 14.7039,93.8789 9.8026,21.1133 233.3777,318.5851 78.798,107.0747 49.3901,65.9792 13.5728,29.4079 6.0324,18.0971 1.5081,25.6376 v 52.4063 207.7401 l 5.6554,68.6183 -4.9013,26.0147 -18.0972,45.6198 -149.6784,338.9444 -12.8188,30.1619 -6.7865,28.2768 -15.8349,79.552 -7.9175,46.3739 -7.5405,36.5713 -9.4256,22.6214 -43.7348,105.5667 -3.3932,27.8997 -4.9013,65.6022 -17.3431,99.1572 -30.9159,183.6106 -6.0324,21.8674 -10.1797,18.0971 -26.3916,39.2105 -8.2945,24.1295 v 23.3755 l 10.1796,22.9984 14.7039,28.6538 2.6392,17.3431 -0.7541,27.1457 -2.6391,20.7363 -27.1457,105.5667 -26.0147,204.3469 -2.6391,35.4402 2.6391,24.8836 v 0 l 13.5729,101.7964 -1.5081,18.4741 -5.2783,23.7525 -21.8674,60.3238 -38.8335,118.7625 -14.7039,22.9985 -50.8982,59.5697 -7.5405,18.0972 -73.5196,171.1687 -35.0632,157.596 -14.3269,77.2898 -17.3431,78.0439 -91.2398,257.5073 -14.3269,32.047 -64.848,136.4826 -14.3269,50.8982 -19.6053,93.1249 -1.1311,43.7347 6.7865,48.6361 22.2444,114.9922 1.5081,31.67 0.754,79.9291 -5.2783,29.0308 -12.4418,29.7849 -17.3431,22.6214 -56.5536,63.717 -12.0647,28.6538 -12.0648,42.9807 -3.3932,34.3092 v 52.7833 l 10.1797,98.4032 1.508,60.3238 16.9661,65.9792 v 14.7039 l -5.6553,35.0632 3.7702,26.3917 10.9337,15.0809 41.8496,42.9807 9.4256,21.1133 6.0324,22.6215 -0.754,31.67 -26.7687,308.7824 2.6391,27.5227 48.2591,228.0994 0.754,20.7363 -4.1472,24.1295 -12.4418,27.8998 -18.8512,35.4402 -16.9661,17.7202 -51.2752,28.6538 -24.5066,21.8673 -14.3269,22.9985 -8.6715,27.5227 -1.8851,31.67 8.2945,55.7995 2.2621,27.5228 -7.5404,23.7525 -26.7687,96.141 -12.4418,52.4063"
     style="opacity:1;fill:none;fill-opacity:1;fill-rule:nonzero;stroke:#ed1b24;stroke-width:5;stroke-linecap:butt;stroke-linejoin:round;stroke-miterlimit:4;stroke-dasharray:none;stroke-opacity:1" />
  <path
     style="opacity:1;fill:none;fill-opacity:1;fill-rule:nonzero;stroke:#214c9b;stroke-width:5;stroke-linecap:butt;stroke-linejoin:round;stroke-miterlimit:4;stroke-dasharray:none;stroke-opacity:1"
     d="m 1885.8319,1083.4072 1.2125,47.8084 1.559,20.613 1.7321,72.059 -13.1645,65.1302 -3.6376,48.6745 -10.7396,36.7224 -17.1487,32.2186 -23.2112,31.6991 -129.9055,106.8046 -163.8735,118.2064 -7.2751,7.102 -11.0586,31.6104 0.7064,163.7968 -10.4341,16.9589 0.8661,40.0135 -9.0074,72.7519 -4.1572,81.7592 -8.3145,87.3022 13.1646,49.1941 -2.7715,51.9656 6.9288,131.6462 -13.1647,46.4226 -8.3145,13.1647 -5.543,28.4078 -2.7715,52.6585 -7.6216,31.8722 0.6929,23.5578 -2.7715,14.5504 v 15.2432 l -5.543,11.7789 -12.4717,2.7715 -114.3244,-2.7715 -88.688,-23.5578 -42.2653,-25.6363 -62.3587,2.7715"
     id="path826" />
  <path
     style="opacity:1;fill:none;fill-opacity:1;fill-rule:nonzero;stroke:#c08332;stroke-width:5;stroke-linecap:butt;stroke-linejoin:round;stroke-miterlimit:4;stroke-dasharray:none;stroke-opacity:1"
     d="m 3153.273,589.73397 -151.7395,242.50617 -29.1008,20.09337 -23.5577,31.17936 -15.2433,40.87961 -9.7002,63.05161 -0.6929,124.71741"
     id="path828" />
</svg>
