<?xml version="1.0" encoding="UTF-8" standalone="no"?>
<svg
   xmlns:dc="http://purl.org/dc/elements/1.1/"
   xmlns:cc="http://creativecommons.org/ns#"
   xmlns:rdf="http://www.w3.org/1999/02/22-rdf-syntax-ns#"
   xmlns:svg="http://www.w3.org/2000/svg"
   xmlns="http://www.w3.org/2000/svg"
   xmlns:xlink="http://www.w3.org/1999/xlink"
   id="svg2"
   height="7850"
   width="12150"
   viewBox="0 0 12150 7850"
   version="1.1">
  <metadata
     id="metadata8">
    <rdf:RDF>
      <cc:Work
         rdf:about="">
        <dc:format>image/svg+xml</dc:format>
        <dc:type
           rdf:resource="http://purl.org/dc/dcmitype/StillImage" />
        <dc:title></dc:title>
      </cc:Work>
    </rdf:RDF>
  </metadata>
  <defs
     id="defs6" />
  <image
     xlink:href="../../timelines/sel/uncropped/./../../streetmap/shaosm.png"
     style="display:none"
     x="1122.8391"
     y="-187.35481"
     width="11254.645"
     height="8080.2578"
     id="image10" />
  <path
     id="path839"
     d="m 4048.1484,3383.3131 -72.1354,2.6356 -73.7716,-0.3936 -67.2533,-12.4951 -24.6228,3.3075 -99.2262,51.4506 -282.9785,116.499 -211.1948,84.4369 -47.2954,17.6708 -110.7025,23.9075 -32.743,5.1973 -32.7429,14.0328 -18.7103,19.7497 -54.0519,86.7949 -21.8287,22.8681 -34.3021,17.1511 -39.4995,12.9932 h -29.6246 l -271.299,9.3552 -157.4782,43.1375 h -23.3878 l -74.8411,-10.3946 -527.5259,1.0395 -244.7927,39.4995 -65.486,-4.1579 -163.1952,-32.2232 -46.7757,-0.5197 -98.7487,13.5129 -65.4859,9.3552 -34.8219,17.1511 -15.0722,12.9932 -9.87486,16.6314 -7.27622,18.1905 v 28.0654 l 23.38788,186.583 -1.0395,25.9865 -9.8749,28.0654 -12.47348,18.1906 -137.72842,104.4657 -13.51297,18.7103 -6.75649,18.7103 6.23676,52.4927 1.55919,42.6178 22.34838,96.6698 4.15784,29.6246 -4.15784,23.9076 -14.03271,24.4273 -14.0327,15.5919 -49.89407,37.9402 -35.34163,19.7498 -30.66407,19.7497 -25.46676,7.2762 -173.58978,39.4995 -53.01244,6.7565 -356.01496,27.5457"
     style="opacity:1;fill:none;fill-opacity:1;fill-rule:nonzero;stroke:#c27666;stroke-width:5;stroke-linecap:butt;stroke-linejoin:round;stroke-miterlimit:4;stroke-dasharray:none;stroke-opacity:1" />
  <path
     style="fill:none;stroke:#e596c3;stroke-width:5;stroke-linecap:butt;stroke-linejoin:round;stroke-miterlimit:4;stroke-dasharray:none;stroke-opacity:1"
     id="path3810"
     d="m 4063.0001,2669.0002 44,-5 135,11 108,-25 150,-11 94,25 39,24 154,91 53,18 126,22 174,-13 127,16 34,-1.5 23,11.5 18.5,19 25.5,5 66,-30.5 31.5,-16.5 26,-4.5 27,-35.5 16.5,-34 25.5,-15 26,-9.5 19.5,-30 45,-38.5 43,-23 88,-17 30.5,-4.5 16.5,8 21.5,35 30.5,30 31.5,14 21.5,46 6.5,27.5 -9.2176,53.4478 2.7176,34.0522 13,43 v 72.5 l 9,24 26.97,28.5126 76.8481,4.0474 18.0794,9.8549 15.1025,19.5851 9,23 21,100 16.5,43.5 11.5,33 24,61.5 30,63.5 8.5,39 -8,76 21.5,76.9998 18.8177,81.5133 13.9651,22.0503 27.1954,33.8104 29.4003,24.9903 31.6054,11.7601 6.6151,-1.47 265.3383,-24.9903 110.9863,-33.8104 53.6557,-19.1102 54.3906,-20.5803 160.967,-33.0754 116.1315,-0.735 19.1102,2.205 24.2553,8.8201 20.5802,11.0252 13.2302,55.8607 47.2559,96.7536 11.2034,8.6049 16.3486,0.5197 130.2596,-65.4528 81.586,-38.2205 128.6266,-40.4254 58.8007,-19.1103 50.7157,-5.88 69.0908,1.47 44.8356,-11.0251 38.9554,-14.7002 44.8356,-26.4604 19.1102,-17.6402 163.172,-80.116 47.0406,-13.2301" />
  <path
     style="fill:none;stroke:#007b66;stroke-width:5;stroke-linecap:butt;stroke-linejoin:round;stroke-miterlimit:4;stroke-dasharray:none;stroke-opacity:1"
     id="path3773"
     d="m 4609.0598,4356.3091 82.6406,-53.8188 43.4412,-23.3486 174.7796,-33.3388 61.0789,-24.8027 64.8827,-24.7999 9.6882,-9.5101 4.6815,-14.717 0.5428,-14.4177 -45.6127,-190.4644 -0.6086,-14.668 5.9189,-14.746 10.6671,-10.749 73.5514,-22.8557 68.2887,-32.0722 139.2599,-36.2762 46.5957,-23.7605 17.7199,-6.8218 126.5169,-19.9211 105.7103,-4.7796 99.1973,-28.4408 93,-28.5 11.5,-5 6.5,-24.5 3,-32 -10.5,-43.5 v -19 l 10,-29.5 44.5,-35.5 48.5,-23 62.5,-26.5 12.5,-22.5 -5,-37.5 -38,-67 -26.3804,-143.6716 8.5806,-56.1137 -6.7128,-46.8046 -24.9874,-85.9101 -1.5126,-29.1625 19.1451,-53.9603 2.3675,-33.8772 -29.5,-72.5 -12.705,-74.53 -4.295,-20.97 -1.295,-37.6402 13.2176,-18 57.0774,-33.8598 33,-8.5 54,9.5 50,-5.5 71.5,-14.5 60.7147,-5.6499 54.6688,-26.2613 53.6939,-8.3434 19.4255,-7.1129 21.5445,-25.1499 177.4526,-88.9826 32,-13.5 88.5,-94.5 101,-59 167.5,-96 45.5,-16.5 102.5,-88 45.5,-33.5 358.5,-44 31,4 68.1451,31.4575 269.8549,2.5425 119.5,5.5 197.5,-4.5 77.4255,8.6325 21.6276,9.5474 10.3843,17.3873 0.5626,171.9328 2,23.5 -10.3242,34.0687" />
  <path
     style="fill:none;stroke:#88192c;stroke-width:5;stroke-linecap:butt;stroke-linejoin:round;stroke-miterlimit:4;stroke-dasharray:none;stroke-opacity:1"
     id="path2987"
     d="m 1236.0001,1784.0002 48,2 258,72.5 47,23 79,9.5 26,-6 24.5,-0.5 23,12 29,18.5 79,20 34,8 53.5,0.5 55,-5.5 70,-2 21,5 29,12 22,9 151,35 25,2 30,-4 24,-10 17,-15 29,-31 82,-75 33,-31 15,-24 10,-29 75,-301 20,-60 31,-67 20,-21 62,-49 32,-8 24,-6 102,10 41,3 27,-10 125,-66 21,-2 22,7 16,14 107,214 39,30 52,19 31,4 25,-4 50,-17 156,-58 41,-5 45,9 40,30 37,63 127,190 23,28 34,28 51,30 79,23 124,37 39,25 22,15 33,20 12,21 45,56 37,45 25,15 47,8 54,8 h 50 l 20,4 17,17 33,61 22,21 50,27 30,8 56,6 162,39 16,7 1,25 6,16 17,7 119,26 17,18 13,30 54,207 12,43 9,24 24,19 102,73 10,13 31.2727,66.8597 18.4828,25.8044 16.2445,58.3359 19,20 33,26 14,26 10,38 37.3549,103.3424 -0.8549,23.6576 -13.0425,20.3375 -0.6625,28.2901 18.705,61.8724 23,30.5 4.8375,27.325 -9.8375,46.675 4,32 9.5,46.5 3,47.5 10.5,27.5 15.5,24.5 6.5,45 8,16.5 30.5,41.5 10,20.5 23.5,37.5 11.5,9.5 76,15.5 57,-1.5 15,9.5 11.5,16.5 9,78 22.5,130.5 12.5,11 14.5,10.5 140.5,14 135.4442,41 83.3388,60.0361 25.2401,11.398 124.6145,-2.8191 19.9971,12.1415 47.3653,65.2435 20,8 18,3 123.5,-47.5 115.5,-39 220,-65 81,-22.5 388,-97.5 46.5,-8 28,1 c 0,0 46,9.5 44,10.5 -2,1 18.5,7.5 18.5,7.5 l 17.5,19.5 25,80 39,67 6.5,20.5 2,43 9.6771,40.5355 16.3229,47.9645 36.5,95 24.5,22 38,12 57,-1.5 82.5,-5.8782 314.2925,-32.7722 195.4185,-32.2232 24.947,-12.4735 36.9008,-32.2233 71.7227,-47.8151 38.46,-12.4736" />
  <path
     style="fill:none;stroke:#88192c;stroke-width:5;stroke-linecap:butt;stroke-linejoin:round;stroke-miterlimit:4;stroke-dasharray:none;stroke-opacity:1"
     id="path3757"
     d="m 2993.0001,346.0002 -28,20 -18,13 -41,47 -26,30 -14,35 -10,44 v 33 l 2,38 13,39 22,43 110,205 24,44 146,297" />
  <path
     style="fill:none;stroke:#c6add4;stroke-width:5;stroke-linecap:butt;stroke-linejoin:round;stroke-miterlimit:4;stroke-dasharray:none;stroke-opacity:1"
     id="path3759"
     d="m 4037.3947,3393.7778 80.4681,-2.59 44.8123,-1.5899 61.6577,-2.265 40.2129,2.8124 100.0908,35.5628 30.1026,5.9149 158.259,-2.5454 33.5551,6.3249 49.4198,-0.145 23.3172,11.4951 31.7099,1.2476 35,1 32,-9 49.6843,-20.6612 65.3157,-46.3388 48,-31 57.8422,-17.0395 55.1578,-25.9605 20.6199,-10.8523 14.2386,-1.447 24.7401,3.9211 101.4014,36.3782 40.0857,18.0231 89.6246,12.6776 49.3946,3.2762 27.894,-8.6074 34.0011,-17.3695 79,-36 69,-37 124.2666,-96.7632 36.8031,-26.1594 84.35,-50.0697 90.0232,-31.3075 51.0077,0.3501 33.1277,-8.9227 18.619,-1.1527 45.5803,7.9826 34.2224,-6.9575 106.2435,-42.0395 28.2023,-2.9236 47.0142,-28.5268 8.7401,-16.8979 0.1714,-11.3658 -22.0885,-47.845 -11.283,-65.4014 -12,-61 -27,-89 -19,-51 -12.9953,-70.8069 6.0415,-25.9784 15.1759,-23.8335 49.7943,-46.6112 19.9836,-45.77 3,-31 38,-106 33,-33 104,-109 25,-32 145,-323 9,-21 -1,-15 -35,-67 -55,-108 -17.2435,-41.7007 -5.1184,-43.9932 v -194" />
  <path
     style="fill:none;stroke:#c6add4;stroke-width:5;stroke-linecap:butt;stroke-linejoin:round;stroke-miterlimit:4;stroke-dasharray:none;stroke-opacity:1"
     id="path3761"
     d="m 4807.6844,3419.339 -31.3224,28.6843 -20.0299,39 -29.9306,30.7238 -8.7186,18.7241 -1.3115,22.6798 4.7702,28.6846 11.8585,52.1646 2,39 -4,30 -9,16 -22,22 -198,88" />
  <path
     style="fill:none;stroke:#7acef3;stroke-width:5;stroke-linecap:butt;stroke-linejoin:round;stroke-miterlimit:4;stroke-dasharray:none;stroke-opacity:1"
     id="path3782"
     d="m 2903.0788,6608.0047 -11.1031,-31.1739 -5.5515,-26.0493 -0.427,-100.7813 -5.9786,-28.1846 -11.103,-22.206 5.1245,-111.0302 -12.7024,-85.646 8.282,-25.3636 21.8388,-26.2425 4.6583,-21.4301 -0.1167,-221.897 2,-74 9,-140 8,-61 6,-89 -3,-68 -1,-193 -26,-173 1,-33 3,-42 13,-108 -1,-23 -12,-56 -22,-149 5,-22 15,-30 18,-17 22,-8 198,-62 132,-8 224,-26 47,-1 92,-1 32,-7 27,-12 115,-90 45,-59 30,-23 28,-13 149,-63 36,-22 42.1451,-45.1199 95.7098,-63.795 72.1451,-46.0851 63,-42 115,-74 174,-26 50,-4 39,-17 121,-81 86,-40 142,-50 241,-53 69,-22 27,-21 23.325,-52.6325 68.675,-143.3675 30.6151,-59.8704 20.675,-17.2476 36.0677,-12.47 27.1199,-4.7949 27.4101,-3.3676 25.8723,-5.4197 28.2399,-12.8298 59,-31 96,-36 40.4874,-12.7524 37.5126,-10.2476 31,-9 26,-17 16.5899,-27.1702 17,-16.5126 12.5726,-4.1373 21.7775,-7.2224 72.06,-17.9575 40,-22 18,-6 47.06,-6.4275 78.94,-8.5725 37.4874,-8.3675 17.5126,-9.6325 13,-13 10,-16 8,-37 -1.9245,-19.0091 3.3694,-25.016 8.6924,-16.8724 27.65,-12.9497 23.5048,-14.8472 58.7079,-61.3056 42,-21 38,-10 33,-10 45.1199,-15.2476 21.855,4.3675 37.5606,17.2624 105.4645,68.6177 49.6325,31.795 31,0.53 30.3675,-8.265 37.9906,-30.3038 17.0094,-6.7562 56,-22 60.3276,-27.0383 68.6044,-46.7757 188.1422,-99.7882 161.1162,-86.7949 160.5966,-121.097 111.7419,-95.1106 37.4205,-21.8286 40.0192,-18.1906 98.229,-35.8614 42.6178,-9.3551 58.7295,-6.7565 64.9662,3.6381 76.4003,5.7171 95.1106,0.5197 37.4206,-6.7565 468.2766,-108.1038" />
  <path
     style="fill:none;stroke:#0095d8;stroke-width:5;stroke-linecap:butt;stroke-linejoin:round;stroke-miterlimit:4;stroke-dasharray:none;stroke-opacity:1"
     id="path3784"
     d="m 6852.0001,1398.0002 2,382 6,25 29,68 4,29 4,113 -5,20 -121,73 -24,11 -79,29 -107,30 -33,3 -42,-7 -17,-10 -35,-31 -18.8549,-7.5725 -49.1451,-2.4275 -81,-4 -31.2476,3.6325 -15.3849,9.0774 -5.7481,18.1212 -5.8257,35.6993 -16.8128,23.6533 -24.5534,8.1238 -42.2399,8.3598 -31.53,12.4024 -35.7949,23.7524 -36.4952,41.8278 -19.3675,26.3501 -19,29 -1,25 3,41 18,47 15.8375,75.06 14.1625,67.94 8,49 19.3675,40.2476 12.4547,47.1508 11.1778,26.6016 28,51 37,61 10,30 17,68 25,45 17,33 15,58 16,58 14,52 19,49 29,51 31,57 5,23 3,38 -8,23 -11,33 -0.6499,23.7776 2.6499,38.2224 13,70 22,120 6,30 -6.1876,49 -13.265,25.735 -34.9052,38.6151 -35.5725,27.2901 -71.062,34.1973 -36.8878,19.4275 -56.4264,68.6654 -13.2676,20.5772 -1.876,22.7884 7.3188,20.7023 15.2739,13.1257 19.3894,7.0848 60.2804,-3.2379 23.265,2.9498 19.3654,13.1786 13.5997,20.7962 43.9091,141.1683 16.0561,34.2495 130.2998,399.4217 47.385,146.4198 13.735,93.6827 53.9226,358.0503 8.3424,90.1045" />
  <path
     style="fill:none;stroke:#ed6f01;stroke-width:5;stroke-linecap:butt;stroke-linejoin:round;stroke-miterlimit:4;stroke-dasharray:none;stroke-opacity:1"
     id="path3786"
     d="m 4450.0001,191.0002 37,35 17,32 45,105 16,65 -8,33 -26,28 -21,25 -17,34 -12,53 -3,41 16,58 12,30 33,52 51,51 48,58 36,53 72,105 10,26 -3,21 -35,107 7,27 100,232 12,12 19,2 114,-30 120,-11 103,1 21,17 3,24 7,41 16,55 47,92 3.8549,40 2.6751,73.9052 9.9574,37.4623 34.5726,68.3501 69.9748,133.5397 12.2902,32.4023 3.675,183.3404 -15.4526,109.5203 -6.5474,99.4797 7,43 11,17 25,7 27,4 23,15 41.94,59.5474 19.06,52.4526 13,13 48,29 30,39 26,54 14,21 38,45 8,38 11,39 18,45 5.2399,13.5416 -0.7002,10.0968 -9.0677,18.5474 -5.213,34.4576 0.8913,25.1418 20.782,62.7816 8.8878,79.7176 -4.6325,75.1005 3.6925,50.8201 18.1199,42.795 43,70 18,64 15.2824,42.795 42.7176,51.205 56,48 57.0626,43.2599 27.3523,24.5197 80.5851,18.2204 16.8915,0.2914 16.1085,-4.2914 30.9575,-18.6325 54.9574,-36.8975 63.0851,-45.47 35,-8 46,-12 32,-41 23,-20 31,-9.325 48,-16.675 74,-29 33,-1 14.0948,-3.06 24.0099,-11.1266 27.8953,-1.8134 85,7 228,-3 39,-7 14,-13 12,-27 4,-23 -4,-28 -21,-53 -5,-17 0.2224,-15.3675 22.2902,-16.9362 39.8414,-25.7176 47.4448,-17.7911 55.9265,1.0426 25.7447,-7.3714 15.53,-9.8588 7,-14 -18.7524,-103.3578" />
  <path
     style="fill:none;stroke:#8cc320;stroke-width:5;stroke-linecap:butt;stroke-linejoin:round;stroke-miterlimit:4;stroke-dasharray:none;stroke-opacity:1"
     id="path3839"
     d="m 3805.6974,3473.2303 114.8472,-75.3926 19.7928,-7.0923 48.1627,-0.2452 73.0899,-3.795 77.9478,-2.7824 100.5106,-9.205 20.5174,-11.5126 10.6548,-25.9574 -3.6828,-51.2051 -15.8104,-23.6093 -24.5454,-18.9246 -12.2909,-28.6354 -7.1474,-54.9556 2.4305,-63.174 16.2399,-52.407 27.3346,-19.0522 107.0966,-25.8757 26.4643,-1.8168 50.7099,14.1354 101.2108,5.7601 56.7698,5.5126 145.5609,12.8375 75.4391,17.1625 113,12 57,17 177,47 43.9052,2.94 33.8627,-8.9574 30.7273,-26.8298 27.8974,-57.2553 10.6074,-11.8975 76,-22 31,3 77,2 46,-14 34.7776,-6.2224 39.5899,-8.0677 29.4352,-6.6751 30.0425,-12 29.6151,-12.2475 35.5397,-17.7873 42.6151,-22.6325 17.795,-11.1451 22.5899,-16.2224 26.53,-21.9652 37.2398,-7.352 47.0677,-23.2302 31.5878,-6.2657 38.2595,0.68 29.027,-7.8863 84.9313,-58.0572 59.2718,-15.1284 44.0851,-18.795 53,-20 40.5725,-11.0425 73.1374,1.0599 61.2901,11.9826 62.9149,23.0774 133.6151,57.8801 102.47,42.0425 117,76 144,92 46.3075,32.2224 21,20.59 9.6325,20.5551 14.06,64.6325 17.53,72.5996 18.53,27.0677 20.9327,7.6233 33.0073,6.7094 92,7 84,-13 21,3 84,35 36,2 116,-21 163,-39 90,-23 30,-17 61,-44 34,-11 48,-3 64,-1 179.118,-12.8124 57.9903,-2.53 53.5919,-13.9226 105.6596,-26.1876 65.4197,-16.1876 54.3772,4.2224 73.4778,22.6151 37.3849,19.0948 23.675,23.0174 21.233,48.2204 37.5697,242.3288 10.2225,41.3618 28.3152,48.9323 22.3501,17.1199 36.3327,7.4023 28.9749,2.7351 79.3075,-33.4101 80.2302,-16.5474 263.5666,-72.4004 120.1644,-47.2224 107.0388,-27.8298 125,-19 61,-10 126,-5 81,-7 29.9999,6 23,13 23,24 64,145 16,20 36,33 144,237 75,123 58,179" />
  <path
     style="fill:none;stroke:#d30069;stroke-width:5;stroke-linecap:butt;stroke-linejoin:round;stroke-miterlimit:4;stroke-dasharray:none;stroke-opacity:1"
     id="path3788"
     d="m 7390.0001,946.0002 110,-11 31,-3 18,9 12,15 16,70 201,407 8,19 -2,18 -4,17 -16,15 -16,6 -85,-1 -23,3 -20,15 -6,15 -4,16 v 136 l -6,105 -6,269 -7,159 -12,82 -17,43 -34,45 -26,34 -33,30 -77,59 -75,54 -118,81 -86,50 -79,33 -134,48 -101,38 -24,11 -8,13 1,17 30,79 16,53 6,39 -2,30 -10,40 -44,95 -52,96 -25,62 -23,34 -68,49 -23,27 -11,21 v 164 l 3,28 18,94 9,55 50,103 18,41 5,29 -16,45 -11,14 -28,6 -54.1708,7.0423 -117.7098,7.3985 -122.7689,3.2204 -21.2846,-5.4668 -80.7483,-57.9478 -50.0032,-15.169" />
  <path
     style="fill:none;stroke:#e70012;stroke-width:5;stroke-linecap:butt;stroke-linejoin:round;stroke-miterlimit:4;stroke-dasharray:none;stroke-opacity:1"
     id="path3860"
     d="m 5433.7699,327.98476 35.2302,118.01544 45.4223,198.64175 16.2527,94.2789 7.53,14.77953 21.795,103.29982 15,168 6,28 12,44 21,60 89,231 43,115 6,31 8,192 3,71 21,125 11,76 8,97 12,55 61,102 19,47 -3.8418,75.1893 5.8418,36.8107 -1.53,56.6847 -6.8549,25.7002 -46.3768,94.4935 -5.4008,12.6767 2.0981,12.4529 14.577,24.3846 13.987,12.7117 16.5004,1.8957 63,28 62,20 56,26 16,16 16,41 12,23 31,51 16,29 4,13 -8,15 -69,32 -69,39 -79,34 -63.4526,35.0677 -93.5474,43.9323 -17.4526,12.8375 -12.8027,15.59 -2.675,12.6499 -0.095,59.9477 -5.0231,13.1879 -40.9518,61.787 -68,105 -23,78 -10,67 -28.9575,311.3675 -3.6924,55.7427 -6.8549,44.7002 -19.5749,35.6802 -35.6781,29.9109 -63.0352,28.6217 -191.207,211.9768 -98,119 -114,132 -21,30 -96,148" />
  <path
     style="fill:none;stroke:#934c9a;stroke-width:5;stroke-linecap:butt;stroke-linejoin:round;stroke-miterlimit:4;stroke-dasharray:none;stroke-opacity:1"
     id="path3862"
     d="m 4924.5001,4655.0002 -30.5,44 -4,26 -2,38 6,22 144,321 95,212 87,248 44,159 28,61 2,15 v 36 l 16,47 78,228 -7,35 -14,12 -659,200" />
  <path
     style="fill:none;stroke:#000000;stroke-width:5;stroke-linecap:butt;stroke-linejoin:round;stroke-miterlimit:4;stroke-dasharray:none;stroke-opacity:1"
     id="path3864"
     d="m 6303.2651,2693.4789 20.7387,14.2497 14.6276,5.8032 15.8426,0.4203 14.7538,-4.3065 23.4947,-10.068" />
  <path
     style="fill:none;stroke:#2cd5c4;stroke-width:5;stroke-linecap:butt;stroke-linejoin:round;stroke-miterlimit:4;stroke-dasharray:none;stroke-opacity:1"
     id="path3771"
     d="m 7183.451,3263.2206 159.5491,14.2796 46.5,19 31,27 23,25.5 20,34 47,213 23,93.5 60,159.5 31.5,59 14.5,38 29,97.5 46.5,170.5 32.5,87.5 20.5,53.5 42.5,146 17.5,85.5 34.5,295.5 2.5,90.5 24,166 52,251 41,143.5 13.5,46 21,37 24.5,22.5 28.5,19.5 39,14.5 190.5,9 159.5,-29 122.5,-40.5 27,-1.5 385,-19 433.5,13 37.5,-9.5 66.5,-35.5 42.5,-9 323,-14.5 130.9999,15.5 195.5,-2 35,15.5 18.5,18.5 14.5,29.5 2.5,22 v 446 l 2,369.5 0.127,66.5452 2.989,30.7468 13.239,34.1631 14.519,22.206 24.341,24.3413 27.331,19.2167 19.217,8.5408 670.878,342.4855 460.348,233.1634 36.726,27.7575 521.415,528.6745" />
  <path
     style="fill:none;stroke:#471f82;stroke-width:5;stroke-linecap:butt;stroke-linejoin:round;stroke-miterlimit:4;stroke-dasharray:none;stroke-opacity:1"
     id="path3792"
     d="m 6794.0001,3120.0002 12.3893,-25.1197 25.6107,-50.8803 23,-51 4,-24 -5,-29 -23.53,-56.3849 -20.94,-19.4101 -48.53,-32.205 -15,-25 -56.7776,-119.1799 -17.5299,-149.3501 -10.3076,-28.205 -9.2224,-25.53 -64.1625,-102.735 -26.5126,-20.7524 -26.3501,-9.5049 -30.2727,-3.5899 -22.1025,3.41 -195.9321,41.443 -31.83,17.9942 -36,32 -32,26 -38,21 -25,17 -42,26 -19,24 -46,28 -33,1 -282,-126 -33,1 -37,11 -22,11 -42,43 -42,51 -41,31 -132,88 -30,33 -17,41 -30,90 1,46 66,159 7,26 -6,59 v 44 l 60,177 9,28 79.5951,123.0106 13.9175,14.0919 34.4951,28.9226 24.6422,3.4024 41.1277,-3.3675 58.2224,-22.06 31,-27 27,-25 113,-50 120,-55 38,-27 26,-18 33,-15 82,-21 36,-12 61,-13 h 41 l 23,-5 17,-9 86,-77 19.325,-18.2824 37.1276,-21.795 20.2824,-13.6499 45.5377,-41.5029 17.4185,-9.5181 23.3339,5.6381 47.9749,29.1102 33,11 45,27 46,15 32,-1 14,-17 21,-47" />
  <path
     style="fill:none;stroke:#fed700;stroke-width:5;stroke-linecap:butt;stroke-linejoin:round;stroke-miterlimit:4;stroke-dasharray:none;stroke-opacity:1"
     id="path3794"
     d="m 5515.0001,4023.0002 46,-32 38,-17 72,-23 37,-18 17,-17 8,-22 -2,-25 -19,-36 -12,-71 -17,-49 -14,-17 -68,-58 -35,-26 -35,-39 -32.5,-32.5 -90,-139.5 -10,-31 -59,-175 -0.5,-49.5 6.5,-54.5 -6.5,-24 -67.5,-160 -1,-47.5 30,-89 18,-44.5 31.5,-34 133.5,-88 41.5,-32 40.5,-50 42,-43 27.5,-13.5 36,-10 h 32.5 l 282,126 31,-1.5 42,-25.5 20,-25.5 43.5,-28 43,-31 10,-22 v -45 l -9,-66 -1,-28 6,-39 -12,-66 1,-38 9,-23 18,-30 13,-48 3,-57 12,-134 12,-75 8,-118 -1,-258 2,-22 11,-18 136,-206 54,-102 22,-54 v -35 l -8,-27 -87,-239 -23,-53 -21,-76 -71,-132 -83,-158 -50,-143 -18.5,-35 -22.5,-23.500003 -22,-10 -23.5,-3 -29.5,8 -114.5,23.500003 -82.6091,18.68694 -27.8602,-3.85726 -46.576,-22.02912 -99.4547,-7.30056" />
  <path
     id="path837"
     d="m 5388.0001,6112.0002 28.4625,73.8247 -2.0789,19.23 -6.7565,27.026 4.6776,22.8681 59.7689,129.9325 41.5784,68.0846 34.3022,92.5119 100.8276,268.1806 103.4262,394.475 34.8219,109.1433 15.5919,72.2424 7.796,18.1906 12.9932,14.0327 15.5919,12.9932 27.026,5.7171 18.1905,-1.5592 81.0779,-22.8681 235.9574,-6.2368 72.7621,-24.947 h 14.5525 l 18.1905,7.7959 16.6314,21.3089 27.0259,112.2617 12.4735,38.9797 19.7498,107.5841"
     style="opacity:1;fill:none;fill-opacity:1;fill-rule:nonzero;stroke:#934c9a;stroke-width:5;stroke-linecap:butt;stroke-linejoin:round;stroke-miterlimit:4;stroke-dasharray:none;stroke-opacity:1" />
  <path
     id="path871"
     d="m 6597.8086,5411.4274 1.5846,22.6613 3.093,66.7323 3.6381,9.3551 15.5919,3.6381 179.3068,-14.0327 8.8354,9.8749 24.4273,91.9922 -0.5197,99.7881 7.796,93.5514 25.4667,172.5503 -4.1578,7.2762 -11.4341,3.6381 -100.3078,-4.6775"
     style="opacity:1;fill:none;fill-opacity:1;fill-rule:nonzero;stroke:#b7b7b7;stroke-width:5;stroke-linecap:butt;stroke-linejoin:round;stroke-miterlimit:4;stroke-dasharray:none;stroke-opacity:1" />
</svg>
