<?xml version="1.0" encoding="UTF-8" standalone="no"?>
<svg
   xmlns:dc="http://purl.org/dc/elements/1.1/"
   xmlns:cc="http://creativecommons.org/ns#"
   xmlns:rdf="http://www.w3.org/1999/02/22-rdf-syntax-ns#"
   xmlns:svg="http://www.w3.org/2000/svg"
   xmlns="http://www.w3.org/2000/svg"
   xmlns:xlink="http://www.w3.org/1999/xlink"
   version="1.1"
   width="7100"
   height="5000"
   viewBox="0 0 7100 5000"
   id="svg2">
  <metadata
     id="metadata37">
    <rdf:RDF>
      <cc:Work
         rdf:about="">
        <dc:format>image/svg+xml</dc:format>
        <dc:type
           rdf:resource="http://purl.org/dc/dcmitype/StillImage" />
        <dc:title></dc:title>
      </cc:Work>
    </rdf:RDF>
  </metadata>
  <defs
     id="defs6" />
  <image
     xlink:href="../../subtimeline/./../streetmap/hkgosm.png"
     id="image12"
     height="8123.5547"
     width="6873.7764"
     y="576.44531"
     x="200.22253"
     style="display:none" />
  <path
     id="path5032"
     d="m 3792.8522,3867.8004 -127.8369,3.6249 -84.5326,14.4084 -173.4096,35.1287 -154.5677,27.7934 -27.549,14.0161 -52.6814,32.1405 -23.1992,13.5329 -15.4661,5.3164 -143.0614,27.549 -149.1029,31.8989 -34.5571,14.4994 -41.3235,25.6158 -21.2658,2.8998 -133.8784,1.6917 -46.8816,-6.7665 -47.365,0.2417 -18.366,5.0748 -17.1577,10.8746 -16.3421,16.7018 -63.5666,67.6677 -15.7208,6.4933 -21.5306,6.1516 -16.4043,2.7341 -24.2646,1.0253 -31.7833,-6.4934 -16.0626,-7.8604 -26.9987,-14.6955 -33.492,-9.5691 -34.8591,-7.5187 -63.9084,-7.8604 -15.0372,-7.8603 -19.1383,-11.6197 -10.2527,-13.3285 -14.6955,-10.2527 -95.3499,-21.8724 -25.2899,-8.2021 -21.1889,-3.4176 -17.7713,1.3671 -58.782,21.1888 -18.4548,1.7088 -77.2368,0.3418 -24.6064,-2.3923 -47.8458,-16.7461 -49.8964,-14.3537 -19.8218,-13.6702 -12.3032,-12.9868 -7.8604,-13.6702 -6.1516,-44.77 -0.8594,-57.1147 -1.2498,-91.9909 -8.827,-30.6579 -21.2885,-27.3063 -28.0323,-30.4488 -23.1991,-21.2659 -21.2659,-14.9828 -40.5986,-15.4661 -21.7492,-4.8332 -17.8827,-10.1496 -69.1141,-75.3973 -103.9129,-111.1626 -159.4942,-130.0119 -184.1432,-159.9775 -88.4468,-59.4478 -88.93,-67.6642 -19.816,-20.7826 -10.6329,-18.366 -65.7309,-141.6115 -8.6997,-12.0828 -15.4661,-11.5996 -33.3488,-16.4328 -11.1163,-8.6996 -9.183,-12.0829 -8.2163,-17.8826 -55.098,-114.5458 -56.0646,-105.8462 -145.478,-279.8398 -56.548,-90.3801 -14.9828,-27.0656 -4.8331,-20.2993 -8.2164,-29.9656 -41.5651,-80.7137 -2.4166,-20.7826 5.7998,-17.3993 22.7158,-32.3822 16.4328,-16.4327 40.1151,-19.816 12.5663,-15.4661 15.4661,-33.8321 16.4327,-51.2314 5.7998,-37.6986 6.7664,-114.0625 8.6997,-38.6652 15.4661,-40.5986 17.3993,-28.0323 102.9463,-173.9936 12.5662,-32.3821 5.3165,-24.1658 2.4165,-29.4823 -4.3498,-29.4822 -6.7664,-30.4489 -23.6825,-50.7482 -5.3165,-26.5823 0.9667,-19.816 7.733,-25.6157 25.1324,-61.8644 20.7826,-37.6986 53.1647,-74.4306 9.6663,-26.5824 11.1163,-32.3821 3.3832,-18.366 1.9333,-32.3822 33.3487,-321.8882 8.2164,-56.0646 11.5996,-35.2821 22.2325,-33.3487 17.3994,-25.6158 7.2497,-28.0323 -0.4833,-25.6157 -42.0485,-155.1443 -14.4994,-16.9161 -82.1637,-16.4327 -11.5996,-8.2164 -10.1496,-19.8159 -4.3498,-26.0991 -0.9667,-26.099"
     style="opacity:1;fill:none;fill-opacity:1;fill-rule:nonzero;stroke:#651438;stroke-width:5;stroke-linecap:butt;stroke-linejoin:round;stroke-miterlimit:4;stroke-dasharray:none;stroke-opacity:1" />
  <path
     id="path4311"
     d="m 4895.0536,3823.577 -55.098,0.9667 -9.183,4.8331 -31.9308,59.0326 -11.278,9.9109 -58.782,25.6317 -25.9734,7.5186 -76.895,14.6955 -16.4043,1.7088 -32.1251,-16.746 -18.7965,-2.7341 -17.7713,-8.2021 -17.0878,-11.6197 -5.8099,-10.5944 -5.4681,-15.0373 -6.8351,-425.8277 -3.4175,-11.6197 -7.8604,-8.2022 -11.6197,-5.468 -27.6822,-0.6836 -87.1478,17.4296 -22.5559,-1.0253 -21.1888,-8.2021 -35.8843,-27.3405 -20.8471,-10.2527 -21.1888,-4.7845 -40.669,-1.3671 -30.0745,6.1516 -49.5546,14.3538 -24.9481,4.1011 -40.3272,1.367 -270.6706,2.734 -25.9735,-3.4175 h -26.3152 l -17.7713,2.3923 -30.4162,10.5944 -112.7794,48.5293 -6.8352,7.5186 -3.7593,11.278 -3.7593,55.0227 8.5439,22.5558 45.1118,42.3778 14.012,18.113 26.9987,39.6437 4.4428,21.8724 v 47.8458 l -5.4681,8.5439 -87.1477,23.5811 -96.3752,32.1251 -29.391,6.8351 -15.0372,16.4043 -8.5439,14.6955 -2.0505,12.6449 14.9877,61.9356 12.3527,47.0845 -5.1263,23.5812 -9.5692,11.6197 -18.4548,9.2274 -34.1756,11.9614 -151.056,33.8339 h -22.2142 l -78.6038,-9.5692 -41.6942,3.4175 -31.4415,11.6197 -56.048,38.2767 -34.1756,21.1889 -34.1755,12.9867 -49.5546,15.0372 -23.9229,-1.7088 -53.9975,-30.0745 -28.3657,-3.4176 -165.7514,2.3924 -72.0506,-17.981 -33.7659,-10.9243 -26.8141,-24.8278 -35.7521,-67.2008 -28.4693,-23.5037 -35.09,-11.9174 -144.6637,3.9725 -30.1245,11.2553 -28.8003,20.1933 -47.6695,46.6764 -25.1589,53.9592 -14.8967,10.5932 -25.821,12.2484 -26.8141,16.2209 -11.9173,13.9036 -29.4624,83.7527 -4.9656,39.3935 -30.7866,87.063 -6.2897,4.9656 -17.545,4.3035 -23.8347,-4.3035 -35.7522,-29.4624 -33.1038,-49.6557 -19.8623,-5.2966 -33.7659,3.9724 -18.5381,-4.3035 -37.4073,-22.1795 -48.0005,-43.366 -113.5461,-109.2426"
     style="opacity:1;fill:none;fill-opacity:1;fill-rule:nonzero;stroke:#86656d;stroke-width:5;stroke-linecap:butt;stroke-linejoin:round;stroke-miterlimit:4;stroke-dasharray:none;stroke-opacity:1" />
  <path
     id="path865"
     d="m 4973.8341,3328.9034 -18.6077,70.5642 -6.2831,11.3578 -47.3649,15.9494 -32.1405,16.1911 -65.006,18.1244 -59.9311,0.4833 -53.1648,16.6744 -29.9655,8.9413 -20.5409,4.3498 -19.816,-0.7249 -47.1233,29.7239 -242.3828,5.5581 -14.4994,5.5581 -14.7411,11.1163 -43.2567,71.2891 -5.5582,18.6076 4.1082,298.2058 -8.2163,16.4327 -14.7412,9.908 -12.5662,14.7411 -14.9828,33.5905 -31.1738,59.2061 -0.2417,30.9322 -3.1415,19.091 -7.7331,17.8827 -8.458,21.5075 -6.7664,6.5248 -10.633,2.4166 -14.0161,-3.6249 -75.8806,-23.9241 -26.824,-14.4995 -13.5328,-1.2083 -269.9319,3.3832 -14.7411,6.2831 -23.4408,44.7067 -9.6663,5.5582 -10.633,1.2083 -14.7411,-4.1082 -177.3768,-103.6712 -20.0576,-17.8827 -12.083,-24.6491 -28.9989,-106.8128 -19.5743,-82.8886 -5.0748,-7.2498 -6.5247,-3.8665 -14.2578,-2.1749 -83.372,17.3994 -67.6642,24.8907 h -17.8827 l -17.3993,-3.8665 -21.0243,-9.4247 -19.3326,-14.9827 -11.5996,-21.2659 -30.9322,-79.2638 v -9.908 l 1.2083,-67.9058 -3.6249,-12.3246 -9.183,-8.458 -15.4661,-5.7998 -120.8289,-22.7158 -54.373,-10.8746 -127.112,-41.3235 -163.119,-103.4296 -36.4903,-12.3245 -92.3133,-23.6825 -89.4134,-2.8999 -9.6663,-3.8665 -9.183,-10.1496 -3.1415,-13.2912 -4.5915,-114.3042 9.4246,-119.1373 5.3165,-14.4995 11.8412,-20.2992 23.4408,-20.0576 65.2476,-53.4064 10.633,-8.2164 35.282,-9.9079"
     style="opacity:1;fill:none;fill-opacity:1;fill-rule:nonzero;stroke:#003892;stroke-width:5;stroke-linecap:butt;stroke-linejoin:round;stroke-miterlimit:4;stroke-dasharray:none;stroke-opacity:1" />
  <path
     id="path852"
     d="m 5213.0498,8475.1136 13.3285,20.8471 11.2779,9.2274 19.8219,5.4681 10.9361,1.367 18.7966,-1.367 12.9867,-6.4933 13.3285,-15.7208 20.1636,-20.5054 8.8857,-14.3537 21.5306,-12.9867 18.4548,-20.1636 16.0625,-12.3032 18.7966,-4.7846 37.2514,-1.0253 68.0094,-14.3537 36.5678,2.734 14.6955,-5.4681 20.5054,-14.0119 12.6449,-15.0373 5.4681,-14.3537 -0.3417,-16.4043 -8.2022,-16.4043 -187.2821,-306.2132 -1.7088,-22.5559 7.5186,-15.7207 44.5116,-51.1365"
     style="opacity:1;fill:none;fill-opacity:1;fill-rule:nonzero;stroke:#ccce08;stroke-width:5;stroke-linecap:butt;stroke-linejoin:round;stroke-miterlimit:4;stroke-dasharray:none;stroke-opacity:1" />
  <path
     d="m 5351.9992,7843.5006 -16.5,-9.25 -12.25,-10.25 -10.5,-17 -16.8511,-34.9747 -7.8258,-26.3325 -3.0252,-44.1675 16.4521,-44.7753 18.9109,-27.0412 17.617,-22.9907 28.8232,-43.3763 9.3989,-19.8418 21.25,-49.75 6.5,-19.75 -1,-19.5 -0.25,-28.25 -2.5,-23.5 -8,-21 -15.25,-39.5 -21.5,-48.75 -19,-31 -21.9138,-27.8902 -32.5862,-37.6098 -35.5,-29 -52.75,-27.5 -140.75,-60.75 -28.5,-17.5 -24.5,-19 -16.25,-19 -13,-26.25 -31,-54 -11.25,-18.25 -15.25,-23.5 -18.5,-26.75 -14.25,-22.5 -15,-28.25 -6.75,-10.25 -8.3286,-11.1245 -72.4214,-40.8755 -50.5,-26.25 -49.5,-16.75 -37,-15.25 -30.5,-7 -47.75,-7.5 -32.25,-0.5 -24,2 -21.25,5.25 -120,42 -74.9999,25 -40.25,9.5 -121.25,36 -61,23 -85,26.5 -44.25,19.25 -32.25,23.5 -61,44 -22,12.5 -23.75,6 -45.5,3.5 -37.5,11.75 -46.5,16 -26.25,15 -38.5,25 -35.75,19.25 -35.0334,29.4631 -51.2535,47.3036 -31.9631,39.7333 -13.75,11 -47.25,22.75 -41,2.5 -42.75,-2.25 -34.25,3.75 -49,17 -35.5,14.75 -99.75,58 -18.25,18 -14,30.5 -20.75,26.75 -27,27.25 -65.5,46.25 -152.5,90.25 -98.5,58 -31.5,12 -96.4999,24.25 -34.25,5 -12,6.75 -41.25,20.75 -38.5,26.5 -11.25,14.25 -15.5,17 -25.25,16.5 -22,10.25 -22.5,6.5 -32.9122,-4.5264 -41.3099,-14.7287 -28.4015,-25.3341 -39.4141,-54.5784 -12.8134,-56.5463 1.0271,-40.4919 25.803,-72.7188 5.1829,-37.5957 -3.034,-36.7687 -32.2838,-101.0813 4.5418,-17.748 14.0947,-17.1417 19.0194,-7.24 64,-17.5"
     id="path4516"
     style="fill:none;stroke:#028685;stroke-width:5;stroke-linecap:butt;stroke-linejoin:round;stroke-miterlimit:4;stroke-dasharray:none;stroke-opacity:1" />
  <path
     style="fill:none;stroke:#dab006;stroke-width:1;stroke-linecap:butt;stroke-linejoin:round;stroke-miterlimit:4;stroke-dasharray:none;stroke-opacity:1"
     d="m 3600.7766,5358.5498 -19.5574,-3.8716 -11.3137,2.8285 -17.6776,14.8492 -152.7351,-0.7071 -48.7289,8.8833 -27.8609,0.1912 -31.3559,7.1361 -36.7752,15.4147 -48.3957,30.9654 -49.421,32.8687 -54.1084,38.6561 -42.7653,35.5901 -35.5957,24.5264 -44.7109,39.9002 -33.1486,36.7369 -48.4722,57.9356 -29.3332,31.867"
     id="path871" />
  <path
     style="fill:none;stroke:#dab006;stroke-width:5;stroke-linecap:butt;stroke-linejoin:round;stroke-miterlimit:4;stroke-dasharray:none;stroke-opacity:1"
     d="m 2868.8209,5732.3205 -13.6972,14.3236 -29.9839,46.3403 -24.6942,44.3947 -3.2076,10.3707 -50.4992,168.4565 -7.731,24.0709 -20.4588,40.5997 -17.6777,62.9325 3.7536,5.8042 12.6045,3.2386 11.9262,-0.5575 31.8198,-10.6066 16.2634,-7.7782 3.5356,-8.4853 -5.6276,-31.0834 3.9952,-27.6422"
     id="path859" />
  <path
     style="fill:none;stroke:#dab006;stroke-width:1;stroke-linecap:butt;stroke-linejoin:round;stroke-miterlimit:4;stroke-dasharray:none;stroke-opacity:1"
     d="m 2779.142,6066.699 9.216,-25.8562 13.0321,-25.7289"
     id="path857" />
  <path
     style="fill:none;stroke:#dab006;stroke-width:5;stroke-linecap:butt;stroke-linejoin:round;stroke-miterlimit:4;stroke-dasharray:none;stroke-opacity:1"
     d="m 2801.3901,6015.1139 4.7929,-12.2189 0.2946,-11.4024 -12.9643,-21.9847 -0.1583,-12.6749 2.6104,-17.6134 -18.0195,-16.7346 -2.1213,-7.7782"
     id="path3618" />
  <path
     style="fill:none;stroke:#dab006;stroke-width:1;stroke-linecap:butt;stroke-linejoin:round;stroke-miterlimit:4;stroke-dasharray:none;stroke-opacity:1"
     d="m 3081.5363,5020.4169 -13.4293,27.1589 -7.242,27.43 -5.0262,23.5232 -4.4608,12.946 1.6585,17.2107 10.2867,20.9509 5.7217,0.5351 52.9722,-26.8278 4.8034,1.501 11.7498,21.944 20.5061,19.7989 15.4327,12.6515 5.7097,7.8489 2.052,10.8552 -8.3452,23.7988 4.2427,18.3847 17.0942,32.5506 -0.5856,8.4981 -11.3697,7.5219 -25.1692,26.8749 -0.3625,14.6203 16.6863,31.0147 5.2199,16.5356 -5.5923,13.9654 -2.6089,14.1811 -14.5963,40.4531 0.071,20.7656"
     id="path875" />
  <path
     d="m 5675.4993,7546.0003 -1.5,28.5 -3,19 -5.5,13 -29.5,22.5 -39.5,32.5 -19,9 -12,3 -19,1 -26,0.5 -12,-2.5 -4.5,-6 -8.5,-47 -12,-37 -9,-26.5 -32.7929,-87.1213 -36.7071,-79.8787 -16,-42 -8.5,-19.5 -17.5,-41 -19.5,-31 -26.5,-33.5 -33,-36.5 -34,-26.5 -57.5,-29.5 -89,-38.5 -36.5,-17 -14.5,-9 -10.5,-13.5 -3.5,-12.5 -3,-21 -5.5,-43.5 -5,-20 -15.5,-31.5 -13.5,-27 -21.5,-34.5 -17.5,-36 -27.5,-42.5 -11,-15 -26,-26.5 -23.5,-27 -30.5,-20 -37,-18.5 -20,-15.5 -41.5,-42.5 -26.5,-25 -37.5,-30.5 -16,-17 -26.5,-26 -64.7979,-80.1516 -87.2473,-109.633 -68.1011,-93.0691 -122.3536,-159.6462 -44.734,-55.2792 -44.7341,-55.3165 -81.1011,-118.7208 -16.4308,-34.8484 -18,-41.8351 -22,-93 -17,-79 -12,-26 -22,-36 -36,-42 -39,-60 -26,-51 -16,-13 -22,-13 -85.4308,-22.7208 -104.0766,10.9402 -91.4926,0.7806 -33,-2 -47,-19 -77,-1 -36,-4 -53,-17 -66,-26 -38,-9 -29,3 -29,19 -40,43 -29,31 -19,10 -67,36 -31,29 -31,48 -140,310 -23,41 -38,126 -23,76 -14,29 -18,71"
     id="path3600"
     style="fill:none;stroke:#ab118e;stroke-width:5;stroke-linecap:butt;stroke-linejoin:round;stroke-miterlimit:4;stroke-dasharray:none;stroke-opacity:1" />
  <path
     d="m 5340.4993,7873.3 7.25,1.9502 54,15.75 21.5213,13.1906 14.9787,8.3094 12,2.75 19.5,-0.5 15,-3.5 16.6769,-12.3258 11.1555,-12.4893 23.0945,-58.1223 7.9681,-32.7048 4.355,-94.6077 -1,-24 -1.7818,-43.0353 -5.7387,-102.8069 -8.6259,-94.6032 -4.8536,-21.0546 -23,-119.5 -14,-81.5 -7,-27 -7,-10 -119,-97.5 -68,-61.5 -22,-8 -19,-1 -25.5,10.5 -48,18.5 h -24.5 l -63,-19 -63,-34.5 -25.5,-18 -27,-27.5 -39.5,-34.5 -34.5,-44 -25.5,-46 -1,-12 5.5,-25.5 10.5,-19 35.5,-47 25.5,-27 9.5,-13.5 3.5,-22.5 3,-37.5 0.5,-32 -1,-27 -5.5,-12 -20,-18 -27,-13.5 -19,-2.5 -32,1 -16.5,-3.5 -30,-14 -16.5,-15 -34.5,-15.5"
     id="path3592"
     style="fill:none;stroke:#ee2722;stroke-width:5;stroke-linecap:butt;stroke-linejoin:round;stroke-miterlimit:4;stroke-dasharray:none;stroke-opacity:1" />
  <path
     d="m 6696.9992,7520.0003 -8.5,7 -17,17 -21.5,33 -17,24.5 -44.5,39.5 -18,12.5 -37.5,13 -16,4 -14,-2.5 -8.5,-5 -6,-9 -17,-24 -10.5,-15.5 -12,-21 -3,-23.5 -5.5,-20 -10,-26 -19.5,-28 -28,-40 -5.5,-4.5 -56.5,-41 -25,-12.5 -52,-22 -16,-9.5 -15.5,-7.5 -27,-10 -17.5,-9 -12,-11 -12,-24 -5,-25 2.5,-36 -9.5,-84 -8.5,-27.5 -14,-27 -14.5,-23.5 -18.5,-21.5 -25,-22 -84.4999,-57.5 -42.5,-23 -21,-3.5 -61.5,1.5 -16,3.5 -12.5,10.5 -15.5,20 -18,11 -17.5,8 -74.5,23 -16,3 -26,-1 -68,-1.5 -27.5,-2 -19.5,5.5 -16,9 -9.5,12 -6.5,17 -5.5,47 -5.5,39.5 0.5,23 5.7071,32.2929 12.1464,73.2677 18.2072,93.2072 3.1893,17.1967 7.6976,35.6884 4.1082,23.6825 6.0414,11.3579 8.6997,7.7331 15.9494,6.5247 11.1163,1.2083 12.8078,-2.8999 11.8413,-6.5247 13.2912,-16.9161 7.2497,-9.6663 6.5247,-5.3165 10.8747,-6.2831 13.0495,-1.9332 9.9079,1.6916 26.0991,14.2578 106.0878,71.5307"
     id="path3594"
     style="fill:none;stroke:#33b652;stroke-width:5;stroke-linecap:butt;stroke-linejoin:round;stroke-miterlimit:4;stroke-dasharray:none;stroke-opacity:1" />
  <path
     d="m 6828.9605,7465.3919 16.2634,-14.1421 7.0711,-12.0209 13.435,-29.6984 1.4143,-18.3848 -2.1214,-22.6274 -8.4852,-12.0209 -19.799,-21.2132 -32.527,-24.7487 -12.7279,-15.5563 -12.7279,-17.6777 -26.1629,-43.1335"
     id="path3598"
     style="fill:none;stroke:#915fb6;stroke-width:5;stroke-linecap:butt;stroke-linejoin:round;stroke-miterlimit:4;stroke-dasharray:none;stroke-opacity:1" />
  <path
     d="m 5679.9121,7562.9726 0.5872,-25.4723 0.5,-22.5 -1.5,-24 -7,-15 -21.5,-20.5 -33.5,-35 -19,-22 -10.5,-18 -34.5,-97 -2.5,-23.5 2.5,-21 13.5,-28 38,-82.5 6,-24 1,-29.5 -2.5,-16 -13.5,-37 -21,-36.5 -5,-19.5 -56,-305 v -23 l 4,-21.5 12.5,-25.5 31.5,-59 14,-14 99,-79.5 19,-17.5 36.5,-48 31,-48.5 16,-24.5 97,-103.5 45,-70.4999 47,-73 23.4999,-36.5 9,-9 35,-22 31,-21 21.5,-15.5 12.5,-19.5 1.5,-13 -4,-20.5 -13,-27.5 -0.5,-22 7,-17.5 22.5,-18.5 12.5,-17 4.5,-17.5 v -19 l -3,-21.5 -9,-18.5 -14.5,-18 -14.5,-12.5 -121.4999,-86.5 -12.5,-17 -8.5,-22 -5,-25 -9,-17 -15,-17 -20.5,-11 -101.3288,-11.8714 -17.1712,-6.1286 -24.5,-12.5 -34,-20.5 -72,-44 -15,-5.5 -20.5,-8.5 -39.5,-9.5 -20.5,-0.5 -62,-2.5 -14,-5 -10,-5 -12.5,-9 -10.5,-9 -71.5,-88.5 -12.5,-8 -16,-9 -49,-20.5 -13,-8.5 -13,-13.5 -14,-16.5 -8,-20.5 -4.5,-23.5 0.5,-16.5 5.5,-34 18,-67 10,-36.5 14.5,-81 11,-61 1,-26.5 -5,-23.5 -9,-24 -13,-20.5 -20.5,-20 -15.5,-10.5 -16,-6 -20,-6.5 -68,-10.5 -17.5,-9 -23,-16 -88.5,-80.5 -107.5,-99.4999 -105,-97 -28,-31.5 -11.5,-25.5 -7,-28 2.5,-28.5 2.5,-50 -2,-27.5 -11.5,-30.5 -19,-38 -12.5,-30.5 -3.5,-25.5"
     id="path3602"
     style="fill:none;stroke:#6ac2ee;stroke-width:5;stroke-linecap:butt;stroke-linejoin:round;stroke-miterlimit:4;stroke-dasharray:none;stroke-opacity:1" />
  <path
     d="m 4844.9993,4434.0005 -35.5,-23 -25.5,-7.5 -37,-5 -265.5,3.5 -17,5.5 -193.4999,46 -20.5,0.5 -15,-1.5 -13,-6 -18.5,-17.5 -17.5,-27.5 -12.5,-30 -4.5,-16.5 -4,-33.5 -11.5,-17 -13.5,-6.5 -22,-3.5 -22.5,-1 h -50 l -22,1.1001"
     id="path3604"
     style="fill:none;stroke:#6ac2ee;stroke-width:5;stroke-linecap:butt;stroke-linejoin:round;stroke-miterlimit:4;stroke-dasharray:none;stroke-opacity:1" />
  <path
     d="m 5354.4993,7839.0003 -16.5,-9 -11.5,-10 -8.8165,-14.1077 -16.7593,-34.3165 -7.7593,-26.8989 -3.367,-40.7593 16.5186,-45 14.6516,-21.399 21.1516,-28.0505 29.6396,-44.9681 9.2407,-20 21.5,-49.5 6,-23 -0.5,-20 -0.5,-27.5 -3,-24.5 -9.5,-23.5 -14.5,-38 -20.5,-48 -20,-31 -22.4138,-29.3902 -32.0862,-37.1098 -36,-29 -52.5,-27 -143,-63 -27,-16.5 -25,-19 -15,-18.5 -12,-23.5 -32.5,-58 -11.5,-18 -15,-22.5 -18.5,-27.5 -14.5,-23 -14.5,-27.5 -7.5,-11 -7.5786,-9.8745 -75.4214,-42.1255 -49.5,-25.5 -50.5,-18 -37,-14.5 -30.5,-7 -49,-7.5 -32,-0.5 -25,2.5 -21.5,5.5 -121,42.5 -76.9999,25.5 -38,8.5 -118.5,36 -63,22.5 -86,27 -45,20 -32,23.5 -61,45 -21.5,11 -23.5,5.5 -44.5,3.5 -39.5,12.5 -45,15.5 -32,19 -35.5,22.5 -33.5,18.5 -37.5,31.5 -49,46.5 -35,42 -12.5,8.5 -44,21 -44,3.5 -38,-4 -36,4 -49.5,17.5 -34.5,14.5 -101.5,59 -19.5,19.5 -13.5,29 -21,27.5 -28,27.5 -65,46 -150.5,88.5 -100.5,59.5 -29,11 -98.4999,24.5 -31.5,5 -12,6 -42.5,21.5 -40,27.5 -13.5,17 -13.5,14 -26,17 -19.5,9 -20,10.5 -53.5,9.5 -29.5,-1.5"
     id="path3606"
     style="fill:none;stroke:#f68b11;stroke-width:5;stroke-linecap:butt;stroke-linejoin:round;stroke-miterlimit:4;stroke-dasharray:none;stroke-opacity:1" />
  <path
     d="m 5621.4293,6488.3774 16.4706,-13.6421 46.2548,-12.7279 28.9914,-14.8493 19.799,-1.4142 57.9827,3.5355 47.3762,-14.8492 76.3675,-59.397 18.3848,-12.0208 36.7695,-18.3848 101.8233,-112.4299 9.1924,-14.8493 v -16.2634 l -4.2426,-19.7989 -2.8285,-24.0417 12.0209,-47.3761 21.9203,-37.4767 16.2634,-18.3847 33.234,-32.527 42.4265,-25.4558 19.0918,-13.435 14.8493,-11.3137 26.87,-38.1838 19.0919,-38.1838 9.1924,-53.7401 43.8406,-130.8147 12.7279,-15.5564 17.6777,-5.6568 62.2254,-23.3346 29.6985,-3.5355 33.9411,-7.0711 23.3345,-16.9705 25.4559,-21.2132 12.0208,-3.5356 31.8198,-4.2426"
     id="path3614"
     style="fill:none;stroke:#a73e10;stroke-width:5;stroke-linecap:butt;stroke-linejoin:round;stroke-miterlimit:4;stroke-dasharray:none;stroke-opacity:1" />
  <path
     style="fill:none;stroke:#dab006;stroke-width:1;stroke-linecap:butt;stroke-linejoin:round;stroke-miterlimit:4;stroke-dasharray:none;stroke-opacity:1"
     d="m 2739.8115,6310.8745 -3.8223,4.6052 -52.0885,-1.9648 -6.3639,2.1214 -4.2427,45.2548 -9.1924,10.6066 -24.7487,16.2635 -10.2798,7.5816 -8.4306,23.9542 0.1514,8.702 4.417,12.7952 16.2633,31.1127 3.665,9.4812 -6.0523,6.9645 -28.4759,-7.8763"
     id="path867" />
  <path
     style="fill:none;stroke:#dab006;stroke-width:1;stroke-linecap:butt;stroke-linejoin:round;stroke-miterlimit:4;stroke-dasharray:none;stroke-opacity:1"
     d="m 2622.9143,6476.3752 -62.9102,-15.7649 -26.3337,-31.1771 -2.8118,-8.2889 5.964,-8.6344 14.1422,-19.799 11.3137,-21.2132 9.8702,-17.6605 2.2153,-19.4627 21.8556,-43.487 21.9203,-57.9827 15.2382,-43.8878 -1.2638,-58.7078"
     id="path853" />
  <path
     style="fill:none;stroke:#dab006;stroke-width:5;stroke-linecap:butt;stroke-linejoin:round;stroke-miterlimit:4;stroke-dasharray:none;stroke-opacity:1"
     d="m 2634.7479,6133.4759 13.0904,-0.2731 55.1543,12.0208"
     id="path3624" />
  <path
     style="fill:none;stroke:#dab006;stroke-width:5;stroke-linecap:butt;stroke-linejoin:round;stroke-miterlimit:4;stroke-dasharray:none;stroke-opacity:1"
     d="m 2734.8124,6150.8805 6.364,13.435 v 63.6395"
     id="path849" />
  <path
     style="fill:none;stroke:#dab006;stroke-width:1;stroke-linecap:butt;stroke-linejoin:round;stroke-miterlimit:4;stroke-dasharray:none;stroke-opacity:1"
     d="m 2741.1764,6227.955 -0.7428,66.6876 -0.6221,16.2319 -0.4067,12.5893 5.318,5.8776 5.9779,1.4887 17.2879,-8.852"
     id="path3620" />
  <path
     d="m 2634.7479,6133.4759 -2.6336,-3.1667 -1.8864,-33.1688 0.5863,-33.2341 4.1489,-14.2136 2.8174,-24.9416 -8.809,-22.8253 -16.2289,-14.6344 -22.1799,-8.945 -14.8492,-7.7781 -4.2426,-10.6066 10.6066,-14.1422 12.0208,-9.1924 14.8492,-0.7071 44.5476,16.2635 9.8995,3.5355 22.6275,-6.364 34.6482,-9.8994 23.3345,-13.4351 11.3137,-17.6776 4.4608,-9.072 -0.2417,-27.8921 3.7715,-4.6698 20.6679,5.2297 2.7776,6.9418"
     id="path3626"
     style="fill:none;stroke:#dab006;stroke-width:1;stroke-linecap:butt;stroke-linejoin:round;stroke-miterlimit:4;stroke-dasharray:none;stroke-opacity:1" />
  <path
     d="m 2741.1764,6227.955 -3.8266,4.1891 -23.1958,0.2774 -4.1575,3.7414 -0.1566,23.1465 3.7236,2.9492 h 23.6297 l 4.207,-4.1039"
     id="path3622"
     style="fill:none;stroke:#dab006;stroke-width:1;stroke-linecap:butt;stroke-linejoin:round;stroke-miterlimit:4;stroke-dasharray:none;stroke-opacity:1" />
  <path
     d="m 2755.3185,5908.3429 4.0349,-0.7789 13.9057,5.4743 5.5941,-3.0689"
     id="path3628"
     style="fill:none;stroke:#dab006;stroke-width:1;stroke-linecap:butt;stroke-linejoin:round;stroke-miterlimit:4;stroke-dasharray:none;stroke-opacity:1" />
  <path
     style="fill:none;stroke:#dab006;stroke-width:1;stroke-linecap:butt;stroke-linejoin:round;stroke-miterlimit:4;stroke-dasharray:none;stroke-opacity:1"
     d="m 2612.7426,5987.2914 20.3421,3.2719 14.7622,-2.3546 11.0105,-5.6196 5.518,-0.041 27.3035,33.2749 19.9069,0.7512"
     id="path863" />
  <path
     style="fill:none;stroke:#dab006;stroke-width:5;stroke-linecap:butt;stroke-linejoin:round;stroke-miterlimit:4;stroke-dasharray:none;stroke-opacity:1"
     d="m 2711.5858,6016.5743 17.5698,0.663 14.8492,4.9497"
     id="path3630" />
  <path
     d="m 2630.8142,6063.9063 -6.8303,2.0727 -3.0156,7.8268 1.9977,9.4991 -9.3633,25.5381 1.5851,9.7815 16.1413,0.2975"
     id="path3632"
     style="fill:none;stroke:#dab006;stroke-width:1;stroke-linecap:butt;stroke-linejoin:round;stroke-miterlimit:4;stroke-dasharray:none;stroke-opacity:1" />
  <path
     d="m 5233.7277,8036.7341 22.6274,5.6568 24.0416,1.4142 6.364,-2.1213 9.8995,-10.6066 33.234,-53.033 10.6066,-14.1421 7.0711,-8.4853 11.3137,-16.9706"
     id="path3611"
     style="fill:none;stroke:#9f5443;stroke-width:5;stroke-linecap:butt;stroke-linejoin:round;stroke-miterlimit:4;stroke-dasharray:none;stroke-opacity:1" />
  <path
     d="m 6983.9992,945.5006 -57,30.5 -100.5,67.5 -130,74 -25,9.5 -42.5,13 -28,11 -175.5,174 -21,31.5 -52.5,94 -61,94.5 -12.5,24 -6.5,46.5 -13.5,100.5 -16,47.5 -69,121.5 -15.5,72.9999 -34.5,77.5 -18,31 -41,40 -32,42 -22,31 -111.9999,96 -25,11 -43.5,13 -50.5,26 -126.5,63.5001 -25,11 -31.5,7 -102.5,17.5 -74.5,27 -51.5,34.5 -44,49 -30,49.5 -17,17 -30,14 -101.5,16.5 -51,1.5 -29,6 -24.5,16.5 -32.5,43 -64.5,81 -81,61.5 -84.5,43.9999 -22,19.5 -27.5,42 -31,36 -39.5,83.5 -10,37 1.5,27.5 34.5,54 20,34 16.5,25 10.5,46 13,24.5 33,22 50,-0.5 26,4 6.5,11 14,93 7,33.5 14.5,25 24.5,28 8,18.5 -1.5,17.5 -5,13 -55,34 -59,37 -53.5,95 -11.5,33.5 -13,16.5 -19,4 h -10 l -19.5,-4 -31.5,-13.5 -84.5,-55 -26,-6.5 h -23.5 l -342.9999,5.5 -43.5,6.5 -78,0.5 -64.5,-5 -145,3 -37,16.5 -16,12.5 -9.5,12 -5.5,13 9.5,360.5 -11,29.5 -15,25.5 -8,23"
     id="path3617"
     style="fill:none;stroke:#00a6df;stroke-width:5;stroke-linecap:butt;stroke-linejoin:round;stroke-miterlimit:4;stroke-dasharray:none;stroke-opacity:1" />
  <path
     d="m 4935.4993,3766.0005 85.5,-14.5 15,-5.5 20.5,-26.5 14.5,-28.5 -1,-17 -70,-76.5 -55.5,-71 -5.5,-28.5 7.5,-44 31,-122.5 10,-93.5 -1.5,-57 2.5,-26.5 -11,-27 -105.5,-111.5 -159.5,-138.5 -86.5,-77.9999 -8,-21 -23.5,-73 -12,-64.5 -18.5,-24 -27.5,-14.5 -341.4999,-69 -126,-24 -31,1.5 -78.5,13.5 -55.5,0.5 -42,-3.5 -29,6.5 -288,171 -145.5,127.5 -30.5,19.4999 -36.9838,14.3837 -125.2767,31.4749 -15.0554,16.242 -26.317,51.2492 -39.3671,57.6502 -32.5,37.5 -29,17 -243.5,101 -53.5,5.5 -57.5,2.5 -24.5,7.5 -35.5,18 -27.9999,2.5 -65.5,-5 -79,25 -119.5,3.5 -223.5,3.5 -58,-17 -45,-2 -38,-10 -57,-9 -30.5,0.5 -20,4.5 -488.5001,454.5 -0.5,98.5 5,12 26.4307,18.2525 36.1983,5.4336 32.4877,15.2252 36.5842,20.1456 34.514,30.0746 8.7309,14.5862 0.7378,34.7504 1.3288,99.0512 0.7022,34.3075 -5.2966,47.6695 -18.5382,35.4211 -22.8416,32.4417 -45.3522,49.6558 -48.3316,45.0211 -11.5863,13.2416 -6.2897,15.2277 -1.3242,14.8967 2.3173,21.5175 6.9518,21.1865 6.9518,13.2415 72.4973,72.1663 7.6139,12.9105 57.9317,128.7738 5.2966,23.5037 v 16.5519 l -18.8692,60.249 -12.5794,30.4555 -6.6208,28.1382 -1.3242,19.5313 1.6552,14.5657 2.669,7.864 11.0109,15.4193 21.3936,16.2106"
     id="path4461"
     style="fill:none;stroke:#96499a;stroke-width:5;stroke-linecap:butt;stroke-linejoin:round;stroke-miterlimit:4;stroke-dasharray:none;stroke-opacity:1" />
  <path
     d="m 4011.3649,4239.1168 -39.999,-35.1658 -12.3164,-16.2169 -15.4828,-62.2669 -22.0673,-89.9667 -5.6253,-7.4109 -11.6235,-15.6494 -6.9681,-11.6227 -5.8165,-18.6997 -1.0616,-156.2665 -5.1123,-99.2148 -11.7927,-112.136 -7.5,-95 -1.5,-173.5 -9,-43 -71,-172.5 -49.5,-75.5 -88,-121.5 -86,-77 -27.5,-29.4999 -51.5,-22.5 -30.5,-29.5 -30.5,-35.5 -25.5,-52.5 -25,-61 -177,-258 -39,-63.5001 1.5,-23.5 14.5,-17 346,-260 12.5,-19.5 17.5,-44"
     id="path3608"
     style="fill:none;stroke:#da251e;stroke-width:5;stroke-linecap:butt;stroke-linejoin:round;stroke-miterlimit:4;stroke-dasharray:none;stroke-opacity:1" />
  <path
     d="m 4706.4993,4013.0005 -1.5178,-20.7094 10.5178,-26.2906 -3.5,-38 -2,-51.5 1.5,-61.5 -6.5,-10 -21.5,-4 -25.5,-9.5 -55.5,17.5 -33.5,17 -19,15 -36,9 -388.4999,9.5 -15.5066,7.9242 -14.6077,21.5692 -9.387,13.1209 -36.9987,18.8857 -31.9525,17.733 -24.0475,2.267 -285,4.5 -21,-6 -18,-13.5 -33.5,-26.5 -22,-18 -14.5,-3 -19,2.5 -173,35 -388.5001,70.5 -35,-6.5 -68.5,-21 h -125 l -91,-34 -158.9999,-67 -22,-7 -264.4063,9.4631 -23.5937,18.5369 -47.4999,60 -14.5,15.5 -27,9 -90,9.5 -198,-0.5 -36,4.5 -124,1.5 -58,-2 -16,-7 -18,-19 -18,-30 -2.5858,-108.2323 -9.44,-25.2841 -32.9742,-36.4836 -29,-30 -185.0001,-190 -162,-139.5 -119.5,-107 -69.9999,-63.5 -9,-20.5 -2,-27.5 -4.5,-50.5 -12,-27.5 -29.5,-36 -75,-157 -107,-247.4999 -26.5,-120.5 -28.5,-54.5 -26.5,-36.5 -48,-47 -28.5,-50.0001 -21,-31.5 -60,-116"
     id="path3610"
     style="fill:none;stroke:#13ae58;stroke-width:5;stroke-linecap:butt;stroke-linejoin:round;stroke-miterlimit:4;stroke-dasharray:none;stroke-opacity:1" />
  <path
     d="m 1557.9995,4787.0003 107.5,80.5 25.4931,9.2991 14.5856,2.245 18.4213,-11.0441 60,-49 12,-72 16,-31 18.5,-41.9999 21,-14.5 48.6517,-10.0524 66.4862,8.623 82.596,29.1954 51.266,1.734 33,-6 20.5,-9.5 8,-10 3,-20 -21.5914,-110.9861 -3.9086,-61.5138 -1,-152 69,-230.5 10.5,-17.5 15,-10 15,-3 125,-3 27,5 48,10 37,16 136.5339,-1.0334 12.6047,-10.9869 5.3253,-16.4845 2.9439,-89.8918 12.6922,-38.6034 9.8999,-28 14.0001,-31 12.5,-52 32.5,-58.5 11,-11.5 21,-5 35,2 25.5,5.5 53.5,44 39,37 10.5,1.5 13.5,-3.5 94.5,-88.5 29.5,-15 27.5,-3 123.5,-2.5 13.5,-6.5 37,-21 37.5,-23 19.5,-6 125,-2.5 77.5,-16.5 36,-1.5 35.5,9.5 21,6 50,-6 34.5,-3.5 30.416,2.5834 11.5334,7.2169 8.0202,14.0975 -1.3068,51.6284 -11.813,47.9394 -3.5495,41.5344 4.5834,25.5167 20.1163,15.9833 12.5,8 48.5,-2 21.0825,-3.9056 36.0625,-6.7912 25.9055,-0.1582 21.2407,3.4055 18.7088,1.9495 76,-5.5 68,-2 34.0944,-5.6582 23.1264,-14.3671 14.234,-16.3165 13.8803,-13.2912 13.6649,-4.367 202.4999,-6.5 20.5,2.5 23,11 36,21.5 28.5,12 28.5,1 53,-1.5 19,-1 225.5,-40.5 154.5,-28 55.5,-8.5 108,-13.5 21.5,-2.5"
     id="path3612"
     style="fill:none;stroke:#b34e20;stroke-width:5;stroke-linecap:butt;stroke-linejoin:round;stroke-miterlimit:4;stroke-dasharray:none;stroke-opacity:1" />
  <path
     d="m 5940.9993,7738.0003 20,-5 23.9999,8 19.5,17.5 19.5,13 17.749,3.5774 19.502,0.8452 12.749,2.0774 8.5,-3 55,-29.5 183,-100.5 82.5,-48.5 16,-7 15,1 11,6 8,14.5 34,49.75 3.5,5.25 9,5.5 16.5,4 18.1058,-4.2333 39.2478,-13.1203 20.3639,-15.0104 41.4965,-36.6766 39.9516,-59.7505 17.3241,-17.3241 18.3848,-13.7886 53.033,-22.981 91.2167,-36.416 14.1422,-7.0711 28.9914,-4.9497 25.4558,2.8284 23.3345,20.5061 41.7193,48.7904 6.364,22.6274 2.8284,25.4558 -2.8284,21.9203 -9.1924,18.3848 -6.364,12.7279 -16.2634,14.1422 -57.9828,44.5477"
     id="path3596"
     style="fill:none;stroke:#915fb6;stroke-width:5;stroke-linecap:butt;stroke-linejoin:round;stroke-miterlimit:4;stroke-dasharray:none;stroke-opacity:1" />
  <path
     style="fill:none;stroke:#de6dbd;stroke-width:5;stroke-linecap:butt;stroke-linejoin:round;stroke-miterlimit:4;stroke-dasharray:none;stroke-opacity:1"
     id="path3616"
     d="m 3522.2493,7101.0006 9.5,-8.75 5.75,-4.75 14,0.5 16.5,7.5 12,9.5 7,15 2.5,13 0.5,27 -6,36.5 0.5,21.5 4.5,20 18.5,56 8.5,16 13,8 30.5,9.5 42,9.5 33.5,4.5 25.5,3 11,-1.5" />
  <path
     d="m 6458.4992,8158.5002 26.5,-55 19.5,-43.5 17,-36 3.5,-12 -1.5,-26.5 -6.5,-15 -48.5,-59.5 -3,-3.5 -6.5,-2.5 -19.5,8.5 -14.5,6.5 -71.5,-1 -45.5,-17.5 -15,-3.5 -19.5,-6.5 -12.9256,-9.558 -14.0744,-16.442 -16.5,-23.4999 -8,-4.5 -19,-3 -40.5,-1 -36.5,-1.5 -11.5,-2 -8.5,-3.5 -17,-14.5 -16.5,-24 -14,-28.5 -10.5,-14 -14,-8.5 -49,-12.5 -33.9999,6.5 -72,14.5 -5.5,3.5 -28,31 -5,19 -2,37 -12.5,31.9999 -17,6 -55,14.5 -34.5,10 -13,0.5 -52.5,22 -33.5,10 -16.5,4.5 -26.5,3.5 -40.5,3 -36,-4.5 -63.5,-20 -18,-10 -46.5,-13 -21,-8 -13,-13 -36,-46.9999 -23,-16 -9,-4.5 -26.5,-7 -52.5,-12 -26,-3 -22,13 -31.5,41.5 -20,8 -47.5,-3.5 -16,-1.5 -30,4.5 -40.5,27.9999 -50,17"
     id="path2818"
     style="fill:none;stroke:#2d7bc8;stroke-width:5;stroke-linecap:butt;stroke-linejoin:round;stroke-miterlimit:4;stroke-dasharray:none;stroke-opacity:1" />
  <path
     d="m 2741.4994,3880.0005 11.5,7.5 23,-1.5 19,21 1.5,13 12,1 1,12.5 7,2 16.5,18 6.5,0.5 16,20.5 v 45 l -15.5,15 -33.5,1.5 -8.5,-7.5 -13.5,1 -6.5,-4.5 -2,-8.5 7,-4 1.5,-11.5 -5,-5 -9,-3 -9,-17 -15,-12.5 -4.5,-15 -7,-5 -40.5,-14.5 -5,-9.5 8,-23 z"
     id="path2836"
     style="fill:none;stroke:#dd127b;stroke-width:5;stroke-linecap:butt;stroke-linejoin:round;stroke-miterlimit:4;stroke-dasharray:none;stroke-opacity:1" />
</svg>
