<?xml version="1.0" encoding="UTF-8" standalone="no"?>
<svg
   xmlns:dc="http://purl.org/dc/elements/1.1/"
   xmlns:cc="http://creativecommons.org/ns#"
   xmlns:rdf="http://www.w3.org/1999/02/22-rdf-syntax-ns#"
   xmlns:svg="http://www.w3.org/2000/svg"
   xmlns="http://www.w3.org/2000/svg"
   xmlns:xlink="http://www.w3.org/1999/xlink"
   viewBox="0 0 3050 2700"
   height="2700"
   width="3050"
   id="svg2"
   version="1.1">
  <metadata
     id="metadata8">
    <rdf:RDF>
      <cc:Work
         rdf:about="">
        <dc:format>image/svg+xml</dc:format>
        <dc:type
           rdf:resource="http://purl.org/dc/dcmitype/StillImage" />
        <dc:title></dc:title>
      </cc:Work>
    </rdf:RDF>
  </metadata>
  <defs
     id="defs6" />
  <image
     style="display:none"
     y="-20"
     x="-100"
     id="image10"
     xlink:href="file:///home/lexande/timelines/timelines/streetmap/../streetmap/hydosm.png"
     preserveAspectRatio="none"
     height="3220"
     width="3220" />
  <path
     id="path836"
     d="m 233,1156.5 -0.5,-38.5 4.5,-33.5 22.5,-30 7.5,-30 22,-13.5 9.5,3 49,73.5 28.5,33 6,13 10.5,24.5 10.5,6.5 24,0.5 43.5,7.5 34,12.5 13,13 14.5,4.5 20,-1.5 8,3 27,46 33.5,21.5 29.5,12.5 17,12 3.5,5.5 1.5,14 38,26.5 8.5,-1 15.5,-5 9,1 36,39.5 10,5 h 12 l 6.5,-7 44.5,-47 8,-4.5 64,18 h 8.5 l 5,-5.5 35.5,-91 6.5,-7 8.5,-3 11.5,3 16.5,6.5 11,0.5 13.5,-8.5 39.5,2 31,5 12.5,-0.5 28,-21.5 8,-2 40.5,10.5 7.5,6.5 21,35.5 13.5,2.5 81.5,-16 11,-12.5 10.5,-2 26,10 h 9 l 9.5,-7 15.5,-30 16,-62 41.5,-36 37.5,-12 16,-0.5 25.5,4.5 71.5,7 h 28.5 l 35,10.5 99,2.5 27.5,-1 194,5.5 42.5,2.5 21.5,4 28.5,-1 13.5,6 8.5,8.5 1.5,16.5 -12,40 2.5,12 17.5,58 9,6.5 50,-4 31,-17 35.5,-13 32,-22.5 9,-1 16,5.5 67.5,62 63,58.5 33.5,14 46.5,38 43.5,9.5 11,8 24,27.5 25.5,19 19,31 170.5,154.5 44.5,54.5 34,36.5 19.5,12 6.5,13.5 3,13 -2,35 -11.5,47.5 -8.5,82"
     style="opacity:1;fill:none;fill-opacity:1;fill-rule:nonzero;stroke:#046eba;stroke-width:5;stroke-linecap:butt;stroke-linejoin:round;stroke-miterlimit:4;stroke-dasharray:none;stroke-opacity:1" />
  <path
     id="path838"
     d="m 164.81149,314.65078 26.16295,-1.76777 43.13351,-8.83883 44.54773,-23.33453 31.1127,-12.37437 131.16831,19.44544 33.58757,25.10229 54.09367,13.08148 136.47161,67.17514 83.79215,114.90485 51.26524,33.94113 27.22361,30.75914 27.93072,21.92031 49.14394,34.29468 11.3137,13.08148 62.5789,95.45941 8.4853,22.62742 14.8493,42.77996 31.1127,71.77134 22.2738,37.12315 25.8094,63.6396 45.2549,91.9238 60.104,108.5409 26.5594,59.465 18.4634,31.3782 12,16.25 25.25,29 32.5,23.5 11,14.5 91.5,153.5 4,38 12.5,19 8.5,18 18.5,15 9.5,14 3.5,19.5 v 15.5 l -5,15.5 -1.5,26 6,7 26,9 46,49.5 9,4 19,2.5 35.5,23.5 4.5,8 9.5,71.5 -11.5,23 -4.5,59.5 3,9.5 65,90.5 16,10.5 61.5,9 81.5,35 20.5,27 39,21 48,3 38.5,4 7.5,6.5 9,13.5 24.5,5.5 17,15 23.5,9 96,14 29.5,10.5 64,34 32,5.5 51.5,15 260.5,6.5 25.5,6 21.5,9.5 26.5,24 14.5,30.5 45.5,183 28,40.5"
     style="opacity:1;fill:none;fill-opacity:1;fill-rule:nonzero;stroke:#e42024;stroke-width:5;stroke-linecap:butt;stroke-linejoin:round;stroke-miterlimit:4;stroke-dasharray:none;stroke-opacity:1" />
  <path
     id="path840"
     d="m 1991,1109 16,16 9,48.5 v 15.5 l 27,66.5 -3.5,11 -5.5,9 -25,12.5 -3.5,5.5 v 15 l 3.5,6 23.5,14.5 13.5,-0.5 18.5,17 4,11.5 -6.5,25 -4.5,69.5 -15,31 -24,57.5 -16.5,33.5 -4,19.5 5.5,37.5 -2.5,21.5 -10.5,29.5 -23,54.5 -11.5,64 -4.5,11.5 -40,38.5 -19.5,16 -8,17.5 -10,53 -11,23 -84.5,98.5 -1.375,9.125 0.3682,9.2574 5.8818,9.1176 33.25,14.5 12.625,20.75"
     style="opacity:1;fill:none;fill-opacity:1;fill-rule:nonzero;stroke:#3faf7f;stroke-width:5;stroke-linecap:butt;stroke-linejoin:round;stroke-miterlimit:4;stroke-dasharray:none;stroke-opacity:1" />
  <text
     x="89.453171"
     y="206.96088"
     id="text2847"
     xml:space="preserve"
     style="font-style:normal;font-weight:normal;font-size:143.99993896px;font-family:Sans;-inkscape-font-specification:Sans;fill:#000000;fill-opacity:1;stroke:none"><tspan
       x="89.453171"
       y="206.96088"
       id="tspan1">2020</tspan></text>
</svg>
