<svg xmlns="http://www.w3.org/2000/svg" height="6900" width="3300"><path d="M1777.043 2316.273l1.223-26.894 9.372-13.446 28.524-24.45 30.154-34.636 6.927-15.892 2.852-33.821 9.373-19.56 17.114-16.706 24.857-7.335 21.189-5.705 24.856-14.67 13.447-9.371 33.414-15.892 40.749-29.747 28.116-20.374 75.385-44.008 87.202-52.974 19.152-12.224 24.041-21.597 10.595-14.67 12.224-22.003 41.564-74.163 12.632-16.707 62.345-55.418 21.597-26.486 17.114-31.377 7.335-22.411 19.56-24.042 31.783-17.93 20.374-15.076 20.782-22.004 29.747-24.042 14.262-21.19 7.334-25.67-3.667-48.084-8.15-90.054 5.298-24.857 11.817-23.634 16.299-16.3 13.854-8.15 18.337-8.556 88.017-5.298 25.672-8.15 18.337-18.336 9.372-21.597v-18.744l3.421-35.775 2.601-1.378 4.243.353 1.06 26.517" fill="none" stroke="#77bc1f" stroke-width="5" stroke-linejoin="round"/><path d="M1777.45 2315.051l-2.037 31.376 30.154 163.402-4.075 6.112-24.856 14.67-25.264 3.667-33.007 2.038-3.667 5.297 2.445 35.451-3.668 4.075-187.443 10.594-61.967 2.805-3.536-.353" fill="none" stroke="#77bc1f" stroke-width="1px" stroke-linejoin="round"/><path d="M2384.604 1739.682l-1.223-5.705 12.225-12.225 5.705-8.557" fill="none" stroke="#77bc1f" stroke-width="5" stroke-linejoin="round"/><path d="M2400.496 1713.603l6.112-8.965-13.447-15.484-4.89-16.707 4.89-31.784L2389 1624.5l-15-16.5-114-104-10.5-18-6-23-6-92.5-10.5-18-23.5-40-6-15.5-11-62.5v-16l13-115.5-5.5-9-124.5-38.5M2810.75 1181.032l-2.475 3.535-78.49 5.657-4.595-2.121-7.072-78.49-25.102-32.526-4.243-17.678 4.597-16.263 18.738-25.456-3.535-67.882 2.474-.708 7.072-.353 1.06-2.121-.707-10.96-12.02-15.557-8.84-134.704 3.182-7.778 6.718-6.717 7.778-2.122 14.496-1.06 9.9-4.95 7.424-10.253-.707-3.89-13.789-7.07-17.324-1.768-2.475-3.182 3.89-15.91 10.252-16.617 13.082-11.667 19.445-6.718 22.981-.707 13.789-6.717 3.535-3.89v-1.767l-1.414-5.303-15.203-24.042v-19.8l-3.535-4.595-12.728-4.596-9.546-10.96-4.243-7.072 1.414-5.303 24.396-11.667 18.384-18.739v-2.828l-7.424-16.97.707-2.122 4.243-1.06 1.06.707 2.121 4.596-.707 1.768-3.889 1.767-.353 1.414" fill="none" stroke="#77bc1f" stroke-width="1px" stroke-linejoin="round"/><path d="M1619 2850l-13 31-19 27-45 33.5-100.5 60-188 117.5L983 3286l-205.5 126-20.5 10-32.5 9-31 5.5-81 5" fill="none" stroke="#e91938" stroke-width="5" stroke-linejoin="round"/><path d="M502.5 3447.5l113-6M1618.5 2850l4.5-15-2.5-66 2-10.5-5.5-81.5-1.368-21.303" fill="none" stroke="#e91938" stroke-width="1px" stroke-linejoin="round"/><path d="M2803.5 1155l-3-14.5" fill="none" stroke="#77bc1f" stroke-width="5" stroke-linejoin="round"/><path d="M2800.5 1143l-4.5-50v-23l3-16.5 16.5-63-5-50L2797 913v-14.5l6-13.5 54.5-89.5L2934 717l49-104.5-3-3.5-84 1-15.5-5.5-18-10.5-13.5-29.5-6.5-28.5-5.5-2.5-18 5.5-17.5 17-5 .5" fill="none" stroke="#77bc1f" stroke-width="1px" stroke-linejoin="round"/><text x="89.453125" y="6797.9609" style="line-height:125%;-inkscape-font-specification:Sans" font-weight="400" font-size="144px" font-family="Sans" letter-spacing="0" word-spacing="0"/><text x="89.453102" y="206.96097" style="line-height:125%;-inkscape-font-specification:Sans" font-weight="400" font-size="144px" font-family="Sans" letter-spacing="0" word-spacing="0"><tspan x="89.453102" y="206.96097">2005</tspan></text><path d="M1463 2595l-19-4-74-20-30 1.5-101 4-4 2.5 7.5 118-4 6-122 5-103 8-23.5-9.5-108.5 7.5-8 4.5-7.5 27-14 17-60 52-5-3 1-5.5 8.5-7.5-2.5-40 4.5-4 55-2 9-2M1713.674 2580.75l36.77-2.121 2.474-3.182-1.414-37.124 3.182-4.95M2811 1180l3.5 3.5 302.5-19 4-4.5-34.5-555.999" fill="none" stroke="#77bc1f" stroke-width="1px" stroke-linejoin="round"/></svg>