<svg xmlns="http://www.w3.org/2000/svg" width="3250" height="6950" viewBox="0 2300 3250 6950"><path style="fill:none;fill-rule:evenodd;stroke:#77bc1f;stroke-width:5;stroke-linecap:butt;stroke-linejoin:round;stroke-miterlimit:4;stroke-dasharray:none;stroke-opacity:1" d="m1777.04 4666.27 1.22-26.89 9.37-13.45 28.52-24.45 30.15-34.64 6.93-15.89 2.85-33.82 9.37-19.56 17.11-16.71 24.86-7.33 21.19-5.7 24.86-14.67 13.45-9.37 33.41-15.89 40.75-29.75 28.12-20.37 75.38-44.01 87.2-52.97 19.15-12.22 24.04-21.6 10.59-14.67 12.22-22.04.56-74.16 12.63-16.71 62.35-55.42 21.6-26.49 17.11-31.38 7.33-22.41 19.56-24.04 31.78-17.93 20.37-15.08 20.78-22.03.75-24.04 14.26-21.19 7.33-25.67-3.67-48.08-8.15-90.05 5.3-24.86 11.82-23.63 16.3-16.3 13.85-8.15 18.34-8.56 88.02-5.3 25.67-8.15 18.34-18.34 9.37-21.6v-18.74l3.42-35.77 2.6-1.38 4.24.351.06 26.52"/><path style="fill:none;fill-rule:evenodd;stroke:#77bc1f;stroke-width:1px;stroke-linecap:butt;stroke-linejoin:round;stroke-opacity:1" d="m1777.45 4665.05-2.04 31.38 30.15 163.4-4.07 6.11-24.86 14.67-25.26 3.67-33.01 2.04-3.67 5.3 2.44 35.45-3.67 4.07-187.44 10.59-61.97 2.8-3.54-.35"/><path style="fill:none;fill-rule:evenodd;stroke:#77bc1f;stroke-width:5;stroke-linecap:butt;stroke-linejoin:round;stroke-miterlimit:4;stroke-dasharray:none;stroke-opacity:1" d="m2384.6 4089.68-1.22-5.7 12.22-12.22 5.7-8.56"/><path style="fill:none;fill-rule:evenodd;stroke:#77bc1f;stroke-width:1px;stroke-linecap:butt;stroke-linejoin:round;stroke-opacity:1" d="m2400.5 4063.6 6.11-8.96-13.45-15.48-4.89-16.71 4.89-31.78-4.16-16.16-15-16.5-114-104-10.5-18-6-23-6-92.5-10.5-18-23.5-40-6-15.5-11-62.5v-16l13-115.5-5.5-9-124.5-38.5M2810.75 3531.03l-2.47 3.54-78.49 5.66-4.6-2.12-7.07-78.49-25.1-32.53-4.24-17.68 4.6-16.26 18.74-25.46-3.54-67.88 2.47-0.72.07-0.35.06-2.12-.71-10.96-12.02-15.56-8.84-134.7 3.18-7.78 6.72-6.72 7.78-2.12 14.5-1.06 9.9-4.95 7.42-10.25-.71-3.89-13.79-7.07-17.32-1.77-2.47-3.18 3.89-15.91 10.25-16.62 13.08-11.67 19.45-6.72 22.98-0.71.79-6.72 3.54-3.89v-1.77l-1.41-5.3-15.2-24.04v-19.8l-3.54-4.6-12.73-4.6-9.55-10.96-4.24-7.07 1.41-5.3 24.4-11.67 18.38-18.74v-2.83l-7.42-16.97.71-2.12 4.24-1.06 1.06.712.12 4.6-0.71.77-3.89 1.77-0.35.41"/><path style="fill:none;fill-rule:evenodd;stroke:#e91938;stroke-width:5;stroke-linecap:butt;stroke-linejoin:round;stroke-miterlimit:4;stroke-dasharray:none;stroke-opacity:1" d="m1619 5200-13 31-19 27-45 33.5-100.5 60-188 117.5L983 5636l-205.5 126-20.5 10-32.5 9-31 5.5-81 5"/><path style="fill:none;fill-rule:evenodd;stroke:#e91938;stroke-width:1px;stroke-linecap:butt;stroke-linejoin:round;stroke-opacity:1" d="m502.5 5797.5 113-6M1618.5 5200l4.5-15-2.5-66 2-10.5-5.5-81.5-1.37-21.3"/><path style="fill:none;fill-rule:evenodd;stroke:#77bc1f;stroke-width:5;stroke-linecap:butt;stroke-linejoin:round;stroke-miterlimit:4;stroke-dasharray:none;stroke-opacity:1" d="m2803.5 3505-3-14.5"/><path style="fill:none;fill-rule:evenodd;stroke:#77bc1f;stroke-width:1px;stroke-linecap:butt;stroke-linejoin:round;stroke-opacity:1" d="m2800.5 3493-4.5-50v-23l3-16.5 16.5-63-5-50-13.5-27.5v-14.5l6-13.5 54.5-89.5 76.5-78.5 49-104.5-3-3.5-84 1-15.5-5.5-18-10.5-13.5-29.5-6.5-28.5-5.5-2.5-18.05.5-17.5 17-5 .5"/><text style="font-style:normal;font-weight:400;font-size:144px;line-height:125%;font-family:Sans;-inkscape-font-specification:Sans;letter-spacing:0;word-spacing:0;fill:#000;fill-opacity:1;stroke:none" xml:space="preserve" y="9147.96" x="89.45"/><text style="font-style:normal;font-weight:400;font-size:144px;line-height:125%;font-family:Sans;-inkscape-font-specification:Sans;letter-spacing:0;word-spacing:0;fill:#000;fill-opacity:1;stroke:none" xml:space="preserve" y="2506.96" x="89.45"><tspan y="2506.96" x="89.45">2005</tspan></text><path style="fill:none;fill-rule:evenodd;stroke:#77bc1f;stroke-width:1px;stroke-linecap:butt;stroke-linejoin:round;stroke-opacity:1" d="m1463 4945-19-4-74-20-30 1.5-101 4-4 2.5 7.5 118-4 6-122 5-103 8-23.5-9.5-108.5 7.5-8.04.5-7.5 27-14 17-60 52-5-3 1-5.5 8.5-7.5-2.5-40.04.5-4 55-2 9-2M1713.67 4930.75l36.77-2.12 2.47-3.18-1.41-37.12 3.18-4.95M2811 3530l3.5 3.5 302.5-19 4-4.5-34.5-556"/></svg>