<svg xmlns="http://www.w3.org/2000/svg" viewBox="0 0 3300 6900" height="6900" width="3300"><path d="M1777.043 2316.273l1.223-26.894 9.372-13.446 28.524-24.45 30.154-34.636 6.927-15.892 2.852-33.821 9.373-19.56 17.114-16.706 24.857-7.335 21.189-5.705 24.856-14.67 13.447-9.371 33.414-15.892 40.749-29.747 28.116-20.374 75.385-44.008 87.202-52.974 19.152-12.224 24.041-21.597 10.595-14.67 12.224-22.003 41.564-74.163 12.632-16.707 62.345-55.418 21.597-26.486 17.114-31.377 7.335-22.411 19.56-24.042 31.783-17.93 20.374-15.076 20.782-22.004 29.747-24.042 14.262-21.19 7.334-25.67-3.667-48.084-8.15-90.054 5.298-24.857 11.817-23.634 16.299-16.3 13.854-8.15 18.337-8.556 88.017-5.298 25.672-8.15 18.337-18.336 9.372-21.597v-18.744l3.421-35.775 2.601-1.378 4.243.353 1.06 26.517" fill="none" stroke="#77bc1f" stroke-width="5" stroke-linejoin="round"/><path d="M1777.45 2315.051l-2.037 31.376 30.154 163.402-4.075 6.112-24.856 14.67-25.264 3.667-33.007 2.038-3.667 5.297 2.445 35.451-3.668 4.075-187.443 10.594-61.967 2.805-4.597 4.596 8.486 160.16-9.546 20.152-141.775 200.819-267.287 211.778-3.535 6.718 9.546 156.978 18.031 307.59 12.374 178.192-3.535 7.778-32.173 39.952v10.96l-70.358 61.164 1.415 25.103-1.768 4.242h-12.728l-6.364 6.364-.354 2.122 13.789 14.142v5.303l-37.477 1.06" fill="none" stroke="#77bc1f"/><path d="M2384.604 1739.682l-1.223-5.705 12.225-12.225 5.705-8.557" fill="none" stroke="#77bc1f" stroke-width="5" stroke-linejoin="round"/><path d="M2400.496 1713.603l6.112-8.965-13.447-15.484-4.89-16.707 4.89-31.784L2389 1624.5l-15-16.5-114-104-10.5-18-6-23-6-92.5-10.5-18-23.5-40-6-15.5-11-62.5v-16l13-115.5-5.5-9-124.5-38.5-1.5-9 63.5-83.5 8-49L2249 763l161.5-220.5 140.5-187-1-4-31-24-4-26.5-5-6.5-8 3-2-1-.5-8 17-23.5 2.5-1.5 5.5 4.5 1 2.5-16.5 24-16.5 7-6 5L2464 337l-4 2-219.5-163-46-34.5-1-27.5-11-22.5-4-2.5-7 3.5-8-1.5-3 1.5V116l-2 2h-5v-2l-.5-22.5 2-2 8 .5" fill="none" stroke="#77bc1f"/><path d="M2810.75 1181.032l-2.475 3.535-78.49 5.657-4.595-2.121-7.072-78.49-25.102-32.526-4.243-17.678 4.597-16.263 18.738-25.456-3.535-67.882 2.474-.708 7.072-.353 1.06-2.121-.707-10.96-12.02-15.557-8.84-134.704 3.182-7.778 6.718-6.717 7.778-2.122 14.496-1.06 9.9-4.95 7.424-10.253-.707-3.89-13.789-7.07-17.324-1.768-2.475-3.182 3.89-15.91 10.252-16.617 13.082-11.667 19.445-6.718 22.981-.707 13.789-6.717 3.535-3.89v-1.767l-1.414-5.303-15.203-24.042v-19.8l-3.535-4.595-12.728-4.596-9.546-10.96-4.243-7.072 1.414-5.303 24.396-11.667 18.384-18.739v-2.828l-7.424-16.97.707-2.122 4.243-1.06 1.06.707 2.121 4.596-.707 1.768-3.889 1.767-.353 1.414" fill="none" stroke="#77bc1f" stroke-linejoin="round"/><path d="M1713.673 2580.75l36.77-2.122 2.475-3.182-1.414-37.123 3.182-4.95M2811 1180l3.5 3.5 302.5-19 4-4.5-34.5-556" fill="none" stroke="#77bc1f"/><path d="M1619 2850l-13 31-19 27-45 33.5-100.5 60-188 117.5L983 3286l-205.5 126-20.5 10-32.5 9-31 5.5-81 5" fill="none" stroke="#e71939" stroke-width="5" stroke-linejoin="round"/><path d="M502.5 3447.5l113-6M1618.5 2850l4.5-15-2.5-66 2-10.5-5.5-81.5-9.5-16-.5-18.5 6-13-4-83-3.5-3.5-151 8.5-103-50-4-5-21-150.5-25.5-23.5" fill="none" stroke="#e71939"/><path d="M1571 2537.5l-65.5 1.5-13.5-6.5-32-24-15-3.5-18 5.5-26 11.5-18.5 12-15.5 23.5-3.5 21.5 39.5 299 14 87 8 35.5 23 54.5v11.5l-6.5 19.5-181.5 174-9.5 18.5 5.5 84-3 16.5-76.5 163-105.5 143-123 118.5-82.5 94.5-23 18.5-62 7-59.5 3-68 10.5-22.5 10-17 16.5-11.5 21-7 30.5-1 38 6 29.5 30.5 77.5-.5 23-10 155.5-8 21.5-101.5 105.5L474 4494l-14 15-24.5 49-3.5 31.5 5 32.5 9.5 48.5-.5 14.5-23.5 108 .5 24.5 4.5 26.5-4 23-51.5 127-9 14-24 27-6 28.5-9.5 47.5-10 17-89 107.5-7 26-7 66 5.5 21.5 11 36.5 41 74 11.5 33 32 164.5.5 24.5-.5 48-4.5 20.5-18 72-42.5 127.5L234 6002l-4.5 40.5-12.5 232 1.5 34.5 3.5 115.5-5.5 35-21 53.5-38.5 86.5-5 23.5-3 45.5" fill="none" stroke="#007dc3" stroke-width="5" stroke-linejoin="round"/><path d="M2803.5 1155l-3-14.5" fill="none" stroke="#77bc1f" stroke-width="5" stroke-linejoin="round"/><path d="M2800.5 1143l-4.5-50v-23l3-16.5 16.5-63-5-50L2797 913v-14.5l6-13.5 54.5-89.5L2934 717l49-104.5-3-3.5-84 1-15.5-5.5-18-10.5-13.5-29.5-6.5-28.5-5.5-2.5-18 5.5-17.5 17-5 .5" fill="none" stroke="#77bc1f"/><path d="M1571 2532.5l-64 1.5-12.75-6.25-40.75-28.25-14.5-17-62.5-108.5-27.5-32-276-256.5-249-233" fill="none" stroke="#9370b1" stroke-width="5" stroke-linejoin="round"/><text x="89.453" y="6797.961" style="line-height:125%;-inkscape-font-specification:Sans" font-weight="400" font-size="144" font-family="Sans" letter-spacing="0" word-spacing="0"/><text x="89.453" y="206.961" style="line-height:125%;-inkscape-font-specification:Sans" font-weight="400" font-size="144" font-family="Sans" letter-spacing="0" word-spacing="0"><tspan x="89.453" y="206.961">2015</tspan></text></svg>