<?xml version="1.0" encoding="UTF-8" standalone="no"?>
<!-- Created with Inkscape (http://www.inkscape.org/) -->

<svg
   xmlns:dc="http://purl.org/dc/elements/1.1/"
   xmlns:cc="http://creativecommons.org/ns#"
   xmlns:rdf="http://www.w3.org/1999/02/22-rdf-syntax-ns#"
   xmlns:svg="http://www.w3.org/2000/svg"
   xmlns="http://www.w3.org/2000/svg"
   xmlns:xlink="http://www.w3.org/1999/xlink"
   version="1.1"
   width="3246"
   height="3745.3899"
   id="svg2">
  <metadata
     id="metadata3460">
    <rdf:RDF>
      <cc:Work
         rdf:about="">
        <dc:format>image/svg+xml</dc:format>
        <dc:type
           rdf:resource="http://purl.org/dc/dcmitype/StillImage" />
        <dc:title></dc:title>
      </cc:Work>
    </rdf:RDF>
  </metadata>
  <defs
     id="defs6" />
  <path
     d="m 2225.6217,1053.7717 24.1281,-25.7367 48.278,-52.41587 -28.2771,-15.8628 -50.347,-21.3802 -91.0383,-58.62315 -17.428,-11.01328"
     id="path5635"
     style="fill:none;stroke:#008000;stroke-width:0.99999815;stroke-linecap:butt;stroke-linejoin:round;stroke-miterlimit:4;stroke-opacity:1;stroke-dasharray:none" />
  <path
     d="m 2233.0884,1142.1529 -5.3644,-8.7782 8.2322,-8.0942 -9.2162,-17.1723 -4.9223,-33.5195 3.4484,-15.5179 0.9524,-26.0934 -2.7609,-6.22 -19.1381,-20.7836 -12.595,-23.54991 -43.6348,-48.42588 -33.3886,-46.92991 -4.2221,-18.08203 -13.2066,-5.54444 -17.7707,-14.52983 -7.0027,-9.29953"
     id="path5040"
     style="fill:none;stroke:#008000;stroke-width:0.99999815;stroke-linecap:butt;stroke-linejoin:round;stroke-miterlimit:4;stroke-opacity:1;stroke-dasharray:none" />
  <image
     xlink:href="bostonosm.png"
     style="display:none"
     id="image12"
     height="3745.3845"
     width="3246"
     y="0.005386963"
     x="-1.110223e-16" />
  <path
     d="m 2537.5004,1181.3899 33.0694,-60.695 2.9306,-18.805 43,-49.5 82.3302,-96.9719 36.0812,-43.4507 66.3245,-69.2506 120.9447,-52.6695 33.1622,-32.18689 56.571,-112.16646 10.7289,-39.01443 -15.6057,-138.5012 3.9014,-39.98978 15.6058,-43.89123 16.8434,-39.03032 21.5667,-38.53732 31.1127,-59.39696 29.6985,-50.55814 20.8597,-32.52692 24.7487,-27.93072 56.215,-50.558133 19.0919,-18.73833"
     id="path3594-7"
     style="fill:none;stroke:#800080;stroke-width:4.99999094;stroke-linecap:butt;stroke-linejoin:round;stroke-miterlimit:4;stroke-opacity:1;stroke-dasharray:none" />
  <path
     d="m 2226.2277,1035.2669 3.2754,-6.9876 -0.8734,-7.4244 -7.6428,-7.8612 -16.8141,-16.81401 -12.4467,-13.9753"
     id="path3008"
     style="fill:none;stroke:#008000;stroke-width:1px;stroke-linecap:butt;stroke-linejoin:miter;stroke-opacity:1" />
  <path
     d="m 2276.4916,1697.1328 0,-40.9652 -4.8768,-164.8359 7.8029,-18.5318 47.7926,-84.8564 2.9261,-15.6058 -6.8275,-15.6058 -50.7188,-28.2854 -35.1129,-32.1869 -58.5217,-43.8912 -39.9898,-35.113 -15.6057,-6.8275 -102.4129,-12.6797 -229.2097,-23.4087 -15.6058,-6.8275 -77.0535,-63.3984 -53.6448,-28.2855 -36.0883,-41.9405 -25.3594,-11.7043 -14.6304,-2.4384"
     id="path2818"
     style="fill:none;stroke:#ff0000;stroke-width:4.99999094;stroke-linecap:butt;stroke-linejoin:round;stroke-miterlimit:4;stroke-opacity:1;stroke-dasharray:none" />
  <path
     d="m 2478.202,1085.0525 2.5916,-12.878 -2.069,-133.109 -1.3794,-116.55662 22.7596,-57.24378 20.6905,-5.51747 15.173,-38.62231 63.451,-48.27789"
     id="path3594"
     style="fill:none;stroke:#0000ff;stroke-width:0.99999815;stroke-linecap:butt;stroke-linejoin:round;stroke-miterlimit:4;stroke-opacity:1;stroke-dasharray:none" />
  <path
     d="m 2260.8858,1213.8416 1.4631,17.5565 -10.2413,0.4877"
     id="path3880"
     style="fill:none;stroke:#008000;stroke-width:4.99999094;stroke-linecap:butt;stroke-linejoin:round;stroke-miterlimit:4;stroke-opacity:1;stroke-dasharray:none" />
  <path
     d="m 2048.4528,1057.8122 -6.794,-10.0338 -47.0464,-30.9596 -72.1767,-49.2557 -115.5802,-59.0093 -47.305,-22.92101 -98.9991,-32.67458 -27.7978,-21.94561 -34.6253,-54.6202 -39.0144,-48.28034 -22.4333,-54.13252 -32.6746,-55.59555 -14.1427,-24.87169 -9.2659,-30.72386 -49.2558,-42.91587"
     id="path5631"
     style="fill:none;stroke:#008000;stroke-width:0.99999815;stroke-linecap:butt;stroke-linejoin:round;stroke-miterlimit:4;stroke-opacity:1;stroke-dasharray:none" />
  <path
     d="m 1531.8038,663.73826 41.4528,24.87169 82.9057,47.79267 67.7875,41.45282 99.9745,45.35427 45.3542,23.40866 12.1921,12.192 20.4825,39.01443 11.7044,56.5709 10.2412,14.0591"
     id="path5633"
     style="fill:none;stroke:#008000;stroke-width:0.99999815;stroke-linecap:butt;stroke-linejoin:round;stroke-miterlimit:4;stroke-opacity:1;stroke-dasharray:none" />
  <path
     d="m 1651.7933,1655.6473 -42.7604,3.4484 -29.6564,5.5174 -88.2795,22.07 1.3794,22.7595 7.5864,12.4143 17.2422,14.4833 6.2071,11.0351 8.966,5.5174"
     id="path5639"
     style="fill:none;stroke:#008000;stroke-width:0.99999815;stroke-linecap:butt;stroke-linejoin:round;stroke-miterlimit:4;stroke-opacity:1;stroke-dasharray:none" />
  <path
     d="m 1493.8557,1687.3727 -105.5216,24.139 -27.5874,14.4833 -46.2089,17.2421 -114.4875,-5.5174 -22.0699,8.2761 -52.416,21.3803 -99.3145,32.4151"
     id="path5641"
     style="fill:none;stroke:#008000;stroke-width:0.99999815;stroke-linecap:butt;stroke-linejoin:round;stroke-miterlimit:4;stroke-opacity:1;stroke-dasharray:none" />
  <path
     d="m 2601.4884,936.9964 39.312,-45.51911 24.1389,-28.96673 6.8968,-12.41432 0,-15.17305 -15.8627,-34.4842 -73.7962,-18.62147 -60.5739,-23.24726"
     id="path5647"
     style="fill:none;stroke:#0000ff;stroke-width:0.99999815;stroke-linecap:butt;stroke-linejoin:round;stroke-miterlimit:4;stroke-opacity:1;stroke-dasharray:none" />
  <path
     d="m 2614.5923,921.1337 -9.6555,-20.69052 -126.5816,63.04692"
     id="path5649"
     style="fill:none;stroke:#0000ff;stroke-width:0.99999815;stroke-linecap:butt;stroke-linejoin:round;stroke-miterlimit:4;stroke-opacity:1;stroke-dasharray:none" />
  <path
     d="m 1804.6077,1793.6896 -0.1906,-9.262 8.2905,-42.9159 11.2167,-36.0883 19.0195,-32.1869 19.5072,-21.9457 63.3985,-44.8665 91.1962,-66.3246 110.7034,-80.9549 16.0934,-42.4282 23.4087,-15.1181 11.2166,-4.8768"
     id="path4963"
     style="fill:none;stroke:#008000;stroke-width:0.99999815;stroke-linecap:butt;stroke-linejoin:round;stroke-miterlimit:4;stroke-opacity:1;stroke-dasharray:none" />
  <path
     d="m 1782.2339,1392.3585 -272.3757,-47.3309 -20.4826,17.5565 -18.5318,10.729 -33.1623,-0.9754 -49.7434,34.1376 -18.5318,2.9261 -26.3348,-12.6797 -14.6304,6.8276 -7.8029,33.1622 -29.2608,54.6202 -18.5318,16.5811 -32.1869,0 -18.5319,3.9015 -22.4333,19.5072 -13.655,26.3347 -11.7044,5.8522 -39.0144,-23.4087 -42.9159,-7.8028 -34.1376,-0.9754 -35.113,0"
     id="path3598-87"
     style="fill:none;stroke:#008000;stroke-width:0.99999815;stroke-linecap:butt;stroke-linejoin:round;stroke-miterlimit:4;stroke-opacity:1;stroke-dasharray:none" />
  <path
     d="m 1828.5746,1397.0074 -5.6395,2.0755 -119.8808,42.4305"
     id="path3599"
     style="fill:none;stroke:#008000;stroke-width:0.99999815;stroke-linecap:butt;stroke-linejoin:round;stroke-miterlimit:4;stroke-opacity:1;stroke-dasharray:none" />
  <path
     d="m 1853.673,1397.2094 -46.3361,-0.4877 -25.1093,-4.3632"
     id="path3601"
     style="fill:none;stroke:#008000;stroke-width:0.99999815;stroke-linecap:butt;stroke-linejoin:round;stroke-miterlimit:4;stroke-opacity:1;stroke-dasharray:none" />
  <path
     d="m 2219.9207,1206.5264 17.5565,10.729 9.7536,21.4579 30.2361,4.8768 48.7681,-8.7782 54.6202,-14.6304 87.7824,-122.8955 9.5644,-12.2335"
     id="path5693"
     style="fill:none;stroke:#0000ff;stroke-width:4.99999094;stroke-linecap:butt;stroke-linejoin:round;stroke-miterlimit:4;stroke-opacity:1;stroke-dasharray:none" />
  <path
     d="m 2069.7151,1065.0991 96.5607,65.3492 25.3594,11.2166 13.1674,17.5565 27.7978,-18.0441 28.2854,39.9897 0.9754,32.1869 -16.5812,7.8029 5.8522,12.6797 -22.4333,37.0637 -27.3101,35.113 -15.6057,33.1623 -29.2609,-0.9754 -217.5054,77.0535 -26.3347,-5.8522 -39.0144,0 -21.458,-12.6797"
     id="path3598"
     style="fill:none;stroke:#008000;stroke-width:4.99999094;stroke-linecap:butt;stroke-linejoin:round;stroke-miterlimit:4;stroke-opacity:1;stroke-dasharray:none" />
  <path
     d="m 2048.7151,1058.3491 -9.7238,1.8732 -117.531,-20.4825 -334.5486,-58.034 -9.7536,7.3152 -5.3694,19.3297"
     id="path3598-8"
     style="fill:none;stroke:#008000;stroke-width:0.99999815;stroke-linecap:butt;stroke-linejoin:round;stroke-miterlimit:4;stroke-opacity:1;stroke-dasharray:none" />
  <path
     d="m 2233.088,1142.1526 -5.3644,-8.7782"
     id="path5040-3"
     style="fill:none;stroke:#008000;stroke-width:4.99999094;stroke-linecap:butt;stroke-linejoin:round;stroke-miterlimit:4;stroke-opacity:1;stroke-dasharray:none" />
  <path
     d="m 1803.9294,1793.6935 -4.3891,5.3645 -44.8666,-4.8768 -76.0781,13.655 -24.8717,43.8912"
     id="path5904"
     style="fill:none;stroke:#008000;stroke-width:0.99999815;stroke-linecap:butt;stroke-linejoin:miter;stroke-miterlimit:4;stroke-opacity:1;stroke-dasharray:none" />
  <path
     d="m 1595.2393,1663.2337 -16.5525,-11.7246 -6.8967,-10.3452 -20.0009,-8.2763 -11.7247,-9.6555 -33.1048,-15.8627 -27.5874,-37.243 -14.4833,-11.7246 -22.7596,1.3793 -30.3461,-2.069 -26.8977,-15.1731"
     id="path5910"
     style="fill:none;stroke:#008000;stroke-width:0.99999815;stroke-linecap:butt;stroke-linejoin:miter;stroke-miterlimit:4;stroke-opacity:1;stroke-dasharray:none" />
  <path
     d="m 3018.741,482.80887 7.8029,-36.08834 15.6057,-55.10787 21.458,-62.91076 0.9753,-7.80289 -101.4375,4.38913 -33.1622,1.46304 -8.2906,5.36448 -10.729,20.97025 -4.8768,3.41377 -72.1766,-2.92609 -54.1326,109.24039 -20.4825,48.28035 -97.5361,111.67878 -107.2896,80.95493 -74.6151,59.00932 -32.6746,24.87169 -39.0144,24.8717 -73.1521,112.16645 -38.039,51.6941"
     id="path4346"
     style="fill:none;stroke:#008000;stroke-width:0.99999815;stroke-linecap:butt;stroke-linejoin:round;stroke-miterlimit:4;stroke-opacity:1;stroke-dasharray:none" />
  <path
     d="m 2235.5264,1125.0838 16.0935,-9.2659 -26.3347,-55.1079"
     id="path4348"
     style="fill:none;stroke:#008000;stroke-width:0.99999815;stroke-linecap:butt;stroke-linejoin:round;stroke-miterlimit:4;stroke-opacity:1;stroke-dasharray:none" />
  <path
     d="m 3019.7163,482.32119 -21.9456,-5.85216 -55.5955,-28.28546 -28.2855,19.01953 -22.4333,4.8768 -29.2608,-5.36448 -15.1181,0.97536 -23.8963,6.82753 -37.0637,-24.38402"
     id="path4350"
     style="fill:none;stroke:#008000;stroke-width:0.99999815;stroke-linecap:butt;stroke-linejoin:round;stroke-miterlimit:4;stroke-opacity:1;stroke-dasharray:none" />
  <path
     d="m 2537.4005,716.40773 9.266,-28.77314 27.3101,-44.3789 -10.2413,-16.09345 -45.3543,-52.1818 -5.3645,-6.33984 5.8522,-30.23618 19.5072,-2.92608 45.3543,-5.85216 5.8521,-22.4333 -3.4137,-35.60066 -5.8522,-15.11809 -12.192,-19.01953 0.4877,-27.79777 -16.5812,-41.45283"
     id="path4352"
     style="fill:none;stroke:#008000;stroke-width:0.99999815;stroke-linecap:butt;stroke-linejoin:round;stroke-miterlimit:4;stroke-opacity:1;stroke-dasharray:none" />
  <path
     d="m 2833.2222,353.5237 49.6572,-88.96925 56.5541,-104.14229 35.1739,-63.45093"
     id="path4354"
     style="fill:none;stroke:#008000;stroke-width:0.99999815;stroke-linecap:butt;stroke-linejoin:miter;stroke-miterlimit:4;stroke-opacity:1;stroke-dasharray:none" />
  <path
     d="M 2971.8487,99.71996 3030.4718,-0.284229"
     id="path4358"
     style="fill:none;stroke:#008000;stroke-width:0.99999815;stroke-linecap:butt;stroke-linejoin:miter;stroke-miterlimit:4;stroke-opacity:1;stroke-dasharray:none;stroke-dashoffset:0" />
  <path
     d="m 2758.0466,512.15104 25.5612,7.68017 10.3815,-6.48169 12.3352,-13.61279 95.8661,49.65726 66.2097,62.07156 44.1397,34.4842 26.2081,23.44927 9.6556,6.89683 18.6213,8.9659 33.7946,16.55242 26.8977,8.96588"
     id="path4360"
     style="fill:none;stroke:#008000;stroke-width:0.99999815;stroke-linecap:butt;stroke-linejoin:miter;stroke-miterlimit:4;stroke-opacity:1;stroke-dasharray:none" />
  <path
     d="m 2186.2707,1339.1755 -8.7782,59.0093"
     id="path5012"
     style="fill:none;stroke:#008000;stroke-width:4.99999094;stroke-linecap:butt;stroke-linejoin:round;stroke-miterlimit:4;stroke-opacity:1;stroke-dasharray:none" />
  <path
     d="m 2488.1448,755.90983 0,-9.7536 -39.9898,-179.46635 -29.2608,0 -35.1129,-2.92608 -7.8029,-16.58113 23.4086,-68.27524 5.8522,-34.13762 -2.9261,-32.1869 -17.5565,-25.35938 -13.655,-12.67968 -9.7536,-35.11298 -45.842,-27.3101 -18.5318,-11.70433 -37.0637,-18.53185 -9.7536,-7.80288 -46.8174,-23.40863 -16.5811,-17.55649 -24.384,-44.86658 -11.7043,-78.02885"
     id="path3861"
     style="fill:none;stroke:#008000;stroke-width:0.99999815;stroke-linecap:butt;stroke-linejoin:miter;stroke-miterlimit:4;stroke-opacity:1;stroke-dasharray:none" />
  <path
     d="m 2149.6947,111.19652 4.8768,-54.62019 6.8275,-25.35938 -1.9507,-33.162257"
     id="path3863"
     style="fill:none;stroke:#008000;stroke-width:0.99999815;stroke-linecap:butt;stroke-linejoin:miter;stroke-miterlimit:4;stroke-opacity:1;stroke-dasharray:none;stroke-dashoffset:0" />
  <path
     d="m 1804.4175,1784.4276 2.438,118.5063"
     id="path4963-9"
     style="fill:none;stroke:#008000;stroke-width:0.99999815;stroke-linecap:butt;stroke-linejoin:round;stroke-miterlimit:4;stroke-opacity:1;stroke-dasharray:none" />
  <path
     d="m 2186.2707,1339.1755 -8.7782,59.0093 7.8029,21.9456 34.6253,19.9949 53.1571,45.8419 129.2353,115.5803 119.4817,-1.4631 0,12.6797 93.6346,-1.463 -1.4631,-51.6942"
     id="path4961"
     style="fill:none;stroke:#008000;stroke-width:0.99999815;stroke-linecap:butt;stroke-linejoin:round;stroke-miterlimit:4;stroke-opacity:1;stroke-dasharray:none" />
  <path
     d="m 1950.4266,1703.9252 11.7246,-18.6215 17.2421,-15.8627 25.5183,-40.6913 33.1048,-35.174 80.0034,-78.6239 31.0359,-18.6215 18.5292,-21.6176 -1.7199,-6.2411 -31.7727,-14.2617 -2.1586,-5.6596"
     id="path5637-9"
     style="fill:none;stroke:#008000;stroke-width:0.99999815;stroke-linecap:butt;stroke-linejoin:round;stroke-miterlimit:4;stroke-opacity:1;stroke-dasharray:none" />
  <path
     d="m 2476.6551,1087.3479 11.7246,-11.0349 15.173,7.5864 -9.8922,18.7745 83.9478,50.4593 -25.0902,-0.739 -65.3491,-39.5021 7.3152,-12.192"
     id="path5643"
     style="fill:none;stroke:#0000ff;stroke-width:0.99999815;stroke-linecap:butt;stroke-linejoin:round;stroke-miterlimit:4;stroke-opacity:1;stroke-dasharray:none" />
  <path
     d="m 1214.1888,1594.9551 -0.8402,4.4826 10.4958,8.9373"
     id="path3424"
     style="fill:none;stroke:#008000;stroke-width:0.99999815;stroke-linecap:butt;stroke-linejoin:miter;stroke-miterlimit:4;stroke-opacity:1;stroke-dasharray:none" />
  <path
     d="m 1711.6751,1439.0995 -188.1621,68.8133 -41.9405,14.6304 -29.2608,12.6797 -65.3492,5.8522 -82.9056,30.2362 -36.0883,9.7536 -45.842,12.6797 -9.7536,0.9753 -10.2539,-5.2822 -18.6215,-24.139 -6.2071,-2.7587"
     id="path3602-1"
     style="fill:none;stroke:#008000;stroke-width:0.99999815;stroke-linecap:butt;stroke-linejoin:round;stroke-miterlimit:4;stroke-opacity:1;stroke-dasharray:none" />
  <path
     d="m 1951.2167,1702.985 25.6197,5.9697 1.8671,19.1092 -2.0691,26.8977 20.6906,86.2105 0,13.1041 -24.8287,73.1064 2.0691,15.8627 6.8968,20.6905 -4.8278,22.0699 8.2763,22.7597"
     id="path5637"
     style="fill:none;stroke:#008000;stroke-width:0.99999815;stroke-linecap:butt;stroke-linejoin:round;stroke-miterlimit:4;stroke-opacity:1;stroke-dasharray:none" />
  <path
     d="m 1992.2038,1525.0093 -5.3943,7.2875 47.6456,54.7483 0.6616,9.6021"
     id="path5898"
     style="fill:none;stroke:#008000;stroke-width:0.99999815;stroke-linecap:butt;stroke-linejoin:miter;stroke-miterlimit:4;stroke-opacity:1;stroke-dasharray:none" />
  <path
     d="m 1990.2232,1527.42 117.0432,-127.2845 -10.1925,-30.5776 2.3896,-5.9984"
     id="path3990"
     style="fill:none;stroke:#008000;stroke-width:0.99999815;stroke-linecap:butt;stroke-linejoin:miter;stroke-miterlimit:4;stroke-opacity:1;stroke-dasharray:none" />
  <path
     d="m 1906.9769,1367.3591 19.3111,53.1056 5.3817,1.9839 136.5353,-48.3719"
     id="path3599-5"
     style="fill:none;stroke:#008000;stroke-width:0.99999815;stroke-linecap:butt;stroke-linejoin:round;stroke-miterlimit:4;stroke-opacity:1;stroke-dasharray:none" />
  <path
     d="m 1907.8053,1370.387 -44.8666,-124.8462 -12.6797,-19.5072 -55.17,-45.1704 -20.6929,-8.7372 -35.7839,-28.8044 -123.4151,55.4019"
     id="path4517"
     style="fill:none;stroke:#008000;stroke-width:0.99999815;stroke-linecap:butt;stroke-linejoin:miter;stroke-miterlimit:4;stroke-opacity:1;stroke-dasharray:none" />
  <path
     d="m 1828.575,1397.0072 78.4019,-29.6481"
     id="path3599-4"
     style="fill:none;stroke:#008000;stroke-width:0.99999815;stroke-linecap:butt;stroke-linejoin:round;stroke-miterlimit:4;stroke-opacity:1;stroke-dasharray:none" />
  <path
     d="m 1671.6007,1372.7415 -6.6602,-8.2069 6.8275,-66.3245 50.3295,-67.2673 45.2559,-59.5294 -0.4877,-5.8521"
     id="path3860"
     style="fill:none;stroke:#008000;stroke-width:0.99999815;stroke-linecap:butt;stroke-linejoin:miter;stroke-miterlimit:4;stroke-opacity:1;stroke-dasharray:none" />
  <path
     d="m 1738.8241,1143.6157 -40.5241,-35.4163 -55.7928,-28.9575 -36.0883,-42.1844 -22.966,-10.5358 -11.4155,-2.8754"
     id="path4517-1"
     style="fill:none;stroke:#008000;stroke-width:0.99999815;stroke-linecap:butt;stroke-linejoin:miter;stroke-miterlimit:4;stroke-opacity:1;stroke-dasharray:none" />
  <path
     d="m 1572.4792,1023.5421 -4.1987,-1.3597 -2.6292,-2.6717 -2.7014,0.7204 -11.1612,2.9763 -4.1793,0.9834"
     id="path3854"
     style="fill:none;stroke:#008000;stroke-width:0.99999815;stroke-linecap:butt;stroke-linejoin:miter;stroke-miterlimit:4;stroke-opacity:1;stroke-dasharray:none" />
  <path
     d="m 1547.8967,1024.1345 -7.8028,10.7289"
     id="path3035"
     style="fill:none;stroke:#008000;stroke-width:0.99999815;stroke-linecap:butt;stroke-linejoin:miter;stroke-miterlimit:4;stroke-opacity:1;stroke-dasharray:none" />
  <path
     d="m 1572.1341,1007.3442 -6.552,12.0694"
     id="path3400"
     style="fill:none;stroke:#008000;stroke-width:0.99999815;stroke-linecap:butt;stroke-linejoin:miter;stroke-miterlimit:4;stroke-opacity:1;stroke-dasharray:none" />
  <path
     d="m 1980.3592,2016.505 2.5492,-4.8184 2.2137,-4.0249"
     id="path3001"
     style="fill:none;stroke:#008000;stroke-width:0.99999815;stroke-linecap:butt;stroke-linejoin:miter;stroke-miterlimit:4;stroke-opacity:1;stroke-dasharray:none" />
  <path
     d="m 2158.8493,1339.8605 -4.2203,3.6736 -88.0841,31.6705 -14.7986,14.3836 -29.8238,30.5422 -75.1028,86.8071 -15.6058,11.7043 -213.6039,115.0926 -18.5319,4.8768 -19.5072,0 -18.5318,9.7536 -9.7536,10.7289 19.5072,54.6202 -18.0442,39.0144 -5.8522,29.2609 8.7783,60.4723 -1.4631,10.729 -26.3347,47.305 0.4877,40.4774 -5.3645,38.5268 -11.7043,23.8963 0.9753,37.5514 8.7783,27.3101 2.2585,51.1929 12.3719,5.8657"
     id="path3600"
     style="fill:none;stroke:#008000;stroke-width:0.99999815;stroke-linecap:butt;stroke-linejoin:round;stroke-miterlimit:4;stroke-opacity:1;stroke-dasharray:none" />
  <path
     d="m 1931.7016,1422.5688 -18.0441,6.8275 -7.3153,-10.729 -51.2064,0 -16.5811,20.9703 -0.9754,2.4384 2.9261,11.2166 -77.0535,26.8225 -10.2413,8.2905 -84.3687,106.3143 -45.3542,57.5463 -8.7783,6.3398"
     id="path3766"
     style="fill:none;stroke:#008000;stroke-width:0.99999815;stroke-linecap:butt;stroke-linejoin:miter;stroke-miterlimit:4;stroke-opacity:1;stroke-dasharray:none" />
  <text
     x="89.453178"
     y="206.96074"
     id="text10393"
     xml:space="preserve"
     style="font-size:143.99993896px;font-style:normal;font-weight:normal;fill:#000000;fill-opacity:1;stroke:none;font-family:Sans;-inkscape-font-specification:Sans"><tspan
       x="89.453178"
       y="206.96074"
       id="tspan1">1920</tspan></text>
  <text
     x="89.453133"
     y="3643.3508"
     id="text10393-3"
     xml:space="preserve"
     style="font-size:143.99993896px;font-style:normal;font-weight:normal;fill:#000000;fill-opacity:1;stroke:none;font-family:Sans;-inkscape-font-specification:Sans"><tspan
       x="89.453133"
       y="3643.3508"
       id="tspan2"></tspan></text>
  <path
     d="m 2266,1110.3899 -12.25,9"
     id="path2851"
     style="fill:none;stroke:#ff6600;stroke-width:5;stroke-linecap:butt;stroke-linejoin:round;stroke-miterlimit:4;stroke-opacity:1;stroke-dasharray:none" />
  <path
     d="m 1634.069,2147.2129 88.4178,-125.7727 132.9603,-181.4544 65.9454,-70.1678 17.1366,-51.715 17.5565,-12.192 10.2413,-17.5565 18.0442,-16.5811 27.3101,-43.4035 59.9847,-61.9354 50.7187,-46.8173 30.2362,-19.5072 20.9702,-24.3841 14.6305,-36.576 6.3398,-42.4282 3.9014,-11.7043 14.6304,-39.9898 1.9508,-18.5318 8.7782,-13.6551 38.0391,-50.7187 4.8768,-16.5812 1.9507,-64.3738 -35.113,-48.768 23.8964,-15.6058 -29.2609,-59.497 -6.8275,-27.31 -20.4826,-21.9457 -12.192,-22.43324 -43.4035,-48.2803 -34.1376,-48.76803 -5.8522,-23.89633 -21.9784,-17.43056 -12.7008,-15.97061 16.497,-15.04656 43.5046,-75.6854 57.7485,-103.35426"
     id="path3596"
     style="fill:none;stroke:#ff6600;stroke-width:4.99999094;stroke-linecap:butt;stroke-linejoin:round;stroke-miterlimit:4;stroke-opacity:1;stroke-dasharray:none" />
  <path
     d="m 1509.8583,1345.5158 c -1.9507,0 -151.6686,-20.9703 -151.6686,-20.9703 l -143.378,71.2014 -142.4027,0 -29.2609,-20.9703 -28.8968,-5.7721 -10.814,5.3384 -9.81968,3.4728 -13.2488,-2.2732 -101.28511,-65.147 -26.38054,-7.5865 -1.63246,-29.09 -27.37866,-14.5226 -13.16737,-71.689 -0.48768,-27.3101 17.55649,-17.0688"
     id="path4449"
     style="fill:none;stroke:#008000;stroke-width:0.99999815;stroke-linecap:butt;stroke-linejoin:miter;stroke-miterlimit:4;stroke-opacity:1;stroke-dasharray:none" />
  <path
     d="m 2047.2469,1058.3586 22.4679,6.7403"
     id="path3598-7"
     style="fill:none;stroke:#008000;stroke-width:4.99999094;stroke-linecap:butt;stroke-linejoin:round;stroke-miterlimit:4;stroke-opacity:1;stroke-dasharray:none" />
  <path
     d="m 2480.794,997.6887 58.6232,-28.9667 132.4193,-68.2787 173.0933,-83.0808 74.4337,-31.4242 13.4748,-12.7853"
     id="path5645"
     style="fill:none;stroke:#0000ff;stroke-width:0.99999815;stroke-linecap:butt;stroke-linejoin:round;stroke-miterlimit:4;stroke-opacity:1;stroke-dasharray:none" />
  <path
     d="m 2872.2681,811.6038 11.6673,1.7678 73.8927,37.4766 11.6672,3.5356 13.0815,0.7071 83.0851,1.0606 23.688,0.3536 8.4853,-2.1213 18.7383,-13.7886 10.6066,-6.364 18.3848,-19.0919 10.9602,-6.0104 20.8596,-2.1213 30.4056,13.0815 21.9203,10.6066 8.1318,6.7175 1.4142,9.8995 -2.4749,8.1317 -25.4559,30.7592 -12.7279,18.7383 -2.8284,18.3848 4.2426,20.8596 13.0815,28.2843 29.1682,56.0383 4.4194,10.7833 -1.0607,10.9602 -4.9497,6.364 -13.7886,3.1819 -62.579,-0.7071 -38.5373,-3.5355 -12.7279,-5.6569 -15.2028,-17.3241 -18.7383,-35.3554 -5.6569,-10.9601 -3.8891,-27.5772 -2.8284,-71.4178 -3.8891,-18.7383 -9.8995,-9.1924 -6.0104,-3.5355"
     id="path3149"
     style="fill:none;stroke:#800080;stroke-width:5;stroke-linecap:butt;stroke-linejoin:round;stroke-miterlimit:4;stroke-opacity:1;stroke-dasharray:none" />
  <path
     d="m 2293.2195,1345.4919 4.7303,-10.2174 32.1869,-19.9949 14.6304,-14.6304 3.4138,-19.0195 0.4877,-10.729 -4.8768,-93.1469 -0.4877,-35.6007 -6.3399,-19.0195 -18.0441,-12.6797 -24.8717,-8.7782 -10.2413,-3.9015 -20.6381,14.4077"
     id="path5629"
     style="fill:none;stroke:#ff6600;stroke-width:4.99999094;stroke-linecap:butt;stroke-linejoin:round;stroke-miterlimit:4;stroke-opacity:1;stroke-dasharray:none" />
</svg>
