<svg xmlns="http://www.w3.org/2000/svg" viewBox="950 3000 2700 5450" height="5450" width="2700"><path d="m2192.84 6169.01 5.16-4.01 27.5-24 21-25 13-22 17-63 13.5-48.018.5-45.05.5-11 13-10.5 15-6.5 102.51.029.5-5 56-5 18.5-8.75 161-124 41.5-31.75 77.5-61 360-283 28-15 28-11.5 62.94-8.94" style="opacity:1;fill:none;fill-opacity:1;fill-rule:nonzero;stroke:#e91c2d;stroke-width:5;stroke-linecap:butt;stroke-linejoin:round;stroke-miterlimit:4;stroke-dasharray:none;stroke-opacity:1"/><path d="m1497.29 4843.55 24.71 20.46 50 26 119 60.5 23.5 17.5 26.5 28.5 209 281 25 34.524.030.5 22 14 16 10 22 5.5 19.5 2.5 50-6.5 26-8 9-5.5 94-70 30-22.5 20.5-5 29-4.5 104.511.019.5-6.0143.5-50.5 20.5-3.030.5 6.5 32.5 22 23 30 18 30.5 72 147 8.525.09.5 30 11 108.5-1.030.5-14.5 40-15.5 18.75-183.5 142.5-8.25.75-10.75-2.5-12.46-11.63" style="opacity:1;fill:none;fill-opacity:1;fill-rule:nonzero;stroke:#1e4ea2;stroke-width:5;stroke-linecap:butt;stroke-linejoin:round;stroke-miterlimit:4;stroke-dasharray:none;stroke-opacity:1"/><text x="1039.45" y="3206.96" xml:space="preserve" style="font-style:normal;font-weight:400;font-size:144px;line-height:125%;font-family:Sans;-inkscape-font-specification:Sans;letter-spacing:0;word-spacing:0;fill:#000;fill-opacity:1;stroke:none"><tspan x="1039.45" y="3206.96">2010</tspan></text><path style="opacity:1;fill:none;fill-opacity:1;fill-rule:nonzero;stroke:#1e4ea2;stroke-width:5;stroke-linecap:butt;stroke-linejoin:round;stroke-miterlimit:4;stroke-dasharray:none;stroke-opacity:1" d="M2529.34 5660.08 2621.5 5932l32 86.5v22l-4 36-13 22.5-13 16-17.5 17-18 8.5-24.5.5-29-5.5-16 2-17 11.5-12 17-4 27 30 217.5 3 56-3.5 38-12 47.5-134.5 412-6.5 34.5-5.5 42.5v41.5l5.558.0147.5 580.5v21.5l-2 25.5-7.5 58.5 1.5 22.557.0233.5 10.525.016.5 24.5 28.5 24.541.031.5 26 30 16 37.57.034.5-1 55"/><text style="font-style:normal;font-weight:400;font-size:144px;font-family:Sans;-inkscape-font-specification:Sans;fill:#000;fill-opacity:1;stroke:none" xml:space="preserve" y="8347.96" x="1039.45"/></svg>