<svg xmlns="http://www.w3.org/2000/svg" width="4950" height="3500"><path d="M1064 2364l26.5 24 18.5 13.5 41.5 21.5 37 15.5 46 13 179.5 45 24 3.5h24.5l82.5-7 23.5-1 106.25 21.5 27.25 1 25-6.25 192.5-84.5 27.25-8 47.75-10.25 82.25-23.25 24-7 19-7.5 11.25-9 9-21.5 11.5-56 10.25-35.75 10.25-16.75 23.125-15.25 24.125-4.5 76.5-1.25 19.11-4.283 29.142-11.993 21.813-9.588 24.7-15.731 26.656-21.896 8.329-15.759 22.25-72.5 18.75-38 17.75-23.5 14.75-14 25-13 62.5-31h15.75l25.5 1.5 53.75 22.5 32.5 20.75 22.5 4.25 44.75-1.5" fill="none" stroke="#0060a9" stroke-width="5" stroke-linejoin="round"/><path d="M2345.75 2112.25L2458 2061.5M2298.75 2140.25l32 66.5" fill="none" stroke="#f69323" stroke-width="5" stroke-linejoin="round"/><text x="89.453133" y="206.96094" style="line-height:125%;-inkscape-font-specification:Sans" font-weight="400" font-size="143.99993896px" font-family="Sans" letter-spacing="0" word-spacing="0"><tspan x="89.453133" y="206.96094">1925</tspan></text><text x="89.453377" y="3397.9609" style="line-height:125%;-inkscape-font-specification:Sans" font-weight="400" font-size="143.99993896px" font-family="Sans" letter-spacing="0" word-spacing="0"/></svg>