<?xml version="1.0" encoding="UTF-8" standalone="no"?>
<svg
   xmlns:dc="http://purl.org/dc/elements/1.1/"
   xmlns:cc="http://creativecommons.org/ns#"
   xmlns:rdf="http://www.w3.org/1999/02/22-rdf-syntax-ns#"
   xmlns:svg="http://www.w3.org/2000/svg"
   xmlns="http://www.w3.org/2000/svg"
   xmlns:xlink="http://www.w3.org/1999/xlink"
   version="1.1"
   id="svg2"
   width="4950"
   height="3500"
   viewBox="0 0 4950 3500">
  <metadata
     id="metadata8">
    <rdf:RDF>
      <cc:Work
         rdf:about="">
        <dc:format>image/svg+xml</dc:format>
        <dc:type
           rdf:resource="http://purl.org/dc/dcmitype/StillImage" />
        <dc:title></dc:title>
      </cc:Work>
    </rdf:RDF>
  </metadata>
  <defs
     id="defs6" />
  <path
     style="opacity:1;fill:none;fill-opacity:0.38;fill-rule:nonzero;stroke:#0060a9;stroke-width:5.0;stroke-linecap:butt;stroke-linejoin:round;stroke-miterlimit:4;stroke-dasharray:none;stroke-opacity:1"
     d="m 1864.45,2450.42 55.31,-24.49 27.13,-8.04 47.55,-10.3 81.9,-23.35 23.9,-7.03 18.92,-7.53 11.2,-9.04 8.96,-21.6 11.45,-56.25 10.21,-35.91 10.21,-16.82 23.03,-15.32 24.02,-4.52 76.17,-1.26 19.03,-4.3 29.02,-12.05 21.72,-9.63 24.59,-15.8 26.54,-21.99 8.29,-15.83 22.16,-72.82 18.67,-38.17 17.67,-23.61 14.69,-14.06 24.89,-13.06 62.23,-31.14 h 15.68 l 25.39,1.51 53.52,22.6 32.36,20.84 22.4,4.27 44.56,-1.51"
     id="path1387" />
  <image
     xlink:href="../basemap/naposm.png"
     style="display:none"
     y="26.32"
     x="75"
     id="image10"
     preserveAspectRatio="none"
     height="3573.68"
     width="4850" />
  <path
     style="opacity:1;fill:none;fill-opacity:0.38;fill-rule:nonzero;stroke:#f69323;stroke-width:5;stroke-linecap:butt;stroke-linejoin:round;stroke-miterlimit:4;stroke-dasharray:none;stroke-opacity:1"
     d="M 2345.75,2112.25 2458,2061.5"
     id="path1395" />
  <path
     style="opacity:1;fill:none;fill-opacity:0.38;fill-rule:nonzero;stroke:#f69323;stroke-width:5;stroke-linecap:butt;stroke-linejoin:round;stroke-miterlimit:4;stroke-dasharray:none;stroke-opacity:1"
     d="m 2318.5,2139.5 164.25,53.75"
     id="path1397" />
  <path
     style="opacity:1;fill:none;fill-opacity:0.38;fill-rule:nonzero;stroke:#f69323;stroke-width:5;stroke-linecap:butt;stroke-linejoin:round;stroke-miterlimit:4;stroke-dasharray:none;stroke-opacity:1"
     d="m 2298.75,2140.25 32,66.5"
     id="path1399" />
  <path
     style="opacity:1;fill:none;fill-opacity:0.38;fill-rule:nonzero;stroke:#f69323;stroke-width:5;stroke-linecap:butt;stroke-linejoin:round;stroke-miterlimit:4;stroke-dasharray:none;stroke-opacity:1"
     d="m 2074.25,2392.5 36,3.5 11.75,-2.5 32.25,-7.5"
     id="path1401" />
  <text
     x="89.45"
     y="206.96"
     id="text2992"
     xml:space="preserve"
     style="font-style:normal;font-weight:normal;font-size:144.0px;line-height:125%;font-family:Sans;-inkscape-font-specification:Sans;letter-spacing:0px;word-spacing:0px;fill:#000000;fill-opacity:1;stroke:none"><tspan
       x="89.45"
       y="206.96"
       id="tspan1">1945</tspan></text>
</svg>
