<svg xmlns="http://www.w3.org/2000/svg" width="4950" height="3500"><path d="M2144.178 2312.035l6.322-30.785 10.25-35.75 10.25-16.75 23.125-15.25 24.125-4.5 76.5-1.25 19.11-4.283 29.142-11.993 21.813-9.588 24.7-15.731 26.656-21.896 8.329-15.759 22.25-72.5 18.75-38 17.75-23.5 14.75-14 25-13 62.5-31h15.75l25.5 1.5 53.75 22.5 32.5 20.75 22.5 4.25 44.75-1.5" fill="none" stroke="#0060a9" stroke-width="5" stroke-linejoin="round"/><path d="M2462.371 2070.235l-42.029 19.167-127.842 69.848-71.625 41.5-66.125 45.375-27.5 19.5L1992 2346l-17.75 9.25L1942 2363l-79.75 22.5-5 3.25-15.25 39.5-8.5 10.25-15 8.75-53.75 18-76.75 36.375-117.375 56.625-10.25 2.125-25.794-1.996" fill="none" stroke="#92ceab" stroke-width="5" stroke-linejoin="round"/><path d="M2345.75 2112.25L2458 2061.5M2318.5 2139.5l164.25 53.75M2298.75 2140.25l32 66.5M2074.25 2392.5l36 3.5 11.75-2.5 32.25-7.5" fill="none" stroke="#f69323" stroke-width="5" stroke-linejoin="round"/><text x="89.453133" y="206.96094" style="line-height:125%;-inkscape-font-specification:Sans" font-weight="400" font-size="143.99993896px" font-family="Sans" letter-spacing="0" word-spacing="0"><tspan x="89.453133" y="206.96094">1950</tspan></text></svg>