<svg xmlns="http://www.w3.org/2000/svg" width="4950" height="3500"><path d="M1862.955 2448.132l55.545-24.382 27.25-8 47.75-10.25 82.25-23.25 24-7 19-7.5 11.25-9 9-21.5 11.5-56 10.25-35.75 10.25-16.75 23.125-15.25 24.125-4.5 76.5-1.25 19.11-4.283 29.142-11.993 21.813-9.588 24.7-15.731 26.656-21.896 8.329-15.759 22.25-72.5 18.75-38 17.75-23.5 14.75-14 25-13 62.5-31h15.75l25.5 1.5 53.75 22.5 32.5 20.75 22.5 4.25 44.75-1.5 164.25-20.5 11.967.87" fill="none" stroke="#0060a9" stroke-width="5" stroke-linejoin="round"/><path d="M2462.371 2070.235l-42.028 19.167-127.843 69.848-71.625 41.5-66.125 45.375-27.5 19.5L1992 2346l-17.75 9.25L1942 2363l-79.75 22.5-5 3.25-15.25 39.5-8.5 10.25-15 8.75-53.75 18-76.75 36.375-117.375 56.625-10.25 2.125-42-3.25-12.625-4.625-67-42.25-28.5-7-186.75-6.75-20-3.25-14.5-6.5-26.75-27.25-11.75-4.5-106.5-7.25-14.5-5.5-10.5-11.5-2.25-11.25.25-24.25-3.75-13L1001 2367l-20.75-21.25L953 2327l-26.25-8.75-18.5-12.5-35.5-26L857 2272l-26.75-3.5h-16.5l-13.75 3.75-27 22.25-13.5 7.25-20.25 4.5-91 7.5-19 5-65 27.25-19 12-39 25.25-16.5 14.25-36.5 51-12 13.25-23 23.75-12.75 11.25-18.5 9.75-16.5 1-23.5-2.25-32.75 1-12 3.25-75.75 33.5-18 11.75-25.5 27.5-19.25 14.25-37 17.5" fill="none" stroke="#92ceab" stroke-width="5" stroke-linejoin="round"/><path d="M2345.75 2112.25L2458 2061.5M2318.5 2139.5l164.25 53.75M2298.75 2140.25l32 66.5M2074.25 2392.5l36 3.5 11.75-2.5 32.25-7.5" fill="none" stroke="#f69323" stroke-width="5" stroke-linejoin="round"/><text x="89.453133" y="206.96094" style="line-height:125%;-inkscape-font-specification:Sans" font-weight="400" font-size="143.99993896px" font-family="Sans" letter-spacing="0" word-spacing="0"><tspan x="89.453133" y="206.96094">1960</tspan></text><path d="M1775.258 2458.62l19.233 227.556" fill="none" stroke="#000" stroke-width="5" stroke-linejoin="round"/></svg>