<?xml version="1.0" encoding="UTF-8" standalone="no"?>
<svg
   xmlns:dc="http://purl.org/dc/elements/1.1/"
   xmlns:cc="http://creativecommons.org/ns#"
   xmlns:rdf="http://www.w3.org/1999/02/22-rdf-syntax-ns#"
   xmlns:svg="http://www.w3.org/2000/svg"
   xmlns="http://www.w3.org/2000/svg"
   xmlns:xlink="http://www.w3.org/1999/xlink"
   version="1.1"
   width="3700"
   height="4450"
   viewBox="-60, -775, 3700, 4450"
   id="svg2">
  <metadata
     id="metadata3204">
    <rdf:RDF>
      <cc:Work
         rdf:about="">
        <dc:format>image/svg+xml</dc:format>
        <dc:type
           rdf:resource="http://purl.org/dc/dcmitype/StillImage" />
        <dc:title></dc:title>
      </cc:Work>
    </rdf:RDF>
  </metadata>
  <defs
     id="defs6" />
  <image
     xlink:href="../streetmap/bososm.png"
     id="image12"
     height="3995.077"
     width="3995.0769"
     y="-998.7639"
     x="2.220446e-16"
     style="display:none" />
  <path
     d="m 2215.458,1204.2949 12.852,5.186 9.1672,7.7747 9.7536,21.4579 30.2361,4.8768 48.7681,-8.7782 54.6202,-14.6304 20.5398,-13.4127 67.2426,-109.4828 7.5782,-12.7301"
     id="path3594"
     style="fill:none;stroke:#0e4c90;stroke-width:5;stroke-linecap:butt;stroke-linejoin:round;stroke-miterlimit:4;stroke-opacity:1;stroke-dasharray:none" />
  <path
     d="m 2276.4916,1697.1328 0,-40.9652 -4.8768,-164.8359 7.8029,-18.5318 47.7926,-84.8564 2.9261,-15.6058 -6.8275,-15.6058 -50.7188,-28.2854 -35.1129,-32.1869 -58.5217,-43.8912 -39.9898,-35.113 -15.6057,-6.8275 -102.4129,-12.6797 -229.2097,-23.4087 -15.6058,-6.8275 -77.0535,-63.3984 -53.6448,-28.2855 -36.0883,-41.9405 -25.3594,-11.7043 -14.6304,-2.4384"
     id="path2818"
     style="fill:none;stroke:#e02826;stroke-width:5;stroke-linecap:butt;stroke-linejoin:round;stroke-miterlimit:4;stroke-opacity:1;stroke-dasharray:none" />
  <path
     d="m 2175.4921,1397.9616 -0.6575,3.0259 32.9024,23.1105 12.1837,16.0273 53.1571,45.8419 129.2353,115.5803 119.4817,-1.4631 v 12.6797 l 93.6346,-1.463 -1.4631,-51.6942"
     id="path4961"
     style="fill:none;stroke:#008345;stroke-width:1;stroke-linecap:butt;stroke-linejoin:round;stroke-miterlimit:4;stroke-opacity:1;stroke-dasharray:none" />
  <path
     d="m 1806.8555,1902.9339 -2.4384,-118.5063 8.2905,-42.9159 12.6212,-36.615 14.2794,-24.6378 5.9891,-15.8011 80.2522,-58.0335 91.1962,-66.3246 110.7034,-80.9549 16.0934,-42.4282 23.4087,-15.1181 11.2166,-4.8768"
     id="path4963"
     style="fill:none;stroke:#008345;stroke-width:1;stroke-linecap:butt;stroke-linejoin:round;stroke-miterlimit:4;stroke-opacity:1;stroke-dasharray:none" />
  <path
     d="m 1782.2339,1392.3585 -272.3757,-47.3309 -20.4826,17.5565 -18.5318,10.729 -33.1623,-0.9754 -49.7434,34.1376 -18.5318,2.9261 -26.3348,-12.6797 -14.6304,6.8276 -7.8029,33.1622 -29.2608,54.6202 -18.5318,16.5811 -32.1869,0 -18.5319,3.9015 -22.4333,19.5072 -13.655,26.3347 -11.7044,5.8522 -39.0144,-23.4087 -42.9159,-7.8028 -34.1376,-0.9754 -35.113,0"
     id="path3598-87"
     style="fill:none;stroke:#008345;stroke-width:1;stroke-linecap:butt;stroke-linejoin:round;stroke-miterlimit:4;stroke-opacity:1;stroke-dasharray:none" />
  <path
     d="m 1828.5746,1397.0074 -5.6395,2.0755 -111.2598,40.0166"
     id="path3599"
     style="fill:none;stroke:#008345;stroke-width:1;stroke-linecap:butt;stroke-linejoin:round;stroke-miterlimit:4;stroke-opacity:1;stroke-dasharray:none" />
  <path
     d="m 1711.6753,1439.0995 -188.1621,68.8133 -41.9405,14.6304 -29.2608,12.6797 -65.3492,5.8522 -82.9056,30.2362 -36.0883,9.7536 -45.842,12.6797"
     id="path3602-1"
     style="fill:none;stroke:#008345;stroke-width:1;stroke-linecap:butt;stroke-linejoin:round;stroke-miterlimit:4;stroke-opacity:1;stroke-dasharray:none" />
  <path
     d="m 2092.9069,2607.8043 19.7241,-3.58626 26.3347,0.9754 25.3594,-0.9754 21.458,-6.8275 20.4825,-17.5565 47.7927,-45.8419 0.9754,-21.458 -16.5812,-50.7187 -40.9651,-79.0042 -19.5072,-118.994 -9.7536,-54.6202 6.8275,-32.1869 19.5072,-18.5319 38.0391,-13.655 25.3593,0 20.4826,-3.9014 9.7536,-13.6551 2.9261,-19.5072 14.6304,-97.5361 12.6797,-37.0637 15.6058,-56.5709 -0.9754,-89.7332 -13.655,-38.039 -19.5073,-25.3594 -32.1869,-37.0637 -0.9753,-9.7536 9.7536,-18.5319 0,-41.9405"
     id="path2818-5"
     style="fill:none;stroke:#e02826;stroke-width:5;stroke-linecap:butt;stroke-linejoin:round;stroke-miterlimit:4;stroke-opacity:1;stroke-dasharray:none" />
  <path
     d="m 1827.7194,1396.8281 -142.0269,51.5761"
     id="path3599-3"
     style="fill:none;stroke:#008345;stroke-width:5;stroke-linecap:butt;stroke-linejoin:round;stroke-miterlimit:4;stroke-opacity:1;stroke-dasharray:none" />
  <path
     d="m 2186.2707,1339.1755 -8.7782,59.0093"
     id="path5012"
     style="fill:none;stroke:#008345;stroke-width:5;stroke-linecap:butt;stroke-linejoin:round;stroke-miterlimit:4;stroke-opacity:1;stroke-dasharray:none" />
  <text
     x="29.453178"
     y="-568.0391"
     id="text10393"
     xml:space="preserve"
     style="font-size:143.99993896px;font-style:normal;font-weight:normal;fill:#000000;fill-opacity:1;stroke:none;font-family:Sans;-inkscape-font-specification:Sans"><tspan
       x="29.453178"
       y="-568.0391"
       id="tspan1">1945</tspan></text>
  <path
     d="m 1223.8448,1608.3749 -10.4958,-8.9373 0.8402,-4.4826 7.9378,-1.2101"
     id="path3424"
     style="fill:none;stroke:#008345;stroke-width:1;stroke-linecap:butt;stroke-linejoin:round;stroke-miterlimit:4;stroke-opacity:1;stroke-dasharray:none" />
  <path
     d="m 1509.8582,1345.5153 c -1.9507,0 -151.6686,-20.9703 -151.6686,-20.9703 l -143.378,71.2014 H 1072.409 l -29.2609,-20.9703 -28.8968,-5.7721 -10.814,5.3384 -9.81972,3.4728 -13.2488,-2.2732 -101.28511,-65.147 -26.38054,-7.5865 -1.63246,-29.09 -27.37866,-14.5226 -13.16737,-71.689 -0.48768,-27.3101"
     id="path4449"
     style="fill:none;stroke:#008345;stroke-width:1;stroke-linecap:butt;stroke-linejoin:round;stroke-miterlimit:4;stroke-opacity:1;stroke-dasharray:none" />
  <path
     d="m 2022.8978,1385.9922 1.9508,14.6304 -2.9261,19.5072 -75.1028,86.8071 -15.6058,11.7043 -23.2093,12.5055"
     id="path3603"
     style="fill:none;stroke:#008345;stroke-width:5;stroke-linecap:butt;stroke-linejoin:round;stroke-miterlimit:4;stroke-opacity:1;stroke-dasharray:none" />
  <path
     d="m 2262.8262,1211.4261 -0.4771,19.9722 -11.2167,2.4384"
     id="path3880"
     style="fill:none;stroke:#008345;stroke-width:5;stroke-linecap:butt;stroke-linejoin:round;stroke-miterlimit:4;stroke-dasharray:none;stroke-opacity:1" />
  <path
     d="m 2040.4543,1056.3209 29.2608,8.7782 96.5607,65.3492 25.3655,11.2171 13.1674,17.5565 27.4258,-20.1519 31.4568,43.4124 -0.8657,28.943 -17.5456,9.7317 5.8522,12.6797 -22.4333,37.0637 -27.3101,35.113 -15.6057,33.1623 -29.2609,-0.9754 -211.0924,74.7816 -9.3975,0.5163 -23.3502,-4.0966 h -29.704 l -6.4983,-2.7045 -9.7449,-7.8052 -5.463,-2.7907 -53.9317,0.6207 -25.1122,-4.3633"
     id="path3598"
     style="fill:none;stroke:#008345;stroke-width:5;stroke-linecap:butt;stroke-linejoin:round;stroke-miterlimit:4;stroke-dasharray:none;stroke-opacity:1" />
  <path
     style="opacity:1;fill:none;fill-opacity:1;fill-rule:nonzero;stroke:#ef8b22;stroke-width:5;stroke-linecap:butt;stroke-linejoin:round;stroke-miterlimit:4;stroke-dasharray:none;stroke-opacity:1"
     d="m 1956.0858,1705.9107 3.9653,-0.1614 7.3735,1.6678 8.4269,-28.0896"
     id="path831" />
  <path
     style="fill:none;stroke:#008345;stroke-width:1;stroke-linecap:butt;stroke-linejoin:round;stroke-miterlimit:4;stroke-dasharray:none;stroke-opacity:1"
     d="m 1647.9012,2125.7413 -12.2212,-0.4256 -12.3715,-5.8658 -2.2589,-51.1928 -8.7783,-27.3101 -0.9753,-37.5514 11.7043,-23.8963 5.3645,-38.5268 -0.4877,-40.4774 26.3347,-47.305 1.4631,-10.729 -8.7783,-60.4723 5.8522,-29.2609 18.0445,-39.0136 -20.4998,-57.3511 10.7462,-7.998 11.0834,-8.7605 11.8106,-2.7311 27.7823,-0.1698 5.8946,-2.969 190.394,-102.5881"
     id="path3302" />
  <path
     style="fill:none;stroke:#008345;stroke-width:1;stroke-linecap:butt;stroke-linejoin:round;stroke-miterlimit:4;stroke-dasharray:none;stroke-opacity:1"
     id="path5635-6"
     d="m 2225.6209,1053.772 24.1281,-25.7367 39.2197,-42.58122 -8.5478,-9.8347 -5.1076,-10.8565 -5.5634,-5.0063 -50.347,-21.3802 -111.345,-75.03811" />
  <path
     style="fill:none;stroke:#008345;stroke-width:1px;stroke-linecap:butt;stroke-linejoin:round;stroke-opacity:1"
     id="path3008-7"
     d="m 2225.6595,1034.6539 3.8432,-6.374 -0.8734,-7.4244 -7.6428,-7.8612 -16.8141,-16.81402 -13.0069,-12.2661" />
  <path
     style="fill:none;stroke:#008345;stroke-width:1;stroke-linecap:butt;stroke-linejoin:round;stroke-miterlimit:4;stroke-dasharray:none;stroke-opacity:1"
     id="path5040-5"
     d="m 2233.0876,1142.1535 0.2908,-7.4339 7.4183,-5.4587 11.5875,-8.5706 1.7803,-3.8787 -29.004,-58.8942 0.499,-23.2635 -1.5816,-6.0959 -20.6278,-22.1491 -12.2846,-22.49472 -43.759,-48.6742 -33.5127,-47.86091 -5.8359,-24.0408 -22.671,-18.2395 -9.3427,-11.51206" />
  <path
     d="m 1634.0692,2147.2131 88.4178,-125.7727 132.9603,-181.4544 65.9454,-70.1678 17.1366,-51.715 17.5565,-12.192 10.2413,-17.5565 18.0442,-16.5811 27.3101,-43.4035 59.9847,-61.9354 50.7187,-46.8173 30.2362,-19.5072 20.9702,-24.3841 14.6305,-36.576 9.6101,-23.0413 10.8378,-51.7706 4.4237,-19.3104 1.9508,-18.5318 8.7782,-13.6551 38.0391,-50.7187 4.8768,-16.5812 1.9507,-64.3738 -32.3687,-44.9631 18.279,-13.465 2.8731,-5.9457 -29.2609,-59.497 -6.8275,-27.31 -20.4826,-21.9457 -12.192,-22.43325 -43.4035,-48.2803 -34.1376,-48.76803 -5.8522,-23.89633 -21.9784,-17.43056 -12.7008,-15.97061 16.497,-15.04656 43.5046,-75.6854 57.7485,-103.35428"
     id="path3596"
     style="fill:none;stroke:#ef8b22;stroke-width:5;stroke-linecap:butt;stroke-linejoin:round;stroke-miterlimit:4;stroke-dasharray:none;stroke-opacity:1" />
  <path
     style="opacity:1;fill:none;fill-opacity:1;fill-rule:nonzero;stroke:#ba9283;stroke-width:5;stroke-linecap:butt;stroke-linejoin:round;stroke-miterlimit:4;stroke-dasharray:none;stroke-opacity:1"
     d="m 1739.4141,-8.454859 -0.8243,-14.01284 0.8243,-20.0576 3.5719,-33.52092 -2.1981,-34.070451 -5.4953,-14.83713 -11.2652,-17.30998 -3.0224,-15.93618 3.5719,-12.91379 7.1438,-31.87236 -1.6485,-11.81475 -6.8691,-15.66141 -1.6485,-29.94902 2.1981,-14.28761 17.5847,-40.38996 14.0129,-33.52096 -1.6486,-15.3866 0.681,-8.5567 2.8628,-8.6217 3.8748,-5.6268 10.7633,-7.893 3.7989,-7.2189"
     id="path919" />
  <path
     style="opacity:1;fill:none;fill-opacity:1;fill-rule:nonzero;stroke:#ba9283;stroke-width:1;stroke-linecap:butt;stroke-linejoin:round;stroke-miterlimit:4;stroke-dasharray:none;stroke-opacity:1"
     d="m 1775.6825,-401.91352 7.9681,-29.6743 -7.4186,-72.53709 9.6167,-103.0356 1.099,-106.88235"
     id="path921" />
  <path
     style="opacity:1;fill:none;fill-opacity:1;fill-rule:nonzero;stroke:#ba9283;stroke-width:1;stroke-linecap:butt;stroke-linejoin:round;stroke-miterlimit:4;stroke-dasharray:none;stroke-opacity:1"
     d="m 1739.4141,-8.454859 12.3642,37.64235 16.211,40.66473 6.8689,18.13426 -2.7476,17.309989 -5.2204,21.43141 -16.4857,42.03853 v 4.39619 l 2.4729,18.40903 5.2205,11.26523 14.0127,9.89142 27.7509,7.41856 28.85,2.19809 32.1471,10.16618 30.2237,2.47286 12.0895,4.12142 18.1343,11.81476 12.639,3.02237 6.8691,7.96809 4.3961,11.26523 -1.099,40.1152 3.5719,19.508 18.409,37.9172 -0.2747,16.4857 -6.3195,32.42176 v 23.3548 l 6.869,23.6295 23.3546,39.8404 3.8467,18.9586 -0.2748,12.3642 -4.1214,18.6838 -39.1965,148.5575 2.2176,9.7639 104.9392,112.7703 9.52,9.3257 6.3075,2.232 6.6102,7.9748"
     id="path923" />

  <path
     style="fill:none;stroke:#e02826;stroke-width:1;stroke-linecap:butt;stroke-linejoin:round;stroke-miterlimit:4;stroke-dasharray:none;stroke-opacity:1"
     d="m 2092.9069,2607.8043 -33.9207,6.1674 -104.8501,34.1671 -13.9202,0.1979 -30.4599,-7.0549 -14.6304,0.9754 -20.4826,6.8275"
     id="path857" />
</svg>
