<?xml version="1.0" encoding="UTF-8" standalone="no"?>
<svg
   xmlns:dc="http://purl.org/dc/elements/1.1/"
   xmlns:cc="http://creativecommons.org/ns#"
   xmlns:rdf="http://www.w3.org/1999/02/22-rdf-syntax-ns#"
   xmlns:svg="http://www.w3.org/2000/svg"
   xmlns="http://www.w3.org/2000/svg"
   xmlns:xlink="http://www.w3.org/1999/xlink"
   id="svg2"
   viewBox="-60, -775, 3700, 4450"
   height="4450"
   width="3700"
   version="1.1">
  <metadata
     id="metadata6231">
    <rdf:RDF>
      <cc:Work
         rdf:about="">
        <dc:format>image/svg+xml</dc:format>
        <dc:type
           rdf:resource="http://purl.org/dc/dcmitype/StillImage" />
        <dc:title></dc:title>
      </cc:Work>
    </rdf:RDF>
  </metadata>
  <defs
     id="defs6" />
  <image
     xlink:href="../streetmap/bososm.png"
     id="image12"
     height="3995.077"
     width="3995.0769"
     y="-998.7639"
     x="-249.6932"
     style="display:none" />
  <path
     style="fill:none;stroke:#0e4c90;stroke-width:5;stroke-linecap:butt;stroke-linejoin:round;stroke-miterlimit:4;stroke-opacity:1;stroke-dasharray:none"
     id="path3594"
     d="m 2215.4572,1204.2946 12.8521,5.1869 9.1679,7.7739 9.7536,21.4579 30.2361,4.8768 48.7681,-8.7782 54.6202,-14.6304 20.5401,-13.4125 67.2423,-109.483 36.7891,-47.0558 6.6411,-5.3476 15.5706,-5.1251 20.9788,-2.9438 11.7043,-4.8768 86.8071,-101.4375 30.2362,-16.5812 h 40.9651 l 16.5812,-1.9507 66.3245,-69.25058 120.9447,-52.66947 33.1622,-32.1869 56.571,-112.16646 10.7289,-39.01443 -15.6057,-138.5012 3.9014,-39.98978 15.6058,-43.89123" />
  <path
     style="fill:none;stroke:#e02826;stroke-width:5;stroke-linecap:butt;stroke-linejoin:round;stroke-miterlimit:4;stroke-opacity:1;stroke-dasharray:none"
     id="path2818"
     d="m 2092.9069,2607.8043 19.7241,-3.58626 26.3347,0.9754 25.3594,-0.9754 21.458,-6.8275 20.4825,-17.5565 47.7927,-45.8419 0.9754,-21.458 -16.5812,-50.7187 -40.9651,-79.0042 -19.5072,-118.994 -9.7536,-54.6202 6.8275,-32.1869 19.5072,-18.5319 38.0391,-13.655 25.3593,0 20.4826,-3.9014 9.7536,-13.6551 2.9261,-19.5072 14.6304,-97.5361 12.6797,-37.0637 15.6058,-56.5709 -0.9754,-89.7332 -13.655,-38.039 -19.5073,-25.3594 -32.1869,-37.0637 -0.9753,-9.7536 9.7536,-18.5319 0,-41.9405 -4.8768,-164.8359 7.8029,-18.5318 47.7926,-84.8564 2.9261,-15.6058 -6.8275,-15.6058 -50.7188,-28.2854 -35.1129,-32.1869 -58.5217,-43.8912 -39.9898,-35.113 -15.6057,-6.8275 -102.4129,-12.6797 -229.2097,-23.4087 -15.6058,-6.8275 -77.0535,-63.3984 -53.6448,-28.2855 -36.0883,-41.9405 -25.3594,-11.7043 -14.6304,-2.4384" />
  <path
     style="fill:none;stroke:#008345;stroke-width:5;stroke-linecap:butt;stroke-linejoin:round;stroke-miterlimit:4;stroke-opacity:1;stroke-dasharray:none"
     id="path3880"
     d="m 2262.8256,1211.4254 -2.0288,8.2481 -9.6646,14.1633" />
  <path
     style="fill:none;stroke:#008345;stroke-width:1;stroke-linecap:butt;stroke-linejoin:round;stroke-miterlimit:4;stroke-opacity:1;stroke-dasharray:none"
     id="path3598-87"
     d="m 1782.2339,1392.3585 -272.3757,-47.3309 -20.4826,17.5565 -18.5318,10.729 -33.1623,-0.9754 -49.7434,34.1376 -18.5318,2.9261 -26.3348,-12.6797 -14.6304,6.8276 -7.8029,33.1622 -29.2608,54.6202 -18.5318,16.5811 -32.1869,0 -18.5319,3.9015 -22.4333,19.5072 -13.655,26.3347 -11.7044,5.8522 -39.0144,-23.4087 -42.9159,-7.8028 -34.1376,-0.9754 -35.113,0" />
  <path
     style="fill:none;stroke:#008345;stroke-width:5;stroke-linecap:butt;stroke-linejoin:round;stroke-miterlimit:4;stroke-opacity:1;stroke-dasharray:none"
     id="path3598"
     d="m 2040.4543,1056.3209 29.2608,8.7782 96.5607,65.3492 25.3655,11.2171 13.1674,17.5565 27.4258,-20.1519 31.4568,43.4124 -0.8657,28.943 -17.5456,9.7317 5.8522,12.6797 -22.4333,37.0637 -27.3101,35.113 -15.6057,33.1623 -29.2609,-0.9754 -211.0924,74.7816 -9.3975,0.5163 -23.3502,-4.0966 h -29.704 l -6.4983,-2.7045 -9.7449,-7.8052 -5.463,-2.7907 -53.9317,0.6207 -25.1122,-4.3633" />
  <path
     style="fill:none;stroke:#008345;stroke-width:1;stroke-linecap:butt;stroke-linejoin:round;stroke-miterlimit:4;stroke-opacity:1;stroke-dasharray:none"
     id="path3602-1"
     d="m 1711.6753,1439.0995 -188.1621,68.8133 -41.9405,14.6304 -29.2608,12.6797 -65.3492,5.8522 -82.9056,30.2362 -36.0883,9.7536 -45.842,12.6797" />
  <path
     style="fill:none;stroke:#008345;stroke-width:5;stroke-linecap:butt;stroke-linejoin:round;stroke-miterlimit:4;stroke-opacity:1;stroke-dasharray:none"
     id="path3599"
     d="m 1827.7194,1396.8281 -142.0269,51.5761" />
  <path
     style="fill:none;stroke:#008345;stroke-width:5;stroke-linecap:butt;stroke-linejoin:round;stroke-miterlimit:4;stroke-opacity:1;stroke-dasharray:none"
     id="path3603"
     d="m 2022.8975,1385.9924 1.9508,14.6304 -2.9261,19.5072 -75.1028,86.8071 -15.6058,11.7043 -23.2093,12.5055" />
  <path
     style="fill:none;stroke:#008345;stroke-width:5;stroke-linecap:butt;stroke-linejoin:round;stroke-miterlimit:4;stroke-opacity:1;stroke-dasharray:none"
     id="path3604"
     d="m 1769.3041,1419.155 -3.9015,9.7536 -13.655,12.6797 -74.1274,62.4231 -18.5319,32.1869 -10.7289,42.9159 -21.458,43.8912 -39.0144,32.1869 -71.2013,12.6797 -55.5956,0 -51.6941,-11.7044 -68.2752,-49.7433 -22.4333,-9.7537 -28.2855,-1.9507 -38.039,10.729 -27.3101,5.8522 -150.2055,118.9939 -23.4087,6.8276 -23.4087,0 -114.11714,-29.2608 -106.3143,-27.3101 -30.23618,0.9753 -35.11298,12.6797 -148.25481,100.4621 -19.50721,30.2362 -33.16226,39.0144 -17.55649,8.7783 -17.55649,3.9014 -25.35938,-6.8275 -168.73738,-109.2404 -39.98978,-36.0883 -19.50721,-17.5565 -199.948919,-135.5751 -3.930726,1.6379 -9.310448,21.1037" />
  <path
     style="fill:none;stroke:#008345;stroke-width:1;stroke-linecap:butt;stroke-linejoin:round;stroke-miterlimit:4;stroke-opacity:1;stroke-dasharray:none"
     id="path3600-8"
     d="m 1647.9012,2125.7413 -12.2212,-0.4256 -12.3715,-5.8658 -2.2589,-51.1928 -8.7783,-27.3101 -0.9753,-37.5514 11.7043,-23.8963 5.3645,-38.5268 -0.4877,-40.4774 26.3347,-47.305 1.4631,-10.729 -8.7783,-60.4723 5.8522,-29.2609 18.0445,-39.0136 -20.4998,-57.3511 10.7462,-7.998 11.0834,-8.7605 11.8106,-2.7311 27.7823,-0.1698 5.8946,-2.969 190.394,-102.5881" />
  <text
     style="font-size:143.99993896px;font-style:normal;font-weight:normal;fill:#000000;fill-opacity:1;stroke:none;font-family:Sans;-inkscape-font-specification:Sans"
     xml:space="preserve"
     id="text10393"
     y="-568.0391"
     x="29.453178"><tspan
       id="tspan1"
       y="-568.0391"
       x="29.453178">1970</tspan></text>
  <path
     style="fill:none;stroke:#ef8b22;stroke-width:5;stroke-linecap:butt;stroke-linejoin:round;stroke-miterlimit:4;stroke-dasharray:none;stroke-opacity:1"
     id="path3596"
     d="m 1634.069,2147.2129 88.4178,-125.7727 132.9603,-181.4544 65.9454,-70.1678 17.1366,-51.715 17.5565,-12.192 10.2413,-17.5565 18.0442,-16.5811 27.3101,-43.4035 59.9847,-61.9354 50.7187,-46.8173 30.2362,-19.5072 20.9702,-24.3841 14.6305,-36.576 9.6101,-23.0413 10.8378,-51.7706 4.4237,-19.3104 1.9508,-18.5318 8.7782,-13.6551 38.0391,-50.7187 4.8768,-16.5812 1.9507,-64.3738 -32.3691,-44.9635 18.2794,-13.4646 2.8731,-5.9457 -29.2609,-59.497 -6.8275,-27.31 -20.4826,-21.9457 -12.192,-22.43326 -43.4035,-48.2803 -34.1376,-48.76803 -5.8522,-23.89633 -21.9784,-17.43056 -12.7008,-15.97061 16.497,-15.04656 43.5046,-75.6854 57.7485,-103.35427" />

  <path
     id="path831"
     d="m 1956.0858,1705.9107 3.9653,-0.1614 7.3735,1.6678 8.4269,-28.0896"
     style="opacity:1;fill:none;fill-opacity:1;fill-rule:nonzero;stroke:#ef8b22;stroke-width:5;stroke-linecap:butt;stroke-linejoin:round;stroke-miterlimit:4;stroke-dasharray:none;stroke-opacity:1" />

  <path
     style="fill:none;stroke:#e02826;stroke-width:1;stroke-linecap:butt;stroke-linejoin:round;stroke-miterlimit:4;stroke-dasharray:none;stroke-opacity:1"
     d="m 2092.9069,2607.8043 -33.9207,6.1674 -104.8501,34.1671 -13.9202,0.1979 -30.4599,-7.0549 -14.6304,0.9754 -20.4826,6.8275"
     id="path857" />
</svg>
