<svg xmlns="http://www.w3.org/2000/svg" width="9200" height="8850" viewBox="-1900 -1050 9200 8850"><path d="M2030.575 3262.132l-1.174-42.426-4.892-100.234-26.09-81.103-19.245-56.674-4.283-25.673-10.739-332.22.336-16.443 4.958-17.097 9.257-11.386 19.852-18.4 7.782-20.23-.711-52.844 1.279-107.873 5.074-43.107-13.598-522.03-3.3-115.345 9.832-34.876 1.649-21.526-2.426-18.78-11.434-22.988-2.71-79.778 2.684-17.45 4.363-10.738 69.464-111.412 5.146-17.701 20.232-116.936 1.932-129.028 6.064-18.528 10.251-23.852 10.04-17.265 12.238-10.906 16.032-7.78 51.807-9.559 17.833-10.867 12.186-14.43 3.02-19.127-8.389-37.585" fill="none" stroke="#1f2676" stroke-width="5" stroke-linejoin="round"/><text x="-1810.5469" y="-843.03906" style="-inkscape-font-specification:Sans" font-weight="400" font-size="144px" font-family="Sans"><tspan x="-1810.5469" y="-843.03906">2010</tspan></text><text x="-1810.5469" y="7697.9609" style="-inkscape-font-specification:Sans" font-weight="400" font-size="144px" font-family="Sans"/></svg>