<svg xmlns="http://www.w3.org/2000/svg" width="3000" height="4350" viewBox="-100, -300, 3000, 4350"><path d="m1010.5 982.8 20.5-2 312-39.5 142-17.5 19.5-.5 20 3 44.50.542.5-1 6 3 12 28.5 11 57 17.5 72 28 134.5 7.5 33 41 155.5 5 25v22.5l46.5 200.526.050.5 53 291 24 25 124 118.536.060.5 17.5 29 22 81" style="fill:none;stroke:#00a767;stroke-width:5;stroke-linecap:butt;stroke-linejoin:round;stroke-miterlimit:4;stroke-opacity:1;stroke-dasharray:none"/><path d="m2347.41 1439.78 2.59-14.48 7-22.5 28.5-90.015.5-37.021.5-90-1.5-25-31.5-205-7-9.5-35-21-25-10.5-21-10-43-34-17.5-21.5-13.5-18.5-190-182.5-14.5-11" style="fill:none;stroke:#252982;stroke-width:5;stroke-linecap:butt;stroke-linejoin:round;stroke-miterlimit:4;stroke-opacity:1;stroke-dasharray:none"/><path d="m1496.05 448.04-0.5524.76-10.0168.5-5.032.5-12.5 44.5-29.0115.5-9.018.5-27.08.5-21 4-19-1-33-7-31.5-7.5-14 3-10 5-6 10.5 13 93 1.5 21.5-8.5 42-5.5 25 4 26.5 29.5 118.5 12.5 25.5 5.5 23-1 35.5 6 162 4.522.017.5 22.5 18.5 5.5 25 10 15 14.5 14.526.05.5 28-1.5 25.5-36.0149.5-24.0119.5-46.0201.5-98.0415.5" style="fill:none;stroke:#fbb416;stroke-width:5;stroke-linecap:butt;stroke-linejoin:round;stroke-miterlimit:4;stroke-opacity:1;stroke-dasharray:none"/><path d="m467 1035.8 7.5 121 6 47.5 13 22 45 14.5 36.5 7.5 46.5 9H639l133.5-37 171-48.5 71.5-20 32-12 126.5-41.0305.5-86 18-8 45.5-38.5 34-26.5 37.5-9 24-10.5 45-22 32-33.5 40-36.5 31.5-23.5 27.5-14 17-7 32-28 16.5-6.014.5-8.5 21.5-23.027.5-22.028.5-28 66-30.5 73.5-23 112-27 35.5-12" style="fill:none;stroke:#dc1a32;stroke-width:5;stroke-linecap:butt;stroke-linejoin:round;stroke-miterlimit:4;stroke-opacity:1;stroke-dasharray:none"/><text x="-10.55" y="-93.04" xml:space="preserve" style="font-size:144px;font-style:normal;font-weight:400;line-height:125%;letter-spacing:0;word-spacing:0;fill:#000;fill-opacity:1;stroke:none;font-family:Sans;-inkscape-font-specification:Sans"><tspan x="-10.55" y="-93.04">2005</tspan></text><path d="m1588.91 820.44 10.24-17.07 19.64-37.14" style="fill:none;stroke:#679a01;stroke-width:5;stroke-linecap:butt;stroke-linejoin:round;stroke-miterlimit:4;stroke-opacity:1;stroke-dasharray:none"/><path d="m1632.14 743.82 117.72-131.6 101.19-27.49" style="fill:none;stroke:#000;stroke-width:5;stroke-linecap:butt;stroke-linejoin:round;stroke-miterlimit:4;stroke-opacity:1;stroke-dasharray:none"/><path d="m2356 3587.3-10-63.5-12-77-17-108-55-330-36.5-244-18.5-134-2.5-9.5-98-265.5-14-47-3.22-11.44" style="fill:none;stroke:#252982;stroke-width:5;stroke-linecap:butt;stroke-linejoin:round;stroke-miterlimit:4;stroke-opacity:1;stroke-dasharray:none"/></svg>