<svg xmlns="http://www.w3.org/2000/svg" width="1550" height="3000"><path d="M953.5 2707.5l49.5 45 4 10.5-2 13-4 9-12.5 7.5L865 2811l-40 14.5h-15.5l-28.5-7-17.5 2.5-37.5 14.5-36.5 5.5-17-6-11.5-6.5-20.5-27.5-23-11-9-12-16.5-14-18-7-28-2.5-23-7.5-59.5-32.5-64-45.5-27-5-36-17.5-35-27-46-15.5-43.5-36.5-6-9.5-6-21-28-21-5-10.5-.5-10.5 4-15.5 13.5-12 12.5-16 11.5-46 4.5-44.5-2.5-34.5 2-64 15-209-3-32.5 13-60-4.5-33-3-47.5-10.5-42 7-64 2-33 40-232.5 18.5-84 9-111.5 10-34.5 76.5-42 6-9 44.5-143.5 76-306 4.5-6 71-38.5 232-80.5 52-19 20.5-17 13-23 1-20.5L887 352l6.5-67-6-72 22-88" fill="none" stroke="#24268b" stroke-width="5" stroke-linejoin="round"/><path d="M1414.99 1038.798l-36.944 22.245-10.726 1.59-11.52-5.562-88.189-143.406-8.342-5.561-61.97-13.11-12.315 2.781-170.816 108.448-8.739 11.918-2.78 10.726 4.766 18.67 29.794 124.338 4.271 20.822-1.588 7.847-5.883 7.321-12.233 2.207-33.729-5.66-29.06-7.594-37.615-3.007-35.451-9.221-39.418-3.622" fill="none" stroke="green" stroke-width="5" stroke-linejoin="round"/><text style="line-height:125%;-inkscape-font-specification:Sans" y="206.96094" x="89.453133" font-weight="400" font-size="143.99993896px" font-family="Sans" letter-spacing="0" word-spacing="0"><tspan y="206.96094" x="89.453133">2020</tspan></text></svg>