<svg xmlns="http://www.w3.org/2000/svg" viewBox="-50 -50 2650 4100" height="4100" width="2650"><path d="M82.208 3585.895l24.835-73.73 11.253-42.296 9.314-50.447 8.925-33.76 19.79-43.073 34.148-58.595 86.535-150.175 35.7-61.311 17.074-31.044 22.507-35.312 17.85-24.06 30.268-33.76 10.09-16.685 13.193-27.164 7.76-25.223 5.822-35.312 20.178-102.833 7.761-24.059 10.477-21.342 19.403-28.328 19.402-22.119 22.119-14.357 26.387-14.358 26.775-18.238 25.223-21.343 27.94-29.88 23.67-32.984 32.02-44.436 16.644-16.16 21.69-18.157 26.42-17.519 11.494-14.465 8.016-20.994-.788-15.323 2.471-12.433 12.418-13.97 11.253-15.91 11.642-13.97 5.432-10.089 10.866-17.462 10.477-11.253 19.79-11.254 16.298-7.373 18.627-8.537 12.454-3.055 18.68.96 17.993 10.193 6.825 2.092 8.015 1.603 71.877 4.796 14.718.873 17.85-4.656 86.535-31.82 17.85-4.657M516.254 424.562l-84.415 158.62-15.522 28.716-13.582 34.148-4.656 32.984-3.88 32.984-4.657 19.402-8.537 24.06-6.985 13.193-23.283 35.7-18.626 28.328-9.313 29.88-1.165 24.834 6.21 26 11.253 21.342 15.521 25.223 17.463 18.627 26.387 20.178 18.626 11.253 65.58 26.776 75.67 32.208 12.029 10.477 15.91 16.686 13.194 23.671 43.849 92.355 5.433 16.298 3.492 22.119 2.328 39.193 5.433 20.178 11.641 24.06 13.97 17.073 19.79 14.746 22.895 11.254 21.731 5.82 29.104.776 26.387 2.717 34.536 12.417 51.998 22.119 37.253 21.73 36.088 28.716 37.253 22.507 17.85 14.358 12.03 18.238 10.865 22.119 17.85 67.132 7.761 29.103 11.254 22.12 13.193 17.85 10.866 9.7 15.133 15.134 9.702 19.015 13.97 30.655 17.073 24.447 11.642 14.746 10.477 22.895 8.925 24.835.817 22.497-.628 51.681 5.075 20.398-1.96 20.924-6.995 15.155-13.76 11.978-17.861 5.831-25.78 6.796-49.113 21.302-19.79 9.701-22.997 10.095" fill="none" stroke="#7b2181" stroke-width="5" stroke-linejoin="round"/><text x="39.453144" y="156.96092" style="line-height:125%;-inkscape-font-specification:Sans" font-weight="400" font-size="143.99989319px" font-family="Sans" letter-spacing="0" word-spacing="0"><tspan x="39.453144" y="156.96092">1960</tspan></text><text x="39.45314" y="3947.9604" style="line-height:125%;-inkscape-font-specification:Sans" font-weight="400" font-size="143.99989319px" font-family="Sans" letter-spacing="0" word-spacing="0"/><path d="M1191.275 1882.947l6.124-15.422 9.76-11.158 29.491-11.642 24.447-1.552 128.832-1.552 27.94-2.717 38.804-9.313 19.79-4.656 20.955-11.254 114.086-27.939 40.357-12.03 29.104-13.193 39.192-23.283 29.104-22.895 20.179-19.79 90.415-86.923 41.52-42.685 7.762-9.701 17.074-35.7 2.716-22.896-.388-36.864 4.269-19.014 7.373-17.462 12.805-28.716 3.493-18.238 7.373-43.85 8.149-21.342 12.417-18.627 16.298-17.462 29.88-17.85 13.97-4.268 7.76-.388 21.731 5.432 102.354 26.039 56.234.24 21.376-7.48 18.436-12.826 30.193-21.375 20.574-13.093 4.275-5.077 4.81-7.748 1.791-18.56-.051-11.52.388-27.552-6.209-74.117-1.552-24.835 2.328-21.73 4.615-15.383" fill="none" stroke="#7b2181" stroke-width="5" stroke-linejoin="round"/></svg>