<svg xmlns="http://www.w3.org/2000/svg" viewBox="-50 -50 2650 4150" height="4150" width="2650"><path d="m82.21 3585.89 24.84-73.73 11.25-42.3 9.31-50.45 8.93-33.76 19.79-43.07 34.15-58.6 86.53-150.17 35.7-61.31 17.07-31.04 22.51-35.31 17.85-24.06 30.27-33.76 10.09-16.69 13.19-27.16 7.76-25.22 5.82-35.31 20.18-102.83 7.76-24.06 10.48-21.34 19.4-28.33 19.4-22.12 22.12-14.36 26.39-14.36 26.78-18.24 25.22-21.34 27.94-29.88 23.67-32.98 32.02-44.44 16.64-16.16 21.69-18.16 26.42-17.52 11.49-14.47 8.02-20.99-.79-15.32 2.47-12.43 12.42-13.97 11.25-15.91 11.64-13.97 5.43-10.09 10.87-17.46 10.48-11.25 19.79-11.25 16.3-7.37 18.63-8.54 20.57-5.04 18.24 2.33 27.94 4.66 16.690.7824.06-19.79 6.21-8.54M542.82 462.89l-14.75 33.37-7.37 7.76-27.55 11.25-11.25 9.31-15.52 18.63-34.54 39.97-15.52 28.72-13.58 34.15-4.66 32.98-3.88 32.98-4.66 19.4-8.54 24.06-6.98 13.19-23.28 35.7-18.63 28.33-9.31 29.88-1.16 24.84 6.2126.011.25 21.34 15.52 25.22 17.46 18.63 26.39 20.18 18.63 11.25 65.58 26.78 75.67 32.21 12.03 10.48 15.91 16.69 13.19 23.67 43.85 92.36 5.43 16.3 3.49 22.12 2.33 39.19 5.43 20.18 11.64 24.06 13.97 17.07 19.79 14.75 22.89 11.25 21.73 5.82 29.10.7826.39 2.72 34.54 12.4252.022.12 37.25 21.73 36.09 28.72 37.25 22.51 17.85 14.36 12.03 18.24 10.87 22.12 17.85 67.13 7.76 29.1 11.25 22.12 13.19 17.85 10.87 9.7 15.13 15.13 9.7 19.01 13.97 30.66 17.07 24.45 11.64 14.75 10.48 22.89 8.93 24.840.8222.5-0.6351.68 5.08 20.4-1.96 20.92-7.015.15-13.76 11.98-17.86 5.83-25.78 6.8-49.11 21.3-19.79 9.7-12.42 16.3-2.72 4.66 1.55 3.1 4.95 10.92" style="fill:none;fill-rule:evenodd;stroke:#e9b600;stroke-width:5;stroke-linecap:butt;stroke-linejoin:round;stroke-miterlimit:4;stroke-dasharray:none;stroke-opacity:1"/><path d="m1174.17 2221.13-17.85 4.66-86.53 31.82-17.85 4.66-14.72-.87-71.88-4.8-8.02-1.6M1046.89 2037.58l-25.22 14.75-71.01 43.07-17.85 19.4-15.91 10.87-27.94 17.07-23.67 6.6-36.48.78-31.43-8.54-28.72-11.25-17.46-13.97-8.54-15.91-5.43-41.13" style="fill:none;fill-rule:evenodd;stroke:#7b2181;stroke-width:5;stroke-linecap:butt;stroke-linejoin:round;stroke-miterlimit:4;stroke-dasharray:none;stroke-opacity:1"/><text x="39.45" y="156.96" xml:space="preserve" style="font-style:normal;font-weight:400;font-size:144px;line-height:125%;font-family:Sans;-inkscape-font-specification:Sans;letter-spacing:0;word-spacing:0;fill:#000;fill-opacity:1;stroke:none"><tspan x="39.45" y="156.96">1995</tspan></text><path d="m1075.01 2150.88 7.25-8.58-.54-3.15" style="fill:none;fill-rule:evenodd;stroke:#e9b600;stroke-width:1;stroke-linecap:butt;stroke-linejoin:round;stroke-miterlimit:4;stroke-dasharray:none;stroke-opacity:1"/><path d="m1051.82 2065.97 4.1 5.4 11.8 5.49 4.39 6.86 5.21 9.6v8.23l-7.96 27.16 1.37 5.49 10.98 4.95 4.26 2.280.271.6-4.81 6.810.382.63M1014.21 2221.18l16.19-20.85 44.61-49.45 4.16-0.2917.91 14.9 6.04 2.74 18.11 22.5 11.59 5.82 5.43 10.1 13.45 4.66 6.78-.4" style="fill:none;fill-rule:evenodd;stroke:#e9b600;stroke-width:1;stroke-linecap:butt;stroke-linejoin:round;stroke-miterlimit:4;stroke-dasharray:none;stroke-opacity:1"/></svg>