<?xml version="1.0" encoding="UTF-8" standalone="no"?>
<svg
   xmlns:dc="http://purl.org/dc/elements/1.1/"
   xmlns:cc="http://creativecommons.org/ns#"
   xmlns:rdf="http://www.w3.org/1999/02/22-rdf-syntax-ns#"
   xmlns:svg="http://www.w3.org/2000/svg"
   xmlns="http://www.w3.org/2000/svg"
   xmlns:xlink="http://www.w3.org/1999/xlink"
   viewBox="0 0 1700 3150"
   height="3150"
   width="1700"
   id="svg2"
   version="1.1">
  <metadata
     id="metadata8">
    <rdf:RDF>
      <cc:Work
         rdf:about="">
        <dc:format>image/svg+xml</dc:format>
        <dc:type
           rdf:resource="http://purl.org/dc/dcmitype/StillImage" />
        <dc:title></dc:title>
      </cc:Work>
    </rdf:RDF>
  </metadata>
  <defs
     id="defs6" />
  <image
     style="display:none"
     y="-2062.4751"
     x="-3750"
     id="image10"
     xlink:href="file:///home/lexande/timelines/timelines/streetmap/../streetmap/lejosm.png"
     preserveAspectRatio="none"
     height="6112.4751"
     width="8431" />
  <path
     id="path836"
     d="m 1204.6972,3063.5859 28.9914,-295.217 0.3535,-45.2549 -4.9497,-37.4766 -33.9411,-241.477 -35.7089,-253.4978 -34.2947,-253.4978 -16.2635,-112.7835 -1.7677,-31.1127 7.7782,-50.9117 13.7885,-40.3051 21.9203,-36.0624 23.6881,-29.6985 27.2236,-27.2236 45.962,-47.0226 16.617,-27.9307 15.5563,-41.7193 9.546,-39.9516 -0.7071,-41.3657 -3.8891,-34.2947 -8.4853,-28.9914 -71.0642,-226.6277 -12.3744,-26.87 -39.9515,-41.3658 -4.5962,-9.1924 -6.0104,-22.981 -8.1318,-41.0121 -0.7071,-19.799 3.5356,-19.799 8.8388,-18.0312 14.1421,-17.3242 19.0919,-18.3847 9.1924,-14.1422 44.5477,-62.5789 12.0209,-32.8805 -3.182,-30.4056 -19.4455,-61.1647 -21.9203,-34.6483 -24.3952,-23.3345 -47.7297,-27.5771"
     style="opacity:1;fill:none;fill-opacity:1;fill-rule:nonzero;stroke:#006f32;stroke-width:5;stroke-linecap:butt;stroke-linejoin:round;stroke-miterlimit:4;stroke-dasharray:none;stroke-opacity:1" />
  <path
     id="path838"
     d="m 1232.6279,809.6831 52.6795,-61.5183 79.9031,-106.7731 18.0312,-31.1127 9.5459,-31.8198 -1.0606,-27.9308 -90.1562,-353.9069 -25.4558,-107.1267"
     style="opacity:1;fill:none;fill-opacity:1;fill-rule:nonzero;stroke:#006f32;stroke-width:5;stroke-linecap:butt;stroke-linejoin:round;stroke-miterlimit:4;stroke-dasharray:none;stroke-opacity:1" />
  <path
     id="path840"
     d="m 1485.0651,1199.2989 -32.527,66.8216 -17.3241,21.9203 -63.286,76.7211 -17.3241,11.6673 -18.7384,7.7781 -15.5563,0.7071 -18.0312,-6.0104 -12.728,-7.4246 -11.6672,-18.0312"
     style="opacity:1;fill:none;fill-opacity:1;fill-rule:nonzero;stroke:#006f32;stroke-width:5;stroke-linecap:butt;stroke-linejoin:round;stroke-miterlimit:4;stroke-dasharray:none;stroke-opacity:1" />
  <text
     style="font-style:normal;font-weight:normal;font-size:143.99990845px;line-height:125%;font-family:Sans;-inkscape-font-specification:Sans;letter-spacing:0px;word-spacing:0px;fill:#000000;fill-opacity:1;stroke:none"
     xml:space="preserve"
     id="text3878"
     y="206.96094"
     x="89.453133"><tspan
       id="tspan1"
       y="206.96094"
       x="89.453133">2015</tspan></text>
</svg>
