<?xml version="1.0" encoding="UTF-8" standalone="no"?>
<svg
   xmlns:dc="http://purl.org/dc/elements/1.1/"
   xmlns:cc="http://creativecommons.org/ns#"
   xmlns:rdf="http://www.w3.org/1999/02/22-rdf-syntax-ns#"
   xmlns:svg="http://www.w3.org/2000/svg"
   xmlns="http://www.w3.org/2000/svg"
   xmlns:xlink="http://www.w3.org/1999/xlink"
   version="1.1"
   id="svg2"
   width="1800"
   height="1700"
   viewBox="0 0 1800 1700">
  <metadata
     id="metadata8">
    <rdf:RDF>
      <cc:Work
         rdf:about="">
        <dc:format>image/svg+xml</dc:format>
        <dc:type
           rdf:resource="http://purl.org/dc/dcmitype/StillImage" />
        <dc:title></dc:title>
      </cc:Work>
    </rdf:RDF>
  </metadata>
  <defs
     id="defs6" />
  <g
     id="g10">
    <image
       xlink:href="sosm.png"
       style="display:none"
       y="-850"
       x="-400"
       id="image12"
       preserveAspectRatio="none"
       height="2840"
       width="2840" />
    <path
       style="opacity:1;fill:none;stroke:#66cc66;stroke-width:7;stroke-linejoin:round"
       d="m 253.37,1532.15 -33.79,23.25 -8.44,1.12 -6.16,-3.29 -12.66,-14.91 -3.75,-6.91 0.38,-14.61 -4.36,-6.08 -8.81,-2.08 -5.78,1.86 -9.73,7.58 -5.8,1.53 -10.02,-1.73 -4.3,-5.84 -4.41,-22.77 -6.4,1.02 -2.06,-7.34"
       id="path837" />
    <path
       style="opacity:1;fill:none;stroke:#ff00aa;stroke-width:7;stroke-linejoin:round;stroke-opacity:1"
       d="m 131.27,1316.72 0.95,-5.4 v -8.54 l -3.26,-14.64 5.95,-23.66 0.38,-15.14 2.15,-8.5 22.25,-15.3 5.02,-8.95 5.49,-15.82 4.54,-5.57 52.08,-34.88 7.68,-6.84 5.58,-15.51 8.62,-12.36 v -9.5 l -1.75,-15.65 4.74,-16.9 0.36,-12.86 6.07,-21.71 -1.01,-39.12 -1.52,-10.59 -26.32,-46.09 -12.62,-11.28 -4.12,-11.06 -0.55,-10.88 2.66,-15.38 5.84,-11.1 4.47,-3.64 7.95,-6.79 2.04,-6.74 -1.83,-12.44"
       id="path843" />
    <path
       style="opacity:1;fill:none;stroke:#66cc66;stroke-width:7;stroke-linejoin:round"
       d="m 135.75,1489.28 -2.27,-17.79 -6.14,-14.45 2.91,-18.61 -1.11,-11.17 -4.17,-13.97 3.04,-28.37 -3.49,-26.2 3.06,-21.08 3.7,-20.93"
       id="path839" />
    <path
       style="opacity:1;fill:none;stroke:#66cc66;stroke-width:7;stroke-linejoin:round;stroke-opacity:1"
       d="m 1390.96,544 86.48,68.05 10.72,7.08 31.1,11.02 35.63,11.22 18.59,23.22 12.29,17.88 26.51,47.69 6.02,4.25 39.36,22.23 7.61,14.42 -3.66,9.22 -4.37,4.27"
       id="path867" />
    <path
       style="opacity:1;fill:none;stroke:#ff0000;stroke-width:7;stroke-linejoin:round;stroke-opacity:1"
       d="m 1111.67,409.8 37.75,16.15 16.55,1.62 28.31,-3.09 17.96,-9.29 37.95,-1.85 13.13,5.68 8.34,20.43 35.6,25.89 6.91,8.52 9.64,20.21 9.99,6.05 18.07,21.22 33.16,17.97 5.93,4.67"
       id="path871" />
    <path
       style="opacity:1;fill:none;stroke:#66cc66;stroke-width:7;stroke-linejoin:round;stroke-opacity:1"
       d="m 643.63,140.97 210.14,148.31 59.33,38.13 11.72,3.81 36.25,27.28 h 30.71 l 119.88,51.3"
       id="path863" />
    <text
       x="89.45"
       y="206.96"
       id="text3817"
       xml:space="preserve"
       style="font-style:normal;font-weight:normal;font-size:144px;line-height:125%;font-family:Sans;-inkscape-font-specification:Sans;letter-spacing:0px;word-spacing:0px;fill:#000000;fill-opacity:1;stroke:none"><tspan
         x="89.45"
         y="206.96"
         id="tspan1"
         style="fill:#000000">2020</tspan></text>
    <path
       style="opacity:1;fill:#f4f4ff;fill-opacity:1;stroke:none;stroke-width:2;stroke-linejoin:round;stroke-opacity:1"
       d="m -98.89,952.55 18.03,12.05 19.04,19.56 8.61,-0.71 19.25,20.61 16.79,14.01 0.26,13.61 19.34,37.51 11.32,2.11 19.76,61.7 21.02,30.49 1.08,15.07 -8.01,4.08 9.41,10.84 15.04,5.02 15.14,23.73 -8.2,2 -13.6,-20.13 -3.05,0.87 15.59,28.26 14.72,17.74 6.74,20.11 8.55,11.48 v 19.1 l 2.36,23.2 4.02,5.09 -3.36,11.55 -3.21,16.72 -5.99,4.67 -1.4,34.6 h -4.94 l -0.54,12.54 -7.05,1.32 -0.51,-9.53 -10.13,3.31 6.11,24.32 10.79,16.64 11.83,19.85 6.62,22.52 4.69,24.57 h 6.18 v 17.56 l 6.06,12.11 -4.36,7.34 -12.99,4.54 6.82,15.68 4.89,8.21 5,23.12 14.99,14.44 4.87,9.9 -1.91,8.87 9.51,10.71 5.59,-1.06 5.31,5.91 -2.63,2.91 17.01,16.33 17.09,30.05 22.23,35.33 19.98,23.15 43.38,30.4 -381.33,2.23 z"
       id="path1462" />
  </g>
</svg>
