<svg xmlns="http://www.w3.org/2000/svg" width="8000" height="5650" viewBox="0 -100 8000 5650"><path style="opacity:1;fill:none;fill-opacity:0;fill-rule:nonzero;stroke:#0473bd;stroke-width:5;stroke-linecap:butt;stroke-linejoin:round;stroke-miterlimit:4;stroke-dasharray:none;stroke-opacity:1" d="m3082.58 1686.24-55.71-3.69-9.73-9.73-32.55-46.65v-12.42l7.38-16.44 21.81-14.09 43.96-48.32 10.74-38.59 43.96-52.01 57.72-148.32 63.76-101.01 42.62-101.68 21.81-154.03 11.07-28.52 81.21-123.49 71.81-77.52 55.37-44.3 133.89-90.27 24.5-7.05 25.5-27.18 27.85-19.13 23.83-40.27 8.05-22.48 22.82-47.65 7.72-11.41 36.58-24.16 11.07-12.08 5.37-15.77 3.69-49.67 10.07-32.22 7.72-25.5-1.01-14.09-4.36-15.1-30.2-42.95-15.77-64.43-15.94-28.05L3781 58.82l-29.1-6.76-103.93-8.83-19.75 2.08"/><path style="opacity:1;fill:none;fill-opacity:0;fill-rule:nonzero;stroke:#ff8f30;stroke-width:5;stroke-linecap:butt;stroke-linejoin:round;stroke-miterlimit:4;stroke-dasharray:none;stroke-opacity:1" d="m3136.12 1953.84 24.68-83.76-2.14-10.44-16.61-22.54-1.19-14.95 25.63-73.8 10.92-19.46 25.86-24.92 34.88-134.54 3.56-26.34-.71-19.46 5.69-25.39 15.19-30.37 37.82-40.7 3.69-14.09-11.75-60.4 1.68-16.44 7.38-13.42 16.11-21.48 31.88-51.01 6.38-18.12 17.79-98.66 29.2-124.5-.67-12.75-75.17-87.59-77.52-56.38-17.11-26.17-8.39-35.24-9.4-13.76-71.81-43.29-51.34-42.28-26.18-15.1-147.99 10.74-26.18 4.36-46.98 14.43-48.66 24.83-38.26 3.69-41.95 26.85-72.82 13.76-13.09 9.4-37.92 42.28-10.74 41.28-9.06 13.09-72.48 67.79-10.07 14.43-20.81 61.75-3.02 95.3 6.38 20.47-17.45 63.09-9.4 15.77-1.68 38.93-6.71 14.43-23.83 35.91"/><path style="color:#000;font-style:normal;font-variant:normal;font-weight:400;font-stretch:normal;font-size:medium;line-height:normal;font-family:sans-serif;font-variant-ligatures:normal;font-variant-position:normal;font-variant-caps:normal;font-variant-numeric:normal;font-variant-alternates:normal;font-feature-settings:normal;text-indent:0;text-align:start;text-decoration:none;text-decoration-line:none;text-decoration-style:solid;text-decoration-color:#000;letter-spacing:normal;word-spacing:normal;text-transform:none;writing-mode:lr-tb;direction:ltr;text-orientation:mixed;dominant-baseline:auto;baseline-shift:baseline;text-anchor:start;white-space:normal;shape-padding:0;clip-rule:nonzero;display:inline;overflow:visible;visibility:visible;opacity:1;isolation:auto;mix-blend-mode:normal;color-interpolation:sRGB;color-interpolation-filters:linearRGB;solid-color:#000;solid-opacity:1;vector-effect:none;fill:none;fill-opacity:1;fill-rule:nonzero;stroke:#094;stroke-width:5;stroke-linecap:butt;stroke-linejoin:round;stroke-miterlimit:4;stroke-dasharray:none;stroke-dashoffset:0;stroke-opacity:1;color-rendering:auto;image-rendering:auto;shape-rendering:auto;text-rendering:auto;enable-background:accumulate" d="m2777.21 1889.93-119.8 93.29-218.8 166.11-28.19 28.86-52.01 14.43-16.78 10.74-25.69 19.46-104.7 77.52c-.23.17-.49.3-.77.38l-216.78 64.77c-.2.01-.4.01-.6.02l-28.53 7.72c-.1.03-.2.05-.31.06l-45.97 6.38-158.06 22.69-50.34 1.34-17.79 4.03-11.41 6.38-8.05 11.75-40.94 61.07-36.58 32.55-32.89 13.09-30.87 22.15-18.79 36.24-14.09 13.09-7.38 15.1-17.11 23.83-28.52 43.62-7.28 11.06-29.77 47.5-9.22 21.07-6.66 31.63-0.110.232.01 16.44v54.7l4.36 9.4 4.03 9.73.678.05v8.72l-20.13 34.23-2.35 13.09-0.34.53-8.39 13.09-37.25 40.6-16.79 14.26-26.51 35.23c-.16.22-.36.41-.59.56l-68.12 46.64-12.49 13.37-5.7 20.81-3.36 23.83"/><path style="color:#000;font-style:normal;font-variant:normal;font-weight:400;font-stretch:normal;font-size:medium;line-height:normal;font-family:sans-serif;font-variant-ligatures:normal;font-variant-position:normal;font-variant-caps:normal;font-variant-numeric:normal;font-variant-alternates:normal;font-feature-settings:normal;text-indent:0;text-align:start;text-decoration:none;text-decoration-line:none;text-decoration-style:solid;text-decoration-color:#000;letter-spacing:normal;word-spacing:normal;text-transform:none;writing-mode:lr-tb;direction:ltr;text-orientation:mixed;dominant-baseline:auto;baseline-shift:baseline;text-anchor:start;white-space:normal;shape-padding:0;clip-rule:nonzero;display:inline;overflow:visible;visibility:visible;opacity:1;isolation:auto;mix-blend-mode:normal;color-interpolation:sRGB;color-interpolation-filters:linearRGB;solid-color:#000;solid-opacity:1;vector-effect:none;fill:none;fill-opacity:1;fill-rule:nonzero;stroke:#0473bd;stroke-width:5;stroke-linecap:butt;stroke-linejoin:round;stroke-miterlimit:4;stroke-dasharray:none;stroke-dashoffset:0;stroke-opacity:1;color-rendering:auto;image-rendering:auto;shape-rendering:auto;text-rendering:auto;enable-background:accumulate" d="m712.07 3623.85 9.73-26.51 14.43-18.79 13.76-8.05 127.52-20.47 21.81-3.69 17.45-13.09 35.57-54.36 5.7-12.08 20.47-59.06 10.07-17.79 71.14-69.8 45.64-21.48 18.79-14.77 46.65-62.75 30.87-64.1 19.06-17.83 67.78-46.41 26.26-34.91 8.71-11.92 8.39-24.16 3.69-25.5 17.45-26.85 15.44-53.36 17.45-30.54 2.68-17.11-3.36-39.6 2.92-32.06 6.71-31.88c.04-.17.09-.33.16-.49l9.4-21.48c.05-.11.11-.22.17-.33l29.87-47.65 7.82-15.12 11.41-66.11 5.03-19.46 7.38-13.42 9.06-8.72 21.14-11.75 32.89-9.73 16.61-11.91 13.67-9.56 27.77-25.84 44.63-46.98 21.81-34.56 12.42-15.1 19.46-13.09 14.77-2.68 217.78-16.23 45.82-6.36 28.34-7.67 216.33-64.63 104.35-77.26 33.7-29.57 52.68-16.14 20.41-15.66 18.03-29.9 49.83-28.09.42-63.11 78.48-59.33 161.98-145.72 77.85-104.2 17.45-13.42 23.49-11.07 144.3-16.44 45.97 3.69 95.97 39.93 31.88 18.79 14.77 14.77 20.81 31.88 6.71 20.13 9.06 21.48 13.42 16.11 17.79 15.1 92.95 58.05 22.82 8.72 110.16 26.06 107.25 49.36 34.17 20.41 8.54 17.56 5.69 18.98 1.9 45.08-0.470.736.64 18.51 50.31 74.03 22.78 8.07 21.83.9543.19-10.92 35.59.95184.14 52.2 76.41-5.69 14.71-5.69 125.76-75.93 134.78-152.81 53.63-60.75 43.66-48.88 122.92-68.34 8.54-17.56 22.31-79.73 17.56-20.88 9.02-27.53 53.15-110.1 16.14-14.24 21.36-11.39 12.34-16.61 13.76-38.92 28-18.03 128.61 3.32 52.68-11.86 43.19-1.9 32.75 3.32 18.03-8.07 35.59-25.63 39.39-29.9 28.47-37.02 55.53-28.95 74.98-72.61 17.56-5.7 35.12.4733.7-14.24 23.73 3.32 35.59 35.12 48.41 6.17 18.51-6.64 16.61-15.19 3.8-18.03-14.24-41.76v-15.19l7.59-20.41 14.71-21.36 33.69-18.03 42.24 2.85 23.73-18.03 10.92-30.37 25.15-18.03 27.53-0.47.41-11.39 18.03-28.02.46-7.59 15.19-2.37 37.49 6.17 16.61 9.49 37.97 42.71 34.64 22.78 41.29 17.56 27.05 4.27 35.12-12.81 40.34-37.49 29.42-11.39 212.14 31.8 51.25-6.64 22.78 10.44 9.49 15.19 94.92 147.12 11.39 10.44 112.47 68.81 18.03 6.17 26.58 2.85 131.46-31.32 35.12-12.34 161.83-87.32 192.2-72.14 14.31-10.19 23.83-34.56 19.46-8.05h18.46l143.29 44.63 25.5 12.75 27.85-9.06 57.72-41.61 32.89-13.42 24.16-1.68 25.5 8.05 32.22 16.11 18.79 3.36 117.45-12.08 18.79 2.68 16.78 7.72 38.93 34.9 14.77 8.72"/><path style="opacity:1;fill:none;fill-opacity:0;fill-rule:nonzero;stroke:#094;stroke-width:1;stroke-linecap:butt;stroke-linejoin:round;stroke-miterlimit:4;stroke-dasharray:none;stroke-opacity:1" d="m2777.21 1889.93 3.22-1.82 80.68 44.37 23.49 6.64 6.17-4.03 7.59-19.46 4.75-2.61 96.34 23.97 2.37-2.14 2.61-22.78 6.88-23.73 4.51-2.37 53.39 9.97 173.69 52.44 30.37 3.32 51.25 7.83 13.53-1.9 28.71-10.2 14.47-5.93-5.69-33.22-7.83-6.17"/><text x="89.45" y="5447.96" xml:space="preserve" style="font-style:normal;font-weight:400;font-size:144px;line-height:125%;font-family:Sans;-inkscape-font-specification:Sans;letter-spacing:0;word-spacing:0;fill:#000;fill-opacity:1;stroke:none"/><text x="89.45" y="106.96" xml:space="preserve" style="font-style:normal;font-weight:400;font-size:144px;line-height:125%;font-family:Sans;-inkscape-font-specification:Sans;letter-spacing:0;word-spacing:0;fill:#000;fill-opacity:1;stroke:none"><tspan x="89.45" y="106.96">2020</tspan></text><path style="opacity:1;fill:none;fill-opacity:0;fill-rule:nonzero;stroke:#fa052a;stroke-width:5;stroke-linecap:butt;stroke-linejoin:round;stroke-miterlimit:4;stroke-dasharray:none;stroke-opacity:1" d="m4817.85 1380.86 13.76 25.17 9.73 5.7 63.42 14.77 6.04 10.4.675.37-6.38 38.26-1.34 28.52"/><path d="m1466.21 3695.87 39.75-60.8M1506.48 3630.65l-19.75-147.06" style="opacity:1;fill:none;fill-opacity:1;fill-rule:nonzero;stroke:#000;stroke-width:5;stroke-linecap:butt;stroke-linejoin:round;stroke-miterlimit:4;stroke-dasharray:none;stroke-opacity:1"/></svg>