<svg xmlns="http://www.w3.org/2000/svg" height="5650" width="4750"><path d="M3247.724 3696.31L3250 3714l16.75 142.5 8.75 22.25 98.75 183.25 90 155.25 77.25 184.5 24.25 40.5 19.75 45.5 51 146.25 10.5 18.5 22 19 145.5 101.5 205.5 109.5 128 126.5 120 119.5 200.5 163 38.5 39.5 52 69 87 128" fill="none" stroke="#ee2926" stroke-width="5" stroke-linejoin="round"/><path d="M1942.25 703.25l12.25 9.75 49.75 64.75 58.25 59.5 26.25 36.5 7.5 20.25 13 34 19 57.25 6.75 15.5 54.5 116.75 38 76.25 36 65.5 10.75 21 18.25 40L2313 1356l13 17.5 22.75 26.5 20.5 23 7.25 11.75 2.5 12.5-1 15-7.5 28.5-11.5 31.5-13.25 27.5-18.25 28.75-39.75 49.5-2.25 12-1.75 16.5-6.5 8.5-9.5 6.75-15 6.5" fill="none" stroke="#939598" stroke-width="5" stroke-linejoin="round"/><path d="M2365.75 1418.75L2382 1424l3.5 5" fill="none" stroke="#939598" stroke-width="5" stroke-linejoin="round"/><path d="M2385 1427.5l.25 4-18.25 15.75-14.25 9.75 1.75 9.75 6.5 16.5-1 16-7.75 25.5-10.75 22.75-22.5 31-34.25 44-35.75 52.25-11 30.5-5.5 21.75-6 26.25 2 28.5 4.5 25.25-3.5 16.75-98 184.25-4.25 15.5-.5 14.25 3.25 11.5 15.25 15.25 19 13.5 13.25 21 9.25 8.75 32.5 10.25 20.25 15.25 15 12.25 56.75 19 7-.25 43.25-8.5 11-6.5 18.25-11.5 2.75-4.5 8-21.25 3.5-2 34.25 10.25.75 3.5-5.75 15.5-2.5 1.5-21.75-7-22 5.25M2254.924 1677.474l-9.193 7.071" fill="none" stroke="#939598" stroke-width="1px" stroke-linejoin="round"/><text x="89.453133" y="206.96103" style="-inkscape-font-specification:Sans" font-weight="400" font-size="143.99993896px" font-family="Sans"><tspan x="89.453133" y="206.96103">2010</tspan></text><path d="M1956.171 713.334l3.536-7.425 17.324-4.95" fill="none" stroke="#939598" stroke-width="5" stroke-linejoin="round"/><path d="M1975.617 700.96l2.828-3.182-9.546-8.84-41.366 14.85-2.121-1.768-4.596-20.152" fill="none" stroke="#939598" stroke-width="1px" stroke-linejoin="round"/><path d="M1944.857 704.849l-24.748-23.335-41.012-70.003-13.435-35.356-18.385-76.72-15.91-41.013-22.628-47.023-7.07-33.94-4.597-38.538-3.182-43.134-8.485-30.759-15.203-1.414.707 3.182 3.536.707 1.414 27.577 2.828 1.061 20.153-2.828.353 3.182-3.535 18.738" fill="none" stroke="#939598" stroke-width="1px" stroke-linejoin="round"/><text x="89.453133" y="5547.9609" style="-inkscape-font-specification:Sans" font-weight="400" font-size="143.99993896px" font-family="Sans"/></svg>