<svg xmlns="http://www.w3.org/2000/svg" height="5650" width="4750"><path d="M2441.45 2130.492l110.779 36.39 28.66 11.27 11.594 12.882 41.864 7.729 87.594-5.797 19.966 6.44L2755.5 2210l128.5 142.5 34 37 43 25 118 56 25 5 23.5-.5 40.5-11.5 29-2 68.5 6 36 13.5 42.5 22.5 29.5 16.5 91.5 45 17 15.5 12.5 22.5 17.5 75.5 14 62.5 2 30.5-9.5 40.5-26.5 90-19 32.5-30 37-58 63-10 20.5-22 81v16.5l21 97.5 1.5 25.5-5 19-13 21-14.5 15.5-110 72-13 17.5-5 19.5 1.5 12 11 49 33.5 259.5 10.5 93.5 8 21.5 99 184L3469 4215l77 184.5 25.5 42.5 15 35.5 8.5 9.5 21.5 2 86-10 22-7.5 37.5-22.5 30-11" fill="none" stroke="#fec231" stroke-width="5" stroke-linejoin="round"/><path d="M2439.75 2135.25l103.75 34.25 26.25 9 6 4.75 2.25 9.5-4.75 7-7.75 3.25-13.75 1.75-7 7.25-3.5 11.5 8.75 36 74 167 1 14-7 11.5-17.5 21.5-11 26.5-8 38 1.5 33 7.5 26.5 15 30 63.5 85 33 38 23 21.5 87.5 61.5 91.5 70 16 16.5 14 25.5 19.5 49 18.5 42.5 4 30.5 13.5 24 20 19.5 14.5 12 26 51.5 139.5 221.5 19 43 3.5 15.75 10.75 47.5L3250 3714l16.75 142.5 8.75 22.25 98.75 183.25 90 155.25 77.25 184.5 24.25 40.5 19.75 45.5 51 146.25 10.5 18.5 22 19 145.5 101.5 205.5 109.5 128 126.5 120 119.5 200.5 163 38.5 39.5 52 69 87 128" fill="none" stroke="#ee2926" stroke-width="5" stroke-linejoin="round"/><path d="M1942.25 703.25l12.25 9.75 49.75 64.75 58.25 59.5 26.25 36.5 7.5 20.25 13 34 19 57.25 6.75 15.5 54.5 116.75 38 76.25 36 65.5 10.75 21 18.25 40L2313 1356l13 17.5 22.75 26.5 20.5 23 7.25 11.75 2.5 12.5-1 15-7.5 28.5-11.5 31.5-13.25 27.5-18.25 28.75-39.75 49.5-2.25 12-1.75 16.5-6.5 8.5-9.5 6.75-15 6.5" fill="none" stroke="#939598" stroke-width="5" stroke-linejoin="round"/><path d="M2365.75 1418.75L2382 1424l3.5 5" fill="none" stroke="#939598" stroke-width="5" stroke-linejoin="round"/><path d="M2385 1427.5l.25 4-18.25 15.75-14.25 9.75 1.75 9.75 6.5 16.5-1 16-7.75 25.5-10.75 22.75-22.5 31-34.25 44-35.75 52.25-11 30.5-5.5 21.75-6 26.25 2 28.5 4.5 25.25-3.5 16.75-98 184.25-4.25 15.5-.5 14.25 3.25 11.5 15.25 15.25 19 13.5 13.25 21 9.25 8.75 32.5 10.25 20.25 15.25 15 12.25 56.75 19 7-.25 43.25-8.5 11-6.5 18.25-11.5 2.75-4.5 8-21.25 3.5-2 15.663 4.687 1.79 1.595.75 2.707-4.956 15.764-3.293.84-4.954-1.843-22 5.25M2254.924 1677.474l-9.193 7.071" fill="none" stroke="#939598" stroke-width="1px" stroke-linejoin="round"/><text x="89.453133" y="206.96103" style="-inkscape-font-specification:Sans" font-weight="400" font-size="143.99993896px" font-family="Sans"><tspan x="89.453133" y="206.96103">2020</tspan></text><path d="M1956.171 713.334l3.536-7.425 17.324-4.95" fill="none" stroke="#939598" stroke-width="5" stroke-linejoin="round"/><path d="M1975.617 700.96l2.828-3.182-9.546-8.84-41.366 14.85-2.121-1.768-4.596-20.152" fill="none" stroke="#939598" stroke-width="1px" stroke-linejoin="round"/><path d="M1944.857 704.849l-24.748-23.335-41.012-70.003-13.435-35.356-18.385-76.72-15.91-41.013-22.628-47.023-7.07-33.94-4.597-38.538-3.182-43.134-8.485-30.759-15.203-1.414.707 3.182 3.536.707 1.414 27.577 2.828 1.061 20.153-2.828.353 3.182-3.535 18.738" fill="none" stroke="#939598" stroke-width="1px" stroke-linejoin="round"/><text x="89.453133" y="5547.9609" style="-inkscape-font-specification:Sans" font-weight="400" font-size="143.99993896px" font-family="Sans"/><path d="M2438.25 2139.825l129.345 42.983 3.968 3.042 1.322 5.819-2.38 4.1-6.084 2.38-14.68 1.852-8.994 9.258-4.496 14.151 9.257 38.09 73.93 166.773.398 11.506-6.216 10.448-16.268 20.103-12.564 27.773-5.555 28.17" fill="none" stroke="#97c93c" stroke-width="5" stroke-linejoin="round"/><path d="M2587.036 2492.284l-1.454-7.274-7.936-6.613-70.624-21.293-13.093.133-85.272 29.227-27.308 17.955-8.23 2.619-7.48-1.122-31.797-6.734-15.711.748-41.148 20.2-41.522 6.36-9.352 6.359-14.215 18.33-14.963 9.725-25.063 4.863-26.185 10.474-11.222 9.352-28.055 7.482-24.315-.374-16.833 6.359-40.4 20.2-24.69 8.23-28.803 4.488-40.026.748-59.103 14.215-21.322 9.726-14.215 14.589-21.322 31.048-8.23 31.422-12.344 17.956-81.174 91.648-23.193 26.933-18.33 13.466-23.192 13.841-31.796 14.589-10.848 8.23-2.993 8.977-1.122 11.223 2.993 28.055-9.352 29.178-4.863 37.781-10.1 23.567-22.819 43.018-4.488 3.74-13.093 5.986-43.018-1.87-13.467 1.87-111.474 42.644-10.848 1.87-23.193.375-32.17 10.1h-72.57l-28.055-13.467-16.086-.374-14.588 3.74-18.33 11.971-17.956 1.496-71.448-7.107-186.662-80.426-23.192-17.581-72.57-81.922-5.612-16.46-1.87-22.07-12.719-256.614-6.733-21.696-15.711-26.185-7.856-11.222-17.581-11.597-129.055-55.737-11.97-10.474-20.575-22.818-14.588-7.856-174.318-31.796-23.193 2.619-70.326 3.366-46.759.374-19.452-2.992-93.518-13.84-25.437-7.108" fill="none" stroke="#97c93c" stroke-width="5" stroke-linejoin="round"/><path d="M2306.392 2162.705l2.777 4.232-1.587 32.932 1.322 2.38 95.885 34.916 1.058 3.703-4.496 12.829-.265 3.438 22.748 47.612-.265 6.216-.396 3.57 1.983 2.514 2.249-.133 23.806-28.831.66-6.745-13.621-19.177-19.706-19.97-13.755-5.026M2245.187 1210.126l18.703-17.581 4.49.748 108.48 111.1 35.163-2.619 67.147-42.644 4.301 1.122 9.352 15.711" fill="none" stroke="#939598" stroke-linejoin="round"/><path d="M2236.77 1210.688l8.417-.562" fill="none" stroke="#939598" stroke-width="5" stroke-linejoin="round"/><path d="M1972.3 692.222l.749-5.05 24.688-15.15 98.569-63.218 11.97-25.25 4.489.187 18.517 8.604h7.294l20.013-6.92 23.566-13.841 15.524-12.532 5.612-5.61 7.668-.562 12.719 5.05 16.646 1.31 32.357-28.991 1.496-5.799-8.977-22.257-11.41-10.287-5.985-9.913-22.631-7.855-6.36-7.108-1.309-6.546 15.711-25.624 7.856-5.237 17.581-2.245 5.611-4.862.188-7.856-5.425-15.711-11.035-15.15-.935-12.157-5.611-5.611-9.726-3.367-3.18-4.489-.935-10.1-6.733-11.41-5.798-5.984-9.352-4.115-14.776 2.805-57.607-8.416-15.898 5.237-5.611.374-2.993-2.245-.561-5.05 12.718-23.192 50.874-59.665v-9.726l3.18-6.172 12.157-13.28 19.078-10.1 2.619-3.366-2.058-16.272.748-31.048-2.805-2.806-59.852-1.496-3.18-2.806.562-13.653-2.619-12.719 1.496-3.18 6.36.187 9.164 4.49h8.417l2.058-5.986-4.676-11.97-18.704-9.352-15.898.187-8.23-3.554-15.524-15.15-19.452-2.805-23.753 11.41-10.1.934-10.848-2.992-22.258-8.791-20.387 3.18-10.474-2.058-21.696-5.424-10.661.748-18.33 14.776-18.703 3.18-11.784 6.92-15.337 22.819-10.848 7.294-24.876 10.474-14.401 11.97-29.926 33.667-42.645 34.602-1.683 4.489 13.093 45.262-3.554 5.612" fill="none" stroke="#939598" stroke-linejoin="round"/><path d="M1767.682 208.546l-19.264 12.531-1.684 7.108 10.1 19.077.374 12.906-2.992 4.302-30.487-1.123-2.432 2.806-.374 22.818-3.74 4.302-8.791 2.619-11.222 5.985-8.417 9.352-.561 2.618 5.424 5.05 4.489 12.345 6.733 7.107 9.352 5.237 11.97 1.122 9.165-2.618 8.978-5.424 14.215-18.704 2.805-2.992 2.245-.375 4.114 1.684 4.676 10.474 2.432 7.668-1.684 9.54-6.733 9.538-26.933 36.66-7.856 5.423-8.042 1.684-12.345-.187-11.596-3.554-10.474-5.798-8.042-7.482-5.05-7.294-7.856-2.993-11.035 2.806-16.833-1.496-6.92 2.618-.375 3.928 26.56 22.07-.562 5.424-20.574 26.372-2.244.561-1.684-.748.375-10.848 1.496-2.431 12.344.187M1754.216 264.47l15.986-.856" fill="none" stroke="#939598" stroke-linejoin="round"/></svg>