<svg viewBox="-1100 -1934 7450 8200" height="8200" width="7450" xmlns="http://www.w3.org/2000/svg"><path style="fill:none;stroke:olive;stroke-width:5;stroke-linecap:butt;stroke-linejoin:round;stroke-miterlimit:4;stroke-opacity:1;stroke-dasharray:none" d="m3480 3615-21-16-224.336-167.55-4.828-1.96-6.795.253"/><path style="fill:none;stroke:#ff0080;stroke-width:5;stroke-linecap:butt;stroke-linejoin:round;stroke-miterlimit:4;stroke-opacity:1;stroke-dasharray:none" d="m2377.5 3070-21.5 33.5-27 38-24.5 25-26.5 10.5-14 13-9 15-30 25.5 3.5 12.5-30 9 1.5 11"/><path style="fill:none;stroke:#6c6e70;stroke-width:5;stroke-linecap:butt;stroke-linejoin:round;stroke-miterlimit:4;stroke-opacity:1;stroke-dasharray:none" d="m2604 2583 66.5 38M2643.5 2512.5l-38.5-21"/><path style="fill:none;stroke:#7bd9f5;stroke-width:5.00000048;stroke-linecap:butt;stroke-linejoin:round;stroke-miterlimit:4;stroke-opacity:1;stroke-dasharray:none" d="m2382 3072-19.5 31-29.5 41-25 26.5-26.5 10.5-14 11.5-8 14-29.5 25.5 5 13-30.5 10.5v6"/><path style="fill:none;stroke:#ff0080;stroke-width:5.00000048;stroke-linecap:butt;stroke-linejoin:round;stroke-miterlimit:4;stroke-opacity:1;stroke-dasharray:none" d="m2377.5 3069.5-84 27"/><path style="fill:none;stroke:#7bd9f5;stroke-width:5;stroke-linecap:butt;stroke-linejoin:round;stroke-miterlimit:4;stroke-opacity:1;stroke-dasharray:none" d="m2754 2373.5-111.5 203-69.428 125.167 1.342 4.117 21.962 12.008 1.605 4.333L2485.5 2925l-47 127-5 14-45.559 4.962L2381 3073M2753 2375.5l16-28.5"/><path style="fill:none;stroke:#29084a;stroke-width:5;stroke-linecap:butt;stroke-linejoin:round;stroke-miterlimit:4;stroke-opacity:1;stroke-dasharray:none" d="M2191 3263.5v-7h-8.5l-11-16.5.5-16 7.5-37.5 12-35 12-35.5 9-31.5 19-105 20-151.5 11-44 3.5-24 8-36 .5-44 31.5-55.5 130.5-236.5 79-146 14.079-25.633"/><path style="fill:none;stroke:#f60;stroke-width:5;stroke-linecap:butt;stroke-linejoin:round;stroke-miterlimit:4;stroke-opacity:1;stroke-dasharray:none" d="m2195.5 3262-.5-9.5h-11l-8-14.5.5-15 6.5-29 14.162-17.974 11.088-18.276 21.75-43 10.25-20.75 11.75-17.5-14.75-9.5 33.75-61 10.5-20.5 25.5-44.5 68-105.5-37-23 22-45.5 10-24.5 74.5-135 41.029-73.949 28.971-54.051 77-140.5 34.5-61"/><path style="fill:none;stroke:#ff0080;stroke-width:5;stroke-linecap:butt;stroke-linejoin:round;stroke-miterlimit:4;stroke-opacity:1;stroke-dasharray:none" d="M3119.483 1651.602 3095.5 1694 2952 1954l-100 181.5-91.5 164.5-80 145-91 165.5-99 178.5-40.5 73.5-19.5 73.5-17.5 57.5-27.424 63.533-8.076 12.467"/><path style="fill:none;stroke:#7bd9f5;stroke-width:5;stroke-linecap:butt;stroke-linejoin:round;stroke-miterlimit:4;stroke-dasharray:none;stroke-opacity:1" d="m2769 2347 91-164 132.5-239.5L3113 1725l16.69-29.095 4.792-8.797"/><path style="fill:none;stroke:#f60;stroke-width:5;stroke-linecap:butt;stroke-linejoin:round;stroke-miterlimit:4;stroke-opacity:1;stroke-dasharray:none" d="m2592 2340-93.5-55 38.5-74 117.5-212.5 147.61-267.94 9.892-3.788 22.228 12.086 14.298-3.838 57.91-105.554L3084 1291"/><text style="font-size:144px;font-style:normal;font-weight:400;fill:#000;fill-opacity:1;stroke:none;font-family:Sans;-inkscape-font-specification:Sans" xml:space="preserve" y="-1727.0391" x="-1010.5469"><tspan y="-1727.0391" x="-1010.5469">1885</tspan></text><text style="font-size:144px;font-style:normal;font-weight:400;fill:#000;fill-opacity:1;stroke:none;font-family:Sans;-inkscape-font-specification:Sans" xml:space="preserve" y="6163.9609" x="-1010.5469"/><path style="fill:none;stroke:olive;stroke-width:5;stroke-linecap:butt;stroke-linejoin:round;stroke-miterlimit:4;stroke-dasharray:none;stroke-opacity:1" d="m2583 3341.5 175.682 7.83 4.573 4.449 5.674 36.715M3478 3613l37 29 96.961-17.217 6.22-.742M2768.938 3389.847 2776.5 3441l6.5 28.5 3.616 21.696 5.918 3.794L2999 3464l169.5-25.5 55-8.5M2583 3341.5l-10.482-.308-4.254-3.244L2567 3324l2.17-52.78-7.992-4.788L2464.5 3261l-5.801-1.6-25.214-26.098-21.235-3.052"/><path style="fill:none;stroke:#6c6e70;stroke-width:5;stroke-linecap:butt;stroke-linejoin:round;stroke-miterlimit:4;stroke-opacity:1;stroke-dasharray:none" d="m2300 3103 137.5 144.5 31 33v9.559"/></svg>