<svg xmlns="http://www.w3.org/2000/svg" viewBox="-1100 -1934 7450 8200" height="8200" width="7450"><path style="fill:none;stroke:#00a65b;stroke-width:5;stroke-linecap:butt;stroke-linejoin:round;stroke-miterlimit:4;stroke-opacity:1;stroke-dasharray:none" d="m2375.367 3384.9 103.718 19.895L2506 3419l57 32 12 11 35.5 73"/><path style="fill:none;stroke:#b0720c;stroke-width:5;stroke-linecap:butt;stroke-linejoin:round;stroke-miterlimit:4;stroke-dasharray:none;stroke-opacity:1" d="M3478.395 3614.032 3483 3629l-1.525 28.333 1.596 28.374 6.42 36.785-3.775 9.976L3511 3856l16.267 83.079"/><path style="fill:none;stroke:#b0720c;stroke-width:5;stroke-linecap:butt;stroke-linejoin:round;stroke-miterlimit:4;stroke-opacity:1;stroke-dasharray:none" d="m2484.93 3000 65.07 28 224 91 32 12 14 16 93 43 154 115 72 55 320 239 21 17.5"/><path style="fill:none;stroke:#006000;stroke-width:1;stroke-linecap:butt;stroke-linejoin:round;stroke-miterlimit:4;stroke-dasharray:none;stroke-opacity:1" d="m2384.5 4421.5 2.748 10.64L2401 4457l132 105 15 21 7 18 35 248 16 101-6 51-20 82-9.915 20.45"/><path style="fill:none;stroke:#6c6e70;stroke-width:5;stroke-linecap:butt;stroke-linejoin:round;stroke-miterlimit:4;stroke-opacity:1;stroke-dasharray:none" d="m2710 3120 64 8.5 55.5 17 86.5 40.5 121 90.5 167 126.5 169.5 125.5 111 84.5 3 5.5 28 18 117-20 112-45 87-35 4-6-19.5-72.5-1.469-5.321"/><path style="fill:none;stroke:#00a65b;stroke-width:5;stroke-linecap:butt;stroke-linejoin:round;stroke-miterlimit:4;stroke-opacity:1;stroke-dasharray:none" d="m2606 2483.5-2 12.5-138 250v34l-9 36-54 84-18 29-7 25-53 73-14 25-3 16-19 27-31 15"/><path style="fill:none;stroke:#00a65b;stroke-width:5;stroke-linecap:butt;stroke-linejoin:round;stroke-miterlimit:4;stroke-opacity:1;stroke-dasharray:none" d="m2263 3107-16 9-29.5 46.5-31.5 54.5-4.572 14.478 1.897 9.398 10.631 20.472 24.083 22.77L2266 3318l79 59 31 8M2506.5 2425.5l-2.588-10.588L2519 2387l8-25 18-38 12-31 5-33-5-56-1-119 12-54 32-67 54-86 26-48 36-67 5-14 2-32 5-19 97-173 123-222 102-185 127-229 20-36 20-36 14-20 49-23 13-14 57-108 72-74 16-11 51-89 46-111"/><path style="fill:none;stroke:#00a65b;stroke-width:5;stroke-linecap:butt;stroke-linejoin:round;stroke-miterlimit:4;stroke-opacity:1;stroke-dasharray:none" d="m2606 2485-1.313-4.326-98.187-56.174"/><path style="fill:none;stroke:#6c6e70;stroke-width:5;stroke-linecap:butt;stroke-linejoin:round;stroke-miterlimit:4;stroke-opacity:1;stroke-dasharray:none" d="m2189 3261.5-7.5-12.5-2.458-8.528-2.069-8.867 5.75-16.928"/><path style="fill:none;stroke:#00a65b;stroke-width:5;stroke-linecap:butt;stroke-linejoin:round;stroke-miterlimit:4;stroke-opacity:1;stroke-dasharray:none" d="M3096.703 1425.609 3075 1466"/><path style="fill:none;stroke:#ff0080;stroke-width:5;stroke-linecap:butt;stroke-linejoin:round;stroke-miterlimit:4;stroke-opacity:1;stroke-dasharray:none" d="m3634.5 788 58-47M2377.5 3070l-21.5 33.5-27 38-24.5 25-26.5 10.5-14 13-9 15-30 25.5 3.5 12.5-30 9 1.5 11"/><path style="fill:none;stroke:#6c6e70;stroke-width:5;stroke-linecap:butt;stroke-linejoin:round;stroke-miterlimit:4;stroke-opacity:1;stroke-dasharray:none" d="m2604 2583 66.5 38M2643.5 2512.5l-38.5-21"/><path style="fill:none;stroke:#7bd9f5;stroke-width:5.00000048;stroke-linecap:butt;stroke-linejoin:round;stroke-miterlimit:4;stroke-opacity:1;stroke-dasharray:none" d="m2383.5 3070-21 33-29.5 41-25 26.5-26.5 10.5-14 11.5-8 14-29.5 25.5 5 13-30.5 10.5v6"/><path style="fill:none;stroke:#ff0080;stroke-width:5.00000048;stroke-linecap:butt;stroke-linejoin:round;stroke-miterlimit:4;stroke-opacity:1;stroke-dasharray:none" d="m2377.5 3069.5-84 27"/><path style="fill:none;stroke:#7bd9f5;stroke-width:5;stroke-linecap:butt;stroke-linejoin:round;stroke-miterlimit:4;stroke-opacity:1;stroke-dasharray:none" d="m2754 2373.5-111.5 203-69.428 125.167 1.342 4.117 21.962 12.008 1.605 4.333L2485.5 2925l-47 127-5 14-50.5 5.5M2753 2375.5l16-28.5"/><path style="fill:none;stroke:#7ea3d5;stroke-width:5;stroke-linecap:butt;stroke-linejoin:round;stroke-miterlimit:4;stroke-opacity:1;stroke-dasharray:none" d="m2483 2528-47.588 84.725L2376 2721.5l-20 41-98 20.5-6.5 27-136.5-4.5-116-3-23.5-1.5-15-4-7.5-7.5 1-21 5.5-22 8.5-6 14-1 42.5 2"/><path style="fill:none;stroke:#7ea3d5;stroke-width:5;stroke-linecap:butt;stroke-linejoin:round;stroke-miterlimit:4;stroke-opacity:1;stroke-dasharray:none" d="m1952.5 2787.5-7 51.5 2.5 18.5-1.5 15-9 17.5-10 39.5-6.5 52.5-3 23.5 5.463 11.013L1945 3023l45.873 12.612 191.239 74.149 11.618 4.507 9.156 3.87 8.447 3.89 4.128-1.728 5.053-11.074-.734-4.09-7.713-5.076-10.372-5.968-11.426-5.525L2036.687 3045l-30.09-9.09-47.642-9.403"/><path style="fill:none;stroke:#7ea3d5;stroke-width:5;stroke-linecap:butt;stroke-linejoin:round;stroke-miterlimit:4;stroke-opacity:1;stroke-dasharray:none" d="m1971.5 2800-14.5 3.5-7.5 9.5"/><path style="fill:none;stroke:#00a65b;stroke-width:5;stroke-linecap:butt;stroke-linejoin:round;stroke-miterlimit:4;stroke-dasharray:none;stroke-opacity:1" d="m2718 1761 12-4 82 44 91-26 156-280 18.495-34.114 7.627-4.767L3116 1452l50-1 20 8 123.5 41 14 8.5 15.5-6 13-5.5 55 6 57-38.5 135.5-91.5 6.5-5 2.5-85.5 34.21-80.906L3659 1169.5l30.5-23.5 18-7 32.5-6 9-9.5 12-16.5 13.5-28.5"/><path style="fill:none;stroke:#ff0080;stroke-width:5;stroke-linecap:butt;stroke-linejoin:round;stroke-miterlimit:4;stroke-opacity:1;stroke-dasharray:none" d="m3298 1508 31-23.5 28-34 21.5-42.5 26.5-10 14-35.5 32.5-109 26-52 37-65.5 16.5-33 20.5-49 22-61.5 9.5-24 43.5-62-7.5-28.5-.5-53.5 15.573-37.764"/><path style="fill:none;stroke:#006000;stroke-width:5;stroke-linecap:butt;stroke-linejoin:round;stroke-miterlimit:4;stroke-dasharray:none;stroke-opacity:1" d="M3474.544 3616.58 3515 3642l107-19 24-6 187-77 7-9-20-76-1-4"/><path style="fill:none;stroke:#7ea3d5;stroke-width:5;stroke-linecap:butt;stroke-linejoin:round;stroke-miterlimit:4;stroke-opacity:1;stroke-dasharray:none" d="m1918 3006.5-8.251 5.602-62.548-26.083M1906 3010.5l24 8"/><path style="fill:none;stroke:#f60;stroke-width:5;stroke-linecap:butt;stroke-linejoin:round;stroke-miterlimit:4;stroke-opacity:1;stroke-dasharray:none" d="m2195.5 3262-.5-9.5h-11l-8-14.5.5-15 6.5-29 14.162-17.974 11.088-18.276 21.75-43 10.25-20.75 11.75-17.5-14.75-9.5 33.75-61 10.5-20.5 25.5-44.5 68-105.5-37-23 22-45.5 10-24.5 74.5-135 41.029-73.949 28.971-54.051 77-140.5 34.5-61"/><path style="fill:none;stroke:#faa;stroke-width:1px;stroke-linecap:butt;stroke-linejoin:round;stroke-opacity:1" d="m2418.888 2964.53 1.721 4.686 130.344 56.05 224.25 91.119 32.49 12.3 16.057 8.565"/><path style="fill:none;stroke:#7bd9f5;stroke-width:5;stroke-linecap:butt;stroke-linejoin:round;stroke-miterlimit:4;stroke-opacity:1;stroke-dasharray:none" d="m2769 2347 91-164 132.5-239.5L3113 1725l18.05-30.944M3123.668 1659.237l15.189 8.15 2.537 7.03-11.704 21.488"/><path style="fill:none;stroke:#ff0080;stroke-width:5;stroke-linecap:butt;stroke-linejoin:round;stroke-miterlimit:4;stroke-opacity:1;stroke-dasharray:none" d="m3298 1508-20.5 16.5-69.5 129-7.5 8"/><path style="fill:none;stroke:#faa;stroke-width:1px;stroke-linecap:butt;stroke-linejoin:round;stroke-opacity:1" d="m2603.25 2486.5.222-3.115-10.584-6.078-1.139-3.307L3095 1563"/><path style="fill:none;stroke:#ff0080;stroke-width:5;stroke-linecap:butt;stroke-linejoin:round;stroke-miterlimit:4;stroke-opacity:1;stroke-dasharray:none" d="m2377.5 3069.5 8.076-12.467L2413 2993.5l17.5-57.5 19.5-73.5 40.5-73.5 99-178.5 91-165.5 80-145 91.5-164.5 100-181.5 143.5-260 21.605-39.394 4.994-1.35 12.373 6.406 13.483 7.498 23.766-11.776 23.658 9.312 5.121-3.196"/><path style="fill:none;stroke:#faa;stroke-width:1px;stroke-linecap:butt;stroke-linejoin:round;stroke-opacity:1" d="m2363.71 2982.95 2.6-.975 38.98 18.551 1.75-.873 3.12-6.984 2.673-8.777"/><path style="fill:none;stroke:#29084a;stroke-width:5;stroke-linecap:butt;stroke-linejoin:round;stroke-miterlimit:4;stroke-opacity:1;stroke-dasharray:none" d="M2191 3263.5v-7h-8.5l-11-16.5.5-16 7.5-37.5 12-35 12-35.5 9-31.5 19-105 20-151.5 11-44 3.5-24 8-36 .5-44 31.5-55.5 130.5-236.5 79-146 251-457 32.458-58.541 13.99-4.247 22.357 11.449 10.726-2.912 57.13-105.715 69.868-133.604"/><path style="fill:none;stroke:#f60;stroke-width:5;stroke-linecap:butt;stroke-linejoin:round;stroke-miterlimit:4;stroke-opacity:1;stroke-dasharray:none" d="m2592 2340-93.5-55 38.5-74 117.5-212.5 147.611-267.94 9.89-3.788 22.229 12.086 14.298-3.838 57.91-105.554L3084 1291"/><text style="font-size:144px;font-style:normal;font-weight:400;fill:#000;fill-opacity:1;stroke:none;font-family:Sans;-inkscape-font-specification:Sans" xml:space="preserve" y="-1727.0391" x="-1010.5469"><tspan y="-1727.0391" x="-1010.5469">1910</tspan></text><text style="font-size:144px;font-style:normal;font-weight:400;fill:#000;fill-opacity:1;stroke:none;font-family:Sans;-inkscape-font-specification:Sans" xml:space="preserve" y="6163.9609" x="-1010.5469"/><path style="fill:none;stroke:#0c3d91;stroke-width:5;stroke-linecap:butt;stroke-linejoin:round;stroke-miterlimit:4;stroke-opacity:1;stroke-dasharray:none" d="m1505 4150-15.5 12-9 23.5-8 28 .5 19.5 11 73-4.5 22-8 20.5 3.5 62 7 20.5 11.5 19.5 18.5 33 8 16.5v20l-9 15.5"/><path style="fill:none;stroke:#0c3d91;stroke-width:5;stroke-linecap:butt;stroke-linejoin:round;stroke-miterlimit:4;stroke-opacity:1;stroke-dasharray:none" d="m1503 4152-19 6-14-3-12-12-14.5-29-28-19.5-53-17.5h-13l-18.5 10-27.5 22-67 22.5-33 4-30-3.5-18-8.5-26.5-.5-54.5 1.5-17.5 8-64.5 51-45 9.5-43 18.5-35 7.5-125.5 9-19.5 10-92 54-23.5 6.5h-78l-11.5 2.5-115 5.5M1513 4532.5l-3.5 18.5 3 15.5 45 79.5 8 20.5 16.5 106 .5 22-6.5 25 1 19 7.5 29.5v26.5l-4.5 41-9 17.5-10.5 11"/><path style="fill:none;stroke:#009174;stroke-width:5;stroke-linecap:butt;stroke-linejoin:round;stroke-miterlimit:4;stroke-opacity:1;stroke-dasharray:none" d="m2013.445 2736.867-41.521-1.597-101.567-23.954-61.323-29.23-28.495-15.979-33.147-17.712-7.027 1.278-49.186 91.985-7.666 20.44-13.095 14.693-5.11 3.833"/><path style="fill:none;stroke:#009174;stroke-width:1px;stroke-linecap:butt;stroke-linejoin:round;stroke-opacity:1" d="m1667.224 2778.388-10.22 6.388-21.743 33.188-20.736-4.124-16.29-.32-28.744 36.412-12.137 47.908-16.928 12.137 5.11 20.441-25.232 57.81-13.095 31.62-11.498-4.472-9.901 18.844-10.86 20.122-31.939 45.673-24.912 32.259-40.563 44.715-48.867 54.935-30.661 36.091-12.776 8.943-.32 28.107-15.65 14.053-7.665 26.19-16.928 23.954-14.372 20.441-11.18 28.107 5.75 6.388M1803 2677.5l-.5-6 9.148-16.964-3.148-5.036-52.245-27.47-1.5-3.86 90.886-174.44L1836 2392l79-149 3.5-.5 27.5 17.5 26.5 12.5 3.5-.5 22-46 17.5-36.5-7.317-12.451-32.173 56.922-13.435 30.052-3.89 1.768"/><path style="fill:none;stroke:#009174;stroke-width:1px;stroke-linecap:butt;stroke-linejoin:round;stroke-opacity:1" d="m1809.84 2657.528 48.437-98.995 68.589-140.714 53.74-111.37-.707-3.181-13.435-5.657-.354-3.536 11.668-25.102M2014.9 2189.777l11.314-14.496 29.345-47.73 24.75-41.719-.708-2.828-10.96-6.01 25.81-44.548 3.888-.354 91.217 57.63 6.01 8.131-1.767 19.092-3.536 19.799-9.9 26.516 1.415 4.243 12.728 6.364M2068.64 2076.993l-61.517 102.884M1962.575 2262.962l-10.253 25.103 2.121 3.535 7.778 4.596.354 4.597-89.45 189.504.708 12.728-81.567 165.524 1.664 5.242M1755 2617.75l-10.75 19.25 4.25 5 44.5 24.5M2008.537 2177.756l-20.506-34.295-6.718.354-12.02 11.667-55.155 88.742M1803.476 2679.095l-6.01 2.121-13.436 27.578-4.242.707-27.224-19.8-4.95 1.061-43.433 63.702"/><path style="fill:none;stroke:#009174;stroke-width:1px;stroke-linecap:butt;stroke-linejoin:round;stroke-opacity:1" d="m1784.384 2708.44-34.649 73.54-10.96 12.02-5.657-.707-28.637-30.406-.407-8.328"/><path style="fill:none;stroke:#faa;stroke-width:1px;stroke-linecap:butt;stroke-linejoin:round;stroke-opacity:1" d="m2458.08 2825.82-4.42 1.944-20.682-2.475M2603.5 2452.75l.196 2.997 6.554 3.753.849 1.799-9.897 18.147.995 3.098"/><path style="fill:none;stroke:#006000;stroke-width:5;stroke-linecap:butt;stroke-linejoin:round;stroke-miterlimit:4;stroke-dasharray:none;stroke-opacity:1" d="m3388 3291-29 7-230 29-148.5 25-233 35-33 5-77-2-130-8"/><path style="fill:none;stroke:maroon;stroke-width:5;stroke-linecap:butt;stroke-linejoin:round;stroke-miterlimit:4;stroke-dasharray:none;stroke-opacity:1" d="m2862 3577 2 14-67.5 257.5-4.592 6.851-4.908 8.65"/><path d="m2763.218 3385.514 5.72 4.333L2776.5 3441l6.5 28.5 3.616 21.696 5.918 3.794L2999 3464l169.5-25.5 55-8.5 139.5 104.5 104.495 77.678 7.467 5.551" style="fill:none;stroke:#006000;stroke-width:5;stroke-linecap:butt;stroke-linejoin:round;stroke-miterlimit:4;stroke-dasharray:none;stroke-opacity:1"/><path d="m2408 3239.75 22.5 13 24.612 25.89-4.112 13.86v37.908l5.616 19.467L2464 3378.5l6 14.5 4.5 5 36.5 18.5 66 38.5 50.771 31.788 96.517 51.297 171.797 47.932 383.915 26 188.83 13.865 8.085 5.5" style="fill:none;stroke:maroon;stroke-width:5;stroke-linecap:butt;stroke-linejoin:round;stroke-miterlimit:4;stroke-dasharray:none;stroke-opacity:1"/><path style="fill:none;stroke:#faa;stroke-width:1px;stroke-linecap:butt;stroke-linejoin:round;stroke-opacity:1" d="m2254.019 3108.949 24.345-5.532 7.193-4.09 12.576-11.59 19.476-22.445 50.652-90.783 5.907-7.757 2.11-.531 34.886 18.452 1.67-.781 14.749-48.48 19.605-73.625 7.812-21.537 4.85-23.02 9.115-37.048L2469 2752l-.91-14.925 27.838-50.163 63.867-117.045"/><path d="m2508 3382-28.238-1.238 1.758-56.762-13.391-.5.497-47.278-26.218-26.708-139.64-149.282-11.236-12.735M2322.716 4013.622l1.902-4.768L2352.5 3974l111.5-142.5 91.5-144.5 10-15.5 31.5-60.5 23.5-47.5-8.5-35.5-30.5-66-9-72-5.72-4.992" style="fill:none;stroke:#006000;stroke-width:5;stroke-linecap:butt;stroke-linejoin:round;stroke-miterlimit:4;stroke-dasharray:none;stroke-opacity:1"/><path d="m2481.483 3324.004 1.017-28.003-26.776-.5" style="fill:none;stroke:#006000;stroke-width:5;stroke-linecap:butt;stroke-linejoin:round;stroke-miterlimit:4;stroke-dasharray:none;stroke-opacity:1"/><path style="fill:none;fill-rule:evenodd;stroke:maroon;stroke-width:5;stroke-linecap:butt;stroke-linejoin:round;stroke-miterlimit:4;stroke-dasharray:none;stroke-opacity:1" d="m2287.916 3090.727 20.89 23.03 130.37 139.557 24.54 24.916-.504 45.68-.377 15.73-2.769 2.518-1.384.251-3.398 3.524"/><path style="fill:none;stroke:maroon;stroke-width:5;stroke-linecap:butt;stroke-linejoin:round;stroke-miterlimit:4;stroke-dasharray:none;stroke-opacity:1" d="M3911.133 3612.862 3835.5 3626l5.5 33.5-331.36 65.893-10.131 2.006-4.455-3.976-7.503-39.295-1.305-23.865.83-22.364L3475.5 3629"/><path d="m2327.236 4005.679-10.386 14.007-6.347 2.077-4.716-2.112-42.414-33.717-7.417.133L2065.5 4229.5" style="fill:none;stroke:#006000;stroke-width:5;stroke-linecap:butt;stroke-linejoin:round;stroke-miterlimit:4;stroke-dasharray:none;stroke-opacity:1"/><path d="m2385.76 4088.854 35.243 28.193L2433 4121.5l11 .5 64 50.5 82.5 65 5.085 4.44" style="fill:none;stroke:#006000;stroke-width:1;stroke-linecap:butt;stroke-linejoin:round;stroke-miterlimit:4;stroke-dasharray:none;stroke-opacity:1"/><path d="m2385.76 4088.854-6.573-5.257-4.667-9.19-9.044-14.944-41.448-33.261-1.489-4.158.358-10.08" style="fill:none;stroke:#006000;stroke-width:5;stroke-linecap:butt;stroke-linejoin:round;stroke-miterlimit:4;stroke-dasharray:none;stroke-opacity:1"/><path style="fill:none;stroke:#006000;stroke-width:1;stroke-linecap:butt;stroke-linejoin:round;stroke-miterlimit:4;stroke-dasharray:none;stroke-opacity:1" d="m2646.632 5200.199 6.83-31.062 1.233-13.137 7.254-68.967L2651.118 4973l2.882-28 20-180-3-26-70-479-2.695-14.975-4.627-5.34M2411.11 4108.59l5.671 30.235 1.22 15.175-4 86-11 98-53 242-16.671 73.204 4.17 32.067-.815 8.315-11.803 21.922-36.924 49.034.33 4.949 41.933 30.025 89.991 79.704 14.288 47.093 24.55 30.412 49.577 41.825L2543 5020l19.5 22 9.5 25-.983 31.609-5.126 25.632 5.123 47.007 2.56 20.063M3639 3098l-11 45-26 33-168 56-46 59-2.75.569"/><path style="fill:none;stroke:#b0720c;stroke-width:1;stroke-linecap:butt;stroke-linejoin:round;stroke-miterlimit:4;stroke-dasharray:none;stroke-opacity:1" d="M3527.267 3939.079 3539 3999l-8 25-47 97-4 18.5 2.5 15.5 10.5 17 140.5 168 24 16.5"/><path d="m2603.773 2485.956-46.158 83.759-5.03 9.327" style="fill:none;stroke:#faa;stroke-width:5;stroke-linecap:butt;stroke-linejoin:round;stroke-miterlimit:4;stroke-dasharray:none;stroke-opacity:1"/><path d="M2821.001 5149.998 2816 5160l-91 27-63-6-5.489-.4-3.409 1.392-2.01 2.198-3.522 16.242" style="fill:none;stroke:maroon;stroke-width:1;stroke-linecap:butt;stroke-linejoin:round;stroke-miterlimit:4;stroke-dasharray:none;stroke-opacity:1"/><path d="m2787.549 3863.522 8.799 91.448L2793 3978l-35 155 31 216 52 357 39 276 1 48-59.998 119.998" style="fill:none;stroke:maroon;stroke-width:5;stroke-linecap:butt;stroke-linejoin:round;stroke-miterlimit:4;stroke-dasharray:none;stroke-opacity:1"/></svg>