<svg xmlns="http://www.w3.org/2000/svg" height="1650" width="2200"><path style="opacity:1;fill:none;fill-opacity:1;fill-rule:nonzero;stroke:#00a152;stroke-width:5;stroke-linecap:butt;stroke-linejoin:round;stroke-miterlimit:4;stroke-dasharray:none;stroke-opacity:1" d="m567.13 407.45 5.65-1.28 19.62 4.82 8.76 5.34 23.59 38.37 58.73 96.12 10.31 13.66 11.27 10.31 188.4 125.36 9.35 10.07 5.75 11.27 46.02 130.63 15.58 77.42 8.39 9.11 10.79 4.79 28.28 1.68 52.01 19.89 50.58 14.38 13.66 9.83 31.64 39.07 6.23 6.23 23.97 7.67 7.67 7.19 70.23 99.71 17.26 18.7 36.67 32.36 93.96 159.64 30.44.10.31 6.95 106.33 36.65"/><path d="m1448.56 324.32-20.33.71-21.63 40.87-126.63 45.78-14.35-3.93-9.11-7.22-22.07-28.15-69.64-7.8-79.1 30.68-9.11.72-12.94-3.6-71.67-8.63-116.01-6.95-85.33-.24-12.46 5.99-10.31 7.91-7.43 6.71-8.63 3.36-23.49-2.16-15.82-3.12-23.49-9.83-12.22-10.07-29.72-6.95-38.11 1.68-7.43 1.92-5.03 4.55-8.63 17.26-4.79 5.27-17.02 3.84" style="opacity:1;fill:none;fill-opacity:1;fill-rule:nonzero;stroke:#f84d81;stroke-width:5;stroke-linecap:butt;stroke-linejoin:round;stroke-miterlimit:4;stroke-dasharray:none;stroke-opacity:1"/><text x="89.45" y="206.96" xml:space="preserve" style="font-style:normal;font-weight:400;font-size:144px;font-family:Sans;-inkscape-font-specification:Sans;fill:#000;fill-opacity:1;stroke:none"><tspan x="89.45" y="206.96">1945</tspan></text></svg>