<?xml version="1.0" encoding="UTF-8" standalone="no"?>
<!-- Created with Inkscape (http://www.inkscape.org/) -->

<svg
   xmlns:dc="http://purl.org/dc/elements/1.1/"
   xmlns:cc="http://creativecommons.org/ns#"
   xmlns:rdf="http://www.w3.org/1999/02/22-rdf-syntax-ns#"
   xmlns:svg="http://www.w3.org/2000/svg"
   xmlns="http://www.w3.org/2000/svg"
   xmlns:xlink="http://www.w3.org/1999/xlink"
   xmlns:inkscape="http://www.inkscape.org/namespaces/inkscape"
   version="1.1"
   width="3584"
   height="5376"
   viewBox="0 0 3584 5376"
   id="svg2">
  <metadata
     id="metadata3795">
    <rdf:RDF>
      <cc:Work
         rdf:about="">
        <dc:format>image/svg+xml</dc:format>
        <dc:type
           rdf:resource="http://purl.org/dc/dcmitype/StillImage" />
      </cc:Work>
    </rdf:RDF>
  </metadata>
  <defs
     id="defs6" />
  <image
     xlink:href="nycosm.png"
     style="fill:#501616;display:none"
     id="image12"
     height="5376"
     width="3584"
     y="0"
     x="0" />
  <path
     d="m 523,4030.5 0.9322,-10.6017 8.62671,-10.8931"
     inkscape:connector-curvature="0"
     id="path3697"
     style="fill:none;stroke:#808080;stroke-width:1px;stroke-linecap:butt;stroke-linejoin:miter;stroke-opacity:1" />
  <path
     d="m 645,4804.5 66.5,55.5 15,11.5 6.5,16 18,132.5 19.5,22 9.5,25 -3.5,34 0,24.5"
     inkscape:connector-curvature="0"
     id="path7470"
     style="fill:none;stroke:#808080;stroke-width:1;stroke-linecap:butt;stroke-linejoin:round;stroke-miterlimit:4;stroke-opacity:0.94117647;stroke-dasharray:none" />
  <path
     d="M 632.84746,4113.9407 640,4132.5 l -14,21.5 -4,86 -11,98 -53,242 -23,101 5,37 13,17 92,69.5"
     inkscape:connector-curvature="0"
     id="path9400"
     style="fill:none;stroke:#808080;stroke-width:1;stroke-linecap:butt;stroke-linejoin:round;stroke-miterlimit:4;stroke-opacity:0.94117647;stroke-dasharray:none" />
  <path
     d="m 777,5124 5,47 2.5,20"
     inkscape:connector-curvature="0"
     id="path3608"
     style="fill:none;stroke:#808080;stroke-width:1;stroke-linecap:butt;stroke-linejoin:miter;stroke-miterlimit:4;stroke-opacity:0.94117647;stroke-dasharray:none" />
  <path
     d="m 809,4260 70,479 3,26 -20,180 -7,68 -1,117 3,26 -3.82218,29.9964 L 853,5199.5"
     inkscape:connector-curvature="0"
     id="path3616-6"
     style="fill:none;stroke:#808080;stroke-width:1;stroke-linecap:butt;stroke-linejoin:round;stroke-miterlimit:4;stroke-opacity:1;stroke-dasharray:none" />
  <path
     d="m 747,3953.5 22,20 4,23 19,138 16.5,115.5 0.17797,10.5085"
     inkscape:connector-curvature="0"
     id="path4991"
     style="fill:none;stroke:#808080;stroke-width:1px;stroke-linecap:butt;stroke-linejoin:miter;stroke-opacity:1" />
  <path
     d="m 632.5,4114.5 -101,-79.5 -8.31834,-5.0722"
     inkscape:connector-curvature="0"
     id="path6848"
     style="fill:none;stroke:#808080;stroke-width:1;stroke-linecap:butt;stroke-linejoin:round;stroke-miterlimit:4;stroke-opacity:1;stroke-dasharray:none" />
  <path
     d="m 1730,3912.5 17,86.5 -8,25 -47,97 -4,18.5 2.5,15.5 10.5,17 140.5,168 24,16.5"
     inkscape:connector-curvature="0"
     id="path3617"
     style="fill:none;stroke:#808080;stroke-width:1;stroke-linecap:butt;stroke-linejoin:miter;stroke-miterlimit:4;stroke-opacity:1;stroke-dasharray:none" />
  <path
     d="m 1455,491 -11,29.5 -17,20 -25.5,31.5 -11,21 -14,33.5 -18.5,61 -34,74.5 -23,40 -20,37.5 -36,58 -11,27 -24,31.5 -15.5,25.5 -9,28.5001 2.5,26 3.5,34.5 -4,22.5 -20.5,47.5 -9.5,27 -22.5,108.5 -7,20 -20,35 -27.5,37 -30,46.5 -56,77.9999 -20,30 -10.5,34.5 -67,135 -42.5,82.5 -10.5,20 -12.5,24.5 -16.5,23.5 -21,24 -22.5,53 -16,31 -30.5,64.5 -12,28 -28,76 -9,16.5 -6.5,46.5 -132.75424,246.1695 -6.40678,12.1017 0.71187,13.5254 14.94915,34.1695 4.98305,9.2542 20.64407,12.1017"
     inkscape:connector-curvature="0"
     id="path3819"
     style="fill:none;stroke:#808080;stroke-width:1;stroke-linecap:butt;stroke-linejoin:round;stroke-miterlimit:4;stroke-opacity:1;stroke-dasharray:none;stroke-dashoffset:0" />
  <path
     d="m 1687.8149,3653.9986 -2.543,28.7402 27.5671,140.8798 9.0424,40.9407 8.2542,49.5254"
     inkscape:connector-curvature="0"
     id="path9183"
     style="fill:none;stroke:#808080;stroke-width:1px;stroke-linecap:butt;stroke-linejoin:miter;stroke-opacity:1" />
  <path
     d="m 1638,3051.0508 -23.4915,-12.1017 -30.6102,-4.983 -44.1356,7.1186 -24.2034,12.1017 -21.3559,23.4916 -28.4746,32.0339 -11.3898,7.8305 -128.8475,43.4237 -49.1186,7.1186 -158.7458,20.6441 -102.5085,-43.4237 -92.54233,-12.1017"
     inkscape:connector-curvature="0"
     id="path9181"
     style="fill:none;stroke:#808080;stroke-width:1px;stroke-linecap:butt;stroke-linejoin:miter;stroke-opacity:1" />
  <path
     d="m 2361.5,2488 16.5,-16.5 47.5,-103 18.5,-30 32.5,-13.5 3,-7 -1.5,-38.5 3,-14.5 -43,-121 -11,-30.5 -2.5,-11 -0.5,-44 -11.5,-34 -2.5,-17 1.5,-40 7.5,-11.5 18.5,-10 25,-3.5 141,-12.5 15,-2.5 11.5,-6.5 27.5,3 48.5,16 29,3 11.5,-7 28,-22 9.5,-16.5 8.5,-34 10,-51.5"
     inkscape:connector-curvature="0"
     id="path8722"
     style="fill:none;stroke:#808080;stroke-width:1px;stroke-linecap:butt;stroke-linejoin:miter;stroke-opacity:1" />
  <path
     d="m 1556.6956,1758.7953 -15.5564,10.9601 -9.8995,2.2446 -13.7885,-1.891 -28.2843,-16.9706 -9.546,-15.5563 -8.4758,-25.8428 -24.3809,-15.1885 -27.7642,-14.8638 -8.0847,-18.7718 -39.5085,-21.7118"
     inkscape:connector-curvature="0"
     id="path8495"
     style="fill:none;stroke:#808080;stroke-width:1px;stroke-linecap:butt;stroke-linejoin:miter;stroke-opacity:1" />
  <path
     d="m 1593.5,-0.49995 -16.5,93 -33.5,109 -51.5,184.49996 -19,54.5 -18.5,51.5 -2,17.5 4,16.99999 36,42.5 15,9.5 17.3423,-4.86301 L 1541,560.5 l 26,-22 30.5,-21 13,-11.5 11,-1 22,13.5 14,12 7.5,12 1,20"
     inkscape:connector-curvature="0"
     id="path3817-0"
     style="fill:none;stroke:#808080;stroke-width:1;stroke-linecap:butt;stroke-linejoin:round;stroke-miterlimit:4;stroke-opacity:1;stroke-dasharray:none;stroke-dashoffset:0" />
  <path
     d="m 3021,91.00005 -32,8.5 -28,2 -18,-1.5 -251,-73 -28,-7.5 -27.5,1.5 -49.5,11 -30.5,-1 -58.5,-10.5 -19,-1.5 -24,4 -26,13 -14.5,7 -56.5,12.5 -28.5,7.5 -28.5,14.5 -24.5,18 -16.5,18 -26,42 -59.5,90.00001 -21,40 -41,93.99995 -13,39 L 2062,538.5 l -12.5,39.5 -46.5,82 -14.5,13.5 -126.5,92 -17.5,19 -35.5,59.5 -27,49.5 -66,156.5 -49,114 -45.5,107.5 -12.5,23.5 -14.5,17.5 -129.5,108 -32.5,39 -24.5,44 -22.5,41.5 -14.5,12.5 -58,31.5 -492.5,891"
     inkscape:connector-curvature="0"
     id="path3801"
     style="fill:none;stroke:#808080;stroke-width:1;stroke-linecap:butt;stroke-linejoin:round;stroke-miterlimit:4;stroke-opacity:1;stroke-dasharray:none;stroke-dashoffset:0" />
  <path
     d="m 2171.1864,250.57632 44.8475,-88.98307 36.3051,-71.1864 54.1016,-89.6949"
     inkscape:connector-curvature="0"
     id="path2881"
     style="fill:none;stroke:#808080;stroke-width:1px;stroke-linecap:butt;stroke-linejoin:miter;stroke-opacity:1" />
  <path
     d="m 1619.6024,696.85672 24.0925,-66.85662 22.6688,-67.42518"
     inkscape:connector-curvature="0"
     id="path4861"
     style="fill:none;stroke:#808080;stroke-width:1px;stroke-linecap:butt;stroke-linejoin:miter;stroke-opacity:1" />
  <path
     d="m 1214,2618 -76.5,38 -17.5,5.5 -15,0"
     inkscape:connector-curvature="0"
     id="path3807"
     style="fill:none;stroke:#808080;stroke-width:1;stroke-linecap:butt;stroke-linejoin:round;stroke-miterlimit:4;stroke-opacity:1;stroke-dasharray:none;stroke-dashoffset:0" />
  <path
     d="m 2853.5,3271.5 19.5,7 50,42 10.5,14.5 25,48.5 13.5,21 21,21 150,118.5 176,143.5 77,54.5 68,37 56.5,26.5 63.5,1.5"
     inkscape:connector-curvature="0"
     id="path3809"
     style="fill:none;stroke:#808080;stroke-width:1;stroke-linecap:butt;stroke-linejoin:round;stroke-miterlimit:4;stroke-opacity:1;stroke-dasharray:none;stroke-dashoffset:0" />
  <path
     d="m 3584.5,4609.5 -43.5,23 -55.5,28 -18.5,18 -16,22 -9.1356,27.7034 -12.8135,18.5085 L 3407.5,4761.5"
     inkscape:connector-curvature="0"
     id="path3811"
     style="fill:none;stroke:#808080;stroke-width:1;stroke-linecap:butt;stroke-linejoin:round;stroke-miterlimit:4;stroke-opacity:1;stroke-dasharray:none;stroke-dashoffset:0" />
  <path
     d="m 2752.5,3308 -57,14.5 -43,14.5 -20.5,0 -17,-4 -126.5,-69 -106,-59 -128.5,-37.5 -23.5,0.5 -69,8 -156,5.5 -35.5,4 -65,4 -20,-5.5 -154,-88 -36.5,-20.5 -26,-10.5 -23.5,-8 -18.5,-15.5 -81.5,-126.5 -16.5,-16.5 -21,-8.5 -36,-5 -19.5,-7 -29.5,-17 -41,-13.5 -63.5,-19 -20.5,-14 -13.5,-19 -24.5,-53 -26.5,-28 -72,-28 -35.5,-18.5 -21,-7 -46,-12.5"
     inkscape:connector-curvature="0"
     id="path3805"
     style="fill:none;stroke:#808080;stroke-width:1;stroke-linecap:butt;stroke-linejoin:round;stroke-miterlimit:4;stroke-opacity:1;stroke-dasharray:none;stroke-dashoffset:0" />
  <path
     d="M 1681.4218,3657.2186 1709,3662 l 43.5,-1.5 58.5,-9 40,-8 94,-34 177.5,-67 300.5,-112.5 251.5,-95 67.5,-24"
     inkscape:connector-curvature="0"
     id="path3803"
     style="fill:none;stroke:#808080;stroke-width:1;stroke-linecap:butt;stroke-linejoin:round;stroke-miterlimit:4;stroke-opacity:1;stroke-dasharray:none" />
  <path
     d="M 1555.7116,1759.9485 1569,1748.5 l 16,-17.5 63.5,-84 27,-26 87.5,-79.5 74.5,-97.5 31.5,-28 14.5,-22.5 5.5,-35 6.5,-48.5 23.5,-36.5 34,-56 16,-20.5 18,-13.5 38.5,-21 75.5,-38.5 31,-14.5 34,-8 41,-5 30,-7.5 42,-14.5 36.5,-15 31.5,-22 14.5,-21.5 47,-90.5 14.5,-18 26.5,-18 175,-75 28.5,-13.5 20,-21.5 29.5,-35.5 152,-320.99999 42.5,-94.49994 24,-66.50001 21,-38.5 33,-63.00001 21.5,-41.5 12.5,-17.5 14,-12 16.5,-8.5 19,-22 35,-59"
     inkscape:connector-curvature="0"
     id="path3799"
     style="fill:none;stroke:#808080;stroke-width:1;stroke-linecap:butt;stroke-linejoin:round;stroke-miterlimit:4;stroke-opacity:1;stroke-dasharray:none;stroke-dashoffset:0" />
  <path
     d="M 1200.0397,2624.5857 1252,2600.5 l 50.5,-22.5 91.5,-31.5 115.5,-28.5 61,-12.5 28,1 30.5,14.5 24,20 75.5,91 35,39.5 16.5,19 19,12.5 88.5,49.5 205.5,101 237.5,115.5 41,20 40,22 70,74 140.5,165.5 20,20.5 30.5,26.5 37,12.5 24.5,4 12.5,-4 57,-19 48.5,-19 44,-15.5 193,-64.5 90,-29.5 222.5,-71.5 183,-58.5"
     inkscape:connector-curvature="0"
     id="path3797"
     style="fill:none;stroke:#808080;stroke-width:1;stroke-linecap:butt;stroke-linejoin:round;stroke-miterlimit:4;stroke-opacity:1;stroke-dasharray:none;stroke-dashoffset:0" />
  <path
     d="m 3496,3793.5 -28.5,-22.5 -62,-111 -67,-122 -21,-36.5 -30.5,-87.5 -73.5,-106 -63.5,-82.5 -23.5,-21.5 -24,-8 -21,-2"
     inkscape:connector-curvature="0"
     id="path3813"
     style="fill:none;stroke:#808080;stroke-width:1;stroke-linecap:butt;stroke-linejoin:round;stroke-miterlimit:4;stroke-opacity:1;stroke-dasharray:none;stroke-dashoffset:0" />
  <path
     d="m 1785.5,2694 23,9.5 17.5,0.5 73,-28.5 196,-77 287,-118.5 72.5,-35.5 47.5,-35.5 38.5,-25 29.5,-13 132,-47 31,-2 81.5,10.5 129.5,14.5 23.5,0 192,-23 236,-31 20.5,-3.5 32.5,-23 25.5,-22.5 111.5,-118.5"
     inkscape:connector-curvature="0"
     id="path3815"
     style="fill:none;stroke:#808080;stroke-width:1;stroke-linecap:butt;stroke-linejoin:round;stroke-miterlimit:4;stroke-opacity:1;stroke-dasharray:none;stroke-dashoffset:0" />
  <path
     d="m 3420,4753 -69,50 -24,34 -35,29 -70,56 -72,12 -86,8 -62,-3 -54,25.5437 -91.4361,30.6043 -24.4495,7.0875 -82.7394,10.8389 -17.6178,4.5303 -23.1547,11.5774 -85.5719,41.7793 -93.1224,39.2623"
     inkscape:connector-curvature="0"
     id="path3630"
     style="fill:none;stroke:#808080;stroke-width:1;stroke-linecap:butt;stroke-linejoin:miter;stroke-miterlimit:4;stroke-opacity:1;stroke-dasharray:none" />
  <path
     d="M 1620.4171,695.48461 1618,708.5 l -20,52.5 -12.5,17.5 -55.5,55.5 -9,14 -12.5,38.5 -12,24.5 -71.5,97 -14,21.5 -29,74.5 -16,51 -18,85.5 -8,47 6.5,23.5 55,97.5 20,34 2.5,17.5 -4,16.5 -11,25.5"
     inkscape:connector-curvature="0"
     id="path4438"
     style="fill:none;stroke:#808080;stroke-width:1;stroke-linecap:butt;stroke-linejoin:round;stroke-miterlimit:4;stroke-opacity:1;stroke-dasharray:none;stroke-dashoffset:0" />
  <path
     d="m 391,3204.5 -3.5,-18 12,-35 12,-35.5 9,-31.5 19,-105 20,-151.5 11,-44 3.5,-24 8,-36 0.5,-44 31.5,-55.5 130.5,-236.5 2.44967,-4.5272"
     inkscape:connector-curvature="0"
     id="path6936"
     style="fill:none;stroke:#29084a;stroke-width:5;stroke-linecap:butt;stroke-linejoin:round;stroke-miterlimit:4;stroke-opacity:1;stroke-dasharray:none" />
  <text
     x="89.453125"
     y="206.96094"
     id="text3652"
     xml:space="preserve"
     style="font-size:144px;font-style:normal;font-weight:normal;fill:#000000;fill-opacity:1;stroke:none;font-family:Sans;-inkscape-font-specification:Sans"><tspan
       x="89.453125"
       y="206.96094"
       id="tspan3654">1875</tspan></text>
  <path
     d="m 2432.4407,2455.9322 22.0678,-4.2712 42.7118,20.6441 96.8136,50.5424 93.9661,46.2711 42.7119,14.2373 51.2542,6.4068 53.3898,-7.8305 104.6441,-12.1017 22.7797,3.5593 49.1186,15.661 113.8983,46.2712 25.6271,8.5424 54.1017,9.9661 44.1356,8.5424 35.5932,23.4915 27.7628,20.6441 66.2033,19.9322 45.5594,22.0678 49.8305,33.4576 27.7627,16.3729 30.6102,4.2712 51.2542,5.6949"
     inkscape:connector-curvature="0"
     id="path3977"
     style="fill:none;stroke:#808080;stroke-width:1px;stroke-linecap:butt;stroke-linejoin:miter;stroke-opacity:1" />
  <path
     d="m 2443.833,2338.7007 -80.0349,28.1884 -95.1359,40.7725 -39.2624,1.5101 -103.1896,36.2422 -93.6258,27.685 -147.6846,68.8151 -84.3662,13.2333 -62.4172,5.537 -71.9811,-15.1009 -17.6177,-9.0606"
     inkscape:connector-curvature="0"
     id="path3979"
     style="fill:none;stroke:#808080;stroke-width:1px;stroke-linecap:butt;stroke-linejoin:miter;stroke-opacity:1" />
  <path
     d="m 2467.4911,2459.5081 -119.8007,-71.4777 -24.1615,-4.0269"
     inkscape:connector-curvature="0"
     id="path3981"
     style="fill:none;stroke:#808080;stroke-width:1px;stroke-linecap:butt;stroke-linejoin:miter;stroke-opacity:1" />
  <path
     d="m 2496.1828,2413.1986 -37.2489,103.1897 -202.8558,123.3242 -50.3364,49.833 -101.1762,28.6918 -63.9272,14.5975 -19.1279,-7.0471 -31.2085,-18.6244 -36.2423,-5.537 -101.1762,21.6446 -17.6177,0"
     inkscape:connector-curvature="0"
     id="path3983"
     style="fill:none;stroke:#808080;stroke-width:1px;stroke-linecap:butt;stroke-linejoin:miter;stroke-opacity:1" />
  <path
     d="m 1265.339,2594.3899 -48.7627,14.9491 -58.3729,10.322 -23.8475,3.339 -15.3051,-3.339 -53.5508,-14.5932"
     inkscape:connector-curvature="0"
     id="path5885"
     style="fill:none;stroke:#808080;stroke-width:1px;stroke-linecap:butt;stroke-linejoin:miter;stroke-opacity:1" />
</svg>
