<?xml version="1.0" encoding="UTF-8" standalone="no"?>
<!-- Created with Inkscape (http://www.inkscape.org/) -->

<svg
   xmlns:dc="http://purl.org/dc/elements/1.1/"
   xmlns:cc="http://creativecommons.org/ns#"
   xmlns:rdf="http://www.w3.org/1999/02/22-rdf-syntax-ns#"
   xmlns:svg="http://www.w3.org/2000/svg"
   xmlns="http://www.w3.org/2000/svg"
   xmlns:xlink="http://www.w3.org/1999/xlink"
   xmlns:inkscape="http://www.inkscape.org/namespaces/inkscape"
   version="1.1"
   width="3584"
   height="5376"
   viewBox="0 0 3584 5376"
   id="svg2">
  <metadata
     id="metadata3604">
    <rdf:RDF>
      <cc:Work
         rdf:about="">
        <dc:format>image/svg+xml</dc:format>
        <dc:type
           rdf:resource="http://purl.org/dc/dcmitype/StillImage" />
      </cc:Work>
    </rdf:RDF>
  </metadata>
  <defs
     id="defs6" />
  <image
     xlink:href="nycosm.png"
     style="fill:#501616;display:none"
     id="image12"
     height="5376"
     width="3584"
     y="0"
     x="0" />
  <g
     id="g7730">
    <path
       d="m 523,4030.5 0.9322,-10.6017 84,-106.0678"
       inkscape:connector-curvature="0"
       id="path3697"
       style="fill:none;stroke:#808080;stroke-width:1px;stroke-linecap:butt;stroke-linejoin:miter;stroke-opacity:1" />
    <path
       d="m 645,4804.5 66.5,55.5 15,11.5 6.5,16 18,132.5 19.5,22 9.5,25 -3.5,34 0,24.5"
       inkscape:connector-curvature="0"
       id="path7470"
       style="fill:none;stroke:#808080;stroke-width:1;stroke-linecap:butt;stroke-linejoin:round;stroke-miterlimit:4;stroke-opacity:0.94117647;stroke-dasharray:none" />
    <path
       d="M 995.54864,3863.5215 1001,3978 l -35,155 31,216 52,357 39,276 1,48 -65,130 -1,18"
       inkscape:connector-curvature="0"
       id="path3606"
       style="fill:none;stroke:#808080;stroke-width:1;stroke-linecap:butt;stroke-linejoin:miter;stroke-miterlimit:4;stroke-opacity:1;stroke-dasharray:none" />
    <path
       d="M 632.84746,4113.9407 640,4132.5 l -14,21.5 -4,86 -11,98 -53,242 -23,101 5,37 13,17 92,69.5"
       inkscape:connector-curvature="0"
       id="path9400"
       style="fill:none;stroke:#808080;stroke-width:1;stroke-linecap:butt;stroke-linejoin:round;stroke-miterlimit:4;stroke-opacity:0.94117647;stroke-dasharray:none" />
    <path
       d="m 995,3864 4.908,-8.6491 4.5916,-6.8509 62.478,-238.3419 -4.8792,-10.0268"
       inkscape:connector-curvature="0"
       id="path3621"
       style="fill:none;stroke:#808080;stroke-width:1;stroke-linecap:butt;stroke-linejoin:miter;stroke-miterlimit:4;stroke-opacity:1;stroke-dasharray:none" />
    <path
       d="m 777,5124 5,47 2.5,20"
       inkscape:connector-curvature="0"
       id="path3608"
       style="fill:none;stroke:#808080;stroke-width:1;stroke-linecap:butt;stroke-linejoin:miter;stroke-miterlimit:4;stroke-opacity:0.94117647;stroke-dasharray:none" />
    <path
       d="m 1697.3439,3424.9606 4.5303,-13.0875 -0.5034,-11.074 -10.0673,-14.0942 -46.8128,-44.7994 -103.6931,-77.5181 -98.156,-73.9945 -19.1278,-17.1144 -24.1615,-29.1951 -8.3845,-9.6354 -9.3196,-11.8933 -29.8177,-45.1649 -30.6102,-34.8813 -27.7627,-37.017 -11.3898,-5.6949 -20.644,-3.5593 -12.1018,1.4237 -66.9152,7.8305 -16.3729,-3.5593 -109.6271,-99.661 -12.1017,-9.2543 -7.8305,-2.8474 -10.1151,0.7217"
       inkscape:connector-curvature="0"
       id="path2892"
       style="fill:none;stroke:#808080;stroke-width:1px;stroke-linecap:butt;stroke-linejoin:miter;stroke-opacity:1" />
    <path
       d="M 1007.6272,4380.7472 997.02056,4375.4439 870.0949,4394.8893 824,4405 l -93,20 -68,8 -34,0 -41.5,-22 -92,-72 -65.5,-52.5 -72,-24.5 -57,-19.5 -70.5,-55 -47,-37.5"
       inkscape:connector-curvature="0"
       id="path5474"
       style="fill:none;stroke:#808080;stroke-width:1px;stroke-linecap:butt;stroke-linejoin:miter;stroke-opacity:1" />
    <path
       d="m 2378.339,3467.492 -34.8815,-96.8135 -19.2203,-44.8475 -56.2375,-91.8305 -21.3559,-32.7458 -14.2374,-21.3559 -12.5174,-11.8216"
       inkscape:connector-curvature="0"
       id="path5966"
       style="fill:none;stroke:#808080;stroke-width:1.00000131px;stroke-linecap:butt;stroke-linejoin:miter;stroke-opacity:1" />
    <path
       d="m 809,4260 70,479 3,26 -20,180 -7,68 -1,117 3,26 -3.82218,29.9964 L 853,5199.5"
       inkscape:connector-curvature="0"
       id="path3616-6"
       style="fill:none;stroke:#808080;stroke-width:1;stroke-linecap:butt;stroke-linejoin:round;stroke-miterlimit:4;stroke-opacity:1;stroke-dasharray:none" />
    <path
       d="m 589.67158,4411.6005 5.57591,20.5392 L 609,4457 l 132,105 15,21 7,18 35,248 16,101 -6,51 -5.40146,22.146 18.75222,137.4426 L 821,5181.5"
       inkscape:connector-curvature="0"
       id="path3608-1"
       style="fill:none;stroke:#808080;stroke-width:1;stroke-linecap:butt;stroke-linejoin:miter;stroke-miterlimit:4;stroke-opacity:1;stroke-dasharray:none" />
    <path
       d="m 747,3953.5 22,20 4,23 19,138 16.5,115.5 0.17797,10.5085"
       inkscape:connector-curvature="0"
       id="path4991"
       style="fill:none;stroke:#808080;stroke-width:1px;stroke-linecap:butt;stroke-linejoin:miter;stroke-opacity:1" />
    <path
       d="m 632.5,4114.5 -101,-79.5 -8.31834,-5.0722"
       inkscape:connector-curvature="0"
       id="path6848"
       style="fill:none;stroke:#808080;stroke-width:1;stroke-linecap:butt;stroke-linejoin:round;stroke-miterlimit:4;stroke-opacity:1;stroke-dasharray:none" />
    <path
       d="m 1730,3912.5 17,86.5 -8,25 -47,97 -4,18.5 2.5,15.5 10.5,17 140.5,168 24,16.5"
       inkscape:connector-curvature="0"
       id="path3617"
       style="fill:none;stroke:#808080;stroke-width:1;stroke-linecap:butt;stroke-linejoin:miter;stroke-miterlimit:4;stroke-opacity:1;stroke-dasharray:none" />
    <path
       d="m 852.77078,5178.0101 -9.19239,16.2635 -7.07107,2.1213 -45.96194,-4.2427 -27.57716,-2.1213 -30.40559,3.5356 -43.13352,12.7279 -22.62742,7.7781 -35.32858,12.136 L 580.5,5231 521.1377,5221.8507 453.96255,5192.8593 441,5178.717 l -1,-20.506 14.66966,-24.7486"
       inkscape:connector-curvature="0"
       id="path5017"
       style="fill:none;stroke:#808080;stroke-width:1px;stroke-linecap:butt;stroke-linejoin:miter;stroke-opacity:1" />
    <path
       d="m 1455,491 -11,29.5 -17,20 -25.5,31.5 -11,21 -14,33.5 -18.5,61 -34,74.5 -23,40 -20,37.5 -36,58 -11,27 -24,31.5 -15.5,25.5 -9,28.5001 2.5,26 3.5,34.5 -4,22.5 -20.5,47.5 -9.5,27 -22.5,108.5 -7,20 -20,35 -27.5,37 -30,46.5 -56,77.9999 -20,30 -10.5,34.5 -67,135 -42.5,82.5 -10.5,20 -12.5,24.5 -16.5,23.5 -21,24 -22.5,53 -16,31 -30.5,64.5 -12,28 -28,76 -9,16.5 -6.5,46.5 -132.75424,246.1695 -6.40678,12.1017 0.71187,13.5254 14.94915,34.1695 4.98305,9.2542 20.64407,12.1017"
       inkscape:connector-curvature="0"
       id="path3819"
       style="fill:none;stroke:#808080;stroke-width:1;stroke-linecap:butt;stroke-linejoin:round;stroke-miterlimit:4;stroke-opacity:1;stroke-dasharray:none;stroke-dashoffset:0" />
    <path
       d="m 1012.2712,4374.4068 -5.6949,6.4068 36.2288,237.3813 32.4322,126.2204 30.3983,213.4406 -11.5,75.7373 -7.1186,65.4915 11.1631,74.5589 10.7658,9.2678 101.179,-11.3403"
       inkscape:connector-curvature="0"
       id="path9185"
       style="fill:none;stroke:#808080;stroke-width:1px;stroke-linecap:butt;stroke-linejoin:miter;stroke-opacity:1" />
    <path
       d="m 1810.9831,3142.8814 14.9491,21.3559 5.6949,29.1864 -2.8474,15.661 -17.7966,35.5933 -48.4068,62.644 -27.7627,42.7119 -27.0509,58.3729 -39.1525,57.661 -12.8136,25.6271 -2.1356,32.7458 8.5364,30.4399 16.6416,22.6618 11.0445,53.0772 -4.6116,52.1192 27.5671,140.8798 9.0424,40.9407 8.2542,49.5254 -5.2881,31.0678 -12.1017,25.6272 -61.2204,49.8305 -108.2034,93.9661 -45.5593,46.2712 -46.983,48.4067 -34.8814,29.8983 -111.7627,75.4577 -27.0509,16.3728 -26.3389,9.9661 -29.1865,4.2712 -210.7118,29.1865 -15.94826,1.7442"
       inkscape:connector-curvature="0"
       id="path9183"
       style="fill:none;stroke:#808080;stroke-width:1px;stroke-linecap:butt;stroke-linejoin:miter;stroke-opacity:1" />
    <path
       d="m 1638,3051.0508 -23.4915,-12.1017 -30.6102,-4.983 -44.1356,7.1186 -24.2034,12.1017 -21.3559,23.4916 -28.4746,32.0339 -11.3898,7.8305 -128.8475,43.4237 -49.1186,7.1186"
       inkscape:connector-curvature="0"
       id="path9181"
       style="fill:none;stroke:#808080;stroke-width:1px;stroke-linecap:butt;stroke-linejoin:miter;stroke-opacity:1" />
    <path
       d="m 2361.5,2488 16.5,-16.5 47.5,-103 18.5,-30 32.5,-13.5 3,-7 -1.5,-38.5 3,-14.5 -43,-121 -11,-30.5 -2.5,-11 -0.5,-44 -11.5,-34 -2.5,-17 1.5,-40 7.5,-11.5 18.5,-10 25,-3.5 141,-12.5 15,-2.5 11.5,-6.5 27.5,3 48.5,16 29,3 11.5,-7 28,-22 9.5,-16.5 8.5,-34 10,-51.5"
       inkscape:connector-curvature="0"
       id="path8722"
       style="fill:none;stroke:#808080;stroke-width:1px;stroke-linecap:butt;stroke-linejoin:miter;stroke-opacity:1" />
    <path
       d="m 1556.6956,1758.7953 -15.5564,10.9601 -9.8995,2.2446 -13.7885,-1.891 -28.2843,-16.9706 -9.546,-15.5563 -8.4758,-25.8428 -24.3809,-15.1885 -27.7642,-14.8638 -8.0847,-18.7718 -39.5085,-21.7118"
       inkscape:connector-curvature="0"
       id="path8495"
       style="fill:none;stroke:#808080;stroke-width:1px;stroke-linecap:butt;stroke-linejoin:miter;stroke-opacity:1" />
    <path
       d="m 1593.5,-0.49995 -16.5,93 -33.5,109 -51.5,184.49996 -19,54.5 -18.5,51.5 -2,17.5 4,16.99999 36,42.5 15,9.5 17.3423,-4.86301 L 1541,560.5 l 26,-22 30.5,-21 13,-11.5 11,-1 22,13.5 14,12 7.5,12 1,20"
       inkscape:connector-curvature="0"
       id="path3817-0"
       style="fill:none;stroke:#808080;stroke-width:1;stroke-linecap:butt;stroke-linejoin:round;stroke-miterlimit:4;stroke-opacity:1;stroke-dasharray:none;stroke-dashoffset:0" />
    <path
       d="m 3021,91.00005 -32,8.5 -28,2 -18,-1.5 -251,-73 -28,-7.5 -27.5,1.5 -49.5,11 -30.5,-1 -58.5,-10.5 -19,-1.5 -24,4 -26,13 -14.5,7 -56.5,12.5 -28.5,7.5 -28.5,14.5 -24.5,18 -16.5,18 -26,42 -59.5,90.00001 -21,40 -41,93.99995 -13,39 L 2062,538.5 l -12.5,39.5 -46.5,82 -14.5,13.5 -126.5,92 -17.5,19 -35.5,59.5 -27,49.5 -66,156.5 -49,114 -45.5,107.5 -12.5,23.5 -14.5,17.5 -129.5,108 -32.5,39 -24.5,44 -22.5,41.5 -14.5,12.5 -58,31.5 -492.5,891"
       inkscape:connector-curvature="0"
       id="path3801"
       style="fill:none;stroke:#808080;stroke-width:1;stroke-linecap:butt;stroke-linejoin:round;stroke-miterlimit:4;stroke-opacity:1;stroke-dasharray:none;stroke-dashoffset:0" />
    <path
       d="m 2171.1864,250.57632 44.8475,-88.98307 36.3051,-71.1864 54.1016,-89.6949"
       inkscape:connector-curvature="0"
       id="path2881"
       style="fill:none;stroke:#808080;stroke-width:1px;stroke-linecap:butt;stroke-linejoin:miter;stroke-opacity:1" />
    <path
       d="m 1619.6024,696.85672 24.0925,-66.85662 22.6688,-67.42518"
       inkscape:connector-curvature="0"
       id="path4861"
       style="fill:none;stroke:#808080;stroke-width:1px;stroke-linecap:butt;stroke-linejoin:miter;stroke-opacity:1" />
    <path
       d="m 1214,2618 -76.5,38 -17.5,5.5 -15,0"
       inkscape:connector-curvature="0"
       id="path3807"
       style="fill:none;stroke:#808080;stroke-width:1;stroke-linecap:butt;stroke-linejoin:round;stroke-miterlimit:4;stroke-opacity:1;stroke-dasharray:none;stroke-dashoffset:0" />
    <path
       d="m 2853.5,3271.5 19.5,7 50,42 10.5,14.5 25,48.5 13.5,21 21,21 150,118.5 176,143.5 77,54.5 68,37 56.5,26.5 63.5,1.5"
       inkscape:connector-curvature="0"
       id="path3809"
       style="fill:none;stroke:#808080;stroke-width:1;stroke-linecap:butt;stroke-linejoin:round;stroke-miterlimit:4;stroke-opacity:1;stroke-dasharray:none;stroke-dashoffset:0" />
    <path
       d="m 3584.5,4609.5 -43.5,23 -55.5,28 -18.5,18 -16,22 -9.1356,27.7034 -12.8135,18.5085 L 3407.5,4761.5"
       inkscape:connector-curvature="0"
       id="path3811"
       style="fill:none;stroke:#808080;stroke-width:1;stroke-linecap:butt;stroke-linejoin:round;stroke-miterlimit:4;stroke-opacity:1;stroke-dasharray:none;stroke-dashoffset:0" />
    <path
       d="m 2752.5,3308 -57,14.5 -43,14.5 -20.5,0 -17,-4 -126.5,-69 -106,-59 -128.5,-37.5 -23.5,0.5 -69,8 -156,5.5 -35.5,4 -65,4 -20,-5.5 -154,-88 -36.5,-20.5 -26,-10.5 -23.5,-8 -18.5,-15.5 -81.5,-126.5 -16.5,-16.5 -21,-8.5 -36,-5 -19.5,-7 -29.5,-17 -41,-13.5 -63.5,-19 -20.5,-14 -13.5,-19 -24.5,-53 -26.5,-28 -72,-28 -35.5,-18.5 -21,-7 -46,-12.5"
       inkscape:connector-curvature="0"
       id="path3805"
       style="fill:none;stroke:#808080;stroke-width:1;stroke-linecap:butt;stroke-linejoin:round;stroke-miterlimit:4;stroke-opacity:1;stroke-dasharray:none;stroke-dashoffset:0" />
    <path
       d="m 819,3526.5 20.5,15 233.2575,62.9165 39.5709,4.9266 97.0686,4.9143 284.1593,20.2573 188.9437,20.9853 26.5,6.5 43.5,-1.5 58.5,-9 40,-8 94,-34 177.5,-67 300.5,-112.5 251.5,-95 67.5,-24"
       inkscape:connector-curvature="0"
       id="path3803"
       style="fill:none;stroke:#808080;stroke-width:1;stroke-linecap:butt;stroke-linejoin:round;stroke-miterlimit:4;stroke-opacity:1;stroke-dasharray:none" />
    <path
       d="M 1555.7116,1759.9485 1569,1748.5 l 16,-17.5 63.5,-84 27,-26 87.5,-79.5 74.5,-97.5 31.5,-28 14.5,-22.5 5.5,-35 6.5,-48.5 23.5,-36.5 34,-56 16,-20.5 18,-13.5 38.5,-21 75.5,-38.5 31,-14.5 34,-8 41,-5 30,-7.5 42,-14.5 36.5,-15 31.5,-22 14.5,-21.5 47,-90.5 14.5,-18 26.5,-18 175,-75 28.5,-13.5 20,-21.5 29.5,-35.5 152,-320.99999 42.5,-94.49994 24,-66.50001 21,-38.5 33,-63.00001 21.5,-41.5 12.5,-17.5 14,-12 16.5,-8.5 19,-22 35,-59"
       inkscape:connector-curvature="0"
       id="path3799"
       style="fill:none;stroke:#808080;stroke-width:1;stroke-linecap:butt;stroke-linejoin:round;stroke-miterlimit:4;stroke-opacity:1;stroke-dasharray:none;stroke-dashoffset:0" />
    <path
       d="M 1200.0397,2624.5857 1252,2600.5 l 50.5,-22.5 91.5,-31.5 115.5,-28.5 61,-12.5 28,1 30.5,14.5 24,20 75.5,91 35,39.5 16.5,19 19,12.5 88.5,49.5 205.5,101 237.5,115.5 41,20 40,22 70,74 140.5,165.5 20,20.5 30.5,26.5 37,12.5 24.5,4 12.5,-4 57,-19 48.5,-19 44,-15.5 193,-64.5 90,-29.5 222.5,-71.5 183,-58.5"
       inkscape:connector-curvature="0"
       id="path3797"
       style="fill:none;stroke:#808080;stroke-width:1;stroke-linecap:butt;stroke-linejoin:round;stroke-miterlimit:4;stroke-opacity:1;stroke-dasharray:none;stroke-dashoffset:0" />
    <path
       d="m 3496,3793.5 -28.5,-22.5 -62,-111 -67,-122 -21,-36.5 -30.5,-87.5 -73.5,-106 -63.5,-82.5 -23.5,-21.5 -24,-8 -21,-2"
       inkscape:connector-curvature="0"
       id="path3813"
       style="fill:none;stroke:#808080;stroke-width:1;stroke-linecap:butt;stroke-linejoin:round;stroke-miterlimit:4;stroke-opacity:1;stroke-dasharray:none;stroke-dashoffset:0" />
    <path
       d="m 1785.5,2694 23,9.5 17.5,0.5 73,-28.5 196,-77 287,-118.5 72.5,-35.5 47.5,-35.5 38.5,-25 29.5,-13 132,-47 31,-2 81.5,10.5 129.5,14.5 23.5,0 192,-23 236,-31 20.5,-3.5 32.5,-23 25.5,-22.5 111.5,-118.5"
       inkscape:connector-curvature="0"
       id="path3815"
       style="fill:none;stroke:#808080;stroke-width:1;stroke-linecap:butt;stroke-linejoin:round;stroke-miterlimit:4;stroke-opacity:1;stroke-dasharray:none;stroke-dashoffset:0" />
    <path
       d="m 3420,4753 -69,50 -24,34 -35,29 -70,56 -72,12 -86,8 -62,-3 -54,25.5437 -91.4361,30.6043 -24.4495,7.0875 -82.7394,10.8389 -17.6178,4.5303 -23.1547,11.5774 -85.5719,41.7793 -93.1224,39.2623"
       inkscape:connector-curvature="0"
       id="path3630"
       style="fill:none;stroke:#808080;stroke-width:1;stroke-linecap:butt;stroke-linejoin:miter;stroke-miterlimit:4;stroke-opacity:1;stroke-dasharray:none" />
    <path
       d="M 2772.1592,4972.9764 2755,4991 l -59,33 -68,33 -103,41 -70,28"
       inkscape:connector-curvature="0"
       id="path3632"
       style="fill:none;stroke:#808080;stroke-width:1;stroke-linecap:butt;stroke-linejoin:miter;stroke-miterlimit:4;stroke-opacity:1;stroke-dasharray:none" />
    <path
       d="M 2572.1035,4040.6585 2556,3961 l -9,-29 -52,-144 -74,-201 -45.9781,-130.0009"
       inkscape:connector-curvature="0"
       id="path5968"
       style="fill:none;stroke:#808080;stroke-width:1;stroke-linecap:butt;stroke-linejoin:miter;stroke-miterlimit:4;stroke-opacity:1;stroke-dasharray:none" />
    <path
       d="m 2771.8857,4973.1614 4.6801,-31.0616 L 2776,4923 l -69,-208 -10,-40 -66,-343 -59.2422,-293.0512"
       inkscape:connector-curvature="0"
       id="path3630-5"
       style="fill:none;stroke:#808080;stroke-width:1;stroke-linecap:butt;stroke-linejoin:miter;stroke-miterlimit:4;stroke-opacity:1;stroke-dasharray:none" />
    <path
       d="M 1620.4171,695.48461 1618,708.5 l -20,52.5 -12.5,17.5 -55.5,55.5 -9,14 -12.5,38.5 -12,24.5 -71.5,97 -14,21.5 -29,74.5 -16,51 -18,85.5 -8,47 6.5,23.5 55,97.5 20,34 2.5,17.5 -4,16.5 -11,25.5"
       inkscape:connector-curvature="0"
       id="path4438"
       style="fill:none;stroke:#808080;stroke-width:1;stroke-linecap:butt;stroke-linejoin:round;stroke-miterlimit:4;stroke-opacity:1;stroke-dasharray:none;stroke-dashoffset:0" />
  </g>
  <path
     d="m 793.5,3452 22.5,-2 11,79.5 83.6763,158.4421 L 1000,3850 l 6.5,128 -35.5,157 33,222 50,339 41,289 -2,46 -14,36 -50.5,93 -3.5,5.5 -91.5,26 -66.5,-8.5 -40.5,14.5 -44.5,-7 -3.5,-6 -3,-14"
     inkscape:connector-curvature="0"
     id="path3688"
     style="fill:none;stroke:#b0720c;stroke-width:5;stroke-linecap:butt;stroke-linejoin:miter;stroke-miterlimit:4;stroke-opacity:1;stroke-dasharray:none;display:none" />
  <path
     d="m 590,3072.5 -26,31 -27,38 -24.5,25 -26.5,10.5 -14,13 -9,15 -30,25.5 3.5,12.5 -30,9 1.5,11"
     inkscape:connector-curvature="0"
     id="path4555"
     style="fill:none;stroke:#7bd9f5;stroke-width:5;stroke-linecap:butt;stroke-linejoin:round;stroke-miterlimit:4;stroke-opacity:1;stroke-dasharray:none" />
  <path
     d="m 812,2583 66.5,38"
     inkscape:connector-curvature="0"
     id="path4577"
     style="fill:none;stroke:#6c6e70;stroke-width:5;stroke-linecap:butt;stroke-linejoin:round;stroke-miterlimit:4;stroke-opacity:1;stroke-dasharray:none" />
  <path
     d="m 851.5,2512.5 -38.5,-21"
     inkscape:connector-curvature="0"
     id="path5111"
     style="fill:none;stroke:#6c6e70;stroke-width:5;stroke-linecap:butt;stroke-linejoin:round;stroke-miterlimit:4;stroke-opacity:1;stroke-dasharray:none" />
  <path
     d="M 1327.4831,1651.6017 1303.5,1694 1160,1954 l -100,181.5 -91.5,164.5 -80,145 -91,165.5 -99,178.5 -40.5,73.5 -19.5,73.5 -17.5,57.5 -27.4242,63.5327 L 585.5,3069.5"
     inkscape:connector-curvature="0"
     id="path9814"
     style="fill:none;stroke:#ff0080;stroke-width:5;stroke-linecap:butt;stroke-linejoin:round;stroke-miterlimit:4;stroke-opacity:1;stroke-dasharray:none" />
  <path
     d="m 585.5,3069.4999 -84,27.0001"
     inkscape:connector-curvature="0"
     id="path8941"
     style="fill:none;stroke:#ff0080;stroke-width:5.00000048;stroke-linecap:butt;stroke-linejoin:round;stroke-miterlimit:4;stroke-opacity:1;stroke-dasharray:none" />
  <path
     d="m 962,2373.5 -111.5,203 -71,128 28,15 -114,205.5 -47,127 -5,14 -45.55861,4.9618 L 589,3073"
     inkscape:connector-curvature="0"
     id="path5124"
     style="fill:none;stroke:#7bd9f5;stroke-width:5;stroke-linecap:butt;stroke-linejoin:round;stroke-miterlimit:4;stroke-opacity:1;stroke-dasharray:none" />
  <path
     d="M 961,2375.5 977,2347"
     inkscape:connector-curvature="0"
     id="path6156"
     style="fill:none;stroke:#7bd9f5;stroke-width:5;stroke-linecap:butt;stroke-linejoin:round;stroke-miterlimit:4;stroke-opacity:1;stroke-dasharray:none" />
  <path
     d="m 977,2347 91,-164 132.5,-239.5 120.5,-218.5 17.5907,-30.1554 5.0534,-9.8616"
     inkscape:connector-curvature="0"
     id="path6185"
     style="fill:#00ffff;stroke:#7bd9f5;stroke-width:5;stroke-linecap:butt;stroke-linejoin:round;stroke-miterlimit:4;stroke-opacity:1;stroke-dasharray:none" />
  <path
     d="m 387.5,3186.5 12,-35 12,-35.5 9,-31.5 19,-105 20,-151.5 11,-44 3.5,-24 8,-36 0.5,-44 31.5,-55.5 130.5,-236.5 79,-146 14.07853,-25.633"
     inkscape:connector-curvature="0"
     id="path6936"
     style="fill:none;stroke:#29084a;stroke-width:5;stroke-linecap:butt;stroke-linejoin:round;stroke-miterlimit:4;stroke-opacity:1;stroke-dasharray:none" />
  <path
     d="m 391.5,3188.5 8.84494,-19.0719 L 407.5,3154 l 24.5,-51 11.5,-18.5 9.5,-15 -7,-4 33,-59.5 10.5,-20.5 25.5,-44.5 68,-105.5 -37,-23 22,-45.5 10,-24.5 74.5,-135 41.02851,-73.9487 L 722.5,2479.5 799.5,2339 834,2278"
     inkscape:connector-curvature="0"
     id="path6424"
     style="fill:none;stroke:#f7931d;stroke-width:5;stroke-linecap:butt;stroke-linejoin:round;stroke-miterlimit:4;stroke-opacity:1;stroke-dasharray:none" />
  <path
     d="m 403.5,3262 -0.5,-9.5 -11,0 -8,-14.5 0.5,-15 3.5,-39.5"
     inkscape:connector-curvature="0"
     id="path4557"
     style="fill:none;stroke:#29084a;stroke-width:5;stroke-linecap:butt;stroke-linejoin:round;stroke-miterlimit:4;stroke-opacity:1;stroke-dasharray:none" />
  <path
     d="m 800,2340 -93.5,-55 38.5,-74 117.5,-212.5 147.611,-267.9408 9.8909,-3.7874 22.228,12.0863 14.2983,-3.8385 57.9107,-105.5539 L 1292,1291.0001"
     inkscape:connector-curvature="0"
     id="path6938"
     style="fill:none;stroke:#f7931d;stroke-width:5;stroke-linecap:butt;stroke-linejoin:round;stroke-miterlimit:4;stroke-opacity:1;stroke-dasharray:none" />
  <text
     x="89.453125"
     y="206.96094"
     id="text3652"
     xml:space="preserve"
     style="font-size:144px;font-style:normal;font-weight:normal;fill:#000000;fill-opacity:1;stroke:none;font-family:Sans;-inkscape-font-specification:Sans"><tspan
       x="89.453125"
       y="206.96094"
       id="tspan3654">1880</tspan></text>
  <path
     d="m 1265.339,2594.3899 -48.7627,14.9491 -58.3729,10.322 -23.8475,3.339 -15.3051,-3.339 -53.5508,-14.5932"
     inkscape:connector-curvature="0"
     id="path5885"
     style="fill:none;stroke:#808080;stroke-width:1px;stroke-linecap:butt;stroke-linejoin:miter;stroke-opacity:1" />
</svg>
