<?xml version="1.0" encoding="UTF-8" standalone="no"?>
<svg
   id="svg2"
   viewBox="0 0 2000 5350"
   height="5350"
   width="2000"
   version="1.1"
   xmlns:xlink="http://www.w3.org/1999/xlink"
   xmlns="http://www.w3.org/2000/svg"
   xmlns:svg="http://www.w3.org/2000/svg"
   xmlns:rdf="http://www.w3.org/1999/02/22-rdf-syntax-ns#"
   xmlns:cc="http://creativecommons.org/ns#"
   xmlns:dc="http://purl.org/dc/elements/1.1/">
  <metadata
     id="metadata8">
    <rdf:RDF>
      <cc:Work
         rdf:about="">
        <dc:format>image/svg+xml</dc:format>
        <dc:type
           rdf:resource="http://purl.org/dc/dcmitype/StillImage" />
      </cc:Work>
    </rdf:RDF>
  </metadata>
  <defs
     id="defs6" />
  <image
     xlink:href="../streetmap/seaosm.png"
     x="-821.59998"
     y="-4013.8003"
     width="4320.6001"
     height="11597.4"
     id="image10"
     style="display:none" />
  <path
     style="fill:none;stroke:#37af4a;stroke-width:5;stroke-linecap:butt;stroke-linejoin:round;stroke-miterlimit:4;stroke-dasharray:none;stroke-opacity:1"
     id="path3761-5"
     d="m 987,3319.5 5.87815,43.7623 -0.14868,24.9976 L 988,3401 l -9.5,9.5 -12,3.5 -70,4 -15.5,4 -10.5,12.5 -1.5,14.5 11,41 6.5,22 7.5,36 13,16.5 26,22.5 9,11 6.40443,18.4821 8.09557,63.0179 11.5,19.5 64.5089,63.4755 11.0636,14.5104 4.638,14.1856 0.2895,11.3285 -2.5,32.5 4.5,16 22.5,56 10,33 5,36 4,40.5 -3.5,27 -10,11.5 -9.9498,3.9141 -10.9892,0.221 -12.4848,-3.8788 -18.898,-7.2012 -11.6782,-1.5551 -19,1 -19,11 -29.5,23.5 -18.5,7 h -16 l -31.83161,-18.4043 -9.5623,-2.3777 L 860,4072 l -15,10 -34,39 -32.56886,37.8159 -9.14169,14.859 L 765,4185 l -1.5,65.5 5,20.5 10.41837,13.0629 13.36277,11.604 6.51733,10.5861 0.78973,13.6581 0.14347,45.2057 3.4675,88.9064 -0.53049,8.3589 -1.34623,12.0164 -6.79634,27.2531 -4.35024,62.1392 0.34498,158.5443" />
  <path
     style="fill:none;stroke:#000000;stroke-width:5;stroke-linecap:butt;stroke-linejoin:round;stroke-miterlimit:4;stroke-dasharray:none;stroke-opacity:1"
     id="path2987"
     d="m 251.5,1665.5 16.5,1.5 6.5,7 1,27 6,10 99.5,88 6.14645,11.0858" />
  <path
     style="fill:none;stroke:#37af4a;stroke-width:1px;stroke-linecap:butt;stroke-linejoin:round;stroke-opacity:1"
     id="path3759"
     d="m 800,2418.5 v 87 l 4.5,15 37.5,87 34.5,87 51.5,160 35.5,100.5 4.5,19 0.5,108 9.5,29 9,24 -0.5,17 -10.5,63 1,24.5 6.5,41.5 4.5,43.5" />
  <text
     style="font-style:normal;font-weight:normal;font-size:143.99990845px;line-height:125%;font-family:Sans;-inkscape-font-specification:Sans;letter-spacing:0px;word-spacing:0px;fill:#000000;fill-opacity:1;stroke:none"
     xml:space="preserve"
     id="text2995"
     y="206.96094"
     x="89.453133"><tspan
       id="tspan1"
       y="206.96094"
       x="89.453133">2020</tspan></text>
  <text
     style="font-style:normal;font-weight:normal;font-size:144px;line-height:125%;font-family:Sans;-inkscape-font-specification:Sans;letter-spacing:0px;word-spacing:0px;fill:#000000;fill-opacity:1;stroke:none"
     xml:space="preserve"
     id="text2999"
     y="5247.9609"
     x="89.453125"><tspan
       id="tspan2"
       y="5247.9609"
       x="89.453125">2020</tspan></text>
  <path
     id="path4305"
     d="m 1841.25,1353.75 -3.5,3 -22.5,-6 -10.5,-7.75 -11.75,-20 -6,0.25 -1.5,8.75 -3.25,2.25 -22,3.75"
     style="fill:none;fill-rule:evenodd;stroke:#acc1d1;stroke-width:1px;stroke-linecap:butt;stroke-linejoin:round;stroke-opacity:1" />
  <path
     d="m 800.5001,2421.5 0.5,-48 -8.5,-20 -9.5,-18 -9.5,-3 -24,-5.5 -41.0018,-18.8071 -21.336,-7.8363 -23.0031,2.9477 -23.1591,10.2656 -45.3129,25.0419 -18.6871,2.8882 h -34.5 l -51.00005,-6 -4.58584,-6.6464 L 486.5,2234 l -0.5,-61.5 2,-41 -0.5,-33 -10,-42.5 1,-35 -1.5,-20.5 -7,-16 -16,-22 -80,-127 1,-7.5 14.5,-10 56.70315,-35.872 6.51209,-0.7514 18.28394,3.2561 13.27463,2.5046 14.2765,0.1253 13.14941,-2.8804 13.02417,-5.1345 9.89336,-6.2616 10.39429,-11.0205 7.88965,-12.0223 4.2579,-11.5214 1.62802,-12.398 1.00186,-52.8481 1.75325,-11.3961 3.75698,-13.0242 6.38685,-14.2765 41.57717,-74.0124 23.29323,-44.3323 20.16242,-34.9398 37.69496,-69.8797 14.90266,-36.1922 8.01488,-23.168 3.00558,-14.9026 6.76255,-32.8109 3.75697,-43.9566 -1.87849,-37.9454"
     id="path3757-7"
     style="fill:none;stroke:#37af4a;stroke-width:5;stroke-linecap:butt;stroke-linejoin:round;stroke-miterlimit:4;stroke-dasharray:none;stroke-opacity:1" />
</svg>
