<?xml version="1.0" encoding="UTF-8" standalone="no"?>
<svg
   xmlns:dc="http://purl.org/dc/elements/1.1/"
   xmlns:cc="http://creativecommons.org/ns#"
   xmlns:rdf="http://www.w3.org/1999/02/22-rdf-syntax-ns#"
   xmlns:svg="http://www.w3.org/2000/svg"
   xmlns="http://www.w3.org/2000/svg"
   xmlns:xlink="http://www.w3.org/1999/xlink"
   version="1.1"
   id="svg2"
   width="4750"
   height="2700"
   viewBox="0 0 4750 2700">
  <metadata
     id="metadata8">
    <rdf:RDF>
      <cc:Work
         rdf:about="">
        <dc:format>image/svg+xml</dc:format>
        <dc:type
           rdf:resource="http://purl.org/dc/dcmitype/StillImage" />
        <dc:title></dc:title>
      </cc:Work>
    </rdf:RDF>
  </metadata>
  <defs
     id="defs6" />
  <image
     style="display:none"
     width="5573"
     height="3933.8823"
     preserveAspectRatio="none"
     xlink:href="file:///home/alexander/timelines/timelines/streetmap/../streetmap/bkkosm.png"
     id="image10"
     x="-850"
     y="-1183.8823" />
  <path
     style="fill:none;fill-rule:evenodd;stroke:#0d0d86;stroke-width:5;stroke-linecap:butt;stroke-linejoin:round;stroke-miterlimit:4;stroke-dasharray:none;stroke-opacity:1"
     d="m 996.0521,1340.5804 615.5424,263.4752 9.2044,-1.7259 11.5055,-5.1774 14.9571,-48.323 -12.0808,-121.9579 4.0269,-20.7099 16.1077,-25.8873 5.7527,-40.8444 9.2044,-47.7477 1.7258,-37.3927 54.0757,-247.3675 12.656,-33.3659 85.1405,-109.8772 12.656,-26.4626 27.0378,-519.4718 -10.3549,-21.8604 -211.1253,-121.3826 h -17.2582 l -10.9302,8.6291 -7.4785,18.4087 -6.9033,27.6131 -19.5593,44.8714 -40.2692,70.7586 -33.3658,63.8553 -5.7527,9.2044 -63.2801,4.0269 -5.7527,-4.6022 -21.8604,-43.1455 -67.307,-33.3658"
     id="path4525" />
  <path
     style="fill:none;fill-rule:evenodd;stroke:#00ffff;stroke-width:5;stroke-linecap:butt;stroke-linejoin:round;stroke-miterlimit:4;stroke-dasharray:none;stroke-opacity:1"
     d="m 1361.3506,1161.6704 -70.7586,-5.7528 -29.3389,7.4786 -24.7368,1.7258 -35.6669,0.5753 -47.1724,-8.6291 -34.5164,6.328 -73.0598,-48.323 -204.7973,-46.0218"
     id="path4527" />
  <path
     style="fill:none;fill-rule:evenodd;stroke:#00ffff;stroke-width:5;stroke-linecap:butt;stroke-linejoin:round;stroke-miterlimit:4;stroke-dasharray:none;stroke-opacity:1"
     d="m 1361.3506,1161.6704 46.0219,12.656 93.7695,3.4516 56.3768,1.7259 68.4575,-4.027 138.6409,24.7368 353.7931,76.5113 75.3608,13.2313 13.8066,-2.3011 32.7905,-93.7695 6.9033,-10.3549 185.238,-174.3079 21.2851,-23.0109 20.7099,-7.4785 30.4895,-4.0269 23.0109,-1.7259 24.1615,-6.9032 370.476,-41.4197 33.3659,-5.1775 16.6829,-6.328 32.7906,-25.312"
     id="path4529" />
  <path
     style="fill:none;fill-rule:evenodd;stroke:#61bf49;stroke-width:5;stroke-linecap:butt;stroke-linejoin:round;stroke-miterlimit:4;stroke-dasharray:none;stroke-opacity:1"
     d="m 1556.3683,329.2499 -44.2961,79.963 -151.8721,432.6055 -34.5164,65.5812 v 6.9033 l 4.0269,13.8065 -4.6022,5.1775 -8.6291,4.0269 -9.2044,4.6022 -86.291,157.0496 -17.2582,98.947 2.8764,9.2044 137.4903,25.8873 185.8133,37.968 14.3818,6.9033 678.2473,493.0092 160.5012,340.5618 9.7797,32.2153 1.1505,25.3121 -2.8763,22.4356 -7.4786,25.8873 -122.5332,307.196"
     id="path4556" />
  <path
     style="fill:none;fill-rule:evenodd;stroke:#215912;stroke-width:5;stroke-linecap:butt;stroke-linejoin:round;stroke-miterlimit:4;stroke-dasharray:none;stroke-opacity:1"
     d="m 1170.9352,1205.9664 161.0764,30.2018 9.7797,3.4517 2.8764,8.9167 -21.2851,141.5173 -23.9589,57.8444 -17.0847,26.8475 -104.9492,36.2033 -8.1356,4.4746 -3.661,9.7627 1.2203,6.1017 6.5085,6.9153 17.4916,32.9491 2.8474,9.356 -2.8474,7.322 -4.4746,3.661 -19.5254,1.6271 -159.4577,48.4068 -13.8305,1.2204 -169.2203,-44.339 -177.7627,-0.8136 -45.2699,6.878 -88.1538,26.8847 -64.033,33.4896 -12.5466,13.5491 -51.9628,32.2834 -26.0339,15.8644 -15.4577,3.661 -15.0508,2.4407 -15.8644,-2.4407 -31.322,-8.9492 -55.45589,-20.8478 -29.32546,1.5169 -27.30301,-5.5618 -20.73007,-11.1234 -24.77495,-32.3591 -2.02245,-15.1684 -8.59539,-42.4713"
     id="path4558" />
  <path
     style="fill:none;fill-rule:evenodd;stroke:#b31219;stroke-width:5;stroke-linecap:butt;stroke-linejoin:round;stroke-miterlimit:4;stroke-dasharray:none;stroke-opacity:1"
     d="m 1259.5272,1046.6157 446.4121,104.1245 417.6485,96.0706 2187.7644,250.2439 301.4432,-5.1774 10.3549,6.328 6.328,14.9571 v 35.0916 l -6.328,17.8335 -37.968,86.8663 -92.619,359.5458"
     id="path4560" />
  <text
     style="font-style:normal;font-weight:normal;font-size:143.99993896px;line-height:125%;font-family:Sans;-inkscape-font-specification:Sans;letter-spacing:0px;word-spacing:0px;fill:#000000;fill-opacity:1;stroke:none"
     xml:space="preserve"
     id="text3000"
     y="206.96094"
     x="89.453133"><tspan
       id="tspan1"
       y="206.96094"
       x="89.453133">2015</tspan></text>
</svg>
