<?xml version="1.0" encoding="UTF-8" standalone="no"?>
<svg
   xmlns:dc="http://purl.org/dc/elements/1.1/"
   xmlns:cc="http://creativecommons.org/ns#"
   xmlns:rdf="http://www.w3.org/1999/02/22-rdf-syntax-ns#"
   xmlns:svg="http://www.w3.org/2000/svg"
   xmlns="http://www.w3.org/2000/svg"
   xmlns:xlink="http://www.w3.org/1999/xlink"
   id="svg2"
   viewBox="0 0 6100 3950"
   height="3950"
   width="6100"
   version="1.1">
  <metadata
     id="metadata8">
    <rdf:RDF>
      <cc:Work
         rdf:about="">
        <dc:format>image/svg+xml</dc:format>
        <dc:type
           rdf:resource="http://purl.org/dc/dcmitype/StillImage" />
        <dc:title></dc:title>
      </cc:Work>
    </rdf:RDF>
  </metadata>
  <defs
     id="defs6" />
  <image
     xlink:href="../streetmap/tpeosm.png"
     x="2900"
     y="350.18188"
     width="3364"
     height="3669.8181"
     id="image10"
     style="display:none" />
  <path
     style="fill:none;stroke:#e4011f;stroke-width:5;stroke-linecap:butt;stroke-linejoin:round;stroke-miterlimit:4;stroke-dasharray:none;stroke-opacity:1"
     id="path4005"
     d="m 4655.5,2828.4999 2.5,19.5 -1.5,15.5 -8,12.5 -51,19 -34.5,6 -18,10.5 -16.5,45 -29,117 -13.5,19 v 28.5 l -100.5,127 -11.5,58 3.5,10.5 62,33" />
  <path
     style="fill:none;stroke:#dae01c;stroke-width:5;stroke-linecap:butt;stroke-linejoin:round;stroke-miterlimit:4;stroke-dasharray:none;stroke-opacity:1"
     id="path3826"
     d="m 4429.3264,2537.753 -20.3264,72.7469 0.5,9.5 7,9.5 41.5,17 26.5,7 47,5.5 7,5 19,31" />
  <path
     style="fill:none;stroke:#e4011f;stroke-width:5;stroke-linecap:butt;stroke-linejoin:round;stroke-miterlimit:4;stroke-dasharray:none;stroke-opacity:1"
     id="path3928"
     d="m 4558.2071,2687.2217 61.2929,87.0282 39.75,60 48.25,49.25 91,99 15.5,19.5 8.5,20.5 4.5,21 22.5,50.5 -6,54.5 35,97 1,19 -1.5,31.5 -20.5,52.5 v 25 l 9,34.5 11,35.5 9.5,45 13.5,46 2.5,33.5 -0.5,61 -20,62 -48,130.5 -6,23" />
  <path
     style="fill:none;stroke:#0070bc;stroke-width:5;stroke-linecap:butt;stroke-linejoin:round;stroke-miterlimit:4;stroke-dasharray:none;stroke-opacity:1"
     id="path3801"
     d="m 3864.5,2834.4999 38,-76 79.5,-99.5 15,-11.5 18,-3.5 127,4.5 207.5,5 30,-11.5 21,-17.5 42,-151.5 14,-8 11.5,-1 40.5,9 106,27.5 142,42 63.5,12.5 81.5,1 464,12 23.5,-2.5 30.5,-16.5 19.5,-22 33,-47 19.5,-24.5 24,-9.5 L 5619,2417.5" />
  <path
     style="fill:none;stroke:#e4011f;stroke-width:5;stroke-linecap:butt;stroke-linejoin:round;stroke-miterlimit:4;stroke-dasharray:none;stroke-opacity:1"
     id="path3824"
     d="m 3543,609.99999 76,64 13.5,12.99999 7,12 6,20.5 13,16.5 12.5,12 38.5,10.5 12.5,15 10,20 1,25.5 2.5,22 6,98 2,157.50002 -2,22.5 -17,38.5 -0.5,19 5,14.5 44,85.5 14,12.5 17.5,5.5 19,-4.5 16,-12 19.5,-31 138.5,-117.5 40.5,-24 51,-20.5 52.5,-9 25,-3.5 20,4.5 41,26.5 33.5,29.5 43.5,58.5 10,24 12,78 12,24 16.5,12.5 111,23.9999 13.5,13.5 134.5,212.0001 4,21 6,34.5 10,24 24.5,55 28,94.5 v 24 l -6.5,13.5 -19.5,24.5 -4,18.5 -16.5,73 -7.5,18 -41.5,86 -17,139 2,19 9,30.5 9,25 0.5,17.5 -5,123.5 -38.5,57.9999 -30.5,123.5 1.5,23.5 16,29 22,35" />
  <path
     style="fill:none;stroke:#f4a5a8;stroke-width:5;stroke-linecap:butt;stroke-linejoin:round;stroke-miterlimit:4;stroke-dasharray:none;stroke-opacity:1"
     id="path3828"
     d="m 4353,1089 -51.5,-0.5 -17,6 -11.5,10.5 -6.5,16.5 1.5,13 39.5,52.5 11.5,28 9.5,56.5" />
  <path
     style="fill:none;stroke:#dae01c;stroke-width:5;stroke-linecap:butt;stroke-linejoin:round;stroke-miterlimit:4;stroke-dasharray:none;stroke-opacity:1"
     id="path3830"
     d="m 4898.5,3570.9999 -1,60 -9.5,22 -18.5,16 -19.5,8.5 -20,2 -18,-6 -44.5,-31.5 -23.5,-5 -17.5,-13" />
  <path
     style="fill:none;stroke:#c38c32;stroke-width:5;stroke-linecap:butt;stroke-linejoin:round;stroke-miterlimit:4;stroke-dasharray:none;stroke-opacity:1"
     id="path3832"
     d="m 5422.2499,3212.484 -25.4559,16.9705 -19.7989,2.8285 -82.7315,-16.2635 -55.1544,0.7071 -40.3051,7.7782 -29.6984,13.435 -19.799,-2.1213 -14.8493,-4.9498 -10.6066,-23.3345 -22.6274,-13.435 -5.6568,-29.6985 9.8994,-14.1421 -8.4852,-32.5269 7.071,-17.6777 16.2635,-10.6066 11.3137,-19.0919 12.7279,-28.9914 2.8285,-26.1629 0.7071,-74.2462 -6.364,-14.1422 -99.7021,-103.2376 -14.8492,-4.2426 -109.6016,-4.9497 -6.3639,-6.364 5.6568,-293.4493 5.49,-260.7757" />
  <text
     style="font-style:normal;font-weight:normal;font-size:144px;line-height:125%;font-family:Sans;-inkscape-font-specification:Sans;letter-spacing:0px;word-spacing:0px;fill:#000000;fill-opacity:1;stroke:none"
     xml:space="preserve"
     id="text3838"
     y="206.96094"
     x="89.453125"><tspan
       id="tspan1"
       y="206.96094"
       x="89.453125">2005</tspan></text>
</svg>
