<?xml version="1.0" encoding="UTF-8" standalone="no"?>
<svg
   version="1.1"
   width="6100"
   height="4200"
   viewBox="0 -25 6100 4200"
   id="svg2"
   xmlns:xlink="http://www.w3.org/1999/xlink"
   xmlns="http://www.w3.org/2000/svg"
   xmlns:svg="http://www.w3.org/2000/svg"
   xmlns:rdf="http://www.w3.org/1999/02/22-rdf-syntax-ns#"
   xmlns:cc="http://creativecommons.org/ns#"
   xmlns:dc="http://purl.org/dc/elements/1.1/">
  <metadata
     id="metadata8">
    <rdf:RDF>
      <cc:Work
         rdf:about="">
        <dc:format>image/svg+xml</dc:format>
        <dc:type
           rdf:resource="http://purl.org/dc/dcmitype/StillImage" />
      </cc:Work>
    </rdf:RDF>
  </metadata>
  <defs
     id="defs6" />
  <image
     xlink:href="../basemap/tpeosm.png"
     style="display:none"
     id="image10"
     height="4281.45"
     width="6116.36"
     y="44.36"
     x="147.64" />
  <path
     d="m 5406,2424 -96.5,3 -24,-20.5 -317.5,-6.5 -253,-6.5 h -95.5 l -96.67,-25.59 -8.82,-0.42 -11.76,4.28 -38.61,28.42 -7.78,12.45 -4.86,19.86 -7.77,47.01 -23.94,99.16 0.31,17 3.63,15.79 4.68,17.65 9.09,7.07 34.76,12.54 50.03,2.87 8.52,4.3 8.2,8.1 19,31 59,83 40.5,60 50.5,45.5 91,99 15.5,19.5 8.5,20.5 4.5,21 22.5,50.5 -6,54.5 35,97 1,19 -1.5,31.5 -20.5,52.5 v 25 l 9,34.5 11,35.5 9.5,45 13.5,46 2.5,33.5 -0.5,61 -20,62 -48,130.5 -6,23"
     id="path3826"
     style="fill:none;stroke:#02875a;stroke-width:5;stroke-linecap:butt;stroke-linejoin:round;stroke-miterlimit:4;stroke-dasharray:none;stroke-opacity:1" />
  <path
     d="m 3077,2857.5 69,-39.5 10.36,-11.75 11.29,-30.72 8.8,-7.9 70.55,-24.63 157.5,-52.5 79.5,-13.5 196.5,-46 27.5,-3.5 101,-66.5 31.5,-24 43.5,-45.5 97.5,-34.5 13.81,-8.04 10.44,-14.71 32.55,-69.56 7.74,-10.76 10.47,-8.08 32.49,-8.35 22.5,-5.5 18.5,-13 60.5,-45 25,-20.5 48.5,-8.5 57.5,-26 44.18,-13.98 62.27,6.3 34.78,10.84 44.51,0.3 26.44,4.58 154.33,4.46 56.74,0.33 12.26,4.24 8.15,8.71 3.93,11.24 -5.08,296.97 -1.89,101.78 -3.8,9.41 -9.92,9.03 -13.68,6.98 -18.99,-1.16 -29,-4.56 -35.56,-18.37 -12.51,1.71 -9.8,7.66 -4.32,10.27 -1.5,22.66 -11.04,54.59 3,13 40.5,62.5 5.92,20.8 -1.68,15.42 -9.73,14.66 -15.58,12.66 -20.79,8.97 -37.06,0.28 -14.98,4.9 -13.06,7.14 -9.47,10.2 -10.56,32.97 -29,117 -4.9,22.33 -8.6,25.17 -100.5,127 -10.03,52.68 3.14,12.5 9.64,11.19 50.78,27.16"
     id="path3031"
     style="fill:none;stroke:#f8b51c;stroke-width:5;stroke-linecap:butt;stroke-linejoin:round;stroke-miterlimit:4;stroke-dasharray:none;stroke-opacity:1" />
  <path
     d="m 3176.5,3820.5 49.5,-40 47.5,-16.5 19,-15 59.5,-22.5 20.5,-3 20.51,-2.05 14.27,-7.31 32.72,-32.15 53.37,-25 12.09,-10.95 34.04,-50.54 28.36,-27.81 12.48,-22.19 7.54,-27 3.57,-33.9 -3.23,-26.04 6.8,-44.96 -0.15,-39.35 -6.7,-44.77 1.88,-10.23 8.44,-9.27 25.82,-26.63 13.57,-28.81 26.12,-91.53 21.02,-42.01 41.13,-46.21 22.48,-21.45 18.89,-47.5 33.54,-45.78 3.45,-11.82 1.73,-20 4.78,-15.01 53.48,-78.72 38,-76 79.5,-99.5 13.58,-11.46 14.09,-7.81 16.96,-2.87 147.3,4.44 98.59,9.8 76.98,2.4 28.08,-0.98 20.31,-13.77 7.8,-12.62 8.39,-46.94 23.31,-96.38 7.32,-12.29 11.79,-5.53 14.7,-2.7 106.29,30.68 37.01,7.52 142,42 63.61,10.63 169.21,3.63 376.42,10.14 23.26,-1.39 30.5,-16.5 19.5,-22 33,-47 12.07,-19.41 11.68,-10.35 19.68,-8.39 105.13,-27.9 197.67,-23.06 16.41,-6.02 28.33,-17.98 10.62,-3.99 50.65,-7.68 29.87,-0.71"
     id="path3801"
     style="fill:none;stroke:#0070bc;stroke-width:5;stroke-linecap:butt;stroke-linejoin:round;stroke-miterlimit:4;stroke-dasharray:none;stroke-opacity:1" />
  <path
     d="m 4368.38,2205.29 -11.95,-6.26 -15.44,-16.54 -71,-64.5 -93.71,-68.12 -151.53,-94.12 -43.34,-14.27 -5.81,-2.19 -3.83,-5.75 -11.78,-31.05 -107.5,-94 -37.52,-19.45"
     id="path3822"
     style="fill:none;stroke:#f8b51c;stroke-width:5;stroke-linecap:butt;stroke-linejoin:round;stroke-miterlimit:4;stroke-dasharray:none;stroke-opacity:1" />
  <path
     d="m 3543,610 76,64 13.5,13 7,12 6,20.5 13,16.5 14.36,7.99 36.64,14.51 8.79,7.18 8.74,15.14 5.77,15.64 0.2,22.54 2.5,22 3.89,34.39 2.11,63.61 2,157.5 -2,22.5 -17,38.5 -0.5,19 5,14.5 44,85.5 14,12.5 17.5,5.5 19,-4.5 16,-12 19.5,-31 138.5,-117.5 18,-14.21 54.53,-25.3 71.47,-13.98 25,-3.5 20,4.5 29.84,14.97 27.23,20.84 17.42,20.19 43.5,58.5 10,24 12,78 12,24 16.5,12.5 99.81,19.2 17.36,9.09 10.85,12.12 130.98,209.08 4,21 6,34.5 10,24 24.5,55 28,94.5 v 24 l -6.5,13.5 -19.5,24.5 -4,18.5 -16.5,73 -7.5,18 -41.5,86 -17,139 2,19 9,30.5 9,25 0.5,17.5 -5.55,114.9 -4.72,15.73 -33.22,50.87 -30.5,123.5 1.5,23.5 16,29 23.24,37.64 12.08,15.91 17.56,8.97 14.14,-0.95 8.79,-5.17 4.23,-12.46 0.67,-24.94 5.82,-15.06 13.5,-8.33 13.16,0.53 37.77,19.14 26.87,4.24 49.85,4.24 173.3,4.74 305,6 51,1.5"
     id="path3824"
     style="fill:none;stroke:#e4011f;stroke-width:5;stroke-linecap:butt;stroke-linejoin:round;stroke-miterlimit:4;stroke-dasharray:none;stroke-opacity:1" />
  <path
     d="m 4353,1089 -51.5,-0.5 -17,6 -11.5,10.5 -6.5,16.5 1.5,13 39.5,52.5 11.5,28 9.5,56.5"
     id="path3828"
     style="fill:none;stroke:#f4a5a8;stroke-width:5;stroke-linecap:butt;stroke-linejoin:round;stroke-miterlimit:4;stroke-dasharray:none;stroke-opacity:1" />
  <path
     d="m 4898.5,3571 -1,60 -9.5,22 -18.5,16 -19.5,8.5 -20,2 -18,-6 -44.5,-31.5 -23.5,-5 -17.5,-13"
     id="path3830"
     style="fill:none;stroke:#dae01c;stroke-width:5;stroke-linecap:butt;stroke-linejoin:round;stroke-miterlimit:4;stroke-dasharray:none;stroke-opacity:1" />
  <path
     d="m 5422.25,3212.48 -24.19,17.05 -9.82,3.45 -11.25,-0.69 -82.52,-17.59 -55.36,2.04 -40.31,7.78 -29.7,13.44 -19.88,0.02 -14.77,-7.09 -10.61,-23.33 -22.63,-13.44 -5.66,-29.7 9.9,-14.14 -8.49,-32.53 7.07,-17.68 13.17,-8.4 24.73,-36.92 4.52,-13.61 0.7,-25.93 0.71,-74.25 -6.36,-14.14 -99.7,-103.24 -14.85,-4.24 -109.19,-6.35 -6.84,-6.99 5.73,-291.42 7.07,-335.88 3.54,-5.66 5.66,0.71 61.92,49.22 14.98,3.78 31.75,-0.74 13.66,-2.11 8.22,-9.97 1.6,-8.07 -2.2,-13.17 -42.67,-93.96 0.19,-35.19 -5.17,-9.89 -13.17,-6.41 -65.08,-23.96 -7.15,-9.56 -0.85,-10.94 4.98,-7.08 7.57,-9.27 30.99,-24.82 11.31,-14.85 9.9,-48.08 11.31,-11.31 21.21,-10.61 14.85,-0.71 55.86,19.8 h 10.61 l 11.66,-4.16 6.74,-2.74 8.96,0.22 28.51,8.8 49.64,29.75 16.83,3.48 41.72,1.41 88.39,33.23 46.67,21.92 95.46,0.71 25.46,-4.24 21.92,-5.66 11.31,-11.31 38.89,-41.72 33.23,-26.16 35.36,-4.95 37.48,-1.41 26.16,12.73 14.85,10.61 31.11,5.66 10.61,12.02 9.9,23.33 0.71,18.38 -2.83,13.44 1.41,49.5 -10.81,17.22 -1.94,7.61 2.16,6.99 51.62,28.99 23.33,16.97 4.95,14.14 -1.41,21.92 -12.02,18.79 -0.65,13.34 4.15,12.74 17.01,31.49 21.92,21.21 12.02,16.26 26.16,14.14 3.54,11.31 -2.83,44.55 2.83,4.95 4.95,1.41 14.14,2.83"
     id="path3832"
     style="fill:none;stroke:#c38c32;stroke-width:5;stroke-linecap:butt;stroke-linejoin:round;stroke-miterlimit:4;stroke-dasharray:none;stroke-opacity:1" />
  <text
     x="89.45"
     y="181.96"
     id="text3838"
     xml:space="preserve"
     style="font-style:normal;font-weight:normal;font-size:144px;line-height:125%;font-family:Sans;-inkscape-font-specification:Sans;letter-spacing:0px;word-spacing:0px;fill:#000000;fill-opacity:1;stroke:none"><tspan
       x="89.45"
       y="181.96"
       id="tspan1">2025</tspan></text>
  <path
     d="m 5369.53,3256.58 91.6,60.84 128.36,55.58 -34.5,143 -19.5,153.5"
     id="path3930"
     style="fill:none;stroke:#77bd27;stroke-width:5;stroke-linecap:butt;stroke-linejoin:round;stroke-miterlimit:4;stroke-dasharray:none;stroke-opacity:1" />
  <path
     id="path826"
     d="m 4517.9,2448.3 -57.97,-19.56 -26.45,-5.92 -22.13,3.44 -22.44,-1.75 -23.78,-10.77 -59.2,-54.14 -17.32,-7.2 -17.98,2.18 -16.05,5.99 -17.08,14.09 -82.42,77.8 -15.67,9.19 h -12.87 l -8.58,-4.77 -7.15,-10.01 -94.39,-204.5 -23.83,-32.42 -17.64,-17.64 -83.42,-45.29 -17.64,-1.43 -15.25,3.81 -16.21,12.87 -12.87,20.02 -26.69,41.95 -14.78,12.39 -23.36,7.15 -59.11,4.77 -122.03,19.54 -36.71,20.97 -26.11,15.5 -15.84,15.01 -17.08,22.4 -198.86,287.45 -30.51,33.85 -43.24,33.46 -14.21,3.98 -37.6,0.46 -19.35,5.01 -23.83,10.96 -28.24,22.31 -28.96,11.54 -65.91,-1.03 -15.68,-3.85 -53.31,-22.77 -34.43,-13.39 -33.74,-22.36 -36.71,-29.08 -30.03,-27.17 -15.25,-7.63 -51.48,-11.44 -9.53,-8.1 -5.72,-10.96 5.72,-126.8 -5.24,-12.87 -15.73,-14.78 -37.18,-16.21 -24.79,-18.11 -95.38,-103.58 -43.34,-50.87 -13.35,-23.83 -18.9,-18.27 -29.73,-18.43 -21.93,-5.24 -119.54,-3.69 -35.39,-5.37 -35.28,-16.21 -29.56,-14.78 -19.61,-1.12 -34.79,3.89 -41.89,9.15 -86.76,35.28 -20.97,1.91 -27.65,-2.86 -42.32,-15.14 -22.14,-19.83 -53.76,-72.29 -27.65,-19.54 -23.36,-7.15 -36.31,-8.34 -20.42,-10.25 -29.65,-29.52 -24.62,-11.2 -134.93,-39.67 -146.87,-5.41 -24.79,1.91 -122.51,-2.86 -112.98,-37.66 -175.34,-101.43 -33.72,-16.17 -31.76,-3.26 -25.88,6.95 -41.28,21.67 -107.22,88.89 -79.13,68.64 -14.78,5.24 -32.42,11.44 -13.35,8.58 -103.92,92.48 -12.87,2.86 -19.07,6.2 -29.56,28.12 -37.18,33.37 -50.05,47.67 -28.12,30.99 -20.97,18.11 -6.2,15.73 -2.38,13.35 0.95,28.12 28.6,80.56 4.77,36.71 19.07,31.94 20.97,62.45 -1.43,37.66 -4.29,34.32 2.38,13.82 15.25,35.75 9.06,107.73 4.77,13.35 77.7,72.93 2.38,5.24 v 9.53 l -71.98,80.08 -28.12,11.44 -50.05,56.25 -9.06,29.08 -126.8,138.72 -5.24,8.58 -4.29,9.06 3.34,16.21 8.1,12.87 16.68,21.93 48.15,104.87 14.78,16.68 56.73,33.37 12.39,14.3 62.45,125.37 5.24,11.92 -1.91,10.01 -3.81,20.02 1.91,12.39 8.1,11.44 18.59,21.45 7.15,17.16 4.77,23.36 0.48,38.14 -7.83,34.14 -11.39,90.64"
     style="opacity:1;fill:none;fill-opacity:1;fill-rule:nonzero;stroke:#784698;stroke-width:5;stroke-linecap:butt;stroke-linejoin:round;stroke-miterlimit:4;stroke-dasharray:none;stroke-opacity:1" />
  <path
     id="path888"
     d="m 3738.03,818.48 -0.24,-22.88 -5.96,-15.97 -32.18,-57.68 -2.15,-10.49 v -15.49 l 5.01,-15.25 10.73,-12.16 41.95,-44.33 4.53,-14.06 1.43,-12.87 -1.91,-11.92 -8.1,-15.97 -22.64,-38.37 -9.3,-11.2 -13.35,-22.17 -6.44,-15.25 -26.22,-43.14 -12.63,-15.25 -15.49,-12.39 -56.25,-38.85 -10.01,-11.2 -7.87,-13.35 -5.01,-19.78 1.19,-28.36 -1.19,-5.96 -3.81,-3.58 -53.39,-2.38 -29.32,-3.58"
     style="opacity:1;fill:none;fill-opacity:1;fill-rule:nonzero;stroke:#eb6c5d;stroke-width:5;stroke-linecap:butt;stroke-linejoin:round;stroke-miterlimit:4;stroke-dasharray:none;stroke-opacity:1" />
  <path
     id="path890"
     d="m 3479.42,284.59 -131.57,-18.35 -4.53,-4.77 40.28,-124.42 16.45,-37.18"
     style="opacity:1;fill:none;fill-opacity:1;fill-rule:nonzero;stroke:#eb6c5d;stroke-width:1;stroke-linecap:butt;stroke-linejoin:round;stroke-miterlimit:4;stroke-dasharray:none;stroke-opacity:1" />
  <path
     style="opacity:1;fill:none;fill-opacity:1;fill-rule:nonzero;stroke:#fddb00;stroke-width:5;stroke-linecap:butt;stroke-linejoin:round;stroke-miterlimit:4;stroke-dasharray:none;stroke-opacity:1"
     d="m 3749.12,2247.6 4.07,331.01 3.7,12.2 45.44,113.12 49.24,108.79 5.73,17.2 0.55,15.72 -10.54,24.22 -47.67,67.76 -2.65,5.88 1.39,6.11 23.27,16.37 6.04,2.59 6.1,-2.69 21.14,-15.64 22.16,-0.68 32.55,10.36 32.92,25.52 43.52,29.29 69.28,37.65 90.61,45.49 21.08,15.16 12.37,29.38 38.29,17.96 35.88,-1.48 6.42,2.99 3.2,7.37 1.11,9.25 41.79,41.79 15.53,35.51 31.43,32 10.51,4.97 151.12,20.36 52.15,6.29 44.38,16.27 56.96,8.51 14.68,3.83 4.18,7.52 0.53,9.36 -12.56,42.2 1.94,10.04 38.4,36.33 9.58,5.97 10.68,1.02 161.45,-3.63"
     id="path828" />
  <path
     style="opacity:1;fill:none;stroke:#eb6c5d;stroke-width:1;stroke-linejoin:round;stroke-opacity:1;stroke-miterlimit:4;stroke-dasharray:none"
     d="m 3347.86,266.23 -79.64,-11.18 -19.72,-1.53 -15.38,-4.61 -5.74,-3.23 -6.97,1.24 -5.05,9.14 -64.49,59.67 -0.66,4.9 8.84,14.8 8.27,16.85 14.42,16.69 2.55,6.59 1.2,12.59 -10.58,8.84"
     id="path889" />
  <path
     style="fill:none;stroke:#9d915d;stroke-width:5;stroke-linejoin:round;stroke-opacity:1"
     d="m 4688.38,3436.24 -17.64,-15.37 -6.51,-2.97 -44.71,-4.87 -8.91,1.51 -36.12,33.09 -12.82,0.86 -4.79,3.6 1.33,15.43 -14.61,25.08 -3.07,25.99 -0.4,21.42 3.49,14.19 11.89,19.55 20.99,21.11 3.82,6.57 0.44,8.99 -42.26,150.23 -17.25,26.86 -4.73,15.47 -3.09,16.56 0.22,16.74 -1.57,4.55 -4.18,3.31 -33.65,13.12 -11.32,10.43 -20.42,16.97"
     id="path538" />
  <path
     style="fill:none;stroke:#9d915d;stroke-width:1;stroke-linejoin:round;stroke-dasharray:none;stroke-opacity:1"
     d="m 4442.54,3884.68 -6.3,4.32 -9.57,2.4 -98.82,4.59 -13.85,3.19 -61.85,23.53 -10.31,7.94 -57.95,59.63 -20.14,26.98 -22.43,40.38 -10.02,9.94 -3.92,3.01 -4.36,-1.28 -3.61,-8.04"
     id="path540" />
</svg>
