<svg xmlns="http://www.w3.org/2000/svg" height="5500" width="3600"><path d="M2037.5 2406l36-16 28.5 3.5 30 7 25 7.5 16 4.5 22.5-1 41.5-31.5 10.5-14 23.5-57.5 32-41.5 45.5-52.5 19.5-38.5 7-32.5-3.348-65.701" fill="none" stroke="#a70532" stroke-width="5" stroke-linejoin="round"/><path d="M2039 2405.5l-144.5 56.5-13 14.5-12 18.5-49.5 51.5-5.5 17-10.5 46-32 65.5-11 44.5-13 15.5-38 19-86 58-28.5 11.5-36.5 10-16 14-5 16v80.5l-9 30-24.5 34-16 57.5-1 65 62 158 24 67 14 136-2 50" fill="none" stroke="#a70532" stroke-width="5" stroke-linejoin="round"/><text style="line-height:180px;-inkscape-font-specification:Sans" y="5397.9609" x="89.45269" font-weight="400" font-size="144px" font-family="Sans" letter-spacing="0" word-spacing="0"/><text style="line-height:179.99992371px;-inkscape-font-specification:Sans" y="206.96094" x="89.452751" font-weight="400" font-size="143.99993896px" font-family="Sans" letter-spacing="0" word-spacing="0"><tspan style="line-height:179.99992371px" y="206.96094" x="89.452751">1980</tspan></text></svg>