<?xml version="1.0" encoding="UTF-8" standalone="no"?>
<svg
   xmlns:dc="http://purl.org/dc/elements/1.1/"
   xmlns:cc="http://creativecommons.org/ns#"
   xmlns:rdf="http://www.w3.org/1999/02/22-rdf-syntax-ns#"
   xmlns:svg="http://www.w3.org/2000/svg"
   xmlns="http://www.w3.org/2000/svg"
   xmlns:xlink="http://www.w3.org/1999/xlink"
   version="1.1"
   width="4400"
   height="6300"
   viewBox="-50 -750 4400 6300"
   id="svg2">
  <metadata
     id="metadata8">
    <rdf:RDF>
      <cc:Work
         rdf:about="">
        <dc:format>image/svg+xml</dc:format>
        <dc:type
           rdf:resource="http://purl.org/dc/dcmitype/StillImage" />
        <dc:title></dc:title>
      </cc:Work>
    </rdf:RDF>
  </metadata>
  <defs
     id="defs6" />
  <image
     xlink:href="../basemap/bneosm.png"
     x="1.5"
     y="-841.5"
     width="4492.5"
     height="6589"
     id="image10"
     style="display:none" />
  <path
     d="m 2282.5,2830.5 -31,-15 -17,-12.5 -47.5,-55.5 -2,-19.5 -2.5,-42.5 -13,-44.5 -44.5,-74.5 -27,-45 -13.5,-12.5 -25,-12.5 -10,-14.5 -20,-45.5 -1.5,-13.5 9.5,-17 36,-16 28.5,3.5 30,7 25,7.5 16,4.5 22.5,-1 41.5,-31.5 10.5,-14 23.5,-57.5 32,-41.5 45.5,-52.5 19.5,-38.5 7,-32.5 -4,-78.5 3.5,-26 26,-52 9.5,-29.5 -4,-38 -12.5,-43 5.5,-26.5 29.5,-38.5 11.5,-80.5 24.5,-75 21,-16 40,-14.5 h 20.5 26 l 19,-13.5 65.5,-95.5 39.5,-60.5 13,-70.5 8.5,-13 62,-45 17,-25.5 7.5,-34"
     id="path2987"
     style="fill:none;stroke:#a70532;stroke-width:5;stroke-linecap:butt;stroke-linejoin:round;stroke-miterlimit:4;stroke-dasharray:none;stroke-opacity:1" />
  <path
     d="m 2039,2405.5 -144.5,56.5 -13,14.5 -12,18.5 -49.5,51.5 -5.5,17 -10.5,46 -32,65.5 -11,44.5 -13,15.5 -38,19 -86,58 -28.5,11.5 -36.5,10 -16,14 -5,16 v 80.5 l -9,30 -24.5,34 -16,57.5 -1,65 62,158 24,67 14,136 -2,50"
     id="path3757"
     style="fill:none;stroke:#a70532;stroke-width:5;stroke-linecap:butt;stroke-linejoin:round;stroke-miterlimit:4;stroke-dasharray:none;stroke-opacity:1" />
  <path
     d="m 2296,2700.5 7.61,3.77 40.3,7.07"
     id="path3763"
     style="fill:none;stroke:#e8881d;stroke-width:5;stroke-linecap:butt;stroke-linejoin:round;stroke-miterlimit:4;stroke-dasharray:none;stroke-opacity:1" />
  <text
     x="39.45"
     y="5447.96"
     id="text3791"
     xml:space="preserve"
     style="font-style:normal;font-weight:normal;font-size:144px;line-height:125%;font-family:Sans;-inkscape-font-specification:Sans;letter-spacing:0px;word-spacing:0px;fill:#000000;fill-opacity:1;stroke:none"><tspan
       x="39.45"
       y="5447.96"
       id="tspan2"></tspan></text>
  <text
     x="39.45"
     y="-543.04"
     id="text3791-5"
     xml:space="preserve"
     style="font-style:normal;font-weight:normal;font-size:144px;line-height:125%;font-family:Sans;-inkscape-font-specification:Sans;letter-spacing:0px;word-spacing:0px;fill:#000000;fill-opacity:1;stroke:none"><tspan
       x="39.45"
       y="-543.04"
       id="tspan1">2000</tspan></text>
  <path
     style="fill:none;stroke:#e8881d;stroke-width:1px;stroke-linecap:butt;stroke-linejoin:round;stroke-opacity:1"
     id="path3779-3"
     d="m 2342.5,2710.5 4.5,7 19.71,3.42 2.98,8.46 -1.73,3.15 0.04,2.38 1.99,4.09 11.5,23 17,15.5 8.95,8.25 4.42,9.16 4.66,2.8 7.48,0.8 60.6,9.63 20.9,12.37 10.44,16.68 15.06,7.32 16.5,28.5 2,31 3.5,3 20,-4 28.5,-24.5 31.5,-14.5 87,-57.5 66,-9.5 22,-8.5 47.5,21 66.5,10.5 81,-1 12,8.5 22.5,31 13.5,3 55,-8.5 69.5,11.5 55.5,46.5 33,15.5 7.5,11 -3,26.5 -6.5,35 -6,9.5 1.5,7.5 7.5,3.5 13,1 19.5,-4.5 13.14,0.47 9.16,6.54 11.34,16.14 7.85,14.4 16.14,10.03 10.03,4.8 16.14,1.74 16.14,-6.11 5.67,-3.49 9.16,-1.31 5.67,1.31 2.62,4.36 -4.36,23.12 -6.11,11.78 0.87,23.12 -11.34,64.13 -5.67,17.89 v 25.74 l -11.78,57.15 1.31,2.18 126.95,23.56" />
  <path
     style="fill:none;stroke:#e8881d;stroke-width:5;stroke-linecap:butt;stroke-linejoin:round;stroke-miterlimit:4;stroke-dasharray:none;stroke-opacity:1"
     id="path3759"
     d="m 2296,2700.5 -17,-9.5 -37.5,-6.5 -17,-16.5 -43.5,-7.5 -16.5,-18 -45,-76.25 -19.45,-31.57" />
  <path
     id="path4523"
     d="m 2100.19,2536.19 1.93,-11.59 59.99,-37.21 8.75,-2.76 28.46,-22.47"
     style="fill:none;fill-rule:evenodd;stroke:#e8881d;stroke-width:1px;stroke-linecap:butt;stroke-linejoin:round;stroke-opacity:1" />
</svg>
