<svg xmlns="http://www.w3.org/2000/svg" viewBox="0 0 3600 5500" height="5500" width="3600"><path d="M2213.224 2155.99l-5.224.51-19.5-4.5-27.5-7.25-18 1.25-24 9.25-8.5 13.5-8.75 54.75 7.75 27.25.5 11-6.75 9-8 1.5-15.5 3.5-11.5 10.75-5.25 16.25 3.25 26.75 7.5 44 6.25 15.75 2.25 5.5 25.409 8.441" fill="none" stroke="#009090" stroke-width="5" stroke-linejoin="round"/><path d="M2282.5 2830.5l-31-15-17-12.5-47.5-55.5-2-19.5-2.5-42.5-13-44.5-44.5-74.5-27-45-13.5-12.5-25-12.5-10-14.5-20-45.5-1.5-13.5 9.5-17 36-16 28.5 3.5 30 7 25 7.5 16 4.5 22.5-1 41.5-31.5 10.5-14 23.5-57.5 32-41.5 45.5-52.5 19.5-38.5 7-32.5-4-78.5 3.5-26 26-52 9.5-29.5-4-38-12.5-43 5.5-26.5 29.5-38.5 11.5-80.5 24.5-75 21-16 40-14.5h46.5l19-13.5 65.5-95.5 39.5-60.5 13-70.5 8.5-13 62-45 17-25.5 7.5-34" fill="none" stroke="#d00" stroke-width="5" stroke-linejoin="round"/><path d="M2039 2405.5l-144.5 56.5-13 14.5-12 18.5-49.5 51.5-5.5 17-10.5 46-32 65.5-11 44.5-13 15.5-38 19-86 58-28.5 11.5-36.5 10-16 14-5 16v80.5l-9 30-24.5 34-16 57.5-1 65 62 158 24 67 14 136-2 50" fill="none" stroke="#d00" stroke-width="5" stroke-linejoin="round"/><path d="M3247.5 4134l-29.5-51-25.5-22-80.5-51.5-87-53-81.5-58.5-50-48.5-34-40.5-81.5-107.5-43-61.5-37.5-49-21-44.5-18-74.5-14-83-17.5-68-20.5-40.5-32-40.5-21.5-32-33-27.5-83.5-46-11-9.5-17.5-29-19-44 12.5-89.5 5.5-40.5-8.5-39-42-55.5-30-28.5-13-35.5-17.5-63-17-9.5-37.5-6.5-17-16.5-43.5-7.5-16.5-18-45-76.25-22.75-38.25 1.5-5.5 33-17.5 41.5-25 12.25-7 11.298-10.032" fill="none" stroke="#009090" stroke-width="5" stroke-linejoin="round"/><path d="M2295.475 2700.729l8.132 3.535 40.305 7.071" fill="none" stroke="#009090" stroke-width="5" stroke-linejoin="round"/><path d="M2278.5 1161l4.5 24v20.5l4.5 34.5-8.5 60 9 81v52.5l13 59.5-2.5 37 15.5 24 9 32 15.5 15 18 29-1 22.5-29 46-13.5 73.5-23 157.5-7.5 61-8.212 36.752-18.564 119.91-14.498 7.403-31.155 2.16" fill="none" stroke="#009090" stroke-linejoin="round"/><text style="line-height:125%;-inkscape-font-specification:Sans" y="5397.961" x="89.453" font-weight="400" font-size="144" font-family="Sans" letter-spacing="0" word-spacing="0"/><text style="line-height:125%;-inkscape-font-specification:Sans" y="206.961" x="89.453" font-weight="400" font-size="144" font-family="Sans" letter-spacing="0" word-spacing="0"><tspan y="206.961" x="89.453">2005</tspan></text><path d="M2106.733 2402.575l20.051 15.115 42.26 50.589 21.593-18.509 8.329 9.871" fill="none" stroke="#009090"/><path d="M2169.353 2467.97l-10.488 7.712-14.807-13.881-26.837-19.434-3.084-4.935.617-4.01 11.413-9.255 1.234-5.552M2342.5 2710.5l4.5 7 19 4 4 17.5 11.5 23 17 15.5 14.5 16 11 5 61 8 20.5 14 6.5 17 19 7 16.5 28.5 2 31 3.5 3 20-4 28.5-24.5 31.5-14.5 87-57.5 66-9.5 22-8.5 47.5 21 66.5 10.5 81-1 12 8.5 22.5 31 13.5 3 55-8.5 69.5 11.5 55.5 46.5 33 15.5 7.5 11-3 26.5-6.5 35-6 9.5 1.5 7.5 7.5 3.5 13 1 19.5-4.5 13.14.474 9.162 6.544 11.342 16.141 7.852 14.396 16.141 10.034 10.034 4.798 16.14 1.745 16.142-6.107 5.671-3.49 9.161-1.309 5.671 1.309 2.618 4.362-4.363 23.121-6.107 11.779.872 23.12-11.342 64.128-5.671 17.886v25.738l-11.779 57.148 1.31 2.181 126.945 23.557M2778.429 3701.285l3.889 22.982-17.324 112.783-9.546 30.406-2.475 42.78-58.336 341.179-15.886 43.622-27.146 167.808-5.552 20.358-28.996 33.315-20.36 115.368-4.318 5.552-30.23-4.318M2982.076 3924.731l25.102 4.243 14.142-1.06 13.082-14.496 9.192-1.061 2.828 5.657 26.163 51.265 10.96 12.02 6.718 47.377 18.933 50.962-4.857 8.459-45.79-5.527-7.986 5.092-59.024 364.694-7.403 8.638-17.275-11.105-6.786 4.318-15.423 95.009-3.702 4.319-214.078-36.4-4.936 3.702-72.798 442.345-4.319 3.085-38.25-9.254-28.38 4.935-14.806-3.084-28.996-22.827-33.932-7.403-7.403 4.935 1.234 8.02-1.234 24.061-25.912 82.053.617 27.762-25.911 49.355-27.762 96.86-5.553 75.884-43.186 85.137 4.936 6.17 60.46 14.19" fill="none" stroke="#009090"/><path d="M2562.15 4633.12l-10.489-6.706-33.932-27.762-19.125-12.339-46.27-51.206-8.637 3.085-9.254 43.186 4.318 20.976v12.338l-26.528 33.932-15.424 12.339h-4.935l-8.637-11.722-69.714-12.339-14.807 2.468-11.722 17.274-17.891 32.081-14.19 33.315-24.677 74.65-2.468 21.592 1.85 18.509 6.787 9.254 10.488 8.637 9.871 4.935 2.468 5.553-8.02 25.294 7.403 53.057-1.234 53.057.617 12.956 14.807 19.742" fill="none" stroke="#009090" stroke-linejoin="round"/></svg>