<svg xmlns="http://www.w3.org/2000/svg" height="5500" width="3600"><path d="M2389 2010l-1.5-15.5-11-13-27.5-22-33.5-35-16.5-8-15.5 1.5-58.5 26-15 2.5-51-6-29.5 5.5-99.5-17.5-12.5-8-11.5-20-24-46.5-50-43.5-44-38-23.5-33.5-13.5-12-71-13-41.5-23-42.5-7h-13l-16 4-14-4-7-5.5-30-59-14.5-12.5-83.5-46.5-14.5-15-51-77-12.5-9.5-69-16.5-9 1-14 15.5-27.5 38.5-116.5 74-17.5 1-19-9-12-8-16-24.5-43-19-18.5-11.5-106.5-93.5M2284 2831.5l24.5 23 32.5 13 39 9.5 36-6.5 142-53.5 29.5-20 23-28 16.5-52 25-35.5 32-31 26.5-9.5 14-9.5 2.5-19.5v-21l10-14 14.5-8.5 3-7 7-24.5 13-12.5 16.5-15.5 11-27 13.5-17 21-2.5 18 4 15-7 79-43.5 117-24.5" fill="none" stroke="#a70532" stroke-width="5" stroke-linejoin="round"/><path d="M2804 1268l-7.5 34-17 25.5-62 45-8.5 13-13 70.5-39.5 60.5-65.5 95.5-19 13.5h-46.5l-40 14.5-21 16-24.5 75-11.5 80.5-29.5 38.5-5.5 26.5 12.5 43 4 38-9.5 29.5-26 52-3.5 26 4 78.5-7 32.5-19.5 38.5-45.5 52.5-32 41.5-23.5 57.5-10.5 14-41.5 31.5-22.5 1-16-4.5-25-7.5-30-7-28.5-3.5-36 16-9.5 17 1.5 13.5 20 45.5 10 14.5 25 12.5 13.5 12.5 27 45 44.5 74.5 13 44.5 2.5 42.5 2 19.5 47.5 55.5 17 12.5 31 15 6 14.5 1 12-10 23-31 51-4.5 18.5.5 18.5 8.5 46-2.5 21.5-9.5 35-5.5 9.5-59 58-17 11-51 23.5-12 12-30.5 58-23.5 101 .5 30.5 3 56 2 43.5-13.5 50.5-11.5 31.5v20l6.5 19 96.5 81 10 12 30.5 51 3.5 34 4 14 49.5 41 76.5 53.5 14 17 21.5 27 14.5 44" fill="none" stroke="#a70532" stroke-width="5" stroke-linejoin="round"/><path d="M2039 2405.5l-144.5 56.5-13 14.5-12 18.5-49.5 51.5-5.5 17-10.5 46-32 65.5-11 44.5-13 15.5-38 19-86 58-28.5 11.5-36.5 10-16 14-5 16v80.5l-9 30-24.5 34-16 57.5-1 65 62 158 24 67 14 136-2 50-15 121-12 21-15 12-34 17-19.5 31.5-32 32.5-26.5 16.5-39 9-24.5 24.5-56 77-22.5 17.5-34 11.5-53.5 7" fill="none" stroke="#a70532" stroke-width="5" stroke-linejoin="round"/><path d="M3247.5 4134l-29.5-51-25.5-22-80.5-51.5-87-53-81.5-58.5-50-48.5-34-40.5-81.5-107.5-43-61.5-37.5-49-21-44.5-18-74.5-14-83-17.5-68-20.5-40.5-32-40.5-21.5-32-33-27.5-83.5-46-11-9.5-17.5-29-19-44 12.5-89.5 5.5-40.5-8.5-39-42-55.5-30-28.5-13-35.5-17.5-63-17-9.5-37.5-6.5-17-16.5-43.5-7.5-16.5-18-45-76.25-19.447-31.573M2082.636 2394.905h-7.778l-18.031 8.132-2.727-.427-12.523-13.287" fill="none" stroke="#e8881d" stroke-width="5" stroke-linejoin="round"/><path d="M2295.475 2700.73l8.132 3.535 40.305 7.07M2375.5 2852l-13.5 19-14.5 6.5-14.5-.5-34.5-4-9.5-6-7-19-5-12.5-9-5.5-8.5-2-3.5 7-13.5 34.5-21 17-23.5 8-79.5-6.5-20 5.5" fill="none" stroke="#e8881d" stroke-width="5" stroke-linejoin="round"/><path d="M2299 1500l2-7-13-59.5V1381l-9-81 8.5-60-4.5-34.5V1185l-4.5-24-8-24.5-7-46.5-2.5-12 7-11 35.5-13.5 37-58.5 7-40.5 76.957-463.512 7.404-17.274 23.443-18.508 22.827-120.304-7.403-7.403-41.335 13.573-4.936-3.702 6.787-38.25-1.234-6.17-144.364-25.911-9.871-10.488-8.637-19.125-15.424-12.339-27.145-5.552-1.85-6.17 20.358-131.408 6.17-2.468 133.259 22.827 1.85 4.319-4.935 35.165" fill="none" stroke="#e8881d" stroke-linejoin="round"/><path d="M2073.5 2281l-7.5-.5-7.5 4.5-4-.5" fill="none" stroke="#e8881d" stroke-width="5" stroke-linejoin="round"/><path d="M2056 2285l-6.5-5.5-36-73.5-7-32.5 3-27-4-11.5-23-34.5-19.5-24-12.5-37.5 7.5-53-2.5-17.5-27.5-83.5 1.5-28-2-12.5-24-19-23-38-21.5-44.5-8-40.5 8-50 16-25.5 27.5-27 19-3.5 17 1 14.5-9.5 6.5-23 8.5-47.5 45.5-259.5 48.5-303.5 16.971-99.518-11.722-19.125-37.016-10.488M1487.5 2886l-6.5 9-9.5 52M2042 2390.5l-10-12.5-24.5-20-24.5-9-50.5-13.5-36-17.5-24.5-22.5-16.5-7.5-16.5 9.5-10 .5-27.5-12.5-22.5 2.5-10.5 9.5-32.5 8.5h-29.5l-6.5-7.5-10.5-14-23-2.5-10-21-38.5-18-22.5-37-44.5-40-2.5-22.5-14-12.5-42-6-31 6.5-17.5-3-35 15.5-14.5-2.5-14-30.5-40-11-46.5 2-68-21-62-3.5-60.5-23-44-5.5-28.5-15-14 7.5-18 25-12.5 7-63.165 16.996-12.728-2.829M2342.5 2710.5l4.5 7 19 4 4 17.5 11.5 23 17 15.5 14.5 16 11 5 61 8 20.5 14 6.5 17 19 7 16.5 28.5 2 31 3.5 3 20-4 28.5-24.5 31.5-14.5 87-57.5 66-9.5 22-8.5 47.5 21 66.5 10.5 81-1 12 8.5 22.5 31 13.5 3 55-8.5 69.5 11.5 55.5 46.5 33 15.5 7.5 11-3 26.5-6.5 35-6 9.5 1.5 7.5 7.5 3.5 13 1 19.5-4.5 13.141.474 9.161 6.544 11.342 16.14 7.853 14.397 16.14 10.033 10.034 4.799 16.141 1.745 16.141-6.108 5.671-3.49 9.161-1.308 5.672 1.308 2.617 4.363-4.362 23.12-6.108 11.78.873 23.12-11.343 64.128-5.67 17.886v25.738l-11.78 57.148 1.31 2.18 126.946 23.558M2404 2948.5l5.5 6 7 .5 2.5 5-18 100.5-19 31-7.5 39 12.5 6 .5 22.5 3 10 24.5 6 26 14.5 59 19.5 7 10-46 258-6 9.5-20 3-21-3-13.5 15.5-8 22 7.5 48.5-9 59 3.5 13.5 33 62-13.5 87-16 98.5 3.5 4.5 132 23 18.5-95.5 23-17 1-14.5-22-21.5-16-27 1-10 3.5-1.5 11.5 11.5 25 14 16 3.5 24-6.5 16.5-14 9-37 13.5-4.5 53 4.5 12 7.5 35-15.5 23.5-3 19 19.5 134.5 23 11 9.5 6.5 76.5 11.5 22.5 26.5 25.5 39 21.5 9 13.5-5.282 9.464" fill="none" stroke="#e8881d" stroke-width="1px" stroke-linejoin="round"/><path d="M2778.43 3701.285l3.888 22.981-17.324 112.784-9.546 30.405-2.475 42.78-58.336 341.18-15.886 43.622-27.145 167.807-5.553 20.36-28.996 33.314-20.359 115.368-4.318 5.552-30.23-4.319-4.936 2.468-1.85 7.403 6.785 27.146-6.786 57.375-37.016 95.009-24.06 41.952-4.32 22.21-.616 24.677 4.935 30.23-1.234 24.06-25.911 82.054.617 27.762-25.912 49.355-27.762 96.86-5.552 75.883-43.186 85.138 4.935 6.17 60.46 14.189" fill="none" stroke="#e8881d" stroke-width="1px" stroke-linejoin="round"/><path d="M2982.076 3924.73l25.102 4.244 14.142-1.061 13.082-14.496 9.192-1.06 2.829 5.656 26.163 51.266 10.96 12.02 6.717 47.377 18.933 50.961-4.857 8.46-45.789-5.527-7.987 5.092-59.024 364.694-7.403 8.637-17.274-11.105-6.787 4.319-15.423 95.009-3.702 4.318-214.078-36.4-4.935 3.702-72.8 442.346-4.318 3.085-38.25-9.254-28.38 4.935-14.806-3.085-28.996-22.826-33.932-7.404-7.403 4.936" fill="none" stroke="#e8881d" stroke-width="1px" stroke-linejoin="round"/><text style="line-height:125%;-inkscape-font-specification:Sans" y="5397.9609" x="89.453125" font-weight="400" font-size="144px" font-family="Sans" letter-spacing="0" word-spacing="0"/><text style="line-height:125%;-inkscape-font-specification:Sans" y="206.96103" x="89.45314" font-weight="400" font-size="143.99993896px" font-family="Sans" letter-spacing="0" word-spacing="0"><tspan y="206.96103" x="89.45314">2015</tspan></text><path d="M2281.5 1179l-7-5.5-104-19.5-10.5-15 19-133.5-4.5-24-35-28.5-31.11-30.654-14.832-30.537-.872-94.229-6.98-19.194v-47.114l-8.725-20.94-7.852-2.617-11.343 5.234-143.538-27.008-1.85-4.936 22.21-131.408 6.169-4.935 308.47 51.823M2170.867 2484.639l-3.367 5.861 42.5 59.5 68 107 13 32-5 17-13-2.5-.5-1.5 1.5-8 3.5-3M2290 2689l11 13M1663 2276.5l2-13 38-39-3.5-18.5 9.5-34.5 6-37.5-.5-34.5-1-10.5 1-13.5 8.5-13.5 7-4 4.5 2 13.5 24.5-2 7.5-26.5 1.5-5 5M2368 2732l-5 8.5-3 20-12 2.5-14 38-6.5 30.5 4 23 9.5 51-1 23.5-7.5 21-6.5 20.5 3 38 1 18.5-11.5 24.5-29 58.5-27.5 89.5-19 19.5-138.5 177-52.5 82.5-17.5 90-11 19-14.5 18.5-11 18-8 46-3 35.5-2 38-4.5 27.5-12.5 20-21.5 16-45 20-29.5 12.5-29.5 7-15.5 6-107.5 58.5-38 10.5-61.5 14-26.5 6-4.5 3.5-2.5 19.5L1647 4233l-3.5 5.5-49 12.5-57.704 11.339-4.935 6.786 9.87 46.27-30.846 99.328.617 5.552 8.637 4.319 1.85 6.17-15.423 48.737-3.702.617-10.488-3.084-4.935 2.467-23.444 64.162 7.403 28.996 1.234 7.404-6.786 37.016 8.637 18.508v6.786l-44.42 31.464-11.721 6.787-35.166 6.17-3.701 5.552 3.084 47.504-3.701 6.786-48.122 5.553-26.528 16.657-17.891.617-24.06-4.936-5.553 3.702-11.722 73.416 3.701 3.702 33.932 6.786 34.549-1.234 19.742 5.552 30.847 29.614 18.508 7.403 26.528-4.936 40.718-8.02M2415 2954l81.5 15.5 13.5 23 25.5 24 12 20 34 39.5-.5 39 4 9 133.5 117 9 2.5L2843 3160l7 2.5 2.5 16 15.5 17.5 67 21.5 33.5 1 33.5 36.5 54.5 41.5 90 129 105 18.5 4.5 7-11 71.5-3 .5-13.5-2-3.5 1.5-2 9-1 1.5-10.5-2-3 1.5-12.5 71 2.5 4 168.883 29.342 1.333 7.875L3304 3700.5l-25 21.5-40.5 31-19 11.5-41.5 5.5-19.5 1.5-35-2-17.5 3.5-60 34-74.5 37.5-26 9.5-4.5 3.5-3.5 31" fill="none" stroke="#e8881d" stroke-width="1px" stroke-linejoin="round"/><path d="M2497.354 2970.137l-6.01-22.981-25.102-42.073-28.638-8.839-19.8-3.889-4.595 3.535" fill="none" stroke="#e8881d" stroke-width="1px" stroke-linejoin="round"/><path d="M2404.016 2904.376l6.718-2.475 3.889-13.789 10.96-7.07 8.839.353 35.709 12.02 12.728 1.768 30.052 1.768 8.838 4.95 22.981 3.182" fill="none" stroke="#e8881d" stroke-width="5" stroke-linejoin="round"/><path d="M2542.75 2905l10.5 2.25M2411.44 2791.592l7.425 20.86 3.536 30.052-.354 27.93 11.668 18.739-4.243 4.95M1471.642 2946.533l-4.663-.24-.561-42.394-8.868-6.586-6.652-.61L1423.5 2910l-31.5 33.5-44 32-35 43.5-21.5 18-35.5 11-23.5 7.5-65.5-20-17 6-25.5 17.5-10.5 16-22-.5-21-8.5-13-16.5-24.5-11.5-10.5 7.5-10 34.5-10 4.5-33.5 7.5-13.5 24.5-11 28.5-15.5 6.5-31 1.5-16.386 2.469-37.953 20.94-24.866 6.543-6.107 9.597-9.597 61.947-7.853 5.67-20.94 9.162-17.013 26.61-7.416 46.242-4.799 25.302-5.67 6.98-14.397 9.598-32.718 11.342h-13.087l-33.155-7.852-8.724 1.308-45.806 22.685-11.342 3.054-15.269-3.49h-9.597l-11.779 31.845-8.724 11.342-13.96 8.725-2.618 20.94-16.14 11.779-13.524 4.362-29.228 27.047-15.705 12.215-20.067 7.416-17.45 17.45-41.007 15.704-18.322 45.37.873 83.758-41.88 219.866-7.852 10.906-44.933 36.644-10.033 3.49-78.088 16.577-21.375 12.215-12.215 13.087M2057.5 2404.5l5.5 11-.5 7-7 4-34 12-43 30-86 85.5-54 55-32.5 59-25 17-7 10.5-8 15.5-16 2.5-26 27.5-32.5 20.5-44 26.5-32.5 12.5-60 18-15.5 19-21 42-19 4.5-12.655 2.782" fill="none" stroke="#e8881d" stroke-width="1px" stroke-linejoin="round"/><path d="M2053.5 2402.5l-4.5 5.5-17 3-8.5-4-59 23-3 5 11 34v5.5" fill="none" stroke="#e8881d" stroke-width="1px" stroke-linejoin="round"/><path d="M2308.412 1821.47L2318 1766l11-65 3.5-15 19-33 2-13.5-3.5-16.5-20.5-29-9-15-14-29.5-9-17.5 2-33" fill="none" stroke="#e8881d" stroke-width="5" stroke-linejoin="round"/><path d="M2282.5 2001l-2.23-10.298 28.141-169.231M152.717 4003.523l-1.745-3.49 11.779-70.235-2.618-3.49-34.463-9.16-21.376-8.726-13.96 1.31-25.738 9.597-2.617-.437-4.799-12.214-14.396-12.652-1.745-17.013 2.618-11.342 16.577-8.725 11.779-2.181L81.61 3860l5.235 17.013 7.416 5.671 38.39 9.161 7.415 5.235 3.49 9.161-3.053 11.779 1.745 3.926M2562.15 4633.12l-10.489-6.706-33.931-27.763-19.125-12.338-46.27-51.206-8.638 3.084-9.254 43.186 4.319 20.976v12.339l-26.529 33.932-15.423 12.338h-4.936l-8.637-11.722-69.714-12.338-14.807 2.468-11.722 17.274-17.89 32.08-14.19 33.315-24.678 74.65-2.468 21.593 1.851 18.508 6.786 9.254 10.488 8.637 9.871 4.936 2.468 5.552-8.02 25.295 7.403 53.057-1.234 53.056.617 12.956 14.807 19.742 16.04 15.424 6.787 4.935 94.391 14.807 41.952-17.892 149.916 24.061" fill="none" stroke="#e8881d" stroke-width="1px" stroke-linejoin="round"/><path d="M2169.592 2486.095l5.343-4.82L2185 2473l15-12.5 1.5-4.5-41.5-42.25-44.75-11.25-33-7.75-2.25-5.5-6.25-15.75-7.5-44-3.25-26.75 5.25-16.25 11.5-10.75 15.5-3.5 8-1.5 6.75-9-.5-11-7.75-27.25 8.75-54.75 8.5-13.5 24-9.25 18-1.25 27.5 7.25 19.5 4.5 8 3.5 6.5 7.5 7.5-.5 18-7.5 6.5-16 2.5-43-2.5-15 5.5-30 23-18.5-.5-36" fill="none" stroke="#e8881d" stroke-width="5" stroke-linejoin="round"/><path d="M2100.195 2536.193l1.93-11.587 59.995-37.207 8.747-2.76" fill="none" stroke="#e8881d" stroke-width="1px" stroke-linejoin="round"/></svg>