<svg width="6500" height="6850" viewBox="-300 -1450 6500 6850" xmlns="http://www.w3.org/2000/svg"><path d="M1485.5 2513.73l57-42.5 98-66.5 20-28.5 14.5-37 28.5-18.5 43.5-.5 57-10 74.5-29.5 100-37.5 39.5-9 50.5-27.5" fill="none" stroke="#3666b9" stroke-width="5" stroke-linejoin="round"/><path d="M2457.863 1996.113l28.682-23.383 44.745-7.964 100.273 2.14 107.747-.298 18.471 2.614 14.395 5.404 57.946 31.762 15.447 24.887 20.711 35.051 18.72 29.404 20.631 31.703 11.134 9.51 14.411 6.02 16.594 1.743 10.756-2.282 34.992-19.877 17.541-1.996 71.02 21.206 13.009 4.161 78.974 1.093 33.352-3.894 24.037-5.298 16.91-10.535 9.577-11.239 12.93-42.692 2.025-10.454" fill="none" stroke="#f46d32" stroke-width="5" stroke-linejoin="round"/><path d="M1485.5 2513.73l-71.173 66.697-11.034 27.95-6.793 26.853 7 37.5 29 45.5 64.5 88.5 13.5 9 61 6.5 14.5-6 82.989-66.236" fill="none" stroke="#3666b9" stroke-width="5" stroke-linejoin="round"/><path d="M2927.696 1985.77l-17.196 6.96-99.5 65-14.5 5-136.5 23.5-31.898 5.626-10.294-.141-14.797-14.707-13.408-5.621-58.261 6.854-15.342-6.011-84-4-117-6.5-15.77 4.45-19.332 15.93-23.094 25.124-8.304 13.297-10.5 26.199-10.5 50-4.5 24-12 34-16.5 7-20.5 2-49.985-4.474-19.098.38-10.194 5.693-8.652 11.229-3.571 17.172 14.88 27.07 7.04 21.042 1.257 29.41-7.177 17.978-30.5 59-2.709 11.51 3.457 5.065 47.203 11.978 5.507-.658 11.83-.559 6.842 2.434 4.35 9.688-.953 6.095-5.47 9.045-33.786 11.669L2068 2532.23l-16 16.5-29 39.5-16.5 18-99 70-68.5 58.5-17 6.5-93.5-.5-55.146 12.305-13.352 10.202" fill="none" stroke="#79cb44" stroke-width="5" stroke-linejoin="round"/><path d="M2000.5 2097.73l119 14 51 11 73 23 50.5 30 29.5 3.5 63 3 84 6.5 8-6 10.5-141.5-3.606-17.15-36.07-48.017-3.64-10.92 2.417-26.729 5.899-8.684 38.5-36 74.5-64 6.878-6.952" fill="none" stroke="#984e1d" stroke-width="5" stroke-linejoin="round"/><path d="M1966.5 2028.73l39 76 36 65.5 27.5 44 51 40.5 28 49.5 5.5 31 8 26.5 23.5 81-15.886 42.254-.453 11.364 15.102 27.208 15.728 1.29 22.432-7.294 36.586 4.354 8.666 9.385-14.745 170.903" fill="none" stroke="#fccd19" stroke-width="5" stroke-linejoin="round"/><path d="M2145 1843.73l-.5 60-4 145.5-17.5 69-16 66.5-5.752 60.607-4.256 10.934-8.98 7.658-9.285 12.99-.711 7.773 4.484 9.038 12 4 42.5 10h26l55.5-19.5 50.5-15.5 81-15.5 40-13.5 112-66.5 80.5-53.5 42-27" fill="none" stroke="#ee262f" stroke-width="5" stroke-linejoin="round"/><path d="M2316 1546.23l-12 15-50 15-12.5 13-16.5 21-11.5 28.5-9 14.5-27 31.5-13.5 38.5-11 86.5-3 22.5 1.5 28.5 52 154.5 15.5 53.5-49.5 59 15.5 50.5-8.5 72.5-24.5 56.5-11.5 53v20l19.5 7 41-2 18-2 14.5 9.5 51 31 25.5 23 20 26 67.5 23 41.5 21.5 142 99 96.434 64.29" fill="none" stroke="#51c7f4" stroke-width="5" stroke-linejoin="round"/><text x="-210.54691" y="-1243.0391" style="line-height:125%;-inkscape-font-specification:Sans" font-weight="400" font-size="143.99990845px" font-family="Sans" letter-spacing="0" word-spacing="0"><tspan x="-210.54691" y="-1243.0391">1975</tspan></text><text x="-210.54691" y="5297.9609" style="line-height:125%;-inkscape-font-specification:Sans" font-weight="400" font-size="143.99990845px" font-family="Sans" letter-spacing="0" word-spacing="0"/><path d="M1952.5 2255.73l58.245 2.782 11.406 4.485 34.259 23.857 13.56 6.77 12.53.106" fill="none" stroke="#231f20" stroke-width="5" stroke-linejoin="round"/></svg>