<?xml version="1.0" encoding="UTF-8" standalone="no"?>
<svg
   xmlns:dc="http://purl.org/dc/elements/1.1/"
   xmlns:cc="http://creativecommons.org/ns#"
   xmlns:rdf="http://www.w3.org/1999/02/22-rdf-syntax-ns#"
   xmlns:svg="http://www.w3.org/2000/svg"
   xmlns="http://www.w3.org/2000/svg"
   xmlns:xlink="http://www.w3.org/1999/xlink"
   id="svg2"
   height="7850"
   width="12150"
   viewBox="-1150, 0, 12150, 7850"
   version="1.1">
  <metadata
     id="metadata8">
    <rdf:RDF>
      <cc:Work
         rdf:about="">
        <dc:format>image/svg+xml</dc:format>
        <dc:type
           rdf:resource="http://purl.org/dc/dcmitype/StillImage" />
        <dc:title></dc:title>
      </cc:Work>
    </rdf:RDF>
  </metadata>
  <defs
     id="defs6" />
  <image
     xlink:href="../basemap/shaosm.png"
     style="display:none"
     id="image10"
     height="8080.26"
     width="11254.65"
     y="-187.35"
     x="-27.16" />
  <path
     style="fill:none;stroke:#8cc320;stroke-width:5;stroke-linecap:butt;stroke-linejoin:round;stroke-miterlimit:4;stroke-dasharray:none;stroke-opacity:1"
     id="path3839"
     d="m 4172.14,3024.51 49.31,-15.62 15.93,-1.42 30.62,0.53 74.58,-1.6 48.42,-10.4 34.78,-6.22 39.59,-8.07 29.44,-6.68 30.04,-12 29.62,-12.25 35.54,-17.79 42.62,-22.63 17.8,-11.15 22.59,-16.22 26.75,-20.05 37.02,-11.31 47.07,-21.18 31.59,-6.27 38.26,0.68 29.03,-7.89 84.04,-56.35 60.17,-16.83 44.09,-18.8 53,-20 40.44,-8.19 73.27,-1.8 61.29,11.98 61.19,23.08 44.65,21.44 90.69,36.44 102.47,42.04 117,76 144,92 46.31,32.22 21,20.59 9.63,20.56 14.06,64.63 17.53,72.6 18.53,27.07 20.93,7.62 33.01,6.71 92,7 84,-13 21,3 81.02,32.28 17.22,4.99 19.68,-0.6 89.12,-17.34" />
  <path
     style="fill:none;stroke:#e70012;stroke-width:5;stroke-linecap:butt;stroke-linejoin:round;stroke-miterlimit:4;stroke-dasharray:none;stroke-opacity:1"
     id="path3860"
     d="m 4412.28,903.67 9.82,121.36 6.6,27.97 13.31,44.57 21.99,59.43 89,231 43,115 6,31 2.97,156.45 4.19,93.7 24.84,137.85 11,76 8,97 12,55 61,102 19,47 -3.84,75.19 5.84,36.81 -1.53,56.68 -6.85,25.7 -46.38,94.49 -5.4,12.68 2.1,12.45 14.58,25.34 14.5,13.39 15.99,3.73 50.1,16.83 74.9,29.62 48.7,24.31 20.33,19.19 18.96,37.58 12,23 31,51 16,29 2.3,10.34 -2.03,10.35 -8.04,9.44 -65.23,29.88 -69,39 -79,34 -63.45,35.07 -93.55,43.93 -17.45,12.84 -12.8,15.59 -2.67,12.65 -0.1,59.95 -5.02,13.19 -40.95,61.79 -66.55,100.17 -6.41,14.74 -18.04,68.09 -10,67 -28.96,311.37 -3.69,55.74 -6.85,44.7 -19.57,35.68 -35.68,29.91 -51.82,25.6 -17.49,10.86 -184.93,204.14 -98,119 -114,132 -15.27,23.12 -45.28,73.93 -56.59,80.0" />
  <path
     style="fill:none;stroke:#934c9a;stroke-width:5;stroke-linecap:butt;stroke-linejoin:round;stroke-miterlimit:4;stroke-dasharray:none;stroke-opacity:1"
     id="path3862"
     d="m 3774.5,4655.0 -30.5,44 -4.97,19.8 -2.71,26.35 1.67,17.85 6,22 144,321 95,212 87,248 44,159 28,61 2,15 v 36 l 16,47 78,228 -7,35 -14,12 -659,200" />
  <path
     style="fill:none;stroke:#000000;stroke-width:5;stroke-linecap:butt;stroke-linejoin:round;stroke-miterlimit:4;stroke-dasharray:none;stroke-opacity:1"
     id="path3864"
     d="m 5153.27,2693.48 20.74,14.25 14.63,5.8 15.84,0.42 14.75,-4.31 23.49,-10.07" />
  <path
     style="fill:none;stroke:#471f82;stroke-width:5;stroke-linecap:butt;stroke-linejoin:round;stroke-miterlimit:4;stroke-dasharray:none;stroke-opacity:1"
     id="path3792"
     d="m 5643.33,3124.17 7.67,-17.17 31,-63 23,-51 4,-24 -5,-29 -23.53,-56.38 -20.94,-19.41 -48.53,-32.2 -15,-25 -56.78,-119.18 -17.53,-149.35 -10.31,-28.2 -9.22,-25.53 -64.16,-102.73 -26.51,-20.75 -26.35,-9.5 -30.27,-3.59 -22.1,3.41 -195.93,41.44 -31.83,17.99 -36,32 -16.5,15.37 -40.2,19.23 -40.1,29.46 -40.57,25.35 -18.63,24.6 -46,28 -33,1 -282,-126 -33,1 -37,11 -22,11 -42,43 -42,51 -41,31 -132,88 -30,33 -17,41 -30,90 1,46 66,159 7,26 -6,59 v 44 l 60,177 9,28 79.6,123.01 13.92,14.09 34.5,28.92 24.64,3.4 41.13,-3.37 58.22,-22.06 31,-27 27.31,-22.55 112.69,-52.45 105.64,-46.49 14.36,-8.51" />
  <path
     style="fill:none;stroke:#fed700;stroke-width:5;stroke-linecap:butt;stroke-linejoin:round;stroke-miterlimit:4;stroke-dasharray:none;stroke-opacity:1"
     id="path3794"
     d="m 4365.0,4023.0 46,-32 38,-17 72,-23 37,-18 17,-17 8,-22 -2,-25 -19,-36 -12,-71 -17,-49 -14,-17 -68,-58 -35,-26 -35,-39 -32.5,-32.5 -90,-139.5 -10,-31 -59,-175 -0.5,-49.5 6.5,-54.5 -6.5,-24 -67.5,-160 -1,-47.5 30,-89 18,-44.5 31.5,-34 133.5,-88 41.5,-32 40.5,-50 42,-43 27.5,-13.5 36,-10 h 32.5 l 282,126 31,-1.5 42,-25.5 20,-25.5 43.5,-28 43,-31 10,-22 v -45 l -9,-66 1.27,-27.37 1.94,-40.16 -10.2,-65.46 1,-38 9,-23 18,-30 13,-48 3,-57 12,-134 12,-75 8,-118 -0.06,-15.84" />
  <text
     style="font-style:normal;font-weight:normal;font-size:144px;line-height:125%;font-family:Sans;-inkscape-font-specification:Sans;letter-spacing:0px;word-spacing:0px;fill:#000000;fill-opacity:1;stroke:none"
     xml:space="preserve"
     id="text3866"
     y="7747.96"
     x="-1060.55"><tspan
       id="tspan2"
       y="7747.96"
       x="-1060.55">2005</tspan></text>
  <text
     style="font-style:normal;font-weight:normal;font-size:144px;line-height:125%;font-family:Sans;-inkscape-font-specification:Sans;letter-spacing:0px;word-spacing:0px;fill:#000000;fill-opacity:1;stroke:none"
     xml:space="preserve"
     id="text3870"
     y="206.96"
     x="-1060.55"><tspan
       id="tspan1"
       y="206.96"
       x="-1060.55">2005</tspan></text>
</svg>
