<?xml version="1.0" encoding="UTF-8" standalone="no"?>
<!-- Created with Inkscape (http://www.inkscape.org/) -->

<svg
   xmlns:dc="http://purl.org/dc/elements/1.1/"
   xmlns:cc="http://creativecommons.org/ns#"
   xmlns:rdf="http://www.w3.org/1999/02/22-rdf-syntax-ns#"
   xmlns:svg="http://www.w3.org/2000/svg"
   xmlns="http://www.w3.org/2000/svg"
   xmlns:xlink="http://www.w3.org/1999/xlink"
   version="1.1"
   width="8700"
   height="6450"
   id="svg2">
  <metadata
     id="metadata8">
    <rdf:RDF>
      <cc:Work
         rdf:about="">
        <dc:format>image/svg+xml</dc:format>
        <dc:type
           rdf:resource="http://purl.org/dc/dcmitype/StillImage" />
        <dc:title></dc:title>
      </cc:Work>
    </rdf:RDF>
  </metadata>
  <defs
     id="defs6" />
  <image
     xlink:href="../streetmap/shaosm.png"
     style="display:none"
     id="image10"
     height="6348.7739"
     width="8945.999"
     y="101.22607"
     x="-150" />
  <path
     d="m 4944,3120 12.3893,-25.1197 L 4982,3044 l 23,-51 4,-24 -5,-29 -25,-63 -18,-15 -50,-30 -15,-25 -52,-128 -19,-142 -7,-26 -14,-27 -66,-102 -21,-27 -19,-22 -13,-8 -21,-1 -21,8 -69,41 -64,11 -46,7 -30,5 -29,15 -36,32 -32,26 -38,21 -25,17 -42,26 -19,24 -46,28 -33,1 -282,-126 -33,1 -37,11 -22,11 -42,43 -42,51 -41,31 -132,88 -30,33 -17,41 -30,90 1,46 66,159 7,26 -6,59 0,44 60,177 9,28 88,136 22,19 50,17 29,-3 63,-25 31,-27 27,-25 113,-50 120,-55"
     id="path3792"
     style="fill:none;stroke:#471f82;stroke-width:5;stroke-linecap:butt;stroke-linejoin:round;stroke-miterlimit:4;stroke-opacity:1;stroke-dasharray:none" />
  <path
     d="m 3665,4023 46,-32 38,-17 72,-23 37,-18 17,-17 8,-22 -2,-25 -19,-36 -12,-71 -17,-49 -14,-17 -68,-58 -35,-26 -35,-39 -32.5,-32.5 -90,-139.5 -10,-31 -59,-175 -0.5,-49.5 6.5,-54.5 -6.5,-24 -67.5,-160 -1,-47.5 30,-89 18,-44.5 31.5,-34 133.5,-88 41.5,-32 40.5,-50 42,-43 27.5,-13.5 36,-10 32.5,0 282,126 31,-1.5 42,-25.5 20,-25.5 43.5,-28 43,-31 10,-22 0,-45 -9,-66 -1,-28 6,-39 -12,-66 1,-38 9,-23 18,-30 13,-48 3,-57 12,-134 12,-75 8,-118 -0.081,-21.0036"
     id="path3794"
     style="fill:none;stroke:#fed700;stroke-width:5;stroke-linecap:butt;stroke-linejoin:round;stroke-miterlimit:4;stroke-opacity:1;stroke-dasharray:none" />
  <path
     d="m 3461,3027 76,-22 31,3 77,2 46,-14 30,-11 44,7 14,-3 26,-12 23,-6 62,-38 36,-23 20,-6 27,-21 28,-8 49,-43 32,-10 101,0 12,-5 9,-22 10,-10 22,-18 99,-21 36,-21 53,-20 38,-7 86,4 51,5 71,33 127,52 101,38 117,76 144,92 43,37 21,25 10,11 17,65 19,102 20,12 51,0 92,7 84,-13 21,3 84,35 36,2 93.9688,-17.0116"
     id="path3839"
     style="fill:none;stroke:#8cc320;stroke-width:5;stroke-linecap:butt;stroke-linejoin:round;stroke-miterlimit:4;stroke-opacity:1;stroke-dasharray:none" />
  <path
     d="M 3714.7343,910.02373 3725,1025 l 6,28 12,44 21,60 89,231 43,115 6,31 8,192 3,71 21,125 11,76 8,97 12,55 61,102 19,47 2,112 -3,78 -12,11 -22,15 -12,19 -7,29 -6,28 13,35 36,26 63,28 62,20 56,26 16,16 16,41 12,23 31,51 16,29 4,13 -8,15 -69,32 -69,39 -79,34 -55,20 -102,59 -9,11 3,20 1,20 -17,39 -57,86 -68,105 -23,78 -10,67 -33,311 -7,37 -12,30 -65,74 -232,266 -98,119 -114,132 -21,30 -96,148"
     id="path3860"
     style="fill:none;stroke:#e70012;stroke-width:5;stroke-linecap:butt;stroke-linejoin:round;stroke-miterlimit:4;stroke-opacity:1;stroke-dasharray:none" />
  <path
     d="m 3074.5,4655 -30.5,44 -4,26 -2,38 6,22 144,321 95,212 87,248 44,159 28,61 2,15 0,36 16,47 78,228 -7,35 -14,12 -659,200"
     id="path3862"
     style="fill:none;stroke:#934c9a;stroke-width:5;stroke-linecap:butt;stroke-linejoin:round;stroke-miterlimit:4;stroke-opacity:1;stroke-dasharray:none" />
  <path
     d="m 4454,2695.5 93.5,14"
     id="path3864"
     style="fill:none;stroke:#000000;stroke-width:5;stroke-linecap:butt;stroke-linejoin:round;stroke-miterlimit:4;stroke-opacity:1;stroke-dasharray:none" />
  <text
     x="89.453125"
     y="6347.9609"
     id="text3866"
     xml:space="preserve"
     style="font-size:144px;font-style:normal;font-weight:normal;line-height:125%;letter-spacing:0px;word-spacing:0px;fill:#000000;fill-opacity:1;stroke:none;font-family:Sans;-inkscape-font-specification:Sans"><tspan
       x="89.453125"
       y="6347.9609"
       id="tspan2">2005</tspan></text>
  <text
     x="89.453125"
     y="206.96094"
     id="text3870"
     xml:space="preserve"
     style="font-size:144px;font-style:normal;font-weight:normal;line-height:125%;letter-spacing:0px;word-spacing:0px;fill:#000000;fill-opacity:1;stroke:none;font-family:Sans;-inkscape-font-specification:Sans"><tspan
       x="89.453125"
       y="206.96094"
       id="tspan1">2005</tspan></text>
</svg>
