<?xml version="1.0" encoding="UTF-8" standalone="no"?>
<svg
   version="1.1"
   viewBox="-10 275 8450 5800"
   width="8450"
   height="5800"
   id="svg2"
   xmlns:xlink="http://www.w3.org/1999/xlink"
   xmlns="http://www.w3.org/2000/svg"
   xmlns:svg="http://www.w3.org/2000/svg"
   xmlns:rdf="http://www.w3.org/1999/02/22-rdf-syntax-ns#"
   xmlns:cc="http://creativecommons.org/ns#"
   xmlns:dc="http://purl.org/dc/elements/1.1/">
  <metadata
     id="metadata8">
    <rdf:RDF>
      <cc:Work
         rdf:about="">
        <dc:format>image/svg+xml</dc:format>
        <dc:type
           rdf:resource="http://purl.org/dc/dcmitype/StillImage" />
      </cc:Work>
    </rdf:RDF>
  </metadata>
  <defs
     id="defs6" />
  <path
     d="m 5146.51,3381.07 -20.71,-1.7 -5.11,-4.04 -117.94,-118.07 -11.69,-24.03 -12.5,-28.5 -39,-49.5 -10.5,-6 -17.5,-5 -17,1.5 -17.5,8.5 -18.5,15.5 -18,14.5 -19.5,9 -22.5,4 -133.26,-1.54 -14.95,-5 -22.11,-21.82 -5.59,-12 2.26,-11.81 6.2,-9.03 2.71,-12.98 -3.75,-10.33 -11.5,-15 -6.5,-17.5 -1.5,-14 -4.3,-10.54 -10.79,-8.62 -14.91,-0.84 -10,4.5 -13.5,8 -14.5,1 -22.5,-0.5 -10.5,-4.5 -15.62,-21.82 -22.88,-15.68 -30,-34.5 -62.5,-61.5 -65.5,-70 -22.5,-31 -34,-63.5 -4,-22.5 -10,-15 -13,-9.5 -25,1.5 -15.5,-1 -7,-10.5 -13.5,-17.5 -9.5,-11 -13.5,-5 -24,-7.5 -9.5,-8.5 -7.5,-10.5 -12,-28 -25,-45 -8.5,-14.5 -22,-19.5 -5,-9 -3,-16.5 3.5,-11.5 8.5,-23.5 13.5,-21 10.5,-23 -1,-12.5 -4,-15 -4,-14.5 -18.5,-18.5 -43,-43.5 -4.5,-12.5 -5,-21.5 -0.5,-19 7.5,-28.5 9.5,-16 88.5,-85.5 6,-9.5 2.5,-10 -0.37,-10.24"
     id="path3784-3"
     style="fill:none;stroke:#114681;stroke-width:5;stroke-linecap:butt;stroke-linejoin:round;stroke-miterlimit:4;stroke-dasharray:none;stroke-opacity:1" />
  <image
     xlink:href="../basemap/bcnosm.png"
     x="-100"
     y="-26.36"
     width="8608.18"
     height="6076.36"
     id="image10"
     style="display:none" />
  <path
     d="m 5207.02,2911.22 -9.71,14.13 -18.71,16.48 -17.05,11.41 -42.71,17.36 -21.29,9.64 -5.5,12.5 -16,80.5 4.54,23.4 4.9,10.95 61.06,59.15 29.62,32.68 4.2,12.75 -1.82,11.57 -24,26.5 -26.81,29.63 -3.26,19.9 3.48,11.15 24.49,26.81 9.5,4.98 17.13,-5.52 10.53,3.17 67.44,68.38 36.5,38 11,5.5 13.5,-6 26,-16.5 58.66,-34.58 10.04,-14.3 16.85,-35.55 2.42,-10.66 -2.88,-10.59 -42.45,-43.68 -1.85,-7.21 0.2,-7.21 2.98,-7.9 84.23,-84.09 138.73,-139.77"
     id="path3842"
     style="fill:none;stroke:#f3b913;stroke-width:5;stroke-linecap:butt;stroke-linejoin:round;stroke-miterlimit:4;stroke-dasharray:none;stroke-opacity:1" />
  <path
     d="m 4628.22,3168.87 -14.8,-5.43 -13.87,-1.29 -12,5.58 -27.5,20"
     id="path3788"
     style="fill:none;stroke:#114681;stroke-width:5;stroke-linecap:butt;stroke-linejoin:round;stroke-miterlimit:4;stroke-dasharray:none;stroke-opacity:1" />
  <path
     d="m 4905.55,3144.23 -16.5,-7.5 -28.5,-18 -18,-8.5 -34,-22.5 -9,-12 -26,-72.5"
     id="path3790"
     style="fill:none;stroke:#114681;stroke-width:5;stroke-linecap:butt;stroke-linejoin:round;stroke-miterlimit:4;stroke-dasharray:none;stroke-opacity:1" />
  <text
     x="79.45"
     y="481.96"
     id="text3813"
     xml:space="preserve"
     style="font-style:normal;font-weight:normal;font-size:144px;line-height:125%;font-family:Sans;-inkscape-font-specification:Sans;letter-spacing:0px;word-spacing:0px;fill:#000000;fill-opacity:1;stroke:none"><tspan
       x="79.45"
       y="481.96"
       id="tspan1">1980</tspan></text>
  <path
     d="m 4161.92,3728.41 33.13,-20.18 50,-28 36,-22.5 11.5,-8 29.5,-22.29 13.39,-10.48 21.48,-38.64 5.2,-3.85 5.59,-2.42 43.97,2.06 11.75,-4.15 22.62,-16.27 8.97,-10.72 11.15,-7.89 12.15,-2.51 83.23,2.15 187,3.5 14.5,-7 19,-22 7.5,-10 8.27,-16.74 20.44,-14.59 12.65,-9.12 11.15,-25.06 214.5,-217 11,-12 42,-13.5 98,-97 -1,-77.5 51.5,-54.5 25.5,-26 58.91,-58.27 3.49,-7.81 -0.11,-50.54 -3.4,-6.84 -6.04,-4.19 -64.35,-7.85 -24.15,-3.91 -10.38,-7.89 -9.97,-17.2 -8.44,-36.11 -1.78,-16.62 -9.75,-16.35 -10.73,-8.26 -94.29,-1.65 -14.29,-3.47 -10.32,3.26 -11.36,10.06 -9.62,3.62 -19.38,-1.03"
     id="path3836"
     style="fill:none;stroke:#287dc2;stroke-width:5;stroke-linecap:butt;stroke-linejoin:round;stroke-miterlimit:4;stroke-dasharray:none;stroke-opacity:1" />
  <path
     d="m 5181.91,3606.68 180.31,-31.82"
     id="path3906"
     style="fill:none;stroke:#656363;stroke-width:5;stroke-linecap:butt;stroke-linejoin:round;stroke-miterlimit:4;stroke-dasharray:none;stroke-opacity:1" />
  <path
     d="m 5152.21,3550.11 -50.91,67.88 -24.04,21.92 -0.06,64"
     id="path3908"
     style="fill:none;stroke:#00674b;stroke-width:5;stroke-linecap:butt;stroke-linejoin:round;stroke-miterlimit:4;stroke-dasharray:none;stroke-opacity:1" />
  <path
     d="m 5077.26,3640.62 58.69,22.63 -21.21,41.01"
     id="path3910"
     style="fill:none;stroke:#000000;stroke-width:5;stroke-linecap:butt;stroke-linejoin:round;stroke-miterlimit:4;stroke-dasharray:none;stroke-opacity:1" />
  <path
     d="m 4572.55,2832.73 139.5,79.5"
     id="path3912"
     style="fill:none;stroke:#bdbcbd;stroke-width:5;stroke-linecap:butt;stroke-linejoin:round;stroke-miterlimit:4;stroke-dasharray:none;stroke-opacity:1" />
  <path
     d="m 4415.55,2943.23 47,56 12.5,14 6,7"
     id="path3914"
     style="fill:none;stroke:#bdbcbd;stroke-width:5;stroke-linecap:butt;stroke-linejoin:round;stroke-miterlimit:4;stroke-dasharray:none;stroke-opacity:1" />
  <text
     x="79.45"
     y="5972.96"
     id="text3916"
     xml:space="preserve"
     style="font-style:normal;font-weight:normal;font-size:144px;line-height:125%;font-family:Sans;-inkscape-font-specification:Sans;letter-spacing:0px;word-spacing:0px;fill:#000000;fill-opacity:1;stroke:none"><tspan
       x="8017.45"
       y="5972.96"
       id="tspan2"></tspan></text>
  <path
     style="fill:none;fill-rule:evenodd;stroke:#000000;stroke-width:5;stroke-linecap:butt;stroke-linejoin:round;stroke-opacity:1;stroke-miterlimit:4;stroke-dasharray:none"
     d="M 1505.78,227.89 1333.6,193.95"
     id="path4283" />
  <path
     style="fill:none;fill-rule:evenodd;stroke:#bdbcbd;stroke-width:5;stroke-linecap:butt;stroke-linejoin:round;stroke-opacity:1;stroke-miterlimit:4;stroke-dasharray:none"
     d="m 1312.5,206.5 -39,54.5"
     id="path4285" />
  <path
     style="fill:none;fill-rule:evenodd;stroke:#bdbcbd;stroke-width:5;stroke-linecap:butt;stroke-linejoin:round;stroke-opacity:1;stroke-miterlimit:4;stroke-dasharray:none"
     d="m 1317,204.5 8.5,-3.5 10,-1 11.5,2.5"
     id="path4287" />
  <path
     d="m 5394.41,2490.18 4.64,100.55 0.92,20.7 -4.56,15.88 -10.33,10.11 -61.01,20.59 -10.08,13.62 -3.06,12.58 1.25,13.59 16.36,30.42 20,46.5 5.5,18 1.5,16 v 28.5 l -0.5,115.5 0.98,89.04 -1.19,167.18 -0.95,14.31 -7.83,13.18 -13.43,9.45 -12.14,7.21 -35.92,34.64 -49.03,25.01 -169,81.5 -143.37,142.04 -19.23,6.97 -130.25,-3.53 -18.46,7.96 -13.94,23.47 -36.04,49.22 -4.02,3.77"
     id="path3865"
     style="fill:none;stroke:#e22739;stroke-width:5;stroke-linecap:butt;stroke-linejoin:round;stroke-miterlimit:4;stroke-dasharray:none;stroke-opacity:1" />
  <path
     style="fill:none;stroke:#3bb255;stroke-width:5;stroke-linecap:butt;stroke-linejoin:round;stroke-miterlimit:4;stroke-dasharray:none;stroke-opacity:1"
     id="path3840"
     d="m 4921.73,3060.03 14.32,20.7 16,34 11,20 67,77.5 89.21,96.74 29.33,31.68 7.47,14.91 1.32,27.58 2.18,8.09 36,66.5 24,32 7.5,16 -1.5,10 -11.5,20.5 -21,11.5 -13.5,1.5 -28.5,-3 h -116.5 l -103.01,-1.66 -19.49,-7.84 -85,-89 -22.65,-20.71 -7.12,-1.73 -7.7,0.91 -31.53,15.53 -15.35,8.06 -9.78,1.1 -8.01,-3.89 -8.03,-6.56 -17.33,-49.71 -15,-30 -6.5,-11.12 -7.15,-4.75 -8.62,-1.22 -13.24,4.59 -173.91,57.85" />
  <path
     d="m 4909.05,3548.73 -104.68,106.65 -25.49,16.75 -72.8,27.66 -36.83,7.89 -13.37,0.16 -22.24,-10.43 -9.35,-2.09 -9.98,0.6 -153.75,73.79 -130.5,68 -44.5,22 -49.81,15.07 -55.69,6.93 -49.5,8.5 -92.3,17.37 -26.32,-0.8 -46.31,-6.45 -25.27,-6.07 -22.8,1.46 -50.5,8 -34.5,8.5 -39,6.5 -14,7.5 -38.5,22 -21.5,10.5 h -17 l -22,-11.5 -36,-24.5 -23.5,-28.5 -6,-23 -2,-30.5 -12.5,-30.5 -2.28,-4.52"
     id="path3792"
     style="fill:none;stroke:#114681;stroke-width:5;stroke-linecap:butt;stroke-linejoin:round;stroke-miterlimit:4;stroke-dasharray:none;stroke-opacity:1" />
</svg>
