<?xml version="1.0" encoding="UTF-8" standalone="no"?>
<svg
   xmlns:dc="http://purl.org/dc/elements/1.1/"
   xmlns:cc="http://creativecommons.org/ns#"
   xmlns:rdf="http://www.w3.org/1999/02/22-rdf-syntax-ns#"
   xmlns:svg="http://www.w3.org/2000/svg"
   xmlns="http://www.w3.org/2000/svg"
   xmlns:xlink="http://www.w3.org/1999/xlink"
   version="1.1"
   viewBox="-10 -25 8450 6100"
   width="8450"
   height="6100"
   id="svg2">
  <metadata
     id="metadata8">
    <rdf:RDF>
      <cc:Work
         rdf:about="">
        <dc:format>image/svg+xml</dc:format>
        <dc:type
           rdf:resource="http://purl.org/dc/dcmitype/StillImage" />
        <dc:title></dc:title>
      </cc:Work>
    </rdf:RDF>
  </metadata>
  <defs
     id="defs6" />
  <image
     xlink:href="../basemap/bcnosm.png"
     id="image10"
     height="6076.36"
     width="8608.18"
     y="-26.36"
     x="-100"
     style="display:none" />
  <path
     d="m 5256.35,2483.58 -4.81,14.65 -6.5,19.5 -35.5,53.5 -28,44.5 -0.5,10.5 30,70 5.5,16 17,18 4.5,10.5 2,28 2.5,36 -5.5,35 -9,43 -35,41 -31.5,29.5 -27,16 -37,11 -5.5,12.5 -16,80.5 4,27 66.5,66.5 33,36.5 -1,20.5 -24,26.5 -26.81,29.63 -0.69,10.87 -1,16.5 30,31 10.5,2 20,-7 6,3 64.5,72.5 36.5,38 11,5.5 13.5,-6 26,-16.5 41.5,-35.5 19.5,-16 28,-40.5 0.5,-12.5 -52,-52.5 2.5,-11 17.5,-20 210,-205.5 17,-17.5 47,-15.5 37,-33.5 2.5,-11 -5,-9 -92,-92.5 -6,-10.5 -43.5,-42"
     id="path3842"
     style="fill:none;stroke:#f3b913;stroke-width:5;stroke-linecap:butt;stroke-linejoin:round;stroke-miterlimit:4;stroke-dasharray:none;stroke-opacity:1" />
  <path
     d="m 5145.05,3382.73 -20,-2 -130,-129.5 -4,-18 -12.5,-28.5 -39,-49.5 -10.5,-6 -17.5,-5 -17,1.5 -17.5,8.5 -18.5,15.5 -18,14.5 -19.5,9 -22.5,4 -139.5,-0.5 -11,-5 -16.5,-16 -2.5,-10.5 1,-21.5 5,-21.5 -5,-9.5 -11.5,-15 -6.5,-17.5 -1.5,-14 -7,-9.5 -11,-8 -12,-2.5 -10,4.5 -13.5,8 -14.5,1 -22.5,-0.5 -10.5,-4.5 -15.62,-21.82 -22.88,-15.68 -30,-34.5 -62.5,-61.5 -65.5,-70 -22.5,-31 -34,-63.5 -4,-22.5 -10,-15 -13,-9.5 -25,1.5 -15.5,-1 -7,-10.5 -13.5,-17.5 -9.5,-11 -13.5,-5 -24,-7.5 -9.5,-8.5 -7.5,-10.5 -12,-28 -25,-45 -8.5,-14.5 -22,-19.5 -5,-9 -3,-16.5 3.5,-11.5 8.5,-23.5 13.5,-21 10.5,-23 -1,-12.5 -4,-15 -4,-14.5 -18.5,-18.5 -43,-43.5 -4.5,-12.5 -5,-21.5 -0.5,-19 7.5,-28.5 9.5,-16 88.5,-85.5 6,-9.5 2.5,-10 -0.37,-10.24"
     id="path3784"
     style="fill:none;stroke:#114681;stroke-width:5;stroke-linecap:butt;stroke-linejoin:round;stroke-miterlimit:4;stroke-dasharray:none;stroke-opacity:1" />
  <path
     d="m 4632.05,3176.23 -11.5,-7 -9,-3.5 -12,-1.5 -12,3.5 -27.5,20"
     id="path3788"
     style="fill:none;stroke:#114681;stroke-width:5;stroke-linecap:butt;stroke-linejoin:round;stroke-miterlimit:4;stroke-dasharray:none;stroke-opacity:1" />
  <path
     d="m 4905.55,3144.23 -16.5,-7.5 -28.5,-18 -18,-8.5 -34,-22.5 -9,-12 -26,-72.5"
     id="path3790"
     style="fill:none;stroke:#114681;stroke-width:5;stroke-linecap:butt;stroke-linejoin:round;stroke-miterlimit:4;stroke-dasharray:none;stroke-opacity:1" />
  <text
     x="79.45"
     y="181.96"
     id="text3813"
     xml:space="preserve"
     style="font-style:normal;font-weight:normal;font-size:144px;line-height:125%;font-family:Sans;-inkscape-font-specification:Sans;letter-spacing:0px;word-spacing:0px;fill:#000000;fill-opacity:1;stroke:none"><tspan
       x="79.45"
       y="181.96"
       id="tspan1">1985</tspan></text>
  <path
     d="m 4011.55,3807.23 13,8 23,9 21,1.5 26,-8.5 20,-13 6.5,-8 5.5,-18 14.5,-31.5 10.5,-12 43.5,-26.5 50,-28 36,-22.5 11.5,-8 19.5,-17 30,-26.5 35.5,-20 45,-14.5 36,-24.5 40.5,-14.5 62.5,2 187,3.5 14.5,-7 19,-22 7.5,-10 9,-21 20,-14 10,-5 8.5,-7.5 5,-18 27.5,-24 187,-193 11,-12 42,-13.5 98,-97 -1,-77.5 51.5,-54.5 25.5,-26 62,-59 0,-58.5 -6.5,-10 -67,-8 -29,-4.5 -15.5,-24.5 -10.5,-29.5 -0.16,-21.62 -10.34,-17.38 -10,-6.5 -79,0 -15,-4 -11.5,-2 -9,1.5 -16.5,10.5 -5.5,4.5 -20.59,0"
     id="path3836"
     style="fill:none;stroke:#287dc2;stroke-width:5;stroke-linecap:butt;stroke-linejoin:round;stroke-miterlimit:4;stroke-dasharray:none;stroke-opacity:1" />
  <path
     style="fill:none;stroke:#f3b913;stroke-width:5;stroke-linecap:butt;stroke-linejoin:round;stroke-miterlimit:4;stroke-dasharray:none;stroke-opacity:1"
     id="path5988"
     d="m 5954.22,2472.02 -21.68,20.71 -110,129 -15.5,3.5 -13,4 -36,8.5 -34.5,9.5 -27,3.5 -41.07,26.76 -30.93,11.74 -31,48.5 -28.88,38.25 -4.96,11.69 2.09,9.56 8.08,8.15" />
  <path
     d="m 5181.91,3606.68 180.31,-31.82"
     id="path3906"
     style="fill:none;stroke:#656363;stroke-width:5;stroke-linecap:butt;stroke-linejoin:round;stroke-miterlimit:4;stroke-dasharray:none;stroke-opacity:1" />
  <path
     d="m 5152.21,3550.11 -50.91,67.88 -24.04,21.92"
     id="path3908"
     style="fill:none;stroke:#00674b;stroke-width:5;stroke-linecap:butt;stroke-linejoin:round;stroke-miterlimit:4;stroke-dasharray:none;stroke-opacity:1" />
  <path
     d="m 5077.26,3640.62 58.69,22.63 -21.21,41.01"
     id="path3910"
     style="fill:none;stroke:#000000;stroke-width:5;stroke-linecap:butt;stroke-linejoin:round;stroke-miterlimit:4;stroke-dasharray:none;stroke-opacity:1" />
  <path
     d="m 4572.55,2832.73 139.5,79.5"
     id="path3912"
     style="fill:none;stroke:#bdbcbd;stroke-width:5;stroke-linecap:butt;stroke-linejoin:round;stroke-miterlimit:4;stroke-dasharray:none;stroke-opacity:1" />
  <path
     d="m 4415.55,2943.23 47,56 12.5,14 6,7"
     id="path3914"
     style="fill:none;stroke:#bdbcbd;stroke-width:5;stroke-linecap:butt;stroke-linejoin:round;stroke-miterlimit:4;stroke-dasharray:none;stroke-opacity:1" />
  <text
     x="79.45"
     y="5972.96"
     id="text3916"
     xml:space="preserve"
     style="font-style:normal;font-weight:normal;font-size:144px;line-height:125%;font-family:Sans;-inkscape-font-specification:Sans;letter-spacing:0px;word-spacing:0px;fill:#000000;fill-opacity:1;stroke:none"><tspan
       x="79.45"
       y="5972.96"
       id="tspan2"></tspan></text>
  <path
     style="fill:none;fill-rule:evenodd;stroke:#000000;stroke-width:5;stroke-linecap:butt;stroke-linejoin:round;stroke-opacity:1;stroke-miterlimit:4;stroke-dasharray:none"
     d="M 1505.78,227.89 1333.6,193.95"
     id="path4283" />
  <path
     style="fill:none;fill-rule:evenodd;stroke:#bdbcbd;stroke-width:5;stroke-linecap:butt;stroke-linejoin:round;stroke-opacity:1;stroke-miterlimit:4;stroke-dasharray:none"
     d="m 1312.5,206.5 -39,54.5"
     id="path4285" />
  <path
     style="fill:none;fill-rule:evenodd;stroke:#bdbcbd;stroke-width:5;stroke-linecap:butt;stroke-linejoin:round;stroke-opacity:1;stroke-miterlimit:4;stroke-dasharray:none"
     d="m 1317,204.5 8.5,-3.5 10,-1 11.5,2.5"
     id="path4287" />
  <path
     d="m 5599.07,2377.83 -13.03,2.89 -59.5,21.5 -37.5,-3 -38.5,-9 -16.5,8 -11,11 -11,19 -18.5,32.5 5.5,130 0.5,15.5 -3,8.5 -10.02,14.48 -43.02,40.45 -29.46,15.49 -3.74,11.2 18.23,31.88 20,46.5 5.5,18 1.5,16 0,28.5 -0.5,115.5 1.5,90.5 -1.71,165.72 -13.05,24.08 -66.37,63.43 -39.88,16.28 -169,81.5 -149.5,149 -10.5,2.5 -142,-5.5 -11.5,6.5 -13,29.5 -35,46 -21,18 -22,11 -130.5,-3"
     id="path3865"
     style="fill:none;stroke:#e22739;stroke-width:5;stroke-linecap:butt;stroke-linejoin:round;stroke-miterlimit:4;stroke-dasharray:none;stroke-opacity:1" />
  <path
     style="fill:none;stroke:#3bb255;stroke-width:5;stroke-linecap:butt;stroke-linejoin:round;stroke-miterlimit:4;stroke-dasharray:none;stroke-opacity:1"
     id="path3840"
     d="m 4864.52,2699.13 -4.97,13.1 -28.5,86 -15,41.5 7,58 21,42.5 2,24 4.5,8 21.5,14 11.5,31.5 37,47 15.5,16 16,34 11,20 67,77.5 97,103.5 43,43 1,5.5 -12.5,19.5 1,7.5 36,66.5 24,32 7.5,16 -1.5,10 -11.5,20.5 -21,11.5 -13.5,1.5 -28.5,-3 -116.5,0 -103.01,-1.66 -19.49,-7.84 -85,-89 -25,-23.5 -8.5,0.5 -35.5,17 -15.5,6 -15,5 -7,-2 -21,-60 -15,-30 -9,-14.5 -9,-4.5 -17.5,6.5 -167,55.5" />
  <path
     d="m 4909.05,3548.73 -104.68,106.65 -25.49,16.75 -72.8,27.66 -36.83,7.89 -13.37,0.16 -22.24,-10.43 -9.35,-2.09 -9.98,0.6 -153.75,73.79 -130.5,68 -44.5,22 -49.81,15.07 -55.69,6.93 -49.5,8.5 -97.5,15.5 -90,-10 h -25.5 l -50.5,8 -34.5,8.5 -39,6.5 -14,7.5 -38.5,22 -21.5,10.5 h -17 l -22,-11.5 -36,-24.5 -23.5,-28.5 -6,-23 -2,-30.5 -12.5,-30.5 -2.28,-4.52"
     id="path3792"
     style="fill:none;stroke:#114681;stroke-width:5;stroke-linecap:butt;stroke-linejoin:round;stroke-miterlimit:4;stroke-dasharray:none;stroke-opacity:1" />
</svg>
