<?xml version="1.0" encoding="UTF-8" standalone="no"?>
<svg
   xmlns:dc="http://purl.org/dc/elements/1.1/"
   xmlns:cc="http://creativecommons.org/ns#"
   xmlns:rdf="http://www.w3.org/1999/02/22-rdf-syntax-ns#"
   xmlns:svg="http://www.w3.org/2000/svg"
   xmlns="http://www.w3.org/2000/svg"
   xmlns:xlink="http://www.w3.org/1999/xlink"
   id="svg2"
   height="7850"
   width="12150"
   viewBox="-1150, 0, 12150, 7850"
   version="1.1">
  <metadata
     id="metadata8">
    <rdf:RDF>
      <cc:Work
         rdf:about="">
        <dc:format>image/svg+xml</dc:format>
        <dc:type
           rdf:resource="http://purl.org/dc/dcmitype/StillImage" />
        <dc:title></dc:title>
      </cc:Work>
    </rdf:RDF>
  </metadata>
  <defs
     id="defs6" />
  <image
     xlink:href="../streetmap/shaosm.png"
     style="display:none"
     id="image10"
     height="8080.26"
     width="11254.65"
     y="-187.35"
     x="-27.16" />
  <path
     style="fill:none;stroke:#8cc320;stroke-width:5;stroke-linecap:butt;stroke-linejoin:round;stroke-miterlimit:4;stroke-dasharray:none;stroke-opacity:1"
     id="path3839"
     d="m 4172.14,3024.51 49.31,-15.62 15.93,-1.42 30.62,0.53 74.58,-1.6 48.42,-10.4 34.78,-6.22 39.59,-8.07 29.44,-6.68 30.04,-12 29.62,-12.25 35.54,-17.79 42.62,-22.63 17.8,-11.15 22.59,-16.22 26.75,-20.05 37.02,-11.31 47.07,-21.18 31.59,-6.27 38.26,0.68 29.03,-7.89 84.04,-56.35 60.17,-16.83 44.09,-18.8 53,-20 40.44,-8.19 73.27,-1.8 61.29,11.98 61.19,23.08 44.65,21.44 90.69,36.44 102.47,42.04 117,76 144,92 46.31,32.22 21,20.59 9.63,20.56 14.06,64.63 17.53,72.6 18.53,27.07 20.93,7.62 33.01,6.71 92,7 84,-13 21,3 81.02,32.28 17.22,4.99 19.68,-0.6 89.12,-17.34" />
  <path
     style="fill:none;stroke:#e70012;stroke-width:5;stroke-linecap:butt;stroke-linejoin:round;stroke-miterlimit:4;stroke-dasharray:none;stroke-opacity:1"
     id="path3860"
     d="m 4706.5,2558.83 -14.26,29.05 -5.4,12.68 2.1,12.45 14.58,25.34 14.5,13.39 15.99,3.73 50.1,16.83 74.9,29.62 48.7,24.31 20.33,19.19 18.96,37.58 12,23 31,51 16,29 2.3,10.34 -2.03,10.35 -8.04,9.44 -65.23,29.88 -69,39 -79,34 -63.45,35.07 -93.55,43.93 -17.45,12.84 -12.8,15.59 -2.67,12.65 -0.1,59.95 -5.02,13.19 -40.95,61.79 -66.55,100.17 -6.41,14.74 -18.04,68.09 -10,67 -28.96,311.37 -3.69,55.74 -6.85,44.7 -19.57,35.68 -35.68,29.91 -51.82,25.6 -17.49,10.86 -184.93,204.14 -98,119 -114,132 -15.27,23.12 -45.28,73.93 -56.59,80.0" />
  <path
     style="fill:none;stroke:#000000;stroke-width:5;stroke-linecap:butt;stroke-linejoin:round;stroke-miterlimit:4;stroke-dasharray:none;stroke-opacity:1"
     id="path3864"
     d="m 5153.27,2693.48 20.74,14.25 14.63,5.8 15.84,0.42 14.75,-4.31 23.49,-10.07" />
  <path
     style="fill:none;stroke:#fed700;stroke-width:5;stroke-linecap:butt;stroke-linejoin:round;stroke-miterlimit:4;stroke-dasharray:none;stroke-opacity:1"
     id="path3794"
     d="m 4365.0,4023.0 46,-32 38,-17 72,-23 37,-18 17,-17 8,-22 -2,-25 -19,-36 -12,-71 -17,-49 -14,-17 -68,-58 -35,-26 -35,-39 -32.5,-32.5 -90,-139.5 -10,-31 -59,-175 -0.5,-49.5 6.5,-54.5 -6.5,-24 -67.5,-160 -1,-47.5 30,-89 18,-44.5 31.5,-34 133.5,-88 41.5,-32 40.5,-50 42,-43 27.5,-13.5 36,-10 h 32.5 l 282,126 31,-1.5 42,-25.5 20,-25.5 43.5,-28 43,-31 10,-22 v -45 l -9,-66 1.27,-27.37 1.94,-40.16 -10.2,-65.46 1,-38 9,-23 18,-30 13,-48 3,-57 12,-134 12,-75 8,-118 -0.06,-15.84" />
  <text
     style="font-style:normal;font-weight:normal;font-size:144px;line-height:125%;font-family:Sans;-inkscape-font-specification:Sans;letter-spacing:0px;word-spacing:0px;fill:#000000;fill-opacity:1;stroke:none"
     xml:space="preserve"
     id="text3866"
     y="7747.96"
     x="-1060.55"><tspan
       id="tspan2"
       y="7747.96"
       x="-1060.55"></tspan></text>
  <text
     style="font-style:normal;font-weight:normal;font-size:144px;line-height:125%;font-family:Sans;-inkscape-font-specification:Sans;letter-spacing:0px;word-spacing:0px;fill:#000000;fill-opacity:1;stroke:none"
     xml:space="preserve"
     id="text3870"
     y="206.96"
     x="-1060.55"><tspan
       id="tspan1"
       y="206.96"
       x="-1060.55">2000</tspan></text>
</svg>
