<svg xmlns="http://www.w3.org/2000/svg" height="7850" width="12150" viewBox="-1150, 0, 12150, 7850"><path d="M2898.148 3383.313l-72.135 2.636-73.772-.394-67.253-12.495-24.623 3.308-99.226 51.45-282.978 116.5-211.195 84.436-47.296 17.67-110.702 23.908-32.743 5.198-32.743 14.032-18.71 19.75-54.052 86.795-21.829 22.868-34.302 17.151-39.5 12.993h-29.624l-271.3 9.356-157.477 43.137H1193.3l-74.841-10.395-527.526 1.04-244.793 39.5-65.486-4.158-163.195-32.224-46.776-.52-98.748 13.514-65.486 9.355-34.822 17.15-15.072 12.994-9.875 16.631-7.276 18.191v28.065l23.387 186.583-1.04 25.987-9.874 28.065-12.473 18.19-137.729 104.467-13.513 18.71-6.756 18.71 6.236 52.493 1.56 42.618 22.348 96.67 4.158 29.624-4.158 23.908-14.033 24.427-14.032 15.592-49.895 37.94-35.341 19.75-30.664 19.75-25.467 7.276-173.59 39.5-53.012 6.756-356.015 27.545" fill="none" stroke="#c27666" stroke-width="5" stroke-linejoin="round"/><path d="M2913 2669l44-5 135 11 108-25 150-11 94 25 39 24 154 91 53 18 126 22 174-13 127 16 34-1.5 23 11.5 18.5 19 25.5 5 66-30.5 31.5-16.5 26-4.5 27-35.5 16.5-34 25.5-15 26-9.5 19.5-30 45-38.5 43-23 88-17 30.5-4.5 16.5 8 21.5 35 30.5 30 31.5 14 21.5 46 6.5 27.5-9.217 53.448L4784 2845.5l13 43v72.5l9 24 26.97 28.513 76.848 4.047 18.08 9.855L4943 3047l9 23 21 100 16.5 43.5 11.5 33 24 61.5 30 63.5 8.5 39-8 76 21.5 77 18.818 81.513 13.965 22.05 27.195 33.811 29.4 24.99 31.606 11.76 6.615-1.47 265.338-24.99 110.987-33.81 53.655-19.11 54.391-20.58 160.967-33.076 116.132-.735 19.11 2.205 24.255 8.82 20.58 11.025 13.23 55.86 47.256 96.754 11.204 8.605 16.348.52 130.26-65.453 81.586-38.22 128.627-40.426 58.8-19.11 50.716-5.88 69.09 1.47 44.836-11.025 38.956-14.7 44.835-26.46 19.11-17.64 163.173-80.117 47.04-13.23" fill="none" stroke="#e596c3" stroke-width="5" stroke-linejoin="round"/><path d="M3459.06 4356.31l82.64-53.82 43.442-23.348 174.78-33.34L3821 4221l64.883-24.8 9.688-9.51 4.682-14.717.542-14.418-45.612-190.464-.609-14.668 5.919-14.746 10.667-10.749 73.551-22.856 68.29-32.072 139.259-36.276 46.596-23.76 17.72-6.822 126.517-19.921 105.71-4.78 99.197-28.44 93-28.5 11.5-5 6.5-24.5 3-32-10.5-43.5v-19l10-29.5 44.5-35.5 48.5-23 62.5-26.5 12.5-22.5-5-37.5-38-67-26.38-143.672 8.58-56.114-6.713-46.805L4737 3025.5l-1.513-29.162 19.146-53.96L4757 2908.5l-29.5-72.5-12.705-74.53-4.295-20.97-1.295-37.64 13.218-18L4779.5 2651l33-8.5 54 9.5 50-5.5 71.5-14.5 60.715-5.65 54.669-26.261 53.694-8.343 19.425-7.113 21.545-25.15L5375.5 2470.5l32-13.5 88.5-94.5 101-59 167.5-96 45.5-16.5 102.5-88 45.5-33.5 358.5-44 31 4 68.145 31.458 269.855 2.542 119.5 5.5 197.5-4.5 77.426 8.633 21.627 9.547 10.385 17.387.562 171.933 2 23.5-10.324 34.069" fill="none" stroke="#007b66" stroke-width="5" stroke-linejoin="round"/><path d="M86 1784l48 2 258 72.5 47 23 79 9.5 26-6 24.5-.5 23 12 29 18.5 79 20 34 8 53.5.5 55-5.5 70-2 21 5 29 12 22 9 151 35 25 2 30-4 24-10 17-15 29-31 82-75 33-31 15-24 10-29 75-301 20-60 31-67 20-21 62-49 32-8 24-6 102 10 41 3 27-10 125-66 21-2 22 7 16 14 107 214 39 30 52 19 31 4 25-4 50-17 156-58 41-5 45 9 40 30 37 63 127 190 23 28 34 28 51 30 79 23 124 37 39 25 22 15 33 20 12 21 45 56 37 45 25 15 47 8 54 8h50l20 4 17 17 33 61 22 21 50 27 30 8 56 6 162 39 16 7 1 25 6 16 17 7 119 26 17 18 13 30 54 207 12 43 9 24 24 19 102 73 10 13 31.273 66.86 18.483 25.804L4299 2900l19 20 33 26 14 26 10 38 37.355 103.343-.855 23.657-13.042 20.338-.663 28.29 18.705 61.872 23 30.5 4.838 27.325L4434.5 3352l4 32 9.5 46.5 3 47.5 10.5 27.5 15.5 24.5 6.5 45 8 16.5 30.5 41.5 10 20.5 23.5 37.5 11.5 9.5 76 15.5 57-1.5 15 9.5 11.5 16.5 9 78L4758 3949l12.5 11 14.5 10.5 140.5 14 135.444 41 83.34 60.036 25.24 11.398 124.614-2.819 19.997 12.142 47.365 65.243 20 8 18 3L5523 4135l115.5-39 220-65 81-22.5 388-97.5 46.5-8 28 1s46 9.5 44 10.5 18.5 7.5 18.5 7.5l17.5 19.5 25 80 39 67 6.5 20.5 2 43 9.677 40.536 16.323 47.964 36.5 95 24.5 22 38 12 57-1.5 82.5-5.878 314.293-32.772 195.418-32.223 24.947-12.474 36.9-32.223 71.724-47.815 38.46-12.474" fill="none" stroke="#88192c" stroke-width="5" stroke-linejoin="round"/><path d="M1843 346l-28 20-18 13-41 47-26 30-14 35-10 44v33l2 38 13 39 22 43 110 205 24 44 146 297" fill="none" stroke="#88192c" stroke-width="5" stroke-linejoin="round"/><path d="M2887.395 3393.778l80.468-2.59 44.812-1.59 61.658-2.265 40.213 2.812 100.09 35.563 30.103 5.915 158.26-2.545 33.554 6.325 49.42-.145 23.317 11.495L3541 3448l35 1 32-9 49.684-20.661L3723 3373l48-31 57.842-17.04L3884 3299l20.62-10.852 14.239-1.447 24.74 3.921L4045 3327l40.086 18.023 89.624 12.678 49.395 3.276 27.894-8.607L4286 3335l79-36 69-37 124.267-96.763 36.803-26.16 84.35-50.07 90.023-31.307 51.008.35 33.127-8.922 18.62-1.153 45.58 7.983L4952 3049l106.244-42.04 28.202-2.923 47.014-28.527 8.74-16.898.172-11.365-22.089-47.845L5109 2834l-12-61-27-89-19-51-12.995-70.807 6.041-25.978 15.176-23.834 49.795-46.61L5129 2420l3-31 38-106 33-33 104-109 25-32 145-323 9-21-1-15-35-67-55-108-17.243-41.701-5.119-43.994v-194" fill="none" stroke="#c6add4" stroke-width="5" stroke-linejoin="round"/><path d="M3657.684 3419.339l-31.322 28.684-20.03 39-29.93 30.724-8.72 18.724-1.31 22.68 4.77 28.685L3583 3640l2 39-4 30-9 16-22 22-198 88" fill="none" stroke="#c6add4" stroke-width="5" stroke-linejoin="round"/><path d="M1753.079 6608.005l-11.103-31.174-5.552-26.05-.427-100.78-5.978-28.185-11.103-22.206 5.124-111.03-12.702-85.647 8.282-25.363 21.839-26.243 4.658-21.43L1746 5908l2-74 9-140 8-61 6-89-3-68-1-193-26-173 1-33 3-42 13-108-1-23-12-56-22-149 5-22 15-30 18-17 22-8 198-62 132-8 224-26 47-1 92-1 32-7 27-12 115-90 45-59 30-23 28-13 149-63 36-22 42.145-45.12 95.71-63.795L3148 4080l63-42 115-74 174-26 50-4 39-17 121-81 86-40 142-50 241-53 69-22 27-21 23.325-52.632L4367 3454l30.615-59.87 20.675-17.248 36.068-12.47 27.12-4.795 27.41-3.367 25.872-5.42L4563 3338l59-31 96-36 40.488-12.752L4796 3248l31-9 26-17 16.59-27.17 17-16.513 12.573-4.137 21.777-7.222L4993 3149l40-22 18-6 47.06-6.427L5177 3106l37.488-8.367L5232 3088l13-13 10-16 8-37-1.924-19.009 3.369-25.016 8.692-16.872 27.65-12.95 23.505-14.847L5383 2872l42-21 38-10 33-10 45.12-15.247 21.855 4.367 37.56 17.263L5706 2906l49.633 31.795 31 .53 30.367-8.265 37.99-30.304L5872 2893l56-22 60.328-27.038 68.604-46.776 188.142-99.788 161.116-86.795 160.597-121.097 111.742-95.11 37.42-21.83 40.02-18.19 98.229-35.861 42.617-9.355 58.73-6.757 64.966 3.638 76.4 5.718 95.111.52 37.42-6.757 468.277-108.104" fill="none" stroke="#7acef3" stroke-width="5" stroke-linejoin="round"/><path d="M5702 1398l2 382 6 25 29 68 4 29 4 113-5 20-121 73-24 11-79 29-107 30-33 3-42-7-17-10-35-31-18.855-7.572L5216 2123l-81-4-31.247 3.633-15.385 9.077-5.748 18.121-5.826 35.7-16.813 23.653-24.553 8.124-42.24 8.36-31.53 12.402-35.795 23.752-36.495 41.828L4870 2330l-19 29-1 25 3 41 18 47 15.838 75.06L4901 2615l8 49 19.368 40.248 12.454 47.15L4952 2778l28 51 37 61 10 30 17 68 25 45 17 33 15 58 16 58 14 52 19 49 29 51 31 57 5 23 3 38-8 23-11 33-.65 23.778L5201 3570l13 70 22 120 6 30-6.187 49-13.265 25.735-34.906 38.615-35.572 27.29-71.062 34.198-36.888 19.427-56.426 68.666-13.268 20.577-1.876 22.788 7.319 20.703 15.274 13.125 19.39 7.085 60.28-3.238 23.264 2.95 19.366 13.178 13.6 20.797 43.909 141.168 16.056 34.25 130.3 399.421 47.385 146.42 13.735 93.683 53.922 358.05 8.343 90.105" fill="none" stroke="#0095d8" stroke-width="5" stroke-linejoin="round"/><path d="M3300 191l37 35 17 32 45 105 16 65-8 33-26 28-21 25-17 34-12 53-3 41 16 58 12 30 33 52 51 51 48 58 36 53 72 105 10 26-3 21-35 107 7 27 100 232 12 12 19 2 114-30 120-11 103 1 21 17 3 24 7 41 16 55 47 92 3.855 40 2.675 73.905 9.958 37.463 34.572 68.35 69.975 133.54 12.29 32.402L4274 2234l-15.452 109.52L4252 2443l7 43 11 17 25 7 27 4 23 15 41.94 59.548L4406 2641l13 13 48 29 30 39 26 54 14 21 38 45 8 38 11 39 18 45 5.24 13.542-.7 10.097-9.068 18.547-5.213 34.458.891 25.141 20.782 62.782 8.888 79.718-4.632 75.1 3.692 50.82L4650 3377l43 70 18 64 15.283 42.795L4769 3605l56 48 57.063 43.26 27.352 24.52L4990 3739l16.892.292L5023 3735l30.958-18.632 54.957-36.898L5172 3634l35-8 46-12 32-41 23-20 31-9.325 48-16.675 74-29 33-1 14.095-3.06 24.01-11.126L5560 3481l85 7 228-3 39-7 14-13 12-27 4-23-4-28-21-53-5-17 .223-15.367 22.29-16.937 39.841-25.717 47.445-17.791 55.926 1.042 25.745-7.371L6119 3225l7-14-18.752-103.358" fill="none" stroke="#ed6f01" stroke-width="5" stroke-linejoin="round"/><path d="M2655.697 3473.23l114.848-75.392 19.792-7.093 48.163-.245 73.09-3.795 77.948-2.782 100.51-9.205 20.518-11.513 10.655-25.957-3.683-51.205-15.81-23.61-24.546-18.924-12.29-28.636-7.148-54.955 2.43-63.174 16.24-52.407 27.335-19.052 107.096-25.876 26.465-1.817 50.71 14.136 101.21 5.76L3446 3023l145.561 12.838 75.44 17.162 113 12 57 17 177 47 43.904 2.94 33.863-8.957 30.727-26.83 27.898-57.255L4161 3027l76-22 31 3 77 2 46-14 34.778-6.222 39.59-8.068 29.435-6.675 30.042-12 29.615-12.247L4590 2933l42.615-22.632 17.795-11.145L4673 2883l26.53-21.965 37.24-7.352 47.068-23.23 31.587-6.266 38.26.68 29.027-7.886 84.931-58.057 59.272-15.129L5071 2725l53-20 40.573-11.042 73.137 1.06L5299 2707l62.915 23.078 133.615 57.88L5598 2830l117 76 144 92 46.308 32.223 21 20.59 9.632 20.555L5950 3136l17.53 72.6 18.53 27.068 20.933 7.623L6040 3250l92 7 84-13 21 3 84 35 36 2 116-21 163-39 90-23 30-17 61-44 34-11 48-3 64-1 179.118-12.813 57.99-2.53 53.592-13.923 105.66-26.187 65.42-16.188 54.377 4.222 73.478 22.616 37.385 19.094 23.675 23.018 21.233 48.22 37.57 242.329 10.222 41.362 28.315 48.932 22.35 17.12 36.333 7.402 28.975 2.735L7878 3497l80.23-16.547 263.567-72.4 120.164-47.223 107.04-27.83 125-19 61-10 126-5 81-7 29.999 6 23 13 23 24 64 145 16 20 36 33 144 237 75 123 58 179" fill="none" stroke="#8cc320" stroke-width="5" stroke-linejoin="round"/><path d="M6240 946l110-11 31-3 18 9 12 15 16 70 201 407 8 19-2 18-4 17-16 15-16 6-85-1-23 3-20 15-6 15-4 16v136l-6 105-6 269-7 159-12 82-17 43-34 45-26 34-33 30-77 59-75 54-118 81-86 50-79 33-134 48-101 38-24 11-8 13 1 17 30 79 16 53 6 39-2 30-10 40-44 95-52 96-25 62-23 34-68 49-23 27-11 21v164l3 28 18 94 9 55 50 103 18 41 5 29-16 45-11 14-28 6-54.17 7.042-117.71 7.399-122.77 3.22-21.284-5.466-80.748-57.948-50.003-15.17" fill="none" stroke="#d30069" stroke-width="5" stroke-linejoin="round"/><path d="M4283.77 327.985L4319 446l45.422 198.642 16.253 94.279 7.53 14.78L4410 857l15 168 6 28 12 44 21 60 89 231 43 115 6 31 8 192 3 71 21 125 11 76 8 97 12 55 61 102 19 47-3.842 75.188L4747 2411l-1.53 56.685-6.855 25.7-46.377 94.494-5.4 12.676 2.098 12.453 14.577 24.385 13.987 12.712L4734 2652l63 28 62 20 56 26 16 16 16 41 12 23 31 51 16 29 4 13-8 15-69 32-69 39-79 34-63.452 35.068L4628 3098l-17.452 12.838-12.803 15.59-2.675 12.65-.095 59.947-5.023 13.188L4549 3274l-68 105-23 78-10 67-28.958 311.368-3.692 55.742-6.855 44.7-19.575 35.68-35.678 29.912-63.035 28.621L4099 4242l-98 119-114 132-21 30-96 148" fill="none" stroke="#e70012" stroke-width="5" stroke-linejoin="round"/><path d="M3774.5 4655l-30.5 44-4 26-2 38 6 22 144 321 95 212 87 248 44 159 28 61 2 15v36l16 47 78 228-7 35-14 12-659 200" fill="none" stroke="#934c9a" stroke-width="5" stroke-linejoin="round"/><path d="M5153.265 2693.479l20.739 14.25 14.627 5.803 15.843.42 14.754-4.306 23.494-10.068" fill="none" stroke="#000" stroke-width="5" stroke-linejoin="round"/><path d="M6033.451 3263.22l159.55 14.28 46.5 19 31 27 23 25.5 20 34 47 213 23 93.5 60 159.5 31.5 59 14.5 38 29 97.5L6565 4214l32.5 87.5 20.5 53.5 42.5 146 17.5 85.5 34.5 295.5 2.5 90.5 24 166 52 251 41 143.5 13.5 46 21 37 24.5 22.5 28.5 19.5 39 14.5 190.5 9 159.5-29L7431 5612l27-1.5 385-19 433.5 13 37.5-9.5 66.5-35.5 42.5-9 323-14.5L8877 5551.5l195.5-2 35 15.5 18.5 18.5 14.5 29.5 2.5 22v446l2 369.5.127 66.545 2.989 30.747 13.239 34.163 14.519 22.206 24.341 24.342 27.331 19.216 19.217 8.541 670.878 342.486 460.348 233.163 36.726 27.758 521.415 528.674" fill="none" stroke="#2cd5c4" stroke-width="5" stroke-linejoin="round"/><path d="M5644 3120l12.39-25.12L5682 3044l23-51 4-24-5-29-23.53-56.385-20.94-19.41L5611 2832l-15-25-56.777-119.18-17.53-149.35-10.308-28.205-9.222-25.53L5438 2382l-26.512-20.752-26.35-9.505-30.273-3.59-22.103 3.41-195.932 41.443L5105 2411l-36 32-32 26-38 21-25 17-42 26-19 24-46 28-33 1-282-126-33 1-37 11-22 11-42 43-42 51-41 31-132 88-30 33-17 41-30 90 1 46 66 159 7 26-6 59v44l60 177 9 28 79.595 123.01 13.918 14.093 34.495 28.922 24.642 3.403 41.128-3.368L4515 3543l31-27 27-25 113-50 120-55 38-27 26-18 33-15 82-21 36-12 61-13h41l23-5 17-9 86-77 19.325-18.282 37.128-21.795 20.282-13.65 45.538-41.503 17.418-9.518 23.334 5.638L5460 3119l33 11 45 27 46 15 32-1 14-17 21-47" fill="none" stroke="#471f82" stroke-width="5" stroke-linejoin="round"/><path d="M4365 4023l46-32 38-17 72-23 37-18 17-17 8-22-2-25-19-36-12-71-17-49-14-17-68-58-35-26-35-39-32.5-32.5-90-139.5-10-31-59-175-.5-49.5 6.5-54.5-6.5-24-67.5-160-1-47.5 30-89 18-44.5 31.5-34 133.5-88 41.5-32 40.5-50 42-43 27.5-13.5 36-10h32.5l282 126 31-1.5 42-25.5 20-25.5 43.5-28 43-31 10-22v-45l-9-66-1-28 6-39-12-66 1-38 9-23 18-30 13-48 3-57 12-134 12-75 8-118-1-258 2-22 11-18 136-206 54-102 22-54v-35l-8-27-87-239-23-53-21-76-71-132-83-158-50-143-18.5-35-22.5-23.5-22-10-23.5-3-29.5 8-114.5 23.5-82.609 18.687-27.86-3.857-46.576-22.03-99.455-7.3" fill="none" stroke="#fed700" stroke-width="5" stroke-linejoin="round"/><path d="M4238 6112l28.463 73.825-2.08 19.23-6.756 27.026 4.678 22.868 59.769 129.933 41.578 68.084 34.302 92.512 100.828 268.18 103.426 394.476 34.822 109.143 15.592 72.242 7.796 18.19 12.993 14.034 15.592 12.993 27.026 5.717 18.19-1.56 81.078-22.867 235.958-6.237 72.762-24.947h14.552l18.19 7.796 16.632 21.309 27.026 112.261 12.474 38.98 19.75 107.584" fill="none" stroke="#934c9a" stroke-width="5" stroke-linejoin="round"/><path d="M5447.809 5411.427l1.584 22.662 3.093 66.732 3.638 9.355 15.592 3.638 179.307-14.033 8.835 9.875 24.428 91.993-.52 99.788 7.796 93.551 25.467 172.55-4.158 7.277-11.434 3.638-100.308-4.678" fill="none" stroke="#b7b7b7" stroke-width="5" stroke-linejoin="round"/><text style="line-height:125%;-inkscape-font-specification:Sans" y="7747.9609" x="-1060.5469" font-weight="400" font-size="144px" font-family="Sans" letter-spacing="0" word-spacing="0"/><text style="line-height:125%;-inkscape-font-specification:Sans" y="206.96118" x="-1060.5469" font-weight="400" font-size="144px" font-family="Sans" letter-spacing="0" word-spacing="0"><tspan y="206.96118" x="-1060.5469">2020</tspan></text></svg>