<svg xmlns="http://www.w3.org/2000/svg" height="3550" width="1900"><path d="m114.5 2536.59.48.5 14 1 12.5-2.5 9-10 39.5-80.5 8.5-8.02.5-5.5 32.5-16.02.5-66.5 364.5 29 207 75 182-21 49-2 82 19 45.5 27.5 12-.5 178-84.5 17-2 21 3 14.51.37.5 38.5 26.5 25 27 35.5" style="opacity:1;fill:none;fill-opacity:1;fill-rule:nonzero;stroke:#f89828;stroke-width:5;stroke-linecap:butt;stroke-linejoin:round;stroke-miterlimit:4;stroke-dasharray:none;stroke-opacity:1"/><path d="m514.6.12.5 24 81 219.5L706.5 539l25.55.10.5 27.53.29.5-.5 67 5 26 45 171.5 4 17-8.5 30.5-17 22-30.5 18-172.5 71.5L555 1080l-7 16-4 22-17 60.5-2.01.5 4 133 3.5 37.5 7.5 14.5 3.5 38 43 67.5 75 88 8 14-1 5.5-4.5 15-2.5 5-54.5 54.5-25.5 41.5-36.5 88-4 17-5 184 10.5 56.5-0.54.5-15.5 211-23.5 222 2 10.58.227.5 11 20 117 161.5 11.5 17 6 17.53.337.5 16 13 28.51.13.5.5120.5 4.5 16.5 5.5 14 14 28 33 32 36.5" style="opacity:1;fill:none;fill-opacity:1;fill-rule:nonzero;stroke:#e30964;stroke-width:5;stroke-linecap:butt;stroke-linejoin:round;stroke-miterlimit:4;stroke-dasharray:none;stroke-opacity:1"/><text style="font-style:normal;font-weight:400;font-size:144px;line-height:125%;font-family:Sans;-inkscape-font-specification:Sans;letter-spacing:0;word-spacing:0;fill:#000;fill-opacity:1;stroke:none" xml:space="preserve" y="206.96" x="89.45"><tspan y="206.96" x="89.45">2015</tspan></text></svg>