<svg xmlns="http://www.w3.org/2000/svg" width="3200" height="3900" viewBox="-850 -1450 3200 3900"><path d="m-729.48 869.45 134.43-104.15 193.61-140.39 24.77-8.26 41.29-6.42 41.29-1.84 522.57-4.59 19.27 5.05 183.06 94.05 18.35 3.21 538.63-9.63 95.89-50.01 15.14-3.21 606.07-8.26 243.16 11.01" style="opacity:1;fill:none;fill-opacity:1;fill-rule:nonzero;stroke:#0300fd;stroke-width:5;stroke-linecap:butt;stroke-linejoin:round;stroke-miterlimit:4;stroke-dasharray:none;stroke-opacity:1"/><path style="opacity:1;fill:none;fill-opacity:1;fill-rule:nonzero;stroke:#a6536f;stroke-width:5;stroke-linecap:butt;stroke-linejoin:round;stroke-miterlimit:4;stroke-dasharray:none;stroke-opacity:1" d="m785.86 222.34-23.14-.22-10.36-2.86-20.71-.66-7.71.44-13.44 9.69-65.44 52.44-14.54 19.17-11.46 17.85-21.59 39.66-188.39 371.27-56.19 110.61-11.68 15.64-146.53 159.97-28.64 36.8-28.42 34.59-4.19 12.56 2.2 40.1 5.95 13.44 146.53 218.36 9.47 8.81 39.66 24.24 10.36 2.2 575.75-6.61 15.86 1.32 104.66-0.88.98-3.53 529.03-7.49 14.1-5.07 10.36-8.59 28.64-30.85 11.02-3.08 54.86-7.27 10.14 1.98 29.53 7.49 12.12-1.32 19.83-7.05 9.92-0.440.755.73 101.8 55.75 20.27 18.73 115.24 116.56 16.97 24.02 96.73 169.66 39.44 103.56.4411.9-3.53 23.8-6.83 13.44-32.61 37.68-64.34 83.95-13.88 17.41-19.61 17.85-5.95 17.63-3.08 14.1 6.39 41.86 4.85 9.92 14.32 10.58 20.93 8.37 27.54 29.08 53.54 57.51 5.73 20.27 9.92 75.58v18.95"/><path style="opacity:1;fill:none;fill-opacity:1;fill-rule:nonzero;stroke:#388b39;stroke-width:5;stroke-linecap:butt;stroke-linejoin:round;stroke-miterlimit:4;stroke-dasharray:none;stroke-opacity:1" d="m805.82 151.55 181.45-3.1 28.36 2.49 12.46 9.35 6.86 7.48 8.41 14.96 11.53 4.36 35.21-0.620.962.18 6.86 6.54 9.66 16.52 5.61 28.36 6.54 49.86 7.17 15.58 14.65 22.44 47.36 61.07 12.15 10.91 42.38 14.96 10.91 8.1 9.04 12.46 3.12 17.14.6269.8-5.61 14.33-12.15 17.45-4.05 17.45 12.46 839.16 6.23 454.01 4.99 30.23.9375.72"/><text x="-760.55" y="-1243.04" xml:space="preserve" style="font-style:normal;font-weight:400;font-size:144px;line-height:125%;font-family:Sans;-inkscape-font-specification:Sans;letter-spacing:0;word-spacing:0;fill:#000;fill-opacity:1;stroke:none"><tspan x="-760.55" y="-1243.04">2020</tspan></text><path d="m855.65 2054.06-10.55-108.73v-38.08l-3.21-273.44-2.75-81.21-9.63-637.27-4.13-218.39-6.42-444.57-2.75-11.47-18.35-28.45-3.21-11.47-.46-17.89 4.59-14.22 10.09-29.36 8.72-25.69.92-485.41" style="opacity:1;fill:none;fill-opacity:1;fill-rule:nonzero;stroke:#d90714;stroke-width:5;stroke-linecap:butt;stroke-linejoin:round;stroke-miterlimit:4;stroke-dasharray:none;stroke-opacity:1"/><path d="m822.62-390.4 61.94-1.84 12.39-4.13 9.63-10.09 3.67-8.72-1.38-36.7-4.13-9.18-26.61-36.24-11.01-38.54-.46-28.45 4.13-21.56 17.43-74.78 3.67-43.13 21.1-64.69 15.14-25.69 11.01-9.18 18.35-5.05 472.56 2.29 17.89-2.75 19.73-11.47 13.31-14.22 5.96-14.68.92-17.89-1.38-137.18.46-117.45 2.75-9.63 9.63-8.72 7.8-2.29h214.26l16.98-5.96 10.09-9.18 14.68-19.27 51.84-81.21 27.99-19.73 19.27-38.54" style="opacity:1;fill:none;fill-opacity:1;fill-rule:nonzero;stroke:#12bdc4;stroke-width:5;stroke-linecap:butt;stroke-linejoin:round;stroke-miterlimit:4;stroke-dasharray:none;stroke-opacity:1"/></svg>