<svg xmlns="http://www.w3.org/2000/svg" height="1850" width="2700"><path d="M434.75 260.25L398 300.75l-16 18.75-6.5 17.25-.25 13.75 4.25 18 26.25 50-.25 4.5 3.5 5.5 4 1.25 17.25-1.5 8.5 6.25 18 28.75 13.25 22.5 1.25 7L465.5 508l2.875 20.75" fill="none" stroke="#f79727" stroke-width="5" stroke-linejoin="round"/><path d="M763.5 490.25L722 522l-3.75 6.75 3 69.5-.75 9-1.5 8.25-3.5 4.25-7 5.75-17 3-37 4.25-21.5 2.5-17.75 6.25-11.75 7.25-22 27.5m0 0l-4.25 10.5 8 58.25L532 875l-4.436 10.74" fill="none" stroke="#0077c0" stroke-width="5" stroke-linejoin="round"/><path d="M361.125 824.875L367.75 813l6-6.25 25.875-59.125L421.75 696.5l5.25-5 16.25-3.75 6.5-6 14-35.25 5.5-115.375 7.5-10.625 66.25-.25 207.25-26.75 93.784-10.747 409.746 108.295" fill="none" stroke="#ea4498" stroke-width="5" stroke-linejoin="round"/><text style="line-height:125%;-inkscape-font-specification:Sans" y="206.96106" x="89.453064" font-weight="400" font-size="143.99993896px" font-family="Sans" letter-spacing="0" word-spacing="0"><tspan y="206.96106" x="89.453064">1985</tspan></text><path d="M360.801 654.636l-104.475 41.896M310.42 615.922l37.653 32.35 7.071 3.712" fill="#786721" stroke="#89c650" stroke-width="5" stroke-linejoin="round"/></svg>