<svg xmlns="http://www.w3.org/2000/svg" width="3200" height="3500"><path d="M1755.5 2378.5l2.5 19.5-1.5 15.5-8 12.5-51 19-34.5 6-18 10.5-16.5 45-29 117-13.5 19v28.5l-100.5 127-11.5 58 3.5 10.5 62 33" fill="none" stroke="#e4011f" stroke-width="5" stroke-linejoin="round"/><path d="M1529.326 2087.753L1509 2160.5l.5 9.5 7 9.5 41.5 17 26.5 7 47 5.5 7 5 19 31" fill="none" stroke="#dae01c" stroke-width="5" stroke-linejoin="round"/><path d="M1658.207 2237.222l61.293 87.028 39.75 60 48.25 49.25 91 99 15.5 19.5 8.5 20.5 4.5 21 22.5 50.5-6 54.5 35 97 1 19-1.5 31.5-20.5 52.5v25l9 34.5 11 35.5 9.5 45 13.5 46 2.5 33.5-.5 61-20 62-48 130.5-6 23" fill="none" stroke="#e4011f" stroke-width="5" stroke-linejoin="round"/><path d="M964.5 2384.5l38-76 79.5-99.5 15-11.5 18-3.5 127 4.5 207.5 5 30-11.5 21-17.5 42-151.5 14-8 11.5-1 40.5 9 106 27.5 142 42 63.5 12.5 81.5 1 464 12 23.5-2.5 30.5-16.5 19.5-22 33-47 19.5-24.5 24-9.5 103.5-28.5" fill="none" stroke="#0070bc" stroke-width="5" stroke-linejoin="round"/><path d="M643 160l76 64 13.5 13 7 12 6 20.5 13 16.5 12.5 12 38.5 10.5 12.5 15 10 20 1 25.5 2.5 22 6 98 2 157.5-2 22.5-17 38.5-.5 19 5 14.5 44 85.5 14 12.5 17.5 5.5 19-4.5 16-12 19.5-31 138.5-117.5 40.5-24 51-20.5 52.5-9 25-3.5 20 4.5 41 26.5L1361 683l43.5 58.5 10 24 12 78 12 24L1455 880l111 24 13.5 13.5 134.5 212 4 21 6 34.5 10 24 24.5 55 28 94.5v24l-6.5 13.5-19.5 24.5-4 18.5-16.5 73-7.5 18-41.5 86-17 139 2 19 9 30.5 9 25 .5 17.5-5 123.5-38.5 58-30.5 123.5 1.5 23.5 16 29 22 35" fill="none" stroke="#e4011f" stroke-width="5" stroke-linejoin="round"/><path d="M1453 639l-51.5-.5-17 6L1373 655l-6.5 16.5 1.5 13 39.5 52.5 11.5 28 9.5 56.5" fill="none" stroke="#f4a5a8" stroke-width="5" stroke-linejoin="round"/><path d="M1998.5 3121l-1 60-9.5 22-18.5 16-19.5 8.5-20 2-18-6-44.5-31.5-23.5-5-17.5-13" fill="none" stroke="#dae01c" stroke-width="5" stroke-linejoin="round"/><path d="M2522.25 2762.484l-25.456 16.97-19.799 2.829-82.731-16.264-55.155.708-40.305 7.778-29.698 13.435-19.8-2.121-14.849-4.95-10.606-23.335-22.628-13.435-5.656-29.698 9.899-14.142-8.485-32.527 7.07-17.678 16.264-10.607 11.314-19.091 12.728-28.992 2.828-26.163.707-74.246-6.363-14.142-99.703-103.238-14.849-4.242-109.601-4.95-6.364-6.364 5.656-293.45 5.49-260.775" fill="none" stroke="#c38c32" stroke-width="5" stroke-linejoin="round"/><text x="89.453125" y="206.96094" style="line-height:125%;-inkscape-font-specification:Sans" font-size="144px" font-weight="400" letter-spacing="0" word-spacing="0" font-family="Sans"><tspan x="89.453125" y="206.96094">2005</tspan></text></svg>