<?xml version="1.0" encoding="UTF-8" standalone="no"?>
<!-- Created with Inkscape (http://www.inkscape.org/) -->

<svg
   xmlns:dc="http://purl.org/dc/elements/1.1/"
   xmlns:cc="http://creativecommons.org/ns#"
   xmlns:rdf="http://www.w3.org/1999/02/22-rdf-syntax-ns#"
   xmlns:svg="http://www.w3.org/2000/svg"
   xmlns="http://www.w3.org/2000/svg"
   xmlns:xlink="http://www.w3.org/1999/xlink"
   version="1.1"
   width="2625"
   height="2625"
   id="svg2">
  <metadata
     id="metadata3634">
    <rdf:RDF>
      <cc:Work
         rdf:about="">
        <dc:format>image/svg+xml</dc:format>
        <dc:type
           rdf:resource="http://purl.org/dc/dcmitype/StillImage" />
        <dc:title></dc:title>
      </cc:Work>
    </rdf:RDF>
  </metadata>
  <defs
     id="defs6">
    <linearGradient
       id="linearGradient29158">
      <stop
         id="stop29160"
         style="stop-color:#6699cc;stop-opacity:1"
         offset="0" />
      <stop
         id="stop29162"
         style="stop-color:#6699cc;stop-opacity:0.41237113"
         offset="1" />
    </linearGradient>
  </defs>
  <image
     xlink:href="../streetmap/parosm.png"
     style="display:none"
     id="image12"
     height="2665.8462"
     width="2888"
     y="-40.84639"
     x="-168" />
  <path
     d="m 469.49998,1541.5001 3.5,-14 10.5,-18.5 4.5,-12 2.5,-21 4.5,-17.5 7.49999,-18 11.5,-15 18,-11.5 41.5,-13 18,-5 8.5,-10 L 605,1372 l 1.5,-13 -5.5,-20 -9.5,-20.5 -3,-23.5 3.5,-26 5,-19 27,-52 26.5,-49.5 22.5,-27.5 17.5,-15.5 33.5,-27 109,-90 46,-34 31,-9.5 39,-7.5 24,-3 27,0.5 13,4 21.5,14.5 28.5,40 29.5,50 30,66"
     id="path3619"
     style="fill:none;stroke:#7082c0;stroke-width:5;stroke-linecap:butt;stroke-linejoin:round;stroke-miterlimit:4;stroke-opacity:1;stroke-dasharray:none" />
  <text
     x="89.453133"
     y="2522.9609"
     id="text2847-0"
     xml:space="preserve"
     style="font-size:143.99993896px;font-style:normal;font-weight:normal;fill:#000000;fill-opacity:1;stroke:none;font-family:Sans;-inkscape-font-specification:Sans"><tspan
       x="89.453133"
       y="2522.9609"
       id="tspan2">1875</tspan></text>
  <text
     x="89.453178"
     y="206.96085"
     id="text2847"
     xml:space="preserve"
     style="font-size:143.99993896px;font-style:normal;font-weight:normal;fill:#000000;fill-opacity:1;stroke:none;font-family:Sans;-inkscape-font-specification:Sans"><tspan
       x="89.453178"
       y="206.96085"
       id="tspan1">1875</tspan></text>
</svg>
