<?xml version="1.0" encoding="UTF-8" standalone="no"?>
<svg
   xmlns:dc="http://purl.org/dc/elements/1.1/"
   xmlns:cc="http://creativecommons.org/ns#"
   xmlns:rdf="http://www.w3.org/1999/02/22-rdf-syntax-ns#"
   xmlns:svg="http://www.w3.org/2000/svg"
   xmlns="http://www.w3.org/2000/svg"
   xmlns:xlink="http://www.w3.org/1999/xlink"
   version="1.1"
   width="8050"
   viewBox="650, -75, 8050, 8500"
   height="8500"
   id="svg2">
  <metadata
     id="metadata44">
    <rdf:RDF>
      <cc:Work
         rdf:about="">
        <dc:format>image/svg+xml</dc:format>
        <dc:type
           rdf:resource="http://purl.org/dc/dcmitype/StillImage" />
        <dc:title></dc:title>
      </cc:Work>
    </rdf:RDF>
  </metadata>
  <defs
     id="defs6">
    <linearGradient
       id="linearGradient29158">
      <stop
         id="stop29160"
         style="stop-color:#6699cc;stop-opacity:1"
         offset="0" />
      <stop
         id="stop29162"
         style="stop-color:#6699cc;stop-opacity:0.41237113"
         offset="1" />
    </linearGradient>
  </defs>
  <image
     xlink:href=".././../streetmap/parosm.png"
     id="image12"
     height="6886.769"
     width="7997.5381"
     y="263.23096"
     x="666.13562"
     style="display:none" />
  <text
     x="739.453125"
     y="131.96103"
     id="text2847"
     xml:space="preserve"
     style="font-style:normal;font-weight:normal;font-size:143.99993896px;font-family:Sans;-inkscape-font-specification:Sans;fill:#000000;fill-opacity:1;stroke:none"><tspan
       x="739.453125"
       y="131.96103"
       id="tspan1">1880</tspan></text>
  <text
     x="739.453125"
     y="8322.9609"
     id="text2847-0"
     xml:space="preserve"
     style="font-style:normal;font-weight:normal;font-size:143.99993896px;font-family:Sans;-inkscape-font-specification:Sans;fill:#000000;fill-opacity:1;stroke:none"><tspan
       x="739.453125"
       y="8322.9609"
       id="tspan2">1880</tspan></text>
  <path
     d="m 3956.0206,2968.654 -30,-66 -29.5,-50.0001 -28.5,-40 -22.25,-14.5"
     id="path3619-0"
     style="fill:none;stroke:#7082c0;stroke-width:5;stroke-linecap:butt;stroke-linejoin:round;stroke-miterlimit:4;stroke-dasharray:none;stroke-opacity:1" />
  <path
     style="fill:none;stroke:#7082c0;stroke-width:5;stroke-linecap:butt;stroke-linejoin:round;stroke-miterlimit:4;stroke-dasharray:none;stroke-opacity:1"
     id="path3619"
     d="m 3847.4389,2798.4661 -28.4659,-5.3557 -20.084,1.3389 -52.5531,9.0378 -33.6579,10.0775 -46.1575,34.0894 -109,90 -33.5,27 -17.5,15.5 -22.5,27.5 -26.5,49.5 -27,52 -5,19 -3.5,26 3,23.5 9.5,20.5 5.5,20 -1.5,13 -6.1679,13.9735 -12.3321,11.0265 L 3368,3273 l -11,6.5 -17,15.5 -10,22.5 -6,18 -2,12 -3.5,23.5 -9.5,15.5 -7.5,16.5" />
</svg>
