<?xml version="1.0" encoding="UTF-8" standalone="no"?>
<!-- Created with Inkscape (http://www.inkscape.org/) -->

<svg
   xmlns:dc="http://purl.org/dc/elements/1.1/"
   xmlns:cc="http://creativecommons.org/ns#"
   xmlns:rdf="http://www.w3.org/1999/02/22-rdf-syntax-ns#"
   xmlns:svg="http://www.w3.org/2000/svg"
   xmlns="http://www.w3.org/2000/svg"
   xmlns:xlink="http://www.w3.org/1999/xlink"
   version="1.1"
   width="5061"
   height="3711.3999"
   id="svg2">
  <metadata
     id="metadata8">
    <rdf:RDF>
      <cc:Work
         rdf:about="">
        <dc:format>image/svg+xml</dc:format>
        <dc:type
           rdf:resource="http://purl.org/dc/dcmitype/StillImage" />
        <dc:title></dc:title>
      </cc:Work>
    </rdf:RDF>
  </metadata>
  <defs
     id="defs6" />
  <image
     xlink:href="../streetmap/sinosm.png"
     style="display:none"
     id="image10"
     height="3711.3999"
     width="5061"
     y="0"
     x="0" />
  <path
     d="m 2409.5,3317.8999 37.5,40.5 -4.5,12 -15.5,14.5 5,10.5 28.5,26.5 3,14.5 -14.5,3.5 -25.5,13.5 -23,-14 -20,-14.5 -24,-24.5 -10.5,-31.5 -10.5,-29 -8.5,-13 -13,-12 -22.5,0.5 -10,9.5 -14.5,-0.5 -22.5,-9 -44,-36 -5.5,-4.5 0.5,-3.5 6,-1 12.5,13 10,0 21.5,-6 16.5,-3.5 17.5,-4 62.5,6 35.5,17.5 z"
     id="path3920"
     style="fill:none;stroke:#df4174;stroke-width:5;stroke-linecap:butt;stroke-linejoin:round;stroke-miterlimit:4;stroke-opacity:1;stroke-dasharray:none" />
  <path
     d="M 583.25835,2053.7095 617,2041.8999 l 39.5,-21.5 157,-58 41,-9 23.5,-1 46.5,12 36,-1 20.5,8 30,20 116,92.5 38,75 19.5,11 78.5,38.5 41,-1 50,16 44.5,10 18.5,14 12.5,21.5 18,43 47.5,68.5 22,49 13,16 19.5,12.5 21.5,3 101.5,-11 18.5,4.5 27,14.5 82.5,50 33.5,4.5 97,12 20,11 161.5,144 14,21.5 18,30.5 26,23 18.5,10 87,15 22.5,9.5 27,12.5 24.5,3 38,5 34.5,27.5 40.5,9.5 90.5,2 13,13.5 10,12.5 20,16 44.5,28.5 17,9 17,18.5 17,30 12.5,10.5 20.5,4 24,0 19.5,-7.5 20,-22 38,-63.5 5,-10.5 4,-67 3.5,-84 23.5,-51.5 17,-36 36,-42 25.5,-32 46.5,-36.5 46,-44.5 57.5,-17.5 33.5,-14.5 80,-49.5 23.5,-16.5 44,-11 225,-36.5 15,0.5 130,-25 27.5,-1 18.5,3 19,-1 92,-22.5 22.5,-1 42.5,1.5 50,-11.5 42.5,-15 116,-18 124,-15.5 24.5,-4.5 79,-29 45.5,-16 38.5784,-20.0171"
     id="path3778"
     style="fill:none;stroke:#00954b;stroke-width:5;stroke-linecap:butt;stroke-linejoin:round;stroke-miterlimit:4;stroke-opacity:1;stroke-dasharray:none" />
  <path
     d="m 4382,2185.3999 21.5,-20 19.5,-12.5 13.5,-17 8,-23 3,-29.5 -15,-62 -46.5,-56.5 -124,-152 -12,-17.5 -4,-22.5 1,-13.5 29,-91.5 27.5,-45 14,-37 18,-73"
     id="path3780"
     style="fill:none;stroke:#00954b;stroke-width:5;stroke-linecap:butt;stroke-linejoin:round;stroke-miterlimit:4;stroke-opacity:1;stroke-dasharray:none" />
  <path
     d="m 2881.5,3013.8999 -12,-44 -26,-46 -7,-25 3.5,-55.5 3.5,-96.5 -22.5,-38 -32.5,-32.5 -46,-12.5 -62.5,-16.5 -47.5,-6.5 -52,-32 -34,-23 -1,-11 6,-15.5 68.5,-87.5 16.5,-27.5 39.5,-35 31,-43.5 17.5,-36.5 18,-83.5 24,-117 3.5,-94 3,-128.5 8.5,-57.5 25.5,-61 25.5,-42 25,-40 1.5,-18.5 -0.5,-14 -7,-19 -61.5,-112.5 -5,-27 -10,-77 -7.5,-13 -25,-29 -28.5,-31 -37,-90 -11.5,-16 -32,-25 -124,-78 -18,-21.5 -12.5,-24.5 -10,-41.5 0.5,-34 19,-48.5 1,-35.5 10.5,-21 12.5,-13 62.5,-127.5 5.2132,-147.70841"
     id="path3782"
     style="fill:none;stroke:#db220d;stroke-width:5;stroke-linecap:butt;stroke-linejoin:round;stroke-miterlimit:4;stroke-opacity:1;stroke-dasharray:none" />
  <path
     d="m 2341.5841,3082.4284 -28.6378,241.477"
     id="path3786"
     style="fill:none;stroke:#000000;stroke-width:5;stroke-linecap:butt;stroke-linejoin:round;stroke-miterlimit:4;stroke-opacity:1;stroke-dasharray:none" />
  <path
     d="m 4943.5,1692.3999 -22.5,52.5 12.5,-32 8,-3 29.5,14 4.5,6 -10,21 18.5,-42"
     id="path3796"
     style="fill:none;stroke:#fbbf16;stroke-width:5;stroke-linecap:butt;stroke-linejoin:miter;stroke-miterlimit:4;stroke-opacity:1;stroke-dasharray:none" />
  <text
     x="89.453178"
     y="206.96074"
     id="text3798"
     xml:space="preserve"
     style="font-size:143.99993896px;font-style:normal;font-weight:normal;line-height:125%;letter-spacing:0px;word-spacing:0px;fill:#000000;fill-opacity:1;stroke:none;font-family:Sans;-inkscape-font-specification:Sans"><tspan
       x="89.453178"
       y="206.96074"
       id="tspan1">1990</tspan></text>
  <text
     x="89.453125"
     y="3609.3608"
     id="text3802"
     xml:space="preserve"
     style="font-size:144px;font-style:normal;font-weight:normal;line-height:125%;letter-spacing:0px;word-spacing:0px;fill:#000000;fill-opacity:1;stroke:none;font-family:Sans;-inkscape-font-specification:Sans"><tspan
       x="89.453125"
       y="3609.3608"
       id="tspan2"></tspan></text>
  <path
     d="m 1185,1318.3999 0,21.5 2,30 -12.5,59.5 1,33 12,46 19,28 77.5,70 12.5,22 3.5,41 4.5,157.5 -2.5,17.5 -13,15.5 -129,173 -22.5,36 -2.5,18 1,13.5"
     id="path4509"
     style="fill:none;stroke:#00954b;stroke-width:5;stroke-linecap:butt;stroke-linejoin:round;stroke-miterlimit:4;stroke-opacity:1;stroke-dasharray:none" />
</svg>
