<svg xmlns="http://www.w3.org/2000/svg" width="10200" height="8600"><path d="m3923.68 4094.77-5-7-43-49-42-37-47-45-40-48.5-32-57-16.5-40-49.5-133-6.5-28.5 2-28 8.5-25.5h.5l20-21.5 70.58-77.53 4-5.49 8.57-10.43 37.19-12.63" style="fill:none;stroke:#f60;stroke-width:5;stroke-linecap:butt;stroke-linejoin:round;stroke-miterlimit:4;stroke-dasharray:none;stroke-opacity:1"/><text x="89.45" y="206.96" xml:space="preserve" style="font-style:normal;font-weight:400;font-size:144px;line-height:180px;font-family:Sans;-inkscape-font-specification:Sans;letter-spacing:0;word-spacing:0;fill:#000;fill-opacity:1;stroke:none"><tspan x="89.45" y="206.96" style="line-height:180px">1885</tspan></text><text x="89.45" y="8497.96" xml:space="preserve" style="font-style:normal;font-weight:400;font-size:144px;line-height:180px;font-family:Sans;-inkscape-font-specification:Sans;letter-spacing:0;word-spacing:0;fill:#000;fill-opacity:1;stroke:none"/><path style="fill:none;stroke:#f373ac;stroke-width:5;stroke-linecap:butt;stroke-linejoin:round;stroke-miterlimit:4;stroke-dasharray:none;stroke-opacity:1" d="m3793.53 3468.7 61.91-22.33 18.61-6.0119.03.85 22.62 13.99 28.01 22.61 30.41 25.34 32.36 21.05 49.12 18.71 33.14 12.86 21.83 19.1 13.85 21.05 4.61 18.04-18.71 120.18-19.63 92.95-20.66 139.17 1.17 28.85 9.36 28.07 28.07 28.85 7.02 8.19 9.75 19.1 5.46 11.69 2.73 13.25 2.34 17.54-3.12 26.12-14.7 97.2"/></svg>