<?xml version="1.0" encoding="UTF-8" standalone="no"?>
<svg
   xmlns:dc="http://purl.org/dc/elements/1.1/"
   xmlns:cc="http://creativecommons.org/ns#"
   xmlns:rdf="http://www.w3.org/1999/02/22-rdf-syntax-ns#"
   xmlns:svg="http://www.w3.org/2000/svg"
   xmlns="http://www.w3.org/2000/svg"
   xmlns:xlink="http://www.w3.org/1999/xlink"
   version="1.1"
   width="3875"
   height="4600"
   viewBox="0 -100 3875 4600"
   id="svg2">
  <metadata
     id="metadata8">
    <rdf:RDF>
      <cc:Work
         rdf:about="">
        <dc:format>image/svg+xml</dc:format>
        <dc:type
           rdf:resource="http://purl.org/dc/dcmitype/StillImage" />
        <dc:title></dc:title>
      </cc:Work>
    </rdf:RDF>
  </metadata>
  <defs
     id="defs6" />
  <path
     style="opacity:1;fill:none;fill-opacity:1;fill-rule:nonzero;stroke:#f2f2f2;stroke-width:8;stroke-linecap:butt;stroke-linejoin:round;stroke-miterlimit:4;stroke-dasharray:none;stroke-opacity:1"
     d="m 4738.2257,2811.9306 -91.7771,-83.3289 -14.9761,-9.6001 -26.1123,-4.9921 h -28.0323 l -130.9455,12.6722 -29.9523,-2.3041 -38.7844,-6.528 -52.6086,-20.7363 -48.0005,-13.4401 -23.0403,-1.92 -27.2643,6.912 -20.7362,15.7442 -56.4486,57.9847 -18.0482,20.3522 -22.2723,9.9841 -28.4163,4.992 -24.9603,1.5361"
     id="path1067" />
  <path
     id="path1779"
     d="m 1787.6974,1429.7103 -24.1739,1.5351 -31.6054,1.5215 -83.8125,-12.6289 -22.5176,-4.1269 -33.7637,-21.6231 -1.1348,-0.388 -18.0489,-1.5352 -0.25,-0.01 v 3e-4 l -0.7851,0.1387 -16.5117,5.7617 -1.002,0.6504 -17.2793,18.4316 -0.2598,0.3262 -30.7558,46.3261 -9.8047,5.252 -15.6445,2.1836 -71.0039,-14.5078 -0.5665,-0.049 -29.5683,0.7675 -1.2852,0.3946 -25.7285,16.5136 -0.6035,0.545 -45.3125,56.832 -0.2598,0.3984 -12.2871,23.4239 -0.2304,0.6328 -15.9844,73.832 -21.4278,23.2754 -26.1503,10.459 -89.6446,18.7715 -0.7637,0.2988 -26.496,15.7441 -0.7754,0.7207 -12.2891,17.6641 -0.4434,1.2793 -1.5351,25.7285 0.1973,1.1328 33.4082,77.9531 0.078,0.1661 21.8887,42.2402 0.6406,0.7871 35.2226,28.7148 27.1875,27.5645 18.9981,49.3965 12.4941,35.9687 -3.8105,62.8614 1.2186,42.7844 26.4847,83.5443 11.3137,37.3193 1.3247,20.0849 -4.8602,16.8028 -10.7071,17.8787 -16.5711,9.9143 -17.0001,4.5001 -23.5,-4 -30.5,-11 -31.0461,-11.1531 -65.7107,-21.1795 -26.2029,2.9868 -25.7955,12.219 -25.5705,34.46 -24.19229,68.3528 -4.2241,36.0964 9.6002,30.7203 37.63239,71.8088 15.3601,11.5201 19.2003,5.3761 29.1843,-0.768 16.8962,4.992 32.2563,29.5684 81.4089,62.5927 12.2882,17.6642 3.84,16.5121 -2.688,19.2002 -9.2161,21.8883 -10.3682,8.8321 -64.5127,49.1525 -341.76369,328.7077 -24.5763,29.5683 -97.1531,118.6573 -19.5842,20.7362 -26.4963,21.5043 -81.0249,43.7764 -12.2881,12.2882 -61.4407,84.4809 -19.58421,27.6483 -14.59216,12.2882 -24.96028,9.9841 -30.33634,1.536 -114.81726,0.768 -23.80827,4.992 -89.47298,29.5684 -13.82416,8.4481 -15.36016,15.7441 -65.664729,127.1054 -12.67214,8.0641 -18.0482,3.8401 -16.12818,-3.0721 -39.936439,-26.1123 -30.336331,-5.376 -26.49629,8.4481 -46.848521,26.1123 -169.72988,179.3299 -19.58421,13.0562 -24.19227,0.768 -32.25636,-6.1441 -38.01641,8.0641"
     style="fill:none;stroke:#f2f2f2;stroke-width:8;stroke-linecap:butt;stroke-linejoin:round;stroke-miterlimit:4;stroke-dasharray:none;stroke-opacity:1" />
  <path
     style="fill:none;stroke:#f2f2f2;stroke-width:8;stroke-linecap:butt;stroke-linejoin:round;stroke-miterlimit:4;stroke-dasharray:none;stroke-opacity:1"
     d="m 1396,2086.3638 -32,19.5 -65.5,32 -18.118,0.2794 -16.5635,-13.0335 -10.0466,-22.8087 -4.073,-23.0802 -4.4829,-29.8772"
     id="path3001" />
  <path
     d="m 3153.8577,4204.7514 -28.3577,-281.8876 4,-27.5 17.4869,-37.1854 17.0861,-31.4438 3.6854,-23.3708 1.3037,-24.8374 -6.1183,-35.6626 -25.9438,-111.5 -11,-57.5 -2,-15.5 7.5,-26 9.5,-17.5 12,-10.5 52,-37 21.5,-15 15,-9 9.5,-7 6,-8 13.8277,-35.2416 2.2285,-17.1591 0.1854,-36.0993 5,-30.2715 13.7584,-58.7285 26,-116.5 1.4438,-26.2153 -7.4438,-59.2847 -8,-15 -15.9752,-11.2245 -23.5248,-10.7755 -102,-46 -18.5,-4.5 -30,1 -54,10 -25.3672,0.1976 -18.2751,-8.456 -34.3577,-18.7416 -123.6555,-72 -39.8445,-22.5 -27.8876,-15.8277 -35.3481,-20.1891 -104.2643,-45.4832 -12,-16 -33.2953,-59.0465 -17.7252,-27.3045 -4.9074,-27.4384 -8.0721,-23.2106 -38.2097,-86.5183 -83.269,-97.8239 -5.3049,-16.3984 2.0595,-23.193 6.5197,-19.8102 18.654,-19.8572 33.325,-38.4659 42.7969,-41.0557 30.7857,-26.7738 22.4618,-32.5708 10.7381,-31.7404 2.2834,-25.4549 -4.9098,-46.1088 -9.0238,-23.8263 -14.0735,-13.9961 -25.8536,-13.6629 -76.9524,-27.455 -46.6547,-16.9447 -31.3222,-17.3809 -32.7112,-31.2277 -33.8467,-32.5716 -9.3625,-19.8966 -11.9651,-45.9799 -16.665,-18.787 -20,-16.5 -26.6986,-6.8146 -23.9569,-3.1292 -28.2584,-3.0299 -28.6423,3.6292 -33.4438,6.8445 -39.5,-5 -14.7285,-8.6591 -12.7715,-12.8409 -20.7584,-29.9175 -24.2788,-29.4306 -3.7846,-20.8672 -5.2417,-76.286 0.1927,-24.3228 4.616,-27.4044 8.4008,-28.5729 6.854,-42.1986 1,-24 -2.4869,-34.6423 -4.2715,-91.3051 -2.3152,-102.1887 -7.3314,-21.9941 -14.1197,-22.2656 -73.8567,-97.7515 -153.144,-172.6944 -39.3722,-45.0743 -21.451,-11.9474 -27.9678,-11.6759 -16.2919,-13.3051 -7.6495,-12.9676 -0.3703,-49.5313 11.9186,-39.1773 15.6049,-43.7252 -2.1257,-22.1338 -10.0639,-33.6132 -14.7842,-37.8244 -8.8321,-67.5848 -9.2161,-20.3522 -18.8162,-19.9682 -44.5445,-36.8644 -30.7203,-39.9364 -16.5122,-24.5763 -87.169,-87.169 -11.5201,-16.1282 -6.1441,-22.6562 -2.304,-22.2723"
     id="path3759"
     style="fill:none;stroke:#f2f2f2;stroke-width:8;stroke-linecap:butt;stroke-linejoin:round;stroke-miterlimit:4;stroke-dasharray:none;stroke-opacity:1" />
  <path
     d="m 1691.5,4863.3638 12,-28.5 18.5,-43 21.5,-32 22.5,-15.5 24.5,-8.5 40.5,-9.5 10.5,-9 15.5,-20 4,-13 7.5,-41 19,-101.5 14.6967,-77.9393 -0.182,-16.9749 1.3284,-23.6673 -3.8934,-37.4792 -4.9497,-15.4393 0.5,-21.5 9,-35.5 73.5,-271 39,-147 1,-18.5 -6,-18.5 -16,-57 -11.5,-16.5 -18.5,-17 -41,-31.5 -17.5,-19 -18.5,-34.5 -2.5,-19.5 -1,-21.5 -2,-112 2.5,-17.5 27,-38 56.5,-81.5 7,-18.5 3,-27.5 -1.8033,-24.0179 6.4157,-43.2237 10.3876,-24.2584 14.5,-28 22.5,-27 22.5,-23 16,-13 17.5,-25.5 5.5,-19 6,-22.5 0.5,-29.5 -3,-22.5 -14.5,-16.5 -21.5,-24 -11.5,-28 -4,-22 -3,-57 1,-18.5 6,-17.5 12.5,-21.5 24.5,-28 5.3787,-18.7175 1.6716,-18.0607 2.2322,-21.4497 0.036,-32.1612 1.2929,-34.2322 1.6213,-19.2556 39.3302,-96.1102 1.2158,-13.7096 -0.7782,-36.8033 -5,-20.5 -19,-77 -4.5,-24.5 -11.189,-34.5299 -5.6591,-25.8708 -7.1723,-16.3876 -16.8672,-25.9832 -16.6124,-23.7285 -25.3314,-40.2584 -52.6867,-75.6568 -8.4139,-23.3708 -2.6015,-21.903 -1.4665,-17.811 -2.2416,-24.2452 -2.2584,-29.7548 -10.2679,-109.1854 -0.2584,-23.5036 5.9139,-26.262 30.1124,-26.549 32.5,-39.5 19.8953,-19.0516 11.0054,-16.9484 8.4964,-21.0993 4.927,-23.2584 0.2416,-17.8146 -3.2715,-17.043 -7.2153,-15.4139 -8.0993,-10.3146 -16.9438,-11.6722 -30.4234,-13.384 -43.6124,-20.8014 -28.5431,-13.2285 -25.9569,-13.957 -18.3876,-15 -22.1124,-43.5131 -48.5,-82 -19,-62.5 -23.9306,-47.6913 -5.0985,-13.0625 -7.5008,-71.7331 -5.9701,-37.0131 -14.5,-42.5 -44,-151.5 -18,-61 -1,-28.5 1.5,-134 10.5,-35.5 9,-25 8.927,-23.6723 36.073,-34.8277 56,-47.5 6.5,-14 17,-51.5 13.5,-46.7241 42,-67.616 75.5,-136.1599 31.5,-50.5 14,-26 9.5,-40.5 -0.5,-14 -8.5,-52.5 -5.0263,-32.7453 -10.2811,-31.1818 -22.3612,-37.6196 -44.5168,-39.5132 -35.573,-29.2846 -60.2421,-52.2847 -18.5,-24.3708 -6.5562,-22.2154 -2.4438,-28.7846 0.5,-53.50003"
     id="path3761"
     style="fill:none;stroke:#f2f2f2;stroke-width:8;stroke-linecap:butt;stroke-linejoin:round;stroke-miterlimit:4;stroke-dasharray:none;stroke-opacity:1" />
  <path
     d="m 2121,2221.3638 24.6854,-2.1854 73.7153,-8.2847 65.1854,-5.7416 31.1292,3.3146 53.0562,8.5131 31.2584,7.2716 30.2058,-6.573 34.4964,-20.6986 56.311,-39.1854 29.4569,-19.1722 19,-5.7584 41,-3.6801 57,-9.42 37.384,-5.1081 43.6361,-6.152 56.3718,-17.6398 83.6081,-29.5 282.6118,-92.3199 44.4761,-5.4561 51.9121,0.776 23.5,11.5079 17.884,19.196 8.1081,20.5641 0.4639,33.776 4.08,25.4841 17.652,22.6801 22.9561,9.3119 19.4078,-0.956 23.9481,-9.5641 224.5,-71.5 14.5,0.5 139,34 59,18 32.5,30.5 32.2384,14.6322 50.2616,4.3678 33.5,17.5 31,22.5 31,12 33.5,2 41,-5.5 60.5,-19"
     id="path3782"
     style="fill:none;stroke:#f2f2f2;stroke-width:8;stroke-linecap:butt;stroke-linejoin:round;stroke-miterlimit:4;stroke-dasharray:none;stroke-opacity:1" />
  <path
     d="m 478.00001,362.8638 12.5,65 17,92.5 3.5,25 3,27.5 -14.5,141 -9.5,110.5 -4,56 -0.5,39 -8,27 -8,117 2.5,23 14.5,18.5 22,12 86.5,18 14.5,5 25,12.5 52.5,8 18,5 19.5,18 259,238.5 61.49999,56.5 24,34.5 10.7981,27 4.7626,36.1161 6.4696,35.0347 11.0304,26.5814 19.4393,17.2678 21.5,2 43,8 15,-3 25.5,-1 h 25.5 l 41.5,14 63.5,26.5 51.5,18.5 27,7.5 h 17 l 14.5,6.5 15,9.5 18.5,17.5 21.5,26.5 51.5,86.5 10,8.5 26,4.5 92.5,23.5 38,9 36.6496,7.6029 23.7452,-4.9569 17.1986,-10.4271 24.1686,-22.7153 27.1256,-22.7452 28.3971,-19.7321 30.6854,-4.5132 22.3014,2.6424 23.9869,6.4139 89.2416,34.9306 39,16.5 35,27.5 28,26 20,29.5 11.5,44.5 5.5,13 7.9405,10.096 27.4865,14.404 28.189,18.5993 25.4737,25.5227 19.5132,37.1985 8.5299,24.9043 10.311,24.8314 12.0562,19.9438 16,34 42.5,77.5 16,19 9.5,9.5 22.5,4.5 43,1.5 21.5,4.5 20.5,12 41,35.5 63.5,39.5 102,60.5 44.5,35.5 60.5,57.5 57,39.5 78,52 16.5,10.5 20.5,5 h 38.5 l 44.5,3 81,18 197.5,40 36.5,4 23,-6.5 36,-29.5 33,-34.5 57.5,-106.5 9,-20 7.5,-18.5 11,-12.5 19.5,-13 15.5,-6 h 18 l 12.5,1 15,7.5 120.5,76 89.2802,51.7532 56.8326,41.8565 37.2484,15.7442 34.5604,34.5604 69.5048,67.2007 68.7368,75.6488 9.2161,21.1203 0.384,16.5122 -9.9842,48.0005 -16.1281,49.5365 -17.2802,31.8724 -46.8485,69.8888 -8.4481,19.2002 -0.768,17.2802 9.2161,18.4322 15.3601,12.2881 14.2082,7.2961 34.7912,29.614"
     id="path3784"
     style="fill:none;stroke:#f2f2f2;stroke-width:8;stroke-linecap:butt;stroke-linejoin:round;stroke-miterlimit:4;stroke-dasharray:none;stroke-opacity:1" />
  <path
     d="m 2431,-50.6362 -2,48 -1,31 2.5,18 13,29.5 19.4921,35.376 8.8119,25.4359 2.196,21.6881 -2,16 -26.5,94.5 -23.5,83 -14,47 -10,18.5 -25.5,28.5 -88,80.5 -36,47 -19,44 -9.2978,33.7117 -0.2716,23.9306 1.5952,48.6827 -7.5258,58.675 4,26 18.073,56.0694 13.2284,42.3313 5.6855,29.384 -0.9869,33.7153 -2,19.5 0.5131,29.7475 -6.5167,54.9248 -3.4139,34.9569 -5.2978,39.1423 -4.7847,36.7285 -3,30.5 -5.5562,92.7584 -13.4438,118.7416 -4.5,23 -3.1387,48.7285 -9.8613,51.7715 -11,43 -31.8445,63 -6.3445,20.4701 3.6388,18.0214 8.5502,15.5085 30.073,40.5993 26.1722,31.1124 8.7586,18.7575 1.4962,18.0308 2.5,26.5 -4.5,20.5 -14.5,31.5 -22,36 -6,26 4.1591,32.3277 7.1423,27.3876 6.6986,24.2847 8.5,24 8.5,32.5 14.4306,38.3409 -0.4138,23.8839 -7.2637,20.2002 -15.6538,22.4494 -25.0993,14.6256 -17.2715,2.7715 -43.3283,4.881 -23.7316,-0.5963 -16.7846,6.6854 -14.4438,15.0861 -8.4139,20.884 -11.8708,36.3876 -8.238,34.0131 -12.3838,19.9785 -28.176,23.0347 -20.967,18.522 -6.3907,16.3524 -4.5,14.5 0.2584,30.8708 1.7715,31.6292 0.9701,51 1.1555,19.5227 -2.9869,15.8445 -7.0299,12.2285 -27.6795,41.4115 -29.0886,44.8981 -13.9663,9.5349 -14.0081,6.6494 -32.4393,1.2082 -19.8409,2.6854 -19.1459,8.573 -25.4701,30.4438 -49.077,60.0565 -9.6646,13.9136 -10.2453,22.4868 -27.5131,185.0431 -10.5,20.5 -119,198 -177.5,291 -91.7584,138.9402 -26.9007,63.3014 -63.3409,162.7584 -17.5,41 -25.5,46 -51,71 -4,16.5 7.5,20.5 12,24 9,13.5 33.7883,27.7153 39.927,48.6124 28.2847,40.1723 14,13 187.5,70 57,23.5 28.5123,22.5078"
     id="path3786"
     style="fill:none;stroke:#f2f2f2;stroke-width:8;stroke-linecap:butt;stroke-linejoin:round;stroke-miterlimit:4;stroke-dasharray:none;stroke-opacity:1" />
  <path
     d="m 1758.0793,2271.5974 -65.7212,-20.0084 -43.7896,-3.428 -24.5848,-6.8108 -21.2642,-26.0667 -6.9295,-34.7216 4.0674,-36.9564 6.5337,-29.4157 53.3213,-93.6775 37.1033,-64.8332 4.2427,-15.5563 1.4142,-60.8112 10.9291,-126.5721 7.3935,-27.7922 10.1145,-15.1829 13.2822,-12.8864 28.2843,-26.87 19.7989,-12.728 99.7021,-22.6274 60.8112,-14.1421 34.6482,-6.364 145.664,9.8995 60.1041,4.9498 36.0624,-1.4142 93.6153,-0.9334 28.3011,12.1339 14.1309,18.4979 6.7883,21.2132 -6.364,30.4056 0.3734,26.9266 3.7505,32.1989 12.134,24.8618 33.9467,74.4047 8.4853,30.4056 -2.1213,26.1629 -9.8995,40.3051 -14.3118,61.7898 -27.4075,101.5519 -4.7404,36.4299 -6.4148,19.2049 -9.0906,16.8009 -27.1473,35.2141 -19.6915,18.1133 -15.9297,14.9735 -28.2673,56.3989 -14.9452,17.8189 -31.7745,23.3233 -28.9661,18.536 -47.3167,15.6486 -82.1488,11.7492 -45.6623,-2.6643 -38.6591,-19.2503 -152.0447,-92.0539 -24.2001,-12.5582 -14.8493,-5.6569 -20.7608,-7.9366"
     id="path3788"
     style="fill:none;stroke:#f2f2f2;stroke-width:8;stroke-linecap:butt;stroke-linejoin:round;stroke-miterlimit:4;stroke-dasharray:none;stroke-opacity:1" />
  <path
     d="m 2324,3527.3638 -19.5,25.5 -16,20 -13.3959,14.7201 -15.3669,7.9319 -21.6524,1.1092 -45.4489,-11.3091 -85.4479,-16.8321 -32.6239,-0.584 -20.0228,-1.0084"
     id="path3798"
     style="fill:none;stroke:#f2f2f2;stroke-width:8;stroke-linecap:butt;stroke-linejoin:round;stroke-miterlimit:4;stroke-dasharray:none;stroke-opacity:1" />
  <path
     d="m 1702.5,1028.8638 19,-7.5 13.5,-5.5 81,-34.5 14.5,-7.5 h 17.5 l 11,5 6,6 55,3.5 10.5,-9 53,0.5 155,-0.5 15.5,-2 14.5,-4.5 28,3 9,-8 65,-57 2.5,-14 -3,-8 8,-11.5 12.5,-23"
     id="path3800"
     style="fill:none;stroke:#f2f2f2;stroke-width:8;stroke-linecap:butt;stroke-linejoin:round;stroke-miterlimit:4;stroke-dasharray:none;stroke-opacity:1" />
  <path
     d="m 1162.5,5335.8638 45,-19.5 82.5,-35.5 76,-43.5 33,-14.5 105.5,-44 47.5,-23 31,-25.5 14,-19 11,-19 15.5,-39 13.5,-47.5 12,-32.5 19,-45.5 25,-56.5 10.5,-25.5 21.5,-50.5 23,-33 17.7921,-23.456 7.544,-22.356 -5.3361,-15.688 -7.772,-11.5079 -11.2201,-9.3801 -74.572,-29.724 -21.08,-13.0879 -13.3276,-14.8396 -7.1627,-14.3186 -32.5164,-103.5167 -35.6932,-76.0532 -15.9436,-18.9499 -39.7001,-37.1143"
     id="path3802"
     style="fill:none;stroke:#f2f2f2;stroke-width:8;stroke-linecap:butt;stroke-linejoin:round;stroke-miterlimit:4;stroke-dasharray:none;stroke-opacity:1" />
  <path
     style="opacity:1;fill:none;fill-opacity:1;fill-rule:nonzero;stroke:#f2f2f2;stroke-width:8;stroke-linecap:butt;stroke-linejoin:round;stroke-miterlimit:4;stroke-dasharray:none;stroke-opacity:1"
     d="m 1423.6269,2727.0657 15.1681,-44.9285 36.6724,-35.3284"
     id="path899" />
  <path
     d="m 3614.5,1164.364 9.5,295.5 -2.5,25.5 -7,8 -14.5,5.5 -211.5,6.5 -26.5,-10 h -21 l -15.5,-6 -32,-5.5 -79.479,7.7197 -39.521,3.7803 -42,19.5 -100.5,41.5 -28.1612,8.6967 -44.6776,5.7678 -68.8579,9.4142 -76.3033,9.1213 -29.0337,6.5251 -26.8891,11.3891 -24.8787,15.9645 -35.2531,27 -45.2279,35.8033 -51.7175,37.318 -36.2426,29.5 -39.2574,41.5 -36.636,46.6716 -33.9498,51.0797 -21.6924,41.9203 -21.6967,20.1213 -16.1375,11.2932 -22.6424,9.3577 -82.5897,2.8146 -80.0562,-0.2584 -56.0993,3.5 -48.5,1.5 -50.5,0.5 -22,15 -13.5,20 -15.5,25.5 -21,10.5 -21,-1 -25,2 -36,3.5 -43.6197,10.9139 -58.5263,28.7715 -110.7117,41.7548 -57.3182,17.4737 -22.5358,12.1124 -74.7883,34.4737 -131.5,57 -65.5,28 -59,23 -29,1 -33.5,-7 -66,-23.5 -64.5,-20.75 -24,2.5 -23.75,11 -12.25,15.5 -25.99999,29.5 -17.25,16.75 -65.25,22.5 -100.5,29 -92,24 -30.5,-6.5 -44.5,-16.5 -44,-13.5 h -16 l -31,7 -30.5,6 -26,4.5 -20,-5 -26,-15 -35.92623,-24.5333 -31.8198,-42.4264 -33.23402,-43.8407 -74.95332,-65.7609 -15.14963,-24.0917 -10.356,-56.218 -9.84971,-80.2035 -6.36396,-47.3762 -14.84924,-221.3244 -4.94975,-28.9914 -8.48528,-12.7279 -52.3259,-43.1335 -21.92031,-27.5772 -44.627217,-117.9413 2.56622,-20.5433 10.039887,-17.5135 37.20099,-16.6475 15.9984,-10.7669 22.40849,-42.8988 15.01448,-9.5559 45.30113,-18.6912 26.22386,-31.1127 14.12354,-20.5061 5.49787,-21.7376 -4.48626,-22.2248 -11.6554,-17.2328 -28.24708,-13.051 -135.0574,-50.2046 -21.104869,-10.8688 -18.6707,-17.9636 -17.50008,-21.3722 -10.6066,-21.9203 -2.12132,-19.0919 2.82843,-82.7315 3.29193,-65.7609 0.2436,-22.6274 -1.29241,-35.0746 -2.24312,-80.1838 -2.12132,-27.5772 -4.94975,-21.2132 -33.9411294,-57.2757 -22.6274106,-28.2843 -34.64824,-26.1629 -49.497471,-41.0122 -57.27565,-40.3051 -39.38225,-29.7414 -18,-21.5 -11.5,-30.5 -2,-26 3,-31 15.5,-29"
     id="path3792"
     style="fill:none;stroke:#f2f2f2;stroke-width:8;stroke-linecap:butt;stroke-linejoin:round;stroke-miterlimit:4;stroke-dasharray:none;stroke-opacity:1" />
  <path
     d="m 556.00001,2378.364 33.5,-7.5 27.5,-15.5 40.5,-23 79.5,-30 25.5,-7.5 108.5,-40.5 47,-26 95.49999,-49.5 42,-20.5 15,-11.5 7.5,-14 10,-20 10,-7.5 13.5,-5.5 22,5 8.5,13.5 30.5,43 13.5,9.5 23,10.5 10,0.5 17.5,-6.5 7,-1 16,4.5 17.5,6 25,3 18.5,10.5 15,46 24.5,38.5 15,3.5 18,-3.5 70,-34 80,-37.5 54.5,-25 18.5,-8.5 6,-10 11,-29 6,-15.5 13,-9.5 20.5,-3 52.5,-4 39.5,-6 34.5,-16 31,-15 14.5,-8.5 38,-4 12.5,-2.5 35.5,-4.5 35.5,-4.5 14,3.5"
     id="path3790"
     style="fill:none;stroke:#f2f2f2;stroke-width:8;stroke-linecap:butt;stroke-linejoin:round;stroke-miterlimit:4;stroke-dasharray:none;stroke-opacity:1" />
  <path
     d="m 1570.75,2199.114 -48.75,13 -25.501,-7.9792 -9.249,-18.5208 5.25,-22.25 3.5,-18 -2,-28.25 -12.5,-14.25 -33,-24 -17.5,-10 -17,2 -31,17.5 -25,16 -19,6.5 -17.5,1.5"
     id="path3794"
     style="fill:none;stroke:#f2f2f2;stroke-width:8;stroke-linecap:butt;stroke-linejoin:round;stroke-miterlimit:4;stroke-dasharray:none;stroke-opacity:1" />
  <path
     d="m 3325.8161,3870.6076 19.2178,36.8341 7.6251,45.2499 -2.3329,70.844 -20.2394,51.5283 -32.5635,39.5033 -29.3606,27.7591 -33.0973,19.2178 -30.4283,6.9398 -39.137,4.8799 -57.5,5 -61,6 -79.5,22.5 -78,23 -57,15 -34,2 -29,-9 -22.5,-19.5 -53,-68 -35.4139,-39.9832 -20.7584,-9.7416 -20.2846,-1.8577 -23.1591,-0.573 -31.884,3.1555 -19.5,-3 -27,-18.5 -15,-19 -109,-210.5 -12,-29.5 -16,-25.5 -12,-12.5 -24,-12 -18,-16 -11,-18 -25,-77.5 -9,-41 6,-19 18.5,-20 17,-21 33.5,-43.5 29.5,-48.5 59,-129.5 8.5,-52.5 15,-131 6.5,-86 1.5,-37.5 -6,-98 -6,-22 -9,-18 -28.5,-26 -8.5,-14.5 -6,-23 -1,-60.5 v -77 l -4.5,-22.5 -22,-43.6723 -26.427,-63.8014 -12.8445,-24.3708 -16.3577,-42.5898 -36.3708,-51.5657 -16.5,-16 -27.5,-24.5 -11,-19.5 -17.5,-30.5 -37.5,-42.5 -9,-22 -4.5,-40.5 -0.5,-45.5 -15.5,-66.5 -13,-44.5 -32.5,-70.5 -20.6723,-38 -18.4437,-35.6423 -14.03,-21.9307 -28.854,-26.927 -31,-25.5 -59,-44.5 -31.5,-28.5 -38.9569,-33.4832 -88.646,-90.7453 -106.8971,-102.7715 -68.5,-60 -48,-37.5 -70,-51 -131.5,-96 -34,-25.5 -71.5,-31.5 -92.5,-42.5 -31,-14.5 -11,-13 -55,-121.5 -63.49999,-134 -2.5,-28.5 6,-43 -0.5,-28.5 -29.5,-65 -51.5,-122.5 -55.5,-146 -25.5,-59.5 -28.5561,-82.5842 -2.3041,-13.0561 3.0721,-12.6721 4.224,-9.6002 10.7521,-11.9041 60.6727,-51.8406 12.6721,-15.7441 5.7601,-14.5922 1.92,-17.6642 -11.9041,-83.7129 -11.5201,-34.5604"
     id="path3796"
     style="fill:none;stroke:#f2f2f2;stroke-width:8;stroke-linecap:butt;stroke-linejoin:round;stroke-miterlimit:4;stroke-dasharray:none;stroke-opacity:1" />
  <path
     d="m 3047,1082.8638 94,45.5 9,17 4,16 -3,116 -4.5,12 -16.5,9 -46.5,15.5 -200.9701,63.2978 -32.2751,1.2285 -16.2548,-5.0263 -27.5,-10.5 -12,-0.5 -48.5,15 -24.5,16.5 -27,21 -43.5,28 -56.5,38 -50,75 -26,26.5 -43.5,41 -92.5,69.5 -16.5,13.5 -8.5,19.5 -5.5,27.5 -11,19.5 -15.5,15.5 -11.811,8.9569 -41.762,19.2321 -34.927,23.311 -16.5,14 -18,29.5 -27.5,32 -28.4894,17.062 -29.0106,4.938 -64,13.5 -6.5,7.5 -19.5,20.5 -27,37.5 -15,45 -9,35.5 -4.5,13.5 -15,21.5 -17,15 -22.5,21.5 -28.5,47 -21,21.5 -9,24 -13.5,53 -14.5,46 -7,9.5 -64.5,46 -32.573,17.7285 -124.427,49.2715 -27.5,18 -34.4234,22.2248 -12.6029,18.6759 -2.5861,13.5862 3.4569,20.689 41.6854,37.6088 6.8708,20.7153 -1.9007,15.5 -5,11.5 -65.5,84 -105.5979,157.6279 -19.251,19.9951 -49.3628,30.5121 -276.2189,280.9211 -58.14239,57 -31.3839,30.3278 -46.9008,31.5861 -18.1423,25.5299 -7,14.5 -9.5,25.5 -20.7113,75.7503 -1.152,20.9283 v 60.0966 l -3.4561,29.3764 -6.9121,22.4642 -12.8641,17.8562 -161.0898,135.9375 -49.9205,42.6245 -35.3284,35.3283 -29.9524,15.7442 -72.96076,13.4402 -18.8162,9.2161 -21.88824,17.2802 -15.36017,18.4322 -12.67214,18.4322 -7.29608,18.8162 -4.60806,27.6483 -8.44809,18.4322 -26.8803,36.8644 -19.20021,27.2643 -16.89618,13.8242 -29.18433,13.0561 -15.36017,9.6001 -25.34428,26.4963 -19.58421,47.2325 -36.4804,81.0249 -9.60011,26.1123 v 13.4402 l 3.84004,19.9682 9.60011,13.8241 86.01695,89.089 50.68856,68.7368 36.8644,38.7844 32.25636,28.8003 108.28921,71.4248 19.5842,14.2082 14.5922,20.3522 33.0243,67.5847 21.1203,23.4243 34.1763,35.3284 12.6722,24.1922 27.2643,59.9047 25.7283,48.3845 45.3125,64.5128"
     id="path2989"
     style="fill:none;stroke:#f2f2f2;stroke-width:8;stroke-linecap:butt;stroke-linejoin:round;stroke-miterlimit:4;stroke-dasharray:none;stroke-opacity:1" />
  <path
     style="opacity:1;fill:none;fill-opacity:1;fill-rule:nonzero;stroke:#f2f2f2;stroke-width:8;stroke-linecap:butt;stroke-linejoin:round;stroke-miterlimit:4;stroke-dasharray:none;stroke-opacity:1"
     d="m 2040.2476,3011.1186 65.7108,-23.8948 96.1223,-21.1795 L 2223,2958 l 31,-20.5 239,-231 36,-28.5 28.5,-13.5 76.5,-39.5 119,-63.5 179,-92.5 23,-14 13.5,-14 15,-20.5 9,-24 36.5,-105 50,-145 11.5,-19.5 25.5,-23.5 29,-30 10,-20 7,-30 1,-34 -4.5,-161.5 -8.5,-82 -10,-107 -5.5,-106.5 -1,-40.5 3.5,-31 24,-125 1.5,-29.5 -2.5,-88.5 -1,-62 -8.5,-29 -21,-32.5 -65.5,-60 -48.5,-30 -344,-207.5 -214.5,-101.5 -121,-65 -45.5,-9 -78,-12 -485,-31 -31.5,-5.5 -95,-26 h -42 l -30,11 -35.5,20 -43,20 -197,74 -32.5,19.5 -24,24 -86,108.5 -31.5,29 -124.49999,101 -22.5,32 -15,39.5 -4,37.5 5,43 10.5,31.5 119.99999,245 11.5,37 6.5,50.5 21,177 5.5,23 14,25.5 113.5,211.5 26,46.5 51,124.5 8,31 7,49.5 7.75,63.5 8.25,25 11.5,16.25 58.25,71.75 15.5,26.5 51.5,97.75 17.5,23.75 18,18 18.25,11 119.75,65.5 21.75,13.5 19,17.75 16.5,16.5 16.75,21.25 75.5,110.75 11.5,20.75 51.5,109 24,46 24.75,36 19.25,21 24.5,17.5 25.75,8.25 19.5,3.5 h 26 l 24.7476,-8.1314"
     id="path1069" />
  <image
     xlink:href="../../timelines/mow/./../streetmap/mowosm.png"
     id="image10"
     height="5701.3638"
     width="5321.2729"
     y="-224.99976"
     x="-425.04501"
     style="display:none" />
  <path
     id="path832"
     d="m 65.376321,1322.7326 21.1795,-15.2058 60.823159,23.3518 8.96056,0.5431 58.65091,-8.9606 9.50362,-6.7883 33.12691,-83.6318 5.70217,-2.9869 116.2157,27.9678 28.78239,0.2715 64.89615,-16.5634 124.90472,-8.689 19.2788,-2.1723 21.9941,-3.2584 15.7488,-4.8876 12.4905,-7.8744 30.14,-45.8889 0.8146,-9.2321"
     style="opacity:1;fill:none;fill-opacity:1;fill-rule:nonzero;stroke:#010101;stroke-width:5;stroke-linecap:butt;stroke-linejoin:round;stroke-miterlimit:4;stroke-dasharray:none;stroke-opacity:1" />
  <path
     id="path834"
     d="m 86.555821,1307.5268 67.339929,-178.668 4.88758,-1.6292 21.45103,7.6029 8.68902,7.6029 67.06841,82.2742 7.33136,4.3445"
     style="opacity:1;fill:none;fill-opacity:1;fill-rule:nonzero;stroke:#010101;stroke-width:5;stroke-linecap:butt;stroke-linejoin:round;stroke-miterlimit:4;stroke-dasharray:none;stroke-opacity:1" />
  <path
     id="path836"
     d="m 616.04321,1229.8687 -12.2189,14.1197 -0.2716,7.8744 -2.4438,77.9297 3.8015,11.9474 30.14,46.432 2.7154,16.5634 -2.9869,110.7851 2.1723,11.6758 16.0204,43.7167 -13.8482,54.8495 -7.3313,-1.9008 2.4438,-11.1328 8.4174,0.8146"
     style="opacity:1;fill:none;fill-opacity:1;fill-rule:nonzero;stroke:#010101;stroke-width:5;stroke-linecap:butt;stroke-linejoin:round;stroke-miterlimit:4;stroke-dasharray:none;stroke-opacity:1" />
  <path
     id="path838"
     d="m 697.77431,1167.9594 8.4175,-6.7883 189.2578,-10.5897 42.6306,24.9809 3.5299,-0.2715 15.4773,-7.6029 118.38799,42.6305 35.0276,14.9343"
     style="opacity:1;fill:none;fill-opacity:1;fill-rule:nonzero;stroke:#010101;stroke-width:5;stroke-linecap:butt;stroke-linejoin:round;stroke-miterlimit:4;stroke-dasharray:none;stroke-opacity:1" />
  <path
     id="path840"
     d="m 965.50491,1171.4893 -5.7022,7.8744 -4.073,-1.0861 -8.689,-16.5634 -1.0861,-11.1328 11.9474,-21.9941 40.7298,-25.5241 49.69039,-13.0335 13.8481,2.9869 1.9007,-3.53 v -13.305 l -20.6364,-46.7035 -15.4867,6.4977 -9.2227,-17.0874"
     style="opacity:1;fill:none;fill-opacity:1;fill-rule:nonzero;stroke:#010101;stroke-width:5;stroke-linecap:butt;stroke-linejoin:round;stroke-miterlimit:4;stroke-dasharray:none;stroke-opacity:1" />
  <path
     id="path842"
     d="m 228.56705,520.8986 16.29192,-46.7035 17.37805,-21.9941 17.64958,-14.1196 21.1795,-10.5898 26.61013,-5.9737 37.74295,-4.073 36.11376,0.2716 22.53715,2.7153 26.33861,7.6029 18.46417,13.8481 17.64958,16.835 10.86126,21.9941 16.2919,87.1618 -18.4641,165.906 1.9007,3.8015 121.9179,17.1065 16.2919,7.3314 0.8146,5.4306 -16.2919,136.5806 -13.5766,60.0086 -10.5898,29.0539 -8.9605,13.8481 -0.5431,4.073 1.3576,5.1591 4.073,3.5299 h 6.5168 l 5.7022,-2.1722 h 7.0598 l 24.7094,10.8612 4.073,5.9738 41.0013,15.2057 20.3649,11.4044 94.4932,46.1604 9.232,13.0336 10.3183,11.1328 1.6292,22.8087"
     style="opacity:1;fill:none;fill-opacity:1;fill-rule:nonzero;stroke:#010101;stroke-width:5;stroke-linecap:butt;stroke-linejoin:round;stroke-miterlimit:4;stroke-dasharray:none;stroke-opacity:1" />
  <path
     id="path844"
     d="m 1043.4346,1029.4781 143.3689,-65.4392 -19.5503,-44.2598 0.543,-4.3445 10.3183,-12.2189 10.0466,-4.8876 16.0204,-52.6772 46.7035,-72.2275 2.7153,-11.9474 5.4307,-15.2058 11.1328,-11.1328 6.5168,-4.073 8.1459,-16.2919 -32.5838,-16.835 -6.2452,1.6292 -14.1197,9.2321 -7.3314,0.543 -2.4438,7.6029 2.1723,3.8015 3.8014,-0.5431 1.3577,-1.6292 2.4438,-9.2321"
     style="opacity:1;fill:none;fill-opacity:1;fill-rule:nonzero;stroke:#010101;stroke-width:5;stroke-linecap:butt;stroke-linejoin:round;stroke-miterlimit:4;stroke-dasharray:none;stroke-opacity:1" />
  <path
     id="path846"
     d="m 1284.8265,714.7725 140.6536,65.9823 29.0539,-5.9737 26.8817,62.7239 4.3445,3.5299 41.2729,88.5194 6.7883,6.7883 5.7021,1.9007 28.5109,2.9869 9.2321,30.14 v 13.5766 l -1.3577,10.5898 34.2131,68.6976 2.9868,1.6292 14.3912,-6.2453 53.2203,122.461 16.5634,-4.073"
     style="opacity:1;fill:none;fill-opacity:1;fill-rule:nonzero;stroke:#010101;stroke-width:5;stroke-linecap:butt;stroke-linejoin:round;stroke-miterlimit:4;stroke-dasharray:none;stroke-opacity:1" />
  <path
     id="path848"
     d="m 2037.1001,955.6541 -9.7921,-10.1761 9.2161,-4.608 v 20.7362 l 2.496,2.688 21.3123,1.728 1.728,1.728 v 8.0641 l 1.728,2.4961 88.129,0.768 16.5826,-6.2146 31.2259,2.5665 4.6081,-3.648 25.5362,-24.5763 59.7127,-54.7206 13.6322,6.5281 34.7523,-61.8247 6.7201,-8.2561 40.1285,-71.6168 10.7521,-6.336 59.1366,-81.793 1.152,-10.5601 18.4322,-20.9282 25.9203,-34.9444 3.6481,-7.8721 4.8,-22.6562 1.152,-15.9362 -1.92,-17.4722 -1.728,-8.8321 -5.1841,-7.1041 -45.8885,-52.9926 -20.3522,-23.6162 -8.8321,-16.3202 -5.9521,-17.8562 -3.648,-21.1202 v -12.0962 l 1.728,-14.0161 16.7042,-59.7127 14.2082,-49.3445 -0.576,-6.9121 -2.8801,-4.992 -6.144,-3.4561 -98.3051,-27.0723 -19.5842,-1.92 -17.8562,-0.768 -69.8888,13.2481 -5.5681,-1.536 -2.688,-3.84 -17.8562,-108.4812 1.536,-6.9121 69.3128,-129.9854 -1.536,-3.2641 -10.1761,-1.536 -2.3041,3.072 0.384,2.4961 6.1441,12.6721"
     style="opacity:1;fill:none;fill-opacity:1;fill-rule:nonzero;stroke:#010101;stroke-width:5;stroke-linecap:butt;stroke-linejoin:round;stroke-miterlimit:4;stroke-dasharray:none;stroke-opacity:1" />
  <path
     id="path850"
     d="m 2303.2151,899.0135 36.4804,23.0402 9.0241,8.4481 48.3845,29.3764 148.4176,76.9928 40.8965,13.2482 27.2643,23.8082 16.7042,4.8001 2.88,-11.1361 26.1123,-16.3202 22.4642,10.5601 15.1682,14.9762 22.2722,15.1681 15.7442,25.1523 8.2561,6.5281 38.4004,24.7682 29.5684,31.8724 16.8961,79.2969 39.1685,43.7765 22.4642,47.6165 1.344,4.416 -1.344,2.8801 -4.032,4.608 3.84,69.8888 8.4481,9.4081 22.6563,130.7534 4.032,15.5522 230.2106,-15.5522 3.648,-3.264 0.576,-2.88 -1.92,-24.0003 2.112,-5.9521 13.0561,-14.9761 129.2175,-4.0321 2.304,-4.224 -2.88,-17.0882 1.344,-2.88 27.2643,-4.9921 19.9682,-9.2161 28.6083,-14.5922 49.3446,-26.4963 55.8726,-13.8241 18.2402,-2.112 43.9685,-1.344 272.451,-8.2561"
     style="opacity:1;fill:none;fill-opacity:1;fill-rule:nonzero;stroke:#010101;stroke-width:5;stroke-linecap:butt;stroke-linejoin:round;stroke-miterlimit:4;stroke-dasharray:none;stroke-opacity:1" />
  <path
     id="path852"
     d="m 2630.3867,1078.7275 16.1728,18.362 1.4405,6.6605 -19,41 60.75,81.75 0.25,4.25 -32,51 -8.5,28.25 -12,20.75 -21.25,39 -13.1768,56.3839 -19.3043,7.5741 -0.8839,3.5355 4.2427,11.844 9.0156,-3.1819 -5.1265,-15.2028"
     style="opacity:1;fill:none;fill-opacity:1;fill-rule:nonzero;stroke:#010101;stroke-width:5;stroke-linecap:butt;stroke-linejoin:round;stroke-miterlimit:4;stroke-dasharray:none;stroke-opacity:1" />
  <path
     id="path854"
     d="m 1765.6464,1679.6044 -6.8943,7.2478 -2.6516,0.3535 -3.8891,-2.1213 0.3535,-4.7729 6.7175,-5.8337 4.5962,4.5962 5.6569,-1.0606 8.662,-9.3692 92.9846,-110.6622 36.7695,-9.8995 4.5962,-5.3033 23.6881,-2.2981 12.3744,9.5459 43.3103,26.163 0.3535,2.4749 -18.9151,32.1733 4.0659,6.1872 27.7539,9.7227 8.4853,8.1317 32.5269,11.6673 7.6014,-0.8839 4.2427,-3.0052 14.4956,-17.8544 2.8285,-0.5304 18.0312,10.9602 35.3553,12.7279 33.0573,-0.3535 1.4142,-13.4351 4.2426,-22.6274 4.0659,-1.4142 9.7227,4.5962 10.0763,0.5303 63.6396,13.0815 30.7591,-1.7678 28.8146,34.8251 8.4853,15.9099 7.2479,7.4246 6.1871,-5.1265 -7.2478,-7.4247 -6.364,5.1266"
     style="opacity:1;fill:none;fill-opacity:1;fill-rule:nonzero;stroke:#010101;stroke-width:5;stroke-linecap:butt;stroke-linejoin:round;stroke-miterlimit:4;stroke-dasharray:none;stroke-opacity:1" />
  <path
     id="path856"
     d="m 2330.2712,1684.7309 20.8596,23.3345 14.3189,-8.6621 37.4767,-16.9705 47.3761,-37.8302 19.2687,-13.0815 38.007,-35.1786 35.0018,-36.5927 4.2426,-5.1266 5.8336,-14.8492 40.8355,-55.5079 13.7885,-12.3744"
     style="opacity:1;fill:none;fill-opacity:1;fill-rule:nonzero;stroke:#010101;stroke-width:5;stroke-linecap:butt;stroke-linejoin:round;stroke-miterlimit:4;stroke-dasharray:none;stroke-opacity:1" />
  <path
     id="path858"
     d="m 2596.1433,1445.9056 11.1369,25.9861 74.9534,-50.3813 15.9099,-7.7782 106.4195,-24.2184 12.5512,-1.0607 41.0122,-0.1767 153.0886,-47.7298 2.2981,-3.889 -20.3293,-65.4074 2.2981,-3.8891 12.7279,-3.8891 1.7678,-3.0052 -18.0313,-61.5183 0.7071,-8.8388 139.8304,-143.0124 20.3293,-14.4957 56.7453,-41.1889 4.9498,-5.3033 18.208,-15.5564 9.3692,-11.6672 111.3693,-95.813 -5.6569,-6.7175 -11.3137,8.662 -1.0606,13.7886"
     style="opacity:1;fill:none;fill-opacity:1;fill-rule:nonzero;stroke:#010101;stroke-width:5;stroke-linecap:butt;stroke-linejoin:round;stroke-miterlimit:4;stroke-dasharray:none;stroke-opacity:1" />
  <path
     id="path860"
     d="m 2719.2836,1091.9756 15.4526,-16.7708 21.0365,-10.253 15.026,-8.8389 7.9549,-11.6672 4.2427,9.3691 -7.6014,3.0053 -4.0659,-1.591"
     style="opacity:1;fill:none;fill-opacity:1;fill-rule:nonzero;stroke:#010101;stroke-width:5;stroke-linecap:butt;stroke-linejoin:round;stroke-miterlimit:4;stroke-dasharray:none;stroke-opacity:1" />
  <path
     id="path862"
     d="m 2778.7536,1044.4457 17.5009,-16.617 13.0815,-4.9498 49.6743,-14.1421 19.4454,7.7782 8.8388,5.3033 39.0677,29.8752 4.2426,0.5304 14.4957,-18.9151 5.4801,0.7071 7.7782,4.0658 83.085,41.3658 24.7488,24.8371 1.6793,-4.0659 -1.4142,-6.9826 -5.7452,-4.9498 -19.2687,-8.8388"
     style="opacity:1;fill:none;fill-opacity:1;fill-rule:nonzero;stroke:#010101;stroke-width:5;stroke-linecap:butt;stroke-linejoin:round;stroke-miterlimit:4;stroke-dasharray:none;stroke-opacity:1" />
  <path
     id="path864"
     d="m 3071.4075,1110.1182 -5.2149,-5.8336"
     style="opacity:1;fill:none;fill-opacity:1;fill-rule:nonzero;stroke:#010101;stroke-width:5;stroke-linecap:butt;stroke-linejoin:round;stroke-miterlimit:4;stroke-dasharray:none;stroke-opacity:1" />
  <path
     id="path866"
     d="m 1919.25,1630 21.75,-13.25 4.75,20.25 -15.5,4.5 -13.75,-15.5 -5.5,-29.75 V 1577 l -4.8162,-28.2104"
     style="opacity:1;fill:none;fill-opacity:1;fill-rule:nonzero;stroke:#010101;stroke-width:5;stroke-linecap:butt;stroke-linejoin:round;stroke-miterlimit:4;stroke-dasharray:none;stroke-opacity:1" />
  <path
     id="path868"
     d="m 1912.5478,1542.7792 -14.1421,-62.4022 1.4142,-2.6516 80.4334,-10.6066 1.9446,1.7677 0.7071,25.4559 -3.7124,9.5459 -22.4506,36.5928 -6.867,9.5189"
     style="opacity:1;fill:none;fill-opacity:1;fill-rule:nonzero;stroke:#010101;stroke-width:5;stroke-linecap:butt;stroke-linejoin:round;stroke-miterlimit:4;stroke-dasharray:none;stroke-opacity:1" />
  <path
     id="path870"
     d="m 2469.5712,1631.5211 16.1788,17.7289 13,20.25 11.75,15 26,-20.75 33.5,29 21.75,176.75 -1.75,14.25 -52.5,-10.75 -2.25,1.75 -8,58 -17.25,13 -6.25,10.25 -7.75,4 -4.5,10.5 6.75,28.25 -14,10.75 -8.75,20.25 -5.25,6.25 -18,6.25 -8.25,-17.5 -5.5,-4.75 -5.75,-3 -10.5,-1.5 1.75,-16.75 -14.9495,-1.4234 -0.3005,5.4234 2.25,2.25 11.5,1.75"
     style="opacity:1;fill:none;fill-opacity:1;fill-rule:nonzero;stroke:#010101;stroke-width:5;stroke-linecap:butt;stroke-linejoin:round;stroke-miterlimit:4;stroke-dasharray:none;stroke-opacity:1" />
  <path
     id="path872"
     d="m 2920,1567 -33.75,-5 -1.25,-19.5 28.25,-4.75"
     style="opacity:1;fill:none;fill-opacity:1;fill-rule:nonzero;stroke:#010101;stroke-width:5;stroke-linecap:butt;stroke-linejoin:round;stroke-miterlimit:4;stroke-dasharray:none;stroke-opacity:1" />
  <path
     id="path874"
     d="M 3172.4086,1521.8684 3169.5,1515.25"
     style="opacity:1;fill:none;fill-opacity:1;fill-rule:nonzero;stroke:#010101;stroke-width:5;stroke-linecap:butt;stroke-linejoin:round;stroke-miterlimit:4;stroke-dasharray:none;stroke-opacity:1" />
  <path
     id="path876"
     d="M 2924.7259,1588.4931 2918.75,1619 l 3,3.5 18.25,4.25 -0.25,14.5 v 7.5 l 167,323.75 7,12.75 37.25,-13 4.75,-4 13.5,-5.25 1,-18.25 2,-5.5 3.5,-1.25 3.5,2.25 0.75,11.25 3,4.5 3.25,1.25 9.75,-1.75 6.5,0.25 266.25,-91.25 11.25,-15.25 9.25,4.25 64.5,196 5.25,1.5 76.25,-25.75 158,39.75 -23.25,96.75"
     style="opacity:1;fill:none;fill-opacity:1;fill-rule:nonzero;stroke:#010101;stroke-width:5;stroke-linecap:butt;stroke-linejoin:round;stroke-miterlimit:4;stroke-dasharray:none;stroke-opacity:1" />
  <path
     id="path878"
     d="m 3468.75,1864.5 14.25,-4.75 3,-7.5"
     style="opacity:1;fill:none;fill-opacity:1;fill-rule:nonzero;stroke:#010101;stroke-width:5;stroke-linecap:butt;stroke-linejoin:round;stroke-miterlimit:4;stroke-dasharray:none;stroke-opacity:1" />
  <path
     id="path880"
     d="m 2939.5,1643 -74.25,63.75 -4.5,7.5 -51,42 -7.75,11.25 -16.5,8.5 -43,47.25 1,3.5 2.25,1.75 6.5,1.5 51.75,42 14,5 82,56.5 2,5.5 -3.25,86 -31.9616,11.6933 10.2103,32.2595 33.2513,-11.2028 169,-58.25 34.5,-14.25"
     style="opacity:1;fill:none;fill-opacity:1;fill-rule:nonzero;stroke:#010101;stroke-width:5;stroke-linecap:butt;stroke-linejoin:round;stroke-miterlimit:4;stroke-dasharray:none;stroke-opacity:1" />
  <path
     id="path882"
     d="m 2590,1883.75 34.2508,5.158 242.5376,147.7853"
     style="opacity:1;fill:none;fill-opacity:1;fill-rule:nonzero;stroke:#010101;stroke-width:5;stroke-linecap:butt;stroke-linejoin:round;stroke-miterlimit:4;stroke-dasharray:none;stroke-opacity:1" />
  <path
     id="path884"
     d="m 2648.5,1904 -12.25,23.5 -1.75,25.5 5,3.5 -57.5,73 -31.5,75 -3.5,4.75 -6,1.25 -12,-3.25 -9.5,-1.25 -3.5,2.5 -12,20.75 10.5,87.75 19.5,-3 2.5,23.5 -6.25,9.75 -1.75,10.5 12,9.5 192.75,35.25 -3,15.5 -4.25,12.5 10.25,4 12.5,-29.25 -15.5,-2.75"
     style="opacity:1;fill:none;fill-opacity:1;fill-rule:nonzero;stroke:#010101;stroke-width:5;stroke-linecap:butt;stroke-linejoin:round;stroke-miterlimit:4;stroke-dasharray:none;stroke-opacity:1" />
  <path
     id="path886"
     d="m 2504,2129.25 -11,-0.25 -26.25,-48.5 -14.5,-38.25"
     style="opacity:1;fill:none;fill-opacity:1;fill-rule:nonzero;stroke:#010101;stroke-width:5;stroke-linecap:butt;stroke-linejoin:round;stroke-miterlimit:4;stroke-dasharray:none;stroke-opacity:1" />
  <path
     id="path888"
     d="m 2536.5,2237.5 40.75,-78.25 6.25,-9.5 9.5,-18.25 17.5,-2.3163 142.75,-17.1837 19.5,-7 104.2487,-36.0472"
     style="opacity:1;fill:none;fill-opacity:1;fill-rule:nonzero;stroke:#010101;stroke-width:5;stroke-linecap:butt;stroke-linejoin:round;stroke-miterlimit:4;stroke-dasharray:none;stroke-opacity:1" />
  <path
     id="path890"
     d="m 2528.5,2257.75 -20.5,50.5 -16.25,25.75 -15.25,27.75 -48.5,16.75 -2,4.75 14.75,38.75 8,32.25 2,25.25 1.5,22 84.5403,28.3455 4.4597,5.1545 56.5,135.25 7.5,2.75 7.75,-1.25 100.75,-52.25 10.25,-4.75 1.5,-3.5 -3.25,-3 -4.5,1.5 -3.25,3.25 -2.5,8"
     style="opacity:1;fill:none;fill-opacity:1;fill-rule:nonzero;stroke:#010101;stroke-width:5;stroke-linecap:butt;stroke-linejoin:round;stroke-miterlimit:4;stroke-dasharray:none;stroke-opacity:1" />
  <path
     id="path892"
     d="M 2458,2368.75 2492.5,2333"
     style="opacity:1;fill:none;fill-opacity:1;fill-rule:nonzero;stroke:#010101;stroke-width:5;stroke-linecap:butt;stroke-linejoin:round;stroke-miterlimit:4;stroke-dasharray:none;stroke-opacity:1" />
  <path
     id="path894"
     d="m 2428,2378.5 -51,19.75 -38,30.5 -3.5,-1.5 3.25,-8.5 -85.5,-39 -38.5,3.75 -2,3.5 1.25,9 1.75,18 2.5,7.25 0.5,25.75 -7.5,51 -28.5,111 2.75,16.75 -3.25,44 -3.5,3.5 -69.75,3 1.75,22 -3.25,27.25 4.25,36.25 -0.25,3.75 -3.25,5 -10.75,12 -5.5,5.25 -3.3713,4.6463 -0.7537,22.6037 -3.5002,19.8401 -7.7782,23.5113 -0.8839,17.5008 9.3692,83.4386 12.4181,99.9592 10.5,72.25 78.25,22.75 121.75,25.75 7.25,-1.75 109,22.25 36.5,3.5 4,-24.5 217,-102.75 8.25,-8.75"
     style="opacity:1;fill:none;fill-opacity:1;fill-rule:nonzero;stroke:#010101;stroke-width:5;stroke-linecap:butt;stroke-linejoin:round;stroke-miterlimit:4;stroke-dasharray:none;stroke-opacity:1" />
  <path
     id="path896"
     d="m 2109,2676.25 -25.5,-0.25 -4.25,-3.25 -126,-5.5 -3,16 -0.5,9 2,11.5 7,22 30.25,-3 -1,32.25 33.5,60.25 0.5,9.5 5.25,10.25 v 3.75 l -48,93 -98.5,68.25 -7,9 -85.75,141.25 -6.25,4.75 -4.25,7 -7.875,-3 3.625,-6.5 8.5,2.5"
     style="opacity:1;fill:none;fill-opacity:1;fill-rule:nonzero;stroke:#010101;stroke-width:5;stroke-linecap:butt;stroke-linejoin:round;stroke-miterlimit:4;stroke-dasharray:none;stroke-opacity:1" />
  <path
     id="path898"
     d="m 1769.625,3159 -12.6407,8.7106 -1.7677,3.182 3.3587,6.0104 -0.1767,3.889 -37.6535,24.2185 -6.7175,-1.591 -213.3695,-129.5774 -16.0866,21.9204 h -4.2427 l -132.229,-133.9968 -6.3639,5.8337 6.5408,6.3639 6.5407,-5.6568"
     style="opacity:1;fill:none;fill-opacity:1;fill-rule:nonzero;stroke:#010101;stroke-width:5;stroke-linecap:butt;stroke-linejoin:round;stroke-miterlimit:4;stroke-dasharray:none;stroke-opacity:1" />
  <path
     id="path900"
     d="m 1500.6581,3073.8421 67.8823,-99.1717 L 1844,2699.75 l 29.25,-1.5 76.75,-20"
     style="opacity:1;fill:none;fill-opacity:1;fill-rule:nonzero;stroke:#010101;stroke-width:5;stroke-linecap:butt;stroke-linejoin:round;stroke-miterlimit:4;stroke-dasharray:none;stroke-opacity:1" />
  <path
     id="path902"
     d="m 2083.5,2676 -4.75,4.25 -127,-5"
     style="opacity:1;fill:none;fill-opacity:1;fill-rule:nonzero;stroke:#010101;stroke-width:5;stroke-linecap:butt;stroke-linejoin:round;stroke-miterlimit:4;stroke-dasharray:none;stroke-opacity:1" />
  <path
     id="path904"
     d="m 1953.25,2667.25 32.75,-152 13.25,-82.25 8.25,-0.25"
     style="opacity:1;fill:none;fill-opacity:1;fill-rule:nonzero;stroke:#010101;stroke-width:5;stroke-linecap:butt;stroke-linejoin:round;stroke-miterlimit:4;stroke-dasharray:none;stroke-opacity:1" />
  <path
     id="path950"
     d="m 2212.75,2387 -10,-19.25 -15.75,-46 -8.5,-16.25 -10.25,-18.25 -11.25,-35.5 -3.75,-27.5 0.25,-18.5 3.25,-5.75 13.75,-11.75 9.25,-2.25 22,-22.5 25.4604,-30.2866 26.3397,-33.9412 3.0052,-9.1924 6.8943,-12.1976 3.8891,-2.1213 10.253,-4.5962 6.5408,-0.8838 6.5406,-3.7123 3.8891,-5.657 11.3137,-24.0416 8.8389,-30.7591 0.7072,-9.1924 -1.7679,-8.8388 -11.1368,-22.6274 -6.364,-29.1682 -1.591,-9.5459 -1.0607,-10.2531 -13.7886,-23.1577 -21.9203,-20.5061 -20.3293,-16.9706 -6.0104,5.3033 18.7383,18.5616 16.617,18.7383 5.6569,7.4246 12.0208,25.6326 18.0313,33.9412"
     style="opacity:1;fill:none;fill-opacity:1;fill-rule:nonzero;stroke:#010101;stroke-width:5;stroke-linecap:butt;stroke-linejoin:round;stroke-miterlimit:4;stroke-dasharray:none;stroke-opacity:1" />
  <path
     id="path1033"
     d="m 2108,3131.5 19,100.5 7.5,19.5 1.25,14 -3.5,14.5 -5.25,16.5 -12,30.25 -11.5,21.75 1,29.75 -0.25,14.75 -3,9 -5.25,5.75 -8.75,3.5 -9.5,0.5 -40.25,-8.5 -16,-1.5 -75.5,110.5 -3,10.75 2.5,243 -2.75,33.25 -4.75,24.5 -9.75,32.5 -8.5,20.25 -50.75,104.75 -5,15 -17.25,71.5 -3.25,22 -17,95.75 -5,36.5 -30,220.25"
     style="opacity:1;fill:none;fill-opacity:1;fill-rule:nonzero;stroke:#010101;stroke-width:5;stroke-linecap:butt;stroke-linejoin:round;stroke-miterlimit:4;stroke-dasharray:none;stroke-opacity:1" />
  <path
     id="path1035"
     d="m 1967,3481.5 6,4.5 -6.75,9.75 -5.75,-4.375"
     style="opacity:1;fill:none;fill-opacity:1;fill-rule:nonzero;stroke:#010101;stroke-width:5;stroke-linecap:butt;stroke-linejoin:round;stroke-miterlimit:4;stroke-dasharray:none;stroke-opacity:1" />
  <path
     id="path1037"
     d="m 1945,3704.25 h -9.75 l 0.25,15.5 h 10"
     style="opacity:1;fill:none;fill-opacity:1;fill-rule:nonzero;stroke:#010101;stroke-width:5;stroke-linecap:butt;stroke-linejoin:round;stroke-miterlimit:4;stroke-dasharray:none;stroke-opacity:1" />
</svg>
