<?xml version="1.0" encoding="UTF-8" standalone="no"?>
<svg
   xmlns:dc="http://purl.org/dc/elements/1.1/"
   xmlns:cc="http://creativecommons.org/ns#"
   xmlns:rdf="http://www.w3.org/1999/02/22-rdf-syntax-ns#"
   xmlns:svg="http://www.w3.org/2000/svg"
   xmlns="http://www.w3.org/2000/svg"
   xmlns:xlink="http://www.w3.org/1999/xlink"
   id="svg2"
   viewBox="0 0 1200 2110"
   height="2110"
   width="1200"
   version="1.2">
  <metadata
     id="metadata70">
    <rdf:RDF>
      <cc:Work
         rdf:about="">
        <dc:format>image/svg+xml</dc:format>
        <dc:type
           rdf:resource="http://purl.org/dc/dcmitype/StillImage" />
        <dc:title></dc:title>
      </cc:Work>
    </rdf:RDF>
  </metadata>
  <defs
     id="defs6" />
  <image
     xlink:href="../../timelines/streetmap/nycosm.png"
     id="image12"
     height="5376"
     width="5888"
     y="-2106"
     x="-2552"
     style="display:none;stroke:#f2f2f2" />
  <path
     style="fill:none;stroke:#f2f2f2;stroke-width:8;stroke-linecap:butt;stroke-linejoin:round;stroke-miterlimit:4;stroke-dasharray:none;stroke-opacity:1"
     id="path3622-5"
     d="M 547.5763,240.9826 569.756,235.996" />
  <path
     style="fill:none;stroke:#f2f2f2;stroke-width:8;stroke-linecap:butt;stroke-linejoin:round;stroke-miterlimit:4;stroke-dasharray:none;stroke-opacity:1"
     id="path3626"
     d="m 551,233 27,-46 14,-27 21,-14 27,5 209,113 55,36 74.75,49.25 68.25,47.25 19.5,-1.25" />
  <path
     style="fill:none;stroke:#f2f2f2;stroke-width:8;stroke-linecap:butt;stroke-linejoin:round;stroke-miterlimit:4;stroke-dasharray:none;stroke-opacity:1"
     id="path3620-7"
     d="m 479.5,207.4995 25,-6.5 53.5,31 196,110 107,82 123.537,31.2651 50.6325,-22.9939 13.0597,-12.2882 32.364,-27.2203 15.3175,-7.4481 82.0893,-6.3146 82,-22.5 32,-0.25 56.1399,11.5912 18.3601,-0.8412 17.5,-3 16.75,5.5 264.25,149.5 42.5,32.5 25.25,28.75 4.75,24.5 4.75,23 26.5,22.5 121.25,59.25 145.5,73.25 32.25,37.5 96.5,56 57.25,34.25 54,51 74.5,39.5" />
  <path
     style="fill:none;stroke:#f2f2f2;stroke-width:8;stroke-linecap:butt;stroke-linejoin:round;stroke-miterlimit:4;stroke-dasharray:none;stroke-opacity:1"
     id="path3055-5"
     d="m 974.5,387 0,30.5 4.5,8.5 15,10 10.5339,-0.9746 20.1356,-0.7118" />
  <path
     style="fill:none;stroke:#f2f2f2;stroke-width:8;stroke-linecap:butt;stroke-linejoin:round;stroke-miterlimit:4;stroke-dasharray:none;stroke-opacity:1"
     id="path3620"
     d="m 2350,1001 42,29 34,75 31,84 19,13 166,-61" />
  <path
     style="fill:none;stroke:#f2f2f2;stroke-width:8;stroke-linecap:butt;stroke-linejoin:round;stroke-miterlimit:4;stroke-dasharray:none;stroke-opacity:1"
     id="path3622"
     d="m 2395.9997,1025 38,89 22,5 247,-94 62,-30 18,2 38,-9" />
  <path
     style="fill:none;stroke:#f2f2f2;stroke-width:8;stroke-linecap:butt;stroke-linejoin:round;stroke-miterlimit:4;stroke-dasharray:none;stroke-opacity:1"
     id="path7674"
     d="M 1402.7086,371.3627 1381.5,354.4995 1259.805,276.711 1254,276.272 l -3.928,2.792 -53.072,81.9355 -15.0882,17.4356" />
  <path
     style="fill:none;stroke:#f2f2f2;stroke-width:8;stroke-linecap:butt;stroke-linejoin:round;stroke-miterlimit:4;stroke-dasharray:none;stroke-opacity:1"
     id="path3608"
     d="m 66,2125 c 1,4 6,17 6,17 l 53,18 59,22 151,122 26,47 132,105 15,21 7,18 35,248 16,101 -6,51 -20,82 -6,16 -5,25 5,47" />
  <path
     style="fill:none;stroke:#f2f2f2;stroke-width:8;stroke-linecap:butt;stroke-linejoin:round;stroke-miterlimit:4;stroke-dasharray:none;stroke-opacity:1"
     id="path3636"
     d="M 247.6441,1889.7458 252,1908 l 130,104 12,19 -16,17 -4,86 -11,98 -53,242 -23,101 5,37 13,17 168,128 11,21 17,122 5,20 15,17 11,18 -3,37 -5,25 4,45" />
  <path
     style="fill:none;stroke:#f2f2f2;stroke-width:8;stroke-linecap:butt;stroke-linejoin:round;stroke-miterlimit:4;stroke-dasharray:none;stroke-opacity:1"
     id="path3604"
     d="M 550.8968,1356.381 561,1409 l -8,18.5 -55.5,112 -57.5,92.5 -52,79 -144,184 -137,179 -61,78 -96,308" />
  <path
     style="fill:none;stroke:#f2f2f2;stroke-width:8;stroke-linecap:butt;stroke-linejoin:round;stroke-miterlimit:4;stroke-dasharray:none;stroke-opacity:1"
     id="path3614"
     d="m 273,565 288,160 75,44 123,103 101,82 14,10 28,0 77.3097,-10.3708 4.1869,1.6359 2.4361,3.0499 L 1000,997 l 11,67 4.7134,29.0658 3.8034,4.159 5.113,2.267 L 1103,1084 l 73,-16 17,-1 71,59 187,140 10,20 0,13 -46,70 -6,28 -2,32 11,28 13,23 5,22" />
  <path
     style="fill:none;stroke:#f2f2f2;stroke-width:8;stroke-linecap:butt;stroke-linejoin:round;stroke-miterlimit:4;stroke-dasharray:none;stroke-opacity:1"
     id="path2955"
     d="m 315.9998,656.5 -98,20.5 -6.5,27 -136.5,-4.5 -116,-3 -23.5,-1.5 -15,-4 -7.5,-7.5 1,-21 5.5,-22 8.5,-6 14,-1 42.5,2" />
  <path
     style="fill:none;stroke:#f2f2f2;stroke-width:8;stroke-linecap:butt;stroke-linejoin:round;stroke-miterlimit:4;stroke-dasharray:none;stroke-opacity:1"
     id="path3592"
     d="m 540.7388,221.3622 5.9428,20.499 L 345,609 l -28,56 -31,70 1,17 49,32 77,33 49,21 5,9 -25,61 -18,53 8,63 2,19 31,65 -3,161 -4,46 -39,75 -43,89 -28,55 -9,23 9,16 91,67 33,16 103,64 2,12 -46.5,74 0.25,9.5 52.25,41 11.5,79.25 1.75,13.25 -5.2668,10.6337 L 542,1985" />
  <path
     style="fill:none;stroke:#f2f2f2;stroke-width:8;stroke-linecap:butt;stroke-linejoin:round;stroke-miterlimit:4;stroke-dasharray:none;stroke-opacity:1"
     id="path3772"
     d="m -87.5002,681.5 -7,51.5 2.5,18.5 -1.5,15 -9,17.5 -10,39.5 -6.5,52.5 -3,23.5 5.4635,11.0134 21.5365,6.4866 45.8732,12.6119 191.2387,74.1493 4.0823,4.5074 2.5075,5.6418 6.8955,3.4478 5.0149,-4.3881 4.3881,-25.7015 -2.5075,-5.6417 -4.388,-2.1941 -4.3881,1.5672 -3.4477,1.5672 L -3.3134,939 l -30.0895,-9.0896 -47.6419,-9.4029" />
  <path
     style="fill:none;stroke:#f2f2f2;stroke-width:8;stroke-linecap:butt;stroke-linejoin:round;stroke-miterlimit:4;stroke-dasharray:none;stroke-opacity:1"
     id="path3015"
     d="m 558.5424,218.9491 -20.6441,39.1526" />
  <path
     style="fill:none;stroke:#f2f2f2;stroke-width:8;stroke-linecap:butt;stroke-linejoin:round;stroke-miterlimit:4;stroke-dasharray:none;stroke-opacity:1"
     id="path3610"
     d="m 548,155 17,-2 41.9232,27.8761 23.2985,3.2712 154.81,85.0742 198.9481,122.302" />
  <path
     style="fill:none;stroke:#f2f2f2;stroke-width:8;stroke-linecap:butt;stroke-linejoin:round;stroke-miterlimit:4;stroke-dasharray:none;stroke-opacity:1"
     id="path3638"
     d="m 973,460 -73,40 -61,45 -10,46 13,121 8,29 42,97 -1,11 -26,42 4,28 22,187 -2,54 4,41 17,123 -2,7 -308.5932,47.9153 -47.3729,6.983 -14.2203,-2.4068 -70.3051,-34.9322 -28.305,1.8474" />
  <path
     style="fill:none;stroke:#f2f2f2;stroke-width:8;stroke-linecap:butt;stroke-linejoin:round;stroke-miterlimit:4;stroke-dasharray:none;stroke-opacity:1"
     id="path3663"
     d="m 1010.4997,408.5003 -25,-15.5 -13,14.5 -20,30 -10.5,36.5 12,27.5 -2.5,9.5 -39.5,21 -26,2 -71,-19 -37.5,-21.5 -72,-39 -118.5,-62.5 -24.5,-13 -52,-30 -20.5,-1.5 -42,-23 -115.224,-63.7987 -5.7624,0 -6.6489,3.9893 -31.9148,58.0672" />
  <path
     style="fill:none;stroke:#f2f2f2;stroke-width:8;stroke-linecap:butt;stroke-linejoin:round;stroke-miterlimit:4;stroke-dasharray:none;stroke-opacity:1"
     id="path3821"
     d="m -68.5002,694 -14.5,3.5 -7.5,9.5" />
  <path
     style="fill:none;stroke:#f2f2f2;stroke-width:8;stroke-linecap:butt;stroke-linejoin:round;stroke-miterlimit:4;stroke-dasharray:none;stroke-opacity:1"
     id="path3590"
     d="m 1238,-1404 -42,20 -45,21 -35,32 -30,46 -12,21 -30,59 -40,144 11,30 4,6 -12,97 1,33 -27,99 -11,42 -21,37 -26,76 -20,54 -33,51 -12,22 0,32 -15,29 -509,926 -55,101 36,86 -24,49 -19,50 -22,74 -3,30 2,36 -12,23 -45,71 0,0 0,0" />
  <path
     style="fill:none;stroke:#f2f2f2;stroke-width:8;stroke-linecap:butt;stroke-linejoin:round;stroke-miterlimit:4;stroke-dasharray:none;stroke-opacity:1"
     id="path3938"
     d="m -134.0002,904.5 24,8" />
  <path
     style="fill:none;stroke:#f2f2f2;stroke-width:8;stroke-linecap:butt;stroke-linejoin:round;stroke-miterlimit:4;stroke-dasharray:none;stroke-opacity:1"
     id="path3616"
     d="m 543,1986 -2,12 18,124 2,32 70,479 3,26 -20,180 -7,68 -1,117 -3,26 2,20 -2,9 -28,7 -29,-4 -10,-3 -3,-17" />
  <path
     style="fill:none;stroke:#f2f2f2;stroke-width:8;stroke-linecap:butt;stroke-linejoin:round;stroke-miterlimit:4;stroke-dasharray:none;stroke-opacity:1"
     id="path3618"
     d="m 195,986 0,19 54,40 33,52 72,74 28,12 45,15 20,2 16.4068,12.0678 -1.7797,56.9661 -4.7796,47.5085 -4.8644,9.3051 L 457,1340 l 10,9 69,34 16,4 33,-6 32,15 66,35 139,38 32,9 82,7 232,16 237,18 48,-6 30,7 24,19 10,40 4,20 13,11 207,-39 60,-13" />
  <path
     style="fill:none;stroke:#f2f2f2;stroke-width:8;stroke-linecap:butt;stroke-linejoin:round;stroke-miterlimit:4;stroke-dasharray:none;stroke-opacity:1;marker-start:none"
     id="path3823"
     d="m -122.0002,900.5002 -8.251,5.6018 -61.7672,-25.7572" />
  <path
     style="fill:none;stroke:#f2f2f2;stroke-width:8;stroke-linecap:butt;stroke-linejoin:round;stroke-miterlimit:4;stroke-dasharray:none;stroke-opacity:1"
     id="path3628"
     d="m 1800,1558 70,-12 14,-16 30,-27 28,-6 174,-12 55,-14 44,-16 43,-31 48,-24 49,-8" />
  <path
     style="fill:none;stroke:#f2f2f2;stroke-width:8;stroke-linecap:butt;stroke-linejoin:round;stroke-miterlimit:4;stroke-dasharray:none;stroke-opacity:1"
     id="path3630"
     d="m 2159,1476 14,5 74,201 52,144 9,29 75,371 66,343 10,40 69,208 13,26 26,18 32,6 101,-15 54,-19 62,3 86,-8 72,-12 70,-56 35,-29 24,-34 69,-50" />
  <path
     style="fill:none;stroke:#f2f2f2;stroke-width:8;stroke-linecap:butt;stroke-linejoin:round;stroke-miterlimit:4;stroke-dasharray:none;stroke-opacity:1"
     id="path3632"
     d="m 2449,2593 23,74 43,131 14,43 -3,22 -19,22 -59,33 -68,33 -103,41 -70,28" />
  <path
     style="fill:none;stroke:#f2f2f2;stroke-width:8;stroke-linecap:butt;stroke-linejoin:round;stroke-miterlimit:4;stroke-dasharray:none;stroke-opacity:1"
     id="path3634"
     d="m 402.5,812 6.5,18.5 -41,109.5 30,71 58,142 72,181 17.0482,18.8981 9.5176,12.3871" />
  <path
     style="fill:none;stroke:#f2f2f2;stroke-width:8;stroke-linecap:butt;stroke-linejoin:round;stroke-miterlimit:4;stroke-dasharray:none;stroke-dashoffset:0;stroke-opacity:1;marker-start:none"
     id="path5243"
     d="m -192.0184,880.3448 -55.9818,-23.3446 -61.5,-26.0002 -14,-11 -17.5,-31.5 -12.5,-22.5 -23.5,-30 -49,-53 -15.5,-19.5 -24.5,-25.5 -31.5,-15 -62.5,-26 -103.5,-34 -29.5,-12.5 -14.5,-3.5 -105.5,-4 -73.5,-3.5 -55.5,-4.5 -87,-14 -55,-4 -78.5,-2 -46,4 -85.5,6.5 -104.5,10.5 -55.5,8.5 -16,5.5 -47.5,37 -24.5,24.5 -20,10 -22.5,17.5 -31,27.5" />
  <path
     style="fill:none;stroke:#f2f2f2;stroke-width:8;stroke-linecap:butt;stroke-linejoin:round;stroke-miterlimit:4;stroke-dasharray:none;stroke-opacity:1"
     id="path2826"
     d="m 551,155 -81,156 -9,41 -9,48 -9,74 -32,210 -8,19 -45,70 -68,106" />
  <path
     style="fill:none;stroke:#f2f2f2;stroke-width:8;stroke-linecap:butt;stroke-linejoin:round;stroke-miterlimit:4;stroke-dasharray:none;stroke-opacity:1"
     id="path3650"
     d="m -1585.5002,644 -107.5,-42.5 -97,-38.5 -14,-11.5 -2.5,-17 10,-22 -2,-9.5 -6,-9.5 -29.5,-14.5 -15,-8.5 -5.5,-9 -6,-17.5 0.5,-19.5 12.5,-20.5 13,-11 1,-10 1,-10.5 -6,-23.5 -5.5,-18 -4.5,-19.5 3,-28.5 14,-39 27.5,-33.5 13,-23 29,-55 6.5,-16.5 -2.5,-18 -10,-44 4,-15 9,-25 24.5,-45 6.5,-12.4999 -0.5,-13.5 -2.5,-12 -6,-4 -17,7 -14,7 -16.5,3 -18.5,1 -86.5,-1.5" />
  <path
     style="fill:none;stroke:#f2f2f2;stroke-width:8;stroke-linecap:butt;stroke-linejoin:round;stroke-miterlimit:4;stroke-dasharray:none;stroke-opacity:1"
     id="path3600"
     d="m 291,877 -80,124 -8,2 -10.2388,-5.0597 -4.5093,2.8121 L 168,1042 l -17,32 2,34.5 3.5,20.5 6.1269,27.7761 18.9403,17.3433 L 278,1220 l 55,24 90,35 11,16 14,5 64.5168,3.0067" />
  <path
     style="fill:none;stroke:#f2f2f2;stroke-width:8;stroke-linecap:butt;stroke-linejoin:round;stroke-miterlimit:4;stroke-dasharray:none;stroke-opacity:1"
     id="path3660"
     d="m -122.5002,660.5 3.5,5.5" />
  <path
     style="fill:none;stroke:#f2f2f2;stroke-width:8;stroke-linecap:butt;stroke-linejoin:round;stroke-miterlimit:4;stroke-dasharray:none;stroke-opacity:1"
     id="path3602"
     d="m 291,876 2,12 31,28 31,16 17.0471,17.5101" />
  <path
     style="fill:none;stroke:#f2f2f2;stroke-width:8;stroke-linecap:butt;stroke-linejoin:round;stroke-miterlimit:4;stroke-dasharray:none;stroke-opacity:1"
     id="path3606"
     d="m 554.2,1365 13.4004,7.7722 6.8996,50.7278 14.5,32 76,142.5 82,148 6,126 -35,155 31,216 52,357 39,276 1,48 -65,130 -91,27 -63,-6 -43,17 -43,-6 -6,-8 -3,-16" />
  <path
     style="fill:none;stroke:#f2f2f2;stroke-width:8;stroke-linecap:butt;stroke-linejoin:round;stroke-miterlimit:4;stroke-dasharray:none;stroke-opacity:1"
     id="path3617"
     d="m 1435,1497 8,26 -4,40 -3,16 35,171 28,143 -8,25 -47,97" />
  <path
     style="fill:none;stroke:#f2f2f2;stroke-width:8;stroke-linecap:butt;stroke-linejoin:round;stroke-miterlimit:4;stroke-dasharray:none;stroke-opacity:1"
     id="path3619"
     d="m 185,1071 19,-26 23,-31 17,-17 16,-13 20,-23 50,-90 10,-14 11,-3.5 159,68.5 224,91 32,12 14,16 93,43 154,115 72,55 320,239 56,43 107,-19 24,-6 187,-77 7,-9 -20,-76 4,-8 23,-11 50,-17 88,-17 54,-3 24,-9 43,-18 44,-10 62,-2 23,-12 43,-38 30,-19 31,-8 61,-16 18,-2 25,19 18,17 39,12 24,-2 160,-59" />
  <path
     style="fill:none;stroke:#f2f2f2;stroke-width:8;stroke-linecap:butt;stroke-linejoin:round;stroke-miterlimit:4;stroke-dasharray:none;stroke-opacity:1"
     id="path2929"
     d="m -62.0002,-175 14.5,22.5 17.5,14.5 148.5,99 39,26 5,8.5 0,11 -4,15.5 -19.5,39 -8.5,26 -7.5,17 -14,20.5 -20,25 -21,37.5 -23,27.5 -18.5,28.5 -18.5,29.5 -10.5,12 -13.5,7.5 -14.5,2.5 -21,-7.5 -11.5,0.5 -11,3 -9,7.5 -8.5,20.5 -45.5,103 -10.5,30 -9,16 -21,33.5 -6.5,17 -4.5,24.5 -6,14 -4,25 -5,16.5 -9.5,17.5 -4.5,6 1,5.5 5.5,4 39,2 17.5,5 14.5,15 9.5,6 58.5,7 10,-1 18,-5.5 14.5,-0.5" />
  <path
     style="fill:none;stroke:#f2f2f2;stroke-width:8;stroke-linecap:butt;stroke-linejoin:round;stroke-miterlimit:4;stroke-dasharray:none;stroke-opacity:1"
     id="path3623"
     d="m 1599,992 -11,45 -26,33 -168,56 -46,59 -29,7 -230,29 -7,9 -5,3" />
  <path
     style="fill:none;stroke:#f2f2f2;stroke-width:8;stroke-linecap:butt;stroke-linejoin:round;stroke-miterlimit:4;stroke-dasharray:none;stroke-opacity:1"
     id="path3625"
     d="M 408.5101,876.5303 400,856" />
  <path
     style="fill:none;stroke:#f2f2f2;stroke-width:8;stroke-linecap:butt;stroke-linejoin:round;stroke-miterlimit:4;stroke-dasharray:none;stroke-opacity:1"
     id="path3703"
     d="m -113.0002,660 -6.5,7.5 -1,21 11,19.5 5.5,10 -5,27.5 -3.5,41 -9,18.5 -3,46.5 3.5,3 32.5,12" />
  <path
     style="fill:none;stroke:#f2f2f2;stroke-width:8;stroke-linecap:butt;stroke-linejoin:round;stroke-miterlimit:4;stroke-dasharray:none;stroke-opacity:1"
     id="path3627"
     d="m 578,383 -14,7 -105,194 -33,56 0,34 -9,36 -54,84 -18,29 -7,25 -53,73 -14,25 -3,16 -19,27 -31,15" />
  <path
     style="fill:none;stroke:#f2f2f2;stroke-width:8;stroke-linecap:butt;stroke-linejoin:round;stroke-miterlimit:4;stroke-dasharray:none;stroke-opacity:1"
     id="path3629"
     d="m 223,1001 -16,9 -29.5,46.5 -31.5,54.5 -4.572,14.4779 1.8965,9.398 10.6316,20.472 24.083,22.7706 L 226,1212 l 79,59 31,8 106.0538,21" />
  <path
     style="fill:none;stroke:#f2f2f2;stroke-width:1;stroke-linecap:butt;stroke-linejoin:miter;stroke-miterlimit:4;stroke-dasharray:none;stroke-opacity:1"
     id="path3707"
     d="m -174.5002,973 35.5,5.5 41,6.5 5,-3.5 6.5,-54.5 -4.5,-14.5 4.5,-43 -4.5,-3.5" />
  <path
     style="fill:none;stroke:#f2f2f2;stroke-width:8;stroke-linecap:butt;stroke-linejoin:round;stroke-miterlimit:4;stroke-dasharray:none;stroke-opacity:1"
     id="path3631"
     d="m 578,384 15,-3 119,-214 68,-122 70,-129 177,-319 12,-22" />
  <path
     style="fill:none;stroke:#f2f2f2;stroke-width:8;stroke-linecap:butt;stroke-linejoin:round;stroke-miterlimit:4;stroke-dasharray:none;stroke-opacity:1"
     id="path3633"
     d="m 1037,-423 27,-47 29,-50 35,-48 9,-17 28,-87 3,-11 -11,-64 7,-20 31,-67 36,-81 7,-19 13,-12 72,-132 33,-62 54,-74 18,-37 20,-48 47,-79 35,-62 39,-29 23,-20 13,-20 15,-37 47,-53 25,-31 35,-62" />
  <path
     style="fill:none;stroke:#f2f2f2;stroke-width:8;stroke-linecap:butt;stroke-linejoin:round;stroke-miterlimit:4;stroke-dasharray:none;stroke-opacity:1"
     id="path3637"
     d="m 1823,-1061 10,-22 22,-26 55,-57 58,-62 30,-40 36,-59 48,-72 91,-142 69,-107 49,-90" />
  <path
     style="fill:none;stroke:#f2f2f2;stroke-width:8;stroke-linecap:butt;stroke-linejoin:round;stroke-miterlimit:4;stroke-dasharray:none;stroke-opacity:1"
     id="path3639"
     d="m 1120,-555 9,-1 34,34 117,63 45,27 13,-4 39,-24 9,-31 4,-21 31,-27 14,-8 49,-19 77,-95 22,-18 36,-26 15,-44 1,-30 11,-11 61,-6 36,-5 53,-21 122,-46 144,-22 85,-92 58,-39 61,-63 15,-23 13,-44 29,-20" />
  <path
     style="fill:none;stroke:#f2f2f2;stroke-width:8;stroke-linecap:butt;stroke-linejoin:round;stroke-miterlimit:4;stroke-dasharray:none;stroke-opacity:1"
     id="path3641"
     d="m 459,318 20,-37 8,-25 18,-38 12,-31 5,-33 -5,-56 -1,-119 12,-54 32,-67 54,-86 26,-48 36,-67 5,-14 2,-32 5,-19 97,-173 123,-222 102,-185 127,-229 20,-36 20,-36 14,-20 49,-23 13,-14 57,-108 72,-74 16,-11 51,-89 46,-111" />
  <path
     style="fill:none;stroke:#f2f2f2;stroke-width:8;stroke-linecap:butt;stroke-linejoin:round;stroke-miterlimit:4;stroke-dasharray:none;stroke-opacity:1"
     id="path3643"
     d="m 678,-345 12,-4 82,44 91,-26 156,-280 22,-37 35,-6 50,-1 14,1 130,44 14,7 27,-11 55,6 196,-132.5 1.5,-82 34.5,-83.5 17,-34 32,-24 21,-8 29,-5 15,-16 9,-6 24,7 24,-5 40,-37 15,-48 11,-14 15,-32 2,-114 7,-296 17,-40 22,-36 101,-244 46,-81" />
  <path
     style="fill:none;stroke:#f2f2f2;stroke-width:8;stroke-linecap:butt;stroke-linejoin:round;stroke-miterlimit:4;stroke-dasharray:none;stroke-opacity:1"
     id="path3645"
     d="m 1041,-729 26,15 4,7 -36,67" />
  <path
     style="fill:none;stroke:#f2f2f2;stroke-width:8;stroke-linecap:butt;stroke-linejoin:round;stroke-miterlimit:4;stroke-dasharray:none;stroke-opacity:1"
     id="path3647"
     d="m 462,314 -98,182 -57,100 -31,69 -27,65 -16,116 -7,52 -39,72 -13,18 -16,53 -13,36 -12.5,49 10,20.5 13.5,16" />
  <path
     style="fill:none;stroke:#f2f2f2;stroke-width:8;stroke-linecap:butt;stroke-linejoin:round;stroke-miterlimit:4;stroke-dasharray:none;stroke-opacity:1"
     id="path3711"
     d="m -1904.2357,1111.203 -24.7488,56.5685 -3.5355,15.5564 5.6568,10.6066 9.8995,4.2426 16.2635,-3.5355 31.1127,-8.4853 10.6066,2.8284 52.3259,45.962 7.0711,5.6568 9.1924,-1.4142 18.3847,-2.1213 12.0208,4.2426 14.1422,13.4351 5.6568,26.1629 -1.4142,25.4559 -11.3137,26.1629 -18.3848,26.8701 -19.0918,13.435 -15.5564,4.9498 -13.435,-1.4143 -16.9706,-9.8995 -5.6568,-9.8994 -5.6569,-12.0209 -5.6568,-4.9497 -7.7782,-2.1213 -40.3051,6.3639 -7.7782,5.6569 -2.1213,12.0208 -3.5355,56.5685" />
  <path
     style="fill:none;stroke:#f2f2f2;stroke-width:8;stroke-linecap:butt;stroke-linejoin:round;stroke-miterlimit:4;stroke-dasharray:none;stroke-opacity:1"
     id="path3649"
     d="m 191.5,960 4,13 22.5,14 20.5,25 5.5,8.5 -24,31.5 -21.5,29.5 -5,16 3.5,12.5 42.5,42.5 11.5,9.5 94.5,41 60,22 3,6.5 11,42 4,13.5 6.5,7 36,19 57,32 12,11 35.5,73" />
  <path
     style="fill:none;stroke:#f2f2f2;stroke-width:8;stroke-linecap:butt;stroke-linejoin:round;stroke-miterlimit:4;stroke-dasharray:none;stroke-opacity:1"
     id="path3651"
     d="m 569,1425.5 53.5,104.5 31.5,57 82,24 94.5,26 55.5,4.5" />
  <path
     style="fill:none;stroke:#f2f2f2;stroke-width:8;stroke-linecap:butt;stroke-linejoin:round;stroke-miterlimit:4;stroke-dasharray:none;stroke-opacity:1"
     id="path3621"
     d="m 822,1471 2,14 -67.5,257.5 -9.8433,24.8922" />
  <path
     style="fill:none;stroke:#f2f2f2;stroke-width:8;stroke-linecap:butt;stroke-linejoin:round;stroke-miterlimit:4;stroke-dasharray:none;stroke-opacity:1"
     id="path3653"
     d="m 883,1640.5 231.5,16.5 62.5,8.5 12,22 3.5,13 21.5,24 39.5,46.5 10,5.5 95,-17 101.5,-21 170,-33 47.5,-9" />
  <path
     style="fill:none;stroke:#f2f2f2;stroke-width:8;stroke-linecap:butt;stroke-linejoin:round;stroke-miterlimit:4;stroke-dasharray:none;stroke-opacity:1"
     id="path3655"
     d="m 888,1639.5 -5.5,85.5 2,35 18,233.5 20,223.5" />
  <path
     style="fill:none;stroke:#f2f2f2;stroke-width:8;stroke-linecap:butt;stroke-linejoin:round;stroke-miterlimit:4;stroke-dasharray:none;stroke-opacity:1"
     id="path3661"
     d="m 570.5,378 -104,-59.5" />
  <path
     style="fill:none;stroke:#f2f2f2;stroke-width:8;stroke-linecap:butt;stroke-linejoin:round;stroke-miterlimit:4;stroke-dasharray:none;stroke-opacity:1"
     id="path3665"
     d="m 1006.5,406.5 24.5,14.5 31,37 26.5,30 9.5,6 37.5,5.5 113.5,17.5 30,5.5 9.5,-3 39,-16.5 50,-17 22,-2 38,-4.5 77,-12 50.5,-6 286.5,-40 79,-11 72,-27 153.5,-61 27.5,-14.5 28.5,-15.5 31,-8 47,-22" />
  <path
     style="fill:none;stroke:#f2f2f2;stroke-width:8;stroke-linecap:butt;stroke-linejoin:round;stroke-miterlimit:4;stroke-dasharray:none;stroke-opacity:1"
     id="path3635"
     d="m 1150,-629 -9,-9 5,-9 123.5,41 14,8.5 15.5,-6 13,-5.5 55,6 57,-38.5 135.5,-91.5 6.5,-5 2.5,-85.5 34.2102,-80.906 16.2898,-32.094 30.5,-23.5 18,-7 32.5,-6 9,-9.5 12.5,-11.5 8,2.5 16,4 26,-4.5 43.5,-41 9,-31" />
  <path
     style="fill:none;stroke:#f2f2f2;stroke-width:8;stroke-linecap:butt;stroke-linejoin:round;stroke-miterlimit:4;stroke-dasharray:none;stroke-opacity:1"
     id="path3640"
     d="m 2553,1190 -58,28.5 -5.5,7 -3,11 57,132.5 67,177 14,42 2,27 0,40.5 -4.5,21 -14.5,30 -6.5,23.5 -2.5,29.5 0,48 -4,10 -19,11 -13.5,18 -4.5,24 2,18 32.5,66 31.5,44.5 23.5,21 30.5,6 54.5,-5.5 16,7 17,22.5 10,17.5 28,8 12.5,-15.5 65.5,-38 5.5,-8.5 -2,-8 -29.5,-23.5 -36.5,-11 -9.5,1.5 -54.5,35.5 -18.5,11.5 -11.5,1.5" />
  <path
     style="fill:none;stroke:#f2f2f2;stroke-width:8;stroke-linecap:butt;stroke-linejoin:round;stroke-miterlimit:4;stroke-dasharray:none;stroke-opacity:1"
     id="path3642"
     d="M 2750.5,2030.5 2750,2010" />
  <path
     style="fill:none;stroke:#f2f2f2;stroke-width:8;stroke-linecap:butt;stroke-linejoin:round;stroke-miterlimit:4;stroke-dasharray:none;stroke-opacity:1"
     id="path3644"
     d="m 2598,1779 -5.5,-10 -6,-0.5 -38.5,20 -128.5,-32 -38.5,13.5 -61,-7.5 -30.5,21.5" />
  <path
     style="fill:none;stroke:#f2f2f2;stroke-width:8;stroke-linecap:butt;stroke-linejoin:round;stroke-miterlimit:4;stroke-dasharray:none;stroke-opacity:1"
     id="path3610-4"
     d="m 982.9731,390.5168 49.5034,29.4967 L 1056,415 l 48,-63 125,-203 8,-16 107,-117" />
  <path
     style="fill:none;stroke:#f2f2f2;stroke-width:8;stroke-linecap:butt;stroke-linejoin:round;stroke-miterlimit:4;stroke-dasharray:none;stroke-opacity:1"
     id="path4056"
     d="m -378.5,1050 -17.5,4 -30,-5.5 -282,-91.5" />
  <path
     style="fill:none;stroke:#f2f2f2;stroke-width:8;stroke-linecap:butt;stroke-linejoin:round;stroke-miterlimit:4;stroke-dasharray:none;stroke-opacity:1"
     id="path5582"
     d="M 729.5,233 788.2664,265.2213 844.5,298.5" />
  <path
     style="fill:none;stroke:#f2f2f2;stroke-width:8;stroke-linecap:butt;stroke-linejoin:round;stroke-miterlimit:4;stroke-dasharray:none;stroke-opacity:1"
     id="path3705"
     d="m -173.9457,972.9639 -1.5548,-0.4636 -3,-7 -5.5,-5 -10,-2.5 -30.5,-4 -38.5,-7 -5,2.5 -6,16.5 -11,6 -26,-11.5 -9,-2 -13,7.5 -0.5,10 5.5,25.5 -4,10.5 -41,33.5 -15,11.5 -75.5,46 -32,12.5 -84,53 -19,16 -74,77.5 -111,112 -23,29 -45,68.5 -79.5,124 -14.4156,22.3764 -52.5844,81.6236 -53.5,80.5 -24.3804,40.6866 -18.8059,28.8358 -19.4329,18.806 -15.6716,8.7761 -27.5821,8.1492 -43.8806,-1.8806" />
  <path
     id="path4211"
     d="m 503.4915,200.7966 -6.7626,-24.9152"
     style="fill:none;fill-rule:evenodd;stroke:#f2f2f2;stroke-width:8;stroke-linecap:butt;stroke-linejoin:round;stroke-miterlimit:4;stroke-dasharray:none;stroke-opacity:1" />
  <path
     id="path4766"
     d="m 89,2047.5 -10.5,1.5 -17.5,-14.5 -4,1 -3.5,4 0.5,4 19,14.5 9,-2.25 33.5,-41 234.25,-297 7,-15.5 0.25,-13 -1.75,-13.5 -26,-53 -7,-12.75 -4.25,-1 -2.5,1.5 -4.75,12.75 -4,1.75 -35.75,-13.25 -58.25,-20.25 -19.5,-7.75 -5,2 -5.5,17.75 -4.75,0.5 -46.5,-40.75 0,-3.25 107,-121.75 3.5,-7.75 15,-37.5 3,-1.75 18.5,6 4,-1.5 30.25,-79.75 -4.25,-15 61,-161 5,-2 14.75,5.5 21.75,-2.5 113.75,4.25 2.25,2 4.25,8 6.5,10.75 -1,46 1.5,18.75 3.5,3.75 120.5,4.25 3.5,-3.5 -3,-17 4.75,-3.75 16,0.75 2,-1.75 2,-34.25 2.75,-64.25 -12.75,-39.5 -0.25,-61.75 26.75,-83 91.25,-110.75 6.25,-12.5 6.25,-40.75 -5,-1.75 -11,1.25 -2,-1.75 -13.25,-105.5 2,-2 79.75,-10.25 4,-6.5 L 857,595 892.75,449.75 905.75,395 928,364 l 6,-1.75 24.25,13.5 4.5,-0.5 65.25,-89.5 90.5,-126.75 53,-87.5 -2,-4.5 -62.75,-26 -4.75,2 -12.5,28 1.5,1.5 73,-2.5 4,7.25"
     style="fill:none;fill-rule:evenodd;stroke:#000000;stroke-width:5;stroke-linecap:butt;stroke-linejoin:round;stroke-miterlimit:4;stroke-dasharray:none;stroke-opacity:1" />
  <path
     id="path4768"
     d="m 808,767.5 -0.25,-16 -10.5,-82.75 5,-3 59.25,-7.25 2.75,-4.75 -2,-15"
     style="fill:none;fill-rule:evenodd;stroke:#000000;stroke-width:5;stroke-linecap:butt;stroke-linejoin:round;stroke-miterlimit:4;stroke-dasharray:none;stroke-opacity:1" />
  <path
     id="path4770"
     d="m 803.25,790.5 3.25,7 15,11.5 1.5,3.25 -0.75,2.75 -4.5,7.5 -94,116.5 -25,71 -10,55.25 12.25,39 -1,3.75 -9,9.25"
     style="fill:none;fill-rule:evenodd;stroke:#000000;stroke-width:5;stroke-linecap:butt;stroke-linejoin:round;stroke-miterlimit:4;stroke-dasharray:none;stroke-opacity:1" />
  <path
     id="path4772"
     d="m 388.75,1143.25 25.25,25.25 0.75,6.25 -0.25,5 -5.5,18 0.75,28 3.25,8.75 5.75,3.25 37.25,0 2.25,2.75 -1.75,73.5 -9.5,19.25 0.75,5.25 95.25,47 26.87315,-3.1626 4.91181,3.4412 1.91207,17.3109 -1.04164,3.3624 -9.88447,1.8434 -18.09242,-23.4573"
     style="fill:none;fill-rule:evenodd;stroke:#000000;stroke-width:5;stroke-linecap:butt;stroke-linejoin:round;stroke-miterlimit:4;stroke-dasharray:none;stroke-opacity:1" />
  <path
     id="path4774"
     d="m 151,1579.75 0.25,-5.75 88,-100 2.75,-4.25 -8.75,-24"
     style="fill:none;fill-rule:evenodd;stroke:#000000;stroke-width:5;stroke-linecap:butt;stroke-linejoin:round;stroke-miterlimit:4;stroke-dasharray:none;stroke-opacity:1" />
</svg>
