<?xml version="1.0" encoding="UTF-8" standalone="no"?>
<!-- Created with Inkscape (http://www.inkscape.org/) -->

<svg
   xmlns:dc="http://purl.org/dc/elements/1.1/"
   xmlns:cc="http://creativecommons.org/ns#"
   xmlns:rdf="http://www.w3.org/1999/02/22-rdf-syntax-ns#"
   xmlns:svg="http://www.w3.org/2000/svg"
   xmlns="http://www.w3.org/2000/svg"
   xmlns:xlink="http://www.w3.org/1999/xlink"
   version="1.1"
   width="3093"
   height="1800"
   id="svg2">
  <metadata
     id="metadata8">
    <rdf:RDF>
      <cc:Work
         rdf:about="">
        <dc:format>image/svg+xml</dc:format>
        <dc:type
           rdf:resource="http://purl.org/dc/dcmitype/StillImage" />
        <dc:title></dc:title>
      </cc:Work>
    </rdf:RDF>
  </metadata>
  <defs
     id="defs6" />
  <image
     xlink:href="file:///home/alexander/timelines/experiments/streetcarscale/streetmap/phxosm.png"
     x="20"
     y="52.908569"
     width="3093.001"
     height="1687.0914"
     id="image10"
     style="display:none" />
  <path
     d="m 81.500021,81.499516 -2.000001,174.000054 6.000003,6 168.500057,1 41.50001,2.5 79.00003,-0.5 38.50001,21.5 -1,740.00023 0,171 4,3 616.00027,1.5 502.5001,0.5 343.5002,49 19,14.5 31,42 7,6.5 7.5,5.5 65,14.5 25,17 31,24.5 12,24 6.5,38.5 -1.5,56 3.5,15.5 14,9 35,0.5 24.5001,12.5 31.5,14 8.5,9.0001 20,8 18.5,18.5 26,8 115.5,124.5 639.5003,-0.5"
     id="path3006"
     style="fill:none;stroke:#4e1d57;stroke-width:5.00000143;stroke-linecap:butt;stroke-linejoin:miter;stroke-miterlimit:4;stroke-opacity:1;stroke-dasharray:none" />
  <path
     d="m 412.00013,1024.9998 -6,17 -8.5,7 -2.5,8.4999 -0.5,158.5001 2.5,2 35.50002,1 26,10.5 6.50001,1.5 27,0 5,-3.5 16.50001,-9 8.5,-1.5 395.00014,-2 75.00002,3 11.99997,-2 11.0001,-7.5 16,-7.5"
     id="path3776"
     style="fill:none;stroke:#4e1d57;stroke-width:5.00000143;stroke-linecap:butt;stroke-linejoin:round;stroke-miterlimit:4;stroke-opacity:1;stroke-dasharray:none" />
  <path
     d="m 1475.5005,1220.4998 24.5,0.5 8.5,12 7,18.5 -2.5,20 -1,29 6.5,24.5 8.5,20 12,14.5 25,21.5 10.5,6.5 0,6.5 -2.5,8 -7,3 -44.5,15.5 -11,0.5 -28.5,-14 -11.5,-0.5 -243.5001,2"
     id="path3778"
     style="fill:none;stroke:#f2f2f2;stroke-width:8.00000191;stroke-linecap:butt;stroke-linejoin:round;stroke-miterlimit:4;stroke-opacity:1;stroke-dasharray:none" />
</svg>
