<svg xmlns="http://www.w3.org/2000/svg" viewBox="0, 0, 3500, 2100" height="2100" width="3500"><path d="M1200.192 669.29l8.308 9.21L1326 757l208 128.5 28.5 19 62.5 45 126.5 84.5 162.5 117 10.5 5 120.5 38 21 6 15 8 20.5 13.5 33 24.5 10.5 5 79 1 17 1.5 11.5 7.5 8 13 27.5 58 6.5 15 1 6.5 1 7.5-3 9-17.5 38-3.5 14 2 15 4 15.5 8 11.5 11.5 10.5 11 7 16 5.5 18.5 1 14-3 23.5-7.5 31.5-12.5 26.5-4 11.5-2.5 9-6 16-11 45-20 9-.5 51.5 9 12 9 16 20 8.5 5 16.5 5 32.5 7 28.5 1.5 14 1.5 17.452-1.385" fill="none" stroke="#ff2a2a" stroke-width="5" stroke-linejoin="round"/><text style="-inkscape-font-specification:Sans" y="1997.961" x="89.453" font-weight="400" font-size="144" font-family="Sans"/><text style="-inkscape-font-specification:Sans" y="206.961" x="89.453" font-weight="400" font-size="144" font-family="Sans"><tspan y="206.961" x="89.453">1930</tspan></text><path d="M1203.218 672.934l-30.032-35.315-11.401-23.08 3.615-310.05-2.78-3.337-72.3-1.112-3.336-3.615 1.946-63.123-3.893-4.449-7.23-.556-13.903 6.674-250.543-5.84M2723.672 1478.07l2.78-.455 22.388-18.028h5.31" fill="none" stroke="#ff2a2a"/></svg>