<?xml version="1.0" encoding="UTF-8" standalone="no"?>
<svg
   viewBox="0 0 1550 3300"
   height="3300"
   width="1550"
   id="svg2"
   version="1.1"
   xmlns:xlink="http://www.w3.org/1999/xlink"
   xmlns="http://www.w3.org/2000/svg"
   xmlns:svg="http://www.w3.org/2000/svg"
   xmlns:rdf="http://www.w3.org/1999/02/22-rdf-syntax-ns#"
   xmlns:cc="http://creativecommons.org/ns#"
   xmlns:dc="http://purl.org/dc/elements/1.1/">
  <metadata
     id="metadata8">
    <rdf:RDF>
      <cc:Work
         rdf:about="">
        <dc:format>image/svg+xml</dc:format>
        <dc:type
           rdf:resource="http://purl.org/dc/dcmitype/StillImage" />
      </cc:Work>
    </rdf:RDF>
  </metadata>
  <defs
     id="defs6" />
  <image
     xlink:href="../basemap/uioosm.png"
     y="-48.8"
     x="-150"
     id="image10"
     preserveAspectRatio="none"
     height="4048.8"
     width="1687"
     style="display:none" />
  <path
     style="fill:none;stroke:#e2142c;stroke-width:5;stroke-linejoin:round;stroke-dasharray:none;stroke-opacity:1"
     d="m 134.59,3145.92 17.57,-15.29 31.94,-36.25 20.16,-27.72 10.05,-23.76 7.81,-30.68 6.16,-62.24 5.71,-20.04 24.24,-49.58 17.46,-22.46 72.92,-86.21 105.12,-91.89 6.44,-12.41 3.98,-11.23 0.77,-3.95 -4.11,-52.97 2.08,-15.26 4.41,-16.15 20.61,-27.81 8.25,-5.69 13.57,-3.48 16.74,3e-4 78.22,8.59 9.37,-0.18 18.83,-5.92 9.35,-10.39 9.34,-31.62 7,-33.01 31.59,-86.57 0.02,-12.8 -4.23,-15.36 -49.69,-64.64 -11.4,-9.12 -19.95,-9.97 -9.58,-9.14 -6.94,-9.7 -1.07,-8.72 1.42,-8.4 5.26,-10.02 10.76,-12.81 5.03,-12.26 6.49,-21.74 9.16,-16.2 19.62,-52.97 7.94,-13.74 18.65,-14.51 56.91,-34.22 94.31,-104.93 8.67,-3.01 17.34,0.55 32.93,7.02 17.17,-2.07 24.67,-6.53 75.72,-31.55 19.3,-9.88 11.74,-13.47 5.92,-9.76 1.49,-9.62 -2.13,-23.8 -4.25,-13.16 -5.89,-13.46 -13.46,-14.5 -18.47,-21.84 -23.95,-54.19 -1.59,-11.27 20.18,-65.33 6.86,-21.84 8.58,-12.67 5.71,-3.49 9.46,-1.67 11.16,2.78 16.76,5.6 13.43,1.07 18.54,-6.15 111.99,-57.36 27.5,-20.08 18.09,-15.18 7.15,-13.13 1.02,-14.24 -5.52,-17.9 -11.96,-29.12 -1.46,-20.56 1.21,-27.75 15.69,-97.91 -0.34,-18.84 -12.28,-47.52 0.16,-20.25 21.31,-125.27 -1.76,-14.91 -55.27,-88.91"
     id="path12691" />
  <path
     id="path4506"
     d="m 150,3144.54 -6.1,5.29 -16.68,-17.08 9.36,-7.93 6.1,12 9.15,10.58 63.05,24.61 7.32,-5.08 21.15,-36.81 20.75,-24.81 15.66,-19.53 6.1,-12 7.12,-17.49 4.47,-23.59 -1.63,-19.32 -1.63,-30.51 8.54,-19.73 5.49,-5.9 13.22,-13.83 6.31,-13.63 3.86,-39.05 3.66,-29.29 8.34,-13.42 47.8,-39.25 13.22,-10.58 11.59,-23.19 47.39,-40.07 27.86,-8.95 4.47,-8.34 4.47,-53.49 9.15,-12.41 10.58,-15.66 v -5.9 l -2.64,-14.85 v -16.47 l 5.69,-12.2 13.22,-16.47 2.85,-10.98 4.88,-4.07 16.47,3.25 10.58,4.47 10.37,-0.2 14.03,12 4.88,-0.61 15.66,-29.29 20.14,-18.92 23.59,-34.98 5.9,-23.19 -4.27,-8.75 41.08,-112.47 11.8,-28.07 40.07,-90.1 14.85,-18.51 2.24,-13.42 5.9,-9.15 -0.2,-25.22 15.86,-29.29 1.22,-10.58 -3.25,-42.92 3.05,-32.34 -7.73,-6.92 v -2.85 l 5.69,-7.12 2.24,-0.2 4.47,4.07 3.25,-1.02 10.58,-9.56 9.15,-11.19 15.05,-19.73 20.14,-23.59 2.64,-0.61 7.32,6.71 2.64,0.61 26.24,-31.73 9.36,-3.25 62.64,-88.47 12,-22.58 16.27,-50.03 7.73,-25.83 47.39,-108.41"
     style="opacity:1;fill:none;fill-opacity:0.02;fill-rule:nonzero;stroke:#ef7d1c;stroke-width:1;stroke-linecap:butt;stroke-linejoin:round;stroke-miterlimit:4;stroke-dasharray:none;stroke-opacity:1" />
  <path
     id="path4508"
     d="m 1051.22,1645.15 13.18,-31.39 27.04,-67.31"
     style="opacity:1;fill:none;fill-opacity:0.02;fill-rule:nonzero;stroke:#ef7d1c;stroke-width:1;stroke-linecap:butt;stroke-linejoin:round;stroke-miterlimit:4;stroke-dasharray:none;stroke-opacity:1" />
  <path
     id="path4510"
     d="m 1091.44,1546.46 25.02,-60.12"
     style="opacity:1;fill:none;fill-opacity:0.02;fill-rule:nonzero;stroke:#ef7d1c;stroke-width:1;stroke-linecap:butt;stroke-linejoin:round;stroke-miterlimit:4;stroke-dasharray:none;stroke-opacity:1" />
  <path
     id="path4512"
     d="m 1116.46,1486.34 9.2,-26.46 33.65,-115.92 30.2,-154.17 12.08,-62.42"
     style="opacity:1;fill:none;fill-opacity:0.02;fill-rule:nonzero;stroke:#ef7d1c;stroke-width:5;stroke-linecap:butt;stroke-linejoin:round;stroke-miterlimit:4;stroke-dasharray:none;stroke-opacity:1" />
  <path
     id="path4514"
     d="m 1201.6,1127.37 7.04,-3.1 3.86,-24 -5.08,-6.71 25.22,-179.19 53.29,-380.34 30.71,-238.98 8.75,-20.75 110.44,-150.92"
     style="opacity:1;fill:none;fill-opacity:0.02;fill-rule:nonzero;stroke:#ef7d1c;stroke-width:1;stroke-linecap:butt;stroke-linejoin:round;stroke-miterlimit:4;stroke-dasharray:none;stroke-opacity:1" />
  <path
     id="path4541"
     d="m 792.1,2029.97 22.98,-32.14 25.22,-29.7 38.85,-20.54 16.68,-3.86"
     style="opacity:1;fill:none;fill-opacity:0.02;fill-rule:nonzero;stroke:#ef7d1c;stroke-width:1;stroke-linecap:butt;stroke-linejoin:round;stroke-miterlimit:4;stroke-dasharray:none;stroke-opacity:1" />
  <text
     style="font-style:normal;font-weight:normal;font-size:144px;line-height:125%;font-family:Sans;-inkscape-font-specification:Sans;letter-spacing:0px;word-spacing:0px;fill:#000000;fill-opacity:1;stroke:none"
     xml:space="preserve"
     id="text3019"
     y="206.96"
     x="89.45"><tspan
       id="tspan1"
       y="206.96"
       x="89.45">2024</tspan></text>
  <path
     id="path821"
     d="m 421.68,1471.72 269.17,83.46"
     style="opacity:1;fill:none;fill-opacity:0.4;fill-rule:nonzero;stroke:#008bf5;stroke-width:5;stroke-linecap:butt;stroke-linejoin:round;stroke-miterlimit:4;stroke-dasharray:none;stroke-opacity:1" />
</svg>
