<?xml version="1.0" encoding="UTF-8" standalone="no"?>
<svg
   xmlns:dc="http://purl.org/dc/elements/1.1/"
   xmlns:cc="http://creativecommons.org/ns#"
   xmlns:rdf="http://www.w3.org/1999/02/22-rdf-syntax-ns#"
   xmlns:svg="http://www.w3.org/2000/svg"
   xmlns="http://www.w3.org/2000/svg"
   xmlns:xlink="http://www.w3.org/1999/xlink"
   version="1.1"
   viewBox="0, 0, 8650, 7150"
   width="8650"
   height="7150"
   id="svg2">
  <metadata
     id="metadata44">
    <rdf:RDF>
      <cc:Work
         rdf:about="">
        <dc:format>image/svg+xml</dc:format>
        <dc:type
           rdf:resource="http://purl.org/dc/dcmitype/StillImage" />
        <dc:title></dc:title>
      </cc:Work>
    </rdf:RDF>
  </metadata>
  <defs
     id="defs6">
    <linearGradient
       id="linearGradient29158">
      <stop
         id="stop29160"
         style="stop-color:#6699cc;stop-opacity:1"
         offset="0" />
      <stop
         id="stop29162"
         style="stop-color:#6699cc;stop-opacity:0.41237113"
         offset="1" />
    </linearGradient>
  </defs>
  <path
     style="fill:none;stroke:#ead417;stroke-width:5;stroke-linecap:butt;stroke-linejoin:round;stroke-miterlimit:4;stroke-dasharray:none;stroke-opacity:1"
     id="path9447"
     d="m 3845.3124,3182.9857 -132.7923,1.1683 -26,5 -22.5,12 -58,62 -6.5,15.5 -6,21.5 -34.5,37 -73,78.5 -21.5,24.5 -40.5,68 -42.5,84.5 -11,33 -40.5,69 -9.5,32 4,42 0.5,19 -6,18.5 -12.5,22.5 -16.5,12.5 -34.5,20 -36.5,11.5 -16,7 -15,13.5 -11,19 -15,42 -17.5,22.5 -22,25 -21.5,39.5 -15.5,24.5 -13.5,21.5 -12.5,10 -13,4 -381.4999,56.5 -61.0589,7.6485 -25.1023,0 -39.9515,-11.3137 -68.2358,-23.3346 -72.8321,2.1214 -18.0312,2.4748 -49.4975,15.9099 -49.851,23.6881 -54.8008,19.0919 -27.5772,6.7175 -38.5373,2.8284 -28.6378,-3.1819 -25.8094,-7.0711 -130.4612,-51.9724" />
  <path
     d="m 4543.6351,5836.0002 92,-148 54,-93.5 39.5,-77 30.5,-44.5 111,-109.5 20.5,-44 16,-21.5 32,-41 27,-35.5 15.5,-42.5 9,-51.5 -5.5,-45.5 -10,-36.5 -55,-128 -90.615,-211.346 -12.5,-222.0002 -5.5,-78 -20.5,-117 -19,-70 -35,-92 -21.5,-53 -48.5,-90 -45,-68 -108.5,-174.5 -66,-109.5 -27.5,-42.5 -52,-92 -16,-45.5 -36.5,-37.5 -24,-24.5 -14.5,-7.5 -47.5,-24 -30.5,-15 -26.5,-17.5 -23.5,-9.5 -12.5,-7.5 -30.5,-33.5 -10.3994,-5.5327 -67.1006,-26.4673 -61,-30"
     id="path3617"
     style="fill:none;stroke:#ead417;stroke-width:5;stroke-linecap:butt;stroke-linejoin:round;stroke-miterlimit:4;stroke-dasharray:none;stroke-opacity:1" />
  <path
     d="m 5181.6355,5221.5007 2,-77.5 -6,-33.5 -7.5,-25.5 -23.5,-25.5 -17.5,-20.5 -20.5,-37 -4.5,-13 -10.5,-52.5 -25,-42.5 -8.5,-17.5 -1.5,-17 -3.615,-153.346 -1.5,-46 2,-33 19,-47 8,-35.5 -3.5,-60.5002 -27,-119 -19.5,-71.5 -13.5,-53.5 1,-24.5 -3.5,-24 -7.5,-23 -17,-27.5 -6.5,-26.5 -14.5,-50.5 -13,-44 -11,-24.5 -19,-21 -24.5,-28 -18,-33.5 -27.5,-60.5 -18.5,-23.5 -21.5,-25.5 -14.5,-10.5 -20,-13 -35.5,-4 -20.5,-5.5 -20.5,-18.5 -39.5,-62.5 -28,-53.5 -37,-55.5 -16.5,-17 -39,-31 -34.5,-23 -61.3708,-53.8651"
     id="path3615-3"
     style="fill:none;stroke:#0cb14b;stroke-width:5;stroke-linecap:butt;stroke-linejoin:round;stroke-miterlimit:4;stroke-dasharray:none;stroke-opacity:1" />
  <path
     id="path4249"
     d="m 4911.1351,4893.0002 -0.5,32 -9,25 -7.5,21 -2,33.5 -4,28 -13,19.5 -13,13 -20.5,9.5 -21,4 -20.5,-2.5 -23,-11.5 -29,-23 -35,-42.5 -27,-35 -37,-69 -24,-20.5 -29.5,-9.5 -29,1 -24,10 -27.5,16.5 -80,50"
     style="fill:none;fill-rule:evenodd;stroke:#ead417;stroke-width:5;stroke-linecap:butt;stroke-linejoin:round;stroke-miterlimit:4;stroke-dasharray:none;stroke-opacity:1" />
  <image
     xlink:href=".././../streetmap/parosm.png"
     id="image12"
     height="6886.769"
     width="7997.5381"
     y="263.23096"
     x="666.13562"
     style="display:none" />
  <path
     style="fill:none;stroke:#623f98;stroke-width:5;stroke-linecap:butt;stroke-linejoin:round;stroke-miterlimit:4;stroke-dasharray:none;stroke-opacity:1"
     id="path10404"
     d="m 3684.0206,3806.1538 40.5,-49.5 32,-34 93.5,-67.5 46,-37.5 39.5,-34 1,-8.5 -32,-122 -20.5,-16 -13,-14.5 -21.5,-61 7.5,-103.5 -6.5,-7 0,-47.5" />
  <path
     d="m 3830.5206,4443.6538 -10.5,13 -11,7.5 -15,3 -116,-35 -13,-12.5 -6.5,-19 1,-28 1,-10.5 -6.5,-12.5 -9.5,-7.5 -12.5,-7.5 -12,0.5 -18,9 -15,25.5 -12.5,10 -27,9.5 -14,11.5 -6.5,19.5 -7.5,22 -4.5,10.5"
     id="path3623"
     style="fill:none;stroke:#4395d1;stroke-width:5;stroke-linecap:butt;stroke-linejoin:round;stroke-miterlimit:4;stroke-dasharray:none;stroke-opacity:1" />
  <path
     d="m 1381.1356,5638 127,-20 47,-2.5 30,7 26,9 36,21.5 40,17 40,5.5 71.5,-8.5 87,12.5 47.5,18.5 43.5,18 16,0 76,-13 17,0 127.5,52 45.5,17 16.5,1.5 19,-6 19.5,-18 13.5,-10.5 18,-6 15.5,-0.5 31.5,8 15.5,0 90,-22.5 40.5,-11.5 14.5,-18 16,-40.5 18,-21 18,-21 15.5,-11.5 18,-5.5 141,1 32.5,-5 20,7 19,4 35,-3.5 27,4 18,-0.5 24,-3.5 56,8 21.5,0.5 23,-10.5 8,-14 6,-23 8.5,-22.5 16.5,-20 11,-21.5 28.5,-34 35.5,-60 17.5,-22 18,-12.5 20.5,-2.5 25,-8 23.5,-26.5 114,-132 43.5,-44 81.5,-35 46,-31 83,-44 19.5,-17.5 16,-18 13.5,-33 17.5,-115 29.5,-92 18.385,-56.346 36,-62 13,-35 5,-23.5 -5.5,-38 -0.5,-26 12,-38.0002 14,-32.5 3,-21.5 -2.5,-30 2,-17 47.5,-117 10,-9 11.5,-5 32,-4.5 12,-4 19,-9 12.5,-15.5 4.5,-15.5 15.5,-102 5,-21 27,-37.5 77.5,-89 7,-13.5 5,-14 -2,-18 -9,-37.5 -12,-48.5 -12,-45 -16,-76 -6,-16.5 -12,-15 -5.5,-15.5 -10,-30 0.8807,-4.5752 40.6193,-65.9248 3.5,-23.5 36.9391,-98.1622"
     id="path3621"
     style="fill:none;stroke:#4395d1;stroke-width:5;stroke-linecap:butt;stroke-linejoin:round;stroke-miterlimit:4;stroke-dasharray:none;stroke-opacity:1" />
  <path
     d="m 2824.0206,2595.1538 -158,78 -273.385,136.3462 -41,13.5 -52,10 -38.5,4 -52,-5 -29,-5 -49,-19 -118.5,-55 -43.5,-22.5 -29.5,-26 -24.5,-38.5 -11.5,-31.5 -22,-29.5 -21,-19 -29.5,-15 -57.5,-16 -32.5,-8.5 -25,2.5 -26.5,7 -24.5,10 -19,11.5 -10,17.5 -3,15.5 -2,27.5"
     id="path3627"
     style="fill:none;stroke:#7082c0;stroke-width:5;stroke-linecap:butt;stroke-linejoin:round;stroke-miterlimit:4;stroke-dasharray:none;stroke-opacity:1" />
  <path
     d="m 3405.5206,2517.654 -134,70.5 -61,30 -45.5,28.5 -56,35.5 -36.5,25 -17,30 -4,46.5 -7,48 -13,35.5 -65.5,88 -54,75.5 -10.5,28 -12.5,43 -26.5,121 -2,25.5 4.5,98 7.5,42.5 3,20.5 -3,28.5 -6.5,20 -22.0371,33.422 -26.163,21.9203 -45.6084,20.5061 -22.9809,15.2028 -20.5061,24.0416 -10.2531,26.5165 -4.2426,13.7886 -21.2132,177.1302 -10.2531,28.2843 -14.4957,19.799 -56.5685,48.4368 -14.4957,22.6274 -50.9117,93.3381 -24.3952,26.163 -20.5061,13.435 -32.5269,13.0815 -36.7695,4.5962 -173.9483,3.1819 -17.3241,-2.4748 -20.8597,-5.3033 -35.7089,-19.4455 -30.4055,-19.799 -19.799,-6.3639 -35.3554,-5.6569 -59.0434,-6.3639"
     id="path3093"
     style="fill:none;stroke:#7082c0;stroke-width:5;stroke-linecap:butt;stroke-linejoin:round;stroke-miterlimit:4;stroke-dasharray:none;stroke-opacity:1" />
  <path
     d="m 3972.5206,2980.1538 4.5,-6 1.5,-72 1,-44 -16.5,-56 35.147,-158.1614"
     id="path3633"
     style="fill:none;stroke:#74cede;stroke-width:5;stroke-linecap:butt;stroke-linejoin:round;stroke-miterlimit:4;stroke-dasharray:none;stroke-opacity:1" />
  <path
     d="m 3963.0206,2802.1538 -19,-16.5 -64.5,-56.5 -33.6552,-29.5002"
     id="path3635"
     style="fill:none;stroke:#74cede;stroke-width:5;stroke-linecap:butt;stroke-linejoin:round;stroke-miterlimit:4;stroke-dasharray:none;stroke-opacity:1" />
  <path
     d="m 3430.0206,3773.6538 39,-24.5 48.5,-38 84.5,-85 60.5,-48 47.5,-37 60.5,-26.5 128.5,-60 15,-2 57,31 6.5,-3.5 16,-31 -30,-157 -13.5,-25.5 -44,-69.5 0,-11 23.5,-39 29.5,-61 -2,-27.5 20,-43.5 -3,-25.5 4,-6 53.5,-11 69,7 4,-2.5 0.5,-4.5 -17,-23 -10.5,-19 7.5,-28 -4.5,-21 14,-32.5 0,-81 9,-22 21,-23 7.5,-2 20,5 53,20 29,3.5 37,8.5 31.501,0.4257 6.999,-7.9257 -4,-59.5 -2,-50"
     id="path3637"
     style="fill:none;stroke:#00824e;stroke-width:5;stroke-linecap:butt;stroke-linejoin:round;stroke-miterlimit:4;stroke-dasharray:none;stroke-opacity:1" />
  <path
     d="m 4701.5206,3147.6538 56,-99.5 25.5,-88.5"
     id="path3614"
     style="fill:none;stroke:#96a33c;stroke-width:5;stroke-linecap:butt;stroke-linejoin:round;stroke-miterlimit:4;stroke-dasharray:none;stroke-opacity:1" />
  <path
     d="m 4876.0206,2921.1538 -29.5,12 -67.5,28 -37,17 -38,7.5 -32.5,4.5 -12.9797,-13.5213 -18.8345,-4.8995 -21.6858,15.4208 -20,10 -17.5,3.5 -18.5,13.5 -23,3 -54.5,21 -43.5,24.5 -56.6787,29.7344 -43.8213,28.2656 -11,6.5 -18.5,24 -5.5,1.5 -24.5,-10.5 -8.5,0 -5.5,2.5 -11,34 -30.5,83.5 -9.5,5 -33,-15.5"
     id="path3639"
     style="fill:none;stroke:#865e39;stroke-width:5;stroke-linecap:butt;stroke-linejoin:round;stroke-miterlimit:4;stroke-dasharray:none;stroke-opacity:1" />
  <path
     d="m 4365.5206,3503.1538 -15,-30.5 -23,-34.5 -29,-25.5 -8.5,-2 -41,31.5 -8,-0.5 -13.5,-10 -27.5,-52.5 -99,-37 -34.5,-12 -37.5,8.5 -56.5,17 -48,35.5 -26,20.5 -55,28 -20.5,8.5 -11.5,-3 -28.5,-20 -60,-57 -5.5,0 -26.5,29 -16.5,14.5 -18.5,12 -114,7.5 -58.5,4.5 -48,-17 -20,9.5 -50.5,25 -89.5342,-3.8372"
     id="path3641"
     style="fill:none;stroke:#d8ad3d;stroke-width:5;stroke-linecap:butt;stroke-linejoin:round;stroke-miterlimit:4;stroke-dasharray:none;stroke-opacity:1" />
  <path
     d="m 3415.0206,3427.6538 -13,1.5 -14,-11 -22,-2.5 -27.5,-8 -51.5,3.5 -7.5,6 -8,27.5 5.5,5.25"
     id="path3643"
     style="fill:none;stroke:#d8ad3d;stroke-width:5;stroke-linecap:butt;stroke-linejoin:round;stroke-miterlimit:4;stroke-dasharray:none;stroke-opacity:1" />
  <path
     d="m 5136.0206,3181.1538 -3.5,12 -46,58 -147,41.5 -134.5,35.5 -88,24 -37.5,43.5 -16.1373,-3.3837 -118.8627,-108.1163 -108,-96.5 -73.5,-67.5 -26.9393,-20.0251 -66.3389,-15.8891 -29.2218,-10.6716 -56.2574,-17.9393 -72.8639,-17.2071 -78.8787,-18.2678 -125,-25 -92,28 -9,9.5 0,49.5 -8,9.5 -50,40 -19.3096,15.7337 -21.6904,0.2663"
     id="path3645"
     style="fill:none;stroke:#cace2c;stroke-width:5;stroke-linecap:butt;stroke-linejoin:round;stroke-miterlimit:4;stroke-dasharray:none;stroke-opacity:1" />
  <path
     d="m 3707.5206,3147.6538 -52,1.5 -18.5,3.5 -56,24.5 -54.5,-6.5 -39.5,-6.5 -7.5,1.5 -7,9 -31.5,80.5 -38,36.5 -9.5,15 -16.5,45 -12.5,38.5 -24.5,17.5 -41.5,81.5 -16.5,36.5 -8,29.5 -10.5,10.5 -261,125"
     id="path3647"
     style="fill:none;stroke:#cace2c;stroke-width:5;stroke-linecap:butt;stroke-linejoin:round;stroke-miterlimit:4;stroke-dasharray:none;stroke-opacity:1" />
  <path
     d="m 3483.5206,3588.6538 9,-11.5 32,-29.5 66.5,-38.5 36,-22.5 50.5,-85 35,-38.5 53.5,-53 41.5,-49.5 11.5,-10.5 27.5,-0.5 8,-7 1.4793,-37.5363 3.0207,-28.9637 6.5,-16.5 6.5,-4.5 17,-0.5 24,-7.5 30.5,-60 7,-6.5 94.5,-26 58.5,-13 47,10.5 32,7.5 29.5,9 57,20 12.5,3 52.5,13 25,20 16,42 6.5,16.5 20.5,135 13.5,11.5 24,14.5 71.5,25.5 48.5,7.5 20.5,38 51,70 39.5,49.5 16.5,13 67,35.5 21,12 2.5,7 -44,30.5 -34.734,20.5208 -0.6691,9.4756 87.4031,86.0036 72.9108,71.4718"
     id="path3649"
     style="fill:none;stroke:#b89cca;stroke-width:5;stroke-linecap:butt;stroke-linejoin:round;stroke-miterlimit:4;stroke-dasharray:none;stroke-opacity:1" />
  <path
     d="m 4365.5206,2895.1538 57.5,-6.5 31,13.5 70,47.5 5,-2 12,-11 24.5,-8 39.5,-5.5 7,3.5 30.5,39 8,-0.5 50,-36.5 2.5,-12 -24.5,-20.5 -29,-10 -6,1 -32,34 -8,3"
     id="path3653"
     style="fill:none;stroke:#f59fb8;stroke-width:5;stroke-linecap:butt;stroke-linejoin:round;stroke-miterlimit:4;stroke-dasharray:none;stroke-opacity:1" />
  <path
     d="m 4304.6236,3839.9912 -4.3034,-14.1448 -35.2996,-166.6926 -47,-103.5 1,-9 10,-32 3,-35.5 8,-20 6.0706,-7.9177 42.9294,-34.0823 14.3308,-11.3453 31.1692,-27.1547 3.5,-12 -7.5,-13.5 -51,-31.5 -71,-40 -74,-35.5 -23,-8 -2,-4.5 7,-20 -2.5,-9 -47.4926,-22.6155 -34.5074,-117.3845 -0.5,-15 10,-28 158,-61.5 14.5,-1.5 10,0 60,11.5 20,5.5 5.5,0.5 8,-2 16.5,-41 116.5,-144 69.5,-83 47.1915,-59.7759"
     id="path3651"
     style="fill:none;stroke:#f59fb8;stroke-width:5;stroke-linecap:butt;stroke-linejoin:round;stroke-miterlimit:4;stroke-dasharray:none;stroke-opacity:1" />
  <path
     d="m 4671.5206,3404.6538 60.5,52 -10.5,61 -3.5,14 -109.5,15 -21,-1 -76.5,-20 -9.5,2 -72.5,58.5 -20.5,14.5 -48.5,24.5 -75,38 -33,7.5 -44,20 -6,0.5 -130,-54.5 -43,-16.5 -8.5,-38.5 -10,-40.5 -77,-39.5 -11,-1 -20,2.5 -44,20 -7,-1.5 -37,-68.5 -6.5,-4 -179,-83 -69,-104 -2.5,-13.5 -2,-18 16.5,-39 9,-26.5 75.3657,-157.5972"
     id="path3655"
     style="fill:none;stroke:#81c99c;stroke-width:5;stroke-linecap:butt;stroke-linejoin:round;stroke-miterlimit:4;stroke-dasharray:none;stroke-opacity:1" />
  <path
     d="m 4850.2867,2711.9526 -110.7661,33.7012 -99,39.5 -100.5,39 -32.5,15.5 -76,42.5 -18.5,1.5 -9,-8.5 -10,-12.5 -22,-8 -52,0.5 -8.5,6.5 -10.8892,11.4831 -19.365,53.1892 -11.441,6.8289 -3.8048,18.4988 0,7 7,13.5 8.5,2 21,6 1.5,6.5 -1,17.5 6,23.5 14.5,31.5 47.5,75.5 51,46 14,14.5 3,8.5 -4,19.5 -20,69 -19,44 -24.5,70.5 -4.5,18.5 2,7 10.5,11 17.5,15 2,6 -1,5.5 -23.5,22 -15,8 -10.5,4 -4.5,5 -20.5,39 -58,118"
     id="path2835"
     style="fill:none;stroke:#f68c58;stroke-width:5;stroke-linecap:butt;stroke-linejoin:round;stroke-miterlimit:4;stroke-dasharray:none;stroke-opacity:1" />
  <path
     d="m 4154.0206,2645.1538 39.5,71.5 11,19.5 2,11 -0.5,58 -0.5,54.5 3,8.5 22.5,36 25,12 21,6.5 11.5,4.5 5,7.5 -0.5,11 -7.5,41 -20.5,55.5 -37.5,105 -9,12 -34,11.5 -8.5,6.5 -7.5,26.5 11,30.5 4.5,15.5 3.9063,17.7335 -7.4063,31.2667 -29.5,24.4998 -27.5,19 -9.5,-1.5 -42.5,-14.5 -24,-7 -9.5,3 -39,65 -26,42 -24.5,40.5 3,10 48,21 9,9.5 8.5,37 14.5,63 0.5,16.5 -24,35.5 -31,53 -13.865,72.5601"
     id="path3609"
     style="fill:none;stroke:#b0499b;stroke-width:5;stroke-linecap:butt;stroke-linejoin:round;stroke-miterlimit:4;stroke-dasharray:none;stroke-opacity:1" />
  <path
     d="m 3505.0206,2648.6538 78,132.5 22,37 13.5,9.5 130.5,28 62,20.5 24.5,29 32.5,-6.5 12.5,2.5 45,24.5 5.5,12 20.5,53 78,67.5 10.5,10 51.5,14 172,55 16.5,-0.5 46.5,-14 38,-7.5 148.5,44.5 75.5,20.5 88,-33 14,0 11.1956,-1.0742"
     id="path3611"
     style="fill:none;stroke:#96a33c;stroke-width:5;stroke-linecap:butt;stroke-linejoin:round;stroke-miterlimit:4;stroke-dasharray:none;stroke-opacity:1" />
  <path
     d="m 4679.0206,3404.6538 22,-25.5 0.5,-14 -9.5,-21 -33.5,-67 -27.5,-20.5 -21.5,-10.5 -23.5,-74.5 -65,-83 -71,-92.5 -31.5,-42.5 -4.5,-20 -1,-59 -17.5,-21.5 -63,-3 -30.5,-2 -51.5,7 -48.5,3.5 -42,11 -50.5,14 -14,0 -88.5,-35.5 -5.5,1 -20,13.5 -64,19.5 -53,11.5 -71.5,14 -104,37 -7,8 -21.6738,46.106 -11.0207,8.4982 -4.7774,10.2366 -82.0281,52.1592 -13.5,3.5 -77,-27"
     id="path3616"
     style="fill:none;stroke:#0069b5;stroke-width:5;stroke-linecap:butt;stroke-linejoin:round;stroke-miterlimit:4;stroke-dasharray:none;stroke-opacity:1" />
  <path
     d="m 3289.0206,2837.1538 161,79 119.5,57.5 71.0642,33.9678 12.8268,-6.9858 8.8351,4.8628 5.7894,15.2444 60.4845,28.9108 106.5,51 64.5,30 33,-5.5 21.5,3.5 95,48 23,14 50,24.5 72,33.5 90,36 41,14.5 45,23.5 20,4.5 2.5,5.5 -2,7 5,7 11.5,3.5 29.5,91.5 9.5,5.5 21.5,-5 80.5,-16.5 114.5,-20.5 31.5,-2 104.4999,15.5 209.5,29.5 114,15.5"
     id="path3618"
     style="fill:none;stroke:#ffcd02;stroke-width:5;stroke-linecap:butt;stroke-linejoin:round;stroke-miterlimit:4;stroke-dasharray:none;stroke-opacity:1" />
  <path
     d="m 4303.0205,3837.654 13.5,13.5 14.5,-1 66.5,-32.5 13,1 31.5,32.5 37.5,43 41.5,54 13,16.5 21.5,16.5"
     id="path2948"
     style="fill:none;stroke:#f59fb8;stroke-width:5;stroke-linecap:butt;stroke-linejoin:round;stroke-miterlimit:4;stroke-dasharray:none;stroke-opacity:1" />
  <text
     x="89.453094"
     y="206.96103"
     id="text2847"
     xml:space="preserve"
     style="font-style:normal;font-weight:normal;font-size:143.99993896px;font-family:Sans;-inkscape-font-specification:Sans;fill:#000000;fill-opacity:1;stroke:none"><tspan
       x="89.453094"
       y="206.96103"
       id="tspan1">1950</tspan></text>
  <text
     x="89.453133"
     y="7047.9609"
     id="text2847-0"
     xml:space="preserve"
     style="font-style:normal;font-weight:normal;font-size:143.99993896px;font-family:Sans;-inkscape-font-specification:Sans;fill:#000000;fill-opacity:1;stroke:none"><tspan
       x="89.453133"
       y="7047.9609"
       id="tspan2">1950</tspan></text>
  <path
     d="m 3956.0206,2968.654 -30,-66 -29.5,-50.0001 -28.5,-40 -20,-19 -86,-78.5 -82.5,-71 -102.5606,-90.5 -26.7649,-20.9396 -20.6745,-14.5603 -29,-10 -24,-4 -31.5,1.5 -33.5,10 -21,5.5 -17,-1 -16.5,-8 -14,-13.5 -11.5,-56 -14,-20.5 -20,-14 -22.5,-9.5 -33.5,-1 -29.5,10 -116.5,53 -97.5,49 -176.6483,86.2814"
     id="path3619-0"
     style="fill:none;stroke:#7082c0;stroke-width:5;stroke-linecap:butt;stroke-linejoin:round;stroke-miterlimit:4;stroke-dasharray:none;stroke-opacity:1" />
  <path
     style="fill:none;stroke:#7082c0;stroke-width:5;stroke-linecap:butt;stroke-linejoin:round;stroke-miterlimit:4;stroke-dasharray:none;stroke-opacity:1"
     id="path3619"
     d="m 3847.4389,2798.4661 -28.4659,-5.3557 -20.084,1.3389 -52.5531,9.0378 -33.6579,10.0775 -46.1575,34.0894 -109,90 -33.5,27 -17.5,15.5 -22.5,27.5 -26.5,49.5 -27,52 -5,19 -3.5,26 3,23.5 9.5,20.5 5.5,20 -1.5,13 -6.1679,13.9735 -12.3321,11.0265 L 3368,3273 l -11,6.5 -17,15.5 -10,22.5 -6,18 -2,12 -3.5,23.5 -9.5,15.5 -7.5,16.5" />
  <path
     d="m 2838.928,3821.089 35.2826,-3.5579 54.9747,7.3588 48.9145,20.345 122.0699,67.528 93.0675,31.5997 54.9747,8.6574 180.5077,-23.3751 72.2896,-9.5232 42.4214,-10.8218 40.69,-18.1806 35.0627,-23.808 29.8681,-26.4052 40.69,-52.8103 51.0789,-60.6021 86.5744,-112.1139 78.3498,-95.2318 32.7288,-40.1652"
     id="path3024"
     style="fill:none;stroke:#1dbbb0;stroke-width:5;stroke-linecap:butt;stroke-linejoin:round;stroke-miterlimit:4;stroke-dasharray:none;stroke-opacity:1" />
</svg>
