<svg xmlns="http://www.w3.org/2000/svg" height="12800" width="13250"><path d="M7827.542 6217.055l31.674 12.394 32.362 11.017 33.051 3.443 31.674-4.82 81.25-13.771 12.394 2.754 102.595 81.939 85.382 97.775 68.09 148.024 6.33 5.112 8.763 1.948 16.798-16.31 22.884-14.607 29.456-19.72 42.846-22.396 13.39-2.921 75.71 8.52 94.212 13.39 26.292 2.434 22.64-2.19 108.089-18.26 23.127 1.705 94.699 11.929 14.363-1.704 17.284-6.573 132.92-80.823 133.65-89.83 16.554-14.607 16.067-25.075 64.756-124.399 12.659-14.606 20.692-12.172 17.041-4.626 41.386-7.547 19.962-11.928 51.123-41.872 9.494-10.955 4.869-11.442 3.652-19.962v-18.745l-7.304-21.18-200.353-283.367-90.317-121.478-6.816-22.396-2.922-18.746-3.651-53.557-15.824-163.35 1.947-65.73-20.692-74.98-11.199-19.718-15.823-10.225-18.745-10.711-48.445 1.947-15.824-4.869-18.745-15.337-20.693-22.883-11.442-19.72-6.086-25.56-2.678-48.69 2.435-15.823 7.79-27.752-.974-33.352" fill="none" stroke="#c42e09" stroke-width="5" stroke-linejoin="round"/><path d="M8353.678 4900.204l54.17-7.17 23.101-5.178 15.136-8.762 24.296-18.322 13.543-5.577 10.754.399 162.508 21.11 24.695 11.949 258.5 169.28 27.882 21.906 9.56 13.543 7.965 13.94-.398 21.111-3.585 143.389-7.568 65.721-7.966 22.703-14.737 23.102-31.466 27.085-161.314 145.381-24.296 26.686-25.492 30.272-47.398 57.754-46.204 67.313-19.517 25.492-39.574 58.987-21.423 17.528-57.209 26.778-18.502 14.363-13.146 21.18-2.434 21.666 7.06 22.64 8.277 13.146-2.191 255.858 4.869 37.004 44.793 175.522 1.217 22.64-1.217 14.85-5.842 8.52-30.674 11.442-35.3 8.52-43.089 23.128-52.096 34.325-30.918 30.917-34.325 27.996-58.913 41.629-29.7 13.876-41.142 13.39-28.97 7.06h-14.119l-18.502-6.574-11.928-9.494-11.929-17.528-9.738-25.805-19.475-47.715-4.869-6.816-12.659-4.138h-11.442l-13.633 2.19-52.827 19.476-38.22 7.79-22.397.73-41.385-.973-40.411-5.6-16.555-4.868-12.659-7.06-18.988-23.37-9.738-6.817-106.14-23.614-46.011.487" fill="none" stroke="#0056b8" stroke-width="5" stroke-linejoin="round"/><text x="89.453125" y="206.96094" style="-inkscape-font-specification:Sans" font-weight="400" font-size="144px" font-family="Sans"><tspan x="89.453125" y="206.96094">2020</tspan></text><path d="M9439 5965.5l104-40.5 28-1 30-4 12-7 11.5-17 3-13 5.5-45.5 8-24 53-92 5-38.5 2.5-139.5V5381l3.5-42.5 20.5-113.5 19.5-134 17-45 28.5-39.5 33-40.5 93-107 9.5-22.5 22.5-54 31-52.5 112-178.5 36.5-46 55.5-63.5 41.5-71.5 46.5-60.5 14-37 21.5-39 40-54.5 30.5-26.5 26.5-32 54-87 50.5-46 18.5-25 28.5-72 19-21.5 88.5-68 18-27.5 16.5-32.5 8.5-33 50.5-85L10916 3413l115-126 52.5-53 53-51.5 38.5-31.5 34.5-18.5 62.5-46.5 36.5-27.5 31.5-38 75.5-106.5 22-32.5 55-118.5 78.5-169 14.5-25 141-213.5 103-168 32-35.5 29.5-22 64.5-47 23-27.5 61-63 44.5-54 10.5-20 5-20 5-67 .5-119.5 8.5-160.5-4-199.5 12-120 10.5-37.5 25-37.5 39-30.5 49-16 93.5-16.5 43-15.5 24-21.5 52-84.5 3.5-18-.5-17.5-42-112.5-3.5-36 4.5-51.5-49-233-3.5-46 3.5-23.5 19.5-37.5 31-24 37.5-9 142.5-6.5 157.5-49.5 118.5-41 254-143" fill="none" stroke="#2f4298" stroke-width="5" stroke-linejoin="round"/><path d="M5996.266 8207.453l59.397 106.773L6057 8327l-1.5 13.5-7.5 11.5-49 25-126.5 87.5-68 36.5-16 15.5-35.5 37-31.5 14-31.5 4.5-43.5 3-41 5-43.5 24.5-26 7.5-22.5 5.5-86.5 13.5-261 96-39.5 20-50 39-49 48.5-66.5 53-143 121-62.5 30.5-132.5 62-121.5 23.5-45 3-27.5 14-28.5 17-22 1.5-26.5-6.5-66.5-25-22.5-3-184 39-169 36-16 8-10.5 15.5-7.5 20 2.5 26 13 84 .5 20.5-20.5 132.5-5 20.5-18.5 24.5-50 49.5-20 35.5-12.5 26.5L3686 9848l-1.5 28 25 269 12.5 91-4.5 21.5-4.5 14-16 17.5-30 15.5-190 32-64.5 13.5-110.5 29-51 19.5-42.5 27-65 62.5-36.5 22-20 13-38 21.5-27 27.5-31.5 37.5-22.5 15-26 11-37.5 7-146.5 16-42.5 8-27.5 11-32 23.5-191.5 237-18 28-12.5 30.5-61.5 222-33.5 211.5 20.5 204 10 35 23 37 23 23 102 55.5 25.5 26 21 28.5 16.5 45.5 1.5 36-11.5 94-14.5 56-22 57.5-31.5 48-146 234-16.5 48-19.5 61-10 17.5-15 17.5-26 17.5-28 3-21-2-297.5-94-91.5-18.5-49-1-178.5-8-46.5-5-106-22-128-34-55-19.5-145-62.5-52.5-8.5-158.5-14-48 .5-290 23-55.5 9-31 7.5-38 15.5-34 18-198.5 50-16.5 6-25.5 19-39 43" fill="none" stroke="#009c85" stroke-width="5" stroke-linejoin="round"/><text x="89.453125" y="12697.961" style="-inkscape-font-specification:Sans" font-weight="400" font-size="144px" font-family="Sans"/></svg>