<?xml version="1.0" encoding="UTF-8" standalone="no"?>
<svg
   xmlns:dc="http://purl.org/dc/elements/1.1/"
   xmlns:cc="http://creativecommons.org/ns#"
   xmlns:rdf="http://www.w3.org/1999/02/22-rdf-syntax-ns#"
   xmlns:svg="http://www.w3.org/2000/svg"
   xmlns="http://www.w3.org/2000/svg"
   xmlns:xlink="http://www.w3.org/1999/xlink"
   viewBox="0 0 2550 1850"
   height="1850"
   width="2550"
   id="svg2"
   version="1.1">
  <metadata
     id="metadata8">
    <rdf:RDF>
      <cc:Work
         rdf:about="">
        <dc:format>image/svg+xml</dc:format>
        <dc:type
           rdf:resource="http://purl.org/dc/dcmitype/StillImage" />
        <dc:title></dc:title>
      </cc:Work>
    </rdf:RDF>
  </metadata>
  <defs
     id="defs6" />
  <image
     xlink:href="../basemap/msqosm.png"
     style="display:none"
     width="2584"
     height="1788.92"
     preserveAspectRatio="none"
     id="image10"
     x="0"
     y="-38.92" />
  <path
     style="opacity:1;fill:none;stroke:#009847;stroke-width:5;stroke-linejoin:round;stroke-opacity:1"
     d="m 1080.46,737.3 -21.44,31.43 -12.74,24.81 -7.15,22.44 -2.28,12.98 1.8,20.83 7.55,22.48 31.35,76.06 8.53,9.94 15.01,7.15 52.62,26.55 11.77,11.94 5.7,13.51 3.98,14.67 -0.53,12.11 -2.23,16.62 -15.31,102.81 -2,21.2"
     id="path859" />
  <path
     id="path4506"
     d="m 122.5,715 144.5,12.5 31,-1 108,-19 345.5,-41.5 17,2 32,21 12.5,10 116.5,23 149.5,21.5 14.5,2 13,-4 13.5,-9 8.5,-11.5 6,-4.5 16.5,-3.5 h 11 l 20.5,10 22.5,15.5 29,30 95.5,121 19.5,30.5 71,66 11,3 h 14.5 l 17.5,-3.5 25.5,-9.5 105,-32.5 35,-4 29.5,1 65.5,10.5 29,35.5 117.5,194.5 14,25 14.5,11 58,20.5 72,49 261.5,124"
     style="fill:none;fill-rule:evenodd;stroke:#d92318;stroke-width:5;stroke-linecap:butt;stroke-linejoin:round;stroke-miterlimit:4;stroke-dasharray:none;stroke-opacity:1" />
  <path
     id="path4508"
     d="M 2412.5,122.5 2271,198 l -83.5,43 -338.5,159 -151.5,67.5 -23.5,4 -54,7.5 -33.5,15 -110,78 -95.5,124 -10.5,18 -69,50 -153.5,129.5 -7,15.5 -2.5,16 1,20 0.5,19 -8,24.5 -11.5,20.5 -16,12.5 -66,40 -60.5,17 -22.5,-2.5 -11.5,-13.5 -43.5,-44.5 -12,-5 -26.5,2 -134,84.5 -25.5,28 -24.5,54 -35.5,90 -33,54 -100.5,141 -6.5,21 -26,110"
     style="fill:none;fill-rule:evenodd;stroke:#0664a2;stroke-width:5;stroke-linecap:butt;stroke-linejoin:round;stroke-miterlimit:4;stroke-dasharray:none;stroke-opacity:1" />
  <text
     style="font-style:normal;font-weight:normal;font-size:144px;line-height:125%;font-family:Sans;-inkscape-font-specification:Sans;letter-spacing:0px;word-spacing:0px;fill:#000000;fill-opacity:1;stroke:none"
     xml:space="preserve"
     id="text3000"
     y="206.96"
     x="89.45"><tspan
       id="tspan1"
       y="206.96"
       x="89.45">2020</tspan></text>
</svg>
