<?xml version="1.0" encoding="UTF-8" standalone="no"?>
<svg
   xmlns:dc="http://purl.org/dc/elements/1.1/"
   xmlns:cc="http://creativecommons.org/ns#"
   xmlns:rdf="http://www.w3.org/1999/02/22-rdf-syntax-ns#"
   xmlns:svg="http://www.w3.org/2000/svg"
   xmlns="http://www.w3.org/2000/svg"
   xmlns:xlink="http://www.w3.org/1999/xlink"
   version="1.1"
   id="svg2"
   width="1400"
   height="2050"
   viewBox="0 0 1400 2050">
  <metadata
     id="metadata8">
    <rdf:RDF>
      <cc:Work
         rdf:about="">
        <dc:format>image/svg+xml</dc:format>
        <dc:type
           rdf:resource="http://purl.org/dc/dcmitype/StillImage" />
        <dc:title></dc:title>
      </cc:Work>
    </rdf:RDF>
  </metadata>
  <defs
     id="defs6" />
  <image
     style="display:none"
     width="1584"
     height="2217.6001"
     preserveAspectRatio="none"
     xlink:href="file:///home/lexande/timelines/timelines/streetmap/../streetmap/pcaosm.png"
     id="image10"
     x="-200"
     y="-17.600098" />
  <path
     id="path816"
     d="m 215.82391,1936.5307 15.63108,-0.01 3.94235,7.1538 -0.56051,2.4922 -8.94439,4.4818 -3.06655,-0.8965 -68.9979,-124.9041"
     style="opacity:1;fill:none;fill-opacity:0.39607843;fill-rule:nonzero;stroke:#72b62f;stroke-width:1;stroke-linecap:butt;stroke-linejoin:round;stroke-miterlimit:4;stroke-dasharray:none;stroke-opacity:1" />
  <path
     id="path818"
     d="m 153.82799,1824.8479 -30.23675,-53.4266 -7.19092,-9.2044 0.86291,-7.7662 56.37679,-47.1724 18.40874,-20.7098 109.0143,-131.45 70.47098,-111.603 96.93355,-197.0311 22.43566,-45.4466 120.74784,-244.69162 63.9149,-139.59099"
     style="opacity:1;fill:none;fill-opacity:0.39607843;fill-rule:nonzero;stroke:#72b62f;stroke-width:5;stroke-linecap:butt;stroke-linejoin:round;stroke-miterlimit:4;stroke-dasharray:none;stroke-opacity:1" />
  <path
     id="path820"
     d="M 755.81661,613.68371 849.0109,519.05125"
     style="fill:none;fill-rule:evenodd;stroke:#72b62f;stroke-width:5;stroke-linecap:butt;stroke-linejoin:miter;stroke-miterlimit:4;stroke-dasharray:none;stroke-opacity:1" />
  <path
     id="path822"
     d="m 849.0109,519.05125 135.4769,-139.79141 59.8284,-48.89823 6.9033,-1.15055 4.8898,4.02691 37.6804,-1.43818 123.6837,-94.34482 10.355,-5.4651 12.0807,-2.01346 2.3011,-5.17746 -0.8629,-52.92514 14.9571,-28.47603 10.3549,-22.7233 1.4382,-1.15054 4.3145,1.15054 v 2.01346 l -17.8334,53.78805 -14.9571,20.99748 -7.4786,3.73928 -16.1076,13.80656 -7.191,1.15054 -12.9436,-1.43818 h -4.6022 l -4.8898,6.90328 -94.9201,69.89571 -22.148,20.70984 -11.2179,7.47855 -10.3549,3.73928 -3.7393,7.19091"
     style="opacity:1;fill:none;fill-opacity:0.39607843;fill-rule:nonzero;stroke:#72b62f;stroke-width:1;stroke-linecap:butt;stroke-linejoin:round;stroke-miterlimit:4;stroke-dasharray:none;stroke-opacity:1" />
  <path
     id="path824"
     d="m 675.56599,816.75519 16.7052,-34.17904 4.47458,-15.66102 0.40677,-22.37288 -2.84745,-21.96611 7.9322,-42.91525 4.88136,-13.22034 30.50847,-35.59322 18.18949,-17.16362"
     style="opacity:1;fill:none;fill-opacity:0.39607843;fill-rule:nonzero;stroke:#72b62f;stroke-width:1;stroke-linecap:butt;stroke-linejoin:round;stroke-miterlimit:4;stroke-dasharray:none;stroke-opacity:1" />
  <path
     id="path826"
     d="m 694.30509,722.57614 -6.1017,37.62712 -6.50847,33.96611 -6.12893,22.58582"
     style="opacity:1;fill:none;fill-opacity:0.39607843;fill-rule:nonzero;stroke:#72b62f;stroke-width:1;stroke-linecap:butt;stroke-linejoin:round;stroke-miterlimit:4;stroke-dasharray:none;stroke-opacity:1" />
  <text
     x="89.453125"
     y="206.96094"
     id="text2984"
     xml:space="preserve"
     style="font-style:normal;font-weight:normal;font-size:144px;line-height:125%;font-family:Sans;-inkscape-font-specification:Sans;letter-spacing:0px;word-spacing:0px;fill:#000000;fill-opacity:1;stroke:none"><tspan
       x="89.453125"
       y="206.96094"
       id="tspan1">2020</tspan></text>
  <path
     style="opacity:1;fill:none;fill-opacity:0.39607843;fill-rule:nonzero;stroke:#72b62f;stroke-width:1;stroke-linecap:butt;stroke-linejoin:round;stroke-miterlimit:4;stroke-dasharray:none;stroke-opacity:1"
     d="m 1217.4734,237.45497 -0.014,-2.37817 -9.5008,-12.35104 -0.1358,-4.7504 -2.0358,-2.30733"
     id="path821" />
  <path
     id="path825"
     d="m 898.59068,467.50916 5.15724,-0.28792 78.43483,15.25963 2.01542,-0.76778 0.76778,-3.45501 -0.86376,-1.0557 -76.77801,-14.20393 -0.95972,-3.35904"
     style="opacity:1;fill:none;fill-opacity:0.39607843;fill-rule:nonzero;stroke:#72b62f;stroke-width:1;stroke-linecap:butt;stroke-linejoin:round;stroke-miterlimit:4;stroke-dasharray:none;stroke-opacity:1" />
</svg>
