<svg xmlns="http://www.w3.org/2000/svg" width="9350" height="4600"><path d="M8509.375 3673.543l-57.256-23.755-17.055-1.218-21.928 6.7-59.084 38.983-29.237 12.792-35.329-1.828-40.201-4.264h-131.568l-89.539 15.228-20.1-3.654-11.574-6.092-13.4-18.273-4.264-18.273 3.655-23.755 1.827-19.492-7.918-23.146-14.01-12.182-33.501-4.264-152.277-5.482-171.16-7.31-358.766-28.628-107.204 22.537-346.583 2.437-17.665-6.091-17.055-10.355-7.918-14.01-6.091-69.438-14.619-86.494-12.791-56.038-12.182-30.455-63.957-111.468-128.522-101.112-42.029-74.92-15.228-15.228-2.436-28.02-15.228-93.802v-18.883l9.746-35.937 11.573-34.72 84.666-152.277 2.437-10.964-21.928-65.175 15.837-111.467 1.827-172.378-6.7-47.51-9.137-62.13-29.467-111.942-12.49-61.59 5.168-42.64 25.412-82.265 4.738-18.09-6.03-84.418-14.644-27.996-44.363-216.645-9.476-9.476-153.33 1.723-22.321-4.738-38.333-13.352-21.105-1.292-203.293 4.738-15.936-3.446-31.872-18.09-18.951-6.89-26.273-8.615-40.487.43-30.15 3.877-22.827 9.906-11.629 13.783-12.92 35.749-10.768 28.857-44.363 55.56-62.453 75.375-17.658 15.936-77.958 43.5-16.798 7.754-37.902 3.015-233.873.861-19.382 11.629-62.452 72.359-13.783 9.475-16.797 2.584-50.824-8.183-46.516-1.723-24.55-3.015-80.542-6.46-106.815-12.922-112.415-9.044-102.938 9.044-28.858 7.753-46.085 24.981-147.302 59.868-199.847 65.468-86.648 30.58-6.03 8.183-24.981 70.205-3.876 52.977 27.134 150.747v34.456l-9.045 26.274-17.659 13.782-31.01 3.876-151.178-12.92-86.142-38.764-57.714-15.936-47.378-11.63-65.467-1.292" fill="none" stroke="#00aec7" stroke-width="5" stroke-linejoin="round"/><path d="M7137.434 1840.463l-110.16 19.44-26.508 12.763-82.336 57.385L6900.5 1955l-8 19.5-2.5 68.5 13 325.5 8.5 24.5 25.5 21.5 64 38 16 11.5 6.5 14.5.5 11-11 23-88.5 121-42 59-88 98.5-28.753 29.734-127.071 131.816-32.303 17.228-20.243 16.798-43.07 10.336-14.214 5.6-36.18 24.98-85.71 46.517-195.11 119.736-77.527 49.531-9.475 12.49-1.292 13.353 5.599 23.258 34.887 121.028 1.292 25.412-.861 34.026-7.322 30.149-18.951 47.378-16.367 30.58-34.887 50.392-3.877 14.214.862 15.505 32.303 125.335 65.036 134.38" fill="none" stroke="#21ab34" stroke-width="5" stroke-linejoin="round"/><path d="M7846.5 1581l28-4.5 42.5-17.5 16-15 21.5-25 23-37 10-52 25-149.5v-46L8002 1185l-33-37.5-18-22-19.5-48-2.5-20 7-73 5-28 34-70 18-30.5 61-70.5 21-89.5 9-26.5 24-44 14-46.5-3-21-21.5-38.5V502l-.5-34 14.5-49 39-101.5 13-49.5 12.5-75.5 2.5-72" fill="none" stroke="#cb0a1e" stroke-width="5" stroke-linejoin="round"/><path d="M7703.5 4495l-8-274.5 3-128-3-209-9-125-2.5-47 2.5-56.5.5-112.5-10-74V3405l47.5-340.5-10.5-61-3.5-82-4-26.5-7.5-23-10.5-20-16.5-19-150.5-97.5-56.5-31.5-56-27.5-413.5-237.5-39-19.5-40.019-13.947-20.674-3.876-200.708-.43-17.229-1.724-13.782-5.168-16.798-11.63-8.614-14.643-13.782-42.64-11.63-11.63-24.55-9.475-28.857-4.307-46.516-2.584-126.628.862-102.939 14.213-16.797-1.292-16.367-11.199-19.382-19.381-16.797-26.274-21.966-80.542-3.446-31.01-9.045-19.382-32.733-34.887-24.981-58.576-18.09-15.506-24.12-6.46-57.714.43-304.94 19.813-211.046 5.168-14.644-2.153-15.505-10.768-12.06-13.782-9.476-18.952-14.213-94.755.43-156.777-31.871-191.233-51.685-147.302-103.37-247.656-217.075-275.651-24.12-14.644-23.258-8.614-41.778-6.892-53.839-.861-197.694 3.876" fill="none" stroke="#ed6d00" stroke-width="5" stroke-linejoin="round"/><path style="line-height:normal;font-variant-ligatures:normal;font-variant-position:normal;font-variant-caps:normal;font-variant-numeric:normal;font-variant-alternates:normal;font-feature-settings:normal;text-indent:0;text-align:start;text-decoration-line:none;text-decoration-style:solid;text-decoration-color:#000;text-transform:none;text-orientation:mixed;white-space:normal;shape-padding:0;isolation:auto;mix-blend-mode:normal;solid-color:#000;solid-opacity:1" d="M9208.5 1944l1.5-319.5-2.5-16.5-13-14.5-15.5-8-193.5-1-344 22.5-270 2-57-7-150-12-318-9-46 5-79 36.5-31.5 7-86-2.5-52.5 11.5-115 56.5-185 104.5-54.5 25.5-60.434 10.537-110.5 19.5-.65.211-27 13-.346.201-82.5 57.5-25.07 11.801-45.75 9.75-53.5 10.5-105.5 36.25-48.25 7.75-45.25 1.75-16.75-5.25-44.5-21.25-14.5-2-63.25-1.5-18.75 4.5-65 31.75-17 10-11.25 17-2.75 14.5 4.75 67-4.25 18.25-3.75 19.5-14.75 25.5-9.5 23.25-2.25 24.25 14.75 324.25 6.5 14.5 8 10 14.5 6 167 4.5 64 35.5 28 26 207 217 27 32 72.5 90.5 30.5 55 59 72.5 10 16.5 3.5 23 13.5 152 21 146.5 3.5 11 14.5 15 13.5 12 9 3 89 21.5 16.5 7.5 15 15.5 39 36.5 3.5 9.5 1 13.5-2 16-5.5 13-5.5 14-2.5 46.5 3 32 10.5 52 4 54.5" color="#000" font-weight="400" font-family="sans-serif" overflow="visible" fill="none" stroke="#cb0a1e" stroke-width="5" stroke-linejoin="round"/><text style="-inkscape-font-specification:Sans" y="4497.9609" x="89.453621" font-weight="400" font-size="144px" font-family="Sans"/><text style="-inkscape-font-specification:Sans" y="206.96094" x="89.453133" font-weight="400" font-size="143.99990845px" font-family="Sans"><tspan y="206.96094" x="89.453133">2020</tspan></text><path d="M103.655 3254.476l135.222-42.638 28.02-21.928 22.536-29.846 13.4-35.938 2.437-31.674-4.264-29.846-39.592-139.486-26.192-96.24 1.219-21.319 7.309-23.755 17.664-27.41 15.228-14.619 64.566-24.973 232.07-114.513 18.883-3.045 110.858 5.482 18.882-3.046 17.056-12.182 160.195-171.77 26.801-14.009 20.71-4.263 60.302.609 34.72-4.873 110.857-37.156 85.276-16.446 101.721 5.482 74.312 4.264 92.584 14.01 68.83 10.354 130.958 10.355 121.213 26.801 485.461-4.264 46.902 8.528 43.856 21.319 74.92 57.865 25.583 18.883 76.139 21.928 54.82 14.618 66.393 6.091 97.457 4.873 39.592 14.619 148.623 60.302 24.365 4.873 119.385 10.355 24.365-2.437 31.064-14.01 208.925-120.603 36.547-12.182h30.455l31.674 7.918 102.94 42.638 21.318 4.873h17.665l12.79-6.7 9.747-15.838 95.935-217.757 14.618-11.877 19.187-3.046 53.906 15.076 86.799 38.983 110.705 9.746" fill="none" stroke="orange" stroke-width="5" stroke-linejoin="round"/></svg>