<?xml version="1.0" encoding="UTF-8" standalone="no"?>
<!-- Created with Inkscape (http://www.inkscape.org/) -->

<svg
   xmlns:dc="http://purl.org/dc/elements/1.1/"
   xmlns:cc="http://creativecommons.org/ns#"
   xmlns:rdf="http://www.w3.org/1999/02/22-rdf-syntax-ns#"
   xmlns:svg="http://www.w3.org/2000/svg"
   xmlns="http://www.w3.org/2000/svg"
   xmlns:xlink="http://www.w3.org/1999/xlink"
   version="1.1"
   width="4200"
   height="2850"
   id="svg2">
  <metadata
     id="metadata3278">
    <rdf:RDF>
      <cc:Work
         rdf:about="">
        <dc:format>image/svg+xml</dc:format>
        <dc:type
           rdf:resource="http://purl.org/dc/dcmitype/StillImage" />
        <dc:title></dc:title>
      </cc:Work>
    </rdf:RDF>
  </metadata>
  <defs
     id="defs6" />
  <image
     xlink:href="../../streetmap/berosm.png"
     style="display:none"
     id="image12"
     height="7191.667"
     width="7397.1431"
     y="-1282.8571"
     x="-2537.8569" />
  <path
     d="m 1865.2729,757.79961 7.4086,11.27389 1.4463,29.6012 3.3853,14.5281 11.9893,11.746 21.5103,44.3013 36.7206,76.0183 12.2403,53.1483 8.0527,21.9036 17.7161,35.7543 18.6825,38.6533 6.7643,19.9709 19.0046,14.1729 22.2256,10.3076 7.2708,6.7064 4.3252,13.5866 8.3749,8.0527 13.5287,12.8845 8.9445,8.1867 18.757,22.7359 7.5215,15.4703 4.4606,16.398 16.3636,14.8379 0.9664,10.9517 -1.6105,22.2257 -3.8653,19.9709 -7.0865,24.8025 -51.7489,112.1708 2.1438,10.8757 c 0.6442,0.3221 43.485,20.9372 43.485,20.9372 l 6.7643,16.1055 13.5287,31.2448 35.7543,95.0228 27.0574,73.7634 -0.9664,6.7644 -5.1537,20.6151 -0.3222,18.6824 4.5096,22.2257 0.3221,29.6342 6.7643,33.8217 10.6297,43.8071 18.0382,65.3885"
     id="path3592"
     style="fill:none;stroke:#1b5ea4;stroke-width:5;stroke-linecap:butt;stroke-linejoin:round;stroke-miterlimit:4;stroke-opacity:1;stroke-dasharray:none" />
  <path
     d="m 1862.4412,1615.394 2.1875,7.2739 76.0182,26.091 110.0685,33.1366 60.1305,14.1951 62.3652,11.9368 30.2784,15.4613 86.3258,65.7107 32.2111,39.9417 22.5478,54.7589 13.5286,44.4513 7.0865,68.2876 7.0864,48.9609 17.394,30.9226 4.259,11.0733"
     id="path3615"
     style="fill:none;stroke:#7d64b1;stroke-width:5;stroke-linecap:butt;stroke-linejoin:round;stroke-miterlimit:4;stroke-opacity:1;stroke-dasharray:none" />
  <path
     d="m 1523.9634,736.07527 29.506,27.52233 114.0273,106.2967 27.0573,27.0573 47.6725,50.8937 28.99,36.0764 43.1628,57.98 37.3649,50.8936 5.1538,38.6533 10.9518,105.0082 11.596,122.4022 9.6633,88.9027 9.0191,89.5469 -5.1538,23.192 -16.4276,24.4804 -14.2435,31.8338"
     id="path3617"
     style="fill:none;stroke:#7d64b1;stroke-width:5;stroke-linecap:butt;stroke-linejoin:round;stroke-miterlimit:4;stroke-opacity:1;stroke-dasharray:none" />
  <path
     d="m 2106.8562,1177.5104 5.798,-4.5095 5.798,-3.5433 6.1201,0 11.9907,7.9301 51.4752,28.2431 50.5643,21.8656 26.8765,8.1996 148.0485,24.1433 70.6078,11.3884 194.5129,32.3428 160.8035,26.421 48.8379,7.9803 37.7672,16.9501 63.7059,34.2155 28.0236,14.8171 14.8172,18.0382"
     id="path3621"
     style="fill:none;stroke:#78513d;stroke-width:5;stroke-linecap:butt;stroke-linejoin:round;stroke-miterlimit:4;stroke-opacity:1;stroke-dasharray:none" />
  <path
     d="m 1537.7264,1519.7046 -14.991,9.8341 -51.7265,27.7407 -38.0091,19.3267 -4.5095,7.7306 2.5769,65.7107 -10.9518,14.1729 -5.1538,9.6633 -1.9327,16.1056 18.0383,78.5951 16.7497,71.5086"
     id="path3623"
     style="fill:none;stroke:#4fb638;stroke-width:5;stroke-linecap:butt;stroke-linejoin:round;stroke-miterlimit:4;stroke-opacity:1;stroke-dasharray:none" />
  <path
     d="m 1731.1374,1516.3048 -0.4555,-14.577 9.1106,-51.9309 19.1324,-58.3083 7.2886,-15.4882 23.2322,-29.6097 6.8331,-3.6443 11.8438,-2.2776 20.4991,-7.7441"
     id="path3627-2"
     style="fill:none;stroke:#f1471d;stroke-width:5;stroke-linecap:butt;stroke-linejoin:round;stroke-miterlimit:4;stroke-opacity:1;stroke-dasharray:none" />
  <path
     d="m 1951.2328,628.61471 -0.346,16.7682 5.1538,33.4995 4.3653,30.9564 -4.9422,20.2593 -8.5143,11.1344 -17.4709,9.8797 -12.0147,2.2402 -62.2872,5.2405 -20.5046,9.19219 -16.7497,12.8844 -31.889,35.7544 -6.1201,22.2256 3.2211,39.9418 10.3075,53.7927 8.697,21.2593 67.3212,66.677 19.3267,28.0236 15.7834,26.7353 11.2739,24.8025 0.9664,12.5623 -17.394,52.5042 -9.6634,12.2402 c -3.2211,0.3221 -17.394,0.9663 -17.394,0.9663 l -13.8507,7.0865 -15.7835,16.4276 -3.5432,11.2739 3.5432,27.3794 -8.0528,12.5624 -8.3748,5.1538 -35.4323,4.8316 -16.1055,4.8317 -7.7307,6.4422 -2.819,23.7551 -5.2338,68.3687 2.2548,11.9181 37.687,50.8935 4.5096,11.596 -0.6443,13.8508 -25.1475,59.968 -19.917,18.5988 -19.5692,12.7565 -18.1488,26.5694 -5.1538,20.9372 -1.2884,29.9563 -2.2548,53.7926 -1.6106,17.7161 -5.4758,26.091 -12.5624,34.788 -28.3458,83.7489 -20.9372,54.4367 -37.0427,116.9264 -34.4659,95.0227 -7.4086,25.4468 0.3221,20.6151 1.6106,27.7016 4.8316,34.1437"
     id="path3635"
     style="fill:none;stroke:#008940;stroke-width:5;stroke-linecap:butt;stroke-linejoin:miter;stroke-miterlimit:4;stroke-opacity:1;stroke-dasharray:none" />
  <path
     d="m 774.60438,1359.5028 25.7688,7.7307 86.3258,-9.0191 342.72622,-36.7207 11.596,2.5769 10.3076,10.3076 28.3458,36.0764 25.1246,19.9709 54.7589,41.2302 15.4613,3.2211 8.7307,11.8845 21.7593,15.1392 17.1433,6.9944"
     id="path3627"
     style="fill:none;stroke:#f1471d;stroke-width:5;stroke-linecap:butt;stroke-linejoin:round;stroke-miterlimit:4;stroke-opacity:1;stroke-dasharray:none" />
  <path
     d="m 1950.0272,632.97778 1.0921,-19.38951 -7.6992,-43.22581 -21.55,-40.52309 -99.8154,-94.00976 -98.5784,-88.28035"
     id="path3639"
     style="fill:none;stroke:#008940;stroke-width:5;stroke-linecap:butt;stroke-linejoin:round;stroke-miterlimit:4;stroke-opacity:1;stroke-dasharray:none" />
  <path
     d="m 4265.0004,2186.6845 -82.4604,-11.596 -81.8162,-5.798 -149.4595,-6.4422 -65.7107,-3.2211 -36.0764,-1.2885 -38.0092,-7.0864 -52.182,-4.5096 -57.3357,5.1538 -30.2785,-1.9327 -41.8744,-9.0191 -50.2493,-26.4131 -55.4031,-41.2302 -115.96,-83.1047 -152.6807,-109.5177 -101.1429,-74.7298 -76.0182,-55.4031 -23.8362,-20.6151 -37.3649,-41.8745 -52.8262,-39.2975 -57.98,-24.4804 -21.9035,-21.9036 -23.192,-14.1729 -75.374,-45.0955 -68.2876,-44.4514 -14.495,-4.5095 -41.2903,-14.7992"
     id="path3641"
     style="fill:none;stroke:#008940;stroke-width:5;stroke-linecap:butt;stroke-linejoin:round;stroke-miterlimit:4;stroke-opacity:1;stroke-dasharray:none" />
  <path
     d="m 2755.5879,1954.7645 92.768,99.8545 34.1438,30.9226 29.6342,30.2785 50.8936,54.1146 86.9699,91.4796 35.4323,32.2111 26.4131,18.6824 30.9226,28.99 45.7398,48.9609 157.8344,184.8918 63.1338,66.3548 74.7298,81.172 16.1055,20.6151 51.5378,59.2685 38.6533,39.9418 98.566,109.5177 50.8936,57.98"
     id="path3643"
     style="fill:none;stroke:#008940;stroke-width:5;stroke-linecap:butt;stroke-linejoin:round;stroke-miterlimit:4;stroke-opacity:1;stroke-dasharray:none" />
  <path
     d="m 3059.6608,2269.7892 25.1246,15.4613 30.9227,1.2884 29.6342,-9.0191 165.5651,-48.3166 8.3749,-0.6443 12.8845,3.2212 117.2484,41.8744 13.5287,14.8171 25.1246,47.0282"
     id="path3647"
     style="fill:none;stroke:#008940;stroke-width:5;stroke-linecap:butt;stroke-linejoin:round;stroke-miterlimit:4;stroke-opacity:1;stroke-dasharray:none" />
  <path
     d="m 1420.2636,1467.9307 22.6107,9.7968 107.0514,41.2206 57.6579,21.5815 42.0132,15.4067 11.8439,-0.4556 12.2995,3.6443 40.5425,-0.4555 7.744,-4.5553 5.0109,-7.2886 4.0998,-30.5208"
     id="path3627-8"
     style="fill:none;stroke:#f1471d;stroke-width:5;stroke-linecap:butt;stroke-linejoin:round;stroke-miterlimit:4;stroke-opacity:1;stroke-dasharray:none" />
  <path
     d="m 1440.9851,1481.595 103.1382,40.1314 14.8799,-9.7823 21.201,-12.9672 7.4085,-0.9664 39.2976,18.6825 8.697,2.2548 13.8508,-6.7644 15.4613,2.2548 31.8889,4.8317 43.1629,1.9326 20.293,2.5769 14.1729,-1.9326 25.1247,6.4422 10.3076,0 12.8844,-0.6442 12.8844,3.2211 45.7397,15.4613 14.8172,1.2885 27.7015,-4.5096 16.7498,-4.5096 51.5378,0 51.5378,0 45.0955,-3.8653 19.3267,0.6442 20.615,-3.8653 24.4805,-5.1538 63.1338,0 17.394,-1.9326 20.6151,-1.9327 16.1055,1.2884 48.9609,-12.2402 41.2302,-10.3075 9.6634,-5.1538"
     id="path3629"
     style="fill:none;stroke:#4fb638;stroke-width:5;stroke-linejoin:round;stroke-miterlimit:4;stroke-opacity:1;stroke-dasharray:none" />
  <path
     d="m 3191.0821,1299.5906 -31.5669,0.6442 -118.5369,-5.1538 -39.9417,4.5096 -25.1247,5.1538 -33.4996,10.9517 -30.2784,19.9709 -47.0282,41.2302 -85.0373,71.5087 -15.4614,11.596 -23.192,10.9518 -34.1437,9.6633 -41.2303,-0.6442 -119.5032,-34.788 -100.4986,-29.6342 -77.9509,-25.4468 -20.9372,-9.9854 -36.1942,-24.4472 -25.329,-15.4946 -20.9373,-4.8317 -23.5141,-6.7643 -12.8844,-1.6106 -14.495,0.6442 -11.9181,-3.5432 -12.8845,-10.3075 -20.9372,-12.2402 -20.293,-9.3413 -6.3488,-6.4691 -7.1799,-9.6364 -2.899,-11.9181 -12.2402,-20.293 -3.2211,-14.8171 -8.0528,-14.8172 -35.7543,-38.3312 -12.5623,-12.5623 -13.5287,-8.0528 -10.6297,-2.5769 -12.8844,0.6443 -14.8171,5.1537 -10.9045,6.5111 -10.0327,3.4744 -22.8699,0.3221 -9.6633,1.2884 -28.0237,18.0383 -5.2902,4.2659 -6.6279,4.1089 -11.596,3.8654 -43.7051,3.6376"
     id="path3649"
     style="fill:none;stroke:#008940;stroke-width:5;stroke-linecap:butt;stroke-linejoin:round;stroke-miterlimit:4;stroke-opacity:1;stroke-dasharray:none" />
  <path
     d="m 4265.0004,1276.3986 -253.8235,38.0091 -74.7298,14.1729 -57.3357,4.5095 -54.7589,-0.6442 -101.7871,-5.798 -86.97,-5.1538 -83.7489,-2.5768 -133.9982,-8.3749 -27.7015,-4.5096 -26.4132,-16.7498 -31.5668,-9.0191 -23.192,-5.1538 -25.1247,0.6443 -41.5523,10.3075 -51.5931,14.274"
     id="path3653"
     style="fill:none;stroke:#008940;stroke-width:5;stroke-linecap:butt;stroke-linejoin:round;stroke-miterlimit:4;stroke-opacity:1;stroke-dasharray:none" />
  <path
     d="m 1271.8814,-72.18624 21.8407,33.145945 26.1224,26.82956 104.4268,91.770255 156.1925,142.72666 143.1598,125.63808"
     id="path4387"
     style="fill:none;stroke:#008940;stroke-width:5;stroke-linecap:butt;stroke-linejoin:round;stroke-miterlimit:4;stroke-opacity:1;stroke-dasharray:none" />
  <path
     d="m 2757.7703,1957.3566 -220.7499,-245.487 -12.3426,-21.1554 -1.3666,-19.5879 6.833,-19.5879 7.2885,-14.5772"
     id="path4389"
     style="fill:none;stroke:#008940;stroke-width:5;stroke-linecap:butt;stroke-linejoin:round;stroke-miterlimit:4;stroke-opacity:1;stroke-dasharray:none" />
  <path
     d="m 2572.101,1452.757 12.3743,9.5459 15.9099,16.2635 6.7175,9.5459 1.7678,10.9602 0,10.6066 -0.3536,15.9099"
     id="path3632"
     style="fill:none;stroke:#008940;stroke-width:5;stroke-linecap:butt;stroke-linejoin:round;stroke-miterlimit:4;stroke-opacity:1;stroke-dasharray:none" />
  <path
     d="m 1818.3831,1336.5923 10.2385,-3.8679 24.5988,-4.0998 49.6532,-4.0998 5.9219,-5.0109 6.3776,-7.7441 5.0108,-3.1887 11.3884,-1.3666 8.6551,2.7332 9.1106,0 24.5988,17.3103 20.0435,8.6551 17.3104,4.0998 19.588,0.4556 17.3102,-6.833 31.4319,-16.3993 5.0109,-8.1996 3.6442,-9.5662 2.7333,-50.1087 -3.1888,-11.8439 -5.4664,-9.1107 0,-10.4772 24.5988,-20.499 4.0999,-7.7442 -1.8222,-6.833 -23.6878,-22.3211 -9.5662,-10.0217 -6.3774,-15.0327 2.2776,-11.8438 5.922,-14.1216 -11.8439,-43.2757 2.7332,-9.5662 6.3774,-11.8439 11.8439,-11.8439 5.0109,-23.6877 -0.4555,-22.7768 -2.2777,-24.1432 -1.8221,-81.5407 1.3666,-30.5208 4.0998,-36.4427 16.3992,-116.16109 1.3666,-33.254 -3.1887,-27.7876 -9.5662,-27.332 -1.0377,-17.12157"
     id="path3737"
     style="fill:none;stroke:#f1471d;stroke-width:5;stroke-linecap:butt;stroke-linejoin:round;stroke-miterlimit:4;stroke-opacity:1;stroke-dasharray:none" />
  <path
     d="m 2496.5433,-74.3912 -137.5078,212.09341 -76.2682,121.2579 -36.0764,56.9416 -33.2496,38.6533 -52.7204,50.1436 -46.0956,48.4224 -65.2106,60.3069 -78.8451,75.7682 -7.2683,15.81271 -5.0685,10.10589 -7.2328,20.38528"
     id="path3861"
     style="fill:none;stroke:#008940;stroke-width:5;stroke-linecap:butt;stroke-linejoin:miter;stroke-miterlimit:4;stroke-opacity:1;stroke-dasharray:none" />
  <path
     d="m -49.889079,2695.2036 21.820854,-18.9155 22.519945,-16.7445 15.461331,-16.1056 14.81711,-19.9709 9.01911,-23.192 7.086444,-56.0473 7.730665,-24.4804 9.66334,-19.3267 24.48044,-34.1438 130.7771,-168.7862 131.42132,-173.2957 112.09465,-143.0174 64.72453,-86.4947 46.88761,-39.9765 29.15414,-40.998 13.66601,-32.3429 18.2214,-40.998 38.97331,-42.3255 34.788,-31.889 10.95178,-19.3267 20.6151,-36.3985 25.44678,-32.2111 15.13922,-18.6825 31.889,-19.6487 16.42766,-7.0865 58.94633,-30.6005 50.57144,-23.5142 19.32666,-5.4758 21.9036,-3.8654 23.8071,-6.5379 24.8316,-8.2792 53.7926,-20.6151 17.394,-4.5095 25.1246,-4.5096 40.2639,2.5769 51.5378,4.8317 80.5278,7.7306 16.7497,-3.2211 13.5287,-9.0191 10.9518,-11.9181 11.7424,-20.863 11.1275,-24.2326 27.3794,-90.5132 5.4759,-12.5623 33.4996,-45.4177 19.3266,-13.2065 21.9036,-5.1538 18.0382,1.6105 64.4222,8.697 14.495,-2.2547 14.8171,-5.4759 10.6297,-7.4086 52.8262,-45.0955 15.7834,-14.1729 11.9182,-6.7643 8.3748,-3.2212 32.8554,-5.1537 13.5286,1.2884 11.596,4.5096 12.5624,9.9854 11.9181,16.4277 9.6633,16.7498 10.9518,7.0864 10.9518,3.2211 18.3603,0.6442 10.6297,0.9664 9.0191,3.8653 12.0872,6.4172 10.9161,4.0552 10.4529,4.308"
     id="path4196"
     style="fill:none;stroke:#008940;stroke-width:5;stroke-linecap:butt;stroke-linejoin:round;stroke-miterlimit:4;stroke-opacity:1;stroke-dasharray:none" />
  <path
     d="m 1568.9306,2210.5205 0,27.7016 -12.8844,35.4322 -25.1247,53.4704 -14.8171,26.4131 -37.3649,47.6725 -59.9127,65.0664 -52.8262,58.6242 -55.4031,52.182 -19.3266,25.1247 -11.596,18.0382 -46.384,47.6725 -26.4132,33.4995 -25.7688,38.0091 -20.6151,40.586 -28.3458,68.2876 -19.3267,68.9317 -12.2402,43.1629 -9.6633,23.8362 -18.0383,25.1247"
     id="path3637"
     style="fill:none;stroke:#008940;stroke-width:5;stroke-linecap:butt;stroke-linejoin:round;stroke-miterlimit:4;stroke-opacity:1;stroke-dasharray:none" />
  <path
     d="m 1720.7465,1571.4519 -13.3076,14.8171 -14.8171,15.4614 -12.2403,9.6633 -9.6633,30.2785 -41.8744,51.5377 -53.4705,73.4414 -37.3649,46.3839 -13.5286,15.4614 -24.4805,36.7206 -86.97,115.3158 -88.2584,116.6042 -98.566,128.2002 -28.3458,28.99 -26.4131,21.2594 -89.5469,49.6051 -63.7779,38.0091 -57.33584,29.6342 -85.68152,50.8935 -60.55688,35.4323 -109.51777,63.778 -55.4031,28.99 -27.05736,10.9517 -29.63422,7.7307 -21.90355,-2.5769 -34.14378,-15.4613 -128.84443,-93.4122 -70.86444,-49.6051 -16.10555,-7.0865 -22.54778,-1.9327 -19.97088,1.9327 -83.7489,27.0573 -14.1729,5.798 -35.4322,24.4805 -59.9127,38.6533 -28.3457,26.4131 -28.3458,43.8071 -44.4513,63.778 -14.1729,21.9036 -21.1097,17.8886"
     id="path3633"
     style="fill:none;stroke:#008940;stroke-width:5;stroke-linecap:butt;stroke-linejoin:round;stroke-miterlimit:4;stroke-opacity:1;stroke-dasharray:none" />
  <path
     d="m 1269.226,1475.7623 23.6878,-7.744 56.0307,-20.499 18.2213,-2.2777 12.2995,5.0108 22.7766,15.4882 18.7432,7.3548 25.5148,10.4047"
     id="path3739"
     style="fill:none;stroke:#4fb638;stroke-width:5;stroke-linejoin:round;stroke-miterlimit:4;stroke-opacity:1;stroke-dasharray:none" />
  <path
     d="m 484.70434,2389.614 10.95177,-16.1055 19.32667,-15.4614 27.05733,-30.9226 34.14377,-29.6343 22.54778,-14.8171 31.5669,-11.596 18.03822,-3.8653 26.41311,-0.6442 137.86359,16.1055 18.6824,0.6443 24.4804,-9.6634 40.586,-28.3457 9.0192,-11.596 31.5668,-53.4705 14.8172,-28.3458 3.2211,-16.1055 12.24019,-39.9418 11.59601,-17.394 16.1056,-10.3075 16.74972,-11.596 17.394,-8.3749 31.5669,-4.5096 35.4322,-5.798 16.1056,-9.6633 28.99,-28.3458 23.192,-38.6533 7.7307,-21.2594 2.5768,-21.2593 -1.2884,-22.5478 -5.798,-18.0382 -10.9518,-32.2111 -0.6442,-10.9518 9.0191,-19.9709 1.2885,-16.7497 2.5768,-108.2293 2.5769,-17.394 11.596,-18.0383 81.8162,-47.6724 28.3458,-15.4613 26.2599,-4.5329 10.4608,-5.4526 2.2548,-13.8508 36.7206,-44.1292 31.2448,-48.3166 22.2962,-6.2724"
     id="path3625"
     style="fill:none;stroke:#f1471d;stroke-width:5;stroke-linecap:butt;stroke-linejoin:round;stroke-miterlimit:4;stroke-opacity:1;stroke-dasharray:none" />
  <path
     d="m 1864.9403,1599.3808 -7.1222,16.5911 -11.2275,52.1141 -5.1538,31.5668 0.6442,66.3549 0,139.7962 -1.95,70.2001"
     id="path5442"
     style="fill:none;stroke:#3a9fd7;stroke-width:5;stroke-linecap:butt;stroke-linejoin:round;stroke-miterlimit:4;stroke-opacity:1;stroke-dasharray:none" />
  <path
     d="m 1913.2127,753.49368 -65.993,6.08864 -45.7244,11.7455 -27.0573,8.3749 -47.0282,30.2785 -65.7107,47.6724 -54.1147,41.8745 -32.2111,22.5477 -23.192,14.8172 -30.2784,4.5096 c 2.5769,1.2884 -141.0847,28.3458 -141.0847,28.3458 l -48.9609,10.3075 -101.7871,23.19198 -86.3257,18.6825 -120.4696,24.4804 -54.11464,14.8171 -38.0091,1.2885 -17.394,5.1537 -22.54777,12.2403 -9.66333,16.1055 -4.50956,21.2593 3.22111,36.7207 9.01911,54.7589 12.88445,68.2875 6.44222,27.7016 1.28844,22.5478 -10.95178,38.0091 -19.97088,41.8744 -4.50956,27.7016 1.28845,36.0764 7.08644,21.2593 19.32667,28.3458 29.63421,32.2111 42.51868,50.8936 24.4804,33.4995 25.12474,29.6343 77.3066,96.6333 46.384,55.4031 21.2593,18.6824 25.7689,12.8845 30.9227,5.798 79.2393,0 43.1629,-1.2885 37.3649,-5.798 47.6724,-1.2884 41.2302,1.9326 21.9036,-10.3075 35.4322,-13.5287 32.8553,-4.5095 19.9709,1.9326 21.9036,9.6634 23.192,15.4613 16.1055,22.5478 16.7498,45.7398 19.3267,22.5477 27.7015,13.5287 40.586,-1.9327 53.4705,3.2211 36.7206,8.3749 38.6534,15.4614 26.4131,15.4613 38.0091,26.4131 30.2784,14.8171 41.2302,16.7498 33.4996,-1.2885 97.2775,-13.5286 36.0765,-8.3749 22.5478,-6.4422 77.9508,-16.7498 119.1811,-29.6342"
     id="path3631"
     style="fill:none;stroke:#008940;stroke-width:5;stroke-linecap:butt;stroke-linejoin:round;stroke-miterlimit:4;stroke-opacity:1;stroke-dasharray:none" />
  <path
     d="m 807.1384,1540.8514 -14.80139,-1.695 -25.14039,-6.0357 -21.25933,-11.2739 -19.97089,-23.192 -9.01911,-15.7834 0,0 -7.73066,-32.8553 -8.697,-29.3121 -17.394,-19.3267 -23.192,-13.8508 -24.15833,-21.5814 -14.49502,-23.192 -14.17288,-13.8508 -25.44678,-6.1201 -21.90355,-1.2885 -106.61877,28.0237 -57.97999,14.1729 -14.24874,-2.6695 -13.13071,-3.7727 -27.70155,-22.5478 -32.85533,-32.8553 -11.27389,-22.2257 -5.15377,-83.1047 1.28844,-18.3603 22.54778,-58.9463 6.12011,-24.8026 -0.96634,-22.2256 -11.596,-18.3604 -12.88444,-9.9854 -114.99367,-23.8362 -30.9227,-11.9181 -31.2447,-15.94448 -24.8026,-9.1802 -25.9299,-6.7643"
     id="path3657"
     style="fill:none;stroke:#008940;stroke-width:5;stroke-linecap:butt;stroke-linejoin:round;stroke-miterlimit:4;stroke-opacity:1;stroke-dasharray:none" />
  <path
     d="m 899.4398,1069.1516 -22.62741,-1.7678 -13.78858,-4.9497 -9.8995,-7.0711 -13.78858,-14.8492 -22.62742,-33.5876 -2.47487,-13.43501 1.76777,-26.87006 -2.12132,-12.02081 -5.65686,-14.49569 -10.25305,-11.66726 -11.31371,-8.13173 -8.48528,-3.18198 -64.34671,-2.47487 -12.02082,-4.24264 -15.55635,-8.48528 L 564.2712,794.79419"
     id="path3785"
     style="fill:none;stroke:#008940;stroke-width:5;stroke-linecap:butt;stroke-linejoin:round;stroke-miterlimit:4;stroke-opacity:1;stroke-dasharray:none" />
  <path
     d="m 339.99999,2723 67.5,-31.5 201.49999,-99.5 26,-14"
     id="path3959"
     style="fill:none;stroke:#008940;stroke-width:5;stroke-linecap:butt;stroke-linejoin:round;stroke-miterlimit:4;stroke-opacity:1;stroke-dasharray:none" />
  <path
     d="m 1100.2506,1237.5113 0.3306,7.3205 0.6441,29.6343 3.625,31.1824 3.9137,12.192 12.4665,9.9711 14.6104,-0.9811"
     id="path3615-6"
     style="fill:none;stroke:#3a9fd7;stroke-width:5;stroke-linecap:butt;stroke-linejoin:round;stroke-miterlimit:4;stroke-opacity:1;stroke-dasharray:none" />
  <path
     d="m 2389.0253,1978.6009 66.3549,-16.7498 23.8362,-14.1729 15.4613,-19.9709 8.3749,-32.8553 18.6825,-156.546 8.3749,-56.0473 8.3749,-46.384 13.5286,-27.7016 23.192,-32.2111 28.99,-35.4322 11.596,-37.3649 16.7498,-65.0664 44.4513,-74.0856 6.4422,-22.5477 -5.1537,-34.1438 -24.4805,-66.9991 -28.3458,-67.6433 -18.6824,-14.1729 -52.182,-20.6151 -26.4131,-12.8845 -28.99,-40.586 -65.7107,-112.7389 -21.9035,-28.3457 -76.0182,-50.8937 -58.6242,-37.3649 -28.99,-10.9517 -41.2303,-26.4132 -51.5377,-42.5186 -25.1247,-13.5287 -21.2593,-9.0191 -53.4705,-3.2211 -66.3548,2.5769 -38.0092,1.9327 -37.7421,-0.4403"
     id="path3631-6"
     style="fill:none;stroke:#008940;stroke-width:5;stroke-linecap:butt;stroke-linejoin:round;stroke-miterlimit:4;stroke-opacity:1;stroke-dasharray:none" />
  <path
     d="m 2454.736,1961.5285 24.8025,-1.9327 15.7835,4.1874 37.3649,16.1056 27.0573,7.7307 19.3266,-1.2885 120.4696,-27.7015 38.0091,-7.7307 18.0382,3.8653"
     id="path3643-6"
     style="fill:none;stroke:#008940;stroke-width:5;stroke-linecap:butt;stroke-linejoin:round;stroke-miterlimit:4;stroke-opacity:1;stroke-dasharray:none" />
  <path
     d="m 2370.3427,1496.0782 7.0864,0 14.1729,3.2211 7.7307,-7.7307 16.7497,-23.8362 18.6825,-37.3649"
     id="path3629-4"
     style="fill:none;stroke:#4fb638;stroke-width:5;stroke-linejoin:round;stroke-miterlimit:4;stroke-opacity:1;stroke-dasharray:none" />
  <path
     d="m 480.839,1115.3424 17.394,9.0192 16.10555,7.0864 9.01912,10.9518 4.50955,18.0382 15.46133,30.2784 19.32667,42.5187 14.17288,21.2593 14.17289,8.3749 16.10556,5.1538 31.5669,-7.0864 33.49955,4.5095 14.81711,12.2402 66.99907,65.7107 20.6152,16.1055"
     id="path3627-3"
     style="fill:none;stroke:#f1471d;stroke-width:5;stroke-linecap:butt;stroke-linejoin:round;stroke-miterlimit:4;stroke-opacity:1;stroke-dasharray:none" />
  <text
     x="89.453125"
     y="2747.9609"
     id="text2838"
     xml:space="preserve"
     style="font-size:144px;font-style:normal;font-weight:normal;fill:#000000;fill-opacity:1;stroke:none;font-family:Sans;-inkscape-font-specification:Sans"><tspan
       x="89.453125"
       y="2747.9609"
       id="tspan2">1950</tspan></text>
  <text
     x="89.453201"
     y="206.96089"
     id="text2838-3"
     xml:space="preserve"
     style="font-size:143.99990845px;font-style:normal;font-weight:normal;fill:#000000;fill-opacity:1;stroke:none;font-family:Sans;-inkscape-font-specification:Sans"><tspan
       x="89.453201"
       y="206.96089"
       id="tspan1">1950</tspan></text>
</svg>
