<?xml version="1.0" encoding="UTF-8" standalone="no"?>
<svg
   xmlns:dc="http://purl.org/dc/elements/1.1/"
   xmlns:cc="http://creativecommons.org/ns#"
   xmlns:rdf="http://www.w3.org/1999/02/22-rdf-syntax-ns#"
   xmlns:svg="http://www.w3.org/2000/svg"
   xmlns="http://www.w3.org/2000/svg"
   xmlns:xlink="http://www.w3.org/1999/xlink"
   viewBox="6700 800 12250 12000"
   height="12000"
   width="12250"
   id="svg2"
   version="1.1">
  <metadata
     id="metadata8">
    <rdf:RDF>
      <cc:Work
         rdf:about="">
        <dc:format>image/svg+xml</dc:format>
        <dc:type
           rdf:resource="http://purl.org/dc/dcmitype/StillImage" />
        <dc:title></dc:title>
      </cc:Work>
    </rdf:RDF>
  </metadata>
  <defs
     id="defs6" />
  <image
     style="display:none"
     y="-779.40039"
     x="9556.5996"
     id="image10"
     xlink:href="file:///home/alexander/timelines/timelines/streetmap/../streetmap/tyo2osm.png"
     preserveAspectRatio="none"
     height="15629.4"
     width="5484" />
  <image
     width="6306.6001"
     height="15629.4"
     preserveAspectRatio="none"
     xlink:href="file:///home/alexander/timelines/timelines/streetmap/tyo1osm.png"
     id="image4552"
     x="3250"
     y="-779.40039"
     style="display:none" />
  <image
     width="6032.3999"
     height="15629.4"
     preserveAspectRatio="none"
     xlink:href="file:///home/alexander/timelines/timelines/streetmap/tyo3osm.png"
     id="image4601"
     x="15040.6"
     y="-779.40039"
     style="display:none" />
  <path
     id="path5026"
     d="m 12359.357,9046.2459 -17.838,-0.7942 -45.519,20.5479 -179,227.5 -62.5,117 -53,57 -47.5,83 -23.5,34 -115.5,122 -56.5,50 -53.5,34.5 -54.5,20.5 -57.5,7 -31,17.25 -169.5,160 -27.925,39.1834"
     style="fill:none;fill-rule:evenodd;stroke:#ee202a;stroke-width:5;stroke-linecap:butt;stroke-linejoin:round;stroke-miterlimit:4;stroke-dasharray:none;stroke-opacity:1" />
  <path
     style="fill:none;fill-rule:evenodd;stroke:#ee202a;stroke-width:5;stroke-linecap:butt;stroke-linejoin:round;stroke-miterlimit:4;stroke-dasharray:none;stroke-opacity:1"
     d="m 12756.723,7706.2557 4.277,7.7443 21,40 31.5,182 -1.5,20 -25.5,38 -67,179.5 -9.5,105.5 4.5,51 -2.5,26.5 -9.5,40 -12.5,21.5 -12,39 -51,101.5 -7.752,21.3621"
     id="path6323" />
  <path
     style="fill:none;fill-rule:evenodd;stroke:#ee202a;stroke-width:5;stroke-linecap:butt;stroke-linejoin:round;stroke-opacity:1;stroke-miterlimit:4;stroke-dasharray:none"
     d="m 12758.352,7708.6595 -3.087,-5.6583 4.321,-18.8675"
     id="path4593" />
  <path
     style="fill:none;fill-rule:evenodd;stroke:#f15a22;stroke-width:5;stroke-linecap:butt;stroke-linejoin:round;stroke-miterlimit:4;stroke-dasharray:none;stroke-opacity:1"
     d="m 13087.395,6527.4823 -23.839,-7.6499 -29.612,-22.481 -42.97,0.8106 -35.269,-8.5888 -93.96,-7.4246 -17.299,2.7426 -15.617,14.4528 -74.642,120.0011 -35.149,31.5091 -48.351,37.5373 -17.927,63.8896 -15.746,25.9559 -64.579,42.8657 -25.292,8.2353 -158.306,-26.9736 -58.654,3.3891 -17.806,-12.7102 -3.632,-18.2028 -35.709,-178.898 -12.503,-38.4411 -15.392,-35.28 -25.706,-41.7621 -26.931,-29.0092 -36.226,-18.0312 -41.634,-9.1495 -156.624,5.1997 -131.565,4.6531"
     id="path6969" />
  <text
     style="font-style:normal;font-weight:normal;font-size:144px;line-height:125%;font-family:Sans;-inkscape-font-specification:Sans;letter-spacing:0px;word-spacing:0px;fill:#000000;fill-opacity:1;stroke:none"
     xml:space="preserve"
     id="text2993"
     y="12697.961"
     x="6789.4531"><tspan
       id="tspan2"
       y="12697.961"
       x="6789.4531">1905</tspan></text>
  <text
     style="font-style:normal;font-weight:normal;font-size:143.99989319px;line-height:125%;font-family:Sans;-inkscape-font-specification:Sans;letter-spacing:0px;word-spacing:0px;fill:#000000;fill-opacity:1;stroke:none"
     xml:space="preserve"
     id="text2997"
     y="1006.96094"
     x="6789.4531"><tspan
       id="tspan1"
       y="1006.96094"
       x="6789.4531">1905</tspan></text>
  <path
     id="path5878"
     d="m 12714.302,8240.625 -5.092,3.8797 -77.837,1.455 -15.035,4.1222"
     style="fill:none;fill-rule:evenodd;stroke:#ee202a;stroke-width:5;stroke-linecap:butt;stroke-linejoin:round;stroke-opacity:1;stroke-miterlimit:4;stroke-dasharray:none" />
  <path
     style="fill:none;fill-rule:evenodd;stroke:#ee202a;stroke-width:1px;stroke-linecap:butt;stroke-linejoin:round;stroke-opacity:1"
     d="m 12619.248,8579.8621 -2.667,6.5471 -145.249,235.6958 -91.174,148.1586 0.97,10.4269 6.304,8.7295 -17.944,30.5532 -2.425,14.5491 0.97,5.3347 v 2.9098 l -8.676,3.4791"
     id="path4524" />
</svg>
