<?xml version="1.0" encoding="UTF-8" standalone="no"?>
<svg
   xmlns:dc="http://purl.org/dc/elements/1.1/"
   xmlns:cc="http://creativecommons.org/ns#"
   xmlns:rdf="http://www.w3.org/1999/02/22-rdf-syntax-ns#"
   xmlns:svg="http://www.w3.org/2000/svg"
   xmlns="http://www.w3.org/2000/svg"
   xmlns:xlink="http://www.w3.org/1999/xlink"
   version="1.1"
   id="svg2"
   width="12250"
   height="12000"
   viewBox="6700 800 12250 12000">
  <metadata
     id="metadata8">
    <rdf:RDF>
      <cc:Work
         rdf:about="">
        <dc:format>image/svg+xml</dc:format>
        <dc:type
           rdf:resource="http://purl.org/dc/dcmitype/StillImage" />
        <dc:title></dc:title>
      </cc:Work>
    </rdf:RDF>
  </metadata>
  <defs
     id="defs6" />
  <image
     width="5484"
     height="15629.4"
     preserveAspectRatio="none"
     xlink:href="file:///home/alexander/timelines/timelines/streetmap/../streetmap/tyo2osm.png"
     id="image10"
     x="9556.5996"
     y="-779.40039"
     style="display:none" />
  <image
     y="-779.40039"
     x="3250"
     id="image4552"
     xlink:href="file:///home/alexander/timelines/timelines/streetmap/tyo1osm.png"
     preserveAspectRatio="none"
     height="15629.4"
     width="6306.6001"
     style="display:none" />
  <image
     y="-779.40039"
     x="15040.6"
     id="image4601"
     xlink:href="file:///home/alexander/timelines/timelines/streetmap/tyo3osm.png"
     preserveAspectRatio="none"
     height="15629.4"
     width="6032.3999"
     style="display:none" />
  <path
     style="fill:none;fill-rule:evenodd;stroke:#007ac1;stroke-width:5;stroke-linecap:butt;stroke-linejoin:round;stroke-miterlimit:4;stroke-dasharray:none;stroke-opacity:1"
     d="m 14264.602,6233.5074 -225.877,191.0653 -30.449,32.0698 -28.052,61.2003 -25.895,22.799 -42.219,8.253 -443.203,29.9234 -49.272,-7.4749 -56.573,3.0116 -30.426,12.7488 -33.942,31.8198 -19.445,19.799 -42.426,30.7591 -97.228,37.8302 -17.536,9.8995 -18.122,58.3364 -13.485,14.4956 -16.617,29.345 -22.981,79.5495 -5.114,23.731 -10.357,10.9601 -32.259,67.4858 6.717,94.0452 1.415,67.1752 -9.546,48.4368 -19.446,57.9827 -21.92,37.1231 -18.385,38.5374 -99.702,55.5078 -19.445,12.728 -15.91,22.2738 -2.829,52.3259 -23.334,83.4386 -16.617,77.0747"
     id="path6686" />
  <path
     style="fill:none;fill-rule:evenodd;stroke:#1a449b;stroke-width:5;stroke-linecap:butt;stroke-linejoin:round;stroke-miterlimit:4;stroke-dasharray:none;stroke-opacity:1"
     d="m 10436,8539.5 74,18.5 40,19 48.5,7.5 72,55 17,19.5 60.5,29 10,13.5 6,17 -4.121,25.7782 -77.379,196.9038 V 8963 l 5.5,16 9,13 15,10.5 69.5,11 122.5,33.4996 64.5,12 39,6 42,24 102,28.5 10,8 9,19.5 5.5,32 8,132.5 4.5,44 16,54 55,62.5 18.5,56 v 20 l -7.5,20 -24.5,28 -18.5,63 -5,12.5 -12.5,8 -15,3.5 -41.5,3 -17.5,11 -37.5,50.5 -51,98.5 -11.5,46.5 9.5,42.5 3.5,9.5 8.5,4.5 167.5,-1.5 13,5 13.5,12.5 4,12.5 4,92.5004 25,77.5 5,27 123.5,195.5 14,1.5 27,33 31.5,22.5 3.5,12.5 -6.5,11 -16,18.5 -31.5,21.5 -124,66.5 -86,32 -7,4 -17,22 -64,57.5 -67,47 -11,19 -11,35.5 -35,74 -25.5,66 v 16.5 l -13.5,28.5 -2.5,35 -7.5,39.5 -30,56 -35.5,19.5 -20,13.5 -102,7.5 -22.5,-0.5 -43.5,-7.5 -45.5,-37 -26.5,-6.5 -22,3.5 -39,8.5 h -16.5 l -70.5,-20 h -21.5 l -51.5,8 -35.5,13 -26,25 -23.5,11.5 -65,-10 -34,-14 h -21 l -42,8 -18.5,1.5 -56.5,-16.5 -14,-17 -68,-39.5 -47,-44.5 -22.5,-30 -120.5,-68 -29,-1 -20.5,4 -25,10.5 -10.5,13.5 -29.5,57.5 -15.5,19.5 -20.5,18 -121,53.5 -21.5,10.5 -12,17.5 -15.5,29.5 -13.5251,11.5 -16.6716,9.914 -49.2426,9.122 -69.5607,18.646"
     id="path5079" />
  <path
     id="path6067"
     d="m 11338.25,10038.75 6.25,-12.25 -5,-50.0004 5.5,-22 45,-51 7.5,-17 1.5,-22.5 -30.5,-99.5 1.5,-12.5 6,-16.5 41.5,-39 21,-43.5 -0.5,-51 8,-27 10.5,-37.5 v -50 l -8.5,-17 -25,-21.5 -7,-18.5 -20,-188.5 1,-15 31,-94 15,-32.5 3,-15 1,-41 6.5,-19.5 127.5,-178.4996 8,-29 28.75,-99 43.75,-49.25 14,-22.25 143.75,-359.5 58,-50.75 1.25,-15.5 -17.25,-88.75 -1.25,-64.75 4.12,-50.7355 6.88,-40.0145 8.5,-34 38,-81.5 144,-196 20.5,-40.5 50.5,-107 53.5,-82 43,-34 59,-61 14,-20 22.5,-18 8,-16 14,-27.5 14,-23.5 v -11 l -5.5,-11.5 -45,-58 -4.75,-16.25"
     style="fill:none;fill-rule:evenodd;stroke:#ff00ff;stroke-width:5;stroke-linecap:butt;stroke-linejoin:round;stroke-miterlimit:4;stroke-dasharray:none;stroke-opacity:1" />
  <path
     style="fill:none;fill-rule:evenodd;stroke:#c9252f;stroke-width:5;stroke-linecap:butt;stroke-linejoin:round;stroke-miterlimit:4;stroke-dasharray:none;stroke-opacity:1"
     d="m 13062.5,6858.5 47,11.5 77.5,39 92.5,1.5 28.5,10.5 79.5,52 102,106 19.75,13.5 51,22.75 79.75,-1.25 46.5,-1.75 18.5,6.75 27.75,28.5 21.5,37.25 12.25,121 9.75,20.25 14.468,11.1209 17.395,7.207 52.637,-5.4529"
     id="path6329" />
  <path
     style="fill:none;fill-rule:evenodd;stroke:#d60970;stroke-width:5;stroke-linecap:butt;stroke-linejoin:round;stroke-miterlimit:4;stroke-dasharray:none;stroke-opacity:1"
     d="m 11390.92,5617.3068 28.58,0.6932 11.5,6 14.5,17.5 4,18.5 3,17.5 10.5,17.5 129,56.5 18,12.5 9.5,13.5 4,28.5 1,20 14,33.5 -2,43.5 3,24.5 17,15.5 7.5,3.5 27,0.125 33.25,-5.375 50.25,8.25 39,31.5 40.5,11.5 71,31.5 112.5,70 10.5,23 19,42 11,13 47.5,42 2.5,11 -1.5,10 -14,36 -56,149.5 -4,58 8,31 v 41 l -16.5,105 0.5,13 7,7.5 7.5,2 8,-1 26,-13.5 12.5,-1 14.5,5 14,1 95,-14.5 18.5,4 6.75,4 8.25,42.5 6.5,17.5 17,24 8.5,39 8.5,24 14.5,5.5 28.5,-4.75 44.5,-3 78,22.75 23.5,-1.5 29.5,10 26,62.5 12.5,8 16.5,39.5 25,9.5 13.5,66.5 53.5,49 10,17.5 4.5,16 -8,34 2,12.5 7,18.5 13.5,5.5 68.5,17.5 26,8.5 55,7 21,11.5 6.5,2 14.5,-1 9,-9.5 3.25,-29 2.75,-6 15.5,-4.5 69,10.5 9.25,-8 14,-84.5 39.75,-58.5 20.625,-7.75 7.875,1.75 71,73 11.5,22.5 11,34.5 7,9.5 11,5.5 12,-1 214.5,-189.5 37.5,-39.5 12.5,-26 3,-9 2,-24.5 35.5,-53 -28,-368.5 -56.5,-29.5 -23,-8.5 -35.25,-3 -231.75,-31.75 -12,0.25 -21.5,14 -14.5,1 -24,-5.75 -88,4 -29,-16.25 -37,-0.5 -16,8 -11.5,10.5 -9,16 -10,31 -12.5,13.5 -22.25,9 -11.75,2.75 -22,-5.75 -10.25,-4.75 -25.25,6.5 -19,18.75 -16.5,11 -56.5,24.5 -19.5,2.5 -25,-4.5 -28,0.5 -55.5,-7.5 -50.5,15.5 -18.5,9 -15,8.5 -71.5,1.5 -52,-9.5 -39,4.5 -35,-0.5 -9,6 -1,13.5 14.5,42.5 2.5,27.5 -2.5,10.5 -8.5,5.5 -33,4"
     id="path4637" />
  <path
     style="fill:none;fill-rule:evenodd;stroke:#ecb404;stroke-width:5;stroke-linecap:butt;stroke-linejoin:round;stroke-miterlimit:4;stroke-dasharray:none;stroke-opacity:1"
     d="m 11972,5826.5 -22,-2.5 -75,65.5 -23.5,16 -26,10.5 -125.5,19.5 -116.5,3.5 -193.5,26 -33.5,-1.5 -39.5,-14 -116.5,-79 -101.5,-27 -49.5,-15.5 -108,-29 -89.5,-46.5 -35.25,-4.3785 -200.112,25.4558 -131.719,14.0775 -198.253,-99.7728 -211.918,-260.8894 -20.117,-14.6739 -30.288,-10.1037"
     id="path4635" />
  <path
     style="fill:none;fill-rule:evenodd;stroke:#02ac9a;stroke-width:5;stroke-linecap:butt;stroke-linejoin:round;stroke-miterlimit:4;stroke-dasharray:none;stroke-opacity:1"
     d="m 12546.874,5233.8844 75.626,18.6156 13,13.5 26,25.5 24,40 v 14.5 l -0.5,49.5 40,145 16,35 -6,126 11.5,46.5 66.5,79 22.5,11 14.5,10 9,7.5 3,24.5 -13.5,50.5 8,39 52.5,78 27,66 4,10 8,38 44.5,71 4.5,17 v 17 l -8.5,20.5 -4,16 -8.5,16 -18,21.5 -27.5,4.5 -9,8.5 -3,9 -2,87 -7,9.5 -16.5,8.5 -39.798,-0.208 -25.701,10.8492 -12.251,11.8588 -78.559,120.5951 -16.41,23.1777 -53.74,39.9515 -12.374,18.0312 -10.607,25.4559 -3.182,21.2131 -0.354,27.9308 3.89,17.6776 33.587,27.9308 13.789,21.5667 16.263,6.364 24.749,-1.7678 18.738,4.5962 23.688,13.7886 8.486,10.6066 3.535,9.8995 4.243,20.8596 -3.889,85.5599 -26.517,37.8303 -13.435,85.9134 -17.324,30.7592 -2.475,23.3345 7.425,28.2843 -2.475,32.1733 -4.243,27.2236 2.475,57.2757 -14.478,42.5122 -36.933,78.5673 -4.536,5.1391 -24.206,2.2855 -51.247,31.0698 -69.022,39.2622 -35.751,2.2071 -29.035,6.2175 -5.083,11.1014 15.513,62.218 -3.134,22.0616 -21.584,36.4515 -22.792,18.799 -135.04,93.3632 -102.926,145.2676 -303.185,98.7878 -11.539,10.2102 -8.753,23.1525 -1.803,33.0952 1,64 17.5,89.5 -1.5,18 -59,51 -52.695,131.8293"
     id="path4639" />
  <path
     style="fill:none;fill-rule:evenodd;stroke:#7ab42c;stroke-width:5;stroke-linecap:butt;stroke-linejoin:round;stroke-miterlimit:4;stroke-dasharray:none;stroke-opacity:1"
     d="m 15106.767,6145.5155 -33.235,61.5183 -38.89,56.5685 -21.921,17.6777 -55.861,28.2843 -89.096,70.7107 -59.397,50.9117 -12.02,20.5061 -11.314,80.6101 -15.556,34.6483 -62.226,105.3589 -24.041,21.9203 -34.649,21.2132 -49.497,9.1924 -234.053,38.1837 -70.003,2.1214 -25.456,-8.4853 -169.706,-92.631 -29.698,0.7071 -64.347,5.6568 -120.208,9.8995 h -49.497 l -104.652,3.5356 -235.467,16.9705 h -42.426 l -40.305,-1.4142 -42.427,-5.6568 -22.627,-12.728 -31.82,-32.5269 -65.054,-61.5183 -120.818,-6.2501 -38.5,16.5 -21.5,6.5 -15.5,-2 -26.5,-21 -30.25,-5 -72.75,5 -69,18 -31.287,12.9645 -35.213,17.0355 -73,26.5 -16.5,1 -23.5,-8 -26.5,6 -34,-6 -24.5,-10 -46,-5 -60.5,18.5 -27,-2.5 -17.5,4.5 -57.5,-8.5 -50,24 -16.5,7 -20,3.5 -45.5,14.5 -49.5,26.5 -59,52 -48.5,37.5 -63,38 -63,22.5 -25,16.5 -374,146.5 -21.5,4 -396.5,-73.5 -28.5,2.75 -307.5,135.75 -312.25,179.25 -19,7.5 -69.25,-5.75 -102.5,-35.75 -19,1.75 -13,13.5 -35.5,88.5 -24,35 -17,104 -8.5,17.5 -14.5,16.5 -20.5,9 -24,4 -98,3 -59,6.5 -66.5,-4 -26,-7 -57.5,-35 -28,-8 -26,5.5 -21,4 -24,19.5 -26,24.5 -120,155.5 -22,27.5 -17,12.5 -28.5,13 -32.5,5 -122,-14 -18,-4.5 -41,-26.5 -44.5,-44.5 -38,-40.5 -19.5,-12.5 -58,-26 -48,-14 -31.5,-1.5 -24.5,3.5 -160.5,59.5 -84,41 -35.5,11 -31,1 -24,-7 -59,-28.5 -25.5,-6.5 h -32.5 l -23.5,6.5 -344,214.5 -23,21.5 -18,26 -77.5,130.5 -17.5,23 -26.5,23 -166.5,57.5 -12.7929,-3.3284 L 7835,8122"
     id="path4681" />
  <path
     style="fill:none;fill-rule:evenodd;stroke:#97178c;stroke-width:5;stroke-linecap:butt;stroke-linejoin:round;stroke-miterlimit:4;stroke-dasharray:none;stroke-opacity:1"
     d="m 9076.5,9465.9996 71.5,-7.5 136.5,-40.5 23,-1 112.5,-8.5 34.5,-9 75.5,-49.5 19.5,-28 12.5,-33 37,-165 21.5,-21 14.25,-3.5 124.75,-3.5 17,-3.5 28,-26 L 9911,8950 l 21,-10.5 25,-11 110,-2.5 43.5,-4 37.5,-11.5 76.5,-30.5 14.5,-13 86,-112.5 81,-50.5 12,-13 13.5,-38 3,-35.5 v -38 l 22,-126 8,-22 21.5,-23 23.5,-12.5 20.5,-2.5 106.5,-3.5 23,-4.5 17.5,-11.5 16.5,-12.5 38.5,-44 21,-15.5 31,-16 31.5,-6 43.5,-6.5 102,-50.5 34,-12 32,-14.5 65,-45.5 12.5,-15 14,-37 18.5,-26 25,-27.5 119.939,-73.9142 92.318,-122.2574 47.743,-160.8284 29.5,-46.5 39.5,-28 33,-29 23,-10.5 39,-9.5 h 50.5 l 46,20 h 14 l 50,-15 51.5,-34 41.5,-37 67,-111.5 28.5,-17 179,-117.5 79,-32 23,-41 24,-32.5 22.5,-9 35.5,-0.5 47.75,-10.75 55.75,-42.25 79,-110 160.5,-70.5 26,-6 64,-49.5 45.5,-5.5 12.5,-7 7.5,-15 -7,-70 4,-37.5 27,-86 10.75,-13.5 25.75,-11.5 70.5,-17.5 71,-5.25 12.25,4.25 14.5,12.25 7.75,15 -2.25,67.25 1.25,18 6.5,9.5 14.75,8.25 75,12.25 23.5,11.75 52.5,14 52.763,-7.5607 19.068,-9.6464 15.164,-0.6553 12.255,5.3624 9.75,5.75 36.364,50.5719"
     id="path4714" />
  <path
     style="fill:none;fill-rule:evenodd;stroke:#ecb404;stroke-width:5;stroke-linecap:butt;stroke-linejoin:round;stroke-miterlimit:4;stroke-dasharray:none;stroke-opacity:1"
     d="m 13861,7344 -124.714,13.0074 -42.786,12.9926 -27,-6.5 -83.5,-66 -28,-13.5 -31,-15 -116,-136 -41,-28.5 -101.5,-108.5 -90.5,-32 -83.5,-66 -122.5,-33.5 -22.5,-10 -51.5,14 h -25.5 l -21.5,-14 -49,6 -13.5,-9 -18.5,-19 -53.5,-152.5 9,-36 13.207,-23.4393 80.232,-122.5858 11.561,-35.9749 -19,-59.5 -10,-8.5 -100.5,-19 -30.5,-19.5 -61.5,-154.5 -28.5,-27 -88,-72 -12,-3 -21,-2 -36.5,-25 -44.5,-23 -31,-26.5 -26,-12 -37,1 -46.5,-10 -36.5,-17 -78.5,-74 -285.5,-160.5 -92.5,-90.5 -72.5,-54 -8.5,-15.5 -4.5,-65.5 -9.5,-45 -9.5,-7.5 -44,-14.75 -45,-29 -47,-12 -22.75,-14.5 -18.5,-20.75 -12.5,-17.25 -59.25,-37 -10.5,-16.25 -5.5,-27 -9.5,-14.25 -59.75,-48 -134.5,-66.5 -117.25,-64.25 -19.163,-23.6183 -39.661,-163.1713 -33.711,-56.7121 -29.8,-34.6115 -725.955,-585.0946 -40.42,-42.4329 -546.2908,-776.2667 -59.4341,-83.96 L 9481.25,3220"
     id="path4748" />
  <path
     id="path5375"
     d="m 13494.5,6336 10.682,-13.1137 10.085,-2.2218 25.65,16.1669 62.944,22.2099 22.501,-0.025 17.685,-5.5492 25.922,-1.9171 24.531,-11.5503 18.25,-22.5 12.5,-28.75 2.388,-22.1927 0.392,-49.4106 21.97,-35.1464 8,-21.5 9,-70.5 -13,-44 4,-18.5 6,-17.5 20.5,-25 2.5,-12.5 -5,-29.5 -44.5,-98.5 -16.5,-12 -23.5,-7 -21,3.5 -50.5,11 -22.5,-3.5 -15.5,-13.5 -10.25,-19.75 4.909,-19.4948 18.945,-63.7249 28.879,-38.5429 52.017,-71.9874 7,-20 v -23 l -5.5,-25 -21.5,-23.5 -246.75,-169.25 -59.75,-76.25 -5.75,-28.5 113.811,-375.318 63.646,-96.25 17.793,-42.932 4,-24 19.5,-260 -6.5,-50.75 -117.672,-297.0074 -28.567,-146.9236 -45.12,-259.8154 -12.212,-35.0452 L 13270.5,3427 l -6.25,-63.5 11.75,-160 -217,-908.5 -13,-22.5 -23,-19 -144,-75 -22.5,-22.5 -7.5,-19.5 -169,-553.5 -23.5,-34.5 -58.352,-38.6297 -55.942,-43.2284 -7.206,-9.1422 -98,-424.5 32.5,-433.99999 64,-288.5 -6.785,-44.7375 -18.265,-30.2302 -80.908,-89.4736"
     style="fill:none;fill-rule:evenodd;stroke:#0033cc;stroke-width:5;stroke-linecap:butt;stroke-linejoin:round;stroke-miterlimit:4;stroke-dasharray:none;stroke-opacity:1" />
  <path
     style="fill:none;fill-rule:evenodd;stroke:#009a54;stroke-width:5;stroke-linecap:butt;stroke-linejoin:round;stroke-miterlimit:4;stroke-dasharray:none;stroke-opacity:1"
     d="m 8669,7801.5 32.5,-55 22,-21.5 82.0156,-43.9699 74.9844,-37.5301 98,-36.5 62.25,-22.5 23,-3.5 31,1 47.25,13.75 55,24.75 21,13.5 81,87.75 169,187.75 142.5,100 55.5,25.5 74.5,31 22.5,2.5 23,-3 27.25,-11.5 113.25,-114 21.75,-11.5 34.25,-16.25 45.5,-23 16.25,-20.25 20.5,-26.25 14.75,-10.25 21.25,-5.75 17.5,-0.5 34,4.5 114,-3 91.75,-11 171,-3 23.25,-6.5 68,-41.25 15,-18 91.25,-165.75 19.75,-27.75 37.75,-30.5 136.296,-52.0881 591.954,-212.9119 95.25,-25 47.5,-26.75 158.25,-57.5 46.25,-33 88.25,-77.5 73.75,-44.5 24.75,-13.75 14.25,-3.75 25.5,4.5 91.75,16 115.75,-17.25 25.5,7.5 112,64 46.5,36.5 9.5,0.5 21.5,-21.5 76,-23.5 30.5,-31.5 35.5,-16.5 18.5,-1.5 44.5,-36 19.5,-21.5 22.5,-12.5 65.5,-4 37.5,-9.5 109.5,51.5 12,-4 14,-28.5 26,-33 46,-178 22.5,-115 -7,-25 34.5,-70 21,-26.5 8.5,-16 -0.5,-83 -9.5,-34.5 -5.5,-14.5 -13,-46.5 -16.5,-28.5 -50.5,-63.5 -2.5,-12 18,-82.5 -1,-22.5 0.5,-16 9.5,-20.5 10,-11 102,-54 24.5,-15 24,-25.5 37,-66.5 21.5,-41 15,-10 168,-15 24.5,-5 54,-3 11.5,-6.5 21.72,-76.5503 6.916,-25.8656 3.364,-4.5841"
     id="path4785" />
  <path
     style="fill:none;fill-rule:evenodd;stroke:#006abf;stroke-width:5;stroke-linecap:butt;stroke-linejoin:round;stroke-miterlimit:4;stroke-dasharray:none;stroke-opacity:1"
     d="m 11585.5,5099 291,71 119.5,14 13,10 3,16.5 -3.5,39.5 36.5,69.5 11.5,10 15,1.5 82,-25 15.5,3 16.5,11.5 53.5,59.5 65.5,84.5 77.5,239.5 11,20 28,25.5 14,5.5 109,16 69,55.5 104,133.5 57.5,64 56,60.5 64.5,50.5 20.5,4 8.5,12.5 3,21.5 -5,23 -10,32.5 16.5,105 34.5,141.5 1.5,28 30,64.5 10,55 6.5,8.5 17,9.5 18.5,18 20,6 4.5,7 -10,49 -45.25,175 -26.5,32.5 -21,44.5 -45.029,119.4779 -23.713,59.3792 -17.489,164.9777 -11.301,7.7509 -18.718,2.4143 h -29.5 l -23.5,-12 -17.5,5 -30,14 -31.75,19 -36.5,77.75 -6.941,6.5765 -24.559,2.4235 -49.16,30.1774 -69.184,39.4948 -36.95,2.7559 -28.25,6.0365 -3.057,6.4271 15.063,60.67 -2.93,26.2391 -22.297,37.4392 -22.771,18.7088 -134.71,92.8112 -104.341,146.7922 -303.042,98.6951 -10.654,8.9602 -7.922,22.1562 -1.652,38.3609 1.175,58.5754 17.37,87.6855 -2.691,21.4952 -59.15,50.5971 -52.164,131.0078"
     id="path4861" />
  <path
     style="fill:none;fill-rule:evenodd;stroke:#0dade5;stroke-width:5;stroke-linecap:butt;stroke-linejoin:round;stroke-miterlimit:4;stroke-dasharray:none;stroke-opacity:1"
     d="m 10528.146,6470.5251 1430.768,-50.3535 19.586,-7.1716 34,-28 37.5,-20.5 73,-18.5 28,-3 29,3 35.5,-4 44.5,-10 35,-23.5 23,-4 13.5,3 32.5,25 47,11 28,19 40,9.5 15,29.5 28.5,24 63,7.5 23,11 49.5,-2 90,27 35.75,-8.75 12.75,5.75 17.5,4.75 20.75,9.25 31.5,24 36.75,48 15.5,46.5 35,26.5 21,30.5 10.5,8 28,6.5 12,11.5 6.5,28 7.5,21 8.5,8.5 108.5,28.5 119,59 67.5,48.5 37.5,10 41.5,38.5 104,53.5 24,7 93.5,5 204.5,-11.5 19.5,2.5 27.5,13.5 79,31 21.5,7 343.5,38.5 176.5,11 118,-12.5 71,-40.5 419,-426 132.5,-98.5 117,-131 21.5,-10 31,-2 24.5,5 168,93.5 27.5,5.5 29,1.5 28,-6 107,-54 29,-7 116.5,-19.5 43.5,-20.5 141,-39.5 84.5,9.5 24.5,-6 186.5,-93 39.168,-18.8324 L 16799,6084.5 l 349.5,-30 116,21 193.5,57.5 86.5,49 19.5,24.5 27.5,68.5"
     id="path4900" />
  <path
     style="fill:none;fill-rule:evenodd;stroke:#c0c0c0;stroke-width:5;stroke-linecap:butt;stroke-linejoin:round;stroke-miterlimit:4;stroke-dasharray:none;stroke-opacity:1"
     d="m 12257,7380.5 35.25,-37.25 13.75,-7.75 53.5,8 12,-5.5 25.5,-26.5 17,-11.5 17.5,7.5 24.5,2.5 46.5,-8 42.5,-14.5 6.5,-13 -2.5,-15.5 6,-39 15,-34 -3.5,-41 6,-13 43,-15.5 53,-31.5 12.25,-1.25 19.25,12.5 43.5,14.25 44.25,23.5 9.25,-0.5 11.25,-8.25 43.75,-64.75 25,-69 12.5,-26 12.5,-37 29.5,-54.5 12,-8.5 6.5,-1.5 56.5,28.5 137.5,127.5 8.5,2.5 8,-0.5 41,-40.5 9.5,-12 22.5,-69.5 57.5,-112.5 17.5,-28 1.5,-9.5 -7,-16 -68.5,-97.5 -6,-19.5 -15.5,-52.5 1,-57 15,-159.5 4,-10 17,-14.5 92,-150 57,-95.5 14.5,-18.5 15.5,-13.5 15,-4 28.625,3.375 22.25,-12.75 22.5,-32.25 16.75,-44.75 44.387,-174.2611 19.031,-62.3838 80.691,-111.9264 6.718,-18.208 -0.708,-22.4506 -4.419,-22.0971 -20.86,-23.6881 -246.715,-168.3599 -60.5,-77.5 -6.25,-31.25 114.25,-377 63.25,-95.5 17.25,-41.25 4.79,-24.8734 18.96,-259.1266 -6.25,-49.75 -117.75,-297 -30,-155 -43.75,-251.75 -13.875,-39.3325 -86.625,-225.1675 -6.5,-63.75 12.25,-159.5 -217.25,-908.25 -12,-20.75 -21,-17.25 -143.75,-75.25 -24.5,-23.5 -7.908,-19.6253 -169.592,-554.6247 -21.75,-32.75 -58,-38.75"
     id="path4979" />
  <path
     style="fill:none;fill-rule:evenodd;stroke:#e86d67;stroke-width:5;stroke-linecap:butt;stroke-linejoin:round;stroke-miterlimit:4;stroke-dasharray:none;stroke-opacity:1"
     d="m 12335.5,8270 77.5,-126.5 5.5,-34.5 32.5,-197.5 32,-101 62,-150.5 24.5,-18 37.5,-39 35.5,-30 23,-20.5 36,-1 18,-1.5 15.5,-10.5 13.5,-17 12.5,-35.5 35.5,-93 19,-29 74.737,-47.9697 L 12934,7298 l 10.5,-34.5 15,-136.5 63.207,-94.909 7.945,-2.2071 13.848,0.3661 27.75,-10.125 35.25,-33.625 50,-71 76.848,-149.8518 13.612,-10.6066 42.426,-22.0971 40.128,-31.9966 5.304,-11.3137 0.353,-10.9602 -8.132,-21.9203 8.132,-73.5391 32.527,-64.7003 21.213,-34.6482 48.084,-49.851 28.991,-45.6084 17.203,-16.8848 15.677,-6.0962 16.264,2.4749 33.234,18.3848 97.581,-6.364 31.466,-22.6274 20.859,-15.7331 17.855,-21.39 12.612,-30.2922 22.763,-39.8787 46.5,-45 73.5,-108.5 186,-153 71,-15.5 27,-11 62.5,-96 30.5,-44.5 89,-39 52,-4.5 17.5,5.5 199,168.5 108,32 141.5,34.5 53.5,63.5 69.5,29.5 100,58.5 76,53.5 39.5,8 131.5,74 82,30 46.5,16 65,44 37.5,2 12.5,3.5 120.5,92 41,6.5 12,8.5 22.5,37 41.5,19.5 h 16 l 35,-13.5 16.5,-1 21.5,3.25 13,11.25 0.5,13.5 -9.5,55 3,20.5 14.5,20.5 68.5,46 55,24.5 89,56.5 157.5,2 62,21 41,31.5 19,4 82,-30 66,-44 20,-6 220.5,1 186.5,-43.5 13,-11 92.5,-127 160.5,-157.5 68,-43 112.5,-51.5 392.5,-50 23.5,-9.5 48,-36.5 325.5,-96.5 22,-14.5 94,-119.5 193.5,-60.5 116.043,77.0733 41.012,62.9325 154.15,78.4889 h 48.083 l 31.511,-2.3465 28.61,-5.8429 106.409,-4.4604 23.941,-8.2524 48.783,-40.6679 56.26,-34.0809 173.403,-53.7295 16.912,-12.547 30.966,-41.3741 9.318,-23.393 7.346,-42.4865 28.915,-65.4449 74.306,-90.2608 39.081,-56.9882 19.964,-15.9679 132.964,-51.0583 20.391,-18.0629 32.113,-45.0584 28.345,-10.963 58.445,-74.5301 23.441,-9.9836 13.972,-11.6557 18.15,-33.7141 52.166,-44.1257"
     id="path5022" />
  <path
     style="fill:none;fill-rule:evenodd;stroke:#e86d67;stroke-width:5;stroke-linecap:butt;stroke-linejoin:round;stroke-miterlimit:4;stroke-dasharray:none;stroke-opacity:1"
     d="m 12570.5,8643 -102,159 -25,50.5 -147.5,213.4996 -179,227.5 -62.5,117 -53,57 -47.5,83 -23.5,34 -115.5,122 -56.5,50 -53.5,34.5 -54.5,20.5 -57.5,7 -31,17.25 -169.5,160 -104.652,146.8464 0.824,24.323 -30.672,38.581 -2,19 16,29 22,80.5 62,83 5,20.5 -20.5,42 -5.5,9.5 -23.5,18 -96.5,40.5 -93.5,20 -33,15 -88.5,24.5 -14.5,11 -12.5,19 v 21 l 0.5,54 21.5,77.5 2.5,34.5 -19.75,76.5 2.25,123 28,64.5 33.5,32 17,32 14,10 52,14 37,39 18.5,30 13,41 4.5,27 63.5,147.5 12.5,15.5 44.5,33 37.5,13.5 18,16 10.5,21 5,26 6.75,62.75 -7.25,78.25 -17,37.5 2.5,63 -17,38 -22,26.5 -34.5,65.5 -26,118.5 -2,140.5 -15.5,64.5 4.5,24.75 18.194,43.441 21.306,19.809 30.5,26.5 4,28 -13.5,72.5 v 45 l -6,36.5 4.5,26 30.5,49 12.5,92.5 21.5,43 62.5,57 34.5,11 25.5,4 42,-8.5 30,7.5 89.5,80.5 27,10.5 29.5,4 107,-5 32.5,9.5 52,27 25.5,30 8,21.5 3.5,39.5 14.5,20 23.5,22 58.5,37 30,38 53,34 14,22 7,28 -7.5,35 -16.5,58.5 -21.5,28 -7.5,21 3,33 5,20.5 13.5,17.5 11,6.5 66.5,25.5 95.5,76 9.5,28 2,19.5 -15.5,96 -18.5,28 -21.5,30 -17,31 -21,20.5 -46,40.5 -38.5,24.5 -16.5,14.5 -41.5,85.5 -14.5,17 -75,45.5 -55,22 -95,105 -42,38 -53.5,64.5 -77.5,75.5 -164.5,75 -33,27 -15.5,16.5 -12,17"
     id="path5026" />
  <path
     style="fill:none;fill-rule:evenodd;stroke:#e86d67;stroke-width:5;stroke-linecap:butt;stroke-linejoin:miter;stroke-miterlimit:4;stroke-dasharray:none;stroke-opacity:1"
     d="m 14430,5758 27,4.5 17,-4 76,-53 116.5,-55 98,-13 56,-29 91,-52.5 35.5,-8.5 220,-38 57,-16 57.5,-35 77.5,-54.5 110,-44.5 34,-2.5 68,7 224,-6 58.5,-11 155.5,-59 197,-63.5 524,-11.5 381.5,-52.5 44,-14 52,-23 35.5,-17 77.5,-63.5 53.5,-34 197,-73.5 214.5,-43 87.5,-3 91,3.5 77,15.5 67.223,18.7829"
     id="path5028" />
  <path
     style="fill:none;fill-rule:evenodd;stroke:#e8000f;stroke-width:5;stroke-linecap:butt;stroke-linejoin:round;stroke-miterlimit:4;stroke-dasharray:none;stroke-opacity:1"
     d="m 11274,6451.5 h 46.5 l 44.5,13.5 38,26.5 71,36.5 53.5,22 38,2 177.5,-7 54.5,12 185,-6.5 86.5,14 25,6.5 h 11 l 129.5,49.5 17,15.5 h 43 l 86,47.5 93.5,26 77,-11 87,35 6,12.5 2,19.5 3,28.5 12.5,18 14,10.5 9.5,20.5 39.5,7 9.75,5 6.75,19.25 20,37.75 12.5,7.25 40.25,-2 23.25,-5.5 8,-11 8.25,-13.25 9.75,-3.5 h 12 l 67.5,35.5 16.75,6.25 22.5,1.5 37.5,14.5 47.25,-11.75 8.5,-7 16.25,-30 -8.75,-26 9.5,-35.75 -13.25,-25.75 21,-92 13,-81.75 1.25,-68.75 -8.25,-30.75 -13.25,-17.75 -31.25,-9.75 -15.75,-15 -4,-39.75 -9.75,-14 -2.75,-14 -14.5,-17.75 -42.5,2 -59.75,-1.75 -34,0.75 -18.5,-10.75 -40.25,-31.75 -36.5,-35.25 -25.25,-31 -16.25,-33.25 -34.25,-39 -12.5,-46.75 -14,-23.75 -9.75,-12 -122.5,-97.5 -44,-0.75 -54.5,18.5 -12.5,0.5 -10.62,-4.4302 -28.584,-8.8009 L 12376,6037.5"
     id="path5030" />
  <path
     style="fill:none;fill-rule:evenodd;stroke:#e8000f;stroke-width:5;stroke-linecap:butt;stroke-linejoin:round;stroke-miterlimit:4;stroke-dasharray:none;stroke-opacity:1"
     d="m 11977.819,6550.6877 -14.849,8.1317 -12.021,9.8995 -3.182,8.4853 6.364,43.8406 -2.475,14.8493 -6.364,8.8388 -9.899,4.2426 -73.539,10.9602 -38.184,25.4558 -17.324,62.9325 -52.326,19.4455 -15.203,2.1213"
     id="path5032" />
  <path
     style="fill:none;fill-rule:evenodd;stroke:#f49b03;stroke-width:5;stroke-linecap:butt;stroke-linejoin:round;stroke-miterlimit:4;stroke-dasharray:none;stroke-opacity:1"
     d="m 12264,7156.5 16,-6.5 26,-3.25 42,-15.25 57.25,-43.25 79.25,-110.25 158.25,-68.75 25.5,-6 58,-44.25 5.5,1.5 6,17 10,18.25 11.25,28.25 37.5,31 14,8.75 39,8.25 17.75,0.25 16.5,-3.75 132.25,54.75 h 9.5 l 6,-3.5 103.75,-122 65.25,-132 2.25,-9.25 -2,-9.75 -51.5,-157 10.75,-37.5 2.75,-31.25 9,-93 10.25,-25.75 7,-37 12.25,-28 23.75,-3.25 9.25,-6.25 17.25,2.75 190.5,44.5 25.5,3.25 14,-11 17.25,-26"
     id="path5034" />
  <path
     style="fill:none;fill-rule:evenodd;stroke:#ef7805;stroke-width:5;stroke-linecap:butt;stroke-linejoin:round;stroke-miterlimit:4;stroke-dasharray:none;stroke-opacity:1"
     d="m 12406,6092.5 -13,38.5 -9,8 -8.5,3.5 h -14.5 l -77,-37 h -20.5 l -27.5,8.5 -16.5,-1 -129.5,-33.5 -11,-10 -128,-123 -28,-12 -80,-18 -142.5,24 -61,1.25 -18.5,-23.375 0.75,-54"
     id="path5730" />
  <path
     style="fill:none;fill-rule:evenodd;stroke:#000080;stroke-width:5;stroke-linecap:butt;stroke-linejoin:round;stroke-miterlimit:4;stroke-dasharray:none;stroke-opacity:1"
     d="m 13861.552,7348.665 -124.098,12.9174 -43.503,12.8749 -138.93,55.8712 -306.233,199.3463"
     id="path5152" />
  <path
     id="path5205"
     d="m 20834,5515 35,-70 v -12.5 l -1.5,-13.5 -56,-93 -11,-3.5 h -11.5 l -22,14 -17.5,11.5 -21,-1 -51.5,-21.5 -36.5,-9.5 h -35.5 l -52,16.5 -69,22.5 -30.5,6 -121,11 -81,6.5 -52,-7 -48.5,-12 -54.5,-25 -47,-29 -14,-4 -16,-2 -21,3.5 -89,75 -18,33 -13.5,11 -23.5,10 -58.5,74.5 -28,11 -32.5,45.5 -20,17.5 -133,51 -20,16.5 -39,56.5 -75.5,92 -28.5,64 -8,43.5 -8.5,22.5 -30.5,41 -16,12.5 -174,53.5 -58,35.5 -46.5,39 -23,8.5 -105.5,4 -28.246,5.5701 -31.82,2.4749 h -46.315 l -152.028,-76.7212 -41.366,-63.286 -118.871,-78.8411 -195.975,61.2071 -95.415,120.2071 -20.585,13.7929 -324.793,96.1465 -49.414,37.2071 -20.318,8.7929 -393.915,50 -113.56,51.8535 -69.061,44.0607 -160.854,157.5 -92.5,126.6464 -11.232,9.9394 -186.853,43.8535 -218.379,-1 -21.768,6 -66.353,44.3536 -80.233,28.9393 -17.232,-3.6464 -39.586,-30.7929 -62.707,-21.3536 -158.207,-2.7071 -86.525,-54.3787 -58.182,-26.9749 -65.318,-43.1715 -13.439,-19.7929 -3,-18.3787 9.146,-52.8787 0.207,-16.682 -15.267,-14.5784 -24.829,-3.2071 -16.914,0.043 -35.707,14.2071 h -14.586 l -37.964,-18.4393 -21.44,-35.9394 -13.768,-10.6213 -41.707,-6.1464 -119.085,-91.6465 -15.329,-4.5606 -36.793,-1.6465 -63.232,-43.6464 -47.914,-16.3536 -80.94,-29.6464 -132.914,-74.3536 -39.853,-8.3535 -72.111,-51.0252 -100.707,-59.5606 -70.561,-29.8536 -53.854,-63.8535 -142.207,-34.8536 -108,-32 -199.207,-168.2825 -19.914,-6.1213 -51.768,5.2678 -90.757,38.4393 -38.207,55.0607 -10.427,6.5601 -17.677,-0.3536 -54.447,-25.8094 -130.815,-27.2236 -175.902,4.5587 -131.5,54.5 -51,4 -41.5,11.5 -34,3.5 -40.5,17.5 -13.5,-3 -43.5,-13 -28,-23 -19.5,-8.5 -18.5,2.5 -28,11.5 -29,1 -15,5.5 -17.5,3.5 -22.5,16 -17.5,17.5 -133.5,103 -5,13 -2.218,18.8576 4.718,23.1424 18.625,28.75 53.125,51 1.25,12.25 v 12.5 l -16,33 3,10 5,14.5 v 9.5 l -22.5,27.5 -2,17.5 11.5,32.5 -3.5,22 8,32.5"
     style="fill:none;fill-rule:evenodd;stroke:#3851a3;stroke-width:5;stroke-linecap:butt;stroke-linejoin:round;stroke-miterlimit:4;stroke-dasharray:none;stroke-opacity:1" />
  <path
     style="fill:none;fill-rule:evenodd;stroke:#32bff8;stroke-width:5;stroke-linecap:butt;stroke-linejoin:round;stroke-miterlimit:4;stroke-dasharray:none;stroke-opacity:1"
     d="m 13431.344,7515.5645 24.656,36.9355 -2,9.5 -197,129.5 -3.5,13.5 25,56.5 v 8 l -30,23 h -9 l -14.5,-6.5 -75.5,-112.5 2,-9.5 122,-82 v -11 l -45,-67.5 -10,-5.5 -16,-3 -49,20.5 -17.5,2.5 -23,-7 -119.5,-46 -13.5,-3.75 -8.25,-0.5 -10.25,4.75 -4.5,6 -1.25,7.75 1.5,8.75 6.25,7.5 7,2.75 8.25,0.25 7.75,-4 4.5,-5.25 2.5,-5.5 v -135 l 2,-10.75 31,-91.25 24,-32.75 2,-10.25 -2,-12.5 -28,-20 -16.5,-4.75 -1.25,-2.75 11.5,-70.5 20,-30.25 -1,-5 -18.5,-10.5"
     id="path5207" />
  <path
     style="fill:none;fill-rule:evenodd;stroke:#e86d67;stroke-width:5;stroke-linecap:butt;stroke-linejoin:round;stroke-miterlimit:4;stroke-dasharray:none;stroke-opacity:1"
     d="m 12748.5,7522.5 -7,37 -3,60.5 21,58.5 1.5,35.5 21,40 31.5,182 -1.5,20 -25.5,38 -67,179.5 -9.5,105.5 4.5,51 -2.5,26.5 -9.5,40 -12.5,21.5 -12,39 -51,101.5 -56.5,84.5 -1.25,18 83.25,99.5 14.5,7 91.5,8 123.5,50 37.5,2.5 21.5,11.5 42.5,27 28.25,13 122.75,18.75 52,5.75 30.5,-6.5 145,-86.5"
     id="path5024" />
  <path
     style="fill:none;fill-rule:evenodd;stroke:#3851a3;stroke-width:5;stroke-linecap:butt;stroke-linejoin:round;stroke-miterlimit:4;stroke-dasharray:none;stroke-opacity:1"
     d="m 18137.5,9072.4996 22.5,-167.9996 -4.5,-27 -13.5,-28 -18.5,-16 -23.5,-12 -78,-31 -20,-18.5 -16.5,-31.5 -2,-24 24.5,-160 9.5,-113 -11.5,-28.5 -18,-23 -47.5,-36.5 -134.5,-133.5 -32,-12 -82.5,-3.5 -24,-3.5 -99.5,-51.5 -13,-19.5 -3,-24 -84,-212 -14.5,-18.5 -14,-3 -39.5,-5 -48.5,-16.5 -18,-11.5 -153,-257 -11.5,-9.5 -63,-38 -9,-9.5 -9,-19 -25,-182.5 -9.5,-16.5 -20.5,-12 -64,-3.5 -161.5,-64.5 -80,-64 -14,-47 -240,-250.5 -74.25,-77.75 -46.422,-15.4926"
     id="path5261" />
  <path
     style="fill:none;fill-rule:evenodd;stroke:#30b474;stroke-width:5;stroke-linecap:butt;stroke-linejoin:round;stroke-miterlimit:4;stroke-dasharray:none;stroke-opacity:1"
     d="m 17975,6178.5 -2,-7.5 -16,-23.5 -5,-48 -16,-48 1.5,-19 22.5,-85 -2.5,-7.5 -31.5,-40 -40.5,-17.5 -14.5,2 -17.5,88 21,54.5 10,2.5 38.5,2.5 12.5,15"
     id="path5608" />
  <path
     style="fill:none;fill-rule:evenodd;stroke:#16365c;stroke-width:5;stroke-linecap:butt;stroke-linejoin:round;stroke-miterlimit:4;stroke-dasharray:none;stroke-opacity:1"
     d="m 12410.5,6035.5 71.5,-159 3.5,-16.5 -6.5,-22.5 -7,-11 -18,-12.5 -26.5,-10.5 -100,-18 -20.5,-12.5 -11.5,-13 -9.5,-22 -17.5,-37.5 -16,-18 -23,-15 -82.5,-50 -80.5,-32.5 -99,-51 -126,-65.5 -42,-8 -162,-13.5 -35,-7.5 -30,-12.5 -34,-21 -145.5,-122 -26.25,-18.5 -61.5,-48.75 -134,-66.25 -116.75,-63.5 -17.5,-22.5 -17.5,-70 -23,-94 -33.5,-56.5 -29.5,-34.5 -245.5,-193.5 -143,-117 -339.5,-276 -40,-42.5 -607,-862.5 -85.9603,-118.6449 -66.1145,-64.7003 -346.1288,-91.5703 -253.1442,-184.5549 -263.3973,-267.9934 -31.1127,-20.5061 -46.3155,-13.7886 -34.6482,3.182 -18.0312,-4.2427 -14.4957,-12.7279 -9.1924,-16.9706 -0.3536,-24.0416 3.182,-24.0416 109.248,-171.827 33.9411,-151.3208 -2.4748,-53.7401 v -99.3485 l -43.8407,-183.1407 v -22.6274 l 4.5962,-22.981 52.3259,-92.2774 5.6569,-23.6881 6.0104,-139.6536 1.0607,-77.4282 -7.7782,-68.5893 -12.7279,-34.6483 -13.4351,-25.4558 -21.9203,-16.617 -72.1249,-37.4767 -220.9708,-57.9827"
     id="path5667" />
  <path
     style="fill:none;fill-rule:evenodd;stroke:#0033cc;stroke-width:5;stroke-linecap:butt;stroke-linejoin:miter;stroke-miterlimit:4;stroke-dasharray:none;stroke-opacity:1"
     d="m 13287.381,5304.412 30.052,-9.8995 h 60.811"
     id="path5728" />
  <path
     style="fill:none;fill-rule:evenodd;stroke:#ef7805;stroke-width:5;stroke-linecap:butt;stroke-linejoin:round;stroke-miterlimit:4;stroke-dasharray:none;stroke-opacity:1"
     d="m 11639.5,5941.75 -53.5,1.75 -193,26.5 -37.5,-1.75 -41,-14.25 -116,-78.75 -116.25,-31.75 -38.965,-12.3735 -102.535,-27.6265 -91,-46.25 -32.5,-4.25 -197.25,25.5 -136.25,13.75 -200.25,-100.5 -213,-262 -18,-13 -380.5,-129 -22.5,-16.25 -44,-68 -66.5,-60.5 -47,-18 h -15 l -12,5 -13,8.5 -8.5,28.5 -3,57.5 v 19 l -8.5,18 -15,10.5 -15.5,4.5 -15.5,0.5 -13.5,-7.5 -17,-13 -137.5,-114 -43,-73.5 -175,-99.5 -266.5,-154 -18,-18 -7,-19.5 -60,-321 -19,-30 -75.5,-117 -27.5,-17.5 -22.5,-6 -71,3.5 -11.5,7 -29.5,39.5 -9.5,7.5 -19.5,1.5 -12,-3 -25.5,-19 -19,-2 -31.5,17.5 -52.5,13.5 -122,42.5 -30.5,2 h -103 l -41.5,-6.5 -135.5,-61 -137,-25 -22.5,-15.5 -68,-76 -54,-26.5"
     id="path5732" />
  <path
     style="fill:none;fill-rule:evenodd;stroke:#f166a7;stroke-width:5;stroke-linecap:butt;stroke-linejoin:round;stroke-miterlimit:4;stroke-dasharray:none;stroke-opacity:1"
     d="m 12262.25,6662.5 1.5,23.75 -5.25,12 -30.5,17.75 -15,4.75 -10.5,5.5 -12.25,12 -12.75,22.5 -42.25,25 -25.5,29.25 -43.5,18 -35.5,19.5 -19.5,12.75 -69,27.75 -370.5,144.5 -23.5,4.5 -397.75,-73 -26,1.75 -305.25,135.5 -314.25,180.25 -19,7.25 -72.5,-5.5 -127,-44.5 -78.75,-34.75 -223.75,-127 -166,-41 -141,-61.5 -201,-46.5 -24.5,1.5 -46,13 -13,13.5 -29.5,124 -11,18.5 -21,15.5 -19,6.5 -126,24.5 -11,11 -31,99 -12.5,7 -29,8.5 -54,-18 -51,-13 -11.5,-8 -39.5,-53.5 -20.5,-10 -207.5,-61.5 -60,-34 -66.5,-7 -78.5,47 -99.5,112 -103,64 -14.5,10.5 -59,67 -32.5,25.5 -202.5,-6.5 -86,-43 -15.5,-16 -8.5,-24 -36,-115 -39,-29.5"
     id="path5796" />
  <path
     style="fill:none;fill-rule:evenodd;stroke:#f166a7;stroke-width:5;stroke-linecap:butt;stroke-linejoin:round;stroke-miterlimit:4;stroke-dasharray:none;stroke-opacity:1"
     d="m 7916.5,7347 -31.5,-13 -22,1.5 -19.5,9 -32.5,29.5 -19,7.5 h -24 l -88,-29 h -29.5 l -77.5,22 -131,-12 -43.5,12 -87,37 -76.5,20.5 h -29 l -68,-21 -35,4 -25,-10 -81,21.5 -32,5.5 -30,18.5 -6,12.5 -1.5,30 -3,12 -23,52"
     id="path5800" />
  <path
     id="path5802"
     d="m 12269.5,6663.5 11.559,61.8172 -1.59,14.4811 -9.738,15.6379 -58.481,55.8138 -22.967,39.5732 -29.705,65.5354 -9.806,52.438 -16.272,13.2034 -20.25,-0.75 -51.75,-9 -16,4.25 -26.25,14 -73.75,45 -88.5,77.5 -45.25,32.5 -158.5,57.75 -47,26.25 -93.75,24.5 -588.954,211.9119 L 10781,7520 l -38.5,31.5 -21,29.5 -90,163.25 -14.5,18.75 -67,40 -21.25,5.5 -171.75,3.5 -91,11.25 -112.5,2.75 -34.25,-4.25 -18.75,0.25 -22.75,5.75 -17,11.25 -18.75,25.25 -16.75,20.75 -45.5,23 -34,16.25 -22.5,12.5 -112.25,113 -21,30.75 -10,29.5 -4,37.5 -37.5,76 -15.5,21.5 -19.5,18.5 -45.5,20 -135,33 -23,9.5 -21.5,22 -45.5,88 -38.5,58 -29,66 -29,25 -15.5,23 -20,46 -6,28 -2,64 -5.5,13 -12,22.5 -17,18.5 -17,10.5 -62.5,11 -59.5,49 -18,23 -34,55.5 -14.5,65.5 -249,347.9996 -186,256 -86,129 -8,29.5 4.5,166.5 -15.5,221.5004 -23,44.5 -24.5,47.5 -12.5,16.5 -171.5,170.5 -26,14 -96.5,23.5 -55,17.5 -25.5,19.5 -114,140.5 -53.5,110.5 -76,69.5 -49,49.5 -46.5,36.5 -25.5,45 -73.5,62.5 -127.5,107.5 -252.5,152 -162.5,71 -99,47.5 -15,14.5 -60,102.5 -14.5,15 -102.5,63.5 -177,72.5 -34.5,8.5 -19,-2.5 -55.5,-29 -47.5,2 -59.5,-12.5 -16.5,-12 -9,-12.5 -16.5,-32.5 -41.5,-35.5 -21.5,-10 -115,2.5 -167,32 h -16 l -18.5,-5 -153,-61 -113.5,-1 -58.5,-18 -15.5,2.5 -45,37 -36,42 v 15.5 l -4.5,39.5 -5.5,11 -7,7.5 -28,19.5 -6.5,13.5 -2.5,20 14.5,35 4.5,17 -1,13.5 -9.5,15.5 -16,19.5 -28.5,20 -9,11 -26.5,51 -42,44.5 -17.5,8.5 -47.5,1.5 -27.5,8 -77,43 -55.5,48.5 -11,21.5 0.5,18 139.5,365.5 35,233.5 47.5,148.5 13.5,20 65.5,76 5.5,17 -12.5,110.5 17.5,179 14,54 -0.1202,17.97 -15.985,26.94 -88.6253,158.735 -14.5491,8.245 -49.952,-12.125 -41.7075,-23.763 -62.5612,8.729 -30.0682,-10.669 -21.8237,12.609 -31.5231,4.85 -48.9821,55.286 -71.2907,48.498 -16.974,19.883 -21.8237,9.7 -20.3687,25.218 -16.0041,19.884 -30.5531,11.154 -11.1544,-0.485 -16.004,-5.334 -47.0422,5.334 -6.7896,9.215"
     style="fill:none;fill-rule:evenodd;stroke:#5c85bb;stroke-width:5;stroke-linecap:butt;stroke-linejoin:round;stroke-miterlimit:4;stroke-dasharray:none;stroke-opacity:1" />
  <path
     style="fill:none;fill-rule:evenodd;stroke:#d2a808;stroke-width:5;stroke-linecap:butt;stroke-linejoin:round;stroke-miterlimit:4;stroke-dasharray:none;stroke-opacity:1"
     d="m 9352.3744,11173.253 74.5569,-19.299 45.2548,-7.072 26.163,-19.092 27.2236,-57.275 78.4888,-106.773 8.4853,-25.456 6.0104,-71.065 4.2427,-39.244 -10.6066,-44.901 2.1213,-68.943 5.6568,-21.213 10.6066,-16.617 15.9099,-12.728 16.6171,-4.95 15.2027,0.353 78.4889,14.85 17.3241,3.535 25.1023,-1.414 37.1231,-9.546 109.248,-33.941 24.7489,-14.849 28.991,-23.688 15.203,-16.971 22.981,-37.477 18.385,-44.194 47.376,-149.199 2.475,-24.395 -20.86,-73.893 v -13.082 l 4.243,-16.617 20.152,-23.688 34.649,-16.617 101.823,-91.216 54.447,-36.063 64.7,-68.9434 34.295,-14.495 24.395,-8.486 24.042,-25.456 22.274,-6.717 42.78,-4.95 92.277,0.354 38.891,8.839 15.203,9.545 11.667,21.921 8.485,24.041 109.248,108.1884 48.791,37.476 47.022,24.749 39.245,16.971 32.173,37.476 35.355,47.73 8.486,7.071 94.045,39.952 16.617,3.182 21.213,-8.132 51.265,-37.477 95.425,-130.313 13.748,-36.289"
     id="path6238" />
  <path
     style="fill:none;fill-rule:evenodd;stroke:#058eab;stroke-width:5;stroke-linecap:butt;stroke-linejoin:round;stroke-miterlimit:4;stroke-dasharray:none;stroke-opacity:1"
     d="m 12268.793,7148.9 -73.892,24.3952 -63.64,2.4749 -49.497,-25.1023 -72.479,-14.1421 -219.91,-47.0226 -75.307,0.7071 -13.081,-4.9498 -16.971,-15.2028 -27.223,-58.6898 -2.475,-13.7886 -6.718,-37.1231 -6.717,-12.0208 -71.065,-60.4577 -212.132,-93.6916 -126.925,-19.4455 -66.822,-6.0104 -120.562,-50.9116 -57.629,-41.3658 -113.137,-46.3155 -12.728,-11.6673 -36.769,-50.9116 -19.799,-19.799 -10.607,-38.5373 -15.91,-31.4663"
     id="path5867" />
  <path
     style="fill:none;fill-rule:evenodd;stroke:#5c85bb;stroke-width:5;stroke-linecap:butt;stroke-linejoin:round;stroke-miterlimit:4;stroke-dasharray:none;stroke-opacity:1"
     d="m 8972,9124.9996 -5,33 4.5,21 99.5,222 7.5,33.5 1.5,101 270,645.0004 5,28 -5,99.5 -14.5,309 13,249.5 -15,207 3.5,23 99,361 0.5,35 3,166 5,45.5 9,152 22,54.5 16,32.5 11,30.5 5.5,51 10.5,22.5 19,16.5 17.5,2.5 21,-5 35.5,-1.5"
     id="path6004" />
  <path
     style="fill:none;fill-rule:evenodd;stroke:#5c85bb;stroke-width:5;stroke-linecap:butt;stroke-linejoin:round;stroke-miterlimit:4;stroke-dasharray:none;stroke-opacity:1"
     d="m 9560,12064.5 -21,18.5 -133.5,166.5 -6.5,28.5 5,28 22.5,41 21.5,29.5 44,37.5 13.5,18.5 24.5,41.5 40.5,38.5"
     id="path6006" />
  <path
     style="fill:none;fill-rule:evenodd;stroke:#f166a7;stroke-width:5;stroke-linecap:butt;stroke-linejoin:round;stroke-miterlimit:4;stroke-dasharray:none;stroke-opacity:1"
     d="m 8718.5,7111.5 5.9207,14.4191 -2.1213,27.9307 -8.4853,11.6672 -27.9307,12.3744 -27.5772,44.1942 -11.6672,7.7782 -6.7176,15.5563 -5.6568,19.4454 -10.9602,12.3744 -30.052,19.0919"
     id="path6008" />
  <path
     style="fill:none;fill-rule:evenodd;stroke:#01a5be;stroke-width:5;stroke-linecap:butt;stroke-linejoin:round;stroke-miterlimit:4;stroke-dasharray:none;stroke-opacity:1"
     d="m 9576,5902.5 -220.5,-234 -9.5,-25.5 5,-90 86,-177 3.5,-26.5 -5,-114.5 3.25,-69 5.75,-28 -1,-15.5 -7.5,-18 -11,-17.5 -583.5,-635 -147,-289.5 -5.5,-35 6.5,-36 17.5,-33 790.5,-742.5 43.5,-100"
     id="path6010" />
  <path
     style="fill:none;fill-rule:evenodd;stroke:#01a5be;stroke-width:5;stroke-linecap:butt;stroke-linejoin:round;stroke-miterlimit:4;stroke-dasharray:none;stroke-opacity:1"
     d="M 9453,5868.5 9093.5304,5673.8753 9079.3883,5657.6118 9071.5,5633 l 3,-27 v -18 l -9.5,-41.5 1.25,-17.5 -7,-38"
     id="path6012" />
  <path
     style="fill:none;fill-rule:evenodd;stroke:#e34128;stroke-width:5;stroke-linecap:butt;stroke-linejoin:round;stroke-miterlimit:4;stroke-dasharray:none;stroke-opacity:1"
     d="m 8776,5431.5 13,-15.5 12,-2.5 4.5,5 -2.5,24 2.5,25 16,12 8,1 12,-7 28,13 h 7 l 13,-9 26,5.5 9.5,-1.5 17,-7.5 32.5,4.5 23,-11 8,-20 8.5,-3.5 10,4 15.5,27.5 14,7 3.5,24"
     id="path6014" />
  <path
     style="fill:none;fill-rule:evenodd;stroke:#ea5098;stroke-width:5;stroke-linecap:butt;stroke-linejoin:round;stroke-miterlimit:4;stroke-dasharray:none;stroke-opacity:1"
     d="m 14778.5,5231.25 18.184,-60.4412 8.066,-12.3088 59.75,-12.5 52.5,15 21,-0.5 18.5,-11 38.5,-32 15,-2 52,7.5 72.5,21 15,-0.5 68.5,-19 22.5,-18 11,-22.5 13,-44.5 58.5,-87.5 103,-37 20,1 108,40.5 16,13.5 34.5,91 11.5,14 13.5,10 57,20 19.5,14.5 21.5,23.5 5.5,13.5 -24,113 0.5,13 9,14 117.5,49.5 26,4.5 156,-58 11.5,-2 14.5,10.5 4.5,14 v 12.5 l -31,87 v 18.5 l 4.5,14.5 111,146.5 11.5,10 63.5,30.5 138.5,70.5 12,13.5 6.5,12 21.5,118 1,17 -8,13 -49.5,74.5 -3.5,16 1,18 8,17.5 111.5,102 29.5,16.5 79.5,81.5 7,15 -19,80.5 -137,148 -24.5,35.5 -40,36.5 -8,15 v 16 l 2.5,39 -7.5,15.5 -11.5,11.5 -21.5,15.5 -4.5,17 7.5,10 20.5,11.5 21,7 6.5,9 1,12.5 -8.5,13 -15.5,11 -15.5,1 -11,6.5 -5.5,11 4,9.5 32.456,10.85"
     id="path6158" />
  <path
     style="fill:none;fill-rule:evenodd;stroke:#b16b5c;stroke-width:5;stroke-linecap:butt;stroke-linejoin:round;stroke-miterlimit:4;stroke-dasharray:none;stroke-opacity:1"
     d="m 15830,6484.5 -43,-5 -12.5,-10 -14.5,-25 -5,-29.5 24,-201.5 7.5,-15.5 116.5,-172 6.5,-23.5 14,-179.5 87.5,-436 -9,-540.5 -5.5,-24 -401.5,-440 -21,-31.5 -4,-27 28.5,-178.5 -5,-45.5 6.5,-18 9.5,-9.5 8.25,-9 29.5,-44.75"
     id="path6160" />
  <path
     style="fill:none;fill-rule:evenodd;stroke:#b16b5c;stroke-width:5;stroke-linecap:butt;stroke-linejoin:round;stroke-miterlimit:4;stroke-dasharray:none;stroke-opacity:1"
     d="m 15609.5,4072.5 -21,1 -246,-75 -267,-137 -13.5,-14 -190,-425 -32,-230.5 -9,-20 -226.5,-282 -20,-15.5 -171,-98 -38.5,-39 -71,-110 -3,-35 -168.5,-339 -18,-16.5 -21.5,-15 -25.5,-7.5 -175.5,4.5 -177,-31 -22.5,0.5 -175.5,24.5 -164,-17.5 -126,8 -23,6.5 -54,22 -13.5,10.5 -30.5,27.5 -22.5,12 -41.5,5.5 -18.5,-8 -19.5,-25.5 -129.968,-67.2068 -21.128,-2.2754 -236.921,197.4219 -112.077,63.6396 -53.033,10.253 -49.143,18.3848 -20.153,19.799 -33.588,50.9117 -14.142,11.6672 -42.78,12.3744 -13.788,8.4853 -165.463,157.6848 -230.163,112.0764 -134.351,114.9049 -23.334,8.8388 -176.777,44.9013 -84.146,48.7904 -71.771,20.5061 -18.031,13.0814 -16.971,18.7384 -48.436,106.89 -2.268,31.3787 28.553,89.7792"
     id="path6162" />
  <path
     style="fill:none;fill-rule:evenodd;stroke:#00a54f;stroke-width:5;stroke-linecap:butt;stroke-linejoin:round;stroke-miterlimit:4;stroke-dasharray:none;stroke-opacity:1"
     d="m 9689.1383,12518.546 18.3617,9.954 9,15.5 6.5,2 13.5,-4 67,4.5 37,5.5 3.5,-2.5 11.5,5.5 40,1.5 12,-6.5 6.5,2 8.5,15 52.5,19 9,-2.5 13.5,5 28,-3 11,-2.5 25,-1 10.5,-3 37.5,-30.5 3.5,-16.5 22.5,-27.5 21,-13 23,-8.5 27,-3 45.5,-11.5 10,-7 84,-24 55,-42.5 2,-7.5 -4,-21.5"
     id="path6240" />
  <path
     style="fill:none;fill-rule:evenodd;stroke:#ee86a7;stroke-width:5;stroke-linecap:butt;stroke-linejoin:round;stroke-miterlimit:4;stroke-dasharray:none;stroke-opacity:1"
     d="m 12457.5,8637 h -50 l -14,-5 -8.5,-9 -43.5,-122 -13.5,-12 -17,-8 h -15 l -71,5.5 -43,-9 -16,-9 -82,-114.5 -56,-134 v -31.5 l 40.5,-74.5 55.5,-44.5 90,-33 17.5,-8.5 191.5,-129.5 43.5,-108 62.5,-37 9,-28 27.5,-32 5,-24 6.5,-9"
     id="path6319" />
  <path
     style="fill:none;fill-rule:evenodd;stroke:#f89841;stroke-width:5;stroke-linecap:butt;stroke-linejoin:round;stroke-miterlimit:4;stroke-dasharray:none;stroke-opacity:1"
     d="m 11358.052,7878.6014 11.655,-15.5235 13.789,-7.4246 37.83,13.435 h 15.203 l 35.709,-12.7279 12.021,-0.7071 14.849,5.3033 75.66,47.3761 220.971,62.579 h 12.728 l 101.47,-44.9013 13.788,-0.7071 88.389,26.87 24.748,10.2531 95.46,-31.1127 93.338,38.5373 59.397,1.0607 72.125,20.8596 25.456,0.7071 19.799,-8.4853 61.518,-50.5581 21.567,-14.8492 29.698,-8.1318 64.347,-1.4142 26.361,10.078 102.332,12.5494"
     id="path6321" />
  <path
     id="path6323"
     d="m 12744.157,7618.5858 19.939,59.2071 1.854,36.9142 20.293,37.8787 32.06,182.8713 -1.707,22.2248 -25.346,38.3181 -66.5,176.75 -9.75,105.75 4.5,53 -3.25,28.25 -9.5,38.75 -11.5,20.75 -13,39.75 -50.75,101.5 -65,95.5 -1,8 84,100.75 16.5,7 91.75,8.5 123.25,50.25 37.25,2.5 20,10.75 43.75,27.5 29.75,13 123,18 52.25,6.75 33.25,-7.75 144.25,-86.5"
     style="fill:none;fill-rule:evenodd;stroke:#ee202a;stroke-width:5;stroke-linecap:butt;stroke-linejoin:round;stroke-miterlimit:4;stroke-dasharray:none;stroke-opacity:1" />
  <path
     id="path6325"
     d="m 12566.5,8656 -93.25,147.5 -25.5,51.75 -147.5,213.4996 -179,227 -63.25,118 -51.75,55.25 -48.75,85 -22.5,32.75 -116.25,123 -58.25,51.5 -53.5,33.75 -56,21.75 -56.25,6 v 0 l -33.5,19 -165,157.5 -104.432,146.1274 1.147,23.116 -30.465,39.257 -1.75,15.5 16.25,29.25 21.25,79.5 62.75,84.25 5.25,21.5 -21.5,44 -6,10.5 -24.5,18 -97.75,42.25 -93.25,19.25 -33.5,15.5 -87.25,24.25 -13.5,10 -11,16.5 -0.25,21.75 0.5,50.75 21.75,79 2.25,35.25 -19.5,76.5 2.25,121 27,62.25 33.75,32.5 16.75,32.25 12.25,8.25 52.5,14.5 37.75,40.25 19.75,31.75 13,42.25 4.5,25 63.25,147 11.5,14.5 44,32.25 37,13 20.25,17.5 11,23.25 4.5,25.75 7,62.75 -7.75,81 -16.5,37.75 2.25,60.5 -17.5,41 -21.75,26 -34.25,64.5 -25.75,117.5 -2,141 -15.25,63.75 4,24.25 16.969,40.332 21.531,20.668 31.25,27.5 4.75,30.5 -13.25,70.75 -0.75,48.25 -6.25,35 4.75,23.5 30.25,49 13.25,94 20.25,41 62,55.75 32.25,10 25.25,4 41.75,-9 31.25,8.25 90.25,81 25.75,10.25 28,3 107.75,-4.75 34.5,10.5 52.25,27 26.75,31.5 8.75,23.75 3.25,37.75 13.75,19 22,20.75 59.5,37.5 30.25,38.5 53.5,34 49,6 87.25,42 32.5,-1.25 30.755,-5.417 49.996,0.654 24.505,10.983 19.148,20.008 20.358,50.1 10.865,44.121"
     style="fill:none;fill-rule:evenodd;stroke:#ee202a;stroke-width:5;stroke-linecap:butt;stroke-linejoin:round;stroke-miterlimit:4;stroke-dasharray:none;stroke-opacity:1" />
  <path
     style="fill:none;fill-rule:evenodd;stroke:#ee202a;stroke-width:5;stroke-linecap:butt;stroke-linejoin:round;stroke-miterlimit:4;stroke-dasharray:none;stroke-opacity:1"
     d="m 10775,12744.5 12,-30.5 18.5,-19.5 26,-12.5 25,-10 15,-17.5 63,-103.5 20.5,-18.5 56.5,-37.5 15.5,-30.5 -0.5,-19 -10,-35 5,-27.5 18,-23.5 63.5,-34.5 46.5,-12 108,-67 17.5,-21.5"
     id="path6327" />
  <path
     style="fill:none;fill-rule:evenodd;stroke:#c9252f;stroke-width:5;stroke-linecap:butt;stroke-linejoin:round;stroke-miterlimit:4;stroke-dasharray:none;stroke-opacity:1"
     d="m 13860.75,7338.875 124.25,-9.375 236.5,17 34,9.5 328.5,151 32,13 29.5,6 h 17 l 37.5,-10.5 34,-27 248,-254.5 103,-249 136,-150.5 208.5,-145.5 21.54,-22.0503 72.546,-22.3203 22.664,1.8706 345.75,108.25 123.75,73.75 19.25,23.25 23,66.25 28.5,30.5 100.5,77.5 78.989,61.5132 197.464,160.6481 192.547,148.3387 204.5,179 34.5,19 81,10 35.5,13.5 27.5,21.5 162.5,189.5 167,204.5 14.5,11 28,10.5 40,11.5 23.5,16 17,27.5 36.5,68.5 15.5,14.5 49.59,27.2876 9.515,11.0601 47.97,114.4098"
     id="path6333" />
  <path
     style="fill:none;fill-rule:evenodd;stroke:#f15a22;stroke-width:5;stroke-linecap:butt;stroke-linejoin:round;stroke-miterlimit:4;stroke-dasharray:none;stroke-opacity:1"
     d="m 15469.375,6595.2348 8.976,20.5067 14.496,14.8493 26.87,8.8388 26.87,2.1213 347.189,108.5409 80.611,48.0833"
     id="path6503" />
  <path
     style="fill:none;fill-rule:evenodd;stroke:#01a5be;stroke-width:5;stroke-linecap:butt;stroke-linejoin:round;stroke-miterlimit:4;stroke-dasharray:none;stroke-opacity:1"
     d="m 12275.511,6588.1644 10.485,-128.4435 47.498,-162.8845 -4.243,-16.2635 -14.849,-8.4853 -66.402,-8.5876 -31.5,11 -51.5,-4.5 -52,15 -67.5,4 -54.5,-16 -58,3.5 -15.5,-5 -67,-49 -68,-9 -62,12 -18,-4.5 -130,-52.5 -123,-1.5 -160.5,-26 -296.5,-18.5 -478.5,-54.5 -141,14.5 -378.5,50 -26,-7 -148,-72.5 -18.5,-19 -188.5,-96.5 -37.5,-35 -25.5,-4.5 -40.5,9.5 -13,-6 -16.5,-17.5 -27.5,-15.5 -32.5,7 -68.5,-7 -12,5.5 -10.5,11 -16.5,101 -7.5,13 -14.5,11 -18,4.5 -284.5,-20 -97.5,55 -24.5,0.5 -108.5,-23.5 -390,55 -55,3 -59,16.5 -39,2.5 -82,13 -102.5,14.5 -31.5,16 -52,35 -31.5,36 -21.5,12.5 -20,-2.5 -25.5,-12.5 -23,-32.5"
     id="path5794" />
  <path
     style="fill:none;fill-rule:evenodd;stroke:#ffd400;stroke-width:5;stroke-linecap:butt;stroke-linejoin:round;stroke-miterlimit:4;stroke-dasharray:none;stroke-opacity:1"
     d="m 10528.25,6475.0273 1429.77,-50.5582 156.624,-4.9497 43.134,9.8995 37.476,18.0312 27.931,30.7592 25.456,41.0121 15.642,37.03 12.753,38.6911 35.959,177.648 3.882,17.4528 15.556,10.9602 55.154,-3.8891 159.806,27.2236 24.042,-8.4853 62.579,-41.3657 14.496,-25.4559 17.677,-63.6396 49.851,-38.5373 34.649,-30.7591 73.892,-119.5011 16.617,-15.2028 19.799,-4.2426 95.46,7.4246 36.769,8.8388 41.72,-1.0606 31.112,22.981 51.266,16.5312 259.508,29.0771 40.305,20.1526 47.022,2.4749 449.953,-29.6734 42.219,-9.253 26.895,-23.549 29.552,-63.4503 31.199,-31.0698 222.877,-188.8153 300.21,-251.48 23.377,-13.8921 30.649,-6.3818 28.405,0.8714 29.845,9.6495 131.979,67.0715 610.122,317.2839 191.293,106.8528 43.018,17.2674 38,7.5 42.5,-9.25 56.25,6 92.25,8 234,29.5 25.25,7.25 19.25,13.75 32,28 109,111.5 99.75,100.75 313,327.25 61.5,67.5 107.25,68 51.5,10 80.5,13.75 32.5,18.25 19.5,15.75 204.25,355.5 104.5,145.5 56.335,46.8723"
     id="path6593" />
  <path
     id="path6684"
     d="m 18843.5,6367 -66.5,9.5 -18.5,5 -22,13 -146,166 -16.5,31.5 -9,39.5 -10.5,44.5 -83,121.5 -17.5,15.5 -56,22.5 -24.5,9.5 -20,17.5 -52.5,71 -160,122 -50.5,26.5 -39.5,15.5 -37.5,20.5 -26.5,30 -16,33 -26,185 -10,61.5 -15,31 -265,243 -176,138.25 -19.5,9.5 -31.607,-4.6298 L 17382,7806 l -105.5,-147 -203.5,-352 -19.5,-18 -33,-19 -82,-14 -50.5,-10 -106.5,-67 -59,-65.25 -312.25,-326.5 L 16308,6684 l -110,-112 -31.75,-28.25 -20.25,-13.75 -25.25,-8.25 -233.5,-29 -94.75,-8.25 -56,-5.5 -42.75,8.25 -36.25,-6.75 -42.268,-17.2674 -187.793,-104.8528 -614.122,-319.2839 -132.229,-66.8215 -29.345,-9.8995 -30.405,-2.1214 -34.649,8.1318 -22.627,14.1421 -299.46,250.98"
     style="fill:none;fill-rule:evenodd;stroke:#007ac1;stroke-width:5;stroke-linecap:butt;stroke-linejoin:round;stroke-miterlimit:4;stroke-dasharray:none;stroke-opacity:1" />
  <path
     style="fill:none;fill-rule:evenodd;stroke:#007ac1;stroke-width:5;stroke-linecap:butt;stroke-linejoin:round;stroke-miterlimit:4;stroke-dasharray:none;stroke-opacity:1"
     d="m 12764.122,7647.7639 -20.153,101.4698 -22.627,33.5876 -21.567,12.0208 -28.991,3.5355 -19.799,10.2531 -14.496,16.617 -66.822,124.0972 -53.386,143.1891 -13.789,21.2132 -25.102,19.4455 -466.337,165.1094 -167.938,71.0642 -13.435,14.1422 -14.496,21.9203 -3.889,19.0919 3.182,27.5771 86.621,302.6417 25.456,60.1041 12.374,38.1838 74.246,298.3992 6.718,27.224 4.243,35.708 13.434,53.74 1.768,28.992 -6.01,13.435 -18.915,24.748 -30.229,71.065 -22.981,114.551 -15.367,26.047 -21.579,31.052 -115.789,121.445 -55.154,49.675 -50.912,33.941 -55.154,21.036 -54.094,4.95 -102.153,43.464 -112.75,138.5 -89.257,125.3274 -6.861,19.512 -95.565,130.696 -50.912,36.238 -65.761,42.25 -38.184,44.194 -20.506,25.81 -19.092,9.899 -19.799,6.364 -210.718,-35.355 -21.92,5.303 -157.331,95.106 -44.49,14.401 -44.41,37.135 -11.863,32.61 1.768,46.315 1.061,52.326 -14.85,53.387 -21.566,39.951 -28.992,23.688 -173.241,114.198 -22.627,25.102 -12.375,27.577 -15.91,108.188 8.486,42.073 19.445,74.953 1.061,21.92 -18.739,196.929 -10.253,37.831 -50.204,116.672 v 16.617 l 10.96,54.447 -17.501,68.589 4.066,27.931 24.572,39.068 4.596,18.031 -0.884,16.971 -13.081,37.3 -6.623,36.946 2.25,19 21.25,33 39.25,50.25 14.75,8.5 46.25,16.75 15.5,14.5 80,89.25 8.75,14.75 2,18.5 0.75,81.75 2.25,10.25 20,28.25 6,17.75 -4.5,86.75 4.5,29.5 14.25,37.25 21.5,28 25,17 22.5,6 57,16.5 82.5,59 11.5,17.5 22,67 15,20 24,16.5 32.5,6.5 28,-3.5"
     id="path6688" />
  <path
     style="fill:none;fill-rule:evenodd;stroke:#00b2e5;stroke-width:5;stroke-linecap:butt;stroke-linejoin:round;stroke-miterlimit:4;stroke-dasharray:none;stroke-opacity:1"
     d="m 11325.099,3331.4591 4.274,14.3915 16.064,38.5317 17.199,34.5295 32.881,38.1837 48.79,73.1856 31.82,56.9221 22.627,56.215 20.153,54.8007 44.901,126.2186 12.021,21.9203 91.924,98.6414 22.981,37.8302 70.766,134.6706 69.5,64 21.5,22.5 53,67 147.5,158 130,158 77,70 210,262 19.5,29 9.5,26 4,30.5 -18.5,130 v 59.5 l 2,25 15.25,34.5 47.25,96.75 3.5,53 0.25,21.25 60,122.5 74.75,70.25 47.5,77.75 62.75,65.5 160.25,102.25 45.5,35.5 48.5,45.25 31.75,38 21,34 38.75,61.875 55.5,51.875 55.5,62.75 12.75,13.125 3.875,15.375 -5.375,22.75 -11,23.25 -42,66 -5.25,16 1.25,34.5 -13,91.5 -7.75,34.5 -4,54.5 -16.689,65.1036 -50.311,152.6464 -29.75,93.5 -20.5,24 -35.25,33 -32.5,67.75 6.104,100.5407 -10.854,71.9593 -13,56.5 -14,44.75 -21.5,30.75 -81,54 -37.75,20.25 -25.75,39.75 -42.159,105.9268 -6.591,36.3232 4.5,77.75 -2.5,36.75 -21.75,103.5 -13.25,58.5 -23,235 -8.5,25.75 -103,197 -217,637 -66,104.9996 -188,193 -78.604,85.555 -16.441,21.818 -30.455,71.127 -22.75,114 -16.119,27.334 -20.631,30.666 -116.737,122.695 -57.604,50.75 -50.409,33.305 -55.5,21.25 -56,6.25 -98.592,42.162 -111.291,136.825 -86.492,120.4514 1.561,58.447 96.873,142.836 28.992,36.062 7.778,33.588 39.244,55.508 23.688,18.738 49.144,28.638 9.193,19.799 37.123,92.985 4.243,78.842 21.92,61.518 4.95,28.285 -4.95,28.991 -11.667,20.506 -22.274,22.627 -131.522,39.952 -100.763,61.518 -24.041,34.649 -98.995,182.08 -6.364,48.79 1.767,38.537 15.203,30.406 33.941,52.326 10.96,25.102 -1.414,27.224 -2.121,18.738 -16.617,25.102 -17.324,15.557 -40.305,13.081 -32.881,5.657 -38.891,-6.01 -79.196,-23.689 -27.93,-1.414 -38.538,11.314 -100.055,43.487 -41.366,4.596 -58.336,-4.95 -223.8,59.044 -35.001,25.809 -21.921,11.668 -152.028,42.426 -21.566,-2.121 -91.217,-29.699 -28.284,1.768 -33.588,14.496 -18.385,23.334 -18.738,71.418 4.243,27.224 24.041,37.476 5.657,20.153 -2.121,18.738 -9.193,27.931"
     id="path6780" />
  <path
     style="fill:none;fill-rule:evenodd;stroke:#849e00;stroke-width:5;stroke-linecap:butt;stroke-linejoin:round;stroke-miterlimit:4;stroke-dasharray:none;stroke-opacity:1"
     d="m 9636,7188.5 110.5,6 19.5,-4 34,-12 12.5,-14.5 13.5,-64 11,-15 97,-84.5 15,-22.5 150,-388.5 14.5,-16 97.172,-75.4645 24.237,-12.682 105.583,-3.6005"
     id="path5290" />
  <path
     id="path6969"
     d="m 13098.25,6806.5 50.5,-154 12.086,-37.2019 4.177,-24.4749 -3.013,-14.3232 -19.75,-22 -27.178,-18.1364 -51.516,-16.5312 -29.612,-22.481 -42.97,0.8106 -35.269,-8.5888 -93.96,-7.4246 -17.299,2.7426 -15.617,14.4528 -74.642,120.0011 -35.149,31.5091 -48.351,37.5373 -17.927,63.8896 -15.746,25.9559 -64.579,42.8657 -25.292,8.2353 -158.306,-26.9736 -58.654,3.3891 -17.806,-12.7102 -3.632,-18.2028 -35.709,-178.898 -12.503,-38.4411 -15.392,-35.28 -25.706,-41.7621 -26.931,-29.0092 -36.226,-18.0312 -41.634,-9.1495 -156.624,5.1997 -1429.52,50.5582 L 8902,6537 l -273,10 -28.5,8 -29.5,19.5 -17.5,22 -114.5,264.5 -38.5,163 -18.5,36.5 -28,34 -191,148.5 -30.5,11 H 8106 l -31,-3.5 -19,5.5 -43,23 -26,4 -20,-7 -94.5,-52.5 -58,-12.5 -189.5,-39.5 -103.5,-30.5 -19,1.5 -16,7 -299.5,197 -128.5,57.5"
     style="fill:none;fill-rule:evenodd;stroke:#f15a22;stroke-width:5;stroke-linecap:butt;stroke-linejoin:round;stroke-miterlimit:4;stroke-dasharray:none;stroke-opacity:1" />
  <path
     id="path7065"
     d="M 12399.331,7343.6105 12370.25,7276 l -15.75,-22.5 -59.5,-82.25 -8.25,-20.5 2.375,-79.5 12.875,-113.375 16.5,-62.875 -0.75,-31.125 -2.5,-31.625 -12,-36.625 -39.75,-199.75 11.25,-111.375 4.5,-32.5 72.75,-265.25 69.25,-163.25 74.25,-165.25 41.25,-81.25 10,-32.25 4.25,-33.75 -2.5,-307.25 -3.75,-51.5 -48.5,-98.5 -18.25,-17.75 -21.5,-15 -50,-15.25 -41.5,-12.25 -18,-11 -45.25,-37.5 -23.75,-10.75 -109.5,-16.75 -16.25,-6.5 -20.5,-12.25 -17,-19.25 -13.25,-34.25 -18,-81 -10.5,-22.75 -16.5,-20.25 -122.75,-129.5 -15.75,-25 -69.25,-147.75 -15.75,-18.25 -95.5,-73 -64.5,-98.25 -54.75,-136.25 -26,-34.25 -96.75,-102 -32,-48.5 -12.5,-35 -112.5,-375.5 -1.5,-25 3.5,-19.5 47,-85.5 5,-24 -4.5,-39 -20,-53.5 -43.871,-106.2929 -79.104,-264.0858 -25.525,-86.1213 -18,-35.5 -22.5,-14 -25,-9 -21,2.5 -24,9.5 -544,236 -30.5,15 -24,21 -149.5,143.5 -15,12 -16.5,2.5 -12.5,3 -269,1 -392.5,47 H 9640 l -15,-8.5 -11.25,-7 -59,-84.5"
     style="fill:none;fill-rule:evenodd;stroke:#00a07d;stroke-width:5;stroke-linecap:butt;stroke-linejoin:round;stroke-miterlimit:4;stroke-dasharray:none;stroke-opacity:1" />
  <path
     style="fill:none;fill-rule:evenodd;stroke:#80c342;stroke-width:5;stroke-linecap:butt;stroke-linejoin:round;stroke-miterlimit:4;stroke-dasharray:none;stroke-opacity:1"
     d="m 12865.945,7351.8397 75.837,-51.0885 21.921,-30.4056 12.904,-42.2496 11.491,-48.0833 12.197,-78.312 -6.01,-103.5912 34.118,-70.7107 35.179,-32.1733 19.799,-22.6274 6.187,-18.9152 13.435,-45.4316 56.038,-171.2966 5.589,-16.9218 14.563,-57.678 4.42,-54.6239 9.016,-40.1283 10.96,-83.4386 -0.707,-36.0625 7.071,-18.7383 39.598,-63.6396 11.313,-23.8649 5.286,-20.8973 -3.311,-13.9209 -68.538,-75.4548 -54.129,-50.7572 -61.58,-97.938 -31.233,-36.5212 -45.157,-42.5806 -14.66,-7.8902 -16.347,-2.1537 -18.276,3.5761 -255.919,139.429 -16.5,4.5 -20,-1.25 -170.5,-55.25 -23.5,2 -17.75,6.5 -15.75,15.75 -77,179.5 -72.75,265.5 -14.875,142.25 39.75,199.625 11.375,34.75 3.125,33.125 0.75,32 -16.875,63.625 -12.5,112.875 -2.5,78.875 7.625,18.75 75,103.625 79.895,184.4393 30.535,123.8337 6.58,6.0547 68.597,43.6168 69.494,120.63 19.991,29.5093 13.612,7.955 10.96,2.8284 24.041,-2.1213 19.446,-10.9602 15.026,-22.097 17.501,-83.0851 2.828,-38.1838 -4.95,-75.6604 6.563,-37.6017 43.819,-108.5926 24.749,-38.5373 46.492,-25.6327"
     id="path7067" />
  <path
     style="fill:none;fill-rule:evenodd;stroke:#009a54;stroke-width:5;stroke-linecap:butt;stroke-linejoin:round;stroke-miterlimit:4;stroke-dasharray:none;stroke-opacity:1"
     d="m 16154.75,3855.75 -101.75,5.75 -187.5,-52.5 -28,2 -31.5,14 -70.5,67.25 -205.75,315.75 -26.25,30 -58.5,48 -371.5,224.25 -26.5,32.25 -16,33.5 -31.25,126.5 -39.25,180.5 -48.5,80 -96,131 -28.5,73.5 -57.5,190.5 -10,29 -23.5,24 -34.5,22 -63,18 -35.5,3.25 -105.25,-11.5 -48,1 -115.75,15.75 -142,14.5 -34.5,9 -54,37.5 -33.5,11 -302.5,37.25 -46.25,10 -25.25,15 -58,89.25"
     id="path7073" />
  <path
     id="path5377"
     d="m 13601,5687 59.5,-90 24.5,-14.5 46.5,-9.5 301.5,-37.5 33.5,-11 54,-37.5 34.5,-9 142,-14.5 113.5,-15.25 47.5,-1 106.5,12 37,-4.25 63,-18 34.5,-22 25.5,-25.5 9.75,-27.5 57.5,-193 28.75,-72.75 96,-132 49,-79.75 39,-181.25 31.25,-125.5 15.5,-33.25 25,-30 371.25,-224.5 59.5,-48.75 26.25,-30 206.5,-316.25 68.75,-66 31.5,-14 25.25,-0.5 188,52.25 101.5,-6 150.75,-10.75 231,11.5 34.5,1 22,-4.5 26,-17.5 16,-18 182,-341 19,-28.5 11.5,-10.5 16,-7 46.5,-0.5 19,-5.5 21.5,-13.5 254.5,-214 26,-12.5 403,-108 20.5,-8.5 24.5,-16.5 32.5,-27 19.5,-27.5 9.5,-30 1.5,-30.5 -2.5,-204.5 9,-98 23,-301.5 8,-117 7.5,-31.5 198.398,-388.6557 10.607,-33.234 56.568,-277.8929 10.607,-24.7488 246.78,-408.7077 33.941,-38.8909 9.9,-29.69849 7.778,-51.6187 14.849,-27.5772 17.678,-14.8493 147.785,-108.8944 14.849,-26.1629 32.527,-70.7107"
     style="fill:none;fill-rule:evenodd;stroke:#800080;stroke-width:5;stroke-linecap:butt;stroke-linejoin:round;stroke-miterlimit:4;stroke-dasharray:none;stroke-opacity:1" />
  <path
     style="fill:none;fill-rule:evenodd;stroke:#009a54;stroke-width:5;stroke-linecap:butt;stroke-linejoin:miter;stroke-miterlimit:4;stroke-dasharray:none;stroke-opacity:1"
     d="m 13920.241,5326.3323 -1.06,38.8909 -21.214,66.1145 2.829,80.2566 4.95,20.8596 -2.122,8.4853 -8.131,11.3137"
     id="path4787" />
  <path
     style="fill:none;fill-rule:evenodd;stroke:#800080;stroke-width:5;stroke-linecap:butt;stroke-linejoin:round;stroke-miterlimit:4;stroke-dasharray:none;stroke-opacity:1"
     d="m 13601,5687 -8.25,29.125 -21.125,73.625 -41.625,162.875 -15.5,43.625 -20.875,31.25 -21.794,11.8026 -25.456,-1.6776 -216.5,-35.875 -39.875,-4.75 -20.25,3.5 -15.75,8.5 -11.5,13.75 -5.75,13.75 -2.5,14.25 12.75,23.25 54,50.75 70.25,77.875 4.625,17.625 -5.125,24 -12.19,25.3264 -33.31,52.6736"
     id="path7075" />
  <path
     id="path4557"
     d="m 8683.7548,6549.649 90.2435,-4.1219 24.512,8.4146 12.8049,9.878 6.5853,14.2682 41.3413,133.1701 13.5365,18.6584 14.6341,8.0488 134.9993,23.7804 132.8043,59.268 15.7316,13.5365 9.1463,14.6341 3.2927,19.0243 2.5609,32.5608 5.8537,17.195 8.7804,9.1463 98.4142,77.1948 18.6584,8.4146 16.8292,-0.7317 59.6339,-12.439 61.0973,-1.4634 14.2682,6.2195 11.8902,12.439 28.7193,93.2922 48.9077,59.4634 12.5,86.5 12,19.5 12.5,10.5 28,9.5 24.5,2.5 22.5,-3.5 14.5,4 13,6.5 40,29 107.5,56 157,6.5 22.5,10.5 171,122.5 21,9 255,69 16.5,9.5 13,15 37.5,53 22,19 19.5,12 74,19 14,11 39,40 98.5,47 15.5,3.5 31,4 15,5.5 98,70.5 7.5,11 13,28 9,13.5 90,63 52.5,12.5 165,155.5 121.5,66 209.5,136 37,7 141,2 19,6.5 16.5,13.5 7,9.5 38,156 181.5,508.9996 16,34.5 10.5,15.5 22,12 20,9.5 16,-4 12.5,-9.5 65,-66"
     style="fill:none;fill-rule:evenodd;stroke:#ffd400;stroke-width:5;stroke-linecap:butt;stroke-linejoin:round;stroke-miterlimit:4;stroke-dasharray:none;stroke-opacity:1" />
  <path
     id="path4559"
     d="m 7757,7203 82.5,18.5 17.5,17 14,20.5 15.5,50.5 1.5,17.5 -8,29.5 -11,30.5 -18,19.5 -152,100 -11,14.5 -46.5,117 2,24 7.5,16.5 37.5,41 10,26 -10.5,44.5 -22,80 4.5,38.5 10,95.5 6,19 26.5,27.6213 214.2782,135.8284 L 9212.5,9015 l 17.5,2 137,-2 39,9.4996 30.5,18 40.5,36 35,26.5 29.5,2.5 98.75,-3.25 122,-3.75 19,2.75 213.75,83.25 314,199.5 161,51 29,1 33.5,-2 242,-49.5 h 18 l 102.5,24 70.5,12.5 120.5,66.5 24.5,6 h 26.5 l 154.5,-23 59.5,-28 26.5,-6.5 28.5,-1.5 21,6 103.5,53 17,30.5 44.5,117.5 19.5,122 v 19 l -6.5,15.5 -10.25,12 -38.734,22.295 -58.266,25.705 -110.91,135.38 -31.383,43.7694"
     style="fill:none;fill-rule:evenodd;stroke:#80e342;stroke-width:5;stroke-linecap:butt;stroke-linejoin:round;stroke-miterlimit:4;stroke-dasharray:none;stroke-opacity:1" />
  <path
     id="path4660"
     d="m 12976,7202 10,28.25 -13,42.75 -23.75,34.25 -46,30.75 -2.75,7 1.5,9.75 7.75,16 -1,45.5 -15.5,32.75 0.25,41.25 15.25,36.5 -11.25,158.5 22.5,46 1.75,15.75 -17.25,217.5 -4.5,12.5 -30.25,46.5 -5.25,17.25 -12.5,200.25 59.75,168.25 -0.75,10.75 -22.75,118.5 3.5,20.75 45,62.25 11,16.25 7.75,16.25 -19.25,88 2.5,68.25 9.75,22.75 6.75,32 19.25,14.5 34.75,10.25 114.5,15.75 15.5,35 7,10.5 96.25,51.5 14.25,-0.5 10.5,-3 85.5,-60 7,-17.75 3,-19.5 -7,-19 -36.5,-61.5"
     style="fill:none;fill-rule:evenodd;stroke:#1054bc;stroke-width:5;stroke-linecap:butt;stroke-linejoin:round;stroke-miterlimit:4;stroke-dasharray:none;stroke-opacity:1" />
  <path
     id="path4662"
     d="m 8725,5804 -0.5,45 27,169 4.5,43 -2,125.5 23,53 v 10 l -88,120 -1.5,9 -3,148.5 6,35 -43.5,101.5 -47.5,142 v 7 l 5.5,10.5 163.5,123 13,15 6,19 v 12 l -5,17 -20.5,40.5 -40,47.5 -10,26.5 -25.5,46 -16,17 -13.5,27.5 -17,16.5 -9,29 -8.5,11 -39,15 -7.5,19.5 -5,29.5 6.5,19.5 -0.5,28 9,7 8,6.5 25.5,4 73,39.5 25.5,35 72,57 10.5,17.5 4.5,23.5 19.5,49.5 -0.5,15 -11,51"
     style="fill:none;fill-rule:evenodd;stroke:#903d11;stroke-width:5;stroke-linecap:butt;stroke-linejoin:round;stroke-miterlimit:4;stroke-dasharray:none;stroke-opacity:1" />
  <path
     id="path4765"
     d="m 17292,7931.5 29,34 10.5,1.5 55.5,-47.5 11,-28 23.5,-0.5 25,-37.25 15.714,-0.3928 25.639,-14.1532 6.576,-15.771 -1.679,-59.433 -34.25,-87.75 -9.5,-33.75 -15.25,-33.5 -13.25,-49 -9,-36.5 -13.5,-20.25 -6.25,-33.75 36,-46.5 31.75,-20 17.5,-44.75 25.5,0.25 19.75,-10 30.5,9.25 18.25,36 43,19.75 33,4.5 22.75,12.5 58,53 24.75,13.25 16.25,11.5 29,13.5 21.5,18.75 17.5,0.75 43,-39.5 7.5,0.5 148,75.25 8,7.25 12,29.5 12.25,13.5 52.5,16.5 9.75,-0.75 49.5,-27.75 33.75,-8 18.5,1 25.25,8.5 41.75,18.5 72.5,77.25"
     style="fill:none;fill-rule:evenodd;stroke:#19bd80;stroke-width:5;stroke-linecap:butt;stroke-linejoin:round;stroke-miterlimit:4;stroke-dasharray:none;stroke-opacity:1" />
  <path
     id="path4767"
     d="m 17487.853,7839.204 5.647,4.296 4.5,21 12.75,17.5 3,9.5 0.25,39.5 12.25,17.75 5.75,27 10.75,24.5"
     style="fill:none;fill-rule:evenodd;stroke:#19bd80;stroke-width:5;stroke-linecap:butt;stroke-linejoin:round;stroke-miterlimit:4;stroke-dasharray:none;stroke-opacity:1" />
  <path
     id="path4872"
     d="m 11298.289,12172.187 41.72,36.77 12.728,2.828 h 14.849 l 63.639,-41.012 9.193,-11.314 -1.414,-9.899 -16.971,-51.619 2.121,-32.527 28.992,-43.841 38.891,-35.355 h 10.606 l 20.506,19.092 12.021,23.334 12.728,7.779 68.589,-2.122 30.406,-10.606 2.121,-7.071 v -58.69 l -19.092,-18.385 -0.707,-97.581 -9.899,-11.314 h -36.77 l -9.899,-7.071 -5.657,-91.216 -8.485,-29.699 -2.829,-196.576 -7.071,-28.284 -9.899,-19.799 -23.335,-16.263 -148.492,-44.548 -48.791,-27.577 -38.183,-38.184"
     style="fill:none;fill-rule:evenodd;stroke:#f79447;stroke-width:5;stroke-linecap:butt;stroke-linejoin:round;stroke-miterlimit:4;stroke-dasharray:none;stroke-opacity:1" />
  <path
     id="path4874"
     d="m 10169,11840 -7.5,28.5 v 8.5 l 10,12.5 4.5,21.5 -2.5,5.5 -86,104 -15.5,14.5 -13.5,25.5 -4.5,31.5 -13.5,20.5 -39,42.5 -22.5,46 -6,17 -28.5,44 -61.5,46.5 -32.5,10 -10,15.5 -6,17.5 -15,2 -25.5,0.5 -19,11 -24,19 -37.5,-2.5 -11,4 -9,30 -26,22 -45.5,30.5"
     style="fill:none;fill-rule:evenodd;stroke:#e84423;stroke-width:5;stroke-linecap:butt;stroke-linejoin:round;stroke-miterlimit:4;stroke-dasharray:none;stroke-opacity:1" />
  <path
     id="path4981"
     d="m 15918,1614.5 -91,74.5 -13.5,23 -46.5,128 7,178 31.5,144.5 28.5,234.5 150,458 16,27.5 27.5,19.5 87.5,42 284,141 335.5,193.5 39.5,50 54.5,78 6,24 -2.5,18 -24.939,41.3536"
     style="fill:none;fill-rule:evenodd;stroke:#93262a;stroke-width:5;stroke-linecap:butt;stroke-linejoin:round;stroke-miterlimit:4;stroke-dasharray:none;stroke-opacity:1" />
  <path
     id="path5092"
     d="m 11305,3329.5 -5,-12 -9,3.25 -3,-10 8,-3.5 -7.5,-28.75 -43,-146.5 -15,-74 -6.5,-83.5 11,-90 52.5,-329 40.5,-272.5 7.5,-65.5 -5.5,-59 -13,-73.5 -21.5,-72.5 -23.5,-53 -32,-54 -35.5,-49 -56.5,-58 -129.5,-124.5"
     style="fill:none;fill-rule:evenodd;stroke:#808000;stroke-width:5;stroke-linecap:butt;stroke-linejoin:round;stroke-miterlimit:4;stroke-dasharray:none;stroke-opacity:1" />
  <path
     id="path5094"
     d="m 6867.2047,7575.0431 -137.5322,2.1213"
     style="fill:none;fill-rule:evenodd;stroke:#000000;stroke-width:5;stroke-linecap:butt;stroke-linejoin:round;stroke-miterlimit:4;stroke-dasharray:none;stroke-opacity:1" />
  <path
     id="path5096"
     d="m 6865.437,7563.3759 -116.6726,-6.364"
     style="fill:none;fill-rule:evenodd;stroke:#000000;stroke-width:5;stroke-linecap:butt;stroke-linejoin:round;stroke-miterlimit:4;stroke-dasharray:none;stroke-opacity:1" />
  <path
     id="path5101"
     d="m 6504.1054,10634.341 40.3051,30.405 44.5477,26.87"
     style="fill:none;fill-rule:evenodd;stroke:#000000;stroke-width:5;stroke-linecap:butt;stroke-linejoin:round;stroke-miterlimit:4;stroke-dasharray:none;stroke-opacity:1" />
  <text
     x="6789.4531"
     y="12697.961"
     id="text2993"
     xml:space="preserve"
     style="font-style:normal;font-weight:normal;font-size:144px;line-height:125%;font-family:Sans;-inkscape-font-specification:Sans;letter-spacing:0px;word-spacing:0px;fill:#000000;fill-opacity:1;stroke:none"><tspan
       x="6789.4531"
       y="12697.961"
       id="tspan2">2000</tspan></text>
  <text
     x="6789.4531"
     y="1006.96094"
     id="text2997"
     xml:space="preserve"
     style="font-style:normal;font-weight:normal;font-size:143.99989319px;line-height:125%;font-family:Sans;-inkscape-font-specification:Sans;letter-spacing:0px;word-spacing:0px;fill:#000000;fill-opacity:1;stroke:none"><tspan
       x="6789.4531"
       y="1006.96094"
       id="tspan1">2000</tspan></text>
  <path
     style="fill:none;fill-rule:evenodd;stroke:#dcaf27;stroke-width:5;stroke-linecap:butt;stroke-linejoin:round;stroke-miterlimit:4;stroke-dasharray:none;stroke-opacity:1"
     d="m 17431.824,7847.5561 25.462,26.9159 13.821,17.7014 85.113,214.5996 59.408,143.0664 51.407,123.9101 18.187,49.467 14.064,254.1247 -72.503,225.754 -10.67,15.0341 -137.489,152.2808 L 17090,9424 l -76.5,116 -188.5,149 -153,139.5 -233,149.5 -16,17.5 -32,45 -167,132 -32.5,24.5 -36,19.5 -34.5,29.5 -56,30 -125,83 -356,219 -257,122 -42,28.5 -153.5,258.5 -4.5,29.5 -35,391.5"
     id="path4576" />
  <path
     style="fill:none;fill-rule:evenodd;stroke:#800000;stroke-width:5;stroke-linecap:butt;stroke-linejoin:round;stroke-miterlimit:4;stroke-dasharray:none;stroke-opacity:1"
     d="m 4830,13660.5 -11.5,17 -14,3.5 -13,5 -7.5,-4 -14.5,-14.5 -64,-20.5 -41,6 -31.5,-3 -20.5,-4.5 -13.5,5.5 -4,15.5 4.5,10.5 35.5,7.5"
     id="path4577" />
  <path
     style="fill:none;fill-rule:evenodd;stroke:#800000;stroke-width:5;stroke-linecap:butt;stroke-linejoin:round;stroke-miterlimit:4;stroke-dasharray:none;stroke-opacity:1"
     d="m 4599.5,13677 -12.5,3 -7.5,8.5 -15.5,-0.5 -23,-18.5 -28,-1.5 -10,-35.5 -15.5,-10.5 -13,-32.5 -16,-5"
     id="path4579" />
  <path
     style="fill:none;fill-rule:evenodd;stroke:#800000;stroke-width:5;stroke-linecap:butt;stroke-linejoin:round;stroke-miterlimit:4;stroke-dasharray:none;stroke-opacity:1"
     d="m 4474.5,13589.5 v 19 l -5,14.5 9.5,19"
     id="path4581" />
  <path
     style="fill:none;fill-rule:evenodd;stroke:#800000;stroke-width:5;stroke-linecap:butt;stroke-linejoin:round;stroke-miterlimit:4;stroke-dasharray:none;stroke-opacity:1"
     d="m 4469.5,13623 -12.5,-5.5 -50.5,3 -7.5,-8.5 -5,-22 -10,-5 -9,7.5 -4.5,-2 -1.5,-16 -11.5,-5 -2,-8 -16.5,-14.5 -11,1 -7,-16 -15.5,-14 -60.5,6 -7,9 v 10 l -3.5,16 -1,14.5 -17,6.5 -6,-3 -0.5,-12.5 -22.5,-10.5 -9.5,3.5 -5,-2.5 7.5,-16.5 -1,-62 -11,-14 h -7 l -19.5,5 -5,-3.5 -2.5,-8 10.5,-32.5 -5,-25.5"
     id="path4583" />
  <path
     style="fill:none;fill-rule:evenodd;stroke:#ff6600;stroke-width:5;stroke-linecap:butt;stroke-linejoin:round;stroke-miterlimit:4;stroke-dasharray:none;stroke-opacity:1"
     d="m 3983,13465.5 153.75,-64.25"
     id="path4585" />
  <path
     style="fill:none;fill-rule:evenodd;stroke:#000000;stroke-width:5;stroke-linecap:butt;stroke-linejoin:round;stroke-miterlimit:4;stroke-dasharray:none;stroke-opacity:1"
     d="m 3978.7552,13458.525 -199.4041,38.891 -168.2915,1.414 -144.2497,101.116"
     id="path4587" />
  <path
     style="fill:none;fill-rule:evenodd;stroke:#000000;stroke-width:5;stroke-linecap:butt;stroke-linejoin:round;stroke-miterlimit:4;stroke-dasharray:none;stroke-opacity:1"
     d="m 3661.9713,13973.299 179.6051,-155.564"
     id="path4589" />
  <path
     style="fill:none;fill-rule:evenodd;stroke:#f15a22;stroke-width:5;stroke-linecap:butt;stroke-linejoin:round;stroke-opacity:1;stroke-miterlimit:4;stroke-dasharray:none"
     d="m 8670.5,6545 -16,-4.5 -790.5,-299 -19,-13.5 -343,-571.5 -171,-283.5 -21,-25 -31.5,-25 -361.5,-199.5 -17,-8 -17,1.5 -58.5,18.5 -16.5,-1 -29,-9.5 h -24"
     id="path4584" />
  <path
     style="fill:none;fill-rule:evenodd;stroke:#16365c;stroke-width:5;stroke-linecap:butt;stroke-linejoin:round;stroke-opacity:1;stroke-miterlimit:4;stroke-dasharray:none"
     d="m 8438.5,2559.5 -22,14 -19,33 -26.5,18 -108.5,97 -149.5,137.5 -101.5,82 -28.5,12 -23.5,4.5 -15.5,-4 -18.5,-10.5 -11,-16 -25,-52 -12.5,-10 -78,-18 -266,-75 -17.5,-14 -113,-112.5 -19.5,-22.5 -37.5,-32.5 -64.5,-79 -7,-41"
     id="path4586" />
  <path
     style="fill:none;fill-rule:evenodd;stroke:#ef7805;stroke-width:5;stroke-linecap:butt;stroke-linejoin:miter;stroke-opacity:1;stroke-miterlimit:4;stroke-dasharray:none"
     d="m 9218,5142.5 -17.5,-4.5 -19.5,6.5 -45,28.5 -12.5,13.5 -12.5,50 -7.5,15.5 -13,11 -83.5,54.5 -17.5,4 -27.5,1.5 -32.5,5.5 -55,2 -16.5,3.5 -20.5,13 -17.5,18.5 -53.5,68"
     id="path4588" />
  <path
     style="fill:none;fill-rule:evenodd;stroke:#01a5be;stroke-width:5;stroke-linecap:butt;stroke-linejoin:round;stroke-opacity:1;stroke-miterlimit:4;stroke-dasharray:none"
     d="m 9131,5470 52,25.5 13.5,0.5 126.5,-27 20.5,2.5 14.5,14.5 7.5,12.5 v 24.5"
     id="path4590" />
  <path
     style="fill:none;fill-rule:evenodd;stroke:#01a5be;stroke-width:5;stroke-linecap:butt;stroke-linejoin:round;stroke-opacity:1;stroke-miterlimit:4;stroke-dasharray:none"
     d="m 9346,5643 -6,151 -10.5,91"
     id="path4592" />
  <path
     id="path6414"
     d="m 15469.375,6595.2348 -9.409,-30.7585 0.707,-27.5772 13.435,-59.397 49.498,-100.0556 16.263,-50.5581 70.358,-125.5115 6.01,-19.7989 4.243,-80.9638 -5.657,-18.3847 -165.463,-352.8463 -91.571,-146.7247 -51.972,-185.262 -76.014,-385.7267 -108.187,-341.8861 -13.789,-26.5165 -12.728,-13.7886 -200.818,-132.9361 -117.026,-156.6242 -38.891,-30.052 -39.245,-11.3137 -111.369,-13.435 -22.981,-8.8389 -21.567,-16.617 -49.851,-65.0538 -253.144,-270.1148 -128.34,-107.8338 -42.073,-15.9099 -36.062,-3.5355 -369.11,13.435 -793.374,-1.0606 -319.258,73.8926 -556.14,274.3574 -127.279,100.0557 -29.698,14.8492 -32.527,4.5962 -161.221,-4.2426 -62.579,-12.3744 -72.832,-23.6881 h -23.334 l -28.638,2.4749 -24.042,9.8995 -155.563,123.7437 -122.33,172.8876 -30.052,26.1629 -183.14,104.6518 -236.174,190.5653 -32.527,18.7383 -30.405,11.6673 -45.609,11.3137 -70.357,7.7782 -43.487,2.8284 -341.533,83.0851 -106.066,12.7279 -23.688,11.3137 -137.1785,74.2462 -111.7228,104.2982 -170.0592,267.64 -39.9515,97.9343 -90.1562,224.5064 -51.6188,235.4665 -38.8908,141.7749 -10.2531,147.4318 -10.9601,141.7749 -1.0607,21.5668 6.7175,102.1769 122.5493,413.6083 14.3251,41.561"
     style="fill:none;fill-rule:evenodd;stroke:#f15a22;stroke-width:5;stroke-linecap:butt;stroke-linejoin:round;stroke-miterlimit:4;stroke-dasharray:none;stroke-opacity:1" />
  <path
     style="fill:none;fill-rule:evenodd;stroke:#01a5be;stroke-width:5;stroke-linecap:butt;stroke-linejoin:round;stroke-miterlimit:4;stroke-dasharray:none;stroke-opacity:1"
     d="m 9313,5986 -33,254.5 v 19 l 5,19.5 147,220.5 8.5,7.75 12.7322,5.2929 L 9537,6509.25"
     id="path4594" />
  <path
     style="fill:none;fill-rule:evenodd;stroke:#01a5be;stroke-width:5;stroke-linecap:butt;stroke-linejoin:miter;stroke-opacity:1;stroke-miterlimit:4;stroke-dasharray:none"
     d="m 9497,5901.5 3.75,13.5 -1,10.75 -11.25,43 -5.75,74.75 11.25,64.25 6.75,10.25 16.75,22 5.75,13.25 3,14.5 5.75,90.25 -36.25,174 0.25,11 25.75,64"
     id="path4596" />
  <path
     style="fill:none;fill-rule:evenodd;stroke:#d2a808;stroke-width:5;stroke-linecap:butt;stroke-linejoin:round;stroke-miterlimit:4;stroke-dasharray:none;stroke-opacity:1"
     d="m 10131,10184 -28,1.5 -42.5,-6.5 -78.5,21 -33.5,-10 -51,-20 -18.5,-15.5 -36.5,-56 -24.5,-15.5 -92.5,-43 -11.5,-3 -128.5,-1 -160.5,14.5 -218,-9.5 -40.5,15 H 9146 l -168,-32.5 -134,-2.5 -13.5,7 -69,49.5 -79.5,38.5 -12,13 -24,38.5 -24,19.5 -32,24.5 -34,17 -55,4.5 -29,22.5 -12,17 -41.25,42"
     id="path4598" />
  <path
     style="fill:none;fill-rule:evenodd;stroke:#ffd400;stroke-width:5;stroke-linecap:butt;stroke-linejoin:round;stroke-miterlimit:4;stroke-dasharray:none;stroke-opacity:1"
     d="m 11970.268,9451.2929 -13.854,67.0607 2.086,44.1464 11,16 30.5,9 14,14.5 41,51.5 10.5,8 12.5,2 66,-13.5 76.5,-27"
     id="path4600" />
  <path
     style="fill:none;fill-rule:evenodd;stroke:#ee202a;stroke-width:5;stroke-linecap:butt;stroke-linejoin:round;stroke-opacity:1;stroke-miterlimit:4;stroke-dasharray:none"
     d="m 12303.386,9064.21 57.629,-26.163 30.759,-2.1213 14.496,7.7782 24.749,4.5962 162.634,-10.2531 37.831,-13.7886 162.281,-0.7071 40.658,18.3848 35.356,10.6066"
     id="path4602" />
  <path
     style="fill:none;fill-rule:evenodd;stroke:#3851a3;stroke-width:5;stroke-linecap:butt;stroke-linejoin:round;stroke-opacity:1;stroke-miterlimit:4;stroke-dasharray:none"
     d="m 14390,5728.0001 25.514,-19.3654 43.841,-59.7505 4.242,-23.3345 -1.414,-18.3848 -57.276,-120.5617 -7.778,-26.5165"
     id="path4730" />
  <path
     style="fill:none;fill-rule:evenodd;stroke:#0033cc;stroke-width:5;stroke-linecap:butt;stroke-linejoin:round;stroke-miterlimit:4;stroke-dasharray:none;stroke-opacity:1"
     d="m 13727,6270 12,24.5 12,11.5 135.5,61.5 23.5,22.5 8.5,21.5 17.5,69.5 3,31 -8,19.5 -8.919,8.6171 -9.081,3.8829 -57.25,4.25"
     id="path4868" />
  <path
     style="fill:none;fill-rule:evenodd;stroke:#f166a7;stroke-width:5;stroke-linecap:butt;stroke-linejoin:round;stroke-opacity:1;stroke-miterlimit:4;stroke-dasharray:none"
     d="m 9587.0354,7001.2259 48.7903,1.4143 53.7401,-18.7384"
     id="path5007" />
  <path
     style="fill:none;fill-rule:evenodd;stroke:#519e36;stroke-width:5;stroke-linecap:butt;stroke-linejoin:round;stroke-miterlimit:4;stroke-dasharray:none;stroke-opacity:1"
     d="m 4829,12355 127.5,39 85.5,15.5 18,11.5 10.5,16 29,59.5 3.5,14 2.5,95 5,13 41,59 46.5,76.5 12.5,14 128.5,129 40,41 58,70.5 38,14.5 30.5,28.5 2.5,8.5 v 12.5 l -10,15.5 1.5,42 5.5,55.5 11,43 4,23 v 18.5 l -31,26.5 -17,27.25"
     id="path5147" />
  <path
     style="fill:none;fill-rule:evenodd;stroke:#ff00ff;stroke-width:5;stroke-linecap:butt;stroke-linejoin:round;stroke-miterlimit:4;stroke-dasharray:none;stroke-opacity:1"
     d="m 11878.5,8221.25 26,56.25 162.25,195 24.5,18.5 76.25,45.25 99.75,85.75 52.75,25 h 12.25 l 76.75,-5.125 48.625,0.062"
     id="path5288" />
  <path
     style="fill:none;fill-rule:evenodd;stroke:#aba604;stroke-width:5;stroke-linecap:butt;stroke-linejoin:round;stroke-miterlimit:4;stroke-dasharray:none;stroke-opacity:1"
     d="m 14787.5,4116.5 v 35.5 l -7,49 3,17 7.5,13.5 150.75,158.25 45.75,41.5 11.75,13.25 6,12 3.25,15.25 12.5,58.25 -1.5,19.75 -13.5,82.5 -6.75,50.875 -26.125,118.375"
     id="path5432" />
  <path
     style="fill:none;fill-rule:evenodd;stroke:#fcc800;stroke-width:5;stroke-linecap:butt;stroke-linejoin:round;stroke-miterlimit:4;stroke-dasharray:none;stroke-opacity:1"
     d="m 11890.5,7374.5 h -23 l -62.5,-29 -18,-1.5 -20,3 -50,29.5 -102.5,13 -11,-4.5 -21,-42.5 V 7329 l 19.5,-81.5 3,-29.5 -7.5,-14 -43,-47.5 -6.5,-15.5 v -17 l 2.75,-72 -2.902,-4.9952 L 11538,7045"
     id="path5576" />
  <path
     style="fill:none;fill-rule:evenodd;stroke:#d40000;stroke-width:5;stroke-linecap:butt;stroke-linejoin:round;stroke-miterlimit:4;stroke-dasharray:none;stroke-opacity:1"
     d="m 9606.8344,8690.1505 9.8994,42.78 32.527,43.487 4.9497,45.962 8.1317,43.8406 27.2236,30.4056 12.0209,39.598 -2.4749,16.2634 -32.8805,115.612 v 10.6066 l 7.0711,10.253 6.7175,4.2427 32.8805,-0.7072"
     id="path5721" />
  <path
     style="fill:none;fill-rule:evenodd;stroke:#006000;stroke-width:5;stroke-linecap:butt;stroke-linejoin:round;stroke-opacity:1;stroke-miterlimit:4;stroke-dasharray:none"
     d="m 12418,6296.5 v -4.25 l 26.5,-65 52.5,-85.75 24.25,-11.5"
     id="path5723" />
  <path
     style="fill:none;fill-rule:evenodd;stroke:#006000;stroke-width:1px;stroke-linecap:butt;stroke-linejoin:round;stroke-opacity:1"
     d="m 12518.5,6132 37.5,-21.75 31.25,-42.75 10.75,-11.75 25.75,-16.75 8,3 2.75,-1.75 6.75,-20.25 -2,-12.75"
     id="path5725" />
  <path
     style="fill:none;fill-rule:evenodd;stroke:#006000;stroke-width:5;stroke-linecap:butt;stroke-linejoin:round;stroke-miterlimit:4;stroke-dasharray:none;stroke-opacity:1"
     d="m 12639.5,6010.25 -25.75,-47 -0.5,-6.5 22.25,-30.75 4,-8.5 14.25,-39"
     id="path5727" />
  <path
     style="fill:none;fill-rule:evenodd;stroke:#006000;stroke-width:1px;stroke-linecap:butt;stroke-linejoin:miter;stroke-opacity:1"
     d="M 12652.5,5881.5 12684,5829"
     id="path5729" />
  <path
     style="fill:none;fill-rule:evenodd;stroke:#006000;stroke-width:5;stroke-linecap:butt;stroke-linejoin:round;stroke-opacity:1;stroke-miterlimit:4;stroke-dasharray:none"
     d="m 12682.749,5830.6107 17.147,-17.6777 40.659,-71.7713"
     id="path5731" />
  <path
     style="fill:none;fill-rule:evenodd;stroke:#006000;stroke-width:1px;stroke-linecap:butt;stroke-linejoin:miter;stroke-opacity:1"
     d="m 12739.671,5743.4598 v -6.5408 l -13.081,-19.6222 0.53,-5.1265 2.121,-6.0104 10.96,-7.0711 7.791,1.4571"
     id="path5733" />
  <path
     style="fill:none;fill-rule:evenodd;stroke:#006000;stroke-width:5;stroke-linecap:butt;stroke-linejoin:round;stroke-miterlimit:4;stroke-dasharray:none;stroke-opacity:1"
     d="m 12746.742,5699.7959 31.29,33.4108 4.718,2.0433 52.25,-4.75 33.449,0.5732"
     id="path5735" />
  <path
     style="fill:none;fill-rule:evenodd;stroke:#006000;stroke-width:1px;stroke-linecap:butt;stroke-linejoin:miter;stroke-opacity:1"
     d="m 12865.359,5730.9086 199.404,9.1924 82.378,23.3345 4.596,4.2427 30.053,38.5373 13.965,8.3085 34.118,29.5217 51.088,14.3189"
     id="path5737" />
  <path
     style="fill:none;fill-rule:evenodd;stroke:#006000;stroke-width:5;stroke-linecap:butt;stroke-linejoin:miter;stroke-opacity:1;stroke-miterlimit:4;stroke-dasharray:none"
     d="m 13279.017,5857.8343 44.194,13.435"
     id="path5739" />
  <path
     style="fill:none;fill-rule:evenodd;stroke:#006000;stroke-width:1px;stroke-linecap:butt;stroke-linejoin:round;stroke-opacity:1"
     d="m 13321.443,5870.2086 6.187,5.8337 1.591,6.1872 -0.884,62.7557 3.006,7.0711 20.329,27.9307"
     id="path5741" />
  <path
     style="fill:none;fill-rule:evenodd;stroke:#006000;stroke-width:5;stroke-linecap:butt;stroke-linejoin:round;stroke-opacity:1;stroke-miterlimit:4;stroke-dasharray:none"
     d="m 13350.081,5977.3353 7.601,11.3137 4.596,3.182 12.905,1.591 41.189,30.2288"
     id="path5743" />
  <path
     style="fill:none;fill-rule:evenodd;stroke:#006000;stroke-width:1px;stroke-linecap:butt;stroke-linejoin:round;stroke-opacity:1"
     d="m 12417.761,6294.6495 1.944,4.5962 27.577,17.1473 36.239,8.6621 28.285,11.3137"
     id="path5745" />
  <path
     style="fill:none;fill-rule:evenodd;stroke:#ff00ff;stroke-width:5;stroke-linecap:butt;stroke-linejoin:round;stroke-miterlimit:4;stroke-dasharray:none;stroke-opacity:1"
     d="m 11338.25,10038.75 -37.643,52.632 2.136,79.327 96.102,141.283 23.372,28.957"
     id="path8884" />
  <path
     style="fill:none;fill-rule:evenodd;stroke:#f15a22;stroke-width:5;stroke-linecap:butt;stroke-linejoin:round;stroke-opacity:1;stroke-miterlimit:4;stroke-dasharray:none"
     d="m 7799.5,6153.5 -69,-70 -15.5,-7 -18.5,-1.5 -173,44 -205.5,-1 -303.5,-48 -109.5,-10.5 -208.5,-23.5 -100,-1 -37.5,-8.5 -64,12.5 -15,-5.5 -50,-36.5 -10.5,-2.5 -10.5,1.5 -14.5,11 -16,17"
     id="path4616" />
  <path
     style="fill:none;fill-rule:evenodd;stroke:#000000;stroke-width:5;stroke-linecap:butt;stroke-linejoin:round;stroke-opacity:1;stroke-miterlimit:4;stroke-dasharray:none"
     d="m 3949.424,13862.407 -51.4069,-32.978 -28.1283,-3.879"
     id="path5893" />
  <path
     id="path6473"
     d="m 9636.1924,12484.969 8.487,-2.304 20.7325,17.944 26.3097,19.641"
     style="fill:none;fill-rule:evenodd;stroke:#00a54f;stroke-width:1px;stroke-linecap:butt;stroke-linejoin:round;stroke-opacity:1" />
  <path
     id="path6471"
     d="m 9616.5,12078.5 -14.5,29 -13,81.5 1,44 -2.5,20 -11,26 -8.5,10 -12,44 2,4 7.5,8.5 v 10.5 l -16,25.5 0.5,14 20,22 11,18.5 10,3 18,31.5 18.3788,13.425 11.1643,0.817"
     style="fill:none;fill-rule:evenodd;stroke:#00a54f;stroke-width:5;stroke-linecap:butt;stroke-linejoin:round;stroke-miterlimit:4;stroke-dasharray:none;stroke-opacity:1" />
</svg>
