<?xml version="1.0" encoding="UTF-8" standalone="no"?>
<svg
   xmlns:dc="http://purl.org/dc/elements/1.1/"
   xmlns:cc="http://creativecommons.org/ns#"
   xmlns:rdf="http://www.w3.org/1999/02/22-rdf-syntax-ns#"
   xmlns:svg="http://www.w3.org/2000/svg"
   xmlns="http://www.w3.org/2000/svg"
   xmlns:xlink="http://www.w3.org/1999/xlink"
   version="1.1"
   id="svg2"
   width="800"
   height="2100"
   viewBox="0 0 800 2100">
  <metadata
     id="metadata8">
    <rdf:RDF>
      <cc:Work
         rdf:about="">
        <dc:format>image/svg+xml</dc:format>
        <dc:type
           rdf:resource="http://purl.org/dc/dcmitype/StillImage" />
        <dc:title></dc:title>
      </cc:Work>
    </rdf:RDF>
  </metadata>
  <defs
     id="defs6" />
  <image
     xlink:href="../streetmap/czlosm.png"
     y="75.6"
     x="175"
     id="image10"
     preserveAspectRatio="none"
     height="2174.4"
     width="543.6"
     style="display:none" />
  <path
     style="opacity:1;fill:none;fill-opacity:1;fill-rule:nonzero;stroke:#0099ee;stroke-width:5;stroke-linecap:butt;stroke-linejoin:round;stroke-miterlimit:4;stroke-dasharray:none;stroke-opacity:1"
     d="m 455.95,326.47 44.75,-37.42 176.81,-48.81"
     id="path817" />
  <path
     style="opacity:1;fill:none;fill-opacity:1;fill-rule:nonzero;stroke:#00bb00;stroke-width:5;stroke-linecap:butt;stroke-linejoin:round;stroke-miterlimit:4;stroke-dasharray:none;stroke-opacity:1"
     d="m 396.29,674.41 4.61,2.17 80.54,16 6.51,4.88 14.37,30.1 1.9,10.58 -2.17,8.68 -18.17,52.07 -1.08,15.73 5.15,27.39 -0.27,6.51 -2.98,13.56"
     id="path819" />
  <path
     style="opacity:1;fill:none;fill-opacity:1;fill-rule:nonzero;stroke:#00bb00;stroke-width:1;stroke-linecap:butt;stroke-linejoin:round;stroke-miterlimit:4;stroke-dasharray:none;stroke-opacity:1"
     d="m 396.29,674.41 -9.76,-6.51 -11.39,-4.88 -1.36,-4.88 0.81,-22.51 -2.44,-4.07 -5.97,-2.71 -7.86,2.71 -3.8,4.07 -37.97,57.49 -4.07,0.54 -29.02,-18.71 -1.9,-3.53 -0.54,-8.14 4.88,-16.81 4.88,-53.15 11.12,-19.8 12.2,-33.36 11.66,-12.47 4.34,-11.39 10.03,-7.05 8.14,-10.85"
     id="path821" />
  <path
     style="opacity:1;fill:none;fill-opacity:1;fill-rule:nonzero;stroke:#00bb00;stroke-width:1;stroke-linecap:butt;stroke-linejoin:round;stroke-miterlimit:4;stroke-dasharray:none;stroke-opacity:1"
     d="m 484.69,862.07 -3.8,23.86 0.81,11.12 13.56,33.63 11.39,13.29 7.59,12.47 4.34,25.22 5.42,20.88 1.9,5.42 8.14,11.93"
     id="path823" />
  <path
     style="opacity:1;fill:none;fill-opacity:1;fill-rule:nonzero;stroke:#00bb00;stroke-width:5;stroke-linecap:butt;stroke-linejoin:round;stroke-miterlimit:4;stroke-dasharray:none;stroke-opacity:1"
     d="m 534.05,1019.9 3.8,9.76 -0.27,22.51 -2.17,7.86 -11.39,14.37 -9.49,10.31 -2.71,8.68 1.08,30.37 -9.22,26.31 -1.63,24.68 5.15,33.36 8.68,22.78 0.33,5.38"
     id="path825" />
  <text
     style="font-style:normal;font-weight:normal;font-size:144px;font-family:Sans;-inkscape-font-specification:Sans;fill:#000000;fill-opacity:1;stroke:none"
     xml:space="preserve"
     id="text3652"
     y="206.96"
     x="89.45"><tspan
       id="tspan1"
       y="206.96"
       x="89.45">2015</tspan></text>
</svg>
