<?xml version="1.0" encoding="UTF-8" standalone="no"?>
<svg
   version="1.1"
   width="6500"
   height="6850"
   viewBox="-300 -1450 6500 6850"
   id="svg2"
   xmlns:xlink="http://www.w3.org/1999/xlink"
   xmlns="http://www.w3.org/2000/svg"
   xmlns:svg="http://www.w3.org/2000/svg"
   xmlns:rdf="http://www.w3.org/1999/02/22-rdf-syntax-ns#"
   xmlns:cc="http://creativecommons.org/ns#"
   xmlns:dc="http://purl.org/dc/elements/1.1/">
  <metadata
     id="metadata8">
    <rdf:RDF>
      <cc:Work
         rdf:about="">
        <dc:format>image/svg+xml</dc:format>
        <dc:type
           rdf:resource="http://purl.org/dc/dcmitype/StillImage" />
      </cc:Work>
    </rdf:RDF>
  </metadata>
  <defs
     id="defs6" />
  <image
     xlink:href="../basemap/madosm.png"
     style="display:none"
     x="-1559.77"
     y="-1491.72"
     width="10021.23"
     height="6937.77"
     id="image10" />
  <path
     style="fill:none;stroke:#f29f9c;stroke-width:5;stroke-linecap:butt;stroke-linejoin:round;stroke-miterlimit:4;stroke-dasharray:none;stroke-opacity:1"
     id="path4385"
     d="m 2509,2673.73 11.5,51.5 22,84.5 17,33 40,43.5 47.5,31.5 52.5,17.5 51,3 35.5,-5 65.5,-18 70,-24.5 267.5,-80 27.5,-10.5 45,-33 16.5,-29 34,-85 15.5,-26 42.5,-36.5 87,-75 196.5,-157 126.5,-102 28,-27 48,-95.5 23,-43 42,-55 49.5,-45 51,-35 79.5,-33.5 64.5,-18 344,-98.5 232,-66.5 43,-14.5 335.5,-96.5 259.5,-115 724.24,-317.43" />
  <path
     style="fill:none;stroke:#f29f9c;stroke-width:5;stroke-linecap:butt;stroke-linejoin:round;stroke-miterlimit:4;stroke-dasharray:none;stroke-opacity:1"
     id="path4310"
     d="m 2318.5,2470.23 37.5,46.5 21,19.5 32,14 30.5,16.5 34,26 23.5,38.5 12,42.5" />
  <path
     d="m 2320.5,2472.23 -25.5,-35 -9.5,-17 -16.5,-88.5 0.5,-22 9.5,-47.5 23.67,-74.51 4.66,-20.7 19,-95.19 0.43,-24.87 -4.4,-16.83 -19.84,-36.94 -4.09,-15.95 -8.68,-29.02 -10.62,-31.8 4.23,-71.09 43.95,-72.03 11.66,-31.31 9.53,-46.23 7.76,-38.07 20.07,-42.93 15.12,-33.39 3.69,-20.71 -5.47,-40.27 1.83,-17.16 14.5,-50"
     id="path3763"
     style="fill:none;stroke:#f29f9c;stroke-width:5;stroke-linecap:butt;stroke-linejoin:round;stroke-miterlimit:4;stroke-dasharray:none;stroke-opacity:1" />
  <path
     d="m 1679.9,2581.81 -37.94,6.43 -43.13,7.78 -26.16,18.38 -22.63,43.84 -23.33,52.33 -19.8,36.77 -11.31,27.58 -30.41,21.92 -49.5,20.51 -217.08,50.2 -23.33,11.31 -48.08,31.82 -48.79,38.18 -98.99,103.94 -57.98,57.28 -4.24,24.04 -5.66,23.33 -38.18,55.15 -89.8,65.05 -21.21,10.61 h -16.26 l -30.41,-4.24 -21.92,7.07 -83.44,88.39 -115.26,118.79 -37.48,32.53 -94.05,50.2 -28.28,23.33 -68.59,72.83 -21.21,17.68 -19.8,-2.12 -16.97,-16.26 -21.92,-42.43 -23.33,-24.04 -28.99,-7.78 -28.28,4.24 -35.36,16.97 -21.92,14.85"
     id="path3777"
     style="fill:none;stroke:#f29f9c;stroke-width:5;stroke-linecap:butt;stroke-linejoin:round;stroke-miterlimit:4;stroke-dasharray:none;stroke-opacity:1" />
  <path
     id="path12220"
     d="m 1485.5,2513.73 57,-42.5 98,-66.5 20,-28.5 14.5,-37 28.5,-18.5 43.5,-0.5 93.15,-10.02 18.14,-5.94 21.86,-10.85 17.7,-1.43 33.69,10.12 14.37,-3.92 71.15,-45.05 32.63,-33.12 18.81,-13.3 29.4,-15.8 34.69,-5.35 31.41,-12.34 54.02,-18.31 12.5,-8.75 9.52,-15.48"
     style="fill:none;stroke:#3666b9;stroke-width:5;stroke-linecap:butt;stroke-linejoin:round;stroke-miterlimit:4;stroke-dasharray:none;stroke-opacity:1" />
  <path
     id="path13117"
     d="m 2959.67,2565.07 -12.67,-4.18 -40.53,-21.61 -18.13,-24.02 -12.06,-24.08 -26.28,-23.45 -30,-26.5 -44.5,-22 -29.5,-9.5 -28.25,-5.22 -42.68,1.81 -22.13,-6.85 -31.74,-7.85 -14.42,-11.51 -12.4,-18.02 -15.87,-10.51 -27.53,-2.65 -6.42,-0.21"
     style="fill:none;stroke:#972497;stroke-width:5;stroke-linecap:butt;stroke-linejoin:round;stroke-miterlimit:4;stroke-dasharray:none;stroke-opacity:1" />
  <path
     id="path3884"
     d="m 2438.95,1993.8 7.55,-90.57 7,-90 10.5,-128.5 9.5,-77.5 3,-37.5 -2.33,-20.84 -11.12,-12.67 -20.55,-5.49 -60.5,7 -59.07,16.71 -19.4,-4.5 -39.47,-28.97 -66.77,-61.58 -23.72,-19.03 -6.8,-9.11 -34.8,-126.77 -6.35,-12.65 -28.19,-23.22"
     style="fill:none;stroke:#972497;stroke-width:5;stroke-linecap:butt;stroke-linejoin:round;stroke-miterlimit:4;stroke-dasharray:none;stroke-opacity:1" />
  <path
     id="path12224"
     d="m 2294.11,1876.02 1.89,-36.29 5.76,-69.12 6.78,-96.26 4.6,-105.2 3.59,-8.84 66.31,-89.46 18.43,-54.9 -7.29,-21.29 -30.18,-40.43 -4.5,-16.5 -3.5,-50.5 -35,-77 -44,-95 -4.61,-13.41"
     style="fill:none;stroke:#f466ba;stroke-width:5;stroke-linecap:butt;stroke-linejoin:round;stroke-miterlimit:4;stroke-dasharray:none;stroke-opacity:1" />
  <path
     id="path3888"
     d="m 2430.03,1993.72 18.54,0.93 20,-7.29 12.68,-9.17 45.25,-14.89 40.42,-13.07 13.58,-0.76 23,9.2 46.31,23.64 17.58,3.19 22.64,0.58 33.39,-8.49 28.11,-18.06 12.47,-6.05 17.9,-0.84 11.54,3.22 10.1,6.39 26.6,44.14 15.45,24.89 20.71,35.05 18.72,29.4 20.63,31.7 11.13,9.51 14.41,6.02 16.59,1.74 10.76,-2.28 34.99,-19.88 17.54,-2 71.02,21.21 13.01,4.16 78.97,1.09 33.35,-3.89 24.04,-5.3 16.91,-10.54 9.58,-11.24 12.93,-42.69 2.02,-10.45"
     style="fill:none;stroke:#f46d32;stroke-width:5;stroke-linecap:butt;stroke-linejoin:round;stroke-miterlimit:4;stroke-dasharray:none;stroke-opacity:1" />
  <path
     id="path12960"
     d="m 2154.86,1850.4 26.64,1.83 162,11 16.5,7 69.56,96.53 61.44,71.47 42.1,59.96 9.09,6.57 10.27,4.86 7.94,9.53 2.34,9.73 0.76,25.84 -20.5,292.5 -2.5,29 -72.41,104.68 -10.11,22.71 -1.88,15.06 -8.45,10.74 -27.76,10.41 -160.64,63.14 -26.67,8.12 -50.76,11.35 -23.58,9.54 -56.97,41.89 -41.78,21.89 -57,2 -26.49,-6.3 -37.52,-16.89 -55.99,-14.81 -56.57,-12.89 -49.43,-29.61 -59.5,-37 -27.97,-31.73 -4.82,-9.88 -13.21,-67.89"
     style="fill:none;stroke:#848a96;stroke-width:5;stroke-linecap:butt;stroke-linejoin:round;stroke-miterlimit:4;stroke-dasharray:none;stroke-opacity:1" />
  <path
     id="path9525"
     d="m 1485.5,2513.73 -71.17,66.7 -13.7,21.57 -7.15,22.03 -0.72,17.05 10.75,31.65 29,45.5 51.58,77.14"
     style="fill:none;stroke:#3666b9;stroke-width:5;stroke-linecap:butt;stroke-linejoin:round;stroke-miterlimit:4;stroke-dasharray:none;stroke-opacity:1" />
  <path
     id="path3892"
     d="m 1479.03,2778.93 17.97,27.8 13.5,9 61,6.5 14.5,-6 61.5,-45 20.5,-17 60.5,-13.5 93.5,0.5 17,-6.5 68.5,-58.5 99,-70 17.9,-14.26 16.63,-38.33 7.18,-9.63 18.38,-15.7 37.68,-13.8 33.79,-11.67 5.47,-9.04 0.95,-6.09 -4.35,-9.69 -6.84,-2.43 -11.83,0.56 -7.49,1.32 -45.22,-10.82 -4.37,-5.42 -0.74,-6.9 2.54,-10.35 32.32,-54.71 7.18,-17.98 -1.26,-29.41 -7.04,-17.08 -9.42,-10.56 -5.46,-20.47 3.57,-17.17 8.65,-11.23 10.19,-5.69 19.1,-0.38 49.98,4.47 16.37,-2.33 14.52,-8.49 8.04,-11.88 15.23,-36.88 3.57,-28.05 17.98,-34.76 17.11,-24.29 13.53,-18 11.91,-24.89 10.23,-9.39 12.5,-3.05 117,6.5 84,4 15.34,6.01 58.26,-6.85 13.41,5.62 14.8,14.71 10.29,0.14 31.9,-5.63 136.5,-23.5 14.5,-5 99.5,-65 42,-17 213.5,-77 84.25,-70.96 20.11,-15.29"
     style="fill:none;stroke:#79cb44;stroke-width:5;stroke-linecap:butt;stroke-linejoin:round;stroke-miterlimit:4;stroke-dasharray:none;stroke-opacity:1" />
  <path
     d="m 2012.64,2101.23 115.2,13.05 41.01,10.7 74.65,20.74 50.5,30 29.5,3.5 63,3 84,6.5 8,-6 10.5,-141.5 -3.61,-17.15 -37.59,-43.58 -2.01,-9.52 2.3,-32.57 5.9,-8.68 38.5,-36 74.5,-64 46,-46.5 32,-34.43 58.5,-35.07 18.5,-14.5 44.74,-26.7 27.76,-5.3 36,-7"
     id="path3894"
     style="fill:none;stroke:#984e1d;stroke-width:5;stroke-linecap:butt;stroke-linejoin:round;stroke-miterlimit:4;stroke-dasharray:none;stroke-opacity:1" />
  <path
     d="m 1969.97,2031.21 37.03,65.85 32.85,64.09 18.89,41.14 10.26,11.94 26.66,17.11 24.34,23.39 28,49.5 5.5,31 2.39,15.11 8.31,60.7 7.85,16.76 13.55,14.15 1.01,4.84 0.72,5.1 -19.55,33.58 -0.45,12.19 16.42,25.89 15.73,1.29 22.43,-7.29 36.59,4.35 8.53,3.95 5.09,6.6 -0.52,6.6 -5.41,11.72 -13.43,144.98"
     id="path3896"
     style="fill:none;stroke:#fccd19;stroke-width:5;stroke-linecap:butt;stroke-linejoin:round;stroke-miterlimit:4;stroke-dasharray:none;stroke-opacity:1" />
  <path
     d="m 2145.99,1843.23 -1.49,60.5 -0.26,144.1 -25.2,102.15 -12.03,34.75 -5.75,60.61 -4.26,10.93 -8.98,7.66 -9.28,12.99 -0.71,7.77 4.48,9.04 12,4 42.5,10 h 26 l 55.5,-19.5 50.5,-15.5 81,-15.5 40,-13.5 112,-66.5 80.5,-53.5 42,-27"
     id="path3898"
     style="fill:none;stroke:#ee262f;stroke-width:5;stroke-linecap:butt;stroke-linejoin:round;stroke-miterlimit:4;stroke-dasharray:none;stroke-opacity:1" />
  <path
     d="m 2316,1546.23 -12,15 -50,15 -12.5,13 -16.5,21 -11.5,28.5 -9,14.5 -27,31.5 -13.5,38.5 -11,86.5 -3,22.5 1.5,28.5 52,154.5 16.2,50 -1.25,6.7 -49.6,53.05 0.3,5.09 15.85,48.17 0.43,43.86 -11.44,41.65 -19.09,47.78 -1.4,23.7 -3.35,13.54 -18.18,11.36 -1.52,10.66 4.91,7.58 58.39,1.85 20.68,1.62 48.82,30.04 22.67,16.26 24.07,18.59 25.84,24.37 61.66,24.63 41.5,21.5 142,99 115.5,77 27.5,4.5 68.13,8.97 12.68,3.79 88.85,48.94 8.18,4.58"
     id="path3900"
     style="fill:none;stroke:#51c7f4;stroke-width:5;stroke-linecap:butt;stroke-linejoin:round;stroke-miterlimit:4;stroke-dasharray:none;stroke-opacity:1" />
  <text
     x="-210.55"
     y="-1243.04"
     id="text3914"
     xml:space="preserve"
     style="font-style:normal;font-weight:normal;font-size:144px;line-height:125%;font-family:Sans;-inkscape-font-specification:Sans;letter-spacing:0px;word-spacing:0px;fill:#000000;fill-opacity:1;stroke:none"><tspan
       x="-210.55"
       y="-1243.04"
       id="tspan1">1985</tspan></text>
  <text
     x="-210.55"
     y="5297.96"
     id="text3914-4"
     xml:space="preserve"
     style="font-style:normal;font-weight:normal;font-size:144px;line-height:125%;font-family:Sans;-inkscape-font-specification:Sans;letter-spacing:0px;word-spacing:0px;fill:#000000;fill-opacity:1;stroke:none"><tspan
       x="-210.55"
       y="5297.96"
       id="tspan2">1985</tspan></text>
  <path
     d="m 2082.5,2293.74 -12.53,-0.11 -13.56,-6.77 -34.26,-23.86 -11.41,-4.49 -42.39,0.85 -11.53,-5.32"
     id="path3939"
     style="fill:none;stroke:#231f20;stroke-width:5;stroke-linecap:butt;stroke-linejoin:round;stroke-miterlimit:4;stroke-dasharray:none;stroke-opacity:1" />
</svg>
