<?xml version="1.0" encoding="UTF-8" standalone="no"?>
<svg
   version="1.1"
   id="svg2"
   width="2300"
   height="1450"
   viewBox="-250 -100 2300 1450"
   xmlns:xlink="http://www.w3.org/1999/xlink"
   xmlns="http://www.w3.org/2000/svg"
   xmlns:svg="http://www.w3.org/2000/svg"
   xmlns:rdf="http://www.w3.org/1999/02/22-rdf-syntax-ns#"
   xmlns:cc="http://creativecommons.org/ns#"
   xmlns:dc="http://purl.org/dc/elements/1.1/">
  <metadata
     id="metadata8">
    <rdf:RDF>
      <cc:Work
         rdf:about="">
        <dc:format>image/svg+xml</dc:format>
        <dc:type
           rdf:resource="http://purl.org/dc/dcmitype/StillImage" />
      </cc:Work>
    </rdf:RDF>
  </metadata>
  <defs
     id="defs6" />
  <image
     xlink:href="../basemap/bakosm.png"
     y="165"
     x="0"
     id="image10"
     preserveAspectRatio="none"
     height="1285"
     width="2056"
     style="display:none" />
  <path
     style="opacity:1;fill:none;fill-opacity:0.02;fill-rule:nonzero;stroke:#00ac5b;stroke-width:5;stroke-linecap:butt;stroke-linejoin:round;stroke-miterlimit:4;stroke-dasharray:none;stroke-opacity:1"
     d="m 628.51,230.33 -13.11,-0.3 -97.44,6.4 -98.31,16.95 -43.81,5.88 -11.6,7.12 -9.29,13.23 -20.73,41.57 -33.22,66.44 -22.37,79.32 -14.92,35.93 -31.86,44.75 -24.41,17.63 -41.6,24.72 -23.77,25.46 -22.2,56.6 -0.88,36.49 7.46,48.77 36.94,94.61 35.76,100.78 10.92,19.51 21.51,20.71 19.94,12.01 20.01,10.06 26.01,-1.96 43.51,-26.65 24.38,-8.78 42.99,-9.93 60.89,-20.59 20.39,-3.04 94.02,7.65 59.14,16.98 23.82,2.49 11.75,-1.8 5.72,-7.81 1.49,-13.7 -41.97,-126.84 -22.78,-66.11 -0.24,-28.9 6.44,-41.87 15.89,-20.76 35.53,-22.38 29.97,-14.11 133.64,-41.9 27.47,-0.02 38.46,9 24.4,-4.15 102.82,-65.6 36.49,-43.42 65.93,-66.48 12.18,-8.21 98.43,-21.09 50.91,-18.4 68.09,-0.49 16.94,-3.6 84.5,-46.52 36.34,-7.71 226.89,60.31 9.4,6.24 175.91,319.21 2.71,12.88 -1.36,250.17 -4.75,94.92"
     id="path4506" />
  <path
     id="path4508"
     d="m 1909.15,1051.36 4.41,-94.24 1.36,-250.17 -2.03,-11.53 -175.53,-317.43 -7.23,-4.7 -226.05,-60.58 -33.7,7.8 -84.7,46.65 -18.04,4.06 -66.15,-0.16 -52.05,18.69 -97.78,21.03 -11.01,7.59 -65.59,66.21 -36.81,43.44 -103.89,66.47 -26.77,4.57 -38.33,-9.02 -26.18,-0.14 -132.79,41.54 -28.89,13.58 -34.3,21.21 -15.26,19.46 -6.17,41.37 0.38,27.94 21.67,62.46 42.61,129.24 -1.08,14.71 -6.36,29.95 -26.6,49.28 -17.28,20.29 -20.19,10.65 -83.25,32.34 -30.17,15.53 -15.08,16.28 -5.24,23.43"
     style="opacity:1;fill:none;fill-opacity:0.02;fill-rule:nonzero;stroke:#ed1c24;stroke-width:5;stroke-linecap:butt;stroke-linejoin:round;stroke-miterlimit:4;stroke-dasharray:none;stroke-opacity:1" />
  <path
     style="opacity:1;fill:none;fill-opacity:0.02;fill-rule:nonzero;stroke:#0089b6;stroke-width:5;stroke-linecap:butt;stroke-linejoin:round;stroke-miterlimit:4;stroke-dasharray:none;stroke-opacity:1"
     d="m 450.63,1265.19 52.73,-25.65"
     id="path4510" />
  <path
     style="opacity:1;fill:none;fill-opacity:0.02;fill-rule:nonzero;stroke:#9ccb3c;stroke-width:5;stroke-linecap:butt;stroke-linejoin:round;stroke-miterlimit:4;stroke-dasharray:none;stroke-opacity:1"
     d="m 681.08,949.12 -5.26,-15.14 2.69,-7.66 9.63,-5.94 12.34,-2.97 30.03,-3.59 139.99,-6.86 97.7,-19.63"
     id="path4512" />
  <text
     x="-160.55"
     y="106.96"
     id="text2992"
     xml:space="preserve"
     style="font-style:normal;font-weight:normal;font-size:144px;line-height:125%;font-family:Sans;-inkscape-font-specification:Sans;letter-spacing:0px;word-spacing:0px;fill:#000000;fill-opacity:1;stroke:none"><tspan
       x="-160.55"
       y="106.96"
       id="tspan1">2010</tspan></text>
</svg>
