<?xml version="1.0" encoding="UTF-8" standalone="no"?>
<svg
   xmlns:dc="http://purl.org/dc/elements/1.1/"
   xmlns:cc="http://creativecommons.org/ns#"
   xmlns:rdf="http://www.w3.org/1999/02/22-rdf-syntax-ns#"
   xmlns:svg="http://www.w3.org/2000/svg"
   xmlns="http://www.w3.org/2000/svg"
   xmlns:xlink="http://www.w3.org/1999/xlink"
   viewBox="0 0 2056 1350"
   height="1350"
   width="2056"
   id="svg2"
   version="1.1">
  <metadata
     id="metadata8">
    <rdf:RDF>
      <cc:Work
         rdf:about="">
        <dc:format>image/svg+xml</dc:format>
        <dc:type
           rdf:resource="http://purl.org/dc/dcmitype/StillImage" />
        <dc:title></dc:title>
      </cc:Work>
    </rdf:RDF>
  </metadata>
  <defs
     id="defs6" />
  <image
     style="display:none"
     y="165"
     x="0"
     id="image10"
     xlink:href="file:///home/alexander/timelines/timelines/streetmap/../streetmap/bakosm.png"
     preserveAspectRatio="none"
     height="1285"
     width="2056" />
  <path
     id="path4506"
     d="m 832.54237,235.76271 -217.62711,-8.13559 -96.94916,8.81356 -98.30508,16.94915 -49.49153,7.45763 -11.52542,6.77966 -4.74576,10.84745 -19.66102,42.71187 -33.22034,66.44068 -22.37288,79.32203 -14.91526,35.9322 -31.8644,44.74577 -24.40678,17.62712 -65.76271,111.8644 -4.0678,12.88136 18.30508,161.35593 8.81356,60.33898 18.30509,24.40678 33.8983,62.37291 20.33899,15.5932 70.50847,-7.4576 33.89831,-6.1017 52.20338,-9.4915 65.08475,-41.35598 21.01695,-6.1017 103.72881,8.13558 73.89831,23.0509 7.45763,1.3559 24.40678,-10.1695 4.06779,-10.8475 -46.10169,-128.81351 -18.98305,-59.66102 6.77965,-78.64407 18.98305,-43.38983 26.44069,-14.91525 19.66101,-4.40679 95.59322,-19.99999 130.84746,-6.77967 129.49154,-86.77966 109.4916,-107.45763 95.2542,-20.67796 53.5593,-23.72881 74.5762,-48.1356 115.9322,-3.38983 231.8645,63.05085 180.3389,322.71187 2.7119,12.88135 -1.3559,250.16945 -4.7458,94.9153"
     style="opacity:1;fill:none;fill-opacity:0.01568627;fill-rule:nonzero;stroke:#00ac5b;stroke-width:5;stroke-linecap:butt;stroke-linejoin:round;stroke-miterlimit:4;stroke-dasharray:none;stroke-opacity:1" />
  <path
     style="opacity:1;fill:none;fill-opacity:0.01568627;fill-rule:nonzero;stroke:#ed1c24;stroke-width:5;stroke-linecap:butt;stroke-linejoin:round;stroke-miterlimit:4;stroke-dasharray:none;stroke-opacity:1"
     d="m 1909.1525,1051.3559 4.4069,-94.2373 1.3559,-250.16945 -2.034,-11.52542 -178.9829,-320.33899 -229.8306,-62.37288 -113.2204,3.38983 -73.8982,48.1356 -55.2542,24.40678 -94.2373,20.33898 L 1057.6271,516.77966 929.15254,602.54237 797.28813,610 l -97.62712,20 -17.96609,4.40678 -24.06781,13.8983 -17.62712,41.01695 -6.44066,76.94916 17.9661,56.94915 46.77965,131.86436 -2.37287,17.6272 -25.76271,63.0508 -6.1017,9.1526 -44.0678,24.4067 -84.40678,33.2204 -28.47457,14.9152 -16.27119,12.8814 -5.76271,28.8135"
     id="path4508" />
  <path
     id="path4510"
     d="m 450.63076,1265.1934 52.73339,-25.6476"
     style="opacity:1;fill:none;fill-opacity:0.01568627;fill-rule:nonzero;stroke:#0089b6;stroke-width:5;stroke-linecap:butt;stroke-linejoin:round;stroke-miterlimit:4;stroke-dasharray:none;stroke-opacity:1" />
  <path
     id="path4512"
     d="m 685.64226,947.8398 -4.15469,-11.62332 4.3571,-9.67652 8.01214,-3.8308 26.64839,-0.97226 150.00328,-14.78775 97.9661,-15.9322"
     style="opacity:1;fill:none;fill-opacity:0.01568627;fill-rule:nonzero;stroke:#9ccb3c;stroke-width:5;stroke-linecap:butt;stroke-linejoin:round;stroke-miterlimit:4;stroke-dasharray:none;stroke-opacity:1" />
  <text
     style="font-style:normal;font-weight:normal;font-size:143.99993896px;line-height:125%;font-family:Sans;-inkscape-font-specification:Sans;letter-spacing:0px;word-spacing:0px;fill:#000000;fill-opacity:1;stroke:none"
     xml:space="preserve"
     id="text2992"
     y="206.96094"
     x="89.453125"><tspan
       id="tspan1"
       y="206.96094"
       x="89.453125">2015</tspan></text>
</svg>
