<?xml version="1.0" encoding="UTF-8" standalone="no"?>
<svg
   xmlns:dc="http://purl.org/dc/elements/1.1/"
   xmlns:cc="http://creativecommons.org/ns#"
   xmlns:rdf="http://www.w3.org/1999/02/22-rdf-syntax-ns#"
   xmlns:svg="http://www.w3.org/2000/svg"
   xmlns="http://www.w3.org/2000/svg"
   xmlns:xlink="http://www.w3.org/1999/xlink"
   version="1.1"
   id="svg2"
   width="1850"
   height="1700"
   viewBox="0 0 1850 1700">
  <metadata
     id="metadata8">
    <rdf:RDF>
      <cc:Work
         rdf:about="">
        <dc:format>image/svg+xml</dc:format>
        <dc:type
           rdf:resource="http://purl.org/dc/dcmitype/StillImage" />
        <dc:title></dc:title>
      </cc:Work>
    </rdf:RDF>
  </metadata>
  <defs
     id="defs6" />
  <image
     style="display:none"
     width="2241"
     height="1920.86"
     preserveAspectRatio="none"
     xlink:href="file:///home/lexande/timelines/timelines/streetmap/../streetmap/sdqosm.png"
     id="image10"
     x="-100"
     y="-135.86" />
  <path
     style="opacity:1;fill:none;fill-opacity:1;fill-rule:nonzero;stroke:#ff0000;stroke-width:5;stroke-linecap:butt;stroke-linejoin:round;stroke-miterlimit:4;stroke-dasharray:none;stroke-opacity:1"
     d="m 105.95,1160.83 183.51,-39.12 33.94,-6.33 119.66,-9.78 66.16,-23.01 23.01,-3.45 74.79,16.11 288.79,20.13 94.92,1.15 20.71,-5.18 18.98,-14.96 13.23,-25.89 -0.58,-62.13 5.75,-16.11 12.66,-17.83 284.76,-212.85 88.56,-66.93 24.19,-15.92 13.69,-5.73 185.92,6.69 21.01,7.0 10.51,12.42 35.02,53.8"
     id="path836" />
  <path
     style="opacity:1;fill:none;fill-opacity:1;fill-rule:nonzero;stroke:#0000c0;stroke-width:5;stroke-linecap:butt;stroke-linejoin:round;stroke-miterlimit:4;stroke-dasharray:none;stroke-opacity:1"
     d="m 1090.24,104.63 11.51,27.61 3.45,14.96 -8.45,12.72 -10.17,5.69 -21.56,4.47 -11.39,9.76 -15.46,54.1 -29.29,48 -0.81,21.15 -2.03,36.61 -6.1,18.31 -27.25,34.98 -20.75,8.95 -63.86,17.49 -9.76,7.32 -21.56,43.93 2.44,21.97 10.17,13.83 17.9,21.97 2.44,13.02 -13.02,184.68 27.66,429.56 44.75,189.97 22.78,46.37 1.22,7.73 -1.63,4.47 -6.1,8.14 -242.44,117.15 -32.14,20.34 -1.22,3.25 1.63,8.14 21.56,30.51"
     id="path838" />
  <text
     x="89.45"
     y="206.96"
     id="text3784"
     xml:space="preserve"
     style="font-style:normal;font-weight:normal;font-size:144.0px;line-height:125%;font-family:Sans;-inkscape-font-specification:Sans;letter-spacing:0px;word-spacing:0px;fill:#000000;fill-opacity:1;stroke:none"><tspan
       x="89.45"
       y="206.96"
       id="tspan1">2020</tspan></text>
  <path
     id="path817"
     d="m 1349.48,755.46 20.06,-196.42 226.35,-190.05 92.32,-205.97"
     style="opacity:1;fill:none;fill-opacity:0.08;fill-rule:nonzero;stroke:#000000;stroke-width:5;stroke-linecap:butt;stroke-linejoin:round;stroke-miterlimit:4;stroke-dasharray:none;stroke-opacity:1" />
</svg>
