<?xml version="1.0" encoding="UTF-8" standalone="no"?>
<svg
   xmlns:dc="http://purl.org/dc/elements/1.1/"
   xmlns:cc="http://creativecommons.org/ns#"
   xmlns:rdf="http://www.w3.org/1999/02/22-rdf-syntax-ns#"
   xmlns:svg="http://www.w3.org/2000/svg"
   xmlns="http://www.w3.org/2000/svg"
   xmlns:xlink="http://www.w3.org/1999/xlink"
   viewBox="-50 -50 2650 4150"
   height="4150"
   width="2650"
   version="1.1"
   id="svg2">
  <metadata
     id="metadata8">
    <rdf:RDF>
      <cc:Work
         rdf:about="">
        <dc:format>image/svg+xml</dc:format>
        <dc:type
           rdf:resource="http://purl.org/dc/dcmitype/StillImage" />
        <dc:title></dc:title>
      </cc:Work>
    </rdf:RDF>
  </metadata>
  <defs
     id="defs6" />
  <image
     xlink:href="../streetmap/manosm.png"
     width="2409"
     height="4015.0002"
     preserveAspectRatio="none"
     id="image10"
     x="50"
     y="34.999878"
     style="display:none" />
  <text
     id="text4227"
     y="3970.4121"
     x="78.573044"
     style="font-style:normal;font-weight:normal;font-size:139.69715881px;line-height:125%;font-family:Sans;-inkscape-font-specification:Sans;letter-spacing:0px;word-spacing:0px;fill:#000000;fill-opacity:1;stroke:#e9b600;stroke-width:1.00012314;stroke-linecap:butt;stroke-linejoin:round;stroke-miterlimit:4;stroke-dasharray:none;stroke-opacity:1"
     xml:space="preserve" />
  <text
     x="39.453144"
     y="156.96092"
     id="text2997"
     xml:space="preserve"
     style="font-style:normal;font-weight:normal;font-size:143.99989319px;line-height:125%;font-family:Sans;-inkscape-font-specification:Sans;letter-spacing:0px;word-spacing:0px;fill:#000000;fill-opacity:1;stroke:none"><tspan
       x="39.453144"
       y="156.96092"
       id="tspan1">1925</tspan></text>
  <path
     style="fill:none;fill-rule:evenodd;stroke:#7b2181;stroke-width:5;stroke-linecap:butt;stroke-linejoin:round;stroke-miterlimit:4;stroke-dasharray:none;stroke-opacity:1"
     d="m 516.2535,423.3905 -84.415,158.6197 -15.5219,28.7156 -13.5816,34.1481 -4.6566,32.9841 -3.8805,32.9841 -4.6566,19.4023 -8.537,24.059 -6.9849,13.1936 -23.2828,35.7004 -18.6263,28.3275 -9.3132,29.8797 -1.1641,24.835 6.2088,25.9992 11.2533,21.3426 15.5219,25.2231 17.4622,18.6263 26.3872,20.1785 18.6263,11.2534 65.5801,26.7753 75.6693,32.2079 12.0295,10.4773 15.9099,16.6861 13.1936,23.6709 43.8494,92.3553 5.4327,16.298 3.4924,22.1187 2.3283,39.1928 5.4327,20.1785 11.6414,24.059 13.9697,17.0741 19.7904,14.7458 22.8949,11.2534 21.7306,5.8207 29.1036,0.7761 26.3872,2.7163 34.5363,12.4175 51.9984,22.1188 37.2526,21.7307 36.0884,28.7156 37.2526,22.5067 17.8501,14.3578 12.0295,18.2382 10.8654,22.1188 17.8502,67.1322 7.7609,29.1036 11.2534,22.1187 13.1936,17.8502 10.8653,9.7012 15.1339,15.1338 9.7012,19.0144 13.9697,30.6557 17.0741,24.447 11.6414,14.7459 10.4773,22.8948 4.039,13.1626 -2.9834,23.3109 -12.029,30.7799 -15.2836,32.3419 -8.4754,16.3093 -12.967,15.4256 -15.1178,12.2501 -22.2035,15.8746 -12.4786,14.9394 -9.753,23.4735 -13.8185,13.2301 -22.9965,10.0949"
     id="path4142" />
</svg>
