<?xml version="1.0" encoding="UTF-8" standalone="no"?>
<svg
   xmlns:dc="http://purl.org/dc/elements/1.1/"
   xmlns:cc="http://creativecommons.org/ns#"
   xmlns:rdf="http://www.w3.org/1999/02/22-rdf-syntax-ns#"
   xmlns:svg="http://www.w3.org/2000/svg"
   xmlns="http://www.w3.org/2000/svg"
   xmlns:xlink="http://www.w3.org/1999/xlink"
   viewBox="-50 -50 2650 4100"
   height="4100"
   width="2650"
   version="1.1"
   id="svg2">
  <metadata
     id="metadata8">
    <rdf:RDF>
      <cc:Work
         rdf:about="">
        <dc:format>image/svg+xml</dc:format>
        <dc:type
           rdf:resource="http://purl.org/dc/dcmitype/StillImage" />
        <dc:title></dc:title>
      </cc:Work>
    </rdf:RDF>
  </metadata>
  <defs
     id="defs6" />
  <image
     xlink:href="../streetmap/manosm.png"
     width="2409"
     height="4015.0002"
     preserveAspectRatio="none"
     id="image10"
     x="50"
     y="34.999878"
     style="display:none" />
  <path
     id="path4138"
     d="m 82.207957,3585.895 24.835053,-73.7291 11.25338,-42.2972 9.31315,-50.4462 8.92509,-33.7601 19.79043,-43.0733 34.1482,-58.5952 86.53463,-150.1745 35.70039,-61.3115 17.0741,-31.0438 22.50676,-35.3124 17.8502,-24.0589 30.26772,-33.7602 10.08924,-16.686 13.19362,-27.1634 7.76095,-25.2231 5.82072,-35.3123 20.17847,-102.8326 7.76096,-24.059 10.47729,-21.3426 19.40238,-28.3275 19.40238,-22.1187 22.11872,-14.3578 26.38724,-14.3577 26.77529,-18.2383 25.2231,-21.3426 27.93944,-29.8797 23.6709,-32.984 32.01903,-44.4365 16.64435,-16.16 21.68943,-18.1569 26.42005,-17.5189 11.49482,-14.4654 8.01541,-20.994 -0.78832,-15.323 2.47173,-12.4329 12.41752,-13.9697 11.25339,-15.91 11.64143,-13.9697 5.43267,-10.0892 10.86533,-17.4622 10.47729,-11.2534 19.79043,-11.2534 16.298,-7.3729 18.62629,-8.537 12.45406,-3.0548 18.68115,0.9596 17.99246,10.1934 6.82438,2.0913 8.01583,1.6032 71.87601,4.7957 14.7186,0.8737 17.8502,-4.6565 86.5346,-31.8199 17.8502,-4.6566"
     style="fill:none;fill-rule:evenodd;stroke:#7b2181;stroke-width:5;stroke-linecap:butt;stroke-linejoin:round;stroke-miterlimit:4;stroke-dasharray:none;stroke-opacity:1" />
  <text
     id="text4227"
     y="3970.4121"
     x="78.573044"
     style="font-style:normal;font-weight:normal;font-size:139.69715881px;line-height:125%;font-family:Sans;-inkscape-font-specification:Sans;letter-spacing:0px;word-spacing:0px;fill:#000000;fill-opacity:1;stroke:#e9b600;stroke-width:1.00012314;stroke-linecap:butt;stroke-linejoin:round;stroke-miterlimit:4;stroke-dasharray:none;stroke-opacity:1"
     xml:space="preserve" />
  <text
     x="39.453144"
     y="156.96092"
     id="text2997"
     xml:space="preserve"
     style="font-style:normal;font-weight:normal;font-size:143.99989319px;line-height:125%;font-family:Sans;-inkscape-font-specification:Sans;letter-spacing:0px;word-spacing:0px;fill:#000000;fill-opacity:1;stroke:none"><tspan
       x="39.453144"
       y="156.96092"
       id="tspan1">1935</tspan></text>
  <text
     x="39.45314"
     y="3947.9604"
     id="text2997-3"
     xml:space="preserve"
     style="font-style:normal;font-weight:normal;font-size:143.99989319px;line-height:125%;font-family:Sans;-inkscape-font-specification:Sans;letter-spacing:0px;word-spacing:0px;fill:#000000;fill-opacity:1;stroke:none"><tspan
       x="39.45314"
       y="3947.9604"
       id="tspan2">1935</tspan></text>
</svg>
