<?xml version="1.0" encoding="UTF-8" standalone="no"?>
<svg
   xmlns:dc="http://purl.org/dc/elements/1.1/"
   xmlns:cc="http://creativecommons.org/ns#"
   xmlns:rdf="http://www.w3.org/1999/02/22-rdf-syntax-ns#"
   xmlns:svg="http://www.w3.org/2000/svg"
   xmlns="http://www.w3.org/2000/svg"
   xmlns:xlink="http://www.w3.org/1999/xlink"
   viewBox="0 0 3200 5200"
   height="5200"
   width="3200"
   version="1.1"
   id="svg2">
  <metadata
     id="metadata8">
    <rdf:RDF>
      <cc:Work
         rdf:about="">
        <dc:format>image/svg+xml</dc:format>
        <dc:type
           rdf:resource="http://purl.org/dc/dcmitype/StillImage" />
        <dc:title></dc:title>
      </cc:Work>
    </rdf:RDF>
  </metadata>
  <defs
     id="defs6" />
  <image
     y="26.666504"
     x="50"
     id="image10"
     xlink:href="file:///home/alexander/timelines/timelines/streetmap/../streetmap/manosm.png"
     preserveAspectRatio="none"
     height="5173.3335"
     width="3104"
     style="display:none" />
  <path
     id="path4138"
     d="m 91.5,4602 32,-95 14.5,-54.5 12,-65 11.5,-43.5 25.5,-55.5 44,-75.5 111.5,-193.5 46,-79 22,-40 29,-45.5 23,-31 39,-43.5 13,-21.5 17,-35 10,-32.5 7.5,-45.5 26,-132.5 10,-31 13.5,-27.5 25,-36.5 25,-28.5 28.5,-18.5 34,-18.5 34.5,-23.5 32.5,-27.5 36,-38.5 30.5,-42.5 38.3035,-61.2383 14.77012,-15.0488 25.48358,-21.8278 42.32786,-26.8279 14.1393,-17.295 10.32786,-24.8115 0.32786,-20.6393 6.31992,-17.8114 16,-18 14.5,-20.5 15,-18 7,-13 14,-22.5 13.5,-14.5 25.5,-14.5 21,-9.5 24,-11 26.5,-6.5 23.5,3 36,6 21.5,1 31,-25.5 8,-11"
     style="fill:none;fill-rule:evenodd;stroke:#f15921;stroke-width:5;stroke-linecap:butt;stroke-linejoin:round;stroke-miterlimit:4;stroke-dasharray:none;stroke-opacity:1" />
  <path
     id="path4142"
     d="m 685,578 -19,43 -9.5,10 -35.5,14.5 -14.5,12 -20,24 -44.5,51.5 -20,37 -17.5,44 -6,42.5 -5,42.5 -6,25 -11,31 -9,17 -30,46 -24,36.5 -12,38.5 -1.5,32 8,33.5 14.5,27.5 20,32.5 22.5,24 34,26 24,14.5 84.5,34.5 97.5,41.5 15.5,13.5 20.5,21.5 17,30.5 56.5,119 7,21 4.5,28.5 3,50.5 7,26 15,31 18,22 25.5,19 29.5,14.5 28,7.5 37.5,1 34,3.5 44.5,16 67,28.5 48,28 46.5,37 48,29 23,18.5 15.5,23.5 14,28.5 23,86.5 10,37.5 14.5,28.5 17,23 14,12.5 19.5,19.5 12.5,24.5 18,39.5 22,31.5 15,19 13.5,29.5 11.5,32 1.0525,28.9869 -0.8091,66.5918 6.5394,26.2828 -2.5262,26.9606 -9.0132,19.5263 -17.7303,15.4344 -23.0131,7.5131 -33.2172,8.7566 L 1378.5,2588 l -25.5,12.5 -16,21 -3.5,6 2,4 6.3841,14.0767"
     style="fill:none;fill-rule:evenodd;stroke:#f15921;stroke-width:5;stroke-linecap:butt;stroke-linejoin:round;stroke-miterlimit:4;stroke-dasharray:none;stroke-opacity:1" />
  <path
     id="path4187"
     d="m 1345.8108,2641.7238 0.8521,7.9728 15.2151,7.1815 5.5992,8.4596 7.1206,13.2067 0.061,11.0158 -10.2854,35.1166 1.7041,6.0861 14.3631,7.1207 4.2234,1.7384 0.3536,4.5961 -5.3033,7.0711 0.3536,5.6571 18.4497,15.7509 7.7351,3.4605 23.1726,28.7305 15.097,7.6074 7.1422,13.2636 17.8894,6.0645 9.0504,-0.669"
     style="fill:none;fill-rule:evenodd;stroke:#00ab4d;stroke-width:1px;stroke-linecap:butt;stroke-linejoin:round;stroke-opacity:1" />
  <path
     id="path4221"
     d="m 1498.5,2843.5 -23,6 -111.5,41 -23,6 -18.965,-1.1258 -92.6123,-6.1793 -10.3284,-2.0657"
     style="fill:none;fill-rule:evenodd;stroke:#4a62ad;stroke-width:5;stroke-linecap:butt;stroke-linejoin:round;stroke-opacity:1;stroke-miterlimit:4;stroke-dasharray:none" />
  <path
     id="path4223"
     d="m 1334.5,2607 -32.5,19 -91.5,55.5 -23,25 -20.5,14 -36,22 -30.5,8.5 -47,1 -40.5,-11 -37,-14.5 -22.5,-18 -11,-20.5 -7,-53"
     style="fill:none;fill-rule:evenodd;stroke:#4a62ad;stroke-width:5;stroke-linecap:butt;stroke-linejoin:round;stroke-miterlimit:4;stroke-dasharray:none;stroke-opacity:1" />
  <text
     id="text4227"
     y="5097.4512"
     x="86.816406"
     style="font-style:normal;font-weight:normal;font-size:180px;line-height:125%;font-family:Sans;-inkscape-font-specification:Sans;letter-spacing:0px;word-spacing:0px;fill:#000000;fill-opacity:1;stroke:none;stroke-width:1px;stroke-linecap:butt;stroke-linejoin:round;stroke-opacity:1"
     xml:space="preserve" />
  <text
     x="89.45314"
     y="206.96092"
     id="text2997"
     xml:space="preserve"
     style="font-style:normal;font-weight:normal;font-size:143.99989319px;line-height:125%;font-family:Sans;-inkscape-font-specification:Sans;letter-spacing:0px;word-spacing:0px;fill:#000000;fill-opacity:1;stroke:none"><tspan
       x="89.45314"
       y="206.96092"
       id="tspan1">1995</tspan></text>
  <text
     x="89.45314"
     y="5097.9604"
     id="text2997-3"
     xml:space="preserve"
     style="font-style:normal;font-weight:normal;font-size:143.99989319px;line-height:125%;font-family:Sans;-inkscape-font-specification:Sans;letter-spacing:0px;word-spacing:0px;fill:#000000;fill-opacity:1;stroke:none"><tspan
       x="89.45314"
       y="5097.9604"
       id="tspan2">1995</tspan></text>
  <path
     style="fill:none;fill-rule:evenodd;stroke:#f15921;stroke-width:1px;stroke-linecap:butt;stroke-linejoin:round;stroke-opacity:1"
     d="m 1292.3866,2843.5666 20.8597,-26.87 57.4848,-63.7164 9.3368,-9.8227 -0.3536,-4.5962 -14.4957,-7.0711 -1.7678,-7.071 10.2531,-35.0018 v -10.6066 l -6.7175,-12.3744 -5.6569,-8.8388 -15.2028,-7.0711 -5.2772,-6.9582"
     id="path4563" />
  <path
     style="fill:none;fill-rule:evenodd;stroke:#00ab4d;stroke-width:5;stroke-linecap:butt;stroke-linejoin:round;stroke-miterlimit:4;stroke-dasharray:none;stroke-opacity:1"
     d="m 689.58364,580.10745 -19.48688,43.73032 -10.71722,10.48689 -35.98688,15.47377 -14.25656,11.26967 -19.51311,23.75656 -43.52623,51.25656 -19.51312,35.78278 -17.5,43.26968 -6,38.84836 -5,42.5 -5.75656,27.67787 -11,31.73032 -8.51311,16.26968 -30.73033,46.24339 -24,38.2041 -11.75656,36.0656 -1.74344,29.809 8,33.5 14.5,27.5 20,32.5 22.5,24 34,26 24,14.5 84.5,34.5 97.5,41.5 15.5,13.5 20.5,21.5 17,30.5 56.5,119 7,21 4.5,28.5 3,50.5 7,26 15,31 18,22 25.5,19 25.88506,12.7786 28,6.9836 38.3607,0.8278 32.6229,3.5 48.6314,18.41 67,28.5 48,28 46.5,37 48,29 23,18.5 15.5,23.5 14,28.5 23,86.5 10,37.5 14.5,28.5 17,23 14,12.5 19.5,19.5 12.5,24.5 18,39.5 22,31.5 15,19 13.5,29.5 11.5,32 1.0525,28.9869 -0.228,9.5836 -0.2959,60.3376 6.8581,24.7894 -3.4672,28.827 -9.9221,21.3639 -18.686,16.8097 -54.8336,15.5681 -62.3977,26.6734 -27.0674,13.4947 -13.146,16.9192 -4.0168,6.3295 7.5468,16.0672"
     id="path4530" />
  <path
     id="path4563-3"
     d="m 1370.7315,2752.98 5.3547,-0.3783 23.0737,19.1935 7.778,3.5356 23.3345,28.9914 14.9276,7.4959 6.9927,13.0102 17.3242,6.0104 9.0084,-0.621"
     style="fill:none;fill-rule:evenodd;stroke:#f15921;stroke-width:1px;stroke-linecap:butt;stroke-linejoin:round;stroke-opacity:1" />
</svg>
