<?xml version="1.0" encoding="UTF-8" standalone="no"?>
<svg
   xmlns:dc="http://purl.org/dc/elements/1.1/"
   xmlns:cc="http://creativecommons.org/ns#"
   xmlns:rdf="http://www.w3.org/1999/02/22-rdf-syntax-ns#"
   xmlns:svg="http://www.w3.org/2000/svg"
   xmlns="http://www.w3.org/2000/svg"
   xmlns:xlink="http://www.w3.org/1999/xlink"
   viewBox="0 -200 1900 3750"
   height="3750"
   width="1900"
   id="svg2"
   version="1.1">
  <metadata
     id="metadata8">
    <rdf:RDF>
      <cc:Work
         rdf:about="">
        <dc:format>image/svg+xml</dc:format>
        <dc:type
           rdf:resource="http://purl.org/dc/dcmitype/StillImage" />
        <dc:title></dc:title>
      </cc:Work>
    </rdf:RDF>
  </metadata>
  <defs
     id="defs6" />
  <image
     xlink:href="../basemap/khhosm.png"
     width="2181"
     height="3738.86"
     preserveAspectRatio="none"
     id="image10"
     x="-125"
     y="-138.86"
     style="display:none" />
  <path
     id="path817"
     d="m 114.5,2536.5 88,48.5 14,1 12.5,-2.5 9,-10 39.5,-80.5 8.5,-8 19.5,-5.5 32.5,-16 184.5,-66.5 364.5,29 207,75 182,-21 49,-2 82,19 45.5,27.5 12,-0.5 178,-84.5 17,-2 21,3 14.5,11 37.5,38.5 26.5,25 27,35.5"
     style="opacity:1;fill:none;fill-opacity:1;fill-rule:nonzero;stroke:#f89828;stroke-width:5;stroke-linecap:butt;stroke-linejoin:round;stroke-miterlimit:4;stroke-dasharray:none;stroke-opacity:1" />
  <path
     id="path819"
     d="m 514.5,96 12.5,24 81,219.5 98.5,199.5 25.5,47 10.5,27.5 3,29.5 -0.5,67 5,26 45,171.5 4,17 -8.5,30.5 -17,22 -30.5,18 -172.5,71.5 -15.5,13.5 -7,16 -4,22 -17,60.5 -2,14.5 4,133 3.5,37.5 7.5,14.5 3.5,38 43,67.5 75,88 8,14 -1,5.5 -4.5,15 -2.5,5 -54.5,54.5 -25.5,41.5 -36.5,88 -4,17 -5,184 10.5,56.5 -0.5,39.5 -15.5,211 -23.5,222 2,10.5 83,227.5 11,20 117,161.5 11.5,17 6,17.5 262,337.5 16,13 28.5,10 13.5,0.5 120.5,4.5 16.5,5.5 14,14 28,33 32,36.5"
     style="opacity:1;fill:none;fill-opacity:1;fill-rule:nonzero;stroke:#e30964;stroke-width:5;stroke-linecap:butt;stroke-linejoin:round;stroke-miterlimit:4;stroke-dasharray:none;stroke-opacity:1" />
  <text
     style="font-style:normal;font-weight:normal;font-size:144px;line-height:125%;font-family:Sans;-inkscape-font-specification:Sans;letter-spacing:0px;word-spacing:0px;fill:#000000;fill-opacity:1;stroke:none"
     xml:space="preserve"
     id="text3784"
     y="6.96"
     x="89.45"><tspan
       id="tspan1"
       y="6.96"
       x="89.45">2015</tspan></text>
</svg>
