<?xml version="1.0" encoding="UTF-8" standalone="no"?>
<svg
   xmlns:dc="http://purl.org/dc/elements/1.1/"
   xmlns:cc="http://creativecommons.org/ns#"
   xmlns:rdf="http://www.w3.org/1999/02/22-rdf-syntax-ns#"
   xmlns:svg="http://www.w3.org/2000/svg"
   xmlns="http://www.w3.org/2000/svg"
   xmlns:xlink="http://www.w3.org/1999/xlink"
   id="svg2"
   height="5700"
   width="7264"
   viewBox="-2300, 0, 7264, 5700"
   version="1.1">
  <metadata
     id="metadata8">
    <rdf:RDF>
      <cc:Work
         rdf:about="">
        <dc:format>image/svg+xml</dc:format>
        <dc:type
           rdf:resource="http://purl.org/dc/dcmitype/StillImage" />
        <dc:title></dc:title>
      </cc:Work>
    </rdf:RDF>
  </metadata>
  <defs
     id="defs6" />
  <image
     xlink:href=".././../streetmap/sydosm.png"
     id="image10"
     height="5884.9414"
     width="7286.1182"
     y="-84.941406"
     x="-2322.1179"
     style="display:none" />
  <path
     style="fill:none;stroke:#005aa3;stroke-width:5;stroke-linecap:butt;stroke-linejoin:round;stroke-miterlimit:4;stroke-dasharray:none;stroke-opacity:1"
     id="path3025"
     d="m 4835.4999,3039.5 -25,-3.5 -21.5,-5.5 -15.5,-7.5 -13,-14.5 -9.5,-23 -2,-28.5 0,-25.5 -10.5,-28.5 -16.5,-34 -14,-12 -21,1.5 -21.5,-6.5 -27,-8.5 -29.5,-21 -68,-13.5 -29.5,-15.5 -25,-14 -27,-15 -14,-11.5 -15,-27.5 -10.5,-17.5 -14.5,-14.5 -21.5,-10.5 -29.5,-5 -24.5,-2 -14,5.5 -8.5,12 -2.5,33.5 -7.5,16 -4,18.5 -14.5,59 5,26.5 15,28.5 5.5,43 -13,24.5 -33,41 -24.5,21.5 -38,44 -9,16 -12.5,41.5 -7.5,14 -13.5,11.5 -78,3.5 -27,8.5 -20.5,14.5 -9.5,19 -12,57 -10,21 -14.5,17.5 -23.5,14 -63.5,19.5 -26.5,17 -132.5,104.5 -58,41.5 -19.5,27.5 -7.5,22 -7,33.5 -8,17.5 -15.5,24 -55,61 -10.5,17.5 -10.5,21.5 -31,80 -14,18 -36.5,36 -18.5,31.5 -40.5,98 -30.5,64.5 -18,55.5 -17.5,70 -10,27.5 -16.5,18 -26,14 -52.5,15 -98,22 -24,-1 -54.5,-20 -68,-0.5 -27.5,-14 -37,-25.5 -22,-7.5 -18.5,-3 -127.5,21 -25,14 -25.5,24 -19.5,26.5 -16,47 -13.5,24 -6.5,16 2.5,30.5 7.5,36.5 -2.5,21 -24,37 -2,49.5 -11.5,26.5 -102,124.5 -17,24 -2,32 5.5,24.5 19,33.5 6,22.5 -4,18 -17,22 -23.5,24.5 -13,33 -0.5,33 6,48 0,30.5 -11.5,35.5 -21.5,42 -59,93.5 -26,43 0,20 8,14.5 11,10 17,1.5 16,-5 26.5,-10 70.5,-1.5 42.5,-11 82,-3.5 116,1 86,3.5 134,19.5 53,9.5 52,15 55,20 19,13.5 22.5,16 17.5,3.5 45,3 15,3.5 174,73 25,6.5 32.5,6.5 15,6 11.5,11 10,13 12,21 15.5,15 25.5,18.5 8,15.5 6.5,39.5" />
  <path
     style="fill:none;stroke:#f99d1c;stroke-width:5;stroke-linecap:butt;stroke-linejoin:round;stroke-miterlimit:4;stroke-dasharray:none;stroke-opacity:1"
     id="path3799-6"
     d="M 3947.8964,1430.4632 3927.4999,1376 l -23.5,-32 -40,-21 -25,-6 -32.5,3.5 -25.5,12.5 -22.5,18 -19.5,29 -17.5,50 -16,25.5 -30.5,33 -40,44 -27,19 -40.5,16.5 -32,6.5 -40.5,-2 -93.5,-26.5 -25.5,-11.5 -27,-24.5 -14.5,-42.5 -8.5,-24 -18,-19.5 -162,-146 -21,-17.5 -17.5,-9 -19.5,-7 -27.5,0.5 -32,7 -86.5,32.5 -127.5,44.5 -23,3 -25.5,-5.5 -20.5,-11.5 -14.5,-16 -11,-33" />
  <path
     style="fill:none;stroke:#0098cd;stroke-width:5;stroke-linecap:butt;stroke-linejoin:round;stroke-miterlimit:4;stroke-dasharray:none;stroke-opacity:1"
     id="path3799-5"
     d="m 4340.2499,2575.5 -15.2243,-1.8051 -27.7757,-1.9449 -14.5,5.25 -13,17 0.75,22.75 4,45.5 5.25,60.5 4.75,35 -4.25,22 -2.5,9.75 8,13.5 20.5,23 3.25,8.25 -3,21.5 -11,44 -20.5,32.75 -25,27 -24.75,28.5 -25.5,36.5 -15.5,18 -20.75,20 -44.25,19.5 -57.75,22.5 -38.25,17 -24.75,9.25 -22,5.25 -29.25,2.5 -29.5,-0.5 -21,-4 -22.75,-11.75 -26.75,-18 -32,-13.5 -25.75,-6.25 -23,-1.25 -25.75,7 -25.75,0.5 -62,-14.75 -48.5,6.75 -29.5,-1.75 -55.5,-18.5 -36.5,-11 -24.5,-15.5 -40.5,-14 -24.5,-6 -52.25,-3.5 -97.75,-38 -28.5,-8.25 -42.5,-18.75 -18.5,-10.5 -39,-25.5 -75.5,-67.5 -36,-12.5 -22,-7 -25,-2.5 -24.5,-6 -35.5,-27.5 -25,-32.5 -27.5,-21.5 -31,-31.5 -22.5,-13 -40,-27 -62.5,-24 -34.5,-8 -37,3 -38,5.5 -38,-4.5 -61,-16.5 -51,1 -48.5,8 -23,2.5 -89.5,-2 -25.5,-3.5 -23,-6.5" />
  <path
     style="fill:none;stroke:#df4825;stroke-width:5;stroke-linecap:butt;stroke-linejoin:round;stroke-miterlimit:4;stroke-dasharray:none;stroke-opacity:1"
     id="path3799"
     d="m 4339.4999,2580.5 -12.943,-1.6759 -27.557,-2.3241 -13,4.5 -11.5,15 1,23 4,47.5 5,55.5 5.25,35 -5,21.5 -2,10.25 7.25,12.5 20.25,22 4.25,10" />
  <path
     style="fill:none;stroke:#f99d1c;stroke-width:5;stroke-linecap:butt;stroke-linejoin:round;stroke-miterlimit:4;stroke-dasharray:none;stroke-opacity:1"
     id="path2998"
     d="m 2904.8761,171.22553 -13.2893,55.04067 0.9131,39.73382 28.5,55 3,31 -5,27.5 -12,23.99998 -23.5,24.5 -32.5,11 c 0,0 -37,-1 -35,-1 2,0 -23,2 -23,2 l -29.5,10 -23.5,25.5 -90,114 -88.5,114.5 -29.5,34 -23.5,10 -13.5,8.5 -9.5,18 -1.5,20.5 16,25.5 5.5,20 -7.5,22.5 -5.5,26 9,22 18.5,13.5 112,20 27.5,14.5 21,27 23,83 6.5,30.5 -6,21 -13,41 0,21.5 9,39.5 20.5,45.5" />
  <path
     style="fill:none;stroke:#00954c;stroke-width:5;stroke-linecap:butt;stroke-linejoin:round;stroke-miterlimit:4;stroke-dasharray:none;stroke-opacity:1"
     id="path3795"
     d="m 4340.2499,2575.5 20.4869,3.0635 14.2631,2.9365 14,7 5,11 -2,12.5 -11.5,18 -17.5,21.5 -8,76 -5,33.5 -6,20.5 -15,27.5 -10.5252,27.8594 -2.309,21.0451 -12.0478,44.9045 -11.4522,19.0478 -9.9523,16.309 -25,27.6432 -13.7135,24.191 -8,24.5 -13.5,88 22.5,104 6.5,19 0.5,18 -4.5,13 -13.5,10.5 -15.5,9.5 -24,7 -27.5,18 -31.5,41 -83.5,112 -8.5,53.5 -6.5,26 1,25.5 3.5,28.5 -2.5,17 -15.5,62.5 -6,14 -8.5,8.5 -13,4.5 -15.5,-0.5 -52.5,-9.5 -21.5,3.5 -37,9.5 -33,14.5 -20.5,4 -24.5,-2 -42,-13.5 -29,-21 -22.5,-27.5 -28.5,-16.5 -27,-17.5 -22,-7.5 -31,0.5 -23.5,0 -44.5,-7.5 -23,4 -147.5,55 -27,-2 -40.5,-13.5 -25,5 -27,10 -27,17 -33.5,16.5 -23,27.5 -24.5,18.5 -36.5,9 -76.5,9 -31.5,14 -60.5,29 -46.5,25.5 -34.5,30.5 -25.5,19 -155.5,59.5 -27.5,1.5 -25,-6.5 -62,-31.5 -27,0 -45,10.5 -169,57.5 -44,13.5 -31,-2.5 -87,-13 -303,13.5" />
  <path
     style="fill:none;stroke:#df4825;stroke-width:5;stroke-linecap:butt;stroke-linejoin:round;stroke-miterlimit:4;stroke-dasharray:none;stroke-opacity:1"
     id="path3797"
     d="m 4339.4999,2580.5 20.6114,3.1715 13.3886,2.5785 12.5,6.25 2.75,6.5 -1.25,12 -11,17 -17.75,21 -8.75,78.75 -4.75,33.25 -6.25,19.75 -14,25 -10.4775,28.6684 -3.7022,23.7839 -11,43.1545 -20.9523,33.9522 -21.7135,23.5113 -27.2977,31.0477 -10.8933,14.7978 -16.059,23.2613 -17.941,20.8342 -17.4158,17.2612 -32.0112,13.9046 -32.0365,13.0477 -33.5816,13.3091 -25.1684,20.7161 -13.5,16.5 -7.75,13.5 -10,19.75 -12.25,58.25 -8.75,17.5 -14.25,18 -21.25,12.5 -65,19.75 -25.5,16.75 -122,96 -18.5,4.5 -19.5,-3.5 -91.5,-30 -38,-17.5 -39,-22 -20,-4.5 -32.5,1 -27,0.5 -19,-8 -43,-23 -17,-2 -20,4.5 -21.5,11.5 -52,34 -33.5,8 -39,6 -19,-2 -87,-58 -17.5,-4.5 -20,-1 -146,30 -26,23 -37.5,46.5 -19.5,14 -32,11.5 -56,4 -60,12 -45,18.5 -203,81 -29,7 -54,5 -26.5,-4 -24.5,-18.5 -90,-88.5 -27.5,-10 -38,-1.5 -77,8" />
  <path
     style="fill:none;stroke:#f99d1c;stroke-width:5;stroke-linecap:butt;stroke-linejoin:round;stroke-miterlimit:4;stroke-dasharray:none;stroke-opacity:1"
     id="path3799-3"
     d="m 468.99992,1147 40.5,19.5 28,11.5 62,46.5 34,15 32,3.5 42,-1 104.5,-5 49,11 44,20.5 29.5,18.5 51.5,51 21.99998,36.5 16,40.5 11,48.5 10.5,100.5 8.5,35 21,37.5 24.5,29.5 39,21 80,17 86,43.5 55.5,16.5 36.5,-2 57.5,-7.5 40,10 54.5,28 25.5,22 22.5,36.5 24.5,22.5 52.5,14.5 31,7 19.5,11.5 17,22.5 8.5,26 2.5,25 -8.4315,36.3751 1.5234,39.1942 11.5147,32.5416 11.6032,21.139 35.6186,27.6643 94,72 103.2929,108.7929 69.9142,70.4142 32.1465,49.5858 68,118.5607 26.9142,43.0607 20.9038,13.1715 23,7 25.1464,3.7071 90.2072,1.6465 24.0606,-2.1465 45.318,-8 52.7678,-1 61,15.7929 38,5.2071 38,-6.2071 35.2322,-2.2929 36.2678,7.2929 65.3284,25.0607 39.2929,27 22.5,13 32.4142,33.2677 27.1465,20.4394 25.7071,32.8535 34.0858,26.4394 24.1464,5.6464 22.8787,1.7929 22,7 37.7678,13.5607 77.6213,68.2071 35.818,23.7322 17.7929,10.5 43.2071,19.4571 27.7929,7.5429 99.5178,39.0607 50.4822,2.7929 24.5,5.6464 40.5,14 24.5,15.5 36.5,11 57.25,19.25 26.6893,1.3536 49.2071,-6.3965 62.7072,14.75 23.6286,-0.5 26.2678,-6.9571 24,1.5 26,5.25 34.4749,14.5607 24.6287,17.2929 24.6464,12.6464 18.75,2.75 29.25,1 27.3787,-2.2929 24.1213,-5.9571 23.6893,-8.5429 39.3107,-17.7071 57.75,-22.5 41.4216,-18.4393 23.2248,-22.1214 13.3787,-16.9393 24.7929,-34.7322 27.5784,-32.0356 21.6716,-22.1715 11.1005,-18.4866 8.8787,-13.9479 10.0711,-41.299 3.4675,-25.2206 -21.2071,-23 -9.7678,-15.6213 -0.3284,-4.4467 6.0178,-30.8389 -5.1036,-35 -5.25,-61.9142 -3.2929,-41.9644 -0.75,-24.1642 8.0502,-27.2531 10.8567,-23.6967 45.6213,-88.2929 29.318,-55.6642 3,-19.75 -1.7372,-22.0494 -7.7628,-28.4506 -15,-33.5 -17.5,-20.5 -18,-8 -42.5,-8.5 -36.5,-10 -25,-6.5 -18,-12.5 -10,-18 -2,-21 0,-20.5 -7,-14 -15,-9.5 -26.5,0 -13,-7.5 -7,-12.5 2,-16.5 6,-8.5 26,-11 13,-13 3.5,-18 -5,-21 -12.5,-34 -12.5,-90 0,-40.5 -5.5,-21 -16.5,-29.5 -26.5,-23.5 -55,-26.5 -31,-34 -17,-31.5 -6.5,-46.5 0,-72.5 -0.5,-72.5 -0.5,-51 -16.5,-43.5 -31.5,-29 -52,-30.5 -24,-22 -16.5,-28 -5.5,-43.5 -34.5,-58 -110.5,-173 -65.5,-103.5 -13,-20.5 -18,-9 -25.5,-11 -19,-24.5 -24.5,-55.50001 -13,-13 -62.5,-31.5 -23,-18.5 -184,-243 -23.5,-41.5 -33,-70 -25,-28.5 -38.5,-36 -122,-77 -72,-71.5 -3,-12.5 4.5,-25" />
  <path
     style="fill:none;stroke:#6f818e;stroke-width:5;stroke-linecap:butt;stroke-linejoin:round;stroke-miterlimit:4;stroke-dasharray:none;stroke-opacity:1"
     id="path3928"
     d="m 2221.9717,2608.1807 21.8597,6.7604 24.4558,3.4319 42.4264,1.0607 14.2863,-4.9337 17,-11.25 45,-12.5 26,-10.75 15.25,-19 13.75,-28.5 24,-28.5 21.5,-35.5 37,-28 6.5,-11 -0.5,-12 -20.5,-31 0,-11.5 8,-14.5 11,-7.5 25,-8.5 15,-3.5 14.5,9 9.5,21 -1.5,16.5 -6.5,13.5 -35,21.5 -29,20.5" />
  <path
     style="fill:none;stroke:#4f2201;stroke-width:5;stroke-linecap:butt;stroke-linejoin:round;stroke-miterlimit:4;stroke-dasharray:none;stroke-opacity:1"
     id="path3949"
     d="m 3746.9999,2775 31,-2.5 19.5,-2.5 16.5,-7.5 17.5,-14 13.5,-9 13,0 10.5,5.5 14.5,14.5 6.5,9.5 4.5,12 6,6.5 11.5,7 14.5,1.5 15,-1 90,26 23.5,0 21,-16 12.5,-6 20.5,-5.5 12,-8.5 6.5,-8.5 2.5,-9.5 1,-9.5 -2.5,-7 -14,-20 -13.5,-9 -9,-8.5 -2.5,-15.5 0,-11.5 10,-14.5 12,-7 12,-1.5 10,4.5 12,17 6.5,5.5 10,2 8,6 4.5,17 3,11.5 -2.5,38 3,14 20,47 11.5,23.5 5,2.5" />
  <path
     style="fill:none;stroke:#4f2201;stroke-width:1px;stroke-linecap:butt;stroke-linejoin:round;stroke-opacity:1"
     id="path3951"
     d="m 4292.2499,2865.5 1.75,4.75 -3,12 -8,12 0.75,4.75 9,7 3.5,-0.5 6.25,-8.5 5.75,-23 -2.5,-5.25 -29.75,-6.75 -16.75,-4 -27.25,-3.75 -20,-3" />
  <path
     style="fill:none;stroke:#ff0000;stroke-width:5;stroke-linecap:butt;stroke-linejoin:round;stroke-miterlimit:4;stroke-dasharray:none;stroke-opacity:1"
     id="path3953"
     d="m 4301.9999,2720 4.5,6 -4,84 -4,4 -43.75,-8.5 -6.75,1.75 -2.5,9.75 -0.75,14.5 1.5,10.5 -1.75,5.25 -10.25,3.75 -12.25,-0.75 -9,-5 -11,-20.75 -19.5,-46 -3.5,-14 3,-37.5 1.5,-7 5.75,-4 53.25,11.25 11,0.25 14.25,-1.5 18.25,-3.5 z" />
  <text
     style="font-style:normal;font-weight:normal;font-size:144px;line-height:125%;font-family:Sans;-inkscape-font-specification:Sans;letter-spacing:0px;word-spacing:0px;fill:#000000;fill-opacity:1;stroke:none"
     xml:space="preserve"
     id="text3955"
     y="5597.9609"
     x="-2210.546875"><tspan
       id="tspan2"
       y="5597.9609"
       x="-2210.546875">2010</tspan></text>
  <text
     style="font-style:normal;font-weight:normal;font-size:144px;line-height:125%;font-family:Sans;-inkscape-font-specification:Sans;letter-spacing:0px;word-spacing:0px;fill:#000000;fill-opacity:1;stroke:none"
     xml:space="preserve"
     id="text3959"
     y="206.96094"
     x="-2210.546875"><tspan
       id="tspan1"
       y="206.96094"
       x="-2210.546875">2010</tspan></text>
</svg>
