<svg xmlns="http://www.w3.org/2000/svg" viewBox="50 -150 1300 1600" height="1600" width="1300"><path d="M409.734 516.764l6.208-17.786 8.558-16.275 9.731-11.913 92.116-55.538 57.783-8.87" fill="none" stroke="#009c42" stroke-width="5" stroke-linejoin="round"/><path d="M348.156 1316.61l24.833-1.846 11.074-1.007 5.537-3.524 80.035-81.88 57.886-59.397 43.96-33.39 174.165-203.36 17.618-22.818 5.537-22.652 13.926-63.591 2.35-15.772-1.343-12.081-2.517-9.396-3.524-7.719-6.543-6.879-45.135-32.55-46.142-46.814-56.545-41.275-12.92-15.101-7.214-10.571-32.048-206.547-24.665-157.218-19.966-127.35" fill="none" stroke="#dd0024" stroke-width="5" stroke-linejoin="round"/><text x="139.453133" y="56.96094" style="line-height:125%;-inkscape-font-specification:Sans" font-weight="400" font-size="143.99993896px" font-family="Sans" letter-spacing="0" word-spacing="0"><tspan x="139.453133" y="56.96094">1995</tspan></text></svg>