<svg xmlns="http://www.w3.org/2000/svg" width="7000" height="3850"><path d="M3487.834 2377.152l48.083 12.632 16.3 3.668 15.077-2.038 11.41-7.742 11.816-12.632 48.084-55.01 24.041-27.302 22.004-26.486 51.343-32.192 109.614-30.154 83.942-21.189 44.416-2.445 17.93-3.667 34.228-8.557 20.782-10.188 26.894-14.67 24.449-19.966 36.11-36.799 19.856-17.694 24.528-5.313 42.206-7.852 45.184-23.211 52.158-28.117 229.414-102.686 36.674-13.854 35.859-12.225 28.523-4.89 26.08 2.038 26.486 10.594 18.337 11.002 17.522 19.967 11.002 18.337 14.67 28.931 11.409 28.932 11.41 35.859 13.29 67.517 15.233 83.252-1.63 69.68-5.39 25.076" fill="none" stroke="#616568" stroke-width="5" stroke-linejoin="round"/><path d="M4702.689 2415.91l30.655-23.493 16.738-20.86 12.6-13.353 19.294-22.616 12.256-26.078 4.89-28.932 7.334-33.006 15.892-11.817 23.227-11.41 28.524-5.704 33.006 2.444 46.861 7.743 118.578 33.82 104.316 54.197 127.543 60.715 144.658 75.792 61.53 48.083 39.526 41.156 35.044 54.603 26.079 55.01 51.75 140.99 22.005 32.192 195.593 227.784 273.015 295.02 51.75 52.565 31.784 24.042 43.601 16.707 548.883 227.377 46.86 20.781 31.377 22.412" fill="none" stroke="#e91675" stroke-width="5" stroke-linejoin="round"/><path d="M4991.862 956.659l-33.414 7.742-18.337.407h-10.594l-58.27 54.196-22.005 11.817-32.599 22.004-13.854 6.927-11.41 13.448-8.557 2.444-66.012 6.928-34.23 5.297-58.27 15.484" fill="none" stroke="#cbaa77" stroke-width="5" stroke-linejoin="round"/><path d="M4816.236 118.054l-29.448 17.553-18.086 15.077-9.952 23.572-14.552 112.078-15.164 57.06 19.152 227.784-4.482 15.077-13.04 9.372-73.755 18.337-32.599 20.374-30.561 30.561-70.902 135.285-5.705 34.637 1.222 17.929 20.782 90.462 34.229 57.455 56.64 109.614 9.372 29.746 2.445 19.967-9.372 26.486-8.965 7.335-24.041 4.89-35.859 17.93-41.97 8.556L4491 1239l-66 1-21.954 12.085-76.607 62.753-10.595 15.485-6.52 17.114-2.445 15.077-1.63 25.264 3.668 50.12 4.482 44.824-.815 45.638-13.447 34.637 1.223 74.977-13.51 62.58-10.626 23.917-99.256 84.007-49.79 35.276-30.969 37.081-53.787 73.755-10.595 17.522-15.892 31.376-11.41 39.934-15.688 29.338-5.343 66.092-16.833 18.447-21.393 11.08-55.733 11.723" fill="none" stroke="#009a4e" stroke-width="5" stroke-linejoin="round"/><path d="M4427.495 715.427l26.487 7.743 14.669 12.632 23.634 34.636 10.187 24.042 17.522 17.929" fill="none" stroke="#009a4e" stroke-width="5" stroke-linejoin="round"/><path d="M2396.238 2585.56l-10.373-43.797 2.305-19.594 11.525-17.288 59.356-25.932 39.763-23.05 16.712-5.763 26.508-4.034 10.373-5.187 42.644-32.27 10.373-10.95 14.983-3.458 15.56-.576 84.135 10.373 16.136 2.881 21.322-6.339 36.305-14.983 25.932-19.017L2928 2322l105.017-4.407 13.83-5.186 81.831-60.509 23.051-9.22 28.237-3.458 19.017-2.881 14.407-9.22 29.966-39.187 9.797-20.746 4.61-29.966 10.95-24.203 23.626-37.458 6.34-19.017 3.457-39.762 5.186-29.966-.576-24.204-4.61-20.17-13.83-42.067-2.882-72.61-7.492-18.441-10.949-23.05-10.949-35.153-21.322-36.305-2.881-11.526 1.152-18.44 5.187-51.865-4.61-16.136-17.865-26.508-2.881-18.44-.576-17.289 5.186-14.407 12.102-9.796 20.745-10.373h14.407l10.373.576 16.136 9.797 9.22 14.407 4.61 12.101-4.034 19.017-1.152 14.983v12.102l10.373 13.83 7.491 6.916 20.746 8.644 36.305 5.762 68.576 12.102 31.119 12.102 25.356 21.898 23.627 26.509 10.95 32.27 8.643 24.204 16.712 16.136 23.627 12.101 13.254 12.678 7.492 17.865 16.136 40.339 20.169 23.627 221.864 198.237 18.441 28.238 1.729 69.728" fill="none" stroke="#e62424" stroke-width="5" stroke-linejoin="round"/><path d="M2634.46 1763.864l-19.373-37.813-40.725-31.72-9.298-17.33-7.47-22.696-17.865-74.339-46.678-130.237 6.915-56.475-8.068-34-24.78-61.66-27.084-33.425-31.119-28.237-25.932-16.135-28.23-9.65-80.487-3.887-48.267-4.147-15.442-5.218-9.1-7.64-53.73-58.899-9.013-3.128-150.477-3.669-92.78-18.44-81.83-53.594-60.508-8.067" fill="none" stroke="#02a6e3" stroke-width="5" stroke-linejoin="round"/><path d="M2147.727 1130.356l-40.292-63.485-1.788-12.442 7.641-53.04-4.034-48.406-4.61-30.542-16.712-29.39-15.559-25.356-33.424-37.458-8.644-13.254-2.881-15.56 9.797-43.22 37.178-29.968 81.505-61.96 2.643-14.898 1.998-50.226" fill="none" stroke="#02a6e3" stroke-width="5" stroke-linejoin="round"/><path d="M4156.458 1834.102l-1.153 81.254M4291.305 1699.83l74.915 45.238" fill="none" stroke="#7b7156" stroke-width="5" stroke-linejoin="round"/><path d="M4344.368 1598.448l43.194-19.152M3685.464 1446.049l13.04 55.825" fill="none" stroke="#6bb8b0" stroke-width="5" stroke-linejoin="round"/><text x="89.453133" y="206.96094" style="line-height:125%;-inkscape-font-specification:Sans" font-weight="400" font-size="143.99993896px" font-family="Sans" letter-spacing="0" word-spacing="0"><tspan x="89.453133" y="206.96094">2015</tspan></text><text x="89.453133" y="3747.9609" style="line-height:125%;-inkscape-font-specification:Sans" font-weight="400" font-size="143.99993896px" font-family="Sans" letter-spacing="0" word-spacing="0"/><path d="M2728.067 473.724l17.782 17.782 11.002 4.075 30.561 12.632 11.002 8.965 6.52 12.632 64.79 179.701 1.63 57.048" fill="none" stroke="#f57e46" stroke-linejoin="round"/><path d="M2871.354 762.484l17.115 117.763 4.482 12.632 16.3 18.745 40.748 28.931 13.447 17.93 71.717 100.648 35.044 37.49 8.557 5.704 53.38 26.486 35.045 32.192 55.418 30.969 81.09 74.2 26.893 74.532 77.83 72.532 9.372 19.152 5.297 16.3.408 21.189 24.449 46.045 18.337 13.855 37.488 74.162 12.632 14.262 23.227 23.227 39.934 74.57 8.15 8.15 87.609 38.303 9.372 7.335 13.854 23.226-.815 5.298-33.413 42.786-53.381 68.865-34.229 37.896-22.411 11.817-24.45 3.26" fill="none" stroke="#f57e46" stroke-width="5" stroke-linejoin="round"/><path d="M3082.495 2146.762l2.549 20.902 23.45 56.078 8.667 11.216 14.275 11.215 9.176 3.569 13.255-2.04 42.313-5.607 34.666-3.059" fill="none" stroke="#054d7e" stroke-width="5" stroke-linejoin="round"/><path d="M3227.278 2238.016l25.49-1.02 16.313-11.215 16.314-7.647 12.235-5.098 22.431-2.039 15.804-1.53 15.294-5.097 57.607-6.118 4.079-2.04v-8.156l-4.079-3.569-5.608-19.372 3.06-15.804 7.646-20.901-1.53-4.079-3.568-10.706 5.098-46.391 13.255-40.784 7.137-6.627 26.51-13.765 13.254-14.784 14.275-4.588 9.686-8.667 27.02-7.647 43.842-6.118 13.764 3.57 173.332 111.645 23.45 10.706 69.843 24.47 40.274 4.078 47.921 1.02 85.647-1.02 50.47 9.177 28.548 6.627 97.372 8.667 6.627-1.02 2.04-4.078 2.039-32.627-7.647-8.157 5.098-22.941-20.392-26.51-9.177-6.117-3.568-6.628 9.686-19.372-3.059-4.078-23.45-11.726-21.922-3.058-3.568-3.06-1.53-6.627 35.686-59.646 3.569-23.45 36.705-36.197 31.608-18.862 71.881-29.059 10.196-9.686 20.392-36.195 30.078-35.177M3083.005 2148.802l-4.589-52.51-10.196-48.43-18.862-6.118-16.823-17.333-5.098-1.53-14.275 5.098-38.235-19.372-21.921-19.882-17.843-29.059-22.431-21.921-12.235-20.392-24.98-20.392-7.138-16.314-12.745-18.862-8.666-42.313-6.628-22.432 5.098-46.391" fill="none" stroke="#054d7e" stroke-width="1px" stroke-linejoin="round"/><path d="M4889.731 2387.387l16.314 28.55 6.372 1.529 24.98-14.785 39.765-32.627 50.725-14.02 17.588-13.254 61.43-56.078 16.57-22.176 10.705-27.274 27.02-71.627 8.92-36.96-.764-18.863-7.137-22.94-26.765-28.805-85.9-81.567-30.843-42.314-18.098-37.725-9.941-29.058-3.824-30.588-2.294-36.706 5.098-10.96 9.176-13 4.079-9.941.51-6.883-3.57-7.647-8.156-5.098-22.94-11.47-5.099-13.255-13.254-31.862" fill="none" stroke="#d6cc8e" stroke-width="5" stroke-linejoin="round"/><path d="M4950.398 1689.983l-32.373-40.02-24.47-27.783-72.646-92.529-38.235-54.294-22.686-27.274-37.98-32.627-30.333-21.411" fill="none" stroke="#d6cc8e" stroke-linejoin="round"/><path d="M4691.675 1394.045l-21.667-15.294-17.333-19.373-7.137-14.529-6.882-27.784-5.863-32.372-9.431-21.667-19.284-16.608-21.088-7.75-55.154-.361-37.296 5.407-63.819.945-50.107-3.829-69.328-6.097-112.665-3.824-31.608 2.294-20.646 7.392-18.098 13-16.059 16.569-11.216 15.039-39.509 61.685-28.039 32.373-21.157 17.588-33.901 26-17.333 12.49-57.863 31.607-18.862 9.94-22.686 15.04-17.588 18.863-24.216 33.391-65.764 106.293-17.843 22.686-23.96 21.667-28.549 25.235-73.92 57.097-8.922 10.706-11.98 17.078-8.667 23.196-16.823 44.863-16.059 32.882-16.823 22.686-29.314 27.529-27.529 22.43-34.666 27.785-59.392 46.901-62.45 56.078-46.392 40.53-34.666 31.352-16.059 15.294-16.313 13-17.079 10.196-22.43 8.921-50.726 20.137-130.253 51.235-53.784 17.843-112.666 46.137-30.43 15.656-49.025 12.978-31.362 1.081-70.654-5.768-250.175-18.024-27.036-6.849-28.478-13.338-13.338-14.419-19.241-35.552-22.432-22.176-28.548-16.059-32.627-7.137-26.51.255-19.627 6.372-26.51 16.824-22.94 17.843-16.824 19.882-8.667 18.353-17.843 66.273-10.705 24.98-13.765 18.863-22.94 18.353-32.628 16.823-34.156 9.177-30.079 2.039h-31.097l-40.274-16.314-62.196-1.53-23.45 8.667-256.43 119.293-39.254 12.236h-30.078l-37.792-9.266-34.606-17.664-105.621-82.19-278.653-217.37-26.315-16.583-24.152-1.442-30.641 1.442-20.548-3.244-21.629-10.093-51.91-59.12-24.152-13.337-34.966-7.21-106.343-3.244-41.455-3.245-32.083-7.57-388.24-196.823-14.418-10.454-23.071-23.792-17.142-8.816-17.284-2.179" fill="none" stroke="#d6cc8e" stroke-width="5" stroke-linejoin="round"/><path d="M3234.712 1663.525l-13.255 24.203-12.678 13.254-20.17 2.882-13.253-5.186-11.082-9.509-9.088-12.48-3.047-6.715-20.425-46.602-8.533-13.198-17.1-9.84-18.562-6.45-19.394 3.813-21.278 12.811-19.593 13.254-13.254 14.983-11.526 19.017-24.203 23.627-24.78 24.78-17.83 20.657-18.053 11.648-27.229 6.665-29.091-4.394-79.127-10.44-84.802-7.897-26.075 4.323-20.392 10.023-12.3 12.8-7.669 17.621" fill="none" stroke="#e62424" stroke-width="5" stroke-linejoin="round"/></svg>