<svg xmlns="http://www.w3.org/2000/svg" width="9350" height="5700"><path d="M9221.133 5579.232l-169.787-72.817-26.315-16.943-155.008-137.343-111.028-98.772-34.967-23.792-32.083-12.617-189.974-46.142-56.235-9.372-56.236-25.234-36.769-36.409-69.933-72.817-15.5-20.908-11.176-43.979-7.57-24.513-10.454-15.5-30.28-33.525-127.611-116.436-61.282-63.805-45.781-33.886-28.478-30.28-57.678-58.759-53.711-84.713-16.943-20.548-22.35-14.058-25.594-9.013-38.211 2.524-32.444.36-22.71-6.488-25.234-14.78-18.024-24.152-17.664-34.607-14.419-18.745-19.466-17.303-66.329-31.722-85.434-68.131-48.665-37.851-79.667-33.885-16.942-10.454-47.584-45.421-22.35-15.5-22.71-3.245-87.958 7.93h-27.396l-121.843-34.606-30.641-15.5-53.352-36.41-22.35-1.441-24.873 8.29-15.14 1.082-33.525-9.372-37.49-21.63-36.048-2.522-12.617-5.047-21.269-18.385-16.942-11.535-18.385-2.163-17.303 3.965-11.896 6.85-11.896 12.616-16.222 7.93-15.5 2.164-16.582-4.326-10.815-5.047-10.093-12.617-19.827-46.141-12.977-25.595-20.187-29.92-39.653-33.164-83.632-103.819-65.247-56.596-16.583-24.512-8.651-18.385-15.861-15.14-272.885-152.484-18.745-11.536-14.42-12.616-103.458-137.705-69.573-112.47-5.407-14.42-1.082-14.78 1.803-24.512v-14.78l-6.85-13.698-12.256-11.175-14.42-5.407-45.78 3.244-12.257-1.442-14.059-8.29-25.233-32.084-33.165-56.235-12.256-13.338-41.456-17.303-16.582-10.093-10.093-13.699-6.85-32.443-5.767-13.338-15.861-11.535-81.47-18.385-13.337-5.768-16.222-16.582-3.965-19.466 6.128-26.676v-16.582l-17.303-32.083-16.943-57.316-8.651-16.583-89.76-80.748-22.35-10.454h-15.501l-130.495 27.037-23.07-2.884-73.9-42.537-10.814-9.012-5.767-11.536-20.187-66.689-41.816-68.852-17.664-19.466-47.584-34.606-27.036-51.55.36-16.942 3.393-17.028 5.391-25.076 1.63-69.68-15.233-83.252-13.29-67.517-11.41-35.86-11.41-28.93-14.67-28.932-11.001-18.337-17.522-19.967-18.337-11.002-26.487-10.594-26.079-2.038-28.524 4.89-35.858 12.225-36.674 13.854-229.414 102.686-52.158 28.117-45.184 23.211-42.206 7.852-24.528 5.313-19.857 17.694-36.11 36.8-24.448 19.966-26.894 14.67-20.782 10.187-34.229 8.557-17.93 3.667-44.415 2.445-83.942 21.19-109.614 30.153-51.343 32.192-22.004 26.486-24.042 27.302-48.083 55.01-11.817 12.632-11.41 7.742-15.077 2.038-16.299-3.668-48.083-12.632-19.996-2.966-15.5 2.523-18.746 12.978-13.338 14.78-32.804 50.467-21.629 22.35-36.769 40.734-17.303 9.012-24.152 5.768-19.106 1.802-134.82.36-201.87 41.456-175.915-7.57-23.792 3.965-29.2 9.733-25.593 14.42-21.63 23.792-14.78 22.35-9.372 19.105-35.687 97.33-7.931 18.745-14.059 16.943-21.629 18.024-14.78 11.535-17.663 8.652-22.35 7.57-22.71 3.605-26.676-2.523-281.176-32.083-16.943-3.966-16.942-11.175-18.025-20.908-31.722-45.06-16.582-13.698-20.187-11.896-108.866-47.584-51.188-22.35-19.827-13.698-9.733-16.582-2.523-18.024 4.686-16.943 8.291-22.71.721-12.978-4.326-18.384-10.814-16.943-14.78-19.826-6.849-17.303-6.489-39.654-8.29-21.268-17.664-20.547-23.432-30.641-6.128-19.827-2.523-32.083v-22.71l13.338-27.757 10.454-17.664 20.547-18.385 16.222-14.419 12.977-18.024 8.652-29.56-.721-11.535-6.129-18.745-12.616-16.222-11.175-6.488-34.967-12.617-14.78-11.175-11.535-17.303-2.884-15.14v-64.527" fill="none" stroke="#616568" stroke-width="5" stroke-linejoin="round"/><path d="M4702.688 2415.91l30.656-23.493 16.738-20.86 12.6-13.353 19.293-22.616 12.257-26.078 4.89-28.932 7.334-33.006 15.892-11.817 23.227-11.41 28.524-5.704 33.006 2.444 46.86 7.743 118.579 33.82 104.316 54.197 127.543 60.715 144.657 75.792 61.53 48.083 39.527 41.156 35.044 54.603 26.079 55.01 51.75 140.99 22.004 32.192 195.593 227.784 273.015 295.02 51.751 52.565 31.784 24.042 43.6 16.707 548.884 227.377 46.86 20.781 31.377 22.412 37.13 29.849 396.623 339.526" fill="none" stroke="#e91675" stroke-width="5" stroke-linejoin="round"/><path d="M4991.862 956.659l-33.414 7.742-18.337.407h-10.594l-58.27 54.196-22.005 11.817-32.599 22.004-13.854 6.927-11.41 13.448-8.557 2.444-66.013 6.928-34.228 5.297-58.27 15.484" fill="none" stroke="#cbaa77" stroke-width="5" stroke-linejoin="round"/><path d="M4816.236 118.054l-29.448 17.553-18.087 15.077-9.952 23.572-14.551 112.078-15.164 57.06 19.152 227.784-4.483 15.077-13.04 9.372-73.754 18.337-32.599 20.374-30.561 30.561-70.903 135.285-5.704 34.637 1.222 17.929 20.782 90.462 34.229 57.455 56.64 109.614 9.372 29.746 2.445 19.967-9.372 26.486-8.965 7.335-24.041 4.89-35.86 17.93-41.97 8.556L4491 1239l-66 1-21.954 12.085-76.608 62.753-10.594 15.485-6.52 17.114-2.445 15.077-1.63 25.264 3.668 50.12 4.482 44.824-.815 45.638-13.447 34.637 1.222 74.977-13.51 62.58-10.625 23.917-99.256 84.007-49.79 35.276-30.969 37.081-53.788 73.755-10.594 17.522-15.892 31.376-11.41 39.934-15.688 29.338-5.344 66.092-16.832 18.447-21.393 11.08-55.733 11.723" fill="none" stroke="#009a4e" stroke-width="5" stroke-linejoin="round"/><path d="M4427.495 715.427l26.486 7.743 14.67 12.632 23.634 34.636 10.187 24.042 17.522 17.929" fill="none" stroke="#009a4e" stroke-width="5" stroke-linejoin="round"/><path d="M2396.237 2585.56l-10.373-43.797 2.305-19.594 11.526-17.288 59.356-25.932 39.763-23.05 16.711-5.763 26.509-4.034 10.373-5.187 42.644-32.27 10.373-10.95 14.983-3.458 15.56-.576 84.135 10.373 16.135 2.881 21.322-6.339 36.305-14.983 25.933-19.017L2928 2322l105.017-4.407 13.83-5.186 81.831-60.509 23.05-9.22 28.238-3.458 19.017-2.881 14.407-9.22 29.966-39.187 9.796-20.746 4.61-29.966 10.95-24.203 23.627-37.458 6.339-19.017 3.458-39.762 5.186-29.966-.576-24.204-4.61-20.17-13.83-42.067-2.882-72.61-7.492-18.441-10.949-23.05-10.95-35.153-21.321-36.305-2.882-11.526 1.153-18.44 5.186-51.865-4.61-16.136-17.864-26.508-2.881-18.44-.577-17.289 5.187-14.407 12.101-9.796 20.746-10.373h14.407l10.373.576 16.135 9.797 9.22 14.407 4.611 12.101-4.034 19.017-1.153 14.983v12.102l10.373 13.83 7.492 6.916 20.746 8.644 36.305 5.762 68.576 12.102 31.119 12.102 25.356 21.898 23.627 26.509 10.949 32.27 8.644 24.204 16.712 16.136 23.627 12.101 13.254 12.678 7.492 17.865 16.135 40.339 20.17 23.627 221.864 198.237 18.44 28.238 1.73 69.728" fill="none" stroke="#e62424" stroke-width="5" stroke-linejoin="round"/><path d="M2634.46 1763.864l-19.373-37.813-40.725-31.72-9.299-17.33-7.47-22.696-17.864-74.339-46.678-130.237 6.915-56.475-8.068-34-24.78-61.66-27.084-33.425-31.119-28.237-25.932-16.135-28.23-9.65-80.487-3.887-48.268-4.147-15.441-5.218-9.1-7.64-53.73-58.899-9.013-3.128-150.477-3.669-92.78-18.44-81.83-53.594-60.508-8.067" fill="none" stroke="#02a6e3" stroke-width="5" stroke-linejoin="round"/><path d="M2147.727 1130.356l-40.293-63.485-1.787-12.442 7.641-53.04-4.034-48.406-4.61-30.542-16.712-29.39-15.56-25.356-33.423-37.458-8.644-13.254-2.881-15.56 9.796-43.22 37.179-29.968 81.505-61.96 2.643-14.898 1.998-50.226" fill="none" stroke="#02a6e3" stroke-width="5" stroke-linejoin="round"/><path d="M4156.458 1834.102l-1.153 81.254M4291.305 1699.83l74.915 45.238" fill="none" stroke="#7b7156" stroke-width="5" stroke-linejoin="round"/><path d="M4344.368 1598.448l43.193-19.152M3685.464 1446.049l13.04 55.825" fill="none" stroke="#6bb8b0" stroke-width="5" stroke-linejoin="round"/><path d="M2704.285 447.498l17.114 19.56 24.45 24.448 11.002 4.075 30.561 12.632 11.002 8.965 6.52 12.632 64.79 179.701 1.63 57.048" fill="none" stroke="#f57e46" stroke-linejoin="round"/><path d="M2871.354 762.484l17.114 117.763 4.483 12.632 16.3 18.745 40.748 28.931 13.447 17.93 71.717 100.648 35.044 37.49 8.557 5.704 53.38 26.486 35.044 32.192 55.418 30.969 81.09 74.2 26.894 74.532 77.83 72.532 9.372 19.152 5.297 16.3.408 21.189 24.449 46.045 18.336 13.855 37.49 74.162 12.631 14.262 23.227 23.227 39.933 74.57 8.15 8.15 87.61 38.303 9.372 7.335 13.854 23.226-.815 5.298-33.414 42.786-53.38 68.865-34.229 37.896-22.412 11.817-24.449 3.26" fill="none" stroke="#f57e46" stroke-width="5" stroke-linejoin="round"/><path d="M3082.495 2146.762l2.549 20.902 23.45 56.078 8.667 11.216 14.274 11.215 9.177 3.569 13.254-2.04 42.314-5.607 34.666-3.059" fill="none" stroke="#054d7e" stroke-width="5" stroke-linejoin="round"/><path d="M3227.278 2238.016l25.49-1.02 16.313-11.215 16.314-7.647 12.235-5.098 22.43-2.039 15.805-1.53 15.294-5.097 57.607-6.118 4.078-2.04v-8.156l-4.078-3.569-5.608-19.372 3.059-15.804 7.647-20.901-1.53-4.079-3.568-10.706 5.098-46.391 13.255-40.784 7.137-6.627 26.51-13.765 13.254-14.784 14.274-4.588 9.687-8.667 27.019-7.647 43.843-6.118 13.764 3.57 173.332 111.645 23.45 10.706 69.843 24.47 40.274 4.078 47.921 1.02 85.646-1.02 50.47 9.177 28.55 6.627 97.37 8.667 6.628-1.02 2.04-4.078 2.039-32.627-7.647-8.157 4.909-21.62-20.203-27.83-9.177-6.118-1.776-5.59 8.46-18.712-.743-2.065" fill="none" stroke="#054d7e" stroke-width="1px" stroke-linejoin="round"/><path d="M4183.993 2015.377l-.995-2.768-25.338-12.669-21.921-3.058-3.569-3.06-1.53-6.627 36.819-68.609" fill="none" stroke="#054d7e" stroke-width="5" stroke-linejoin="round"/><path d="M4167.459 1918.586l2.436-14.488 36.706-36.196 31.607-18.862 71.882-29.058 10.196-9.687 20.392-36.195L4375 1733M3083.005 2148.802l-4.589-52.51-10.196-48.43-18.862-6.118-16.824-17.333-5.098-1.53-14.274 5.098-38.235-19.372-21.921-19.882-17.843-29.059-22.431-21.921-12.235-20.392-24.98-20.392-7.138-16.314-12.745-18.862-8.666-42.313-6.628-22.432 5.098-46.391" fill="none" stroke="#054d7e" stroke-width="1px" stroke-linejoin="round"/><path d="M3234.711 1663.525l-13.254 24.203-12.678 13.254-20.17 2.882-13.254-5.186-11.081-9.509-9.088-12.48-3.047-6.715-20.425-46.602-8.533-13.198-17.1-9.84-18.562-6.45-19.394 3.813-21.278 12.811-19.593 13.254-13.255 14.983-11.525 19.017-24.203 23.627-24.78 24.78-17.83 20.657-18.053 11.648-27.229 6.665-29.091-4.394-79.127-10.44-84.802-7.897-26.075 4.323-20.392 10.023-12.3 12.8-7.669 17.621" fill="none" stroke="#e62424" stroke-width="5" stroke-linejoin="round"/><path d="M4322.18 613.951l7.931 3.966 5.407 8.29-.36 15.141 5.407 8.291 10.454 3.605 15.14 4.326 30.641 28.117" fill="none" stroke="#76725a" stroke-width="5" stroke-linejoin="round"/><path d="M4605.88 1880.866l55.334-17.303 17.844-16.762 17.664-11.716 73.358 3.064 27.216 2.704 29.38 8.11 9.011 9.914 54.073 88.138 12.977 8.832 9.733 4.866 14.78 2.163 14.6-3.965 60.56-26.856 67.41-18.024 37.31-8.652 22.35-4.506 10.274.36 16.042 7.57 39.472 31.363 89.4 80.928 11.896 4.506 19.286-.901 22.89-9.193 26.856-12.436 11.536-13.518 5.046-18.565 4.506-47.764 7.21-15.32s10.634-11.176 11.355-11.176c.721 0 20.548-7.029 20.548-7.029l92.283-18.024 22.71-7.93 31.182.54 46.322 9.733 141.67 29.56 80.567 36.769 25.775 3.965 34.967-2.163h24.512l23.071 5.588 58.579 43.618 55.874 18.745 150.682 9.373 109.767 8.29 50.828 4.867 36.769-9.552 50.107-12.257 29.56-5.227 22.35 1.802 78.224 32.264 71.916 4.506" fill="none" stroke="#5d3465" stroke-width="5" stroke-linejoin="round"/><text x="89.453133" y="206.96094" style="line-height:125%;-inkscape-font-specification:Sans" font-weight="400" font-size="143.99993896px" font-family="Sans" letter-spacing="0" word-spacing="0"><tspan x="89.453133" y="206.96094">2020</tspan></text><path d="M4889.731 2387.388l16.314 28.549 6.372 1.53 24.98-14.785 39.765-32.627 50.725-14.02 17.588-13.254 61.43-56.078 16.57-22.177 10.705-27.274 27.02-71.627 8.92-36.96-.764-18.862-7.137-22.941-26.765-28.804-85.9-81.568-30.843-42.313-18.098-37.725-9.941-29.059-3.824-30.588-2.294-36.705 5.098-10.96 9.176-13 4.079-9.942.51-6.882-3.57-7.647-8.156-5.098-22.94-11.47-5.099-13.255-13.254-31.863" fill="none" stroke="#d6cc8e" stroke-width="5" stroke-linejoin="round"/><path d="M4950.398 1689.983l-32.373-40.019-24.47-27.784-72.646-92.528-38.235-54.294-22.686-27.274-37.98-32.627-30.333-21.412" fill="none" stroke="#d6cc8e" stroke-linejoin="round"/><path d="M4691.675 1394.045l-21.667-15.294-17.333-19.372-7.137-14.53-6.882-27.783-5.863-32.373-9.431-21.666-19.284-16.609-21.088-7.75-55.154-.36-37.296 5.407-63.819.944-50.107-3.828-69.328-6.098-112.665-3.823-31.608 2.294-20.646 7.392-18.098 13-16.059 16.568-11.216 15.04-39.509 61.685-28.039 32.372-21.157 17.588-33.901 26-17.333 12.49-57.863 31.607-18.862 9.941-22.686 15.04-17.588 18.862-24.216 33.392-65.764 106.293-17.843 22.686-23.96 21.666-28.549 25.235-73.92 57.098-8.922 10.706-11.98 17.078-8.667 23.196-16.823 44.862-16.059 32.882-16.823 22.686-29.314 27.53-27.529 22.43-34.666 27.784-59.392 46.902-62.45 56.078-46.392 40.529-34.666 31.352-16.059 15.294-16.313 13-17.079 10.196-22.43 8.922-50.726 20.137-130.253 51.235-53.784 17.842-112.666 46.137-30.43 15.657-49.025 12.977-31.362 1.082-70.654-5.768-250.175-18.024-27.036-6.85-28.478-13.337-13.338-14.42-19.241-35.551-22.432-22.177-28.548-16.058-32.627-7.137-26.51.254-19.627 6.373-26.51 16.823-22.94 17.843-16.824 19.882-8.667 18.353-17.843 66.274-10.705 24.98-13.765 18.863-22.94 18.352-32.628 16.824-34.156 9.176-30.079 2.04h-31.097l-40.274-16.314-62.196-1.53-23.45 8.667-256.43 119.293-39.254 12.235h-30.078l-37.792-9.266-34.606-17.663-105.621-82.19-278.653-217.371-26.315-16.582-24.152-1.442-30.641 1.442-20.548-3.244-21.629-10.094-51.91-59.12-24.151-13.337-34.967-7.21-106.342-3.244-41.456-3.244-32.083-7.57-388.24-196.824-14.418-10.454-23.071-23.791-17.142-8.816-17.284-2.18" fill="none" stroke="#d6cc8e" stroke-width="5" stroke-linejoin="round"/><text x="-1610.547" y="8997.9609" style="line-height:125%;-inkscape-font-specification:Sans" font-weight="400" font-size="144px" font-family="Sans" letter-spacing="0" word-spacing="0"/></svg>