<svg xmlns="http://www.w3.org/2000/svg" height="9300" width="6300" viewBox="0, 0, 6300, 9300"><path d="M2505.366 4631.986l22.059 13.822 19.033-3.67L2592 4620l39-9 125 29 40 13 17 5 14-6 32-15 51-45 51-9 128-4 180-7 30-4 38-10 53-20 107-1 303 1 258 12" fill="none" stroke="#005f96" stroke-width="5" stroke-linejoin="round"/><path d="M4045.256 4539.57L4041 4555l-42.811 131.923L3933 4811l-41 77-8.912 42.77L3893 4976l37 52 110 122 101 103 360.23 386.797" fill="none" stroke="#057d4f" stroke-width="5" stroke-linejoin="round" stroke-opacity=".941"/><path d="M2505.721 4631.901l-115.7-285.69-29.699-62.226-21.213-42.426 2.249-132.352-15.684-21.09 2.547-120.952-8.204-19.763-40.305-83.439-37.476-55.154-14.143-45.255" fill="none" stroke="#005f96" stroke-width="5"/><path d="M3189.65 3736.088L3182 3757l-2 114v22l-17.5 88-13 19.5-7.5 265.5 3 46.5 29.5 68-.5 49.5-1 34-8 35-20 34-5 59" fill="none" stroke="#e89e49" stroke-width="5" stroke-linejoin="round"/><path d="M1886 5058l-18-60 1-19 29-188 19-34-6-77-5-43 50-157 41.293-77.887.251-70.95 23.615-57.139L2032 4193l6-39 14-25 19-11 109 6 97 6 140-10 36-4 26-9 102-7 56 3 55 20 61 19 36 3 98-26 56-24 47-23 64-16.5 56.008-21.46 39.992.96 60 3 14-8 12-15 8-29-4-212-9.5-7.5-20.5-10.5-36.5-11.5" fill="none" stroke="#eccd38" stroke-width="5" stroke-linejoin="round"/><path d="M2777 3632l77-216" fill="none" stroke="#000" stroke-width="5" stroke-linejoin="round"/><text style="line-height:125%;-inkscape-font-specification:Sans" y="9197.961" x="89.453" font-weight="400" font-size="144" font-family="Sans" letter-spacing="0" word-spacing="0"/><text style="line-height:125%;-inkscape-font-specification:Sans" y="206.961" x="89.453" font-weight="400" font-size="144" font-family="Sans" letter-spacing="0" word-spacing="0"><tspan y="206.961" x="89.453">2005</tspan></text></svg>