<?xml version="1.0" encoding="UTF-8" standalone="no"?>
<svg
   version="1.1"
   id="svg2"
   width="1850"
   height="1450"
   viewBox="-175 -400 1850 1450"
   xmlns:xlink="http://www.w3.org/1999/xlink"
   xmlns="http://www.w3.org/2000/svg"
   xmlns:svg="http://www.w3.org/2000/svg"
   xmlns:rdf="http://www.w3.org/1999/02/22-rdf-syntax-ns#"
   xmlns:cc="http://creativecommons.org/ns#"
   xmlns:dc="http://purl.org/dc/elements/1.1/">
  <metadata
     id="metadata8">
    <rdf:RDF>
      <cc:Work
         rdf:about="">
        <dc:format>image/svg+xml</dc:format>
        <dc:type
           rdf:resource="http://purl.org/dc/dcmitype/StillImage" />
      </cc:Work>
    </rdf:RDF>
  </metadata>
  <defs
     id="defs6" />
  <image
     xlink:href="../basemap/fszosm.png"
     width="1659"
     height="1659"
     preserveAspectRatio="none"
     id="image10"
     x="75"
     y="-609"
     style="display:none" />
  <path
     id="path824"
     d="m 1386.33,141.93 h -16.68 l -59.25,27.9 -4.84,2.93 -57.29,-1.35 -24.2,13.97 -76.08,13.22"
     style="opacity:1;fill:none;fill-opacity:1;fill-rule:nonzero;stroke:#0094e2;stroke-width:5;stroke-linecap:butt;stroke-linejoin:round;stroke-miterlimit:4;stroke-dasharray:none;stroke-opacity:1" />
  <path
     id="path891"
     d="m 822.27,390.51 -29.62,20.36 -64.43,60.69 -38.83,28.19 -10.07,2.88 -35.67,2.59 -41.42,-0.58 -27.9,-0.69 -8.01,6.2 -3.39,11.37"
     style="opacity:1;fill:none;fill-opacity:1;fill-rule:nonzero;stroke:#0094e2;stroke-width:5;stroke-linecap:butt;stroke-linejoin:round;stroke-miterlimit:4;stroke-dasharray:none;stroke-opacity:1" />
  <path
     id="path836"
     d="m 394.9,621.04 -11.26,15.91 -37.39,63.86 -7.82,14.19 -55.71,30.89 -17.58,-1.36 -43.43,-8.63 -13.81,-2.3 -10.35,2.3 -36.3,26.1 -21.56,8.54 -21.56,3.66 -16.27,9.17"
     style="opacity:1;fill:none;fill-opacity:1;fill-rule:nonzero;stroke:#0094e2;stroke-width:5;stroke-linecap:butt;stroke-linejoin:round;stroke-miterlimit:4;stroke-dasharray:none;stroke-opacity:1" />
  <text
     style="font-style:normal;font-weight:normal;font-size:144px;font-family:Sans;-inkscape-font-specification:Sans;fill:#000000;fill-opacity:1;stroke:none"
     xml:space="preserve"
     id="text2838-3"
     y="-193.04"
     x="-85.55"><tspan
       id="tspan1"
       y="-193.04"
       x="-85.55">1925</tspan></text>
  <path
     style="opacity:1;fill:none;fill-opacity:1;fill-rule:nonzero;stroke:#0094e2;stroke-width:1;stroke-linecap:butt;stroke-linejoin:round;stroke-miterlimit:4;stroke-dasharray:none;stroke-opacity:1"
     d="m 122.91,774.15 5.28,3.34 7.51,39.76 -0.83,4.45 -8.34,5.28"
     id="path1055" />
  <path
     style="opacity:1;fill:none;fill-opacity:1;fill-rule:nonzero;stroke:#0094e2;stroke-width:1;stroke-linecap:butt;stroke-linejoin:round;stroke-miterlimit:4;stroke-dasharray:none;stroke-opacity:1"
     d="m 101.85,783.37 -2.36,1.57 -23.4,-9.44 -5.31,3.54 -47.78,-24.19"
     id="path1168" />
  <path
     id="path826"
     d="m 822.27,390.51 19.28,-15.94 18.07,-12.24 13.9,-5.84 26.69,-7.23 13.63,-5.56 13.63,-10.29 24.01,-22.49 8.65,-17.21 16.52,-23.96 17.56,-24.15 10.22,-11.01 5.11,-0.98 8.26,0.79 8.06,5.51 3.93,0.79 2.95,-1.38 2.36,-2.36 3.34,-11.99 3.54,-2.16 55.06,-4.92 10.03,-2.75 40.9,-16.52"
     style="opacity:1;fill:none;fill-opacity:1;fill-rule:nonzero;stroke:#0094e2;stroke-width:1;stroke-linecap:butt;stroke-linejoin:round;stroke-miterlimit:4;stroke-dasharray:none;stroke-opacity:1" />
  <path
     id="path893"
     d="m 562.94,521.53 -1.96,2.92 -16.68,5.98 -18.21,2.78 -15.57,10.29 -9.45,2.78 -16.68,3.2 -26,17.94 -14.32,8.48 -11.82,6.4 -32.95,33.09 -4.38,5.67"
     style="opacity:1;fill:none;fill-opacity:1;fill-rule:nonzero;stroke:#0094e2;stroke-width:1;stroke-linecap:butt;stroke-linejoin:round;stroke-miterlimit:4;stroke-dasharray:none;stroke-opacity:1" />
</svg>
