<svg xmlns="http://www.w3.org/2000/svg" height="2750" width="1800"><path d="m414.02 341.54 14.92 22.37 17.53 23.86 31.32 36.54 83.71 80.17 10.81 13.61 6.71 14.73 4.1 22.370.9319.58-2.61 13.8-8.39 11.56-36.92 41.2-1.86 5.78v4.85l3.36 6.15 35.8 24.42 37.29 27.59 32.25 25.36 7.46 3.92 10.25 3.17 19.760.9312.31 5.41 7.64 6.53 11.93 13.42 51.64 40.46 18.27 17.53 8.76 12.68 16.59 28.71 18.27 36.36 22.75 43.63 7.27 19.39 3.54 14.36 6.9 52.95 5.97 19.39 5.59 19.76 1.31 20.14-0.5620.51M1079.8 1868.49l24.8 29.08 22.93 24.42 9.14 15.47 12.86 23.86 2.42 7.27 2.42 14.54 3.36 9.32 9.69 16.78 5.78 9.32 7.08 4.66 7.460.935.59-1.31 9.88-6.15 6.34-5.41 5.41-9.32 2.8-7.46 4.1-5.97 17.9-10.07 10.63-1.86 7.64-0.376.9 2.8 14.92 9.32 15.66 13.98 61.15 67.49 15.85 14.73 35.24 24.8 24.8 20.32 4.47 5.59 3.17 13.24 3.92 5.22 60.97 55.19 15.85 15.66 10.44 16.59 16.7844.08.39 25.36 12.68 45.12 27.22 55.93 8.58 19.58 1.31 8.39 5.78 52.95 4.47 15.66 34.68 76.25 11.93 51.27" style="opacity:1;fill:none;fill-opacity:1;fill-rule:nonzero;stroke:#13ae99;stroke-width:5;stroke-linecap:butt;stroke-linejoin:round;stroke-miterlimit:4;stroke-dasharray:none;stroke-opacity:1"/><path d="m1079.8 1868.49-13.61-13.42-49.97-43.44-13.8-36.17-11-13.61-5.78-13.05-9.32-27.59-5.41-12.31-6.71-6.34-17.53-18.46-18.83-38.78-13.8-24.24-16.22-28.53-10.07-29.83-7.27-9.69-14.73-65.07-1.68-12.49v-30.76l8.39-49.59-.37-16.97-3.73-24.98 1.68-40.27 2.05-13.05 9.88-30.76-.56-16.03-3.92-13.8-8.02-13.8-5.59-9.32-.93-7.27.93-5.97 4.47-10.63 2.05-12.31 8.58-52.95-.37-12.3" style="opacity:1;fill:none;fill-opacity:1;fill-rule:nonzero;stroke:#13ae99;stroke-width:1;stroke-linecap:butt;stroke-linejoin:round;stroke-miterlimit:4;stroke-dasharray:none;stroke-opacity:1"/><path d="m250.88 1363.42 9.69-43.63-.19-13.61-1.86-30.02 2.61-39.15-5.59-31.88.56-28.53-6.9-21.44-.93-23.86-6.53-17.15.75-13.24 6.15-20.69-2.24-11.37-38.97-100.12-3.92-16.78-14.17-29.83-8.39-27.59-5.03-24.42" style="opacity:1;fill:none;fill-opacity:1;fill-rule:nonzero;stroke:#13ae99;stroke-width:5;stroke-linecap:butt;stroke-linejoin:round;stroke-miterlimit:4;stroke-dasharray:none;stroke-opacity:1"/><path d="m175.93 870.1-.93-4.48 2.64-19.51-6.33-27.42 2.11-5.8 1.85-12.92-1.85-10.02-12.13-10.81-34.8-29.79-5.54-7.12.79-6.59 4.22-6.33 15.82-12.92 3.96-7.91 8.96-25.58 1.05-10.02-1.05-13.71 1.32-12.66 2.9-5.8 13.71-15.56 23.99-38.76 6.59-14.77 16.35-98.61-1.05-17.93-10.28-82.79 2.64-7.65 6.86-20.57 4.75-5.54 11.07-9.49 10.81-4.22 10.55-8.96 24.26-11.07 16.61-4.48 52.73-16.35 17.67-1.58 13.71 3.96 10.55 10.28 4.75 8.17 18.85 36.74M250.88 1363.42l-12.33 68.03-1.85 17.14 4.48 14.77-0.7911.6-6.33 16.61-5.54 25.84-4.48 27.42 3.43 21.36-1.32 5.54-6.33 10.02-1.05 10.55-3.69 24.26-10.02 31.38" style="opacity:1;fill:none;fill-opacity:1;fill-rule:nonzero;stroke:#13ae99;stroke-width:1;stroke-linecap:butt;stroke-linejoin:round;stroke-miterlimit:4;stroke-dasharray:none;stroke-opacity:1"/><text style="font-style:normal;font-weight:400;font-size:144px;line-height:125%;font-family:Sans;-inkscape-font-specification:Sans;letter-spacing:0;word-spacing:0;fill:#000;fill-opacity:1;stroke:none" xml:space="preserve" y="206.96" x="89.45"><tspan y="206.96" x="89.45">2020</tspan></text></svg>