<?xml version="1.0" encoding="UTF-8" standalone="no"?>
<svg
   xmlns:dc="http://purl.org/dc/elements/1.1/"
   xmlns:cc="http://creativecommons.org/ns#"
   xmlns:rdf="http://www.w3.org/1999/02/22-rdf-syntax-ns#"
   xmlns:svg="http://www.w3.org/2000/svg"
   xmlns="http://www.w3.org/2000/svg"
   xmlns:xlink="http://www.w3.org/1999/xlink"
   viewBox="0 0 3300 6900"
   height="6900"
   width="3300"
   version="1.1"
   id="svg2">
  <metadata
     id="metadata8">
    <rdf:RDF>
      <cc:Work
         rdf:about="">
        <dc:format>image/svg+xml</dc:format>
        <dc:type
           rdf:resource="http://purl.org/dc/dcmitype/StillImage" />
        <dc:title></dc:title>
      </cc:Work>
    </rdf:RDF>
  </metadata>
  <defs
     id="defs6" />
  <image
     style="display:none"
     y="-2707.5381"
     x="0"
     id="image10"
     xlink:href="file:///home/alexander/timelines/timelines/streetmap/../streetmap/adlosm.png"
     preserveAspectRatio="none"
     height="9407.5381"
     width="3597" />
  <path
     id="path4157"
     d="m 1777.0432,2316.2735 1.2225,-26.894 9.3722,-13.447 28.5239,-24.4492 30.1539,-34.6362 6.9273,-15.8919 2.8524,-33.8213 9.3721,-19.5593 17.1144,-16.7069 24.8566,-7.3347 21.1893,-5.7048 24.8566,-14.6695 13.447,-9.3722 33.4138,-15.8919 40.7485,-29.7464 28.1165,-20.3743 75.3848,-44.0084 87.2018,-52.9731 19.1518,-12.2245 24.0416,-21.5967 10.5947,-14.6695 12.2245,-22.0042 41.5635,-74.1623 12.6321,-16.7069 62.3452,-55.418 21.5967,-26.4866 17.1144,-31.3763 7.3347,-22.4117 19.5593,-24.0416 31.7839,-17.9294 20.3742,-15.077 20.7818,-22.0042 29.7464,-24.0416 14.262,-21.1892 7.3347,-25.6716 -3.6673,-48.0833 -8.1497,-90.0542 5.2973,-24.8566 11.817,-23.6341 16.2994,-16.2995 13.8545,-8.1497 18.3369,-8.5572 88.0168,-5.2973 25.6716,-8.1497 18.3368,-18.3368 9.3722,-21.5967 0,-18.7443 3.4216,-35.7749 0.5451,-3.4339"
     style="fill:none;fill-rule:evenodd;stroke:#77bc1f;stroke-width:5;stroke-linecap:butt;stroke-linejoin:round;stroke-miterlimit:4;stroke-dasharray:none;stroke-opacity:1" />
  <path
     id="path4159"
     d="m 1777.4507,2315.051 -2.0374,31.3764 30.1539,163.4016 -4.0748,6.1123 -24.8566,14.6695 -19.3368,2.8069 -3.6661,0.8604"
     style="fill:none;fill-rule:evenodd;stroke:#77bc1f;stroke-width:1px;stroke-linecap:butt;stroke-linejoin:round;stroke-opacity:1" />
  <path
     id="path4171"
     d="m 1619,2850 -13,31 -19,27 -45,33.5 -100.5,60 -188,117.5 -270.5,167 -205.5,126 -20.5,10 -32.5,9 -31,5.5 -81,5"
     style="fill:none;fill-rule:evenodd;stroke:#e71939;stroke-width:5;stroke-linecap:butt;stroke-linejoin:round;stroke-miterlimit:4;stroke-dasharray:none;stroke-opacity:1" />
  <path
     id="path4173"
     d="m 502.5,3447.5 113,-6"
     style="fill:none;fill-rule:evenodd;stroke:#e71939;stroke-width:1px;stroke-linecap:butt;stroke-linejoin:round;stroke-opacity:1" />
  <path
     id="path4175"
     d="m 1618.5,2850 4.5,-15 -2.5,-66 2,-10.5 -5.5,-81.5 -1.3683,-21.3033"
     style="fill:none;fill-rule:evenodd;stroke:#e71939;stroke-width:1px;stroke-linecap:butt;stroke-linejoin:round;stroke-opacity:1" />
  <text
     x="89.453125"
     y="6797.9609"
     id="text3788"
     xml:space="preserve"
     style="font-style:normal;font-weight:normal;font-size:144px;line-height:125%;font-family:Sans;-inkscape-font-specification:Sans;letter-spacing:0px;word-spacing:0px;fill:#000000;fill-opacity:1;stroke:none"><tspan
       x="89.453125"
       y="6797.9609"
       id="tspan2">1995</tspan></text>
  <text
     x="89.453102"
     y="206.96097"
     id="text3792"
     xml:space="preserve"
     style="font-style:normal;font-weight:normal;font-size:144px;line-height:125%;font-family:Sans;-inkscape-font-specification:Sans;letter-spacing:0px;word-spacing:0px;fill:#000000;fill-opacity:1;stroke:none"><tspan
       x="89.453102"
       y="206.96097"
       id="tspan1">1995</tspan></text>
  <path
     style="fill:none;fill-rule:evenodd;stroke:#77bc1f;stroke-width:1px;stroke-linecap:butt;stroke-linejoin:round;stroke-opacity:1"
     d="m 1713.3508,2580.7498 37.0925,-2.1213 2.4749,-3.182 -1.4142,-37.1231 3.182,-4.9497"
     id="path4167" />
  <path
     style="fill:none;fill-rule:evenodd;stroke:#77bc1f;stroke-width:1px;stroke-linecap:butt;stroke-linejoin:round;stroke-opacity:1"
     d="m 1713.4755,2581.1389 -187.4432,10.5946"
     id="path4150" />
</svg>
