<?xml version="1.0" encoding="UTF-8" standalone="no"?>
<svg
   xmlns:dc="http://purl.org/dc/elements/1.1/"
   xmlns:cc="http://creativecommons.org/ns#"
   xmlns:rdf="http://www.w3.org/1999/02/22-rdf-syntax-ns#"
   xmlns:svg="http://www.w3.org/2000/svg"
   xmlns="http://www.w3.org/2000/svg"
   xmlns:xlink="http://www.w3.org/1999/xlink"
   id="svg2"
   version="1.1"
   width="3500"
   height="6950"
   viewBox="0 2300 3500 6950">
  <metadata
     id="metadata8">
    <rdf:RDF>
      <cc:Work
         rdf:about="">
        <dc:format>image/svg+xml</dc:format>
        <dc:type
           rdf:resource="http://purl.org/dc/dcmitype/StillImage" />
        <dc:title></dc:title>
      </cc:Work>
    </rdf:RDF>
  </metadata>
  <defs
     id="defs6" />
  <image
     xlink:href="../streetmap/adlosm.png"
     style="display:none"
     y="-357.53809"
     x="0"
     id="image10"
     preserveAspectRatio="none"
     height="9407.5381"
     width="3597" />
  <path
     style="fill:none;fill-rule:evenodd;stroke:#77bc1f;stroke-width:5;stroke-linecap:butt;stroke-linejoin:round;stroke-miterlimit:4;stroke-dasharray:none;stroke-opacity:1"
     d="m 1777.0432,4666.2735 1.2225,-26.894 9.3722,-13.447 28.5239,-24.4492 30.1539,-34.6362 6.9273,-15.8919 2.8524,-33.8213 9.3721,-19.5593 17.1144,-16.7069 24.8566,-7.3347 21.1893,-5.7048 24.8566,-14.6695 13.447,-9.3722 33.4138,-15.8919 40.7485,-29.7464 28.1165,-20.3743 75.3848,-44.0084 87.2018,-52.9731 19.1518,-12.2245 24.0416,-21.5967 10.5947,-14.6695 12.2245,-22.0042 41.5635,-74.1623 12.6321,-16.7069 62.3452,-55.418 21.5967,-26.4866 17.1144,-31.3763 7.3347,-22.4117 19.5593,-24.0416 31.7839,-17.9294 20.3742,-15.077 20.7818,-22.0042 29.7464,-24.0416 14.262,-21.1892 7.3347,-25.6716 -3.6673,-48.0833 -8.1497,-90.0542 5.2973,-24.8566 11.817,-23.6341 16.2994,-16.2995 13.8545,-8.1497 18.3369,-8.5572 88.0168,-5.2973 25.6716,-8.1497 18.3368,-18.3368 9.3722,-21.5967 v -18.7443 l 3.4216,-35.7749 2.6008,-1.3782 4.2426,0.3536 1.0607,26.5165"
     id="path4157" />
  <path
     style="fill:none;fill-rule:evenodd;stroke:#77bc1f;stroke-width:1px;stroke-linecap:butt;stroke-linejoin:round;stroke-opacity:1"
     d="m 1777.4507,4665.051 -2.0374,31.3764 30.1539,163.4016 -4.0748,6.1123 -24.8566,14.6695 -25.2641,3.6673 -33.0063,2.0374 -3.6674,5.2974 2.4449,35.4512 -3.6674,4.0748 -187.4432,10.5946 -61.9677,2.8045 -3.5355,-0.3535"
     id="path4159" />
  <path
     style="fill:none;fill-rule:evenodd;stroke:#77bc1f;stroke-width:5;stroke-linecap:butt;stroke-linejoin:round;stroke-miterlimit:4;stroke-dasharray:none;stroke-opacity:1"
     d="m 2384.6038,4089.6819 -1.2225,-5.7048 12.2246,-12.2246 5.7048,-8.5572"
     id="path4161" />
  <path
     style="fill:none;fill-rule:evenodd;stroke:#77bc1f;stroke-width:1px;stroke-linecap:butt;stroke-linejoin:round;stroke-opacity:1"
     d="m 2400.4957,4063.6028 6.1123,-8.9647 -13.447,-15.4844 -4.8899,-16.7069 4.8899,-31.7839 -4.161,-16.1629 -15,-16.5 -114,-104 -10.5,-18 -6,-23 -6,-92.5 -10.5,-18 -23.5,-40 -6,-15.5 -11,-62.5 v -16 l 13,-115.5 -5.5,-9 -124.5,-38.5"
     id="path4163" />
  <path
     style="fill:none;fill-rule:evenodd;stroke:#77bc1f;stroke-width:1px;stroke-linecap:butt;stroke-linejoin:round;stroke-opacity:1"
     d="m 2810.7495,3531.0316 -2.4749,3.5355 -78.4889,5.6568 -4.5962,-2.1213 -7.071,-78.4888 -25.1023,-32.5269 -4.2427,-17.6777 4.5962,-16.2635 18.7384,-25.4558 -3.5356,-67.8823 2.4749,-0.7071 7.0711,-0.3535 1.0606,-2.1213 -0.7071,-10.9602 -12.0208,-15.5563 -8.8388,-134.7039 3.182,-7.7782 6.7175,-6.7175 7.7781,-2.1213 14.4957,-1.0607 9.8995,-4.9497 7.4246,-10.2531 -0.7071,-3.889 -13.7885,-7.0711 -17.3242,-1.7677 -2.4749,-3.182 3.8892,-15.9099 10.253,-16.6171 13.0815,-11.6672 19.4454,-6.7176 22.981,-0.7071 13.7886,-6.7175 3.5355,-3.8891 v -1.7677 l -1.4142,-5.3033 -15.2028,-24.0416 v -19.799 l -3.5355,-4.5962 -12.728,-4.5962 -9.5459,-10.9602 -4.2426,-7.0711 1.4142,-5.3033 24.3952,-11.6672 18.3847,-18.7383 v -2.8285 l -7.4246,-16.9705 0.7071,-2.1214 4.2427,-1.0606 1.0606,0.7071 2.1213,4.5962 -0.7071,1.7678 -3.8891,1.7677 -0.3535,1.4142"
     id="path4165" />
  <path
     style="fill:none;fill-rule:evenodd;stroke:#e91938;stroke-width:5;stroke-linecap:butt;stroke-linejoin:round;stroke-miterlimit:4;stroke-dasharray:none;stroke-opacity:1"
     d="m 1619,5200 -13,31 -19,27 -45,33.5 -100.5,60 -188,117.5 -270.5,167 -205.5,126 -20.5,10 -32.5,9 -31,5.5 -81,5"
     id="path4171" />
  <path
     style="fill:none;fill-rule:evenodd;stroke:#e91938;stroke-width:1px;stroke-linecap:butt;stroke-linejoin:round;stroke-opacity:1"
     d="m 502.5,5797.5 113,-6"
     id="path4173" />
  <path
     style="fill:none;fill-rule:evenodd;stroke:#e91938;stroke-width:1px;stroke-linecap:butt;stroke-linejoin:round;stroke-opacity:1"
     d="m 1618.5,5200 4.5,-15 -2.5,-66 2,-10.5 -5.5,-81.5 -1.3683,-21.3033"
     id="path4175" />
  <path
     style="fill:none;fill-rule:evenodd;stroke:#77bc1f;stroke-width:5;stroke-linecap:butt;stroke-linejoin:round;stroke-miterlimit:4;stroke-dasharray:none;stroke-opacity:1"
     d="m 2803.5,3505 -3,-14.5"
     id="path4179" />
  <path
     style="fill:none;fill-rule:evenodd;stroke:#77bc1f;stroke-width:1px;stroke-linecap:butt;stroke-linejoin:round;stroke-opacity:1"
     d="m 2800.5,3493 -4.5,-50 v -23 l 3,-16.5 16.5,-63 -5,-50 -13.5,-27.5 v -14.5 l 6,-13.5 54.5,-89.5 76.5,-78.5 49,-104.5 -3,-3.5 -84,1 -15.5,-5.5 -18,-10.5 -13.5,-29.5 -6.5,-28.5 -5.5,-2.5 -18,5.5 -17.5,17 -5,0.5"
     id="path4181" />
  <text
     style="font-style:normal;font-weight:normal;font-size:144px;line-height:125%;font-family:Sans;-inkscape-font-specification:Sans;letter-spacing:0px;word-spacing:0px;fill:#000000;fill-opacity:1;stroke:none"
     xml:space="preserve"
     id="text3788"
     y="9147.9609"
     x="89.453125"><tspan
       id="tspan2"
       y="9147.9609"
       x="89.453125">2005</tspan></text>
  <text
     style="font-style:normal;font-weight:normal;font-size:144px;line-height:125%;font-family:Sans;-inkscape-font-specification:Sans;letter-spacing:0px;word-spacing:0px;fill:#000000;fill-opacity:1;stroke:none"
     xml:space="preserve"
     id="text3792"
     y="2506.96094"
     x="89.453102"><tspan
       id="tspan1"
       y="2506.96094"
       x="89.453102">2005</tspan></text>
  <path
     style="fill:none;fill-rule:evenodd;stroke:#77bc1f;stroke-width:1px;stroke-linecap:butt;stroke-linejoin:round;stroke-opacity:1"
     d="m 1463,4945 -19,-4 -74,-20 -30,1.5 -101,4 -4,2.5 7.5,118 -4,6 -122,5 -103,8 -23.5,-9.5 -108.5,7.5 -8,4.5 -7.5,27 -14,17 -60,52 -5,-3 1,-5.5 8.5,-7.5 -2.5,-40 4.5,-4 55,-2 9,-2"
     id="path4822" />
  <path
     id="path4167"
     d="m 1713.6738,4930.7498 36.7695,-2.1213 2.4749,-3.182 -1.4142,-37.1231 3.182,-4.9497"
     style="fill:none;fill-rule:evenodd;stroke:#77bc1f;stroke-width:1px;stroke-linecap:butt;stroke-linejoin:round;stroke-opacity:1" />
  <path
     id="path4169"
     d="m 2811.0002,3530.0008 3.5,3.5 302.4999,-19 4,-4.5 -34.5,-555.9998"
     style="fill:none;fill-rule:evenodd;stroke:#77bc1f;stroke-width:1px;stroke-linecap:butt;stroke-linejoin:round;stroke-opacity:1" />
</svg>
