<svg xmlns="http://www.w3.org/2000/svg" height="1350" width="2350"><text style="font-style:normal;font-weight:400;font-size:144px;line-height:125%;font-family:Sans;-inkscape-font-specification:Sans;letter-spacing:0;word-spacing:0;fill:#000;fill-opacity:1;stroke:none" xml:space="preserve" y="206.96" x="89.45"><tspan y="206.96" x="89.45">2015</tspan></text><path d="m967.03 1115.82 22.15-5.75 10.64 2.3 17.55 10.64 10.35 3.16 12.08-0.59.7-25.6 19.85-10.07h16.11l24.16 4.03 21.86 4.6 38.26 5.18 50.91 15.82 14.67 3.74 13.81.2914.38-4.89 12.08-7.48 10.07-9.2 5.75-10.93 69.03-176.32 6.33-29.91 26.46-231.26 5.75-18.7 8.34-24.74 9.2-20.42 17.55-31.93 27.61-32.79 25.6-21.86 18.41-12.08 31.64-16.97 295.98-121.38 37.11-18.12 29.63-20.71 76.22-61.27 33.37-19.85 42.86-11.79 29.34-1.73 73.92 10.35" style="opacity:1;fill:none;fill-opacity:1;fill-rule:nonzero;stroke:green;stroke-width:5;stroke-linecap:butt;stroke-linejoin:round;stroke-miterlimit:4;stroke-dasharray:none;stroke-opacity:1"/><path d="m415.37 757.64 1.3 1.79-1.36 7.01-2.85 2.85-77.08-150.31-37.02-73.42" style="opacity:1;fill:none;fill-opacity:1;fill-rule:nonzero;stroke:#90268f;stroke-width:5;stroke-linecap:butt;stroke-linejoin:round;stroke-miterlimit:4;stroke-dasharray:none;stroke-opacity:1"/><path d="m416.68 759.43-.69-5.09 5.64-7.27 4.07.665.9 8.75.414.47-2.24 8.54v7.73l6.71 9.15 5.29 3.66 6.1 3.46 2.64 4.07 4.27 7.53 5.49 2.03 7.93-4.88h4.07l4.68 9.15 13.22 37.63 8.34 9.97 12.61 14.24 6.51 7.53 15.66 23.39 1.83 10.98 4.07 44.54 5.49 24.2 4.88 9.76 8.34 6.51 12.81 7.73 3.25 4.07 6.92 32.75.213.83-3.46 19.12.6111.8 3.86 31.73-7.32 48.41 2.85 3.46 19.12 7.12 14.24 4.27h3.86l9.56 9.56 9.56 4.68 11.39 1.63 8.95-1.42 7.12-3.46 4.68-6.51.2-5.7 2.64-2.03 18.1 3.46 10.78-3.05 12.61-6.92 8.75-8.95 7.32-2.85 24.61-12.41 20.95-3.46 19.53-1.02 2.85 2.03 1.83 8.34 2.03 1.02 10.78-0.22.49-5.9 12.81-0.410.173.66 5.29 1.22 6.1-2.24 3.46-6.71 4.68 1.02" style="opacity:1;fill:none;fill-opacity:1;fill-rule:nonzero;stroke:#90268f;stroke-width:1;stroke-linecap:butt;stroke-linejoin:round;stroke-miterlimit:4;stroke-dasharray:none;stroke-opacity:1"/><path d="m614.85 1184.41 9.04-2.87 9.2.7213.23.2913.52-3.02 9.11 1.63M614.85 1184.41l-.74-1.57 9.49-20.85 7.05-39.69 3.6-26.03 1.73-14.67 2.01-4.17 5.18-3.02 5.47-1.44 4.31-5.75 4.89-21.43 2.73-31.64 1.58-17.55 9.06-20.42-.29-3.74-2.44-6.9 24.02-60.55 4.75-26.61-.72-3.02-30.06-15.53-8.34-3.02-14.67-3.02-11.65-2.88-10.93-.58-18.12 4.17-9.92-.72-7.05-1.15-14.38-5.32-7.05-.86-6.18.29-33.51 11.79-3.6 3.31-5.75 9.35h-5.75M501.35 862.55l-4.17-.14-37.11 20.85-10.64 3.31-11.79.86-2.44-1.73-15.39-54.94-2.88-5.03v-5.47l-12.94-42.57 1.73-8.92 6.47-11.22 4.49 1.87M298.37 545.56l-75.45-147.11-16.11-35.38-6.62-7.19-10.07-4.03-18.98-15.82-17.55-26.17-20.13-44.01v-4.89l3.45-4.03 8.63-1.73h30.21l11.51-0.860.072.59h71.62l2.3 2.3v4.03l4.31 4.89 4.6-1.15 5.75 6.33.295.47-5.18 7.48-88.59-17.26-10.07-6.04-6.62-7.77" style="opacity:1;fill:none;fill-opacity:1;fill-rule:nonzero;stroke:#90268f;stroke-width:1;stroke-linecap:butt;stroke-linejoin:round;stroke-miterlimit:4;stroke-dasharray:none;stroke-opacity:1"/></svg>