<?xml version="1.0" encoding="UTF-8" standalone="no"?>
<svg
   xmlns:dc="http://purl.org/dc/elements/1.1/"
   xmlns:cc="http://creativecommons.org/ns#"
   xmlns:rdf="http://www.w3.org/1999/02/22-rdf-syntax-ns#"
   xmlns:svg="http://www.w3.org/2000/svg"
   xmlns="http://www.w3.org/2000/svg"
   xmlns:xlink="http://www.w3.org/1999/xlink"
   viewBox="0 0 3000 1700"
   height="1700"
   width="3000"
   id="svg2"
   version="1.1">
  <metadata
     id="metadata8">
    <rdf:RDF>
      <cc:Work
         rdf:about="">
        <dc:format>image/svg+xml</dc:format>
        <dc:type
           rdf:resource="http://purl.org/dc/dcmitype/StillImage" />
        <dc:title></dc:title>
      </cc:Work>
    </rdf:RDF>
  </metadata>
  <defs
     id="defs6" />
  <image
     xlink:href="../streetmap/toyosm.png"
     style="display:none"
     width="2977"
     height="2435.7273"
     preserveAspectRatio="none"
     id="image10"
     x="-50"
     y="-160.72729" />
  <path
     id="path840"
     d="m 2837.017,572.0169 4.8813,22.2712 1.5254,15.2543 -2.1356,14.644 -67.4237,137.5932 -5.1864,14.339 -45.4577,420.4068 6.1017,80.8475 -19.5254,161.6949 0.3051,30.5085"
     style="opacity:1;fill:none;fill-opacity:1;fill-rule:nonzero;stroke:#3698c4;stroke-width:5;stroke-linecap:butt;stroke-linejoin:round;stroke-miterlimit:4;stroke-dasharray:none;stroke-opacity:1" />
  <path
     id="path836"
     d="m 2710.1017,1469.5763 -3.661,3.9661 -61.322,0.3051 -38.7458,-17.695 h -4.8814 l -9.1525,21.6611 -7.017,3.9661 -2.6953,1.0295 -6.0367,14.7194"
     style="opacity:1;fill:none;fill-opacity:1;fill-rule:nonzero;stroke:#3698c4;stroke-width:1;stroke-linecap:butt;stroke-linejoin:round;stroke-miterlimit:4;stroke-dasharray:none;stroke-opacity:1" />
  <path
     id="path842"
     d="m 136.38855,876.2229 -0.21572,-5.1774 3.66736,-1.9416 0.21573,-3.6674 -20.70984,-35.1635 -12.51219,-14.8852 -0.21573,-4.746 31.71194,-22.22 29.55467,-25.2401 16.82674,-22.2199 99.6661,-125.5534 41.85114,-47.0286 77.01471,-86.9382 6.90328,-9.492 2.58873,-7.9819 17.2582,-57.815 7.98192,-13.1594 10.78637,-11.865 10.57065,-4.3145 8.41337,-0.4315 87.58537,16.611 5.82464,-0.2157 6.2561,-2.8045 35.81076,-36.0264 17.2582,-24.8087 19.41547,-56.08916 51.7746,-68.81707 1.07864,-9.92347"
     style="opacity:1;fill:none;fill-opacity:1;fill-rule:nonzero;stroke:#e70012;stroke-width:1;stroke-linecap:butt;stroke-linejoin:round;stroke-miterlimit:4;stroke-dasharray:none;stroke-opacity:1" />
  <path
     id="path844"
     d="m 692.74976,194.3083 3.23591,-7.98191 27.61312,-32.35912 9.70774,-6.90328 13.3751,-3.23592 12.94365,1.29437 15.74811,7.98192 9.27628,7.98191 43.1455,60.83516 7.98192,7.55046 8.41337,4.53028 144.75314,66.22833 8.8448,12.0808 16.8268,34.5164 5.6089,6.256 59.7565,23.2986 9.492,-0.2157 9.7078,-4.9617 47.2443,-47.6758 12.2964,-4.746 15.5324,2.5887 148.2048,36.458 12.9437,14.4537"
     style="opacity:1;fill:none;fill-opacity:1;fill-rule:nonzero;stroke:#e70012;stroke-width:5;stroke-linecap:butt;stroke-linejoin:round;stroke-miterlimit:4;stroke-dasharray:none;stroke-opacity:1" />
  <text
     x="89.453133"
     y="206.96094"
     id="text3759"
     xml:space="preserve"
     style="font-style:normal;font-weight:normal;font-size:143.99993896px;line-height:125%;font-family:Sans;-inkscape-font-specification:Sans;letter-spacing:0px;word-spacing:0px;fill:#000000;fill-opacity:1;stroke:none"><tspan
       x="89.453133"
       y="206.96094"
       id="tspan1">2020</tspan></text>
</svg>
