<svg xmlns="http://www.w3.org/2000/svg" height="3700" width="1950"><text style="line-height:125%;-inkscape-font-specification:Sans" y="206.95956" x="89.453133" font-weight="400" font-size="144px" font-family="Sans" letter-spacing="0" word-spacing="0"><tspan y="206.95956" x="89.453133">1920</tspan></text><path d="M1304.302 1755.314l40.986-82.013 14.643-18.055 133.622-103.869 17.618-18.696 34.876-44.224 7.91-12.225v-12.584l-5.753-26.606-10.067-19.775-5.393-162.515 1.438-20.134 48.539-113.976 1.438-21.573-8.27-25.887-50.336-119.73-1.079-18.336 2.158-17.618 14.022-25.887 72.269-138.425 5.393-21.573 42.067-170.425 8.27-14.741 15.1-17.258 70.112-77.303 6.471-15.1 55.73-118.291 2.157-17.618-9.348-189.84" style="line-height:normal;font-variant-ligatures:normal;font-variant-position:normal;font-variant-caps:normal;font-variant-numeric:normal;font-variant-alternates:normal;font-feature-settings:normal;text-indent:0;text-align:start;text-decoration-line:none;text-decoration-style:solid;text-decoration-color:#000;text-transform:none;text-orientation:mixed;white-space:normal;shape-padding:0;isolation:auto;mix-blend-mode:normal;solid-color:#000;solid-opacity:1" color="#000" font-weight="400" font-family="sans-serif" overflow="visible" fill="none" stroke="#dd052b" stroke-width="5" stroke-linejoin="round"/><path d="M1308.794 1757.583l40.808-81.784 2.932-2.975 3.694-1.068 491.95 184.048 2.543 3.56 2.718 5.358 6.503 27.36-.756 40.763 9.873 33.79 5.694 18.85-.425 43.785" fill="none" stroke="#004a99" stroke-width="5" stroke-linejoin="round"/></svg>