<?xml version="1.0" encoding="UTF-8" standalone="no"?>
<!-- Created with Inkscape (http://www.inkscape.org/) -->

<svg
   xmlns:dc="http://purl.org/dc/elements/1.1/"
   xmlns:cc="http://creativecommons.org/ns#"
   xmlns:rdf="http://www.w3.org/1999/02/22-rdf-syntax-ns#"
   xmlns:svg="http://www.w3.org/2000/svg"
   xmlns="http://www.w3.org/2000/svg"
   xmlns:xlink="http://www.w3.org/1999/xlink"
   xmlns:inkscape="http://www.inkscape.org/namespaces/inkscape"
   version="1.1"
   width="3369"
   height="4900"
   viewBox="0, 0, 3369, 4900"
   id="svg2">
  <metadata
     id="metadata8">
    <rdf:RDF>
      <cc:Work
         rdf:about="">
        <dc:format>image/svg+xml</dc:format>
        <dc:type
           rdf:resource="http://purl.org/dc/dcmitype/StillImage" />
        <dc:title />
      </cc:Work>
    </rdf:RDF>
  </metadata>
  <defs
     id="defs6" />
  <image
     xlink:href="../streetmap/atlosm.png"
     style="display:none"
     id="image10"
     height="5053.5"
     width="3369"
     y="-153.5"
     x="0" />
  <path
     d="m 497.27417,4791.4032 -1.09668,-69.0908 -8.77344,-24.127 -17.19331,-33.9611 -11.32035,-87.7703 4.74027,-23.4199 111.50777,-357.128 2.19336,-36.1904 -4.03317,-41.7098 6.96966,-26.7099 38.73733,-62.8643 21.9336,-23.0663 37.35915,-26.3924 21.47199,-22.179 9.90614,-22.6768 9.48054,-68.3476 22.67672,-153.5713 33.64352,-139.9854 16.06062,-36.1543 12.41703,-17.2294 67.28702,-73.4775 34.38665,-52.6767 8.38387,-28.0521 0.35355,-82.2509 9.90614,-19.8483 22.04163,-15.036 35.87289,-0.7432 28.75903,-5.4473 66.5079,-34.7042 21.544,-18.9971 39.8341,-61.0245 57.7345,-85.8585 8.1024,-9.9422 42.3809,-26.3203 0.3536,-67.5325 -2.1934,-97.6045 3.2901,-94.3145 12.0634,-39.4805 2.1934,-25.2236 0,-59.2207 1.0967,-80.0576 -5.4834,-50.4473 -9.5165,-22.2872 -5.837,-16.0966 2.1933,-106.3779 1.0967,-31.8037 7.7127,-22.7848 46.7317,-42.3449 33.6436,-26.7099 31.1686,-28.9393 14.1487,-19.2425 24.5166,-47.9364 57.0273,-79.3145 13.1602,-39.798 10.9668,-49.3506 6.5801,-35.1297 12.8426,-21.6522 78.1818,-74.8917 15.3535,-29.5383 1.7317,-39.0188 -0.01,-35.837 -9.0909,-23.7013 -15.6977,-24.4644 -26.2598,-17.2236 -34.9755,-30.4141 -19.4532,-36.1269 -22.8398,-51.6739 -2.5498,-26.5469 6.9336,-104.2568 9.1875,-86.8037 13.9336,-32.417 25.3535,-32.9004 9.8037,-25.3476 -1.1328,-300.8008 2.3203,-35.3838 17.5137,-42.127 48.1211,-95.8974 26.0605,-66.3506 11.6977,-50.63418 10.5612,-10.69187 101.5295,0.56576 20.1958,-12.03501 31.6302,-45.51355 0.7734,-60.99379 -7.6307,-53.23482"
     inkscape:connector-curvature="0"
     id="path3006-6"
     style="fill:none;stroke:#f2292d;stroke-width:5;stroke-linecap:butt;stroke-linejoin:round;stroke-miterlimit:4;stroke-opacity:1;stroke-dasharray:none" />
  <path
     d="m 492.40918,4791.4287 -1.09668,-69.0908 -8.77344,-24.127 -17.54687,-32.9004 -10.9668,-88.831 4.38672,-24.127 111.86133,-356.4209 2.19336,-36.1904 -4.38672,-42.7705 7.67676,-27.417 38.38378,-62.5107 21.9336,-24.127 39.48047,-28.5137 18.64355,-18.6435 10.9668,-23.0303 8.77344,-67.9941 23.03027,-154.6319 33.99707,-139.2783 15.35352,-35.0937 12.06347,-18.6436 67.99414,-73.4775 35.09375,-53.7373 7.67676,-25.2237 0,-82.2509 10.9668,-23.0303 25.22363,-16.4502 37.28711,-1.0967 25.2236,-4.3867 65.8008,-33.9971 20.8369,-18.6435 39.4805,-60.3174 57.0273,-84.4443 9.8702,-12.0635 41.6738,-26.3203 0,-64.7041 -2.1934,-97.6045 3.2901,-94.3145 12.0634,-39.4805 2.1934,-25.2236 0,-59.2207 1.0967,-80.0576 -5.4834,-50.4473 -9.8701,-21.9336 -5.4834,-16.4502 2.1933,-106.3779 1.0967,-31.8037 8.7734,-26.3203 44.9639,-40.5772 33.9971,-27.417 33.9971,-30.707 10.9667,-15.3535 25.2237,-49.3506 57.0273,-78.9609 13.1602,-38.3838 10.9668,-49.3506 6.5801,-36.1904 14.2568,-24.127 76.7676,-73.4775 15.3535,-27.417 -1.0967,-36.1904 -10.9668,-36.1905 -7.6767,-21.9336 7.6767,-30.707 19.7402,-25.2236 91.0245,-61.4141 17.5468,-24.1269 13.1602,-41.6739 16.4502,-17.5469 21.9336,-14.2568 70.1875,-31.8037 21.9336,-27.417 15.3535,-32.9004 31.8037,-83.3476 43.8672,-65.8008 26.3203,-38.3838 28.5137,-24.127 92.1211,-66.8974 46.0605,-49.3506 41.6738,-21.9336 41.6739,-24.1269 98.7011,-58.1241 41.6739,-54.834 37.2871,-18.6435 106.3779,-52.64064 122.8281,-99.79785"
     inkscape:connector-curvature="0"
     id="path3006"
     style="fill:none;stroke:#fee615;stroke-width:5;stroke-linecap:butt;stroke-linejoin:round;stroke-miterlimit:4;stroke-opacity:1;stroke-dasharray:none" />
  <path
     d="m 176.56543,3034.5479 49.35059,-5.4834 19.74023,1.0966 30.70703,9.8702 48.25391,23.0302 63.60742,23.0303 19.74023,1.0967 31.80371,-7.6768 69.09082,-30.707 39.48047,-15.3535 114.05469,-20.8369 48.25391,-7.6768 32.90039,-3.29 81.15429,1.0966 36.19043,2.1934 93.21778,3.29 38.38379,-3.29 39.48048,0 40.5771,-2.1934 41.6739,6.5801 28.5136,6.5801 33.9971,18.6436 89.9277,69.0908 23.0303,17.5468 20.8369,2.1934 27.417,-2.1934 29.6104,-5.4834 40.5771,-15.3535 131.6016,-47.1572 42.7705,-9.8701 39.4805,-9.8701 30.707,-13.1602 42.7705,-38.3838 35.0937,-27.417 33.9971,-15.3535 63.6074,-12.0635 52.6407,-10.9668 36.1904,-1.0966 27.417,5.4834 31.8037,18.6435 36.1904,10.9668 31.8037,-1.0967 36.1905,-20.8369 42.7705,-30.707 36.1904,-23.0303 42.7705,-5.4834 41.6738,-7.6767 26.3204,-13.1602 17.5468,-17.5469 16.4502,-32.9004 15.3535,-40.5771 16.4502,-15.3535 23.0303,-12.0635 21.9336,-4.3867 58.124,0 70.1875,1.0967 19.7403,4.3867 23.0302,1.0967 40.5772,-14.2569 142.5683,-59.2207 31.8038,-8.7734 26.3203,2.1933 23.0302,8.7735 29.6104,28.5137 21.9336,27.4169 15.3535,14.2569 33.9971,12.0635 63.6074,14.2568 125.0215,30.707 128.3115,12.0635 43.8672,0"
     inkscape:connector-curvature="0"
     id="path3776"
     style="fill:none;stroke:#0092d1;stroke-width:5;stroke-linecap:butt;stroke-linejoin:round;stroke-miterlimit:4;stroke-opacity:1;stroke-dasharray:none" />
  <path
     d="m 711.74512,2746.1211 6.58008,35.0937 5.48339,27.417 18.64356,28.5137 21.93359,25.2236 7.67676,35.0938 10.9668,62.5107 14.25683,17.5469 43.31885,21.3853 41.12549,2.0966 73.39746,2.7417 33.27051,-2.79 51.25386,-1.5 34.9488,-0.6934 39.3605,5.4062 32.0687,7.899 31.9004,18.0469 87.6377,66.3008 24.6753,19.2885 25.2236,3.2901 32.352,-4.9351 19.0786,-2.9834 71.4639,-25.9502 38.8657,-16.0302 60.7857,-20.1919 30.8838,-6.8218 51.9956,-13.5635 30.0137,-12.6118 37.5288,-34.2388 40.1904,-31.0136 35.5454,-15.9019 99.6362,-20.2886"
     inkscape:connector-curvature="0"
     id="path3778"
     style="fill:none;stroke:#69bc46;stroke-width:5;stroke-linecap:butt;stroke-linejoin:round;stroke-miterlimit:4;stroke-opacity:1;stroke-dasharray:none" />
  <text
     x="89.453178"
     y="206.96094"
     id="text2987"
     xml:space="preserve"
     style="font-size:143.99993896px;font-style:normal;font-weight:normal;line-height:125%;letter-spacing:0px;word-spacing:0px;fill:#000000;fill-opacity:1;stroke:none;font-family:Sans;-inkscape-font-specification:Sans"><tspan
       x="89.453178"
       y="206.96094"
       id="tspan1">1995</tspan></text>
</svg>
