<?xml version="1.0" encoding="UTF-8" standalone="no"?>
<svg
   xmlns:dc="http://purl.org/dc/elements/1.1/"
   xmlns:cc="http://creativecommons.org/ns#"
   xmlns:rdf="http://www.w3.org/1999/02/22-rdf-syntax-ns#"
   xmlns:svg="http://www.w3.org/2000/svg"
   xmlns="http://www.w3.org/2000/svg"
   xmlns:xlink="http://www.w3.org/1999/xlink"
   version="1.1"
   id="svg2"
   width="4300"
   height="2950"
   viewBox="0 0 4300 2950">
  <metadata
     id="metadata8">
    <rdf:RDF>
      <cc:Work
         rdf:about="">
        <dc:format>image/svg+xml</dc:format>
        <dc:type
           rdf:resource="http://purl.org/dc/dcmitype/StillImage" />
        <dc:title></dc:title>
      </cc:Work>
    </rdf:RDF>
  </metadata>
  <defs
     id="defs6" />
  <image
     xlink:href="../basemap/nngosm.png"
     style="display:none"
     y="-246.85"
     x="-225"
     id="image10"
     preserveAspectRatio="none"
     height="3421.85"
     width="4666.15" />
  <path
     style="opacity:1.0;fill:none;stroke:#c1d60f;stroke-width:5;stroke-linejoin:round;stroke-opacity:1"
     d="m 1020.23,2045.18 61.17,24.03 149.29,49.4 30.33,5.39 322.92,0.47 85.36,0.94 29.83,7.65 73.0,20.4 35.1,5.0 176.0,-0.84 28.23,-4.71 66.86,-25.98 20.08,-4.44 39.69,4.32 74.72,-0.95 53.28,7.43 26.24,-0.3 84.88,-11.44 95.92,-29.56 53.81,-23.04 80.84,-44.5 31.81,-12.03 34.59,-7.07 148.97,4.83 75.74,2.17 158.79,26.27 104.99,18.51 25.0,11.64 46.93,39.05 134.46,123.46 34.72,17.19 30.47,9.32 36.93,-1.01 101.43,-21.35 70.4,-2.98 43.24,-6.98 137.59,-26.19 21.34,-7.36 42.85,-15.54 197.03,-40.83 16.35,-10.5 26.57,-29.19 12.57,-8.23 17.12,-2.72 32.32,-0.03"
     id="path836" />
  <path
     id="path816"
     d="m 1415.5,317.0 89.5,-1 333,-18 79,-10.5 40.5,8.5 59.5,16.5 10.5,10.5 13,17.5 33,10.5 46,3.5 45.5,-7.5 95,-28 35.5,0.5 90,17 35,25.5 49,34 16,9 33.5,4.5 78,1 31,9 18.5,15 7.5,24.5 v 18.5 l -13.5,236 -15,49 3,131 3.5,12 30,72.5 8.5,36.5 13,29.5 19.5,23.5 20,16 143.5,76 10,16.5 v 10 l -4.5,13.5 -19.5,34.5 -3.5,12 3,37.5 5,32 0.5,22.5 -7.5,21.5 -17,22 -84,87 -8,19 v 15 l 3,13.5 10,15.5 42,36.5 17.5,24.5 6.5,13 2.5,16.5 -1.5,37 4,18.5 16.5,26.5 31,50.5 44,72.5 7.5,23.5 2,24.5 2,37.5 5.5,194.5 7,41 17,36 17,22.5 30,32.5 20,37 7.5,28 2.5,42 v 327"
     style="opacity:1;fill:none;fill-opacity:1;fill-rule:nonzero;stroke:#0073be;stroke-width:5;stroke-linecap:butt;stroke-linejoin:round;stroke-miterlimit:4;stroke-dasharray:none;stroke-opacity:1" />
  <path
     id="path818"
     d="m 1832.5,117.0 -15.5,218 71,319 17.5,54.5 14.5,28.5 152,246.5 9,31.0 -1,20 -9.5,24 -4.5,32.5 5.91,36.35 67.94,119.5 21.15,56.82 -1.5,16.83 -5.5,11 -81,87.5 -57.5,76.5 -7.5,24 8,478 6,33.5 8.5,19.5 50.5,54 19,38.5 7.5,40 6,145 9,27.5 34,35 38.5,35.5 18,24 24,52.5 13,18.5 22,24 37,36 11.5,17.5 25,81 21.5,32.5 54.09,75.44 13.6,8.65 10.74,1.97 14.68,0.3 37.06,-12.15 398.98,-111.68 32.82,-5.71 115.16,-17.96 46.26,0.58 112.22,5.48"
     style="opacity:1;fill:none;fill-opacity:1;fill-rule:nonzero;stroke:#e4391f;stroke-width:5;stroke-linecap:butt;stroke-linejoin:round;stroke-miterlimit:4;stroke-dasharray:none;stroke-opacity:1" />
  <path
     id="path820"
     d="m 106,1127.5 56,-59 21,-12.5 71,-35 26.5,-7 476,1.5 23,-1.5 33,-15.0 47,-33.5 169,-66.5 35,-5.5 209.5,18.5 346,88 202,69.5 29,1.5 38,-6.5 69.5,-19.5 16.5,-4.5 39.5,4 20.5,18.5 23.5,28 22.5,40 64,113 22,58.5 9.5,12.5 14.5,7 h 15.5 l 813,1.5 510,3 72.5,-10.5 28.5,-5.5 14.5,-9 12.5,-20 8.5,-20 -1.5,-17.5 -32,-102 -5,-66.5 -29.5,-110.0 -16,-26 -19.5,-16.5 -21,-5 -86.5,-1.5"
     style="opacity:1;fill:none;fill-opacity:1;fill-rule:nonzero;stroke:#5eb759;stroke-width:5;stroke-linecap:butt;stroke-linejoin:round;stroke-miterlimit:4;stroke-dasharray:none;stroke-opacity:1" />
  <text
     x="89.45"
     y="206.96"
     id="text3019"
     xml:space="preserve"
     style="font-style:normal;font-weight:normal;font-size:144px;line-height:125%;font-family:Sans;-inkscape-font-specification:Sans;letter-spacing:0px;word-spacing:0px;fill:#000000;fill-opacity:1;stroke:none"><tspan
       x="89.45"
       y="206.96"
       id="tspan1">2020</tspan></text>
</svg>
