<?xml version="1.0" encoding="UTF-8" standalone="no"?>
<svg
   version="1.1"
   id="svg2"
   width="4300"
   height="2950"
   viewBox="0 0 4300 2950"
   xml:space="preserve"
   xmlns:xlink="http://www.w3.org/1999/xlink"
   xmlns="http://www.w3.org/2000/svg"
   xmlns:svg="http://www.w3.org/2000/svg"
   xmlns:rdf="http://www.w3.org/1999/02/22-rdf-syntax-ns#"
   xmlns:cc="http://creativecommons.org/ns#"
   xmlns:dc="http://purl.org/dc/elements/1.1/"><metadata
     id="metadata8"><rdf:RDF><cc:Work
         rdf:about=""><dc:format>image/svg+xml</dc:format><dc:type
           rdf:resource="http://purl.org/dc/dcmitype/StillImage" /></cc:Work></rdf:RDF></metadata><defs
     id="defs6" /><image
     xlink:href="../basemap/nngosm.png"
     style="display:none"
     y="-246.85"
     x="-225"
     id="image10"
     preserveAspectRatio="none"
     height="3421.85"
     width="4666.15" /><path
     style="fill:none;stroke:#0354a1;stroke-width:5;stroke-linejoin:round;stroke-opacity:1"
     d="m 1450.1,2241.91 v -53.48 l -4.83,-24.13 -5.23,-30.96 -0.4,-34.58 6.84,-90.48 2.41,-190.21 8.85,-203.88 2.81,-27.35 5.23,-16.89 10.05,-19.3 42.22,-54.69 6.03,-15.28 8.85,-51.07 8.44,-14.88 88.87,-90.08 6.84,-15.68 8.44,-26.14 28.55,-110.99 57.51,-114.21 20.91,-20.91 33.38,-17.69 222.38,-102.54 85.25,-49.06 68.77,-24.13 73.59,-28.95 38.2,-22.12 183.78,-103.75 43.03,-21.31 32.57,-8.04 37.4,-2.81 138.33,4.02 25.74,-3.22 43.43,-16.09 30.96,-26.14 57.51,-44.23 30.96,-12.06 24.93,-4.02 65.95,-1.61 29.76,-5.23 23.32,-10.05 35.39,-15.28"
     id="path1" /><path
     style="opacity:1;fill:none;stroke:#c1d60f;stroke-width:5;stroke-linejoin:round;stroke-opacity:1"
     d="m 1020.23,2045.18 61.17,24.03 149.29,49.4 30.33,5.39 322.92,0.47 85.36,0.94 29.83,7.65 73,20.4 35.1,5 176,-0.84 28.23,-4.71 66.86,-25.98 20.08,-4.44 39.69,4.32 74.72,-0.95 53.28,7.43 26.24,-0.3 84.88,-11.44 95.92,-29.56 53.81,-23.04 80.84,-44.5 31.81,-12.03 34.59,-7.07 148.97,4.83 75.74,2.17 158.79,26.27 104.99,18.51 25,11.64 46.93,39.05 134.46,123.46 34.72,17.19 30.47,9.32 36.93,-1.01 101.43,-21.35 70.4,-2.98 43.24,-6.98 137.59,-26.19 21.34,-7.36 42.85,-15.54 197.03,-40.83 16.35,-10.5 26.57,-29.19 12.57,-8.23 17.12,-2.72 32.32,-0.03"
     id="path836" /><path
     id="path816"
     d="m 1415.5,317 89.5,-1 333,-18 79,-10.5 40.5,8.5 59.5,16.5 10.5,10.5 13,17.5 33,10.5 46,3.5 45.5,-7.5 95,-28 35.5,0.5 90,17 35,25.5 49,34 16,9 33.5,4.5 88.05,-1.41 22.15,7.39 17.29,19.02 7.5,24.5 v 18.5 l -13.5,236 -15,49 3,131 3.5,12 30,72.5 8.5,36.5 13,29.5 19.5,23.5 20,16 143.5,76 10,16.5 v 10 l -4.5,13.5 -19.5,34.5 -3.5,12 3,37.5 5,32 0.5,22.5 -7.5,21.5 -17,22 -84,87 -8,19 v 15 l 3,13.5 10,15.5 42,36.5 17.5,24.5 6.5,13 2.5,16.5 -1.5,37 4,18.5 16.5,26.5 31,50.5 44,72.5 7.5,23.5 2,24.5 2,37.5 3.49,192.49 2.17,43.41 9.76,24.74 31.07,33.36 30,32.5 20,37 7.5,28 2.5,42 v 327"
     style="opacity:1;fill:none;fill-opacity:1;fill-rule:nonzero;stroke:#561786;stroke-width:5;stroke-linecap:butt;stroke-linejoin:round;stroke-miterlimit:4;stroke-dasharray:none;stroke-opacity:1" /><path
     id="path818"
     d="m 1832.5,117 -15.5,218 71,319 17.5,54.5 14.5,28.5 152,246.5 9,31 -1,20 -9.5,24 -4.5,32.5 5.91,36.35 67.94,119.5 21.15,56.82 -1.5,16.83 -5.5,11 -81,87.5 -57.5,76.5 -7.5,24 8,478 6,33.5 8.5,19.5 50.5,54 19,38.5 7.5,40 6,145 9,27.5 34,35 38.5,35.5 18,24 24,52.5 13,18.5 22,24 37,36 11.5,17.5 25,81 21.5,32.5 44.44,61.37 18.02,13.88 16.37,4.79 25.54,0.7 25.8,-6.52 398.98,-111.68 32.82,-5.71 115.16,-17.96 46.26,0.58 112.22,5.48"
     style="opacity:1;fill:none;fill-opacity:1;fill-rule:nonzero;stroke:#e4391f;stroke-width:5;stroke-linecap:butt;stroke-linejoin:round;stroke-miterlimit:4;stroke-dasharray:none;stroke-opacity:1" /><path
     id="path820"
     d="m 106,1127.5 56,-59 21,-12.5 71,-35 25.7,-4.99 476.8,-0.51 23,-1.5 33,-15 47,-33.5 169,-66.5 35,-5.5 209.5,18.5 346,88 234.17,81.16 18.54,1.9 22.32,-6.1 69.5,-37.19 20.12,-7.31 15.73,-0.81 15.73,5.62 20.1,15.28 22.29,38.46 22.5,40 64,113 22,58.5 9.5,12.5 14.5,7 h 15.5 l 813,1.5 510,3 97.03,-2.06 16.84,-8.31 14.9,-14.63 7.67,-22.01 0.06,-17.99 -1.5,-17.5 -32,-102 -5,-66.5 -29.5,-110 -16,-26 -19.5,-16.5 -21,-5 -86.5,-1.5"
     style="opacity:1;fill:none;fill-opacity:1;fill-rule:nonzero;stroke:#5eb759;stroke-width:5;stroke-linecap:butt;stroke-linejoin:round;stroke-miterlimit:4;stroke-dasharray:none;stroke-opacity:1" /><text
     x="89.45"
     y="206.96"
     id="text3019"
     xml:space="preserve"
     style="font-style:normal;font-weight:normal;font-size:144px;line-height:125%;font-family:Sans;-inkscape-font-specification:Sans;letter-spacing:0px;word-spacing:0px;fill:#000000;fill-opacity:1;stroke:none"><tspan
       x="89.45"
       y="206.96"
       id="tspan1">2025</tspan></text></svg>
