<?xml version="1.0" encoding="UTF-8" standalone="no"?>
<svg
   xmlns:dc="http://purl.org/dc/elements/1.1/"
   xmlns:cc="http://creativecommons.org/ns#"
   xmlns:rdf="http://www.w3.org/1999/02/22-rdf-syntax-ns#"
   xmlns:svg="http://www.w3.org/2000/svg"
   xmlns="http://www.w3.org/2000/svg"
   xmlns:xlink="http://www.w3.org/1999/xlink"
   viewBox="0 0 1450 1050"
   height="1050"
   width="1450"
   id="svg2"
   version="1.1">
  <metadata
     id="metadata8">
    <rdf:RDF>
      <cc:Work
         rdf:about="">
        <dc:format>image/svg+xml</dc:format>
        <dc:type
           rdf:resource="http://purl.org/dc/dcmitype/StillImage" />
        <dc:title></dc:title>
      </cc:Work>
    </rdf:RDF>
  </metadata>
  <defs
     id="defs6" />
  <image
     style="display:none"
     y="-11.2"
     x="-75"
     id="image10"
     xlink:href="../basemap/okaosm.png"
     preserveAspectRatio="none"
     height="1211.2"
     width="1514" />
  <path
     id="path836"
     d="m 106,716.25 0.25,33.5 5.25,14.5 10.5,11.5 85.5,72.75 5,10 1,9 -13.5,18.5 -1,17.5 2,14.5 6.5,6 5.5,0.5 33.5,-10 25,-8 52.5,-49.5 16.5,-11 79,-37 19.5,-10 37,-12 4.5,-6 -0.5,-13.5 -16,-43 -14,-29 -11,-10.5 -14.5,-9.5 -4,-9.5 8,-42.5 4.5,-12 9.5,-12 10.5,-1.5 16.5,4.5 8,-2 31,-39 36,-39 17.5,-4 52,-9 14,3 15.5,11 10,14 20,41.5 4.5,8 5,2.5 h 8 l 6,-7.5 17.5,-41 28,-46 0.5,-9.5 -0.5,-16 1,-14.5 2.5,-12 12,-17 35,-46 11,-33 4.5,-7.5 7.5,-7 10,0.5 94.5,77.5 15,7.5 13.5,4.5 56,7 20,10.5 11,9.5 54,78.5 10.5,2.5 24,-12"
     style="opacity:1;fill:none;fill-opacity:1;fill-rule:nonzero;stroke:#fd9500;stroke-width:5;stroke-linecap:butt;stroke-linejoin:round;stroke-miterlimit:4;stroke-dasharray:none;stroke-opacity:1" />
  <text
     x="89.45"
     y="206.96"
     id="text2995"
     xml:space="preserve"
     style="font-style:normal;font-weight:normal;font-size:144.0px;line-height:125%;font-family:Sans;-inkscape-font-specification:Sans;letter-spacing:0px;word-spacing:0px;fill:#000000;fill-opacity:1;stroke:none"><tspan
       x="89.45"
       y="206.96"
       id="tspan1">2015</tspan></text>
</svg>
