<svg xmlns="http://www.w3.org/2000/svg" width="2550" viewBox="-50 0 2550 4000" height="4000"><path d="m1922.03 3019.28-7.96-15.04-31.1-63.74-25.06-52.67-53.35-114.33-10.53-27.29-15.02-25.82-31.8-42.63-76.94-113.26-30.97-44.53-51.3-75.94-62.35-90.79-23.71-33.99-27.34-27.38-21.04-9.87-56.22-19.17-93.19-38.29-63.16-31.07-132.98-28.47-73.68-17.98-76.83-5.52-95-35-192-79-31.99-12.82" style="fill:none;stroke:#009a57;stroke-width:5;stroke-linecap:butt;stroke-linejoin:round;stroke-miterlimit:4;stroke-dasharray:none;stroke-opacity:1"/><path d="m929.45 1672.84 67.14 195.29 56.89 219.26 3.72 25.95.2525.44-3.45 17.81-7.74 25.21-5.21 17.21-9.4 11.34-25.69 24.73-5.63 9.33-13.84 39.59-1.010.514.31 60.74.7825.47-15.31 35.34-17.02 44.24-16.04 40.03-1.48 21.72 5.27 21.47 12.5 31 5 27 7.25 140.28-4.81 30.1-1.44 23.12-2.75 21.74-0.970.972.79 19.98 13.42 62.66-0.44.29-8.06 42.85.2228.98 4.25 32.04 10.01 72.32 9.79 58 .74 23.16 3.23 212.5 2.74 31.08 6.44 34.76 5.21.5.71 11.23 64.82 63.24 35.33 34.28 47.24 49.29 30.28 26.12 15 7 20.49 8.44 16.6 4.16 13.23 1.49 83.66-17.87 18.45 1.47 18.32 8.46 16.24 15.35 6 21 6 22.5" style="fill:none;stroke:#0979b9;stroke-width:5;stroke-linecap:butt;stroke-linejoin:round;stroke-miterlimit:4;stroke-dasharray:none;stroke-opacity:1"/><text x="39.45" y="206.96" xml:space="preserve" style="font-style:normal;font-weight:400;font-size:144px;line-height:125%;font-family:Sans;-inkscape-font-specification:Sans;letter-spacing:0;word-spacing:0;fill:#000;fill-opacity:1;stroke:none"><tspan x="39.45" y="206.96">1975</tspan></text><path style="fill:none;stroke:#e3173c;stroke-width:5;stroke-linecap:butt;stroke-linejoin:round;stroke-miterlimit:4;stroke-dasharray:none;stroke-opacity:1" d="m1558.27 954.06-31.99 12.23-13.78 6.52-14.8 2.3-41.51-4.31-14.54 2.17-18.6 10.23-38.29 20.03-13.04 16.01-8.19 12.12-4.9 14.2.1831.5-4.06 35.26-8.04.04-4.74 12.46-4.63 11.61-10.18 22.16-15.32 18.47-20.01 18.31-57.75 50.95-31.04 31.03-24.08 52.16-3.01.5-3.5 14.41 4.5 20.61 32.63 50.86 8.87 24.22-1.17 95.62-0.850.3218.61 72.85 14.88 40.11 9.5 34.22.28.79 7.74 45.01 14.26 84.49 8.5 51.5 31.63 82.85 4.72 19.23.617.09-33.66 76.56-10.8 19.53-6.34 16.54-11.73 12.96-78.21 34.9-24.66 13.37-43.28 37.3-25.91 14.44-49.77 20.59-35.94 16.8-18.12 15.23-16.96 22.35-14.32 37.93L947.7 2501l-29.58 33.74-18.66 13.9-200.77 60.11-28.66 12.28-10.09 7.91-18.23 26.54-3.23 11.53-9 39-22.98 86.01-24.73 95.29-3.68 18.27-31.83 78.43-22.26 45.56-5.58 12.84-5.04 15.94-0.51.970.460.4821.9 104.35 9.92 72.72 7.33 12.81 12.63 11.81 60.77 36.89"/></svg>