<?xml version="1.0" encoding="UTF-8" standalone="no"?>
<svg
   viewBox="0 0 1475 1325"
   height="1325"
   width="1475"
   id="svg2"
   version="1.1"
   xmlns:xlink="http://www.w3.org/1999/xlink"
   xmlns="http://www.w3.org/2000/svg"
   xmlns:svg="http://www.w3.org/2000/svg"
   xmlns:rdf="http://www.w3.org/1999/02/22-rdf-syntax-ns#"
   xmlns:cc="http://creativecommons.org/ns#"
   xmlns:dc="http://purl.org/dc/elements/1.1/">
  <metadata
     id="metadata8">
    <rdf:RDF>
      <cc:Work
         rdf:about="">
        <dc:format>image/svg+xml</dc:format>
        <dc:type
           rdf:resource="http://purl.org/dc/dcmitype/StillImage" />
      </cc:Work>
    </rdf:RDF>
  </metadata>
  <defs
     id="defs6" />
  <image
     y="-63"
     x="35"
     id="image10"
     xlink:href="../timelines/streetmap/bfeosm.png"
     preserveAspectRatio="none"
     height="1453"
     width="1453"
     style="display:none" />
  <path
     id="path817"
     d="m 932.6661,291.995 4.1947,-2.01346 50.5042,-51.67872 7.5504,-5.03364 10.2351,-4.69807 34.7321,-6.20815 18.6245,-5.20143 43.6249,-17.78553 13.9264,-10.23508 74.6657,-62.92051 14.262,-8.38941 21.6446,-9.39613 9.7317,-5.20143 13.4231,-14.59756 6.0404,-22.65138 3.1879,-3.35577 4.1947,-0.50336 49.8331,15.60429 12.4163,2.01346 15.7721,0.67115 13.2552,-1.34231 43.6249,-8.3894 16.1077,-5.70479"
     style="opacity:1;fill:none;fill-opacity:0.0784314;fill-rule:nonzero;stroke:#299549;stroke-width:1;stroke-linecap:butt;stroke-linejoin:round;stroke-miterlimit:4;stroke-dasharray:none;stroke-opacity:1" />
  <path
     id="path825"
     d="m 287.85659,440.31964 11.07401,7.55046 5.53701,8.3894 14.42977,34.89991 5.03364,6.87931 25.83936,13.75862 22.4836,17.44996 14.42977,7.21489 11.40959,-0.16779 10.40286,-5.87258 15.26871,-8.72498 7.21489,-8.3894 53.52439,-25.00042 17.73211,-8.95284 15.44104,2.43617 14.04292,12.82693 2.25435,4.80459 6.67578,24.33594 1.15625,11.29883 -0.8418,10.66992 -8.74414,33.26758 -4.61718,14.93164 c -0.0447,0.144 -0.0666,0.294 -0.0664,0.44531 l 0.008,4.90821 c 3e-4,0.15631 0.0261,0.31255 0.0742,0.46093 l 6.14258,18.95899 1.51172,9.3418 -0.0983,9.23787"
     style="color:#000000;font-style:normal;font-variant:normal;font-weight:normal;font-stretch:normal;font-size:medium;line-height:normal;font-family:sans-serif;font-variant-ligatures:normal;font-variant-position:normal;font-variant-caps:normal;font-variant-numeric:normal;font-variant-alternates:normal;font-feature-settings:normal;text-indent:0;text-align:start;text-decoration:none;text-decoration-line:none;text-decoration-style:solid;text-decoration-color:#000000;letter-spacing:normal;word-spacing:normal;text-transform:none;writing-mode:lr-tb;direction:ltr;text-orientation:mixed;dominant-baseline:auto;baseline-shift:baseline;text-anchor:start;white-space:normal;shape-padding:0;clip-rule:nonzero;display:inline;overflow:visible;visibility:visible;opacity:1;isolation:auto;mix-blend-mode:normal;color-interpolation:sRGB;color-interpolation-filters:linearRGB;solid-color:#000000;solid-opacity:1;fill:none;fill-opacity:1;fill-rule:nonzero;stroke:#c20e19;stroke-width:1;stroke-linecap:butt;stroke-linejoin:round;stroke-miterlimit:4;stroke-dasharray:none;stroke-dashoffset:0;stroke-opacity:1;color-rendering:auto;image-rendering:auto;shape-rendering:auto;text-rendering:auto;enable-background:accumulate" />
  <path
     id="path839"
     d="m 532.0796,640.90829 -1.17262,4.44585 -4.13341,13.86509 -1.6751,12.14565 -14.45154,31.72819 -2.14905,3.33843 -10.57065,-6.376 -28.69176,-11.7451 -16.44322,-1.3423 -8.5572,-3.6914 -6.04037,2.0135 -8.3894,10.5706 -7.55046,14.262 -5.20143,13.2553 -6.87931,25.1682 -3.69134,12.4163 -6.37594,9.7317 -10.40286,11.913 -108.05551,108.391 -5.537,7.8861 -3.35576,9.0605 -4.36249,9.3962 -17.11438,32.7186 -5.7048,7.7183 -16.27544,19.799 -0.67115,1.8456 -0.16779,4.1947 32.55088,42.2826 62.41716,79.8671 15.10092,24.3293 13.42305,8.5572 11.2418,12.0807 5.87258,13.7587 5.87258,3.6913 11.91295,4.8659 56.54457,19.6312 12.58411,8.5571 6.04037,7.7183 22.4836,26.0071 11.74516,9.564 15.77208,8.7249 19.79899,9.7317 13.25525,4.5303"
     style="opacity:1;fill:none;fill-opacity:0.0784314;fill-rule:nonzero;stroke:#009de0;stroke-width:5;stroke-linecap:butt;stroke-linejoin:round;stroke-miterlimit:4;stroke-dasharray:none;stroke-opacity:1" />
  <path
     id="path841"
     d="m 536.62214,642.19046 -1.86543,6.35414 -3.35576,13.0036 -1.76178,11.1579 -15.52039,33.3059 -0.92284,3.1041 0.83894,3.5235 5.7048,7.0471 14.59756,22.1481 7.55046,6.5437 18.79226,10.5706 9.8995,8.3894 4.69806,10.7385 15.26871,13.5908 19.46342,20.9735 12.5841,10.2351 18.2889,9.5639 34.39655,22.4836 8.72498,4.3625 56.209,14.4298 7.71825,-0.6712 16.27544,3.6914 3.18797,-1.0068 v -4.3625 l -2.01346,-1.8456 -13.75862,-3.0202 -2.34903,1.3423 -0.83894,3.188 -3.02019,2.1812"
     style="opacity:1;fill:none;fill-opacity:0.0784314;fill-rule:nonzero;stroke:#299549;stroke-width:5;stroke-linecap:butt;stroke-linejoin:round;stroke-miterlimit:4;stroke-dasharray:none;stroke-opacity:1" />
  <path
     id="path843"
     d="m 541.15782,643.12773 -0.86851,4.46578 43.29372,0.27999 2.01346,2.6007 0.41947,38.5073 2.18124,2.5168 19.12784,6.376 11.57737,0.1678 4.19471,3.6913 29.19512,13.2553 11.91295,8.0538 24.66484,5.537 16.10765,8.5572 17.44996,4.8658 21.81245,3.8592 11.57737,0.5033 43.45711,7.7183 1.51009,3.6913 -3.85912,16.4433"
     style="opacity:1;fill:none;fill-opacity:0.0784314;fill-rule:nonzero;stroke:#ffcc00;stroke-width:5;stroke-linecap:butt;stroke-linejoin:round;stroke-miterlimit:4;stroke-dasharray:none;stroke-opacity:1" />
  <path
     id="path845"
     d="m 796.92554,774.2179 -3.02019,14.0942 -0.67115,8.5571 1.67788,4.1947 4.69807,3.8592 33.89318,4.5302 17.44996,4.8659 11.07401,6.7115 11.40959,8.8928 24.66484,24.3293 48.15517,25.0004 19.799,7.7182 12.9197,8.0539 23.4903,17.9533 10.4029,6.5437 18.4566,8.725 19.1279,5.8726"
     style="opacity:1;fill:none;fill-opacity:0.0784314;fill-rule:nonzero;stroke:#ffcc00;stroke-width:1;stroke-linecap:butt;stroke-linejoin:round;stroke-miterlimit:4;stroke-dasharray:none;stroke-opacity:1" />
  <path
     id="path847"
     d="m 427.28846,301.39113 -2.89863,-39.22164 -8.77966,-67.98305 -3.67797,-13.88136 -8.8983,-23.49152 -11.74576,-26.1017 -3.55933,-16.37288 -0.94915,-14.47458"
     style="opacity:1;fill:none;fill-opacity:0.0784314;fill-rule:nonzero;stroke:#ffcc00;stroke-width:5;stroke-linecap:butt;stroke-linejoin:round;stroke-miterlimit:4;stroke-dasharray:none;stroke-opacity:1" />
  <path
     id="path849"
     d="m 723.09879,398.87599 35.73886,-12.08074 14.93314,-6.54374 97.31706,-36.07443 7.0471,-4.02691 50.33645,-46.81287 4.1947,-1.3423"
     style="opacity:1;fill:none;fill-opacity:0.0784314;fill-rule:nonzero;stroke:#299549;stroke-width:5;stroke-linecap:butt;stroke-linejoin:round;stroke-miterlimit:4;stroke-dasharray:none;stroke-opacity:1" />
  <path
     id="path870"
     d="m 287.85659,440.31964 -9.22834,-7.21489 -3.02019,-4.69807 -4.86585,-13.59083 -6.37595,-7.0471 -29.3629,-19.46341 -15.77208,-3.69134 -8.3894,-5.03364 -4.86586,-5.36922 -10.06728,-14.76534 -10.40286,-9.22835 -44.29604,-26.34272 -73.15559,-69.29647"
     style="opacity:1;fill:none;fill-opacity:0.0784314;fill-rule:nonzero;stroke:#c20e19;stroke-width:5;stroke-linecap:butt;stroke-linejoin:round;stroke-miterlimit:4;stroke-dasharray:none;stroke-opacity:1" />
  <path
     id="path908"
     d="m 578.96886,380.4193 2.18124,-7.21488 12.91968,-25.16821 21.81245,-24.49706 5.53701,-4.69806 2.34903,-4.86586 2.51682,-45.30277 -1.17452,-31.37637 5.20143,-20.80571 -5.70479,-19.12784 v -3.35576"
     style="opacity:1;fill:none;fill-opacity:0.0784314;fill-rule:nonzero;stroke:#009de0;stroke-width:5;stroke-linecap:butt;stroke-linejoin:round;stroke-miterlimit:4;stroke-dasharray:none;stroke-opacity:1" />
  <path
     id="path910"
     d="m 624.60721,194.00678 1.00673,-8.55719 10.40286,-39.26241 1.3423,-10.73843 1.17452,-28.35618 -3.69134,-10.73844"
     style="opacity:1;fill:none;fill-opacity:0.0784314;fill-rule:nonzero;stroke:#009de0;stroke-width:1;stroke-linecap:butt;stroke-linejoin:round;stroke-miterlimit:4;stroke-dasharray:none;stroke-opacity:1" />
  <path
     style="color:#000000;fill:none;stroke:#ffcc00;stroke-linejoin:round;stroke-opacity:1;-inkscape-stroke:none"
     d="m 539.15673,643.56341 -1.01939,-2.68715 0.13635,-12.9307 c 10e-6,-10e-4 10e-6,-0.003 0,-0.004 4.1e-4,-0.0836 -0.006,-0.17017 -0.0215,-0.25782 l -1.54883,-9.57422 v -0.002 c -0.0119,-0.074 -0.0296,-0.1482 -0.0527,-0.2207 v -0.002 l -6.10547,-18.84571 -0.008,-4.44531 4.55859,-14.74414 c 6.9e-4,-0.003 10e-4,-0.005 0.002,-0.008 0.004,-0.0136 0.008,-0.0312 0.0137,-0.0527 6.7e-4,-6.6e-4 10e-4,-10e-4 0.002,-0.002 l 8.78711,-33.42774 c 0.0224,-0.0859 0.0362,-0.17523 0.043,-0.26367 v -0.002 l 0.86328,-10.93359 v -0.002 c 0.008,-0.0926 0.007,-0.18236 -0.002,-0.26953 v -0.002 l -1.18164,-11.55274 v -0.006 c -0.008,-0.0836 -0.0246,-0.16414 -0.0449,-0.24023 10e-6,-10e-4 10e-6,-0.003 0,-0.004 l -6.71114,-24.45651 -4.50457,-4.84004 -14.0569,-12.89218 -24.90877,-8.192 -23.15475,-13.42304 -15.4365,-10.23508 -13.92641,-14.42977 -9.22834,-42.95374 1.84567,-18.12111 -4.86585,-42.61816 -1.34231,-29.5307"
     id="path2650" />
  <path
     id="path833"
     d="m 723.09879,398.87599 -138.08956,51.34314 -20.3346,10.32351 -22.07472,17.51549 -4.29799,8.12839 -2.39958,12.70606 6.71094,24.45703 c 0.007,0.0268 0.0116,0.0516 0.0137,0.0742 -10e-6,0.002 -10e-6,0.004 0,0.006 l 1.18164,11.55859 c 0.003,0.0321 0.004,0.0628 0.002,0.0898 v 0.002 l -0.86328,10.9375 v 0.002 c -0.002,0.0296 -0.008,0.0573 -0.0156,0.0859 l -8.78711,33.42773 c -0.002,0.006 -0.004,0.0148 -0.008,0.0274 l -4.57813,14.81054 c -0.0146,0.0481 -0.0218,0.0982 -0.0215,0.14844 l 0.008,4.59961 c 3.2e-4,0.0525 0.009,0.10452 0.0254,0.1543 l 6.12891,18.91992 -0.002,-0.002 c 0.008,0.024 0.0134,0.0482 0.0176,0.0742 v 0.002 l 1.55078,9.58203 c 6.5e-4,0.002 0.001,0.004 0.002,0.006 0.004,0.0247 0.006,0.0518 0.006,0.082 l -0.15039,15.15044"
     style="color:#000000;font-style:normal;font-variant:normal;font-weight:normal;font-stretch:normal;font-size:medium;line-height:normal;font-family:sans-serif;font-variant-ligatures:normal;font-variant-position:normal;font-variant-caps:normal;font-variant-numeric:normal;font-variant-alternates:normal;font-feature-settings:normal;text-indent:0;text-align:start;text-decoration:none;text-decoration-line:none;text-decoration-style:solid;text-decoration-color:#000000;letter-spacing:normal;word-spacing:normal;text-transform:none;writing-mode:lr-tb;direction:ltr;text-orientation:mixed;dominant-baseline:auto;baseline-shift:baseline;text-anchor:start;white-space:normal;shape-padding:0;clip-rule:nonzero;display:inline;overflow:visible;visibility:visible;opacity:1;isolation:auto;mix-blend-mode:normal;color-interpolation:sRGB;color-interpolation-filters:linearRGB;solid-color:#000000;solid-opacity:1;fill:none;fill-opacity:1;fill-rule:nonzero;stroke:#299549;stroke-width:1;stroke-linecap:butt;stroke-linejoin:round;stroke-miterlimit:4;stroke-dasharray:none;stroke-dashoffset:0;stroke-opacity:1;color-rendering:auto;image-rendering:auto;shape-rendering:auto;text-rendering:auto;enable-background:accumulate" />
  <path
     style="color:#000000;fill:none;stroke:#009de0;stroke-linejoin:round;stroke-opacity:1;-inkscape-stroke:none"
     d="m 532.47398,642.29367 3.6823,-3.22362 0.11734,-11.0603 c 4.7e-4,-0.0288 -0.002,-0.0575 -0.006,-0.0859 l -1.52539,-9.42188 c -0.004,-0.0252 -0.01,-0.05 -0.0176,-0.0742 l -6.1543,-18.99609 c -0.0161,-0.0497 -0.0253,-0.1004 -0.0254,-0.15234 l -0.008,-4.90821 c -5e-5,-0.05 0.008,-0.10023 0.0234,-0.14843 l 4.61914,-14.94336 c 0.002,-0.007 0.004,-0.0143 0.006,-0.0215 l 8.75781,-33.32031 c 0.007,-0.0288 0.0118,-0.0583 0.0137,-0.0879 l 0.84961,-10.75977 c 0.003,-0.0299 0.003,-0.0599 0,-0.0898 l -1.16406,-11.38477 c -0.003,-0.0277 -0.008,-0.0551 -0.0156,-0.082 l -6.68748,-24.37704 2.42832,-13.47816 4.39029,-8.19049 9.02252,-7.19549 13.25514,-10.50906 12.08074,-11.91295 4.69807,-14.0942 -4.02692,-18.2889 v -7.71825 l 2.34904,-12.91968 -0.16779,-14.42977"
     id="path2585" />
</svg>
