<?xml version="1.0" encoding="UTF-8" standalone="no"?>
<svg
   xmlns:dc="http://purl.org/dc/elements/1.1/"
   xmlns:cc="http://creativecommons.org/ns#"
   xmlns:rdf="http://www.w3.org/1999/02/22-rdf-syntax-ns#"
   xmlns:svg="http://www.w3.org/2000/svg"
   xmlns="http://www.w3.org/2000/svg"
   xmlns:xlink="http://www.w3.org/1999/xlink"
   version="1.1"
   viewBox="-1700 -50 4350 4450"
   width="4350"
   height="4450"
   id="svg2">
  <metadata
     id="metadata8">
    <rdf:RDF>
      <cc:Work
         rdf:about="">
        <dc:format>image/svg+xml</dc:format>
        <dc:type
           rdf:resource="http://purl.org/dc/dcmitype/StillImage" />
        <dc:title></dc:title>
      </cc:Work>
    </rdf:RDF>
  </metadata>
  <defs
     id="defs6" />
  <image
     xlink:href="../timelines/streetmap/bjsosm.png"
     style="display:none"
     id="image10"
     height="8540.8887"
     width="6988"
     y="-3355.8889"
     x="-2749.9995" />
  <path
     style="opacity:1;fill:none;fill-opacity:1;fill-rule:nonzero;stroke:#f2f2f2;stroke-width:8;stroke-linecap:butt;stroke-linejoin:round;stroke-miterlimit:4;stroke-dasharray:none;stroke-opacity:1"
     d="m 648.75043,1609.2497 3.5,70.25 4.25,69.5 -1.5,28.75 -4.5,39.75 v 25.25 43.5 l 4.5,35 6.75,24 -0.5,50.5 5.25,93.25 4,111.75 4,124.75 13.25,302 11.75,285 2.75,8.25 5.5,6.25 9,4.75 8.75,0.25 124.75,-5.75 10,3.25 6,5 5.5,10.75 6,37.75 25,129.25 12.5,78.75 4,11 9.25,16.5 11.75,11.5 145.24997,126.75 110.5,102.25 9,10.75 8.75,18 11,31 6,22.25 17.2668,74.38"
     id="path2524" />
  <path
     d="m -252.99957,1526.4997 -0.4526,73.3225 7.7115,6.0149 14.9337,13.5 31.5,2.7289 176.307404,7.9337 186.944796,-3.4502 122.5552,7.5165 139.5,1.7711 100.5,-6.8253 50.199,-8 94.4215,-28.7168 53.8795,-6.2953 140.5,-4.5 96,-5.5 223.99997,-7.5 280,6.5 261.4158,-3.6505 64.2411,12.3218 66.301,0.4792 13.5421,7.7168 12.6505,18.3131 8.7589,27.8674 0.8916,154.4344 -4.2361,23.5084 -30.0892,62.2327 -12.1821,65.8466 -14.0125,65.8615 0.7011,28.0929 15.1383,24.9757 17.4879,3.9579 143.6748,5.8673 73.5428,1.1991 121.6061,24.8952 97.5978,60.8038 114.2993,83.7125 24.7488,11.3137 h 67.8822 l 59.397,-21.2132 60.1041,-65.0538 57.2756,-33.9412 292.0351,-28.9913 226.9813,-18.3848 86.9741,-18.3848 27.5772,-16.9705 71.4178,-24.0417 511.9453,3.5356 77.0746,0.7071 126.5722,17.6776 30.4055,48.0833 14.8493,45.2548 -9.8995,37.4767 -36.0625,61.5183 -19.7989,13.435 -164.0488,-2.1213"
     id="path3831"
     style="fill:none;stroke:#f2f2f2;stroke-width:8;stroke-linecap:butt;stroke-linejoin:round;stroke-miterlimit:4;stroke-dasharray:none;stroke-opacity:1" />
  <path
     style="fill:none;stroke:#f2f2f2;stroke-width:8;stroke-linecap:butt;stroke-linejoin:round;stroke-miterlimit:4;stroke-dasharray:none;stroke-opacity:1"
     d="m -1855.9996,2126.4997 69.5,-49 28,-8.5 131,-4.5 24.5,-6 99.5,-55.5 64.1327,-36.4215 26.1505,-2.8253 25.8794,5.6327 23.7711,22.3673 48.3737,92.5906 22.8131,17.6384 24.6505,1.9336 72.9701,-17.5242 192.0663,-103.729 39.23473,-7.4336 67.4037,17.2289 106.1391,12.7169 92.8609,-7.4879 154.9462,-12.128 94.9244,-2.7069"
     id="path2287" />
  <path
     style="fill:none;stroke:#f2f2f2;stroke-width:8;stroke-linecap:butt;stroke-linejoin:round;stroke-miterlimit:4;stroke-dasharray:none;stroke-opacity:1"
     d="m 423.36493,2012.3598 32.7579,-33.8859 77.016,-33.3415 36.9886,-6.5421 51.5841,0.8495 19.4765,6.2576 25.4208,36.9771 20.4337,16.0542 53.4579,10.771 104,-2.5 205.49997,-11 150,1 45.5,1.5121 38.7047,17.4458 18.7953,-1.1084 28.729,-14.1384 29.271,-18.2111 12,-16.5 22.5,-3.5 153.6691,1.229 23.2371,-10.3029 10.148,-20.4739 9.4458,-866.4522 1.5,-134.50003 -0.7546,-34.8952 -32.2454,-53.1048 -3,-54 0.8795,-28.5121 13.3252,-22.4337 28.1748,-17.5542 81.6133,-53.9151 15.771,-21.3738 2.3686,-38.049 -32.923,-63.6183 -1.9027,-24.4468 9.5784,-15.6812 55.9401,-54.7532 1.1085,-22.5358 -0.5542,-155.9585 -7.8698,-24.129 -246.0097,-217.039305 -5.5,-29.00000008 -13.5,-400.49999492 13.5,-27 24,-16 48.4128,-9.5773 33.0872,-16.9227 20.1505,-19.2047"
     id="path3829" />
  <path
     d="m -481.29247,2788.3809 -0.7071,-54.3812 -12.5,-19.5 -38,-30.5 -6,-28.5 2,-140 -12.5,-168 -26.5,-138.5 -1.5,-33.5 3,-212 7.5,-127.5 10.5,-17 18,-12.5 51,-20.5 97,-58.5 35,-42 83.5,-51 7,-10 7,-14 0.5,-116 0.607,-169.0595 33.5135,-47.2237 4.6812,-10.2839 15.1983,-152.9329 0.5,-245.50003 v -18 l -6.5,-50.5"
     id="path3827"
     style="fill:none;stroke:#f2f2f2;stroke-width:8;stroke-linecap:butt;stroke-linejoin:round;stroke-miterlimit:4;stroke-dasharray:none;stroke-opacity:1" />
  <path
     d="m 4779.5406,1430.0488 -53.9508,-13.1067 -227.5624,2.0901 -60.8317,-0.3484 -49.2503,2.0033 -88.8667,-1.8995 -59.9593,8.6043 -149.1213,2.7522 -56.5909,-12.8464 -100.2202,-78.7788 -83.4562,-70.2934 -27.353,-16.5094 -33.701,-6.8416 -22.3586,-13.0154 -10.9971,-25.0774 -13.0922,-96.5403 -7.7694,-20.7784 -13.7777,-12.925 -29.1804,-10.734 -144.1441,-10.4705 -122.9005,-0.5445 -56.5685,0.7071 -144.3879,39.5036 -46,10 -19.5,-3 -32.5,-18 -20.5,-11 -79,1.5 -253,24.5 -170,4 -224.5,8.5 -260,-6 -38.5,11.5 -32.5,3 -555.5,-0.5 -96.3701,-3.5185 -107.1299,5.0185 -67.6301,-7.6123 -59.8699,-10.8877 -76,-5 -337.99997,2.5 -8.9082,-15.7246 -2.3699,-100.79063 -6.4987,-9.7161 -46.0119,-13.9728 -164.7113,2.2041 -212,14.5 -207.999996,-2.5 H -373.99957 l -192.8103,-6.9465 -181.6897,2.4465 -44.5,3 -32.2553,7.6895 -29.6985,11.6673 -32.1734,22.62743 -19.0919,7.4246 -18.0312,2.1213 -128.69343,-7.7781 -162.6346,-1.0607 -24.0416,-4.2426 -23.3345,-11.66733 -36.7696,-23.6881 -13.7886,-6.7175 -20.5061,-2.4749 -116.319,-2.1213 -196.2222,-15.9099 -16.9705,0.3536 -9.8995,6.0104 -7.0711,13.435 -4.2426,9.8995 -33.5876,22.98103 -324.562,111.7228 -12.7279,3.8892 -68.9429,-1.5911"
     id="path3825"
     style="fill:none;stroke:#f2f2f2;stroke-width:8;stroke-linecap:butt;stroke-linejoin:round;stroke-miterlimit:4;stroke-dasharray:none;stroke-opacity:1" />
  <path
     d="m 4035.3971,-2106.6854 -45.962,-2.8285 -32.5269,1.4143 -43.8406,27.5771 -26.8701,12.0208 -44.5477,6.364 -38.1838,-2.8284 -258.801,-3.5356 -43.8407,6.364 -167.5843,12.0208 -144.2497,2.1213 -98.995,5.6569 -231.2239,1.4142 -53.033,4.2426 -39.598,19.799 -73.5391,74.2462 -45.9619,46.6691 -21.639,39.9673 -27,52 -20,61 -57,419 -28,241 -12,27 -35,42 -34,32.99997 -80,62 -35,62 -59,151 -27,60 -27,26 -38,21 -341,23 -22,7 -20,19 -3,30 11,231 -5,68 -12,52 -26,39 -70,28 -101,4.999999 -24,12.999996 -53,58 -17,7 -170,2 -47,14 -30.0045,11.8280999 -82.3199,7.6362001 -16.1453,-6 -16.4795,-25.4465 -3.1096,-21.3137 -8.6301,-24.4439 -17.9644,-14.4082 -34.8467,-2.852 -97.99997,-30.999995 -68,2.5 -370.5,11.999997 -418.999996,16.999998 -139,4.5"
     id="path2987"
     style="fill:none;stroke:#f2f2f2;stroke-width:8;stroke-linecap:butt;stroke-linejoin:round;stroke-miterlimit:4;stroke-dasharray:none;stroke-opacity:1" />
  <path
     d="m 1391.0004,1718.9997 6,-313 1,-215 4,-343.00003 2,-119 -2,-46 -7,-24 -59,-54 -13,-27 3,-17 35,-48 5,-18 -2,-16 -98,-87 -66,-61 -58,-36 -46,-9 -233.99997,2 -218,3 -334,8 -150,2 -153.9999957,-1 -113.0000043,-2 -353,12 -24,11 -23,5 -81,1 -37,3 -17,5.5 -14.5,15 -5,18 -1,23.5 15.5,44.5 22.5,38 47.5,99.5 7,17.5 1.5,38 -9,79.5 v 85 l 18,92.5 -3.7041,92.1506 29.2272,66.06153 -1.0614,94.2701 2.1787,37.3979 10.6724,17.1318 15.5043,5.7537 51.4113,3.0848 46.621,21.3912 14.8942,17.3533 8.8745,15.5969 -0.6181,63.3082 0.5,207 -7.5383,12.8877 -13.5,4.1836 -52.6275,28.2015 -16.0205,20.4082 1.1863,39.319 0.5,160.5 12.5,216 4.4238,152.5863 -3.0183,57.9877 14.5945,34.926 15.5,47 16,16 24.5,4 277,4 195.000004,-22.5 338.999996,1 86.5,14.5 144,-6.5 277.5,-13.5 63.5,1 73.49997,1 75.5,5 113.5,-3.5 32.1149,-2.8316 20.0945,-8.2932 5.0627,-9.2495 -1.1781,-22.9948 -29.6033,-146.9996 1.3896,-21.2329 9.1242,-16.3548 77.9955,-93.5436 9.0357,-22.5 6.9902,-39.2775 2.4741,-94.7225 1.5,-108"
     id="path3757"
     style="fill:none;stroke:#f2f2f2;stroke-width:8;stroke-linecap:butt;stroke-linejoin:round;stroke-miterlimit:4;stroke-dasharray:none;stroke-opacity:1" />
  <path
     d="m -352.49957,-1677.5003 12,43.5 16,56.5 68.5,145.5 14.5,11.5 19.5,4.5 18.5,2.5 187.034904,-29.6631 224.023896,-11.0562 10.2754,4.4439 7.1658,9.2754 6.5,89.5 12,144.5 -8.5,13.5 -184.999996,126 -4.5,15 3,90.49997 78.999996,275.5 7,55 33.5178,86.074 10.9822,40.426 10,14 124.5,84 27,6 97,2 29.5,2.5 101,57 8.5,20.5 1.5,85.5 21,518 6.6939,282.5245 -8.4912,130.1973 1.6983,87.7416 5.0946,39.0592 9.6233,26.0395 15.2841,72.4576 11.3215,17.5483 26.0394,11.3216 24.9073,2.8303 33.3985,1.1322 22.9303,0.1479 21.25,5 4.5,10.75 2,24.25 20,60.75003 1.25,34.5"
     id="path3759"
     style="fill:none;stroke:#f2f2f2;stroke-width:8;stroke-linecap:butt;stroke-linejoin:round;stroke-miterlimit:4;stroke-dasharray:none;stroke-opacity:1" />
  <path
     d="m 819.00043,-1358.0003 6,65 1,31 -6,31 -6,58 1,38 6,131 6,82.99997 -5,29 -23,45 2,54 6,22 19,29 21,52 10,55 16,32 8,57 1,64 -4,38 -1,88 -18,105 5,63 15,95.999997 -5,32.999998 -4,71 1,80 11,355.000005 11,224 -10,12 -18,5 -5,11 7,139 8,133 10,352.00003 4,217 6,123 17,54 3,58 12,307 1,85 -1,84 7,29 18,20 18,5 h 39.99997"
     id="path3761"
     style="fill:none;stroke:#f2f2f2;stroke-width:8;stroke-linecap:butt;stroke-linejoin:round;stroke-miterlimit:4;stroke-dasharray:none;stroke-opacity:1" />
  <path
     d="m -861.99957,-261.00033 3,43 4,31 19,41 26,30 19,11 31,5 49,17.999995 111,49 32,16 143,-12 9,-9 18,-19 33,-4 20,1 13,11 4,45 8,84 7,166.000005 8,44 54,173 9,42 15,173 9,91 7,54 4,33 18,16 21,7 84.000004,10 53,-5 58,-3 40,-20 73.999996,-11 164,1 26,13 16,27 4,76 14,438.00003 3,231 1,198 -0.7021,31.886 8.4853,17.6076 25.1205,13.5064 13,19.8795 4.229,48.5663 -0.6748,44.1084 -9.4579,25.4458 -34,33 -35,54 -9,35 -2.8795,202.8916 -1.1205,59.1084 -0.8795,72.4223 -19.7467,64.1804 -28.3738,105.3973 -20,80 13,145.5 -16,24.5 -31.5,21.5 -79.0321,5.0718 -79.975896,-3.8812 -41.492,3.3094 -44,-5 -20,3 -26,19 -97.000004,76 -14,25 2,60 12,123 17,150 12,203 8,73 1,105 3,331 v 82 l 0.5,25.5 -8,13.5 -123.5,77 -25,18 -6,26 30.5,84 4,32 6.5,69 -5,28 4,88.5 v 62 l 0.5,74.5 -26.5,89.5 v 122"
     id="path3763"
     style="fill:none;stroke:#f2f2f2;stroke-width:8;stroke-linecap:butt;stroke-linejoin:round;stroke-miterlimit:4;stroke-dasharray:none;stroke-opacity:1" />
  <path
     d="m 1089.0004,1342.9997 3,29 -13,16 -18,7 -91.99997,2 -20,11 -30,35 -21,12 -47,2 -153,7 -36,9 -43,-2 -38,-2 -366,15 -27,-6 -12,-13 -16,-24 -4,-54 -8,-508.00003 1,-65 11,-17 54,-20 49,-19 63,-29 34,-8 266,1 406.99997,-11 22,12 14,29 -2,72 12,420.00003 5,34 7,87"
     id="path3765"
     style="fill:none;stroke:#f2f2f2;stroke-width:8;stroke-linecap:butt;stroke-linejoin:round;stroke-miterlimit:4;stroke-dasharray:none;stroke-opacity:1" />
  <path
     d="m -1809.9996,1358.9997 981.00003,-1 1050,4 253,2 437,-18 243.99997,-3 507,3 49,-10 80,-2 222,2 88,6 40,-7 44,-9 42,-4 106,5 219,1 126,-5 39,-6 47,-7 h 39 l 50,8 54,5 87,5 45,2 59,2 25,5 45,22 25,17 23,6 32,-7 27,-6 19,1 32,5 92,-1 23,5 18,12 19,39 60,118 20,15 121,44 79,33 24,22 203,216 28,14 40,14 83.5129,26.3088 11.3137,20.5061 45.962,121.6224 -2.8284,20.5061 -49.4975,101.1162 -28.9914,48.0833 -6.3639,10.253 -18.0312,5.6569 -165.8167,-2.1214"
     id="path3767"
     style="fill:none;stroke:#f2f2f2;stroke-width:8;stroke-linecap:butt;stroke-linejoin:round;stroke-miterlimit:4;stroke-dasharray:none;stroke-opacity:1" />
  <path
     d="m 120.00043,837.99967 -26.999996,-83 7.999996,-59 -54.999996,-142 -10,-24 -8,-37 -8,-76 -9,-23 -43,-77 -7,-46 -22,-152 -3,-101.000005 -6,-190.999995 -7,-34 -111.000004,-130 -15,-19 -25,-83 -57,-183 -14,-23 -36,-41 -27,-58 -42,-81 -84,-189.99997 -8,-11 -11,-19 -8,-21 12,-42 39,-50 20,-12 23,-6 24,8 27,13 178,2 208.000004,4 39,-6 h 45.999996 l 39,7 h 131 l 48,7 48,25 457,251.99997 468.99997,260 25,6 27,15 21,36 2,32 -3,59 -16,67 -22,70 -68,272.999995 -36,69 -45,96.000005 -48,90 -83,168 -5,32 6,126 7,52 12,49 6,86 v 39 l 3,47 7,18"
     id="path3769"
     style="fill:none;stroke:#f2f2f2;stroke-width:8;stroke-linecap:butt;stroke-linejoin:round;stroke-miterlimit:4;stroke-dasharray:none;stroke-opacity:1" />
  <path
     d="m -428.99957,-857.00033 -31,-79 -30,-64.99997 -31,-61 -8,-45 -40,-90 -24,-38 -39,-63 -42,-131 v -30 l 16,-25 21,-16 55,-22 37,-9 37,-5 24,1 56,-20 54,-10 17,-9 19,-20 4,-20 -2,-23 -39,-140 -14,-33 -36,-149 -11,-19 -11,-11 -17,-9 -25,-1 h -44 l -16,-8 -21,-21 -9,-19 v -74 -39 l -18,-117 -21,-48 -41,-45 -68,-198 -61,-189 -33,-167 -3.5,-85 11,-19 59.5,-21.5 28,-9.5 20,-7 18.5,-9.5 9,-14 1.5,-22.5 -0.7901,-85.3416 6.9176,-22.8615 22.5839,-31.2555 0.2886,-12.5414 v -102.5 l -1.8253,-104.9697 -13.4197,-11.8638 -286.6358,3.9862 -423.42433,22.6431 -53.2111,-14.718 -36.9847,-23.7396 -31.0392,-31.5815 -71.9617,-141.7198 -27.0065,-105.8093 -13.0198,-21.5109 -22.643,-20.9448 -123.0483,-16.9229"
     id="path3771"
     style="fill:none;stroke:#f2f2f2;stroke-width:8;stroke-linecap:butt;stroke-linejoin:round;stroke-miterlimit:4;stroke-dasharray:none;stroke-opacity:1" />
  <path
     d="m -4358.9996,4230.9997 35.5,36.5 55,40 89,98 27,67 7,16 44.5,40.5 14.5,8 24,-0.5 26,-0.5 65,-17 108.5,-51 66.5,-31 127.5,-4 192,-88.5 26.5,-2 46.5,9 22.5,-0.5 89,-29.5 210,-41 26,-5.5 19.5,-16 12,-23 3.5,-50 0.5,-47.5 7,-19.5 18,-17.5 21.5,-7.5 109.5,3.5 106.5,0.5 23,5 20,14.5 43.5,45.5 18,15.5 14.5,4.5 56.5,1 633,1 33,-5 16,-13 15,-17 2,-26 4,-64 22,-318 38,-103 13,-42 24,-26 26,-9 232,-1 20,-1 20,-13 13,-23 4,-26 -14,-103 -7,-84 -9,-57 -19,-61 -8,-32 2,-33 24,-28 28,-11 114,-30 118,-5 115,-12 150.00003,-34 151,-23 43,-7 40,-22 49,-29 93,-45 33.6671,-9.9463 68.5893,-15.5563 9.8995,-15.5564 -0.029,-66.4967 -0.2229,-23.942 7.1197,-17.429 11.7807,-14.0654 29.8659,-10.3837 28.4048,-5.6238 30.9146,2.1761 80.2566,6.0104 26.7542,-0.6155 12.9032,-7.1786 3.9474,-13.5799 0.8125,-13.4432 -3.3061,-11.2156 -11.4891,-30.8776 -4.5805,-42.5273 2.844,-69.3411 -2.6029,-190.2907 12.5475,-64.2864 23.5196,-113.8675 4.2814,-33.6419"
     id="path3773"
     style="fill:none;stroke:#f2f2f2;stroke-width:8;stroke-linecap:butt;stroke-linejoin:round;stroke-miterlimit:4;stroke-dasharray:none;stroke-opacity:1" />
  <path
     d="m 1003.0004,2310.9997 v 107 l 3,24.5 13.5,15 103.5,25 130,1 55,8.5 28.5,20 23,36.5 22.5,68.5 3,61 7,71 -1,76 -8,40 1,26 13,41 20,23 58,26 29,5 37,-1 80,-28 57,-26 77,-41 35,-11 41,2 32,12 30,25 258,419 63,103 20,11 27,1 25,-14 44,-25 339,-214 62,-39 77,-82 196,-214 48.5,-57"
     id="path3775"
     style="fill:none;stroke:#f2f2f2;stroke-width:8;stroke-linecap:butt;stroke-linejoin:round;stroke-miterlimit:4;stroke-dasharray:none;stroke-opacity:1" />
  <path
     style="opacity:1;fill:none;fill-opacity:1;fill-rule:nonzero;stroke:#f2f2f2;stroke-width:8;stroke-linecap:butt;stroke-linejoin:round;stroke-miterlimit:4;stroke-dasharray:none;stroke-opacity:1"
     d="m -2507.1657,-1114.1963 112.4704,-6.8164 631.7941,-2.5561 183.9016,0.068 99,3 42,-6 124.5,-21 80,-25 28.5,-3.5 38.5,5 25.5,17 10.5,20 32,83 34,120.99997 60,84 7.00003,32.5 4.5,51.5 3,19 16,22 88,84.5 48.5,65.5 135,204.5 30.5,54.5 6.5,25.5 23,177.5 7.5,23.499995 39.5,39.5"
     id="path2377" />
  <path
     style="opacity:1;fill:none;fill-opacity:1;fill-rule:nonzero;stroke:#f2f2f2;stroke-width:8;stroke-linecap:butt;stroke-linejoin:round;stroke-miterlimit:4;stroke-dasharray:none;stroke-opacity:1"
     d="m -2867.4996,1645.4997 34,-32.5 17,-4.5 16,1 53,11.5 31,-0.5 99.5,3 13.5,-7.5 10.5,-12.5 4,-20 -4.5,-107.5 -18.5,-154.5 v -16.5 l 4.5,-6 9.5,-10 9,-1 52,-5.5 25.5,-17 110,-87 73.5,-14.5 22.5,-8.5 30,-37 12,-8.5 16,-3.5 140.5,4"
     id="path2476" />
  <path
     id="path836"
     d="m -1634.7839,26.198265 34.2692,-0.4283 68.1101,7.7105 h 33.4124 l 28.7005,-0.8567 20.5615,5.5687 28.7005,22.275 5.5687,7.7106 7.7106,15.8495 140.9322,139.218705 17.5629,9.8524 20.5616,2.5702 17.1346,-2.5702 47.1201,-20.1332 h 35.126 l 29.9855,-8.1389 23.9885,-10.2808 18.4197,7.2822 27.8437,6.4255 20.1332,-2.1418 18.41983,-10.2808 11.5658,-12.8509 17.1346,-23.1318 7.2822,-7.7105 6.4255,-0.8568 23.9885,10.7092 21.4182,20.1331 51.8322,54.4024 11.1375,5.1404 32.9841,-1.2851 15.8495,2.5702 44.9784,17.563 59.1144,38.5528 22.2749,18.4197 7.9248,14.9928 7.9248,1.9276 28.9146,-8.1389 26.5586,-3.4269"
     style="fill:none;fill-opacity:1;fill-rule:nonzero;stroke:#e50619;stroke-width:5;stroke-linecap:butt;stroke-linejoin:round;stroke-miterlimit:4;stroke-dasharray:none;stroke-opacity:1" />
  <path
     style="fill:none;stroke:#e5061b;stroke-width:5;stroke-linejoin:round;stroke-miterlimit:4;stroke-dasharray:none;stroke-opacity:1"
     d="m 2589.2085,2981.6561 -501.8707,318.2321 -10.1749,19.251 -88.3999,283.864 -118.4983,304.0406 -5.2769,29.4045 2.7415,31.7171 69.4629,360.3519"
     id="path1508" />
</svg>
