<?xml version="1.0" encoding="UTF-8" standalone="no"?>
<svg
   xmlns:dc="http://purl.org/dc/elements/1.1/"
   xmlns:cc="http://creativecommons.org/ns#"
   xmlns:rdf="http://www.w3.org/1999/02/22-rdf-syntax-ns#"
   xmlns:svg="http://www.w3.org/2000/svg"
   xmlns="http://www.w3.org/2000/svg"
   xmlns:xlink="http://www.w3.org/1999/xlink"
   viewBox="0 0 1875 2325"
   height="2325"
   width="1875"
   id="svg2"
   version="1.1">
  <metadata
     id="metadata8">
    <rdf:RDF>
      <cc:Work
         rdf:about="">
        <dc:format>image/svg+xml</dc:format>
        <dc:type
           rdf:resource="http://purl.org/dc/dcmitype/StillImage" />
        <dc:title></dc:title>
      </cc:Work>
    </rdf:RDF>
  </metadata>
  <defs
     id="defs6" />
  <image
     xlink:href="../timelines/streetmap/bodosm.png"
     width="2154"
     height="2393.333"
     preserveAspectRatio="none"
     id="image10"
     x="-75"
     y="41.666992"
     style="display:none" />
  <path
     id="path817"
     d="m 64.11864,956.71779 49.11865,6.7119 4.57627,7.322 37.22034,6.7119 24.71186,49.42371 10.37288,22.8814 12.50848,30.2034 -7.01695,19.5254 -21.9661,32.9492 -15.25424,32.9491 1.22034,5.7966 2.44068,2.1356 25.9322,10.678 21.35593,10.0678 18.30509,-2.7458 9.15254,-16.1695 3.9661,-3.3559 4.57627,2.1356 16.47458,12.8135 37.83051,18.9153 2.13559,3.3559 -6.10169,27.4577 4.27118,17.3898 -3.05084,27.4576 -2.74577,25.9322 -7.62712,41.7966 2.74577,4.8814 16.77966,3.3559 57.35593,-2.7457 4.27119,3.661 9.15254,42.1017 3.35593,2.4406 21.9661,2.7458 43.93221,-14.9491 55.52542,22.8813 14.33898,0.6102 2.44068,2.7457 1.83051,25.3221 2.74576,4.5762 22.57627,6.1017 32.0339,-5.1864 44.84746,3.9661 12.50848,-0.9153 11.28813,-5.4915 35.69492,-23.4915 59.18644,-27.7627 h 29.59322 l 54.30508,-18 44.54238,-19.2204 7.62711,-6.4067 52.47461,-19.5255 3.0508,-4.8813 -5.4915,-20.7458 -7.93221,-16.7796 1.22034,-4.8814 19.22037,-7.0169 54.9152,-7.017 4.5763,31.4237 3.9661,1.5255 31.7288,-13.1187 8.8475,-3.9661 119.5038,-11.4299 15.0909,19.7936 6.6595,-1.6518 356.9492,-308.13561 8.8474,-11.5932 14.9492,-12.8136 7.6271,-19.5254 1.5254,-20.4407 -7.0169,-23.1864 0.9152,-11.28817 7.322,-7.01695 23.4916,-8.54237 18.3051,1.52542 18.305,3.9661 7.3221,-7.62712 -6.1017,-28.98305 1.2203,-14.94915 9.7627,-16.77966 14.9492,-17.69492 7.0169,-14.94915 6.4068,-29.28813 13.7288,-68.64407 13.1187,-32.64407 2.7457,-11.59322 -2.4406,-3.9661 -14.339,1.83051 -23.1865,3.9661 -20.1356,-3.66102 -15.5593,-0.91525 -13.4237,-8.23729 -2.4407,-4.88136 2.1356,-7.32203 4.5763,-4.88136 11.8983,-3.9661 14.0339,-13.11864 17.6949,-6.1017 19.8305,-18.61017 6.4068,-13.72881 14.0339,-12.20339 5.1864,-30.50848"
     style="opacity:1;fill:none;fill-opacity:0.34901961;fill-rule:nonzero;stroke:#802990;stroke-width:5;stroke-linecap:butt;stroke-linejoin:round;stroke-miterlimit:4;stroke-dasharray:none;stroke-opacity:1" />
  <path
     id="path819"
     d="m 1636.2203,874.95512 18.9153,1.22034 19.2203,-3.9661 7.017,1.52542 6.1017,8.84746 -8.8475,34.47465 0.3051,29.5931 10.3729,21.356 -0.6102,16.1695 -4.5763,17.38981 26.8475,17.6949 96.1017,16.1695 4.2712,5.4915 -6.1017,12.5085 -16.7797,80.2373 -5.1864,26.5424"
     style="opacity:1;fill:none;fill-opacity:0.34901961;fill-rule:nonzero;stroke:#802990;stroke-width:5;stroke-linecap:butt;stroke-linejoin:round;stroke-miterlimit:4;stroke-dasharray:none;stroke-opacity:1" />
  <path
     id="path821"
     d="m 548.89831,51.836484 72.61017,214.169486 72.30508,218.44068 26.23729,74.13559 41.18644,63.76271 5.79661,13.42373 4.57627,3.35593 15.86441,0.91526 4.57627,3.9661 5.18644,10.37288 5.49153,6.71186 20.74576,19.52543 37.84969,32.39367 42.3876,31.36904"
     style="opacity:1;fill:none;fill-opacity:0.34901961;fill-rule:nonzero;stroke:#cf56a0;stroke-width:1;stroke-linecap:butt;stroke-linejoin:round;stroke-miterlimit:4;stroke-dasharray:none;stroke-opacity:1" />
  <path
     id="path823"
     d="m 903.71187,744.37885 26.84743,15.86441 17.0848,2.74576 23.7966,-3.9661 50.339,-9.45763 19.5254,0.30509 25.0169,7.01695 22.8814,292.57627 3.9661,18.9153 -16.7797,37.5254 5.7966,41.1864 -4.2711,10.3729 v 5.1864 l 6.1017,6.7119 3.3559,10.3729 3.3559,2.1356 34.1695,-4.8814 4.2712,3.356 15.2542,54 22.7396,36.4684 17.3127,22.7239 17.6308,27.2469 13.3751,15.4245 41.8511,36.6736 1.7258,4.5303 -9.9234,18.984 v 5.609 l 31.4962,25.4558 2.5887,7.119 0.8629,9.492 -13.1594,39.0467 1.5101,5.1774 29.5547,11.0022 6.6875,4.9617 37.5366,12.0807 7.7662,28.6918 -0.8629,3.6673 -34.0849,32.5749 -0.8629,4.9617 31.0647,43.3613 0.6472,5.1774 -6.6876,41.4197 -4.746,14.238 -2.1572,19.6312 -3.0202,8.6291 6.2561,25.8873 0.8629,22.2199 -5.1775,23.5143 -7.119,43.577 2.8045,11.0021 7.3347,11.6493 1.7258,23.5143 -1.7258,2.373 -38.3995,10.1392 -31.7119,30.6333 -17.6897,21.5727 -8.6291,18.984 -25.4558,31.712 -23.2986,22.2199 -7.119,16.611 -4.0988,9.9235 -4.5303,1.7258 -1.2944,3.2359 1.5101,23.9458 4.9618,9.2763 1.2943,30.4175 -8.2275,9.9241 1.2203,21.356 -2.7457,30.5085 2.1355,27.4576 7.017,26.5424 3.3559,10.0677 3.661,8.2373 1.5255,15.2543"
     style="opacity:1;fill:none;fill-opacity:0.34901961;fill-rule:nonzero;stroke:#cf56a0;stroke-width:5;stroke-linecap:butt;stroke-linejoin:round;stroke-miterlimit:4;stroke-dasharray:none;stroke-opacity:1" />
  <path
     id="path844"
     d="m 1066.322,756.88733 -2.1356,-27.76272 5.7967,-7.01695 46.0678,-5.18644 -1.5255,-20.74576 24.7119,-109.22034 -0.3051,-4.27119 -19.2203,-5.18644 -5.1865,-4.57627 3.661,-24.40678 38.1356,-54.30508 26.2373,-24.1017 -2.7457,-54.30508"
     style="opacity:1;fill:none;fill-opacity:0.34901961;fill-rule:nonzero;stroke:#cf56a0;stroke-width:5;stroke-linecap:butt;stroke-linejoin:round;stroke-miterlimit:4;stroke-dasharray:none;stroke-opacity:1" />
  <path
     id="path846"
     d="m 455.90536,1790.9622 -26.53448,12.2965 -3.8831,6.0404 -0.64718,6.9032 3.02019,14.4538 4.53027,40.341 -3.23591,16.611 -6.47182,16.3953 0.43145,39.2624 5.17746,5.6089 31.06476,-1.51 10.57065,3.0201 10.35492,-3.4516 27.39739,3.8831 27.82885,-9.492 21.35702,4.5303 4.746,-4.0989 4.96173,-20.9255 9.92347,-10.1392 17.04247,-7.5505 5.17746,0.6472 7.98192,4.3146 5.17746,0.8629 54.57905,-19.847 15.74811,-13.8065 39.2624,-40.5568 19.63121,-43.1455 8.41337,-12.5122 42.71404,-17.0425 11.64929,-0.4314 13.80656,2.8044 30.41757,0.4315 23.73003,-6.4718 30.20185,-22.4357 1.29436,-37.968 5.82464,-37.5366 50.69598,-47.4601 16.611,-41.2039 6.9033,-16.1796 18.1211,-34.3006 23.2986,-18.5526 22.2199,-31.7119 23.9457,-33.2221 17.474,-17.6896 17.4739,-31.4963 -37.968,-103.1177 -4.3146,-15.5324 -12.5122,0.8629 -9.7077,-53.0689 1.7258,-3.2359 42.9298,-4.5303 1.5101,-2.5887 -2.8045,-26.5345 3.8831,-6.4719 34.9479,-4.746 2.5887,-4.0988 -2.1573,-18.984 2.5887,-23.73 4.746,-24.1615 12.0808,-27.1817 21.5727,-30.6333 23.7301,-24.5929 36.8894,-30.84901 33.4377,-19.847 45.0871,-28.2603 25.0244,-22.8671 15.7481,-18.5525 15.1009,-34.73217 14.6695,-52.20606 13.8065,-65.79688 3.6674,-5.60892 38.1837,-99.23464 -0.8629,-7.98192 12.728,-45.30277 4.5302,-47.67578"
     style="opacity:1;fill:none;fill-opacity:0.34901961;fill-rule:nonzero;stroke:#ed164b;stroke-width:5;stroke-linecap:butt;stroke-linejoin:round;stroke-miterlimit:4;stroke-dasharray:none;stroke-opacity:1" />
  <path
     id="path848"
     d="m 428.29224,1948.8747 -34.0719,4.2499 -14.33898,10.3729 -8.84746,0.3051 -14.33898,4.5763 -35.38983,-2.7458 -13.42373,-4.5763 -15.86441,7.3221 -26.84746,27.1525 -46.37288,66.2034 -6.40678,-1.2203 -33.55932,-70.4746 2.13559,-24.4068 -3.05085,-11.8983 -11.28813,-22.2712 -12.50848,-11.5932 -12.81355,-7.9322 -18.61017,-22.8814 -2.44068,-15.8644"
     style="opacity:1;fill:none;fill-opacity:0.34901961;fill-rule:nonzero;stroke:#ed164b;stroke-width:5;stroke-linecap:butt;stroke-linejoin:round;stroke-miterlimit:4;stroke-dasharray:none;stroke-opacity:1" />
</svg>
