<?xml version="1.0" encoding="UTF-8" standalone="no"?>
<svg
   xmlns:dc="http://purl.org/dc/elements/1.1/"
   xmlns:cc="http://creativecommons.org/ns#"
   xmlns:rdf="http://www.w3.org/1999/02/22-rdf-syntax-ns#"
   xmlns:svg="http://www.w3.org/2000/svg"
   xmlns="http://www.w3.org/2000/svg"
   xmlns:xlink="http://www.w3.org/1999/xlink"
   version="1.1"
   width="390"
   height="830"
   viewBox="0 0 390 830"
   id="svg2">
  <metadata
     id="metadata8">
    <rdf:RDF>
      <cc:Work
         rdf:about="">
        <dc:format>image/svg+xml</dc:format>
        <dc:type
           rdf:resource="http://purl.org/dc/dcmitype/StillImage" />
        <dc:title></dc:title>
      </cc:Work>
    </rdf:RDF>
  </metadata>
  <defs
     id="defs6" />
  <image
     xlink:href="../../timelines/mde/./../streetmap/bueosm.png"
     id="image10"
     height="7506"
     width="7506"
     y="-3431"
     x="-4140"
     style="display:none" />
  <path
     style="fill:none;fill-rule:evenodd;stroke:#f2f2f2;stroke-width:8;stroke-linecap:butt;stroke-linejoin:round;stroke-miterlimit:4;stroke-dasharray:none;stroke-opacity:1"
     d="m -3211.0805,-2367.348 476.2182,257.7066 25.9666,12.2484 27.4365,7.839 h 21.0673 l 477.688,-14.6981 954.8861,77.4099 19.5975,4.8994 21.0672,12.2484 260.6462,246.928 38.2151,39.1949 16.6578,13.7182 21.0673,7.349 144.0413,23.517 15.188,4.4094 13.7182,9.3088 318.9487,196.4645 18.6175,5.8793 21.0673,4.4094 23.027,0.4899 22.5371,-2.9396 24.0069,-6.8591 173.4375,-99.4571 33.3157,-17.6377 85.2489,-31.8459 18.6176,-2.9396 26.9465,1.9597 20.5773,10.7787 61.732,54.3829 46.054,27.9264 31.356,9.7987 27.4364,17.1478 281.7135,188.6255 106.8061,88.1886 40.1748,42.6244 95.0477,60.7522 30.866,31.8458 76.92,97.9873 55.4945,52.5195 105.3169,54.3906 41.2261,39.8403 32.9115,26.3292 92.8452,56.8158"
     id="path4500" />
  <path
     d="M 746.1921,35.9218 756.7987,-0.1407 768.1124,-11.4544 915.1907,-43.2742 921,-51.5 899.5,-119 895,-153.5 885.5,-214 872,-276 864.5,-304.5 836,-417 l -4,-20.5 -1.5,-31.5 -0.8693,-26.1154 14.1422,-79.196 17.6776,-65.7609 19.799,-60.1041 27.5772,-72.1249 31.8198,-26.1629"
     id="path2987"
     style="fill:none;stroke:#f2f2f2;stroke-width:8;stroke-linecap:butt;stroke-linejoin:round;stroke-miterlimit:4;stroke-dasharray:none;stroke-opacity:1" />
  <path
     d="m 127,57 43,-40 30.5,-29.5 32.5,-23 22.5,-6 20.5,-2 27,-22 72,-63 35,-31.5 18,-7 249,-43 183,-26.5 95.5,-16 68.5,-3 74.5,-7 39,-2.5 8,-8 3,-8.5 -1.8739,-69.9831 L 1151.5,-361 1242,-466"
     id="path3778"
     style="fill:none;stroke:#f2f2f2;stroke-width:8;stroke-linecap:butt;stroke-linejoin:round;stroke-miterlimit:4;stroke-dasharray:none;stroke-opacity:1" />
  <path
     d="m 116,-1289.5 102.5,142 18.5,16 111,70.5 90.5,57.5 49.5,31 90,35 68,52.5 75.5,65.5 54.5,43.5 23.5,21.5 29.5,33 13.5,14 29,16 14,10 8,12.5 5.5,15.5 -1.5,21.5 6.5,12.5 15.5,11 H 944 l 85.5,-4.5 68,-4 3.9877,7.0116 0.7512,33.7316 3.0778,5.5341 135.5118,87.9905"
     id="path3780"
     style="fill:none;stroke:#f2f2f2;stroke-width:8;stroke-linecap:butt;stroke-linejoin:round;stroke-miterlimit:4;stroke-dasharray:none;stroke-opacity:1" />
  <path
     d="m 1235,-746.5 -38.5,52 -14.5,16 -3,10 5.5,117 -3,10.5 -4.5,5 -7.5,4.5 -16,1 -7,11 10.5,251 -5,90"
     id="path3782"
     style="fill:none;stroke:#f2f2f2;stroke-width:8;stroke-linecap:butt;stroke-linejoin:round;stroke-miterlimit:4;stroke-dasharray:none;stroke-opacity:1" />
  <path
     d="m 1293.5,-560 -98.5,7 -105.5,7 -67.5,8.5 -79.5,2 -71,4.5 -29,-1.5 -47.5,-10 -24,0.5 -33,2 -36.5,-8 -182,-21.5 -22,-4.5 -81.5,-33 -57,-63.5 -47.5,-50.5 -43,-54.5 -53.5,-22 -40.5,-15.5 -27,-10.5 -20,-2 -44,-17 -118,-50 -15,-22 -47,-13.5 -95,-76.5"
     id="path3784"
     style="fill:none;stroke:#f2f2f2;stroke-width:8;stroke-linecap:butt;stroke-linejoin:round;stroke-miterlimit:4;stroke-dasharray:none;stroke-opacity:1" />
  <path
     d="m 1275.7448,-476.7306 -32.1734,1.7677 -175.3625,14.8493 -22.9809,-6.364 -179.6052,14.4957 -36.416,2.4749 -15.2028,-12.3744 -8.1317,1.0607 -17.6777,14.4957 -121.9759,10.6066 -25.4558,7.071 -216.3747,117.3798 -62.9325,35.3553 -60.8112,28.2843 -111.0158,53.7401 -50.308,23.9263 -123.6927,41.2308"
     id="path3788"
     style="fill:none;stroke:#f2f2f2;stroke-width:8;stroke-linecap:butt;stroke-linejoin:round;stroke-miterlimit:4;stroke-dasharray:none;stroke-opacity:1" />
  <path
     style="fill:none;fill-rule:evenodd;stroke:#f2f2f2;stroke-width:8;stroke-linecap:butt;stroke-linejoin:round;stroke-miterlimit:4;stroke-dasharray:none;stroke-opacity:1"
     d="m 1222.3174,-743.6387 -46.2655,-33.0273 -25.0699,-23.6412 -48.4163,-39.7225 -35.1398,-35.8146 -107.4141,-54.5766 -56.8275,-53.4329 -53.4671,-60.7341 -42.4068,-40.6399 -45.0572,-14.5773 -56.1007,-2.6504 -41.0815,11.9269 -42.4068,27.8294 -53.892,38.8729 -35.3389,18.1113 -31.8051,12.3686 -46.3824,17.6695 -39.3147,3.5339 -22.9703,-2.2087 -34.8972,-13.6938 -120.5943,-63.6102 -51.6833,-17.2278 -86.5805,-40.6398 -51.2415,-18.553 -56.5424,3.9757 -38.4311,11.0434 -68.4693,31.8051 -37.1059,37.1059 -26.946,29.5964 -37.9894,30.0381 -70.2363,47.7077 -32.2468,15.9025 -45.0572,14.5773 -43.2902,2.6505 -63.1685,8.393 -59.1928,3.9756 -52.125,-3.5339 -47.2659,-15.9025 -58.751,-35.339 -66.7023,-64.0519 -47.7077,-42.4068 -86.1387,-135.1716 -437.7617,-427.6017"
     id="path4142" />
  <path
     style="fill:none;fill-rule:evenodd;stroke:#f2f2f2;stroke-width:8;stroke-linecap:butt;stroke-linejoin:round;stroke-miterlimit:4;stroke-dasharray:none;stroke-opacity:1"
     d="m 705.2691,-1102.8973 -20.7617,-3.5338 -28.2712,-14.1356 -80.8379,-49.4746 -33.1303,-6.6261 -73.3284,-3.5339 -64.4936,-2.2087 -48.1494,-15.4608 -49.9163,-27.8294 -81.7214,-57.4259 -52.125,-35.3389 -54.7754,-68.0276 -17.2278,-33.1303 -62.2849,-179.7871 -56.9841,-175.8114 -95.4153,-247.8146 -8.393,-33.1303 -7.0678,-28.7129 -17.2278,-31.8051 -18.9947,-18.9947 -68.911,-62.7267 -58.751,-94.5318 -43.2903,-49.0328 -43.2903,-77.3041 -30.9216,-34.0137 -81.7214,-72.0032 -100.7161,-125.4534 -45.4989,-33.572 -29.1547,-26.946 -47.2658,-54.7754 -41.0816,-28.2712 -41.0816,-7.9513 -77.7458,-9.7182 -31.805,-12.8104 -40.1981,-28.7129 -116.1769,-101.5996 -166.0933,-161.6758 -24.2955,-60.0763 -18.1112,-20.7617 -125.0117,-120.5943"
     id="path4144" />
  <path
     style="fill:none;fill-rule:evenodd;stroke:#f2f2f2;stroke-width:8;stroke-linecap:butt;stroke-linejoin:round;stroke-miterlimit:4;stroke-dasharray:none;stroke-opacity:1"
     d="m 201.6886,-811.3506 -35.7808,-15.9026 -19.4364,-2.2087 -19.4364,5.7426 -82.6049,91.4396 -11.9269,6.1844 -25.6208,4.4173 -271.6684,6.1843 -372.8263,68.9111 -17.6695,0.8834 -650.2373,-120.5942 -623.733,-28.2712 -150.6324,-6.6261 -15.4608,-7.9513 -8.8348,-11.4851 -23.8538,-63.6102 -14.5773,-50.358 -15.4608,-28.2712 -26.946,-38.8729 -24.2956,-22.5286 -59.1928,-53.4502 -130.7542,-117.9439 -312.3083,-276.0858 -189.0635,-164.3263"
     id="path4146" />
  <path
     style="fill:none;fill-rule:evenodd;stroke:#f2f2f2;stroke-width:8;stroke-linecap:butt;stroke-linejoin:round;stroke-miterlimit:4;stroke-dasharray:none;stroke-opacity:1"
     d="m 646.1365,-1078.1249 -27.9307,38.1837 -44.9013,101.8234 -24.3952,33.234 -23.3345,26.5165 -77.7817,78.8424 -54.8008,35.7089 -123.7437,70.7107 -95.813,32.8805 -78.8424,-4.9498 -31.8198,12.3744 -116.319,49.851 -474.8222,38.1838 -814.9406,37.1231 -330.2189,-3.8891 -26.87,-6.7175 -30.4056,-11.6673 -174.3018,-111.0157 -398.8083,-253.4978 -502.3993,-317.8445 -25.1023,-18.3848 -45.962,-40.6586 -21.2132,-23.6881 -65.4073,-74.9533 -91.5704,-75.3069 -72.832,-47.7297 -354.2605,-312.8948 -21.9203,-15.5563 -27.9307,-10.6066"
     id="path4185" />
  <path
     style="fill:none;fill-rule:evenodd;stroke:#f2f2f2;stroke-width:8;stroke-linecap:butt;stroke-linejoin:round;stroke-miterlimit:4;stroke-dasharray:none;stroke-opacity:1"
     d="m 1151,-162 -0.5,262 7.5,38.5 54,257 -4,44 -121,404 -78,260 -31,332 -42.5,492.5 2.5,45 25,296.5 29,312.5 27.5,320.5 48,504 46.5,440"
     id="path4189" />
  <path
     style="fill:none;fill-rule:evenodd;stroke:#f2f2f2;stroke-width:8;stroke-linecap:butt;stroke-linejoin:round;stroke-miterlimit:4;stroke-dasharray:none;stroke-opacity:1"
     d="m 967,2314 -9,29 -13.5,21.5 -30,18 -25.5,5.5 -360,40"
     id="path4191" />
  <path
     id="path4499"
     d="m -4029.5,167.5 443.5,152.5 525,102.5 31,1.5 35.5,-1 403.5,-64.5 494.5,-187 156,-34 71,-1.5 24,0.5 138.5,-32 596.5,-100 52.5,-2 185.5,5.5 279,-24.5 371.5,-58 375.5,-133 471.5,-243.5 38.5,-13 25.5,-5 124.5,-7"
     style="fill:none;fill-rule:evenodd;stroke:#f2f2f2;stroke-width:8;stroke-linecap:butt;stroke-linejoin:round;stroke-miterlimit:4;stroke-dasharray:none;stroke-opacity:1" />
  <path
     style="fill:none;fill-rule:evenodd;stroke:#f2f2f2;stroke-width:8;stroke-linecap:butt;stroke-linejoin:round;stroke-miterlimit:4;stroke-dasharray:none;stroke-opacity:1"
     d="m 1067.4259,-875.8443 179.3289,107.6596"
     id="path4504" />
  <path
     id="path832"
     d="m 134,776.25 42.75,-48.25 -1.25,-7.75 -101,-91 V 621 l 15.75,-26.25 63,-62.75 11.75,-1.25 5.5,-5.75 -0.25,-6.75 2,-7.75 50.5,-58.5 5.75,-3.75 16,-9.25 4.75,-9.5 2.25,-11 4,-8 5.75,-4.75 7,-1.5 13.75,-1.25 4.75,-1.75 36.75,-37.5 v -5.5 L 188,230 v -6.75 l 24.5,-25.75 1.75,-12.25 3,-4.75 1,-11.75 L 194,145 142.75,83.5 131.25,70.75 127.187,59.962 122.5,52.25"
     style="opacity:1;fill:none;fill-opacity:1;fill-rule:nonzero;stroke:#fbbb30;stroke-width:5;stroke-linecap:butt;stroke-linejoin:round;stroke-miterlimit:4;stroke-dasharray:none;stroke-opacity:1" />
  <path
     id="path834"
     d="M 286.75,401.25 336,375.5 l 0.25,-5.75 -12.75,-11.5"
     style="opacity:1;fill:none;fill-opacity:1;fill-rule:nonzero;stroke:#fbbb30;stroke-width:5;stroke-linecap:butt;stroke-linejoin:round;stroke-miterlimit:4;stroke-dasharray:none;stroke-opacity:1" />
  <path
     id="path836"
     d="m 74.5,621 -7.25,7 -11.25,9 -1.25,3.25 1,6.25 27.25,33.75"
     style="opacity:1;fill:none;fill-opacity:1;fill-rule:nonzero;stroke:#fbbb30;stroke-width:5;stroke-linecap:butt;stroke-linejoin:round;stroke-miterlimit:4;stroke-dasharray:none;stroke-opacity:1" />
</svg>
