<?xml version="1.0" encoding="UTF-8" standalone="no"?>
<svg
   xmlns:dc="http://purl.org/dc/elements/1.1/"
   xmlns:cc="http://creativecommons.org/ns#"
   xmlns:rdf="http://www.w3.org/1999/02/22-rdf-syntax-ns#"
   xmlns:svg="http://www.w3.org/2000/svg"
   xmlns="http://www.w3.org/2000/svg"
   xmlns:xlink="http://www.w3.org/1999/xlink"
   version="1.1"
   id="svg2"
   width="2400"
   height="1425"
   viewBox="0 0 2400 1425">
  <metadata
     id="metadata8">
    <rdf:RDF>
      <cc:Work
         rdf:about="">
        <dc:format>image/svg+xml</dc:format>
        <dc:type
           rdf:resource="http://purl.org/dc/dcmitype/StillImage" />
        <dc:title></dc:title>
      </cc:Work>
    </rdf:RDF>
  </metadata>
  <defs
     id="defs6" />
  <image
     xlink:href="../timelines/dlc/./../streetmap/dlcosm.png"
     y="-3601.6499"
     x="-4350"
     id="image10"
     preserveAspectRatio="none"
     height="5776.6499"
     width="10503"
     style="display:none" />
  <path
     style="opacity:1;fill:none;fill-opacity:1;fill-rule:nonzero;stroke:#f2f2f2;stroke-width:8;stroke-linecap:butt;stroke-linejoin:round;stroke-miterlimit:4;stroke-dasharray:none;stroke-opacity:1"
     d="m 1267,-1291.5 -43,22 -34,-2 -22.9177,-10.6386 -39.3592,-32.7228 L 1094,-1328.5 l -51.5,-9 -60,-1 -35,-18.5 -10,-1.5 -12,3 -151.5,60 -78.5,3 -203.4779,5.3538 L 383,-1273 l -24.5,7.5 -12.5,10 -21,35.5 -20,40.5 -14,16.5 -46.5,32.5 -14.5,10 -9.5,21 -6.5,56.5 -28.5,104 -16.5,31 -0.5,49 -8.5,78 -17,51.5 -2.9186,43.0901 -20.5061,108.1874 0.7071,18.3847 4.9497,12.728 8.4853,7.7781 159.099,41.0122 139.1836,20.3196 15.5,10 15,32 3,19.5 2,34 -103,337.5 -11.5,35 -7.5,47.5 v 10 l 7,8.5 88.5,40 164,68.5 262,146.5 24,22.5 15.5,18.5 18,15.5 39.5,20 11.5,-3.5 7.5,-9.5 13.25,-25 1.5,-63.5 5.25,-9.5 16.5,-6.5 108.5,-11.5 22,5.5 84,42.5 12,3 22.5,3 30,-8.5 104,-29 26.5,-11 105.5,-57.5 56,-27 120.5,-55 192.5,-68 22.5,-5.5 16,4.5 26.5,24 21.5,14.5 16,5 45.5,-1 13.5424,-1.389933 12.831,1.509534 414.7445,203.787079 15.4727,3.39645 13.5858,1.88692 10.9441,-0.37739 9.0572,-0.75476"
     id="path836" />
  <path
     style="opacity:1;fill:none;fill-opacity:1;fill-rule:nonzero;stroke:#f2f2f2;stroke-width:8;stroke-linecap:butt;stroke-linejoin:round;stroke-miterlimit:4;stroke-dasharray:none;stroke-opacity:1"
     d="m 1375.5,-1466.9999 v 110 l -6.5,10.5 -14.5,10.5 -47.5,22 -38.5,10.5 -84,46.5 -65.5,47 -48.5,25 -37,23 -43,32.5 -3,8 -6.5,65.5 1,147.5 -5,19.5 -40.5,117.5 -28,69 -35,144 -3,27.5 10.5,39 3.5,59 19,38 12,38 -2.5,12.5 -20.5,34.5 -1,20.5 -17.5,38.5 -9.5,31.5 -16.5,31.5 2,20 6,15.5 188.5,180 9.5,18 4.5,20.5 0.5,19 -5,17.5 -61,152.5 -1.5,138.5 -4,9.5 -20,28.5 -5.5,26 v 42.5 l -0.048,17.8588 12.1347,32.2327 -1.1376,55.7437 -3.4129,36.7832 -4.1713,48.1595 -3.4129,8.3426 -98.215,44.7466 -28.4406,1.896 -67.4991,22.3733 -7.9634,6.0674 -16.6851,28.0614 -58.0189,31.4743 -23.8902,9.8594 -30.5231,26.3593 -15.0158,13.407 -9.1168,3.754 -33.7858,-8.8486 -46.3884,-22.792 h -19.038 l -29.2273,10.9938 -34.3221,8.8486 -8.5805,9.1168 -42.3662,58.4547 -137.5563,230.333 -10.4575,9.9212 -32.9813,14.2115 -9.1168,10.4575 -27.6185,46.1202 -13.6752,32.4451 -10.4575,25.2052 -43.4388,33.5176"
     id="path838" />
  <path
     style="opacity:1;fill:none;fill-opacity:1;fill-rule:nonzero;stroke:#f2f2f2;stroke-width:8;stroke-linecap:butt;stroke-linejoin:round;stroke-miterlimit:4;stroke-dasharray:none;stroke-opacity:1"
     d="m 1510.5,123.5001 -25,-29 -13,-7 -13.5,-3.5 -31.5,1 -12,-4.5 -34,-17.5 -20.5,-4 -130,1 -10,-1 -11,-5 -6.5,-4 -32,-34 -4.5,-7 -2,-17 -4,-244 3.5,-26.5 v -57 l -6,-26 -2,-174.5 9,-48.5 4.5,-39.5 6.5,-116.5 -2,-47.5 4,-65.5 7.5,-24 20.5,-19.5 24,-12 61,-30 13,-12.5 9.5,-12.5 7.5,-16.5 80,-349 13.5,-20.5 17.5,-13 72,-33 33.5,-5.5 21,2 83,21 h 18.5 l 22.5,-3.5 26.5,-7 40,-15 30.5,-6 29,2 33,4.5 27,-6.5 30,-9.5 183,-94.5 24.5,-11 80.5,-20 43.5,-16.5 105,-23 29,-3 47.5,-19.5 17.5,-2 103.5,19 31.5,-5.5 23,-7.5 48,-31.5 17,-12.5 128,-146.5 18.5,-14.5 17.5,-5.5 220.5,-0.5 16,-4 34.5,-20.5 21,-6.5 34,-0.5 57.5,-14.5 42,-37.5 136.5,-82 24.5,-9 502,2.5 36.5,-2.5 106.5,-27 28.5,-0.5 255.5,2 27,-4 23,-12 367.5,-229 24.5,-9 33.5,0.5 88,33 26,4 122,5.5 46,10.5 h 18 l 23.5,-5.5 73.5,-39 30.5,-9.5 95,-9.5 31.5,11.5 115,35 25.5,1.5 37.5,-11 92,-30 88.5,-2 21,-6 82.5,-46.5 118.5,-46.5 31,-8 29.5,-12.5"
     id="path840" />
  <path
     style="opacity:1;fill:none;fill-opacity:1;fill-rule:nonzero;stroke:#f2f2f2;stroke-width:8;stroke-linecap:butt;stroke-linejoin:round;stroke-miterlimit:4;stroke-dasharray:none;stroke-opacity:1"
     d="m 3275.5,-1918.4999 9.5,-12.5 3,-15 -3.5,-16.5 -9.5,-10.5 -119.5,-114.5 -20,-25.5 -62.5,-81 -59.5,-67 -29,-15 -17,-21.5 -28.5,-41.5 -12.5,-33 -14,-17 -26.5,-22.5 -79.5,-44.5 -13,-12 -37.5,-43.5 -23.5,-33 -16,-15.5 -34,-27.5 -26,-31.5 -8.5,-17 -4,-38 -5,-20.5 1,-46 -6.5,-47.5 4,-17.5 15.5,-36.5 7.5,-50 16,-22 29.5,-42 2,-22.5 -12.5,-84.5 4.5,-22 39,-75 82,-117.5 7,-16.5 14,-54"
     id="path842" />
  <path
     id="path841"
     d="M 114.9551,1333.5376 87.1955,1354.4889 64.1353,1362.265 32.7629,1352.0756 10.239,1322.0438 -29.4458,1279.6776 -80,1247 l -91,-44 -30,-4.5 -58.5,-0.5 -48,-21.5 -80.5,-9 -194,-44 -123.5,49 -12.5,10 -20,26.5 -85.5,142.5 -65,57.5 -160,91 -102,44.5 -23.5,-2.5 -20,-13 -13,-18.5 -3.5,-14 -1.5,-60 -14,-33.5 -17,-22 -17,-6 -34,3.5 -17,-7 -41.5,-17.5 -58,-14 -52.5,-6.5 -162.5,42 -20,9.5 -57.5,2 -32,-5 -18,3.5 -23,12 -20.5,16 -20.5,22.5 -5,58 -14.5,29.5 -1,18.5 2.5,33 -1,23.5 -3.5,12.5 -16.5,12.5 -64,28.5 -58,-3.5 -30,-10.5 -45,-11 -45.5,-19.5 -24,-3.5 -129.5,-8 -29,-4.5 -21.5,-16 -123.5,-124 -24,-11.5 -92,-15 -16,-6.5 -20.5,-17 -96,-99.5 -28.5,-19 -28,-8.5 -28,-2 -75,9.5 -17,10.5 -26.5,18.5 -29,11 -69.5,1 -11.5,4 -76.5,36 -17,19.5 -20.5,27 -21,11 -86,23.5 -41.5,4 -20.5,10.5 -107,79.5 -47,56 -37.5,22.5 -15,14.5 -11.5,22 -21,80 -16.5,26.5 -15.5,15.5 -37.5,20 -16,12 -17.5,20 -34.5,93.5 -25,41 -18,27 -18.5,16.5 -21.5,12 -26.5,5.5 -59,-2.5 -30.5,-13.5 -118.5,-56.5 -25,-3.5 -59,2 -30,-6 -69.5,-23.5 -33.5,-7 -76.5,-8.5 -44.5,2"
     style="opacity:1;fill:none;fill-opacity:1;fill-rule:nonzero;stroke:#f2f2f2;stroke-width:8;stroke-linecap:butt;stroke-linejoin:round;stroke-miterlimit:4;stroke-dasharray:none;stroke-opacity:1" />
  <path
     style="opacity:1;fill:none;fill-opacity:1;fill-rule:nonzero;stroke:#4ca9ec;stroke-width:5;stroke-linecap:butt;stroke-linejoin:round;stroke-miterlimit:4;stroke-dasharray:none;stroke-opacity:1"
     d="m 66.1089,1346.1629 9.2578,6.3483 11.8288,1.9777 12.2416,-2.2422 28.038,-19.3092 23.5375,-21.3512 16.4035,-34.4604 10.8448,-25.6574 24.5029,-43.6527 12.264,-10.3073 33.0637,-17.7221 10.8449,-14.019 132.5193,-215.8399 47.3472,-65.8629 15.0771,-10.0513 15.8706,-4.2322 19.0446,-4.7612 21.4253,-8.7288 12.432,2.1161 9.2578,3.4386 14.548,9.2579 7.1418,3.9676 17.4576,-1.8516 26.98,10.3159 11.6384,1.3226 9.7869,-6.3483 36.5023,-34.3862 11.3739,-6.0837 39.6765,-16.9287 34.9153,-22.7478 15.077,-22.7478 10.0514,-10.5804 19.8382,-6.6127 54.7535,-16.9287 20.6317,-0.2645 93.3719,-43.6441 4.2322,-5.0256 2.1161,-12.432 4.4966,-75.9142 -0.7935,-57.3986 -2.3806,-71.6821 -0.529,-29.3606 4.7035,-14.2721 10.638,-17.9981 11.6385,-16.3996 3.1741,-11.6384 1.587,-126.7001 1.8516,-9.7869 15.0514,-36.9833"
     id="path829" />
  <path
     style="opacity:1;fill:none;fill-opacity:1;fill-rule:nonzero;stroke:#4ca9ec;stroke-width:5;stroke-linecap:butt;stroke-linejoin:round;stroke-miterlimit:4;stroke-dasharray:none;stroke-opacity:1"
     d="m 1024.5865,202.9521 22.5886,8.9936 251.5486,-32.0057 23.0123,-0.529 19.5738,-8.4643 29.625,-7.9353 17.4577,6.0837 15.8705,2.9096 14.5481,-3.1741 39.4119,7.9353 44.4376,1.058 67.1855,-27.2444 27.2445,-55.0181 23.2768,-24.8639 89.1397,-1.8515 9.7869,7.1417 32.5347,79.6174 74.8562,17.9867 69.8306,-8.4643 100.7781,17.4576 11.9029,-0.529 19.0447,-2.6451 13.2255,1.3225 16.1351,8.4644 9.5224,9.7868 6.0837,12.6965 65.8629,44.4376 10.8449,3.4386 89.6687,-0.7935 13.7545,3.1741 12.961,5.8192 10.5804,8.7288 5.8192,2.9096 35.1798,3.9677 11.9029,-0.7935 13.2255,-6.6128"
     id="path825" />
</svg>
