<?xml version="1.0" encoding="UTF-8" standalone="no"?>
<svg
   xmlns:dc="http://purl.org/dc/elements/1.1/"
   xmlns:cc="http://creativecommons.org/ns#"
   xmlns:rdf="http://www.w3.org/1999/02/22-rdf-syntax-ns#"
   xmlns:svg="http://www.w3.org/2000/svg"
   xmlns="http://www.w3.org/2000/svg"
   xmlns:xlink="http://www.w3.org/1999/xlink"
   viewBox="0 0 1500 1575"
   height="1575"
   width="1500"
   id="svg2"
   version="1.1">
  <metadata
     id="metadata8">
    <rdf:RDF>
      <cc:Work
         rdf:about="">
        <dc:format>image/svg+xml</dc:format>
        <dc:type
           rdf:resource="http://purl.org/dc/dcmitype/StillImage" />
        <dc:title></dc:title>
      </cc:Work>
    </rdf:RDF>
  </metadata>
  <defs
     id="defs6" />
  <image
     xlink:href="../timelines/streetmap/lejosm.png"
     width="8407"
     height="6112.4751"
     preserveAspectRatio="none"
     id="image10"
     x="-190"
     y="-192.4751"
     style="display:none" />
  <path
     id="path836"
     d="m 4750.593,4933.5859 28.9088,-295.217 0.3525,-45.2549 -4.9356,-37.4766 -33.8445,-241.477 -35.6072,-253.4978 -34.1971,-253.4978 -16.2172,-112.7835 -1.7626,-31.1127 7.756,-50.9117 13.7493,-40.3051 21.8579,-36.0624 23.6206,-29.6985 27.1461,-27.2236 45.8312,-47.0226 16.5697,-27.9307 15.512,-41.7193 9.5188,-39.9516 -0.7051,-41.3657 -3.878,-34.2947 -8.4611,-28.9914 -70.8619,-226.6277 -12.3392,-26.87 -39.8378,-41.3658 -4.5831,-9.1924 -5.9933,-22.981 -8.1086,-41.0121 -0.7051,-19.799 3.5255,-19.799 8.8136,-18.0312 14.1019,-17.3242 19.0375,-18.3847 9.1663,-14.1422 44.4209,-62.5789 11.9866,-32.8805 -3.1729,-30.4056 -19.3901,-61.1647 -21.8579,-34.6483 -24.3258,-23.3345 -47.5938,-27.5771 -24.1572,-22.9224 -26.9231,-25.75 -16.9516,-10 -16.2038,-3.75 -17.9487,-0.75 -29.6653,7.5 -31.9089,13 -32.4075,17 -28.6682,19.75 -26.1753,16.25 -27.9203,10.25 -100.4632,16 -25.6767,7 -208.9036,72.25 -23.6824,12 -18.6966,16.5 -12.4644,18.75 -8.4758,22.5 -1.9943,21.25 4.4872,26.75 11.4672,22.75 12.4644,17 129.63,141.5 12.2151,18 9.473,15.5 8.2265,32.5 0.9971,26.25 -5.4843,39.5 -11.9658,71.25 -3.4901,13.25 -9.7222,11.5 -9.2237,5.75 -12.7137,4.25 -25.926,-3.75 -41.6311,-14.75 -19.6938,-1.25 -18.1981,3.75 -55.8406,24.75 -19.4445,3.75 -29.416,3 -79.7722,21.5 -49.8577,8 -139.6015,37.75"
     style="opacity:1;fill:none;fill-opacity:1;fill-rule:nonzero;stroke:#f2f2f2;stroke-width:8;stroke-linecap:butt;stroke-linejoin:round;stroke-miterlimit:4;stroke-dasharray:none;stroke-opacity:1" />
  <path
     id="path838"
     d="m 4778.4442,2679.6831 52.5295,-61.5183 79.6757,-106.7731 17.9798,-31.1127 9.5187,-31.8198 -1.0575,-27.9308 -89.8996,-353.9069 -25.3833,-107.1267"
     style="opacity:1;fill:none;fill-opacity:1;fill-rule:nonzero;stroke:#f2f2f2;stroke-width:8;stroke-linecap:butt;stroke-linejoin:round;stroke-miterlimit:4;stroke-dasharray:none;stroke-opacity:1" />
  <path
     id="path840"
     d="m 5030.1628,3069.2989 -32.4344,66.8216 -17.2748,21.9203 -63.1059,76.7211 -17.2748,11.6673 -18.685,7.7781 -15.512,0.7071 -17.9799,-6.0104 -12.6918,-7.4246 -11.634,-18.0312"
     style="opacity:1;fill:none;fill-opacity:1;fill-rule:nonzero;stroke:#f2f2f2;stroke-width:8;stroke-linecap:butt;stroke-linejoin:round;stroke-miterlimit:4;stroke-dasharray:none;stroke-opacity:1" />
  <path
     style="color:#000000;font-style:normal;font-variant:normal;font-weight:normal;font-stretch:normal;font-size:medium;line-height:normal;font-family:sans-serif;font-variant-ligatures:normal;font-variant-position:normal;font-variant-caps:normal;font-variant-numeric:normal;font-variant-alternates:normal;font-feature-settings:normal;text-indent:0;text-align:start;text-decoration:none;text-decoration-line:none;text-decoration-style:solid;text-decoration-color:#000000;letter-spacing:normal;word-spacing:normal;text-transform:none;writing-mode:lr-tb;direction:ltr;text-orientation:mixed;dominant-baseline:auto;baseline-shift:baseline;text-anchor:start;white-space:normal;shape-padding:0;clip-rule:nonzero;display:inline;overflow:visible;visibility:visible;opacity:1;isolation:auto;mix-blend-mode:normal;color-interpolation:sRGB;color-interpolation-filters:linearRGB;solid-color:#000000;solid-opacity:1;vector-effect:none;fill:none;fill-opacity:1;fill-rule:nonzero;stroke:#00a8e7;stroke-width:5;stroke-linecap:butt;stroke-linejoin:round;stroke-miterlimit:4;stroke-dasharray:none;stroke-dashoffset:0;stroke-opacity:1;color-rendering:auto;image-rendering:auto;shape-rendering:auto;text-rendering:auto;enable-background:accumulate"
     d="m 4183.8466,3007.7723 6.4702,-2.8019 3.0881,-6.1938 133.3745,-57.3658 9.9994,0.1475 6.029,-22.5629 -1.9116,-14.8945 5.2938,-16.0742 -1.0293,-7.0786 4.5914,-27.3165 24.5577,-14.8953 v 0 l 1.8872,-0.9902 135.6435,-47.9946 9.5219,0.4636 35.5485,44.8699 13.3273,14.3875 47.8456,55.2183 8.0877,1.9171 56.7614,-10.1755 24.1162,-5.4563 22.9398,-1.0323 7.4997,-4.4241 7.4995,-9.5856 12.6463,-30.0838 6.0291,-24.9224 1.6175,-29.494 1.0293,-9.1432 -6.1761,-13.7147 -9.2641,-3.5392 -20.2929,-14.3046 -11.7641,0.1474 -27.0572,3.2444 -55.879,0.7373 -41.3709,13.5709 -36.2717,13.4161 -46.3938,7.9032"
     id="path853" />
  <path
     style="color:#000000;font-style:normal;font-variant:normal;font-weight:normal;font-stretch:normal;font-size:medium;line-height:normal;font-family:sans-serif;font-variant-ligatures:normal;font-variant-position:normal;font-variant-caps:normal;font-variant-numeric:normal;font-variant-alternates:normal;font-feature-settings:normal;text-indent:0;text-align:start;text-decoration:none;text-decoration-line:none;text-decoration-style:solid;text-decoration-color:#000000;letter-spacing:normal;word-spacing:normal;text-transform:none;writing-mode:lr-tb;direction:ltr;text-orientation:mixed;dominant-baseline:auto;baseline-shift:baseline;text-anchor:start;white-space:normal;shape-padding:0;clip-rule:nonzero;display:inline;overflow:visible;visibility:visible;opacity:1;isolation:auto;mix-blend-mode:normal;color-interpolation:sRGB;color-interpolation-filters:linearRGB;solid-color:#000000;solid-opacity:1;vector-effect:none;fill:none;fill-opacity:1;fill-rule:nonzero;stroke:#ffcc00;stroke-width:5;stroke-linecap:butt;stroke-linejoin:round;stroke-miterlimit:4;stroke-dasharray:none;stroke-dashoffset:0;stroke-opacity:1;color-rendering:auto;image-rendering:auto;shape-rendering:auto;text-rendering:auto;enable-background:accumulate"
     d="m 3801.3731,3044.5763 38.4726,46.0904 10.314,4.5308 25.9415,-18.4141 28.3507,-11.6055 21.6901,-4.6406 30.4326,-2.6406 0.5746,-0.1192 19.4094,-6.4882 0.2766,-0.1114 57.348,-27.1347 0.2687,-0.1485 78.9952,-50.0644 39.8724,-19.4043 0.1384,-0.074 42.6439,-24.1836 0.2999,-0.2012 29.8483,-23.1836 18.0423,-10.0508 39.9348,-8.7719 1.9223,-2.8691 -4.3216,-24.9199 4.5689,-1.3086 5.7239,6.4883 0.3136,0.2988 17.3509,13.8613 2.2806,0.4356 39.4274,-10.9058 30.7005,-17.5102 139.1963,-49.252 6.9567,-1.0742 7.0865,-1.069 25.4112,31.7151 12.0616,13.1389 48.2469,55.4753 4.1488,1.165 57.1995,-9.7157 23.4995,-5.8395 22.2518,-0.8342 5.7976,-3.4591 7.0958,-8.637 11.8538,-29.1976 5.615,-23.5666 1.6636,-29.1976 1.8569,-11.1354 19.3551,-6.5917 15.181,0.6257 76.1135,-40.668 192.5714,16.2672 66.1313,3.7539 0.208,11.0534 22.0011,-0.3182 0.6543,0.023 27.2076,4.5957 20.202,-8.8457 1.0985,-0.207 41.3604,1.6934 4.4054,-13.2578 1.5483,-1.5704 35.5859,-12.3886 0.3778,-0.098 42.644,-7.6699 0.481,-0.039 36.4681,0.5898 0.8375,0.1602 22.3308,8.4355 25.1742,2.3203 39.7225,1.1719 21.2285,-2.7637 2.2086,-3.8242 -2.5552,-22.7754 -0.016,-0.3594 1.4704,-46.8945 0.1286,-0.7168 14.599,-43.6289 1.4508,-25.6192 0.15,-0.7226 12.3516,-33.6231 0.812,-1.1113 11.7653,-9.1426 0.7323,-0.3945 30.4579,-10.2793 10.5948,-4.9101 18.4687,-15.2286 21.6522,-22.9919 13.6213,14.286 -35.2735,8.7059"
     id="path1097" />
  <path
     style="opacity:1;fill:none;fill-opacity:0.5254902;fill-rule:nonzero;stroke:#ffcc00;stroke-width:5;stroke-linecap:butt;stroke-linejoin:round;stroke-miterlimit:4;stroke-dasharray:none;stroke-opacity:1"
     d="m 4650.7309,2897.9072 -3.2351,-4.1292 0.1471,-26.1022 -0.2942,-17.2539 2.941,-29.0516 -3.088,-6.7836 -13.2345,-13.2723 -1.0293,-3.3918 2.3527,-8.2584 12.7934,-20.7932 47.9384,-0.4424 20.4399,-4.2767 2.3528,-13.2723 0.4411,-18.4337 -13.3815,-53.0892 19.4106,-18.7287 25.5868,-3.8342 19.4106,-16.6641 41.7622,-21.2357 12.7934,-7.3735 33.2333,-37.4574 54.9968,-76.9793 4.7056,-7.0785 14.1168,-7.0786 15.5874,-31.5586 99.4415,-159.5982 66.1369,-17.6607 6.1762,-6.4886 11.764,-30.6738 -0.2941,-12.3875 2.6469,-3.2443 25.2926,-3.8342 13.5286,-0.5899"
     id="path877" />
  <path
     style="color:#000000;font-style:normal;font-variant:normal;font-weight:normal;font-stretch:normal;font-size:medium;line-height:normal;font-family:sans-serif;font-variant-ligatures:normal;font-variant-position:normal;font-variant-caps:normal;font-variant-numeric:normal;font-variant-alternates:normal;font-feature-settings:normal;text-indent:0;text-align:start;text-decoration:none;text-decoration-line:none;text-decoration-style:solid;text-decoration-color:#000000;letter-spacing:normal;word-spacing:normal;text-transform:none;writing-mode:lr-tb;direction:ltr;text-orientation:mixed;dominant-baseline:auto;baseline-shift:baseline;text-anchor:start;white-space:normal;shape-padding:0;clip-rule:nonzero;display:inline;overflow:visible;visibility:visible;opacity:1;isolation:auto;mix-blend-mode:normal;color-interpolation:sRGB;color-interpolation-filters:linearRGB;solid-color:#000000;solid-opacity:1;vector-effect:none;fill:none;fill-opacity:1;fill-rule:nonzero;stroke:#65b32e;stroke-width:5;stroke-linecap:butt;stroke-linejoin:round;stroke-miterlimit:4;stroke-dasharray:none;stroke-dashoffset:0;stroke-opacity:1;color-rendering:auto;image-rendering:auto;shape-rendering:auto;text-rendering:auto;enable-background:accumulate"
     d="m 5796.1287,2212.4457 -1.6636,8.5507 2.7034,4.7968 -24.5393,22.3152 -264.1096,154.5386 -75.9055,43.1707 -93.7902,72.1597 -181.3414,138.6884 -7.9025,8.1336 -84.0206,80.034 -193.8121,-16.3692 -76.4156,40.7061 -14.457,-0.9459 -24.2677,8.4625 -7.7936,-2.2121 -28.3807,-19.0236 -28.0866,3.5393 h -18.3813 l -36.9096,0.8848 -39.7036,12.8299 -37.7918,14.1571 -32.7303,4.46 -7.6462,1.1796 -0.4498,0.1133 -140.8753,49.8457 v 0 l -0.631,0.3301 -23.3793,14.3054 -3.6655,25.0163 0.8319,6.8823 -4.9911,15.433 1.2478,14.8073 -5.8229,22.7324 -80.0647,180.3992 -22.4597,27.9463 -21.2121,50.47 -3.9512,49.4273 23.2916,156.8327 v 21.2725 l -2.0797,1.6684 -58.8527,-7.2994 -3.3273,19.8126 -25.9951,133.0575 -4.7831,11.4705 -14.5572,20.8554 -18.0926,24.1923 -21.8358,18.1442 -9.7741,26.6949 -1.6637,15.2244 -7.6946,29.4061 -5.8229,56.7267 -4.991,3.3369 -1.8717,11.8876"
     id="path859" />
  <path
     style="opacity:1;fill:none;fill-opacity:0.5254902;fill-rule:nonzero;stroke:#164194;stroke-width:5;stroke-linecap:butt;stroke-linejoin:round;stroke-miterlimit:4;stroke-dasharray:none;stroke-opacity:1"
     d="m 4278.3027,2855.9805 -36.8855,18.8328 -11.6458,-11.4705 -0.8318,-19.3955 -16.4289,-25.8607 -46.7912,-53.8069 -23.7074,-27.7377 -46.3752,-33.5772 -10.19,-11.4705 -18.9244,-10.0106 -68.627,-58.3951 -59.8925,-75.7051 -36.601,-19.8127 -186.7485,-35.8713 -11.0218,-0.2085 -5.615,6.8823"
     id="path847" />
  <path
     style="opacity:1;fill:none;fill-opacity:0.5254902;fill-rule:nonzero;stroke:#e30613;stroke-width:5;stroke-linecap:butt;stroke-linejoin:round;stroke-miterlimit:4;stroke-dasharray:none;stroke-opacity:1"
     d="m 4869.8357,1947.6107 18.2342,2.2121 1.7646,-9.8805 -17.3519,-2.2121 -2.6469,9.8805 -171.4606,55.5962 -9.5582,5.7513 -1.1764,6.3412 12.0581,18.8762 40.5859,102.3442 31.6157,62.6747 12.6463,48.6651 7.7937,138.6217 -4.9997,37.6049 -3.8233,7.3735 -31.7653,46.6838 -17.6767,36.497 -30.9861,51.5128 -3.1194,101.1487 9.9821,11.4705 14.1413,53.1813 -0.2654,19.8788 26.6555,18.1243 6.3015,2.3298 1.086,7.4661 -2.7392,11.1354 -1.0755,27.133 -5.909,24.7463 -11.7067,28.6078 -5.4784,6.13 -4.7683,3.1641 -21.3695,0.6868 -20.5585,4.9546 -6.3397,7.6895 -0.6239,13.3431 -3.2265,19.2882 -0.2731,28.4855 -2.9576,42.8294 2.8358,26.1915 -6.0713,186.6432 -1.338,69.7618 0.3797,1.375 3.6167,5.791 0.5881,0.6504 27.2231,21.1054 0.2805,0.1875 29.3576,16.9844 10.324,13.127 10.2364,27.709 0.1363,0.3046 9.582,18.0743 0.3039,0.4472 6.6139,7.7871 5.7647,28.2989 24.7453,95.192 22.2518,36.0798 8.3184,17.31 7.0706,8.9678 4.9911,12.0962 11.8537,17.7271 2.9114,22.7324 17.2608,32.3258 7.9025,25.4436 2.2876,13.7646 5.6148,17.1014 3.9514,16.2672 0.2079,14.1817 -3.9513,16.2672 0.6239,13.556 6.6548,26.4864 7.6945,8.5507 4.3671,-1.4599 -0.6239,-7.0908 -4.991,-0.6257 -1.8716,2.2941 h -3.3274"
     id="path1107" />
  <path
     style="color:#000000;font-style:normal;font-variant:normal;font-weight:normal;font-stretch:normal;font-size:medium;line-height:normal;font-family:sans-serif;font-variant-ligatures:normal;font-variant-position:normal;font-variant-caps:normal;font-variant-numeric:normal;font-variant-alternates:normal;font-feature-settings:normal;text-indent:0;text-align:start;text-decoration:none;text-decoration-line:none;text-decoration-style:solid;text-decoration-color:#000000;letter-spacing:normal;word-spacing:normal;text-transform:none;writing-mode:lr-tb;direction:ltr;text-orientation:mixed;dominant-baseline:auto;baseline-shift:baseline;text-anchor:start;white-space:normal;shape-padding:0;clip-rule:nonzero;display:inline;overflow:visible;visibility:visible;opacity:1;isolation:auto;mix-blend-mode:normal;color-interpolation:sRGB;color-interpolation-filters:linearRGB;solid-color:#000000;solid-opacity:1;vector-effect:none;fill:none;fill-opacity:1;fill-rule:nonzero;stroke:#ffcc00;stroke-width:5;stroke-linecap:butt;stroke-linejoin:round;stroke-miterlimit:4;stroke-dasharray:none;stroke-dashoffset:0;stroke-opacity:1;color-rendering:auto;image-rendering:auto;shape-rendering:auto;text-rendering:auto;enable-background:accumulate"
     d="m 4783.6643,3420.0983 -8.0996,1.2845 -5.8953,-28.9297 -0.5453,-1.1211 -6.8535,-8.0683 -9.3755,-17.6856 -10.3144,-27.9199 -0.3798,-0.6797 -10.8654,-13.8164 -0.7108,-0.6172 -29.6283,-17.1387 -26.7401,-20.7304 -2.9857,-4.7813 1.3244,-69.0175 44.7496,-0.7759 2.794,-143.7832 5.4409,-21.0882 9.7053,-59.7254 0.8823,-7.6684 3.382,-11.0602 -33.8214,-32.001 -0.4412,-7.2261 11.764,-26.692 1.6176,-16.2217"
     id="path1103" />
  <path
     style="opacity:1;fill:none;fill-opacity:0.5254902;fill-rule:nonzero;stroke:#65b32e;stroke-width:5;stroke-linecap:butt;stroke-linejoin:round;stroke-miterlimit:4;stroke-dasharray:none;stroke-opacity:1"
     d="m 5507.1511,2403.5879 12.6463,21.8255 28.5277,23.5952 22.0576,17.9914 109.8464,121.8101 5.882,14.8945 -0.147,17.1065 -2.6469,98.51 -10.4406,12.24"
     id="path861" />
  <path
     style="opacity:1;fill:none;fill-opacity:0.5254902;fill-rule:nonzero;stroke:#164194;stroke-width:5;stroke-linecap:butt;stroke-linejoin:round;stroke-miterlimit:4;stroke-dasharray:none;stroke-opacity:1"
     d="m 4780.0344,2852.0809 29.3224,1.6684 56.7732,-15.0159 71.9543,-3.5454 32.0259,17.5186 9.9821,1.8769 13.7254,-0.6256 8.1105,5.6309 3.1194,6.2567 1.0398,8.5507 -0.6239,8.1336 -49.0787,138.2713 1.8716,4.3796 105.8519,43.7964 4.991,35.0371 35.3533,-1.877 5.199,39.6252 2.7035,2.7112 11.2299,-1.8769 28.4905,-9.385 18.9244,-2.9197 23.4995,3.9625 19.3403,12.5132"
     id="path863" />
  <path
     style="opacity:1;fill:none;fill-opacity:0.5254902;fill-rule:nonzero;stroke:#164194;stroke-width:5;stroke-linecap:butt;stroke-linejoin:round;stroke-miterlimit:4;stroke-dasharray:none;stroke-opacity:1"
     d="m 5064.1083,3068.9771 36.601,10.4277 3.7433,22.7324"
     id="path865" />
  <path
     style="opacity:1;fill:none;fill-opacity:0.5254902;fill-rule:nonzero;stroke:#164194;stroke-width:5;stroke-linecap:butt;stroke-linejoin:round;stroke-miterlimit:4;stroke-dasharray:none;stroke-opacity:1"
     d="m 4989.8664,2855.0007 2.0797,-6.0481 14.7651,-28.5719 25.3712,-26.4864 17.2607,-8.5507 15.3891,-3.1283 10.6059,-4.7967 17.6766,-10.2192 8.3185,-2.5026 21.7318,5.0053 30.7834,-0.5223 27.6145,4.6641 1.412,-0.1739 20.354,-8.914 42.6594,1.7461 2.4677,-1.7071 4.6118,-13.875 34.2402,-11.9179 42.2153,-7.5918 35.7924,0.5781 22.2412,8.4004 0.6504,0.1504 25.5853,2.3594 0.1557,0.01 39.9972,1.1797 0.3953,-0.019 22.6444,-2.9493 1.8365,-1.2265 3.2349,-5.6035 0.3214,-1.5332 -2.6273,-23.4161 1.4529,-46.3476 14.5892,-43.5977 0.1246,-0.6543 1.4491,-25.582 11.9775,-32.5996 10.8655,-8.4453 30.1872,-10.1895 0.2512,-0.1 11.0077,-5.1015 0.5375,-0.3379 18.7161,-15.4336 15.9895,-17.3645 79.3212,88.1446 5.1386,12.5628 -2.794,113.2569 -9.3376,10.6179"
     id="path867" />
  <path
     style="color:#000000;font-style:normal;font-variant:normal;font-weight:normal;font-stretch:normal;font-size:medium;line-height:normal;font-family:sans-serif;font-variant-ligatures:normal;font-variant-position:normal;font-variant-caps:normal;font-variant-numeric:normal;font-variant-alternates:normal;font-feature-settings:normal;text-indent:0;text-align:start;text-decoration:none;text-decoration-line:none;text-decoration-style:solid;text-decoration-color:#000000;letter-spacing:normal;word-spacing:normal;text-transform:none;writing-mode:lr-tb;direction:ltr;text-orientation:mixed;dominant-baseline:auto;baseline-shift:baseline;text-anchor:start;white-space:normal;shape-padding:0;clip-rule:nonzero;display:inline;overflow:visible;visibility:visible;opacity:1;isolation:auto;mix-blend-mode:normal;color-interpolation:sRGB;color-interpolation-filters:linearRGB;solid-color:#000000;solid-opacity:1;vector-effect:none;fill:none;fill-opacity:1;fill-rule:nonzero;stroke:#ffcc00;stroke-width:5;stroke-linecap:butt;stroke-linejoin:round;stroke-miterlimit:4;stroke-dasharray:none;stroke-dashoffset:0;stroke-opacity:1;color-rendering:auto;image-rendering:auto;shape-rendering:auto;text-rendering:auto;enable-background:accumulate"
     d="m 3765.783,3258.0288 3.5292,7.9634 5.0988,0.608 91.7109,-29.4062 0.3993,-0.094 18.5077,-2.7109 0.1577,-0.018 53.7684,-4.3711 25.9104,-4.125 41.6098,-13.7031 0.3038,-0.078 52.405,-10.2188 0.4266,-0.047 10.398,-0.207 1.7353,0.6582 12.4586,11.4707 15.6681,8.5332 24.8723,-7.4043 3.8231,-4.834 6.5945,-81.832 0.7887,-1.6289 2.9116,-2.7129 1.7198,-0.668 110.7852,1.0781 0.7518,0.1231 45.6919,14.9805 20.0988,3.2129 0.5259,0.1445 30.5358,12.1348 8.7173,-1.418 52.4577,-156.9512 0.7693,-1.1269 3.529,-2.9493 2.2806,-0.4824 11.3115,3.2403 2.8473,-1.711 20.5527,-42.6582 -1.118,-13.1797 0.855,-2.1035 109.6986,-94.9707 8.1877,0.4611"
     id="path875" />
  <path
     style="color:#000000;font-style:normal;font-variant:normal;font-weight:normal;font-stretch:normal;font-size:medium;line-height:normal;font-family:sans-serif;font-variant-ligatures:normal;font-variant-position:normal;font-variant-caps:normal;font-variant-numeric:normal;font-variant-alternates:normal;font-feature-settings:normal;text-indent:0;text-align:start;text-decoration:none;text-decoration-line:none;text-decoration-style:solid;text-decoration-color:#000000;letter-spacing:normal;word-spacing:normal;text-transform:none;writing-mode:lr-tb;direction:ltr;text-orientation:mixed;dominant-baseline:auto;baseline-shift:baseline;text-anchor:start;white-space:normal;shape-padding:0;clip-rule:nonzero;display:inline;overflow:visible;visibility:visible;opacity:1;isolation:auto;mix-blend-mode:normal;color-interpolation:sRGB;color-interpolation-filters:linearRGB;solid-color:#000000;solid-opacity:1;vector-effect:none;fill:none;fill-opacity:1;fill-rule:nonzero;stroke:#65b32e;stroke-width:5;stroke-linecap:butt;stroke-linejoin:round;stroke-miterlimit:4;stroke-dasharray:none;stroke-dashoffset:0;stroke-opacity:1;color-rendering:auto;image-rendering:auto;shape-rendering:auto;text-rendering:auto;enable-background:accumulate"
     d="m 3582.2644,3340.3171 15.7344,-0.1475 56.6142,-15.1894 56.4673,-31.2636 64.8498,-22.3547 91.5142,-29.3437 18.2253,-2.6699 53.782,-4.3731 0.1908,-0.022 26.2026,-4.1719 0.3856,-0.094 41.6526,-13.7148 52.0409,-10.1485 9.1847,-0.1855 11.9483,11.0019 0.4966,0.3555 16.8445,9.1758 1.8989,0.2011 26.6193,-7.9257 1.2446,-0.8438 4.7832,-6.0469 0.5317,-1.3535 6.5749,-81.6172 1.4743,-1.373 109.4084,1.0644 45.5146,14.9219 0.3818,0.092 20.0229,3.2012 30.9195,12.2871 1.3166,0.1426 10.881,-1.7696 1.9651,-1.6738 52.7128,-157.709 1.9748,-1.6504 11.0836,3.1758 1.967,-0.2597 4.4113,-2.6543 0.9621,-1.0567 21.1758,-43.9453 0.2396,-1.2988 -1.0692,-12.5918 108.7365,-94.1367 27.0463,-9.8565 6.176,-4.719 16.7638,-23.8902 16.6167,-16.5166 12.3522,-22.5629 9.5583,-7.3735"
     id="path869" />
  <path
     style="color:#000000;font-style:normal;font-variant:normal;font-weight:normal;font-stretch:normal;font-size:medium;line-height:normal;font-family:sans-serif;font-variant-ligatures:normal;font-variant-position:normal;font-variant-caps:normal;font-variant-numeric:normal;font-variant-alternates:normal;font-feature-settings:normal;text-indent:0;text-align:start;text-decoration:none;text-decoration-line:none;text-decoration-style:solid;text-decoration-color:#000000;letter-spacing:normal;word-spacing:normal;text-transform:none;writing-mode:lr-tb;direction:ltr;text-orientation:mixed;dominant-baseline:auto;baseline-shift:baseline;text-anchor:start;white-space:normal;shape-padding:0;clip-rule:nonzero;display:inline;overflow:visible;visibility:visible;opacity:1;isolation:auto;mix-blend-mode:normal;color-interpolation:sRGB;color-interpolation-filters:linearRGB;solid-color:#000000;solid-opacity:1;vector-effect:none;fill:none;fill-opacity:1;fill-rule:nonzero;stroke:#164194;stroke-width:5;stroke-linecap:butt;stroke-linejoin:round;stroke-miterlimit:4;stroke-dasharray:none;stroke-dashoffset:0;stroke-opacity:1;color-rendering:auto;image-rendering:auto;shape-rendering:auto;text-rendering:auto;enable-background:accumulate"
     d="m 3612.2625,3056.8798 0.5883,20.3509 35.8802,7.9633 3.8233,5.309 7.6467,24.7749 -5.882,26.5446 7.9406,28.6092 5.882,2.6544 83.2304,-25.9547 7.6467,1.1798 27.9395,-13.2723 60.321,-43.9215 26.1753,-18.582 0.4986,-0.2735 28.82,-11.7969 0.4227,-0.1308 22.058,-4.7188 0.3039,-0.047 30.2944,-2.6289 18.9888,-6.3477 57.0772,-27.0059 78.9835,-50.0566 0.2434,-0.1367 39.9271,-19.4317 42.42,-24.0566 29.8541,-23.1895 0.3175,-0.2089 18.5272,-10.3243 0.6777,-0.2558 37.96,-8.336 -4.2963,-24.7753 1.7704,-2.834 8.2362,-2.3594 0.5512,-0.092 2.0001,0.8398 6.6198,7.5059 16.157,12.9062 38.0105,-10.1648 29.6888,-17.3508 0.6291,-0.3301 139.7553,-49.4492 0.4499,-0.1133 7.1865,-1.1093 32.6332,-4.6635 38.7487,-14.8582 38.4047,-12.6709 56.1493,-0.4171 24.7472,-4.1711 27.8667,17.9357 -11.6458,54.8497 1.2478,4.7967 30.3622,12.9304 13.9333,2.0855 12.4777,12.5132 23.4995,15.6416 27.0348,25.0265 19.7562,22.5238 42.216,46.5076 11.2299,17.9356 5.8228,15.8501 4.3673,21.2725 9.5661,26.2778 6.2389,14.1817 18.5084,32.3259 3.6392,6.048 14.4534,22.1067 28.4963,38.3807 26.4051,40.2442 16.221,18.5613 82.7682,85.0901 3.3273,6.6737 7.6946,30.6575 5.615,7.0908 34.7293,30.866 128.3115,142.6509"
     id="path820" />
  <path
     style="opacity:1;fill:none;fill-opacity:0.5254902;fill-rule:nonzero;stroke:#164194;stroke-width:5;stroke-linecap:butt;stroke-linejoin:round;stroke-miterlimit:4;stroke-dasharray:none;stroke-opacity:1"
     d="m 4562.092,2509.2181 3.1194,-15.2245 27.0348,4.7968"
     id="path913" />
  <path
     style="opacity:1;fill:none;fill-opacity:0.5254902;fill-rule:nonzero;stroke:#e30613;stroke-width:5;stroke-linecap:butt;stroke-linejoin:round;stroke-miterlimit:4;stroke-dasharray:none;stroke-opacity:1"
     d="m 3214.093,1960.9295 36.601,13.3475 132.2629,65.9031 4.1592,-1.6685 13.3094,-6.2566 6.2388,0.8342 124.3604,57.9781 19.1322,13.7645 51.9901,7.508 61.5563,2.5026 77.3612,10.4277 19.9642,19.6041 82.3523,40.0424 24.5394,6.6737 12.8935,2.0855 9.9821,-2.9197 22.4597,14.5988 210.8718,66.3201 61.5563,16.2673 212.5354,120.1271 279.0828,101.7743 9.9821,11.6791 15.805,44.6305"
     id="path1045" />
  <path
     style="opacity:1;fill:none;fill-opacity:0.5254902;fill-rule:nonzero;stroke:#164194;stroke-width:5;stroke-linecap:butt;stroke-linejoin:round;stroke-miterlimit:4;stroke-dasharray:none;stroke-opacity:1"
     d="m 4657.4952,2764.1519 -6.1761,-9.1431 2.2058,-6.9311 -5.1468,-39.9644 4.9997,-13.8621 18.6754,-48.8126 -1.9117,-23.1528 -34.1157,-43.0612 -10.4405,-18.4338 -1.1764,-6.6361 -8.3819,-10.7653 0.2942,-3.8342 4.2644,-2.3595 21.4693,-35.8352 3.3822,-5.4564 42.0563,-43.6511 29.116,-171.6551 6.7643,-2.0646"
     id="path879" />
  <path
     style="opacity:1;fill:none;fill-opacity:0.5254902;fill-rule:nonzero;stroke:#164194;stroke-width:5;stroke-linecap:butt;stroke-linejoin:round;stroke-miterlimit:4;stroke-dasharray:none;stroke-opacity:1"
     d="m 4544.4154,2793.8943 -12.4776,-8.9678 -40.9683,-117.833 -11.0218,-15.433 -4.7831,-37.7483 3.7433,-10.0106 12.4775,-9.5935 32.026,-20.6468 11.6458,-11.679 3.3274,-16.2673 5.8229,-7.5079 19.7562,-6.8823 1.4557,-3.1283 -4.1592,-15.6416 0.8318,-3.3368 4.5751,-3.5454 24.3314,-0.6257 16.013,-100.9402 -30.1544,-78.6248 -47.2069,-99.6888 -32.6498,-36.497 0.208,-6.2566"
     id="path911" />
  <path
     style="opacity:1;fill:none;fill-opacity:0.5254902;fill-rule:nonzero;stroke:#164194;stroke-width:5;stroke-linecap:butt;stroke-linejoin:round;stroke-miterlimit:4;stroke-dasharray:none;stroke-opacity:1"
     d="m 5580.8092,2520.9516 25.0483,-5.7185"
     id="path1099" />
  <path
     style="opacity:1;fill:none;fill-opacity:0.5254902;fill-rule:nonzero;stroke:#ffcc00;stroke-width:5;stroke-linecap:butt;stroke-linejoin:round;stroke-miterlimit:4;stroke-dasharray:none;stroke-opacity:1"
     d="m 4739.5491,2966.7757 14.1169,13.3438 9.8776,2.0035 49.6778,33.6127 22.0575,24.1851 57.3495,44.0935 19.2529,12.2834 22.5637,8.2378 18.5085,4.6925 5.8229,-0.8342 14.2576,22.3502 28.3743,38.6519"
     id="path1129" />
  <path
     style="opacity:1;fill:none;fill-opacity:0.5254902;fill-rule:nonzero;stroke:#e30613;stroke-width:5;stroke-linecap:butt;stroke-linejoin:round;stroke-miterlimit:4;stroke-dasharray:none;stroke-opacity:1"
     d="m 4726.1936,2880.6694 -2.8199,5.7351 -1.4705,15.4843 -11.617,26.1023 0.2941,4.5715 45.1192,42.601 9.7409,2.2583 50.6254,34.4691 23.6351,25.2173 43.5877,33.2776 -1.983,6.6973 -27.2043,16.2217 -0.5882,5.1614 9.4975,14.9328 10.3981,16.0587 3.5353,8.7592 v 11.0534 l -6.2388,65.6945 17.8845,63.4004 2.0797,23.5666 -2.2876,197.7092 3.9512,5.0053 5.1991,3.754"
     id="path1127" />
  <path
     style="opacity:1;fill:none;fill-opacity:0.5254902;fill-rule:nonzero;stroke:#e30613;stroke-width:5;stroke-linecap:butt;stroke-linejoin:round;stroke-miterlimit:4;stroke-dasharray:none;stroke-opacity:1"
     d="m 4684.9965,3299.4293 12.4777,0.6256 24.7473,-11.2619 6.4468,-5.6309 79.2329,14.3902 26.8268,-1.0428 28.4906,-2.7112 12.4776,-4.7967 8.1105,-4.3797 5.4069,2.9198"
     id="path1131" />
  <path
     style="opacity:1;fill:none;fill-opacity:0.5254902;fill-rule:nonzero;stroke:#65b32e;stroke-width:5;stroke-linecap:butt;stroke-linejoin:round;stroke-miterlimit:4;stroke-dasharray:none;stroke-opacity:1"
     d="m 4978.9469,2737.4599 3.235,-2.9494 2.0588,-30.9687 -3.5293,-40.9967 2.941,-5.014 16.1756,-7.3734 80.2894,-81.6984 13.8227,-29.494 v -7.0786 l -3.5292,-4.1291 -14.705,0.2949 -62.6434,-7.9634 -8.823,-4.719 -8.2348,-14.1571 -12.9404,-27.7244 -24.9985,-16.5166 h -9.7053 l -4.3581,-4.0755 0.1902,-5.6754 105.2523,-168.7057"
     id="path1133" />
  <path
     id="path839"
     d="m 690.06173,86.0699 -1.32033,-21.7161 2.11257,-3.4428 h 3.16895 l 2.90481,2.6483 0.79224,16.6843 -10.56305,9.0043 12.41157,64.8834 8.71462,12.7119 4.75333,5.0318 42.51633,67.5318 7.39419,10.0635 19.01352,32.5742 -10.299,231.9915 3.433,37.3411 9.24262,20.1271 4.48938,4.2373 2.64076,11.1229 10.03486,8.2097 5.28152,6.0911 -0.26405,15.3602"
     style="opacity:1;fill:none;fill-opacity:0.5254902;fill-rule:nonzero;stroke:#ee1d23;stroke-width:5;stroke-linecap:butt;stroke-linejoin:round;stroke-miterlimit:4;stroke-dasharray:none;stroke-opacity:1" />
  <path
     id="path841"
     d="m 1045.5089,221.928 -3.9611,9.269 -106.15882,144.5975 -22.71057,10.0635 -1.32043,3.9725 5.80972,19.5975 8.18633,61.7055 1.05638,8.4745 -2.11267,6.0911 -15.05233,16.1547 -8.18643,17.7436 -5.01747,5.5615 -4.48929,10.858 -2.37671,6.6208 -16.63681,16.1547 -4.75333,4.2373 -7.39419,8.7394 -5.01748,9.269 -12.14752,16.1547 -9.24261,7.9449 -27.464,11.3877 0.52819,7.9449 6.07376,11.6526 2.11257,8.4745 -2.11257,9.0043 -3.96119,6.8856 0.79224,3.7076 5.54557,6.3559 1.58448,3.7077 -0.5281,18.2733 -4.75343,6.6207 2.90481,24.3644 0.26415,25.6886 -5.01748,13.5064 -4.48928,4.2372 -85.03265,1.589 -4.48939,13.5064 -2.11257,2.6483 -12.67571,51.3771 -16.90085,25.4237 -21.12619,37.8708 -45.94933,59.0572 -10.56304,17.7437 -54.13566,74.1525 v 5.5614 l 3.16885,8.7394 -1.32033,6.6208 -3.96119,10.0636 0.52819,8.7394 4.48929,19.0678 5.80971,6.0911 13.20381,4.7669 13.20381,9.7987 30.3688,7.945 48.32604,7.4152 49.91052,4.767"
     style="opacity:1;fill:none;fill-opacity:0.5254902;fill-rule:nonzero;stroke:#ee1d23;stroke-width:5;stroke-linecap:butt;stroke-linejoin:round;stroke-miterlimit:4;stroke-dasharray:none;stroke-opacity:1" />
  <path
     id="path843"
     d="m 809.95257,762.7119 -11.61933,28.3368 -0.26414,24.0996 7.13004,10.858 13.732,110.4344 2.37671,9.5339 11.09124,83.9512 -99.02879,0.2649 -12.41157,126.589 -8.97857,29.9258 -1.84852,11.3877 2.37661,5.0318 5.01748,2.1186 52.02308,5.0318 4.48929,3.9725 1.05638,6.3559 -9.50676,94.0148 2.11257,7.1505 12.41157,10.858 1.05638,2.9132 -0.26414,3.7076 -30.8969,51.3771 -0.79224,5.0318 2.37672,4.5021 28.78433,2.6483 9.50676,-5.0318"
     style="opacity:1;fill:none;fill-opacity:0.5254902;fill-rule:nonzero;stroke:#ee1d23;stroke-width:5;stroke-linecap:butt;stroke-linejoin:round;stroke-miterlimit:4;stroke-dasharray:none;stroke-opacity:1" />
  <path
     id="path845"
     d="m 832.39909,1029.9258 13.99605,102.7543"
     style="opacity:1;fill:none;fill-opacity:0.5254902;fill-rule:nonzero;stroke:#ee1d23;stroke-width:5;stroke-linecap:butt;stroke-linejoin:round;stroke-miterlimit:4;stroke-dasharray:none;stroke-opacity:1" />
  <path
     id="path848"
     d="m 774.0381,460.5402 -59.41718,2.1187 -20.0698,5.2966 -29.57667,-108.5805 1.84862,-17.214 2.11257,-12.447 11.88348,-6.8856 7.39409,-2.6483 27.99219,-38.9301 17.1649,-40.2542 0.26414,-36.8115"
     style="opacity:1;fill:none;fill-opacity:0.5254902;fill-rule:nonzero;stroke:#ee1d23;stroke-width:5;stroke-linecap:butt;stroke-linejoin:round;stroke-miterlimit:4;stroke-dasharray:none;stroke-opacity:1" />
  <path
     id="path850"
     d="m 832.39909,1029.9258 111.44037,-1.0593 -2.64077,-296.6102 3.69705,-11.9173 3.16895,-1.589 10.8271,-0.2648 2.15833,-2.6196 -1.30716,-18.3518 -3.17444,-1.4981 -10.27018,-0.1873 -11.01705,-5.4306 -5.43798,-30.9698"
     style="opacity:1;fill:none;fill-opacity:0.5254902;fill-rule:nonzero;stroke:#ee1d23;stroke-width:5;stroke-linecap:butt;stroke-linejoin:round;stroke-miterlimit:4;stroke-dasharray:none;stroke-opacity:1" />
  <path
     id="path852"
     d="m 929.84331,659.428 -6.8659,-23.57 -24.29514,-79.9788 -5.28152,-10.5932 -4.22524,-2.6483"
     style="opacity:1;fill:none;fill-opacity:0.5254902;fill-rule:nonzero;stroke:#ee1d23;stroke-width:5;stroke-linecap:butt;stroke-linejoin:round;stroke-miterlimit:4;stroke-dasharray:none;stroke-opacity:1" />
  <path
     id="path854"
     d="m 893.40075,545.286 -2.11257,-9.7987"
     style="opacity:1;fill:none;fill-opacity:0.5254902;fill-rule:nonzero;stroke:#ee1d23;stroke-width:5;stroke-linecap:butt;stroke-linejoin:round;stroke-miterlimit:4;stroke-dasharray:none;stroke-opacity:1" />
  <path
     id="path856"
     d="m 896.04151,525.1589 -115.6655,-86.5996 -5.80972,-10.0635"
     style="opacity:1;fill:none;fill-opacity:0.5254902;fill-rule:nonzero;stroke:#ee1d23;stroke-width:5;stroke-linecap:butt;stroke-linejoin:round;stroke-miterlimit:4;stroke-dasharray:none;stroke-opacity:1" />
  <path
     id="path858"
     d="m 811.80109,699.1525 -4.75333,-6.6207 -23.5029,-4.767 -12.93966,-8.7394 -30.63295,-11.6525 -13.20381,-15.0954 -18.22128,-6.0911 -9.77081,2.1187 -39.87566,-0.7945 -38.02694,-8.7394 -29.04848,-4.2373 -2.64076,-33.3687 -7.13004,-33.6334 -19.54172,-76.2712 -24.55909,-41.3136 -9.24271,-6.6207 -74.73365,-83.1568 -10.03496,-18.803 -53.60756,-88.4534 3.16895,-5.5614 14.78829,0.2648"
     style="opacity:1;fill:none;fill-opacity:0.5254902;fill-rule:nonzero;stroke:#ee1d23;stroke-width:5;stroke-linecap:butt;stroke-linejoin:round;stroke-miterlimit:4;stroke-dasharray:none;stroke-opacity:1" />
  <path
     id="path860"
     d="m 943.83946,1028.8665 4.75333,457.6271 10.03495,21.1865"
     style="opacity:1;fill:none;fill-opacity:0.5254902;fill-rule:nonzero;stroke:#ee1d23;stroke-width:5;stroke-linecap:butt;stroke-linejoin:round;stroke-miterlimit:4;stroke-dasharray:none;stroke-opacity:1" />
  <path
     id="path862"
     d="m 991.90135,690.1483 5.80972,-2.3835 51.75903,-1.3241 122.2675,10.858 h 29.8406 l 92.6909,-3.4428 15.3164,0.5297 38.2911,-0.7945 15.8447,-2.6483 39.0833,-1.3242 10.299,-3.7076 12.4116,0.5297 10.299,-6.8856"
     style="opacity:1;fill:none;fill-opacity:0.5254902;fill-rule:nonzero;stroke:#ee1d23;stroke-width:5;stroke-linecap:butt;stroke-linejoin:round;stroke-miterlimit:4;stroke-dasharray:none;stroke-opacity:1" />
  <path
     id="path864"
     d="m 1049.4701,686.4407 -3.9612,-133.7394 -2.9048,-13.2416 -24.8232,-16.4195 -16.1087,-3.4428 -23.2387,1.0594 -77.37452,-1.0594"
     style="opacity:1;fill:none;fill-opacity:0.5254902;fill-rule:nonzero;stroke:#ee1d23;stroke-width:5;stroke-linecap:butt;stroke-linejoin:round;stroke-miterlimit:4;stroke-dasharray:none;stroke-opacity:1" />
  <path
     id="path866"
     d="m 774.56629,436.4407 -3.16895,-7.4153 -19.01352,-18.803 -5.54557,-10.858 -9.77081,-37.3411 -3.16895,-1.8538 -7.39409,3.4428 -22.71067,-0.7945 -9.24261,-3.7076 -28.25624,-10.8581"
     style="opacity:1;fill:none;fill-opacity:0.5254902;fill-rule:nonzero;stroke:#ee1d23;stroke-width:5;stroke-linecap:butt;stroke-linejoin:round;stroke-miterlimit:4;stroke-dasharray:none;stroke-opacity:1" />
  <path
     id="path868"
     d="m 668.93564,329.714 -11.09124,-0.2649 -7.92228,-4.5021 -12.93976,-38.4004 -15.31647,-9.7987 -20.06981,-2.9132 -21.65428,-14.036 -11.88338,-11.3877 -5.28162,-2.3835 -96.65198,-1.0593 -10.56305,4.2373 -47.26975,-1.589"
     style="opacity:1;fill:none;fill-opacity:0.5254902;fill-rule:nonzero;stroke:#ee1d23;stroke-width:5;stroke-linecap:butt;stroke-linejoin:round;stroke-miterlimit:4;stroke-dasharray:none;stroke-opacity:1" />
  <path
     id="path870"
     d="m 591.82527,634.5339 -15.31647,-1.589 -12.41157,7.9449 -7.92228,9.2691 -76.84633,7.1504 -138.11212,29.3962 -19.80566,1.589 -153.16445,-1.589 0.79224,35.2225"
     style="opacity:1;fill:none;fill-opacity:0.5254902;fill-rule:nonzero;stroke:#ee1d23;stroke-width:5;stroke-linecap:butt;stroke-linejoin:round;stroke-miterlimit:4;stroke-dasharray:none;stroke-opacity:1" />
  <path
     id="path872"
     d="m 171.41524,687.2352 -12.14752,-7.4153 -6.07376,-15.0953 -4.22524,-2.1187 -31.68913,12.1822 -33.009566,6.8856 -19.013521,-0.5296 -6.073761,-3.7077"
     style="opacity:1;fill:none;fill-opacity:0.5254902;fill-rule:nonzero;stroke:#ee1d23;stroke-width:5;stroke-linecap:butt;stroke-linejoin:round;stroke-miterlimit:4;stroke-dasharray:none;stroke-opacity:1" />
  <path
     id="path874"
     d="m 708.54716,646.1864 25.61537,-1.0593 7.13015,-2.6483 9.24261,-6.8856 8.45048,-8.7394 h 5.01748 l 8.45047,12.447 34.59404,-14.8305"
     style="opacity:1;fill:none;fill-opacity:0.5254902;fill-rule:nonzero;stroke:#ee1d23;stroke-width:5;stroke-linecap:butt;stroke-linejoin:round;stroke-miterlimit:4;stroke-dasharray:none;stroke-opacity:1" />
  <path
     id="path876"
     d="m 807.04776,692.5318 h 9.50676 l 40.11329,-4.5684 11.95078,1.8726 6.34878,2.2472 8.58958,7.6778"
     style="opacity:1;fill:none;fill-opacity:0.5254902;fill-rule:nonzero;stroke:#ee1d23;stroke-width:5;stroke-linecap:butt;stroke-linejoin:round;stroke-miterlimit:4;stroke-dasharray:none;stroke-opacity:1" />
  <path
     id="path878"
     d="m 883.55695,699.761 5.04171,2.6216 35.66558,-5.0561 11.01705,-6.9287"
     style="opacity:1;fill:none;fill-opacity:0.5254902;fill-rule:nonzero;stroke:#ee1d23;stroke-width:5;stroke-linecap:butt;stroke-linejoin:round;stroke-miterlimit:4;stroke-dasharray:none;stroke-opacity:1" />
  <path
     id="path880"
     d="m 956.56852,696.0157 21.28733,-3.1835 14.0455,-2.6839"
     style="opacity:1;fill:none;fill-opacity:0.5254902;fill-rule:nonzero;stroke:#ee1d23;stroke-width:5;stroke-linecap:butt;stroke-linejoin:round;stroke-miterlimit:4;stroke-dasharray:none;stroke-opacity:1" />
</svg>
