<?xml version="1.0" encoding="UTF-8" standalone="no"?>
<svg
   xmlns:dc="http://purl.org/dc/elements/1.1/"
   xmlns:cc="http://creativecommons.org/ns#"
   xmlns:rdf="http://www.w3.org/1999/02/22-rdf-syntax-ns#"
   xmlns:svg="http://www.w3.org/2000/svg"
   xmlns="http://www.w3.org/2000/svg"
   xmlns:xlink="http://www.w3.org/1999/xlink"
   viewBox="0 0 700 1225"
   height="1225"
   width="700"
   id="svg2"
   version="1.1">
  <metadata
     id="metadata8">
    <rdf:RDF>
      <cc:Work
         rdf:about="">
        <dc:format>image/svg+xml</dc:format>
        <dc:type
           rdf:resource="http://purl.org/dc/dcmitype/StillImage" />
        <dc:title></dc:title>
      </cc:Work>
    </rdf:RDF>
  </metadata>
  <defs
     id="defs6" />
  <image
     xlink:href="streetmap/jn_osm.png"
     width="850.79999"
     height="1701.6"
     preserveAspectRatio="none"
     id="image10"
     x="-110"
     y="-271.59998"
     style="display:none" />
  <path
     id="path836"
     d="m 396.84746,66.4746 -18.98305,-4.33898 -29.01695,-1.08475 -7.32204,3.52543 -8.40677,8.67796 -27.66102,24.94916 -13.55932,19.79661 -16.54238,14.37288 -6.23728,8.13559 -12.74577,19.52542 -14.64407,13.83051 -13.01694,11.11867 -6.50848,8.6779 -7.32203,19.2543 -23.59322,42.3051 -1.89831,11.3898 0.54237,11.9322 18.44068,42.0339 v 7.5932 l -3.79661,17.6271 1.08475,6.5085 5.9661,17.3559 -2.16949,28.2034"
     style="opacity:1;fill:none;fill-opacity:0.5254902;fill-rule:nonzero;stroke:#e2000b;stroke-width:5;stroke-linecap:butt;stroke-linejoin:round;stroke-miterlimit:4;stroke-dasharray:none;stroke-opacity:1" />
  <path
     id="path838"
     d="m 496.1017,321.1187 -45.28814,3.7966 -21.15254,-1.6271 -47.45763,-9.7627 -6.50847,0.5423 -7.59322,4.339 -3.52543,4.8814 -12.47457,26.5762 -13.55933,12.7458 -45.8305,31.7288 -17.35594,6.5085 -35.25423,-1.8984 -18.98306,0.5424 -11.66101,-1.6271 -2.44068,24.4068 -33.35593,2.1695 -3.52543,3.7966 -0.27118,6.2373 5.15254,17.8983 L 178,454 l 15.18644,-5.4237 4.0678,4.6101 7.05085,18.1695 -1.62712,13.2882 -6.50848,71.322 -4.06779,18.4407 -23.05085,46.1017 -5.69492,18.4407 -3.52542,33.0847 -3.52542,12.4746 -12.20339,19.5254 -4.0678,13.2881 0.81356,12.4746 10.30508,25.4915 2.71187,25.4916 4.61017,13.0169 24.13559,50.7119 10.0339,11.661 8.13559,6.5085 42.0339,0.2712 10.84746,0.8135 11.38983,3.5254 18.16949,10.5763 24.13559,14.3729 6.50848,8.9491 2.44068,8.678 2.16949,22.7797 -1.08475,9.2203 8.94915,23.0509 7.59322,9.4915 38.50848,34.1695 6.23729,9.4915 3.52542,10.3051 1.62712,4.339 23.59322,-15.1865 11.38983,-1.0847 12.47458,2.1695 11.11864,4.6101 10.0339,10.3051 45.01695,58.5763 12.47458,11.661 11.38983,6.7797 84.06779,19.2542 7.32204,4.6102 13.28813,14.1017 5.69492,2.7118 13.28813,2.1695"
     style="opacity:1;fill:none;fill-opacity:0.5254902;fill-rule:nonzero;stroke:#e2000b;stroke-width:5;stroke-linecap:butt;stroke-linejoin:round;stroke-miterlimit:4;stroke-dasharray:none;stroke-opacity:1" />
  <path
     id="path840"
     d="m 383.83051,1032.7119 2.98305,14.1017 -0.54237,8.1356 -4.33899,9.2203 -8.67796,7.8644 -54.77966,39.5932 -10.30509,2.4407 -12.74576,7.5932 -10.30508,1.8983 -11.66102,-4.0678 -8.1356,-3.7966 -9.76271,-10.8474 -4.88135,-7.8645 -6.77966,-66.1694 -0.27119,-12.2034 -4.61017,-43.661 2.71186,-11.1187 13.01695,-20.0678 18.1695,-22.5085 0.81355,-8.4067 -3.79661,-18.9831 -4.88135,-26.5763"
     style="opacity:1;fill:none;fill-opacity:0.5254902;fill-rule:nonzero;stroke:#e2000b;stroke-width:5;stroke-linecap:butt;stroke-linejoin:round;stroke-miterlimit:4;stroke-dasharray:none;stroke-opacity:1" />
  <path
     id="path842"
     d="m 200.77966,862.678 -68.61017,0.2712 -12.20339,-2.4407 -11.11864,2.4407 -1.89831,5.1525 14.64407,27.1186 16.54237,26.5763"
     style="opacity:1;fill:none;fill-opacity:0.5254902;fill-rule:nonzero;stroke:#e2000b;stroke-width:5;stroke-linecap:butt;stroke-linejoin:round;stroke-miterlimit:4;stroke-dasharray:none;stroke-opacity:1" />
  <path
     id="path844"
     d="M 106.94915,868.1017 94.20339,839.3559 81.72881,794.339 70.33898,690.4746 62.47458,667.9661 60.84746,650.6102 66,627.2881 66.27119,614 l 5.69491,-9.4915 18.44068,-13.5593 7.86441,-19.2543 19.25423,-51.7966 25.22034,-48.2712 29.28814,-14.9152 2.98305,-4.339"
     style="opacity:1;fill:none;fill-opacity:0.5254902;fill-rule:nonzero;stroke:#e2000b;stroke-width:5;stroke-linecap:butt;stroke-linejoin:round;stroke-miterlimit:4;stroke-dasharray:none;stroke-opacity:1" />
  <path
     id="path846"
     d="m 170.13559,428.2373 -3.52542,-5.1526 -11.38983,-4.0678 -18.16949,-10.0339 -18.98305,-4.8813"
     style="opacity:1;fill:none;fill-opacity:0.5254902;fill-rule:nonzero;stroke:#e2000b;stroke-width:5;stroke-linecap:butt;stroke-linejoin:round;stroke-miterlimit:4;stroke-dasharray:none;stroke-opacity:1" />
</svg>
