<?xml version="1.0" encoding="UTF-8" standalone="no"?>
<svg
   xmlns:dc="http://purl.org/dc/elements/1.1/"
   xmlns:cc="http://creativecommons.org/ns#"
   xmlns:rdf="http://www.w3.org/1999/02/22-rdf-syntax-ns#"
   xmlns:svg="http://www.w3.org/2000/svg"
   xmlns="http://www.w3.org/2000/svg"
   xmlns:xlink="http://www.w3.org/1999/xlink"
   version="1.1"
   id="svg2"
   width="2450"
   height="1500"
   viewBox="0 0 2450 1500">
  <metadata
     id="metadata8">
    <rdf:RDF>
      <cc:Work
         rdf:about="">
        <dc:format>image/svg+xml</dc:format>
        <dc:type
           rdf:resource="http://purl.org/dc/dcmitype/StillImage" />
        <dc:title></dc:title>
      </cc:Work>
    </rdf:RDF>
  </metadata>
  <defs
     id="defs6" />
  <image
     xlink:href="../timelines/streetmap/krkosm.png"
     y="-233.09094"
     x="-110"
     id="image10"
     preserveAspectRatio="none"
     height="1733.0909"
     width="2599.636"
     style="display:none" />
  <path
     id="path847"
     d="m 694.02583,485.76273 3.52543,9.7627 v 7.8644 l -1.76272,12.0678 1.89831,32.8136 1.35593,15.4576 2.0339,3.3898 4.88136,3.5255 7.8644,1.0847 27.52543,-1.2203 19.66101,2.7118 60.74577,18.0339 4.33898,2.8475 2.16949,5.5593 5.04547,12.38458"
     style="opacity:1;fill:none;fill-opacity:1;fill-rule:nonzero;stroke:#c52720;stroke-width:1;stroke-linecap:butt;stroke-linejoin:round;stroke-miterlimit:4;stroke-dasharray:none;stroke-opacity:1" />
  <path
     style="opacity:1;fill:none;fill-opacity:1;fill-rule:nonzero;stroke:#c52720;stroke-width:1;stroke-linecap:butt;stroke-linejoin:round;stroke-miterlimit:4;stroke-dasharray:none;stroke-opacity:1"
     d="m 833.30859,612.04561 10.8278,-4.10278 45.63835,-10.9301 h 7.09506 l 42.3784,0.5752"
     id="path838" />
  <path
     style="opacity:1;fill:none;fill-opacity:1;fill-rule:nonzero;stroke:#c52720;stroke-width:5;stroke-linecap:butt;stroke-linejoin:round;stroke-miterlimit:4;stroke-dasharray:none;stroke-opacity:1"
     d="m 694.02583,485.76273 -5.40499,-13.3926 -7.67031,-6.9033 -20.32633,-8.4373 -14.9571,-5.94451 -2.49285,0.95881 -1.15055,1.9176 5.39918,9.21629 1.88761,-1.16249 7.2868,-4.0269 5.56097,-0.5753"
     id="path840" />
  <path
     style="opacity:1;fill:none;fill-opacity:1;fill-rule:nonzero;stroke:#c52720;stroke-width:5;stroke-linecap:butt;stroke-linejoin:round;stroke-miterlimit:4;stroke-dasharray:none;stroke-opacity:1"
     d="m 645.6671,451.08502 -6.32801,-4.41043 -13.80656,-19.36754 -0.19176,-6.51976 1.15055,-6.32801 13.03953,-18.6005 -0.57528,-7.47855 -4.79394,-3.6434 -13.42304,-7.67031 -17.44996,-12.65601 -3.25988,-3.25989 -15.72414,-36.43397 -12.84777,-58.29437 -4.02691,-7.47855 -9.20438,-3.06812"
     id="path842" />
  <path
     style="opacity:1;fill:none;fill-opacity:1;fill-rule:nonzero;stroke:#c52720;stroke-width:5;stroke-linecap:butt;stroke-linejoin:round;stroke-miterlimit:4;stroke-dasharray:none;stroke-opacity:1"
     d="m 1066.1919,994.1431 -53.3087,0.767 -10.1631,-2.8763 -7.0951,-5.3693 -5.9445,-8.4373 -15.5323,-51.7746 -6.7116,-11.5055 -46.9806,-46.59714 -13.6148,-8.8209 -29.72247,-9.9714 -9.39613,-6.9032 -7.09504,-11.3138 -20.32633,-49.6652 -4.21867,-16.49123 -2.30109,-13.8065 0.85453,-25.615 1.49153,-7.4576 8.94915,-43.9322 0.54237,-12.339 -8.27118,-38.7797 -4.03928,-11.20862 -7.96446,1.45822 -12.2725,-1.3423 -22.43566,3.4517 -92.81353,11.91556 -52.88135,-26.51186 -37.69492,1.8984 -29.83898,41.83042 -27.65254,-39.11862 -45.83051,-60.2034 -17.89831,-10.5762 -40.42999,-19.0312 -45.53611,-19.7485 -53.68128,-18.4872 -19.28151,-6.0455 -16.79992,-18.0436 -130.71187,-74.03387 -66.16949,-20.61018 -37.26914,0.002 -5.75274,5.17746"
     id="path844" />
  <path
     style="opacity:1;fill:none;fill-opacity:1;fill-rule:nonzero;stroke:#c52720;stroke-width:1;stroke-linecap:butt;stroke-linejoin:round;stroke-miterlimit:4;stroke-dasharray:none;stroke-opacity:1"
     d="m 1070.5682,993.6781 -0.9247,18.2985 0.1918,31.8318 -1.7258,7.4785 -4.0269,5.9445 -33.7494,28.9554 -31.4483,31.6401 -26.079,19.3675 -4.6316,2.9419"
     id="path871" />
  <path
     style="opacity:1;fill:none;fill-opacity:1;fill-rule:nonzero;stroke:#c52720;stroke-width:5;stroke-linecap:butt;stroke-linejoin:round;stroke-miterlimit:4;stroke-dasharray:none;stroke-opacity:1"
     d="m 1010.3904,1205.2684 23.3944,36.8175 6.9033,6.1362 -0.767,3.8352 -17.2582,15.9159 -4.0269,7.8621 -1.7259,4.9857 0.7671,12.2725 -2.4929,3.2598 0.9588,29.9143 0.767,17.8334 -2.1093,9.2044 -2.3011,5.3692 -5.3692,5.561 -9.9714,4.9857 -57.3356,18.217 -17.4499,7.4785 -20.3264,9.0127 -8.2455,7.095 -50.04883,16.2994 -17.44995,2.8764 -19.5593,-1.1506 -61.36248,-19.751"
     id="path873" />
  <path
     id="path876"
     d="m 514.69654,1418.503 -3.06813,-12.0807 0.38352,-3.2599 2.68461,-6.328 3.06812,-2.6846 5.36922,0.1918 8.24558,2.3011 3.06813,-1.7259 1.53406,-2.4928 46.40538,-137.6821 27.80488,-86.291 32.40706,-92.0437 9.97141,-12.8478 2.49285,-19.751 24.92851,-67.6905 30.48948,-25.5038 26.27082,-19.3676 6.71152,-2.8763 54.74219,-3.5336 -7.76154,-41.52954 -3.64339,-7.8621 -27.03785,-35.8587 -61.17073,-91.46843"
     style="opacity:1;fill:none;fill-opacity:1;fill-rule:nonzero;stroke:#c52720;stroke-width:5;stroke-linecap:butt;stroke-linejoin:round;stroke-miterlimit:4;stroke-dasharray:none;stroke-opacity:1" />
  <path
     id="path875"
     d="m 702.4274,746.00843 8.43734,-16.4911 3.06812,-4.4105 7.47856,-3.8351 9.77964,-2.1093 14.38184,-2.4929 h 11.69722 l 29.33894,4.9857 27.03784,13.8066 h 15.34063 l 14.54962,-4.06289 10.42097,-5.95736 20.07464,-14.08221 56.32885,-20.97351 10.33694,-0.89886 14.23205,4.94375 31.3104,10.33695 13.9324,0.74905 12.1347,-4.49432 68.0141,-50.0368 9.5879,-6.14224 11.3856,-4.1947 175.4284,-48.53868 95.7291,-43.44512 15.5803,-10.18714 8.689,-9.58788 5.543,-13.18335 9.2821,-29.72159 3.2599,-7.6703 7.8621,-7.6703 74.7855,-61.36251 3.8352,-8.24558 14.19,-11.12195 6.9033,-2.30109 90.5097,-75.74432 11.1219,-7.86207 30.2978,-13.42305 69.4163,-9.20437 67.6905,-11.69722 5.1774,-5.56098 24.3533,-40.8444 7.6703,-8.24559 54.8427,-52.73339"
     style="opacity:1;fill:none;fill-opacity:1;fill-rule:nonzero;stroke:#c52720;stroke-width:5;stroke-linecap:butt;stroke-linejoin:round;stroke-miterlimit:4;stroke-dasharray:none;stroke-opacity:1" />
  <path
     style="opacity:1;fill:none;fill-opacity:1;fill-rule:nonzero;stroke:#c52720;stroke-width:5;stroke-linecap:butt;stroke-linejoin:round;stroke-miterlimit:4;stroke-dasharray:none;stroke-opacity:1"
     d="m 611.34246,1164.9993 -3.6434,1.534 -27.42136,-13.8065 -10.16317,-2.6846 -50.24053,-0.1918 -14.38183,-1.3423 -11.88899,-2.3011 -50.81581,-18.984 -6.51976,-1.1506 -7.86207,1.1506 -10.16316,6.1362 -130.39529,82.0724 -9.01261,9.5879 -5.17746,11.3137 -13.03953,27.2296 -50.04878,64.4306 -4.41042,4.6022 -6.13625,2.6846 -38.73507,7.6703 -6.13625,-0.3835 -8.24559,-6.5198"
     id="path877" />
  <path
     id="path851"
     d="m 939.2482,597.58793 37.2011,-0.767 12.8477,-3.0681 43.3373,-23.3945 49.2817,-58.6779 12.8478,-13.423 10.1632,-4.9857 13.0395,-1.5341 143.243,-11.6972 48.323,-3.0681 95.6871,13.8065"
     style="opacity:1;fill:none;fill-opacity:1;fill-rule:nonzero;stroke:#c52720;stroke-width:5;stroke-linecap:butt;stroke-linejoin:round;stroke-miterlimit:4;stroke-dasharray:none;stroke-opacity:1" />
  <path
     style="opacity:1;fill:none;fill-opacity:1;fill-rule:nonzero;stroke:#c52720;stroke-width:5;stroke-linecap:butt;stroke-linejoin:round;stroke-miterlimit:4;stroke-dasharray:none;stroke-opacity:1"
     d="m 1066.1919,994.1431 8.7153,0.3655 85.4237,2.4407 77.1526,10.8474 8.2711,-7.322"
     id="path885" />
  <path
     style="opacity:1;fill:none;fill-opacity:1;fill-rule:nonzero;stroke:#c52720;stroke-width:5;stroke-linecap:butt;stroke-linejoin:round;stroke-miterlimit:4;stroke-dasharray:none;stroke-opacity:1"
     d="m 948.9411,1110.7118 15.322,24.2711 46.1273,70.2855"
     id="path887" />
  <path
     style="opacity:1;fill:none;fill-opacity:1;fill-rule:nonzero;stroke:#c52720;stroke-width:5;stroke-linecap:butt;stroke-linejoin:round;stroke-miterlimit:4;stroke-dasharray:none;stroke-opacity:1"
     d="m 1040.6881,1248.2221 125.2178,116.397 14.7654,9.3961 44.4878,22.6275 7.8621,1.9175 4.4104,-0.9588 39.6938,-33.5576 10.7385,-3.4516 11.1219,0.767 40.0774,9.5879 11.1219,0.7671 15.9159,-2.3011 23.3945,-6.5198 h 9.0126 l 59.0614,18.0252 h 3.8352 l 9.0126,-5.1774"
     id="path889" />
  <path
     style="opacity:1;fill:none;fill-opacity:1;fill-rule:nonzero;stroke:#c52720;stroke-width:5;stroke-linecap:butt;stroke-linejoin:round;stroke-miterlimit:4;stroke-dasharray:none;stroke-opacity:1"
     d="M 1233.0212,1398.5602 Z"
     id="path891" />
  <path
     style="opacity:1;fill:none;fill-opacity:1;fill-rule:nonzero;stroke:#c52720;stroke-width:5;stroke-linecap:butt;stroke-linejoin:round;stroke-miterlimit:4;stroke-dasharray:none;stroke-opacity:1"
     d="m 948.9411,1110.7118 -65.30261,-98.927 -8.05383,-7.8621 -33.36585,-49.4735 -44.01306,-29.6126"
     id="path895" />
  <path
     style="opacity:1;fill:none;fill-opacity:1;fill-rule:nonzero;stroke:#c52720;stroke-width:5;stroke-linecap:butt;stroke-linejoin:round;stroke-miterlimit:4;stroke-dasharray:none;stroke-opacity:1"
     d="m 1405.2196,490.77883 192.9019,27.81923 12.2025,2.98807 5.4457,-15.4666 246.6005,-101.43989 14.7173,-0.6866 10.8266,-0.3139 -6.5599,-129.58654 -2.6846,-2.3011 -46.0219,-1.53406 -13.6148,-3.83516 -20.5181,3.06813 -1.9176,-5.36922"
     id="path901" />
  <path
     id="path907"
     d="m 2042.3648,628.40683 -37.9661,1.0847 -7.322,-0.6779 -37.6949,-13.2882 -9.4916,-5.4237 -18.5762,-18.4407 -13.5174,-15.81357 -21.3983,-30.72034 -35.3813,-59.11017 -1.2712,-9.5339 1.2712,-10.38136 5.7203,-9.74576 17.5847,-23.72881 4.6611,-11.01695 -1.069,-17.93103"
     style="opacity:1;fill:none;fill-opacity:1;fill-rule:nonzero;stroke:#c52720;stroke-width:5;stroke-linecap:butt;stroke-linejoin:round;stroke-miterlimit:4;stroke-dasharray:none;stroke-opacity:1" />
  <path
     style="opacity:1;fill:none;fill-opacity:1;fill-rule:nonzero;stroke:#c52720;stroke-width:5;stroke-linecap:butt;stroke-linejoin:round;stroke-miterlimit:4;stroke-dasharray:none;stroke-opacity:1"
     d="m 2042.3648,628.40683 27.661,-1.8983 9.6272,-2.0339 41.4915,-32.2712 16.6779,-26.0339 7.1865,-13.2881 5.1525,-4.2034 63.4577,-5.9661 66.7118,-33.2204 11.5254,-3.3898 90.7119,-1.2203 14.1017,-1.8984"
     id="path909" />
  <path
     id="path872"
     d="m 667.21508,704.63978 31.37716,43.47805"
     style="opacity:1;fill:none;fill-opacity:1;fill-rule:nonzero;stroke:#c52720;stroke-width:5;stroke-linecap:butt;stroke-linejoin:round;stroke-miterlimit:4;stroke-dasharray:none;stroke-opacity:1" />
  <path
     id="path927"
     d="m 702.4274,746.00843 -36.05046,70.37513 -7.86207,13.4231 -8.24559,7.8621 -10.93019,2.8763 -24.92851,5.1775 -62.89655,31.2565 -70.56686,35.85874 -11.31371,5.1775 -1.91758,3.6434 0.38352,4.9857 3.25988,7.4785 4.02692,12.0808 29.72245,78.4289 0.57527,4.2187 4.79395,121.2188"
     style="opacity:1;fill:none;fill-opacity:1;fill-rule:nonzero;stroke:#c52720;stroke-width:5;stroke-linecap:butt;stroke-linejoin:round;stroke-miterlimit:4;stroke-dasharray:none;stroke-opacity:1" />
  <path
     style="opacity:1;fill:none;fill-opacity:1;fill-rule:nonzero;stroke:#c52720;stroke-width:5;stroke-linecap:butt;stroke-linejoin:round;stroke-miterlimit:4;stroke-dasharray:none;stroke-opacity:1"
     d="m 1361.8824,167.47527 -0.1918,-5.36921 6.1363,-71.90917 -3.0682,-16.87468 -5.5609,-24.16148"
     id="path929" />
  <path
     style="opacity:1;fill:none;fill-opacity:1;fill-rule:nonzero;stroke:#c52720;stroke-width:5;stroke-linecap:butt;stroke-linejoin:round;stroke-miterlimit:4;stroke-dasharray:none;stroke-opacity:1"
     d="m 605.093,1164.928 v -2.9209 l 2.75863,-2.5963 5.8418,-1.2982"
     id="path2412" />
  <path
     id="path853"
     d="m 1598.1215,518.59806 2.5141,-14.14891 15.1341,1.67038"
     style="opacity:1;fill:none;fill-opacity:1;fill-rule:nonzero;stroke:#c52720;stroke-width:5;stroke-linecap:butt;stroke-linejoin:round;stroke-miterlimit:4;stroke-dasharray:none;stroke-opacity:1" />
  <path
     id="path855"
     d="m 1600.6356,504.44915 -60.6992,-69.27966 -33.6604,-41.03653 -55.2263,-65.77292 -9.3961,-6.71152 -11.5055,-5.56097 -1.7258,-5.56098 22.2439,-78.04541 -2.8763,-3.45164 -5.1775,-3.45164 -28.5719,-7.09504 -7.095,-4.02691 -37.9681,-41.03616 -5.1774,-4.41043 -1.9176,-1.53407 -6.328,0.76704 -48.5147,11.88898 -12.0808,3.06812 -7.095,-0.95879 -15.7242,-5.36921 -23.3944,-4.98571 -17.0665,-6.51976 -23.0109,-9.01262 -3.2599,0.19176 -5.5609,2.49285"
     style="opacity:1;fill:none;fill-opacity:1;fill-rule:nonzero;stroke:#c52720;stroke-width:5;stroke-linecap:butt;stroke-linejoin:round;stroke-miterlimit:4;stroke-dasharray:none;stroke-opacity:1" />
  <path
     id="path857"
     d="m 647.42288,463.17772 c -0.95266,1.59314 -22.3756,25.56286 -22.3756,25.56286 l -10.78637,0.44943 -6.74149,2.39698 -2.09735,2.09735 0.74906,17.97729 5.39318,21.72256 18.1271,27.41537 8.2396,40.59871"
     style="opacity:1;fill:none;fill-opacity:1;fill-rule:nonzero;stroke:#c52720;stroke-width:5;stroke-linecap:butt;stroke-linejoin:round;stroke-miterlimit:4;stroke-dasharray:none;stroke-opacity:1" />
  <path
     id="path859"
     d="m 694.02583,485.76273 3.52543,9.7627 v 7.8644 l -2.39254,13.51517 3.88406,46.82383 -0.43842,21.93931 -0.93173,36.01802 -2.44813,8.88417 0.68313,24.3532 -2.68461,8.8209 -6.328,17.6417 -4.60219,6.5197 -24.54499,27.0379 -3.6434,7.095 -8.43734,57.71913 -6.32801,6.7115 v 4.4105 l 8.6291,12.4642 4.9857,10.5467 14.19008,15.7241 3.45164,13.6148 15.91589,61.74604 17.06644,29.1472 10.35492,9.5879 v 3.8352"
     style="opacity:1;fill:none;fill-opacity:1;fill-rule:nonzero;stroke:#c52720;stroke-width:5;stroke-linecap:butt;stroke-linejoin:round;stroke-miterlimit:4;stroke-dasharray:none;stroke-opacity:1" />
  <path
     id="path861"
     d="m 761.22882,618.64407 5.72033,-40.46611 48.09323,-100"
     style="opacity:1;fill:none;fill-opacity:1;fill-rule:nonzero;stroke:#c52720;stroke-width:5;stroke-linecap:butt;stroke-linejoin:round;stroke-miterlimit:4;stroke-dasharray:none;stroke-opacity:1" />
  <path
     id="path863"
     d="m 577.40719,644.74575 -8.76312,11.61018 -2.33051,11.01695 0.21187,4.23729 4.23728,18.22034 -78.17796,18.64406 -199.36441,-47.24576 -5.50847,-7.20339 -6.14407,-2.54237"
     style="opacity:1;fill:none;fill-opacity:1;fill-rule:nonzero;stroke:#c52720;stroke-width:5;stroke-linecap:butt;stroke-linejoin:round;stroke-miterlimit:4;stroke-dasharray:none;stroke-opacity:1" />
  <path
     id="path865"
     d="m 570.76271,689.83051 9.74577,26.27118 -26.48305,19.27966 -23.30509,30.50848 -19.49152,13.55932 -74.15255,32.62712 -6.35593,0.42373 -20.12712,-4.87288 -13.13559,1.90678 -11.01695,-1.05933"
     style="opacity:1;fill:none;fill-opacity:1;fill-rule:nonzero;stroke:#c52720;stroke-width:5;stroke-linecap:butt;stroke-linejoin:round;stroke-miterlimit:4;stroke-dasharray:none;stroke-opacity:1" />
  <path
     id="path867"
     d="m 580.50848,716.10169 14.40678,-8.8983 15.04237,-1.27119 9.11017,5.08475 21.18644,1.05932 19.40038,1.59627"
     style="opacity:1;fill:none;fill-opacity:1;fill-rule:nonzero;stroke:#c52720;stroke-width:5;stroke-linecap:butt;stroke-linejoin:round;stroke-miterlimit:4;stroke-dasharray:none;stroke-opacity:1" />
</svg>
