<?xml version="1.0" encoding="UTF-8" standalone="no"?>
<svg
   xmlns:dc="http://purl.org/dc/elements/1.1/"
   xmlns:cc="http://creativecommons.org/ns#"
   xmlns:rdf="http://www.w3.org/1999/02/22-rdf-syntax-ns#"
   xmlns:svg="http://www.w3.org/2000/svg"
   xmlns="http://www.w3.org/2000/svg"
   xmlns:xlink="http://www.w3.org/1999/xlink"
   viewBox="0 0 1450 1925"
   height="1925"
   width="1450"
   id="svg2"
   version="1.1">
  <metadata
     id="metadata8">
    <rdf:RDF>
      <cc:Work
         rdf:about="">
        <dc:format>image/svg+xml</dc:format>
        <dc:type
           rdf:resource="http://purl.org/dc/dcmitype/StillImage" />
        <dc:title></dc:title>
      </cc:Work>
    </rdf:RDF>
  </metadata>
  <defs
     id="defs6" />
  <image
     style="display:none"
     y="-35.5"
     x="-110"
     id="image10"
     xlink:href="file:///home/lexande/timelines/timelines/streetmap/../streetmap/lnzosm.png"
     preserveAspectRatio="none"
     height="2020.5"
     width="1796" />
  <path
     id="path836"
     d="m 663.37969,664.125 7.56732,11.35097 1.89183,8.70243 -0.75673,9.0808 -16.6481,31.4044 -3.4053,9.8374 2.64857,7.189 6.81059,10.9726 5.29712,3.4052 4.16202,-0.7567 13.24281,-12.486 11.35097,-5.6755 12.48606,2.6486 7.56732,6.0539 40.48514,68.4841 10.59425,13.9996"
     style="opacity:1;fill:none;fill-opacity:0.39607843;fill-rule:nonzero;stroke:#cf3126;stroke-width:1;stroke-linecap:butt;stroke-linejoin:round;stroke-miterlimit:4;stroke-dasharray:none;stroke-opacity:1" />
  <path
     id="path838"
     d="m 661.48787,752.6626 4.91875,9.0808 -0.37836,4.162 -4.16203,3.4053 -12.10771,7.1889 -33.67455,54.8631 -37.45822,36.7015 -25.72886,24.5938 -9.08079,12.1076"
     style="opacity:1;fill:none;fill-opacity:0.39607843;fill-rule:nonzero;stroke:#cf3126;stroke-width:1;stroke-linecap:butt;stroke-linejoin:round;stroke-miterlimit:4;stroke-dasharray:none;stroke-opacity:1" />
  <path
     id="path840"
     d="m 663.37969,664.125 -2.45938,-5.86467 -6.6214,-53.1604 -5.4863,-16.83727 -13.43199,-27.05316 -23.29159,-34.45615 -43.13094,-92.10444 2.66789,-7.00253 20.24258,-10.0267 18.7291,-12.29689 8.32405,-7.7565 12.86444,-22.70194 26.67479,-39.72841 2.2702,-8.32406 -1.32429,-9.26995 -3.40529,-5.86467 -7.18895,-5.86468 -16.64809,-12.29689 -24.21541,-21.75603 -19.86421,-21.18849 -3.21611,-6.05385 0.37837,-30.26926 1.51346,-10.02668 2.08101,-11.35098 4.3512,-9.26997 17.40483,-20.24257 11.72934,-20.43175 21.18849,-33.86374 5.29712,-8.32404 4.3512,-2.64857 45.78227,-15.70218 24.78295,-4.72957 14.94546,2.08101 13.62116,1.32428 13.62117,-0.37837 23.45869,-2.45937 10.59419,2.08101 7.5673,4.3512 13.9996,10.21589 18.3507,9.08078 25.3505,11.54014 8.1349,0.18919 32.9179,-7.18894 5.4862,0.9459 13.8104,4.16203 2.2702,-0.37837 0.7567,-1.13509 0.1892,-1.89184 -0.9459,-6.05385 4.5404,-13.62116 6.4322,-9.26996 13.432,-12.86444"
     style="opacity:1;fill:none;fill-opacity:0.39607843;fill-rule:nonzero;stroke:#cf3126;stroke-width:5;stroke-linecap:butt;stroke-linejoin:round;stroke-miterlimit:4;stroke-dasharray:none;stroke-opacity:1" />
  <path
     id="path842"
     d="m 766.67356,828.3358 21.75606,23.2694 32.91778,30.8369 10.4051,11.3509 5.2971,8.3241 3.4053,7.9457 6.243,18.9182 4.3513,7.189 13.2427,18.5399 12.1077,18.7292 17.2157,18.3507 1.8918,4.9187 0.946,4.5404 -0.946,4.162 -3.5944,9.8375 -0.1892,4.7297 20.9992,69.2408 40.1069,124.4824 22.8911,70.7544 v 4.7296 l -0.3784,10.9726 1.1351,13.8104 -0.1892,43.7012 -0.1892,11.9185 1.7027,8.5133 3.4053,10.405 9.2699,12.8644 27.2424,24.5938 7.3781,7.1889 4.3512,3.027 12.1078,17.7832 0.9458,3.7837 -2.4594,5.2971 -1.3243,5.1079 -2.8377,13.6212 -7.1889,20.4317 2.2702,4.3513 8.7024,3.4053 5.2971,-0.1893 16.6481,7.3782 11.9185,0.3784 22.3236,-1.1351 11.351,-5.2972 12.2969,-9.8374 6.0538,-8.8917 6.2431,-19.2966 5.1079,-10.405 11.1618,-10.5943 8.324,-9.6484 15.3238,-10.7834 1.5135,-3.027 v -3.0269 l -25.1613,-38.0257 v -1.8918 l 1.3242,-3.9729 11.1618,-5.6755 13.9996,0.5676 8.3241,-1.7027 8.7024,-5.8646 7.378,-1.5134 13.4321,-1.5136 5.1078,-2.6484 7.9458,-8.5134 4.5404,-6.8106 4.162,-18.729 3.2161,-12.8645 8.5132,-7.9457 11.9186,-3.9728 47.674,-13.8104 10.4051,-4.5404 9.6483,-6.9997 24.5938,-22.3235 5.4863,-1.8919 7.9457,-0.5676 6.9998,0.1892 6.0538,1.7026 13.8103,9.8375"
     style="opacity:1;fill:none;fill-opacity:0.39607843;fill-rule:nonzero;stroke:#cf3126;stroke-width:5;stroke-linecap:butt;stroke-linejoin:round;stroke-miterlimit:4;stroke-dasharray:none;stroke-opacity:1" />
  <path
     id="path844"
     d="m 975.9098,1288.2393 -2.8377,3.4053 -30.8368,10.4051 -23.0803,10.9726 -24.2155,10.0267 -10.2158,9.0808 -16.4589,8.324 -3.027,4.3513 -1.135,4.9188 -2.2703,19.8641 -4.3512,5.108 -6.6214,5.4862 -22.1344,10.4051"
     style="opacity:1;fill:none;fill-opacity:0.39607843;fill-rule:nonzero;stroke:#cf3126;stroke-width:5;stroke-linecap:butt;stroke-linejoin:round;stroke-miterlimit:4;stroke-dasharray:none;stroke-opacity:1" />
  <path
     id="path846"
     d="m 118.67114,1858.7994 -4.31455,-10.5706 -3.66736,-16.1796 -3.66737,-7.5505 -14.66947,-23.2985 -6.2561,-16.1796 -8.41337,-38.1838 -3.02019,-9.7077 3.45164,-14.8852 -8.84482,-19.4155 -1.07864,-8.1976 1.51009,-19.6312 4.74601,-21.5728 1.29436,-14.6694 3.02019,-12.5122"
     style="opacity:1;fill:none;fill-opacity:0.39607843;fill-rule:nonzero;stroke:#cf3126;stroke-width:5;stroke-linecap:butt;stroke-linejoin:round;stroke-miterlimit:4;stroke-dasharray:none;stroke-opacity:1" />
  <path
     id="path848"
     d="m 68.62236,1624.5194 3.23592,4.5302 4.31455,0.8629 2.58873,-3.6673 7.55046,-24.3772 1.29436,-17.2582 -5.60891,-14.8852 -4.74601,-17.2582 -1.07863,-12.7279 3.66736,-24.8087 5.82465,-13.1594 12.51219,-17.4739 61.91379,-100.529 13.37511,-14.6695 15.7481,-22.6514 7.98192,-9.2763 7.55046,-19.8469 8.6291,-15.9638 17.2582,-18.5526 7.55046,-6.9033 8.19765,-3.6673 20.06266,-20.4941 7.33473,-7.3348 112.60975,-146.0475 17.2582,-19.4155 67.30698,-88.4482 8.41337,-7.3348 1.72582,-4.5303 0.43146,-7.7661 -0.43146,-6.9033 2.373,-6.9033 6.2561,-4.746 11.43356,-6.6876 23.94575,-21.5727 18.71436,-19.2866"
     style="opacity:1;fill:none;fill-opacity:0.39607843;fill-rule:nonzero;stroke:#cf3126;stroke-width:5;stroke-linecap:butt;stroke-linejoin:round;stroke-miterlimit:4;stroke-dasharray:none;stroke-opacity:1" />
  <path
     style="opacity:1;fill:none;fill-opacity:0.39607843;fill-rule:nonzero;stroke:#cf3126;stroke-width:5;stroke-linecap:butt;stroke-linejoin:round;stroke-miterlimit:4;stroke-dasharray:none;stroke-opacity:1"
     d="m 568.95809,434.64891 -8.18799,-20.54424 -44.79023,23.04305"
     id="path825" />
  <path
     id="path823"
     d="m 327.47021,223.95987 8.00781,13.97974 v 4.34322 l -2.03588,4.88613 -11.12951,6.3791 -4.88612,5.8362 -5.8362,16.42281 -8.27927,14.52264 -0.67862,9.36507 2.57878,8.14354 10.72233,12.89393 0.81435,4.07177 -2.44306,5.42903 -6.24338,10.04369 0.27145,3.93605 2.98597,3.12169 9.63652,2.03588 5.8362,8.55072 1.90016,9.63652 9.22934,10.45087 2.44306,6.65056 7.87209,9.77224 19.68022,13.30111 2.98596,9.90798 10.85805,6.24337 9.77225,14.11547 3.39314,1.22153 21.44465,1.49298 4.20749,1.62871 5.56476,8.00781 5.70047,1.35726 7.19346,-3.12169 14.52264,0.5429 20.35885,-6.3791 13.16539,3.66459 6.51483,-0.27145 20.73028,-13.38523 46.25446,-24.0273 4.15082,2.03259 9.11738,22.84145 34.934,74.66663"
     style="opacity:1;fill:none;fill-opacity:0.39607843;fill-rule:nonzero;stroke:#56a929;stroke-width:5;stroke-linecap:butt;stroke-linejoin:round;stroke-miterlimit:4;stroke-dasharray:none;stroke-opacity:1" />
</svg>
