<?xml version="1.0" encoding="UTF-8" standalone="no"?>
<svg
   version="1.2"
   width="2250"
   height="2175"
   viewBox="0 0 2250 2175"
   id="svg2"
   xmlns:xlink="http://www.w3.org/1999/xlink"
   xmlns="http://www.w3.org/2000/svg"
   xmlns:svg="http://www.w3.org/2000/svg"
   xmlns:rdf="http://www.w3.org/1999/02/22-rdf-syntax-ns#"
   xmlns:cc="http://creativecommons.org/ns#"
   xmlns:dc="http://purl.org/dc/elements/1.1/">
  <metadata
     id="metadata70">
    <rdf:RDF>
      <cc:Work
         rdf:about="">
        <dc:format>image/svg+xml</dc:format>
        <dc:type
           rdf:resource="http://purl.org/dc/dcmitype/StillImage" />
      </cc:Work>
    </rdf:RDF>
  </metadata>
  <defs
     id="defs6" />
  <image
     xlink:href="../timelines/streetmap/nycosm.png"
     id="image12"
     height="5376"
     width="5888"
     y="-1876"
     x="-602"
     style="display:none;stroke:#f2f2f2;stroke-linejoin:round" />
  <path
     d="m 2497.5763,470.9826 22.1797,-4.9866"
     id="path3622-5"
     style="fill:none;stroke:#f2f2f2;stroke-width:8;stroke-linecap:butt;stroke-linejoin:round;stroke-miterlimit:4;stroke-dasharray:none;stroke-opacity:1" />
  <path
     d="m 2501,463 27,-46 14,-27 21,-14 27,5 209,113 55,36 74.75,49.25 68.25,47.25 19.5,-1.25"
     id="path3626"
     style="fill:none;stroke:#f2f2f2;stroke-width:8;stroke-linecap:butt;stroke-linejoin:round;stroke-miterlimit:4;stroke-dasharray:none;stroke-opacity:1" />
  <path
     d="m 2429.5,437.4995 25,-6.5 53.5,31 196,110 107,82 123.537,31.2651 50.6325,-22.9939 13.0597,-12.2882 32.364,-27.2203 15.3175,-7.4481 82.0893,-6.3146 82,-22.5 32,-0.25 56.1399,11.5912 18.3601,-0.8412 17.5,-3 16.75,5.5 264.25,149.5 42.5,32.5 25.25,28.75 4.75,24.5 4.75,23 26.5,22.5 121.25,59.25 145.5,73.25 32.25,37.5 96.5,56 57.25,34.25 54,51 74.5,39.5"
     id="path3620-7"
     style="fill:none;stroke:#f2f2f2;stroke-width:8;stroke-linecap:butt;stroke-linejoin:round;stroke-miterlimit:4;stroke-dasharray:none;stroke-opacity:1" />
  <path
     d="m 2924.5,617 v 30.5 l 4.5,8.5 15,10 10.5339,-0.9746 20.1356,-0.7118"
     id="path3055-5"
     style="fill:none;stroke:#f2f2f2;stroke-width:8;stroke-linecap:butt;stroke-linejoin:round;stroke-miterlimit:4;stroke-dasharray:none;stroke-opacity:1" />
  <path
     d="m 4300,1231 42,29 34,75 31,84 19,13 166,-61"
     id="path3620"
     style="fill:none;stroke:#f2f2f2;stroke-width:8;stroke-linecap:butt;stroke-linejoin:round;stroke-miterlimit:4;stroke-dasharray:none;stroke-opacity:1" />
  <path
     d="m 4345.9997,1255 38,89 22,5 247,-94 62,-30 18,2 38,-9"
     id="path3622"
     style="fill:none;stroke:#f2f2f2;stroke-width:8;stroke-linecap:butt;stroke-linejoin:round;stroke-miterlimit:4;stroke-dasharray:none;stroke-opacity:1" />
  <path
     d="M 3352.7086,601.3627 3331.5,584.4995 3209.805,506.711 3204,506.272 l -3.928,2.792 -53.072,81.9355 -15.0882,17.4356"
     id="path7674"
     style="fill:none;stroke:#f2f2f2;stroke-width:8;stroke-linecap:butt;stroke-linejoin:round;stroke-miterlimit:4;stroke-dasharray:none;stroke-opacity:1" />
  <path
     d="m 2016,2355 c 1,4 6,17 6,17 l 53,18 59,22 151,122 26,47 132,105 15,21 7,18 35,248 16,101 -6,51 -20,82 -6,16 -5,25 5,47"
     id="path3608"
     style="fill:none;stroke:#f2f2f2;stroke-width:8;stroke-linecap:butt;stroke-linejoin:round;stroke-miterlimit:4;stroke-dasharray:none;stroke-opacity:1" />
  <path
     d="M 2197.6441,2119.7458 2202,2138 l 130,104 12,19 -16,17 -4,86 -11,98 -53,242 -23,101 5,37 13,17 168,128 11,21 17,122 5,20 15,17 11,18 -3,37 -5,25 4,45"
     id="path3636"
     style="fill:none;stroke:#f2f2f2;stroke-width:8;stroke-linecap:butt;stroke-linejoin:round;stroke-miterlimit:4;stroke-dasharray:none;stroke-opacity:1" />
  <path
     d="M 2500.8968,1586.381 2511,1639 l -8,18.5 -55.5,112 -57.5,92.5 -52,79 -144,184 -137,179 -61,78 -96,308"
     id="path3604"
     style="fill:none;stroke:#f2f2f2;stroke-width:8;stroke-linecap:butt;stroke-linejoin:round;stroke-miterlimit:4;stroke-dasharray:none;stroke-opacity:1" />
  <path
     d="m 2223,795 288,160 75,44 123,103 101,82 14,10 h 28 l 77.3097,-10.3708 4.1869,1.6359 2.4361,3.0499 L 2950,1227 l 11,67 4.7134,29.0658 3.8034,4.159 5.113,2.267 L 3053,1314 l 73,-16 17,-1 71,59 187,140 10,20 v 13 l -46,70 -6,28 -2,32 11,28 13,23 5,22"
     id="path3614"
     style="fill:none;stroke:#f2f2f2;stroke-width:8;stroke-linecap:butt;stroke-linejoin:round;stroke-miterlimit:4;stroke-dasharray:none;stroke-opacity:1" />
  <path
     d="m 2266,886.5 -98,20.5 -6.5,27 -136.5,-4.5 -116,-3 -23.5,-1.5 -15,-4 -7.5,-7.5 1,-21 5.5,-22 8.5,-6 14,-1 42.5,2"
     id="path2955"
     style="fill:none;stroke:#f2f2f2;stroke-width:8;stroke-linecap:butt;stroke-linejoin:round;stroke-miterlimit:4;stroke-dasharray:none;stroke-opacity:1" />
  <path
     d="m 2490.7388,451.3622 5.9428,20.499 L 2295,839 l -28,56 -31,70 1,17 49,32 77,33 49,21 5,9 -25,61 -18,53 8,63 2,19 31,65 -3,161 -4,46 -39,75 -43,89 -28,55 -9,23 9,16 91,67 33,16 103,64 2,12 -46.5,74 0.25,9.5 52.25,41 11.5,79.25 1.75,13.25 -5.2668,10.6337 L 2492,2215"
     id="path3592"
     style="fill:none;stroke:#f2f2f2;stroke-width:8;stroke-linecap:butt;stroke-linejoin:round;stroke-miterlimit:4;stroke-dasharray:none;stroke-opacity:1" />
  <path
     d="m 1862.4998,911.5 -7,51.5 2.5,18.5 -1.5,15 -9,17.5 -10,39.5 -6.5,52.5 -3,23.5 5.4635,11.0134 21.5365,6.4866 45.8732,12.6119 191.2387,74.1493 4.0823,4.5074 2.5075,5.6418 6.8955,3.4478 5.0149,-4.3881 4.3881,-25.7015 -2.5075,-5.6417 -4.388,-2.1941 -4.3881,1.5672 -3.4477,1.5672 -153.5821,-43.5672 -30.0895,-9.0896 -47.6419,-9.4029"
     id="path3772"
     style="fill:none;stroke:#f2f2f2;stroke-width:8;stroke-linecap:butt;stroke-linejoin:round;stroke-miterlimit:4;stroke-dasharray:none;stroke-opacity:1" />
  <path
     d="m 2508.5424,448.9491 -20.6441,39.1526"
     id="path3015"
     style="fill:none;stroke:#f2f2f2;stroke-width:8;stroke-linecap:butt;stroke-linejoin:round;stroke-miterlimit:4;stroke-dasharray:none;stroke-opacity:1" />
  <path
     d="m 2498,385 17,-2 41.9232,27.8761 23.2985,3.2712 154.81,85.0742 198.9481,122.302"
     id="path3610"
     style="fill:none;stroke:#f2f2f2;stroke-width:8;stroke-linecap:butt;stroke-linejoin:round;stroke-miterlimit:4;stroke-dasharray:none;stroke-opacity:1" />
  <path
     d="m 2923,690 -73,40 -61,45 -10,46 13,121 8,29 42,97 -1,11 -26,42 4,28 22,187 -2,54 4,41 17,123 -2,7 -308.5932,47.9153 -47.3729,6.983 -14.2203,-2.4068 -70.3051,-34.9322 -28.305,1.8474"
     id="path3638"
     style="fill:none;stroke:#f2f2f2;stroke-width:8;stroke-linecap:butt;stroke-linejoin:round;stroke-miterlimit:4;stroke-dasharray:none;stroke-opacity:1" />
  <path
     d="m 2960.4997,638.5003 -25,-15.5 -13,14.5 -20,30 -10.5,36.5 12,27.5 -2.5,9.5 -39.5,21 -26,2 -71,-19 -37.5,-21.5 -72,-39 -118.5,-62.5 -24.5,-13 -52,-30 -20.5,-1.5 -42,-23 -115.224,-63.7987 h -5.7624 l -6.6489,3.9893 -31.9148,58.0672"
     id="path3663"
     style="fill:none;stroke:#f2f2f2;stroke-width:8;stroke-linecap:butt;stroke-linejoin:round;stroke-miterlimit:4;stroke-dasharray:none;stroke-opacity:1" />
  <path
     d="m 1881.4998,924 -14.5,3.5 -7.5,9.5"
     id="path3821"
     style="fill:none;stroke:#f2f2f2;stroke-width:8;stroke-linecap:butt;stroke-linejoin:round;stroke-miterlimit:4;stroke-dasharray:none;stroke-opacity:1" />
  <path
     d="m 3188,-1174 -42,20 -45,21 -35,32 -30,46 -12,21 -30,59 -40,144 11,30 4,6 -12,97 1,33 -27,99 -11,42 -21,37 -26,76 -20,54 -33,51 -12,22 v 32 l -15,29 -509,926 -55,101 36,86 -24,49 -19,50 -22,74 -3,30 2,36 -12,23 -45,71 v 0 0"
     id="path3590"
     style="fill:none;stroke:#f2f2f2;stroke-width:8;stroke-linecap:butt;stroke-linejoin:round;stroke-miterlimit:4;stroke-dasharray:none;stroke-opacity:1" />
  <path
     d="m 1815.9998,1134.5 24,8"
     id="path3938"
     style="fill:none;stroke:#f2f2f2;stroke-width:8;stroke-linecap:butt;stroke-linejoin:round;stroke-miterlimit:4;stroke-dasharray:none;stroke-opacity:1" />
  <path
     d="m 2493,2216 -2,12 18,124 2,32 70,479 3,26 -20,180 -7,68 -1,117 -3,26 2,20 -2,9 -28,7 -29,-4 -10,-3 -3,-17"
     id="path3616"
     style="fill:none;stroke:#f2f2f2;stroke-width:8;stroke-linecap:butt;stroke-linejoin:round;stroke-miterlimit:4;stroke-dasharray:none;stroke-opacity:1" />
  <path
     d="m 2145,1216 v 19 l 54,40 33,52 72,74 28,12 45,15 20,2 16.4068,12.0678 -1.7797,56.9661 -4.7796,47.5085 -4.8644,9.3051 L 2407,1570 l 10,9 69,34 16,4 33,-6 32,15 66,35 139,38 32,9 82,7 232,16 237,18 48,-6 30,7 24,19 10,40 4,20 13,11 207,-39 60,-13"
     id="path3618"
     style="fill:none;stroke:#f2f2f2;stroke-width:8;stroke-linecap:butt;stroke-linejoin:round;stroke-miterlimit:4;stroke-dasharray:none;stroke-opacity:1" />
  <path
     d="m 1827.9998,1130.5002 -8.251,5.6018 -61.7672,-25.7572"
     id="path3823"
     style="fill:none;stroke:#f2f2f2;stroke-width:8;stroke-linecap:butt;stroke-linejoin:round;stroke-miterlimit:4;stroke-dasharray:none;stroke-opacity:1;marker-start:none" />
  <path
     d="m 3750,1788 70,-12 14,-16 30,-27 28,-6 174,-12 55,-14 44,-16 43,-31 48,-24 49,-8"
     id="path3628"
     style="fill:none;stroke:#f2f2f2;stroke-width:8;stroke-linecap:butt;stroke-linejoin:round;stroke-miterlimit:4;stroke-dasharray:none;stroke-opacity:1" />
  <path
     d="m 4109,1706 14,5 74,201 52,144 9,29 75,371 66,343 10,40 69,208 13,26 26,18 32,6 101,-15 54,-19 62,3 86,-8 72,-12 70,-56 35,-29 24,-34 69,-50"
     id="path3630"
     style="fill:none;stroke:#f2f2f2;stroke-width:8;stroke-linecap:butt;stroke-linejoin:round;stroke-miterlimit:4;stroke-dasharray:none;stroke-opacity:1" />
  <path
     d="m 4399,2823 23,74 43,131 14,43 -3,22 -19,22 -59,33 -68,33 -103,41 -70,28"
     id="path3632"
     style="fill:none;stroke:#f2f2f2;stroke-width:8;stroke-linecap:butt;stroke-linejoin:round;stroke-miterlimit:4;stroke-dasharray:none;stroke-opacity:1" />
  <path
     d="m 2352.5,1042 6.5,18.5 -41,109.5 30,71 58,142 72,181 17.0482,18.8981 9.5176,12.3871"
     id="path3634"
     style="fill:none;stroke:#f2f2f2;stroke-width:8;stroke-linecap:butt;stroke-linejoin:round;stroke-miterlimit:4;stroke-dasharray:none;stroke-opacity:1" />
  <path
     d="m 1757.9816,1110.3448 -55.9818,-23.3446 -61.5,-26.0002 -14,-11 -17.5,-31.5 -12.5,-22.5 -23.5,-30 -49,-53 -15.5,-19.5 -24.5,-25.5 -31.5,-15 -62.5,-26 -103.5,-34 -29.5,-12.5 -14.5,-3.5 -105.5,-4 -73.5,-3.5 -55.5,-4.5 -87,-14 -55,-4 -78.5,-2 -46,4 -85.5,6.5 -104.5,10.5 -55.5,8.5 -16,5.5 -47.5,37 -24.5,24.5 -20,10 -22.5,17.5 -31,27.5"
     id="path5243"
     style="fill:none;stroke:#f2f2f2;stroke-width:8;stroke-linecap:butt;stroke-linejoin:round;stroke-miterlimit:4;stroke-dasharray:none;stroke-dashoffset:0;stroke-opacity:1;marker-start:none" />
  <path
     d="m 2501,385 -81,156 -9,41 -9,48 -9,74 -32,210 -8,19 -45,70 -68,106"
     id="path2826"
     style="fill:none;stroke:#f2f2f2;stroke-width:8;stroke-linecap:butt;stroke-linejoin:round;stroke-miterlimit:4;stroke-dasharray:none;stroke-opacity:1" />
  <path
     id="path892"
     d="m 364.4998,874 -107.5,-42.5 -97,-38.5 -14,-11.5 -2.5,-17 10,-22 -2,-9.5 -6,-9.5 -29.5,-14.5 -15,-8.5 -5.5,-9 -6,-17.5 0.5,-19.5 12.5,-20.5 13,-11 1,-10 1,-10.5 -6,-23.5 -5.5,-18 -4.5,-19.5 3,-28.5 14,-39 27.5,-33.5 13,-23 29,-55 6.5,-16.5 -2.5,-18 -10,-44 4,-15 9,-25 24.5,-45 6.4999,-12.4999 -0.5,-13.5 -2.5,-12 -2.9274,-1.9517"
     style="fill:none;stroke:#009fda;stroke-width:1;stroke-linecap:butt;stroke-linejoin:round;stroke-miterlimit:4;stroke-dasharray:none;stroke-opacity:1" />
  <path
     id="path3650-3"
     d="m 220.0723,159.0484 -3.0726,-2.0483 -17,7 -14,7 -16.5,3 -18.5,1 -86.4999,-1.5"
     style="fill:none;stroke:#009fda;stroke-width:5;stroke-linecap:butt;stroke-linejoin:round;stroke-miterlimit:4;stroke-dasharray:none;stroke-opacity:1" />
  <path
     d="m 2241,1107 -80,124 -8,2 -10.2388,-5.0597 -4.5093,2.8121 L 2118,1272 l -17,32 2,34.5 3.5,20.5 6.1269,27.7761 18.9403,17.3433 L 2228,1450 l 55,24 90,35 11,16 14,5 64.5168,3.0067"
     id="path3600"
     style="fill:none;stroke:#f2f2f2;stroke-width:8;stroke-linecap:butt;stroke-linejoin:round;stroke-miterlimit:4;stroke-dasharray:none;stroke-opacity:1" />
  <path
     d="m 2241,1106 2,12 31,28 31,16 17.0471,17.5101"
     id="path3602"
     style="fill:none;stroke:#f2f2f2;stroke-width:8;stroke-linecap:butt;stroke-linejoin:round;stroke-miterlimit:4;stroke-dasharray:none;stroke-opacity:1" />
  <path
     d="m 2504.2,1595 13.4004,7.7722 6.8996,50.7278 14.5,32 76,142.5 82,148 6,126 -35,155 31,216 52,357 39,276 1,48 -65,130 -91,27 -63,-6 -43,17 -43,-6 -6,-8 -3,-16"
     id="path3606"
     style="fill:none;stroke:#f2f2f2;stroke-width:8;stroke-linecap:butt;stroke-linejoin:round;stroke-miterlimit:4;stroke-dasharray:none;stroke-opacity:1" />
  <path
     d="m 3385,1727 8,26 -4,40 -3,16 35,171 28,143 -8,25 -47,97"
     id="path3617"
     style="fill:none;stroke:#f2f2f2;stroke-width:8;stroke-linecap:butt;stroke-linejoin:round;stroke-miterlimit:4;stroke-dasharray:none;stroke-opacity:1" />
  <path
     d="m 2135,1301 19,-26 23,-31 17,-17 16,-13 20,-23 50,-90 10,-14 11,-3.5 159,68.5 224,91 32,12 14,16 93,43 154,115 72,55 320,239 56,43 107,-19 24,-6 187,-77 7,-9 -20,-76 4,-8 23,-11 50,-17 88,-17 54,-3 24,-9 43,-18 44,-10 62,-2 23,-12 43,-38 30,-19 31,-8 61,-16 18,-2 25,19 18,17 39,12 24,-2 160,-59"
     id="path3619"
     style="fill:none;stroke:#f2f2f2;stroke-width:8;stroke-linecap:butt;stroke-linejoin:round;stroke-miterlimit:4;stroke-dasharray:none;stroke-opacity:1" />
  <path
     d="m 3549,1222 -11,45 -26,33 -168,56 -46,59 -29,7 -230,29 -7,9 -5,3"
     id="path3623"
     style="fill:none;stroke:#f2f2f2;stroke-width:8;stroke-linecap:butt;stroke-linejoin:round;stroke-miterlimit:4;stroke-dasharray:none;stroke-opacity:1" />
  <path
     d="M 2358.5101,1106.5303 2350,1086"
     id="path3625"
     style="fill:none;stroke:#f2f2f2;stroke-width:8;stroke-linecap:butt;stroke-linejoin:round;stroke-miterlimit:4;stroke-dasharray:none;stroke-opacity:1" />
  <path
     d="m 2528,613 -14,7 -105,194 -33,56 v 34 l -9,36 -54,84 -18,29 -7,25 -53,73 -14,25 -3,16 -19,27 -31,15"
     id="path3627"
     style="fill:none;stroke:#f2f2f2;stroke-width:8;stroke-linecap:butt;stroke-linejoin:round;stroke-miterlimit:4;stroke-dasharray:none;stroke-opacity:1" />
  <path
     d="m 2173,1231 -16,9 -29.5,46.5 -31.5,54.5 -4.572,14.4779 1.8965,9.398 10.6316,20.472 24.083,22.7706 L 2176,1442 l 79,59 31,8 106.0538,21"
     id="path3629"
     style="fill:none;stroke:#f2f2f2;stroke-width:8;stroke-linecap:butt;stroke-linejoin:round;stroke-miterlimit:4;stroke-dasharray:none;stroke-opacity:1" />
  <path
     d="m 2528,614 15,-3 119,-214 68,-122 70,-129 177,-319 12,-22"
     id="path3631"
     style="fill:none;stroke:#f2f2f2;stroke-width:8;stroke-linecap:butt;stroke-linejoin:round;stroke-miterlimit:4;stroke-dasharray:none;stroke-opacity:1" />
  <path
     d="m 2987,-193 27,-47 29,-50 35,-48 9,-17 28,-87 3,-11 -11,-64 7,-20 31,-67 36,-81 7,-19 13,-12 72,-132 33,-62 54,-74 18,-37 20,-48 47,-79 35,-62 39,-29 23,-20 13,-20 15,-37 47,-53 25,-31 35,-62"
     id="path3633"
     style="fill:none;stroke:#f2f2f2;stroke-width:8;stroke-linecap:butt;stroke-linejoin:round;stroke-miterlimit:4;stroke-dasharray:none;stroke-opacity:1" />
  <path
     d="m 3773,-831 10,-22 22,-26 55,-57 58,-62 30,-40 36,-59 48,-72 91,-142 69,-107 49,-90"
     id="path3637"
     style="fill:none;stroke:#f2f2f2;stroke-width:8;stroke-linecap:butt;stroke-linejoin:round;stroke-miterlimit:4;stroke-dasharray:none;stroke-opacity:1" />
  <path
     d="m 3070,-325 9,-1 34,34 117,63 45,27 13,-4 39,-24 9,-31 4,-21 31,-27 14,-8 49,-19 77,-95 22,-18 36,-26 15,-44 1,-30 11,-11 61,-6 36,-5 53,-21 122,-46 144,-22 85,-92 58,-39 61,-63 15,-23 13,-44 29,-20"
     id="path3639"
     style="fill:none;stroke:#f2f2f2;stroke-width:8;stroke-linecap:butt;stroke-linejoin:round;stroke-miterlimit:4;stroke-dasharray:none;stroke-opacity:1" />
  <path
     d="m 2409,548 20,-37 8,-25 18,-38 12,-31 5,-33 -5,-56 -1,-119 12,-54 32,-67 54,-86 26,-48 36,-67 5,-14 2,-32 5,-19 97,-173 123,-222 102,-185 127,-229 20,-36 20,-36 14,-20 49,-23 13,-14 57,-108 72,-74 16,-11 51,-89 46,-111"
     id="path3641"
     style="fill:none;stroke:#f2f2f2;stroke-width:8;stroke-linecap:butt;stroke-linejoin:round;stroke-miterlimit:4;stroke-dasharray:none;stroke-opacity:1" />
  <path
     d="m 2628,-115 12,-4 82,44 91,-26 156,-280 22,-37 35,-6 50,-1 14,1 130,44 14,7 27,-11 55,6 196,-132.5 1.5,-82 34.5,-83.5 17,-34 32,-24 21,-8 29,-5 15,-16 9,-6 24,7 24,-5 40,-37 15,-48 11,-14 15,-32 2,-114 7,-296 17,-40 22,-36 101,-244 46,-81"
     id="path3643"
     style="fill:none;stroke:#f2f2f2;stroke-width:8;stroke-linecap:butt;stroke-linejoin:round;stroke-miterlimit:4;stroke-dasharray:none;stroke-opacity:1" />
  <path
     d="m 2991,-499 26,15 4,7 -36,67"
     id="path3645"
     style="fill:none;stroke:#f2f2f2;stroke-width:8;stroke-linecap:butt;stroke-linejoin:round;stroke-miterlimit:4;stroke-dasharray:none;stroke-opacity:1" />
  <path
     d="m 2412,544 -98,182 -57,100 -31,69 -27,65 -16,116 -7,52 -39,72 -13,18 -16,53 -13,36 -12.5,49 10,20.5 13.5,16"
     id="path3647"
     style="fill:none;stroke:#f2f2f2;stroke-width:8;stroke-linecap:butt;stroke-linejoin:round;stroke-miterlimit:4;stroke-dasharray:none;stroke-opacity:1" />
  <path
     d="m 45.7643,1341.203 -24.7488,56.5685 -3.5355,15.5564 5.6568,10.6066 9.8995,4.2426 16.2635,-3.5355 31.1127,-8.4853 10.6066,2.8284 52.3259,45.962 7.0711,5.6568 9.1924,-1.4142 18.3847,-2.1213 12.0208,4.2426 14.1422,13.4351 5.6568,26.1629 -1.4142,25.4559 -11.3137,26.1629 -18.3848,26.8701 -19.0918,13.435 -15.5564,4.9498 -13.435,-1.4143 -16.9706,-9.8995 -5.6568,-9.8994 -5.6569,-12.0209 -5.6568,-4.9497 -7.7782,-2.1213 -40.3051,6.3639 -7.7782,5.6569 -2.1213,12.0208 -3.5355,56.5685"
     id="path3711"
     style="fill:none;stroke:#f2f2f2;stroke-width:8;stroke-linecap:butt;stroke-linejoin:round;stroke-miterlimit:4;stroke-dasharray:none;stroke-opacity:1" />
  <path
     d="m 2141.5,1190 4,13 22.5,14 20.5,25 5.5,8.5 -24,31.5 -21.5,29.5 -5,16 3.5,12.5 42.5,42.5 11.5,9.5 94.5,41 60,22 3,6.5 11,42 4,13.5 6.5,7 36,19 57,32 12,11 35.5,73"
     id="path3649"
     style="fill:none;stroke:#f2f2f2;stroke-width:8;stroke-linecap:butt;stroke-linejoin:round;stroke-miterlimit:4;stroke-dasharray:none;stroke-opacity:1" />
  <path
     d="m 2519,1655.5 53.5,104.5 31.5,57 82,24 94.5,26 55.5,4.5"
     id="path3651"
     style="fill:none;stroke:#f2f2f2;stroke-width:8;stroke-linecap:butt;stroke-linejoin:round;stroke-miterlimit:4;stroke-dasharray:none;stroke-opacity:1" />
  <path
     d="m 2772,1701 2,14 -67.5,257.5 -9.8433,24.8922"
     id="path3621"
     style="fill:none;stroke:#f2f2f2;stroke-width:8;stroke-linecap:butt;stroke-linejoin:round;stroke-miterlimit:4;stroke-dasharray:none;stroke-opacity:1" />
  <path
     d="m 2833,1870.5 231.5,16.5 62.5,8.5 12,22 3.5,13 21.5,24 39.5,46.5 10,5.5 95,-17 101.5,-21 170,-33 47.5,-9"
     id="path3653"
     style="fill:none;stroke:#f2f2f2;stroke-width:8;stroke-linecap:butt;stroke-linejoin:round;stroke-miterlimit:4;stroke-dasharray:none;stroke-opacity:1" />
  <path
     d="m 2838,1869.5 -5.5,85.5 2,35 18,233.5 20,223.5"
     id="path3655"
     style="fill:none;stroke:#f2f2f2;stroke-width:8;stroke-linecap:butt;stroke-linejoin:round;stroke-miterlimit:4;stroke-dasharray:none;stroke-opacity:1" />
  <path
     d="m 2520.5,608 -104,-59.5"
     id="path3661"
     style="fill:none;stroke:#f2f2f2;stroke-width:8;stroke-linecap:butt;stroke-linejoin:round;stroke-miterlimit:4;stroke-dasharray:none;stroke-opacity:1" />
  <path
     d="m 2956.5,636.5 24.5,14.5 31,37 26.5,30 9.5,6 37.5,5.5 113.5,17.5 30,5.5 9.5,-3 39,-16.5 50,-17 22,-2 38,-4.5 77,-12 50.5,-6 286.5,-40 79,-11 72,-27 153.5,-61 27.5,-14.5 28.5,-15.5 31,-8 47,-22"
     id="path3665"
     style="fill:none;stroke:#f2f2f2;stroke-width:8;stroke-linecap:butt;stroke-linejoin:round;stroke-miterlimit:4;stroke-dasharray:none;stroke-opacity:1" />
  <path
     d="m 3100,-399 -9,-9 5,-9 123.5,41 14,8.5 15.5,-6 13,-5.5 55,6 57,-38.5 135.5,-91.5 6.5,-5 2.5,-85.5 34.2102,-80.906 16.2898,-32.094 30.5,-23.5 18,-7 32.5,-6 9,-9.5 12.5,-11.5 8,2.5 16,4 26,-4.5 43.5,-41 9,-31"
     id="path3635"
     style="fill:none;stroke:#f2f2f2;stroke-width:8;stroke-linecap:butt;stroke-linejoin:round;stroke-miterlimit:4;stroke-dasharray:none;stroke-opacity:1" />
  <path
     d="m 4503,1420 -58,28.5 -5.5,7 -3,11 57,132.5 67,177 14,42 2,27 v 40.5 l -4.5,21 -14.5,30 -6.5,23.5 -2.5,29.5 v 48 l -4,10 -19,11 -13.5,18 -4.5,24 2,18 32.5,66 31.5,44.5 23.5,21 30.5,6 54.5,-5.5 16,7 17,22.5 10,17.5 28,8 12.5,-15.5 65.5,-38 5.5,-8.5 -2,-8 -29.5,-23.5 -36.5,-11 -9.5,1.5 -54.5,35.5 -18.5,11.5 -11.5,1.5"
     id="path3640"
     style="fill:none;stroke:#f2f2f2;stroke-width:8;stroke-linecap:butt;stroke-linejoin:round;stroke-miterlimit:4;stroke-dasharray:none;stroke-opacity:1" />
  <path
     d="M 4700.5,2260.5 4700,2240"
     id="path3642"
     style="fill:none;stroke:#f2f2f2;stroke-width:8;stroke-linecap:butt;stroke-linejoin:round;stroke-miterlimit:4;stroke-dasharray:none;stroke-opacity:1" />
  <path
     d="m 4548,2009 -5.5,-10 -6,-0.5 -38.5,20 -128.5,-32 -38.5,13.5 -61,-7.5 -30.5,21.5"
     id="path3644"
     style="fill:none;stroke:#f2f2f2;stroke-width:8;stroke-linecap:butt;stroke-linejoin:round;stroke-miterlimit:4;stroke-dasharray:none;stroke-opacity:1" />
  <path
     d="m 2932.9731,620.5168 49.5034,29.4967 L 3006,645 l 48,-63 125,-203 8,-16 107,-117"
     id="path3610-4"
     style="fill:none;stroke:#f2f2f2;stroke-width:8;stroke-linecap:butt;stroke-linejoin:round;stroke-miterlimit:4;stroke-dasharray:none;stroke-opacity:1" />
  <path
     d="m 2679.5,463 58.7664,32.2213 L 2794.5,528.5"
     id="path5582"
     style="fill:none;stroke:#f2f2f2;stroke-width:8;stroke-linecap:butt;stroke-linejoin:round;stroke-miterlimit:4;stroke-dasharray:none;stroke-opacity:1" />
  <path
     style="fill:none;fill-rule:evenodd;stroke:#f2f2f2;stroke-width:8;stroke-linecap:butt;stroke-linejoin:round;stroke-miterlimit:4;stroke-dasharray:none;stroke-opacity:1"
     d="m 2453.4915,430.7966 -6.7626,-24.9152"
     id="path4211" />
  <path
     id="path887"
     d="m 2055.8937,1178.5275 c -111.4552,-17.3617 -84.8033,27.4808 -177.609,17.3855"
     style="opacity:1;fill:none;fill-opacity:1;fill-rule:nonzero;stroke:#00ffff;stroke-width:5;stroke-linecap:butt;stroke-linejoin:round;stroke-miterlimit:4;stroke-dasharray:none;stroke-opacity:1" />
  <path
     id="path1674"
     d="m 1997.4151,598.4827 c 65.7477,7.72706 46.1779,-57.63147 -1.5805,-91.27408"
     style="opacity:1;fill:none;fill-opacity:1;fill-rule:nonzero;stroke:#00ffff;stroke-width:5;stroke-linecap:butt;stroke-linejoin:round;stroke-miterlimit:4;stroke-dasharray:none;stroke-opacity:1" />
  <path
     id="path1676"
     d="m 1995.8346,507.20862 c 88.3294,65.08916 147.2745,-66.66759 221.4681,-28.84419"
     style="opacity:1;fill:none;fill-opacity:1;fill-rule:nonzero;stroke:#00ffff;stroke-width:5;stroke-linecap:butt;stroke-linejoin:round;stroke-miterlimit:4;stroke-dasharray:none;stroke-opacity:1" />
  <path
     id="path1678"
     d="m 2217.3027,478.36443 c -111.3403,-41.9732 21.7796,-200.48969 -75.074,-239.84141"
     style="opacity:1;fill:none;fill-opacity:1;fill-rule:nonzero;stroke:#00ffff;stroke-width:5;stroke-linecap:butt;stroke-linejoin:round;stroke-miterlimit:4;stroke-dasharray:none;stroke-opacity:1" />
  <path
     id="path1680"
     d="m 1997.4151,598.4827 c 86.5235,19.044 158.341,-148.76684 219.8876,-120.11827"
     style="opacity:1;fill:none;fill-opacity:1;fill-rule:nonzero;stroke:#00ffff;stroke-width:5;stroke-linecap:butt;stroke-linejoin:round;stroke-miterlimit:4;stroke-dasharray:none;stroke-opacity:1" />
  <path
     id="path1682"
     d="m 1878.2847,1195.913 c 93.5885,29.6243 206.6788,442.7915 309.7786,169.3115"
     style="opacity:1;fill:none;fill-opacity:1;fill-rule:nonzero;stroke:#00ffff;stroke-width:5;stroke-linecap:butt;stroke-linejoin:round;stroke-miterlimit:4;stroke-dasharray:none;stroke-opacity:1" />
  <path
     style="fill:none;stroke:#00aeef;stroke-width:1;stroke-linecap:butt;stroke-linejoin:round;stroke-miterlimit:4;stroke-dasharray:none;stroke-opacity:1"
     id="path3705-3"
     d="m 1597.2055,1265.4569 -25.6624,16.6553 -10.9136,4.794 -74.13,46.0941 -32,12.5 -84,53 -19,16 -74,77.5 -111,112 -23,29 -45,68.5 -79.5,124 -14.4156,22.3764 -52.58437,81.6236 -53.50003,80.5 -24.3804,40.6866 -18.8059,28.8358 -19.4329,18.806 -15.6716,8.7761 -27.5821,8.1492 -43.8806,-1.8806" />
  <path
     style="color:#000000;font-style:normal;font-variant:normal;font-weight:normal;font-stretch:normal;font-size:medium;line-height:normal;font-family:sans-serif;font-variant-ligatures:normal;font-variant-position:normal;font-variant-caps:normal;font-variant-numeric:normal;font-variant-alternates:normal;font-feature-settings:normal;text-indent:0;text-align:start;text-decoration:none;text-decoration-line:none;text-decoration-style:solid;text-decoration-color:#000000;letter-spacing:normal;word-spacing:normal;text-transform:none;writing-mode:lr-tb;direction:ltr;text-orientation:mixed;dominant-baseline:auto;baseline-shift:baseline;text-anchor:start;white-space:normal;shape-padding:0;clip-rule:nonzero;display:inline;overflow:visible;visibility:visible;opacity:1;isolation:auto;mix-blend-mode:normal;color-interpolation:sRGB;color-interpolation-filters:linearRGB;solid-color:#000000;solid-opacity:1;vector-effect:none;fill:none;fill-opacity:1;fill-rule:nonzero;stroke:#00aeef;stroke-width:5;stroke-linecap:butt;stroke-linejoin:round;stroke-miterlimit:4;stroke-dasharray:none;stroke-dashoffset:0;stroke-opacity:1;color-rendering:auto;image-rendering:auto;shape-rendering:auto;text-rendering:auto;enable-background:accumulate"
     d="m 1920.5859,891.49815 -14.1699,0.49023 -17.6855,5.40234 -0.4824,0.0977 -10,1 -0.545,-0.006 -40.9616,-4.9014 -3.7434,4.03812 -0.9883,20.7207 0.7383,4.15235 14.2168,19.36719 0.4843,1.52343 -0.1953,11.06836 -0.039,0.39453 -3.7343,20.98047 -3.4903,40.88673 -0.2597,0.918 -7.7012,15.1746 -1.2578,3.331 -2.4219,45.4277 0.834,1.125 7.6797,0.6192 0.6348,0.1367 26.9648,9.5761 1.5,1.4668 1.2969,3.4122 0.1406,1.2246 -5.8496,43.1621 4.3359,13.9726 0.096,1.0371 -6.5,54.5001 -1.0488,1.7519 -5,3.5 -1.8262,0.42 -40.9941,-6.4981 -35.4961,-5.5 -0.7344,-0.2344 -1,-0.5 -1.1816,-1.25 -2.7852,-6.502 -4.6738,-4.248 -9.9961,-2.9453 -29.5254,-3.3067 -0.168,-0.023 -37.6796,-6.8515 -3.3653,1.6816 -5.6582,15.5645 -1.1523,1.3398 -11,6 -2.209,0.092 -25.6445,-11.3437 -8.4786,-0.9239 -6.6152,1.9239 -4.0742,3.4863 -1.1406,3.7051 5.7265,25.4218 0.051,0.334 0.7129,8.1856 -0.1094,0.9765 -1.3359,4.1817 -0.6738,1.0664 -2.6993,2.5254 -20.9774,23.0945"
     id="path3707" />
  <path
     style="fill:none;stroke:#fbb03f;stroke-width:5;stroke-linecap:butt;stroke-linejoin:round;stroke-miterlimit:4;stroke-dasharray:none;stroke-opacity:1"
     id="path4056"
     d="m 1242,1187.0004 282,91.5 30,5.5 8.7702,-1.2506 7.7389,-3.5698 24.6488,-15.7709 21.1331,-23.2333 2.2246,-2.082 0.9844,-3.084 -0.6543,-7.5196 -5.8359,-25.9062 0.051,-1.2852 1.5489,-5.0332 0.7656,-1.164 5.035,-4.3067 0.9258,-0.5 7.6094,-2.2149 0.9687,-0.084 9.3574,1.0215 0.7403,0.1992 24.873,11.002 9.0879,-4.959 5.6778,-15.6113 1.2304,-1.3828 5,-2.5 1.5664,-0.2227 38.416,6.9844 29.6563,3.3203 0.4277,0.088 10.7598,3.1699 0.9746,0.5469 5.5,5 0.6152,0.8652 2.6114,6.0957 34.9746,5.418 h 0.01 l 40.0039,6.3418 3.2558,-2.2792 6.3047,-52.8614 -4.3437,-13.9902 -0.09,-1.0781 5.8398,-43.0821 -0.6601,-1.7363 -25.5684,-9.0781 -8.4824,-0.6856 -1.8066,-1.0039 -2.0469,-2.7578 -0.4883,-1.623 2.4922,-46.7149 0.1582,-0.7539 1.4492,-3.8183 0.1074,-0.2442 7.5352,-14.8633 3.459,-40.51559 0.029,-0.22461 3.7187,-20.89844 0.1777,-10.02539 -14.0625,-19.1582 -0.4453,-1.04102 -0.8886,-5.00195 -0.037,-0.55664 1,-21 -3.0355,-5.2088 -5.7634,-0.68964 -1.039,-0.36914 -9.5,-6 -0.461,-0.375 -14.0351,-14.51758 -16.5801,-4.73828 -38.7168,-1.98633 -1.3418,-0.47461 -5.5,-4 -0.9883,-1.57421 -1,-5.5 0.459,-1.94727 4.3906,-5.85352 9.291,-17.11523 4.877,-16.09375 2.707,-16.92578" />
  <path
     id="path1560"
     d="m 1754.7285,794.4844 1.2558,-7.84376 5.9746,-13.94335 0.033,-0.10743 4.4922,-24.45312 6.4649,-16.91211 20.9746,-33.45899 0.012,-0.0195 9,-16 0.037,-0.0801 10.4922,-29.98243 45.4921,-102.98047 v -0.0117 l 8.4532,-20.38672 8.8222,-7.34961 10.8418,-2.95703 11.3457,-0.49414 20.9082,7.46679 0.252,0.0215 14.5,-2.5 0.1582,-0.0547 13.5,-7.5 0.1348,-0.10742 10.5,-12 0.047,-0.0645 18.498,-29.49609 18.4805,-28.4707 22.9804,-27.47852 0.053,-0.0762 20.9805,-37.46289 19.9746,-24.96875 0.021,-0.0293 14,-20.5 0.045,-0.0801 7.5,-17 0.018,-0.0469 8.4883,-25.96484 19.4844,-38.9668 0.037,-0.0996 4,-15.5 L 2113,236.5 v -11 l -0.068,-0.25391 -5,-8.5 -0.1543,-0.16211 -39,-26 -148.4785,-98.98437 -17.42,-14.43555 -14.4589,-22.43359"
     style="color:#000000;font-style:normal;font-variant:normal;font-weight:normal;font-stretch:normal;font-size:medium;line-height:normal;font-family:sans-serif;font-variant-ligatures:normal;font-variant-position:normal;font-variant-caps:normal;font-variant-numeric:normal;font-variant-alternates:normal;font-feature-settings:normal;text-indent:0;text-align:start;text-decoration:none;text-decoration-line:none;text-decoration-style:solid;text-decoration-color:#000000;letter-spacing:normal;word-spacing:normal;text-transform:none;writing-mode:lr-tb;direction:ltr;text-orientation:mixed;dominant-baseline:auto;baseline-shift:baseline;text-anchor:start;white-space:normal;shape-padding:0;clip-rule:nonzero;display:inline;overflow:visible;visibility:visible;opacity:1;isolation:auto;mix-blend-mode:normal;color-interpolation:sRGB;color-interpolation-filters:linearRGB;solid-color:#000000;solid-opacity:1;vector-effect:none;fill:none;fill-opacity:1;fill-rule:nonzero;stroke:#168b6f;stroke-width:1;stroke-linecap:butt;stroke-linejoin:round;stroke-miterlimit:4;stroke-dasharray:none;stroke-dashoffset:0;stroke-opacity:1;color-rendering:auto;image-rendering:auto;shape-rendering:auto;text-rendering:auto;enable-background:accumulate" />
  <path
     id="path897-3"
     d="m 1887.58,55.27148 14.5,22.5 0.1016,0.11329 17.5,14.5 0.041,0.0312 148.5,99 38.9043,25.93755 4.8731,8.2832 v 10.80078 l -3.9707,15.38672 -19.4766,38.95312 -0.027,0.0684 -8.4922,25.97657 -7.4726,16.93359 -13.9629,20.44726 -19.9883,24.98438 -0.045,0.0684 -20.9785,37.45898 -22.9687,27.46485 -0.037,0.0488 -18.5,28.5 v 0.006 l -18.4785,29.46679 -10.4161,11.9043 -13.3496,7.41601 -14.2871,2.4629 -20.8769,-7.45508 -0.1895,-0.0294 -11.5,0.5 -0.1094,0.0176 -11,3 -0.1894,0.0996 -9,7.5 -0.1406,0.1914 -8.4981,20.49414 -45.498,102.9961 -0.016,0.0371 -10.4844,29.95703 -8.9727,15.95117 -20.9941,33.49024 -0.043,0.0879 -6.5,17 -0.025,0.0879 -4.4902,24.44531 -5.9766,13.94726 -0.035,0.11915 -1.2637,7.90429"
     style="color:#000000;font-style:normal;font-variant:normal;font-weight:normal;font-stretch:normal;font-size:medium;line-height:normal;font-family:sans-serif;font-variant-ligatures:normal;font-variant-position:normal;font-variant-caps:normal;font-variant-numeric:normal;font-variant-alternates:normal;font-feature-settings:normal;text-indent:0;text-align:start;text-decoration:none;text-decoration-line:none;text-decoration-style:solid;text-decoration-color:#000000;letter-spacing:normal;word-spacing:normal;text-transform:none;writing-mode:lr-tb;direction:ltr;text-orientation:mixed;dominant-baseline:auto;baseline-shift:baseline;text-anchor:start;white-space:normal;shape-padding:0;clip-rule:nonzero;display:inline;overflow:visible;visibility:visible;opacity:1;isolation:auto;mix-blend-mode:normal;color-interpolation:sRGB;color-interpolation-filters:linearRGB;solid-color:#000000;solid-opacity:1;vector-effect:none;fill:none;fill-opacity:1;fill-rule:nonzero;stroke:#fbb03f;stroke-width:1;stroke-linecap:butt;stroke-linejoin:round;stroke-miterlimit:4;stroke-dasharray:none;stroke-dashoffset:0;stroke-opacity:1;color-rendering:auto;image-rendering:auto;shape-rendering:auto;text-rendering:auto;enable-background:accumulate" />
  <path
     id="path1548"
     d="m 1920.4141,886.50205 -14.5,0.5 -0.6446,0.10743 -17.7636,5.42773 -9.4805,0.94922 -57.668,-6.90039 -8.7695,-5.53906 -14.291,-14.78321 -1.1094,-0.66797 -17.5,-5 -0.5586,-0.0918 -38.2598,-1.96289 -4.0878,-2.97266 -0.627,-3.44141 L 1739,847 l 0.1973,-0.30664 9.5,-17.5 0.1953,-0.46875 5,-16.5 0.076,-0.33008 2.7344,-17.09375"
     style="color:#000000;font-style:normal;font-variant:normal;font-weight:normal;font-stretch:normal;font-size:medium;line-height:normal;font-family:sans-serif;font-variant-ligatures:normal;font-variant-position:normal;font-variant-caps:normal;font-variant-numeric:normal;font-variant-alternates:normal;font-feature-settings:normal;text-indent:0;text-align:start;text-decoration:none;text-decoration-line:none;text-decoration-style:solid;text-decoration-color:#000000;letter-spacing:normal;word-spacing:normal;text-transform:none;writing-mode:lr-tb;direction:ltr;text-orientation:mixed;dominant-baseline:auto;baseline-shift:baseline;text-anchor:start;white-space:normal;shape-padding:0;clip-rule:nonzero;display:inline;overflow:visible;visibility:visible;opacity:1;isolation:auto;mix-blend-mode:normal;color-interpolation:sRGB;color-interpolation-filters:linearRGB;solid-color:#000000;solid-opacity:1;vector-effect:none;fill:none;fill-opacity:1;fill-rule:nonzero;stroke:#168b6f;stroke-width:5;stroke-linecap:butt;stroke-linejoin:round;stroke-miterlimit:4;stroke-dasharray:none;stroke-dashoffset:0;stroke-opacity:1;color-rendering:auto;image-rendering:auto;shape-rendering:auto;text-rendering:auto;enable-background:accumulate" />
</svg>
