<?xml version="1.0" encoding="UTF-8" standalone="no"?>
<svg
   xmlns:dc="http://purl.org/dc/elements/1.1/"
   xmlns:cc="http://creativecommons.org/ns#"
   xmlns:rdf="http://www.w3.org/1999/02/22-rdf-syntax-ns#"
   xmlns:svg="http://www.w3.org/2000/svg"
   xmlns="http://www.w3.org/2000/svg"
   xmlns:xlink="http://www.w3.org/1999/xlink"
   version="1.1"
   id="svg2"
   width="575"
   height="725"
   viewBox="0 0 575 725">
  <metadata
     id="metadata8">
    <rdf:RDF>
      <cc:Work
         rdf:about="">
        <dc:format>image/svg+xml</dc:format>
        <dc:type
           rdf:resource="http://purl.org/dc/dcmitype/StillImage" />
        <dc:title></dc:title>
      </cc:Work>
    </rdf:RDF>
  </metadata>
  <defs
     id="defs6" />
  <g
     id="g10">
    <image
       xlink:href="streetmap/ok_osm.png"
       y="-140"
       x="-75"
       id="image12"
       style="display:none;image-rendering:optimizeSpeed"
       preserveAspectRatio="none"
       height="1000.875"
       width="800.70001" />
    <path
       style="fill:none;stroke:#003399;stroke-width:5;stroke-linejoin:round;stroke-opacity:1"
       d="m 75.43741,211.44842 18.08191,40.96831 3.48596,2.21371 9.17238,-2.48659 79.59154,-16.62353 40.10298,-19.781 -3.82261,28.06494 -16.4445,20.29097 -1.68798,8.90317 2.55842,20.9796 4.19271,4.88785 18.48718,13.27059 6.91279,10.44065 1.74004,8.11753 3.66897,60.45575 -0.63345,186.4214 -1.04887,22.27578 -28.64356,58.61636"
       id="path837" />
    <path
       style="fill:none;stroke:#003399;stroke-width:5;stroke-linejoin:round;stroke-opacity:1"
       d="m 225.87218,215.73932 39.03278,-15.26216 20.16214,-23.26397 41.27348,-42.22645 10.92673,-8.79977 35.67123,-21.61169 32.11953,-28.67826 5.22878,-0.85093 28.06657,-1.08669 6.58717,-1.98824 14.97457,-7.35 4.7053,0.27074 18.63491,4.94787 9.72098,2.0598 10.74909,3.89133 7.83272,7.87001"
       id="path839" />
  </g>
</svg>
