<?xml version="1.0" encoding="UTF-8" standalone="no"?>
<svg
   xmlns:dc="http://purl.org/dc/elements/1.1/"
   xmlns:cc="http://creativecommons.org/ns#"
   xmlns:rdf="http://www.w3.org/1999/02/22-rdf-syntax-ns#"
   xmlns:svg="http://www.w3.org/2000/svg"
   xmlns="http://www.w3.org/2000/svg"
   xmlns:xlink="http://www.w3.org/1999/xlink"
   viewBox="0 0 1325 450"
   height="450"
   width="1325"
   id="svg2"
   version="1.1">
  <metadata
     id="metadata8">
    <rdf:RDF>
      <cc:Work
         rdf:about="">
        <dc:format>image/svg+xml</dc:format>
        <dc:type
           rdf:resource="http://purl.org/dc/dcmitype/StillImage" />
        <dc:title></dc:title>
      </cc:Work>
    </rdf:RDF>
  </metadata>
  <defs
     id="defs6" />
  <image
     xlink:href="streetmap/osiosm.png"
     width="1418"
     height="472.66666"
     preserveAspectRatio="none"
     id="image10"
     x="-25"
     y="27.333344"
     style="display:none" />
  <path
     id="path836"
     d="m 57.672032,49.55333 16.997988,8.88531 65.67404,11.58954 68.37827,-0.77264 161.09457,6.95373 54.08451,1.93159 56.0161,14.29376 16.61167,0.38631 51.38028,-8.88531 30.13279,1.15896 33.22334,3.86318 14.68009,3.86317 24.9175,13.32797 11.7827,5.98793 20.47485,6.37425 10.8169,12.74849 37.47283,-0.9658 150.85715,38.82495 14.48692,1.93159 18.3501,-0.38632 51.38028,-8.69215 5.21529,0.38632 136.7565,48.67605 12.3622,2.12475 138.3018,50.99397"
     style="opacity:1;fill:none;fill-opacity:1;fill-rule:nonzero;stroke:#c41a1b;stroke-width:5;stroke-linecap:butt;stroke-linejoin:round;stroke-miterlimit:4;stroke-dasharray:none;stroke-opacity:1" />
  <path
     id="path838"
     d="m 693.93763,131.25957 -12.94165,0.19316 -14.29377,96.57947 1.93159,3.86318 4.2495,5.98793 13.52113,19.70221 22.79275,85.56942 2.70423,12.16901 -1.54527,3.86318 -8.11268,8.499 -2.12475,4.82897 v 3.2837 l 2.89739,1.35212 29.93964,-2.70423 16.99798,-3.67002 28.00805,-8.49899 22.98592,-14.87324 39.9839,-24.33803 8.499,-2.51107 25.8833,-3.47686 101.21531,-17.38431 88.2736,-15.83903 10.2374,-0.77264 5.6017,3.09055 52.346,11.97585 121.1107,56.59558"
     style="opacity:1;fill:none;fill-opacity:1;fill-rule:nonzero;stroke:#c41a1b;stroke-width:5;stroke-linecap:butt;stroke-linejoin:round;stroke-miterlimit:4;stroke-dasharray:none;stroke-opacity:1" />
  <path
     id="path840"
     d="m 671.53119,236.72436 3.86318,-8.30584 51.38028,-0.19316 3.2837,3.67002 -0.19316,19.89537 3.86318,2.89739 8.11268,-2.70423 9.65795,-0.96579 1.93159,-2.89739 -8.499,-113.57746"
     style="opacity:1;fill:none;fill-opacity:1;fill-rule:nonzero;stroke:#c41a1b;stroke-width:5;stroke-linecap:butt;stroke-linejoin:round;stroke-miterlimit:4;stroke-dasharray:none;stroke-opacity:1" />
</svg>
