<?xml version="1.0" encoding="UTF-8" standalone="no"?>
<svg
   xmlns:dc="http://purl.org/dc/elements/1.1/"
   xmlns:cc="http://creativecommons.org/ns#"
   xmlns:rdf="http://www.w3.org/1999/02/22-rdf-syntax-ns#"
   xmlns:svg="http://www.w3.org/2000/svg"
   xmlns="http://www.w3.org/2000/svg"
   xmlns:xlink="http://www.w3.org/1999/xlink"
   version="1.1"
   id="svg2"
   width="3475"
   height="1175"
   viewBox="0 0 3475 1175">
  <metadata
     id="metadata8">
    <rdf:RDF>
      <cc:Work
         rdf:about="">
        <dc:format>image/svg+xml</dc:format>
        <dc:type
           rdf:resource="http://purl.org/dc/dcmitype/StillImage" />
        <dc:title></dc:title>
      </cc:Work>
    </rdf:RDF>
  </metadata>
  <defs
     id="defs6" />
  <g
     id="g10">
    <image
       xlink:href="streetmap/oswosm.png"
       y="10"
       x="-125"
       id="image12"
       style="display:none;image-rendering:optimizeSpeed"
       preserveAspectRatio="none"
       height="1268.667"
       width="3806.0012" />
    <path
       style="fill:none;stroke:#009933;stroke-width:5;stroke-linejoin:round;stroke-opacity:1"
       d="m 69.38544,1042.3385 9.98163,68.474 210.86724,-29.2608 87.12087,-64.5739 256.05648,12.4815 9.54508,-3.552 41.70572,-45.925 11.44835,-9.5995 77.96489,-42.03801 78.81509,-17.4533 85.81491,-49.0869 -30.617,-55.78927 10.871,-5.56089"
       id="path855" />
    <path
       style="fill:none;stroke:#009933;stroke-width:5;stroke-linejoin:round;stroke-opacity:1"
       d="m 938.7057,861.80459 72.7992,-48.53093 27.7761,-52.12177 14.8307,-16.63346"
       id="path857" />
    <path
       style="fill:none;stroke:#009933;stroke-width:5;stroke-linejoin:round;stroke-opacity:1"
       d="m 377.35518,1016.9778 -28.29276,-65.93499 5.76182,-128.58879 46.79113,-14.68391"
       id="path859" />
    <path
       style="fill:none;stroke:#cc3333;stroke-width:5;stroke-linejoin:round;stroke-opacity:1"
       d="m 1701.4776,70.100567 253.7668,212.840863 12.1764,13.96462 16.622,27.61868 16.5832,39.28139 49.3226,150.46365 32.5313,108.26064 58.6059,7.50308 92.5341,-33.90857 9.3844,3.08199 79.3904,-28.908 55.7881,-30.23325 3.4966,-14.44166 11.5831,-0.5219 31.7522,-10.76172 63.6111,17.6802 254.6184,263.87534 40.2688,43.50252 10.2004,10.24171 25.623,13.93958 48.8095,45.55608 14.1186,-14.02709 72.685,78.56363 105.8344,-96.03382 23.3938,-8.18573 58.536,-29.67009 35.5896,-6.21323 82.7065,-40.53853 112.4754,-67.33119 20.9924,13.71275 10.3991,0.10683 5.5328,3.79695"
       id="path897" />
    <path
       style="fill:none;stroke:#cc3333;stroke-width:5;stroke-linejoin:round;stroke-opacity:1"
       d="m 2048.325,509.10096 114.0583,-36.94844 219.2961,53.47148"
       id="path917" />
    <path
       style="fill:none;stroke:#cc3333;stroke-width:5;stroke-linejoin:round;stroke-opacity:1"
       d="m 1675.5459,280.69231 23.013,-27.22173 154.3201,-55.40969"
       id="path919" />
    <path
       style="fill:none;stroke:#cc3333;stroke-width:5;stroke-linejoin:round;stroke-opacity:1"
       d="m 2000.626,363.80612 61.0232,-22.12241 48.3242,-14.17925 9.8231,-40.13711 4.1596,-3.52621 61.4872,1.71486 128.9228,2.20353 20.398,5.72195 23.7398,9.65319 42.8866,23.24225 7.5172,16.32873 -1.9243,20.17531"
       id="path921" />
    <path
       style="fill:none;stroke:#cc3333;stroke-width:5;stroke-linejoin:round;stroke-opacity:1"
       d="m 2488.6258,532.02058 121.3493,-57.53174 10.4311,-28.33368 103.1241,-73.18797 41.5734,-24.71404 33.4,-46.08396 -8.0582,-32.64599 3.2445,-5.01806 83.5182,-30.50324"
       id="path923" />
  </g>
</svg>
