<?xml version="1.0" encoding="UTF-8" standalone="no"?>
<svg
   xmlns:dc="http://purl.org/dc/elements/1.1/"
   xmlns:cc="http://creativecommons.org/ns#"
   xmlns:rdf="http://www.w3.org/1999/02/22-rdf-syntax-ns#"
   xmlns:svg="http://www.w3.org/2000/svg"
   xmlns="http://www.w3.org/2000/svg"
   xmlns:xlink="http://www.w3.org/1999/xlink"
   version="1.1"
   id="svg2"
   width="2075"
   height="975"
   viewBox="0 0 2075 975">
  <metadata
     id="metadata8">
    <rdf:RDF>
      <cc:Work
         rdf:about="">
        <dc:format>image/svg+xml</dc:format>
        <dc:type
           rdf:resource="http://purl.org/dc/dcmitype/StillImage" />
        <dc:title></dc:title>
      </cc:Work>
    </rdf:RDF>
  </metadata>
  <defs
     id="defs6" />
  <g
     id="g10">
    <image
       xlink:href="streetmap/pk_osm.png"
       y="-40"
       x="-85"
       id="image12"
       style="display:none;image-rendering:optimizeSpeed"
       preserveAspectRatio="none"
       height="1192.9091"
       width="2187" />
    <path
       style="fill:none;stroke:#0066cc;stroke-width:5;stroke-linejoin:round;stroke-opacity:1"
       d="m 70.95663,681.20118 3.48025,3.08387 50.80484,106.75641 4.25752,13.56822 -9.42342,63.54394 1.51113,7.70348 15.17804,30.71711 6.27175,2.19476 31.19898,-14.84496 185.2104,-90.7911 24.68987,-13.51262 3.02123,-4.48701 -3.15911,-296.01715 -2.15152,-1.66716 -5.62826,-1.57231 -2.22815,-3.03403 0.19919,-53.28423 1.64729,-3.59741 6.13972,-0.6108 1.4663,-2.0481 0.64162,-5.21597 0.0966,-52.92056 -3.46275,-88.33503 1.70659,-4.35132 5.7145,-3.35538 5.30886,-1.13371 7.80703,1.01799 11.11953,8.11678 9.14344,0.61178 104.00249,-68.82552 7.11996,-11.31613 15.80242,-64.62616 5.88276,-6.89177 5.40346,-2.91266 8.57842,-14.51974"
       id="path837" />
    <path
       style="fill:none;stroke:#0066cc;stroke-width:5;stroke-linejoin:round;stroke-opacity:1"
       d="m 385.38551,656.23264 115.81494,-1.47807 1.65484,-2.63659 0.18289,-14.39231 2.89941,-3.86009 15.50262,2.68197 7.1293,6.12986 4.80605,1.05594 19.16068,-22.49258 6.48241,-3.27669 84.989,-18.39187 5.78486,1.13358 12.37899,19.75977 6.06703,1.24524 7.07482,-3.33741 5.3412,-3.96264 6.26569,0.40728 7.22077,0.0693 18.98163,-11.98178 5.31354,-4.86685 4.79248,-12.27917 15.22917,-59.86588 4.04215,-3.8594 9.79399,-0.93114 30.25558,27.13052 8.07732,1.73022 107.14035,-14.35945 135.71688,-49.77364 64.202,-31.92557 7.5304,-8.86071 3.7118,-8.84439 1.8953,-6.96802 -5.7605,-33.05446 0.168,-10.12894 4.3169,-10.18503 7.1381,-8.72991 18.1222,-5.6334 9.8056,-2.35362 48.9352,-30.17404 48.522,-21.29733 28.4558,-8.68359 3.5015,0.11364 4.1113,4.24344 28.8271,64.51255 2.0816,11.5104 2.516,35.71974 9.8177,30.88208 16.0603,37.99622 16.1555,46.00113 13.6265,24.56909 1.4556,15.31596 -0.4169,11.0998 -5.7906,31.48143 -3.7549,9.93069"
       id="path857" />
    <path
       style="fill:none;stroke:#0066cc;stroke-width:5;stroke-linejoin:round;stroke-opacity:1"
       d="m 1367.2244,554.54004 1.9333,-3.59571 13.699,-6.82145 -13.0779,-23.00352 -7.1792,-18.71394 v -5.10128 l 14.0587,-15.68274 0.1619,-7.54252 -8.3975,-14.82716 5.9626,-10.4034 10.1327,-6.48686 1.0419,-3.39352 -2.0828,-5.25957 0.321,-24.52066 -13.7377,-27.16788 -0.4849,-15.19119 3.4438,-11.90902 4.07,-7.73433 23.6758,-8.93779 34.2783,-27.23305 13.6385,-4.39802 9.1545,-1.12514 11.1681,0.67198 18.5714,-12.60467 20.3484,-11.20974 81.4782,-16.34417 87.6135,-63.58582 74.0331,2.55766 2.4618,-3.86888 0.369,-131.26624"
       id="path859" />
    <path
       style="fill:none;stroke:#0066cc;stroke-width:5;stroke-linejoin:round;stroke-opacity:1"
       d="m 1753.5109,201.10765 1.0664,34.01446 127.2826,-6.01557 6.9039,-10.71807 6.3741,-1.24596 8.747,0.44964 10.281,4.79643 38.4606,81.55817 12.0281,17.74641 49.5294,69.88418"
       id="path861" />
  </g>
</svg>
