<?xml version="1.0" encoding="UTF-8" standalone="no"?>
<svg
   xmlns:dc="http://purl.org/dc/elements/1.1/"
   xmlns:cc="http://creativecommons.org/ns#"
   xmlns:rdf="http://www.w3.org/1999/02/22-rdf-syntax-ns#"
   xmlns:svg="http://www.w3.org/2000/svg"
   xmlns="http://www.w3.org/2000/svg"
   xmlns:xlink="http://www.w3.org/1999/xlink"
   viewBox="0 0 450 950"
   height="950"
   width="450"
   id="svg2"
   version="1.1">
  <metadata
     id="metadata8">
    <rdf:RDF>
      <cc:Work
         rdf:about="">
        <dc:format>image/svg+xml</dc:format>
        <dc:type
           rdf:resource="http://purl.org/dc/dcmitype/StillImage" />
        <dc:title></dc:title>
      </cc:Work>
    </rdf:RDF>
  </metadata>
  <defs
     id="defs6" />
  <image
     xlink:href="streetmap/qmeosm.png"
     width="530.5"
     height="1061"
     preserveAspectRatio="none"
     id="image10"
     x="0"
     y="-1"
     style="display:none" />
  <path
     id="path817"
     d="m 64,886.16949 -2.711864,-7.59322 48.000004,-66.71186 -1.35594,-4.33899 -25.762708,-4.33898 -2.711865,-5.15254 12.745763,-29.01695 30.1017,-39.86441 -6.23729,-4.61017 7.59322,-17.08474 3.79661,-3.52543 10.57627,-16.27118 8.94915,5.69491 116.88136,-161.62712 3.25423,-0.81356 23.86441,22.23729 3.25424,-0.54237 7.05085,-10.0339 9.76271,4.0678 5.15254,-7.59322 -1.08475,-2.44068 -4.06779,-2.71187 -4.88136,0.81356 -21.9661,-30.91525 2.98305,-7.05085 -6.50847,-5.42373 -7.32204,-10.0339 -4.33898,-8.67796 v -8.40678 l 11.11864,-128 2.44068,-4.61017 1.08475,-9.76271 21.69491,-41.76272 15.45763,-77.01694 -4.88136,-33.62712 1.35594,-9.22034 17.62711,-50.16949 18.1695,-36.33899 L 368,58.77966 l 5.15254,0.27118 4.0678,-5.15254"
     style="opacity:1;fill:none;fill-opacity:0.39607843;fill-rule:nonzero;stroke:#ff8800;stroke-width:5;stroke-linecap:butt;stroke-linejoin:round;stroke-miterlimit:4;stroke-dasharray:none;stroke-opacity:1" />
</svg>
