<?xml version="1.0" encoding="UTF-8" standalone="no"?>
<svg
   xmlns:dc="http://purl.org/dc/elements/1.1/"
   xmlns:cc="http://creativecommons.org/ns#"
   xmlns:rdf="http://www.w3.org/1999/02/22-rdf-syntax-ns#"
   xmlns:svg="http://www.w3.org/2000/svg"
   xmlns="http://www.w3.org/2000/svg"
   xmlns:xlink="http://www.w3.org/1999/xlink"
   version="1.1"
   id="svg2"
   width="3400"
   height="4300"
   viewBox="0 0 3400 4300">
  <metadata
     id="metadata8">
    <rdf:RDF>
      <cc:Work
         rdf:about="">
        <dc:format>image/svg+xml</dc:format>
        <dc:type
           rdf:resource="http://purl.org/dc/dcmitype/StillImage" />
        <dc:title></dc:title>
      </cc:Work>
    </rdf:RDF>
  </metadata>
  <defs
     id="defs6" />
  <image
     xlink:href="../timelines/streetmap/amsosm.png"
     y="-6225"
     x="-1060"
     id="image10"
     preserveAspectRatio="none"
     height="12882.474"
     width="11428"
     style="display:none;stroke-width:0.99169;stroke-miterlimit:4;stroke-dasharray:none" />
  <path
     id="path885"
     d="m 1775.5639,3054.8867 -39.5344,-20.2018 -41.7758,-40.3632 -26.2361,-12.9161 -27.2451,-0.8072 -31.2813,9.0817 -27.0434,14.3289 -132.5927,99.8986 -38.9504,38.7485 -117.8602,132.1892 -26.4379,21.1907 -28.2542,16.9524 -29.6668,12.5126 -134.8128,41.574 -26.8414,4.0363 -41.9777,-4.6417 -197.77913,-62.9665 -460.74476,-146.3162 -24.62148,-13.3198 -77.90079,-51.8667 -44.19759,-37.5376 -173.359499,-176.1849 -41.775806,-34.1068 -45.812115,-29.0614 -224.82245,-130.3729 -32.29048,-27.0432 -110.99852,-96.8715 -36.32678,-28.0523 -118.4657,-109.9894 -43.99577,-31.4832 -84.96432,-55.2975 -90.81697,-58.5266 -61.95735,-38.7485 -15.94343,-17.3562"
     style="opacity:1;fill:none;fill-opacity:1;fill-rule:nonzero;stroke:#f2f2f2;stroke-width:8.00002;stroke-linecap:butt;stroke-linejoin:round;stroke-miterlimit:4;stroke-dasharray:none;stroke-opacity:1" />
  <path
     style="opacity:1;fill:none;fill-opacity:1;fill-rule:nonzero;stroke:#f2f2f2;stroke-width:8.00002;stroke-linecap:butt;stroke-linejoin:round;stroke-miterlimit:4;stroke-dasharray:none;stroke-opacity:1"
     d="m 1758.5988,937.7055 31.2015,79.6112 138.8686,343.6744 20.9801,33.9678 76.927,104.901 13.4873,33.4682 72.9309,183.8252 6.9934,18.4826 9.491,64.9388 21.9792,65.438 94.9101,246.2672 35.4664,196.3139 -0.4996,263.7496 2.9972,23.9773 22.4787,58.944 14.4863,40.4624 v 27.9735 l -4.9953,21.9787 -10.9895,19.482 -16.4845,12.9869 -52.4503,24.9766 -18.4824,13.4872 -5.4948,13.9872 v 19.481 l 6.4938,22.4788 51.4513,100.4047 16.4843,41.7107 11.7389,9.2419 16.7341,2.2476 53.4494,-4.9955 31.2413,-8.6559 9.6054,-1.436 8.2364,3.8198 10.1613,8.0852 19.7588,55.3693 3.2648,19.5838 12.9619,33.8947 2.3439,67.604 8.4121,10.8976 127.2173,85.2527 5.8975,9.5222 0.5925,17.5862 -17.1864,96.7603 -5.5251,14.2656 -40.9255,62.7012 -7.2673,16.0343 -0.6741,13.0656 2.3972,18.2377 0.055,10.5224 -22.6335,54.1179 -8.5804,8.8304 -33.4952,20.3229 -15.5838,16.8864 -13.0819,22.0725 -8.2435,27.4099 -24.5007,144.0525 -7.4175,21.1931 -19.0739,19.7805 -24.0189,6.7108 -22.9592,-0.7069 -16.248,-4.5912 -14.1287,-7.7716 -60.0473,-44.152 -19.7802,-9.5363 -18.7207,-3.8853 -17.3076,1.7657 -36.0283,12.7157 -43.446,10.95 -22.2528,1.7657 -72.0566,48.7442 -19.7802,17.3079 -20.4867,45.5648 -13.0692,18.0147 -19.0737,13.0687 -99.6078,27.551 -20.8399,0.3539 -14.8351,-2.4725 -175.5498,-52.2766 -22.9592,-0.7069 -54.3957,11.6559 -57.2215,-14.4814"
     id="path4714" />
  <path
     style="opacity:1;fill:none;fill-opacity:1;fill-rule:nonzero;stroke:#f2f2f2;stroke-width:8.00002;stroke-linecap:butt;stroke-linejoin:round;stroke-miterlimit:4;stroke-dasharray:none;stroke-opacity:1"
     d="m 1775.5639,3054.8867 30.7209,12.987 41.211,9.4919 16.9839,0.2491 31.9696,-4.7455 15.9849,3.4971 10.9897,9.2408 21.9791,36.9653 15.4853,20.2312 18.982,26.225 15.2356,13.237 35.2167,16.235 48.4541,21.9787 40.7114,13.7372 46.9555,8.7416 18.2327,8.7417 17.983,3.9962 14.736,-0.2501 55.1978,-26.225 27.2242,-15.9848 27.2242,-20.2302 39.4625,-42.9601 18.4826,-9.4909 129.1276,-42.2099 86.9177,-55.697 20.9802,-25.7259 11.4891,-18.9818 10.9895,-9.2408 47.4551,0.9983 29.2223,3.4971 30.4711,9.741 28.7229,5.9938 19.9685,9.1258 111.9065,27.3403 27.9735,7.7424 60.9423,23.7272 21.2299,7.4933 39.7123,4.4954 55.947,-0.2501 36.7152,-13.237 77.6764,-40.2123 14.4864,-12.2377 13.7118,-25.4032 0.074,-23.3007 -7.0665,-29.9591 -22.2164,-78.7486 -11.8727,-13.0313 -19.7438,-16.118 -6.9631,-10.4479 -3.643,-11.0448 -41.0646,-157.9843 -3.9105,-21.1559 -4.2765,-10.948 -5.6516,-14.6588 -38.6774,-148.5287 v -15.1883 l 10.2434,-14.4824 13.0691,-7.7706 47.3313,-11.6559 46.9781,-17.3078 102.0802,-18.0138 10.9498,-4.9451 59.6939,-43.7991 43.5405,-31.7923 14.8563,-21.3152 4.3062,-19.8086 2.5837,-34.2336 6.4593,-62.6559"
     id="path4807" />
  <path
     id="path4811"
     d="m 1775.5639,3054.8867 -66.3286,-22.8509 -13.0691,-1.4128 -28.9639,11.6569 -77.7082,49.4501 -12.0094,17.3079 -26.1382,37.7941 -15.5416,10.9501 -33.2026,16.601 -50.5103,28.2579 -13.4223,14.4814 -9.5369,21.5471 -3.8854,33.5549 -4.9451,52.9835 v 37.0883 l 9.5369,33.202 13.7755,31.4363 24.3721,33.9089 19.7803,36.7354 5.2983,26.1383 6.0047,37.0873 12.7158,41.3265 13.4224,24.0187 55.8086,98.1953 6.3579,16.9549 1.0597,18.7206 -4.9451,15.8942 -8.4773,16.9549 -18.7206,20.4863 -9.8901,21.1932 -1.0596,19.0735 v 61.46 l -3.8854,20.4873 -10.9498,14.1284 -14.1288,10.2432 -14.482,4.5921 -24.7252,-4.5921 -41.3267,-13.7756 h -25.7849 l -10.9498,7.4177 -12.7158,14.1295 -15.1417,34.1458 -22.9885,51.7593 -16.1462,32.4235 -16.7813,29.6404 -9.5422,14.4733 -23.6039,21.4514 -38.7555,18.048 -34.2971,7.9753 -55.1553,1.2121 -43.041,-0.071 -20.018,5.6762 -14.1327,12.2639 -29.9888,47.4656 -6.1506,17.0921 4.4301,88.1014 -2.0981,17.2665 -11.6939,16.0484 -19.6297,11.8142 -82.45562,13.2804"
     style="opacity:1;fill:none;fill-opacity:1;fill-rule:nonzero;stroke:#f2f2f2;stroke-width:8.00002;stroke-linecap:butt;stroke-linejoin:round;stroke-miterlimit:4;stroke-dasharray:none;stroke-opacity:1" />
  <path
     style="opacity:1;fill:none;fill-opacity:1;fill-rule:nonzero;stroke:#f2f2f2;stroke-width:8.00002;stroke-linecap:butt;stroke-linejoin:round;stroke-miterlimit:4;stroke-dasharray:none;stroke-opacity:1"
     d="m 1034.6628,679.02539 17.1425,10.33592 25.4616,0.63024 30.5036,-10.84011 93.0486,-64.91463 212.7434,-161.34122 222.8526,-162.85379 72.6035,-52.43589 37.8144,-31.25986 233.4405,-254.112415 43.3605,-55.965235 211.2561,-320.66567 239.9951,-287.38904"
     id="path5092" />
  <path
     style="opacity:1;fill:none;fill-opacity:1;fill-rule:nonzero;stroke:#f2f2f2;stroke-width:8.00002;stroke-linecap:butt;stroke-linejoin:round;stroke-miterlimit:4;stroke-dasharray:none;stroke-opacity:1"
     d="m 1034.9149,726.16728 72.8556,-47.01584"
     id="path5096" />
  <path
     style="opacity:1;fill:none;fill-opacity:1;fill-rule:nonzero;stroke:#f2f2f2;stroke-width:8.00002;stroke-linecap:butt;stroke-linejoin:round;stroke-miterlimit:4;stroke-dasharray:none;stroke-opacity:1"
     d="m 1051.8053,689.36131 576.1293,318.17979 36.3648,15.3302 44.5645,13.5478 720.1646,86.6335 185.0324,23.5302 29.2344,7.8433 53.4775,20.3216 544.4016,221.754 774.5194,317.3763 34.285,10.588 h 37.8144 l 35.7976,-2.5209 41.3436,-12.1006 35.7976,-23.697 61.0072,-55.461 32.2682,-23.697 42.3521,-16.6383 78.6538,-18.1509 41.3437,1.0084 479.4859,52.94"
     id="path5098" />
  <path
     id="path5090"
     d="m 980.96638,614.741 53.69642,64.28439 8.3191,13.36107 1.0084,19.66346 -9.0754,14.11736 -85.20838,59.99876 -59.99876,56.46943 -34.7892,50.41913 -18.65508,54.4527 -9.57964,69.5783 3.52934,42.8563 11.09221,43.3605 22.68861,53.4442 55.96523,73.1078 288.90157,373.6057 63.024,102.3509 16.6383,53.4442 19.1592,76.6371 369.5723,1117.2879 10.6663,23.689 30.3215,32.7371 39.5577,26.2724 51.5728,22.6483 38.1476,8.8314 h 15.7181 l 298.8232,-33.556 105.9656,-7.4176 91.1305,-27.1981 51.695,-10.2089 22.6886,-1.0084 23.1928,6.5545 23.697,22.6886 85.7125,96.3006 55.4611,55.461 52.4359,62.0155 50.9233,69.5784 130.5855,244.5328 245.5412,472.4273 39.3269,66.049 32.7725,43.8647 49.4107,51.9317 477.4692,322.6824 413.941,279.322 25.2096,9.0754 143.6945,26.218 22.1844,9.5796 16.1341,18.1509 8.0671,25.7138 -1.0084,16.1341 -23.1928,92.267 -20.1676,47.8982 -68.57,123.5268 -67.0575,118.9892 -86.2167,159.8286 -22.1844,58.4862 -108.9053,343.3543 -9.0755,41.3437 v 44.3688 l 7.5629,46.8898 12.6048,38.3185 245.0369,599.9877"
     style="opacity:1;fill:none;fill-opacity:1;fill-rule:nonzero;stroke:#f2f2f2;stroke-width:8.00002;stroke-linecap:butt;stroke-linejoin:round;stroke-miterlimit:4;stroke-dasharray:none;stroke-opacity:1" />
  <path
     style="color:#000000;font-style:normal;font-variant:normal;font-weight:normal;font-stretch:normal;font-size:medium;line-height:normal;font-family:sans-serif;font-variant-ligatures:normal;font-variant-position:normal;font-variant-caps:normal;font-variant-numeric:normal;font-variant-alternates:normal;font-feature-settings:normal;text-indent:0;text-align:start;text-decoration:none;text-decoration-line:none;text-decoration-style:solid;text-decoration-color:#000000;letter-spacing:normal;word-spacing:normal;text-transform:none;writing-mode:lr-tb;direction:ltr;text-orientation:mixed;dominant-baseline:auto;baseline-shift:baseline;text-anchor:start;white-space:normal;shape-padding:0;clip-rule:nonzero;display:inline;overflow:visible;visibility:visible;opacity:1;isolation:auto;mix-blend-mode:normal;color-interpolation:sRGB;color-interpolation-filters:linearRGB;solid-color:#000000;solid-opacity:1;vector-effect:none;fill:none;fill-opacity:1;fill-rule:nonzero;stroke:#f2f2f2;stroke-width:8.00002;stroke-linecap:butt;stroke-linejoin:round;stroke-miterlimit:4;stroke-dasharray:none;stroke-dashoffset:0;stroke-opacity:1;color-rendering:auto;image-rendering:auto;shape-rendering:auto;text-rendering:auto;enable-background:accumulate"
     d="m 1077.2669,689.99155 35.8685,-26.51885 80.6903,-56.26462 0.5987,-0.58688 23.5237,-32.38642 18.1509,-16.48272 33.6528,-7.29696 32.8492,6.14679 178.9505,87.69188 0.3191,0.12998 36.2486,11.96264 21.4261,17.78263 176.8688,210.11779 42.1847,53.41869 0.2757,0.2974"
     id="path893" />
  <path
     style="opacity:1;fill:none;fill-opacity:1;fill-rule:nonzero;stroke:#ee2a23;stroke-width:5.00001;stroke-linecap:butt;stroke-linejoin:round;stroke-miterlimit:4;stroke-dasharray:none;stroke-opacity:1"
     d="m 1075.1193,582.55212 24.7252,-13.33405 19.9569,-7.85913 3.4439,1.85452 55.384,77.70969 87.9168,31.47021 2.9971,-0.99901 78.176,-57.94509 73.6802,-66.68686 7.1182,-23.72755 2.7214,-3.39532 25.1898,-20.95661 73.8523,-45.66128 3.2621,-2.54304 0.3746,-5.61972 -8.9915,-12.11349"
     id="path4732" />
  <path
     id="path879"
     d="m 3593.8414,2833.5961 -48.7039,33.2182 -39.9621,29.9721 -93.9111,45.4569 -18.982,7.2432 -28.4729,4.7455 -20.2309,3.9962 -73.1161,42.1948 -23.5423,22.494"
     style="opacity:1;fill:none;fill-opacity:1;fill-rule:nonzero;stroke:#f2f2f2;stroke-width:8.00002;stroke-linecap:butt;stroke-linejoin:round;stroke-miterlimit:4;stroke-dasharray:none;stroke-opacity:1" />
  <path
     id="path4813"
     d="m 3095.6195,2461.5877 -10.4199,-12.3628 -16.4247,-7.4177 -15.5421,1.4128 -83.183,21.7236"
     style="opacity:1;fill:none;fill-opacity:1;fill-rule:nonzero;stroke:#f2f2f2;stroke-width:8.00002;stroke-linecap:butt;stroke-linejoin:round;stroke-miterlimit:4;stroke-dasharray:none;stroke-opacity:1" />
  <path
     id="path4664"
     d="m 796.48944,715.41409 116.39145,-66.43709 0.41949,-0.19099 21.13862,-7.37581 49.78133,-41.05257 6.57647,-0.0353 21.7761,11.27977 9.7845,-0.21529 27.3917,-14.36169 27.4973,-15.91097"
     style="color:#000000;font-style:normal;font-variant:normal;font-weight:normal;font-stretch:normal;font-size:medium;line-height:normal;font-family:sans-serif;font-variant-ligatures:normal;font-variant-position:normal;font-variant-caps:normal;font-variant-numeric:normal;font-variant-alternates:normal;font-feature-settings:normal;text-indent:0;text-align:start;text-decoration:none;text-decoration-line:none;text-decoration-style:solid;text-decoration-color:#000000;letter-spacing:normal;word-spacing:normal;text-transform:none;writing-mode:lr-tb;direction:ltr;text-orientation:mixed;dominant-baseline:auto;baseline-shift:baseline;text-anchor:start;white-space:normal;shape-padding:0;clip-rule:nonzero;display:inline;overflow:visible;visibility:visible;opacity:1;isolation:auto;mix-blend-mode:normal;color-interpolation:sRGB;color-interpolation-filters:linearRGB;solid-color:#000000;solid-opacity:1;vector-effect:none;fill:none;fill-opacity:1;fill-rule:nonzero;stroke:#ee2a23;stroke-width:1;stroke-linecap:butt;stroke-linejoin:round;stroke-miterlimit:4;stroke-dasharray:none;stroke-dashoffset:0;stroke-opacity:1;color-rendering:auto;image-rendering:auto;shape-rendering:auto;text-rendering:auto;enable-background:accumulate" />
  <path
     id="path891"
     d="m 1051.8819,594.65362 7.8909,1.25079 8.768,16.81125 34.0979,44.97306 4.2539,4.82088 4.488,1.3964 1.7548,-0.4333 80.6903,-56.26462 0.5987,-0.58688 23.5237,-32.38642 18.1509,-16.48272 33.6528,-7.29696 32.8492,6.14679 178.9505,87.69188 0.3191,0.12998 36.2486,11.96264 21.4261,17.78263 176.8688,210.11779 42.1847,53.41869 0.2757,0.2974"
     style="color:#000000;font-style:normal;font-variant:normal;font-weight:normal;font-stretch:normal;font-size:medium;line-height:normal;font-family:sans-serif;font-variant-ligatures:normal;font-variant-position:normal;font-variant-caps:normal;font-variant-numeric:normal;font-variant-alternates:normal;font-feature-settings:normal;text-indent:0;text-align:start;text-decoration:none;text-decoration-line:none;text-decoration-style:solid;text-decoration-color:#000000;letter-spacing:normal;word-spacing:normal;text-transform:none;writing-mode:lr-tb;direction:ltr;text-orientation:mixed;dominant-baseline:auto;baseline-shift:baseline;text-anchor:start;white-space:normal;shape-padding:0;clip-rule:nonzero;display:inline;overflow:visible;visibility:visible;opacity:1;isolation:auto;mix-blend-mode:normal;color-interpolation:sRGB;color-interpolation-filters:linearRGB;solid-color:#000000;solid-opacity:1;vector-effect:none;fill:none;fill-opacity:1;fill-rule:nonzero;stroke:#ee2a23;stroke-width:1;stroke-linecap:butt;stroke-linejoin:round;stroke-miterlimit:4;stroke-dasharray:none;stroke-dashoffset:0;stroke-opacity:1;color-rendering:auto;image-rendering:auto;shape-rendering:auto;text-rendering:auto;enable-background:accumulate" />
  <path
     id="path883"
     d="m 1758.8745,938.0029 20.8913,18.6986 16.6624,8.2602 75.585,3.682 29.6246,4.5775 37.9373,2.5587 27.5923,-0.3187 39.0801,-2.8158 25.2036,-5.0019 49.3477,-17.6059 18.3491,-8.7032 88.3246,-47.14709 42.8614,-21.43055 35.0777,-7.0139 32.7563,3.01173 43.6637,15.277 c 0.039,0.0131 12.8684,3.37364 12.9088,3.38474 l 148.5368,39.44077"
     style="color:#000000;font-style:normal;font-variant:normal;font-weight:normal;font-stretch:normal;font-size:medium;line-height:normal;font-family:sans-serif;font-variant-ligatures:normal;font-variant-position:normal;font-variant-caps:normal;font-variant-numeric:normal;font-variant-alternates:normal;font-feature-settings:normal;text-indent:0;text-align:start;text-decoration:none;text-decoration-line:none;text-decoration-style:solid;text-decoration-color:#000000;letter-spacing:normal;word-spacing:normal;text-transform:none;writing-mode:lr-tb;direction:ltr;text-orientation:mixed;dominant-baseline:auto;baseline-shift:baseline;text-anchor:start;white-space:normal;shape-padding:0;clip-rule:nonzero;display:inline;overflow:visible;visibility:visible;opacity:1;isolation:auto;mix-blend-mode:normal;color-interpolation:sRGB;color-interpolation-filters:linearRGB;solid-color:#000000;solid-opacity:1;vector-effect:none;fill:none;fill-opacity:1;fill-rule:nonzero;stroke:#ee2a23;stroke-width:1;stroke-linecap:butt;stroke-linejoin:round;stroke-miterlimit:4;stroke-dasharray:none;stroke-dashoffset:0;stroke-opacity:1;color-rendering:auto;image-rendering:auto;shape-rendering:auto;text-rendering:auto;enable-background:accumulate" />
  <path
     id="path4662"
     d="m 2802.1263,862.52269 54.4535,-48.76549 18.2556,-5.77309 21.7826,-0.89191 17.4909,5.73306 117.6368,89.34624 8.4546,18.1478 3.8681,23.1125 -4.8847,24.4954 -48.0697,66.4012 -59.4036,83.27 -44.7844,32.727 -77.0808,73.2052"
     style="color:#000000;font-style:normal;font-variant:normal;font-weight:normal;font-stretch:normal;font-size:medium;line-height:normal;font-family:sans-serif;font-variant-ligatures:normal;font-variant-position:normal;font-variant-caps:normal;font-variant-numeric:normal;font-variant-alternates:normal;font-feature-settings:normal;text-indent:0;text-align:start;text-decoration:none;text-decoration-line:none;text-decoration-style:solid;text-decoration-color:#000000;letter-spacing:normal;word-spacing:normal;text-transform:none;writing-mode:lr-tb;direction:ltr;text-orientation:mixed;dominant-baseline:auto;baseline-shift:baseline;text-anchor:start;white-space:normal;shape-padding:0;clip-rule:nonzero;display:inline;overflow:visible;visibility:visible;opacity:1;isolation:auto;mix-blend-mode:normal;color-interpolation:sRGB;color-interpolation-filters:linearRGB;solid-color:#000000;solid-opacity:1;vector-effect:none;fill:none;fill-opacity:1;fill-rule:nonzero;stroke:#ee2a23;stroke-width:1;stroke-linecap:butt;stroke-linejoin:round;stroke-miterlimit:4;stroke-dasharray:none;stroke-dashoffset:0;stroke-opacity:1;color-rendering:auto;image-rendering:auto;shape-rendering:auto;text-rendering:auto;enable-background:accumulate" />
  <path
     style="color:#000000;font-style:normal;font-variant:normal;font-weight:normal;font-stretch:normal;font-size:medium;line-height:normal;font-family:sans-serif;font-variant-ligatures:normal;font-variant-position:normal;font-variant-caps:normal;font-variant-numeric:normal;font-variant-alternates:normal;font-feature-settings:normal;text-indent:0;text-align:start;text-decoration:none;text-decoration-line:none;text-decoration-style:solid;text-decoration-color:#000000;letter-spacing:normal;word-spacing:normal;text-transform:none;writing-mode:lr-tb;direction:ltr;text-orientation:mixed;dominant-baseline:auto;baseline-shift:baseline;text-anchor:start;white-space:normal;shape-padding:0;clip-rule:nonzero;display:inline;overflow:visible;visibility:visible;opacity:1;isolation:auto;mix-blend-mode:normal;color-interpolation:sRGB;color-interpolation-filters:linearRGB;solid-color:#000000;solid-opacity:1;vector-effect:none;fill:none;fill-opacity:1;fill-rule:nonzero;stroke:#ee2a23;stroke-width:1;stroke-linecap:butt;stroke-linejoin:round;stroke-miterlimit:4;stroke-dasharray:none;stroke-dashoffset:0;stroke-opacity:1;color-rendering:auto;image-rendering:auto;shape-rendering:auto;text-rendering:auto;enable-background:accumulate"
     d="m 2503.2772,926.8571 22.1021,2.8451 15.625,-1.0077 12.7019,-6.6612 30.803,-13.9105 0.7996,-0.2127 26.4759,-2.4974 1.0518,0.1242 20.4807,6.9917 0.518,0.2461 33.9522,21.1603 34.0112,2.9149 29.6371,-5.8298 15.3285,-10.0601 55.3621,-58.43731 5.7097,-18.79161 -4.7455,-20.98011 -10.2403,-13.23744 -15.2355,-7.74267 -74.9291,-13.23754 -41.2109,-10.49 -121.3851,-49.70298 -17.4834,0.24978 -19.4815,6.2441 -14.2366,12.98767 -26.7247,62.94042 -9.2412,10.24033 -65.6877,28.47299 -11.2394,10.98955 -6.9934,15.98489 -10.2403,34.21763 0.4995,25.4758 1.9981,38.7134 -3.4966,14.736 -19.2318,66.9365 0.4996,15.7351 4.9952,12.2385 9.2412,10.2403 12.4882,8.2422 96.4086,10.49 16.2347,-3.7464 14.2365,-8.9915 75.1788,-88.1665 3.4967,-11.2393 -4.246,-20.2309 -22.4787,-34.7171 -10.4901,-6.7435 -30.8181,-12.7832"
     id="path4603" />
  <path
     style="color:#000000;font-style:normal;font-variant:normal;font-weight:normal;font-stretch:normal;font-size:medium;line-height:normal;font-family:sans-serif;font-variant-ligatures:normal;font-variant-position:normal;font-variant-caps:normal;font-variant-numeric:normal;font-variant-alternates:normal;font-feature-settings:normal;text-indent:0;text-align:start;text-decoration:none;text-decoration-line:none;text-decoration-style:solid;text-decoration-color:#000000;letter-spacing:normal;word-spacing:normal;text-transform:none;writing-mode:lr-tb;direction:ltr;text-orientation:mixed;dominant-baseline:auto;baseline-shift:baseline;text-anchor:start;white-space:normal;shape-padding:0;clip-rule:nonzero;display:inline;overflow:visible;visibility:visible;opacity:1;isolation:auto;mix-blend-mode:normal;color-interpolation:sRGB;color-interpolation-filters:linearRGB;solid-color:#000000;solid-opacity:1;vector-effect:none;fill:none;fill-opacity:1;fill-rule:nonzero;stroke:#ee2a23;stroke-width:5.00001;stroke-linecap:butt;stroke-linejoin:round;stroke-miterlimit:4;stroke-dasharray:none;stroke-dashoffset:0;stroke-opacity:1;color-rendering:auto;image-rendering:auto;shape-rendering:auto;text-rendering:auto;enable-background:accumulate"
     d="m 592.15039,769.32393 -14.20099,4.58452 -24.09275,12.7158 -19.42709,7.06443 -99.96087,51.92313 -74.88239,48.74421 -90.42399,74.52918 -53.68931,24.3721 -20.13347,12.3626 -19.42699,11.303 -4.23864,7.7708 -8.83051,49.4507 4.23864,14.1287 -1.76608,5.6515 -29.67035,13.4223"
     id="path4674" />
  <path
     style="color:#000000;font-style:normal;font-variant:normal;font-weight:normal;font-stretch:normal;font-size:medium;line-height:normal;font-family:sans-serif;font-variant-ligatures:normal;font-variant-position:normal;font-variant-caps:normal;font-variant-numeric:normal;font-variant-alternates:normal;font-feature-settings:normal;text-indent:0;text-align:start;text-decoration:none;text-decoration-line:none;text-decoration-style:solid;text-decoration-color:#000000;letter-spacing:normal;word-spacing:normal;text-transform:none;writing-mode:lr-tb;direction:ltr;text-orientation:mixed;dominant-baseline:auto;baseline-shift:baseline;text-anchor:start;white-space:normal;shape-padding:0;clip-rule:nonzero;display:inline;overflow:visible;visibility:visible;opacity:1;isolation:auto;mix-blend-mode:normal;color-interpolation:sRGB;color-interpolation-filters:linearRGB;solid-color:#000000;solid-opacity:1;vector-effect:none;fill:none;fill-opacity:1;fill-rule:nonzero;stroke:#ee2a23;stroke-width:5.00001;stroke-linecap:butt;stroke-linejoin:round;stroke-miterlimit:4;stroke-dasharray:none;stroke-dashoffset:0;stroke-opacity:1;color-rendering:auto;image-rendering:auto;shape-rendering:auto;text-rendering:auto;enable-background:accumulate"
     d="m 796.48944,715.41409 -47.06696,24.77011 -3.08424,-0.33085 -12.23259,-19.89388 -0.18312,-0.17536 -5.99322,-3.37172 -0.21267,-0.0645 -6.99172,-0.49824 -0.16548,0.0161 -8.4925,2.24718 -0.0474,0.0161 -63.31544,23.72653 -0.0666,0.0313 -39.67159,21.83189 -16.81558,5.60519 -3.96174,6.72128 -13.23744,58.19487 -3.74644,2.24788 -95.65941,56.44654 -64.1892,60.19299 v 5.245 l 40.46165,54.1986 -0.24967,7.7427 -4.246,6.9933 -55.44753,37.7143 -0.24978,3.9963 4.74555,6.4938 -0.49955,4.7455 -24.47677,17.2336 -131.90209,137.1917 -9.71355,15.0118"
     id="path4668" />
  <path
     style="opacity:1;fill:none;fill-opacity:1;fill-rule:nonzero;stroke:#ee2a23;stroke-width:5.00001;stroke-linecap:butt;stroke-linejoin:round;stroke-miterlimit:4;stroke-dasharray:none;stroke-opacity:1"
     d="m 717.60846,716.61638 -4.66301,-2.76226 -16.10972,-30.22143 -2.24789,-11.48911 -61.33104,-71.81307 -5.10594,-0.61824 -8.24222,7.24311 -32.46922,7.49289 -15.7351,6.74366 -41.96031,22.72844 -147.61017,86.41808 -137.12007,85.41908 -153.6045,75.67831 -1.998112,5.49488 12.987662,25.22608 6.24411,15.9848 1.99811,16.2346 -1.24878,2.9973 -28.722771,2.7473 -15.235652,5.245 -0.999005,2.7474 5.245001,14.4864 7.992441,6.9933 38.713316,28.2232"
     id="path4676" />
  <path
     style="opacity:1;fill:none;fill-opacity:1;fill-rule:nonzero;stroke:#ee2a23;stroke-width:5.00001;stroke-linecap:butt;stroke-linejoin:round;stroke-miterlimit:4;stroke-dasharray:none;stroke-opacity:1"
     d="m 574.95121,834.24008 12.28462,3.95417 35.4985,-18.54406 5.73981,-6.44618 24.99024,-14.57033 32.31947,5.82815 13.24571,-6.71119 4.23864,1.05971 18.19072,26.13819 5.29834,0.88304 4.23864,-5.82815 89.01114,-49.80382 v -5.29834 l -23.89706,-46.21982 0.37946,-3.26736"
     id="path4678" />
  <path
     id="path887"
     d="m 1119.8014,561.35894 20.8639,-5.35532 16.6093,0.49955 3.2469,-8.8666 182.4259,-139.66281 h 4.2386 l 23.6657,40.97331 56.1618,69.93738 5.5114,-0.15226"
     style="opacity:1;fill:none;fill-opacity:1;fill-rule:nonzero;stroke:#ee2a23;stroke-width:5.00001;stroke-linecap:butt;stroke-linejoin:round;stroke-miterlimit:4;stroke-dasharray:none;stroke-opacity:1" />
  <path
     id="path4730"
     d="m 1533.5432,450.4786 72.9055,-70.4091 14.4818,-9.53698 4.9452,-7.06433 70.2905,-48.74421"
     style="opacity:1;fill:none;fill-opacity:1;fill-rule:nonzero;stroke:#ee2a23;stroke-width:5.00001;stroke-linecap:butt;stroke-linejoin:round;stroke-miterlimit:4;stroke-dasharray:none;stroke-opacity:1" />
  <path
     style="opacity:1;fill:none;fill-opacity:1;fill-rule:nonzero;stroke:#ee2a23;stroke-width:5.00001;stroke-linecap:butt;stroke-linejoin:round;stroke-miterlimit:4;stroke-dasharray:none;stroke-opacity:1"
     d="m 1150.2186,556.28597 3.2733,-2.58822 0.6852,-5.32859 1.5224,-1.1419 4.822,0.40931"
     id="path4600" />
  <path
     id="path895"
     d="m 639.58294,56.84042 -46.89201,49.32796 v 12.78871 l -64.55263,66.07518 4.26291,17.66061 v 30.75385 l -4.87189,27.40441 186.04555,241.15884 7.61234,7.91681 21.61904,3.04501 10.65727,3.95841 3.95842,-0.60897 19.18309,-11.26635 4.26291,2.13152 10.04829,16.44258 0.30448,8.52588 6.69887,3.04491 39.27967,64.24819 -7.00336,7.61228 15.83367,20.09656 4.26291,10.35286 8.22132,2.74038 5.78538,7.30785 12.78873,1.52246 16.74715,15.83372 34.40776,30.1448 44.76058,37.14821 1.21792,13.09324 22.83709,36.53925 17.9651,31.36281 8.5258,14.00674 6.3943,26.18638 100.4829,170.82089 11.8752,19.4876 16.1382,17.3561 28.0135,28.3179"
     style="opacity:1;fill:none;fill-opacity:1;fill-rule:nonzero;stroke:#ee2a23;stroke-width:5.00001;stroke-linecap:butt;stroke-linejoin:round;stroke-miterlimit:4;stroke-dasharray:none;stroke-opacity:1" />
  <path
     id="path897"
     d="m 790.91623,523.62899 7.61233,4.26294 -0.60898,7.30785"
     style="opacity:1;fill:none;fill-opacity:1;fill-rule:nonzero;stroke:#ee2a23;stroke-width:5.00001;stroke-linecap:butt;stroke-linejoin:round;stroke-miterlimit:4;stroke-dasharray:none;stroke-opacity:1" />
  <path
     id="path899"
     d="m 1178.5365,1080.8522 -7.3079,27.7089 -10.6572,20.7056 19.7921,183.0006 1.218,17.6606 6.6988,54.5044 4.2629,9.7441 9.7438,12.1792 4.5674,10.0485 3.3494,39.5841 4.263,7.9168 16.4426,16.4427 4.5674,8.5259 8.8303,22.5323 -0.3045,11.2666 v 23.446 l 1.827,35.3216 -1.827,4.8715 -15.2247,22.5323 -1.5224,17.6608 0.3045,8.5259 30.7538,47.5008 31.0583,51.7644 17.9652,35.6251 -0.3046,7.0032 -7.6122,10.3531 -45.9786,33.799 -1.5224,3.9579 10.3528,23.1413 7.9168,46.5883 -2.7405,6.0896 -9.7438,-0.9136 -77.6458,21.3152 -6.0899,-2.1317 -4.2629,2.4353 -1.5225,113.5761 3.3494,19.7925 -6.3943,19.7926 0.9135,11.5702 -1.5225,5.176 -18.8786,4.568 -4.2629,5.176 -6.3944,20.4016 10.3528,36.5387 19.4876,6.6987 62.4212,-16.7472"
     style="opacity:1;fill:none;fill-opacity:1;fill-rule:nonzero;stroke:#ee2a23;stroke-width:5.00001;stroke-linecap:butt;stroke-linejoin:round;stroke-miterlimit:4;stroke-dasharray:none;stroke-opacity:1" />
  <path
     id="path901"
     d="m 1186.4534,1089.378 10.3527,14.0067 7.9169,15.2247 3.0449,3.3494 8.2213,2.436 h 5.7854 l 8.2213,-5.7854 9.1348,-6.6989 4.5674,-0.6089 10.6573,0.6089 5.1764,1.827"
     style="opacity:1;fill:none;fill-opacity:1;fill-rule:nonzero;stroke:#ee2a23;stroke-width:1;stroke-linecap:butt;stroke-linejoin:round;stroke-miterlimit:4;stroke-dasharray:none;stroke-opacity:1" />
  <path
     id="path903"
     d="m 1259.5318,1113.7375 7.9168,4.2629 135.1951,119.666 7.0034,0.3044 24.664,-26.7954 112.0536,-122.1018 6.3943,-1.218 7.0035,1.218 6.0898,5.1763 63.0302,67.9021"
     style="opacity:1;fill:none;fill-opacity:1;fill-rule:nonzero;stroke:#ee2a23;stroke-width:5.00001;stroke-linecap:butt;stroke-linejoin:round;stroke-miterlimit:4;stroke-dasharray:none;stroke-opacity:1" />
  <path
     id="path905"
     d="m 1402.6437,1237.6664 0.609,7.3079 -93.4795,100.7873 -18.8786,10.9617 -21.619,52.3731 -4.8719,3.3488 -19.1831,9.135 -17.6606,39.2795 -3.654,5.7861 v 5.7851"
     style="opacity:1;fill:none;fill-opacity:1;fill-rule:nonzero;stroke:#ee2a23;stroke-width:5.00001;stroke-linecap:butt;stroke-linejoin:round;stroke-miterlimit:4;stroke-dasharray:none;stroke-opacity:1" />
  <path
     id="path907"
     d="m 1546.3647,1089.0736 6.3943,-6.3944 1.827,-5.7854 -8.5258,-21.3146 v -5.7854 l 3.6539,-7.6122 31.9718,-30.1449 33.7989,-57.8538 3.6539,-4.2629 14.3111,-7.6124 10.0484,-14.6157 31.6673,-42.93347 39.5842,-49.93702 7.0033,-9.7438 21.9235,-10.04823 4.263,-5.78539 0.6089,-3.95841 -1.827,-6.39435 -43.8471,-49.6325 -13.7022,-18.87853 -7.6122,-10.35286 -12.7888,-12.78872 -28.0134,-10.96172 -20.7056,-9.13484 -31.6673,-27.70894 -57.8537,-65.16158 -17.3562,-18.87864 -10.6573,-26.49091 0.9135,-5.7854 34.4078,-22.22798 -1.218,-6.69888 -19.1124,-31.77723 -6.6789,-10.90809 1.9477,-8.44958"
     style="opacity:1;fill:none;fill-opacity:1;fill-rule:nonzero;stroke:#ee2a23;stroke-width:5.00001;stroke-linecap:butt;stroke-linejoin:round;stroke-miterlimit:4;stroke-dasharray:none;stroke-opacity:1" />
  <path
     id="path909"
     d="m 580.81568,130.52788 1.82697,6.39435 11.87525,10.04833 1.82696,7.30785 5.48088,5.7853 20.40107,11.26635 6.39436,8.22124 6.39436,12.17975 11.87525,10.96183 9.7438,5.78539 23.1415,10.96173 10.04829,6.39435 7.30784,7.00332 5.48089,7.61238 4.5674,13.09324 1.21798,20.70553 3.34943,7.61238 11.26626,10.04823 8.22132,16.13815 9.43931,7.61238 3.04493,10.35277 41.71562,26.79544 11.57075,9.43927 7.00335,5.48086 9.74379,14.92023 46.58751,88.91212 35.93025,71.25151 16.74713,28.31791 5.78539,2.43595 31.36283,19.79203 26.49091,31.97187 v 6.39436 l -28.01338,19.18307 -9.74379,-10.04833 -9.13481,6.69888 -8.83031,-3.9584 -30.44936,18.87863"
     style="opacity:1;fill:none;fill-opacity:1;fill-rule:nonzero;stroke:#ee2a23;stroke-width:5.00001;stroke-linecap:butt;stroke-linejoin:round;stroke-miterlimit:4;stroke-dasharray:none;stroke-opacity:1" />
  <path
     id="path911"
     d="m 915.75857,572.95695 -37.14821,24.3595 -4.56739,7.91681 -14.00671,4.8719 -17.96512,11.87532"
     style="opacity:1;fill:none;fill-opacity:1;fill-rule:nonzero;stroke:#ee2a23;stroke-width:5.00001;stroke-linecap:butt;stroke-linejoin:round;stroke-miterlimit:4;stroke-dasharray:none;stroke-opacity:1" />
  <path
     id="path913"
     d="m 468.76206,216.39508 -2.43595,3.65388 7.00336,9.43937 -1.82697,15.83362 1.21798,9.7438 7.91683,13.70221 2.13146,9.13483 4.87189,8.52578 19.18309,8.52587 6.69886,5.17633 1.52247,7.61238 1.21797,7.91681 -7.91683,16.44269 -35.93024,48.10994 -1.52246,11.87521 3.65391,58.4628 15.52918,68.81556 14.61569,28.92686 16.13816,28.31791 7.91683,7.91681 12.48423,6.08992 29.53588,7.61228 14.92018,9.13484 13.39772,9.43927 44.45606,52.98193 13.7022,27.70885 9.4393,24.05506 11.26626,39.58416 25.31908,37.6763"
     style="opacity:1;fill:none;fill-opacity:1;fill-rule:nonzero;stroke:#ee2a23;stroke-width:5.00001;stroke-linecap:butt;stroke-linejoin:round;stroke-miterlimit:4;stroke-dasharray:none;stroke-opacity:1" />
  <path
     id="path915"
     d="m 297.63669,502.61894 38.06169,30.44942 25.88196,34.40773 1.21797,9.7438 -3.65392,20.70562 9.4393,17.35608 55.11333,90.43458"
     style="opacity:1;fill:none;fill-opacity:1;fill-rule:nonzero;stroke:#ee2a23;stroke-width:5.00001;stroke-linecap:butt;stroke-linejoin:round;stroke-miterlimit:4;stroke-dasharray:none;stroke-opacity:1" />
  <path
     id="path917"
     d="m 475.15643,674.96231 35.32125,11.26626 10.96176,-0.60896 31.36284,-4.26294 33.18979,62.72573 13.09323,-1.21802 2.43595,18.26967 7.30784,8.52578 44.63529,28.97385"
     style="opacity:1;fill:none;fill-opacity:1;fill-rule:nonzero;stroke:#ee2a23;stroke-width:5.00001;stroke-linecap:butt;stroke-linejoin:round;stroke-miterlimit:4;stroke-dasharray:none;stroke-opacity:1" />
  <path
     id="path919"
     d="m 582.64265,737.68805 14.92018,-2.13152 1.52247,7.30785"
     style="opacity:1;fill:none;fill-opacity:1;fill-rule:nonzero;stroke:#ee2a23;stroke-width:5.00001;stroke-linecap:butt;stroke-linejoin:round;stroke-miterlimit:4;stroke-dasharray:none;stroke-opacity:1" />
  <path
     id="path921"
     d="m 476.3744,375.64522 19.18309,35.62575 45.06505,34.40773 22.53252,66.98857 9.74379,15.83362 56.02682,66.37961 4.87189,0.30453 40.80213,-32.27631 h 3.34943 l 14.61569,18.26958 -1.82695,5.78539 3.34942,4.56737 h 5.78538 l 16.74714,24.3595 50.24143,3.04501 15.52918,23.75043 11.26626,8.22135 6.39437,8.52577 5.17639,3.34945 2.74044,7.61238 7.00335,0.60896 19.48759,-17.66061 8.52581,-3.34945 0.60899,-7.91681 6.69886,-4.56737"
     style="opacity:1;fill:none;fill-opacity:1;fill-rule:nonzero;stroke:#ee2a23;stroke-width:5.00001;stroke-linecap:butt;stroke-linejoin:round;stroke-miterlimit:4;stroke-dasharray:none;stroke-opacity:1" />
  <path
     id="path923"
     d="m 805.22743,662.78257 18.87859,-10.35277 10.35279,0.9135"
     style="opacity:1;fill:none;fill-opacity:1;fill-rule:nonzero;stroke:#ee2a23;stroke-width:5.00001;stroke-linecap:butt;stroke-linejoin:round;stroke-miterlimit:4;stroke-dasharray:none;stroke-opacity:1" />
  <path
     id="path925"
     d="m 692.56481,581.1783 5.78538,-0.30443 3.04494,3.9584 -1.52247,6.69879"
     style="opacity:1;fill:none;fill-opacity:1;fill-rule:nonzero;stroke:#ee2a23;stroke-width:5.00001;stroke-linecap:butt;stroke-linejoin:round;stroke-miterlimit:4;stroke-dasharray:none;stroke-opacity:1" />
  <path
     id="path927"
     d="m 976.65726,625.32992 38.36624,43.23804 -0.9135,36.84368 -34.71226,24.66403 -5.17643,15.22466"
     style="opacity:1;fill:none;fill-opacity:1;fill-rule:nonzero;stroke:#ee2a23;stroke-width:5.00001;stroke-linecap:butt;stroke-linejoin:round;stroke-miterlimit:4;stroke-dasharray:none;stroke-opacity:1" />
  <path
     id="path929"
     d="m 481.85528,366.20585 10.35278,-1.52246 9.74379,2.13152 5.48089,2.13142 10.35278,10.65729 16.74715,13.39768 1.52246,3.34944 -17.66062,32.88527"
     style="opacity:1;fill:none;fill-opacity:1;fill-rule:nonzero;stroke:#ee2a23;stroke-width:5.00001;stroke-linecap:butt;stroke-linejoin:round;stroke-miterlimit:4;stroke-dasharray:none;stroke-opacity:1" />
  <path
     id="path931"
     d="m 1142.0582,2915.863 43.4925,-20.2392 18.086,-4.3058 98.1811,-39.6174 54.2579,-23.2533 9.4737,-11.196 3.8755,-2.1529 37.4639,-3.8762 8.6123,2.1539 23.6841,-3.8763 6.4593,2.5835 3.4449,7.7514 -0.8612,21.1005 1.7225,6.0291 6.0286,12.9184 -0.4306,8.182 12.488,83.97 2.1531,42.2008 5.1674,10.3349 8.1817,3.4447 43.9232,19.3781 22.8228,27.1295 3.4449,2.5835 4.7369,-0.4306 43.0113,-31.3274 16.4427,-8.2214 12.1797,-2.7408 52.6774,3.6544 51.1549,18.5734 24.9685,12.4848 1.5224,4.2624 -4.2629,12.4848 -10.6572,20.4006 -16.1381,10.0485 h -12.4843 l -2.7405,3.3499 2.4359,28.6219 -1.8268,25.2731 0.3044,3.9579 3.9584,4.568 3.9585,0.9136 5.4809,-2.1317 46.2829,4.2634 32.5809,5.7851 32.2763,1.8272 111.4446,11.8747 22.837,-1.2181 21.3146,4.2634 5.1764,-10.0485 5.1764,-2.4363 7.9168,-6.6987 17.3562,-23.4459 6.6988,-5.7851 12.4842,-3.9589 30.7539,-3.0443 21.0101,4.8715 16.4425,-6.0896 12.7889,2.4352 26.4909,2.1318 h 20.0965 l 16.7471,-6.0897 11.8753,-5.176 22.837,-5.7861 31.0584,-13.7019 43.5426,-11.2666 16.7471,-12.1793 31.3628,-8.2213 17.6606,-7.9168 1.827,-3.959 -7.9168,-20.7051 3.0449,-8.8304 -4.5674,-15.8336 31.6674,-10.3531 6.3943,17.0518 23.7505,-7.0032 7.3078,3.9589 17.9652,55.4177 3.0449,18.2688 4.8719,15.5301 5.1764,1.8262 57.2448,-16.4427 28.0133,-18.5734 7.917,-1.5226 17.0515,-10.3531 32.5808,-17.6608 6.09,-7.3078 13.0931,-6.0896 154.3782,56.3313 29.2314,38.3659 17.0517,12.7893 15.8336,3.9579 1.827,4.2635 -6.6989,14.92 1.5226,4.2624 33.7987,66.6844 1.5225,7.9168 -8.8303,23.7504"
     style="opacity:1;fill:none;fill-opacity:1;fill-rule:nonzero;stroke:#0155a5;stroke-width:5.00001;stroke-linecap:butt;stroke-linejoin:round;stroke-miterlimit:4;stroke-dasharray:none;stroke-opacity:1" />
  <path
     id="path933"
     d="m 1457.7571,2709.5883 -26.1865,-2.1317 -38.0617,17.3562 13.3799,86.4094"
     style="opacity:1;fill:none;fill-opacity:1;fill-rule:nonzero;stroke:#0155a5;stroke-width:5.00001;stroke-linecap:butt;stroke-linejoin:round;stroke-miterlimit:4;stroke-dasharray:none;stroke-opacity:1" />
  <path
     id="path935"
     d="m 2000.3646,3177.5948 4.5674,2.7408 14.9202,16.1381 13.7022,2.1307 24.664,13.3984 20.5583,8.4765 40.7114,13.7372 16.6806,2.7549 24.0549,3.9579 38.3663,-34.4081 9.7438,-4.8715 98.0468,-27.4048 6.3945,-4.2624 5.7853,-15.8336 3.3494,-4.568 58.1583,-21.9232 1.827,-2.7408 -8.8303,-44.4556 -1.827,-19.1835"
     style="opacity:1;fill:none;fill-opacity:1;fill-rule:nonzero;stroke:#0155a5;stroke-width:5.00001;stroke-linecap:butt;stroke-linejoin:round;stroke-miterlimit:4;stroke-dasharray:none;stroke-opacity:1" />
  <path
     id="path1023"
     d="m 2456.8004,3108.7797 10.3527,24.663 -0.3044,39.8896 1.5225,23.1414 6.6988,28.0129 73.383,47.1963 5.4808,-0.609 12.7887,-10.3521 4.8719,-0.3045 110.5312,75.8182 51.1549,33.4945 22.5325,18.2699 34.1033,24.0549 9.1349,13.0929 7.3078,5.177 98.3514,35.9297 13.7022,11.5712 7.3079,-0.3046 49.3279,-11.8757 33.1898,1.8272 2.436,3.0453 -0.3046,14.9201 -3.0449,9.1349 1.5225,4.567 17.0516,7.0032 42.0201,2.1317 8.2214,1.8272 25.8819,13.3974 20.401,3.3498 11.8754,7.9168 2.4359,9.4395 -1.5225,3.6534 -16.4426,4.8714 -16.1382,17.0518 -1.827,6.6997 5.7854,23.7504 5.4809,3.0443 23.1415,2.7408 19.7921,10.3531 43.8471,9.743 h 15.2246 l 57.5493,-18.5734 18.8786,-2.7408 2.4359,-2.7408 -1.5224,-13.3974 -6.3944,-7.3077 18.8786,-92.871 -1.5224,-3.9579 -29.5359,-7.0033 v -6.6986 l 13.7022,-59.0721 9.1348,-4.568 28.3179,4.8725 13.0932,4.2625"
     style="opacity:1;fill:none;fill-opacity:1;fill-rule:nonzero;stroke:#0155a5;stroke-width:5.00001;stroke-linecap:butt;stroke-linejoin:round;stroke-miterlimit:4;stroke-dasharray:none;stroke-opacity:1" />
  <path
     id="path1025"
     d="m 2127.9473,3234.5351 -3.6538,54.8086 -5.4809,18.5744 6.0898,10.6576 12.1798,5.4806 22.5325,9.4395 20.7055,1.5216 22.5326,-4.5669 30.4493,-8.2214 35.0168,-20.4006 24.664,-15.5301 13.3976,-4.8715 4.8719,-10.0485 8.5259,-1.5227 10.3528,-9.4384"
     style="opacity:1;fill:none;fill-opacity:1;fill-rule:nonzero;stroke:#0155a5;stroke-width:5.00001;stroke-linecap:butt;stroke-linejoin:round;stroke-miterlimit:4;stroke-dasharray:none;stroke-opacity:1" />
  <path
     id="path1027"
     d="m 2311.2524,3271.3784 -2.4359,-7.3078 5.1764,-4.8715 h 9.7438 l 6.3944,1.2182 97.7424,-50.5462 23.446,-9.4395 15.0062,-0.9983 2.0455,-2.9596"
     style="opacity:1;fill:none;fill-opacity:1;fill-rule:nonzero;stroke:#0155a5;stroke-width:5.00001;stroke-linecap:butt;stroke-linejoin:round;stroke-miterlimit:4;stroke-dasharray:none;stroke-opacity:1" />
  <path
     id="path1029"
     d="m 2381.895,3124.9169 5.9436,11.8535 12.488,15.9325 32.2964,73.6361 -0.6459,7.7514 6.2439,17.6548 5.3828,1.9381 28.6361,-16.5788 3.0144,1.9381 -10.9808,18.5159 -13.1339,-8.8274"
     style="opacity:1;fill:none;fill-opacity:1;fill-rule:nonzero;stroke:#0155a5;stroke-width:5.00001;stroke-linecap:butt;stroke-linejoin:round;stroke-miterlimit:4;stroke-dasharray:none;stroke-opacity:1" />
  <path
     id="path1031"
     d="m 2375.9967,3100.1681 48.4446,-15.287 4.7367,2.7982 19.8085,-5.8133"
     style="opacity:1;fill:none;fill-opacity:1;fill-rule:nonzero;stroke:#0155a5;stroke-width:5.00001;stroke-linecap:butt;stroke-linejoin:round;stroke-miterlimit:4;stroke-dasharray:none;stroke-opacity:1" />
  <path
     id="path1033"
     d="m 2423.6106,3015.6042 2.9838,-8.2345 -8.1818,-21.7468 1.2918,-8.6126 6.244,-4.7363 33.5883,-15.5019 8.8277,-1.7233 7.3204,-10.1191 -2.5836,-8.1821 -13.1339,-4.3058 -24.5453,-17.4399 -52.3202,-30.789 -1.0765,-5.1679 27.129,-29.9278 6.8899,-6.8903 13.3491,-21.3152 16.5789,-18.3011 -4.0909,-31.4354 1.2919,-9.2589 21.3156,-33.1577 16.1482,-39.6163 16.7941,-28.2055 38.9711,-57.4878 8.8277,-18.3012 21.3156,-24.546 18.5166,-27.3443 0.8613,-27.9897 3.0143,-17.2252 1.9377,-2.3677 19.1626,4.3058 25.1912,-0.2148 16.3636,12.0572 19.8084,-25.6219"
     style="opacity:1;fill:none;fill-opacity:1;fill-rule:nonzero;stroke:#0155a5;stroke-width:5.00001;stroke-linecap:butt;stroke-linejoin:round;stroke-miterlimit:4;stroke-dasharray:none;stroke-opacity:1" />
  <path
     id="path1035"
     d="m 2332.5041,2695.8168 24.9759,8.181 38.971,-11.8414 17.8707,1.5075 15.9329,-1.5075 45.215,8.6126"
     style="opacity:1;fill:none;fill-opacity:1;fill-rule:nonzero;stroke:#0155a5;stroke-width:5.00001;stroke-linecap:butt;stroke-linejoin:round;stroke-miterlimit:4;stroke-dasharray:none;stroke-opacity:1" />
  <path
     id="path1037"
     d="m 2418.4126,2985.6229 -4.9521,-8.8273 -62.4398,-63.5161 -23.2534,-11.196 -49.5211,-91.0761 -6.6746,-20.0235 -6.0287,-37.2486 -2.799,-27.3443 -1.5072,-33.1577 1.7225,-31.2205 2.3684,-11.1961 3.6602,-3.8752 4.5215,-1.077 24.5453,1.9382 16.7941,-3.4447 45.215,-15.2871 2.3684,-6.6744 -35.7413,-97.5358 0.4306,-6.4587 10.5502,-14.426 0.8612,-4.9521 -5.3827,-11.1961 1.0765,-4.3058 32.727,-40.9091 4.5216,0.4306 38.7556,29.9278 v 6.4597 l -36.8179,46.5066 -23.4687,29.4972 -7.5359,3.4446 -2.1531,3.4457"
     style="opacity:1;fill:none;fill-opacity:1;fill-rule:nonzero;stroke:#0155a5;stroke-width:5.00001;stroke-linecap:butt;stroke-linejoin:round;stroke-miterlimit:4;stroke-dasharray:none;stroke-opacity:1" />
  <path
     id="path1039"
     d="m 2445.9722,2802.6106 1.2919,15.7176 -5.3828,25.621 2.799,4.9522 60.502,16.7946 19.5931,5.5975 5.5981,6.2439 -7.5359,7.5357 -11.196,26.4831 -2.1531,10.9813 2.5837,11.4109 -1.0765,5.8133 1.7224,23.4691 -1.0765,26.6989 -0.6459,15.9325 -2.3685,1.2917 -19.3778,-4.091 -13.9951,-5.5975 -6.4593,-0.2158 -18.9472,10.3349 -15.287,3.8762 -7.9664,-4.091"
     style="opacity:1;fill:none;fill-opacity:1;fill-rule:nonzero;stroke:#0155a5;stroke-width:5.00001;stroke-linecap:butt;stroke-linejoin:round;stroke-miterlimit:4;stroke-dasharray:none;stroke-opacity:1" />
  <path
     id="path1041"
     d="m 2434.5608,3011.4607 -3.6424,8.1024"
     style="opacity:1;fill:none;fill-opacity:1;fill-rule:nonzero;stroke:#0155a5;stroke-width:5.00001;stroke-linecap:butt;stroke-linejoin:round;stroke-miterlimit:4;stroke-dasharray:none;stroke-opacity:1" />
  <path
     id="path1043"
     d="m 2530.3735,2877.5374 85.2626,13.9954 -6.8899,37.2486 -0.4307,15.7177 3.2296,3.8752 43.2773,-4.3058 8.8277,-19.5929 4.7368,-1.7223 3.8755,1.5065 17.2248,15.9335 51.6742,37.2476 10.9808,6.4597 7.3206,10.3349 18.9472,13.1342 15.287,6.6745 11.6267,3.6604 76.6501,19.5929 1.9378,3.8752 -32.9423,83.3247 0.8612,4.091 5.1675,2.1529 -2.7991,8.182"
     style="opacity:1;fill:none;fill-opacity:1;fill-rule:nonzero;stroke:#0155a5;stroke-width:5.00001;stroke-linecap:butt;stroke-linejoin:round;stroke-miterlimit:4;stroke-dasharray:none;stroke-opacity:1" />
  <path
     id="path1045"
     d="m 2743.5298,3377.4865 0.4307,6.4587 -7.9665,12.0572 6.244,32.2975 -0.4306,11.195 -11.1962,41.1249 3.4451,8.181 35.526,41.3397 -0.646,4.9521 -56.6263,10.9813 -27.9903,105.501 -6.8899,6.2439 42.8466,53.1821 -33.1576,28.2055 -22.3922,12.9184 -20.6697,19.1623 -9.6889,4.091 -40.6935,12.273 -3.2297,3.2289 -3.4449,6.8902 -2.1531,28.4213 3.4449,29.9278 4.7368,3.4446 7.7512,1.7223 h 37.0332 l 11.1961,3.8763 10.3349,9.2579 4.9521,8.6126 3.0143,16.3631 6.6746,51.8903 -0.4306,9.0422 -24.5453,80.0958 0.2153,10.7655 4.9521,23.4681 v 12.9184 l -10.9807,161.0518"
     style="opacity:1;fill:none;fill-opacity:1;fill-rule:nonzero;stroke:#0155a5;stroke-width:5.00001;stroke-linecap:butt;stroke-linejoin:round;stroke-miterlimit:4;stroke-dasharray:none;stroke-opacity:1" />
  <path
     id="path1047"
     d="m 2769.5823,3530.1405 8.1817,7.3208 12.9186,6.0291 55.3346,44.5685 2.5837,9.0432 1.0765,9.0432 -1.9378,7.7504 -2.5837,10.1201 -5.3827,34.4494 2.799,48.2289 2.5837,29.0677 2.3684,2.5834 7.1052,-1.5075 122.5111,-67.607 10.5502,-7.5356 5.1674,-9.9044 3.2296,-4.9521 4.9522,-1.7224 5.1673,3.6605 10.7655,17.0094 4.9522,3.2288 8.6124,1.9381 44.7843,-1.2917 62.655,-30.5742 12.2726,-41.1238 -11.196,-46.2919 -3.8413,-3.8126"
     style="opacity:1;fill:none;fill-opacity:1;fill-rule:nonzero;stroke:#0155a5;stroke-width:5.00001;stroke-linecap:butt;stroke-linejoin:round;stroke-miterlimit:4;stroke-dasharray:none;stroke-opacity:1" />
  <path
     id="path1049"
     d="m 2734.0563,3488.8008 -12.488,-6.0281 -65.2388,-58.1333 -2.1531,-5.5985 -4.3062,-3.8752 -33.3729,6.0281 -15.5023,6.6745 -36.6026,13.5647 -24.7606,7.7515 -27.775,7.105 -16.5788,10.5497 -12.9185,11.4119 -43.2772,39.6173 -10.5501,6.2439 -12.9186,5.3828 -11.1961,1.2917 -13.3493,-3.6604 -24.3299,-16.5788 h -4.0908 l -41.1242,53.6117 -6.8899,13.9953 -3.6602,15.2871 -6.4593,59.6408"
     style="opacity:1;fill:none;fill-opacity:1;fill-rule:nonzero;stroke:#0155a5;stroke-width:5.00001;stroke-linecap:butt;stroke-linejoin:round;stroke-miterlimit:4;stroke-dasharray:none;stroke-opacity:1" />
  <path
     id="path1160"
     d="m 974.22131,745.30033 -3.04491,17.35618 -28.92688,21.31448 -3.95841,8.22135 -8.22134,8.52587 v 3.04491 l 10.65728,17.96515 41.10664,53.89532 3.34944,7.30785 0.60897,5.7854 18.2696,32.88526 4.5674,1.5225 7.3079,-3.6539 31.3628,14.9201 23.1415,3.0449 h 8.8303"
     style="opacity:1;fill:none;fill-opacity:1;fill-rule:nonzero;stroke:#ee2a23;stroke-width:5.00001;stroke-linecap:butt;stroke-linejoin:round;stroke-miterlimit:4;stroke-dasharray:none;stroke-opacity:1" />
  <path
     id="path1162"
     d="m 1004.0617,921.6021 -1.5225,4.5674 -47.50096,26.4909 -2.43595,5.1764 21.01006,36.8437 15.52919,7.3078 14.31116,25.5776 4.2629,26.7954 30.7539,52.9819 2.4359,8.8303 77.9503,85.8672 2.1316,5.1763 -2.436,6.6989 -36.8438,34.1033 -9.1347,4.8719 -35.0168,32.5808 h -8.2213 l -34.1033,-36.5392 -4.2629,-1.827 h -4.87187 l -22.22808,26.4909 -32.27631,34.4078 -29.53587,18.2696 -2.74044,3.9584 14.92018,24.664 24.055,42.0197 2.13144,7.3088 -1.52246,4.567 -45.36954,49.328 -101.39634,56.0268 -7.00336,2.4352 -8.83031,-7.0032 h -5.48089 l -45.06504,26.7958 -7.61234,6.3941 -17.96512,9.4395 -5.17639,8.5258 -55.41782,32.5809"
     style="opacity:1;fill:none;fill-opacity:1;fill-rule:nonzero;stroke:#ee2a23;stroke-width:5.00001;stroke-linecap:butt;stroke-linejoin:round;stroke-miterlimit:4;stroke-dasharray:none;stroke-opacity:1" />
  <path
     id="path1164"
     d="m 715.40183,1544.9003 v -7.6123 l -42.02011,-55.7222 -32.27631,-55.7222 -6.69886,-16.7472 -5.78538,-6.6987 -28.62239,-64.8574 -2.43595,-10.3528 -38.36618,-91.0435 -55.72233,-44.4561 v -7.3078 l 80.6908,-68.5112 9.43929,-9.7437 h 5.48089 l 49.93694,56.6357 4.8719,-1.2179 158.94562,-137.3266 8.83031,-14.3111 16.13816,0.9134 8.22133,-8.2213 21.92353,-11.2662 15.22468,3.9584 71.86047,-42.6292"
     style="opacity:1;fill:none;fill-opacity:1;fill-rule:nonzero;stroke:#ee2a23;stroke-width:5.00001;stroke-linecap:butt;stroke-linejoin:round;stroke-miterlimit:4;stroke-dasharray:none;stroke-opacity:1" />
  <path
     id="path1166"
     d="m 341.17927,1322.6201 162.29505,-138.24"
     style="opacity:1;fill:none;fill-opacity:1;fill-rule:nonzero;stroke:#ee2a23;stroke-width:5.00001;stroke-linecap:butt;stroke-linejoin:round;stroke-miterlimit:4;stroke-dasharray:none;stroke-opacity:1" />
  <path
     style="opacity:1;fill:none;fill-opacity:1;fill-rule:nonzero;stroke:#ee2a23;stroke-width:1;stroke-linecap:butt;stroke-linejoin:round;stroke-miterlimit:4;stroke-dasharray:none;stroke-opacity:1"
     d="m 825.7686,910.1477 11.19609,-3.8755 7.32052,-4.8445 6.78225,-6.78228 30.03567,-47.47576 7.8588,-9.68894 16.47117,-18.08595 24.63667,-18.67656"
     id="path912" />
  <path
     style="opacity:1;fill:none;fill-opacity:1;fill-rule:nonzero;stroke:#ee2a23;stroke-width:1;stroke-linecap:butt;stroke-linejoin:round;stroke-miterlimit:4;stroke-dasharray:none;stroke-opacity:1"
     d="m 836.96469,906.2722 -9.25831,9.3659"
     id="path914" />
  <path
     style="opacity:1;fill:none;fill-opacity:1;fill-rule:nonzero;stroke:#ee2a23;stroke-width:5.00001;stroke-linecap:butt;stroke-linejoin:round;stroke-miterlimit:4;stroke-dasharray:none;stroke-opacity:1"
     d="m 825.7686,910.1477 -10.2272,1.3995 -10.55017,-0.6459 -14.42573,-3.9833 -13.5645,-6.0286 -9.79657,-6.13628 -7.96645,-7.53585 -37.77906,-62.26873"
     id="path916" />
  <path
     style="opacity:1;fill:none;fill-opacity:1;fill-rule:nonzero;stroke:#ee2a23;stroke-width:5.00001;stroke-linecap:butt;stroke-linejoin:round;stroke-miterlimit:4;stroke-dasharray:none;stroke-opacity:1"
     d="m 827.70638,915.6381 -0.64593,3.122 -0.53827,6.0286 -15.17931,19.1626 -14.85635,16.7941 -14.31808,14.2104 -10.11955,8.2894 -7.10521,4.7368 -50.49007,27.3443 -31.00456,13.5646 -11.4114,10.4425 -78.43324,66.7918"
     id="path918" />
  <path
     style="opacity:1;fill:none;fill-opacity:1;fill-rule:nonzero;stroke:#00ffff;stroke-width:5.00001;stroke-linecap:butt;stroke-linejoin:round;stroke-miterlimit:4;stroke-dasharray:none;stroke-opacity:1"
     d="m 4130.3998,4648.0558 c 10.8688,13.7875 -7.527,32.3619 4.8519,42.8115"
     id="path880" />
  <path
     style="opacity:1;fill:none;fill-opacity:1;fill-rule:nonzero;stroke:#00ffff;stroke-width:5.00001;stroke-linecap:butt;stroke-linejoin:round;stroke-miterlimit:4;stroke-dasharray:none;stroke-opacity:1"
     d="m 2772.4181,3290.9302 c 25.2622,-14.5694 4.2061,-77.9099 33.9637,-89.3333"
     id="path882" />
  <path
     style="opacity:1;fill:none;fill-opacity:1;fill-rule:nonzero;stroke:#00ffff;stroke-width:5.00001;stroke-linecap:butt;stroke-linejoin:round;stroke-miterlimit:4;stroke-dasharray:none;stroke-opacity:1"
     d="m 4366.8961,4580.1879 c 9.9321,28.2192 -64.1554,23.4907 -70.2318,42.7849"
     id="path884" />
</svg>
