<?xml version="1.0" encoding="UTF-8" standalone="no"?>
<svg
   xmlns:dc="http://purl.org/dc/elements/1.1/"
   xmlns:cc="http://creativecommons.org/ns#"
   xmlns:rdf="http://www.w3.org/1999/02/22-rdf-syntax-ns#"
   xmlns:svg="http://www.w3.org/2000/svg"
   xmlns="http://www.w3.org/2000/svg"
   xmlns:xlink="http://www.w3.org/1999/xlink"
   viewBox="0 0 850 875"
   height="875"
   width="850"
   id="svg2"
   version="1.1">
  <metadata
     id="metadata8">
    <rdf:RDF>
      <cc:Work
         rdf:about="">
        <dc:format>image/svg+xml</dc:format>
        <dc:type
           rdf:resource="http://purl.org/dc/dcmitype/StillImage" />
        <dc:title></dc:title>
      </cc:Work>
    </rdf:RDF>
  </metadata>
  <defs
     id="defs6" />
  <image
     xlink:href="streetmap/skdosm.png"
     width="1039"
     height="1298.75"
     preserveAspectRatio="none"
     id="image10"
     x="-65"
     y="-288.75"
     style="display:none" />
  <path
     id="path836"
     d="m 208.89831,59.83051 -9.49153,22.03389 -3.72881,15.25424 77.28813,20.67797 109.49153,65.08474 39.32203,12.20339 26.1017,1.69492 23.05084,8.81356 74.91526,48.13559 31.86441,25.76271 20.33898,6.1017 49.83051,4.74576 36.94915,17.9661 14.57627,3.05085 92.54237,42.37288 5.42373,-3.05085 v -5.08474 l -2.0339,-3.38983 -4.40677,-2.0339 -5.42373,1.35593 -2.71187,7.79661"
     style="opacity:1;fill:none;fill-opacity:0;fill-rule:nonzero;stroke:#808000;stroke-width:5;stroke-linecap:butt;stroke-linejoin:round;stroke-miterlimit:4;stroke-dasharray:none;stroke-opacity:1" />
  <path
     id="path838"
     d="m 195.67797,97.11864 -15.59322,54.57627 -9.49153,60.67797 1.01695,112.20339 -50.50847,51.18644 -11.86441,17.28814 32.20339,241.01695 -53.55932,-2.0339 -2.71187,157.6271 -3.05085,5.4237 -0.67796,15.5933 -7.45763,5.7627"
     style="opacity:1;fill:none;fill-opacity:0;fill-rule:nonzero;stroke:#808000;stroke-width:5;stroke-linecap:butt;stroke-linejoin:round;stroke-miterlimit:4;stroke-dasharray:none;stroke-opacity:1" />
</svg>
