<?xml version="1.0" encoding="UTF-8" standalone="no"?>
<svg
   version="1.1"
   id="svg2"
   width="1075"
   height="775"
   viewBox="0 0 1075 775"
   xmlns:xlink="http://www.w3.org/1999/xlink"
   xmlns="http://www.w3.org/2000/svg"
   xmlns:svg="http://www.w3.org/2000/svg"
   xmlns:rdf="http://www.w3.org/1999/02/22-rdf-syntax-ns#"
   xmlns:cc="http://creativecommons.org/ns#"
   xmlns:dc="http://purl.org/dc/elements/1.1/">
  <metadata
     id="metadata8">
    <rdf:RDF>
      <cc:Work
         rdf:about="">
        <dc:format>image/svg+xml</dc:format>
        <dc:type
           rdf:resource="http://purl.org/dc/dcmitype/StillImage" />
      </cc:Work>
    </rdf:RDF>
  </metadata>
  <defs
     id="defs6" />
  <image
     width="1187"
     height="890.25"
     preserveAspectRatio="none"
     xlink:href="../timelines/streetmap/tciosm.png"
     id="image10"
     x="-40"
     y="-115.25"
     style="display:none;stroke-width:5;stroke-miterlimit:4;stroke-dasharray:none" />
  <path
     style="color:#000000;font-style:normal;font-variant:normal;font-weight:normal;font-stretch:normal;font-size:medium;line-height:normal;font-family:sans-serif;font-variant-ligatures:normal;font-variant-position:normal;font-variant-caps:normal;font-variant-numeric:normal;font-variant-alternates:normal;font-feature-settings:normal;text-indent:0;text-align:start;text-decoration:none;text-decoration-line:none;text-decoration-style:solid;text-decoration-color:#000000;letter-spacing:normal;word-spacing:normal;text-transform:none;writing-mode:lr-tb;direction:ltr;text-orientation:mixed;dominant-baseline:auto;baseline-shift:baseline;text-anchor:start;white-space:normal;shape-padding:0;clip-rule:nonzero;display:inline;overflow:visible;visibility:visible;opacity:1;isolation:auto;mix-blend-mode:normal;color-interpolation:sRGB;color-interpolation-filters:linearRGB;solid-color:#000000;solid-opacity:1;fill:none;fill-opacity:1;fill-rule:nonzero;stroke:#df020b;stroke-width:1;stroke-linecap:butt;stroke-linejoin:round;stroke-miterlimit:4;stroke-dasharray:none;stroke-dashoffset:0;stroke-opacity:1;color-rendering:auto;image-rendering:auto;shape-rendering:auto;text-rendering:auto;enable-background:accumulate"
     d="m 379.66234,669.61289 -8.25179,-0.23577 -1.88611,-2.59342 -9.12296,-32.06631 1.6355,-3.43811 11.95312,-4.99219 0.21094,-0.16797 5.58203,-7.69531 0.0527,-0.0937 23.84179,-54.39844 0.043,-0.20898 -0.59179,-42.74805 3.32617,-24.50586 0.004,-0.0781 -0.25195,-12.08203 -0.004,-0.0644 -3.3789,-22.17969 2.33594,-8.01172 -4.98607,-8.65281 -17.56452,-1.29672"
     id="path835" />
  <path
     style="color:#000000;font-style:normal;font-variant:normal;font-weight:normal;font-stretch:normal;font-size:medium;line-height:normal;font-family:sans-serif;font-variant-ligatures:normal;font-variant-position:normal;font-variant-caps:normal;font-variant-numeric:normal;font-variant-alternates:normal;font-feature-settings:normal;text-indent:0;text-align:start;text-decoration:none;text-decoration-line:none;text-decoration-style:solid;text-decoration-color:#000000;letter-spacing:normal;word-spacing:normal;text-transform:none;writing-mode:lr-tb;direction:ltr;text-orientation:mixed;dominant-baseline:auto;baseline-shift:baseline;text-anchor:start;white-space:normal;shape-padding:0;clip-rule:nonzero;display:inline;overflow:visible;visibility:visible;opacity:1;isolation:auto;mix-blend-mode:normal;color-interpolation:sRGB;color-interpolation-filters:linearRGB;solid-color:#000000;solid-opacity:1;fill:none;fill-opacity:1;fill-rule:nonzero;stroke:#012b73;stroke-width:1;stroke-linecap:butt;stroke-linejoin:round;stroke-miterlimit:4;stroke-dasharray:none;stroke-dashoffset:0;stroke-opacity:1;color-rendering:auto;image-rendering:auto;shape-rendering:auto;text-rendering:auto;enable-background:accumulate"
     d="m 440.25404,414.75053 -30.41373,31.12103 -5.64109,7.90188 -2.36719,8.11718 -0.0137,0.2168 3.39062,22.25391 0.25,12.01172 -3.32617,24.5039 -0.004,0.0742 0.58984,42.67774 -23.77539,54.25195 -5.46875,7.53711 -11.82227,4.93945 -24.42766,12.37823 -8.95908,9.19485"
     id="path825" />
  <path
     style="opacity:1;fill:none;fill-opacity:1;fill-rule:nonzero;stroke:#012b73;stroke-width:5;stroke-linecap:butt;stroke-linejoin:round;stroke-miterlimit:4;stroke-dasharray:none;stroke-opacity:1"
     d="m 440.25404,414.75053 57.99827,-62.00629"
     id="path827" />
  <path
     style="opacity:1;fill:none;fill-opacity:1;fill-rule:nonzero;stroke:#012b73;stroke-width:5;stroke-linecap:butt;stroke-linejoin:round;stroke-miterlimit:4;stroke-dasharray:none;stroke-opacity:1"
     d="m 328.2655,651.93048 -14.38169,17.68241 -6.8372,12.49556 -66.95736,33.95021"
     id="path837" />
  <path
     style="opacity:1;fill:none;fill-opacity:1;fill-rule:nonzero;stroke:#df020b;stroke-width:5;stroke-linecap:butt;stroke-linejoin:round;stroke-miterlimit:4;stroke-dasharray:none;stroke-opacity:1"
     d="m 382.60941,444.10331 -4.95107,-2.23976 -133.79684,-150.18254 -5.42261,-8.48756 -2.7113,-9.31273 -3.77225,-28.05608 -2.71129,-4.47953 -7.30874,-6.01202 -24.04806,-10.02003 -39.37281,-34.89328 -22.63349,-35.60056 -8.01601,-6.36567 -62.59571,-6.48355 -2.94706,-1.65036 -0.7073,-5.42259 25.46266,-74.97339"
     id="path839" />
  <path
     style="opacity:1;fill:none;fill-opacity:1;fill-rule:nonzero;stroke:#df020b;stroke-width:5;stroke-linecap:butt;stroke-linejoin:round;stroke-miterlimit:4;stroke-dasharray:none;stroke-opacity:1"
     d="m 379.66234,669.61289 22.95612,0.0256 29.67462,-6.66846 45.51217,-19.67193 3.00081,-4.5012 45.8456,-115.86435 5.50147,-6.0016 6.16832,-1.3337 11.33637,-1.16698 12.00321,-10.83623 28.34091,-36.00964 v 0 l 18.00482,-41.17769 4.3345,-3.1675 53.68103,-7.16859 7.83543,-14.67059 13.00348,-6.33503 67.51808,-25.50684 32.84212,-30.17473 116.86461,10.83623 14.17045,5.16805 45.34544,12.33663 10.0027,1.16698 34.3425,10.83623 1.8339,6.00161 -16.3377,33.50898 1.3337,13.5036 -3.0009,10.50282 -4.1677,6.33502 -9.3359,7.83543 -11.8365,24.17314"
     id="path841" />
</svg>
