<?xml version="1.0" encoding="UTF-8" standalone="no"?>
<svg
   xmlns:dc="http://purl.org/dc/elements/1.1/"
   xmlns:cc="http://creativecommons.org/ns#"
   xmlns:rdf="http://www.w3.org/1999/02/22-rdf-syntax-ns#"
   xmlns:svg="http://www.w3.org/2000/svg"
   xmlns="http://www.w3.org/2000/svg"
   xmlns:xlink="http://www.w3.org/1999/xlink"
   version="1.1"
   id="svg2"
   width="1075"
   height="1150"
   viewBox="0 0 1075 1150">
  <metadata
     id="metadata8">
    <rdf:RDF>
      <cc:Work
         rdf:about="">
        <dc:format>image/svg+xml</dc:format>
        <dc:type
           rdf:resource="http://purl.org/dc/dcmitype/StillImage" />
        <dc:title></dc:title>
      </cc:Work>
    </rdf:RDF>
  </metadata>
  <defs
     id="defs6" />
  <g
     id="g10">
    <image
       xlink:href="streetmap/tmposm.png"
       y="-50"
       x="-340"
       id="image12"
       style="display:none;image-rendering:optimizeSpeed"
       preserveAspectRatio="none"
       height="1287.1111"
       width="1448" />
    <path
       style="fill:none;stroke:#da2128;stroke-width:5;stroke-linejoin:round;stroke-miterlimit:4;stroke-dasharray:none;stroke-opacity:1"
       d="m 61.12817,167.90369 55.33608,7.68998 17.45665,-2.18133 4.63031,5.85644 4.52405,2.81603 142.1989,-22.44039 4.8043,-4.17557 49.18424,-0.47427 13.44155,-1.3058 42.69182,-0.81208 9.05017,-1.57207 10.66826,8.22116 106.97379,35.22586 86.41971,38.38362 13.60916,2.98825 1.47662,4.37865 -5.47565,14.3155 7.37738,24.03384 9.52076,16.79733 10.85005,6.37142 8.65297,0.91948 10.58611,-0.0706 2.8639,0.64562 2.3809,1.75941 20.4267,77.39155 9.9983,37.71182 9.7397,24.49341 4.9448,8.64011 11.5657,22.03554 30.3443,50.24519 5.5731,15.85383 2.2629,16.82918 -2.3966,55.11203 1.6726,11.26428 7.1306,10.13442 12.6338,10.78284 8.6217,9.89817 4.1044,10.03728 5.7903,24.81294 2.0276,17.47396 29.3339,134.60354 9.6315,31.902 12.768,30.94725 65.9712,115.78359 3.1778,3.9443 8.0724,1.9109 3.7712,3.3768 8.1536,19.1536 -0.046,13.7822 5.1175,11.0794 6.8095,6.1406 9.8222,4.128 9.8375,2.7093 6.7129,-0.5882 22.8956,-4.0717"
       id="path837" />
    <path
       style="fill:none;stroke:#da2128;stroke-width:5;stroke-linejoin:round;stroke-miterlimit:4;stroke-dasharray:none;stroke-opacity:1"
       d="m 404.44624,151.30463 11.54772,-7.65165 95.47699,-36.74946 5.74128,-5.62615 31.97467,-44.28534 5.42836,-0.96987 h 5.60814 l 4.21795,2.02217 3.17254,7.83538 17.61768,16.26562 5.59967,2.27037 h 7.35541 L 637.14226,72.80296 650.1172,61.2243"
       id="path839" />
    <path
       style="fill:none;stroke:#da2128;stroke-width:5;stroke-linejoin:round;stroke-miterlimit:4;stroke-dasharray:none;stroke-opacity:1"
       d="m 235.12796,167.62659 17.94214,22.32458 13.74747,19.41222 3.61493,13.15657"
       id="path841" />
  </g>
</svg>
