<?xml version="1.0" encoding="UTF-8" standalone="no"?>
<svg
   viewBox="0 0 1775 2425"
   height="2425"
   width="1775"
   id="svg2"
   version="1.1"
   xmlns:xlink="http://www.w3.org/1999/xlink"
   xmlns="http://www.w3.org/2000/svg"
   xmlns:svg="http://www.w3.org/2000/svg"
   xmlns:rdf="http://www.w3.org/1999/02/22-rdf-syntax-ns#"
   xmlns:cc="http://creativecommons.org/ns#"
   xmlns:dc="http://purl.org/dc/elements/1.1/">
  <metadata
     id="metadata8">
    <rdf:RDF>
      <cc:Work
         rdf:about="">
        <dc:format>image/svg+xml</dc:format>
        <dc:type
           rdf:resource="http://purl.org/dc/dcmitype/StillImage" />
      </cc:Work>
    </rdf:RDF>
  </metadata>
  <defs
     id="defs6" />
  <image
     y="-74.800003"
     x="-50"
     id="image10"
     xlink:href="../timelines/streetmap/vogosm.png"
     preserveAspectRatio="none"
     height="5344.7998"
     width="2227"
     style="display:none" />
  <path
     id="path817"
     d="m 367.76271,1863.2203 35.38983,-13.4237 19.52543,-11.3898 357.15254,-324.2034 62.64407,-52.8814 91.11864,-87.8644 89.08478,-143.5932 31.1186,-57.9661 3.661,-13.2203"
     style="opacity:1;fill:none;fill-opacity:1;fill-rule:nonzero;stroke:#c72225;stroke-width:1;stroke-linecap:butt;stroke-linejoin:round;stroke-miterlimit:4;stroke-dasharray:none;stroke-opacity:1" />
  <path
     id="path819"
     d="m 1057.4576,1158.678 4.678,-19.7289 44.7458,-90.5084 47.3898,-93.1526 3.4576,-12 19.3221,-146.2373"
     style="opacity:1;fill:none;fill-opacity:1;fill-rule:nonzero;stroke:#c72225;stroke-width:5;stroke-linecap:butt;stroke-linejoin:round;stroke-miterlimit:4;stroke-dasharray:none;stroke-opacity:1" />
  <path
     id="path821"
     d="m 1177.0509,797.0508 2.644,-22.3729 4.8814,-12 117.5593,-197.8983 35.3898,-61.0169 33.356,-47.5932 26.0339,-28.0678"
     style="opacity:1;fill:none;fill-opacity:1;fill-rule:nonzero;stroke:#c72225;stroke-width:1;stroke-linecap:butt;stroke-linejoin:round;stroke-miterlimit:4;stroke-dasharray:none;stroke-opacity:1" />
  <path
     id="path823"
     d="M 1396.9153,428.1017 1462,358.5424 l 56.5424,-54.3051 6.3051,-3.2543 19.9322,-6.3051 13.2203,-8.7457 9.9661,-9.7627 51.0509,-51.661 31.5254,-31.7289 8.1356,-12 58.5762,-121.016892"
     style="opacity:1;fill:none;fill-opacity:1;fill-rule:nonzero;stroke:#c72225;stroke-width:5;stroke-linecap:butt;stroke-linejoin:round;stroke-miterlimit:4;stroke-dasharray:none;stroke-opacity:1" />
  <path
     style="fill:none;stroke:#c72225;stroke-width:5;stroke-linejoin:round;stroke-miterlimit:4;stroke-dasharray:none;stroke-opacity:1"
     d="m 1177.7319,198.13662 60.7789,57.05595 -86.4421,91.88651 -25.4183,71.77742 -11.6627,43.84492 3.7889,5.16468 73.3898,39.56703 9.0134,8.33007 62.3982,33.7959 4.2607,-0.82106 47.853,-83.68753 7.7719,-2.1843 20.0581,13.631 6.843,-3.53626"
     id="path942" />
  <path
     style="fill:none;stroke:#c72225;stroke-width:5;stroke-linejoin:round;stroke-miterlimit:4;stroke-dasharray:none;stroke-opacity:1"
     d="m 716.54986,489.28007 0.3993,23.99487 -3.41069,5.46554 -300.49675,15.04043 -4.08295,5.88628 166.9512,370.07823 24.62596,37.79968 129.91773,215.0157 24.87463,27.6653 v 3.5251 l -91.71373,86.1913 v 3.8518 l 8.95806,8.5483 -0.20086,2.9182 -52.07,49.2275 41.34261,18.6198 20.96454,17.5575 16.22646,18.6311 9.58517,1.4593 4.03245,16.6257 42.23763,51.9468 -7.1293,7.7739 -7.68152,-7.1621 7.47248,-10.077"
     id="path1075" />
  <path
     style="fill:none;stroke:#c72225;stroke-width:5;stroke-linejoin:round;stroke-miterlimit:4;stroke-dasharray:none;stroke-opacity:1"
     d="m 341.87265,1184.4376 0.71125,11.7675 47.54914,38.8133 99.46161,64.1422 130.70711,45.3277"
     id="path1077" />
  <path
     style="fill:none;stroke:#c72225;stroke-width:5;stroke-linejoin:round;stroke-miterlimit:4;stroke-dasharray:none;stroke-opacity:1"
     d="m 693.66799,1393.6004 -5.09871,13.0777 -19.28588,7.2053 -19.49543,12.0595 -10.90426,14.4584 -61.1857,105.6905 -18.75751,34.8083 -19.63329,30.4581 -138.41033,133.9458 -20.37483,9.6693 -67.70352,-74.9933 -4.54664,-1.0395 -38.73778,36.5495 -5.87966,-1.5214 -32.19355,30.2059 -60.2687,69.83 1.5457,4.0735 8.82229,5.3868 -24.39446,53.2807 v 4.2667 l 4.18438,3.0949 16.56083,-1.9947 4.73607,3.3322 10.27389,101.8753 47.31888,25.8547 -13.29661,24.2754 -5.33735,23.829 -108.97138,179.3366 -21.96395,58.0353 -0.58459,10.4022 -22.19975,61.5125"
     id="path1107" />
  <path
     style="fill:none;stroke:#c72225;stroke-width:5;stroke-linejoin:round;stroke-miterlimit:4;stroke-dasharray:none;stroke-opacity:1"
     d="m 539.30721,1611.3582 83.12769,89.7246 56.65277,-50.4188 19.51816,21.063 29.28916,-30.88"
     id="path1109" />
</svg>
