<?xml version="1.0" encoding="UTF-8" standalone="no"?>
<svg
   xmlns:dc="http://purl.org/dc/elements/1.1/"
   xmlns:cc="http://creativecommons.org/ns#"
   xmlns:rdf="http://www.w3.org/1999/02/22-rdf-syntax-ns#"
   xmlns:svg="http://www.w3.org/2000/svg"
   xmlns="http://www.w3.org/2000/svg"
   xmlns:xlink="http://www.w3.org/1999/xlink"
   viewBox="0 0 875 1375"
   height="1375"
   width="875"
   id="svg2"
   version="1.1">
  <metadata
     id="metadata8">
    <rdf:RDF>
      <cc:Work
         rdf:about="">
        <dc:format>image/svg+xml</dc:format>
        <dc:type
           rdf:resource="http://purl.org/dc/dcmitype/StillImage" />
        <dc:title></dc:title>
      </cc:Work>
    </rdf:RDF>
  </metadata>
  <defs
     id="defs6" />
  <image
     xlink:href="streetmap/wz_osm.png"
     width="871.29999"
     height="1524.775"
     preserveAspectRatio="none"
     id="image10"
     x="19"
     y="-34.775024"
     style="display:none" />
  <path
     id="path836"
     d="m 93.665682,199.37429 -3.020185,-21.98024 -22.819174,11.2418 v 6.04037 l 13.087468,4.1947 33.557609,1.17452 h 65.10176 l 32.88646,4.36249 27.01388,-0.67115 32.04752,-7.55047 13.42304,-0.67115 20.13457,4.69807 3.85912,-32.88646 4.69807,-5.20143 67.11522,-36.57779 2.51682,1.84566 16.94659,38.42347 5.87258,3.35576 6.71152,-0.50337 58.55803,-19.79899 16.9466,-43.79268 2.51682,-11.91295 7.21488,1.17452 -2.34903,11.07401 -7.38267,-1.34231"
     style="opacity:1;fill:none;fill-opacity:1;fill-rule:nonzero;stroke:#00a3d3;stroke-width:5;stroke-linecap:butt;stroke-linejoin:round;stroke-miterlimit:4;stroke-dasharray:none;stroke-opacity:1" />
  <path
     id="path838"
     d="m 495.68585,105.41298 66.77964,18.62447 5.36922,-3.18797 3.85913,-24.83263 6.54373,-12.41632 -0.83894,-12.75189 11.91295,0.16779 29.69849,5.87258 12.41631,-4.69806 54.53112,10.06728 -6.54373,8.55719 -98.99495,-8.89277 -2.18125,1.67788"
     style="opacity:1;fill:none;fill-opacity:1;fill-rule:nonzero;stroke:#00a3d3;stroke-width:5;stroke-linecap:butt;stroke-linejoin:round;stroke-miterlimit:4;stroke-dasharray:none;stroke-opacity:1" />
  <path
     id="path840"
     d="m 448.7052,156.75612 1.84567,6.20816 -3.02019,52.51766 -23.32254,2.01346 -0.33557,26.00714 6.20815,17.61775 7.88604,8.22161 15.10093,30.36964 3.52355,20.30236 -67.4508,2.85239 -0.83894,31.20858 5.36922,30.70521 14.26198,64.09504 9.56392,25.00042 2.8524,18.12111 4.69806,10.40286 32.55088,26.6783 62.75273,65.77289 42.61817,26.175 17.28217,12.4163 20.9735,-1.3423 5.53701,6.7115 -21.30908,23.1547 -3.18798,13.0875 2.34904,9.5639 -1.34231,6.376 -12.08074,31.0408 -4.02691,13.2552 -1.17452,19.6313 2.51682,3.5235 4.02692,1.0067 18.12111,22.8192 3.02018,9.3961 v 10.2351 l -5.36922,18.4567 4.69807,19.2956 8.72498,16.611 10.23507,7.5505 15.26871,2.349 9.73171,5.3692 6.04037,10.2351 4.36249,15.9399 3.35576,6.5437 9.89949,8.5572 45.63835,18.9601 10.40286,7.3826 8.38941,9.8995 12.24852,21.4769 6.71153,20.6379 2.85239,22.8192 -1.3423,19.6312 -3.85913,15.7721 -5.537,10.9062 -4.36249,5.0336 -22.81918,15.9399"
     style="opacity:1;fill:none;fill-opacity:1;fill-rule:nonzero;stroke:#00a3d3;stroke-width:5;stroke-linecap:butt;stroke-linejoin:round;stroke-miterlimit:4;stroke-dasharray:none;stroke-opacity:1" />
  <path
     id="path842"
     d="m 731.76364,1065.3284 19.96678,19.4635 9.7317,15.1009 28.85955,55.0345 7.88604,18.7922 4.69806,13.2553 4.69807,18.96 0.83894,21.9803 1.3423,40.1013 -0.50336,10.0673 -2.51682,5.8726 -3.52355,4.5303 -3.52355,2.5168 -7.71825,2.349 -3.35576,2.6846 -2.01346,17.7855"
     style="opacity:1;fill:none;fill-opacity:1;fill-rule:nonzero;stroke:#00a3d3;stroke-width:5;stroke-linecap:butt;stroke-linejoin:round;stroke-miterlimit:4;stroke-dasharray:none;stroke-opacity:1" />
  <path
     id="path844"
     d="m 456.59124,320.0139 3.51046,12.10474 26.10169,46.0339 5.9322,22.0678 41.52543,98.71186 -5.45763,6.64407"
     style="opacity:1;fill:none;fill-opacity:1;fill-rule:nonzero;stroke:#00a3d3;stroke-width:5;stroke-linecap:butt;stroke-linejoin:round;stroke-miterlimit:4;stroke-dasharray:none;stroke-opacity:1" />
</svg>
