<?xml version="1.0" encoding="UTF-8" standalone="no"?>
<svg
   xmlns:dc="http://purl.org/dc/elements/1.1/"
   xmlns:cc="http://creativecommons.org/ns#"
   xmlns:rdf="http://www.w3.org/1999/02/22-rdf-syntax-ns#"
   xmlns:svg="http://www.w3.org/2000/svg"
   xmlns="http://www.w3.org/2000/svg"
   xmlns:xlink="http://www.w3.org/1999/xlink"
   viewBox="0 0 2200 2325"
   height="2325"
   width="2200"
   id="svg2"
   version="1.1">
  <metadata
     id="metadata8">
    <rdf:RDF>
      <cc:Work
         rdf:about="">
        <dc:format>image/svg+xml</dc:format>
        <dc:type
           rdf:resource="http://purl.org/dc/dcmitype/StillImage" />
        <dc:title></dc:title>
      </cc:Work>
    </rdf:RDF>
  </metadata>
  <defs
     id="defs6" />
  <image
     xlink:href="streetmap/xvsosm.png"
     width="2368"
     height="2583.2727"
     preserveAspectRatio="none"
     id="image10"
     x="-155"
     y="-78.272705"
     style="display:none" />
  <path
     id="path836"
     d="m 1308.9179,1532.8648 -2.8675,-7.6991 95.9268,-198.0378 21.5728,-12.0808 6.9033,-20.4222 -5.4651,-14.3818 39.1185,-81.1135 303.4567,-348.9033 6.0404,-10.3549 1.1505,-11.5055 -2.0134,-118.2186 90.8932,-107.5762 4.0269,-1.4381 5.7527,2.8763 4.0269,-0.2876 23.2986,-21.5728 35.0917,-9.2043 17.2582,-24.1615 5.538,-3.0373 11.3899,-8.5424 5.6949,-16.4746 -4.8814,-8.339 1.2204,-4.2712 20.5423,-17.2881 46.9831,-65.2881 3.661,-10.1695 -1.2203,-6.9152 9.7627,-22.7797 6.1017,-9.1525 13.0169,-34.7797 10.7797,-17.8983 9.7627,-13.4237 24.2034,-5.695 22.1695,-34.7796 -2.2373,-30.30511 -12.6102,-16.0678 -5.0847,-1.62711 -15.0509,-0.40678 -3.661,3.66101 -3.0508,-0.61017 -23.3899,-18.71186 v -6.30509 l 24.4068,-44.13559 19.5254,-77.49153 -2.4407,-3.05084 -36.4067,-16.0678 -25.017,-0.20339 -5.6949,2.44068 -12.4068,13.83051 -20.339,10.98305 -13.4237,-0.40678 -4.2712,-8.33898 -6.3051,-4.88136 h -4.6779 l -51.4577,60.40678 0.4068,9.55932"
     style="color:#000000;font-style:normal;font-variant:normal;font-weight:normal;font-stretch:normal;font-size:medium;line-height:normal;font-family:sans-serif;font-variant-ligatures:normal;font-variant-position:normal;font-variant-caps:normal;font-variant-numeric:normal;font-variant-alternates:normal;font-feature-settings:normal;text-indent:0;text-align:start;text-decoration:none;text-decoration-line:none;text-decoration-style:solid;text-decoration-color:#000000;letter-spacing:normal;word-spacing:normal;text-transform:none;writing-mode:lr-tb;direction:ltr;text-orientation:mixed;dominant-baseline:auto;baseline-shift:baseline;text-anchor:start;white-space:normal;shape-padding:0;clip-rule:nonzero;display:inline;overflow:visible;visibility:visible;opacity:1;isolation:auto;mix-blend-mode:normal;color-interpolation:sRGB;color-interpolation-filters:linearRGB;solid-color:#000000;solid-opacity:1;vector-effect:none;fill:none;fill-opacity:1;fill-rule:nonzero;stroke:#ef2756;stroke-width:5;stroke-linecap:butt;stroke-linejoin:round;stroke-miterlimit:4;stroke-dasharray:none;stroke-dashoffset:0;stroke-opacity:1;color-rendering:auto;image-rendering:auto;shape-rendering:auto;text-rendering:auto;enable-background:accumulate" />
  <path
     id="path836-3"
     d="m 1321.4394,2255.6186 19.8469,-86.2907 0.2876,-9.492 7.1909,-16.3952 -19.2716,-74.4977 0.2876,-8.3414 4.8898,-7.1909 6.3281,-4.3145 14.3817,-0.8629 33.6534,-16.6829 1.4382,-5.1774 -2.3011,-39.9814 4.6022,-14.0942 14.9571,-36.5296 -2.0135,-5.7528 -47.1723,-22.1479 -2.0135,-4.8898 10.9302,-48.6105 8.9168,-17.5458 2.5887,-9.2043 15.8199,-24.1614 0.2876,-4.8898 -3.164,-6.6157 -4.6021,-5.465 -17.5458,-10.9302 -5.4651,-7.4785 -3.4516,-12.3683 v -7.4785 l 5.7527,-24.4491 3.164,-8.6291 6.0404,-6.328 28.1883,-20.9973 6.0404,-7.191 10.93,-21.8602 0.2877,-3.164 -0.8629,-6.0404 -48.8981,-58.6777 -0.5752,-2.5887 -0.2877,-4.3146 12.0807,-15.5323 0.8629,-4.0269 -2.8763,-4.6022 -31.3523,-6.6156 -43.1454,-22.1479 -16.3958,-9.2064 -39.9815,4.3146 -12.0807,-5.4651 -24.4491,-25.3121 -5.1775,-0.2876 -54.0757,46.3095 -30.4895,32.5029 -15.2447,23.011 -11.5055,14.3818 -49.7611,52.9251 -16.3953,12.0808 -16.6829,6.9033 -48.6106,9.7796 -27.6131,2.5887 -69.6081,13.2313 -28.47604,9.492 -30.48948,11.5055 -22.43566,5.1775 -50.33642,8.3414 -30.77712,3.7393 -27.90076,9.7797 -17.2582,6.6156 -27.32548,13.8066 -219.17913,122.2455 -116.20521,79.1001 -55.22624,22.7233 -173.4449,111.3154 -0.86291,5.4651 9.49201,34.804 4.02691,3.164 63.28006,-10.0672 2.58873,2.301 2.58873,13.519"
     style="opacity:1;fill:none;fill-opacity:1;fill-rule:nonzero;stroke:#ef2756;stroke-width:5;stroke-linecap:butt;stroke-linejoin:round;stroke-miterlimit:4;stroke-dasharray:none;stroke-opacity:1" />
</svg>
