<?xml version="1.0" encoding="UTF-8" standalone="no"?>
<svg
   xmlns:dc="http://purl.org/dc/elements/1.1/"
   xmlns:cc="http://creativecommons.org/ns#"
   xmlns:rdf="http://www.w3.org/1999/02/22-rdf-syntax-ns#"
   xmlns:svg="http://www.w3.org/2000/svg"
   xmlns="http://www.w3.org/2000/svg"
   xmlns:xlink="http://www.w3.org/1999/xlink"
   id="svg2"
   viewBox="0 0 2250 975"
   height="975"
   width="2250"
   version="1.1">
  <metadata
     id="metadata19">
    <rdf:RDF>
      <cc:Work
         rdf:about="">
        <dc:format>image/svg+xml</dc:format>
        <dc:type
           rdf:resource="http://purl.org/dc/dcmitype/StillImage" />
        <dc:title></dc:title>
      </cc:Work>
    </rdf:RDF>
  </metadata>
  <defs
     id="defs6" />
  <image
     xlink:href="../timelines/streetmap/ytoosm.png"
     style="display:none"
     x="-3384"
     y="-1686.9728"
     width="6105"
     height="4639.7998"
     id="image12" />
  <path
     style="fill:none;stroke:#f2f2f2;stroke-width:8;stroke-linecap:butt;stroke-linejoin:round;stroke-miterlimit:4;stroke-dasharray:none;stroke-opacity:1"
     id="path3592"
     d="m -641.4996,858.89847 48.5,-55.00003 30.5,-34 7,-14 13.49999,-14 15.5,-5.5 114.99999,-34 76.5,-20 74.49999,-19 43,-8 13.5,0.5 36,14.5 32.49999,17.5 18,5 17,-1.5 12,-9 14.5,-15 150.49999,-46.5 151.49995,-49 77.5,-21.5 66,-18.5 73.5,-19.5 38,-9 106.5,-33 212,-65 24.5,-6.5 51.5,-15 70.5,-21.5 37.5,-12 20,-6 35,-1 95.5,-23.5 30,-0.5 21.5,-0.5 11,-3.5 6.5,-6 19.9999,-18 25.5,-10 61.5,-17 32,-21 92,-25 127,-35 83.5,-24.99994 237,-70.999996 101.5,-32 14,-5 30.5,-22 60.5,-46.5 70.5,-37 19,-14.5 11,-20 6,-30.000004 20,-168.5 5,-47 10.5,-31 21,-52 13,-49.99997 16,-24.5 23,-31 35,-52 28.5,-18.5 22,-10.5" />
  <path
     style="fill:none;stroke:#f2f2f2;stroke-width:8;stroke-linecap:butt;stroke-linejoin:round;stroke-miterlimit:4;stroke-dasharray:none;stroke-opacity:1"
     id="path2818"
     d="m 699.0003,-1339.6014 20.5,113.5 27,161 12.5,78.49997 26,123.49996 28.5,199 32.5,178.5 10,72.49997 30,202.5 2.5,48 1.5,56.5 2.5,21.000004 13.5,25.5 6,38.5 26,93.5 13.5,24 12,39.499996 21.5,73.99994 14.5,54 9,21 11,19.5 7,27 1.5,13.5 4,23 13.5,48.5 6.5,24.5 6,50.5 59.5,193 2.5,17 -3,10 -5.5,10 -5.5,4.5 -8,3 -31.5,7 -11.5,-2 -6.5,-7 -34,-84.5 -38,-130 -1.5,-20 2.5,-9 -5,-22 -11,-25.5 -14,-20.5 -7.5,-22.5 -3,-9.5 -9.5,-8.5 -14,-2.5 -12,-0.5 -66,19 h -8.5 l -6.5,-5.5 -34.5,-121.5 -25.5,-87 -9,-9.99997 -28.5,-14.49997 -11.5,-3 -13,-11 -13,-41.999996 -5.5,-17.5 -13,-16.5 -15.5,-13 -15.5,-5.5 -19,-3 -19.5,-5 -42,-5.5 -9,-5 -25.5,-23.5000004 -35.5,-38.4999996 -11,-33.5 -17,-64.000004 -12.5,-40 -7,-23 -19,-37 -20,-44.5 -18.5,-65.5 -42,-150.49997 -6,-29 -5,-32 -6.5,-44.5 -8,-35 -9.5,-33 -81,-105 -29.49996,-43 -14,-35.5 -4,-18.5" />
  <path
     style="fill:none;stroke:#f2f2f2;stroke-width:8;stroke-linecap:butt;stroke-linejoin:round;stroke-miterlimit:4;stroke-dasharray:none;stroke-opacity:1"
     id="path3594"
     d="m 743.5003,-1051.6014 267.5,-84.5 166.5,-48.5 74.4999,-14.5 24.5,-3.5 195,-63.5" />
  <path
     style="fill:none;stroke:#f2f2f2;stroke-width:8;stroke-linecap:butt;stroke-linejoin:round;stroke-miterlimit:4;stroke-dasharray:none;stroke-opacity:1"
     id="path3596"
     d="m 2379.0002,-605.10147 11.5,-5 3,-6 -12,-37 -32,-98.5 -36.5,-123 -1.5,-21.5 -23,-86.5 -48,-170.99993 v -7.5 l 2.5,-9 6,-5.5 11.5,-4.5 76.5,-22 24,-14 23,-6 63.5,-29 25,-6.5 26.5,-3 22.9999,2" />
  <path
     style="fill:none;stroke:#ef404a;stroke-width:1px;stroke-linecap:butt;stroke-linejoin:miter;stroke-opacity:1"
     id="path3602"
     d="m 864.0003,525.39844 -3.5,-2 -3.7692,-1.4038 -3.2308,-2.5962 -1,-5.5 2,-6 2.5,-3.5 -0.5,-3.5" />
  <path
     style="fill:none;stroke:#ef404a;stroke-width:1;stroke-linecap:butt;stroke-linejoin:round;stroke-miterlimit:4;stroke-dasharray:none;stroke-opacity:1"
     id="path3598-2"
     d="m 1102.2431,730.91554 19.9915,58.9777 2.5037,7.4966 -1.9999,4.9983 -14.9994,7.9973" />
  <path
     style="fill:none;stroke:#ef404a;stroke-width:5;stroke-linecap:butt;stroke-linejoin:miter;stroke-miterlimit:4;stroke-dasharray:none;stroke-opacity:1"
     id="path3600-2"
     d="m 1107.9052,810.53994 -17.1578,9.34133 -72.974,15.994 -56.4785,17.9931 -1.4962,-2.4991 -39.4868,-132.94933 -55.4786,-191.427 2.4961,-3.499 2.2518,-2.9984 -0.229,-6.4974 -2.4961,-4.4983 -3.7479,-1.9999 -3.5342,-1.8602 -2.7174,-2.6381 -22.4876,-78.4699 -9.4958,-24.4906" />
  <path
     style="fill:none;stroke:#ef404a;stroke-width:5;stroke-linecap:butt;stroke-linejoin:miter;stroke-miterlimit:4;stroke-dasharray:none;stroke-opacity:1"
     id="path3602-0"
     d="m 864.3372,526.99294 -3.5037,-1.9991 -3.7632,-1.4038 -3.2365,-2.5953 -0.9923,-5.4974 1.9923,-5.9975 2.5037,-3.4991 -0.5344,-3.4983" />
  <path
     style="fill:none;stroke:#ef404a;stroke-width:5;stroke-linecap:butt;stroke-linejoin:miter;stroke-miterlimit:4;stroke-dasharray:none;stroke-opacity:1"
     id="path3604-4"
     d="m 962.2948,853.36917 -17.4954,5.4975 -18.9916,2.4991 -20.9914,8.9966 -13.4956,11.4957 -4.496,0.9999 -11.4957,-6.9974 -2.9999,-4.9983 -17.9916,8.4966 -28.4873,1.9992 -26.9912,-5.9975 h -29.4873 l -14.4956,1.4992 -15.9917,-6.9974 -5.2517,-3.9983 -8.7706,-0.5649 -53.4557,19.561 h -5.496 l -0.5343,-2.4991 2.9999,-3.9983 49.4788,-16.9939 15.7474,4.2486" />
  <path
     style="fill:none;stroke:#ef404a;stroke-width:5;stroke-linecap:butt;stroke-linejoin:round;stroke-miterlimit:4;stroke-dasharray:none;stroke-opacity:1"
     id="path4538"
     d="m 669.1904,152.72542 -82.934,22.25817 -420.81313,129.29445 -90.64499,27.6706" />
  <path
     style="fill:none;stroke:#ef404a;stroke-width:5;stroke-linecap:butt;stroke-linejoin:round;stroke-miterlimit:4;stroke-dasharray:none;stroke-opacity:1"
     id="path4540"
     d="m 871.0392,872.00117 -0.458,-8.5874 -126.903,-435.09523 -4.7708,-18.606 2.3892,-3.8167 3.8167,0.9542 -2.3893,16.2207" />
  <path
     style="fill:none;stroke:#ef404a;stroke-width:5;stroke-linecap:butt;stroke-linejoin:round;stroke-miterlimit:4;stroke-dasharray:none;stroke-opacity:1"
     d="m 270.8738,556.17574 11.9308,-3.3396 11.4499,52.4779"
     id="path842" />
  <path
     style="fill:none;stroke:#ef404a;stroke-width:5;stroke-linecap:butt;stroke-linejoin:round;stroke-miterlimit:4;stroke-dasharray:none;stroke-opacity:1"
     id="path4601"
     d="m 2189.2042,296.17074 -614.9509,187.015 -248.081,76.8097 -60.9543,18.06019 13.3962,44.68222" />
  <path
     style="fill:none;stroke:#ef404a;stroke-width:5;stroke-linecap:butt;stroke-linejoin:round;stroke-miterlimit:4;stroke-dasharray:none;stroke-opacity:1"
     id="path4618"
     d="m 224.1201,696.91324 12.4041,-27.6706 25.7622,-17.1748 73.4703,-19.5603 10.0224,6.6791 63.9286,20.9915 4.2899,0.4771 13.8391,-13.3582 102.5682,-27.6706 7.6332,2.3854 127.3839,-37.6892 33.8688,4.7707 275.7516,-75.3777 85.4009,-24.331 14.3124,0.4733 148.3676,-43.4142 2.8625,1.9083 9.5415,31.0102 3.8167,2.3853 93.0342,-30.533 50.0894,-20.0373 381.1822,-116.8843 2.3893,-5.2479 -9.5416,-29.1018 1.4274,-6.6791 6.2058,-4.2937 28.1439,-5.725 14.3123,-17.6519 18.6099,-24.8081 33.8688,-29.1018 12.885,-6.202 18.6022,-16.22067 87.3093,-27.19347 1.9083,-5.2479 -21.4724,-66.313096 11.9308,-4.2937" />
  <path
     style="fill:none;stroke:#ef404a;stroke-width:5;stroke-linecap:butt;stroke-linejoin:round;stroke-miterlimit:4;stroke-dasharray:none;stroke-opacity:1"
     id="path4622"
     d="m 1370.5445,547.11124 -103.0491,84.9192 -208.4871,62.9745 -293.8806,84.4429 -195.6614,53.01724 -2.2654,5.00116 16.6737,62.93643 -1.0112,3.7078 -10.7864,2.6966 -2.3595,-7.4156 12.8088,-3.7079" />
  <path
     id="path4154"
     d="m 746.4875,130.572 213.5593,-59.586856 1.4301,0.47669 2.8602,7.62712 -14.7776,4.29025 -4.7669,-9.0572"
     style="fill:none;fill-rule:evenodd;stroke:#ef404a;stroke-width:5;stroke-linecap:butt;stroke-linejoin:round;stroke-miterlimit:4;stroke-dasharray:none;stroke-opacity:1" />
  <path
     id="path4156"
     d="M 666.8795,153.45336 748.871,130.09531"
     style="fill:none;fill-rule:evenodd;stroke:#ef404a;stroke-width:1px;stroke-linecap:butt;stroke-linejoin:miter;stroke-opacity:1" />
  <path
     style="fill:none;fill-rule:evenodd;stroke:#ef404a;stroke-width:5;stroke-linecap:butt;stroke-linejoin:round;stroke-miterlimit:4;stroke-dasharray:none;stroke-opacity:1"
     d="m 1327.5786,581.52539 4.2903,4.29026 1.9067,20.02118 17.161,49.57627"
     id="path4159" />
  <path
     style="fill:none;stroke:#ef404a;stroke-width:5;stroke-linejoin:round;stroke-opacity:1"
     d="m 294.2545,605.31404 41.5022,27.1935"
     id="path853" />
  <path
     style="fill:none;stroke:#ef404a;stroke-width:5;stroke-linejoin:round;stroke-opacity:1"
     d="m 413.9976,660.65524 108.1036,8.76521 116.1922,4.58687 164.1961,-46.64803 8.2128,-0.36729 13.1747,8.42586 4.1703,1.06818 145.6974,-42.49233 5.7636,0.39564 109.4813,-30.54793 14.8513,6.12716 62.2608,-19.81201 3.8905,-8.00858 6.9936,-4.62762 6.7108,-2.19399 8.7657,-0.26954 166.2762,-51.3861 24.9751,-3.19525 26.7726,-8.50778 -24.2019,-75.14017 5.2517,-18.129 0.9541,-11.927 -7.6333,-11.9269 -11.4498,-18.6061 -1.4351,-8.1104 -43.4104,-63.9285 -1.9083,-10.4958 1.9083,-11.4498 3.3358,-1.9084 4.2975,2.8625 -0.9542,2.8625 -7.6332,5.7249"
     id="path855" />
  <path
     style="fill:none;stroke:#ef404a;stroke-width:5;stroke-linejoin:round;stroke-opacity:1"
     d="m 918.8309,713.2235 15.7896,-4.69412 5.8694,20.13796"
     id="path857" />
</svg>
