<?xml version="1.0" encoding="UTF-8" standalone="no"?>
<svg
   xmlns:dc="http://purl.org/dc/elements/1.1/"
   xmlns:cc="http://creativecommons.org/ns#"
   xmlns:rdf="http://www.w3.org/1999/02/22-rdf-syntax-ns#"
   xmlns:svg="http://www.w3.org/2000/svg"
   xmlns="http://www.w3.org/2000/svg"
   xmlns:xlink="http://www.w3.org/1999/xlink"
   viewBox="0 0 2650 3300"
   height="3300"
   width="2650"
   id="svg2"
   version="1.1">
  <metadata
     id="metadata8">
    <rdf:RDF>
      <cc:Work
         rdf:about="">
        <dc:format>image/svg+xml</dc:format>
        <dc:type
           rdf:resource="http://purl.org/dc/dcmitype/StillImage" />
        <dc:title></dc:title>
      </cc:Work>
    </rdf:RDF>
  </metadata>
  <defs
     id="defs6" />
  <image
     style="display:none"
     y="55.23"
     x="-50"
     id="image10"
     xlink:href="../basemap/hajosm.png"
     preserveAspectRatio="none"
     height="3294.77"
     width="2677" />
  <path
     id="path4506"
     d="m 1284.78,888.98 14.1,32.27 11.66,37.42 4.07,32.54 -2.98,24.41 v 12.47 l -2.44,12.47 3.25,10.85 6.24,8.41 55.59,19.8 57.22,21.69 6.51,5.42 41.76,85.97 12.47,17.08 11.39,4.88 15.19,0.81 13.02,-4.88 10.31,-9.49 7.05,-12.75 5.42,-9.22 21.42,-8.95 166.24,-13.83"
     style="opacity:1;fill:none;fill-opacity:1;fill-rule:nonzero;stroke:#faaf18;stroke-width:5;stroke-linecap:butt;stroke-linejoin:round;stroke-miterlimit:4;stroke-dasharray:none;stroke-opacity:1" />
  <path
     id="path4508"
     d="m 1652.51,1541.19 -22.78,-41.76 -32.81,-68.61 -103.32,-226.98 -9.69,-14.13 -43.19,-88.11 1.36,-6.78 28.2,-38.24 23.62,-56.75 0.61,-6.66 -1.18,-11.1 -3.73,-10.78 -13.15,-11.46 -14.58,-4 -23.46,-2.03 -16.95,-4.07 -14.1,-7.86 -7.19,-7.59 -5.97,-8.68 -1.76,-9.63 5.29,-50.17 1.9,-24.41"
     style="opacity:1;fill:none;fill-opacity:1;fill-rule:nonzero;stroke:#ed1845;stroke-width:5;stroke-linecap:butt;stroke-linejoin:round;stroke-miterlimit:4;stroke-dasharray:none;stroke-opacity:1" />
  <path
     style="opacity:1;fill:none;fill-opacity:1;fill-rule:nonzero;stroke:#0072bc;stroke-width:5;stroke-linecap:butt;stroke-linejoin:round;stroke-miterlimit:4;stroke-dasharray:none;stroke-opacity:1"
     d="m 1633.8,806.0 -62.37,55.05 -7.59,11.12 -13.29,7.05 -8.68,8.95 -11.66,23.32 -11.12,19.25 -28.61,64.07 -24.0,58.51 -29.15,39.59 -2.71,13.97 -8.84,30.04 -7.29,14.57 -18.6,20.13 -21.29,8.25 -29.15,21.86 -24.16,24.74 -14.57,24.35 -27.04,33.75"
     id="path4510" />
  <path
     id="path4512"
     d="m 1334.68,1216.89 -7.1,1.53 -5.37,-0.58 -31.64,-21.09"
     style="opacity:1;fill:none;fill-opacity:1;fill-rule:nonzero;stroke:#0072bc;stroke-width:5;stroke-linecap:butt;stroke-linejoin:round;stroke-miterlimit:4;stroke-dasharray:none;stroke-opacity:1" />
  <path
     id="path4514"
     d="m 1318.68,1059.83 -15.25,-3.25 -13.42,-9.01 -27.61,-29.15 -20.71,-20.33 -37.2,-37.58 -20.33,-27.61 -55.99,-76.7 -4.41,-2.88 -20.71,-5.75"
     style="opacity:1;fill:none;fill-opacity:1;fill-rule:nonzero;stroke:#faaf18;stroke-width:5;stroke-linecap:butt;stroke-linejoin:round;stroke-miterlimit:4;stroke-dasharray:none;stroke-opacity:1" />
  <path
     id="path4541"
     d="m 1399.63,841.39 3.13,-29.11 9.01,-61.55 0.58,-20.71 -9.4,-106.81 -3.84,-66.35 -4.6,-41.8 -13.81,-167.79 -1.73,-43.34 -7.29,-54.84 -4.79,-51.77 1.73,-10.16 25.5,-67.5 4.6,-3.07 30.11,6.33 13.81,0.77 27.23,5.56 16.68,4.6 9.4,0.96 27.23,-1.92 33.37,1.92 26.27,8.05"
     style="opacity:1;fill:none;fill-opacity:1;fill-rule:nonzero;stroke:#ed1845;stroke-width:1;stroke-linecap:butt;stroke-linejoin:round;stroke-miterlimit:4;stroke-dasharray:none;stroke-opacity:1" />
  <path
     id="path4543"
     d="m 1406.4,661.36 2.3,-4.22 3.26,-1.53 40.46,-77.66 5.37,-23.59 7.09,-13.23 4.41,-2.3 54.46,2.49 5.75,-1.73 69.8,-130.78 6.71,-4.03 8.05,-0.58 8.25,2.68 211.32,65.77"
     style="opacity:1;fill:none;fill-opacity:1;fill-rule:nonzero;stroke:#ed1845;stroke-width:1;stroke-linecap:butt;stroke-linejoin:round;stroke-miterlimit:4;stroke-dasharray:none;stroke-opacity:1" />
  <path
     id="path4545"
     d="m 1652.51,1541.19 15.73,29.02 7.59,11.93 40.95,77.29 16.54,30.1 32.54,61.56 24.14,50.17 9.22,11.93 5.7,4.88 15.46,4.07 6.78,5.42 12.75,18.71 6.51,16.27 8.95,23.59 4.34,21.15 17.36,30.92 4.07,5.42 13.02,12.47 44.47,64 13.56,20.61 9.76,8.41 10.03,4.61 44.2,8.41 10.58,4.61 9.49,7.05 11.39,18.17 23.59,27.12 22.51,17.63 16.27,11.93 22.24,18.17 12.75,14.64 10.3,13.29 13.56,21.7 5.69,23.05 -0.27,18.17 2.44,17.08 v 23.32 l -11.93,60.75 -0.81,10.58 3.25,8.41 15.19,24.14 3.8,10.31 1.9,30.92 6.24,8.95 10.58,7.32 19.53,6.78 13.29,0.54 8.68,6.24 92.47,95.46 13.56,19.8 13.02,21.42 10.03,23.59 5.69,14.1 0.27,21.69 6.51,24.14 74.85,138.03 5.69,10.58 4.61,13.02 5.15,2.98 30.1,0.54 53.69,62.37 6.24,13.56 v 11.93 l -2.17,7.32 -19.8,42.03 -2.98,15.19 v 9.22 l -0.81,174.92 11.93,31.19"
     style="opacity:1;fill:none;fill-opacity:1;fill-rule:nonzero;stroke:#ed1845;stroke-width:1;stroke-linecap:butt;stroke-linejoin:round;stroke-miterlimit:4;stroke-dasharray:none;stroke-opacity:1" />
  <path
     id="path4547"
     d="m 2170.88,2384.03 h 5.15 l 7.05,-4.2"
     style="opacity:1;fill:none;fill-opacity:1;fill-rule:nonzero;stroke:#ed1845;stroke-width:1;stroke-linecap:butt;stroke-linejoin:round;stroke-miterlimit:4;stroke-dasharray:none;stroke-opacity:1" />
  <path
     id="path4549"
     d="m 2163.97,2369.39 -25.08,-40.68 -14.78,-14.64 -31.73,-50.71 -4.88,-12.75 -2.17,-11.66 -3.25,-3.53 -3.8,-15.46 -4.34,-3.8 -6.51,-2.71 -10.58,-1.08 -5.42,-2.98 -8.95,-14.92 -28.75,-44.75 -32.54,-72.41 -13.61,-17.18 -0.96,-6.33 -4.69,-4.69"
     style="opacity:1;fill:none;fill-opacity:1;fill-rule:nonzero;stroke:#ed1845;stroke-width:1;stroke-linecap:butt;stroke-linejoin:round;stroke-miterlimit:4;stroke-dasharray:none;stroke-opacity:1" />
  <path
     id="path4551"
     d="m 1765,1749.25 5,1.25 78.5,-40.75 10.5,-5.5 8.5,-2.25 69,3.5 30.5,0.75 33.75,4.75 6.75,5.75 21.75,41.5 15,36.25 v 9.5 l -8.25,14.25 v 4.25 l 3.5,2 16.5,-7.75 2.25,-4 -8,-11.5 -6,-6.75"
     style="opacity:1;fill:none;fill-opacity:1;fill-rule:nonzero;stroke:#ed1845;stroke-width:1;stroke-linecap:butt;stroke-linejoin:round;stroke-miterlimit:4;stroke-dasharray:none;stroke-opacity:1" />
  <path
     id="path4619"
     d="M 1633.8,806.0 1662,783.25 1680.75,776 1945,658.5 l 70,-46 48.75,-29.75 18,-6.75 48.25,-11.25 23,0.75 21.5,5.5 5,-0.75 12.25,-27 9,-12.25 186,-170.5 73.5,-70.25 3.25,-10 -17.5,-43 -3.25,-18.75 2.75,-18 11.25,-33.5 -0.25,-22 -1,-17.25"
     style="opacity:1;fill:none;fill-opacity:1;fill-rule:nonzero;stroke:#0072bc;stroke-width:1;stroke-linecap:butt;stroke-linejoin:round;stroke-miterlimit:4;stroke-dasharray:none;stroke-opacity:1" />
  <path
     id="path4621"
     d="m 1283.68,1284.58 -7.5,11.45 -3.71,7.78 1.59,9.02 12.37,31.47 0.71,13.44 -0.88,13.79 -8.84,21.74 -1.06,12.2 1.06,13.97 30.76,149.55 0.35,14.85 -2.65,4.95 -72.66,13.44 -10.61,-1.94 -19.09,-5.3 -8.31,-1.06 -82.73,17.5 -10.96,-0.88"
     style="opacity:1;fill:none;fill-opacity:1;fill-rule:nonzero;stroke:#0072bc;stroke-width:1;stroke-linecap:butt;stroke-linejoin:round;stroke-miterlimit:4;stroke-dasharray:none;stroke-opacity:1" />
  <path
     id="path4623"
     d="m 987.33,1693.25 4.07,15.03 v 7.42 l -4.77,26.52"
     style="opacity:1;fill:none;fill-opacity:1;fill-rule:nonzero;stroke:#0072bc;stroke-width:1;stroke-linecap:butt;stroke-linejoin:round;stroke-miterlimit:4;stroke-dasharray:none;stroke-opacity:1" />
  <path
     style="opacity:1;fill:none;fill-opacity:1;fill-rule:nonzero;stroke:#0072bc;stroke-width:5;stroke-linecap:butt;stroke-linejoin:round;stroke-miterlimit:4;stroke-dasharray:none;stroke-opacity:1"
     d="m 987.33,1693.25 -3.36,-13.44 -1.59,-14.67 3.18,-16.26 6.01,-13.26 20.68,-22.1 10.78,-7.25 11.31,-3.18 15.56,-1.94 18.74,5.3 32.88,4.07"
     id="path4625" />
  <path
     id="path4665"
     d="m 2011.04,615.09 1.06,-5.3 -10.61,-70.71 -11.49,-37.48 -5.83,-10.61 -4.07,-12.55 -2.83,-1.06 -13.26,-1.59 -5.48,-3.18 -5.48,-7.07 -2.47,-19.98 1.06,-9.37 5.13,-7.78 15.38,-9.55 11.31,-12.73 5.83,-11.84 1.77,-13.61 10.96,-28.11 4.77,-28.11 18.38,-91.39 v -4.77 l -2.12,-1.77 -6.19,-1.41"
     style="opacity:1;fill:none;fill-opacity:1;fill-rule:nonzero;stroke:#0072bc;stroke-width:1;stroke-linecap:butt;stroke-linejoin:round;stroke-miterlimit:4;stroke-dasharray:none;stroke-opacity:1" />
  <path
     id="path4707"
     d="m 1290.58,1196.75 -5.38,-1.66 -25.81,8.31 -1.94,5.66 -45.25,13.97 h -7.78 l -31.47,-11.31 -17.5,3.01 -23.86,-1.59 -120.03,30.76 -1.41,3.18 6.89,58.69 -4.07,4.6 -78.84,12.73 -8.49,0.18 -59.4,12.02 -2.65,3.89 -6.19,28.28 -3.18,2.65 -59.04,25.46 -6.89,6.54 v 3.01 l 4.6,15.73 -0.71,7.07 -6.19,21.39 2.83,42.25 4.42,18.74 -1.24,8.49 -11.84,41.19 -3.01,1.94 -4.6,7.25 -9.37,1.77"
     style="opacity:1;fill:none;fill-opacity:1;fill-rule:nonzero;stroke:#0072bc;stroke-width:1;stroke-linecap:butt;stroke-linejoin:round;stroke-miterlimit:4;stroke-dasharray:none;stroke-opacity:1" />
  <path
     id="path4751"
     d="M 1103.04,847.56 1030.11,831.29 972.12,824.92 964,823.5 947.25,822.75 940.5,819 l -7.25,-7 -11.5,-3.5 -37.5,-17.75 -89,-75.25 -87.5,-75.25 -15.25,-19.75 -16.25,-18.75 -27.75,-20.25 -65,-79 -6.25,-3.75 -17.75,-8.25 -6.25,-5.25 -19.75,-21.5 -27.25,-16 -9.25,-4.25 -11,-1.5 -10.5,4.25 -12.75,11 L 447,464 352.25,501.5 H 339.5 l -9.25,-5.75 -8,-8 L 298.5,436 293,427 290.25,425.25 H 285 l -28.5,29 -18.25,6.5 -15,2.25 -12,-0.75 -47.5,-10.5 -19.25,-2.75 -15.5,0.25 -14,-5.5 -15.25,-4.5"
     style="opacity:1;fill:none;fill-opacity:1;fill-rule:nonzero;stroke:#faaf18;stroke-width:1;stroke-linecap:butt;stroke-linejoin:round;stroke-miterlimit:4;stroke-dasharray:none;stroke-opacity:1" />
  <path
     id="path4753"
     d="m 691.58,619.15 v -2.47 l 1.06,-3.89 15.73,-12.02 11.67,-19.45 9.9,-26.34 8.13,-18.21 15.56,-25.46 2.47,-7.25 5.3,-4.07 13.97,-9.37 1.59,-3.71 -0.71,-3.01 -13.61,-0.35 -5.83,4.07 -1.06,4.07 v 12.2"
     style="opacity:1;fill:none;fill-opacity:1;fill-rule:nonzero;stroke:#faaf18;stroke-width:1;stroke-linecap:butt;stroke-linejoin:round;stroke-miterlimit:4;stroke-dasharray:none;stroke-opacity:1" />
  <path
     id="path4755"
     d="M 1284.78,888.98 1265,839.25 l -15,-26.5 -5.5,-13.25 -6.25,-31.25 -12.75,-18.5 -24.25,-30.75 -6.5,-20.25 -1.75,-19.25 -4.75,-42.5 -61.75,-115.75 -50,-54.5 -28,-31.5 -56.75,-56 -14.75,-16.5"
     style="opacity:1;fill:none;fill-opacity:1;fill-rule:nonzero;stroke:#faaf18;stroke-width:1;stroke-linecap:butt;stroke-linejoin:round;stroke-miterlimit:4;stroke-dasharray:none;stroke-opacity:1" />
  <path
     id="path4757"
     d="m 1266.1,842.25 -3.54,-2.47 -49.14,-19.8 -7.78,-0.71 -8.13,-3.01"
     style="opacity:1;fill:none;fill-opacity:1;fill-rule:nonzero;stroke:#faaf18;stroke-width:1;stroke-linecap:butt;stroke-linejoin:round;stroke-miterlimit:4;stroke-dasharray:none;stroke-opacity:1" />
  <path
     id="path4759"
     d="m 1742.27,1156.37 28.23,-2.62 60.75,-6 31.5,-14.75 162.5,27 h 8.25 l 15.38,2.26 4.76,-1.27 16.86,-22.24 8.5,-17.25 5.25,-21.75 8.75,-73 4,-46.5 -3.25,-18.5 -8.5,-27.5 -0.25,-13.25 5,-14.5 10.75,-11 12.75,-4.75 32.75,-9.75 43.75,-19"
     style="opacity:1;fill:none;fill-opacity:1;fill-rule:nonzero;stroke:#faaf18;stroke-width:1;stroke-linecap:butt;stroke-linejoin:round;stroke-miterlimit:4;stroke-dasharray:none;stroke-opacity:1" />
  <path
     id="path4804"
     d="m 1723.75,1672.5 4.25,2.25 6,-2.75"
     style="opacity:1;fill:none;fill-opacity:1;fill-rule:nonzero;stroke:#ed1845;stroke-width:1;stroke-linecap:butt;stroke-linejoin:round;stroke-miterlimit:4;stroke-dasharray:none;stroke-opacity:1" />
  <path
     id="path4806"
     d="m 1741,1156.62 4.12,3.62 3.12,29.12 -2.25,14.12 5.5,34 v 9.75 l 1,4 71.25,49.25 20,12 28.5,12.75 39,18.75 13.75,12 29,29.75 9.25,14.25 9.25,9 34.5,23.25 43.75,33.25 16.75,10.75 57.25,36 43.25,25 41.75,10.75"
     style="opacity:1;fill:none;fill-opacity:1;fill-rule:nonzero;stroke:#faaf18;stroke-width:1;stroke-linecap:butt;stroke-linejoin:round;stroke-miterlimit:4;stroke-dasharray:none;stroke-opacity:1" />
  <path
     id="path4808"
     d="m 2209.75,1548 10.75,4.75 13.25,6.5 35.25,0.5 23,5.75 h 7.75 l 31.75,-9.75 11.25,1 10.25,7.75 4,10 0.25,8.5 -3.75,9 -31.5,64.75"
     style="opacity:1;fill:none;fill-opacity:1;fill-rule:nonzero;stroke:#faaf18;stroke-width:5;stroke-linecap:butt;stroke-linejoin:round;stroke-miterlimit:4;stroke-dasharray:none;stroke-opacity:1" />
  <path
     id="path4810"
     d="m 2322,1656.75 -30.25,63.75 -40.25,78.25 -6,18.25 -11.5,59.75 -8.5,17.25 -12,16.75"
     style="opacity:1;fill:none;fill-opacity:1;fill-rule:nonzero;stroke:#faaf18;stroke-width:1;stroke-linecap:butt;stroke-linejoin:round;stroke-miterlimit:4;stroke-dasharray:none;stroke-opacity:1" />
  <path
     id="path4812"
     d="m 2048.88,1162.26 9.71,4.01 9.37,5.13 28.64,11.31 6.89,6.01 3.18,5.66 13.61,24.22 10.96,13.08 23.16,36.59 8.13,6.01 36.06,11.84 58.87,2.12 5.3,4.42 6.36,8.66 2.83,7.78 2.47,1.59 12.73,-0.53 14.14,-4.24 18.92,-1.59 22.27,0.88 38.01,-8.31 9.37,0.88 40.84,19.8 121.98,30.94 12.55,2.12"
     style="opacity:1;fill:none;fill-opacity:1;fill-rule:nonzero;stroke:#faaf18;stroke-width:1;stroke-linecap:butt;stroke-linejoin:round;stroke-miterlimit:4;stroke-dasharray:none;stroke-opacity:1" />
  <path
     id="path4814"
     d="m 1770.27,1153.73 3.01,-3.89 -4.95,-39.24 -3.01,-6.89 -6.01,-4.6 -30.58,-27.4 -5.13,-3.18 -4.07,-19.62 -3.71,-3.36 -17.15,-48.08"
     style="opacity:1;fill:none;fill-opacity:1;fill-rule:nonzero;stroke:#faaf18;stroke-width:1;stroke-linecap:butt;stroke-linejoin:round;stroke-miterlimit:4;stroke-dasharray:none;stroke-opacity:1" />
  <path
     id="path4816"
     d="m 1715.82,1045.54 -2.65,7.96 3.18,14.14 7.25,0.88"
     style="opacity:1;fill:none;fill-opacity:1;fill-rule:nonzero;stroke:#faaf18;stroke-width:1;stroke-linecap:butt;stroke-linejoin:round;stroke-miterlimit:4;stroke-dasharray:none;stroke-opacity:1" />
  <text
     x="89.45"
     y="206.96"
     id="text3019"
     xml:space="preserve"
     style="font-style:normal;font-weight:normal;font-size:144.0px;line-height:125%;font-family:Sans;-inkscape-font-specification:Sans;letter-spacing:0px;word-spacing:0px;fill:#000000;fill-opacity:1;stroke:none"><tspan
       x="89.45"
       y="206.96"
       id="tspan1">2010</tspan></text>
</svg>
