<?xml version="1.0" encoding="UTF-8" standalone="no"?>
<svg
   xmlns:dc="http://purl.org/dc/elements/1.1/"
   xmlns:cc="http://creativecommons.org/ns#"
   xmlns:rdf="http://www.w3.org/1999/02/22-rdf-syntax-ns#"
   xmlns:svg="http://www.w3.org/2000/svg"
   xmlns="http://www.w3.org/2000/svg"
   xmlns:xlink="http://www.w3.org/1999/xlink"
   viewBox="-1300 0 7200 13400"
   height="13400"
   width="7200"
   id="svg2"
   version="1.1">
  <metadata
     id="metadata8">
    <rdf:RDF>
      <cc:Work
         rdf:about="">
        <dc:format>image/svg+xml</dc:format>
        <dc:type
           rdf:resource="http://purl.org/dc/dcmitype/StillImage" />
        <dc:title></dc:title>
      </cc:Work>
    </rdf:RDF>
  </metadata>
  <defs
     id="defs6" />
  <image
     xlink:href="../../timelines/streetmap/../streetmap/nkgosm.png"
     y="50.058895"
     x="100"
     id="image10"
     preserveAspectRatio="none"
     height="9439.9414"
     width="4863"
     style="display:none" />
  <path
     style="opacity:1;fill:none;fill-opacity:1;fill-rule:nonzero;stroke:#ba83ab;stroke-width:5;stroke-linecap:butt;stroke-linejoin:round;stroke-miterlimit:4;stroke-dasharray:none;stroke-opacity:1"
     d="m -1160.9025,8695.0099 125.8598,-122.3392 46.20724,-28.6045 71.29121,-32.1251 190.54992,-172.9471 188.34959,-174.7074 20.68324,-34.7655 56.32885,-126.7399 21.12332,-26.4042 92.41452,-105.6165 44.44698,-65.1303 40.48633,-43.1267 92.4145,-140.8222 65.1302,-55.4487 53.248397,-34.3254 41.8066,-7.0411 38.726,11.8819 75.691903,64.6902 18.923,41.8065 22.8836,60.7296 510.4803,488.0366 20.2431,3.5206 31.2449,-4.8408 83.6132,-58.0891 51.9281,-52.8083 143.9026,-110.0173 35.6456,-56.3288 44.0069,-95.9351 7.9213,-37.4059 8.3613,-74.8117 8.3613,-17.1627 14.0822,-10.5617 11.8819,-3.0805 70.411,-9.6815 44.0069,-14.0822 60.2895,-32.5651 19.8031,-3.5206 21.1233,6.161 15.4024,19.8031 131.1406,181.7486 31.685,28.6044 31.2449,19.3631 48.8477,19.363 41.3665,5.2809 74.3717,-0.8802 119.2587,-18.9229 86.2535,-9.6816 49.2878,-3.5205 22.4435,-7.0411 16.7226,-11.4418 22.8836,-8.3613 29.4846,2.6404 147.8633,42.6867 h 20.6832 l 23.7637,-5.7209 96.8152,-55.4487 159.7451,-79.2124"
     id="path892" />
  <path
     style="opacity:1;fill:none;fill-opacity:1;fill-rule:nonzero;stroke:#47bcb6;stroke-width:5;stroke-linecap:butt;stroke-linejoin:round;stroke-miterlimit:4;stroke-dasharray:none;stroke-opacity:1"
     d="m 2498.2722,7733.4589 -156.2245,71.2912 -20.6833,17.6028 -18.0428,29.4846 -30.017,87.1746 -4.3083,24.6029 4.4006,25.9641 66.9454,227.7789 72.9966,196.4477 0.44,16.2826 1.7603,249.0791 -5.2808,69.5309 -13.2021,89.7741 -0.4401,35.6456 3.0805,22.4435 15.4024,66.0104 7.9213,20.6833 40.9264,49.7278 18.4829,26.4041 20.6833,42.6867 6.1609,26.8442 3.0805,28.6045 -3.0805,117.9385 2.2004,20.2432 71.7312,194.0705 13.868,40.6086 5.29,27.0723 1.2447,18.3594 -2.1782,274.1459 -5.6012,36.4076 -9.3352,64.4134 -2.1783,27.6946 -25.8276,135.6725 -4.6676,34.54 8.0906,30.807 14.6252,23.649 19.9153,17.737 23.6493,10.269 26.1388,4.356 99.8875,4.668 25.2052,9.646 20.2264,17.737 13.6918,24.272 2.8006,27.695 -0.6224,241.161 -2.1782,28.628 -8.7129,61.302 -2.1783,34.229 v 37.652 l 2.8006,43.876 9.0241,49.166 10.2688,40.764 45.1205,133.806 15.2476,26.138 80.5946,91.797 10.5799,26.139 3.7342,25.828 -4.9789,42.942 -6.8458,23.96 -17.4259,53.834 -4.9788,22.716 2.1782,18.981 25.2053,119.492 9.6464,21.782 33.607,52.589 56.634,54.456 56.0117,27.072 51.9664,3.734 37.0299,-5.29 30.1841,-17.115 219.6902,-139.095 274.1459,-160.256 181.4155,-105.488 21.16,-21.16 20.8488,-42.631 16.4923,-20.538 197.9078,-125.404 22.0935,-6.223 33.607,4.045 14.6253,9.335 585.0106,389.904 30.8064,7.779 272.59,7.779 61.6128,-4.667 42.6311,4.667 36.4076,28.006 42.9423,148.12 15.2476,63.48 14.0029,23.338 34.8517,32.051 29.2505,14.625 241.1613,95.531 17.4259,13.692 10.2688,25.828 1.5558,25.516 14.3141,251.43 17.1147,383.991 28.6282,815.592"
     id="path860" />
  <path
     style="opacity:1;fill:none;fill-opacity:1;fill-rule:nonzero;stroke:#796cb1;stroke-width:5;stroke-linecap:butt;stroke-linejoin:round;stroke-miterlimit:4;stroke-dasharray:none;stroke-opacity:1"
     d="m 1726.8311,6403.13 170.3067,-11.0017 17.1627,-7.4812 35.2055,-21.5634 19.8031,-2.6404 33.4453,-3.0805 25.524,2.6404 113.0978,20.6833 82.2929,8.8014 61.6097,-3.0805 83.7034,11.4556 93.6444,7.0273 45.3271,8.8014 56.7689,-3.9607 55.4488,4.4007 27.2842,-9.6815 45.3272,-21.5634 14.0822,-15.8425 21.1233,-66.8905 14.9623,-20.6832 132.4608,-134.2211 33.0052,-16.2826 20.2432,-16.7226 29.9247,-44.447 28.1644,-61.1696 11.0017,-14.5223 14.0823,-9.2414 29.0445,-6.601 55.0087,-17.1627 36.5257,-23.3237 46.6473,-35.6456 33.0053,-14.9623 52.3682,-13.6422 54.5686,-14.5223 66.4504,-3.9606 24.2038,3.5206 53.6885,17.6027 27.7243,15.8425 29.0446,37.846 23.7637,16.7226 23.3237,10.1216 27.2843,7.9212 26.8442,-0.4401 133.781,42.2467 81.8528,33.8853 10.1216,4.8408 13.6422,15.8425 39.1661,84.9333 12.542,43.3468 7.2611,31.905 8.3613,23.3237 13.2021,11.8818 21.1233,9.6816 16.2826,0.44 18.923,-2.2003 14.5222,-9.2415 29.0446,-24.2038 14.0822,-25.524 15.4024,-44.0069 18.4829,-26.8442 17.6028,-20.6833 18.0428,-14.5222 21.1233,-6.6011 58.0892,-0.8801 152.2639,7.4812 119.2587,-0.4401 117.9385,-3.9606 74.3717,13.6421 26.8442,2.2004 28.6045,-7.9213 98.5755,-31.2449 54.5686,-24.2038 67.3305,-39.6062 80.9727,-40.0463 18.4829,-15.4024 12.7621,-23.3237 14.9623,-47.0874 11.8819,-54.5685 0.44,-55.8888 -3.0804,-48.4076 1.3202,-36.0857 12.762,-48.8477 19.8031,-36.0856 4.8407,-30.8049 0.8802,-33.0051 -9.2415,-44.447 -9.6815,-21.1233 -17.6028,-22.0035 -28.6045,-22.4435 -9.2414,-14.0822 -5.7209,-14.9624 -6.161,-42.2466"
     id="path825" />
  <path
     id="path4506"
     d="m 845.4999,4777.5006 39,-2 15.5,5 127,64.5 16.5,3.5 51.5,-1 26,10 216,31 63.5,32 345,71.5 12,6.5 49,110.5 330.5,407 25,30 15,10 8,5 22,4 14,8 30.5,43 68.5,153 29,93.5 10.5,14 21,11 88,26 131.5,84.5 23.5,19.5 30,56.5 27,93 -2.5,15 -9,21.5 -59,38.5 -61,40 -13.5,20.5 -13.5,25 -46.9645,209.4541 -16.1273,94.2132 -2.8284,39.9515 -50.5581,177.8374 8.4852,83.7921 6.364,16.617 19.0919,29.6985 25.1023,17.3241 6.0104,22.981 -2.1213,13.0815 -45.6084,168.645 -0.3536,13.7885 4.5962,18.3848 3.182,9.1924 10.253,18.3848 7.4247,29.3449 18.0312,31.4663 4.5962,61.1647 8.8388,36.416 89.449,161.5739 3.5356,10.253 -6.0104,19.4455 -56.215,59.0434 -12.0209,19.799 -5.3033,14.8492 -1.0606,26.163 0.1997,7.9099 21.5282,41.2738 89.995,182.0402 15.5563,37.4767 2.4749,25.8094 -4.2427,124.8043 2.8285,94.3988 14.8492,121.6223 7.7782,37.1231 -2.1213,62.9325 3.5355,63.9932 4.9497,46.669 4.9497,14.1422 11.6674,7.4246 15.9099,9.8995 14.4956,0.3535 100.0557,-28.6378 36.0624,5.3033 38.8909,15.9099 24.0416,22.981 10.6066,43.8406 10.2531,104.2983 4.5962,72.1249 9.5459,452.9019"
     style="fill:none;fill-rule:evenodd;stroke:#019e59;stroke-width:5;stroke-linecap:butt;stroke-linejoin:round;stroke-miterlimit:4;stroke-dasharray:none;stroke-opacity:1" />
  <path
     id="path4533"
     d="m 4836.9083,5506.8681 -28.9083,5.6325 -25,15.5 -83,66 -24.5,13 -31.5,10 -113,16.5 -58,19 -54.5,6 -22.5,7.5 -522,332.5 -11.5,15.5 -6.5,17 -1.5,23 8,21.5 33.5,72 11.5,41 5.5,38.5 -0.5,17.5 -30,85 -5.5,31 -19.5,128.5 -9,13.5 -12,11 -23.5,8.5 -104.5,9.5 -49.5,9 -99,32.5 -23.5,16 -44.5,46.5 -35,29 -39.5,30.5 -69.5,42.5 -83.5,11 -19.5,-4 -169.0001,-62 -64.5,-9.5 -117.5,12.5 -29.5,15 -472,-40.5 -289,-23.5 -13.5,5 -71.5,48 -34.5,36 -23.5,26 -28.5,11.5 -33,6 -46.5,-14 -55,6 -39,8 -16.5,7 -5.5,11 1.5,68 -6.5,55.5 -28,104.5 -24.5,75 -24.5,47.5 -157.5,223 -60,82 -3,8.5 2.5,15 9.5,10 171.5,146.5 3.5,9 3,20.5 -3.5,25 -10,23 -28.5,30.5 -41.5,29.5 -13,17.5 -26.5,41"
     style="fill:none;fill-rule:evenodd;stroke:#c20b44;stroke-width:5;stroke-linecap:butt;stroke-linejoin:round;stroke-miterlimit:4;stroke-dasharray:none;stroke-opacity:1" />
  <path
     id="path4563"
     d="m 122.6272,6606.4192 56.5686,-71.4178 98.2878,-130.1077 115.2585,-113.8442 50.7578,-41.5489 18.5,-8 h 20 l 30.5,8 45.5,27.5 212,132 38,28.5 471.5,365 102.5,74.5 37,21.5 40.5,22 55.5,23 11.5,21 3,24 -5.5,25 -111,248 -2.5,8.5 0.5,9.5 5.5,5.5 279,226.5 29,22 16.5,18.5 13.5,12 22.5,4 22,-1 32,-7.5 64.5,-7.5 56,-23.5 45,-18 28.5,-35.5 6.5,-55.5"
     style="fill:none;fill-rule:evenodd;stroke:#d3b285;stroke-width:5;stroke-linecap:butt;stroke-linejoin:round;stroke-miterlimit:4;stroke-dasharray:none;stroke-opacity:1" />
  <path
     id="path4561"
     d="m 2653.9999,5705.0006 -11,37.5 -15,28.5 -9,9.5 -40.5,15 -15,12.5 -20,27.5 -6.5,29.5 -13.5,27.5 -35.5,53 -24,13.5 -107.5,22 -28.5,21 -10,16.5 0.5,814.5 -57.5,203.5 -18.5,26 -28.5,88 -24.5,49.5 -30,29.5 -79,122.5 -37.5,35.5 -16,25.5 -7.5,34 -1.5,34 27,161.5 9.5,14 6,3.5 143,-14 144,-14 48,-14.5 h 20 l 12.5,8 20,37 61.0166,118.7985 24.4834,21.2015 18,9 25,6 49,1 26,-6 60.5,-7.5 16.5,5.5 11.5,9.5 23,59 36.5,237.5 -1.5,248.5 7.5,17.5 15.5,7 63,7 110.5,-40 40.5,-0.5 75.5,-21 245.0001,-87 212.5,-40 21.5,-0.5 20,9 170,174.5 11,21.5 8,21 23.5,87.5 10,27 77.5,102 13.5,25 18,51.5 8,60 12,27.5 14.5,18 18,16.5 21,14.5"
     style="fill:none;fill-rule:evenodd;stroke:#00aad7;stroke-width:5;stroke-linecap:butt;stroke-linejoin:round;stroke-miterlimit:4;stroke-dasharray:none;stroke-opacity:1" />
  <path
     id="path4565"
     d="m 1431.482,5071.9974 -8.4853,-6.3639 2.1213,-19.0919 21.9203,-41.7193 9.8995,-32.5269 28.9914,-62.9325 5.6568,-22.6274 -21.2132,-276.4788 1.4143,-19.799 167.5843,-654.0738 25.4558,-48.7903 38.1838,-55.1543 247.4873,-335.1687 72.832,-85.5599 229.1026,-370.5239 116.6727,-185.9691 55.8614,-77.0747 611.6474,-663.2661 16.9705,-18.3848 18.3848,-28.9914 136.4716,-389.6158 21.2133,-38.1838 75.6604,-72.832 25.4559,-45.2548 121.6223,-161.2204 53.0331,-39.5979 96.8736,-64.3468 165.463,-159.8061 122.3294,-64.3467 135.7645,-144.2498 134.3503,-77.7817 77.0747,-76.3676 98.2878,-59.3969 168.9985,-178.8981 48.0833,-127.2792 0.7071,-21.2132 2.8284,-93.3381 1.4142,-24.7487 14.8493,-24.7487 39.598,-43.8407 67.8822,-35.3553"
     style="fill:none;fill-rule:evenodd;stroke:#e9995a;stroke-width:5;stroke-linecap:butt;stroke-linejoin:round;stroke-miterlimit:4;stroke-dasharray:none;stroke-opacity:1" />
  <path
     id="path821"
     d="m 3758.65,6531.4357 4.2142,49.4604 6.6538,7.7628 42.363,1.7744 24.1757,-1.9962 81.399,-16.8565"
     style="opacity:1;fill:none;fill-opacity:1;fill-rule:nonzero;stroke:#1114b1;stroke-width:5;stroke-linecap:butt;stroke-linejoin:round;stroke-miterlimit:4;stroke-dasharray:none;stroke-opacity:1" />
  <path
     id="path823"
     d="m 3917.4557,6571.5806 43.2501,-9.0936 32.1604,0.8872 44.3591,15.5257 52.1219,38.1488 1.5526,4.8795 -0.2218,5.9885 -77.1849,107.3491 -87.1656,98.9208 -114.2247,90.7144 -28.1681,19.518 -115.1119,51.9001 -21.7359,19.2962 -68.313,63.2118 -55.4489,89.3836 -13.5296,54.5617"
     style="opacity:1;fill:none;fill-opacity:1;fill-rule:nonzero;stroke:#1114b1;stroke-width:1;stroke-linecap:butt;stroke-linejoin:round;stroke-miterlimit:4;stroke-dasharray:none;stroke-opacity:1" />
  <text
     style="font-style:normal;font-weight:normal;font-size:144px;font-family:Sans;-inkscape-font-specification:Sans;fill:#000000;fill-opacity:1;stroke:none"
     xml:space="preserve"
     id="text3914"
     y="206.96082"
     x="-1210.5469"><tspan
       id="tspan1"
       y="206.96082"
       x="-1210.5469">2020</tspan></text>
  <text
     style="font-style:normal;font-weight:normal;font-size:144px;font-family:Sans;-inkscape-font-specification:Sans;fill:#000000;fill-opacity:1;stroke:none"
     xml:space="preserve"
     id="text3914-4"
     y="13297.961"
     x="-1210.5469"><tspan
       id="tspan2"
       y="13297.961"
       x="-1210.5469">2020</tspan></text>
</svg>
