<?xml version="1.0" encoding="UTF-8" standalone="no"?>
<svg
   xmlns:dc="http://purl.org/dc/elements/1.1/"
   xmlns:cc="http://creativecommons.org/ns#"
   xmlns:rdf="http://www.w3.org/1999/02/22-rdf-syntax-ns#"
   xmlns:svg="http://www.w3.org/2000/svg"
   xmlns="http://www.w3.org/2000/svg"
   xmlns:xlink="http://www.w3.org/1999/xlink"
   version="1.1"
   id="svg2"
   width="1000"
   height="1900"
   viewBox="0 0 1000 1900">
  <metadata
     id="metadata8">
    <rdf:RDF>
      <cc:Work
         rdf:about="">
        <dc:format>image/svg+xml</dc:format>
        <dc:type
           rdf:resource="http://purl.org/dc/dcmitype/StillImage" />
        <dc:title></dc:title>
      </cc:Work>
    </rdf:RDF>
  </metadata>
  <defs
     id="defs6" />
  <image
     style="display:none"
     width="919.6"
     height="1841.4"
     preserveAspectRatio="none"
     xlink:href="../basemap/emlosm.png"
     id="image10"
     x="0"
     y="208.6" />
  <path
     style="opacity:1;fill:none;fill-opacity:0.4;fill-rule:nonzero;stroke:#00ab4d;stroke-width:5;stroke-linecap:butt;stroke-linejoin:round;stroke-miterlimit:4;stroke-dasharray:none;stroke-opacity:1"
     d="m 737.02,746.41 4.33,43.93 -3.79,17.08 -2.71,16.81 -5.96,14.37 -7.31,6.78 -15.44,7.59 -18.15,2.71 -12.46,-1.63 -15.17,-5.69 -11.11,-8.68 -13.81,-22.24 -31.96,-78.64 -7.31,-28.47 -8.13,-13.29 -10.02,-8.41 -15.44,-5.15 -32.23,-7.32 -19.5,-7.86 -12.46,-11.39 -6.77,-12.47 -4.06,-17.08 v -32 l -2.98,-28.47 -10.83,-23.05 -6.77,-16.54 -0.27,-16.81 0.81,-48.27 -5.15,-14.1 -9.48,-12.47 -53.63,-56.41 -11.65,-17.9 -3.52,-15.46 v -14.37 l 4.33,-20.88"
     id="path838" />
  <path
     style="opacity:1;fill:none;fill-opacity:0.4;fill-rule:nonzero;stroke:#000000;stroke-width:5;stroke-linecap:butt;stroke-linejoin:round;stroke-miterlimit:4;stroke-dasharray:none;stroke-opacity:1"
     d="m 122.84,1661.45 48.27,163.38"
     id="path844" />
  <path
     style="opacity:1;fill:none;fill-opacity:0.4;fill-rule:nonzero;stroke:#000000;stroke-width:5;stroke-linecap:butt;stroke-linejoin:round;stroke-miterlimit:4;stroke-dasharray:none;stroke-opacity:1"
     d="M 122.45,1656.47 259.59,1299.41 400.17,1048.6"
     id="path846" />
  <text
     x="89.45"
     y="206.96"
     id="text2994"
     xml:space="preserve"
     style="font-style:normal;font-weight:normal;font-size:144.0px;line-height:125%;font-family:Sans;-inkscape-font-specification:Sans;letter-spacing:0px;word-spacing:0px;fill:#000000;fill-opacity:1;stroke:none"><tspan
       x="89.45"
       y="206.96"
       id="tspan1">2010</tspan></text>
</svg>
