<?xml version="1.0" encoding="UTF-8" standalone="no"?>
<!-- Created with Inkscape (http://www.inkscape.org/) -->

<svg
   xmlns:dc="http://purl.org/dc/elements/1.1/"
   xmlns:cc="http://creativecommons.org/ns#"
   xmlns:rdf="http://www.w3.org/1999/02/22-rdf-syntax-ns#"
   xmlns:svg="http://www.w3.org/2000/svg"
   xmlns="http://www.w3.org/2000/svg"
   xmlns:xlink="http://www.w3.org/1999/xlink"
   version="1.1"
   width="4400"
   height="3600"
   id="svg2">
  <metadata
     id="metadata8">
    <rdf:RDF>
      <cc:Work
         rdf:about="">
        <dc:format>image/svg+xml</dc:format>
        <dc:type
           rdf:resource="http://purl.org/dc/dcmitype/StillImage" />
        <dc:title></dc:title>
      </cc:Work>
    </rdf:RDF>
  </metadata>
  <defs
     id="defs6" />
  <image
     xlink:href="../streetmap/denosm.png"
     style="display:none"
     id="image10"
     height="3631.25"
     width="2075"
     y="-31.25"
     x="2100" />
  <path
     d="M 2561.862,1100.7576 2555,1039 l -15,-37 -17,-24 -21,-39 -52,-122 -48,-95 -26,-103 -4.5,-92.5 L 2360,500"
     id="path2987"
     style="fill:none;stroke:#a55e87;stroke-width:5;stroke-linecap:butt;stroke-linejoin:round;stroke-miterlimit:4;stroke-opacity:1;stroke-dasharray:none" />
  <path
     d="M 2359.1838,502.04058 2366.5,494 l 62.5,2 9,-4 20.5,-15.5 4.5,-7.5 5.5,-14 14,-11.5 13,-1.5"
     id="path3757"
     style="fill:none;stroke:#a55e87;stroke-width:5;stroke-linecap:butt;stroke-linejoin:miter;stroke-miterlimit:4;stroke-opacity:1;stroke-dasharray:none" />
  <path
     d="m 2491.5,442 8,0 7.5,7.5 7.5,-1 63.5,-64.5 3.5,-0.75 6,5.25 6.5,-0.5 52.5,-53.5 37.5,-35 74.5,-76 0.5,-17"
     id="path3759"
     style="fill:none;stroke:#a55e87;stroke-width:1px;stroke-linecap:butt;stroke-linejoin:miter;stroke-opacity:1" />
  <path
     d="M 2581.75,383.25 2572,373 l -6.75,1.5 -65.5,67.5"
     id="path3761"
     style="fill:none;stroke:#a55e87;stroke-width:1px;stroke-linecap:butt;stroke-linejoin:miter;stroke-opacity:1" />
  <path
     d="m 2577.5,384 -0.25,-5.5"
     id="path3763"
     style="fill:none;stroke:#a55e87;stroke-width:1px;stroke-linecap:butt;stroke-linejoin:miter;stroke-opacity:1" />
  <text
     x="89.453178"
     y="206.96094"
     id="text2990"
     xml:space="preserve"
     style="font-size:143.99993896px;font-style:normal;font-weight:normal;line-height:125%;letter-spacing:0px;word-spacing:0px;fill:#000000;fill-opacity:1;stroke:none;font-family:Sans;-inkscape-font-specification:Sans"><tspan
       x="89.453178"
       y="206.96094"
       id="tspan1">1995</tspan></text>
  <text
     x="89.453125"
     y="3497.9609"
     id="text2994"
     xml:space="preserve"
     style="font-size:144px;font-style:normal;font-weight:normal;line-height:125%;letter-spacing:0px;word-spacing:0px;fill:#000000;fill-opacity:1;stroke:none;font-family:Sans;-inkscape-font-specification:Sans"><tspan
       x="89.453125"
       y="3497.9609"
       id="tspan2">1995</tspan></text>
</svg>
