<?xml version="1.0" encoding="UTF-8" standalone="no"?>
<svg
   version="1.1"
   width="4400"
   height="4050"
   viewBox="0, -50, 4400, 4050"
   id="svg2"
   xmlns:xlink="http://www.w3.org/1999/xlink"
   xmlns="http://www.w3.org/2000/svg"
   xmlns:svg="http://www.w3.org/2000/svg"
   xmlns:rdf="http://www.w3.org/1999/02/22-rdf-syntax-ns#"
   xmlns:cc="http://creativecommons.org/ns#"
   xmlns:dc="http://purl.org/dc/elements/1.1/">
  <metadata
     id="metadata8">
    <rdf:RDF>
      <cc:Work
         rdf:about="">
        <dc:format>image/svg+xml</dc:format>
        <dc:type
           rdf:resource="http://purl.org/dc/dcmitype/StillImage" />
      </cc:Work>
    </rdf:RDF>
  </metadata>
  <defs
     id="defs6" />
  <image
     xlink:href="../basemap/denosm.png"
     style="display:none"
     id="image10"
     height="5446.88"
     width="6484.38"
     y="-1328.12"
     x="25" />
  <path
     style="fill:none;stroke:#0190b7;stroke-width:5;stroke-linecap:butt;stroke-linejoin:round;stroke-miterlimit:4;stroke-dasharray:none;stroke-opacity:1"
     d="m 2416.73,254.73 -10,10 c -0.18,0.18 -0.33,0.39 -0.45,0.62 l -21.34,41.19 -16.76,17.74 c -0.11,0.12 -0.22,0.25 -0.3,0.39 l -16.42,26.38 -7.61,9.52 -37.59,21.76 c -0.04,0.02 -0.08,0.05 -0.12,0.08 l -19,12.5 c -0.33,0.22 -0.61,0.52 -0.8,0.87 l -11.5,20.5 c -0.21,0.37 -0.32,0.79 -0.32,1.22 v 26 c 4e-4,0.62 0.23,1.21 0.64,1.67 l 4.5,5 c 0.41,0.46 0.98,0.75 1.59,0.81 l 13.57,1.45 10.42,4.98 19.11,32.83 L 2320.5,530 l -5.5,7.5 -9.5,2 H 2264 L 2241,529 h -48.5 l -21.5,9 -22,14 -24,9.5 -29,6.5 h -23.5 -34.5 l -6.5,4.5 -13,8.5 -11,2.5 -106.5,0.5 -41,-6 -74.5,-2.5 -8.5,-3 -18,-15 -14.5,-4 -315,0.5 -308,2.5 -62.5,-8.5 -33,-4.5 -14.5,-2.5 -9.5,-0.5 -13,6.5 -45.5,35 -8,11.5 -2.5,17 4,16.5 11.5,16.5 25,31 4,9 -2.5,13 -13,44 -4,9.5 -14.5,20.5 -2,11.5 v 20 l -3.5,7.5 -22.18,-0.38"
     id="path2987" />
  <path
     style="fill:none;stroke:#0059b3;stroke-width:5;stroke-linecap:butt;stroke-linejoin:round;stroke-miterlimit:4;stroke-dasharray:none;stroke-opacity:1"
     d="m 2495.79,444.48 -12.27,1.41 -12.93,10.62 -5.26,13.39 c -0.05,0.13 -0.11,0.25 -0.18,0.37 l -4.5,7.5 c -0.17,0.27 -0.38,0.51 -0.64,0.71 l -20.5,15.5 c -0.15,0.12 -0.32,0.21 -0.49,0.29 l -9,4 c -0.34,0.15 -0.72,0.23 -1.1,0.21 l -62.5,-2 -1.24,1.51 0.25,1.94 10.66,24.56 v 0 c 0.24,0.55 0.38,1.15 0.41,1.75 l 4.48,91.99 25.74,101.98 47.74,94.49 0.01,0.02 c 0.05,0.09 0.09,0.18 0.12,0.26 0.01,0.01 0.01,0.02 0.02,0.03 l 51.91,121.79 20.75,38.53 16.82,23.75 v 0 c 0.22,0.31 0.41,0.65 0.55,1.01 v 0 l 15,37 c 0.17,0.42 0.28,0.87 0.33,1.33 v 0 l 8,72 0.12,2.72 2.49,1.78 4.59,-0.65 19,-6.65 c 0.24,-0.08 0.48,-0.13 0.73,-0.14 l -3e-4,-2e-4 c 0.42,-0.01 0.83,0.07 1.21,0.26 l 10,5 c 0.32,0.16 0.59,0.38 0.82,0.65 l 8.98,10.98 103.9,121.88 21.71,20.72 126.52,76.71 39.56,12.86 21.36,3.88 28.53,-5.9 c 0.07,-0.01 0.14,-0.03 0.22,-0.04 l 43,-5 c 0.16,-0.02 0.32,-0.02 0.49,-0.01 l 76,6 c 0.3,0.02 0.6,0.1 0.87,0.23 l 38,18 c 0.33,0.16 0.62,0.38 0.86,0.67 l 24,29 c 0.04,0.05 0.08,0.1 0.12,0.15 l 11.44,16.21 59.05,12.79 c 0.58,0.13 1.1,0.46 1.46,0.94 l 34,45 c 0.07,0.1 0.14,0.2 0.2,0.3 l 55,100 c 0.06,0.11 0.11,0.22 0.15,0.33 l 14.82,39.53 14.66,15.64 c 0.14,0.15 0.26,0.32 0.36,0.49 l 10,18 c 0.07,0.13 0.13,0.26 0.18,0.4 l 49,142 c 0.04,0.12 0.07,0.24 0.1,0.36 l 6.91,37.54 17.75,28.6 c 0.06,0.1 0.12,0.2 0.16,0.31 l 83,188 c 0.01,0.03 0.02,0.06 0.03,0.08 l 22,55 12.18,10.93 22,3 94,-8.5 46.5,-4.5 29.5,-12 175,-111 30,-20 24,-9.5 34.5,-9 31,-17.5 145.5,-113 80,-32 36,-21"
     id="path876" />
  <text
     x="89.45"
     y="156.96"
     id="text2990"
     xml:space="preserve"
     style="font-size:144px;font-style:normal;font-weight:normal;line-height:125%;letter-spacing:0px;word-spacing:0px;fill:#000000;fill-opacity:1;stroke:none;font-family:Sans;-inkscape-font-specification:Sans"><tspan
       x="89.45"
       y="156.96"
       id="tspan1">2024</tspan></text>
  <path
     style="fill:none;stroke:#814479;stroke-width:5;stroke-linecap:butt;stroke-linejoin:round;stroke-miterlimit:4;stroke-dasharray:none;stroke-opacity:1"
     d="m 4024.26,3879.91 18.31,-35.63 2.91,-15.34 c 0.01,-0.04 0.01,-0.08 0.03,-0.12 l 12.51,-51.98 -1.05,-48.04 -1.21,-5.51 -4.82,-5.68 -10.39,-5.11 -43.98,-2.16 c -0.41,-0.02 -0.81,-0.14 -1.16,-0.35 l -8.62,-5.16 c -0.32,-0.19 -0.59,-0.45 -0.79,-0.76 l -17.6,-26.42 c -0.1,-0.15 -0.18,-0.31 -0.25,-0.48 l -3.77,-9.73 c -0.12,-0.32 -0.18,-0.67 -0.17,-1.01 l 1.19,-28.01 c 0,-0.06 0.01,-0.13 0.02,-0.19 l 3.18,-26.42 c 0.03,-0.22 0.08,-0.43 0.16,-0.63 l 3.58,-8.94 c 0.1,-0.24 0.23,-0.46 0.39,-0.66 l 11.88,-14.41 3.81,-9.26 -2.15,-39.16 L 3985,3492"
     id="path848" />
  <path
     style="fill:none;stroke:#814479;stroke-width:5;stroke-linecap:butt;stroke-linejoin:round;stroke-miterlimit:4;stroke-dasharray:none;stroke-opacity:0.99"
     d="m 3985,3492 -8,-94 -9,-26 v -39 l -2,-30 -12,-26 -1,-72 -13,-39 2,-58 -32,-125 -19,-29 -11,-49 -75,-155 -15,-21 -6,-31 -68,-155 -21,-28 -15,-48 -67,-155 -21,-31 -10,-34 -65.32,-140.07 -21.98,-54.96 -82.91,-187.8 -17.91,-28.85 c -0.16,-0.27 -0.28,-0.56 -0.33,-0.87 l -6.96,-37.81 -48.87,-141.62 -9.74,-17.54 -14.79,-15.78 c -0.23,-0.24 -0.4,-0.52 -0.52,-0.83 l -14.94,-39.83 -54.83,-99.68 -33.33,-44.12 -59.09,-12.8 c -0.61,-0.13 -1.15,-0.49 -1.51,-1 l -11.94,-16.92 -23.59,-28.5 -37.08,-17.56 -75.3,-5.95 -42.65,4.96 -28.89,5.98 c -0.31,0.07 -0.64,0.07 -0.95,0.01 l -22,-4 c -0.11,-0.02 -0.22,-0.05 -0.33,-0.08 l -40,-13 c -0.18,-0.06 -0.36,-0.14 -0.52,-0.24 l -127,-77 c -0.15,-0.09 -0.3,-0.2 -0.43,-0.33 l -22,-21 c -0.06,-0.06 -0.12,-0.12 -0.18,-0.19 l -104,-122 c -0.01,-0.01 -0.02,-0.03 -0.03,-0.04 l -8.66,-10.59 -8.58,-4.29 -19,6.65 c -0.64,0.22 -6.39,0.26 -7,-0.04 l -10.8,-7.77 -7.93,-71.31 -14.52,-35.82 -16.67,-23.53 c 0,0 -0.01,0 -0.01,-0.01 -0.11,-0.16 -0.22,-0.33 -0.32,-0.51 l -21,-39 c -0.06,-0.12 -0.13,-0.25 -0.2,-0.4 v -0.01 l -51.93,-121.85 -47.93,-94.85 c -0.17,-0.33 -0.3,-0.67 -0.39,-1.03 l -26,-103 v -0.01 c -0.09,-0.34 -0.13,-0.66 -0.14,-0.94 -1e-4,-0.01 -1e-4,-0.02 0,-0.03 l -4.46,-91.59 -11.14,-25.66 -4.9,-7.99 -19.5,-1.5 -2.34,-4.76 -19.5,-33.5 c -0.25,-0.43 -0.63,-0.78 -1.08,-1 l -11.5,-5.5 c -0.26,-0.12 -0.53,-0.2 -0.81,-0.23 l -13.05,-1.4 -3.22,-3.57 v -24.39 l 10.88,-19.4 18.43,-12.13 37.94,-21.96 c 0.27,-0.16 0.51,-0.36 0.7,-0.6 l 8,-10 c 0.06,-0.08 0.12,-0.16 0.17,-0.24 l 16.37,-26.29 16.83,-17.82 c 0.16,-0.17 0.3,-0.36 0.4,-0.57 l 21.32,-41.16 9.73,-9.73"
     id="path864" />
  <path
     style="fill:none;stroke:#027035;stroke-width:5;stroke-linecap:butt;stroke-linejoin:round;stroke-miterlimit:4;stroke-dasharray:none;stroke-opacity:1"
     d="m 2495.21,439.52 -13,1.5 c -0.48,0.06 -0.93,0.25 -1.3,0.55 l -14,11.5 c -0.33,0.27 -0.58,0.62 -0.74,1.02 l -5.42,13.81 -4.14,6.91 -19.88,15.03 -8.21,3.65 -61.93,-1.98 -3.61,1.22 -2.6,5.63 0.37,3.37 10.75,24.77 v 0 l 4.49,92.25 c 0.01,0.17 0.03,0.33 0.07,0.49 l 25.87,102.49 c 0.04,0.18 0.11,0.35 0.19,0.52 l 47.88,94.75 c 0,0.01 0.01,0.01 0.01,0.02 v 0.01 0.01 l 51.94,121.86 c 0.03,0.07 0.06,0.14 0.1,0.21 l 20.87,38.77 c 0.05,0.09 0.1,0.18 0.16,0.26 l 16.91,23.87 v 0 0 l 15,37 v 0 l 8,72 10.01,76.99 1.5,28.5 -2,38.5 -25.5,121 -62.15,306.48 -99.85,317.52 -31.66,149.57 -12.64,37.24 -14.7,82.19 -28,130 -13,38 -33.05,69.99 -38.28,90.24 -12.67,93.77 -29.72,200 -24.38,74.14"
     id="path3757-3" />
  <path
     style="fill:none;stroke:#0059b3;stroke-width:1;stroke-linecap:butt;stroke-linejoin:round;stroke-miterlimit:4;stroke-dasharray:none;stroke-opacity:1"
     d="m 2493.7,442.62 5.59,-0.12 7.35,7.35 c 0.11,0.11 0.27,0.16 0.42,0.14 l 7.5,-1 c 0.11,-0.01 0.21,-0.07 0.29,-0.14 l 63.5,-64.5 -0.69,-4.85 -6.18,-5.66 -5.99,1.13 -65.39,67.38 -0.82,0.15"
     id="path898" />
  <path
     style="fill:none;stroke:#027035;stroke-width:1;stroke-linecap:butt;stroke-linejoin:round;stroke-miterlimit:4;stroke-dasharray:none;stroke-opacity:1"
     d="m 2492.57,441.8 6.93,-0.3 c 0.13,3e-5 0.26,0.05 0.35,0.15 l 7.33,7.33 7.08,-0.95 63.38,-64.38 -0.9,-6.26 -4.76,-4.46 c -0.1,-0.09 -0.23,-0.14 -0.37,-0.13 l -4e-4,-1.9e-4 c -0.02,10e-4 -0.04,0 -0.07,0.01 l -6.39,1.2 c -0.1,0.02 -0.2,0.07 -0.27,0.14 l -65.5,67.5"
     id="path882-7" />
</svg>
