<?xml version="1.0" encoding="UTF-8" standalone="no"?>
<svg
   xmlns:dc="http://purl.org/dc/elements/1.1/"
   xmlns:cc="http://creativecommons.org/ns#"
   xmlns:rdf="http://www.w3.org/1999/02/22-rdf-syntax-ns#"
   xmlns:svg="http://www.w3.org/2000/svg"
   xmlns="http://www.w3.org/2000/svg"
   xmlns:xlink="http://www.w3.org/1999/xlink"
   id="svg2"
   viewBox="0 0 650 1150"
   height="1150"
   width="650"
   version="1.1">
  <metadata
     id="metadata15547">
    <rdf:RDF>
      <cc:Work
         rdf:about="">
        <dc:format>image/svg+xml</dc:format>
        <dc:type
           rdf:resource="http://purl.org/dc/dcmitype/StillImage" />
        <dc:title></dc:title>
      </cc:Work>
    </rdf:RDF>
  </metadata>
  <defs
     id="defs6" />
  <image
     xlink:href="../../timelines/streetmap/nycosm.png"
     id="image12"
     height="5376"
     width="5888"
     y="-2026"
     x="-2700"
     style="display:none" />
  <text
     style="font-style:normal;font-weight:normal;font-size:144px;font-family:Sans;-inkscape-font-specification:Sans;fill:#000000;fill-opacity:1;stroke:none"
     xml:space="preserve"
     id="text3652"
     y="206.96094"
     x="89.45269"><tspan
       id="tspan1"
       y="206.96094"
       x="89.45269">1870</tspan></text>
  <path
     style="fill:none;stroke:#803300;stroke-width:5;stroke-linecap:butt;stroke-linejoin:round;stroke-miterlimit:4;stroke-dasharray:none;stroke-opacity:1"
     id="path3055"
     d="m 415.7734,459.9562 -50.4182,93.3862" />
  <path
     style="fill:none;stroke:#803300;stroke-width:1px;stroke-linecap:butt;stroke-linejoin:round;stroke-opacity:1"
     id="path3831"
     d="m 415.5,426.75 0.25,3.75 6.5,3 -0.25,2.75 -9,17 1.25,3.75" />
  <path
     style="fill:none;stroke:#803300;stroke-width:1px;stroke-linecap:butt;stroke-linejoin:round;stroke-opacity:1"
     id="path3827"
     d="m 366.25,551.75 -86.25,158.5 1,15.75 1,18.75 -0.75,11.25 -9.75,39.75 -4.5,18.5 -8.5,22 -2.5,6.25 -20.25,78.5 -11,35.75 -4,1 -28.75,-15 -10.2612,1.8731 -45.6791,80.056 -7.2537,14.5 -15.9329,19.0037 -15.1343,15.6269 -15.9366,4.7463 -13.5522,2.194" />
  <path
     style="fill:none;stroke:#803300;stroke-width:1px;stroke-linecap:butt;stroke-linejoin:round;stroke-opacity:1"
     id="path3829"
     d="m 172.1119,961.1269 8.6306,-2.2538 L 213.5,974 l 4.5,-1.25 7,-17.25" />
  <path
     style="fill:none;stroke:#803300;stroke-width:1px;stroke-linecap:butt;stroke-linejoin:round;stroke-opacity:1"
     id="path3825"
     d="M 414.5,460.5 415,458.25 404.25,452 403,448 602.0532,87.6672" />
</svg>
