<?xml version="1.0" encoding="UTF-8" standalone="no"?>
<svg
   xmlns:dc="http://purl.org/dc/elements/1.1/"
   xmlns:cc="http://creativecommons.org/ns#"
   xmlns:rdf="http://www.w3.org/1999/02/22-rdf-syntax-ns#"
   xmlns:svg="http://www.w3.org/2000/svg"
   xmlns="http://www.w3.org/2000/svg"
   xmlns:xlink="http://www.w3.org/1999/xlink"
   viewBox="0 0 650 950"
   height="950"
   width="650"
   id="svg2"
   version="1.1">
  <metadata
     id="metadata8">
    <rdf:RDF>
      <cc:Work
         rdf:about="">
        <dc:format>image/svg+xml</dc:format>
        <dc:type
           rdf:resource="http://purl.org/dc/dcmitype/StillImage" />
        <dc:title></dc:title>
      </cc:Work>
    </rdf:RDF>
  </metadata>
  <defs
     id="defs6" />
  <g
     id="g10">
    <image
       xlink:href="osm.png"
       width="621.70001"
       height="621.70001"
       preserveAspectRatio="none"
       id="image12"
       x="-25"
       y="250"
       style="display:none" />
    <path
       id="path837"
       d="m 513.68899,376.32356 -8.60468,-22.19371 -0.64979,-7.43325 -8.76107,-22.56579 -16.16841,-11.44674 -29.80568,-17.97739 -10.69213,-1.65176 -22.14116,4.04795 -7.15717,6.20835 -19.21443,31.35723 -15.49673,18.75739 -11.93584,5.67675 -11.81343,0.2166 -10.17013,-3.68903 -8.75909,-6.80509 -3.73408,-12.52912 -4.85282,-16.09708 -3.11347,-5.20702 -8.25663,-5.95562 -27.94943,-10.55156 -10.99337,0.30565 -8.40571,4.07901 -6.70437,6.28697 -3.98297,9.45388 -0.43319,8.70348 7.43203,18.08495 2.36961,6.19605 -11.11759,57.32433 2.14885,25.32194 2.15784,18.25538 6.02289,9.51123 6.18192,5.87168 25.49532,9.6687 9.64603,9.13916 3.60696,10.49388 0.56258,10.20907 -4.19946,11.05139 -7.93409,7.9854 -9.97173,3.53735 -9.22438,1.50741 -38.22551,1.74014 -17.04254,2.15161 -13.78908,5.3151 -12.98606,9.23493 -10.53801,14.91745 -12.60926,20.64898 -4.51125,14.08799 -0.99592,14.46155 2.54281,15.28533 32.08361,71.14887 0.13952,10.13984 -4.03298,13.00715 -42.59401,38.2173 -7.67158,11.29498 -2.66088,12.88051 1.96755,9.71305 20.6371,34.043"
       style="fill:none;stroke:#000000;stroke-width:3;stroke-linejoin:round" />
    <text
       x="89.453125"
       y="206.961"
       id="text3652"
       xml:space="preserve"
       style="font-style:normal;font-weight:normal;font-size:144px;font-family:Sans;-inkscape-font-specification:Sans;fill:#000000;fill-opacity:1;stroke:none"><tspan
         x="89.453125"
         y="206.961"
         id="tspan1">1994</tspan></text>
  </g>
</svg>
