<?xml version="1.0" encoding="UTF-8" standalone="no"?>
<svg
   xmlns:dc="http://purl.org/dc/elements/1.1/"
   xmlns:cc="http://creativecommons.org/ns#"
   xmlns:rdf="http://www.w3.org/1999/02/22-rdf-syntax-ns#"
   xmlns:svg="http://www.w3.org/2000/svg"
   xmlns="http://www.w3.org/2000/svg"
   xmlns:xlink="http://www.w3.org/1999/xlink"
   version="1.1"
   viewBox="0, 0, 3000, 3050"
   width="3000"
   height="3050"
   id="svg2">
  <metadata
     id="metadata8">
    <rdf:RDF>
      <cc:Work
         rdf:about="">
        <dc:format>image/svg+xml</dc:format>
        <dc:type
           rdf:resource="http://purl.org/dc/dcmitype/StillImage" />
        <dc:title></dc:title>
      </cc:Work>
    </rdf:RDF>
  </metadata>
  <defs
     id="defs6" />
  <image
     xlink:href="../streetmap/sacosm.png"
     id="image10"
     height="2639.1667"
     width="3167"
     y="-39.166664"
     x="0"
     style="display:none" />
  <path
     d="m 602.5,652.5 129,1 20,8.5 0,11 3,5.5 20.5,2.5 16.5,-5.5 16,-16.5 L 993,439.5 1099,312 l 33,-51.5 26,-24 35.5,-24 50.5,-29.5 41,-24.5 26.5,-16 45.5,-44.000001 24.5,-14 45.8835,-19.775428 83.3157,-10.32839"
     id="path3757"
     style="fill:none;stroke:#012a69;stroke-width:5;stroke-linecap:butt;stroke-linejoin:round;stroke-miterlimit:4;stroke-opacity:1;stroke-dasharray:none" />
  <path
     d="m 604.5,652 -36.5,19 -67.5,40.5 -10,22.5 -9.5,15 -75.5,42.5 -24.5,19 -16.5,26 -21.5,15 -69,43.5 -63.5,182 -5,1 -71.5,-25 -5,3 -20.5,60.2139 1.92957,3.5722 74.78686,25.6129 1.2884,3.6923 -13.80773,37.0193 2.49033,4.7788 80.92364,27.1959 3.8696,1.9051"
     id="path3759"
     style="fill:none;stroke:#012a69;stroke-width:1px;stroke-linecap:butt;stroke-linejoin:round;stroke-opacity:1" />
  <path
     d="M 149.50024,1058.4281 144,1061.5 l -20,58 3,6"
     id="path3761"
     style="fill:none;stroke:#012a69;stroke-width:1px;stroke-linecap:butt;stroke-linejoin:round;stroke-opacity:1" />
  <path
     d="m 2913.5,642.5 -1340,852 -47,25 -50.5,21.5 -43,13 -36.5,8 -30,4.5 -66.5,1 -65,-7.5 -54,-12.5 -104.5,-36.5 -23.5,0 -6.5,-3 -18.5,-12.5 -259,-91 -474,-165.5 -14,-16 -21.5,-7.5"
     id="path3763"
     style="fill:none;stroke:#ffcb00;stroke-width:5;stroke-linecap:butt;stroke-linejoin:round;stroke-miterlimit:4;stroke-opacity:1;stroke-dasharray:none" />
  <path
     d="m 262.57223,1216.149 -6.31617,0.7891 -80.53506,-26.9333 -1.88937,-3.9277 13.91354,-36.8848 -1.89904,-4.7884 -74.59541,-25.3683 -1.57163,-2.9647 22.53581,-66.3207 L 146.75,1003.5 144.25,999 92,982"
     id="path3765"
     style="fill:none;stroke:#ffcb00;stroke-width:1px;stroke-linecap:butt;stroke-linejoin:round;stroke-opacity:1" />
  <path
     d="m 144.5,999 17.25,6 0.96418,4.1793 -17.96418,53.1433 -19.60649,57.3916 2.14255,4.607"
     id="path3767"
     style="fill:none;stroke:#ffcb00;stroke-width:1px;stroke-linecap:butt;stroke-linejoin:round;stroke-opacity:1" />
  <text
     x="89.453125"
     y="2947.9609"
     id="text2990"
     xml:space="preserve"
     style="font-size:144px;font-style:normal;font-weight:normal;line-height:125%;letter-spacing:0px;word-spacing:0px;fill:#000000;fill-opacity:1;stroke:none;font-family:Sans;-inkscape-font-specification:Sans"><tspan
       x="89.453125"
       y="2947.9609"
       id="tspan2">2020</tspan></text>
  <text
     x="89.453178"
     y="206.96085"
     id="text2994"
     xml:space="preserve"
     style="font-size:143.99993896px;font-style:normal;font-weight:normal;line-height:125%;letter-spacing:0px;word-spacing:0px;fill:#000000;fill-opacity:1;stroke:none;font-family:Sans;-inkscape-font-specification:Sans"><tspan
       x="89.453178"
       y="206.96085"
       id="tspan1">2020</tspan></text>
  <path
     d="m 258,1220.5 20.5,7 10.5,12.5 0,17 -41,123 -8,47 5,50 48,201 212,873 40.5,172 0,11.5 -3.5,6 -2.5,9 8.5,51.5 6.5,29 2.5,29 6,11 9.5,8.5 10,3.5 14,2.5 70,-21 34,-19.5 6,-1.5 7.5,2.5 19.5,12 8,2 25,-2 190.5,62.5 20,3 83.5,3 14.5,2.5 6.5,6 5,8 -0.5,62.5"
     id="path2987"
     style="fill:none;stroke:#012a69;stroke-width:5;stroke-linecap:butt;stroke-linejoin:round;stroke-miterlimit:4;stroke-opacity:1;stroke-dasharray:none" />
</svg>
