<svg xmlns="http://www.w3.org/2000/svg" width="550" height="450"><path d="M225 241l8.5-5 3-1.5 9 6 5 13 11.5 21 4 1.5 10-6 5-10.5 9-6.5 13-5.5 5.5 1.5 9 19 6.5 5.5 21.5 45v4.5l-11 7.5-3.5.5-12-5.5-8-.5-31 17-16.5 9-2.5 5.5 9.5 25 .5 9-4.5 4.5-42 16h-19l-3.5-3-5.5-13 3-5 15.5-9 13.5-10.5 3.5-6.5-1-5-24-40.5-2-15v-35l1-7.5-3-8.5 4-11 4-1 8 2.5 6-2z" fill="none" stroke="#00f" stroke-width="5" stroke-linejoin="round"/><text x="89.453125" y="206.96094" style="line-height:125%;-inkscape-font-specification:Sans" font-size="144px" font-weight="400" letter-spacing="0" word-spacing="0" font-family="Sans"><tspan x="89.453125" y="206.96094">2015</tspan></text></svg>