<?xml version="1.0" encoding="UTF-8" standalone="no"?>
<svg
   xmlns:dc="http://purl.org/dc/elements/1.1/"
   xmlns:cc="http://creativecommons.org/ns#"
   xmlns:rdf="http://www.w3.org/1999/02/22-rdf-syntax-ns#"
   xmlns:svg="http://www.w3.org/2000/svg"
   xmlns="http://www.w3.org/2000/svg"
   xmlns:xlink="http://www.w3.org/1999/xlink"
   version="1.1"
   width="1700"
   height="1800"
   viewBox="-25 -75 1700 1800"
   id="svg2">
  <metadata
     id="metadata28">
    <rdf:RDF>
      <cc:Work
         rdf:about="">
        <dc:format>image/svg+xml</dc:format>
        <dc:type
           rdf:resource="http://purl.org/dc/dcmitype/StillImage" />
        <dc:title></dc:title>
      </cc:Work>
    </rdf:RDF>
  </metadata>
  <defs
     id="defs6" />
  <image
     xlink:href="../../timelines/streetmap/bososm.png"
     id="image12"
     height="3745.3845"
     width="3246"
     y="-45.384521"
     x="-500"
     style="display:none" />
  <path
     d="m 806.9832,622.7375 32.1869,1.9507 13.655,-5.8522 8.7783,-7.8029 9.7536,-11.7043 23.4086,-4.8768 90.7086,9.7536 29.2608,2.9261 32.1869,10.729 15.6057,14.6304 7.8029,15.6057 2.9261,89.7332 -2.9261,32.1869 -11.7043,136.5505 7.8029,19.5072 9.7536,17.5565 -0.9754,24.384 8.7783,8.7783 25.3594,11.7043 36.0883,41.9405 53.6448,28.2855 77.0535,63.3984 15.6058,6.8275 229.2097,23.4087 102.4129,12.6797 15.6057,6.8275 39.9898,35.113 58.5217,43.8912 35.1129,32.1869 50.7188,28.2854 6.8275,15.6058 -2.9261,15.6058 -47.7926,84.8564 -7.8029,18.5318 4.8768,164.8359 v 41.9405 l -9.7536,18.5319 0.9753,9.7536 32.1869,37.0637 19.5073,25.3594 13.655,38.039 0.9754,89.7332 -15.6058,56.5709 -12.6797,37.0637 -14.6304,97.5361 -2.9261,19.5072 -9.7536,13.6551 -20.4826,3.9014 h -25.3593 l -38.0391,13.655 -19.5072,18.5319 -6.8275,32.1869 9.7536,54.6202 19.5072,118.994 40.9651,79.0042 16.5812,50.7187 -0.9754,21.458 -47.7927,45.8419 -20.4825,17.5565 -21.458,6.8275 -25.3594,0.9754 -26.3347,-0.9754 -53.6448,9.7536 -109.2404,37.0637 -39.9898,-9.7536 -14.6304,0.9754 -20.4826,6.8275"
     id="path2818"
     style="fill:none;stroke:#f2f2f2;stroke-width:4.99999094;stroke-linecap:butt;stroke-linejoin:round;stroke-miterlimit:4;stroke-dasharray:none;stroke-opacity:1" />
  <path
     d="m 1790.1466,2056.5175 5.8522,30.2362 24.384,40.9652 198.9736,236.0372 26.3347,37.0637 18.5319,52.6695 63.3984,82.9056 219.4561,281.8792 19.5072,34.1377 13.6551,30.2361 4.8768,30.2362 -13.6551,75.1028 -28.2854,152.1562 2.9261,36.0884 14.6304,37.0637 56.5709,109.2404 7.8029,39.0144 -20.4826,165.8113"
     id="path3592"
     style="fill:none;stroke:#f2f2f2;stroke-width:4.99999094;stroke-linecap:butt;stroke-linejoin:round;stroke-miterlimit:4;stroke-dasharray:none;stroke-opacity:1" />
  <path
     d="m 1719.9207,1161.1365 17.5565,10.729 9.7536,21.4579 30.2361,4.8768 48.7681,-8.7782 54.6202,-14.6304 87.7824,-122.8955 41.9405,-53.6448 3.9015,-4.8768 34.1376,-1.9507 11.7043,-4.8768 86.8071,-101.4375 30.2362,-16.5812 h 40.9651 l 16.5812,-1.9507 66.3245,-69.2506 120.9447,-52.6695 33.1622,-32.1869 56.571,-112.1664 10.7289,-39.0145 -15.6057,-138.5012 3.9014,-39.9897 15.6058,-43.8913"
     id="path3594"
     style="fill:none;stroke:#f2f2f2;stroke-width:4.99999094;stroke-linecap:butt;stroke-linejoin:round;stroke-miterlimit:4;stroke-dasharray:none;stroke-opacity:1" />
  <path
     d="m 1618.4832,-14.173 -4.8768,46.8173 -7.8029,33.1623 -50.7188,163.8606 -3.9014,45.8419 -3.9014,335.524 5.8521,199.949 -2.9261,63.3984 20.4826,39.0144 25.3594,29.2608 48.768,38.0391 88.7578,106.3143 35.113,48.768 -1.9507,64.3738 -4.8768,16.5812 -38.0391,50.7187 -8.7782,13.6551 -1.9508,18.5318 -14.6304,39.9898 -3.9014,11.7043 -33.1623,21.458 -92.6592,-0.9754 -15.6058,7.8029 -140.4519,159.9591 -76.0781,84.8564 -25.3594,58.5216 -12.6797,47.7927 -44.8666,81.9303 -17.5565,33.1622 -13.655,57.5463 -30.2362,62.4231 -66.3245,126.7969"
     id="path3596"
     style="fill:none;stroke:#f2f2f2;stroke-width:4.99999094;stroke-linecap:butt;stroke-linejoin:round;stroke-miterlimit:4;stroke-dasharray:none;stroke-opacity:1" />
  <path
     d="m 1269.3041,1373.7651 -3.9015,9.7536 -13.655,12.6797 -74.1274,62.4231 -18.5319,32.1869 -10.7289,42.9159 -21.458,43.8912 -39.0144,32.1869 -71.2013,12.6797 h -55.5956 l -51.6941,-11.7044 -68.2752,-49.7433 -22.4333,-9.7537 -28.2855,-1.9507 -38.039,10.729 -27.3101,5.8522 -150.2055,118.9939 -23.4087,6.8276 H 528.03 l -114.11714,-29.2608 -106.3143,-27.3101 -30.23618,0.9753 -35.11298,12.6797 -148.25481,100.4621 -19.50721,30.2362 -33.16226,39.0144 -17.55649,8.7783 -17.55649,3.9014 -25.35938,-6.8275 -168.73738,-109.2404 -39.98978,-36.0883 -19.50721,-17.5565 -199.94892,-135.5751"
     id="path3604"
     style="fill:none;stroke:#f2f2f2;stroke-width:4.99999094;stroke-linecap:butt;stroke-linejoin:round;stroke-miterlimit:4;stroke-dasharray:none;stroke-opacity:1" />
  <path
     d="m 1326.8504,1352.3072 -123.7961,43.8163"
     id="path3599"
     style="fill:none;stroke:#f2f2f2;stroke-width:4.99999094;stroke-linecap:butt;stroke-linejoin:round;stroke-miterlimit:4;stroke-dasharray:none;stroke-opacity:1" />
  <path
     d="m 1522.8978,1340.6029 1.9508,14.6304 -2.9261,19.5072 -75.1028,86.8071 -15.6058,11.7043 -23.2093,12.5055"
     id="path3603"
     style="fill:none;stroke:#f2f2f2;stroke-width:4.99999094;stroke-linecap:butt;stroke-linejoin:round;stroke-miterlimit:4;stroke-dasharray:none;stroke-opacity:1" />
  <path
     d="m 1760.8858,1168.4517 -0.089,5.8319 -8.6895,12.2123"
     id="path3880"
     style="fill:none;stroke:#f2f2f2;stroke-width:4.99999094;stroke-linecap:butt;stroke-linejoin:round;stroke-miterlimit:4;stroke-dasharray:none;stroke-opacity:1" />
  <text
     x="64.953133"
     y="131.46094"
     id="text10393"
     xml:space="preserve"
     style="font-style:normal;font-weight:normal;font-size:143.99993896px;font-family:Sans;-inkscape-font-specification:Sans;fill:#000000;fill-opacity:1;stroke:#f2f2f2"><tspan
       x="64.953133"
       y="131.46094"
       id="tspan1"
       style="stroke:#f2f2f2">1990</tspan></text>
  <path
     d="m 1352.2039,1351.332 h -44.8666 l -25.1093,-4.3632"
     id="path3601-0"
     style="fill:none;stroke:#f2f2f2;stroke-width:4.99999094;stroke-linecap:butt;stroke-linejoin:round;stroke-miterlimit:4;stroke-dasharray:none;stroke-opacity:1" />
  <path
     style="fill:none;fill-rule:evenodd;stroke:#00ee00;stroke-width:3;stroke-linecap:butt;stroke-linejoin:round;stroke-miterlimit:4;stroke-dasharray:none;stroke-opacity:1"
     d="m 1039.297,978.1225 -5.4801,0.7071 -39.0677,-19.4454 -124.274,-10.7834 -15.3795,5.1265 -57.0989,-9.5459 -32.7037,1.591 -40.3051,9.1924 -34.6482,14.3189 -39.598,20.8596 -30.7591,25.4559 -4.4195,3.7123 -5.3033,1.4142 -10.6066,0.3536 -33.5875,-8.4853 -9.1924,0.8839 -24.572,12.3743 -7.0711,0.7071 -41.7193,-1.7677 -10.42978,2.4749 -28.46105,15.5563 -8.66205,4.9498 -17.32412,3.7123 -19.44544,2.8284 -9.19238,6.3639 -14.31892,9.0157 -10.42982,10.0762 -12.37437,6.5408 -13.61181,6.8943 -12.02081,6.7175 -9.19239,2.6516 -2.82843,-1.4142 v -6.8943 l 3.18198,-1.7677 6.18719,4.4194 4.41942,1.9445"
     id="path4506" />
  <path
     style="fill:none;fill-rule:evenodd;stroke:#00ee00;stroke-width:3;stroke-linecap:butt;stroke-linejoin:miter;stroke-miterlimit:4;stroke-dasharray:none;stroke-opacity:1"
     d="m 724.988,954.9648 -67.3519,-7.955 -38.8909,-17.1473 -28.1075,-7.7782 -30.9359,-1.2374 -63.8164,-13.9654 -25.63261,-20.1525 -26.87005,-20.6829 -18.38478,-10.2531 -42.42641,-16.617 -7.24784,-6.0104 -30.75915,-38.7141 -17.14734,-9.7227 -58.3363,-27.4004 h -3.53554 l -11.31371,6.364 -1.76776,-1.4142 -1.23744,-6.5408 2.65165,-3.7123 3.88909,-0.3535 10.78338,5.3033"
     id="path4508" />
  <path
     style="fill:none;fill-rule:evenodd;stroke:#999999;stroke-width:3;stroke-linecap:butt;stroke-linejoin:round;stroke-miterlimit:4;stroke-dasharray:none;stroke-opacity:1"
     d="m 1061,936.375 -1.8156,1.5309 -3.9775,-0.884 -16.7055,-10.9601 -8.2156,-11.2325 -12.2904,-18.8196 -79.3576,-59.2139 -112.0032,-66.7395 -41.7193,-31.8198 -73.5391,-21.2132 -68.059,-12.0208 -4.2427,1.4142 v 11.137 l -6.8943,39.9515 -2.8284,7.7782 -5.1265,4.0658 -22.981,4.5962 -7.2478,-3.8891 0.7071,-52.6794 1.0606,-18.208 -2.8284,-5.4801 -86.9741,-33.234 -74.423,-30.5824 -1.76777,-2.8284 -1.94454,-16.0867 2.29809,-6.7175 9.54595,-13.0815 3.71231,-0.5303 15.37957,7.2478 0.88388,3.8891 -7.95495,14.3189 -4.06586,2.1214 -15.55635,-0.5304 -3.35876,3.182"
     id="path4532" />
  <path
     style="fill:none;fill-rule:evenodd;stroke:#00ee00;stroke-width:3;stroke-linecap:butt;stroke-linejoin:round;stroke-miterlimit:4;stroke-dasharray:none;stroke-opacity:1"
     d="m 1066.125,932.375 -2.375,2.625 0.4179,2.9179 -4.3991,3.2071 -5.2045,-1.3081 -17.9545,-11.8901 -6.8383,-9.4608 1.6035,-4.466 16,-7.375 h 7.5 l 2,2.25 8.25,21.125"
     id="path4510" />
  <path
     style="fill:none;fill-rule:evenodd;stroke:#00ee00;stroke-width:3;stroke-linecap:butt;stroke-linejoin:miter;stroke-miterlimit:4;stroke-dasharray:none;stroke-opacity:1"
     d="m 1029.7715,918.466 -13.9786,-20.3687 -78.8496,-59.2748 -3.8891,-0.1768 -10.6066,11.1369 -4.4194,1.2375 -25.4559,-1.591 -44.5477,5.3033 -65.2609,18.0955 -8.7656,5.614 -11.2013,11.0763 -9.8781,3.5747 -1.4142,3.0052 14.1422,45.6084"
     id="path4512" />
  <path
     style="fill:none;fill-rule:evenodd;stroke:#00ee00;stroke-width:3;stroke-linecap:butt;stroke-linejoin:miter;stroke-miterlimit:4;stroke-dasharray:none;stroke-opacity:1"
     d="M 1025.7736,912.8919 1031.375,914"
     id="path4514" />
  <path
     style="fill:none;fill-rule:evenodd;stroke:#999999;stroke-width:3;stroke-linecap:butt;stroke-linejoin:miter;stroke-miterlimit:4;stroke-dasharray:none;stroke-opacity:1"
     d="m 1068.1464,929.3169 -8.4785,-21.2589 -0.7487,-4.4469 10.695,-134.527 -1.2375,-14.5841 -5.3916,-23.0694 -5.6569,-7.513 -10.9602,-11.844 -25.279,-16.4402 -102.3537,-119.5011 -12.0208,-8.8388 -24.572,-14.1422 -16.9706,-14.1421 -111.8996,-119.8546 -9.8995,-18.3848 -15.026,-35.1785 -16.9706,-19.9758 -13.6118,-11.844 -27.7539,-13.7886 -44.5478,-8.6621 -58.1595,-11.4905 -26.5165,-15.20279 -77.95853,-55.50781 -22.09708,-22.0971 -41.7193,-13.6118 -57.45243,-2.4749 -22.62742,-5.3033"
     id="path4516" />
  <path
     style="fill:none;fill-rule:evenodd;stroke:#999999;stroke-width:3;stroke-linecap:butt;stroke-linejoin:miter;stroke-miterlimit:4;stroke-dasharray:none;stroke-opacity:1"
     d="m 1065.125,931.375 -4,1.75 -0.125,3.25 -0.3701,0.33352"
     id="path4522" />
  <path
     style="fill:none;fill-rule:evenodd;stroke:#ff0000;stroke-width:8;stroke-linecap:butt;stroke-linejoin:miter;stroke-miterlimit:4;stroke-dasharray:none;stroke-opacity:1"
     d="m 1036.9868,978.6969 17.6036,-5.5242 11.6548,-3.2237 4.2155,-4.4635 1.2399,-9.175 1.5156,-8.5819 -1.9379,-11.8086 -5.2811,-6.8866"
     id="path4504" />
  <path
     style="fill:none;fill-rule:evenodd;stroke:#999999;stroke-width:3;stroke-linecap:butt;stroke-linejoin:round;stroke-miterlimit:4;stroke-dasharray:none;stroke-opacity:1"
     d="m 1051.4946,717.5537 1.591,-6.364 14.8492,-12.9047 1.591,-3.8891 -13.9654,-22.0971 -10.253,-23.8648 -10.2531,-21.39 v -6.364 l 10.9602,-28.6378 6.5407,-5.6568 20.3293,-11.6673 21.9204,-20.6829 4.5962,-1.591 3.889,-5.3033 -0.8838,-4.0658 -3.3588,-1.9446 -3.5355,-3.3587 -6.5408,-60.4577 7.955,-15.9099 v -6.8943 l -18.208,-30.4055 -26.8701,-26.6933 -8.8388,-6.8943 -0.8839,-5.6569 17.1473,-36.0624 3.182,-1.591 72.6552,37.8302 28.2843,-4.5962 3.182,-3.0052 -1.4142,-16.7938 3.0052,-54.0936 10.7834,-21.03649 5.8336,-3.182 25.4558,-2.8284 3.3588,3.7123 -1.591,12.3744 1.4142,2.4749 4.0659,2.82839 1.9445,3.3588 -1.2374,4.2426 -4.4194,4.9497 -6.0104,2.2981 -3.8891,-1.9445 -0.3536,-2.4749 0.1768,-3.0052 2.8284,-7.7782 -0.7071,-2.12129 -21.5667,-11.6672 -7.2479,2.2981"
     id="path4528" />
  <path
     style="fill:none;fill-rule:evenodd;stroke:#999999;stroke-width:3;stroke-linecap:butt;stroke-linejoin:round;stroke-miterlimit:4;stroke-dasharray:none;stroke-opacity:1"
     d="m 1095.512,537.7718 -0.762,3.7282 -1.75,2.625 -1.875,3.125 v 2.125 l 1.5,2.375 -0.125,4"
     id="path4530" />
  <path
     style="fill:none;fill-rule:evenodd;stroke:#999999;stroke-width:3;stroke-linecap:butt;stroke-linejoin:miter;stroke-miterlimit:4;stroke-dasharray:none;stroke-opacity:1"
     d="m 1027.4529,909.9751 3.3588,0.7955 15.8215,-6.8943 8.5737,-0.3535 4.461,4.5353"
     id="path4534" />
  <path
     style="fill:none;fill-rule:evenodd;stroke:#999999;stroke-width:3;stroke-linecap:butt;stroke-linejoin:miter;stroke-miterlimit:4;stroke-dasharray:none;stroke-opacity:1"
     d="m 826.6346,770.0563 -4.7596,2.4437 -1,15.75 -18.125,36.875 -18,25.125 -3.375,5.375 -0.875,6.75 0.625,5.875 -0.875,2.75 -8.75,5.875 -10.125,10 L 747,892 718.25,884.75 706,875.375 l -13.625,-2.5 -10.625,-9.375 -7.625,-2.75 -10,-9.375 -31.5,-11.875 -2.625,-1.625 -1.375,-6.75 -27.3807,-57.1796"
     id="path4536" />
  <path
     style="fill:none;fill-rule:evenodd;stroke:#999999;stroke-width:3;stroke-linecap:butt;stroke-linejoin:round;stroke-miterlimit:4;stroke-dasharray:none;stroke-opacity:1"
     d="M 643.3172,705.0025 635.75,698.75 616,610.75 609.75,603 l -28,-17.75 -12.8558,-32.8058 1.2374,-5.6568 35.7089,-30.5824 0.5304,-5.4801 -15.7332,-9.8995 -13.2582,-3.0052 -9.8995,-9.0156 -7.7782,-4.0658 v -2.1214 l 6.7175,-7.9549 -0.8839,-3.3588 -23.5113,-9.5459 -27.2236,-13.2583 -31.64301,-17.1473 -44.54772,-17.6777 -20.5061,-7.7781 -53.91689,-13.0815 -5.48008,-3.8891 -2.65165,-28.9914 -2.12132,-9.7227 -39.24443,-63.9932 -6.89428,-16.617 -5.48009,-14.8492 -7.42462,-4.0659 h -7.07106 l -26.51651,15.5564 -11.31371,7.071 -4.06586,1.0607 h -5.3033 l -3.35876,-1.76779 -8.3085,-6.1872 -4.06587,-0.70711 -15.20279,3.71231 h -7.07107 l -9.54594,-1.2374 -13.25826,9.01559 -6.71751,10.78341 -12.37437,12.90469 -3.88909,0.7071 -22.80419,-6.364 -4.59619,-3.18189 -7.42463,-11.137 -3.18198,-4.7729 -6.89429,-1.9446 -7.95495,2.4749 -12.02081,5.30329 -1.41422,4.06591 4.41942,6.7175 3.53553,9.19239 0.53033,5.1265 -1.94454,4.4194 -4.94975,4.0659 -6.18718,1.0606 h -5.12653 l -5.48007,-2.4748 -3.53554,-4.773 0.53033,-5.8337 3.18198,-2.8284 4.24264,-1.06059 13.08148,-0.35361 16.44023,1.7678 37.12311,7.9549 15.20279,4.4194 49.49748,19.799 4.24264,-0.7071 3.0052,-7.2478 -2.29809,-3.0052 -24.04163,-8.6621 -27.22361,-9.1924 -3.00521,-4.0658"
     id="path4538" />
  <path
     style="fill:none;fill-rule:evenodd;stroke:#999999;stroke-width:3;stroke-linecap:butt;stroke-linejoin:miter;stroke-miterlimit:4;stroke-dasharray:none;stroke-opacity:1"
     d="m 353.93373,350.2117 11.84404,-7.6014 h 4.59619 l 3.00521,2.4749 4.06586,0.1767 3.71231,-1.4142 3.0052,-3.1819 0.17678,-5.1266 -5.3033,-4.9497 -4.77297,-0.3536 -3.18198,2.4749 -6.01041,10.0763"
     id="path4540" />
  <path
     style="fill:none;fill-rule:evenodd;stroke:#999999;stroke-width:3;stroke-linecap:butt;stroke-linejoin:miter;stroke-miterlimit:4;stroke-dasharray:none;stroke-opacity:1"
     d="m 1037.1757,615.3767 1.9445,3.182 16.7938,4.5962 1.0606,1.4142 0.5304,1.4142 -1.7678,4.4195 v 2.1213 l 8.3085,5.1265 0.3536,2.1213 -0.7071,3.3588 -10.2531,13.6118 -1.4142,1.7678 -0.7071,3.5355"
     id="path4542" />
  <path
     style="fill:none;fill-rule:evenodd;stroke:#999999;stroke-width:3;stroke-linecap:butt;stroke-linejoin:round;stroke-miterlimit:4;stroke-dasharray:none;stroke-opacity:1"
     d="m 358.7067,388.9258 1.76777,11.844 5.48007,4.5962 11.66727,1.9446 31.8198,5.6568 24.04163,8.3085 33.23402,15.2028 51.97234,25.9862 32.3501,19.799 v 3.3587 l -13.7885,14.4957 -1.0607,5.3033 32.7037,47.0226"
     id="path4590" />
  <path
     d="m 1540.4542,1010.9313 29.2607,8.7782 96.5607,65.3492 25.3594,11.2166 13.1674,17.5565 27.7978,-18.0441 28.2854,39.9897 0.9754,32.1869 -16.5812,7.8029 5.8522,12.6797 -22.4333,37.0637 -27.3101,35.113 -15.6057,33.1623 -29.2609,-0.9754 -217.5053,77.0535 -26.3347,-5.8522 h -39.0144 l -21.458,-12.6797 h -44.8666"
     id="path3598"
     style="fill:none;stroke:#f2f2f2;stroke-width:4.99999094;stroke-linecap:butt;stroke-linejoin:round;stroke-miterlimit:4;stroke-dasharray:none;stroke-opacity:1" />
  <path
     style="fill:none;fill-rule:evenodd;stroke:#00ee00;stroke-width:3;stroke-linecap:butt;stroke-linejoin:round;stroke-miterlimit:4;stroke-dasharray:none;stroke-opacity:1"
     d="m 1056.875,908.875 -0.8034,-6.46874 10.878,-132.8843 -1.7677,-15.02602 -4.5962,-21.74353 -5.2534,-7.01284 -10.6565,-11.54871 -24.572,-15.90991 -69.11967,-80.61017"
     id="path8241" />
</svg>
