<svg xmlns="http://www.w3.org/2000/svg" height="6150" width="7300" viewBox="-2336, -220, 7300, 6150"><text style="font-style:normal;font-weight:400;font-size:144px;line-height:125%;font-family:Sans;-inkscape-font-specification:Sans;letter-spacing:0;word-spacing:0;fill:#000;fill-opacity:1;stroke:none" xml:space="preserve" y="5827.96" x="-2246.55"/><text style="font-style:normal;font-weight:400;font-size:144px;line-height:125%;font-family:Sans;-inkscape-font-specification:Sans;letter-spacing:0;word-spacing:0;fill:#000;fill-opacity:1;stroke:none" xml:space="preserve" y="-13.04" x="-2246.55"><tspan y="-13.04" x="-2246.55">1920</tspan></text><path d="M4288.92 2910.264275.02932.5l-25 27-24.75 28.5-25.5 36.5-15.5 18-20.75 20-44.25 19.5-57.75 22.5-38.25 17-24.75 9.25-22.05.25-29.25 2.5-29.5-.5-21-4-22.75-11.75-26.75-18-32-13.5-25.75-6.25-23-1.25-25.75 7-25.75.5-62-14.75-48.5 6.75-29.5-1.75-55.5-18.5-36.5-11-24.5-15.5-40.5-14-24.5-6-52.25-3.5-97.75-38-28.5-8.25-42.5-18.75-18.5-10.5-39-25.5-75.5-67.5-36-12.5-22-7-25-2.5-24.5-6-35.5-27.5-25-32.5-27.5-21.5-31-31.5-22.5-13-40-27" style="fill:none;stroke:#0098cd;stroke-width:5;stroke-linecap:butt;stroke-linejoin:round;stroke-miterlimit:4;stroke-dasharray:none;stroke-opacity:1"/></svg>