<svg xmlns="http://www.w3.org/2000/svg" viewBox="-2336, -220, 7300, 6150" height="6150" width="7300"><path d="M4356.695 2712.682l-1.695 14.817-5 33.5-6 20.5-15 27.5-5.648 28.764-2.824 20.37-12.377 46.31-21.245 36.576-50.311 55.802-24.699 35.396-18.113 21.67-20.075 19.443-32.538 14.623-66.36 27.048L4050.5 3134l-18.24 26.162-9.112 19.775-12.388 58.549-10.774 21.387-14.888 17.887-24.273 13.603-64.294 20.14-25.563 16.655-110.385 87.146-25.175 19.753-53.837 38.344-18.978 26.337" fill="none" stroke="#005aa3" stroke-width="5" stroke-linejoin="round"/><path d="M4277.208 2638.88l2.292 27.62 5 55.5 5.25 35-5 21.5-2 10.25 7.25 12.5 20.25 22 4.25 10" fill="none" stroke="#df4825" stroke-width="5" stroke-linejoin="round"/><path d="M4313.659 2831.368l.863 3.05-3.702 23.784-11 43.155-20.952 33.952-21.714 23.511-27.297 31.048-10.894 14.798-16.059 23.261-17.94 20.834-17.416 17.262-32.012 13.904-32.036 13.048-33.582 13.309L4044.75 3127l-13.5 16.5-7.75 13.5-10 19.75-12.25 58.25-8.75 17.5-14.25 18L3957 3283l-65 19.75-25.5 16.75-122 96-18.5 4.5-19.5-3.5-91.5-30-38-17.5-39-22-20-4.5-32.5 1-27 .5-19-8-43-23-17-2-20 4.5-21.5 11.5-52 34-33.5 8-39 6-19-2-87-58-17.5-4.5-20-1-146 30-26 23-37.5 46.5-19.5 14-32 11.5-56 4-60 12-45 18.5-203 81-29 7-54 5-26.5-4-24.5-18.5-90-88.5-27.5-10-38-1.5-77 8" fill="none" stroke="#df4825" stroke-width="5" stroke-linejoin="round"/><text style="line-height:125%;-inkscape-font-specification:Sans" y="5827.9609" x="-2246.5469" font-weight="400" font-size="144px" font-family="Sans" letter-spacing="0" word-spacing="0"/><text style="line-height:125%;-inkscape-font-specification:Sans" y="-13.03906" x="-2246.5469" font-weight="400" font-size="144px" font-family="Sans" letter-spacing="0" word-spacing="0"><tspan y="-13.03906" x="-2246.5469">1940</tspan></text><path d="M2683 4268l3-9.5 19.5-26.5 25.5-24 25-14 127.5-21 18.5 3 22 7.5 37 25.5 27.5 14 68 .5 54.5 20 24 1 98-22 52.5-15 26-14 16.5-18 10-27.5 17.5-70 18-55.5 30.5-64.5 40.5-98 18.5-31.5 36.5-36 14-18 31-80 10.5-21.5 10.5-17.5 57.465-58.809 16.877-23.825 8.216-18.075 7.121-35.056 9.038-22.184" fill="none" stroke="#005aa3" stroke-width="5" stroke-linejoin="round"/><path d="M1715.183 1901.3l8.817 5.2 17 22.5 8.5 26 2.5 25-8.431 36.375 1.523 39.194 11.515 32.542 11.603 21.139 35.618 27.664 94 72 103.293 108.793 69.914 70.414 32.147 49.586 68 118.56 26.914 43.062L2219 2612.5l23 7 25.146 3.707 90.208 1.647 24.06-2.147 45.318-8 52.768-1 61 15.793 38 5.207 38-6.207 35.232-2.293L2688 2633.5l65.329 25.06 39.292 27 22.5 13 32.415 33.268 27.146 20.44 25.707 32.853 34.086 26.44 24.146 5.646 22.88 1.793 22 7 37.767 13.56 77.621 68.208 35.818 23.732 17.793 10.5 43.207 19.457L3243.5 2969l99.518 39.06 50.482 2.794 24.5 5.646 40.5 14 24.5 15.5 36.5 11 57.25 19.25 26.69 1.354 49.207-6.397 62.707 14.75 23.628-.5 26.268-6.957 24 1.5 26 5.25 34.475 14.56 24.629 17.294L3899 3129.75l18.75 2.75 29.25 1 27.379-2.293 24.121-5.957 23.69-8.543L4061.5 3099l57.75-22.5 41.422-18.44 23.225-22.12 13.378-16.94 24.793-34.732 27.579-32.036 21.671-22.171 11.1-18.487 8.88-13.948 10.07-41.299 3.468-25.22-21.207-23-9.768-15.622-.328-4.446 6.017-30.84-5.103-35-5.25-61.913-3.293-41.965-.75-24.164 8.05-27.253 10.857-23.697 45.621-88.293L4359 2399.25l3-19.75-1.737-22.05-7.763-28.45-15-33.5-17.5-20.5-18-8-42.5-8.5-36.5-10-25-6.5-18-12.5-10-18-2-21V2170l-7-14-15-9.5h-26.5l-13-7.5-7-12.5 2-16.5 6-8.5 26-11 13-13 3.5-18-5-21-12.5-34-12.5-90V1874l-5.5-21-16.5-29.5-26.5-23.5-55-26.5-31-34-17-31.5-6.5-46.5V1589l-.5-72.5-.5-51-16.5-43.5-31.5-29-52-30.5-24-22-16.5-28-5.5-43.5-34.5-58-110.5-173-65.5-103.5-13-20.5-18-9-25.5-11-19-24.5-24.5-55.5-13-13-62.5-31.5-23-18.5-184-243-23.5-41.5-33-70-25-28.5-38.5-36-122-77-72-71.5-3-12.5 4.5-25" fill="none" stroke="#f99d1c" stroke-width="5" stroke-linejoin="round"/><path d="M4272.476 2639.23l2.024 23.02 5.25 60.5 4.75 35-4.25 22-2.5 9.75 8 13.5 20.5 23 3.25 8.25-3 21.5-11 44-20.5 32.75-25 27-24.75 28.5-25.5 36.5-15.5 18-20.75 20-44.25 19.5-57.75 22.5-38.25 17-24.75 9.25-22 5.25-29.25 2.5-29.5-.5-21-4-22.75-11.75-26.75-18-32-13.5-25.75-6.25-23-1.25-25.75 7-25.75.5-62-14.75-48.5 6.75-29.5-1.75-55.5-18.5-36.5-11-24.5-15.5-40.5-14-24.5-6-52.25-3.5-97.75-38-28.5-8.25-42.5-18.75-18.5-10.5-39-25.5-75.5-67.5-36-12.5-22-7-25-2.5-24.5-6-35.5-27.5-25-32.5-27.5-21.5-31-31.5-22.5-13-40-27" fill="none" stroke="#0098cd" stroke-width="5" stroke-linejoin="round"/><path d="M4351.747 2712.023l-1.684 15.61-4.813 33.367-6.25 19.75-14 25-6.525 31.11-2.476 20.14-11.88 45.809-11.453 19.048-9.952 16.309-25 27.643-24.254 27.526-9.582 12.866-16.564 23.776-17.903 21.154-19.09 18.39-32.209 14.76-39.188 15.51-26.764 11.058-23.953 19.297-12.673 16.273-7.534 12.58-9.5 19-12 57-10 21-14.5 17.5-23.5 14-63.5 19.5-26.5 17-132.5 104.5-58 41.5-19.5 27.5-7.5 22-7 33.5-8 17.5-17.417 23.453-17.206 12.25" fill="none" stroke="#00954c" stroke-width="5" stroke-linejoin="round"/><path d="M3603.846 3605.078L3589.5 3611H3566l-44.5-7.5-23 4-147.5 55-27-2-40.5-13.5-25 5-27 10-27 17-33.5 16.5-23 27.5-24.5 18.5-36.5 9-76.5 9-31.5 14-48.071 23.043" fill="none" stroke="#00954c" stroke-width="5" stroke-linejoin="round"/></svg>