<svg xmlns="http://www.w3.org/2000/svg" viewBox="-2336, -220, 7300, 6150" height="6150" width="7300"><path d="M4835.5 3039.5l-25-3.5-21.5-5.5-15.5-7.5-13-14.5-9.5-23-2-28.5v-25.5l-10.5-28.5-16.5-34-14-12-21 1.5-21.5-6.5-27-8.5-29.5-21-68-13.5-29.5-15.5-25-14-27-15-14-11.5-15-27.5-10.5-17.5-14.5-14.5-21.5-10.5-29.5-5-24.5-2-14 5.5-8.5 12-2.5 33.5-7.5 16-4 18.5-14.5 59 5 26.5 15 28.5 5.5 43-13 24.5-33 41-24.5 21.5-38 44-9 16-12.5 41.5-7.5 14-13.5 11.5-78 3.5-27 8.5-20.5 14.5-9.5 19-12 57-10 21-14.5 17.5-23.5 14-63.5 19.5-26.5 17-132.5 104.5-58 41.5-19.5 27.5-7.5 22-7 33.5-8 17.5-15.5 24-55 61-10.5 17.5-10.5 21.5-31 80-14 18-36.5 36-18.5 31.5-40.5 98-30.5 64.5-18 55.5-17.5 70-10 27.5-16.5 18-26 14-52.5 15-98 22-24-1-54.5-20-68-.5-27.5-14-37-25.5-22-7.5-18.5-3-127.5 21-25 14-25.5 24-19.5 26.5-16 47-13.5 24-6.5 16 2.5 30.5 7.5 36.5-2.5 21-24 37-2 49.5-11.5 26.5-102 124.5-17 24-2 32 5.5 24.5 19 33.5 6 22.5-4 18-17 22-23.5 24.5-13 33-.5 33 6 48v30.5L2466 5052l-21.5 42-59 93.5-26 43v20l8 14.5 11 10 17 1.5 16-5 26.5-10 70.5-1.5 42.5-11 82-3.5 116 1 86 3.5 134 19.5 53 9.5 52 15 55 20 19 13.5 22.5 16 17.5 3.5 45 3 15 3.5 174 73 25 6.5 32.5 6.5 15 6 11.5 11 10 13 12 21 15.5 15 25.5 18.5 8 15.5 6.5 39.5" fill="none" stroke="#005aa3" stroke-width="5" stroke-linejoin="round"/><path d="M3947.896 1430.463L3927.5 1376l-23.5-32-40-21-25-6-32.5 3.5-25.5 12.5-22.5 18-19.5 29-17.5 50-16 25.5-30.5 33-40 44-27 19-40.5 16.5-32 6.5-40.5-2-93.5-26.5-25.5-11.5-27-24.5-14.5-42.5-8.5-24-18-19.5-162-146-21-17.5-17.5-9-19.5-7-27.5.5-32 7-86.5 32.5-127.5 44.5-23 3-25.5-5.5-20.5-11.5-14.5-16-11-33" fill="none" stroke="#f99d1c" stroke-width="5" stroke-linejoin="round"/><path d="M4340.25 2575.5l-15.225-1.805-27.775-1.945-14.5 5.25-13 17 .75 22.75 4 45.5 5.25 60.5 4.75 35-4.25 22-2.5 9.75 8 13.5 20.5 23 3.25 8.25-3 21.5-11 44-20.5 32.75-25 27-24.75 28.5-25.5 36.5-15.5 18-20.75 20-44.25 19.5-57.75 22.5-38.25 17-24.75 9.25-22 5.25-29.25 2.5-29.5-.5-21-4-22.75-11.75-26.75-18-32-13.5-25.75-6.25-23-1.25-25.75 7-25.75.5-62-14.75-48.5 6.75-29.5-1.75-55.5-18.5-36.5-11-24.5-15.5-40.5-14-24.5-6-52.25-3.5-97.75-38-28.5-8.25-42.5-18.75-18.5-10.5-39-25.5-75.5-67.5-36-12.5-22-7-25-2.5-24.5-6-35.5-27.5-25-32.5-27.5-21.5-31-31.5-22.5-13-40-27" fill="none" stroke="#0098cd" stroke-width="5" stroke-linejoin="round"/><path d="M4339.5 2580.5l-12.943-1.676L4299 2576.5l-13 4.5-11.5 15 1 23 4 47.5 5 55.5 5.25 35-5 21.5-2 10.25 7.25 12.5 20.25 22 4.25 10" fill="none" stroke="#df4825" stroke-width="5" stroke-linejoin="round"/><path d="M2904.876 171.226l-13.29 55.04.914 39.734 28.5 55 3 31-5 27.5-12 24-23.5 24.5-32.5 11s-37-1-35-1-23 2-23 2l-29.5 10-23.5 25.5-90 114-88.5 114.5-29.5 34-23.5 10-13.5 8.5-9.5 18-1.5 20.5 16 25.5 5.5 20-7.5 22.5-5.5 26 9 22 18.5 13.5 112 20 27.5 14.5 21 27 23 83 6.5 30.5-6 21-13 41v21.5l9 39.5 20.5 45.5" fill="none" stroke="#f99d1c" stroke-width="5" stroke-linejoin="round"/><path d="M4340.25 2575.5l20.487 3.063L4375 2581.5l14 7 5 11-2 12.5-11.5 18-17.5 21.5-8 76-5 33.5-6 20.5-15 27.5-10.525 27.86-2.31 21.044-12.047 44.905-11.452 19.048-9.953 16.309-25 27.643L4244 2990l-8 24.5-13.5 88 22.5 104 6.5 19 .5 18-4.5 13-13.5 10.5-15.5 9.5-24 7-27.5 18-31.5 41-83.5 112-8.5 53.5-6.5 26 1 25.5 3.5 28.5-2.5 17-15.5 62.5-6 14-8.5 8.5-13 4.5-15.5-.5-52.5-9.5-21.5 3.5-37 9.5-33 14.5-20.5 4-24.5-2-42-13.5-29-21-22.5-27.5-28.5-16.5-27-17.5-22-7.5-31 .5H3566l-44.5-7.5-23 4-147.5 55-27-2-40.5-13.5-25 5-27 10-27 17-33.5 16.5-23 27.5-24.5 18.5-36.5 9-76.5 9-31.5 14-60.5 29-46.5 25.5-34.5 30.5-25.5 19-155.5 59.5-27.5 1.5-25-6.5-62-31.5h-27l-45 10.5-169 57.5-44 13.5-31-2.5-87-13-303 13.5" fill="none" stroke="#00954c" stroke-width="5" stroke-linejoin="round"/><path d="M4339.5 2580.5l20.611 3.171 13.389 2.579 12.5 6.25 2.75 6.5-1.25 12-11 17-17.75 21-8.75 78.75-4.75 33.25-6.25 19.75-14 25-10.478 28.668-3.702 23.784-11 43.155-20.952 33.952-21.714 23.511-27.297 31.048-10.894 14.798-16.059 23.261-17.94 20.834-17.416 17.262-32.012 13.904-32.036 13.048-33.582 13.309L4044.75 3127l-13.5 16.5-7.75 13.5-10 19.75-12.25 58.25-8.75 17.5-14.25 18L3957 3283l-65 19.75-25.5 16.75-122 96-18.5 4.5-19.5-3.5-91.5-30-38-17.5-39-22-20-4.5-32.5 1-27 .5-19-8-43-23-17-2-20 4.5-21.5 11.5-52 34-33.5 8-39 6-19-2-87-58-17.5-4.5-20-1-146 30-26 23-37.5 46.5-19.5 14-32 11.5-56 4-60 12-45 18.5-203 81-29 7-54 5-26.5-4-24.5-18.5-90-88.5-27.5-10-38-1.5-77 8-24.5 2-17.5-2.5-18-16-7-17-.5-21 .5-18.5-7-15-73-145-1-22.5 9-64.5 19.5-67.5" fill="none" stroke="#df4825" stroke-width="5" stroke-linejoin="round"/><path d="M1464.793 1594.584l-.814 2.85-39.293 20.766-1.221 3.869 19.34 62.094 28.503 21.988 27.28 28.705.612 3.461-7.94 9.976-6.312 16.695 1.018 3.257 17.102 6.515 13.64 5.293 19.545 10.79 12.622 7.533 15.677 12.419 29.52 43.975 23.413 21.58 47.232 12.827 37.257 10.179 17.508 12.012" fill="none" stroke="#00b3f0" stroke-linejoin="round"/><path d="M2909.5 146l-4.5 25 3 12.5 72 71.5 122 77 38.5 36 25 28.5 33 70L3222 508l184 243 23 18.5 62.5 31.5 13 13 24.5 55.5 19 24.5 25.5 11 18 9 13 20.5L3670 1038l110.5 173 34.5 58 5.5 43.5 16.5 28 24 22 52 30.5 31.5 29 16.5 43.5.5 51 .5 72.5v72.5l6.5 46.5 17 31.5 31 34 55 26.5 26.5 23.5 16.5 29.5 5.5 21v40.5l12.5 90 12.5 34 5 21-3.5 18-13 13-26 11-6 8.5-2 16.5 7 12.5 13 7.5h26.5l15 9.5 7 14v20.5l2 21 10 18 18 12.5 25 6.5 36.5 10 42.5 8.5 18 8 17.5 20.5 15 33.5 7.763 28.45 1.737 22.05-3 19.75-29.318 55.664-45.622 88.293-10.856 23.697-8.05 27.253.75 24.164 3.292 41.965 5.25 61.914 5.104 35-6.018 30.839.329 4.446 9.768 15.622 21.207 23-3.468 25.22-10.071 41.3-8.879 13.947-11.1 18.487-21.672 22.171-27.578 32.036-24.793 34.732-13.379 16.94-23.225 22.12-41.421 18.44-57.75 22.5-39.31 17.707-23.69 8.543-24.121 5.957-27.38 2.293-29.25-1-18.75-2.75-24.646-12.646-24.628-17.293-34.475-14.561-26-5.25-24-1.5-26.268 6.957-23.629.5-62.707-14.75-49.207 6.397-26.69-1.354-57.25-19.25-36.5-11-24.5-15.5-40.5-14-24.5-5.646-50.481-2.793L3243.5 2969l-27.793-7.543L3172.5 2942l-17.793-10.5-35.818-23.732-77.621-68.207L3003.5 2826l-22-7-22.879-1.793-24.146-5.646-34.086-26.44-25.707-32.853-27.147-20.44-32.414-33.267-22.5-13-39.293-27L2688 2633.5l-36.268-7.293-35.232 2.293-38 6.207-38-5.207-61-15.793-52.768 1-45.318 8-24.06 2.147-90.208-1.647L2242 2619.5l-23-7-20.904-13.171-26.914-43.061-68-118.56-32.147-49.587-69.914-70.414-103.293-108.793-94-72-35.618-27.664-11.604-21.14-11.514-32.54-1.524-39.195L1752 1980l-2.5-25-8.5-26-17-22.5-19.5-11.5-31-7-52.5-14.5-24.5-22.5-22.5-36.5-25.5-22-54.5-28-40-10-57.5 7.5-36.5 2-55.5-16.5-86-43.5-80-17-39-21-24.5-29.5-21-37.5-8.5-35-10.5-100.5-11-48.5-16-40.5-22-36.5-51.5-51-29.5-18.5-44-20.5-49-11-104.5 5-42 1-32-3.5-34-15-62-46.5-28-11.5L469 1147l-376.274-73.119-42.162-.533-68.848 7.471-58.707 17.612-259.378 106.207-50.702 8.005-57.106-2.134-130.223-27.753-650.581-129.69-337.833-68.847-22.95.534-262.046 25.084-21.348-.534-28.82-6.404-135.56-41.095-24.55-11.741-25.618-17.613-34.69-22.949-40.028-18.145-25.618-11.208-43.23-12.275" fill="none" stroke="#f99d1c" stroke-width="5" stroke-linejoin="round"/><path d="M2221.972 2608.18l21.86 6.761 24.455 3.432 42.427 1.06L2325 2614.5l17-11.25 45-12.5 26-10.75 15.25-19 13.75-28.5 24-28.5 21.5-35.5 37-28 6.5-11-.5-12-20.5-31V2375l8-14.5 11-7.5 25-8.5 15-3.5 14.5 9 9.5 21-1.5 16.5-6.5 13.5-35 21.5-29 20.5" fill="none" stroke="#6f818e" stroke-width="5" stroke-linejoin="round"/><path d="M4214 2851.5l-5-2.5-11.5-23.5-20-47-3-14 2.5-38-3-11.5-4.5-17-8-6-10-2-6.5-5.5-12-17-10-4.5-12 1.5-12 7-10 14.5v11.5l2.5 15.5 9 8.5 13.5 9 14 20 2.5 7-1 9.5-2.5 9.5-6.5 8.5-12 8.5-20.5 5.5-12.5 6-21 16H4031l-90-26-15 1-14.5-1.5-11.5-7-6-6.5-4.5-12-6.5-9.5-14.5-14.5-10.5-5.5h-13l-13.5 9-17.5 14-16.5 7.5-19.5 2.5-31 2.5-15 .5-44.5 10.5-81 3-27 6-44.5 41-10 32.5-21.5 35.5-3 56 4.5 33-6.5 56-27.5 42-8 37-8.5 14-27.5 20-13 23-1.5 32.5 12 33.5 13.5 22.5v18l-6.5 19 2.5 12 5.5 8" fill="none" stroke="#4f2201" stroke-width="5" stroke-linejoin="round"/><path d="M4292.25 2865.5l1.75 4.75-3 12-8 12 .75 4.75 9 7 3.5-.5 6.25-8.5 5.75-23-2.5-5.25L4276 2862l-16.75-4-27.25-3.75-20-3" fill="none" stroke="#4f2201" stroke-width="1px" stroke-linejoin="round"/><text style="line-height:125%;-inkscape-font-specification:Sans" y="5827.9609" x="-2246.546875" font-weight="400" font-size="144px" font-family="Sans" letter-spacing="0" word-spacing="0"/><text style="line-height:125%;-inkscape-font-specification:Sans" y="-13.03906" x="-2246.546875" font-weight="400" font-size="144px" font-family="Sans" letter-spacing="0" word-spacing="0"><tspan y="-13.03906" x="-2246.546875">2015</tspan></text><path d="M476 1149.5l-14.5-24-36-159.5-12-36-35-91.5.5-30-3-70-4.5-19-23-32.5-91-82.5-58.5-83-56.5-84.5-76-161.5-13.5-69-8.5-27L39 162" fill="none" stroke="#f99d1c" stroke-width="5" stroke-linejoin="round"/><path d="M890.41 490.58l-15.209-42.199 2.036-3.665 5.497-2.443 2.036 1.629 2.036-1.018-.204-3.054-3.054-.407-6.515-12.622-.814-15.473-3.665-4.48-13.436-7.328-3.461-2.443-31.557-75.124-21.173-51.508-23.616-46.826-5.293-20.155L736.043 69.29l-16.274-35.12-45.197-63.732" fill="none" stroke="#00b3f0" stroke-linejoin="round"/><path d="M1464.793 1594.584l-24.43-32.37-27.078-35.628-34.406-25.449-9.772-9.365M1152.285 1239.526l-20.563-40.922-8.143-41.328-14.251-79.4-8.347-31.76-20.97-39.292-11.808-21.58-8.347-19.952-12.623-19.952-6.31-18.933-13.03-37.257-14.252-47.843-8.143-17.102-38.071-99.35-48.047-129.28 4.275-13.03-33.244-91.966" fill="none" stroke="#00b3f0" stroke-width="5" stroke-linejoin="round"/><path d="M1369.107 1491.772l-126.429-120.525-44.79-55.376-18.933-30.334-26.67-46.011" fill="none" stroke="#00b3f0" stroke-linejoin="round"/></svg>