<svg xmlns="http://www.w3.org/2000/svg" height="1000" width="1300"><path d="m110.38 851.48 24.16-1.92 37.58 5.75 55.61-16.49 6.520.388.050.3816.11 10.35 9.97 1.15 65.58-16.49 6.14-4.6 5.75-9.59 3.45-11.12 26.08-143.82 29.15-95.5 4.22-4.6 34.13-28.76 4.6-8.05 3.07-9.97 9.59-38.35 15.34-23.01 19.94-27.61 17.26-19.56 23.01-18.03 37.97-21.86 27.23-10.74 19.94-12.27 34.52-15.34 13.42-13.04 6.14-11.89.77-14.96.38-13.81-12.66-23.78-4.22-13.42 1.15-9.2 4.6-4.6 6.9-4.22 10.74-1.53 16.49 1.92 16.49-1.92 42.57-16.11 8.82-7.29 83.99-30.68 25.31-14.57 27.61-23.78 8.82-2.3h12.66l250.44 59.06" style="opacity:1;fill:none;fill-opacity:1;fill-rule:nonzero;stroke:#fe02fb;stroke-width:5;stroke-linecap:butt;stroke-linejoin:round;stroke-miterlimit:4;stroke-dasharray:none;stroke-opacity:1"/><text style="font-style:normal;font-weight:400;font-size:144px;line-height:125%;font-family:Sans;-inkscape-font-specification:Sans;letter-spacing:0;word-spacing:0;fill:#000;fill-opacity:1;stroke:none" xml:space="preserve" y="206.96" x="89.45"><tspan y="206.96" x="89.45">2020</tspan></text></svg>