<svg xmlns="http://www.w3.org/2000/svg" height="4000" width="3000"><path d="M1850 1642.5l6 10.5-4.5 12.5-8.5 19.5-18 27-2 10-.5 30.5v21.5l-5 56.5-2 55-6.5 28.5 3.5 22 2.5 25-1.5 21 3 15 4.5 11.5-2.5 8.5-25 55-2 19.5-3.5 15-11.5 15-5 18-7 98-9.5 103-7 71-10 96.5-4 15.5-57 134.5-7.5 20-7 31-20.5 101.5-3 33 2 28.5 24 186.5" fill="none" stroke="#ee2e22" stroke-width="5" stroke-linejoin="round"/><text x="89.453133" y="206.96094" style="line-height:179.99989319px;-inkscape-font-specification:Sans" font-weight="400" font-size="143.99990845px" font-family="Sans" letter-spacing="0" word-spacing="0"><tspan style="line-height:179.99989319px" x="89.453133" y="206.96094">1985</tspan></text><path d="M1871.5 1639.25l4-6.25 1-20.5 7-6 17.5-14.5 18.5-5.5 19 5 15 4 38 1.5 11 4 23 12.5 15.5 3.5 34-1 42 6.5 22 1.5 34.5-5 19.5-6.5 24-3 23 3 16 5.5 40 24.5 22 9.5 13.5 3 25 1.5 23.5-.5 15.5-4.5 26-11.5 19.5-16 38-33.5 26.5-22 30-11.5 14.5-3.5 8.5-5.5 2.5-11v-34.158l.218-481.454" fill="none" stroke="#00447b" stroke-width="5" stroke-linejoin="round"/><path d="M1852.75 1645.25l-6.406-3.749-260.748-12.35-29.593-1.392" fill="none" stroke="#ee2e22" stroke-width="1px" stroke-linejoin="round"/><path d="M1872.5 1638l-5.75 2.25-17.62.438-293.035-13.97" fill="none" stroke="#00447b" stroke-width="1px" stroke-linejoin="round"/></svg>