<svg xmlns="http://www.w3.org/2000/svg" height="4000" width="3000"><path d="M1581.5 1582.407V1570l-7-22.5-4-12V1513l-1.5-45.5-5-37.5-5.5-17.5-13-10.5-17-3-10-3.5-27.5-25.5-9-3.5h-42l-14.5-5.5-18-8.5-36.5 1.5-7.5-4-1-12-1.5-10-5.5-5-10-3-31-1.5-8.5-.5-11.5-9.5-7-13-30.5-61-24.5-44.5-31-60.5-24-44.5-19-26.5-25.5-27-44-34-18-19.5-15-24-12-11.5-60-59-59.5-57-38-32-48.349-28.515-467.197-309.312-267.14-178.071M1850 1642.5l6 10.5-4.5 12.5-8.5 19.5-18 27-2 10-.5 30.5v21.5l-5 56.5-2 55-6.5 28.5 3.5 22 2.5 25-1.5 21 3 15 4.5 11.5-2.5 8.5-25 55-2 19.5-3.5 15-11.5 15-5 18-7 98-9.5 103-7 71-10 96.5-4 15.5-57 134.5-7.5 20-7 31-20.5 101.5-3 33 2 28.5 24 186.5 31.5 136.5 5.5 25 9 82-2.5 65-33 105-4.5 21 4 20.5 26 119.5 3 30.5-1 81 .5 93.5 8.5 42 8 27" fill="none" stroke="#ee2e22" stroke-width="5" stroke-linejoin="round"/><path d="M1852.75 1645.25l-6.406-3.75-260.748-12.35-7.744-4.9-.522-7.195.53-6.62 3.708-7.151v-23.835" fill="none" stroke="#ee2e22" stroke-width="1px" stroke-linejoin="round"/><path d="M1872.5 1638l-5.75 2.25-17.62.437-293.035-13.97-8.55-.469" fill="none" stroke="#00447b" stroke-width="1px" stroke-linejoin="round"/><text x="89.453133" y="206.96094" style="line-height:125%;-inkscape-font-specification:Sans" font-weight="400" font-size="143.99990845px" font-family="Sans" letter-spacing="0" word-spacing="0"><tspan x="89.453133" y="206.96094">2015</tspan></text><path d="M567.408 1773.438l22.097 1.123 37.453-4.869 54.68 16.48 16.106 1.498 17.602-3.746 16.48-7.116 41.947-29.962 16.104-9.363 13.483-1.124 12.734.75 12.734 10.486 19.475 16.48 11.985 3.37 28.464.375 140.073.374 24.345-3.745 5.992-6.367 10.861-26.217 4.12-10.487 9.738-8.614 70.785-1.123 38.577-.375 46.441 2.247 16.105-3.37 27.715-10.487 21.722-11.236 23.22-15.73 15.731-11.236 12.36-.749 97.75 3.745 13.858-2.247 6.367-4.869 20.974-21.348 22.846-7.116 16.105-2.621h17.977M1871.5 1639.25l4-6.25 1-20.5 7-6 17.5-14.5 18.5-5.5 19 5 15 4 38 1.5 11 4 23 12.5 15.5 3.5 34-1 42 6.5 22 1.5 34.5-5 19.5-6.5 24-3 23 3 16 5.5 40 24.5 22 9.5 13.5 3 25 1.5 23.5-.5 15.5-4.5 26-11.5 19.5-16 38-33.5 26.5-22 30-11.5 14.5-3.5 8.5-5.5 2.5-11v-34.158l.25-553.114L2563 796.5l7.5-33L2584 726l48-70 19.483-28.881 10.593-27.543 9.534-32.31 8.475-11.652 18.008-15.36 26.483-17.479 16.95-7.415 54.025-18.538 20.127-10.064 22.246-21.186 33.898-20.127 9.534-14.3 8.474-20.658" fill="none" stroke="#00447b" stroke-width="5" stroke-linejoin="round"/></svg>