<?xml version="1.0" encoding="UTF-8" standalone="no"?>
<svg
   version="1.1"
   id="svg2"
   width="1650"
   height="1550"
   viewBox="0 -100 1650 1550"
   xmlns:xlink="http://www.w3.org/1999/xlink"
   xmlns="http://www.w3.org/2000/svg"
   xmlns:svg="http://www.w3.org/2000/svg"
   xmlns:rdf="http://www.w3.org/1999/02/22-rdf-syntax-ns#"
   xmlns:cc="http://creativecommons.org/ns#"
   xmlns:dc="http://purl.org/dc/elements/1.1/">
  <metadata
     id="metadata8">
    <rdf:RDF>
      <cc:Work
         rdf:about="">
        <dc:format>image/svg+xml</dc:format>
        <dc:type
           rdf:resource="http://purl.org/dc/dcmitype/StillImage" />
      </cc:Work>
    </rdf:RDF>
  </metadata>
  <defs
     id="defs6" />
  <image
     width="1810"
     height="1810"
     preserveAspectRatio="none"
     xlink:href="../basemap/szzosm.png"
     id="image10"
     x="-150"
     y="-335"
     style="display:none" />
  <path
     style="opacity:1;fill:none;fill-opacity:1;fill-rule:nonzero;stroke:#00aeef;stroke-width:5;stroke-linecap:butt;stroke-linejoin:round;stroke-miterlimit:4;stroke-dasharray:none;stroke-opacity:1"
     d="m 1546.48,1330.46 -30.63,-50.05 -44.93,-54.36 -5.19,-3.66 -8.54,-2.14 -38.14,1.22 -13.42,-5.19 -20.14,-11.9 -34.17,-21.97 -20.14,-17.39 -29.9,-28.68 -15.25,-12.2 -50.64,-31.42 -22.27,-10.37 -42.41,-18.61 -11.9,-10.37 -5.49,-9.76 -14.64,-52.78"
     id="path817" />
  <path
     style="opacity:1;fill:none;fill-opacity:1;fill-rule:nonzero;stroke:#00aeef;stroke-width:1;stroke-linecap:butt;stroke-linejoin:round;stroke-miterlimit:4;stroke-dasharray:none;stroke-opacity:1"
     d="m 1138.68,990.83 -4.27,-14.64 -7.32,-12.81 -12.2,-13.12 -43.02,-30.81 -171.76,-121.42 -16.17,-8.85 -17.39,-6.1 -7.32,-5.8 -1.53,-7.93 0.61,-19.83 -1.83,-6.1 -4.88,-7.02 L 807.05,699.47 768,657.98 l -13.12,-8.85 -50.03,-13.42 -3.36,-4.27 10.68,-46.37 9.46,-11.9 L 732,537.47 l 3.36,-6.41 -2.44,-18 -18.31,-93.66 -10.07,-14.03 -4.88,-5.8 -24.71,-25.02 -7.63,-17.39 -1.22,-5.19 1.83,-5.19 15.56,-24.41 3.97,-3.97 40.27,-28.07 1.53,-6.1 -0.92,-3.66 -13.12,-3.05 -3.36,2.14 -0.31,4.88 6.41,9.76 -0.09,2.81"
     id="path819" />
  <path
     style="opacity:1;fill:none;fill-opacity:1;fill-rule:nonzero;stroke:#00aeef;stroke-width:1;stroke-linecap:butt;stroke-linejoin:round;stroke-miterlimit:4;stroke-dasharray:none;stroke-opacity:1"
     d="m 704.85,635.71 -130.65,-35.92 -6.04,1.08 -6.9,7.77 -31.71,41.42 -7.55,6.69 -3.24,6.26 -26.75,23.73 -2.59,4.75 -124.47,11 -10.79,-1.51 -77.45,-10.57 -39.26,-1.73 -27.83,-13.38 -15.32,-6.69 -37.75,-18.77 -5.18,-1.94 -2.59,0.22 -2.8,2.37 0.43,16.61 5.39,9.71 7.55,12.51 4.53,0.86 11.43,-1.94 21.79,-0.43 20.28,10.35 3.45,-0.22 7.77,-5.39 8.84,-3.88"
     id="path821" />
  <path
     style="opacity:1;fill:none;fill-opacity:1;fill-rule:nonzero;stroke:#00aeef;stroke-width:1;stroke-linecap:butt;stroke-linejoin:round;stroke-miterlimit:4;stroke-dasharray:none;stroke-opacity:1"
     d="m 574.2,599.79 -45.73,-11.65 -2.8,-4.1 8.41,-71.84 -0.43,-10.57 -3.24,-39.05 -3.45,-8.84 -23.08,-15.96 -26.75,-6.04 -21.57,-9.06 -49.4,-8.63 -103.33,-45.73 -49.4,-11.87 -9.06,-4.31 -78.74,-47.46 -43.15,-36.24 -11.58,-8.97 -0.64,-4.68 -0.7,-7.38 -3.58,-15.34 -0.71,-59.88 3.44,-9.93 5.47,-6.32 -0.42,-4.3 -0.94,-6.11 2.13,-4.2 17.24,-4.14 3.59,1.95 1.83,6.28 -1.45,2.71 -11.02,1.73 -7.01,3.28 -3.96,2.8"
     id="path823" />
  <text
     style="font-style:normal;font-weight:normal;font-size:144px;line-height:125%;font-family:Sans;-inkscape-font-specification:Sans;letter-spacing:0px;word-spacing:0px;fill:#000000;fill-opacity:1;stroke:none"
     xml:space="preserve"
     id="text2995"
     y="106.96"
     x="89.45"><tspan
       id="tspan1"
       y="106.96"
       x="89.45">2025</tspan></text>
</svg>
