<svg xmlns="http://www.w3.org/2000/svg" height="1400" width="1750"><path d="M158.814 387.966l-7.967-6.44-5.932-9.323-4.068-22.881-.169-11.695 6.44-20.508.848-8.814-1.695-7.966.678-4.068 3.39-2.373 14.407-2.203 5.254 2.034 10.508 9.152 4.916 1.526 4.068-.17" fill="none" stroke="#e3000f" stroke-width="5" stroke-linejoin="round"/><path d="M189.492 304.237l30-3.898 16.61 1.864 11.017 2.882 3.728 2.881 11.526 15.085 13.898 19.152 4.746 2.034 43.39-3.729 12.542-3.898 24.576-1.017 115.085-14.746 49.83-3.22 65.424 33.22 6.61.34 11.018 9.321 62.372 12.712 23.051 16.61 3.899.34 14.237-5.424 8.983-5.424 3.22.17 14.577 14.406 5.254 27.288 6.44 7.967 3.39 14.237 7.797 3.39-.678 13.39 4.372 15.43.874 10.7 4.042 19.85-1.218 17.166 1.376 10.182-2.043 2.941-6.28.697-18.879 9.54-9.106.311-2.79 8.267-5.433 11.526-4.576 2.203-57.797-5.424-.678-4.745.509-1.695 12.034-1.865 1.695 1.695v5.763l2.033 2.373" fill="none" stroke="#e3000f" stroke-linejoin="round"/><text style="line-height:125%;-inkscape-font-specification:Sans" y="206.96082" x="89.453171" font-weight="400" font-size="143.99993896px" font-family="Sans" letter-spacing="0" word-spacing="0"><tspan y="206.96082" x="89.453171">2005</tspan></text></svg>