<svg xmlns="http://www.w3.org/2000/svg" height="1400" width="1750"><path d="m158.81 387.97-7.97-6.44-5.93-9.32-4.07-22.88-.17-11.69 6.44-20.51.85-8.81-1.69-7.97.68-4.07 3.39-2.37 14.41-2.2 5.25 2.03 10.51 9.15 4.92 1.53 4.07-.17" style="opacity:1;fill:none;fill-opacity:1;fill-rule:nonzero;stroke:#e3000f;stroke-width:5;stroke-linecap:butt;stroke-linejoin:round;stroke-miterlimit:4;stroke-dasharray:none;stroke-opacity:1"/><path d="m189.49 304.24 30-3.9 16.61 1.86 11.02 2.88 3.73 2.88 11.53 15.08 13.9 19.15 4.75 2.03 43.39-3.73 12.54-3.9 24.58-1.02 115.08-14.75 49.83-3.22 65.42 33.22 6.61.3411.02 9.32 62.37 12.71 23.05 16.61 3.9.3414.24-5.42 8.98-5.42 3.22.1714.58 14.41 5.25 27.29 6.44 7.97 3.39 14.24 7.8 3.39-0.680.394.37 15.43.8710.7 4.04 19.85-1.22 17.17 1.38 10.18-2.04 2.94-6.28.7-18.88 9.54-9.11.31-2.79 8.27-5.43 11.53-4.58 2.2-57.8-5.42-.68-4.75.51-1.69 12.03-1.86 1.69 1.69v5.76l2.03 2.37" style="opacity:1;fill:none;fill-opacity:1;fill-rule:nonzero;stroke:#e3000f;stroke-width:1;stroke-linecap:butt;stroke-linejoin:round;stroke-miterlimit:4;stroke-dasharray:none;stroke-opacity:1"/><text style="font-style:normal;font-weight:400;font-size:144px;line-height:125%;font-family:Sans;-inkscape-font-specification:Sans;letter-spacing:0;word-spacing:0;fill:#000;fill-opacity:1;stroke:none" xml:space="preserve" y="206.96" x="89.45"><tspan y="206.96" x="89.45">2005</tspan></text></svg>