<?xml version="1.0" encoding="UTF-8" standalone="no"?>
<svg
   xmlns:dc="http://purl.org/dc/elements/1.1/"
   xmlns:cc="http://creativecommons.org/ns#"
   xmlns:rdf="http://www.w3.org/1999/02/22-rdf-syntax-ns#"
   xmlns:svg="http://www.w3.org/2000/svg"
   xmlns="http://www.w3.org/2000/svg"
   xmlns:xlink="http://www.w3.org/1999/xlink"
   viewBox="0 0 3300 2500"
   height="2500"
   width="3300"
   id="svg2"
   version="1.1">
  <metadata
     id="metadata8">
    <rdf:RDF>
      <cc:Work
         rdf:about="">
        <dc:format>image/svg+xml</dc:format>
        <dc:type
           rdf:resource="http://purl.org/dc/dcmitype/StillImage" />
        <dc:title></dc:title>
      </cc:Work>
    </rdf:RDF>
  </metadata>
  <defs
     id="defs6" />
  <image
     style="display:none"
     y="82.75"
     x="0"
     id="image10"
     xlink:href="file:///home/lexande/timelines/timelines/streetmap/../streetmap/pmiosm.png"
     preserveAspectRatio="none"
     height="2342.25"
     width="3383.25" />
  <path
     id="path817"
     d="m 206.6577,2349.7167 47.23296,-37.4373 125.75391,-112.8136 9.77916,-14.7371 7.86441,-21.9661 1.35593,-12.4746 1.8983,-55.0508 2.71187,-12.4746 13.55932,-31.4576 10.84746,-27.9322 8.13559,-31.1865 v -9.4915 l -4.33898,-11.1186 -114.98305,-171.1187 -10.84746,-18.983 -10.30509,-23.3221 -7.8644,-24.6779 -1.08475,-21.1526 2.71187,-32.8135 17.08474,-69.1526 5.9661,-16.2712 12.74577,-18.4406 5.69491,-11.1187 3.25424,-16.2712 -3.52542,-16.5424 -5.69492,-14.3728 -15.72881,-14.1017 -17.08475,-6.5085 -164.88136,-38.7797"
     style="opacity:1;fill:none;fill-opacity:0.39607843;fill-rule:nonzero;stroke:#f58323;stroke-width:5;stroke-linecap:butt;stroke-linejoin:round;stroke-miterlimit:4;stroke-dasharray:none;stroke-opacity:1" />
  <text
     x="89.453133"
     y="206.96094"
     id="text2994"
     xml:space="preserve"
     style="font-style:normal;font-weight:normal;font-size:143.99993896px;line-height:125%;font-family:Sans;-inkscape-font-specification:Sans;letter-spacing:0px;word-spacing:0px;fill:#000000;fill-opacity:1;stroke:none"><tspan
       x="89.453133"
       y="206.96094"
       id="tspan1">2010</tspan></text>
</svg>
