<?xml version="1.0" encoding="UTF-8" standalone="no"?>
<svg
   version="1.1"
   width="8150"
   height="7250"
   viewBox="-1310, -2510, 8150, 7250"
   id="svg2"
   xmlns:xlink="http://www.w3.org/1999/xlink"
   xmlns="http://www.w3.org/2000/svg"
   xmlns:svg="http://www.w3.org/2000/svg"
   xmlns:rdf="http://www.w3.org/1999/02/22-rdf-syntax-ns#"
   xmlns:cc="http://creativecommons.org/ns#"
   xmlns:dc="http://purl.org/dc/elements/1.1/">
  <metadata
     id="metadata48">
    <rdf:RDF>
      <cc:Work
         rdf:about="">
        <dc:format>image/svg+xml</dc:format>
        <dc:type
           rdf:resource="http://purl.org/dc/dcmitype/StillImage" />
      </cc:Work>
    </rdf:RDF>
  </metadata>
  <defs
     id="defs6" />
  <image
     xlink:href="../streetmap/berosm.png"
     style="display:none"
     x="-1488.333"
     y="-2537.8569"
     width="8424.5244"
     height="7397.1431"
     id="image12" />
  <path
     d="m 1865.2729,757.79961 7.4086,11.27389 1.4463,29.6012 3.3853,14.5281 11.9893,11.746 21.5103,44.3013 36.7206,76.0183 12.2403,53.1483 8.0527,21.9036 17.7161,35.7543 18.6825,38.6533 6.7643,19.9709 19.0046,14.1729 22.2256,10.3076 7.2708,6.7064 3.406,14.3134 12.8768,12.7245 8.5113,8.9714 7.6922,8.1948 19.8705,21.6392 8.5086,15.9772 5.047,15.4942 16.3636,14.8379 0.9664,10.9517 -1.6105,22.2257 -3.8653,19.9709 -7.0865,24.8025 -51.7489,112.1708 2.1438,10.8757 c 0.6442,0.3221 43.485,20.9372 43.485,20.9372 l 6.7643,16.1055 13.5287,31.2448 35.7543,95.0228 27.0574,73.7634 -0.9664,6.7644 -5.1537,20.6151 -0.3222,18.6824 4.5096,22.2257 0.3221,29.6342 6.7643,33.8217 10.6297,43.8071 18.0382,65.3885"
     id="path3592"
     style="fill:none;stroke:#1b5ea4;stroke-width:5;stroke-linecap:butt;stroke-linejoin:round;stroke-miterlimit:4;stroke-opacity:1;stroke-dasharray:none" />
  <path
     d="m 1862.4412,1615.394 2.1875,7.2739 76.0182,26.091 110.0685,33.1366 60.1305,14.1951 62.3652,11.9368 30.2784,15.4613 86.3258,65.7107 32.2111,39.9417 22.5478,54.7589 13.5286,44.4513 7.0865,68.2876 7.0864,48.9609 17.394,30.9226 4.259,11.0733"
     id="path3615"
     style="fill:none;stroke:#7d64b1;stroke-width:5;stroke-linecap:butt;stroke-linejoin:round;stroke-miterlimit:4;stroke-opacity:1;stroke-dasharray:none" />
  <path
     d="m 1523.9634,736.07527 29.506,27.52233 114.0273,106.2967 27.0573,27.0573 47.6725,50.8937 28.99,36.0764 43.1628,57.98 37.3649,50.8936 5.1538,38.6533 10.9518,105.0082 11.596,122.4022 9.6633,88.9027 9.0191,89.5469 -5.1538,23.192 -16.4276,24.4804 -14.2435,31.8338"
     id="path3617"
     style="fill:none;stroke:#7d64b1;stroke-width:5;stroke-linecap:butt;stroke-linejoin:round;stroke-miterlimit:4;stroke-opacity:1;stroke-dasharray:none" />
  <path
     d="m 2094.2909,1187.9669 12.5653,-10.4565 5.798,-4.5095 5.798,-3.5433 6.1201,0 11.9907,7.9301 51.4752,28.2431 50.5643,21.8656 26.8765,8.1996 148.0485,24.1433 70.6078,11.3884 194.5129,32.3428 160.8035,26.421 48.8379,7.9803 37.7672,16.9501 63.7059,34.2155 28.0236,14.8171 14.8172,18.0382"
     id="path3621"
     style="fill:none;stroke:#78513d;stroke-width:5;stroke-linecap:butt;stroke-linejoin:round;stroke-miterlimit:4;stroke-opacity:1;stroke-dasharray:none" />
  <path
     d="m 1537.7264,1519.7046 -14.991,9.8341 -51.7265,27.7407 -38.0091,19.3267 -4.5095,7.7306 2.5769,65.7107 -10.9518,14.1729 -5.1538,9.6633 -1.9327,16.1056 18.0383,78.5951 16.7497,71.5086"
     id="path3623"
     style="fill:none;stroke:#4fb638;stroke-width:5;stroke-linecap:butt;stroke-linejoin:round;stroke-miterlimit:4;stroke-opacity:1;stroke-dasharray:none" />
  <path
     d="m 1731.1374,1516.3048 -0.4555,-14.577 9.1106,-51.9309 19.1324,-58.3083 7.2886,-15.4882 23.2322,-29.6097 6.8331,-3.6443 11.8438,-2.2776 20.4991,-7.7441"
     id="path3627-2"
     style="fill:none;stroke:#f1471d;stroke-width:5;stroke-linecap:butt;stroke-linejoin:round;stroke-miterlimit:4;stroke-opacity:1;stroke-dasharray:none" />
  <path
     d="m 1840.1309,1976.0037 1.95,-70.2001 v -139.7962 l -0.6442,-66.3549 5.1538,-31.5668 11.2275,-52.1141 7.1222,-16.5911 7.2417,-16.7375 16.1127,-24.1797 4.7676,-21.3957 -30.1396,-299.9793 -10.7958,-104.0144 -5.0299,-38.4374 -50.1946,-67.7332"
     id="path5442-0"
     style="fill:none;stroke:#3a9fd7;stroke-width:5;stroke-linecap:butt;stroke-linejoin:round;stroke-miterlimit:4;stroke-dasharray:none;stroke-opacity:1" />
  <path
     d="m 484.70434,2389.614 10.95177,-16.1055 19.32667,-15.4614 27.05733,-30.9226 34.14377,-29.6343 22.54778,-14.8171 31.5669,-11.596 18.03822,-3.8653 26.41311,-0.6442 137.86359,16.1055 18.6824,0.6443 24.4804,-9.6634 40.586,-28.3457 9.0192,-11.596 31.5668,-53.4705 14.8172,-28.3458 3.2211,-16.1055 12.24019,-39.9418 11.59601,-17.394 16.10561,-10.3075 16.74971,-11.596 17.394,-8.3749 31.5669,-4.5096 35.4322,-5.798 16.1056,-9.6633 28.99,-28.3458 23.192,-38.6533 7.7307,-21.2594 2.5768,-21.2593 -1.2884,-22.5478 -5.798,-18.0382 -10.9518,-32.2111 -0.6442,-10.9518 9.0191,-19.9709 1.2885,-16.7497 2.5768,-108.2293 2.5769,-17.394 11.596,-18.0383 81.8162,-47.6724 28.3458,-15.4613 26.2599,-4.5329 10.4608,-5.4526 2.2548,-13.8508 36.7206,-44.1292 31.2448,-48.3166 19.8169,-10.543 24.4512,13.5475 99.1263,33.4719 106.7993,39.2978 11.2721,-0.5375 13.0266,3.859 37.6504,0.028 6.2934,-3.0933 4.6096,-6.6241 3.4579,-28.557 -0.7302,-14.5161 9.0566,-52.9893 20.2311,-60.0907 7.5957,-15.2809 23.2483,-30.204 9.3712,-5.0843 11.2354,-1.7657 19.4736,-7.6207 26.4848,-4.7356 48.2758,-3.7976 4.9904,-4.3186 6.7348,-7.859 6.0922,-3.6972 13.0064,-1.8798 9.3993,2.9395 9.5666,0.094 24.3319,17.2409 20.1105,8.8039 16.5989,4.507 17.4914,0.2209 17.8081,-6.8182 29.2349,-15.7224 4.072,-6.2378 3.3687,-9.0323 2.4914,-48.3237 -2.8927,-10.2757 -5.7988,-9.949 0.056,-13.8056 25.0387,-20.634 3.2644,-6.0652 -0.9792,-3.6227 -7.5532,-7.1733"
     id="path3625-3"
     style="fill:none;stroke:#f78f98;stroke-width:5;stroke-linecap:butt;stroke-linejoin:round;stroke-miterlimit:4;stroke-dasharray:none;stroke-opacity:1" />
  <path
     d="m 774.60438,1359.5028 25.7688,7.7307 86.3258,-9.0191 342.72622,-36.7207 11.596,2.5769 10.3076,10.3076 28.3458,36.0764 25.1246,19.9709 54.7589,41.2302 15.4613,3.2211 8.7307,11.8845 21.7593,15.1392 35.4757,19.6945"
     id="path3627"
     style="fill:none;stroke:#f1471d;stroke-width:5;stroke-linecap:butt;stroke-linejoin:round;stroke-miterlimit:4;stroke-dasharray:none;stroke-opacity:1" />
  <path
     d="m 1440.9851,1481.595 108.9406,37.3531 57.6579,21.5815 42.0132,15.4067 11.8439,-0.4556 12.2995,3.6443 40.5425,-0.4555 7.744,-4.5553 5.0109,-7.2886 4.0998,-30.5208"
     id="path3627-8"
     style="fill:none;stroke:#f1471d;stroke-width:5;stroke-linecap:butt;stroke-linejoin:round;stroke-miterlimit:4;stroke-dasharray:none;stroke-opacity:1" />
  <path
     d="M 1723.6236,347.92426 1580.4638,222.28618 1424.2713,79.55952 1319.8445,-12.210735 1293.7221,-39.040295 1271.8814,-72.18624 1116.5,-283.5 l -31,-52.5 -92,-126.5 -81.5,-114.5 -14.5,-29 -7,-30.5 0.5,-26 13,-180 6.5,-143 16,-242 -4,-29 9,-35.5 2.5,-66.5 -2.5,-39 -6,-33 -119,-411.5 -87.5,-310 -18,-41.5 -16.5,-29 -22.5,-30 -48,-51.5 -53.5,-102"
     id="path4387"
     style="fill:none;stroke:#008940;stroke-width:5;stroke-linecap:butt;stroke-linejoin:round;stroke-miterlimit:4;stroke-opacity:1;stroke-dasharray:none" />
  <path
     d="m 2757.7703,1957.3566 -220.7499,-245.487 -12.3426,-21.1554 -1.3666,-19.5879 6.833,-19.5879 7.2885,-14.5772"
     id="path4389"
     style="fill:none;stroke:#008940;stroke-width:5;stroke-linecap:butt;stroke-linejoin:round;stroke-miterlimit:4;stroke-opacity:1;stroke-dasharray:none" />
  <path
     d="m 2590.1296,1457.8746 14.936,11.6236 4.5402,8.9026 3.0401,13.604 0.1301,20.8772"
     id="path3632"
     style="fill:none;stroke:#008940;stroke-width:5;stroke-linecap:butt;stroke-linejoin:round;stroke-miterlimit:4;stroke-opacity:1;stroke-dasharray:none" />
  <path
     d="m 1818.3831,1336.5923 10.2385,-3.8679 24.5988,-4.0998 49.6532,-4.0998 5.9219,-5.0109 6.3776,-7.7441 5.0108,-3.1887 11.3884,-1.3666 8.6551,2.7332 9.1106,0 24.5988,17.3103 20.0435,8.6551 17.3104,4.0998 19.588,0.4556 17.3102,-6.833 31.4319,-16.3993 5.0109,-8.1996 3.6442,-9.5662 2.7333,-50.1087 -3.1888,-11.8439 -5.4664,-9.1107 0,-10.4772 24.5988,-20.499 4.0999,-7.7442 -1.8222,-6.833 -23.6878,-22.3211 -9.5662,-10.0217 -6.3774,-15.0327 2.2776,-11.8438 5.922,-14.1216 -11.8439,-43.2757 2.7332,-9.5662 6.3774,-11.8439 11.8439,-11.8439 5.0109,-23.6877 -0.4555,-22.7768 -2.2777,-24.1432 -1.8221,-81.5407 1.3666,-30.5208 4.0998,-36.4427 16.3992,-116.16109 1.3666,-33.254 -3.1887,-27.7876 -9.5662,-27.332 -1.0377,-17.12157"
     id="path3737"
     style="fill:none;stroke:#f1471d;stroke-width:5;stroke-linecap:butt;stroke-linejoin:round;stroke-miterlimit:4;stroke-opacity:1;stroke-dasharray:none" />
  <path
     d="m 1680.3815,1611.3937 -9.6633,30.2785 -41.8744,51.5377 -53.4705,73.4414 -37.3649,46.3839 -13.5286,15.4614 -24.4805,36.7206 -86.97,115.3158 -88.2584,116.6042 -98.566,128.2002 -28.3458,28.99 -26.4131,21.2594 -89.5469,49.6051 -63.7779,38.0091 -57.33584,29.6342 -85.68152,50.8935 -60.55688,35.4323 -109.51777,63.778 -55.4031,28.99 -27.05736,10.9517 -29.63422,7.7307 -21.90355,-2.5769 -34.14378,-15.4613 -128.84443,-93.4122 -70.86444,-49.6051 -16.10555,-7.0865 -22.54778,-1.9327 -19.97088,1.9327 -83.7489,27.0573 -14.1729,5.798 -35.4322,24.4805 -59.9127,38.6533 -28.3457,26.4131 -28.3458,43.8071 -44.4513,63.778 -14.1729,21.9036 -19.202942,20.7488"
     id="path3633"
     style="fill:none;stroke:#008940;stroke-width:5;stroke-linecap:butt;stroke-linejoin:round;stroke-miterlimit:4;stroke-opacity:1;stroke-dasharray:none" />
  <path
     d="m 807.1384,1540.8514 -14.80139,-1.695 -25.14039,-6.0357 -21.25933,-11.2739 -19.97089,-23.192 -9.01911,-15.7834 0,0 -7.73066,-32.8553 -8.697,-29.3121 -17.394,-19.3267 -23.192,-13.8508 -24.15833,-21.5814 -14.49502,-23.192 -14.17288,-13.8508 -25.44678,-6.1201 -21.90355,-1.2885 -106.61877,28.0237 -57.97999,14.1729 -14.24874,-2.6695 -13.13071,-3.7727 -27.70155,-22.5478 -32.85533,-32.8553 -11.27389,-22.2257 -5.15377,-83.1047 1.28844,-18.3603 22.54778,-58.9463 6.12011,-24.8026 -0.96634,-22.2256 -11.596,-18.3604 -12.88444,-9.9854 -114.99367,-23.8362 -30.9227,-11.9181 -31.2447,-15.94448 -24.8026,-9.1802 -25.9299,-6.7643 -35.661763,-8.60582"
     id="path3657"
     style="fill:none;stroke:#008940;stroke-width:5;stroke-linecap:butt;stroke-linejoin:round;stroke-miterlimit:4;stroke-opacity:1;stroke-dasharray:none" />
  <path
     d="m 564.2712,794.79419 121.97591,107.12668 15.55635,8.48528 12.02082,4.24264 64.34671,2.47487 8.48528,3.18198 11.31371,8.13173 10.25305,11.66726 5.65686,14.49569 2.12132,12.02081 -1.76777,26.87006 2.47487,13.43501 22.62742,33.5876 13.78858,14.8492 9.8995,7.0711 13.78858,4.9497 22.62741,1.7678 14.31736,-1.4815"
     id="path3785"
     style="fill:none;stroke:#008940;stroke-width:5;stroke-linecap:butt;stroke-linejoin:round;stroke-miterlimit:4;stroke-opacity:1;stroke-dasharray:none" />
  <path
     d="m 2389.0253,1978.6009 66.3549,-16.7498 23.8362,-14.1729 15.4613,-19.9709 8.3749,-32.8553 18.6825,-156.546 8.3749,-56.0473 8.3749,-46.384 13.5286,-27.7016 23.192,-32.2111 28.99,-35.4322 11.596,-37.3649 16.7498,-65.0664 44.4513,-74.0856 6.4422,-22.5477 -5.1537,-34.1438 -24.4805,-66.9991 -28.3458,-67.6433 -18.6824,-14.1729 -52.182,-20.6151 -26.4131,-12.8845 -28.99,-40.586 -65.7107,-112.7389 -21.9035,-28.3457 -76.0182,-50.8937 -58.6242,-37.3649 -28.99,-10.9517 -41.2303,-26.4132 -51.5377,-42.5186 -25.1247,-13.5287 -21.2593,-9.0191 -53.4705,-3.2211 -66.3548,2.5769 -38.0092,1.9327 -37.7421,-0.4403"
     id="path3631-6"
     style="fill:none;stroke:#008940;stroke-width:5;stroke-linecap:butt;stroke-linejoin:round;stroke-miterlimit:4;stroke-opacity:1;stroke-dasharray:none" />
  <path
     d="m 2370.3427,1496.0782 7.0864,0 14.1729,3.2211 7.7307,-7.7307 16.7497,-23.8362 18.6825,-37.3649"
     id="path3629-4"
     style="fill:none;stroke:#4fb638;stroke-width:5;stroke-linejoin:round;stroke-miterlimit:4;stroke-opacity:1;stroke-dasharray:none" />
  <path
     d="m 480.839,1115.3424 17.394,9.0192 16.10555,7.0864 9.01912,10.9518 4.50955,18.0382 15.46133,30.2784 19.32667,42.5187 14.17288,21.2593 14.17289,8.3749 16.10556,5.1538 31.5669,-7.0864 33.49955,4.5095 14.81711,12.2402 66.99907,65.7107 20.6152,16.1055"
     id="path3627-3"
     style="fill:none;stroke:#f1471d;stroke-width:5;stroke-linecap:butt;stroke-linejoin:round;stroke-miterlimit:4;stroke-opacity:1;stroke-dasharray:none" />
  <path
     d="m 1590.9999,1746.5 -5,14 -1,31 0.5,13.5 4,12 9.5,12"
     id="path7114"
     style="fill:none;stroke:#008940;stroke-width:5;stroke-linecap:butt;stroke-linejoin:round;stroke-miterlimit:4;stroke-opacity:1;stroke-dasharray:none" />
  <path
     d="m 1584.4999,1793 -5,9.5 -6.5,7.5 -5.5,5 -12.5,7.5"
     id="path7116"
     style="fill:none;stroke:#008940;stroke-width:5;stroke-linecap:butt;stroke-linejoin:round;stroke-miterlimit:4;stroke-opacity:1;stroke-dasharray:none" />
  <path
     d="m 1680.3815,1611.3938 11.5332,-32.6443 8.8067,-37.3817 3.4081,-36.0303 3.5333,-18.6392 15.2028,-26.5165 9.1924,-19.4455 9.5459,-27.9307"
     id="path3633-7"
     style="fill:none;stroke:#008940;stroke-width:5;stroke-linecap:butt;stroke-linejoin:round;stroke-miterlimit:4;stroke-opacity:1;stroke-dasharray:none" />
  <path
     d="m 1568.9307,2210.5209 0,27.7016 -12.8844,35.4322 -25.1247,53.4704 -14.8171,26.4131 -37.3649,47.6725 -59.9127,65.0664 -52.8262,58.6242 -55.4031,52.182 -19.3266,25.1247"
     id="path3637-7"
     style="fill:none;stroke:#008940;stroke-width:5;stroke-linecap:butt;stroke-linejoin:round;stroke-miterlimit:4;stroke-opacity:1;stroke-dasharray:none" />
  <path
     d="m 1100.251,1237.511 0.3306,7.3205 0.6441,29.6343 3.625,31.1824 3.9137,12.192 16.7091,14.9208"
     id="path3615-6"
     style="fill:none;stroke:#f1471d;stroke-width:5;stroke-linecap:butt;stroke-linejoin:round;stroke-miterlimit:4;stroke-opacity:1;stroke-dasharray:none" />
  <text
     x="-1220.5469"
     y="4637.9609"
     id="text2838"
     xml:space="preserve"
     style="font-size:144px;font-style:normal;font-weight:normal;fill:#000000;fill-opacity:1;stroke:none;font-family:Sans;-inkscape-font-specification:Sans"><tspan
       x="-1220.5469"
       y="4637.9609"
       id="tspan2">1935</tspan></text>
  <text
     x="-1220.5469"
     y="-2303.0391"
     id="text2838-3"
     xml:space="preserve"
     style="font-size:143.99990845px;font-style:normal;font-weight:normal;fill:#000000;fill-opacity:1;stroke:none;font-family:Sans;-inkscape-font-specification:Sans"><tspan
       x="-1220.5469"
       y="-2303.0391"
       id="tspan1">1935</tspan></text>
  <path
     d="m 963.5,1470.5 -16,10 -12,14 -10.5,18.5 -1.5,14 1.5,10.5 6,14.5"
     id="path4151"
     style="fill:none;stroke:#008940;stroke-width:5;stroke-linecap:butt;stroke-linejoin:round;stroke-miterlimit:4;stroke-opacity:1;stroke-dasharray:none" />
  <path
     d="m 1950.0278,632.97741 1.0921,-19.3895 -7.6992,-43.2258 -21.55,-40.5231 -99.8154,-94.0097 -98.5784,-88.2804 -10.8841,-5.2728 -45.0955,-2.5769 -32.2111,-3.2211 -103.0756,-17.394 -49.6051,-9.0192 -68.9317,-3.2211 -55.4031,3.2211 -66.9991,3.8654 -137.2194,7.0864 -34.7879,-0.6442 -18.0382,-4.5096 -85.0373,-46.3839 -31.2448,-22.2257 -12.8844,-19.6488 -31.5669,-73.4413 -34.4659,-85.681598 -9.6634,-21.5814 -9.0191,-20.937205 -25.7689,-46.7061 -15.1392,-21.5815 -15.4613,-12.2402 -28.0237,-11.596 -18.6824,-6.7643 -150.2681,-52.575197 -10,-4.5 -15,-11 -240.0001,-270.5 -24.00005,-34.5 -28,-53.5 -21.5,-21 -17.5,-9 -28.5,-7.5 -43.5,-11 -19.5,-13.5 -18.5,-21 -12.5,-34 -14.50045,-60.9998 -3,-117.5 -5,-176 -2.5,-24.5 -6,-20.50001 -15.5,-23 -272.49995,-299.4999"
     id="path3639-3"
     style="fill:none;stroke:#008940;stroke-width:5;stroke-linecap:butt;stroke-linejoin:round;stroke-miterlimit:4;stroke-dasharray:none;stroke-opacity:1" />
  <path
     style="fill:none;stroke:#008940;stroke-width:5;stroke-linecap:butt;stroke-linejoin:round;stroke-miterlimit:4;stroke-dasharray:none;stroke-opacity:1"
     id="path3635-8"
     d="m 1951.2328,628.61455 6.0581,-24.313 13.2787,-15.1056 78.8451,-75.7682 65.2106,-60.30694 46.0956,-48.4224 52.7206,-50.1436 33.2496,-38.6533 36.0764,-56.9416 76.2682,-121.2579 137.5078,-212.093397 45.9567,-68.108803 12,-29 19.5001,-17 134.5,-205.0001 24,-31.49999 97.5,-152.5 45,-52.50001 187.9998,-169.5 166.5,-150.9999 38.5001,-29.5 30,-14 382.5,-150.50001 53.5,-27 39.5,-21.5" />
  <path
     style="fill:none;stroke:#008940;stroke-width:5;stroke-linecap:butt;stroke-linejoin:round;stroke-miterlimit:4;stroke-dasharray:none;stroke-opacity:1"
     id="path3649-3"
     d="m -1149,3172.5 64.5,4.5 90,11.5 22.5,1.5 78.00006,-13.5 213.5,-27.5 104.5,-17.5 67,-11 24,-14 17.5,-14 123,-167.5 33.99997,-45 13.5,-15.5 15,-14 98.6706,-52.6172 133.440223,-102.6792 21.8209,-18.9155 22.5198997,-16.7445 15.4613,-16.1056 14.8172003,-19.9709 9.0191,-23.192 7.0864,-56.0473 7.7307,-24.4804 9.6633,-19.3267 24.4805,-34.1438 130.777107,-168.7862 131.4213,-173.2957 112.0946,-143.0174 64.7247,-86.4947 46.8876,-39.9765 29.1541,-40.998 13.666,-32.3429 18.2214,-40.998 38.9733,-42.3255 34.788,-31.889 10.9518,-19.3267 20.6151,-36.3985 25.4468,-32.2111 15.1392,-18.6825 31.889,-19.6487 16.4277,-7.0865 58.9463,-30.6005 50.5714,-23.5142 19.3267,-5.4758 21.9036,-3.8654 23.8071,-6.5379 24.83164,-8.2792 53.7926,-20.6151 17.394,-4.5095 25.1246,-4.5096 40.2639,2.5769 51.5378,4.8317 80.5278,7.7306 16.7497,-3.2211 13.5287,-9.0191 10.9518,-11.9181 11.7424,-20.863 11.1275,-24.2326 27.3794,-90.5132 5.4759,-12.5623 33.4996,-45.4177 19.3266,-13.2065 21.9036,-5.1538 18.0382,1.6105 64.4222,8.697 14.495,-2.2547 14.8171,-5.4759 10.6297,-7.4086 52.8262,-45.0955 15.7834,-14.1729 15.7277,-14.0136 9.8011,-5.7827 19.8181,-1.6465 25.509,3.3971 9.0809,5.8431 10.8986,12.8468 11.9181,16.4277 9.6633,16.7498 10.9518,7.0864 10.9518,3.2211 18.3603,0.6442 10.6297,0.9664 9.0191,3.8653 12.0872,6.4172 13.0374,5.823 9.3413,1.2885 41.2301,-2.5769 11.596,-3.8654 6.6279,-4.1089 5.2902,-4.2659 28.0237,-18.0383 9.6633,-1.2884 22.8699,-0.3221 10.0327,-3.4744 10.9045,-6.5111 14.8171,-5.1537 12.8844,-0.6443 10.6297,2.5769 13.5287,8.0528 12.5623,12.5623 35.7543,38.3312 8.0528,14.8172 3.2211,14.8171 12.2402,20.293 2.899,11.9181 7.1799,9.6364 6.3488,6.4691 20.293,9.3413 20.9372,12.2402 12.8845,10.3075 11.9181,3.5432 14.495,-0.6442 12.8844,1.6106 23.5141,6.7643 20.9373,4.8317 25.329,15.4946 36.1942,24.4472 20.9372,9.9854 77.9509,25.4468 100.4986,29.6342 119.5032,34.788 41.2303,0.6442 34.1437,-9.6633 23.192,-10.9518 15.4614,-11.596 85.0373,-71.5087 25.9618,-22.761" />
  <path
     d="m 2755.5876,1954.7647 92.768,99.8545 34.1438,30.9226 29.6342,30.2785 50.8936,54.1146 86.9698,91.4796 35.4323,32.2111 26.4131,18.6824 30.9226,28.99 45.7398,48.9609 157.8345,184.8918 63.1337,66.3548 74.7298,81.1719 16.1055,20.6151 51.5378,59.2685 38.6533,39.9418 10.9186,12.1318"
     id="path3643"
     style="fill:none;stroke:#008940;stroke-width:5;stroke-linecap:butt;stroke-linejoin:round;stroke-miterlimit:4;stroke-dasharray:none;stroke-opacity:1" />
  <path
     style="fill:none;stroke:#008940;stroke-width:5;stroke-linecap:butt;stroke-linejoin:round;stroke-miterlimit:4;stroke-dasharray:none;stroke-opacity:1"
     id="path3641"
     d="m 2661.7925,1479.3466 41.2903,14.7992 14.495,4.5095 68.2876,44.4514 75.374,45.0955 23.192,14.1728 21.9035,21.9036 57.98,24.4804 52.8262,39.2975 37.3649,41.8745 23.8362,20.6151 76.0182,55.4031 101.1429,74.7298 152.6807,109.5177 115.96,83.1047 55.4031,41.2302 50.2493,26.4131 41.8744,9.0191 30.2785,1.9327 57.3357,-5.1538 52.182,4.5096 38.0092,7.0864 36.0764,1.2885 65.7107,3.2211 149.4595,6.4422 81.8162,5.798 82.4604,11.596 317.4996,52.8155 237.5,39 33,11.5 29,15 36.5,30 28.5,38.5 22,52.5 27,43 23,22.5 38.5,27 38.5,13 89,15 30.5,13.5 25.5,18.5 23.5,29" />
  <path
     d="m 1269.226,1475.7623 23.6878,-7.744 56.0307,-20.499 18.2213,-2.2777 12.2995,5.0108 22.7766,15.4882 37.2432,20.8544"
     id="path3739-7"
     style="fill:none;stroke:#6cc1b0;stroke-width:5;stroke-linejoin:round;stroke-miterlimit:4;stroke-dasharray:none;stroke-opacity:1" />
  <path
     d="m 1726.283,1456.026 -5.6475,44.468 -2.417,25.0988 0.9308,16.2565 0.8512,30.5694 -5.1538,20.9372 -1.2884,29.9563 -2.2548,53.7926 -1.6106,17.7161 -5.4758,26.091 -12.5624,34.788 -28.3458,83.7489 -20.9372,54.4367 -37.0427,116.9264 -34.4659,95.0227 -7.4086,25.4468 0.3221,20.6151 1.6106,27.7016 4.8316,34.1437"
     id="path3635"
     style="fill:none;stroke:#008940;stroke-width:5;stroke-linecap:butt;stroke-linejoin:round;stroke-miterlimit:4;stroke-opacity:1;stroke-dasharray:none" />
  <path
     style="fill:none;stroke:#6cc1b0;stroke-width:5;stroke-linecap:butt;stroke-linejoin:round;stroke-miterlimit:4;stroke-dasharray:none;stroke-opacity:1"
     id="path3625-3-5"
     d="m 1439.4851,1486.595 89.9268,30.7757 5.8637,-1.6824 8.2631,-4.0715 25.5603,-12.269 9.3699,-5.1808 9.5934,-1.1916 40.1616,19.3653 7.8655,1.6088 12.2749,-6.7928 49.0399,7.2696 43.2601,1.9663" />
  <path
     d="m 1537.1741,1520.0272 43.0301,-21.0503 7.4085,-0.9664 39.2976,18.6825 8.697,2.2548 13.8508,-6.7644 15.4613,2.2548 31.8889,4.8317 43.1629,1.9326 20.293,2.5769 14.1729,-1.9326 25.1247,6.4422 h 10.3076 l 12.8844,-0.6442 12.8844,3.2211 45.7397,15.4613 14.8172,1.2885 27.7015,-4.5096 16.7498,-4.5096 h 51.5378 51.5378 l 45.0955,-3.8653 19.3267,0.6442 20.615,-3.8653 24.4805,-5.1538 h 63.1338 l 17.394,-1.9326 20.6151,-1.9327 16.1055,1.2884 48.9609,-12.2402 41.2302,-10.3075 9.6634,-5.1538"
     id="path3629"
     style="fill:none;stroke:#4fb638;stroke-width:5;stroke-linejoin:round;stroke-miterlimit:4;stroke-dasharray:none;stroke-opacity:1" />
  <path
     d="m 1913.2127,753.49368 -65.993,6.08864 -45.7244,11.7455 -27.0573,8.3749 -47.0282,30.2785 -65.7107,47.6724 -54.1147,41.8745 -32.2111,22.5477 -23.192,14.8172 -30.2784,4.5096 -141.0847,28.3458 -48.9609,10.3075 -101.7871,23.19198 -86.3257,18.6825 -120.4696,24.4804 -54.11464,14.8171 -38.0091,1.2885 -17.394,5.1537 -22.54777,12.2403 -9.66333,16.1055 -4.50956,21.2593 3.22111,36.7207 9.01911,54.7589 12.88445,68.2875 6.44222,27.7016 1.28844,22.5478 -10.95178,38.0091 -19.97088,41.8744 -4.50956,27.7016 1.28845,36.0764 7.08644,21.2593 19.32667,28.3458 29.63421,32.2111 42.51868,50.8936 24.4804,33.4995 25.12474,29.6343 77.3066,96.6333 46.384,55.4031 21.2593,18.6824 25.7689,12.8845 30.9227,5.798 79.2393,0 43.1629,-1.2885 37.3649,-5.798 47.6724,-1.2884 41.2302,1.9326 21.9036,-10.3075 35.4322,-13.5287 32.8553,-4.5095 19.9709,1.9326 21.9036,9.6634 23.192,15.4613 16.1055,22.5478 16.7498,45.7398 19.3267,22.5477 27.7015,13.5287 40.586,-1.9327 53.4705,3.2211 36.7206,8.3749 38.6534,15.4614 26.4131,15.4613 38.0091,26.4131 30.2784,14.8171 41.2302,16.7498 33.4996,-1.2885 97.2775,-13.5286 36.0765,-8.3749 22.5478,-6.4422 77.9508,-16.7498 119.1811,-29.6342"
     id="path3631"
     style="fill:none;stroke:#008940;stroke-width:5;stroke-linecap:butt;stroke-linejoin:round;stroke-miterlimit:4;stroke-opacity:1;stroke-dasharray:none" />
  <path
     d="m 1951.2328,628.61471 -0.346,16.7682 5.1538,33.4995 4.3653,30.9564 -4.9422,20.2593 -8.5143,11.1344 -17.4709,9.8797 -12.0147,2.2402 -62.2872,5.2405 -25.3798,8.90555 -18.8706,15.00643 -27.8763,33.78355 -6.2636,24.2374 4.7383,42.49759 10.3353,56.56106 12.5422,26.3682 23.5981,47.13491"
     id="path7843-3"
     style="fill:none;stroke:#008940;stroke-width:5;stroke-linecap:butt;stroke-linejoin:round;stroke-miterlimit:4;stroke-dasharray:none;stroke-opacity:1" />
</svg>
