<?xml version="1.0" encoding="UTF-8" standalone="no"?>
<svg
   id="svg2"
   viewBox="-1310, -2510, 8150, 7250"
   height="7250"
   width="8150"
   version="1.1"
   xmlns:xlink="http://www.w3.org/1999/xlink"
   xmlns="http://www.w3.org/2000/svg"
   xmlns:svg="http://www.w3.org/2000/svg"
   xmlns:rdf="http://www.w3.org/1999/02/22-rdf-syntax-ns#"
   xmlns:cc="http://creativecommons.org/ns#"
   xmlns:dc="http://purl.org/dc/elements/1.1/">
  <metadata
     id="metadata3427">
    <rdf:RDF>
      <cc:Work
         rdf:about="">
        <dc:format>image/svg+xml</dc:format>
        <dc:type
           rdf:resource="http://purl.org/dc/dcmitype/StillImage" />
      </cc:Work>
    </rdf:RDF>
  </metadata>
  <defs
     id="defs6" />
  <image
     xlink:href="../streetmap/berosm.png"
     style="display:none"
     id="image12"
     height="7397.1431"
     width="8424.5244"
     y="-2537.8569"
     x="-1488.333" />
  <path
     d="m 1284.0125,1471.1779 43.6519,-15.6881 33.2585,-10.4969 7.0063,-0.4462 5.8868,0.9905 6.6707,4.6049 21.7546,15.5976 37.2432,20.8548 6.9823,2.3897"
     id="path3739-8"
     style="fill:none;stroke:#666666;stroke-width:5;stroke-linejoin:round;stroke-miterlimit:4;stroke-dasharray:none;stroke-opacity:1" />
  <path
     style="fill:none;stroke:#e94e0f;stroke-width:5;stroke-linecap:butt;stroke-linejoin:round;stroke-miterlimit:4;stroke-dasharray:none;stroke-opacity:1"
     d="m 1729.8282,1526.0506 1.3092,-9.7464 -0.4555,-14.577 9.1106,-51.9309 19.1324,-58.3083 7.2886,-15.4882 23.2322,-29.6097 6.8331,-3.6443 11.8438,-2.2775 10.2606,-3.8767 10.2385,-3.8673 24.5988,-4.0998 49.6532,-4.0998 5.9219,-5.0109 6.3776,-7.7441 5.0108,-3.1887 11.3884,-1.3666 8.6551,2.7332 h 9.1106 l 24.5988,17.3103 20.0435,8.6551 17.3104,4.0998 19.588,0.4556 17.3101,-6.833 31.4319,-16.3993 5.0109,-8.1996 2.0185,-10.0529 3.2505,-49.5027 -2.8598,-11.5039 -5.6535,-9.1897 -1.1997,-3.9377 0.7976,-4.6669 2.3666,-3.7915 24.351,-17.9574 3.0267,-4.7307 0.1715,-5.3874 -1.5766,-7.0653 -24.7818,-19.5964 -14.1016,-14.9959 -3.0346,-4.7216 -0.042,-7.561 4.5121,-10.7412 4.6201,-10.1999 0.3261,-8.5721 -10.8681,-38.6253 1.1989,-7.1047 7.9117,-14.3054 11.8439,-11.8439 3.9292,-7.7603 2.6073,-19.9836 -1.1623,-19.44875 -3.0965,-23.4151 -1.8221,-81.5406 1.3666,-30.5208 4.0998,-36.4427 16.3992,-116.1611 1.3666,-33.254 -3.1887,-27.7876 -9.5662,-27.332 -0.7401,-12.2117"
     id="path73290" />
  <path
     style="fill:none;stroke:#62ad2d;stroke-width:5;stroke-linecap:butt;stroke-linejoin:round;stroke-miterlimit:4;stroke-dasharray:none;stroke-opacity:1"
     d="m 480.83902,1115.3426 17.394,9.0192 16.1055,7.0864 9.0192,10.9518 4.5095,18.0382 15.4613,30.2784 19.3267,42.5187 14.1729,21.2593 14.1729,8.3749 16.1055,5.1538 31.5669,-7.0864 33.4996,4.5095 14.8171,12.2402 66.9991,65.7107 20.6151,16.1055 25.7689,7.7307 86.3258,-9.0191 342.72608,-36.7207 11.596,2.5769 10.3076,10.3076 28.3458,36.0764 25.1246,19.9709 54.7589,41.2302 15.4613,3.2211 8.7307,11.8845 21.7593,15.1392 13.9614,8.4086 21.9039,11.9188 95.8001,37.8006 11.996,-5.65 31.034,-15.4 7.408,-0.967 39.298,18.682 8.697,2.255 13.85,-6.764 15.462,2.255 31.889,4.831 40.4714,1.8125"
     id="path3627-6-1" />
  <path
     style="fill:none;stroke:#00a092;stroke-width:5;stroke-linecap:butt;stroke-linejoin:round;stroke-miterlimit:4;stroke-dasharray:none;stroke-opacity:1"
     d="m 486.48331,2385.9705 12.23936,-13.0064 16.26047,-14.9167 27.05733,-30.9226 34.14377,-29.6343 22.54778,-14.8171 31.5669,-11.596 18.03822,-3.8653 26.41311,-0.6442 137.86355,16.1055 18.6824,0.6443 24.4805,-9.6634 40.586,-28.3457 9.0191,-11.596 31.5669,-53.4705 14.8171,-28.3458 3.2211,-16.1055 12.2402,-39.9418 11.596,-17.394 16.1056,-10.3075 16.7497,-11.596 17.394,-8.3749 31.5669,-4.5096 35.4322,-5.7979 16.1056,-9.6634 28.99,-28.3458 23.192,-38.6533 7.7307,-21.2593 2.5768,-21.2593 -1.2884,-22.5478 -5.798,-18.0382 -10.9518,-32.2111 -0.6442,-10.9518 9.0191,-19.971 1.2885,-16.7497 2.5768,-108.2293 2.5769,-17.394 11.596,-18.0382 81.8162,-47.6724 29.0463,-17.605 26.3068,-5.8299 6.2822,-5.2999 2.5069,-7.2231 4.3128,-6.8539 25.5487,-25.4172 9.6892,-16.8741 31.5938,-46.6403 5.6715,-5.4994 10.7726,-3.199 10.5886,2.5453 17.2354,9.1572 93.0718,37.0811 6.0544,-3.6095 25.5603,-12.269 9.3699,-5.1808 9.5934,-1.1916 40.1616,19.3653 7.8655,1.6088 12.2749,-6.7928 49.0399,7.2696 39.8442,1.811"
     id="path69542" />
  <path
     style="fill:none;stroke:#ffd500;stroke-width:5;stroke-linecap:butt;stroke-linejoin:round;stroke-miterlimit:4;stroke-dasharray:none;stroke-opacity:1"
     id="path3623-1"
     d="m 1558.7771,1515.3309 -19.9943,9.3462 -67.774,32.6022 -32.7221,15.7957 -6.4608,5.8129 -1.9529,7.9546 1.0353,59.446 -2.4756,8.9684 -8.3174,8.9633 -5.1538,9.6633 -1.9327,16.1056 18.0383,78.5951 16.6719,69.6085" />
  <path
     style="fill:none;stroke:#815238;stroke-width:5;stroke-linecap:butt;stroke-linejoin:round;stroke-miterlimit:4;stroke-dasharray:none;stroke-opacity:1"
     d="m 3034.1326,1424.379 -1.5285,-2.3863 -10.3144,-14.9326 -7.2192,-6.0484 -25.3072,-11.8743 -63.7059,-34.2155 -37.7672,-16.9501 -48.8379,-7.9803 -160.8035,-26.421 -194.5129,-32.3428 -70.6078,-11.3884 -148.0485,-24.1433 -26.8765,-8.1996 -50.6527,-25.3566 -47.0865,-25.0558 -16.291,-6.7782 -6.2592,-0.025 -5.6589,2.7201 -5.798,4.5095 -12.18,9.7698"
     id="path3621-6" />
  <path
     style="fill:none;stroke:#846daa;stroke-width:5;stroke-linecap:butt;stroke-linejoin:round;stroke-miterlimit:4;stroke-dasharray:none;stroke-opacity:1"
     d="m 1531.1166,742.7474 22.3528,20.8501 114.0273,106.2967 27.0573,27.0573 47.6724,50.8936 28.99,36.0764 43.1628,57.9799 35.7301,47.117 3.7799,11.4392 13.9605,135.9989 11.596,122.4022 9.6633,88.9026 7.8443,83.9419 -1.7938,20.0832 -3.2509,9.4583 -7.099,9.5175 -8.2628,14.2185 -13.8879,29.348 1.9698,8.3393 7.2786,6.8561 15.8904,1.1812 52.8492,18.0537 73.4953,23.9733 22.3392,1.187 18.331,8.9986 56.0335,13.1727 62.3652,11.9368 30.2784,15.4613 86.3258,65.7107 32.2111,39.9418 22.5478,54.7588 13.5286,44.4514 7.0865,68.2876 7.0864,48.9609 17.394,30.9226 5.5907,14.5357"
     id="path3617-9" />
  <path
     style="fill:none;stroke:#00599a;stroke-width:5;stroke-linecap:butt;stroke-linejoin:round;stroke-miterlimit:4;stroke-dasharray:none;stroke-opacity:1"
     id="path3592-0"
     d="m 1858.5417,755.8798 3.6715,2.121 7.7037,7.7007 2.8968,8.4993 1.3065,9.7664 0.4995,16.525 2.8936,12.7105 11.9893,11.746 21.5103,44.3013 36.7206,76.0182 12.2403,53.1483 8.0527,21.9035 17.7161,35.7543 17.3192,35.5943 3.9876,17.7649 5.4112,5.392 16.4885,12.7383 12.6474,3.8193 10.8231,7.7959 7.2708,6.7064 3.406,14.3134 12.8768,12.7245 8.5112,8.9714 7.6922,8.1948 19.8705,21.6392 8.5087,15.9772 3.4052,14.9525 5.086,5.8245 11.0322,7.8439 2.5184,4.5981 0.3351,8.0648 -1.6105,22.2257 -3.8653,19.9709 -7.0865,24.8025 -51.7489,112.1708 -13.2918,27.9278 0.01,5.5228 1.5469,5.2266 3.9481,4.0603 62.5646,28.881 14.6243,16.7814 6.8188,22.5832 11.2192,13.3393 1.5074,12.8187 12.7334,37.0449 21.0127,54.7942 6.1973,14.1268 0.724,12.1682 -5.1584,14.8415 -2.5475,12.177 0.387,11.7176 4.5096,22.2257 0.322,29.6342 6.7644,33.8217 10.6297,43.8071 16.09,58.3264" />
  <path
     style="fill:none;stroke:#408335;stroke-width:5;stroke-linecap:butt;stroke-linejoin:round;stroke-miterlimit:4;stroke-dasharray:none;stroke-opacity:1"
     id="path3635"
     d="m 1713.101,1634.223 -1.7975,42.8818 -1.6106,17.7161 -5.4758,26.091 -12.5624,34.788 -28.3458,83.7489 -20.9372,54.4367 -37.0427,116.9264 -34.4659,95.0227 -7.4086,25.4468 0.1284,8.2173" />
  <path
     style="fill:none;stroke:#408335;stroke-width:5;stroke-linecap:butt;stroke-linejoin:round;stroke-miterlimit:4;stroke-opacity:1;stroke-dasharray:none"
     id="path3643"
     d="m 2755.5879,1954.7645 92.768,99.8545 34.1438,30.9226 29.6342,30.2785 50.8936,54.1146 47.0043,49.4417" />
  <path
     style="fill:none;stroke:#408335;stroke-width:5;stroke-linecap:butt;stroke-linejoin:round;stroke-miterlimit:4;stroke-dasharray:none;stroke-opacity:1"
     id="path3653"
     d="m 4265.0004,1276.3986 -253.8235,38.0091 -74.7298,14.1729 -57.3357,4.5095 -54.7589,-0.6442 -101.7871,-5.798 -86.97,-5.1538 -83.7489,-2.5768 -133.9982,-8.3749 -227.1436,-10.2065" />
  <path
     style="fill:none;stroke:#666666;stroke-width:5;stroke-linecap:butt;stroke-linejoin:round;stroke-miterlimit:4;stroke-dasharray:none;stroke-opacity:1"
     id="path3615-6"
     d="m 1100.5812,1244.8318 0.6441,29.6343 3.625,31.1824 3.7105,16.8139 6.3695,6.0716 7.0236,-0.6943 22.5413,-2.3108" />
  <path
     style="fill:none;stroke:#408335;stroke-width:5;stroke-linecap:butt;stroke-linejoin:round;stroke-miterlimit:4;stroke-opacity:1;stroke-dasharray:none"
     id="path3631-6"
     d="m 2389.0253,1978.6009 66.3549,-16.7498 23.8362,-14.1729 15.4613,-19.9709 8.3749,-32.8553 18.6825,-156.546 8.3749,-56.0473 8.3749,-46.384 13.5286,-27.7016 23.192,-32.2111 28.99,-35.4322 11.596,-37.3649 16.7498,-65.0664 44.4513,-74.0856 6.4422,-22.5477 -5.1537,-34.1438 -24.4805,-66.9991 -28.3458,-67.6433 -18.6824,-14.1729 -52.182,-20.6151 -26.4131,-12.8845 -28.99,-40.586 -65.7107,-112.73887 -21.9035,-28.3457 -76.0182,-50.8937 -58.6242,-37.3649 -28.99,-10.9517 -41.2303,-26.4132 -51.5377,-42.5186 -25.1247,-13.5287 -21.2593,-9.0191 -53.4705,-3.2211 -66.3548,2.5769 -38.0092,1.9327 -33.4904,-0.58209" />
  <path
     style="fill:none;stroke:#408335;stroke-width:5;stroke-linecap:butt;stroke-linejoin:round;stroke-miterlimit:4;stroke-opacity:1;stroke-dasharray:none"
     id="path3643-6"
     d="m 2454.736,1961.5285 24.8025,-1.9327 15.7835,4.1874 37.3649,16.1056 27.0573,7.7307 19.3266,-1.2885 120.4696,-27.7015 38.0091,-7.7307 18.0382,3.8653" />
  <path
     style="fill:none;stroke:#ffff00;stroke-width:5;stroke-linejoin:round;stroke-miterlimit:4;stroke-opacity:1;stroke-dasharray:none"
     id="path3629-4"
     d="m 2370.3427,1496.0782 7.0864,0 14.1729,3.2211 7.7307,-7.7307 16.7497,-23.8362 18.6825,-37.3649" />
  <text
     style="font-size:144px;font-style:normal;font-weight:normal;fill:#000000;fill-opacity:1;stroke:none;font-family:Sans;-inkscape-font-specification:Sans"
     xml:space="preserve"
     id="text2838"
     y="4637.9609"
     x="-1220.5469"><tspan
       id="tspan2"
       y="4637.9609"
       x="-1220.5469">1945</tspan></text>
  <text
     style="font-size:143.99990845px;font-style:normal;font-weight:normal;fill:#000000;fill-opacity:1;stroke:none;font-family:Sans;-inkscape-font-specification:Sans"
     xml:space="preserve"
     id="text2838-3"
     y="-2303.0391"
     x="-1220.5469"><tspan
       id="tspan1"
       y="-2303.0391"
       x="-1220.5469">1945</tspan></text>
  <path
     style="fill:none;stroke:#408335;stroke-width:5;stroke-linecap:butt;stroke-linejoin:round;stroke-miterlimit:4;stroke-dasharray:none;stroke-opacity:1"
     id="path3633"
     d="m 1680.3815,1611.3937 -9.6633,30.2785 -41.8744,51.5377 -53.4705,73.4414 -37.3649,46.3839 -13.5286,15.4614 -24.4805,36.7206 -86.97,115.3158 -88.2584,116.6042 -98.566,128.2002 -28.3458,28.99 -26.4131,21.2594 -89.5469,49.6051 -63.7779,38.0091 -57.33584,29.6342 -85.68152,50.8935 -60.55688,35.4323 -109.51777,63.778 -55.4031,28.99 -27.05736,10.9517 -29.63422,7.7307 -21.90355,-2.5769 -34.14378,-15.4613 -128.84443,-93.4122 -70.86444,-49.6051 -16.10555,-7.0865 -22.54778,-1.9327 -19.97088,1.9327 -83.7489,27.0573 -14.1729,5.798 -35.4322,24.4805 -59.9127,38.6533 -28.3457,26.4131 -28.3458,43.8071 -44.4513,63.778 -14.1729,21.9036 -19.20294,20.7488 -41.642176,31.6309" />
  <path
     style="fill:none;stroke:#408335;stroke-width:5;stroke-linecap:butt;stroke-linejoin:round;stroke-miterlimit:4;stroke-opacity:1;stroke-dasharray:none"
     id="path3631"
     d="m 1855.1762,758.59311 -53.6809,12.73471 -27.0573,8.3749 -47.0282,30.2785 -65.7107,47.6724 -54.1147,41.8745 -32.2111,22.5477 -23.192,14.8172 -30.2784,4.5096 -141.0847,28.3458 -48.9609,10.3075 -101.7871,23.19198 -86.3257,18.6825 -120.4696,24.4804 -54.11464,14.8171 -38.0091,1.2885 -17.394,5.1537 -22.54777,12.2403 -9.66333,16.1055 -4.50956,21.2593 3.22111,36.7207 9.01911,54.7589 12.88445,68.2875 6.44222,27.7016 1.28844,22.5478 -10.95178,38.0091 -19.97088,41.8744 -4.50956,27.7016 1.28845,36.0764 7.08644,21.2593 19.32667,28.3458 29.63421,32.2111 42.51868,50.8936 24.4804,33.4995 25.12474,29.6343 77.3066,96.6333 46.384,55.4031 21.2593,18.6824 25.7689,12.8845 30.9227,5.798 79.2393,0 43.1629,-1.2885 37.3649,-5.798 47.6724,-1.2884 33.1194,1.183 13.6654,-2.4462 16.349,-7.1117 35.4322,-13.5287 32.8553,-4.5095 19.9709,1.9326 21.9036,9.6634 23.192,15.4613 16.1055,22.5478 16.7498,45.7398 19.3267,22.5477 15.7416,8.8587 15.1043,3.3536 37.4416,-0.6163 53.4705,3.2211 36.7206,8.3749 38.6534,15.4614 26.4131,15.4613 38.0091,26.4131 30.2784,14.8171 41.2302,16.7498 33.4996,-1.2885 97.2775,-13.5286 36.0765,-8.3749 22.5478,-6.4422 77.9508,-16.7498 106.9409,-26.4131" />
  <path
     style="fill:none;stroke:#408335;stroke-width:5;stroke-linecap:butt;stroke-linejoin:round;stroke-miterlimit:4;stroke-dasharray:none;stroke-opacity:1"
     id="path3649"
     d="m 3190.7043,1300.3361 -31.1891,-0.1013 -118.5369,-5.1538 -39.9417,4.5096 -25.1247,5.1538 -33.4996,10.9517 -30.2784,19.9709 -47.0282,41.2302 -85.0373,71.5087 -15.4614,11.596 -23.192,10.9518 -19.9946,5.8249 -24.3602,2.4454 -36.2277,-3.0919 -71.6509,-21.9215 -143.1424,-38.66 -77.9509,-25.4468 -20.9372,-9.9854 -36.1942,-24.4472 -25.329,-15.4946 -20.9373,-4.8317 -23.5141,-6.7643 -12.8844,-1.6106 -14.5755,-0.818 -12.0498,-2.8356 -12.6723,-9.5529 -20.9372,-12.2402 -19.777,-10.8131 -6.8648,-4.9973 -5.9933,-8.9693 -4.0856,-12.5852 -12.2402,-20.293 -3.2211,-14.8171 -8.0528,-14.8172 -35.7543,-38.3312 -12.5623,-12.5623 -13.5287,-8.0528 -10.6297,-2.5769 -12.8844,0.6443 -14.8171,5.1537 -11.2133,5.7023 -11.8421,3.3457 -20.7517,1.2596 -12.4517,2.1325 -10.9254,6.0433 -14.3099,11.1509 -5.2902,4.2659 -6.6279,4.1089 -11.596,3.8654 -41.2302,2.5769 -9.3413,-1.2885 -13.0374,-5.823 -12.0872,-6.4172 -9.0191,-3.8653 -10.6297,-0.9664 -18.3603,-0.6442 -10.9518,-3.2211 -10.9518,-7.0864 -9.6633,-16.7498 -11.9181,-16.4277 -10.8986,-12.8468 -9.0809,-5.8431 -25.509,-3.3971 -19.8181,1.6465 -9.8011,5.7827 -15.7277,14.0136 -15.7834,14.1729 -52.8262,45.0955 -10.6297,7.4086 -14.8171,5.4759 -14.495,2.2547 -64.4222,-8.697 -18.0382,-1.6105 -21.9036,5.1538 -19.3266,13.2065 -33.4996,45.4177 -5.4759,12.5623 -25.8735,82.5227 -14.7334,32.0296 -12.344,22.6372 -8.2502,10.3374 -13.5287,9.0191 -16.7497,3.2211 -80.5278,-7.7306 -51.5378,-4.8317 -40.2639,-2.5769 -25.1246,4.5096 -17.394,4.5095 -53.7926,20.6151 -24.8316,8.2792 -23.8071,6.5379 -21.9036,3.8654 -19.32666,5.4758 -50.57144,23.5142 -58.94633,30.6005 -16.42766,7.0865" />
  <path
     d="m 1953.7565,664.03598 2.2841,14.84643 4.3653,30.9564 -4.9422,20.2593 -8.5143,11.1344 -17.4709,9.8797 -12.0147,2.2402 -62.2872,5.2405 -25.3798,8.90555 -18.8706,15.00643 -27.8763,33.78355 -6.2636,24.2374 4.7383,42.49759 7.156,39.16226 7.9314,20.72388 11.0353,21.60064 38.7961,53.21719"
     id="path7843-3"
     style="fill:none;stroke:#408335;stroke-width:5;stroke-linecap:butt;stroke-linejoin:round;stroke-miterlimit:4;stroke-dasharray:none;stroke-opacity:1" />
  <path
     d="m 1877.7878,1545.1146 3.5909,1.2139 14.817,1.288 27.701,-4.51 16.75,-4.51 h 103.075 l 45.096,-3.864 19.3271,0.644 20.6149,-3.866 24.48,-5.153 h 63.134 l 17.3939,-1.933 20.615,-1.933 16.106,1.289 48.96,-12.24 41.23,-10.308 9.6641,-5.154 h 7.0859 l 14.173,3.221 7.731,-7.73 16.75,-23.837 18.682,-37.364"
     style="fill:none;stroke:#62ad2d;stroke-width:5;stroke-linejoin:round;stroke-miterlimit:4;stroke-dasharray:none;stroke-opacity:1"
     id="path1398" />
  <path
     style="fill:none;stroke:#ffd500;stroke-width:5;stroke-linecap:butt;stroke-linejoin:round;stroke-miterlimit:4;stroke-dasharray:none;stroke-opacity:1"
     id="path3623-1-9"
     d="m 1558.7771,1515.3308 -19.9943,9.3463 -67.774,32.6022 -32.7221,15.7957 -6.4608,5.8129 -1.9529,7.9546 1.0353,59.446 -2.4756,8.9684 -8.3174,8.9633 -5.1538,9.6633 -1.9327,16.1056 18.0383,78.5951 16.6719,69.6085" />
  <path
     d="m 807.46011,1539.8855 -20.1529,2.1447 -24.1888,-8.0891 -16.3509,-8.3549 -11.6813,-10.6261 -15.7718,-21.3547 -4.9239,-9.1134 -8.6788,-36.9137 -4.5065,-18.1091 -9.6448,-14.7852 -9.9864,-9.6414 -30.0813,-20.5064 -16.92542,-15.4144 -8.81589,-11.5108 -9.05065,-16.6556 -9.99647,-9.1751 -23.8889,-6.2264 -24.80334,-1.5674 -101.03858,28.0423 -56.88268,12.7255 -11.28413,0.4648 -12.78894,-1.4964 -10.53253,-5.225 -27.71487,-21.3045 -28.07441,-29.3626 -13.5599,-23.6847 -4.17229,-16.7266 -4.432,-75.2586 1.00363,-13.4079 2.79931,-11.8055 21.56037,-55.5195 4.39271,-18.3514 -1.68141,-20.4655 -5.21188,-12.2596 -10.83482,-10.8833 -13.04044,-7.4544 -106.20934,-22.0154"
     id="path3657-3"
     style="fill:none;stroke:#408335;stroke-width:5;stroke-linecap:butt;stroke-linejoin:round;stroke-miterlimit:4;stroke-dasharray:none;stroke-opacity:1" />
  <path
     style="fill:none;stroke:#408335;stroke-width:5;stroke-linecap:butt;stroke-linejoin:round;stroke-miterlimit:4;stroke-dasharray:none;stroke-opacity:1"
     id="path3633-7"
     d="m 1680.3815,1611.3937 12.2403,-9.6633 13.9154,-14.3365 8.3881,-23.7786 3.2932,-38.0226 2.417,-25.0988 11.4225,-59.7577 9.5459,-27.9307" />
</svg>
