<?xml version="1.0" encoding="UTF-8" standalone="no"?>
<svg
   version="1.1"
   width="8150"
   height="7250"
   viewBox="-1310, -2510, 8150, 7250"
   id="svg2"
   xmlns:xlink="http://www.w3.org/1999/xlink"
   xmlns="http://www.w3.org/2000/svg"
   xmlns:svg="http://www.w3.org/2000/svg"
   xmlns:rdf="http://www.w3.org/1999/02/22-rdf-syntax-ns#"
   xmlns:cc="http://creativecommons.org/ns#"
   xmlns:dc="http://purl.org/dc/elements/1.1/">
  <metadata
     id="metadata3079">
    <rdf:RDF>
      <cc:Work
         rdf:about="">
        <dc:format>image/svg+xml</dc:format>
        <dc:type
           rdf:resource="http://purl.org/dc/dcmitype/StillImage" />
      </cc:Work>
    </rdf:RDF>
  </metadata>
  <defs
     id="defs6" />
  <image
     xlink:href="../streetmap/berosm.png"
     style="display:none"
     id="image12"
     height="7397.1431"
     width="8424.5244"
     y="-2537.8569"
     x="-1488.333" />
  <path
     d="m 1865.2729,757.79961 7.4086,11.27389 1.4463,29.6012 3.3853,14.5281 11.9893,11.746 21.5103,44.3013 36.7206,76.0183 12.2403,53.1483 8.0527,21.9036 17.7161,35.7543 18.6825,38.6533 6.7643,19.9709 19.0046,14.1729 22.2256,10.3076 7.2708,6.7064 3.406,14.3134 12.8768,12.7245 8.5113,8.9714 7.6922,8.1948 19.8705,21.6392 8.5086,15.9772 3.4053,14.9525 5.086,5.8245 11.0322,7.8439 2.5184,4.5981 0.3351,8.0648 -1.6105,22.2257 -3.8653,19.9709 -7.0865,24.8025 -51.7489,112.1708 -13.2919,27.9278 0.01,5.5228 1.5468,5.2266 3.9481,4.0603 62.5647,28.881 14.6242,16.7814 32.2788,85.7861 27.0574,73.7634 -0.9664,6.7644 -5.1537,20.6151 -0.3222,18.6824 4.5096,22.2257 0.3221,29.6342 6.7643,33.8217 10.6297,43.8071 18.0382,65.3885"
     id="path3592"
     style="fill:none;stroke:#1b5ea4;stroke-width:5;stroke-linecap:butt;stroke-linejoin:round;stroke-miterlimit:4;stroke-opacity:1;stroke-dasharray:none" />
  <path
     d="m 1862.4412,1615.394 2.1875,7.2739 7.2786,6.8562 15.8904,1.1811 52.8492,18.0537 110.0685,33.1366 60.1305,14.1951 62.3652,11.9368 30.2784,15.4613 86.3258,65.7107 32.2111,39.9417 22.5478,54.7589 13.5286,44.4513 7.0865,68.2876 7.0864,48.9609 17.394,30.9226 4.259,11.0733"
     id="path3615"
     style="fill:none;stroke:#7d64b1;stroke-width:5;stroke-linecap:butt;stroke-linejoin:round;stroke-miterlimit:4;stroke-opacity:1;stroke-dasharray:none" />
  <path
     d="m 878.32455,124.52921 18.03822,26.4131 23.83622,41.2302 36.72071,73.4413 18.6824,31.5669 25.7689,50.8936 20.6151,25.7688 34.1438,36.0765 40.586,45.0955 19.3266,14.1729 23.8362,10.9518 52.182,20.6151 27.0574,7.7306 39.9417,18.0383 46.384,19.3266 30.2785,14.8171 43.1629,40.5862 97.9217,90.8353 76.6625,71.50859 114.0273,106.2967 27.0573,27.0573 47.6725,50.8937 28.99,36.0764 43.1628,57.98 37.3649,50.8936 5.1538,38.6533 10.9518,105.0082 11.596,122.4022 9.6633,88.9027 9.0191,89.5469 -5.1538,23.192 -16.4276,24.4804 -14.2435,31.8338"
     id="path3617"
     style="fill:none;stroke:#7d64b1;stroke-width:5;stroke-linecap:butt;stroke-linejoin:round;stroke-miterlimit:4;stroke-opacity:1;stroke-dasharray:none" />
  <path
     d="m 2094.2909,1187.9669 12.5653,-10.4565 5.798,-4.5095 5.798,-3.5433 6.1201,0 11.9907,7.9301 51.4752,28.2431 50.5643,21.8656 26.8765,8.1996 148.0485,24.1433 70.6078,11.3884 194.5129,32.3428 160.8035,26.421 48.8379,7.9803 37.7672,16.9501 63.7059,34.2155 28.0236,14.8171 14.8172,18.0382"
     id="path3621"
     style="fill:none;stroke:#78513d;stroke-width:5;stroke-linecap:butt;stroke-linejoin:round;stroke-miterlimit:4;stroke-opacity:1;stroke-dasharray:none" />
  <path
     d="m 1731.1374,1516.3048 -0.4555,-14.577 9.1106,-51.9309 19.1324,-58.3083 7.2886,-15.4882 23.2322,-29.6097 6.8331,-3.6443 11.8438,-2.2776 20.4991,-7.7441"
     id="path3627-2"
     style="fill:none;stroke:#f1471d;stroke-width:5;stroke-linecap:butt;stroke-linejoin:round;stroke-miterlimit:4;stroke-opacity:1;stroke-dasharray:none" />
  <path
     d="m 1113,2021.5 25,-25 22,-36.5 7.5,-23.5 2,-18 -1,-22.5 -16,-50 -0.5,-13 7.5,-17.5 2,-5.5 2.5,-117.5 2,-17.5 2.5,-6.5 13,-19 112,-63 24.9999,-4.5 7.5,-5 2,-12.5 35.5,-41.9999 32.8592,-51.1815 23.6021,-6.7212 24.4512,13.5475 99.1263,33.4719 106.7993,39.2978 11.2721,-0.5375 13.0266,3.859 37.6504,0.028 6.2934,-3.0933 4.6096,-6.6241 3.4579,-28.557 -0.7302,-14.5161 9.0566,-52.9893 20.2311,-60.0907 7.5957,-15.2809 23.2483,-30.204 9.3712,-5.0843 11.2354,-1.7657 19.4736,-7.6207 26.4848,-4.7356 48.2758,-3.7976 4.9904,-4.3186 6.7348,-7.859 6.0922,-3.6972 13.0064,-1.8798 9.3993,2.9395 9.5666,0.094 24.3319,17.2409 20.1105,8.8039 16.5989,4.507 17.4914,0.2209 17.8081,-6.8182 29.2349,-15.7224 4.072,-6.2378 3.3687,-9.0323 2.4914,-48.3237 -2.8927,-10.2757 -5.7988,-9.949 0.056,-13.8056 25.0387,-20.634 3.2644,-6.0652 -0.9792,-3.6227 -23.0903,-21.929 -10.0135,-10.1204 -7.2038,-17.6645 2.4667,-13.4224 5.6496,-13.0969 -11.53,-43.0299 2.8035,-11.151 7.1157,-13.3204 11.2338,-11.0463 4.6044,-22.0717 -0.3984,-21.60196 -2.2988,-25.3676 -1.8096,-81.70121 1.6285,-29.46542 3.7612,-36.67789 16.5356,-116.72191 1.44,-32.54927 -3.2066,-26.62755 -9.655,-27.6877 -1.0459,-17.64211"
     id="path6095"
     style="fill:none;stroke:#f78f98;stroke-width:5;stroke-linecap:butt;stroke-linejoin:round;stroke-miterlimit:4;stroke-dasharray:none;stroke-opacity:1" />
  <path
     d="m 1570.2188,2213.7418 -4.8316,-34.1437 -1.6106,-27.7016 -0.3221,-20.6151 7.4086,-25.4468 34.4659,-95.0227 37.0427,-116.9264 20.9372,-54.4367 28.3458,-83.7489 12.5624,-34.788 5.4758,-26.091 1.6106,-17.7161 2.2548,-53.7926 1.2884,-29.9563 5.1538,-20.9372 18.1488,-26.5694 19.5692,-12.7565 19.917,-18.5988 25.1475,-59.968 0.6443,-13.8508 -4.5096,-11.596 -37.687,-50.8935 -2.2548,-11.9181 5.2338,-68.3687 2.819,-23.7551 7.7307,-6.4422 16.1055,-4.8317 35.4323,-4.8316 8.3748,-5.1538 8.0528,-12.5624 -3.5432,-27.3794 3.5432,-11.2739 15.7835,-16.4276 13.8507,-7.0865 c 0,0 14.1729,-0.6442 17.394,-0.9663 l 9.6634,-12.2402 17.394,-52.5042 -0.9664,-12.5623 -11.2739,-24.8025 -15.7834,-26.7353 -19.3267,-28.0236 -64.7868,-60.04897 -12.8133,-20.68682 -10.3353,-56.56108 -4.7383,-42.49759 6.2636,-24.2374 27.8763,-33.78355 18.8706,-15.00643 25.3798,-8.90555 62.2872,-5.2405 12.0147,-2.2402 17.4709,-9.8797 8.5143,-11.1344 4.9422,-20.2593 -4.3653,-30.9564 -5.1538,-33.4995 0.346,-16.7682"
     id="path3635"
     style="fill:none;stroke:#008940;stroke-width:5;stroke-linecap:butt;stroke-linejoin:round;stroke-miterlimit:4;stroke-opacity:1;stroke-dasharray:none" />
  <path
     d="m 774.60438,1359.5028 25.7688,7.7307 86.3258,-9.0191 342.72622,-36.7207 11.596,2.5769 10.3076,10.3076 28.3458,36.0764 25.1246,19.9709 54.7589,41.2302 15.4613,3.2211 8.7307,11.8845 21.7593,15.1392 13.9616,8.4085"
     id="path3627"
     style="fill:none;stroke:#f1471d;stroke-width:5;stroke-linecap:butt;stroke-linejoin:round;stroke-miterlimit:4;stroke-dasharray:none;stroke-opacity:1" />
  <path
     d="m 1950.0272,632.97778 1.0921,-19.38951 -7.6992,-43.22581 -21.55,-40.52309 -99.8154,-94.00976 -98.5784,-88.28035"
     id="path3639"
     style="fill:none;stroke:#008940;stroke-width:5;stroke-linecap:butt;stroke-linejoin:round;stroke-miterlimit:4;stroke-opacity:1;stroke-dasharray:none" />
  <path
     d="m 3059.6608,2269.7892 25.1246,15.4613 30.9227,1.2884 29.6342,-9.0191 165.5651,-48.3166 8.3749,-0.6443 12.8845,3.2212 117.2484,41.8744 13.5287,14.8171 25.1246,47.0282"
     id="path3647"
     style="fill:none;stroke:#008940;stroke-width:5;stroke-linecap:butt;stroke-linejoin:round;stroke-miterlimit:4;stroke-opacity:1;stroke-dasharray:none" />
  <path
     d="m 1419.471,1470.309 21.9033,11.9185 108.5514,36.7206 57.6579,21.5815 42.0132,15.4067 11.8439,-0.4556 12.2995,3.6443 40.5425,-0.4555 7.744,-4.5553 5.0109,-7.2886 4.0998,-30.5208"
     id="path3627-8"
     style="fill:none;stroke:#f1471d;stroke-width:5;stroke-linecap:butt;stroke-linejoin:round;stroke-miterlimit:4;stroke-dasharray:none;stroke-opacity:1" />
  <path
     d="M 1723.6236,347.92426 1580.4638,222.28618 1424.2713,79.55952 1319.8445,-12.210735 1293.7221,-39.040295 1271.8814,-72.18624 1116.5,-283.5 l -31,-52.5 -92,-126.5 -81.5,-114.5 -14.5,-29 -7,-30.5 0.5,-26 13,-180 6.5,-143 16,-242 -4,-29 9,-35.5 2.5,-66.5 -2.5,-39 -6,-33 -119,-411.5 -87.5,-310 -18,-41.5 -16.5,-29 -22.5,-30 -48,-51.5 -53.5,-102"
     id="path4387"
     style="fill:none;stroke:#008940;stroke-width:5;stroke-linecap:butt;stroke-linejoin:round;stroke-miterlimit:4;stroke-opacity:1;stroke-dasharray:none" />
  <path
     d="m 2757.7703,1957.3566 -220.7499,-245.487 -12.3426,-21.1554 -1.3666,-19.5879 6.833,-19.5879 7.2885,-14.5772"
     id="path4389"
     style="fill:none;stroke:#008940;stroke-width:5;stroke-linecap:butt;stroke-linejoin:round;stroke-miterlimit:4;stroke-opacity:1;stroke-dasharray:none" />
  <path
     d="m 2590.1296,1457.8746 14.936,11.6236 4.5402,8.9026 3.0401,13.604 0.1301,20.8772"
     id="path3632"
     style="fill:none;stroke:#008940;stroke-width:5;stroke-linecap:butt;stroke-linejoin:round;stroke-miterlimit:4;stroke-opacity:1;stroke-dasharray:none" />
  <path
     d="m 1818.3831,1336.5923 10.2385,-3.8679 24.5988,-4.0998 49.6532,-4.0998 5.9219,-5.0109 6.3776,-7.7441 5.0108,-3.1887 11.3884,-1.3666 8.6551,2.7332 9.1106,0 24.5988,17.3103 20.0435,8.6551 17.3104,4.0998 19.588,0.4556 17.3102,-6.833 31.4319,-16.3993 5.0109,-8.1996 3.6442,-9.5662 2.7333,-50.1087 -3.1888,-11.8439 -5.4664,-9.1107 0,-10.4772 24.5988,-20.499 4.0999,-7.7442 -1.8222,-6.833 -23.6878,-22.3211 -9.5662,-10.0217 -6.3774,-15.0327 2.2776,-11.8438 5.922,-14.1216 -11.8439,-43.2757 2.7332,-9.5662 6.3774,-11.8439 11.8439,-11.8439 5.0109,-23.6877 -0.4555,-22.7768 -2.2777,-24.1432 -1.8221,-81.5407 1.3666,-30.5208 4.0998,-36.4427 16.3992,-116.16109 1.3666,-33.254 -3.1887,-27.7876 -9.5662,-27.332 -1.0377,-17.12157"
     id="path3737"
     style="fill:none;stroke:#f1471d;stroke-width:5;stroke-linecap:butt;stroke-linejoin:round;stroke-miterlimit:4;stroke-opacity:1;stroke-dasharray:none" />
  <path
     d="m 480.839,1115.3426 17.394,9.0192 16.10555,7.0864 9.01912,10.9518 4.50955,18.0382 15.46133,30.2784 19.32667,42.5187 14.17288,21.2593 14.17289,8.3749 16.10556,5.1538 31.5669,-7.0864 33.49955,4.5095 14.81711,12.2402 66.99907,65.7107 20.1152,21.1055 26.7688,7.7307 84.3258,-9.0191 258.80102,-27.7143 86,-9.5 9,2.5 10.6229,11.1475 26.8771,33.8525 10,9 70.4999,53 15,3.5 7.5,10.5 21.5,15.5 38.4852,21.5949"
     id="path6097"
     style="fill:none;stroke:#4fb638;stroke-width:5;stroke-linecap:butt;stroke-linejoin:round;stroke-miterlimit:4;stroke-dasharray:none;stroke-opacity:1" />
  <path
     d="m 1720.7465,1571.4519 -13.3076,14.8171 -14.8171,15.4614 -12.2403,9.6633 -9.6633,30.2785 -41.8744,51.5377 -53.4705,73.4414 -37.3649,46.3839 -13.5286,15.4614 -24.4805,36.7206 -86.97,115.3158 -88.2584,116.6042 -98.566,128.2002 -28.3458,28.99 -26.4131,21.2594 -89.5469,49.6051 -63.7779,38.0091 -57.33584,29.6342 -85.68152,50.8935 -60.55688,35.4323 -109.51777,63.778 -55.4031,28.99 -27.05736,10.9517 -29.63422,7.7307 -21.90355,-2.5769 -34.14378,-15.4613 -128.84443,-93.4122 -70.86444,-49.6051 -16.10555,-7.0865 -22.54778,-1.9327 -19.97088,1.9327 -83.7489,27.0573 -14.1729,5.798 -35.4322,24.4805 -59.9127,38.6533 -28.3457,26.4131 -28.3458,43.8071 -44.4513,63.778 -14.1729,21.9036 -19.202942,20.7488"
     id="path3633"
     style="fill:none;stroke:#008940;stroke-width:5;stroke-linecap:butt;stroke-linejoin:round;stroke-miterlimit:4;stroke-opacity:1;stroke-dasharray:none" />
  <path
     d="m 1868.9522,1590.6601 -11.1341,25.3118 -11.2275,52.1141 -5.1538,31.5668 0.5226,53.8321 3.6349,20.9263 -2.3983,161.1638 -4.1006,19.326 0.2931,31.3199"
     id="path5442-6"
     style="fill:none;stroke:#3a9fd7;stroke-width:5;stroke-linecap:butt;stroke-linejoin:round;stroke-miterlimit:4;stroke-dasharray:none;stroke-opacity:1" />
  <path
     d="m 296.99999,1045.5 19.25,4.25 36.5,7.5 53,8.5 29.25,5.75 22.75,6.5 32.75,15.75 29.25,9.5 26,2.5 30.5,-1.5 180.24999,-19.25 117.75,-12.5 20.5784,-2.1398 17.41424,-1.7744"
     id="path3011"
     style="fill:none;stroke:#008940;stroke-width:5;stroke-linecap:butt;stroke-linejoin:round;stroke-miterlimit:4;stroke-opacity:1;stroke-dasharray:none" />
  <path
     d="m 899.4398,1069.1516 -22.62741,-1.7678 -13.78858,-4.9497 -9.8995,-7.0711 -13.78858,-14.8492 -22.62742,-33.5876 -2.47487,-13.43501 1.76777,-26.87006 -2.12132,-12.02081 -5.65686,-14.49569 -10.25305,-11.66726 -11.31371,-8.13173 -8.48528,-3.18198 -64.34671,-2.47487 -12.02082,-4.24264 -15.55635,-8.48528 L 564.2712,794.79419"
     id="path3785"
     style="fill:none;stroke:#008940;stroke-width:5;stroke-linecap:butt;stroke-linejoin:round;stroke-miterlimit:4;stroke-opacity:1;stroke-dasharray:none" />
  <path
     d="m 339.99999,2723 67.5,-31.5 201.49999,-99.5 26,-14"
     id="path3959"
     style="fill:none;stroke:#008940;stroke-width:5;stroke-linecap:butt;stroke-linejoin:round;stroke-miterlimit:4;stroke-opacity:1;stroke-dasharray:none" />
  <path
     d="m 963.5,1470.5 -16,10 -12,14 -10.5,18.5 -1.5,14 1.5,10.5 6,14.5"
     id="path4151"
     style="fill:none;stroke:#008940;stroke-width:5;stroke-linecap:butt;stroke-linejoin:round;stroke-miterlimit:4;stroke-opacity:1;stroke-dasharray:none" />
  <path
     d="m 1100.5812,1244.8318 0.6441,29.6343 3.625,31.1824 3.7105,16.8139 6.3695,6.0716 7.0236,-0.6943 22.5413,-2.3108"
     id="path3615-6"
     style="fill:none;stroke:#666666;stroke-width:5;stroke-linecap:butt;stroke-linejoin:round;stroke-miterlimit:4;stroke-opacity:1;stroke-dasharray:none" />
  <path
     d="m 2389.0253,1978.6009 66.3549,-16.7498 23.8362,-14.1729 15.4613,-19.9709 8.3749,-32.8553 18.6825,-156.546 8.3749,-56.0473 8.3749,-46.384 13.5286,-27.7016 23.192,-32.2111 28.99,-35.4322 11.596,-37.3649 16.7498,-65.0664 44.4513,-74.0856 6.4422,-22.5477 -5.1537,-34.1438 -24.4805,-66.9991 -28.3458,-67.6433 -18.6824,-14.1729 -52.182,-20.6151 -26.4131,-12.8845 -28.99,-40.586 -65.7107,-112.7389 -21.9035,-28.3457 -76.0182,-50.8937 -58.6242,-37.3649 -28.99,-10.9517 -41.2303,-26.4132 -51.5377,-42.5186 -25.1247,-13.5287 -21.2593,-9.0191 -53.4705,-3.2211 -66.3548,2.5769 -38.0092,1.9327 -37.7421,-0.4403"
     id="path3631-6"
     style="fill:none;stroke:#008940;stroke-width:5;stroke-linecap:butt;stroke-linejoin:round;stroke-miterlimit:4;stroke-opacity:1;stroke-dasharray:none" />
  <path
     d="m 2454.736,1961.5285 24.8025,-1.9327 15.7835,4.1874 37.3649,16.1056 27.0573,7.7307 19.3266,-1.2885 120.4696,-27.7015 38.0091,-7.7307 18.0382,3.8653"
     id="path3643-6"
     style="fill:none;stroke:#008940;stroke-width:5;stroke-linecap:butt;stroke-linejoin:round;stroke-miterlimit:4;stroke-opacity:1;stroke-dasharray:none" />
  <path
     d="m 2370.3427,1496.0782 7.0864,0 14.1729,3.2211 7.7307,-7.7307 16.7497,-23.8362 18.6825,-37.3649"
     id="path3629-4"
     style="fill:none;stroke:#4fb638;stroke-width:5;stroke-linejoin:round;stroke-miterlimit:4;stroke-opacity:1;stroke-dasharray:none" />
  <text
     x="-1220.5469"
     y="4637.9609"
     id="text2838"
     xml:space="preserve"
     style="font-size:144px;font-style:normal;font-weight:normal;fill:#000000;fill-opacity:1;stroke:none;font-family:Sans;-inkscape-font-specification:Sans"><tspan
       x="-1220.5469"
       y="4637.9609"
       id="tspan2">1960</tspan></text>
  <text
     x="-1220.5469"
     y="-2303.0391"
     id="text2838-3"
     xml:space="preserve"
     style="font-size:143.99990845px;font-style:normal;font-weight:normal;fill:#000000;fill-opacity:1;stroke:none;font-family:Sans;-inkscape-font-specification:Sans"><tspan
       x="-1220.5469"
       y="-2303.0391"
       id="tspan1">1960</tspan></text>
  <path
     style="fill:none;stroke:#008940;stroke-width:5;stroke-linecap:butt;stroke-linejoin:round;stroke-miterlimit:4;stroke-dasharray:none;stroke-opacity:1"
     id="path3641"
     d="m 2661.7927,1479.3468 41.2903,14.7992 14.495,4.5095 68.2876,44.4514 75.374,45.0955 23.192,14.1728 21.9035,21.9036 57.98,24.4804 52.8262,39.2975 37.3649,41.8745 23.8362,20.6151 76.0182,55.4031 101.1429,74.7298 152.6806,109.5177 115.96,83.1047 55.4031,41.2302 50.2493,26.4131 41.8744,9.0191 30.2785,1.9327 57.3357,-5.1538 52.182,4.5096 38.0092,7.0864 36.0764,1.2885 65.7107,3.2211 149.4595,6.4422 81.8162,5.798 82.4604,11.596 317.4996,52.8155 237.5,39 33,11.5 29,15 36.5,30 28.5,38.5 22,52.5 27,43 23,22.5 38.5,27 38.5,13 89,15 30.5,13.5 25.5,18.5 23.5,29" />
  <path
     style="fill:none;stroke:#008940;stroke-width:5;stroke-linecap:butt;stroke-linejoin:round;stroke-miterlimit:4;stroke-dasharray:none;stroke-opacity:1"
     id="path3643"
     d="m 2755.5871,1954.7647 92.768,99.8545 34.1438,30.9226 29.6342,30.2785 50.8936,54.1146 86.9699,91.4796 35.4323,32.2111 26.4131,18.6824 30.9226,28.99 45.7398,48.9609 157.8344,184.8918 63.1337,66.3548 74.7298,81.1719 16.1055,20.6151 51.5378,59.2685 38.6533,39.9418 98.566,109.5177 50.8936,57.98 90.5406,95.4996 12,22 16,26.5 57.5,151 95,239 7.5,27.5 60.5,211.5 12.5,31.5 29,60 64.5,165 8.5,32.5 3,34.5 -1.5,29.5 -5.5,34.5 -41.5,156 -6,44.5 -4.5,124 0.5,141" />
  <path
     style="fill:none;stroke:#008940;stroke-width:5;stroke-linecap:butt;stroke-linejoin:round;stroke-miterlimit:4;stroke-dasharray:none;stroke-opacity:1"
     id="path3653"
     d="m 3190.7043,1300.3361 227.1435,10.2065 133.9982,8.3749 83.7489,2.5768 86.97,5.1538 101.7871,5.798 54.7589,0.6442 57.3357,-4.5095 74.7298,-14.1729 253.8235,-38.0091 293.9996,-47.8986 361.5,-54 28.5,-7.5 56.5,-19.5 35.5,-8.5 99,-17.5 124,0.5 205.0001,-31 363.5,-55 141,-22 47.5,0.5 13,1.5" />
  <path
     style="fill:none;stroke:#008940;stroke-width:5;stroke-linecap:butt;stroke-linejoin:round;stroke-miterlimit:4;stroke-dasharray:none;stroke-opacity:1"
     id="path3637"
     d="m 1568.9308,2210.5205 0,27.7016 -12.8844,35.4322 -25.1247,53.4704 -14.8171,26.4131 -37.3649,47.6725 -59.9127,65.0664 -52.8262,58.6242 -55.4031,52.182 -19.3266,25.1247 -11.596,18.0382 -46.384,47.6724 -26.4132,33.4995 -25.7688,38.0091 -20.6151,40.586 -28.3458,68.2876 -14.1515,50.4737 L 1034.5,3230.5" />
  <path
     d="m 1951.2328,628.61442 6.0581,-24.313 13.2787,-15.1056 78.8451,-75.7682 65.2106,-60.3069 46.0956,-48.4224 52.7204,-50.1436 33.2496,-38.6533 36.0764,-56.9416 76.2682,-121.2579 137.5078,-212.093412 45.9567,-68.108798 12,-29 19.5001,-17 134.5,-205 24,-31.5 97.5,-152.5 45,-52.5 188,-169.5 166.5,-151 38.5,-29.5 30,-14 382.5,-150.50001 53.5,-27 39.5,-21.5"
     id="path3635-8"
     style="fill:none;stroke:#008940;stroke-width:5;stroke-linecap:butt;stroke-linejoin:round;stroke-miterlimit:4;stroke-dasharray:none;stroke-opacity:1" />
  <path
     id="path11624"
     d="m 10.3814,3203.178 -177.8072,-335.5933 -13.8242,-26.6949 -2.86017,-15.2542 0.4767,-13.3475 4.76695,-18.5911"
     style="fill:none;fill-rule:evenodd;stroke:#008940;stroke-width:5;stroke-linecap:butt;stroke-linejoin:round;stroke-opacity:1;stroke-miterlimit:4;stroke-dasharray:none" />
  <path
     id="path12300"
     d="M -186.88589,908.9704 -299.5,865 -553,757 -934,592"
     style="fill:none;fill-rule:evenodd;stroke:#008940;stroke-width:5;stroke-linecap:butt;stroke-linejoin:round;stroke-miterlimit:4;stroke-dasharray:none;stroke-opacity:1" />
  <path
     d="m 1566.9097,1511.3363 -28.1268,13.3409 -67.774,32.6022 -38.0091,19.3267 -4.5095,7.7306 2.5769,65.7107 -10.9518,14.1729 -5.1538,9.6633 -1.9327,16.1056 18.0383,78.5951 16.7497,71.5086"
     id="path3623"
     style="fill:none;stroke:#fcd205;stroke-width:5;stroke-linecap:butt;stroke-linejoin:round;stroke-miterlimit:4;stroke-opacity:1;stroke-dasharray:none" />
  <path
     style="fill:none;stroke:#6cc1b0;stroke-width:5;stroke-linecap:butt;stroke-linejoin:round;stroke-miterlimit:4;stroke-dasharray:none;stroke-opacity:1"
     id="path3625-3"
     d="m 484.70445,2389.614 10.95177,-16.1055 19.32667,-15.4614 27.05733,-30.9226 34.14377,-29.6343 22.54778,-14.8171 31.5669,-11.596 18.03822,-3.8653 26.41311,-0.6442 137.86354,16.1055 18.68245,0.6443 24.48044,-9.6634 40.586,-28.3457 9.0191,-11.596 31.5669,-53.4705 14.8171,-28.3458 3.2211,-16.1055 12.2402,-39.9418 11.59597,-17.394 16.1056,-10.3075 16.7497,-11.596 17.394,-8.3749 31.5669,-4.5096 35.4322,-5.798 16.1056,-9.6633 28.99,-28.3458 23.192,-38.6533 7.7307,-21.2594 2.5768,-21.2593 -1.2884,-22.5478 -5.798,-18.0382 -10.9518,-32.2111 -0.6442,-10.9518 9.0191,-19.9709 1.2885,-16.7497 2.5768,-108.2293 2.5769,-17.394 11.596,-18.0383 81.8162,-47.6724 28.3458,-15.4613 26.2599,-4.5329 8.7306,-6.2127 3.985,-13.0907 36.7206,-44.1292 31.2448,-48.3166 30.5243,-10.2046 15.8028,8.7507 103.7459,35.0712 18.8819,-9.4102 9.3699,-5.1808 9.5934,-1.1916 40.1616,19.3653 7.8655,1.6088 12.2749,-6.7928 49.0399,7.2696 43.2601,1.9663 19.9616,2.4431 13.4667,-2.1452 26.2182,6.8525 23.5368,-0.715 13.8838,3.456 44.3326,15.5522 14.5988,1.0725 25.7415,-4.3498 17.4589,-4.7669 103.562,-0.1192 45.1669,-3.8136 19.5444,0.7151 44.0751,-8.8267 63.0122,0.043 39.1338,-4.2019 15.6109,1.2843 88.6683,-22.0919 10.1372,-5.4568 9.1691,-0.03 12.3045,3.1016 4.9151,-5.6111 17.0286,-23.6076 18.1736,-36.94" />
  <path
     d="m 1439.4851,1486.595 97.689,33.4322 43.0301,-21.0503 7.4085,-0.9664 39.2976,18.6825 8.697,2.2548 13.8508,-6.7644 15.4613,2.2548 31.8889,4.8317 43.1629,1.9326 20.293,2.5769 14.1729,-1.9326 25.1247,6.4422 h 10.3076 l 12.8844,-0.6442 12.8844,3.2211 45.7397,15.4613 14.8172,1.2885 27.7015,-4.5096 16.7498,-4.5096 h 51.5378 51.5378 l 45.0955,-3.8653 19.3267,0.6442 20.615,-3.8653 24.4805,-5.1538 h 63.1338 l 17.394,-1.9326 20.6151,-1.9327 16.1055,1.2884 48.9609,-12.2402 41.2302,-10.3075 9.6634,-5.1538"
     id="path3629"
     style="fill:none;stroke:#4fb638;stroke-width:5;stroke-linejoin:round;stroke-miterlimit:4;stroke-dasharray:none;stroke-opacity:1" />
  <path
     d="m 1913.2127,753.49368 -65.993,6.08864 -45.7244,11.7455 -27.0573,8.3749 -47.0282,30.2785 -65.7107,47.6724 -54.1147,41.8745 -32.2111,22.5477 -23.192,14.8172 -30.2784,4.5096 -141.0847,28.3458 -48.9609,10.3075 -101.7871,23.19198 -86.3257,18.6825 -120.4696,24.4804 -54.11464,14.8171 -38.0091,1.2885 -17.394,5.1537 -22.54777,12.2403 -9.66333,16.1055 -4.50956,21.2593 3.22111,36.7207 9.01911,54.7589 12.88445,68.2875 6.44222,27.7016 1.28844,22.5478 -10.95178,38.0091 -19.97088,41.8744 -4.50956,27.7016 1.28845,36.0764 7.08644,21.2593 19.32667,28.3458 29.63421,32.2111 42.51868,50.8936 24.4804,33.4995 25.12474,29.6343 77.3066,96.6333 46.384,55.4031 21.2593,18.6824 25.7689,12.8845 30.9227,5.798 79.2393,0 43.1629,-1.2885 37.3649,-5.798 47.6724,-1.2884 41.2302,1.9326 21.9036,-10.3075 35.4322,-13.5287 32.8553,-4.5095 19.9709,1.9326 21.9036,9.6634 23.192,15.4613 16.1055,22.5478 16.7498,45.7398 19.3267,22.5477 27.7015,13.5287 40.586,-1.9327 53.4705,3.2211 36.7206,8.3749 38.6534,15.4614 26.4131,15.4613 38.0091,26.4131 30.2784,14.8171 41.2302,16.7498 33.4996,-1.2885 97.2775,-13.5286 36.0765,-8.3749 22.5478,-6.4422 77.9508,-16.7498 119.1811,-29.6342"
     id="path3631"
     style="fill:none;stroke:#008940;stroke-width:5;stroke-linecap:butt;stroke-linejoin:round;stroke-miterlimit:4;stroke-opacity:1;stroke-dasharray:none" />
  <path
     d="m 3191.0821,1299.5906 -31.5669,0.6442 -118.5369,-5.1538 -39.9417,4.5096 -25.1247,5.1538 -33.4996,10.9517 -30.2784,19.9709 -47.0282,41.2302 -85.0373,71.5087 -15.4614,11.596 -23.192,10.9518 -34.1437,9.6633 -41.2303,-0.6442 -119.5032,-34.788 -100.4986,-29.6342 -77.9509,-25.4468 -20.9372,-9.9854 -36.1942,-24.4472 -25.329,-15.4946 -20.9373,-4.8317 -23.5141,-6.7643 -12.8844,-1.6106 -14.495,0.6442 -11.9181,-3.5432 -12.8845,-10.3075 -20.9372,-12.2402 -20.293,-9.3413 -6.3488,-6.4691 -7.1799,-9.6364 -2.899,-11.9181 -12.2402,-20.293 -3.2211,-14.8171 -8.0528,-14.8172 -35.7543,-38.3312 -12.5623,-12.5623 -13.5287,-8.0528 -10.6297,-2.5769 -12.8844,0.6443 -14.8171,5.1537 -10.9045,6.5111 -10.0327,3.4744 -22.8699,0.3221 -9.6633,1.2884 -28.0237,18.0383 -5.2902,4.2659 -6.6279,4.1089 -11.596,3.8654 -41.2302,2.5769 -9.3413,-1.2885 -13.0374,-5.823 -12.0872,-6.4172 -9.0191,-3.8653 -10.6297,-0.9664 -18.3603,-0.6442 -10.9518,-3.2211 -10.9518,-7.0864 -9.6633,-16.7498 -11.9181,-16.4277 -10.8986,-12.8468 -9.0809,-5.8431 -25.509,-3.3971 -19.8181,1.6465 -9.8011,5.7827 -15.7277,14.0136 -15.7834,14.1729 -52.8262,45.0955 -10.6297,7.4086 -14.8171,5.4759 -14.495,2.2547 -64.4222,-8.697 -18.0382,-1.6105 -21.9036,5.1538 -19.3266,13.2065 -33.4996,45.4177 -5.4759,12.5623 -27.3794,90.5132 -11.1275,24.2326 -11.7424,20.863 -10.9518,11.9181 -13.5287,9.0191 -16.7497,3.2211 -80.5278,-7.7306 -51.5378,-4.8317 -40.2639,-2.5769 -25.1246,4.5096 -17.394,4.5095 -53.7926,20.6151 -24.83163,8.2792 -23.8071,6.5379 -21.9036,3.8654 -19.3267,5.4758 -50.5714,23.5142 -58.9463,30.6005 -16.4277,7.0865 -31.889,19.6487 -15.1392,18.6825 -25.4468,32.2111 -20.6151,36.3985 -10.9518,19.3267 -34.788,31.889 -38.9733,42.3255 -18.2214,40.998 -13.666,32.3429 -29.1541,40.998 -46.8876,39.9765 -64.72457,86.4947 -112.0946,143.0174 -131.4213,173.2957 -130.777104,168.7862 -24.4805,34.1438 -9.6633,19.3267 -7.7307,24.4804 -7.0864,56.0473 -9.0191,23.192 -14.8172003,19.9709 -15.4613,16.1056 -22.5198997,16.7445 -21.8209,18.9155 L -183.32942,2797.8828 -282,2850.5 l -15,14 -13.5,15.5 -34,45 -123,167.5 -17.5,14 -24,14 -67,11 -104.5,17.5 -213.5,27.5 -78,13.5 -22.5,-1.5 -90,-11.5 -64.5,-4.5"
     id="path3649"
     style="fill:none;stroke:#008940;stroke-width:5;stroke-linecap:butt;stroke-linejoin:round;stroke-miterlimit:4;stroke-dasharray:none;stroke-opacity:1" />
  <path
     d="m 807.13801,1540.8515 -14.80141,-1.695 -25.1404,-6.0357 -21.2593,-11.2739 -19.9709,-23.192 -9.01915,-15.7834 v 0 l -7.73066,-32.8553 -8.697,-29.3121 -17.394,-19.3267 -23.192,-13.8508 -24.15833,-21.5814 -14.49501,-23.192 -14.17288,-13.8508 -25.44678,-6.1201 -21.90355,-1.2885 -106.61877,28.0237 -57.98,14.1729 -14.24874,-2.6695 -13.13071,-3.7727 -27.70155,-22.5478 -32.85533,-32.8553 -11.27389,-22.2257 -5.15377,-83.1047 1.28844,-18.3603 22.54778,-58.9463 6.12011,-24.8026 -0.96634,-22.2256 -11.596,-18.3604 -12.88444,-9.9854 -114.99367,-23.8362 -30.9227,-11.9181 -31.2447,-15.9445 -24.802595,-9.1802 -25.9299,-6.7643 -62.02762,-14.9684 -192.268135,-52.252 -22.25561,0.3598 -20.49189,2.9097 -48.59752,20.9246 -27.14697,10.0943 -29.72587,1.4742 -98.16588,-11.2001"
     id="path3657"
     style="fill:none;stroke:#008940;stroke-width:5;stroke-linecap:butt;stroke-linejoin:round;stroke-miterlimit:4;stroke-dasharray:none;stroke-opacity:1" />
</svg>
