<?xml version="1.0" encoding="UTF-8" standalone="no"?>
<!-- Created with Inkscape (http://www.inkscape.org/) -->

<svg
   xmlns:svg="http://www.w3.org/2000/svg"
   xmlns="http://www.w3.org/2000/svg"
   xmlns:xlink="http://www.w3.org/1999/xlink"
   version="1.1"
   width="3700"
   height="2850"
   id="svg2">
  <defs
     id="defs6" />
  <path
     d="m -178.844,-178.89925 0,3221.11055 3994.1772,0 0,-3221.11055 0,0 -3994.1772,0 z"
     id="path6582"
     style="fill:#f2f2f2;fill-opacity:1;stroke:none" />
  <path
     d="m 1834.7653,1200.3198 6.5408,-8.8388 3.6524,1.9155 5.54,-5.8045 4.4194,1.7677 10.4298,-2.1213 0.8839,0 0.8839,10.6066 -6.5408,0.7071 -4.4194,-0.8839 -2.8946,11.1942 -5.4139,-2.3553 -13.0815,-6.1873 z"
     id="path4198"
     style="fill:#ffffff;fill-opacity:1;stroke:none" />
  <path
     d="m -112.4891,192.81685 22.5478,2535.65825 28.99,161.0556 137.8635,-79.8836 32.2111,-1.2884 35.4322,-5.798 41.8745,-9.0191 57.9799,-26.4131 17.394,-14.1729 11.596,-1.9327 48.3167,-19.9709 15.4613,-5.798 39.2976,9.0191 37.3649,1.9327 21.9035,-7.7307 29.6342,0 66.3549,-5.1538 7.0865,12.8845 22.5477,123.6906 1.2885,33.4996 -3.2211,25.7689 4.5095,3.8653 4.5096,46.384 26.4131,-14.1729 23.8362,-5.1538 26.4131,-0.6442 19.9709,3.2211 14.8171,5.798 21.9036,14.8171 20.6151,7.7307 54.7589,0 5.798,-3.8653 19.3266,-5.798 13.5287,-7.0865 28.99,-21.2593 46.384,-41.2302 80.5277,-74.0856 36.0765,-28.3457 4.5095,6.4422 -1.2884,8.3749 -3.2211,5.798 -5.798,5.1537 116.6042,181.6707 4.5095,12.8844 74.0856,-1.2884 233.8526,-141.7289 11.596,-7.7306 -0.6442,59.9126 68.2875,70.2202 13.5287,9.0191 4.5095,22.5478 625.5285,-0.1763 11.8439,-15.9436 -17.3103,-74.7076 -2.7332,-33.2539 2.7332,-13.2105 27.7876,-7.2885 58.7638,-22.3212 38.7204,-8.6552 59.2194,-28.2431 20.9546,-5.4664 41.9091,-20.9545 6.833,-5.4664 20.9545,-10.9328 13.6661,-7.2886 64.2303,-32.3429 29.1541,-10.4773 38.2649,-6.833 39.1759,14.1216 24.5988,78.8073 11.8439,31.8874 7.2885,22.3212 40.998,113.8834 5.4665,2.2777 1.8221,6.3774 6.833,39.6315 324.7956,6.833 30.5208,-33.254 5.4664,-7.2885 -2.2777,-4.5553 4.0998,-7.2885 18.2214,-18.6769 -1.8221,-5.0109 10.0217,-8.6552 4.5553,-8.6551 10.4773,-13.2105 8.1996,-29.1542 5.922,-22.3211 -3.6443,-7.2885 3.6443,-3.1888 1.3666,-8.1996 -3.1888,-5.922 11.3884,-22.3211 -17.3103,-9.1107 -2.2777,-6.3774 7.7441,-17.7659 -6.3775,-26.8765 0,-8.6551 -1.8221,-10.4773 -4.5554,-5.9219 -8.1996,-16.8548 -0.4555,-9.1107 -4.5553,-7.744 -5.0109,-0.4556 -7.744,-12.2994 -2.7333,-12.2994 10.9328,-21.8656 4.0998,-13.666 5.0109,-16.8548 -5.0109,-2.2777 -39.1758,-6.3775 -25.0544,-5.9219 -29.1542,-10.9328 -20.4991,-10.4773 -19.5878,-14.1215 -97.0288,-76.9852 -124.8162,-97.9398 -135.7492,-108.8726 -23.2322,-18.6769 -12.7549,-16.3992 -10.0218,-15.9437 -15.0326,-35.0761 -15.9436,-39.1759 -15.0326,-27.332 -6.3775,-15.0326 22.3211,0 147.1374,6.3774 0.4556,-7.744 9.1106,-27.7876 13.2105,-18.2214 3.6443,-10.4773 7.7441,-18.2213 -0.9111,-10.9328 -3.1888,-10.9328 -53.2974,-76.9852 -22.3212,-37.8094 -3.1887,-19.1324 8.6552,-41.9091 -12.755,-15.0326 -82.9071,-95.6621 -21.8657,-25.9654 -20.0435,25.5099 -47.3755,-41.9092 -14.5771,-10.4772 -25.5099,-21.4101 -22.7766,23.6877 -44.1869,-36.4426 -0.4555,-5.4665 1.8222,-5.4664 53.753,-65.1413 19.5879,-1.3666 33.254,-37.3538 14.5771,-5.0109 1.8221,-4.0998 -1.3666,-4.0998 -11.8439,-10.4773 -5.4664,0.9111 -10.4772,-9.5662 -15.0327,-7.744 -15.9437,-8.6552 -30.9763,-23.6878 -16.8547,-14.577 -17.3103,-9.5663 -22.3212,-15.9436 -15.4881,-15.0326 -20.499,-16.3993 -22.7767,-18.2214 -16.8548,-14.1215 -5.9219,11.8439 0,9.1106 -0.9111,6.3775 -11.8439,14.5772 -4.5553,4.5552 -14.1216,7.7441 -11.8439,2.2777 -9.5661,0.9111 -14.5771,-2.7332 -15.0326,-7.7441 -5.0109,8.1996 -6.3775,1.3666 -6.833,13.666 -25.9654,-10.0217 -5.922,10.4773 -22.3211,-11.8439 -16.3993,-32.3429 -19.5879,12.2994 -26.4209,-30.0652 -7.2886,5.0108 -28.2431,-18.6768 -11.8439,-6.833 -9.5662,20.9545 -189.9576,16.8547 -9.94,-11.7945 -3.726,-6.4268 -5.9219,-10.4773 -0.9111,-11.3884 1.8221,-42.8201 3.6443,-23.6878 0.9111,-24.1433 -3.6443,-2.7332 -3.1887,-5.4664 1.8221,-5.4664 4.0998,-5.0109 -1.3666,-6.3774 -1.8221,-15.4882 0.4555,-20.499 -6.833,-10.9328 -0.9111,-13.2105 -7.2885,-12.755 -14.5771,-10.4772 -18.2214,-3.1888 0.6098,-29.6131 -6.4422,-8.0528 0,-17.394 2.899,-0.6442 17.7161,0 4.1874,-5.4759 0.9664,-7.7307 -3.8654,-10.3075 -11.2739,-15.7835 -11.2738,-19.3266 -5.4759,-13.8508 -18.0383,-32.5332 -3.5432,-1.2885 -21.9035,-35.1101 19.79,-13.441 6.301,9.5757 40.9081,-30.6006 11.9181,12.8845 50.2493,-47.6725 10.6297,16.1056 16.7497,25.7689 43.485,59.9126 3.5433,0.9664 17.7161,-20.6151 17.0719,-21.2594 19.0045,-16.7497 78.5951,-38.6534 16.1056,-8.697 -1.2885,-8.0527 -29.3121,-88.9027 -14.1729,-64.4222 -13.5286,-77.62875 0,-19.0045 0.6442,-17.0719 -2.899,-17.394 -6.4422,-30.6006 -9.0191,-17.7161 -12.8845,-23.192 -48.9447,-46.2734 4.2009,-4.5514 -6.0519,-6.1931 7.744,-8.8829 -13.2105,-12.9827 3.6443,-4.0998 -48.9699,-44.1868 -7.2885,4.0998 -24.1433,-7.5163 -29.1542,-25.7376 -15.9437,-14.8049 -25.2821,-23.9155 -71.9744,-65.5969 -44.1867,-38.2648 -58.5361,-51.7031 -55.5752,-49.6532 4.0999,-1.3666 32.1151,-9.1107 18.9047,-2.0499 23.6877,-0.9111 23.0045,-0.911 19.8157,-3.1888 4.5553,-5.2386 45.3256,-63.7747 34.6206,-44.1868 10.4773,-16.8548 5.9219,-11.8438 16.627,-39.8593 1.3666,-6.833 -149.8706,-20.9545 -244.1662,-3.6443 -713.3659,0 -473.7552,0.9111 -8.1996,25.0543 3.1887,8.1996 21.8656,30.9763 13.2105,24.1433 30.0652,32.3429 42.3647,32.7985 29.1542,30.5207 8.1996,23.6878 -19.588,65.5969 -57.8528,-15.0326 -30.9763,-2.7332 -8.1996,24.1433 -14.5771,-2.2777 -45.5534,-29.6097 -16.8547,-2.2777 -11.8439,-6.3775 -27.7876,-5.9219 -28.2431,-7.7441 -18.2213,-16.3992 -31.8874,-15.4881 -11.3883,-14.1216 -16.3992,-9.5662 -56.1121,125.1698 z"
     id="path6578"
     style="fill:#ffffff;fill-opacity:1;stroke:none" />
  <image
     xlink:href="../streetmap/berosm.png"
     style="display:none"
     id="image12"
     height="3082.1428"
     width="4315"
     y="-72.142609"
     x="-49.999607" />
  <path
     d="m 1228.7814,2179.9201 36.0874,-60.9117 37.343,-60.9282 2.6206,-110.7188 1.3103,-118.5806 0,-14.4131 23.585,-55.6869 -2.6205,-121.8563 -0.6551,-70.1001 0.6551,-60.9282 5.8963,-72.7207 28.171,-51.7561 9.172,-19.6542 8.5168,-14.4131 18.344,-14.4131 16.3785,-18.344 15.0682,-24.8953 5.2412,-16.3786 0,-26.8608 -3.2757,-43.2393 -3.9309,-93.6852 -1.3102,-98.2711 2.6205,-36.688 7.8617,-24.8953 7.2065,-20.3094 11.7926,-16.3786 48.4804,-48.4805 25.5506,-12.4477 30.1364,-20.3093 38.6551,-38.65505"
     id="path2818"
     style="fill:none;stroke:#ea7713;stroke-width:5;stroke-linecap:butt;stroke-linejoin:round;stroke-miterlimit:4;stroke-opacity:1;stroke-dasharray:none" />
  <path
     d="m 1865.2729,757.79961 7.4086,11.27389 1.4463,29.6012 3.3853,14.5281 11.9893,11.746 21.5103,44.3013 36.7206,76.0183 12.2403,53.1483 8.0527,21.9036 17.7161,35.7543 18.6825,38.6533 6.7643,19.9709 19.0046,14.1729 22.2256,10.3076 7.2708,6.7064 4.3252,13.5866 8.3749,8.0527 13.5287,12.8845 8.9445,8.1867 18.757,22.7359 7.5215,15.4703 4.4606,16.398 16.3636,14.8379 0.9664,10.9517 -1.6105,22.2257 -3.8653,19.9709 -7.0865,24.8025 -51.7489,112.1708 2.1438,10.8757 c 0.6442,0.3221 43.485,20.9372 43.485,20.9372 l 6.7643,16.1055 13.5287,31.2448 35.7543,95.0228 27.0574,73.7634 -0.9664,6.7644 -5.1537,20.6151 -0.3222,18.6824 4.5096,22.2257 0.3221,29.6342 6.7643,33.8217 10.6297,43.8071 18.0382,65.3885"
     id="path3592"
     style="fill:none;stroke:#1b5ea4;stroke-width:5;stroke-linecap:butt;stroke-linejoin:round;stroke-miterlimit:4;stroke-opacity:1;stroke-dasharray:none" />
  <path
     d="m 1171.183,1659.757 12.5028,15.415 17.394,17.394 21.9036,19.3267 15.4613,8.3749 56.0474,-0.6442 44.4513,-15.4614 81.8162,-16.1055 175.8727,-28.99 17.394,0.6442 28.3457,-4.5095 17.394,-7.7307 10.3076,-16.1056 12.2402,-6.4422 19.9709,-5.798 14.1729,0 11.596,-4.5095 10.3075,-10.3076 7.0865,-18.0382 3.2211,-9.6633 3.8653,-14.8172 7.0865,-10.9517 12.8844,-12.8845 14.8171,-5.1538 16.1056,1.9327 21.9035,-0.6442 16.1056,4.5095 23.8362,8.3749 5.1538,8.3749 3.5432,27.7016 -13.5287,28.3457 4.1875,11.2739 76.0182,26.091 110.0685,33.1366 60.1305,14.1951 62.3652,11.9368 30.2784,15.4613 86.3258,65.7107 32.2111,39.9417 22.5478,54.7589 13.5286,44.4513 7.0865,68.2876 7.0864,48.9609 17.394,30.9226 12.8845,33.4996 10.9518,49.6051 15.4613,57.3358 10.3075,47.0282 5.1538,40.586 -1.2884,36.7207 -5.798,27.0573 -19.9709,33.4995 -3.8653,12.2403 1.2884,22.5477 12.8844,44.4514 10.9518,45.7397 12.8845,37.3649 21.2593,34.788 30.9227,32.8553 43.8071,32.2112 32.2111,12.2402 63.1337,14.1729 45.0956,-1.2885 48.3167,-3.2211 21.9035,2.5769 25.1247,14.8171 21.2593,19.3267 15.4613,24.4804 34.1438,41.2302 23.8362,19.9709"
     id="path3615"
     style="fill:none;stroke:#3a9fd7;stroke-width:5;stroke-linecap:butt;stroke-linejoin:round;stroke-miterlimit:4;stroke-opacity:1;stroke-dasharray:none" />
  <path
     d="m 878.32455,124.52921 18.03822,26.4131 23.83622,41.2302 36.72071,73.4413 18.6824,31.5669 25.7689,50.8936 20.6151,25.7688 34.1438,36.0765 40.586,45.0955 19.3266,14.1729 23.8362,10.9518 52.182,20.6151 27.0574,7.7306 39.9417,18.0383 46.384,19.3266 30.2785,14.8171 43.1629,40.5862 97.9217,90.8353 76.6625,71.50859 114.0273,106.2967 27.0573,27.0573 47.6725,50.8937 28.99,36.0764 43.1628,57.98 37.3649,50.8936 5.1538,38.6533 10.9518,105.0082 11.596,122.4022 9.6633,88.9027 9.0191,89.5469 -5.1538,23.192 -16.4276,24.4804 -17.0719,36.0764 -12.8844,47.0283 -5.1538,31.5668 0.6442,66.3549 0,139.7962 -2.5769,92.768 0,57.3358 -2.5769,23.192 -14.1729,98.566 3.8654,46.384 10.9517,94.7006 9.6634,68.2876 12.2402,62.4895"
     id="path3617"
     style="fill:none;stroke:#7d64b1;stroke-width:5;stroke-linecap:butt;stroke-linejoin:round;stroke-miterlimit:4;stroke-opacity:1;stroke-dasharray:none" />
  <path
     d="m 2106.8562,1177.5104 5.798,-4.5095 5.798,-3.5433 6.1201,0 11.9907,7.9301 51.4752,28.2431 50.5643,21.8656 26.8765,8.1996 148.0485,24.1433 70.6078,11.3884 194.5129,32.3428 160.8035,26.421 48.8379,7.9803 37.7672,16.9501 63.7059,34.2155 28.0236,14.8171 14.8172,18.0382 26.4131,36.0765 10.9517,12.8844 14.1729,12.8845 8.3749,10.3075 14.8171,19.9709 12.2402,21.9036 7.8064,16.5311"
     id="path3621"
     style="fill:none;stroke:#78513d;stroke-width:5;stroke-linecap:butt;stroke-linejoin:round;stroke-miterlimit:4;stroke-opacity:1;stroke-dasharray:none" />
  <path
     d="m 1543.0176,1526.6559 -9.8874,-3.7693 -10.3948,6.6521 -51.7265,27.7407 -38.0091,19.3267 -4.5095,7.7306 2.5769,65.7107 -10.9518,14.1729 -5.1538,9.6633 -1.9327,16.1056 18.0383,78.5951 16.7497,71.5086"
     id="path3623"
     style="fill:none;stroke:#fcd205;stroke-width:5;stroke-linecap:butt;stroke-linejoin:round;stroke-miterlimit:4;stroke-opacity:1;stroke-dasharray:none" />
  <path
     d="m 1951.2328,628.61471 -0.346,16.7682 5.1538,33.4995 4.3653,30.9564 -4.9422,20.2593 -8.5143,11.1344 -17.4709,9.8797 -12.0147,2.2402 -62.2872,5.2405 -20.5046,9.19219 -16.7497,12.8844 -31.889,35.7544 -6.1201,22.2256 3.2211,39.9418 10.3075,53.7927 8.697,21.2593 67.3212,66.677 19.3267,28.0236 15.7834,26.7353 11.2739,24.8025 0.9664,12.5623 -17.394,52.5042 -9.6634,12.2402 c -3.2211,0.3221 -17.394,0.9663 -17.394,0.9663 l -13.8507,7.0865 -15.7835,16.4276 -3.5432,11.2739 3.5432,27.3794 -8.0528,12.5624 -8.3748,5.1538 -35.4323,4.8316 -16.1055,4.8317 -7.7307,6.4422 -2.819,23.7551 -5.2338,68.3687 2.2548,11.9181 37.687,50.8935 4.5096,11.596 -0.6443,13.8508 -25.1475,59.968 -19.917,18.5988 -19.5692,12.7565 -18.1488,26.5694 -5.1538,20.9372 -1.2884,29.9563 -2.2548,53.7926 -1.6106,17.7161 -5.4758,26.091 -12.5624,34.788 -28.3458,83.7489 -20.9372,54.4367 -37.0427,116.9264 -34.4659,95.0227 -7.4086,25.4468 0.3221,20.6151 1.6106,27.7016 4.8316,34.1437 20.6152,59.9127 30.2784,78.5951 26.4131,74.0855 64.4222,180.3822 83.7489,233.8527 27.7016,73.4413 30.2784,95.9891"
     id="path3635"
     style="fill:none;stroke:#008940;stroke-width:5;stroke-linecap:butt;stroke-linejoin:miter;stroke-miterlimit:4;stroke-opacity:1;stroke-dasharray:none" />
  <path
     d="m 480.839,1115.3426 17.394,9.0192 16.10555,7.0864 9.01912,10.9518 4.50955,18.0382 15.46133,30.2784 19.32667,42.5187 14.17288,21.2593 14.17289,8.3749 16.10556,5.1538 31.5669,-7.0864 33.49955,4.5095 14.81711,12.2402 66.99907,65.7107 20.6152,16.1055 25.7688,7.7307 86.3258,-9.0191 342.72622,-36.7207 11.596,2.5769 10.3076,10.3076 28.3458,36.0764 25.1246,19.9709 54.7589,41.2302 15.4613,3.2211 8.7307,11.8845 21.7593,15.1392 13.9614,8.4086 21.9035,11.9181"
     id="path3627"
     style="fill:none;stroke:#4fb638;stroke-width:5;stroke-linecap:butt;stroke-linejoin:round;stroke-miterlimit:4;stroke-opacity:1;stroke-dasharray:none" />
  <path
     d="m 1950.0272,632.97778 1.0921,-19.38951 -7.6992,-43.22581 -21.55,-40.52309 -99.8154,-94.00976 -98.5784,-88.28035"
     id="path3639"
     style="fill:none;stroke:#008940;stroke-width:5;stroke-linecap:butt;stroke-linejoin:round;stroke-miterlimit:4;stroke-opacity:1;stroke-dasharray:none" />
  <path
     d="m 4265.0004,2186.6845 -82.4604,-11.596 -81.8162,-5.798 -149.4595,-6.4422 -65.7107,-3.2211 -36.0764,-1.2885 -38.0092,-7.0864 -52.182,-4.5096 -57.3357,5.1538 -30.2785,-1.9327 -41.8744,-9.0191 -50.2493,-26.4131 -55.4031,-41.2302 -115.96,-83.1047 -152.6807,-109.5177 -101.1429,-74.7298 -76.0182,-55.4031 -23.8362,-20.6151 -37.3649,-41.8745 -52.8262,-39.2975 -57.98,-24.4804 -21.9035,-21.9036 -23.192,-14.1729 -75.374,-45.0955 -68.2876,-44.4514 -14.495,-4.5095 -41.2903,-14.7992"
     id="path3641"
     style="fill:none;stroke:#008940;stroke-width:5;stroke-linecap:butt;stroke-linejoin:round;stroke-miterlimit:4;stroke-opacity:1;stroke-dasharray:none" />
  <path
     d="m 2755.5879,1954.7645 92.768,99.8545 34.1438,30.9226 29.6342,30.2785 50.8936,54.1146 86.9699,91.4796 35.4323,32.2111 26.4131,18.6824 30.9226,28.99 45.7398,48.9609 157.8344,184.8918 63.1338,66.3548 74.7298,81.172 16.1055,20.6151 51.5378,59.2685 38.6533,39.9418 98.566,109.5177 50.8936,57.98"
     id="path3643"
     style="fill:none;stroke:#008940;stroke-width:5;stroke-linecap:butt;stroke-linejoin:round;stroke-miterlimit:4;stroke-opacity:1;stroke-dasharray:none" />
  <path
     d="m 3500.953,2742.6482 17.394,22.5478 10.9517,24.4804 3.8654,26.4132 -11.596,39.9417 -29.6342,42.5187 -42.5187,48.3167 -17.394,11.5959 -25.7689,13.5287 -12.8844,16.7498 -11.596,21.9035"
     id="path3645"
     style="fill:none;stroke:#008940;stroke-width:5;stroke-linecap:butt;stroke-linejoin:round;stroke-miterlimit:4;stroke-opacity:1;stroke-dasharray:none" />
  <path
     d="m 3059.6608,2269.7892 25.1246,15.4613 30.9227,1.2884 29.6342,-9.0191 165.5651,-48.3166 8.3749,-0.6443 12.8845,3.2212 117.2484,41.8744 13.5287,14.8171 25.1246,47.0282"
     id="path3647"
     style="fill:none;stroke:#008940;stroke-width:5;stroke-linecap:butt;stroke-linejoin:round;stroke-miterlimit:4;stroke-opacity:1;stroke-dasharray:none" />
  <path
     d="m 1440.9851,1481.595 103.1382,40.1314 14.8799,-9.7823 21.201,-12.9672 7.4085,-0.9664 39.2976,18.6825 8.697,2.2548 13.8508,-6.7644 15.4613,2.2548 31.8889,4.8317 43.1629,1.9326 20.293,2.5769 14.1729,-1.9326 25.1247,6.4422 10.3076,0 12.8844,-0.6442 12.8844,3.2211 45.7397,15.4613 14.8172,1.2885 27.7015,-4.5096 16.7498,-4.5096 51.5378,0 51.5378,0 45.0955,-3.8653 19.3267,0.6442 20.615,-3.8653 24.4805,-5.1538 63.1338,0 17.394,-1.9326 20.6151,-1.9327 16.1055,1.2884 48.9609,-12.2402 41.2302,-10.3075 9.6634,-5.1538"
     id="path3629"
     style="fill:none;stroke:#4fb638;stroke-width:5;stroke-linejoin:round;stroke-miterlimit:4;stroke-opacity:1;stroke-dasharray:none" />
  <path
     d="m 3191.0821,1299.5906 -31.5669,0.6442 -118.5369,-5.1538 -39.9417,4.5096 -25.1247,5.1538 -33.4996,10.9517 -30.2784,19.9709 -47.0282,41.2302 -85.0373,71.5087 -15.4614,11.596 -23.192,10.9518 -34.1437,9.6633 -41.2303,-0.6442 -119.5032,-34.788 -100.4986,-29.6342 -77.9509,-25.4468 -20.9372,-9.9854 -36.1942,-24.4472 -25.329,-15.4946 -20.9373,-4.8317 -23.5141,-6.7643 -12.8844,-1.6106 -14.495,0.6442 -11.9181,-3.5432 -12.8845,-10.3075 -20.9372,-12.2402 -20.293,-9.3413 -6.3488,-6.4691 -7.1799,-9.6364 -2.899,-11.9181 -12.2402,-20.293 -3.2211,-14.8171 -8.0528,-14.8172 -35.7543,-38.3312 -12.5623,-12.5623 -13.5287,-8.0528 -10.6297,-2.5769 -12.8844,0.6443 -14.8171,5.1537 -10.9045,6.5111 -10.0327,3.4744 -22.8699,0.3221 -9.6633,1.2884 -28.0237,18.0383 -5.2902,4.2659 -6.6279,4.1089 -11.596,3.8654 -43.7051,3.6376"
     id="path3649"
     style="fill:none;stroke:#008940;stroke-width:5;stroke-linecap:butt;stroke-linejoin:round;stroke-miterlimit:4;stroke-opacity:1;stroke-dasharray:none" />
  <path
     d="m 4265.0004,1276.3986 -253.8235,38.0091 -74.7298,14.1729 -57.3357,4.5095 -54.7589,-0.6442 -101.7871,-5.798 -86.97,-5.1538 -83.7489,-2.5768 -133.9982,-8.3749 -27.7015,-4.5096 -26.4132,-16.7498 -31.5668,-9.0191 -23.192,-5.1538 -25.1247,0.6443 -41.5523,10.3075 -51.5931,14.274"
     id="path3653"
     style="fill:none;stroke:#008940;stroke-width:5;stroke-linecap:butt;stroke-linejoin:round;stroke-miterlimit:4;stroke-opacity:1;stroke-dasharray:none" />
  <path
     d="m 484.70434,2389.614 10.95177,-16.1055 19.32667,-15.4614 27.05733,-30.9226 34.14377,-29.6343 22.54778,-14.8171 31.5669,-11.596 18.03822,-3.8653 26.41311,-0.6442 137.86359,16.1055 18.6824,0.6443 24.4804,-9.6634 40.586,-28.3457 9.0192,-11.596 31.5668,-53.4705 14.8172,-28.3458 3.2211,-16.1055 12.24019,-39.9418 11.59601,-17.394 16.1056,-10.3075 16.74972,-11.596 17.394,-8.3749 31.5669,-4.5096 35.4322,-5.798 16.1056,-9.6633 28.99,-28.3458 23.192,-38.6533 7.7307,-21.2594 2.5768,-21.2593 -1.2884,-22.5478 -5.798,-18.0382 -10.9518,-32.2111 -0.6442,-10.9518 9.0191,-19.9709 1.2885,-16.7497 2.5768,-108.2293 2.5769,-17.394 11.596,-18.0383 81.8162,-47.6724 28.3458,-15.4613 26.2599,-4.5329 10.4608,-5.4526 2.2548,-13.8508 36.7206,-44.1292 31.2448,-48.3166 5.9531,-1.4293 29.9024,16.7882 7.75,2.25"
     id="path3625"
     style="fill:none;stroke:#f1471d;stroke-width:5;stroke-linecap:butt;stroke-linejoin:round;stroke-miterlimit:4;stroke-opacity:1;stroke-dasharray:none" />
  <path
     d="m 1967.3344,709.85873 3.9804,20.98938 5.0864,9.8797 5.798,5.798 13.1513,5.1213"
     id="path3659"
     style="fill:none;stroke:#008940;stroke-width:5;stroke-linecap:butt;stroke-linejoin:round;stroke-miterlimit:4;stroke-opacity:1;stroke-dasharray:none" />
  <path
     d="m 1271.8814,-72.18624 21.8407,33.145945 26.1224,26.82956 104.4268,91.770255 156.1925,142.72666 143.1598,125.63808"
     id="path4387"
     style="fill:none;stroke:#008940;stroke-width:5;stroke-linecap:butt;stroke-linejoin:round;stroke-miterlimit:4;stroke-opacity:1;stroke-dasharray:none" />
  <path
     d="m 2757.7703,1957.3566 -220.7499,-245.487 -12.3426,-21.1554 -1.3666,-19.5879 6.833,-19.5879 7.2885,-14.5772"
     id="path4389"
     style="fill:none;stroke:#008940;stroke-width:5;stroke-linecap:butt;stroke-linejoin:round;stroke-miterlimit:4;stroke-opacity:1;stroke-dasharray:none" />
  <path
     d="m 2572.101,1452.757 12.3743,9.5459 15.9099,16.2635 6.7175,9.5459 1.7678,10.9602 0,10.6066 -0.3536,15.9099"
     id="path3632"
     style="fill:none;stroke:#008940;stroke-width:5;stroke-linecap:butt;stroke-linejoin:round;stroke-miterlimit:4;stroke-opacity:1;stroke-dasharray:none" />
  <path
     d="m 1818.3831,1336.5923 10.2385,-3.8679 24.5988,-4.0998 49.6532,-4.0998 5.9219,-5.0109 6.3776,-7.7441 5.0108,-3.1887 11.3884,-1.3666 8.6551,2.7332 9.1106,0 24.5988,17.3103 20.0435,8.6551 17.3104,4.0998 19.588,0.4556 17.3102,-6.833 31.4319,-16.3993 5.0109,-8.1996 3.6442,-9.5662 2.7333,-50.1087 -3.1888,-11.8439 -5.4664,-9.1107 0,-10.4772 24.5988,-20.499 4.0999,-7.7442 -1.8222,-6.833 -23.6878,-22.3211 -9.5662,-10.0217 -6.3774,-15.0327 2.2776,-11.8438 5.922,-14.1216 -11.8439,-43.2757 2.7332,-9.5662 6.3774,-11.8439 11.8439,-11.8439 5.0109,-23.6877 -0.4555,-22.7768 -2.2777,-24.1432 -1.8221,-81.5407 1.3666,-30.5208 4.0998,-36.4427 16.3992,-116.16109 1.3666,-33.254 -3.1887,-27.7876 -9.5662,-27.332 -1.0377,-17.12157"
     id="path3737"
     style="fill:none;stroke:#f1471d;stroke-width:5;stroke-linecap:butt;stroke-linejoin:round;stroke-miterlimit:4;stroke-opacity:1;stroke-dasharray:none" />
  <path
     d="m 2535.9851,1638.8745 16.0286,-30.7016 23.192,-32.2111 28.99,-35.4322 11.596,-37.3649 16.7498,-65.0664 44.4513,-74.0856 6.4422,-22.5477 -5.1537,-34.1438 -24.4805,-66.9991 -28.3458,-67.6433 -18.6824,-14.1729 -52.182,-20.6151 -26.4131,-12.8845 -28.99,-40.586 -65.7107,-112.7389 -21.9035,-28.3457 -76.0182,-50.8937 -58.6242,-37.3649 -28.99,-10.9517 -41.2303,-26.4132 -51.5377,-42.5186 -25.1247,-13.5287 -21.2593,-9.01909 -53.4705,-3.2211 -66.3548,2.5769"
     id="path3655"
     style="fill:none;stroke:#008940;stroke-width:5;stroke-linecap:butt;stroke-linejoin:round;stroke-miterlimit:4;stroke-opacity:1;stroke-dasharray:none" />
  <path
     d="m 1269.226,1475.7619 23.6878,-7.744 56.0307,-20.499 18.2213,-2.2777 12.2995,5.0108 22.7766,15.4882 37.2432,20.8548 5.0145,1.6546"
     id="path3739"
     style="fill:none;stroke:#6cc1b0;stroke-width:5;stroke-linejoin:round;stroke-miterlimit:4;stroke-opacity:1;stroke-dasharray:none" />
  <path
     d="m 2581.2933,1453.8177 17.3241,-1.4143 13.7886,-2.1213 8.4853,-3.182 4.9497,-3.5355 8.4853,-7.4246"
     id="path3859"
     style="fill:none;stroke:#008940;stroke-width:5;stroke-linecap:butt;stroke-linejoin:round;stroke-miterlimit:4;stroke-opacity:1;stroke-dasharray:none" />
  <path
     d="m 2496.5433,-74.3912 -137.5078,212.09341 -76.2682,121.2579 -36.0764,56.9416 -33.2496,38.6533 -52.7204,50.1436 -46.0956,48.4224 -65.2106,60.3069 -78.8451,75.7682 -7.2683,15.81271 -3.0685,23.60589 -1.2328,9.38528 1,22.25 3.75,28.75 4,22.75"
     id="path3861"
     style="fill:none;stroke:#008940;stroke-width:5;stroke-linecap:butt;stroke-linejoin:miter;stroke-miterlimit:4;stroke-opacity:1;stroke-dasharray:none" />
  <path
     d="m 1849.945,1199.901 -10.9161,-4.0552 -12.0872,-6.4172 -9.0191,-3.8653 -10.6297,-0.9664 -18.3603,-0.6442 -10.9518,-3.2211 -10.9518,-7.0864 -9.6633,-16.7498 -11.9181,-16.4277 -12.5624,-9.9854 -11.596,-4.5096 -13.5286,-1.2884 -32.8554,5.1537 -8.3748,3.2212 -11.9182,6.7643 -15.7834,14.1729 -52.8262,45.0955 -10.6297,7.4086 -14.8171,5.4759 -14.495,2.2547 -64.4222,-8.697 -18.0382,-1.6105 -21.9036,5.1538 -19.3266,13.2065 -33.4996,45.4177 -5.4759,12.5623 -27.3794,90.5132 -11.1275,24.2326 -11.7424,20.863 -10.9518,11.9181 -13.5287,9.0191 -16.7497,3.2211 -80.5278,-7.7306 -51.5378,-4.8317 -40.2639,-2.5769 -25.1246,4.5096 -17.394,4.5095 -53.7926,20.6151 -24.8316,8.2792 -23.8071,6.5379 -21.9036,3.8654 -19.32666,5.4758 -50.57144,23.5142 -58.94633,30.6005 -16.42766,7.0865 -31.889,19.6487 -15.13922,18.6825 -25.44678,32.2111 -20.6151,36.3985 -10.95178,19.3267 -34.788,31.889 -38.97331,42.3255 -18.2214,40.998 -13.66601,32.3429 -29.15414,40.998 -46.88761,39.9765 -64.72453,86.4947 -112.09465,143.0174 -131.42132,173.2957 -130.7771,168.7862 -24.48044,34.1438 -9.66334,19.3267 -7.730665,24.4804 -7.086444,56.0473 -9.01911,23.192 -14.81711,19.9709 -15.461331,16.1056 -22.519945,16.7445 -21.820854,18.9155"
     id="path4196"
     style="fill:none;stroke:#008940;stroke-width:5;stroke-linecap:butt;stroke-linejoin:round;stroke-miterlimit:4;stroke-opacity:1;stroke-dasharray:none" />
  <path
     d="m 1568.9306,2210.5205 0,27.7016 -12.8844,35.4322 -25.1247,53.4704 -14.8171,26.4131 -37.3649,47.6725 -59.9127,65.0664 -52.8262,58.6242 -55.4031,52.182 -19.3266,25.1247 -11.596,18.0382 -46.384,47.6725 -26.4132,33.4995 -25.7688,38.0091 -20.6151,40.586 -28.3458,68.2876 -19.3267,68.9317 -12.2402,43.1629 -9.6633,23.8362 -18.0383,25.1247"
     id="path3637"
     style="fill:none;stroke:#008940;stroke-width:5;stroke-linecap:butt;stroke-linejoin:round;stroke-miterlimit:4;stroke-opacity:1;stroke-dasharray:none" />
  <path
     d="m 1723.4762,347.549 -10.8841,-5.2728 -45.0955,-2.5769 -32.2111,-3.2211 -103.0756,-17.394 -49.6051,-9.0192 -68.9317,-3.2211 -55.4031,3.2211 -66.9991,3.8654 -137.2194,7.0864 -34.788,-0.6442 -18.0382,-4.5096 -85.0373,-46.3839 -31.24481,-22.2257 -12.8844,-19.6488 L 940.49187,154.1633 906.02599,68.4817 896.36266,46.9003 887.34355,25.9631 861.57466,-20.743 846.43544,-42.3245 830.97411,-54.5647 802.95044,-66.1607 784.268,-72.925"
     id="path3639-4"
     style="fill:none;stroke:#008940;stroke-width:5;stroke-linecap:butt;stroke-linejoin:round;stroke-miterlimit:4;stroke-opacity:1;stroke-dasharray:none" />
  <path
     d="m 1720.7465,1571.4519 -13.3076,14.8171 -14.8171,15.4614 -12.2403,9.6633 -9.6633,30.2785 -41.8744,51.5377 -53.4705,73.4414 -37.3649,46.3839 -13.5286,15.4614 -24.4805,36.7206 -86.97,115.3158 -88.2584,116.6042 -98.566,128.2002 -28.3458,28.99 -26.4131,21.2594 -89.5469,49.6051 -63.7779,38.0091 -57.33584,29.6342 -85.68152,50.8935 -60.55688,35.4323 -109.51777,63.778 -55.4031,28.99 -27.05736,10.9517 -29.63422,7.7307 -21.90355,-2.5769 -34.14378,-15.4613 -128.84443,-93.4122 -70.86444,-49.6051 -16.10555,-7.0865 -22.54778,-1.9327 -19.97088,1.9327 -83.7489,27.0573 -14.1729,5.798 -35.4322,24.4805 -59.9127,38.6533 -28.3457,26.4131 -28.3458,43.8071 -44.4513,63.778 -14.1729,21.9036 -21.1097,17.8886"
     id="path3633"
     style="fill:none;stroke:#008940;stroke-width:5;stroke-linecap:butt;stroke-linejoin:round;stroke-miterlimit:4;stroke-opacity:1;stroke-dasharray:none" />
  <path
     d="m 2454.7366,1961.5285 24.8025,-1.9327 15.7835,4.1874 37.3649,16.1056 27.0573,7.7307 19.3266,-1.2885 34.3801,-7.9056"
     id="path3643-9"
     style="fill:none;stroke:#008940;stroke-width:5;stroke-linecap:butt;stroke-linejoin:round;stroke-miterlimit:4;stroke-opacity:1;stroke-dasharray:none" />
  <path
     d="m 1913.2127,753.49368 -65.993,6.08864 -45.7244,11.7455 -27.0573,8.3749 -47.0282,30.2785 -65.7107,47.6724 -54.1147,41.8745 -32.2111,22.5477 -23.192,14.8172 -30.2784,4.5096 c 2.5769,1.2884 -141.0847,28.3458 -141.0847,28.3458 l -48.9609,10.3075 -101.7871,23.19198 -86.3257,18.6825 -120.4696,24.4804 -54.11464,14.8171 -38.0091,1.2885 -17.394,5.1537 -22.54777,12.2403 -9.66333,16.1055 -4.50956,21.2593 3.22111,36.7207 9.01911,54.7589 12.88445,68.2875 6.44222,27.7016 1.28844,22.5478 -10.95178,38.0091 -19.97088,41.8744 -4.50956,27.7016 1.28845,36.0764 7.08644,21.2593 19.32667,28.3458 29.63421,32.2111 42.51868,50.8936 24.4804,33.4995 25.12474,29.6343 77.3066,96.6333 46.384,55.4031 21.2593,18.6824 25.7689,12.8845 30.9227,5.798 79.2393,0 43.1629,-1.2885 37.3649,-5.798 47.6724,-1.2884 41.2302,1.9326 21.9036,-10.3075 35.4322,-13.5287 32.8553,-4.5095 19.9709,1.9326 21.9036,9.6634 23.192,15.4613 16.1055,22.5478 16.7498,45.7398 19.3267,22.5477 27.7015,13.5287 40.586,-1.9327 53.4705,3.2211 36.7206,8.3749 38.6534,15.4614 26.4131,15.4613 38.0091,26.4131 30.2784,14.8171 41.2302,16.7498 33.4996,-1.2885 97.2775,-13.5286 36.0765,-8.3749 22.5478,-6.4422 77.9508,-16.7498 119.1811,-29.6342"
     id="path3631"
     style="fill:none;stroke:#008940;stroke-width:5;stroke-linecap:butt;stroke-linejoin:round;stroke-miterlimit:4;stroke-opacity:1;stroke-dasharray:none" />
  <path
     d="m 807.1384,1540.8514 -14.80139,-1.695 -25.14039,-6.0357 -21.25933,-11.2739 -19.97089,-23.192 -9.01911,-15.7834 0,0 -7.73066,-32.8553 -8.697,-29.3121 -17.394,-19.3267 -23.192,-13.8508 -24.15833,-21.5814 -14.49502,-23.192 -14.17288,-13.8508 -25.44678,-6.1201 -21.90355,-1.2885 -106.61877,28.0237 -57.97999,14.1729 -14.24874,-2.6695 -13.13071,-3.7727 -27.70155,-22.5478 -32.85533,-32.8553 -11.27389,-22.2257 -5.15377,-83.1047 1.28844,-18.3603 22.54778,-58.9463 6.12011,-24.8026 -0.96634,-22.2256 -11.596,-18.3604 -12.88444,-9.9854 -114.99367,-23.8362 -30.9227,-11.9181 -31.2447,-15.94448 -24.8026,-9.1802 -25.9299,-6.7643 -79.6603,-16.19067"
     id="path3657"
     style="fill:none;stroke:#008940;stroke-width:5;stroke-linecap:butt;stroke-linejoin:round;stroke-miterlimit:4;stroke-opacity:1;stroke-dasharray:none" />
  <path
     d="m 2389.0253,1978.6009 66.3549,-16.7498 23.8362,-14.1729 15.4613,-19.9709 1.8721,-7.3446"
     id="path3631-8"
     style="fill:none;stroke:#008940;stroke-width:5;stroke-linecap:butt;stroke-linejoin:round;stroke-miterlimit:4;stroke-opacity:1;stroke-dasharray:none" />
  <path
     d="m 296.99999,1045.5 19.25,4.25 36.5,7.5 53,8.5 29.25,5.75 22.75,6.5 32.75,15.75 29.25,9.5 26,2.5 30.5,-1.5 180.24999,-19.25 117.75,-12.5 20.5784,-2.1398 17.41424,-1.7744"
     id="path3011"
     style="fill:none;stroke:#008940;stroke-width:5;stroke-linecap:butt;stroke-linejoin:round;stroke-miterlimit:4;stroke-opacity:1;stroke-dasharray:none" />
  <path
     d="m 899.4398,1069.1516 -22.62741,-1.7678 -13.78858,-4.9497 -9.8995,-7.0711 -13.78858,-14.8492 -22.62742,-33.5876 -2.47487,-13.43501 1.76777,-26.87006 -2.12132,-12.02081 -5.65686,-14.49569 -10.25305,-11.66726 -11.31371,-8.13173 -8.48528,-3.18198 -64.34671,-2.47487 -12.02082,-4.24264 -15.55635,-8.48528 L 564.2712,794.79419"
     id="path3785"
     style="fill:none;stroke:#008940;stroke-width:5;stroke-linecap:butt;stroke-linejoin:round;stroke-miterlimit:4;stroke-opacity:1;stroke-dasharray:none" />
  <path
     d="m 339.99999,2723 67.5,-31.5 201.49999,-99.5 26,-14"
     id="path3959"
     style="fill:none;stroke:#008940;stroke-width:5;stroke-linecap:butt;stroke-linejoin:round;stroke-miterlimit:4;stroke-opacity:1;stroke-dasharray:none" />
  <path
     d="m 963.49998,1470.5 -16,10 -12,14 -10.5,18.5 -1.5,14 1.5,10.5 6,14.5"
     id="path4151"
     style="fill:none;stroke:#008940;stroke-width:5;stroke-linecap:butt;stroke-linejoin:round;stroke-miterlimit:4;stroke-opacity:1;stroke-dasharray:none" />
  <text
     x="89.453125"
     y="2747.9609"
     id="text2838"
     xml:space="preserve"
     style="font-size:144px;font-style:normal;font-weight:normal;fill:#000000;fill-opacity:1;stroke:none;font-family:Sans;-inkscape-font-specification:Sans"><tspan
       x="89.453125"
       y="2747.9609"
       id="tspan2">1975</tspan></text>
  <text
     x="89.453201"
     y="206.96089"
     id="text2838-3"
     xml:space="preserve"
     style="font-size:143.99990845px;font-style:normal;font-weight:normal;fill:#000000;fill-opacity:1;stroke:none;font-family:Sans;-inkscape-font-specification:Sans"><tspan
       x="89.453201"
       y="206.96089"
       id="tspan1">1975</tspan></text>
</svg>
