<svg xmlns="http://www.w3.org/2000/svg" height="2750" width="3300"><path d="m1384.88 1093.34 22.75-4.1 39.53 8.2 66.37 27.59 25.73 7.46h40.27l34.31 2.61 67.49 17.15 87.25 30.2 28.34 19.76 27.22 25.36 13.05 18.27 2.61 45.86-7.83 23.12-44.75 86.88-3.73 15.29 3.73 9.69 10.44 45.12 13.8 57.42" style="opacity:1;fill:none;fill-opacity:.4;fill-rule:nonzero;stroke:#e65100;stroke-width:5;stroke-linecap:butt;stroke-linejoin:round;stroke-miterlimit:4;stroke-dasharray:none;stroke-opacity:1"/><path d="m1811.46 1529.24 10.81 39.9 17.15 28.71 19.02 34.68 20.51 25.73 23.75 22.43M1384.88 1093.34l-19.76 7.46-51.46-14.54-49.22-38.03-45.49-30.2-37.66-16.78-67.49-16.03-45.49-16.03-47.36-13.05-29.46-19.39-31.69-26.85-37.29-21.25-45.49-17.15-36.17-11.93-15.66-12.31-88.37-121.56-28.34-44.37" style="opacity:1;fill:none;fill-opacity:.4;fill-rule:nonzero;stroke:#e65100;stroke-width:1;stroke-linecap:butt;stroke-linejoin:round;stroke-miterlimit:4;stroke-dasharray:none;stroke-opacity:1"/><path d="m708.47 681.31-33.93-58.92-24.61-54.07-19.39-19.39-8.95-17.15-25.73-32.07-7.83-46.98-3.36-13.05" style="opacity:1;fill:none;fill-opacity:.4;fill-rule:nonzero;stroke:#e65100;stroke-width:5;stroke-linecap:butt;stroke-linejoin:round;stroke-miterlimit:4;stroke-dasharray:none;stroke-opacity:1"/><path d="M584.68 439.68572.0389.71l-12.68-22-2.7-4.09" style="opacity:1;fill:none;fill-opacity:.4;fill-rule:nonzero;stroke:#e65100;stroke-width:1;stroke-linecap:butt;stroke-linejoin:round;stroke-miterlimit:4;stroke-dasharray:none;stroke-opacity:1"/><path d="m1697.36 1133.98-14.92 44.75" style="opacity:1;fill:none;fill-opacity:.4;fill-rule:nonzero;stroke:#000;stroke-width:5;stroke-linecap:butt;stroke-linejoin:round;stroke-miterlimit:4;stroke-dasharray:none;stroke-opacity:1"/><text style="font-style:normal;font-weight:400;font-size:144px;line-height:125%;font-family:Sans;-inkscape-font-specification:Sans;letter-spacing:0;word-spacing:0;fill:#000;fill-opacity:1;stroke:none" xml:space="preserve" y="206.96" x="89.45"><tspan y="206.96" x="89.45">2015</tspan></text></svg>