<svg xmlns="http://www.w3.org/2000/svg" height="2750" width="3300"><path d="M1384.881 1093.34l22.746-4.103 39.525 8.204 66.373 27.593 25.73 7.458h40.27l34.305 2.61 67.492 17.152 87.254 30.204 28.34 19.762 27.22 25.356 13.05 18.272 2.61 45.864-7.83 23.119-44.746 86.881-3.728 15.288 3.728 9.695 10.441 45.119 13.797 57.423M1912.508 1689.95l71.22 68.61 14.543-1.12 11.187 7.086 10.44 21.254 20.136 22.373 22 14.17 120.068 61.897 49.22 20.882 32.44 17.898h8.95l8.576 2.983 15.661 18.271 16.034 10.441 41.763 39.153 27.593 29.457 9.322 14.915 5.593 16.407 2.61 25.729.746 30.203 1.119 16.78 7.457 22.373 21.628 11.932 21.627 14.543 35.423 22.372 15.288 14.543 20.882 31.695 16.407 11.559 56.678 44.373 67.118 60.407M2813.763 2490.153l48.847 42.135 35.424 32.44 9.695 4.103 9.695.373 11.56-8.577 10.067-11.932 5.22-1.492h7.83l13.052 6.34 25.728 6.711 48.102 3.73" fill="none" stroke="#e65100" stroke-width="5" stroke-linejoin="round"/><path d="M3038.983 2563.983l9.322 3.729 14.915 8.95 17.526 4.847 5.22 7.084 10.068 17.153 56.305 12.678 6.339 5.966 33.186-4.475M2664.237 2361.136l149.526 129.017M1811.458 1529.237l10.813 39.899 17.153 28.712 19.017 34.678 20.508 25.728 33.56 31.695M1384.881 1093.34l-19.762 7.457-51.458-14.543-49.22-38.034-45.492-30.203-37.66-16.78-67.492-16.033-45.492-16.034-47.356-13.051-29.458-19.39-31.694-26.848-37.289-21.254-45.491-17.152-36.17-11.933-15.66-12.305-88.373-121.559-28.34-44.373" fill="none" stroke="#e65100" stroke-linejoin="round"/><path d="M708.475 681.305l-33.933-58.915-24.61-54.068-19.39-19.39-8.949-17.152-25.729-32.068-7.83-46.983-3.356-13.051" fill="none" stroke="#e65100" stroke-width="5" stroke-linejoin="round"/><path d="M584.678 439.678L572 389.712l-12.678-22-14.542-22-10.441-11.56-29.83-50.711-14.916-10.814-6.712-1.491-14.915 3.356-20.881 14.17-63.763 59.66-24.61 24.983-3.729 9.695-1.119 18.644 5.967 18.271.372 5.966-13.423 7.085-70.475 3.356-42.881-8.203-16.034 2.983-48.102 29.83-24.61 5.966-9.322-1.491-16.78-17.153.373-11.559 12.678-14.542 33.56-29.085 35.05-17.898 34.305-6.712" fill="none" stroke="#e65100" stroke-linejoin="round"/><path d="M1697.356 1133.983l-14.915 44.746" fill="none" stroke="#000" stroke-width="5" stroke-linejoin="round"/><text style="line-height:125%;-inkscape-font-specification:Sans" y="206.96089" x="89.453156" font-weight="400" font-size="143.99993896px" font-family="Sans" letter-spacing="0" word-spacing="0"><tspan y="206.96089" x="89.453156">2020</tspan></text></svg>