<?xml version="1.0" encoding="UTF-8" standalone="no"?>
<svg
   xmlns:dc="http://purl.org/dc/elements/1.1/"
   xmlns:cc="http://creativecommons.org/ns#"
   xmlns:rdf="http://www.w3.org/1999/02/22-rdf-syntax-ns#"
   xmlns:svg="http://www.w3.org/2000/svg"
   xmlns="http://www.w3.org/2000/svg"
   xmlns:xlink="http://www.w3.org/1999/xlink"
   version="1.1"
   id="svg2"
   width="1050"
   height="1280"
   viewBox="0 0 1050 1280">
  <metadata
     id="metadata8">
    <rdf:RDF>
      <cc:Work
         rdf:about="">
        <dc:format>image/svg+xml</dc:format>
        <dc:type
           rdf:resource="http://purl.org/dc/dcmitype/StillImage" />
        <dc:title></dc:title>
      </cc:Work>
    </rdf:RDF>
  </metadata>
  <defs
     id="defs6" />
  <image
     xlink:href="../timelines/streetmap/xiyosm.png"
     style="display:none"
     y="-1810.92"
     x="-2265.08"
     id="image10"
     preserveAspectRatio="none"
     height="4043.08"
     width="5660.31" />
  <path
     style="opacity:1;fill:#808080;fill-opacity:1;fill-rule:nonzero;stroke:none;stroke-width:1;stroke-linecap:butt;stroke-linejoin:round;stroke-miterlimit:4;stroke-dasharray:none;stroke-opacity:1"
     d="m 49.1,277.94 -0.57,854.88 825.13,1.43 v 99.33 l 81.17,0.12 0.05,-22.08 49.45,0.03 1.0,-77.17 -0.06,-46.03 -1.04,-811.83 -160.25,0.22 -0.12,-150.52 -41.59,-0.01 -20.92,-86.13 -120.08,2.17 1.13,108.5 -77.75,-0.3 0.37,70.92 -128.53,1.19 -0.95,54.72 -406.46,0.56"
     id="path836" />
  <path
     style="opacity:1;fill:#c6ecff;fill-opacity:1;fill-rule:nonzero;stroke:none;stroke-width:1;stroke-linecap:butt;stroke-linejoin:round;stroke-miterlimit:4;stroke-dasharray:none;stroke-opacity:1"
     d="m 898.61,1131.69 9.49,0.71 8.07,3.56 9.97,3.56 4.98,2.37 0.24,6.41 -12.34,8.07 1.9,6.88 5.46,4.75 4.51,-5.69 7.59,0.71 7.59,10.92 -2.61,4.75 3.32,12.58 20.17,10.2 0.47,6.64 -7.12,-0.24 -10.2,4.98 -6.64,13.29 -16.14,-0.95 -15.42,-29.19 -4.75,-39.15 -11.86,-6.17 -6.64,-5.93 2.61,-9.02 z"
     id="path905" />
  <path
     style="opacity:1;fill:#c6ecff;fill-opacity:1;fill-rule:nonzero;stroke:none;stroke-width:1;stroke-linecap:butt;stroke-linejoin:round;stroke-miterlimit:4;stroke-dasharray:none;stroke-opacity:1"
     d="m 728.71,104.71 15.19,-4.03 10.2,0.71 15.66,-8.31 v -4.98 l 5.93,-4.27 13.29,1.42 2.85,9.97 -10.92,5.46 -7.59,-4.27 -10.44,4.27 -0.24,13.29 -27.29,17.08 -15.19,-1.66 -4.51,-5.69 -0.24,-12.58 4.03,-1.66 1.66,8.07 h 6.17 z"
     id="path907" />
</svg>
