<?xml version="1.0" encoding="UTF-8" standalone="no"?>
<svg
   xmlns:dc="http://purl.org/dc/elements/1.1/"
   xmlns:cc="http://creativecommons.org/ns#"
   xmlns:rdf="http://www.w3.org/1999/02/22-rdf-syntax-ns#"
   xmlns:svg="http://www.w3.org/2000/svg"
   xmlns="http://www.w3.org/2000/svg"
   xmlns:xlink="http://www.w3.org/1999/xlink"
   id="svg2"
   viewBox="0 0 230 280"
   height="280"
   width="230"
   version="1.1">
  <metadata
     id="metadata8">
    <rdf:RDF>
      <cc:Work
         rdf:about="">
        <dc:format>image/svg+xml</dc:format>
        <dc:type
           rdf:resource="http://purl.org/dc/dcmitype/StillImage" />
        <dc:title></dc:title>
      </cc:Work>
    </rdf:RDF>
  </metadata>
  <defs
     id="defs6" />
  <image
     xlink:href="../streetcarscale/streetmap/jrsosm.png"
     x="-375"
     y="-542"
     width="624"
     height="832"
     id="image10"
     style="display:none" />
  <path
     id="path819"
     d="m 92.34,165.36 -9.35,-7.63 -40.43,-44.05 -5.4,-8.09 10.04,-13.97 0.35,-14.89 95.79,-41.65 28.94,2.38 0.23,34.84 5.84,15.97 3.39,37.45 4.9,45.82 v 3.31 l -7.55,9.8 -7.68,16.15 -0.66,19.73 0.26,7.28 -4.1,5.56 -2.78,9.14 -24.23,-5.56 -11.78,0.13 -6.75,-0.4 -9.85,0.22 -4.31,-1.14 -5.29,-5.54 -0.01,-4.27 -8.34,-5.03 -0.4,-10.2 0.53,-4.77 0.53,-25.95 z"
     style="opacity:1;fill:#808080;fill-opacity:1;fill-rule:nonzero;stroke:none;stroke-width:1;stroke-linecap:butt;stroke-linejoin:round;stroke-miterlimit:4;stroke-dasharray:none;stroke-opacity:1" />
</svg>
