<?xml version="1.0" encoding="UTF-8" standalone="no"?>
<svg
   xmlns:dc="http://purl.org/dc/elements/1.1/"
   xmlns:cc="http://creativecommons.org/ns#"
   xmlns:rdf="http://www.w3.org/1999/02/22-rdf-syntax-ns#"
   xmlns:svg="http://www.w3.org/2000/svg"
   xmlns="http://www.w3.org/2000/svg"
   xmlns:xlink="http://www.w3.org/1999/xlink"
   version="1.1"
   id="svg2"
   width="310"
   height="230"
   viewBox="0 0 310 230">
  <metadata
     id="metadata8">
    <rdf:RDF>
      <cc:Work
         rdf:about="">
        <dc:format>image/svg+xml</dc:format>
        <dc:type
           rdf:resource="http://purl.org/dc/dcmitype/StillImage" />
        <dc:title></dc:title>
      </cc:Work>
    </rdf:RDF>
  </metadata>
  <defs
     id="defs6" />
  <image
     xlink:href="../timelines/streetmap/lonosm.png"
     width="9288"
     height="11571.935"
     preserveAspectRatio="none"
     id="image10"
     x="-6080"
     y="-6996.9336"
     style="display:none" />
  <path
     style="opacity:1;fill:#808080;fill-opacity:1;fill-rule:nonzero;stroke:none;stroke-width:1;stroke-linecap:butt;stroke-linejoin:round;stroke-miterlimit:4;stroke-dasharray:none;stroke-opacity:1"
     d="m 52.2266,138.67201 0.3906,-35.352 11.9141,0.196 8.2031,-32.031996 34.1797,0.195 8.3984,-21.093 28.3203,10.937 36.5235,9.766 32.2265,8.594 27.7344,26.952996 4.10154,48.047 3.34336,-0.09 6.91063,4.486 -1.39886,17.394 -15.984,2.528 0.29293,9.082 -100.7812,-27.734 -65.4297,-9.766 z"
     id="path865" />
  <path
     style="opacity:1;fill:#c6ecff;fill-opacity:1;fill-rule:nonzero;stroke:none;stroke-width:1;stroke-linecap:butt;stroke-linejoin:round;stroke-miterlimit:4;stroke-dasharray:none;stroke-opacity:1"
     d="m -114.9609,380.46901 21.875,12.695 10.3516,-23.242 9.1796,-25 7.8125,-45.313 6.836,-59.961 3.9062,-25.195 2.3438,-11.328 7.8125,-15.234 8.3984,-9.571 10.5469,-7.422 28.5156,-8.593 26.1719,-2.149 50.3906,0.782 26.1719,2.148 33.9844,12.891 33.9843,7.226 11.9141,0.391 28.125,8.789 15.625,7.226 41.2109,18.36 15.2344,14.648 24.2188,10.156 21.289,6.446 28.125,-0.586 23.8282,-3.516 -10.5469,-23.047 -17.7735,3.321 -17.7734,-4.493 -42.5781,-15.625 -17.28514,-14.551 -21.19142,-7.714 -30.04255,-10.776 -3.45361,-2.896 -16.89448,-5.469 -12.6953,-2.344 -30.37116,-4.492 -15.91794,-1.172 -34.9609,-11.914 0.9765,-4.492 -2.7343,-0.781 -0.9766,3.516 -14.4531,-3.516 -13.8672,-2.734 -39.0625,-1.563 -49.6094,1.563 -19.1406,3.71 -22.8516,10.938 -11.914,10.742 -11.3282,19.141 -3.7109,11.719 -4.6875,19.726 -5.0781,47.461 -6.6406,66.602 -2.5391,19.531 -8.0078,18.945 z"
     id="path863" />
</svg>
