<?xml version="1.0" encoding="UTF-8" standalone="no"?>
<svg
   xmlns:dc="http://purl.org/dc/elements/1.1/"
   xmlns:cc="http://creativecommons.org/ns#"
   xmlns:rdf="http://www.w3.org/1999/02/22-rdf-syntax-ns#"
   xmlns:svg="http://www.w3.org/2000/svg"
   xmlns="http://www.w3.org/2000/svg"
   xmlns:xlink="http://www.w3.org/1999/xlink"
   version="1.1"
   id="svg2"
   width="290"
   height="320"
   viewBox="0 0 290 320">
  <metadata
     id="metadata8">
    <rdf:RDF>
      <cc:Work
         rdf:about="">
        <dc:format>image/svg+xml</dc:format>
        <dc:type
           rdf:resource="http://purl.org/dc/dcmitype/StillImage" />
        <dc:title></dc:title>
      </cc:Work>
    </rdf:RDF>
  </metadata>
  <defs
     id="defs6" />
  <g
     id="g10">
    <image
       xlink:href="../timelines/streetmap/naposm.png"
       style="display:none"
       y="-1315"
       x="-1690"
       id="image12"
       preserveAspectRatio="none"
       height="2590"
       width="3515" />
    <path
       style="fill:#808080;stroke:none;stroke-width:5;stroke-linejoin:round"
       d="m 233.3383,173.6822 -10.9739,-82.7455 -18.9471,-8.6626 -1.3643,-9.8974 -44.6158,-21.5783 -4.788,0.506 -15.2044,14.2615 -32.7565,16.2068 -17.3642,15.1314 2.6194,41.4278 -11.0757,0.1333 6.4925,25.7689 -2.4888,10.5054 -10.9195,4.9805 -16.021,-1.0465 -2.9314,1.4456 11.633,20.03 -4.4776,52.5359 27.9626,3.1881 2.4131,9.2231 16.6223,8.5142 z"
       id="path855" />
    <path
       style="opacity:1;fill:#c6ecff;fill-opacity:1;stroke:none;stroke-width:5;stroke-linejoin:round"
       d="m 305.8806,170.6663 -10.445,-0.8785 -51.9331,3.5747 -39.4191,2.6895 -23.2656,4.634 -34.406,13.884 -24.3667,20.2265 -1.0527,6.8828 7.8401,9.5454 -12.3994,19.0768 -12.3181,26.6628 -15.7455,9.9896 -7.2139,21.7229 -16.0477,16.8744 -2.0174,7.9791 -0.2405,15.4994 241.93388,0.62712 z"
       id="path871" />
  </g>
</svg>
