<?xml version="1.0" encoding="UTF-8" standalone="no"?>
<svg
   xmlns:dc="http://purl.org/dc/elements/1.1/"
   xmlns:cc="http://creativecommons.org/ns#"
   xmlns:rdf="http://www.w3.org/1999/02/22-rdf-syntax-ns#"
   xmlns:svg="http://www.w3.org/2000/svg"
   xmlns="http://www.w3.org/2000/svg"
   xmlns:xlink="http://www.w3.org/1999/xlink"
   version="1.1"
   id="svg2"
   width="290"
   height="320"
   viewBox="0 0 290 320">
  <metadata
     id="metadata8">
    <rdf:RDF>
      <cc:Work
         rdf:about="">
        <dc:format>image/svg+xml</dc:format>
        <dc:type
           rdf:resource="http://purl.org/dc/dcmitype/StillImage" />
        <dc:title></dc:title>
      </cc:Work>
    </rdf:RDF>
  </metadata>
  <defs
     id="defs6" />
  <g
     id="g10">
    <image
       xlink:href="../timelines/basemap/naposm.png"
       style="display:none"
       y="-1315"
       x="-1690"
       id="image12"
       preserveAspectRatio="none"
       height="2590"
       width="3515" />
    <path
       style="fill:#808080;stroke:none;stroke-width:5;stroke-linejoin:round"
       d="m 233.34,173.68 -10.97,-82.75 -18.95,-8.66 -1.36,-9.9 -44.62,-21.58 -4.79,0.51 -15.2,14.26 -32.76,16.21 -17.36,15.13 2.62,41.43 -11.08,0.13 6.49,25.77 -2.49,10.51 -10.92,4.98 -16.02,-1.05 -2.93,1.45 11.63,20.03 -4.48,52.54 27.96,3.19 2.41,9.22 16.62,8.51 z"
       id="path855" />
    <path
       style="opacity:1;fill:#c6ecff;fill-opacity:1;stroke:none;stroke-width:5;stroke-linejoin:round"
       d="m 305.88,170.67 -10.45,-0.88 -51.93,3.57 -39.42,2.69 -23.27,4.63 -34.41,13.88 -24.37,20.23 -1.05,6.88 7.84,9.55 -12.4,19.08 -12.32,26.66 -15.75,9.99 -7.21,21.72 -16.05,16.87 -2.02,7.98 -0.24,15.5 241.93,0.63 z"
       id="path871" />
  </g>
</svg>
