<?xml version="1.0" encoding="UTF-8" standalone="no"?>
<svg
   xmlns:dc="http://purl.org/dc/elements/1.1/"
   xmlns:cc="http://creativecommons.org/ns#"
   xmlns:rdf="http://www.w3.org/1999/02/22-rdf-syntax-ns#"
   xmlns:svg="http://www.w3.org/2000/svg"
   xmlns="http://www.w3.org/2000/svg"
   xmlns:xlink="http://www.w3.org/1999/xlink"
   version="1.1"
   id="svg2"
   width="4350"
   height="4050"
   viewBox="0 0 4350 4050">
  <metadata
     id="metadata8">
    <rdf:RDF>
      <cc:Work
         rdf:about="">
        <dc:format>image/svg+xml</dc:format>
        <dc:type
           rdf:resource="http://purl.org/dc/dcmitype/StillImage" />
        <dc:title></dc:title>
      </cc:Work>
    </rdf:RDF>
  </metadata>
  <defs
     id="defs6" />
  <image
     style="display:none"
     width="4365"
     height="4029.2307"
     preserveAspectRatio="none"
     xlink:href="file:///home/alexander/timelines/timelines/streetmap/../streetmap/helosm.png"
     id="image10"
     x="0"
     y="-29.230713" />
  <path
     style="opacity:1;fill:none;fill-opacity:1;fill-rule:nonzero;stroke:#a0459d;stroke-width:5;stroke-linecap:butt;stroke-linejoin:round;stroke-miterlimit:4;stroke-dasharray:none;stroke-opacity:1"
     d="m 2703.9763,3710.4398 -3.8891,-77.7818 -54.8007,-242.184 -0.7071,-17.3241 4.5962,-56.5686 -13.0815,-70.3571 -0.3536,-54.8008 5.6569,-33.5876 26.5165,-96.52 14.4957,-32.527 21.5667,-30.7591 25.1023,-28.2843 41.3658,-31.8198 72.4784,-48.4368 293.4493,-304.0559 113.8442,-117.7333 23.6881,-31.1127 89.8026,-117.7333 17.6776,-32.1733 14.1422,-30.7592 9.8995,-36.7695 126.3878,-548.2422"
     id="path4510" />
  <path
     style="opacity:1;fill:none;fill-opacity:1;fill-rule:nonzero;stroke:#a0459d;stroke-width:5;stroke-linecap:butt;stroke-linejoin:round;stroke-miterlimit:4;stroke-dasharray:none;stroke-opacity:1"
     d="M 2029.1686,2057.9504 2021,2111.5 v 22 l 14,50.5 4,38.5 7,162.5 14,53.5 58.0001,124.5002 17,34 22,25 78.5,51 21.5,22.5 12,25.5001 5,28 -2,29.5 -22.5,53 -8.5,32 0.5,28.5 10.5,30.5 22,20.5 117,81 36.5,16.5 32.5,20 49,47.5 114.5,118 12.5941,20.2242"
     id="path4539" />
  <text
     x="89.453125"
     y="206.96094"
     id="text3019"
     xml:space="preserve"
     style="font-style:normal;font-weight:normal;font-size:143.99993896px;line-height:125%;font-family:Sans;-inkscape-font-specification:Sans;letter-spacing:0px;word-spacing:0px;fill:#000000;fill-opacity:1;stroke:none"><tspan
       x="89.453125"
       y="206.96094"
       id="tspan1">1980</tspan></text>
  <text
     x="89.453125"
     y="3947.9609"
     id="text3019-6"
     xml:space="preserve"
     style="font-style:normal;font-weight:normal;font-size:143.99993896px;line-height:125%;font-family:Sans;-inkscape-font-specification:Sans;letter-spacing:0px;word-spacing:0px;fill:#000000;fill-opacity:1;stroke:none"><tspan
       x="89.453125"
       y="3947.9609"
       id="tspan2">1980</tspan></text>
</svg>
