<?xml version="1.0" encoding="UTF-8" standalone="no"?>
<svg
   xmlns:dc="http://purl.org/dc/elements/1.1/"
   xmlns:cc="http://creativecommons.org/ns#"
   xmlns:rdf="http://www.w3.org/1999/02/22-rdf-syntax-ns#"
   xmlns:svg="http://www.w3.org/2000/svg"
   xmlns="http://www.w3.org/2000/svg"
   xmlns:xlink="http://www.w3.org/1999/xlink"
   version="1.1"
   id="svg2"
   width="4350"
   height="4050"
   viewBox="0 0 4350 4050">
  <metadata
     id="metadata8">
    <rdf:RDF>
      <cc:Work
         rdf:about="">
        <dc:format>image/svg+xml</dc:format>
        <dc:type
           rdf:resource="http://purl.org/dc/dcmitype/StillImage" />
        <dc:title></dc:title>
      </cc:Work>
    </rdf:RDF>
  </metadata>
  <defs
     id="defs6" />
  <image
     width="4365"
     height="4029.2307"
     preserveAspectRatio="none"
     xlink:href="file:///home/alexander/timelines/timelines/streetmap/../streetmap/helosm.png"
     id="image10"
     x="0"
     y="-29.230713"
     style="display:none" />
  <path
     style="opacity:1;fill:none;fill-opacity:1;fill-rule:nonzero;stroke:#ff6319;stroke-width:5;stroke-linecap:butt;stroke-linejoin:round;stroke-miterlimit:4;stroke-dasharray:none;stroke-opacity:1"
     d="m 4247.75,3157.25 -45,6.75 -11.75,3.25 -12,4.25 -17.25,9.25 -12.5,8 -15.75,6 -17.75,2.25 -16.5,-3 -56.75,-20.5 -64,-32.5 -13.75,-12 -11.75,-11.75 -27.5,-37.5 -26,-26.5 -10.5,-5.75 -11,-2.75 -30.25,-4 -14,3.5 -12.75,5.5 -14.75,9.75 -17,20 -14.75,17.25 -10.75,8.25 -37,20 -17.25,4.75 -43,8.5 -28.25,2.75 -44.25,-3.25 -22,-0.5 -14.75,0.75 -13,4 -16.25,6 -13,9.5 -11,9 -10,14.25 -24.5,39.5 -57.5,99 -17.5,24.5 -19,16.75 -17.5,10.75 -21.75,6.5 -16.5,10 -13.5,12.25 -24,20.5 -19.25,9 -17.25,4.75 -53.75,11.5 -14.25,5.75 -10.25,5.75 -18.25,12 -13,6.5 -13.75,3.75 -16.75,3.25 -28.25,1 -13.75,-2 -100.5,-22.75 -39.75,-16.75 -35.75,-7.25 -9.25,-1 -10.5,4.25 -10.5,8.25 -9.5,15.75 -7.75,13.75 -10,16 -10.25,10.75 -10.5,5 -15,4.75 -9.75,6.25 -8.5,11 -5.25,13.5 1.5,38.5 4.5,72.5 -4.5,17.5 -20,34.25 -11,7.75 -17.25,8.5 -39.75,2.25 -15.5,2.25 -17,5.5 -42.25,27.5 -8.75,11 -16.5,21 -12,21.25 -11.75,9.75 -20.25,9.75 -40,3.5"
     id="path4506" />
  <path
     style="opacity:1;fill:none;fill-opacity:1;fill-rule:nonzero;stroke:#ff6319;stroke-width:5;stroke-linecap:butt;stroke-linejoin:round;stroke-miterlimit:4;stroke-dasharray:none;stroke-opacity:1"
     d="m 3790.0923,3079.347 6.364,-27.9307 -3.182,-32.1734 -23.3345,-73.8927 -24.3952,-28.9913 -24.3952,-58.3363 -2.1213,-19.0919 3.5356,-19.799 37.1231,-77.4282 15.5563,-15.2028 55.1543,-31.4663 26.5165,-7.4246 58.3363,7.0711 27.2237,-2.1213 24.7487,-6.0104 38.8909,-23.6881"
     id="path4508" />
  <path
     style="opacity:1;fill:none;fill-opacity:1;fill-rule:nonzero;stroke:#a0459d;stroke-width:5;stroke-linecap:butt;stroke-linejoin:round;stroke-miterlimit:4;stroke-dasharray:none;stroke-opacity:1"
     d="m 2703.9763,3710.4398 -3.8891,-77.7818 -54.8007,-242.184 -0.7071,-17.3241 4.5962,-56.5686 -13.0815,-70.3571 -0.3536,-54.8008 5.6569,-33.5876 26.5165,-96.52 14.4957,-32.527 21.5667,-30.7591 25.1023,-28.2843 41.3658,-31.8198 72.4784,-48.4368 293.4493,-304.0559 113.8442,-117.7333 23.6881,-31.1127 89.8026,-117.7333 17.6776,-32.1733 14.1422,-30.7592 9.8995,-36.7695 159.099,-690.1362 22.981,-101.4699 13.0814,-35.3553 66.8216,-143.1891 16.617,-44.1942 33.234,-130.1076 68.2359,-260.92245 8.8388,-20.15255 67.1751,-146.01755 15.9099,-43.84062 7.7782,-37.83021 80.2566,-454.66966"
     id="path4510" />
  <path
     style="opacity:1;fill:none;fill-opacity:1;fill-rule:nonzero;stroke:#a0459d;stroke-width:5;stroke-linecap:butt;stroke-linejoin:round;stroke-miterlimit:4;stroke-dasharray:none;stroke-opacity:1"
     d="M 1987.523,1937.9728 2027,2022.5 l 3,30 -9,59 v 22 l 14,50.5 4,38.5 7,162.5 14,53.5 58,124.5 17,34 22,25 78.5,51 21.5,22.5 12,25.5 5,28 -2,29.5 -22.5,53 -8.5,32 0.5,28.5 10.5,30.5 22,20.5 117,81 36.5,16.5 32.5,20 49,47.5 114.5,118 12.5941,20.2242"
     id="path4539" />
  <text
     x="89.453125"
     y="206.96094"
     id="text3019"
     xml:space="preserve"
     style="font-style:normal;font-weight:normal;font-size:143.99993896px;line-height:125%;font-family:Sans;-inkscape-font-specification:Sans;letter-spacing:0px;word-spacing:0px;fill:#000000;fill-opacity:1;stroke:none"><tspan
       x="89.453125"
       y="206.96094"
       id="tspan1">2000</tspan></text>
</svg>
