<?xml version="1.0" encoding="UTF-8" standalone="no"?>
<svg
   xmlns:dc="http://purl.org/dc/elements/1.1/"
   xmlns:cc="http://creativecommons.org/ns#"
   xmlns:rdf="http://www.w3.org/1999/02/22-rdf-syntax-ns#"
   xmlns:svg="http://www.w3.org/2000/svg"
   xmlns="http://www.w3.org/2000/svg"
   xmlns:xlink="http://www.w3.org/1999/xlink"
   viewBox="0 0 1900 4800"
   height="4800"
   width="1900"
   id="svg2"
   version="1.1">
  <metadata
     id="metadata8">
    <rdf:RDF>
      <cc:Work
         rdf:about="">
        <dc:format>image/svg+xml</dc:format>
        <dc:type
           rdf:resource="http://purl.org/dc/dcmitype/StillImage" />
        <dc:title></dc:title>
      </cc:Work>
    </rdf:RDF>
  </metadata>
  <defs
     id="defs6" />
  <image
     style="display:none"
     y="20"
     x="-75"
     id="image10"
     xlink:href="file:///home/alexander/timelines/timelines/streetmap/../streetmap/cwlosm.png"
     preserveAspectRatio="none"
     height="4830"
     width="2100" />
  <path
     id="path4487"
     d="m 113,1564.5 12.5,11 16,4.5 30.5,-2.5 22,6.5 15.5,8 30,22.5 28.5,37 7.5,18.5 2.5,12.5 -0.5,21.5 10.5,54 13.5,25 38,57 18,18 56,40 20,11.5 30,13.5 15,13.5 18.5,28 15.5,11 69,43.5 54.5,59 21,33.5 8.5,20.5 15,12.5 15.5,8 17.5,5 31,17 14,19 16.5,37.5 3,16.5 -5.5,22.5 -10,22 -0.5,23 3,21 10.5,18 44,49.5 43.5,58 22.5,43.5 28,52.5 9,35.5 20.5,141.5 -2,18 -5.5,22 8.5,22.5 8,13.5 11.5,10.5 42,18 18,15.5 36.5,45.5 19,14.5 30,21 22.5,12 29.5,9.5 30.5,6.5 45.5,7 22,9.5 172.5,81 28,19 280,245 8.25,21 5.25,32 v 30.75 l -13,32.5 -44.5,21.75 -50,5.5 -57.25,-6 -30.5,6.75 -16.5,16.75 -5.25,17.75 1.5,19 17.75,31.25 10,26.5 5.75,22.5 -1.8284,27.0607 -9.2071,26.5857 -28.0252,50.5252 -17.4142,52.4748 -1.5858,31.0858 13.2929,37.8891 18.3285,24.8536 28.0251,33.2929 6.5,14.5 L 1575,3924 l -13,16 -28,7.5 -38.5,5.5 -32,22 -26.5,50 -13.5,14.5 -132,108 -45,46 -137,194.5 -17,13.5 -27,6.5 -31.5,6.5 -16,10 -19,27.5 -38,36 -56,71.5 -7.5,18.5 -15,14 -19.5,9 -16,-6.5 -21,-8.5 -22.5,-3 -25,6 -48.5,11.5 -26,19 -16,19 -25,38.5"
     style="fill:none;fill-rule:evenodd;stroke:#ff2e17;stroke-width:5;stroke-linecap:butt;stroke-linejoin:round;stroke-miterlimit:4;stroke-dasharray:none;stroke-opacity:1" />
  <path
     id="path4489"
     d="m 1180.5,119.5 20.5,28 7.5,24.5 1.5,23.5 -3.5,39 2,20 8.5,35 19,49 3.5,28 -4,18 -10,26.5 -46.5,76.5 -12.5,24.5 -6.5,30 2.5,32.5 16.5,67 11.5,17 13,39 27,58 14.5,25 1,20 -5.5,13.5 -10,18.5 -19,19.5 -19,10.5 -23.5,14 -60.5,13 -17,11.5 -10.5,12.5 -29,65.5 -4.5,23.5 1.5,17.5 5,20 13,21 33,29 72.5,90.5 19,26.5 24.5,54 -0.5,19.5 -7.5,16 -11.5,22.5 -1,17 2,28 -6.5,20.5 -23,42 -11,41 -4,83 5,39.5 10.5,27 14,28 7,27 v 23 l -4,35.5 10.5,86.5 v 18.5 l -2,21 -11.5,32.5 -2,18.5 0.5,19 10,24 20,25.5 21,11 25.5,6.5 189.5,19 21,8 23.5,19 12,20 102,225 8.5,23.5 v 23.5 l -6,102.5 3.5,31 12,47.5 18,51 3,37.5 3,1.5 -0.5,230 6,35.5 93.375,460.5 6.118,16.125 5.2988,32.1106 0.2788,32.2902 -14.4644,35.3825 -45.7493,23.193 -52.2967,5.9216 -56.0215,-6.3412 -29.1063,6.2986 -15.0363,15.0829 -4.3411,15.8668 1.3744,16.6248 17.7077,31.7902 9.8944,26.749 5.7185,22.906 -1.6145,28.3765 -9.8503,28.1177 -27.9086,49.6237 -16.9756,52.0882 -1.5671,28.9914 12.5651,36.4453 18.3464,24.7613 28.1496,33.5988 7.0299,16.2034 15.0174,38.0568 14.5528,18.5728 13.0261,30.4677 12.9432,14.7097 19.6155,8.7507 24.4809,16.9462 22.1759,29.1701 9.3508,30.2096"
     style="fill:none;fill-rule:evenodd;stroke:#0bae56;stroke-width:5;stroke-linecap:butt;stroke-linejoin:round;stroke-miterlimit:4;stroke-dasharray:none;stroke-opacity:1" />
  <path
     id="path4491"
     d="m 1791.375,3597.875 -52.125,-114.625 -1.875,-9.75 1.875,-14.5 8.625,-13.375 14.625,-35.375 0.375,-32.5 -1.75,-11.625"
     style="fill:none;fill-rule:evenodd;stroke:#25b2b9;stroke-width:5;stroke-linecap:butt;stroke-linejoin:round;stroke-miterlimit:4;stroke-dasharray:none;stroke-opacity:1" />
  <text
     style="font-style:normal;font-weight:normal;font-size:144px;font-family:Sans;-inkscape-font-specification:Sans;fill:#000000;fill-opacity:1;stroke:none"
     xml:space="preserve"
     id="text2828"
     y="4697.9609"
     x="89.453125"><tspan
       id="tspan2"
       y="4697.9609"
       x="89.453125">2020</tspan></text>
  <text
     style="font-style:normal;font-weight:normal;font-size:143.99990845px;font-family:Sans;-inkscape-font-specification:Sans;fill:#000000;fill-opacity:1;stroke:none"
     xml:space="preserve"
     id="text2828-6"
     y="206.96094"
     x="89.453133"><tspan
       id="tspan1"
       y="206.96094"
       x="89.453133">2020</tspan></text>
</svg>
