<svg xmlns="http://www.w3.org/2000/svg" width="8650" viewBox="0, 0, 8650, 7150" height="7150"><path d="M4705.013 2913.28l5.356 7.698 28.787 19.415 37.825 10.711 5.69 7.364" fill="none" stroke="#81c99c" stroke-width="5" stroke-linejoin="round"/><path d="M3872.204 3422.18l-3.915-7.277-18.768-53.25 7.5-103.5-6.5-7v-47.5" fill="none" stroke="#d8ad3d" stroke-width="5" stroke-linejoin="round"/><path d="M2824.02 2595.154l-158 78-273.384 136.346-41 13.5-52 10-38.5 4-52-5-29-5-49-19-118.5-55-43.5-22.5-29.5-26-24.5-38.5-11.5-31.5-22-29.5-21-19-29.5-15-57.5-16-32.5-8.5-25 2.5-26.5 7-24.5 10-19 11.5-10 17.5-3 15.5-2 27.5M3405.52 2517.654l-134 70.5-61 30-45.5 28.5-56 35.5-36.5 25-17 30-4 46.5-7 48-13 35.5-65.5 88-54 75.5-10.5 28-12.5 43-26.5 121-2 25.5 4.5 98 7.5 42.5 3 20.5-3 28.5" fill="none" stroke="#7082c0" stroke-width="5" stroke-linejoin="round"/><path d="M3972.52 2980.154l4.5-6 1.5-72 1-44-16.5-56 35.148-158.162M3963.02 2802.154l-19-16.5-64.5-56.5-33.655-29.5" fill="none" stroke="#74cede" stroke-width="5" stroke-linejoin="round"/><path d="M3430.02 3773.654l39-24.5 48.5-38 84.5-85 60.5-48 47.5-37 60.5-26.5 128.5-60 15-2 57 31 6.5-3.5 16-31-30-157-13.5-25.5-44-69.5v-11l23.5-39 29.5-61-2-27.5 20-43.5-3-25.5 4-6 53.5-11 69 7 4-2.5.5-4.5-17-23-10.5-19 7.5-28-4.5-21 14-32.5v-81l9-22 21-23 7.5-2 20 5 53 20 29 3.5 37 8.5 31.502.426 6.999-7.926-4-59.5-2-50" fill="none" stroke="#00824e" stroke-width="5" stroke-linejoin="round"/><path d="M4701.52 3147.654l56-99.5 25.5-88.5" fill="none" stroke="#96a33c" stroke-width="5" stroke-linejoin="round"/><path d="M4876.02 2921.154l-29.5 12-67.5 28-37 17-38 7.5-32.5 4.5-12.98-13.521-18.834-4.9-21.685 15.42-20 10-17.5 3.5-18.5 13.5-23 3-54.5 21-43.5 24.5-56.68 29.735-43.82 28.266-11 6.5-18.5 24-5.5 1.5-24.5-10.5h-8.5l-5.5 2.5-11 34-30.5 83.5-9.5 5-33-15.5" fill="none" stroke="#865e39" stroke-width="5" stroke-linejoin="round"/><path d="M4258.996 3434.49l-9.975 7.664-8-.5-13.5-10-27.5-52.5-99-37-34.5-12-37.5 8.5-56.5 17-48 35.5-26 20.5-20.167 10.266-8.324-.965" fill="none" stroke="#d8ad3d" stroke-width="5" stroke-linejoin="round"/><path d="M3415.02 3427.654l-13 1.5-14-11-22-2.5-27.5-8-51.5 3.5-7.5 6-8 27.5 5.5 5.25" fill="none" stroke="#b89cca" stroke-width="5" stroke-linejoin="round"/><path d="M4825.36 3322.785l-20.34 5.369-88 24-37.5 43.5-16.137-3.384-118.862-108.116-108-96.5-73.5-67.5-26.94-20.025-66.339-15.89-29.221-10.671-56.258-17.94-72.864-17.206-78.878-18.268-125-25-92 28-9 9.5v49.5l-8 9.5-50 40-19.31 15.734-21.69.266" fill="none" stroke="#cace2c" stroke-width="5" stroke-linejoin="round"/><path d="M3678.267 3401.015l-12.733 17.651-9.513 4.988-114 7.5-58.5 4.5-48-17-20 9.5-50.5 25-89.535-3.837" fill="none" stroke="#b89cca" stroke-width="5" stroke-linejoin="round"/><path d="M3707.52 3147.654l-52 1.5-18.5 3.5-56 24.5-54.5-6.5-39.5-6.5-7.5 1.5-7 9-31.5 80.5-38 36.5-9.5 15-16.5 45-12.5 38.5-24.5 17.5-41.5 81.5-16.5 36.5-8 29.5-10.5 10.5-261 125" fill="none" stroke="#cace2c" stroke-width="5" stroke-linejoin="round"/><path d="M3677.52 3401.654l35-38.5 53.5-53 41.5-49.5 11.5-10.5 27.5-.5 8-7 1.48-37.536 3.02-28.964 6.5-16.5 6.5-4.5 17-.5 24-7.5 30.5-60 7-6.5 94.5-26 58.5-13 47 10.5 32 7.5 29.5 9 57 20 12.5 3 52.5 13 25 20 16 42 6.5 16.5 20.5 135 13.5 11.5 24 14.5 71.5 25.5 48.5 7.5 20.5 38 51 70 39.5 49.5 16.5 13 67 35.5 21 12 2.5 7-44 30.5-34.733 20.52" fill="none" stroke="#b89cca" stroke-width="5" stroke-linejoin="round"/><path d="M4365.52 2895.154l57.5-6.5 31 13.5 70 47.5 5-2 12-11 24.5-8 39.5-5.5 7 3.5 30.5 39 8-.5 50-36.5 2.5-12-24.5-20.5-29-10-6 1-32 34-8 3" fill="none" stroke="#f59fb8" stroke-width="5" stroke-linejoin="round"/><path d="M4304.624 3839.991l-4.304-14.145-35.3-166.692-47-103.5 1-9 10-32 3-35.5 8-20 6.071-7.918 42.93-34.082 14.33-11.345 31.17-27.155 3.5-12-7.5-13.5-51-31.5-71-40-74-35.5-23-8-2-4.5 7-20-2.5-9-47.493-22.616-34.507-117.384-.5-15 10-28 158-61.5 14.5-1.5h10l60 11.5 20 5.5 5.5.5 8-2 16.5-41 116.5-144 69.5-83 47.191-59.776" fill="none" stroke="#f59fb8" stroke-width="5" stroke-linejoin="round"/><path d="M4671.52 3404.654l60.5 52-10.5 61-3.5 14-109.5 15-21-1-76.5-20-9.5 2-72.5 58.5-20.5 14.5-48.5 24.5-75 38-16.932 3.818" fill="none" stroke="#81c99c" stroke-width="5" stroke-linejoin="round"/><path d="M4258.464 2919.427l-6.323 16.913 1.572 5.846 10.177 16.704 9.13 13.264 8.5 2 21 6 1.5 6.5-1 17.5 6 23.5 14.5 31.5 47.5 75.5 51 46 14 14.5 3 8.5-4 19.5-20 69-19 44-24.5 70.5-4.5 18.5 2 7 10.5 11 17.5 15 2 6-1 5.5-23.5 22-15 8-10.5 4-4.5 5-20.5 39-58 118" fill="none" stroke="#f68c58" stroke-width="5" stroke-linejoin="round"/><path d="M4154.02 2645.154l39.5 71.5 11 19.5 2 11-.5 58-.5 54.5 3 8.5 22.5 36 25 12 21 6.5 11.5 4.5 5 7.5-.5 11-7.5 41-20.5 55.5-37.5 105-9 12-34 11.5-8.5 6.5-7.5 26.5 11 30.5 4.5 15.5 3.907 17.733-7.406 31.267-29.5 24.5-27.5 19-9.5-1.5-42.5-14.5-24-7-9.5 3-39 65-26 42-24.5 40.5 3 10 48 21 9 9.5 8.5 37 14.5 63 .5 16.5-24 35.5-31 53-13.865 72.56" fill="none" stroke="#b0499b" stroke-width="5" stroke-linejoin="round"/><path d="M3631.68 2830.477l117.34 25.177 62 20.5 24.5 29 32.5-6.5 12.5 2.5 45 24.5 5.5 12 20.5 53 78 67.5 10.5 10 51.5 14 172 55 16.5-.5 46.5-14 38-7.5 148.5 44.5 75.5 20.5 88-33h14l11.196-1.074" fill="none" stroke="#96a33c" stroke-width="5" stroke-linejoin="round"/><path d="M4679.02 3404.654l22-25.5.5-14-9.5-21-33.5-67-27.5-20.5-21.5-10.5-23.5-74.5-65-83-71-92.5-31.5-42.5-4.5-20-1-59-17.5-21.5-63-3-30.5-2-51.5 7-48.5 3.5-42 11-50.5 14h-14l-88.5-35.5-5.5 1-20 13.5-64 19.5-53 11.5-71.5 14-104 37-7 8-21.673 46.106-11.02 8.498-4.778 10.237-82.028 52.159-13.5 3.5-77-27" fill="none" stroke="#0069b5" stroke-width="5" stroke-linejoin="round"/><path d="M3520.545 2950.088l48.976 23.566 71.064 33.968 12.827-6.986 8.835 4.863 5.79 15.244 60.484 28.91 106.5 51 64.5 30 33-5.5 21.5 3.5 95 48 23 14 50 24.5 72 33.5 90 36 41 14.5 45 23.5 20 4.5 2.5 5.5-2 7 5 7 11.5 3.5 29.5 91.5 9.5 5.5 21.5-5 80.5-16.5 114.5-20.5 31.5-2 104.5 15.5 209.5 29.5 114 15.5" fill="none" stroke="#ffcd02" stroke-width="5"/><path d="M4303.02 3837.654l13.5 13.5 14.5-1 66.5-32.5 13 1" fill="none" stroke="#f59fb8" stroke-width="5" stroke-linejoin="round"/><text x="89.453" y="206.961" style="-inkscape-font-specification:Sans" font-weight="400" font-size="144" font-family="Sans"><tspan x="89.453" y="206.961">1935</tspan></text><text x="89.453" y="7047.961" style="-inkscape-font-specification:Sans" font-weight="400" font-size="144" font-family="Sans"/><path d="M3956.02 2968.654l-30-66-29.5-50-28.5-40-20-19-86-78.5-82.5-71-102.56-90.5-26.765-20.94-20.674-14.56-29-10-24-4-31.5 1.5-33.5 10-21 5.5-17-1-16.5-8-14-13.5-11.5-56-14-20.5-20-14-22.5-9.5-33.5-1-29.5 10-116.5 53-97.5 49-176.649 86.281" fill="none" stroke="#7082c0" stroke-width="5" stroke-linejoin="round"/><path d="M4267.614 3663.488l-5.97 3.765-9.623 3.4-44 20-6 .5-130-54.5-43-16.5-8.5-38.5-10-40.5-77-39.5-11-1-20 2.5-44 20-7-1.5-37-68.5-6.5-4-179-83-69-104-2.5-13.5-2-18 16.5-39 9-26.5 75.365-157.596" fill="none" stroke="#f68c58" stroke-width="5" stroke-linejoin="round"/><path d="M3847.439 2798.466l-28.466-5.356-20.084 1.34-52.553 9.037-33.658 10.078-46.157 34.089-109 90-33.5 27-17.5 15.5-22.5 27.5-26.5 49.5-27 52-5 19-3.5 26 3 23.5 9.5 20.5 5.5 20-1.5 13-6.168 13.973-12.332 11.027L3368 3273l-11 6.5-17 15.5-10 22.5-6 18-2 12-3.5 23.5-9.5 15.5-7.5 16.5" fill="none" stroke="#7082c0" stroke-width="5" stroke-linejoin="round"/></svg>