<?xml version="1.0" encoding="UTF-8" standalone="no"?>
<svg
   xmlns:dc="http://purl.org/dc/elements/1.1/"
   xmlns:cc="http://creativecommons.org/ns#"
   xmlns:rdf="http://www.w3.org/1999/02/22-rdf-syntax-ns#"
   xmlns:svg="http://www.w3.org/2000/svg"
   xmlns="http://www.w3.org/2000/svg"
   xmlns:xlink="http://www.w3.org/1999/xlink"
   viewBox="-850 -1450 3200 3900"
   height="3900"
   width="3200"
   id="svg2"
   version="1.1">
  <metadata
     id="metadata8">
    <rdf:RDF>
      <cc:Work
         rdf:about="">
        <dc:format>image/svg+xml</dc:format>
        <dc:type
           rdf:resource="http://purl.org/dc/dcmitype/StillImage" />
        <dc:title></dc:title>
      </cc:Work>
    </rdf:RDF>
  </metadata>
  <defs
     id="defs6" />
  <image
     style="display:none"
     y="-613"
     x="-725"
     id="image10"
     xlink:href="file:///home/lexande/timelines/timelines/streetmap/../streetmap/cgqosm.png"
     preserveAspectRatio="none"
     height="3163"
     width="3163" />
  <path
     id="path817"
     d="m 785.8644,222.339 -23.1356,-0.2204 -10.3559,-2.8644 -20.7119,-0.661 -7.7118,0.4407 -13.4407,9.6949 -65.4407,52.4407 -14.5424,19.1695 -11.4576,17.8474 -21.5932,39.6611 -188.3899,371.2711 -56.1864,110.6102 -11.678,15.6441 -146.52538,159.9661 -28.64407,36.7966 -28.42373,34.5932 -4.18644,12.5593 2.20339,40.1017 5.94915,13.4407 146.52538,218.3559 9.4746,8.8136 39.661,24.2373 10.356,2.2034 575.7457,-6.6102 15.8644,1.322 104.6611,-0.8813 40.983,-3.5254 529.0339,-7.4916 14.1017,-5.0678 10.3559,-8.5932 28.6441,-30.8474 11.017,-3.0848 54.8644,-7.2712 10.1356,1.9831 29.5254,7.4915 12.1186,-1.322 19.8305,-7.0509 9.9153,-0.4407 16.7458,5.7289 101.7966,55.7457 20.2711,18.7288 115.2373,116.5594 16.9661,24.0169 96.7289,169.661 39.4406,103.5593 0.4407,11.8984 -3.5254,23.7966 -6.8305,13.4406 -32.6102,37.678 -64.339,83.9492 -13.8813,17.4067 -19.6102,17.8475 -5.9492,17.6271 -3.0847,14.1017 6.3898,41.8644 4.8475,9.9153 14.322,10.5762 20.9322,8.3729 27.5424,29.0848 53.5424,57.5084 5.7288,20.2712 9.9152,75.5763 v 18.9492"
     style="opacity:1;fill:none;fill-opacity:1;fill-rule:nonzero;stroke:#a6536f;stroke-width:5;stroke-linecap:butt;stroke-linejoin:round;stroke-miterlimit:4;stroke-dasharray:none;stroke-opacity:1" />
  <text
     style="font-style:normal;font-weight:normal;font-size:143.99993896px;line-height:125%;font-family:Sans;-inkscape-font-specification:Sans;letter-spacing:0px;word-spacing:0px;fill:#000000;fill-opacity:1;stroke:none"
     xml:space="preserve"
     id="text3784"
     y="-1243.03906"
     x="-760.5469"><tspan
       id="tspan1"
       y="-1243.03906"
       x="-760.5469">2010</tspan></text>
</svg>
