<svg xmlns="http://www.w3.org/2000/svg" viewBox="0, -550, 4000, 4900" height="4900" width="4000"><path style="fill:none;stroke:#8a2495;stroke-width:5;stroke-linecap:butt;stroke-linejoin:round;stroke-miterlimit:4;stroke-opacity:1;stroke-dasharray:none" d="m2267.5 1881-43.5 70.5-7.016.5 2.5 22.5 3 20 12.5 10 485 293 224.5138.0122.5 91 198 160 41.525.034.5 10 95 8 178.5 17.5 65-8 18.5-2.026.5 5.5 23.5 6.531.015.5 27.517.026.5 20 21 22.520.043.5 9.5 22"/><path style="fill:none;stroke:#542a18;stroke-width:5;stroke-linecap:butt;stroke-linejoin:round;stroke-miterlimit:4;stroke-opacity:1;stroke-dasharray:none" d="m605 2079 63-1.5 11.5-6.5 8.5-29.03.5-8.5 6.5-3 41 13 159.5-4.0170.5-9.5 76.5-5.0119.5-6.5 71-8 20.5-10.0106.5-6.5 44.51.057.5-4 69 8 42.5 2.5h71.5l83.5-3 15 .5 59.5-10 239 35.5 20-.5 17.5-10.028.5-30 43-72 18.5-29.5"/><path style="fill:none;stroke:#9ba1a9;stroke-width:5;stroke-linecap:butt;stroke-linejoin:round;stroke-miterlimit:4;stroke-opacity:1;stroke-dasharray:none" d="M1094.5 1418.5 1297 1456l128.5 12.5 103 5 11 9.549.059.5 53.5 5 5 7.5.5 9-7.5 46.5v17.5l5 8.5 11.55.011.5-5 223-106 60.5-27.5 35-25.5 79-63 89.5-64.039.5-25.0147.5-114.018.5-10.5 77.5-21.5 20-18 20.5-47L2605 804l309-742.5"/><path style="fill:none;stroke:#009a68;stroke-width:5;stroke-linecap:butt;stroke-linejoin:round;stroke-miterlimit:4;stroke-opacity:1;stroke-dasharray:none" d="m1294 1441-12 83.5-15.5 97.5-6.5 56-10 41.5-13 68-8.5 101-4.5 47.5 11.5 18 26 13.5 28 3 54.5 17.5 87.5 18.5 49.5 19.524.021.5 17.5 19.5 22.5 12.5 66.5 2.5 44 15 8.511.04.5 69.5-6 66 17.5 43 14 56 12.5 64.5 35 89 12 52.5-18 72-33 149.5 4 14 7.5 11.514.04.5100.08.5 31-3 94-24.5 48-13.5 15 .5 41.529.0203.5 105 88 40 46 23"/><path style="fill:none;stroke:#f6842a;stroke-width:5;stroke-linecap:butt;stroke-linejoin:round;stroke-miterlimit:4;stroke-opacity:1;stroke-dasharray:none" d="M410 515.5 385.5 593l.5 15 6 18 33.5 34.543.067.5 34 36 51.5 44.5 13.5 14.5 11 22 .5 28.5-3 53-12.5 138 2 68.514.074.5-5 43-15 58L539 1395l-9.5 81 7 18 17 21.5-.5 10-10.5 121.5-6 35-12.5 91-9.5 110.5 3.5 26.5 22.549.059.5128.029.5 45.5-9.0108.5-7.5 71-20 174-9.5 89.5-11.096.5-5 59"/><path style="fill:none;stroke:#e12d28;stroke-width:5;stroke-linecap:butt;stroke-linejoin:round;stroke-miterlimit:4;stroke-opacity:1;stroke-dasharray:none" d="m414.29 517.79-24.36 76.580.813.21 5.11 15.73L424.5 649l26 18 68.5 24.5 44 22 17 12.5 107.5 30.5 114-21 39.5-7 14 3 81 30 38.5 21.5 19 2 15-7 76.5-50.5 20.5-7.5 93.522.0135.527.039.5 18 48 12 67.552.011.5 5.5 29.50.566.5 21.5 92 6 12-6 14.5-20.5 10-6.5 25.55.021.5 7.5"/><path style="fill:none;stroke:#fddf12;stroke-width:5;stroke-linecap:butt;stroke-linejoin:round;stroke-miterlimit:4;stroke-opacity:1;stroke-dasharray:none" d="m1143 571.5 17.5 47 57 153.5 83 221 20 46.520.032.5 44.5 66.583.050.5 144 49 79.5 65.547.019.5 109 42h16l67-26.5 24.5-2.5 11.5 6 75 73.5 19.5 42.5 12.5 36-5.5 29-16.5 57-28 42-27 45.5-21.540.01.5 16 60 38 94.5 57.5 14.5 20 89 60.5 12 6"/><path style="fill:none;stroke:#8acdb4;stroke-width:5;stroke-linecap:butt;stroke-linejoin:round;stroke-miterlimit:4;stroke-opacity:1;stroke-dasharray:none" d="m1811 804.5-32 52-15 20-4 35-4.5 43.5-16.5 61-14.5 41.5-45.0105.5-13 56-21 86-33 147.5-12.5 63-9.5 74L1578 1710l-9.5 60.5-10.5 79-11 86 2.5 121.5-3.046.5"/><path style="fill:none;stroke:#7e9426;stroke-width:5;stroke-linecap:butt;stroke-linejoin:round;stroke-miterlimit:4;stroke-opacity:1;stroke-dasharray:none" d="m1584 644-11 55-11 35.5L1430.5 903l-91.5 118-61.5 80.5-21 34-1 36-22 98 3 22-7 54.5-35 166-26.5 114-37.5 217.5-7 53-6 11-43 21-5.5 17.5-17.0240.5-8 96-11 72-28 93.5-82 134-83.5 131-21 50-13.5 32.5-46.5 53.5-34.5 35-20.5 21.5-9.030.5-20.0120.5 1.5 18.5 8 21 5 8.5 28.5 7.5 63 1 20 2.5 4 6L792 3154l6.5 74.5-7 46-.5 32"/><path style="fill:none;stroke:#1478c7;stroke-width:5;stroke-linecap:butt;stroke-linejoin:round;stroke-miterlimit:4;stroke-opacity:1;stroke-dasharray:none" d="m183 1216.5 22.5-17.024.5-11.016.52.0102.533.045.5 12.5 47-7 81.5-15.5 66 6 82 21.5 19.5 17 41 32 65 48.5 12.5 14 33 53 15 21 45.5 31 37 16 47 16 103 44.5 99.523.094.5 20.5 55 9 54 7.5 6.5 5-3.5 46-16 114.5-27.5 199-31 198-46 326.5-37 251-16.5 73-16.5 62.5-3 36 15.5 69.5 8.512.013.5 3 50 1.5"/><path style="fill:none;stroke:#f148a3;stroke-width:5;stroke-linecap:butt;stroke-linejoin:round;stroke-miterlimit:4;stroke-opacity:1;stroke-dasharray:none" d="m397.5 2160.5 119-38.5 49-21 28.5-13.09.5-8.032.5-57.5 30-64.5 10.5-32.5 23-61 15-35 11-11.5 31-6 123.5-28.5 200-50 76.5-21.5 21-1.5149.017.5 79.5 7.5 22-8 78.5 14 32 4 9-1 5-4 6-11.5v-18l-.5-48 3-14.5 8-9.5 6-4 23.5 2.5 35.5 2.5 8.5 8 .5 21 4 10 84 47.5 312 173 72.548.054.5 34 14 3 13.5-3.5 6.5-5.5 9-14 8-19 8.5-71.5"/><text style="font-size:144px;font-style:normal;font-weight:400;line-height:125%;letter-spacing:0;word-spacing:0;fill:#000;fill-opacity:1;stroke:none;font-family:Sans;-inkscape-font-specification:Sans" xml:space="preserve" y="4247.96" x="89.45"/><text style="font-size:144px;font-style:normal;font-weight:400;line-height:125%;letter-spacing:0;word-spacing:0;fill:#000;fill-opacity:1;stroke:none;font-family:Sans;-inkscape-font-specification:Sans" xml:space="preserve" y="-343.04" x="89.45"><tspan y="-343.04" x="89.45">2010</tspan></text><path d="M1289.5 2995.5h-43l-15 1-6 6.5 1.519.09.533.061.5 209 14 49 2 17v15l-18.5 64.5L1260 3522l-34 52.5-44.062.5-15.018.5-31.5 26.5-8.023.5-0.056.86" style="fill:none;stroke:#1e4584;stroke-width:5;stroke-linecap:butt;stroke-linejoin:round;stroke-miterlimit:4;stroke-dasharray:none;stroke-opacity:1"/><path d="m1127.45 3712.36-0.4560.14 6.5 16.5 41.49 39.19" style="fill:none;stroke:#1e4584;stroke-width:1;stroke-linecap:butt;stroke-linejoin:round;stroke-miterlimit:4;stroke-dasharray:none;stroke-opacity:1"/><path d="m1174.99 3828.19 111.51 105.31 33 26 51 14 16 15.5 13.525.034.592.06.07 14.84 13.63 15.41 21.2 13.32" style="fill:none;stroke:#1e4584;stroke-width:5;stroke-linecap:butt;stroke-linejoin:round;stroke-miterlimit:4;stroke-dasharray:none;stroke-opacity:1"/><path d="m1475.4 4149.56 20.6 12.94183.095.5 44.5 24.531.08.5" style="fill:none;stroke:#1e4584;stroke-width:1;stroke-linecap:butt;stroke-linejoin:round;stroke-miterlimit:4;stroke-dasharray:none;stroke-opacity:1"/><path d="m1569.69 652.29 8.76-37.47 2.28-3.61 4.22.88.17 3.32-11.08 53.1-5.76 29.14-10.67 34.64-222.41 285.39-61.47 80.5-21.1 34.18-21.79 28.1-36.47 43.7-18.35 30.05-9.86 10.09-42.55 30.97-8.26 11.7-5.51 24.55-20.07 104.72" style="opacity:1;fill:none;fill-opacity:.4;fill-rule:nonzero;stroke:#a83439;stroke-width:5;stroke-linecap:butt;stroke-linejoin:round;stroke-miterlimit:4;stroke-dasharray:none;stroke-opacity:1"/><path d="m1089.75 1416.23-3.33 13.65-15.03 34.18-5.74 28.22-21.91 54.83-45.19 107.36-44.62 100.36 1.18 4.76 1.96 3.740.595.54-2.96 5.32-5.85 2.84-3.74 4.41-17.55 63.89-48.06 160.23-189.02 616.62-88.09 288.12-49.78 142.23-1.15 10.320.4610.32" style="opacity:1;fill:none;fill-opacity:.4;fill-rule:nonzero;stroke:#a83439;stroke-width:1;stroke-linecap:butt;stroke-linejoin:round;stroke-miterlimit:4;stroke-dasharray:none;stroke-opacity:1"/><path d="m945.12 1781.43-.92-5.74-3.67-4.93-.92-5.51 2.06-4.01 3.21-2.81 4.69-1.07 4.37-2.53" style="opacity:1;fill:none;fill-opacity:.4;fill-rule:nonzero;stroke:#a83439;stroke-width:1;stroke-linecap:butt;stroke-linejoin:round;stroke-miterlimit:4;stroke-dasharray:none;stroke-opacity:1"/><path d="m551.93 3073.17 26.84 225.73 17.89 156.68 15.6 133.74 13.31 114.01" style="opacity:1;fill:none;fill-opacity:.4;fill-rule:nonzero;stroke:#a83439;stroke-width:5;stroke-linecap:butt;stroke-linejoin:round;stroke-miterlimit:4;stroke-dasharray:none;stroke-opacity:1"/><path d="m625.57 3703.33 2.29 18.58 4.13 8.26 6.19 6.19 23.4 8.49 125.25 55.28 4.13 7.8 1.38 8.72-2.98 11.47-24.09 62.63v17.43l4.36 12.39 7.11 12.16 17.43 10.78 80.75 36.7 2.32 4.26-1.02 5.68-5.65 6.12h-7.11l-4.13-4.59-.92-6.65 4.36-7.34-.69-3.44" style="opacity:1;fill:none;fill-opacity:.4;fill-rule:nonzero;stroke:#a83439;stroke-width:1;stroke-linecap:butt;stroke-linejoin:round;stroke-miterlimit:4;stroke-dasharray:none;stroke-opacity:1"/></svg>