<svg xmlns="http://www.w3.org/2000/svg" width="4000" height="4350" viewBox="0, 0, 4000, 4350"><path d="M2267.5 1881l-43.5 70.5-7 16.5 2.5 22.5 3 20 12.5 10 485 293 224.5 138 122.5 91 198 160 41.5 25 34.5 10 95 8 178.5 17.5 65-8 18.5-2 26.5 5.5 23.5 6.5 31 15.5 27.5 17 26.5 20 21 22.5 20 43.5 9.5 22" fill="none" stroke="#8a2495" stroke-width="5" stroke-linejoin="round"/><path d="M605 2079l63-1.5 11.5-6.5 8.5-29 3.5-8.5 6.5-3 41 13 159.5-4 170.5-9.5 76.5-5 119.5-6.5 71-8 20.5-10 106.5-6.5 44.5 1 57.5-4 69 8 42.5 2.5h71.5l83.5-3 15 .5 59.5-10 239 35.5 20-.5 17.5-10 28.5-30 43-72 18.5-29.5" fill="none" stroke="#542a18" stroke-width="5" stroke-linejoin="round"/><path d="M1094.5 1418.5L1297 1456l128.5 12.5 103 5 11 9.5 49 59.5 53.5 5 5 7.5.5 9-7.5 46.5v17.5l5 8.5 11.5 5 11.5-5 223-106 60.5-27.5 35-25.5 79-63 89.5-64 39.5-25 147.5-114 18.5-10.5 77.5-21.5 20-18 20.5-47L2605 804l309-742.5" fill="none" stroke="#9ba1a9" stroke-width="5" stroke-linejoin="round"/><path d="M1294 1441l-12 83.5-15.5 97.5-6.5 56-10 41.5-13 68-8.5 101-4.5 47.5 11.5 18 26 13.5 28 3 54.5 17.5 87.5 18.5 49.5 19.5 24 21.5 17.5 19.5 22.5 12.5 66.5 2.5 44 15 8.5 11 4.5 69.5-6 66 17.5 43 14 56 12.5 64.5 35 89 12 52.5-18 72-33 149.5 4 14 7.5 11.5 14 4.5 100 8.5 31-3 94-24.5 48-13.5 15 .5 41.5 29 203.5 105 88 40 46 23" fill="none" stroke="#009a68" stroke-width="5" stroke-linejoin="round"/><path d="M410 515.5L385.5 593l.5 15 6 18 33.5 34.5 43 67.5 34 36 51.5 44.5 13.5 14.5 11 22 .5 28.5-3 53-12.5 138 2 68.5 14 74.5-5 43-15 58L539 1395l-9.5 81 7 18 17 21.5-.5 10-10.5 121.5-6 35-12.5 91-9.5 110.5 3.5 26.5 22.5 49 59.5 128 29.5 45.5-9 108.5-7.5 71-20 174-9.5 89.5-11 96.5-5 59" fill="none" stroke="#f6842a" stroke-width="5" stroke-linejoin="round"/><path d="M414.293 517.793l-24.364 76.581.803 13.212 5.111 15.732L424.5 649l26 18 68.5 24.5 44 22 17 12.5 107.5 30.5 114-21 39.5-7 14 3 81 30 38.5 21.5 19 2 15-7 76.5-50.5 20.5-7.5 93.5 22 135.5 27 39.5 18 48 12 67.5 52 11.5 5.5 29.5.5 66.5 21.5 92 6 12-6 14.5-20.5 10-6.5 25.5 5 21.5 7.5" fill="none" stroke="#e12d28" stroke-width="5" stroke-linejoin="round"/><path d="M1143 571.5l17.5 47 57 153.5 83 221 20 46.5 20 32.5 44.5 66.5 83 50.5 144 49 79.5 65.5 47 19.5 109 42h16l67-26.5 24.5-2.5 11.5 6 75 73.5 19.5 42.5 12.5 36-5.5 29-16.5 57-28 42-27 45.5-21.5 40 1.5 16 60 38 94.5 57.5 14.5 20 89 60.5 12 6" fill="none" stroke="#fddf12" stroke-width="5" stroke-linejoin="round"/><path d="M1811 804.5l-32 52-15 20-4 35-4.5 43.5-16.5 61-14.5 41.5-45 105.5-13 56-21 86-33 147.5-12.5 63-9.5 74L1578 1710l-9.5 60.5-10.5 79-11 86 2.5 121.5-3 46.5" fill="none" stroke="#8acdb4" stroke-width="5" stroke-linejoin="round"/><path d="M1584 644l-11 55-11 35.5L1430.5 903l-91.5 118-61.5 80.5-21 34-1 36-22 98 3 22-7 54.5-35 166-26.5 114-37.5 217.5-7 53-6 11-43 21-5.5 17.5-17 240.5-8 96-11 72-28 93.5-82 134-83.5 131-21 50-13.5 32.5-46.5 53.5-34.5 35-20.5 21.5-9 30.5-20 120.5 1.5 18.5 8 21 5 8.5 28.5 7.5 63 1 20 2.5 4 6L792 3154l6.5 74.5-7 46-.5 32" fill="none" stroke="#7e9426" stroke-width="5" stroke-linejoin="round"/><path d="M183 1216.5l22.5-17 24.5-11 16.5 2 102.5 33 45.5 12.5 47-7 81.5-15.5 66 6 82 21.5 19.5 17 41 32 65 48.5 12.5 14 33 53 15 21 45.5 31 37 16 47 16 103 44.5 99.5 23 94.5 20.5 55 9 54 7.5 6.5 5-3.5 46-16 114.5-27.5 199-31 198-46 326.5-37 251-16.5 73-16.5 62.5-3 36 15.5 69.5 8.5 12 13.5 3 50 1.5" fill="none" stroke="#1478c7" stroke-width="5" stroke-linejoin="round"/><path d="M1289.5 2995.5h-43l-15 1-6 6.5 1.5 19 9.5 33 61.5 209 14 49 2 17v15l-18.5 64.5L1260 3522l-34 52.5-44 62.5-15 18.5-31.5 26.5-8 23.5-.5 67 6.5 16.5 153 144.5 33 26 51 14 16 15.5 13.5 25 34.5 92 12.5 26.5 49 30 183 95.5 44.5 24.5 31 8.5" fill="none" stroke="#1e4584" stroke-width="5" stroke-linejoin="round"/><path d="M397.5 2160.5l119-38.5 49-21 28.5-13 9.5-8 32.5-57.5 30-64.5 10.5-32.5 23-61 15-35 11-11.5 31-6 123.5-28.5 200-50 76.5-21.5 21-1.5 149 17.5 79.5 7.5 22-8 78.5 14 32 4 9-1 5-4 6-11.5v-18l-.5-48 3-14.5 8-9.5 6-4 23.5 2.5 35.5 2.5 8.5 8 .5 21 4 10 84 47.5 312 173 72.5 48 54.5 34 14 3 13.5-3.5 6.5-5.5 9-14 8-19 8.5-71.5" fill="none" stroke="#f148a3" stroke-width="5" stroke-linejoin="round"/><text x="89.453" y="4247.961" style="line-height:125%;-inkscape-font-specification:Sans" font-size="144" font-weight="400" letter-spacing="0" word-spacing="0" font-family="Sans"/><text x="89.453" y="206.961" style="line-height:125%;-inkscape-font-specification:Sans" font-size="144" font-weight="400" letter-spacing="0" word-spacing="0" font-family="Sans"><tspan x="89.453" y="206.961">2015</tspan></text><path d="M585 2494l31 13 326 80 75 55 38 5 19 68 191 35 278 32 26-2 129 20 39 7 30 3 9 16-38 226-4 17v58l28 91 112 53 18 48 319 60 86 80 5 60 41 44 258 98 101 13 7 13 5 26 22 9 41 2 201-32 17 6 18 35 34 39 26 16 147 240" fill="none" stroke="#aa9848" stroke-width="5" stroke-linejoin="round"/></svg>