<svg xmlns="http://www.w3.org/2000/svg" height="12300" width="9000"><path d="M654.5 4459.5l-5 2.5-9.5-6.5-9-2.5-38 3-4.5-.5-2-3.5-1.5-21-2.5-3.5-152 8-246.5 14-2.5 3.5 4 80-2 3-8 .5-2.5-2.5-1.5-23.5 2.5-3 7.5-.5 2-2.5" fill="none" stroke="#5a0000" stroke-width="1px" stroke-linejoin="round"/><text style="-inkscape-font-specification:Sans" y="12197.9609" x="89.453125" font-size="144px" font-weight="400" font-family="Sans"/><text style="-inkscape-font-specification:Sans" y="206.96094" x="89.453178" font-size="143.99993896px" font-weight="400" font-family="Sans"><tspan y="206.96094" x="89.453178">1940</tspan></text><path d="M1010.9 4137.3l-4.4 2.2-22.5 5-14 6.5-28.5 21.5-137 122.5-35 29.5-38 36.5-25 25.5L677 4429l-23.5 31.5" fill="none" stroke="#5a0000" stroke-width="5" stroke-linejoin="round"/><path d="M655 4457.5l-8 15-15 17-24.5 24.5-14.5 18.5-10 22-1.5 14-1.5 44 3.5 5 32 16 8 9.5 11.5 23.5 18.5 16.5 26.5 13.5 31.5 13 71 18.5" fill="none" stroke="#5a0000" stroke-width="1px" stroke-linejoin="round"/><path d="M781.19 4727.205l1.4 4.2-.35 50.399" fill="none" stroke="#5a0000" stroke-width="1px" stroke-linejoin="round"/><path d="M1505 3766l-4.5-8.5 2-10 9-10 21-19.5 1.5-6-2.5-5.5-6.5-6h-7.5l-7.5 4-28 29-.5 10 6.5 7.5 31 30 10 3 16-3 15-9.5 128.5-149 174-206 20-23 22.5-15.5 24-28.5 212.5-89.5 249.5-49 141-27.5 39-1 56-1.5 28-.5 53 12.5 33.5 12.5 15 2 11.5-5.5 10-19-.5-29.5.5-78-2.5-76 7.5-16.5" fill="none" stroke="#dead21" stroke-width="5" stroke-linejoin="round"/><path d="M2748.5 3206.5l7.5 10v20l-10 16.5-23.444 35.429-86.435 78.435-22.192 22.035-2.358 32.279 16.178 17.535" fill="none" stroke="#dead21" stroke-width="5" stroke-linejoin="round"/><path d="M2780.5 2986.5l13.5-18.5 52-28 53.5-30.5 78-42 20-20.5 14.5-34 54-177.5 2.5-10-27.5-308-5-16-15-14.5-2.5-44.5-5-11.5-10-13-2-52-12-6-22.5-3-25-10.5-244 17.5-21.5 1.5-13 4-6 8-4.5 14 18.5 69 12.5 34 83 327.5 33 134 4.5 20-8 70 14.5 58-18 65M2625 3436.5l33.5 16.5 232 63 94.5 49 119 58.5 39.5 31.5 47 17 24.5 21 68 37.5 121.5 79.5 97 88.5 93 79.5 78 66.5 18.5 3 11-5 44.5-42 17.5-10.5 50.5-2.5 93.5 1.5 208 36 8 6 40.5 53 18 14 51.5 58.5 244 418.5" fill="none" stroke="#dead21" stroke-width="1px" stroke-linejoin="round"/><path d="M1470.717 3683.993L1520.5 3636l-.026-2.049-1.26-3.165 1.037-2.608 2.72-2.215 3.993.858 3.286 3.429.572 4.357-2.322 2.25-2.786.822-3.345-1.601-1.869-.078" fill="none" stroke="#5a0000" stroke-width="1px" stroke-linejoin="round"/><path d="M1010.9 4137.3l16.6-8.3 69.5-72 36.067-35.615 80.402-81.169L1275.5 3877l52.512-50.06 113.608-113.524 29.097-29.423 4.343.065L1495.5 3705v4.5l-7 6.5h-4.5l-20.41-19.946-4.542-.536" fill="none" stroke="#5a0000" stroke-linejoin="round"/><path d="M1051.042 4026.363l29.459-.363 24-3 28.167-1.493" fill="none" stroke="#5a0000" stroke-width="1px" stroke-linejoin="round"/><path d="M1051.042 4026.363l-11.041.137-15 2-35 9.5-126.5 32-7.5 3.5-3.366 4.039" fill="none" stroke="#5a0000" stroke-width="5" stroke-linejoin="round"/><path d="M852.635 4077.539l-1.634 1.96-98.5 15.5-2.5 6-100 6.5-3 3 .5 23-1.5 3-521 28.5" fill="none" stroke="#5a0000" stroke-width="1px" stroke-linejoin="round"/></svg>