<svg xmlns="http://www.w3.org/2000/svg" height="1900" width="1650"><path d="M1543.017 1526.881l-41.797 7.932-10.678-1.22-17.084-5.186-19.83-5.187-38.747.305-14.339-6.407-8.542-2.745-61.017 6.712-38.136 13.118-24.711 2.441-8.238 5.797L1230 1576l-15.254 8.847-36.916 5.492-9.762-2.746-12.814-10.068-29.593-26.847-6.712-10.068-18.305-78.102-6.102-25.017 2.136-20.745 6.712-38.746v-12.203l-3.356-7.017-4.576-4.882-38.746-17.084-15.865-20.441-15.559-14.644-23.491-20.746-120.814-54.305-49.119-25.627-85.728-46.678-27.763-20.746-14.95-16.78-9.762-10.678-3.356-20.135-4.576-10.678-18.915-16.475-105.865-106.78-17.695-9.457-5.796-12.509-6.407-16.78-21.356-37.83-7.017-14.644-.305-10.068 9.458-27.152 13.728-30.509L564 755.627l7.036-9.99.656-8.683-4.424-16.714-11.962-57.84.82-4.916 5.243-12.781 6.063-8.52 1.802-7.374-.983-8.029 2.95-9.831 3.604-4.26 16.222-13.437 13.764-10.159 6.554-9.176 1.638-27.2" fill="none" stroke="#33a1ff" stroke-width="5" stroke-linejoin="round"/><path d="M394.983 507.898L246.712 622.61 99.66 462.135M370.05 305.335l21.14-34.517M843.356 1270.284l24.377-52.853" fill="none" stroke="#000" stroke-width="5" stroke-linejoin="round"/><text x="89.453133" y="206.96094" style="line-height:125%;-inkscape-font-specification:Sans" font-weight="400" font-size="143.99993896px" font-family="Sans" letter-spacing="0" word-spacing="0"><tspan x="89.453133" y="206.96094">2020</tspan></text><path d="M1118.95 1540.61l-.405 16.666-6.025 15.062-23.636 40.09-5.33 16.22-2.549 15.294-6.952 8.806-12.745 7.647-59.553 25.721-45.882 33.137-106.131 61.871" fill="none" stroke="#33a1ff" stroke-width="5" stroke-linejoin="round"/><path d="M255.465 267.231l56.928 123.819 111.01 94.643" fill="none" stroke="#000" stroke-width="5" stroke-linejoin="round"/></svg>