<?xml version="1.0" encoding="UTF-8" standalone="no"?>
<svg
   xmlns:dc="http://purl.org/dc/elements/1.1/"
   xmlns:cc="http://creativecommons.org/ns#"
   xmlns:rdf="http://www.w3.org/1999/02/22-rdf-syntax-ns#"
   xmlns:svg="http://www.w3.org/2000/svg"
   xmlns="http://www.w3.org/2000/svg"
   xmlns:xlink="http://www.w3.org/1999/xlink"
   version="1.1"
   id="svg2"
   width="2850"
   height="5650"
   viewBox="0 -950 2850 5650">
  <metadata
     id="metadata8">
    <rdf:RDF>
      <cc:Work
         rdf:about="">
        <dc:format>image/svg+xml</dc:format>
        <dc:type
           rdf:resource="http://purl.org/dc/dcmitype/StillImage" />
        <dc:title></dc:title>
      </cc:Work>
    </rdf:RDF>
  </metadata>
  <defs
     id="defs6" />
  <image
     style="display:none"
     width="2736"
     height="4560"
     preserveAspectRatio="none"
     xlink:href="../basemap/budosm.png"
     id="image10"
     x="100"
     y="-20" />
  <path
     style="fill:none;fill-rule:evenodd;stroke:#fed304;stroke-width:5;stroke-linecap:butt;stroke-linejoin:round;stroke-miterlimit:4;stroke-dasharray:none;stroke-opacity:1"
     d="m 1321.16,1343.92 -8,-10.38 -6.04,-0.66 -4.18,3.68 -3.44,12.9 1,16.54 -4,18.5 -235,231.5 -1.95,4.75 -0.3,21.25 -2.25,3 -28.75,6 -8.25,2.25 -2.75,6 -6.5,4"
     id="path4512" />
  <text
     x="89.45"
     y="-743.04"
     id="text2819"
     xml:space="preserve"
     style="font-style:normal;font-weight:normal;font-size:144px;font-family:Sans;-inkscape-font-specification:Sans;fill:#000000;fill-opacity:1;stroke:none"><tspan
       x="89.45"
       y="-743.04"
       id="tspan1">1920</tspan></text>
  <text
     x="89.45"
     y="4597.96"
     id="text2819-1"
     xml:space="preserve"
     style="font-style:normal;font-weight:normal;font-size:144px;font-family:Sans;-inkscape-font-specification:Sans;fill:#000000;fill-opacity:1;stroke:none"><tspan
       x="89.45"
       y="4597.96"
       id="tspan2">1920</tspan></text>

  <path
     style="fill:none;stroke:#f5b2b6;stroke-linejoin:round;stroke-width:5;stroke-miterlimit:4;stroke-dasharray:none;stroke-opacity:1"
     d="m 118.9,948.12 6.07,12.49 1.19,13.68 4.58,14.65 8.81,14.59 0.29,2.63 0.06,5.64 2.26,3.23 3.95,1.72 5.2,-0.94 13.64,-9.48 4.23,-2 4.65,-0.66 11.06,4.27"
     id="path882" />
  <path
     style="fill:none;stroke:#f5b2b6;stroke-width:1;stroke-linejoin:round;stroke-miterlimit:4;stroke-dasharray:none;stroke-opacity:1"
     d="m 184.89,1007.95 18.11,7.29 14.11,11.07 8.97,9.13 24.54,30.74 41.57,56.77"
     id="path884" />
  <path
     style="fill:none;stroke:#f5b2b6;stroke-width:5;stroke-linejoin:round;stroke-miterlimit:4;stroke-dasharray:none;stroke-opacity:1"
     d="m 292.19,1122.95 31.23,55.81 20.34,33.16"
     id="path938" />
  <path
     style="fill:none;stroke:#f5b2b6;stroke-width:1;stroke-linejoin:round;stroke-miterlimit:4;stroke-dasharray:none;stroke-opacity:1"
     d="m 343.76,1211.92 19.5,29.27 10.89,17.05 50.79,53.26 32.61,34.36 14.76,8.28 5.39,7.05 12.52,12.59 28.12,29.48 18.92,14.72 17.99,16.64 13.59,15.5 6.2,7.53 3.31,2.19 6.4,1.26 30.35,0.61 58.76,15.69 32.59,7.49 5.53,3.42 7.59,7.23 6.59,2.37 7.81,0.29 8.95,4.48"
     id="path1030" />
</svg>
