<svg xmlns="http://www.w3.org/2000/svg" height="1450" width="900"><path d="m693.01 183.85-6.47 6.9-26.32 12.51-19.42 17.26-15.53 22-9.92 34.52-8.63 27.18-7.77 11.22-13.38 12.08-33.22 18.98-30.63 22.44-22.021.14-31.5 17.69-15.53 7.33-94.92 34.95-11.65 6.9-8.63 9.49-13.38 18.98-13.81 13.38-11.22 16.4-4.31 18.12-0.8614.67-6.47 15.53-9.49 15.53-11.65 10.79-21.57 38.4-17.69 32.36-9.92 12.94-28.48 20.71-15.96 19.42-10.35 18.55-6.47 19.85-4.75 48.32-2.59 53.07 9.49 49.62 16.83 45.3 42.71 68.6" style="opacity:1;fill:none;fill-opacity:1;fill-rule:nonzero;stroke:#f15a29;stroke-width:5;stroke-linecap:butt;stroke-linejoin:round;stroke-miterlimit:4;stroke-dasharray:none;stroke-opacity:1"/><path d="m217.55 1016.99 9.06 12.51 8.2 5.61 13.81 5.61 62.56 30.63 17.69 11.65 17.69 20.28 9.92 17.26 12.94 25.46 23.3 25.02 9.92 14.24 13.25 37.28 9.76 11.9 27.76 34.17 11.29 19.53 4.27 15.86v24.1l-.31 13.12M693.01 183.85l6.31-7.45 15.25-28.07 10.07-10.98 11.9-5.8 10.98-2.44 11.29-1.22 31.42-10.07" style="opacity:1;fill:none;fill-opacity:1;fill-rule:nonzero;stroke:#f15a29;stroke-width:1;stroke-linecap:butt;stroke-linejoin:round;stroke-miterlimit:4;stroke-dasharray:none;stroke-opacity:1"/><text x="89.45" y="206.96" xml:space="preserve" style="font-style:normal;font-weight:400;font-size:144px;font-family:Sans;-inkscape-font-specification:Sans;fill:#000;fill-opacity:1;stroke:none"><tspan x="89.45" y="206.96">2020</tspan></text></svg>