<?xml version="1.0" encoding="UTF-8" standalone="no"?>
<svg
   xmlns:dc="http://purl.org/dc/elements/1.1/"
   xmlns:cc="http://creativecommons.org/ns#"
   xmlns:rdf="http://www.w3.org/1999/02/22-rdf-syntax-ns#"
   xmlns:svg="http://www.w3.org/2000/svg"
   xmlns="http://www.w3.org/2000/svg"
   xmlns:xlink="http://www.w3.org/1999/xlink"
   viewBox="0 0 1800 1700"
   height="1700"
   width="1800"
   id="svg2"
   version="1.1">
  <metadata
     id="metadata8">
    <rdf:RDF>
      <cc:Work
         rdf:about="">
        <dc:format>image/svg+xml</dc:format>
        <dc:type
           rdf:resource="http://purl.org/dc/dcmitype/StillImage" />
        <dc:title></dc:title>
      </cc:Work>
    </rdf:RDF>
  </metadata>
  <defs
     id="defs6" />
  <image
     style="display:none"
     y="28"
     x="75"
     id="image10"
     xlink:href="file:///home/lexande/timelines/timelines/streetmap/../streetmap/pozosm.png"
     preserveAspectRatio="none"
     height="1647"
     width="1647" />
  <path
     id="path836"
     d="m 854.49534,911.2288 8.43734,-8.8209 2.3011,-8.0538 v -12.0807 l -3.6434,-8.4374 -4.9857,-10.5466 -0.76703,-5.561 3.06812,-9.2044 11.31371,-12.2725 3.25988,-5.9445 25.8873,-102.0151 1.91758,-20.9016 2.10933,-71.1421 -1.72582,-37.77633 5.17746,-22.43566 4.60219,-59.82842 -3.06812,-61.36249 -4.21868,-138.83263 -1.91757,-32.2153 -6.32801,-23.39445 -10.35492,-34.89992 -3.83515,-21.47687 -0.76704,-19.55929 v -32.59882 l 1.72582,-41.99495"
     style="opacity:1;fill:none;fill-opacity:1;fill-rule:nonzero;stroke:#00a0d8;stroke-width:5;stroke-linecap:butt;stroke-linejoin:round;stroke-miterlimit:4;stroke-dasharray:none;stroke-opacity:1" />
  <path
     id="path838"
     d="m 859.09753,906.6266 -5.56098,17.2582 -5.94449,31.2565 -0.76703,10.7385 -20.9016,81.8805 -6.71152,18.0253 -6.13625,27.6131 -7.86207,9.0126 -4.60218,-1.5341 -10.16316,-17.2582"
     style="opacity:1;fill:none;fill-opacity:1;fill-rule:nonzero;stroke:#00a0d8;stroke-width:5;stroke-linecap:butt;stroke-linejoin:round;stroke-miterlimit:4;stroke-dasharray:none;stroke-opacity:1" />
  <path
     id="path840"
     d="m 790.44825,1083.619 -4.21867,0.1918 -27.42137,27.8049 -8.82085,10.9302 -67.88225,102.0151 -16.10766,23.3944 -34.13288,52.1582 -19.55929,25.6955 -14.76535,15.5324 -25.69554,21.4768 -28.57191,23.778"
     style="opacity:1;fill:none;fill-opacity:1;fill-rule:nonzero;stroke:#00a0d8;stroke-width:1;stroke-linecap:butt;stroke-linejoin:round;stroke-miterlimit:4;stroke-dasharray:none;stroke-opacity:1" />
  <path
     id="path842"
     d="m 790.44825,1083.619 0.19175,-3.2599 17.2582,-15.1488 10.9302,-12.4643 3.45164,-10.5466 2.68461,-1.7259 39.11858,7.8621 54.84272,19.5593 14.76535,5.1775 17.2582,13.9983 7.2868,3.4516 107.1926,19.7511 28.5719,9.9714 96.0706,38.9268 2.1094,4.2187 -26.6544,71.3339 -6.7115,26.4625 -19.3675,65.7729 -7.095,23.5863 -5.3693,37.5845 -6.9032,30.873 -7.4786,15.7241 -48.323,72.2927 -32.7905,51.9663 -6.5198,9.2044 -6.1362,11.889"
     style="opacity:1;fill:none;fill-opacity:1;fill-rule:nonzero;stroke:#00a0d8;stroke-width:1;stroke-linecap:butt;stroke-linejoin:round;stroke-miterlimit:4;stroke-dasharray:none;stroke-opacity:1" />
  <path
     id="path844"
     d="m 854.49534,911.2288 -3.35974,6.0763 -10.57628,41.4915 -1.8983,13.017 -1.62712,13.2881 -2.44068,8.1356 -5.15254,1.3559 -31.45763,-4.0678 -35.25423,4.339 -20.0678,6.5085 -104.40678,47.4576 -21.15254,5.4237 -19.25424,11.6611 -110.64407,48.5423 -122.0339,52.0678 -24.67796,33.0848 -14.37289,14.9152 -22.23728,20.0678 -20.61017,16.8136 -17.08475,11.1186 -22.23729,11.661 -9.49152,-1.0847"
     style="opacity:1;fill:none;fill-opacity:1;fill-rule:nonzero;stroke:#00a0d8;stroke-width:1;stroke-linecap:butt;stroke-linejoin:round;stroke-miterlimit:4;stroke-dasharray:none;stroke-opacity:1" />
  <path
     id="path846"
     d="m 847.61017,930.4576 1.08475,2.7119 58.71186,20.2034 14.64407,10.1695 3.25424,1.4915 16.40678,-15.1864 11.11864,-6.2373 40.81356,-6.9153 11.93223,4.8814 3.661,-1.4916 4.2034,-14.3728 4.7457,-2.7119 9.4916,3.1186 10.0339,-1.0847 11.9322,-2.7119 11.1186,2.3051 15.5932,4.8814 10.7119,-1.8983 13.6949,2.8474 6.3729,3.7966 13.8305,7.1865 7.8644,2.0339 13.017,-0.8136 39.8644,-5.5593 32.2712,-6.1017 9.3559,1.3559 18.7119,5.5594 6.9152,1.2203 2.4407,3.9322 -10.0339,19.5254 -12.0678,28.0678 -2.5763,12.2034 -1.0847,12.8814 3.3898,16.4067 2.5763,12.339 0.2712,10.4407 -3.1187,12.2034 -14.5085,31.7288 -1.0847,4.2034 3.2542,3.661 70.5085,24.9492 16,8.6779"
     style="opacity:1;fill:none;fill-opacity:1;fill-rule:nonzero;stroke:#00a0d8;stroke-width:1;stroke-linecap:butt;stroke-linejoin:round;stroke-miterlimit:4;stroke-dasharray:none;stroke-opacity:1" />
  <path
     id="path848"
     d="m 1302.9322,1140.3559 13.3159,12.2959 18.4087,20.5181 30.4895,24.9285 15.5324,8.4374 11.3137,4.7939 26.079,8.2456 16.1077,10.7384 16.6829,20.3264 15.9159,16.4911 15.7241,11.889 17.6418,9.0126 18.2169,9.5879 11.3138,9.5879 11.8889,15.7241 24.9285,38.1598"
     style="opacity:1;fill:none;fill-opacity:1;fill-rule:nonzero;stroke:#00a0d8;stroke-width:5;stroke-linecap:butt;stroke-linejoin:round;stroke-miterlimit:4;stroke-dasharray:none;stroke-opacity:1" />
  <path
     id="path850"
     d="m 1566.4919,1361.0925 13.4231,21.0934 6.9033,12.8478 3.0681,2.8763 h 4.7939 l 6.328,-3.4516 41.0362,-32.7906 5.9445,-1.1505 4.9857,-0.1918 6.7115,2.1093 5.9445,5.9445 10.9302,13.6148 -0.1917,4.2187 -8.2456,4.0269 -2.6846,-1.1505 -8.6292,-20.3264 -0.767,-4.4104 -3.0681,-4.0269"
     style="opacity:1;fill:none;fill-opacity:1;fill-rule:nonzero;stroke:#00a0d8;stroke-width:1;stroke-linecap:butt;stroke-linejoin:round;stroke-miterlimit:4;stroke-dasharray:none;stroke-opacity:1" />
  <path
     id="path852"
     d="m 1466.7779,1267.1312 -10.6254,2.4451 -16.5423,27.3898 -10.0339,10.8475 -23.0509,11.3898"
     style="opacity:1;fill:none;fill-opacity:1;fill-rule:nonzero;stroke:#00a0d8;stroke-width:5;stroke-linecap:butt;stroke-linejoin:round;stroke-miterlimit:4;stroke-dasharray:none;stroke-opacity:1" />
  <path
     id="path854"
     d="m 1406.5254,1319.2034 -18.1695,11.3898 -15.4576,13.017 -7.322,15.1864 -19.5254,26.0339 -18.4407,16.5424 -14.6441,8.9491 -16.5424,6.7797 -18.7118,6.2373 -9.7627,4.339 -8.4068,6.7796 -13.8305,18.4407 -4.0678,1.8983 h -5.9661 l -18.1695,-7.0508 -72.4068,-39.0509 -48.2712,-22.5085 -24.1356,-9.2203 -77.5593,-17.0848 -117.69492,-23.322 -13.28814,-6.5085 -20.88135,-15.1864 -11.9322,-5.4237 -11.93221,-2.4407 -22.23729,0.2712 -18.98305,-2.7119 -24.67796,-9.2203 -79.72882,-45.2882 -79.18644,-46.1016 -1.8983,-4.6102 12.74576,-40.1356 16,-64.2712 -2.98305,-37.1525 -3.79661,-2.1695"
     style="opacity:1;fill:none;fill-opacity:1;fill-rule:nonzero;stroke:#00a0d8;stroke-width:1;stroke-linecap:butt;stroke-linejoin:round;stroke-miterlimit:4;stroke-dasharray:none;stroke-opacity:1" />
  <path
     id="path856"
     d="m 243.94915,1274.1864 -99.79661,52.0678 -41.49152,24.1356"
     style="opacity:1;fill:none;fill-opacity:1;fill-rule:nonzero;stroke:#00a0d8;stroke-width:1;stroke-linecap:butt;stroke-linejoin:round;stroke-miterlimit:4;stroke-dasharray:none;stroke-opacity:1" />
  <path
     id="path858"
     d="m 1216.4237,1106.7288 -3.7248,1.2435 -18.217,49.4735 -4.4105,1.7258"
     style="opacity:1;fill:none;fill-opacity:1;fill-rule:nonzero;stroke:#00a0d8;stroke-width:1;stroke-linecap:butt;stroke-linejoin:round;stroke-miterlimit:4;stroke-dasharray:none;stroke-opacity:1" />
  <path
     id="path860"
     d="m 824.96465,1040.4735 -1.08329,-2.2193 8.94915,-39.0508 1.76271,-5.9661"
     style="opacity:1;fill:none;fill-opacity:1;fill-rule:nonzero;stroke:#00a0d8;stroke-width:1;stroke-linecap:butt;stroke-linejoin:round;stroke-miterlimit:4;stroke-dasharray:none;stroke-opacity:1" />
  <path
     id="path862"
     d="m 846.52543,934.9322 -2.44068,-3.2542 -204.47458,-74.7119 -77.15254,-27.5254 -5.01695,2.0339 -1.89831,5.0169 1.35594,3.2543 10.84745,5.5593 3.11865,-1.2204 4.61017,-6.7796 5.42373,-1.4915"
     style="opacity:1;fill:none;fill-opacity:1;fill-rule:nonzero;stroke:#00a0d8;stroke-width:1;stroke-linecap:butt;stroke-linejoin:round;stroke-miterlimit:4;stroke-dasharray:none;stroke-opacity:1" />
  <text
     x="89.453133"
     y="206.96094"
     id="text2995"
     xml:space="preserve"
     style="font-style:normal;font-weight:normal;font-size:143.99990845px;line-height:125%;font-family:Sans;-inkscape-font-specification:Sans;letter-spacing:0px;word-spacing:0px;fill:#000000;fill-opacity:1;stroke:none"><tspan
       x="89.453133"
       y="206.96094"
       id="tspan1">2020</tspan></text>
</svg>
