<?xml version="1.0" encoding="UTF-8" standalone="no"?>
<svg
   viewBox="35 -1940 5400 5350"
   id="svg2"
   height="5350"
   width="5400"
   version="1.1"
   xmlns:xlink="http://www.w3.org/1999/xlink"
   xmlns="http://www.w3.org/2000/svg"
   xmlns:svg="http://www.w3.org/2000/svg"
   xmlns:rdf="http://www.w3.org/1999/02/22-rdf-syntax-ns#"
   xmlns:cc="http://creativecommons.org/ns#"
   xmlns:dc="http://purl.org/dc/elements/1.1/">
  <metadata
     id="metadata25">
    <rdf:RDF>
      <cc:Work
         rdf:about="">
        <dc:format>image/svg+xml</dc:format>
        <dc:type
           rdf:resource="http://purl.org/dc/dcmitype/StillImage" />
      </cc:Work>
    </rdf:RDF>
  </metadata>
  <defs
     id="defs6" />
  <image
     xlink:href="../../basemap/sfoosm.png"
     id="image12"
     height="12015"
     width="9078"
     y="-3040"
     x="-4.44e-16"
     style="display:none" />
  <path
     style="fill:none;stroke:#999999;stroke-width:3;stroke-linecap:butt;stroke-linejoin:round;stroke-miterlimit:4;stroke-opacity:1;stroke-dasharray:none"
     id="path3897"
     d="m 1431,1868.5 -1,-207.5 0.5,-25 7.5,-32.5 40.5,-142.5 14.5,-51 9.5,-83.5 20,-176 15.5,-137.5 4.5,-35.5 5.5,-44 -6,-109.5 -1.5,-18 -7,-21.5 -11.5,-18 -43.5,-41 -24.5,-26.5 -5.5,-12 4.5,-13 7.5,-10 54.5,-55 26.98,-26.88" />
  <path
     style="fill:none;stroke:#ff0000;stroke-width:3;stroke-linecap:butt;stroke-linejoin:round;stroke-miterlimit:4;stroke-opacity:1;stroke-dasharray:none"
     id="path3592"
     d="m 654.5,1152.5 -5,2.5 -9.5,-6.5 -9,-2.5 -38,3 -4.5,-0.5 -2,-3.5 -1.5,-21 -2.5,-3.5 -152,8 -246.5,14 -2.5,3.5 4,80 -2,3 -8,0.5 -2.5,-2.5 -1.5,-23.5 2.5,-3 7.5,-0.5 2,-2.5" />
  <path
     style="fill:none;stroke:#ff0000;stroke-width:3;stroke-linecap:butt;stroke-linejoin:round;stroke-miterlimit:4;stroke-opacity:1;stroke-dasharray:none"
     id="path3602"
     d="m 582,1247.5 -30,55 -8,20 -2.5,63 -2.5,88 4,13 37,47 23,29.5 6.5,2.5 78,-1 4,3.5 1,13 3.5,2 74.5,-0.7" />
  <path
     style="fill:none;stroke:#ff00ff;stroke-width:3;stroke-linecap:butt;stroke-linejoin:round;stroke-miterlimit:4;stroke-dasharray:none;stroke-opacity:1"
     id="path2818"
     d="m 1013.88,828.88 -7.38,3.62 -22.5,5 -14,6.5 -28.5,21.5 -137,122.5 -35,29.5 -38,36.5 -25,25.5 -29.5,42.5 -23.5,31.5" />
  <text
     style="font-size:144.0px;font-style:normal;font-weight:normal;fill:#000000;fill-opacity:1;stroke:none;font-family:Sans;-inkscape-font-specification:Sans"
     xml:space="preserve"
     id="text3639-3"
     y="-1733.04"
     x="124.45"><tspan
       id="tspan3641-3"
       y="-1733.04"
       x="124.45">1965</tspan></text>
  <path
     style="fill:none;stroke:#330000;stroke-width:3;stroke-linecap:butt;stroke-linejoin:round;stroke-miterlimit:4;stroke-opacity:1;stroke-dasharray:none"
     id="path3776"
     d="m 1232,329 3.5,2 94,-15.25 3.25,2 1.75,12.5" />
  <path
     style="fill:none;stroke:#330000;stroke-width:3;stroke-linecap:butt;stroke-linejoin:round;stroke-miterlimit:4;stroke-opacity:1;stroke-dasharray:none"
     id="path3778"
     d="m 1311.75,315.25 3.5,2.75" />
  <path
     style="fill:none;stroke:#ff0000;stroke-width:3;stroke-linecap:butt;stroke-linejoin:round;stroke-miterlimit:4;stroke-opacity:1;stroke-dasharray:none"
     id="path3782"
     d="m 125.0,858.0 521,-28.5 1.5,-3 -0.5,-23 3,-3 100,-6.5 2.5,-6 98.5,-15.5 2,-2.25 4.32,-5.11 3.71,-1.32" />
  <path
     style="fill:none;stroke:#ff00ff;stroke-width:3;stroke-linecap:butt;stroke-linejoin:round;stroke-miterlimit:4;stroke-opacity:1;stroke-dasharray:none"
     id="path3784"
     d="m 1033.49,720.64 -20.49,4.36 -151.98,38.81" />
  <path
     style="fill:none;stroke:#00dd00;stroke-width:3;stroke-linecap:butt;stroke-linejoin:round;stroke-miterlimit:4;stroke-opacity:1;stroke-dasharray:none"
     id="path3786"
     d="m 1438.34,339.31 54.01,-8.98 1.77,-2.47 -1.77,-8.13 -3.18,-2.12 -71.78,11.96" />
  <path
     style="fill:none;stroke:#00dd00;stroke-width:3;stroke-linecap:butt;stroke-linejoin:round;stroke-miterlimit:4;stroke-opacity:1;stroke-dasharray:none"
     id="path3788"
     d="m 880.35,444.18 2.83,-4.6 -1.41,-7.78 -5.3,-38.89 4.95,-5.3 147.84,-23.36 3.83,2.85 14.14,90.51 5.3,3.18 387.63,-61.88 4.97,-4.79 -0.62,-8.67 -3.83,-2.52 -33.66,6.43 -2.71,3.89 3.18,20.51 -3.54,5.66 L 1115,465.5 l -5,-2 -1,-7.5 -4,-2.5" />
  <path
     style="fill:none;stroke:#00dd00;stroke-width:3;stroke-linecap:butt;stroke-linejoin:round;stroke-miterlimit:4;stroke-opacity:1;stroke-dasharray:none"
     id="path3790"
     d="m 866.25,446.25 -3.25,-2.5 -1,-8.25 3.5,-3.5 11.5,-2 3.88,-4.13" />
  <path
     style="fill:none;stroke:#00dd00;stroke-width:3;stroke-linecap:butt;stroke-linejoin:round;stroke-miterlimit:4;stroke-opacity:1;stroke-dasharray:none"
     id="path3792"
     d="m 114.2,632.62 1.77,52.33 2.47,2.12 469.87,-26.52 62.23,-3.18 255.97,-39.6 1.77,-3.54 -1.06,-8.84 3.18,-4.24 L 1230.01,550.24 1299,540.25 l 6.25,-6 58,-57.25 77.75,-79" />
  <path
     style="fill:none;stroke:#00dd00;stroke-width:3;stroke-linecap:butt;stroke-linejoin:round;stroke-miterlimit:4;stroke-opacity:1;stroke-dasharray:none"
     id="path3796"
     d="m 1262.75,545.25 3.5,2.25 2.25,18.5 1,1.25 2.25,-0.5 28,-27" />
  <path
     style="fill:none;stroke:#00dd00;stroke-width:3;stroke-linecap:butt;stroke-linejoin:round;stroke-miterlimit:4;stroke-opacity:1;stroke-dasharray:none"
     id="path3798"
     d="m 1467.78,372.05 27.75,-27.22 12.9,-10.61 6.46,-5.15 5.09,-3.28 4.77,0.84 14.86,15.98 -0.56,4.49 -10.37,11.21" />
  <path
     style="fill:none;stroke:#00dd00;stroke-width:3;stroke-linecap:butt;stroke-linejoin:round;stroke-miterlimit:4;stroke-opacity:1;stroke-dasharray:none"
     id="path3800"
     d="m 1271.5,566.5 -95.25,95.75 -150,22.5 -121.5,20.5 -2.25,3.75 5.75,34.75 -1.75,3.25 -36.5,6 -1.5,3 4,25 -2,3 -83.75,13.5 -12.25,3.25 -22.25,7.5 L 704,826 l -52,3 -3.75,4 7.75,136.5 -2.25,3.25 -8,0 -2.25,2.25 2.5,51.5 -2.25,4.25 -49.25,2.5" />
  <path
     style="fill:none;stroke:#00dd00;stroke-width:3;stroke-linecap:butt;stroke-linejoin:round;stroke-miterlimit:4;stroke-opacity:1;stroke-dasharray:none"
     id="path3802"
     d="m 1139.5,667.75 2.5,-4 -1.5,-8.75 3.25,-3 49.5,-7.75" />
  <path
     style="fill:none;stroke:#00dd00;stroke-width:3;stroke-linecap:butt;stroke-linejoin:round;stroke-miterlimit:4;stroke-opacity:1;stroke-dasharray:none"
     id="path3804"
     d="m 1510.75,376 -37.5,37.75 -218.75,219 -17.75,18 -8.5,12.75 -10.5,21.5 -5.25,19.75 -1,15.5 4.75,61.75 8,103.5 8.75,108 2,36.25 0.25,9.25 -4,15 -47.25,92.25 -14,20.25 -6.75,16.25 -3,17 -1,16 -8.5,25.75 -39.5,51.75 -40,51.75 -17.25,18.75 -47.5,80.25 -57.25,95.5 -9,13.75 -40.75,49.5 -41,27 -119.75,50.5 -24.5,9.5 -2.75,-2.5 1.25,-4 9.5,-10.5 5,0.75 5.25,5.25 6,1" />
  <path
     style="fill:none;stroke:#00dd00;stroke-width:3;stroke-linecap:butt;stroke-linejoin:round;stroke-miterlimit:4;stroke-opacity:1;stroke-dasharray:none"
     id="path3806"
     d="m 1510.75,376.25 14.5,-14.5 5.5,-6 -0.4,-5.24 -8.21,-8.42 0.97,-3.1 3.6,-4.23 3.92,-0.28" />
  <path
     style="fill:none;stroke:#00dd00;stroke-width:3;stroke-linecap:butt;stroke-linejoin:round;stroke-miterlimit:4;stroke-opacity:1;stroke-dasharray:none"
     id="path3808"
     d="m 1236.75,651 -25.25,25.5 -2,5.25 1.75,36" />
  <path
     style="fill:none;stroke:#00dd00;stroke-width:3;stroke-linecap:butt;stroke-linejoin:round;stroke-miterlimit:4;stroke-dasharray:none;stroke-opacity:1"
     id="path3810"
     d="m 1246.5,591 -163,27.25 -288.75,45.25 -2,-1.5 -3.25,-22.25 -4.5,-3.25" />
  <path
     style="fill:none;stroke:#00dd00;stroke-width:3;stroke-linecap:butt;stroke-linejoin:round;stroke-miterlimit:4;stroke-opacity:1;stroke-dasharray:none"
     id="path3814"
     d="m 1131.25,610 1.75,-3 -1.25,-10.25 2.25,-2.25 95.25,-14.5 2.25,1 1.75,17.75 1.75,2 1.75,0" />
  <path
     style="fill:none;stroke:#00dd00;stroke-width:3;stroke-linecap:butt;stroke-linejoin:round;stroke-miterlimit:4;stroke-opacity:1;stroke-dasharray:none"
     id="path3816"
     d="m 997.5,152.25 22.75,137 -1.75,2.75 -15.75,2 -0.75,2.5 6.25,40.5 3,1.5 14,-2.25 3,1.75 4.5,29.25" />
  <path
     style="fill:none;stroke:#ff0000;stroke-width:3;stroke-linecap:butt;stroke-linejoin:round;stroke-miterlimit:4;stroke-dasharray:none;stroke-opacity:1"
     id="path3600"
     d="m 1033.49,720.64 6.51,-1.14 40.5,-0.5 24,-3" />
  <path
     style="fill:none;stroke:#00dd00;stroke-width:3;stroke-linecap:butt;stroke-linejoin:round;stroke-miterlimit:4;stroke-opacity:1;stroke-dasharray:none"
     id="path3822"
     d="m 1024.58,819.97 3.82,49.49" />
  <path
     style="fill:none;stroke:#00dd00;stroke-width:3;stroke-linecap:butt;stroke-linejoin:round;stroke-miterlimit:4;stroke-opacity:1;stroke-dasharray:none"
     id="path3826"
     d="m 1400.42,405.29 6.01,3.89" />
  <path
     style="fill:none;stroke:#00dd00;stroke-width:3;stroke-linecap:butt;stroke-linejoin:round;stroke-miterlimit:4;stroke-opacity:1;stroke-dasharray:none"
     id="path3830"
     d="m 1371.79,409.53 -5.3,-3.54" />
  <path
     style="fill:none;stroke:#00dd00;stroke-width:3;stroke-linecap:butt;stroke-linejoin:round;stroke-miterlimit:4;stroke-opacity:1;stroke-dasharray:none"
     id="path3846"
     d="m 1357.5,774.25 4,4.5 1,29.5 1.5,20.25 12.5,163.5 -2.75,3.75 -5.75,0.25 -2.75,-2.5 -1,-20 2.5,-2.25 5,-0.5 3.25,-3.75" />
  <path
     style="fill:none;stroke:#00dd00;stroke-width:3;stroke-linecap:butt;stroke-linejoin:round;stroke-miterlimit:4;stroke-opacity:1;stroke-dasharray:none"
     id="path3848"
     d="m 903.68,310.89 -3.54,-2.12 -3.89,-22.63 -2.83,-2.12 -12.37,2.12 -1.41,3.18 3.54,23.33 2.83,1.41 120.21,-20.51" />
  <path
     style="fill:none;stroke:#00dd00;stroke-width:3;stroke-linecap:butt;stroke-linejoin:round;stroke-miterlimit:4;stroke-opacity:1;stroke-dasharray:none"
     id="path3850"
     d="m 1018.23,292.15 250.32,-39.6 68.94,-11.31 3.54,2.83 2.12,13.44" />
  <path
     style="fill:none;stroke:#ff0000;stroke-width:3;stroke-linecap:butt;stroke-linejoin:round;stroke-miterlimit:4;stroke-opacity:1;stroke-dasharray:none"
     id="path3594"
     d="m 655,1150.5 -8,15 -15,17 -24.5,24.5 -14.5,18.5 -10,22 -1.5,14 -1.5,44 3.5,5 32,16 8,9.5 11.5,23.5 18.5,16.5 26.5,13.5 31.5,13 71,18.5 10.07,2.74 3.56,-5.25 10.66,0.03" />
  <path
     style="fill:none;stroke:#00dd00;stroke-width:3;stroke-linecap:butt;stroke-linejoin:round;stroke-miterlimit:4;stroke-opacity:1;stroke-dasharray:none"
     id="path3165"
     d="m 1493.91,328.32 1.12,17.1" />
  <path
     style="fill:none;stroke:#00dd00;stroke-width:3;stroke-linecap:butt;stroke-linejoin:round;stroke-miterlimit:4;stroke-opacity:1;stroke-dasharray:none"
     id="path3935"
     d="m 1509.75,369.5 20.5,19.75 0.5,4.25 -6.25,6.25 -167,167.5 -98.5,99 -11.75,16.25 -9.25,20.5 -2.25,31 22.25,292.25 -3.5,3.5 -14.5,1 -4.5,-2.5" />
  <path
     style="fill:none;stroke:#00dd00;stroke-width:3;stroke-linecap:butt;stroke-linejoin:round;stroke-miterlimit:4;stroke-opacity:1;stroke-dasharray:none"
     id="path3811"
     d="m 1029.25,868.5 -4.75,5 -7,0.25 -2,-2.75 -1.25,-17.75 2.5,-3" />
  <path
     style="fill:none;stroke:#00dd00;stroke-width:3;stroke-linecap:butt;stroke-linejoin:round;stroke-miterlimit:4;stroke-opacity:1;stroke-dasharray:none"
     id="path3813"
     d="m 1022.75,849 3.25,-4.5" />
  <path
     style="fill:none;stroke:#ff0000;stroke-width:3;stroke-linecap:butt;stroke-linejoin:round;stroke-miterlimit:4;stroke-opacity:1;stroke-dasharray:none"
     id="path3596"
     d="m 1130,1134.5 -14,-193.5 4.5,-6.5 -0.5,-10.5 5,-5.5 0,-17.5 -2.5,-2.5 -5,-1 -3.5,-3.5 -2.5,-43 -5,-10.5 -2.5,-55 -2.79,-35.98 2.09,-10.58" />
  <path
     style="fill:none;stroke:#00dd00;stroke-width:3;stroke-linecap:butt;stroke-linejoin:round;stroke-miterlimit:4;stroke-opacity:1;stroke-dasharray:none"
     id="path4553"
     d="m 1052.53,460.8 -125.78,19.95 -33.75,5.75 -2.25,-1.5 -6.5,-37 -3.75,-3.25" />
  <path
     style="fill:none;stroke:#00dd00;stroke-width:3;stroke-linecap:butt;stroke-linejoin:round;stroke-miterlimit:4;stroke-opacity:1;stroke-dasharray:none"
     id="path4557"
     d="m 906,704.75 -27,4.75" />
  <path
     style="fill:none;stroke:#00dd00;stroke-width:3;stroke-linecap:butt;stroke-linejoin:round;stroke-miterlimit:4;stroke-opacity:1;stroke-dasharray:none"
     id="path4559"
     d="m 805.5,721 -3.25,4.5 1.25,8.75 2.5,1.25 16.75,-2.5 1.75,-2.25 -1.75,-9.25 3.25,-3.5" />
  <path
     style="fill:none;stroke:#00dd00;stroke-width:3;stroke-linecap:butt;stroke-linejoin:round;stroke-miterlimit:4;stroke-opacity:1;stroke-dasharray:none"
     id="path4663"
     d="m 1343.25,256 69,61 1.5,8.75 4.5,3.75" />
  <path
     style="fill:none;stroke:#00dd00;stroke-width:3;stroke-linecap:butt;stroke-linejoin:round;stroke-miterlimit:4;stroke-opacity:1;stroke-dasharray:none"
     id="path4665"
     d="m 1412.25,316.75 17,-2.75 3.25,3.25 2.75,18.5 4.25,3.25" />
  <path
     style="fill:none;stroke:#00dd00;stroke-width:3;stroke-linecap:butt;stroke-linejoin:round;stroke-miterlimit:4;stroke-opacity:1;stroke-dasharray:none"
     id="path4921"
     d="m 329.16,526.2 -3.54,2.83 -6.01,0 -1.77,3.89 0.71,22.63 2.83,2.47 7.78,-0.71 2.83,-3.89 -3.18,-50.2 3.54,-2.83 264.81,-14.14 48.08,-3.54 96.87,-16.26 138.28,-22.0" />
  <path
     style="fill:none;stroke:#00dd00;stroke-width:3;stroke-linecap:butt;stroke-linejoin:round;stroke-miterlimit:4;stroke-opacity:1;stroke-dasharray:none"
     id="path4923"
     d="m 822.75,732.75 57.75,-9 3,2.5" />
  <path
     style="fill:none;stroke:#00dd00;stroke-width:3;stroke-linecap:butt;stroke-linejoin:round;stroke-miterlimit:4;stroke-opacity:1;stroke-dasharray:none"
     id="path4994"
     d="m 1155.75,1228 4,3.5 86.5,5.5 1.75,2 -0.25,7.25 -2.25,1.75 -36,-1.75 -2,-1.5 -0.25,-6.5 -2,-4.25" />
  <path
     style="fill:none;stroke:#00dd00;stroke-width:3;stroke-linecap:butt;stroke-linejoin:round;stroke-miterlimit:4;stroke-opacity:1;stroke-dasharray:none"
     id="path3852"
     d="m 1143.74,161.34 1.41,12.02" />
  <path
     style="fill:none;stroke:#00dd00;stroke-width:3;stroke-linecap:butt;stroke-linejoin:round;stroke-miterlimit:4;stroke-opacity:1;stroke-dasharray:none"
     id="path7244"
     d="m 1491.75,348 -0.5,4.5 19.5,18.5" />
  <path
     style="fill:none;stroke:#00dd00;stroke-width:3;stroke-linecap:butt;stroke-linejoin:round;stroke-miterlimit:4;stroke-opacity:1;stroke-dasharray:none"
     id="path7342"
     d="m 1474.29,321.03 3.92,3.08 3.64,34.76 5.05,8.69 12.62,11.77 19.64,20.15 -0.41,5.26" />
  <path
     style="fill:none;stroke:#00dd00;stroke-width:3;stroke-linecap:butt;stroke-linejoin:round;stroke-miterlimit:4;stroke-opacity:1;stroke-dasharray:none"
     id="path7344"
     d="m 1233.75,1009 3.5,-3 15.25,-1 3.25,-3.25" />
  <path
     style="fill:none;stroke:#00dd00;stroke-width:3;stroke-linecap:butt;stroke-linejoin:round;stroke-miterlimit:4;stroke-dasharray:none;stroke-opacity:1"
     id="path3267"
     d="m 1214.5,835 24.0,-2 4,-4" />
  <path
     style="fill:none;stroke:#00dd00;stroke-width:3;stroke-linecap:butt;stroke-linejoin:round;stroke-miterlimit:4;stroke-opacity:1;stroke-dasharray:none"
     id="path4037"
     d="m 1238.0,833.25 28,-1.75 3,-3.5 -3.25,-51.25 0,0" />
  <path
     style="fill:none;stroke:#00dd00;stroke-width:3;stroke-linecap:butt;stroke-linejoin:round;stroke-miterlimit:4;stroke-dasharray:none;stroke-opacity:1"
     id="path4039"
     d="m 1265.75,776.75 -3,-41.75 3.5,-4 20.75,-0.75 2.25,-2.5 0.5,-10.5 4.25,-11 23,-24.25 106.25,-105 30,-30 0.25,-5.5" />
  <path
     style="fill:none;stroke:#00dd00;stroke-width:3;stroke-linecap:butt;stroke-linejoin:round;stroke-miterlimit:4;stroke-opacity:1;stroke-dasharray:none"
     id="path4041"
     d="m 1423.0,510.25 -8.5,-0.25" />
  <path
     style="fill:none;stroke:#ff0000;stroke-width:3;stroke-linecap:butt;stroke-linejoin:round;stroke-miterlimit:4;stroke-opacity:1;stroke-dasharray:none"
     id="path3770"
     d="m 1460.75,384.5 3.5,-0.25 22.5,22 3.5,-0.25 3.75,-4 1,-2.75 -22.61,-23.11 -4.26,-0.52 -27.87,27.63 -47.5,47.75 -61.25,62 -57.25,55.25 -59,59.25 -49.25,49.75 -36.58,36.42 L 1127.5,715.5 1096.97,746.24 1030.75,814.5 l -9.5,10.5 -7.38,3.88" />
  <path
     style="fill:none;stroke:#ff0000;stroke-width:3;stroke-linecap:butt;stroke-linejoin:round;stroke-miterlimit:4;stroke-opacity:1;stroke-dasharray:none"
     id="path3598"
     d="M 1128.75,714.75 1103,716" />
  <path
     style="fill:none;stroke:#00dd00;stroke-width:3;stroke-linecap:butt;stroke-linejoin:round;stroke-miterlimit:4;stroke-opacity:1;stroke-dasharray:none"
     id="path3131"
     d="M 805,721.25 879.5,709.5" />
  <path
     style="fill:none;stroke:#00dd00;stroke-width:3;stroke-linecap:butt;stroke-linejoin:round;stroke-miterlimit:4;stroke-opacity:1;stroke-dasharray:none"
     id="path3152"
     d="m 819,719 3.25,2.75" />
  <path
     style="fill:none;stroke:#00dd00;stroke-width:3;stroke-linecap:butt;stroke-linejoin:round;stroke-miterlimit:4;stroke-dasharray:none;stroke-opacity:1"
     d="m 645.29,482.64 -3.18,4.46 0.96,21.01 2.87,1.91 21.01,-0.32 2.23,1.91"
     id="path4720" />
  <path
     style="fill:none;stroke:#00dd00;stroke-width:3;stroke-linecap:butt;stroke-linejoin:round;stroke-miterlimit:4;stroke-dasharray:none;stroke-opacity:1"
     d="m 681.58,652.95 -4.14,-3.5 -9.55,-167.45 -3.82,-2.55"
     id="path3275" />
  <path
     style="fill:none;stroke:#00dd00;stroke-width:3;stroke-linecap:butt;stroke-linejoin:round;stroke-miterlimit:4;stroke-opacity:1;stroke-dasharray:none"
     id="path3854"
     d="m 1150.46,207.65 23.33,143.9 40.66,255.27 10.96,49.85 5.4,1.48" />
  <path
     style="opacity:1;fill:none;fill-opacity:1;fill-rule:nonzero;stroke:#999999;stroke-width:3;stroke-linecap:butt;stroke-linejoin:round;stroke-miterlimit:4;stroke-dasharray:none;stroke-opacity:1"
     d="m 1431.0,1868.5 6.59,44.39 19.52,52.88 40.46,58.91 69.2,103.98 9.58,26.62 2.84,35.84 -11.36,36.55 -19.87,30.52 -163.6,215.41 -54.3,75.94 -15.97,30.87 -11.0,26.26 -8.87,37.26 -2.13,37.97 2.84,130.59 2.02,14.37 2.24,11.1 26.94,56.05 22.53,42.31 60.83,115.12 31.87,52.07 21.06,28.1 36.78,48.81 48.68,59.17 46.68,58.12 26.09,32.65 32.12,39.9 12.67,9.91 23.59,14.05 276.28,146.8 57.71,29.61 201.75,107.4 50.44,26.85 17.82,14.05 21.33,16.31 10.29,12.3 188.95,216.56 17.57,23.34 9.54,20.33 24.59,64.24 11.54,22.08 82.81,120.7 26.1,37.14 31.37,44.67 30.11,36.64 66.5,57.71 171.64,166.37 151.06,155.83 28.86,33.12 172.39,188.2 28.86,28.1 42.16,33.12 89.08,70.26 142.78,113.92 37.39,29.11 173.65,139.02 226.59,181.17 88.83,67.5 47.93,40.9 82.06,69.51 18.07,14.05"
     id="path1508" />
  <path
     style="opacity:1;fill:none;fill-opacity:1;fill-rule:nonzero;stroke:#999999;stroke-width:3;stroke-linecap:butt;stroke-linejoin:round;stroke-miterlimit:4;stroke-dasharray:none;stroke-opacity:1"
     d="m 2736.17,-3038.45 -32.04,34.58 -15.26,11.71 -19.52,4.97 -63.52,-5.32 -50.39,9.58 -13.49,-2.48 -46.49,-18.1 -21.29,0.71 -21.65,11.36 -51.46,56.07 -60.68,52.17 -38.33,29.45 -35.49,13.13 -37.26,-0.35 -42.58,-9.58 -60.33,-16.68 -32.29,-1.77 -34.42,6.39 -40.81,25.2 -24.49,32.29 -11.71,37.62 -4.97,40.1 -12.78,211.15 -22.71,317.26 -6.03,84.46 2.13,56.78 6.39,43.29 13.49,47.91 25.91,58.55 18.82,31.11 28.02,38.0 28.3,31.23 52.61,47.38 161.86,151.68 38.64,35.38 24.84,26.85 20.07,26.1 15.06,21.08 141.53,223.33 35.88,53.95 8.78,20.83 5.27,21.33 5.02,23.84 18.07,89.83 74.53,296.1 83.81,333.49 21.83,91.59 6.27,43.16 3.01,40.9 1.0,42.66 -2.01,43.16 -7.53,40.9 -13.05,47.43 -12.8,36.89 -15.56,28.36 -75.78,72.77 -40.37,33.82 -22.36,8.84 -12.17,2.01 -8.66,7.03 -4.01,11.54 1.76,12.8 7.47,13.61 58.27,47.87 22.08,16.56 25.09,14.05 178.41,54.2 171.89,84.31 33.12,11.79 40.15,11.79 88.08,17.31 48.43,12.55 39.65,14.8 23.59,9.79 50.44,29.36 31.87,22.33 56.46,49.68 98.11,85.07 112.17,98.37 75.28,64.99 27.85,27.6 153.07,169.38 221.07,243.41 6.78,14.55 1.25,13.3 -5.27,16.06 -68.76,133.75 -4.27,21.33 1.25,18.57 25.09,107.15 30.11,60.47 221.07,421.82 318.69,433.36 287.82,388.19 362.85,396.22 100.62,110.91 118.44,151.06 19.57,26.6 10.79,23.34 6.02,27.6 39.9,242.15 62.98,382.42 6.52,18.82"
     id="path1504" />
  <path
     style="opacity:1;fill:none;fill-opacity:1;fill-rule:nonzero;stroke:#999999;stroke-width:3;stroke-linecap:butt;stroke-linejoin:round;stroke-miterlimit:4;stroke-dasharray:none;stroke-opacity:1"
     d="m 1759.81,-1838.12 50.04,-69.2 99.01,-123.85 38.68,-47.2 7.81,-19.16 4.26,-26.62 12.42,-157.21 64.94,-309.45 -3.19,-24.49 -15.61,-78.78 1.42,-16.68 2.84,-13.13 10.29,-12.42 44.0,-38.68 17.39,-6.03 211.5,-55.36 181.34,-65.65 96.88,-69.91 18.1,-6.39 18.1,-2.48 75.94,0.71 69.56,24.49 24.84,0.35 40.46,-4.61 28.74,-7.45 23.78,-18.1 27.68,-22.36 14.55,-7.81 19.16,-2.48 70.26,4.26 46.49,-8.52 9.58,-0.35 14.55,5.32 27.68,16.32 15.97,5.32 13.13,-2.48 86.59,-24.84 12.78,-7.1 11.71,-12.07"
     id="path1621" />
  <path
     style="opacity:1;fill:none;fill-opacity:1;fill-rule:nonzero;stroke:#999999;stroke-width:3;stroke-linecap:butt;stroke-linejoin:round;stroke-miterlimit:4;stroke-dasharray:none;stroke-opacity:1"
     d="m 6791.56,3524.37 -15.97,9.94 -10.29,15.26 -6.39,19.16 5.32,44.0 -1.77,23.07 -14.55,25.91 -68.14,67.43 -22.0,16.68 -148.69,63.88 -20.23,4.97 -17.39,-5.68 -42.58,-37.26 -354.52,-342.1 -89.07,-98.65 -229.25,-248.06 -17.39,-23.07 -11.71,-27.68 -39.92,-105.93 -15.26,-37.44 -12.6,-28.39 -337.84,-544.2 -14.19,-18.28 -22.89,-20.94 -469.32,-410.77 -96.17,-84.28 -321.34,-276.8 -12.24,-13.13 -18.28,-15.44 -10.47,-19.16 -25.37,-53.05 -13.49,-25.55 -128.46,-137.16 -153.84,-162.35 -208.49,-220.2 -95.82,-100.78 -11.18,-12.6 -25.37,-35.13 -13.66,-13.84 -13.84,-11.71 -48.62,-29.99 -54.47,-39.92 -26.79,-17.39 -38.86,-26.62 -40.28,-40.1 -65.3,-47.91 -39.92,-25.55 -51.28,-29.81 -44.36,-22.89 -144.08,-36.02 -20.23,-7.1 -30.52,-13.66 -196.07,-97.41 -31.76,-8.34 -10.29,1.95 -16.32,8.52 -17.21,10.11 -13.84,3.37"
     id="path7240" />
  <path
     style="fill:#002683;fill-opacity:0;fill-rule:nonzero;stroke:#00dd00;stroke-width:3;stroke-linecap:butt;stroke-linejoin:round;stroke-miterlimit:4;stroke-dasharray:none;stroke-opacity:1"
     d="m 1241.75,645.25 5.75,0.25 15.57,16.12 57.0,55.12 4.39,55.97 3.7,3.49"
     id="path7434" />
  <path
     d="m 1024.95,1411.15 -9.55,5.3 -98.99,11.67 -90.16,0.35 -8.13,-1.06 -12.04,-3.55 -0.11,-5.34"
     id="path3856"
     style="fill:none;stroke:#00dd00;stroke-width:3;stroke-linecap:butt;stroke-linejoin:round;stroke-miterlimit:4;stroke-opacity:1;stroke-dasharray:none" />
  <path
     style="fill:none;stroke:#00dd00;stroke-width:3;stroke-linecap:butt;stroke-linejoin:round;stroke-miterlimit:4;stroke-opacity:1;stroke-dasharray:none"
     id="path3818"
     d="m 1047.23,457.61 24.4,150.97 14.85,94.4 3.89,1.77 7.07,-1.41 3.18,2.83 1.66,19.34 2.22,25.91 1.41,20.86 1.33,18.97 2,1.75 296,-22.75 3,3.75 1,14 3,1.75 65.25,-5.25 2.5,2.75 2.5,33.5 3.75,2.5 98.5,-6.25 2,2.5 0.75,32.25 -0.25,1 -1.75,3 -4.5,0 -1.5,-2.25 -2,-33.25 -2.75,-2.5" />
  <path
     style="fill:none;stroke:#00dd00;stroke-width:3;stroke-linecap:butt;stroke-linejoin:round;stroke-miterlimit:4;stroke-opacity:1;stroke-dasharray:none"
     id="path3794"
     d="m 1444.25,395 12,-11.75 3.5,0.5 26.5,26 4.75,-0.75 6.25,-6 0.25,-4.5 -26.25,-26 -3.75,-0.25 -12.75,12.75" />
  <path
     style="fill:none;stroke:#00dd00;stroke-width:3;stroke-linecap:butt;stroke-linejoin:round;stroke-miterlimit:4;stroke-opacity:1;stroke-dasharray:none"
     id="path3828"
     d="m 1407.14,412.71 1.77,15.91 1.77,12.73 35.36,36.06 92.28,93.69 -0.71,3.54 -22.27,23.69 -3.89,0 -78.14,-77.43 -55.86,-57.98 -2.47,-6.72 -10.61,-66.11 -20.86,-134.0 -51.27,-41.01 -50.91,-45.25 -14.14,-14.5 -79.55,12.73 -2.83,3.54 6.01,36.77 -2.47,4.95 -216.37,34.29 -18.03,2.83 -2.83,-2.12 -10.25,-64.7 2.83,-4.6 14.5,-2.12 2.83,2.83 9.55,62.23 4.95,4.95" />
  <path
     style="fill:none;stroke:#00dd00;stroke-width:3;stroke-linecap:butt;stroke-linejoin:round;stroke-miterlimit:4;stroke-opacity:1;stroke-dasharray:none"
     id="path3842"
     d="M 884.53,725.44 895.25,791 l -1,6 -7,9.5 -4.5,9.5 -1,9.25 2,11.5 4,9 1.75,7.5 -1,21 0,6.25 4.75,1.25 10.5,5 5.25,1.75 2.25,-0.75 0.5,-2.25 -2.75,-5.75 0.75,-8.75 6.25,-8.25 10.5,-6.75 11.5,-0.5 101.5,-7.5 175,-13" />
  <path
     style="fill:none;stroke:#330000;stroke-width:3;stroke-linecap:butt;stroke-linejoin:round;stroke-miterlimit:4;stroke-opacity:1;stroke-dasharray:none"
     id="path3774"
     d="m 1195,139.5 7.75,6.25 31.25,196.75 3.5,2 94.75,-15.75 2.25,1.5 24.5,152.25" />
  <path
     style="fill:none;stroke:#330000;stroke-width:3;stroke-linecap:butt;stroke-linejoin:round;stroke-miterlimit:4;stroke-opacity:1;stroke-dasharray:none"
     id="path3772"
     d="m 1267.5,167.25 3.75,25 24,21.25 18.5,116.25 2.5,1.75" />
  <path
     style="fill:none;stroke:#330000;stroke-width:3;stroke-linecap:butt;stroke-linejoin:round;stroke-miterlimit:4;stroke-opacity:1;stroke-dasharray:none"
     id="path3780"
     d="m 1496,344.75 -311,50.5" />
  <path
     style="fill:none;stroke:#00dd00;stroke-width:3;stroke-linecap:butt;stroke-linejoin:round;stroke-miterlimit:4;stroke-opacity:1;stroke-dasharray:none"
     id="path3041"
     d="m 1176.5,661.75 -91.75,92.25 -55.75,58 -4.75,8.75" />
</svg>
