<?xml version="1.0" encoding="UTF-8" standalone="no"?>
<svg
   xmlns:dc="http://purl.org/dc/elements/1.1/"
   xmlns:cc="http://creativecommons.org/ns#"
   xmlns:rdf="http://www.w3.org/1999/02/22-rdf-syntax-ns#"
   xmlns:svg="http://www.w3.org/2000/svg"
   xmlns="http://www.w3.org/2000/svg"
   xmlns:xlink="http://www.w3.org/1999/xlink"
   version="1.1"
   viewBox="0 0 5500 3700"
   width="5500"
   height="3700"
   id="svg2">
  <metadata
     id="metadata8">
    <rdf:RDF>
      <cc:Work
         rdf:about="">
        <dc:format>image/svg+xml</dc:format>
        <dc:type
           rdf:resource="http://purl.org/dc/dcmitype/StillImage" />
        <dc:title></dc:title>
      </cc:Work>
    </rdf:RDF>
  </metadata>
  <defs
     id="defs6" />
  <image
     xlink:href="../streetmap/yowosm.png"
     id="image10"
     height="4266"
     width="5214"
     y="-66"
     x="-100"
     style="display:none" />
  <path
     style="fill:none;stroke:#0070c1;stroke-width:1;stroke-linecap:butt;stroke-linejoin:round;stroke-miterlimit:4;stroke-dasharray:none;stroke-opacity:1"
     d="M 3395.9454,1252.1308 3477.5,1457 l 33.5,82 7,10"
     id="path3757" />
  <path
     d="m 2867,1385 -14,-0.25 -18,10.75 -22,9.5 -49,29 -73,43.5 -21.5,12 -43.5,17.5 -1,6.5 26.5,62.5 -1,7 -14,9 -188,118.5 -18.5,12.5 -117,71 -9,2 -22.5,-2 -15,3.5 -11,8 -6.5,7 -5.5,22 -0.5,15 -13.5,17 -144,190.5 -28,35 -72,55 -12,3.5 -11.5,-1.5 -13,-1 -8.5,4.5 -3.5,8.5 v 15 l -2.5,8.5 -6.5,7 -61.1742,48.6261 -98.6414,74.5997 -8.8389,3.5356 -12.0208,1.0606 -6.0194,-1.28 -7.8053,-1.042 -7.1862,8.1251 -5.82,19.8607 -16.0991,20.0533 -6.2137,8.0496"
     id="path3792"
     style="fill:none;stroke:#0070c1;stroke-width:1px;stroke-linecap:butt;stroke-linejoin:round;stroke-opacity:1" />
  <path
     d="m 2585,1355 3.5,-2.5 14,-27 4.5,-7.5 151,-93 6.5,-2 11.5,-3.5"
     id="path3761"
     style="fill:none;stroke:#0070c1;stroke-width:1px;stroke-linecap:butt;stroke-linejoin:round;stroke-opacity:1" />
  <path
     d="m 2221,1877 13,-4 6,-6 42.5,-55.5 31.5,-18"
     id="path3802"
     style="fill:none;stroke:#0070c1;stroke-width:1px;stroke-linecap:butt;stroke-linejoin:round;stroke-opacity:1" />
  <path
     d="m 2628,1521 2.5,-5.5 21.5,-8.5 1.5,2 14,33 h 4 l 9.5,-5.5 9.5,-4 1.3661,-5.7287 L 2687.5,1515 l 2,-10.5 6.5,-8.5 92.5,-53.5 7,-9 40.5,-25 19.5,-11.5 11.5,-12 77.75,-40.75 8.25,-1.25 7.25,3.5 5.25,6.25 4,0.75"
     id="path3804"
     style="fill:none;stroke:#0070c1;stroke-width:1px;stroke-linecap:butt;stroke-linejoin:round;stroke-opacity:1" />
  <path
     d="m 3526,1554.5 -6.5,10 9,19 4,4 11,-19 -25.5,-19.5 -17.5,5.5 -264,25.5 -121,13.5 -14,-5 -21.5,-3.5 h -40 l -4.5,11 -4.5,5.5 5.0268,6.1191"
     id="path3810"
     style="fill:none;stroke:#0070c1;stroke-width:1px;stroke-linecap:butt;stroke-linejoin:round;stroke-opacity:1" />
  <path
     d="m 1928.6976,2190.9821 12.3744,-2.1213 9.8995,1.0607 8.1317,1.0606 6.0104,-2.8284 2.1213,-4.9497 4.5962,-14.8493 5.3033,-7.4246 7.0711,-7.0711 2.8284,-7.4246"
     id="path3814"
     style="fill:none;stroke:#0070c1;stroke-width:1px;stroke-linecap:butt;stroke-linejoin:round;stroke-opacity:1" />
  <path
     d="m 684.62315,2757.8525 70.89287,-2.2595 370.84598,-212.9611 26.2671,-20.9007 13.8397,-19.4885 2.5419,-19.4885 5.3664,-3.6717 60.4426,1.1298 87.5339,-25.8329 22.2738,-6.7175 36.7696,-7.0711 40.6586,-4.9497 14.1422,-3.5355 17.6776,-10.2531 11.6673,-7.0711 6.5436,-1.7272 22.1717,-2.2595 25.4198,-4.5191 1.775,-1.4082"
     id="path3816"
     style="fill:none;stroke:#0070c1;stroke-width:1px;stroke-linecap:butt;stroke-linejoin:round;stroke-opacity:1" />
  <path
     style="fill:none;stroke:#0070c1;stroke-width:1px;stroke-linecap:butt;stroke-linejoin:round;stroke-opacity:1"
     d="m 1796,2098 -2.7605,19.331 -89.2395,57.169 -88,142 m 0,0 -27.5,42 m 0,0 -8,2.5 -8.5,-9 -11,-4 -36.5,22.5 -6.5,13.5 -0.5,4 2,3.5 1.9528,13.3674"
     id="path887" />
  <path
     style="fill:none;stroke:#0070c1;stroke-width:1px;stroke-linecap:butt;stroke-linejoin:round;stroke-opacity:1"
     d="m 1580.5,2361 1.2157,7.2309 -14.7071,21.0947 -16.4085,32.4067 -7.7804,8.0616 -8.2008,0.9927 -5.9605,-5.4807 -0.1312,-6.1467 11.6276,-11.0477 97.4424,-11.0152 17.5114,-4.5191 36.1525,-16.3816 6.9199,-3.1069 26.1628,-0.027 7.7781,-2.4748 3.182,-7.0711 5.3845,-18.9541 27.496,-29.8363"
     id="path3818" />
  <path
     d="m 1801.25,2043.25 -4.5,-9.75 -14.75,-19.25 -7,-12.25 v -19 l 6,-17.5 9.5,-8 13.5,-9.5 21.5,-11 11,-15 16.5,-35 8.5,-13 7,-24 10,-16 13,-6 21,-3.5 15,-0.5 13.5,-3.5 9.5,-7.5 8,-18.5 6.5,-8.5 19.5,-20 9,-13 13.5,-25.5 20,-19.5 14.5,-17"
     id="path3822"
     style="fill:none;stroke:#0070c1;stroke-width:1px;stroke-linecap:butt;stroke-linejoin:round;stroke-opacity:1" />
  <path
     d="m 2051.5,2386 8,3 62,154 68.8201,163.7305 27.2556,62.4196 29.7976,71.4578 48.6001,121.3212 63.9529,158.861 -1.8359,7.4847 -27.8205,14.8282 -5.5076,-1.4122 -12.145,-24.29"
     id="path3826"
     style="fill:none;stroke:#0070c1;stroke-width:1px;stroke-linecap:butt;stroke-linejoin:round;stroke-opacity:1" />
  <path
     d="m 3198.6614,2318.2614 1.4142,7.4246 -19.4454,12.0208 1.0606,7.7782 7.0711,15.2028 3.8891,21.9203 -1.4142,25.8094 -1.4142,40.6586 2.4748,25.4559 6.364,26.87 14.8492,40.3051 11.676,26.627 1.4122,21.1831 -4.2366,29.3739 -10.7328,21.7481 -24.8549,29.9388 -50.2746,49.7097 -60.1601,40.9541 -7.6259,1.4122 -5.3664,-2.8244 -24.29,-18.3587 -1.6947,-5.6489 2.2596,-13.5572 3.6717,-3.6717 7.3435,-1.4122 24.5724,18.9236 8.4733,3.9542 12.145,1.977 9.8854,-0.8473"
     id="path3828"
     style="fill:none;stroke:#0070c1;stroke-width:1px;stroke-linecap:butt;stroke-linejoin:round;stroke-opacity:1" />
  <path
     d="m 3193.3581,2329.9286 -0.3536,4.5962 4.9498,14.1422 -1.7678,8.8388 -4.2426,26.1629"
     id="path3830"
     style="fill:none;stroke:#0070c1;stroke-width:1px;stroke-linecap:butt;stroke-linejoin:round;stroke-opacity:1" />
  <path
     d="m 3790.5098,1024.9631 8.1317,-6.0104 11.3137,-7.7782 37.1231,-30.0521 14.4957,-15.5563 18.3848,-25.8094 27.9307,-57.9828 32.3747,-72.1607 9.9858,-7.1898 15.5779,-5.9914 3.1954,-11.1842 -4.3937,-16.3767 3.5949,-20.3711 22.7676,-32.7535 22.3683,-16.7762 307.1639,-170.5578 18.3739,0.7988 16.7762,0.3995 9.9858,-4.7932 7.9887,-14.7791 19.5722,-21.9688 197.4078,-107.13246 46.2463,-13.49627 27.5609,-17.97448 -11.5836,-25.96314 -11.1841,4.39376 3.1955,12.78186 -2.3966,11.18412 -51.11,28.8185"
     id="path3842"
     style="fill:none;stroke:#0070c1;stroke-width:1px;stroke-linecap:butt;stroke-linejoin:round;stroke-opacity:1" />
  <path
     d="m 3067.1395,2068.6527 6.364,-0.7071 -11.3137,-16.2635 4.2426,-11.3137 121.6224,-69.2965 5.6569,3.5356 9.8994,21.9203 33.2341,-17.6777 19.799,4.9498 16.9705,4.2426 26.8701,-16.2635 6.3639,-13.435 0.7071,-12.0208 -12.7279,-33.234 -8.4852,-0.7071 -38.8909,21.2132 -4.2427,-1.4142 -7.7781,-13.4351 -16.9706,-9.8995 -11.3137,-19.0918 -2.1213,-7.0711 -82.7315,6.3639 -7.0711,-4.9497 -17.6777,-144.2498 9.8995,-20.5061 -8.4853,-70.7107 14.8493,-50.9116 -9.1924,-51.6188 41.7193,-100.4092 17.6777,-37.4767 11.3137,-15.5563 1.4142,-7.7782"
     id="path3797"
     style="fill:none;stroke:#0070c1;stroke-width:1px;stroke-linecap:butt;stroke-linejoin:round;stroke-opacity:1" />
  <path
     style="fill:none;stroke:#0070c1;stroke-width:5;stroke-linecap:butt;stroke-linejoin:round;stroke-miterlimit:4;stroke-dasharray:none;stroke-opacity:1"
     id="path5940"
     d="m 1798.5,2107.5 12,22.5 1,17.5 3.5,15 6.5,8.5 13,9 12.5,0.5 9,-0.5 12.5,-3.5 6.5,-1.5 13.5,1.5 10.5,1.5 11,6 9,8 7,9.5 15.5,36.5 10.5,20.5 10.5,16 12,13 16.5,16 10,12.5 11,17 8.5,11 12.5,12.5 14,31.5 6,-1.5" />
  <path
     style="fill:none;stroke:#0070c1;stroke-width:5;stroke-linecap:butt;stroke-linejoin:round;stroke-miterlimit:4;stroke-dasharray:none;stroke-opacity:1"
     id="path5942"
     d="m 1800.25,2041.5 1.75,8 0.25,11.5 -6.75,24.5 0.5,12.5 3,11" />
  <path
     style="fill:none;stroke:#0070c1;stroke-width:1px;stroke-linecap:butt;stroke-linejoin:round;stroke-opacity:1"
     id="path7959"
     d="M 3132.204,1380.8107 3137,1377 l -3.5,-14.5 4,-9 8,-1 25,-2.5 3,2.5 3.2803,32.8181" />
  <path
     style="fill:none;fill-rule:evenodd;stroke:#0070c1;stroke-width:1px;stroke-linecap:butt;stroke-linejoin:round;stroke-opacity:1"
     d="m 2326.707,1505.226 3.1067,11.8055 88.2303,206.9062 3.1067,18.0189 -3.7281,19.8829 105.0065,246.672 52.1926,130.4814 -2.9897,7.0127 -31.6334,18.0762 -40.1068,-0.2824 -108.1752,65.8089 -6.2137,8.4733 -14.4045,48.0151 -7.9084,15.5343 -15.2518,14.4045 -13.5572,9.3206 -243.7473,131.9003 -4.519,-2.2596"
     id="path7963" />
  <path
     style="fill:none;fill-rule:evenodd;stroke:#0070c1;stroke-width:5;stroke-linecap:butt;stroke-linejoin:round;stroke-miterlimit:4;stroke-dasharray:none;stroke-opacity:1"
     d="m 2949.3665,1809.9153 -23.6876,19.9609"
     id="path9285" />
  <path
     style="fill:none;fill-rule:evenodd;stroke:#0070c1;stroke-width:1px;stroke-linecap:butt;stroke-linejoin:round;stroke-opacity:1"
     d="m 2927.2322,1829.5656 -2.4854,4.0387 1.8641,9.6307 -3.7281,14.9122 -15.8441,36.9697 -3.1067,15.5335 -6.2134,4.6601"
     id="path9287" />
  <path
     id="path4291"
     d="m 3207.1459,1583.2042 -6.8347,-27.0283 -1.5534,-35.1057 6.2134,-9.6308 54.3673,-4.0387 20.1936,7.7668 12.4268,22.6789 1.2426,23.6109 -7.1454,6.5241 -26.0963,2.4853 0.6214,6.8348"
     style="fill:none;fill-rule:evenodd;stroke:#0070c1;stroke-width:1px;stroke-linecap:butt;stroke-linejoin:round;stroke-opacity:1" />
  <path
     style="fill:none;stroke:#0070c1;stroke-width:1px;stroke-linecap:butt;stroke-linejoin:round;stroke-opacity:1"
     d="m 2558.8272,1353.8703 -6.1188,-3.1631 -14.2498,-37.6564 -8.0131,-20.0943 -19.0919,-27.5771 -23.3345,-43.8407 -1.4142,-24.7487 -0.7071,-7.7782"
     id="path988" />
  <path
     d="m 2764.6489,1722.7894 22.851,39.2101 34,72.5 34.5,49.5 17.5,8.5 2.5,12.5 10.7967,11.3966 10.922,-1.0856"
     id="path3803"
     style="fill:none;stroke:#0070c1;stroke-width:1px;stroke-linecap:butt;stroke-linejoin:round;stroke-opacity:1" />
  <path
     style="fill:none;fill-rule:evenodd;stroke:#0070c1;stroke-width:1px;stroke-linecap:butt;stroke-linejoin:round;stroke-opacity:1"
     d="m 2764.7517,1722.6946 -20.7737,16.0837 -13.7107,5.9739 6.8347,19.2615 0.2849,24.498 -2.3582,2.9707 -17.2435,0.2262 -6.171,3.3284 -2.2472,26.6244 -18.1925,32.1814 -3.3314,16.774 3.9382,15.4057 2.7499,0.6551 34.1917,-35.0444 5.2519,-6.9577 10.2726,-5.7903 4.9708,2.4854 15.2228,-9.0095 1.2427,-8.6987 -17.0869,-42.2512 -4.0387,-28.8923 v -13.6695"
     id="path5938" />
  <path
     d="m 2969.5,1353.5 29.3091,-16.6447 7.4603,-4.4606 0.4943,-4.5613 -2.1746,-5.9027 0.6631,-5.7469 3.7994,-2.4717"
     id="path3796"
     style="fill:none;stroke:#0070c1;stroke-width:1px;stroke-linecap:butt;stroke-linejoin:round;stroke-opacity:1" />
  <path
     id="path6809"
     d="m 3036,1605.7502 -5,-2.25 1.5,-5.75"
     style="fill:none;fill-rule:evenodd;stroke:#0070c1;stroke-width:5;stroke-linecap:butt;stroke-linejoin:round;stroke-miterlimit:4;stroke-dasharray:none;stroke-opacity:1" />
  <path
     style="opacity:1;fill:none;fill-opacity:1;fill-rule:nonzero;stroke:#0070c1;stroke-width:1;stroke-linecap:butt;stroke-linejoin:round;stroke-miterlimit:4;stroke-dasharray:none;stroke-opacity:1"
     d="m 4393.2211,488.0697 -12.1827,0.9986 -16.7762,-3.3952 -6.1912,1.5977 -5.5921,7.1899 -8.7875,15.7775 -23.1671,18.1742"
     id="path1166" />
  <path
     style="opacity:1;fill:none;fill-opacity:1;fill-rule:nonzero;stroke:#0070c1;stroke-width:1;stroke-linecap:butt;stroke-linejoin:round;stroke-miterlimit:4;stroke-dasharray:none;stroke-opacity:1"
     d="m 3968.2245,748.5 -9.9859,7.1898 -14.1798,6.9901 -2.9958,7.3895 1.398,18.3739 -7.3895,8.9872 -0.7988,11.7833 1.1983,10.9844"
     id="path1168" />
  <path
     style="opacity:1;fill:none;fill-opacity:1;fill-rule:nonzero;stroke:#0070c1;stroke-width:1;stroke-linecap:butt;stroke-linejoin:round;stroke-miterlimit:4;stroke-dasharray:none;stroke-opacity:1"
     d="m 755.51602,2755.593 -44.46744,31.6127 -6.39093,10.3853 -1.39801,10.1855 1.11019,9.9852 24.04318,59.5125 -3.18459,6.9816 -16.90281,-1.5923 -16.90281,-8.6963 -15.06554,-8.6964 -17.27026,-1.3473 -11.51351,4.1644 -21.92465,22.9045 -33.9281,39.4399"
     id="path2971" />
  <path
     style="opacity:1;fill:none;fill-opacity:1;fill-rule:nonzero;stroke:#0070c1;stroke-width:1;stroke-linecap:butt;stroke-linejoin:round;stroke-miterlimit:4;stroke-dasharray:none;stroke-opacity:1"
     d="m 684.62315,2757.8525 -2.57087,1.1877 -0.22887,2.6277 19.23935,46.9075 3.30707,9.1863"
     id="path1372" />
  <text
     x="89.453133"
     y="206.96094"
     id="text3784"
     xml:space="preserve"
     style="font-style:normal;font-weight:normal;font-size:143.99993896px;line-height:125%;font-family:Sans;-inkscape-font-specification:Sans;letter-spacing:0px;word-spacing:0px;fill:#000000;fill-opacity:1;stroke:none"><tspan
       x="89.453133"
       y="206.96094"
       id="tspan1">2000</tspan></text>
  <path
     d="m 2843.0584,1205.0979 5.0918,12.0351 6.4805,10.1836 14.8125,11.1094 17.5898,13.4238 15.2754,11.5722 17.1269,11.1094 26.3847,9.2578 34.7168,14.8125 28.6992,15.2754 14.3496,8.332 4.6289,5.5547 20.3672,54.1582 3.2403,4.166 6.4804,4.6289 11.5723,-0.9258 40.2715,-3.7031 6.4805,-3.7031 5.0918,-6.0176 1.3886,-7.4062 2.7774,-18.0528 5.5546,-8.332 6.4804,-6.4805 10.1836,-1.8515 12.961,-1.3887 14.8125,-3.2403 12.0351,-9.2578 12.0352,-12.0351 9.7207,-3.7031 12.498,-0.9258 5.0918,-3.3789 2.3145,-9.1192 3.7031,-7.4062 6.4805,-3.7031 54.6211,-4.629 41.1971,-6.0175 6.9434,-4.166 8.7949,-8.332 18.0527,-2.7773 23.6075,-1.8516 35.1796,-3.2402 13.8868,-2.3145 38.4199,-10.6465 7.4062,-6.0175 15.7383,-27.3106 5.0918,-4.6289 19.4413,-10.6465 13.8867,-0.4629 18.5157,-3.2402 19.4414,-8.332 36.5683,-28.6992 25.9219,-18.9786 44.4375,-33.3281 11.6035,-10.6589 6.7917,-16.0649 13.7885,-10.6065 25.4558,-0.3535 10.6066,-7.0711 37.1231,-26.1629"
     id="path3759"
     style="fill:none;stroke:#0070c1;stroke-width:5;stroke-linecap:butt;stroke-linejoin:round;stroke-miterlimit:4;stroke-dasharray:none;stroke-opacity:1" />
  <path
     d="m 3086.1548,1388.6411 0.3449,5.1697 -1,43.1893 -0.5,23.4999 -3,31 -3,19.5 -10.5,21.5 -8,13.5 -13,32 -20.5,49.5 -5,15.5 1,7.4999 7,10 3,5.5 -1.5,8 -8.5,27 -13,26 -27.5,39.5 -42,54.5 -8.4999,11 -2,6 2,21.4999 -4,9.5 -7.5,16 -3.5,17.5 -4.5,29.5 -0.5,13 4,11.5 10,11.5 14.9999,8 90.5,52 11,9.9999 22,25 23,32 15,27.5 9.5,22.5 6.5,9 19.4999,13.5 6,11.5 6.5,24 6.5,22 41.5,95.4999"
     id="path3763"
     style="fill:none;stroke:#0070c1;stroke-width:5;stroke-linecap:butt;stroke-linejoin:round;stroke-miterlimit:4;stroke-dasharray:none;stroke-opacity:1" />
  <path
     style="fill:none;fill-rule:evenodd;stroke:#0070c1;stroke-width:5;stroke-linecap:butt;stroke-linejoin:round;stroke-miterlimit:4;stroke-dasharray:none;stroke-opacity:1"
     d="m 3116.6267,1382.3849 16.8757,-3.6012"
     id="path7961" />
  <path
     style="opacity:1;fill:none;fill-opacity:1;fill-rule:nonzero;stroke:#0070c1;stroke-width:1;stroke-linecap:butt;stroke-linejoin:round;stroke-miterlimit:4;stroke-dasharray:none;stroke-opacity:1"
     d="m 2944.75,1344.25 22.3005,-19.4438 3.8129,-8.8969 -1.8358,-10.3091 -14.687,-10.1679 -20.6183,0.9885 -1.8358,-0.9885 -0.1413,-9.4618 8.1909,-6.9199 7.061,-0.8473 14.687,11.0152"
     id="path3742" />
  <path
     style="opacity:1;fill:none;fill-opacity:1;fill-rule:nonzero;stroke:#0070c1;stroke-width:1;stroke-linecap:butt;stroke-linejoin:round;stroke-miterlimit:4;stroke-dasharray:none;stroke-opacity:1"
     d="m 2764.6489,1722.7894 -23.5404,-47.515 -2.9957,-33.3526 -46.2467,-115.1505"
     id="path3744" />
  <path
     style="opacity:1;fill:none;fill-opacity:1;fill-rule:nonzero;stroke:#0070c1;stroke-width:1;stroke-linecap:butt;stroke-linejoin:round;stroke-miterlimit:4;stroke-dasharray:none;stroke-opacity:1"
     d="m 2687.5,1515 -11.499,-26.2607 1.398,-3.9944"
     id="path3746" />
  <path
     style="opacity:1;fill:none;fill-opacity:1;fill-rule:nonzero;stroke:#0070c1;stroke-width:1;stroke-linecap:butt;stroke-linejoin:round;stroke-miterlimit:4;stroke-dasharray:none;stroke-opacity:1"
     d="m 2676.001,1488.7393 -65.1076,-159.7732 1.1983,-2.796"
     id="path3748" />
  <path
     style="opacity:1;fill:none;fill-opacity:1;fill-rule:nonzero;stroke:#0070c1;stroke-width:1;stroke-linecap:butt;stroke-linejoin:round;stroke-miterlimit:4;stroke-dasharray:none;stroke-opacity:1"
     d="M 2610.8934,1328.9661 2607,1318"
     id="path3750" />
  <path
     style="opacity:1;fill:none;fill-opacity:1;fill-rule:nonzero;stroke:#0070c1;stroke-width:1;stroke-linecap:butt;stroke-linejoin:round;stroke-miterlimit:4;stroke-dasharray:none;stroke-opacity:1"
     d="m 2782.0504,1423.2323 0.9986,-3.7947 -16.3768,-40.7421 -87.2761,-141.599 1.3981,-5.592 108.0466,-65.3073"
     id="path3752" />
  <path
     style="opacity:1;fill:none;fill-opacity:1;fill-rule:nonzero;stroke:#0070c1;stroke-width:1;stroke-linecap:butt;stroke-linejoin:round;stroke-miterlimit:4;stroke-dasharray:none;stroke-opacity:1"
     d="m 2771.066,1452.99 0.7989,-9.3867 -26.762,-45.5353 0.9985,-3.1955 19.1728,-11.1841 1.398,-4.9929"
     id="path3754" />
  <path
     style="opacity:1;fill:none;fill-opacity:1;fill-rule:nonzero;stroke:#0070c1;stroke-width:1;stroke-linecap:butt;stroke-linejoin:round;stroke-miterlimit:4;stroke-dasharray:none;stroke-opacity:1"
     d="m 2700.9655,1549.2534 -1.398,4.5934 L 2650.5,1583"
     id="path3756" />
  <path
     style="opacity:1;fill:none;fill-opacity:1;fill-rule:nonzero;stroke:#0070c1;stroke-width:1;stroke-linecap:butt;stroke-linejoin:round;stroke-miterlimit:4;stroke-dasharray:none;stroke-opacity:1"
     d="m 2251.4843,1852.6898 -6.6374,2.1183 -27.538,-0.7061 -424.0694,263.229"
     id="path3758" />
  <path
     style="opacity:1;fill:none;fill-opacity:1;fill-rule:nonzero;stroke:#0070c1;stroke-width:1;stroke-linecap:butt;stroke-linejoin:round;stroke-miterlimit:4;stroke-dasharray:none;stroke-opacity:1"
     d="m 2217.3089,1854.102 22.5953,-16.664 3.5958,-2.938"
     id="path3760" />
  <path
     style="opacity:1;fill:none;fill-opacity:1;fill-rule:nonzero;stroke:#0070c1;stroke-width:1;stroke-linecap:butt;stroke-linejoin:round;stroke-miterlimit:4;stroke-dasharray:none;stroke-opacity:1"
     d="m 1704,2174.5 -168.9292,104.5356 -1.6946,5.084 5.0839,9.3205 -1.1297,3.1069 -21.4656,13.8396 -13.8396,28.2442 -22.3129,21.1832 -2.8245,9.0381 6.2138,18.9236 7.6259,4.8015 21.748,-4.2366 L 1517.5,2388"
     id="path3762" />
  <path
     style="opacity:1;fill:none;fill-opacity:1;fill-rule:nonzero;stroke:#0070c1;stroke-width:1;stroke-linecap:butt;stroke-linejoin:round;stroke-miterlimit:4;stroke-dasharray:none;stroke-opacity:1"
     d="m 3176.7411,1384.8804 3.8353,3.0515 21.4656,3.1069 2.8244,2.542 1.1298,13.2747 4.519,5.084 2.8245,-0.2825 8.4732,-3.9541 29.6564,-3.1069 33.893,1.9771 30.2213,7.3435 71.4577,24.8548 3.9542,4.5191 0.5649,7.9084 27.1144,47.7326 17.2289,25.4198 5.9313,4.2366 46.038,13.8397 8.5932,1.8747 0.9156,7.2397 3.1182,2.958"
     id="path3764" />
  <path
     style="opacity:1;fill:none;fill-opacity:1;fill-rule:nonzero;stroke:#0070c1;stroke-width:1;stroke-linecap:butt;stroke-linejoin:round;stroke-miterlimit:4;stroke-dasharray:none;stroke-opacity:1"
     d="m 3540.6896,1572.9313 7.4847,0.2824 95.0417,73.2936 20.3358,10.874 4.9427,-1.977 5.2252,-12.5687 -16.9465,-35.8701 -25.9847,-23.1602 -19.3472,-3.6718 -19.2061,1.4122 -8.6869,3.6273 -5.8895,7.102 -3.8174,0.6308"
     id="path4476" />
  <path
     style="opacity:1;fill:none;fill-opacity:1;fill-rule:nonzero;stroke:#0070c1;stroke-width:1;stroke-linecap:butt;stroke-linejoin:round;stroke-miterlimit:4;stroke-dasharray:none;stroke-opacity:1"
     d="m 1126.362,2542.6319 17.3858,-0.078 24.5725,5.79 12.2862,-4.5191 4.0954,-14.4045 7.3435,-14.687 10.5915,-12.8511 32.1828,-21.6698"
     id="path4640" />
  <path
     style="opacity:1;fill:none;fill-opacity:1;fill-rule:nonzero;stroke:#0070c1;stroke-width:1;stroke-linecap:butt;stroke-linejoin:round;stroke-miterlimit:4;stroke-dasharray:none;stroke-opacity:1"
     d="m 1461.2123,2417.2908 0.8474,3.813 29.6563,11.5801 2.8245,6.7786 -6.4962,12.7099 -5.084,5.2252 -8.1908,0.9885 -54.2288,-5.9313 -83.744,-2.4007"
     id="path8124" />
  <path
     style="opacity:1;fill:none;fill-opacity:1;fill-rule:nonzero;stroke:#0070c1;stroke-width:1;stroke-linecap:butt;stroke-linejoin:round;stroke-miterlimit:4;stroke-dasharray:none;stroke-opacity:1"
     d="m 1580.5,2361 11.0592,24.9398 8.7557,7.2023 6.7786,3.8129 10.7328,2.2596"
     id="path8126" />
  <path
     style="opacity:1;fill:none;fill-opacity:0.02352941;fill-rule:nonzero;stroke:#0070c1;stroke-width:1;stroke-linecap:butt;stroke-linejoin:round;stroke-miterlimit:4;stroke-dasharray:none;stroke-opacity:1"
     d="m 3213.3397,1411.657 -3.6436,5.3617 -1.8372,4.4094 -4.7769,4.4094 -2.9396,-0.7349 -20.3324,-18.1276 -7.3491,-6.2467 v -4.4095"
     id="path3891" />
  <path
     style="fill:none;stroke:#0070c1;stroke-width:1;stroke-linecap:butt;stroke-linejoin:round;stroke-miterlimit:4;stroke-dasharray:none;stroke-opacity:1"
     d="m 2843.0582,1205.0981 -1.0965,-4.0452 -5.8467,-12.6191 -4.166,-2.3145 -3.7031,1.3887 -53.2324,32.8653 -5.5547,8.7949 -7.4063,5.5547 -145.8105,88.875 -8.332,5.0917 -9.2579,18.0528 -4.6289,6.4805 -6.4804,2.7773 -6.4805,-2.3144 -6.139,-5.6832 -7.885,1.577 -14.0669,6.7276"
     id="path2948" />
  <path
     d="m 2039.5331,1693.3647 11.0389,-7.8849 11.039,-7.885 11.039,-11.039 20.5009,-18.1354 14.9815,-7.0965 43.3674,-27.5975 45.7329,-26.0204 75.6958,-48.0984 55.9834,-33.1169 90.6773,-54.4064 38.6364,-22.8664 17.3469,-18.1355 14.9814,-18.1354 8.6736,-9.462 14.9815,-8.6735 34.6939,-16.5585 4.0685,-1.9458"
     id="path2987"
     style="fill:none;stroke:#0070c1;stroke-width:5;stroke-linecap:butt;stroke-linejoin:round;stroke-miterlimit:4;stroke-dasharray:none;stroke-opacity:1" />
</svg>
