<?xml version="1.0" encoding="UTF-8" standalone="no"?>
<svg
   xmlns:dc="http://purl.org/dc/elements/1.1/"
   xmlns:cc="http://creativecommons.org/ns#"
   xmlns:rdf="http://www.w3.org/1999/02/22-rdf-syntax-ns#"
   xmlns:svg="http://www.w3.org/2000/svg"
   xmlns="http://www.w3.org/2000/svg"
   xmlns:xlink="http://www.w3.org/1999/xlink"
   version="1.1"
   width="5900"
   height="4150"
   viewBox="0 -250 5900 4150"
   id="svg2">
  <metadata
     id="metadata19">
    <rdf:RDF>
      <cc:Work
         rdf:about="">
        <dc:format>image/svg+xml</dc:format>
        <dc:type
           rdf:resource="http://purl.org/dc/dcmitype/StillImage" />
        <dc:title></dc:title>
      </cc:Work>
    </rdf:RDF>
  </metadata>
  <defs
     id="defs6" />
  <image
     xlink:href="../streetmap/ytoosm.png"
     id="image12"
     height="4639.8"
     width="6105"
     y="-239.8"
     x="-125"
     style="display:none" />
  <path
     d="m 4145,1236.57 2.5,48 1.5,56.5 2.5,21 13.5,25.5 6,38.5 26,93.5 13.5,24 12,39.5 21.5,74 14.5,54 9,21 11,19.5 7,27 1.5,13.5 4,23 13.5,48.5 6.5,24.5 6,50.5 59.5,193 2.5,17 -3,10 -5.5,10 -5.5,4.5 -8,3 -15.77,3.5"
     id="path2818"
     style="fill:none;stroke:#fdb827;stroke-width:5;stroke-linecap:butt;stroke-linejoin:round;stroke-miterlimit:4;stroke-dasharray:none;stroke-opacity:1" />
  <text
     x="89.45"
     y="-43.04"
     id="text3606"
     xml:space="preserve"
     style="font-style:normal;font-weight:normal;font-size:144.0px;font-family:Sans;-inkscape-font-specification:Sans;fill:#000000;fill-opacity:1;stroke:none"><tspan
       x="89.45"
       y="-43.04"
       id="tspan1">1960</tspan></text>
</svg>
