<?xml version="1.0" encoding="UTF-8" standalone="no"?>
<svg
   xmlns:dc="http://purl.org/dc/elements/1.1/"
   xmlns:cc="http://creativecommons.org/ns#"
   xmlns:rdf="http://www.w3.org/1999/02/22-rdf-syntax-ns#"
   xmlns:svg="http://www.w3.org/2000/svg"
   xmlns="http://www.w3.org/2000/svg"
   xmlns:xlink="http://www.w3.org/1999/xlink"
   viewBox="0 0 5600 3200"
   height="3200"
   width="5600"
   id="svg2"
   version="1.1">
  <metadata
     id="metadata8">
    <rdf:RDF>
      <cc:Work
         rdf:about="">
        <dc:format>image/svg+xml</dc:format>
        <dc:type
           rdf:resource="http://purl.org/dc/dcmitype/StillImage" />
        <dc:title></dc:title>
      </cc:Work>
    </rdf:RDF>
  </metadata>
  <defs
     id="defs6" />
  <image
     xlink:href="../streetmap/ngbosm.png"
     width="5560"
     height="3804.2104"
     preserveAspectRatio="none"
     id="image10"
     x="25"
     y="-438.948"
     style="display:none" />
  <path
     style="opacity:1;fill:none;fill-opacity:1;fill-rule:nonzero;stroke:#ebae22;stroke-width:5;stroke-linecap:butt;stroke-linejoin:round;stroke-miterlimit:4;stroke-dasharray:none;stroke-opacity:1"
     d="m 803.3602,3033.7001 103.36942,11.2358 143.44378,-8.6141 16.4792,-4.4943 16.4792,-13.8575 11.2358,-19.1009 5.6179,-17.6027 -7.4905,-134.8297 6.3669,-88.7629 19.4754,-112.7326 29.9622,-131.4589 13.8575,-25.8424 14.232,-14.232 19.1009,-7.116 22.4716,-3.3708 119.8486,17.6028 13.1084,0.3745 8.2396,-3.7452 5.6179,-9.7377 34.082,-138.2005 5.2433,-257.6745 6.367,-40.0743 22.0971,-44.5687 13.483,-13.8575 131.4589,-13.8575 13.8575,-7.1161 85.3921,-89.8864 23.5952,-46.4413 14.232,-10.1123 35.5801,-25.8423 8.6141,-16.1047 14.6066,-83.894 9.3631,-77.9016 46.4414,-123.2193 110.4854,-267.0377 1.4981,-18.7263 -41.1979,-110.86 -80.0597,-194.32931"
     id="path817" />
  <path
     id="path838"
     d="m 213.78553,2223.6622 178.76618,105.4667 64.33473,19.5114 47.98738,-3.164 70.66274,-20.0387 25.83936,-10.5467 16.34735,-23.2027 110.74012,-156.0908 41.65937,-35.8587 41.65938,-18.4567 45.87804,-10.0193 17.92936,-14.7654 44.82337,-54.3154 42.18671,-61.1707 3.69134,-21.6207 -6.32801,-19.5113 -6.85534,-13.7107 -15.82001,-13.7107 -36.38604,-18.984 -44.82338,-27.9487 -5.80067,-11.074 0.52733,-24.7847 6.85534,-17.9294 19.51136,-21.6207 51.67872,-126.0327 9.49201,-11.6014 22.14802,-18.4567 104.41211,1.582 19.5113,-7.91 20.5661,-17.9293 33.222,-14.2381 26.894,-2.6366 24.7847,4.2187 20.566,-4.2187 26.3667,-33.2221 14.7654,-3.6913 35.3314,1.582 70.1354,-13.1833 18.984,-11.6014 5.2733,-12.656 -7.91,-83.3187 6.8554,-40.6048 15.2926,-50.624 13.1834,-12.1287 35.8587,-30.058 45.3507,-22.6754 16.3473,-14.7653 8.9647,-12.1287 26.3667,-83.8461 8.4374,-15.82 52.7333,-69.6081 22.6754,-92.81067 14.238,-23.2027 16.8747,-15.2927 57.4794,-16.3474 h 46.9327 l 119.1775,-19.5113 59.5887,-3.164 27.9487,15.82 8.4373,2.6367 32.6947,5.8006 277.3776,-107.0487 64.8621,-23.7301 21.0934,1.0547 191.9495,4.2187 36.386,-4.746 45.8781,-18.9841 165.0555,-102.83006 71.7174,-33.74936 65.8499,-30.44853 25.561,-19.64776 21.5671,-29.40519 40.7914,-76.88608 28.2484,-57.52813 24.7636,-29.0673 124.6917,-124.59689 27.6377,-20.05794 111.6833,-68.68187 13.1386,-4.23935 59.7798,-0.72275 53.3226,15.18466"
     style="opacity:1;fill:none;fill-opacity:0;fill-rule:nonzero;stroke:#b70f0f;stroke-width:5;stroke-linecap:butt;stroke-linejoin:round;stroke-miterlimit:4;stroke-dasharray:none;stroke-opacity:1" />
  <path
     id="path836"
     d="m 104.62742,784.56803 17.92935,54.8427 14.23801,16.3474 74.88141,55.3701 317.45499,186.14877 109.68545,20.0387 148.18081,81.7368 82.26409,42.714 60.11606,14.7653 31.1127,7.9101 31.1127,12.1286 219.37091,47.4601 51.1514,12.1287 48.5147,17.402 81.2094,14.238 65.3894,16.3473 61.6981,19.5114 127.6148,27.9487 93.3381,29.5307 42.1867,17.402 39.0227,22.148 29.5307,18.4567 23.73,4.746 h 21.0933 l 143.9622,50.6241 64.3347,6.328 14.7654,-2.1094 10.0193,-6.8553 29.5307,-29.5307 23.2027,-0.5273 122.3415,28.476 23.73,3.164 143.9621,32.6947 92.2835,14.7653 98.0841,25.3121 85.9554,29.0033 62.7566,18.0907 21.7161,13.2415 65.6779,90.0424 32.839,77.8601 21.7161,14.3009 23.3051,3.7076 100.6356,9.5339 43.9619,-6.8856 677.4364,9.0043 20.1271,-6.8856 34.9576,-25.4238 104.8729,-60.911 31.7797,-5.8263 41.8432,-9.0042 21.7161,-8.4746 63.0297,-45.0212 14.3008,-25.4237 21.1865,-39.7246 118.1144,-88.4534 23.8347,-48.7288 21.7161,-19.5974 97.4576,-69.9153 30.7204,-35.4872 112.8178,-199.1526 58.2627,-87.9237 25.4237,-42.9026 106.9915,-199.68215 12.1822,-12.71187 20.6568,-8.47457 13.7712,-2.11865 13.7712,4.23729 59.322,36.01695 96.3983,77.33051 42.3729,30.19069 207.6271,69.3856 32.3094,5.8262 148.8347,17.4789 h 22.7754 l 36.5466,-7.4153 40.2543,3.7076"
     style="opacity:1;fill:none;fill-opacity:0;fill-rule:nonzero;stroke:#2882c0;stroke-width:5;stroke-linecap:butt;stroke-linejoin:round;stroke-miterlimit:4;stroke-dasharray:none;stroke-opacity:1" />
  <text
     style="font-style:normal;font-weight:normal;font-size:144px;line-height:125%;font-family:Sans;-inkscape-font-specification:Sans;letter-spacing:0px;word-spacing:0px;fill:#000000;fill-opacity:1;stroke:none"
     xml:space="preserve"
     id="text3817"
     y="206.96001"
     x="89.453125"><tspan
       id="tspan1"
       y="206.96001"
       x="89.453125">2020</tspan></text>
</svg>
