<svg xmlns="http://www.w3.org/2000/svg" width="2250" height="2950" viewBox="-50 -400 2250 2950"><path style="opacity:1;fill:none;fill-opacity:1;fill-rule:nonzero;stroke:#da2225;stroke-width:5;stroke-linecap:butt;stroke-linejoin:round;stroke-miterlimit:4;stroke-dasharray:none;stroke-opacity:1" d="m107.28 1644.16-.34-29.53 5.7-17.45 81.21-196.98 16.44-32.55 16.78-26.51 44.63-59.4 37.58-43.62 142.62-169.8 37.58-34.9 32.22-40.94 23.49-33.22 15.44-26.17 37.92-61.41 63.42-90.27 12.75-20.47 9.4-22.15 10.4-12.42 23.15-20.13 21.14-9.73 18.46-2.35 52.69 5.7 158.06 37.92100.036.24 24.83 12.42 9.060.347.38-3.02 222.82-131.88 18.46-5.7 15.44-2.01 38.59 2.01 21.48-3.36 93.63-39.93 61.07-21.48 69.13-11.75"/><text style="font-style:normal;font-weight:400;font-size:144px;line-height:125%;font-family:Sans;-inkscape-font-specification:Sans;letter-spacing:0;word-spacing:0;fill:#000;fill-opacity:1;stroke:none" xml:space="preserve" y="-193.04" x="39.45"><tspan y="-193.04" x="39.45">1980</tspan></text></svg>