<?xml version="1.0" encoding="UTF-8" standalone="no"?>
<svg
   xmlns:dc="http://purl.org/dc/elements/1.1/"
   xmlns:cc="http://creativecommons.org/ns#"
   xmlns:rdf="http://www.w3.org/1999/02/22-rdf-syntax-ns#"
   xmlns:svg="http://www.w3.org/2000/svg"
   xmlns="http://www.w3.org/2000/svg"
   xmlns:xlink="http://www.w3.org/1999/xlink"
   viewBox="0 0 3250 2450"
   height="2450"
   width="3250"
   id="svg2"
   version="1.1">
  <metadata
     id="metadata8">
    <rdf:RDF>
      <cc:Work
         rdf:about="">
        <dc:format>image/svg+xml</dc:format>
        <dc:type
           rdf:resource="http://purl.org/dc/dcmitype/StillImage" />
        <dc:title></dc:title>
      </cc:Work>
    </rdf:RDF>
  </metadata>
  <defs
     id="defs6" />
  <image
     y="-166.67"
     x="-50"
     id="image10"
     xlink:href="file:///home/lexande/timelines/timelines/streetmap/../streetmap/pacosm.png"
     preserveAspectRatio="none"
     height="2666.67"
     width="3333.33"
     style="display:none" />
  <path
     id="path817"
     d="m 158.27,2133.49 -10.17,26.85 -0.81,19.93 6.51,12.61 95.59,78.51 22.78,23.19 17.49,15.46 10.17,3.25 29.69,-21.15 88.68,-157.02 15.46,-60.2 8.95,-14.64 25.63,-18.71 20.34,-26.85 37.83,-56.95 16.68,-13.42 6.92,-9.76 57.76,-107.8 5.29,-16.27 -8.14,-23.59 -4.07,-142.37 2.03,-10.17 25.63,-41.9 6.51,-13.42 4.07,-34.17 5.29,-91.12 11.8,-28.88 13.02,-19.12 27.66,-21.56 41.9,-21.15 45.15,-37.02 10.98,-23.59 26.44,-76.88 1.22,-25.63 -8.95,-19.12 -28.07,-35.8 -8.54,-25.22 2.85,-31.32 5.69,-13.83 12.61,-39.86 -0.81,-19.93 -8.54,-15.46 -28.47,-51.25 -2.03,-15.46 5.69,-64.27 -10.98,-60.2 1.22,-23.59 -6.51,-18.31 -18.31,-14.24 -46.08,-17.18"
     style="opacity:1;fill:none;fill-opacity:0.39;fill-rule:nonzero;stroke:#e10000;stroke-width:5;stroke-linecap:butt;stroke-linejoin:round;stroke-miterlimit:4;stroke-dasharray:none;stroke-opacity:1" />
  <text
     style="font-style:normal;font-weight:normal;font-size:144.0px;line-height:125%;font-family:Sans;-inkscape-font-specification:Sans;letter-spacing:0px;word-spacing:0px;fill:#000000;fill-opacity:1;stroke:none"
     xml:space="preserve"
     id="text3019"
     y="206.96"
     x="89.45"><tspan
       id="tspan1"
       y="206.96"
       x="89.45">2015</tspan></text>
</svg>
