<svg xmlns="http://www.w3.org/2000/svg" width="5700" height="5750" viewBox="0 -450 5700 5750"><path d="M2664.56 1018.49v6.49l4.74 1.75 67.02-1.75 65.97 21.76 27.72 12.98 5.26 6.84 2.28 9.12 1.75 39.13 4.91 7.02 5.44 3.16 15.79 2.98 8.42 5.09 5.09 4.91 6.03 10.1 8.54 7.1 19.83 12.63" style="opacity:1;fill:none;fill-opacity:1;fill-rule:nonzero;stroke:#0070b7;stroke-width:5;stroke-linecap:butt;stroke-linejoin:round;stroke-miterlimit:4;stroke-dasharray:none;stroke-opacity:1"/><path style="opacity:1;fill:none;fill-opacity:1;fill-rule:nonzero;stroke:#5d2082;stroke-width:5;stroke-linecap:butt;stroke-linejoin:round;stroke-miterlimit:4;stroke-dasharray:none;stroke-opacity:1" d="m2489.54 2838-61-91.5-30-55.5-28.5-93-17-86.5-17.5-31.5-29.5-129.5-30-77.5-14.5-21.5-29.5-25-8.5-12-5-16-5.5-24.5-12.5-32.5-23.5-44-4-18-11.5-93.5 4-32-3.25-18.25-14.25-39.62-7.5-86.12-4.5-29.5-13.5-27.5-13.5-25-41-48-44.5-45.5-7-12.5-5.5-21.02.5-21.5 26.5-38.5 12.5-8.96 17.91-4.05 31.11-1.06 42.07 15.91 31.82 20.51 68.94 21.21 26.87 14.14 26.52 10.61 21.92-1.77 22.27-4.24 23.33-13.08 20.15-19.09 9.55-24.4 4.24-23.69-2.83-25.1-7.07-21.92-22.63-27.58-127.63-126.22-31.82-33.23-15.2-30.05-8.13-37.83 2.83-38.54 12.78-32.9 12.35-34.51 10.85-17.86 19.24-17.37 27.86-21.18 44.9-18.67 420.78-10.0848.015.5"/><path style="opacity:1;fill:none;fill-opacity:1;fill-rule:nonzero;stroke:#e3000b;stroke-width:5;stroke-linecap:butt;stroke-linejoin:round;stroke-miterlimit:4;stroke-dasharray:none;stroke-opacity:1" d="m829.54 1142 26 59.5 10.5 12.5 25 17 168 38 311.5-33.023.5 2.5 324.25 129.75 54.47 17.96 52.33 12.02 38.18 13.79 35.36 5.66 36.06 20.51 20.96 13.87 39.09 9.54 76.45 27.96 15.18 7.67 24.53 17.36 113.95 40.51 32.97 14.17 26.36 15.5 16.78 17.48 9.86 19.11 6.01 20.42 2.99 20.87-4.26 14.72-2.93 18.56-0.6816.28 4.64 15.43 7.31 14.04 11.37 8.132.012.44 19.09 1.06 16.44-2.3 27.93-12.02 42.6-39.24 262.16-257.74 29.17-36.24 18.21-32.35 16.26-42.07 16.26-65.05"/><path style="opacity:1;fill:none;fill-opacity:1;fill-rule:nonzero;stroke:#ceb08d;stroke-width:5;stroke-linecap:butt;stroke-linejoin:round;stroke-miterlimit:4;stroke-dasharray:none;stroke-opacity:1" d="m1922.04 149 83 154.5 17.5 19 19 12 15 8.5 36.5 5.5 17.5 9 20 12.551.057.5 28.5 38.510.026.5 31.5 72.525.040.5 14 22 16.519.024.5 30.5 42 37 51 41.5 9 11 5 17 1.5 16-5.5 21.5-8.5 18-120 192.5-14.79 12.67-23.77 10.29-30.35 23-19.09 18.21-11.12 18.33-11.85 33.5-17.03 26.5-26.88 24.53-26.01 11.56-103.12 31.41-19.59 11.94-18.91 15.06-11.44 16.38-12.5 26.35-28.073.23-1.32 22.21 3.17 15.35 10.03 13.03 12.06 11.44 38.5 19.5 78.25 29.25 11.45 6.29 24.8 17.21 119 42 28 12.75 25.2515.015.25 15.25 10.5 19.756.021.5 2.5 17.25-4.38 14.29-2.87 17.96-0.7518.25 5.25 17.5 8.5 15.25 12.75 8.75 30.97 12.06 22.01 2.09 15.91-2.83 31.47-12.73 47.35-44.0257.08-252.81 31.03-37.68 18.35-32.45 15.82-42.62 16.67-65.75 12.58-38.03 18.25-27 39-33.5 35-23.75 25.25-3.75 23.75 6.75 19.75 9.75 322.75 196 99 74.5 198.25148.0259.5 221.25197.0170.25 37.2532.016.5 9.529.014.7549.023.75 18.5 4 18 3 72.5 8.5 23 15 63 41 48.5 22.5 29 4 29 4.5 22.5 12.5 67 56 11 11.5 35.5 20.535.033.5 31.519.021.5 26.5 12.5 16.541.043.5 78.5 100.526.035.5 22 45 93 197.520.029.565.099.5 8.5 23v21.5l-2 76 1.5 22.5 19.5 40.5 16.569.08.5 20.580.080.5 28 17 28.5 8.5 90.511.019.59.057.543.018.5 11.5 33.5 10.521.012.521.022.5 63.5 138.5 4.5 28.5-4 23-8 18.5-10.5 17-68 51-32.5 14.5-31.5 7.5-77.5 6-25.5 9-25.5 22.5-13.032.5-11 76-14.5 27.5-18.022.5-27.5 11.5-50.01.5-34.5 6-44.5 7"/><path style="opacity:1;fill:none;fill-opacity:1;fill-rule:nonzero;stroke:#7e4c00;stroke-width:5;stroke-linecap:butt;stroke-linejoin:round;stroke-miterlimit:4;stroke-dasharray:none;stroke-opacity:1" d="m1717.04 1373.25-48-20.25-24.25.25-48.5 10.25-18.01.25-26-8-57.75-33.5-18.75-7-49-6.5-50.75-13.75-22-2.75-19.02.75-18 7-12 11-18.25 27-14 9.25-19.08.5-27.03.25-61.75 6-21.25 4.75-14.05.25-16.75 12.75-11.75 16.25-9.5 21.5-7.030.75-2.5 20.753.027.5 10.25 29.5 16.25 28.25 7.75 20.255.038.25 2.5 37.25-3 31-16.5 86.25-0.536.75 6.526.011.75 21.5 9.510.034.75 18 30 9.75 18.50.535.25-9.75h13l24.75 7.5 26.5 23.2517.011.522.08.25 26.5 4.25 33.5-1.75 16.5 2.5 22.25 12.7515.017.256.016.75-2.016.5-23.0108.25-0.518.5-0.7511.75 37.75 175-.25 23.75-10.5 105.75-4.25 17-11.5 16.25-11.5 10.25-20.09.5-24.25 6-14.75 11-13 11.5-8.75 19.5-7.75 36.75-7.012.25-12.25 16.75-19.25 13-78 36.75-15.5 13.25-9.75 20.75-2.017.75 1.5 16.75 9.25 20.25 33.2540.07.75 14.5 7.25 70.5 7.25 21.75 22.75 35.5 10 24 3.5 24.250.7520.5-5.25 24.5-22.25 53.75-10.25 19.75-22.25 33.5"/><path style="opacity:1;fill:none;fill-opacity:1;fill-rule:nonzero;stroke:#00ab4d;stroke-width:5;stroke-linecap:butt;stroke-linejoin:round;stroke-miterlimit:4;stroke-dasharray:none;stroke-opacity:1" d="m2060.04 4372.5-35 21-11.5 14-8 25.5-24.0258.5-6.016.5-13.5 9-17 4.5-19.5-2-15-7-328.5-149-22-1-19 3.5-20 7-175.5 80.5-21.016.5-15 17-9.5 19-8 24 2.525.028.5 317-3.5 17.5-7.5 17.5-14.012.5-21.010.5-17.5 4.5-174.061.5"/><path style="opacity:1;fill:none;fill-opacity:1;fill-rule:nonzero;stroke:#fecb42;stroke-width:5;stroke-linecap:butt;stroke-linejoin:round;stroke-miterlimit:4;stroke-dasharray:none;stroke-opacity:1" d="M1764.79 1774.25h118.5l103.25 22.25 16.25 9.25 11.75 8.25 11.5 3.25 11.62-4 9-9.25 16-31.5 11.38-18.014.25-14.12 26.38-16.022.5-38.75 12.12-34.38 14.75-27.75 31-39.88 11.25-4.12 6.880.519.12 5.5"/><path style="opacity:1;fill:none;fill-opacity:1;fill-rule:nonzero;stroke:#74bc75;stroke-width:5;stroke-linecap:butt;stroke-linejoin:round;stroke-miterlimit:4;stroke-dasharray:none;stroke-opacity:1" d="m2990.54 3047.5-41.5-54.5-10.5-23.5-35.5-38-13-25-18.5-20-8-11.5-18-67.5-11.5-19-25.5-33-12-35.5-21.5-28.5-23.5-49-8-9-22-16.5-25-32-27.5-53-14-73-20.5-50-14.5-30.5-26-35.5-5-14-3-25.5-57-133-2.5-23V2116l-4.5-16.5-10-15.5-23.5-30.5-45.5-75-2.5-13.5-3.5-36-8-33-11.5-53.5-7-30.5-10-21-9.62-6.5-29.62-14.5-31.25-12.25-13.25-9-8.69-17.25-6.03-17.51 1.18-20.65 2.82-18.82 4.18-12.11-2.54-16.56-5.91-21.42-10.75-19.44-13.25-13.25-24.75-14.25-29.81-13.19-117.42-41.45-24.57-17.15-10.61-5.66-80.26-30.76-38.16-19.84-11.69-10.21-10.43-13.26-4.42-18.38 1.24-24.22 28.46-74.6 12.37-26.16 11.31-15.91 19.8-16.79 21.04-12.2 103.24-32.17 24.93-10.96 25.28-22.45 17.5-25.1 10.78-32.88 13.79-22.98 19.27-17.85 28.99-21.92 16.97-8.13"/><path style="opacity:1;fill:none;fill-opacity:1;fill-rule:nonzero;stroke:#f08161;stroke-width:5;stroke-linecap:butt;stroke-linejoin:round;stroke-miterlimit:4;stroke-dasharray:none;stroke-opacity:1" d="m2275.16 2969.42-3.89-43.84-9.19-13.08-110.31-126.57-12.37-14.5-27.22-20.86-44.9-44.55-3.89-16.62 6.01-36.77 2.12-21.57-3.54-22.27v-41.72l-27.22-98.29v-25.1l-4.6-10.25-23.69-31.11-.71-12.37 3.54-30.76-.71-13.79-20.15-34.65-1.77-16.62 2.83-10.25 23.33-29.7 3.18-15.2 3.54-170.06 6.01-16.26 54.8-59.4 4.6-12.02-.71-9.9-4.24-9.55-19.09-23.33-28.99-73.19-9.55-11.31-3.89-6.72 2.83-13.08 14-17.35 8.39-9.3 17.41-32.8 10.06-16.53 15.16-15.28 25.59-14.86 23.67-39.99 12.41-34.91 14.06-26.4 29.82-38.68 8.71-3.27 4.97-0.4519.41 6.1"/><path style="opacity:1;fill:none;fill-opacity:1;fill-rule:nonzero;stroke:#ea4d33;stroke-width:5;stroke-linecap:butt;stroke-linejoin:round;stroke-miterlimit:4;stroke-dasharray:none;stroke-opacity:1" d="m2890.79 2063.75 8.25 5 11 13.5 28 39 36.25 57.75 6.759.08.5 4.548.015.25 11.755.08.54.019.5 20.25 10.7514.012.75 25.75 11.2514.013.25 12.25 10.25 16.58.08.523.09.5 23.251.015.75 4.75 31.5 23.25 16.75 9.75 15.25 5.25 45.5 10.5"/><path style="opacity:1;fill:none;fill-opacity:1;fill-rule:nonzero;stroke:#ea4d33;stroke-width:1;stroke-linecap:butt;stroke-linejoin:round;stroke-miterlimit:4;stroke-dasharray:none;stroke-opacity:1" d="m3314.542392.08.750.7535.75-10M2890.79 2063.75l-61.75-19.5-10.75 2.25-16.75 17.5-10.07.5-7 2-12.75 1.25-12.25-5.5-6.5-6.75-10.25-18.75-6.5-7-26-21.75-16.25-21.25-9.5-5-7.75-2.75-20.75 2.75-10-1.25-9.75-4.75-7.75-9.5-7-17.75-15.75-10.5-6.75-10.25-12.5-17.5-10-22.5-44.75-45.75-10-2.5-19.25.25-39.5-7.25-3.5-3.75-4.25-9.25-3.25-1.75-12-5.5-18.5-12.25-18.25-19.75-12.75-6.12-30.88-15-25.62-8-12.62-4.38-3.88-3.5-2.25.38-7.12 7.12-0.381.88 2.12 2.5 2 .38 7.88-7.25 3.5-.75"/><path style="opacity:1;fill:none;fill-opacity:1;fill-rule:nonzero;stroke:#000;stroke-width:5;stroke-linecap:butt;stroke-linejoin:round;stroke-miterlimit:4;stroke-dasharray:none;stroke-opacity:1" d="m1894.54 2614.5 131-46"/><path style="opacity:1;fill:none;fill-opacity:1;fill-rule:nonzero;stroke:#0070b7;stroke-width:5;stroke-linecap:butt;stroke-linejoin:round;stroke-miterlimit:4;stroke-dasharray:none;stroke-opacity:1" d="m2559.42 1158.1-35.62-20.6-6.62-2.75-7.12-2.75-10 .75-7.62 4-15.38 11.88-28.75 13.12-36.62 18.12-29.5 11.38-22.88 15.88-29.12 20.88-15.25 6.5-23.75 5-20.25 4.75-11.38 9.88-6.62 14.88-4.5 10.25 3.25 5.12 34.12 10.62"/><path style="opacity:1;fill:none;fill-opacity:1;fill-rule:nonzero;stroke:#0070b7;stroke-width:1;stroke-linecap:butt;stroke-linejoin:round;stroke-miterlimit:4;stroke-dasharray:none;stroke-opacity:1" d="m2557.7 1157.18 12.96 10.94 5.38 1.5 10.5-0.62111.12-37.12h22.88l53.88 21.88 1.75 4-12.88 28.75"/><path style="opacity:1;fill:none;fill-opacity:1;fill-rule:nonzero;stroke:#0070b7;stroke-width:1;stroke-linecap:butt;stroke-linejoin:round;stroke-miterlimit:4;stroke-dasharray:none;stroke-opacity:1" d="m2585.63 1169.16 30.16 18.72 110.25 47.88 80.75 43.75 4.5-2.5 6.25-6h2.75l3.25 3.75-0.1210.25-3.5 2.12-12.88-7.62M2248.42 1279.25l-7.12 7.5-13.035.75-5.25 29.5-1.7512.02.5 8.25 6.75 6.750.757.75 11.75 37.25 23.75 55.25 11.5 69.25-0.1240.38-2.38 2.12-24.62-1.75-15.38-.12-3.62 1.75-16.38 47.120.6224.5 8.75 33.25-1.62 3.75-4.25 1.25-1.62 5.75-10.5 11.38-13.12 8.62-17.38 7-30.12 35.25-3.5 34.883.036.25 5.62 18.50.6223.25 1.38 13.12-2.25 19.88 6.5 17.62-7.25 23.75-0.527.5 9.567.06.38 26.62-1.25 5.88-8.38 9-22.75 4.25-3.25 3.5 2.256.05.25 7.25v9.38l-8.75 32.88 1.62 24.25 6.25 2.88"/><path style="opacity:1;fill:none;fill-opacity:1;fill-rule:nonzero;stroke:#0070b7;stroke-width:1;stroke-linecap:butt;stroke-linejoin:round;stroke-miterlimit:4;stroke-dasharray:none;stroke-opacity:1" d="m2285.791295.02.980.881.06 4.42-5.13 27.58 5.3 51.8 22.63 60.46 7.6 12.2 1.77 4.6-3.01 35.53-0.7184.85 25.46 81.49v9.02l-34.29 53.74-20.68 13.26-4.6 5.48-10.43 2.3-31.64 9.55-3.18-2.12-11.84-47.38-2.47-1.06-7.07 1.06-39.24-41.01-4.24-6.36-39.6-14.67-22.98 6.01-14.85 10.08-3.18 7.25-51.62 25.99-10.43 8.49-6.36-.18-28.81-11.67-116.32 19.98"/><path style="opacity:1;fill:none;fill-opacity:1;fill-rule:nonzero;stroke:#000;stroke-width:5;stroke-linecap:butt;stroke-linejoin:round;stroke-miterlimit:4;stroke-dasharray:none;stroke-opacity:1" d="m2325.04 1453.75 24.5-14.5 13.5-6.25 10.75-2M2450.29 1721.25l87.75-81.25 12.75-7.5 15.750.2528.25 15.75"/><text x="89.45" y="-243.04" xml:space="preserve" style="font-style:normal;font-weight:400;font-size:144px;line-height:125%;font-family:Sans;-inkscape-font-specification:Sans;letter-spacing:0;word-spacing:0;fill:#000;fill-opacity:1;stroke:none"><tspan x="89.45" y="-243.04">2015</tspan></text><text x="89.45" y="5197.96" xml:space="preserve" style="font-style:normal;font-weight:400;font-size:144px;line-height:125%;font-family:Sans;-inkscape-font-specification:Sans;letter-spacing:0;word-spacing:0;fill:#000;fill-opacity:1;stroke:none"/><path d="m738.77 1461.52-1.98 36.23-1.99 21.83-11.91 39.2-9.68 20.1-10.67 14.39-22.33 17.86-26.3 27.05-41.44 24.56-7.2 7.94-22.83 32.5-2.23 8.19M120.94 2070.91l15.88-6.45 6.20.994.22 3.97 4.47 7.2 3.47 3.47 5.710.745.95-2.23 2.48-5.46-.99-10.17-4.71-24.81 2.98-10.42 16.38-27.79 4.71-3.97M258.15 1954.3l4.71-16.38 2.98-2.23 6.2-0.744.22 2.48 37.71 32.26 5.950.994.22-1.74 1.24-2.73-1.49-6.45-7.69-9.93-19.6-63.27-2.48-14.39-5.71-17.12v-11.41l3.47-12.41.5-10.67-1.99-7.44-.99-4.96 1.74-1.49 4.960.7412.65 12.9 21.59 29.28 15.63 38.46v6.45l1.49 2.48 3.230.252.3-0.961.23-2.98-1.4-15.62 1.75-10.53 29.65-25.97 38.77-19.83 14.39-6.14" style="opacity:1;fill:none;fill-opacity:1;fill-rule:nonzero;stroke:#009ebf;stroke-width:5;stroke-linecap:butt;stroke-linejoin:round;stroke-miterlimit:4;stroke-dasharray:none;stroke-opacity:1"/><path d="m437.39 1815.21 7.19-1.75 5.26 1.93 60.18 28.77 4.39-0.352.81-2.46v-4.56l-9.83-13.69-.35-6.67 3.68-7.37 32.98-38.77 14.21-14.74 18.77-34.04 4.04-11.93M258.15 1952.19l-1.83 3.9-14.56 10.35-30.022.46h-11.23l-12.85 7.08M739.51 1464l-3.47-18.61-5.33-28.16 1.24-7.94 6.08-7.82 28.91-27.05 2.23-5.21-3.1-27.54-.62-31.14-2.73-12.53.5-12.78 7.32-23.2 7.82-29.4 11.79-36.6 7.82-13.27 8.06-15.26 3.6-4.34 12.28-12.03 4.09-0.743.72 2.23 5.33 11.41" style="opacity:1;fill:none;fill-opacity:1;fill-rule:nonzero;stroke:#009ebf;stroke-width:1;stroke-linecap:butt;stroke-linejoin:round;stroke-miterlimit:4;stroke-dasharray:none;stroke-opacity:1"/><path d="m2913.35 1167.8 12.11 9.3 17.55 9.65 2.11 5.26v3.33l-8.95 9.47-9.3 11.58-4.56 7.72-2.11 7.72-10.022.46-9.3 22.46-5.79 20.7-1.58 2.28-3.86 1.93-65.62-13.16-4.13-1.38M2823.42 1285l.63 3.51M2809.66 1277.8l.35 3.33M2664.56 1018.49l-.7-11.76 1.93-10.7-2.63-4.56-6.14-4.74-44.56-10-44.21 1.4-23.86-4.56-23.51-.88-14.04 4.56-7.54 1.05-7.72-1.93-84.04-52.99-.7-4.21 44.21-77.72.7-6.49-.88-5.79-7.19-10.7-3.33-8.42 2.63-10.09-1.49-16.23-5.09-18.51-9.83-12.02-26.93-24.04-1.14-3.33.44-2.81.96-2.81 9.47-12.72 10.61-16.14 7.9-9.39 46.67-33.34 36.49-34.91 9.3-10.35 17.37-12.63 5.79-14.56 5.97-20.7-.35-17.55-4.04-14.21-10-13.16-16.32-14.56-23.86-8.42-5.26-1.93-4.39-11.4-1.4-10.04.39-16.84 5.61-10.35 4.91-4.04 15.26-3.33 46.32 6.14" style="opacity:1;fill:none;fill-opacity:1;fill-rule:nonzero;stroke:#0070b7;stroke-width:1;stroke-linecap:butt;stroke-linejoin:round;stroke-miterlimit:4;stroke-dasharray:none;stroke-opacity:1"/></svg>