<?xml version="1.0" encoding="UTF-8" standalone="no"?>
<svg
   xmlns:dc="http://purl.org/dc/elements/1.1/"
   xmlns:cc="http://creativecommons.org/ns#"
   xmlns:rdf="http://www.w3.org/1999/02/22-rdf-syntax-ns#"
   xmlns:svg="http://www.w3.org/2000/svg"
   xmlns="http://www.w3.org/2000/svg"
   xmlns:xlink="http://www.w3.org/1999/xlink"
   viewBox="-3300 -325 10900 8500"
   height="8500"
   width="10900"
   id="svg2"
   version="1.1">
  <metadata
     id="metadata8">
    <rdf:RDF>
      <cc:Work
         rdf:about="">
        <dc:format>image/svg+xml</dc:format>
        <dc:type
           rdf:resource="http://purl.org/dc/dcmitype/StillImage" />
        <dc:title></dc:title>
      </cc:Work>
    </rdf:RDF>
  </metadata>
  <defs
     id="defs6" />
  <image
     xlink:href="../basemap/ckgosm.png"
     style="display:none"
     width="11155.11"
     height="8513.11"
     preserveAspectRatio="none"
     id="image10"
     x="-3472.67"
     y="-382.45" />
  <path
     id="path4512"
     d="m 3903.38,4290.78 28.04,-41.89 7.09,-11.45 0.92,-8.98 -4.15,-8.37 -57.12,-39.61 -39.96,-28.46 -62.96,-20.58 -49.04,-33.3 -56.91,-13.92 -26.03,5.45 -32.69,-7.27 -42.99,4.84 -30.88,15.14 -39.96,36.93 -25.43,67.2 -25.43,53.88 -46.25,56.69 -9.57,8.39 -34.39,11.2 -29.06,18.77 -42.38,1.21 -71.44,26.64 -12.11,13.93 -24.72,56.08 -18.6,48.68 -36.99,86.71 -0.22,30.72 -23.61,44.8 0.61,18.77 5.45,20.58 48.43,59.94 1.82,12.11 -10.9,128.96 -34.51,57.52 -44.2,127.75 -42.38,27.24 -18.77,3.63 h -8.48 l -19.98,-10.29 -104.13,3.03 -10.9,1.82 -7.87,9.69 -15.14,22.4 -12.71,6.05 -38.14,6.05 -25.43,9.69 -15.14,13.32 -15.74,35.11 9.08,39.96 -1.82,10.9 -9.69,9.08 -21.8,4.24 -20.58,13.92 -29.67,9.08 -12.71,13.92 -15.74,35.72 -9.08,70.23 -1.21,93.84 -7.87,13.92 -17.72,8.52"
     style="fill:none;fill-rule:evenodd;stroke:#0d7238;stroke-width:5;stroke-linecap:butt;stroke-linejoin:round;stroke-miterlimit:4;stroke-dasharray:none;stroke-opacity:1" />
  <text
     x="-3210.55"
     y="-118.04"
     id="text3914"
     xml:space="preserve"
     style="font-style:normal;font-weight:normal;font-size:144px;font-family:Sans;-inkscape-font-specification:Sans;fill:#000000;fill-opacity:1;stroke:none"><tspan
       x="-3210.55"
       y="-118.04"
       id="tspan1">2010</tspan></text>
  <text
     x="7177.45"
     y="8072.96"
     id="text3914-4"
     xml:space="preserve"
     style="font-style:normal;font-weight:normal;font-size:144px;font-family:Sans;-inkscape-font-specification:Sans;fill:#000000;fill-opacity:1;stroke:none"><tspan
       x="7177.45"
       y="8072.96"
       id="tspan2">2010</tspan></text>
  <path
     style="fill:none;fill-rule:evenodd;stroke:#000000;stroke-width:5;stroke-linecap:butt;stroke-linejoin:round;stroke-miterlimit:4;stroke-dasharray:none;stroke-opacity:1"
     d="m 4024.62,4216.98 141.57,77.96"
     id="path5755" />
  <path
     style="fill:none;fill-rule:evenodd;stroke:#000000;stroke-width:5;stroke-linecap:butt;stroke-linejoin:round;stroke-miterlimit:4;stroke-dasharray:none;stroke-opacity:1"
     d="m 3971.06,4051.97 13.91,99.01"
     id="path5823" />

<path
     style="opacity:1;fill:none;stroke:#000000;stroke-width:5;stroke-linejoin:round;stroke-dasharray:none;stroke-opacity:1"
     d="m 1547.41,-71.11 263.37,47.78"
     id="path8116" />
<path
     style="opacity:1;fill:none;stroke:#000000;stroke-width:5;stroke-linejoin:round;stroke-dasharray:none;stroke-opacity:1"
     d="m 1948.39,4053.26 86.2,-86.02"
     id="path8118" />
</svg>
