<?xml version="1.0" encoding="UTF-8" standalone="no"?>
<svg
   xmlns:dc="http://purl.org/dc/elements/1.1/"
   xmlns:cc="http://creativecommons.org/ns#"
   xmlns:rdf="http://www.w3.org/1999/02/22-rdf-syntax-ns#"
   xmlns:svg="http://www.w3.org/2000/svg"
   xmlns="http://www.w3.org/2000/svg"
   xmlns:xlink="http://www.w3.org/1999/xlink"
   version="1.1"
   id="svg2"
   width="5200"
   height="7200"
   viewBox="0 0 5200 7200">
  <metadata
     id="metadata8">
    <rdf:RDF>
      <cc:Work
         rdf:about="">
        <dc:format>image/svg+xml</dc:format>
        <dc:type
           rdf:resource="http://purl.org/dc/dcmitype/StillImage" />
        <dc:title></dc:title>
      </cc:Work>
    </rdf:RDF>
  </metadata>
  <defs
     id="defs6" />
  <image
     xlink:href="../streetmap/ckgosm.png"
     y="-88.888672"
     x="50"
     id="image10"
     preserveAspectRatio="none"
     height="7338.8887"
     width="5284"
     style="display:none" />
  <path
     style="fill:none;fill-rule:evenodd;stroke:#f1598c;stroke-width:5;stroke-linecap:butt;stroke-linejoin:round;stroke-miterlimit:4;stroke-dasharray:none;stroke-opacity:1"
     d="m 2084.851,99.263327 -12.9435,17.195513 -133.5706,85.1222 -53.6289,57.2442 -22.945,46.21502 -66.6159,29.7577 -107.0627,17.75167 -28.6248,-0.66337 -32.0218,21.35524 -42.0667,45.689 -27.8497,33.29866 -18.163,36.32582 -3.6326,44.80183 15.7412,46.0127 45.1463,53.02398 66.5573,65.70844 62.4654,84.61565 177.586,148.40691 303.9259,236.11781 74.2581,79.9513 95.1535,77.4725 36.5998,40.8998 58.1139,34.387 31.6611,15.207 83.0056,28.3762 98.8736,7.8247 154.0266,39.0139 28.9332,13.4154 18.7935,23.8688 -0.4805,19.4782 -11.8848,32.323 -13.8456,60.8692 -24.0049,73.4341 -7.4845,102.8529 12.1208,29.9341 31.6508,47.9097 6.1794,33.7893 -4.0718,46.6747 -12.7746,39.185 -18.4387,28.0103 -114.2116,112.367 -7.3064,18.8997 1.843,19.4678 11.2588,46.8531 15.0285,20.7972 44.5563,35.5184 11.811,19.6157 5.7601,104.4039 -15.6989,74.0434 -18.2713,29.7589 -56.175,82.932 -35.0073,63.3686 -2.5594,25.3947 1.7032,89.3371 -13.6993,78.7711 -48.8039,217.4769 -0.8561,55.6534 12.843,39.3856 7.22,15.6153 13.3876,13.0066 11.9316,7.5943 48.8978,7.2744 27.2867,-3.8287 42.6226,-13.2181 25.212,-7.0392 29.3419,-3.246 21.4069,8.7512 18.7806,14.1197 16.5134,21.6876 7.5902,23.0204 0.3704,65.2426 -8.5621,453.79 10.2745,23.9739 23.9738,21.4052 23.9738,5.1372 194.3592,-4.281 53.941,-9.4183 107.026,-36.817 47.9476,-24.8299 31.8373,-9.5155 61.4894,6.0906 40.2417,28.2548 21.4053,11.9869 56.6763,22.8261 33.3227,-0.1943 40.524,-6.5489 172.0978,-5.1373 15.8884,5.3224 8.5621,6.8497 38.5293,77.0587 v 70.209 l 5.9935,19.6927 16.2679,17.9805 30.8234,19.6927 15.4997,26.5425 40.339,100.1855 5.7899,11.4038 7.0164,8.8353 64.5071,31.2029 39.0063,7.9868 151.4881,50.1566 28.1176,11.9551 411.8414,266.3921 66.6205,61.9504 93.4153,69.6901 60.1414,26.6782 101.8887,41.9541 25.6863,14.5556 18.8365,25.6862 7.7058,27.3987 v 28.2548 l -43.6665,102.7449 -17.9804,65.0717 -116.4442,175.5227 -29.9673,50.5163 -42.8103,82.1959"
     id="path4506" />
  <path
     style="fill:none;fill-rule:evenodd;stroke:#f1598c;stroke-width:5;stroke-linecap:butt;stroke-linejoin:round;stroke-miterlimit:4;stroke-dasharray:none;stroke-opacity:1"
     d="m 2778.3019,2523.8445 41.5415,-31.3154 74.4679,-3.0272 69.0191,3.0272 56.9104,17.5574 45.1903,20.6307 76.0002,13.3219 28.9843,-4.7427 23.302,-12.1226 47.8328,-36.3155 34.6904,-29.0327 58.0094,-68.7261 18.0863,-31.7118 4.5095,-33.6046 -6.1028,-34.85 -64.5656,-235.8371 0.4555,-40.4261 13.9219,-31.4914 38.8482,-63.2044 35.9219,-34.3388 37.2775,-13.348 50.5011,-29.9797 46.7491,-48.1763 21.8096,-41.6217 18.9876,-56.2145 3.4134,-46.4129 -5.1151,-48.3476"
     id="path4508" />
  <path
     style="fill:none;fill-rule:evenodd;stroke:#d70c20;stroke-width:5;stroke-linecap:butt;stroke-linejoin:round;stroke-miterlimit:4;stroke-dasharray:none;stroke-opacity:1"
     d="m 4033.1256,4186.5229 -12.7141,24.2172 -26.6249,24.7321 -26.9547,23.9545 -49.3435,29.4139 -24.8226,1.2109 -20.5846,-3.6326 -101.5033,-27.4113 -22.6883,-2.2615 -258.4403,52.0737 -26.4953,10.4244 -14.2011,11.9768 -25.836,24.8321 -20.3874,4.7101 -66.8468,7.504 -18.1691,11.931 -42.2624,57.9616 -34.0616,33.5287 -29.7336,13.1968 -32.5925,-1.7016 -38.7475,-4.238 -69.6245,13.3194 -101.1069,62.3594 -65.9919,1.8163 -181.755,44.9969 -56.026,14.2587 -43.0098,-2.2025 -39.353,-14.8922 -43.591,-27.3349 -70.9641,-42.0703 -10.2923,-10.2924 -4.4049,-21.7955 2.3834,-20.2889 31.9208,-52.9681 30.7482,-56.4618 4.6457,-26.7321 -4.7119,-19.886 -16.7711,-27.3974 -77.7143,-45.7029 -50.8561,-3.6326 -23.6118,-7.2652 -29.6661,-13.9249 -76.3803,-56.296 -48.9437,-52.076 -10.8978,-18.7683 -1.2108,-59.9376 14.5303,-34.5096 4.2381,-57.5159 -9.6869,-38.7475 6.0542,-34.5095 -20.5846,-68.4136 -9.6869,-62.3594 12.38,-83.7443 19.1929,-48.4064 4.586,-19.1545 -2.8602,-27.5681 -9.6869,-19.1023 -15.7412,-24.2172 -4.8434,-10.2924 -2.4217,-102.9231 -7.8707,-12.714 -26.6389,-26.6389 -22.4009,-17.5575 -28.4552,-14.5304 -53.6954,-9.482 -122.5461,3.9354 -58.1804,8.948 -83.041,23.0464 -126.5296,25.6192 -128.7445,24.2172 -41.7748,3.6326 -199.7919,4.2381 -42.3801,7.8706 -226.43094,1.2109 -36.93124,3.0271 -96.26341,29.0606 -43.59098,4.238 -169.52743,-3.4513 -509.76531,1.635"
     id="path4510" />
  <path
     style="fill:none;fill-rule:evenodd;stroke:#00823a;stroke-width:5;stroke-linecap:butt;stroke-linejoin:round;stroke-miterlimit:4;stroke-dasharray:none;stroke-opacity:1"
     d="m 3905.9853,4290.6569 25.428,-41.7747 v -12.714 l -3.1033,-17.1852 -50.1746,-38.5144 -39.9583,-28.4552 -62.9648,-20.5846 -49.0398,-33.2987 -56.9104,-13.9249 -26.0336,5.4488 -32.6932,-7.2651 -42.9856,4.8434 -30.8769,15.1358 -39.9584,36.9312 -25.4281,67.2028 -25.428,53.8833 -47.2236,62.3593 -42.9855,13.9249 -29.0607,18.7683 -42.3801,1.2109 -71.4408,26.6389 -12.1085,13.925 -30.877,61.7538 -14.5304,42.9855 -36.3257,85.3657 1.2108,32.0879 -23.6117,44.8018 0.6053,18.7683 5.4489,20.5847 48.4344,59.9375 1.8164,12.1087 -10.8978,128.9565 -34.5096,57.5159 -44.1963,127.7458 -42.3801,27.2444 -18.7684,3.6326 h -8.4761 l -19.9791,-10.2923 -104.134,3.0271 -10.8978,1.8163 -7.8706,9.6869 -15.1357,22.4009 -12.7141,6.0543 -38.1421,6.0544 -25.428,9.6868 -15.1358,13.3195 -15.7412,35.1149 9.0814,39.9584 -1.8162,10.8978 -9.6869,9.0815 -21.7955,4.238 -20.5846,13.9248 -29.6661,9.0815 -12.714,13.9249 -15.7412,35.7203 -9.0815,70.23 -1.2109,93.8417 -7.8705,13.9249 -31.4824,15.1358 -32.6933,30.8768 -4.238,18.1629 5.4489,75.6788 4.8435,28.4552 -1.8163,42.3802 23.6118,79.3114 6.6597,67.2027 6.0543,157.4119 4.8435,30.877 10.8977,29.0605 21.7955,35.7205 147.725,182.8399 13.9249,34.5095 21.7954,34.5096 2.4218,24.2172 1.8162,39.3529 10.2923,15.7412 16.9522,13.3194 59.3321,42.9856 11.5032,23.0063 5.4488,23.6118 15.7412,163.4662 -0.6054,115.6372 7.8706,101.1068 9.6869,29.0607 9.0814,13.3195 12.1086,7.2651 h 40.2612"
     id="path4512" />
  <path
     style="fill:none;fill-rule:evenodd;stroke:#1c3379;stroke-width:5;stroke-linecap:butt;stroke-linejoin:round;stroke-miterlimit:4;stroke-dasharray:none;stroke-opacity:1"
     d="m 4771.1451,1751.4824 -39.353,-10.8977 -10.2923,2.4217 -7.9088,7.6896 -6.0161,41.9557 -41.7747,141.6707 -25.4281,38.1421 -51.4616,50.8561 -30.8768,23.0064 -75.6788,26.6389 -37.5367,6.0543 -96.2634,85.3657 -49.0399,47.2235 -82.9439,46.6181 -12.714,-2.4216 -17.5576,-18.7684 -22.4009,-13.9249 h -93.8416 l -17.5575,-6.0543 -61.7539,-17.5574 h -23.0063 l -21.7956,6.6596 -21.19,10.2924 -72.6516,65.9919 -20.5847,27.8497 -95.6579,169.5205 -10.2923,37.5368 -6.0544,125.324 -8.476,59.3322 1.8163,29.0605 12.1086,39.9585 41.1693,68.4136 32.6932,41.7747 84.1548,100.5014 4.8434,16.9521 -4.8434,10.2923 -10.8977,12.714 -165.2825,90.2091 -78.706,29.6661 -23.7036,12.3552 -13.8611,28.0174 -7.237,43.7822 -11.5033,344.4898 -6.0543,13.9249 -13.3194,6.6598 -69.019,-2.4218 -107.1613,-24.8226 -21.19,1.2108 -59.9375,19.3738 -39.9585,-4.238 h -14.5303 l -18.7683,10.8978 -12.714,17.5574 v 20.5847 l 7.2651,24.2172 12.1086,27.2443 46.6182,141.6707 48.4344,93.2362 8.476,32.6933 75.6788,113.8208 7.2651,24.8227 v 25.4281 l -5.4489,27.2443 3.0272,17.5575 9.4816,10.2542 54.0961,21.7329 8.4685,8.5768 5.4488,9.0814 20.5847,36.9313 39.9584,38.1421 21.19,13.3194 11.5033,6.6598 7.8705,10.8977 5.4489,14.5303 5.4489,208.8734 7.2651,29.0607 31.4825,23.6118 69.6244,19.9792 50.2507,-0.6054 20.5846,11.5032 150.1467,184.6562 8.476,13.9249 v 13.3194 l -16.3466,51.4616 v 16.952 l -21.7955,78.1006 v 18.1628 l 5.4489,52.6725 -15.7411,67.8082 15.7411,84.1548 -2.4217,31.4823 -26.639,79.3114 -12.714,50.2507 -15.1358,22.4009 -74.4679,79.9168 -3.6325,15.7412 -23.0063,90.8146 5.4488,81.1277 -6.0543,18.1628 -49.6453,85.3657 -16.3466,47.2236 -32.0878,67.8081 -18.7683,91.42 -38.1421,58.7268 -4.8435,41.7746 7.8706,46.0127 -3.6325,20.5847 -7.2653,21.19 -35.1149,39.9584 -7.8706,20.5847 -10.8977,90.8144 -30.2715,79.9168 -10.2924,326.327 -55.0941,293.0282 -9.6869,6.0543 -79.3113,-2.4217 -18.7684,-5.4489 -71.4407,1.8163 -39.9585,21.7955 -10.8977,1.2109 -53.8833,-26.639 -24.2172,-15.7411 -46.6181,-1.8164 -60.5798,32.4824 -35.2923,-0.2539"
     id="path4514" />
  <text
     style="font-style:normal;font-weight:normal;font-size:144px;font-family:Sans;-inkscape-font-specification:Sans;fill:#000000;fill-opacity:1;stroke:none"
     xml:space="preserve"
     id="text3914"
     y="206.96094"
     x="89.453117"><tspan
       id="tspan1"
       y="206.96094"
       x="89.453117">2015</tspan></text>
  <text
     style="font-style:normal;font-weight:normal;font-size:144px;font-family:Sans;-inkscape-font-specification:Sans;fill:#000000;fill-opacity:1;stroke:none"
     xml:space="preserve"
     id="text3914-4"
     y="7097.9609"
     x="89.453117"><tspan
       id="tspan2"
       y="7097.9609"
       x="89.453117">2015</tspan></text>
  <path
     id="path5755"
     d="m 4024.623,4216.9779 141.5686,77.9584"
     style="fill:none;fill-rule:evenodd;stroke:#000000;stroke-width:5;stroke-linecap:butt;stroke-linejoin:round;stroke-miterlimit:4;stroke-dasharray:none;stroke-opacity:1" />
</svg>
