<svg xmlns="http://www.w3.org/2000/svg" viewBox="0, 30, 6050, 5650" height="5650" width="6050"><path d="M4702.248 3600.496l-51.318-7.185-100.584-16.421-35.923 8.21-18.475 17.449-93.4 95.452-9.237 20.527 2.053 63.635-5.132 11.29-71.845 33.87-50.292 1.027-124.19-64.661-29.765-2.053-14.37 8.21h-183.72l-36.948 4.106-54.398-1.026-21.554-8.211-16.422-24.633-12.316-40.028 2.053-15.396 9.237-18.474v-42.081l1.026-81.083-4.105-13.343-11.29-9.237-167.298-1.027h-18.475l-20.527 9.237h-127.27l-132.4 9.238-20.528 10.263-13.343 20.528 1.027 35.923" fill="none" stroke="#f60" stroke-width="5" stroke-linejoin="round"/><path d="M5662.928 2790.692l-83.136 92.373-50.292 47.213-132.401 118.033-28.739 32.843-79.03 101.61-58.503 51.319-153.955 69.793-39.002 28.738-99.557 40.029-81.084 82.109-99.557 100.584-29.765 32.844-26.172 17.961" fill="none" stroke="#00f" stroke-width="5" stroke-linejoin="round"/><path d="M4702.248 3606.141l-149.85-24.12-34.896 7.185-110.335 111.36-8.724 17.962 2.053 67.74-6.158 10.264-70.82 34.897-57.476 2.052-123.164-64.66-27.199-2.053-12.83 7.184-188.851 1.026-21.554 3.08-65.687 1.026-26.686-10.264-17.448-25.659-13.343-41.055 2.566-19.5 8.724-16.936 1.027-122.65-3.08-9.751-7.184-6.671-183.72-2.053-21.04 9.237H3438.79l-132.401 9.237-17.449 9.238-12.466 18.687 1.69 33.144" fill="none" stroke="#00f" stroke-width="5" stroke-linejoin="round"/><path d="M4699.169 3599.47l29.765 10.263 50.292 22.58 39.002 23.607 36.949 16.422 14.369 18.474 15.395 7.185h266.856l46.186 4.105 46.187 21.554 44.134 17.448 108.795 4.106M3272.519 3604.088v24.12l-6.159 16.422-14.369 12.316-60.556 6.159-64.66 8.21-44.134 19.501-125.217 67.74-84.162 45.16-20.528 7.185-42.08-1.026-19.502 5.132-32.843 1.026" fill="none" stroke="#f60" stroke-width="5" stroke-linejoin="round"/><path d="M3278.164 3602.549l-1.027 30.79 1.54 34.897 8.21 12.317 33.87 22.58 29.765 39.002 28.739 60.555 47.213 64.662 33.87 43.107 22.58 24.633 17.448 24.633 5.132 14.369-3.08 10.263-30.79 34.897-24.633 25.66-25.66 35.922-10.263 36.95-3.079 35.922 7.185 22.58 16.421 15.396 32.844 5.131 56.45-8.21 28.739-6.159 20.527 11.29 15.396 27.712 12.316 43.108" fill="none" stroke="#00f" stroke-width="5" stroke-linejoin="round"/><path d="M3760.043 2108.158l54.397 71.846 33.87 61.582 107.77 248.38 18.474 31.818 36.949 42.081 43.107 52.345 49.266 148.823 76.978 238.117 13.342 78.004-4.105 59.53-14.37 60.555-16.421 52.345-26.686 52.345-47.213 122.137-17.448 63.635-20.527 30.791-15.396 53.371-10.055 31.852-11.324 10.838-62.157.366-10.681-6.037-51.527-45.23-14.369-3.079-152.929 2.053-34.896-16.422-16.422-12.316-40.028-88.268-29.765-64.661" fill="none" stroke="red" stroke-width="5" stroke-linejoin="round"/><text style="-inkscape-font-specification:Sans" y="236.96094" x="89.453125" font-size="144px" font-weight="400" font-family="Sans"><tspan y="236.96094" x="89.453125">1980</tspan></text><text style="-inkscape-font-specification:Sans" y="5577.9609" x="89.453125" font-size="144px" font-weight="400" font-family="Sans"/><path d="M4022.482 3680.767h5.142l7.577-20.568h25.769" fill="none" stroke="#000" stroke-width="5" stroke-linejoin="round"/></svg>