<?xml version="1.0" encoding="UTF-8" standalone="no"?>
<svg
   xmlns:dc="http://purl.org/dc/elements/1.1/"
   xmlns:cc="http://creativecommons.org/ns#"
   xmlns:rdf="http://www.w3.org/1999/02/22-rdf-syntax-ns#"
   xmlns:svg="http://www.w3.org/2000/svg"
   xmlns="http://www.w3.org/2000/svg"
   xmlns:xlink="http://www.w3.org/1999/xlink"
   viewBox="0 0 2200 1650"
   height="1650"
   width="2200"
   id="svg2"
   version="1.1">
  <metadata
     id="metadata8">
    <rdf:RDF>
      <cc:Work
         rdf:about="">
        <dc:format>image/svg+xml</dc:format>
        <dc:type
           rdf:resource="http://purl.org/dc/dcmitype/StillImage" />
        <dc:title></dc:title>
      </cc:Work>
    </rdf:RDF>
  </metadata>
  <defs
     id="defs6" />
  <image
     style="display:none"
     y="63.529297"
     x="-2475"
     id="image10"
     xlink:href="file:///home/lexande/timelines/timelines/streetmap/../streetmap/takosm.png"
     preserveAspectRatio="none"
     height="2786.4707"
     width="4737" />
  <path
     id="path836"
     d="m 171.7797,1265.2541 162.7118,40.339 20,2.7119 22.0339,-1.356 31.1865,-11.5254 13.5593,-9.4915 6.4407,-12.5424 12.2034,-38.6441 24.0678,-149.4915 64.4067,-444.4068 12.8814,-83.0508 -2.0339,-15.5932 -2.7119,-27.7967 1.017,-12.2033 25.0847,-44.0678 0.678,-10.1695 -7.3338,-26.818 -0.7191,-12.4643 25.4079,-116.9722 -2.397,-9.3482 -11.0261,-11.5055 -13.6627,-4.0748 -23.9697,-1.6779 -9.8276,-6.4718 -4.5542,-7.4306 -0.2397,-20.8537"
     style="opacity:1;fill:none;fill-opacity:1;fill-rule:nonzero;stroke:#ffb20e;stroke-width:5;stroke-linecap:butt;stroke-linejoin:round;stroke-miterlimit:4;stroke-dasharray:none;stroke-opacity:1" />
  <path
     id="path838"
     d="m 519.8968,230.349 0.2397,19.4155 3.236,5.1535 7.91,5.2733 23.2506,1.7978 15.4605,4.9137 12.7039,13.0635 2.9962,11.6254 -25.4079,116.6126 0.7191,12.4643 3.2796,11.3971 4.3907,7.0596 9.8276,4.3145 35.9546,5.0337 10.307,6.2321 58.7258,96.1186 10.307,13.6627 11.2657,10.307 188.4021,125.3617 9.3481,10.0672 5.7528,11.2658 46.0218,130.635 15.5804,77.4222 8.3894,9.1085 10.7863,4.7939 28.2843,1.6779 52.0143,19.8949 50.5761,14.3818 13.6628,9.8276 31.64,39.0706 6.2321,6.2322 23.9697,7.6703 7.6704,7.1909 70.2312,99.714 17.2582,18.6964 36.6737,32.3591 93.9613,159.6384 30.4416,34.9958 10.3069,6.9512 273.974,94.4407 33.0782,15.3407 16.2994,5.2733 14.1421,3.3558 242.5736,0.4793"
     style="opacity:1;fill:none;fill-opacity:1;fill-rule:nonzero;stroke:#00a152;stroke-width:5;stroke-linecap:butt;stroke-linejoin:round;stroke-miterlimit:4;stroke-dasharray:none;stroke-opacity:1" />
  <path
     id="path840"
     d="m 566.0386,402.931 17.0185,-3.8351 4.7939,-5.2734 8.6291,-17.2582 5.0337,-4.5542 7.4306,-1.9176 38.1118,-1.6779 29.7225,6.9512 12.2245,10.0673 23.4904,9.8276 15.82,3.1161 23.4903,2.1572 8.6291,-3.3557 7.4306,-6.7115 10.307,-7.9101 12.4643,-5.9924 85.3322,0.2397 116.0134,6.9512 71.6695,8.6291 12.9436,3.5955 9.1085,-0.7191 79.1001,-30.6812 63.5198,6.7115 37.153,15.3406 48.6586,-3.5955 25.1682,-5.0336 35.4752,-20.1346 53.4524,-32.8385 27.5652,-0.9588 117.212,17.7376 9.3482,3.5955 29.9621,29.0033 21.8125,24.4492 30.6812,29.9621 30.9209,11.5055 10.5467,0.7191 44.1043,1.6778 37.3928,11.2658 11.9848,1.9176 88.688,10.0673 11.2658,4.5542 5.9924,6.2322 1.6779,5.9924 -1.4382,6.2321 -5.513,5.7527 -1.9176,5.7528 0.2397,5.513 7.6703,16.7788 39.55,47.6998 12.704,23.9697 6.7115,8.6291 26.127,23.0109 70.471,36.9134 23.73,0.7191"
     style="opacity:1;fill:none;fill-opacity:1;fill-rule:nonzero;stroke:#f84d81;stroke-width:5;stroke-linecap:butt;stroke-linejoin:round;stroke-miterlimit:4;stroke-dasharray:none;stroke-opacity:1" />
  <path
     id="path1393"
     d="m 1584.0682,164.36865 79.5495,-48.43681"
     style="opacity:1;fill:none;fill-opacity:1;fill-rule:nonzero;stroke:#3eb1c6;stroke-width:5;stroke-linecap:butt;stroke-linejoin:round;stroke-miterlimit:4;stroke-dasharray:none;stroke-opacity:1" />
  <text
     x="89.453133"
     y="206.96094"
     id="text2838-3"
     xml:space="preserve"
     style="font-style:normal;font-weight:normal;font-size:143.99990845px;font-family:Sans;-inkscape-font-specification:Sans;fill:#000000;fill-opacity:1;stroke:none"><tspan
       x="89.453133"
       y="206.96094"
       id="tspan1">2015</tspan></text>
</svg>
