<?xml version="1.0" encoding="UTF-8" standalone="no"?>
<svg
   xmlns:dc="http://purl.org/dc/elements/1.1/"
   xmlns:cc="http://creativecommons.org/ns#"
   xmlns:rdf="http://www.w3.org/1999/02/22-rdf-syntax-ns#"
   xmlns:svg="http://www.w3.org/2000/svg"
   xmlns="http://www.w3.org/2000/svg"
   xmlns:xlink="http://www.w3.org/1999/xlink"
   version="1.1"
   id="svg2"
   width="3550"
   height="2600"
   viewBox="0 0 3550 2600">
  <metadata
     id="metadata8">
    <rdf:RDF>
      <cc:Work
         rdf:about="">
        <dc:format>image/svg+xml</dc:format>
        <dc:type
           rdf:resource="http://purl.org/dc/dcmitype/StillImage" />
        <dc:title></dc:title>
      </cc:Work>
    </rdf:RDF>
  </metadata>
  <defs
     id="defs6" />
  <image
     style="display:none"
     width="7040.5708"
     height="3911.428"
     preserveAspectRatio="none"
     xlink:href="file:///home/lexande/timelines/timelines/streetmap/../streetmap/bfsosm.png"
     id="image10"
     x="-3575"
     y="38.572021" />
  <path
     style="opacity:1;fill:none;fill-opacity:1;fill-rule:nonzero;stroke:#004b8e;stroke-width:5;stroke-linecap:butt;stroke-linejoin:round;stroke-miterlimit:4;stroke-dasharray:none;stroke-opacity:1"
     d="m 1082.515,1260.3856 -21.356,8.0678 -32.2712,18.0339 -12.5762,8.7796 -6.4068,10.4407 v 9.9661 l 3.5593,10.9152 7.8305,7.356 55.0509,24.4407 12.1017,-0.2373 30.3729,-7.1187 15.4237,0.4746 19.6949,5.9322 19.4576,-0.4746 15.8983,-5.6949 16.1356,-12.5763 43.4238,-58.6101 6.1694,-12.1017 0.4746,-23.017 -3.9943,-13.5681 8.3894,-39.598 4.3625,-6.3759 32.2153,-24.1615 11.074,-5.3692 29.8663,-6.7115 28.1884,-8.3894 46.6451,-3.0202 33.222,-6.7115 35.2355,-12.0808 48.9941,-22.148 34.8999,-29.5307 65.1018,-51.0076 34.2287,-34.5643 35.5711,-41.9469 27.1817,-43.2893 146.6467,-235.2389 37.5846,-67.1152 28.5239,-44.9672 20.8058,-25.8394 29.8662,-20.8057 32.5509,-14.0942 52.0143,-11.7452 43.6249,-12.4163 31.5442,-15.4365 13.423,-7.3827 29.1951,-20.4701 34.2288,-31.8797 32.5509,-22.4836 22.148,-10.7385 40.9403,-14.7653 151.3448,-66.7797 43.2893,-8.7249 34.2288,-9.3962 23.8259,-12.4163 28.8595,-18.4567 c 0,0 35.9067,-31.8797 35.9067,-33.222 0,-1.3423 30.5374,-30.5374 30.5374,-30.5374 l 17.7855,-17.45 22.4836,-15.7721 24.8326,-6.7115 26.8461,-1.6779 25.8394,8.0538 36.9134,23.4904 56.0412,38.5912 20.4701,11.074 25.1682,6.376 30.873,2.0134 25.8394,-8.3894 40.9403,-24.497 34.5643,-14.7654 43.6249,-8.3894 41.6114,4.3625 46.6451,17.7856 24.1615,19.4634 19.1278,20.1345 21.1413,50.672 18.1211,22.1481 11.7452,9.7317 13.7586,7.7182 20.4702,7.0471 20.1345,1.3423 30.2019,-2.6846 24.497,-9.7317 49.6653,-32.8865"
     id="path836" />
  <path
     id="path840"
     d="m 1016.3116,1295.2669 -20.4295,24.1521 -20.1346,25.1683 -12.4163,23.1547 -14.4298,32.5509 -11.074,45.6383 -8.725,37.9201 -12.7519,30.5375 -21.8124,40.9402 -16.1077,22.4836 -24.1615,29.8663 -30.5374,29.1951 -27.8528,19.1279 -43.6249,27.1816 -44.296,16.7788 -51.0076,19.1279 -28.524,18.1211 -43.9604,35.5711 -21.4769,28.8595 -80.2027,103.0219 -74.1623,79.1959 -18.1211,28.8596 -23.8259,39.9335 -49.3297,80.5383 -46.3095,76.1758 -16.7788,50.0008 -6.0404,34.2288 8.0538,69.7998 0.3356,22.4836 -6.7115,28.524 -15.4365,27.1816 -24.4971,22.1481 -19.4634,10.7384 -113.4247,27.1817 -166.4457,34.5643 -68.4576,18.1211 -372.1539,103.693 -327.1867,59.397 -471.4844,102.3507 -157.3852,25.5038 -50.3364,1.3423 -217.7889,-20.4702 -50.672,2.6846 -62.4171,7.0471 -84.2296,19.1279 -65.4374,22.8192 -51.3431,22.4836 -82.8873,52.3498 -102.3507,85.5719 -148.9958,124.1632 -72.1489,40.2691 -57.7191,20.8057 -324.502,117.4517 -83.5585,44.9672 -43.9605,25.1682 -113.7603,72.4844 -38.9268,32.8865 -121.4785,131.5458 -131.2103,154.365 -31.8797,32.8865 -28.1884,24.497"
     style="opacity:1;fill:none;fill-opacity:1;fill-rule:nonzero;stroke:#004b8e;stroke-width:5;stroke-linecap:butt;stroke-linejoin:round;stroke-miterlimit:4;stroke-dasharray:none;stroke-opacity:1" />
  <text
     style="font-style:normal;font-weight:normal;font-size:143.99993896px;line-height:125%;font-family:Sans;-inkscape-font-specification:Sans;letter-spacing:0px;word-spacing:0px;fill:#000000;fill-opacity:1;stroke:none"
     xml:space="preserve"
     id="text3769"
     y="206.96094"
     x="89.453133"><tspan
       id="tspan1"
       y="206.96094"
       x="89.453133">2005</tspan></text>
</svg>
