<?xml version="1.0" encoding="UTF-8" standalone="no"?>
<svg
   xmlns:dc="http://purl.org/dc/elements/1.1/"
   xmlns:cc="http://creativecommons.org/ns#"
   xmlns:rdf="http://www.w3.org/1999/02/22-rdf-syntax-ns#"
   xmlns:svg="http://www.w3.org/2000/svg"
   xmlns="http://www.w3.org/2000/svg"
   xmlns:xlink="http://www.w3.org/1999/xlink"
   version="1.1"
   width="3000"
   height="4000"
   viewBox="0, 0, 3000, 4000"
   id="svg2">
  <metadata
     id="metadata8">
    <rdf:RDF>
      <cc:Work
         rdf:about="">
        <dc:format>image/svg+xml</dc:format>
        <dc:type
           rdf:resource="http://purl.org/dc/dcmitype/StillImage" />
        <dc:title></dc:title>
      </cc:Work>
    </rdf:RDF>
  </metadata>
  <defs
     id="defs6" />
  <image
     xlink:href="../streetmap/yycosm.png"
     id="image10"
     height="3819.272"
     width="3182.7271"
     y="230.728"
     x="-104.362"
     style="display:none" />
  <path
     d="M 1581.5,1582.4068 V 1570 l -7,-22.5 -4,-12 V 1513 l -1.5,-45.5 -5,-37.5 -5.5,-17.5 -13,-10.5 -17,-3 -10,-3.5 -27.5,-25.5 -9,-3.5 h -42 l -14.5,-5.5 -18,-8.5 -36.5,1.5 -7.5,-4 -1,-12 -1.5,-10 -5.5,-5 -10,-3 -31,-1.5 -8.5,-0.5 -11.5,-9.5 -7,-13 -30.5,-61 -24.5,-44.5 -31,-60.5 -24,-44.5 -19,-26.5 -25.5,-27 -44,-34 -18,-19.5 -15,-24 -12,-11.5 -60,-59 -59.5,-57 -38,-32 L 838.15096,765.98502 370.9539,456.6733"
     id="path2987"
     style="fill:none;stroke:#ee2e22;stroke-width:5;stroke-linecap:butt;stroke-linejoin:round;stroke-miterlimit:4;stroke-dasharray:none;stroke-opacity:1" />
  <path
     d="m 1850,1642.5 6,10.5 -4.5,12.5 -8.5,19.5 -18,27 -2,10 -0.5,30.5 0,21.5 -5,56.5 -2,55 -6.5,28.5 3.5,22 2.5,25 -1.5,21 3,15 4.5,11.5 -2.5,8.5 -25,55 -2,19.5 -3.5,15 -11.5,15 -5,18 -7,98 -9.5,103 -7,71 -10,96.5 -4,15.5 -57,134.5 -7.5,20 -7,31 -20.5,101.5 -3,33 2,28.5 24,186.5 31.5,136.5 5.5,25 9,82 -2.5,65 -33,105 -4.5,21 4,20.5 26,119.5 3,30.5 -1,81 0.5,93.5 8.5,42 8,27"
     id="path3757"
     style="fill:none;stroke:#ee2e22;stroke-width:5;stroke-linecap:butt;stroke-linejoin:round;stroke-miterlimit:4;stroke-dasharray:none;stroke-opacity:1" />
  <text
     style="font-style:normal;font-weight:normal;font-size:143.99990845px;line-height:125%;font-family:Sans;-inkscape-font-specification:Sans;letter-spacing:0px;word-spacing:0px;fill:#000000;fill-opacity:1;stroke:none"
     xml:space="preserve"
     id="text3790"
     y="206.96094"
     x="89.453133"><tspan
       id="tspan1"
       y="206.96094"
       x="89.453133">2010</tspan></text>
  <path
     style="fill:none;stroke:#00447b;stroke-width:5;stroke-linecap:butt;stroke-linejoin:round;stroke-miterlimit:4;stroke-dasharray:none;stroke-opacity:1"
     id="path4493"
     d="m 1871.5,1639.25 4,-6.25 1,-20.5 7,-6 17.5,-14.5 18.5,-5.5 19,5 15,4 38,1.5 11,4 23,12.5 15.5,3.5 34,-1 42,6.5 22,1.5 34.5,-5 19.5,-6.5 24,-3 23,3 16,5.5 40,24.5 22,9.5 13.5,3 25,1.5 23.5,-0.5 15.5,-4.5 26,-11.5 19.5,-16 38,-33.5 26.5,-22 30,-11.5 14.5,-3.5 8.5,-5.5 2.5,-11 v -34.1576 L 2561.2509,949.72824 2563,796.5 l 7.5,-33 13.5,-37.5 38.6676,-56.39024" />
  <path
     style="fill:none;stroke:#ee2e22;stroke-width:1px;stroke-linecap:butt;stroke-linejoin:round;stroke-opacity:1"
     id="path3765"
     d="m 1852.7503,1645.2505 -6.4063,-3.7491 -260.7479,-12.3503 -7.7441,-4.9006 -0.5212,-7.1949 0.5297,-6.6208 3.7076,-7.1504 v -23.8348" />
  <path
     style="fill:none;stroke:#00447b;stroke-width:1px;stroke-linecap:butt;stroke-linejoin:round;stroke-opacity:1"
     id="path3767"
     d="m 1872.5003,1638.0005 -5.75,2.25 -17.6207,0.4373 -293.0347,-13.9701" />
</svg>
