<svg xmlns="http://www.w3.org/2000/svg" height="3050" width="1700"><path d="M1369 91.5l-52 17-22 22-22 26-52 43-24 52-11 69-1 62 1 53 1 38-35 55-2 39 11 45-8 30-25 68-55 58-7 26-9 21-28 28-7 43-13 21-23 15-5 34-12 73-12 63 5 23 19 15 75 26 15 17 9 15-5 22-75 186-1 25-106 262-14 70-68 460-21 75-29 97-52 50-45 50-37 63-87 66-63 48-10 17-16 68-11 19-44 19-37.5 13-64.5 45-57.5 32-51.5 15-74 45" fill="none" stroke="#004385" stroke-width="5" stroke-linejoin="round"/><path d="M289 1336.5l28 13 18 3 74-4 11-7 48-34 17-7h22l100 28 13 15 17 37 16 12 21 1 92 4 28 9 45 32 20 9 118 44" fill="none" stroke="#f96d19" stroke-width="5" stroke-linejoin="round"/><path d="M294 962.5v254l7 124" fill="none" stroke="#feb519" stroke-width="5" stroke-linejoin="round"/><path d="M1138 671.5l109 63 152 49" fill="none" stroke="#a7be20" stroke-width="5" stroke-linejoin="round"/><text style="line-height:125%;-inkscape-font-specification:Sans" y="206.96094" x="89.453171" font-weight="400" font-size="143.99993896px" font-family="Sans" letter-spacing="0" word-spacing="0"><tspan y="206.96094" x="89.453171">2020</tspan></text><path d="M1279.41 1566.38l12.314-2.053 108.78-84.56" fill="none" stroke="#6e2b8c" stroke-width="5" stroke-linejoin="round"/><path d="M1420.617 1701.02l57.058-53.364 118.63 28.324" fill="none" stroke="#eb128a" stroke-width="5" stroke-linejoin="round"/></svg>