<svg xmlns="http://www.w3.org/2000/svg" height="800" width="2550"><path d="M1098.098 319.486l84.568-50.563 24.45-8.15 103.548-20.134 133.272-4.314 119.37-28.285 23.01-.479 11.985 5.273 20.614 22.532 14.382 12.944 13.423 3.355 14.382-.959 92.043-37.392 49.857-48.899 11.506-4.314h7.67l11.985 6.232 160.597 131.834 9.588 15.82 6.712 22.052-.48 20.134v16.78l6.712 15.82 34.516 51.774 28.284 31.64 29.243 49.377 53.213 153.886" fill="none" stroke="#026b28" stroke-width="5" stroke-linejoin="round"/><path d="M2349.492 278.305l84.067 51.864" fill="none" stroke="#000" stroke-width="5" stroke-linejoin="round"/><path d="M2401.695 346.44l-19.153-2.203-14.067 2.373" fill="none" stroke="#00a" stroke-width="5" stroke-linejoin="round"/><text style="line-height:125%;-inkscape-font-specification:Sans" y="206.96094" x="89.453133" font-weight="400" font-size="143.99990845px" font-family="Sans" letter-spacing="0" word-spacing="0"><tspan y="206.96094" x="89.453133">2005</tspan></text></svg>