<svg xmlns="http://www.w3.org/2000/svg" width="2550" height="5100" viewBox="0, 0, 2550, 5100"><path d="M1922.823 311.707L1918 331l-8 39-12 25-22.5 23-96.5 91-23 25.5-19 28-19 40-70.5 156-19 38.5-3.5 19 6 87.5-1 34-5.5 24-16.5 33-43 65-37.5 52-16.5 35.5-16 29.5-49.5 72-28.5 24-144.5 131.5-128 66-65.5 38-18.5 15-43.5 45-22 15-104.5 51.5L743 1701l-12.5 10-57.5 72.5-75 86-20 33.5 1 30 7 21.5 15 28.5 8.5 25 10.5 21 9 35.5-26.5 120.5-12 18-27 39-5.5 16-5.5 36-4.5 25.5-32.5 129-1 23.5 3 52-15 86.5-3 36.5 3 26 23 45 31 36.5 33 42.5L693 2956.5 807.5 3144 944 3360l22 27 29 24 92.5 64 28 22 22.5 20.5 23.5 34 42 85.5 89 176.5 18.5 23 36.5 38.5 11.5 20.5 198.5 471 95 196 86.5 140 47 78.5 104.5 138.5 10.5 19 1 39" fill="none" stroke="#308ccb" stroke-width="5" stroke-linejoin="round"/><path d="M754.5 1701l140.5-63 56.5-28 45.5-22 24-16.5 43-45.5 20.5-16 39.5-22.5 77.5-39 26-9.5 32-3 12-4.5 23.5-13 93.5-67.5 119-74 29-11.5 29.5-7.5 20.5-4 16-8M1585 1254.5l22 4" fill="none" stroke="olive" stroke-width="5" stroke-linejoin="round"/><path d="M1599 1247l21-9.5 23.5-8 13.5-21.5 92.5-71 13-17 62-57.5 126-64 4.5-6.5 22.5-155.5" fill="none" stroke="olive"/><path d="M1602.5 1257.5l24.5 5.5 29.5 10.5 19.5 11.5 6.5-.5 84.5-57.5 21.5-10.5 138-49 26-10.5 46.5-28 14.5-8.5 6.5-15.5 8.5-66 26-92.5" fill="none" stroke="olive"/><path d="M1672.5 1283.5l101 70.5 14.5 7 14 1 73-11.5 12.5-7 19.5-20 65.5-45 25.5-16.5 4-8 16.5-133.5 6-8.5 59.5-38 8 2.5 17 27" fill="none" stroke="olive"/><text x="89.453" y="4997.961" style="line-height:125%;-inkscape-font-specification:Sans" font-weight="400" font-size="144" font-family="Sans" letter-spacing="0" word-spacing="0"/><text x="89.453" y="206.961" style="line-height:125%;-inkscape-font-specification:Sans" font-weight="400" font-size="144" font-family="Sans" letter-spacing="0" word-spacing="0"><tspan x="89.453" y="206.961">1990</tspan></text><path d="M756.019 1699.775l-5.065 8.779-7.429 7.09-8.104 1.014-8.779-1.689-7.428 2.026-140.804 155.661-10.467 8.441-16.208 5.74" fill="none" stroke="olive"/></svg>