<svg height="5100" width="3250" viewBox="-50, 0, 3250, 5100" xml:space="preserve" xmlns="http://www.w3.org/2000/svg"><path style="fill:none;stroke:#eb151f;stroke-width:5;stroke-linecap:butt;stroke-linejoin:round;stroke-miterlimit:4;stroke-dasharray:none;stroke-opacity:1" d="m686.5 740 43.5 58 9 27.5 28 38 3 13.5-2.5 15.5-11.5 38-3 20.5-24.5 58 .5 13 7.5 24-9 12.5-9 24.5-.544 162.386 2.255 65.144-3.887 333.006-2.93 33.975 1.627 15.647 14.223 13.037L732.5 1715l-1.5 55.5 1 15.5 4.5 19.5 3.027 30.822L738 1878l-8.5 23-17 39.5-7.653 18.362-11.458 7.114-122.25 16.09-95.243 12.308-55.711 35.761-16.138 6.056-281 72-14.659 4.758-10.105 11.61L92 2137.5l-.105 18.282L97 2171l32 70 44 159.5 13 41 26 52.5 10 40.5 2.5 88.5 6.5 43.5 3 113.5 1.5 62.5 3.5 28 14 39.5 26.5 43"/><path style="fill:none;stroke:#308ccb;stroke-width:5;stroke-linecap:butt;stroke-linejoin:round;stroke-miterlimit:4;stroke-dasharray:none;stroke-opacity:1" d="m1954.5 142.5-9 24 .5 52.5-28 112-8 39-12 25-22.5 23-96.5 91-23 25.5-19 28-19 40-70.5 156-19 38.5-3.5 19 6 87.5-1 34-5.5 24-16.5 33-43 65-37.5 52-16.5 35.5-16 29.5-49.5 72-28.5 24-144.5 131.5-128 66-65.5 38-18.5 15-43.5 45-22 15-104.5 51.5L743 1701l-12.5 10-16.747 29.274L598 1869.5l-20 33.5 1 30 7.175 22.588 4.28 23.936L609.5 2008l10.5 21 9 35.5-26.5 120.5-12 18-26.188 32.773L558 2258l-5.5 36-4.5 25.5-32.5 129-1 23.5 3 52-15 86.5-3 36.5 3 26 23 45 31 36.5 33 42.5L693 2956.5 807.5 3144 944 3360l22 27 29 24 92.5 64 28 22 22.5 20.5 23.5 34 42 85.5 89 176.5 18.5 23 36.5 38.5 11.5 20.5 198.5 471 95 196 86.5 140 47 78.5 104.5 138.5 10.5 19 1 39"/><path d="m764.124 1841.124 23.297 11.948 23.468 8.413 10.805-.037 8.272-4.324 102.648-95.22 35.23-32.697 56.613-32.133 111.093-46.23 7.763-7.12 158.132-180.397 9.918-4.173 11.737 2.267 72.534 61.728 12.292 13.539 10.442 4.555 17.297-2.024 29.775-12.325 31.671-8.444 75.029-30.05 12.156 1.351 69.557 44.571 14.546 3.41 19.896-8.812 105.079-66.604 4.322-8.357 5.403-36.467 32.415-58.752-1.35-14.857-7.43-46.597-14.181-27.013-15.532-19.584-5.047-10.141" style="fill:none;fill-rule:evenodd;stroke:#0caf45;stroke-width:5;stroke-linecap:butt;stroke-linejoin:round;stroke-miterlimit:4;stroke-dasharray:none;stroke-opacity:1"/><text style="font-style:normal;font-weight:400;font-size:144px;line-height:125%;font-family:Sans;-inkscape-font-specification:Sans;letter-spacing:0;word-spacing:0;fill:#000;fill-opacity:1;stroke:none" xml:space="preserve" y="4997.9609" x="39.453125"/><text style="font-style:normal;font-weight:400;font-size:144px;line-height:125%;font-family:Sans;-inkscape-font-specification:Sans;letter-spacing:0;word-spacing:0;fill:#000;fill-opacity:1;stroke:none" xml:space="preserve" y="206.96075" x="39.453125"><tspan y="206.96075" x="39.453125">2015</tspan></text></svg>