<?xml version="1.0" encoding="UTF-8" standalone="no"?>
<svg
   xmlns:dc="http://purl.org/dc/elements/1.1/"
   xmlns:cc="http://creativecommons.org/ns#"
   xmlns:rdf="http://www.w3.org/1999/02/22-rdf-syntax-ns#"
   xmlns:svg="http://www.w3.org/2000/svg"
   xmlns="http://www.w3.org/2000/svg"
   xmlns:xlink="http://www.w3.org/1999/xlink"
   id="svg2"
   viewBox="0, 0, 10200, 8600"
   height="8600"
   width="10200"
   version="1.1">
  <metadata
     id="metadata8">
    <rdf:RDF>
      <cc:Work
         rdf:about="">
        <dc:format>image/svg+xml</dc:format>
        <dc:type
           rdf:resource="http://purl.org/dc/dcmitype/StillImage" />
        <dc:title></dc:title>
      </cc:Work>
    </rdf:RDF>
  </metadata>
  <defs
     id="defs6" />
  <image
     xlink:href=".././../streetmap/melosm.png"
     x="-100"
     y="-465.63574"
     width="10398.818"
     height="9065.6357"
     id="image10"
     style="display:none" />
  <path
     style="fill:none;stroke:#d31d2c;stroke-width:5;stroke-linecap:butt;stroke-linejoin:round;stroke-miterlimit:4;stroke-dasharray:none;stroke-opacity:1"
     id="path3790"
     d="m 3805.7071,3448.4881 77.872,-27.9207 4.3519,0.2637 21.75,3.4419 126.5,19.5 25.5,-3.5 12,-6 13,-12.5 8.5,-16 7.5,-38.5 36,-274 0.5,-21.5 -4,-21.5 10.5,-76.5 18,-40 20,-42.4999 15.5,-17 18.5,-9.5 280.5,-1.5 36.5,-0.5 21.5,-2.5 82,-34.5 15,-9.5 35,-54.5 25,-38.5 22,-11 43,-19.5001 76,-72 20.5,-21.5 24.5,-40 37.5209,-36.5464" />
  <path
     style="fill:none;stroke:#00a8e6;stroke-width:5;stroke-linecap:butt;stroke-linejoin:round;stroke-miterlimit:4;stroke-dasharray:none;stroke-opacity:1"
     id="path3796"
     d="m 3457.8948,3256.9987 36.2862,44.7743 32.5,46.5 34,37 6.7093,8.4171 39.2653,71.1168" />
  <path
     style="fill:none;stroke:#f373ac;stroke-width:5;stroke-linecap:butt;stroke-linejoin:round;stroke-miterlimit:4;stroke-dasharray:none;stroke-opacity:1"
     id="path3798"
     d="m 3453.25,3258.5003 -31.2899,-26.2077 -33.2922,-23.5843 -14.9869,-37.9353 -35.5,-157.5 -11,-64.5 -11.5,-39.5 -31.5,-51 -30.5,-40 -17.5,-43.5 -18.5,-114.5001 -14.5,-33.5 -16,-37 -8.5,-50 0.5,-47" />
  <path
     style="fill:none;stroke:#00a8e6;stroke-width:5;stroke-linecap:butt;stroke-linejoin:round;stroke-miterlimit:4;stroke-dasharray:none;stroke-opacity:1"
     id="path3802"
     d="m 3459.1875,3258.6887 -33.5719,-28.943 -34.9346,-26.4727 -30.5,-14 -193,-37 -41,-1 -35,7 -33,13.5 -30.1005,19.5224 -14.7897,19.278 -63.6098,85.1999 -66.5,90.5 -25,42.5 -7,27.5 -38.5,193.9999 -28.5,134 -2,30.0001 9.5,97.5 62,166.5 19,41 23,33 33,25 60.5,23.4999 64.5,28.4999 13.4509,1.1309 14.8968,-5.234 15.2994,-11.6758 11.2732,-27.7806" />
  <path
     style="fill:none;stroke:#ff6600;stroke-width:5;stroke-linecap:butt;stroke-linejoin:round;stroke-miterlimit:4;stroke-dasharray:none;stroke-opacity:1"
     id="path3812"
     d="m 3923.681,4094.773 -5,-7 -43,-49 -42,-37 -47,-45 -40,-48.5 -32,-57 -16.5,-40 -49.5,-133.0001 -6.5,-28.5 2,-28 8.5,-25.4999 h 0.5 l 20,-21.5 70.5802,-77.5348 3.8029,-2.4695 6.9645,-3.5809 42.4613,-13.4705" />
  <text
     style="font-style:normal;font-weight:normal;font-size:144px;line-height:180px;font-family:Sans;-inkscape-font-specification:Sans;letter-spacing:0px;word-spacing:0px;fill:#000000;fill-opacity:1;stroke:none"
     xml:space="preserve"
     id="text3820"
     y="206.96094"
     x="89.453125"><tspan
       style="line-height:180px"
       id="tspan1"
       y="206.96094"
       x="89.453125">1930</tspan></text>
  <text
     style="font-style:normal;font-weight:normal;font-size:144px;line-height:180px;font-family:Sans;-inkscape-font-specification:Sans;letter-spacing:0px;word-spacing:0px;fill:#000000;fill-opacity:1;stroke:none"
     xml:space="preserve"
     id="text3824"
     y="8497.9609"
     x="89.453125"><tspan
       style="line-height:180px"
       id="tspan2"
       y="8497.9609"
       x="89.453125">1930</tspan></text>
  <path
     style="fill:none;stroke:#00a8e6;stroke-width:5;stroke-linecap:butt;stroke-linejoin:round;stroke-miterlimit:4;stroke-dasharray:none;stroke-opacity:1"
     id="path4221"
     d="m 3793.5315,3468.697 61.9082,-22.3274 18.6068,-6.0093 18.9965,3.8547 22.6232,13.9901 28.0063,22.6102 30.4068,25.339 32.3559,21.0508 49.1187,18.712 33.1356,12.8644 21.8305,19.1017 13.8525,21.0508 4.6054,18.0409 -18.7118,120.1767 -4.9083,36.2197 0.4985,13.4495 1.3854,13.9773 12.2677,13.5607 73.6716,37.0858 54.6213,29.3535 74.8787,35.6465 18.2678,16.2071 20.8786,25.7071 147.0962,189.2678 174.9517,199.1261 54.1516,46.5289 82.6541,67.4914 175,99.5 246,140.4999 20.5,21 12.968,12.277" />
  <path
     style="fill:none;stroke:#00a8e6;stroke-width:5;stroke-linecap:butt;stroke-linejoin:round;stroke-miterlimit:4;stroke-dasharray:none;stroke-opacity:1"
     id="path4225"
     d="m 3606.6556,3464.8069 12.0466,21.4873 9.4661,13.2246 8.7161,8.9661 11.5254,7.3771 17.7034,1.5297 15.1737,-6.2373 37.7839,-17.5424 34.0255,-11.9152 40.6852,-13.2498" />
  <path
     style="fill:none;stroke:#f373ac;stroke-width:5;stroke-linecap:butt;stroke-linejoin:round;stroke-miterlimit:4;stroke-dasharray:none;stroke-opacity:1"
     id="path4231"
     d="m 3453.25,3258.5003 37.25,46.75 31.5,45 39.75,43.25 40.25,73.5" />
  <path
     d="m 4248.91,5506.3745 15.9831,-103.6949 v -17.5424 l -3.8983,-14.0339 -6.2373,-14.0339 -10.1356,-15.983 -84.5932,-95.8983 -21.0509,-13.2543 -15.5932,-10.9152 -39.7627,-49.5085 -17.9322,-24.5593 -0.3898,-21.4407 4.2881,-14.4237 58.8644,-124.7458 10.5254,-20.2712 46.3899,-49.1186 17.5423,-23 9.356,-15.5932 6.2372,-19.8814 17.1526,-119.678 16.7627,-101.7457 0.7797,-26.1186 -1.9492,-25.7289 -3.8983,-21.0508 -6.2373,-14.8136 -5.8474,-12.8644 -48.339,-83.8134 -28.4577,-49.5086 -27.2881,-70.1695 -14.4237,-35.4746 -3.1187,-17.5424 1.9492,-15.5932 17.1525,-113.4406 3.1187,-26.1187 -2.339,-17.5423 -2.7288,-13.2542 -5.4576,-11.6949 -9.7458,-19.1017 -7.017,-8.1866 -28.0678,-28.8473 -9.3559,-28.0679 -1.1695,-28.8474 20.661,-139.1695 9.5979,-55.9822"
     id="path3776"
     style="fill:none;stroke:#f373ac;stroke-width:5;stroke-linecap:butt;stroke-linejoin:round;stroke-miterlimit:4;stroke-dasharray:none;stroke-opacity:1" />
  <path
     style="fill:none;stroke:#f373ac;stroke-width:5;stroke-linecap:butt;stroke-linejoin:round;stroke-miterlimit:4;stroke-dasharray:none;stroke-opacity:1"
     id="path4223"
     d="m 3602.1558,3467.3068 12.7966,22.4873 9.9661,13.4746 7.4661,7.4661 12.5254,9.1271 15.9534,2.2797 8.6737,-0.7373 52.0339,-23.7924 32.5255,-11.1652 42.1852,-13.4998" />
  <path
     d="m 3792.2811,3463.9469 -41.1852,13.7498 -33.5255,10.9152 -37.0339,17.5424 -14.4237,6.2373 -15.2034,-0.7797 -10.5254,-6.6271 -8.9661,-8.9661 -8.9661,-12.4746 -11.2966,-20.4873 -39.8785,-72.5595 -40.5666,-45.0644 -32.7584,-45.878 -34.6453,-44.6904"
     id="path3006"
     style="fill:none;stroke:#fbbd10;stroke-width:5;stroke-linecap:butt;stroke-linejoin:round;stroke-miterlimit:4;stroke-dasharray:none;stroke-opacity:1" />
  <path
     d="m 3752.181,2291.7729 -18,175 -25,197 -20.5,181.0001 -9.5,24.5 -19,18 -25.5,6.5 -42.5,2.5 -35.5,19 -28,37.5 -28.5,24 -47.5,28 -19,29 -12.5,51.5 -2,37.5 14.5,70.5 8,32 21.6254,29.5915"
     id="path5774"
     style="fill:none;stroke:#fbbd10;stroke-width:5;stroke-linecap:butt;stroke-linejoin:round;stroke-miterlimit:4;stroke-dasharray:none;stroke-opacity:1" />
  <path
     d="m 3653.1806,3596.2733 -19.5,11.9999 -49,30 -154,117 -27,21.5 -14,15.5 -11,21.5001"
     id="path3810"
     style="fill:none;stroke:#ff6600;stroke-width:5;stroke-linecap:butt;stroke-linejoin:round;stroke-miterlimit:4;stroke-dasharray:none;stroke-opacity:1" />
  <path
     d="m 4100.2367,3774.1212 5.6946,-40.1964 17.8534,-117.2347 -4.2518,-16.6863 -12.9984,-18.9891 -20.6917,-17.9629 -32.5662,-12.5797 -51.1116,-19.8508 -32.3559,-21.6202 -29.5527,-24.4849 -27.437,-22.3255 -22.0537,-13.4206 -16.7191,-3.5701 -16.0445,4.8705 -62.7622,22.8968"
     id="path6020"
     style="fill:none;stroke:#f373ac;stroke-width:5;stroke-linecap:butt;stroke-linejoin:round;stroke-miterlimit:4;stroke-dasharray:none;stroke-opacity:1" />
  <path
     d="m 3792.2811,3463.9469 62.4082,-22.8274 17.8568,-5.5093 23.4965,4.6047 21.1232,12.7401 28.5063,23.6102 28.1568,23.589 34.8559,22.5508 40.1187,15.712 42.3856,15.6144 19.7967,18.0598 7.3643,9.6118 11.3305,3.0699 180.5,25.4999 21.5,1 22,-2"
     id="path3006-6"
     style="fill:none;stroke:#00578b;stroke-width:5;stroke-linecap:butt;stroke-linejoin:round;stroke-miterlimit:4;stroke-dasharray:none;stroke-opacity:1" />
  <path
     d="m 4351.1808,3609.2731 20,-7.5 70.5,-48.4999 43.5,-42.5 20,-8 22,-2.5 61,10.5 41,2.5 137,18 51.5,12.5 23.5,11.5 22.5,27 23.5,11.5 35.5,0.5 45,-4.5 41.5,-4"
     id="path3786"
     style="fill:none;stroke:#00578b;stroke-width:5;stroke-linecap:butt;stroke-linejoin:round;stroke-miterlimit:4;stroke-dasharray:none;stroke-opacity:1" />
  <path
     d="m 4640.3915,5258.8317 5.7895,-43.059 -1,-22 -15.5,-41 -6,-20 3,-27.5 45,-305.5 33.5,-227.4999 7.5,-44 11.5,-22.5 23.5,-25.5 9.5,-22.5 1.5,-19.5 -5,-22 -12.1997,-20.5178"
     id="path4337"
     style="fill:none;stroke:#00a8e6;stroke-width:5;stroke-linecap:butt;stroke-linejoin:round;stroke-miterlimit:4;stroke-dasharray:none;stroke-opacity:1" />
  <path
     d="m 5003.1814,3586.2729 25.5,-7.5 24.5,-4 67,5 19,1.5 14.5,-6 54.5,-26 14.5,-3.5 16,1.5 85.5,19.5 24,1.5 26,-6 21.5,-9.5 21.5,-16 67,-60.5 27,-11 74,-2 93.1509,17.4868"
     id="path3788"
     style="fill:none;stroke:#00578b;stroke-width:5;stroke-linecap:butt;stroke-linejoin:round;stroke-miterlimit:4;stroke-dasharray:none;stroke-opacity:1" />
  <path
     style="fill:none;stroke:#d31d2c;stroke-width:5;stroke-linecap:butt;stroke-linejoin:round;stroke-miterlimit:4;stroke-dasharray:none;stroke-opacity:1"
     id="path3794"
     d="m 4146.181,2974.273 -6.5,-16 -24.5,-23.5 -26,-21.5 -6,-11 1.5,-10.4999 8,-10.5 14.5,-16 4.5,-29.5 15.5,-88.5 24,-56.0001 24,-171.5 24.5,-182 0.5,-17.5 -5.5,-22.5 1.5,-23 49,-279.5 7,-28.5 30.5,-64" />
  <path
     id="path10304"
     d="m 4088,2912.4997 -16,-13 -11,-3 -244,-35 -33,10.5"
     style="fill:none;fill-rule:evenodd;stroke:#d31d2c;stroke-width:5;stroke-linecap:butt;stroke-linejoin:round;stroke-miterlimit:4;stroke-dasharray:none;stroke-opacity:1" />
  <path
     id="path4154"
     d="m 4557.6473,3504.8527 11.6724,-3.4163 10.2489,-9.3949 5.4092,-12.5265 0.2847,-12.8111 -5.9785,-17.3663 -19.0745,-34.4478 -10.8183,-23.6295 -2.5622,-15.9428 7.6867,-50.3906"
     style="fill:none;fill-rule:evenodd;stroke:#00578b;stroke-width:5;stroke-linecap:butt;stroke-linejoin:round;stroke-miterlimit:4;stroke-dasharray:none;stroke-opacity:1" />
</svg>
