<svg xmlns="http://www.w3.org/2000/svg" viewBox="3350 0 17700 14650" height="14650" width="17700"><path d="m12467.02 8827.52-61.08.23L12296 9066l-179 227.5-62.5 117-53 57-47.5 83-23.5 34-115.5 122-56.5 50-53.5 34.5-54.5 20.5-57.5 7-31 17.25-169.5 160-27.93 39.18M12756.72 7706.26l4.28 7.74 21 40 31.5 182-1.5 20-25.5 38-67 179.5-9.5 105.5 4.5 51-2.5 26.5-9.5 40-12.5 21.5-12 39-51 101.5-7.75 21.36" style="fill:none;fill-rule:evenodd;stroke:#ee202a;stroke-width:5;stroke-linecap:butt;stroke-linejoin:round;stroke-miterlimit:4;stroke-dasharray:none;stroke-opacity:1"/><path style="fill:none;fill-rule:evenodd;stroke:#ee202a;stroke-width:5;stroke-linecap:butt;stroke-linejoin:round;stroke-opacity:1;stroke-miterlimit:4;stroke-dasharray:none" d="m12758.35 7708.66-3.09-5.66 4.32-18.87"/><path style="fill:none;fill-rule:evenodd;stroke:#f15a22;stroke-width:5;stroke-linecap:butt;stroke-linejoin:round;stroke-miterlimit:4;stroke-dasharray:none;stroke-opacity:1" d="m13128.52 6545.34-13.45-8.97-51.52-16.53-29.61-22.48-42.97.81-35.27-8.59-93.96-7.42-17.3 2.74-15.62 14.45-74.64 120-35.15 31.51-48.35 37.54-17.93 63.89-15.75 25.96-64.58 42.87-25.29 8.24-158.31-26.97-58.65 3.39-17.81-12.71-3.63-18.2-35.71-178.9-12.5-38.44-15.39-35.28-25.71-41.76-26.93-29.01-36.23-18.03-41.63-9.15-156.62 5.2-131.56 4.65"/><path d="m13209.95 6329.36 39.6-63.64 11.31-23.86 5.29-20.9-3.31-13.92-68.54-75.45-54.13-50.76-61.58-97.94-31.23-36.52-45.16-42.58-14.66-7.89-16.35-2.15-18.28 3.58-255.92 139.43-16.5 4.5-20-1.25-170.5-55.25-23.5 2-17.75 6.5-15.75 15.75-77.02.5-72.75 265.5-14.88 142.25 39.75 199.62 11.38 34.75 3.12 33.12.75 32-16.88 63.62-12.5 112.88-2.5 78.88 7.62 18.76.103.62 79.89 184.44 30.54 123.83 6.58 6.05 68.6 43.62 69.49 120.63 19.99 29.51 13.61 7.96 10.96 2.83 24.04-2.12 19.45-10.96 15.03-22.1 17.5-83.09 2.83-38.18-4.95-75.66 6.56-37.6 43.82-108.59 24.75-38.54 46.49-25.63" style="fill:none;fill-rule:evenodd;stroke:#80c342;stroke-width:5;stroke-linecap:butt;stroke-linejoin:round;stroke-miterlimit:4;stroke-dasharray:none;stroke-opacity:1"/><text style="font-style:normal;font-weight:400;font-size:144px;line-height:125%;font-family:Sans;-inkscape-font-specification:Sans;letter-spacing:0;word-spacing:0;fill:#000;fill-opacity:1;stroke:none" xml:space="preserve" y="14547.96" x="3439.45"/><text style="font-style:normal;font-weight:400;font-size:144px;line-height:125%;font-family:Sans;-inkscape-font-specification:Sans;letter-spacing:0;word-spacing:0;fill:#000;fill-opacity:1;stroke:none" xml:space="preserve" y="206.96" x="3439.45"><tspan y="206.96" x="3439.45">1910</tspan></text><path d="m12402.04 6068.78 19.21-45.28 74.25-165.25 41.25-81.25 10-32.25 4.25-33.75-2.5-307.25-3.75-51.5-23.69-48.11" style="fill:none;fill-rule:evenodd;stroke:#00a07d;stroke-width:5;stroke-linecap:butt;stroke-linejoin:round;stroke-miterlimit:4;stroke-dasharray:none;stroke-opacity:1"/><path d="m12571.81 8661.82-1.82 7.56 79.52 95.38 16.57.91.75 8.5 99.13 40.41 24.98 6.53 34.53 5.09" style="fill:none;fill-rule:evenodd;stroke:#ee202a;stroke-width:5;stroke-linecap:butt;stroke-linejoin:round;stroke-miterlimit:4;stroke-dasharray:none;stroke-opacity:1"/><path d="m12714.3 8240.62-5.09 3.88-77.84 1.46-15.04 4.12" style="fill:none;fill-rule:evenodd;stroke:#ee202a;stroke-width:5;stroke-linecap:butt;stroke-linejoin:round;stroke-opacity:1;stroke-miterlimit:4;stroke-dasharray:none"/><path style="fill:none;fill-rule:evenodd;stroke:#80c342;stroke-width:5;stroke-linecap:butt;stroke-linejoin:round;stroke-miterlimit:4;stroke-dasharray:none;stroke-opacity:1" d="m13105.89 6799.5-2.88 8.75-13.44 45.43-6.19 18.92-19.8 22.63-35.18 32.17-34.12 70.71 6.01 103.59-12.2 78.31-11.49 48.08-12.9 42.25-21.92 30.41-75.84 51.09"/><path style="fill:none;fill-rule:evenodd;stroke:#ee202a;stroke-width:1px;stroke-linecap:butt;stroke-linejoin:round;stroke-opacity:1" d="m12463.57 8832.05 7.76-9.94 145.25-235.7 2.67-6.55"/></svg>