<?xml version="1.0" encoding="UTF-8" standalone="no"?>
<svg
   version="1.1"
   id="svg2"
   width="17700"
   height="14650"
   viewBox="3350 0 17700 14650"
   xmlns:xlink="http://www.w3.org/1999/xlink"
   xmlns="http://www.w3.org/2000/svg"
   xmlns:svg="http://www.w3.org/2000/svg"
   xmlns:rdf="http://www.w3.org/1999/02/22-rdf-syntax-ns#"
   xmlns:cc="http://creativecommons.org/ns#"
   xmlns:dc="http://purl.org/dc/elements/1.1/">
  <metadata
     id="metadata8">
    <rdf:RDF>
      <cc:Work
         rdf:about="">
        <dc:format>image/svg+xml</dc:format>
        <dc:type
           rdf:resource="http://purl.org/dc/dcmitype/StillImage" />
        <dc:title />
      </cc:Work>
    </rdf:RDF>
  </metadata>
  <defs
     id="defs6" />
  <image
     style="display:none"
     width="17823"
     height="15629.4"
     preserveAspectRatio="none"
     xlink:href="../../basemap/tyoosm.png"
     id="image10"
     x="3250"
     y="-779.4" />
  <path
     style="fill:none;fill-rule:evenodd;stroke:#f166a7;stroke-width:5;stroke-linecap:butt;stroke-linejoin:round;stroke-miterlimit:4;stroke-dasharray:none;stroke-opacity:1"
     d="m 10311.77,7252.6 -18.27,-3.1 -13,13.5 -35.5,88.5 -12.79,18.65"
     id="path4681" />
  <path
     id="path5375"
     d="m 13494.5,6336 10.68,-13.11 10.09,-2.22 25.65,16.17 62.94,22.21 22.5,-0.03 17.68,-5.55 25.92,-1.92 24.53,-11.55 18.25,-22.5 12.5,-28.75 2.39,-22.19 0.39,-49.41 21.97,-35.15 8,-21.5 9,-70.5 -13,-44 4,-18.5 6,-17.5 20.5,-25 2.5,-12.5 -5,-29.5 -44.5,-98.5 -16.5,-12 -23.5,-7 -21,3.5 -50.5,11 -22.5,-3.5 -15.5,-13.5 -6.13,-11.81"
     style="fill:none;fill-rule:evenodd;stroke:#0033cc;stroke-width:5;stroke-linecap:butt;stroke-linejoin:round;stroke-miterlimit:4;stroke-dasharray:none;stroke-opacity:1" />
  <path
     style="fill:none;fill-rule:evenodd;stroke:#3851a3;stroke-width:5;stroke-linecap:butt;stroke-linejoin:round;stroke-miterlimit:4;stroke-dasharray:none;stroke-opacity:1"
     d="m 13692.64,6363.98 6.63,-22.42 17.86,-21.39 12.61,-30.29 22.76,-39.88 46.5,-45 73.5,-108.5 186,-153 71,-15.5 27,-11 52.77,-90.23"
     id="path5022" />
  <path
     style="fill:none;fill-rule:evenodd;stroke:#ee202a;stroke-width:5;stroke-linecap:butt;stroke-linejoin:round;stroke-miterlimit:4;stroke-dasharray:none;stroke-opacity:1"
     d="m 12570.5,8643 -102,159 -25,50.5 -147.5,213.5 -179,227.5 -62.5,117 -53,57 -47.5,83 -23.5,34 -115.5,122 -56.5,50 -53.5,34.5 -54.5,20.5 -57.5,7 -31,17.25 -169.5,160 -27.93,39.18"
     id="path5026" />
  <path
     id="path5205"
     d="m 16352.83,6774.76 -62.71,-21.35 -158.21,-2.71 -86.53,-54.38 -58.18,-26.97 -65.32,-43.17 -13.44,-19.79 -3,-18.38 9.15,-52.88 0.21,-16.68 -15.27,-14.58 -24.83,-3.21 -16.91,0.04 -35.71,14.21 h -14.59 l -37.96,-18.44 -21.44,-35.94 -13.77,-10.62 -41.71,-6.15 -119.08,-91.65 -15.33,-4.56 -36.79,-1.65 -63.23,-43.65 -47.91,-16.35 -80.94,-29.65 -132.91,-74.35 -39.85,-8.35 -72.11,-51.03 -100.71,-59.56 -70.56,-29.85 -53.85,-63.85 -142.21,-34.85 -108,-32 -199.21,-168.28 -19.91,-6.12 -51.77,5.27 -90.76,38.44 -38.21,55.06"
     style="fill:none;fill-rule:evenodd;stroke:#3851a3;stroke-width:5;stroke-linecap:butt;stroke-linejoin:round;stroke-miterlimit:4;stroke-dasharray:none;stroke-opacity:1" />
  <path
     style="fill:none;fill-rule:evenodd;stroke:#3851a3;stroke-width:5;stroke-linecap:butt;stroke-linejoin:round;stroke-miterlimit:4;stroke-dasharray:none;stroke-opacity:1"
     d="m 17521.58,7883.12 -19.63,-22.1 -16.56,-6.5 -23.95,9 -30.72,9.86 -30.73,-3.89 -48.5,-16.5 -18,-11.5 -153,-257 -11.5,-9.5 -63,-38 -9,-9.5 -9,-19 -25,-182.5 -9.5,-16.5 -20.5,-12 -64,-3.5 -161.5,-64.5 -80,-64 -14,-47 -240,-250.5 -74.25,-77.75 -46.42,-15.49"
     id="path5261" />
  <path
     style="fill:none;fill-rule:evenodd;stroke:#f166a7;stroke-width:5;stroke-linecap:butt;stroke-linejoin:round;stroke-miterlimit:4;stroke-dasharray:none;stroke-opacity:1"
     d="m 12215.39,6714.3 -2.39,6.45 -10.5,5.5 -12.25,12 -12.75,22.5 -42.25,25 -25.5,29.25 -43.5,18 -35.5,19.5 -19.5,12.75 -69,27.75 -370.5,144.5 -23.5,4.5 -397.75,-73 -26,1.75 -305.25,135.5 -314.25,180.25 -19,7.25 -72.5,-5.5 -87.81,-30.77 -13.92,-4.88"
     id="path5796" />
  <path
     style="fill:none;fill-rule:evenodd;stroke:#ee86a7;stroke-width:5;stroke-linecap:butt;stroke-linejoin:round;stroke-miterlimit:4;stroke-dasharray:none;stroke-opacity:1"
     d="m 12460.24,8631.34 -2.27,4.29 -7.05,1.37 h -43.42 l -14,-5 -8.5,-9 -43.5,-122 -13.5,-12 -17,-8 h -15 l -71,5.5 -43,-9 -16,-9 -82,-114.5 -56,-134 v -31.5 l 15.87,-29.2"
     id="path6319" />
  <path
     id="path6323"
     d="m 12756.72,7706.26 4.28,7.74 21,40 31.5,182 -1.5,20 -25.5,38 -67,179.5 -9.5,105.5 4.5,51 -2.5,26.5 -9.5,40 -12.5,21.5 -12,39 -51,101.5 -56.5,84.5"
     style="fill:none;fill-rule:evenodd;stroke:#ee202a;stroke-width:5;stroke-linecap:butt;stroke-linejoin:round;stroke-miterlimit:4;stroke-dasharray:none;stroke-opacity:1" />
  <path
     style="fill:none;fill-rule:evenodd;stroke:#f166a7;stroke-width:1px;stroke-linecap:butt;stroke-linejoin:round;stroke-opacity:1"
     d="m 12213.83,6717.23 3.87,-6.2 45.49,-21.07 12.93,-6.16 46.98,-11.47 8.39,-13.41"
     id="path4680" />
  <path
     id="path4593"
     d="m 12758.35,7708.66 -3.09,-5.66 5.14,-22.46 -12.86,-15.09 -5.49,-26.75 -2.06,-31.55"
     style="fill:none;fill-rule:evenodd;stroke:#ee202a;stroke-width:1px;stroke-linecap:butt;stroke-linejoin:round;stroke-opacity:1" />
  <path
     style="fill:none;fill-rule:evenodd;stroke:#00b2e5;stroke-width:5;stroke-linecap:butt;stroke-linejoin:round;stroke-miterlimit:4;stroke-dasharray:none;stroke-opacity:1"
     d="m 13110.82,6800.69 -2.51,7.89 -21.06,66.18 -20.5,24 -35.25,33 -32.5,67.75 6.1,100.54 -10.85,71.96 -13,56.5 -14,44.75 -21.5,30.75 -81,54 -37.75,20.25 -25.75,39.75 -42.16,105.93 -6.59,36.32 4.5,77.75 -2.5,36.75 -21.75,103.5 -13.25,58.5 -23,235 -8.5,25.75 -103,197 -217,637 -66,105 -188,193 -78.6,85.56 -16.44,21.82 -30.45,71.13 -22.75,114 -16.12,27.33 -20.63,30.67 -116.74,122.69 -57.6,50.75 -50.41,33.3 -55.5,21.25 -56,6.25 -98.59,42.16 -111.29,136.82 -86.49,120.45 1.56,58.45 96.87,142.84 23.48,29.21"
     id="path6780" />
  <path
     id="path6969"
     d="m 13098.25,6806.5 50.5,-154 12.09,-37.2 4.18,-24.47 -3.01,-14.32 -19.75,-22 -27.18,-18.14 -51.52,-16.53 -29.61,-22.48 -42.97,0.81 -35.27,-8.59 -93.96,-7.42 -17.3,2.74 -15.62,14.45 -74.64,120 -35.15,31.51 -48.35,37.54 -17.93,63.89 -15.75,25.96 -64.58,42.87 -25.29,8.24 -158.31,-26.97 -58.65,3.39 -17.81,-12.71 -3.63,-18.2 -35.71,-178.9 -12.5,-38.44 -15.39,-35.28 -25.71,-41.76 -26.93,-29.01 -36.23,-18.03 -41.63,-9.15 -156.62,5.2 -1197.65,42.36"
     style="fill:none;fill-rule:evenodd;stroke:#f15a22;stroke-width:5;stroke-linecap:butt;stroke-linejoin:round;stroke-miterlimit:4;stroke-dasharray:none;stroke-opacity:1" />
  <path
     style="fill:none;fill-rule:evenodd;stroke:#80c342;stroke-width:5;stroke-linecap:butt;stroke-linejoin:round;stroke-miterlimit:4;stroke-dasharray:none;stroke-opacity:1"
     d="m 12865.94,7351.84 75.84,-51.09 21.92,-30.41 12.9,-42.25 11.49,-48.08 12.2,-78.31 -6.01,-103.59 34.12,-70.71 35.18,-32.17 19.8,-22.63 6.19,-18.92 13.44,-45.43 56.04,-171.3 5.59,-16.92 14.56,-57.68 4.42,-54.62 9.02,-40.13 10.96,-83.44 -0.71,-36.06 7.07,-18.74 39.6,-63.64 11.31,-23.86 5.29,-20.9 -3.31,-13.92 -68.54,-75.45 -54.13,-50.76 -61.58,-97.94 -31.23,-36.52 -45.16,-42.58 -14.66,-7.89 -16.35,-2.15 -18.28,3.58 -255.92,139.43 -16.5,4.5 -20,-1.25 -170.5,-55.25 -23.5,2 -17.75,6.5 -15.75,15.75 -77,179.5 -72.75,265.5 -14.88,142.25 39.75,199.62 11.38,34.75 3.12,33.12 0.75,32 -16.88,63.62 -12.5,112.88 -2.5,78.88 7.62,18.75 75,103.62 79.89,184.44 30.54,123.83 6.58,6.05 68.6,43.62 69.49,120.63 19.99,29.51 13.61,7.96 10.96,2.83 24.04,-2.12 19.45,-10.96 15.03,-22.1 17.5,-83.09 2.83,-38.18 -4.95,-75.66 6.56,-37.6 43.82,-108.59 24.75,-38.54 46.49,-25.63"
     id="path7067" />
  <text
     x="3439.45"
     y="14547.96"
     id="text2993"
     xml:space="preserve"
     style="font-style:normal;font-weight:normal;font-size:144px;line-height:125%;font-family:Sans;-inkscape-font-specification:Sans;letter-spacing:0px;word-spacing:0px;fill:#000000;fill-opacity:1;stroke:none"><tspan
       x="3439.45"
       y="14547.96"
       id="tspan2"></tspan></text>
  <text
     x="3439.45"
     y="206.96"
     id="text2997"
     xml:space="preserve"
     style="font-style:normal;font-weight:normal;font-size:144px;line-height:125%;font-family:Sans;-inkscape-font-specification:Sans;letter-spacing:0px;word-spacing:0px;fill:#000000;fill-opacity:1;stroke:none"><tspan
       x="3439.45"
       y="206.96"
       id="tspan1">1925</tspan></text>
  <path
     style="fill:none;fill-rule:evenodd;stroke:#ff6600;stroke-width:5;stroke-linecap:butt;stroke-linejoin:round;stroke-miterlimit:4;stroke-dasharray:none;stroke-opacity:1"
     d="m 3983,13465.5 153.75,-64.25"
     id="path4585" />
  <path
     style="fill:none;fill-rule:evenodd;stroke:#00a07d;stroke-width:5;stroke-linecap:butt;stroke-linejoin:round;stroke-miterlimit:4;stroke-dasharray:none;stroke-opacity:1"
     d="m 12402.04,6068.78 19.21,-45.28 74.25,-165.25 41.25,-81.25 10,-32.25 4.25,-33.75 -2.5,-307.25 -3.75,-51.5 -23.69,-48.11"
     id="path7065" />
  <path
     style="fill:none;fill-rule:evenodd;stroke:#3851a3;stroke-width:5;stroke-linecap:butt;stroke-linejoin:round;stroke-opacity:1;stroke-miterlimit:4;stroke-dasharray:none"
     d="m 14390,5728 25.51,-19.37 43.84,-59.75 4.24,-23.33 -1.41,-18.38 -57.28,-120.56 -7.78,-26.52"
     id="path4730" />
  <path
     style="fill:none;fill-rule:evenodd;stroke:#fcc800;stroke-width:5;stroke-linecap:butt;stroke-linejoin:round;stroke-miterlimit:4;stroke-dasharray:none;stroke-opacity:1"
     d="m 11538,7045 9.85,2 2.9,5 -2.75,72 v 17 l 6.5,15.5 43,47.5 7.5,14 -3,29.5 -19.5,81.5 v 13.5 l 21,42.5 11,4.5 102.5,-13 50,-29.5 20,-3 18,1.5 62.5,29 h 23 l 19.96,7.48"
     id="path5576" />
  <path
     style="fill:none;fill-rule:evenodd;stroke:#006000;stroke-width:5;stroke-linecap:butt;stroke-linejoin:round;stroke-miterlimit:4;stroke-dasharray:none;stroke-opacity:1"
     d="M 12458.71,6204.04 12497,6141.5 l 24.25,-11.5"
     id="path5723" />
  <path
     style="fill:none;fill-rule:evenodd;stroke:#006000;stroke-width:1px;stroke-linecap:butt;stroke-linejoin:round;stroke-opacity:1"
     d="m 12518.5,6132 37.5,-21.75 31.25,-42.75 10.75,-11.75 25.75,-16.75 8,3 2.75,-1.75 6.75,-20.25 -2,-12.75"
     id="path5725" />
  <path
     style="fill:none;fill-rule:evenodd;stroke:#006000;stroke-width:5;stroke-linecap:butt;stroke-linejoin:round;stroke-miterlimit:4;stroke-dasharray:none;stroke-opacity:1"
     d="m 12639.5,6010.25 -25.75,-47 -0.5,-6.5 22.25,-30.75 4,-8.5 14.25,-39"
     id="path5727" />
  <path
     style="fill:none;fill-rule:evenodd;stroke:#006000;stroke-width:1px;stroke-linecap:butt;stroke-linejoin:round;stroke-opacity:1"
     d="M 12652.5,5881.5 12684,5829"
     id="path5729" />
  <path
     style="fill:none;fill-rule:evenodd;stroke:#006000;stroke-width:5;stroke-linecap:butt;stroke-linejoin:round;stroke-opacity:1;stroke-miterlimit:4;stroke-dasharray:none"
     d="m 12682.75,5830.61 17.15,-17.68 40.66,-71.77"
     id="path5731" />
  <path
     style="fill:none;fill-rule:evenodd;stroke:#006000;stroke-width:1px;stroke-linecap:butt;stroke-linejoin:round;stroke-opacity:1"
     d="m 12739.67,5743.46 v -6.54 l -13.08,-19.62 0.53,-5.13 2.12,-6.01 10.96,-7.07 7.79,1.46"
     id="path5733" />
  <path
     style="fill:none;fill-rule:evenodd;stroke:#006000;stroke-width:1;stroke-linecap:butt;stroke-linejoin:round;stroke-miterlimit:4;stroke-dasharray:none;stroke-opacity:1"
     d="m 12746.74,5699.8 31.29,33.41 4.72,2.04 52.25,-4.75 33.45,0.57"
     id="path5735" />
  <path
     style="fill:none;fill-rule:evenodd;stroke:#006000;stroke-width:1px;stroke-linecap:butt;stroke-linejoin:round;stroke-opacity:1"
     d="m 12865.36,5730.91 199.4,9.19 82.38,23.33 4.6,4.24 30.05,38.54 13.96,8.31 34.12,29.52 51.09,14.32"
     id="path5737" />
  <path
     style="fill:none;fill-rule:evenodd;stroke:#006000;stroke-width:5;stroke-linecap:butt;stroke-linejoin:round;stroke-opacity:1;stroke-miterlimit:4;stroke-dasharray:none"
     d="m 13279.02,5857.83 44.19,13.44"
     id="path5739" />
  <path
     style="fill:none;fill-rule:evenodd;stroke:#006000;stroke-width:1px;stroke-linecap:butt;stroke-linejoin:round;stroke-opacity:1"
     d="m 13321.44,5870.21 6.19,5.83 1.59,6.19 -0.88,62.76 3.01,7.07 20.33,27.93"
     id="path5741" />
  <path
     style="fill:none;fill-rule:evenodd;stroke:#006000;stroke-width:5;stroke-linecap:butt;stroke-linejoin:round;stroke-opacity:1;stroke-miterlimit:4;stroke-dasharray:none"
     d="m 13350.08,5977.34 7.6,11.31 4.6,3.18 12.9,1.59 41.19,30.23"
     id="path5743" />
  <path
     id="path12495"
     d="m 12467.97,7535.51 12.24,49.3 -2.93,26.24 -22.3,37.44 -22.77,18.71 -134.71,92.81 -104.34,146.79 -303.04,98.7 -10.65,8.96 -7.92,22.16 -1.65,38.36 0.93,60.33 14.87,85.94 6.52,31.33 12.29,24.93 162.25,195 24.5,18.5 76.25,45.25 99.75,85.75 52.75,25 h 12.25 l 30.53,-2.04 46.56,20.58 40.77,-3.65 14.37,-28.52"
     style="fill:none;fill-rule:evenodd;stroke:#008080;stroke-width:5;stroke-linecap:butt;stroke-linejoin:round;stroke-miterlimit:4;stroke-dasharray:none;stroke-opacity:1" />
  <path
     style="fill:none;fill-rule:evenodd;stroke:#fcc800;stroke-width:1px;stroke-linecap:butt;stroke-linejoin:round;stroke-opacity:1"
     d="m 11906.69,7380.99 7.54,1.37 187.92,-123.45 20.23,-9.6 67.9,-26.75 36.35,-56.24 55.9,-19.55 18.57,0.24 14.06,18.43 30.07,27.64 19.88,24.73 12.12,9.7 5.33,10.18 2.42,26.67 7.28,13.09 21.34,24.25 31.04,8.73 12.12,0.48 49.93,-10 17.18,9.3 31.34,9.91"
     id="path4792" />
  <path
     style="fill:none;fill-rule:evenodd;stroke:#d40000;stroke-width:5;stroke-linecap:butt;stroke-linejoin:round;stroke-opacity:1;stroke-miterlimit:4;stroke-dasharray:none"
     d="m 11134.75,7764.87 42.19,9.7 33.46,18.43 h 33.46 l 14.06,-3.88 13.09,-12.12 6.3,-1.45 92.14,50.44 3.88,8.24 1.46,7.27 -1.94,7.76 -6.79,6.3"
     id="path4794" />
  <path
     style="fill:none;fill-rule:evenodd;stroke:#ee202a;stroke-width:5;stroke-linecap:butt;stroke-linejoin:round;stroke-miterlimit:4;stroke-dasharray:none;stroke-opacity:1"
     d="m 12566.5,8651.15 -1,12.85 84,100.75 16.5,7 91.75,8.5 99.13,40.41 24.98,6.53 144.76,21.34"
     id="path5586" />
  <path
     style="fill:none;fill-rule:evenodd;stroke:#ee202a;stroke-width:5;stroke-linecap:butt;stroke-linejoin:round;stroke-opacity:1;stroke-miterlimit:4;stroke-dasharray:none"
     d="m 12714.3,8240.62 -5.09,3.88 -77.84,1.46 -15.04,4.12"
     id="path5878" />
  <path
     id="path5820"
     d="M 8672.17,7085.25 8658.5,7077.5 l -66.5,-7 -78.5,47 -99.5,112 -103,64 -14.5,10.5 -59,67 -32.5,25.5 -202.5,-6.5 -86,-43 -15.5,-16 -8.5,-24 -36,-115 -39,-29.5 -22.83,-20.18"
     style="fill:none;fill-rule:evenodd;stroke:#f166a7;stroke-width:5;stroke-linecap:butt;stroke-linejoin:round;stroke-miterlimit:4;stroke-dasharray:none;stroke-opacity:1" />
</svg>
