<?xml version="1.0" encoding="UTF-8" standalone="no"?>
<svg
   xmlns:dc="http://purl.org/dc/elements/1.1/"
   xmlns:cc="http://creativecommons.org/ns#"
   xmlns:rdf="http://www.w3.org/1999/02/22-rdf-syntax-ns#"
   xmlns:svg="http://www.w3.org/2000/svg"
   xmlns="http://www.w3.org/2000/svg"
   xmlns:xlink="http://www.w3.org/1999/xlink"
   id="svg2"
   viewBox="-400, -750, 3700, 5600"
   height="5600"
   width="3700"
   version="1.1">
  <metadata
     id="metadata8">
    <rdf:RDF>
      <cc:Work
         rdf:about="">
        <dc:format>image/svg+xml</dc:format>
        <dc:type
           rdf:resource="http://purl.org/dc/dcmitype/StillImage" />
        <dc:title></dc:title>
      </cc:Work>
    </rdf:RDF>
  </metadata>
  <defs
     id="defs6" />
  <image
     xlink:href="../basemap/sanosm.png"
     x="-383.67"
     y="127.67"
     width="3687.66"
     height="5673.33"
     id="image10"
     style="display:none" />
  <path
     style="fill:none;stroke:#0158a7;stroke-width:5;stroke-linecap:butt;stroke-linejoin:round;stroke-miterlimit:4;stroke-opacity:1;stroke-dasharray:none"
     id="path2987"
     d="m 2415,4705 -10,-19 -23,-33 -20,-22 -111,-90 -154.85,-97.78 -202.15,-149.22 -156,-122 -21,-27 -9,-42 3,-219 -6,-50 -46,-141 -156,-471 -8,-36 -7,-69 -14,-51 -14,-32 -28,-31 -93,-281 -23,-71 -21,-24 -210,-174 -24,-9 -54,-12 -22,-18 -160,-131 -8,-14 -1,-33.5 -6,-13" />
  <path
     style="fill:none;stroke:#0158a7;stroke-width:1px;stroke-linecap:butt;stroke-linejoin:round;stroke-opacity:1"
     id="path3757"
     d="m 810,2224 -1.5,-145.5 -4.5,-8 -7.5,-10 -161.87,0" />
  <path
     style="fill:none;stroke:#f6821f;stroke-width:5;stroke-linecap:butt;stroke-linejoin:round;stroke-miterlimit:4;stroke-opacity:1;stroke-dasharray:none"
     id="path3759"
     d="m 806,2226 4,9 -3.5,3 -36,-0.5 -21.5,-13.5 -82.5,-54 -41.5,-26 -11,-11.5 -15.5,-38.5 2.5,-18.5 8.75,-0.25" />
  <path
     style="fill:none;stroke:#f6821f;stroke-width:5;stroke-linecap:butt;stroke-linejoin:round;stroke-miterlimit:4;stroke-opacity:1;stroke-dasharray:none"
     id="path3765"
     d="m 1178,2234 9,-7 2,-9 5,-27 6,-10 9.5,-2.5 12,2.5 8,9 7.5,21 7,7 17.5,2.5 41,-0.5 18,-4 50.5,-32.5 13.5,-5 61.5,-3.5 53.5,24 22.5,4.5 19.5,-3.5 83,-29 254,3.5 257.5,-35 20,-9.5 20,-21 24,-34.5 60.5,-87 56.5,-79 14.5,-32.5 8,-22 49.5,-88 3.5,-21.5 3.5,-89.5 11,-31.5 43,-33 16.5,-7.5 20.5,-2.5 10.5,-5 19,-17.5 41,-24.5 19,-18 7,-30.5 -6.5,-15 -9,-11.5 0,-16 8.5,-14 -1.5,-9 -52,-109 -45.5,-94.5 0,-13.5 5.5,-6.5 44,-28.5 44.5,-31 71,-65 22.5,-16.5 107.5,-45.5 21.5,-4.5 62.5,14 14,8.5 16.5,20.5 10,17.5 27.5,24 20.5,10.5 25,1.5 14.5,-6 16,-23 19.5,-15 30.5,-11 22,-26.5 23.5,-35.5 8,-28 -0.88,-57.49" />
  <text
     style="font-size:144px;font-style:normal;font-weight:normal;line-height:125%;letter-spacing:0px;word-spacing:0px;fill:#000000;fill-opacity:1;stroke:none;font-family:Sans;-inkscape-font-specification:Sans"
     xml:space="preserve"
     id="text2991"
     y="-543.04"
     x="-310.55"><tspan
       id="tspan1"
       y="-543.04"
       x="-310.55">1990</tspan></text>
  <text
     style="font-size:144px;font-style:normal;font-weight:normal;line-height:125%;letter-spacing:0px;word-spacing:0px;fill:#000000;fill-opacity:1;stroke:none;font-family:Sans;-inkscape-font-specification:Sans"
     xml:space="preserve"
     id="text2995"
     y="4747.96"
     x="-310.55"><tspan
       id="tspan2"
       y="4747.96"
       x="-310.55">1990</tspan></text>
  <path
     style="fill:none;stroke:#f6821f;stroke-width:1px;stroke-linecap:butt;stroke-linejoin:round;stroke-opacity:1"
     id="path3763"
     d="m 606.84,2074.95 5.13,-1.18 3.34,-11.3 2.54,-0.77 1,-0.09 179.85,-0.46 6.22,8.67 4.66,8.47 1.46,138.93 10.7,19.77 33,1 324.25,-3.5" />
</svg>
