<?xml version="1.0" encoding="UTF-8" standalone="no"?>
<svg
   version="1.1"
   width="7600"
   height="7450"
   viewBox="0 -50 7600 7450"
   id="svg2"
   xmlns:xlink="http://www.w3.org/1999/xlink"
   xmlns="http://www.w3.org/2000/svg"
   xmlns:svg="http://www.w3.org/2000/svg"
   xmlns:rdf="http://www.w3.org/1999/02/22-rdf-syntax-ns#"
   xmlns:cc="http://creativecommons.org/ns#"
   xmlns:dc="http://purl.org/dc/elements/1.1/">
  <metadata
     id="metadata8">
    <rdf:RDF>
      <cc:Work
         rdf:about="">
        <dc:format>image/svg+xml</dc:format>
        <dc:type
           rdf:resource="http://purl.org/dc/dcmitype/StillImage" />
        <dc:title />
      </cc:Work>
    </rdf:RDF>
  </metadata>
  <defs
     id="defs6" />
  <image
     xlink:href="../../basemap/bueosm.png"
     id="image10"
     height="7506"
     width="7506"
     y="0"
     x="0"
     style="display:none" />
  <path
     d="M 4848.34,3216.46 5000,3194.5 l 95.5,-16 68.5,-3 74.5,-7 37.61,5.81 7.31,17.98 3.8,15.5 -2.53,43.91"
     id="path3778"
     style="fill:none;stroke:#6d2281;stroke-width:5;stroke-linecap:butt;stroke-linejoin:round;stroke-miterlimit:4;stroke-dasharray:none;stroke-opacity:1" />
  <path
     d="m 4709.82,2488.63 8.18,4.87 68,52.5 75.5,65.5 54.5,43.5 23.5,21.5 29.5,33 13.5,14 29,16 14,10 8,12.5 5.5,15.5 -1.5,21.5 6.5,12.5 15.5,11 24.5,0 85.5,-4.5 68,-4 3.99,7.01 0.75,33.73 3.08,5.53 135.51,87.99"
     id="path3780"
     style="fill:none;stroke:#008067;stroke-width:5;stroke-linecap:butt;stroke-linejoin:round;stroke-miterlimit:4;stroke-dasharray:none;stroke-opacity:1" />
  <path
     d="m 5375,2684.5 -38.5,52 -14.5,16 -3,10 5.5,117 -3,10.5 -4.5,5 -7.5,4.5 -16,1 -7,11 10.5,251 -5,90"
     id="path3782"
     style="fill:none;stroke:#0168b3;stroke-width:5;stroke-linecap:butt;stroke-linejoin:round;stroke-miterlimit:4;stroke-dasharray:none;stroke-opacity:1" />
  <path
     d="m 5433.5,2871 -98.5,7 -105.5,7 -67.5,8.5 -79.5,2 -71,4.5 -29,-1.5 -47.5,-10 -24,0.5 -33,2 -36.5,-8 -182,-21.5 -22,-4.5 -81.5,-33 -57,-63.5 -47.5,-50.5 -43,-54.5 -53.5,-22 -12.14,-4.64"
     id="path3784"
     style="fill:none;stroke:#ee1b2e;stroke-width:5;stroke-linecap:butt;stroke-linejoin:round;stroke-miterlimit:4;stroke-dasharray:none;stroke-opacity:1" />
  <path
     d="m 5415.74,2954.27 -32.17,1.77 -175.36,14.85 -22.98,-6.36 -179.61,14.5 -36.42,2.47 -15.2,-12.37 -8.13,1.06 -17.68,14.5 -121.98,10.61 -25.46,7.07 -216.37,117.38 -62.93,35.36"
     id="path3788"
     style="fill:none;stroke:#00aedb;stroke-width:5;stroke-linecap:butt;stroke-linejoin:round;stroke-miterlimit:4;stroke-dasharray:none;stroke-opacity:1" />
  <text
     x="89.45"
     y="156.96"
     id="text2992"
     xml:space="preserve"
     style="font-style:normal;font-weight:normal;font-size:144px;line-height:125%;font-family:Sans;-inkscape-font-specification:Sans;letter-spacing:0px;word-spacing:0px;fill:#000000;fill-opacity:1;stroke:none"><tspan
       x="89.45"
       y="156.96"
       id="tspan1">1945</tspan></text>
  <path
     style="fill:none;fill-rule:evenodd;stroke:#6a7d34;stroke-width:5;stroke-linecap:butt;stroke-linejoin:round;stroke-miterlimit:4;stroke-dasharray:none;stroke-opacity:1"
     d="m 5362.32,2687.36 -46.27,-33.03 -25.07,-23.64 -48.42,-39.72 -36.04,-33.66 -107.05,-57.81 -56.29,-52.35 -53.47,-60.73 -26.79,-28.61 -29.98,-18.09 -32.5,-10.85 -54.3,-0.32 -41.08,11.93 -42.41,27.83 -53.89,38.87 -35.34,18.11 -31.81,12.37 -46.38,17.67 -39.31,3.53 -22.97,-2.21 -34.9,-13.69 -120.59,-63.61 -51.68,-17.23 -86.58,-40.64 -51.24,-18.55 -56.54,3.98 -38.43,11.04 -68.47,31.81 -37.11,37.11 -26.95,29.6 -37.99,30.04 -70.24,47.71 -32.25,15.9 -45.06,14.58 -43.29,2.65 -63.17,8.39 -59.19,3.98 -52.12,-3.53 -47.27,-15.9 -58.75,-35.34 -66.7,-64.05 -47.71,-42.41 -86.14,-135.17 -437.76,-427.6"
     id="path4142" />
  <text
     x="89.45"
     y="7297.96"
     id="text2992-3"
     xml:space="preserve"
     style="font-style:normal;font-weight:normal;font-size:144px;line-height:125%;font-family:Sans;-inkscape-font-specification:Sans;letter-spacing:0px;word-spacing:0px;fill:#000000;fill-opacity:1;stroke:none"><tspan
       x="89.45"
       y="7297.96"
       id="tspan2">1945</tspan></text>
  <path
     id="path4144"
     d="m 4846.14,2328.55 -21.63,-3.98 -28.27,-14.14 -80.84,-49.47 -33.13,-6.63 -73.33,-3.53 -64.49,-2.21 -48.15,-15.46 -49.92,-27.83 -81.72,-57.43 -52.12,-35.34 -54.78,-68.03 -17.23,-33.13 -62.28,-179.79 -56.98,-175.81 -95.42,-247.81 -8.39,-33.13 -7.07,-28.71 -17.23,-31.81 -18.99,-18.99 -68.91,-62.73 -58.75,-94.53 -43.29,-49.03 -43.29,-77.3 -30.92,-34.01 -81.72,-72 -100.72,-125.45 -45.5,-33.57 -29.15,-26.95 -47.27,-54.78 -41.08,-28.27 -41.08,-7.95 -77.75,-9.72 -31.8,-12.81 -40.2,-28.71 -116.18,-101.6 -166.09,-161.68 -24.3,-60.08 -18.11,-20.76 -110.39,-106.49 -2.05,-8.99 2.12,-13.76 21.68,-26.35"
     style="fill:none;fill-rule:evenodd;stroke:#6a7d34;stroke-width:5;stroke-linecap:butt;stroke-linejoin:round;stroke-miterlimit:4;stroke-dasharray:none;stroke-opacity:1" />
  <path
     id="path4499"
     d="M 110.5,3598.5 554,3751 l 525,102.5 31,1.5 35.5,-1 403.5,-64.5 494.5,-187 156,-34 71,-1.5 24,0.5 138.5,-32 596.5,-100 52.5,-2 185.5,5.5 279,-24.5 371.5,-58 375.5,-133 471.5,-243.5 38.5,-13 25.5,-5 124.5,-7"
     style="fill:none;fill-rule:evenodd;stroke:#688bab;stroke-width:5;stroke-linecap:butt;stroke-linejoin:round;stroke-opacity:1;stroke-miterlimit:4;stroke-dasharray:none" />
</svg>
