<svg xmlns="http://www.w3.org/2000/svg" height="1000" width="2300"><path d="M667.61 879.767l3.653-4.047 11.423-2.52 97.959-38.922 15.935-3.919 53.812-16.196 11.467-4.446 3.209 1.648" fill="none" stroke="#ae9962" stroke-width="5" stroke-linejoin="round"/><text x="89.453178" y="206.96094" style="line-height:125%;-inkscape-font-specification:Sans" font-weight="400" font-size="144px" font-family="Sans" letter-spacing="0" word-spacing="0"><tspan x="89.453178" y="206.96094">2005</tspan></text><path d="M667.61 879.767l-2.064 2.622-6.782 1.155-3.32-1.732-7.215-21.935-9.813-22.223-5.339-5.772-3.463 1.443-3.897 3.752-4.04 10.967-4.04 6.783-7.36 6.06L558.325 872l-4.762-.577-6.061-3.03-8.659-8.948-19.193-43.869-4.185-1.01-10.967 4.185-11.4 1.154-15.441 3.897-5.34-.578-23.089-12.122-4.473-6.35-2.886-21.357 15.296-41.704M865.068 811.365l23 .747 18.183 4.04 18.183 10.968 4.906-1.155 6.927-9.524 16.451-11.833 67.247-47.91h3.175l9.524 17.605 3.752 7.793 4.33 3.752h3.174l32.903-38.386 1.443-2.886 2.597-.578 10.968 7.793 12.121 13.565 4.041 1.154 33.768-10.39 29.727-11.256 14.142-9.813 30.305-9.235 42.426-54.26 12.7-10.679 12.987-7.792 13.503-33.8 1.429-2.04 13.367-11.327 31.224-.306 2.347 2.347v11.02l1.633 1.531 15.612 5.306 16.939-.714 8.878 17.755 3.163.816 31.837-20.102 2.653-.306 9.081-5.612 20.919-5.918 9.387-6.327 25.102-12.755 9.286.918 12.551 8.368 7.041 10.306-2.04 16.633 2.652 1.428 10.51-3.367 3.368-3.878 7.653-10.612 4.694-.102 5.767 12.742 1.876.433 15.441-3.896 1.588 1.01 5.483 10.534h2.02l8.515-7.07h2.309l12.122 14.574 14.575 22.368 7.792 20.636 16.596 17.894 7.215 9.524 8.803 15.008 8.947 7.937 16.307 12.41 8.514 11.401 18.471 29.006 17.606 21.79 7.936 9.813h3.608l4.33-3.608 11.688-3.174 18.905-.866 11.977 3.463 30.882 13.998 5.628 4.185 2.742 2.742 2.742.288 11.689-8.514 9.38-1.298 8.658 2.453 20.347 7.792 6.783 1.01 26.264 1.01 37.664-10.534 16.162-2.597 21.358-4.185 7.36 1.587 29.871 9.092 22.945.144 69.99-28.14 61.858 5.058 3.061-3.06-9.592-54.695 1.837-16.122 2.45-1.837 15.101-.204 32.857-10.204 33.061-3.674 1.43.409 1.224 3.06.612.817 3.265-1.224h1.225l2.244 7.55-11.632 3.878-.612-4.285 4.898-6.327" fill="none" stroke="#ae9962" stroke-linejoin="round"/><path d="M1297.551 619.286l3.674-1.225 44.693.919M1380.102 625.102l43.878-1.53M1520 612.245l11.02 10.204 3.47.612" fill="none" stroke="#ae9962" stroke-linejoin="round"/><path d="M1078.266 744.576l4.795-9.066 20-25.102 6.327-4.898 18.571-6.734 91.225-4.694 21.428 5.102 7.347 11.224 8.163 1.429 18.98-15.715 33.673-31.224 33.674-31.429 13.877-19.591 6.123-12.45 4.082-5.306 17.959-5.102 2.04-2.857-4.897-29.796 3.06-4.285 152.858-46.327 2.857-2.04.817-5.92 8.163-5.51 2.857-8.163 3.673-15.102.409-10.816 3.673-5.306 13.47-14.694 3.265-9.592 47.959-69.183 9.388-15.102 12.04-22.041L1676.532 260l6.938-13.265-1.224-3.674-10.816-11.428v-2.857l2.653-3.062.816-10.408-4.082-16.735 14.49-20.816 9.388-8.775 7.143-11.02-.408-2.858-54.694-17.551-33.47-9.592-1.632-3.265 3.673-12.45 23.878-20.407" fill="none" stroke="#ae9962" stroke-linejoin="round"/></svg>