<svg xmlns="http://www.w3.org/2000/svg" height="2350" width="2600"><path d="M810 894.474l19.932-15.864 17.541-34.176 10.73-35.109 2.549-15.058-2.11-16.203-.383-10.45 2.11-7.671 5.464-6.616 5.178-4.219 41.707-3.547 9.109 2.493 8.629 4.794 4.314 5.369 2.11 9.588 1.246 28.572 2.205 5.944 6.616 5.37 17.258 6.52 12.944.67 47.364 16.204 60.308.575 3.93 2.589 4.315 5.177 3.829 5.728 6.519 2.728" fill="none" stroke="#e5994d" stroke-width="5" stroke-linejoin="round"/><path d="M810 894.474L808.508 898l.407 47.729M1103.414 847.882l3.1-.269 10.606-5.957 84.593-1.191 14.858-5.183 5.06-2.86 3.521-6.601 2.64-14.083.22-10.561-3.08-7.261" fill="none" stroke="#e5994d" stroke-linejoin="round"/><text style="line-height:125%;-inkscape-font-specification:Sans" y="206.96094" x="89.453133" font-weight="400" font-size="143.99993896px" font-family="Sans" letter-spacing="0" word-spacing="0"><tspan y="206.96094" x="89.453133">1950</tspan></text></svg>