<?xml version="1.0" encoding="UTF-8" standalone="no"?>
<svg
   xmlns:dc="http://purl.org/dc/elements/1.1/"
   xmlns:cc="http://creativecommons.org/ns#"
   xmlns:rdf="http://www.w3.org/1999/02/22-rdf-syntax-ns#"
   xmlns:svg="http://www.w3.org/2000/svg"
   xmlns="http://www.w3.org/2000/svg"
   xmlns:xlink="http://www.w3.org/1999/xlink"
   viewBox="0 -200 2600 2600"
   height="2600"
   width="2600"
   id="svg2"
   version="1.1">
  <metadata
     id="metadata8">
    <rdf:RDF>
      <cc:Work
         rdf:about="">
        <dc:format>image/svg+xml</dc:format>
        <dc:type
           rdf:resource="http://purl.org/dc/dcmitype/StillImage" />
        <dc:title></dc:title>
      </cc:Work>
    </rdf:RDF>
  </metadata>
  <defs
     id="defs6" />
  <image
     xlink:href="../basemap/buhosm.png"
     y="-235"
     x="-100"
     id="image10"
     preserveAspectRatio="none"
     height="2651"
     width="2651"
     style="display:none" />
  <path
     id="path4506"
     d="m 765.41,397.8 123.58,232.59 19.18,32.12 117.93,100.67"
     style="opacity:1;fill:none;fill-opacity:1;fill-rule:nonzero;stroke:#3b8476;stroke-width:5;stroke-linecap:butt;stroke-linejoin:round;stroke-miterlimit:4;stroke-dasharray:none;stroke-opacity:1" />
  <path
     id="path4508"
     d="m 1494.47,249.27 -52.73,21.57 -27.33,6.71 -16.3,-1.92 -24.45,-11.51 -16.3,-2.88 h -10.07 l -16.78,6.71 -33.56,9.59 -72.39,46.5 -19.66,26.37 -25.89,15.82 -5.27,11.98 -15.82,104.99 -3.36,85.33 0.48,99.23 2.88,13.9 9.11,11.98 98.76,69.51 9.11,10.07 63.28,179.77 7.67,29.72 0.96,24.45 5.27,69.51 1.44,95.4 4.79,91.08 -1.92,15.34 -41.71,36.43 -37.87,39.31 -13.9,22.05 -3.36,10.55 15.34,44.58 13.42,23.49 13.42,12.94 70.47,26.37 153.89,83.41 23.97,19.18 137.11,200.87 164.43,292.43"
     style="opacity:1;fill:none;fill-opacity:1;fill-rule:nonzero;stroke:#015aaa;stroke-width:5;stroke-linecap:butt;stroke-linejoin:round;stroke-miterlimit:4;stroke-dasharray:none;stroke-opacity:1" />
  <path
     id="path4510"
     d="m 104.7,1019.66 59.92,-6.71 11.98,-9.59 30.2,-30.2 11.51,-3.84 369.61,-9.11 h 205.18 l 21.09,-8.63 58.49,-46.98 29.24,-12.94 19.66,-3.36 13.9,1.92 42.43,17.02 42.91,32.36 24.69,16.06"
     style="opacity:1;fill:none;fill-opacity:1;fill-rule:nonzero;stroke:#ed1a3a;stroke-width:5;stroke-linecap:butt;stroke-linejoin:round;stroke-miterlimit:4;stroke-dasharray:none;stroke-opacity:1" />
  <text
     style="font-style:normal;font-weight:normal;font-size:144px;line-height:125%;font-family:Sans;-inkscape-font-specification:Sans;letter-spacing:0px;word-spacing:0px;fill:#000000;fill-opacity:1;stroke:none"
     xml:space="preserve"
     id="text2995"
     y="6.96"
     x="89.45"><tspan
       id="tspan1"
       y="6.96"
       x="89.45">2005</tspan></text>
  <path
     style="opacity:1;fill:none;fill-opacity:1;fill-rule:nonzero;stroke:#feca0a;stroke-width:5;stroke-linecap:butt;stroke-linejoin:round;stroke-miterlimit:4;stroke-dasharray:none;stroke-opacity:1"
     d="m 1740.54,1177.69 -17.83,-53.87 -3.39,-27.12 17.63,-58.64 -0.34,-22.71 -14.24,-43.73 -17.97,-63.39 -22.03,-42.03 -22.03,-21.69 -33.56,-27.46 -13.56,-13.9 -14.24,-24.75 -10.17,-30.85 -20.34,-29.15 -15.59,-16.27 -11.86,-5.08 -25.08,-11.53 -30.85,-5.42 -35.93,-3.05 -110.17,-1.36 -45.42,-2.37 -80,8.81 -46.1,7.46 -24.75,1.02 -6.1,5.76 -21.69,50.17 -53.56,21.36 -53.22,-29.83 -23.39,-16.75 -75.24,-64.37 -18.84,-13.48 -8.97,-0.66 -31.53,12.88 -103.05,13.22 -9.14,8.95 -51.77,48.9 -25.89,15.82 -6.71,12.46 1.44,12.94 10.07,11.03 67.12,13.42 156.76,43.15 79.58,59.92 56.09,41.23 22.77,14.38 37.63,17.74 131.59,11.98 15.34,5.99 11.51,11.03 21.48,29.42 8.72,9.17 32.12,2.88 13.18,7.19 12.94,18.92 12.23,22.55 4.55,2.64 32.36,1.68 16.06,5.99 7.19,8.63 26.13,89.65 11.71,15.37 91.12,113.83 10.79,5.27 18.7,-0.24 17.02,-4.07 70.95,-55.85 29,-30.44 24.69,-55.61 13.18,-6.95 94.92,34.52 101.63,57.29 23.01,8.15 60.64,4.31 11.51,-3.36 9.59,-32.84 0.72,-42.67 -27.33,-148.13 3.12,-8.39 8.39,-11.03 6.71,-2.88 32.6,-7.67 25.65,-83.17 2.4,-8.87 3.84,-5.03 10.07,-3.6 102.35,28.52 23.01,4.31 16.06,-0.96 23.01,7.19"
     id="path4512-3" />
</svg>
