<svg xmlns="http://www.w3.org/2000/svg" height="3000" width="2700"><path d="m2013.74 190.27 62.42-10.64 20.13-0.5861.55-9.78 19.56 2.01h18.7l8.92-2.01 31.64-14.38 6.62-1.73 52.35 4.31 6.04 3.16 2.59 3.74 17.83 75.94 19.85 34.8 19.56 36.53 6.9.86h4.03l39.41-23.59 12.08-8.05 8.920.5810.64 12.08 8.52-1.44 24.55-27.61 40.46-13.49" style="opacity:1;fill:none;fill-opacity:1;fill-rule:nonzero;stroke:#e3001b;stroke-width:5;stroke-linecap:butt;stroke-linejoin:round;stroke-miterlimit:4;stroke-dasharray:none;stroke-opacity:1"/><path d="m2013.74 190.27-50.91 9.2-11.79-1.15-210.55-37.11" style="opacity:1;fill:none;fill-opacity:1;fill-rule:nonzero;stroke:#e3001b;stroke-width:1;stroke-linecap:butt;stroke-linejoin:round;stroke-miterlimit:4;stroke-dasharray:none;stroke-opacity:1"/><path d="m2192.54 693.29 6.1-12.61 7.32-82.37 5.49-12.0189.15-187.32 72.41-69.56-.2-7.93-18.71-18.71 1.22-6.92 24-27.05 39.25-13.12" style="opacity:1;fill:none;fill-opacity:1;fill-rule:nonzero;stroke:#0072b9;stroke-width:5;stroke-linecap:butt;stroke-linejoin:round;stroke-miterlimit:4;stroke-dasharray:none;stroke-opacity:1"/><path d="m2582.03 215.93-41.49 48.2-23.39 13.63-178.98 94.78-223.12 130.98-31.99 12.92-26.75 6.9-38.54-.58-62.42 6.04-27.9 10.35-159.35 104.7-7.48 7.48-9.2 23.01-4.89 21.570.8624.45 6.62 22.72 13.23 19.27 16.68 17.26 39.12 32.22 16.11 11.22 62.99 34.8 48.04 24.45 13.52 12.94 7.77 14.96 1.44 13.810.8615.53-5.18 14.09-20.71 27.33-13.23 20.71-18.98 38.83-2.59 15.53 6.62 74.21-3.45 16.4-10.07 22.44-29.05 60.4-11.22 51.2-4.6 12.37-11.22 12.66-13.81 9.49-17.55 3.74-33.37 11.22-14.09 7.19-34.52 26.17-10.35 13.81-27.9 56.66-4.6 15.24 2.3 18.98 26.46 63.28 2.59 23.87-1.73 26.46-6.04 19.27-30.78 35.95-8.63 11.51-8.05 17.83-8.05 25.89-11.51 13.81-28.76 22.72-105.85 84.28-39.98 27.33-25.31 17.83-28.76 13.52-44.87 12.94-17.83 10.93-13.23 12.37-5.47 8.92-12.66 27.33-11.79 13.23-31.06 26.46-9.2 7.48-50.62 8.92-20.42 2.01-58.1 15.24-16.97 10.35-64.14 57.24-14.67 23.01-10.93 37.97-8.05 17.55-12.94 11.79-97.8 63.28-12.94 6.62-43.15 8.05-48.32 13.81-16.68 6.62-33.37 23.3-36.53 13.23-15.24 8.92-47.75 38.26-18.98 4.03-43.43 7.77-13.52 4.31-15.53 11.79-98.37 100.1-18.41 14.09-13.81 7.77-18.12 4.31-56.38 8.34-22.44 7.48-16.4 8.63-14.09 12.66-5.18 9.78-2.01 11.79-2.01 23.87-2.59 12.94-85.72 153.31-71.33 124.26" style="opacity:1;fill:none;fill-opacity:1;fill-rule:nonzero;stroke:#8a0072;stroke-width:5;stroke-linecap:butt;stroke-linejoin:round;stroke-miterlimit:4;stroke-dasharray:none;stroke-opacity:1"/><text x="89.45" y="206.96" xml:space="preserve" style="font-style:normal;font-weight:400;font-size:144px;line-height:125%;font-family:Sans;-inkscape-font-specification:Sans;letter-spacing:0;word-spacing:0;fill:#000;fill-opacity:1;stroke:none"><tspan x="89.45" y="206.96">2020</tspan></text></svg>