<?xml version="1.0" encoding="UTF-8" standalone="no"?>
<svg
   id="svg2"
   viewBox="-1310, -2520, 8150, 7300"
   height="7300"
   width="8150"
   version="1.1"
   xml:space="preserve"
   xmlns:xlink="http://www.w3.org/1999/xlink"
   xmlns="http://www.w3.org/2000/svg"
   xmlns:svg="http://www.w3.org/2000/svg"
   xmlns:rdf="http://www.w3.org/1999/02/22-rdf-syntax-ns#"
   xmlns:cc="http://creativecommons.org/ns#"
   xmlns:dc="http://purl.org/dc/elements/1.1/"><metadata
   id="metadata37"><rdf:RDF><cc:Work
       rdf:about=""><dc:format>image/svg+xml</dc:format><dc:type
         rdf:resource="http://purl.org/dc/dcmitype/StillImage" /></cc:Work></rdf:RDF></metadata><defs
   id="defs6" /><g
   id="g7540"
   style="display:none"><image
     xlink:href="../../basemap/berosm.png"
     id="image12"
     height="7397.14"
     width="8424.52"
     y="-2537.86"
     x="-1488.33"
     style="display:inline" /><image
     width="8424.52"
     height="7397.14"
     preserveAspectRatio="none"
     style="opacity:0.5;stroke:#999999;stroke-opacity:1;image-rendering:optimizeSpeed"
     xlink:href="railosm.png"
     id="image5350"
     x="-1488.33"
     y="-2537.86" /></g><path
   style="fill:none;stroke:#999999;stroke-width:3;stroke-linecap:butt;stroke-linejoin:round;stroke-miterlimit:4;stroke-dasharray:none;stroke-opacity:1"
   d="m -509,3120.5 -67,11 -154.4,25.65 -163.75,22.24 -77.85,10.61 -25.12,0.02 -154.16,-13.72"
   id="path4503" /><path
   style="fill:none;stroke:#999999;stroke-width:3;stroke-linecap:butt;stroke-linejoin:round;stroke-miterlimit:4;stroke-dasharray:none;stroke-opacity:1"
   d="m 1682.02,1611.45 -11.36,25.35 -41.82,56.43 -53.47,73.44 -37.36,46.38 -13.53,15.46 -24.48,36.72 -86.97,115.32 -88.26,116.6 -98.57,128.2 -28.35,28.99 -26.41,21.26 -89.55,49.61 -63.78,38.01 -57.34,29.63 -85.68,50.89 -60.56,35.43 -109.52,63.78 -55.4,28.99"
   id="path3633" /><path
   style="fill:none;stroke:#999999;stroke-width:3;stroke-linejoin:round;stroke-opacity:1"
   d="m 1682.01,1611.43 5.96,-21.82 21.29,-103.28 21.56,-44.68 17.57,-53.75"
   id="path56498" /><path
   d="m 340,2723 67.5,-31.5 242.13,-119.57"
   id="path3959-6"
   style="fill:none;stroke:#999999;stroke-width:3;stroke-linecap:butt;stroke-linejoin:round;stroke-miterlimit:4;stroke-dasharray:none;stroke-opacity:1" /><path
   style="fill:none;stroke:#999999;stroke-width:3;stroke-linejoin:round;stroke-opacity:1"
   d="m -509,3120.5 77.05,-20.46 24.41,-10.65 297.56,-147.07 449.98,-219.31"
   id="path31010" /><text
   style="font-style:normal;font-weight:normal;font-size:144px;font-family:Sans;-inkscape-font-specification:Sans;fill:#000000;fill-opacity:1;stroke:none"
   xml:space="preserve"
   id="text2838"
   y="4677.96"
   x="-1170.55"><tspan
     id="tspan2"
     y="4677.96"
     x="-1220.55">1840</tspan></text><text
   style="font-style:normal;font-weight:normal;font-size:144px;font-family:Sans;-inkscape-font-specification:Sans;fill:#000000;fill-opacity:1;stroke:none"
   xml:space="preserve"
   id="text2838-3"
   y="-2313.04"
   x="-1170.55"><tspan
     id="tspan1"
     y="-2313.04"
     x="-1220.55">1840</tspan></text>
  


   

</svg>
