<svg xmlns="http://www.w3.org/2000/svg" width="6650" height="9150" viewBox="-1300 -1850 6650 9150"><path d="M2580.828 2206.864l-18.444-35.642-14.03-21.931-28.854-26.927-31-25.5-59-44.5-31.5-28.5-38.957-33.483-88.646-90.746-106.897-102.771-68.5-60-48-37.5-70-51-131.5-96-34-25.5-71.5-31.5-76.56-35.176" fill="none" stroke="#4baf4f" stroke-width="5" stroke-linejoin="round"/><text x="-1210.5469" y="-1643.0391" style="line-height:125%;-inkscape-font-specification:Sans" font-weight="400" font-size="143.99989319px" font-family="Sans" letter-spacing="0" word-spacing="0"><tspan x="-1210.5469" y="-1643.0391">1940</tspan></text><text x="-1210.5469" y="7197.9609" style="line-height:125%;-inkscape-font-specification:Sans" font-weight="400" font-size="143.99989319px" font-family="Sans" letter-spacing="0" word-spacing="0"/><path d="M2921.525 2179.157l-16.137 11.293-22.643 9.358-82.59 2.814-80.056-.258-56.099 3.5-48.5 1.5-50.5.5-22 15-13.5 20-15.5 25.5-22.08 4.464-15.92-1.964-35.5 4.5-35.5 4.5-12.5 2.5-38 4-14.5 8.5-31 15-34.5 16-39.5 6-52.5 4-20.5 3-13 9.5-6 15.5-11 29-6 10-18.5 8.5" fill="none" stroke="#0572b9" stroke-width="5" stroke-linejoin="round"/><path d="M3104.5 1705.864l-50 75-26 26.5-43.5 41-92.5 69.5-16.5 13.5-8.5 19.5-5.5 27.5-11 19.5-15.5 15.5-11.811 8.957-41.762 19.232-34.927 23.31-16.5 14-18 29.5-27.5 32-28.49 17.063-29.01 4.938-64 13.5-6.5 7.5-19.5 20.5-27 37.5-15 45-9 35.5-4.5 13.5-15 21.5-17 15-22.5 21.5-28.5 47-21 21.5-9 24-13.5 53" fill="none" stroke="#e42518" stroke-width="5" stroke-linejoin="round"/></svg>