<?xml version="1.0" encoding="UTF-8" standalone="no"?>
<svg
   xmlns:dc="http://purl.org/dc/elements/1.1/"
   xmlns:cc="http://creativecommons.org/ns#"
   xmlns:rdf="http://www.w3.org/1999/02/22-rdf-syntax-ns#"
   xmlns:svg="http://www.w3.org/2000/svg"
   xmlns="http://www.w3.org/2000/svg"
   xmlns:xlink="http://www.w3.org/1999/xlink"
   version="1.1"
   id="svg2"
   width="2600"
   height="2550"
   viewBox="0 0 2600 2550">
  <metadata
     id="metadata8">
    <rdf:RDF>
      <cc:Work
         rdf:about="">
        <dc:format>image/svg+xml</dc:format>
        <dc:type
           rdf:resource="http://purl.org/dc/dcmitype/StillImage" />
        <dc:title></dc:title>
      </cc:Work>
    </rdf:RDF>
  </metadata>
  <defs
     id="defs6" />
  <image
     style="display:none"
     width="2650"
     height="2650"
     preserveAspectRatio="none"
     xlink:href="file:///home/alexander/timelines/timelines/streetmap/../streetmap/sdjosm.png"
     id="image10"
     x="-25"
     y="-150" />
  <path
     style="opacity:1;fill:none;fill-opacity:1;fill-rule:nonzero;stroke:#00b0b0;stroke-width:5;stroke-linecap:butt;stroke-linejoin:round;stroke-miterlimit:4;stroke-dasharray:none;stroke-opacity:1"
     d="m 648.55932,1094.2373 23.38983,-2.0339 28.47458,2.3729 29.49153,10.8474 11.18644,4.0678 166.61017,25.2543 18.13559,-4.9153 17.62712,-11.8644 18.98305,-21.3559 36.61017,-62.0339 9.8305,-11.1865 12.5424,-7.7966 99.322,-33.2203 15.2543,-10.8475 7.1186,-11.8644 10.8475,-24.7457 5.7627,-7.7967 12.2034,-6.4406 46.1017,-11.5255 384.7457,-34.9152 26.7797,3.3898 21.6949,10.1695 40.678,16.2712 h 11.8644 l 16.9491,-5.4237 188.8136,-96.61021 164.4068,-110.84745 18.305,-25.42373 12.2034,-22.37288 8.1356,-9.49153 14.2373,-4.74576 46.4407,-11.86441 17.9661,-6.10169 19.6547,-8.99784 34.3816,-29.12883 50.1398,-95.02684 2.8651,-15.28069 -7.1628,-73.53836 10.5054,-21.01096 15.2807,-11.46052 39.1568,-108.39745 30.5614,-33.42653 17.1908,-18.62335 7.1628,-28.6513 7.6404,-17.66831 24.8311,-7.16283 22.4435,-12.89308 11.9381,-11.46053 12.4156,-18.14583 9.0729,-6.685301"
     id="path838" />
  <path
     style="opacity:1;fill:none;fill-opacity:1;fill-rule:nonzero;stroke:#2d9568;stroke-width:5;stroke-linecap:butt;stroke-linejoin:round;stroke-miterlimit:4;stroke-dasharray:none;stroke-opacity:1"
     d="m 672.62712,122.37288 3.38983,113.22034 9.49153,17.62711 75.9322,95.59322 6.77966,25.08475 -4.0678,18.98305 -54.91525,113.89831 0.67797,48.13559 -3.38983,21.69492 -9.49153,23.05084 -59.66102,80 -12.88135,10.84746 -60.33899,25.76271 -13.55932,10.84746 -12.88135,14.91525 -24.40678,55.59323 -1.35594,16.94915 35.25424,166.10173 38.64407,76.6101 8.13559,5.4238 42.0339,-4.7458 8.81356,5.4237 41.35593,92.8814 v 17.6271 l -10.84746,73.8983 -2.03389,36.6102 0.67796,8.1356 28.47458,14.2373 42.0339,48.1356 14.91525,46.1016 8.13559,34.5763 2.0339,25.0848 v 11.5254 l -48.13559,103.7288 2.71186,35.9322 -7.45762,8.8136 -136.94916,37.2881 -10.84745,6.7797 -12.20339,16.9491 0.67796,96.2712 -6.77966,35.2542"
     id="path840" />
  <text
     x="89.453125"
     y="2447.9609"
     id="text3813"
     xml:space="preserve"
     style="font-style:normal;font-weight:normal;font-size:144px;line-height:125%;font-family:Sans;-inkscape-font-specification:Sans;letter-spacing:0px;word-spacing:0px;fill:#000000;fill-opacity:1;stroke:none"><tspan
       x="89.453125"
       y="2447.9609"
       id="tspan2">2005</tspan></text>
  <text
     x="89.453102"
     y="206.96097"
     id="text3817"
     xml:space="preserve"
     style="font-style:normal;font-weight:normal;font-size:144px;line-height:125%;font-family:Sans;-inkscape-font-specification:Sans;letter-spacing:0px;word-spacing:0px;fill:#000000;fill-opacity:1;stroke:none"><tspan
       x="89.453102"
       y="206.96097"
       id="tspan1">2005</tspan></text>
</svg>
