<?xml version="1.0" encoding="UTF-8" standalone="no"?>
<svg
   xmlns:dc="http://purl.org/dc/elements/1.1/"
   xmlns:cc="http://creativecommons.org/ns#"
   xmlns:rdf="http://www.w3.org/1999/02/22-rdf-syntax-ns#"
   xmlns:svg="http://www.w3.org/2000/svg"
   xmlns="http://www.w3.org/2000/svg"
   xmlns:xlink="http://www.w3.org/1999/xlink"
   viewBox="0 0 900 2650"
   height="2650"
   width="900"
   id="svg2"
   version="1.1">
  <metadata
     id="metadata8">
    <rdf:RDF>
      <cc:Work
         rdf:about="">
        <dc:format>image/svg+xml</dc:format>
        <dc:type
           rdf:resource="http://purl.org/dc/dcmitype/StillImage" />
        <dc:title></dc:title>
      </cc:Work>
    </rdf:RDF>
  </metadata>
  <defs
     id="defs6" />
  <image
     style="display:none"
     y="-181.5"
     x="150"
     id="image10"
     xlink:href="file:///home/lexande/timelines/timelines/streetmap/../streetmap/kyaosm.png"
     preserveAspectRatio="none"
     height="2931.5"
     width="1066" />
  <path
     id="path840"
     d="m 322.7,2099.8 2.64,8.44 28.74,44.82 8.96,7.12 55.63,36.12 2.37,4.48 v 4.75 l -28.21,65.92 -6.59,9.23"
     style="opacity:1;fill:none;fill-opacity:0.4;fill-rule:nonzero;stroke:#c10e0e;stroke-width:5;stroke-linecap:butt;stroke-linejoin:round;stroke-miterlimit:4;stroke-dasharray:none;stroke-opacity:1" />
  <path
     id="path842"
     d="m 322.7,2099.8 0.26,-2.9 4.22,-4.75 53.52,-48.25 4.22,-6.86 9.23,-36.65 8.96,-25.58 10.28,-15.56 101.25,-101.25 4.22,-11.34 21.36,-101.25 1.85,-13.18 -0.26,-16.08 30.32,-135.52 15.82,-134.47 12.02,-122.05 0.49,-3.94 -4.59,-5.09 -6.45,-1.61 -4.34,1.74 -1.61,4.22 0.62,5.71 5.09,3.35 5.83,1.61 3.97,5.83"
     style="opacity:1;fill:none;fill-opacity:0.4;fill-rule:nonzero;stroke:#c10e0e;stroke-width:1;stroke-linecap:butt;stroke-linejoin:round;stroke-miterlimit:4;stroke-dasharray:none;stroke-opacity:1" />
  <path
     id="path846"
     d="m 386.25,2280.67 -6.33,11.6 -33.75,38.23 -46.14,77.25 -3.43,12.39 -3.69,26.63 1.32,4.22 7.12,4.75 15.82,1.05 6.86,4.48 7.91,5.27 8.44,16.35 1.85,4.22 0.26,5.27 -9.49,10.02 -3.43,6.59 -1.85,14.5 0.79,12.92 5.8,5.8 5.8,3.43 10.81,-0.79 11.6,-6.06 9.76,-12.92 1.85,-12.39 -6.59,-16.61 -6.86,-6.33 h -10.02 l -4.48,-1.05 -3.96,-2.37"
     style="opacity:1;fill:none;fill-opacity:0.4;fill-rule:nonzero;stroke:#c10e0e;stroke-width:1;stroke-linecap:butt;stroke-linejoin:round;stroke-miterlimit:4;stroke-dasharray:none;stroke-opacity:1" />
  <text
     x="89.45"
     y="206.96"
     id="text2992"
     xml:space="preserve"
     style="font-style:normal;font-weight:normal;font-size:144.0px;line-height:125%;font-family:Sans;-inkscape-font-specification:Sans;letter-spacing:0px;word-spacing:0px;fill:#000000;fill-opacity:1;stroke:none"><tspan
       x="89.45"
       y="206.96"
       id="tspan1">1995</tspan></text>
</svg>
