<svg xmlns="http://www.w3.org/2000/svg" width="900" height="2650"><path d="M595.07 211.415l29.794 28.74 1.582 4.482v6.591l3.691 6.592 10.81 10.81 1.583 6.592 3.428 30.322 27.685 112.586" fill="none" stroke="#c10e0e" stroke-width="5" stroke-linejoin="round"/><path d="M624.864 240.154l-2.373 11.338-13.71 13.183.263 6.328 3.955 5.801 11.338 1.846 7.382 3.164 13.448 15.292M322.702 2099.797l2.637 8.438 28.74 44.823 8.964 7.12 55.634 36.121 2.373 4.483v4.746l-28.213 65.917-6.591 9.228" fill="none" stroke="#c10e0e" stroke-width="5" stroke-linejoin="round"/><path d="M322.702 2099.797l.264-2.9 4.218-4.746 53.525-48.251 4.218-6.855 9.229-36.65 8.964-25.576 10.283-15.556 101.248-101.248 4.219-11.338 21.357-101.248 1.846-13.183-.264-16.084 30.322-135.525 15.82-134.47 26.103-264.985 34.804-326.947 23.73-230.182 12.129-105.994.263-33.485-2.636-27.422-8.701-39.022M595.07 211.415l-25.049-26.63-1.845-8.965 2.636-7.91 12.656-12.393 1.055-6.855-.264-10.283-12.392-11.338-7.119-.79-5.01 3.69-32.958 35.068-2.11 6.328 2.901 5.801 13.974 12.656h6.065l9.492-7.91 6.328-.527 6.591 3.427M386.246 2280.673l-6.328 11.601-33.75 38.232-46.142 77.254-3.427 12.393-3.692 26.63 1.319 4.219 7.119 4.746 15.82 1.054 6.855 4.483 7.91 5.273 8.438 16.347 1.845 4.22.264 5.272-9.492 10.02-3.428 6.591-1.845 14.502.79 12.92 5.801 5.8 5.8 3.428 10.811-.79 11.602-6.065 9.755-12.92 1.846-12.392-6.592-16.611-6.855-6.328h-10.02l-4.482-1.055-3.955-2.373" fill="none" stroke="#c10e0e" stroke-linejoin="round"/><text style="line-height:125%;-inkscape-font-specification:Sans" y="206.96094" x="89.453133" font-weight="400" font-size="143.99993896px" font-family="Sans" letter-spacing="0" word-spacing="0"><tspan y="206.96094" x="89.453133">2010</tspan></text><path d="M600.46 1320.179l-4.59-5.087-6.451-1.612-4.342 1.737-1.613 4.218.62 5.707 5.087 3.35 5.83 1.612 3.97 5.83" fill="none" stroke="#c10e0e" stroke-linejoin="round"/></svg>