<?xml version="1.0" encoding="UTF-8" standalone="no"?>
<!-- Created with Inkscape (http://www.inkscape.org/) -->

<svg
   version="1.1"
   id="svg2"
   width="1600"
   height="1950"
   viewBox="0 0 1600 1950"
   xmlns:xlink="http://www.w3.org/1999/xlink"
   xmlns="http://www.w3.org/2000/svg"
   xmlns:svg="http://www.w3.org/2000/svg">
  <defs
     id="defs6" />
  <image
     width="1890"
     height="1890"
     preserveAspectRatio="none"
     style="display:none;image-rendering:optimizeSpeed"
     xlink:href="../basemap/hanosm.png"
     id="image10"
     x="-225"
     y="85" />
  <path
     style="fill:none;stroke:#b8b803;stroke-width:5;stroke-linejoin:round;stroke-opacity:1"
     d="m 123.85,255.16 45.77,33 206.38,87.67 136.25,54.6 220.64,72.41 16.45,2.48 76.94,-0.48 90.36,4.68 99.55,34.87 9.61,6.7 44.83,48.05 10.89,6.82 32.98,17.2"
     id="path356" />
  <path
     style="fill:none;stroke:#90403e;stroke-width:5;stroke-linejoin:round;stroke-opacity:1"
     d="m 1448.75,622.38 3.96,47.02 -1.22,9.28 -13.38,46.3 -32.13,65.29 -10.29,10.59 -14.28,7.44 -18.24,8.97 -8.79,9.04 -51.31,60.42 -19.79,27.77 -4.68,13.4 -0.27,12.11 1.81,14.75 19.34,32.93 10.34,28.89 1.09,11.86 -0.81,11.08 -4.14,9.62 -8.97,10.1 -334.81,247.34 -147.1,124.19 -63.38,49.14 -184.12,156.37 -255.97,208.96"
     id="path454" />
  <text
     style="font-style:normal;font-weight:normal;font-size:144px;line-height:125%;font-family:Sans;-inkscape-font-specification:Sans;letter-spacing:0px;word-spacing:0px;fill:#000000;fill-opacity:1;stroke:none"
     xml:space="preserve"
     id="text2994"
     y="206.96"
     x="89.45"><tspan
       id="tspan1"
       y="206.96"
       x="89.45">2025</tspan></text>
</svg>
