<?xml version="1.0" encoding="UTF-8" standalone="no"?>
<svg
   viewBox="0 0 2100 2100"
   height="2100"
   width="2100"
   id="svg2"
   version="1.1"
   xmlns:xlink="http://www.w3.org/1999/xlink"
   xmlns="http://www.w3.org/2000/svg"
   xmlns:svg="http://www.w3.org/2000/svg"
   xmlns:rdf="http://www.w3.org/1999/02/22-rdf-syntax-ns#"
   xmlns:cc="http://creativecommons.org/ns#"
   xmlns:dc="http://purl.org/dc/elements/1.1/">
  <metadata
     id="metadata8">
    <rdf:RDF>
      <cc:Work
         rdf:about="">
        <dc:format>image/svg+xml</dc:format>
        <dc:type
           rdf:resource="http://purl.org/dc/dcmitype/StillImage" />
      </cc:Work>
    </rdf:RDF>
  </metadata>
  <defs
     id="defs6" />
  <image
     style="display:none"
     y="19.44"
     x="50"
     id="image10"
     xlink:href="../streetmap/brqosm.png"
     preserveAspectRatio="none"
     height="2205.56"
     width="1985" />
  <path
     id="path836"
     d="m 1784.7,964.58 -12.16,7.13 -62.97,53.41 -22.21,14.74 -18.57,4.05 -44.71,-12.11 -20.61,-6.95 -17.98,-8.39 -43.39,-28.76 -10.07,-3.84 -40.03,-2.88 -15.82,-1.92"
     style="opacity:1;fill:none;fill-opacity:0.53;fill-rule:nonzero;stroke:#005089;stroke-width:1;stroke-linecap:butt;stroke-linejoin:round;stroke-miterlimit:4;stroke-dasharray:none;stroke-opacity:1" />
  <path
     id="path867"
     d="m 786.35,1305.28 19.18,-6.47 9.59,-1.44 16.06,0.72 9.59,-3.36 12.22,-8.15 10.55,-3.6 17.74,-0.48 7.91,-3.6 8.39,-6.71 12.7,-13.9 10.07,-5.75 11.27,-2.16 19.18,1.2 10.79,-5.03 6.95,-6.47 21.42,-36.5 3.03,-5.21 0.72,-11.75 -1.44,-8.39 1.2,-3.6"
     style="opacity:1;fill:none;fill-opacity:0.53;fill-rule:nonzero;stroke:#005089;stroke-width:5;stroke-linecap:butt;stroke-linejoin:round;stroke-miterlimit:4;stroke-dasharray:none;stroke-opacity:1" />
  <path
     id="path871"
     d="m 354.03,411.65 7.83,12.34 8.47,8.81 16.95,10.17 8.47,11.53 4.41,13.22 2.37,23.39"
     style="opacity:1;fill:none;fill-opacity:0.53;fill-rule:nonzero;stroke:#005089;stroke-width:1;stroke-linecap:butt;stroke-linejoin:round;stroke-miterlimit:4;stroke-dasharray:none;stroke-opacity:1" />
  <path
     id="path873"
     d="m 522.44,543.28 13.9,4.07 29.48,10.55 10.07,9.59 39.31,55.37 11.51,11.51 12.46,5.75 71.91,17.26 17.5,1.44 12.46,2.88 9.11,8.87 7.67,15.34 1.44,12.94 -2.88,10.55 -11.03,18.22 -26.13,61.36 -3.12,14.14 2.16,19.89 -2.16,19.18 0.96,51.53 4.07,9.11 6.23,11.98 7.67,16.54 7.91,9.35 90.61,48.9 56.33,14.14 17.02,1.44 9.11,8.15"
     style="opacity:1;fill:none;fill-opacity:0.53;fill-rule:nonzero;stroke:#005089;stroke-width:5;stroke-linecap:butt;stroke-linejoin:round;stroke-miterlimit:4;stroke-dasharray:none;stroke-opacity:1" />
  <path
     id="path875"
     d="M 657.21,645.31 713.0,622.62"
     style="opacity:1;fill:none;fill-opacity:0.53;fill-rule:nonzero;stroke:#005089;stroke-width:5;stroke-linecap:butt;stroke-linejoin:round;stroke-miterlimit:4;stroke-dasharray:none;stroke-opacity:1" />
  <path
     id="path877"
     d="m 916.03,1013.33 24.69,-0.48 27.33,-16.78 6.95,-2.88 2.88,1.68 6.47,14.62 2.16,1.68 14.38,1.92 21.33,4.31 14.62,-13.42 6.47,-1.44 18.7,3.84 54.89,2.16 10.55,-13.66 40.03,-21.81 4.07,-5.75 11.98,-37.15 -0.48,-5.27 -26.13,-43.62 -32.84,-21.09 -4.07,-4.07 -3.36,-27.57 -8.15,-37.63 L 1070.39,689.5 964.68,417.68 910.75,294.24 834.53,120.22 828.3,114.47"
     style="opacity:1;fill:none;fill-opacity:0.53;fill-rule:nonzero;stroke:#005089;stroke-width:1;stroke-linecap:butt;stroke-linejoin:round;stroke-miterlimit:4;stroke-dasharray:none;stroke-opacity:1" />
  <path
     id="path879"
     d="m 993.45,1174.65 0.24,-4.55 -7.19,-48.66 5.03,-55.85 -3.6,-19.66 -7.67,-19.18 0.48,-7.91 2.64,-5.75 3.12,-1.92"
     style="opacity:1;fill:none;fill-opacity:0.53;fill-rule:nonzero;stroke:#005089;stroke-width:1;stroke-linecap:butt;stroke-linejoin:round;stroke-miterlimit:4;stroke-dasharray:none;stroke-opacity:1" />
  <path
     id="path883"
     d="m 1176.78,914.66 1.19,-3.73 24.07,-13.22 4.92,-6.1 15.08,-15.08 17.46,-9.66 56.44,-17.97 3.73,-3.73 3.56,-38.81 1.7,-2.71 6.61,-1.53 5.93,-6.95 4.75,0.17 6.78,3.39 19.49,15.76 10.34,4.41 15.25,0.68 61.36,4.24 9.83,-2.71 7.97,-6.61 4.58,-12.88 -2.37,-27.86 1.57,-15.34 3.54,-10.03 4.33,-42.86 14.35,-80.81 0.59,-20.45"
     style="opacity:1;fill:none;fill-opacity:0.53;fill-rule:nonzero;stroke:#005089;stroke-width:1;stroke-linecap:butt;stroke-linejoin:round;stroke-miterlimit:4;stroke-dasharray:none;stroke-opacity:1" />
  <path
     id="path885"
     d="m 983.38,1013.09 0.96,-3.6"
     style="opacity:1;fill:none;fill-opacity:0.53;fill-rule:nonzero;stroke:#005089;stroke-width:1;stroke-linecap:butt;stroke-linejoin:round;stroke-miterlimit:4;stroke-dasharray:none;stroke-opacity:1" />
  <path
     id="path887"
     d="m 977.87,994.87 1.28,-2.76 11.02,-2.88 4.92,-5.76 0.85,-6.27 0.17,-5.08 1.36,-1.53 12.54,-2.54 17.97,4.24 h 8.98 l 12.71,-7.46 15.25,-3.73 10.34,-1.86 13.56,0.17 1.53,-3.22 -16.95,-70.17 1.69,-3.73 31.19,-6.44 5.42,-5.76 7.29,-9.15 1.03,-4.84"
     style="opacity:1;fill:none;fill-opacity:0.53;fill-rule:nonzero;stroke:#005089;stroke-width:1;stroke-linecap:butt;stroke-linejoin:round;stroke-miterlimit:4;stroke-dasharray:none;stroke-opacity:1" />
  <path
     id="path889"
     d="m 1272.22,432.06 -3.6,7.67 -7.67,32.36 0.96,3.6 12.46,9.83 -0.48,5.99 -32.84,34.28 -37.87,46.5 -5.99,10.31 -2.64,8.87 0.48,9.35 30.44,81.02 9.83,23.49 40.75,64.0 10.43,14.98 8.87,1.08 7.87,20.98"
     style="opacity:1;fill:none;fill-opacity:0.53;fill-rule:nonzero;stroke:#005089;stroke-width:1;stroke-linecap:butt;stroke-linejoin:round;stroke-miterlimit:4;stroke-dasharray:none;stroke-opacity:1" />
  <path
     id="path891"
     d="m 713.0,622.62 9.83,-6.47 3.36,-3.36 32.84,7.43 30.68,12.7 38.59,20.37 30.68,6.47 21.09,11.98 26.61,11.03 17.5,5.51 10.79,8.39 42.19,57.29 57.05,66.4 40.03,39.79 5.99,5.51 8.63,2.16 2.16,8.63 2.88,1.92"
     style="opacity:1;fill:none;fill-opacity:0.53;fill-rule:nonzero;stroke:#005089;stroke-width:1;stroke-linecap:butt;stroke-linejoin:round;stroke-miterlimit:4;stroke-dasharray:none;stroke-opacity:1" />
  <path
     id="path927"
     d="m 1007.11,1263.33 -2.64,-14.38 -6.47,-46.02 -4.31,-32.84"
     style="opacity:1;fill:none;fill-opacity:0.53;fill-rule:nonzero;stroke:#005089;stroke-width:1;stroke-linecap:butt;stroke-linejoin:round;stroke-miterlimit:4;stroke-dasharray:none;stroke-opacity:1" />
  <path
     id="path929"
     d="m 1476.2,979.05 -33.32,-10.55 -42.19,-16.3 -12.7,-0.24 -10.79,2.4 -1.44,2.88 4.79,20.13 -1.68,11.51 -3.36,1.68 -46.5,-14.38 -6.71,-0.96 -65.68,0.72 -30.92,-11.27 -6.95,-0.96 -9.59,1.92 -14.62,4.55 -16.06,-2.16 -6.95,2.4 -4.07,2.64"
     style="opacity:1;fill:none;fill-opacity:0.53;fill-rule:nonzero;stroke:#005089;stroke-width:1;stroke-linecap:butt;stroke-linejoin:round;stroke-miterlimit:4;stroke-dasharray:none;stroke-opacity:1" />
  <path
     id="path933"
     d="m 402.54,491.1 2.54,24.58 5.76,12.88 13.05,12.37 17.63,8.81 25.42,5.42 7.8,-1.02 16.27,-7.8 8.81,-2.37 22.61,-0.7"
     style="opacity:1;fill:none;fill-opacity:0.53;fill-rule:nonzero;stroke:#005089;stroke-width:1;stroke-linecap:butt;stroke-linejoin:round;stroke-miterlimit:4;stroke-dasharray:none;stroke-opacity:1" />
  <text
     style="font-style:normal;font-weight:normal;font-size:144.0px;line-height:125%;font-family:Sans;-inkscape-font-specification:Sans;letter-spacing:0px;word-spacing:0px;fill:#000000;fill-opacity:1;stroke:none"
     xml:space="preserve"
     id="text2995"
     y="206.96"
     x="89.45"><tspan
       id="tspan1"
       y="206.96"
       x="89.45">1980</tspan></text>
  <path
     style="opacity:1;fill:none;fill-opacity:0.53;fill-rule:nonzero;stroke:#005089;stroke-width:1;stroke-linecap:butt;stroke-linejoin:round;stroke-miterlimit:4;stroke-dasharray:none;stroke-opacity:1"
     d="m 1183.53,930.16 1.34,-6.38 3.05,-8.26 -0.69,-3.34 -2.26,-3.24 0.29,-2.16"
     id="path1085" />
  <path
     style="opacity:1;fill:none;fill-opacity:0.53;fill-rule:nonzero;stroke:#005089;stroke-width:1;stroke-linecap:butt;stroke-linejoin:round;stroke-miterlimit:4;stroke-dasharray:none;stroke-opacity:1"
     d="m 1118.98,860.93 5.1,-0.77"
     id="path1135" />
  <path
     style="opacity:1;fill:none;fill-opacity:0.53;fill-rule:nonzero;stroke:#005089;stroke-width:1;stroke-linecap:butt;stroke-linejoin:round;stroke-miterlimit:4;stroke-dasharray:none;stroke-opacity:1"
     d="m 1174.65,910.82 3.32,0.11"
     id="path1137" />
  <path
     style="opacity:1;fill:none;fill-opacity:0.53;fill-rule:nonzero;stroke:#005089;stroke-width:1;stroke-linecap:butt;stroke-linejoin:round;stroke-miterlimit:4;stroke-dasharray:none;stroke-opacity:1"
     d="m 1295.35,785.38 -0.17,-7.2 15.04,-44.24 4.72,-1.97 12.78,3.83 2.36,-0.59 11.5,-31.46 2.65,-1.97 11.4,1.67 4.92,-2.26 13.86,-22.32 19.07,-36.67 11.01,-17.11 7.87,-3.34 8.06,-0.2 9.44,-5.11 11.21,-15.53 5.11,-2.16 17.89,2.56 11.99,1.77 2.75,-0.79 1.77,-4.52 -1.57,-11.99 -6.1,-17.89 2.16,-42.86 2.95,-11.4 8.06,-7.87 3.15,-7.08 0.38,-45.97 3.06,-7.79 3.61,-8.34 10.57,-5.84 60.34,-23.08"
     id="path1139" />
  <path
     style="opacity:1;fill:none;fill-opacity:0.53;fill-rule:nonzero;stroke:#005089;stroke-width:1;stroke-linecap:butt;stroke-linejoin:round;stroke-miterlimit:4;stroke-dasharray:none;stroke-opacity:1"
     d="m 1310.22,733.94 4.72,-14.45 2.56,-1.38 14.55,4.52 3.24,-1.38"
     id="path1141" />
  <path
     id="path2077"
     d="m 1106.27,875.85 3.1,-0.2 1.81,1.39 12.24,43.24 4.45,10.71 13.9,20.58 2.36,6.53 0.83,10.29 8.06,9.45 3.89,0.83"
     style="opacity:1;fill:none;fill-opacity:0.53;fill-rule:nonzero;stroke:#005089;stroke-width:1;stroke-linecap:butt;stroke-linejoin:round;stroke-miterlimit:4;stroke-dasharray:none;stroke-opacity:1" />
  <path
     style="opacity:1;fill:none;fill-opacity:0.53;fill-rule:nonzero;stroke:#005089;stroke-width:1;stroke-linecap:butt;stroke-linejoin:round;stroke-miterlimit:4;stroke-dasharray:none;stroke-opacity:1"
     d="m 964.58,419.07 2.54,-5.93 28.64,-22.88 0.68,-3.22 -5.08,-9.49"
     id="path925" />
  <path
     style="opacity:1;fill:none;fill-opacity:0.53;fill-rule:nonzero;stroke:#005089;stroke-width:5;stroke-linecap:butt;stroke-linejoin:round;stroke-miterlimit:4;stroke-dasharray:none;stroke-opacity:1"
     d="m 1083.09,1963.73 -0.48,-7.19 -5.75,-8.63 -0.48,-82.7 -1.44,-41.23 -4.79,-56.09 -21.33,-191.28 -19.18,-169.47 -2.4,-57.29 -2.13,-8.94"
     id="path840" />
  <path
     style="opacity:1;fill:none;fill-opacity:0.53;fill-rule:nonzero;stroke:#005089;stroke-width:1;stroke-linecap:butt;stroke-linejoin:round;stroke-miterlimit:4;stroke-dasharray:none;stroke-opacity:1"
     d="m 1025.11,1340.92 -7.67,-33.82 -10.33,-43.77"
     id="path4310" />
</svg>
