<?xml version="1.0" encoding="UTF-8" standalone="no"?>
<!-- Created with Inkscape (http://www.inkscape.org/) -->

<svg
   xmlns:dc="http://purl.org/dc/elements/1.1/"
   xmlns:cc="http://creativecommons.org/ns#"
   xmlns:rdf="http://www.w3.org/1999/02/22-rdf-syntax-ns#"
   xmlns:svg="http://www.w3.org/2000/svg"
   xmlns="http://www.w3.org/2000/svg"
   xmlns:xlink="http://www.w3.org/1999/xlink"
   version="1.1"
   width="5376"
   height="5000"
   id="svg2">
  <metadata
     id="metadata8">
    <rdf:RDF>
      <cc:Work
         rdf:about="">
        <dc:format>image/svg+xml</dc:format>
        <dc:type
           rdf:resource="http://purl.org/dc/dcmitype/StillImage" />
        <dc:title></dc:title>
      </cc:Work>
    </rdf:RDF>
  </metadata>
  <defs
     id="defs6" />
  <image
     xlink:href="guangzhouosm.png"
     style="display:none"
     id="image10"
     height="4966.2222"
     width="5587"
     y="133.77783"
     x="0" />
  <path
     d="m 2482.0833,2325.6791 35.6568,32.6188 40.4437,14.8823 L 2592,2370 l 39,-9 125,29 40,13 17,5 14,-6 32,-15 51,-45 51,-9 128,-4 180,-7 30,-4 38,-10 53,-20 107,-1 303,1 258,12"
     id="path2987"
     style="fill:none;stroke:#005f96;stroke-width:5;stroke-linecap:butt;stroke-linejoin:round;stroke-miterlimit:4;stroke-opacity:1;stroke-dasharray:none" />
  <path
     d="M 4045.314,2289.3625 4041,2305 l -108,256 -30,82 2,75 25,60 116,115 95,110 294.4185,339.7708"
     id="path3797"
     style="fill:none;stroke:#057d4f;stroke-width:5;stroke-linecap:butt;stroke-linejoin:round;stroke-miterlimit:4;stroke-opacity:0.94117647;stroke-dasharray:none" />
  <path
     d="m 2484.0086,2328.2875 -93.9877,-232.0771 -29.6985,-62.2254 -21.2132,-42.4264 -5.6568,-134.3503 -21.2132,-186.6762 -29.6985,-60.8112 -36.7696,-55.1543 -24.0416,-38.1838"
     id="path3799"
     style="fill:none;stroke:#005f96;stroke-width:5;stroke-linecap:butt;stroke-linejoin:miter;stroke-miterlimit:4;stroke-opacity:1;stroke-dasharray:none" />
  <path
     d="M 3187.3122,1492.4801 3182,1507 l -2,114 -8,11 -15,0 -7,11 -8,373 1,51 22,77 5,37 3,33 -8,35 -20,34 -4.3197,50.9729"
     id="path3801"
     style="fill:none;stroke:#e89e49;stroke-width:5;stroke-linecap:butt;stroke-linejoin:round;stroke-miterlimit:4;stroke-opacity:1;stroke-dasharray:none" />
  <path
     d="m 1886,2808 -18,-60 1,-19 29,-188 19,-34 -6,-77 -5,-43 50,-157 42,-109 25,-66 9,-112 6,-39 14,-25 19,-11 109,6 97,6 140,-10 36,-4 26,-9 102,-7 56,3 55,20 61,19 36,3 98,-26 56,-24 47,-23 72,-16 88,-21 60,3 14,-8 12,-15 8,-29 -4,-212 2,-15 -9,-5 -40,-1"
     id="path3862"
     style="fill:none;stroke:#eccd38;stroke-width:5;stroke-linecap:butt;stroke-linejoin:round;stroke-miterlimit:4;stroke-opacity:1;stroke-dasharray:none" />
  <path
     d="m 2777,1382 77,-216"
     id="path3868"
     style="fill:none;stroke:#000000;stroke-width:5;stroke-linecap:butt;stroke-linejoin:round;stroke-miterlimit:4;stroke-opacity:1;stroke-dasharray:none" />
  <text
     x="89.453125"
     y="4897.9609"
     id="text3870"
     xml:space="preserve"
     style="font-size:144px;font-style:normal;font-weight:normal;line-height:125%;letter-spacing:0px;word-spacing:0px;fill:#000000;fill-opacity:1;stroke:none;font-family:Sans;-inkscape-font-specification:Sans"><tspan
       x="89.453125"
       y="4897.9609"
       id="tspan2">2005</tspan></text>
  <text
     x="89.453125"
     y="206.96094"
     id="text3874"
     xml:space="preserve"
     style="font-size:144px;font-style:normal;font-weight:normal;line-height:125%;letter-spacing:0px;word-spacing:0px;fill:#000000;fill-opacity:1;stroke:none;font-family:Sans;-inkscape-font-specification:Sans"><tspan
       x="89.453125"
       y="206.96094"
       id="tspan1">2005</tspan></text>
</svg>
