<?xml version="1.0" encoding="UTF-8" standalone="no"?>
<svg
   xmlns:dc="http://purl.org/dc/elements/1.1/"
   xmlns:cc="http://creativecommons.org/ns#"
   xmlns:rdf="http://www.w3.org/1999/02/22-rdf-syntax-ns#"
   xmlns:svg="http://www.w3.org/2000/svg"
   xmlns="http://www.w3.org/2000/svg"
   xmlns:xlink="http://www.w3.org/1999/xlink"
   version="1.1"
   width="7450"
   height="8200"
   viewBox="-1100 -1934 7450 8200"
   id="svg2">
  <metadata
     id="metadata15547">
    <rdf:RDF>
      <cc:Work
         rdf:about="">
        <dc:format>image/svg+xml</dc:format>
        <dc:type
           rdf:resource="http://purl.org/dc/dcmitype/StillImage" />
        <dc:title></dc:title>
      </cc:Work>
    </rdf:RDF>
  </metadata>
  <defs
     id="defs6" />
  <image
     xlink:href="../../streetmap/nycosm.png"
     id="image12"
     height="5376"
     width="5888"
     y="0"
     x="-512"
     style="display:none" />
  <path
     d="m 2583.9577,3382.9734 -6.9204,-1.141 -5.2712,-5.2583 L 2567,3324 l 2.1696,-52.7795 -7.9915,-4.7881 -96.678,-5.4322 -7.3471,-0.3922 -26.111,-27.143 -18.792,-3.215"
     id="path12738"
     style="fill:none;stroke:#808000;stroke-width:5;stroke-linecap:butt;stroke-linejoin:round;stroke-miterlimit:4;stroke-dasharray:none;stroke-opacity:1" />
  <path
     d="m 2377.5,3070 -21.5,33.5 -27,38 -24.5,25 -26.5,10.5 -14,13 -9,15 -30,25.5 3.5,12.5 -30,9 1.5,11"
     id="path4555"
     style="fill:none;stroke:#ff0080;stroke-width:5;stroke-linecap:butt;stroke-linejoin:round;stroke-miterlimit:4;stroke-opacity:1;stroke-dasharray:none" />
  <path
     d="m 2604,2583 66.5,38"
     id="path4577"
     style="fill:none;stroke:#6c6e70;stroke-width:5;stroke-linecap:butt;stroke-linejoin:round;stroke-miterlimit:4;stroke-opacity:1;stroke-dasharray:none" />
  <path
     d="m 2643.5,2512.5 -38.5,-21"
     id="path5111"
     style="fill:none;stroke:#6c6e70;stroke-width:5;stroke-linecap:butt;stroke-linejoin:round;stroke-miterlimit:4;stroke-opacity:1;stroke-dasharray:none" />
  <path
     d="m 2382,3072 -19.5,31 -29.5,40.9999 -25,26.5002 -26.5,10.4999 -14,11.5 -8,13.9999 -29.5,25.5001 5,13.0001 -30.5,10.4999 0,6.0001"
     id="path9453"
     style="fill:none;stroke:#7bd9f5;stroke-width:5.00000048;stroke-linecap:butt;stroke-linejoin:round;stroke-miterlimit:4;stroke-opacity:1;stroke-dasharray:none" />
  <path
     d="m 2377.5,3069.4999 -84,27.0001"
     id="path8941"
     style="fill:none;stroke:#ff0080;stroke-width:5.00000048;stroke-linecap:butt;stroke-linejoin:round;stroke-miterlimit:4;stroke-opacity:1;stroke-dasharray:none" />
  <path
     d="m 2754,2373.5 -111.5,203 -71,128 28,15 -114,205.5 -47,127 -5,14 -46.4393,5.0577 L 2381,3072.5"
     id="path5124"
     style="fill:none;stroke:#7bd9f5;stroke-width:5;stroke-linecap:butt;stroke-linejoin:round;stroke-miterlimit:4;stroke-opacity:1;stroke-dasharray:none" />
  <path
     d="m 2753,2375.5 16,-28.5"
     id="path6156"
     style="fill:none;stroke:#7bd9f5;stroke-width:5;stroke-linecap:butt;stroke-linejoin:round;stroke-miterlimit:4;stroke-opacity:1;stroke-dasharray:none" />
  <path
     d="m 2769,2347 91,-164 132.5,-239.5 120.5,-218.5 18.051,-30.944"
     id="path6185"
     style="fill:none;stroke:#7bd9f5;stroke-width:5;stroke-linecap:butt;stroke-linejoin:round;stroke-miterlimit:4;stroke-dasharray:none;stroke-opacity:1" />
  <path
     d="m 3293.5,1510.5 35.5,-26 28,-34 21.5,-42.5 26.5,-10 14,-35.5 32.5,-109 26,-52 37,-65.5 16.5,-33 20.5,-49 9.6406,-26.9497"
     id="path7444"
     style="fill:none;stroke:#ff0080;stroke-width:5;stroke-linecap:butt;stroke-linejoin:round;stroke-miterlimit:4;stroke-opacity:1;stroke-dasharray:none" />
  <text
     x="-1010.5469"
     y="-1727.0391"
     id="text3652"
     xml:space="preserve"
     style="font-size:144px;font-style:normal;font-weight:normal;fill:#000000;fill-opacity:1;stroke:none;font-family:Sans;-inkscape-font-specification:Sans"><tspan
       x="-1010.5469"
       y="-1727.0391"
       id="tspan1">1900</tspan></text>
  <text
     x="-1010.5469"
     y="6163.9609"
     id="text3652-1"
     xml:space="preserve"
     style="font-size:144px;font-style:normal;font-weight:normal;fill:#000000;fill-opacity:1;stroke:none;font-family:Sans;-inkscape-font-specification:Sans"><tspan
       x="-1010.5469"
       y="6163.9609"
       id="tspan2">1900</tspan></text>
  <path
     d="m 2820,3147 93,43 154,115 72,55 320,239 21,16"
     id="path3619"
     style="fill:none;stroke:#6c6e70;stroke-width:5;stroke-linecap:butt;stroke-linejoin:round;stroke-miterlimit:4;stroke-opacity:1;stroke-dasharray:none" />
  <path
     d="m 2710,3120 64,8.5 53,21.5"
     id="path11410"
     style="fill:none;stroke:#6c6e70;stroke-width:5;stroke-linecap:butt;stroke-linejoin:round;stroke-miterlimit:4;stroke-opacity:1;stroke-dasharray:none" />
  <path
     d="m 2787.5486,3863.5215 8.7994,91.4475 -3.348,23.031 -35,155 31,216 52,357 39,276 1,48 -65,130 -1,18"
     id="path3606"
     style="fill:none;stroke:#800000;stroke-width:5;stroke-linecap:butt;stroke-linejoin:round;stroke-miterlimit:4;stroke-dasharray:none;stroke-opacity:1" />
  <path
     d="m 2013.4448,2736.8674 -41.5209,-1.5969 -101.5666,-23.9544 -61.3232,-29.2291 -28.4952,-15.9793 -33.1474,-17.7118 -7.0266,1.2776 -49.1863,91.9848 -7.6654,20.4411 -13.095,14.692 -5.1103,3.8327 -9.5819,5.1099"
     id="path3104"
     style="fill:none;stroke:#009174;stroke-width:5;stroke-linecap:butt;stroke-linejoin:round;stroke-miterlimit:4;stroke-opacity:1;stroke-dasharray:none" />
  <path
     d="m 3298,1508 -20.5,16.5 -69.5,129 -7.5,8"
     id="path13467"
     style="fill:none;stroke:#ff0080;stroke-width:5;stroke-linecap:butt;stroke-linejoin:round;stroke-miterlimit:4;stroke-opacity:1;stroke-dasharray:none" />
  <path
     d="m 2377.5,3069.5 8.0758,-12.4673 L 2413,2993.5 l 17.5,-57.5 19.5,-73.5 40.5,-73.5 99,-178.5 91,-165.5 80,-145 91.5,-164.5 100,-181.5 143.5,-260 23.9831,-42.3983 14.9891,8.0608 14.5975,7.2988 22.6514,-11.5774 23.6581,9.3122 8.5572,-6.5437"
     id="path9814"
     style="fill:none;stroke:#ff0080;stroke-width:5;stroke-linecap:butt;stroke-linejoin:round;stroke-miterlimit:4;stroke-opacity:1;stroke-dasharray:none" />
  <path
     style="fill:none;stroke:#006000;stroke-width:5;stroke-linecap:butt;stroke-linejoin:round;stroke-miterlimit:4;stroke-dasharray:none;stroke-opacity:1"
     id="path3623"
     d="m 2764.7841,3386.2062 -6.3957,-0.6196 -10.8885,1.4131 -33,5 -77,-2 -130,-8" />
  <path
     style="fill:none;stroke:#800000;stroke-width:5;stroke-linecap:butt;stroke-linejoin:round;stroke-miterlimit:4;stroke-dasharray:none;stroke-opacity:1"
     id="path3621"
     d="m 2861.9995,3577 2,14 -67.5,257.5 -4.5916,6.8509 -4.908,8.6491" />
  <path
     d="m 2763.2175,3385.514 5.72,4.333 7.562,51.153 6.5,28.5 3.616,21.696 5.918,3.794 206.466,-30.99 169.5001,-25.5 55,-8.5 139.5,104.5 104.4958,77.6782 7.4668,5.5505 0.012,6.3124"
     id="path4559"
     style="fill:none;stroke:#006000;stroke-width:5;stroke-linecap:butt;stroke-linejoin:round;stroke-miterlimit:4;stroke-dasharray:none;stroke-opacity:1" />
  <path
     d="m 2407.9997,3239.7501 22.5,13 24.6124,25.8893 -4.1124,13.8607 0,37.9078 5.6157,19.4664 7.3843,28.6258 6,14.5 4.5,5 36.5,18.5 66,38.5 50.7712,31.7881 96.5169,51.2966 171.7966,47.9322 383.9154,26 188.8305,13.8645 8.8398,0.5922"
     id="path6287"
     style="fill:none;stroke:#800000;stroke-width:5;stroke-linecap:butt;stroke-linejoin:round;stroke-miterlimit:4;stroke-dasharray:none;stroke-opacity:1" />
  <path
     d="m 2507.9997,3382.0001 -28.2382,-1.2382 1.7584,-56.7618"
     id="path5126-5"
     style="fill:none;stroke:#006000;stroke-width:5;stroke-linecap:butt;stroke-linejoin:round;stroke-miterlimit:4;stroke-dasharray:none;stroke-opacity:1" />
  <path
     style="fill:none;stroke:#006000;stroke-width:5;stroke-linecap:butt;stroke-linejoin:round;stroke-miterlimit:4;stroke-dasharray:none;stroke-opacity:1"
     id="path6281-4"
     d="m 2322.7159,4013.622 1.9019,-4.7686 27.8818,-34.8529 111.5,-142.5 91.5,-144.5 10,-15.5 31.5,-60.5 23.5,-47.5 -8.5,-35.5 -30.5,-66 -9,-72 -5.7203,-4.9915" />
  <path
     d="m 2481.4828,3324.0038 1.0168,-28.0033 -26.7752,-0.5"
     id="path6281-6"
     style="fill:none;stroke:#006000;stroke-width:5;stroke-linecap:butt;stroke-linejoin:round;stroke-miterlimit:4;stroke-dasharray:none;stroke-opacity:1" />
  <path
     d="m 2327.2365,4005.6784 -10.3865,14.0074 -6.347,2.0765 -4.7161,-2.1118 -42.4134,-33.7167 -7.4179,0.1334 -190.4556,243.4323"
     id="path6285"
     style="fill:none;stroke:#006000;stroke-width:5;stroke-linecap:butt;stroke-linejoin:round;stroke-miterlimit:4;stroke-dasharray:none;stroke-opacity:1" />
  <path
     d="m 3381.4086,3292.5907 -22.4086,5.409 -230,29 -148.5001,25 -228.7214,29.463 -37.782,6.2584 -75.9932,-2.2517 -55.7538,-3.7214"
     id="path21527"
     style="fill:none;stroke:#808000;stroke-width:5;stroke-linecap:butt;stroke-linejoin:round;stroke-miterlimit:4;stroke-dasharray:none;stroke-opacity:1" />
  <path
     d="m 3911.1333,3612.8626 -75.6327,13.1381 5.5,33.5 -331.3604,65.8928 -10.1311,2.0055 -4.4551,-3.9762 -7.5026,-39.295 -1.305,-23.8644 0.8305,-22.3644 -6.764,-18.4796 -3.7445,-7.3255"
     id="path3628"
     style="fill:none;stroke:#6c6e70;stroke-width:5;stroke-linecap:butt;stroke-linejoin:round;stroke-miterlimit:4;stroke-dasharray:none;stroke-opacity:1" />
  <path
     d="m 2300,3103 137.5,144.5 31,33 0,22"
     id="path5126"
     style="fill:none;stroke:#6c6e70;stroke-width:5;stroke-linecap:butt;stroke-linejoin:round;stroke-miterlimit:4;stroke-opacity:1;stroke-dasharray:none" />
  <path
     style="fill:none;stroke:#7bd9f5;stroke-width:5.0000186;stroke-linecap:butt;stroke-linejoin:round;stroke-miterlimit:4;stroke-dasharray:none;stroke-opacity:1"
     id="path12003"
     d="m 3123.2723,1659.443 20.2418,10.7584 -13.8233,25.7035" />
  <path
     d="m 2191,3263.5 v -7 h -8.5 l -11,-16.5 0.5,-16 7.5,-37.5 12,-35 12,-35.5 9,-31.5 19,-105 20,-151.5 11,-44 3.5,-24 8,-36 0.5,-44 31.5,-55.5 130.5,-236.5 79,-146 251,-457 32.4577,-58.5412 13.9904,-4.2472 22.357,11.4494 10.7262,-2.9115 57.1297,-105.7156 69.8679,-133.6037"
     id="path6936-1"
     style="fill:none;stroke:#29084a;stroke-width:5;stroke-linecap:butt;stroke-linejoin:round;stroke-miterlimit:4;stroke-dasharray:none;stroke-opacity:1" />
  <path
     d="m 2592,2340 -93.5,-55 38.5,-74 117.5,-212.5 147.611,-267.9408 9.8909,-3.7874 22.228,12.0863 14.2982,-3.8385 57.9107,-105.5539 177.5611,-338.4656"
     id="path6938"
     style="fill:none;stroke:#ff6600;stroke-width:5;stroke-linecap:butt;stroke-linejoin:round;stroke-miterlimit:4;stroke-opacity:1;stroke-dasharray:none" />
  <path
     d="m 2195.5,3262 -0.5,-9.5 -11,0 -8,-14.5 0.5,-15 6.5,-29 14.1616,-17.9736 11.0884,-18.2764 21.75,-43 10.25,-20.75 11.75,-17.5 -14.75,-9.5 33.75,-61 10.5,-20.5 25.5,-44.5 68,-105.5 -37,-23 22,-45.5 10,-24.5 74.5,-135 41.0285,-73.9487 28.9715,-54.0513 77,-140.5 34.5,-61"
     id="path6424"
     style="fill:none;stroke:#ff6600;stroke-width:5;stroke-linecap:butt;stroke-linejoin:round;stroke-miterlimit:4;stroke-opacity:1;stroke-dasharray:none" />
  <path
     d="m 2603.2495,2486.5 0.2227,-3.1152 -10.5846,-6.0774 -1.1381,-3.3074 503.25,-911 14.2542,-26.8655 6.8956,-4.7015 26.0149,1.1248 28.5224,18.9349"
     id="path3825-3"
     style="fill:none;stroke:#ffaaaa;stroke-width:1px;stroke-linecap:butt;stroke-linejoin:round;stroke-opacity:1" />
  <path
     d="m 2363.7101,2982.9502 2.5993,-0.9747 38.9815,18.5512 1.7495,-0.8739 3.1191,-6.984 2.6739,-8.7768"
     id="path3829"
     style="fill:none;stroke:#ffaaaa;stroke-width:1px;stroke-linecap:butt;stroke-linejoin:round;stroke-opacity:1" />
  <path
     d="m 2603.5,2452.7502 0.1958,2.9973 6.5542,3.7527 0.8489,1.799 -9.8971,18.1468 0.9952,3.0982"
     id="path3831"
     style="fill:none;stroke:#ffaaaa;stroke-width:1px;stroke-linecap:butt;stroke-linejoin:round;stroke-opacity:1" />
  <path
     d="m 2254.0188,3108.9489 24.3456,-5.5316 7.1931,-4.0898 12.5752,-11.5906 19.4766,-22.4449 50.652,-90.7827 5.9066,-7.757 2.111,-0.5312 34.885,18.452 1.6695,-0.7811 14.7494,-48.48 19.6055,-73.6245 7.8112,-21.5375 4.8511,-23.0206 9.114,-37.0469 0.035,-28.1825 -0.9101,-14.925 27.8386,-50.1631 63.8667,-117.0445"
     id="path3827"
     style="fill:none;stroke:#ffaaaa;stroke-width:1px;stroke-linecap:butt;stroke-linejoin:round;stroke-opacity:1" />
  <path
     d="m 2603.7728,2485.9558 -46.1574,83.7588 -5.0311,9.3274"
     id="path3055"
     style="fill:none;stroke:#ffaaaa;stroke-width:5;stroke-linecap:butt;stroke-linejoin:round;stroke-miterlimit:4;stroke-dasharray:none;stroke-opacity:1" />
</svg>
