<svg xmlns="http://www.w3.org/2000/svg" viewBox="-1850 -1600 11750 16550" width="11750" height="16550"><path d="m3466.33 3993.93-39.21-5.38-112.13-55.86-9.56-27.77-32.43-16.42-32.5-30-15-7.5-16.5 1.5-44.5 6.5h-98l-17-5-92.82-61.59M3545.84 6538.39l33.66-74.39 14-83.5 65.5-114 12-27 8-52 4.5-32 8-19.5 31-31.5 69-153 3-20-36-90-2.5-193.5 3-47.5 5-39 36.5-126 1-29.5-20.5-89-28.5-113-4.5-27.03.5-23.032.5-63.5 2-15 3-31.5 12.5-17.75-3.25-63L3810 4941l-10.5-27M4753.27 3695.46l-48.77 25.04-15.018.5-33 17-83.5 23.5-34 18-91.5 23.5-70 10-31 5.5-19.5 7.5-10.03.5-13-1-13.5 3.5-23.022.5-11.5 4-16.5-2-53-27.5-14.84-2.19-57.31 34.28-8.01 6.28-3.84 8.14-1.82 34.19-14.72 6.74-30.25-3.58-16.55 10.63-20.12 9.17-43.15-4.32-42.07 15.35-30.49-7.07-10.73.06-8.94 5.2-3.15 10.41-5.71 3.81-56.8.9-62.1-1.59-7.42 7.09-3.45 12.06 1.97 32.31 6.81 70.44-5.26 9.05-42.44 2.65-36.49-2.22-15.73 7.19-86.29 4.94" style="fill:none;stroke:#00aa7f;stroke-width:5;stroke-linecap:butt;stroke-linejoin:round;stroke-miterlimit:4;stroke-dasharray:none;stroke-opacity:1"/><text x="-1760.55" y="-1393.04" xml:space="preserve" style="font-style:normal;font-weight:400;font-size:144px;line-height:125%;font-family:Sans;-inkscape-font-specification:Sans;letter-spacing:0;word-spacing:0;fill:#000;fill-opacity:1;stroke:none"><tspan x="-1760.55" y="-1393.04">1935</tspan></text><text x="-1760.55" y="14847.96" xml:space="preserve" style="font-style:normal;font-weight:400;font-size:144px;line-height:125%;font-family:Sans;-inkscape-font-specification:Sans;letter-spacing:0;word-spacing:0;fill:#000;fill-opacity:1;stroke:none"/><path d="M1940.93 1084.36 1928 1102l-18 8-23.5 8-9.5 13.5-32.5 65" style="fill:none;fill-rule:evenodd;stroke:#00aa7f;stroke-width:5;stroke-linecap:butt;stroke-linejoin:round;stroke-miterlimit:4;stroke-dasharray:none;stroke-opacity:1"/><path style="fill:none;stroke:#00aa7f;stroke-width:5;stroke-linecap:butt;stroke-linejoin:round;stroke-miterlimit:4;stroke-dasharray:none;stroke-opacity:1" d="m1940.93 1084.36 43.49-100.76 7.07-30.05 3.54-28.28 2.83-103.94-5.66-38.54 1.41-127.28-2.83-15.2-7.42-10.25-14.14-6.72-68.24-24.04-8.49-6.01-5.66-6.72-2.12-9.9 2.83-32.17-7.42-24.75"/><path d="m3466.33 3993.93 2.38 2.6-2.47 12.73-1.41 105.89 1.94 1.94 44.37 1.59 1.24 2.47-0.71142.48" style="fill:none;fill-rule:evenodd;stroke:#00aa7f;stroke-width:1px;stroke-linecap:butt;stroke-linejoin:round;stroke-opacity:1"/></svg>