<svg xmlns="http://www.w3.org/2000/svg" width="2900" height="2950"><path d="M1192.987 2809.088l-70.986-406.83-5.116-12.905-10.938-9.78-28.92-10.9-7.75-8.519-4.055-11.425-4.844-27.727 1.155-12.402 19.793-84.465 16.601-29.359 35.895-22.275 106.528-30.007 66.26-16.378 44.386-26.8 6.326-13.409-6.578-745.845 5.143-32.642 135.424-300.959 6.302-30.134 24.783-270.682 17.466-60.94" fill="none" stroke="#fec30a" stroke-width="5" stroke-linejoin="round"/><path d="M598.421 1242.852l345.164 5.753 10.93 6.903 5.753 10.355 2.301 86.866-12.08 91.469-2.302 395.212 9.78 59.829-1.15 20.135-8.054 55.226-.576 249.668 9.205 20.71 14.957 8.054 24.737 6.903 39.118 7.479" fill="none" stroke="#5ba7c9" stroke-width="5" stroke-linejoin="round"/><path d="M127.272 1822.728l123.684-4.603 580.451-35.091 153.023-8.63h94.92l66.732-5.177 310.072 13.231 789.275-23.586 17.833 2.877 10.93 6.328 9.205 13.23 5.177 12.082 5.753 24.161 9.204 18.984 19.56 13.807 21.86 5.752 49.474 6.904 302.593-8.054 14.382-6.328 6.328-5.753 5.178-14.382 2.876-52.925-8.63-253.12-6.902-368.75-5.178-92.62-14.382-54.65-59.828-140.367-70.759-117.356-12.08-78.812-2.302-55.226 9.205-25.888 63.28-102.974 6.903-31.64 1.726-44.871 1.15-278.432" fill="none" stroke="#a21005" stroke-width="5" stroke-linejoin="round"/><text style="-inkscape-font-specification:Sans" y="206.96094" x="89.453133" font-weight="400" font-size="144px" font-family="Sans"><tspan y="206.96094" x="89.453133">2020</tspan></text></svg>