<svg xmlns="http://www.w3.org/2000/svg" height="5610" width="4250"><path d="M3273.748 3432.964l2.949 74.694 3.44 203.933 1.965 22.113 3.932 263.394 4.914 8.845 62.408-.982 6.88 4.914 2.457 149.387 1.474 79.117 2.457 21.622 3.932 270.273 2.457 106.635 4.914 7.371 140.05-3.44" fill="none" stroke="#f27838" stroke-width="5" stroke-linejoin="round"/><path d="M2958.443 1972.521l7.645 8.687-.253 167.94" fill="none" stroke="#412e88" stroke-width="5" stroke-linejoin="round"/><path d="M3197.09 3016.745l-230.47 5.895-161.673 5.405-367.572 19.656" fill="none" stroke="#00a950" stroke-width="5" stroke-linejoin="round"/><path d="M2018.145 2695.672l1256.475-995.174" fill="none"/><path d="M2965.145 2145.48l2.949 103.195 2.948 173.958 4.914 156.267 1.966 14.742 34.398 31.45 22.605.983 1.966 15.725 11.793 2.948 94.35-2.948 9.829 7.862 1.965 103.196 7.863 13.759-3.932 15.725 2.949 63.883 7.862 9.828 2.949 99.264 18.098 4.016.203 41.804 2.338 157.13 87.832-.44" fill="none" stroke="#412e88" stroke-width="5" stroke-linejoin="round"/><path d="M3191.19 3022.303l87.964-.621.737 138.576" fill="none" stroke="#412e88" stroke-width="5" stroke-linejoin="round"/><path d="M3516.994 4640.865l86.98-1.965 132.095-.139" fill="none" stroke="#f27838" stroke-width="5" stroke-linejoin="round"/><path d="M2343.13 2350.447l26.43 22.087 12.778 20.639 30.467 24.57 193.614 158.233 157.25 140.542 6.88 9.337 4.422 181.82 1.474 63.392-1.474 19.656 1.872 147.212 4.025 6.598.793 21.057 9.035 9.41" fill="none" stroke="#04a" stroke-width="5" stroke-linejoin="round"/><path d="M2675.216 2637.402l-13.268-3.931-159.216 2.948-224.081 3.44-66.831.491" fill="none" stroke="#04a" stroke-width="5" stroke-linejoin="round"/><path d="M3194.14 3017.259l84.523-.456 5.405 3.896.491 137.348-4.92 4.46-86.973.7-4.422-6.389-1.966-141.033" fill="none" stroke="#00a950" stroke-width="5" stroke-linejoin="round"/><path d="M3196.352 3027.333l1.228 126.045 77.643-.491-.246-126.046-78.625.492z" fill="none" stroke="#04a" stroke-width="5" stroke-linejoin="round"/><path d="M3198.428 3153.453l-16.576 5.672-19.467.428-4.805-5.44.636-6.026-40.655 3.474-30.926-2.432h-19.11l-10.773 4.17-3.474 4.864-.348 6.602-2.085 6.255-5.212 3.127-71.58 2.432-54.554-1.737-185.552 2.085-181.73 2.78-128.915 1.39-6.95 4.517-3.126 7.992-1.043 10.772-1.737 5.907-8.687 4.517" fill="none" stroke="#04a" stroke-width="5" stroke-linejoin="round"/><path d="M3273.257 3434.463l-.983-94.842-.983-122.36v-19.656l7.371-15.234v-14.496l-8.845-19.902" fill="none" stroke="#f27838" stroke-width="5" stroke-linejoin="round"/><path d="M3201.757 3149.201l68.797-.982v-116.71l-69.534.492.737 117.2z" fill="none" stroke="#f27838" stroke-width="5" stroke-linejoin="round"/><path d="M2915.994 1792.864l11.872 62.21 1.39 49.342 1.39 60.808 4.864 7.992 22.934-.695 7.644 8.687" fill="none" stroke="#412e88" stroke-width="5" stroke-linejoin="round"/><path d="M2791.02 3175.755l-9.169 11.506 2.457 118.429 4.423 185.26-6.389 8.845-183.786 4.423" fill="none" stroke="#04a" stroke-width="5" stroke-linejoin="round"/><path d="M2437.375 3047.702l-25.553-.983-581.825-44.227-44.226-5.897-77.215.96" fill="none" stroke="#00a950" stroke-width="5" stroke-linejoin="round"/><path d="M2401.76 3214.802l-210.92 2.78-185.9 3.822-89.452 1.22" fill="none" stroke="#04a" stroke-width="5" stroke-linejoin="round"/><text style="-inkscape-font-specification:Sans" y="206.96094" x="89.453125" font-size="144px" font-weight="400" font-family="Sans"><tspan y="206.96094" x="89.453125">1900</tspan></text><text style="-inkscape-font-specification:Sans" y="5507.9609" x="89.453125" font-size="144px" font-weight="400" font-family="Sans"/><path d="M3124.5 3023.5l28.768-.913 3.313 5.89v50.023" fill="none" stroke="#000" stroke-width="5" stroke-linejoin="round"/><path d="M1785.77 2996.595l-257.562 3.203-7.355 8.542.91 33.06-2.595 7.308-15.983.695-18.764 7.645-127.872 2.085-7.644-2.78-88.26 4.17" fill="none" stroke="#00a950" stroke-linejoin="round"/></svg>