<svg xmlns="http://www.w3.org/2000/svg" width="4300" height="6200" viewBox="-50, 0, 4300, 6200"><path d="m3278.17 3443.77-1.47 63.88 3.44 203.93 1.97 22.11 3.93 263.39 4.91 8.85 62.41-0.986.88 4.91 2.46 149.39 1.47 79.12 2.46 21.62 3.93 270.27 2.46 106.64 4.91 7.37 140.05-3.44M2735.36 958.58l20.85 24.32 44.13 50.04 14.94 18.76 7.64 17.370.3539.26 1.39 53.16 3.47 21.54 13.9 29.19 17.37 15.29 22.93 19.46 10.77 18.42 6.25 19.11 2.78 74.01 3.13 156.36 3.13 142.12 2.08 107.02 17.37 91.04 1.39 49.34 1.39 60.81 4.86 7.99 22.93-0.697.64 8.69 1.74 132.74 2.43 31.27 2.78 107.02 3.13 152.54 4.52 174.78" style="fill:none;stroke:#412e88;stroke-width:5;stroke-linecap:butt;stroke-linejoin:round;stroke-miterlimit:4;stroke-opacity:1;stroke-dasharray:none"/><path d="m3197.09 3016.74-230.47 5.89-161.67 5.41-367.57 19.66-25.55-.98-581.83-44.23-44.23-5.9-553.32 6.88-40.79 2.48" style="fill:none;stroke:#00a950;stroke-width:5;stroke-linecap:butt;stroke-linejoin:round;stroke-miterlimit:4;stroke-opacity:1;stroke-dasharray:none"/><path d="m2539.59 133.69 34.4 85.01 45.7 108.6 3.93 26.04-2.46 53.560.49133.17 21.13 77.15 36.36 221.62 10.59 67.54 4.64 11.58 25.55 28.01 17.2 16.22" style="fill:none;stroke:#412e88;stroke-width:5;stroke-linecap:butt;stroke-linejoin:round;stroke-miterlimit:4;stroke-opacity:1;stroke-dasharray:none"/><path d="m2018.14 2695.67 1256.48-995.17" style="fill:none;stroke:#412e88;stroke-width:5;stroke-linecap:butt;stroke-linejoin:round;stroke-miterlimit:4;stroke-opacity:0;stroke-dasharray:none"/><path d="m2283.07 1752.350.9828.5 4.91 3.93 103.20.98280.1-3.93h26.54l11.79 5.9 4.91 9.830.9823.59 6.88286.04.91 14.74 10.81 6.88 13.76 1.97 191.65-3.93 14.74 3.93 5.9 14.74 2.95 103.2 2.95 173.96 4.91 156.27 1.97 14.74 34.4 31.45 22.60.981.97 15.72 11.79 2.95 94.35-2.95 9.83 7.86 1.97 103.2 7.86 13.76-3.93 15.72 2.95 63.88 7.86 9.83 2.95 99.26 18.1 4.020.241.8 2.34 157.13 87.83-.44" style="fill:none;stroke:#744100;stroke-width:5;stroke-linecap:butt;stroke-linejoin:round;stroke-miterlimit:4;stroke-opacity:1;stroke-dasharray:none"/><path d="m3191.19 3022.3 87.96-.62.74 138.58" style="fill:none;stroke:#744100;stroke-width:5;stroke-linecap:butt;stroke-linejoin:round;stroke-miterlimit:4;stroke-opacity:1;stroke-dasharray:none"/><path d="m3516.99 4640.87 86.98-1.97 132.1-.14" style="fill:none;stroke:#412e88;stroke-width:5;stroke-linecap:butt;stroke-linejoin:round;stroke-miterlimit:4;stroke-opacity:1;stroke-dasharray:none"/><path d="M3322.89 3999.58h48.65l65.36-0.4917.69 2.95 12.78 9.34 15.23 16.71 12.78 5.41h58.48l22.110.989.34 5.41 12.29 18.67" style="fill:none;stroke:#000;stroke-width:5;stroke-linecap:butt;stroke-linejoin:round;stroke-miterlimit:4;stroke-opacity:1;stroke-dasharray:none"/><path d="m2343.13 2350.45 26.43 22.09 12.78 20.64 30.47 24.57 193.61 158.23 157.25 140.54 6.88 9.34 4.42 181.82 1.47 63.39-1.47 19.66 1.87 147.21 4.03 6.60.7921.06 9.03 9.41" style="fill:none;stroke:#04a;stroke-width:5;stroke-linecap:butt;stroke-linejoin:round;stroke-miterlimit:4;stroke-opacity:1;stroke-dasharray:none"/><path d="m2675.22 2637.4-13.27-3.93-159.22 2.95-224.08 3.44-66.83.49" style="fill:none;stroke:#04a;stroke-width:5;stroke-linecap:butt;stroke-linejoin:round;stroke-miterlimit:4;stroke-opacity:1;stroke-dasharray:none"/><path d="M3283.58 3166.62v17.2l-7.37 15.23 1.97 244.72" style="fill:none;stroke:#412e88;stroke-width:5;stroke-linecap:butt;stroke-linejoin:round;stroke-miterlimit:4;stroke-opacity:1;stroke-dasharray:none"/><path d="m3283.58 3171.07.13-5.53 5.49-6.02-.46-141.28-10.57-6.39-79.4.29-3.24-3.15-.2-49.11-3.15-4.05-14.74-4.42-2.95-97.3-8.35-10.32-2.46-59.95 4.42-17.69-8.35-14.25-2.46-104.18-12.29-10.81-95.33 2.46-8.85-1.97-.98-11.3-5.9-4.91h-18.67l-32.92-29.98-1.97-16.22" style="fill:none;stroke:#412e88;stroke-width:5;stroke-linecap:butt;stroke-linejoin:round;stroke-miterlimit:4;stroke-opacity:1;stroke-dasharray:none"/><path d="m3194.14 3017.26 84.52-0.465.41 3.90.49137.35-4.92 4.46-86.97.7-4.42-6.39-1.97-141.03" style="fill:none;stroke:#00a950;stroke-width:5;stroke-linecap:butt;stroke-linejoin:round;stroke-miterlimit:4;stroke-opacity:1;stroke-dasharray:none"/><path d="m3196.35 3027.33 1.23 126.05 77.64-.49-.25-126.05-78.62.49z" style="fill:none;stroke:#04a;stroke-width:5;stroke-linecap:butt;stroke-linejoin:round;stroke-miterlimit:4;stroke-opacity:1;stroke-dasharray:none"/><path d="m3197.09 3011.36-15.42 13.74 2.15 133.69 6.88 9.09 88.21-0.745.16 5.41" style="fill:none;stroke:#412e88;stroke-width:5;stroke-linecap:butt;stroke-linejoin:round;stroke-miterlimit:4;stroke-opacity:1;stroke-dasharray:none"/><path d="m3198.43 3153.45-16.58 5.67-19.47.43-4.81-5.44.64-6.03-40.65 3.47-30.93-2.43h-19.11l-10.77 4.17-3.47 4.86-0.356.6-2.08 6.25-5.21 3.13-71.58 2.43-54.55-1.74-185.55 2.08-181.73 2.78-128.91 1.39-6.95 4.52-3.13 7.99-1.04 10.77-1.74 5.91-8.69 4.52-210.92 2.78-185.9 3.82-178.26 2.43-24.67 1.39-19.11 2.08-15.29.69-11.12 3.13-21.2 21.89-9.38 6.95-21.2 2.78" style="fill:none;stroke:#04a;stroke-width:5;stroke-linecap:butt;stroke-linejoin:round;stroke-miterlimit:4;stroke-opacity:1;stroke-dasharray:none"/><path d="m3180.14 4659.3-6.64 5.64-2.95 6.88v75.19l-26.54 22.11v47.67" style="fill:none;stroke:#412e88;stroke-width:5;stroke-linecap:butt;stroke-linejoin:round;stroke-miterlimit:4;stroke-opacity:1;stroke-dasharray:none"/><path d="m3370.56 4534.7-6.39 5.41-141.53 2.46-10.32 6.88v91.89l-15.72 16.22-28.99 3.44-107.13 1.97-11.79-3.93-153.32 2.97" style="fill:none;stroke:#412e88;stroke-width:5;stroke-linecap:butt;stroke-linejoin:round;stroke-miterlimit:4;stroke-opacity:1;stroke-dasharray:none"/><path d="m3339.25 4010.52-47.95.69-3.47 3.47h-26.41l-10.42-7.64-171.65 2.08-5.56 19.46-1.39 11.81-8.34 10.42-15.29 2.78h-94.51l-5.56 7.64v55.6l-4.17 5.56h-31.97l-5.56-5.56-.69-20.85 3.47-6.95v-31.97l4.17-3.47 47.95-.69" style="fill:none;stroke:#000;stroke-width:5;stroke-linecap:butt;stroke-linejoin:round;stroke-miterlimit:4;stroke-opacity:1;stroke-dasharray:none"/><path d="m2791.51 3175.75-9.17 11.51 2.46 118.43 4.42 185.26-6.39 8.85-183.79 4.42-274.7 4.91-286.04.42-11.3 3.93-14.25 16.71-8.85 5.41-269.78 5.41-146.42 3.48M1715.5 3261.98l-56.02-.98-213.27-19.66-172.97-21.62-136.79-16.82-46.51-8.24" style="fill:none;stroke:#04a;stroke-width:5;stroke-linecap:butt;stroke-linejoin:round;stroke-miterlimit:4;stroke-opacity:1;stroke-dasharray:none"/><text x="39.45" y="206.96" xml:space="preserve" style="font-size:144px;font-style:normal;font-weight:400;fill:#000;fill-opacity:1;stroke:none;font-family:Sans;-inkscape-font-specification:Sans"><tspan x="39.45" y="206.96">1920</tspan></text><text x="39.45" y="6097.96" xml:space="preserve" style="font-size:144px;font-style:normal;font-weight:400;fill:#000;fill-opacity:1;stroke:none;font-family:Sans;-inkscape-font-specification:Sans"/></svg>