<?xml version="1.0" encoding="UTF-8" standalone="no"?>
<svg
   xmlns:dc="http://purl.org/dc/elements/1.1/"
   xmlns:cc="http://creativecommons.org/ns#"
   xmlns:rdf="http://www.w3.org/1999/02/22-rdf-syntax-ns#"
   xmlns:svg="http://www.w3.org/2000/svg"
   xmlns="http://www.w3.org/2000/svg"
   xmlns:xlink="http://www.w3.org/1999/xlink"
   id="svg2"
   height="6200"
   width="4300"
   viewBox="-50, 0, 4300, 6200"
   version="1.1">
  <metadata
     id="metadata3849">
    <rdf:RDF>
      <cc:Work
         rdf:about="">
        <dc:format>image/svg+xml</dc:format>
        <dc:type
           rdf:resource="http://purl.org/dc/dcmitype/StillImage" />
        <dc:title></dc:title>
      </cc:Work>
    </rdf:RDF>
  </metadata>
  <defs
     id="defs6" />
  <image
     xlink:href="../basemap/chiosm.png"
     id="image2906"
     height="9812.4"
     width="4277.2"
     y="-0"
     x="0"
     style="display:none" />
  <path
     style="fill:none;stroke:#676767;stroke-width:5;stroke-linecap:butt;stroke-linejoin:round;stroke-miterlimit:4;stroke-opacity:1;stroke-dasharray:none"
     id="path3011"
     d="m 3310.43,3010.4 -0.13,26.45 6.35,37.8 L 3317,3163 l 3.5,77.5 4,18.5 21,66 12.5,53 12.5,64.5 11,27.5 2.5,17 -1,18.5 8.5,36.5 23.5,80.5 66,204.5 105.5,185.5 99,186.5 20.5,42.5 13,41 8.5,37 4.5,46.5 -2,36 -33,194 -27.42,162.8" />
  <path
     style="fill:none;stroke:#412e88;stroke-width:5;stroke-linecap:butt;stroke-linejoin:round;stroke-miterlimit:4;stroke-opacity:1;stroke-dasharray:none"
     id="path3610"
     d="m 3278.17,3443.77 -1.47,63.88 3.44,203.93 1.97,22.11 3.93,263.39 4.91,8.85 62.41,-0.98 6.88,4.91 2.46,149.39 1.47,79.12 2.46,21.62 3.93,270.27 2.46,106.64 4.91,7.37 140.05,-3.44" />
  <path
     style="fill:none;stroke:#412e88;stroke-width:5;stroke-linecap:butt;stroke-linejoin:round;stroke-miterlimit:4;stroke-opacity:1;stroke-dasharray:none"
     id="path3614"
     d="m 2735.36,958.58 20.85,24.32 44.13,50.04 14.94,18.76 7.64,17.37 0.35,39.26 1.39,53.16 3.47,21.54 13.9,29.19 17.37,15.29 22.93,19.46 10.77,18.42 6.25,19.11 2.78,74.01 3.13,156.36 3.13,142.12 2.08,107.02 17.37,91.04 1.39,49.34 1.39,60.81 4.86,7.99 22.93,-0.69 7.64,8.69 1.74,132.74 2.43,31.27 2.78,107.02 3.13,152.54 4.52,174.78" />
  <path
     style="fill:none;stroke:#0044aa;stroke-width:5;stroke-linecap:butt;stroke-linejoin:round;stroke-miterlimit:4;stroke-opacity:1;stroke-dasharray:none"
     id="path3606"
     d="m 2791.02,3175.75 -9.17,11.51 2.46,118.43 4.42,185.26 -6.39,8.85 -183.79,4.42 -274.7,4.91 -286,4.42 -11.3,3.93 -14.25,16.71 -8.85,5.41 -269.78,5.41 -373.47,8.87" />
  <path
     style="fill:none;stroke:#00a950;stroke-width:5;stroke-linecap:butt;stroke-linejoin:round;stroke-miterlimit:4;stroke-opacity:1;stroke-dasharray:none"
     id="path3590"
     d="m 3197.09,3016.74 -230.47,5.89 -161.67,5.41 -367.57,19.66 -25.55,-0.98 -581.83,-44.23 -44.23,-5.9 -553.32,6.88 -40.79,2.48" />
  <path
     style="fill:none;stroke:#412e88;stroke-width:5;stroke-linecap:butt;stroke-linejoin:round;stroke-miterlimit:4;stroke-opacity:1;stroke-dasharray:none"
     id="path3721"
     d="m 2539.59,133.69 34.4,85.01 45.7,108.6 3.93,26.04 -2.46,53.56 0.49,133.17 21.13,77.15 36.36,221.62 10.59,67.54 4.64,11.58 25.55,28.01 17.2,16.22" />
  <path
     style="fill:none;stroke:#744100;stroke-width:5;stroke-linecap:butt;stroke-linejoin:round;stroke-miterlimit:4;stroke-opacity:1;stroke-dasharray:none"
     id="path3592"
     d="m 2283.07,1752.35 0.98,28.5 4.91,3.93 103.2,0.98 280.1,-3.93 26.54,0 11.79,5.9 4.91,9.83 0.98,23.59 6.88,286 4.91,14.74 10.81,6.88 13.76,1.97 191.65,-3.93 14.74,3.93 5.9,14.74 2.95,103.2 2.95,173.96 4.91,156.27 1.97,14.74 34.4,31.45 22.6,0.98 1.97,15.72 11.79,2.95 94.35,-2.95 9.83,7.86 1.97,103.2 7.86,13.76 -3.93,15.72 2.95,63.88 7.86,9.83 2.95,99.26 18.1,4.02 0.2,41.8 2.34,157.13 87.83,-0.44" />
  <path
     style="fill:none;stroke:#744100;stroke-width:5;stroke-linecap:butt;stroke-linejoin:round;stroke-miterlimit:4;stroke-opacity:1;stroke-dasharray:none"
     id="path3760"
     d="m 3191.19,3022.3 87.96,-0.62 0.74,138.58" />
  <path
     style="fill:none;stroke:#412e88;stroke-width:5;stroke-linecap:butt;stroke-linejoin:round;stroke-miterlimit:4;stroke-opacity:1;stroke-dasharray:none"
     id="path3948"
     d="m 3516.99,4640.87 86.98,-1.97 132.1,-0.14" />
  <path
     style="fill:none;stroke:#000000;stroke-width:5;stroke-linecap:butt;stroke-linejoin:round;stroke-miterlimit:4;stroke-opacity:1;stroke-dasharray:none"
     id="path4666"
     d="m 3322.89,3999.58 48.65,0 65.36,-0.49 17.69,2.95 12.78,9.34 15.23,16.71 12.78,5.41 58.48,0 22.11,0.98 9.34,5.41 12.29,18.67" />
  <path
     style="fill:none;stroke:#0044aa;stroke-width:5;stroke-linecap:butt;stroke-linejoin:round;stroke-miterlimit:4;stroke-opacity:1;stroke-dasharray:none"
     id="path2930"
     d="m 2343.13,2350.45 26.43,22.09 12.78,20.64 30.47,24.57 193.61,158.23 157.25,140.54 6.88,9.34 4.42,181.82 1.47,63.39 -1.47,19.66 1.87,147.21 4.03,6.6 0.79,21.06 9.03,9.41" />
  <path
     style="fill:none;stroke:#0044aa;stroke-width:5;stroke-linecap:butt;stroke-linejoin:round;stroke-miterlimit:4;stroke-dasharray:none;stroke-opacity:1"
     id="path4696"
     d="m 1715.01,3261.98 -56.02,-0.98 -213.27,-19.66 -172.97,-21.62 -136.79,-16.82 -46.51,-8.24 -117.94,-13.27 -210.81,-24.08 -202.46,-21.62 -163.64,-18.18 -10.81,4.42 -8.35,7.37 -2.95,14.25 7.37,21.62 5.41,12.78 2.46,70.27 7,122.16" />
  <path
     style="fill:none;stroke:#0044aa;stroke-width:5;stroke-linecap:butt;stroke-linejoin:round;stroke-miterlimit:4;stroke-opacity:1;stroke-dasharray:none"
     id="path4698"
     d="m 2675.22,2637.4 -13.27,-3.93 -159.22,2.95 -224.08,3.44 -66.83,0.49" />
  <path
     style="fill:none;stroke:#412e88;stroke-width:5;stroke-linecap:butt;stroke-linejoin:round;stroke-miterlimit:4;stroke-opacity:1;stroke-dasharray:none"
     id="path3610-6"
     d="m 3283.58,3166.62 0,17.2 -7.37,15.23 1.97,244.72" />
  <path
     style="fill:none;stroke:#412e88;stroke-width:5;stroke-linecap:butt;stroke-linejoin:round;stroke-miterlimit:4;stroke-opacity:1;stroke-dasharray:none"
     id="path4820"
     d="m 3283.58,3171.07 0.13,-5.53 5.49,-6.02 -0.46,-141.28 -10.57,-6.39 -79.4,0.29 -3.24,-3.15 -0.2,-49.11 -3.15,-4.05 -14.74,-4.42 -2.95,-97.3 -8.35,-10.32 -2.46,-59.95 4.42,-17.69 -8.35,-14.25 -2.46,-104.18 -12.29,-10.81 -95.33,2.46 -8.85,-1.97 -0.98,-11.3 -5.9,-4.91 -18.67,0 -32.92,-29.98 -1.97,-16.22" />
  <path
     style="fill:none;stroke:#00a950;stroke-width:5;stroke-linecap:butt;stroke-linejoin:round;stroke-miterlimit:4;stroke-opacity:1;stroke-dasharray:none"
     id="path3615"
     d="m 3194.14,3017.26 84.52,-0.46 5.41,3.9 0.49,137.35 -4.92,4.46 -86.97,0.7 -4.42,-6.39 -1.97,-141.03" />
  <path
     style="fill:none;stroke:#0044aa;stroke-width:5;stroke-linecap:butt;stroke-linejoin:round;stroke-miterlimit:4;stroke-opacity:1;stroke-dasharray:none"
     id="path3617"
     d="m 3196.35,3027.33 1.23,126.05 77.64,-0.49 -0.25,-126.05 -78.62,0.49 z" />
  <path
     style="fill:none;stroke:#412e88;stroke-width:5;stroke-linecap:butt;stroke-linejoin:round;stroke-miterlimit:4;stroke-opacity:1;stroke-dasharray:none"
     id="path3621"
     d="m 3197.09,3011.36 -15.42,13.74 2.15,133.69 6.88,9.09 88.21,-0.74 5.16,5.41" />
  <path
     style="fill:none;stroke:#0044aa;stroke-width:5;stroke-linecap:butt;stroke-linejoin:round;stroke-miterlimit:4;stroke-opacity:1;stroke-dasharray:none"
     id="path4672"
     d="m 3198.43,3153.45 -16.58,5.67 -19.47,0.43 -4.81,-5.44 0.64,-6.03 -40.65,3.47 -30.93,-2.43 -19.11,0 -10.77,4.17 -3.47,4.86 -0.35,6.6 -2.08,6.25 -5.21,3.13 -71.58,2.43 -54.55,-1.74 -185.55,2.08 -181.73,2.78 -128.91,1.39 -6.95,4.52 -3.13,7.99 -1.04,10.77 -1.74,5.91 -8.69,4.52 -210.92,2.78 -185.9,3.82 -178.26,2.43 -24.67,1.39 -19.11,2.08 -15.29,0.69 -11.12,3.13 -21.2,21.89 -9.38,6.95 -21.2,2.78" />
  <path
     style="fill:none;stroke:#412e88;stroke-width:5;stroke-linecap:butt;stroke-linejoin:round;stroke-miterlimit:4;stroke-opacity:1;stroke-dasharray:none"
     id="path4668"
     d="m 3180.14,4659.3 -6.64,5.64 -2.95,6.88 0,75.19 -26.54,22.11 0,47.67" />
  <path
     style="fill:none;stroke:#412e88;stroke-width:5;stroke-linecap:butt;stroke-linejoin:round;stroke-miterlimit:4;stroke-opacity:1;stroke-dasharray:none"
     id="path3612"
     d="m 3370.56,4534.7 -6.39,5.41 -141.53,2.46 -10.32,6.88 0,91.89 -15.72,16.22 -28.99,3.44 -107.13,1.97 -11.79,-3.93 -153.32,2.97" />
  <path
     style="fill:none;stroke:#000000;stroke-width:5;stroke-linecap:butt;stroke-linejoin:round;stroke-miterlimit:4;stroke-opacity:1;stroke-dasharray:none"
     id="path4670"
     d="m 3339.25,4010.52 -47.95,0.69 -3.47,3.47 -26.41,0 -10.42,-7.64 -171.65,2.08 -5.56,19.46 -1.39,11.81 -8.34,10.42 -15.29,2.78 -94.51,0 -5.56,7.64 0,55.6 -4.17,5.56 -31.97,0 -5.56,-5.56 -0.69,-20.85 3.47,-6.95 0,-31.97 4.17,-3.47 47.95,-0.69" />
  <path
     style="fill:none;stroke:#fee900;stroke-width:5;stroke-linecap:butt;stroke-linejoin:round;stroke-miterlimit:4;stroke-opacity:1;stroke-dasharray:none"
     id="path3719"
     d="m 2738.61,969.57 -32.43,-29.98 -21.13,-12.29 -28.99,-1.97 -92.88,0 -46.19,-6.88 -57.99,-0.49 -33.42,-4.91 -126.78,0.49 -86.98,-1.47 -48.16,4.91 -198.04,0.98 -28.5,-6.88 -29.48,-21.13 -11.79,-20.64 -28.5,-122.36 -33.91,-107.62" />
  <text
     style="font-size:144px;font-style:normal;font-weight:normal;fill:#000000;fill-opacity:1;stroke:none;font-family:Sans;-inkscape-font-specification:Sans"
     xml:space="preserve"
     id="text3914"
     y="206.96"
     x="39.45"><tspan
       id="tspan1"
       y="206.96"
       x="39.45">1930</tspan></text>
  <text
     style="font-size:144px;font-style:normal;font-weight:normal;fill:#000000;fill-opacity:1;stroke:none;font-family:Sans;-inkscape-font-specification:Sans"
     xml:space="preserve"
     id="text3914-4"
     y="6097.96"
     x="39.45"><tspan
       id="tspan2"
       y="6097.96"
       x="39.45"></tspan></text>
  <path
     d="m 389.49,3358.53 8.06,146.21 -2.95,19.16 -8.35,21.13 -12.78,16.71 -9.34,8.85 -10.32,4.42"
     id="path4163"
     style="fill:none;stroke:#000000;stroke-width:5;stroke-linecap:butt;stroke-linejoin:round;stroke-miterlimit:4;stroke-dasharray:none;stroke-opacity:1" />
</svg>
