<svg xmlns="http://www.w3.org/2000/svg" width="4300" height="6200" viewBox="-50, 0, 4300, 6200"><path d="m109.09 1605.94 37.35-48.16L160.2 1545l20.64-1.97 8.85 7.86 42.26 49.14 17.69 12.78 24.57 2.95 37.35-16.71 120.89-65.85 67.81-18.67 71.75 1.97 164.13-4.91 151.35-8.85 82.56-1.97 55.04 7.86 72.73 15.72 48.16 12.78 240.79-2.95 78.62.9819.66 5.9 163.15 126.78 39.31 24.57 54.05 26.54 82.56 62.9 59.95 45.21 59.95 40.3 155.28 119.9 112.04 84.52 13.76 17.69 21.62 53.07 36.36 30.47 8.85 19.66.98107.13 4.91 12.78 71.75 59.95 12.78 20.64 30.47 24.57 193.61 158.23 157.25 140.54 49.14 34.4 41.28 32.43 131.7 114.99 59.95 51.11 54.05 47.17 37.84 30.96 101.23-0.490.951.97 2.46 141.53-3.93 6.88-234.89 1.97-102.21-5.9-185.75 5.9-240.79.98-47.17 1.97-85.5 17.69-255.53 4.91-43.24 1.97-53.07 26.54-34.4 5.9-198.53 1.97-17.69 7.86-26.54 12.78-56.02-.98-213.27-19.66-172.97-21.62-183.79-22.6" style="fill:none;stroke:#16a3dd;stroke-width:5;stroke-linecap:butt;stroke-linejoin:round;stroke-miterlimit:4;stroke-opacity:1;stroke-dasharray:none"/><path d="m3234 3454.01-11.23 8.22-3.72 14.17 1.39 28.49 6.25 27.8 1.04 33.36-6.25 63.59 2.08 77.14 3.47 145.25 4.86 197.37 1.39 110.15-16.33 39.27-1.04 21.54 4.52 110.5 2.43 134.82 1.39 183.12 2.43 20.85 9.03 19.46 25.37 25.37 13.9 19.11 7.64 23.98 2.08 102.16 2.08 167.14 3.47 40.65 4.17 187.98 4.86 279.37.815.87" style="fill:none;stroke:#00a950;stroke-width:5;stroke-linecap:butt;stroke-linejoin:round;stroke-miterlimit:4;stroke-opacity:1;stroke-dasharray:none"/><path d="m1733.68.269.78-5.41 8.85-5.41 14.25-16.71 11.3-3.93 286-4.42 274.7-4.91 183.79-4.42 6.39-8.85-4.42-185.26-2.46-118.43 6.39-10.81" style="fill:none;stroke:#16a3dd;stroke-width:5;stroke-linecap:butt;stroke-linejoin:round;stroke-miterlimit:4;stroke-opacity:1;stroke-dasharray:none"/><path d="m2735.36 958.58 20.85 24.32 44.13 50.04 14.94 18.76 7.64 17.37.3539.26 1.39 53.16 3.47 21.54 13.9 29.19 17.37 15.29 22.93 19.46 10.77 18.42 6.25 19.11 2.78 74.01 3.13 156.36 3.13 142.12 2.08 107.02 17.37 91.04 1.39 49.34 1.39 60.81 4.86 7.99 22.93-0.70.648.69 1.74 132.74 2.43 31.27 2.78 107.02 3.13 152.54 4.52 174.78 2.78 27.1 51.08 50.73 83.74 80.27 11.47 7.3 116.75-2.43 4.52 5.91 3.82 17.72 1.74 123.01 3.13 162.62 3.13 149.41.35121.27" style="fill:none;stroke:#e41836;stroke-width:5;stroke-linecap:butt;stroke-linejoin:round;stroke-miterlimit:4;stroke-opacity:1;stroke-dasharray:none"/><path d="m3197.09 3016.74-230.47 5.89" style="fill:none;stroke:#00a950;stroke-width:5;stroke-linecap:butt;stroke-linejoin:round;stroke-miterlimit:4;stroke-opacity:1;stroke-dasharray:none"/><path d="m2018.14 2695.67 1256.48-995.17" style="fill:none;stroke:#412e88;stroke-width:5;stroke-linecap:butt;stroke-linejoin:round;stroke-miterlimit:4;stroke-opacity:0;stroke-dasharray:none"/><path d="m2283.07 1752.35.9828.5 4.91 3.93 103.2.98280.1-3.93h26.54l11.79 5.9 4.91 9.83.9823.59 6.88.4.91 14.74 10.81 6.88 13.76 1.97 191.65-3.93 14.74 3.93 5.9 14.74 2.95 103.2 2.95 173.96 4.91 156.27 1.97 14.74 34.4 31.45 22.6.981.97 15.72 11.79 2.95 94.35-2.95 9.83 7.86 1.97 103.2 7.86 13.76-3.93 15.72 2.95 63.88 7.86 9.83 2.95 99.26 18.1 4.02.241.8 2.34 157.13 87.83-.44" style="fill:none;stroke:#744100;stroke-width:5;stroke-linecap:butt;stroke-linejoin:round;stroke-miterlimit:4;stroke-opacity:1;stroke-dasharray:none"/><path d="m3191.19 3022.3 87.96-.62.74 138.58" style="fill:none;stroke:#744100;stroke-width:5;stroke-linecap:butt;stroke-linejoin:round;stroke-miterlimit:4;stroke-opacity:1;stroke-dasharray:none"/><path d="m3194.14 3017.26 84.52-0.470.413.9.49137.35-1.48 5.44" style="fill:none;stroke:#00a950;stroke-width:5;stroke-linecap:butt;stroke-linejoin:round;stroke-miterlimit:4;stroke-opacity:1;stroke-dasharray:none"/><path d="m3262.94 3319.94 5.04 14.4 9.88 15.11.3194.32-1.47 63.88 3.44 203.93 1.97 22.11 3.93 263.39 4.91 8.85 62.41-0.990.884.91 2.46 149.39 1.47 79.12 2.46 21.62 3.93 270.27 2.46 106.64 4.91 7.37 140.05-3.44" style="fill:none;stroke:#e41836;stroke-width:5;stroke-linecap:butt;stroke-linejoin:round;stroke-miterlimit:4;stroke-opacity:1;stroke-dasharray:none"/><path d="m2716.49 948.93-22.11-30.96-4.64-11.58-10.59-67.54-36.36-221.62-21.13-77.15-.49-133.17 2.46-53.56-3.93-26.04-45.7-108.6-34.4-85.01" style="fill:none;stroke:#412e88;stroke-width:5;stroke-linecap:butt;stroke-linejoin:round;stroke-miterlimit:4;stroke-opacity:1;stroke-dasharray:none"/><path d="m2738.61 969.57-21.7-20.06-3.11-4.51" style="fill:none;stroke:#412e88;stroke-width:5;stroke-linecap:butt;stroke-linejoin:round;stroke-miterlimit:4;stroke-opacity:1;stroke-dasharray:none"/><path d="m1232.45 3003.47 553.32-6.88 44.23 5.9 581.83 44.23 25.55.98367.57-19.66 161.67-5.41M3231.47 3455.1l34.41-1.99 7.41-9.74-1.02-125.37-1.47-118.92 10.32-15.23 1.97-21.62" style="fill:none;stroke:#00a950;stroke-width:5;stroke-linecap:butt;stroke-linejoin:round;stroke-miterlimit:4;stroke-opacity:1;stroke-dasharray:none"/><path d="m3370.56 4534.7-6.39 5.41-141.53 2.46-10.32 6.88v91.89l-15.72 16.22-28.99 3.44-107.13 1.97-11.79-3.93-217.2 4.42" style="fill:none;stroke:#e41836;stroke-width:5;stroke-linecap:butt;stroke-linejoin:round;stroke-miterlimit:4;stroke-opacity:1;stroke-dasharray:none"/><text x="39.45" y="206.96" xml:space="preserve" style="font-size:144px;font-style:normal;font-weight:400;fill:#000;fill-opacity:1;stroke:none;font-family:Sans;-inkscape-font-specification:Sans"><tspan x="39.45" y="206.96">1985</tspan></text><text x="39.45" y="6097.96" xml:space="preserve" style="font-size:144px;font-style:normal;font-weight:400;fill:#000;fill-opacity:1;stroke:none;font-family:Sans;-inkscape-font-specification:Sans"/><path d="m3516.99 4640.86 86.98-1.97 132.1-.14" style="fill:none;stroke:#e41836;stroke-width:5;stroke-linecap:butt;stroke-linejoin:round;stroke-miterlimit:4;stroke-opacity:1;stroke-dasharray:none"/></svg>