<?xml version="1.0" encoding="UTF-8" standalone="no"?>
<svg
   version="1.1"
   id="svg2"
   width="2150"
   height="1400"
   viewBox="0 0 2150 1400"
   xmlns:xlink="http://www.w3.org/1999/xlink"
   xmlns="http://www.w3.org/2000/svg"
   xmlns:svg="http://www.w3.org/2000/svg"
   xmlns:rdf="http://www.w3.org/1999/02/22-rdf-syntax-ns#"
   xmlns:cc="http://creativecommons.org/ns#"
   xmlns:dc="http://purl.org/dc/elements/1.1/">
  <metadata
     id="metadata8">
    <rdf:RDF>
      <cc:Work
         rdf:about="">
        <dc:format>image/svg+xml</dc:format>
        <dc:type
           rdf:resource="http://purl.org/dc/dcmitype/StillImage" />
      </cc:Work>
    </rdf:RDF>
  </metadata>
  <defs
     id="defs6" />
  <g
     id="g856"
     transform="translate(-120.0,200.0)"
     style="display:none">
    <image
       xlink:href="osm.png"
       y="-350"
       x="-50"
       id="image10"
       preserveAspectRatio="none"
       height="2488.89"
       width="2737.78" />
    <image
       xlink:href="raillayerosm.png"
       y="-350"
       x="-50"
       id="image5"
       preserveAspectRatio="none"
       height="2488.89"
       width="2737.78"
       style="opacity:0.5" />
  </g>
  <path
     style="fill:none;stroke:#999999;stroke-width:3;stroke-linejoin:round;stroke-opacity:1"
     d="m 556.06,1757.19 3.99,-16.21 1.29,-12.92 -1.58,-12.72 -6.68,-16.58 -41.21,-78.13 -12.14,-16.31 -213.51,-210.81 -24.34,-24.5 -13.34,-18.62 -8.15,-16.89 -4.21,-20.34 -17.14,-113.76 -2.62,-9.22 -7.59,-15.81 -13.54,-20.08 -31.49,-30.05 -8.91,-13.53 -6.48,-17.47 -3.42,-17.01 -0.41,-16.24 4.46,-19.92 9.81,-25.78 28.87,-65.26 59.5,-140.66 3.35,-11.25 1.44,-14.27 -1.09,-36.34 1.18,-31.35 0.12,-90.2 2.37,-13.67 6.33,-35.73 12.78,-49.99 4.45,-7.38 10.28,-9.29 8.67,-4.66 10.11,-5.85 5.83,-6.42 4.11,-7.99 1.93,-10.42 -0.48,-9.61 -24.77,-76.48"
     id="path2748" />
  <path
     style="opacity:1;fill:none;stroke:#999999;stroke-width:3;stroke-linejoin:round;stroke-dasharray:none;stroke-opacity:1"
     d="m 2567.78,640.64 -8.39,9.43 -67.68,39.93 -212.82,76.89 -213.06,75.77 -181.26,33.06 -14.03,0.56 -128.7,-9.13 -35.78,6.79 -123.92,41.03 -16.1,8.08 -75.4,81.97 -15.96,19.8 -7.9,6.0 -7.9,0.75 -5.16,-1.17 -7.03,-2.13"
     id="path20781" />
  <path
     style="opacity:1;fill:none;stroke:#999999;stroke-width:3;stroke-linejoin:round;stroke-dasharray:none;stroke-opacity:1"
     d="m 2543.23,1407.19 -565.78,-250.25 -56.86,-25.48 -22.4,-13.89 -176.99,-155.51 -11.24,-5.72 -8.9,-2.2 -10.7,-0.3 -11.01,2.64 -10.4,4.73 -8.12,6.08 -6.76,8.21 -20.2,30.63 -13.06,15.57 -7.83,5.45 -14.85,5.18 -11.03,0.48 -10.12,-1.58 -16.35,-8.26 -132.6,-122.03 -11.98,-19.52 -3.21,-9.87 0.54,-15.14 32.01,-52.62 6.2,-12.87 2.64,-13.47 -2.99,-42.07 -3.49,-13.28 -7.6,-11.14 -172.88,-152.16 -220.11,-195.91 -60.31,-53.41 -22.72,-16.78 -29.81,-17.11 -37.52,-14.95 -25.44,-7.2 -40.81,-5.44 -343.89,-8.77 -16.18,0.97 -28.96,4.9 -150.25,38.16 -14.67,6.67 -17.72,12.18 -20.61,16.68 -4.83,4.0 -25.28,9.18 -43.27,14.26 -48.94,17.24 -47.32,14.46 -238.66,0.78"
     id="path13175" />
  <path
     style="opacity:1;fill:none;stroke:#999999;stroke-width:3;stroke-linejoin:round;stroke-dasharray:none;stroke-opacity:1"
     d="m 2331.25,2338.89 -71.18,-138.06 -156.69,-366.44 -8.62,-15.2 -11.56,-12.33 -20.66,-16.11 -266.18,-201.62 -10.87,-13.54 -9.58,-15.46 -126.69,-341.02 -6.83,-13.02 -10.41,-11.83 -30.62,-26.69 -85.22,-77.24 -36.7,-33.2 -34.46,-30.36 -8.01,-7.75 -26.49,-22.61 -26.05,-19.13 -36.46,-19.04 -21.09,-7.01 -13.86,-1.64 -16.9,0.83 -19.38,-0.74 -14.45,-2.77 -9.99,-3.81 -26.98,-15.66 -71.35,-53.18 -78.01,-58.13 -24.21,-19.29 -183.93,-139.07 -84.21,-61.88 -22.34,-13.92 -17.83,-9.4 -19.56,-7.23 -131.61,-43.56 -22.12,-6.54 -12.25,-0.83 -16.33,0.29 -8.36,1.47 -11.41,2.52 -38.18,19.3 -14.78,6.54 -16.37,3.78 -12.85,-0.04 -10.08,-2.05 -13.76,-6.21 -12.63,-8.29 -26.15,-20.59 -15.38,-10.95 -9.5,-9.99 -43.68,-55.9 -25.62,-34.02 -5.61,-4.77 -9.32,-3.93 -8.45,-1.72 -42.04,0.43 -11.62,-2.37 -9.56,-5.37 -6.74,-5.07 -7.09,-9.97 -3.79,-9.63 -1.29,-18.77 -0.66,-17.22 -1.27,-7.27 -6.37,-14.03 -19.69,-23.36 -20.38,-19.86 -35.03,-22.48 -31.12,-22.42 -18.28,-7.86 -17.5,-3.28 -37.25,-2.67 -12.78,-3.1 -58.59,-29.93 -36.09,-11.73 -22.19,-8.03 -14.69,-8.23 -16,-13.96"
     id="path17746" />
  <path
     style="opacity:1;fill:none;fill-opacity:1;fill-rule:nonzero;stroke:#ff0000;stroke-width:3;stroke-linecap:butt;stroke-linejoin:round;stroke-miterlimit:4;stroke-dasharray:none;stroke-opacity:1"
     d="m 1117.58,769.56 13.2,-9.69 30.33,-17.4 31.25,-11.95 9.88,0.1 27.75,2.4 71.24,0.4 30.39,-6.06 53.16,0.25 3.72,2.16 2.26,3.94 v 51.44 l 0.26,20.08 2.18,7.52 3.68,5.34 6.22,5.42 30.49,18.92 82.69,75.34"
     id="path852" />
  <path
     style="opacity:1;fill:none;fill-opacity:1;fill-rule:nonzero;stroke:#ff0000;stroke-width:3;stroke-linecap:butt;stroke-linejoin:round;stroke-miterlimit:4;stroke-dasharray:none;stroke-opacity:1"
     d="m 1440.95,1001.14 10.8,-11.51 -6.53,-5.81 36.78,-27.05 23.49,-26.34 81.63,72.61 28.78,9.41 L 1616,970 l -0.17,-29.85 77.42,0.37"
     id="path13275" />
  <path
     style="opacity:1;fill:none;fill-opacity:1;fill-rule:nonzero;stroke:#ff0000;stroke-width:3;stroke-linecap:butt;stroke-linejoin:round;stroke-miterlimit:4;stroke-dasharray:none;stroke-opacity:1"
     d="m 1505.49,930.43 24.87,-29.15 v -104.7 h -1.66 -54.05 l -0.5,-53.87 -83.91,0.08"
     id="path842" />
  <path
     style="opacity:1;fill:none;fill-opacity:1;fill-rule:nonzero;stroke:#ff0000;stroke-width:3;stroke-linecap:butt;stroke-linejoin:round;stroke-miterlimit:4;stroke-dasharray:none;stroke-opacity:1"
     d="m 1440.95,1001.14 -21.59,24.68"
     id="path848" />
  <path
     style="opacity:1;fill:none;fill-opacity:1;fill-rule:nonzero;stroke:#ff0000;stroke-width:3;stroke-linecap:butt;stroke-linejoin:round;stroke-miterlimit:4;stroke-dasharray:none;stroke-opacity:1"
     d="m 1419.36,1025.82 -21.83,24.44 -12.81,9.49 -7.83,-8.54 -10.92,-1.9 -5.93,-5.22 -13.53,14.71 -79.25,60.51 -66.68,-0.02"
     id="path850" />
  <path
     style="opacity:1;fill:none;fill-opacity:1;fill-rule:nonzero;stroke:#ff0000;stroke-width:3;stroke-linecap:butt;stroke-linejoin:round;stroke-miterlimit:4;stroke-dasharray:none;stroke-opacity:1"
     d="m 253.08,503.54 -0.14,54.81 -3.89,26.58 0.23,84.15 -112.19,-0.02 -0.31,-82.01 0.01,-13.33 56.01,0.26 0.13,-226.26 59.74,0.08 0.42,155.74"
     id="path854" />
  <path
     style="opacity:1;fill:none;stroke:#ff0000;stroke-width:3;stroke-linejoin:round;stroke-dasharray:none"
     d="m 1117.58,769.56 -11.95,6.39 -34.0,26.5 -12.07,8.26 -7.62,2.18 -7.3,-0.41 -7.81,-2.89 -43.66,-35.37 -29.86,-27.48 -16.23,-10.22 -22.75,-6.29 -18.93,-7.47 -19.65,-9.52 -15.66,-10.35 -6.58,-9.48 -3.08,-10.88 -5.42,-7.65 -26.41,-21.42 -19.85,-8.52 -25.9,-11.09 -6.68,-0.9 -9.03,1.44 -29.7,11.03 -12.71,2.77 -53.32,-1.76 -16.53,-1.08 -24.34,-2.89 -13.49,-3.52 -14.09,-6.16 -117.95,-60.38 -11.24,-2.76 -55.06,0.12 -11.15,-2.01 -14.13,-5.39 -9.76,-6.36 -13.64,-11.05 -11.28,-4.88 -11.4,-3.53 -30.67,0.19 -9.01,-3.23 -13.82,-25.63 -5.87,-4.12 -34.89,-0.2"
     id="path9001" />
  <text
     x="84.18"
     y="206.96"
     id="text4834-3"
     xml:space="preserve"
     style="font-style:normal;font-weight:normal;font-size:144px;line-height:125%;font-family:Sans;-inkscape-font-specification:Sans;letter-spacing:0px;word-spacing:0px;fill:#000000;fill-opacity:1;stroke:none"><tspan
       x="84.18"
       y="206.96"
       id="tspan1">1900</tspan></text>
  <path
     style="opacity:1;fill:none;stroke:#999999;stroke-width:3;stroke-linejoin:round;stroke-dasharray:none;stroke-opacity:1"
     d="M 600.38,242.13 567.59,234.02 547.49,223.88 531.35,211.86 471.75,150.57 461.75,134.01 453.18,113.72 448.35,97.13 412.52,-150.0"
     id="path14072" />
  <path
     style="opacity:1;fill:none;stroke:#999999;stroke-width:3;stroke-linejoin:round;stroke-dasharray:none;stroke-opacity:1"
     d="m 1296.12,950.41 -20.73,8.19 -14.77,9.33 -235.47,200.93 -108.31,92.62 -14.3,15.79 -675.76,936.04 -55.07,78.93 -18.86,19.72 -15.88,15.01 -15.46,12.61"
     id="path20783" />
  <path
     style="fill:none;stroke:#ff0000;stroke-width:3;stroke-linejoin:round"
     d="m 252.67,347.8 -0.03,-8.33"
     id="path485" />
  <path
     style="fill:none;stroke:#ff0000;stroke-width:3;stroke-linejoin:round;stroke-opacity:1"
     d="m 137.05,657.92 -7.0,0.07 -13.59,2.26 -8.9,5.35 -4.87,8.7 0.04,9.81"
     id="path2557" />
</svg>
