<?xml version="1.0" encoding="UTF-8" standalone="no"?>
<svg
   version="1.1"
   id="svg2"
   width="2150"
   height="1400"
   viewBox="0 0 2150 1400"
   xmlns:xlink="http://www.w3.org/1999/xlink"
   xmlns="http://www.w3.org/2000/svg"
   xmlns:svg="http://www.w3.org/2000/svg"
   xmlns:rdf="http://www.w3.org/1999/02/22-rdf-syntax-ns#"
   xmlns:cc="http://creativecommons.org/ns#"
   xmlns:dc="http://purl.org/dc/elements/1.1/">
  <metadata
     id="metadata8">
    <rdf:RDF>
      <cc:Work
         rdf:about="">
        <dc:format>image/svg+xml</dc:format>
        <dc:type
           rdf:resource="http://purl.org/dc/dcmitype/StillImage" />
      </cc:Work>
    </rdf:RDF>
  </metadata>
  <defs
     id="defs6" />
  <g
     id="g856"
     transform="translate(-120.0,200.0)"
     style="display:none">
    <image
       xlink:href="osm.png"
       y="-350"
       x="-50"
       id="image10"
       preserveAspectRatio="none"
       height="2488.89"
       width="2737.78" />
    <image
       xlink:href="raillayerosm.png"
       y="-350"
       x="-50"
       id="image5"
       preserveAspectRatio="none"
       height="2488.89"
       width="2737.78"
       style="opacity:0.5" />
  </g>
  <path
     style="opacity:1;fill:none;stroke:#999999;stroke-width:3;stroke-linejoin:round;stroke-dasharray:none;stroke-opacity:1"
     d="m 2567.78,640.64 -8.39,9.43 -67.68,39.93 -212.82,76.89 -213.06,75.77 -181.26,33.06 -14.03,0.56 -128.7,-9.13 -35.78,6.79 -123.92,41.03 -16.1,8.08 -75.4,81.97 -15.96,19.8 -7.9,6.0 -7.9,0.75 -5.16,-1.17 -7.03,-2.13"
     id="path20781" />
  <path
     style="opacity:1;fill:none;stroke:#999999;stroke-width:3;stroke-linejoin:round;stroke-dasharray:none;stroke-opacity:1"
     d="m 2543.23,1407.19 -565.78,-250.25 -56.86,-25.48 -22.4,-13.89 -176.99,-155.51 -11.24,-5.72 -8.9,-2.2 -10.7,-0.3 -11.01,2.64 -10.4,4.73 -8.12,6.08 -6.76,8.21 -20.2,30.63 -13.06,15.57 -7.83,5.45 -14.85,5.18 -11.03,0.48 -10.12,-1.58 -16.35,-8.26 -132.6,-122.03 -11.98,-19.52 -3.21,-9.87 0.54,-15.14 32.01,-52.62 6.2,-12.87 2.64,-13.47 -2.99,-42.07 -3.49,-13.28 -7.6,-11.14 -172.88,-152.16 -220.11,-195.91 -60.31,-53.41 -22.72,-16.78 -29.81,-17.11 -37.52,-14.95 -25.44,-7.2 -40.81,-5.44 -343.89,-8.77 -16.18,0.97 -28.96,4.9 -150.25,38.16 -14.67,6.67 -17.72,12.18 -20.61,16.68 -4.83,4.0 -12.39,4.42 -15.77,0.13 -12.05,-4.23 -12.36,-8.49 -31.54,-37.43 -20.38,-19.86 -35.03,-22.48 -31.12,-22.42 -18.28,-7.86 -17.5,-3.28 -37.25,-2.67 -25.56,-6.2 -50.17,-21.44 -84.07,-29.54"
     id="path13175" />
  <path
     style="opacity:1;fill:none;stroke:#999999;stroke-width:3;stroke-linejoin:round;stroke-dasharray:none;stroke-opacity:1"
     d="m 169.05,300.56 6.37,14.03 1.27,7.27 0.66,17.22 1.29,18.77 3.79,9.63 7.09,9.97 6.74,5.07 9.56,5.37 11.62,2.37 42.04,-0.43 8.45,1.72 9.32,3.93 5.61,4.77 25.62,34.02 43.68,55.9 9.5,9.99 15.38,10.95 26.15,20.59 12.63,8.29 13.76,6.21 10.08,2.05 12.85,0.04 16.37,-3.78 14.78,-6.54 38.18,-19.3 11.41,-2.52 8.36,-1.47 16.33,-0.29 12.25,0.83 22.12,6.54 131.61,43.56 19.56,7.23 17.83,9.4 22.34,13.92 84.21,61.88 183.93,139.07 24.21,19.29 78.01,58.13 71.35,53.18 26.98,15.66 9.99,3.81 14.45,2.77 19.38,0.74 16.9,-0.83 14.35,1.12 25.73,5.71 26.44,13.37 30.95,26.62 26.49,22.61 8.01,7.75 34.46,30.36 36.7,33.2 85.22,77.24 30.62,26.69 10.41,11.83 6.83,13.02 126.69,341.02 9.58,15.46 10.87,13.54 266.18,201.62 20.66,16.11 11.56,12.33 8.62,15.2 156.69,366.44 71.18,138.06"
     id="path17746" />
  <path
     style="opacity:1;fill:none;fill-opacity:1;fill-rule:nonzero;stroke:#ff0000;stroke-width:3;stroke-linecap:butt;stroke-linejoin:round;stroke-miterlimit:4;stroke-dasharray:none;stroke-opacity:1"
     d="m 1697.46,1045.51 -47.22,-21.83 -63.12,-20.64 -81.63,-72.61 10.79,-12.64 -82.69,-75.34 -30.49,-18.92 -6.22,-5.42 -10.79,-14.24 -11.66,-16.36 -2.84,-10.03 0.32,-38.32 -1.71,-4.24 -3.65,-4.51 -8.71,-2.92 -26.22,-0.12 -30.39,6.06 -71.24,-0.4 -27.75,-2.4 -9.88,-0.1 -31.25,11.95 -30.33,17.4 -13.2,9.69"
     id="path838" />
  <path
     style="opacity:1;fill:none;fill-opacity:1;fill-rule:nonzero;stroke:#ff0000;stroke-width:3;stroke-linecap:butt;stroke-linejoin:round;stroke-miterlimit:4;stroke-dasharray:none;stroke-opacity:1"
     d="m 253.08,503.54 -0.14,54.81 -3.89,26.58 0.23,84.15 -112.19,-0.02 -0.31,-82.01 26.72,0.3 0.22,-239.67 88.95,0.12 0.42,155.74"
     id="path854" />
  <path
     style="opacity:1;fill:none;stroke:#ff0000;stroke-width:3;stroke-linejoin:round;stroke-dasharray:none"
     d="m 1117.58,769.56 -11.95,6.39 -34.0,26.5 -12.07,8.26 -7.62,2.18 -7.3,-0.41 -7.81,-2.89 -43.66,-35.37 -29.86,-27.48 -16.23,-10.22 -22.75,-6.29 -18.93,-7.47 -19.65,-9.52 -15.66,-10.35 -6.58,-9.48 -3.08,-10.88 -5.42,-7.65 -26.41,-21.42 -19.85,-8.52 -25.9,-11.09 -6.68,-0.9 -9.03,1.44 -29.7,11.03 -12.71,2.77 -53.32,-1.76 -16.53,-1.08 -24.34,-2.89 -13.49,-3.52 -14.09,-6.16 -117.95,-60.38 -11.24,-2.76 -55.06,0.12 -11.15,-2.01 -14.13,-5.39 -9.76,-6.36 -13.64,-11.05 -11.28,-4.88 -11.4,-3.53 -30.67,0.19 -9.01,-3.23 -13.82,-25.63 -5.87,-4.12 -34.89,-0.2"
     id="path9001" />
  <path
     style="opacity:1;fill:none;stroke:#ff0000;stroke-width:3;stroke-linejoin:round;stroke-dasharray:none"
     d="m 1303.91,732.89 -4.59,-3.68 -2.47,-3.96 -1.64,-6.32 -0.92,-109.27 -1.83,-10.49 -5.07,-12.44 -16.21,-28.7 -102.35,-91.18 -13.0,-14.27 -6.38,-10.42 -5.22,-14.55 -2.54,-12.49 -0.95,-139.33 -0.14,-428.06"
     id="path11181" />
  <text
     x="84.18"
     y="206.96"
     id="text4834-3"
     xml:space="preserve"
     style="font-style:normal;font-weight:normal;font-size:144px;line-height:125%;font-family:Sans;-inkscape-font-specification:Sans;letter-spacing:0px;word-spacing:0px;fill:#000000;fill-opacity:1;stroke:none"><tspan
       x="84.18"
       y="206.96"
       id="tspan1">1940</tspan></text>
  <path
     style="opacity:1;fill:none;stroke:#ff0000;stroke-width:3;stroke-linejoin:round;stroke-dasharray:none"
     d="m 1697.46,1045.51 29.39,14.12 55.82,31.76 23.68,-0.75 5.79,1.62 27.4,0.29 6.41,1.9 10.39,6.15 9.44,10.46 8.0,14.39 5.73,8.12 10.86,7.84 99.02,61.93 20.71,15.88 16.3,14.71 19.8,23.35 16.61,24.63 9.53,20.73 8.27,19.09 7.23,22.29 4.42,23.75 2.23,22.3 3.59,124.83 0.67,53.03 1.07,18.57 3.27,13.51 5.39,12.5 7.32,11.65 136.49,207.41 42.41,63.09 10.82,15.16 8.97,9.79 18.52,15.46 173.25,114.87 14.95,7.92 46.55,23.68"
     id="path13094" />
  <path
     style="opacity:1;fill:none;stroke:#999999;stroke-width:3;stroke-linejoin:round;stroke-dasharray:none;stroke-opacity:1"
     d="m -22.98,195.52 -58.59,-29.93 -36.09,-11.73 -22.19,-8.03 -14.69,-8.23 -16,-13.96"
     id="path13240" />
  <path
     style="opacity:1;fill:none;stroke:#999999;stroke-width:3;stroke-linejoin:round;stroke-dasharray:none;stroke-opacity:1"
     d="m 1296.12,950.41 -20.73,8.19 -14.77,9.33 -235.47,200.93 -108.31,92.62 -14.3,15.79 -675.76,936.04 -55.07,78.93 -18.86,19.72 -15.88,15.01 -15.46,12.61"
     id="path20783" />
</svg>
