<svg xmlns="http://www.w3.org/2000/svg" viewBox="-50 0 2400 3150" height="3150" width="2400"><path d="m1181.551 2347.614-22.109-156.951-34.294-253.498-16.264-112.784-1.767-31.112 7.778-50.912 13.788-40.305 21.92-36.063 23.689-29.698 27.223-27.224 45.962-47.022 16.617-27.931 15.557-41.72 9.546-39.95 5.656-20.507 11.49-20.683 16.264-15.203 15.593-9.575 16.404-10.047M1246.25 806.75l5.293-23.407-.844-17.596-9.232-19.35-19.446-61.165-21.92-34.648-24.395-23.334-47.73-27.578-24.226-22.922-27-25.75-17-10-16.25-3.75-18-.75-29.75 7.5-32 13-32.5 17-28.75 19.75L876.25 610l-28 10.25-100.75 16-25.75 7-209.5 72.25-23.75 12-18.75 16.5-12.5 18.75-8.5 22.5-2 21.25 4.5 26.75 11.5 22.75 12.5 17 130 141.5 12.25 18 9.5 15.5 8.25 32.5 1 26.25-5.5 39.5-12 71.25-3.5 13.25-9.75 11.5-9.25 5.75-12.75 4.25-26-3.75-41.75-14.75-19.75-1.25-18.25 3.75-56 24.75-19.5 3.75-29.5 3-80 21.5-50 8-140 37.75" style="opacity:1;fill:none;fill-opacity:1;fill-rule:nonzero;stroke:#006f32;stroke-width:5;stroke-linecap:butt;stroke-linejoin:round;stroke-miterlimit:4;stroke-dasharray:none;stroke-opacity:1"/><path d="m1354.604 1376.43 17.324-11.668 63.286-76.721 17.324-21.92 32.527-66.822 41.685-80.049L1549 1075l15-31.5 7.75-25.25 20.75-93.5 9.75-51-.25-15-4.5-19.25-10-14-14.25-10.75-18.75-5.25-21.75-1.25-75-4.75-138.5-12L1293 787l-17.5-1.5-12.25 4.5-17 16.75-46.5 68.75" style="opacity:1;fill:none;fill-opacity:1;fill-rule:nonzero;stroke:#006f32;stroke-width:5;stroke-linecap:butt;stroke-linejoin:round;stroke-miterlimit:4;stroke-dasharray:none;stroke-opacity:1"/><text style="font-style:normal;font-weight:400;font-size:143.99990845px;line-height:125%;font-family:Sans;-inkscape-font-specification:Sans;letter-spacing:0;word-spacing:0;fill:#000;fill-opacity:1;stroke:none" xml:space="preserve" y="206.96094" x="39.453133"><tspan y="206.96094" x="39.453133">1995</tspan></text></svg>