<svg xmlns="http://www.w3.org/2000/svg" width="2400" height="1750"><path style="fill:none;stroke:#0134b9;stroke-width:1;stroke-linejoin:round;stroke-miterlimit:4;stroke-dasharray:none;stroke-opacity:1" d="m105.97 1638.2.42-10.28 191.1-203.47 59.84-73.91 8.67-13.03 35.53-77.25 46.34-73.14 7.37-8.61 11.27-7.09 75.41-25.12 80.3-18.68 59.32-12.41 10.030.3512.44 6.51 181.92 104.36 7.54 2.89 10.01-3.64 16.38-18.52 21.48-15.27 18.11-20.55 125.11-121 1-13.69 3.59-9.06 9.64-3.98 12.47-0.376.93-3.76L1159.8 977l32.25-29.83"/><path style="fill:none;stroke:#0134b9;stroke-width:5;stroke-linejoin:round;stroke-opacity:1" d="m1350.57 792.84 61.12-59.81 4.9-11.89-1.49-21.39 1.36-8.05 5.86-9.28 82.85-79.92 1.36-4.71"/><path style="fill:none;stroke:#0134b9;stroke-width:5;stroke-linejoin:round;stroke-miterlimit:4;stroke-dasharray:none;stroke-opacity:1" d="m1192.05 947.16 41.04-39.6 3.43-7.9 1.12-13.33 3.86-8.12 21.61-19.53 9.88-4.41 17.73-3.84 9.29-6.57 7.27-7.98"/><path style="fill:none;stroke:#0134b9;stroke-width:1;stroke-linejoin:round;stroke-miterlimit:4;stroke-dasharray:none;stroke-opacity:1" d="m1307.29 835.87 43.27-43.02M1506.53 597.79l.13-3.36-1.57-3.34-231.74-240.79-.99-2.01.61-3.61 236.67-227.86 4.7-0.675.22 1.4 11.69 27.13 33.8 68.78 30.22 32.07 47.89 49.93v3.44l-1.68 4.71-214.22 208.48-176.01 169.74 2.75 11.93 93.6 96.14v6.06"/><text x="89.45" y="206.96" xml:space="preserve" style="font-style:normal;font-weight:400;font-size:144px;line-height:125%;font-family:Sans;-inkscape-font-specification:Sans;letter-spacing:0;word-spacing:0;fill:#000;fill-opacity:1;stroke:none"><tspan x="89.45" y="206.96">2000</tspan></text></svg>