<svg xmlns="http://www.w3.org/2000/svg" height="1450" width="1000"><path d="m312.03 265.76 9.49 40.68 17.97 76.95 5.76 14.92 7.12 9.49 9.83 6.1 13.9 6.1 5.76 6.78 4.07 11.190.348.14 3.39 9.15 6.1 12.2 2.03 7.8-32.54 80.68-5.42 18.31 1.02 9.49 8.81 18.98 2.71 12.54-3.73 15.25-19.66 29.83-15.25 11.86-17.29 14.24-15.59 8.81-11.53 2.71h-10.51l-12.54 8.14-10.51 21.36-34.58 73.9-4.07 16.95-15.93 86.44-10.17 34.58-19.32 41.02-7.8 26.44-35.93 104.07-1.02 16.27 2.71 16.95 5.08 14.92 7.8 8.47 12.54 10.17 12.2 6.1L271 1221.37l66.78 12.54 19.66 1.02 53.22-4.75 26.1 5.76 26.78-2.37 19.32-3.73 15.93-9.49 21.02-15.25 14.58-6.78 15.930.3428.47 6.78 58.64 14.24 10.510.6822.37-2.37 15.93 3.05 10.85 6.4460.067.46 13.9 10.85 16.61 3.39 37.630.3446.44 18.98" style="opacity:1;fill:none;fill-opacity:1;fill-rule:nonzero;stroke:#ee1d23;stroke-width:5;stroke-linecap:butt;stroke-linejoin:round;stroke-miterlimit:4;stroke-dasharray:none;stroke-opacity:1"/><text style="font-style:normal;font-weight:400;font-size:144px;line-height:125%;font-family:Sans;-inkscape-font-specification:Sans;letter-spacing:0;word-spacing:0;fill:#000;fill-opacity:1;stroke:none" xml:space="preserve" y="206.96" x="89.45"><tspan y="206.96" x="89.45">2020</tspan></text></svg>