<?xml version="1.0" encoding="UTF-8" standalone="no"?>
<svg
   xmlns:dc="http://purl.org/dc/elements/1.1/"
   xmlns:cc="http://creativecommons.org/ns#"
   xmlns:rdf="http://www.w3.org/1999/02/22-rdf-syntax-ns#"
   xmlns:svg="http://www.w3.org/2000/svg"
   xmlns="http://www.w3.org/2000/svg"
   xmlns:xlink="http://www.w3.org/1999/xlink"
   version="1.1"
   id="svg2"
   width="3550"
   height="4400"
   viewBox="0 -1400 3550 4400">
  <metadata
     id="metadata8">
    <rdf:RDF>
      <cc:Work
         rdf:about="">
        <dc:format>image/svg+xml</dc:format>
        <dc:type
           rdf:resource="http://purl.org/dc/dcmitype/StillImage" />
        <dc:title></dc:title>
      </cc:Work>
    </rdf:RDF>
  </metadata>
  <defs
     id="defs6" />
  <image
     xlink:href="../basemap/nueosm.png"
     y="48.12"
     x="0"
     id="image10"
     preserveAspectRatio="none"
     height="2851.88"
     width="3510"
     style="display:none" />
  <text
     x="89.45"
     y="-1193.04"
     id="text3019"
     xml:space="preserve"
     style="font-style:normal;font-weight:normal;font-size:144px;line-height:125%;font-family:Sans;-inkscape-font-specification:Sans;letter-spacing:0px;word-spacing:0px;fill:#000000;fill-opacity:1;stroke:none"><tspan
       x="89.45"
       y="-1193.04"
       id="tspan1">1940</tspan></text>
  <path
     style="opacity:1;fill:none;fill-opacity:1;fill-rule:nonzero;stroke:#951881;stroke-width:5;stroke-linecap:butt;stroke-linejoin:round;stroke-miterlimit:4;stroke-dasharray:none;stroke-opacity:1"
     d="m 1517.68,1229.08 14.32,17.71 2.53,5.9 0.7,6.32 2.11,4.07 2.67,1.54 26.68,-1.83 7.58,2.39 8.29,0.14 12.97,-0.5 3.18,2.78 6.36,40.52 10.92,59.98"
     id="path1410" />
  <path
     id="path10066"
     d="m 1616,1368.11 3.38,15.89 2.38,20.66 1.19,21.45 4.17,17.88 3.18,12.71 4.97,9.73 3.72,13.62 0.05,15.58 3.58,20.26 2.58,5.96 3.38,3.77 7.15,1.79 14.9,1.39 21.23,-2 11.97,-3.47 34.13,-23.53 55.61,-39.92"
     style="opacity:1;fill:none;fill-opacity:1;fill-rule:nonzero;stroke:#951881;stroke-width:1;stroke-linecap:butt;stroke-linejoin:round;stroke-miterlimit:4;stroke-dasharray:none;stroke-opacity:1" />
  <path
     id="path10117"
     d="m 499.93,646.12 -2.98,0.2 -12.51,13.21 -3.28,9.53"
     style="opacity:1;fill:none;fill-opacity:1;fill-rule:nonzero;stroke:#951881;stroke-width:1;stroke-linecap:butt;stroke-linejoin:round;stroke-miterlimit:4;stroke-dasharray:none;stroke-opacity:1" />
  <path
     id="path10149"
     d="m 1540.01,1264.63 -12.78,10.11 -13.2,8.15 -7.02,2.25"
     style="opacity:1;fill:none;fill-opacity:1;fill-rule:nonzero;stroke:#951881;stroke-width:5;stroke-linecap:butt;stroke-linejoin:round;stroke-miterlimit:4;stroke-dasharray:none;stroke-opacity:1" />
  <path
     id="path825"
     d="m 1517.68,1229.08 -9.53,-13.31 -22.64,-28.8 -3.97,-10.33 -4.37,-25.42 -0.4,-29.59 -9.65,-16.26 -10.67,-13.48 -8.01,-7.16 -9.62,-4.92 -6.04,-5.27 -1.01,-4.66 0.73,-12.35 -7.77,-22.68 -1.08,-6.52 -1.8,-1.93 -13.91,-1.28 -10.88,-3.02 -11.66,-7.33 -7.15,-4.77 -8.34,-11.52 -2.58,-0.6 -25.82,1.79 -14.3,1.59 -27.81,-0.2 -2.58,1.99 -2.38,8.94 -1.39,13.11 -4.17,21.05 -7.35,22.25 -4.17,1.99 -15.1,-0.99 -2.78,2.78 -1.59,17.68 -1.79,24.83 -8.54,17.68 -3.18,28.8 7.55,22.44 3.97,19.47 -1.79,16.88 -7.75,45.48 -18.27,35.55 -1.39,8.54 3.58,12.31 -4.37,39.53 m 114.69,-326.06 23.49,2.69 14.56,0.73 11.56,-4.79 2.39,-3.37 3.59,-11.88 9.62,-28.12 6.21,-14.83 6.75,-8.64 16.19,-17.63 3.68,-7.99 8.69,-24.04 10.14,-13.58 4.54,-9.76 0.7,-22.01 0.7,-12.93 23.87,-35.92 8.49,-13.03 -1.32,-3.5 -20.76,0.79 -59.49,11.12 -16.88,-2.48 -37.94,0.2 -20.66,3.18 -5.96,-2.38 -32.18,0.99 -3.22,-1.88 -5.11,-15.8 -3.34,-3.75 -8.17,-4.25 -81.74,19.94 -5.2,5.06 -15.87,19.52 -5.34,8.15 -15.31,62.64 -21.07,20.51 -6.32,13.48 -7.16,20.51"
     style="opacity:1;fill:none;fill-opacity:1;fill-rule:nonzero;stroke:#951881;stroke-width:1;stroke-linecap:butt;stroke-linejoin:round;stroke-miterlimit:4;stroke-dasharray:none;stroke-opacity:1" />
  <path
     id="path9612"
     d="m 1340.59,1035.3 -4.09,2.78 -2.81,22.33 -3.51,1.54 -2.6,4.75 5.27,12.53 -1.83,21.63 8.01,38.9 -2.03,3.34 -21,4.24 -1.54,3.09 4.78,22.19 16.15,49.72 20.65,24.3 20.08,16.99 11.66,19.8 2.53,3.23 38.48,14.75 7.23,2.11 8.5,0.56 15.31,-3.65 47.19,-15.31"
     style="opacity:1;fill:none;fill-opacity:1;fill-rule:nonzero;stroke:#951881;stroke-width:1;stroke-linecap:butt;stroke-linejoin:round;stroke-miterlimit:4;stroke-dasharray:none;stroke-opacity:1" />
</svg>
