<?xml version="1.0" encoding="UTF-8" standalone="no"?>
<!-- Created with Inkscape (http://www.inkscape.org/) -->

<svg
   xmlns:dc="http://purl.org/dc/elements/1.1/"
   xmlns:cc="http://creativecommons.org/ns#"
   xmlns:rdf="http://www.w3.org/1999/02/22-rdf-syntax-ns#"
   xmlns:svg="http://www.w3.org/2000/svg"
   xmlns="http://www.w3.org/2000/svg"
   xmlns:xlink="http://www.w3.org/1999/xlink"
   version="1.1"
   width="7743"
   height="8277"
   viewBox="0, 0, 7743, 8277"
   id="svg2">
  <metadata
     id="metadata42">
    <rdf:RDF>
      <cc:Work
         rdf:about="">
        <dc:format>image/svg+xml</dc:format>
        <dc:type
           rdf:resource="http://purl.org/dc/dcmitype/StillImage" />
        <dc:title></dc:title>
      </cc:Work>
    </rdf:RDF>
  </metadata>
  <defs
     id="defs6" />
  <path
     d="m 2005,1428 28,38 28,31 21,17 22,14 16,5 166,-1 71,2 25,5 25,14 21,18 134,219 139,212 13,27 27.629,105.8687 28.2132,111.3679 31.6779,89.5893 16.334,40.5873 7.9195,10.3944 6.4346,7.9195 21.2836,13.3641 11.8792,6.9296 24.2535,12.3742 15.839,6.9295 8.9094,1.9799 75.2352,-12.3742 36.1326,-5.9396 13.3642,7.9195 7.4245,5.9396 4.9497,13.3641 16.3339,158.8848 -0.4949,29.2032 -29.6981,100.9735 -20.2937,61.871 -0.495,16.3339 0.495,17.3239 18.3138,109.883 5.4447,26.2333 22.7685,35.6377 8.9094,14.3541 6.4346,22.7685 -32.1973,164.8194 -7.5,36 -9,36.5 -9,43 0.5,17.5 5.5,16 4.5,7.5 21.5,33.5 3,7.5 0,9 -4,9 -66.5,134.5 -4,7.5 -10,9 -12,6 -11.5,1 -13,-1.5 -20,-12 -27.5,-16.5 -29,-15.5 -27.5,-9.5 -41.5,-10.5 -46.5,-22 -30,-16 -28,-12.5 -51.5,-16 -49,-11 -49.5,-6 -65,-8.5 -46,-4 -69,-5.5 -46,-2.5 -58.5,3 -45.5,4.5 -151,31 -186,36.5 -80,16.5 -37.5,12 -36.5,16.5 -186,106 -11.5397,8.4836 -30.4603,30.5164 -89,89.5 -182,180.5 -6.5,15 -2.5,23 1,30 6.5,88 15.5,201.5 3,45.5 -3.5,13.5 -48,92 -35.5,31.5 -46.5,45.5 -38.5,37.5 -19,18.5 -30.5,23.5 -30,23 -31.5,17 -25,15.5 -17.5,15.5 -13.5,19.5 -10,21 -8.5,35 -3.5,33.5 -4.5,39 -7,17.5 -12,18.5 -53.5,55 -15,10 -20,8.5 -59.5,1 -26.5,-0.5 -14,3.5 -11.5,8.5 -13,16.5 -24.062,37.3589"
     id="path3610"
     style="fill:none;stroke:#009ada;stroke-width:5;stroke-linecap:butt;stroke-linejoin:round;stroke-miterlimit:4;stroke-opacity:1;stroke-dasharray:none" />
  <path
     d="m 2997,3532.5001 1.5,12 6,8.5 82.5,41.5 25.5,16 26.5,21 24,25.5 21,19 21,14 39.4572,17.318 10.8499,3.85 46.1994,25.1996 85.0489,49.6994 27.6496,20.6497 45.8494,34.2995 11.1998,11.1999 L 3523,3896 l 58,35 44,36 56,34 24,31 49,57 163,171 260,278 142,149 14,21 43,79 12,15 55,48 160,140 191,163 213,187 228,200 56,47 27,29 109,180 210,332 23,44 26,60 28,66 17,27 29,35 65,71 79,91 67,91 60,71 27,41 65,63 195,189 121,116 13,21 50,72 35,38 34,33 36,29"
     id="path2863"
     style="fill:none;stroke:#009ada;stroke-width:5;stroke-linecap:butt;stroke-linejoin:round;stroke-miterlimit:4;stroke-opacity:1;stroke-dasharray:none" />
  <path
     d="m 3005.5,3553.0001 -11.5,1 -11.5,6"
     id="path3637"
     style="fill:none;stroke:#009ada;stroke-width:5;stroke-linecap:butt;stroke-linejoin:round;stroke-miterlimit:4;stroke-opacity:1;stroke-dasharray:none" />
  <image
     xlink:href="../../streetmap/sfoosm.png"
     style="display:none"
     id="image12"
     height="3471"
     width="3471"
     y="2136"
     x="0" />
  <path
     d="m 3078.7023,3038.1858 5.9397,-31.678 4.9496,-32.1729 4.4548,-16.829 8.4144,-12.3742 11.3843,-11.8792 15.839,-9.8994 73.2553,-30.193 65.3358,-31.183 49.4968,-25.2434 49.4968,-35.1428 47.517,-34.6477 20.7886,-12.3742 20.2937,-12.3742 16.334,-10.8894 L 3624,2638 l 41,-34 29,-23 20,-19 164,-90 49,-15 51,-18 45,-27 21,-16 38,-44 28,-54 24,-40 26,-53 25,-29 36,-24 38,-19 45,-8 45,-2 60,11 106,19 25,-2 46,-3 38,7 32,4 30,-2 117,-36 95,-25 153,-31 77,-14 75,-3 83,-1 58,8 23,0 24,-3 24,-10 24,-16 17,-20 15,-23 47,-105 16,-47 6,-44 9,-39 13,-34 27,-84 10,-19 31,-32 33,-32 21,-17 298,-193 15,-17 11,-26 3,-20 -4,-27 -16,-56 -57,-172 -3,-37.99995 4,-21 13,-46 18,-49"
     id="path3057"
     style="fill:none;stroke:#009ada;stroke-width:5;stroke-linecap:butt;stroke-linejoin:round;stroke-miterlimit:4;stroke-opacity:1;stroke-dasharray:none" />
  <path
     d="m 654.5,4459.5001 -5,2.5 -9.5,-6.5 -9,-2.5 -38,3 -4.5,-0.5 -2,-3.5 -1.5,-21 -2.5,-3.5 -152,8 -246.5,14 -2.5,3.5 4,80 -2,3 -8,0.5 -2.5,-2.5 -1.5,-23.5 2.5,-3 7.5,-0.5 2,-2.5"
     id="path3592"
     style="fill:none;stroke:#d31345;stroke-width:1px;stroke-linecap:butt;stroke-linejoin:miter;stroke-opacity:1" />
  <text
     x="89.453125"
     y="8174.9609"
     id="text3639"
     xml:space="preserve"
     style="font-size:144px;font-style:normal;font-weight:normal;fill:#000000;fill-opacity:1;stroke:none;font-family:Sans;-inkscape-font-specification:Sans"><tspan
       x="89.453125"
       y="8174.9609"
       id="tspan2">1975</tspan></text>
  <text
     x="89.453178"
     y="206.96094"
     id="text3639-3"
     xml:space="preserve"
     style="font-size:143.99993896px;font-style:normal;font-weight:normal;fill:#000000;fill-opacity:1;stroke:none;font-family:Sans;-inkscape-font-specification:Sans"><tspan
       x="89.453178"
       y="206.96094"
       id="tspan1">1975</tspan></text>
  <path
     d="m 655,4457.5 -8,15 -15,17 -24.5,24.5 -14.5,18.5 -10,22 -1.5,14 -1.5,44 3.5,5 32,16 8,9.5 11.5,23.5 18.5,16.5 26.5,13.5 31.5,13 70.99998,18.5 8.4307,2.2898 4.3953,-3.5028 -0.2567,-7.9395"
     id="path3594"
     style="fill:none;stroke:#d31345;stroke-width:1px;stroke-linecap:butt;stroke-linejoin:miter;stroke-opacity:1" />
  <path
     d="m 582,4554.5 -30,55 -8,20 -2.5,63 -2.5,88 4,13 37,47 23,29.5 6.5,2.5 78,-1 4,3.5 1,13 3.5,2 72.49834,-0.6776"
     id="path3602"
     style="fill:none;stroke:#d31345;stroke-width:1px;stroke-linecap:butt;stroke-linejoin:miter;stroke-opacity:1" />
  <path
     d="m 653.5,4460.5 23.5,-31.5 29.5,-42.5 25,-25.5 38,-36.5 34.99998,-29.5 137,-122.5 28.5,-21.5 14,-6.5 22.50002,-5 21,-10.5 69.5,-72 72,-74.5 38.6667,-39.3318 L 1275.5,3877 l 57.5,-58 107.5,-106.5 27.8752,-28.6088 6.684,0.1665 20.4408,20.9423 0,4.5 -7,6.5 -4.5,0 -22,-21.5 -5.5,1"
     id="path2818"
     style="fill:none;stroke:#d31345;stroke-width:1;stroke-linecap:butt;stroke-linejoin:round;stroke-miterlimit:4;stroke-opacity:1;stroke-dasharray:none" />
  <path
     d="m 1010.9,4137.3 -4.4,2.2 -22.50002,5 -14,6.5 -28.5,21.5 -137,122.5 -34.99998,29.5 -38,36.5 -25,25.5 -29.5,42.5 -23.5,31.5"
     id="path2979"
     style="fill:none;stroke:#d31345;stroke-width:5;stroke-linecap:butt;stroke-linejoin:round;stroke-miterlimit:4;stroke-opacity:1;stroke-dasharray:none" />
</svg>
