<?xml version="1.0" encoding="UTF-8" standalone="no"?>
<svg
   xmlns:dc="http://purl.org/dc/elements/1.1/"
   xmlns:cc="http://creativecommons.org/ns#"
   xmlns:rdf="http://www.w3.org/1999/02/22-rdf-syntax-ns#"
   xmlns:svg="http://www.w3.org/2000/svg"
   xmlns="http://www.w3.org/2000/svg"
   xmlns:xlink="http://www.w3.org/1999/xlink"
   version="1.1"
   width="2800"
   height="2850"
   viewBox="0, 0, 2800, 2850"
   id="svg2">
  <metadata
     id="metadata8">
    <rdf:RDF>
      <cc:Work
         rdf:about="">
        <dc:format>image/svg+xml</dc:format>
        <dc:type
           rdf:resource="http://purl.org/dc/dcmitype/StillImage" />
        <dc:title></dc:title>
      </cc:Work>
    </rdf:RDF>
  </metadata>
  <defs
     id="defs6" />
  <image
     xlink:href="../streetmap/pitosm.png"
     id="image10"
     height="2816"
     width="2816"
     y="34"
     x="0"
     style="display:none" />
  <path
     d="m 1878.7827,131.8815 -2.8284,7.7782 19.799,61.5183"
     id="path3788"
     style="fill:none;stroke:#7d0d6f;stroke-width:5;stroke-linecap:butt;stroke-linejoin:round;stroke-miterlimit:4;stroke-opacity:1;stroke-dasharray:none" />
  <path
     d="m 1895,199 26,83 -3.5,5.5 -44.5,6.5 -137.5,130 -9,5.5 -12.5,3"
     id="path3792"
     style="fill:none;stroke:#7d0d6f;stroke-width:1px;stroke-linecap:butt;stroke-linejoin:miter;stroke-opacity:1" />
  <text
     x="89.453178"
     y="206.96085"
     id="text3000"
     xml:space="preserve"
     style="font-size:143.99993896px;font-style:normal;font-weight:normal;line-height:125%;letter-spacing:0px;word-spacing:0px;fill:#000000;fill-opacity:1;stroke:none;font-family:Sans;-inkscape-font-specification:Sans"><tspan
       x="89.453178"
       y="206.96085"
       id="tspan1">1985</tspan></text>
  <text
     x="89.453125"
     y="2747.9609"
     id="text3004"
     xml:space="preserve"
     style="font-size:144px;font-style:normal;font-weight:normal;line-height:125%;letter-spacing:0px;word-spacing:0px;fill:#000000;fill-opacity:1;stroke:none;font-family:Sans;-inkscape-font-specification:Sans"><tspan
       x="89.453125"
       y="2747.9609"
       id="tspan2">1985</tspan></text>
  <path
     d="m 2614.881,310.77941 -14.8493,-26.163 -23.3345,-30.4056 -31.8198,-24.0416 -62.2255,-29.6985 -76.3675,-45.2548 -24.0417,-4.2427 -76.3675,-38.8909 -45.2548,-21.920296 -23.3345,-0.7071 -59.3971,16.263496 -78.4889,30.4056 -34.6482,32.5269 -19.0919,14.8492 -25.4558,7.0711 -19.0919,-2.1213 -25.456,-11.3137 -29.6984,-26.163 -16.2635,-10.6066 -66.468,-11.3137 -16.9706,-9.1924 -16.9706,-28.284296 -13.435,-11.3137 -14.1421,-3.5355 -72.832,15.5564 -40.3052,10.606596 -26.8701,18.3847 -63.6396,55.8615 -59.3969,49.4974 -35.3554,20.5061 -106.7732,86.9742 -10.9602,3.182"
     id="path3786"
     style="fill:none;stroke:#7d0d6f;stroke-width:5.00000095;stroke-linecap:butt;stroke-linejoin:round;stroke-miterlimit:4;stroke-opacity:1;stroke-dasharray:none" />
  <path
     style="fill:none;fill-rule:evenodd;stroke:#ee9e18;stroke-width:1px;stroke-linecap:butt;stroke-linejoin:miter;stroke-opacity:1"
     d="m 1259.1398,514.93928 6.0933,-2.79843 33.7206,-65.88536 29.6451,-59.61603 -1.0583,-3.78439 -3.7738,-2.16995 -7.5477,-3.11342 -4.7145,-1.69593 -2.694,0.77656 -28.1599,55.82866 1.8869,3.96253 13.5858,6.7929 1.1322,5.47206"
     id="path4499" />
  <path
     style="fill:none;stroke:#ec2c29;stroke-width:5;stroke-linecap:butt;stroke-linejoin:round;stroke-miterlimit:4;stroke-dasharray:none;stroke-opacity:1"
     id="path2987"
     d="m 1216.2803,694.47993 11.2196,-7.47974 5,-10.5 24.5,-156 7.5,-2 21,13 6.5,3 13.5,1 10.5,-8.5 22,-42.5 24.5,-49 6.5,-33.5 -1,-7.5 -5,-3.5 -56.5,-27.5 -39.0111,13.04048" />
  <path
     style="fill:none;stroke:#017ec0;stroke-width:5;stroke-linecap:butt;stroke-linejoin:round;stroke-miterlimit:4;stroke-dasharray:none;stroke-opacity:1"
     id="path3757"
     d="m 557.49995,2110.0002 15.5,-13.5 36,-16.5 29,-7.5 29.5,-5 19,-13 9.5,-18 10.5,-39 15.99998,-32 24.5,-38.5 27.5,-68 12.5,-15.5 45,-32 21.5,-12.5 50.5,-7.5 35.5,-9 30,-20.5 14.5,-20 -1,-16 -12,-39.5 -6,-25.5 -0.5,-40 6.5,-27.5 5,-32.5 31.99997,-29 9.5,-1.5 19,9.5 45,-5.5 43.5,-18 13.5,-11.9999 28,-36.9999 70,-81 6,-22 19,-25 19,-13 9,-8.5 16.5,-21 39.5,-27.5 6.5,-13.5 4.5,-28.5 -5.5,-16.5 -14,-15.5 -9.5,-25 3,-19.5 -0.5,-21 -3.5,-30.5 5,-25 3.5,-17.5 -11.5,-27.5 -2.0294,-23.8181 -5.4706,-18.18193 -6.5,-27 -13.5,-24.00003 -19.5222,-33.1424 -4.2421,-3.3576 -4.0085,-6.22207 1.9091,-11.23271 -2.1363,-8.54522 -10,-23 -23,-34.5 -8,-19.5 -33,-30.5 -12,-23.5 2.2738,-9.49047 21.718,-26.45842 7.0082,-5.05111 18.25,-11.5 5.5,-13.25 23.75,-152.25 c 0,0 0.75,-1.5 2.5,-1.5 l 27,15.5 18,0.5 12.5,-10 46.5,-91.5 7.5,-37 -3,-10.5 -62.75,-31.5 -43.0289,14.00494" />
  <path
     style="fill:none;stroke:#ec2c29;stroke-width:5;stroke-linecap:butt;stroke-linejoin:round;stroke-miterlimit:4;stroke-dasharray:none;stroke-opacity:1"
     id="path3759"
     d="m 955.99993,1493.0002 17,16 15.5,12.5 6,12 -2.25,6.25 -20,18 -5.5,34.5 -7,27.25 0.5,42.5 18.5,65.25 0.5,11.25 -12.25,19.25 -30.5,20.75 -33.5,8 -50.5,8 -22,12 -47.5,34 -13.5,17 -20.5,52 -4,12 -6.5,7.5 -7.5,2 -17.99998,-1 -17,5.5 -12.5,1.5" />
  <path
     style="fill:none;stroke:#017ec0;stroke-width:5;stroke-linecap:butt;stroke-linejoin:round;stroke-miterlimit:4;stroke-dasharray:none;stroke-opacity:1"
     id="path3034"
     d="m 1077.4999,2739.0002 -36,-13.5 -19,-15.5 -28.49997,-23.5 -16.5,-21.5 -13,-25.5 -8.5,-38 -29,-159 -9.5,-42.5 2,-36 12,-25 39,-54.5 7,-21.5 1.5,-21.5 -5.5,-20 -11.5,-33 -6.5,-23.5 -2.5,-27.5 -5.5,-186.5 24.5,-53.5 5,-16 v -20 l -6.5,-27.5 0.5,-36 3,-21.5 10,-34.5" />
  <path
     style="fill:none;fill-rule:evenodd;stroke:#ee9e18;stroke-width:5;stroke-linecap:butt;stroke-linejoin:round;stroke-miterlimit:4;stroke-dasharray:none;stroke-opacity:1"
     d="m 1278.9524,522.10957 2.0069,1.26244 -17.1858,-9.26519 -9.6848,4.93341 -2.3079,4.39019 -24.1526,151.89684 -3.5851,9.81197 -43.3991,26.03946 -9.4346,18.68048 -5.8494,16.60488 0.7547,6.7929"
     id="path4497" />
  <path
     d="m 1388.4046,335.52885 -11.3396,1.17113 -27.8782,9.37529 -13.7447,27.02453 -4.2221,8.09397 0.5113,3.97155 17.5223,8.82365 3.7651,-2.24479 4.558,-8.13213 20.1935,-40.96553 10.2808,-6.05697"
     id="path3790"
     style="fill:none;stroke:#7d0d6f;stroke-width:1px;stroke-linecap:butt;stroke-linejoin:miter;stroke-opacity:1" />
</svg>
