<svg xmlns="http://www.w3.org/2000/svg" width="6000" height="6100" viewBox="0 -2000 6000 6100"><path d="M2992.135 578.337l27.705-4.126h19.714l47.97 15.442 40.412 34.828 9.2 11.828 4.271 10.185 21.028 80.17 2.3 12.156-.657 17.085-2.957 17.743-26.942 89.368-3.943 23.328-1.314 17.085 2.957 26.285 6.243 74.255-4.928 190.894 1.97 13.142 3.615 7.557 5.914 8.214 9.528 6.9 93.64 63.412 22.014 38.606 12.485 12.485 2.673 11.754.284 20.281-11.992 38.278-8.543 62.59-10.514 22.507-18.235 83.619-9.2 22.013-9.528 9.529-19.713 13.142-194.509 90.026-55.526 27.927-9.2 7.886-5.914 8.871-2.3 11.828 2.628 30.228 12.157 58.155.329 13.143-3.615 21.028-17.085 26.284-26.942 24.314-13.142 12.814-37.128 61.77v9.856l3.943 8.871 17.414 12.814 8.871 16.1 2.628 43.698v87.069l-4.27 79.183 8.542 58.155-9.528 38.77v14.457l9.2 25.628 16.099 70.97 27.343 30.054M4475.037 972.756l10.514-23.657 13.142-11.828 20.371-7.557 11.828.657 101.854 30.228 35.156 4.271 28.585-.657 19.057-3.614 20.699-12.157 19.714-18.728 88.054-111.382 21.685-16.757 37.128-24.642 22.999-5.257 19.385 1.314 259.235 65.056 19.056 9.528 12.486 8.542 181.365 153.767 13.8 6.243 29.899 4.27 23.328-5.913 21.685-11.828 21.685-24.642 19.056-26.942 53.227-143.91" fill="none" stroke="#0072bc" stroke-width="5" stroke-linejoin="round"/><path d="M2971.314 2446.186l9.936-.936 19.5 3.25 11.5 5.75 13.75 7.25 10.5 14 11 19.5 7.5 26 5 9.75 8.5 9.5 12.5 7.75 12.75 3.5 14 1.25 12.75-3.25 39.75-15.75 17.5-11 17-13 13-9.75 6.5-19.75L3222 2456l8.5-12.5 22.5-17 77.5-52.5 38-22.5 27.5-9.5 52-6 22-6 50-22 9-7.5 7.5-14v-17l-10.5-32-21-72V2154l-2-32.5-5-19.5-19-46-64-73-16.5-7.5-52-16-16-13.5-9-20-5-39.5-58-338.5 13.65-90.803" fill="none" stroke="#23b24b" stroke-width="5" stroke-linejoin="round"/><path d="M3402.985 1982.538l-12.528-5.043-40.413-11.828" fill="none" stroke="#ffdc01" stroke-width="5" stroke-linejoin="round"/><path d="M2368.789 2419.673l-6.03-23.447.354-11.49 4.596-12.198 1.291-2.788 13.25-12.5 14.25-7.25 20.5-2.5h30.5l42.16 10.465 54.466 19.447 11.929 1.504 26.718-4.182 19.747-11.384 22.769-16.728 18.121-6.273 110.82-4.646 74.81.232 14.869 7.9 34.152 30.667 22.071 31.596 23 20.213 25.79 13.242 24.626 7.202" fill="none" stroke="#23b24b" stroke-width="5" stroke-linejoin="round"/><text style="line-height:125%;-inkscape-font-specification:Sans" y="-1793.03906" x="89.453133" font-weight="400" font-size="143.99993896px" font-family="Sans" letter-spacing="0" word-spacing="0"><tspan y="-1793.03906" x="89.453133">1945</tspan></text><text style="line-height:125%;-inkscape-font-specification:Sans" y="3997.9609" x="89.453133" font-weight="400" font-size="143.99993896px" font-family="Sans" letter-spacing="0" word-spacing="0"/><path d="M1280.5 2330.5l46.5-19 24.5-3.5 43.5 3.5 51 7 27.5 9 23.5 12 35 25 28 29.5 30 16.5 30 12 31 5 28 1 35-9 42.5-.5 49.5-5.5 372-22 152.5 10.5 22 2 16.5 15.5 11.5 27 3 17.5v44.342" fill="none" stroke="#23b24b" stroke-width="5" stroke-linejoin="round"/><path d="M2513.492 2093.145L2535 2115l7.5 16.5-3.5 22.5-7 13-13 15.5 1.5 10.5 26 21.5 10 10 64 25 28.5-2.5 22.697 2.929 13.614-5.654 7.294-3.07 13.436 6.141 2.303 4.607 4.223 19.962-2.235 11.387" fill="none" stroke="#ee1d23" stroke-width="5" stroke-linejoin="round"/><path d="M3348.858 1970.194l-36.77-11.667-181.726-33.588-186.676 7.425-35.002 6.01" fill="none" stroke="#0072bc" stroke-width="5" stroke-linejoin="round"/><path d="M2701.59 2337.15l-4.069-12.694 10.186-51.584-4.272-28.256-3.942-14.128-1.643-13.8 4.928-16.428 5.586-8.542 60.127-74.912 70.64-75.24 13.143-17.086 34.827-58.155 36.47-34.828 19.385-2.957 186.952-8.871 185.965 35.156 36.02 11.228" fill="none" stroke="#ffdc01" stroke-width="5" stroke-linejoin="round"/><path d="M3613.521 1905.14l13.171 2.043 23.657-4.271 68.669-24.97 188.923-69.656 29.57-14.785 35.485-19.385 14.128-15.442 52.241-62.427 18.4-29.899 45.34-87.397 157.053-218.822 23.328-32.856 124.196-147.195 17.742-28.585 8.214-19.385v-55.856l2.629-11.17 5.914-11.172 23.328-41.399 4.6-16.756 6.242-25.628v-16.1l-4.271-12.156-21.028-40.413-48.627-110.397-6.571-22.013-11.828-83.783-3.286-8.543-139.967-250.035-4.271-15.77-1.315-12.486-3.285-81.483" fill="none" stroke="#0072bc" stroke-width="5" stroke-linejoin="round"/><path d="M3401.985 1987.038l-11.278-4.543-42.413-12.078-16.321-15.592-4.928-15.114-.329-15.771 8.214-14.128 11.5-11.171 13.8-5.914 104.81-16.1 76.883 6.9 71.955 21.685" fill="none" stroke="#0072bc" stroke-width="5" stroke-linejoin="round"/></svg>