<?xml version="1.0" encoding="UTF-8" standalone="no"?>
<svg
   xmlns:dc="http://purl.org/dc/elements/1.1/"
   xmlns:cc="http://creativecommons.org/ns#"
   xmlns:rdf="http://www.w3.org/1999/02/22-rdf-syntax-ns#"
   xmlns:svg="http://www.w3.org/2000/svg"
   xmlns="http://www.w3.org/2000/svg"
   xmlns:xlink="http://www.w3.org/1999/xlink"
   viewBox="0 0 4050 3900"
   height="3900"
   width="4050"
   id="svg2"
   version="1.1">
  <metadata
     id="metadata8">
    <rdf:RDF>
      <cc:Work
         rdf:about="">
        <dc:format>image/svg+xml</dc:format>
        <dc:type
           rdf:resource="http://purl.org/dc/dcmitype/StillImage" />
        <dc:title></dc:title>
      </cc:Work>
    </rdf:RDF>
  </metadata>
  <defs
     id="defs6" />
  <image
     xlink:href="../streetmap/hfeosm.png"
     style="display:none"
     width="6020"
     height="4873.3335"
     preserveAspectRatio="none"
     id="image10"
     x="-1825"
     y="-773.3335" />
  <path
     style="opacity:0.99918;fill:none;stroke:#99d825;stroke-width:5;stroke-linejoin:round;stroke-opacity:1"
     d="m 2412.9539,2125.0109 1.7946,31.0121 5.4513,28.9664 2.2477,7.6559 9.4423,6.2749 31.3605,10.6893 173.7172,27.5393 h 15.4364 l 16.5984,-5.9479 26.566,-15.9442 23.6911,-5.2941 64.0623,-10.3019 83.6275,-10.4762 24.6652,0.3275 12.3847,3.5845 8.6179,7.7561 14.4325,39.9917 25.8898,86.8172 25.0777,130.5884 0.6522,179.1151 0.2916,19.1129 5.6247,12.7894 23.551,15.37 21.9292,18.884 6.7079,16.5528 1.7144,10.5109 -1.5886,641.8871 -6.4235,23.5204 -14.7976,20.0497 -17.2451,13.044 -11.53,5.7837 -25.1228,4.7503 -20.238,2.3233 -853.9429,-4.2219 -11.8611,5.0601 -7.3642,10.8829 -4.3042,9.9204 1.4364,205.279"
     id="path892" />
  <path
     id="path838"
     d="m 972.7966,2862.1693 156.0641,-130.9125 43.1934,-27.3015 69.2725,-28.1165 37.4887,-22.8192 27.3015,-25.2641 29.3389,-42.3784 15.8919,-41.5635 5.7048,-30.5614 -0.4075,-64.7902 1.2225,-213.9297 11.4096,-33.0063 20.7817,-31.7839 42.786,-66.8276 3.2599,-21.5967 -1.2225,-58.2704 -3.2599,-60.3078 3.6674,-18.7443 10.5946,-19.1518 20.3743,-17.1144 30.1539,-12.6321 61.9378,-9.3721 31.3763,-8.1497 28.9315,-13.447 20.7817,-18.7444 5.2973,-16.7069 -2.4449,-39.1186 -4.4823,-151.177 -0.4075,-170.3288 -7.7422,-310.9113 1.6299,-22.4117 8.5572,-17.9293 79.4596,-116.1333 157.2893,-193.148 12.6321,-11.0021 21.1892,-13.8545 24.4491,-4.0749 18.7444,-1.6299 502.0218,-13.0396 39.1186,-3.2598 48.0833,-6.5198 30.9688,-11.8171 17.9294,-1.2224 24.0416,4.0748 28.9315,17.9294 147.5096,105.1312 16.7069,5.2973 14.262,1.2224 11.4096,-6.5197 7.7422,-8.9647 28.1165,-46.4533 9.3722,-9.3722 12.2245,-6.5198 h 18.3369 l 312.1337,7.7423 30.9689,-2.8524 27.709,-11.0021 12.632,-14.262 5.2973,-13.447 4.4823,-20.7818 v -31.7838 l 4.0749,-26.0791 4.4823,-21.5967 120.2082,-261.60553 50.5282,-176.8486 9.7796,-25.67158 10.1871,-12.22455 12.6321,-5.7048 24.0416,2.44491 21.5967,3.25989 369.9967,3.25988"
     style="opacity:1;fill:none;fill-opacity:1;fill-rule:nonzero;stroke:#0f5821;stroke-width:5;stroke-linecap:butt;stroke-linejoin:round;stroke-miterlimit:4;stroke-dasharray:none;stroke-opacity:1" />
  <path
     id="path836"
     d="m 106.661,1330.4405 879.3899,-11.5255 29.9661,-5.1864 380.154,-75.9053 35.8587,-0.4075 31.7839,4.0749 31.7838,9.3721 176.4411,62.7528 41.971,6.9272 52.9731,1.2225 47.6758,-2.8524 39.5261,-9.7797 55.8254,-20.3742 263.2355,-111.651 39.9336,-8.9647 60.3078,-8.9647 46.8608,-2.4449 54.603,6.1123 26.4866,-1.6299 99.8339,-15.892 19.9667,-9.7796 12.6321,-10.5946 13.0395,-4.0749 19.1518,0.815 23.2267,-5.7048 98.2039,-39.5261 23.2267,-6.5197 22.8192,-3.6674 319.8759,1.2225 470.6455,-8.5572 283.2022,-9.7797"
     style="opacity:1;fill:none;fill-opacity:1;fill-rule:nonzero;stroke:#022082;stroke-width:5;stroke-linecap:butt;stroke-linejoin:round;stroke-miterlimit:4;stroke-dasharray:none;stroke-opacity:1" />
  <path
     id="path865"
     d="m 2736.7975,822.1883 -185.8132,269.7553 -5.2973,14.6694 -1.63,22.8192 4.0749,74.9773 5.2973,19.9668 1.2224,13.447 -6.1123,26.4865 -4.8898,76.6073 -1.2224,51.3431 13.8545,245.7136 11.4096,213.1148 6.5197,30.5614 1.63,26.894 -6.1123,22.0042 -15.8919,27.3016 -20.7818,20.7817 -18.3368,8.5572 -55.418,19.9668 -31.3764,17.1144 -16.2994,17.5218 -5.7048,20.3743 -0.4075,19.9668 4.4824,74.5698 10.5946,55.8255 0.8149,130.3952 1.2225,186.2208 2.4449,22.8192 16.2994,45.2308 15.077,20.7818 66.0126,100.2414 30.5614,28.9314 11.0021,22.8192 3.2599,31.3764 -1.2225,505.6892 -5.2973,157.2893 -2.4449,257.5307 -4.4823,17.9293 -9.3722,13.447 -14.6695,12.6321 -18.7443,6.9272 -22.4117,2.0375 -144.2498,-0.4075"
     style="opacity:1;fill:none;fill-opacity:1;fill-rule:nonzero;stroke:#ca2418;stroke-width:5;stroke-linecap:butt;stroke-linejoin:round;stroke-miterlimit:4;stroke-dasharray:none;stroke-opacity:1" />
  <text
     style="font-style:normal;font-weight:normal;font-size:143.99993896px;line-height:125%;font-family:Sans;-inkscape-font-specification:Sans;letter-spacing:0px;word-spacing:0px;fill:#000000;fill-opacity:1;stroke:none"
     xml:space="preserve"
     id="text3019"
     y="206.96088"
     x="89.453171"><tspan
       id="tspan1"
       y="206.96088"
       x="89.453171">2020</tspan></text>
</svg>
