<?xml version="1.0" encoding="UTF-8" standalone="no"?>
<svg
   viewBox="-350 -2050 5500 5950"
   height="5950"
   width="5500"
   id="svg2"
   version="1.1"
   xml:space="preserve"
   xmlns:xlink="http://www.w3.org/1999/xlink"
   xmlns="http://www.w3.org/2000/svg"
   xmlns:svg="http://www.w3.org/2000/svg"
   xmlns:rdf="http://www.w3.org/1999/02/22-rdf-syntax-ns#"
   xmlns:cc="http://creativecommons.org/ns#"
   xmlns:dc="http://purl.org/dc/elements/1.1/"><metadata
     id="metadata8"><rdf:RDF><cc:Work
         rdf:about=""><dc:format>image/svg+xml</dc:format><dc:type
           rdf:resource="http://purl.org/dc/dcmitype/StillImage" /></cc:Work></rdf:RDF></metadata><defs
     id="defs6" /><image
     xlink:href="../basemap/hfeosm.png"
     style="display:none"
     y="-2206.66"
     x="-678.33"
     id="image10"
     preserveAspectRatio="none"
     height="6306.66"
     width="5733.33" /><path
     style="fill:none;stroke:#66b0de;stroke-width:5;stroke-linejoin:round;stroke-opacity:1"
     d="m 2364.46,763.7 -49.71,-319.25 -9.2,-62.89 -10.15,-64.28 -44.36,-191.72 -7.89,-13.91 -12.41,-10.9 -11.65,-3.38 -17.67,1.5 -122.93,22.93 -29.32,4.51 -15.41,-1.88 -13.16,-9.02 -9.4,-12.03 -3.76,-17.29 v -112.03 l -5.64,-33.08 -9.77,-33.46 -32.71,-80.45 -3.76,-21.05 1.88,-24.44 18.04,-97.74 -0.75,-27.07 -26.31,-143.6 -5.64,-166.16 -8.27,-224.8 -6.39,-36.84 -55.64,-145.48 -37.59,-160.14 v -20.3 l 5.26,-16.54 37.22,-61.28 4.14,-19.17 -1.5,-18.8 -4.89,-23.31 -16.16,-56.01 -40.22,-287.96 4.51,-19.92 9.77,-13.91 11.65,-7.52 15.79,-4.14 87.21,-13.53 14.66,-6.77 12.03,-12.41 4.51,-11.28 0.75,-14.66 -18.8,-119.54"
     id="path2" /><path
     style="fill:none;stroke:#f89b09;stroke-width:5;stroke-linejoin:round;stroke-opacity:1"
     d="m 3238.2,-218.77 -111.38,366.56 -12.49,32.7 -31.1,55.82 -2.92,16.48 2.13,10.37 6.91,12.23 96.76,64.86 14.89,11.7 8.51,12.23 3.99,13.29 -0.8,17.54 -9.57,19.94 -82.14,131.05 -13.03,23.13 -26.32,68.05 -2.13,16.21 2.13,111.64 3.46,119.35 -3.72,23.92 -45.19,89.05 -2.92,21.27 -1.59,113.24 -1.86,25.52 -30.57,106.06 -12.76,49.97 -10.1,33.76 -15.15,30.57 -114.04,154.97 -10.9,15.95 -4.78,15.15 -1.86,17.28 2.39,26.32 38.28,274.86 0.8,23.39 -6.91,18.34 -10.9,10.9 -14.62,8.51 -67.25,9.04 -72.83,20.73 -45.45,16.75 -64.06,35.89 -84.8,26.05 -13.03,9.57 -25.78,32.16 -11.7,6.11 -11.7,2.92 -69.91,2.66 -89.05,6.65 -21.27,0.8 -15.15,-4.78 -13.03,-10.37 -5.85,-17.81 -3.19,-59.54 -7.97,-18.34 -17.28,-8.51 -61.13,-4.73 -122.55,-11.28 -77.89,-2.6 -238.97,-9.3 -25.52,3.19 -67.52,10.63 -38.28,1.33 -65.66,-11.7 -48.38,-1.59 -128.39,2.92 -26.58,-2.66 -32.43,-9.04 -28.71,-14.09 -133.44,-69.64 -178.1,-82.4 -25.52,-5.05 -63.53,-5.85 -20.73,0.8 -35.35,5.58 -88.78,-0.27 -138.23,-1.06 -18.61,-5.85 -14.09,-12.76 -6.38,-11.7 -3.19,-15.68 -0.8,-53.7 -8.51,-20.47 -11.96,-12.23 -10.63,-6.65 -16.21,-5.05 -365.77,5.05 -163.21,7.44 -79.21,-0.8 -60.08,-2.39 h -34.82"
     id="path1" /><path
     style="opacity:1;fill:none;stroke:#c9d701;stroke-width:5;stroke-linejoin:round;stroke-opacity:1"
     d="m 2065.51,3668.86 -0.27,-188.32 3.13,-9.04 7.14,-11.41 10.65,-9.07 15.03,-8.53 19.76,-3.31 820.6,2.76 20.24,-2.32 25.12,-4.75 11.53,-5.78 17.25,-13.04 14.8,-20.05 6.42,-23.52 0.76,-577.36 -3.16,-19.61 -8.98,-21.72 -41.14,-75.2 -5.17,-12.62 -0.53,-28.59 -0.65,-179.12 -25.08,-130.59 -30.03,-114.95 -9.05,-14.76 -9.86,-4.86 -12.38,-3.58 -24.67,-0.33 -83.63,10.48 -64.06,10.3 -23.69,5.29 -24.5,11.39 -17.84,5.12 -22.06,-0.83 -167.93,-21.34 -31.36,-10.69 -9.44,-6.27 -14.39,-18.34 -2.96,-17.56 -4.54,-74.62 0.25,-21.72 0.62,-63.21 -5.13,-12.73 -19.45,-28.41"
     id="path892" /><path
     id="path838"
     d="m 972.8,2862.17 156.06,-130.91 43.19,-27.3 69.27,-28.12 37.49,-22.82 27.3,-25.26 29.34,-42.38 15.89,-41.56 5.7,-30.56 -0.41,-64.79 1.22,-213.93 11.41,-33.01 20.78,-31.78 28.13,-43.52 11.91,-38.89 4.04,-24.81 -3.64,-123.09 2.92,-14.23 7.21,-13.51 13.23,-14.85 17.74,-6.62 92.01,-5.61 26.12,-7.02 28.93,-13.45 20.78,-18.74 5.3,-16.71 1.32,-42.13 -5.23,-150.43 -3.42,-168.07 -7.74,-310.91 1.63,-22.41 8.56,-17.93 79.46,-116.13 157.29,-193.15 12.63,-11 21.19,-13.85 24.45,-4.07 18.74,-1.63 459.54,-8.9 83.48,-5.52 46.2,-8.4 30.97,-11.82 17.93,-1.22 24.04,4.07 28.93,17.93 147.51,105.13 16.71,5.3 14.26,1.22 11.41,-6.52 7.74,-8.96 28.12,-46.45 9.37,-9.37 12.22,-6.52 h 18.34 l 312.13,7.74 30.97,-2.85 27.71,-11 11.5,-10.12 8.68,-20.59 2.22,-17.77 v -31.78 l 4.07,-26.08 4.48,-21.6 120.21,-261.61 50.53,-176.85 6.77,-15.14 12.45,-14.1 13.01,-6.45 19.53,-2.82 26.49,0.63 384.29,0.25"
     style="opacity:1;fill:none;fill-opacity:1;fill-rule:nonzero;stroke:#008633;stroke-width:5;stroke-linecap:butt;stroke-linejoin:round;stroke-miterlimit:4;stroke-dasharray:none;stroke-opacity:1" /><path
     id="path836"
     d="m 106.66,1330.44 879.39,-11.53 39.74,-3.69 367.37,-74.03 36.61,-1.54 31.78,3.32 30.65,8.99 174.56,63.5 46.86,8.81 52.59,0.84 46.18,-3.98 45.54,-11.28 52.07,-21.12 263.24,-111.65 39.93,-8.96 60.31,-8.96 46.86,-2.44 54.6,6.11 26.49,-1.63 80.66,-14.01 33.88,-13.92 50.08,-11.59 23.23,-5.7 98.2,-39.53 23.23,-6.52 22.82,-3.67 319.88,1.22 470.65,-8.56 283.2,-9.78 111.74,-4.83 24.81,-4.14 399.23,-96.61 20.3,2.63 11.65,5.64 9.02,9.4 28.19,36.09 11.65,8.27 10.9,5.26 13.91,1.5 17.29,-2.63 371.79,-67.29 16.54,-0.38 12.41,4.14 10.53,11.65 6.01,10.15 1.88,15.79 10.15,76.69 77.06,162.4 9.77,10.53 9.77,6.39 35.34,16.54 9.02,10.15 2.63,13.91 0.75,10.9 -1.88,484.57"
     style="opacity:1;fill:none;fill-opacity:1;fill-rule:nonzero;stroke:#005eaf;stroke-width:5;stroke-linecap:butt;stroke-linejoin:round;stroke-miterlimit:4;stroke-dasharray:none;stroke-opacity:1" /><path
     id="path865"
     d="m 2344.38,3774.43 144.25,0.41 28.26,-2.31 17.41,-5.34 16.53,-13.69 6.71,-16.11 0.76,-15.54 2.44,-257.53 1.23,-120.87 5.39,-30.04 -0.11,-512.07 -1.93,-20.48 -9.94,-21.23 -27.37,-33.71 -69.2,-76.85 -14.28,-21.84 -14.17,-29.02 -9.09,-32.66 0.11,-222.64 -0.81,-130.4 -10.59,-55.83 -4.48,-74.57 0.26,-21.14 1.17,-9.16 4.68,-10.04 16.3,-17.52 31.38,-17.11 55.42,-19.97 33.23,-10.95 19.72,-13.34 10.47,-14.05 5.69,-15.11 2.12,-12.96 -1.1,-15.73 -17.15,-53.95 -11.41,-213.11 -13.85,-245.71 1.22,-51.34 0.9,-74.75 7.17,-26.22 -1.75,-28.07 -10.08,-31.93 0.18,-43.61 5.62,-29.73 5.3,-14.67 72.26,-100.42 117.01,-173.59 18.28,-32.26 2.26,-10.9 -0.75,-12.78 -3.76,-13.16 -5.26,-8.65 -10.15,-9.4 -15.79,-7.89 -45.86,-18.42 -9.02,-7.52 -4.51,-10.15 0.75,-11.28 6.01,-21.05 56.76,-192.47 9.77,-23.68 70.3,-113.15 19.17,-44.73"
     style="opacity:1;fill:none;fill-opacity:1;fill-rule:nonzero;stroke:#df0711;stroke-width:5;stroke-linecap:butt;stroke-linejoin:round;stroke-miterlimit:4;stroke-dasharray:none;stroke-opacity:1" /><text
     style="font-style:normal;font-weight:normal;font-size:144px;line-height:125%;font-family:Sans;-inkscape-font-specification:Sans;letter-spacing:0px;word-spacing:0px;fill:#000000;fill-opacity:1;stroke:none"
     xml:space="preserve"
     id="text3019"
     y="-1843.04"
     x="-260.55"><tspan
       id="tspan1"
       y="-1843.04"
       x="-260.55">2025</tspan></text><path
     style="fill:none;stroke:#f89b09;stroke-width:5;stroke-linejoin:round;stroke-opacity:1"
     d="m 553.7,1786.57 -17.54,5.05 -13.03,9.57 -9.3,14.62 -3.46,14.35 2.92,283.63 -6.11,173.05 -6.65,31.9 -9.3,23.66 -6.91,15.95 -11.7,10.1 -11.96,6.91 -17.54,2.66 -318.72,-0.27 -17.28,3.99 -14.35,8.77 -14.62,17.28 -40.67,46.52 -19.94,15.68 -31.63,17.28 -141.95,63 -17.01,14.62 -7.71,15.15 -4.25,16.48 1.59,15.15 36.42,84 1.33,11.96 1.86,42.53 5.32,17.01 10.37,12.23 14.09,10.9 18.34,4.25 19.4,0.27 39.08,0.27"
     id="path3" /><text
     x="-260.55"
     y="3797.96"
     id="text3870"
     xml:space="preserve"
     style="font-style:normal;font-weight:normal;font-size:144px;line-height:125%;font-family:Sans;-inkscape-font-specification:Sans;letter-spacing:0px;word-spacing:0px;fill:#000000;fill-opacity:1;stroke:none"><tspan
       x="-260.55"
       y="3797.96"
       id="tspan2">2025</tspan></text></svg>
