<?xml version="1.0" encoding="UTF-8" standalone="no"?>
<svg
   xmlns:dc="http://purl.org/dc/elements/1.1/"
   xmlns:cc="http://creativecommons.org/ns#"
   xmlns:rdf="http://www.w3.org/1999/02/22-rdf-syntax-ns#"
   xmlns:svg="http://www.w3.org/2000/svg"
   xmlns="http://www.w3.org/2000/svg"
   xmlns:xlink="http://www.w3.org/1999/xlink"
   id="svg2"
   viewBox="0, 0, 5445, 6432.3301"
   height="6432.3301"
   width="5445"
   version="1.1">
  <metadata
     id="metadata8">
    <rdf:RDF>
      <cc:Work
         rdf:about="">
        <dc:format>image/svg+xml</dc:format>
        <dc:type
           rdf:resource="http://purl.org/dc/dcmitype/StillImage" />
        <dc:title></dc:title>
      </cc:Work>
    </rdf:RDF>
  </metadata>
  <defs
     id="defs6" />
  <image
     xlink:href="osm.png"
     x="-1297.8438"
     y="2007.7698"
     width="1397.76"
     height="838.65601"
     id="image3076"
     style="display:none" />
  <path
     style="fill:none;stroke:#867a01;stroke-width:5;stroke-linecap:butt;stroke-linejoin:round;stroke-miterlimit:4;stroke-opacity:1;stroke-dasharray:none"
     id="path3777"
     d="m 2031.5,2462.83 -1,196 0.5,36.5 11,27.5 18.5,27.5 15,14 10,24.5 0.5,26.5" />
  <image
     xlink:href="../streetmap/laxosm.png"
     style="display:none"
     id="image10"
     height="6432.3335"
     width="4195"
     y="49.996506"
     x="1350" />
  <path
     style="fill:none;stroke:#176fc0;stroke-width:5;stroke-linecap:butt;stroke-linejoin:round;stroke-miterlimit:4;stroke-opacity:1;stroke-dasharray:none"
     id="path3769"
     d="m 3268,2025.83 -2.1108,29.4588 -3.7125,5.3036 -26.5179,7.425 -11.6679,-6.3643 -118.2697,-93.3429 -13.259,-3.1821 -15.9107,5.3035 -17.5018,23.3358 -140.0144,181.3822" />
  <path
     style="fill:none;stroke:#fab20b;stroke-width:5;stroke-linecap:butt;stroke-linejoin:round;stroke-miterlimit:4;stroke-opacity:1;stroke-dasharray:none"
     id="path3771"
     d="m 3316.7322,2071.2289 -41.2522,-5.6253 -11.5007,-0.5 -27.4793,6.7264 -6,-1.5 -10.5,-5.5 -115,-92 -12.25,-3.25 -13,4 -157,204.75" />
  <path
     style="fill:none;stroke:#ed1c24;stroke-width:5;stroke-linecap:butt;stroke-linejoin:round;stroke-miterlimit:4;stroke-opacity:1;stroke-dasharray:none"
     id="path2987"
     d="m 1495,214.33 200,403 7,21 -2,12 -11,23 -24,57 -7,20 0,18 8,22 138,300 52,127 9,19 12,11 18,8 672,-2 9,2 10,8 -2,388 2,178 6,14 14,13 13,8 58,-1 16,7 53,34 13,10 9,15 16,11 38,22 126,68 30,16 31,18 43,37 11,-1 60,-78 33,-44 27,-31 14,-12 17,-7 25,-2 30,2 28,5 13,17 14,26" />
  <path
     style="fill:none;stroke:#9e46a9;stroke-width:5;stroke-linecap:butt;stroke-linejoin:round;stroke-miterlimit:4;stroke-opacity:1;stroke-dasharray:none"
     id="path3757"
     d="m 3319.5,1978.83 -12.5,-25 -14,-17 -23,-3.5 -32.5,-2 -22.5,2 -16,5.5 -15.0429,13.9001 -23.9571,28.5999 -28.5,38.5 -65,83.5 -11.5,3 -6.5,-1.5 -45,-38.5 -65,-35.5 -156,-85.5 -12.5,-9 -6.5,-5 -6,-11 -5.5,-5.5 -14,-10 -45.5,-29 -16.5,-7.5 -56,1 -6.5,-2.5 -12,-9 -8.5,-7 -17,-8 -8.5,-2 -21,8.5 -11.5,5.5 -16.5,9.5 -12.5,5 -152,-0.5 -193.5,-2 -262,-7 -145.5,-2.5 -61.5,-8.5" />
  <path
     style="fill:none;stroke:#176fc0;stroke-width:5;stroke-linecap:butt;stroke-linejoin:round;stroke-miterlimit:4;stroke-opacity:1;stroke-dasharray:none"
     id="path3759"
     d="m 3835,1114.33 32,-17 19,-5 13,2 79,27 16,4 17,2 49,-10 48,-14 19,-8 108,-9 19,-3 20,-21 34,-36 60,-54 8,-12 3,-17 -2,-31 5,-11 28,-30 2,-17 0,-275 -1,-22 26,-66 14,-8 120,0 100,2 65,-9 15,1 322,-5 30,1 27,9 21,13 12,10 33,27 20,8 25,5 19,1 21,-3 30,0 87.5,-12 146.5,1" />
  <path
     style="fill:none;stroke:#176fc0;stroke-width:5;stroke-linecap:butt;stroke-linejoin:round;stroke-miterlimit:4;stroke-opacity:1;stroke-dasharray:none"
     id="path3761"
     d="m 3711.5,1189.33 -13.5,23 -9,24 3,35 -5,17 -15,17 -25,17 -7,10 -4,12 -16,23 -12,13 -2,20 2,34 -7,22 -21,27 -54,61 -59,51 -14,15 -15,33 -17,63 -11,12 -19,11 -49,22 -25,22 -13,31 -13,45 2,15 11,12 19,13 2,14 -9,27 -6.5,18.5 -3,22 -3.5,17.5 -3.5,6 -6,1.5 -18.5,-3 -5.5,4 -1.5,29" />
  <path
     style="fill:none;stroke:#176fc0;stroke-width:1;stroke-linecap:butt;stroke-linejoin:round;stroke-miterlimit:4;stroke-opacity:1;stroke-dasharray:none"
     id="path2988"
     d="m 3836.5,1113.33 -117,70.5 -9.5,8.5" />
  <path
     style="fill:none;stroke:#fab20b;stroke-width:1px;stroke-linecap:butt;stroke-linejoin:round;stroke-opacity:1"
     id="path2990"
     d="m 3275,2064.33 104,16.5 38,4 33,2.5" />
  <path
     style="fill:none;stroke:#fab20b;stroke-width:5;stroke-linecap:butt;stroke-linejoin:round;stroke-miterlimit:4;stroke-opacity:1;stroke-dasharray:none"
     id="path2992"
     d="m 3448.5,2086.83 54,4 11,1 77.5,43 16.5,-0.5 23,12.5 182.5,98" />
  <path
     style="fill:none;stroke:#fab20b;stroke-width:1px;stroke-linecap:butt;stroke-linejoin:round;stroke-opacity:1"
     id="path3762"
     d="m 3809.5,2242.83 38,20.5 2,4.5 0,33 5,4 293,0 168,-1.5" />
  <path
     style="fill:none;stroke:#176fc0;stroke-width:1px;stroke-linecap:butt;stroke-linejoin:round;stroke-opacity:1"
     id="path3766"
     d="M 2920.9393,2172.7693 2902,2201.33 l -8,15 -21.5,40 -18.5,35.5 0,6 41,23.5 78.5,43 141.5,80.5 72.5,48.5 12,7.5 4.5,10" />
  <path
     style="fill:none;stroke:#176fc0;stroke-width:5;stroke-linecap:butt;stroke-linejoin:round;stroke-miterlimit:4;stroke-opacity:1;stroke-dasharray:none"
     id="path3768"
     d="m 3883.5,5779.33 -42,-105.5 -23,-62.5 -7.5,-14 -62.5,-111 -32,-59 -35,-82.5 -16,-46 -29,-80 -15,-45 -33.5,-92.5 -35,-104.5 -81.5,-235.5 -9.5,-31.5 -3.5,-16.5 -4,-74 -10.5,-196 -5.5,-99 -1.5,-15 -3.5,-17.5 -76.5,-176 -42.5,-99 -88,-201 -17,-40.5 -4.5,-17.5 -4,-46 -0.5,-423.5 0,-276 0,-179 2.9003,-321.0169 L 3201,2504.33" />
  <path
     style="fill:none;stroke:#176fc0;stroke-width:1px;stroke-linecap:butt;stroke-linejoin:round;stroke-opacity:1"
     id="path3770"
     d="m 3882,5777.33 4.5,14.5 0.5,243 -0.5,146 0.5,187 -3,5 -50,0.5 -3.5,-3 1,-123.5 6,-4.5 45.5,-0.5 4,-3.5" />
  <path
     style="fill:none;stroke:#66c657;stroke-width:5;stroke-linecap:butt;stroke-linejoin:round;stroke-miterlimit:4;stroke-opacity:1;stroke-dasharray:none"
     id="path3763"
     d="m 4984,4132.33 -56,7 -54,-2 -61,2 -141,11 -60,1 -153,-1 -40,2 -170,19 -86,8 -62,3 -50,-10 -38,-13 -54,-23 -103,-46 -67,-35 -133,-69 -76,-42 -68,-35 -31,-11 -31,-2 -28,2 -51,14 -27,7 -105,-4 -38,-4 -59,-3 -37,4 -43,8 -44,7 -55,-1 -89,2 -43,-3 -58,-13 -46,-2 -85,2 -57,-3 -41,2 -181,47 -24,3 -79,-2 -66,0 -46,3 -44,6 -35,3 -33,-4 -24,-7 -25,-15 -24,-19 -93,-70 -21,-9 -22,-9 -22,-3 -29,-1 -37,11 -44,17 -56,20 -21,7 -23,2 -60,-1 -26,6 -18,0 -8.5,-15 -0.5,-238.5" />
  <text
     style="font-size:144px;font-style:normal;font-weight:normal;line-height:125%;letter-spacing:0px;word-spacing:0px;fill:#000000;fill-opacity:1;stroke:none;font-family:Sans;-inkscape-font-specification:Sans"
     xml:space="preserve"
     id="text2996"
     y="6330.291"
     x="89.453125"><tspan
       id="tspan2"
       y="6330.291"
       x="89.453125">2020</tspan></text>
  <text
     style="font-size:143.99993896px;font-style:normal;font-weight:normal;line-height:125%;letter-spacing:0px;word-spacing:0px;fill:#000000;fill-opacity:1;stroke:none;font-family:Sans;-inkscape-font-specification:Sans"
     xml:space="preserve"
     id="text2996-6"
     y="206.96094"
     x="89.453178"><tspan
       id="tspan1"
       y="206.96094"
       x="89.453178">2020</tspan></text>
  <path
     style="fill:none;stroke:#fab20b;stroke-width:1px;stroke-linecap:butt;stroke-linejoin:round;stroke-opacity:1"
     id="path3773"
     d="m 2922.6611,2176.6078 -19.4454,25.4559 -49.8511,95.8129 -126.2185,230.5169 -9.546,6.3639 -32.1733,2.4749 -380.4235,-2.1213" />
  <path
     style="fill:none;stroke:#fab20b;stroke-width:5;stroke-linecap:butt;stroke-linejoin:round;stroke-miterlimit:4;stroke-opacity:1;stroke-dasharray:none"
     id="path3775"
     d="m 2305.3569,2534.7574 -41.0122,-4.2426 -82.7315,-20.8597 -141.4214,-38.1837 -78.4888,-13.7886 -163.3417,-19.799 -104.2982,-10.9602 -113.4907,-13.0814 -331.6331,-36.416 L 1086,2358.33 l -17,-6 -29,-12.5 -10.5,-13 -17,-9.5 -13,-12 -16.5,-35 -15,-13.5 -19,-11 -26,1.5 -78,12.5 -111.5,22 -145.5,34 -146.5,36.5 -66.5,17 -49.5,18.5 -71.5,30 -56,33.5" />
  <path
     style="fill:none;stroke:#867a01;stroke-width:1px;stroke-linecap:butt;stroke-linejoin:round;stroke-opacity:1"
     id="path3779"
     d="m 2085.5,2812.83 0.5,229.5" />
  <path
     style="fill:none;stroke:#867a01;stroke-width:6;stroke-linecap:butt;stroke-linejoin:round;stroke-miterlimit:4;stroke-opacity:1;stroke-dasharray:none"
     id="path3781"
     d="m 2086,3037.83 -0.5,111.5 -6,13.5 -109.5,61 -113,63.5 -24.5,15.5 -9.5,17 -13,16 -19,10 -21.5,3 -25,-5.5 -15,-6.5 -59,-2 -161.5,74.5 -19.5,20 -12,29.5 -1,30 0,130.5 0.5,263.5" />
  <path
     style="fill:none;stroke:#867a01;stroke-width:5;stroke-linecap:butt;stroke-linejoin:round;stroke-miterlimit:4;stroke-opacity:1;stroke-dasharray:none"
     id="path3783"
     d="m 1611,4442.33 -197,-180 -14,-16 -6,-14 -2,-98 -3,-15 -8,-10 -13,-16 -4,-14 3,-152 11,-10 54,-23 30.0333,1.0181 L 1477,3879.33" />
  <path
     style="fill:none;stroke:#fab20b;stroke-width:1px;stroke-linecap:butt;stroke-linejoin:round;stroke-opacity:1"
     id="path3107"
     d="m 199,2449.83 -28.5,23.5 -127,122 -3.5,11.5" />
  <path
     d="m 241.99999,1467.8299 0.5,14 4,9 -6,13 4,15.5 -3.5,17 6.5,16 -5.5,19.5 5,31.5 4,13"
     id="path3894"
     style="fill:none;stroke:#000000;stroke-width:5;stroke-linecap:butt;stroke-linejoin:round;stroke-miterlimit:4;stroke-dasharray:none;stroke-opacity:1" />
</svg>
