<svg xmlns="http://www.w3.org/2000/svg" height="1300" width="1150"><path d="m257.41 1174.01 18.7-120.81-5.27-7.67-101.63-55.13-22.05-5.75-4.31-3.36-1.44-6.23 5.27-9.59 34.52-28.76 16.78-39.79 37.87-53.21 26.85-24.45 90.13-139.5 111.7-93.48 214.2-190.52 22.37-14.91L750.76 350" style="opacity:1;fill:none;fill-opacity:.4;fill-rule:nonzero;stroke:#fa5b09;stroke-width:5;stroke-linecap:butt;stroke-linejoin:round;stroke-miterlimit:4;stroke-dasharray:none;stroke-opacity:1"/><path d="M661.27 410.51h14.41l22.71-16.61-3.73-8.31" style="opacity:1;fill:none;fill-opacity:.4;fill-rule:nonzero;stroke:#fa5b09;stroke-width:5;stroke-linecap:butt;stroke-linejoin:round;stroke-miterlimit:4;stroke-dasharray:none;stroke-opacity:1"/><path d="m750.76.14.92-12.37 85.76-91.19 27.75-24.27 17.98-116.73 3.6-2.16 65.44 10.55 4.07 3.84 54.89 6.95 2.16 2.4-5.51 44.1-2.4 2.16-9.35-.96-6.95 1.2-3.6 2.88-3.6 5.75-1.2 6.95-1.68 1.44-19.42-2.4-1.92-2.88 8.63-63.28-1.92-3.36" style="opacity:1;fill:none;fill-opacity:.4;fill-rule:nonzero;stroke:#fa5b09;stroke-width:1;stroke-linecap:butt;stroke-linejoin:round;stroke-miterlimit:4;stroke-dasharray:none;stroke-opacity:1"/><path d="m879.19 222.17 8.39-7.43 8.39-14.38 17.5-28.76 16.3-17.98 8.87-3.84 14.14-12.94 9.35-0.24.07-2.4 1.68-13.18 2.4-3.36" style="opacity:1;fill:none;fill-opacity:.4;fill-rule:nonzero;stroke:#fa5b09;stroke-width:1;stroke-linecap:butt;stroke-linejoin:round;stroke-miterlimit:4;stroke-dasharray:none;stroke-opacity:1"/><text x="89.45" y="206.96" xml:space="preserve" style="font-style:normal;font-weight:400;font-size:144px;line-height:125%;font-family:Sans;-inkscape-font-specification:Sans;letter-spacing:0;word-spacing:0;fill:#000;fill-opacity:1;stroke:none"><tspan x="89.45" y="206.96">2020</tspan></text></svg>