<?xml version="1.0" encoding="UTF-8" standalone="no"?>
<!-- Created with Inkscape (http://www.inkscape.org/) -->

<svg
   xmlns:dc="http://purl.org/dc/elements/1.1/"
   xmlns:cc="http://creativecommons.org/ns#"
   xmlns:rdf="http://www.w3.org/1999/02/22-rdf-syntax-ns#"
   xmlns:svg="http://www.w3.org/2000/svg"
   xmlns="http://www.w3.org/2000/svg"
   xmlns:xlink="http://www.w3.org/1999/xlink"
   version="1.1"
   width="3600"
   height="2750"
   viewBox="0, 0, 3600, 2750"
   id="svg2">
  <metadata
     id="metadata8">
    <rdf:RDF>
      <cc:Work
         rdf:about="">
        <dc:format>image/svg+xml</dc:format>
        <dc:type
           rdf:resource="http://purl.org/dc/dcmitype/StillImage" />
        <dc:title></dc:title>
      </cc:Work>
    </rdf:RDF>
  </metadata>
  <defs
     id="defs6" />
  <image
     xlink:href="../basemap/kbposm.png"
     style="display:none"
     id="image10"
     height="2365"
     width="3655"
     y="150"
     x="0" />
  <path
     d="m 441.48,1221.33 13.97,-1.59 186.18,-19.99 49.96,-5.26 18.93,1.05 34.19,8.41 170.23,39.81 25.38,10.07 114.16,30.59 140.42,43.65 94.14,32.61 25.77,11.04 23.14,14.2 22.09,21.56 20.51,25.24 25.24,32.61 15.25,10.52 25.24,4.21 22.61,1.05 75.43,-23.09 18.05,-7.92 18.65,-12.68 20.27,-4.06 47.36,-0.48 26.94,-10.68 21.04,-8.41 24.13,-23.76 24.89,-7.06 22.5,-3.89 22.77,2.7 26.08,2.7 90.53,31.42 158.7,65.16 22.22,0.58 19.99,-7.36 96.25,-42.07 31.03,-7.36 27.35,-16.3 124.65,-54.17 293.47,-126.75 101.5,-31.03 21.55,-10.58"
     id="path3778"
     style="fill:none;stroke:#ff0000;stroke-width:5;stroke-linecap:butt;stroke-linejoin:round;stroke-miterlimit:4;stroke-opacity:1;stroke-dasharray:none" />
  <text
     x="89.45"
     y="206.96"
     id="text3790"
     xml:space="preserve"
     style="font-size:144px;font-style:normal;font-weight:normal;line-height:125%;letter-spacing:0px;word-spacing:0px;fill:#000000;fill-opacity:1;stroke:none;font-family:Sans;-inkscape-font-specification:Sans"><tspan
       x="89.45"
       y="206.96"
       id="tspan1">1975</tspan></text>
</svg>
