<svg xmlns="http://www.w3.org/2000/svg" width="3600" height="2700"><path d="M1654.276 1368.196L1662 1377l18.5 27.5 8 21 21 69.5 14.5 22 18 9 15.5 4.5 42.5 4 21 3 14.5 5 14 13 11.5 20.5 10 20 37.5 86.5 20.5 47.5 38.5 98.5 31.5 50 33 62 28.5 67 11 24 9.5 13 39 39 28 29 96 57 16.5 5.5 19.5 2 273.5 21 21.5-3 90-19 353.418-84.344" fill="none" stroke="#08ad08" stroke-width="5" stroke-linejoin="round"/><path d="M1513.5 215.5l-4 217.5-5.5 363 2 38.5 2 55 3 17.5 14.5 26 18 22.5L1649 1061l18.5 31 24 27 13.5 16 13.5 16.5 48 50.5 3 11.5 1 15.5-6 138.5-6.5 21-14 40-10.5 21.5-19 25-28.5 30-4.5 11.5.5 103.5 5 58 13.5 38.5 52 133 10.5 37 4 32" fill="none" stroke="#0063ce" stroke-width="5" stroke-linejoin="round"/><path d="M441.48 1221.326l13.975-1.585 186.179-19.986 49.963-5.259 18.934 1.052 34.185 8.415 309.773 80.467 140.423 43.652 94.141 32.608 25.77 11.044 23.142 14.2 22.089 21.564 20.511 25.244 25.245 32.608 15.252 10.518 25.244 4.208 22.615 1.052 41.549-18.408 46.281-23.667 32.608-8.94 59.956-3.682 26.296-4.207 21.038-8.415 30.504-19.46 18.933-9.992 22.09-5.26 19.984 3.682 119.386 33.133 32.082 7.363 31.556 5.786 49.963 23.667 32.082 18.933 17.882 8.94 17.355 1.053 19.986-7.363 96.245-42.075 31.03-7.363 27.348-16.304 124.645-54.17 293.469-126.75 101.504-31.03 28.926-14.2 47.86-20.51 39.445-25.771 62.585-26.297" fill="none" stroke="red" stroke-width="5" stroke-linejoin="round"/><path d="M1432 1401.5l-11.5-3.5-14 .5-14 1.5-21.5-5.5-58.5-15.5-18.5-3.5-25.5 1-42.5 12.5-64 18.5-18 .5-72-15-14 1-823.883 331.047-7.617-3.547" fill="none" stroke="#87cbc8" stroke-width="5" stroke-linejoin="round"/><path d="M400.5 1659l4.5 11-2.5 19-18.5 63.5-8.5 10-14.5 14-.5 6.5 3 8 79.5 59.5 11.5 4.5 22.5 10 12 10 6.5 10.5 7 14 5 19.5 6.06 9.21L520 1938l12 16 17 14.5 19 11.5 11.939 4.558" fill="none" stroke="#87cbc8" stroke-linejoin="round"/><path d="M1431 1401l9.5 5 8.5 4.5.5 6-34.5 23" fill="none" stroke="#87cbc8" stroke-width="1px" stroke-linejoin="round"/><text x="89.453178" y="206.96094" style="line-height:125%;-inkscape-font-specification:Sans" font-size="143.99993896px" font-weight="400" letter-spacing="0" word-spacing="0" font-family="Sans"><tspan x="89.453178" y="206.96094">1995</tspan></text><path d="M1448.862 1411.167l24.748 35.002 5.657.707 12.728-7.425 5.304 1.414 26.87 37.83 54.093 65.054 37.83 11.668h85.207l2.121-3.89v-28.99l41.72-29.7 3.889 1.061 3.889 5.657-.707 3.89-18.739 13.08-4.596-1.414-3.889-5.656-2.475-.354" fill="none" stroke="#87cbc8" stroke-width="1px" stroke-linejoin="round"/></svg>