<svg xmlns="http://www.w3.org/2000/svg" height="2700" width="3600"><path style="fill:none;stroke:#08ad08;stroke-width:5;stroke-linecap:butt;stroke-linejoin:round;stroke-miterlimit:4;stroke-opacity:1;stroke-dasharray:none" d="m843 935.5 33.5-4.01.5-0.53.5 8 41 20 34 14 27 9 133 30.52.6.5 166 121 12 13.5 33.55.12.53.15.5 13.5 27.5 9.5 39 8 58.5 6 26 7 18 13 30.5 35.5 46.55.18.5 27.5 8 21 21 69.5 14.5 22 18 9 15.5 4.5 42.5 4 21 3 14.5 5 14 13 11.5 20.5 10 20 37.5 86.5 20.5 47.5 38.5 98.5 31.5 50 33 62 28.5 67 11 24 9.5 13 39 39 28 29 96 57 16.5 5.5 19.52.273.52.21.5-3 90-19 385.5-92.01.5-23.5 36-.5 34.5 2.56.1.5 14.5-1.02.5-9.5 57-48.5 60.5-45.5"/><path style="fill:none;stroke:#0063ce;stroke-width:5;stroke-linecap:butt;stroke-linejoin:round;stroke-miterlimit:4;stroke-dasharray:none;stroke-opacity:1" d="m1513.5 215.5-4.02.5-5.5 363 2 38.5 2 55 3 17.5 14.5 26 18 22.5L1649 1061l18.5 31 24 27 13.52.13.5 16.55.50.53.11.51.15.5-6.01.5-6.5 21-14 40-10.5 21.5-19 25-28.5 30-4.5 11.5.5103.5 5 58 13.5 38.5 52 133 10.5 37 4 32-3 22-10.5 18-16.5 19-26.5 20.5-16.02.5-9.03.5-21.5 42-31 40.5-18.02.5-44 22-56.5 19.5-127 33-20.07 17-66.27 159.39-7.75 10.34-56.85 41.35-163.67 172.28"/><path style="fill:none;stroke:red;stroke-width:5;stroke-linecap:butt;stroke-linejoin:round;stroke-miterlimit:4;stroke-opacity:1;stroke-dasharray:none" d="m105.71 1105.09 8.94 73.1 12.1 33.66 15.25 16.3 17.36 8.41 49.44 8.94h19.46l227.2-25.77 186.18-19.99 49.96-5.26 18.93 1.05 34.19 8.41 309.77 80.47 140.42 43.65 94.14 32.61 25.77 11.04 23.14 14.2 22.09 21.56 20.51 25.24 25.24 32.61 15.25 10.52 25.24 4.21 22.61 1.05 41.55-18.41 46.28-23.67 32.61-8.94 59.96-3.68 26.3-4.21 21.04-8.41 30.5-19.46 18.93-9.99 22.09-5.26 19.99 3.68 119.39 33.13 32.08 7.36 31.56 5.79 49.96 23.67 32.08 18.93 17.88 8.94 17.36 1.05 19.99-7.36 96.25-42.07 31.03-7.36 27.35-16.3 124.65-54.17 293.47-126.75 101.5-31.03 28.93-14.2 47.86-20.51 39.44-25.77 62.59-26.3"/><path style="fill:none;stroke:#87cbc8;stroke-width:5;stroke-linecap:butt;stroke-linejoin:round;stroke-miterlimit:4;stroke-opacity:1;stroke-dasharray:none" d="m1432 1401.5-11.5-3.5-14 .5-14 1.5-21.5-5.5-58.5-15.5-18.5-3.5-25.5 1-42.5 12.5-64.02.5-18 .5-72-15-14 1-823.88 331.05-7.62-3.55"/><path style="fill:none;stroke:#87cbc8;stroke-width:1;stroke-linecap:butt;stroke-linejoin:round;stroke-miterlimit:4;stroke-opacity:1;stroke-dasharray:none" d="m400.52.4.5 11-2.5 19-18.5 63.5-8.5 10-14.5 14-.5 6.5 3 8 79.5 59.5 11.5 4.5 22.5 10 12 10 6.5 10.5 7 14 5 19.5 12.5 19 12 16 17 14.52.11.5 27.5 10.53.3.5"/><path style="fill:none;stroke:#87cbc8;stroke-width:1px;stroke-linecap:butt;stroke-linejoin:round;stroke-opacity:1" d="m1431 1401 9.55.8.5 4.5.5 6-34.5 23"/><text style="font-size:144px;font-style:normal;font-weight:400;line-height:125%;letter-spacing:0;word-spacing:0;fill:#000;fill-opacity:1;stroke:none;font-family:Sans;-inkscape-font-specification:Sans" xml:space="preserve" y="206.96" x="89.45"><tspan y="206.96" x="89.45">2015</tspan></text><path style="fill:none;stroke:#87cbc8;stroke-width:5;stroke-linecap:butt;stroke-linejoin:round;stroke-miterlimit:4;stroke-opacity:1;stroke-dasharray:none" d="m2250.5 659 3-25 10.5-35 15-40 11-23 35-44.5 42.5-44 41-23.5 73.5-37.5 21.5-14.5 24-23.5 39-58 13-32.5 6.5-27.5 6-74.5 4-53 2.5-34"/><path style="fill:none;stroke:#87cbc8;stroke-width:1px;stroke-linecap:butt;stroke-linejoin:round;stroke-opacity:1" d="m2597.5 69.5 7-7.54.2.51.10.5 23 32 10 15.5 10.5 7 10-.5 6.5-1.5 17.5-7.5 29.5 2 19 2 4 5.5-8 106-6 49.5-18 60-21 45-24 38v5.5l3.5 2"/></svg>