<?xml version="1.0" encoding="UTF-8" standalone="no"?>
<svg
   xmlns:dc="http://purl.org/dc/elements/1.1/"
   xmlns:cc="http://creativecommons.org/ns#"
   xmlns:rdf="http://www.w3.org/1999/02/22-rdf-syntax-ns#"
   xmlns:svg="http://www.w3.org/2000/svg"
   xmlns="http://www.w3.org/2000/svg"
   xmlns:xlink="http://www.w3.org/1999/xlink"
   version="1.1"
   width="7600"
   height="16200"
   viewBox="0, 0, 7600, 16200"
   id="svg2">
  <metadata
     id="metadata8">
    <rdf:RDF>
      <cc:Work
         rdf:about="">
        <dc:format>image/svg+xml</dc:format>
        <dc:type
           rdf:resource="http://purl.org/dc/dcmitype/StillImage" />
        <dc:title></dc:title>
      </cc:Work>
    </rdf:RDF>
  </metadata>
  <defs
     id="defs6" />
  <image
     style="display:none"
     x="0"
     y="2180"
     width="6955"
     height="6420"
     id="image10"
     xlink:href="file:///home/alexander/timelines/timelines/sel/../streetmap/selosm.png" />
  <path
     d="m 3796,4505.9999 15,17.5 82,128 65,44 38,33.5 40,36.5 22.5,39 25,18.5 74,32.5 44,27 73.9493,45.498 46.6005,15.927 53.0892,16.516 18.8761,12.388 18.8762,28.314 4.719,24.185 -57.2184,52.499"
     id="path3933"
     style="fill:none;stroke:#6bc1a4;stroke-width:5;stroke-linecap:butt;stroke-linejoin:round;stroke-miterlimit:4;stroke-dasharray:none;stroke-opacity:1" />
  <path
     d="m 2331.2994,4328.4839 -102.33,85.106 -9.1185,25.329 -2.0263,30.395 8.1053,22.29 82.0666,80.04 37.4873,12.158 74.9744,7.093 37.4872,-2.027 22.2897,-17.224 25.3292,-32.421 20.2633,-18.237 37.4873,-15.198 126.6459,10.132 50.6584,-8.105 110.4353,-16.211 17.2239,2.026 262.4105,178.318 9.1185,80.04 35.4609,22.29 47.6189,40.527 34.4477,4.052 53.6979,-2.026 30.395,3.039 19.2502,25.33 29.3819,59.777 14.1843,14.184 22.2897,7.092 14.1844,-2.026 36.474,17.224 159.0674,103.343 33.4345,10.131 31.4082,2.027 34.4477,2.026 26.3424,9.119 25.3292,35.46 102.33,129.686 37.4872,51.671 60.7901,50.659 18.237,5.066 58.7637,-4.053 52.6848,-4.053 29.3818,1.014 43.5662,12.158 79.0271,-2.027 52.6848,24.316 40.5267,54.711 71.9349,32.422 31.4082,2.026 102.33,60.79 38.5004,11.145 33.4345,-11.145 206.6863,-69.908 20.2633,-5.066 23.3029,3.039 60.7901,17.224 34.4477,16.211 28.3687,16.211 25.3292,-2.027 58.7637,-22.29 344.239,-132.837 153,-33 37,-5 13,0.5 12.5,4 19.5,17.5 7,17 5.5,39"
     id="path3002"
     style="fill:none;stroke:#9f8e63;stroke-width:5;stroke-linecap:butt;stroke-linejoin:round;stroke-miterlimit:4;stroke-dasharray:none;stroke-opacity:1" />
  <path
     d="m 6347.4971,4760.0939 -86.1193,308.003 -99.2905,204.659 -135.7645,62.817 -2.0263,13.171 8.1053,21.277 160.0806,222.897 50.6584,71.934 19.2502,41.54 78.0139,187.436 0,48.632 -5.0658,68.896 9.1185,26.342 26.3423,12.158 185.4098,103.343 58.7637,40.527 41.5399,20.263 34.4477,7.093 23.3029,0 15.1975,2.026 10.1317,11.145 7.0921,15.197 -9.1185,40.527 -37.4872,94.225 -77.0008,50.658 -46.6057,18.237 -115.5011,78.014 -95.2378,29.382"
     id="path3772"
     style="fill:none;stroke:#ea5572;stroke-width:5;stroke-linecap:butt;stroke-linejoin:round;stroke-miterlimit:4;stroke-dasharray:none;stroke-opacity:1" />
  <path
     d="m 5460.9751,2425.7549 -45.5925,125.633 -23.3029,24.315 -22.2897,15.198 -12.158,20.263 0,19.251 8.1053,15.197 65.856,67.882 17.2238,32.422 15.1975,58.764 2.0264,71.934 73.9612,345.491 8.1054,27.355 134.7513,369.807 57.7506,217.831 20.2633,146.909 15.1976,21.276 14.1843,8.106 24.316,14.184 15.1976,25.329 27.3555,128.673 11.1449,48.632 1.0131,74.974 -8.1053,59.777 -17.2239,50.659 -5.0658,70.921 -142.8567,329.28 -137.7908,368.793 -13.1712,20.263 -34.4477,19.251 -44.5794,16.21 -98.2773,20.264 -79.0271,18.237 -357.6483,137.79 -27.3555,11.145 -11.1449,9.119 -17.2238,37.487 -37.4872,15.197 -7.0922,8.106 -26.3424,152.988 -20.2633,50.659 -13.1712,7.092 -113.4748,43.566 -88.1456,14.184 -60.7901,24.316 -31.4082,8.106 -34.4477,-23.303 -23.3029,-11.145 -35.4609,-37.487 -26.3423,-18.237 -27.3556,-14.185 -34.4477,-12.158 -34.4477,-34.447 -114.488,-169.199 -17.2238,-16.211 -73.9613,0 -13.1712,7.092 -88.1456,70.922 -16.2107,4.053 -286.7265,-7.093 -15.1975,11.145 -20.2634,38.501 -173.2517,134.751 -36.474,47.619 -15.1975,47.619 -15.1976,18.237 -201.6204,72.948 -21.2765,0 -155.0147,-60.79 -130.6987,-46.606 -25.3292,-26.342 -25.3292,-46.606 -45.5925,-26.342 -133.7382,-43.567 -15.7761,-11.26 -81,-173.5 -25.5,-24.5 -98.5,-15.5 -292,67.5 -22.5,-1 -301,-50 -47,-0.5 -70,-10.5 -55,-1 -245.5,-14.5"
     id="path3774"
     style="fill:none;stroke:#707d38;stroke-width:5;stroke-linecap:butt;stroke-linejoin:round;stroke-miterlimit:4;stroke-dasharray:none;stroke-opacity:1" />
  <path
     d="m 5910,3741.9999 -70,-37 -25,-8 -33,7 -104,44 -98,29 -49,29 -89,59 -131,91 -22,28 -23,63 -27,76 -7,42 -38,44 -19,5 -108,2 -74,27 -16,17 -4,27 3,55 4,79 5,124 -40,100 -35,77 -18,19 -11,36 -2,24 -9,6 -30,5 -14,7 -8,23 -4,68 -2,34 -8,23 -26,28 -23,12 -110,8 -25,-10 -127,4 -46,-28 -132,-47 -229,-130 -18,-3 -29,10 -219,-4 -78,-18 -10,-21 -20,-67 -116,-162 -14,-20 -8,-8 -8,-19 2,-76 12,-29 146,-172 8,-26 35,-185 1,-26 -10,-91 7,-23 17,-31 6,-57 28,-56 25,-10 13,-12 44,-23 31,3 23,7 9,14 12,32 2,16 -5,13 2,15 -10,27 -1,22 -41,27 -34,26 -29,18 -13,29 -22,61 -10,10 -35,15 -17,23"
     id="path3776"
     style="fill:none;stroke:#d27e1c;stroke-width:5;stroke-linecap:butt;stroke-linejoin:round;stroke-miterlimit:4;stroke-dasharray:none;stroke-opacity:1" />
  <path
     d="m 6815.0952,4669.8999 -178.0952,31.1 -75,-1 -13,13 -6,55 -10,72 -46,147 -13,11 -17,5 -27,-4 -156,-60 -34,-28 -320,-123 -25,-18 -16,-40 -31,-26 -181,-87 -47,-14 -114,-21 -40,-34 -66,-66 -18,-2 -27,12 -54,42 -80,71 -72,55 -57,32 -33,13 -24,-2 -18,-10 -32,-64 -64,-32 -43,-48 -35,-4 -56,4 -6,-2 -10,-11 -5,-61 -58,-51 -49,2 -18,-1 -58,11 -89,4 -30,11 -33,29 -41,41 -29,53 -34,56 -32,30 -18,25 -50,126 -21,31 -21,46 -29,24 -42,39 -134,167 -147,118 -45,30 -25,2 -42,-12 -39,-50 -16,-8 -261,-53 -42,-8 -18,4 -29,17 -21,8 -71,-11 -77,-17 -32,6 -105,15 -21,0 -16,-11.5 -41.5,-97.5 -38.5,-76 -34,-61 -35,-44 -21,-26 -6,-31 1,-91 18,-64 -9,-22 -15,-22 -25,-9 -35,3 -38,5 -37,2 -156,-13 -27,0 -38,19 -21,5 -23,-4 -23,-25 -4,-18 0.055,-22.68 29.945,-76.32 4,-38 12,-15 55,-5 21,-7 9,-14 5,-25 10,-26"
     id="path3797"
     style="fill:none;stroke:#714e9e;stroke-width:5;stroke-linecap:butt;stroke-linejoin:round;stroke-miterlimit:4;stroke-dasharray:none;stroke-opacity:1" />
  <path
     d="m 5760,2911.9999 -41,62 -5,20 -1,32 -16,25 -27,34 -14,16 -30,10 -29,19 -145,39 -108,26 -49,13 -52,6 -15,7 -48,108 -97,115 -7,20 -1,29 40,124 38,120 5,79 -1,50 -28,42 -29,30 -48,123 -59,58 -34,4 -46,34 -50,28 -37,16 -17,24 3,43 6,42 0,39 13,19 18,8 57,74 6,34 -2,14 -20,46 -18,13 -54,12 -104,32 -50,1 -92,10 -43,23 -12,16 -48,22 -9,12 0,31 -10,56 1,65 8,57 18,84 -5,22 -92,120 -3,22 28,24 27,17 34,4 114,44 10,15 -2,60 -38,165 3,29 22,47 5,20 1,52 -1,86 -6,27 -5,178 5,37 15,40 26,33 34,32 36,69 46,63 86,95 73,127 5,68 -37,82 -10,10 -99,3 -11,5 -75,108 -42,27 -66,66 -19,66 -26,208 0,19 -13,26 -41,30 -253,106 -42,16 -27,25 -35,40 -31,14 -12,30 -5,28 21,32 11,17 26,64 24,63 9,12 6,14 -4,14 -55,40 -120,84 -26,21 -25,16 -18,28 -9,30 -20,83 -28,172 -13,27 -246,369 -19,20 -128,49 -73,21 -41,6 -59,4 -152,-12 -25,-12 -21,-20 -105,-135 -23,-15 -33,-11 -372,-25 -29,-7 -122,-72 -73,-21 -360,-213 -62,-47 -21,-20 -35,-70 -23,-22 -182,-67 -17,-17 -17,-22 -4,-28 18,-62 4,-12"
     id="path3799"
     style="fill:none;stroke:#1e85c7;stroke-width:5;stroke-linecap:butt;stroke-linejoin:round;stroke-miterlimit:4;stroke-dasharray:none;stroke-opacity:1" />
  <path
     d="m 1708,2824.9999 223,131 27,31 56,70 45,87 35,78 48,59 229,212 40,19 102,13 40,4 22,-6 18,-15 21,-28 24,-11 36,-9 108,16 27,4 17,-3 10,-17 19,-234 27,-43 18,-17 30,-15 42,2 295,80 68,-3 33,-6 139,-41 40,16 198,66 43,58 17,123 10,131 7,37 -7,54 9,29 24,37 40,39 24,31 78,115 9,21 4,44 29,42 18,23 8,24 13,16 7,45 81,98 19,26 14,30 107,134 23,5 62,-27 35,-26 31,-1 106,2 29,5 50,-28 21,0 16,9 23,86 13,129 29,30 93,28 45,3 20,16 91,148 7,31 9,69 104,188 29,28 3,22 -4,93 -11,17 -143,66 -121,71 -15,23 -2,28 37,94 17,17 20,2 9,-5 13,4 12,25 9,66 13,94 33,68 20,7 147,-25 86,-18 78,-13 186,-105 50,-30 78,-26 41,-14 27,-2 16,6 14,16 62,180 15,17 31,7 48,5 40,-12 20,-16 32,-32 40,-16 205,-81 56,-35 14,-24 24,-56 22,-35"
     id="path3822"
     style="fill:none;stroke:#ed6f08;stroke-width:5;stroke-linecap:butt;stroke-linejoin:round;stroke-miterlimit:4;stroke-dasharray:none;stroke-opacity:1" />
  <path
     d="m 5079,4380.9999 40,23 136,-2 104,49 10,21 7,17 5,20 58,146 0,66 -12,33 -16,63 5,14 122,50 268,97 22,-6 62,-17 24,3 20,18 103,204 31,70 5,27 -17,33 -15,12 -51,23 -56,13 -66,7 -118,-7 -101,20 -56,14 -256,99 -474,183 -10,18 -5,19 -12,69 -9,20 -17,12 -52,16 -90,33 -41,30 -3,11 -12,4 -47,-8 -52,-1 -71,18 -23,5 -28,-6 -135,-67 -41,-21 -134,-16 -67,-35 -17,-3 -47,6 -52,9 -19,-9 -25,-31 -16,-32 -30,-15 -29,3 -46,30 -24,21 -29,9 -47,10 -31,1 -22,-8 -22,-17 -20,-21 -37,-125 -14,-98 5,-60 -5,-17 -36,-54 -26,-23 -66,-36 -32,-16 -24,-5 -30,5 -140,57 -45,21 -17,-1 -17,-11 -69,-171 -16.9102,-46.156 -20.5898,-47.844 -21.5,-49.5"
     id="path3824"
     style="fill:none;stroke:#0ba044;stroke-width:5;stroke-linecap:butt;stroke-linejoin:round;stroke-miterlimit:4;stroke-dasharray:none;stroke-opacity:1" />
  <path
     d="m 3450,5372.9999 -1,-17 5,-17 46,-34 37,-185 12,-26 158,-235 15,-27 11,-36 22,-27 135,-127 14,-5 115,57 17,-4 43,-18 88,-8 94,-5 37,2 18,-6 39,-30 36,-30 80,-22 38,-18 28,-27 94,-4 201,-11 57,15 47,16 73,-10 35,-4 40,9 39,2 39,16 50,28 10,10 14,5 55,-1 17,9 11,15 6,65 9,106 14,12 77,29"
     id="path3826"
     style="fill:none;stroke:#0ba044;stroke-width:5;stroke-linecap:butt;stroke-linejoin:miter;stroke-miterlimit:4;stroke-dasharray:none;stroke-opacity:1" />
  <path
     d="m 290,7071.9999 161,299 37,60 14,10 20,3 14,-9 145,-186 53,-57 95,-104 84,-105 109,-136 81,-93 13,-30 8,-50 1,-31 -2,-48 -9,-32 5,-44 16,-38 29,-276 5,-60 1,-47 9,-14 40,-13 13,-17 6,-22 -2,-40 15,-37 8,-55 18,-59 6,-24 26,-9 18,-25 61,-34 25,-15 12,-22 -1,-41 -26,-212 -8,-49 23,-298 6,-197 5,-28 13,-10 46,-2 87,6 25,-8 23,-35 36,-57 16,-27 20,-44 7,-38 -3,-45 -35,-50 -2,-36 -10,-41 -20,-47 -16,-10 -42,-1"
     id="path3832"
     style="fill:none;stroke:#5d99cf;stroke-width:5;stroke-linecap:butt;stroke-linejoin:round;stroke-miterlimit:4;stroke-dasharray:none;stroke-opacity:1" />
  <path
     d="m 126,5906.9999 6,-35 16,-20 20,-14 33,-11 25,3 17,14 45,39 59,70 46,38 90,53 25,6 170,0 281,35 161,-6 19,-8 19,-16 10,-24 10,-175 21,-34 117,-102 27,-19 24,-7 522,44 95,18 272,50 70,-4 47,6 26,1 110,-45 36,-16 68,-72 26,-16 33,-13 121,-1 35,1 151,-41 16,-2 122,30 19,0 27,-8 89,-54 70,-34 32,-44 97,-82 83,-41 130,-69 44,-21 33,-4 48,3 30,12 36,35 29,10 97,-3 112,-11 53,-18 90,-98 60,-63 129,-116 15,-36 4,-81 -3,-111 6,-59 -2,-46 9,-26 34,-42 25,-71 -3,-87 13,-6 105,0 93,-5 75,-8 109,0 16,-10 87,-26 92,-44 84,-31 87,-2 82,-28 38,-30 43,-71 45,-34 33,-21 22,-31 60,-97 24,-61 0,-88 -3,-42 -32,-87 -45,-139 -16,-31 -15,-52 3,-56 -9,-33 -22,-26 -33,-33 -16,-20 -60,-186 -30,-91 -12,-163 11,-83 18,-114 -2,-51 -3,-55 -5,-80 11,-82 17,-88 -2,-44 -8,-48 -7,-42 1.5,-51 7,-80 0,-44 -4,-71 -10,-77 -6,-72 -5.5,-59.5 -16,-74.5 -11,-36.5 -7.5,-31.5 1,-96 6.5,-35.5 17,-68 6,-101.5"
     id="path3828"
     style="fill:none;stroke:#094299;stroke-width:5;stroke-linecap:butt;stroke-linejoin:round;stroke-miterlimit:4;stroke-dasharray:none;stroke-opacity:1" />
  <path
     d="m 3332,5519.9999 -7,44 -1,36 10,132 40,126 104,295 119,347 9,53 14,91 10,30 59,118 182,290 43,57 54,53 13,35 42,132 33,48 18,25 27,63 27,74 34,85 5,49 -3,122 -7,392 7,147 53,109 26,30 83,75 28,11 97,16 35,3 21.5,10 14.5,11.5 77,105.5 41,61 14.5,27.5 142.5,313.5 75,156 43.5,61 21,49.5 23.5,59.5 71.5,168.5 116,282 28.5,67.5 42.5,107.0001 92.5,225 16.696,29.311 9.8995,12.728 21.5668,26.516 43.8406,35.002 99.9971,80.443 26,26.5 17.5,31 11,32.5 5.5,32.5 24.5,125.5 25.5,129.5 -31.5,336 -33,326.5 -19,186.5 -80.5,245 3.5,62 4.5,52.5 -31,324 2.5,27.5 6.5,20 24,31 141,113 11.5,15.5 12,27 4,27.5 37.5,417.5 5,26 12,20 197.5,261.5 407.5,535 10,14.5 8.5,27 3,23 35.5,627 7.5,25.5 215.5,569 10,39.5 4,33 -7,39 -12.5,63 -0.5,24.5 36.5,215.5 7.5,76 2.5,49.5 3.5,73 -5,67 -32,201.5"
     id="path3830"
     style="fill:none;stroke:#094299;stroke-width:5;stroke-linecap:butt;stroke-linejoin:round;stroke-miterlimit:4;stroke-dasharray:none;stroke-opacity:1" />
  <path
     d="m 4423.5,4723.9999 2.5,-49 10.5,-24 2,-14.5 -3,-20 -13.5,-19.5 -34,-16.5 -44,1 -141,22.5 -56.5,14.5 -130.5,7 -26,-1.5 -26.5,-12 -76.5,-77.5 -75.5,-21.5 -77,-41 -73,-44.5 -71.5,-65.5 -149,-125 -125,-136 -131,-143 -62,-49 -30,-8 -54,-45 -45,-34 -34,-8 -217,8 -20,-7 -61,-58 -99,-91 -32,-40 -186,-400 -174,-365 -15,-24 -32,-23 -204,-111 -18,-15 -20,-48 3,-360 36,-101 95.5,-265.5 6.8861,-26.0647 -1.7678,-24.3952 -7.0711,-19.4454 -86.9741,-184.9084 -2.1213,-13.7886 2.0482,-59.3977 4,-46 12.5,-27.5 19.5,-21 217.5,-116 22,-19 13,-25.5 2.5,-34.5 -11.5,-112.5 2,-15 24,-66.5 72,-210.00001 1,-34 -8,-46 -90,-374 -1,-32 3,-328.999999"
     id="path3834"
     style="fill:none;stroke:#6bc1a4;stroke-width:5;stroke-linecap:butt;stroke-linejoin:round;stroke-miterlimit:4;stroke-dasharray:none;stroke-opacity:1" />
  <path
     d="m 4363.3822,5074.5109 -38.3822,50.489 -11,20 3,28 11,16 38,13 35,-8 44,-6 35,11 92,39 98,1 42,-2 88,-39 17,-28 33,-46 57,-38 27,-17 73,-142 24,-17 35,-27 28,-28 51,-20 47,-34 17,-24 14,-24 41,-28 8,-19 2,-32 -22,-142 4,-27 85,-143 36,-52 28,-40 35,-60 51,-37 66,-47 247,-69 39,-12 173,-82 46,-43 61,-23 54,-8 72,2 184,67 41,10 61,-14 129,-37 90,-49 89,-50 114,-39 36.2861,-0.05 36.0624,7.778 41.0122,24.749 25.4558,30.405 61.5183,94.046 11.3137,26.163 28.9914,69.296 33.234,84.853 25.4559,33.941 28.2843,19.092 52.3259,36.769"
     id="path3855"
     style="fill:none;stroke:#6bc1a4;stroke-width:5;stroke-linecap:butt;stroke-linejoin:miter;stroke-miterlimit:4;stroke-dasharray:none;stroke-opacity:1" />
  <path
     d="m 5265.5,4588.9999 12.5,78 4.4394,41.511 7.5606,10.489 28.6149,20.439 6.8851,8.561 3.5,47.5 9.5,62.5 -36.6907,204.64 -30.8093,112.36 0,19 63,212 41,34.5 9,18.5 23,60 60,168 15,56 15,5 24,-4 35,-15 27,-20 45,-9 49,-25 17,-14 179,-69 22,2 63,30 20,33 18,40 28,33 18,17 54,62 58,52 103,67 70,55 6,17 -4,55 -7,126 14,156 2,57 28,191 3,58 -7,55 -2,215 -1,93 -4,13 6,62 -9,63 1,92 -9,24 -48,43 -144,132 -33,32 -8,20 -1,223 9,58 -1,85 -1.5,214 -14,69 -3.5,90 -2,106 8,33 0.1599,94.993 -4.2426,15.556 -16.2634,16.264 -4.9498,13.435 -2.1213,96.873 0.9172,94.379 7.5,44 19,30.5 90,97 7.5,14.5 0,262.5 -5.5,15 -10,12.5 -20,13 -127,8.5 -107,11.5 -70.5,-1.5 -73.5,0.5 -25,4.5 -114.5,152.5 -44,56.5 -11.5,6.5 -68,7 -107.5,6.5 -16.5,-5 -109,-92 -14.5,-30.5 -16,-32 -25.5,-9.5 -4,-11.5 -8,-44.5 -7,-10 -168,-54.5 -22.5,-3.5 -74.5,-21 -23.5,-10 -17.5,-12 -12,-24.5 -8,-2 -103,48.5"
     id="path3857"
     style="fill:none;stroke:#fdd001;stroke-width:5;stroke-linecap:butt;stroke-linejoin:round;stroke-miterlimit:4;stroke-dasharray:none;stroke-opacity:1" />
  <text
     x="89.453178"
     y="206.96083"
     id="text3859"
     xml:space="preserve"
     style="font-style:normal;font-weight:normal;font-size:143.99993896px;line-height:125%;font-family:Sans;-inkscape-font-specification:Sans;letter-spacing:0px;word-spacing:0px;fill:#000000;fill-opacity:1;stroke:none"><tspan
       x="89.453178"
       y="206.96083"
       id="tspan1">2015</tspan></text>
  <text
     x="89.453125"
     y="16097.961"
     id="text3863"
     xml:space="preserve"
     style="font-style:normal;font-weight:normal;font-size:144px;line-height:125%;font-family:Sans;-inkscape-font-specification:Sans;letter-spacing:0px;word-spacing:0px;fill:#000000;fill-opacity:1;stroke:none"><tspan
       x="89.453125"
       y="16097.961"
       id="tspan2">2015</tspan></text>
  <path
     d="m 6426,4998.9999 26,14 11,12 1,16 -4,27 -46,169 -96,184 -10,27 0,19 14,19 73,59 155,104 56,1 17,-6 30,-28"
     id="path3905"
     style="fill:none;stroke:#714e9e;stroke-width:5;stroke-linecap:butt;stroke-linejoin:round;stroke-miterlimit:4;stroke-dasharray:none;stroke-opacity:1" />
  <path
     d="m 5125.5,5563.9999 82,216.5 35.5,41.5 13.5,25.5 4.5,26.5 3,181.5 4,15 62,86 106.5,142.5 54,79 50,87 29,39.5 151.5,188 95.0079,86.329 192.3343,128.834 109.9157,64.082 15.7347,22.041 9.5,27.621 2.603,295.107 -31.3456,99.236 -9.4069,74.593 0.25,107.25"
     id="path3003"
     style="fill:none;stroke:#c32732;stroke-width:5;stroke-linecap:butt;stroke-linejoin:round;stroke-miterlimit:4;stroke-dasharray:none;stroke-opacity:1" />
  <path
     d="m 1603.5,7660.9999 21.5,-59.5 21,-37.5 -9,-76.5 5,-23 71.5,-120.5 3,-24.5 -12.5,-52.5 -12,-27 -71.5,-90 -31.5,-46 -33,-39.5 -25.5,-16.5 -36,-3.5 -162.5,36.5 -21,-0.5 -27,-11.5 -91.5,-55.5 -47,-18 -71,-50 -193.5,-147.5 -66,-47.5 -48,-64 -35.5,-23.5 -48.5,-9 -31,-3 -74.5,-41"
     id="path3161"
     style="fill:none;stroke:#fdcc03;stroke-width:5;stroke-linecap:butt;stroke-linejoin:round;stroke-miterlimit:4;stroke-dasharray:none;stroke-opacity:1" />
  <path
     id="path4308"
     d="m 5437,2040.4999 -11,47.5 -7,7.5 -15,3.5 -30,-16 -18,-5.5 -27.5,-4 -4.5,-5.5 -5.5,-186 -3,-5.5 -95,1.5 -3.5,-3.5 -2.5,-58 2,-12 2.5,-2.5 199.5,-9 22,-16.5 29.5,4 7.5,-4.5 49,-47 15.5,-8 131.5,-38 12,-5 14,-15 22,-21.5 20,-8 10,1.5 46.5,21.5 7.5,16.5 12.5,35 -9.5,29.5 4,17 26.5,88 15.5,55 25,74"
     style="fill:none;fill-rule:evenodd;stroke:#f9b016;stroke-width:5;stroke-linecap:butt;stroke-linejoin:round;stroke-miterlimit:4;stroke-dasharray:none;stroke-opacity:1" />
  <path
     id="path4394"
     d="m 5221,10092.5 22.5,27 17.5,9 65.5,20.5 29,9 72.5,45.5"
     style="fill:none;fill-rule:evenodd;stroke:#094299;stroke-width:5;stroke-linecap:butt;stroke-linejoin:round;stroke-miterlimit:4;stroke-dasharray:none;stroke-opacity:1" />
  <path
     id="path4396"
     d="m 6209,8980.4999 20.5,1 21,5 13,7.5 37,37 31.5,34.5 22.5,17.5 21.5,10 22,1 20,-2.5 15.5,-6.5 30,-23.5 9,-33.5 11,-12 27,-13.5 48,-23 14.5,1 18.5,6 12,10 7.5,13 7.5,23 22.5,29.5 27,44 20.5,41 50,65.5 40.5,38.5 55,78 4.5,12 2.5,14.5 -5.5,16.5 -10.5,13 -31.5,38 -2,9.5 4.5,10.5 43.5,48.5 10.5,9 36.5,19.5 32.5,15.5 78.5,-5 20.5,5 37,8.5 40.5,3 26,11 32.5,7.5 55.5,-2 42.5,9 17,-3 42,-14 17,-1 21,1 9,-9.5 13.5,-23 9,-32.5 20.5,-44.5 2.5,-15 6.5,-28 7,-27 34,-35 11.5,-14 4.5,-16.5 -16.5,-80.5 -36,-77.5 -20.5,-24.5 -3.5,-10.5 8.5,-87.5 8.5,-16.5 21,-24.5 21.5,-19.5 46,-22 4.5,-5 24.5,-49 -1,-13 -8,-9.5 -53.5,-44.5"
     style="fill:none;fill-rule:evenodd;stroke:#58ac40;stroke-width:5;stroke-linecap:butt;stroke-linejoin:round;stroke-miterlimit:4;stroke-dasharray:none;stroke-opacity:1" />
</svg>
