<?xml version="1.0" encoding="UTF-8" standalone="no"?>
<svg
   xmlns:dc="http://purl.org/dc/elements/1.1/"
   xmlns:cc="http://creativecommons.org/ns#"
   xmlns:rdf="http://www.w3.org/1999/02/22-rdf-syntax-ns#"
   xmlns:svg="http://www.w3.org/2000/svg"
   xmlns="http://www.w3.org/2000/svg"
   xmlns:xlink="http://www.w3.org/1999/xlink"
   viewBox="0 0 1250 1550"
   height="1550"
   width="1250"
   id="svg2"
   version="1.1">
  <metadata
     id="metadata8">
    <rdf:RDF>
      <cc:Work
         rdf:about="">
        <dc:format>image/svg+xml</dc:format>
        <dc:type
           rdf:resource="http://purl.org/dc/dcmitype/StillImage" />
        <dc:title></dc:title>
      </cc:Work>
    </rdf:RDF>
  </metadata>
  <defs
     id="defs6" />
  <image
     style="display:none"
     y="83.75"
     x="-700"
     id="image10"
     xlink:href="file:///home/alexander/timelines/timelines/streetmap/../streetmap/tlsosm.png"
     preserveAspectRatio="none"
     height="1466.25"
     width="1955" />
  <path
     id="path836"
     d="m 793.6949,123.42373 -3.2542,17.8983 -9.356,17.08475 -16.2711,10.16949 -29.2882,8.13559 -15.4576,0.40678 -27.661,-1.22034 -22.7797,6.1017 -20.7457,10.16949 -13.017,11.38983 -20.339,25.22034 -31.322,30.10169 -3.2542,11.79661 4.0678,79.72882 2.8474,22.37288 3.2542,33.76271 16.2712,42.30509 7.7288,32.54237 v 15.86441 l -4.8813,11.38983 -8.1356,8.13559 -12.2034,3.66102 -24,19.11864 -15.0508,13.01695 -7.7289,9.76271 -2.8474,15.45763 6.1017,16.67796 6.9152,5.28814 11.7966,4.88136 15.0509,0.81356 56.9491,-22.37289 46.7797,10.98305 11.7966,8.54238 45.9661,59.79661 38.6441,51.25424 4.0678,10.57627 1.6271,28.06779 -3.661,13.83051 -9.3559,6.91526 -46.3729,8.13559 L 716,789.32203 702.9831,806 l -5.695,37.83051 9.356,48.40678 26.8474,84.20339 3.661,20.33898 -5.6949,15.05084 -13.0169,14.2373 -26.0339,21.1525 -12.2034,14.2373 -14.6441,28.8814 -4.8813,17.4915 2.8474,9.3559 10.1695,4.4746 19.1187,-4.4746 37.0169,-25.2203 17.4915,-18.7119 13.8305,-10.5762 27.2543,-9.356 h 32.5424 l 23.5932,5.2882 34.1695,25.6271 19.9322,22.3729 4.4745,15.8644 -1.2203,9.7627 -7.322,17.0847 3.2542,10.5763 15.8644,45.5593 4.8814,13.017 5.2881,45.9661 -2.0339,8.9491 -6.1017,13.017 -6.9152,45.5593 v 13.4237 l 6.5084,21.9661 5.2882,10.1695 47.1864,37.8305 13.4237,8.1356 57.7628,17.8983 26.4406,-2.8474"
     style="opacity:1;fill:none;fill-opacity:1;fill-rule:nonzero;stroke:#fecb19;stroke-width:5;stroke-linecap:butt;stroke-linejoin:round;stroke-miterlimit:4;stroke-dasharray:none;stroke-opacity:1" />
  <path
     id="path838"
     d="m 1127.2542,311.35593 3.2543,17.49153 -1.2204,11.38983 -6.9152,10.57627 -50.8475,28.47457 -34.5762,27.25424 -59.7967,53.28814 -19.5254,18.30508 -9.3559,9.35593 -11.7966,15.86441 -24.4068,22.37288 -62.6441,52.88136 -12.6101,1.62712 -20.339,19.52542 -6.9153,16.27119 -68.339,62.23728 -15.0508,9.76272 -16.678,4.47457 -8.5423,6.91526 -3.6611,14.64406 v 32.1356 15.05085 l -4.4745,14.64406 -8.1356,12.20339 -8.9492,3.66102 -62.6441,0.81356 -37.4237,-3.25424 -124.8813,30.1017 -15.8644,8.54237 -8.9492,10.98305 -8.5424,15.05085 -8.1356,42.30508 4.8814,29.28814 v 15.86441 l -8.9492,22.77966 -51.661,87.45761 -17.8983,27.2543 -17.8983,10.1694 -22.77965,4.8814 -26.0339,2.0339 -7.72881,1.6271 -9.76271,4.0678 -8.54237,7.322 -8.1356,10.5763 -4.88135,10.9831 -1.62712,7.322 2.44068,13.017 v 12.2033 l -3.25424,19.1187 v 12.2034 l 2.44068,13.4237 -2.0339,23.5932 -4.47458,20.339 -6.50847,12.2034 -10.16949,10.983 -10.1695,5.2882 -43.11864,-1.2204 -9.76271,-4.8813 -10.98305,-16.678 -11.38983,-29.2881 0.40678,-15.4576"
     style="opacity:1;fill:none;fill-opacity:1;fill-rule:nonzero;stroke:#ef4249;stroke-width:5;stroke-linecap:butt;stroke-linejoin:round;stroke-miterlimit:4;stroke-dasharray:none;stroke-opacity:1" />
  <text
     style="font-style:normal;font-weight:normal;font-size:144px;line-height:125%;font-family:Sans;-inkscape-font-specification:Sans;letter-spacing:0px;word-spacing:0px;fill:#000000;fill-opacity:1;stroke:none"
     xml:space="preserve"
     id="text3817"
     y="206.96094"
     x="89.453117"><tspan
       id="tspan1"
       y="206.96094"
       x="89.453117">2015</tspan></text>
</svg>
