<?xml version="1.0" encoding="UTF-8" standalone="no"?>
<svg
   xmlns:dc="http://purl.org/dc/elements/1.1/"
   xmlns:cc="http://creativecommons.org/ns#"
   xmlns:rdf="http://www.w3.org/1999/02/22-rdf-syntax-ns#"
   xmlns:svg="http://www.w3.org/2000/svg"
   xmlns="http://www.w3.org/2000/svg"
   xmlns:xlink="http://www.w3.org/1999/xlink"
   viewBox="0 0 1000 650"
   height="650"
   width="1000"
   id="svg2"
   version="1.1">
  <metadata
     id="metadata8">
    <rdf:RDF>
      <cc:Work
         rdf:about="">
        <dc:format>image/svg+xml</dc:format>
        <dc:type
           rdf:resource="http://purl.org/dc/dcmitype/StillImage" />
        <dc:title></dc:title>
      </cc:Work>
    </rdf:RDF>
  </metadata>
  <defs
     id="defs6" />
  <image
     xlink:href="uosm.png"
     width="1912"
     height="1434"
     preserveAspectRatio="none"
     id="image10"
     x="-365"
     y="-234"
     style="display:none" />
  <path
     id="path817"
     d="m 333.77119,257.03867 14.81091,4.93697 39.11598,-0.37977 28.48254,-7.59535 16.32996,14.05138 44.05299,3.79767 45.57203,26.58369 9.87394,-6.45604 25.06462,9.1144 -2.65838,6.07628 16.32998,20.12765 v 11.77277 l 41.39461,18.22882 v -30.76113 l -28.48253,-30.76113 20.88719,-6.83579 -0.75954,-12.15255 -18.98835,-4.55721 -30.00159,-5.69648 v -11.39302 l -17.46927,-6.07628 -7.59535,1.51907 -17.46928,-12.5323 -10.25371,6.83581 -41.01483,-14.43116 -44.43273,2.27861 -6.45604,-14.05137 -39.87553,9.49416 -11.01323,-11.393 -1.51907,12.91207 -37.21718,7.97511 z"
     style="opacity:1;fill:#f4f4ff;fill-opacity:1;fill-rule:nonzero;stroke:none;stroke-width:1.8671875;stroke-linecap:butt;stroke-linejoin:round;stroke-miterlimit:4;stroke-dasharray:none;stroke-opacity:1" />
  <path
     id="path819"
     d="m 498.3678,532.90409 8.85651,-2.57124 17.71305,-0.57139 18.57012,-8.28513 7.71374,-6.28527 17.14165,-8.28513 14.57041,-9.71361 8.85652,-12.57054 -1.42848,-7.42804 2.85695,-4.85681 v -4.5711 l 9.14221,-10.57069 10.57069,-1.99986 4.28541,-7.71374 5.14249,-0.57139 10.57064,-5.71388 h 19.99863 l 43.99696,3.14263 28.85511,7.42805 30.85491,-17.14164 11.99921,-5.99958 33.42613,-30.85497 13.71336,-3.71403 -24.8554,-104.84976 -4.28536,-27.99804 3.9997,-5.71388 11.99912,-3.99971 19.42721,-2.57125 16.85599,-13.71332 6.57093,-9.99929 7.99941,-4.85681 12.85629,-19.99859 17.14165,-20.85568 11.71345,-0.85708 6.28527,-7.42804"
     style="opacity:1;fill:none;fill-opacity:1;fill-rule:nonzero;stroke:#ff0000;stroke-width:8;stroke-linecap:butt;stroke-linejoin:round;stroke-miterlimit:4;stroke-dasharray:none;stroke-opacity:1" />
  <text
     x="89.453125"
     y="206.96094"
     id="text3817"
     xml:space="preserve"
     style="font-style:normal;font-weight:normal;font-size:144px;line-height:125%;font-family:Sans;-inkscape-font-specification:Sans;letter-spacing:0px;word-spacing:0px;fill:#000000;fill-opacity:1;stroke:none"><tspan
       x="89.453125"
       y="206.96094"
       id="tspan1"
       style="fill:#000000">2015</tspan></text>
</svg>
