<?xml version="1.0" encoding="UTF-8" standalone="no"?>
<svg
   xmlns:dc="http://purl.org/dc/elements/1.1/"
   xmlns:cc="http://creativecommons.org/ns#"
   xmlns:rdf="http://www.w3.org/1999/02/22-rdf-syntax-ns#"
   xmlns:svg="http://www.w3.org/2000/svg"
   xmlns="http://www.w3.org/2000/svg"
   xmlns:xlink="http://www.w3.org/1999/xlink"
   viewBox="0 0 1000 650"
   height="650"
   width="1000"
   id="svg2"
   version="1.1">
  <metadata
     id="metadata8">
    <rdf:RDF>
      <cc:Work
         rdf:about="">
        <dc:format>image/svg+xml</dc:format>
        <dc:type
           rdf:resource="http://purl.org/dc/dcmitype/StillImage" />
        <dc:title></dc:title>
      </cc:Work>
    </rdf:RDF>
  </metadata>
  <defs
     id="defs6" />
  <image
     xlink:href="uosm.png"
     style="display:none"
     y="-234"
     x="-365"
     id="image10"
     preserveAspectRatio="none"
     height="1434"
     width="1912" />
  <path
     id="path817"
     d="m 333.77119,257.03867 14.81091,4.93697 39.11598,-0.37977 28.48254,-7.59535 16.32996,14.05138 44.05299,3.79767 45.57203,26.58369 9.87394,-6.45604 25.06462,9.1144 -2.65838,6.07628 16.32998,20.12765 v 11.77277 l 41.39461,18.22882 v -30.76113 l -28.48253,-30.76113 20.88719,-6.83579 -0.75954,-12.15255 -18.98835,-4.55721 -30.00159,-5.69648 v -11.39302 l -17.46927,-6.07628 -7.59535,1.51907 -17.46928,-12.5323 -10.25371,6.83581 -41.01483,-14.43116 -44.43273,2.27861 -6.45604,-14.05137 -39.87553,9.49416 -11.01323,-11.393 -1.51907,12.91207 -37.21718,7.97511 z"
     style="opacity:1;fill:#f4f4ff;fill-opacity:1;fill-rule:nonzero;stroke:none;stroke-width:1.8671875;stroke-linecap:butt;stroke-linejoin:round;stroke-miterlimit:4;stroke-dasharray:none;stroke-opacity:1" />
  <path
     id="path819"
     d="m 901.48228,171.21528 -6.28527,7.42804 -11.71345,0.85708 -17.14165,20.85568 -12.85629,19.99859 -7.99941,4.85681 -6.57093,9.99929 -16.85599,13.71332 -19.42721,2.57125 -11.99912,3.99971 -3.9997,5.71388 4.28536,27.99804 24.8554,104.84976 -13.71336,3.71403 -33.42613,30.85497 -11.99921,5.99958 -30.85491,17.14164 -28.85511,-7.42805 -43.99696,-3.14263 h -19.99863 l -10.57064,5.71388 -5.14249,0.57139 -4.28541,7.71374 -10.57069,1.99986 -9.14221,10.57069 v 4.5711 l -2.85695,4.85681 1.42848,7.42804 -8.85652,12.57054 -14.57041,9.71361 -17.14165,8.28513 -7.71374,6.28527 -18.57012,8.28513 -17.71305,0.57139 -8.85651,2.57124 -5.0838,0.11058 -23.26147,-4.90607 -3.71583,2.10831 -10.39548,0.4302 -9.50292,-8.14119 h -5.39577 l -5.37623,-9.52 -14.99799,-2.4527 -37.86984,-19.14594 -14.4249,0.60695 -12.81198,-10.12698 H 324.488 l -35.02107,-12.22299 -13.73344,-13.61473 -12.53587,-9.89215 -68.62111,-1.21358 -48.62096,5.84663 -8.43218,9.10764 -11.49198,7.70544 -14.39065,16.61453 -3.7802,10.92657 -7.26369,15.99163 -4.462279,5.92197 -6.383934,6.71984"
     style="opacity:1;fill:none;fill-opacity:1;fill-rule:nonzero;stroke:#ff0000;stroke-width:8;stroke-linecap:butt;stroke-linejoin:round;stroke-miterlimit:4;stroke-dasharray:none;stroke-opacity:1" />
  <text
     x="89.453125"
     y="206.96094"
     id="text3817"
     xml:space="preserve"
     style="font-style:normal;font-weight:normal;font-size:144px;line-height:125%;font-family:Sans;-inkscape-font-specification:Sans;letter-spacing:0px;word-spacing:0px;fill:#000000;fill-opacity:1;stroke:none"><tspan
       x="89.453125"
       y="206.96094"
       id="tspan1"
       style="fill:#000000">2020</tspan></text>
</svg>
