<?xml version="1.0" encoding="UTF-8" standalone="no"?>
<!-- Created with Inkscape (http://www.inkscape.org/) -->

<svg
   xmlns:dc="http://purl.org/dc/elements/1.1/"
   xmlns:cc="http://creativecommons.org/ns#"
   xmlns:rdf="http://www.w3.org/1999/02/22-rdf-syntax-ns#"
   xmlns:svg="http://www.w3.org/2000/svg"
   xmlns="http://www.w3.org/2000/svg"
   xmlns:xlink="http://www.w3.org/1999/xlink"
   version="1.1"
   width="5750"
   height="4500"
   id="svg2">
  <metadata
     id="metadata8">
    <rdf:RDF>
      <cc:Work
         rdf:about="">
        <dc:format>image/svg+xml</dc:format>
        <dc:type
           rdf:resource="http://purl.org/dc/dcmitype/StillImage" />
        <dc:title></dc:title>
      </cc:Work>
    </rdf:RDF>
  </metadata>
  <defs
     id="defs6" />
  <image
     xlink:href="lonosm.png"
     style="display:none"
     id="image12"
     height="5255.7139"
     width="7358"
     y="-755.71375"
     x="-100" />
  <path
     d="m 2786,2006 -56,14.5 -35,11.5 -75,26.5 -30,4 -68,6 -35.5,-0.5 -19,-7 -13.5,-11 -15,-6.5 -39.5,-7 -15.0101,-2.9484"
     id="path3600-8"
     style="fill:none;stroke:#b06111;stroke-width:5;stroke-linecap:butt;stroke-linejoin:round;stroke-miterlimit:4;stroke-opacity:1;stroke-dasharray:none" />
  <path
     d="m 1974.5,2295 -5,-25.5 10.5,-17 31,-33.5 10.5,-24.5 1,-35.5 -4.5,-38.5 -17,-37.5 -42.5,-42.5 -23.5,-37.5 -42,-78 -37,-24.5 -23.5,-15 -13,-22.5 -10,-28.5 -21,-28 -60,-43.5 -71.5,-48 -52,-29.5 -21,-8.5 -31.5,-4.5 -52,-21.5 -34,-2.5 -19,-4 -26.5,-18 -22,-31 -26,-49 -34,-35 -42,-60 -50.5,-43.5 -33,-21 -45.5,-11.5 -68,-17.5 -44.5,-8 -42,-2 -44.5,2.5 -48.5,11.5 -138,48 -77.5,28 -18.5,7.5 -77.5,52.5 -54.5,37.5 -20,13.5 -17,19.5 -12.5,21 -11,47 -14,31 -23.5,26 -54.5,30.5 -75.5,39 -55.5,27 -12,4.5 -32,3.5 -17.5,0 -16,5 -36.5,23"
     id="path3598"
     style="fill:none;stroke:#00853e;stroke-width:5;stroke-linecap:butt;stroke-linejoin:round;stroke-miterlimit:4;stroke-opacity:1;stroke-dasharray:none" />
  <path
     d="m 4445.6358,2008.5093 -19.799,9.1924 -16.2635,1.0607 -21.2132,-12.728 -24.0416,6.364 -14.1421,-8.8388 -45.2549,0.3535 -22.6274,-20.8596 8.8388,-21.5668 -67.1751,-65.0538 -7.0711,-25.4558 -21.2132,-7.7782 -45.2548,-106.066 -56.5685,16.9705 0.7071,4.9498 -48.7904,12.7279 -41.7193,4.9497 -38.1838,-9.1923 -79.1959,22.6274 -12.7279,0 -72.832,15.5563 16.2634,40.3051 -56.5685,62.9325 -25.4559,29.6985 -50.9117,-55.1543 -49.4974,-36.7696 -24.7488,-8.4853 21.9203,-18.3847 -45.9619,-49.4975 -104.6518,29.6985 -101.1163,70.0035 -5.6568,0 -24.7487,-16.2634 -39.598,-11.3137 -14.8493,-11.3137 -58.6898,-3.5356 -41.0122,-14.8492 -40.3051,3.5355 -30.4056,-8.4853 -29.6985,9.8995 -18.3848,18.3848 -32.5269,-4.9497 -14.1421,21.2132 -37.4767,5.6568 0,22.6274 -36.7695,22.6275 -28.9914,25.4558 -16.9705,55.1543 -58.6899,16.9706 -3.5355,18.3848 -16.2635,19.799 -2.1213,28.2842 -63.6396,19.0919 -7.0711,-24.7487 -23.3345,9.1924 -25.4559,-1.4143 -17.6776,16.9706 43.1335,53.7401 21.2132,22.6274 70.7107,108.8945 76.3675,101.1162 -15.5564,40.3051 8.4853,10.6066 -41.0122,85.5599 -14.1421,-4.9497 -2.1213,-38.8909 -12.7279,-14.8492 -20.5061,-11.3137 -2.8285,-9.1924 -31.8198,-4.9498 -36.0624,5.6569 -20.5061,11.3137 -39.598,7.7782 1.4142,21.2132 -6.3639,7.071 -2.1214,26.163 -19.7989,-12.0208 -44.5478,-14.8493 -12.0208,-4.9497 -36.7695,-2.8284 -60.8112,-37.4767 -39.598,7.7782 -43.8406,4.2426 -23.3345,-5.6568 -48.7904,69.2964 -23.3345,43.8406 25.4558,76.3676 -3.5355,16.2634 14.8492,77.0747 26.163,50.2045 9.8995,53.7402 -9.1924,4.9497 4.2426,22.6274 -36.7695,9.1924 -15.5564,-3.5355 -33.9411,7.071 14.1421,24.7488 4.2427,32.5269 9.1923,5.6568 22.6274,50.2046 37.4767,-18.3848 11.3137,37.4767 -7.071,45.2548 -2.8285,36.0625 19.0919,38.8909 56.5686,-26.163 45.2548,4.2427 38.1837,30.4056 18.3848,31.8197 12.0209,50.2046 9.8995,99.7021 31.1126,48.0832 -19.0918,37.4767 -26.8701,-13.435 -19.0919,-14.1422 -30.4056,-13.435 -12.0208,4.2426 -5.6568,57.2757 -2.8285,18.3848 -40.305,21.2132 8.4852,16.9705 -68.5893,-8.4853 -89.0955,2.8285 -22.6274,34.6482 -19.0919,41.7193 9.8995,4.2426 -25.4558,90.5097 21.9203,50.9117 43.1335,37.4767 -1.4142,59.3969 -18.3848,51.6188 6.364,55.8614 -14.8493,8.4853 0,16.2635 38.8909,24.0416 2.8284,22.6274 193.0402,-80.6101 65.0538,-10.6066 70.0036,4.9497 10.6066,9.1924 73.5391,-7.7782 101.1162,-26.1629 21.9203,1.4142 44.5478,-15.5564 13.435,32.5269 -4.9497,39.598 -16.2635,43.1335 15.5563,33.9412 41.7193,-19.799 12.0209,19.799 -4.9498,52.3259 6.364,26.87 21.2132,23.3345 32.5269,9.1924 31.8198,8.4853 43.8406,29.6985 33.9411,19.799 55.8615,6.3639 19.799,-36.0624 157.6848,81.3173 -45.2549,65.7609 14.1422,4.2426 33.9411,-12.0208 72.1249,33.234 19.799,3.5356 24.7487,-5.6569 13.435,4.2427 14.8493,-30.4056 36.0624,-14.1422 38.1838,-77.0746 43.1335,-37.4767 20.5061,-32.5269 65.7609,12.728 74.2462,-0.7072 42.4264,-4.9497 12.728,7.7782 43.1335,38.1837 21.2132,11.3137 33.234,-11.3137 35.3553,2.1214 34.6483,-96.1666 33.2339,-4.9497 63.6397,20.5061 18.3848,-3.5355 46.669,31.8198 27.5772,3.5355 5.6568,-14.1421 26.163,6.3639 2.8284,12.7279 50.2046,-2.1213 55.8614,-24.0416 21.2132,2.8284 10.6066,-18.3848 67.8823,-2.8284 84.8528,68.5894 -7.7782,7.071 9.8995,7.0711 -10.6066,52.3259 11.3137,10.6066 23.3345,3.5355 2.1213,14.1422 32.527,-0.7071 0.7071,15.5563 53.033,1.4142 81.3172,-32.5269 4.9498,-24.7487 19.0919,-16.2635 15.5563,16.9706 18.3848,-19.799 26.8701,-65.0538 14.1421,8.4853 52.3259,-57.9828 98.9949,-38.8909 101.1163,96.1666 24.7487,-36.7696 -7.071,-139.3 -52.3259,30.4056 -32.5269,-29.6985 -3.5356,-40.3051 -43.8406,5.6568 2.1213,-31.8198 41.0122,-4.9497 16.9706,-80.6102 15.5563,-0.7071 38.1838,21.2132 41.7193,24.0417 36.0624,62.2253 68.5894,89.8026 67.1751,98.2878 21.9203,-7.071 9.1924,20.5061 79.9031,-47.3762 55.1543,-111.0157 -9.8995,-23.3346 16.2635,-21.2132 13.435,5.6569 43.1335,-103.2376 51.6188,-3.5355 -7.0711,-111.7229 -11.3137,-72.832 -33.234,-81.3173 4.2427,-40.3051 -8.4853,-52.3259 12.7279,-5.6568 10.6066,-30.4056 53.7401,-26.8701 16.2635,-28.2842 34.6482,-12.0208 26.163,-38.8909 90.5096,0 35.3554,43.8406 64.3467,-86.267 27.5771,8.4853 24.7488,16.2634 -18.3848,-88.3883 1.4142,-47.3762 -7.7782,-36.0624 2.8285,-241.8305 -2.8285,-94.7523 -26.87,-43.1336 -72.832,26.163 -77.0747,7.7782 -30.4055,-5.6569 -45.6569,-4.669 -56.5269,32.3015 -105.8284,153.4817 -40.2843,29.3518 -60.3795,13.018 -104.1352,3.1119 -132.3526,-13.0354 -65.8185,3.0134 -75.1923,17.824 -72.0472,-7.4326 -41.1714,-35.9971 -75.8198,-99.8122 18.1491,-50.3905 -33.2327,-20.367 16.6324,-40.7081 -12.2802,-23.1558 -25.1163,49.2974 -16.4785,-2.943 14.7294,-58.9696 -59.9297,-46.6192 -28.2488,25.4422 -32.9585,-60.5929 19.1134,-88.2674 -9.0011,-24.568 6.794,-36.5483 -16.9023,-58.5807 14.9874,-18.4197 -27.5858,-39.0416 -19.7366,-43.4975 -39.1715,-33.2046 -10.364,-71.4178 -16.9718,-70.1507 -62.2254,-43.1335 2.1214,-16.2635 12.0208,-17.6777 1.4142,-26.1629 -23.3345,-26.163 -36.416,-18.7383 z"
     id="path2871"
     style="fill:none;stroke:#000000;stroke-width:1px;stroke-linecap:butt;stroke-linejoin:miter;stroke-opacity:1;display:none" />
  <path
     d="M 3721.3429,1531.5274 3719,1565.5 l -12,54 -1.5,19.5 10.5,46.5 10.6716,33.1949"
     id="path3592"
     style="fill:none;stroke:#ed037c;stroke-width:5;stroke-linecap:butt;stroke-linejoin:round;stroke-miterlimit:4;stroke-opacity:1;stroke-dasharray:none" />
  <path
     d="m 3714.9269,1532.2943 0.2071,18.3847 -1.634,16.821 -13.5,66 -4.5,22 -16.5,28 -23.5,36.5 -23,24.5 -16,20.5 -22,43.5 -15.5,43 -10.5,28 -6,41.5 0.5,35 -3,51.5 -10,68.5 -5.5,30 -7.5,22 1,18.5 10.5,25.5 -1.5,8.5 1,13.5 10.5,16 19.5,26 5.5,16.5 7,24.5 -4.5,15.5 -13,14 -27.5,31.5 -14.5,11.5 -18.5,8.5 -32,13 -29,8.5 -21.5,12 -43,25 -35,26 -46,35.5 -22,7 -38,4.5 -39.5,11.5 -20,21 -13.5,17.5 -38,32.5 -16,15.5 -2,12.5 3.5,15 -4,6.5 -17.5,5.5 -37.5,-2.5 -31.5,1 -43,-4 -16,-4 -12.5,-4.5 -20.5,0.5 -16.5,9.5 -53,58 -16.5,11.5 -19,2.5 -66,-8.5 -26.5,0 -19.5,1.5 -36.5,-4 -47.5,2 -9,-2.5 -15.5,-8 -24,-35 -7,-5.5"
     id="path3594"
     style="fill:none;stroke:#1c3f9f;stroke-width:5;stroke-linecap:butt;stroke-linejoin:miter;stroke-miterlimit:4;stroke-opacity:1;stroke-dasharray:none" />
  <path
     d="m 2786,2006 46.5,-13.5 21.5,-2.5 24.5,1.5 20,11.5 17.5,14 19,24.5 43.5,62 3.5,10.5 -7.5,22 -2,26 7,21 16,18.5 9.5,13 7.5,10 3,17 10,18 18.5,22.5 5,5.5 7.5,1.5 6,-4.5 26,-22.5 6,-6 3,-24 8,-13 16.5,-12 32.5,-15.5 22,-6 21,1.5 21.5,-5.5 35,-14 36,-10 23,-6.5 11,2.5 8,10 6,20 19.5,69 8.5,5.5 7.5,26 7.5,18 5,19.5 27.5,50.5 8.5,6 14,2 14,-4.5 12.5,6 8.5,15 8.5,15 6.5,6 32.5,5 38.5061,-1.5927 45.4939,21.5927 9.5,14 13.5,11.5 16.5,16.5 6,17 0.5,12.5 -5,16 2,8 16,14.5 27.5,16 27.5,15.5 21.5,15.5 41.5,19"
     id="path3600"
     style="fill:none;stroke:#b06111;stroke-width:5;stroke-linecap:butt;stroke-linejoin:round;stroke-miterlimit:4;stroke-opacity:1;stroke-dasharray:none" />
  <path
     d="M 2590.2293,2370.1147 2588,2394 l 0.5,27 3.5,10.5 16.5,13 33.5,13 10.5,4 30,-11 39.5,-15 43.5,-15.5 26,-9 25.5,-10 19.5,-1.5 49.5,-15.5 22.5,-7 33.5,-2.5 46,-7.5 60.5,-11.5 44,-9 135,-21 52.5,-8.5 54.5,-7 62.5,-11 62,-11 53.5,-10.5 30.5,-7 35.5,-9.5 24,2 25.5,-4.5 25.5,-3 15.5,0.5 50.5,9.5 46.5,22.5 39,18 18.5,8 59,14.5 7.5,-2 19.5,-11 17.5,-12 13,-22.5 13,-28"
     id="path3602"
     style="fill:none;stroke:#ee2e24;stroke-width:5;stroke-linecap:butt;stroke-linejoin:round;stroke-miterlimit:4;stroke-opacity:1;stroke-dasharray:none" />
  <path
     d="m 3664,2493 -10,-12 -4,-8 2.5,-10.5 5.5,-8 19.5,-9.5 15.5,-10.5 3,-12 3,-14 12.5,-14.5 12,-15 6.5,-13.5 5,-15.5 10,-6.5 13.5,-1 18.5,-1 30,4 14,-2 52,-15"
     id="path3608"
     style="fill:none;stroke:#88cebb;stroke-width:5;stroke-linecap:butt;stroke-linejoin:miter;stroke-miterlimit:4;stroke-opacity:1;stroke-dasharray:none" />
  <path
     d="m 2870,1415 13.5,7 37,11 19,5 12,8 11.5,12 13,13 20.5,26.5 12,19.5 6.5,18.5 8.5,40.5 6.5,30.5 1,29 0.5,23 3,9.5 31,20.5 53,36.5 23,16.5 24,18 38.5,36.5 38.5,38 22,20 24,15 45,29 20,17.5 17.5,16.5 37.3561,75.0817 L 3415,2021 l 25.5,41 15,23.5 1.5,14 -10,17 -22.5,17 -10.5,14.5 1.5,15.5 35,58 14.5,25 12,22.5 9.5,14.5 14,54 4.05,18.65 8.45,6.85 c -0.5,1.5 1,12.5 1,12.5 l 9,16 21,16.5 11,8.5 12,3.5"
     id="path3610"
     style="fill:none;stroke:#231f20;stroke-width:5;stroke-linecap:butt;stroke-linejoin:miter;stroke-miterlimit:4;stroke-opacity:1;stroke-dasharray:none" />
  <path
     d="m 3463,2110.5 11,-6 51.5,-31 20,-9 24,-10.5 38,-2 79.5,-11 16,-2 25.5,1.5 47.5,20.5 20,12 29,11.5 16,3.5 38.5,17 10,8 9.5,26 5,62.5 -1,21.5 -11.5,38 -10,44.5 1,9 18.5,38 10,31.5 7,38 -3.5,16.5 -14.5,28.5 -20,16 -40.5,31.5 -17,24.5 -27.5,37 -18,43.5 -8,21 -29,38.5 -33,58 -63.5,91 -29,46.5 -58.5,91.5 -32,55 -16,27.5 -19.5,28 -23,16.5 -50.5,28.5 -6.0646,8.4537"
     id="path3612"
     style="fill:none;stroke:#231f20;stroke-width:5;stroke-linecap:butt;stroke-linejoin:miter;stroke-miterlimit:4;stroke-opacity:1;stroke-dasharray:none" />
  <path
     d="m 3147.7414,2215.3594 -28.2842,17.6777 -17.6777,21.9203 -45.9619,42.4264 -31.8198,28.2842 -37.4767,13.4351 -45.9619,4.9497 -27.5772,3.5356 -28.2843,4.9497 -17.6776,11.3137 -7.0711,23.3345 1.4142,21.2132 13.435,53.7402 7.7782,32.5269 12.7279,32.5269 14.8493,17.6776 16.9705,16.2635 6.364,8.4853 5.6568,19.0919 10.6066,14.1421 22.6275,11.3137 19.0918,3.5355 37.4767,2.8285 26.8701,-0.7071 46.669,2.1213 36.7696,3.5355 50.2045,4.2427 21.9204,7.071 33.234,16.2635 31.1127,3.5355 24.0416,-6.3639 15.5564,-12.0209 16.9705,-35.3553 19.0919,-13.435 28.2843,-4.9498 26.87,-13.435 15.5564,-8.4853 12.0208,-11.3137 28.9914,-14.1421 31.1127,0.7071 8.4852,-1.4142 19.0919,-12.728 23.3346,-14.8492 4.9497,-7.0711 6.364,-36.7695 9.1924,-32.5269 18.3847,-36.0625 16.9706,-16.9705 41.7193,-16.9706 18.3848,-2.1213 39.5979,-0.7071 35.3554,0.7071 13.4351,-4.2427 19.0918,-3.4852 36.3553,3.0355 32.5269,-3.4498 36.4767,3.8995 30.4056,8.4853 11.3137,-0.7071 17.6777,-0.7071 12.7279,4.2426 22.6274,12.728 24.7488,1.4142 14.8492,-4.9498 6.364,-11.3136 -6.364,-48.7904 -12.0208,-9.8995 -32.5269,-29.6985 -31.8198,-12.7279 -58.6899,-21.2133 -62.2254,-21.9203 -19.799,0.7071 -22.6274,4.9498 -14.8492,4.9497 -9.8995,-0.7071 -9.8995,-7.071 -8.4853,-13.4351 -13.435,-24.0416 -19.0919,-19.0919 -10.6066,-16.9705 -24.0417,-24.0417 -28.2842,-28.9913 -24.0417,-23.3346 -21.2132,-12.0208 -16.2634,1.3787 -41.0122,19.1274 -82.7315,50.2046 -16.2635,9.8995 -57.9827,22.6274 -25.4559,-0.7071 -42.4264,12.7279 -28.9913,2.1213 -63.6397,17.6777 -65.0538,18.3848"
     id="path3614"
     style="fill:none;stroke:#ffd204;stroke-width:5;stroke-linecap:butt;stroke-linejoin:round;stroke-miterlimit:4;stroke-opacity:1;stroke-dasharray:none" />
  <path
     d="m 2581.556,2623.5169 -13.6421,-118.9508 -0.7071,-37.4767 5.6568,-48.7904 13.4351,-31.8198 11.3137,-12.0208 21.9203,-16.2634 19.799,-16.2635 38.1837,-45.2548 28.2843,-26.8701 22.6274,-9.1924 20.5061,-8.4853 12.0208,-7.7781 22.6275,-28.2843 13.435,-4.9498 16.2634,-1.4142 28.2843,12.728 16.2635,5.6568 38.8908,4.9498 37.4767,6.3639 26.8701,2.1213 23.3345,0.7071 23.3345,4.2427 19.0919,0.7071 21.2132,15.5563 26.87,-2.8284 13.4351,-4.2426 13.0208,-7.2782 12.435,-16.7635 31.8198,-21.3345 70.7107,-20.3848 61.5183,-15.7634 23.1274,-1.9142 44.5833,-12.7635 23.6274,0.8284 L 3422,2140 l 42.5,-24 25,-15.5 37.9961,-23.6158 L 3568,2059 l 20,-0.5 21.5,12 46.5,46.5 31,31 10,16.5 18.5,18 21.5,37.5 8,6 8.5,0.5 35,-9 22,-1.5 66.5,23 89,33.5 12.5,11"
     id="path3616"
     style="fill:none;stroke:#f386a1;stroke-width:5;stroke-linecap:butt;stroke-linejoin:round;stroke-miterlimit:4;stroke-opacity:1;stroke-dasharray:none" />
  <path
     d="m 3236.2574,2180.136 -10.5074,-10.886 -41,-38.75 -34.5,-25.25 -26.25,-23.75 -23,-26.25 -33.25,-42.75 -18.75,-25 -5,-17.5 10,-82 3,-24 -8,-14.5 -20.5,-14.5 -11.5,-15 -11.5,-8 -18.5,-6.5 -36.5,6.5 -28.5,0.5 -62,10.5 -97,-10 -35,-5.5 -104,-26.5 -123,-31 -90,-21.5 -32.6459,-11.4049 L 2322,1694.5 l -44,-21 -34,-15 -107.5,-69 -12.5,-6 -61.5,-24 -28,-17.5 -23.5,-20.5 -18.5,-29 -33.5,-35.5 -31.5,-23.5 -45.5,-24.5 -74.5,-41 -43.5,-22.5 -47.5,-15 -26,-5.5 -50,-2 -46,0.5 -51.5,1.5 -15.5,-4.5 -24,-13.5"
     id="path3620"
     style="fill:none;stroke:#98005d;stroke-width:5;stroke-linecap:butt;stroke-linejoin:round;stroke-miterlimit:4;stroke-opacity:1;stroke-dasharray:none" />
  <path
     d="m 2895.9474,2515.7248 2.5526,6.2752 8.5,12.5 24.5,24.5 5,8 6.5,18.5 10.5,13.5 20.5,10 19.4904,4.5735 34.0096,2.4265 43,-1 30.5,2.5 38,4 53,4 24.5,8 30,15.5 27.5,3.5 24,-7.5 14,-8.5 15.5,-35.5 20,-14.5 28,-6 43,-21 13.5,-12.5 30,-14.5 33,0.5 7.0415,-1.7911 L 3539,2507.5 l 7,-7 7,-41.5 8,-29 17.5,-34.5 18.5,-19 43.5,-18 18.5,-3 59.5,0.5 17.5,-1 10.5,-3 11.5,-2 16.5,-0.5 32.5,2 30.5,-4 35.3001,4.5533 L 3904,2359.5"
     id="path3622"
     style="fill:none;stroke:#00853e;stroke-width:5;stroke-linecap:butt;stroke-linejoin:round;stroke-miterlimit:4;stroke-opacity:1;stroke-dasharray:none" />
  <path
     d="m 3902.5,2359.5 32.5,-0.5 20.5,8 14,9 20.5,1 14.5,-3.5 5.5,-11.5 -4,-28 9,-13 17.5,-7 16,-14 26.5,-18 28,-17 25.5,-13 13.5,-12.5 24,-8 20.5,2 31,-10 44.5,-14.5 37,-13.5 15,-3 28,-4.5 18.5,-9.5 12.5,-7 21.5,-12.5 33.5,-15.5 8.5,-2.5 54.5,-19 16.7991,3.8614 15.7009,14.1386 16,13.5 14,3.5 45.5,0.5 30,-4.5 34.5,-9 22,-10 77,-28 82,-31.5 96,-33.5 70,-28 52.5,-20 61.5,-20.5 88.5,-33 23.5,-9 26.5,-12 31.5,-22.5 15.5,-20 13,-16 21.5,-10 17.5,-1.5 25,5.5 26.5,11.5 29,11 23.5,17 44.5,35 21.5,15 18,9 27.5,1.5 48,-4.5 30,-0.5 234,-30 218.5,-23 74.5,-8 41.5,-9 118.5,-32.5 337,-91.5 49,-18.5 123,-43 58,-20.5 42,-21 31,-17.5 27.5,-8.5 29.5,-4.5 27,-0.5 84,5.5"
     id="path3624"
     style="fill:none;stroke:#00853e;stroke-width:5;stroke-linecap:butt;stroke-linejoin:round;stroke-miterlimit:4;stroke-opacity:1;stroke-dasharray:none" />
  <path
     d="m 2939,2572 -5.5,25.5 -19,26.5 -50.5,54.5 -12.5,9.5 -20,3 -23,-14 -11.5,-8.5 -12,-1.5 -30,13 -19,3 -12.5,1 -35,-5 -34.5,1.5 -17,0.5 -10,-3.5 -11,-5 -22.5,-33.5 -10,-8 -13,-3 -34,0 -27.4124,-2.9202 L 2470,2620.5 l -36.5,-10.5 -42.5,-0.5 -18,-3 -93,-0.5 -44,4.5 -51,7.5 -25.5,-6.5 -21.5,-15.5 -22,-26.5 -30,-21 -8.5,-15.5 -16,-40.5 -55.5,-48 -12,-14 -9.5,-26 -5.5,-32 8,-53.5 -12,-25 -15,-5.5 -20,-0.5 -17.5,8 -68,2"
     id="path3626"
     style="fill:none;stroke:#00853e;stroke-width:5;stroke-linecap:butt;stroke-linejoin:round;stroke-miterlimit:4;stroke-opacity:1;stroke-dasharray:none" />
  <path
     d="m 2189,2616 -29,11.5 -27,8.5 -17,9.5 -16.5,22.5 -9,20 -2.5,27 -5.5,28 -7.5,17.5 -40,60 -16.5,31.5 -8.5,34 -14,69 -11,56.5 -10,23.5 -13.5,23.5 -20,19.5 -19.5,6 -51.5,14 -25.5,4"
     id="path3628"
     style="fill:none;stroke:#00853e;stroke-width:5;stroke-linecap:butt;stroke-linejoin:round;stroke-miterlimit:4;stroke-opacity:1;stroke-dasharray:none" />
  <path
     d="m 2862,2681 -6,18.5 1.5,20 8.5,12.5 12,10.5 18,29 6,17 -3,10.5 -23,25 -15.5,22 -4,20 -11.5,19.5 -66,50.5 -10.5,14.5 -4,17 -3.5,13.5 -15.5,12 -7.5,12.5 -2,24 -3.5,20.5 -9.5,27.5 2,26.5 -3,17 -2.5,17 -2.5,26.5 -10.5,18 -6,12.5 0.5,17 5.5,15 13.5,14 9.5,18 17,32.5 6.5,33 7,50.5 4,51 12,39 24,40 21,27 18,28 4,22.5 -2,30.5 -9,25 -25.5,56 -45,47.5"
     id="path3632"
     style="fill:none;stroke:#00853e;stroke-width:5;stroke-linecap:butt;stroke-linejoin:round;stroke-miterlimit:4;stroke-opacity:1;stroke-dasharray:none" />
  <path
     d="m 2917.5,2619 20,-10 33.5,-1.5"
     id="path3627"
     style="fill:none;stroke:#00853e;stroke-width:5;stroke-linecap:butt;stroke-linejoin:round;stroke-miterlimit:4;stroke-opacity:1;stroke-dasharray:none" />
  <path
     d="m 3587.8598,2268.3924 36.0625,74.9533"
     id="path4733"
     style="fill:none;stroke:#1c3f9f;stroke-width:5;stroke-linecap:butt;stroke-linejoin:round;stroke-miterlimit:4;stroke-opacity:1;stroke-dasharray:none" />
  <path
     d="m 3889.5,2239.5 4,-19 0.5,-35 -3,-82.5 4.5,-27 2,-14.5 -2.5,-40.5 -8.5,-19 -11,-23 -23.5,-36 -34.5,-34 -30.5,-25.5 -24,-26 -10,-21 -11.5,-48 -7.5541,-31.989 L 3727,1717.5"
     id="path4832"
     style="fill:none;stroke:#ed037c;stroke-width:5;stroke-linecap:butt;stroke-linejoin:round;stroke-miterlimit:4;stroke-opacity:1;stroke-dasharray:none" />
  <path
     d="m 2087,2550 25.5,7.5 15.5,-1 14.5,-11 11,-9"
     id="path5590"
     style="fill:none;stroke:#00853e;stroke-width:5;stroke-linecap:butt;stroke-linejoin:round;stroke-miterlimit:4;stroke-opacity:1;stroke-dasharray:none" />
  <path
     d="m 2811,2679 -16,-31 -14.5,-24 -27.5,-21.5 -27,-35.5"
     id="path3630"
     style="fill:none;stroke:#00853e;stroke-width:5;stroke-linecap:butt;stroke-linejoin:round;stroke-miterlimit:4;stroke-opacity:1;stroke-dasharray:none" />
  <path
     d="m 2648,2333 -3.5,22 -4.5,49.5 8.5,43.5 14.5,29 30,50.5 33.5,48"
     id="path5982"
     style="fill:none;stroke:#f386a1;stroke-width:5;stroke-linecap:butt;stroke-linejoin:round;stroke-miterlimit:4;stroke-opacity:1;stroke-dasharray:none" />
  <path
     d="M 2011.9853,2450.8284 1990.5,2445.5 l -16.5,0 -36.5,20.5 -74.5,15.5 -22,9 -46.5,28 -70,23 -44,16.5 -37.5,24 -25.5,28.5 -33,31 -37,29.5 -27,23 -29,38 -29.5,36.5 -17,12.5 -54.5,17 -19,15 -10.5,18 -6,22 0.5,47.5 -9.5,22 -11.5,15.5 -22.5,14 -37.5,16 -30.5,6.5 -38,2 -38,-4 -51.5,-32 -21,-8.5 -23.5,-1 -35,9.5"
     id="path6007"
     style="fill:none;stroke:#00853e;stroke-width:5;stroke-linecap:butt;stroke-linejoin:miter;stroke-miterlimit:4;stroke-opacity:1;stroke-dasharray:none" />
  <path
     d="m 3574.5,2242.5004 1.5,-5.5 17,-9.5 22.5,-11 36.5,-15 11.5,-10.5 10,-34.5 9,-22 19.5,-18 12.5,-22.5 13.5,-19.5 -9,-23.5 0.5,-25.5 22.5,-39.5 7,-19.5 8,-34 -8.5,-45.5 -2,-37.5 1.5,-16 -1,-9.5"
     id="path5729"
     style="fill:none;stroke:#a2c66b;stroke-width:1px;stroke-linecap:butt;stroke-linejoin:round;stroke-opacity:1" />
  <path
     d="m 3609.7801,2376.9337 -0.7071,4.9498 -6.3639,2.4748 -14.1422,13.7886 -8.8388,15.2028 -9.8995,22.2739 -9.1924,28.6378 -6.7175,41.7193 -2.1213,7.7782 2.8284,3.8891 59.0434,3.5355 5.3033,2.8284 8.8388,-2.1213 32.527,24.0416"
     id="path5733"
     style="fill:none;stroke:#a2c66b;stroke-width:1px;stroke-linecap:butt;stroke-linejoin:miter;stroke-opacity:1" />
  <path
     d="m 3661.0454,2546.6393 21.5667,13.0815 25.8094,15.2028 12.0208,6.364 24.3952,16.617 27.2236,9.1924 32.4498,7.5165 25.0563,7.753 69.9246,0.067 19.9099,-4.2556 28.9602,-30.5944 19.9602,-16.6655 24.5,-74.883"
     id="path5737"
     style="fill:none;stroke:#a2c66b;stroke-width:1px;stroke-linecap:butt;stroke-linejoin:miter;stroke-opacity:1" />
  <path
     d="m 3619,2524.5004 -3.5,22.5 -3,11.5 -20.5,14.5 -9.5,34.5 -11,40 -21,89.5 -6,14 -16,19 -17,-2.5 -31,15 -34,15.5 -21,13 -26,26 -33,15.5 -36,34 -15.266,9.3803"
     id="path5922"
     style="fill:none;stroke:#a2c66b;stroke-width:1px;stroke-linecap:butt;stroke-linejoin:miter;stroke-opacity:1" />
  <path
     d="m 3682.5,2559.5 43.5,-5 51.5,-7 1.5,6 -3.5,23 3.5,7 1,9.5 -6.5,16"
     id="path5855"
     style="fill:none;stroke:#a2c66b;stroke-width:1px;stroke-linecap:butt;stroke-linejoin:miter;stroke-opacity:1" />
  <path
     d="m 3575.5,2241.5 8,28.5 6.5,15.5 16.5,34 1.5,14.5 -7,16.5 1.5,12.5 7.5,15.5"
     id="path5727"
     style="fill:none;stroke:#a2c66b;stroke-width:5;stroke-linecap:butt;stroke-linejoin:round;stroke-miterlimit:4;stroke-opacity:1;stroke-dasharray:none" />
  <path
     d="m 3442,1519 2,16 -23,66.5 1.5,15.5 -8,39 -4,17.5 -12.5,26 -3,25.5 -1.5,23 -2,21 -6,37.5 -3.5,18.5 -5,32.5 -5,42 -0.5,34.5"
     id="path3444"
     style="fill:none;stroke:#231f20;stroke-width:5;stroke-linecap:butt;stroke-linejoin:miter;stroke-miterlimit:4;stroke-opacity:1;stroke-dasharray:none" />
  <path
     d="m 2942,2572.5 -2.75,10.5 1.5,4 11.5,15 8,3.25 12.5,-0.5 z"
     id="path3399"
     style="fill:#ffffff;fill-opacity:1;stroke:none" />
  <text
     x="89.453178"
     y="206.96094"
     id="text3019"
     xml:space="preserve"
     style="font-size:143.99993896px;font-style:normal;font-weight:normal;line-height:125%;letter-spacing:0px;word-spacing:0px;fill:#000000;fill-opacity:1;stroke:none;font-family:Sans;-inkscape-font-specification:Sans"><tspan
       x="89.453178"
       y="206.96094"
       id="tspan1">1915</tspan></text>
  <text
     x="89.453133"
     y="4397.9609"
     id="text3019-6"
     xml:space="preserve"
     style="font-size:143.99993896px;font-style:normal;font-weight:normal;line-height:125%;letter-spacing:0px;word-spacing:0px;fill:#000000;fill-opacity:1;stroke:none;font-family:Sans;-inkscape-font-specification:Sans"><tspan
       x="89.453133"
       y="4397.9609"
       id="tspan2"></tspan></text>
  <path
     d="m 3984.5008,1789.0001 11,4 9,8 9.5,12.5 4,11.5 -0.5,27 -1,25 -2.5,31 -2.5,43.5 1.5,95.5 -3,17.5 -6.5,15 -15,18.5 -5.5,18 -1,44 0.1612,18.6673 -8.1612,17.3327 -24.5,30 -9,30.5"
     id="path3899-1"
     style="fill:none;stroke:#f58026;stroke-width:5.00000048;stroke-linecap:butt;stroke-linejoin:round;stroke-miterlimit:4;stroke-opacity:1;stroke-dasharray:none" />
  <path
     d="m 4177.0009,2164.5002 14,-10 8.5,-13.5 -3,-44.5 -5.5,-45 -8,-30 -3,-38.5 -0.5,-30 1.5,-39.5 4,-30 -4.5,-23 -26.5,-81 -11,-25.5 -11,-10.5 -17.5,-20 -39.5,-110.5 -23,-65.5 -15.5,-21.5 -28.5,-30 -15,-19.5 -6.5,-25 -1.5,-25 9.5,-26.5 19,-34 2.5,-27.5 -4,-26.5 -0.5,-25 5.5,-41.5 1.5,-79 9.5,-25 17,-19.5 18,-22.5 4,-13.5 1,-17 -6.5,-27.5 0.5,-67.00013 -7,-78.5 7.5,-33.5 27,-89 51.5,-138.5 10,-29.5 -2.5001,-23.5 -31,-88.5 -5,-52.5 -7,-23.5 -83,-160 -18.5,-33 -29,-35.5"
     id="path4562"
     style="fill:none;stroke:#6e3192;stroke-width:5.00000048;stroke-linecap:butt;stroke-linejoin:round;stroke-miterlimit:4;stroke-opacity:1;stroke-dasharray:none" />
  <path
     d="m 4147.5009,1766.5002 1.5,-18 11,-18.5 8.5,-20.5 3,-24 -0.5,-33.5 0,-26.5 5,-16.5 9.5,-16 40,-59 18.5,-37 16.5,-42 25.5,-46.5 21,-25.5 101,-87.5 40,-20.5 72.5001,-14.5 92,-15 29,-7 20.5,-15 24.5,-10 17,-6.5 14.5,-12.5 11.5,-17.5 2,-25.5 -8.5,-43.5 -17.5,-46.5 -2.5,-34 2.5,-53.00013 25.5,-98.5 7.5,-53.5 12.5,-74 -0.5,-28.5 -2,-41 6,-39 18,-63 58,-94.5"
     id="path4564"
     style="fill:none;stroke:#6e3192;stroke-width:5.00000048;stroke-linecap:butt;stroke-linejoin:round;stroke-miterlimit:4;stroke-opacity:1;stroke-dasharray:none" />
  <path
     d="m 4018.0008,1828.5002 6.033,-10.2716 14.5124,-11.3871 14.9546,-5.3413 13.4141,-2.4269 124.0859,9.9269 23.5,-1 31.5,-4 70,4.5 52.5,3 27,3.5 31,15.5 25.5,25 15,21.5 8.5,20.5 7,30.5 4,40 8.5,33.5 12.5001,31.5 9.75,22.75 5.25,17.75 8,19.25 46.8985,115.8076 12.6015,31.9423 6.5,31 1.5,12"
     id="path3628-0-3"
     style="fill:none;stroke:#f58026;stroke-width:5.00000048;stroke-linecap:butt;stroke-linejoin:round;stroke-miterlimit:4;stroke-opacity:1;stroke-dasharray:none" />
  <path
     d="m 3651.0007,2482.5001 -12.5,25 -1.5,40 -3.5,32 -9.5,33 -19,30 -33.5,36.5 -6.5,21 -0.5,26.5 -3,23.5 -10.5,27 -14.5,19 -34,19 -144.5,84 -124.5,86 -73.5001,50.5 -54.5,34.5 -67.5,27.5 -31.5,13 -86.5,26.5 -70.5,2 -58,7 -45,4 -56.5,-10.5 -37,-12 -34,-16.5 -23.5,-15.5 -139.5001,-43.5 -70,-22.5 -53.5,-4 -60.5,3 -41,2.5 -47,-8 -30.5,4 -171.5,42.5 -38.75,13 -73.7501,20.75 -25,3.25 -38,-6.5 -20.5,2.5 -16,9 -23,21.5 -102.5,117 -31,27.5 -39,23"
     id="path4566"
     style="fill:none;stroke:#800000;stroke-width:5.00000048;stroke-linecap:butt;stroke-linejoin:round;stroke-miterlimit:4;stroke-opacity:1;stroke-dasharray:none" />
  <path
     d="m 3956.1118,2264.1571 13.8891,-45.1569 11,-17 28,-14.5 65.5,-11.5 59,-7 57,-5 53,-17 46,-20 65,-13.5 57,-19.5 34.5,-12.5 47.5,-8 20.7501,-6.75 9.25,-7.75 10.25,-10 30.5,-25.25 46.5,-37 32.25,-32.5 31.75,-42.75 29,-33.75"
     id="path4560"
     style="fill:none;stroke:#6e3192;stroke-width:5.00000048;stroke-linecap:butt;stroke-linejoin:round;stroke-miterlimit:4;stroke-opacity:1;stroke-dasharray:none" />
  <path
     d="m 3885.0008,2444.5001 15,0.5 21,9 22.5,24.5 36,31 90.5,77 68,49.5 91.5,64.5 94,62 38,22.5"
     id="path4595-7"
     style="fill:none;stroke:#176fc1;stroke-width:5.00000048;stroke-linecap:butt;stroke-linejoin:round;stroke-miterlimit:4;stroke-opacity:1;stroke-dasharray:none" />
  <path
     d="m 3886.165,2444.5001 -14.6642,-0.75 -11,-3.25 -7.5,-10.5 -0.5,-10.25 9.25,-24.5 7.25,-30.25 4.5,-13.75"
     id="path4601"
     style="fill:none;stroke:#176fc1;stroke-width:5.00000048;stroke-linecap:butt;stroke-linejoin:round;stroke-miterlimit:4;stroke-opacity:1;stroke-dasharray:none" />
  <path
     d="m 4357.2508,2782.0001 16,15.5 13.25,21.25 27.25,65.25"
     id="path4597"
     style="fill:none;stroke:#176fc1;stroke-width:5.00000048;stroke-linecap:butt;stroke-linejoin:round;stroke-miterlimit:4;stroke-opacity:1;stroke-dasharray:none" />
  <path
     d="m 3981.5008,2354.0001 44.4984,13.4859 15.5016,-0.4859 20,-1.5 54.5,-4.5 29,-1 19,-5.5 34,-2 71.5,-3.5 77,-4.5 25.5,-0.5 23,3 42,15 29,15.5 22.5,15.5 21.0001,10 11.5,2.5 15,-2 13,4.5 32.5,7 10,2.5 31,-1.5 17,-0.5 39.5,-8.5 36,1.5 26,-8.5"
     id="path4319"
     style="fill:none;stroke:#02b1b0;stroke-width:5.00000048;stroke-linecap:butt;stroke-linejoin:round;stroke-miterlimit:4;stroke-opacity:1;stroke-dasharray:none" />
  <path
     d="m 3711.0241,1533.502 -2.5236,34.7483 -3.5,21 -3.5,14.5"
     id="path4832-7"
     style="fill:none;stroke:#f58026;stroke-width:4.99999857;stroke-linecap:butt;stroke-linejoin:round;stroke-miterlimit:4;stroke-opacity:1;stroke-dasharray:none" />
  <path
     d="m 3701.0005,1601.5003 -7.5,37 -6.5,19 -15,26.5 -14,21 -11.5,18 -23.5,24 -23,36.5 -10.5,20.5 -15.4999,45.5 -13,35 -2.5,35 -0.5,41.5 -3,48 -11,25"
     id="path4288"
     style="fill:none;stroke:#f58026;stroke-width:4.99999857;stroke-linecap:butt;stroke-linejoin:round;stroke-miterlimit:4;stroke-opacity:1;stroke-dasharray:none" />
  <path
     d="m 3898.9679,2256.7281 -87.9594,-30.7621 -19.6274,0.7071 -34.7843,9.1924 -13.6421,0.4142 -11.7279,-7.6569 -13.6777,-20.8345 -9.6924,-19.5919 -17.8848,-15.7634 -10.8137,-18.5919 -76.332,-75.5391 -18.9705,-11.3137 -14.6777,0.5502 -19.2298,-9.3642 -6.1395,-10.7442 0.9152,-14.5376"
     id="path3620-0"
     style="fill:none;stroke:#f58026;stroke-width:5.00000048;stroke-linecap:butt;stroke-linejoin:round;stroke-miterlimit:4;stroke-opacity:1;stroke-dasharray:none" />
  <path
     d="m 4621.5009,2415.4999 11.1047,8.2282 0.1514,14.9631 -16.9448,25.0407 -12.3113,77.268 -0.5,20 -6,36.5 -1.5,40 -4.5,27.5 2.5,10.5 7,10 23.5,21 11.0294,10.7972"
     id="path4325"
     style="fill:none;stroke:#02b1b0;stroke-width:5.00000048;stroke-linecap:butt;stroke-linejoin:round;stroke-miterlimit:4;stroke-opacity:1;stroke-dasharray:none" />
  <path
     d="m 4283.4403,2641.985 -14.9403,-39.4851 -9,-41 -13.5,-30.5 -30,-42.5 -15.5,-24.5 -7,-42.5 -3.5,-46.5 0,-47.5 1.5,-32 -3.5,-28.5 -11.5,-23 -21,-10.5"
     id="path3899-4"
     style="fill:none;stroke:#f386a1;stroke-width:5;stroke-linecap:butt;stroke-linejoin:round;stroke-miterlimit:4;stroke-opacity:1;stroke-dasharray:none" />
  <path
     d="m 3977,2282.5002 22,19.5 22,3.5 14.5,-3 10,-6 22.5,-16 45.5,-26.5 12,-5.5 11,-10.5 9.4635,-4.8504 14.5365,2.3504"
     id="path3224"
     style="fill:none;stroke:#f386a1;stroke-width:5;stroke-linecap:butt;stroke-linejoin:miter;stroke-miterlimit:4;stroke-opacity:1;stroke-dasharray:none" />
  <path
     d="m 4174.9996,2661.25 29,37.75 14.5,27 6.5,17.5 4.5,29 2.5,29.5 -6,35.5 -27,66.5 -17.5,42 -15,20 -24.5,17 -15.75,3.5 -31.25,3.75 -19.25,5.5 -22.75,11.25 -21.5,4.75 -21,4.25"
     id="path4720-0"
     style="fill:none;stroke:#176fc1;stroke-width:5;stroke-linecap:butt;stroke-linejoin:round;stroke-miterlimit:4;stroke-opacity:1;stroke-dasharray:none" />
  <path
     d="m 3353,2600 -35.5,73.5 -3,25.5 8,31 3.5,31.5 -2.5,37.5"
     id="path4708"
     style="fill:none;stroke:#005000;stroke-width:5;stroke-linecap:butt;stroke-linejoin:round;stroke-miterlimit:4;stroke-opacity:1;stroke-dasharray:none" />
  <path
     d="m 4013.5,1274.5 -2.5,-17.5 -9,-10.5 -9,-5 -77.5,-15.5 -14,-9 -29.5,-29 -46.5,-35.5 -72,-48.5 -59.5,-32 -47,-31.5 -23.5,-17 -26.5,-26"
     id="path3415"
     style="fill:none;stroke:#6e3192;stroke-width:5;stroke-linecap:butt;stroke-linejoin:round;stroke-miterlimit:4;stroke-opacity:1;stroke-dasharray:none" />
  <path
     d="m 2398,2057.5 7.5,-15.5 12.5,-9.5 27,-4.5 62.5,-1 51.5,-4 37,-4.5 45,-20.5 32.5,-28.5 58,-69 19.5,-26.5 37.5,-29 36,-19.5 37,-11 44,-11 52.5,-26.5 34.5,-23.5 65,-27.5 85,-38.5 37,-14 65.5,-7 30,7 26.5,17.5 16.5,24 8,29 -0.5,32 6,32 3.5,29 7,30 17.5,15.5 23.5,3.5 21.5,1 48.5,11.5 69,3 22,-2.5 58,-22 130.5,-50.5 96,-33.5 27.5,-9 35.5,-5 33,1.5 38.3925,5.2083 23.4324,3.8064"
     id="path3628-0"
     style="fill:none;stroke:#f58026;stroke-width:5;stroke-linecap:butt;stroke-linejoin:round;stroke-miterlimit:4;stroke-opacity:1;stroke-dasharray:none" />
  <path
     d="m 4341.5,2346.5 21.5,-13.5 132.5,-142.5 17.5,-19 16.5,-9 27,-0.5 38,0.5 23,-3 19,-3.5 30,-8 73.5,-29 10,-3.5 6.5,0 12.5,7.5 6.5,7.5 2.5,22 -2,44.5 1.5,35.5 8,35.5 32,57.5 12,36 13.5,20 26.5,14 19.5,-0.5 48.5,-9.5 51,-2"
     id="path8099"
     style="fill:none;stroke:#02b1b0;stroke-width:5;stroke-linecap:butt;stroke-linejoin:round;stroke-miterlimit:4;stroke-opacity:1;stroke-dasharray:none" />
  <path
     d="m 3323,2799 -1,79.5 0,23.5 -10.5,40 -7.5,13 -12.5,13.75 -13.75,9 -15.75,5 -24.5,5.25 -71,48.25 -41.5,28.25 -18.25,20 -9.25,16.75 -15.25,57 2.25,33.75 6,22.5 42.5,80.5 26.5,53 18,19 19.5,15.5 22.5,8 169,52 165.5,51 91,9.5 28,-2.75 21.75,10 18.5,22.25 12.25,31 15.5,16.5 25.5,10.5 26.5,18.5 27.5,30.5 20.5,10 38,12.5 28,15 46.5,28.5 13,17 12,21 14.5,18 29,16 9.6176,11.3995 8.6324,6.3505"
     id="path4714"
     style="fill:none;stroke:#005000;stroke-width:5;stroke-linecap:butt;stroke-linejoin:round;stroke-miterlimit:4;stroke-opacity:1;stroke-dasharray:none" />
  <path
     d="m 2765.5,3744.5 45,-47.5 25.5,-56 9,-25 2,-30.5 -4,-27.5 -16.5,-27 -21.5,-27.5 -24.5,-38 -11.5,-38.5 -4,-51 -6.5,-48.5 -7.5,-39.5 -17,-29.5 -11,-21.5 -13,-12 -4,-11 -1.5,-16 6,-12.5 10.5,-18 7,-11.5 21.5,-13.5 19.5,-2 40.5,2"
     id="path3522"
     style="fill:none;stroke:#800000;stroke-width:5;stroke-linecap:butt;stroke-linejoin:round;stroke-miterlimit:4;stroke-opacity:1;stroke-dasharray:none" />
  <path
     d="m 4361.5,2785 109.5,65.5 25,10.5 46.5,6.5 28,-1 24,-0.5 14.5,-2.5 15,-11 22,-13.5 11.5,-14.5 32,-18 16,-4 54.5,-5 17.5,1.5 18,-2 57.5,-13 92,-14.5 25,-3 15.5,-10 27,-16.5 39,-9.5 92.5,-50 28,-17.5 22.5,-6 23.5,0 36,10 16,4.5"
     id="path4595-7-7"
     style="fill:none;stroke:#176fc1;stroke-width:5;stroke-linecap:butt;stroke-linejoin:round;stroke-miterlimit:4;stroke-opacity:1;stroke-dasharray:none" />
  <path
     d="m 4025.2496,3013 -24.75,0.5 -32,-9.25 -29.25,-0.25 -26.5,7.75 -54.3114,25.3486 -38.1886,20.4014 -25,10 -51.5,9 -20.25,7.25 -39.25,11.75 -31.25,3.25 -31.5,-13 -6,-1.5 -24.5,0 -31.75,5.75 -23,2.25 -23,-4.5 -32.25,-23.25 -23.75,-20.25 -23.25,-24.75 -32,-44.25 -31.5,-21.75 -19.25,-22 -21.75,-35 -2.75,-19.25 1.7504,-78.7499 2,-35 -4,-36.5 -7,-28.5 3,-24.5 35.5,-72.5"
     id="path5405"
     style="fill:none;stroke:#176fc1;stroke-width:5;stroke-linecap:butt;stroke-linejoin:round;stroke-miterlimit:4;stroke-opacity:1;stroke-dasharray:none" />
  <path
     d="m 3540.5007,2411.7501 29.5,23.75 31,13.5 50,20.25 14.25,3.5 29.25,-3.75 21,-3 53.5,4.5 51,-2.5 15,-1.5 10.8973,-5.0595 7.9104,-9.3547 2.4214,-6.7709 -2.1285,-14.3544"
     id="path3815"
     style="fill:none;stroke:#176fc1;stroke-width:5.00000048;stroke-linecap:butt;stroke-linejoin:round;stroke-miterlimit:4;stroke-opacity:1;stroke-dasharray:none" />
</svg>
