<svg xmlns="http://www.w3.org/2000/svg" height="2300" width="2300"><path d="m130.75 1831.35 18.12-5.18.58-.25 10.5-6.18.73-.65 6.47-8.63.31-.55 18.61-45.24 4.42-6.97 8.88-7.5 33.34-26.58.08-.07 35.97-31.25 52.87-35.05 10.36-2.62 41.26-9.92.03-.01 27.18-6.9" style="color:#000;font-style:normal;font-variant:normal;font-weight:400;font-stretch:normal;font-size:medium;line-height:normal;font-family:sans-serif;font-variant-ligatures:normal;font-variant-position:normal;font-variant-caps:normal;font-variant-numeric:normal;font-variant-alternates:normal;font-feature-settings:normal;text-indent:0;text-align:start;text-decoration:none;text-decoration-line:none;text-decoration-style:solid;text-decoration-color:#000;letter-spacing:normal;word-spacing:normal;text-transform:none;writing-mode:lr-tb;direction:ltr;text-orientation:mixed;dominant-baseline:auto;baseline-shift:baseline;text-anchor:start;white-space:normal;shape-padding:0;clip-rule:nonzero;display:inline;overflow:visible;visibility:visible;opacity:1;isolation:auto;mix-blend-mode:normal;color-interpolation:sRGB;color-interpolation-filters:linearRGB;solid-color:#000;solid-opacity:1;vector-effect:none;fill:none;fill-opacity:1;fill-rule:nonzero;stroke:#8dc63f;stroke-width:5;stroke-linecap:butt;stroke-linejoin:round;stroke-miterlimit:4;stroke-dasharray:none;stroke-dashoffset:0;stroke-opacity:1;color-rendering:auto;image-rendering:auto;shape-rendering:auto;text-rendering:auto;enable-background:accumulate"/><path d="m399.25 1632.94-27.17 6.9-41.26 9.92-.3.01-10.79 2.73-.77.34-53.36 35.38-.26.2-36.06 31.32-33.32 26.57-.5.04-9.21 7.77-.5.57-4.75 7.48-.2.39-18.58 45.15-5.98 7.97-9.79 5.77-17.81 5.09" style="color:#000;font-style:normal;font-variant:normal;font-weight:400;font-stretch:normal;font-size:medium;line-height:normal;font-family:sans-serif;font-variant-ligatures:normal;font-variant-position:normal;font-variant-caps:normal;font-variant-numeric:normal;font-variant-alternates:normal;font-feature-settings:normal;text-indent:0;text-align:start;text-decoration:none;text-decoration-line:none;text-decoration-style:solid;text-decoration-color:#000;letter-spacing:normal;word-spacing:normal;text-transform:none;writing-mode:lr-tb;direction:ltr;text-orientation:mixed;dominant-baseline:auto;baseline-shift:baseline;text-anchor:start;white-space:normal;shape-padding:0;clip-rule:nonzero;display:inline;overflow:visible;visibility:visible;opacity:1;isolation:auto;mix-blend-mode:normal;color-interpolation:sRGB;color-interpolation-filters:linearRGB;solid-color:#000;solid-opacity:1;vector-effect:none;fill:none;fill-opacity:1;fill-rule:nonzero;stroke:#00a651;stroke-width:5;stroke-linecap:butt;stroke-linejoin:round;stroke-miterlimit:4;stroke-dasharray:none;stroke-dashoffset:0;stroke-opacity:1;color-rendering:auto;image-rendering:auto;shape-rendering:auto;text-rendering:auto;enable-background:accumulate"/><path d="m400.06 1635.83 18.27-7.77c.03-.1.06-.3.09-.05l7.48-5.18c.03-.2.05-.4.07-.06l70.17-72.62 34.07-31.2.03-.03 37.39-40.7.01-.01 34.8-40.41 5.11-1.12 48.92 21.56 9.46 12.1 5.19 8.24 3.71.7913.09-7.71 12.79-10.45 32.58-26.42 4.71-5.15.21-.14 3.11-1.04.36.02 8.09 3.63 4.81-0.76.5-6.44.88-8.8-.07-7.44-5.65-7.64-8.71-6.57-.16-.2-2.14-4.79-.02-.06-3.25-10.42-2.72-4.15-.08-.33.47-4.32.09-.24 5.57-7.75 6.17-9.51.05-.06 5.32-5.88-.78-10.43.05-.26 1.65-3.38.05-.09 12.66-16.32 4.42-0.560.669.92 3.67.363.6-6.4 11.07-14.17 6.11-6.83 11.79-6.11 20.78-6.9 15.24-2.59 28.19-0.87.26-24.59 2.16-14.81 54.36-121.09 16.25-50.05 2.44-6.18 1.44-0.860.472.16 1.29 2.16-0.58.03-3.74.58-4.89-1.01-2.44 1.73" style="color:#000;font-style:normal;font-variant:normal;font-weight:400;font-stretch:normal;font-size:medium;line-height:normal;font-family:sans-serif;font-variant-ligatures:normal;font-variant-position:normal;font-variant-caps:normal;font-variant-numeric:normal;font-variant-alternates:normal;font-feature-settings:normal;text-indent:0;text-align:start;text-decoration:none;text-decoration-line:none;text-decoration-style:solid;text-decoration-color:#000;letter-spacing:normal;word-spacing:normal;text-transform:none;writing-mode:lr-tb;direction:ltr;text-orientation:mixed;dominant-baseline:auto;baseline-shift:baseline;text-anchor:start;white-space:normal;shape-padding:0;clip-rule:nonzero;display:inline;overflow:visible;visibility:visible;opacity:1;isolation:auto;mix-blend-mode:normal;color-interpolation:sRGB;color-interpolation-filters:linearRGB;solid-color:#000;solid-opacity:1;vector-effect:none;fill:none;fill-opacity:1;fill-rule:nonzero;stroke:#8dc63f;stroke-width:1;stroke-linecap:butt;stroke-linejoin:round;stroke-miterlimit:4;stroke-dasharray:none;stroke-dashoffset:0;stroke-opacity:1;color-rendering:auto;image-rendering:auto;shape-rendering:auto;text-rendering:auto;enable-background:accumulate"/><path d="m844.48 1824.7-.43-6.18 7.78-25.4-1.42-5.49-8.54-4.07-9.56-4.47-5.08-6.51-8.95-21.97-20.55-36.61-29.29-57.15-15.46-38.04-6.51-12.81-93.97-93.97-.81-3.05 8.75-14.64 6.51-9.81 8.39-4.3 13.12-7.73.06-.04 12.81-10.47 32.61-26.44.05-.05 4.65-5.09 2.8-0.950.053.61.28.04 5.09-.79.25-0.13.76-6.66.17-.33.91-9.03v-.06l-.08-7.63-.1-.29-5.79-7.83-.1-.1-8.67-6.53-2.08-4.65-3.26-10.46-.06-.12-2.66-4.06.43-4.01 5.5-7.65.01-.02 6.16-9.48 5.44-6.01.13-.37-.78-10.51 1.57-3.21 12.48-15.99 3.53-0.520.7912.62 38.03 9.66 6.1 1.12 3.15 8.14 37.53 25.02 5.39-0.71.17-11.08 43.42-26.44 53.49-23.59 47.9-11.08 57.86-29.8 19.02-1.02 5.9-0.33.11-2.01 4.76-4.88 14.85-16.68 10.58-21.66 5.19-5.39 6.71-3.66 18.61-4.68 9.56-4.07 11.59-6.71 86.03-25.42 13.53.515.59-0.51.36-1.83.81-3.86-1.73-4.88-8.03-14.24-2.34-7.53.61-39.05-2.34-8.95-3.56-8.44.81-6.31 33.05-56.54 3.97-2.34h51.46l9.97-6.51 4.58-6.1 169.42-289.53 2.64-8.95 2.24-32.64-1.63-9.97-7.53-26.24-1.83-13.53-.11-7.82-.09-6.21" style="color:#000;font-style:normal;font-variant:normal;font-weight:400;font-stretch:normal;font-size:medium;line-height:normal;font-family:sans-serif;font-variant-ligatures:normal;font-variant-position:normal;font-variant-caps:normal;font-variant-numeric:normal;font-variant-alternates:normal;font-feature-settings:normal;text-indent:0;text-align:start;text-decoration:none;text-decoration-line:none;text-decoration-style:solid;text-decoration-color:#000;letter-spacing:normal;word-spacing:normal;text-transform:none;writing-mode:lr-tb;direction:ltr;text-orientation:mixed;dominant-baseline:auto;baseline-shift:baseline;text-anchor:start;white-space:normal;shape-padding:0;clip-rule:nonzero;display:inline;overflow:visible;visibility:visible;opacity:1;isolation:auto;mix-blend-mode:normal;color-interpolation:sRGB;color-interpolation-filters:linearRGB;solid-color:#000;solid-opacity:1;vector-effect:none;fill:none;fill-opacity:1;fill-rule:nonzero;stroke:#ed1d24;stroke-width:1;stroke-linecap:butt;stroke-linejoin:round;stroke-miterlimit:4;stroke-dasharray:none;stroke-dashoffset:0;stroke-opacity:1;color-rendering:auto;image-rendering:auto;shape-rendering:auto;text-rendering:auto;enable-background:accumulate"/><path d="m399.67 1634.91 18.22-7.75 7.39-5.12 70.15-72.59.02-.02 34.07-31.19 37.37-40.68 34.8-40.41 64.44-69.72 26.34-22.58 11.08-9.97 15.15-10.58 7.93-10.68 18-17.19 4.78-0.710.7621.79 15.87 12.66 37.57 9.54 6.29 1.24 2.8 7.77 38.33 25.46 5.97-0.72.92-10.93 43.98-26.75 53.21-23.44 47.53-11.06.32-29.84 19.23-1.04 5.89 9.81 41.49 40.88 128.64 108.51 5.9-0.61.66-33.97 9.36-11.9 10.47-7.63 19.83-8.85 27.36-3.86 51.36.7177.59-5.39 60.41 2.64 34.78 10.88 68.75 1.53" style="color:#000;font-style:normal;font-variant:normal;font-weight:400;font-stretch:normal;font-size:medium;line-height:normal;font-family:sans-serif;font-variant-ligatures:normal;font-variant-position:normal;font-variant-caps:normal;font-variant-numeric:normal;font-variant-alternates:normal;font-feature-settings:normal;text-indent:0;text-align:start;text-decoration:none;text-decoration-line:none;text-decoration-style:solid;text-decoration-color:#000;letter-spacing:normal;word-spacing:normal;text-transform:none;writing-mode:lr-tb;direction:ltr;text-orientation:mixed;dominant-baseline:auto;baseline-shift:baseline;text-anchor:start;white-space:normal;shape-padding:0;clip-rule:nonzero;display:inline;overflow:visible;visibility:visible;opacity:1;isolation:auto;mix-blend-mode:normal;color-interpolation:sRGB;color-interpolation-filters:linearRGB;solid-color:#000;solid-opacity:1;vector-effect:none;fill:none;fill-opacity:1;fill-rule:nonzero;stroke:#00a651;stroke-width:1;stroke-linecap:butt;stroke-linejoin:round;stroke-miterlimit:4;stroke-dasharray:none;stroke-dashoffset:0;stroke-opacity:1;color-rendering:auto;image-rendering:auto;shape-rendering:auto;text-rendering:auto;enable-background:accumulate"/><path d="m1683.69 1373.22 41.59.9222.78 2.03 29.49 5.19 9.25 3.66 9.66 7.63 36.1 49.42 5.19 4.68 9.36 3.76 8.14.719.25-0.52.39-18.92 14.34-0.710.252.54 12.92 6.41 13.93 11.49 12.1 14.14 7.32 11.59 18.61 37.93.517.42-2.44 8.64-7.73 17.49-0.720.421.22 9.76 1.53 19.63" style="opacity:1;fill:none;fill-opacity:.4;fill-rule:nonzero;stroke:#00a651;stroke-width:5;stroke-linecap:butt;stroke-linejoin:round;stroke-miterlimit:4;stroke-dasharray:none;stroke-opacity:1"/><path d="m844.48 1824.7 2.66 3.6 25.53 13.02 13.38 7.55 5.03 5.61 6.9 10.07 3.02 10.43v9.35l-1.22 8.92-3.81 10.79-32.22 73.71-1.29 10.07 1.65 8.49 2.8 8.05 5.61 7.69 8.34 5.39 15.89 4.03 18.05 6.04 87.8 44.73 8.7 6.76 4.96 6.9 3.38 6.76 1.29 6.83-1.65 9.13-12.73 30.56-0.22.61" style="opacity:1;fill:none;fill-opacity:.4;fill-rule:nonzero;stroke:#ed1d24;stroke-width:5;stroke-linecap:butt;stroke-linejoin:round;stroke-miterlimit:4;stroke-dasharray:none;stroke-opacity:1"/><text x="89.45" y="206.96" xml:space="preserve" style="font-style:normal;font-weight:400;font-size:144px;line-height:125%;font-family:Sans;-inkscape-font-specification:Sans;letter-spacing:0;word-spacing:0;fill:#000;fill-opacity:1;stroke:none"><tspan x="89.45" y="206.96">2005</tspan></text></svg>