<?xml version="1.0" encoding="UTF-8" standalone="no"?>
<svg
   xmlns:dc="http://purl.org/dc/elements/1.1/"
   xmlns:cc="http://creativecommons.org/ns#"
   xmlns:rdf="http://www.w3.org/1999/02/22-rdf-syntax-ns#"
   xmlns:svg="http://www.w3.org/2000/svg"
   xmlns="http://www.w3.org/2000/svg"
   xmlns:xlink="http://www.w3.org/1999/xlink"
   viewBox="0 -600 3600 4050"
   height="4050"
   width="3600"
   id="svg2"
   version="1.1">
  <metadata
     id="metadata8">
    <rdf:RDF>
      <cc:Work
         rdf:about="">
        <dc:format>image/svg+xml</dc:format>
        <dc:type
           rdf:resource="http://purl.org/dc/dcmitype/StillImage" />
        <dc:title></dc:title>
      </cc:Work>
    </rdf:RDF>
  </metadata>
  <defs
     id="defs6" />
  <image
     style="display:none"
     y="53"
     x="-125"
     id="image10"
     xlink:href="file:///home/lexande/timelines/timelines/streetmap/../streetmap/sheosm.png"
     preserveAspectRatio="none"
     height="3522"
     width="3522" />
  <path
     id="path819"
     d="m 122.73,2442.19 475.05,1.9 42.71,-0.47 176.54,-43.66 9.02,-5.69 173.22,-167.05 5.22,-8.07 4.75,-45.08 v -232.54 l 1.42,-26.1 13.76,-16.14 18.98,-8.54 115.8,-7.59 14.71,-5.22 62.17,-35.59 28.47,-8.54 120.07,2.37 183.66,58.37 233.02,135.73 11.86,2.37 h 9.49 l 7.12,-6.17 38.92,-62.64 13.29,-9.97 13.76,-3.32 9.02,3.8 40.34,22.31 99.19,29.42 163.25,93.97 11.86,2.37 238.71,-68.81 54.58,-20.88 236.81,-111.53 33.22,-9.02 43.66,-0.47 82.58,-22.31 195.05,-91.12 64.07,-7.12 130.51,15.19"
     style="opacity:1;fill:none;fill-opacity:0.38;fill-rule:nonzero;stroke:#b4371b;stroke-width:5;stroke-linecap:butt;stroke-linejoin:round;stroke-miterlimit:4;stroke-dasharray:none;stroke-opacity:1" />
  <text
     x="89.45"
     y="-393.04"
     id="text2992"
     xml:space="preserve"
     style="font-style:normal;font-weight:normal;font-size:144.0px;line-height:125%;font-family:Sans;-inkscape-font-specification:Sans;letter-spacing:0px;word-spacing:0px;fill:#000000;fill-opacity:1;stroke:none"><tspan
       x="89.45"
       y="-393.04"
       id="tspan1">2010</tspan></text>
</svg>
