<?xml version="1.0" encoding="UTF-8" standalone="no"?>
<svg
   xmlns:dc="http://purl.org/dc/elements/1.1/"
   xmlns:cc="http://creativecommons.org/ns#"
   xmlns:rdf="http://www.w3.org/1999/02/22-rdf-syntax-ns#"
   xmlns:svg="http://www.w3.org/2000/svg"
   xmlns="http://www.w3.org/2000/svg"
   xmlns:xlink="http://www.w3.org/1999/xlink"
   version="1.1"
   id="svg2"
   width="3600"
   height="5300"
   viewBox="0 -600 3600 5300">
  <metadata
     id="metadata8">
    <rdf:RDF>
      <cc:Work
         rdf:about="">
        <dc:format>image/svg+xml</dc:format>
        <dc:type
           rdf:resource="http://purl.org/dc/dcmitype/StillImage" />
        <dc:title></dc:title>
      </cc:Work>
    </rdf:RDF>
  </metadata>
  <defs
     id="defs6" />
  <image
     style="display:none"
     width="5534.57"
     height="5283"
     preserveAspectRatio="none"
     xlink:href="../basemap/sheosm.png"
     id="image10"
     x="-125"
     y="-701.71" />
  <path
     style="opacity:1;fill:none;fill-opacity:0.38;fill-rule:nonzero;stroke:#eb7c30;stroke-width:5;stroke-linecap:butt;stroke-linejoin:round;stroke-miterlimit:4;stroke-dasharray:none;stroke-opacity:1"
     d="m 2123.54,102.53 13.29,21.83 22.78,54.58 39.39,102.03 31.32,74.98 28,125.76 28.47,442.78 22.31,373.49 5.22,8.07 8.07,6.64 16.14,3.32 58.37,-2.85 10.92,5.22 4.27,4.75 1.9,9.02 2.85,50.31 7.59,31.32 6.17,97.76 -2.37,14.24 -7.59,26.58 1.9,38.44 3.8,10.92 12.81,14.71 5.69,4.27 69.76,33.22 11.39,12.34 11.86,11.86 4.27,16.14 v 13.29 l -10.44,19.93 -35.59,63.12 -5.22,20.88 -29.42,62.17 -13.76,46.98 9.02,95.86 29.9,96.34 12.34,37.49 -9.02,177.49 -2.37,60.75 7.59,130.03 6.17,35.12 21.83,44.14 13.76,20.88 161.36,167.53 18.98,26.58 9.49,26.1 4.75,32.27 0.95,76.88 6.17,39.86 16.61,43.66 37.49,107.25 45.56,84 23.73,37.49 20.88,25.63 29.42,21.83 19.93,9.02 69.76,1.9 15.19,4.75 13.76,8.54"
     id="path817" />
  <path
     style="opacity:1;fill:none;fill-opacity:0.38;fill-rule:nonzero;stroke:#cc3314;stroke-width:5;stroke-linecap:butt;stroke-linejoin:round;stroke-miterlimit:4;stroke-dasharray:none;stroke-opacity:1"
     d="m 122.73,2442.19 475.05,1.9 42.71,-0.47 176.54,-43.66 9.02,-5.69 173.22,-167.05 5.22,-8.07 4.75,-45.08 v -232.54 l 1.42,-26.1 13.76,-16.14 18.98,-8.54 115.8,-7.59 14.71,-5.22 62.17,-35.59 28.47,-8.54 120.07,2.37 183.66,58.37 233.02,135.73 11.86,2.37 h 9.49 l 7.12,-6.17 38.92,-62.64 13.29,-9.97 13.76,-3.32 9.02,3.8 40.34,22.31 99.19,29.42 163.25,93.97 11.86,2.37 238.71,-68.81 54.58,-20.88 236.81,-111.53 33.22,-9.02 43.66,-0.47 82.58,-22.31 44.09,-20.44 47.01,-39.06 20.73,-14.12 46.43,-12.67 36.79,-7.65 64.07,-4.31 130.51,15.19"
     id="path819" />
  <text
     style="font-style:normal;font-weight:normal;font-size:144px;line-height:125%;font-family:Sans;-inkscape-font-specification:Sans;letter-spacing:0px;word-spacing:0px;fill:#000000;fill-opacity:1;stroke:none"
     xml:space="preserve"
     id="text2992"
     y="-393.04"
     x="89.45"><tspan
       id="tspan1"
       y="-393.04"
       x="89.45">2015</tspan></text>

  <text
     style="font-style:normal;font-weight:normal;font-size:144px;line-height:125%;font-family:Sans;-inkscape-font-specification:Sans;letter-spacing:0px;word-spacing:0px;fill:#000000;fill-opacity:1;stroke:none"
     xml:space="preserve"
     id="text2995"
     y="4597.96"
     x="89.45"><tspan
       id="tspan2"
       y="4597.96"
       x="89.45">2015</tspan></text>
</svg>
