<svg xmlns="http://www.w3.org/2000/svg" width="9950" height="9100" viewBox="2400 0 9950 9100"><path style="color:#000;font-style:normal;font-variant:normal;font-weight:400;font-stretch:normal;font-size:medium;line-height:normal;font-family:sans-serif;font-variant-ligatures:normal;font-variant-position:normal;font-variant-caps:normal;font-variant-numeric:normal;font-variant-alternates:normal;font-feature-settings:normal;text-indent:0;text-align:start;text-decoration:none;text-decoration-line:none;text-decoration-style:solid;text-decoration-color:#000;letter-spacing:normal;word-spacing:normal;text-transform:none;writing-mode:lr-tb;direction:ltr;text-orientation:mixed;dominant-baseline:auto;baseline-shift:baseline;text-anchor:start;white-space:normal;shape-padding:0;clip-rule:nonzero;display:inline;overflow:visible;visibility:visible;opacity:1;isolation:auto;mix-blend-mode:normal;color-interpolation:sRGB;color-interpolation-filters:linearRGB;solid-color:#000;solid-opacity:1;vector-effect:none;fill:none;fill-opacity:1;fill-rule:nonzero;stroke:#b41730;stroke-width:5;stroke-linecap:butt;stroke-linejoin:round;stroke-miterlimit:4;stroke-dasharray:none;stroke-dashoffset:0;stroke-opacity:1;color-rendering:auto;image-rendering:auto;shape-rendering:auto;text-rendering:auto;enable-background:accumulate" d="m6261.49 5462.86 25.59 8.37.11.03 29.24 8.03 45.06 16.36.11.04 126.56 39.7.6.02 12.08 3.45.25.06 8.05 1.44.44.04h57.03"/><path style="color:#000;font-style:normal;font-variant:normal;font-weight:400;font-stretch:normal;font-size:medium;line-height:normal;font-family:sans-serif;font-variant-ligatures:normal;font-variant-position:normal;font-variant-caps:normal;font-variant-numeric:normal;font-variant-alternates:normal;font-feature-settings:normal;text-indent:0;text-align:start;text-decoration:none;text-decoration-line:none;text-decoration-style:solid;text-decoration-color:#000;letter-spacing:normal;word-spacing:normal;text-transform:none;writing-mode:lr-tb;direction:ltr;text-orientation:mixed;dominant-baseline:auto;baseline-shift:baseline;text-anchor:start;white-space:normal;shape-padding:0;clip-rule:nonzero;display:inline;overflow:visible;visibility:visible;opacity:1;isolation:auto;mix-blend-mode:normal;color-interpolation:sRGB;color-interpolation-filters:linearRGB;solid-color:#000;solid-opacity:1;vector-effect:none;fill:none;fill-opacity:1;fill-rule:nonzero;stroke:#b41730;stroke-width:5;stroke-linecap:butt;stroke-linejoin:round;stroke-miterlimit:4;stroke-dasharray:none;stroke-dashoffset:0;stroke-opacity:1;color-rendering:auto;image-rendering:auto;shape-rendering:auto;text-rendering:auto;enable-background:accumulate" d="m7043.03 4058.74 11.65 34.46 1.96 22.54-0.73.09-3.59 14.61-14.77 22.9-.18.32-11.75 26-.11.3-6.25 20.5-.8.34-4.49 28.17-6.44 28.49-8.39 21.47-22.66 45.32-62.91 106.1-44.2 64.43-.12.19-15.5 27.5-.17.36-10.5 28.5-.11.39-5.75 30-.4.45-.25 25 .6.57 6.98 31.4 14.99 109.65.3.15 22 110 .7.27.81.75.3.62 17.25 26 .52.57 20.25 16.25.19.14 39.75 26.25h.01l29.45 19.3 18.11 21.29 9.55 17.13 11.14 28.72 15.17 55.71 4.2 33.38 6.26 77.22-0.25.71-5.75 15.8-11.22 16.59-18.58 20.31-54.39 52.9-34.44 29.7-.17.16-17.5 18.25-.14.15-51.5 63.5-.1.14-24.81 35.23-23.5 19.79-.49.56-6.75 10.5-.22.42-7.02.5-.17.75-1.01.75.70.785.25 21.25.18.5 20.15 41.29 6.06 22.3-2.39 20.35-8.85 18.18-14.63 13.17-15.24 13.49-15.39 13.68-23.06 8.25-37.25 5.46-25.5 3.75-.35.08-23.5 7-.58.25-4.54 2.74-5.8 3.79-24.76.95-34.75-8.75-.4-.07-23.75-2-.14-.01-151.75-4.25h-.04l-47.88-.69"/><path d="m6881.65 4871.43-9.5 34.5-28.25 46.75-37.05.75-36 48-5.25 3.75-25.25 26.25-68.04.75-23.02.5-18.75 28.5-11.03.5-9.25 37-4.75 30.75-8.75 23-8.75 9.25-11.25 9.5-13.5 5.25-38.25 6.5-22.06.5-17.25 9.75-25.02.25-46.25 41-30 14-34 12.75-26.75 9-9.25 5.25-13.45 10.13-24.35 8.77-25.02.51" style="opacity:1;fill:none;fill-opacity:1;fill-rule:nonzero;stroke:#b41730;stroke-width:5;stroke-linecap:butt;stroke-linejoin:round;stroke-miterlimit:4;stroke-dasharray:none;stroke-opacity:1"/><text x="2489.45" y="8997.96" xml:space="preserve" style="font-style:normal;font-weight:400;font-size:144px;line-height:125%;font-family:Sans;-inkscape-font-specification:Sans;letter-spacing:0;word-spacing:0;fill:#000;fill-opacity:1;stroke:none"/><text x="2489.45" y="206.96" xml:space="preserve" style="font-style:normal;font-weight:400;font-size:144px;line-height:125%;font-family:Sans;-inkscape-font-specification:Sans;letter-spacing:0;word-spacing:0;fill:#000;fill-opacity:1;stroke:none"><tspan x="2489.45" y="206.96">1935</tspan></text><path d="m6261.49 5462.86-48.91-15.8-6.61-2.09" style="color:#000;font-style:normal;font-variant:normal;font-weight:400;font-stretch:normal;font-size:medium;line-height:normal;font-family:sans-serif;font-variant-ligatures:normal;font-variant-position:normal;font-variant-caps:normal;font-variant-numeric:normal;font-variant-alternates:normal;font-feature-settings:normal;text-indent:0;text-align:start;text-decoration:none;text-decoration-line:none;text-decoration-style:solid;text-decoration-color:#000;letter-spacing:normal;word-spacing:normal;text-transform:none;writing-mode:lr-tb;direction:ltr;text-orientation:mixed;dominant-baseline:auto;baseline-shift:baseline;text-anchor:start;white-space:normal;shape-padding:0;clip-rule:nonzero;display:inline;overflow:visible;visibility:visible;opacity:1;isolation:auto;mix-blend-mode:normal;color-interpolation:sRGB;color-interpolation-filters:linearRGB;solid-color:#000;solid-opacity:1;vector-effect:none;fill:none;fill-opacity:1;fill-rule:nonzero;stroke:#b41730;stroke-width:5;stroke-linecap:butt;stroke-linejoin:round;stroke-miterlimit:4;stroke-dasharray:none;stroke-dashoffset:0;stroke-opacity:1;color-rendering:auto;image-rendering:auto;shape-rendering:auto;text-rendering:auto;enable-background:accumulate"/></svg>