<svg xmlns="http://www.w3.org/2000/svg" viewBox="2400 0 9950 9100" height="9100" width="9950"><path d="M6214.123 5442.308l74.443 24.142 29.283 8.039.191.06 45.108 16.378 126.476 39.668 11.928 3.408 7.711 1.377h84.88l25.411-6.778 21.297-8.802 15.701-8.565.844-.279 14.093-2.01.455-.024 14.381.576.572.09 31.928 8.916.28.096 35.32 14.528 11.54 1.074 13.85-3.803 10.34-6.803 9.416-10.248 16.85-26.843.045-.068 7.765-11.506.955-.838 6.328-3.164.36-.147 12.656-4.025 1.572.018 8.342 2.877.195.076 22.149 9.78.422.237 38.054 26.61 18.579 8.164 11.707 3.064 18.767 1.993 20.682 1.722.777.194 12.082 5.177.93.692 16.396 19.56.32.487 7.766 15.533.164.42 14.836 51.072 13.266 18.344.145.224 18.41 32.215.06.113 13.807 27.327.21.584 5.177 23.298.041.245 2.588 21.574 3.922 12.577 21.5 18 27 14 28 27.5 16.5 23.5 14.5 8.5 20 4.5 27.5-3.5 50.51-14.679" style="line-height:normal;font-variant-ligatures:normal;font-variant-position:normal;font-variant-caps:normal;font-variant-numeric:normal;font-variant-alternates:normal;font-feature-settings:normal;text-indent:0;text-align:start;text-decoration-line:none;text-decoration-style:solid;text-decoration-color:#000;text-transform:none;text-orientation:mixed;white-space:normal;shape-padding:0;isolation:auto;mix-blend-mode:normal;solid-color:#000;solid-opacity:1" color="#000" font-weight="400" font-family="sans-serif" overflow="visible" fill="none" stroke="#ffbb0a" stroke-width="5" stroke-linejoin="round"/><path d="M6212.58 5447.063l74.498 24.163.109.03 29.242 8.028 45.065 16.361.105.035 126.56 39.696.06.018 12.08 3.45.249.06 8.055 1.437.439.04h85.428l.644-.085 25.887-6.904.31-.105 21.573-8.917.242-.115 15.424-8.414 13.422-1.916 13.861.555 31.506 8.797 35.53 14.613.72.178 12.367 1.15.895-.078 14.67-4.027.71-.323 10.932-7.189.467-.398 9.78-10.643.275-.361 16.949-27.004 7.375-10.926 5.568-2.783 11.68-3.717 7.459 2.572 21.83 9.639 38.055 26.61.427.24 18.985 8.341.37.13 12.083 3.163.369.068 18.984 2.014.055.01 20.307 1.691 11.16 4.784 15.822 18.877 7.534 15.066 14.894 51.27.375.767 13.442 18.588 18.31 32.043 13.635 26.988 5.084 22.873 2.574 21.45-2.115 11.98-14 15.5-27.5 12.5-15.5 14.5-7.5 17.5-7.5 43 3.5 17 12 16.5 16.5 13 7.5 16 3.5 31.5-3 17.5-116.5 528.5" style="line-height:normal;font-variant-ligatures:normal;font-variant-position:normal;font-variant-caps:normal;font-variant-numeric:normal;font-variant-alternates:normal;font-feature-settings:normal;text-indent:0;text-align:start;text-decoration-line:none;text-decoration-style:solid;text-decoration-color:#000;text-transform:none;text-orientation:mixed;white-space:normal;shape-padding:0;isolation:auto;mix-blend-mode:normal;solid-color:#000;solid-opacity:1" color="#000" font-weight="400" font-family="sans-serif" overflow="visible" fill="none" stroke="#007555" stroke-width="5" stroke-linejoin="round"/><path d="M10619.683 6641.1l51.213-10.666 94 6.5 46.5-1.5 20.104-3.934 24 3.5 19 13 47 54 14.5 28.5v26.5l-59.5 213-6.5 34.5-3.5 32 11.5 267 13.5 108.5v40.5l-11 38.5-12.5 23-23 28.5-29 19.5-29.5 14-37 7-326 16-43.5-1-33-3-57-13.5-47.5-19.5-33-18-39-31.5-21.5-23.5-53.5-68-47.604-46.824-51.5-32.242-59.5-21.5-45-10.5-47-2-68.5 5-73 2-77-7-75-11-89-17.5-70-18-128-38-123-47.5-159-62-108.5-49.5-53.5-29-85-48.5-81-50-34-23.5-55-34.5-37-23-31-25.5-61-53.5-49-47.5-62-52-59.152-43.925-425.1-307.044-30.397-20.907-24.748-13.082-36.063-8.839-19.445-1.414-31.82 3.182-16.97 4.596-14.143 6.01-25.81 17.678-18.384 10.96-19.445 4.95-20.86 2.475-17.678-1.06-25.809-3.536-39.952-9.546-36.416-3.182-42.426 1.06-90.863 5.658-175.716 7.07-35.002 2.476-82.731 18.384-45.609-.353-45.962-1.414-29.698-6.01-45.962-13.082-33.234-18.032-36.063-26.163-27.223-27.577-35.71-51.972-37.122-56.569-35.356-51.972-13.081-29.698-28.108-100.233-2.121-25.279 5.028-30.996 22.637-61.19 8.757-12.31 12.307-7.479 19.223-11.584 23.023-6.857 25.322-3.725 37.5-5.5.479-.119 23.75-8.5.818-.486 15.748-13.998 15.248-13.498.016-.014 15-13.5.576-.764 9.25-19 .235-.803 2.5-21.25-.07-.947-6.25-23-.166-.441-20.133-41.262-5.092-20.605.944-12.97 6.767-16.915 6.416-9.983 23.461-19.756.436-.472 24.95-35.432 51.382-63.353 17.345-18.09 34.41-29.672.11-.102 54.5-53 .103-.105 18.75-20.5.225-.285 11.5-17 .28-.547 6-16.5.15-.832.25-28.25-.01-.225-6.268-77.39-.012-.112-4.232-33.607-.068-.346-15.25-56-.082-.246-11.25-29-.147-.312-9.75-17.5-.279-.405-18.5-21.75-.533-.47-29.746-19.498-39.65-26.184-19.858-15.934-16.84-25.384-25.854-81.286-21.957-109.789-14.99-109.673-.035-.204-6.94-31.22.247-24.489 5.668-29.576 10.361-28.12 15.346-27.23 44.187-64.408.09-.14 63-106.25.086-.156 22.75-45.5.092-.21 8.5-21.75.11-.357 6.5-28.75.03-.158 4.473-28.08 6.153-20.18 11.607-25.685 14.9-23.094.327-.758 3.75-15.25.07-.482.75-16.5-.01-.33-2-23-.121-.584-11.752-34.746-9.369-33.7-.5-31.5 9-29 15.5-33.5 8.5-32.5v-31.5l-8-23.5-40.5-119-17-47-35.5-54-43.5-126-21-123-.5-25.5-6-64-9.5-30.5-61-184-2.5-20.5-3-162.5-10.5-40-19-36-31.5-36-61.5-41.5-23.5-25.5-18.5-39-93.5-210.5-25-38-204.5-230.5-19.5-32.5-14-43-2-21-14-266.5.5-38.5 9-41 349-716 13-39 51-287 11-28.5 10-25.5 20-26 25-22 111.5-90 34.5-15 40.5-6 95.5-32.5 23.5-11.5 18.5-13.5 17.5-26.5 43-89.5 8-37 4.5-39.5 4.5-20 11-18.5 33.5-49.5 45.5-44" style="line-height:normal;font-variant-ligatures:normal;font-variant-position:normal;font-variant-caps:normal;font-variant-numeric:normal;font-variant-alternates:normal;font-feature-settings:normal;text-indent:0;text-align:start;text-decoration-line:none;text-decoration-style:solid;text-decoration-color:#000;text-transform:none;text-orientation:mixed;white-space:normal;shape-padding:0;isolation:auto;mix-blend-mode:normal;solid-color:#000;solid-opacity:1" color="#000" font-weight="400" font-family="sans-serif" overflow="visible" fill="none" stroke="#6c6d70" stroke-width="5" stroke-linejoin="round"/><path style="line-height:normal;font-variant-ligatures:normal;font-variant-position:normal;font-variant-caps:normal;font-variant-numeric:normal;font-variant-alternates:normal;font-feature-settings:normal;text-indent:0;text-align:start;text-decoration-line:none;text-decoration-style:solid;text-decoration-color:#000;text-transform:none;text-orientation:mixed;white-space:normal;shape-padding:0;isolation:auto;mix-blend-mode:normal;solid-color:#000;solid-opacity:1" d="M6678.146 5824.496l-27.61.862-34.552-8.702-23.478-1.976-151.662-4.248-87.233-1.25h-.045l-296.5-9.5h-.018l-128.73-5-325.547-7.496-34.234 4.218-954.067 185.235-.14.024-41.247 5.603-293.822 59.16-304.365 57.008-41.5 4.5-46.5-3-47.5-8-38.5-12-170-51.5-33-8.5-43.5-5h-36.5l-25.5.5-493 43-42 6-38 9.5-30 14-27 11.5-27.5 16.5-118.5 79" color="#000" font-weight="400" font-family="sans-serif" overflow="visible" fill="none" stroke="#6c6d70" stroke-width="5" stroke-linejoin="round"/><path d="M7043.027 4058.735l11.654 34.465 1.96 22.535-.731 16.09-3.592 14.606-14.774 22.898-.175.324-11.75 26-.114.301-6.25 20.5-.078.336-4.488 28.17-6.44 28.488-8.39 21.469-22.658 45.318-62.912 106.102-44.203 64.431-.118.188-15.5 27.5-.167.363-10.5 28.5-.11.395-5.75 30-.045.445-.25 25 .06.567 6.978 31.398 14.986 109.648.025.153 22 110 .068.265 26 81.75.299.625 17.25 26 .52.569 20.25 16.25.187.136 39.75 26.25h.01l29.449 19.303 18.107 21.29 9.547 17.132 11.14 28.717 15.169 55.705 4.203 33.379 6.256 77.224-.246 27.71-5.748 15.804-11.225 16.594-18.576 20.31-54.395 52.897-34.443 29.701-.172.164-17.5 18.25-.137.154-51.5 63.5-.103.137-24.813 35.235-23.502 19.79-.494.561-6.75 10.5-.217.424-7 17.5-.173.748-1 13.75.066.781 5.25 21.25.181.496 20.147 41.287 6.06 22.305-2.394 20.348-8.852 18.181-14.629 13.168-15.242 13.493-15.388 13.677-23.061 8.254-37.254 5.463-25.5 3.75-.35.078-23.5 7-.578.254-19.5 11.75-.01.01-12.75 7.75-.738.686-9.25 13-.307.582-22.75 61.5-5.911 24.122-17.75 22.75-20.75 13.5-45.75 22.75-45.25 7.75-17-2.25-18.25-6.75-15.25-7-12.25-2-13.25 2.25-12 6.5-16.25 15.5-74 132.5-72.5 106-15 34.5-8 12-14 14.5-19.5 12-89 41-38 10.5-79.5 4-43.5 10.5-45.5 13.5-130 62-37 10.5-35 3.5-76-10-50.5-3-31.5-6-79-28-40-5.5-58.5 2.5-123.5 11.5-29 7.5-33.5 13.5-37 24-32.5 39-60 93.5-16 27.5-111 112-35.5 35.5-92.5 123-14.5 15-17.5 9.5-28 9-77 16.5-29.5 16.5-22.5 26.5-28 33.5-19 16.5-71.5 55.5-22.5 24.5-16.5 24-27.5 60.5-22.5 30-29 24-87.5 44-113.5 61.5-29 26.5-16 20.5-72 114.5-37 47.5-36 38.5-57 59.5-19 32-27.5 60.5-42.5 94.5-24 44.5-43.5 120-15.5 20.5-11.5 17.5-96 100.5-135.5 128-22.5 33-36 140.5 2.5 37 14 71 21.5 34 49.5 45.5 16 31 41 196.5 2 29.5-7.5 51" style="line-height:normal;font-variant-ligatures:normal;font-variant-position:normal;font-variant-caps:normal;font-variant-numeric:normal;font-variant-alternates:normal;font-feature-settings:normal;text-indent:0;text-align:start;text-decoration-line:none;text-decoration-style:solid;text-decoration-color:#000;text-transform:none;text-orientation:mixed;white-space:normal;shape-padding:0;isolation:auto;mix-blend-mode:normal;solid-color:#000;solid-opacity:1" color="#000" font-weight="400" font-family="sans-serif" overflow="visible" fill="none" stroke="#b41730" stroke-width="5" stroke-linejoin="round"/><path d="M5186.396 3520.934l51 91 4.5 20-3 24.5-39 89.5-14 21-20.5 16.5-62.5 32-19.5 19-10.5 31 1 23 8.5 25 16 18.5 27 21.5 94.5 53.5 30 17 22.5 20 29 39 27.5 28.5 219 188 20 10.5 23 2.5 22-5 19.5-12 41-30.5 38-17.5 30-8.5 19.5-1.5 23 7 24 14.5 46 32.5 19.5 8.5 28.5 6 80.5 13.5 20 9 14 14 48 50 19 28.5 11.5 27 22.5 30 13 12 27 18.5 26.5 8 57 10.5 71 16.5 22 8.5 195 115 21.5 17 25.5 28.5 16.5 30 7.5 24 32 142.5 11.5 36 34 79 5 20.5 8.5 14.5 15.5 10.5 18 1.5 19-5 27.5-15.5 36-48 17.5-11.5 23-4.5h32.5l34.5 2 32 12.5" fill="none" stroke="#b41730" stroke-width="5" stroke-linejoin="round"/><path d="M6881.646 4871.434l-9.5 34.5-28.25 46.75-37 49.75" fill="none" stroke="#b41730" stroke-width="5" stroke-linejoin="round"/><path style="line-height:normal;font-variant-ligatures:normal;font-variant-position:normal;font-variant-caps:normal;font-variant-numeric:normal;font-variant-alternates:normal;font-feature-settings:normal;text-indent:0;text-align:start;text-decoration-line:none;text-decoration-style:solid;text-decoration-color:#000;text-transform:none;text-orientation:mixed;white-space:normal;shape-padding:0;isolation:auto;mix-blend-mode:normal;solid-color:#000;solid-opacity:1" d="M4278.273 6036.526l293.902-59.178.156-.027 41.256-5.603 954.082-185.239.172-.027 34.5-4.25.362-.018 325.75 7.498h.041l128.74 5 296.471 9.5 87.227 1.25h.035l151.75 4.25.139.01 23.75 2 .402.066 34.75 8.75 24.763-.95" color="#000" font-weight="400" font-family="sans-serif" overflow="visible" fill="none" stroke="#b41730" stroke-width="5" stroke-linejoin="round"/><path d="M6765.646 5054.184l-25.25 26.25-68 40.75-23 22.5-18.75 28.5-11 25.5-9.25 37-4.75 30.75-8.75 23-8.75 9.25-11.25 9.5-13.5 5.25-38.25 6.5-22 6.5-17.25 9.75-25 21.25-46.25 41-30 14-34 12.75-26.75 9-9.25 5.25-19.25 14.5-27.5 24.25-19.75 19.25-9.25 11.5-7.25 14.5-11.75 34.5-3 20.75-.25 28 11.5 112.5 2.25 48 .75 15.75-3 27.5 2.5 15.25 6.25 12.5 14.25 13.25 17 13.5 118.5 80.25" fill="none" stroke="#b41730" stroke-width="5" stroke-linejoin="round"/><path d="M6372.396 5804.184l-22.5-7.25-15.375-13.375-12.25-18.5-5.25-20.75.375-15.5 2.25-8.75 8.375-26.25 1.875-14.125-.875-16.75-18.5-96.25-6.5-16.25-28.25-69.875-9.563-10.938-55.562-17.937-77.686-29.833-27.4-14.319-24.573-18.915-13.611-11.314-16.264-20.152-12.728-22.981-8.308-20.506-12.021-44.902-24.926-114.55-10.983-27.528-16-30.75-15-24.5-25.5-28.75-30.5-25-34.75-20.75-114.5-61.25-32.25-10.5-25.5-4.25-158.25-10.5-378.5-63.5-28-11-25-14.5-44.5-30-247-185.5-61-51-56.25-50-19-14-22.75-10.25-17.25-5-32.25-6.75-268.75-30.75h-28.75l-18.5 3-19.25 5.25-56.5 17.25-49 10.5-43 4.25-70.75 4.25-34.75-2.75-20.5-5.5-14.75-5.75-71.25-29-26.75-5-31.25-1.25-28-4.5-27.25-9-19-9.25-106.25-57.75-18.5-14.75-16.25-19-14.5-26-6-21.25-56.25-283.25-8.5-25-16-26.25-11.75-16-19.75-18.5-140.25-111.5-23-15.25-74.5-38.5-26.75-19-106.75-108.25-23.5-18.5-29.25-15.75-32-12.25-26.25-4.25-134.25-15.5-29-8-39.75-16.75-38.25-23.25-140.25-126.25-17-18.75-16-28.75-78-157.5" fill="none" stroke="#b41730" stroke-width="5" stroke-linejoin="round"/><text style="line-height:125%;-inkscape-font-specification:Sans" y="8997.9609" x="2489.453125" font-weight="400" font-size="144px" font-family="Sans" letter-spacing="0" word-spacing="0"/><text style="line-height:125%;-inkscape-font-specification:Sans" y="206.96094" x="2489.453125" font-weight="400" font-size="144px" font-family="Sans" letter-spacing="0" word-spacing="0"><tspan y="206.96094" x="2489.453125">2005</tspan></text><path d="M4650 1745l-14 65-1.5 21 4 26.5L4687 2027l13.5 29.5 19 23 27 20 41.5 32.5 19.5 24 15 24 219.5 431.5 21.5 36 15.5 16.5 17.5 12 28.5 10 20.5 12.5 19 17.5 12 21 14.5 34 11 21 8 11.5 95 110 30.5 31.5 16.5 12.5 20 12.5 308.5 145.5 18 13.5 10.5 11.5 68.5 76.5 23 23.5 35 35.5 20 20.5 20 28 15 33 42 93 11 17.5 13.5 12.5 23 11 18 11.5 9 13 9 19 2.5 15-2 14.5-11.5 50-1 23.5 5 23 22.5 54 9.5 29 6 21.5 45 165.5 12 26 8.5 16.5 19.5 21 48.5 36 15.5 17.5 11 17.5 39 82 5 10 12 11.5 17 14 191 119.5 203 145.5 33.5 27 20 23.5 21.5 31.5 31 56 62 109.5 12 27.5" fill="none" stroke="#b41730" stroke-width="5" stroke-linejoin="round"/><path d="M6478.1 4301.473l-22.744-14.61-8.058-9.033-3.39-9.193 3.013-18.677 4.82-17.472-1.506-12.351-5.422-12.652-14.159-14.159-31.028-25.003-10.544-11.146-25.003-32.233-9.941-8.134-13.255-3.615-22.593-2.109-13.255-8.736-10.845-13.857-3.615-16.267.302-13.556 3.615-18.978-3.615-16.268-8.134-12.953-18.978-23.497-4.82-16.268-1.205-15.966 3.615-18.978 7.832-12.05 24.1-31.33 7.53-20.484 1.206-31.33-10.544-27.413-1.205-13.857-3.615-24.702 6.025-18.075 8.134-12.652 11.146-10.845 48.199-15.664 32.233-10.544 28.92-12.351 35.546-17.17 18.075-15.063 18.376-20.184 11.146-21.99 6.628-32.234 2.71-16.568 12.352-18.376 7.23-13.556 2.71-18.677-9.94-28.92" fill="none" stroke="#002d62" stroke-width="5" stroke-linejoin="round"/></svg>