<svg xmlns="http://www.w3.org/2000/svg" width="5360" height="5360" viewBox="0 16 5360 5360"><path d="M2550.06 3408.707L2564 3441l5.4 8.4 14.6 15 10.42 6.538L2601 3515" fill="none" stroke="#ffcd02" stroke-width="5" stroke-linejoin="round"/><path d="M2378.717 2707.509L2601 2831l75 44 123 103 101 82 14 10h28l77.31-10.37 4.187 1.635 2.436 3.05L3040 3103l11 67 4.713 29.066 3.804 4.159 5.113 2.267L3143 3190l73-16 17-1 71 59 187 140 10 20v13l-46 70-6 28-2 32 11 28 13 23 5 22" fill="none" stroke="#939598" stroke-width="5" stroke-linejoin="round"/><path d="M2588 2261l17-2 41.923 27.876 23.299 3.271 154.81 85.075L3027 2494l21.5 14" fill="none" stroke="#ffcd02" stroke-width="5" stroke-linejoin="round"/><path d="M3208.5 1685l44.5 25.5 13.5 15.5 12.5 26 9.5 7.5 27.5 12 14-1 19-13 21-19.5 70.5-90 20.5-22 82-73 25-31 54.5-70.5 31.5-27.5 21-32 5.5-25.5 5-37 8.5-25 47-81.5 22-39 39.5-36 13.229-25.881L3861.5 1073l5.5-14.5 11-35.5 19.5-28.5 55-57 58-62 30-40 36-59 48-72 91-142 69-107 49-90L4371 271l4.5-17-15-67.5-13.5-74 3.5-18 13-19.5 21-26 10.5-8M4395.5 41l27-8 48-33.5" fill="none" stroke="#7ea3d5" stroke-width="5" stroke-linejoin="round"/><path d="M3037.5 2494.5l45 32 47-49.5 41.5-67 83.5-137.5 16.5-27.5 18.5-23 42.5-46 51-55" fill="none" stroke="#6c6e70" stroke-width="5" stroke-linejoin="round"/><path d="M2488 2430.5l42 23 20.5 1.5 52 30 24.5 13 118.5 62.5 72 39 37.5 21.5 71 19 26-2 39.5-21 2.5-9.5-12-27.5 10.5-36.5 20-30 13-14.5 25 15.5" fill="none" stroke="#b33c96" stroke-width="5" stroke-linejoin="round"/><path d="M2591 2261l-81 156-9 41-9 48-9 74-32 210-8 19-45 70-68 106" fill="none" stroke="#ffcd02" stroke-width="5" stroke-linejoin="round"/><path d="M2331 2983l-80 124-8 2-10.239-5.06-4.51 2.812L2208 3148l-17 32 2 34.5 3.5 20.5 6.127 27.776 18.94 17.343L2318 3326l55 24 90 35 11 16 14 5 62 2" fill="none" stroke="#ffcd02" stroke-width="5" stroke-linejoin="round"/><path d="M2331 2982l2 12 31 28 31 16 10 16 94 224 52 133M2601 3515l-8 18.5-55.5 112-57.5 92.5-52 79-144 184-137 179-61 78-96 308" fill="none" stroke="#ffcd02" stroke-width="5" stroke-linejoin="round"/><path d="M2106 4231c1 4 6 17 6 17l53 18 59 22 151 122 26 47 132 105 15 21 7 18 35 248 16 101-6 51-20 82-6 16-5 25 5 47" fill="none" stroke="#ffcd02" stroke-width="5" stroke-linejoin="round"/><path d="M3475 3603l8 26-4 40-3 16 35 171 28 143-8 25-47 97" fill="none" stroke="#939598" stroke-width="5" stroke-linejoin="round"/><path d="M2618 2489l-14 7-105 194-33 56v34l-9 36-54 84-18 29-7 25-53 73-14 25-3 16-19 27-31 15" fill="none" stroke="#00a65b" stroke-width="5" stroke-linejoin="round"/><path d="M2483 2528l-47.588 84.725L2376 2721.5l-20 41-98 20.5-6.5 27-136.5-4.5-116-3-23.5-1.5-15-4-7.5-7.5 1-21 5.5-22 8.5-6 14-1 42.5 2" fill="none" stroke="#7ea3d5" stroke-width="5" stroke-linejoin="round"/><path d="M2263 3107l-16 9-29.5 46.5-31.5 54.5-4.572 14.478 1.897 9.398 10.631 20.472 24.083 22.77L2266 3318l79 59 31 8 98 21 78 43 17 12 38 77M3077 1683l27-47 29-50 35-48 9-17 28-87 3-11-11-64 7-20 31-67 36-81 7-19 13-12 72-132 33-62 54-74 18-37 20-48 47-79 35-62 39-29 23-20 13-20 15-37 47-53 25-31 35-62M3160 1551l9-1 34 34 117 63 45 27 13-4 39-24 9-31 4-21 31-27 14-8 49-19 77-95 22-18 36-26 15-44 1-30 11-11 61-6 36-5 53-21 122-46 144-22 85-92 58-39 61-63 15-23 13-44 29-20" fill="none" stroke="#00a65b" stroke-width="5" stroke-linejoin="round"/><path d="M2499 2424l20-37 8-25 18-38 12-31 5-33-5-56-1-119 12-54 32-67 54-86 26-48 36-67 5-14 2-32 5-19 97-173 123-222 102-185 127-229 20-36 20-36 14-20 49-23 13-14 57-108 72-74 16-11 51-89 46-111" fill="none" stroke="#ef3a42" stroke-width="5" stroke-linejoin="round"/><path d="M1952.5 2787.5l-7 51.5 2.5 18.5-1.5 15-9 17.5-10 39.5-6.5 52.5-3 23.5 5.463 11.013L1945 3023l45.873 12.612 191.239 74.149 11.618 4.507 9.156 3.87 8.447 3.89 4.128-1.728 5.053-11.074-.734-4.09-7.713-5.076-10.372-5.968-11.426-5.525L2036.687 3045l-30.09-9.09-47.642-9.403" fill="none" stroke="#7ea3d5" stroke-width="5" stroke-linejoin="round"/><path d="M2502 2420l-98 182-57 100-31 69-27 65-16 116-7 52-39 72-13 18-16 53-13 36-12.5 49 6 20.5 9 11" fill="none" stroke="#ef3a42" stroke-width="5" stroke-linejoin="round"/><path d="M2231.5 3066l4 13 22.5 14 20.5 25 5.5 8.5-24 31.5-21.5 29.5-5 16 3.5 12.5 42.5 42.5 11.5 9.5 94.5 41 60 22 3 6.5 11 42 4 13.5 6.5 7 36 19 57 32 12 11 35.5 73" fill="none" stroke="#ef3a42" stroke-width="5" stroke-linejoin="round"/><path d="M2593.456 3470.76l13.553 6.33 7.491 52.41 14.5 32 76 142.5 82 148 9.348 102.969L2793 3978l-35 155 31 216 52 357 39 276 1 48-65 130-91 27-63-6-43 17-43-6-6-8-3-16" fill="none" stroke="#ffcd02" stroke-width="5" stroke-linejoin="round"/><path d="M2609 3531.5l53.5 104.5 31.5 57 82 24 94.5 26 55.5 4.5" fill="none" stroke="#ef3a42" stroke-width="5" stroke-linejoin="round"/><path d="M2923 3746.5l231.5 16.5 62.5 8.5 12 22 3.5 13 21.5 24 39.5 46.5 10 5.5 95-17 101.5-21 170-33 47.5-9" fill="none" stroke="#ef3a42" stroke-width="5" stroke-linejoin="round"/><path d="M2928 3745.5l-5.5 85.5 2 35 18 233.5 20 223.5" fill="none" stroke="#ef3a42" stroke-width="5" stroke-linejoin="round"/><path d="M2610.5 2484l-104-59.5" fill="none" stroke="#6c6e70" stroke-width="5" stroke-linejoin="round"/><path d="M2284 3103l16-13 20-23 50-90 10-14 11-3.5 159 68.5 224 91 32 12 14 16 93 43 154 115 72 55 320 239 56 43 107-19 24-6 187-77 7-9-20-76 4-8 23-11 50-17 88-17 54-3 24-9 43-18 44-10 62-2 23-12 43-38 30-19 31-8 22.992-6.03L4407 3263.5l29.5-9.5 49-6.5 28.005-.59 30.495 3.59 31.5 8 28 .5 32-7 38.5-15 48-25.5 27.5-13.5 14-7.5" fill="none" stroke="#b0720c" stroke-width="5" stroke-linejoin="round"/><path d="M2189 3261.5l-7.5-12.5-2.458-8.528-2.069-8.867 5.75-16.928" fill="none" stroke="#6c6e70" stroke-width="5" stroke-linejoin="round"/><path d="M2420 4116.5l13 5 11 .5 64 50.5 82.5 65 9 8 1.5 14.5 70 479 3 26-20 180-7 68-1 117-3 26 2 20-1.375 7.25-25.375 10-39.875-5.5-3.75-5.75-1.625-14" fill="none" stroke="#006000" stroke-width="5" stroke-linejoin="round"/><path d="M3096.703 1425.609L3075 1466" fill="none" stroke="#ef3a42" stroke-width="5" stroke-linejoin="round"/><path d="M2862 3577l2 14-67.5 257.5-3.839 6.6.218 7.524 2.129 20.874" fill="none" stroke="#6c6e70" stroke-width="5" stroke-linejoin="round"/><path d="M2718 1761l12-4 82 44 91-26 156-280 22-37 35-6 50-1 14 1 130 44 14 7 27-11 55 6 196-132.5 1.5-82 34.5-83.5 17-34 32-24 21-8 29-5 15-16 9-6 13.5-28.5" fill="none" stroke="#ef3a42" stroke-width="5" stroke-linejoin="round"/><path d="M3862.5 1044l13.5-35 14-32 4.5-214 3-125 1.5-71 17-40 22-35.5 100.5-243 46.5-82" fill="none" stroke="#00a65b" stroke-width="5" stroke-linejoin="round"/><path d="M3634.5 788l58-47" fill="none" stroke="#ff0080" stroke-width="5" stroke-linejoin="round"/><path d="M2386 3070l-18.5 8.5-33 10-40 13.5" fill="none" stroke="#7bd9f5" stroke-width="5" stroke-linejoin="round"/><path d="M2377.5 3070l-21.5 33.5-27 38-24.5 25-26.5 10.5-14 13-9 15-30 25.5 3.5 12.5-30 9 1.5 11" fill="none" stroke="#ff0080" stroke-width="5" stroke-linejoin="round"/><path d="M3115.5 3342l8-8.5 248-32.5 18-5 10-11 37.5-48.5 163-54.5 8.5-4.5 22.5-31.5 3-9 9.5-36.5" fill="none" stroke="#b0720c" stroke-width="5" stroke-linejoin="round"/><path d="M3072.5 2520.5l22 25 39 45.5 152.5 25.5 34 6.5 79-30.5 31.5-8 17-.5 212-28.5L3880 2523l87-11.5 46.5-17 110-44.5 78.5-30 37.5-22.5 32.5-9.5 8-2 47.5-22.5" fill="none" stroke="#6c6e70" stroke-width="5" stroke-linejoin="round"/><path d="M3046.5 2512.5l24.5 14.5 31 37 26.5 30 8 3.5 38 6.5 114.5 19 30 5.5 9.5-3 39-16.5 50-17 22-2 38-4.5 77-12 50.5-6 286.5-40 79-11 72-27 153.5-61 27.5-14.5 19.5-12 40-11.5 47-22" fill="none" stroke="#b33c96" stroke-width="5" stroke-linejoin="round"/><path d="M2618 2490l15-3 119-214 68-122 70-129 177-319 12-22" fill="none" stroke="#00a65b" stroke-width="5" stroke-linejoin="round"/><path d="M3072.5 2527l16.5 2 44.5-49.5 18.5-28.5 62-103 61-99.5 40.5-47.5 65.5-69 6-7" fill="none" stroke="#b33c96" stroke-width="5" stroke-linejoin="round"/><path d="M3486 3617.5l2.5 16.5-4.5 37.5" fill="none" stroke="#b0720c" stroke-width="5" stroke-linejoin="round"/><path d="M2754 2373.5l-111.5 203-71 128 28 15-114 205.5-47 127-5 14-50.5 5.5M2382 3072l-19.5 31-29.5 41-25 26.5-26.5 10.5-14 11.5-8 14-29.5 25.5 5 13-30.5 10.5v6" fill="none" stroke="#7bd9f5" stroke-width="5" stroke-linejoin="round"/><path d="M3190 1477l-9-9 5-9 123.5 41 14 8.5 15.5-6 13-5.5 55 6 57-38.5 135.5-91.5 6.5-5 2.5-85.5 34.21-80.906L3659 1169.5l30.5-23.5 18-7 32.5-6 9-9.5 12.5-11.5 8 2.5 16 4 26-4.5 43.5-41 9-31" fill="none" stroke="#00a65b" stroke-width="5" stroke-linejoin="round"/><path d="M2377.5 3069.5l-84 27" fill="none" stroke="#ff0080" stroke-width="5" stroke-linejoin="round"/><path d="M3066 2530l60 69.5 195.5 35 49-21.5 49.5-16.5 46-4.5 82.5-12 178.5-24.5 168-23.5 77.5-10.5 227.5-89 45.5-25.5 39.5-11.5 47-22" fill="none" stroke="#7bd9f5" stroke-width="5" stroke-linejoin="round"/><path d="M3390 2129.5l-38.5 40.5-56.5 63-16 18-55.5 91.5-85.5 140-45.5 49.5H3068" fill="none" stroke="#7bd9f5" stroke-width="5" stroke-linejoin="round"/><path d="M2195.5 3262l-.5-9.5h-11l-8-14.5.5-15 6.5-29 14.162-17.974 11.088-18.276 21.75-43 10.25-20.75 11.75-17.5-14.75-9.5 33.75-61 10.5-20.5 25.5-44.5 68-105.5-37-23 22-45.5 10-24.5 74.5-135 41.029-73.949 28.971-54.051 77-140.5" fill="none" stroke="#f60" stroke-width="5" stroke-linejoin="round"/><path d="M3131.05 1694.056L3113 1725l-120.5 218.5L2860 2183l-91 164-16 29M3123.272 1659.443l20.242 10.758-13.824 25.704" fill="none" stroke="#7bd9f5" stroke-width="5" stroke-linejoin="round"/><path d="M3298 1508l-20.5 16.5-69.5 129-7.5 8" fill="none" stroke="#ff0080" stroke-width="5" stroke-linejoin="round"/><path d="M2377.5 3069.5l8.076-12.467L2413 2993.5l17.5-57.5 19.5-73.5 40.5-73.5 99-178.5 91-165.5 80-145 91.5-164.5 100-181.5 143.5-260 23.983-42.398 14.99 8.06 14.597 7.3 22.651-11.578 23.658 9.312 8.557-6.544" fill="none" stroke="#ff0080" stroke-width="5" stroke-linejoin="round"/><path d="M2191 3263.5v-7h-8.5l-11-16.5.5-16 7.5-37.5 12-35 12-35.5 9-31.5 19-105 20-151.5 11-44 3.5-24 8-36 .5-44 31.5-55.5 130.5-236.5 79-146 251-457 32.458-58.541 13.99-4.247 22.357 11.449 10.726-2.912 57.13-105.715 69.868-133.604" fill="none" stroke="#29084a" stroke-width="5" stroke-linejoin="round"/><text x="89.45269" y="222.96094" style="-inkscape-font-specification:Sans" font-size="144px" font-weight="400" font-family="Sans"><tspan x="89.45269" y="222.96094">1930</tspan></text><path d="M3911 528l20-34 26-61 60.5-149.5 17-39 45.5-80" fill="none" stroke="#6c6e70" stroke-width="5" stroke-linejoin="round"/><path d="M3293.5 1510.5l35.5-26 28-34 21.5-42.5 26.5-10 14-35.5 32.5-109 26-52 37-65.5 16.5-33 20.5-49 22-61.5 9.5-24 43.5-62-7.5-28.5-.5-53.5 15.502-37.592" fill="none" stroke="#ff0080" stroke-width="5" stroke-linejoin="round"/><path d="M3619 807.5l9.326-20.434L3638.5 776l29.5-34 59.5-45.5 42-32.5 16.5-11.5 20.5-26.5 22.5-40.5 17.5-47 19 4 34 10.5 11.5-25" fill="none" stroke="#6c6e70" stroke-width="5" stroke-linejoin="round"/><path d="M2592 2340l-93.5-55 38.5-74 117.5-212.5 147.61-267.94 9.892-3.788 22.228 12.086 14.298-3.838 57.91-105.554 121.323-231.264 68.613-117.808" fill="none" stroke="#f60" stroke-width="5" stroke-linejoin="round"/><path d="M2603.25 2486.5l.5-2.25L2593 2478l-1.25-4L3095 1563" fill="none" stroke="#faa" stroke-width="1px" stroke-linejoin="round"/><path d="M2753 2375.5l11-20 8.322-3.648 57.141 32.1L2979.007 2472l50.993 35.5 37.5 23" fill="none" stroke="#7bd9f5" stroke-width="5" stroke-linejoin="round"/><text x="89.45269" y="5273.9609" style="-inkscape-font-specification:Sans" font-size="144px" font-weight="400" font-family="Sans"/><path d="M1971.5 2800l-14.5 3.5-7.5 9.5M1906 3010.5l24 8M1918 3006.5l-8.251 5.602-61.767-25.757" fill="none" stroke="#7ea3d5" stroke-width="5" stroke-linejoin="round"/><path d="M1505 4150l-15.5 12-9 23.5-8 28 .5 19.5 11 73-4.5 22-8 20.5 3.5 62 7 20.5 11.5 19.5 18.5 33 8 16.5v20l-9 15.5" fill="none" stroke="#0c3d91" stroke-width="5" stroke-linejoin="round"/><path d="M1503 4152l-19 6-14-3-12-12-14.5-29-28-19.5-53-17.5h-13l-18.5 10-27.5 22-67 22.5-33 4-30-3.5-18-8.5-26.5-.5-54.5 1.5-17.5 8-64.5 51-45 9.5-43 18.5-35 7.5-125.5 9-19.5 10-92 54-23.5 6.5h-78l-11.5 2.5-115 5.5M1513 4532.5l-3.5 18.5 3 15.5 45 79.5 8 20.5 16.5 106 .5 22-6.5 25 1 19 7.5 29.5v26.5l-4.5 41-9 17.5-35.5 38.5" fill="none" stroke="#0c3d91" stroke-width="5" stroke-linejoin="round"/><path d="M1847.982 2986.345L1792 2963l-61.5-26-14-11-17.5-31.5-12.5-22.5-23.5-30-49-53-15.5-19.5-24.5-25.5-31.5-15-62.5-26-103.5-34-29.5-12.5-14.5-3.5-105.5-4-73.5-3.5-55.5-4.5-87-14-55-4-78.5-2-46 4-85.5 6.5-117.5 8.5-92.5 5-72 5-17.5 4.5-17.5 8-30.5 13.5" fill="none" stroke="#7ea3d5" stroke-width="5.00000048" stroke-linejoin="round"/><path d="M2013.445 2736.867l-41.521-1.597-101.567-23.954-61.323-29.23-28.495-15.979-33.147-17.712-7.027 1.278-49.186 91.985-7.666 20.44-13.095 14.693-5.11 3.833" fill="none" stroke="#99d4c0" stroke-width="5" stroke-linejoin="round"/><path d="M1667.224 2778.388l-10.22 6.388-21.743 33.188-20.736-4.124-16.29-.32-28.744 36.412-12.137 47.908-16.928 12.137 5.11 20.441-25.232 57.81-13.095 31.62-11.498-4.472-9.901 18.844-10.86 20.122-31.939 45.673-24.912 32.259-40.563 44.715-48.867 54.935-30.661 36.091-12.776 8.943-.32 28.107-15.65 14.053-7.665 26.19-16.928 23.954-14.372 20.441-11.18 28.107 5.75 6.388M1803 2677.5l-.5-6 9.148-16.964-3.148-5.036-52.245-27.47-1.5-3.86 90.886-174.44L1836 2392l79-149 3.5-.5 27.5 17.5 26.5 12.5 3.5-.5 22-46 17.5-36.5-7.317-12.451-32.173 56.922-13.435 30.052-3.89 1.768" fill="none" stroke="#99d4c0" stroke-width="1px" stroke-linejoin="round"/><path d="M1809.84 2657.528l48.437-98.995 68.589-140.714 53.74-111.37-.707-3.181-13.435-5.657-.354-3.536 11.668-25.102M2014.9 2189.777l11.314-14.496 29.345-47.73 24.75-41.719-.708-2.828-10.96-6.01 25.81-44.548 3.888-.354 91.217 57.63 6.01 8.131-1.767 19.092-3.536 19.799-9.9 26.516 1.415 4.243 12.728 6.364M2068.64 2076.993l-61.517 102.884M1962.575 2262.962l-10.253 25.103 2.121 3.535 7.778 4.596.354 4.597-89.45 189.504.708 12.728-81.567 165.524 1.664 5.242M1755 2617.75l-10.75 19.25 4.25 5 44.5 24.5M2008.537 2177.756l-20.506-34.295-6.718.354-12.02 11.667-55.155 88.742" fill="none" stroke="#99d4c0" stroke-width="1px" stroke-linejoin="round"/><path d="M2968.791 1499.01l52.761-99.48 68.38-118.302" fill="none" stroke="#29084a" stroke-width="5" stroke-linejoin="round"/><path d="M2360.112 2987.127l8.63-2.254L2401.5 3000l4.5-1.25 7-17.25" fill="none" stroke="#faa" stroke-width="1px" stroke-linejoin="round"/><path d="M2603.773 2485.956l-45.281 83.872" fill="none" stroke="#faa" stroke-width="5" stroke-linejoin="round"/><path d="M2256.25 3106.75l13.552-2.194 15.937-4.746 15.134-15.627 15.933-19.004 7.254-14.5 45.679-80.056 10.261-1.873 28.75 15 4-1 11-35.75 20.25-78.5 2.5-6.25 8.5-22 4.5-18.5 9.75-39.75.75-11.25-1-18.75-1-15.75 86.25-158.5 5.87-10.422" fill="none" stroke="#faa" stroke-width="1px" stroke-linejoin="round"/><path d="M2421.003 4117.047l-41.816-33.45-4.667-9.19-9.044-14.944-41.448-33.261-1.489-4.158.358-10.081" fill="none" stroke="#006000" stroke-width="5" stroke-linejoin="round"/><path d="M1617.309 2801.292l-2.265 12.836" fill="none" stroke="#99d4c0" stroke-linejoin="round"/><path d="M2408 3239.75l22.5 13 24.612 25.89-4.112 13.86v37.908l5.616 19.466L2464 3378.5l6 14.5 4.5 5 36.5 18.5 66 38.5 50.771 31.788 96.517 51.297 171.797 47.932 383.915 26 188.83 13.864 8.085 5.5" fill="none" stroke="maroon" stroke-width="5" stroke-linejoin="round"/><path d="M2508 3382l-28.238-1.238 1.758-56.762-13.391-.5.497-47.279-26.218-26.708-139.64-149.282-11.236-12.735" fill="none" stroke="#006000" stroke-width="5" stroke-linejoin="round"/><path d="M2285 4001l.221 11.123 3.02 5.03 130.258 104.347 15.637 13.669-16.137 18.83-4 86-11 98-53 242-23 101 5 37 13 17 168 128 11 21 17 122 5 20 15 17 11 18 2 38" fill="none" stroke="#ffcd02" stroke-width="5" stroke-linejoin="round"/><path d="M2322.716 4013.622l1.902-4.769L2352.5 3974l111.5-142.5 91.5-144.5 10-15.5 31.5-60.5 23.5-47.5-8.5-35.5-30.5-66-9-72-5.72-4.991M2481.483 3324.004L2482.5 3296l-26.776-.5" fill="none" stroke="#006000" stroke-width="5" stroke-linejoin="round"/><path d="M2287.916 3090.727l20.89 23.029 130.37 139.557 24.54 24.917-.504 45.68-.377 15.73-2.769 2.517-1.384.252-3.398 3.523M4395 3498l-49 8-48 24-43 31-44 16-55 14-174 12-40 4.5-106.5 18.5 5.5 33.5-349.5 69.5-11.5-3-9-46.5 3.5-15.5 3.5-24.5-2.5-10.5" fill="none" stroke="maroon" stroke-width="5" stroke-linejoin="round"/><path d="M2327.236 4005.678l-10.386 14.008-6.347 2.076-4.716-2.112-42.414-33.716-7.417.133L2065.5 4229.5M2763.218 3385.514l5.72 4.333L2776.5 3441l6.5 28.5 3.616 21.696 5.918 3.794L2999 3464l169.5-25.5 55-8.5 139.5 104.5 104.495 77.678 7.467 5.55M3639 3098l-11 45-26 33-168 56-46 59-29 7-230 29-148.5 25-233 35-33 5-77-2-130-8" fill="none" stroke="#006000" stroke-width="5" stroke-linejoin="round"/><path d="M3089.931 1281.228L3100 1264l47-9.5 68 29 12-5.5 39-88 7-19 14-13 23.5-44.5 57-105 23-43.5 38.494-52.676" fill="none" stroke="#29084a" stroke-width="5" stroke-linejoin="round"/></svg>