<svg xmlns="http://www.w3.org/2000/svg" width="3350" height="7050" viewBox="0, -1150, 3350, 7050"><path d="M1988.418 2659.823l-11.147-6.738-45.926-10.042-11.435.06-28.067 2.979-23.343 15.418-158 124-32.5 26.5-12.5 29.5-12.5 4.5-18.5-2.5-54-22-105.5-46-21-3.5-18.908-9.454M1663 2843l-20 37.5-25.5 16.5-10 25 2 14 10 11.5 23.5 16 8 12 5 17.5 31.5 89 17.41 66.155" fill="none" stroke="#00a650" stroke-width="5" stroke-linejoin="round"/><text x="89.453125" y="5797.9609" style="line-height:125%;-inkscape-font-specification:Sans" font-size="144px" font-weight="400" letter-spacing="0" word-spacing="0" font-family="Sans"/><text x="89.453125" y="-943.0391" style="line-height:125%;-inkscape-font-specification:Sans" font-size="144px" font-weight="400" letter-spacing="0" word-spacing="0" font-family="Sans"><tspan x="89.453125" y="-943.0391">1900</tspan></text><path d="M1707.75 1821.25L1696.5 1836l-6 25.5 23.25 52.75 18.25 38.5 18 14.25 18.25 48.5 16.5 39.75 20 58L1821 2186l.5 101.75-22.75 76.5L1803 2453l9 58-1 39.25 19 42.75 19 38.5 29.5 39.25 23.5 30.75 28.75 68.5 15.25 24.5 14.25 34.5 32 114.75 3 9.25 26.5 46.75 28 28.5 12 2.75 124.75-12.5" fill="none" stroke="#000" stroke-width="5" stroke-linejoin="round"/></svg>