<svg xmlns="http://www.w3.org/2000/svg" viewBox="0, -1200, 5600, 7150" height="7150" width="5600"><path style="fill:none;stroke:#00a650;stroke-width:5;stroke-linecap:butt;stroke-linejoin:round;stroke-miterlimit:4;stroke-dasharray:none;stroke-opacity:1" d="m1872.5 2658 20-11h19l44.5 9.5h14l24.5 3 14-3 10-7 4-19.5-2.5-9.5-23.5-25-21-14.5-16-11.5-21.5-13.5-8-3-13 5-11.5 12-3.5 14 2 34-6.5 15-29 28.5-158 124-32.5 26.5-12.5 29.5-12.5 4.5-18.5-2.5-54-22-105.5-46-21-3.5-36-18-18.5-22-61-29-70.22-50.91"/><path style="fill:none;stroke:#2061b6;stroke-width:5;stroke-linecap:butt;stroke-linejoin:round;stroke-miterlimit:4;stroke-dasharray:none;stroke-opacity:1" d="m1778-1071.52.28.5v14l-8.5 16-99.5 104.5-14.02.5-22.04.5L1408.5-373l-44.5 74L1177 0l-20.5 42.5-13 65 1.5 60.5 12 242 107.5 324.5 8.5 30.5 8 52 45.53.10.55.22.5 63.5 22.5 43.52.256.52.25.5 23.5 18 52 20 33 21.5 59.5 54.5 24.5 33.5 78.51.7.5 28.5 1.5 20.5-12.06.5.5 34 9 45.52.24.5 27.54.22.5 25.5 7.52.1.5 22-12.5 22-29.5 49.5-10 34-30 181.5 3 43 5.5 22.53.38.5 10.5 23.5 12.5 27.5 18.52.12.5 3.5 41 8 12.8 9.33M1923.5 2185l54.76-89.53"/><text style="font-style:normal;font-weight:400;font-size:144px;line-height:125%;font-family:Sans;-inkscape-font-specification:Sans;letter-spacing:0;word-spacing:0;fill:#000;fill-opacity:1;stroke:none" xml:space="preserve" y="5847.96" x="89.45"/><text style="font-style:normal;font-weight:400;font-size:144px;line-height:125%;font-family:Sans;-inkscape-font-specification:Sans;letter-spacing:0;word-spacing:0;fill:#000;fill-opacity:1;stroke:none" xml:space="preserve" y="-993.04" x="89.45"><tspan y="-993.04" x="89.45">2020</tspan></text><path d="m4631.23 3669.45-38.27.58-7.93 2.1-30.69 21-4.32 7.47-10.27 30.46 1.98 43.29-3.38 19.95.826.07 3.27 5.48 17.04 9.1 56.01 30.81.353.03-11.67 20.77.355.6 13.89 7.7 5.72 5.72" style="opacity:1;fill:none;fill-opacity:1;fill-rule:nonzero;stroke:#f79422;stroke-width:5;stroke-linecap:butt;stroke-linejoin:round;stroke-miterlimit:4;stroke-dasharray:none;stroke-opacity:1"/><path d="m4604.51 3875.18-82.62-44.46-1.52-2.8 6.07-20.07 4.32-4.55 4.9-1.87 2.33-.82M4822.6 3779.49l.23-6.3 17.97-80.28 3.03-16.57-4.2-13.54-9.8-7.7-19.37-1.87-21.24.7-10.74 4.67-6.3 7.7-9.8 17.5-13.3 15.17-18.44 19.37-15.17 5.83-17.5 1.87-13.07 6.3-10.27 6.3-8.4 2.33-8.64-1.63-4.2-3.97-.47-6.3 5.83-18.44.7-16.1-1.4-10.04" style="opacity:1;fill:none;fill-opacity:1;fill-rule:nonzero;stroke:#f79422;stroke-width:5;stroke-linecap:butt;stroke-linejoin:round;stroke-miterlimit:4;stroke-dasharray:none;stroke-opacity:1"/><path d="m4631.23 3669.45 11.2.828.87 5.13 4.67 5.13 3.03 7M4822.6 3779.49l.93 7.47 3.73 7.93 21.7 25.91 3.5 6.07v4.9l-1.4 6.3-3.5 6.53-27.54 24.97-2.1 5.13 2.33 6.07 6.3 4.67 13.54 2.1 32.91 2.1 3.73 3.27.236.77-12.37 10.04-4.2 6.07-11.67 22.4-6.53 14-7.47 8.87-9.8 5.6-10.5 3.27-22.87-.93-30.11 3.27-28.94-1.17-11.9-4.2-15.4-12.6-15.17-19.37-8.17-4.67-29.41-11.44-7.47-6.77-20.89-23.45M4225.15 3347.27l1.63-11.67 5.6-12.14 12.84-11.67 15.64-11.44 10.5-31.74 4.9-1.4 22.87 5.6 3.03-1.4 2.57-11.9 3.27-1.4 15.4 3.27 8.64-6.53 7.93-13.77 7.47-6.77 7.47-16.1-1.63-3.5-13.77-3.03-1.63-3.03 3.27-10.74-4.43-3.97-10.27 3.5-3.73 5.6-2.33.7-8.57-5.21-12.54-7.26-16.83-5.28-91.42-8.58-45.22 3.63-59.74-17.49-14.19.99-50.83 10.89-24.42 6.6-46.21-5.61-30.03-1.32-27.06-6.6-23.1-1.32-8.25-2.97-12.54-17.49-24.75-8.91-1.98-3.63 8.25-20.79 31.35-53.47 10.56-7.92 31.02-2.97 48.85 3.96 1.98 3.3-10.89 37.96-2.97 1.98-27.39-6.93-2.31.66-5.94 22.11-4.95 2.97-8.58-.33-51.16-13.86-3.3.33M4341.14 3197.9l5.98-14.23v-7.92l-2.97-4.29.33-3.96 11.22-5.61 9.24 1.65 49.51-18.81 20.79.992.31 1.65 3.96-2.64 11.22-4.29 19.8-12.54 21.78-6.27 11.22-7.92 24.75-18.48 25.74-8.58 34.66-7.92 35.98-0.670.3812.54 18.48 2.64 24.42-2.31 16.83-3.96 51.16-52.48 11.22-7.92 57.76-24.75 51.16-18.15 34.33 1.32 48.52-17.49 29.37-7.59 24.09.666.93-5.28 14.85-15.18 14.85-4.95 28.05-2.31 30.03-21.45 119.81-7.59 51.16 7.59 38.95-10.56 118.49.997.92-1.65 1.98-1.65-6.93-37.3 1.98-1.98 23.76-0.33.52-2.31M4288.69 3644.43l1.32 6.6 8.91 7.26.835.28v2.64" style="opacity:1;fill:none;fill-opacity:1;fill-rule:nonzero;stroke:#f79422;stroke-width:1;stroke-linecap:butt;stroke-linejoin:round;stroke-miterlimit:4;stroke-dasharray:none;stroke-opacity:1"/><path style="opacity:1;fill:none;fill-opacity:1;fill-rule:nonzero;stroke:#f79422;stroke-width:1;stroke-linecap:butt;stroke-linejoin:round;stroke-miterlimit:4;stroke-dasharray:none;stroke-opacity:1" d="m4657.2 3682.55 13.7-5.45 11.72-9.41.83-4.13-6.44-6.27-18.65-14.85-2.64-4.79v-5.45l6.44-19.64-.5-16.83-4.46-12.38-9.24-13.53-7.1-7.1-4.46-.99-82.18 33.01-12.87 2.81-11.55.33-93.07.66-19.14 2.81-32.35-.66-23.76 1.82-49.01 13.53-3.63 3.3-2.15 4.46"/><path style="opacity:1;fill:none;fill-opacity:1;fill-rule:nonzero;stroke:#f79422;stroke-width:1;stroke-linecap:butt;stroke-linejoin:round;stroke-miterlimit:4;stroke-dasharray:none;stroke-opacity:1" d="m4299.75 3666.21 3.63.6611.39-3.63 9.9-8.25 13.53-12.38 19.97-9.41 32.18-0.83.36-7.43 21.95-2.97 29.04-0.330.875.78 9.57 1.16 7.59-2.15 7.1-5.61 7.1-9.74 1.32-11.22-1.98-24.26-6.6-24.92-12.05-20.13-12.21-15.18-16.5-15.35-49.01-43.07-66.34-56.77-17.82-12.38-23.76-8.25-24.59-1.98-38.29 5.61-25.91-2.15-23.76-5.12-27.23-8.75-13.7-.83-19.14.17-2.15-2.81-.5-12.38 4.46-7.76 8.58-9.24 5.12.1718.98 12.21 9.24 3.63 21.78 2.15h2.64l1.64-5.23"/><path style="opacity:1;fill:none;fill-opacity:1;fill-rule:nonzero;stroke:#f79422;stroke-width:1;stroke-linecap:butt;stroke-linejoin:round;stroke-miterlimit:4;stroke-dasharray:none;stroke-opacity:1" d="m4188.19 3367.18-24.26-21.29-1.16-8.42M4511.15 3628.58l5.94 4.29 2.31.997.43-3.3 3.14.173.96 1.65 3.14 3.63 2.97 1.16 2.81-0.83.82-1.98v-4.13l-5.12-5.28-1.49-8.91-3.8-16.17"/><path style="opacity:1;fill:none;fill-opacity:1;fill-rule:nonzero;stroke:#f79422;stroke-width:1;stroke-linecap:butt;stroke-linejoin:round;stroke-miterlimit:4;stroke-dasharray:none;stroke-opacity:1" d="m4517.09 3632.87-.3-2.61 1.95-3.83"/><path d="m1663 2843-20 37.5-25.5 16.5-10 25 2 14 10 11.5 23.5 16 8 12 5 17.5 31.5 89 20 76 79 256.5 64.52.112.5 473.5 51.13 221.58" style="fill:none;stroke:#00a650;stroke-width:5;stroke-linecap:butt;stroke-linejoin:round;stroke-miterlimit:4;stroke-dasharray:none;stroke-opacity:1"/><path style="fill:none;stroke:#f79422;stroke-linejoin:round;stroke-opacity:1" d="m4308 3258.12-28.47-8.69-8.02 1.93-25.98 11.15-2.29 2.54-2.66 41.28-0.81.35"/><path style="opacity:1;fill:none;fill-opacity:1;fill-rule:nonzero;stroke:#f79422;stroke-width:1;stroke-linecap:butt;stroke-linejoin:round;stroke-miterlimit:4;stroke-dasharray:none;stroke-opacity:1" d="m3877.78 3476.43 18.81-18.48 11.22-29.7-2.64-9.24-2.64-11.22 1.98-16.5 4.29-3.63 20.13-5.61 3.3-1.32-1.65-43.9 2.97-6.6 32.35-28.05v-2.31l-26.73-17.16-55.12-8.91-2.31-3.63 1.65-14.19 5.28-9.57 11.22-6.6 19.47-7.26 42.91 5.61 24.75 15.51 2.31 9.57h3.96l13.86-10.56 7.92-11.88 13.2-29.04 7.59-36.97 3.96-3.63M4387.8 3947.58l-2.46-.96-15.73-10.38-20.75-7.7-40.84-34.64-25.61-14.9-6.86-8.54-16.9-45.36-8.84-18.75-13.42-26.18-5.87-6.73-28.75-18.99-4.64-6.4-.91-2.78 4.52-7.36 16.4-16.07 7.7-32.8 1.76-11.21-.68-14.94-1.19-4.01 3.4-3.07 9.57.336.27-2.64 1.32-2.31.49-5.45-2.81-3.47-3.47-1.32-10.23 1.49-7.26-2.48-.83-7.1.3-2.93 8.12-2.68 18.98-1.65 1.67-.51"/><path d="m4520.37 3827.92-2.95 18.83-3.3 1.65-26.4-3.96-8.58 1.65-5.61 3.63-5.28 10.23-8.58 29.04-7.59 7.59-11.55 6.27M4440.52 3902.86l-18.16 7.57-12.07 10.65-22.49 26.51" style="opacity:1;fill:none;fill-opacity:1;fill-rule:nonzero;stroke:#f79422;stroke-width:5;stroke-linecap:butt;stroke-linejoin:round;stroke-miterlimit:4;stroke-dasharray:none;stroke-opacity:1"/><path style="fill:none;stroke:#f79422;stroke-linejoin:round;stroke-opacity:1" d="m3822.66 3134.17-3.46 1.32-25.97-9.69-34.66-18-51.12-15.83-19.96-2.6h-18.69l-16.15-4.73-10.16-6.17-25.5-24.79-14.41-5.33-8.99-6.87-22.75-22.42-3.11-12.01-3.41-3.39-18.84-7.53-23.74-4.02-13.53-7.95-2.89-11.62-48.3-39.07-15.78-7.88-26.82-21.06-29.97-9.88-5.12-.47-14.17 6.04-24.39-3.97h-10.18l-6.81-3.92-2.54.25-56.97 57.5-3.32 1.27-3.11-.93-17.63-14.53-21.94-26.94-35.66-20.76-17.41-8.4-35.54-13.52-32.81-17.78-69.13-59.09-72.89-64.95-6.89-2.17-30.36 1.61-36.19 6.06-133.52 38.49-60.03 12.21-12.8-.35-30.33-9.13-24.39-11.65-18.86-4.32-28.89-.58-50.82-10.72-25.46-9.49-23.25-6.64-17.96-7.75-21.53-5.43-23.54-11.75-49.68-22.15-23.22-7.98-58.62-8.97-46.41-13.53-16.38-7.21-14.67-11.99-3.93-2.29-7.74-1.56-2.71-2.57-.92-7.41-4.64-3.12-21.65-1.85-2.82 1.73-1.17 15.11-1.87 1.54-11.23.53-22.81-33.67-7.13-1.68-59.61-7.52-15.6-3.56-36.23-1.23-1.78.68-7.62 22.43-4.47 2.58-7.72-3.19h-3.02l-11.87 7.54"/><path style="opacity:1;fill:none;fill-opacity:1;fill-rule:nonzero;stroke:#f79422;stroke-width:1;stroke-linecap:butt;stroke-linejoin:round;stroke-miterlimit:4;stroke-dasharray:none;stroke-opacity:1" d="m4469.26 3857.68-4.9 1.87-13.77-5.6-9.1-11.9-4.2-20.77-3.97-5.83-7.47-2.33-22.87 1.87-14.94 2.24-4.89 3.36-17.27-2.33-8.4 1.17-10.5 5.6-2.1-.23-18.67-17.97v-1.87l6.07-9.1.47-2.8-14.24-14.24v-2.33l3.27-7.7v-2.1l-6.07-5.6-2.57-.93-3.97 1.4-3.73 12.14-3.03 1.17-6.07-1.4-3.73-3.73-7.23-23.8v-26.37l3.73-3.27 21.7-1.87 2.33-1.63-.93-23.57 1.63-9.1-.47-14 4.43-18.2 7.37-20.77M4325.16 3627.1l.17-2.48-1.82-2.15-15.35.17-1.49 1.16-10.4 15.68-7.59 4.95-4.29.5-7.43-1.49-6.44-3.47-7.92-17.82-2.15-.17-10.21 3.12-.02-3.7 10.48-3.88 1.98 4.87"/></svg>