<svg xmlns="http://www.w3.org/2000/svg" height="1300" width="3100"><path d="m132.78 292.51 7.86 15.73 9.76 8.14 61.02 43.66 13.56 13.29 68.07 75.66 93.02 100.34 20.88 30.64 14.92 33.63 4.88 7.59 25.76 25.76 18.44 21.42 11.12 18.44 24.68 39.86" style="opacity:1;fill:none;fill-opacity:1;fill-rule:nonzero;stroke:#f60;stroke-width:5;stroke-linecap:butt;stroke-linejoin:round;stroke-miterlimit:4;stroke-dasharray:none;stroke-opacity:1"/><path d="m506.75 726.68 23.05 38.78" style="opacity:1;fill:none;fill-opacity:1;fill-rule:nonzero;stroke:#f60;stroke-width:1;stroke-linecap:butt;stroke-linejoin:round;stroke-miterlimit:4;stroke-dasharray:none;stroke-opacity:1"/><path d="m529.8 765.46 55.32 90.85 26.85 43.93 13.02 16.81 16.27 13.83 37.42 26.3" style="opacity:1;fill:none;fill-opacity:1;fill-rule:nonzero;stroke:#f60;stroke-width:5;stroke-linecap:butt;stroke-linejoin:round;stroke-miterlimit:4;stroke-dasharray:none;stroke-opacity:1"/><path d="m678.68 957.19 27.66 18.98 8.14 1.36 15.73-0.276.78 1.9 42.31 29.29 6.78 7.32 48.27 53.42 15.19 17.63 3.25 10.3 3.53 1.9 5.15-0.8113.29 3.8 3.8 5.69 24.14 49.63 5.69 1.63 39.05-20.88 112.01 1.48 8.15-1.66 4.59 2.08" style="opacity:1;fill:none;fill-opacity:1;fill-rule:nonzero;stroke:#f60;stroke-width:1;stroke-linecap:butt;stroke-linejoin:round;stroke-miterlimit:4;stroke-dasharray:none;stroke-opacity:1"/><path d="m1072.17 1139.97 87.86 34.71 10.030.8129.62-7.19" style="opacity:1;fill:none;fill-opacity:1;fill-rule:nonzero;stroke:#f60;stroke-width:5;stroke-linecap:butt;stroke-linejoin:round;stroke-miterlimit:4;stroke-dasharray:none;stroke-opacity:1"/><text style="font-style:normal;font-weight:400;font-size:144px;line-height:125%;font-family:Sans;-inkscape-font-specification:Sans;letter-spacing:0;word-spacing:0;fill:#000;fill-opacity:1;stroke:none" xml:space="preserve" y="206.96" x="89.45"><tspan y="206.96" x="89.45">2015</tspan></text></svg>