<svg xmlns="http://www.w3.org/2000/svg" height="1300" width="3100"><path d="M132.78 292.509l7.864 15.728 9.763 8.136 61.017 43.661 13.559 13.288 68.068 75.661 93.017 100.34 20.881 30.643 14.915 33.627 4.882 7.594 25.762 25.762 18.441 21.424 11.119 18.44 24.678 39.865" fill="none" stroke="#f60" stroke-width="5" stroke-linejoin="round"/><path d="M506.746 726.678l23.05 38.78" fill="none" stroke="#f60" stroke-linejoin="round"/><path d="M529.797 765.458l55.322 90.847 26.847 43.932 13.017 16.814 16.271 13.83 37.424 26.305" fill="none" stroke="#f60" stroke-width="5" stroke-linejoin="round"/><path d="M678.678 957.187l27.661 18.983 8.136 1.356 15.728-.272 6.78 1.899 42.305 29.288 6.78 7.322 48.271 53.423 15.186 17.628 3.255 10.305 3.525 1.898 5.153-.814 13.288 3.797 3.796 5.695 24.136 49.627 5.695 1.627 39.05-20.881 112.01 1.483 8.147-1.663 4.59 2.078" fill="none" stroke="#f60" stroke-linejoin="round"/><path d="M1072.17 1139.966l87.864 34.712 10.034.814 66.983-16.272 35.254-11.39 179.254-54.508 13.017-8.407 95.458-70.78 8.407-9.762 17.627-34.44 87.05-135.051 24.136-34.712 10.034-12.475 21.424-16 84.068-61.83 251.39-179.797 21.152-14.915 15.187-11.119 287.457-205.83 27.932-21.424 30.373-19.526 25.22-7.864 90.577-18.712 26.576-.814 27.932 2.441 373.416 39.865" fill="none" stroke="#f60" stroke-width="5" stroke-linejoin="round"/><path d="M2066.068 527.898L2078 530.61l5.695 6.78 2.44 33.627 16.814 58.576v10.305l-9.491 21.967-2.712 21.423-9.22 72.678" fill="none" stroke="#f60" stroke-width="5" stroke-linejoin="round"/><text style="line-height:125%;-inkscape-font-specification:Sans" y="206.96098" x="89.453102" font-weight="400" font-size="144px" font-family="Sans" letter-spacing="0" word-spacing="0"><tspan y="206.96098" x="89.453102">2020</tspan></text></svg>