<?xml version="1.0" encoding="UTF-8" standalone="no"?>
<!-- Created with Inkscape (http://www.inkscape.org/) -->

<svg
   xmlns:dc="http://purl.org/dc/elements/1.1/"
   xmlns:cc="http://creativecommons.org/ns#"
   xmlns:rdf="http://www.w3.org/1999/02/22-rdf-syntax-ns#"
   xmlns:svg="http://www.w3.org/2000/svg"
   xmlns="http://www.w3.org/2000/svg"
   xmlns:xlink="http://www.w3.org/1999/xlink"
   version="1.1"
   width="8857.5996"
   height="12096"
   id="svg2">
  <metadata
     id="metadata8">
    <rdf:RDF>
      <cc:Work
         rdf:about="">
        <dc:format>image/svg+xml</dc:format>
        <dc:type
           rdf:resource="http://purl.org/dc/dcmitype/StillImage" />
        <dc:title></dc:title>
      </cc:Work>
    </rdf:RDF>
  </metadata>
  <defs
     id="defs6" />
  <image
     xlink:href="file:///home/alexander/timelines/experiments/camap/caosm2.png"
     x="256"
     y="0"
     width="2150.3999"
     height="2150.3999"
     id="image3156"
     style="display:none" />
  <image
     xlink:href="caosm.png"
     style="display:none"
     id="image10"
     height="10214.4"
     width="8601.5996"
     y="1881.6"
     x="256" />
  <path
     d="m 1187.3131,2734.788 -2.4987,0.3465 -3.9516,1.281 -2.3244,1.1025 -2.8475,3.255 -2.0919,1.9215 -3.138,1.155 -2.8475,0.357 -3.0217,-0.7035 -7.9612,-3.5385 -2.5569,-0.525 c 0,0 -3.9516,0.6405 -4.126,0.693 -0.1743,0.105 -5.4042,1.575 -5.4042,1.575 l -8.9492,5.397 0,0.819 54.2176,92.631 23.7674,40.152 0.523,0.168 0.8716,-0.63 0.523,0.231 9.0072,15.393 -0.058,0.6405 -11.3897,6.6255 -0.1162,0.756"
     id="path3759-2"
     style="fill:none;stroke:#00aeef;stroke-width:0.62499946;stroke-linecap:butt;stroke-linejoin:round;stroke-miterlimit:4;stroke-opacity:1;stroke-dasharray:none" />
  <path
     d="m 1187.0226,2734.851 9.3558,0.3465 1.5109,0.693 2.9637,2.205 2.4406,1.7535 10.7506,6.615 4.8813,3.024 3.2542,2.6145 4.5908,3.6015"
     id="path3761-3"
     style="fill:none;stroke:#00aeef;stroke-width:0.62499946;stroke-linecap:butt;stroke-linejoin:round;stroke-miterlimit:4;stroke-opacity:1;stroke-dasharray:none" />
  <path
     d="m 1226.538,2755.536 9.1234,7.203 12.1452,10.1115 4.7651,3.948 4.8813,6.804 13.6561,15.8025 10.1694,11.6235 7.0314,8.778 10.2857,13.0095 5.5787,7.2135 3.2541,6.153"
     id="path3763-8"
     style="fill:none;stroke:#00aeef;stroke-width:0.62499946;stroke-linecap:butt;stroke-linejoin:round;stroke-miterlimit:4;stroke-opacity:1;stroke-dasharray:none" />
  <path
     d="m 1213.6374,2880.591 9.5302,16.0335 -0.3487,0.7035"
     id="path3765-8"
     style="fill:none;stroke:#00aeef;stroke-width:0.62499946;stroke-linecap:butt;stroke-linejoin:round;stroke-miterlimit:4;stroke-opacity:1;stroke-dasharray:none" />
  <path
     d="m 1212.9401,2903.775 1.4528,2.205 0.6973,1.6905 1.569,6.6255 1.3946,3.0135 0.5812,3.318 0.6391,2.205 1.2785,3.6645 3.138,4.179 2.7312,3.486 11.3317,18.1335 3.2541,5.3445 1.4528,2.9715 1.4528,4.5885 2.9055,9.1245 1.1041,3.3075 2.092,4.1895 4.9976,8.715 2.1501,5.6385 1.6271,5.1135 0.9878,5.3445 1.046,4.0635 2.2083,4.074 1.2785,2.436 1.3946,3.717 0.7555,5.985 -0.1163,6.972 -1.4528,4.4835 -1.046,2.499 0.058,1.5645 1.1042,0.756 9.9369,0.105 8.6004,0.4725 3.603,0.924 22.8956,13.8915 10.2276,6.1005 3.9515,1.3965 4.3584,0.5775 19.7576,0.231 4.3003,1.1655 14.7601,4.767 3.138,1.68 2.4407,2.331 0.2905,1.5645 -1.046,2.8455"
     id="path3767-6"
     style="fill:none;stroke:#00aeef;stroke-width:0.62499946;stroke-linecap:butt;stroke-linejoin:round;stroke-miterlimit:4;stroke-opacity:1;stroke-dasharray:none" />
  <path
     d="m 1248.2134,3063.984 2.2082,-4.1265 4.4746,-16.38 0.8135,-1.4595 1.1041,-0.2835 5.2299,0.168 0.8137,-0.693 0.6391,-0.8715 0.8717,-2.2155"
     id="path3769-8"
     style="fill:none;stroke:#f37121;stroke-width:0.62499946;stroke-linecap:butt;stroke-linejoin:round;stroke-miterlimit:4;stroke-opacity:1;stroke-dasharray:none" />
  <path
     d="m 1011.1729,2738.5785 0.876,-0.7455 1.6269,0.4305 2.8782,2.3835 1.5017,1.0605 11.7631,3.129 1.5642,0.8085 3.0034,3.885 1.1888,2.436 0.3754,2.3835 -1.1888,4.3785 0.5005,0.9975 3.2537,0.819 1.5643,-0.126 3.0033,-1.5645 9.2603,-0.189 10.2615,0.252 3.5038,-0.567 7.5085,0 7.6961,0.441 4.6301,0 4.0045,-0.315 3.0033,-0.8085 5.7565,-3.192 9.6983,-4.7565 1.6893,-1.4385 1.9397,-3.255 1.5643,-1.1865 2.6905,-0.441 2.5654,0.6825 7.0078,5.1975 2.5027,0.8715 2.1961,-0.2205 3.0924,-2.1315 1.5643,0.6825 45.3305,77.511 33.0154,55.692 8.7813,14.763 0,0.6825 -11.5754,6.573 -0.876,0.378 -1.5018,-2.3205 -0.2502,-2.184 -1.0011,-0.63 -4.3799,1.1865 -2.0648,-0.105 -1.6268,-1.4385 -1.0012,0.315 0,4.1895 0.7509,5.0085 0.1251,2.373 -2.1274,2.8875 -20.8356,23.898 -30.2839,34.6605 -5.6313,8.6415 -9.886,16.2645"
     id="path3759-6"
     style="fill:none;stroke:#83c343;stroke-width:0.62499946;stroke-linecap:butt;stroke-linejoin:miter;stroke-miterlimit:4;stroke-opacity:1;stroke-dasharray:none" />
  <path
     d="m 1011.4232,2738.3265 -2.7531,10.5105 0.5632,1.6905 1.2514,3.507 -0.6257,3.066 -1.1263,0.9345 -4.0045,1.8795 -3.7541,0.693 -5.25591,0.126 -3.50385,1.1865 -1.87709,-0.252 -12.95196,-3.759 -3.81675,-2.184 -1.18891,0.189 -0.43796,0.8085 0.43796,1.3125 1.12633,1.7535 0.75075,0.819 -0.063,1.1235 -3.69169,13.0095 -0.93849,1.3755 -1.50171,0.693 -3.62901,1.2495 -5.69384,4.3155 -1.06375,3.129 -1.68935,0.756 -1.12623,-0.315 -22.96318,-11.571"
     id="path3804"
     style="fill:none;stroke:#83c343;stroke-width:0.62499946;stroke-linecap:butt;stroke-linejoin:round;stroke-miterlimit:4;stroke-opacity:1;stroke-dasharray:none" />
  <path
     d="m 1222.2836,2897.1915 2.2526,-1.4385 0.125,-0.8715 -8.6971,-14.6475 -1.0638,-0.5565 -1.314,0.6825 -0.6881,-0.189"
     id="path3981"
     style="fill:none;stroke:#83c343;stroke-width:0.62499946;stroke-linecap:butt;stroke-linejoin:round;stroke-miterlimit:4;stroke-opacity:1;stroke-dasharray:none" />
  <path
     d="m 436.80866,2322.768 0.50337,5.481 1.06963,3.7065 1.88769,7.8015 2.13927,6.8565 0.69216,2.205 1.44722,1.386 2.83143,-0.105 1.51011,-0.252 3.90106,-1.323 1.6989,-0.882 3.83828,-1.449 1.6359,-0.441 1.38432,0.105 1.06963,0.945 0.18879,0.945 -0.25168,1.26 -0.56637,0.756 -1.32132,0.567 -12.52136,3.5805 -0.50337,-0.252 -0.25168,-0.6825 -0.25169,-2.646"
     id="path3857"
     style="fill:none;stroke:#000000;stroke-width:0.6249994;stroke-linecap:butt;stroke-linejoin:round;stroke-miterlimit:4;stroke-opacity:1;stroke-dasharray:none" />
  <path
     d="m 508.47609,1725.4545 3.52359,4.788 3.52359,3.8955 2.64264,2.142 2.76854,1.764 2.01348,0.63 20.88996,-0.126 8.93476,0.252 3.14612,0.63 3.14601,1.7535 2.64274,2.268 16.8629,27.5625 17.49216,26.6805 1.6359,3.3915 3.47697,13.3245 3.55036,14.0175 3.98643,11.277 2.05559,5.103 0.99655,1.3125 0.80976,0.9975 2.67834,1.68 1.49499,0.8715 3.05214,1.554 1.99322,0.8715 1.12119,0.252 9.46774,-1.554 4.54703,-0.756 1.68178,0.9975 0.93429,0.7455 0.62297,1.6905 2.05548,19.992 -0.062,3.675 -3.73737,12.705 -2.55381,7.791 -0.062,2.0475 0.062,2.184 2.30464,13.8285 0.68523,3.297 2.86524,4.4835 1.12119,1.806 0.80976,2.8665 -4.05184,20.748 -0.94374,4.5255 -1.13264,4.599 -1.13253,5.4075 0.063,2.205 0.69216,2.0055 0.56627,0.945 2.70564,4.221 0.37747,0.945 0,1.134 -0.50337,1.1235 -8.3685,16.926 -0.50337,0.945 -1.25842,1.134 -1.51011,0.756 -1.44722,0.126 -1.636,-0.189 -2.51685,-1.512 -3.46059,-2.0685 -3.64949,-1.953 -3.46069,-1.197 -5.22249,-1.323 -5.85165,-2.772 -3.77528,-2.0055 -3.52359,-1.575 -6.48091,-2.016 -6.16623,-1.386 -6.22923,-0.756 -8.17982,-1.071 -5.78875,-0.4935 -8.68319,-0.693 -5.78875,-0.315 -7.36176,0.378 -5.72586,0.567 -19.00227,3.8955 -23.40671,4.5885 -10.0674,2.079 -4.71912,1.512 -4.59322,2.079 -23.40671,13.335 -1.45225,1.071 -3.83324,3.843 -11.19993,11.256 -22.90344,22.722 -0.81795,1.8795 -0.31458,2.898 0.12579,3.78 0.81806,11.067 1.95048,25.3575 0.37758,5.733 -0.44048,1.6905 -6.04044,11.5815 -4.46743,3.969 -5.85165,5.7225 -4.84491,4.7145 -2.39106,2.331 -3.83817,2.961 -3.77528,2.8875 -3.96406,2.142 -3.14612,1.953 -2.20216,1.953 -1.6989,2.4465 -1.25843,2.646 -1.06974,4.3995 -0.44037,4.221 -0.56637,4.9035 -0.88084,2.205 -1.51011,2.331 -6.7326,6.9195 -1.88759,1.26 -2.51695,1.071 -7.48755,0.126 -3.33491,-0.105 -1.76179,0.441 -1.44711,1.071 -1.63601,2.0685 -4.78201,7.4235 -0.94385,2.016 -0.18868,2.079 0,2.079 0.25189,3.675 0.49833,4.1055 1.05893,5.2395 0.24906,9.5865 0.56059,1.806 2.11785,4.7985 2.55381,2.5515 2.24238,1.869 3.8619,3.2655 1.43262,1.491 1.43262,1.995 2.30465,3.4335 2.42917,3.36 2.80298,2.2365 3.3013,2.8035 3.10412,4.284 2.13927,5.1555 2.39106,3.528 4.78201,4.5255 5.1596,4.41 3.90106,3.1395 3.14612,5.292 2.39095,3.1395 5.28539,4.284 7.67644,5.0295 3.14612,3.906 9.56403,13.965 1.51011,3.906 2.89432,6.2895 9.06066,18.753 10.44498,19.7505 2.51685,2.394 2.89443,1.386 3.64938,0.252 4.90791,-0.252 4.27865,-1.386"
     id="path3610"
     style="fill:none;stroke:#009ada;stroke-width:0.6249994;stroke-linecap:butt;stroke-linejoin:round;stroke-miterlimit:4;stroke-opacity:1;stroke-dasharray:none" />
  <path
     d="m 338.52551,2106.951 -0.62927,0.315 -1.19542,-0.819 -1.13264,-0.315 -4.78201,0.378 -0.56627,-0.105 -0.25168,-0.441 -0.18879,-2.646 -0.31458,-0.441 -19.12817,1.008 -31.02015,1.764 -0.31458,0.441 0.50337,10.0695 -0.25168,0.378 -1.00674,0.105 -0.31469,-0.315 -0.18879,-2.961 0.31469,-0.378 0.94384,-0.105 0.25169,-0.315"
     id="path3592"
     style="fill:none;stroke:#d31345;stroke-width:0.6249994;stroke-linecap:butt;stroke-linejoin:round;stroke-miterlimit:4;stroke-opacity:1;stroke-dasharray:none" />
  <path
     d="m 338.5884,2106.699 -1.00674,1.89 -1.88758,2.1315 -3.08322,3.087 -1.82469,2.331 -1.25843,2.7615 -0.18879,1.764 -0.18868,5.544 0.44037,0.6195 4.02696,2.016 1.00674,1.197 1.44721,2.961 2.32806,2.079 3.33491,1.6905 3.96406,1.638 8.93477,2.331 5.09659,1.386 5.0337,-0.105 1.8248,0 0.37747,0.504 -0.44047,2.0055 0.31468,0.945 0.56627,0.126 0.50337,-0.378 1.13263,-1.8795 0.12579,-0.441 -0.18879,-0.252 -1.44721,0 -0.81795,-0.504"
     id="path3594"
     style="fill:none;stroke:#d31345;stroke-width:0.6249994;stroke-linecap:butt;stroke-linejoin:round;stroke-miterlimit:4;stroke-opacity:1;stroke-dasharray:none" />
  <path
     d="m 398.30075,2051.952 -3.3348,0.105"
     id="path3598"
     style="fill:none;stroke:#d31345;stroke-width:0.6249994;stroke-linecap:butt;stroke-linejoin:miter;stroke-miterlimit:4;stroke-opacity:1;stroke-dasharray:none" />
  <path
     d="m 395.15474,2052.015 -3.02022,0.378 -5.0967,0.105 -1.88759,0.252 -4.40454,1.197 -15.91905,4.032 -0.94384,0.441 -0.62927,0.756 -12.39546,1.9425 -0.31458,0.756 -12.58425,0.819 -0.37758,0.378 0.063,2.898 -0.18868,0.378 -65.5641,3.5805"
     id="path3600"
     style="fill:none;stroke:#d31345;stroke-width:0.6249994;stroke-linecap:butt;stroke-linejoin:round;stroke-miterlimit:4;stroke-opacity:1;stroke-dasharray:none" />
  <path
     d="m 329.40195,2118.9 -3.77538,6.93 -1.00674,2.5095 -0.31458,7.9275 -0.31458,11.0775 0.50337,1.638 4.65623,5.9115 2.89432,3.717 0.81795,0.315 9.81572,-0.126 0.50337,0.441 0.12589,1.6275 0.44048,0.252 13.46509,-0.126 1.88769,-1.3125 4.40444,-6.489 0.44047,-1.3755 1.25843,-1.386 2.39106,-3.717"
     id="path3602"
     style="fill:none;stroke:#d31345;stroke-width:0.6249994;stroke-linecap:butt;stroke-linejoin:round;stroke-miterlimit:4;stroke-opacity:1;stroke-dasharray:none" />
  <path
     d="m 366.90302,2142.756 0.62916,-0.756 2.57985,0.105 0.69216,-0.378"
     id="path3604"
     style="fill:none;stroke:#d31345;stroke-width:0.6249994;stroke-linecap:butt;stroke-linejoin:round;stroke-miterlimit:4;stroke-opacity:1;stroke-dasharray:none" />
  <path
     d="m 453.67155,2010.2355 0.94385,1.26 1.95058,1.764 0.62916,1.575 0.31458,1.638 -0.37747,7.6755 -0.31458,4.7775 -0.31469,1.26 -0.88084,1.26 -9.12366,8.9985"
     id="path3606"
     style="fill:none;stroke:#d31345;stroke-width:0.6249994;stroke-linecap:butt;stroke-linejoin:round;stroke-miterlimit:4;stroke-opacity:1;stroke-dasharray:none" />
  <path
     d="m 448.32327,2038.554 0.063,0.756 3.20901,3.024 0.56627,0.252 1.82469,-0.189 0.50337,0.4935 1.636,20.769 0.063,4.3995 0.88095,7.749 1.6359,22.8375 -0.18879,1.575 -8.80897,31.521 -2.64264,7.4865 -3.58659,9.8175 -1.82469,2.583 -0.18879,0.8715 0.12589,1.638 -0.75505,2.583 -0.69216,1.449 -2.51685,3.3915 -0.56627,0.63 -2.51685,0.945 -0.62926,0.63 -2.45396,4.158 -0.44037,1.5015"
     id="path3608"
     style="fill:none;stroke:#d31345;stroke-width:0.6249994;stroke-linecap:butt;stroke-linejoin:round;stroke-miterlimit:4;stroke-opacity:1;stroke-dasharray:none" />
  <path
     d="m 633.31196,1990.296 0.18879,1.512 0.75505,1.0605 10.38198,5.229 3.20901,2.016 3.3348,2.6355 3.02033,3.213 2.64264,2.394 2.64274,1.7535 4.96535,2.184 1.36542,0.483 5.81385,3.171 10.70275,6.258 3.47949,2.5935 5.76986,4.3155 1.40941,1.4175 6.51179,5.502 7.29886,4.41 5.53707,4.5255 7.04729,4.284 3.02022,3.8955 6.16623,7.1715 20.51238,21.525 32.71905,34.986 17.86974,18.7425 1.76179,2.646 5.41118,9.9435 1.51011,1.89 6.92139,6.0375 20.1348,17.619 24.03597,20.5065 26.8045,23.541 28.69209,25.1685 7.04718,5.9115 3.3978,3.654 13.71689,22.6485 26.42692,41.7795 2.89433,5.5335 3.27201,7.5495 3.52359,8.3055 2.13927,3.402 3.64948,4.3995 8.17971,8.9355 9.94161,11.4555 8.43152,11.4555 7.5505,8.9355 3.3977,5.1555 8.1798,7.9275 24.5394,23.7825 15.2269,14.595 1.636,2.646 6.2921,9.0615 4.4045,4.7775 4.2787,4.158 4.5303,3.654"
     id="path2863"
     style="fill:none;stroke:#009ada;stroke-width:0.6249994;stroke-linecap:butt;stroke-linejoin:round;stroke-miterlimit:4;stroke-opacity:1;stroke-dasharray:none" />
  <path
     d="m 634.38159,1992.8685 -1.44711,0.126 -1.44721,0.756"
     id="path3637"
     style="fill:none;stroke:#009ada;stroke-width:0.6249994;stroke-linecap:butt;stroke-linejoin:round;stroke-miterlimit:4;stroke-opacity:1;stroke-dasharray:none" />
  <path
     d="m 643.59366,1928.0835 0.74739,-3.9795 0.62286,-4.053 0.5607,-2.121 1.05882,-1.554 1.43262,-1.491 1.99322,-1.2495 9.21868,-3.801 8.22203,-3.9165 6.22881,-3.1815 6.22881,-4.4205 5.97964,-4.3575 2.61608,-1.5645 2.55391,-1.554 2.05548,-1.3755 19.10265,-11.739 5.1596,-4.2735 3.64938,-2.898 2.51685,-2.394 20.63817,-11.319 6.16633,-1.89 6.41792,-2.268 5.66296,-3.3915 2.64275,-2.016 4.78201,-5.544 3.52359,-6.7935 3.02022,-5.0295 3.27191,-6.6675 3.14601,-3.654 4.53033,-3.024 4.78212,-2.3835 5.66286,-1.008 5.66296,-0.252 7.55055,1.386 13.33931,2.3835 3.14611,-0.252 5.78876,-0.378 4.78201,0.882 4.02696,0.504 3.77528,-0.252 14.72352,-4.5255 11.95509,-3.15 19.25395,-3.8955 9.68993,-1.764 9.43813,-0.378 10.44498,-0.126 7.29887,1.008 2.89443,0 3.02022,-0.378 3.02022,-1.26 3.02022,-2.016 2.13927,-2.5095 1.88769,-2.898 5.91454,-13.209 2.01348,-5.922 0.75506,-5.5335 1.13263,-4.914 1.6359,-4.2735 3.3978,-10.5735 1.25843,-2.3835 3.90117,-4.032 4.15275,-4.032 2.64274,-2.1315 37.50107,-24.2865 1.8877,-2.142 1.3842,-3.276 0.3776,-2.5095 -0.5034,-3.402 -2.0135,-7.0455 -7.173,-21.651 -0.3776,-4.7775 0.5033,-2.646 1.6361,-5.7855 2.2651,-6.1635 0.6293,-2.898 -0.881,-2.646 -2.2651,-4.6515 -1.636,-4.41 -3.14605,-9.681 -0.25168,-3.906 0.37747,-3.402 1.38436,-3.5175 4.2786,-7.2975 8.0539,-13.7235 6.7955,-10.689 2.7686,-2.646 22.4,-4.158 6.7955,-1.5015 5.1595,-2.142 3.2719,-1.638 4.1528,-3.15 4.9079,-3.6435 4.9079,-2.52 8.9348,-4.9035 4.9078,-1.89 5.4113,-0.504 4.5303,0.756 8.054,2.016 12.0808,2.7615 6.2922,2.142 4.2786,1.512 3.5236,0.504 3.9012,-0.126"
     id="path3057"
     style="fill:none;stroke:#009ada;stroke-width:0.6249994;stroke-linecap:butt;stroke-linejoin:round;stroke-miterlimit:4;stroke-opacity:1;stroke-dasharray:none" />
  <path
     d="m 434.3547,2346.3615 3.52359,5.922 2.76854,3.7695 4.40454,6.2895 6.29212,7.686 6.04044,7.4235 2.64264,3.6435"
     id="path3083"
     style="fill:none;stroke:#009ada;stroke-width:0.6249994;stroke-linecap:butt;stroke-linejoin:round;stroke-miterlimit:4;stroke-opacity:1;stroke-dasharray:none" />
  <path
     d="m 873.88985,2206.8585 3.73737,1.512 3.38142,0 3.20344,-0.2625 11.21201,-1.512 11.47891,-1.512 6.85178,-0.273 6.13998,-0.2625 16.63998,-0.1785 5.2501,-0.105 4.89416,-1.1655 4.5382,-1.155 8.45345,-2.667 3.47046,-0.441 5.87286,0.1785 3.73737,0.2625 2.75856,-0.714 3.8263,-1.512 2.22464,-1.6905 4.09321,-4.6305 3.91535,-4.3575 2.04655,-1.6905 3.02547,-1.2495 3.64844,-1.239 4.80514,0.441 3.3814,1.155 5.873,1.2495 2.9364,-0.1785 3.2034,-0.9765 4.2713,-1.785 3.7373,-1.0605 23.2249,-1.428 4.6272,0.5355 4.983,1.6905 8.0086,4.2735 4.0933,1.0605 8.1866,1.2495 10.856,2.4885 4.0933,0.714 5.0722,0.273 4.716,-0.4515 7.0298,-1.071 3.8264,-1.0605 6.4068,0.1785 28.1191,0.2625 2.8475,-0.357 15.4832,-4.3575 6.8518,-1.869 7.1187,-0.1785 25.4495,0.357"
     id="path3956"
     style="fill:none;stroke:#009ada;stroke-width:0.6249994;stroke-linecap:butt;stroke-linejoin:round;stroke-miterlimit:4;stroke-opacity:1;stroke-dasharray:none" />
  <path
     d="m 388.46141,2062.1895 0.12463,3.234 -3.23904,0.252"
     id="path5204"
     style="fill:none;stroke:#000000;stroke-width:0.6249994;stroke-linecap:butt;stroke-linejoin:miter;stroke-miterlimit:4;stroke-opacity:1;stroke-dasharray:none" />
  <path
     d="m 388.27461,2061.6855 0.1868,3.36 -0.12453,0.378 -3.23904,0.189 0.12463,-0.8715 17.31608,-18.0075 15.88345,-15.75 25.78737,-25.725 1.68179,-1.3125 1.12108,0.105 0.49833,0.4935 0.99666,-0.105 0.43596,-0.3045 0.12464,-0.504 -5.48142,-7.5915 -5.54358,-7.791 -2.18012,-3.1815 -3.4881,-3.234 -2.49154,-1.743 -4.98309,-2.9295 -5.35679,-0.8085 -6.85167,1.1235 -0.43596,0.4305 0.12453,1.2495 0.7475,0.378 12.27072,-1.995"
     id="path5206"
     style="fill:none;stroke:#d79100;stroke-width:0.6249994;stroke-linecap:butt;stroke-linejoin:round;stroke-miterlimit:4;stroke-opacity:1;stroke-dasharray:none" />
  <path
     d="m 368.66481,2143.8165 1.19553,-0.5565 4.90781,-7.623 2.95732,-4.9665 0.81795,-0.756 1.88769,-1.575 2.57975,-0.567 1.06963,-0.567 0.75516,-0.6825 0.81795,-1.764 0.75506,-0.441 4.40443,-2.646 4.34165,-2.709 1.88758,-1.5645 2.57985,-2.583 1.19543,-1.323 0.88095,-2.457 0.94384,-4.0845 0.62916,-1.701 -0.31458,-0.504 -4.34164,0.315 -0.25169,-0.378 -1.76179,-24.3495 0.56637,-0.819 -0.063,-1.323 0.62926,-0.693 0,-2.1945 -0.31458,-0.315 -0.62926,-0.126 -0.44048,-0.441 -0.31458,-5.418 -0.62916,-1.3125 -0.31468,-6.93 -0.62916,-8.1165 0.44047,-0.567"
     id="path3596"
     style="fill:none;stroke:#d31345;stroke-width:0.6249994;stroke-linecap:butt;stroke-linejoin:round;stroke-miterlimit:4;stroke-opacity:1;stroke-dasharray:none" />
  <path
     d="m 453.73445,2010.5505 -0.81795,-2.0055 -2.95733,-3.528 -1.25842,-0.189 -2.01348,0.315 -2.07638,0.441 -7.17307,7.3605 -13.5281,13.398 -7.23586,7.308 -8.5364,8.3265 -4.86591,4.9455 -9.06066,9.3765 -8.74608,9.0615 -2.64274,1.323 -2.83143,0.63 -1.7618,0.8085 -3.58648,2.709 -17.24048,15.414 -4.40443,3.717 -4.78212,4.5885 -3.14601,3.213 -3.71238,5.3445 -2.95733,3.969"
     id="path2818"
     style="fill:none;stroke:#d31345;stroke-width:0.6249994;stroke-linecap:butt;stroke-linejoin:round;stroke-miterlimit:4;stroke-opacity:1;stroke-dasharray:none" />
  <path
     d="m 406.52498,1979.4075 1.18345,0.9345 3.79964,24.5385 0.37369,0.4305 11.83476,-1.9845 0.3737,0.3045 2.98987,19.005"
     id="path5208"
     style="fill:none;stroke:#3e0000;stroke-width:0.6249994;stroke-linecap:butt;stroke-linejoin:round;stroke-miterlimit:4;stroke-opacity:1;stroke-dasharray:none" />
  <path
     d="m 405.27926,2011.674 39.11691,-6.363"
     id="path5210"
     style="fill:none;stroke:#3e0000;stroke-width:0.6249994;stroke-linecap:butt;stroke-linejoin:round;stroke-miterlimit:4;stroke-opacity:1;stroke-dasharray:none" />
  <path
     d="m 424.02795,2003.4525 -0.31143,-1.869 -12.33309,2.0475"
     id="path5212"
     style="fill:none;stroke:#3e0000;stroke-width:0.6249994;stroke-linecap:butt;stroke-linejoin:round;stroke-miterlimit:4;stroke-opacity:1;stroke-dasharray:none" />
  <path
     d="m 421.59878,2003.757 -2.42928,-15.0045 -2.92751,-2.31 -0.56059,-3.423"
     id="path5214"
     style="fill:none;stroke:#3e0000;stroke-width:0.6249994;stroke-linecap:butt;stroke-linejoin:round;stroke-miterlimit:4;stroke-opacity:1;stroke-dasharray:none" />
  <path
     d="m 445,2039.1 -6.3,6.3 0.525,2.625 7.875,8.925 4.2,12.075 -4.2,32.55 -3.675,48.3 -6.825,14.7 0,36.75 6.825,13.65 11.025,16.275 -1.05,5.775 -27.825,38.85 -6.3,16.8 0,17.325 7.35,22.05 13.65,23.625 16.8,22.05 13.65,12.6 60.9,31.5 16.275,9.975 25.725,30.45 11.025,19.95 6.825,13.65 28.875,28.35 18.9,17.325 22.575,26.25 24.15,23.1 37.275,30.975 93.975,73.5 70.875,55.65 50.925,26.25 76.65,33.075 28.875,10.5 41.475,0.525 37.8,20.475 13.65,13.65 48.3,28.35 7.6575,12.2955 1.05,11.7285 12.8175,13.251 14.175,4.2 21.525,34.65 22.575,13.125 24.15,9.975 20.475,26.25 33.075,27.3 90.825,63.525 67.2,83.475 85.05,100.8 49.35,63.525 76.65,178.5"
     id="path2987"
     style="fill:none;stroke:#e03d40;stroke-width:4.99999523;stroke-linecap:butt;stroke-linejoin:round;stroke-miterlimit:4;stroke-opacity:1;stroke-dasharray:none" />
  <path
     d="m 1819.45,460.95 -13.125,2.625 -24.15,-5.25 -26.775,1.05 -199.5,55.65 L 1453,546 l -11.025,14.175 -179.55,258.3 -123.375,174.3 -19.425,42 -119.7,86.1 -14.175,15.225 -11.55,25.2 -73.5,179.55 -5.25,15.75 1.575,42 -9.975,44.1 -30.975,42.525 -0.525,22.575 16.8,29.925 -3.675,15.75 -33.6,14.7 -13.125,-3.15 -28.875,-16.275 -11.025,-10.5 -1.05,-12.6 -18.9,-21 -32.55,-6.3 -9.975,-3.675 -17.325,2.625 -22.05,-4.725 -13.125,13.125 -16.8,1.575 -3.15,17.85 -15.225,9.45 -4.725,15.225 -11.55,14.175 -8.925,3.15 -11.025,18.375 -15.225,1.05 -14.7,-2.1 -17.85,16.275 -13.125,4.2 -14.175,-3.675 -8.4,2.625 -6.825,8.925 -4.725,70.35 0,26.25 6.3,15.75 19.425,21 20.475,19.95 26.775,39.9 11.55,36.225 18.9,76.125 0.525,12.6 -0.525,12.075 -4.725,11.55 -14.7,16.275 -2.1,13.125 7.35,7.35 17.85,2.1 37.275,16.8 30.45,9.45 45.675,36.75 30.45,34.125 75.6,82.95 74.55,81.375 68.775,76.65 63.525,68.775 19.95,13.125 35.175,11.55 6.825,9.975 -1.575,4.2 -55.65,18.375 -37.8,61.425 2.1,5.25 34.125,22.575 54.075,63.525 -6.3,86.1 1.05,30.45 47.775,85.575 0.525,25.725 7.875,13.65 47.775,28.875 8.925,15.225 0,8.925"
     id="path3159"
     style="fill:none;stroke:#007397;stroke-width:4.99999523;stroke-linecap:butt;stroke-linejoin:round;stroke-miterlimit:4;stroke-opacity:1;stroke-dasharray:none" />
  <path
     d="m 867.1,1554.525 33.075,-1.05 128.625,-44.1 12.6,-1.05 46.725,14.7 100.275,32.025 46.2,-2.625 40.425,15.75 45.675,1.05 50.925,10.5 14.175,3.675 33.6,0.525 35.175,8.925 59.325,26.775 107.625,98.175 14.175,5.775 153.3,-2.1 149.1,12.075 101.325,-0.525 148.575,-31.5 15.225,2.1 191.1,143.85 90.3,67.725 69.3,53.025 107.1,103.95 16.275,65.1 37.275,110.25 15.75,72.45 3.675,21.525 46.725,45.15 174.3,216.3 118.125,92.925 9.975,26.775 250.95,198.975 95.55,44.1 173.25,0.525 13.65,8.925 216.3,219.975 13.65,35.7 40.95,75.6 100.8,175.35 74.025,80.325 27.825,35.7 152.25,213.675 95.025,77.7 63.525,50.4 33.6,53.025 -0.525,30.45 24.15,29.4 -1.05,27.3 33.075,33.6 1.05,183.75 15.225,81.9 81.9,237.3 22.05,24.15 12.6,21 0,117.6 17.85,36.75 8.925,70.875 0.525,131.775 166.425,281.4 247.8,418.95 69.3,249.375 -3.675,290.85 17.85,42 103.95,104.475 198.975,198.975 10.5,6.3 81.9,-1.05 12.075,8.925 53.025,1.575 17.85,-1.05"
     id="path4646"
     style="fill:none;stroke:#007397;stroke-width:4.99999523;stroke-linecap:butt;stroke-linejoin:round;stroke-miterlimit:4;stroke-opacity:1;stroke-dasharray:none" />
  <path
     d="m 2584.375,1998.15 -13.65,-3.675 -135.975,1.575 -76.125,-52.5 -20.475,-20.475 -106.575,-51.45 -29.4,-40.95 -37.8,-32.025 -3.675,-35.553 0.8325,-26.2185 -0.3075,-20.6535 -13.65,-55.65 6.825,-145.95 11.55,-195.825 -1.575,-21 -74.025,-254.1 -68.25,-233.625 -74.025,-255.675 -25.725,-40.95 -5.775,-29.925 -9.975,-9.975 -16.275,-4.725 -10.5,4.725 -47.775,-16.275 -12.6,2.625"
     id="path4648"
     style="fill:none;stroke:#007397;stroke-width:4.99999523;stroke-linecap:butt;stroke-linejoin:round;stroke-miterlimit:4;stroke-opacity:1;stroke-dasharray:none" />
  <path
     d="m 1834.6835,495.705 2.6099,0.8925 1.3368,1.5855 0,2.163 -5.2198,15.666 -1.0185,5.985 0.6366,6.363 6.111,25.5885 26.9903,111.1425"
     id="path2987-2"
     style="fill:none;stroke:#012a69;stroke-width:0.6249994;stroke-linecap:butt;stroke-linejoin:round;stroke-miterlimit:4;stroke-opacity:1;stroke-dasharray:none" />
  <path
     d="m 1878.5428,423.3915 16.4234,0.126 2.5463,1.0815 0,1.3965 0.3818,0.7035 2.61,0.315 2.1007,-0.693 2.037,-2.1 23.6166,-27.951 13.4951,-16.233 4.2013,-6.552 3.3102,-3.0555 4.5196,-3.0555 6.4292,-3.759 5.2199,-3.1185 3.3738,-2.037 5.7927,-5.5965 3.1191,-1.785 7.0798,-2.625 9.1875,-1.176"
     id="path3757"
     style="fill:none;stroke:#012a69;stroke-width:0.6249994;stroke-linecap:butt;stroke-linejoin:round;stroke-miterlimit:4;stroke-opacity:1;stroke-dasharray:none" />
  <path
     d="m 1878.7975,423.3285 -4.647,2.415 -8.5936,5.1555 -1.2732,2.8665 -1.2094,1.911 -9.6122,5.4075 -3.1191,2.4255 -2.1006,3.3075 -2.7373,1.911 -8.7846,5.5335 -8.0844,23.1735 -0.6365,0.126 -9.1028,-3.1815 -1.4898,0.5775 -2.5442,7.182 0.378,0.966 9.4986,3.318 0.1214,0.441 -1.5239,4.515 0.38,0.7665 11.4759,3.6225"
     id="path3759"
     style="fill:none;stroke:#012a69;stroke-width:0.6249994;stroke-linecap:butt;stroke-linejoin:round;stroke-miterlimit:4;stroke-opacity:1;stroke-dasharray:none" />
  <path
     d="m 1820.6056,474.8835 -0.8295,0.441 -2.4806,6.993 0.3163,1.2915"
     id="path3761"
     style="fill:none;stroke:#012a69;stroke-width:0.6249994;stroke-linecap:butt;stroke-linejoin:round;stroke-miterlimit:4;stroke-opacity:1;stroke-dasharray:none" />
  <path
     d="m 1834.8745,495.0645 2.7372,0.9555 1.7824,2.037 60.3464,21.0735 32.9739,11.5815 2.3554,1.596 0.8275,0.378 2.9919,0 13.3041,4.6515 6.8749,1.5855 8.2753,0.9555 8.4664,-0.126 3.8194,-0.567 4.6469,-1.0185 5.4745,-1.659 6.4292,-2.7405 5.9837,-3.1815 170.5993,-108.465 30.9871,-20.496 63,-29.925 6.825,-5.25 25.2,-27.3 2.625,-7.35 -3.675,-19.425 5.775,-27.3"
     id="path3763"
     style="fill:none;stroke:#ffcb00;stroke-width:0.6249994;stroke-linecap:butt;stroke-linejoin:round;stroke-miterlimit:4;stroke-opacity:1;stroke-dasharray:none" />
  <path
     d="m 1834.9699,495.159 -10.7697,-3.528 -0.185,-0.273 1.4601,-4.494 -0.3859,-0.966 -9.4887,-3.3495 -0.1234,-0.273 2.962,-8.2425 1.6869,-5.565 -0.3183,-1.029 -6.2584,-2.1"
     id="path3765"
     style="fill:none;stroke:#ffcb00;stroke-width:0.6249994;stroke-linecap:butt;stroke-linejoin:round;stroke-miterlimit:4;stroke-opacity:1;stroke-dasharray:none" />
  <path
     d="m 1819.5116,467.439 2.59,0.7665 0.4892,1.1235 -2.4567,6.8775 -2.1922,6.1845 0.5191,1.197"
     id="path3767"
     style="fill:none;stroke:#ffcb00;stroke-width:0.6249994;stroke-linecap:butt;stroke-linejoin:round;stroke-miterlimit:4;stroke-opacity:1;stroke-dasharray:none" />
  <path
     d="m 1825.7899,491.5155 -1.05,-0.3885 1.3125,-4.0005 -0.1313,-0.861 -0.3937,-0.651 -6.3656,-2.4255 -0.525,-0.861 4.5281,-12.9885 0.7219,-2.625 -0.1969,-0.462 -1.5094,-0.588 -0.3937,-0.6615 1.7062,-5.5125 3.4125,-10.101 1.9031,-5.649 -0.1968,-0.714 -2.0344,-0.7875"
     id="path5844"
     style="fill:none;stroke:#018236;stroke-width:0.6249994;stroke-linecap:butt;stroke-linejoin:round;stroke-miterlimit:4;stroke-opacity:1;stroke-dasharray:none" />
  <path
     d="m 1819.1618,483.189 -3.0188,-1.05 4.826,-14.259 0.8834,-3.003"
     id="path5846"
     style="fill:none;stroke:#018236;stroke-width:0.6249994;stroke-linecap:butt;stroke-linejoin:round;stroke-miterlimit:4;stroke-opacity:1;stroke-dasharray:none" />
  <path
     d="m 1203.1,2904.825 0.525,-11.55 -9.45,-15.75 -47.775,-28.35 -7.35,-13.125 0,-25.2 -48.3,-86.1 -0.525,-30.45 6.825,-84.525 -56.7,-67.725 -33.6,-21.525 0.525,-3.15 34.65,-56.175 54.6,-17.85 3.675,-12.075 4.725,-8.925 3.15,-16.275 11.025,-5.775 32.025,-4.2 6.825,-7.35 6.3,-4.2 8.4,1.575 10.5,9.45 14.7,-6.3 22.05,3.675 10.5,-9.975 9.45,-5.25 2.1,-13.125 -7.875,-27.825 -17.325,-42.525 1.05,-9.45 20.475,-31.5 28.35,-11.025 113.4,-15.75 79.8,-32.025 49.35,-6.3 9.45,-18.375 -4.725,-27.3 2.625,-6.3 24.675,-0.525 4.725,-2.1 1.05,-5.775 6.3,-6.3 -1.05,-13.65 21,-13.65 11.55,7.875 7.875,3.15 6.825,-3.15 5.775,6.825 6.3,-1.05 6.825,17.325 7.35,3.15 18.375,-2.625 11.55,6.825 28.35,33.6 40.425,14.7 17.85,-4.2 9.975,3.15 15.75,-4.2 28.35,10.5 17.325,-6.825 18.375,14.7 120.75,-1.05 119.7,-103.95 23.625,-30.975 15.75,-22.05 10.5,-5.25 44.625,-18.9 12.6,-20.475 -3.675,-77.175 -2.625,-82.95 -13.65,-32.55 -4.2,-35.175 2.1,-45.15 -8.4,-30.45"
     id="path5943"
     style="fill:none;stroke:#a56ca5;stroke-width:4.99999523;stroke-linecap:butt;stroke-linejoin:round;stroke-miterlimit:4;stroke-opacity:1;stroke-dasharray:none" />
  <path
     d="m 3108.85,6796.125 -2.1,7.35 16.275,22.05 19.95,27.825 16.8,15.75 2.625,6.825 -3.15,17.85 10.5,47.775 5.25,7.35 -2.625,14.7 -6.825,6.825 -3.15,11.025 -7.875,18.9 -14.7,9.975 3.675,7.875 0.525,9.45 -4.725,7.875 4.725,37.8 7.875,33.6 13.65,18.9 36.225,29.925 2.1,11.025 -5.775,9.975 -5.25,12.6 8.4,61.95 42,82.425 0.525,21 -8.925,19.95 -2.625,6.825 -0.525,42 11.55,18.9 5.775,4.725 -2.1,19.425 49.35,49.875 25.2,16.275 0.525,14.175 -3.675,8.4 -6.825,2.1 -2.1,16.275 4.725,8.925 -2.625,7.875 4.2,21.525 -28.35,9.45 -19.95,13.125 -42.525,-21 -17.85,1.575 -10.5,41.475 -6.825,15.75 -14.7,26.775 -4.2,40.95 7.35,11.55 -1.575,13.125 -7.35,23.1 4.2,11.55 7.875,7.875 5.775,26.775 6.3,7.35 5.25,32.025 -13.125,29.4 -4.2,12.6 4.2,15.225 -16.275,21.525 0,14.7 -16.275,24.675 -13.125,40.95 -6.3,22.05 1.05,19.95 -7.875,13.125 14.7,37.275 18.375,6.3 60.375,1.575 48.3,32.55 24.675,8.4 34.65,24.675 17.85,22.575 1.575,13.65 13.125,28.35 17.85,15.225 26.775,45.675 14.175,9.975 51.975,-3.15 25.725,-6.3 88.725,-4.725 17.85,-9.45 18.9,0 25.725,-14.175 15.75,-1.05 20.475,9.45 112.875,-7.875 60.375,2.1 49.35,-7.35 64.05,23.625 21,1.05 13.65,-5.775 78.75,3.675 34.65,9.45 37.8,24.15 32.025,11.55 56.175,4.725 21.525,6.3 31.5,-2.625 34.125,-6.825 76.125,-7.875 55.125,0 27.3,11.55 19.95,12.6 23.625,3.675 30.975,26.775 22.575,-4.2 43.05,-15.75 25.725,6.825 32.55,-2.1 28.875,-2.1 35.175,14.175 27.825,-2.625 21.525,15.75 29.925,10.5 15.225,22.05 45.675,11.025 42.525,17.325 25.725,30.45 18.375,1.575 60.9,63 10.5,3.15 18.375,-1.575 38.325,30.975 17.85,25.725 36.225,24.15 34.65,1.05 64.575,38.325 34.65,16.275 28.35,-3.675 35.7,22.575 7.875,22.575 -0.525,46.725 6.3,4.2 191.1,1.05 5.25,-5.775 12.6,-28.35 34.125,-38.85 11.55,-22.575 46.2,-33.075 65.625,-10.5 27.825,-15.75 40.95,-8.925 39.375,0.525 29.4,-12.6 9.975,0.525 17.85,8.4 26.775,1.575 13.125,10.5 15.75,1.575 23.1,10.5 23.1,5.25 93.975,0 13.65,10.5 24.675,2.625 17.85,6.3 12.075,-1.05 5.775,-9.45 42.525,6.825 12.6,-4.2 1.05,-8.925 6.3,-3.675 8.4,0.525 5.25,4.725 -0.525,40.425 8.4,12.075 287.175,70.35 128.1,29.925 63,49.875 14.7,23.1 17.325,44.625 27.3,27.3 7.875,19.95 13.125,11.025 2.1,15.75 2.625,27.825 -2.1,11.025 -9.45,-0.525 -6.3,13.125"
     id="path5983"
     style="fill:none;stroke:#007397;stroke-width:4.99999523;stroke-linecap:butt;stroke-linejoin:round;stroke-miterlimit:4;stroke-opacity:1;stroke-dasharray:none" />
  <path
     d="m 1890.5016,468.6675 2.2275,-25.242 15.2204,-20.412 60.5106,-73.1325 88.2899,-103.656 58.275,-72.975 26.775,-30.45"
     id="path5987"
     style="fill:none;stroke:#007397;stroke-width:4.99999523;stroke-linecap:butt;stroke-linejoin:round;stroke-miterlimit:4;stroke-opacity:1;stroke-dasharray:none" />
  <path
     d="m 5334.0547,8704.458 1.7056,5.691 28.7444,16.359 7.875,22.575 -0.525,46.725 6.3,4.2 185.325,0.525 3.15,-6.825 10.5,-24.15 36.75,-40.95 9.45,-22.05 50.4,-35.7 67.725,-10.5 22.575,-14.175 44.625,-10.5 39.375,1.05 26.25,-12.075 17.85,1.05 17.85,8.4 26.775,1.575 13.125,10.5 15.75,1.575 23.1,10.5 18.9,4.2 98.175,1.05 13.65,10.5 24.675,2.625 17.85,6.3 5.25,-1.575 5.775,-10.5 44.625,7.35 7.875,-2.1 1.575,-8.4 7.875,-6.3 11.55,0 10.1024,9.0615 -1.1774,39.7635 5.775,9.45 289.8,70.875 128.1,29.925 60.375,49.875 16.8,23.625 18.375,47.25 26.775,24.15 7.875,21.525 13.125,9.45 2.1,15.75 2.625,27.825 -2.3625,16.0125 -10.2375,2.625 -5.25,11.025"
     id="path6008"
     style="fill:none;stroke:#3fb4da;stroke-width:4.99999523;stroke-linecap:butt;stroke-linejoin:round;stroke-miterlimit:4;stroke-opacity:1;stroke-dasharray:none" />
  <path
     d="m 6825.325,9054.675 1.05,17.85 -7.35,12.075 6.825,44.625 4.2,5.25 100.8,40.95 73.5,29.925 16.8,15.75 32.025,12.6 24.675,28.35 0.525,52.5 11.55,14.7 90.3,61.95 72.45,17.325 42.525,2.1 8.4,8.4 4.2,24.15 19.95,71.925 58.8,27.3 2.625,6.825 4.725,91.875 6.825,8.4 116.025,95.55 103.425,87.675 34.65,39.9 12.075,21 2.625,23.1 1.575,63.525 -2.625,47.775 14.7,53.025 3.15,18.9 -8.925,19.95 -11.55,13.125 -5.25,14.175 1.05,9.975 24.675,16.275 46.2,34.125 38.85,48.3 18.375,33.075 9.45,7.875 28.875,13.125 53.025,34.125 82.425,72.975 30.975,38.85 29.4,40.95 13.65,11.55 31.5,50.4 34.65,37.275 5.25,36.225 11.2875,16.275"
     id="path6029"
     style="fill:none;stroke:#3fb4da;stroke-width:4.99999523;stroke-linecap:butt;stroke-linejoin:round;stroke-miterlimit:4;stroke-opacity:1;stroke-dasharray:none" />
  <path
     d="m 7299.4,9414.825 52.5,-1.05 17.85,-3.15 65.1,2.1 50.4,8.925 15.225,-1.575 9.45,-7.35 11.025,-9.975 30.45,-7.35 13.125,-13.125 8.4,0.525 11.025,14.7 6.825,4.725 33.6,-7.875 24.15,2.1 13.65,5.775 8.925,-2.625 19.425,-9.45 59.325,-8.925 45.15,-10.5 13.65,2.1 23.1,11.025 35.175,10.5 21.525,-4.2 59.85,-24.15 59.325,-23.1 19.425,-17.325 19.95,-5.775 37.8,-32.025 18.9,-17.325 16.8,-22.575 1.05,-19.95 19.95,-29.925 39.375,-48.3 4.725,-9.975 0.525,-23.1 7.35,-71.925 19.425,-56.7 0.525,-8.4 3.675,-4.2 7.875,0"
     id="path6033"
     style="fill:none;stroke:#3fb4da;stroke-width:4.99999523;stroke-linecap:butt;stroke-linejoin:round;stroke-miterlimit:4;stroke-opacity:1;stroke-dasharray:none" />
  <path
     d="m 8217.625,8975.4 -31.5,0 -21,13.65 -30.975,1.05 -298.2,8.4 -106.05,0 -11.025,-4.725 -98.7,2.625 -8.925,-1.575 -71.925,1.575 -49.875,-13.65 -82.95,-1.05 -45.15,17.85 -119.175,-1.05 -64.05,75.6 -6.825,3.15 -58.8,-48.825 -5.775,-1.05 -14.7,7.875 -144.375,1.575 -34.125,19.425 -8.4,-0.525 -23.625,11.025 -34.65,2.625 -11.55,-4.2 -9.45,-4.725"
     id="path6035"
     style="fill:none;stroke:#3fb4da;stroke-width:4.99999523;stroke-linecap:butt;stroke-linejoin:round;stroke-miterlimit:4;stroke-opacity:1;stroke-dasharray:none" />
  <path
     d="m 6859.45,9144.975 175.35,15.75 26.25,2.1 13.65,-8.925 47.775,-38.85 32.025,-4.2 19.95,4.2 37.8,20.475 69.825,33.075 14.175,6.3 70.875,-2.625 40.425,-19.425 64.575,-80.325 22.575,-9.45 124.425,-4.725 96.6,0 138.6,56.175 99.225,57.75 7.875,16.8 9.975,29.925 6.825,5.775 8.4,1.575 33.6,-6.825 12.075,9.45 17.325,17.85 51.975,2.1 17.85,-16.8"
     id="path6037"
     style="fill:none;stroke:#3fb4da;stroke-width:4.99999523;stroke-linecap:butt;stroke-linejoin:round;stroke-miterlimit:4;stroke-opacity:1;stroke-dasharray:none" />
  <path
     d="m 7387.6,9543.45 -3.675,-15.75 33.075,-108.675 6.825,-7.875"
     id="path6039"
     style="fill:none;stroke:#3fb4da;stroke-width:4.99999523;stroke-linecap:butt;stroke-linejoin:round;stroke-miterlimit:4;stroke-opacity:1;stroke-dasharray:none" />
  <path
     d="m 6589.8215,8856.96 24.0267,48.405 0.8409,2.5305 -0.2402,1.4385 -1.3216,2.7615 -2.883,6.846 -0.841,2.4045 0,2.163 0.9611,2.646 16.5783,36.036 6.247,15.2565 1.0812,2.2785 1.4415,1.323 2.1625,0.966 80.7294,-0.2415 1.0811,0.2415 1.2013,0.9555 -0.2402,46.62 0.2402,21.378 0.7209,1.68 1.6818,1.5645 1.5617,0.966 6.9678,-0.126 1.9222,0.84 6.3669,4.0845 1.5618,1.2075 1.0812,1.7955 1.9221,1.323 4.5651,2.646 15.1368,8.169 3.6039,1.9215 3.7242,2.163 5.1657,4.4415 1.3215,-0.1155 7.2079,-9.3765 3.9644,-5.2815 3.2437,-3.7275 1.6818,-1.4385 2.0422,-0.84 3.0034,-0.2415 3.604,0.2415 3.3637,0.5985 1.5617,2.0475 1.6819,3.1185"
     id="path2987-4"
     style="fill:none;stroke:#ed1c24;stroke-width:0.6249994;stroke-linecap:butt;stroke-linejoin:round;stroke-miterlimit:4;stroke-opacity:1;stroke-dasharray:none" />
  <path
     d="m 6693.016,9055.7145 18.2602,0.105 1.5016,-0.5985 1.9822,-1.1445 1.3815,-0.6615 2.5228,-1.0185 1.0211,0.2415 2.0423,0.9555 1.0211,0.84 1.4417,1.0815 0.7807,0.3045 6.7275,-0.126 1.9822,0.903 5.4661,3.486 1.6819,1.197 0.6607,0.6615 0.7209,1.323 0.7808,0.5985 1.5017,1.0815 18.7408,10.2795 7.8085,4.263 5.406,4.62 0.7808,0.1785 1.3816,-0.357 7.8086,-10.0275 3.4239,-4.6305 2.878,-3.4335 1.8072,-1.6695 1.9221,-0.6615 2.7029,-0.2415 3.9044,0.2415 2.763,0.42 1.6819,2.0475 1.5016,3.003"
     id="path3757-2"
     style="fill:none;stroke:#9e46a9;stroke-width:0.6249994;stroke-linecap:butt;stroke-linejoin:round;stroke-miterlimit:4;stroke-opacity:1;stroke-dasharray:none" />
  <path
     d="m 7044.6454,8896.482 -2.5228,0.357 -2.2825,-0.1155 -3.0033,-0.609 -2.4026,-0.9555 -3.9644,-3.2445 -1.4418,-1.2075 -2.5227,-1.554 -3.2435,-1.0815 -3.6041,-0.126 -38.6828,0.609 -1.802,-0.126 -7.8087,1.0815 -12.0133,-0.2415 -14.4159,0 -1.6819,0.966 -3.1234,7.9275 0.12,2.646 0,33.033 -0.2401,2.037 -3.3638,3.612 -0.6007,1.3125 0.2402,3.7275 -0.3603,2.0475 -0.961,1.4385 -7.208,6.489 -4.0846,4.326 -2.4027,2.52 -2.2824,0.357 -12.9744,1.0815 -2.2826,0.966 -5.7664,1.68 -5.8865,1.197 -2.0422,-0.2415 -1.9221,-0.4725 -9.4906,-3.2445 -1.5616,-0.2415 -2.2826,0.5985 -3.8443,2.0475"
     id="path3759-4"
     style="fill:none;stroke:#fab20b;stroke-width:0.6249994;stroke-linecap:butt;stroke-linejoin:round;stroke-miterlimit:4;stroke-opacity:1;stroke-dasharray:none" />
  <path
     d="m 6856.0966,8974.0875 -1.6218,2.7615 -1.0813,2.877 0.3605,4.2105 -0.6006,2.037 -1.8022,2.0475 -3.0033,2.037 -0.8409,1.2075 -0.4805,1.4385 -1.9221,2.7615 -1.4416,1.5645 -0.2403,2.4045 0.2403,4.0845 -0.8409,2.646 -2.5229,3.234 -6.4871,7.329 -7.0879,6.132 -1.6819,1.7955 -1.802,3.969 -2.0421,7.5705 -1.3216,1.4385 -2.2824,1.323 -5.8867,2.646 -3.0033,2.6355 -1.5616,3.7275 -1.5618,5.4075 0.2402,1.806 1.3216,1.4385 2.2824,1.5645 0.2404,1.68 -1.0813,3.2445 -0.7809,2.2155 -0.3603,2.646 -0.4206,2.1 -0.4204,0.7245 -0.7208,0.1785 -2.2224,-0.357 -0.6608,0.483 -0.1802,3.4755"
     id="path3761-2"
     style="fill:none;stroke:#fab20b;stroke-width:0.6249994;stroke-linecap:butt;stroke-linejoin:round;stroke-miterlimit:4;stroke-opacity:1;stroke-dasharray:none" />
  <path
     d="m 6871.1133,8964.9525 -14.0557,8.4735 -1.1413,1.0185"
     id="path2988"
     style="fill:none;stroke:#fab20b;stroke-width:0.6249994;stroke-linecap:butt;stroke-linejoin:round;stroke-miterlimit:4;stroke-opacity:1;stroke-dasharray:none" />
  <path
     d="m 6802.7575,9074.1525 -0.1202,3.906 0.3604,0.903 0.6608,0.2415 12.4938,1.9845 4.5651,0.4725 3.9644,0.3045"
     id="path2990"
     style="fill:none;stroke:#fab20b;stroke-width:0.6249994;stroke-linecap:butt;stroke-linejoin:round;stroke-miterlimit:4;stroke-opacity:1;stroke-dasharray:none" />
  <path
     d="m 6824.5016,9081.9015 6.4872,0.483 1.3214,0.1155 9.3103,5.166 1.9823,-0.105 2.7629,1.5015 21.9244,11.7705"
     id="path2992"
     style="fill:none;stroke:#fab20b;stroke-width:0.6249994;stroke-linecap:butt;stroke-linejoin:round;stroke-miterlimit:4;stroke-opacity:1;stroke-dasharray:none" />
  <path
     d="m 6867.8696,9100.644 4.565,2.4675 0.2404,0.5355 0,3.969 0.6006,0.4725 35.1989,0 20.1825,-0.1785"
     id="path3762"
     style="fill:none;stroke:#fab20b;stroke-width:0.6249994;stroke-linecap:butt;stroke-linejoin:round;stroke-miterlimit:4;stroke-opacity:1;stroke-dasharray:none" />
  <path
     d="m 6772.0035,9078.72 -10.8951,13.818"
     id="path3764"
     style="fill:none;stroke:#176fc0;stroke-width:0.6249994;stroke-linecap:butt;stroke-linejoin:round;stroke-miterlimit:4;stroke-opacity:1;stroke-dasharray:none" />
  <path
     d="m 6761.2516,9092.3595 -2.4027,3.297 -0.9611,1.806 -2.5829,4.809 -2.2224,4.263 0,0.714 4.9254,2.8245 9.4305,5.166 16.9988,9.6705 8.7096,5.8275 1.4417,0.903 0.5405,1.197"
     id="path3766"
     style="fill:none;stroke:#176fc0;stroke-width:0.6249994;stroke-linecap:butt;stroke-linejoin:round;stroke-miterlimit:4;stroke-opacity:1;stroke-dasharray:none" />
  <path
     d="m 6876.7595,9525.495 -5.0456,-12.6735 -2.7631,-7.5075 -0.901,-1.68 -7.5083,-13.335 -3.8443,-7.0875 -4.2046,-9.912 -1.9222,-5.523 -3.4838,-9.618 -1.8019,-5.4075 -4.0246,-11.109 -4.2046,-12.558 -9.7909,-28.287 -1.1413,-3.78 -0.4204,-1.9845 -0.4806,-8.8935 -1.2613,-23.541 -0.6608,-11.8965 -0.1801,-1.806 -0.4205,-2.1 -9.1903,-21.1365 -5.1056,-11.8965 -10.5717,-24.15 -2.0422,-4.8615 -0.5407,-2.1 -0.4805,-5.5335 -0.06,-50.8725 0,-33.159 0,-21.504 0.3484,-38.5665 -0.2884,-0.9555"
     id="path3768"
     style="fill:none;stroke:#176fc0;stroke-width:0.6249994;stroke-linecap:butt;stroke-linejoin:round;stroke-miterlimit:4;stroke-opacity:1;stroke-dasharray:none" />
  <path
     d="m 6876.5793,9525.2535 0.5406,1.743 0.06,29.19 -0.06,17.5455 0.06,22.4595 -0.3604,0.5985 -6.0067,0.105 -0.4204,-0.357 0.1201,-14.8365 0.7208,-0.546 5.4661,0 0.4805,-0.42"
     id="path3770"
     style="fill:none;stroke:#176fc0;stroke-width:0.6249994;stroke-linecap:butt;stroke-linejoin:miter;stroke-miterlimit:4;stroke-opacity:1;stroke-dasharray:none" />
  <path
     d="m 6603.757,9364.8765 -23.6661,-21.6195 -1.6819,-1.9215 -0.7208,-1.6905 -0.2404,-11.7705 -0.3603,-1.7955 -0.961,-1.2075 -1.5619,-1.9215 -0.4805,-1.68 0.3605,-18.2595 1.3213,-1.2075 6.4872,-2.7615 7.088,0.2415 2.1623,0 3.1236,-0.714 7.2079,0.1155 2.7631,-0.2415 2.5227,-0.84 6.7275,-2.4045 5.2859,-2.037 4.4449,-1.323 3.4838,0.1155 2.6429,0.3675 2.6431,1.0815 2.5227,1.0815 11.1724,8.4 2.8832,2.289 3.0033,1.7955 2.8832,0.84 3.9644,0.483 4.2046,-0.357 5.2859,-0.7245 5.5261,-0.357 7.9287,0 9.4906,0.2415 2.8833,-0.357 21.744,-5.649 4.9254,-0.2415 6.8477,0.357 10.2113,-0.2415 5.5261,0.2415 6.9677,1.5645 5.1657,0.357 10.6918,-0.2415 6.6074,0.126 5.2858,-0.84 5.1658,-0.966 4.4448,-0.483 7.0879,0.3675 4.5651,0.483 12.614,0.4725 3.2435,-0.84 6.1268,-1.68 3.3638,-0.2415 3.724,0.2415 3.7242,1.323 8.169,4.2 9.1301,5.0505 15.9778,8.2845 8.0489,4.2105 12.3738,5.523 6.4871,2.7615 4.5651,1.5645 6.0067,1.197 7.4482,-0.357 10.3314,-0.9555 20.4225,-2.289 4.8055,-0.2415 18.3803,0.126 7.2081,-0.126 16.9387,-1.323 7.328,-0.231 6.4872,0.231 6.7275,-0.84"
     id="path3763-3"
     style="fill:none;stroke:#66c657;stroke-width:0.6249994;stroke-linecap:butt;stroke-linejoin:round;stroke-miterlimit:4;stroke-opacity:1;stroke-dasharray:none" />
  <path
     d="m 6772.4009,9079.0875 -10.6784,13.6605 -2.2935,3.1395 -6.0611,11.445 -15.5248,27.615 -1.1468,0.7665 -3.8651,0.294 -45.7015,-0.252"
     id="path3773"
     style="fill:none;stroke:#02a1e6;stroke-width:0.6249994;stroke-linecap:butt;stroke-linejoin:round;stroke-miterlimit:4;stroke-opacity:1;stroke-dasharray:none" />
  <path
     d="m 6687.1722,9135.714 -4.9269,-0.504 -9.9388,-2.5095 -16.9893,-4.5885 -9.4291,-1.659 -19.6228,-2.373 -12.5297,-1.323 -13.6339,-1.5645 -28.2902,-3.066"
     id="path3775"
     style="fill:none;stroke:#02a1e6;stroke-width:0.6249994;stroke-linecap:butt;stroke-linejoin:round;stroke-miterlimit:4;stroke-opacity:1;stroke-dasharray:none" />
  <path
     d="m 6740.5375,9666.3 -0.2625,-31.2375 -1.3125,-2.8875"
     id="path6830"
     style="fill:none;stroke:#ef4245;stroke-width:0.6249994;stroke-linecap:butt;stroke-linejoin:miter;stroke-miterlimit:4;stroke-opacity:1;stroke-dasharray:none" />
  <path
     d="m 6439.7125,9009 2.625,15.75"
     id="path6832"
     style="fill:none;stroke:#000000;stroke-width:0.6249994;stroke-linecap:butt;stroke-linejoin:miter;stroke-miterlimit:4;stroke-opacity:1;stroke-dasharray:none" />
  <path
     d="m 8113.15,10645.95 16.8,22.05 7.875,-1.05 8.4,-12.6 28.35,-15.75 19.95,-0.525 8.925,-2.625 12.6,1.05 34.65,-5.25 27.825,-12.6 6.3,-4.725 8.925,-10.5 11.55,-2.1 2.1,8.4 2.1,14.7 7.875,3.675 8.4,7.875 6.825,15.225 6.3,4.2 9.45,2.1 7.35,9.45 7.875,4.2 11.55,13.65 9.975,2.625 -2.1,10.5 4.725,3.15 3.15,3.15 2.625,14.175 12.6,14.7 28.875,5.25 13.125,4.725 7.35,4.2 3.15,9.975 20.475,-7.875 13.65,2.1 43.575,25.725 19.425,8.925"
     id="path6834"
     style="fill:none;stroke:#781378;stroke-width:0.6249994;stroke-linecap:butt;stroke-linejoin:miter;stroke-miterlimit:4;stroke-opacity:1;stroke-dasharray:none" />
  <path
     d="m 8651.5648,11831.421 -1.1844,-2.247 -2.7248,-3.906 -2.3687,-2.614 -13.1482,-10.658 -42.2856,-29.253 -18.4779,-14.458 -2.4874,-3.192 -1.0668,-4.978 0.3559,-25.934 -0.7108,-5.922 -5.4485,-16.706 -18.4779,-55.786 -0.9481,-4.263 -0.8285,-8.18 -1.659,-6.037 -1.6579,-3.791 -3.3169,-3.675 -11.0156,-33.285 -2.7237,-8.41 -2.4874,-2.836 -24.8745,-20.611 -2.8434,-1.071 -6.3956,-1.418 -2.6061,-2.131 -18.9514,-15.519 -0.9482,-1.659 -0.1186,-3.969 -0.7109,-1.544"
     id="path2987-46"
     style="fill:none;stroke:#0068b3;stroke-width:0.62499958;stroke-linecap:butt;stroke-linejoin:round;stroke-miterlimit:4;stroke-opacity:1;stroke-dasharray:none" />
  <path
     d="m 8461.4539,11537.547 -0.1775,-17.231 -0.5323,-0.945 -0.8883,-1.186 -21.1144,0 -0.4547,0.168 -0.2856,1.018 -0.5617,0.106"
     id="path3757-3"
     style="fill:none;stroke:#0068b3;stroke-width:0.62499958;stroke-linecap:butt;stroke-linejoin:round;stroke-miterlimit:4;stroke-opacity:1;stroke-dasharray:none" />
  <path
     d="m 8460.9804,11537.789 0.4735,1.06 -0.4137,0.357 -4.264,-0.105 -2.5473,-1.596 -9.7724,-6.394 -4.9151,-3.088 -1.303,-1.354 -1.8364,-4.557 0.3617,-2.856"
     id="path3759-5"
     style="fill:none;stroke:#00a651;stroke-width:0.62499958;stroke-linecap:butt;stroke-linejoin:round;stroke-miterlimit:4;stroke-opacity:1;stroke-dasharray:none" />
  <path
     d="m 8436.698,11519.456 0.031,-3.759 -0.148,-4.347 -0.2373,-5.366 -2.9022,-8.232 -3.1384,-8.589 -2.0727,-2.835 -5.6858,-7.413 -3.5532,-3.129 -7.5222,-4.505 -10.0674,-6.342 -2.7247,-3.139 -5.5671,-7.812 -1.1036,-3.297"
     id="path3761-8"
     style="fill:none;stroke:#00a651;stroke-width:0.62499958;stroke-linecap:butt;stroke-linejoin:round;stroke-miterlimit:4;stroke-opacity:1;stroke-dasharray:none" />
  <path
     d="m 8437.4267,11520.085 0.9545,-0.262 0.2972,-1.04 22.2074,0 1.0196,1.387 0.1522,16.999 1.0416,2.048 3.6562,0 38.4068,-0.41"
     id="path3763-38"
     style="fill:none;stroke:#f7941e;stroke-width:0.62499958;stroke-linecap:butt;stroke-linejoin:round;stroke-miterlimit:4;stroke-opacity:1;stroke-dasharray:none" />
  <path
     d="m 8505.0436,11538.734 1.0657,-0.83 0.2374,-1.061 0.5922,-3.202 0.7108,-1.186 1.1245,-0.294 1.4217,0.294 0.9482,1.071 0.8883,2.488 0.8284,0.83 2.0728,0.294 4.8572,-0.105 2.1315,-0.473 5.9819,-3.853 1.5991,-0.588 7.285,-0.42 6.3367,2.845 2.6649,0.536 2.31,-0.42 9.8311,-3.434 30.0857,0.42 30.5004,-4.147 2.3698,-1.124 2.3688,-2.488 2.8424,-4.095 7.1663,-10.301 6.6926,-9.355 1.7178,-3.854 0.9471,-2.604 5.8633,-10.426 0.4147,-2.541 0.4148,-10.605 1.303,-3.728 5.0925,-3.906 1.9551,-0.892 2.4276,-0.294 1.2442,-0.599 2.2502,-2.068 4.8563,-2.898 2.2512,-2.132 0.8284,-3.622 -0.7696,-1.775 -1.0658,-1.355 0,-1.9 1.007,-1.659 -0.1785,-1.06 -6.1593,-12.915 -5.3886,-11.193 0,-1.596 0.651,-0.777 5.2122,-3.371 5.271,-3.675 8.4094,-7.696 2.6649,-1.953 12.7334,-5.397 2.5462,-0.525 7.4036,1.659 1.6579,1.008 1.9551,2.425 1.1844,2.068 3.2571,2.846 2.4287,1.239 2.961,0.178 1.7167,-0.703 1.8953,-2.73 2.31,-1.775 3.613,-1.302 2.6061,-3.139 2.7836,-4.211 0.9471,-3.307 -0.1187,-7.707"
     id="path3765-2"
     style="fill:none;stroke:#f7941e;stroke-width:0.62499958;stroke-linecap:butt;stroke-linejoin:round;stroke-miterlimit:4;stroke-opacity:1;stroke-dasharray:none" />
  <path
     d="m 8392.073,11450.995 -0.9775,-3.107 -2.8718,-8.852 0.1481,-2.52 1.7168,-2.131 2.7247,-1.008 1.8952,-0.179 2.5463,0 1.4217,0.714 1.8354,1.533 2.1326,0.598 2.6061,-0.598 13.503,-3.727 1.7178,-0.42 2.6061,0.105 6.7515,-2.247 1.5991,0.115 3.9081,0.893 2.0727,-0.179 8.1144,-2.961 1.1844,-0.829 3.5532,-1.481 1.5404,-1.302 1.954,-2.131 1.7766,-0.651 2.1914,-0.295 2.0138,0.83 2.1914,0.525 2.0727,-0.651 3.2571,-1.659 3.2571,-0.347 3.2582,-0.661 2.4276,-1.354 1.2442,-1.481 6.2769,-1.659 10.898,-2.667 5.4484,-2.552 4.0278,-4.378 1.5393,-0.893 4.7376,-1.533 12.9707,-1.301 2.31,0.357 2.2501,1.774 1.8953,1.124 2.3688,0.651 6.3367,0.178 1.8953,-0.829 3.9091,-2.017 1.5393,0 2.7836,1.187 2.2512,0.945 1.954,-0.473 4.0866,-0.409 9.3576,-0.294 13.2657,2.362 1.5404,1.544 0.8883,1.774 1.2442,4.085 0.9471,1.659 1.3619,1.48 2.6061,0.83 2.4874,-0.116 1.8953,-0.777 1.6579,-1.302 0.4746,-1.953 -0.4147,-2.782 0.5922,-1.659 2.5462,-1.838 2.5473,-0.472 2.0128,0.42 9.0615,2.604 7.7585,1.837 4.5601,2.541 2.1326,1.953 6.8103,2.846 4.0278,0.892 6.7515,-0.651 4.8563,-1.123 6.4553,-0.242 3.9092,-0.42 11.5384,-7.969 9.071,-8.316 2.0139,-1.176 12.6147,-5.628 3.2571,-0.651 7.2261,1.711 1.8354,1.071 2.1913,2.604 1.1256,2.069 3.2571,2.793 1.8365,1.123 2.8423,0.231 1.5404,-0.588 1.5991,-2.31 2.4276,-2.079 3.7905,-1.354 2.6061,-3.203 2.5463,-3.853 0.9481,-3.14 -0.1186,-7.633 -0.5922,-2.783 0.2961,-5.155 1.0657,-2.552 0,-16.338 -1.5393,-2.425 -0.2373,-14.28 1.2432,-1.659 0,-6.752 -1.2432,-5.386 -1.0069,-1.239 -4.7376,-1.428 -1.0217,-0.662 -1.4658,-2.331 -2.0139,-3.759"
     id="path3767-0"
     style="fill:none;stroke:#00a651;stroke-width:0.62499958;stroke-linecap:butt;stroke-linejoin:round;stroke-miterlimit:4;stroke-opacity:1;stroke-dasharray:none" />
  <path
     d="m 8721.2124,11313.267 -0.2363,-1.302 0.1774,-15.519 0.5922,-1.123 3.968,-4.736"
     id="path3769"
     style="fill:none;stroke:#00a651;stroke-width:0.62499958;stroke-linecap:butt;stroke-linejoin:round;stroke-miterlimit:4;stroke-opacity:1;stroke-dasharray:none" />
  <path
     d="m 6820.075,9053.625 1.05,15.225 -7.35,13.65 7.875,49.875 4.2,5.25 102.375,41.475 71.4,28.875 18.9,17.325 29.925,11.025 24.675,28.35 0.525,52.5 11.55,14.7 93.45,64.575 74.025,16.275 42,3.15 4.725,6.3 3.675,23.625 19.95,71.925 58.8,27.3 2.625,6.825 4.725,91.875 6.825,8.4 116.025,95.55 103.425,87.675 34.65,39.9 12.075,21 2.625,23.1 1.575,63.525 -2.625,47.775 14.7,53.025 3.15,18.9 -8.925,14.7 -12.075,13.65 -5.25,16.8 1.575,12.075 24.675,16.275 46.2,34.125 38.85,48.3 18.375,33.075 9.45,7.875 28.875,13.125 53.025,34.125 82.425,72.975 30.975,38.85 29.4,40.95 13.65,11.55 31.5,50.4 34.65,37.275 5.25,36.225 43.05,61.95 32.55,40.425 18.375,43.05 24.675,63 14.175,51.45 11.55,19.425 1.575,25.725 23.625,46.725 16.275,74.025 -4.2,19.425 12.075,38.85 29.925,30.975 45.675,54.6 25.2,1.05 2.625,4.2 10.5,2.625 15.225,2.625 2.625,11.55 -5.25,11.55 -26.25,16.275 -21,-0.525 -37.8,19.95 -2.625,16.275 6.825,18.375 -1.05,12.6 26.25,32.55 9.975,30.45 -2.625,30.975 7.875,21 2.625,12.075 15.225,16.8 18.9,13.65 9.975,12.075 5.775,16.275 0,9.975"
     id="path5985"
     style="fill:none;stroke:#007397;stroke-width:4.99999523;stroke-linecap:butt;stroke-linejoin:round;stroke-miterlimit:4;stroke-opacity:1;stroke-dasharray:none" />
  <path
     d="m 8107.375,10647 35.7,52.5 32.55,40.425 18.375,43.05 24.675,63 14.175,51.45 11.55,19.425 1.575,25.725 23.625,46.725 15.225,71.4 -3.675,20.475 12.6,40.425 29.925,30.975 45.675,54.6 26.775,2.1 1.05,3.15 10.5,2.625 15.225,4.2 1.575,8.4 -4.2,8.4 -23.625,13.65 -19.95,-0.525 -40.95,21 -3.15,22.575 6.825,18.375 -1.05,12.6 26.25,32.55 8.925,26.775 -2.625,32.55 8.925,23.1 2.625,12.075 15.225,16.8 18.9,13.65 9.975,12.075 4.725,12.6 -0.064,10.72"
     id="path6031"
     style="fill:none;stroke:#000080;stroke-width:4.99999523;stroke-linecap:butt;stroke-linejoin:round;stroke-miterlimit:4;stroke-opacity:1;stroke-dasharray:none" />
  <path
     d="m 6683.0721,8822.9364 -88.8941,-64.8686 -153.7627,-167.3771 -24.0254,-4.8051 -19.2204,-20.0212 -22.4237,-55.2585 -9.6102,-13.6144 2.4026,-20.0212 -24.0255,-33.6356 -1.6017,-26.4279 -2.4025,-25.6272 6.4068,-3.2033 12.8135,13.6144 9.6102,3.2034 28.8305,-12.8136 27.2288,-2.4025 17.6187,20.0211 16.0169,2.4026 46.4492,-2.4026 26.4279,-22.4237 17.6187,-1.6017 22.4237,-13.6144 11.2119,4.0042 23.2246,-8.0084 26.4279,8.0084 12.8136,-12.8135 32.8347,-8.8093 58.4619,-1.6017 7.2076,4.0042 36.0382,-4.0042 13.6144,6.4068 39.2415,0 12.8135,-16.8178 19.2204,-17.6187 4.8051,-21.6229 13.6144,-6.4068 20.0212,2.4026 20.0211,-19.2203 20.0212,0.8008 12.0127,-7.2076 32.8348,-24.0255 10.411,-28.0296 32.0339,-20.822 -2.4025,-6.4068 -16.8178,-7.2077 -20.0212,-40.8432 -0.8009,-32.8347 -30.4322,-237.8517"
     id="path3066"
     style="fill:none;stroke:#3fb4da;stroke-width:5;stroke-linecap:butt;stroke-linejoin:round;stroke-miterlimit:4;stroke-opacity:1;stroke-dasharray:none" />
</svg>
