<svg xmlns="http://www.w3.org/2000/svg" width="1200" height="1100"><path d="M439.605 969.122l82.551-38.591 26.175-16.108 15.437-15.436 11.745-14.095 6.376-3.02 12.08-1.342 22.82-3.692 60.068-16.778 7.383-3.02 3.355-3.692 4.363-8.054 10.067-10.738 11.074-14.43 3.356-7.047v-6.711l-5.034-8.054-30.202-32.551" fill="none" stroke="#ec7405" stroke-width="5" stroke-linejoin="round"/><path d="M681.22 765.763l-11.075-9.732-116.277-58.39-7.215-7.047-18.12-.504-11.578-7.382-4.195-3.692-.839-12.584-14.094-48.658-15.269-90.438-2.684-25.84-2.685-3.69-4.866-2.518-126.176 17.45-5.537-2.013-2.517-5.201-7.886-31.041-7.886-10.403-21.477-21.477-12.249-7.55-11.241-14.934-127.855-132.384-4.866-8.725-20.973-20.303" fill="none" stroke="#ec7405" stroke-linejoin="round"/><path d="M676.857 860.06l9.855.245 2.61 4.271 4.271 12.102 5.458 3.085 4.983 2.61h4.746l32.983-22.068 20.644-18.746 12.101-22.067 8.068-8.306 113.661-70 6.882-1.66 28-.475 9.017-3.56 16.372-14 25.153-29.423 83.05-91.119 8.154-9.281" fill="none" stroke="#ec7405" stroke-width="5" stroke-linejoin="round"/><text x="89.453156" y="206.96092" style="-inkscape-font-specification:Sans" font-weight="400" font-size="143.99990845px" font-family="Sans"><tspan x="89.453156" y="206.96092">2015</tspan></text></svg>