<svg xmlns="http://www.w3.org/2000/svg" height="6000" width="4800"><path d="M3749 3471.5l-17-25-26.5-68.5-49-96.5-34.5-40.5-12-12-20-1.5-15 5-38.5 21-57 26h-13l-16-3-13-9-8.5-12.5-24-67.5-10-7-32.5-26.5-17.5-17-14-23-11.5-10.5-13.5-3.5h-15.5l-30 7.5-58-2.5-16-5-17.5-8.5-62.5-54-26-33-41.5-19-13.5-12.5-10-19-2-19-2.5-41.5 10.5-44 48-94 2.5-16-4-69 12-44-4.5-11-11-16.5-10.5-11.5-39-32-12-17-8.5-50-10-29-2-88-10.3-21.683-29.7-21.817-44.5-25h-31l-147-95.5-6.086-15 4.734-77.73" fill="none" stroke="#9400d3" stroke-width="5" stroke-linejoin="round"/><path d="M628.5 3107.5l95.5-131 24-48 8-40 2-40-2-27.5-7-28-25.5-52.5-13-19.5-31-28.5-457-349L196 2321l-29-37-15.5-32.5-6-34 2-51 20.5-71 12-20 17.5-9.5 20-2.5 56.5 6.5 111.5-20 58 .5 29-2.5 98-13.5L661 2012l209.5-90 63.5-28 126-57 21-5.5 37-17.5 40.5-16 53-33 77-32 34-18.5 47-21.5 26.5-18 49-37.5 52-24.5 28-14 45.5-31 101-29 11.5-10 106-65 14-5 10.5 1 15 4.5 88 62.5 23.5 11.5 255.5 174 12 3.5h12.5l291.5-49 14 2.5 69 35.5 18 21.5 23.5 13 261.5 174 77.5 50.75 80.75 6.25 20.5-1.5 24.25 10.75 47 48.25 20 8 20 1.5 69.5 17 119-17 58-19.5 73.5-30 23.5-5.5 17 3 17.5 15.5 67 105 22 18 40 61.5 32 44.5 119 261 14.5 22.5 8.5 10.5 11 3.5 115 1 23.5 7.5 13.5 11.5 15 34.5 38 57 64.5 71.5 131.5 131.5 64 54 31.5 37.5 12 10 14.5 4 21-2 13-10 232-195.5" fill="none" stroke="#09c" stroke-width="5" stroke-linejoin="round"/><path d="M3507.5 1988l17.5-14 25-45 62.5-49 96.5-74 98-58.5 127-113 27-15 43-5 33 3 65 19 22.5 13.5" fill="none" stroke="#09c" stroke-width="5" stroke-linejoin="round"/><path d="M1711.328 133.155l38.89 49.144 2.122 10.96.707 14.85-5.303 11.313-29.699 41.72-4.95 13.788 3.405 20.57 23 31 16.5 18 55.5 33.5 12.5 4 15.5-2 48-35.5L1905 331l19-7.5 18 .5 36.5 11 16 12 89.5 137.5 28.5 34.5L2250 698l14 11 50 18 32.5 4 468 197.5 12.5 10 3.5 14 13.5 93.5 8.5 60 23 39.5 4.5 17.5 27.5 113 21 39.5 22 57 7.5 32 .5 83L2906 1610l-52 88-35.5 74.5-2 84.5-55 84 .5 25.5-43.884 74.091L2702 2308.5l-2.5 94 21 86 2.5 37-5.5 62v35l-41 137-10 71.5-14.5 48-1 40-13 109.5-8.5 47.5-2.5 63.5 13 30.5-.5 49.5-4.5 33 5 50.5-28.5 133.5 5.5 26.5-19.5 90.5-54.5 53.5-38.5 38.5-24 14-25.5 6.5-22 4-18-4.5-18 8-58 46-58 33.5-34 6.5-11.5 5.5-15 14.5-30.5 45.5-17.5 12-104.5 53-27 14-51.5 25-169.5 84.5-66.5 31.5-104 57.5-127 112-15.5 7.5-18 2-16-6.5-33.5-25.5-27-7-60-4.5-46-17-31.5 5.5-24.5 2h-15l-32.5 5-41-4.5-40.5 8-49 14.5-22 3.5-27.5-3-180 34.5-15.5 12-5.5 18 .5 20.5L849 4485l-2 15.5-9.5 13.5-13.5 16" fill="none" stroke="#eeaa02" stroke-width="5" stroke-linejoin="round"/><path d="M1290.5 497.5l17 18.5L1714 838.5l17.5 9 101 49.5 12 4.5 16.5 3.5 18-2.5 12-7 45-24 14-1.5 15.5 3.5 11 6.5 8 11 32 72 8.5 16 75 180 25.5 45 18 21.5 18.5 17.5 23 12.5 16.5 8.5 96.5 20.5 78.5 4.5 203 63 17 1.5 33.5-10.5 34.5-4 34.5-16 21-3.5 85 15 22.5-5 41-11.5 17 4 30 4h25.5l26.5-8 14.5-10 108.5-44 14.194-6.096L3119.5 1260l23 10.5 35 19.5 77 29.5 32.5 10.5h21l73.5-25.5 75-16.5 190.5-38 114.5-16.5 91.5-11.5 34.5-19 141-5.5 131.5-4 17.5 3.5 17.5-.5" fill="none" stroke="#f33" stroke-width="5" stroke-linejoin="round"/><path d="M253.5 1095.5l36.5.5 332 3.5 24.5-4.5 168.5 1 857 123.5 41-1 69.5 11 26 10 169.403 28.321 4.246.594 31.82-8.485 14.142-1.061 24.75 11.667 20.859 7.425 18.03-1.768 28.992-16.97 30.052-31.82" fill="none" stroke="#390" stroke-width="5" stroke-linejoin="round"/><text style="-inkscape-font-specification:Sans" y="206.96094" x="89.453117" font-weight="400" font-size="144px" font-family="Sans"><tspan y="206.96094" x="89.453117">2010</tspan></text><text style="-inkscape-font-specification:Sans" y="5897.9609" x="89.453117" font-weight="400" font-size="144px" font-family="Sans"/></svg>