<svg xmlns="http://www.w3.org/2000/svg" height="4700" width="2850"><path d="M1321.156 1343.92l-8-10.381-6.038-.66-4.18 3.68-3.439 12.9L1300.5 1366l-4 18.5-235 231.5-1.948 4.75-.302 21.25-2.25 3-28.75 6-8.25 2.25-2.75 6-6.5 4" fill="none" stroke="#ffd500" stroke-width="5" stroke-linejoin="round"/><text style="-inkscape-font-specification:Sans" y="206.96094" x="89.453125" font-weight="400" font-size="144px" font-family="Sans"><tspan y="206.96094" x="89.453125">1940</tspan></text><text style="-inkscape-font-specification:Sans" y="4597.9609" x="89.453125" font-weight="400" font-size="144px" font-family="Sans"/><path d="M623.596 1467.816l-7.468-2.022-15.714.622-4.668 1.867-7.468 5.757-25.205 26.294-6.38 4.201-8.09 2.645-13.38 2.023-47.61-.156-5.29-.778-6.535-3.111-10.113-8.713-5.913-2.645-5.134-.934h-5.601l-5.757.311-4.823 2.8-11.825 12.604-6.379 3.111-15.714 4.668-6.69 3.89-6.691 10.268-.778 5.913-.467 17.581-10.735 18.515-4.823 18.36.31 9.024 6.691 15.092M278.814 1686.418l11.202 2.489 7.624-1.4 8.401-4.512 10.27-9.18 3.111-1.867 7.624-1.867 16.025.31 29.562-7.623 5.134-6.223 2.023-3.268" fill="none" stroke="#e10984" stroke-width="5" stroke-linejoin="round"/><path d="M381.346 1615.003l3.734 7.779 1.867 6.69-.311 6.69-6.846 17.115" fill="none" stroke="#e10984" stroke-width="1px" stroke-linejoin="round"/><path d="M2513.613 1424.857l187.833-84.868 48.083-27.93" fill="none" stroke="#ed6e86" stroke-width="5" stroke-linejoin="round"/><path d="M2070.367 1533.12l-158.406 23.95-347.369 56.066-189.195-1.245" fill="none" stroke="#ed6e86" stroke-linejoin="round"/><path d="M2070.367 1533.12l46.133-8.12h35l149.5-39 190-50.5 22.613-10.643" fill="none" stroke="#ed6e86" stroke-width="1px" stroke-linejoin="round"/></svg>