<?xml version="1.0" encoding="UTF-8" standalone="no"?>
<svg
   xmlns:dc="http://purl.org/dc/elements/1.1/"
   xmlns:cc="http://creativecommons.org/ns#"
   xmlns:rdf="http://www.w3.org/1999/02/22-rdf-syntax-ns#"
   xmlns:svg="http://www.w3.org/2000/svg"
   xmlns="http://www.w3.org/2000/svg"
   xmlns:xlink="http://www.w3.org/1999/xlink"
   xmlns:sodipodi="http://sodipodi.sourceforge.net/DTD/sodipodi-0.dtd"
   xmlns:inkscape="http://www.inkscape.org/namespaces/inkscape"
   id="svg2"
   viewBox="0 10 4800 3900"
   height="3900"
   width="4800"
   version="1.1"
   sodipodi:docname="necn.svg"
   inkscape:version="1.0.1 (3bc2e813f5, 2020-09-07)"
   inkscape:export-filename="/home/lexande/necn.png"
   inkscape:export-xdpi="96"
   inkscape:export-ydpi="96">
  <sodipodi:namedview
     pagecolor="#ffffff"
     bordercolor="#666666"
     borderopacity="1"
     objecttolerance="10"
     gridtolerance="10"
     guidetolerance="10"
     inkscape:pageopacity="0"
     inkscape:pageshadow="2"
     inkscape:window-width="1920"
     inkscape:window-height="1032"
     id="namedview177"
     showgrid="false"
     inkscape:zoom="4.1852491"
     inkscape:cx="1716.9188"
     inkscape:cy="2316.7167"
     inkscape:window-x="0"
     inkscape:window-y="0"
     inkscape:window-maximized="1"
     inkscape:current-layer="svg2"
     inkscape:document-rotation="0" />
  <metadata
     id="metadata8">
    <rdf:RDF>
      <cc:Work
         rdf:about="">
        <dc:format>image/svg+xml</dc:format>
        <dc:type
           rdf:resource="http://purl.org/dc/dcmitype/StillImage" />
        <dc:title></dc:title>
      </cc:Work>
    </rdf:RDF>
  </metadata>
  <defs
     id="defs6" />
  <path
     id="path4631"
     d="m 5312.73,-904.9997 v 8970 h -11018 v -8970 z"
     style="fill:#c6ecff;fill-opacity:1;fill-rule:evenodd;stroke:none;stroke-width:1px;stroke-linecap:butt;stroke-linejoin:round;stroke-opacity:1" />
  <g
     transform="translate(-5700.27,-799.9997)"
     id="g4616">
    <path
       style="fill:#ffffff;fill-rule:nonzero;stroke:none;stroke-width:1px;stroke-linecap:butt;stroke-linejoin:round;stroke-opacity:1"
       d="m 10566.207,-104.71751 -6.707,45.21751 -16,9 -13.5,74.5 8.5,121.5 6,64.5 22,72 33.5,86 -33.5,11.5 7,12 63,25 26,32.5 18,6.5 31,9 14.5,-4.5 2.5,-13.5 14.5,-5.5 13,-23.5 14,-9 13.5,-11 3,6 12.5,-13 8,1 2,7.5 5,1.5 1.5,54.5 20.5,5 28,-10 -11.5,23 3.5,5.5 v 29 l -16.5,-2 -21.5,16 -20,24 -1,14.5 v 12 l -35,45 -13.5,-3.5 14,-29 -7,-25.5 h -19 l -13.5,35.5 -23,28 -42,9.5 -19,-6 -26.5,13 -8,13.5 -25,6.5 8.5,-9.5 -4,-3.5 -38,8.5 -14,11.5 -65,16.5 h -15.5 l -10,12 -4.5,10.5 0.5,2 17,-8.5 2.5,9.5 v 12.5 l -15.5,8 -12,9 1,22.5 7,5.5 26.5,-34.5 27.5,4 4.5,12.5 -4,15 4.5,3 8,-6.5 4,5 -6.5,32.5 -31,-6 -19.5,22.5 -16,7.5 -8.5,26.5 -17.5,3 -34,-9 -17,22.5 -1,32 7.5,13 27.5,9 14,14.5 -12.5,10 -16.5,-15.5 -15.5,3 4,6 -14.5,2 3,-24 -5.5,-32 2.5,-20 -8.5,-5 -26,25 9,15.5 -22.5,10.5 -23.5,34.5 -1.5,13.5 16.5,34 15.5,1.5 -9,15 13.5,27 -6.5,8.5 4,14 13.5,2 6.5,27.5 -29.5,-29.5 -4.5,-29 -19.5,6 -16,-4.5 -2,-17.5 -18,0.5 -25,33 -8,20.5 21,17 19.5,11.5 -20,1.5 -3,12 -33.5,7 4.5,13 16.5,6 -12,28 31,10 13,-12.5 11,17.5 -24,17.5 11.5,14 26.5,18.5 2,10.5 40.5,-7.5 16,-11 -4,-14 7,8.5 3,27.5 -12,8.5 0.5,22 46.5,-22 6.5,-10 39.5,3 10,28 10,-2.5 3.5,-15.5 -6,-19 15,-4.5 -24.5,-68.5 -48.5,5 0.5,-10.5 58,-5 18.5,52.5 27.5,29 60,11.5 26,17 11,18 13,2.5 3.5,-23.5 9,1 9.5,43.5 43,43 17,42.5 9.5,43.5 46,78.5 26,41 34.5,39 -14.5,32 -39.5,95 7.5,9 2.5,16 -14,8.5 -16,-21.5 -30,19 22.5,35 22.5,19.5 31,42.5 67,26.5 39,-17 21.5,18 21,21 22,6 4,18 -11.5,5.5 5.5,29 15.5,25 1,40 8,21.5 -25.5,56 3,28 22.5,33 63.5,54.5 7.5,432 -18,-7.5 -56.5,8.5 -29,-8 -98.5,20 -35,8.5 -23,35.5 -23,1 -5,-22.5 12.5,-28.5 14,-8.5 1.5,-38.5 17,-12.5 -12,-58.5 15,-40.5 -18.5,-40.5 41,-14 -10,-16.5 -22.5,4.5 -8,-13 9.5,-7.5 15.5,-2.5 -3,-16 -32.5,-4 28.5,-26 24,-10.5 -3,-23.5 9.5,-8 -3,-15 -11.5,2 -6.5,18.5 -7,-9.5 15,-23 -8.5,-13.5 -3,5 -24,-12 -2,14 17.5,11.5 -18.5,27 -74,-32 3.5,-36 h -9 l -21.5,28.5 7.5,20.5 -8.5,8 19.5,23.5 -6,12 -22.5,-10 26,34.5 -4,25.5 -59.5,-72.5 -10,4.5 27,67 -6.5,7.5 -13.5,-14 -5.5,8 10.5,43 -24,11.5 -34,-8 -23.5,-12 -14.5,17.5 23.5,12.5 9,22.5 -12.5,14.5 -18.5,-12 -16.5,11.5 -40.5,-12 25,62.5 19.5,-14.5 18.5,33 -10,13.5 -17.5,-19 -18.5,-2.5 -11,22.5 -25.5,-89.5 -20.5,-5 -19.5,11 -12.5,-20 -12,5.5 29,77 -15,0.5 -21,-41.5 -14.5,5 6,42.5 -15,22.5 -11,3.5 27.5,72 -21.5,-4 -20,30 4.5,23 -6.5,-7.5 -7.5,-25.5 -19.5,2 -11.5,20.5 5.5,16 -5.5,6.5 -35,-5.5 -42.5,19 4.5,37.5 -10,-1 -1,-32 -22.5,-16.5 -43,-3 -69.5,25.5 -15,30 -34.5,18 -1.5,19.5 -40.5,5 7.5,-54 -23.5,-34 3,-74 -16,-15 10,-57.5 -6,-19 11.5,-17 -13.5,-43 7,-56.5 4,-24 14,-25.5 7,-26 28.5,-30 17.5,-14.5 4,-21 -10,0.5 -21,21.5 -17.5,2 -32.5,-7.5 -0.5,-29.5 -15,0.5 1,35 -29.5,24 c 0,0 16.5,40 16,40 -0.5,0 -8,18 -8,18 l -10.5,-5 -21.5,50 -11.5,-1 -2,-32 -17.5,-20 -2.5,-20 -6.5,1.5 -1.5,33 -10.5,12 -2,17 -7,-2 -4,-58 17.5,-18.5 -5,-18.5 9,-33.5 -11,-5.5 -4,23 -7.5,-2.5 -3,-31 -43.5,-5 -17,-29.5 -18.5,-17 -3,-28.5 -13.5,-45 -24,-42 -11,2.5 23,29.5 1.5,15.5 -18,9.5 24,65.5 -12,25 22.5,27.5 18,4 -13,15.5 3,30.5 -12,23.5 -3.5,26 -11,2.5 -17.5,-35 -73.5,-2.5 7.5,36.5 26,-6 19.5,17 4.5,53 3.5,18 -17.5,39 6,4.5 9.5,0.5 0.5,29 -46,12 -12,18.5 10.5,21 10,7.5 19.5,51 1.5,32.5 -6.5,36.5 4,49 -14.5,-3.5 -4,12.5 7,17.5 -5,18.5 -39,24 5.5,54.5 -47,63.5 3.5,28 -12,-3.5 -21,-24.5 -38.5,-4.5 -141,31.5 -97,39.5 -37,18.5 -50,7 -32.5,-1.5 -117,39.5 -9,-30 -17,-22 -13.5,-8 -22.5,15.5 -32.5,3 -25,-15 -16,4.5 -28,19.5 -17,-13 -13,25.5 -16,-4.5 -5.5,20 -10.5,4 -7,-28.5 -21.5,18 -18.5,-15.5 H 8725 l -16,11 -21,-30.5 -7,-42 -8.5,1.5 -5,31.5 10.5,30 -21,32 -22.5,9.5 -42,-10.5 -6,-23 -14.5,5.5 -3.5,17 -11.5,-6.5 -10,-40 4,-29.5 -5.5,-10 -14.5,4 8.5,23.5 -8.5,25.5 -17.5,12 -1.5,35.5 -1.5,23.5 -12,-1 -13.5,-22.5 -18.5,-4 -25,5 -5.5,17 -18,11 -82.5,7 -18.5,-12.5 -12.5,-42 -2,-37.5 -4.5,-18.5 -18.5,-13.5 -4.5,5 18,32 -4.5,40 -1,15.5 14.5,22.5 4,28 -43,9 -23,2.5 -16,-30.5 -76.5,-2.5 -25,20.5 -27,-2.5 -22,11.5 -5.5,15.5 -15,-5.5 -8,-18 -20,18.5 -0.5,13 -14.5,5 -40,-42 -35.5,2 -30,-1.5 -43,8.5 -22.5,-4.5 -20.5,10.5 -1,18 -20,17.5 -24,-2 0.5,-23 -12.5,-5 -25.5,8 -28.5,-19 -44.5,4 -38.5,25 -14.5,-2.5 -0.5,-17.5 -8.5,1.5 -11,21 -17.5,-15.5 -16,23 -43,6.5 -21.5,-11.5 2.5,-15 9,-4 -14,-22.5 -4.5,-53.5 h -15 l -8,26.5 -21,12.5 6.5,16.5 11,3.5 -14.5,16 -39,17.5 -21.5,31 -17.5,3.5 -36.5,51.5 -39.5,2 -17,-10.5 -19,25.5 -23.5,10 -41,49.5 0.5,29 -33,7.5 -56,-30 -3,-15.5 -10,5.5 -10,9.5 -48,17 -9,20.5 -13.5,3.5 -13,33 -32,13.5 -26.5,-17.5 -19.5,3 -2.5,13 -57,20.5 -38.5,5 -15,-6 -1,7 17,13.5 -7.5,5.5 -18.5,-1.5 -15.5,18 -13,4 -9,22.5 -16,7 -25,24 -31,1.5 -15,13 -16,27.5 -17,-13 -8,-11 -29,19.5 -7,33 -13,9 -4.5,-30 -43,26.5 -10,15.5 -5.5,-23.5 -21.5,19 h -9 l -2.5,-27.5 -10,4 -0.5,19 -23.5,14 -7,-12 -2.5,7 -0.5,15 -26.5,-4 -16.5,31.5 -9.5,40 -24.5,10.5 -10.5,32 -43,1.5 -16.5,28.5 -20.5,6.5 -4.5,14 -30,28 -22.5,35 -7.5,26 -9.5,22 11,18 2.5,29 h -6 l -15.5,-41.5 -21,17.5 -6,26 13.5,39 18,13 -3,8 -28.5,-18.5 -25,4.5 c 0,0 -21,-4.5 -22.5,-5 -1.5,-0.5 -1,17 -1,17 l -14,1.5 -17.5,-15.5 -1,19.5 H 6061 l -11.5,-9 -24,18 -25,31 -18.5,-8.5 -3.5,9 -0.5,14 -46,72.5 4,16.5 -5.5,19.5 -7.5,11.5 -28,8.5 -20.5,14 -4.5,-4 5,-65.5 9,-35 19.5,-40.5 30.5,-58.5 26,-46.5 11.5,-40 33,-63 22.5,-77 18,-74.5 13,-48.5 4,-39 14.5,-56 11.5,-78 -6,-21 2,-91 -3.5,-53 -15,-38 -10.5,3 -13.5,23 -3.5,-33.5 20.5,-16 -3.5,-13 -40,-34.5 -24,-28.5 -20,-5 -12,-11.5 -15,-9 0.5,-30.5 35.5,-34 8.5,-13 -2.5,-14 -31,-5.5 -33,-41 -8,-5.5 4.5,14.5 34,35.5 8,11 -5.5,14 -20,12.5 -10.5,37.5 6.5,32.5 0.5,16.5 11,12 4.5,30 5,9.5 6,31 12.5,15 27,20.5 28.5,41 4.5,15 -1.5,27 -8,19 -7.5,80 -5,16.5 5,46 17,5 5,34.5 -1,46.5 -7,46 -14.5,50 -13,47 -15,51.5 -31,80 -21.5,67.5 -28.5,44 -22.5,39 -20,34 1,10 -2,21 -8,21.5 -11,38 -37.5,35.5 -13.5,-6 -44.5,65 20.5,15.5 -9.5,14.5 -70,10 -2.5,-11 43,-67 16,-37 -8,-27.5 -19,0.5 -2,31 -31.5,46 -38,51 -10,1 -14.5,6.5 -18.5,18 -9,25.5 -1.5,34.5 7,11 -13,36.5 -7.5,33.5 -5,7 -15.5,-4.5 -32.5,19 2.5,55.5 -26.5,45.5 -22.5,-8 -10,-14.5 -18.5,-1.5 -19,16 6.5,9 17.5,-10 15,10 7,11.5 17,4.5 18.5,45.5 78.5,40 1,11 18.5,-3 21,-35.5 20,20 18.5,2.5 27.5,-18 26.5,22 50.5,19 39,26 31,12 54.5,14 20.5,12 1,-9.5 -4.5,-17 -12.5,-5.5 0.5,-45.5 -15.5,-11.5 -4.5,-29 -19,-15 1.5,-13.5 14.5,3 4,-8.5 7,8.5 23.5,44.5 6,25.5 -1,34 11,35.5 0.5,39 3,53.5 -2.5,54 -4.5,57 -20.5,88.5 -13.5,68.5 -16,64 -29.5,120 -6,48.5 -22,114 -44.5,268.5 -22,243 -28,-20.5 v -14.5 l 21.5,-5 -3.5,-27 9,-15.5 15.5,-152 -5.5,-11 13,-53 1,-47.5 -1.5,-23 11,-28 -5.5,-19 9.5,-15 -16,-12 4,-3.5 14.5,0.5 13,-59 -20,0.5 -8.5,11 4.5,8.5 -19,16 -14.5,-2.5 -18.5,-22.5 -19.5,3 0.5,9 27.5,13.5 -4,17 -42.5,5.5 -3,12 22.5,10.5 14.5,-11.5 5,7 -19,19.5 16.5,19.5 5,27.5 -11.5,21 -22,5.5 -6.5,20 17.5,5 28,-7 -1,11.5 -34,42.5 -9.5,34.5 -1.5,14 6,16.5 3.5,17 -19.5,38 -25.5,28 1.5,15.5 -32,45.5 -3.5,45.5 -9,14 8,32.5 28,12 4.5,43.5 33,16 15,-22 -7.5,-17.5 11,-10.5 33.5,-60 14,14 -27,38.5 -42,100 -45,75 -98.5,176.5 -48,61 -26,35.5 -16,1.5 -2,-11.5 23,-12 60,-96 40.5,-66.5 33,-51.5 18.5,-34 -0.5,-13 14,-23 40.5,-52 2.5,-8.5 -39,-16.5 -22.5,36.5 v 12 l -38.5,10.5 -3,29.5 6.5,18 -60,7.5 -7.5,41 -12.5,9 9,20 -6.5,2 -25,-15.5 -11,8.5 -1.5,11.5 -16.5,-1.5 -33,41 v 13.5 l -16.5,-6.5 -7.5,29.5 -28,10 -10.5,11 6,12.5 -47.5,13 -14,-33.5 -16.5,14 12,24 -5.5,32.5 7,27 50.5,44 24,-11.5 33,3.5 18,-33 14.5,23.5 1,27.5 -15.5,45 -20.5,45.5 -53,57 -47.5,47 -16,-21 -5.5,8.5 14,28.5 -70.5,36.5 -110.5,72.5 -20,-13.5 -23.5,15 -13,1 -14.5,-13.5 -1.5,11.5 17,22 30.5,-9.5 -1.5,20.5 -13.5,19 -45,29 -40,49.5 -47,68.5 -50,76 -38,83.5 13,16 -15.5,24 -40.5,47.5 -33,57 -25.5,30.5 -16.5,-9 -2.5,15 16.5,24.5 -2,13.5 -117,113 -4,-11.5 -25,8.5 -24.5,13 -33.5,6.5 -56.5,-2.5 -11,-20 12.5,-52.5 7.5,-47.5 27,-73.5 65,-131 9,-29.5 1.5,-25 2.5,-38 -13.5,-33.5 -28.5,-15 -45,-16 -55.5,-13 -36.5,4 -29.5,-8 12,-45.5 15.5,-13 -32.5,4 1.5,9.5 h -17 l -10.5,11.5 -68.5,5 -11.5,-6 -15.5,8.5 -29,52 -44.5,-40 3,-20 -11.5,-49.5 -15.5,-13.5 -13,4.5 -16,-32 -58,-24.5 0.5,-19 -18.5,-28.5 -40,-3.5 -5.5,22 -38.5,-31.5 -27,-71 -28,-7.5 -21,12 -8.5,-17.5 -28,-10.5 -14,-42 -41,-15.5 -44.5,-75 -9.5,-21 -15,0.5 -53,-39.5 -39.5,-2.5 -9,-37 5,-43.5 9,24 11.5,-3.5 -1.5,-79 -3,-18 23,-35 3.5,-30 -27,-15.5 -39.5,-33.5 -5,-48 29.5,-32.5 36,-34 13,-63.5 18,-12.5 12,-21 17,-30 22.5,-67 42.5,-34.5 61,-29.5 20.5,-32.5 28,-23 22,2 30,-21 36,-7.5 25.5,6.5 15,-1 2,-8.5 74,-20 42.5,-41 62.5,-1 24.5,-41 0.5,-30 -10,-27 1,-43 11,-12 28,1.5 8.5,-5 12,-9.5 21.5,-6 7,-5.5 -6,-7.5 31.5,-33.5 10,-21 20.5,-14.5 27.5,-9.5 54,-47.5 25,-18 49,-31.5 27,-0.5 50,-20.5 36,-8.5 20.5,-21 6,-32 1,-11.5 -4.5,1 -12.5,31 -26.5,18.5 -5.5,15 -61,18.5 -29,1.5 -71,33.5 -14.5,19 -47.5,38.5 -44,19.5 -16.5,20 -13,26.5 -18.5,19.5 -39,8 -37.5,22 -6.5,18.5 -4.5,38 7.5,35 -0.5,24 -12.5,23.5 -44,7.5 -37,4.5 -26,28 -42,22.5 -39,2 -43.5,-3.5 -17,-6 -9,9 -54.5,29 -50,35 -57.5,37 -29,15.5 -24.5,22.5 -23.5,33 -31,70.5 -19,45 -61,92 -40,10.5 -38,61.5 6.5,42.5 66.5,66.5 -7,43 -8,56.5 -18.5,24.5 -6.5,40 5.5,29.5 25,31.5 46,53.5 34,64.5 7.5,28 27,23.5 28.5,37 28,16.5 6.5,13 17,6 3.5,34.5 11.5,21 32.5,47.5 -2,22 5.5,46.5 5.5,17 3,32 -21,52 -1.5,51.5 17.5,80 -4.5,57.5 18.5,30 65,54 41.5,66.5 9,45.5 -3.5,21 -2.5,38.5 19.5,39 108.5,130.5 70.5,77.5 49.5,25.5 37.5,3.5 27.5,-8 10,-13 -8,-13 2,-7 10,7.5 14.5,70 17,153 15.5,163 10.5,180.5 3,79.5 -6.5,62 -21,104 -26,77 -9.5,4.5 -23.5,49 -17.5,47 -1151,1.5 12.5,-29.5 -7.5,-10 29.5,-51 7.5,-21 13.5,1.5 5,-26.5 19.5,-16.5 5.5,-25.5 -17.5,-22 -8,-1.5 8.5,40.5 -68.5,25.5 -5,13 v 17.5 l -18,13 -17.5,28 2.5,67 -70.5,-3.5 -6,-20.5 -40,-51.5 5.5,-5 55,-6.5 17,-16.5 3,-31 -19.5,-49 -32,-6 -13.5,6 -12.5,53 -12.5,21.5 -29.5,11 -13,26.5 27,22.5 8.5,26.5 -15,21 -69.5,1 -2,-18 -14,-2 -4.5,-20 -16,5 -2.5,-9.5 13,-9 -35,-6.5 -3.5,28.5 12,10.5 H 2783 l -19.5,16 0.5,-30.5 24.5,-36 -56,-22 -10.5,-11 -25.5,18 -7,-11 28.5,-28 19.5,23 9,-3 -31,-58 -29.5,-21 -22,4 3.5,-44.5 -19,-10 -5,13 4.5,60 26,46 -4.5,5 -8,-12.5 -4.5,4.5 3.5,33 2,17 -10.5,-10 -14.5,-69 -21.5,-34 -35,-21 -9.5,-68 -18.5,-11.5 -11,-38 -47.5,-70.5 14,-37 20,9 30.5,-16.5 7,10.5 -11,49 5.5,-1.5 31.5,-52 32.5,-44 7,25.5 2.5,-2.5 3,-21 11,-5 9.5,28.5 14,-10.5 -14,-45.5 24,23.5 21,7.5 0.5,-14.5 -18,-11.5 -12.5,-23 38.5,-14 -2,-10 -29.5,4 -19,-20 -4,39.5 -23,5 -15.5,-31.5 -7,3.5 8.5,43.5 h -8 l -17.5,-52 -9.5,6.5 8.5,43.5 -7,14 -12,-1.5 2.5,-39 -13.5,-21 -19,-10 14,-21 12.5,12 26,-17 -9,-13.5 9,-20.5 -15,-2 -14,-35 10.5,-1.5 10.5,26 23.5,-12 2.5,-18 23,-1 -0.5,21.5 40.5,14 46.5,-40.5 13,2 5.5,28.5 -4,19.5 24,13 14.5,-19 30,33 15,5 31,-15.5 51,48.5 25,6 32,-9.5 22.5,-25 24.5,1 11,-39.5 6.5,-46.5 30.5,-47 v -38.5 l -22,-34.5 -36.5,-24 -19,-31.5 -12.5,-1 -1,12.5 31,47.5 38.5,23 6,23.5 -0.5,28.5 -47,30.5 -2,24.5 10,11 -23.5,37.5 -23.5,1 -11,31 -10.5,-6 -35.5,-45.5 -38,-19 -1.5,-16.5 -38.5,2.5 -29,-25 -25.5,-4 -9.5,-34 -29,-34 18.5,-45 22.5,6 14,-16 17.5,-12 14.5,1.5 v -13 l -34.5,9 6,-37.5 -13,-0.5 -10.5,48.5 -17,-1 -10,-9.5 -12.5,2.5 -36,70.5 -20,-34.5 1,-15 5.5,-14 -17.5,-9.5 -1.5,30.5 -20,-30.5 2.5,-20 10.5,3 -2.5,-17.5 -10,-4 6.5,-10 24,9.5 37,9.5 -5,-15 -41,-26 -4.5,-28 -12,-1 -1.5,5.5 -23,-17.5 -6,-19.5 -4.5,3.5 1.5,20 10.5,13 11.5,8.5 -1.5,19.5 -15,-3 -2.5,-14.5 -6.5,4 -2.5,18.5 -28.5,1 2.5,7 22,4.5 12,-6.5 3,10 -22,24 -18,-12 -2,7 20,24.5 -3.5,9.5 -41,-34.5 5.5,-18 -3,-25.5 -5,-4 9.5,-24.5 16,-12.5 -7.5,-13.5 -15.5,21.5 -13,-6 -9.5,16.5 4.5,35 -9,3.5 -4,30.5 -13,32.5 -1.5,16.5 11.5,18 -0.5,18 -27.5,6.5 -4.5,-34.5 10,-53.5 -3,-52 10,-23.5 12,-1.5 -13,-20.5 18,0.5 9,-28 9.5,-12 8,-39.5 9.5,-18.5 20,-1.5 9.5,-10 -2.5,-14 39,-40.5 2,10.5 -22.5,21 15.5,8 v 18.5 l 18,30 20,-10 25.5,29 -8.5,37.5 38.5,30.5 16,21.5 17,4.5 12,-22.5 11,-9.5 33,-35 -9.5,-2 -28.5,32 h -18 l -15.5,-22 -7,5 -21,-35.5 10,-53 -9,-24.5 20.5,-16 38,-21 -25,-8.5 -17,8.5 0.5,-16 4,-20.5 11.5,2 13,-14 -2.5,-16 9,-16 -10.5,-2 -10,32 -22.5,11 -13,60.5 -12.5,-1.5 18.5,-73.5 -9.5,-13.5 -2,-52 -11.5,-12 3.5,-17.5 -22,-6.5 -6.5,13 -7.5,-3.5 V 7586 l 18.1002,9.3395 -8.1318,-23.6881 -33.9411,-5.3033 -10.9601,18.7384 L 2617,7598 l -13.5,35 14.5,11 1,7.5 -23,4.5 -7.5,-40.5 -35.5,16 -3.5,28.5 7,27.5 -13,-4.5 -13,-40.5 6,-38 -33,-6 11.5,22 6,12 -3,15.5 2,23.5 -15,-6.5 -3,-8.5 -16.5,3.5 v 19 l 9.5,8 -8.5,18 14,52.5 -18,20 -26.5,7 -11,28 -10,-7.5 3,-37 13,-32 -1.5,-78.5 8.5,-48.5 13.5,-41.5 40,-60.5 2.5,-42 24,-38 2.5,37 23,55 39,25.5 31.5,13.5 39,1.5 32.5,-20 37,-37.5 -22,-76.5 -4.5,-9.5 21,-28.5 3.5,23.5 15.5,-43.5 9,-12.5 31.5,7 18,1.5 2.5,-13.5 -44.5,-7.5 -1.5,-14 14,-8 22.5,-0.5 49.5,-54 12,-6.5 -11.5,-8.5 -52,48 -13,-20 -23,27.5 -39,14.5 13,-43 27.5,-13 -3,-6.5 -23.5,4 -15.5,-16 -9,6.5 14,18.5 -31.5,58.5 -7.5,6 -23,-25 -12,3 20.5,28.5 3,21.5 -10,14 2.5,21.5 -17,-3.5 3.5,14.5 12,2.5 7.5,67 -10.5,4.5 -43,-36 8,-29.5 17.5,-2 0.5,-14.5 -10,-13 -2.5,-58 -22,-46.5 5.5,-29.5 -51,-27.5 12.5,-51.5 28,-43.5 18,-51 16.5,-24 16.5,-56.5 28.5,-25.5 18.5,-15 8.5,-19 -13,-34.5 18.5,-13.5 12,-20 35,1 4,5.5 11.5,-12 -7.5,-10.5 3.5,-17 27.5,-17 7,-20 92.5,3.5 43,11 37.5,-10.5 17.5,12 29.5,-14.5 18.5,3.5 -7,-23 -45.5,9 -17.5,-15.5 -67.5,-1.5 2,-20.5 40,-25.5 14.5,-27 15.5,-19.5 16.5,-3.5 20,-48 11.5,0.5 22.5,-23 26,8.5 11.5,5.5 17.5,-18.5 46,29.5 6.5,-16 -30.5,-22.5 -5.5,-10 -43.5,2.5 4.5,-26 22,-9 29,-9.5 10.5,-6 14.5,-6 -5,-19 -15.5,0.5 12,-19.5 26,-12 2.5,-25.5 19,-27.5 5,-8 -12.5,-7 -21,42.5 -34,37 -25.5,48 -15,-13 -24.5,8 3,20.5 -38.5,24 -46,48 -29,32 -9,-3 3.5,-15 20,-27.5 1,-34 7.5,-11.5 15.5,-62.5 18,-12.5 -4.5,-14 v -34 l 20.5,-11 8,-48 h -10 l -19.5,38 -48.5,27 0.5,35.5 -12,0.5 -19,-20.5 -16,-3.5 2,-16 -4.5,1 -16.5,16.5 2,9.5 -35.5,-3 -9,-10 -3.5,-19.5 v -18 l -29.5,-23.5 -31,-43.5 -36,-38.5 -23,-57 -47.5,-36.5 -36,-53 -11.5,-27 2,-24.5 -5,-37 -20.5,-22 -30.5,-51 -45,-22 -23.5,-22 -13.5,-11 -5,10 25,15 22.5,42 19.5,14 57,90 -1.5,32 11.5,33 65.5,61.5 28.5,21.5 9.5,24.5 11.5,41.5 39.5,33 43.5,63 18,41 -3,15 h -14 l -20.5,45.5 -10.5,35 -7.5,14.5 32.5,14 44,9 17.5,46 -36.5,24.5 1.5,-21 10,-21 -5.5,-6 -14.5,28 -10,2.5 11.5,-46 -11,1 -13.5,55 1,12.5 -58.5,52 -23.5,2.5 -25.5,44.5 -11.5,-12 -22,2 6,8.5 13.5,1.5 -21,30.5 -41,27 -34.25,-25 6.5725,-52.5708 L 2655,6700 l -17.5,-18 10,-49 -17,1.5 -13.5,23.5 -12.5,1.5 1.5,8 12,18.5 -7.5,46 -24,12 6,22.5 -11.5,23.5 2.5,10 -17,15.5 28.5,17 14,39.5 -30,26.5 -4.5,22.5 -5.5,22.5 -19,-5 5,-33.5 -9.5,-26.5 1.5,-38.5 -19.5,-7 11,-30 -11.5,-29.5 -32.5,1.5 -32.5,-16 -19,26 -19.5,2 1.5,8.5 18.5,-2 15,-7.5 29.5,18 -7,33.5 18.5,34.5 -7.5,4 -29,-21.5 1.5,13.5 15.5,21.5 15,8 2.5,14 -11.5,13 -23.5,-5.5 -14,-21 -10,2 11.5,23 -27,24 -2,-22 -11.5,-0.5 -2.5,10 -20,-17 -18,-1 v 8.5 l 28.5,18.5 6.5,18 17.5,4 2.5,19 -15.5,0.5 -8.5,10 3.5,11.5 -9,13 3,18 -26,1 -32,-20 1,-40.5 -44.5,-33 -26.5,-16.5 -9,0.5 13.5,17.5 50.5,48.5 -0.5,20.5 10.5,30 38.5,22.5 15,0.5 11,-13.5 -0.5,21 -24.5,16.5 -16.5,30 -13.5,6 -8.5,10.5 -12.5,-8 10,-29.5 -19,-14.5 -5.5,34 -54,5 -1,-20.5 4.5,-26.5 -12.5,-9.5 -11.5,4 -7.5,-22 -19,5 -11,-12 -10,-19.5 -29.5,-11 -8.327,-21.6573 -23.8777,-13.7636 -27.2907,-6.316 5.8366,13.0343 33.9113,7.1504 0.6643,17.4238 -9.4168,4.6284 -27,-8 -16,20 10.5,14 18,2.5 8.5,-17.5 31,22 12.5,24 -7,12.5 -12.5,-7.5 -11,8.5 18,11 31.5,3.5 4.5,12.5 15.5,-4 8,31 -8.5,4.5 14.5,25 24,18 11,7.5 30.5,-1 14.5,25.5 57,41.5 -4.5,30 12.5,50 3,21 -18.5,30 -17,-25 0.5,-27.5 9.5,-9.5 -18,-6 -12,18.5 -24,15.5 -57,-10.5 -0.5,18 33,16 36,10.5 15,0.5 15.5,11 15,1 46,36 16,40 -12,25 -32.5,10.5 -4.5,-15 -20,13.5 -11,2.5 2,25 -11,11.5 -1.5,-18 -12.5,5 -24,-21.5 -10.5,-18.5 -31.5,-21.5 -22,-33.5 -15,-9.5 -13,-45 -28.5,-5.5 -10,3.5 15,17.5 4,15.5 -16.5,-1.5 1,19.5 34,2 41,44 33.5,29.5 28.5,24 -0.5,21 10,25 25,28 -18,22.5 8.5,29.5 -26.5,-0.5 -12,-22.5 -25.5,3 -52.5,-49.5 -40.5,-10 -16,-4.5 1.5,8 49.5,22 26.5,29 22,19 19.5,14 8,45.5 -32,28.5 -19,-31 -18,-6 v 13 l 21,7.5 3.5,32 -25,1 -1,35.5 10,3.5 7.5,-19 32.5,5.5 10,-8.5 12,24 -20,51.5 -17,23 -20.5,13.5 v 16.5 l -24,20.5 -27.5,5 12.5,29 1.5,31 16,19.5 24,1.5 -4.5,28.5 -3.5,58.5 18,87.5 11.5,36 -7.5,56.5 2.5,59 -4.5,31.5 32.5,91.5 58.5,66.5 8,10.5 48,55.5 24.5,41.5 27,11.5 -11.5,16.5 4,35 -41,60 -8,13 -21.5,-11.5 -33.5,13 -28,-31.5 11,-24 -28.5,-44.5 -8.5,-21.5 -25,-17 -3,-15.5 -19,-20.5 -23,8 -19.5,-24.5 -27.5,-4 -53.5,-54 -6.5,-14.5 -36.5,-12.5 -8,-25.5 -25.5,-41 4.5,-24.5 10,-8 -0.5,-24.5 -15.5,-5.5 -3,-8 11.5,-15 -3,-26.5 -9,1.5 -9.5,-28 4.5,-30 2,-7.5 -11,-1.5 -10,41 5.5,24.5 3.5,40.5 -9,9 15.5,16.5 -4,38.5 -10.5,13 16.5,10.5 -3.5,23 9,-1.5 15,27.5 -4,12 24.5,24.5 2.5,18.5 29.5,31 69,55 46,13 14.5,7.5 33.5,34.5 h 8 l 12,28.5 0.5,16.5 10,8.5 -3,15 21,20.5 25.5,33.5 31,5.5 17.5,-9 6,-14 h 24 l 10,-9.5 38.5,19 -38,57 -450,0.5 -1,-39.5 -9.5,-14 -4,-11.5 -10,4 8,27.5 -2,31.5 -126,0.5 7,-15 -18.5,-18.5 -14.5,-25.5 -10.5,-53 -11,-11 16,-10 4.5,-12.5 34,-12.5 20,-14.5 -7,-4 -26.5,18 -25.5,-5 -9.5,14.5 -3.5,-2 6.5,-15.5 -39.5,-43 -61,-12 -5,-43 -6.5,1.5 -5,33.5 -12,-5 -15,-37 -8.5,6.5 10.5,43.5 30.5,16.5 66,28 8,17.5 -8,27.5 -10,8 6,18 14.5,6 9.5,38 8,9.5 -3.5,12.5 14,7.5 4,32.5 -55.5,1.5 -14.5,-13 -62.5,-32 5.5,-33 30,20.5 -17,-26.5 -17.5,-3 -29.5,-29.5 -27.5,-15 -19,-6 3,-14.5 -19,-81.5 -30.5,-70 -24,-40.5 -10,-27.5 2.5,-13 14,-16.5 1,-22 -4,-15 -3,0.5 -2,32.5 -18.5,16.5 -6,19 0.5,21 -17.5,10 4.5,2 13.5,1 3.5,12.5 -57,40 -16.5,28 -29,1 10.5,-47.5 -7.5,-1 8.5,-30 18,-13.5 -4.5,-6 -22,15.5 -43,-5 9.5,-19 h -10.5 l -10,20 0.5,11.5 39,7 -10.5,76 -15,22 -61,37 -41,18.5 -39,-23 -27.5,-20 -8.5,-36.5 -10,-22 12,-32 -13,-24 3.5,-9 -7.5,-16.5 -0.5,-11 6.5,-9.5 -7.5,-13 -6,-12.5 12,-41 10.5,-35.5 29,-13 12,-12 -10,-11.5 -14,16 -0.5,-7 15.5,-25.5 40.5,-3.5 11.5,1.5 10,-14 10.5,5.5 8.5,-5.5 -2.5,-17 -27,14 -13.5,-4.5 3,-16.5 21.5,-21 21,-35.5 39,-3.5 13,-0.5 47,-35.5 5.5,-32.5 -8.5,-35 1.5,-18.5 18,-26 34.5,-9.5 22.5,-10.5 9,4 13,-12.5 25.5,11 20.5,-3 -4,-12 -21.5,-3 -9.5,-11.5 13.5,-16.5 0.5,-40.5 22,-9 -5.5,-10 -16.5,-5 -0.5,-41.5 14.5,-11.5 2,-15.5 -8,-24.5 -7.5,-36.5 12.5,-53.5 -11,-28 -32.5,-36 -15.5,-23 -5.5,5.5 37,50.5 5,36.5 -3.5,19.5 -8,0.5 2.5,10.5 8,3.5 -5.5,55 -4,17.5 -13.5,8.5 8,43 5.5,55.5 -3.5,35 -11,9.5 -40.5,4 -35.5,21 -23,-3.5 -9,1 11.5,27 -25,24 -31,-18 v -24.5 l -6,4 -7,19 -31,-2.5 0.5,6 22,5 33,25.5 -0.5,9 17.5,22 10,22.5 -39.5,-1.5 -13,20.5 -55,15 -1.5,-10 -14,-20.5 4.5,-9.5 11,-1 15.5,-23 -15,-12 -32.5,2 -9.5,-7 -3,5 14.5,21 -6.5,20 -22,-4.5 -3.5,8.5 1.5,25.5 -4.5,20 -4.5,12.5 -20,-8 v 6 l 26.5,22.5 -16.5,13 -24.5,-3 1.5,4.5 14.5,6 6,28 -0.5,13.5 -23,19 -3,23 -39.5,-45 -7,7 40,57 -14.5,23.5 -24,42 -14.5,37 -7,46.5 7,50 12.5,41.5 -10,3 -34.5,-46.5 -29.5,-35 -13.5,8.5 50.5,63 19.5,22 11.5,-1 -3.5,10.5 29,24 12.5,22 -0.5,8.5 -55,9.5 -18,-10 1.5,11.5 19.5,14.5 59,-7 17.5,14.5 30.5,10.5 30,-5 41.5,-15.5 41,-1 25.5,-12.5 28,-35.5 18,2.5 29,-7.5 25.5,7 28,-24.5 19,-32.5 18,-7 44,48 -5,11 1,72 -13,18 -21,4 -22.5,-8 -8.5,10.5 28,13.5 17.5,-2.5 1.5,15.5 41,45 -22.5,18.5 -1508.863961,-0.8431 2.1213203,-8973.8922 1588.2633407,0.89238 6.3196,141.825977 -14.584,-0.968533 -17.5949,8.078046 -2.5369,11.330674 8.4325,56.113976 -0.1085,155.27806 23.5998,137.63363 17.7557,8.05212 5.2079,13.01913 41.917,45.43329 -13.1589,43.5739 3.0823,88.5305 6.7697,39.39083 7.5987,57.7117 -9.2426,81.11455 25.0679,92.07092 18.3994,90.66862 14.514,36.10466 27.7522,-1.00992 -19.5902,-74.24181 -9.4002,-70.81524 -17.1893,-71.34129 9.8448,-81.41626 8.8311,-116.3094 -3.6188,-38.42039 11.8771,-53.56263 -11.645,-62.11742 -34.5069,-58.7855 -25.9174,-68.08113 -12.6546,-88.33585 -12.4023,-32.37157 -8.4344,-113.357 3.1876,-26.687054 -21.0995,-5.985772 -6.5754,-142.435004 313.9564,0.12591 -13.435,88.388351 16.9705,59.39697 9.8995,33.234018 -4.9497,60.104081 -36.0625,44.54772 -11.3137,84.14571 8.4853,63.63961 39.598,67.88225 50.9117,53.74012 38.1837,118.08683 70.0036,92.63099 43.8406,23.33452 64.3468,49.49748 41.0121,104.6518 19.799,13.43503 12.728,-9.19239 -33.9412,-113.13709 -44.5477,-40.30508 -60.8112,-47.37616 -54.4472,-59.39697 -46.669,-135.7645 -4.9498,-36.76955 -53.7401,-60.81118 -4.9498,-29.69849 16.2635,-23.33452 -24.7487,-91.21678 9.8995,-53.74011 19.7989,-44.54773 -16.2634,-39.597979 -0.7071,-62.2253966 -33.234,-51.6187954 5.6568,-36.062445 -7.0711,-18.384774 z"
       id="path4267" />
    <path
       style="fill:#ffffff;fill-rule:evenodd;stroke:none;stroke-width:1px;stroke-linecap:butt;stroke-linejoin:round;stroke-opacity:1"
       d="m 9943.5,2433 3,27 -28.5,20.5 5,13 -10.5,9 -1.5,67 10.5,13.5 -3,40 0.5,42 11,16 -26,69 13,15.5 -15,24 -2.5,-24.5 -25.5,-10 -11,17.5 -6.5,-6 -17,-43 -20,101 -32.5,-11 -43.5,18.5 -4.5,-35 21,-11.5 13.5,-17.5 1,18.5 25.5,-10 -5.5,-51 -14.5,-6 8,-32 13,5 3,-3 V 2663 l 9,-13 -4,-14 28,-44.5 10,-6.5 v -31 l 20,-37 -4,-15 16.5,-15 16,-21.5 28.5,-5.5 3,-9.5 z"
       id="path4427" />
    <path
       style="fill:#ffffff;fill-rule:evenodd;stroke:none;stroke-width:1px;stroke-linecap:butt;stroke-linejoin:round;stroke-opacity:1"
       d="m 9757,2412.5 -4,14.5 8.5,5.5 -17,23 10,17 31,14.5 -1.5,23.5 -12.5,43 10.5,24 12.5,-2 27.5,-48 -5.5,-32 -18,-19 -20.5,-7 -8,-49.5 z"
       id="path4430" />
    <path
       style="fill:#ffffff;fill-rule:evenodd;stroke:none;stroke-width:1px;stroke-linecap:butt;stroke-linejoin:round;stroke-opacity:1"
       d="m 9719.5,2589 13.5,6.5 6.5,43 -8.5,20.5 4.5,20.5 -5.5,31 11,4 v 7.5 l -11.5,19 11,32.5 -24.5,7.5 -9.5,-33.5 -8,2.5 9.5,50.5 -13.5,1.5 -1,23 -14,5.5 0.5,-27 7.5,-6 -5,-47 16,-6 13,-23 -20.5,-21 1.5,-29 6.5,-13.5 3.5,-32.5 z"
       id="path4432" />
    <path
       style="fill:#ffffff;fill-rule:evenodd;stroke:none;stroke-width:1px;stroke-linecap:butt;stroke-linejoin:round;stroke-opacity:1"
       d="m 11008.5,2957 -18.5,-2.5 -6.5,-8 5.5,-7.5 -10.5,-16.5 -30.5,-6.5 -22.5,-17 -19.5,-32.5 8,-29 -3,-23.5 -21.5,-21.5 -15,8.5 -6.5,12 2.5,10.5 -11,19.5 -9.5,11.5 -3.5,-5.5 14.5,-26.5 -13.5,5.5 -4,-14.5 10,-33 -10,-14.5 -63,41.5 -23.5,1.5 -19,37 h -19 l -22,18.5 -15,36 -0.5,13 -21.5,16 -6.5,3 -19.5,37.5 -19,18.5 -18,30.5 10,19 -5,17 -24.5,8 5,21 -6.5,15 -16.5,-14.5 14,-7.5 6.5,-37.5 21.5,-5 -7.5,-15 -16.5,8 -42,-14 -29.5,7.5 -8,11 54,64.5 42,22.5 19,-41 36.5,-30.5 87.5,-17 141,-6.5 137,4.5 z"
       id="path4435" />
    <path
       style="fill:#ffffff;fill-opacity:1;fill-rule:evenodd;stroke:none;stroke-width:1px;stroke-linecap:butt;stroke-linejoin:round;stroke-opacity:1"
       d="m 10703,2704.5 h 20 l 13.5,-2 -6.5,16 -37.5,-2 6.5,10 -14.5,2 5.5,9.5 -22,21.5 -15.5,-2.5 -22.5,18.5 -17.5,-1.5 0.5,11.5 5.5,13 -22,16.5 -13,3.5 -20.5,21 -14,-6 -6,4.5 -31,2 -13,6.5 -5,-19.5 6.5,-10 16.5,0.5 10,-3 14.5,20 7.5,-3.5 -4.5,-20 4,-1.5 2,-15.5 18,-1.5 5.5,-19 14.5,3.5 14,-19 16,-6.5 21.5,-27.5 14,1.5 34,-35 14,1.5 z"
       id="path4437" />
    <path
       style="fill:#ffffff;fill-rule:evenodd;stroke:none;stroke-width:1px;stroke-linecap:butt;stroke-linejoin:round;stroke-opacity:1"
       d="m 10469.5,2830 5,18.5 8,10 -23,25 -54,3 -22,-0.5 -46,23.5 7.5,-12.5 15,-29.5 30,4.5 3.5,7.5 h 7 l 7.5,-17.5 30,2.5 z"
       id="path4447" />
    <path
       style="fill:#ffffff;fill-rule:evenodd;stroke:none;stroke-width:1px;stroke-linecap:butt;stroke-linejoin:round;stroke-opacity:1"
       d="m 9424.5,3256.5 25.5,16.5 6,22.5 -19.5,39 7.5,26 11,2 3.5,12 11.5,12.5 -6,21 -65,9.5 -14,-2 -16,-17 12,-50.5 15,-13 5,-16 18,31 11,-2.5 -5.5,-34 -15.5,5 -1.5,-4.5 14,-14 -1,-46.5 z"
       id="path4449" />
    <path
       style="fill:#ffffff;fill-rule:evenodd;stroke:none;stroke-width:1px;stroke-linecap:butt;stroke-linejoin:round;stroke-opacity:1"
       d="m 5785.5,4385 -14,-9 -20.5,9 -15.5,-1 -17,8 -58,6.5 -20.5,-11 -17,-2 -24.5,27.5 3.5,29.5 -5.5,15.5 9,19.5 -11.5,17 -5.5,47 -10.5,14.5 h -14 l -31,20 7.5,23 -4.5,30.5 -14,16.5 4,19 7,2.5 53.5,-18.5 12.5,-12 8.5,4 20,-19 5.5,3 55.5,-35 -2,-4.5 11,-10.5 7,-1 3,5 -11,16 -7.5,1.5 3.5,7 25,-25 30.5,-22 68,-85 -5,-23 -15,-13.5 -8,-14.5 -1,-26.5 z"
       id="path4451" />
    <path
       style="fill:#ffffff;fill-rule:evenodd;stroke:none;stroke-width:1px;stroke-linecap:butt;stroke-linejoin:round;stroke-opacity:1"
       d="m 6157.5,4381 68.5,44 3.5,12.5 -22.5,26 -32,11.5 -23.5,20.5 -52.5,17 -30.5,19 -18,0.5 -19,10 -14,-3.5 -38.5,19 1,21.5 167.5,-69 43.5,-14.5 64.5,-8 -8,13 161,7 45,-9 43,3.5 13.5,-6 1,-15.5 -89,-4 10,-31.5 23,-17 33.5,-0.5 23,-9.5 3.5,4 17,-22.5 23,-3 5,-13.5 5,5 v 9.5 l 18.5,-5.5 16,3 7,1.5 3,16.5 15.5,1 19.5,-36 22.5,1.5 23,2.5 8.5,-13.5 28.5,3 63.5,-11.5 56,-23 21,-7.5 10,-12.5 36,-10 h 29.5 l 44,-35.5 15.5,-15.5 9.5,-10.5 10.5,2.5 -0.5,17 24.5,6 7,-10 51,20 31.5,2.5 6,-26.5 19.5,-19 -16.5,-5.5 2,-5.5 25.5,3 23.5,16 106.5,-24.5 9.5,-27.5 25,-8 39,1.5 57,12 31,-32.5 54.5,-6.5 3.5,42 h 22.5 l 76,-39.5 7.5,-13.5 -5.5,-19.5 19.5,-12.5 35.5,2 24,-0.5 5,-6 -6.5,-8.5 6.5,-2.5 10,7.5 9.5,1 -13,-16.5 1.5,-13 32,13 -3.5,-22.5 6.5,-3 25,21 22.5,2.5 6,-7.5 37,-3 19,12.5 -105.5,39.5 -11.5,-4.5 -33,21.5 -8.5,-3.5 -27.5,8.5 h -21.5 l -26.5,24 -51.5,21.5 -46,14 -25.5,5.5 -5.5,12.5 -31,2 -57,37 -48.5,21.5 -75,37.5 -91.5,28.5 -60.5,18 -18.5,-2.5 -12,13.5 -29.5,2 -6.5,-2 -48.5,21.5 -27,3.5 -34,10.5 -40,-9 -25,3.5 1.5,11 61,1.5 74.5,-15.5 198.5,-58.5 92,-32 43.5,-21 151,-71 124,-51.5 75,-26 266,-95 132,-52 -1.5,-5 -55.5,18.5 -7.5,-6.5 -13,12.5 -71.5,19 2,-18 7,-2 6.5,-19.5 27,0.5 1.5,-18.5 14,-15 -0.5,-15 15.5,12.5 -7,17.5 20,6 -1,-14.5 28,13 18.5,-46.5 -14.5,-10.5 4,-8.5 15,-1 51.5,10.5 16,9 5,17.5 12,4 -66,32.5 0.5,12.5 160.5,-76.5 204,-103.5 187,-90 131.5,-56 80,-43.5 112,-43 26,-40.5 -16,-6 -42.5,-1 -12.5,-17 -62,16 -20,14.5 -3,19.5 6.5,14 -9,13.5 -12,8 -18.5,-15.5 -12,2.5 -40,47.5 -21.5,6.5 -23.5,-7 -24,19.5 -20.5,15.5 -5,17.5 -20.5,10.5 -19,-10.5 -32,-53.5 -3,-32 -31.5,-26.5 -29.5,18.5 -9,21 -27.5,2 -27.5,-21 -35.5,-1.5 -21.5,2 1,3.5 h 30 l -9.5,50 -27,10 -11.5,16 -25,-1.5 -11.5,-28 -25.5,-53.5 1,-15 8.5,-1 21.5,22.5 21.5,10.5 -1.5,17.5 18.5,0.5 -18,-42 12,-10.5 -12.5,-27.5 8,-21.5 -24.5,-6.5 -15,1 -27.5,-20 -2.5,-16 -17,-10 -14.5,20.5 -5.5,3 7,17.5 -8.5,3.5 -12,-10 -17,29.5 -14.5,5 -5,-3.5 -3,7 16.5,15.5 0.5,19 36,20 -1.5,-15 11,-5.5 15.5,8.5 0.5,4.5 h 20 l 2.5,10.5 -22.5,2.5 -2.5,12.5 18.5,38.5 0.5,20 -15,13.5 -25,-15 -35.5,12.5 -12,19.5 -7,20 -33.5,47 -52,8.5 -15.5,52.5 -17.5,25 -32,17.5 -24,1 -26.5,-11.5 -35.5,-21.5 -24.5,-2.5 -11.5,14.5 -23,-2.5 -22.5,-13 -24.5,12 0.5,-11.5 -0.5,-10 -3,-7 20,-18 26.5,4 11.5,-8.5 10,4 41,-47.5 21.5,-41.5 40,-11 15,-10.5 35.5,2.5 0.5,-23 12,-11.5 8.5,6 v 10.5 l 30,22 -17.5,-68 21,-25.5 53,13 15.5,-8 -6,-18.5 8.5,-16 -44.5,-2.5 -1.5,-12.5 24,-34.5 22,-7 12,6.5 2,-5.5 -10,-17 7,-12.5 18,2 12.5,-29 25,-11.5 12.5,-26 23,-24.5 16,10.5 5,10 18.5,9.5 -9,13 6.5,1.5 44,-23 34.5,-58.5 -19,-3 -34.5,13.5 -16,-9.5 -56.5,33 -14.5,9 -25,-9 -10.5,5.5 -9,23.5 -37,27 -14,28.5 -40.5,22 -39,1 -9,28 -34,39.5 -68.5,31.5 -55,43.5 -30,29.5 -69.5,31 -33.5,1 -71,3 -66,21 -45,7 -80,-11 -80.5,14.5 -127,-8 -97,4.5 -54,-17.5 -27.5,9.5 -26,-15 -27.5,19.5 -30,-0.5 1,7.5 19.5,11 -6,53.5 -106,42 -34,-6 -78,-27.5 -40.5,-9.5 -38.5,7.5 -33.5,-20 -21.5,-37 -16.5,4 -2.5,52.5 24.5,7 15.5,-17.5 13,8 20.5,8 -8,39 -11.5,-8 -13.5,-12.5 -8,26.5 -22,-17.5 -22,9 -47.5,-6.5 -5.5,-15.5 8,-8.5 h 21.5 l -5,-20.5 -16,-11.5 -24.5,0.5 -40,-19 -12.5,16 -2,33 15,16.5 9.5,25.5 9,19.5 3,31 8.5,13.5 -6,3.5 -8.5,-15.5 -18,-7 -2.5,-12 -2,-21 -7.5,-3.5 -18.5,2 3,41 -46,-10 -12.5,-23.5 0.5,-22 16.5,-9 5.5,-11.5 4.5,1.5 5.5,14 -15,33 19,-3 5.5,-20.5 14.5,-9.5 -9,-16.5 -12,-8 -38.5,12.5 -27,-7 -73,29 -27.5,-4.5 -31,54.5 8.5,32 -4,27 8,37 -1,30 -6,-3 -5,-41.5 -27,-51.5 -54,-22 -29.5,8 8,17.5 -12,13.5 12.5,25 32,4.5 1,24.5 -11.5,38.5 -12.5,-45.5 -47,-25 -6.5,13 8.5,18 -15.5,13 -1,18 13.5,14.5 v 32.5 l -3,28.5 -25,-37 2,-13 -9,-8.5 -11,12 -49.5,-19 -14,9 -0.5,10 -10.5,-0.5 -0.5,-12 -22,6 -5,14 6.5,11.5 4.5,21 4,15.5 -15,2.5 -5.5,-7.5 6.5,-14.5 -40,-10 -13,1.5 -9.5,-24.5 -18,-5 -22,27.5 -3.5,2 -9.5,-4.5 -5.5,9 3,6 -13,14 -23,39.5 -3,18 0.5,18 -14,29.5 -3.5,7 -11.5,-1 -16,2 -12.5,14 -5,15 -19.5,24 3,9.5 17.5,8 -0.5,7 -34,36.5 -9,2.5 -10.5,24.5 -1,28.5 11,16.5 11,7.5 20,1.5 18.5,16 4.5,7 -4,17.5 -11,-2.5 -8,10.5 5,5 16.5,6 100,-10 -1.5,-14 31,5.5 -2,-7 h 18 l 5.5,15.5 26.5,-8.5 -10.5,-50 -18.5,-17 9,-19 38.5,-30 16.5,-7 25,-0.5 z"
       id="path4453" />
    <path
       style="fill:#ffffff;fill-rule:evenodd;stroke:none;stroke-width:1px;stroke-linecap:butt;stroke-linejoin:round;stroke-opacity:1"
       d="m 6512,4517.5 16,-27 83,-19.5 7,-15.5 18.5,-0.5 -10,15 26,-1 -0.5,-8.5 42.5,-18.5 59,-11 41,-13.5 12,1.5 15,-4.5 -4.5,-5.5 75.5,-27.5 5,25 -31.5,1.5 -41.5,13.5 -36.5,10 -111.5,38 -75.5,17.5 z"
       id="path4614" />
  </g>
  <image
     sodipodi:absref="/home/lexande/timelines/timelines/misc/nerail/osm/crosm.png"
     xlink:href="timelines/timelines/misc/nerail/osm/crosm.png"
     style="display:none"
     id="image10"
     height="8960"
     width="11008"
     y="-900"
     x="-5700" />
  <path
     style="color:#000000;font-style:normal;font-variant:normal;font-weight:normal;font-stretch:normal;font-size:medium;line-height:normal;font-family:sans-serif;font-variant-ligatures:normal;font-variant-position:normal;font-variant-caps:normal;font-variant-numeric:normal;font-variant-alternates:normal;font-variant-east-asian:normal;font-feature-settings:normal;font-variation-settings:normal;text-indent:0;text-align:start;text-decoration:none;text-decoration-line:none;text-decoration-style:solid;text-decoration-color:#000000;letter-spacing:normal;word-spacing:normal;text-transform:none;writing-mode:lr-tb;direction:ltr;text-orientation:mixed;dominant-baseline:auto;baseline-shift:baseline;text-anchor:start;white-space:normal;shape-padding:0;shape-margin:0;inline-size:0;clip-rule:nonzero;display:inline;overflow:visible;visibility:visible;opacity:1;isolation:auto;mix-blend-mode:normal;color-interpolation:sRGB;color-interpolation-filters:linearRGB;solid-color:#000000;solid-opacity:1;vector-effect:none;fill:none;fill-opacity:1;fill-rule:nonzero;stroke:#008000;stroke-width:10;stroke-linecap:butt;stroke-linejoin:round;stroke-miterlimit:4;stroke-dasharray:none;stroke-dashoffset:0;stroke-opacity:1;color-rendering:auto;image-rendering:auto;shape-rendering:auto;text-rendering:auto;enable-background:accumulate;stop-color:#000000;stop-opacity:1"
     d="m 4478.462,260.3654 -1.931,5.4092 -13.76,-2.541 -2.074,0.055 -11.736,2.8183 -12.66,2.3438 -31.446,-3.2852 -15.414,-11.209 -2.185,-0.9004 -36,-5.5 -0.75,-0.057 h -0.19 l -54.4996,2 -1.2832,0.2168 -37.2109,11.4102 -61.2032,10.9472 -2.5898,1.3223 -13.5098,13.0273 -11.4004,6.1758 -2.0918,2.1602 -4.5,9 -0.5253,2.1054 -0.4864,18.4512 -4.5234,18.0957 -22.3242,21.8496 -6.3379,5.1485 -19.0918,-0.9082 -2.2481,0.416 -20.5,9 -0.4472,0.2226 -18.8868,10.6563 -31.8457,7.6035 -14.5136,-2.3398 -1.125,-0.055 -30.5,2 -1.6504,0.3984 -28.3027,12.1992 -32.2461,3.4199 -2.1036,0.7207 -10.5,6.5 -1.7812,1.8985 -7.6113,14.2715 -5.8438,5.4785 -26.7441,-1.3828 -22.7676,-2.3711 -11.5488,-6.9297 -2.0098,-0.6817 -26.5,-3 -1.0059,-0.012 -43.5878,3.875 -10.7325,-5.3672 -2.0234,-0.5234 -69.4063,-2.9531 -18.5254,-9.5 -2.9511,-0.5059 -18.5,2.5 -1.0449,0.2578 -31.5,11.5 -2.0098,1.3614 -21.3008,23.7793 -11.707,10.3007 -22.4551,10.0332 -21.6289,5.8985 -1.0469,0.418 -19.7988,10.625 -25.2383,4.5058 -7.1582,-4.7734 -6.0625,-27.045 -1.0957,-2.1738 -9.5,-11 -0.033,-0.041 -6.25,-7.082 V 431 l -0.3008,-1.709 -2,-5.5 -2.3281,-2.6933 -6.5,-3.5 -4.6074,-0.07 -11,5.5 -1.2989,0.9375 -9.5468,9.5469 -13.9473,8.1738 -0.2051,0.129 -19.0801,12.4609 -20.1101,24.6371 -34.7458,12.742 -7.8619,7.5585 -2.6002,14.1102 -17.8546,38.0499 -5.3558,24.1272 -6.6976,8.8435 -10.1342,0.4672 -8.6647,4.5376 -7.0923,-1.7712 -9.8925,-10.7088 -4.756,-1.1094 -5.8051,2.4827 -22.0553,32.2734 -21.99,2.3889 -25.7453,-7.571 -8.5377,1.9331 -8.5869,10.8407 -14.159,-3.268 -13.8574,0.8523 -5.7791,-5.3718 -0.331,-9.628 -7.9294,-21.4942 1.4573,-18.6947 -9.75,-12.2146 -3.3915,-19.8614 -5.7942,-4.2174 -6.3377,-0.6853 -13.1115,4.3136 -5.1252,-1.2464 -9.1182,-10.5512 -7.2934,-4.8711 -10.2686,1.3001 -66.8317,32.0732 -11.1784,4.2694 -37.5763,-12.7185 -12.9841,-16.6555 -19.8672,-13.4072 -22.5605,-5.622 -10.104,3.2683 -23.993,25.5078 -14.989,10.6955 -11.2488,-0.3309 -11.9667,-5.4847 -12.3412,0.5433 -24.3592,7.7002 -34.0168,8.1817 -6.2825,16.4159 0.6496,7.2273 -2.2622,24.2899 5.2175,18.0835 -6.6472,20.4961 -6.5704,27.014 -10.535,7.5318 -18.3379,2.3463 -19.4857,-2.6953 -35.8195,-19.1874 -34.6062,-9.8763 -12.0725,2.8982 -8.8152,9.4771 -10.0371,5.6256 -58.5233,-1.1929 -5.9036,-3.7739 -61.8461,2.0134 -75.9743,16.2768 -59.9832,23.7152 -26.4639,15.9703 L 2241,747.5 l -3,3.5 3,6.5 9.5,8.5 9,22.5 2,13.5 -12,13 -2.5,15 -6.5,36 -14.5,91 6,24 -8.5,39 1,39.5 -6.5,7.5 -16.5,1.5 -9,21.5 2,34.5 -3,22 -0.5,27 3,25 -20.5,30.5 -1,14 -6.5,22 3.5,23 -3,23.5 -31,56 -8,24.5 -14,11 -4,8.5 -26,15 -67.5,116 -0.5,41 -6,24 4.5,27 -16.5,22 -13.5,26.5 8,47 -6.5,30 -10,16 -21,41 -2,19.5 -18.5,29 -15,52 0.5,17.5 7.5,16.5 -1.5,16 -21,49.5 -19,59 -14,39.5 -36,39.5 -10,16 -23,60 0.5,34.5 -1.0622,9.4558 -8.563,6.4192 -18.2615,15.4473 -0.7031,0.8007 -18.5606,26.377 -18.8984,14.5371 -0.461,0.4004 -32.8086,32.3203 -11.1054,4.627 -1.793,1.2695 -22.377,24.8633 -47.8085,45.8379 -28.8594,14.1933 -22.9473,0.9551 -2.7734,0.9824 -17.0313,12.6524 -31.7851,13.6914 -42.3164,14.4375 -1.8243,1.1035 -27.9218,26.4512 -16.9258,8.0175 -27.0176,-3.791 -1.123,-0.031 -17.5,1.5 -3.9903,2.6426 -4.5,8.5 -0.5605,2.7929 1.3476,14.8242 -0.2851,0.4551 -15.0117,1.2852 -0.3848,0.049 -39.5,6.5 -2.7227,1.3984 -9,9 -24.8007,24.8008 -47.0879,19.6192 -1.3106,0.8007 -22.3691,18.9668 -35.4688,14 -9.2187,-3.3515 -1.6231,-0.3008 -29,-0.5 -1.248,0.1367 -33.5,8 -1.7246,0.7813 -28.6113,20.2246 -31.5665,14.3027 -1.6289,1.1836 -10.5,11.5 -0.9492,1.5137 -10.0683,25.1719 -19.0996,5.0937 -23.9961,-3.3594 -2.0821,0.1485 -22.5,6.5 -1.6894,0.8632 -14.4688,11.3028 -30.0644,-2.3477 -3.3164,0.9317 -9,6.5 -1.7989,2.4218 -9.2304,26.7696 -27.2891,10.1758 -2.4141,1.9121 -9.332,13.998 -10.793,6.0449 -20.0703,4.3008 -29.8047,3.9727 -1.705,0.5527 -26.3985,14.1758 -23.832,5.3496 -2.4785,1.3809 -22.2461,22.7324 -19.4981,7.6074 -2.541,2.2109 -15.1738,27.0274 -16.9512,7.3301 -1.3613,0.873 -24.752,22.2773 -8.6816,5.9415 -17.8789,6.2812 -2.2695,1.623 -12.8946,16.3653 -51.8867,57.375 -0.1015,0.1152 -32.5333,38.2754 -5.9843,0.098 -41.8633,-12.7383 -1.8691,-0.1992 -32.1231,2.666 -2.2148,0.7305 -8.2403,5.0957 -1.9375,2.2207 -20.6777,46.4941 -0.1035,0.2559 -10.0625,26.4785 -23.7754,20.9746 -1.2676,1.7324 -26.4961,60.1309 -22.2012,16.832 -0.7031,0.6484 -13.9707,15.5977 -0.6562,0.9238 -61.5625,111.7852"
     id="path1098"
     sodipodi:nodetypes="cccccccccccccccccccccccccccccccccccccccccccccccccccccccccccccccccccccccccccccccccccccccccccccccccccccccccccccccccccccccccccccccccccccccccccccccccccccccccccccccccccccccccccccccccccccccccccccccccccccccccccccccccccccccccccccccccccccccccccccccccccccccccccccccccccccccccccccccccccccccccccccccccccccccccccccccccccc" />
  <path
     style="color:#000000;font-style:normal;font-variant:normal;font-weight:normal;font-stretch:normal;font-size:medium;line-height:normal;font-family:sans-serif;font-variant-ligatures:normal;font-variant-position:normal;font-variant-caps:normal;font-variant-numeric:normal;font-variant-alternates:normal;font-variant-east-asian:normal;font-feature-settings:normal;font-variation-settings:normal;text-indent:0;text-align:start;text-decoration:none;text-decoration-line:none;text-decoration-style:solid;text-decoration-color:#000000;letter-spacing:normal;word-spacing:normal;text-transform:none;writing-mode:lr-tb;direction:ltr;text-orientation:mixed;dominant-baseline:auto;baseline-shift:baseline;text-anchor:start;white-space:normal;shape-padding:0;shape-margin:0;inline-size:0;clip-rule:nonzero;display:inline;overflow:visible;visibility:visible;opacity:1;isolation:auto;mix-blend-mode:normal;color-interpolation:sRGB;color-interpolation-filters:linearRGB;solid-color:#000000;solid-opacity:1;vector-effect:none;fill:none;fill-opacity:1;fill-rule:nonzero;stroke:#ff6600;stroke-width:10;stroke-linecap:butt;stroke-linejoin:round;stroke-miterlimit:4;stroke-dasharray:none;stroke-dashoffset:0;stroke-opacity:1;color-rendering:auto;image-rendering:auto;shape-rendering:auto;text-rendering:auto;enable-background:accumulate;stop-color:#000000;stop-opacity:1"
     d="m 4487.753,263.5652 -3.46,8.6603 -5.106,3.3332 -17.187,-2.2997 -10.832,2.6015 -0.258,0.055 -13.5,2.5 -1.43,0.057 -33.5,-3.5 -2.421,-0.9297 -15.516,-11.2832 -34.332,-5.2461 -53.3731,1.959 -36.8711,11.3066 -0.5859,0.1426 -60.0039,10.7324 -12.9063,12.4453 -1.0898,0.7969 -10.6133,5.75 -3.2988,6.5957 -0.4708,17.8887 -0.1464,1.082 -5,20 -1.3536,2.3613 -23.5,23 -0.3457,0.3067 -8,6.5 -3.3906,1.1132 -19.8262,-0.9433 -19.1972,8.4277 -19.2813,10.877 -1.2949,0.5078 -33.5,8 -1.959,0.072 -14.9414,-2.4101 -29.0742,1.9082 -28.209,12.1582 -1.4512,0.3809 -31.8652,3.3789 -8.3848,5.1914 -7.3652,13.8105 -0.9922,1.2949 -8,7.5 -3.6777,1.3457 -29,-1.5 -0.2598,-0.021 -24,-2.5 -2.0547,-0.6856 -11.5683,-6.9414 -24.9199,-2.8203 -44.4961,3.9551 -2.6797,-0.5078 -11.043,-5.5235 -69.4336,-2.9531 -2.0683,-0.5469 -18.1036,-9.2832 -16.4082,2.2168 -29.8183,10.8848 -20.6641,23.0683 -0.4219,0.418 -12.5,11 -1.2636,0.8106 -23.5,10.5 -0.7227,0.2597 -21.4531,5.8496 -20,10.7324 -1.4844,0.5157 -28,5 -3.6523,-0.7617 -10.5,-7 -2.1055,-3.0664 -6.2246,-27.7754 -8.6641,-10.0293 -7.4824,-8.4805 -1.25,-3.3086 v -10.6191 l -1.0488,-2.8809 -2.5371,-1.3672 -7.9532,3.9766 -9.4257,9.4258 -1.0059,0.7793 -14.3965,8.4375 -18.9785,12.3964 -16.667,24.1428 -20.5443,62.5628 1.5305,13.8103 7.093,7.1805 -0.5943,21.9831 -21.0237,47.2998 -29.8147,40.3955 -8.7358,66.4185 2.9429,14.4556 -14.5196,35.9569 -19.7916,87.8843 9.8925,30.4312 -12.3434,26.3201 -8.1714,44.6456 -8.1363,20.5252 9.3111,8.8035 11.6743,29.0331 -5.4183,20.2785 -6.2474,6.2294 -2.0766,18.3045 -15.7548,30.5228 0.5836,10.9042 15.648,17.3456 5.2606,14.8228 -0.1681,34.3027 -1.5615,34.739 11.7503,36.9569 3.5206,95.8105 -4.4379,17.0055 1.4859,34.3618 -18.5627,50.2564 -30.4464,64.7439 -4.5496,70.2902 -13.4704,29.7545 -14.2642,30.5878 -19.814,10.9631 -39.1815,36.1612 -4.7384,15.7462 -4.9582,48.747 -5.8827,12.6037 0.2972,14.6775 -12.24,2.9272 -11.3164,-9.265 -5.3918,3.3459 -9.1683,25.1589 -28.0595,3.2185 -8.7973,-3.7667 -8.4807,2.9213 2.3774,11.7722 -7.579,13.564 -5.1897,21.7707 -26.1403,14.3665 -4.1488,9.9777 1.1887,10.4752 -5.845,10.4245 3.0414,33.0044 10.2367,18.123 2.0802,14.9025 5.563,9.2538 -2.3773,23.8628 -22.9913,25.8517"
     id="path1092"
     sodipodi:nodetypes="ccccccccccccccccccccccccccccccccccccccccccccccccccccccccccccccccccccccccccccccccccc" />
  <path
     style="fill:none;stroke:#800080;stroke-width:5;stroke-linecap:butt;stroke-linejoin:round;stroke-miterlimit:4;stroke-dasharray:none;stroke-opacity:1"
     id="path5536"
     d="m 4974,969.5 3,18 -5.5,10.5 -8,7" />
  <path
     style="fill:none;stroke:#ff6600;stroke-width:10;stroke-linecap:butt;stroke-linejoin:round;stroke-miterlimit:4;stroke-dasharray:none;stroke-opacity:1"
     id="path3807"
     d="m 463.5,3483 -113,43 h -11 l -75.5,-5.5 -34.5,-10 -35.8393,-16.1733" />
  <path
     style="fill:none;stroke:#ff6600;stroke-width:10;stroke-linecap:butt;stroke-linejoin:round;stroke-miterlimit:4;stroke-dasharray:none;stroke-opacity:1"
     id="path3782"
     d="m 462,3483.5 108,-36 126,-39.5 185.5,-58.5 12.5,0.5 73.5,65 10.5,3.5 378,-112.5 117.5,-34 296,-31.5 185.5,-113.5 85,-60.5 115,-12.5 56,-39.5 51,-7 68.5,-97.5 133,-126 54.5,-32 38,-36.5 27,-5.5"
     sodipodi:nodetypes="cccccccccccccccccccc" />
  <path
     style="color:#000000;font-style:normal;font-variant:normal;font-weight:normal;font-stretch:normal;font-size:medium;line-height:normal;font-family:sans-serif;font-variant-ligatures:normal;font-variant-position:normal;font-variant-caps:normal;font-variant-numeric:normal;font-variant-alternates:normal;font-variant-east-asian:normal;font-feature-settings:normal;font-variation-settings:normal;text-indent:0;text-align:start;text-decoration:none;text-decoration-line:none;text-decoration-style:solid;text-decoration-color:#000000;letter-spacing:normal;word-spacing:normal;text-transform:none;writing-mode:lr-tb;direction:ltr;text-orientation:mixed;dominant-baseline:auto;baseline-shift:baseline;text-anchor:start;white-space:normal;shape-padding:0;shape-margin:0;inline-size:0;clip-rule:nonzero;display:inline;overflow:visible;visibility:visible;opacity:1;isolation:auto;mix-blend-mode:normal;color-interpolation:sRGB;color-interpolation-filters:linearRGB;solid-color:#000000;solid-opacity:1;vector-effect:none;fill:none;fill-opacity:1;fill-rule:nonzero;stroke:#0000ff;stroke-width:10;stroke-linecap:butt;stroke-linejoin:round;stroke-miterlimit:4;stroke-dasharray:none;stroke-dashoffset:0;stroke-opacity:1;color-rendering:auto;image-rendering:auto;shape-rendering:auto;text-rendering:auto;enable-background:accumulate;stop-color:#000000;stop-opacity:1"
     d="m 4461.65,261.6978 -11.431,11.5468 c -0.01,0.014 -0.03,0.027 -0.04,0.041 -0.01,0.01 -0.01,0.01 -0.01,0.016 l -26.5,28.5 c -0.191,0.2055 -0.347,0.4417 -0.459,0.6972 v 0 l -8.963,20.4121 c -0.01,0.01 -0.01,0.017 -0.01,0.027 -0.02,0.065 -0.06,0.1416 -0.09,0.2266 l -0.02,0.047 -11.062,28.3848 c -0.172,0.4417 -0.407,0.8567 -0.696,1.2324 l -9.347,12.1504 c -0.139,0.1796 -0.248,0.3785 -0.338,0.5957 l -4,9.998 v 0 c -0.08,0.2038 -0.142,0.4167 -0.162,0.6308 v 0 l -5.473,45.7754 c -0.02,0.099 -0.03,0.1969 -0.05,0.2949 l -7.346,40.6426 c -0.05,0.2826 -0.124,0.5603 -0.224,0.83 l -40.778,111.3926 v 0 c -0.11,0.3094 -0.17,0.6413 -0.15,0.9765 l 2.934,61.5997 c 0.03,0.6165 -0.06,1.2329 -0.252,1.8183 l -5.157,15.4785 c -0.175,0.5273 -0.437,1.0217 -0.775,1.4629 l -22.234,29.002 v 0.01 c -0.06,0.073 -0.107,0.1486 -0.157,0.2266 v -0.01 l -25.9997,42.9981 v 0 c -0.1866,0.3093 -0.3057,0.6561 -0.3457,1.0157 l -9.8886,88.498 c -0.049,0.4434 -0.1577,0.8783 -0.3223,1.293 l -15.9981,40.2402 c -0.057,0.1435 -0.1214,0.2843 -0.1914,0.4219 l -26.8105,52.6269 c -0.014,0.027 -0.028,0.055 -0.043,0.082 l -120.4668,225.9375 -74.9521,136.5737 -21.1992,12.6133 c -0.6172,0.367 -1.1482,0.8626 -1.5567,1.4531 l -11.3418,16.4141 -8.7597,2.3359 -16.9821,12.5295 5.703,26.3303 -23.5914,21.2085 -1.7494,7.875 -4.5,19 c -0.012,0.05 -0.024,0.1 -0.037,0.1485 l -25.9824,96.4316 -16.623,69.4278 5.9472,15.5546 c 0.162,0.4228 0.2656,0.8657 0.3086,1.3164 l 2.5,26.5 c 0.037,0.3917 0.027,0.7864 -0.029,1.1758 l -3,21 c -0.086,0.604 -0.282,1.1872 -0.5781,1.7207 l -12.3184,22.1719 -42.3672,113.6465 c 0,0.015 -0.01,0.03 -0.017,0.045 l -58.5,152.5 c -0.104,0.271 -0.2315,0.5324 -0.3809,0.7813 l -9,15 c -0.2963,0.4936 -0.6755,0.9323 -1.1211,1.2968 l -126.5,103.5 c -0.62,0.5074 -1.3528,0.8584 -2.1367,1.0235 l -19,4 c -0.9898,0.2083 -2.0194,0.1116 -2.9531,-0.2774 l -22.9766,-9.5742 -9.3594,0.3906 -23.7656,17.5879 c -0.4421,0.3266 -0.9351,0.578 -1.459,0.7442 l -21.7402,6.9179 -28.1992,12.4825 -7.8145,24.3632 c -0.212,0.6591 -0.5585,1.267 -1.0176,1.7852 l -11.5,13 c -0.34,0.3847 -0.7372,0.7147 -1.1777,0.9785 l -52.9687,31.6817 -15.5625,15.5625 c -0.8764,0.8767 -2.0472,1.3969 -3.2852,1.4589 l -40,2 c -0.1776,0.011 -0.3556,0.01 -0.5332,0 l -25.2539,-1.4297 -16.4356,7.5859 -7.8027,22.4903 c -0.1392,0.4006 -0.3289,0.7819 -0.5644,1.1347 l -9,13.5 c -0.9009,1.3512 -2.402,2.1806 -4.0254,2.2246 l -17.4883,0.4727 -9.3789,4.2637 -43.4278,38.9863 c -0.3326,0.2989 -0.7037,0.5518 -1.1035,0.752 l -8,4"
     id="path1066"
     sodipodi:nodetypes="cccccsccccccscccssccccccsccscccccccscccccccccccccccccccccccccccccccccccssscccccccccccccccccccssccccc" />
  <path
     style="color:#000000;font-style:normal;font-variant:normal;font-weight:normal;font-stretch:normal;font-size:medium;line-height:normal;font-family:sans-serif;font-variant-ligatures:normal;font-variant-position:normal;font-variant-caps:normal;font-variant-numeric:normal;font-variant-alternates:normal;font-variant-east-asian:normal;font-feature-settings:normal;font-variation-settings:normal;text-indent:0;text-align:start;text-decoration:none;text-decoration-line:none;text-decoration-style:solid;text-decoration-color:#000000;letter-spacing:normal;word-spacing:normal;text-transform:none;writing-mode:lr-tb;direction:ltr;text-orientation:mixed;dominant-baseline:auto;baseline-shift:baseline;text-anchor:start;white-space:normal;shape-padding:0;shape-margin:0;inline-size:0;clip-rule:nonzero;display:inline;overflow:visible;visibility:visible;opacity:1;isolation:auto;mix-blend-mode:normal;color-interpolation:sRGB;color-interpolation-filters:linearRGB;solid-color:#000000;solid-opacity:1;vector-effect:none;fill:none;fill-opacity:1;fill-rule:nonzero;stroke:#000000;stroke-width:10;stroke-linecap:butt;stroke-linejoin:round;stroke-miterlimit:4;stroke-dasharray:none;stroke-dashoffset:0;stroke-opacity:1;color-rendering:auto;image-rendering:auto;shape-rendering:auto;text-rendering:auto;enable-background:accumulate;stop-color:#000000;stop-opacity:1"
     d="m 4454.549,254.6582 -11.432,11.5469 0.141,-0.1367 c -0.292,0.2721 -0.436,0.4468 -0.426,0.4355 l -26.486,28.4844 c -0.953,1.0247 -1.728,2.2017 -2.291,3.4844 v 0 l -9,20.5 c -0.01,0.028 -0.02,0.057 -0.04,0.086 -0.05,0.1097 -0.08,0.2035 -0.118,0.2813 -0.02,0.039 -0.03,0.078 -0.05,0.1172 l -10.85,27.8359 -8.912,11.584 c -0.702,0.9125 -1.272,1.9165 -1.697,2.9785 l -4,10 c -0.405,1.0104 -0.677,2.0719 -0.807,3.1563 v 0 l -5.455,45.6289 -7.242,40.0703 -40.629,110.9883 c -0.574,1.5665 -0.826,3.2288 -0.748,4.8887 v 0 l 2.888,60.666 -4.597,13.7969 -21.719,28.3301 c -0.28,0.3634 -0.539,0.7433 -0.777,1.1367 v 0.01 l -26.0003,43 v 0 c -0.9362,1.5491 -1.5241,3.2819 -1.7246,5.0801 l -9.8144,87.8301 -15.6641,39.4004 -26.6836,52.3789 -120.4453,225.8964 -6.27,8.8759 L 4003.5,1168 l -3.5,16.5 -14,16 -16.5,29.5 -7.5,21.5 -5,15 1.5,8.5 4,13.5 -8,7.5 -16.5,3 -13,7 -5,27 3.5,8.5 12.5,5 8.6348,27.3477 -4.4825,18.9257 -25.9804,96.4258 c -0.012,0.045 -0.024,0.091 -0.035,0.1367 l -17,71 c -0.2342,0.9801 -0.1668,2.0081 0.1934,2.9493 l 6.2558,16.3632 2.3809,25.2305 -2.7852,19.5 -12.0527,21.6934 c -0.1217,0.219 -0.2264,0.4468 -0.3144,0.6816 l -42.4922,113.9766 -58.334,152.0703 -8.3281,13.8808 -124.8829,102.1758 -16.2871,3.4297 -22.5664,-9.4023 c -0.6746,-0.2809 -1.4026,-0.4109 -2.1328,-0.3809 l -12,0.5 c -0.9988,0.042 -1.9621,0.382 -2.7656,0.9766 l -24.332,18.0058 -21.209,6.75 c -0.1726,0.055 -0.3421,0.1184 -0.5078,0.1914 l -30.5,13.5 c -1.3056,0.5776 -2.3021,1.6856 -2.7383,3.045 l -8.1797,25.5 -10.291,11.6347 -52.834,31.6016 c -0.3528,0.2111 -0.6782,0.465 -0.9688,0.7558 l -14.6386,14.6368 -37.8106,1.8906 -26.2324,-1.4844 c -0.8181,-0.046 -1.635,0.1094 -2.3789,0.4531 l -19.5,9 c -1.234,0.5694 -2.1832,1.6165 -2.6289,2.9004 l -8.2891,23.8965 -7.2109,10.8145 -15.9102,0.4297 c -0.6678,0.018 -1.3253,0.1692 -1.9336,0.4453 l -11,5 c -0.4637,0.211 -0.8925,0.4915 -1.2714,0.832 l -43.4981,39.0508 -7.3984,3.6972 L 3227,2237.5 l -20,8 -19.5,0.5 -14,-14 -17,-9.5 -14,9.5 -8.5,20.5 -12,18 -13.5,6.5 -12.5,-5.5 -43,-31 -18.5,-6 -18,-12 -8,-11.5 -11.5,-10.5 -24,0.5 -3.5,8.5 c 0,0 -12.5,41 -9.5,41 3,0 -18,5.5 -18,5.5 l -28.5,-7.5 -17,10.5 -11,24 -24.5,5 -10.5,-10 -18.5,-3.5 -35,19 -18,23 -40,6.5 -30,13.5 -21,0.5 -9.5,-8 -24.5,-2.5 -13,-5.5 -23,-17.5 -28,-4.5 -45,28 -48,16.5 h -60 l -12,10 -41.5,15.5 -20.5,-7 -34,-1.5 -33,-16 -19,-2.5 -33.5,10.5 -48,-1 -86.5,20.5 -17.5,11.5 -42.5,4.5 -44.5,-12 -24.5,-7 -33,2 -13.5,-6.5 -12,4.5 -14,1.5 -19.5,-7.5 -18,-12 -18,4.5 -13,-1.5 -14,-18 -9.925,-15.5212 3.6909,-15.4541 -7.7135,-5.317 -9.7454,-3.2456 -19.0258,7.3532 -18.6914,26.5625 c -0.2903,0.4124 -0.6412,0.7785 -1.041,1.0859 l -19.2578,14.8144 -33.2812,32.7852 c -0.4564,0.4492 -0.9948,0.8066 -1.586,1.0527 l -10.9609,4.5664 -21.7461,24.1641 c -0.082,0.091 -0.1679,0.1787 -0.2559,0.2637 l -48.5,46.5 c -0.3705,0.3549 -0.7934,0.6507 -1.2539,0.8769 l -30.5,15 c -0.6233,0.3069 -1.3038,0.4808 -1.998,0.5098 l -22.4629,0.9355 -16.2637,12.0821 c -0.3111,0.2309 -0.648,0.4249 -1.0039,0.5781 l -32.5,14 c -0.1192,0.052 -0.2404,0.099 -0.3633,0.1406 l -41.4687,14.1485 -27.707,26.248 c -0.3832,0.3636 -0.8216,0.6642 -1.2989,0.8906 l -19,9 c -0.8829,0.4177 -1.8687,0.5678 -2.8359,0.4317 l -27.9395,-3.9219 -14.2226,1.2187 -2.5293,4.7793 1.3652,15.0196 c 0.099,1.0874 -0.16,2.1774 -0.7383,3.1035 l -2.5,4 c -0.8334,1.3336 -2.2457,2.1974 -3.8125,2.332 l -17.3066,1.4824 -37.7227,6.2071 -7.8632,7.8633 -25.5,25.5 c -0.4615,0.4617 -1.0089,0.8286 -1.6114,1.08 l -47.2832,19.7012 -22.4062,18.9981 c -0.4173,0.3532 -0.8898,0.6356 -1.3985,0.8359 l -38,15 c -1.136,0.4489 -2.397,0.4662 -3.5449,0.049 l -10.2129,-3.7148 -27.5312,-0.4746 -31.9473,7.6289 -28.2129,19.9433 c -0.2585,0.1833 -0.5338,0.3415 -0.8222,0.4727 l -31.0645,14.0762 -9.1953,10.0703 -10.6621,26.6562 c -0.5859,1.4651 -1.829,2.5677 -3.3535,2.9746 l -22.5,6 c -0.6462,0.1722 -1.3203,0.2122 -1.9825,0.1192 l -23.9433,-3.3516 -20.5469,5.9356 -15.2383,11.9043 c -0.9845,0.7691 -2.2212,1.1419 -3.4668,1.0449 l -30.1718,-2.3574 -6.2286,4.5 -9.4843,27.5039 c -0.4873,1.4123 -1.5806,2.5328 -2.9805,3.0546 l -27.9824,10.4336 -9.1035,13.6543 c -0.4385,0.6583 -1.0268,1.2032 -1.7168,1.5899 l -12.5,7 c -0.4366,0.244 -0.9073,0.4211 -1.3965,0.5254 l -21,4.5 c -0.128,0.027 -0.257,0.05 -0.3867,0.068 l -29.0977,3.8789 -26.1973,14.0684 c -0.3997,0.2151 -0.8268,0.3746 -1.2695,0.4746 l -23.0566,5.1758 -21.9649,22.4433 c -0.4963,0.5069 -1.0949,0.9024 -1.7558,1.1602 l -18.834,7.3496 -15.125,26.9395 c -0.5357,0.9549 -1.3701,1.7076 -2.375,2.1425 l -17.7481,7.6739 -24.3906,21.9531 c -0.1646,0.1481 -0.3388,0.2852 -0.5215,0.4102 l -9.5,6.5 c -0.3612,0.2468 -0.7532,0.445 -1.166,0.5898 l -17.1309,6.0195 -12.0996,15.3575 c -0.07,0.089 -0.1427,0.1757 -0.2187,0.2597 l -51.9492,57.4434 -33.9493,39.9414 c -0.932,1.0967 -2.2914,1.7387 -3.7304,1.7617 l -9.0313,0.1465 c -0.5205,0.01 -1.0391,-0.065 -1.5371,-0.2168 l -41.6992,-12.6875 -29.9727,2.4883 -5.9062,3.6523 -19.9941,44.959 -10.4512,27.5039 c -0.2888,0.7588 -0.7581,1.4359 -1.3672,1.9727 l -23.877,21.0664 -26.5742,60.3086 c -0.3425,0.7777 -0.8776,1.4552 -1.5547,1.9687 l -22.8496,17.3242 -13.2715,14.8145 -61.2871,111.2871"
     id="path1062"
     sodipodi:nodetypes="cccccccccccccccccccccccccccccccccccccccccccccccccccccccccccccccccccccccccccccccccccccccccccccccccccccccccccccccccccccccccccccccccccccccccccccccccccccccccccccccccccccccccccccccccccccccccccccccccccccccccccccccccccccccccccccccccccccccccccccccccccccccccccccccc" />
  <path
     style="color:#000000;font-style:normal;font-variant:normal;font-weight:normal;font-stretch:normal;font-size:medium;line-height:normal;font-family:sans-serif;font-variant-ligatures:normal;font-variant-position:normal;font-variant-caps:normal;font-variant-numeric:normal;font-variant-alternates:normal;font-variant-east-asian:normal;font-feature-settings:normal;font-variation-settings:normal;text-indent:0;text-align:start;text-decoration:none;text-decoration-line:none;text-decoration-style:solid;text-decoration-color:#000000;letter-spacing:normal;word-spacing:normal;text-transform:none;writing-mode:lr-tb;direction:ltr;text-orientation:mixed;dominant-baseline:auto;baseline-shift:baseline;text-anchor:start;white-space:normal;shape-padding:0;shape-margin:0;inline-size:0;clip-rule:nonzero;display:inline;overflow:visible;visibility:visible;opacity:0.99918;isolation:auto;mix-blend-mode:normal;color-interpolation:sRGB;color-interpolation-filters:linearRGB;solid-color:#000000;solid-opacity:1;vector-effect:none;fill:none;fill-opacity:1;fill-rule:nonzero;stroke:#ff0000;stroke-width:10;stroke-linecap:butt;stroke-linejoin:round;stroke-miterlimit:4;stroke-dasharray:none;stroke-dashoffset:0;stroke-opacity:1;color-rendering:auto;image-rendering:auto;shape-rendering:auto;text-rendering:auto;enable-background:accumulate;stop-color:#000000;stop-opacity:1"
     d="m 3993.5625,1317.8691 10.5391,-2.8105 c 1.1477,-0.3063 2.1488,-1.0111 2.8242,-1.9883 l 11.7676,-17.0312 21.4687,-12.7735 c 0.7904,-0.4703 1.4358,-1.1495 1.8652,-1.9629 l 75.5899,-137.7734 120.5,-226 c 0.022,-0.041 0.044,-0.083 0.066,-0.125 l 27,-53 c 0.1048,-0.2064 0.1999,-0.4176 0.2852,-0.6328 l 16.5,-41.5 c 0.2472,-0.622 0.4101,-1.2743 0.4843,-1.9395 l 9.8184,-87.8613 24.9319,-41.2363 22.748,-29.6719 c 0.507,-0.6608 0.9,-1.4014 1.164,-2.1914 l 6,-18 c 0.293,-0.8784 0.42,-1.8035 0.377,-2.7285 l -2.928,-61.4864 40.479,-110.5781 c 0.148,-0.4042 0.261,-0.8205 0.338,-1.2441 l 7.5,-41.5 c 0.03,-0.1471 0.05,-0.2949 0.07,-0.4434 l 5.383,-45.0215 3.248,-8.1191 9.367,-12.1777 c 0.433,-0.5634 0.784,-1.1855 1.043,-1.8477 l 11.442,-29.3535 8.427,-19.1934 25.555,-27.4843 11.35,-11.4649"
     id="path1070"
     sodipodi:nodetypes="cccccccccccccccccccccccccccccccc" />
  <path
     style="color:#000000;font-style:normal;font-variant:normal;font-weight:normal;font-stretch:normal;font-size:medium;line-height:normal;font-family:sans-serif;font-variant-ligatures:normal;font-variant-position:normal;font-variant-caps:normal;font-variant-numeric:normal;font-variant-alternates:normal;font-variant-east-asian:normal;font-feature-settings:normal;font-variation-settings:normal;text-indent:0;text-align:start;text-decoration:none;text-decoration-line:none;text-decoration-style:solid;text-decoration-color:#000000;letter-spacing:normal;word-spacing:normal;text-transform:none;writing-mode:lr-tb;direction:ltr;text-orientation:mixed;dominant-baseline:auto;baseline-shift:baseline;text-anchor:start;white-space:normal;shape-padding:0;shape-margin:0;inline-size:0;clip-rule:nonzero;display:inline;overflow:visible;visibility:visible;opacity:0.99918;isolation:auto;mix-blend-mode:normal;color-interpolation:sRGB;color-interpolation-filters:linearRGB;solid-color:#000000;solid-opacity:1;vector-effect:none;fill:none;fill-opacity:1;fill-rule:nonzero;stroke:#ff0000;stroke-width:10;stroke-linecap:butt;stroke-linejoin:round;stroke-miterlimit:4;stroke-dasharray:none;stroke-dashoffset:0;stroke-opacity:1;color-rendering:auto;image-rendering:auto;shape-rendering:auto;text-rendering:auto;enable-background:accumulate;stop-color:#000000;stop-opacity:1"
     d="m 164.5511,3467.6797 c 0,0 -0.7538,2.7651 -1.0762,6.0625 -0.1612,1.6487 -0.2403,3.4646 0.025,5.3984 0.2657,1.9338 0.8188,4.1975 2.8301,6.1426 2.9334,2.8369 6.7867,3.2671 9.8359,3.0156 3.0492,-0.2514 5.7666,-1.1293 7.9238,-1.9023 5.0256,-1.8008 8.2428,-5.3817 10.9532,-8.3399 2.7104,-2.9582 4.9887,-5.3477 7.1914,-6.3925 2.8874,-1.3696 7.6929,-1.3637 13.1894,-1.4278 5.4965,-0.064 12.2117,-0.3565 17.3106,-5.3554 9.5108,-9.3245 11.0531,-22.1978 11.6465,-34.3789 0.5933,-12.1812 0.4058,-24.2074 4.0605,-33.2579 10.3531,-25.6388 20.4639,-53.7008 41.2676,-67.9902 0.6556,-0.4503 2.2302,-0.7187 4.9355,-0.7519 2.7054,-0.033 6.3983,0.206 10.2364,-1.8614 5.5884,-3.0102 9.2783,-7.6173 12.5195,-11.8398 3.2412,-4.2225 6.1019,-8.1244 9.334,-10.625 7.632,-5.9049 15.1505,-11.7052 22.8672,-13.0996 5.1758,-0.9353 10.9083,0.3593 17.3496,2.1992 6.4412,1.8399 13.4841,4.215 21.2773,4.0039 27.5201,-0.7455 51.4366,-15.977 75.0645,-15.9063 5.0293,0.015 11.753,3.3936 18.9394,6.5801 3.5932,1.5933 7.3385,3.096 11.4004,3.7168 4.0619,0.6209 8.6007,0.2116 12.6914,-2.1367 5.2299,-3.0022 8.5654,-7.7077 10.5196,-12.7051 1.9541,-4.9974 2.7381,-10.3543 3.3183,-15.6797 1.1603,-10.6507 1.7229,-21.198 5.6172,-27.7168 2.4649,-4.1261 6.6266,-7.69 11.293,-11.58 4.6664,-3.8901 9.8433,-8.1143 13.3925,-14.2715 5.9241,-10.277 7.3234,-21.7853 8.9239,-32.4571 1.6004,-10.6717 3.3815,-20.445 8.5332,-27.9589 45.5868,-66.4906 120.5075,-111.6534 193.9179,-147.7618 590.1202,-290.2619 1276.0925,-324.6025 1908.5586,-512.6953 182.5586,-54.2921 542.586,-177.1914 542.586,-177.1914 40.2858,-14.546 51.3589,22.3808 78.6985,23.2453 0,0 103.58,10.9713 154.8711,4.8969 147.009,-17.4103 307.9022,-31.2386 428.3293,-117.332 74.0913,-52.9679 86.4166,-164.4644 153.5684,-225.9928 7.5655,-6.932 18.9138,-8.5385 26.8732,-15.0144 5.2906,-4.3045 6.8471,-13.5835 13.4046,-15.4594 6.5503,-1.8738 19.531,6.0249 19.531,6.0249 4.4878,1.3844 -3.2079,-9.9922 11.7681,-9.1957 -6.3983,-0.4656 -6.8246,-2.4453 -7.6569,-4.6846 0,0 -3.9464,-13.2896 -7.1952,-19.3592 -4.0552,-7.576 -13.105,-12.5228 -15.1267,-20.8746 -4.7965,-19.8144 3.7678,-40.8226 9.265,-60.4541 9.8757,-35.2676 29.1957,-67.2085 42.1766,-101.4551 4.8919,-12.9058 13.4182,-25.3609 13.4422,-39.1627 0.037,-21.4902 -13.2554,-40.8982 -20.7179,-61.0512 -20.2384,-54.655 -39.4821,-109.933 -65.1976,-162.2347 -7.338,-14.9244 -18.7128,-27.7311 -25.3003,-43.0016 -5.8459,-13.5514 -11.0362,-27.8181 -12.3515,-42.5179 -0.96,-10.7284 5.2937,-21.5417 3.3622,-32.1384 -1.881,-10.3196 -7.548,-19.9436 -14.1067,-28.1298 -3.1713,-3.9582 -8.9416,-5.424 -11.7863,-9.6231 -1.8197,-2.686 -3.5781,-6.1075 -2.9208,-9.2846 0.7898,-3.8175 7.6479,-8.8477 7.6479,-8.8477"
     id="path1084"
     sodipodi:nodetypes="csssssssssssssssssssssssssssssssscssssssscssssssssssssssc" />
  <path
     style="color:#000000;font-style:normal;font-variant:normal;font-weight:normal;font-stretch:normal;font-size:medium;line-height:normal;font-family:sans-serif;font-variant-ligatures:normal;font-variant-position:normal;font-variant-caps:normal;font-variant-numeric:normal;font-variant-alternates:normal;font-variant-east-asian:normal;font-feature-settings:normal;font-variation-settings:normal;text-indent:0;text-align:start;text-decoration:none;text-decoration-line:none;text-decoration-style:solid;text-decoration-color:#000000;letter-spacing:normal;word-spacing:normal;text-transform:none;writing-mode:lr-tb;direction:ltr;text-orientation:mixed;dominant-baseline:auto;baseline-shift:baseline;text-anchor:start;white-space:normal;shape-padding:0;shape-margin:0;inline-size:0;clip-rule:nonzero;display:inline;overflow:visible;visibility:visible;opacity:0.99918;isolation:auto;mix-blend-mode:normal;color-interpolation:sRGB;color-interpolation-filters:linearRGB;solid-color:#000000;solid-opacity:1;vector-effect:none;fill:none;fill-opacity:1;fill-rule:nonzero;stroke:#0000ff;stroke-width:10;stroke-linecap:butt;stroke-linejoin:round;stroke-miterlimit:4;stroke-dasharray:none;stroke-dashoffset:0;stroke-opacity:1;color-rendering:auto;image-rendering:auto;shape-rendering:auto;text-rendering:auto;enable-background:accumulate;stop-color:#000000;stop-opacity:1"
     d="m 174.2093,3470.2734 c 0,0 -0.5562,2.1194 -0.7832,4.4414 -0.114,1.1611 -0.12,2.3383 -0.02,3.0645 0.028,0.2041 0.055,0.2398 0.088,0.3418 0.154,0.1046 0.4983,0.3224 1.8497,0.2109 1.507,-0.1242 3.5769,-0.706 5.373,-1.3496 2.1596,-0.7738 4.3404,-2.8281 6.9531,-5.6797 2.6127,-2.8515 5.5839,-6.4475 10.2774,-8.6738 6.0642,-2.8765 12.2925,-2.3316 17.3613,-2.3906 5.0688,-0.059 8.45,-0.561 10.4258,-2.4981 6.5627,-6.434 8.0916,-16.094 8.6582,-27.7246 0.5665,-11.6305 0,-24.6938 4.7773,-36.5156 10.2141,-25.2944 20.4035,-55.6783 44.877,-72.4883 3.7125,-2.5498 7.6221,-2.4728 10.4746,-2.5078 2.8525,-0.035 4.7896,-0.2202 5.6172,-0.666 3.374,-1.8174 6.2408,-5.105 9.3281,-9.127 3.0873,-4.0219 6.329,-8.7146 11.1484,-12.4433 7.5102,-5.8106 16.0838,-13.0213 27.2071,-15.0313 7.8973,-1.4271 15.2139,0.5212 21.875,2.4239 6.661,1.9027 12.773,3.7716 18.2597,3.623 23.7137,-0.6423 47.7407,-15.9932 75.3653,-15.9102 8.7962,0.026 16.3398,4.5008 22.9629,7.4375 3.3115,1.4684 6.3567,2.5924 8.8574,2.9747 2.5007,0.3822 4.2986,0.1694 6.2031,-0.9239 3.0274,-1.7378 4.8055,-4.1496 6.1836,-7.6738 1.378,-3.5242 2.1435,-8.0921 2.6914,-13.1211 1.0958,-10.0579 1.103,-21.935 6.9746,-31.7637 3.6326,-6.0806 8.8247,-10.2581 13.4727,-14.1328 4.648,-3.8747 8.7444,-7.4406 11.1328,-11.584 4.6073,-7.9927 6.0796,-18.1609 7.6972,-28.9472 1.6177,-10.7863 3.4029,-22.2524 10.1758,-32.1309 47.2742,-68.9516 123.8048,-114.7057 197.752,-151.0781 592.5906,-291.4771 1279.2353,-325.6852 1910.123,-513.3086 182.049,-54.1406 542.2051,-177.0684 542.2051,-177.0684 32.0757,-9.3087 29.6551,-29.72 44.4826,-44.58"
     id="path1080"
     sodipodi:nodetypes="csscssssssscssssssssssssssssssssscc" />
  <path
     style="opacity:0.99918;fill:none;stroke:#ff6600;stroke-width:10;stroke-linejoin:round;stroke-miterlimit:4;stroke-dasharray:none"
     d="m 2985.032,2042.502 c 0,0 -11.8425,8.6539 -14.9383,14.9933 -3.1377,6.4251 -2.4026,14.1384 -2.6745,21.2835 -0.2945,7.7392 1.4974,15.4702 1.1365,23.2066 -0.4865,10.4299 -4.7996,20.5729 -4.4379,31.0079 0.5841,16.8517 7.8753,32.8213 10.6169,49.4587 3.4099,20.693 6.6143,41.5362 7.231,62.4992 1.0191,34.6406 5.0487,70.9067 -5.8567,103.8018 -15.1797,45.7881 -45.3327,86.9686 -79.7763,120.7416 -30.0806,29.4949 -80.0803,35.0107 -106.7963,67.5843 -4.8325,5.8921 -7.3109,13.7694 -8.2085,21.3367 -1.6179,13.6392 8.229,27.4131 5.3873,40.8508 -4.8704,23.0312 -19.1013,44.7481 -36.7879,60.2833 -22.9675,20.1736 -53.263,35.675 -83.7903,37.2761 -12.1162,0.6355 -22.5162,-10.4154 -34.6214,-11.2348 -7.032,-0.476 -15.2185,-0.537 -20.8079,3.7564 -5.5073,4.2303 -3.1833,14.8577 -8.8623,18.8545 C 2596.685,2711.8338 2583,2710 2583,2710"
     id="path1100"
     sodipodi:nodetypes="cssssssssssssssssc" />
  <text
     xml:space="preserve"
     style="font-style:normal;font-weight:normal;font-size:192px;line-height:25px;font-family:Sans;-inkscape-font-specification:Sans;text-align:start;letter-spacing:0px;word-spacing:0px;text-anchor:start;fill:#008000;fill-opacity:1;stroke:none;stroke-width:1px;stroke-linecap:butt;stroke-linejoin:miter;stroke-opacity:1"
     x="1698.6826"
     y="1011.5455"
     id="text1156"><tspan
       sodipodi:role="line"
       id="tspan1154"
       x="1698.6826"
       y="1011.5455">1848</tspan></text>
  <text
     xml:space="preserve"
     style="font-style:normal;font-weight:normal;font-size:192px;line-height:25px;font-family:Sans;-inkscape-font-specification:Sans;text-align:start;letter-spacing:0px;word-spacing:0px;text-anchor:start;fill:#ff6600;fill-opacity:1;stroke:none;stroke-width:1px;stroke-linecap:butt;stroke-linejoin:miter;stroke-opacity:1"
     x="2747.9502"
     y="1372.6731"
     id="text1156-3"><tspan
       sodipodi:role="line"
       id="tspan1154-6"
       x="2747.9502"
       y="1372.6731">1845</tspan></text>
  <text
     xml:space="preserve"
     style="font-style:normal;font-weight:normal;font-size:192px;line-height:25px;font-family:Sans;-inkscape-font-specification:Sans;text-align:start;letter-spacing:0px;word-spacing:0px;text-anchor:start;fill:#0000ff;fill-opacity:1;stroke:none;stroke-width:1px;stroke-linecap:butt;stroke-linejoin:miter;stroke-opacity:1"
     x="3335.1709"
     y="1837.9121"
     id="text1156-7"><tspan
       sodipodi:role="line"
       id="tspan1154-5"
       x="3335.1709"
       y="1837.9121">1837</tspan></text>
  <text
     xml:space="preserve"
     style="font-style:normal;font-weight:normal;font-size:192px;line-height:25px;font-family:Sans;-inkscape-font-specification:Sans;text-align:start;letter-spacing:0px;word-spacing:0px;text-anchor:start;fill:#ff0000;fill-opacity:1;stroke:none;stroke-width:1px;stroke-linecap:butt;stroke-linejoin:miter;stroke-opacity:1"
     x="3806.3037"
     y="2429.2661"
     id="text1156-9"><tspan
       sodipodi:role="line"
       id="tspan1154-1"
       x="3806.3037"
       y="2429.2661">1835</tspan></text>
  <text
     xml:space="preserve"
     style="font-style:normal;font-weight:normal;font-size:192px;line-height:25px;font-family:Sans;-inkscape-font-specification:Sans;text-align:start;letter-spacing:0px;word-spacing:0px;text-anchor:start;fill:#000000;fill-opacity:1;stroke:none;stroke-width:1px;stroke-linecap:butt;stroke-linejoin:miter;stroke-opacity:1"
     x="2191.3745"
     y="2268.2468"
     id="text1156-2"><tspan
       sodipodi:role="line"
       id="tspan1154-7"
       x="2191.3745"
       y="2268.2468">1889</tspan></text>
</svg>
