<?xml version="1.0" encoding="UTF-8" standalone="no"?>
<svg
   viewBox="0 0 1900 3200"
   height="3200"
   width="1900"
   id="svg2"
   version="1.1"
   xml:space="preserve"
   xmlns:xlink="http://www.w3.org/1999/xlink"
   xmlns="http://www.w3.org/2000/svg"
   xmlns:svg="http://www.w3.org/2000/svg"
   xmlns:rdf="http://www.w3.org/1999/02/22-rdf-syntax-ns#"
   xmlns:cc="http://creativecommons.org/ns#"
   xmlns:dc="http://purl.org/dc/elements/1.1/"><metadata
     id="metadata8"><rdf:RDF><cc:Work
         rdf:about=""><dc:format>image/svg+xml</dc:format><dc:type
           rdf:resource="http://purl.org/dc/dcmitype/StillImage" /></cc:Work></rdf:RDF></metadata><defs
     id="defs6" /><image
     xlink:href="../../timelines/basemap/sfoosm.png"
     width="8704"
     height="11520"
     preserveAspectRatio="none"
     id="image10"
     x="0"
     y="-3520"
     style="opacity:0.6" /><image
     width="2815"
     height="3997.59"
     preserveAspectRatio="none"
     style="display:none;image-rendering:optimizeSpeed"
     xlink:href="basemap/opportunitytraverse.png"
     id="image3023"
     x="-412.18"
     y="-421.7" /><image
     xlink:href="basemap/Opportunity-Route-Map-Sol-4752_Ken-Kremer.jpg"
     y="-30.76"
     x="55.07"
     id="image863"
     preserveAspectRatio="none"
     height="4326.09"
     width="8503"
     style="display:none;opacity:0.5" /><path
     id="path866"
     d="m 403.41,136.19 37.21,-7.01 31.47,5.61 21.39,17.98 17.06,7.72 -16.3,-0.48 1.99,24.75 -11.27,28.2 -0.1,24.65 -6.31,3.72 -3.24,52.15 -8.98,-1.14 21.16,34.47 -7.44,38.21 -6.45,105.58 3.62,39.94 -8.7,21.84 -2.05,40.6 3.9,3.83 1.32,35.64 8.25,4.94 -6.29,15.87 -12.89,-1.01 -3.04,-5.13 -7.51,0.53 -4.45,19.22 1.47,18.38 9.1,35.17 -0.85,7.76 6.66,39.36 18.65,21.49 3.75,22.68 10.3,9.15 5.61,79.77 9.63,-5.88 -0.63,11.46 30.45,41.15 14.57,1.42 10.16,-17.08 0.16,-10.39 20.28,-4.03 7.86,0.76 4.48,-4.23 19.4,0.33 2.14,6.53 -2.14,-6.53 -19.4,-0.33 -38.78,0.59 -1.4,17.28 -9.24,22.66 0.04,19.36 11.04,12.37 7.45,16.46 7.73,-0.63 -3.5,6.58 -26.12,13.76 -15.55,22.83 0.37,17.14 -6.95,17.06 -17.38,20.85 -1.21,13.67 9.73,8.85 -12.93,20.64 -6.12,4.08 3.62,5.79 -7.15,23.95 -11.47,6.97 3.32,49.51 -3.52,18.34 -8.93,1.79 -1.39,9.95 5.09,25.97 -1.77,7.19 -12.46,7.12 -9.29,53.7 -4.34,8.06 0.87,9.28 -0,80.62 -10.26,-2.94 -0.37,7.96 -8.68,-9.55 -16.16,-4.35 -36.89,9.13 -18.33,12.37 -7.68,-4.98 -16.97,9.43 -3.53,4.73 -8.41,2.66 -1.56,18.57 -1,11.02 3.65,20.67 -2.73,8.07 4.7,14.91 5.37,2.62 -0.51,23.76 8.07,16.89 -10.39,0.19 -9.49,7.54 -3.1,10.69 -0.12,15.29 -6.68,4.48 0.79,34.51 9.16,7.88 0.08,16.03 5.45,-0.38 -1.45,9.08 4.34,10.42 1.13,26.83 7.99,2.53 0.97,5.99 35.65,-0.35 17.14,9.34 5.92,-6.5 23.2,-0.14 27.78,8.78 43.61,24.3 19.47,3 3.45,9.1 41.6,-3.57 45.73,16.56 28.65,17.19 31.76,-0.91 8.93,3.69 9.98,-9.2 33.64,-9.38 34.56,-3.45 18.93,8.64 14.92,1.4 13.83,7.71 17.01,19.06 18.18,1.63 20.73,6.66 73.19,2.96 13.25,3.23 14.85,-0.46 25.53,3.55 24.22,-1.52 6.58,10.28 9.09,1.82 3.99,-8.84 10.63,0.86 -1.8,12.65 6.38,11.16 51.34,8.96 42,36.65 35.64,20.65 6.57,6.83 41.02,28.21 3.09,4.85 67.58,11.85 29.83,21.95 22.7,4.35 9.57,5.73 19.22,5.85 13.05,8.94 20.08,1.02 12.87,-2.94 3.54,8.96 10.61,11.12 9.94,28.38 22.6,18.61 18.75,20.45 3.44,11.72 5.59,9.8 23.54,21.71 37.74,28.22 8.52,9.62 12.51,7.07 14.57,4.37 21.87,13.13 13.58,14.14 4.57,16.25 6.98,8.61 12.67,9.17 3.09,9.2 7.1,7.51 -1.55,14.61 8.97,15.24 1.12,8.99 5.58,4.54 10.22,3.17 0.04,-8.75 3.9,-9.76 6.09,-14 7.03,-8.12 5.12,6.9 -1.15,-15.33 -8.33,-12.67 2.78,-8.12 11.1,-4.8 9.44,-15.1 3.66,9.74 5.55,-0.75 1.56,7.03 -7.87,17.72 -3.93,20.68 -10.18,11.1 -6.67,13.77 -5.45,0.19 -1.05,13.74 -21.52,18.08 -5.66,9.65 -1.57,7.21 -3.86,5.89 -2.59,10.93 -7.67,6.32 -2.72,7.35 1.64,5.95 7.11,0.78 2.39,33.67 19.68,70.38 27.3,15.33 2.11,7.71 -8.98,17.68 -5.68,-4.35 -5.48,-0.35 -6.53,5.36 3.96,8.63 -7.26,11.19 -3.24,20.49 1.36,16.76 -6.85,5.8 -5.73,17.73 9.53,12.55 6.05,1.56 -3.23,14.38 -0.47,18.85 3.8,25.76 8.49,26.37 -2.96,8.52 5.05,17.09 4.85,8.78 -2.97,18.62 -5.94,0.89 -3.71,6.07 -6.5,2.32 3.71,15.32 7.67,12.84 -0.67,9.48 2.99,9.41 -2.83,6.07 5.38,8.48 2.44,10.82 9.63,18.46 2.68,29.33 4.07,0.66 1.14,7.49 -4.8,3.11 -0.99,9.68 7.61,-5.99 9.69,-12.48 13.35,13.59 19.12,-2.75 -2.84,4.93 2.97,5.14 -8.89,8.46 -19.75,4.18 -0.8,6.54 -4.73,6.32 -4.31,-0.05 4.47,11.62 3.42,29.96 3.27,7.59 4.81,28.39 7.57,5.91 -1,7.43 4.4,0.87 7.75,-12.81"
     style="opacity:1;fill:none;fill-opacity:1;fill-rule:nonzero;stroke:#000000;stroke-width:5;stroke-linecap:butt;stroke-linejoin:round;stroke-miterlimit:4;stroke-dasharray:none;stroke-opacity:1" /></svg>
