<?xml version="1.0" encoding="UTF-8" standalone="no"?>
<svg
   xmlns:dc="http://purl.org/dc/elements/1.1/"
   xmlns:cc="http://creativecommons.org/ns#"
   xmlns:rdf="http://www.w3.org/1999/02/22-rdf-syntax-ns#"
   xmlns:svg="http://www.w3.org/2000/svg"
   xmlns="http://www.w3.org/2000/svg"
   xmlns:xlink="http://www.w3.org/1999/xlink"
   id="svg2"
   viewBox="-600, 100, 5050, 4550"
   height="4550"
   width="5050"
   version="1.1">
  <metadata
     id="metadata26">
    <rdf:RDF>
      <cc:Work
         rdf:about="">
        <dc:format>image/svg+xml</dc:format>
        <dc:type
           rdf:resource="http://purl.org/dc/dcmitype/StillImage" />
        <dc:title></dc:title>
      </cc:Work>
    </rdf:RDF>
  </metadata>
  <defs
     id="defs6" />
  <image
     xlink:href="../streetmap/phlosm.png"
     id="image12"
     height="4656.71"
     width="4398"
     y="0"
     x="0"
     style="display:none" />
  <path
     style="fill:none;stroke:#c40d3c;stroke-width:5;stroke-linecap:butt;stroke-linejoin:round;stroke-miterlimit:4;stroke-opacity:1;stroke-dasharray:none"
     id="path3638"
     d="m 2339,2766.71 149,23.5 7.5,-4.25 9.75,-54.75 10.5,-57.75 4.85,-23.36 3.85,-3.76 6.98,-1.37 18.67,4.08 24.15,16.15 62.75,14" />
  <path
     style="fill:none;stroke:#c40d3c;stroke-width:5;stroke-linecap:butt;stroke-linejoin:round;stroke-miterlimit:4;stroke-opacity:1;stroke-dasharray:none"
     id="path3003"
     d="m 2574.45,2664.99 -27.9,2.62 -19.18,-3.49 -3.92,1.53 -5.67,4.36" />
  <path
     style="fill:none;stroke:#ff6600;stroke-width:5;stroke-linecap:butt;stroke-linejoin:round;stroke-miterlimit:4;stroke-opacity:1;stroke-dasharray:none"
     id="path3634"
     d="m 2312.27,3144.34 47.23,-278.63 22.27,-131.88 -5.6,-16.39 3.99,-23.35 10.44,-16.95 8.4,-50.43 208.5,-1252 5,-25.5 7,-4.5 8,-2 36,5 9,-4.5 17,-11 26.5,4 3.75,8 -3.25,25.75 -6.75,5.75 -29.25,-3.75 -10.25,-16.25 -9.5,-8.75" />
  <path
     style="fill:none;stroke:#ff6600;stroke-width:5;stroke-linecap:butt;stroke-linejoin:round;stroke-miterlimit:4;stroke-opacity:1;stroke-dasharray:none"
     id="path3636"
     d="m 2424,2484.21 4,16 80.5,157.5 3.5,9.5 -10,54.5 -10.25,62.0 -3.75,2.5 -148,-24.25" />
  <path
     style="fill:none;stroke:#73bc25;stroke-width:5;stroke-linecap:butt;stroke-linejoin:round;stroke-miterlimit:4;stroke-opacity:1;stroke-dasharray:none"
     id="path3644"
     d="m 1912.02,2748.58 7.78,3.18 34.65,-8.84 39.6,-14.14 16.97,-8.84 4.24,-5.66 8.13,-49.14 6.36,-2.47 49.14,6.72 11.67,-6.01 46.32,7.78 202.59,32.17 29.67,5.04 5.27,10.29 17.15,2.58 4.14,-2.4 2.83,-19.18 -1.96,-4.36 -16.79,-3.27 -13.73,13.73" />
  <path
     style="fill:none;stroke:#009adf;stroke-width:5;stroke-linecap:butt;stroke-linejoin:round;stroke-miterlimit:4;stroke-opacity:1;stroke-dasharray:none"
     id="path2860"
     d="m 1252.26,2552.56 16.74,2.65 5,-2.5 21.5,-19.5 12.5,-9.5 8.5,-2.5 8.5,-0.5 15,3 16.5,2 9.5,5.5 11,10.5 14,5 29,6.5 382.5,60.5 15,-0.5 18.5,0 11,-0.5 12,6 21.5,6 490,79 88,14.5 90.5,16 72,13 9.99,2.13 8.01,-7.13 21,-90 35.5,-142.5 10,-45.5 23,-94.5 5,-20 25.5,-159 4.5,-6.5 488.5,-351.5 7,-7 15.5,-32.5 126,-178" />
  <path
     style="fill:none;stroke:#c40d3c;stroke-width:5;stroke-linecap:butt;stroke-linejoin:round;stroke-miterlimit:4;stroke-opacity:1;stroke-dasharray:none"
     id="path3640"
     d="m 2634,2678.71 176.79,40.59 61.12,14.79 12.73,8.84 13.08,14.85 2.47,8.13 -16.26,65.05 1.06,6.36 17.32,13.44 3.68,3" />
  <path
     style="fill:none;stroke:#5d279e;stroke-width:5;stroke-linecap:butt;stroke-linejoin:round;stroke-miterlimit:4;stroke-opacity:1;stroke-dasharray:none"
     id="path3642"
     d="m 1263.25,2548.47 -10.96,-1.41 -6.72,-1.77 -21.92,-18.74 -14.85,-6.72 -23.69,-5.66 -14.11,-7.47 -102.5,-57 -11,-10 -75.5,-92.5 -7.5,-17 -3.5,-19.5 -2,-46.5 -12,-22.5 -11.5,-18 -9,-10.5 -12,-8.5 -37.5,-14.5 -8,-6.5 -7,-7 -32,-55 -8.5,-11 -11.5,-14 -23,-20 -13,-11 -32,-22.5 -38,-21.5 -23.5,-15.5 -18,-19.5 -12.5,-24.5 -8,-26 -57,-121.5 -15,-19 -27,-27 -21.5,-24 -31.5,-50 -7,-7.5 -12,-7.5 -23.5,-4.5 -16.5,-8.5 -26.5,-29.5 -27.5,-38 -90.5,-129.5 -12.5,-10 -15.5,-5 -82.5,-15.5 -9.5,-3.5 -9,-10 -4,-12 -17,-97 5,-16.5 10.5,-16.5 21.5,-13 13.5,-9 7,-11 21,-50.5 10.5,-13 13,-12 46.5,-26 12,-13 7,-20.5 2.5,-64 -3.5,-15 -31.5,-69.5 0.5,-20 6.5,-22.5 0.5,-13.5 -16,-43 -10,-25.5 -26.5,-56.5 -46.5,-81.5 -25,-50 -8.5,-27.5 -1,-25.5 12,-153 3,-15.5 9,-14 14.5,-18.5 29.5,-59.5 4,-16.5 2.5,-24 4.5,-46 14,-26" />
  <path
     style="fill:none;stroke:#73bc25;stroke-width:5;stroke-linecap:butt;stroke-linejoin:round;stroke-miterlimit:4;stroke-opacity:1;stroke-dasharray:none"
     id="path3646"
     d="m 1914.85,2757.42 6.01,-6.01" />
  <path
     style="fill:none;stroke:#73bc25;stroke-width:5;stroke-linecap:butt;stroke-linejoin:round;stroke-miterlimit:4;stroke-opacity:1;stroke-dasharray:none"
     id="path3648"
     d="m 2030.46,2662.31 -5.3,-4.95" />
  <path
     style="fill:none;stroke:#73bc25;stroke-width:1px;stroke-linecap:butt;stroke-linejoin:round;stroke-opacity:1"
     id="path3650"
     d="m 2026,2657.21 -1,-5 5.5,-35.5 -1.5,-5 -69,-47 -50,-37 -172,-137 -19.5,-16.5 -82.5,-50 -210.5,31 -6,-5 -17,-122 12,-7.5" />
  <path
     style="fill:none;stroke:#73bc25;stroke-width:1px;stroke-linecap:butt;stroke-linejoin:round;stroke-opacity:1"
     id="path3652"
     d="m 1913,2748.21 -4.5,-2 -45,1.5 -30.5,7 -21.5,4.5 -142,19.5 -85,-1 -63,21 -35.5,7.5 -77,37" />
  <path
     style="fill:none;stroke:#73bc25;stroke-width:1px;stroke-linecap:butt;stroke-linejoin:round;stroke-opacity:1"
     id="path3654"
     d="m 1916,2757.21 -8.5,5.5 -11.5,5.5 -35,41 -30.5,33.5 -21.5,42.5 -397,363.5 -21,11.5 -21.5,0.5 -91,-28 -10.5,-1.5 -19.5,3 -24.5,-6" />
  <path
     style="fill:none;stroke:#73bc25;stroke-width:1px;stroke-linecap:butt;stroke-linejoin:round;stroke-opacity:1"
     id="path3656"
     d="m 1810.5,2882.71 1,6 23,25 0.5,9 -40.5,36.5 -35.5,67 -96,87.5 -215,197.5 0,8.5 25.5,98 17.5,77" />
  <path
     style="fill:none;stroke:#73bc25;stroke-width:1px;stroke-linecap:butt;stroke-linejoin:round;stroke-opacity:1"
     id="path3658"
     d="m 1897,2767.71 -64.5,2 -244.5,225 -1,3 11.5,13 0.5,4.5 -60,55.5 -17.5,14.5 -15.5,-16.5 -6,5.5 -63,-16.5 -5.5,1.5 -2.5,4.5 -9.5,38.5 -4,4 -73,27.5 -4.2,2.53" />
  <path
     style="fill:none;stroke:#73bc25;stroke-width:1px;stroke-linecap:butt;stroke-linejoin:round;stroke-opacity:1"
     id="path3656-4"
     d="m 1491,3494.71 2.5,30.5 -176.17,251.14" />
  <text
     style="font-size:144px;font-style:normal;font-weight:normal;fill:#000000;fill-opacity:1;stroke:none;font-family:Sans;-inkscape-font-specification:Sans"
     xml:space="preserve"
     id="text2828"
     y="4547.96"
     x="-510.55"><tspan
       id="tspan2"
       y="4547.96"
       x="-510.55">1960</tspan></text>
  <text
     style="font-size:144.0px;font-style:normal;font-weight:normal;fill:#000000;fill-opacity:1;stroke:none;font-family:Sans;-inkscape-font-specification:Sans"
     xml:space="preserve"
     id="text2828-6"
     y="306.96"
     x="-510.55"><tspan
       id="tspan1"
       y="306.96"
       x="-510.55">1960</tspan></text>
  <path
     style="fill:none;stroke:#45657a;stroke-width:5;stroke-linecap:butt;stroke-linejoin:round;stroke-miterlimit:4;stroke-dasharray:none;stroke-opacity:1"
     id="path3660"
     d="m 2497.75,2092.21 29.75,59.5 20,61 5.5,19 -1.5,28.5 -6,66 -2.5,39 -14.5,100 -3.5,44 -12.82,44.97 -13.16,27.1 -17.88,13.3 -12.64,9.81 -9.59,10.03 -2.4,6.32 -15.26,88.29" />
</svg>
