<svg xmlns="http://www.w3.org/2000/svg" height="7400" width="10800" viewBox="0, 0, 10800, 7400"><path d="M4305.7 4070.9l-43.5-15-17-15.5-16-25-14.5-26.5-26-21-25.5-9-32.5-.5-40.5 3-23.5 1.5-38.5-10.5-72-21.5-39-4-154-12.5-50-5-36.5-13.5-65.5-32.5-28.5-3-110 1.5-52-21.5-124-59-38-19.5-25.5-26.5-20-32-9.5-27.5-15-64v-63l-17-41-37.5-46.5-27.5-30-32.5-27.5-14-23.5-60.5-52.5-37-34.5-18-22.5-34-80-24-41-23-21-46.5-37.5-38-17.5-11.5-9-13-26.5v-27.5l11.5-21.5 23.5-21.5 31.8-28.4 28-21.5 10-15 5.5-20-.5-17.5-12-20-15-14.5-20-11.5-12-16-5-16-.5-18 7-38 1-13.5-3.5-21.5-6.5-22-9-22.5-12-11-26.5-16.5-9.5-12-7.5-23-8-63.5 3-17.5 21-56.5 5.5-17 2.5-28 20-32 6.5-15.5.5-20-19-53.5-1-15.5 3-30-2-19-10.5-21-40.5-48-31-18.5-18.5-24.5-31.5-50.5-10-36.5-10.5-15.5-25-26.5-6.5-15.5 1-77 5.5-19.5 16-35 19-26.5 3.5-25-4.5-20.5-7-19.5 3.5-106.5-2.5-15.5-7-29 2-23.5 5.5-22.5 12.5-23 20-22 59.5-55 23-40 13.5-15 27-19 10.5-11.5 11.5-24 42-120 21-71.5 8.5-45.5 47-84.5 19-17 69.5-37 15-15.5 41-92.5 23-95 7-15.5 23.5-22 11-19.5 1-16.5-4-19.5-12.5-19-67-50-31-46-36.5-26-38.5-65.5-32.5-22.5-17.5-25-11-39.5-66-139-4-17-2-47.5" fill="none" stroke="#a2316d" stroke-width="5" stroke-linejoin="round"/><path d="M4304.95 4072.9l90.5 27.75 72.25 19.25 32.5 16.5 36 34 49.5 77 57.5 90.5 45 81 36 82 38.5 86.5 100.5 232 9 26.5 16 25 91.5 116.5 140.5 184.5 30 22 62.5 24 123 45 161 64.5 28.5 23.5 20.5 30.5 67 119 104.5 192 89 161.5 31.5 37 36 23 118.5 39.5 185 48.5 22.5 4h16.5l22.5-4 184-55h24.5l27.5 7.5 38 13.5 83 40 37 21.5 48.5 35 78.55 56.004" fill="none" stroke="#008192" stroke-width="5" stroke-linejoin="round"/><text style="line-height:125%;-inkscape-font-specification:Sans" y="206.961" x="89.453" font-weight="400" font-size="144" font-family="Sans" letter-spacing="0" word-spacing="0"><tspan y="206.961" x="89.453">1960</tspan></text><text style="line-height:125%;-inkscape-font-specification:Sans" y="7297.961" x="89.453" font-weight="400" font-size="144" font-family="Sans" letter-spacing="0" word-spacing="0"/></svg>