<?xml version="1.0" encoding="UTF-8" standalone="no"?>
<svg
   xmlns:dc="http://purl.org/dc/elements/1.1/"
   xmlns:cc="http://creativecommons.org/ns#"
   xmlns:rdf="http://www.w3.org/1999/02/22-rdf-syntax-ns#"
   xmlns:svg="http://www.w3.org/2000/svg"
   xmlns="http://www.w3.org/2000/svg"
   xmlns:xlink="http://www.w3.org/1999/xlink"
   id="svg2"
   viewBox="100, -1500, 4100, 4350"
   height="4350"
   width="4100"
   version="1.1">
  <metadata
     id="metadata8">
    <rdf:RDF>
      <cc:Work
         rdf:about="">
        <dc:format>image/svg+xml</dc:format>
        <dc:type
           rdf:resource="http://purl.org/dc/dcmitype/StillImage" />
        <dc:title></dc:title>
      </cc:Work>
    </rdf:RDF>
  </metadata>
  <defs
     id="defs6" />
  <image
     xlink:href="../../timelines/basemap/pitosm.png"
     id="image10"
     height="2816"
     width="2816"
     y="34"
     x="0"
     style="display:none" />
  <path
     id="path818"
     d="m 2557.52,239.26 -26.42,47.93 2.64,33.96 -20.38,72.08 -15.1,9.43 -88.31,23.02 -230.2,0.38 -26.04,-4.53 -40.76,-22.64 -30.19,-24.53 -59.63,-39.63 -56.61,-10.19 -58.49,3.02 -80.76,27.55 -99.63,95.1 -29.44,6.42 -26.79,-7.55 -56.23,-22.27 -219.26,-12.45 -45.29,17.74 -90.19,-41.13 -14.87,-5.07 -17.35,-16.54 -7.47,-16.54 -25.35,-108.61 -16.28,-30.42 -32.02,-24.28 -109.94,-78.72 -35.49,-25.08 -54.44,-30.95 -21.08,-27.49 -33.62,-60.31 -23.75,-61.38 -61.91,-103.0 -34.96,-42.43 -66.18,-52.04 -106.74,-96.6 -20.55,-27.22 -23.48,-23.22 -45.1,-31.76 -30.69,-36.29 -44.56,-37.36 -43.5,-58.71"
     style="opacity:1;fill:none;fill-opacity:1;fill-rule:nonzero;stroke:#7d0d6f;stroke-width:5;stroke-linecap:butt;stroke-linejoin:round;stroke-miterlimit:4;stroke-dasharray:none;stroke-opacity:1" />
  <path
     style="fill:none;stroke:#017ec0;stroke-width:5;stroke-linecap:butt;stroke-linejoin:round;stroke-miterlimit:4;stroke-dasharray:none;stroke-opacity:1"
     id="path3757"
     d="m 2159.89,1752.71 -223.62,28.29 -109.41,10.67 -30.95,6.94 -26.69,16.54 -50.7,46.43 -33.09,25.08 -22.42,4.8 -31.58,-3.8 -43.02,-20.76 -101.89,-19.62 -17.74,-13.96 -26.04,-40.38 -118.12,-113.59 -21.89,-38.87 -4.53,-17.74 6.79,-37.36 7.92,-30.57 22.27,-88.31 19.62,-37.74 9.81,-35.47 16.98,-44.15 -2.47,-22.63 -23.19,-42.28 2.59,-59.37 -25.59,-146.31 -53.77,-150.25 -54.84,-110.2 -35.75,-29.37 -12.19,-23.03 -1.06,-18.16 5.17,-15.54 7,-13.25 25.5,-16.75 18.25,-11.5 89.25,-161 46.5,-91.5 7.12,-36.06 -1.49,-7.1 1.59,-13.95 11.88,-22.22 12.28,-13.92 33.4,-32.83 74.16,-60.95 35.47,-20.19 60.57,-50.38 21.85,-19.64 10.82,-44.37 59.51,-55.24 60.04,-72.32 15.21,-25.35 9.61,-26.95 -2.13,-24.02 -8.54,-25.08 -48.03,-48.03 -50.17,-36.56 -31.56,-34.17 -9.81,-24.91 -10e-5,-52.46 -0.24,-58.86 -5.05,-24.17 -46.04,-94.72 -19.62,-30.19 -38.87,-26.04 -74.34,-81.51 -36.98,-47.55 -44.91,-25.66 -46.04,-30.19 -91.7,-17.36 -40.38,-23.78 -24.53,-26.42 -19.25,-39.25 -11.7,-61.14 -31.32,-61.51 v -42.27 l -12.08,-44.91 -24.53,-31.7 -62.65,-83.02 -47.93,-54.34" />
  <text
     style="font-style:normal;font-weight:normal;font-size:144.0px;line-height:125%;font-family:Sans;-inkscape-font-specification:Sans;letter-spacing:0px;word-spacing:0px;fill:#000000;fill-opacity:1;stroke:none"
     xml:space="preserve"
     id="text3000"
     y="-1293.04"
     x="189.43"><tspan
       id="tspan1"
       y="-1293.04"
       x="189.43">1967 proposal</tspan></text>
  <path
     d="m 718.88,1972.4 26.12,-50.9 4,-12 20.5,-52 13.5,-17 47.5,-34 22,-12 50.5,-8 33.5,-8 30.5,-20.75 12.25,-19.25 -0.5,-11.25 -18.5,-65.25 -0.5,-42.5 7,-27.25 5.5,-34.5 20,-18 2.25,-6.25 -6,-12 -15.5,-12.5 -17,-16 -20,-13.5 -15.5,-11 -12.5,-22 -12,-24 -20.5,-22 -49,-46 -48.9,-38.89 -53.37,-128.62 -2.67,-21.35 9.07,-19.75 51.77,-115.28 59.24,-82.19 43.23,-32.56 38.43,-25.08 48.57,-14.41 82.19,-2.13 34.16,-5.34 L 1106.5,858 l 12,-13.5 11,-10 32,-3 14,-4 5,-9.5 0.5,-17 -9.5,-35 -1,-19 5,-15.5 9,-17 23.5,-14.5 19.5,-13 88.5,-160 22,-42.5 24.5,-49 6.5,-33.5 -1,-7.5"
     id="path866"
     style="fill:none;stroke:#ec2c29;stroke-width:5;stroke-linecap:butt;stroke-linejoin:round;stroke-miterlimit:4;stroke-dasharray:none;stroke-opacity:1" />
  <path
     style="fill:none;stroke:#ec2c29;stroke-width:5;stroke-linecap:butt;stroke-linejoin:round;stroke-miterlimit:4;stroke-dasharray:none;stroke-opacity:1"
     id="path3786"
     d="m 1367.9,395.28 1.41,-15.56 12.02,-22.98 12.37,-14.5 35.25,-34.54 74.35,-60.57 35.36,-20.51 59.4,-49.5 63.64,-55.86 26.87,-18.38 40.31,-10.61 72.83,-15.56 14.14,3.54 13.44,11.31 16.97,28.28 16.97,9.19 66.47,11.31 16.26,10.61 29.7,26.16 25.46,11.31 19.09,2.12 25.46,-7.07 19.09,-14.85 34.65,-32.53 78.49,-30.41 59.4,-16.26 23.33,0.71 45.25,21.92 76.37,38.89 24.04,4.24 76.37,45.25 62.23,29.7 24.88,16.04 30.27,38.41 14.85,26.16 11.31,45.25 19.09,119.5 5.66,50.91 0.71,32.53 -26.87,110.31 -0.71,33.94 12.02,20.51 11.31,10.61 36.84,28.89 20.28,15.21 22.15,8.81" />
  <path
     id="path1412"
     d="m 923.3,890.78 -56.46,10.41 -15.85,-5.28 -44.56,-73.58 -17.51,-10.74 -23.36,-1.18 -77.6,36.44 -68.68,21.13 -126.22,18.48 -74.42,1.87 -51.36,-8.91 -35.66,-37.2"
     style="opacity:1;fill:none;fill-opacity:1;fill-rule:nonzero;stroke:#ec2c29;stroke-width:5;stroke-linecap:butt;stroke-linejoin:round;stroke-miterlimit:4;stroke-dasharray:none;stroke-opacity:1" />
  <path
     id="path1564"
     d="m 1628.54,-367.56 18.35,-24.54 87.55,-41.89 56.23,-63.4 87.55,-60.76"
     style="opacity:1;fill:none;fill-opacity:1;fill-rule:nonzero;stroke:#017ec0;stroke-width:5;stroke-linecap:butt;stroke-linejoin:round;stroke-miterlimit:4;stroke-dasharray:none;stroke-opacity:1" />
  <path
     id="path1566"
     d="m 2569.76,246.21 70.66,32.96 50.48,43.19 56.07,23.71 16.23,-1.89 20.38,-6.79 65.29,-55.48 17.74,-16.98 25.28,-8.68 207.94,22.27 46.04,19.62 30.95,37.36 50.19,19.62 105.29,9.43 151.71,-12.45 h -4.53 l 99.63,15.1 163.03,-2.64 82.27,-13.21 177.37,-35.47 40.0,-10.94 20.76,-13.21 20.76,-26.04"
     style="opacity:1;fill:none;fill-opacity:1;fill-rule:nonzero;stroke:#ec2c29;stroke-width:5;stroke-linecap:butt;stroke-linejoin:round;stroke-miterlimit:4;stroke-dasharray:none;stroke-opacity:1" />
</svg>
