<?xml version="1.0" encoding="UTF-8" standalone="no"?>
<svg
   viewBox="0 -70 1350 1950"
   height="1950"
   width="1350"
   version="1.1"
   id="svg2"
   xmlns:xlink="http://www.w3.org/1999/xlink"
   xmlns="http://www.w3.org/2000/svg"
   xmlns:svg="http://www.w3.org/2000/svg"
   xmlns:rdf="http://www.w3.org/1999/02/22-rdf-syntax-ns#"
   xmlns:cc="http://creativecommons.org/ns#"
   xmlns:dc="http://purl.org/dc/elements/1.1/">
  <metadata
     id="metadata8">
    <rdf:RDF>
      <cc:Work
         rdf:about="">
        <dc:format>image/svg+xml</dc:format>
        <dc:type
           rdf:resource="http://purl.org/dc/dcmitype/StillImage" />
      </cc:Work>
    </rdf:RDF>
  </metadata>
  <defs
     id="defs6" />
  <image
     xlink:href="../../timelines/basemap/pvdosm.png"
     width="2264.4"
     height="3270.8"
     preserveAspectRatio="none"
     id="image10"
     x="-526.6"
     y="-304.4"
     style="display:none" />
  <path
     id="path4176"
     d="m 509.94,855.08 11.24,-4.07 78.81,-8.53"
     style="fill:none;fill-rule:evenodd;stroke:#0c2d3c;stroke-width:5;stroke-linecap:butt;stroke-linejoin:round;stroke-miterlimit:4;stroke-dasharray:none;stroke-opacity:1" />
  <path
     id="path4178"
     d="m 599.13,842.78 2.01,1.44 0.43,4.03 1.29,1.15 10.35,-1.15 1.62,-2.34 -1.19,-9.6"
     style="fill:none;fill-rule:evenodd;stroke:#0c2d3c;stroke-width:1px;stroke-linecap:butt;stroke-linejoin:round;stroke-opacity:1" />
  <path
     id="path4180"
     d="m 600.42,837.74 0.43,3.45 -2.01,1.58"
     style="fill:none;fill-rule:evenodd;stroke:#0c2d3c;stroke-width:1px;stroke-linecap:butt;stroke-linejoin:round;stroke-opacity:1" />
  <path
     id="path4186"
     d="m 511.24,855.3 -4.94,-2.29 -2.12,-4.97 -3.05,-0.61 -8.14,3.46 -6.69,4.57 0.06,2.98 8.06,6.89 0.2,3.46 -26.59,27.03 0.05,3.36"
     style="fill:none;fill-rule:evenodd;stroke:#0c2d3c;stroke-width:1px;stroke-linecap:butt;stroke-linejoin:round;stroke-opacity:1" />
  <text
     x="89.45"
     y="136.96"
     id="text3809"
     xml:space="preserve"
     style="font-style:normal;font-weight:normal;font-size:12px;line-height:125%;font-family:Sans;-inkscape-font-specification:Sans;letter-spacing:0px;word-spacing:0px;fill:#000000;fill-opacity:1;stroke:none"><tspan
       x="89.45"
       y="136.96"
       id="tspan1"
       style="font-size:144px">2020</tspan></text>
  <path
     style="fill:none;fill-rule:evenodd;stroke:#0c2d3c;stroke-width:1px;stroke-linecap:butt;stroke-linejoin:round;stroke-opacity:1"
     d="m 613.65,836.31 -5.95,-58.1 -15.02,-23.36"
     id="path5419" />
  <path
     style="fill:none;fill-rule:evenodd;stroke:#0c2d3c;stroke-width:1px;stroke-linecap:butt;stroke-linejoin:round;stroke-opacity:1"
     d="m 511.24,855.3 -5.72,-0.37 -11.95,5.66 -31.09,29.89 v 2.73 l 3.19,3.36 9.83,11.27 33.3,30.28 1.84,4.33 1.31,26.74 21.37,39.59 -5.64,56.76 -3.01,39.46 -0.66,58.86 1.44,32.38 27.13,132.53 23.86,112.86 5.13,32.7 5.87,9.76 13.99,118.92 -2.43,12.47 -51.62,86.96 -2.08,14.2 2.43,58.55"
     id="path5432" />
  <path
     style="fill:none;fill-rule:evenodd;stroke:#0c2d3c;stroke-width:1px;stroke-linecap:butt;stroke-linejoin:round;stroke-opacity:1"
     d="m 600.42,837.74 -7.74,-84.01 -2.97,-36.33 62.66,-169.99 98.89,-266.81 2.97,-75.93 -7.71,-14.24 6.53,-75.93 3.56,-2.37 h 11.86 l 18.17,-28.7 2.52,-0.44 3.37,2.83 2.49,-0.46 2.08,-4.23"
     id="path5417" />
  <path
     id="path5182"
     d="m 789.16,82.98 -1.02,-3.67 2.94,-9.96 0.21,-26.85 -2.41,-2.94 -12.79,-0.21 -14.79,6.08 -11.22,9.02 -1.26,3.98 5.77,10.8 -1.54,45.25"
     style="fill:none;fill-rule:evenodd;stroke:#0c2d3c;stroke-width:1px;stroke-linecap:butt;stroke-linejoin:round;stroke-opacity:1" />
  <path
     id="path2034"
     d="m 600.42,837.74 0.43,-1.01 11.22,-1.73 25.77,-4.49 100.5,-24.17 8.3,0.65 48.48,12"
     style="fill:none;fill-rule:evenodd;stroke:#0c2d3c;stroke-width:1px;stroke-linecap:butt;stroke-linejoin:round;stroke-opacity:1" />
  <path
     id="path1527"
     d="m 801.47,843.87 -62.77,-15.15 -62.36,14.83 -40.28,0.17 -22.84,4.52"
     style="fill:none;fill-rule:evenodd;stroke:#0c2d3c;stroke-width:1px;stroke-linecap:butt;stroke-linejoin:round;stroke-opacity:1" />
</svg>
