<?xml version="1.0" encoding="UTF-8" standalone="no"?>
<svg
   id="svg2"
   viewBox="-2100 -1250 5500 4000"
   height="4000"
   width="5500"
   version="1.1"
   xmlns:xlink="http://www.w3.org/1999/xlink"
   xmlns="http://www.w3.org/2000/svg"
   xmlns:svg="http://www.w3.org/2000/svg"
   xmlns:rdf="http://www.w3.org/1999/02/22-rdf-syntax-ns#"
   xmlns:cc="http://creativecommons.org/ns#"
   xmlns:dc="http://purl.org/dc/elements/1.1/">
  <metadata
     id="metadata15">
    <rdf:RDF>
      <cc:Work
         rdf:about="">
        <dc:format>image/svg+xml</dc:format>
        <dc:type
           rdf:resource="http://purl.org/dc/dcmitype/StillImage" />
      </cc:Work>
    </rdf:RDF>
  </metadata>
  <defs
     id="defs6" />
  <path
     style="fill:none;stroke:#83bc00;stroke-width:5;stroke-linejoin:round;stroke-opacity:1"
     d="m -1959.52,887.15 40.34,15.57 25.54,18.68 44.92,33.91 19.64,12.05 124.12,41.31 17.8,10.74 20.92,21.08 120.8,163.27 17.66,15.22 22.66,9.53 26.01,2.83 40.95,-0.82 44.9,-0.82 17.38,3.5 19.41,10.39 20.19,18.98 97.48,94.37 10.83,6.86 19.04,4.86 202.24,30.58 40.9,12.29 176.37,56.04 256.13,81.89 24.35,4.39 32.46,-3.18 118.77,-20.81 43.32,-12.21 636.48,-328.82 46.79,-23.73 25.76,-11.53 30.94,-6.24 27.8,-1.68 26.78,4.0 35.08,11.24 142.6,60.41 406.42,164.98 614.44,146.13 12.61,6.82 72.59,48.77 106.2,70.98 8.9,13.36 3.9,22.86 -5.77,70.18 3.44,27.5 14.05,19.81 15.17,6.47 17.42,0.44 47.14,-17.16 20.13,-5.12 15.93,0.43 9.84,5.73 8.83,15.18 3.82,17.86 -4.15,20.97 -16.59,58.79 -11.69,19.95 -31.04,28.58 -6.92,13.56 -1.76,14.41 2.78,11.85 10.36,14.76 19.87,18.62 11.8,6.54 31.15,0.22 197.69,8.38 231.88,30.19 189.53,34.04 248.77,16.83 28.43,7.87 19.77,11.09 17.03,14.39 239.81,249.28 37.24,29.39 31.78,25.04 8.54,17.95 0.48,13.44 -5.89,14.56 -13.14,9.88 -35.81,14.81"
     id="path911" />
  <image
     xlink:href="../../timelines/basemap/ymqosm.png"
     id="image12"
     height="6624.8"
     width="10647"
     y="-2765.2"
     x="-4595.4"
     style="display:none" />
  <path
     style="fill:none;stroke:#fddd04;stroke-width:5;stroke-linecap:butt;stroke-linejoin:round;stroke-miterlimit:4;stroke-dasharray:none;stroke-opacity:1"
     id="path3588"
     d="m 2249.5,1204 -1,37.5 -2,31 -5,15.5 -7,14 -22.5,22 -69,63.5 -30.5,27.5 -40.5,33.5 -22,11 -16,3 -38.5,-2.5 -40,-13.5 -52,-29 -73.5,-47.5 -12,-8.5" />
  <path
     style="fill:none;stroke:#f47216;stroke-width:5;stroke-linecap:butt;stroke-linejoin:round;stroke-miterlimit:4;stroke-dasharray:none;stroke-opacity:1"
     id="path2812"
     d="M 95.81,696.18 140,679.5 l 35,-12 23.5,-5 13.5,0.5 28.5,-7.5 23,-3 49.5,-0.5 89.5,-2 h 66 l 32,2 14.5,5.5 11.5,12 9.5,9.5 14.5,10 29.5,18.5 19.5,13 19,9 59,25.5 163.5,68 162.5,63.5 138.5,57.5 71.27,29.33 40.78,12.84 12.84,4.81 128.41,85.51 60.09,39.83 11.46,3.17 17.79,6.89 65.82,43.17 13.2,12.43 48.34,30.53 141,92.5 81,52.5 55.5,36.5 5.5,6 2,8 -4,8 -24,39.5 -34,59 -33.5,52.5 -28.5,39 -36.5,47 -27.5,32.5 -25.5,30.5 -13.5,20 -7.5,17 -2.5,18.5 1,28.5 -2.5,14.5 -5.5,13.5 -12,15 -19,20 -20.5,22 -8,16.5 -16.5,25 -23.5,15.5 -14.5,5.5 -13.5,0.5 -15,-0.5 -12.5,-7.5 -11,-10.5 -9,-5.5 -15.5,-2.5 -15,2 -54.5,51.5 -26,18.5 -8.5,2.5 -10.5,-1.5 -36,-18.5 -104.5,-68 -27,-16 -57.5,-38 -7,-13.5 -0.5,-13.5 5,-57.5 -1,-13 -9,-11 -56,-36 -52,-33 -16.5,-6.5 -12.5,-2.5 -16,3 -27,7 -37.5,9.5 -16.5,-0.5 -19,-4 -19.5,-15 -91.5,-82 -39,-44 -44.5,-46 -47.5,-38 -103.5,-91" />
  <path
     style="fill:none;stroke:#00a650;stroke-width:5;stroke-linecap:butt;stroke-linejoin:round;stroke-miterlimit:4;stroke-dasharray:none;stroke-opacity:1"
     id="path3590"
     d="m 2113,107 -52,124 -41,99.5 -42,98.5 -15,30 -4.71,18.15 3.35,17.51 35.17,64.75 6.69,25.6 -1,12.5 -8,20 -65,145 -1,25 1.5,18.5 8,25.5 4,14.5 -3,22.5 -30,69 -9,25 -16,24 -6.5,22 0.5,19 1,17.5 7,14.5 7,8.5 50.5,29 11,11.5 8.5,16 0.5,12 -2,15 -51.5,80.5 -99.5,152 -32,52.5 -13.73,8.7 -7.75,7.81 -10.13,26.67 -8.47,13.58 L 1670.5,1595 l -38.5,58 -11,22 -94.5,113 -8.5,15 -3,14.5 -2,13.5 3.5,13 11,10.5 37.5,23 11,3 10,2.5 13,-3 24,-25.5 9,-8.5 15.5,-2.5 13.5,0.5 7.5,2.5 8.5,10.5 20,27.5 47,41.5 20.5,24.5 7,10 4.5,19 1,25.5 -5,73.5 -8.5,103 -4.5,13 -12.5,14.5 -10.5,6.5 -113,-5.5 -9,1.5 -5.5,4 -3.5,8 -2,36.5 -1,10 -5.5,15 -10.5,16 -14.5,12 -18,10 -23,8.5 -24,4 -32.5,7 -12,8.5 -34.5,28 -25.5,17 -23.5,13.5 -8.5,7.5" />
  <text
     style="font-style:normal;font-weight:normal;font-size:144px;font-family:Sans;-inkscape-font-specification:Sans;fill:#000000;fill-opacity:1;stroke:none"
     xml:space="preserve"
     id="text3592"
     y="-1043.04"
     x="-2010.55"><tspan
       id="tspan1"
       y="-1043.04"
       x="-2010.55">2029 projected</tspan></text>
  <path
     style="fill:none;stroke:#1082ce;stroke-width:5;stroke-linecap:butt;stroke-linejoin:round;stroke-miterlimit:4;stroke-dasharray:none;stroke-opacity:1"
     id="path3586"
     d="m 1805.21,95.47 -22.57,47.38 -7.75,8.09 -9.76,6.0 -11.15,2.53 -15.05,-0.9 -21.18,-12.06 -9.19,-1.91 -7.49,1.91 -9.06,7.07 -30.86,48.91 -22.81,46.43 -20.33,41.77 -7.65,32.79 -4.76,21.98 -2.15,35.76 -5.39,27.14 -30.92,50.31 -64.32,109.71 -19.07,28.01 -8.34,4.04 -12.2,2.83 -9.02,2.48 -7.37,6.16 -36.33,59.61 -14,23.0 -2.5,11.5 3,22.5 2.5,14 -2.5,11.5 -15,28.5 -77,121.5 -32.5,51 -9.09,30.48 -16.86,19.27 -59.05,51.75 -30,49.5 -10,18.5 -16,37 -8.5,20 0.5,9.5 4,17 12,16.5 19.5,12.5 45.5,21.5 38,19.5 13,9.5 7.5,13.5 9.5,20 7,28 5,21 v 30 l -3,20.5 -8,19 -33,51 -5,19.5 -17,29 -17.5,31.5 -17.5,30.5 -28,46 -27.11,42.82 -5.09,18.67 -5.29,39.02 -1.8,15.69 -2.2,26.31 -2.5,25" />
  <path
     style="fill:none;stroke:#83bc00;stroke-width:5;stroke-linejoin:round;stroke-opacity:1"
     d="m -314.4,1517.67 -6.86,8.67 -1.89,11.46 1.33,8.6 8.76,10.45 29.39,29.18 1.94,11.67 -3.32,12.45 -72.53,104.81 -29.49,43.0 -24.79,19.8 -116.91,78.3 -76.16,50.38 -17.67,18.8 -84.37,56.36 -107.34,73.13 -69.76,51.26 -18.65,6.88 h -12.96 l -33.22,-10.03 -16.28,1.05 -22.07,11.03 -17.86,14.29 -34.91,15.56 -83.47,59.89 -47.52,35.32 -23.95,10.51 -156.69,47.62 -28.09,14.36 -239.91,169.09 -20.08,12.2 -46.37,26.42 -18.06,8.51 -56.06,21.39 -24.49,12.93 -51.27,20.83 -25.65,14.57 -72.24,48.37"
     id="path913" />
  <path
     style="fill:none;stroke:#83bc00;stroke-width:5;stroke-linejoin:round;stroke-opacity:1"
     d="m -352.55,1706.51 -10.17,30.2 1.65,16.15 9.32,16.05 12.76,25.51 3.96,17.87 33.29,157.14 10.15,25.11 17.67,18.34 44.49,39.84 14.25,20.7 8.38,18.13 2.94,20.65 5.1,141.8"
     id="path915" />
  <path
     style="fill:none;stroke:#007061;stroke-width:5;stroke-linejoin:round;stroke-opacity:1"
     d="m 1276.25,-229.34 -121.29,91.49 -5.66,6.82 -2.72,6.95 v 6.6 l 2.76,9.23 100.05,132.84 21.07,23.38 22.93,40.33 13.49,12.1 65.61,40.87 12.6,12.89 44.91,69.3 22.35,41.67 18.74,19.67 25.88,19.95 38.58,24.41 19.98,5.57 h 12.9 l 30.53,-13.83 21.07,-7.79 20.27,-2.93 34.07,0.63 26.5,4.89 54.1,25.25 105.13,51.26 24.94,33.69 52.38,26.08 153.18,72.28 15.41,13.79 57.62,23.44 56.91,26.32 6.7,9.35 1.67,11.83 -12.37,49.8 -19.8,33.87 -86.18,197.8 -8.99,32.73 -37.09,66.61 -26.2,43.8 -24.32,97.59 -12.16,38.71 -7.18,36.32 -30.31,31.95 -49.78,80.24 -14.85,16.16 -48.62,77.92 -54.46,86.17 -20.37,38.17 -23.23,37.21"
     id="path917" />
  <path
     style="fill:none;stroke:#007061;stroke-width:5;stroke-linejoin:round;stroke-opacity:1"
     d="m 2139.93,551.45 -7.48,-6.94 -4.16,-5.23 1.09,-12.47 49.93,-128.84 23.73,-86.54 100.57,-289.78 62.68,-182.96 -1.05,-10.8 -7.58,-7.79 -95.66,-22.22 -8.7,-4.2 -6.44,-8.13 -2.08,-12.51 18.55,-55.65 20.28,-82.97 30.84,-77.11 0.88,-13.29 -4.37,-30.01 1.81,-26.72 102.74,-429.01 38.04,-160.76"
     id="path919" />
</svg>
