<?xml version="1.0" encoding="UTF-8" standalone="no"?>
<svg
   xmlns:dc="http://purl.org/dc/elements/1.1/"
   xmlns:cc="http://creativecommons.org/ns#"
   xmlns:rdf="http://www.w3.org/1999/02/22-rdf-syntax-ns#"
   xmlns:svg="http://www.w3.org/2000/svg"
   xmlns="http://www.w3.org/2000/svg"
   xmlns:xlink="http://www.w3.org/1999/xlink"
   id="svg2"
   viewBox="0 100 5700 3400"
   height="3400"
   width="5700"
   version="1.1">
  <metadata
     id="metadata8">
    <rdf:RDF>
      <cc:Work
         rdf:about="">
        <dc:format>image/svg+xml</dc:format>
        <dc:type
           rdf:resource="http://purl.org/dc/dcmitype/StillImage" />
        <dc:title></dc:title>
      </cc:Work>
    </rdf:RDF>
  </metadata>
  <defs
     id="defs6" />
  <image
     xlink:href="../basemap/sinosm.png"
     id="image10"
     height="3711.4"
     width="5735.8"
     y="9.77e-05"
     x="-74.8"
     style="display:none" />
  <path
     style="fill:none;stroke:#df4174;stroke-width:5;stroke-linecap:butt;stroke-linejoin:round;stroke-miterlimit:4;stroke-dasharray:none;stroke-opacity:1"
     id="path3920"
     d="m 2811.17,3283.58 6.51,1.34 13.29,-7.08 5.27,-4.74 25.77,0.8 19.16,4 13.36,-2.52 14.48,-6.13 6.85,2.47 8.6,0.39 9.78,5.91 11.3,2.02 5.72,11.26 16.27,7.87 17.22,2.18 22.62,11.01 20.31,24.99 -1.79,10.48 1.72,39.69 30.02,28.65 5.39,12.96 -3.46,16.06 -16.03,-13.16 -4.61,0.03 -6.85,4.22 -14.93,-1.96 -11.58,3.15 -20.25,-12.87 -39.21,-31.09 -12.6,-23.25 -1.26,-6.42 4.31,-10.03 -7.97,-13.58 -7.03,-4.06 -3.45,-15.26 -13.76,-3.01 -19.67,4.05 -20.47,4.8 -9.51,-6.29 -5.55,0.82 -22.39,-12.23 -5.68,-6.96 -8.22,-11.51 -3.45,-14.58 -6.85,-6.06 -13.92,-5.79 -11.33,-0.79 -6.94,2.63" />
  <path
     style="fill:none;stroke:#00954b;stroke-width:5;stroke-linecap:butt;stroke-linejoin:round;stroke-miterlimit:4;stroke-dasharray:none;stroke-opacity:1"
     id="path3778"
     d="m 1183.26,2053.71 33.74,-11.81 39.5,-21.5 157,-58 41,-9 23.5,-1 46.5,12 36,-1 20.5,8 30,20 116,92.5 38,75 19.5,11 78.5,38.5 41,-1 50,16 44.5,10 18.5,14 12.5,21.5 18,43 47.5,68.5 22,49 13,16 19.5,12.5 21.5,3 101.5,-11 18.5,4.5 27,14.5 82.5,50 33.5,4.5 97,12 20,11 161.5,144 14,21.5 18,30.5 26,23 18.5,10 87,15 22.5,9.5 27,12.5 24.5,3 38,5 34.5,27.5 40.5,9.5 76.54,-0.12 14.25,3.29 12.72,12.32 10,12.5 20,16 44.5,28.5 17,9 17,18.5 17,30 12.28,12.73 19.6,5.04 25.13,-3.28 19.5,-7.5 20,-22 37.83,-60.99 3.54,-10.46 4.98,-46.67 5.83,-18.94 18.93,-33.45 2.1,-13.56 -0.8,-13.81 -19.48,-32.7 -3.47,-18.72 0.4,-12.01 9.53,-16.09 67.62,-77.09 25.5,-32 46.5,-36.5 46,-44.5 57.5,-17.5 33.5,-14.5 80,-49.5 23.5,-16.5 44,-11 225,-36.5 15,0.5 130,-25 27.5,-1 18.5,3 19,-1 92,-22.5 22.5,-1 42.5,1.5 50,-11.5 42.5,-15 116,-18 124,-15.5 24.5,-4.5 79,-29 45.5,-16 38.58,-20.02" />
  <path
     style="fill:none;stroke:#00954b;stroke-width:5;stroke-linecap:butt;stroke-linejoin:round;stroke-miterlimit:4;stroke-dasharray:none;stroke-opacity:1"
     id="path3780"
     d="m 4982,2185.4 21.5,-20 19.5,-12.5 13.5,-17 8,-23 3,-29.5 -15,-62 -46.5,-56.5 -124,-152 -12,-17.5 -4,-22.5 1,-13.5 29,-91.5 27.5,-45 14,-37 18,-73" />
  <path
     style="fill:none;stroke:#000000;stroke-width:5;stroke-linecap:butt;stroke-linejoin:round;stroke-miterlimit:4;stroke-dasharray:none;stroke-opacity:1"
     id="path3786"
     d="m 2941.58,3082.43 -28.64,241.48" />
  <text
     style="font-style:normal;font-weight:normal;font-size:144px;line-height:125%;font-family:Sans;-inkscape-font-specification:Sans;letter-spacing:0px;word-spacing:0px;fill:#000000;fill-opacity:1;stroke:none"
     xml:space="preserve"
     id="text3798"
     y="306.96"
     x="89.45"><tspan
       id="tspan1"
       y="306.96"
       x="89.45">1990</tspan></text>
  <path
     d="M 5545.17,1688.35 5521,1744.9"
     id="path3796"
     style="fill:none;stroke:#fbbf16;stroke-width:5;stroke-linecap:butt;stroke-linejoin:round;stroke-miterlimit:4;stroke-dasharray:none;stroke-opacity:1" />
  <path
     style="opacity:1;fill:none;fill-opacity:1;fill-rule:nonzero;stroke:#fbbf16;stroke-width:5;stroke-linecap:butt;stroke-linejoin:round;stroke-miterlimit:4;stroke-dasharray:none;stroke-opacity:1"
     d="m 5588.61,1704.9 -27.89,64.59"
     id="path880" />
  <path
     id="path992"
     d="m 5536,1709 42,18"
     style="opacity:1;fill:none;fill-opacity:1;fill-rule:nonzero;stroke:#fbbf16;stroke-width:5;stroke-linecap:butt;stroke-linejoin:round;stroke-miterlimit:4;stroke-dasharray:none;stroke-opacity:1" />
  <path
     id="path5671"
     d="m 1738.99,2109.47 -3.99,-22.58 2.5,-18 22.5,-36 129,-173 13,-15.5 2.5,-17.5 -4.5,-157.5 -3.5,-41 -12.5,-22 -77.5,-70 -19,-28 -12,-46 -1,-33 12.5,-59.5 -2,-30 v -14.48"
     style="fill:none;stroke:#00954b;stroke-width:5;stroke-linecap:butt;stroke-linejoin:round;stroke-miterlimit:4;stroke-dasharray:none;stroke-opacity:1" />
  <path
     id="path3782"
     d="M 3180.17,642.52 3175,788.9 l -62.5,127.5 -12.5,13 -10.5,21 -1,35.5 -19,48.5 -0.5,34 10,41.5 12.5,24.5 18,21.5 124,78 32,25 11.5,16 37,90 28.5,31 25,29 7.5,13 10,77 5,27 61.5,112.5 7,19 0.5,14 -1.5,18.5 -25,40 -25.5,42 -18.08,37.01 -15.92,81.49 -10.49,38.71 -2.3,40.2 1.11,49.32 -11.28,29.34 0.97,19.55 13.88,30.38 14.6,51 -1.25,19.93 -14.03,46 -8.13,33.76 -11.41,27.86 -19.14,24.9 -43.31,47.95 -13.98,51.16 -31.75,27.92 -39.71,26.57 -30.46,21.02 -8.7,11.83 -22.24,56.26 -1.61,13.32 0.25,14.2 5.01,11.2 6.8,18.02 9.22,9.93 16.06,6.35 24.62,-2.5 15.76,0.8 101.86,21.55 68.52,16.86 16.7,13.48 22.42,25.6 27.67,35.41 16.76,28.56 1.32,15.75 -2.28,14.89 -18.97,33.18 -5.52,17.36 -5.44,46.84 5.08,18.33 29.88,50.68 9.2,20.17 2.8,32.89"
     style="fill:none;stroke:#db220d;stroke-width:5;stroke-linecap:butt;stroke-linejoin:round;stroke-miterlimit:4;stroke-dasharray:none;stroke-opacity:1" />
</svg>
