<?xml version="1.0" encoding="UTF-8" standalone="no"?>
<svg
   xmlns:dc="http://purl.org/dc/elements/1.1/"
   xmlns:cc="http://creativecommons.org/ns#"
   xmlns:rdf="http://www.w3.org/1999/02/22-rdf-syntax-ns#"
   xmlns:svg="http://www.w3.org/2000/svg"
   xmlns="http://www.w3.org/2000/svg"
   xmlns:xlink="http://www.w3.org/1999/xlink"
   version="1.1"
   id="svg2"
   width="1900"
   height="1900"
   viewBox="0 0 1900 1900">
  <metadata
     id="metadata8">
    <rdf:RDF>
      <cc:Work
         rdf:about="">
        <dc:format>image/svg+xml</dc:format>
        <dc:type
           rdf:resource="http://purl.org/dc/dcmitype/StillImage" />
        <dc:title></dc:title>
      </cc:Work>
    </rdf:RDF>
  </metadata>
  <defs
     id="defs6" />
  <image
     style="display:none"
     width="2953"
     height="2109.29"
     preserveAspectRatio="none"
     xlink:href="../basemap/ksfosm.png"
     id="image10"
     x="50"
     y="-284.29" />
  <path
     style="opacity:1;fill:none;fill-opacity:0.4;fill-rule:nonzero;stroke:#7e5ba3;stroke-width:5;stroke-linecap:butt;stroke-linejoin:round;stroke-miterlimit:4;stroke-dasharray:none;stroke-opacity:1"
     d="m 128.38,1759.8 13.66,6.23 15.1,3.12 24.45,1.44 15.58,-1.92 63.04,-10.79 23.49,-2.4 82.94,-3.12 16.54,-2.64 14.62,-8.39 11.27,-11.51 7.91,-13.18 9.11,-29.96 8.39,-12.7 5.75,-6.95 17.02,-13.18 5.27,-6.71 6.47,-23.25 2.52,-11.63 -0.24,-2.16 -1.2,-1.56"
     id="path836" />
  <path
     style="opacity:1;fill:none;fill-opacity:0.4;fill-rule:nonzero;stroke:#7e5ba3;stroke-width:1;stroke-linecap:butt;stroke-linejoin:round;stroke-miterlimit:4;stroke-dasharray:none;stroke-opacity:1"
     d="m 470.07,1608.55 -2.16,-1.92 -12.46,-8.15 -1.8,-2.16 -0.36,-2.88 1.8,-3.36 11.51,-9.59 7.79,-5.63 20.13,-7.55 15.22,-6.11 8.87,-5.27 9.83,-8.27 19.66,-18.94 17.5,-12.1 10.79,-8.87 19.54,-18.22 5.27,-8.27 10.07,-18.46 5.21,-3.97 7.09,-7.06 3.72,-9.67 5.15,-4.07 16.62,-8.33 3.84,-4.94 10.54,-16.83 15.65,-23.03 5.76,-6.19 6.61,-5.85 19.83,-11.53 7.54,-3.39 6.44,-5.76 4.58,-7.2 4.07,-2.37 4.58,-1.02 20,4.49 6.36,0.42 5.34,-0.68 5.76,-2.88 21.27,-16.53 11.1,-6.36 12.37,-9.49 7.63,-3.56 20.68,-6.61 19.32,-8.47 6.1,-5.25 5.08,-6.95 3.39,-11.7 0.17,-10.17 -0.17,-10 2.54,-6.95 22.03,-44.07 21.86,-33.56 12.03,-18.47 16.61,-22.37 12.03,-17.12 23.56,-42.2 2.88,-9.49 24.92,-73.39 27.12,-48.81 26.61,-25.76 6.44,-2.71 9.83,-2.2 7.46,-3.39 3.9,-5.08 10,-18.81 4.58,-5.93 v -1.86 l -1.36,-3.22 -15.25,-14.58 -0.18,-3.56 71.11,-68.42 28.05,-61.16 1.78,-7.71 -0.25,-7.63 -1.95,-7.12 -14.75,-51.69 -7.54,-41.27 -3.81,-14.92 -5,-17.54 -5.68,-14.41 -8.73,-18.22 -6.27,-8.98 -23.73,-25.68 -32.2,-34.49 -22.2,-19.75 -59.66,-27.71 -5.25,-0.93 -3.65,-0.68"
     id="path838" />
  <text
     x="89.45"
     y="206.96"
     id="text2994"
     xml:space="preserve"
     style="font-style:normal;font-weight:normal;font-size:144.0px;line-height:125%;font-family:Sans;-inkscape-font-specification:Sans;letter-spacing:0px;word-spacing:0px;fill:#000000;fill-opacity:1;stroke:none"><tspan
       x="89.45"
       y="206.96"
       id="tspan1">1995</tspan></text>
</svg>
