<?xml version="1.0" encoding="UTF-8" standalone="no"?>
<svg
   xmlns:dc="http://purl.org/dc/elements/1.1/"
   xmlns:cc="http://creativecommons.org/ns#"
   xmlns:rdf="http://www.w3.org/1999/02/22-rdf-syntax-ns#"
   xmlns:svg="http://www.w3.org/2000/svg"
   xmlns="http://www.w3.org/2000/svg"
   xmlns:xlink="http://www.w3.org/1999/xlink"
   version="1.1"
   id="svg2"
   width="550"
   height="750"
   viewBox="0 0 550 750">
  <metadata
     id="metadata8">
    <rdf:RDF>
      <cc:Work
         rdf:about="">
        <dc:format>image/svg+xml</dc:format>
        <dc:type
           rdf:resource="http://purl.org/dc/dcmitype/StillImage" />
        <dc:title></dc:title>
      </cc:Work>
    </rdf:RDF>
  </metadata>
  <defs
     id="defs6" />
  <image
     style="display:none"
     width="520"
     height="520"
     preserveAspectRatio="none"
     xlink:href="file:///home/lexande/timelines/timelines/streetmap/../../timelines/streetmap/mgwosm.png"
     id="image10"
     x="100"
     y="230" />
  <path
     style="opacity:1;fill:none;fill-opacity:0;fill-rule:nonzero;stroke:#002855;stroke-width:5;stroke-linecap:butt;stroke-linejoin:round;stroke-miterlimit:4;stroke-dasharray:none;stroke-opacity:1"
     d="m 338.37,251.29 -5.69,24.95 1.08,18.98 -4.88,7.86 -16,5.69 -18.98,2.71 -12.2,4.61 -11.39,12.75 -21.97,32.27 -32.54,9.76 -12.75,9.49 -6.78,-1.08 -16,-12.2 -8.68,-1.63 -16,10.31 -1.9,5.97 4.88,10.03 1.36,2.98 -1.9,14.37 1.9,4.07 5.42,2.17 16.54,16.54 16.54,7.05 16.27,1.63 11.93,0.27 23.59,-5.15 28.75,2.17 18.44,16.54 24.68,18.44 10.31,8.68 32.54,46.64 4.34,11.93 16.54,14.64 v 11.66 l -13.02,11.66 v 17.9 l -12.2,24.14 1.63,3.25 12.2,9.22 v 1.63 l -2.71,5.15"
     id="path817" />
  <text
     style="font-style:normal;font-weight:normal;font-size:144px;line-height:125%;font-family:Sans;-inkscape-font-specification:Sans;letter-spacing:0px;word-spacing:0px;fill:#000000;fill-opacity:1;stroke:none"
     xml:space="preserve"
     id="text2984"
     y="206.96"
     x="89.45"><tspan
       id="tspan1"
       y="206.96"
       x="89.45">2020</tspan></text>
</svg>
