<?xml version="1.0" encoding="UTF-8" standalone="no"?>
<svg
   xmlns:dc="http://purl.org/dc/elements/1.1/"
   xmlns:cc="http://creativecommons.org/ns#"
   xmlns:rdf="http://www.w3.org/1999/02/22-rdf-syntax-ns#"
   xmlns:svg="http://www.w3.org/2000/svg"
   xmlns="http://www.w3.org/2000/svg"
   xmlns:xlink="http://www.w3.org/1999/xlink"
   version="1.1"
   id="svg2"
   width="950"
   height="750"
   viewBox="0 0 950 750">
  <metadata
     id="metadata8">
    <rdf:RDF>
      <cc:Work
         rdf:about="">
        <dc:format>image/svg+xml</dc:format>
        <dc:type
           rdf:resource="http://purl.org/dc/dcmitype/StillImage" />
        <dc:title></dc:title>
      </cc:Work>
    </rdf:RDF>
  </metadata>
  <defs
     id="defs6" />
  <image
     style="display:none"
     width="995"
     height="746.25"
     preserveAspectRatio="none"
     xlink:href="../../timelines/basemap/suxosm.png"
     id="image10"
     x="-50"
     y="103.75" />
  <path
     id="path819"
     d="m 106.19,278.75 242.77,-2.01 4.89,5.75 0.45,75.43"
     style="opacity:1;fill:none;fill-opacity:0.38;fill-rule:nonzero;stroke:#000000;stroke-width:5;stroke-linecap:butt;stroke-linejoin:round;stroke-miterlimit:4;stroke-dasharray:none;stroke-opacity:1" />
  <path
     id="path836"
     d="m 354.29,357.92 0.7,117.0 16.68,41.99 0.29,14.67 1.44,7.48 7.77,7.48 8.05,6.04 56.09,41.42 39.41,26.46 16.11,19.56 8.63,5.75 16.97,1.44 9.78,2.3 18.41,8.05 7.77,-0.29 8.92,-4.6 5.18,-5.18 14.96,-21.29 5.18,-3.16 14.09,-2.88 231.26,12.66"
     style="opacity:1;fill:none;fill-opacity:0.38;fill-rule:nonzero;stroke:#000000;stroke-width:1;stroke-linecap:butt;stroke-linejoin:round;stroke-miterlimit:4;stroke-dasharray:none;stroke-opacity:1" />
  <text
     x="84.18"
     y="206.96"
     id="text2992"
     xml:space="preserve"
     style="font-style:normal;font-weight:normal;font-size:144.0px;line-height:125%;font-family:Sans;-inkscape-font-specification:Sans;letter-spacing:0px;word-spacing:0px;fill:#000000;fill-opacity:1;stroke:none"><tspan
       x="84.18"
       y="206.96"
       id="tspan1">1895</tspan></text>
</svg>
