<?xml version="1.0" encoding="UTF-8" standalone="no"?>
<svg
   xmlns:dc="http://purl.org/dc/elements/1.1/"
   xmlns:cc="http://creativecommons.org/ns#"
   xmlns:rdf="http://www.w3.org/1999/02/22-rdf-syntax-ns#"
   xmlns:svg="http://www.w3.org/2000/svg"
   xmlns="http://www.w3.org/2000/svg"
   xmlns:xlink="http://www.w3.org/1999/xlink"
   version="1.1"
   id="svg2"
   width="290"
   height="320"
   viewBox="0 0 290 320">
  <metadata
     id="metadata8">
    <rdf:RDF>
      <cc:Work
         rdf:about="">
        <dc:format>image/svg+xml</dc:format>
        <dc:type
           rdf:resource="http://purl.org/dc/dcmitype/StillImage" />
        <dc:title></dc:title>
      </cc:Work>
    </rdf:RDF>
  </metadata>
  <defs
     id="defs6" />
  <image
     xlink:href="../../timelines/streetmap/naposm.png"
     style="display:none"
     width="3515"
     height="2590"
     preserveAspectRatio="none"
     id="image12"
     x="-1690"
     y="-1315" />
  <path
     style="fill:#c0c0c0;stroke:none;stroke-width:5;stroke-linejoin:round;fill-opacity:1"
     d="m 233.3383,173.6822 -10.9739,-82.7455 -18.9471,-8.6626 -1.3643,-9.8974 -44.6158,-21.5783 -4.788,0.506 -15.2044,14.2615 -32.7565,16.2068 -17.3642,15.1314 2.6194,41.4278 -11.0757,0.1333 6.4925,25.7689 -2.4888,10.5054 -10.9195,4.9805 -16.021,-1.0465 -2.9314,1.4456 11.633,20.03 -4.4776,52.5359 27.9626,3.1881 2.4131,9.2231 16.6223,8.5142 z"
     id="path855" />
  <path
     style="fill:#c6ecff;fill-opacity:1;stroke:none;stroke-width:5;stroke-linejoin:round"
     d="m 305.8806,170.6663 -10.445,-0.8785 -51.9331,3.5747 -39.4191,2.6895 -23.2656,4.634 -34.406,13.884 -24.3667,20.2265 -1.0527,6.8828 7.8401,9.5454 -12.3994,19.0768 -12.3181,26.6628 -15.7455,9.9896 -7.2139,21.7229 -16.0477,16.8744 -2.0174,7.9791 -0.2405,15.4994 241.93388,0.62712 z"
     id="path871" />
  <path
     id="path1387"
     d="m -973.22999,379.21863 19.2057,17.3938 13.4077,9.784 30.0768,15.58198 26.8155,11.23351 33.3381,9.42165 130.0913,32.6134 17.3938,2.5366 h 17.7562 l 59.7912,-5.0732 17.0315,-0.72474 77.0038,15.58196 19.7493,0.72474 18.1185,-4.52964 139.5129,-61.24072 19.7492,-5.79794 34.6065,-7.42861 59.61,-16.85029 17.3938,-5.0732 13.7701,-5.4355 8.1534,-6.5227 6.5227,-15.582 8.3345,-40.5855 7.4286,-25.9096 7.4286,-12.1394 16.7597,-11.0523 17.4844,-3.2614 55.442797,-0.9059 13.8502,-3.1039 21.1203,-8.6919 15.8082,-6.9486 17.9009,-11.4015 19.3195,-15.8685 6.0362,-11.4214 16.1255,-52.5438 13.5889,-27.5402 12.8642,-17.0315 10.6899,-10.1464 18.1186,-9.421596 45.296403,-22.467 h 11.4147 l 18.4809,1.0871 38.9549,16.3067 23.5541,15.038396 16.3067,3.0801 32.4322,-1.0871 119.0389,-14.857196 19.9305,1.4495 40.4043,13.588896 8.5158,5.4356 8.5157,16.1255 0.1812,17.7562 -13.4078,42.7598 -7.0662,16.1255 -2.899,19.568 3.9861,10.1464 5.7979,11.4147 16.8503,16.1255 72.293,63.9585"
     style="opacity:1;fill:none;fill-opacity:0.380392;fill-rule:nonzero;stroke:#0060a9;stroke-width:3.62371;stroke-linecap:butt;stroke-linejoin:round;stroke-miterlimit:4;stroke-dasharray:none;stroke-opacity:1" />
  <path
     id="path1428"
     d="m 38.618207,163.17033 -16.8703,7.705 -99.9212,16.8301 -84.665697,10.3386 -109.4123,14.3491 h -11.7868 l -16.1429,-2.8186 -170.1401,-38.6914 -14.8616,-5.6372 -9.4807,-6.4059 -39.4602,-33.5668 -38.6915,-31.260696 -40.4852,-23.8298 -13.0679,-5.8934 -20.7551,-0.2563 -162.453,10.7619 -10.2494,-1.5374 -11.5306,-7.1746 -6.6621,-6.9183 -4.356,-12.2993 -1.025,-11.0181 1.025,-23.3174 5.8934,-25.8797 5.6372,-10.762 17.6802,-29.7232 15.1179,-45.0974 6.1496,-11.786804 10.7619,-31.0044 1.2811,-13.8367 -1.7936,-10.2494 -6.9184,-18.7052 -7.4307,-10.2494 -7.1746,-4.356 -23.3175,-11.7868 -9.2244,-1.2812 -12.043,1.7937 -141.4418,21.2675 -5.6371,0.2562 -13.32431,-1.2812 -65.0837,-16.6552 -23.5736,-3.5873 -29.7233,1.5374 -24.8548,4.8685 -163.9905,37.154 -127.6051,31.2607 -97.1131,30.492"
     style="opacity:1;fill:none;fill-opacity:0.380392;fill-rule:nonzero;stroke:#a498c6;stroke-width:3.62371;stroke-linecap:butt;stroke-linejoin:round;stroke-miterlimit:4;stroke-dasharray:none;stroke-opacity:1" />
  <path
     id="path1391"
     d="m -6.407393,-341.58707 -29.7234,-19.3457 -34.0791,-12.9399 -34.976197,3.331 -8.712,2.8186 -7.9432,6.6621 -36.1292,52.7845 -3.8435,6.9183 -1.4093,11.4025 3.7154,12.6836 6.9183,7.8152 41.7663,31.9013 9.4807,8.5838 9.993197,13.5805 8.1995,13.8367 4.7954,14.9307 1.9931,14.676 -3.6237,44.0281 -4.5297,15.2196 -10.1464,11.4147 -16.487797,18.118504 -5.4356,6.5227 -8.1534,3.4426 -14.1324,2.1742 -9.2405,2.5366 -10.3276,8.5157 -3.8049,7.2474 -11.5958,41.4915 -1.4495,14.1325 1.8118,39.6796 2.899,9.9652 9.0593,9.784 12.1394,3.9861 39.4985,4.5297 11.414597,4.1672 3.2614,5.2544 2.899,7.791 12.5018,118.857696 -1.9931,5.9791 -5.2544,7.2475 -11.4147,5.7979 -9.602797,-0.1812 -8.5157,-1.8118 -8.1534,-3.8049 -5.0732,-5.4356 -4.3484,-7.791 -2.899,-8.6969 1.6307,-19.0245 4.1673,-11.9582 5.7979,-3.9861 7.791,-3.0802 9.6028,-0.9059 6.7714,2.0643 6.270797,-0.2608 39.3204,-21.0092 11.2335,-13.0453 22.4671,-26.6343 15.4007,-14.132496 22.467,-15.9443 11.2335,-6.3415 39.1361,-5.9791 10.8712,4.7108 7.2474,5.9791 5.4356,13.5889 1.8118,13.589 v 10.871096 l -11.9582,29.7144 -7.9722,18.481 -2.899,8.1533 -5.4355,72.1119 1.8118,7.2474 1.4495,2.899 6.5227,4.7108 11.0523,-0.1812 11.7771,-3.6237 9.784003,-4.1673 14.3136,-39.4984 99.8333,-86.2444 7.0662,-3.4425 23.3729,-3.2613"
     style="opacity:1;fill:none;fill-opacity:0.380392;fill-rule:nonzero;stroke:#f4d038;stroke-width:3.62371;stroke-linecap:butt;stroke-linejoin:round;stroke-miterlimit:4;stroke-dasharray:none;stroke-opacity:1" />
  <path
     id="path1430"
     d="m 40.228807,166.31453 -30.46,13.8915 -92.6529,50.6216 -51.909697,30.0768 -47.9235,32.8852 -19.9305,14.1325 -98.0213,58.2511 -12.8642,6.7039 -23.373,5.6167 -57.7982,16.3067 -3.6237,2.3555 -11.0523,28.62728 -6.1603,7.42861 -10.8711,6.34149 -38.9549,13.04537 -55.624,26.3625 -85.0666,41.03853 -7.4286,1.54007 -30.4392,-2.35541 -9.1499,-3.35193 -48.5577,-30.62036 -20.6552,-5.0732 -135.3456,-4.89201 -14.4948,-2.35541 -10.5088,-4.71083 -19.3868,-19.74922 -8.5158,-3.26134 -77.185,-5.25438 -10.5088,-3.98609 -7.60981,-8.33453 -1.6306,-8.15335 0.1811,-17.57499 -2.7177,-9.4217 -8.8781,-11.0523 -15.0384,-15.4008 -19.7493,-13.5889 -19.0244,-6.3415 -13.4078,-9.0592 -25.7283,-18.8433 -11.4147,-5.6168 -19.3869,-2.5366 h -11.9582 l -9.9652,2.7178 -19.5681,16.1255 -9.784,5.2544 -14.676,3.2613 -65.9516,5.4356 -13.7701,3.6237 -47.1082,19.7492 -13.7701,8.6969 -28.265,18.2998 -11.9582,10.3276 -26.4531,36.96181 -8.6969,9.60284 -16.6691,17.21263 -9.2405,8.15335 -13.4077,7.06623 -11.9582,0.72475 -17.0315,-1.63067 -23.7353,0.72474 -8.6969,2.35541 -54.8992,24.27887 -13.0454,8.51572 -18.4809,19.93041 -13.9513,10.32758 -26.8155,12.68299"
     style="opacity:1;fill:none;fill-opacity:0.380392;fill-rule:nonzero;stroke:#92ceab;stroke-width:3.62371;stroke-linecap:butt;stroke-linejoin:round;stroke-miterlimit:4;stroke-dasharray:none;stroke-opacity:1" />
  <path
     id="path1395"
     d="m -44.291593,196.76473 81.3524,-36.7806"
     style="opacity:1;fill:none;fill-opacity:0.380392;fill-rule:nonzero;stroke:#f69323;stroke-width:3.62371;stroke-linecap:butt;stroke-linejoin:round;stroke-miterlimit:4;stroke-dasharray:none;stroke-opacity:1" />
  <path
     id="path1397"
     d="m -64.040793,216.51403 119.0389,38.9548"
     style="opacity:1;fill:none;fill-opacity:0.380392;fill-rule:nonzero;stroke:#f69323;stroke-width:3.62371;stroke-linecap:butt;stroke-linejoin:round;stroke-miterlimit:4;stroke-dasharray:none;stroke-opacity:1" />
  <path
     id="path1432"
     d="m 235.99101,142.56913 17.8083,-22.0362 4.2279,-2.5624 5.3809,-0.7687 4.0997,1.2812 8.3277,4.6123 3.8435,1.1529"
     style="opacity:1;fill:none;fill-opacity:0.380392;fill-rule:nonzero;stroke:#f7b498;stroke-width:3.62371;stroke-linecap:butt;stroke-linejoin:round;stroke-miterlimit:4;stroke-dasharray:none;stroke-opacity:1" />
</svg>
