<?xml version="1.0" encoding="UTF-8" standalone="no"?>
<svg
   xmlns:dc="http://purl.org/dc/elements/1.1/"
   xmlns:cc="http://creativecommons.org/ns#"
   xmlns:rdf="http://www.w3.org/1999/02/22-rdf-syntax-ns#"
   xmlns:svg="http://www.w3.org/2000/svg"
   xmlns="http://www.w3.org/2000/svg"
   xmlns:xlink="http://www.w3.org/1999/xlink"
   version="1.1"
   id="svg2"
   width="2100"
   height="4050"
   viewBox="0 0 2100 4050">
  <metadata
     id="metadata8">
    <rdf:RDF>
      <cc:Work
         rdf:about="">
        <dc:format>image/svg+xml</dc:format>
        <dc:type
           rdf:resource="http://purl.org/dc/dcmitype/StillImage" />
        <dc:title></dc:title>
      </cc:Work>
    </rdf:RDF>
  </metadata>
  <defs
     id="defs6" />
  <image
     style="display:none"
     width="2310"
     height="3960"
     preserveAspectRatio="none"
     xlink:href="file:///home/lexande/timelines/timelines/streetmap/../streetmap/limosm.png"
     id="image10"
     x="-200"
     y="40" />
  <path
     style="opacity:1;fill:none;fill-opacity:0.38;fill-rule:nonzero;stroke:#023a84;stroke-width:5;stroke-linecap:butt;stroke-linejoin:round;stroke-miterlimit:4;stroke-dasharray:none;stroke-opacity:1"
     d="m 340.76,1238.4 24.45,297.13"
     id="path861" />
  <path
     style="opacity:1;fill:none;fill-opacity:0.38;fill-rule:nonzero;stroke:#023a84;stroke-width:5;stroke-linecap:butt;stroke-linejoin:round;stroke-miterlimit:4;stroke-dasharray:none;stroke-opacity:1"
     d="m 378.85,1648.81 84.61,-5.29 1.22,31.93 4.47,10.37 11.8,16.07 71.59,198.31 86.03,212.95 15.86,23.8 5.29,10.98 v 9.97 l -2.03,9.76 -6.92,19.12 -50.64,115.12 -4.07,12.41 -4.88,25.63 v 21.15 l 0.2,21.56 14.24,35.59 2.03,15.05 4.68,59.59 -2.24,70.37 2.44,13.42 16.68,58.98 27.46,98.64 19.32,53.29 5.49,11.19 9.76,12 18.1,19.32 19.93,22.58 2.44,15.25 2.24,20.34"
     id="path863" />
  <path
     style="opacity:1;fill:none;fill-opacity:0.38;fill-rule:nonzero;stroke:#023a84;stroke-width:1;stroke-linecap:butt;stroke-linejoin:round;stroke-miterlimit:4;stroke-dasharray:none;stroke-opacity:1"
     d="m 378.85,1648.81 v 0 l -3.66,-1.22 -9.98,-112.06"
     id="path865" />
  <path
     style="opacity:1;fill:none;fill-opacity:0.38;fill-rule:nonzero;stroke:#023a84;stroke-width:5;stroke-linecap:butt;stroke-linejoin:round;stroke-miterlimit:4;stroke-dasharray:none;stroke-opacity:1"
     d="m 463.46,1643.53 -1.02,-17.9 24.2,-30.92"
     id="path867" />
  <path
     style="opacity:1;fill:none;fill-opacity:0.38;fill-rule:nonzero;stroke:#023a84;stroke-width:1;stroke-linecap:butt;stroke-linejoin:round;stroke-miterlimit:4;stroke-dasharray:none;stroke-opacity:1"
     d="m 370.66,1425.64 -6.56,0.25 -3.51,3.1 -7.32,0.46 -3.92,-3.76 -0.66,-6.31 3.71,-4.17 1.78,-3.61"
     id="path925" />
  <path
     style="opacity:1;fill:none;fill-opacity:0.38;fill-rule:nonzero;stroke:#023a84;stroke-width:1;stroke-linecap:butt;stroke-linejoin:round;stroke-miterlimit:4;stroke-dasharray:none;stroke-opacity:1"
     d="m 355.2,1411.92 2.39,2.69 4.98,2.8 1.27,3.51 6.81,4.73 160.12,99 0.71,4.07 -44.85,66"
     id="path927" />
  <path
     style="opacity:1;fill:none;fill-opacity:0.38;fill-rule:nonzero;stroke:#023a84;stroke-width:1;stroke-linecap:butt;stroke-linejoin:round;stroke-miterlimit:4;stroke-dasharray:none;stroke-opacity:1"
     d="m 340.76,1238.4 -3.45,-41.71 -4.03,-8.92 -50.34,-47.46 -32.5,-27.04 -8.05,-12.08 -46.02,-222.34 -14.67,-75.07 -9.49,-69.03 v -33.94 l -4.31,-12.08 -22.44,-36.53 -2.59,-17.83 4.31,-34.23 -0.29,-20.42 -33.65,-125.7"
     id="path929" />
  <path
     style="opacity:1;fill:none;fill-opacity:0.38;fill-rule:nonzero;stroke:#023a84;stroke-width:1;stroke-linecap:butt;stroke-linejoin:round;stroke-miterlimit:4;stroke-dasharray:none;stroke-opacity:1"
     d="m 732.75,2886.03 3.56,5.49 0.51,33.66 -2.44,13.73 -30.2,82.37 -2.64,15.97 -0.31,25.32 2.64,23.59 15.05,92.34 0.71,18.1 -4.78,31.53 -4.17,40.47 -1.42,64.17 9.25,3.76 11.39,23.19 72.81,87.46 50.44,56.14"
     id="path931" />
  <path
     style="opacity:1;fill:none;fill-opacity:0.38;fill-rule:nonzero;stroke:#47aa42;stroke-width:5;stroke-linecap:butt;stroke-linejoin:round;stroke-miterlimit:4;stroke-dasharray:none;stroke-opacity:1"
     d="m 1195,128 -131,190 -15.5,15.5 -90.5,67.5 -26,36.5 -13.5,31 -22.5,71.5 -49.5,47.5 -8,21.5 -3,24.5 7.5,27 37.5,134 88,140.5 2.5,21 3.5,57.5 -7,14.5 -121.5,131 -8.5,14 -16.5,49 -3,22.5 5.5,27.5 0.5,17.5 -18.5,61 4,26 29,35.5 6.5,15.5 15.5,53 v 39 l -6,14.5 -58.5,74.5 -5,9.5 -4.5,14 2,13 20.5,50 32,246 3,12 12,20 7,5.5 55.5,23 11,11 8.5,16.5 3,20 61,438.5 25,101.5 v 27.5 l -1,10.5 -34.5,97.5 v 9.5 l 4,14.5 118.5,170.5 79.5,96 17,11.5 90.85,42.76 338.15,141.24 13,12.5 67,88 25.5,37.5 16,28 6.5,16.5 -2,11.5 -4.5,19.5 2,31 7,16 23.5,39 4,24 10.5,73 198.5,335.5"
     id="path933" />
  <text
     style="font-style:normal;font-weight:normal;font-size:144.0px;line-height:125%;font-family:Sans;-inkscape-font-specification:Sans;letter-spacing:0px;word-spacing:0px;fill:#000000;fill-opacity:1;stroke:none"
     xml:space="preserve"
     id="text2992"
     y="206.96"
     x="89.45"><tspan
       id="tspan1"
       y="206.96"
       x="89.45">2015</tspan></text>
</svg>
