<?xml version="1.0" encoding="UTF-8" standalone="no"?>
<svg
   xmlns:dc="http://purl.org/dc/elements/1.1/"
   xmlns:cc="http://creativecommons.org/ns#"
   xmlns:rdf="http://www.w3.org/1999/02/22-rdf-syntax-ns#"
   xmlns:svg="http://www.w3.org/2000/svg"
   xmlns="http://www.w3.org/2000/svg"
   xmlns:xlink="http://www.w3.org/1999/xlink"
   viewBox="0 0 12250 14800"
   height="14800"
   width="12250"
   id="svg2"
   version="1.1">
  <metadata
     id="metadata8">
    <rdf:RDF>
      <cc:Work
         rdf:about="">
        <dc:format>image/svg+xml</dc:format>
        <dc:type
           rdf:resource="http://purl.org/dc/dcmitype/StillImage" />
        <dc:title></dc:title>
      </cc:Work>
    </rdf:RDF>
  </metadata>
  <defs
     id="defs6" />
  <image
     style="display:none;fill:#c8b7b7"
     y="-2376.0352"
     x="50"
     id="image10"
     xlink:href="file:///home/alexander/timelines/timelines/streetmap/../streetmap/dusosm.png"
     preserveAspectRatio="none"
     height="17326.035"
     width="12255" />
  <path
     style="fill:none;fill-rule:evenodd;stroke:#006bb4;stroke-width:1px;stroke-linecap:butt;stroke-linejoin:round;stroke-opacity:1"
     d="m 2774.9733,5529.5993 211.3561,114.1379 4.8752,5.7356 12.6183,29.2515 13.1918,11.1843 15.4861,8.3166 78.2158,-1.3501 57.1069,-0.1758"
     id="path4710" />
  <path
     style="fill:none;fill-rule:evenodd;stroke:#006bb4;stroke-width:5;stroke-linecap:butt;stroke-linejoin:round;stroke-miterlimit:4;stroke-dasharray:none;stroke-opacity:1"
     d="m 1409.6825,4233.0861 14.5621,12.0303 10.8976,14.339 10.8976,18.9274 10.6108,25.2365 47.6053,94.3503 84.313,172.9277 185.2592,379.9821 5.7356,8.0298 9.7504,7.1694 171.7806,118.7265 91.4825,45.8846 26.0969,16.0597 23.2291,8.6033 15.486,3.1546 174.3616,12.905 7.743,2.5811 13.1919,6.8826 7.743,8.6034 22.3688,29.825 14.9125,13.1919 27.5307,7.743 22.9424,6.8827 102.0933,59.65 55.3483,33.5531 155.4342,139.3746 40.149,42.4433 17.2067,9.1769"
     id="path4887" />
  <path
     style="fill:none;fill-rule:evenodd;stroke:#006bb4;stroke-width:1px;stroke-linecap:butt;stroke-linejoin:round;stroke-opacity:1"
     d="m 1280.2864,4133.7405 29.8091,99.3638 3.6501,2.4334 46.2346,-22.5089 4.2585,-0.8112 2.2306,2.2307 7.503,17.0338 5.6779,6.0835 6.0835,1.6222 7.0974,0.4056 13.5865,-7.0974 5.4955,2.0096"
     id="path4889" />
  <path
     id="path5556"
     d="m 6108.76,5714.842 99.3638,-68.5407 53.1293,2.0278 73.002,-45.0179 100.5805,-13.7892 7.7057,-5.2724 4.8668,-6.8946 1.2167,-43.3957 2.0279,-14.1948 4.4612,-6.0835 12.167,-7.7058 4.0557,-6.8946 3.2445,-12.5726 8.5169,-19.8727 13.7893,-18.6561 10.5447,-3.2445 23.5229,-0.8112 49.4791,-15.8171 28.7952,4.0557 12.9782,10.1392 17.4393,2.4334 12.167,-4.8668 10.5448,-6.4891 14.6004,-12.9781 9.7336,-3.6501 17.8449,2.8389 7.3002,-2.8389 5.6779,-7.7058 7.7058,-19.0616 8.5169,-7.7058 36.9066,-17.4394 19.0616,-9.7336 16.2227,-5.6779 13.3837,-14.1948 21.0894,-9.7336 25.1452,3.2445 10.9502,-2.0278 12.5726,-9.7336 21.0895,-8.5169 12.9781,0.8111 9.7336,7.3002 15.8171,19.4672 8.9225,5.6779 8.5169,-2.8389 27.9841,-25.5507 6.0835,-11.3559 27.1729,-20.2783 8.9225,-8.9225 10.5447,-17.8449 39.7456,-27.173 25.9562,-0.8111 16.6283,-5.2724 11.7614,-15.4115 19.0616,-16.6283 8.1114,-12.9781 9.328,-20.6839 12.9781,-6.0835 16.2227,-0.4055 17.8449,6.8946 15.006,2.4334 46.6402,-10.5447 37.7177,-24.334 12.5725,-11.3559 6.8946,-2.0278 h 9.3281 l 13.3837,4.4612"
     style="fill:none;fill-rule:evenodd;stroke:#4896d2;stroke-width:5;stroke-linecap:butt;stroke-linejoin:round;stroke-miterlimit:4;stroke-dasharray:none;stroke-opacity:1" />
  <text
     style="font-style:normal;font-weight:normal;font-size:144px;font-family:Sans;-inkscape-font-specification:Sans;fill:#000000;fill-opacity:1;stroke:none"
     xml:space="preserve"
     id="text3914"
     y="206.96094"
     x="89.453102"><tspan
       id="tspan1"
       y="206.96094"
       x="89.453102">1945</tspan></text>
  <text
     style="font-style:normal;font-weight:normal;font-size:144px;font-family:Sans;-inkscape-font-specification:Sans;fill:#000000;fill-opacity:1;stroke:none"
     xml:space="preserve"
     id="text3914-4"
     y="14697.961"
     x="89.453125"><tspan
       id="tspan2"
       y="14697.961"
       x="89.453125">1945</tspan></text>
  <path
     id="path4656"
     d="m 5490.9627,9822.7357 2.5841,1.5107 1.0905,-0.5308 1.6657,-3.2545"
     style="fill:none;fill-rule:evenodd;stroke:#9e7b65;stroke-width:1px;stroke-linecap:butt;stroke-linejoin:round;stroke-opacity:1" />
  <path
     id="path4702"
     d="m 5444.9637,10503.294 -4.5701,5.736 -2.3396,7.466 0.339,9.833 2.9968,7.34 52.3601,36.831 21.5,22 20.25,15.5 19.75,11.5 9.25,7.75 11,11.25 9.25,12.25 17.25,23 11.5,10.25 58.5,49.5 75,42.75 11.5,1 79,-9.25 14.25,1 15.25,6.25 13.75,12.75 109.5,101.5 9.75,12.75 8,17 3.75,14.5 11,57 1,35.75 -3.75,7.75 -14.25,30.5 -2,14 3.5,12 18.5,33.25 5,12.75 3.25,17 -3,14.75 -6.75,14.75 -100.5,105"
     style="fill:none;fill-rule:evenodd;stroke:#f68c58;stroke-width:5;stroke-linecap:butt;stroke-linejoin:round;stroke-miterlimit:4;stroke-dasharray:none;stroke-opacity:1" />
  <path
     id="path6292"
     d="m 9817.3464,1424.2452 -24.7417,1.1023 -3.0621,2.3272 0.8573,17.3928"
     style="fill:none;fill-rule:evenodd;stroke:#ee7203;stroke-width:1px;stroke-linecap:butt;stroke-linejoin:round;stroke-opacity:1" />
  <path
     id="path4657"
     d="m 5694.739,10275.852 23.4284,12.9 59.7505,3.182 10.253,4.243 40.6587,26.163 13.7886,1.768 38.1837,2.474 98.6414,32.174 74.5998,29.345 25.1023,15.203 123.3901,48.083 19.799,5.657 18.7383,3.535 17.3241,-4.95 73.5391,6.011 20.5061,3.535 15.9099,-0.353 16.6171,3.535"
     style="fill:none;fill-rule:evenodd;stroke:#f5777b;stroke-width:5;stroke-linecap:butt;stroke-linejoin:round;stroke-miterlimit:4;stroke-dasharray:none;stroke-opacity:1" />
  <path
     id="path4659"
     d="m 5753.4245,10151.515 4.6828,-8.823 9.471,-5.149 13.4211,1.707 18.75,-1.75 36,-8 23.25,-7 62.75,-26.5 46.25,-23.75 16.75,-4.75 34.75,-7 69.75,-3 63.25,-14.25 61,-18.75 18.5,-7 84.5,-21.5013 20.5,-4 32.5,4.5 23.5,-2.5 100.5,-22.5 26,-11 26.5,-10 17.5,-4 42,1 13.5,-1 18,-8 61,-31 18,-12.5 76,-74.4997 17.5,-3 11,-6.5 16,-20 11,-6 11.5,-1 11,4 7.5,8.5 18,26 11,8 11.5,4 h 13 l 6.5,-3 10.5,-8 13,-18"
     style="fill:none;fill-rule:evenodd;stroke:#ed1c24;stroke-width:5;stroke-linecap:butt;stroke-linejoin:round;stroke-miterlimit:4;stroke-dasharray:none;stroke-opacity:1" />
  <path
     id="path4661-3"
     d="m 5694.739,10275.852 -23.9696,-11.929 -14.4532,-0.489 -17.1477,-3.675 -40.2367,-3.736 -4.5941,-1.636 -24.8021,-44.785 -19.8399,-23.341 -13.9657,-8.505 -29.9474,9.125 -32.9481,6.859 -71.1899,9.842 -72.6065,13.369 -5.3893,-0.796 -28.445,-14.774"
     style="fill:none;fill-rule:evenodd;stroke:#f5777b;stroke-width:1px;stroke-linecap:butt;stroke-linejoin:round;stroke-opacity:1" />
  <path
     style="fill:none;fill-rule:evenodd;stroke:#ed1c24;stroke-width:1px;stroke-linecap:butt;stroke-linejoin:round;stroke-opacity:1"
     d="m 5753.4245,10151.512 -1.5707,2.173 -3.9195,1.47 -113.1753,1.224 -45.0096,4.118 -41.9547,12.54 -42.1345,12.984 -32.0909,6.614 -71.7757,10.043 -72.7555,13.29 -5.0756,-0.764 -28.33,-14.742"
     id="path4594" />

  <path
     style="fill:none;fill-rule:evenodd;stroke:#006bb4;stroke-linejoin:round;stroke-miterlimit:4;stroke-dasharray:none;stroke-opacity:1;stroke-width:5"
     d="m 3001.414,4451.6461 -2.1796,-11.2332 3.4414,-53.3409 5.7355,-45.8846 5.7037,-27.3634"
     id="path1062" />
</svg>
