<?xml version="1.0" encoding="UTF-8" standalone="no"?>
<svg
   xmlns:dc="http://purl.org/dc/elements/1.1/"
   xmlns:cc="http://creativecommons.org/ns#"
   xmlns:rdf="http://www.w3.org/1999/02/22-rdf-syntax-ns#"
   xmlns:svg="http://www.w3.org/2000/svg"
   xmlns="http://www.w3.org/2000/svg"
   xmlns:xlink="http://www.w3.org/1999/xlink"
   viewBox="0 0 12250 14800"
   height="14800"
   width="12250"
   id="svg2"
   version="1.1">
  <metadata
     id="metadata8">
    <rdf:RDF>
      <cc:Work
         rdf:about="">
        <dc:format>image/svg+xml</dc:format>
        <dc:type
           rdf:resource="http://purl.org/dc/dcmitype/StillImage" />
        <dc:title></dc:title>
      </cc:Work>
    </rdf:RDF>
  </metadata>
  <defs
     id="defs6" />
  <path
     style="fill:none;fill-rule:evenodd;stroke:#f5777b;stroke-width:5;stroke-linecap:butt;stroke-linejoin:round;stroke-miterlimit:4;stroke-dasharray:none;stroke-opacity:1"
     d="m 5224.19,10262.09 -4.16,5.51 -7.35,6.98 -15.92,8.82 -133.51,28.91 -15.19,6.74 -13.35,2.45 -9.92,-1.1 -32.83,-21.19 -8.12,-5.14 -4.34,-25.66 -0.38,-21.86 -4.57,-14.62 0.45,-9.36 3.26,-4.43 3.08,-7.14 5.94,-34.47 -0.81,-27.47 2.35,-3.01 67.1,-3.69 11.97,-10.15 3.1,-7.33 1.75,-14.12 -9.99,-17 -10.94,-12.91 -3.35,-7.65 16.82,-79.86 4.01,-19.11 -0.91,-12.57 -22.05,-31.6 -22.05,-70.43 -17.52,-140 -38.58,-149.55"
     id="path12550-7" />
  <path
     id="path4562"
     d="m 4759.72,9998.32 43.37,27.9 9.12,7.73 3.59,8.84 1.38,10.22 -4.14,9.94 -15.74,19.61 -2.07,4.83 2.76,5.25 24.17,13.54 38.26,33.84 19.06,4.7 21.13,8.56 9.53,0.69 11.19,-2.48 10.08,-9.94 10.63,-4.42 10.77,2.07 26.79,-1.1 76.51,-5.25 17.08,-2.06 3.24,-7.74 0.91,-4.37 0.38,-8.21 -12.07,-20.95 -9.5,-10.47 -2.74,-6.56 16.44,-77.56 29.75,-29.84 27.01,-20.32 88.28,-49.62 57.57,-65.85 69.6,-49.06 3.36,-15.24 7.07,8.01 133.97,61.87"
     style="fill:none;fill-rule:evenodd;stroke:#9c8dce;stroke-width:5;stroke-linecap:butt;stroke-linejoin:round;stroke-miterlimit:4;stroke-dasharray:none;stroke-opacity:1" />
  <path
     id="path11360"
     d="m 5059.29,9999.43 36.28,-37.48 17.28,-12.77 16.46,-10.7 82.02,-46.98 57.92,-66.01 62,-42.5 7.25,-6.25 3.75,-15.75 4.5,-1.62 7.88,9.25 133.54,62.63"
     style="fill:none;fill-rule:evenodd;stroke:#05a1e6;stroke-width:5;stroke-linecap:butt;stroke-linejoin:round;stroke-miterlimit:4;stroke-dasharray:none;stroke-opacity:1" />
  <image
     xlink:href="../basemap/dusosm.png"
     width="12255"
     height="17326.03"
     preserveAspectRatio="none"
     id="image10"
     x="50"
     y="-2376.04"
     style="display:none;fill:#c8b7b7" />
  <path
     id="path5797"
     d="m 4955.03,2122.99 -3.55,-5.77 -8.89,-4.73 -14.2,-19.21 -6.6,-14.05 v -4.73 l 13.34,-23.52 6.02,-15.49 14.63,-22.37 10.75,-5.88 7.46,-19.07 v -10.32 l 9.18,-18.5 -2.01,-8.46 -7.89,-58.93 -6.45,-14.91 -15.49,-9.46 -0.72,-3.87 5.88,-20.22 -1.86,-5.31 -38.57,-20.36 -6.6,-5.45 -12.91,-14.05 -11.47,-9.75 -27.82,-10.9 -49.9,-21.8 -21.51,-6.6 h -16.92 l -20.07,1.15 -16.92,2.01 -30.4,-0.57 -70.55,9.46 v 7.17"
     style="fill:none;fill-rule:evenodd;stroke:#e3000b;stroke-width:1px;stroke-linecap:butt;stroke-linejoin:round;stroke-opacity:1" />
  <path
     id="path5801"
     d="m 5604.64,2253.33 9.33,5.68 h 11.76 l 18.25,-1.62 14.19,8.52"
     style="fill:none;fill-rule:evenodd;stroke:#e3000b;stroke-width:5;stroke-linecap:butt;stroke-linejoin:round;stroke-miterlimit:4;stroke-dasharray:none;stroke-opacity:1" />
  <path
     id="path5205"
     d="m 5435.28,2449.01 18.49,-28.38 v -20.65 l 2.58,-11.47 5.16,-6.02 18.07,-5.45 38.95,-27.36 8.08,-0.17 25.24,13.77 7.17,-1.72 18.64,-34.41 4.3,-32.41 -3.73,-10.61 -7.46,-10.04 -44.74,-16.06 -9.18,-7.74 -6.6,-17.49 -12.04,-22.66 -4.59,-29.82 v -13.48 l -6.88,-28.39 -11.76,-27.24 -2.87,-25.52"
     style="fill:none;fill-rule:evenodd;stroke:#0166a5;stroke-width:5;stroke-linecap:butt;stroke-linejoin:round;stroke-miterlimit:4;stroke-dasharray:none;stroke-opacity:1" />
  <path
     id="path5803"
     d="m 5658.18,2265.9 25.15,17.03 36.5,14.6 30.42,23.93 62.86,37.72 109.1,28.39 32.45,11.36 64.89,4.46 40.15,-14.6 9.33,-10.54 22.71,-23.93 29.2,-11.76 23.93,-15.01 14.6,-1.62 7.71,-2.03 7.29,2.67"
     style="fill:none;fill-rule:evenodd;stroke:#e3000b;stroke-width:1px;stroke-linecap:butt;stroke-linejoin:round;stroke-opacity:1" />
  <path
     id="path5677"
     d="m 4500.81,1860.55 12.91,2.29 24.38,14.05 12.33,10.61 14.63,20.07 12.33,5.16 10.04,4.88 59.94,50.19 3.73,7.17 27.53,24.38 120.45,130.48 5.45,5.16 2.58,1.72 11.18,3.44 55.64,1.15 11.18,1.43 61.94,-16.06 7.99,-3.69 6.35,-0.04 4.3,2.01 38.43,8.32 39,0.86 36.13,14.05 12.04,-2.58 h 6.31 l 12.9,11.47 12.62,-0.29 16.35,4.88 27.82,-5.16 18.07,0.29 12.62,-1.43 17.21,0.57 22.94,3.44 26.1,10.61 35.56,18.07 28.1,1.15 12.47,-2.01 9.61,-0.57 47.84,7.5 40,6.68 h 12.74 l 17.15,-5.39 20.58,-2.94 22.05,-7.35 17.88,-1.96 43.85,-30.62 10.04,-4.65 14.45,0.98 3.18,1.47 0.98,6.61"
     style="fill:none;fill-rule:evenodd;stroke:#e3000b;stroke-width:1px;stroke-linecap:butt;stroke-linejoin:round;stroke-opacity:1" />
  <path
     id="path4564"
     d="m 4759.72,9998.32 -17.4,-12.15 -17.95,-14.64 -33.42,-19.33 -0.49,-3.68 20.18,-30.31 2.05,-3.2 13.22,-20.64 -2.91,-4.12 -49.18,-8.21 -4.14,-3.59 -6.35,-18.51 -33.7,-57.73 -18.78,-24.58 -10.77,-20.16 1.38,-9.67 -2.49,-3.87 -23.2,-3.04 -27.35,-6.35 -3.31,-4.14 -6.35,-90.05"
     style="fill:none;fill-rule:evenodd;stroke:#9c8dce;stroke-width:1px;stroke-linecap:butt;stroke-linejoin:round;stroke-opacity:1" />
  <path
     id="path4596"
     d="m 4757.13,10002.42 42.53,27.54 8.66,6.45 2.66,7.5 1.54,8.25 -3.97,8.43 -15.3,19.26 -2.87,8.79 5.79,8.01 23.2,13.81 38.12,33.42 20.16,5.52 21.27,8.56 11.6,0.83 13.26,-3.31 10.77,-10.22 7.73,-3.31 9.94,1.93 18.78,-0.28 6.15,5.01 0.1,27.9 -5.43,31.72 -3.59,8.56 -2.06,3.31 -0.98,12.15 4.42,16.57 1.1,21.27 3.59,24.31 1.66,5.52 3.87,2.76 8.01,-0.28 25.69,16.57 10.22,5.52 9.67,1.38 15.19,-2.76 16.02,-6.63 133.56,-29.19 16.15,-8.34 9,-7.81 4.82,-6.08"
     style="fill:none;fill-rule:evenodd;stroke:#f24dae;stroke-width:5;stroke-linecap:butt;stroke-linejoin:round;stroke-miterlimit:4;stroke-dasharray:none;stroke-opacity:1" />
  <path
     id="path4598"
     d="m 5226.43,10266.34 7.25,-7.8 2.78,-5 4.42,-17.13 2.76,-50.82 2.76,-9.12 38.12,-74.03 6.08,-7.18 14.92,-3.87 26.79,-11.6 35.2,-28.05 22.27,-22.46 13.79,-20.47 12.98,-25.14 13.81,-15.47 12.98,-12.43 19.06,-48.89 5.25,-19.33 15.19,-37.84 26.79,-49.72 8.84,-37.84 6.35,-12.71 10.22,-14.64 24.86,-29 6.63,-14.64 30.66,-55.52 v -11.05 l 0.83,-4.97 31.76,-25.41 36.46,-42.54 1.38,-4.97"
     style="fill:none;fill-rule:evenodd;stroke:#f24dae;stroke-width:1px;stroke-linecap:butt;stroke-linejoin:round;stroke-opacity:1" />
  <path
     id="path4600"
     d="m 5667.63,9546.71 1.66,-3.59 26.79,-31.76 18.23,-22.37 4.7,-10.22 3.04,-10.22 2.49,-22.37 4.14,-11.88 3.87,-6.63 11.32,-17.68 3.31,-8.56 8.84,-33.42 2.21,-6.35 5.52,-6.91 17.13,-15.19 19.89,-16.02 10.77,-14.64 3.87,-7.46"
     style="fill:none;fill-rule:evenodd;stroke:#f24dae;stroke-width:5;stroke-linecap:butt;stroke-linejoin:round;stroke-miterlimit:4;stroke-dasharray:none;stroke-opacity:1" />
  <path
     id="path4602"
     d="m 5815.41,9301.43 6.9,-18.62 6.42,-19.6 7.1,-13.18 30.42,-29.74 4.39,-8.79 0.68,-41.91 11.83,-211.91"
     style="fill:none;fill-rule:evenodd;stroke:#f24dae;stroke-width:1px;stroke-linecap:butt;stroke-linejoin:round;stroke-opacity:1" />
  <path
     style="fill:none;fill-rule:evenodd;stroke:#f580c5;stroke-width:5;stroke-linecap:butt;stroke-linejoin:round;stroke-miterlimit:4;stroke-dasharray:none;stroke-opacity:1"
     d="m 4640.11,9995.6 25.46,26.38 85.72,57.32 41.89,21.35 22.95,13.56 39.37,34.42 22.16,5.52 21.27,8.81 13.85,0.33 14.01,-3.81 11.77,-11.22 4.98,-1.56 9.19,1.93 16.28,-0.28 3.3,2.12 0.08,25.17 -5.3,32.09 -4.34,8.56 -1.51,4.07 -0.53,13.65 4.42,16.57 0.85,22.27 4.09,24.81 1.66,5.52 7.62,4.26 7.01,-0.78 25.44,17.07 11.47,5.52 10.92,1.63 16.69,-4.01 15.77,-6.38 133.56,-28.82 17.02,-9.46 9.5,-7.44 5.32,-6.83"
     id="path4636" />
  <path
     style="fill:none;fill-rule:evenodd;stroke:#f580c5;stroke-width:1px;stroke-linecap:butt;stroke-linejoin:round;stroke-opacity:1"
     d="m 5230.68,10269.34 3.8,-10.27 2.96,-5.18 4.33,-17.21 2.76,-50.73 2.85,-9.2 37.94,-73.67 5.9,-7.01 14.92,-3.87 27.06,-11.78 35.02,-27.96 22.1,-22.37 11.31,-11.37 6.87,-0.46 23.25,4.5 h 4.5 l 6,-1.5 5,-2.75 7.25,-7.5 6.5,-4.25 129.5,-48.5"
     id="path4638" />
  <path
     id="path4684"
     d="m 5590.5,9958.25 17.5,-6.25 28,-16.75 31.57,-23.45 85.14,-76.85 9.71,-14.1 10.21,-25.23 19.45,-17.94 42.44,-31.2"
     style="fill:none;fill-rule:evenodd;stroke:#f580c5;stroke-width:1;stroke-linecap:butt;stroke-linejoin:round;stroke-miterlimit:4;stroke-dasharray:none;stroke-opacity:1" />
  <path
     id="path4686"
     d="m 5834.51,9746.48 8.69,-4.52 L 5950,9724.5 l 150.5,-59 22.5,-10.5 13.5,-3.5 36,-18.5 16.5,-25 10.27,-5.53 79.73,-19.32"
     style="fill:none;fill-rule:evenodd;stroke:#f580c5;stroke-width:1px;stroke-linecap:butt;stroke-linejoin:round;stroke-opacity:1" />
  <path
     style="fill:none;fill-rule:evenodd;stroke:#4dbd38;stroke-width:1px;stroke-linecap:butt;stroke-linejoin:round;stroke-opacity:1"
     d="m 5833.42,9746.23 9.39,-5.26 106.92,-17.36 150.59,-59.27 22.5,-10.23 13.5,-3.59 35.38,-18.32 16.68,-24.91 10.62,-5.79 80,-19.5"
     id="path4728" />
  <path
     id="path5800"
     d="M 4963.51,9571.38 5002.25,9721 l 17.25,139 22.5,72.75 21.62,30.61 0.94,9.89 -3.65,17.81 -15.56,72.12 -1.77,10.61 4.6,9.9 11.31,13.79 5.66,8.84 2.83,5.66 v 4.6 l -2.12,7.78 -2.47,5.83 -9.72,7.78 -25.81,1.59 -41.54,2.48 -4.6,6.01 0.44,28.47 -5.56,33.22 -2.83,6.89 -3.01,5.3 -0.88,9.72 4.5,16.14 0.62,20.99 3.71,24.48 -2.95,5.25 -7.3,5.09 -28.2,6.01 -13.61,2.83 -13.44,7.51"
     style="fill:none;fill-rule:evenodd;stroke:#05a1e6;stroke-width:5;stroke-linecap:butt;stroke-linejoin:round;stroke-miterlimit:4;stroke-dasharray:none;stroke-opacity:1" />
  <path
     id="path5802"
     d="m 5490.17,9827.13 -132.63,-62.34 -4.6,-6.01 -5.3,-3.54 -5.3,-0.35 -3.89,3.54 -4.6,15.91 -4.95,5.3 -63.99,43.84 -56.92,63.99 -18.74,12.73 -79.9,45.61 -18.03,14.14 -20.29,20.95 -8.94,8.75 -4.5,5.04 -8.18,5.83 -1.41,1.44 -16.14,-0.99 -54.41,28.53 -73.96,49.53 -25.5,36.94 -12.75,98.74 1.41,24.5 15.36,56.09"
     style="fill:none;fill-rule:evenodd;stroke:#4dbd38;stroke-width:5;stroke-linecap:butt;stroke-linejoin:round;stroke-miterlimit:4;stroke-dasharray:none;stroke-opacity:1" />
  <path
     style="fill:none;fill-rule:evenodd;stroke:#80cc28;stroke-width:5;stroke-linecap:butt;stroke-linejoin:round;stroke-miterlimit:4;stroke-dasharray:none;stroke-opacity:1"
     d="m 4958.74,9572.62 38.74,149 17.25,139.26 22.94,74.78 21.08,29.36 0.97,7.76 -3.07,15.54 -3.18,15.2 -2.91,2.77 -17.56,-0.55 -53,28 -73.25,49 -24,35 -12.75,97.5 1.5,23 15.18,55.83"
     id="path5672" />
  <path
     id="path4546"
     d="m 4625.8,9297.03 4.67,5.3 65.97,16.27 34.53,6.01 27.94,0.11 50.55,10.39 16.35,6.3 13.15,9.63 12.01,10.12 8.75,3.35 21.76,-6.94 3.89,0.38 26.14,41.18 37.79,83.72 2.6,8.82 3.12,42.69 5.6,29.82 8.18,6.86"
     style="fill:none;fill-rule:evenodd;stroke:#f5777b;stroke-width:1px;stroke-linecap:butt;stroke-linejoin:round;stroke-opacity:1" />
  <path
     id="path4548"
     d="m 4626,9298.25 -0.75,-7.25 -18.25,-42 -1.75,-6.5 0.75,-8.25 1,-6.75 4.75,-12.75 3.25,-12 2,-10.5 v -10.75 l -16.25,-52.75 -4.75,-20 -11.25,-20.25 -8,-7.75 -11,-9.75 -8.75,-11.25 -9.75,-23.25 -26,-29.25 -5,-9.5 -33.5,-33.5 -9.75,-12.25 -1.5,-10.75 0.39,-8.45 2.62,-7.3 4,-8.5"
     style="fill:none;fill-rule:evenodd;stroke:#f5777b;stroke-width:5;stroke-linecap:butt;stroke-linejoin:round;stroke-miterlimit:4;stroke-dasharray:none;stroke-opacity:1" />
  <path
     id="path4556"
     d="m 4885.88,10292.13 0.28,6.61 6.81,24.31 38.27,38.89 8.04,6.01 12.44,9.23 107.49,69.87 3.85,1.14 37.81,-11 3.19,2.69 10.69,38.69 1.69,8.88 2.88,31.12 22.25,46.38 6.17,14.16 18.56,59.75 4.77,22.98 7.78,33.23 32.7,80.96 4.95,16.97 0.53,4.6"
     style="fill:none;fill-rule:evenodd;stroke:#80cc28;stroke-width:1px;stroke-linecap:butt;stroke-linejoin:round;stroke-opacity:1" />
  <path
     id="path4558"
     d="m 4881.66,10294.23 3.62,5.04 6.81,24.13 38.36,38.98 20.68,15.47 107.49,70.03 4.63,1.38 44.62,-13 24.87,-12.88 4.56,0.38 3.94,2.25 20.78,66.75 12.85,33.38 14.94,36.74 2.31,9.94 42.19,80 43.88,69.75 26.12,33.44 4.97,6.6"
     style="fill:none;fill-rule:evenodd;stroke:#4dbd38;stroke-width:1px;stroke-linecap:butt;stroke-linejoin:round;stroke-opacity:1" />
  <path
     id="path4657"
     d="m 5246.37,10203.89 44.45,-3.06 4.5,2.37 26.52,14.5 8.84,-0.71 147.08,-22.27 62.58,-17.32 24.75,-7.07 8.84,3.18 6.01,5.3 10.96,32.53 -0.71,12.37 -1.06,9.55 0.71,10.96 6.72,12.73 9.19,3.89 33.94,7.07 37.48,4.24 32.53,14.5 8.49,2.12 59.75,3.18 10.25,4.24 40.66,26.16 13.79,1.77 38.18,2.47 98.64,32.17 74.6,29.34 25.1,15.2 123.39,48.08 19.8,5.66 18.74,3.54 17.32,-4.95 73.54,6.01 20.51,3.54 15.91,-0.35 16.62,3.54"
     style="fill:none;fill-rule:evenodd;stroke:#f5777b;stroke-width:5;stroke-linecap:butt;stroke-linejoin:round;stroke-miterlimit:4;stroke-dasharray:none;stroke-opacity:1" />
  <path
     id="path4659"
     d="m 5049.38,10227.12 12.38,-4.12 12.5,-0.25 16.25,-7 76.25,-6.75 7,-4 4,-7.25 -0.5,-16 3,-9.25 7.5,-10 12.75,-4.5 56.62,6.75 41.25,34.5 24.38,13.38 12.17,-0.94 142.08,-21.81 87.5,-24.38 25.25,-5 38.5,-21.5 16,-3.25 30.75,0.25 31.5,-4.5 44.5,2 30,5.75 18.75,-1.75 36,-8 23.25,-7 62.75,-26.5 46.25,-23.75 16.75,-4.75 34.75,-7 69.75,-3 63.25,-14.25 61,-18.75 18.5,-7 84.5,-21.5 20.5,-4 32.5,4.5 23.5,-2.5 100.5,-22.5 26,-11 26.5,-10 17.5,-4 42,1 13.5,-1 18,-8 61,-31 18,-12.5 76,-74.5 17.5,-3 11,-6.5 16,-20 11,-6 11.5,-1 11,4 7.5,8.5 18,26 11,8 11.5,4 h 13 l 6.5,-3 10.5,-8 13,-18"
     style="fill:none;fill-rule:evenodd;stroke:#ed1c24;stroke-width:5;stroke-linecap:butt;stroke-linejoin:round;stroke-miterlimit:4;stroke-dasharray:none;stroke-opacity:1" />
  <path
     id="path4661"
     d="M 4189.69,10194.89 4296,10198 l 12,-3.5 382,17 h 82.5 l 5.75,4.25 6,8.5 5.25,3.5 72.25,2.75 13,-2 10.25,-6.5 h 5.75 l 15,1.5 29.25,-1.25 26.12,3 6.22,3.75 7.4,1.91 23.5,0.35 16.75,4.75 13.58,-0.46 16.92,-4.09 6.75,-5.71"
     style="fill:none;fill-rule:evenodd;stroke:#ed1c24;stroke-width:1px;stroke-linecap:butt;stroke-linejoin:round;stroke-opacity:1" />
  <path
     id="path4663"
     d="m 4772.5,10211.5 79.5,3 23.25,3.25 15.5,4.25"
     style="fill:none;fill-rule:evenodd;stroke:#ed1c24;stroke-width:1px;stroke-linecap:butt;stroke-linejoin:round;stroke-opacity:1" />
  <path
     id="path4665"
     d="m 5045.44,10232.36 -16.72,4.17 -13.87,0.52 -16.62,-4.86 -23.69,-0.26 -7.42,-1.95 -6.45,-3.89 -25.46,-2.83 -7.42,0.35 -2.92,3.45 2.12,31.19 v 3.25 l -2,3.25 -10.25,1.5 -86.25,80.5 -21.75,12.5 -28.75,29.75 -12,7.75 -19.25,9.5 -69.75,38.75 -32.25,13.25 -44.75,11.5 -40,42"
     style="fill:none;fill-rule:evenodd;stroke:#f68c58;stroke-width:1px;stroke-linecap:butt;stroke-linejoin:round;stroke-opacity:1" />
  <path
     id="path4719"
     d="m 5492.28,9822.55 -132.24,-61.89 -8.92,1.21 -6.62,-1.88 -4.5,-5.38 -0.38,-5 0.88,-16.38 -3.25,-11.75 -6.75,-9.5 -13,-7 -106.5,-16.25 h -94.25 l -40.25,-10.25 -37.25,-2.5 -30,-10.25 -11.5,-0.75 -61,10.75 -11.25,7 -8,7.25 -4.75,9 -6.5,18.25 -6.25,5.25 -10.5,3.25 -16.25,2 -9.75,7.25 -9.25,9.5 -36,38.75 -10.25,16 -12.5,25.25 -13.5,16.75 -14.5,14 -26.5,18 -8.75,8.25 -6.62,7.54 -15.8,24.77"
     style="fill:none;fill-rule:evenodd;stroke:#9e7b65;stroke-width:5;stroke-linecap:butt;stroke-linejoin:round;stroke-miterlimit:4;stroke-dasharray:none;stroke-opacity:1" />
  <path
     id="path4721"
     d="m 4710.28,9912.48 -0.18,4.77 -23.69,35.8 -12.04,17.95 -14.5,24.75 -14.62,22.25 -11.12,14.62 -8.88,17.38 -6.25,11.5 -3.5,17.25 1,41.5 -2.5,12.25 -5.75,12.75 -12.5,22.75 -16,21.25 -4,9.25 -6.5,44 -0.75,39 4.75,45.5 5,19 16.5,33.25 26,46 18,33.5 6.5,15.5 10.75,36.25 9.75,12.25 51.5,55.5"
     style="fill:none;fill-rule:evenodd;stroke:#9e7b65;stroke-width:1px;stroke-linecap:butt;stroke-linejoin:round;stroke-opacity:1" />
  <path
     id="path4782"
     d="m 4914.47,10318.95 -4.74,6.58 -3.73,5.97 -16,17 h -13.5 l -197.4,300.98"
     style="fill:none;fill-rule:evenodd;stroke:#05a1e6;stroke-width:1px;stroke-linecap:butt;stroke-linejoin:round;stroke-opacity:1" />
  <path
     id="path4908"
     d="m 5307.78,10759.77 54.9,154.93 124.82,332.8 8.5,22 -0.5,18 -2.5,15.5 -6.76,15.89"
     style="fill:none;fill-rule:evenodd;stroke:#4dbd38;stroke-width:5;stroke-linecap:butt;stroke-linejoin:round;stroke-miterlimit:4;stroke-dasharray:none;stroke-opacity:1" />
  <path
     id="path4971"
     d="m 5907.27,13032.5 0.18,34.26 1.77,25.51 9.91,29.28 9.16,12.59 14.05,10.33 19.29,11.94 132.3,45.74 34,0.42 27.58,5.48 25.46,13.61 45.61,22.45 84.85,30.58 71.06,32.88 33.26,20.68 10,-0.25 10.25,-4.25 14.75,-14.5 8,-8.5 9.25,-0.25 8.5,5.5 23.75,57.75 34.25,75.5 30.75,60.25 55.25,69.25 44.47,61.09 55.28,88.66 33.77,43.74"
     style="fill:none;fill-rule:evenodd;stroke:#56cbf5;stroke-width:5;stroke-linecap:butt;stroke-linejoin:round;stroke-miterlimit:4;stroke-dasharray:none;stroke-opacity:1" />
  <path
     id="path4784"
     d="m 4653.5,10688.5 -36.75,39.25 -37.5,55.25 -109.25,162.25 -7.5,11.75 -6.75,14.25 -5,13 -2.5,13.25 -7,64.75 -0.58,13.52"
     style="fill:none;fill-rule:evenodd;stroke:#4dbd38;stroke-width:5;stroke-linecap:butt;stroke-linejoin:round;stroke-miterlimit:4;stroke-dasharray:none;stroke-opacity:1" />
  <path
     id="path4977"
     d="m 6378.71,13251.75 -16.37,9.68 -18.62,11.85 -4.01,4.24 1.24,3.89 4.29,3.44 40.81,19.57 31.68,19.11 7.52,-0.25 9.1,-4.74 12.35,-12.38 10,-10.12 12.08,-0.4 11.99,7.19 25.93,63.45 33.68,73.9 29.04,56.26 53.82,67.72 43.64,60.45 55.96,89.16 27.27,35.34 8.9,0.94 11.67,-4.6 7.78,-10.61 1.41,-12.37 -9.55,-30.76 -1.77,-13.08 7.42,-16.97 17.32,-24.75 12.02,-28.28 47.02,-105.71 10.96,-13.08 9.9,-8.13 13.44,-6.72 19.09,-4.6 23.33,-1.06 28.64,8.13 20.86,9.9 9.9,8.84 41.72,51.62 23.03,28.98 16.73,17.21 44.93,43.97 9.08,13.38 8.32,17.76"
     style="fill:none;fill-rule:evenodd;stroke:#e3000b;stroke-width:5;stroke-linecap:butt;stroke-linejoin:round;stroke-miterlimit:4;stroke-dasharray:none;stroke-opacity:1" />
  <path
     id="path5048"
     d="m 6753.12,13760.75 1.12,5.56 55.31,86.25 31.97,50.45 93.03,95.21 57.57,56.83"
     style="fill:none;fill-rule:evenodd;stroke:#56cbf5;stroke-width:1px;stroke-linecap:butt;stroke-linejoin:round;stroke-opacity:1" />
  <path
     id="path5186"
     d="m 6671,13076.75 3.5,-7 13.75,-23.25 13.25,-10.75 14.5,-4.5 38.25,-2.75 25.25,-6.5 137.5,-47.75 14,-8 46.75,-34.75 16.5,-8.25 41.75,-14.5 45.12,-32.69 8.84,-9.19 29.7,-40.31 44.19,-55.15 55.86,-57.63 67.18,-106.42 26.87,-77.78 9.55,-15.91 12.37,-34.3 9.9,-17.32 37.48,-32.53 6.36,-4.24 11.67,-6.01 3.54,-3.18 15.32,-12.13 -1.06,-8.43 -11.08,-14.64"
     style="fill:none;fill-rule:evenodd;stroke:#e3000b;stroke-width:5;stroke-linecap:butt;stroke-linejoin:round;stroke-miterlimit:4;stroke-dasharray:none;stroke-opacity:1" />
  <path
     id="path5338"
     d="m 6676.37,13234.01 -0.02,-6.62 -2.15,-11.71 -2.87,-7.17 -4.3,-2.87 -22.94,4.06 -6.21,-2.87 -40.63,14.1 -11.53,-3.35 -126.42,28.56 -24.62,-1.49 -13.8,1.43 -18.82,-0.84 -8.07,0.84 -10.28,4.6 -12.91,16.73 -2.75,22.82 -1.54,14.83 1.9,4.65 10.75,5.26 33.73,20.78 1.43,1.16 -0.41,2.87 -2.79,0.08 -2.62,-1.44 -2.28,1.35 -1.69,3.21 0.93,2.37 8.23,3.43 16.49,14.82 9.8,12.43 v 3.82 l -15.3,10.52 -6.93,2.15 -1.43,3.82 20.07,30.83 10.52,18.64 5.97,13.38 1.67,9.56 3.58,21.51 2.15,2.87 18.16,2.39 2.87,2.15 0.96,3.58 1.91,26.29 6.69,21.27 4.06,27.96 3.35,46.84 10.75,54.25 -4.06,16.25 0.48,6.45 22.7,39.43"
     style="fill:none;fill-rule:evenodd;stroke:#4cb848;stroke-width:1px;stroke-linecap:butt;stroke-linejoin:round;stroke-opacity:1" />
  <path
     id="path5184"
     d="m 6378.71,13251.75 14.79,-6.5 8.5,-1 18.75,1 13.75,-1.5 24.5,1.5 127,-28.75 29.5,-29.25 10,-22 10.75,-20.75 16.5,-40.75 15.5,-20 2.75,-7"
     style="fill:none;fill-rule:evenodd;stroke:#e3000b;stroke-width:1px;stroke-linecap:butt;stroke-linejoin:round;stroke-opacity:1" />
  <path
     id="path5417"
     d="m 5200.14,9898.32 67.16,108.98"
     style="fill:none;fill-rule:evenodd;stroke:#f8b100;stroke-width:5;stroke-linecap:butt;stroke-linejoin:round;stroke-miterlimit:4;stroke-dasharray:none;stroke-opacity:1" />
  <path
     id="path5496"
     d="m 3110.72,5696.88 177.1,-1.35 9.46,2.37 9.8,8.79 3.04,8.45 v 11.49 l -1.35,66.24 1.35,12.17 4.73,10.48 6.76,6.42 6.76,4.73 7.44,1.35 56.44,0.34 7.1,2.37 64.55,38.87 16.88,12.22"
     style="fill:none;fill-rule:evenodd;stroke:#006bb4;stroke-width:5;stroke-linecap:butt;stroke-linejoin:round;stroke-miterlimit:4;stroke-dasharray:none;stroke-opacity:1" />
  <path
     id="path5500"
     d="m 3309.78,5729.66 4.73,-8.79 12.51,-17.91 6.76,-14.53 1.01,-9.13 -14.87,-38.53 -11.15,-17.57 -22.98,-56.78 -10.82,-31.09 -12.17,-18.25"
     style="fill:none;fill-rule:evenodd;stroke:#006bb4;stroke-width:5;stroke-linecap:butt;stroke-linejoin:round;stroke-miterlimit:4;stroke-dasharray:none;stroke-opacity:1" />
  <path
     style="fill:none;fill-rule:evenodd;stroke:#006bb4;stroke-width:1px;stroke-linecap:butt;stroke-linejoin:round;stroke-opacity:1"
     d="m 3110.72,5696.88 -78.22,1.35 -34.41,24.95 h -7.46 l -134.79,-49.04 -12.62,-1.72 -14.05,1.43 -35.27,13.77 -9.46,0.57 -16.06,-5.16 -78.29,11.18 -44.45,12.91 -86.61,33.55 -2.29,2.29 -2.58,8.6 v 36.99 l 3.15,25.52 -0.57,19.21 -4.3,24.09 v 26.96 l -2.87,8.32 -28.68,38.14 -36.99,68.25 -8.32,14.05 -3.15,14.63 -0.57,5.74 -5.16,22.94 -8.03,22.66 -22.66,37.85 -14.34,12.33"
     id="path4710" />
  <path
     style="fill:none;fill-rule:evenodd;stroke:#006bb4;stroke-width:1px;stroke-linecap:butt;stroke-linejoin:round;stroke-opacity:1"
     d="m 3262.81,5517.07 -7.76,-10.99 -7.74,-7.74 -35.56,-50.76 -8.32,-18.07 -19.5,-28.1 -21.8,-22.37 -13.19,-8.03 -23.23,-14.91 -10.61,-10.61 -7.74,-15.49 -28.1,-141.1 -3.44,-4.59 -5.45,-4.01 -35.56,-2.29 -84.31,40.44 -36.42,30.69"
     id="path4797" />
  <path
     style="fill:none;fill-rule:evenodd;stroke:#006bb4;stroke-width:1px;stroke-linecap:butt;stroke-linejoin:round;stroke-opacity:1"
     d="m 3032.5,5698.23 -15.49,-8.32 -13.19,-11.18 -12.62,-29.25 -4.88,-5.74 -211.36,-114.14"
     id="path4885" />
  <path
     style="fill:none;fill-rule:evenodd;stroke:#006bb4;stroke-width:5;stroke-linecap:butt;stroke-linejoin:round;stroke-miterlimit:4;stroke-dasharray:none;stroke-opacity:1"
     d="m 1409.68,4233.09 14.56,12.03 10.9,14.34 10.9,18.93 10.61,25.24 47.61,94.35 84.31,172.93 185.26,379.98 5.74,8.03 9.75,7.17 171.78,118.73 91.48,45.88 26.1,16.06 23.23,8.6 15.49,3.15 174.36,12.9 7.74,2.58 13.19,6.88 7.74,8.6 22.37,29.82 14.91,13.19 27.53,7.74 22.94,6.88 102.09,59.65 55.35,33.55 155.43,139.37 40.15,42.44 17.21,9.18"
     id="path4887" />
  <path
     style="fill:none;fill-rule:evenodd;stroke:#006bb4;stroke-width:1px;stroke-linecap:butt;stroke-linejoin:round;stroke-opacity:1"
     d="m 1280.29,4133.74 29.81,99.36 3.65,2.43 46.23,-22.51 4.26,-0.81 2.23,2.23 7.5,17.03 5.68,6.08 6.08,1.62 7.1,0.41 13.59,-7.1 5.5,2.01"
     id="path4889" />
  <path
     style="fill:none;fill-rule:evenodd;stroke:#006bb4;stroke-width:1px;stroke-linecap:butt;stroke-linejoin:round;stroke-opacity:1"
     d="m 2931.55,5542.79 5.45,10.61 -0.29,4.88 -16.92,20.65 -10.04,18.93 0.86,5.16"
     id="path4891" />
  <path
     id="path4551"
     d="m 3079.25,5188.91 -4.3,-19.5"
     style="fill:none;fill-rule:evenodd;stroke:#006bb4;stroke-width:1px;stroke-linecap:butt;stroke-linejoin:round;stroke-opacity:1" />
  <path
     id="path4553"
     d="m 3074.94,5169.4 -5.45,-28.39 -12.33,-33.84 -111.84,-292.51"
     style="fill:none;fill-rule:evenodd;stroke:#006bb4;stroke-width:5;stroke-linecap:butt;stroke-linejoin:round;stroke-miterlimit:4;stroke-dasharray:none;stroke-opacity:1" />
  <path
     id="path4555"
     d="m 2945.32,4814.66 -4.59,-15.2 1.72,-75.42"
     style="fill:none;fill-rule:evenodd;stroke:#006bb4;stroke-width:1px;stroke-linecap:butt;stroke-linejoin:round;stroke-opacity:1" />
  <path
     id="path4557"
     d="m 2942.45,4724.04 0.86,-68.54 2.58,-12.04 4.3,-14.63 1.43,-10.04 8.6,-14.34 24.95,-39.86 5.45,-12.91 16.63,-52.48 -0.57,-20.36 -7.46,-38.43 3.44,-53.34 5.74,-45.88 22.66,-108.69"
     style="fill:none;fill-rule:evenodd;stroke:#006bb4;stroke-width:5stroke-linecap:butt;stroke-linejoin:round;stroke-miterlimit:4;stroke-dasharray:none;stroke-opacity:1" />
  <path
     id="path4559"
     d="m 3031.07,4232.5 31.55,-152.57 2.29,-24.09 -2.87,-22.66 -8.32,-24.95 -39.29,-126.18"
     style="fill:none;fill-rule:evenodd;stroke:#006bb4;stroke-width:1px;stroke-linecap:butt;stroke-linejoin:round;stroke-opacity:1" />
  <path
     id="path4561"
     d="m 3014.43,3882.05 -8.32,-28.1 -0.86,-28.68 4.59,-25.52 6.02,-18.93 9.18,-30.97 6.6,-17.21 8.6,-19.5 36.99,-68.83 8.89,-18.93 32.69,-82.88 6.31,-23.52 4.88,-15.2 14.05,-23.8 3.73,-14.34 7.74,-57.07 -1.15,-175.8 -11.76,-34.41 -0.86,-8.89 0.29,-6.88 30.11,-95.5"
     style="fill:none;fill-rule:evenodd;stroke:#006bb4;stroke-width:5;stroke-linecap:butt;stroke-linejoin:round;stroke-miterlimit:4;stroke-dasharray:none;stroke-opacity:1" />
  <path
     id="path4563"
     d="m 3172.16,3087.1 19.15,-66.24 5.27,-8.11 6.49,-7.3 9.13,-9.33 4.06,-8.72 30.42,-91.05 v -4.66 l -49.68,-183.52 -6.76,-30.44 1.7,-16.15 12.25,-69.33 4.16,-1.47 47.77,15.43 26.95,10.04 1.22,2.94 -8.82,19.6 -3.43,1.22 -21.31,-6.12 -49.48,-9.31 -3.43,2.45"
     style="fill:none;fill-rule:evenodd;stroke:#006bb4;stroke-width:1px;stroke-linecap:butt;stroke-linejoin:round;stroke-opacity:1" />
  <path
     id="path5319"
     d="m 5461.52,2382.49 -348.02,78.09 -43.8,14.19 -47.86,5.68 -28.8,12.98 -46.23,31.23 -51.51,29.2 -51.1,18.25 -19.47,7.3 -76.65,7.71 -52.32,-2.03 -49.07,-1.62 -22.71,2.03 -31.63,0.81 -46.23,8.52 -15.82,7.3 -8.52,12.57 -5.27,18.66 -11.76,16.22 -17.84,14.6 -15.41,8.52 -14.6,6.89 -16.63,-2.43 -17.03,-10.54 -15.82,-17.84 -7.98,-9.6 -14.77,-5.59 -18.22,-2.24"
     style="fill:none;fill-rule:evenodd;stroke:#0166a5;stroke-width:5;stroke-linecap:butt;stroke-linejoin:round;stroke-miterlimit:4;stroke-dasharray:none;stroke-opacity:1" />
  <path
     id="path5321"
     d="m 5435.28,2449.01 -8.69,16.84 -12.98,12.57 -8.52,12.17 -19.87,17.44 -38.12,19.87 -18.66,13.38 -14.19,1.62 -14.6,3.65 -25.96,-1.62 -6.08,2.43 -2.84,3.24 -8.92,20.28 -4.87,1.22 -7.71,-2.03 -7.71,2.84 -5.27,6.08 -5.27,12.57 -18.66,8.52 -7.3,6.49 -4.87,9.73 v 8.52 l 12.17,33.66 4.06,12.57 3.65,28.8"
     style="fill:none;fill-rule:evenodd;stroke:#0166a5;stroke-width:1px;stroke-linecap:butt;stroke-linejoin:round;stroke-opacity:1" />
  <path
     id="path5323"
     d="m 5559.02,2361.55 -39.15,76.31 -30.82,182.1 -6.08,12.98 -12.98,4.06 -15.82,3.24 -12.57,6.08 -67.73,81.52"
     style="fill:none;fill-rule:evenodd;stroke:#0166a5;stroke-width:5;stroke-linecap:butt;stroke-linejoin:round;stroke-miterlimit:4;stroke-dasharray:none;stroke-opacity:1" />
  <path
     id="path5439"
     d="m 5625.99,2109.76 -14.2,28.53 -11.91,21.89 -3.35,9.6 -1.22,27.98 8.52,38.12 0.81,23.12 -12.57,20.68 -4.87,14.19 -5.23,34.47 -57.57,110.7 -34.12,202.6 -20.45,101.03"
     style="fill:none;fill-rule:evenodd;stroke:#e3000b;stroke-width:5;stroke-linecap:butt;stroke-linejoin:round;stroke-miterlimit:4;stroke-dasharray:none;stroke-opacity:1" />
  <path
     id="path5675"
     d="m 5469.83,2742.68 -8.36,36.26 -32.85,53.94 -30.01,68.14 -3.45,13.38 3.45,24.54 -0.61,11.56 -2.84,2.43 -6.69,0.2 -2.64,-2.84 v -2.23 l 2.23,-2.03 h 7.3 l 3.24,-3.04"
     style="fill:none;fill-rule:evenodd;stroke:#e3000b;stroke-width:1px;stroke-linecap:butt;stroke-linejoin:round;stroke-opacity:1" />
  <path
     id="path5925"
     d="m 5562.87,2366.28 4.66,20.89 4.87,5.27 9.33,1.42 2.64,-1.82"
     style="fill:none;fill-rule:evenodd;stroke:#e3000b;stroke-width:5;stroke-linecap:butt;stroke-linejoin:round;stroke-miterlimit:4;stroke-dasharray:none;stroke-opacity:1" />
  <path
     id="path5927"
     d="m 5581.73,2393.86 2.64,-1.82 0.04,-13.13 1.86,-2.72 4.16,0.29 25.98,22.46 9.94,13.59 4.46,8.31 7.1,19.26 -0.61,3.45 -8.72,5.88 v 3.04 l 33.66,26.56 6.29,8.31 20.08,12.17 15.41,4.87 7.71,4.46 7.1,10.14 12.17,5.07 10.34,6.08 29.4,9.53 2.84,4.06 13.79,31.63 5.68,11.15 8.92,12.17 11.76,29.61 5.88,4.46 4.06,0.2 11.36,-1.42 3.04,1.22 10.34,25.96 5.27,4.66 2.03,6.08 1.42,18.45 2.84,2.64 11.96,-1.42 3.65,1.22 3.04,7.71 3.04,2.03 34.07,-16.63 h 5.68 l 2.43,5.48 -1.62,3.04 -4.87,0.41 -3.85,-5.27 -5.07,0.2"
     style="fill:none;fill-rule:evenodd;stroke:#e3000b;stroke-width:1px;stroke-linecap:butt;stroke-linejoin:round;stroke-opacity:1" />
  <path
     id="path5929"
     d="m 5628.57,2449.42 -18.45,18.05 -8.92,1.01 -21.7,26.36 -22.51,4.26 -18.25,11.76 -16.83,5.68 -11.56,7.3 -69.76,19.87 -12.37,-0.61 -15.21,-2.43 -16.83,0.81 -29.4,5.07 -5.68,-1.01 -2.23,-3.45 1.82,-13.59 -2.03,-5.68 -10.95,-19.47 -46.23,-175.81 -4.06,-10.34 -4.66,-11.15 -2.23,-16.83 -4.26,-4.87 -10.95,-3.65 -2.23,-3.45 3.85,-17.44 -1.22,-4.46 -12.17,-16.63 -7.1,-8.92 -1.62,-5.48 -0.2,-12.57 -3.65,-5.27 v -12.37 l 8.92,-15.82 13.79,-35.08 15.61,-50.09 -1.62,-5.88 -32.65,-41.77 -7.3,-35.89 -7.71,-14.8 -2.23,-6.49 -1.22,-10.75 11.56,-48.26 -1.62,-11.96 -20.48,-37.31 -3.65,-1.42 -15.21,4.06 -19.67,2.03 -31.03,23.73 -25.55,21.09 -13.99,5.48 -15.41,2.84 -27.58,-16.22 -12.78,-6.69 -12.98,-10.54 -5.27,-0.41 -18.86,12.37 -8.72,2.84 -1.52,2.53 0.2,5.88 -26.77,25.25 -3.95,-0.2"
     style="fill:none;fill-rule:evenodd;stroke:#e3000b;stroke-width:1px;stroke-linecap:butt;stroke-linejoin:round;stroke-opacity:1" />
  <path
     id="path6057"
     d="m 5631,2080.76 10.14,-9.94 20.68,-27.17 24.33,-9.73 h 5.68 l 17.44,-8.52 6.49,-21.9 4.87,-6.49 23.93,-10.54 12.57,-4.06 16.22,-11.36 7.71,-7.71 11.76,-2.43 11.76,-2.43 8.92,-8.52 6.08,-12.98 v -13.38 l -4.46,-11.36 0.41,-7.71 4.06,-6.08 11.36,-12.17 3.65,-13.38 4.87,-9.73 7.71,-4.06 14.6,-9.73 11.36,-9.33 2.43,-7.71 -3.65,-11.36 0.81,-7.3 51.51,-74.22 11.36,-10.95 4.87,-18.66 -11.76,-24.33 -16.63,-6.89 -5.68,-4.06 -7.71,-20.28 -0.81,-7.3 4.46,-7.3 14.6,-10.54 3.65,-32.04 v -35.28 l 4.06,-6.49 -0.81,-27.98 5.27,-12.57 12.98,-6.08 29.2,4.06 19.87,-4.06 14.6,3.24 45.83,-5.27 32.04,-12.98 17.84,-4.46 18.25,-12.57 28.39,-23.52 66.51,-21.9 30.01,-0.81 32.04,-13.79 13.38,-15.01 16.63,-28.39 10.49,-7.78 14.97,-6.29 5.53,3.15"
     style="fill:none;fill-rule:evenodd;stroke:#e3000b;stroke-width:1px;stroke-linecap:butt;stroke-linejoin:round;stroke-opacity:1" />
  <path
     id="path6059"
     d="m 6335.59,1361.24 22.91,52.71 14.91,29.18 6.48,8.73 34.02,16.21 24.41,28.15"
     style="fill:none;fill-rule:evenodd;stroke:#e3000b;stroke-width:5;stroke-linecap:butt;stroke-linejoin:round;stroke-miterlimit:4;stroke-dasharray:none;stroke-opacity:1" />
  <path
     id="path6323"
     d="m 7606.98,1895.06 -24.16,-34.79 -12.62,-16.63 -29.54,-15.2 -12.91,-11.76 -6.88,-12.62 -9.18,-62.23 -21.22,-172.64 9.75,-76.86 -23.52,-115.86 57.93,-209.64 94.64,-139.37 1.15,-8.03 -0.86,-25.24 -105.82,-181.24 -10.04,-58.22 -4.01,-7.17"
     style="fill:none;fill-rule:evenodd;stroke:#2e3092;stroke-width:5;stroke-linecap:butt;stroke-linejoin:round;stroke-miterlimit:4;stroke-dasharray:none;stroke-opacity:1" />
  <path
     id="path6469"
     d="m 6445.62,1490 -25.62,-29.75 -34.25,-15.88 -4.62,-7.25 -13.75,-26.38 -22.55,-52.99 -0.15,-0.35"
     style="fill:none;fill-rule:evenodd;stroke:#00a650;stroke-width:5;stroke-linecap:butt;stroke-linejoin:round;stroke-miterlimit:4;stroke-dasharray:none;stroke-opacity:1" />
  <path
     style="fill:none;fill-rule:evenodd;stroke:#a6ce38;stroke-width:5;stroke-linecap:butt;stroke-linejoin:round;stroke-miterlimit:4;stroke-dasharray:none;stroke-opacity:1"
     d="m 7460.13,2042.83 21.21,-27.22 48.08,-37.12 2.83,-9.19 -5.3,-24.75 8.13,-20.86 9.55,-17.68 12.37,-15.2 16.62,-1.06 34.29,-23.69 12.02,-40.31 16.62,-26.16 22.63,-21.92 45.61,-37.83 54.09,-29.34"
     id="path6759" />
  <path
     id="path6471"
     d="m 5639.15,996.13 19.81,15.81 3.76,1.31 27.08,-14 11.01,-7.28 5.99,-9.72 1.8,-11.69 -9.35,-57.69 -1.41,-18.21 3.71,-2.83 34.47,-0.53 21.57,4.24 11.49,-0.71 11.14,-2.12 14.67,-6.01 9.55,-7.25 7.07,-6.54 6.72,-7.42 52.5,-77.96 8.13,-14.67 3.36,-10.61 17.85,-122.68 1.41,-176.78 1.59,-7.07 17.5,-51.97 2.65,-6.19 8.13,-10.78 3.36,-2.83 9.37,-4.95 50.56,-18.21 3.92,0.77 9.44,21.38 23.83,12.18 22.17,7.13 14,-1 47.75,7.75 12.5,5.5 89,71.75 7.75,6.25 27,63.25 190.75,206.5 15.5,4.5 3.5,4.75 4.25,60.5 3.75,21 10.25,32.5 17.91,54.1 10.95,19.71 5.54,37.24 5.2,12.82 1.73,16.63 -7.62,36.38 -41.23,101.16 -28.75,44.69 -1.04,3.29 0.69,39.15 4.85,29.79 -2.6,39.49 -3.12,3.81 -64.61,17.32 -17.31,7.29 -15.49,6.28 -0.37,4.01"
     style="fill:none;fill-rule:evenodd;stroke:#00a650;stroke-width:1px;stroke-linecap:butt;stroke-linejoin:round;stroke-opacity:1" />
  <path
     id="path6761"
     d="m 7463.94,2045.95 21.47,-27.17 48.14,-37.18 3.7,-10.94 -5.05,-26.12 7.88,-20.11 8.42,-15.3 11.12,-14.2 15.87,-0.56 36.54,-24.81 12.65,-41.93 15.74,-24.66 22.13,-21.92 46.3,-38.02 52.55,-28.13"
     style="opacity:0.98;fill:none;fill-rule:evenodd;stroke:#3b8476;stroke-width:5;stroke-linecap:butt;stroke-linejoin:round;stroke-miterlimit:4;stroke-dasharray:none;stroke-opacity:1" />
  <path
     id="path6473"
     d="m 6340.19,1359.31 23.28,54.5 13.53,26.32 5.38,8.12 34.38,16.12 25.12,28.75 31.25,46.62"
     style="fill:none;fill-rule:evenodd;stroke:#81b8dc;stroke-width:5;stroke-linecap:butt;stroke-linejoin:round;stroke-miterlimit:4;stroke-dasharray:none;stroke-opacity:1" />
  <path
     id="path6475"
     d="m 6340.25,1360.19 0.12,-4.69 20,-8.19 1.38,-3.5 -44.84,-118.76 -23.33,-59.57 -9.33,-16.48 -66,-83.75 -11,-12 -52.5,-49 -15.75,-17.75 -6.75,-10.75 -11.5,-34.75 -31.25,-126.75 -21.25,-62.5 -41,-118.5 1,-34.25 -13.5,-66.75 -4.25,-10.75 -13.25,-20.25 -1.75,-9.25 -0.75,-9.25 3,-24.5 0.25,-13.5 11.25,-34 0.5,-13 -3.25,-15.5 -8,-18.25 1.25,-5 4.75,-2.5"
     style="fill:none;fill-rule:evenodd;stroke:#81b8dc;stroke-width:1px;stroke-linecap:butt;stroke-linejoin:round;stroke-opacity:1" />
  <path
     style="fill:none;fill-rule:evenodd;stroke:#ffcc00;stroke-width:5;stroke-linecap:butt;stroke-linejoin:round;stroke-miterlimit:4;stroke-dasharray:none;stroke-opacity:1"
     d="m 9886.45,1273.12 2.39,15.62 13.59,19.82 5.48,23.93 -1.42,30.21 3.85,12.98 2.43,4.06 42.79,27.58 12.78,25.35 9.33,10.24 11.86,25.25 6.59,26.16 29.2,50.39 8.31,10.24 6.39,4.46 10.04,2.53 59.21,-17.54 22.1,4.66 32.65,27.38 22.91,14.19 27.38,13.99 10.14,8.92 8.52,15.41 15.82,47.86 12.78,35.69 3.04,17.44 13.18,49.88 -0.81,20.28 v 12.78 l 3.04,22.1"
     id="path4944" />
  <path
     style="fill:none;fill-rule:evenodd;stroke:#ffcc00;stroke-width:1px;stroke-linecap:butt;stroke-linejoin:round;stroke-opacity:1"
     d="m 9886.8,1122.95 -1.41,-6.22 -38.12,-38.12 -4.06,-8.92 -5.07,-31.63 4.26,-24.13 1.62,-12.57 -1.43,-9.01 -3.2,-1.94 -3.46,0.56 -1.7,3.17 0.69,3.12 7.54,15.42"
     id="path5113" />
  <path
     style="fill:none;fill-rule:evenodd;stroke:#ca5f8f;stroke-width:5;stroke-linecap:butt;stroke-linejoin:round;stroke-miterlimit:4;stroke-dasharray:none;stroke-opacity:1"
     d="m 9876.84,1274.47 2.44,16.34 14.02,20.8 4.87,22.51 -1.22,30.42 3.35,13.69 5.37,8.62 42.58,27.58 13.38,25.15 8.11,9.33 10.34,21.5 7.1,26.56 29.61,52.12 2.03,4.46 -0.61,8.72 -3.65,8.52 -8.72,9.33 -18.25,6.29 -11.76,4.26 -6.89,9.13 -6.29,16.83 -11.56,46.84 -4.06,84.16 3.24,18.25 10.95,21.09 18.66,17.44 20.68,11.76 11.36,8.92 8.52,16.22 8.92,32.45 v 48.67"
     id="path5115" />
  <path
     style="fill:none;fill-rule:evenodd;stroke:#79ac2b;stroke-width:1px;stroke-linecap:butt;stroke-linejoin:round;stroke-opacity:1"
     d="m 10233.37,1508.71 33.26,-5.27 68.95,-0.41"
     id="path5117" />
  <path
     id="path5119"
     d="m 9851.79,1661.76 3.85,-11.61 5.97,-2.85 22.26,-0.09 62.86,-1.32 5.21,-3.78 5.74,-26.54 6.59,-17.14 7.91,-11.25 13.79,-4.97 17.14,-6.39 7.4,-7.81 2.94,-5.88 0.81,-6.49 -1.32,-3.95 -30.21,-52.62 -7.3,-26.97 -8.72,-19.37 -9.33,-10.54 -12.47,-24.64 -42.48,-26.97 -6.69,-10.85 -3.65,-13.99 1.12,-31.03 -4.46,-21.7 -14.12,-20.19 -2.74,-17.66 -4.01,-26.45 -4.71,-30.72 -0.17,-15.2 -3.12,-6.54 -6.67,-3.72 -45.34,5.33 -77,-2.51"
     style="fill:none;fill-rule:evenodd;stroke:#d20a11;stroke-width:5;stroke-linecap:butt;stroke-linejoin:round;stroke-miterlimit:4;stroke-dasharray:none;stroke-opacity:1" />
  <path
     style="fill:none;fill-rule:evenodd;stroke:#ca5f8f;stroke-width:1;stroke-linecap:butt;stroke-linejoin:round;stroke-miterlimit:4;stroke-dasharray:none;stroke-opacity:1"
     d="m 9130.57,829.58 23.52,5.74 h 17.21 l 79.72,-22.94 12.04,-8.03 h 8.03 3.44 l 6.31,1.43 26.1,18.64 24.09,37.57 12.62,15.49 6.02,12.62 20.65,47.03 18.64,16.35 35.85,60.51 24.2,11.7 12.57,3.65 4.46,3.65 2.03,21.9 11.36,19.47 20.28,24.74 10.95,23.52 9.73,13.79 8.11,20.68 2.03,15.41 -0.81,17.44 -5.27,4.87 -7.3,3.65 -1.22,6.49 3.24,6.08 9.33,2.43 66.11,-16.63 34.07,-6.08 51.91,1.22 50.5,-1.62"
     id="path5287" />
  <path
     style="fill:none;fill-rule:evenodd;stroke:#79ac2b;stroke-width:5;stroke-linecap:butt;stroke-linejoin:round;stroke-miterlimit:4;stroke-dasharray:none;stroke-opacity:1"
     d="m 10335.58,1503.03 76.89,-0.38 102.95,-32.98 160.4,-41.6 7.37,1.16"
     id="path5463" />
  <path
     style="fill:none;fill-rule:evenodd;stroke:#79ac2b;stroke-width:1px;stroke-linecap:butt;stroke-linejoin:round;stroke-opacity:1"
     d="m 10683.19,1429.23 6.6,2.87 8.89,28.96 6.31,13.19 7.46,12.62 13.77,28.39 16.92,22.37 20.93,33.84 10.04,9.18 15.2,30.97 2.87,13.48 6.02,16.92 4.3,23.52"
     id="path5465" />
  <path
     style="fill:none;fill-rule:evenodd;stroke:#756fb3;stroke-width:5;stroke-linecap:butt;stroke-linejoin:round;stroke-miterlimit:4;stroke-dasharray:none;stroke-opacity:1"
     d="m 4361.17,2452.87 10.54,17.03 5.68,16.63 3.24,59.62 7.3,26.77 17.44,31.23 -0.41,11.56 -4.46,10.14 -14.7,3.04 -27.74,-3.07 -13.79,2.47"
     id="path5819" />
  <path
     style="fill:none;fill-rule:evenodd;stroke:#756fb3;stroke-width:1px;stroke-linecap:butt;stroke-linejoin:round;stroke-opacity:1"
     d="m 4361.17,2452.87 -19.81,-44.29 -7.17,-40.72 -2.58,-24.66 5.16,-28.96 3.73,-12.91 2.58,-21.8 41.87,-83.74 0.86,-10.9 2.29,-2.29 3.73,-3.44 h 2.87 l 11.76,10.32 6.88,2.87 8.32,2.29 6.6,0.86 56.21,-12.33 9.18,-1.43 12.33,-4.88 21.8,-4.88 21.8,-20.93 3.73,-1.72 3.44,2.29 2.29,6.88"
     id="path5821" />
  <path
     style="fill:none;fill-rule:evenodd;stroke:#756fb3;stroke-width:1px;stroke-linecap:butt;stroke-linejoin:round;stroke-opacity:1"
     d="m 3920.37,2958.48 98.51,1.86 4.73,1.86 11.18,-0.29 5.74,-1.43 6.02,-4.59 18.35,-27.24 11.9,-5.45 13.77,-19.07 4.01,-16.63 v -41.3 l 6.45,-16.2 2.87,-42.73 8.03,-26.67 7.46,-9.32 5.16,-16.2 5.74,-9.18 7.03,-17.92 1.81,-10.28 2.25,-2.24 39.84,9.52 5.39,-0.75 15.38,-7.78 22.1,-5.13 76.37,1.77 1.68,-1.24 0.97,-3.01 -8.4,-14.76 -9.19,-25.63 3.36,-4.86 30.41,-7.42 10.87,-3.36 5.21,-3.36 8.92,-1.17"
     id="path5823" />
  <path
     style="fill:none;fill-rule:evenodd;stroke:#b7037f;stroke-width:5;stroke-linecap:butt;stroke-linejoin:round;stroke-miterlimit:4;stroke-dasharray:none;stroke-opacity:1"
     d="m 5733.21,2306.05 20.68,-8.52 24.74,-12.98 63.27,-18.25 19.87,-5.27 16.63,-9.33 30.42,-27.17 36.1,-26.77 47.86,-27.98 61.24,-37.31 21.5,-10.95 10.95,-4.06 36.1,-2.84 42.99,-1.62 55.16,-6.89"
     id="path7973" />
  <path
     style="fill:none;fill-rule:evenodd;stroke:#b7037f;stroke-width:1px;stroke-linecap:butt;stroke-linejoin:round;stroke-opacity:1"
     d="m 6220.7,2106.11 3.65,-4.06 2.43,-7.5 1.42,-24.54 5.48,-16.22 10.75,-20.89 16.02,-16.43 2.84,0.81 1.82,4.46 3.04,0.41 50.09,-29.61 1.42,-4.26 11.36,-9.13 14.8,-6.29 0.81,-3.85 13.99,-7.1 16.83,-1.22 0.81,1.22 0.61,9.13 1.42,6.08 -0.81,0.61 -8.72,0.41 -9.33,2.23 -5.48,2.43 -2.23,1.83 -5.88,1.22 -7.5,3.24 -7.1,5.48 -4.26,4.06 h -1.62 l -6.29,-5.07 -2.84,-1.01"
     id="path7975" />
  <path
     style="fill:none;fill-rule:evenodd;stroke:#b7037f;stroke-width:1px;stroke-linecap:butt;stroke-linejoin:round;stroke-opacity:1"
     d="m 6244.42,2032.91 -25.35,16.22 -10.75,9.94 -5.27,19.06 1.62,3.65 4.46,2.43 13.18,12.57 2.03,5.27"
     id="path7977" />
  <path
     style="fill:none;fill-rule:evenodd;stroke:#b7037f;stroke-width:1px;stroke-linecap:butt;stroke-linejoin:round;stroke-opacity:1"
     d="m 6220.7,2106.11 1.82,2.64 -17.24,49.28 2.03,33.26 h 3.85 l 31.03,-20.68 7.1,-2.64 3.65,0.61 13.79,13.79 8.31,14.4 2.84,13.38 -1.01,11.96 -7.5,11.96 -9.53,12.98 v 4.26 l 1.01,4.87 2.43,1.22 4.87,2.43 5.68,-2.23 18.66,-15.21 0.2,-2.64 -5.27,-9.13 1.62,-4.26 11.36,-6.29 9.33,-8.31 7.3,-11.96 5.68,-12.78 8.72,-9.33 15.21,-23.12 7.91,-26.56 -0.81,-4.26 7.91,-23.73 8.11,-5.27 16.02,-8.11 7.1,1.01 31.43,-22.1 1.42,0.81 -3.45,26.97 -1.62,0.81 -27.78,-6.49"
     id="path7979" />
  <path
     style="fill:none;fill-rule:evenodd;stroke:#b7037f;stroke-width:1px;stroke-linecap:butt;stroke-linejoin:round;stroke-opacity:1"
     d="m 5734.42,2306.31 -5.51,-0.39 -9.3,-7.54 -36.77,-14.56 -15.73,-10.94 -12.37,0.56 -7.6,5.59 -21.72,9.75 -36.13,11.76"
     id="path7981" />
  <path
     id="path6002-3"
     d="m 4118.84,2206.29 -14.65,15.6 -4.3,46.74 2.01,5.16 7.46,10.9 1.15,7.74 -12.9,30.97 1.43,5.74 7.74,12.33 16.35,9.46 31.26,31.83 10.04,24.95 23.8,21.22 1.72,4.88 -10.61,8.6 -0.29,4.3 20.07,38.43 14.63,19.5 12.62,10.32 39.58,71.69 7.75,6.57"
     style="fill:none;fill-rule:evenodd;stroke:#e3000b;stroke-width:1px;stroke-linecap:butt;stroke-linejoin:round;stroke-opacity:1" />
  <path
     id="path6467"
     d="m 6473.12,1539.75 4.44,3.32 16.19,9.93 31.25,18.75 8.5,7.5 16.5,40.75 21.25,19.25 14.75,8.25 44.75,12.5 3,2.25 0.5,9 10.75,40.75 15.25,18.5 7.75,17.25 11.5,11.75 8.5,9.75 5.75,6 3.75,6.25 1.75,19 6.25,16.5 47,15.5 15.5,3.25 16,18 7.75,13.75 14.5,3.75 16.5,0.75 21.5,-4 38.75,4.5 17.25,9.75 22.25,3.5 29.75,2.75 18.5,-4 22,-9 72.75,-25.75 20,-4 11.5,-2 26.25,-2 26,-1 8.75,-4.25 6,-3.5 h 7.25 l 10.75,7.75 14.25,11 10.75,5.25 9,3.25 34.25,-2 14.75,0.75 22.5,2.75 19,5.99 6.08,5.07 1.42,23.62 3.45,17.34 4.36,1.27 42.18,-15.82 141.8,-51.88 29.93,-6.41 25.97,-0.98 5.63,2.45 6.12,16.9 3.92,2.94 34.3,10.29 34.05,31.85 10.04,7.35 33.56,11.27 46.8,27.2 72.25,45.07 11.77,1.36 24.65,-2.45 15.45,-4.47 32.73,0.08 12.35,2 33.01,0.84 19.82,2.46 30.55,9.28 26.58,13.49 15.49,12.06"
     style="fill:none;fill-rule:evenodd;stroke:#81b8dc;stroke-width:1px;stroke-linecap:butt;stroke-linejoin:round;stroke-opacity:1" />
  <path
     style="fill:none;fill-rule:evenodd;stroke:#e3000b;stroke-width:1px;stroke-linecap:butt;stroke-linejoin:round;stroke-opacity:1"
     d="m 5502.72,2187.57 -3.43,5.14 -1.47,12.25 5.63,16.41 -0.24,7.59 -20.09,12.49 -45.56,16.17 -23.27,0.49 -30.87,6.37 -18.33,5.67 -10.72,2.54 -6.49,6.49 -11.85,24.55 -25.4,34.71 -22.01,3.1 -13.26,-1.13 -5.64,7.06 -15.24,-1.98 -11.85,-9.31 -14.67,1.13 -15.24,3.1 -9.03,-1.41 -14.39,0.56 -16.93,9.03 -41.2,5.36 -29.35,5.64 -76.76,6.49"
     id="path6201-3" />
  <path
     style="fill:none;fill-rule:evenodd;stroke:#f7931d;stroke-width:5;stroke-linecap:butt;stroke-linejoin:round;stroke-miterlimit:4;stroke-dasharray:none;stroke-opacity:1"
     d="m 9878.5,1285.5 -106,31.5 -45.5,19.5 -33,27 -22.5,20 -38.5,17 -64.5,7 -33,10.5 -5.92,7.52 -20.49,30.77 L 9499,1495.5 l -11,106.5 -8.5,52 -8.5,20 -6.5,18.5 -11,16.5 -23,20.5 -34.5,9 -65,3.5 -149.5,3.5 -168,-18 -150,-8.5 -23.5,1.5 -26.5,8.5 -32,15.5 -32,27.5 -35.5,41.5 -57,56 -61,26.5 -135.5,26 -89.5,-24.5 -149.5,-36 -48.5,-10.5 -121,-12 -75,-25 -55,-21.5 h -35 l -35,10.5 -80,45.5 -45.5,5 H 7674 l -39,14 -65.5,48.5 -132.5,94 -40.5,16 -206.5,65.5 -222,70.5 -169,89 -33.5,30 -15,24.5 -34,52 -66.5,62 -36,21.5 -39.5,15 -70,5 -69,22.5 H 6404 l -42.5,-19 -128.82,-97.92 L 6183,2325.5 l -24.5,-12 -62,-24.5 -50,-5 -77,-1.5 -53.5,-21.5 -58.5,-21.5 -42,-2 -72,0.5 -39,20 -44.5,35.5 -28.5,13.5 -72.5,9.5 -86.5,11.5 -36,-4 -99.5,-36 -136.5,-39 -26,-3.5 -39,3.5 -60.5,19 -48.5,17.5 -36,15.5 -34.5,29.5 -80.5,72 -36.5,23.5 -49,21 -75,20.5 -36.5,2 -74,-4.5 -22,4.5 -29.5,13 -23,24 -29.5,47.5 -23,27 -25.5,22 -29,15.5 -28.18,5.04 -18.21,0.18 -22.27,-3.01 -18.38,-9.19 L 4297,2588.5 l -24.5,-23 -98,-138.5 -30.5,-27 -39.5,-22 -104.5,-47 -35,-5 -64,10 -203.5,41 -175,46 -43,31 -127,95.5 -22.5,31.5 -28.5,59.5 -1,40 5.5,86.5 -13,63 -30,76.5 -1.5,27 52,632.5 46.73,614.43"
     id="path4888" />
  <path
     id="path5324"
     d="m 4033.84,1943.12 -151.67,230.52 -14.35,34.41 -5.27,29.34 5.14,24.91 14.97,26.98 18.87,16.95 26.62,13.79 L 3965,2326"
     style="fill:none;fill-rule:evenodd;stroke:#f7931d;stroke-width:5;stroke-linecap:butt;stroke-linejoin:round;stroke-miterlimit:4;stroke-dasharray:none;stroke-opacity:1" />
  <path
     style="fill:none;fill-rule:evenodd;stroke:#a6ce38;stroke-width:1px;stroke-linecap:butt;stroke-linejoin:round;stroke-opacity:1"
     d="m 7460.63,2041.08 -1.38,5.42 -18.25,25.38 -3.75,26.12 -134.25,172.25 -1.25,10.75 21,99.75 2.75,26.25 -2,15 -4.75,11.25 -54.25,46.5 -33.25,35.75 -71.25,58.5 -32.5,14.25 -42.5,28.25 -78.25,76.75 -9.25,15.75 -31,14.5 -16.5,14.5 h -4.75 l -15,-12.5 -7.25,-1.75 -17,0.75 -6.75,-2.5 -1.5,-2.75 -3.75,-14.25 -4.25,-3 -9.25,-2.5 -14.5,-1.5 -22.25,0.25 -15,-5.25"
     id="path6763" />
  <path
     id="path5328"
     d="m 6361.5,2464.5 19,31 10.5,58 8,19 14.5,24 14.5,16 24.5,18 23,10.5 40.5,4.5 29,-6 55.5,-19 30.5,-4 30.5,-1.5 38,12.5 26.5,20.5 43.5,34 53,22 25,22 28,54 19.5,30.5 11.5,36 22.5,218.5 7.5,19.5 17,17 15,4.5 19,4 81.5,-17.5 49.5,3.5 13.75,9.5 11.12,13.5 16.88,13.38 28.25,17.88"
     style="fill:none;fill-rule:evenodd;stroke:#f7931d;stroke-width:5;stroke-linecap:butt;stroke-linejoin:round;stroke-miterlimit:4;stroke-dasharray:none;stroke-opacity:1" />
  <path
     id="path5547"
     d="m 8949.52,1594.89 20.98,-23.39 28,-23.5 59.5,-42 108.5,-56.5 153,-74 30,-4 95,14.5 40.78,15.48 39.24,13.08 42.43,3.54 45.96,-7.07"
     style="fill:none;fill-rule:evenodd;stroke:#f7931d;stroke-width:5;stroke-linecap:butt;stroke-linejoin:round;stroke-miterlimit:4;stroke-dasharray:none;stroke-opacity:1" />
  <path
     id="path5553"
     d="m 12129.5,963 -70,-11 -31,0.5 -45.5,6.5 -25,2.5 -21,-4.5 -20.5,-16.5 -12,-13.5 -8,-21.5 -1,-15.5 8,-65 8.5,-18.5 14,-16 19,-13"
     style="fill:none;fill-rule:evenodd;stroke:#f7931d;stroke-width:5;stroke-linecap:butt;stroke-linejoin:round;stroke-miterlimit:4;stroke-dasharray:none;stroke-opacity:1" />
  <path
     id="path5775"
     d="m 5631.5,2307 15.5,6 13,12 16,88.5 2,364.5 -2.5,31.5 -10.5,31.5 -16,26 -24,36.5 -24,71 -13,25.5 -18.5,16.5 -21,14 -21.5,7.5 -55.77,18.5 -23.73,13.12 -19.33,20.88 -10.88,22.18 -4.24,26.87 2.45,116.45 7,20 10.5,21 0.5,15.5 -8.5,22.5 -21,27 -23,13 -44,16 -98,8 -20.5,7 -103,45.5 -19.5,19 -10,28.5 -3.5,30.5 -0.5,33 -10.5,37 -33.5,45 -68.5,61.5 -34,19 -62,48.5 -32,9 -24,17 -12,15.5 -13,50.5 -8.5,23.5 -28.5,29.5 -56,35 -31,7 -34,-2 -59,-15 -44.5,1 -35,15.5 -114,78.5 -33,39 -12.5,28 -170,513 -10,60.5 -45,126.5 -24,34.5 -21,20 -23,8.5 -133,5.5 -28,11 -18,15 -19.5,28.5 -110.5,263.5 -12,34.5 -23,17 -21.5,8.5 -30,-0.5 -144.5,-37.5 -15.5,-0.5 -13,4 -15.5,11 -5,8 -6,21.5"
     style="fill:none;fill-rule:evenodd;stroke:#f7931d;stroke-width:5;stroke-linecap:butt;stroke-linejoin:round;stroke-miterlimit:4;stroke-dasharray:none;stroke-opacity:1" />
  <path
     id="path6226"
     d="m 3521,5803 9.5,-13 8,-6 16,-5 78,-2 35.5,1.5 226,83 57,11 563.5,-6.5 386,23.5 184,37.5 48,2 49.5,2.5 138.5,51 30.5,6 41.5,1 173.5,-35 67,5 32,-1.5 122.5,-25.5 58.5,-23 31,-26.5 30,-41.5 38.5,-44 43.5,-34 123,-79.5 118,-79.5 30,-23 34.5,-15.5 27.5,-5.5 67.5,-3.5 28.5,-6 39.5,-15.5 19.5,-15.5 34.5,-45 20.5,-17 23,-7.5 25,-2 95,18.5 51,-6 26,-5 25,-14 27,-38.5 17,-17.5 58,-38 28.5,-4.5 37.5,2 17.5,-0.5 46,-13.5 38,-18.5 56.5,-39 75,-45.5 86.5,-45.5 106.5,-50 100,-58.5 18.5,-8.5 93,-19.5 10.06,-2.03 L 7689,5025 l 25.54,-7.14 109.6,-51.68 336.36,-152.61 51.09,-16.83 31.81,-7.3 29.05,-2.28 42.29,0.32 78.95,1.67 26.39,-2.14 26.37,-5.96 32.55,-16.25 34.9,-29.68 10.8,-11.14 23.84,-11.3 30.08,-10.53 26.97,-3.66 40.57,-1.17 17.8,-3.57 28.25,-10.9 31.43,-23.4 19.28,-25.93 11.98,-28.36 4.3,-29.88 -4.74,-36.92 -9.12,-39.07 -4.06,-26.65 2.66,-29.88 7.53,-26.68 14.83,-31.8 16.79,-20.73 69.75,-67.18 31.63,-26.33 55.52,-31.21 75.47,-37.19 374.34,-164.99 170.03,-79.82 77.42,-38.5 113.8,-56.81 47.03,-21.52 17.17,-14.2 25.36,-26.92 24.51,-30.41 8.01,-28.61 7.97,-45.33 1.82,-25.28"
     style="fill:none;fill-rule:evenodd;stroke:#f7931d;stroke-width:5;stroke-linecap:butt;stroke-linejoin:round;stroke-miterlimit:4;stroke-dasharray:none;stroke-opacity:1" />
  <path
     id="path6228"
     d="m 125,6238 23,-29.5 33.5,-23.5 43.5,-16 88.5,4 87.5,18 440.5,70 954.5,-42 444.5,-22 33.5,-6 99.5,-40 27,-17 25,-25.5 14,-20.5 14.5,-50.5 -5,-65 -6.5,-29.5 -1.5,-35.5 7,-14.5 17.5,-11.5 50.5,-21.5 22.5,3.5 19.5,11 134,187.5 17.5,13.5 26,11.5 28.5,-2 257,-90.5 29,-1 133.5,42 33.5,15.5 21.5,13 18.5,4.5 19.5,-4.5 110.5,-29 16,-14.5 25,-26 8.5,-18"
     style="fill:none;fill-rule:evenodd;stroke:#f7931d;stroke-width:5;stroke-linecap:butt;stroke-linejoin:round;stroke-miterlimit:4;stroke-dasharray:none;stroke-opacity:1" />
  <path
     id="path6913"
     d="m 6651.5,9379 -83,74 -14.5,7.5 -19,6 -302,32.5 -557.5,157.5 -18,9.5 -11.5,22 -1.5,23 6.5,20 -3.5,26 -19,32 -47,102 -25,42 -18.5,13 -34.5,7 -27.5,6 -23,9 -20.5,19.5 -24,48.5 -8,40 -10.5,40.5 -23.5,32.5 -26,14 -19.5,1 -77,-17.5 -56,-9.5 -94.5,-1 -12.46,-3.53 -8.14,-5.97 -65.89,-93 -18,-28.5 -12,-47 -16,-15.5 -33,-12.5 -20,-9.5 -13,-15 -2.5,-14 3.5,-28.5"
     style="fill:none;fill-rule:evenodd;stroke:#f7931d;stroke-width:5;stroke-linecap:butt;stroke-linejoin:round;stroke-miterlimit:4;stroke-dasharray:none;stroke-opacity:1" />
  <path
     id="path5556"
     d="m 6108.76,5714.84 99.36,-68.54 53.13,2.03 73,-45.02 100.58,-13.79 7.71,-5.27 4.87,-6.89 1.22,-43.4 2.03,-14.19 4.46,-6.08 12.17,-7.71 4.06,-6.89 3.24,-12.57 8.52,-19.87 13.79,-18.66 10.54,-3.24 23.52,-0.81 49.48,-15.82 28.8,4.06 12.98,10.14 17.44,2.43 12.17,-4.87 10.54,-6.49 14.6,-12.98 9.73,-3.65 17.84,2.84 7.3,-2.84 5.68,-7.71 7.71,-19.06 8.52,-7.71 36.91,-17.44 19.06,-9.73 16.22,-5.68 13.38,-14.19 21.09,-9.73 25.15,3.24 10.95,-2.03 12.57,-9.73 21.09,-8.52 12.98,0.81 9.73,7.3 15.82,19.47 8.92,5.68 8.52,-2.84 27.98,-25.55 6.08,-11.36 27.17,-20.28 8.92,-8.92 10.54,-17.84 39.75,-27.17 25.96,-0.81 16.63,-5.27 11.76,-15.41 19.06,-16.63 8.11,-12.98 9.33,-20.68 12.98,-6.08 16.22,-0.41 17.84,6.89 15.01,2.43 46.64,-10.54 37.72,-24.33 12.57,-11.36 6.89,-2.03 h 9.33 l 13.38,4.46 12.57,-0.81 7.71,-4.46 12.57,-10.14 8.52,-4.06 17.84,0.41 8.11,-4.06 5.27,-5.27 3.24,-16.22 5.27,-10.54 18.25,-10.95 11.36,-1.62 20.68,2.84 13.38,6.49 8.92,-2.43 11.36,-11.76 8.52,-3.65 16.63,0.41 38.93,-6.89"
     style="fill:none;fill-rule:evenodd;stroke:#4896d2;stroke-width:5;stroke-linecap:butt;stroke-linejoin:round;stroke-miterlimit:4;stroke-dasharray:none;stroke-opacity:1" />
  <text
     style="font-style:normal;font-weight:normal;font-size:144px;font-family:Sans;-inkscape-font-specification:Sans;fill:#000000;fill-opacity:1;stroke:none"
     xml:space="preserve"
     id="text3914"
     y="206.96"
     x="89.45"><tspan
       id="tspan1"
       y="206.96"
       x="89.45">1990</tspan></text>
  <text
     style="font-style:normal;font-weight:normal;font-size:144px;font-family:Sans;-inkscape-font-specification:Sans;fill:#000000;fill-opacity:1;stroke:none"
     xml:space="preserve"
     id="text3914-4"
     y="14697.96"
     x="89.45"><tspan
       id="tspan2"
       y="14697.96"
       x="89.45">1990</tspan></text>
  <path
     style="fill:none;fill-rule:evenodd;stroke:#e3000b;stroke-width:1px;stroke-linecap:butt;stroke-linejoin:round;stroke-opacity:1"
     d="m 5265.19,2166.16 1.13,4.8"
     id="path6205" />
  <path
     id="path4698"
     d="m 3986.22,2373.73 -2.54,-1.13 -7.62,-6.21 -3.67,-0.56 -6.21,7.62 0.85,3.1 15.52,-1.98 7.06,-1.41 9.6,-7.9 12.7,-11.01 3.39,-0.85 18.06,2.54 36.12,10.72 32.29,14.15 28.11,15.48 19.19,18.91 8.75,2.54 14.67,18.63 6.57,10.35"
     style="fill:none;fill-rule:evenodd;stroke:#e3000b;stroke-width:1px;stroke-linecap:butt;stroke-linejoin:round;stroke-opacity:1" />
  <path
     style="fill:none;fill-rule:evenodd;stroke:#e3000b;stroke-width:1px;stroke-linecap:butt;stroke-linejoin:round;stroke-opacity:1"
     d="m 4273.43,2597.17 0.28,-3.94 23.65,-17.92 83.66,-49.18 15.24,-5.93 64.34,-56.16 72.53,-35.84 41.2,-35.56 7.62,-10.16 65.47,-47.41 9.6,-11.85 49.67,-69.71 91.72,-115.99 3.42,-1.27 5.25,0.47"
     id="path4703" />
  <path
     id="path4701"
     d="m 4273.43,2597.17 0.82,12.24 10.43,33.36"
     style="fill:none;fill-rule:evenodd;stroke:#e3000b;stroke-width:5;stroke-linecap:butt;stroke-linejoin:round;stroke-miterlimit:4;stroke-dasharray:none;stroke-opacity:1" />
  <path
     id="path5482"
     d="m 4304.22,2688.48 4.6,0.71 35.56,-16.78 5.02,1.72 40.72,39.15 25.81,56.64 15.49,18.93 17.49,11.18 31.26,14.63 7.32,4.47"
     style="fill:none;fill-rule:evenodd;stroke:#e3000b;stroke-width:1px;stroke-linecap:butt;stroke-linejoin:round;stroke-opacity:1" />
  <path
     style="fill:none;fill-rule:evenodd;stroke:#e3000b;stroke-width:1px;stroke-linecap:butt;stroke-linejoin:round;stroke-opacity:1"
     d="m 4284.68,2642.77 0.98,3.45 9.96,27.49 8.6,14.77 13.14,14.31 0.17,8.47 -2.26,17.21 -17.78,38.1 1.41,2.54 12.42,5.08 1.98,4.23 -11.57,38.66 -6.77,18.91 -1.13,11.29 -5.93,30.48 3.1,6.77 6.49,2.82 3.95,-1.41 14.96,-4.8 40.36,3.67 13.55,-3.95 20.88,-11.57 17.21,-7.62 14.96,-11.29 10.44,-14.11 8.47,-2.82 22.86,-2.26 9.74,-3.81 7.55,-7.48 5.07,-0.77 36.85,22.49 8.03,2.58 12.62,2.01 14.34,18.35 54.49,12.04 13.19,0.29 17.34,-1.77 17.5,2.92 26.81,11.85 75.07,51.36 53.62,27.66 22.29,3.67 18.63,11.57 5.93,9.31"
     id="path5484" />
  <path
     style="fill:none;fill-rule:evenodd;stroke:#000000;stroke-width:5;stroke-linecap:butt;stroke-linejoin:round;stroke-miterlimit:4;stroke-dasharray:none;stroke-opacity:1"
     d="m 9450.61,1677.01 8.32,16.63 9.75,56.5 -9.46,30.69 -11.47,7.74 -21.51,5.16"
     id="path5640" />
  <path
     id="path4685"
     d="m 9886.8,1122.95 v 3.73 l -6.88,14.63 0.29,22.08 -2.87,29.82 0.57,24.09 4.79,30.92 3.74,24.9"
     style="fill:none;fill-rule:evenodd;stroke:#ffcc00;stroke-width:5;stroke-linecap:butt;stroke-linejoin:round;stroke-miterlimit:4;stroke-dasharray:none;stroke-opacity:1" />
  <path
     id="path4546-3"
     d="m 4950.5,8807 32.5,36 39,53.5 4,17 -3,390.5 6.5,13 -1,8.5 -4,2.5 -115,1.5 -8.5,3 -8,6.5 -5.25,13.5 -2.75,3.88 -0.62,1.88 26.25,41.38 37.88,83.88 2.5,8.31 3,42.69 5.69,29.93 4.09,8.01"
     style="fill:none;fill-rule:evenodd;stroke:#05a1e6;stroke-width:1px;stroke-linecap:butt;stroke-linejoin:round;stroke-opacity:1" />
  <path
     style="fill:none;fill-rule:evenodd;stroke:#80cc28;stroke-width:1px;stroke-linecap:butt;stroke-linejoin:round;stroke-opacity:1"
     d="m 4616.71,9300.31 -10.16,3.19 -5.51,5.23 1.81,4.47 4.14,1.37 2.87,-2.31 1.62,-8.04 5.23,-3.91 13.54,2.94 66,16.25 34.5,6 28,0.25 50.5,10.25 16,6.25 13.5,9.75 11.75,10 9.25,3.5 21.88,-7 1.94,0.19 26.44,41.81 37.62,83.19 2.43,8.44 2.97,42.37 5.7,30.12 -0.58,9.28"
     id="path5692" />
  <path
     style="fill:none;fill-rule:evenodd;stroke:#3b8476;stroke-width:1px;stroke-linecap:butt;stroke-linejoin:round;stroke-opacity:1"
     d="m 7465.25,2044 -5.41,3.46 -17.96,24.86 -3.62,26 -134.25,172.31 -1.31,10.81 21.06,99.06 2.75,26.56 -2,15.38 -4.62,11.06 -54.75,46.88 -33.62,36.31 -71.01,58.19 -32.48,14.14 -42.51,28.37 -77.78,76.32 -9.46,16.04 0.35,5.3 4.27,9.94 8.12,6.75 3.62,6.12 13.38,23 27,39.12 5,12.12 10.5,36.62 17.88,34.75 6.12,3.75 6.75,3.75 7.38,8.25 2.25,5.62 2,20.62 -1.75,26 -29.75,42.75 v 5 l 2.38,6.5 -1.5,5.25 -4.25,10.75 -1,16.75 3,12.25 5.38,10.12 8.38,8 20.38,14.5 17,15.12 15,19 14.75,11.75 34.88,22.25"
     id="path6765" />
  <path
     style="fill:none;fill-rule:evenodd;stroke:#f7931d;stroke-width:5;stroke-linecap:butt;stroke-linejoin:round;stroke-miterlimit:4;stroke-dasharray:none;stroke-opacity:1"
     d="m 6230.82,2364.91 16.97,27.58 2.12,12.37 -3.89,25.46 L 6181,2512.5 l -30,30.5 -32.5,104.5 -13.5,78 2.5,29 9.5,16 25,40 34,70 25,31.5 32.5,31 7.5,15 6,51 7,57.5 -3,18.5 -20,57.5 -13.5,55 v 32 l 60,132.5 15,20 19.5,13 21,8.5 23,3 24.5,-8 28,-17 113.5,-27.5 23.5,2 29.5,10 32.5,20 18.5,18.5 66,83 33.5,21.5 20,23 10,17.5 v 14.5 l -3,24 -16.5,29 -18,18 -54.5,39.5 -17,27 -10.5,22 -2.5,28.5 1.5,32.5 -4,19 -2.65,4.84"
     id="path5326" />
  <path
     style="fill:none;fill-rule:evenodd;stroke:#f7931d;stroke-width:5;stroke-linecap:butt;stroke-linejoin:round;stroke-miterlimit:4;stroke-dasharray:none;stroke-opacity:1"
     d="m 5083,2264.5 -26.5,-1.5 -20,-10 -15,-14.5 -8,-16 -4.5,-18.5 5.5,-112.5 -2,-17 -9,-16.5 -72,-130.5 -5.5,-21 -20.5,-88 -15.5,-20 -21,-11.5 -20,-4 -54.5,-4 -30,-14 -30.5,-36 -18,-32 -14.5,-57 -7,-47.5 5.5,-26.5 10.5,-20.5 39.5,-31 25,-41 52.5,-30 24.1,-33.47"
     id="path7378" />
  <path
     style="fill:none;fill-rule:evenodd;stroke:#79ac2b;stroke-width:1px;stroke-linecap:butt;stroke-linejoin:round;stroke-opacity:1"
     d="m 9881.6,1123.86 2.84,-6.73 -37.92,-37.93 -4.22,-9.2 -5.08,-31.84 4.17,-23.99 1.7,-12.81 -1.54,-9.67 -0.76,-22.98 89.83,-243.54 -2.84,-35.89 -4.66,-27.38 3.45,-160.2 -23.32,-129.98 2.43,-62.66 -3.45,-5.07 -15.01,-6.29 -51.51,-15.82 -25.55,-9.33 -26.56,-10.14 -75.23,-50.9 -5.27,-9.33 -19.47,-99.77 3.24,-3.24 13.38,-3.85"
     id="path10264" />
  <path
     id="path4656"
     d="m 5490.96,9822.74 2.58,1.51 1.09,-0.53 1.67,-3.25"
     style="fill:none;fill-rule:evenodd;stroke:#9e7b65;stroke-width:1px;stroke-linecap:butt;stroke-linejoin:round;stroke-opacity:1" />
  <path
     id="path4658"
     d="m 5489.39,9826.46 6.54,0.8 14.42,-26.6 2.77,-0.35 15.26,4.31 18.8,10.29 3.8,1.22 6.61,0.49 163.49,-53.81 11.91,2.61 27.44,7.47 20.42,5.78 9.55,-1.15 43.03,-31.28"
     style="fill:none;fill-rule:evenodd;stroke:#4dbd38;stroke-width:1px;stroke-linecap:butt;stroke-linejoin:round;stroke-opacity:1" />
  <path
     id="path4667"
     d="m 5486.79,9830.79 7.04,0.22 2.7,-3 3.33,-5.73"
     style="fill:none;fill-rule:evenodd;stroke:#05a1e6;stroke-width:1px;stroke-linecap:butt;stroke-linejoin:round;stroke-opacity:1" />
  <path
     style="fill:none;fill-rule:evenodd;stroke:#79ac2b;stroke-width:5;stroke-linecap:butt;stroke-linejoin:round;stroke-miterlimit:4;stroke-dasharray:none;stroke-opacity:1"
     d="m 9881.9,1122.91 v 3.34 l -6.63,14.17 -1e-4,23.1 -2.74,29.38 0.5,23.9 10.89,72.6 13.94,20.39 5.31,24.09 -1.29,30.54 3.15,11.47 3.87,7.31 43.11,27.75 12.67,25.02 9.03,9.89 11.18,23.8 6.74,25.95 30.11,52.19 8.32,10.61 10.75,6.45 10.32,1.72 81.16,-23.8 22.66,-10.61 26.92,-12.12 51.51,-11.36"
     id="path5282" />
  <path
     id="path5286"
     d="m 9731.08,1190.35 76.57,2.58 46.17,-5.45 9.75,5.16 4.33,8.95 0.21,15.72 8.73,57.15"
     style="fill:none;fill-rule:evenodd;stroke:#ca5f8f;stroke-width:5;stroke-linecap:butt;stroke-linejoin:round;stroke-miterlimit:4;stroke-dasharray:none;stroke-opacity:1" />
  <path
     id="path5485"
     d="m 9732.8,1195.06 -12.64,-3.26 -39.57,1.07 -51.85,-1.22 -33.46,6.08 -66.78,16.63 -10.06,-2.49 -3.55,-6.76 1.4,-7.16 7.79,-4.14 4.66,-4.25 0.81,-17.07 -2.09,-15.29 -7.93,-20.26 -9.61,-13.54 -11.13,-23.71 -20.22,-24.8 -11.54,-19.96 -1.91,-21.47 -3.85,-3.28 -4.34,-1.43 -8.24,-2.19 -24.63,-11.98 -35.79,-60.51 -18.76,-16.41 -20.43,-46.54 -3.86,-7.76 -2.38,-5.29 -12.62,-15.49 -23.91,-37.38 -25.97,-18.52 -2.08,-0.52 -4.04,-0.85 -10.61,-0.12 -12.29,8.09 -79.79,22.94 -17.82,0.06 -23.33,-5.8"
     style="fill:none;fill-rule:evenodd;stroke:#d20a11;stroke-width:1px;stroke-linecap:butt;stroke-linejoin:round;stroke-opacity:1" />
  <path
     id="path5261"
     d="m 6950.94,13470.66 -21.09,-6.06 -23.66,1.35 -14.87,-6.76 -6.76,-10.14 -11.83,-19.27 -13.86,-9.46 -49.68,-33.8 -16.56,-5.07 -21.29,-6.42 -20.62,-7.1 -15.21,-3.38 -8.45,-6.42 -5.07,-9.12 -8.45,-34.47 -37.18,-82.13"
     style="fill:none;fill-rule:evenodd;stroke:#4cb848;stroke-width:5;stroke-linecap:butt;stroke-linejoin:round;stroke-miterlimit:4;stroke-dasharray:none;stroke-opacity:1" />
  <path
     id="path4702"
     d="m 5377.75,10527.75 h 4.75 l 12.75,-8 10.5,-0.5 13.25,1.75 9,3.25 65.75,46.25 21.5,22 20.25,15.5 19.75,11.5 9.25,7.75 11,11.25 9.25,12.25 17.25,23 11.5,10.25 58.5,49.5 75,42.75 11.5,1 79,-9.25 14.25,1 15.25,6.25 13.75,12.75 109.5,101.5 9.75,12.75 8,17 3.75,14.5 11,57 1,35.75 -3.75,7.75 -14.25,30.5 -2,14 3.5,12 18.5,33.25 5,12.75 3.25,17 -3,14.75 -6.75,14.75 -100.5,105"
     style="fill:none;fill-rule:evenodd;stroke:#f68c58;stroke-width:5;stroke-linecap:butt;stroke-linejoin:round;stroke-miterlimit:4;stroke-dasharray:none;stroke-opacity:1" />
  <path
     id="path4704"
     d="m 5377.75,10527.75 v 0 l -10.43,-7.61 -9.39,-6.94 -9.59,-17.56 -14.9,-17.76 -17.76,-15.92 -25.11,-25.72 -28.99,-27.76 -15.11,-21.23 -21.43,-36.95 -14.29,-17.56 -10.41,-10 -7.14,-7.55 -15.31,-32.66 -3.27,-13.06 -1.43,-9.39 v -28.58 l 3.06,-12.66 -1.24,-6.29 -7.05,-0.55 -76.97,6.63 -16.52,7.04 -12.41,0.08 -11.61,4.26 -5.01,2.35"
     style="fill:none;fill-rule:evenodd;stroke:#f68c58;stroke-width:1px;stroke-linecap:butt;stroke-linejoin:round;stroke-opacity:1" />
  <path
     id="path4706"
     d="m 4408.06,10393.47 -2.55,3.16 -14.6,25.93 -14.09,16.33 -11.84,8.16 -11.43,5.31 -176.38,26.34 -322.14,93.5 -92.07,21.43 -12.86,1.43"
     style="fill:none;fill-rule:evenodd;stroke:#f68c58;stroke-width:5;stroke-linecap:butt;stroke-linejoin:round;stroke-miterlimit:4;stroke-dasharray:none;stroke-opacity:1" />
  <path
     id="path4708"
     d="m 3750.1,10595.07 -7.76,1.23 -29.19,11.64 -33.28,10.41 -54.51,2.65 -54.91,10.41 -3.47,2.04 -8.17,8.17 -14.7,6.74 -8.57,6.94 -2.45,2.86 -19.19,38.38 -11.64,12.66"
     style="fill:none;fill-rule:evenodd;stroke:#f68c58;stroke-width:1px;stroke-linecap:butt;stroke-linejoin:round;stroke-opacity:1" />
  <path
     style="fill:none;fill-rule:evenodd;stroke:#f7931d;stroke-width:5;stroke-linecap:butt;stroke-linejoin:round;stroke-miterlimit:4;stroke-dasharray:none;stroke-opacity:1"
     d="m 3813.5,6149.5 233,219.5 799,1273 16.34,37.42"
     id="path11058" />
  <path
     style="fill:none;fill-rule:evenodd;stroke:#ed1c24;stroke-width:1px;stroke-linecap:butt;stroke-linejoin:round;stroke-opacity:1"
     d="m 4577.65,10206.55 -2.46,2.37 -5.12,33.2 -0.51,39.77 4.72,45.23 3.86,15.04 -3.03,5.41 -20.29,13.85 -5,1.33 -68.9,9.9 -21.84,7.86 -27.56,8.98 -10.92,3.16 -11.43,0.1 -1.94,1.63"
     id="path12548" />
  <path
     id="path12552"
     d="m 5222.97,10263.31 9.81,-5.11 2.8,-5.06 4.36,-17.01 1.52,-28.68 3.06,-3.31 3.67,-0.61"
     style="fill:none;fill-rule:evenodd;stroke:#f5777b;stroke-width:1px;stroke-linecap:butt;stroke-linejoin:round;stroke-opacity:1" />
  <path
     id="path12554"
     d="m 5564.5,10165.5 12.62,4.36 6.84,6.24 11.95,34.64 -2.17,22.52 v 9.18 l 6.24,10.57 6.92,3.34 33.27,7.23 38.11,3.64 32.39,14.9 7.62,1.56 60.63,3.72 10.22,3.72 41.49,26.85 13.49,1.58 20.11,0.84"
     style="fill:none;fill-rule:evenodd;stroke:#ed1c24;stroke-width:5;stroke-linecap:butt;stroke-linejoin:round;stroke-miterlimit:4;stroke-dasharray:none;stroke-opacity:1" />
  <path
     style="fill:none;fill-rule:evenodd;stroke:#80cc28;stroke-width:1px;stroke-linecap:butt;stroke-linejoin:round;stroke-opacity:1"
     d="m 4949.72,8807.61 32.5,36 38.87,53.28 3.91,16.57 -3,390.8 6.46,13.04 -0.87,7.68 -3.44,2.07 -114.65,1.46 -8.98,3.04 -8.39,7.02 -5.29,13.5 -2.66,3.75 -1.01,3.13"
     id="path12740" />
  <path
     id="path12929"
     d="m 4924.53,10755.55 -9.68,-0.88 -1.96,-2.08 -4.82,-14.02 -15.91,-84.37 -1.55,-24.7 2.43,-17.34 0.04,-8.7 -1.54,-7.64 -4.82,-10.47 -0.89,-6.15 3.18,-44.9 5.22,-21.13 0.09,-8.39 -10.91,-30.75 -1.37,-9.64 1.41,-7.96 3.94,-6.95 11.45,-15.08 33.53,-48.29 7.91,-11.31 -0.05,-6.36"
     style="fill:none;fill-rule:evenodd;stroke:#80cc28;stroke-width:1px;stroke-linecap:butt;stroke-linejoin:round;stroke-opacity:1" />
  <path
     id="path4656-3"
     d="m 5485.42,9835.13 4.52,-0.25 5.01,-9.81 13.84,-25.35 8.94,-38.28 6.43,-12.8 10.84,-15.25 24.01,-28.11 6.43,-14.27 30.8,-55.67 -0.12,-10.78"
     style="fill:none;fill-rule:evenodd;stroke:#9c8dce;stroke-width:1px;stroke-linecap:butt;stroke-linejoin:round;stroke-opacity:1" />
  <path
     id="path4783"
     d="m 10243.11,735.9 16.43,-7.1 44.41,-13.59 81.52,1.01 24.33,4.87 11.76,3.24 22.71,13.79 51.51,38.93 14.6,8.11 14.6,3.65 27.58,3.24 31.63,6.08 56.37,-2.43 10.54,-4.06 13.79,-8.52 6.49,-11.76 2.43,-12.98 0.41,-63.67 7.3,-44.61 8.11,-21.5 9.33,-13.79 9.33,-8.92"
     style="fill:none;fill-rule:evenodd;stroke:#ee7203;stroke-width:5;stroke-linecap:butt;stroke-linejoin:round;stroke-miterlimit:4;stroke-dasharray:none;stroke-opacity:1" />
  <path
     style="fill:none;fill-rule:evenodd;stroke:#ee7203;stroke-width:1px;stroke-linecap:butt;stroke-linejoin:round;stroke-opacity:1"
     d="m 9817.35,1424.25 -24.74,1.1 -3.06,2.33 0.86,17.39"
     id="path6292" />
  <path
     style="fill:none;fill-rule:evenodd;stroke:#ee7203;stroke-width:1px;stroke-linecap:butt;stroke-linejoin:round;stroke-opacity:1"
     d="m 9622.68,2053.55 10.32,-8.03 6.02,-6.6 2.01,-8.89 0.86,-27.53 2.58,-14.05 -2.87,-48.47 -0.86,-16.63 5.74,-20.65 1.43,-30.11 -3.44,-10.32 -7.46,-6.6 -8.03,-2.87 -7.17,-4.01 -3.73,-7.17 -0.29,-6.31 4.88,-32.69 4.3,-9.18 8.03,-12.62 3.73,-4.88 5.16,-4.01 37.28,-83.17 36.31,-45.61 17.74,-22.33 12.13,-16.28 25.98,-24.6 28.41,-24.25 2.43,-4.85 -13.29,-88.63 -0.49,-17.15 26.95,-20.82 74.23,-3.43 3.18,-2.69 16.9,-28.66 6.37,-55.85 3.18,-2.45 h 18.62 l 20.82,-3.43 39.93,1.96 12.25,2.2 4.41,-3.67 2.45,-23.52 -1.23,-22.54 -9.96,-38.44 -3.59,-3.28 -27.26,-2.2 -3.05,-4.96 1.75,-15.01 1.04,-14.2 2.42,-27.71 23.8,-95.72 15.21,-65.5 12.57,-58.4 3.65,-27.17 8.52,-18.66 13.38,-16.63 17.44,-9.73 23.93,-11.76 32.85,-20.68 17.44,-17.84 34.88,-43.8 44.41,-41.16 15.21,-13.38"
     id="path4674" />
  <path
     style="fill:none;fill-rule:evenodd;stroke:#554596;stroke-width:5;stroke-linecap:butt;stroke-linejoin:round;stroke-miterlimit:4;stroke-dasharray:none;stroke-opacity:1"
     d="m 10245.01,740.58 15.91,-7.1 44.06,-13.76 81,1.19 21.91,4.87 11.41,2.72 21.67,12.92 51.33,39.11 15.99,8.98 16.51,3.65 25.85,3.42 32.5,6.6 58.11,-2.95 11.93,-4.06 14.66,-9.38 8.22,-14.19 2.78,-13.67 0.41,-63.67 7.47,-45.13 6.9,-19.07 9.5,-13.62 8.46,-7.71"
     id="path7834" />
  <path
     id="path7836"
     d="m 10246.74,740.15 -8.96,1.59 -9.63,8.67 -43.89,40.56 -34.97,43.89 -17.87,18.28 -32.85,20.6 -23.5,11.5 -17.27,9.65 -13.47,16.63 -8.26,17.96 -3.82,27.61 -12.66,59.09 -15.12,64.81 -23.71,95.2 -2.34,28.15 -1.21,15.16 -1.58,13.63 2.62,4.36 27,2.03 4.11,3.71 10.13,38.96 1.14,22.88 -2.54,23.52 -5.1,4.37 -12.85,-2.29 -39.5,-1.96 -20.91,3.52 h -18.18 l -2.75,1.93 -6.2,55.77 -17.16,29.01 -21.11,64.19 -8.84,14.76 2.08,54.22 10.91,66 0.87,13.16 -0.52,9.01 -3.9,4.16 -14.19,0.23 -7.53,3.8 -4.29,12.21"
     style="fill:none;fill-rule:evenodd;stroke:#554596;stroke-width:1px;stroke-linecap:butt;stroke-linejoin:round;stroke-opacity:1" />
  <path
     style="fill:none;fill-rule:evenodd;stroke:#f24dae;stroke-width:1px;stroke-linecap:butt;stroke-linejoin:round;stroke-opacity:1"
     d="m 4757.92,10002.54 -2.75,-6.03 -13.53,-9.69 -17.87,-14.42 -33.6,-19.49 -140.76,-88.25"
     id="path10224" />
  <path
     id="path5799"
     d="m 5625.99,2109.76 1.97,-9.94 3.04,-19.06 1.83,-39.95 -6.89,-24.94 -7.3,-16.63 -15.61,-13.59 -12.78,-14.6 -8.92,-39.54 -13.79,-54.95 -26.15,-50.64 2.44,-17.57 2.07,-38.73 -4.26,-30.66 -1.1,-13.9 6.54,-42.96 0.53,-11.84 -3.36,-7.6 -11.31,-44.37 -5.13,-142.31 -0.9,-21.8 -4.01,-67.68 -3.44,-65.1 20.07,-166.04 3.44,-14.05 41.01,-82.88 16.06,-14.34 63.57,-30.07 26.52,-13.85 11.43,-7.39 6.31,-10.32 1.7,-11.78 -4.19,-25.59"
     style="fill:none;fill-rule:evenodd;stroke:#e3000b;stroke-width:1px;stroke-linecap:butt;stroke-linejoin:round;stroke-opacity:1" />
  <path
     style="fill:none;fill-rule:evenodd;stroke:#80cc28;stroke-width:1px;stroke-linecap:butt;stroke-linejoin:round;stroke-opacity:1"
     d="m 5027.59,9324.98 6.15,-2.65 2.33,1.36 0.35,3.03 -3.03,2.77 -7.36,-0.69 -4.16,-1.82"
     id="path12740-6" />
  <path
     style="fill:none;fill-rule:evenodd;stroke:#4dbd38;stroke-width:1px;stroke-linecap:butt;stroke-linejoin:round;stroke-opacity:1"
     d="m 4900.74,10332.03 -0.37,3.83 -10.46,11.73 -14.06,0.27 -197.6,301.28 v 0 l -24.75,39.38"
     id="path5696-7" />
  <path
     id="path6912"
     d="m 8185,1189 -9.75,3 -8.06,5.44 -28.94,22.56 -13.75,15.25 -5,10.75 -10.25,7 -11.25,18.25 -45.75,66.5 -21,21.5 -3,8.5 -3.5,23 -6,16 -6,7.25 -38.5,47 -20,29.25 -6.25,15.75 -1.88,11 0.62,11.25 2,12.25 -0.75,11.5 -2.25,15.75 -20.25,33 -6,11.5 -0.75,15.75 1,24.75 -1,5.25 -2.75,2.75 -30.75,-1.5 -13,1 -11.25,4.25 -26.12,12.75 -32.88,11.5 -39.6,21.47 -5.39,0.64"
     style="fill:none;fill-rule:evenodd;stroke:#a6ce38;stroke-width:1px;stroke-linecap:butt;stroke-linejoin:round;stroke-opacity:1" />
  <path
     style="fill:none;fill-rule:evenodd;stroke:#3b8476;stroke-width:1px;stroke-linecap:butt;stroke-linejoin:round;stroke-opacity:1"
     d="m 8185.25,1189.94 -9.38,2.94 -8.06,5.38 -28.88,22.5 -13.44,14.81 -5.25,11.19 -10.44,7.19 -11.25,18.12 -45.06,65.69 -21.44,22.06 -2.88,8.31 -3.44,23 -6.12,16.25 -5.75,7.06 -38.75,47 -20,29.38 -6.19,15.44 -1.94,10.75 0.81,11.38 2,11.69 -0.81,12.31 -2.25,15.75 -20.19,32.81 -6,11.81 -0.75,15.19 1,24.69 -1,5.81 -3.19,3.25 -31.38,-1.56 -12.62,1.12 -11.38,4.31 -26.06,12.75 -32.5,11.19 -39.81,21.64 -3,4.85"
     id="path6914" />
  <path
     id="path4560"
     d="m 1753.49,3530.05 5.37,29.79 3.98,16.11 -1.04,45.56 4.68,21.65 1.56,14.38 -1.73,17.67"
     style="opacity:1;fill:none;fill-opacity:1;fill-rule:nonzero;stroke:#f49392;stroke-width:5;stroke-linecap:butt;stroke-linejoin:round;stroke-miterlimit:4;stroke-dasharray:none;stroke-opacity:1" />
  <path
     id="path4566"
     d="m 1753.49,3530.05 -3.29,-10.39"
     style="opacity:1;fill:none;fill-opacity:1;fill-rule:nonzero;stroke:#f49392;stroke-width:1;stroke-linecap:butt;stroke-linejoin:round;stroke-miterlimit:4;stroke-dasharray:none;stroke-opacity:1" />
  <path
     id="path4568"
     d="m 1766.31,3675.2 -1.91,25.46 -7.45,20.61 -2.6,8.14 -12.47,20.44 -1.04,4.5 1.21,5.72 7.28,19.23 5.02,10.74 v 4.5 l 7.45,13.16 7.45,22.69 -0.35,3.98 -6.06,10.57 -4.85,14.2 -1.56,9.18 -1.91,29.27 1.91,1.73 15.24,0.52 9.35,2.77 4.85,5.72 1.91,4.68 -1.39,22.17 -5.72,8.66 -502.16,182.92 -0.75,2.17 31.53,104.84 0.05,6.24 -3.49,6.12 -19.2,12.45 -14.03,6.41 -75.52,178.24 -3.98,11.43 -4.5,6.06 -21.65,15.07 v 5.54 l 3.64,5.2 v 6.41 l -0.17,168.54"
     style="opacity:1;fill:none;fill-opacity:1;fill-rule:nonzero;stroke:#f49392;stroke-width:1;stroke-linecap:butt;stroke-linejoin:round;stroke-miterlimit:4;stroke-dasharray:none;stroke-opacity:1" />
  <path
     id="path5551"
     d="M 9612.91,1411.03 9647,1406.5 l 31,8 94,32 23.97,3.61 75.53,9.39 33,-4 108,-30 178,17 199,-74.5 93,-57 660,-171.5 224.5,-48 34.49,-14.09 L 11738.74,857.64 11785,828 l 164,-52 123,-37.5"
     style="fill:none;fill-rule:evenodd;stroke:#f7931d;stroke-width:5;stroke-linecap:butt;stroke-linejoin:round;stroke-miterlimit:4;stroke-dasharray:none;stroke-opacity:1" />
  <path
     style="fill:none;fill-rule:evenodd;stroke:#f7931d;stroke-width:5;stroke-linecap:butt;stroke-linejoin:round;stroke-miterlimit:4;stroke-dasharray:none;stroke-opacity:1"
     d="m 3206.5,4984 11.5,-10 39,-36 18,-7.5 68,-3 h 52 l 13.5,9 10.5,14 1.63,18.85 17.87,214.15 34.5,238.5 28,121.5 4,30 -2,66.5 1,54.5 11,50.5 5.5,31 2.5,15 -2,12 -25,47.5 -50.5,63 -8,27 -1,36 3.5,28 9,19.5 22.5,18 18,3.5 209,20.5 45,21 70,62.5 27,8.5 36.5,1 47,-16 52.5,-20.5 31,3.5 28,14.5 78,53 326.5,261.5 140,120.5 139,125 25,30.5 16.5,8.5 20.5,5 428,-30.5 93,20 37.5,-3.5 23.5,-16 50.5,-63 15,-14.5 18,-8 20.5,2 17.5,9.5 12,17.5 5.5,18 -7,109.5"
     id="path6682-3" />
  <path
     id="path6684-6"
     d="M 4024.58,8434.1 4064.5,8549.5 l 43,70.5 10.5,14.5 24.5,19.5 21.5,13.5 26.5,4 25.5,0.5 52,-12 30.5,5 21.5,7 17,8.5 21,17 20,23 24,64.5 54,70.5 14.5,18 7.5,22 -4,19.5 -25.5,56.5 -20,48.5 -6.5,47 2.5,51.5 14.5,43.5 25,51.5 62.5,85 24,27 308.5,322 18.5,24.5 8.5,23 14,124.5 -1.5,25.5 -2.5,18"
     style="fill:none;fill-rule:evenodd;stroke:#f7931d;stroke-width:5;stroke-linecap:butt;stroke-linejoin:round;stroke-miterlimit:4;stroke-dasharray:none;stroke-opacity:1" />
  <path
     id="path5694-6"
     d="m 4924.44,10756.5 -9.9,-0.88 -2.47,-2.48 -4.95,-14.32 -15.91,-84.5 -1.59,-24.75 2.47,-17.86 v -8.31 l -1.41,-7.25 -4.77,-10.43 -1.06,-6.54 3.18,-44.9 5.3,-21.39 v -8.13 l -10.78,-30.41 -1.41,-10.08 1.41,-8.13 4.07,-7.25 11.67,-15.38 33.06,-47.55 7.95,-11.31 0.03,-4.57 -9.32,-7.01 -25.01,-25.13 0.39,-5.83"
     style="fill:none;fill-rule:evenodd;stroke:#05a1e6;stroke-width:1px;stroke-linecap:butt;stroke-linejoin:round;stroke-opacity:1" />

  <path
     style="fill:none;fill-rule:evenodd;stroke:#006bb4;stroke-linejoin:round;stroke-miterlimit:4;stroke-dasharray:none;stroke-opacity:1;stroke-width:5"
     d="m 3001.41,4451.65 -2.18,-11.23 3.44,-53.34 5.74,-45.88 5.7,-27.36"
     id="path1062" />
</svg>
