<svg xmlns="http://www.w3.org/2000/svg" width="5000" height="6050" viewBox="0 0 5000 6050"><path d="M3964.706 1676.587L3968 1686l11 16.5 12.5 14.5 47 44.5 14.5 20 6 18 3.5 27-7.5 29-10 16-15 15-35 20.5-12 16.5-40 124-5 40-7.5 243.5-4.5 25.5-12.5 29-67 105.5-32.5 35.5-14.5 27-21.5 34-48 95.5-17.5 24-17 11.5-24.5 9-33.5-3.5h-16l-23.5 5-45.5 32-13 18.5-1.5 21.5 4 19.5 21 32 12 31.5 9 40.5v63l-7 39.5-12.5 52.5-12.5 32-18.5 30-29.5 29-35.5 23.5-41 9.5-88.5 41-33 .5-31-3h-21l-17.5 8.5-24 37.5-27 29.5-11.5 21.5-15.5 41.5-18.5 28-12.5 8.5-66.5 32-14 17-7.5 17-5.5 62-7 13.5-4 6.5-36 56.5-25.5 23.5-13 12.5-6 16.5-6 31.5 3 34.5 4 19.5 5.5 19 36.5 69.5 9 23 21.5 33 35.5 155.5-6.5 94.5-5.5 32.5-16.5 25.5-41 14-61 9.5-52.5 3.5-43 9.5-30 7.5-21.5 8.5-31 13-43.5 24.5-27.5 19.5-61 58-53.5 75.5-22.78 38.19" fill="none" stroke="#e30613" stroke-width="5" stroke-linejoin="round"/><text style="line-height:125%;-inkscape-font-specification:Sans" y="206.961" x="89.453" font-weight="400" font-size="144" font-family="Sans" letter-spacing="0" word-spacing="0"><tspan y="206.961" x="89.453">1980</tspan></text><text style="line-height:125%;-inkscape-font-specification:Sans" y="5947.961" x="89.453" font-weight="400" font-size="144" font-family="Sans" letter-spacing="0" word-spacing="0"/></svg>