<?xml version="1.0" encoding="UTF-8" standalone="no"?>
<svg
   xmlns:dc="http://purl.org/dc/elements/1.1/"
   xmlns:cc="http://creativecommons.org/ns#"
   xmlns:rdf="http://www.w3.org/1999/02/22-rdf-syntax-ns#"
   xmlns:svg="http://www.w3.org/2000/svg"
   xmlns="http://www.w3.org/2000/svg"
   xmlns:xlink="http://www.w3.org/1999/xlink"
   version="1.1"
   id="svg2"
   width="5000"
   height="6050"
   viewBox="0 0 5000 6050">
  <metadata
     id="metadata8">
    <rdf:RDF>
      <cc:Work
         rdf:about="">
        <dc:format>image/svg+xml</dc:format>
        <dc:type
           rdf:resource="http://purl.org/dc/dcmitype/StillImage" />
        <dc:title></dc:title>
      </cc:Work>
    </rdf:RDF>
  </metadata>
  <defs
     id="defs6" />
  <image
     style="display:none"
     width="4935"
     height="5963.12"
     preserveAspectRatio="none"
     xlink:href="file:///home/alexander/timelines/timelines/streetmap/../streetmap/bhxosm.png"
     id="image10"
     x="100"
     y="86.88" />
  <path
     style="fill:none;fill-rule:evenodd;stroke:#e30613;stroke-width:5;stroke-linecap:butt;stroke-linejoin:round;stroke-miterlimit:4;stroke-dasharray:none;stroke-opacity:1"
     d="M 3964.71,1676.59 3968,1686 l 11,16.5 12.5,14.5 47,44.5 14.5,20 6,18 3.5,27 -7.5,29 -10,16 -15,15 -35,20.5 -12,16.5 -40,124 -5,40 -7.5,243.5 -4.5,25.5 -12.5,29 -67,105.5 -32.5,35.5 -14.5,27 -21.5,34 -48,95.5 -17.5,24 -17,11.5 -24.5,9 -33.5,-3.5 h -16 l -23.5,5 -45.5,32 -13,18.5 -1.5,21.5 4,19.5 21,32 12,31.5 9,40.5 v 63 l -7,39.5 -12.5,52.5 -12.5,32 -18.5,30 -29.5,29 -35.5,23.5 -41,9.5 -88.5,41 -33,0.5 -31,-3 h -21 l -17.5,8.5 -24,37.5 -27,29.5 -11.5,21.5 -15.5,41.5 -18.5,28 -12.5,8.5 -66.5,32 -14,17 -7.5,17 -5.5,62 -7,13.5 -4,6.5 -36,56.5 -25.5,23.5 -13,12.5 -6,16.5 -6,31.5 3,34.5 4,19.5 5.5,19 36.5,69.5 9,23 21.5,33 35.5,155.5 -6.5,94.5 -5.5,32.5 -16.5,25.5 -41,14 -61,9.5 -52.5,3.5 -43,9.5 -30,7.5 -21.5,8.5 -31,13 -43.5,24.5 -27.5,19.5 -61,58 -53.5,75.5 -22.78,38.19"
     id="path4512" />
  <text
     style="font-style:normal;font-weight:normal;font-size:144.0px;line-height:125%;font-family:Sans;-inkscape-font-specification:Sans;letter-spacing:0px;word-spacing:0px;fill:#000000;fill-opacity:1;stroke:none"
     xml:space="preserve"
     id="text3000"
     y="206.96"
     x="89.45"><tspan
       id="tspan1"
       y="206.96"
       x="89.45">1990</tspan></text>
  <text
     style="font-style:normal;font-weight:normal;font-size:144px;line-height:125%;font-family:Sans;-inkscape-font-specification:Sans;letter-spacing:0px;word-spacing:0px;fill:#000000;fill-opacity:1;stroke:none"
     xml:space="preserve"
     id="text3004"
     y="5947.96"
     x="89.45"><tspan
       id="tspan2"
       y="5947.96"
       x="89.45"></tspan></text>
  <path
     id="path4520"
     d="m 4859.0,3627.71 6.98,-2.79 7.44,0.93 21.87,21.87 13.49,16.75 6.05,4.19 10.24,-4.65"
     style="fill:none;fill-rule:evenodd;stroke:#1b3163;stroke-width:5;stroke-linecap:butt;stroke-linejoin:round;stroke-miterlimit:4;stroke-dasharray:none;stroke-opacity:1" />
</svg>
