<svg xmlns="http://www.w3.org/2000/svg" height="3550" width="2750"><path d="m165.49 2431.33-8.72-42.69-27.42-62.01v-11.22l15.27-47.68 12.15-20.88 96.91-88.5 82.89-61.07 39.26-17.14 8.1-7.79 36.15-111.87 44.56-104.08 160.17-273.28 51.42-62.63 14.02-54.84 107.82-175.43 16.52-48.92 8.41-29.6 27.11-43.31 30.54-39.26 19.63-29.6 57.96-37.39 7.48-9.97 5.3-28.67 31.16-80.39 19.01-21.81 17.14-21.19 5.92-10.91 7.48-6.86 61.7-15.58 43.94-7.48 54.84-10.59 17.45-5.61 59.83-40.82 9.66-1.25 76.97-33.65 28.04-14.33 30.54-12.15 23.99-14.02 8.72-7.79 26.49-5.92 29.6-1.56 12.15 6.86 14.65-0.31.77-44.25 24.31-6.86 19.32-8.1 26.49-12.78 46.12-27.73 18.38-10.91 34.59-13.4 38.02-7.79 74.16-16.2 77.28-12.46 105.01-12.78 380.78-45.49" style="opacity:1;fill:none;fill-opacity:.4;fill-rule:nonzero;stroke:#f60;stroke-width:5;stroke-linecap:butt;stroke-linejoin:round;stroke-miterlimit:4;stroke-dasharray:none;stroke-opacity:1"/><path d="m895.27 310.85-11.84 37.08-2.18 9.66 2.49 9.97 61.39 85.38 37.39 33.97 4.99 6.54v8.72s-1.25 12.78-1.25 14.02c0 1.25.9330.85.9330.85l1.87 20.57-5.3 59.83-5.92 31.16 2.18 13.4 5.3 9.66 7.79 14.96.626.23-2.18 10.28-37.08 117.48-5.92 22.44v9.04l11.53 16.83 1.56 7.79.6220.88 3.43 11.22 9.97 6.23 26.49 18.07 11.22 9.35 3.12 11.84 4.36 26.17 18.38 50.79 41.44 45.49 48.61 139.6 15.58 36.15 76.66 285.12 10.91 17.76 11.84 11.84 17.45 16.52 5.61 11.22 3.74 17.45 3.12 60.76 4.05 23.68 16.52 55.15 17.59 49.69 184.02 519.93 63.88 178.55 11.53 37.7 11.22 38.64 19.94 73.85 7.48 42.07 8.41 53.6 47.99 383.28" style="opacity:1;fill:none;fill-opacity:.4;fill-rule:nonzero;stroke:#00a650;stroke-width:5;stroke-linecap:butt;stroke-linejoin:round;stroke-miterlimit:4;stroke-dasharray:none;stroke-opacity:1"/><path d="m1666.81 3139.3 39.57 307.87M895.27 310.85l1.25-14.96-1.87-9.04-14.33-21.19-96.29-141.47-2.49-9.04-2.8-14.33" style="opacity:1;fill:none;fill-opacity:.4;fill-rule:nonzero;stroke:#00a650;stroke-width:1;stroke-linecap:butt;stroke-linejoin:round;stroke-miterlimit:4;stroke-dasharray:none;stroke-opacity:1"/><text x="89.45" y="206.96" xml:space="preserve" style="font-style:normal;font-weight:400;font-size:144px;line-height:125%;font-family:Sans;-inkscape-font-specification:Sans;letter-spacing:0;word-spacing:0;fill:#000;fill-opacity:1;stroke:none"><tspan x="89.45" y="206.96">2020</tspan></text></svg>