<?xml version="1.0" encoding="UTF-8" standalone="no"?>
<!-- Created with Inkscape (http://www.inkscape.org/) -->

<svg
   xmlns:dc="http://purl.org/dc/elements/1.1/"
   xmlns:cc="http://creativecommons.org/ns#"
   xmlns:rdf="http://www.w3.org/1999/02/22-rdf-syntax-ns#"
   xmlns:svg="http://www.w3.org/2000/svg"
   xmlns="http://www.w3.org/2000/svg"
   xmlns:xlink="http://www.w3.org/1999/xlink"
   version="1.2"
   width="5376"
   height="5376"
   viewBox="0 0 5376 5376"
   id="svg2">
  <metadata
     id="metadata70">
    <rdf:RDF>
      <cc:Work
         rdf:about="">
        <dc:format>image/svg+xml</dc:format>
        <dc:type
           rdf:resource="http://purl.org/dc/dcmitype/StillImage" />
        <dc:title></dc:title>
      </cc:Work>
    </rdf:RDF>
  </metadata>
  <defs
     id="defs6" />
  <g
     id="g3069">
    <path
       d="m 1261,5385 35,-55 13,-3 71,-82 125,-128 118,-167 114,-125 -16,-100 -30,-12 -26,-54 -19,-33 -15,-37 -96,-104 -26,-45 -5,-45 -6,-66 0,-36 -3,-49 7,-50 -3,-20 20,-13 -18,-33 -20,-2 -35,-34 -28,-13 -34,0 -29,-9 -13,2 -56,34 -49,21 -38,0 -17,2 -33,-11 -90,3 -75,58 -86,24 -38,1 -47,-19 -33,-6 -108,33 -75,24 -43,13 -91,-23 -49,-42 c 0,0 -49,-13 -53,-12 -4,1 -42,-44 -42,-44 l -15,1 -4,27 -36,6 1,-33 -56,4 -51,33 -80,102 -61,80 -20,74 13,26 -10,21 16,93 48,23 7,44 -35,68 c 0,0 14,29 14,33 0,4 16,43 16,43 l -16,39 c 0,0 0,55 -4,63 -4,8 -85,114 -85,114 l 8,56 -21,90 33,-16 36,13 37,-1 41,12 12,22 17,9 34,-19 c 0,0 34,1 30,1 -4,0 46,0 46,0 l 22,-22 -44,-87 41,-49 -16,-50 17,-35 36,-4 0,10 -33,0 -6,27 10,32 30,-2 7,-17 34,0 0,19 -26,-7 -16,23 -33,22 9,12 -32,19 13,24 25,29 1,35 -26,43 -36,6 -4,23 33,27 c 0,0 41,19 37,15 -4,-4 36,71 36,71 l 8,8 36,-8 13,5 -1,20 -38,-5 -20,1 -39,-66 -16,-17 -57,-34 -25,-47 -27,6 c 0,0 -37,7 -41,7 -4,0 -63,-35 -63,-35 l -11,36 -4,39 -44,21 -46,10 -22,27 -29,97 z"
       id="path3090"
       style="fill:#ffffff;stroke:#ffffff;stroke-width:1px;stroke-linecap:butt;stroke-linejoin:miter;stroke-opacity:1" />
    <rect
       width="5847.1909"
       height="5335.1909"
       rx="7.6445146"
       ry="12.178596"
       x="-491.59555"
       y="20.404495"
       id="rect3092"
       style="fill:#f7f7ff;fill-opacity:1;fill-rule:nonzero;stroke:#f7f7ff;stroke-width:42.80890656;stroke-linecap:round;stroke-linejoin:round;stroke-miterlimit:4;stroke-opacity:1;stroke-dasharray:none" />
    <path
       d="m -521,4838 49,-3 42,-18 16,-30 24,1 12,41 48,21 38,-12 c 0,0 58,-8 62,-8 4,0 46,-21 46,-21 l 11,-36 23,-5 22,19 8,68 63,63 3,23 -23,25 -17,43 -30,173 1,64 -6,29 -20,3 4,45 -18,60 -361,-3 z"
       id="path3866"
       style="fill:#ffffff;stroke:#ffffff;stroke-width:1px;stroke-linecap:butt;stroke-linejoin:miter;stroke-opacity:1" />
    <path
       d="m 789,-7 0,28 23,77 -15,69 -12,49 -4,16 30,50 31,23 -7,36 -10,38 -9,54 130,84 10,41 42,46 27,78 23,68 42,29 8,35 -1,40 -10,30 -25,9 -19,-9 -6,-46 -23,-15 c 0,0 -40,2 -43,2 -3,0 -16,20 -16,20 l -9,54 10,52 -12,38 -44,154 3,31 33,79 -20,100 -24,51 -50,27 -76,23 -19,30 -22,69 3,77 -13,39 16,72 -4,37 -36,72 -39,48 -38,85 1,59 -2,44 -77,81 -19,43 -1,41 -41,53 -44,72 -17,123 -2,103 30,105 28,39 35,31 115,0 50,-30 42,-72 116,-27 108,13 28,30 10,34 -17,109 -35,133 -13,66 14,103 22,61 -9,46 -17,34 -20,54 -20,-2 -1,16 10,14 -81,110 -79,-114 -167,-75 -8,31 161,70 49,74 -96,139 -173,-142 -14,36 251,198 -113,231 -103,-56 -19,33 -46,48 -85,78 -46,40 -67,12 -1,22 -72,21 -54,53 -72,62 -18,50 -21,19 -27,16 -21,73 -25,34 -2,42 17,9 3,191 -12,1 0,69 9,27 c 0,0 58,38 54,43 -4,5 -13,74 -13,74 l -28,31 -73,-52 -23,-92 -37,-7 -24,17 -11,27 -39,12 -88,13 -35,0 c 0,0 -21,-47 -28,-44 -7,3 -26,-4 -26,-4 l -36,38 -39,8 -34,-3 6,-4830 z"
       id="path3864"
       style="fill:#ffffff;stroke:#ffffff;stroke-width:1px;stroke-linecap:butt;stroke-linejoin:miter;stroke-opacity:1" />
    <path
       d="m 4300,4222 60,50 30,2 4,-7 -1,-52 12,1 37,182 15,10 -5,52 21,24 10,34 -6,20 29,172 -16,32 -17,-3 -13,37 8,7 -13,90 c 0,0 -10,-7 -10,-3 0,4 -12,34 -12,34 l -52,0 -5,-42 -21,-6 16,-20 22,15 7,-6 c 0,0 19,-116 19,-120 0,-4 20,-12 20,-12 l 14,-54 -17,-18 -10,24 -17,-1 -34,-62 -56,-9 -35,17 -32,-19 -3,-21 24,-12 37,-72 -2,-27 14,-33 -7,-17 -19,-5 21,-82 -26,-77 -4,-18 z"
       id="path3088"
       style="fill:#ffffff;stroke:#ffffff;stroke-width:1px;stroke-linecap:butt;stroke-linejoin:miter;stroke-opacity:1" />
    <path
       d="m 5374,1281 -13,-6 c 0,0 -18,-31 -22,-31 -4,0 -44,-3 -44,-3 l -28,-17 -3,-34 -17,-7 -11,-19 -18,6 -6,46 -23,11 -4,62 22,19 28,72 -15,42 -41,66 -54,3 -38,57 23,103 21,13 37,52 35,6 37,59 -21,0 9,168 57,55 19,-2 -3,53 -14,9 -29,-50 -18,6 -25,45 -13,54 20,56 -23,17 7,70 -10,5 -37,-20 -13,-34 -9,0 -55,-63 -36,-87 -65,-99 -5,-23 19,14 22,-12 3,-24 -17,-23 -5,-18 -35,-66 -42,-14 -29,21 1,16 8,13 -1,29 -39,17 -63,-1 -24,22 -20,-1 -15,-42 9,-46 -17,-6 -63,-17 -54,3 -86,-26 -83,-50 -40,49 -62,26 9,35 0,27 -32,19 -8,1 -6,26 7,6 -27,9 -13,-19 -26,-7 1,-19 8,-7 -1,-20 -24,-63 -18,1 -19,14 3,14 -22,-4 -17,7 -20,-20 -28,15 0,32 -41,-18 -17,7 1,28 11,10 -25,23 5,25 24,2 -6,6 -35,3 -7,16 -16,-9 -15,29 18,32 24,5 3,15 67,-3 -4,34 4,28 7,11 0,63 -10,25 12,14 -9,15 7,25 17,32 34,9 61,-13 -8,14 -34,15 -4,14 -45,38 -45,24 -24,-7 -64,-31 -48,-76 25,-5 16,3 23,-21 23,-11 -7,-16 15,-28 -207,-130 11,-21 15,-8 10,-22 -6,-25 -21,-9 -38,67 -40,-25 -13,22 10,20 -72,8 -6,8 10,80 -61,9 4,-33 -6,-24 -23,11 -6,-15 20,-18 -19,-16 8,-13 -50,-41 -36,23 -37,9 -2,18 -5,-9 18,-29 21,-1 18,-5 33,-42 -67,-56 -106,-24 -53,45 -35,58 -136,123 -14,-3 -12,-20 -28,-6 -24,11 -23,38 1,35 33,16 -6,27 c 0,0 -41,22 -45,24 -4,2 -33,28 -33,28 l -63,113 -50,83 -59,73 -40,69 -27,87 15,13 28,-14 43,-16 33,5 62,29 55,-23 13,-16 19,-42 9,1 -22,44 -13,15 -49,22 13,10 36,14 21,37 12,39 26,20 37,16 50,8 41,49 8,10 53,14 -6,11 -26,-13 -17,4 -2,22 12,32 -2,20 15,20 -2,8 -21,-17 -50,17 5,22 -36,12 -3,-10 32,-8 -4,-30 57,-14 0,-17 -15,-8 -21,-68 0,-18 -23,-29 -51,-9 -43,-18 -24,-22 -14,-55 -22,-20 -110,-50 -38,-2 -26,11 -43,42 -12,39 11,33 5,42 -8,60 -21,51 -32,36 -40,144 9,62 -5,12 -11,-7 2,-34 -28,-32 0,16 16,29 -33,-28 -3,10 17,21 -6,3 -10,-6 0,5 34,35 -8,0 -15,22 6,12 -14,2 -38,-27 0,-20 -12,-4 2,-21 -181,22 -15,7 -7,16 -121,262 -15,-7 -138,106 -2,34 -4,11 17,9 -2,30 9,6 -13,25 10,5 15,-19 50,39 15,18 -16,52 -41,11 -8,0 -11,-87 -21,-12 19,100 11,10 27,0 33,-6 23,-53 34,0 15,-37 8,5 -12,40 35,14 6,-21 22,1 22,-53 16,-29 21,-35 19,-7 40,6 -4,12 -24,-8 -23,5 -23,27 -28,57 -1,19 -8,18 -35,16 37,33 -22,24 -29,-20 -56,73 -17,-20 -75,78 -136,174 -24,-14 -21,23 -22,-9 -33,42 14,15 -13,20 -54,147 -5,114 20,114 29,46 16,22 13,30 50,51 60,15 68,13 25,14 66,16 30,24 26,28 47,39 20,44 20,-5 5,15 -7,9 9,9 22,-16 0,16 -13,6 -1,37 -21,10 7,14 1,14 -12,31 26,13 34,3 59,-28 -17,42 56,31 -10,15 -170,-50 -46,-9 -32,23 -35,18 -9,37 15,43 33,10 61,18 22,37 105,-6 233,-30 219,-33 127,-14 145,-3 -21,-81 -121,2 -81,-23 -42,6 1,-20 97,-2 165,10 22,-7 70,-1 84,24 52,2 -10,-31 -12,-37 c 0,0 -26,-5 -30,-5 -4,0 -48,25 -48,25 l -67,0 -50,-46 -20,-44 2,-24 -17,-35 25,-1 12,20 -11,26 7,34 30,15 28,40 84,-6 5,-19 38,-22 -1,-14 -126,-132 -77,-68 14,-15 10,7 30,34 36,25 18,-35 22,3 56,35 33,57 17,51 0,97 123,-25 23,7 13,46 14,19 -4,55 22,42 29,-20 57,-6 94,-30 35,-72 c 0,0 -27,-37 -27,-41 0,-4 -37,-197 -37,-197 l -15,-42 9,-22 -19,-13 -49,4 -45,26 -88,-4 -116,27 -43,-7 -73,-83 23,-20 4,-29 16,-11 -7,-27 27,-22 0,9 -6,13 4,32 -22,10 -2,62 39,41 33,9 28,-10 -18,-27 23,-3 19,8 2,14 48,-15 -7,-77 -83,-94 13,-10 89,109 -2,66 15,12 82,-26 8,-35 24,-12 7,-29 -18,-4 3,-25 -67,-20 -2,-99 -48,1 -30,-36 5,-11 -180,-107 c 0,0 17,-12 21,-12 4,0 238,153 238,153 l 32,-14 66,-76 20,-8 24,18 16,-14 -21,-20 18,-20 45,-48 15,-24 -87,-125 19,-13 67,96 38,35 43,-15 16,-19 -52,-89 0,-36 33,29 32,65 26,12 32,-38 75,-25 -17,-41 10,-74 -31,-37 -4,-21 7,-5 22,44 23,4 0,16 32,9 38,-18 7,9 -36,47 -6,21 26,34 29,7 142,-22 -51,-256 16,-4 38,215 53,12 -27,-159 9,-1 19,91 14,33 22,15 27,-8 16,8 8,10 10,0 -27,-121 18,-70 53,-21 88,24 -5,4 -23,2 -63,-15 -39,24 -11,68 20,98 32,34 311,169 14,22 29,5 24,28 25,10 15,19 -21,54 -58,57 -20,11 -33,-12 -46,112 -15,11 -9,43 62,29 34,25 14,11 22,-30 64,-34 29,-22 c 0,0 -1,-24 -5,-27 -4,-3 -25,-11 -25,-11 l -18,-72 66,-99 32,-7 48,47 14,23 11,-2 -14,31 4,15 17,-2 12,-37 4,-24 31,-68 205,-106 10,-86 -17,-38 -71,-57 10,-8 68,62 17,28 3,43 -5,41 34,-19 -3,37 -15,28 18,26 29,10 13,-31 2,25 -19,14 -29,-1 -8,-13 -17,5 -8,13 24,21 -43,-4 -51,37 c 0,0 -25,10 -29,12 -4,2 -31,35 -31,35 l -22,18 -33,-6 -5,22 -18,20 -16,3 -20,-4 -30,60 52,16 56,-22 -19,-14 24,-2 33,-8 4,19 -68,36 37,34 71,15 -10,23 -46,-5 -31,-22 -5,7 -29,-12 -8,-25 -17,-12 -81,14 -3,25 59,42 -18,89 -6,75 -20,14 -31,-55 -9,-1 -17,50 -30,16 -19,-28 27,-31 22,10 21,-42 19,-77 -9,-23 -26,-3 -22,12 -49,50 -2,30 0,12 -72,92 2,31 -18,-1 8,-54 15,-27 23,-21 14,-24 -13,-7 -65,56 -113,15 -31,26 32,61 -2,12 -22,-7 1,-31 -22,-11 -21,8 1,28 -42,20 -44,29 -70,54 -16,-16 -64,26 -11,19 -115,47 -65,3 -50,-13 -52,20 -113,74 -46,38 -128,77 -54,7 -27,8 -6,-13 -38,5 -18,-7 -37,6 -28,28 -4,14 -33,31 315,1 80,-46 36,-4 573,-256 c 0,0 21,0 25,0 4,0 494,-112 494,-112 l 74,-1 99,16 23,-11 12,-30 65,-32 64,2 -2,-3626 z"
       id="path3086"
       style="fill:#ffffff;stroke:#ffffff;stroke-width:1px;stroke-linecap:butt;stroke-linejoin:miter;stroke-opacity:1" />
    <path
       d="m 2025,-5 -4,18 12,9 0,23 17,13 -16,7 14,24 -20,29 -8,41 -19,-1 -21,16 -14,54 12,27 -5,33 -18,4 -29,29 -20,52 6,24 37,15 0,27 -66,87 5,36 47,15 -11,68 9,97 28,39 2,56 9,33 25,27 10,44 -30,94 16,40 -14,62 -1,43 17,53 -12,21 -69,51 6,54 20,76 39,42 -11,63 -22,61 -23,15 -79,-6 -89,24 -127,7 -47,40 -32,50 -10,34 -15,6 -40,1 -43,-54 -146,-127 -20,-72 44,-6 20,-10 12,-16 4,-40 12,-37 33,-55 -1,-9 18,3 2,-11 -21,-7 -10,22 -23,53 -28,43 0,25 -4,27 -28,3 -32,-3 -12,25 30,81 150,127 26,33 -10,33 -40,17 -14,42 -10,54 -76,105 -20,34 -9,44 -6,55 24,128 -9,34 -40,69 -21,16 -14,69 17,59 37,30 123,7 45,-14 22,10 -6,36 -19,24 -79,37 -91,31 -38,34 -38,53 -27,81 1,18 -28,-12 2,9 23,15 -12,65 -27,28 -24,-9 -9,12 21,5 -14,11 -32,-9 -43,33 -36,0 -25,-48 -1,-27 -11,-3 28,-100 15,-130 -8,-49 -37,-27 -26,-10 -104,3 -82,11 -47,28 -25,25 -16,37 -22,20 -116,10 -29,-19 -22,-34 -35,-122 5,-80 9,-94 24,-62 45,-62 41,-86 18,-48 56,-73 4,-100 25,-55 60,-95 39,-76 -3,-20 -20,-49 5,-35 6,-34 4,-66 18,-70 19,-12 112,-44 29,-47 26,-126 -39,-104 10,-30 14,-34 6,-48 25,-82 -8,-56 13,-59 25,-6 24,2 13,22 -1,31 23,19 27,-11 26,-29 4,-74 -15,-27 -33,-20 -23,-60 -18,-34 -16,-70 -45,-36 -11,-36 -26,-22 -68,-54 -13,-30 21,-97 -23,-32 -38,-39 -2,-50 13,-45 12,-31 -23,-87 3,-31 z"
       id="path3862"
       style="fill:#ffffff;stroke:#ffffff;stroke-width:1px;stroke-linecap:butt;stroke-linejoin:miter;stroke-opacity:1" />
    <path
       d="m 3047,2169 -3,35 -35,42 -47,75 -42,54 -18,33 -51,63 -54,57 10,-31 27,-39 55,-81 16,-17 13,-33 37,-44 26,-43 12,-27 40,-38 z"
       id="path3084"
       style="fill:#ffffff;stroke:#ffffff;stroke-width:1px;stroke-linecap:butt;stroke-linejoin:miter;stroke-opacity:1" />
    <path
       d="m 3271,584 -5,11 14,14 2,13 -9,-1 -12,-6 -11,-18 6,-24 -11,-15 -37,1 -18,10 -25,27 -28,76 5,30 -95,177 -32,60 -31,19 -18,24 c 0,0 7,56 7,52 0,-4 4,38 4,38 l -28,59 -12,52 -14,55 -39,82 -12,4 -14,-8 -38,68 20,14 -67,99 -165,303 -166,327 -62,109 11,7 -40,70 -20,17 -71,126 -27,80 14,8 -13,48 10,9 -10,64 -23,-3 5,25 14,-4 -11,138 -36,-4 1,35 c 0,0 44,6 38,6 -6,0 -27,147 -27,147 l -39,-4 -8,72 10,8 -1,19 -17,-2 -9,65 10,6 -8,16 -9,-2 8,32 14,4 -1,15 20,31 27,15 33,-8 42,-34 99,-76 55,-17 61,-11 5,14 85,-11 0,-9 34,-6 18,-16 35,-108 21,-117 3,-44 -22,-33 -14,-69 23,-49 9,-60 87,-135 55,-75 23,-42 43,-48 78,-120 43,-54 19,-38 -22,-68 1,-33 17,-17 37,-30 18,-32 14,-40 34,-36 44,-31 8,-29 1,-61 -23,-58 -37,-58 -5,-37 7,-79 -8,-204 -4,-84 14,-55 57,-129 58,-115 64,-103 45,-63 28,-36 16,-58 -3,-27 -15,-17 -41,-18 -37,18 -5,-17 z"
       id="path3082"
       style="fill:#ffffff;stroke:#ffffff;stroke-width:1px;stroke-linecap:butt;stroke-linejoin:miter;stroke-opacity:1" />
    <path
       d="m 3384,-2 -145,511 -14,24 25,-1 36,42 24,9 25,-1 60,30 16,29 -6,48 -18,39 -95,137 -60,101 -55,98 -11,45 -37,91 -5,59 12,235 -4,111 13,28 18,26 14,26 11,7 2,16 17,5 37,-1 22,16 12,25 60,35 21,9 24,2 59,-71 39,-46 34,-13 66,-17 c 0,0 62,13 53,9 -9,-4 28,20 28,20 l 26,34 19,6 0,-9 57,-7 5,27 42,2 24,-1 9,-6 42,-84 -46,-111 -96,-44 -33,-42 -23,-67 8,-58 10,-25 -8,-17 12,-32 14,1 -14,17 -5,18 c 0,0 9,17 7,17 l -14,42 0,40 22,67 47,40 84,33 41,62 82,17 20,-3 6,67 35,16 82,-9 11,-12 -14,-15 0,-14 -14,-10 -2,-28 8,-17 1,-11 -25,-26 8,-4 31,23 8,22 7,7 11,-19 8,-7 37,-104 23,-17 3,-29 -40,-107 11,-43 20,-16 12,-28 -8,-61 8,-13 1,35 6,57 -33,37 -5,27 23,78 12,27 3,51 -17,18 c 0,0 9,38 9,34 0,-4 -11,48 -11,48 l 34,102 47,20 18,-4 0,-40 1,-28 20,-27 39,-8 12,-2 111,-34 89,24 17,29 33,27 27,-4 21,18 21,22 34,12 25,20 21,5 15,-13 -1,-23 -8,-15 -15,9 -75,-45 -34,-7 -14,-5 -25,-34 -7,-34 -16,-23 8,-2 23,18 14,32 -6,8 13,4 43,-47 8,-20 -73,-28 -19,-26 -1,-27 -14,-53 -16,-3 -42,23 -18,-19 5,-26 42,-12 -40,-8 -37,-73 3,-81 18,-15 -19,-64 3,-15 17,15 18,-5 -15,-34 -18,-10 10,-35 -25,-39 7,-42 49,3 -6,-78 -15,-24 -69,-36 -2,-68 -38,-42 -2,-74 30,-94 8,-51 -16,-36 5,-6 13,7 7,47 -30,147 -5,44 14,25 18,4 19,-16 2,18 25,-18 14,41 -10,40 7,46 15,-25 9,17 24,9 28,44 10,-18 11,11 9,-5 0,-24 10,2 15,95 -15,6 46,102 11,6 7,-33 21,-7 -2,-35 -8,-26 14,-8 6,-22 28,-9 -3,-31 17,-21 24,-12 -8,-66 8,-40 25,-23 23,-8 31,14 14,-41 -13,-12 -41,23 25,-66 21,-28 -7,-31 -50,-5 -5,-32 -51,38 -14,32 11,30 -11,23 -38,27 -48,95 -12,-5 0,-22 -30,-17 10,-12 20,9 46,-88 13,3 69,-151 29,13 50,-88 32,-16 27,-48 39,-53 4,-53 16,-24 16,16 -23,10 3,41 -22,50 -13,19 0,13 -14,4 -6,18 6,16 18,-3 11,8 25,-32 13,2 9,-15 0,-33 14,-3 22,1 12,-7 -3,-42 18,-1 7,13 21,-18 -7,-15 17,-15 -4,-25 13,-27 -56,-36 3,-14 17,-14 -13,-14 2,-16 -12,-2 -37,30 0,-8 27,-34 -19,-35 16,-6 9,22 27,-18 27,21 16,4 15,-44 z"
       id="path3078"
       style="fill:#ffffff;stroke:#ffffff;stroke-width:1px;stroke-linecap:butt;stroke-linejoin:miter;stroke-opacity:1" />
    <path
       d="m 3177,-2 -32,112 -15,52 -16,38 -12,46 -39,87 -16,47 -26,51 -6,29 -20,29 5,6 -28,91 -25,55 -40,84 -19,54 -12,17 16,14 -14,27 -30,-8 -19,68 -4,50 -80,151 -13,1 -3,22 16,16 -28,3 9,4 -7,15 -14,2 -2,21 21,8 -24,116 5,13 -19,19 -78,154 -23,25 -9,24 -13,19 8,13 -29,28 18,14 -14,19 -18,-13 -5,11 -9,0 -6,13 10,8 -6,18 -20,-8 -20,34 -11,-1 -48,78 30,13 -13,29 -22,-10 -2,7 18,11 -15,36 -20,-2 -4,23 -12,-4 -2,18 12,10 -70,115 -11,-3 -13,28 -15,-4 -30,57 -17,-4 -12,26 13,10 -6,11 15,7 -12,24 -43,29 -33,71 7,22 -16,18 -18,8 -47,81 -17,-9 -12,4 -1,14 -11,-3 -4,13 8,3 -3,10 46,9 -4,14 8,5 -9,52 -1,31 13,34 -6,33 -20,16 -6,23 -11,10 -10,45 24,10 -4,15 -25,-4 -1,7 16,4 -6,23 -14,6 -26,7 -8,32 34,5 -5,12 -34,-6 4,26 0,15 9,0 -2,32 -39,-3 -4,58 30,8 0,31 -11,-2 -6,48 1,19 -12,61 -43,0 -15,9 -142,-16 0,16 192,32 -6,49 -44,-4 -38,27 -44,37 -60,79 -46,95 -77,-51 5,-20 -58,-39 -10,16 c 0,0 -23,-4 -19,-3 4,1 -26,35 -26,35 l 10,10 11,-20 18,-5 20,15 -32,35 -15,35 -4,40 6,28 -13,25 -65,-71 -25,-1 -12,-8 -8,19 107,99 4,17 -20,16 -15,-6 -38,53 -47,-12 0,11 189,112 -24,48 -223,-121 -7,-23 -24,-9 -41,12 -37,-13 -12,22 161,71 165,93 -30,46 -208,-104 -210,-45 -7,18 87,24 34,42 6,-23 80,27 -17,32 17,72 20,35 18,5 -22,41 -75,45 -41,13 -55,-15 -97,-14 -24,3 -34,21 -37,27 -7,21 -94,20 -89,-5 -13,-10 -15,11 -66,21 -24,-19 -7,-31 15,-24 10,-37 21,3 4,-11 40,-71 22,-24 15,1 38,-57 -12,-31 29,-43 20,11 12,-5 c 0,0 9,-69 8,-65 -1,4 20,-35 20,-35 l 8,3 52,-58 37,-27 -1,-28 -20,-11 60,-97 20,7 1,-13 -11,-8 9,-19 -10,-23 17,-15 11,-4 4,-30 30,-44 -5,-16 11,-18 23,-1 42,-66 -22,-5 -12,-18 -22,8 -3,-88 -14,-4 6,-39 31,-6 10,3 -29,-27 60,-61 30,0 16,-33 12,-139 20,-45 26,-47 49,-43 c 0,0 80,-25 75,-25 -5,0 40,-25 40,-25 l 39,-38 16,-46 -8,-38 -36,-39 -25,-11 -62,10 -58,18 -32,6 -9,-17 -3,-46 23,-70 29,-40 26,-47 12,-61 -35,-130 12,-34 31,-38 103,-121 36,-50 11,8 17,-19 -38,-27 20,-13 48,-22 60,-75 42,-32 49,-14 30,0 109,-16 66,-1 43,-28 29,-46 28,-50 3,-61 -25,-45 -35,-76 4,-31 46,-44 20,-38 -21,-76 13,-51 5,-27 -7,-15 3,-18 11,1 21,56 58,57 23,4 39,0 30,1 23,-29 8,-31 -2,-66 7,-36 14,-33 0,-25 55,-100 57,-107 7,-17 46,-24 2,-35 23,-19 -14,-17 -29,14 -16,21 -13,45 -7,23 -62,14 1,17 -1,41 -23,18 -14,44 -3,43 -24,29 -21,60 -1,73 -9,55 -13,24 -30,-3 -42,-11 -26,-5 -32,-30 -14,-51 -42,-29 18,-78 1,-24 -47,-74 1,-58 -33,-65 2,-95 4,-49 -53,-25 3,-25 40,-40 26,-50 1,-36 -37,-9 -5,-24 14,-39 48,-40 11,-38 -18,-37 12,-26 36,-18 17,-56 19,-15 -2,-20 -8,-3 8,-18 -20,-16 2,-39 z"
       id="path3076"
       style="fill:#ffffff;stroke:#ffffff;stroke-width:1px;stroke-linecap:butt;stroke-linejoin:miter;stroke-opacity:1" />
  </g>
  <path
     d="m 3233.678,2463.4322 51.8809,-80.4826 6.2886,-5.5598 8.6694,0.6356 121.5255,77.1865"
     id="path3638-9"
     style="fill:none;stroke:#ffcd02;stroke-width:5;stroke-linecap:butt;stroke-linejoin:miter;stroke-miterlimit:4;stroke-opacity:1;stroke-dasharray:none" />
  <path
     d="m 2587.5763,2346.9826 23.1864,-7.0001 184.017,102.0848 35.5084,27.2881 72.356,55.6441 121.403,31.2651 56.8851,-27.621 6.6949,-2.0424 29.6611,-31.6864 18.0303,-8.54 81.6815,-5.3753 23,-7.25 39.75,-10.5 19.75,-6.25 33,-0.25 56.5,12 17.75,-0.5 16.75,-3.5 19.5,7 203,113.75 60.75,35.25 44,33 26.5,30.25 9.25,46.7495 24.75,21.5 116.25,56.5005 151.5,76.25 32,37.5 153.25,90 54.25,51.25 69.5,36.25 48.75,32.75"
     id="path3622-5"
     style="fill:none;stroke:#f7931d;stroke-width:5;stroke-linecap:butt;stroke-linejoin:miter;stroke-miterlimit:4;stroke-opacity:1;stroke-dasharray:none" />
  <path
     d="m 2591,2339 27,-46 14,-27 21,-14 27,5 209,113 55,36 74.75,49.25 68.25,47.25 19.5,-1.25"
     id="path3626"
     style="fill:none;stroke:#f7931d;stroke-width:5;stroke-linecap:butt;stroke-linejoin:miter;stroke-miterlimit:4;stroke-opacity:1;stroke-dasharray:none" />
  <path
     d="m 2519.5,2313.4995 25,-6.5 53.5,31 196,110 107,82 123.537,31.2651 58.463,-27.2651 7.3648,-3.0339 30.2284,-32.2034 15.3175,-7.4481 82.0893,-6.3146 82,-22.5 32,-0.25 56.1399,11.5912 18.3601,-0.8412 17.5,-3 16.75,5.5 264.25,149.5 42.5,32.5 25.25,28.75 4.75,24.5 4.75,23 26.5,22.5 121.25,59.25 145.5,73.25 32.25,37.5 96.5,56 57.25,34.25 54,51 74.5,39.5"
     id="path3620-7"
     style="fill:none;stroke:#0079c2;stroke-width:5;stroke-linecap:butt;stroke-linejoin:miter;stroke-miterlimit:4;stroke-opacity:1;stroke-dasharray:none" />
  <path
     d="m 3234.4832,2462.9726 -15.4832,13.0269 -51.5,3.5 -32.8644,2.2881 -20.822,9.7797 -28.9492,30.7288 -8.4661,4.3051"
     id="path3624"
     style="fill:none;stroke:#ffcd02;stroke-width:5;stroke-linecap:butt;stroke-linejoin:miter;stroke-miterlimit:4;stroke-opacity:1;stroke-dasharray:none" />
  <path
     d="m 3010,2484.5 4.5,8.5 0,30.5 4.5,8.5 15,10 10.5339,-0.9746 27.9661,-13.5254 6,-2"
     id="path3055-5"
     style="fill:none;stroke:#ffcd02;stroke-width:5;stroke-linecap:butt;stroke-linejoin:round;stroke-miterlimit:4;stroke-opacity:1;stroke-dasharray:none" />
  <path
     d="m 3422.0135,2454.9692 22.7291,12.3673 223.5074,125.163 41.25,24.25 45.25,34 27,31 9,46.5 23.25,20.25 267.5,132.25 32.5,38 57.75,33.25"
     id="path3612"
     style="fill:none;stroke:#ffcd02;stroke-width:5;stroke-linecap:butt;stroke-linejoin:miter;stroke-miterlimit:4;stroke-opacity:1;stroke-dasharray:none" />
  <path
     d="m 4390,3107 42,29 34,75 31,84 19,13 166,-61"
     id="path3620"
     style="fill:none;stroke:#0079c2;stroke-width:5;stroke-linecap:butt;stroke-linejoin:miter;stroke-miterlimit:4;stroke-opacity:1;stroke-dasharray:none" />
  <path
     d="m 4435.9997,3131 38,89 22,5 247,-94 62,-30 18,2 38,-9"
     id="path3622"
     style="fill:none;stroke:#f7931d;stroke-width:5;stroke-linecap:butt;stroke-linejoin:miter;stroke-miterlimit:4;stroke-opacity:1;stroke-dasharray:none" />
  <image
     xlink:href="/home/alexander/timelines/timelines/nyc/nycosm.png"
     x="1792"
     y="0"
     width="3584"
     height="5376"
     id="image12"
     style="display:none" />
  <path
     d="m 3437.7255,2468.8203 -16.2255,-8.3208 -121.695,-77.7885 -5.805,-0.439 -3.928,2.792 -53.072,81.9355 -12.9526,11.3848"
     id="path7674"
     style="fill:none;stroke:#f7931d;stroke-width:5;stroke-linecap:butt;stroke-linejoin:miter;stroke-miterlimit:4;stroke-opacity:1;stroke-dasharray:none" />
  <path
     d="m 2106,4231 c 1,4 6,17 6,17 l 53,18 59,22 151,122 26,47 132,105 15,21 7,18 35,248 16,101 -6,51 -20,82 -6,16 -5,25 5,47"
     id="path3608"
     style="fill:none;stroke:#ffcd02;stroke-width:5;stroke-linecap:butt;stroke-linejoin:miter;stroke-miterlimit:4;stroke-opacity:1;stroke-dasharray:none" />
  <path
     d="M 2599.5615,3470.7793 2606,3521 l -67,133 -104,163 -147,188 4,9 130,104 12,19 -16,17 -4,86 -11,98 -53,242 -23,101 5,37 13,17 168,128 11,21 17,122 5,20 15,17 11,18 -3,37 -5,25 4,45"
     id="path3636"
     style="fill:none;stroke:#f7931d;stroke-width:5;stroke-linecap:butt;stroke-linejoin:miter;stroke-miterlimit:4;stroke-opacity:1;stroke-dasharray:none" />
  <path
     d="m 2549,3408 15,33 5.4,8.4 14.6,15 10.4203,6.5382 L 2601,3515 l -8,18.5 -55.5,112 -57.5,92.5 -52,79 -144,184 -137,179 -61,78 -96,308"
     id="path3604"
     style="fill:none;stroke:#ffcd02;stroke-width:5;stroke-linecap:butt;stroke-linejoin:miter;stroke-miterlimit:4;stroke-opacity:1;stroke-dasharray:none" />
  <path
     d="m 2313,2671 288,160 75,44 123,103 101,82 14,10 28,0 77.3097,-10.3708 4.1869,1.6359 2.4361,3.0499 L 3040,3103 l 11,67 4.7134,29.0658 3.8034,4.159 5.113,2.267 L 3143,3190 l 73,-16 17,-1 71,59 187,140 10,20 0,13 -46,70 -6,28 -2,32 11,28 13,23 5,22"
     id="path3614"
     style="fill:none;stroke:#939598;stroke-width:5;stroke-linecap:butt;stroke-linejoin:miter;stroke-miterlimit:4;stroke-opacity:1;stroke-dasharray:none" />
  <path
     d="m 2476.4998,2537.5 -100.5,184 -20,41 -98,20.5 -6.5,27 -136.5,-4.5 -116,-3 -23.5,-1.5 -15,-4 -7.5,-7.5 1,-21 5.5,-22 8.5,-6 14,-1 42.5,2"
     id="path2955"
     style="fill:none;stroke:#7ea3d5;stroke-width:5;stroke-linecap:butt;stroke-linejoin:round;stroke-miterlimit:4;stroke-opacity:1;stroke-dasharray:none" />
  <path
     d="m 3774,604 -53,-27 -20,-10 -11,-1 -10,5 -11,33 -9,31 -46,39 -53,90 -20,40 -30,72 -39,66 -41,68 -47,42 -23,88 -15,27 -54,74 -35,80 -17,10 -70,-27 -62,-25 -14,-4 -41,9 -15,10 -20,52 -24.6949,45.2542 L 2950,1516 l -49,79 2,33 -362.5,659 2.5,25.5 40.2303,23.0486 3.4513,12.3126 L 2385,2715 l -28,56 -31,70 1,17 49,32 77,33 49,21 5,9 -25,61 -18,53 8,63 2,19 31,65 -3,161 -4,46 -39,75 -43,89 -28,55 -9,23 9,16 91,67 33,16 103,64 2,12 -47,76 3,9 50,38 11,79 4,22 -56,29"
     id="path3592"
     style="fill:none;stroke:#f7931d;stroke-width:5;stroke-linecap:butt;stroke-linejoin:miter;stroke-miterlimit:4;stroke-opacity:1;stroke-dasharray:none" />
  <path
     d="m 1952.4998,2787.5 -7,51.5 2.5,18.5 -1.5,15 -9,17.5 -10,39.5 -6.5,52.5 -3,23.5 5.4635,11.0134 21.5365,6.4866 45.8732,12.6119 191.2387,74.1493 4.0823,4.5074 2.5075,5.6418 6.8955,3.4478 5.0149,-4.3881 4.3881,-25.7015 -2.5075,-5.6417 -4.388,-2.1941 -4.3881,1.5672 -3.4477,1.5672 -153.5821,-43.5672 -30.0895,-9.0896 -47.6419,-9.4029"
     id="path3772"
     style="fill:none;stroke:#7ea3d5;stroke-width:5;stroke-linecap:butt;stroke-linejoin:miter;stroke-miterlimit:4;stroke-opacity:1;stroke-dasharray:none" />
  <path
     d="m 2598.5424,2324.9491 -20.6441,39.1526"
     id="path3015"
     style="fill:none;stroke:#f7931d;stroke-width:5;stroke-linecap:butt;stroke-linejoin:miter;stroke-miterlimit:4;stroke-opacity:1;stroke-dasharray:none" />
  <path
     d="m 2588,2261 17,-2 41.9232,27.8761 23.2985,3.2712 154.81,85.0742 L 3027,2494 l 21.5,14"
     id="path3610"
     style="fill:none;stroke:#ffcd02;stroke-width:5;stroke-linecap:butt;stroke-linejoin:miter;stroke-miterlimit:4;stroke-opacity:1;stroke-dasharray:none" />
  <path
     d="m 3013,2566 -73,40 -61,45 -10,46 13,121 8,29 42,97 -1,11 -26,42 4,28 22,187 -2,54 4,41 17,123 -2,7 -315,44 -10,2 -37,4 -76,-36 -34,-1 -79,160 -24,50 8,21 28,20 70,52 30,13 100,62 3,10 -46,72 0,14 51,40 14,97 -52,26 -3,11 0,10 8,61"
     id="path3638"
     style="fill:none;stroke:#a6ce38;stroke-width:5;stroke-linecap:butt;stroke-linejoin:miter;stroke-miterlimit:4;stroke-opacity:1;stroke-dasharray:none" />
  <path
     d="m 1971.4998,2800 -14.5,3.5 -7.5,9.5"
     id="path3821"
     style="fill:none;stroke:#7ea3d5;stroke-width:5;stroke-linecap:butt;stroke-linejoin:round;stroke-miterlimit:4;stroke-opacity:1;stroke-dasharray:none" />
  <path
     d="m 3278,702 -42,20 -45,21 -35,32 -30,46 -12,21 -30,59 -40,144 11,30 4,6 -12,97 1,33 -27,99 -11,42 -21,37 -26,76 -20,54 -33,51 -12,22 0,32 -15,29 -509,926 -55,101 36,86 -24,49 -19,50 -22,74 -3,30 2,36 -12,23 -45,71 0,0 0,0"
     id="path3590"
     style="fill:none;stroke:#0079c2;stroke-width:5;stroke-linecap:butt;stroke-linejoin:round;stroke-miterlimit:4;stroke-opacity:1;stroke-dasharray:none" />
  <path
     d="m 1905.9998,3010.5 24,8"
     id="path3938"
     style="fill:none;stroke:#7ea3d5;stroke-width:5;stroke-linecap:butt;stroke-linejoin:round;stroke-miterlimit:4;stroke-opacity:1;stroke-dasharray:none" />
  <path
     d="m 2583,4092 -2,12 18,124 2,32 70,479 3,26 -20,180 -7,68 -1,117 -3,26 2,20 -2,9 -28,7 -29,-4 -10,-3 -3,-17"
     id="path3616"
     style="fill:none;stroke:#f7931d;stroke-width:5;stroke-linecap:butt;stroke-linejoin:round;stroke-miterlimit:4;stroke-opacity:1;stroke-dasharray:none" />
  <path
     d="m 2235,3092 0,19 54,40 33,52 72,74 28,12 45,15 20,2 10,11 0,47 -3,50 -7,15 10,17 10,9 69,34 16,4 33,-6 32,15 66,35 139,38 32,9 82,7 232,16 237,18 48,-6 30,7 24,19 10,40 4,20 13,11 207,-39 60,-13"
     id="path3618"
     style="fill:none;stroke:#0079c2;stroke-width:5;stroke-linecap:butt;stroke-linejoin:round;stroke-miterlimit:4;stroke-opacity:1;stroke-dasharray:none" />
  <path
     d="m 1917.9998,3006.5002 -8.251,5.6018 -61.7672,-25.7572"
     id="path3823"
     style="fill:none;stroke:#7ea3d5;stroke-width:5;stroke-linecap:butt;stroke-linejoin:round;stroke-miterlimit:4;stroke-opacity:1;stroke-dasharray:none;marker-start:none" />
  <path
     d="m 3840,3664 70,-12 14,-16 30,-27 28,-6 174,-12 55,-14 44,-16 43,-31 48,-24 49,-8"
     id="path3628"
     style="fill:none;stroke:#0079c2;stroke-width:5;stroke-linecap:butt;stroke-linejoin:miter;stroke-miterlimit:4;stroke-opacity:1;stroke-dasharray:none" />
  <path
     d="m 4199,3582 14,5 74,201 52,144 9,29 75,371 66,343 10,40 69,208 13,26 26,18 32,6 101,-15 54,-19 62,3 86,-8 72,-12 70,-56 35,-29 24,-34 69,-50"
     id="path3630"
     style="fill:none;stroke:#0079c2;stroke-width:5;stroke-linecap:butt;stroke-linejoin:miter;stroke-miterlimit:4;stroke-opacity:1;stroke-dasharray:none" />
  <path
     d="m 4489,4699 23,74 43,131 14,43 -3,22 -19,22 -59,33 -68,33 -103,41 -70,28"
     id="path3632"
     style="fill:none;stroke:#6c6e70;stroke-width:5;stroke-linecap:butt;stroke-linejoin:miter;stroke-miterlimit:4;stroke-opacity:1;stroke-dasharray:none" />
  <path
     d="m 2442.5,2918 6.5,18.5 -41,109.5 30,71 58,142 72,181 17.0482,18.8981 26.632,16.9174 L 2619,3529.5 2702.6763,3687.9421 2792,3850 l 6.5,128 -35.5,157 33,222 50,339 41,289 -2,46 -14,36 -50,92"
     id="path3634"
     style="fill:none;stroke:#f7931d;stroke-width:5;stroke-linecap:butt;stroke-linejoin:miter;stroke-miterlimit:4;stroke-opacity:1;stroke-dasharray:none" />
  <path
     d="m 1847.9816,2986.3448 -55.9818,-23.3446 -61.5,-26.0002 -14,-11 -17.5,-31.5 -12.5,-22.5 -23.5,-30 -49,-53 -15.5,-19.5 -24.5,-25.5 -31.5,-15 -62.5,-26 -103.5,-34 -29.5,-12.5 -14.5,-3.5 -105.5,-4 -73.5,-3.5 -55.5,-4.5 -87,-14 -55.00003,-4 -78.5,-2 -46,4 -85.5,6.5 -104.5,10.5 -55.5,8.5 -16,5.5 -47.5,37 -24.5,24.5 -20,10 -22.5,17.5 -31,27.5"
     id="path5243"
     style="fill:none;stroke:#7ea3d5;stroke-width:5;stroke-linecap:butt;stroke-linejoin:round;stroke-miterlimit:4;stroke-opacity:1;stroke-dasharray:none;stroke-dashoffset:0;marker-start:none" />
  <path
     d="m 2488,2430.5 42,23 20.5,1.5 52,30 24.5,13 118.5,62.5 72,39 37.5,21.5 71,19 26,-2 39.5,-21 2.5,-9.5 -12,-27.5 10.5,-36.5 20,-30 13,-14.5 25,15.5"
     id="path3663"
     style="fill:none;stroke:#b33c96;stroke-width:5;stroke-linecap:butt;stroke-linejoin:round;stroke-miterlimit:4;stroke-opacity:1;stroke-dasharray:none" />
  <path
     d="m 2591,2261 -81,156 -9,41 -9,48 -9,74 -32,210 -8,19 -45,70 -68,106"
     id="path2826"
     style="fill:none;stroke:#ffcd02;stroke-width:5;stroke-linecap:butt;stroke-linejoin:miter;stroke-miterlimit:4;stroke-opacity:1;stroke-dasharray:none" />
  <path
     d="m 454.49977,2750 -107.5,-42.5 -97,-38.5 -14,-11.5 -2.5,-17 10,-22 -2,-9.5 -6,-9.5 -29.5,-14.5 -15,-8.5 -5.5,-9 -6,-17.5 0.5,-19.5 12.5,-20.5 13,-11 1,-10 1,-10.5 -6,-23.5 -5.5,-18 -4.5,-19.5 3,-28.5 14,-39 27.5,-33.5 13,-23 29,-55 6.5,-16.5 -2.5,-18 -10,-44 4,-15 9,-25 24.5,-45 6.49999,-12.4999 -0.5,-13.5 -2.5,-12 -6,-4 -17,7 -14,7 -16.5,3 -18.5,1 -86.49999,-1.5"
     id="path3650"
     style="fill:none;stroke:#009ddb;stroke-width:5;stroke-linecap:butt;stroke-linejoin:miter;stroke-miterlimit:4;stroke-opacity:1;stroke-dasharray:none" />
  <path
     d="m 2331,2983 -80,124 -8,2 -10.2388,-5.0597 -4.5093,2.8121 L 2208,3148 l -17,32 2,34.5 3.5,20.5 6.1269,27.7761 18.9403,17.3433 L 2318,3326 l 55,24 90,35 11,16 14,5 62,2"
     id="path3600"
     style="fill:none;stroke:#ffcd02;stroke-width:5;stroke-linecap:butt;stroke-linejoin:round;stroke-miterlimit:4;stroke-opacity:1;stroke-dasharray:none" />
  <path
     d="m 1917.4998,2766.5 3.5,5.5"
     id="path3660"
     style="fill:none;stroke:#04999b;stroke-width:5;stroke-linecap:butt;stroke-linejoin:round;stroke-miterlimit:4;stroke-opacity:1;stroke-dasharray:none" />
  <path
     d="m 2331,2982 2,12 31,28 31,16 10,16 94,224 52,133"
     id="path3602"
     style="fill:none;stroke:#ffcd02;stroke-width:5;stroke-linecap:butt;stroke-linejoin:miter;stroke-miterlimit:4;stroke-opacity:1;stroke-dasharray:none" />
  <path
     d="m 2594.2,3471 13.4004,7.7722 6.8996,50.7278 14.5,32 76,142.5 82,148 6,126 -35,155 31,216 52,357 39,276 1,48 -65,130 -91,27 -63,-6 -43,17 -43,-6 -6,-8 -3,-16"
     id="path3606"
     style="fill:none;stroke:#ffcd02;stroke-width:5;stroke-linecap:butt;stroke-linejoin:miter;stroke-miterlimit:4;stroke-opacity:1;stroke-dasharray:none" />
  <path
     d="m 3475,3603 8,26 -4,40 -3,16 35,171 28,143 -8,25 -47,97"
     id="path3617"
     style="fill:none;stroke:#939598;stroke-width:5;stroke-linecap:butt;stroke-linejoin:miter;stroke-miterlimit:4;stroke-opacity:1;stroke-dasharray:none" />
  <path
     d="m 2225,3177 19,-26 23,-31 17,-17 16,-13 20,-23 50,-90 15,-20 165,71 224,91 32,12 14,16 93,43 154,115 72,55 320,239 56,43 107,-19 24,-6 187,-77 7,-9 -20,-76 4,-8 23,-11 50,-17 88,-17 54,-3 24,-9 43,-18 44,-10 62,-2 23,-12 43,-38 30,-19 31,-8 61,-16 18,-2 25,19 18,17 39,12 24,-2 160,-59"
     id="path3619"
     style="fill:none;stroke:#b0720c;stroke-width:5;stroke-linecap:butt;stroke-linejoin:miter;stroke-miterlimit:4;stroke-opacity:1;stroke-dasharray:none" />
  <path
     d="m 1977.9998,1931 14.5,22.5 17.5,14.5 148.5,99 39,26 5,8.5 0,11 -4,15.5 -19.5,39 -8.5,26 -7.5,17 -14,20.5 -20,25 -21,37.5 -23,27.5 -18.5,28.5 -18.5,29.5 -10.5,12 -13.5,7.5 -14.5,2.5 -21,-7.5 -11.5,0.5 -11,3 -9,7.5 -8.5,20.5 -45.5,103 -10.5,30 -9,16 -21,33.5 -6.5,17 -4.5,24.5 -6,14 -4,25 -5,16.5 -9.5,17.5 -4.5,6 1,5.5 5.5,4 39,2 17.5,5 14.5,15 9.5,6 58.5,7 10,-1 18,-5.5 14.5,-0.5"
     id="path2929"
     style="fill:none;stroke:#04999b;stroke-width:5;stroke-linecap:butt;stroke-linejoin:round;stroke-miterlimit:4;stroke-opacity:1;stroke-dasharray:none" />
  <path
     d="m 3639,3098 -11,45 -26,33 -168,56 -46,59 -29,7 -230,29 -7,9 -5,3"
     id="path3623"
     style="fill:none;stroke:#f7931d;stroke-width:5;stroke-linecap:butt;stroke-linejoin:miter;stroke-miterlimit:4;stroke-opacity:1;stroke-dasharray:none" />
  <path
     d="m 3117,3337 -144,-111 -55,-39 -95,-43.5 -13,-16 -225.5,-91 -137.5,-58.5 -7,-16"
     id="path3625"
     style="fill:none;stroke:#f7931d;stroke-width:5;stroke-linecap:butt;stroke-linejoin:miter;stroke-miterlimit:4;stroke-opacity:1;stroke-dasharray:none" />
  <path
     d="m 1926.9998,2766 -6.5,7.5 -1,21 11,19.5 5.5,10 -5,27.5 -3.5,41 -9,18.5 -3,46.5 3.5,3 32.5,12"
     id="path3703"
     style="fill:none;stroke:#04999b;stroke-width:5;stroke-linecap:butt;stroke-linejoin:round;stroke-miterlimit:4;stroke-opacity:1;stroke-dasharray:none" />
  <path
     d="m 2618,2489 -14,7 -105,194 -33,56 0,34 -9,36 -54,84 -18,29 -7,25 -53,73 -14,25 -3,16 -19,27 -31,15"
     id="path3627"
     style="fill:none;stroke:#00a65b;stroke-width:5;stroke-linecap:butt;stroke-linejoin:miter;stroke-miterlimit:4;stroke-opacity:1;stroke-dasharray:none" />
  <path
     d="m 988.49977,3886 53.50003,-80.5 52.5844,-81.6236 14.4156,-22.3764 79.5,-124 45,-68.5 23,-29 111,-112 74,-77.5 19,-16 84,-53 32,-12.5 75.5,-46 15,-11.5 41,-33.5 4,-10.5 -5.5,-25.5 0.5,-10 13,-7.5 9,2 26,11.5 11,-6 6,-16.5 5,-2.5 38.5,7 30.5,4 10,2.5 5.5,5 3,7 1.5548,0.4636"
     id="path3705"
     style="fill:none;stroke:#04999b;stroke-width:5;stroke-linecap:butt;stroke-linejoin:round;stroke-miterlimit:4;stroke-opacity:1;stroke-dasharray:none" />
  <path
     d="m 2263,3107 -16,9 -29.5,46.5 -31.5,54.5 -4.572,14.4779 1.8965,9.398 10.6316,20.472 24.083,22.7706 L 2266,3318 l 79,59 31,8 98,21 78,43 17,12 38,77"
     id="path3629"
     style="fill:none;stroke:#00a65b;stroke-width:5;stroke-linecap:butt;stroke-linejoin:round;stroke-miterlimit:4;stroke-opacity:1;stroke-dasharray:none" />
  <path
     d="m 1865.4998,3079 35.5,5.5 41,6.5 5,-3.5 6.5,-54.5 -4.5,-14.5 4.5,-43 -4.5,-3.5"
     id="path3707"
     style="fill:none;stroke:#04999b;stroke-width:1;stroke-linecap:butt;stroke-linejoin:miter;stroke-miterlimit:4;stroke-opacity:1;stroke-dasharray:none" />
  <path
     d="m 2618,2490 15,-3 119,-214 68,-122 70,-129 177,-319 12,-22"
     id="path3631"
     style="fill:none;stroke:#00a65b;stroke-width:5;stroke-linecap:butt;stroke-linejoin:round;stroke-miterlimit:4;stroke-opacity:1;stroke-dasharray:none" />
  <path
     d="m 3077,1683 27,-47 29,-50 35,-48 9,-17 28,-87 3,-11 -11,-64 7,-20 31,-67 36,-81 7,-19 13,-12 72,-132 33,-62 54,-74 18,-37 20,-48 47,-79 35,-62 39,-29 23,-20 13,-20 15,-37 47,-53 25,-31 35,-62"
     id="path3633"
     style="fill:none;stroke:#00a65b;stroke-width:5;stroke-linecap:butt;stroke-linejoin:round;stroke-miterlimit:4;stroke-opacity:1;stroke-dasharray:none" />
  <path
     d="m 3863,1045 10,-22 22,-26 55,-57 58,-62 30,-40 36,-59 48,-72 91,-142 69,-107 49,-90"
     id="path3637"
     style="fill:none;stroke:#00a65b;stroke-width:5;stroke-linecap:butt;stroke-linejoin:round;stroke-miterlimit:4;stroke-opacity:1;stroke-dasharray:none" />
  <path
     d="m 3160,1551 9,-1 34,34 117,63 45,27 13,-4 39,-24 9,-31 4,-21 31,-27 14,-8 49,-19 77,-95 22,-18 36,-26 15,-44 1,-30 11,-11 61,-6 36,-5 53,-21 122,-46 144,-22 85,-92 58,-39 61,-63 15,-23 13,-44 29,-20"
     id="path3639"
     style="fill:none;stroke:#00a65b;stroke-width:5;stroke-linecap:butt;stroke-linejoin:round;stroke-miterlimit:4;stroke-opacity:1;stroke-dasharray:none" />
  <path
     d="m 2499,2424 20,-37 8,-25 18,-38 12,-31 5,-33 -5,-56 -1,-119 12,-54 32,-67 54,-86 26,-48 36,-67 5,-14 2,-32 5,-19 97,-173 123,-222 102,-185 127,-229 20,-36 20,-36 14,-20 49,-23 13,-14 57,-108 72,-74 16,-11 51,-89 46,-111"
     id="path3641"
     style="fill:none;stroke:#ef3a42;stroke-width:5;stroke-linecap:butt;stroke-linejoin:round;stroke-miterlimit:4;stroke-opacity:1;stroke-dasharray:none" />
  <path
     d="m 2718,1761 12,-4 82,44 91,-26 156,-280 22,-37 35,-6 50,-1 14,1 130,44 14,7 27,-11 55,6 196,-132.5 1.5,-82 34.5,-83.5 17,-34 32,-24 21,-8 29,-5 15,-16 9,-6 24,7 24,-5 40,-37 15,-48 11,-14 15,-32 2,-114 7,-296 17,-40 22,-36 101,-244 46,-81"
     id="path3643"
     style="fill:none;stroke:#ef3a42;stroke-width:5;stroke-linecap:butt;stroke-linejoin:round;stroke-miterlimit:4;stroke-opacity:1;stroke-dasharray:none" />
  <path
     d="m 3081,1377 26,15 4,7 -36,67"
     id="path3645"
     style="fill:none;stroke:#ef3a42;stroke-width:5;stroke-linecap:butt;stroke-linejoin:round;stroke-miterlimit:4;stroke-opacity:1;stroke-dasharray:none" />
  <path
     d="m 2502,2420 -98,182 -57,100 -31,69 -27,65 -16,116 -7,52 -39,72 -13,18 -16,53 -13,36 -12.5,49 10,20.5 13.5,16"
     id="path3647"
     style="fill:none;stroke:#ef3a42;stroke-width:5;stroke-linecap:butt;stroke-linejoin:round;stroke-miterlimit:4;stroke-opacity:1;stroke-dasharray:none" />
  <path
     d="m 135.76427,3217.203 -24.74874,56.5685 -3.53553,15.5564 5.65685,10.6066 9.8995,4.2426 16.26346,-3.5355 31.11269,-8.4853 10.60661,2.8284 52.3259,45.962 7.07107,5.6568 9.19238,-1.4142 18.38478,-2.1213 12.02081,4.2426 14.14214,13.4351 5.65685,26.1629 -1.41421,25.4559 -11.31371,26.1629 -18.38477,26.8701 -19.09189,13.435 -15.55635,4.9498 -13.43502,-1.4143 -16.97057,-9.8995 -5.65685,-9.8994 -5.65686,-12.0209 -5.65685,-4.9497 -7.77817,-2.1213 -40.30509,6.3639 -7.77818,5.6569 -2.12132,12.0208 -3.53553,56.5685"
     id="path3711"
     style="fill:none;stroke:#990033;stroke-width:5;stroke-linecap:butt;stroke-linejoin:round;stroke-miterlimit:4;stroke-opacity:1;stroke-dasharray:none" />
  <path
     d="m 2231.5,3066 4,13 22.5,14 20.5,25 5.5,8.5 -24,31.5 -21.5,29.5 -5,16 3.5,12.5 42.5,42.5 11.5,9.5 94.5,41 60,22 3,6.5 11,42 4,13.5 6.5,7 36,19 57,32 12,11 35.5,73"
     id="path3649"
     style="fill:none;stroke:#ef3a42;stroke-width:5;stroke-linecap:butt;stroke-linejoin:round;stroke-miterlimit:4;stroke-opacity:1;stroke-dasharray:none" />
  <path
     d="m 2609,3531.5 53.5,104.5 31.5,57 82,24 94.5,26 55.5,4.5"
     id="path3651"
     style="fill:none;stroke:#ef3a42;stroke-width:5;stroke-linecap:butt;stroke-linejoin:round;stroke-miterlimit:4;stroke-opacity:1;stroke-dasharray:none" />
  <path
     d="m 2862,3577 2,14 -67.5,257.5 1,16"
     id="path3621"
     style="fill:none;stroke:#6c6e70;stroke-width:5;stroke-linecap:butt;stroke-linejoin:miter;stroke-miterlimit:4;stroke-opacity:1;stroke-dasharray:none" />
  <path
     d="m 2923,3746.5 231.5,16.5 62.5,8.5 12,22 3.5,13 21.5,24 39.5,46.5 10,5.5 95,-17 101.5,-21 170,-33 47.5,-9"
     id="path3653"
     style="fill:none;stroke:#ef3a42;stroke-width:5;stroke-linecap:butt;stroke-linejoin:round;stroke-miterlimit:4;stroke-opacity:1;stroke-dasharray:none" />
  <path
     d="m 2928,3745.5 -5.5,85.5 2,35 18,233.5 20,223.5"
     id="path3655"
     style="fill:none;stroke:#ef3a42;stroke-width:5;stroke-linecap:butt;stroke-linejoin:round;stroke-miterlimit:4;stroke-opacity:1;stroke-dasharray:none" />
  <path
     d="m 2607,3537.5 40.7639,77.5987 42.2361,80.4013 5.5,2 88,27.5 84.5,23 284,20"
     id="path3657"
     style="fill:none;stroke:#00a65b;stroke-width:5;stroke-linecap:butt;stroke-linejoin:round;stroke-miterlimit:4;stroke-opacity:1;stroke-dasharray:none" />
  <path
     d="m 2923,3751.5 -3,56.5 -2,25 0.5,22 15,191 14,167.5 10,109"
     id="path3659"
     style="fill:none;stroke:#00a65b;stroke-width:5;stroke-linecap:butt;stroke-linejoin:round;stroke-miterlimit:4;stroke-opacity:1;stroke-dasharray:none" />
  <path
     d="m 2610.5,2484 -104,-59.5"
     id="path3661"
     style="fill:none;stroke:#6c6e70;stroke-width:5;stroke-linecap:butt;stroke-linejoin:round;stroke-miterlimit:4;stroke-opacity:1;stroke-dasharray:none" />
  <path
     d="m 3046.5,2512.5 24.5,14.5 31,37 26.5,30 9.5,6 37.5,5.5 113.5,17.5 30,5.5 9.5,-3 39,-16.5 50,-17 22,-2 38,-4.5 77,-12 50.5,-6 286.5,-40 79,-11 72,-27 153.5,-61 27.5,-14.5 28.5,-15.5 31,-8 47,-22"
     id="path3665"
     style="fill:none;stroke:#b33c96;stroke-width:5;stroke-linecap:butt;stroke-linejoin:round;stroke-miterlimit:4;stroke-opacity:1;stroke-dasharray:none" />
  <path
     d="m 3190,1477 -9,-9 5,-9 123.5,41 14,8.5 15.5,-6 13,-5.5 55,6 57,-38.5 135.5,-91.5 6.5,-5 2.5,-85.5 34.2102,-80.906 16.2898,-32.094 30.5,-23.5 18,-7 32.5,-6 9,-9.5 12.5,-11.5 8,2.5 16,4 26,-4.5 43.5,-41 9,-31"
     id="path3635"
     style="fill:none;stroke:#00a65b;stroke-width:5;stroke-linecap:butt;stroke-linejoin:round;stroke-miterlimit:4;stroke-opacity:1;stroke-dasharray:none" />
  <path
     d="m 4593,3296 -58,28.5 -5.5,7 -3,11 57,132.5 67,177 14,42 2,27 0,40.5 -4.5,21 -14.5,30 -6.5,23.5 -2.5,29.5 0,48 -4,10 -19,11 -13.5,18 -4.5,24 2,18 32.5,66 31.5,44.5 23.5,21 30.5,6 54.5,-5.5 16,7 17,22.5 10,17.5 28,8 12.5,-15.5 65.5,-38 5.5,-8.5 -2,-8 -29.5,-23.5 -36.5,-11 -9.5,1.5 -54.5,35.5 -18.5,11.5 -11.5,1.5"
     id="path3640"
     style="fill:none;stroke:#fff104;stroke-width:5;stroke-linecap:butt;stroke-linejoin:round;stroke-miterlimit:4;stroke-opacity:1;stroke-dasharray:none" />
  <path
     d="M 4790.5,4136.5 4790,4116"
     id="path3642"
     style="fill:none;stroke:#fff104;stroke-width:5;stroke-linecap:butt;stroke-linejoin:round;stroke-miterlimit:4;stroke-opacity:1;stroke-dasharray:none" />
  <path
     d="m 4638,3885 -5.5,-10 -6,-0.5 -38.5,20 -128.5,-32 -38.5,13.5 -61,-7.5 -30.5,21.5"
     id="path3644"
     style="fill:none;stroke:#fff104;stroke-width:5;stroke-linecap:butt;stroke-linejoin:round;stroke-miterlimit:4;stroke-opacity:1;stroke-dasharray:none" />
  <text
     x="89.453125"
     y="206.96094"
     id="text3652"
     xml:space="preserve"
     style="font-size:144px;font-style:normal;font-weight:normal;fill:#000000;fill-opacity:1;stroke:none;font-family:Sans;-inkscape-font-specification:Sans"><tspan
       x="89.453125"
       y="206.96094"
       id="tspan1">2010</tspan></text>
  <path
     d="m 3027,2494 49,30 20,-3 48,-63 125,-203 8,-16 107,-117"
     id="path3610-4"
     style="fill:none;stroke:#ffcd02;stroke-width:5;stroke-linecap:butt;stroke-linejoin:miter;stroke-miterlimit:4;stroke-opacity:1;stroke-dasharray:none" />
  <text
     x="89.453125"
     y="5273.9609"
     id="text3652-1"
     xml:space="preserve"
     style="font-size:144px;font-style:normal;font-weight:normal;fill:#000000;fill-opacity:1;stroke:none;font-family:Sans;-inkscape-font-specification:Sans"><tspan
       x="89.453125"
       y="5273.9609"
       id="tspan2">2010</tspan></text>
  <path
     d="m 1661.5,3156 -17.5,4 -30,-5.5 -282,-91.5"
     id="path4056"
     style="fill:none;stroke:#04999b;stroke-width:5;stroke-linecap:butt;stroke-linejoin:round;stroke-miterlimit:4;stroke-opacity:1;stroke-dasharray:none" />
  <path
     d="m 2769.5,2339 58.7664,32.2213 56.2336,33.2787"
     id="path5582"
     style="fill:none;stroke:#cd1b19;stroke-width:5;stroke-linecap:butt;stroke-linejoin:round;stroke-miterlimit:4;stroke-opacity:1;stroke-dasharray:none" />
</svg>
