<?xml version="1.0" encoding="UTF-8" standalone="no"?>
<svg
   xmlns:dc="http://purl.org/dc/elements/1.1/"
   xmlns:cc="http://creativecommons.org/ns#"
   xmlns:rdf="http://www.w3.org/1999/02/22-rdf-syntax-ns#"
   xmlns:svg="http://www.w3.org/2000/svg"
   xmlns="http://www.w3.org/2000/svg"
   xmlns:xlink="http://www.w3.org/1999/xlink"
   version="1.1"
   width="14600"
   height="20500"
   viewBox="-1200, -7450, 14600, 20500"
   id="svg2">
  <metadata
     id="metadata8">
    <rdf:RDF>
      <cc:Work
         rdf:about="">
        <dc:format>image/svg+xml</dc:format>
        <dc:type
           rdf:resource="http://purl.org/dc/dcmitype/StillImage" />
        <dc:title></dc:title>
      </cc:Work>
    </rdf:RDF>
  </metadata>
  <defs
     id="defs6" />
  <image
     xlink:href="../../streetmap/lonosm.png"
     style="display:none"
     id="image12"
     height="15977.371"
     width="12823.943"
     y="-7482.5708"
     x="-4725.0288" />
  <path
     style="opacity:1;fill:none;fill-opacity:1;fill-rule:nonzero;stroke:#ee2e24;stroke-width:5;stroke-linecap:butt;stroke-linejoin:round;stroke-miterlimit:4;stroke-dasharray:none;stroke-opacity:1"
     d="m 2589.6294,2371.6159 3.2235,7.6346 14.0815,14.2512 6.447,11.7063 2.2055,16.7961 -1.6965,17.4746 0.1696,14.5905 2.7145,5.5987"
     id="path926" />
  <path
     d="m 4357.25,2782 16,15.5 13.25,21.25 27.25,65.25 31.75,55.5 27,30 47,38 39,25.5 30.5,19.5 35,13.5 41,5.5 h 31 l 74.5,-7.5 56,-5.5 34.5,-11.5 17.5,-4.5 18.5,8 45.5,30 71.5,42.5 100.5,59 61,37 13,5 18,-1.5 43.5,-10.5 233.5,-50 85.5,-20.5 34.5,-15 83,-46.5 21.5,-6 22,-3 64.5,10.5 40.5,2.5 191.5,9 51.5,-5.5 122,-18 69.5004,1 68.4996,6.5 152,5.5 73.5,1.5 15.5,5.5 17,11 16,26.5"
     id="path4597"
     style="fill:none;stroke:#176fc1;stroke-width:5;stroke-linecap:butt;stroke-linejoin:round;stroke-miterlimit:4;stroke-opacity:1;stroke-dasharray:none" />
  <path
     d="m 2004.5,2450.5 -15,-19.5 -9.5,-26 -4.5,-32 4,-37 2.5,-17 -11.5,-23.5 -4,-14.5 3,-11.5 10.5,-17 31,-33.5 10.5,-24.5 1,-35.5 -4.5,-38.5 -17,-37.5 -42.5,-42.5 -23.5,-37.5 -42,-78 -37,-24.5 -23.5,-15 -13,-22.5 -10,-28.5 -21,-28 -60,-43.5 -71.5,-48 -52,-29.5 -21,-8.5 -31.5,-4.5 -52,-21.5 -34,-2.5 -19,-4 -26.5,-18 -22,-31 -26,-49 -34,-35 -42,-60 -50.5,-43.5 -33,-21 -45.5,-11.5 -68,-17.5 -44.5,-8 -42,-2 -44.5,2.5 -48.5,11.5 -138,48 -77.5,28 -18.5,7.5 -77.5,52.5 -54.5,37.5 -20,13.5 -17,19.5 -12.5,21 -11,47 -14,31 -23.5,26 -54.5,30.5 -75.5,39 -55.5,27 -12,4.5 -32,3.5 -17.5,0 -16,5 -36.5,23"
     id="path3598"
     style="fill:none;stroke:#1c3f95;stroke-width:5;stroke-linecap:butt;stroke-linejoin:round;stroke-miterlimit:4;stroke-opacity:1;stroke-dasharray:none" />
  <path
     d="m 1834.5,692.5 44.5,90.5 26.5,55.5 12,38 28,144 7.5,21 18.5,23.5 37.5,26 17.5,13 13,17 31,59 3,29.5 -7.5,48 -10.5,45 -15,22 -20.5,19 -55,43 -7,15.5 -2,15 9.5,30 15.5,26.5 15,16 18.5,28.5 23,20 28,17.5 26,10.5 33.5,12.5 13,6.5 31,20 22,14 56.5,35.5 73,34 59.5,24.5 30,10 204,50 108.5,28.5 42,7 92,10.5 62.5,-11 30,-1 38.5,-6.5 18.5,6.5 13,9.5 13.2315,12.0129 20.2685,17.9871 13.5,19 7.2539,14.7573 0.6446,21.4406 -3.9148,42.2685 -0.9759,29.7539 -0.3279,24.2892 4.1772,18.1015 12.2409,16.0525 35.5743,48.5951 11.7241,38.1898 6.6205,23.1033 13.1552,23.8103 10.8276,13.6035 17.4484,5.0173"
     id="path2818"
     style="fill:none;stroke:#b06111;stroke-width:5;stroke-linecap:butt;stroke-linejoin:round;stroke-miterlimit:4;stroke-opacity:1;stroke-dasharray:none" />
  <path
     d="M 3721.3429,1531.5274 3719,1565.5 l -12,54 -1.5,19.5 10.5,46.5 10.6716,33.1949"
     id="path3592"
     style="fill:none;stroke:#d3a05d;stroke-width:5;stroke-linecap:butt;stroke-linejoin:round;stroke-miterlimit:4;stroke-opacity:1;stroke-dasharray:none" />
  <path
     d="m 3305.4263,197.98377 41.7193,19.79899 36.7695,4.24264 26.8701,3.53553 37.4766,16.26346 38.1838,26.87004 20.5061,20.5061 9.8995,30.4056 24.7487,114.5513 -1.4142,18.3848 -2.8284,16.2634 -33.234,41.01217 -36.0625,36.0625 -14.1421,21.2132 -14.1422,26.87 -2.8284,28.9914 2.8284,39.598 5.6569,36.7695 14.1421,22.6275 3.5356,43.8406 1.4142,45.2548 4.9497,14.1422 9.1924,14.1421 28.2843,15.5563 21.2132,14.1422 32.5269,28.9914 12.7279,25.4558 15.0931,32.33189 23.7732,18.92113 33.868,19.48199 26.3093,19.60399 14.8006,22.091 11.8746,17.7508 24.4076,34.5996 18.7993,27.8942 7.4365,19.2379 15.9709,34.8678 10.2164,42.9871 4.8766,35.2822 11.5575,96.9468 12.8255,28.6988 19.092,41.8412 0.7559,20.4817 -11.2407,13.0693 -11.7519,13.3055 -16.4106,9.5902 -33.8904,-0.5426 -19.0698,9.0522 -11.2806,15.1615 -5.0916,28.6795 -1.2071,25.87 -1.634,16.821 -13.5,66 -4.5,22 -16.5,28 -23.5,36.5 -23,24.5 -16,20.5 -22,43.5 -15.5,43 -10.5,28 -6,41.5 0.5,35 -3,51.5 -10,68.5 -5.5,30 -7.5,22 1,18.5 10.5,25.5 -1.5,8.5 1,13.5 10.5,16 19.5,26 5.5,16.5 7,24.5 -4.5,15.5 -13,14 -27.5,31.5 -14.5,11.5 -18.5,8.5 -32,13 -29,8.5 -21.5,12 -43,25 -35,26 -46,35.5 -22,7 -38,4.5 -39.5,11.5 -20,21 -13.5,17.5 -38,32.5 -16,15.5 -2,12.5 -18.4449,12.074 -8.1565,14.3526 -28.8986,-1.9266 -31.5,1 -43,-4 -16,-4 -12.5,-4.5 -20.5,0.5 -16.5,9.5 -53,58 -16.5,11.5 -19,2.5 -66,-8.5 -26.5,0 -19.5,1.5 -36.5,-4 -47.5,2 -9,-2.5 -15.5,-8 -24,-35 -7,-5.5 -18,-2.5 -24.5,0 -42.5,-4 -29,-3.5 -34,-9.5 -44,-2.5 -20.5,-1.5 -89.5,-0.5 -52.5,5.5 -44,6 -25,-6 -24.5,-18 -19.5,-23.5 -31,-23.5 -10.5,-17 -14.5,-39 -54.5,-47.5 -13,-2.5 -16.5,0 -36.5,20.5 -74.5,15.5 -22,9 -46.5,28 -70,23 -44,16.5 -37.5,24 -25.5,28.5 -33,31 -37,29.5 -27,23 -29,38 -29.5,36.5 -17,12.5 -54.5,17 -19,15 -10.5,18 -6,22 0.5,47.5 -9.5,22 -11.5,15.5 -22.5,14 -37.5,16 -30.5,6.5 -38,2 -38,-4 -51.5,-32 -21,-8.5 -23.5,-1 -35,9.5"
     id="path3594"
     style="fill:none;stroke:#1c3f9f;stroke-width:5;stroke-linecap:butt;stroke-linejoin:round;stroke-miterlimit:4;stroke-opacity:1;stroke-dasharray:none" />
  <path
     d="M 2762.7465,2012.021 2786,2006 l 46.5,-13.5 21.5,-2.5 24.5,1.5 20,11.5 17.5,14 19,24.5 43.5,62 3.5,10.5 -7.5,22 -2,26 3.4888,13.5387 48.5818,52.648 5.3184,11.7092 14.9888,37.4225 8.0723,8.8649 5.3055,-0.1093 4.2444,-1.574 26,-22.5 6,-6 3,-24 8,-13 16.5,-12 32.5,-15.5 22,-6 20.5,-3.5 15.5,-4 41.5,-10.5 36,-10 23,-6.5 11,2.5 8,10 6,20 19.5,69 8.5,5.5 7.5,26 3.5689,16.7586 8.9311,20.7414 27.5,50.5 8.5,6 14,2 14,-4.5 12.5,6 8.5,15 8.5,15 6.5,6 32.5,5 41.4321,8.502 13.8931,11.6443 21.3503,15.6093 37.4932,16.1816 6.1127,10.648 -5.4114,19.7797 -0.963,15.426 3.0465,8.5387 10.0465,9.1704 16,14.5 18.4519,6.9287 46.2899,-5.4116 7.6377,2.6723 30.3967,37.0174 20.8101,34.3105"
     id="path3600"
     style="fill:none;stroke:#b06111;stroke-width:5;stroke-linecap:butt;stroke-linejoin:round;stroke-miterlimit:4;stroke-opacity:1;stroke-dasharray:none" />
  <path
     d="m 1854,2303 62.5,-1.5 50,-0.5 27,-0.5 17.5,-6.5 22.5,-20.5 52,-58.5 25.5,-29 30,-29.5 27,-11.5 16.5,1.5 61.5,22 51,17.5 18,11 18,25 26,39.5 13.5,17 19.5,14.5 25,5 46.5,-4.5 45.5,-7.5 30.5,-0.5 23,7.5 19.5,13.5 7.5,24.5 2,25.5 -3.5,37.5 0.5,27 -0.9387,23.5763 2.4345,5.9793 5.2952,4.2754 47.027,10.5265 15.747,-1.8758 75.4042,-25.6068 L 2791.5,2411 l 25.5,-10 19.5,-1.5 49.5,-15.5 22.5,-7 33.5,-2.5 46,-7.5 60.5,-11.5 44,-9 135,-21 52.5,-8.5 54.5,-7 62.5,-11 62,-11 53.5,-10.5 30.5,-7 35.5,-9.5 24,2 25.5,-4.5 25.5,-3 15.5,0.5 50.5,9.5 46.5,22.5 39,18 18.5,8 59,14.5 7.5,-2 19.5,-11 17.5,-12 13,-22.5 13,-28 20.5,-31.5 16,-21 14,-16 16.5,-14.5 25.5,-16 28,-12.5 30,-10 33.5,-6 64,-12.5 25.5,1.5 17.5,13 21,17.5 18.5,12.5 28.5,7 45,2 33,-16 32.5,-15 37,-11 32,-12 18,-12.5 6.5,-12.5 2.8965,-9.5627 L 4524,2065 l 11.5,-12 29,-23.5 24,-18 26.5,-22.5 30.5,-31 42,-55.5 42.5,-46.5 12.5016,-15.5692 1.8896,-21.0668 -10.5146,-25.322 -26.1016,-21.5814 L 4677,1753.5 l -15.5,-26.5 -2.5,-19.5 9,-27.5 30,-33.5 49.5,-51 23.5,-28 21.5,-37.5 15.5,-35.5 22.5,-41 20.5066,-19.9043 13.5788,-5.3438 51.4816,-8.4765 84.7754,-48.1429 49.3807,-15.5235 53.4698,-3.2651 L 5178,1359 l 76.5,-4.5 85,-3 39.5,3.5 32.5538,13.5604 84.6929,69.6627 20.2835,14.458 23.5118,6.6746 19.458,-0.8557 20.5,-9 11.5,-21 4,-26.5 1,-41.5 -8,-41.5 -9,-46 3,-58.5 11.5,-87 24.5,-135 11,-57.5 15,-79.5 -0.5,-18 -13,-29.5 -12.5,-18 -28.5,-16 -58,-27.5 -89,-28.5 -67,-18 -48.5,-6.5 -50,4 -71,19.5 -48.5,12.5 -22,10.5 -11.5,9.5 -11,25.5 -14,27.5 -28.5,60 -10,26 -14,44.5 -14.5,36 -21.5,73 -6.5,30 -7.5,60 -11,47 -8.5,25.5 -20.5,46 -22,54.5 -27,56 -15.5,32.5 -41.4934,40.0957"
     id="path3602"
     style="fill:none;stroke:#ee2e24;stroke-width:5;stroke-linecap:butt;stroke-linejoin:round;stroke-miterlimit:4;stroke-opacity:1;stroke-dasharray:none" />
  <path
     d="m 5125.5,747.5 23,-45.5 13.5,-29 17.5,-57 11,-60 16,-57 20,-39.99997 12.5,-33 13.5,-51 7.5,-14.5 20.5,-14 20,-4.5 30,2.5 54.5,1.5 31,-2.5 68,-20.5 47.5,-23.5 32.5,-27.5 30.5,-34.00003 25,-39.5 19,-37 14,-39 16.5,-43.5 23.5,-50 10.5,-37 4.5,-47 15.5,-57 11,-36.5 38.5,-142.5 26,-94 16,-45.5 12,-20.5"
     id="path3604"
     style="fill:none;stroke:#ee2e24;stroke-width:5;stroke-linecap:butt;stroke-linejoin:round;stroke-miterlimit:4;stroke-opacity:1;stroke-dasharray:none" />
  <path
     d="m 2168.5,2143.5 -65,-21.5 -137.5,-42.5 -64,-19 -66.5,-15.5 -64,-22.5 -155.5,-62.5 -124,-51.5 -149,-61 -154.5,-63 -54,-22.5 -83,-33 -30.5,-9 -43.5,-24 -68,-44 -87,-45 -49,-25.5 -124.5,-66.5 -80.5,-42.5 -30,-18"
     id="path3606"
     style="fill:none;stroke:#ee2e24;stroke-width:5;stroke-linecap:butt;stroke-linejoin:round;stroke-miterlimit:4;stroke-opacity:1;stroke-dasharray:none" />
  <path
     d="m 3664,2493 -10,-12 -6.069,-8.2069 -0.6035,-8.2241 3.8448,-8 25.9139,-15.5001 15.5,-10.9138 1.7586,-8.8965 5.6897,-13.3793 L 3711.5,2394 l 12,-15 6.5,-13.5 5,-15.5 10,-6.5 13.2931,1.4828 18.7069,-0.1724 30.8276,1.931 27.6553,-4.069 L 3873,2328.5"
     id="path3608"
     style="fill:none;stroke:#88cebb;stroke-width:5;stroke-linecap:butt;stroke-linejoin:round;stroke-miterlimit:4;stroke-opacity:1;stroke-dasharray:none" />
  <path
     d="m 2875,967.5 -43.5,-31.5 -71,-48.5 -24,-17 -20.5,-7"
     id="path3618"
     style="fill:none;stroke:#231f20;stroke-width:5;stroke-linecap:butt;stroke-linejoin:round;stroke-miterlimit:4;stroke-opacity:1;stroke-dasharray:none" />
  <path
     d="m 2098.5,778.5 24.5,21.5 9,10.5 6,15 3,15 10,26.5 16,36 12.5,18.5 21.5,23.5 29,21 37,23 26,17 15.5,14.5 8.5,11 47,54.5 27.5,29.5 25.5,16.5 24.5,12.5 37.5,23 20,14.5 13.5,8.5 27.5,25.5 23.5,29 19,23.5 20,18.5 21.5,21 32,20.5 68.5,48.5 28.5,21 14,7.5 13,2 15.5,0.5 15,-4.5 16,-2.5 11,-0.5 11.5,3 21,11.5 13.5,7 37,11 19,5 20.276,10.2759 22.0518,14.4828 12.1724,13.4138 6.224,15.1205 7.862,21.1552 6.9138,23.0518 3.4007,42.9177 -1.1077,51.376 -2.1897,11.2584 5.138,9.5515 6.0862,8.9309 8.1725,8.4655 15.3342,8.0798 40.4937,17.5927 28.379,22.6377 20.7241,20.2242 18.5447,21.5846 17.2485,13.7949 32.0862,31.7414 31.1022,20.0818 28.5015,28.47 20.1379,11.724 32.2759,11.8966 17.2756,12.2412 18.5517,17.7069 L 3371,1932 l 34.0457,62.8747 44.5064,67.0913 4.6032,15.1376 -0.7243,8.3964 -3.2587,7.9999 -7.5172,10.9999 -27.6724,18.6552 -5.5345,13.4655 6.2587,23.3622 34.7931,61.5173 14.5,25 12,22.5 9.5,14.5 11.9518,43.759 8.439,18.9426 0.5498,24.406 2.8413,10.8509 6.3042,5.0759 22.6552,14.0172 17.6208,16.1553 L 3567,2420 l 39.5,18.5 28,24.5 13,18.5 12,23.5 5,19 23.926,57.5146 22.7298,50.4406 14.1222,36.7591 4,14.7556 -1.1222,17.1816"
     id="path3610"
     style="fill:none;stroke:#231f20;stroke-width:5;stroke-linecap:butt;stroke-linejoin:round;stroke-miterlimit:4;stroke-opacity:1;stroke-dasharray:none" />
  <path
     d="m 2869,207.5 38.5,34 5.5,9.50003 15,31 50.5,104.5 28.5,61.5 12,26.5 2,18.49997 0,37.5 -2,18 -19,59 -37,98 -4.5,18 -22,112 -6,24 -10,20.5 -14,17.5 -15.5,14 -15,14.5 -5,12 -0.5,12 4,16.5 16.5,12.5 72.5,48 36.5,27.5 55,36.5 23.5,15.5 26.5,24.5 28,33.5 15.5,19 28.5,25 30.5,25.5 30,29.5 31.5,27.5 28.5,19.5 40,28.5 15,12 23.5,35.5 29.5,50.5 18.5852,31.2702 14.8408,30.7186 4.537,17.6704 0.537,18.3408 -20.074,61.8184 -3.7668,20.4742 -5.6592,30.8072 -5.463,16.6223 -20.4002,48.2375 -2.1222,23.7444 3.1816,11.5886 -3.463,29.778 -3.6592,21.9922 -2.9148,21.1334 2.9002,20.796 -6.7556,49.6076 L 3371,1932 m 34.0457,62.8747 -2.5457,40.1253 7.2931,31.7585 12.3621,26.4311 12.5689,11.6379 9.3275,1.2414 54.1556,-34.2589 17.3617,-8.0342 28.6897,-9.6207 L 3566,2054 l 47.5001,-1.1724 74.5344,-9.7586 20.7587,-0.9655 20.9482,3.7759 43.362,15.9482 L 3796,2073 l 29,11.5 18.4828,7.638 43.8794,20.5173 7.3103,8.2069 L 3899,2139 l 5,62.5 -1,21.5 -11.5,38 -10,44.5 1,9 18.5,38 5.0627,13.5262 -4.812,21.8712 5.3699,17.1369 -6.1897,25.1897 -12.6379,12.5688 -24.5518,29.8623 -20.017,41.8449 -34.5864,29.0518 -22.1207,32.4482 -9.854,20.2741 -4.2149,16.812 -0.3447,23.6897 -30.4483,41.8104 L 3707,2737 l -46.2367,73.7367 -69.6712,101.5086 -33.9217,51.7065 -17.6626,28.9587 -23.0224,25.7444 -22.1334,47.8967 -23.2926,20.0112 -52.5482,30.2556 -35.2264,37.3374 -36.8442,65.5258 -24.0034,41.444 -1.3296,25.1076 -3,33.0706 -16.6188,41.5189 -14.111,14.0293 -33.7745,61.2823 -18.6515,51.444 -20.6368,26.5327 -26.074,21.6291 -16.9932,21.4994 -4.7757,19.9524 -51.1425,80.6747 -12.1291,24.4251 -33.7263,44.0413 -45.1558,73.7522 L 3011.5,3813 l -34.5,8.5 -73,6.5 -17,10 -13,11.5 -2,16 2,47.5 -3,127.5706"
     id="path3612"
     style="fill:none;stroke:#231f20;stroke-width:5;stroke-linecap:butt;stroke-linejoin:round;stroke-miterlimit:4;stroke-opacity:1;stroke-dasharray:none" />
  <path
     d="m 3147.7414,2215.3594 -28.2842,17.6777 -17.6777,21.9203 -45.9619,42.4264 -31.8198,28.2842 -37.4767,13.4351 -45.9619,4.9497 -27.5772,3.5356 -28.2843,4.9497 -17.6776,11.3137 -7.0711,23.3345 1.4142,21.2132 13.435,53.7402 7.7782,32.5269 12.7279,32.5269 14.8493,17.6776 16.9705,16.2635 6.364,8.4853 5.6568,19.0919 10.6066,14.1421 22.6275,11.3137 19.0918,3.5355 37.4767,2.8285 26.8701,-0.7071 46.669,2.1213 36.7696,3.5355 50.2045,4.2427 21.9204,7.071 33.234,16.2635 31.1127,3.5355 24.0416,-6.3639 15.5564,-12.0209 16.9705,-35.3553 19.0919,-13.435 28.2843,-4.9498 26.87,-13.435 15.5564,-8.4853 12.0208,-11.3137 28.9914,-14.1421 31.1127,0.7071 8.4852,-1.4142 19.0919,-12.728 23.3346,-14.8492 4.9497,-7.0711 6.364,-36.7695 9.1924,-32.5269 18.3847,-36.0625 16.9706,-16.9705 41.7193,-16.9706 18.3848,-2.1213 39.5979,-0.7071 35.3554,0.7071 13.4351,-4.2427 19.0918,-3.4852 36.3553,3.0355 32.5269,-3.4498 36.4767,3.8995 30.4056,8.4853 10.7285,1.6337 18.5555,-0.2682 28.6746,13.3132 10.6308,3.3648 13.1376,0.2763 5.2131,-2.2481 12.1038,0.3137 4.9008,-4.3646 6.364,-11.3136 -6.364,-48.7904 -12.0208,-9.8995 -32.5269,-29.6985 -31.8198,-12.7279 -58.6899,-21.2133 -62.2254,-21.9203 -19.799,0.7071 -22.6274,4.9498 -14.8492,4.9497 -9.8995,-0.7071 -9.8995,-7.071 -8.4853,-13.4351 -13.435,-24.0416 -19.0919,-19.0919 -10.6066,-16.9705 -24.0417,-24.0417 -28.2842,-28.9913 -24.0417,-23.3346 -21.2132,-12.0208 -16.2634,1.3787 -41.0122,19.1274 -82.7315,50.2046 -16.2635,9.8995 -57.9827,22.6274 -25.4559,-0.7071 -42.4264,12.7279 -28.9913,2.1213 -63.6397,17.6777 -65.0538,18.3848"
     id="path3614"
     style="fill:none;stroke:#ffd204;stroke-width:5;stroke-linecap:butt;stroke-linejoin:round;stroke-miterlimit:4;stroke-opacity:1;stroke-dasharray:none" />
  <path
     d="m 2581.556,2623.5169 -13.6421,-118.9508 -0.7071,-37.4767 5.6568,-48.7904 13.4351,-31.8198 11.3137,-12.0208 21.9203,-16.2634 19.799,-16.2635 38.1837,-45.2548 28.2843,-26.8701 22.6274,-9.1924 20.5061,-8.4853 12.0208,-7.7781 22.6275,-28.2843 13.435,-4.9498 16.2634,-1.4142 28.2843,12.728 16.2635,5.6568 38.8908,4.9498 37.4767,6.3639 26.8701,2.1213 23.3345,0.7071 23.3345,4.2427 19.0919,0.7071 21.2132,15.5563 26.87,-2.8284 13.4351,-4.2426 13.0208,-7.2782 12.435,-16.7635 31.8198,-21.3345 70.7107,-20.3848 61.5183,-15.7634 23.1274,-1.9142 44.5833,-12.7635 23.6274,0.8284 L 3422,2140 l 42.5,-24 25,-15.5 37.9961,-23.6158 L 3568,2059 l 20,-0.5 21.5,12 46.5,46.5 31,31 10,16.5 18.5,18 21.5,37.5 8,6 8.5,0.5 35,-9 22,-1.5 66.5,23 89,33.5 12.5,11"
     id="path3616"
     style="fill:none;stroke:#f386a1;stroke-width:5;stroke-linecap:butt;stroke-linejoin:round;stroke-miterlimit:4;stroke-opacity:1;stroke-dasharray:none" />
  <path
     d="m 3236.2574,2180.136 -10.5074,-10.886 -41,-38.75 -34.5,-25.25 -25.2155,-26.8535 -36.4484,-49.6296 -16.886,-22.2652 -16.7018,-20.7573 -5,-10.0387 -1.1355,-15.5923 9.0873,-67.4318 1.6347,-22.5162 -2.8774,-9.0914 L 3049,1849.5 3030.4019,1833.537 3017,1820 l -11.5,-8 -18.5,-6.5 -36.5,6.5 -28.5,0.5 -62,10.5 -97,-10 -35,-5.5 -104,-26.5 -123,-31 -90,-21.5 -32.6459,-11.4049 L 2322,1694.5 l -44,-21 -34,-15 -107.5,-69 -12.5,-6 -61.5,-24 -28,-17.5 -23.5,-20.5 -18.5,-29 -33.5,-35.5 -31.5,-23.5 -45.5,-24.5 -74.5,-41 -43.5,-22.5 -47.5,-15 -26,-5.5 -50,-2 -46,0.5 -51.5,1.5 -15.5,-4.5 -24,-13.5 -26.5,-3.5 -39.5,-1 -34.5,-7.5 -37,-14 -68,-37.5 -39.5,-20 -78.5,-56.5 -55.5,-37.5 -51.5,-38 -34,-19.5 -29,-10 -103.5,-26 -29.5,-11 -31,-19 -46,-32.5 -45.5,-34 -32.5,-29.5 -24,-36.5 -18.5,-47 -9.5,-46 -0.5,-44.5 -2,-25.5 L 654,664 627.5,600.5 598,529"
     id="path3620"
     style="fill:none;stroke:#98005d;stroke-width:5;stroke-linecap:butt;stroke-linejoin:round;stroke-miterlimit:4;stroke-opacity:1;stroke-dasharray:none" />
  <path
     d="m 2974,2609 19.4904,4.5735 34.0096,2.4265 43,-1 30.5,2.5 38,4 53,4 24.5,8 30,15.5 27.5,3.5 24,-7.5 14,-8.5 15.5,-35.5 20,-14.5 28,-6 43,-21 13.5,-12.5 30,-14.5 33,0.5 7.0415,-1.7911 L 3539,2507.5 l 7,-7 7,-41.5 8,-29 17.5,-34.5 18.5,-19 43.5,-18 18.5,-3 59.5,0.5 17.5,-1 10.5,-3 11.5,-2 16.5,-0.5 32.5,2 30.5,-4 35.3001,4.5533 L 3904,2359.5"
     id="path3622"
     style="fill:none;stroke:#00853e;stroke-width:5;stroke-linecap:butt;stroke-linejoin:round;stroke-miterlimit:4;stroke-opacity:1;stroke-dasharray:none" />
  <path
     d="m 4153.5,2221.5 23.5,25.5 11,20 3.5,28.5 -1.5,32 0,47.5 3.5,46.5 7,42.5 15.5,24.5 30,42.5 13.5,30.5 9,41 21,55.5 3.5,19 8.5,32 14,23 3,21 -2,14 4.5,21.5 2.5,32.5 3.5,35.5 11,25.5 13,35.5"
     id="path3899"
     style="fill:none;stroke:#f58026;stroke-width:5;stroke-linecap:butt;stroke-linejoin:round;stroke-miterlimit:4;stroke-opacity:1;stroke-dasharray:none" />
  <path
     d="m 3902.5,2359.5 11.8222,1.8708 19.9463,-0.4689 30.3723,13.9018 8.854,2.7299 10.6352,0.6609 7.0029,-2.4781 10.7174,0.5521 2.6497,-2.7685 4.9148,-8.8666 L 4006,2334 l 9,-13 17.5,-7 16,-14 26.5,-18 28,-17 25.5,-13 13.5,-12.5 24,-8 20.5,2 31,-10 44.5,-14.5 37,-13.5 15,-3 28,-4.5 18.5,-9.5 12.5,-7 21.5,-12.5 33.5,-15.5 8.5,-2.5 54.5,-19 16.7991,3.8614 15.7009,14.1386 16,13.5 14,3.5 45.5,0.5 30,-4.5 34.5,-9 22,-10 77,-28 82,-31.5 96,-33.5 70,-28 52.5,-20 61.5,-20.5 88.5,-33 23.5,-9 26.5,-12 31.5,-22.5 15.5,-20 13,-16 21.5,-10 17.5,-1.5 25,5.5 26.5,11.5 29,11 23.5,17 44.5,35 21.5,15 18,9 27.5,1.5 48,-4.5 30,-0.5 234,-30 218.5,-23 74.5,-8 41.5,-9 118.5,-32.5 337,-91.5 49,-18.5 123,-43 58,-20.5 42,-21 31,-17.5 27.5,-8.5 29.5,-4.5 27,-0.5 84,5.5"
     id="path3624"
     style="fill:none;stroke:#00853e;stroke-width:5;stroke-linecap:butt;stroke-linejoin:round;stroke-miterlimit:4;stroke-opacity:1;stroke-dasharray:none" />
  <path
     d="m 2939,2572 -5.5,25.5 -19,26.5 -50.5,54.5 -12.5,9.5 -20,3 -23,-14 -11.5,-8.5 -12,-1.5 -30,13 -19,3 -12.5,1 -35,-5 -34.5,1.5 -17,0.5 -10,-3.5 -11,-5 -22.5,-33.5 -10,-8 -13,-3 -34,0 -27.4124,-2.9202 L 2470,2620.5 l -36.5,-10.5 -42.5,-0.5 -18,-3 -93,-0.5 -44,4.5 -51,7.5 -25.5,-6.5 -21.5,-15.5 -22,-26.5 -30,-21 -8.5,-15.5 -16,-40.5 -55.5,-48 -12,-14 -9.5,-26 -5.5,-32 8,-53.5 -12,-25 -15,-5.5 -20,-0.5 -17.5,8 -68,2"
     id="path3626"
     style="fill:none;stroke:#00853e;stroke-width:5;stroke-linecap:butt;stroke-linejoin:round;stroke-miterlimit:4;stroke-opacity:1;stroke-dasharray:none" />
  <path
     d="m 2189,2616 -29,11.5 -27,8.5 -17,9.5 -16.5,22.5 -9,20 -2.5,27 -5.5,28 -7.5,17.5 -40,60 -16.5,31.5 -8.5,34 -14,69 -11,56.5 -10,23.5 -13.5,23.5 -20,19.5 -19.5,6 -51.5,14 -25.5,4"
     id="path3628"
     style="fill:none;stroke:#00853e;stroke-width:5;stroke-linecap:butt;stroke-linejoin:round;stroke-miterlimit:4;stroke-opacity:1;stroke-dasharray:none" />
  <path
     d="m 2862,2681 -6,18.5 1.5,20 8.5,12.5 12,10.5 18,29 6,17 -3,10.5 -23,25 -15.5,22 -4,20 -11.5,19.5 -66,50.5 -10.5,14.5 -4,17 -3.5,13.5 -15.5,12 -7.5,12.5 -2,24 -3.5,20.5 -9.5,27.5 2,26.5 -3,17 -2.5,17 -2.5,26.5 -10.5,18 -6,12.5 0.5,17 5.5,15 13.5,14 9.5,18 17,32.5 6.5,33 7,50.5 4,51 12,39 24,40 21,27 18,28 4,22.5 -2,30.5 -9,25 -25.5,56 -45,47.5"
     id="path3632"
     style="fill:none;stroke:#00853e;stroke-width:5;stroke-linecap:butt;stroke-linejoin:round;stroke-miterlimit:4;stroke-opacity:1;stroke-dasharray:none" />
  <path
     d="m 598.5,530 -12.5,-31 -28,-39.49997 -35.5,-32.5 -45.5,-26.5 -37.5,-12"
     id="path3659"
     style="fill:none;stroke:#98005d;stroke-width:5;stroke-linecap:butt;stroke-linejoin:round;stroke-miterlimit:4;stroke-dasharray:none;stroke-opacity:1" />
  <path
     d="m 440,388.00003 -15.5,-14.5 -7.5,-18 4,-18.5 14.5,-22.5 33.5,-17 26,-14.5 16,-16 L 533.5,237 l 25,-20.5 52.5,-27 56.5,-30.5 35,-22.5 42.5,-29"
     id="path4317"
     style="fill:none;stroke:#98005d;stroke-width:5;stroke-linecap:butt;stroke-linejoin:round;stroke-miterlimit:4;stroke-opacity:1;stroke-dasharray:none" />
  <path
     d="m 154.5,1822 36,-23 18,-6 21.5,0 28,-2.5 67.44188,-32.5949 L 391.5,1724.5 l 62.5,-35 22,-24.5 13,-29 11,-47 13,-23 18.5,-21 81.5,-56 71.5,-48 57,-21.5 173,-61 51.5,-12.5 43.5,-2.5 45.5,1.5 54,10 89,23.5 33,3 32,-13 21.5,-11 31,-25.5 28,-19 25,-9.5 21.5,-5 17.5,-1.5"
     id="path4331"
     style="fill:none;stroke:#98005d;stroke-width:5;stroke-linecap:butt;stroke-linejoin:round;stroke-miterlimit:4;stroke-opacity:1;stroke-dasharray:none" />
  <path
     d="m 2917.5,2619 20,-10 37.0073,0.3886"
     id="path3627"
     style="fill:none;stroke:#00853e;stroke-width:5;stroke-linecap:butt;stroke-linejoin:round;stroke-miterlimit:4;stroke-opacity:1;stroke-dasharray:none" />
  <path
     d="m 4320.5,2783 13,12.5 27,10.5 25,5 12,9 8.5,16 1,19 11,27"
     id="path4409"
     style="fill:none;stroke:#f58026;stroke-width:5;stroke-linecap:butt;stroke-linejoin:round;stroke-miterlimit:4;stroke-opacity:1;stroke-dasharray:none" />
  <path
     d="m 3587.8598,2268.3924 36.0625,74.9533"
     id="path4733"
     style="fill:none;stroke:#1c3f9f;stroke-width:5;stroke-linecap:butt;stroke-linejoin:round;stroke-miterlimit:4;stroke-opacity:1;stroke-dasharray:none" />
  <path
     d="m 3892.1334,2241.6945 6.1945,-20.0241 0.7926,-20.37 -5.0349,-61.3271 -0.6989,-31.1801 13.4927,-49.9658 -2.1379,-12.6379 L 3895,2021 l -8.5,-19 -11,-23 -23.5,-36 -34.5,-34 -30.5,-25.5 -24,-26 -10,-21 -11.5,-48 -7.5541,-31.989 L 3727,1717.5"
     id="path4832"
     style="fill:none;stroke:#d3a05d;stroke-width:5;stroke-linecap:butt;stroke-linejoin:round;stroke-miterlimit:4;stroke-opacity:1;stroke-dasharray:none" />
  <path
     d="m 3977,2282.5 22,19.5 22,3.5 14.5,-3 10,-6 22.5,-16 45.5,-26.5 12,-5.5 11,-10.5 8.5,-5 22,-6.5 18.5,2 75.0208,-23.4503 39.9792,-14.5497 41.5,-7 50.5,-28.5 32,-15 69,-23 17.5,5.5 29.9597,27.2718 L 4555,2152 l 44.5,0.5 28.5,-4 34,-9 22.5,-10 104,-39 77.5,-29 70.4453,-24.295 L 5074,1984 l 41.5,-13 111.5,-42 33.5,-14.5 32,-23.5 28,-35 22,-11 20,-2 27.5,7 56.5,23 28.5,22 38.5,28.5"
     id="path3634"
     style="fill:none;stroke:#f386a1;stroke-width:5;stroke-linecap:butt;stroke-linejoin:round;stroke-miterlimit:4;stroke-opacity:1;stroke-dasharray:none" />
  <path
     d="m 2006.769,2443.0478 -13.435,-2.1213 -20.5061,0 -36.7695,19.799 -74.9533,16.2634 -22.6275,9.8995 -46.669,28.2843 -65.9282,21.4052 -46.5018,16.7785 -37.4767,23.3346 -31.1127,33.9411 -27.5771,24.7487 -33.234,27.5772 -33.2341,28.2843 -33.234,43.1335 -21.9203,28.2843 -18.3848,13.435 -54.4472,17.6777 -21.2132,15.5563 -9.8995,19.0919 -7.0711,24.7487 10e-5,46.6691 -9.1924,19.799 -11.3137,16.2634 -19.799,11.3137 -35.3554,15.5564 -33.9411,7.7781 -33.9411,0.7072 -37.4767,-3.5356 -50.2045,-31.1127 -24.0416,-9.8995 -24.0417,-0.7071 -33.9412,9.8995"
     id="path5532"
     style="fill:none;stroke:#00853e;stroke-width:5;stroke-linecap:butt;stroke-linejoin:round;stroke-miterlimit:4;stroke-opacity:1;stroke-dasharray:none" />
  <text
     x="-1110.5469"
     y="-7243.0391"
     id="text3019"
     xml:space="preserve"
     style="font-size:143.99993896px;font-style:normal;font-weight:normal;line-height:125%;letter-spacing:0px;word-spacing:0px;fill:#000000;fill-opacity:1;stroke:none;font-family:Sans;-inkscape-font-specification:Sans"><tspan
       x="-1110.5469"
       y="-7243.0391"
       id="tspan1">1965</tspan></text>
  <text
     x="-1110.5469"
     y="12947.961"
     id="text3019-6"
     xml:space="preserve"
     style="font-size:143.99993896px;font-style:normal;font-weight:normal;line-height:125%;letter-spacing:0px;word-spacing:0px;fill:#000000;fill-opacity:1;stroke:none;font-family:Sans;-inkscape-font-specification:Sans"><tspan
       x="-1110.5469"
       y="12947.961"
       id="tspan2">1965</tspan></text>
  <path
     d="m 4147.5,1766.5 1.5,-18 11,-18.5 8.5,-20.5 3,-24 -0.5,-33.5 0,-26.5 5,-16.5 9.5,-16 40,-59 18.5,-37 16.5,-42 25.5,-46.5 21,-25.5 101,-87.5 40,-20.5 72.5,-14.5 92,-15 29,-7 20.5,-15 24.5,-10 17,-6.5 14.5,-12.5 11.5,-17.5 2,-25.5 -8.5,-43.5 -17.5,-46.5 -2.5,-34 2.5,-53 25.5,-98.5 7.5,-53.5 12.5,-74 -0.5,-28.5 -2,-41 6,-39 18,-63 58,-94.5"
     id="path4564"
     style="fill:none;stroke:#6e3192;stroke-width:5;stroke-linecap:butt;stroke-linejoin:round;stroke-miterlimit:4;stroke-opacity:1;stroke-dasharray:none" />
  <path
     d="m 3743,2280 2.9996,62.75 1.5,34.5 -2,33.25 -0.75,11.75 8.25,35.75 9.5,34 10,24.5 2.5,23 12.5,26.5 7,22.5 -1,29 -2.6962,11.9083"
     id="path4645"
     style="fill:none;stroke:#d78eaf;stroke-width:5;stroke-linecap:butt;stroke-linejoin:round;stroke-miterlimit:4;stroke-opacity:1;stroke-dasharray:none" />
  <path
     d="m 2206,4030 -28,-2.5 -28,-16 -98,-100.5 -29.5,-29.5 -25.5,-11.5 -37.5,-6 -24,0 -39,9.5 -29,-0.5 -75.5,-10 -31.5,-9.5 -133,-94 -52.5,-42 -16,-14.5 -10.5,-16"
     id="path4572"
     style="fill:none;stroke:#800000;stroke-width:5;stroke-linecap:butt;stroke-linejoin:round;stroke-miterlimit:4;stroke-opacity:1;stroke-dasharray:none" />
  <path
     style="fill:none;stroke:#176fc1;stroke-width:5;stroke-linecap:butt;stroke-linejoin:round;stroke-miterlimit:4;stroke-dasharray:none;stroke-opacity:1"
     d="m 6612,3127 67.5,122 19.5,26 15.5,12 25.5,13.5 43.5,11.5 23,10.5 15.5,11.5 15,8"
     id="path3795" />
  <path
     style="fill:none;stroke:#176fc1;stroke-width:5;stroke-linecap:butt;stroke-linejoin:round;stroke-miterlimit:4;stroke-dasharray:none;stroke-opacity:1"
     d="m 3540.5,2411.75 29.5,23.75 31,13.5 50,20.25 14.25,3.5 29.25,-3.75 21,-3 53.5,4.5 51,-2.5 15,-1.5 28,-13 22,-9 15,0.5 21,9 22.5,24.5 36,31 90.5,77 68,49.5 91.5,64.5 94,62 38,22.5"
     id="path4595-7" />
  <path
     d="m 3323,2799 -1,79.5 0,23.5 -10.5,40 -7.5,13 -12.5,13.75 -13.75,9 -15.75,5 -24.5,5.25 -71,48.25 -41.5,28.25 -18.25,20 -9.25,16.75 -15.25,57 2.25,33.75 6,22.5 42.5,80.5 26.5,53 18,19 19.5,15.5 22.5,8 169,52 165.5,51 91,9.5 28,-2.75 21.75,10 18.5,22.25 12.25,31 15.5,16.5 25.5,10.5 26.5,18.5 27.5,30.5 20.5,10 38,12.5 28,15 46.5,28.5 13,17 12,21 14.5,18 29,16 9.6176,11.3995 8.6324,6.3505"
     id="path4714"
     style="fill:none;stroke:#88ac95;stroke-width:5;stroke-linecap:butt;stroke-linejoin:round;stroke-miterlimit:4;stroke-opacity:1;stroke-dasharray:none" />
  <path
     d="m 3107,3069.5 -14,31 -17.5,65 -16.5,48 -27.5,52.5 -79.5,129.5 -40.5,68 -23.5,48.5 -44,107.5 -8.2581,22.1423 -24.7419,54.6077 -47,49.75 -69.5,67 -33.5,35.5 -40,36.5 -44,28 -56,19.5 -228.5,71 -72.5195,23.6737 L 2206,4030"
     id="path4570"
     style="fill:none;stroke:#800000;stroke-width:5;stroke-linecap:butt;stroke-linejoin:round;stroke-miterlimit:4;stroke-opacity:1;stroke-dasharray:none" />
  <path
     d="m 4601,3121 -28.5,42 -22,46.5 -18,43 -16.5,40.5 -18,83.5 -8,69.5 -6.5,57 -5.5,18.5 -15.5,37.5 -7.5,15.5 -23.5,35 -6.5,31 -10,57.5 -11.5,79.5 -6,43 1,56 -2,13 -8.5,16 -26.5,17.5 -15.5,12 -12.5,26.5 -25,52.5 -17.5,37.5 -20.5,30.5 -8,14.75 -9,14.75 -5,12.25 -0.5,11.75 3.5,10 7.5,8.25 10.5,5.75 12,3.75 111.75,9.75 32.25,6.25 31,14.25 20.5,17.75 25.5,31.75 21.5,36.5 38,42.5 42.5,39 35,28 43,19.5 54,15.5 33.5,2.5 36,-4.5 30.5,8"
     id="path4622"
     style="fill:none;stroke:#176fc1;stroke-width:5;stroke-linecap:butt;stroke-linejoin:round;stroke-miterlimit:4;stroke-opacity:1;stroke-dasharray:none" />
  <path
     d="m 3651,2482.5 -12.5,25 -1.5,40 -3.5,32 -9.5,33 -19,30 -33.5,36.5 -6.5,21 -0.5,26.5 -3,23.5 -10.5,27 -14.5,19 -34,19 -144.5,84 -124.5,86 -73.5,50.5 -54.5,34.5 -67.5,27.5 -31.5,13 -86.5,26.5 -70.5,2 -58,7 -45,4 -56.5,-10.5 -37,-12 -34,-16.5 -23.5,-15.5 -139.5,-43.5 -70,-22.5 -53.5,-4 -60.5,3 -41,2.5 -47,-8 -30.5,4 -171.5,42.5 -38.75,13 -73.75,20.75 -25,3.25 -38,-6.5 -20.5,2.5 -16,9 -23,21.5 -102.5,117 -31,27.5 -39,23 -30.1852,14.0254 -25.8148,1.4746 -15,9.5 -6,20.5 -9.5,141.5 -4,67.5 7,29.5 58,104"
     id="path4566"
     style="fill:none;stroke:#800000;stroke-width:5;stroke-linecap:butt;stroke-linejoin:round;stroke-miterlimit:4;stroke-opacity:1;stroke-dasharray:none" />
  <path
     d="m 1844.5,3097.25 24.25,-3.5 51.5,-14.25 18.5,-5.75 18.75,-18 13.75,-24 9.5,-21.5 10.25,-55.75 14.5,-70.5 9,-34.75 17,-32.75 39.75,-58.5 7,-17.75 5.25,-27.25 2.25,-26.75 10.75,-23.25 17.25,-22.25 10.3452,-6.1901 4.6548,-9.3099 2,-42.5 4.75,-21.75 8.5,-15 24.5,-26.5 17,-26 22.5,-45.5 11.5,-38.5 13,-60.5 8.5,-26 22.5,-53 12.5,-29.5 23,-63.5 28.5,-52.5 14,-19.5 17,-8 27,-10.5 9.5,-11.5 3,-17.5 7.5,-15.5 12.5,-9.5 27,-4.5 62.5,-1 51.5,-4 37,-4.5 45,-20.5 32.5,-28.5 58,-69 19.5,-26.5 37.5,-29 36,-19.5 37,-11 44,-11 52.5,-26.5 34.5,-23.5 65,-27.5 85,-38.5 37,-14 65.5,-7 30,7 26.5,17.5 16.5,24 8,29 -0.5,32 6,32 3.5,29 7,30 17.5,15.5 23.5,3.5 21.5,1 48.5,11.5 69,3 22,-2.5 58,-22 130.5,-50.5 96,-33.5 27.5,-9 35.5,-5 33,1.5 38.3925,5.2083 23.4324,3.8064"
     id="path3628-0"
     style="fill:none;stroke:#f58026;stroke-width:5;stroke-linecap:butt;stroke-linejoin:round;stroke-miterlimit:4;stroke-opacity:1;stroke-dasharray:none" />
  <path
     d="m 3984.5,1789 11,4 9,8 9.5,12.5 4,11.5 -0.5,27 -1,25 -2.5,31 -2.5,43.5 1.5,95.5 -3,17.5 -6.5,15 -15,18.5 -5.5,18 -1,44 0.1612,18.6673 L 3974,2196 l -24.5,30 -9,30.5"
     id="path3899-1"
     style="fill:none;stroke:#f58026;stroke-width:5;stroke-linecap:butt;stroke-linejoin:round;stroke-miterlimit:4;stroke-opacity:1;stroke-dasharray:none" />
  <path
     d="m 946,16.5 28.5,31.5 11.5,15 17.5,62.5 0.5,14 0.5,20 -8,15.5 -10.5,9 -19,17 -10,16 -2.5,17 6.5,15 9,7.5 14.5,5.5 31.5,-0.5 17.5,2.5 13,13 3,14.5 1.5,15.5 -15,63 -5,45 2,78 10,49 18,67 39,88 51,75 55,70 77,78 53,45 185.5,144.5 41.5,33.5 58,46 45.5,42 13.5,15 32,49 24.5,43.5 20,50 15,40.5 35.5,100 26,68.5 33,85.5 17,35.5 19,29.5 18.5,26.5 14,23.5 15.5,9.5 50,8.5 22.5,5 32,17.5 57,33.5 56,34 41,29.5 61.5,46.5 39.5,24.5 60,29 32.5,6.5 36,6.5 13.5,5.5 15,11.5 19.5,7.5 37,0 69,-6 30.5,-4 72.5,-26.5 37.5,-11.5 52,-14 52,-19.5 28,-12.5 49.5,-30 33.5,-23.5 54.5,-22 29,-9 54.5,-11.5 33,-10.5 81.5,-13 35,1.5 28.5,15 30.5,29.5 27,37 35.5,48.5 29,41 15,15 21.5,13 13,10.5 13,20"
     id="path3600-8"
     style="fill:none;stroke:#f58026;stroke-width:5;stroke-linecap:butt;stroke-linejoin:round;stroke-miterlimit:4;stroke-opacity:1;stroke-dasharray:none" />
  <path
     d="m 4718.5,3260 35,55 113,178.5 32,44 53.5,65.5"
     id="path4624"
     style="fill:none;stroke:#176fc1;stroke-width:5;stroke-linecap:butt;stroke-linejoin:round;stroke-miterlimit:4;stroke-opacity:1;stroke-dasharray:none" />
  <path
     style="fill:none;stroke:#88ac95;stroke-width:5;stroke-linecap:butt;stroke-linejoin:round;stroke-miterlimit:4;stroke-dasharray:none;stroke-opacity:1"
     d="m 3852.5,4428.0004 -2.75,72.5 -3.25,141 -5.5,90.75 -5,47.5 -14.5,50.25 -23,44 -35.5,44.5 -36.25,32.5 -89.5,86.5"
     id="path28451" />
  <path
     d="m 3956.1105,2264.1569 13.8891,-45.1569 11,-17 28,-14.5 65.5,-11.5 59,-7 57,-5 53,-17 46,-20 65,-13.5 57,-19.5 34.5001,-12.5 47.5,-8 20.75,-6.75 9.25,-7.75 10.25,-10 30.5,-25.25 46.5,-37 32.25,-32.5 31.75,-42.75 21.5,-26.25 28.25,-29.25 46.5,-21.5 33,-14 54.5,-16 114.5,-34 61,-16.5 40,-5.5 56.5,-8 39.5,-11.5 44.5,-17 110.5,-57.5 66.5,-28.5 61,-19 97,-34 55,-14 74.5,-11 64.5,-11.5 166.5,-37 65,-14.5 207,-27.5 73,-9.5 47.5,-8.5 64.5,-13.5 59.5,-17.5 86.5,-38 146.5,-70 44.5,-25.5 42,-29.5 191.5,-120.5 44.5,-28.5 276.5002,-176.50002 174.5,-106.00008 30,-13.5 49.5,-12 43.5,-6 45,1 53.5,8 24,0 28,-1.5 24,-6 21.5,-9 18.5,-9.5 22,-16.5 20.5,-18.5 21.5,-27 13,-25 9.5,-30.5 6,-44 7,-29.5 12,-33 14.5,-26.9999"
     id="path4560"
     style="fill:none;stroke:#6e3192;stroke-width:5;stroke-linecap:butt;stroke-linejoin:round;stroke-miterlimit:4;stroke-dasharray:none;stroke-opacity:1" />
  <path
     style="fill:none;stroke:#800000;stroke-width:5;stroke-linecap:butt;stroke-linejoin:round;stroke-miterlimit:4;stroke-dasharray:none;stroke-opacity:1"
     id="path4574"
     d="m 2532.9997,3927.5005 -24,21 -21,27 -11,35 -17.5,70.5 -62.5,240.5 -4.5,33.5 -5.5,20.5 1,34.5 3.5,45.5 -0.5,45.5 -0.9791,21.981 -9.1924,50.5581 -13.0814,38.5373 -39.2445,80.6102 -25.1023,61.1647 -103.5911,285.6711 -5.3033,10.9601 -14.1421,12.728 -21.2133,7.071 -46.1505,31.2184 -43.5,43.5 -63,65 -26,20.5 -60,32 -154,78.5 -64.5,44.5 -60.5,42 -29.5,29 -23.5,31.5 -23.5,45 -8,29 -9.5,57.6612" />
  <path
     style="fill:none;stroke:#88ac95;stroke-width:5;stroke-linecap:butt;stroke-linejoin:round;stroke-miterlimit:4;stroke-dasharray:none;stroke-opacity:1"
     id="path4718"
     d="m 3220.1704,4173.0185 30.83,13.981 17.5,16 7,20.5 -8.5,170.5 -5.5,23.5 -9,25 -13,25.5 -29.5,33 -28,29.5 -19.5,12 -41.0001,17.5 -24,26 -19.5,33 -22,21.5 -24.5,12.5 -29.5,9 -14.5,1 -21.5,7" />
  <path
     style="fill:none;stroke:#88ac95;stroke-width:5;stroke-linecap:butt;stroke-linejoin:round;stroke-miterlimit:4;stroke-dasharray:none;stroke-opacity:1"
     id="path6722"
     d="m 3895.4512,4276.9073 -32.527,17.6777 -71.7713,37.8302 -17.6777,20.1525 -10.2707,25.913 -9.3996,21.8597 -17.4527,21.5238 -19.4455,15.9099 -13.7886,9.5459 -13.435,20.5061 -20.8597,31.4663 -37.323,51.7071 -14.5,13.5 -19.5,14 -21,11 -30.5,9.5 -400.0001,124.0001 -18.5,1 -22,-1 -17.5,-6.0001 -13.5,-5.5 -29,-21 -32.5,-18.5 -30.5,-4 -34.5,5 -40.5,13 -257,70.0001 -12,5 -25,12.5 -220,156 -16,16.5 -97.5,98.5 -24.5,17 -20.5,7.5 -30.5,2.5 -18.5,-2.5 -11.5,1 -13.5,5" />
  <path
     d="m 4592.5003,3054 10.5,12.5 6.5,14.75 1,14.5 -11.5,31.25 -2,23 12.5,23 26,19 42,27.5 32.5,32 18,18 31,16.5 116,20.5 75,14 40.5,15 30.5,16 119,76.5 34.5,13 84.5,18.5 161.5,26.5 106.5,20.5 183,38 42.5,3 50.5,-4 174,-24.5 120,-45.5 122.5,-56 150.5,-60.5 78.5,-30.5 54.9997,-20 66,-19 53,-7 52.5,3.5 64,16.5"
     id="path4599-0-3"
     style="fill:none;stroke:#176fc1;stroke-width:5;stroke-linecap:butt;stroke-linejoin:round;stroke-miterlimit:4;stroke-dasharray:none;stroke-opacity:1" />
  <path
     d="m 3148,2220.5 -26,17 -14.5,18 -33,31 -45.5,41 -21.3816,9.8016 -18.1184,5.6984 -46.5,4.5 -57.5,9.5 -14,8.5 -7,20.5 2,24.5 20,82 12,29.5 8.5,12.5 24.5,24.5 5,8 2.4531,6.3592"
     id="path4222"
     style="fill:none;stroke:#00853e;stroke-width:5;stroke-linecap:butt;stroke-linejoin:round;stroke-miterlimit:4;stroke-dasharray:none;stroke-opacity:1" />
  <path
     style="opacity:1;fill:none;fill-opacity:1;fill-rule:nonzero;stroke:#80c242;stroke-width:5;stroke-linecap:butt;stroke-linejoin:round;stroke-miterlimit:4;stroke-dasharray:none;stroke-opacity:1"
     d="m 972.8657,12931.065 37.4766,-3.889 h 156.2706 l 24.7488,-5.304 L 2041,12693 l 38,-6.5 32.5,-1 42.5,5.5 193,38 27,3.5 31.5,-2.5 83,-16.5 307.5,-49 119,-8 78.5,1.5 102.5,14.5 88.5,32 46,9 43.75,4.25 73.5,6.75 18,8.25 11.75,10.875 4.75,13.625 0.5,9"
     id="path1121" />
  <path
     d="m 10103.926,1850.9011 18.574,13.5989 38,21.5 30.5,9.5 28,2 691,0.5 34,5.5 36.5,18.5 60.5,11.5 48,-2 61.5,8 35.5,-4.5 41.5,-6.5 41,5 127,34 51,7 46,-5.5 143.5,-32 45,-2.5 219,-5 49.5,8 276.5,56.5 34,10.5 31.5,14 27.5,16 28.5,21"
     id="path4319-3"
     style="fill:none;stroke:#e60780;stroke-width:5.00000095;stroke-linecap:butt;stroke-linejoin:round;stroke-miterlimit:4;stroke-dasharray:none;stroke-opacity:1" />
  <path
     style="opacity:1;fill:none;fill-opacity:1;fill-rule:nonzero;stroke:#118ec6;stroke-width:5;stroke-linecap:butt;stroke-linejoin:round;stroke-miterlimit:4;stroke-dasharray:none;stroke-opacity:1"
     d="m 11637.679,2282.2067 -54.969,-258.2181"
     id="path1563" />
  <path
     d="m 4177,2164.5 14,-10 8.5,-13.5 -3,-44.5 -5.5,-45 -8,-30 -3,-38.5 -0.5,-30 1.5,-39.5 4,-30 -4.5,-23 -26.5,-81 -11,-25.5 -11,-10.5 -17.5,-20 -39.5,-110.5 -23,-65.5 -15.5,-21.5 -28.5,-30 -15,-19.5 -6.5,-25 -1.5,-25 9.5,-26.5 19,-34 2.5,-27.5 -4,-26.5 -0.5,-25 5.5,-41.5 1.5,-79 9.5,-25 17,-19.5 18,-22.5 4,-13.5 1,-17 -6.5,-27.5 0.5,-67 -7,-78.5 7.5,-33.5 27,-89 51.5,-138.5 10,-29.5 -2.5001,-23.50011 -31,-88.5 -5,-52.5 -7,-23.5 -83,-160 -18.5,-33 -29,-35.5"
     id="path4562-3"
     style="fill:none;stroke:#6e3192;stroke-width:5;stroke-linecap:butt;stroke-linejoin:round;stroke-miterlimit:4;stroke-dasharray:none;stroke-opacity:1" />
  <path
     d="m 4111.7499,4264.0001 13.5,-10.5 89.4999,-97.75 20.25,-23.75 24.5,-31"
     id="path6212"
     style="fill:none;stroke:#176fc1;stroke-width:5;stroke-linecap:butt;stroke-linejoin:round;stroke-miterlimit:4;stroke-dasharray:none;stroke-opacity:1" />
  <path
     style="fill:none;stroke:#88ac95;stroke-width:5;stroke-linejoin:round;stroke-miterlimit:4;stroke-dasharray:none;stroke-opacity:1"
     d="m 2449.4385,5236.183 22.0013,-29.403 14.7228,-12.941 24.6082,-14.817 100.4347,-32.979 10.4997,-0.475 52.2441,-0.838 32.8426,8.216 15.9289,1.232 24.8061,-2.594 20.1497,-6.094 19.9414,-12.543 13.4628,-12.156 13.4845,-27.037 5.3976,-28.358 8.4959,-111.433 4.3682,-28.784 10.7067,-39.037 52.736,-176.116 5.9704,-13.131 11.7939,-13.564"
     id="path14098" />
  <path
     style="fill:none;stroke:#88ac95;stroke-width:5;stroke-linecap:butt;stroke-linejoin:round;stroke-miterlimit:4;stroke-dasharray:none;stroke-opacity:1"
     id="path6722-2"
     d="m 3895.4512,4276.9073 16.5493,-20.9073 14.5,-7.25 30.817,-14.8021 22.9872,-23.1547" />
  <path
     d="m 3339.5,3426 30,25 14,30 19,65 8.5,45 v 42.5 l -4,46 4.5,40.5 15.5,52 27,42.5 34,37 46,27.5 53.5,24.5 31.5,21.5 35.5,29.5 58.5,66 55,59.5 29.1634,30.3842 24.7488,20.1525 28.9913,18.3848 23.6881,20.8596 16.2635,23.3346"
     id="path4716-3"
     style="fill:none;stroke:#88ac95;stroke-width:5;stroke-linecap:butt;stroke-linejoin:round;stroke-miterlimit:4;stroke-dasharray:none;stroke-opacity:1" />
  <path
     d="m 3714.6346,3485.4502 -43.6347,22.0505 -40.0001,20 -22,26 -40.5,54 -18.5,20.5 -55,33.5 -25.5,16"
     id="path4645-5-0"
     style="fill:none;stroke:#88ac95;stroke-width:5;stroke-linecap:butt;stroke-linejoin:round;stroke-miterlimit:4;stroke-dasharray:none;stroke-opacity:1" />
  <path
     style="fill:none;stroke:#88ac95;stroke-width:5;stroke-linecap:butt;stroke-linejoin:round;stroke-miterlimit:4;stroke-dasharray:none;stroke-opacity:1"
     id="path4668-7"
     d="m 3924.9994,2464.7504 14.75,17.25 122.2929,104.1464 76.0807,56.0519 41.204,28.8256 24.6726,27.9757 14.5,27 6.5,17.5 4.5,29 2.5,29.5 -6,35.5 -27,66.5 -17.5,42 -15,20 -24.5,17 -15.75,3.5 -31.25,3.75 -19.25,5.5 -22.75,11.25 -21.5,4.75 -21,4.25 -18,11.5 -9,22.5 -1.5,29.5 0.5,12.5 -31.5,62.5 -28.5,45 -34.5,39.5 -63.5,55 -27.5,35 -20,30.5 -22.5,57.5 -11.25,27.5 -11.5,20 -17.115,20.9502" />
  <path
     d="m 3872.4035,3025.3726 41.5961,-18.8723 24,-7 h 30.5 l 34,8.5 h 20.5 l 30,-1.0003"
     id="path4879-2"
     style="fill:none;stroke:#88ac95;stroke-width:5;stroke-linecap:butt;stroke-linejoin:round;stroke-miterlimit:4;stroke-dasharray:none;stroke-opacity:1" />
  <path
     d="m 4179.327,2671.0243 59.5356,41.5964 24.8901,21.9179 9.9969,11.9614 22.75,40.0001 24.5033,67.8431 13.5444,31.8351 13.0604,35.6825 17.8393,41.8543 10.0228,43.979 1.3275,37.1198 -0.2279,40.1724 -14.1391,64.917 -18.4351,71.8454 -22.8138,46.5535 -30.5947,50.7464 -45.7654,96.2845 -15.0078,38.5512 -7.4352,48.3192 7.0147,73.0923 -4.0841,37.7235 -11.0593,38.9808 -23.5817,79.3963 -31.1127,58.3363 -51.9723,86.6205 -6.7175,10.9602 -38.8909,104.2983 -29.3449,89.0954 -12.9891,35.5834 -14.2335,38.9948 -25.1023,55.5079"
     id="path3055-3-7"
     style="fill:none;stroke:#88ac95;stroke-width:5;stroke-linecap:butt;stroke-linejoin:round;stroke-miterlimit:4;stroke-dasharray:none;stroke-opacity:1" />
  <path
     d="m 4751.2656,3972.2012 20.2341,23.2999 29,35.5 21.5,17.5 41,16.5 53.5,3.5 109.4999,4.5 56,-1 63,-3 26.6297,-2.5442"
     id="path4708-5"
     style="fill:none;stroke:#176fc1;stroke-width:5;stroke-linecap:butt;stroke-linejoin:round;stroke-miterlimit:4;stroke-dasharray:none;stroke-opacity:1" />
  <path
     style="fill:none;stroke:#88ac95;stroke-width:5;stroke-linecap:butt;stroke-linejoin:round;stroke-miterlimit:4;stroke-dasharray:none;stroke-opacity:1"
     d="m 3353,2600 -35.5,73.5 -3,25.5 8,31 1.797,30.8948 L 3323,2799"
     id="path4708-2" />
</svg>
