<svg xmlns="http://www.w3.org/2000/svg" height="1550" width="1250"><path d="m1127.25 311.36 3.25 17.49-1.22 11.39-6.92 10.58-50.85 28.47-34.58 27.25-59.8 53.29-19.53 18.31-9.36 9.36-11.8 15.86-24.41 22.37-62.64 52.88-12.61 1.63-20.34 19.53-6.92 16.27-68.34 62.24-15.05 9.76-16.68 4.47-8.54 6.92-3.66 14.64v47.19l-4.47 14.64-8.14 12.2-8.95 3.66-62.64.81-37.42-3.25-124.88 30.1-15.86 8.54-8.95 10.98-8.54 15.05-8.14 42.31 4.88 29.29v15.86l-8.95 22.78-51.66 87.46-17.9 27.25-17.9 10.17-22.78 4.88-26.03 2.03-7.73 1.63-9.76 4.07-8.54 7.32-8.14 10.58-4.88 10.98-1.63 7.32 2.44 13.02v12.2l-3.25 19.12v12.2l2.44 13.42-2.03 23.59-4.47 20.34-6.51 12.2-10.17 10.98-10.17 5.29-43.12-1.22-9.76-4.88-10.98-16.68-11.39-29.29.41-15.46" style="opacity:1;fill:none;fill-opacity:1;fill-rule:nonzero;stroke:#ef4249;stroke-width:5;stroke-linecap:butt;stroke-linejoin:round;stroke-miterlimit:4;stroke-dasharray:none;stroke-opacity:1"/><text style="font-style:normal;font-weight:400;font-size:144px;line-height:125%;font-family:Sans;-inkscape-font-specification:Sans;letter-spacing:0;word-spacing:0;fill:#000;fill-opacity:1;stroke:none" xml:space="preserve" y="206.96" x="89.45"><tspan y="206.96" x="89.45">2005</tspan></text></svg>