<svg viewBox="-60, -775, 3700, 4450" height="4450" width="3700" xmlns="http://www.w3.org/2000/svg"><path d="m1411.67 1297.248-4.399-.5-3.833-7.647" fill="none" stroke="#008345" stroke-width="1px" stroke-linejoin="round"/><path style="fill:none;stroke:#008345;stroke-width:1;stroke-linecap:butt;stroke-linejoin:round;stroke-miterlimit:4;stroke-dasharray:none;stroke-opacity:1" d="m1845.597 1664.458 80.252-58.034 91.197-66.324 110.703-80.955 16.094-42.428 23.408-15.118 11.217-4.877"/><path style="fill:none;stroke:#008345;stroke-width:1;stroke-linecap:butt;stroke-linejoin:round;stroke-miterlimit:4;stroke-opacity:1;stroke-dasharray:none" d="m1782.234 1392.359-272.376-47.331-20.482 17.556-18.532 10.73-33.163-.976-49.743 34.137-18.532 2.926-26.335-12.68-14.63 6.828-7.803 33.163-29.26 54.62-18.532 16.58h-32.187l-18.532 3.902-22.433 19.508-13.655 26.334-11.705 5.852-39.014-23.408-42.916-7.803-34.138-.975h-35.113"/><path style="fill:none;stroke:#008345;stroke-width:1;stroke-linecap:butt;stroke-linejoin:round;stroke-miterlimit:4;stroke-opacity:1;stroke-dasharray:none" d="m1711.675 1439.1-188.162 68.813-41.94 14.63-29.261 12.68-65.35 5.852-82.905 30.236-36.088 9.754-45.842 12.68-9.754.975-10.254-5.282-18.621-24.14-6.207-2.758M1827.465 1397.21l-20.128-.488-25.11-4.363M2830.205 361.05l-50.427 101.764-20.483 48.28-97.536 111.68-107.29 80.954-74.615 59.01-32.674 24.871-39.015 24.872-73.152 112.166-38.039 51.694-8.005 9.112"/><path style="fill:none;stroke:#008345;stroke-width:5;stroke-linecap:butt;stroke-linejoin:round;stroke-miterlimit:4;stroke-opacity:1;stroke-dasharray:none" d="m2186.27 1339.176-8.777 59.009"/><path style="fill:none;stroke:#008345;stroke-width:1;stroke-linecap:butt;stroke-linejoin:round;stroke-miterlimit:4;stroke-dasharray:none;stroke-opacity:1" d="M1926.191 2224.148 1865.5 2467.39l-4 27-2.5 143M1960.967 2073.474l2.24-22.117 4.462-10.866 10.685-19.473 7.726-19.945 34.38-57.662 13.72-34.81 5.437-37.53.586-34.109 2.69-16.934 5.738-15.311 21.946-42.875.819-5.048M1573.257 1019.257l-6.814.57-14.654 3.38-9.242 4.87-49.381-24.181-124.833-8.276-24.828 2.758-48.278-8.965-31.036 1.379-43.45 11.035-53.796 23.449-40.691 28.967-10.345 7.586-11.725 4.138-37.243-6.896-11.035.69-24.139 11.034-25.518 2.07-28.967-.69-19.31 8.965-23.45 11.725-35.174 8.276-34.484 22.76-39.312 20.69-6.28-7.247-3.223.818-6.012 22.035.488 27.31 13.167 71.689"/><path style="fill:none;stroke:#008345;stroke-width:1;stroke-linecap:butt;stroke-linejoin:round;stroke-miterlimit:4;stroke-dasharray:none;stroke-opacity:1" d="m1979.934 2016.94.51 5.227 8.642 17.067 8.564 13.76 25.55 28.188 9.989 17.932 10.17 17.626 16.367 17.822 18.37 12.603 8.53 8.917 7.987 14.932 7.787 24.554 8.723 103.555 4.954 20.58-.94 15.134-.566 39.461-2.758 6.897M1976.837 1708.955l1.867 19.11-2.092 20.176.696 7.37 15.135 58.93 5.625 25.369.412 10.45-2.024 10.743-14.714 35.552-8.88 31.118.671 15.616 7.93 20.548-3.189 17.228.386 5.827 5.134 11.878.956 5.636"/><path style="fill:none;stroke:#008345;stroke-width:1;stroke-linecap:butt;stroke-linejoin:round;stroke-miterlimit:4;stroke-opacity:1;stroke-dasharray:none" d="m1713.737 578.69 64.776 60.835 27.432 32.404 11.218 18.656 47.239 33.626 36.088 31.211 70.714 43.891 76.566 33.163 25.235 7.723M1675.993 335.21l-1.873-7.545-32.62-9.275-28.5-20-24.5-12.5h-9l-10 4.5h-9l-12.5-4-8-5.5-10-5-39.5 1H1476l-41 10-13-1-8-8"/><path style="fill:none;stroke:#008345;stroke-width:1;stroke-linecap:butt;stroke-linejoin:round;stroke-miterlimit:4;stroke-dasharray:none;stroke-opacity:1" d="m2291.173 2399.24 12.883-44.804.724-7.643-8.464-16.3-12.21-32.779-11.207-22.368.528-23.036 11.467-27.527.339-8.204-6.573-35.675-7.61-14.387-5.754-6.52-3.02-.806-22.758 8.235-3.407-1.975M1956.334 1704.36l-15.854 9.354-5.852 7.315-13.655 48.28-11.705 16.094-57.546 58.522-44.9 57.373M1683.519 1249.423l-6.897 2.069-37.933-30.346-2.804-5.855-1.346-21.92-3.15-2.045-16.191 7.398-132.377 63.113-71.15 35.41M2179.802 1883.483l.712 4.657-8.587 13.725-.149 4.524 2.709 12.62 13.734 32.205 21.432 20.579 5.28 7.609.363 8.373-15.495 12.216-6.215 14.622-26.431 32.82-16.957 18.683-21.478 19.634-12.934 6.082-1.41 3.521.767 2.727 96.298 76.938 4.88 1.315 10.275-3.725"/><path style="fill:none;stroke:#008345;stroke-width:1;stroke-linecap:butt;stroke-linejoin:round;stroke-miterlimit:4;stroke-opacity:1;stroke-dasharray:none" d="m1214.189 1594.955-.84 4.483 10.495 8.937M2178.847 1392.583l-2.687 37.048-14.486 39.738-32.62 25.582-26.207 22.76-67.59 59.312-27.587 25.518-14.483 16.553-25.518 37.932-14.594 27.481-7.752 9.695.334 7.447 31.18 7.306M2163.309 1463.89l5.907 8.09M1952.672 787.61l-7.315 3.9-18.302 36.878"/><text style="font-size:143.99993896px;font-style:normal;font-weight:400;fill:#000;fill-opacity:1;stroke:none;font-family:Sans;-inkscape-font-specification:Sans" xml:space="preserve" y="-568.0391" x="29.453178"><tspan y="-568.0391" x="29.453178">1900</tspan></text><path style="fill:none;stroke:#008345;stroke-width:1;stroke-linecap:butt;stroke-linejoin:round;stroke-miterlimit:4;stroke-opacity:1;stroke-dasharray:none" d="M1509.858 1345.516c-1.95 0-151.668-20.97-151.668-20.97l-143.378 71.2h-142.403l-29.26-20.97-28.898-5.77"/><path style="fill:none;stroke:#008345;stroke-width:1;stroke-linecap:butt;stroke-linejoin:round;stroke-miterlimit:4;stroke-dasharray:none;stroke-opacity:1" d="m1026.25 1799.79 99.314-32.414 52.416-21.38 22.07-8.277 114.488 5.518 46.209-17.242 27.587-14.484 102.763-24.828 3.345-.836"/><path style="fill:none;stroke:#008345;stroke-width:1px;stroke-linecap:butt;stroke-linejoin:round;stroke-opacity:1" d="m2085.387 845.098 5.863-12.708 16.25-41.75 13.25-28.5 42.25-70.5 68.75-100-1.25-35.25-4-13.25-1.5-13.75-6-13-2.25-45.5-3.75-24.75-9.25-34.75-2.75-15.75-17.5-37.25-3-16.25-2-25-5.5-15.25-11.25-22.75-1.75-25.75-6.5-18.25.5-14.75 3.25-12-3.5-4.75-18.5-8.75-32-3.25-22.75-1-23 1.75-45 7.25-21.75 4.75-56 17.25-15.25 5.75-15.5 12.25-14.61 15.117M1714.199 580.47l-44.38-133.986-4.319-32.594 2-51 5-22.5 7-11L1704 325l40-2 83-46.11 39-8.5 15.068-8.19 8.321-5.443"/><path style="fill:none;stroke:#008345;stroke-width:1;stroke-linecap:butt;stroke-linejoin:round;stroke-miterlimit:4;stroke-dasharray:none;stroke-opacity:1" d="m1570.818 992.923-34.891-20.752-19.311-30.346-82.762-60.693-13.104 16.553-24.14-2.759-33.794 4.138-17.932 1.38-68.278 19.31-14.484 14.484-10.345 4.828 13.794 48.967"/><path style="fill:none;stroke:#008345;stroke-width:1;stroke-linecap:butt;stroke-linejoin:round;stroke-miterlimit:4;stroke-opacity:1;stroke-dasharray:none" d="m2069.203 1070.062-27.544-22.284-47.046-30.96-72.177-49.255-115.58-59.01-47.305-22.92-99-32.675-27.797-21.946-34.625-54.62-39.015-48.28-22.433-54.133-32.675-55.595-14.142-24.872-9.266-30.724-49.256-42.916"/><path style="fill:none;stroke:#008345;stroke-width:1;stroke-linecap:butt;stroke-linejoin:round;stroke-miterlimit:4;stroke-opacity:1;stroke-dasharray:none" d="m1531.804 663.738 41.453 24.872 82.906 47.792 67.787 41.453 99.975 45.354 45.354 23.41 12.192 12.191 20.483 39.014 11.704 56.571 10.241 14.06"/><path style="fill:none;stroke:#008345;stroke-width:1px;stroke-linecap:butt;stroke-linejoin:round;stroke-opacity:1" d="m2157 207.89 6.5-10.5 29.5-16.5 68.5-45 13-5 27.5.5 29-3 22.5-7 29.5-19 16-6.5M2162.332 1134.045l12.021-9.192 5.657 1.06 21.567 28.638 4.95.707M1962.374 1493.93l-13.709-13.098-21.092-57.934 2.91-3.935M2112.389 2304.383l-4.38-5.061M2008.537 200.31l-4.596 6.718 3.182 32.173 8.838 58.69v38.89l3.536 35.71M1739.62 655.608l39.107 67.254 31.82 43.487 19.092 22.627 12.02 6.364 79.904 34.649 5.656-1.415M2408.406 149.752l51.618-4.243 4.243 5.657-38.89 149.907-127.28 195.868-67.175 95.46"/><path style="fill:none;stroke:#008345;stroke-width:1px;stroke-linecap:butt;stroke-linejoin:round;stroke-opacity:1" d="m2378.707 372.49 1.414 10.607 16.971 18.385 7.778 19.092v30.405l-5.657 33.942-12.728 36.062-7.07 19.799-7.072 5.657-41.719-16.97-31.82-24.042-7.07 1.414"/><path style="fill:none;stroke:#008345;stroke-width:1px;stroke-linecap:butt;stroke-linejoin:round;stroke-opacity:1" d="m2547.706 371.076-26.163 9.193-16.97 16.263-54.448 11.314-18.385-4.243-22.627 13.435-4.95 6.364M2299.511 215.513l-15.556-39.598.707-4.95 6.364-2.828 4.243 2.828 6.364 24.042-2.829 25.456-10.606 21.213-39.598 43.133-16.971 12.728-35.355 21.213-13.435 2.829-4.95 6.364M2300.925 305.315l41.72 23.335 17.677 13.435 8.486 14.85 4.242 26.162"/><path style="fill:none;stroke:#008345;stroke-width:1;stroke-linecap:butt;stroke-linejoin:round;stroke-miterlimit:4;stroke-opacity:1;stroke-dasharray:none" d="m2169.216 1471.981 100.91 36.43 5.171-3.17-.15-10.273 2.92-3.923 124.246 110.503M2402.314 1601.547l119.481-1.463v12.68l93.635-1.463-1.463-51.694"/><path style="fill:none;stroke:#008345;stroke-width:1px;stroke-linecap:butt;stroke-linejoin:round;stroke-opacity:1" d="m2497.588 1600.42 1.488 2.48v6.943l1.487 2.48h21.822"/><path style="fill:none;stroke:#008345;stroke-width:1;stroke-linecap:butt;stroke-linejoin:round;stroke-miterlimit:4;stroke-opacity:1;stroke-dasharray:none" d="m1654.26 1850.417-.048 2.774-26.335 47.304.488 40.478L1623 1979.5l-11.704 23.896.975 37.551 5.365 16.582"/><path style="fill:none;stroke:#008345;stroke-width:1;stroke-linecap:butt;stroke-linejoin:round;stroke-miterlimit:4;stroke-dasharray:none;stroke-opacity:1" d="m1930.483 1418.963-19.264 7.02-4.877-7.316h-51.207l-16.58 20.97-.976 2.439 2.926 11.217-77.054 26.822-10.24 8.29-84.37 106.315-45.354 57.546-8.778 6.34"/><path style="fill:none;stroke:#008345;stroke-width:1;stroke-linecap:butt;stroke-linejoin:round;stroke-miterlimit:4;stroke-opacity:1;stroke-dasharray:none" d="m1787.835 1594.72-11.704-.975-58.521-33.163-8.779-6.827-5.852-.976"/><path d="m2537.5 1181.39 33.07-60.695 2.93-18.805 43-49.5 82.33-96.972 36.082-43.45 66.324-69.252 120.945-52.669 33.162-32.187 56.571-112.166 10.729-39.015-15.606-138.5 3.902-39.99 15.606-43.892 16.843-39.03 21.567-38.538 31.112-59.397 29.699-50.558 20.86-32.527 24.748-27.93 56.215-50.559 19.092-18.738 9.82-12.38 10-24.25 9-24.25 16.75-56 27-93 14.75-50 16-34.5 11.75-12.25 17.75-9.25 19.5-6.5 49.5-11.25 11.75-1.25 12-7 11.5-6.5 18.5-18.25 25.75-37" style="fill:none;stroke:#84276b;stroke-width:5;stroke-linecap:butt;stroke-linejoin:round;stroke-miterlimit:4;stroke-dasharray:none;stroke-opacity:1"/><path d="m2050.75 1062.64 17 6.5 84 58.25 7.017 4.853 12.404 8.519 14.496 19.799 1.06 6.364 3.536.353 13.435-9.546 23.504-18.9 5.909.676" style="fill:none;stroke:#008345;stroke-width:1px;stroke-linecap:butt;stroke-linejoin:round;stroke-opacity:1"/><path style="fill:none;stroke:#008345;stroke-width:5;stroke-linecap:butt;stroke-linejoin:round;stroke-miterlimit:4;stroke-dasharray:none;stroke-opacity:1" d="m2232.234 1139.07 31.463 43.412-.865 28.943-17.546 9.731 5.852 12.68-22.433 37.064-27.31 35.113-15.61 33.162-29.263-.975-30.638 9.607"/><path style="fill:none;stroke:#008345;stroke-width:5;stroke-linecap:butt;stroke-linejoin:round;stroke-miterlimit:4;stroke-dasharray:none;stroke-opacity:1" d="m2262.826 1211.426-.477 19.972-11.217 2.438"/><path d="m2074.624 1367.362-22.877 22.227-29.824 30.542-75.103 86.807-15.606 11.704-213.604 115.093-5.894 2.969-27.783.17-11.81 2.73-11.084 8.761-10.746 7.998 20.5 57.351-18.044 39.015-5.852 29.26 8.778 60.473-1.463 10.729M2225.621 1053.772l24.128-25.737 39.22-42.581-8.548-9.835-5.107-10.857-5.564-5.006-50.347-21.38-111.345-75.038" style="fill:none;stroke:#008345;stroke-width:1;stroke-linecap:butt;stroke-linejoin:round;stroke-miterlimit:4;stroke-dasharray:none;stroke-opacity:1"/><path style="fill:none;stroke:#008345;stroke-width:1px;stroke-linecap:butt;stroke-linejoin:round;stroke-opacity:1" d="m2225.66 1034.653 3.843-6.374-.873-7.424-7.643-7.861-16.814-16.814-13.007-12.266"/><path style="fill:none;stroke:#008345;stroke-width:1;stroke-linecap:butt;stroke-linejoin:round;stroke-miterlimit:4;stroke-dasharray:none;stroke-opacity:1" d="m2233.088 1142.153.29-7.434 7.42-5.459.82-2.946-11.191-14.256-4.22-33.256-.922-18.092.375-26.057-1.582-6.096-20.627-22.149-12.285-22.494-43.759-48.674-33.513-47.861-5.836-24.041-22.67-18.24-12.383-4.9M1982.115 1669.793l-5.254 27.223-.024 11.94"/><path style="fill:none;stroke:#008345;stroke-width:1;stroke-linecap:butt;stroke-linejoin:round;stroke-miterlimit:4;stroke-dasharray:none;stroke-opacity:1" d="m2225.161 1057.917 29.004 58.894-1.78 3.879-11.588 8.57M1908.33 1368.671l-45.39-123.13-12.68-19.507-75.863-56.102-34.292-28.278"/><path d="m1676.622 1251.492 6.313 4.56 9.828 8.298 4.693-.47 24.642-32.937 47.188-62.338 3.251-.26M1740.105 1141.654l-42.506-34.947-54.037-28.518-36.089-41.921-24.282-11.15-9.934-5.86" style="fill:none;stroke:#008345;stroke-width:1;stroke-linecap:butt;stroke-linejoin:round;stroke-miterlimit:4;stroke-dasharray:none;stroke-opacity:1"/><path d="m1758.488 1157.236-3.577.849-71.391 91.338M1744.277 1145.094l.045-7.913 4.717-5.004 51.036-91.728-18.621-21.38 11.725-46.899 19.31-4.827 22.07-15.863-8.276-35.174-12.414-22.76-31.725-43.45-51.037-24.828M1711.675 1439.1l111.26-40.017 5.64-2.076 76.385-29.419 3.37 1.083 17.412 48.89 4.74 1.402 203.538-72.864M1804.645 1795.51l-.228-11.082 8.29-42.916 12.622-36.615 14.279-24.638 5.989-15.801 83.666-78.028 40.371-34.143M1987.898 1531.102l.204 4.08 50.536 56.805-.516 4.862-28.733 29.707-27.274 43.237-18.208 16.828-3.056 5.644-4.517 12.094M1804.645 1795.51l-3 4.155-46.472-4.08-60.099 7.43-13.27 4.478-9.033 8.97-18.56 36.728" style="fill:none;stroke:#008345;stroke-width:1;stroke-linecap:butt;stroke-linejoin:round;stroke-miterlimit:4;stroke-dasharray:none;stroke-opacity:1"/><path d="m2097.678 1359.11-2.52 4.217 11.79 34.685-.724 4.475-119.414 129.81-17.176 19.99" style="fill:none;stroke:#008345;stroke-width:1;stroke-linecap:butt;stroke-linejoin:round;stroke-miterlimit:4;stroke-dasharray:none;stroke-opacity:1"/><path d="m1961.97 1489.427.404 4.503 29.61 27.171.678 4.368" style="fill:none;stroke:#008345;stroke-width:1;stroke-linecap:butt;stroke-linejoin:round;stroke-miterlimit:4;stroke-dasharray:none;stroke-opacity:1"/><path style="fill:none;stroke:#84276b;stroke-width:5;stroke-linecap:butt;stroke-linejoin:round;stroke-miterlimit:4;stroke-opacity:1;stroke-dasharray:none" d="m2297.57 1356.848-28.12 72.044-12.25 11.176-14.846.182-23.558-6.63-35.641-9.621-21.756-5.82-92.66-.975-15.605 7.803-140.452 159.96-76.078 84.856-25.36 58.521-12.68 47.793-44.866 81.93-17.556 33.163-13.655 57.546-30.236 62.423-66.325 126.797"/><path d="m1976.635 1708.753 52.053 2.362 24.067 19.846 15.467 16.63 6.348 18.405 24.139 39.312 6.207 21.38 18.968 25.051 5.428 3.771 65.56 36.322 46.396 29.58.88 4.694 6.49 9.773 4.656 12.818 4.264 2.915 14.306-2.281 1.77 2.953-7.332 40.618-21.52 131.302-9.255 44.028-22.434 112.166-17.979 77.977-42.561 208.436" style="fill:none;stroke:#008345;stroke-width:1;stroke-linecap:butt;stroke-linejoin:round;stroke-miterlimit:4;stroke-dasharray:none;stroke-opacity:1"/><path d="m2191.591 2359.783-9.397-22.471-11.67-13.832-27.117-17.238-16.875-5.556-18.523-1.364-178.437-69.743-3.381-5.431 24.96-102.707 9.09-42.61.726-5.357-3.338-5.515-28.287-21.966-14.99-9.797-20.86-22.352-14.297-14.78-.181-5.02 3.986-7.154 57.5-96.5 4-17 2-42 23-47.5 8-3.5 4-6.5M1591.162 1662.421l-7.462-4.077-9.18-16.153-3.368-3.496-18.01-5.963-13.474-11.248-30.869-12.804-25.927-35.922-16.299-13.807-7.867-1.737-16.577 3.26-44.83-8.277-13.77-9.867M1551.789 1497.712l-8.966-2.069-18.622-13.793-43.23-30.145-7.766-7.302-8.568-15.648-8.128-17.03-8.184-17.455-10.334-15.183-6.496-14.58-4.325-11.825-11.116-53.866-4.384-1.566-53.969 27.785M1650.293 1656.363l-41.26 2.733-29.656 5.518-84.934 21.233-2.681 4.174.714 19.422 7.587 12.414 17.242 14.484 6.207 11.035 8.966 5.517M807.599 229.215l43.89 8.29 51.695 1.464 40.477 16.093 31.7 29.261 80.467 54.62 23.896 9.266 102.413 22.433 26.822 18.045 25.36 36.576 19.02 40.965 103.875 109.24 21.458 20.483 37.064 22.92 24.872 27.798 75.102 90.709 35.601 22.921 16.093 28.773 1.951 26.335-6.34 83.88-2.438 57.547 10.241 36.089 2.937 10.89-1.464 5.013.966 10.431" style="fill:none;stroke:#008345;stroke-width:1;stroke-linecap:butt;stroke-linejoin:round;stroke-miterlimit:4;stroke-dasharray:none;stroke-opacity:1"/><path d="m2051.715 1062.849-12.723-2.627-117.531-20.483-335.776-59.557-7.101 3.515-4.83 20.117M1806.822 1901.298l-2.462 3.335-84.056 114.715-90.042 125.292" style="fill:none;stroke:#008345;stroke-width:1;stroke-linecap:butt;stroke-linejoin:round;stroke-miterlimit:4;stroke-dasharray:none;stroke-opacity:1"/></svg>