<svg width="4000" height="4450" viewBox="-85, -775, 4000, 4450" xml:space="preserve" xmlns="http://www.w3.org/2000/svg"><path d="m2481.749 1074.088-13.11 23.198-67.243 109.483-20.54 13.412-54.62 14.631-48.769 8.779-5.41-.873" style="fill:none;stroke:#0e4c90;stroke-width:5;stroke-linecap:butt;stroke-linejoin:round;stroke-miterlimit:4;stroke-dasharray:none;stroke-opacity:1"/><path style="fill:none;stroke:#84276b;stroke-width:5;stroke-linecap:butt;stroke-linejoin:round;stroke-miterlimit:4;stroke-dasharray:none;stroke-opacity:1" d="m2537.5 1181.39 33.07-60.695 2.93-18.805 43-49.5 82.33-96.972 36.082-43.45 66.324-69.251 120.945-52.67 33.162-32.187 56.571-112.166 10.729-39.015-15.606-138.5 3.902-39.99 15.606-43.892 16.843-39.03 21.567-38.538 31.112-59.397 29.699-50.558 20.86-32.527 24.748-27.93 56.215-50.558 19.092-18.739 9.82-12.38 10-24.25 9-24.25 16.75-56 27-93 14.75-50 16-34.5 11.75-12.25 17.75-9.25 19.5-6.5 49.5-11.25 11.75-1.25 12-7 11.5-6.5 18.5-18.25 25.75-37"/><path d="m2237.477 1296.26-52.657-35.608-45.854-43.397-15.606-6.827-102.413-12.68-229.21-23.408-15.605-6.828-77.054-63.398-53.645-28.286-36.088-41.94-38.865-15.624" style="fill:none;stroke:#e02826;stroke-width:5;stroke-linecap:butt;stroke-linejoin:round;stroke-miterlimit:4;stroke-dasharray:none;stroke-opacity:1"/><path d="m1845.597 1664.458 80.252-58.034 91.197-66.324 105.822-77.28 5.456-7.021 16.259-37.734 6.997-7.908 16.741-12.248 7.26-2.12" style="fill:none;stroke:#008345;stroke-width:1;stroke-linecap:butt;stroke-linejoin:round;stroke-miterlimit:4;stroke-dasharray:none;stroke-opacity:1"/><path d="m1782.234 1392.359-272.7-46.03-4.377.95-15.781 15.305-11.162 6.704-11.4 2.483-22.064-2.986-6.61 2.683-51.373 33.076-5.237 1.953-6.05.32-5.653-1.265-22.974-9.976-6.205-.304-6.988 2.062-5.219 6.215-2.23 7.31-2.25 15.96-3.323 9.892-24.436 49.512-9.559 11.251-12.438 7.778-14.215 4.616-23.28-.422-14.043 3.997-14.343 9.726-9.687 12.122-10.443 22.818-5.571 5.072-5.535.092-4.56-1.424-37.208-21.75-23.198-6.418-19.718-1.384-34.138-.975h-35.113" style="fill:none;stroke:#008345;stroke-width:1;stroke-linecap:butt;stroke-linejoin:round;stroke-miterlimit:4;stroke-opacity:1;stroke-dasharray:none"/><path d="m1828.575 1397.007-5.64 2.076-137.243 49.321" style="fill:none;stroke:#008345;stroke-width:1;stroke-linecap:butt;stroke-linejoin:round;stroke-miterlimit:4;stroke-dasharray:none;stroke-opacity:1"/><path d="m1853.673 1397.21-46.336-.488-25.11-4.363" style="fill:none;stroke:#008345;stroke-width:1;stroke-linecap:butt;stroke-linejoin:round;stroke-miterlimit:4;stroke-opacity:1;stroke-dasharray:none"/><path d="m2048.715 1058.35-9.724 1.872-117.53-20.482-335.777-59.558-7.1 3.516-4.83 20.117-1.464 5.011-2.743 7.764-3.104 3.238" style="fill:none;stroke:#008345;stroke-width:1;stroke-linecap:butt;stroke-linejoin:round;stroke-miterlimit:4;stroke-dasharray:none;stroke-opacity:1"/><path d="m2189.732 1332.954-.709 11.975-7.852 40.813-5.59 10.047" style="fill:none;stroke:#008345;stroke-width:5;stroke-linecap:butt;stroke-linejoin:round;stroke-miterlimit:4;stroke-opacity:1;stroke-dasharray:none"/><path d="m1908.33 1368.671-45.391-123.13-5.19-9.946-4.7-5.994-22.324-18.013-56.329-41.656-34.292-28.278-124.907 57.07M1740.104 1141.654l-42.506-34.947-54.037-28.519-36.089-41.92-41.03-16.44" style="fill:none;stroke:#008345;stroke-width:1;stroke-linecap:butt;stroke-linejoin:round;stroke-miterlimit:4;stroke-dasharray:none;stroke-opacity:1"/><text x="4.4531" y="-568.0391" xml:space="preserve" style="font-size:143.99993896px;font-style:normal;font-weight:400;fill:#000;fill-opacity:1;stroke:none;font-family:Sans;-inkscape-font-specification:Sans"><tspan x="4.4531" y="-568.0391">1915</tspan></text><path d="m1509.533 1346.328-143.96-21.166-5.23.766-55.447 26.918-17.523 4.941-63.24 34.469-11.247 2.754-36.506-2.222-42.776.358-22.289 3.431-38.906-.83-5.964-3.253-23.297-17.718-22.921-4.15-9.58-.982-2.336.748-4.874 3.95-9.82 3.473-6.192-.352-7.056-1.921-10.846-5.827-90.44-59.32-23.154-5.714-2.924-3.347-1.443-24.694-1.503-3.127-22.116-12.39-3.182-3.209-5.58-22.207-4.161-28.312-4.955-27.013-.45-6.814 1.738-13.693" style="fill:none;stroke:#008345;stroke-width:1;stroke-linecap:butt;stroke-linejoin:round;stroke-miterlimit:4;stroke-opacity:1;stroke-dasharray:none"/><path d="m2265 1114-11-3" style="fill:none;stroke:#ef8b22;stroke-width:5;stroke-linecap:butt;stroke-linejoin:round;stroke-miterlimit:4;stroke-dasharray:none;stroke-opacity:1"/><path d="m2262.826 1211.426-.477 19.972-11.217 2.439" style="fill:none;stroke:#008345;stroke-width:5;stroke-linecap:butt;stroke-linejoin:round;stroke-miterlimit:4;stroke-dasharray:none;stroke-opacity:1"/><path d="m2047.247 1058.359 22.471 6.74 96.564 65.35 25.36 11.216 13.167 17.557 27.426-20.152 31.462 43.413-.865 28.943-17.546 9.73 5.852 12.68-37.38 46.422-14.365 23.085-11.576 35.502-31.289-.645-211.098 74.782-9.398.516-23.343-4.097h-29.71l-6.499-2.704-9.745-7.805-5.463-2.791-14.81.17" style="fill:none;stroke:#008345;stroke-width:5;stroke-linecap:butt;stroke-linejoin:round;stroke-miterlimit:4;stroke-dasharray:none;stroke-opacity:1"/><path style="fill:none;stroke:#84276b;stroke-width:5;stroke-linecap:butt;stroke-linejoin:round;stroke-miterlimit:4;stroke-dasharray:none;stroke-opacity:1" d="m2872.269 811.604 11.667 1.767 73.893 37.477 11.667 3.536 13.081.707 37.34.476"/><path style="fill:none;stroke:#ef8b22;stroke-width:5;stroke-linecap:butt;stroke-linejoin:round;stroke-miterlimit:4;stroke-dasharray:none;stroke-opacity:1" d="m2189.197 1436.711 5.733-3.82 11.332 3.159 17.009-59.717 4.276-15.212 5.765-2.81 43.464 13.151 5.724-3.075 3.258-6.778 12.192-26.335 32.187-19.995 14.63-14.63 3.414-19.02.488-10.729-4.877-93.147-.488-35.6-6.34-19.02-18.044-12.68-24.872-8.778-10.24-3.901L2272 1106l-17.4 16.739M2265 1114l-11-3"/><path d="m2225.621 1053.772 24.128-25.737 39.22-42.581-8.548-9.835-5.107-10.856-5.564-5.007-50.347-21.38-111.345-75.038" style="fill:none;stroke:#008345;stroke-width:1;stroke-linecap:butt;stroke-linejoin:round;stroke-miterlimit:4;stroke-dasharray:none;stroke-opacity:1"/><path d="m2225.66 1034.653 3.843-6.374-.873-7.424-7.643-7.861-16.814-16.814-13.007-12.266" style="fill:none;stroke:#008345;stroke-width:1px;stroke-linecap:butt;stroke-linejoin:round;stroke-opacity:1"/><path d="m2233.088 1142.153.29-7.434 7.42-5.459.82-2.945-11.191-14.256-4.22-33.257-.922-18.092.375-26.057-1.582-6.095-20.627-22.15-12.285-22.494-43.759-48.674-33.513-47.861-5.836-24.041-22.67-18.24-9.343-11.512" style="fill:none;stroke:#008345;stroke-width:1;stroke-linecap:butt;stroke-linejoin:round;stroke-miterlimit:4;stroke-dasharray:none;stroke-opacity:1"/><path d="m2225.161 1057.917 29.004 58.894-1.78 3.879-11.588 8.57" style="fill:none;stroke:#008345;stroke-width:1;stroke-linecap:butt;stroke-linejoin:round;stroke-miterlimit:4;stroke-dasharray:none;stroke-opacity:1"/><path style="opacity:1;fill:none;fill-opacity:1;fill-rule:nonzero;stroke:#ef8b22;stroke-width:5;stroke-linecap:butt;stroke-linejoin:round;stroke-miterlimit:4;stroke-dasharray:none;stroke-opacity:1" d="m2236.32 1136.204-5.957-1.84-6.331 4.532"/><path style="opacity:1;fill:none;fill-opacity:1;fill-rule:nonzero;stroke:#ba9283;stroke-width:5;stroke-linecap:butt;stroke-linejoin:round;stroke-miterlimit:4;stroke-dasharray:none;stroke-opacity:1" d="m1739.414-8.455-.824-14.013.824-20.057 3.572-33.521-2.198-34.07-5.495-14.838-11.266-17.31-3.022-15.936 3.572-12.914 7.144-31.872-1.649-11.815-6.869-15.661-1.648-29.95 2.198-14.287 17.584-40.39 14.013-33.52-1.648-15.387.68-8.557 2.863-8.622 3.875-5.627 10.764-7.893 3.799-7.219"/><path style="opacity:1;fill:none;fill-opacity:1;fill-rule:nonzero;stroke:#ba9283;stroke-width:1;stroke-linecap:butt;stroke-linejoin:round;stroke-miterlimit:4;stroke-dasharray:none;stroke-opacity:1" d="m1775.682-401.914 7.969-29.674-7.419-72.537 9.617-103.036 1.099-106.882M1739.414-8.455l12.364 37.642 16.211 40.665 6.87 18.134-2.748 17.31-5.22 21.432-16.487 42.038v4.397l2.473 18.409 5.22 11.265 14.014 9.891 27.75 7.419 28.85 2.198 32.148 10.166 30.223 2.473 12.09 4.121 18.134 11.815 12.64 3.023 6.868 7.968 4.396 11.265-1.099 40.115 3.572 19.508 18.41 37.917-.276 16.486-6.319 32.422v23.354l6.869 23.63 23.355 39.84 3.846 18.959-.275 12.364-4.12 18.684-39.197 148.558 2.217 9.763 104.94 112.77 9.52 9.326 6.307 2.232 6.61 7.975"/><path d="m1828.575 1397.007 76.385-29.419 3.37 1.083 17.412 48.89.838 2.518 5.09 2.37 136.36-48.687M1804.645 1795.51l-3.001 4.155-46.471-4.08-60.1 7.431-13.27 4.477-9.032 8.97-18.003 33.08M1987.898 1531.102l.204 4.08 50.536 56.805-.516 4.862-28.733 29.707-13.002 25.071-14.272 18.166-18.208 16.828-3.056 5.644.88 1.188M1961.936 1488.22l-.304 4.965 30.352 27.916.678 4.368" style="fill:none;stroke:#008345;stroke-width:1;stroke-linecap:butt;stroke-linejoin:round;stroke-miterlimit:4;stroke-dasharray:none;stroke-opacity:1"/><path d="m2097.832 1363.134-1.374 4.018 10.49 30.86-.724 4.475-119.414 129.81-17.176 19.99-40.37 34.143-83.667 78.028-5.989 15.8-14.28 24.639-12.62 36.615-8.29 42.916.227 11.083 2.176 105.787M1806.822 1901.298l-2.463 3.335-84.056 114.715-90.042 125.292M2111.812 2381.195l2.759-6.896.565-39.461.94-15.135-4.954-20.58-8.723-103.555-7.786-24.553-7.987-14.933-8.53-8.917-18.37-12.602-16.368-17.822-10.17-17.626-9.99-17.933-25.548-28.187-8.564-13.76-8.641-17.068-.512-5.226 4.817-12.435-.957-5.635-5.134-11.879-.385-5.826 3.188-17.23-7.93-20.546-.67-15.617 8.88-31.118 14.714-35.552 2.024-10.744-.412-10.45-5.625-25.368-15.135-58.93-.696-7.37 2.092-20.176-1.867-19.11-2.087-11.814-13.019-3.687-11.882.873-1.958-3.335 5.184-6.484 14.594-27.48 25.518-37.933 14.483-16.553 27.588-25.518 67.589-59.313 26.208-22.76 32.62-25.581 14.486-39.738 2.835-27.645-3.415-6.198M1566.443 1019.828l-14.654 3.38-7.757 3.913-3.097.166-4.08-1.998-1.381.293-3.596 7.086" style="fill:none;stroke:#008345;stroke-width:1;stroke-linecap:butt;stroke-linejoin:round;stroke-miterlimit:4;stroke-dasharray:none;stroke-opacity:1"/><path d="m1806.822 1901.298 2.033 8.784 34.55 33.739 13.143 8.293 3.867 6.16 4.345 21.234 5.161 8.368 23.538 24.332 20.86 22.352 14.99 9.797 28.286 21.966 3.339 5.515-.727 5.358-9.09 42.609-24.96 102.707 3.381 5.432 178.827 71.868 17.416.78 16.378 4.738 28.967 17.932 11.035 12.414 11.035 28.967" style="fill:none;stroke:#008345;stroke-width:1;stroke-linecap:butt;stroke-linejoin:round;stroke-miterlimit:4;stroke-dasharray:none;stroke-opacity:1"/><path d="m1976.634 1708.753 52.053 2.363 24.067 19.846 15.468 16.63 6.347 18.405 24.14 39.312 6.206 21.38 18.969 25.051 5.428 3.771 65.56 36.322 46.396 29.58.88 4.694 6.489 9.772 4.656 12.819 4.265 2.915 14.305-2.281 1.77 2.953-7.331 40.618-21.521 131.302-9.255 44.027-22.433 112.167-17.98 77.977-42.56 208.436" style="fill:none;stroke:#008345;stroke-width:1;stroke-linecap:butt;stroke-linejoin:round;stroke-miterlimit:4;stroke-dasharray:none;stroke-opacity:1"/><path d="m1956.086 1705.91 3.965-.16 7.374 1.667 8.427-28.09" style="opacity:1;fill:none;fill-opacity:1;fill-rule:nonzero;stroke:#ef8b22;stroke-width:5;stroke-linecap:butt;stroke-linejoin:round;stroke-miterlimit:4;stroke-dasharray:none;stroke-opacity:1"/><path style="fill:none;stroke:#008345;stroke-width:1;stroke-linecap:butt;stroke-linejoin:round;stroke-miterlimit:4;stroke-dasharray:none;stroke-opacity:1" d="m1591.162 1662.42-7.461-4.076-9.18-16.153-3.369-3.496-18.01-5.963-13.474-11.248-30.868-12.804-25.927-35.922-16.3-13.807-7.867-1.737-16.577 3.259-44.83-8.276-7.329-5.252-8.205-1.374"/><path d="m1685.693 1448.404-115.398 43.72-46.782 15.789-25.124 7.393-23.797 12.097-15.8 6.371-14.706 3.9-14.957 1.496-31.292-.01-7.115 1.945-6.412 3.594-39.124 13.402-119.936 35.18-7.433 1.865-4.659-.338-6.53-3.125-23.05-26.341-6.49-2.07M1026.25 1799.792l57.73-19.807 40.865-12.695 28.093-10.352 17.861-9.091 23.141-9.586 8.685-1.411 47.202 4.44 53.957 1.126 15.515-1.962 41.448-14.458 28.503-15.319 101.847-23.993 3.346-.837M2136.744 1346.34l-4.504 4.524-64.21 22.898-16.284 15.826-29.823 30.542-74.883 84.997-8.728 9.262-7.098 4.253-23.207 12.505-126.682 67.875-35.314 16.728-15.024 8.505-13.374 9.48-5.894 2.969-32.167 1.016-7.426 1.885-11.084 8.76-8.43 6.38-1.255 2.527v2.673l16.752 53.945-17.974 45.657-1.957 14.554 1.183 17.206.742 22.246 5.049 30.083-.384 5.907-25.011 48.312-2.04 8.928-.81 51.046-6.094 26.854-8.16 12.981-1.406 3.586.78 36.294 5.205 15.603" style="fill:none;stroke:#008345;stroke-width:1;stroke-linecap:butt;stroke-linejoin:round;stroke-miterlimit:4;stroke-dasharray:none;stroke-opacity:1"/><path style="fill:none;stroke:#008345;stroke-width:1;stroke-linecap:butt;stroke-linejoin:round;stroke-miterlimit:4;stroke-dasharray:none;stroke-opacity:1" d="m1652.612 1654.745-5.837 2.42-6.124 1.315-36.16 1.264-25.115 4.87-84.933 21.233-2.681 4.174.714 19.422 7.587 12.414 17.242 14.484 6.207 11.035 8.966 5.517"/><path style="fill:none;stroke:#008345;stroke-width:1;stroke-linecap:butt;stroke-linejoin:round;stroke-miterlimit:4;stroke-dasharray:none;stroke-opacity:1" d="m1931.67 1422.449-18.013 6.947-4.062-2.398-2.967-8.09-1.992-.652-47.533-.124-2.406 1.068-16.611 20.04-.86 3.114 2.708 8.36-1.324 3.327-77.44 27.751-5.753 3.557-132.528 169.574-7.387 4.435"/><path style="fill:none;stroke:#008345;stroke-width:1;stroke-linecap:butt;stroke-linejoin:round;stroke-miterlimit:4;stroke-dasharray:none;stroke-opacity:1" d="m1787.98 1595.456-5.663-.531-58.898-30.56-16.451-12.702-4.34 1.23M2163.635 1463.99l1.808 4.71 105.408 38.542 2.715-.447 1.731-1.553-.15-10.274 1.106-2.159 1.616-.858 3.086 1.061 121.358 108.536"/><path d="m1632.603 2146.358 89.884-124.918 132.96-181.454 65.946-70.168 17.136-51.715 17.557-12.192 10.241-17.556 18.044-16.581 14.469-18.457 12.841-24.947 59.985-61.935 50.719-46.818 30.236-19.507 20.97-24.384 14.63-36.576 9.61-23.041 10.839-51.77 4.423-19.311 1.951-18.532 8.778-13.655 38.04-50.719 4.876-16.581 1.95-64.374-32.368-44.963 18.28-13.465 2.872-5.945-29.26-59.497-6.828-27.31-20.483-21.946-12.192-22.433-43.403-48.28-34.138-48.769-5.852-23.896-21.978-17.43-12.701-15.971" style="fill:none;stroke:#ef8b22;stroke-width:5;stroke-linecap:butt;stroke-linejoin:round;stroke-miterlimit:4;stroke-dasharray:none;stroke-opacity:1"/><path style="fill:none;stroke:#008345;stroke-width:1;stroke-linecap:butt;stroke-linejoin:round;stroke-miterlimit:4;stroke-dasharray:none;stroke-opacity:1" d="m2048.715 1058.35-7.056-10.572-47.047-30.96-72.176-49.255-115.58-59.01-47.305-22.92-99-32.675-18.214-12.28-9.543-11.377-23.097-38.418-11.569-14.49-34.43-48.117-13.893-25.025-19.107-40.942-26.692-43.925-14.143-24.872-9.015-28.774-3.005-5.226-14.715-8.8-19.486-19.831-23.225-17.026"/><path style="fill:none;stroke:#008345;stroke-width:1;stroke-linecap:butt;stroke-linejoin:round;stroke-miterlimit:4;stroke-dasharray:none;stroke-opacity:1" d="m1530.698 662.309 43.556 25.285 81.908 48.809 67.788 41.452 99.974 45.355 45.355 23.408 12.192 12.192 20.482 39.015 11.705 56.57 10.24 14.06M1668.22 1373.313l-3.7-4.862 7.248-70.24 71.376-91.683 26.14-37.924-.224-2.867"/><path d="m1754.887 1153.883.31 3.573-74.017 92.137-.443 4.31 13.401 10.597.175 4.751" style="fill:none;stroke:#008345;stroke-width:1;stroke-linecap:butt;stroke-linejoin:round;stroke-miterlimit:4;stroke-dasharray:none;stroke-opacity:1"/><path d="m2480.068 999.8 3.013-3.906 56.335-27.172 132.42-68.278 86.054-44.188 87.039-38.893 75.264-30.787 8.191-7.542" style="fill:none;stroke:#0e4c90;stroke-width:1;stroke-linecap:butt;stroke-linejoin:round;stroke-miterlimit:4;stroke-dasharray:none;stroke-opacity:1"/><path d="m2602.149 936.376 38.65-44.898 24.492-30.774 6.149-14.518.354-12.013-14.715-32.73-4.142-2.603-70.76-17.022-56.705-22.576-2.171-3.332" style="fill:none;stroke:#0e4c90;stroke-width:1;stroke-linecap:butt;stroke-linejoin:round;stroke-miterlimit:4;stroke-dasharray:none;stroke-opacity:1"/><path d="m2535.619 722.682 15.478-46.297 18.162-26.239 3.792-10.068-1.003-4.594-52.822-60.562-5.415-2.267-1.392-2.74.326-11.11 3.312-13.077 3.026-5.845 2.824-1.94 60.321-9.154 3.305-2.72 4.065-14.827-.079-13.81-4.088-25.791-5.798-17.273-12.386-17.433-.121-14.66-1.202-2.357-13.12-9.074-9.956-15.371-5.37-22.534M2832.4 355.914l50.479-91.359 56.554-104.142 33.02-59.205 57.937-103.11 25.504-33.766 49.356-64.692 61.25-77.5 95.25-112 48.408-60.292 8.455-2.785 18.243-3.558 18.4 1.782 17.734-.31 11.42-1.64 6.127-1.755 38.352-7.024 20.897-3.734 21.297-9.47 8.677.579 32.287 25.512 3.078-.34 17.107-22.065 4.032-1.691 21.38 3.849 29.308 10.758 7.343.416 74.501-18.237 5.55-3.837 8.39-10.445 5.953-2.819 84.908-23.96 3.605-2.35 6.572-8.568 4.154-.47 11.046 6.739 3.894.283 5.935-2.023 15.928-6.421 16.46-6.145 9.813-2.318 8.057.144M2757.658 513.024l4.121-.603 14.885 5.18 12.365.213 8.124-5.674 7.67-10.77 3.092-.21 94.275 48.235 23.938 25.346 86.411 71.21 25.385 22.024 10.627 7.07 18.473 10.217 33.52 15.36 27.149 9.427M2487.613 759.818l1.346-5.633-40.08-184.95-3.569-3.07-26.416.525-32.023-5.824-7.708-8.581-1.712-4.476.644-3.455 21.117-59.433 4.555-17.185 1.102-16.757.688-30.614-8.466-18.883-14.987-15.862-8.212-8.357-4.554-10.25-5.528-19.36-5.696-8.345-42.608-27.187-13.468-11.986-36.941-17.273-12.551-10.355-47.515-22.343-16.478-17.16-20.758-39.242-3.99-4.76-4.837-34.866-7.417-39.688 3.02-57.871 1.18-11.274 5.648-12.688 1.004-19.385-2.955-15.175-5.642-12.231-3.844-15.185 1.754-138.872 38.933-87.531 22.31-53.074 3.968-18.846 9.67-92.246" style="fill:none;stroke:#008345;stroke-width:1;stroke-linecap:butt;stroke-linejoin:round;stroke-miterlimit:4;stroke-dasharray:none;stroke-opacity:1"/><path d="m2807.915 501.16-11.118-12.059-11.267-20.543-4.34-2.356-3.843 2.604" style="fill:none;fill-opacity:0;fill-rule:nonzero;stroke:#008345;stroke-width:1;stroke-linecap:butt;stroke-linejoin:round;stroke-miterlimit:4;stroke-dasharray:none;stroke-opacity:1"/><path style="fill:none;stroke:#0e4c90;stroke-width:1;stroke-linecap:butt;stroke-linejoin:round;stroke-miterlimit:4;stroke-dasharray:none;stroke-opacity:1" d="m2481.748 1074.088-2.47-109.218-1.69-151.67 19.759-44.084 3.689-3.096 19.245-7.272 3.02-2.838 13.484-32.864 38.448-29.76M2481.748 1074.088l3.826-2.24 16.135 9.804.948 2.904-9.104 15.507.77 2.428 80.171 46.263 2.028 2.55-.88 1.763-1.993.733-21.13-1.406-64.789-39.108-.519-2.602 6.342-10.621"/><path style="fill:none;stroke:#008345;stroke-width:1;stroke-linecap:butt;stroke-linejoin:round;stroke-miterlimit:4;stroke-dasharray:none;stroke-opacity:1" d="m2288.969 985.454 8.005-9.112 38.039-51.694 73.152-112.167 39.014-24.872 23.274-14.517 128.943-99.748 65.153-50.57 94.746-111.68 20.482-48.28 52.622-106.9 4.676-2.663 70.066 3.22 4.253-2.656 10.583-23.477 5.595-3.235 35.573-1.814 96.293-3.463 1.837 3.29-18.018 47.695-3.96 13.223-16.597 60.687-5.49 30.846-3.609 1.915-35.917-2.392-40.11-20.823-7.674 1.092-16.01 9.845-18.137 3.806-18.014.488-14.337-5.949-11.866.542-23.375 7.449-5.6-.757-34.364-21.063-3.253.668"/><path d="m2575.894 913.866-93.897 47.401-2.72 3.603" style="fill:none;stroke:#0e4c90;stroke-width:1;stroke-linecap:butt;stroke-linejoin:round;stroke-miterlimit:4;stroke-dasharray:none;stroke-opacity:1"/><path style="fill:#efece7;stroke:#0e4c90;stroke-linejoin:round;stroke-opacity:1;fill-opacity:1" d="m2501.036 766.02 26.563-20.584"/><path style="fill:none;stroke:#008345;stroke-width:1;stroke-linejoin:round;stroke-dasharray:none;stroke-opacity:1" d="m3336.856-356.495 16.555-6.319 23.48-5.878 25.759-.377 25.73-2.158 17.136-3.027 14.668-3.917 10.898-.475"/><path style="fill:none;stroke:#008345;stroke-linejoin:round" d="m3783.774-431.844 8.915-9.179 3.492-.068 8.544 12.57 4.078 1.206"/><path style="fill:none;stroke:#008345;stroke-width:1;stroke-linejoin:round;stroke-dasharray:none;stroke-opacity:1" d="m3536.264-376.651-12.6-2.08-2.997.87-13.513 18.986-2.852.2"/></svg>