<svg xmlns="http://www.w3.org/2000/svg" viewBox="-60, -75, 3250, 3750" height="3750" width="3250"><path d="M2537.5 1181.39l33.07-60.695 2.93-18.805 43-49.5 82.33-96.972 36.082-43.45 66.324-69.251 120.945-52.67 33.162-32.187 56.571-112.166 10.729-39.015-15.606-138.5 3.902-39.99 15.606-43.892 16.843-39.03 21.567-38.538 31.112-59.396 29.699-50.559 20.86-32.527 24.748-27.93 56.215-50.558 19.092-18.739 9.82-12.38 10-24.25 9-24.25 16.75-56 27-93 14.75-50 16-34.5 11.75-12.25 17.75-9.25 19.5-6.5 49.5-11.25 11.75-1.25 12-7 11.5-6.5 18.5-18.25 25.75-37" fill="none" stroke="#84276b" stroke-width="5" stroke-linejoin="round"/><path d="M2276.492 1697.133v-40.965l-4.877-164.836 7.803-18.532 47.792-84.856 2.926-15.606-6.827-15.606-50.719-28.285-35.113-32.187-58.521-43.892-39.99-35.113-15.606-6.827-102.413-12.68-229.21-23.409-15.605-6.827-77.054-63.398-53.645-28.286-36.088-41.94-25.36-11.705-14.63-2.438" fill="none" stroke="#e02826" stroke-width="5" stroke-linejoin="round"/><path d="M2481.749 1074.088l-.21-4.396-2.814-130.626-1.38-116.557 22.76-57.244 20.69-5.517 16.05-40.814 18.826-14.955 17.579-13.192" fill="none" stroke="#0e4c90" stroke-linejoin="round"/><path d="M2048.453 1057.812l-6.794-10.034-47.047-30.96-72.176-49.255-115.58-59.01-47.306-22.92-98.999-32.675-27.797-21.945-34.626-54.62-39.014-48.28-22.433-54.133-32.675-55.596-14.143-24.872-9.266-30.724-49.255-42.915" fill="none" stroke="#008345" stroke-linejoin="round"/><path d="M1531.804 663.738l41.453 24.872 82.905 47.793 67.788 41.452 99.974 45.355 45.354 23.408 12.193 12.192 20.482 39.015 11.704 56.57 10.242 14.06M1650.293 1656.363l-41.26 2.733-29.656 5.517-88.28 22.07 1.38 22.76 7.586 12.414 17.242 14.483 6.207 11.035 8.966 5.518M1491.097 1686.683l-102.763 24.829-27.587 14.483-46.21 17.242-114.487-5.517-22.07 8.276-52.416 21.38-99.314 32.415" fill="none" stroke="#008345" stroke-linejoin="round"/><path d="M2601.488 936.996l39.312-45.519 24.14-28.966 6.896-12.415v-15.173l-15.863-34.484-73.796-18.621-60.574-23.248M2604.908 899.218l-125.324 63.657" fill="none" stroke="#0e4c90" stroke-linejoin="round"/><path d="M1804.608 1793.69l-.19-9.262 8.29-42.916 12.62-36.615 14.28-24.638 5.99-15.801 80.252-58.034 91.196-66.324 110.703-80.955 16.094-42.428 23.408-15.118 11.217-4.877M1782.234 1392.359l-272.376-47.331-20.482 17.556-18.532 10.73-33.163-.976-49.743 34.137-18.532 2.926-26.335-12.68-14.63 6.828-7.803 33.163-29.26 54.62-18.532 16.58h-32.187l-18.532 3.902-22.433 19.508-13.655 26.334-11.705 5.852-39.014-23.408-42.916-7.803-34.138-.975h-35.113M1828.575 1397.007l-5.64 2.076-111.26 40.016" fill="none" stroke="#008345" stroke-linejoin="round"/><path d="M1853.673 1397.21l-46.336-.488-25.11-4.363" fill="none" stroke="#008345" stroke-linejoin="round"/><path d="M2481.749 1074.088l-13.11 23.198-67.243 109.483-20.54 13.412-54.62 14.63-48.768 8.779-30.237-4.877-9.753-21.458-9.167-7.774-12.852-5.186-40.586 3.064" fill="none" stroke="#0e4c90" stroke-width="5" stroke-linejoin="round"/><path d="M2048.715 1058.35l-9.724 1.872-117.53-20.482-334.55-58.034-9.753 7.315-5.37 19.33M1803.93 1793.694l-4.39 5.364-44.866-4.877-76.078 13.655-24.384 45.355M1595.24 1663.234l-16.553-11.725-6.897-10.345-20-8.276-11.726-9.656-33.104-15.863-27.588-37.243-14.483-11.724-22.76 1.38-30.346-2.07-26.897-15.173" fill="none" stroke="#008345" stroke-linejoin="round"/><path d="M2186.27 1339.176l-8.777 59.009" fill="none" stroke="#008345" stroke-width="5" stroke-linejoin="round"/><path d="M2488.145 755.91v-9.754l-39.99-179.466h-29.26l-35.114-2.926-7.803-16.581 23.409-68.276 5.852-34.137-2.926-32.187-17.556-25.36-13.655-12.68-9.754-35.112-45.842-27.31-18.532-11.705-37.064-18.531-9.753-7.803-46.818-23.409-16.58-17.556-24.385-44.867-11.704-78.029M2175.492 1397.962l-.657 3.026 32.902 23.11 12.184 16.027 53.157 45.842 129.235 115.58 119.482-1.463v12.68l93.634-1.463-1.463-51.694-92.625 1.048.454 39.43" fill="none" stroke="#008345" stroke-linejoin="round"/><path d="M2481.749 1074.088l5.266-.755 16.538 10.566-9.892 18.775 83.948 50.459-25.09-.74-65.35-39.501 7.316-12.192" fill="none" stroke="#0e4c90" stroke-linejoin="round"/><path d="M1214.189 1594.955l-.84 4.483 10.495 8.937M1711.675 1439.1l-188.162 68.813-41.94 14.63-29.261 12.68-65.35 5.852-82.905 30.236-36.088 9.754-45.842 12.68-9.754.975-10.254-5.282-18.621-24.14-6.207-2.758M1992.204 1525.01l-5.394 7.287 47.645 54.748 4.184 4.942-.516 4.862" fill="none" stroke="#008345" stroke-linejoin="round"/><path d="M1990.223 1527.42l117.043-127.284-10.192-30.578 2.39-5.998M1906.977 1367.36l19.311 53.105 5.382 1.984 136.535-48.372M1828.575 1397.007l78.402-29.648M1568.777 1022.617l-3.126-3.106-2.701.72-11.161 2.976-4.18.984" fill="none" stroke="#008345" stroke-linejoin="round"/><path d="M1547.897 1024.134l-4.58 3.786-5.386-2.302M1572.134 1007.344l-6.552 12.07M1980.36 2016.505l2.548-4.818 2.214-4.025M1931.702 1422.569l-18.044 6.827-7.316-10.729h-51.206l-16.581 20.97-.976 2.439 2.926 11.217-77.053 26.822-10.241 8.29-84.37 106.315-45.353 57.546-8.779 6.34" fill="none" stroke="#008345" stroke-linejoin="round"/><text style="-inkscape-font-specification:Sans" y="131.96074" x="29.453178" font-size="143.99993896px" font-weight="400" font-family="Sans"><tspan y="131.96074" x="29.453178">1920</tspan></text><path d="M1509.858 1345.515c-1.95 0-151.668-20.97-151.668-20.97l-143.378 71.201h-142.403l-29.26-20.97-28.898-5.772-10.814 5.338-9.82 3.473-13.248-2.273-101.285-65.147-26.38-7.586-1.633-29.09-27.379-14.523-13.167-71.69-.488-27.31" fill="none" stroke="#008345" stroke-linejoin="round"/><path d="M2047.247 1058.359l22.471 6.74 96.564 65.35 25.36 11.216 13.167 17.557 27.426-20.152 31.462 43.413-.865 28.943-17.546 9.73 5.852 12.68-22.433 37.064-27.31 35.113-15.606 33.162-29.26-.975-211.099 74.782-9.398.516-23.343-4.097h-29.71l-6.499-2.704-9.745-7.805-5.463-2.791-14.81.17" fill="none" stroke="#008345" stroke-width="5" stroke-linejoin="round"/><path d="M2480.794 997.689l58.623-28.967 132.42-68.279 173.093-83.08 74.434-31.425 13.474-12.785" fill="none" stroke="#0e4c90" stroke-linejoin="round"/><path d="M2293.22 1345.492l4.73-10.217 32.187-19.995 14.63-14.63 3.414-19.02.488-10.73-4.877-93.146-.488-35.6-6.34-19.02-18.044-12.68-24.872-8.778-10.24-3.902L2266 1110.39l-11.4 12.35" fill="none" stroke="#ef8b22" stroke-width="5" stroke-linejoin="round"/><path d="M1787.836 1594.72l-11.704-.975-58.522-33.163-8.778-6.827-5.852-.976M2971.849 99.72L3030.472-.284l27.278-35.826 47.5-64.25 61.25-77.5 95.25-112 54.006-64.573M2149.695 111.197l4.877-54.62 6.827-25.36-1.95-33.162-9.486-27.416 1.754-138.873 39.276-86.269 21.967-54.336 3.968-18.846 9.67-92.246" fill="none" stroke="#008345" stroke-linejoin="round"/><path d="M2262.826 1211.426l-.477 19.972-11.217 2.439" fill="none" stroke="#008345" stroke-width="5" stroke-linejoin="round"/><path d="M2288.969 985.454l8.005-9.112 38.039-51.694 73.152-112.167 39.014-24.871 32.675-24.872 74.615-59.01 107.29-80.954 97.536-111.68 20.482-48.28 54.133-109.24 72.176 2.926 4.877-3.414 10.73-20.97 8.29-5.364 33.162-1.463 101.437-4.39-3.827 7.803-21.458 57.332-16.597 60.687-5.695 32.493-39.32-2.124-40.111-20.823-7.674 1.092-16.01 9.845-18.343 3.265-18.97 1.454-13.175-6.374-9.385.208-20.95 8.382-10.506-1.356-36.444-22.648" fill="none" stroke="#008345" stroke-linejoin="round"/><path d="M2537.4 716.408l9.266-28.773 27.31-44.379-10.241-16.093-45.355-52.182-5.364-6.34 5.852-30.236 19.507-2.926 45.355-5.852 5.852-22.433-3.414-35.601-5.852-15.118-13.069-18.844-.038-16.226-14.405-10.56-9.956-15.372-5.37-22.534M2833.91 353.574l48.969-89.019 56.554-104.142 32.415-60.692M2758.046 512.152l18.618 5.448 12.365.214 8.125-5.674 9.17-12.403 95.866 49.658 66.21 62.071 44.14 34.484 26.208 23.45 9.655 6.896 18.622 8.966 33.794 16.553 26.898 8.966M2806.324 499.737l-20.794-31.179-4.34-2.356-3.843 2.604" fill="none" stroke="#008345" stroke-linejoin="round"/><path d="M1956.086 1705.91l3.965-.16 7.374 1.667 8.427-28.09" fill="none" stroke="#ef8b22" stroke-width="5" stroke-linejoin="round"/><path d="M2872.269 811.604l11.667 1.767 73.893 37.477 11.667 3.536 13.081.707 37.34.476" fill="none" stroke="#84276b" stroke-width="5" stroke-linejoin="round"/><path d="M2136.744 1346.34l-4.849 5.368-65.35 23.497-14.798 14.383-29.824 30.543-75.103 86.807-15.606 11.704-213.603 115.093-5.895 2.969-27.782.17-11.81 2.73-11.084 8.761-10.747 7.998 20.5 57.351-18.044 39.015-5.852 29.26 8.778 60.473-1.463 10.73-26.335 47.304.488 40.477L1623 1979.5l-11.704 23.896.975 37.552 5.365 16.581" fill="none" stroke="#008345" stroke-linejoin="round"/><path d="M2174.873 1207.359h-51.27l-113.958-13.67-48.416-5.075" fill="none" stroke="#0e4c90" stroke-linejoin="round"/><path d="M1907.806 1370.387l-44.867-124.846-12.68-19.507-75.863-56.102-34.291-28.278-124.908 57.07" fill="none" stroke="#008345" stroke-linejoin="round"/><path d="M1671.601 1372.742l-6.66-8.207 6.827-66.325 50.33-67.267 47.187-62.338-.224-2.868M1740.105 1141.654l-42.507-34.947-54.037-28.518-36.088-41.921-24.283-11.15-14.412-2.5" fill="none" stroke="#008345" stroke-linejoin="round"/><path d="M1754.887 1153.884l.023 4.2-71.39 91.34-.585 6.627 9.828 8.299-.17 5.542M2225.622 1053.772l24.128-25.737 39.22-42.581-8.548-9.835-5.108-10.856-5.563-5.007-50.347-21.38-111.345-75.038" fill="none" stroke="#008345" stroke-linejoin="round"/><path d="M2225.66 1034.653l3.844-6.374-.874-7.424-7.643-7.861-16.814-16.814-13.007-12.266" fill="none" stroke="#008345" stroke-width="1px" stroke-linejoin="round"/><path d="M1967.405 1695.06l-5.673-1.607-.88-1.188 3.056-5.644 18.207-16.828 27.274-43.237 28.734-29.707 32.295-33.414 49.965-46.1 30.414-19.676 19.986-23.214-1.427-4.345-3.491-1.628-31.773-14.262-2.158-5.66M2233.088 1142.153l.291-7.434 7.419-5.459.821-2.945-11.192-14.256-4.22-33.257-.921-18.092.374-26.057-1.581-6.095-20.628-22.15-12.285-22.494-43.759-48.674-33.512-47.861-5.836-24.041-22.671-18.24-9.343-11.512" fill="none" stroke="#008345" stroke-linejoin="round"/><path d="M2225.161 1057.917l29.004 58.894-1.78 3.879-11.588 8.57" fill="none" stroke="#008345" stroke-linejoin="round"/><path d="M1634.07 2147.213l88.417-125.773 132.96-181.454 65.946-70.168 17.136-51.715 17.557-12.192 10.241-17.556 18.044-16.581 27.31-43.404 59.985-61.935 50.719-46.818 30.236-19.507 20.97-24.384 14.63-36.576 9.61-23.041 10.838-51.77 4.424-19.311 1.951-18.532 8.778-13.655 38.04-50.719 4.876-16.581 1.95-64.374-32.368-44.963 18.28-13.465 2.872-5.945-29.26-59.497-6.828-27.31-20.483-21.946-12.192-22.433-43.403-48.28-34.138-48.769-5.852-23.896-21.979-17.43-12.7-15.971 16.497-15.047 43.504-75.685 57.749-103.355" fill="none" stroke="#ef8b22" stroke-width="5" stroke-linejoin="round"/><path d="M2236.32 1136.204l-5.957-1.839-6.331 4.531" fill="none" stroke="#ef8b22" stroke-width="5" stroke-linejoin="round"/></svg>