<svg xmlns="http://www.w3.org/2000/svg" width="3200" height="3750" viewBox="-25, -75, 3200, 3750"><path d="M1874.643 2649.085l20.483-6.828 14.63-.975 39.99 9.754 109.24-37.064 53.645-9.754 26.335.976 25.36-.976 21.457-6.827 20.483-17.557 47.792-45.842.976-21.458-16.582-50.718-40.965-79.004-19.507-118.994-9.753-54.62 6.827-32.188 19.507-18.532 38.04-13.654h25.359l20.482-3.902 9.754-13.655 2.926-19.507 14.63-97.536 12.68-37.064 15.606-56.57-.976-89.734-13.654-38.04-19.508-25.358-32.187-37.064-.975-9.754 9.754-18.532v-41.94l-4.877-164.836 7.803-18.532 47.792-84.856 2.926-15.606-6.827-15.606-50.719-28.285-35.113-32.187-58.522-43.891-39.99-35.113-15.605-6.828-102.413-12.68-229.21-23.408-15.605-6.828-77.054-63.398-53.645-28.286-36.088-41.94-25.36-11.704-14.63-2.439" fill="none" stroke="#e02826" stroke-width="4.99999094" stroke-linejoin="round"/><path d="M2215.458 1204.295l12.852 5.186 9.167 7.775 9.754 21.457 30.236 4.877 48.768-8.778 54.62-14.63 20.54-13.413 67.243-109.483 7.578-12.73" fill="none" stroke="#0e4c90" stroke-width="4.99999094" stroke-linejoin="round"/><path d="M1806.855 1902.934l-2.438-118.506 8.29-42.916 11.217-36.088 19.02-32.187 19.507-21.946 63.398-44.866 91.197-66.325 110.703-80.955 16.094-42.428 23.408-15.118 11.217-4.877M1782.234 1392.359l-272.376-47.331-20.482 17.556-18.532 10.73-33.163-.976-49.743 34.138-18.532 2.926-26.335-12.68-14.63 6.828-7.803 33.162-29.26 54.62-18.532 16.581h-32.187l-18.532 3.902-22.433 19.507-13.655 26.334-11.705 5.853-39.014-23.41-42.916-7.802-34.138-.975h-35.113" fill="none" stroke="#008345" stroke-width=".99999815" stroke-linejoin="round"/><path d="M1931.214 1518.642l-213.604 115.092-18.532 4.877h-19.507l-18.532 9.754-9.753 10.728 19.507 54.62-18.044 39.015-5.852 29.261 8.778 60.472-1.463 10.73-26.335 47.304.488 40.478L1623 1979.5l-11.704 23.896.975 37.551 8.779 27.31 2.258 51.193 12.372 5.866 12.221.426M1711.675 1439.1l-188.162 68.813-41.94 14.63-29.261 12.68-65.35 5.852-82.905 30.236-36.088 9.754-45.842 12.68" fill="none" stroke="#008345" stroke-width=".99999815" stroke-linejoin="round"/><path d="M1827.72 1396.828l-142.028 51.576M2022.898 1385.993l1.95 14.63-2.926 19.507-75.103 86.807-15.605 11.705-23.21 12.505M2186.27 1339.176l-8.777 59.009" fill="none" stroke="#008345" stroke-width="4.99999094" stroke-linejoin="round"/><text x="64.453178" y="131.96074" style="-inkscape-font-specification:Sans" font-size="143.99993896px" font-weight="400" font-family="Sans"><tspan x="64.453178" y="131.96074">1950</tspan></text><text x="64.453133" y="3572.9609" style="-inkscape-font-specification:Sans" font-size="143.99993896px" font-weight="400" font-family="Sans"/><path d="M1223.845 1608.375l-10.496-8.937.84-4.483 7.938-1.21M1509.858 1345.515c-1.95 0-151.668-20.97-151.668-20.97l-143.378 71.201h-142.403l-29.26-20.97-28.898-5.772-10.814 5.338-9.82 3.473-13.248-2.273-101.285-65.147-26.38-7.586-1.633-29.09-27.379-14.523-13.167-71.69-.488-27.31" fill="none" stroke="#008345" stroke-width=".99999815" stroke-linejoin="round"/><path d="M2262.826 1211.426l-.477 19.972-11.217 2.439" fill="none" stroke="#008345" stroke-width="4.99999094" stroke-linejoin="round"/><path d="M2040.454 1056.32l29.261 8.78 96.56 65.348 25.366 11.217 13.168 17.557 27.425-20.152 31.457 43.412-.865 28.943-17.546 9.732 5.852 12.68-22.433 37.063-27.31 35.113-15.606 33.163-29.26-.976-211.093 74.782-9.398.516-23.35-4.096h-29.704l-6.498-2.705-9.745-7.805-5.463-2.79-53.932.62-25.112-4.363" fill="none" stroke="#008345" stroke-width="4.99999094" stroke-linejoin="round"/><path d="M2175.492 1397.961l-.657 3.026 32.902 23.11 12.184 16.028 53.157 45.842 129.235 115.58 119.482-1.463v12.68l93.635-1.463-1.463-51.694" fill="none" stroke="#008345" stroke-width=".99999815" stroke-linejoin="round"/><path d="M1634.07 2147.213l88.417-125.773 132.96-181.454 65.946-70.168 17.136-51.715 17.557-12.192 10.241-17.556 18.044-16.581 27.31-43.404 59.985-61.935 50.719-46.818 30.236-19.507 20.97-24.384 14.63-36.576 6.34-42.428 3.902-11.704 14.63-39.99 1.951-18.532 8.778-13.655 38.04-50.719 4.876-16.581 1.95-64.374-32.368-44.963 18.28-13.465 2.872-5.946-29.26-59.497-6.828-27.31-20.483-21.945-12.192-22.434-43.403-48.28-34.138-48.768-5.852-23.896-21.978-17.43-12.701-15.971 16.497-15.047 43.504-75.685 57.749-103.355" fill="none" stroke="#ef8b22" stroke-width="4.99999094" stroke-linejoin="round"/><path d="M1956.086 1705.91l3.965-.16 7.374 1.667 8.427-28.09" fill="none" stroke="#ef8b22" stroke-width="5" stroke-linejoin="round"/></svg>