<svg xmlns="http://www.w3.org/2000/svg" width="3550" height="3000"><text x="89.453125" y="206.96094" style="line-height:125%;-inkscape-font-specification:Sans" font-weight="400" font-size="143.99993896px" font-family="Sans" letter-spacing="0" word-spacing="0"><tspan x="89.453125" y="206.96094">1975</tspan></text><path d="M1517.677 1229.079l14.325 17.714 2.528 5.9.702 6.32 2.107 4.072 2.669 1.545 26.685-1.826 7.584 2.388 8.286.14 12.975-.502 3.178 2.781 6.356 40.52 10.924 59.983" fill="none" stroke="#951881" stroke-width="5" stroke-linejoin="round"/><path d="M1615.996 1368.114l3.376 15.89 2.384 20.657 1.192 21.451 4.17 17.876 3.179 12.712 4.965 9.733 9.137 10.527M499.934 646.12l-2.98.199-12.513 13.208-3.277 9.534" fill="none" stroke="#951881" stroke-linejoin="round"/><path d="M1540.008 1264.63l-12.78 10.112-13.203 8.146-7.022 2.247" fill="none" stroke="#951881" stroke-width="5" stroke-linejoin="round"/><path d="M1391.696 1033.52l4.481-14.838 9.62-28.12 6.213-14.828 6.753-8.64 16.19-17.63 3.676-7.992 8.694-24.036 10.136-13.576 4.535-9.763.703-22.012.697-12.928 23.871-35.923 111.45-170.957 5.337-9.55 2.112-6.935 11.225-54.661 3.607-17.451 4.825-7.187 3.933-3.23 4.635-22.612-10.394-43.68.281-49.016-2.247-5.337-4.494-2.528" fill="none" stroke="#951881" stroke-linejoin="round"/><path d="M603.03 709.168L620 714.75l79.75 39.5 17 3.5 113.75 62.5 33.435 16.304" fill="none" stroke="#951881" stroke-width="5" stroke-linejoin="round"/><path d="M603.03 709.168l-85.022-45.57-43.498-41.511-9.931-4.767-1.788-1.39 1.788-13.904-.398-26.417.795-2.78 5.76-5.364.596-2.582-25.821-23.636-8.74-10.328-7.349-3.774-14.698-1.192-13.307-2.185-23.04-6.951-27.013-1.987" fill="none" stroke="#951881" stroke-linejoin="round"/><path d="M1375.179 1121.888l3.32 13.862 41.25 80 17.25 21.75 3.5 11.75-3 46.25 1.25 12.75 10.5 38.25 12.75 20 12 12.5 24.25 20.25 77 51L1613 1471l34 15.5 19.25 10.5 10 10 5.25 5.75 6.75 1 12-2 18.25-4.75 13.25.25 13 4.25 11.5 9 45.25 58 39.75 44.25 37.75 38.75 59.75 79.5 5.75 5.75 24.5 16.75 8.75 7.25 8.5 10.25" fill="none" stroke="#0166a5" stroke-width="5" stroke-linejoin="round"/><path d="M1378.634 1038.72l-.657 1.85 2.904 6.085 3.09 15.449-1.086 16.503-1.51 1.965-8.858-.194-1.6 2.004.426 9.45 9.048 38.912-3.358 4.289-61.04 12.323-1.544 3.09 4.775 22.19 16.152 49.718 20.645 24.298 20.084 16.994 11.658 19.803 2.528 3.23 38.482 14.747 7.23 2.107 8.5.562 15.31-3.651 47.19-15.309M482.818 664.25l-2.637.457-8.698-3.58-1.826-3.231-7.444-6.882-5.477-1.686-3.23 2.107-19.102 69.522-.983 18.258.422 19.382 2.387 16.572 15.45 53.37 2.808 1.405 6.602-2.107" fill="none" stroke="#951881" stroke-linejoin="round"/><path d="M1319.506 1032.61l3.09 3.09-1.124 21.91 3.932 3.933 7.444 17.696-1.826 21.629 8.006 38.904-1.405 3.23M1431.299 1301.988l3.794 4.155 9.551 34.82v5.407l-2.949 5.478-8.005 5.899-2.388 4.775-4.916 29.634" fill="none" stroke="#951881" stroke-linejoin="round"/><path d="M1517.677 1229.079l-9.534-13.308-22.643-28.8-3.972-10.329-4.37-25.423-.397-29.595-9.646-16.261-10.674-13.483-8.005-7.163-9.62-4.916-6.04-5.267-1.011-4.655.731-12.35-7.77-22.684-1.08-6.518-1.796-1.929-13.836.195-14.727 6.055-14.654 6.072-14.56-.731-107.585-12.3-7.15-1.788-33.17-13.705-46.379-16.784-96.198-48.74-209.656-108.118" fill="none" stroke="#951881" stroke-linejoin="round"/></svg>