<svg xmlns="http://www.w3.org/2000/svg" height="2600" width="2100"><path d="M1175.805 1569.576l-40.678-52.754-3.56-9.152-5.933-22.02M1577.958 1428.095l-.84 13.219 4.958 46.398 4.322 16.907.636 6.737-1.653 11.314-4.957 11.186-6.356 7.119-6.61 4.83-35.34 14.237-12.584 6.23" fill="none" stroke="#00aeef" stroke-linejoin="round"/><path d="M1519.534 1566.271l-22.5 13.602-9.28 3.56-31.78 5.084-12.33-.636-18.305-3.559-13.22-.763" fill="none" stroke="#00aeef" stroke-width="5" stroke-linejoin="round"/><path d="M1412.119 1583.56l-9.28 1.27-6.356 4.068-13.22 11.314-9.28 10.424-5.212 4.067-46.144 7.627-39.025 7.5-13.856 1.78-20.34-15.254-29.364-26.822-2.923-.636-15.382 11.314-4.703-1.271-21.229-29.365M1135.127 1415.763l2.161-20.975-2.797-10.297-6.482-9.152-30.89-40.55-2.034-5.848-13.475-44.365-4.957-7.118-7.628-4.45-12.33-3.559-38.39-2.034-32.16-2.542-10.552-.763M1135.127 1415.763l.01 4.208 6.831 11.505 8.45 17.258 5.053 16.605-3.795 9.283-24.036 7.327" fill="none" stroke="#00aeef" stroke-linejoin="round"/><text style="line-height:125%;-inkscape-font-specification:Sans" y="206.96094" x="89.453133" font-weight="400" font-size="143.99993896px" font-family="Sans" letter-spacing="0" word-spacing="0"><tspan y="206.96094" x="89.453133">1955</tspan></text><path d="M1125.794 1485.997l2.066-4.303" fill="none" stroke="#00aeef" stroke-linejoin="round"/><path d="M640.763 1337.585l-17.617 25.763-8.951 30.64-7.574 57.15-.345 20.658-5.164 15.148-20.312 38.56-11.706 51.297M975.593 1264.11l-15.508.127-17.288 1.653-15.509.508-15.127-2.415-41.06-1.144-31.143 7.119-107.924 28.22-66.61 17.161-10.551 5.212-6.865 5.593-7.245 11.44" fill="none" stroke="#00aeef" stroke-width="5" stroke-linejoin="round"/></svg>