<?xml version="1.0" encoding="UTF-8" standalone="no"?>
<svg
   version="1.1"
   id="svg2"
   width="6700"
   height="4300"
   viewBox="0 -25 6700 4300"
   xmlns:xlink="http://www.w3.org/1999/xlink"
   xmlns="http://www.w3.org/2000/svg"
   xmlns:svg="http://www.w3.org/2000/svg"
   xmlns:rdf="http://www.w3.org/1999/02/22-rdf-syntax-ns#"
   xmlns:cc="http://creativecommons.org/ns#"
   xmlns:dc="http://purl.org/dc/elements/1.1/">
  <metadata
     id="metadata8">
    <rdf:RDF>
      <cc:Work
         rdf:about="">
        <dc:format>image/svg+xml</dc:format>
        <dc:type
           rdf:resource="http://purl.org/dc/dcmitype/StillImage" />
      </cc:Work>
    </rdf:RDF>
  </metadata>
  <defs
     id="defs6" />
  <path
     id="path838"
     d="m 4636.5,1281 34.44,-4.37 22.63,-5.66 41.72,-1.41 105.71,-31.11 15.2,-5.3 21.92,-14.5 12.02,-13.44 19.45,-27.58 20.51,-61.87 37.83,-121.98 2.47,-44.9 -5.3,-33.59 2.12,-21.21 11.31,-30.05 12.02,-31.47 9.19,-18.03 15.91,-17.68 14.14,-11.67 28.99,-15.56 27.22,-8.49 66.47,-15.91 16.62,-7.07 104.65,-61.52 39.95,-31.47 17.32,-9.19 22.63,-8.49 18.74,-18.74 11.31,-17.68 14.14,-30.05 13.08,-12.02 22.27,-12.37 22.98,-3.54 21.21,2.47 79.9,43.49 16.97,16.62 20.15,11.67 20.51,5.3 40.66,2.12 97.93,24.4 106.07,47.38 31.11,25.81 18.74,16.97 18.03,10.61 39.24,16.97 26.87,7.42 33.23,1.41 33.23,-6.72 24.75,-10.96 68.59,-36.77 21.57,-14.14 72.12,-70.71 14.14,-23.33 44.9,-78.49 19.09,-22.27 15.91,-6.01 21.21,-1.06 14.85,3.89 16.62,9.19 11.67,17.32 9.9,14.14 7.07,4.6 13.79,6.36"
     style="fill:none;fill-opacity:1;fill-rule:nonzero;stroke:#00866e;stroke-width:5;stroke-linecap:butt;stroke-linejoin:round;stroke-miterlimit:4;stroke-dasharray:none;stroke-opacity:1" />
  <path
     id="path840"
     d="m 2440.02,1508.56 -16.26,14.14 -6.72,17.68 -3.54,22.27 4.6,24.4 7.42,27.93 -1.41,15.2 -6.36,20.51 -14.14,15.56 -45.61,38.89 -32.88,19.8 -55.51,20.86 -45.25,26.16 -10.61,9.9 -25.81,31.82 -16.97,10.61 -19.45,6.36 -21.21,5.66 -20.51,11.31"
     style="fill:none;fill-opacity:1;fill-rule:nonzero;stroke:#00866e;stroke-width:5;stroke-linecap:butt;stroke-linejoin:round;stroke-miterlimit:4;stroke-dasharray:none;stroke-opacity:1" />
  <path
     id="path842"
     d="m 2095.66,1863.18 -10.96,28.64 -0.35,24.04 26.87,109.25 10.61,18.38 24.75,33.59 2.83,20.15 0.35,19.45 -7.07,15.91 -18.38,29.7 -13.08,16.97 -24.04,16.62 -35.36,35.36 -25.81,27.22 -11.67,6.01 -15.56,4.24 -27.58,2.47 -18.38,10.25 -11.67,16.97 -18.38,41.37 -8.84,13.44 -11.67,12.73"
     style="fill:none;fill-opacity:1;fill-rule:nonzero;stroke:#00866e;stroke-width:5;stroke-linecap:butt;stroke-linejoin:round;stroke-miterlimit:4;stroke-dasharray:none;stroke-opacity:1" />
  <path
     id="path963"
     d="m 2679.02,1413.81 31.11,-21.21 19.8,-7.07 26.52,4.24 34.29,15.2 19.09,1.77 22.27,-5.66 15.2,-13.44 14.5,-10.61 20.51,-4.95 77.07,3.89 20.51,-4.6 131.88,-63.99 17.68,-11.67 22.27,-21.57 17.68,-11.31 41.37,-17.68 24.04,-15.56 22.27,-16.97 94.75,-67.18 12.02,-8.78 9.55,-2.53"
     style="fill:none;fill-opacity:1;fill-rule:nonzero;stroke:#00866e;stroke-width:5;stroke-linecap:butt;stroke-linejoin:round;stroke-miterlimit:4;stroke-dasharray:none;stroke-opacity:1" />
  <image
     xlink:href="../basemap/oslosm.png"
     style="display:none"
     y="8.28"
     x="50"
     id="image10"
     preserveAspectRatio="none"
     height="4230.13"
     width="6599" />
  <path
     style="opacity:1;fill:none;fill-opacity:1;fill-rule:nonzero;stroke:#00866e;stroke-width:5;stroke-linecap:butt;stroke-linejoin:round;stroke-miterlimit:4;stroke-dasharray:none;stroke-opacity:1"
     d="m 110,3801 20.75,13.25 15.75,12.25 26.75,26.75 10.5,4 H 197 l 40,-7 31.5,-12.25 15,-11.5 21,-21 15.5,-27 19.5,-24.5 35,-32.5 19.5,-15.5 103,-49 49,-26.5 35,-26 115,-102 21,-13.5 44,-23 41.5,-26.5 40,-31.5 96,-82.5 30.5,-20 29,-13.5 76.5,-22.5 43,-21 36,-25.5 547,-557 33,-37.5 59,-79.5 32,-48.5 74.5,-127.5 14.5,-26 6.5,-19.5 2,-35 4,-58.5 6,-38 11,-34.5 49,-145.5 21,-41.5 16,-28 98.5,-121 25.5,-38 15.5,-40 21.5,-62 12.5,-27 25,-34.5 25,-26 37,-27.5 33.5,-18 92,-35.5 48.5,-14.5 60,-3 27,-4.5 20,-8 103,-70 56,-24.5 44.5,-25.5 38,-36 20.5,-25.5 24.5,-24 52,-39.5 40.5,-20.5 23.5,-8.5 264.5,-72.5 32.5,-3 119,-4 11.5,3 33,13 17,4.5 15.5,0.5 26,-7 28,-9 18.5,-10.5 16.5,-13.5 16,-5.5 24,-4 19,-12.5 86.5,-74.5 15.5,-10 24.5,-3 24,7 79.5,45 20.5,6.5 20,2.5 70.5,-7.5 21.5,2.5 76,23 66,32 27,4.5 46.75,12.25 54.75,26.75 49,8.75 113,52.75 132,46 50.5,11 20.5,2 24.5,1 13.5,-4.5 45.5,-23 31,-19 20,-9.5 28.5,-4.5 162,17 37,1 33.5,-4.5 33.5,-12 1206,-621.5 32,-12.5 66,-19 49,-14 36,-4 50,2.5 73.5,2 24,-6 19.5,-8"
     id="path836" />
  <path
     style="opacity:1;fill:none;fill-opacity:1;fill-rule:nonzero;stroke:#ef7d00;stroke-width:5;stroke-linecap:butt;stroke-linejoin:round;stroke-miterlimit:4;stroke-dasharray:none;stroke-opacity:1"
     d="m 2406.79,1141.93 15.91,17.32 14.85,14.14 14.14,7.78 22.98,10.25 19.8,8.13 10.61,10.25 7.42,10.25 2.47,7.07 1.06,14.5 3.89,9.9 9.55,9.9 9.9,4.24 10.25,4.24 9.9,-1.41 14.14,-6.01 28.28,-18.38 32.53,-13.79 16.97,-6.36 32.17,-7.42 85.91,-56.92 16.97,-12.02 37.83,-32.88 13.79,-2.47 13.08,5.3 10.96,10.25 9.9,5.3 11.67,-1.06 32.17,-7.42 14.85,-8.84 13.44,-5.3 17.68,-2.83 13.79,2.83 32.17,14.5 15.2,10.96 11.67,3.89 11.67,-2.47 9.19,-5.3 19.09,-25.81 18.38,-13.79 57.28,-35 16.62,-6.36 23.69,-0.71 25.46,3.54 10.96,-3.54 14.5,-6.01 5.3,-3.54 8.84,-17.68 16.26,-21.57 45.96,-47.02 12.02,-4.24 12.37,0.71 12.02,2.83 20.86,-1.41 13.44,2.47 15.91,7.78 14.85,-0.71 11.67,-6.72 12.02,-9.19 8.84,-2.83 10.96,2.47 18.38,1.06 8.84,-4.24 8.13,-7.78 7.07,-9.9 11.31,-5.66 36.42,-1.77 11.31,-3.89 7.78,-4.24 9.19,-8.84 28.28,-39.24 8.49,-5.66 15.56,-5.3 17.68,-1.41 9.55,-4.6 11.31,-9.9 16.26,-20.51 18.38,-14.85 23.33,-39.6 7.07,-5.66 7.42,-2.83 30.41,6.36 7.07,5.66 14.14,18.03 12.73,7.07 77.78,36.42 25.1,7.07 44.55,18.38 13.79,5.3 14.14,-2.12 16.62,-4.24 9.9,1.77 6.72,6.01 52.33,66.82 62.93,71.06 5.3,10.61 15.56,42.78 14.5,44.9 7.07,16.62 6.72,11.31 7.78,5.66 45.96,21.92 28.28,6.72 24.04,4.24 20.15,9.19 7.25,3.54 27.05,3.18 13.26,-0.71 20.68,-9.37 10.61,-1.24 29.17,2.47 28.99,10.08 6.01,-0.53 11.14,-3.01 6.36,-3.01 3.89,-4.77 7.6,-12.9 5.13,-5.66 7.25,-4.42 14.32,-5.48 8.13,-9.55 23.33,-27.93 10.61,-6.01 17.32,3.18 11.31,9.55 8.84,22.27 7.42,10.96 25.1,15.56 12.02,4.6 27.22,-4.95 10.61,-1.41 30.41,6.36 18.03,6.72 13.79,7.42 9.9,8.84 8.13,20.86 7.42,7.78 8.84,4.95 46.32,3.18 8.49,5.3 7.78,9.55 9.55,12.73 8.13,3.18 11.31,-1.77 14.14,-15.56 39.6,-21.21 39.95,-7.42 11.31,1.06"
     id="path898" />
  <path
     style="opacity:1;fill:none;fill-opacity:1;fill-rule:nonzero;stroke:#ef7d00;stroke-width:5;stroke-linecap:butt;stroke-linejoin:round;stroke-miterlimit:4;stroke-dasharray:none;stroke-opacity:1"
     d="m 4837.47,1246.58 17.32,15.56 7.07,14.5 0.35,12.73 -2.83,14.85 -7.78,22.27 -26.52,40.31 -14.85,19.45 -18.03,17.32 -20.86,16.62 -34.29,8.49 -15.2,8.13 -7.07,8.49 -1.41,13.08 7.78,32.88 v 32.53 l -2.83,15.2 -6.72,30.41 v 12.02 l 8.13,14.85 18.03,24.4 5.3,10.61 2.12,10.61 1.77,21.21 47.73,129.05 1.41,13.08 4.24,22.63 6.72,21.57 7.07,7.78 10.96,4.95 27.93,-0.35 20.86,5.66"
     id="path929" />
  <path
     style="opacity:1;fill:none;fill-opacity:1;fill-rule:nonzero;stroke:#ef7d00;stroke-width:5;stroke-linecap:butt;stroke-linejoin:round;stroke-miterlimit:4;stroke-dasharray:none;stroke-opacity:1"
     d="m 4961.92,1204.86 18.38,-1.06 9.9,-4.95 31.47,-38.89 38.54,-51.97 12.37,-11.31 25.1,-21.21 10.25,-15.56 32.88,-63.64 15.91,-18.03 20.51,-21.21 13.08,-8.49 22.63,-5.66 23.69,-6.72 20.86,-5.3 17.32,-9.19 99,-98.99 20.15,-20.15 20.86,-29.34 11.31,-21.92 19.45,-18.03 16.26,-13.79 10.25,-2.83 15.91,0.71 11.31,6.72 109.6,79.9"
     id="path931" />
  <path
     style="opacity:1;fill:none;fill-opacity:1;fill-rule:nonzero;stroke:#ef7d00;stroke-width:5;stroke-linecap:butt;stroke-linejoin:round;stroke-miterlimit:4;stroke-dasharray:none;stroke-opacity:1"
     d="m 3230,755 12,1.75 25.75,1.25 13.5,-3.5 7.75,-7.75 6.75,-23.5 6.5,-11.25 11.25,-14 18.5,-44.25 7.5,-10.5 12.75,-11 36,-23.25 12.75,-12.5 10.25,-13.25 6.25,-5.75 10.75,-2.5 7.5,0.75 11.5,6.75 7.25,8.5 5.25,10.25 31.5,34.75 11.25,5.75 23.5,7.75 14.75,2.5 15,2 37.25,-6.5 46.5,-7 h 18 l 16.25,6.5 13.75,8.25 33.75,31.5 9.75,16.5 4.25,19.75 3.75,16 12.12,13.62"
     id="path997" />
  <path
     style="opacity:1;fill:none;fill-opacity:1;fill-rule:nonzero;stroke:#ef7d00;stroke-width:5;stroke-linecap:butt;stroke-linejoin:round;stroke-miterlimit:4;stroke-dasharray:none;stroke-opacity:1"
     d="m 4538.36,1099.15 11.39,-13.4 2.25,-11.82 -1,-14.18 -4,-74 3.25,-24 5.5,-17.75 7.75,-10.75 12.25,-4.75 12.25,0.5 12.75,7.75 7.5,9.25 10.75,33.5 7.75,8.75 8.75,4.25 13.25,2 13.5,-5.75 32,-14.25 8.5,-5.75 15,-20.25 12,-11 12.5,-7 16,-4.5 33.5,-7.25 29,-8 8.75,-5.5 4.75,-5.5 11.75,-16.5 10.5,-8.25 44,-20 18.25,-10.25 16,-13.75 5.75,-7.25 9,-25 7.75,-16.5 12.5,-21 16,-17.5 33,-22.5 35,-29.75 24.25,-25.25 8.5,-15.25 9.75,-9.25 26,-19.25 6.5,-6.5 4.25,-16.25 v -8.5 l 5,-10.75 12,-6.75 39,-7.25 12.75,-6 8.25,-10 14.75,-36.5 8.56,-22.4 16.56,-16.29 24.7,-23.07 13.84,-24.43 12.76,-8.69 13.84,-2.44 54.56,-0.27 13.84,-3.8 53.48,-20.36 21.72,-1.9 16.02,0.81 75.19,16.29 19.82,3.8 57.28,2.17 12.22,-2.44 30.95,-11.13 5.43,-4.07 2.99,-8.96 10.32,-42.62 13.3,-44.25 3.53,-16.29 -2.44,-32.57"
     id="path1032" />
  <path
     style="opacity:1;fill:none;fill-opacity:1;fill-rule:nonzero;stroke:#ef7d00;stroke-width:5;stroke-linecap:butt;stroke-linejoin:round;stroke-miterlimit:4;stroke-dasharray:none;stroke-opacity:1"
     d="m 4010.86,850.6 -3.89,-11.67 -2.47,-15.56 -11.31,-24.4 -21.92,-34.29 -4.24,-13.79 v -17.68 l 3.54,-19.8 9.9,-18.38 14.5,-21.57 15.2,-11.67 6.01,-8.84 2.12,-8.49 -6.36,-7.42 -5.66,-2.47 -12.73,2.12 -8.49,-2.47 -24.04,-19.45 -21.21,-2.47 -17.68,-12.73 h -12.73 l -6.72,-4.6 -7.96,-12.9 -6.54,-12.9 -0.53,-6.19 1.77,-7.95 6.36,-4.42 24.4,-11.49 15.91,-6.54 14.32,-19.8 v -5.48 l -2.12,-4.42 -6.19,-3.71 -7.95,-0.71 -16.79,6.01 -6.54,0.35 -4.77,-3.89 -1.94,-5.66 v -5.83 l 3.54,-14.85 -5.13,-37.65 -3.01,-4.42 -7.07,-5.13 -18.38,-5.3 -5.66,-5.13 -6.01,-10.08 -5.3,-4.24 -7.78,-0.35 -3.89,1.59 -4.6,5.13 -4.07,8.13 -4.6,4.07 -7.96,1.06 -6.89,-1.59 -7.42,-3.01 -9.02,2.3 -2.83,2.47 -4.95,6.72 -4.24,2.47 -14.67,6.01 -6.36,5.48 -9.72,12.55 -28.64,20.15 -7.95,1.41 -7.07,-1.94 -4.6,-3.54 -6.36,-12.2 -6.19,-3.18 -4.95,-0.18 -5.66,2.12 -6.72,-0.35 -20.68,-18.92 -5.3,-2.83 -15.91,-8.66 -13.79,-31.64 4.07,-22.8 -2.47,-12.02 3.36,-11.67 -1.41,-6.54 -5.13,-6.01 -4.24,-1.59 -27.58,-2.12 -6.01,-2.3 -7.25,-7.25 -11.67,-26.34 -13.61,-15.91 -15.03,-46.32 -6.01,-33.23 v -12.9 l 3.71,-16.62 10.25,-25.28 3.89,-3.89 6.19,-1.06 5.3,1.77 6.36,1.59 5.83,-0.35 5.3,-3.89 2.12,-6.19 -1.41,-4.95 -8.84,-12.37 -1.06,-6.54 4.24,-6.89 8.84,-2.65 8.84,2.3 7.96,2.3 6.72,-2.83 6.54,-4.24 h 4.6 l 4.77,1.59 9.02,8.13 14.5,10.61 10.78,6.54 13.61,4.77 19.09,0.35 14.67,8.49 32.35,1.41 15.38,5.13 7.25,-1.24"
     id="path1034" />
  <path
     style="opacity:1;fill:none;fill-opacity:1;fill-rule:nonzero;stroke:#ef7d00;stroke-width:5;stroke-linecap:butt;stroke-linejoin:round;stroke-miterlimit:4;stroke-dasharray:none;stroke-opacity:1"
     d="M 4004.49,823.38 4010.25,804.5 4018.5,788.75 4037,774 l 31.5,-40.25 10,-24.5 6.5,-9.25 14.5,-12 12.25,-6 28.5,-8.75 11.5,-5.5 25,-18.25 22.25,-22.25 33.25,-37.25 18.75,-12.5 27.75,-4.25 44,-1.5 12,-6.75 6,-8.25 1.5,-11.5 -11.5,-42.25 -20,-29.25 -5.25,-5.25 -8.75,-3.25 -16.75,-3.5 -11,-9 -11.25,-16.25 -10,-6.75 -27.25,-14.5 -9,-9.5 -4.5,-14.25 -9.75,-67.5"
     id="path1070" />
  <path
     style="opacity:1;fill:none;fill-opacity:1;fill-rule:nonzero;stroke:#ef7d00;stroke-width:5;stroke-linecap:butt;stroke-linejoin:round;stroke-miterlimit:4;stroke-dasharray:none;stroke-opacity:1"
     d="m 4251,577.5 27,0.75 138.75,16.25 96.5,32 16,12.25 7.25,12.25 33.5,155.25 5.5,17.75 18.75,33 4.5,14.25 V 889 l -3.75,17.5 -8.5,11.25 -10.75,10.75"
     id="path1072" />
  <path
     style="opacity:1;fill:none;fill-opacity:1;fill-rule:nonzero;stroke:#00a2e0;stroke-width:5;stroke-linecap:butt;stroke-linejoin:round;stroke-miterlimit:4;stroke-dasharray:none;stroke-opacity:1"
     d="m 3829.49,1016.95 -1.94,-1.24 -15.38,-5.48 -15.2,-5.3 -9.19,-8.13 -8.49,-10.25 -6.01,-2.12 -10.96,0.88 -14.14,-5.48 -40.66,-21.04 -6.72,-0.18 -5.66,3.36 -6.54,8.31 -6.72,5.66 -21.92,10.08 -8.66,0.18 -12.02,-2.83 h -3.89 l -16.44,3.36 -3.71,1.06 -5.83,7.95 -7.78,25.28 -4.95,4.6 -17.85,7.07 -23.16,16.44 -8.13,4.24 -19.98,1.94 -21.39,-6.72 -10.08,-12.2 -6.19,-2.65 -10.78,0.35 -14.67,2.47 -10.78,6.54 h -8.66 l -12.9,-1.77 -14.67,-6.19 -14.85,-13.97 -6.32,-14.94 0.75,-25 -10.02,-21.38 L 3375,956.5 l -22,2.25 -12.75,-4 h -10.5 l -9.75,4.25 -25.5,26 -18.22,19.23 -16.15,20.9 -9.37,18.87 -6.65,4.75 -14.52,5.7 -13.3,4.48 -25.65,-3.66 -22.67,0.81 -15.34,5.7 -57.28,35.15"
     id="path1186" />
  <path
     style="opacity:1;fill:none;fill-opacity:1;fill-rule:nonzero;stroke:#00a2e0;stroke-width:1;stroke-linecap:butt;stroke-linejoin:round;stroke-miterlimit:4;stroke-dasharray:none;stroke-opacity:1"
     d="m 3829.49,1016.95 11.26,8.05 15.5,12 10.25,12.5 6.75,4.5 17.5,7.5 11.5,7 3.5,6.25 4.75,8 4.5,3.5 9.25,4.5 6.75,3.25 8.25,13.75 2,6.25 -0.25,9.5 5.25,9.5 5.75,6 5,4.75 9.75,9 19.75,10 40,2 4,-1.5 24.25,-18 40.75,-16.5 30.25,-3.75 53.88,3.5 4.88,2.25 9.62,10.5 46.38,23.25 2.38,3.25 1.75,5 4.75,3 17.52,8.58"
     id="path1265" />
  <path
     style="opacity:1;fill:none;fill-opacity:1;fill-rule:nonzero;stroke:#00a2e0;stroke-width:1;stroke-linecap:butt;stroke-linejoin:round;stroke-miterlimit:4;stroke-dasharray:none;stroke-opacity:1"
     d="M 4266.9,1184.33 4315.38,1208 m 251.38,-480.5 -4.93,-15.9 M 4394.12,1085.5 l -17.17,26.49 0.22,4.07 5.41,4.08 7.48,3.73 0.46,3.17 -2.36,4.92 -8.17,7.86 -4.21,5.96 -1.54,4.61 -41.76,13.46 -2.75,4.02 -1.58,2.69 -4.42,2.39 -1.12,-0.11 -11.43,-1.22 -4.42,-5.13 -2.41,-2.63 -8.75,-2.25 -2.62,2.62 -2.88,0.25 -6.88,-4.75"
     id="path1267" />
  <path
     style="opacity:1;fill:none;fill-opacity:1;fill-rule:nonzero;stroke:#00a2e0;stroke-width:5;stroke-linecap:butt;stroke-linejoin:round;stroke-miterlimit:4;stroke-dasharray:none;stroke-opacity:1"
     d="m 4566.75,727.5 7.75,26.62 8.25,10.88 0.12,3.75 -5.88,5 -0.12,4 4,6.88 v 7.25 l -13.88,11.88 -10.12,11.75 -9.38,14.62 -5,17.5"
     id="path1349" />
  <path
     style="opacity:1;fill:none;fill-opacity:1;fill-rule:nonzero;stroke:#00a2e0;stroke-width:1;stroke-linecap:butt;stroke-linejoin:round;stroke-miterlimit:4;stroke-dasharray:none;stroke-opacity:1"
     d="m 4542.5,847.62 -0.88,6.12 -5.5,69.88 -11.75,31.5 -3.88,8.38 -0.62,8 -30.62,36.25 -4.12,5.75 -11.75,20.12 -13.5,14.12 -65.75,37.75"
     id="path1351" />
  <path
     style="opacity:1;fill:none;fill-opacity:1;fill-rule:nonzero;stroke:#00a2e0;stroke-width:5;stroke-linecap:butt;stroke-linejoin:round;stroke-miterlimit:4;stroke-dasharray:none;stroke-opacity:1"
     d="m 4708.77,2069.65 -3.54,-30.76 4.24,-25.81 -2.83,-12.73 -13.44,-57.98 -11.67,-24.04 -21.92,-19.09 -4.95,-11.67 -8.84,-34.29 -8.49,-35.71 -28.99,-67.53 -26.87,-110.31 -10.96,-15.91 -13.08,-20.86 -21.21,-20.51 -6.01,-1.41 -10.25,-0.35 -13.08,-4.95 -12.02,-10.96 -20.15,-35 -25.1,-34.29 -20.51,-15.56 -12.73,-19.45 -3.54,-10.25 -3.54,-25.81 -9.02,-27.22 -7.95,-3.36 -3.18,-4.07 0.88,-10.61 -1.24,-7.07 1.59,-5.3 3.54,-3.71 7.42,-5.66 10.78,-4.07 10.78,-3.71 7.78,-3.01 12.02,-9.37 4.77,-2.12 5.48,-2.12 2.12,-2.12 0.88,-5.83"
     id="path1394" />
  <path
     style="opacity:1;fill:none;fill-opacity:1;fill-rule:nonzero;stroke:#00a2e0;stroke-width:1;stroke-linecap:butt;stroke-linejoin:round;stroke-miterlimit:4;stroke-dasharray:none;stroke-opacity:1"
     d="m 4455.98,1325.07 0.35,-4.77 -0.88,-16.62 -4.24,-5.13 v -5.48 l 5.71,-17.92 -0.72,-2.08 -30.51,-10.6 L 4315.38,1208"
     id="path1396" />
  <path
     style="opacity:1;fill:none;fill-opacity:1;fill-rule:nonzero;stroke:#00a2e0;stroke-width:1;stroke-linecap:butt;stroke-linejoin:round;stroke-miterlimit:4;stroke-dasharray:none;stroke-opacity:1"
     d="m 4283.25,1159.75 -26.32,-19.06 -1.24,-3.36 -3.71,-19.45 -6.36,-2.12 -34.12,-19.27 -7.07,-7.07 -0.71,-5.3 -1.94,-19.8 6.54,-10.43 -0.35,-3.71 -16.62,-9.9 -3.18,-4.24 -4.24,-14.14 -0.88,-6.89 -0.88,-7.6 -8.13,-27.93 v -9.19 l 1.77,-9.19 31.82,-115.61 v -4.95 l -35.18,-51.09 -3.89,-9.72 -2.47,-30.94 -2.47,-6.19 -25.99,-15.91 -18.21,-19.8 -14.5,-10.78 -13.44,-13.97 -4.42,-2.65 -13.61,-0.88 -3.36,-2.83 -1.06,-3.36 0.18,-6.01 8.84,-25.1 -0.88,-4.42 -2.47,-2.65 -2.47,-1.06 -24.4,-5.83"
     id="path1402" />
  <path
     style="opacity:1;fill:none;fill-opacity:1;fill-rule:nonzero;stroke:#00a2e0;stroke-width:1;stroke-linecap:butt;stroke-linejoin:round;stroke-miterlimit:4;stroke-dasharray:none;stroke-opacity:1"
     d="m 4201.78,1064.33 -11.53,-15.07 -23.38,-13.25 -0.62,-3.75 17,-16.38"
     id="path1404" />
  <path
     style="opacity:1;fill:none;fill-opacity:1;fill-rule:nonzero;stroke:#00a2e0;stroke-width:1;stroke-linecap:butt;stroke-linejoin:round;stroke-miterlimit:4;stroke-dasharray:none;stroke-opacity:1"
     d="m 4101.75,1127.75 -2.62,-2.38 3.5,-33 9.75,-12.5 v -3.62 l -11.38,-5.75 -17.25,-1.5 -11,-20.25 1,-3.75 45.25,-52 4.43,-10.19 0.2,-2.17 -0.73,-1.85 -39.41,-43.91 -18.36,-21.98 -2.39,-1.64 -5.75,4 v 2.88 l 1.62,2 24.88,14.75"
     id="path1406" />
  <text
     x="89.45"
     y="181.96"
     id="text3817"
     xml:space="preserve"
     style="font-style:normal;font-weight:normal;font-size:144px;line-height:125%;font-family:Sans;-inkscape-font-specification:Sans;letter-spacing:0px;word-spacing:0px;fill:#000000;fill-opacity:1;stroke:none"><tspan
       x="89.45"
       y="181.96"
       id="tspan1">2020</tspan></text>
  <path
     style="opacity:1;fill:none;fill-opacity:1;fill-rule:nonzero;stroke:#ef7d00;stroke-width:5;stroke-linecap:butt;stroke-linejoin:round;stroke-miterlimit:4;stroke-dasharray:none;stroke-opacity:1"
     d="m 4594.25,857 9.84,23.86 11.4,10.32 26.06,18.19 6.24,5.7 4.89,13.3 3.26,26.6 3.53,8.69 8.14,7.87 6.51,2.99 7.06,1.09 L 4694.25,974.5"
     id="path843" />
  <path
     style="opacity:1;fill:none;fill-opacity:1;fill-rule:nonzero;stroke:#ef7d00;stroke-width:5;stroke-linecap:butt;stroke-linejoin:round;stroke-miterlimit:4;stroke-dasharray:none;stroke-opacity:1"
     d="m 4961.92,1204.86 10.61,6.01 6.01,10.96 2.47,9.9 8.13,74.25 1.06,21.57 0.71,21.21 -3.54,43.84 2.83,15.91 6.72,30.41 9.55,22.63 10.25,11.31 7.78,4.6 30.41,8.13 6.72,3.54 8.49,9.9 17.68,21.92 8.49,15.91 1.06,6.72 -1.06,10.61 -6.36,12.02 -9.19,22.63 -9.9,7.07 -12.37,5.3 -20.51,9.9 -8.13,9.19 -4.24,14.14 -1.06,24.4 2.12,21.21 6.01,25.81 -0.35,7.42 -4.24,43.84 0.71,23.69 -1.77,36.06 -8.84,36.77 -4.95,32.17 -1.41,27.22 5.3,45.96 0.35,14.5 -3.18,14.14 -5.66,11.31 -11.67,15.2 -21.92,12.73 -36.06,18.74 -16.97,17.68 -3.54,14.85 v 16.26 l 6.01,18.03 13.08,32.17"
     id="path898-3" />
</svg>
