<?xml version="1.0" encoding="UTF-8" standalone="no"?>
<svg
   xmlns:dc="http://purl.org/dc/elements/1.1/"
   xmlns:cc="http://creativecommons.org/ns#"
   xmlns:rdf="http://www.w3.org/1999/02/22-rdf-syntax-ns#"
   xmlns:svg="http://www.w3.org/2000/svg"
   xmlns="http://www.w3.org/2000/svg"
   xmlns:xlink="http://www.w3.org/1999/xlink"
   viewBox="0 -350 1750 2900"
   height="2900"
   width="1750"
   version="1.1"
   id="svg2">
  <metadata
     id="metadata8">
    <rdf:RDF>
      <cc:Work
         rdf:about="">
        <dc:format>image/svg+xml</dc:format>
        <dc:type
           rdf:resource="http://purl.org/dc/dcmitype/StillImage" />
        <dc:title></dc:title>
      </cc:Work>
    </rdf:RDF>
  </metadata>
  <defs
     id="defs6" />
  <image
     xlink:href="../../../streetmap/pvdosm.png"
     style="display:none"
     y="-304.4"
     x="-377.4"
     id="image10"
     preserveAspectRatio="none"
     height="3270.8"
     width="2264.4" />
  <text
     x="89.45"
     y="-143.04"
     id="text3809"
     xml:space="preserve"
     style="font-style:normal;font-weight:normal;font-size:12px;line-height:125%;font-family:Sans;-inkscape-font-specification:Sans;letter-spacing:0px;word-spacing:0px;fill:#000000;fill-opacity:1;stroke:none"><tspan
       x="89.45"
       y="-143.04"
       id="tspan1"
       style="font-size:144px">1950</tspan></text>
  <path
     style="fill:none;fill-rule:evenodd;stroke:#dfb0df;stroke-width:3;stroke-linecap:butt;stroke-linejoin:round;stroke-miterlimit:4;stroke-dasharray:none;stroke-opacity:1"
     d="m 644.72,884.69 -21.24,19.68 0.9,0.96 6.35,6.63 14.67,-13.28 -0.69,-14.0 12.14,-12.53 5.15,-4.55 -3.32,-7.87 2.55,-4.44"
     id="path5432-9" />
  <path
     style="fill:none;stroke:#00dd00;stroke-width:3;stroke-linejoin:round;stroke-opacity:1"
     d="m 647.43,877.46 0.92,21.98 -17.68,16.47 -11.17,-11.79 23.3,-21.48 15.73,-15.83 -3.02,-7.64 4.39,-6.92"
     id="path18169" />
  <path
     style="fill:none;fill-rule:evenodd;stroke:#dfb0df;stroke-width:3;stroke-linecap:butt;stroke-linejoin:round;stroke-miterlimit:4;stroke-dasharray:none;stroke-opacity:1"
     d="m 748.84,842.78 5.09,-0.73 -1.09,-9.29 10.35,-1.14 23.46,-3.76 101.77,-25.32 8.9,0.72 61.42,18.84 12.64,13.3 -3.13,13.04 -16.78,-4.57 -55.37,-13.86 -4.84,1.03 -64.61,15.47 -37.6,0.1 -23.64,3.17 -10.38,0.87 -1.1,-8.6"
     id="path18182" />
  <path
     style="fill:none;fill-rule:evenodd;stroke:#00dd00;stroke-width:3;stroke-linecap:butt;stroke-linejoin:round;stroke-miterlimit:4;stroke-dasharray:none;stroke-opacity:1"
     d="m 750.78,836.01 2.35,-0.26 11.11,-1.25 23.61,-3.97 100.5,-24.99 7.6,0.52 -6.07,22.4 -63.54,15.1 -38.04,0.17 -23.56,3.17"
     id="path2034" />
  <path
     style="fill:none;stroke:#dfb0df;stroke-width:3;stroke-linejoin:round;stroke-miterlimit:4;stroke-dasharray:none;stroke-opacity:1"
     d="m 928.24,814.2 13.25,-53.58 -13.2,-52.7 -25.35,-140.63 -2.0,-81.36 -3.17,-9.75 2.79,-9.61 4.86,11.34 1.87,9.95 1.77,68.51 0.05,11.45 25.12,138.39 9.28,37.41 0.13,4.72 -2.16,12.3"
     id="path10436" />
  <path
     style="fill:none;stroke:#00dd00;stroke-width:3;stroke-linejoin:round;stroke-miterlimit:4;stroke-dasharray:none;stroke-opacity:1"
     d="m 879.39,807.73 -28.63,-112.01 -7.35,-38.61 -2.62,-52.68"
     id="path4414-6" />
  <path
     style="fill:none;stroke:#dfb0df;stroke-width:3;stroke-linejoin:round;stroke-opacity:1"
     d="m 899.35,803.52 -7.23,27.29"
     id="path18784" />
  <path
     id="path4178"
     d="m 749.13,842.78 2.01,1.44 0.43,4.03 13.16,-1.35 -1.08,-10.59 -5.95,-58.1 -15.02,-23.36"
     style="fill:none;fill-rule:evenodd;stroke:#00dd00;stroke-width:3;stroke-linecap:butt;stroke-linejoin:round;stroke-miterlimit:4;stroke-dasharray:none;stroke-opacity:1" />
  <path
     id="path4180"
     d="m 748.84,842.78 2.01,-1.58 -0.46,-4.53 -7.71,-82.92 -2.97,-36.33 62.66,-169.99 55.62,-150.05"
     style="fill:none;fill-rule:evenodd;stroke:#00dd00;stroke-width:3;stroke-linecap:butt;stroke-linejoin:round;stroke-miterlimit:4;stroke-dasharray:none;stroke-opacity:1" />
  <path
     id="path4176"
     d="m 659.94,855.08 11.24,-4.07 78.81,-8.53"
     style="fill:none;fill-rule:evenodd;stroke:#000000;stroke-width:8;stroke-linecap:butt;stroke-linejoin:round;stroke-miterlimit:4;stroke-dasharray:none;stroke-opacity:1" />
</svg>
