<?xml version="1.0" encoding="UTF-8" standalone="no"?>
<svg
   xmlns:dc="http://purl.org/dc/elements/1.1/"
   xmlns:cc="http://creativecommons.org/ns#"
   xmlns:rdf="http://www.w3.org/1999/02/22-rdf-syntax-ns#"
   xmlns:svg="http://www.w3.org/2000/svg"
   xmlns="http://www.w3.org/2000/svg"
   xmlns:xlink="http://www.w3.org/1999/xlink"
   viewBox="0 -350 1750 2900"
   height="2900"
   width="1750"
   version="1.1"
   id="svg2">
  <metadata
     id="metadata8">
    <rdf:RDF>
      <cc:Work
         rdf:about="">
        <dc:format>image/svg+xml</dc:format>
        <dc:type
           rdf:resource="http://purl.org/dc/dcmitype/StillImage" />
        <dc:title></dc:title>
      </cc:Work>
    </rdf:RDF>
  </metadata>
  <defs
     id="defs6" />
  <image
     xlink:href="../../../streetmap/pvdosm.png"
     style="display:none"
     y="-304.39999"
     x="-377.39999"
     id="image10"
     preserveAspectRatio="none"
     height="3270.8"
     width="2264.3999" />
  <path
     style="fill:none;stroke:#999999;stroke-width:3;stroke-linejoin:round"
     d="m 656.86352,872.1591 5.14995,-4.55181 -3.3236,-7.86759 2.55235,-4.4389"
     id="path16678" />
  <path
     id="path4178"
     d="m 749.1278,842.77725 2.01346,1.4382 0.43145,4.0269 13.16426,-1.35145 -1.08352,-10.58545 -5.95218,-58.09751 -15.01589,-23.35805"
     style="fill:none;fill-rule:evenodd;stroke:#999999;stroke-width:3;stroke-linecap:butt;stroke-linejoin:round;stroke-miterlimit:4;stroke-dasharray:none;stroke-opacity:1" />
  <path
     id="path4180"
     d="m 748.84017,842.77725 2.01345,-1.582 -0.46229,-4.53222 -7.70623,-82.92493 -2.9661,-36.33474 62.6589,-169.9947 98.893,-266.81494 2.9661,-75.93221 -7.7119,-14.23729 -16.55262,22.01125 24.12481,0.40764"
     style="fill:none;fill-rule:evenodd;stroke:#999999;stroke-width:3;stroke-linecap:butt;stroke-linejoin:round;stroke-miterlimit:4;stroke-dasharray:none;stroke-opacity:1" />
  <text
     x="89.453186"
     y="-143.03893"
     id="text3809"
     xml:space="preserve"
     style="font-style:normal;font-weight:normal;font-size:12px;line-height:125%;font-family:Sans;-inkscape-font-specification:Sans;letter-spacing:0px;word-spacing:0px;fill:#000000;fill-opacity:1;stroke:none"><tspan
       x="89.453186"
       y="-143.03893"
       id="tspan1"
       style="font-size:144px">1975</tspan></text>
  <path
     style="fill:none;fill-rule:evenodd;stroke:#999999;stroke-width:3;stroke-linecap:butt;stroke-linejoin:round;stroke-miterlimit:4;stroke-dasharray:none;stroke-opacity:1"
     d="m 661.24222,855.30084 -5.71528,-0.36703 -7.105,3.36552 8.44158,13.85978 -12.14471,12.52892 0.68701,13.99694 -14.67057,13.27956"
     id="path5432" />
  <path
     id="path1527"
     d="m 764.73697,846.8909 23.56457,-3.17028 38.03554,-0.1685 63.53778,-15.09557 61.59134,15.41578 7.34653,-1.24036 12.69366,-14.80471 11.26995,-7.8115 11.81276,-2.845"
     style="fill:none;fill-rule:evenodd;stroke:#999999;stroke-width:3;stroke-linecap:butt;stroke-linejoin:round;stroke-miterlimit:4;stroke-dasharray:none;stroke-opacity:1" />
  <path
     id="path4176"
     d="m 659.94249,855.08288 11.23814,-4.06521 78.81008,-8.52802"
     style="fill:none;fill-rule:evenodd;stroke:#000000;stroke-width:8;stroke-linecap:butt;stroke-linejoin:round;stroke-miterlimit:4;stroke-dasharray:none;stroke-opacity:1" />
  <path
     id="path2034"
     d="m 750.77558,836.00564 13.45667,-1.51056 23.61287,-3.96963 100.50211,-24.99043 7.59513,0.52075 49.18216,12.95147 16.1827,3.25428 20.51871,-6.18932 14.49879,1.09995 33.05838,2.52952 10.466,7.45855 2.8963,9.20328 -3.1197,7.28772 -26.1978,20.32221 -0.5603,9.54456 83.1157,63.91289 -7.7562,27.50648 34.2108,-4.74426 43.161,17.03438 13.9955,-29.88747 -57.1565,12.85309 -26.4546,-22.7622"
     style="fill:none;fill-rule:evenodd;stroke:#999999;stroke-width:3;stroke-linecap:butt;stroke-linejoin:round;stroke-miterlimit:4;stroke-dasharray:none;stroke-opacity:1" />
  <path
     style="fill:none;stroke:#999999;stroke-width:3;stroke-linejoin:round;stroke-miterlimit:4;stroke-dasharray:none;stroke-opacity:1"
     d="m 889.87486,828.45655 6.0675,-22.40078"
     id="path4412" />
  <path
     style="fill:none;stroke:#999999;stroke-width:3;stroke-linejoin:round;stroke-miterlimit:4;stroke-dasharray:none;stroke-opacity:1"
     d="m 1039.6257,843.65122 16.8501,-8.43822 25.2135,-11.00817 8.1544,-0.15466 4.2949,2.23853 1.591,5.11135 -2.7635,4.45695 -8.9068,2.40035 -9.5276,-1.82609 -27.3249,-12.04699 -17.8237,-4.6826"
     id="path4502" />
  <path
     style="fill:none;stroke:#999999;stroke-width:3;stroke-linejoin:round;stroke-miterlimit:4;stroke-dasharray:none;stroke-opacity:1"
     d="m 1122.4379,960.1931 6.6019,-32.4664 26.7203,-57.6219 18.5748,-26.2246 10.827,-39.2166 24.2335,-42.817 -4.8787,-18.9937 -4.5564,-7.21812 -4.4024,-13.77564 0.067,-18.05674 -3.763,-15.71244 50.773,-38.59596 17.3571,-63.84821 10.9575,-22.75501 12.2552,-17.30935 -5.8559,-13.36783 2.0666,-78.8247 67.1028,62.03501 -8.3523,80.20885 -6.6781,39.56354"
     id="path1819" />
  <path
     style="fill:none;stroke:#999999;stroke-width:3;stroke-linejoin:round"
     d="m 1242.6349,649.494 23.0873,-11.31375 5.9102,9.72206 11.5125,-18.24274 8.3979,-2.13438 20.3118,8.47171 19.6332,-0.8006 22.5501,120.7635 49.6147,59.8054"
     id="path9708" />
  <path
     style="fill:none;stroke:#999999;stroke-width:3;stroke-linejoin:round;stroke-miterlimit:4;stroke-dasharray:none;stroke-opacity:1"
     d="m 928.24045,814.20274 13.2484,-53.57607 -13.2014,-52.70285 -25.34586,-140.62791 -2.00214,-81.35986 -3.16783,-9.75394 2.79494,-9.61361 4.86044,11.33705 1.86631,9.94715 1.76891,68.50693 0.0547,11.4471 25.11729,138.38781 9.28345,37.40772 0.1286,4.72408 -2.15741,12.30033"
     id="path10436" />
  <path
     style="fill:none;stroke:#999999;stroke-width:3;stroke-linejoin:round;stroke-miterlimit:4;stroke-dasharray:none;stroke-opacity:1"
     d="m 879.38697,807.73431 -28.63294,-112.00599 -7.35322,-38.6051 -2.61606,-52.67901"
     id="path4414-6" />
  <path
     style="fill:none;stroke:#999999;stroke-width:3;stroke-linejoin:round;stroke-miterlimit:4;stroke-dasharray:none;stroke-opacity:1"
     d="m 865.13609,1815.4458 9.1245,34.9413 7.9973,64.597 4.4416,19.0189 10.3458,22.4404 8.6346,6.8461 26.1555,15.6495 7.7189,8.3939 4.3466,10.323 2.2906,43.9811 -2.1336,6.5203 -4.5548,4.2936 -9.2977,2.2931 -69.683,0.4737 -7.3404,3.0978 -21.9168,17.1666 -11.9921,6.4191 -132.2221,28.0879 -20.7429,0.4924 1.2591,-7.922 8.5913,4.223 -0.2188,3.48"
     id="path3557" />
  <path
     style="fill:none;fill-rule:evenodd;stroke:#999999;stroke-width:3;stroke-linecap:butt;stroke-linejoin:round;stroke-miterlimit:4;stroke-dasharray:none;stroke-opacity:1"
     d="m 644.71881,884.68803 -21.23932,19.68049 0.9028,0.96311 38.8866,37.96246 2.696,33.10314 17.3401,32.38007 -5.6366,56.7596 -3.015,39.4564 -0.6554,58.8569 1.442,32.3778 27.1344,132.5264 20.06098,94.9037 72.53096,-17.6441 43.13819,176.9359 -86.41921,21.9658 2.19588,9.1402 32.9945,62.8277 23.7185,20.8796 32.0706,46.7135 18.6702,50.9035 3.6011,20.0655"
     id="path5432-9" />
  <path
     style="fill:none;stroke:#999999;stroke-width:3;stroke-linejoin:round;stroke-miterlimit:4;stroke-dasharray:none;stroke-opacity:1"
     d="m 630.73525,911.96453 -21.01532,30.79457 42.84366,31.1977 28.85281,53.3742"
     id="path1764" />

  <path
     style="fill:none;stroke:#999999;stroke-width:2.96562;stroke-linejoin:round;stroke-opacity:1"
     d="m 675.51438,1088.319 -11.21982,-3.8383 -5.65706,0.6055 -3.77137,2.7811 0.396,3.6769 4.71421,0.1388 0.31114,-6.7875"
     id="path1518" />
</svg>
