<svg xmlns="http://www.w3.org/2000/svg" width="3650" height="3650"><path d="M2140.148 3546.43L1944.44 3296.79l-23.988-48.148-6.549-19.653-7.795-46.685-76.691-465.771-52.813-331.774-3.051-43.159-6.243-202.929-17.31-335.926-2.54-62.207-.235-125.7-.878-37.38 4.201-44.126-1.051-16.706-22.819-53.967-13.66-16.472-14.964-10.85-36.49-19.9-13.948-11.932-32.312-41.16-17.93-58.946-13.898-33.508-8.61-28.484-26.694-52.441-2.441-18.859-11.428-106.272.545-14.94 5.305-14.95 7.517-8.488 16.061-7.02 68.8-9.724 22.083 1.354 10.439-4.551 7.548-5.7 9.237-17.358 6.585-36.257 7.736-16.955 12.956-16.506 52.793-43.843 7.573-2.572 13.913-1.165 104.641 25.594 75.437-.178 85.045 17.702 18.507 7.588 36.71 33.05 38.119 23.905 15.35 5.877 43.7 4.685 47.468-.11 55.104-12.908 362.407-73.714" opacity=".99918" fill="none" stroke="#1181b3" stroke-width="5" stroke-linejoin="round"/><text x="89.453133" y="206.96094" style="line-height:125%;-inkscape-font-specification:Sans" font-weight="400" font-size="144px" font-family="Sans" letter-spacing="0" word-spacing="0"><tspan x="89.453133" y="206.96094">2020</tspan></text><path d="M165.292 3055.977l-.958-132.701v-65.599l32.51-166.027 29.025-81.273 5.225-33.67 15.818-106.252 12.627-65 12.771-30.187 45.28-80.692 2.323-17.996-3.483-24.962-10.45-21.48-17.996-16.834-110.298-52.247-19.737-15.093-7.547-10.45-4.064-19.156 2.322-15.674 78.37-155.579 6.966-8.127 11.61-8.127 13.352-4.064 14.513.58 191.57 96.947 18.577.58 19.738-7.546 16.254-12.191 7.547-8.708 83.014-159.642 28.445-29.606 52.247-56.891 12.19-20.318 38.315-124.811 34.25-67.92 123.65-248.462 113.782-232.206 20.898-59.794 23.017-57.829 17.24-23.397 26.682-18.472 36.123-17.24 20.927-6.77 17.345 2.79 12.349 6.641 49.328 63.07 26.973 13.81 47.2 14.179 43.645 8.312 35.352 1.217 40.793-1.448 40.635-3.285 115.758-12.315 38.585 4.105 35.713 6.158 16.009 9.03 17.65 23.809 5.748 23.808 4.515 172.405 4.105 55.415 3.694 15.188 14.367 18.472 30.376 31.197 11.905 7.39 185.54 18.471 35.302-.82 77.171-4.927 32.018 9.441 65.268 3.284 11.083 6.979 10.262 14.367 5.336 20.934.084 39.665" fill="none" stroke="#f4ae00" stroke-width="5" stroke-linejoin="round"/><path d="M1133.357 97.286l-.558 31.652-3.217 9.861L1081 243v16.5l27.5 68.5 16.185 44.192 24.595 34.843 41.536 20.855L1262 457.5l18 4 63.615.054 20.556 5.533 11.478 9.832 8.602 20.41-2.751 68.171-9.5 26.5-42.5 86-48 72.5-15 9-55.5 2.5-30.5 8.5-182 108.5-15 18-27.842 53L953 975.5l8.5 22.5 11.5 13.5 131 56.5 25.5 13 170.5 107.5 15.5 8 17.5 4 52-12 69.5-20.5 48-1.5 70.5-11 30.5 3.5 24.003 8.52 12.441.684L1659.5 1163l28 .5 54.5 22 839-6 57.5-6.5 201.5-.5 85.5 3.5 215.5-3.5 54 9h16.5l71-10.5 143.857 22.562L3531 1217" fill="none" stroke="#e70038" stroke-width="5" stroke-linejoin="round"/></svg>