<svg xmlns="http://www.w3.org/2000/svg" width="4400" height="4050" viewBox="0, -50, 4400, 4050"><path style="fill:none;stroke:#814479;stroke-width:5;stroke-linecap:butt;stroke-linejoin:round;stroke-miterlimit:4;stroke-dasharray:none;stroke-opacity:1" d="m3985 3492-8-94-9-26v-39l-2-30-12-26-1-72-13-39 2-58-32-125-19-29-11-49-75-155-15-21-6-31-68-155-21-28-15-48-67-155-21-31-10-34-65.32-140.07-21.98-54.96-82.91-187.8-17.91-28.85c-.16-.27-.28-.56-.33-.87l-6.96-37.81-48.87-141.62-9.74-17.54-14.79-15.78c-.23-.24-.4-.52-.52-.83l-14.94-39.83-54.83-99.68-33.33-44.12-59.09-12.8c-.61-.13-1.15-.49-1.51-1l-11.94-16.92-23.59-28.5-37.08-17.56-75.3-5.95-42.65 4.96-28.89 5.98c-.31.07-.64.07-.95.01l-22-4c-.11-.02-.22-.05-.33-.08l-40-13c-.18-.06-.36-.14-.52-.24l-127-77c-.15-.09-.3-.2-.43-.33l-22-21a3.32 3.32 0 0 1-.18-.19l-104-122c-.01-.01-.02-.03-.03-.04l-8.66-10.59-8.58-4.29-19.06.65c-.64.22-6.39.26-7-.04l-10.8-7.77-7.93-71.31-14.52-35.82-16.67-23.53s-.01 0-.01-.01c-.11-.16-.22-.33-.32-.51l-21-39c-.06-.12-.13-.25-.2-.4v-.01l-51.93-121.85-47.93-94.85c-.17-.33-.3-.67-.39-1.03l-26-103v-.01a4.28 4.28 0 0 1-.14-.97l-4.46-91.59-11.14-25.66-4.9-7.99-19.5-1.5-2.34-4.76-19.5-33.5c-.25-.43-.63-.78-1.08-1l-11.5-5.5c-.26-.12-.53-.2-.81-.23l-13.05-1.4-3.22-3.57v-24.39l10.88-19.4 18.43-12.13 37.94-21.96c.27-.16.51-.36.7-.6l8-10c.06-.8.12-.16.17-.24l16.37-26.29 16.83-17.82c.16-.17.3-.36.4-.57l21.32-41.16 9.73-9.73"/><path style="color:#000;font-style:normal;font-variant:normal;font-weight:400;font-stretch:normal;font-size:medium;line-height:normal;font-family:sans-serif;font-variant-ligatures:normal;font-variant-position:normal;font-variant-caps:normal;font-variant-numeric:normal;font-variant-alternates:normal;font-feature-settings:normal;text-indent:0;text-align:start;text-decoration:none;text-decoration-line:none;text-decoration-style:solid;text-decoration-color:#000;letter-spacing:normal;word-spacing:normal;text-transform:none;writing-mode:lr-tb;direction:ltr;text-orientation:mixed;dominant-baseline:auto;baseline-shift:baseline;text-anchor:start;white-space:normal;shape-padding:0;clip-rule:nonzero;display:inline;overflow:visible;visibility:visible;opacity:1;isolation:auto;mix-blend-mode:normal;color-interpolation:sRGB;color-interpolation-filters:linearRGB;solid-color:#000;solid-opacity:1;vector-effect:none;fill:none;fill-opacity:1;fill-rule:nonzero;stroke:#0190b7;stroke-width:5;stroke-linecap:butt;stroke-linejoin:round;stroke-miterlimit:4;stroke-dasharray:none;stroke-dashoffset:0;stroke-opacity:1;color-rendering:auto;image-rendering:auto;shape-rendering:auto;text-rendering:auto;enable-background:accumulate" d="m2416.73 254.73-10 10c-.18.18-.33.39-.45.62l-21.34 41.19-16.76 17.74c-.11.12-.22.25-.3.39l-16.42 26.38-7.61 9.52-37.59 21.76c-.4.02-.8.05-.12.08l-19 12.5c-.33.22-.61.52-.8.87l-11.5 20.5c-.21.37-.32.79-0.321.22v26c0 .62.23 1.210.641.67l4.5 5c.41.46.98.75 1.59.81l13.57 1.45 10.42 4.98 19.11 32.83-3.85 39.76-5.5 7.5-9.5 2H2264l-23-10.5h-48.5l-21.5 9-22 14-24 9.5-29.06.5h-58l-6.5 4.5-13.08.5-11.02.5-106.5.5-41-6-74.5-2.5-8.5-3-18-15-14.5-4-315 .5-308 2.5-62.5-8.5-33-4.5-14.5-2.5-9.5-.5-13 6.5-45.5 35-8 11.5-2.5 17 4 16.5 11.5 16.5 25 31 4 9-2.5 13-13 44-4 9.5-14.5 20.5-2.011.5v20l-3.5 7.5-29-.5-5.5-4.5V760l-3-10-6-6.5-9-5.5-20.5-6.5-309.5.5-41.5 4.5-9-.5-6.5-3-23-13-8.5-1.5-9 1-18 3.5-97.5-1.5-34-4H290l-24 5-70.5-2.5-28.05.5-70.5.5-8.5-4.5-24-14.5"/><path style="color:#000;font-style:normal;font-variant:normal;font-weight:400;font-stretch:normal;font-size:medium;line-height:normal;font-family:sans-serif;font-variant-ligatures:normal;font-variant-position:normal;font-variant-caps:normal;font-variant-numeric:normal;font-variant-alternates:normal;font-feature-settings:normal;text-indent:0;text-align:start;text-decoration:none;text-decoration-line:none;text-decoration-style:solid;text-decoration-color:#000;letter-spacing:normal;word-spacing:normal;text-transform:none;writing-mode:lr-tb;direction:ltr;text-orientation:mixed;dominant-baseline:auto;baseline-shift:baseline;text-anchor:start;white-space:normal;shape-padding:0;clip-rule:nonzero;display:inline;overflow:visible;visibility:visible;opacity:1;isolation:auto;mix-blend-mode:normal;color-interpolation:sRGB;color-interpolation-filters:linearRGB;solid-color:#000;solid-opacity:1;vector-effect:none;fill:none;fill-opacity:1;fill-rule:nonzero;stroke:#0059b3;stroke-width:5;stroke-linecap:butt;stroke-linejoin:round;stroke-miterlimit:4;stroke-dasharray:none;stroke-dashoffset:0;stroke-opacity:1;color-rendering:auto;image-rendering:auto;shape-rendering:auto;text-rendering:auto;enable-background:accumulate" d="m2495.79 444.48-12.27 1.41-12.93 10.62-5.26 13.39c-.5.13-.11.25-.18.37l-4.5 7.5a2.7 2.7 0 0 1-.64.71l-20.5 15.5c-.15.12-.32.21-.49.29l-9 4c-.34.15-.72.23-1.1.21l-62.5-2-1.24 1.510.251.94 10.66 24.56c.24.550.381.150.411.75l4.48 91.99 25.74 101.98 47.74 94.49.1.02c.5.09.9.18.12.26.1.01.1.02.2.03l51.91 121.79 20.75 38.53 16.82 23.75c.22.31.41.650.551.01l15 37c.17.42.28.870.331.33l8 72 .12 2.72 2.49 1.78 4.59-.65 19-6.65c.24-.8.48-.13.73-.14.42-.1.830.071.21.26l10 5c.32.16.59.38.82.65l8.98 10.98 103.9 121.88 21.71 20.72 126.52 76.71 39.56 12.86 21.36 3.88 28.53-5.9c.07-.1.14-.3.22-.04l43-5c.16-.2.32-.2.49-.01l76 6c.3.02.6.1.87.23l38 18c.33.16.62.38.86.67l24 29 .12.15 11.44 16.21 59.05 12.79c.58.13 1.10.461.46.94l34 45c.7.1.14.2.2.3l55 100c.6.11.11.22.15.33l14.82 39.53 14.66 15.64c.14.15.26.32.36.49l10 18c.7.13.13.26.18.4l49 142c.4.12.7.24.1.36l6.91 37.54 17.75 28.6c.6.1.12.2.16.31l83 188c.1.03.2.06.3.08l22 55 12.18 10.93 22 3 94-8.5 46.5-4.5 29.5-12 175-111 30-20 24-9.5 34.5-9 31-17.5 145.5-113 80-32 36-21"/><path style="color:#000;font-style:normal;font-variant:normal;font-weight:400;font-stretch:normal;font-size:medium;line-height:normal;font-family:sans-serif;font-variant-ligatures:normal;font-variant-position:normal;font-variant-caps:normal;font-variant-numeric:normal;font-variant-alternates:normal;font-feature-settings:normal;text-indent:0;text-align:start;text-decoration:none;text-decoration-line:none;text-decoration-style:solid;text-decoration-color:#000;letter-spacing:normal;word-spacing:normal;text-transform:none;writing-mode:lr-tb;direction:ltr;text-orientation:mixed;dominant-baseline:auto;baseline-shift:baseline;text-anchor:start;white-space:normal;shape-padding:0;clip-rule:nonzero;display:inline;overflow:visible;visibility:visible;opacity:1;isolation:auto;mix-blend-mode:normal;color-interpolation:sRGB;color-interpolation-filters:linearRGB;solid-color:#000;solid-opacity:1;vector-effect:none;fill:none;fill-opacity:1;fill-rule:nonzero;stroke:#027035;stroke-width:5;stroke-linecap:butt;stroke-linejoin:round;stroke-miterlimit:4;stroke-dasharray:none;stroke-dashoffset:0;stroke-opacity:1;color-rendering:auto;image-rendering:auto;shape-rendering:auto;text-rendering:auto;enable-background:accumulate" d="m2495.21 439.52-13.01.5c-.48.06-.93.25-1.3.55l-14 11.5c-.33.27-.58.62-0.741.02l-5.42 13.81-4.14 6.91-19.88 15.03-8.21 3.65-61.93-1.98-3.61 1.22-2.6 5.630.373.37 10.75 24.77 4.49 92.25c.1.17.3.33.7.49l25.87 102.49c.4.18.11.35.19.52L2450 817c0 .1.01.1.01.02v.02l51.94 121.86c.3.07.6.14.1.21l20.87 38.77c.5.09.1.18.16.26l16.91 23.87 15 37 8 72L2573 1188l1.5 28.5-2.038.5-25.5 121-62.15 306.48L2385 2000l-31.66 149.57-12.64 37.24L2326 2269l-28 130-13 38-33.05 69.99-38.28 90.24L2201 2691l-29.72 200-24.38 74.14"/><path style="color:#000;font-style:normal;font-variant:normal;font-weight:400;font-stretch:normal;font-size:medium;line-height:normal;font-family:sans-serif;font-variant-ligatures:normal;font-variant-position:normal;font-variant-caps:normal;font-variant-numeric:normal;font-variant-alternates:normal;font-feature-settings:normal;text-indent:0;text-align:start;text-decoration:none;text-decoration-line:none;text-decoration-style:solid;text-decoration-color:#000;letter-spacing:normal;word-spacing:normal;text-transform:none;writing-mode:lr-tb;direction:ltr;text-orientation:mixed;dominant-baseline:auto;baseline-shift:baseline;text-anchor:start;white-space:normal;shape-padding:0;clip-rule:nonzero;display:inline;overflow:visible;visibility:visible;opacity:1;isolation:auto;mix-blend-mode:normal;color-interpolation:sRGB;color-interpolation-filters:linearRGB;solid-color:#000;solid-opacity:1;vector-effect:none;fill:none;fill-opacity:1;fill-rule:nonzero;stroke:#0059b3;stroke-width:1px;stroke-linecap:butt;stroke-linejoin:round;stroke-miterlimit:4;stroke-dasharray:none;stroke-dashoffset:0;stroke-opacity:1;color-rendering:auto;image-rendering:auto;shape-rendering:auto;text-rendering:auto;enable-background:accumulate" d="m2493.7 442.62 5.59-0.127.35 7.35c.11.11.27.16.42.14l7.5-1c.11-.1.21-.7.29-.14l63.5-64.5-.69-4.85-6.18-5.66-5.99 1.13-65.39 67.38-.82.15"/><path style="color:#000;font-style:normal;font-variant:normal;font-weight:400;font-stretch:normal;font-size:medium;line-height:normal;font-family:sans-serif;font-variant-ligatures:normal;font-variant-position:normal;font-variant-caps:normal;font-variant-numeric:normal;font-variant-alternates:normal;font-feature-settings:normal;text-indent:0;text-align:start;text-decoration:none;text-decoration-line:none;text-decoration-style:solid;text-decoration-color:#000;letter-spacing:normal;word-spacing:normal;text-transform:none;writing-mode:lr-tb;direction:ltr;text-orientation:mixed;dominant-baseline:auto;baseline-shift:baseline;text-anchor:start;white-space:normal;shape-padding:0;clip-rule:nonzero;display:inline;overflow:visible;visibility:visible;opacity:1;isolation:auto;mix-blend-mode:normal;color-interpolation:sRGB;color-interpolation-filters:linearRGB;solid-color:#000;solid-opacity:1;vector-effect:none;fill:none;fill-opacity:1;fill-rule:nonzero;stroke:#027035;stroke-width:1px;stroke-linecap:butt;stroke-linejoin:round;stroke-miterlimit:4;stroke-dasharray:none;stroke-dashoffset:0;stroke-opacity:1;color-rendering:auto;image-rendering:auto;shape-rendering:auto;text-rendering:auto;enable-background:accumulate" d="m2492.57 441.8 6.93-.3c.13 0 .26.05.35.15l7.33 7.33 7.08-0.9563.38-64.38 4.68-0.615.47 5.46 6.21-0.552.5-53.5 37.5-35.074.5-76 .5-17"/><path style="fill:none;stroke:#027035;stroke-width:1px;stroke-linecap:butt;stroke-linejoin:round;stroke-opacity:1" d="m2582.32 383.04-4.73-4.91-5.61-5.2a.497.5 0 0 0-.37-.13c-.02 0-.04 0-.7.01l-6.39 1.2c-.1.02-.2.07-.27.14l-65.5 67.5"/><text x="89.45" y="156.96" xml:space="preserve" style="font-size:144px;font-style:normal;font-weight:400;line-height:125%;letter-spacing:0;word-spacing:0;fill:#000;fill-opacity:1;stroke:none;font-family:Sans;-inkscape-font-specification:Sans"><tspan x="89.45" y="156.96">2015</tspan></text><text x="89.45" y="3897.96" xml:space="preserve" style="font-size:144px;font-style:normal;font-weight:400;line-height:125%;letter-spacing:0;word-spacing:0;fill:#000;fill-opacity:1;stroke:none;font-family:Sans;-inkscape-font-specification:Sans"/></svg>