<?xml version="1.0" encoding="UTF-8" standalone="no"?>
<svg
   viewBox="-25 -25 4650 4050"
   height="4050"
   width="4650"
   id="svg2"
   version="1.1"
   xmlns:xlink="http://www.w3.org/1999/xlink"
   xmlns="http://www.w3.org/2000/svg"
   xmlns:svg="http://www.w3.org/2000/svg"
   xmlns:rdf="http://www.w3.org/1999/02/22-rdf-syntax-ns#"
   xmlns:cc="http://creativecommons.org/ns#"
   xmlns:dc="http://purl.org/dc/elements/1.1/">
  <metadata
     id="metadata8">
    <rdf:RDF>
      <cc:Work
         rdf:about="">
        <dc:format>image/svg+xml</dc:format>
        <dc:type
           rdf:resource="http://purl.org/dc/dcmitype/StillImage" />
      </cc:Work>
    </rdf:RDF>
  </metadata>
  <defs
     id="defs6" />
  <image
     xlink:href="../basemap/fraosm.png"
     y="74.64"
     x="0"
     id="image10"
     preserveAspectRatio="none"
     height="3895.36"
     width="4761"
     style="display:none" />
  <path
     id="path4506"
     d="m 1755.5,2148 68,-44 57,-19.5 35,-6.5 47,-5.5 180.5,-1 19.5,5.5 29.5,11 177.5,105 35.5,13 35,3.5 268.5,-1 32.5,-1 34,-8.5 34.5,-23 283,-172.5 13,-9.5 6.5,-15.5 8,-30 8,-13 34,-37.5 11,-3 10.5,-1 24,9 49.5,8 35,-13 56,-1.75 32.38,2 26.12,10.25 18.5,21 11.5,28 5,16 -8,55 -3,23.5 4,18 12,15.5 12.5,7.5 18.5,7 21,0.5 15.5,-0.5 18,-9 24,-21 20.5,-9 316,-24.5 119,-13.5 22,-3.5 17,2.5 75,26 73,38.5 19,2.5 54.5,-8 39,-3.5 42,-0.5 30.5,5 36,15.5 20,21.5 82,153.5"
     style="fill:none;fill-rule:evenodd;stroke:#96ca4e;stroke-width:5;stroke-linecap:butt;stroke-linejoin:round;stroke-miterlimit:4;stroke-dasharray:none;stroke-opacity:1" />
  <path
     id="path4508"
     d="M 1936.77,1273.8 2009.24,1383.76 2082,1453 l 150.5,139.5 25.5,17 30,12 201.5,30 23,14 9,13.5 5,13.5 27,126.5 8,30 14.5,16 17.5,15 24,6.5 21,3.5 24,-4.5 35.5,-25.5 51,-34 51.5,-20 20.5,-0.5 21,7 42.5,40.5 6.5,17.5 1.5,17.5 3,145.5 5,18 13.5,22 16,13 10.25,1.25 19,-2.5"
     style="fill:none;fill-rule:evenodd;stroke:#96ca4e;stroke-width:5;stroke-linecap:butt;stroke-linejoin:round;stroke-miterlimit:4;stroke-dasharray:none;stroke-opacity:1" />
  <path
     id="path4535"
     d="m 3023.94,3759.28 103.94,-1086.82 28.99,-290.97 2.47,-25.81 -6.36,-38.89 -16.97,-36.42 -7.07,-17.32 2.47,-17.68 3.89,-10.96 12.73,-14.14 37.48,-24.04 84.15,-32.88 55.51,-37.48 40.31,-30.41 31.47,-13.08 16.26,-10.96 9.9,-10.61 L 3430.5,2052"
     style="fill:none;fill-rule:evenodd;stroke:#96ca4e;stroke-width:5;stroke-linecap:butt;stroke-linejoin:round;stroke-miterlimit:4;stroke-dasharray:none;stroke-opacity:1" />
  <path
     id="path4537"
     d="m 2680.5,276.5 -32.5,-4 -42.5,-3.5 -13.5,1 -13,6 -10.5,9.5 -7.5,14.5 L 2506.5,441 l -58,89 -23,20.5 -87.5,58 -12,12 -14.5,24.5 -9,30 v 24.5 l 24.5,208 56.5,494 8.5,23.5 107.5,151 6.5,17.5 20.5,99"
     style="fill:none;fill-rule:evenodd;stroke:#96ca4e;stroke-width:5;stroke-linecap:butt;stroke-linejoin:round;stroke-miterlimit:4;stroke-dasharray:none;stroke-opacity:1" />
  <path
     id="path4539"
     d="m 3976.5,87.5 23,255.5 V 364 l -4.5,26.5 -11,26 -78,144.5 -14,23.5 -15.5,60 -73.5,242 -14,19.5 -11.5,11 -27.5,14.5 -29.5,1.5 -206.5,-24 -24.5,4 -24.5,9 -19.5,10 -21,18 -13.5,21.5 -20.5,34 -18,16 -26,16.5 -38,7.5 -140,-4 -32,9 -27.5,13.5 -22.5,21 -185,341 -103,294 -4.5,25 5.5,24 11,15.5 31.5,28"
     style="fill:none;fill-rule:evenodd;stroke:#96ca4e;stroke-width:5;stroke-linecap:butt;stroke-linejoin:round;stroke-miterlimit:4;stroke-dasharray:none;stroke-opacity:1" />
  <path
     id="path4568"
     d="m 76.5,3760.5 29.5,16.5 121.5,90.5 34.5,20 37.5,9.5 H 340 l 35,-12 36.74,-14.42 43.47,-10.2 96.29,-36.29 41.39,-24.59 L 744.5,3740 l 60,-33.5 271,-237.5 44,-45.5 345.5,-455 68,-65.5 264,-225 28.5,-18 43,-12.5 39.5,0.5 28.5,6.5 27,16 20.5,29.5 6.5,29 v 19 l -10,51 0.5,17 4,21 11.5,20.5 17,19 18.5,10 37.5,9.5 h 39.5 l 39,-10.5 70.5,-26.5 35.5,-15.5 15.5,-8.5 24,-19 18.77,-13.4 42.77,-16.83 128.75,10.52 29.52,0.92 22.56,-4.91 15.84,-11.87 13.32,-20.14 7.48,-41.16 5.12,-39.53 12.32,-25.38 11.35,-8.67 17.34,-8.89 13.17,-2.67 57.19,-0.5 72.5,-11 87,-39 16,-13 10.5,-20.5 6.5,-18.5 -3.5,-26 -9.5,-19.5 -91.08,-182.5 -11.22,-40.63 -2.3,-28.46 3.01,-15.56 L 2775,2199"
     style="fill:none;fill-rule:evenodd;stroke:#96ca4e;stroke-width:5;stroke-linecap:butt;stroke-linejoin:round;stroke-miterlimit:4;stroke-dasharray:none;stroke-opacity:1" />
  <path
     id="path4600"
     d="m 3531.64,1940.6 -48.08,-47.02 -23.33,-14.5 -50.56,0.35 -22.27,10.96 -15.56,2.47 -30.09,-1.36 -50.88,1.4 -34.36,13.04 -47.72,-7.67 -23.71,-9.09 -20.08,-2.44 -23.5,-9.62 -62.25,-36.62 -18.25,-9 -40.75,-15 -39.75,-2.75 -21.75,-4.25 -36.75,-32 -67.67,-30.12 -64.83,-37.63 -15.17,-8.68 -23.16,-27.58"
     style="fill:none;fill-rule:evenodd;stroke:#007ec5;stroke-width:5;stroke-linecap:butt;stroke-linejoin:round;stroke-miterlimit:4;stroke-dasharray:none;stroke-opacity:1" />
  <path
     style="fill:none;fill-rule:evenodd;stroke:#e3a023;stroke-width:5;stroke-linecap:butt;stroke-linejoin:round;stroke-miterlimit:4;stroke-dasharray:none;stroke-opacity:1"
     d="m 2754.71,1670.49 23.33,27.4 13.75,7.44 64.83,37.63 67.67,30.12 36.75,32 21.75,4.25 39.75,2.75 40.75,15 18.25,9 62.25,36.62 22.26,9.45 20.43,2.44 24.59,9.27 44.89,7.14 34.36,-12.86 52.12,-1.58 29.56,1.53 14.67,-2.47 21.74,-10.96 52.86,-0.53 12.9,7.78 18.21,1.41 13.6,-5.83 85,-73.5 25,-36 22.5,-29 8,-13 9,-7.5 32.42,-11.95"
     id="path4602" />
  <path
     id="path4604"
     d="m 2752.77,1675.09 -4.07,-5.3 -4.6,-3.01 -5.3,0.18 -35.89,5.83 -6.01,-1.24 -17.5,-12.37 -32,-35 -5.83,-9.02 -95.99,-165.82"
     style="fill:none;fill-rule:evenodd;stroke:#007ec5;stroke-width:1px;stroke-linecap:butt;stroke-linejoin:round;stroke-opacity:1" />
  <path
     id="path4637"
     d="m 2755.12,1672.38 -1,-4.5 4.25,-19.88 -2.62,-8.12 -14.75,-36.12 -10.88,-14.12 -19.12,-15.38 -2.5,-5.62 -0.5,-30"
     style="fill:none;fill-rule:evenodd;stroke:#e3a023;stroke-width:1px;stroke-linecap:butt;stroke-linejoin:round;stroke-opacity:1" />
  <path
     id="path4673"
     d="m 3687.3,1706.2 17.1,-10.08 14.01,-7.34 13.08,-12.33 14.23,-18.08 15.56,-11.31 13.52,-3.45 35,-2.47 19,-2.47 12.02,-6.58 8.18,-9.28 10.83,-24.09 25.28,-53.92 11.84,-14.89 64.35,-50.51 23.16,-12.73"
     style="fill:none;fill-rule:evenodd;stroke:#e3a023;stroke-width:1px;stroke-linecap:butt;stroke-linejoin:round;stroke-opacity:1" />
  <path
     style="fill:none;fill-rule:evenodd;stroke:#ef59a1;stroke-width:1px;stroke-linecap:butt;stroke-linejoin:round;stroke-opacity:1"
     d="m 3755.95,1636.31 5.29,2.03 1.71,3.57 4.69,2.51 6.54,-1.78 35.49,-2.47 18.61,-2.39 11.84,-6.45 7.95,-9.02 11.14,-24.57 25.28,-53.92 11.67,-14.5 64.52,-50.91 23.16,-12.73"
     id="path4675" />
  <path
     id="path4712"
     d="m 3757.88,1636.62 -27.75,1.38 -6.75,-2.12 -6.12,-5.88 -25.12,-51.38 -27.12,-23.25 -12,-7.5 -8.25,-2.5 -37.5,-2.88 -13.5,1.25 -11.75,7 -8.75,12.5 -3.5,24.25 -11.75,49.5 -11.25,56.25 -3.75,10.25 -25,30 -143.5,101.5 -15.75,6.75 -16,4.5 -11.25,12.25 3.5,72.5 -2,10 -9.5,6 -12,5.75 -84.5,24 -26.25,7 -31,24.25 -16,14.25 -14.25,4.5 -15.5,-0.75 -19.5,-7.75 -18,-20 -72.46,-58.49 -26.34,-21.39 -8.66,-15.56 -0.53,-17.5 18.21,-67.18"
     style="fill:none;fill-rule:evenodd;stroke:#ef59a1;stroke-width:5;stroke-linecap:butt;stroke-linejoin:round;stroke-miterlimit:4;stroke-dasharray:none;stroke-opacity:1" />
  <path
     style="fill:none;fill-rule:evenodd;stroke:#007942;stroke-width:5;stroke-linecap:butt;stroke-linejoin:round;stroke-miterlimit:4;stroke-dasharray:none;stroke-opacity:1"
     d="m 3318.11,1813.26 12.6,16.65 3.12,9.9 0.44,7.68 -7.54,9.6 3.68,72.68 -1.65,8.41 -9.5,6 -8.82,3.98 -84.5,23.82 -25.54,7.18 -33.83,24.96 -15.12,13.72 -13.01,3.97 -12.49,-0.57 -18.79,-7.04 -17.09,-19.34"
     id="path4714" />
  <path
     id="path4753"
     d="M 3318.11,1813.26 3315.5,1810.5 V 1798 l 1.75,-52.75 -9.75,-40 -14.75,-35 2.25,-52.75 -2.5,-31 2.25,-10.5 4.25,-20.25 3.75,-25.5 -1.75,-8 -11,-41.75 2.5,-4.5 76.25,-27.25 3.5,-4 -37.25,-109.5 -19.25,-50 -2.5,-13.5 V 1262 l 1.5,-12.75 4.25,-10 9.5,-19"
     style="fill:none;fill-rule:evenodd;stroke:#007942;stroke-width:1px;stroke-linecap:butt;stroke-linejoin:round;stroke-opacity:1" />
  <path
     id="path4794"
     d="m 2152.73,2926.28 9.81,-23.56 3.38,-4.05 17.88,-6.16 5.43,-0.32 5.62,-1.93 11.67,-3.54 15.2,-9.9 18.38,-4.95 h 8.84 l 18.74,7.42 13.44,-1.41 61.87,-22.98"
     style="fill:none;fill-rule:evenodd;stroke:#445591;stroke-width:5;stroke-linecap:butt;stroke-linejoin:round;stroke-miterlimit:4;stroke-dasharray:none;stroke-opacity:1" />
  <path
     id="path4877"
     d="m 3325.5,2139 -64,-43.5 -29,-37 -21.5,-45 -7,-21.5 -1,-21.5 9,-20.5 31,-32.5 4.75,-16.62 1.75,-18.38 1,-18.5 -19,-45.5 -17.5,-13.5 -4,-9.5 1.5,-29.5 -15,-47.5 -12,-21.5 -7.5,-38 -2.5,-51 -7,-48.5 -9.12,-30"
     style="fill:none;fill-rule:evenodd;stroke:#4a5da9;stroke-width:5;stroke-linecap:butt;stroke-linejoin:round;stroke-miterlimit:4;stroke-dasharray:none;stroke-opacity:1" />
  <path
     style="fill:none;fill-rule:evenodd;stroke:#c77db4;stroke-width:5;stroke-linecap:butt;stroke-linejoin:round;stroke-miterlimit:4;stroke-dasharray:none;stroke-opacity:1"
     d="m 3328.5,2135 -64,-43.25 -27,-34.75 -21.75,-44.25 -7,-21.5 -0.75,-19.75 7.5,-18.5 31.75,-32.75 5,-17.5 2,-21 1,-18.5 -20,-47.5 -17.5,-14.25 -3,-6.25 1.5,-30 -15,-47.5 -12,-21.5 -7.5,-38 -2.5,-51 -7,-48.5 -9.25,-30.5"
     id="path4879" />
  <path
     id="path4881"
     d="m 3331.25,2131 -63.5,-42.25 -25.75,-33.5 -21.5,-44 -7,-21.5 -0.5,-18 6.5,-15.75 31.75,-32.75 5.88,-19.75 1.88,-23.25 1,-18.5 -21.25,-49 -17,-13.5 -2.25,-5.5 1.5,-30 -15,-47.5 -12,-21.5 -7.5,-38 -2.5,-51 -7,-48.5 -9.25,-30.5"
     style="fill:none;fill-rule:evenodd;stroke:#00a54f;stroke-width:5;stroke-linecap:butt;stroke-linejoin:round;stroke-miterlimit:4;stroke-dasharray:none;stroke-opacity:1" />
  <path
     style="fill:none;fill-rule:evenodd;stroke:#b7282e;stroke-width:5;stroke-linecap:butt;stroke-linejoin:round;stroke-miterlimit:4;stroke-dasharray:none;stroke-opacity:1"
     d="m 3322.75,2142.75 -64.25,-43.25 -30.5,-39.25 -21.5,-45 -7,-21.5 -0.75,-25.25 9.5,-21.75 30.62,-31.75 4.12,-15.62 1.5,-15.12 1.25,-20 -18.75,-44 -16.5,-12 -5,-11 1,-30.5 -14.5,-46.5 -12,-21.5 -7.5,-38 -2.5,-51 -7,-48.5 -9.38,-30.38"
     id="path4883" />
  <path
     id="path4971"
     d="m 2928.31,1503.97 -18.56,-14.32 -13.44,-16.26 -17.32,-29.88 -31.74,-67.76 -7.5,-20.75 -2.5,-22.75 5,-23 -0.25,-15.25 -5.5,-23.25 -13.25,-17.25 -11.25,-13.5 -5,-17 -2.75,-21.5 3.25,-46.75 3.25,-18.75 0.75,-18.75 7.38,-9.81 12.5,-2.44 12.25,-0.81 8.06,3.12 9.69,10.12 13.88,11.19 20.44,14.38 34.75,17.19 15.5,11.5 8.31,13.19 13.94,16.88 21.81,17.62 11.75,26.75 11.31,8.19"
     style="fill:none;fill-rule:evenodd;stroke:#b7282e;stroke-width:5;stroke-linecap:butt;stroke-linejoin:round;stroke-miterlimit:4;stroke-dasharray:none;stroke-opacity:1" />
  <path
     style="fill:none;fill-rule:evenodd;stroke:#ffdc01;stroke-width:5;stroke-linecap:butt;stroke-linejoin:round;stroke-miterlimit:4;stroke-dasharray:none;stroke-opacity:1"
     d="m 2925.31,1507.72 -20.06,-15.57 -13.44,-16.26 -17.32,-29.88 -31.74,-67.76 -7.5,-20.75 -3,-25.88 5.12,-22.88 0.12,-12.25 -5.5,-23.25 -13.25,-17.25 -11.25,-13.5 -5,-17 -3.12,-23.25 3.25,-48.25 3.62,-15.5 0.5,-22.25 -9.72,-5 -21.41,-1.17 -13.52,-6.05 -23.72,-21.79"
     id="path4973" />
  <text
     style="font-style:normal;font-weight:normal;font-size:144px;font-family:Sans;-inkscape-font-specification:Sans;fill:#000000;fill-opacity:1;stroke:none"
     xml:space="preserve"
     id="text2819"
     y="181.96"
     x="64.45"><tspan
       id="tspan1"
       y="181.96"
       x="64.45">2025</tspan></text>
  <path
     id="path5178"
     d="m 3158.8,1530.07 -0.55,-10.82 -15.87,-47.42 v -17.68 l -18.68,-60.69 -33.02,-48.79 -11.94,-20.28 -47.15,-65.3 -10.18,-6.38 -6.59,-2.75"
     style="fill:none;fill-rule:evenodd;stroke:#4a5da9;stroke-width:1px;stroke-linecap:butt;stroke-linejoin:round;stroke-opacity:1" />
  <path
     style="fill:none;fill-rule:evenodd;stroke:#c77db4;stroke-width:1px;stroke-linecap:butt;stroke-linejoin:round;stroke-opacity:1"
     d="m 3162.79,1528.8 -3.51,-9.76 -15.99,-47.73 0.12,-17.37 -18.8,-61 -33.27,-49.17 -11.56,-19.59 -47.46,-65.8 -9.97,-6.51 -3.98,-5.81"
     id="path5180" />
  <path
     id="path5182"
     d="m 3166.02,1527.7 -5.85,-9.01 -15.99,-47.73 0.12,-17.37 -18.74,-60.94 -33.34,-49.23 -11.56,-19.59 -47.71,-66.18 -9.84,-6.48 -2.68,-8.71"
     style="fill:none;fill-rule:evenodd;stroke:#00a54f;stroke-width:1px;stroke-linecap:butt;stroke-linejoin:round;stroke-opacity:1" />
  <path
     style="fill:none;fill-rule:evenodd;stroke:#b7282e;stroke-width:1px;stroke-linecap:butt;stroke-linejoin:round;stroke-opacity:1"
     d="m 3155.49,1531.19 1.83,-11.82 -15.87,-47.54 v -17.55 l -18.68,-60.69 -33.02,-48.79 -11.56,-19.4 -47.21,-65.68 -9.93,-6.11 -7.53,-0.89"
     id="path5184" />
  <path
     style="fill:none;fill-rule:evenodd;stroke:#4a5da9;stroke-width:5;stroke-linecap:butt;stroke-linejoin:round;stroke-miterlimit:4;stroke-dasharray:none;stroke-opacity:1"
     d="M 3016.06,1250.38 3005.75,1243 l -12,-27 -22.25,-18 -13.75,-16.75 -8.5,-13.25 -16.56,-12.31 -34,-16.75 -20.38,-14.19 -14.06,-11.25 -10.06,-10.38 -9.94,-3.62 -13,0.56 -14.44,2.81 -19.67,3.38 -20.15,-0.71 -11.67,-5.3 -23.61,-21.41"
     id="path5186" />
  <path
     id="path5188"
     d="m 2743.4,1080.45 -1.69,-1.61 -4.59,-3.07 -36.93,-8.2 -27.69,-24.06 -9.5,-5.41 -21,-10.59 -30,-20 -28.63,-30.18 -21.87,-40.82 -31,-30.5 -6.5,-16.5 -10,-40.5 -35.5,-67.5 -78.5,-101.5 -13,-8 -61,-10.5 -8.5,-5.5 -2,-3 -4.25,-14 1.25,-12.5 10,-11.5 15,-15.5 19,-11.5 3,-5.5 -3,-7 -28.5,-23.5 -11,-16.5 -32.5,-32.5 -39,-16.5 -92.5,-78 -79.5,-38 -36,-7.5 -35.5,-2.5 -45,-11.5 h -34.5 l -34,7.5 -39,-8.5"
     style="fill:none;fill-rule:evenodd;stroke:#4a5da9;stroke-width:1px;stroke-linecap:butt;stroke-linejoin:round;stroke-opacity:1" />
  <path
     id="path5190"
     d="m 3019.19,1246.38 -11.31,-7.75 -10.62,-25.75 -23.62,-19.25 -13.75,-16.75 -7.38,-12.75 -17.69,-12.81 -34,-16.75 -20.38,-14.19 -14.06,-11.25 -10.06,-10.38 -9.94,-3.62 -13,0.56 -15.56,1.94 -21.17,4.01 -17.53,-0.46 -10.92,-5.05 -23.36,-21.04"
     style="fill:none;fill-rule:evenodd;stroke:#c77db4;stroke-width:5;stroke-linecap:butt;stroke-linejoin:round;stroke-miterlimit:4;stroke-dasharray:none;stroke-opacity:1" />
  <path
     style="fill:none;fill-rule:evenodd;stroke:#00a54f;stroke-width:5;stroke-linecap:butt;stroke-linejoin:round;stroke-miterlimit:4;stroke-dasharray:none;stroke-opacity:1"
     d="m 3021.66,1242.49 -10.25,-7.04 -10.45,-25.4 -23.8,-19.69 -13.75,-16.75 -8.44,-13.37 -17.69,-12.81 -15.62,-8.09 -3.97,-5.15 -32,-124.1 v -11.67 l 5.66,-19.8"
     id="path5194" />
  <path
     id="path5196"
     d="m 2857.75,289.5 14.5,5.75 76,53 44.75,43.75 9.5,4.25 33.75,9.75 10.25,6.5 20.5,24.25 62.25,73 7.25,13.5 10.25,37.25 17,48.25 29.25,46.5 4,10.75 0.5,13 -8,46.25 -5,9.5 -48,55.75 -16.5,14 -31,12.5 -31.75,12 -25.9,22.01 -14.62,19.21"
     style="fill:none;fill-rule:evenodd;stroke:#00a54f;stroke-width:5;stroke-linecap:butt;stroke-linejoin:round;stroke-miterlimit:4;stroke-dasharray:none;stroke-opacity:1" />
  <path
     id="path5369"
     d="m 2891.36,978.63 4.6,-6.36 12.37,-14.14 53.03,-34.29 18.03,-9.9 37.33,-43.71"
     style="fill:none;fill-rule:evenodd;stroke:#00a54f;stroke-width:1px;stroke-linecap:butt;stroke-linejoin:round;stroke-opacity:1" />
  <path
     id="path5371"
     d="m 2819.41,893.77 -28.91,23.73 -30.75,27.75 -34.19,40 L 2714,1003.5 l -9.19,9.44 -10.49,4.01 -10.01,-0.01 -8.81,4.12 -5.5,8.44 0.53,8.65 2.78,4.73 27.44,23.88 36.56,8.12 8.34,0.84"
     style="fill:none;fill-rule:evenodd;stroke:#c77db4;stroke-width:1px;stroke-linecap:butt;stroke-linejoin:round;stroke-opacity:1" />
  <path
     id="path5375"
     d="m 3015.1,865.4 -1.5,6.98 -20.86,24.4 -2.74,1.97 -16.75,6.25 -18.5,1.5 -14,-2.5 -46.75,-24.75 -22.44,-5.1 -19.62,1.41 -21.12,8.04 -12.15,9.58 -28.91,23.82 -30.75,27.75 -34.12,39.69 -11.62,18.56 -9.12,9.38 -9.74,3.64 -10.32,-0.01 -8.94,4.19 -5.94,8.81 0.28,9.21 4.15,7.67 26.06,22.56 37.12,8.38 2.34,5.96"
     style="fill:none;fill-rule:evenodd;stroke:#ffdc01;stroke-width:1px;stroke-linecap:butt;stroke-linejoin:round;stroke-opacity:1" />
  <path
     id="path5377"
     d="m 3013.42,867.7 15.03,-19.71 26.34,-22.63 62.58,-24.84 15.38,-13.26 47.29,-54.8 4.68,-8.4 7.87,-44.55 -0.18,-12.02 -3.36,-10.08 -29.61,-46.67 -7.78,-20.95"
     style="fill:none;fill-rule:evenodd;stroke:#ffdc01;stroke-width:5;stroke-linecap:butt;stroke-linejoin:round;stroke-miterlimit:4;stroke-dasharray:none;stroke-opacity:1" />
  <path
     id="path852"
     d="m 2087.99,2865.19 7.58,-2.33 10.69,-8.16 11.27,-3.69 6.41,0.39 6.8,-2.53"
     style="opacity:1;fill:none;fill-opacity:1;fill-rule:nonzero;stroke:#000000;stroke-width:5;stroke-linecap:butt;stroke-linejoin:round;stroke-miterlimit:4;stroke-dasharray:none;stroke-opacity:1" />
</svg>
