<?xml version="1.0" encoding="UTF-8" standalone="no"?>
<svg
   xmlns:dc="http://purl.org/dc/elements/1.1/"
   xmlns:cc="http://creativecommons.org/ns#"
   xmlns:rdf="http://www.w3.org/1999/02/22-rdf-syntax-ns#"
   xmlns:svg="http://www.w3.org/2000/svg"
   xmlns="http://www.w3.org/2000/svg"
   xmlns:xlink="http://www.w3.org/1999/xlink"
   viewBox="-950 0 11250 11300"
   height="11300"
   width="11250"
   id="svg2"
   version="1.1">
  <metadata
     id="metadata8">
    <rdf:RDF>
      <cc:Work
         rdf:about="">
        <dc:format>image/svg+xml</dc:format>
        <dc:type
           rdf:resource="http://purl.org/dc/dcmitype/StillImage" />
        <dc:title></dc:title>
      </cc:Work>
    </rdf:RDF>
  </metadata>
  <defs
     id="defs6" />
  <image
     xlink:href="../basemap/amsosm.png"
     y="74.62"
     x="-1000"
     id="image10"
     preserveAspectRatio="none"
     height="12775.38"
     width="11333"
     style="display:none" />
  <path
     id="path4547"
     d="m 6139.81,3487.82 -4.47,3.59 -26.36,-9.72"
     style="opacity:1;fill:none;fill-opacity:1;fill-rule:nonzero;stroke:#008f4d;stroke-width:1;stroke-linecap:butt;stroke-linejoin:round;stroke-miterlimit:4;stroke-dasharray:none;stroke-opacity:1" />
  <path
     id="path4760"
     d="m 2455.07,10000.68 13.55,-79.68 8.18,-27.18 12.97,-21.89 15.45,-16.75 33.22,-20.15 8.51,-8.76 22.45,-53.67 -0.06,-10.43 -2.38,-18.09 0.67,-12.96 7.21,-15.9 40.59,-62.18 5.48,-14.15 17.04,-95.96 -0.59,-17.44 -5.85,-9.44 -126.16,-84.54 -8.34,-10.81 -2.32,-67.04 -12.85,-33.61 -3.24,-19.42 -19.59,-54.91 -10.08,-8.02 -9.54,-1.46 -38.59,12.27 -28.31,3.13"
     style="opacity:1;fill:none;fill-opacity:1;fill-rule:nonzero;stroke:#00a0e2;stroke-width:5;stroke-linecap:butt;stroke-linejoin:round;stroke-miterlimit:4;stroke-dasharray:none;stroke-opacity:1" />
  <path
     style="opacity:1;fill:none;fill-opacity:1;fill-rule:nonzero;stroke:#6d7d86;stroke-width:5;stroke-linecap:butt;stroke-linejoin:round;stroke-miterlimit:4;stroke-dasharray:none;stroke-opacity:1"
     d="m 2390.73,9222.12 -90.37,26.97 -105.08,7.36 -296.34,33.28 h -15.59 l -37.83,-8.76 -51.14,-22.46 -39.23,-26.05 -32.05,-19.09 -23.8,-11.3 -27.25,3.47 -22.79,7.93 -22.29,9.41 -141.68,104.52 -140.69,156.04 -27.74,24.77 -27.25,18.82 -31.7,16.35 -100.56,33.19 -62.42,13.87 -26.75,-0.5 -39.13,-10.4 -621.2,-197.65 -40.62,-17.34 -14.84,-10.19"
     id="path5090" />
  <text
     style="font-style:normal;font-weight:normal;font-size:144.0px;line-height:125%;font-family:Sans;-inkscape-font-specification:Sans;letter-spacing:0px;word-spacing:0px;fill:#000000;fill-opacity:1;stroke:none"
     xml:space="preserve"
     id="text3019"
     y="206.96"
     x="-860.55"><tspan
       id="tspan1"
       y="206.96"
       x="-860.55">1970</tspan></text>
  <text
     style="font-style:normal;font-weight:normal;font-size:144.0px;line-height:125%;font-family:Sans;-inkscape-font-specification:Sans;letter-spacing:0px;word-spacing:0px;fill:#000000;fill-opacity:1;stroke:none"
     xml:space="preserve"
     id="text3019-6"
     y="11197.96"
     x="-860.55"><tspan
       id="tspan2"
       y="11197.96"
       x="-860.55">1970</tspan></text>
  <path
     id="path5160"
     d="m 7907.0,3424.5 -63,-35.5 -69.5,-70 -135.5,-112 -135,-96 -153,-92.5 -136,-105 -42,-39 -62.5,-37 -105,-55.5 -268.5,-183 -17.5,-21 -10,-30.5 -1,-44 22.5,-64 -7.5,-50.5 -14,-16 -14.21,-12.18 -19.96,-8.68 -140.33,-32.14 -34,4 -31.5,-8 -53,-30"
     style="opacity:1;fill:none;fill-opacity:1;fill-rule:nonzero;stroke:#6d7d86;stroke-width:5;stroke-linecap:butt;stroke-linejoin:round;stroke-miterlimit:4;stroke-dasharray:none;stroke-opacity:1" />
  <path
     id="path5227"
     d="m 7907.0,3424.5 146,64.5 69.5,34 90.5,65 44.5,22 37,9 31,6 386.5,38.5 36,12 37,24 23.5,30.5 16,38 147,625 8.5,38 10,33 39,103 37.15,70.66"
     style="opacity:1;fill:none;fill-opacity:1;fill-rule:nonzero;stroke:#6d7d86;stroke-width:5;stroke-linecap:butt;stroke-linejoin:round;stroke-miterlimit:4;stroke-dasharray:none;stroke-opacity:1" />
  <path
     id="path4627"
     d="m 5792.82,2611.85 178.85,-2.36 9.46,-12.61 -2.1,-77.41 3.5,-4.55 20.32,-0.35 12.61,-5.95 23.82,-1.4 11.91,6.66 64.02,-24.36 46.7,-22.26 49.01,-20.63 1.05,-3.5 -19.27,-44.84 1.75,-5.95 67.95,-27.32 19.97,1.4 11.21,8.41 31.18,3.5 2.94,-0.08 1.84,-1.59 0.94,-3.67 12.72,-26.02 9.29,-9.84 19.17,-19.98 6.21,-10.65 13.46,-4.56 4.6,0.85 8.39,7.17 2.97,-1.24 4.95,-6.01 -0.12,-2.82 -9.26,-7.46 -2.6,-1e-4 -5.79,8.17 -0.77,1.73"
     style="opacity:1;fill:none;fill-opacity:1;fill-rule:nonzero;stroke:#7ec140;stroke-width:1;stroke-linecap:butt;stroke-linejoin:round;stroke-miterlimit:4;stroke-dasharray:none;stroke-opacity:1" />
  <path
     id="path4623"
     d="m 5572.38,2635.14 60.19,-18.08 28.15,-4.03 14.69,-0.72 119.22,-1.56 77.34,-0.25"
     style="opacity:1;fill:none;fill-opacity:1;fill-rule:nonzero;stroke:#7ec140;stroke-width:5;stroke-linecap:butt;stroke-linejoin:round;stroke-miterlimit:4;stroke-dasharray:none;stroke-opacity:1" />
  <path
     id="path4669"
     d="m 5573.49,2636.75 -4.95,-0.99 -20.31,-61.92 -4.21,-1.61 -32.2,11.02 -1.61,3.84 1.11,10.03 -1.36,2.23 -157.65,52.26"
     style="opacity:1;fill:none;fill-opacity:1;fill-rule:nonzero;stroke:#7ec140;stroke-width:1;stroke-linecap:butt;stroke-linejoin:round;stroke-miterlimit:4;stroke-dasharray:none;stroke-opacity:1" />
  <path
     style="opacity:1;fill:none;fill-opacity:1;fill-rule:nonzero;stroke:#6d7d86;stroke-width:5;stroke-linecap:butt;stroke-linejoin:round;stroke-miterlimit:4;stroke-dasharray:none;stroke-opacity:1"
     d="m 1007.56,7017.25 -14.56,10.25 -59.5,56 -34.5,50 -18.5,54 -9.5,69 3.5,42.5 11,43 22.5,53 55.5,72.5 286.5,370.5 62.5,101.5 16.5,53 19,76 366.5,1108 10.58,23.49 30.07,32.47"
     id="path5090-6" />
  <path
     id="path881"
     d="m 981.03,7023.21 -3.08,5.61 -44.04,40.69 -8.2,7.92 -22.8,32.97 -16.06,24.36 -10.68,8.97 -6.87,2.29"
     style="opacity:1;fill:none;fill-opacity:1;fill-rule:nonzero;stroke:#c39d88;stroke-width:5;stroke-linecap:butt;stroke-linejoin:round;stroke-miterlimit:4;stroke-dasharray:none;stroke-opacity:1" />
  <path
     id="path973"
     d="m 870.52,7148.35 -5.73,3.04 -5.63,1.06 -9.44,0.07 -10.27,-2.94 -9.59,-3.85 -13.89,-7.02 -8.08,-6.27 -4.08,-3.85 -36.85,-63.9 -17.78,-25.49 -4.85,-1.18 -13.12,6.6 -34.89,-6.32 -44.24,-28.99 -3.62,-5.74 -3.77,-23.25 -2.57,-2.57 -11.32,2.57 -2.57,-0.91 -20.23,-36.24 -8.0,-17.21 -2.87,-2.26 -34.42,4.23 -8.3,-0.91 -30.57,-8.46 -48.96,28.5 -4.42,-1.47 -62.2,-102.29 -0.23,-3.32 3.62,-22.12 -2.11,-6.57 -5.28,-8.15 -22.95,-28.16 -34.35,-27.25"
     style="opacity:1;fill:none;fill-opacity:1;fill-rule:nonzero;stroke:#efb7d3;stroke-width:1;stroke-linecap:butt;stroke-linejoin:round;stroke-miterlimit:4;stroke-dasharray:none;stroke-opacity:1" />
  <path
     id="path975"
     d="m 872.55,7146.34 -8.33,4.22 -5.39,0.91 -9.13,-1e-4 -9.88,-2.83 -9.72,-3.89 -14.03,-7.11 -7.66,-6.07 -3.87,-3.65 -36.94,-64.06 -17.51,-25.52 -26.16,-36.83 -4.8,-14.41 -13.88,-43.56 -16.87,-33.74 -43.88,-50.18 -9.07,-8.11 -16.97,-9.61 -8.43,-2.88 -25.09,-6.83 -6.73,-3.2 -8.43,-7.26 -5.34,-6.51 -20.07,-37.26 -6.94,-16.12 -3.52,-14.31 -11.32,-49.22 -1.17,-9.29 -3.95,-55.19 2.35,-8.86 6.19,-10.04 25.3,-31.49 10.46,-20.07 0.64,-7.37 -1.17,-7.58 -5.23,-7.37 -7.37,-3.52 -10.57,-4.27 -4.48,-3.52 -3.2,-4.59 -1.6,-3.74 -0.53,-5.44 -2.35,-5.12 -3.2,-5.02 -1.6,-4.91 -1.81,-8.65 0.11,-7.26 0.75,-8.65 -1.73,-3.8 -3.75,-4.36 -0.47,-3.57 1.88,-3.86"
     style="opacity:1;fill:none;fill-opacity:1;fill-rule:nonzero;stroke:#c39d88;stroke-width:1;stroke-linecap:butt;stroke-linejoin:round;stroke-miterlimit:4;stroke-dasharray:none;stroke-opacity:1" />
  <path
     id="path977"
     d="m 983.02,7025.28 4.99,-3.0 7.1,-4.97 18.53,-12.75 2.03,-3.95 0.69,-11.96 3.26,-11.58 5.98,-7.53 28.99,-20.12 1.71,-4.8 2.67,-30.0 -0.96,-3.95 -22.53,-27.65 -13.7,-13.0"
     style="opacity:1;fill:none;fill-opacity:1;fill-rule:nonzero;stroke:#efb7d3;stroke-width:1;stroke-linecap:butt;stroke-linejoin:round;stroke-miterlimit:4;stroke-dasharray:none;stroke-opacity:1" />
  <path
     id="path979"
     d="m 980.96,7025.38 6.51,-3.95 7.21,-4.91 18.26,-12.65 1.76,-3.68 0.75,-11.16 -4.16,-6.14 -2.24,-0.05 -20.18,13.83 -0.64,3.2 9.29,13.61 -0.21,1.33"
     style="opacity:1;fill:none;fill-opacity:1;fill-rule:nonzero;stroke:#c39d88;stroke-width:1;stroke-linecap:butt;stroke-linejoin:round;stroke-miterlimit:4;stroke-dasharray:none;stroke-opacity:1" />
  <path
     id="path1072"
     d="m 628.23,6979.43 3.79,6.51 1.81,0.37 9.18,-1.33 2.62,2.08"
     style="opacity:1;fill:none;fill-opacity:1;fill-rule:nonzero;stroke:#efb7d3;stroke-width:1;stroke-linecap:butt;stroke-linejoin:round;stroke-miterlimit:4;stroke-dasharray:none;stroke-opacity:1" />
  <path
     id="path3380"
     d="m 833.42,6765.18 0.83,6.87 2.19,3.77 5.69,2.99"
     style="opacity:1;fill:none;fill-opacity:1;fill-rule:nonzero;stroke:#efb7d3;stroke-width:1;stroke-linecap:butt;stroke-linejoin:round;stroke-miterlimit:4;stroke-dasharray:none;stroke-opacity:1" />
  <path
     id="path5725"
     d="m 985.25,7025.86 -4.06,6.44 -42.07,39.33 -9.99,9.43 -23.43,34.09 -15.43,23.24 -11.85,9.82 -7.74,2.28"
     style="opacity:1;fill:none;fill-opacity:1;fill-rule:nonzero;stroke:#efb7d3;stroke-width:5;stroke-linecap:butt;stroke-linejoin:round;stroke-miterlimit:4;stroke-dasharray:none;stroke-opacity:1" />
</svg>
