<?xml version="1.0" encoding="UTF-8" standalone="no"?>
<svg
   xmlns:dc="http://purl.org/dc/elements/1.1/"
   xmlns:cc="http://creativecommons.org/ns#"
   xmlns:rdf="http://www.w3.org/1999/02/22-rdf-syntax-ns#"
   xmlns:svg="http://www.w3.org/2000/svg"
   xmlns="http://www.w3.org/2000/svg"
   xmlns:xlink="http://www.w3.org/1999/xlink"
   viewBox="-950 0 11250 12900"
   height="12900"
   width="11250"
   id="svg2"
   version="1.1">
  <metadata
     id="metadata8">
    <rdf:RDF>
      <cc:Work
         rdf:about="">
        <dc:format>image/svg+xml</dc:format>
        <dc:type
           rdf:resource="http://purl.org/dc/dcmitype/StillImage" />
        <dc:title></dc:title>
      </cc:Work>
    </rdf:RDF>
  </metadata>
  <defs
     id="defs6" />
  <image
     xlink:href="../streetmap/amsosm.png"
     style="display:none"
     y="74.617188"
     x="-1000"
     id="image10"
     preserveAspectRatio="none"
     height="12775.383"
     width="11333" />
  <path
     id="path4667"
     d="m 5794.1355,2612.3078 180.5147,-1.2407 8.9322,-2.9774 16.9887,7.7062 203.6893,-84.5932 13.8361,-7.1808 2.6271,0.3503 11.8658,11.0339 4.5976,-0.2626 18.2146,-14.9308 1.0947,-5.0354 52.6737,-39.8885 11.5155,-6.305 -0.044,-3.1088 -7.7499,-10.9901 0.394,-4.3786 4.4223,-5.079 1.007,-12.5226 11.6908,-26.4463 -0.5692,-26.7091 1.2752,-5.7548 12.7361,-26.3836 28.5918,-29.8616 5.9835,-10.4424 12.924,-4.3772 4.251,0.7196 8.5464,7.3325 3.6203,-1.4318 5.3253,-6.5636 v -3.5915 l -10.0933,-8.1428 -3.3438,0.2787 -5.9851,8.4802 -1.0871,2.8513"
     style="opacity:1;fill:none;fill-opacity:1;fill-rule:nonzero;stroke:#5fba45;stroke-width:1;stroke-linecap:butt;stroke-linejoin:round;stroke-miterlimit:4;stroke-dasharray:none;stroke-opacity:1" />
  <path
     id="path4547"
     d="m 6139.8084,3487.8242 -4.4661,3.5904 -26.3588,-9.7203"
     style="opacity:1;fill:none;fill-opacity:1;fill-rule:nonzero;stroke:#008f4d;stroke-width:1;stroke-linecap:butt;stroke-linejoin:round;stroke-miterlimit:4;stroke-dasharray:none;stroke-opacity:1" />
  <path
     id="path4623"
     d="m 5572.3783,2635.1352 60.188,-18.0812 28.1473,-4.0296 14.6869,-0.725 119.2151,-1.5614 77.3435,-0.2548"
     style="opacity:1;fill:none;fill-opacity:1;fill-rule:nonzero;stroke:#5fba45;stroke-width:5;stroke-linecap:butt;stroke-linejoin:round;stroke-miterlimit:4;stroke-dasharray:none;stroke-opacity:1" />
  <path
     id="path4669"
     d="m 5573.4928,2636.7448 -4.9538,-0.9908 -20.3103,-61.9218 -4.2107,-1.61 -32.1993,11.0221 -1.61,3.8392 1.1146,10.0313 -1.3623,2.2292 -157.6528,52.262"
     style="opacity:1;fill:none;fill-opacity:1;fill-rule:nonzero;stroke:#5fba45;stroke-width:1;stroke-linecap:butt;stroke-linejoin:round;stroke-miterlimit:4;stroke-dasharray:none;stroke-opacity:1" />
  <path
     id="path4760"
     d="m 1377.4032,10300.901 15.7269,-31.783 23.1186,-52.192 16.113,-33.977 12.6102,-12.61 12.6102,-3.503 h 15.7627 l 39.9322,12.61 84.0678,14.361 53.9435,-11.559 22.7684,0.701 174.0904,51.842 14.7118,2.452 20.6667,-0.351 98.7797,-27.322 18.9152,-12.96 12.9605,-17.865 20.3164,-45.186 19.6158,-17.164 71.4576,-48.339 22.0678,-1.751 43.0848,-10.859 35.7288,-12.61 17.1638,-1.751 18.565,3.853 19.6158,9.457 59.5481,43.785 14.0113,7.707 16.1129,4.553 22.7684,0.701 23.8192,-6.655 18.9153,-19.616 7.3559,-21.017 24.297,-142.8543 8.175,-27.1819 12.9731,-21.8898 15.4543,-16.7461 33.2167,-20.1537 8.5091,-8.7571 22.4454,-53.6674 -0.055,-10.4349 -2.3772,-18.0865 0.6684,-12.9569 7.2069,-15.9011 40.5853,-62.1796 5.4792,-14.1474 17.0435,-95.9561 -0.5875,-17.4396 -5.8485,-9.443 -126.1598,-84.544 -8.3421,-10.8075 -2.3245,-67.0417 -12.8541,-33.6133 -3.2377,-19.4208 -19.5945,-54.9094 -10.0768,-8.0177 -9.5405,-1.4582 -38.5933,12.2745 -28.3128,3.1313"
     style="opacity:1;fill:none;fill-opacity:1;fill-rule:nonzero;stroke:#00a0e2;stroke-width:5;stroke-linecap:butt;stroke-linejoin:round;stroke-miterlimit:4;stroke-dasharray:none;stroke-opacity:1" />
  <path
     style="opacity:1;fill:none;fill-opacity:1;fill-rule:nonzero;stroke:#6d7d86;stroke-width:5;stroke-linecap:butt;stroke-linejoin:round;stroke-miterlimit:4;stroke-dasharray:none;stroke-opacity:1"
     d="m 2390.7347,9222.1241 -90.3729,26.9717 -105.0847,7.3559 -296.3391,33.2769 h -15.5875 l -37.8305,-8.7571 -51.144,-22.461 -39.2289,-26.0531 -32.0509,-19.0904 -23.8018,-11.3032 -27.2456,3.4677 -22.7872,7.926 -22.2918,9.4121 -141.6771,104.5239 -140.6863,156.0429 -27.7409,24.7687 -27.2456,18.8243 -31.704,16.3473 -100.5609,33.1901 -62.4172,13.8705 -26.7502,-0.4954 -39.1346,-10.4029 -621.1993,-197.6543 -40.6207,-17.3381 -14.83783,-10.186"
     id="path5090" />
  <text
     style="font-style:normal;font-weight:normal;font-size:143.99993896px;line-height:125%;font-family:Sans;-inkscape-font-specification:Sans;letter-spacing:0px;word-spacing:0px;fill:#000000;fill-opacity:1;stroke:none"
     xml:space="preserve"
     id="text3019"
     y="206.96103"
     x="-860.5469"><tspan
       id="tspan1"
       y="206.96103"
       x="-860.5469">1975</tspan></text>
  <text
     style="font-style:normal;font-weight:normal;font-size:143.99993896px;line-height:125%;font-family:Sans;-inkscape-font-specification:Sans;letter-spacing:0px;word-spacing:0px;fill:#000000;fill-opacity:1;stroke:none"
     xml:space="preserve"
     id="text3019-6"
     y="12797.961"
     x="-860.5469"><tspan
       id="tspan2"
       y="12797.961"
       x="-860.5469">1975</tspan></text>
  <path
     id="path5160"
     d="m 7906.9999,3424.5002 -63,-35.5 -69.5,-70 -135.5,-112 -135,-96 -153,-92.5 -136,-105 -42,-39 -62.5,-37 -105,-55.5 -268.5,-183 -17.5,-21 -10,-30.5 -1,-44 22.5,-64 -7.5,-50.5 -14,-16 -14.2129,-12.1799 -19.9596,-8.6841 -140.3275,-32.136 -34,4 -31.5,-8 -53,-30"
     style="opacity:1;fill:none;fill-opacity:1;fill-rule:nonzero;stroke:#6d7d86;stroke-width:5;stroke-linecap:butt;stroke-linejoin:round;stroke-miterlimit:4;stroke-dasharray:none;stroke-opacity:1" />
  <path
     id="path5227"
     d="m 7906.9999,3424.5002 146,64.5 69.5,34 90.5,65 44.5,22 37,9 31,6 386.5,38.5 36,12 37,24 23.5,30.5 16,38 147,625 8.5,38 10,33 39,103 37.147,70.66"
     style="opacity:1;fill:none;fill-opacity:1;fill-rule:nonzero;stroke:#6d7d86;stroke-width:5;stroke-linecap:butt;stroke-linejoin:round;stroke-miterlimit:4;stroke-dasharray:none;stroke-opacity:1" />
  <path
     style="opacity:1;fill:none;fill-opacity:1;fill-rule:nonzero;stroke:#6d7d86;stroke-width:5;stroke-linecap:butt;stroke-linejoin:round;stroke-miterlimit:4;stroke-dasharray:none;stroke-opacity:1"
     d="m 1077.25,6921.2499 8.25,13.25 1,19.5 -9,14 -84.5,59.5 -59.5,56 -34.5,50 -18.5,54 -9.5,69 3.5,42.5 11,43 22.5,53 55.5,72.5 286.5,370.5 62.5,101.5 16.5,53 19,76 366.5,1108 10.5777,23.4919 30.0694,32.4655"
     id="path5090-6" />
  <path
     style="opacity:1;fill:none;fill-opacity:1;fill-rule:nonzero;stroke:#6d7d86;stroke-width:5;stroke-linecap:butt;stroke-linejoin:round;stroke-miterlimit:4;stroke-dasharray:none;stroke-opacity:1"
     d="m 1023.9997,6857.4999 53.25,63.7501"
     id="path5090-3" />
  <path
     style="opacity:1;fill:none;fill-opacity:1;fill-rule:nonzero;stroke:#8bc63e;stroke-width:5;stroke-linecap:butt;stroke-linejoin:round;stroke-miterlimit:4;stroke-dasharray:none;stroke-opacity:1"
     d="m 986.17379,7026.9948 -5.2647,5.38 -43.131,40.462 -8.6475,8.2205 -23.4872,33.9496 -15.3734,23.3804 -11.8503,9.8219 -5.6744,6.5426"
     id="path877" />
  <path
     id="path879"
     d="m 982.60649,7023.5914 -5.1137,5.1536 -43.131,40.462 -8.6475,8.2205 -23.4872,33.9496 -15.3734,23.3804 -11.8503,9.8219 -5.4479,4.7308"
     style="opacity:1;fill:none;fill-opacity:1;fill-rule:nonzero;stroke:#efb7d3;stroke-width:5;stroke-linecap:butt;stroke-linejoin:round;stroke-miterlimit:4;stroke-dasharray:none;stroke-opacity:1" />
  <path
     style="opacity:1;fill:none;fill-opacity:1;fill-rule:nonzero;stroke:#c39d88;stroke-width:5;stroke-linecap:butt;stroke-linejoin:round;stroke-miterlimit:4;stroke-dasharray:none;stroke-opacity:1"
     d="m 979.06509,7020.118 -5.4157,5.531 -43.1309,40.462 -8.6476,8.2205 -23.4871,33.9496 -15.3734,23.3804 -11.8503,9.8219 -4.844,4.0514"
     id="path881" />
  <path
     style="opacity:1;fill:none;fill-opacity:1;fill-rule:nonzero;stroke:#8bc63e;stroke-width:1;stroke-linecap:butt;stroke-linejoin:round;stroke-miterlimit:4;stroke-dasharray:none;stroke-opacity:1"
     d="m 872.74529,7154.7518 -1.5839,2.982 -1.0569,8.4549 -20.0805,24.006 -17.5138,19.9296 -14.6452,12.2294 -89.38084,46.5022 -55.86303,49.6728 -9.51181,7.7001 -19.77853,14.1922 -12.53144,14.6452 -32.30997,27.3276 -206.39124,175.2891"
     id="path883" />
  <path
     style="opacity:1;fill:none;fill-opacity:1;fill-rule:nonzero;stroke:#8bc63e;stroke-width:1;stroke-linecap:butt;stroke-linejoin:round;stroke-miterlimit:4;stroke-dasharray:none;stroke-opacity:1"
     d="m 984.35889,7026.034 4.6639,-3.321 25.40881,-17.5086 2.242,-4.3238 0.6405,-12.4909 -1.1743,-12.4909 -1.8149,-3.523 -15.90721,-14.1991 -62.3477,-51.7785 -0.1068,-4.4839 29.1454,-15.8005 8.4341,2.0285 6.1919,-5.2339 3.2029,-0.4244 8.007,10.4625 3.0112,0.034 13.53651,-10.71 12.918,-7.4732 0.5338,-4.2704 -27.97111,-35.978 -12.3841,-8.4341 -21.0317,-11.2097 -5.338,-5.5515 -17.1883,-28.6117 -79.7495,-157.1504 -4.911,-6.9394 -7.2596,-8.2205 -10.5693,-8.434 -19.7505,-12.8112 -25.7291,-15.9072 -1.9217,-1.8149 -1.9217,-7.2597 -1.3879,-2.3487 -5.1244,-4.4839 -2.5623,-3.5231 -6.8326,-13.4517 -9.3949,-9.0746 -3.6298,-5.9785 -1.81492,-6.1921 -1.17436,-15.0531 -2.88251,-11.1031 -7.90023,-11.9571 -7.79346,-7.7934 -9.8219,-5.9786 -26.04939,-12.5976 -8.11375,-5.2313 -7.04615,-6.8326 -12.49089,-19.2168 -7.36643,-6.4055 -16.97481,-8.9679 -4.27039,-4.5906 -3.62983,-10.1422 -7.79347,-7.0462 -2.77575,-3.4163 -0.21352,-4.8042 10.14218,-11.7435 0.85408,-12.1707 48.04191,-48.896"
     id="path885" />
  <path
     style="opacity:1;fill:none;fill-opacity:1;fill-rule:nonzero;stroke:#efb7d3;stroke-width:1;stroke-linecap:butt;stroke-linejoin:round;stroke-miterlimit:4;stroke-dasharray:none;stroke-opacity:1"
     d="m 868.59469,7147.4953 -3.8036,3.8973 -5.6327,1.0569 -9.4364,0.075 -10.2667,-2.9441 -9.5873,-3.85 -13.8903,-7.0206 -8.0774,-6.2658 -4.0765,-3.85 -36.8486,-63.8963 -17.78072,-25.4936 -4.85351,-1.1804 -13.12083,6.6027 -34.89497,-6.3191 -44.23748,-28.988 -3.62355,-5.7373 -3.77452,-23.2511 -2.56668,-2.5666 -11.32359,2.5666 -2.56668,-0.9058 -20.23147,-36.2355 -8.00201,-17.2119 -2.86864,-2.2647 -34.4237,4.2275 -8.30397,-0.9059 -30.57368,-8.455 -48.95563,28.4978 -4.41621,-1.4721 -62.20423,-102.2898 -0.22648,-3.3216 3.62355,-22.1187 -2.11373,-6.5677 -5.28434,-8.153 -22.94914,-28.1579 -34.34821,-27.2521"
     id="path973" />
  <path
     style="opacity:1;fill:none;fill-opacity:1;fill-rule:nonzero;stroke:#c39d88;stroke-width:1;stroke-linecap:butt;stroke-linejoin:round;stroke-miterlimit:4;stroke-dasharray:none;stroke-opacity:1"
     d="m 868.33089,7146.2341 -4.1102,4.3238 -5.3914,0.9075 -9.128,-1e-4 -9.8753,-2.8291 -9.7234,-3.8864 -14.0306,-7.1098 -7.6578,-6.067 -3.8723,-3.6482 -36.9389,-64.0559 -17.50857,-25.5156 -26.15615,-36.8321 -4.80419,-14.4126 -13.87878,-43.558 -16.86804,-33.7361 -43.87828,-50.1771 -9.07458,-8.1137 -16.97481,-9.6084 -8.43403,-2.8825 -25.08855,-6.8326 -6.72587,-3.2028 -8.43402,-7.2597 -5.33799,-6.5124 -20.07084,-37.2591 -6.93939,-16.1208 -3.52307,-14.3058 -11.31654,-49.2162 -1.17436,-9.2881 -3.95011,-55.1949 2.34871,-8.861 6.19207,-10.0354 25.30207,-31.4942 10.46246,-20.0708 0.64056,-7.3664 -1.17436,-7.58 -5.23123,-7.3664 -7.36642,-3.5231 -10.56922,-4.2704 -4.48391,-3.5231 -3.2028,-4.5906 -1.60139,-3.7366 -0.5338,-5.4448 -2.34872,-5.1244 -3.20279,-5.0178 -1.6014,-4.9109 -1.81492,-8.6476 0.10676,-7.2596 0.74732,-8.6476 -1.7252,-3.7967 -3.74565,-4.3593 -0.46699,-3.566 1.88096,-3.8649"
     id="path975" />
  <path
     style="opacity:1;fill:none;fill-opacity:1;fill-rule:nonzero;stroke:#efb7d3;stroke-width:1;stroke-linecap:butt;stroke-linejoin:round;stroke-miterlimit:4;stroke-dasharray:none;stroke-opacity:1"
     d="m 981.65639,7024.5279 6.3522,-2.2419 7.0961,-4.9676 18.52631,-12.7546 2.0283,-3.9501 0.694,-11.9571 3.2562,-11.5834 5.9785,-7.5265 28.9853,-20.1244 1.7082,-4.8042 2.6689,-29.9995 -0.9608,-3.9501 -22.5263,-27.6508 -13.6965,-13.0041"
     id="path977" />
  <path
     style="opacity:1;fill:none;fill-opacity:1;fill-rule:nonzero;stroke:#c39d88;stroke-width:1;stroke-linecap:butt;stroke-linejoin:round;stroke-miterlimit:4;stroke-dasharray:none;stroke-opacity:1"
     d="m 979.68129,7021.9123 7.7935,-0.4804 7.2063,-4.911 18.25591,-12.651 1.7615,-3.6832 0.7473,-11.1564 -4.1636,-6.1387 -2.242,-0.053 -20.17751,13.8254 -0.6406,3.2028 9.2881,13.6119 -0.2135,1.3345"
     id="path979" />
  <path
     style="opacity:1;fill:none;fill-opacity:1;fill-rule:nonzero;stroke:#efb7d3;stroke-width:1;stroke-linecap:butt;stroke-linejoin:round;stroke-miterlimit:4;stroke-dasharray:none;stroke-opacity:1"
     d="m 628.23266,6979.4251 3.78542,6.5092 1.81492,0.3736 9.18134,-1.3345 2.61562,2.0818"
     id="path1072" />
  <path
     style="opacity:1;fill:none;fill-opacity:1;fill-rule:nonzero;stroke:#efb7d3;stroke-width:1;stroke-linecap:butt;stroke-linejoin:round;stroke-miterlimit:4;stroke-dasharray:none;stroke-opacity:1"
     d="m 833.41599,6765.1827 0.8304,6.8696 2.1892,3.7746 5.6857,2.9933"
     id="path3380" />
</svg>
