<?xml version="1.0" encoding="UTF-8" standalone="no"?>
<svg
   xmlns:dc="http://purl.org/dc/elements/1.1/"
   xmlns:cc="http://creativecommons.org/ns#"
   xmlns:rdf="http://www.w3.org/1999/02/22-rdf-syntax-ns#"
   xmlns:svg="http://www.w3.org/2000/svg"
   xmlns="http://www.w3.org/2000/svg"
   xmlns:xlink="http://www.w3.org/1999/xlink"
   viewBox="-950 0 11250 11300"
   height="11300"
   width="11250"
   id="svg2"
   version="1.1">
  <metadata
     id="metadata8">
    <rdf:RDF>
      <cc:Work
         rdf:about="">
        <dc:format>image/svg+xml</dc:format>
        <dc:type
           rdf:resource="http://purl.org/dc/dcmitype/StillImage" />
        <dc:title></dc:title>
      </cc:Work>
    </rdf:RDF>
  </metadata>
  <defs
     id="defs6" />
  <image
     xlink:href="../streetmap/amsosm.png"
     width="11333"
     height="12775.38"
     preserveAspectRatio="none"
     id="image10"
     x="-1000"
     y="74.62"
     style="display:none" />
  <path
     id="path4667"
     d="m 5794.14,2612.31 180.51,-1.24 8.93,-2.98 16.99,7.71 203.69,-84.59 13.84,-7.18 2.63,0.35 11.87,11.03 4.6,-0.26 18.21,-14.93 1.09,-5.04 52.67,-39.89 11.52,-6.3 -0.04,-3.11 -7.75,-10.99 0.39,-4.38 4.42,-5.08 1.01,-12.52 11.69,-26.45 -0.57,-26.71 1.28,-5.75 12.74,-26.38 28.59,-29.86 5.98,-10.44 12.92,-4.38 4.25,0.72 8.55,7.33 3.62,-1.43 5.33,-6.56 v -3.59 l -10.09,-8.14 -3.34,0.28 -5.99,8.48 -1.09,2.85"
     style="opacity:1;fill:none;fill-opacity:1;fill-rule:nonzero;stroke:#5fba45;stroke-width:1;stroke-linecap:butt;stroke-linejoin:round;stroke-miterlimit:4;stroke-dasharray:none;stroke-opacity:1" />
  <path
     style="opacity:1;fill:none;fill-opacity:1;fill-rule:nonzero;stroke:#cd0d40;stroke-width:5;stroke-linecap:butt;stroke-linejoin:round;stroke-miterlimit:4;stroke-dasharray:none;stroke-opacity:1"
     d="m 6429.66,2308.14 12.12,9.38 12.32,16.36 3.17,14.14 -0.12,10.74 -4.39,14.69 -6.37,9.44 -7.56,9.83 -5.97,11.15 -2.99,12.63 -2.6,13.66 2.39,10.43 5.97,14.42 18.95,17.78 15.48,10.96 84.05,224.23 15.52,31.03 21.14,55.37 8.78,23.74 6.98,31.83 15.29,40.86 26.72,51.22 65.52,112.59 39.03,68.24 7.8,6.94 7.68,2.11 9.91,0.74 h 11.02 l 9.41,-4.21 15.48,-10.9 24.57,-18.67 23.82,-15.06 95.63,-52.89 20.67,-8.41 h 13.31 l 14.36,5.6 12.26,8.41 28.37,27.67 30.47,30.47 134.51,239.59"
     id="path4508" />
  <path
     id="path4506"
     d="m 6426.69,2312.1 11.56,8.76 11.21,15.06 2.8,11.91 v 9.81 l -4.2,14.01 -5.25,7.71 -8.06,10.51 -6.66,12.26 -2.8,13.31 -3.15,14.71 2.45,10.86 6.66,16.46 20.32,19.27 14.36,10.16 83.37,222.43 15.76,31.53 21.02,54.99 8.41,23.12 7.36,32.58 15.41,40.98 26.97,51.84 65.15,112.09 275.4,480.4"
     style="opacity:1;fill:none;fill-opacity:1;fill-rule:nonzero;stroke:#e5c103;stroke-width:5;stroke-linecap:butt;stroke-linejoin:round;stroke-miterlimit:4;stroke-dasharray:none;stroke-opacity:1" />
  <path
     id="path4547"
     d="m 6139.81,3487.82 -4.47,3.59 -26.36,-9.72"
     style="opacity:1;fill:none;fill-opacity:1;fill-rule:nonzero;stroke:#008f4d;stroke-width:1;stroke-linecap:butt;stroke-linejoin:round;stroke-miterlimit:4;stroke-dasharray:none;stroke-opacity:1" />
  <path
     id="path4623"
     d="m 5572.38,2635.14 60.19,-18.08 28.15,-4.03 14.69,-0.72 119.22,-1.56 77.34,-0.25"
     style="opacity:1;fill:none;fill-opacity:1;fill-rule:nonzero;stroke:#5fba45;stroke-width:5;stroke-linecap:butt;stroke-linejoin:round;stroke-miterlimit:4;stroke-dasharray:none;stroke-opacity:1" />
  <path
     id="path4669"
     d="m 5573.49,2636.74 -4.95,-0.99 -20.31,-61.92 -4.21,-1.61 -32.2,11.02 -1.61,3.84 1.11,10.03 -1.36,2.23 -157.65,52.26"
     style="opacity:1;fill:none;fill-opacity:1;fill-rule:nonzero;stroke:#5fba45;stroke-width:1;stroke-linecap:butt;stroke-linejoin:round;stroke-miterlimit:4;stroke-dasharray:none;stroke-opacity:1" />
  <path
     id="path4760"
     d="m 1377.4,10300.9 15.73,-31.78 23.12,-52.19 16.11,-33.98 12.61,-12.61 12.61,-3.5 h 15.76 l 39.93,12.61 84.07,14.36 53.94,-11.56 22.77,0.7 174.09,51.84 14.71,2.45 20.67,-0.35 98.78,-27.32 18.92,-12.96 12.96,-17.86 20.32,-45.19 19.62,-17.16 71.46,-48.34 22.07,-1.75 43.08,-10.86 35.73,-12.61 17.16,-1.75 18.57,3.85 19.62,9.46 59.55,43.78 14.01,7.71 16.11,4.55 22.77,0.7 23.82,-6.66 18.92,-19.62 7.36,-21.02 24.3,-142.85 8.18,-27.18 12.97,-21.89 15.45,-16.75 33.22,-20.15 8.51,-8.76 22.45,-53.67 -0.06,-10.43 -2.38,-18.09 0.67,-12.96 7.21,-15.9 40.59,-62.18 5.48,-14.15 17.04,-95.96 -0.59,-17.44 -5.85,-9.44 -126.16,-84.54 -8.34,-10.81 -2.32,-67.04 -12.85,-33.61 -3.24,-19.42 -19.59,-54.91 -10.08,-8.02 -9.54,-1.46 -38.59,12.27 -28.31,3.13"
     style="opacity:1;fill:none;fill-opacity:1;fill-rule:nonzero;stroke:#00a0e2;stroke-width:5;stroke-linecap:butt;stroke-linejoin:round;stroke-miterlimit:4;stroke-dasharray:none;stroke-opacity:1" />
  <path
     style="opacity:1;fill:none;fill-opacity:1;fill-rule:nonzero;stroke:#6d7d86;stroke-width:5;stroke-linecap:butt;stroke-linejoin:round;stroke-miterlimit:4;stroke-dasharray:none;stroke-opacity:1"
     d="m 2390.73,9222.12 -90.37,26.97 -105.08,7.36 -296.34,33.28 h -15.59 l -37.83,-8.76 -51.14,-22.46 -39.23,-26.05 -32.05,-19.09 -23.8,-11.3 -27.25,3.47 -22.79,7.93 -22.29,9.41 -141.68,104.52 -140.69,156.04 -27.74,24.77 -27.25,18.82 -31.7,16.35 -100.56,33.19 -62.42,13.87 -26.75,-0.5 -39.13,-10.4 -621.2,-197.65 -40.62,-17.34 -14.84,-10.19"
     id="path5090" />
  <text
     style="font-style:normal;font-weight:normal;font-size:144.0px;line-height:125%;font-family:Sans;-inkscape-font-specification:Sans;letter-spacing:0px;word-spacing:0px;fill:#000000;fill-opacity:1;stroke:none"
     xml:space="preserve"
     id="text3019"
     y="206.96"
     x="-860.55"><tspan
       id="tspan1"
       y="206.96"
       x="-860.55">1980</tspan></text>
  <text
     style="font-style:normal;font-weight:normal;font-size:144.0px;line-height:125%;font-family:Sans;-inkscape-font-specification:Sans;letter-spacing:0px;word-spacing:0px;fill:#000000;fill-opacity:1;stroke:none"
     xml:space="preserve"
     id="text3019-6"
     y="11197.96"
     x="-860.55"><tspan
       id="tspan2"
       y="11197.96"
       x="-860.55">1980</tspan></text>
  <path
     id="path5160"
     d="m 7907.0,3424.5 -63,-35.5 -69.5,-70 -135.5,-112 -135,-96 -153,-92.5 -136,-105 -42,-39 -62.5,-37 -105,-55.5 -268.5,-183 -17.5,-21 -10,-30.5 -1,-44 22.5,-64 -7.5,-50.5 -14,-16 -14.21,-12.18 -19.96,-8.68 -140.33,-32.14 -34,4 -31.5,-8 -53,-30"
     style="opacity:1;fill:none;fill-opacity:1;fill-rule:nonzero;stroke:#6d7d86;stroke-width:5;stroke-linecap:butt;stroke-linejoin:round;stroke-miterlimit:4;stroke-dasharray:none;stroke-opacity:1" />
  <path
     id="path5227"
     d="m 7907.0,3424.5 146,64.5 69.5,34 90.5,65 44.5,22 37,9 31,6 386.5,38.5 36,12 37,24 23.5,30.5 16,38 147,625 8.5,38 10,33 39,103 46,87.5 35,78 5,25.5 -4,41 -29.5,446.5 -6.5,26 -241,641 -141,337.5 -5.5,26.5 4,41 -11,17 -13,22.5 -18,10 -143.5,50.5 -66,29 -32,24.5 -47,43.5 -17,29.5 -11,30.5 v 36.5 l 7,26.5 51.5,96"
     style="opacity:1;fill:none;fill-opacity:1;fill-rule:nonzero;stroke:#6d7d86;stroke-width:5;stroke-linecap:butt;stroke-linejoin:round;stroke-miterlimit:4;stroke-dasharray:none;stroke-opacity:1" />
  <path
     style="opacity:1;fill:none;fill-opacity:1;fill-rule:nonzero;stroke:#6d7d86;stroke-width:5;stroke-linecap:butt;stroke-linejoin:round;stroke-miterlimit:4;stroke-dasharray:none;stroke-opacity:1"
     d="m 1024,6857.5 53.25,63.75 17.0,10.25 25.25,0.62 30.25,-10.75 63.67,-44.42 17.46,-12.33 7.59,-11.22 20.55,-36.08 18,-16.35 33.37,-7.24 32.58,6.1 177.46,86.96 36.26,11.99 21.25,17.63 175.4,208.37 41.83,52.97 0.27,0.29 29.47,27.0 1.43,0.64 103.04,10.9 0.09,0.01 70.84,4.95 0.49,-0.01 62.91,-7.93 0.54,-0.13 61.92,-22.29 0.38,-0.18 99.97,-56.42 42.2,-19.14 29.05,-4.84 33.09,3.89 53.27,17.26 c 0.04,0.01 0.08,0.02 0.12,0.04 l 137.63,37.16"
     id="path5090-3" />
  <path
     id="path4603"
     d="m 2521.87,7168.99 34.73,0.98 27.07,-7.73 30.55,-13.79 0.79,-0.21 26.26,-2.48 1.04,0.12 20.31,6.93 0.51,0.24 33.67,20.98 33.73,2.89 29.39,-5.78 15.2,-9.98 54.9,-57.95 5.66,-18.64 -4.71,-20.81 -10.16,-13.13 -15.11,-7.68 -74.31,-13.13 -40.87,-10.4 -120.38,-49.29 -17.34,0.25 -19.32,6.19 -14.12,12.88 -26.5,62.42 -9.16,10.16 -65.14,28.24 -11.15,10.9 -6.94,15.85 -10.16,33.93 0.5,25.26 1.98,38.39 -3.47,14.61 -19.07,66.38 0.5,15.6 4.95,12.14 9.16,10.16 12.38,8.17 95.61,10.4 16.1,-3.72 14.12,-8.92 74.55,-87.43 3.47,-11.15 -4.21,-20.06 -22.29,-34.43 -10.4,-6.69 -42.35,-10.71"
     style="color:#000000;font-style:normal;font-variant:normal;font-weight:normal;font-stretch:normal;font-size:medium;line-height:normal;font-family:sans-serif;font-variant-ligatures:normal;font-variant-position:normal;font-variant-caps:normal;font-variant-numeric:normal;font-variant-alternates:normal;font-feature-settings:normal;text-indent:0;text-align:start;text-decoration:none;text-decoration-line:none;text-decoration-style:solid;text-decoration-color:#000000;letter-spacing:normal;word-spacing:normal;text-transform:none;writing-mode:lr-tb;direction:ltr;text-orientation:mixed;dominant-baseline:auto;baseline-shift:baseline;text-anchor:start;white-space:normal;shape-padding:0;clip-rule:nonzero;display:inline;overflow:visible;visibility:visible;opacity:1;isolation:auto;mix-blend-mode:normal;color-interpolation:sRGB;color-interpolation-filters:linearRGB;solid-color:#000000;solid-opacity:1;vector-effect:none;fill:none;fill-opacity:1;fill-rule:nonzero;stroke:#6d7d86;stroke-width:5;stroke-linecap:butt;stroke-linejoin:round;stroke-miterlimit:4;stroke-dasharray:none;stroke-dashoffset:0;stroke-opacity:1;color-rendering:auto;image-rendering:auto;shape-rendering:auto;text-rendering:auto;enable-background:accumulate" />
  <path
     style="opacity:1;fill:none;fill-opacity:1;fill-rule:nonzero;stroke:#6d7d86;stroke-width:5;stroke-linecap:butt;stroke-linejoin:round;stroke-miterlimit:4;stroke-dasharray:none;stroke-opacity:1"
     d="m 1077.25,6921.25 8.25,13.25 1,19.5 -9,14 -84.5,59.5 -59.5,56 -34.5,50 -18.5,54 -9.5,69 3.5,42.5 11,43 22.5,53 55.5,72.5 286.5,370.5 62.5,101.5 16.5,53 19,76 366.5,1108 10.58,23.49 30.07,32.47"
     id="path5090-6" />
  <path
     id="path877"
     d="m 986.17,7026.99 -5.26,5.38 -43.13,40.46 -8.65,8.22 -23.49,33.95 -15.37,23.38 -11.85,9.82 -5.67,6.54"
     style="opacity:1;fill:none;fill-opacity:1;fill-rule:nonzero;stroke:#8bc63e;stroke-width:5;stroke-linecap:butt;stroke-linejoin:round;stroke-miterlimit:4;stroke-dasharray:none;stroke-opacity:1" />
  <path
     style="opacity:1;fill:none;fill-opacity:1;fill-rule:nonzero;stroke:#efb7d3;stroke-width:5;stroke-linecap:butt;stroke-linejoin:round;stroke-miterlimit:4;stroke-dasharray:none;stroke-opacity:1"
     d="m 982.61,7023.59 -5.11,5.15 -43.13,40.46 -8.65,8.22 -23.49,33.95 -15.37,23.38 -11.85,9.82 -5.45,4.73"
     id="path879" />
  <path
     id="path881"
     d="m 979.07,7020.12 -5.42,5.53 -43.13,40.46 -8.65,8.22 -23.49,33.95 -15.37,23.38 -11.85,9.82 -4.84,4.05"
     style="opacity:1;fill:none;fill-opacity:1;fill-rule:nonzero;stroke:#c39d88;stroke-width:5;stroke-linecap:butt;stroke-linejoin:round;stroke-miterlimit:4;stroke-dasharray:none;stroke-opacity:1" />
  <path
     id="path883"
     d="m 872.75,7154.75 -1.58,2.98 -1.06,8.45 -20.08,24.01 -17.51,19.93 -14.65,12.23 -89.38,46.5 -55.86,49.67 -9.51,7.7 -19.78,14.19 -12.53,14.65 -32.31,27.33 -206.39,175.29"
     style="opacity:1;fill:none;fill-opacity:1;fill-rule:nonzero;stroke:#8bc63e;stroke-width:1;stroke-linecap:butt;stroke-linejoin:round;stroke-miterlimit:4;stroke-dasharray:none;stroke-opacity:1" />
  <path
     id="path885"
     d="m 984.36,7026.03 4.66,-3.32 25.41,-17.51 2.24,-4.32 0.64,-12.49 -1.17,-12.49 -1.81,-3.52 -15.91,-14.2 -62.35,-51.78 -0.11,-4.48 29.15,-15.8 8.43,2.03 6.19,-5.23 3.2,-0.42 8.01,10.46 3.01,0.03 13.54,-10.71 12.92,-7.47 0.53,-4.27 -27.97,-35.98 -12.38,-8.43 -21.03,-11.21 -5.34,-5.55 -17.19,-28.61 -79.75,-157.15 -4.91,-6.94 -7.26,-8.22 -10.57,-8.43 -19.75,-12.81 -25.73,-15.91 -1.92,-1.81 -1.92,-7.26 -1.39,-2.35 -5.12,-4.48 -2.56,-3.52 -6.83,-13.45 -9.39,-9.07 -3.63,-5.98 -1.81,-6.19 -1.17,-15.05 -2.88,-11.1 -7.9,-11.96 -7.79,-7.79 -9.82,-5.98 -26.05,-12.6 -8.11,-5.23 -7.05,-6.83 -12.49,-19.22 -7.37,-6.41 -16.97,-8.97 -4.27,-4.59 -3.63,-10.14 -7.79,-7.05 -2.78,-3.42 -0.21,-4.8 10.14,-11.74 0.85,-12.17 48.04,-48.9"
     style="opacity:1;fill:none;fill-opacity:1;fill-rule:nonzero;stroke:#8bc63e;stroke-width:1;stroke-linecap:butt;stroke-linejoin:round;stroke-miterlimit:4;stroke-dasharray:none;stroke-opacity:1" />
  <path
     id="path973"
     d="m 868.59,7147.5 -3.8,3.9 -5.63,1.06 -9.44,0.07 -10.27,-2.94 -9.59,-3.85 -13.89,-7.02 -8.08,-6.27 -4.08,-3.85 -36.85,-63.9 -17.78,-25.49 -4.85,-1.18 -13.12,6.6 -34.89,-6.32 -44.24,-28.99 -3.62,-5.74 -3.77,-23.25 -2.57,-2.57 -11.32,2.57 -2.57,-0.91 -20.23,-36.24 -8.0,-17.21 -2.87,-2.26 -34.42,4.23 -8.3,-0.91 -30.57,-8.46 -48.96,28.5 -4.42,-1.47 -62.2,-102.29 -0.23,-3.32 3.62,-22.12 -2.11,-6.57 -5.28,-8.15 -22.95,-28.16 -34.35,-27.25"
     style="opacity:1;fill:none;fill-opacity:1;fill-rule:nonzero;stroke:#efb7d3;stroke-width:1;stroke-linecap:butt;stroke-linejoin:round;stroke-miterlimit:4;stroke-dasharray:none;stroke-opacity:1" />
  <path
     id="path975"
     d="m 868.33,7146.23 -4.11,4.32 -5.39,0.91 -9.13,-1e-4 -9.88,-2.83 -9.72,-3.89 -14.03,-7.11 -7.66,-6.07 -3.87,-3.65 -36.94,-64.06 -17.51,-25.52 -26.16,-36.83 -4.8,-14.41 -13.88,-43.56 -16.87,-33.74 -43.88,-50.18 -9.07,-8.11 -16.97,-9.61 -8.43,-2.88 -25.09,-6.83 -6.73,-3.2 -8.43,-7.26 -5.34,-6.51 -20.07,-37.26 -6.94,-16.12 -3.52,-14.31 -11.32,-49.22 -1.17,-9.29 -3.95,-55.19 2.35,-8.86 6.19,-10.04 25.3,-31.49 10.46,-20.07 0.64,-7.37 -1.17,-7.58 -5.23,-7.37 -7.37,-3.52 -10.57,-4.27 -4.48,-3.52 -3.2,-4.59 -1.6,-3.74 -0.53,-5.44 -2.35,-5.12 -3.2,-5.02 -1.6,-4.91 -1.81,-8.65 0.11,-7.26 0.75,-8.65 -1.73,-3.8 -3.75,-4.36 -0.47,-3.57 1.88,-3.86"
     style="opacity:1;fill:none;fill-opacity:1;fill-rule:nonzero;stroke:#c39d88;stroke-width:1;stroke-linecap:butt;stroke-linejoin:round;stroke-miterlimit:4;stroke-dasharray:none;stroke-opacity:1" />
  <path
     id="path977"
     d="m 981.66,7024.53 6.35,-2.24 7.1,-4.97 18.53,-12.75 2.03,-3.95 0.69,-11.96 3.26,-11.58 5.98,-7.53 28.99,-20.12 1.71,-4.8 2.67,-30.0 -0.96,-3.95 -22.53,-27.65 -13.7,-13.0"
     style="opacity:1;fill:none;fill-opacity:1;fill-rule:nonzero;stroke:#efb7d3;stroke-width:1;stroke-linecap:butt;stroke-linejoin:round;stroke-miterlimit:4;stroke-dasharray:none;stroke-opacity:1" />
  <path
     id="path979"
     d="m 979.68,7021.91 7.79,-0.48 7.21,-4.91 18.26,-12.65 1.76,-3.68 0.75,-11.16 -4.16,-6.14 -2.24,-0.05 -20.18,13.83 -0.64,3.2 9.29,13.61 -0.21,1.33"
     style="opacity:1;fill:none;fill-opacity:1;fill-rule:nonzero;stroke:#c39d88;stroke-width:1;stroke-linecap:butt;stroke-linejoin:round;stroke-miterlimit:4;stroke-dasharray:none;stroke-opacity:1" />
  <path
     id="path1072"
     d="m 628.23,6979.43 3.79,6.51 1.81,0.37 9.18,-1.33 2.62,2.08"
     style="opacity:1;fill:none;fill-opacity:1;fill-rule:nonzero;stroke:#efb7d3;stroke-width:1;stroke-linecap:butt;stroke-linejoin:round;stroke-miterlimit:4;stroke-dasharray:none;stroke-opacity:1" />
  <path
     id="path3378"
     d="m 936.07,6906.4 -15.59,-14.84 -11.96,-1.28 -2.99,-1.71 -5.55,-7.26 -5.98,-3.84 -7.69,-13.24 -9.82,-12.38 v -4.06 l 3.84,-2.99 0.43,-2.99 -28.83,-46.33 -9.82,-16.65 0.43,-6.39 -2.49,-3.55 -6.64,-3.7 -9.36,-14.95 -2.87,-1.21 -19.02,11.32 -4.68,0.3 -6.95,-3.17 -20.08,-2.42 -4.83,-2.57 -8.61,-6.34 -21.29,-30.35 -68.09,-88.63 -77.15,-101.16 -4.98,-5.89 -11.78,-14.04 4.23,-26.87 0.91,-33.22 -3.32,-12.08 0.6,-4.23 45.6,-48.01 6.43,-5.68"
     style="opacity:1;fill:none;fill-opacity:1;fill-rule:nonzero;stroke:#8bc63e;stroke-width:1;stroke-linecap:butt;stroke-linejoin:round;stroke-miterlimit:4;stroke-dasharray:none;stroke-opacity:1" />
  <path
     id="path3380"
     d="m 833.42,6765.18 0.83,6.87 2.19,3.77 5.69,2.99"
     style="opacity:1;fill:none;fill-opacity:1;fill-rule:nonzero;stroke:#efb7d3;stroke-width:1;stroke-linecap:butt;stroke-linejoin:round;stroke-miterlimit:4;stroke-dasharray:none;stroke-opacity:1" />
</svg>
