<svg xmlns="http://www.w3.org/2000/svg" height="2050" width="1400"><path d="m1282.08 100.79-46.77 109.5-11.86 16.14-9.97 12.34-6.64 11.86-6.64 21.12-2.37 22.54-62.41 149.02-9.25 19.69-49.59 79.49-18.03 24.2-94.92 116.03-42.24 52.2-159.46 195.05-55.29 68.1-14.95 14-25.39 15.42-24.44 9.97-23.02 13.29-202.41 113.19-15.19 12.34-5.93 7.36-6.41 11.86-5.22 14.24-11.39 63.36-4.51 10.2-8.54 10.2-70.95 55.05-7.83 10.92-7.12 20.41-17.08 58.61-2.85 7.36-4.51 7.83-3.56 20.64-15.19 97.29-5.93 42.47-1.19 4.98-4.51 7.36-16.85 18.51-3.56 4.75-1.66 7.12 17.56 103.69 1.66 13.76v10.68l-2.14 9.97-5.69 11.15-5.93 8.54-44.37 48.64-9.02 4.03-16.14 4.03" style="opacity:1;fill:none;fill-opacity:1;fill-rule:nonzero;stroke:green;stroke-width:5;stroke-linecap:butt;stroke-linejoin:round;stroke-miterlimit:4;stroke-dasharray:none;stroke-opacity:1"/><path d="m146.15 1867.51-8.78-4.51-8.07-.47-1.9 1.66M931.81 721.64l-5.46-15.42" style="opacity:1;fill:none;fill-opacity:1;fill-rule:nonzero;stroke:green;stroke-width:5;stroke-linecap:butt;stroke-linejoin:round;stroke-miterlimit:4;stroke-dasharray:none;stroke-opacity:1"/><path d="m127.41 1864.19-2.06 4.25v5.37l1.68 2.35 11.24.52.35 3.02 18.79 54.7 5.37 3.19 41.78-14.43" style="opacity:1;fill:none;fill-opacity:1;fill-rule:nonzero;stroke:green;stroke-width:1;stroke-linecap:butt;stroke-linejoin:round;stroke-miterlimit:4;stroke-dasharray:none;stroke-opacity:1"/><text style="font-style:normal;font-weight:400;font-size:144px;line-height:125%;font-family:Sans;-inkscape-font-specification:Sans;letter-spacing:0;word-spacing:0;fill:#000;fill-opacity:1;stroke:none" xml:space="preserve" y="206.96" x="89.45"><tspan y="206.96" x="89.45">2015</tspan></text></svg>