<?xml version="1.0" encoding="UTF-8" standalone="no"?>
<svg
   xmlns:dc="http://purl.org/dc/elements/1.1/"
   xmlns:cc="http://creativecommons.org/ns#"
   xmlns:rdf="http://www.w3.org/1999/02/22-rdf-syntax-ns#"
   xmlns:svg="http://www.w3.org/2000/svg"
   xmlns="http://www.w3.org/2000/svg"
   xmlns:xlink="http://www.w3.org/1999/xlink"
   viewBox="0 0 2100 2600"
   height="2600"
   width="2100"
   id="svg2"
   version="1.1">
  <metadata
     id="metadata8">
    <rdf:RDF>
      <cc:Work
         rdf:about="">
        <dc:format>image/svg+xml</dc:format>
        <dc:type
           rdf:resource="http://purl.org/dc/dcmitype/StillImage" />
        <dc:title></dc:title>
      </cc:Work>
    </rdf:RDF>
  </metadata>
  <defs
     id="defs6" />
  <image
     xlink:href="../streetmap/gotosm.png"
     width="1983"
     height="2704.0908"
     preserveAspectRatio="none"
     id="image10"
     x="100"
     y="-104.09094"
     style="display:none" />
  <path
     id="path905"
     d="m 1175.8051,1569.5763 -40.678,-52.7543 -3.5593,-9.1525 -5.9337,-22.0199"
     style="opacity:1;fill:none;fill-opacity:1;fill-rule:nonzero;stroke:#00aeef;stroke-width:1;stroke-linecap:butt;stroke-linejoin:round;stroke-miterlimit:4;stroke-dasharray:none;stroke-opacity:1" />
  <path
     id="path907"
     d="m 1577.9579,1428.0954 -0.8393,13.2182 4.9577,46.3983 4.322,16.9067 0.6356,6.7373 -1.6525,11.3136 -4.9577,11.1864 -6.3559,7.1187 -6.6102,4.8305 -35.339,14.2373 -12.5847,6.2288"
     style="opacity:1;fill:none;fill-opacity:1;fill-rule:nonzero;stroke:#00aeef;stroke-width:1;stroke-linecap:butt;stroke-linejoin:round;stroke-miterlimit:4;stroke-dasharray:none;stroke-opacity:1" />
  <path
     id="path909"
     d="m 1519.5339,1566.2712 -22.5,13.6017 -9.2797,3.5593 -31.7796,5.0847 -12.3305,-0.6355 -18.3051,-3.5594 -13.2204,-0.7627"
     style="opacity:1;fill:none;fill-opacity:1;fill-rule:nonzero;stroke:#00aeef;stroke-width:5;stroke-linecap:butt;stroke-linejoin:round;stroke-miterlimit:4;stroke-dasharray:none;stroke-opacity:1" />
  <path
     id="path911"
     d="m 1412.1186,1583.5593 -9.2796,1.2712 -6.3559,4.0678 -13.2204,11.3136 -9.2796,10.4237 -5.2119,4.0678 -46.1441,7.6271 -39.0254,7.5 -13.8559,1.7797 -20.339,-15.2543 -29.3644,-26.822 -2.9238,-0.6356 -15.3813,11.3136 -4.7034,-1.2712 -21.2288,-29.3644"
     style="opacity:1;fill:none;fill-opacity:1;fill-rule:nonzero;stroke:#00aeef;stroke-width:1;stroke-linecap:butt;stroke-linejoin:round;stroke-miterlimit:4;stroke-dasharray:none;stroke-opacity:1" />
  <path
     id="path913"
     d="m 1135.1271,1415.7627 2.161,-20.9746 -2.7966,-10.2966 -6.483,-9.1525 -30.8898,-40.5509 -2.0339,-5.8474 -13.4746,-44.3644 -4.9576,-7.1187 -7.6272,-4.4491 -12.3305,-3.5594 -38.3898,-2.0339 -32.16103,-2.5423 -10.55085,-0.7627"
     style="opacity:1;fill:none;fill-opacity:1;fill-rule:nonzero;stroke:#00aeef;stroke-width:1;stroke-linecap:butt;stroke-linejoin:round;stroke-miterlimit:4;stroke-dasharray:none;stroke-opacity:1" />
  <path
     id="path953"
     d="m 1135.1271,1415.7627 0.01,4.2079 6.8314,11.5055 8.4493,17.2582 5.053,16.6047 -3.7946,9.2826 -24.0365,7.3274"
     style="opacity:1;fill:none;fill-opacity:1;fill-rule:nonzero;stroke:#00aeef;stroke-width:1;stroke-linecap:butt;stroke-linejoin:round;stroke-miterlimit:4;stroke-dasharray:none;stroke-opacity:1" />
  <text
     style="font-style:normal;font-weight:normal;font-size:143.99993896px;line-height:125%;font-family:Sans;-inkscape-font-specification:Sans;letter-spacing:0px;word-spacing:0px;fill:#000000;fill-opacity:1;stroke:none"
     xml:space="preserve"
     id="text3784"
     y="206.96094"
     x="89.453133"><tspan
       id="tspan1"
       y="206.96094"
       x="89.453133">1955</tspan></text>
  <path
     id="path2410"
     d="m 1125.7945,1485.9971 2.0657,-4.3035"
     style="opacity:1;fill:none;fill-opacity:1;fill-rule:nonzero;stroke:#00aeef;stroke-width:1;stroke-linecap:butt;stroke-linejoin:round;stroke-miterlimit:4;stroke-dasharray:none;stroke-opacity:1" />
  <path
     id="path4477"
     d="m 640.76271,1337.5847 -17.61652,25.7628 -8.95127,30.6408 -7.57416,57.1505 -0.34428,20.6567 -5.16419,15.1484 -20.3125,38.5593 -11.70551,51.2976"
     style="opacity:1;fill:none;fill-opacity:1;fill-rule:nonzero;stroke:#00aeef;stroke-width:5;stroke-linecap:butt;stroke-linejoin:round;stroke-miterlimit:4;stroke-dasharray:none;stroke-opacity:1" />
  <path
     id="path915"
     d="m 975.59322,1264.1102 -15.50847,0.1271 -17.28814,1.6525 -15.50847,0.5085 -15.12712,-2.4153 -41.05932,-1.144 -31.14407,7.1186 -107.92373,28.2204 -66.61017,17.161 -10.55085,5.2118 -6.8644,5.5933 -7.24577,11.4406"
     style="opacity:1;fill:none;fill-opacity:1;fill-rule:nonzero;stroke:#00aeef;stroke-width:5;stroke-linecap:butt;stroke-linejoin:round;stroke-miterlimit:4;stroke-dasharray:none;stroke-opacity:1" />
</svg>
