<svg xmlns="http://www.w3.org/2000/svg" height="2520" width="2400"><path d="M2249.5 1204l-1 37.5-2 31-5 15.5-7 14-22.5 22-69 63.5-30.5 27.5-40.5 33.5-22 11-16 3-38.5-2.5-40-13.5-52-29-73.5-47.5-12-8.5" fill="none" stroke="#fddd04" stroke-width="5" stroke-linejoin="round"/><path d="M669.485 751.536L677.5 755 841 823l162.5 63.5L1142 944l120 52.5 16 7 54 37 77 50.5 39 26 24 13.5 26.5 13 26 14.5 20 11 67.5 43.5 141 92.5 81 52.5 55.5 36.5 5.5 6 2 8-4 8-24 39.5-34 59-33.5 52.5-28.5 39-11.163 14.374" fill="none" stroke="#f47216" stroke-width="5" stroke-linejoin="round"/><path d="M1918.222 1082.484L1943.5 1097l11 11.5 8.5 16 .5 12-2 15-51.5 80.5-99.5 152-32 52.5-13.727 8.705-7.755 7.808-10.128 26.667-8.466 13.578L1670.5 1595l-38.5 58-11 22-65.3 78.085" fill="none" stroke="#00a650" stroke-width="5" stroke-linejoin="round"/><text style="-inkscape-font-specification:Sans" y="206.96094" x="89.453133" font-weight="400" font-size="143.99990845px" font-family="Sans"><tspan y="206.96094" x="89.453133">1975</tspan></text><text style="-inkscape-font-specification:Sans" y="2417.9609" x="89.453133" font-weight="400" font-size="143.99990845px" font-family="Sans"/></svg>