<?xml version="1.0" encoding="UTF-8" standalone="no"?>
<svg
   xmlns:dc="http://purl.org/dc/elements/1.1/"
   xmlns:cc="http://creativecommons.org/ns#"
   xmlns:rdf="http://www.w3.org/1999/02/22-rdf-syntax-ns#"
   xmlns:svg="http://www.w3.org/2000/svg"
   xmlns="http://www.w3.org/2000/svg"
   xmlns:xlink="http://www.w3.org/1999/xlink"
   version="1.1"
   id="svg2"
   width="4600"
   height="4700"
   viewBox="0 0 4600 4700">
  <metadata
     id="metadata8">
    <rdf:RDF>
      <cc:Work
         rdf:about="">
        <dc:format>image/svg+xml</dc:format>
        <dc:type
           rdf:resource="http://purl.org/dc/dcmitype/StillImage" />
        <dc:title></dc:title>
      </cc:Work>
    </rdf:RDF>
  </metadata>
  <defs
     id="defs6" />
  <image
     style="display:none"
     width="4892"
     height="4892"
     preserveAspectRatio="none"
     xlink:href="file:///home/lexande/timelines/timelines/streetmap/../streetmap/kmgosm.png"
     id="image10"
     x="-200"
     y="-17" />
  <path
     style="opacity:1;fill:none;fill-opacity:0.39;fill-rule:nonzero;stroke:#dc1226;stroke-width:5;stroke-linecap:butt;stroke-linejoin:round;stroke-miterlimit:4;stroke-dasharray:none;stroke-opacity:1"
     d="m 2192.41,222.53 -32,-22.78 -56.95,-14.64 -22.24,-9.76 -13.11,-10.68 -28.76,-39.89 -11.89,-9.59 -24.16,-4.22 -15.72,1.92 -19.94,18.41 -18.79,28.0 -17.64,37.2 -123.11,359.35 -15.72,25.31 -86.29,97.03 -23.01,28.76 -85.52,266.54 -20.33,51.39 -1.15,21.48 4.99,298.76 28.0,294.54 5.37,7.29 38.35,24.16 46.79,18.03 9.59,8.44 3.45,11.89 22.24,78.62 12.66,21.86 17.26,18.41 95.5,49.47 13.81,8.82 8.05,18.03 35.28,93.19 16.49,36.05 11.89,11.12 28.38,15.34 65.96,20.71 176.42,9.97 15.34,10.74 2.3,13.04 -1.15,174.5 6.52,47.94 19.18,281.88 6.52,28.76 60.21,234.71 14.96,26.08 40.27,159.16 9.2,26.08 18.03,33.37 25.7,31.83 19.56,19.56 23.78,20.71 274.21,189.84 74.79,44.87 43.72,12.27 48.71,13.04 36.05,17.26 33.37,23.01 21.86,26.85 11.89,26.46 26.46,83.99 124.26,382.75 128.86,394.25 -4.99,22.63 -13.81,15.34 -52.16,41.04 -36.05,11.12 -85.91,50.62 -57.53,37.2"
     id="path817" />
  <text
     style="font-style:normal;font-weight:normal;font-size:144.0px;line-height:125%;font-family:Sans;-inkscape-font-specification:Sans;letter-spacing:0px;word-spacing:0px;fill:#000000;fill-opacity:1;stroke:none"
     xml:space="preserve"
     id="text3019"
     y="206.96"
     x="89.45"><tspan
       id="tspan1"
       y="206.96"
       x="89.45">2015</tspan></text>
  <text
     style="font-style:normal;font-weight:normal;font-size:144.0px;line-height:125%;font-family:Sans;-inkscape-font-specification:Sans;letter-spacing:0px;word-spacing:0px;fill:#000000;fill-opacity:1;stroke:none"
     xml:space="preserve"
     id="text3019-6"
     y="4597.96"
     x="89.45"><tspan
       id="tspan2"
       y="4597.96"
       x="89.45">2015</tspan></text>
</svg>
