<?xml version="1.0" encoding="UTF-8" standalone="no"?>
<svg
   version="1.1"
   id="svg2"
   width="2200"
   height="3350"
   viewBox="-550 -200 2200 3350"
   xmlns:xlink="http://www.w3.org/1999/xlink"
   xmlns="http://www.w3.org/2000/svg"
   xmlns:svg="http://www.w3.org/2000/svg"
   xmlns:rdf="http://www.w3.org/1999/02/22-rdf-syntax-ns#"
   xmlns:cc="http://creativecommons.org/ns#"
   xmlns:dc="http://purl.org/dc/elements/1.1/">
  <metadata
     id="metadata8">
    <rdf:RDF>
      <cc:Work
         rdf:about="">
        <dc:format>image/svg+xml</dc:format>
        <dc:type
           rdf:resource="http://purl.org/dc/dcmitype/StillImage" />
      </cc:Work>
    </rdf:RDF>
  </metadata>
  <defs
     id="defs6" />
  <image
     xlink:href="../basemap/ccuosm.png"
     style="display:none"
     width="2182.25"
     height="3429.25"
     preserveAspectRatio="none"
     id="image10"
     x="-623.5"
     y="-399.25" />
  <path
     style="opacity:1;fill:none;fill-opacity:0.02;fill-rule:nonzero;stroke:#24268b;stroke-width:5;stroke-linecap:butt;stroke-linejoin:round;stroke-miterlimit:4;stroke-dasharray:none;stroke-opacity:1"
     d="m 953.5,2707.5 49.5,45 4,10.5 -2,13 -4,9 -12.5,7.5 -123.5,18.5 -40,14.5 h -15.5 l -28.5,-7 -17.5,2.5 -37.5,14.5 -36.5,5.5 -17,-6 -11.5,-6.5 -20.5,-27.5 -23,-11 -9,-12 -16.5,-14 -18,-7 -28,-2.5 -23,-7.5 -59.5,-32.5 -64,-45.5 -27,-5 -36,-17.5 -35,-27 -46,-15.5 -43.5,-36.5 -6,-9.5 -6,-21 -28,-21 -5,-10.5 -0.5,-10.5 4,-15.5 13.5,-12 12.5,-16 11.5,-46 4.5,-44.5 -2.5,-34.5 2,-64 15,-209 -3,-32.5 13,-60 -4.5,-33 -3,-47.5 -10.5,-42 7,-64 2,-33 40,-232.5 18.5,-84 9,-111.5 10,-34.5 76.5,-42 6,-9 44.5,-143.5 76,-306 4.5,-6 71,-38.5 232,-80.5 52,-19 20.5,-17 13,-23 1,-20.5 -15.5,-222 6.5,-67 -6,-72 22,-88 8.34,-38.18 -0.06,-29.82 -8.3,-19.91 -19.58,-21.55 -31.78,-30.29 -23.44,-12.13 -180.13,-58.43 -27.16,-4.51 -75.69,4.04 -84.4,7.4"
     id="path4506" />
  <text
     style="font-style:normal;font-weight:normal;font-size:144px;line-height:125%;font-family:Sans;-inkscape-font-specification:Sans;letter-spacing:0px;word-spacing:0px;fill:#000000;fill-opacity:1;stroke:none"
     xml:space="preserve"
     id="text2992"
     y="6.96"
     x="-460.55"><tspan
       id="tspan1"
       y="6.96"
       x="-460.55">2025</tspan></text>
  <path
     style="fill:none;stroke:#008000;stroke-width:5;stroke-linejoin:round;stroke-opacity:1"
     d="m 51.65,1007.13 8.01,-14.76 6.02,-3.88 10.48,-1.22 39.61,8.66 27.03,10.65 48.1,20.59 58.37,8.74 31.87,7.56 24.7,11.38 5.95,9.14 3.56,20.03 -0.07,15.88 -16.81,55.64 -35.8,110.26 2.58,12.74 9.53,13.24 17.12,15.44 14.13,9.49 30.68,9.04 21.96,1.94 20.99,-4.52 16.79,-11.62 17.76,-17.11 19.37,-45.85 10.33,-10.01 17.11,-6.46 16.15,0.97 92.03,34.87 15.44,5.49 23.26,-1.88 16.05,-3.95 42.87,-23.24 42.26,-18.02 52.77,-25.75 60.65,-16.69 24,-2.92 39.42,3.62 35.45,9.22 37.62,3.01 29.06,7.59 33.73,5.66 12.23,-2.21 5.88,-7.32 1.59,-7.85 -4.27,-20.82 -29.79,-124.34 -4.77,-18.67 2.78,-10.73 8.74,-11.92 170.82,-108.45 12.31,-2.78 61.97,13.11 8.34,5.56 88.19,143.41 11.52,5.56 10.73,-1.59 36.94,-22.25"
     id="path302" />
  <path
     style="fill:none;stroke:#ff7800;stroke-width:5;stroke-linejoin:round;stroke-opacity:1"
     d="m 973.72,2738.3 -60,-54.78 -23.15,-15.11 -34.67,-34.06 -5.38,-17.01 -0.13,-15.98 3.17,-12.13 34.16,-66.74 81.88,-167.37 13.66,-38.54 12.55,-48.68 5.07,-28.27 17.54,-119.1 -0.93,-37.04 -3.27,-14.88 -4.41,-18.69 -14.92,-39.22 -68.5,-126.04 -5.48,-18.27 1.83,-18.27 15.98,-53.89 43.84,-182.67 10.96,-42.93 6.39,-13.24 9.13,-11.42 48.86,-44.3"
     id="path3349" />
  <path
     style="fill:none;stroke:#8100fb;stroke-width:5;stroke-linejoin:round;stroke-opacity:1"
     d="m -406.12,3026.23 66.02,-101.3 5.55,-15.97 3.35,-33.09 22.46,-78.89 19.83,-43.04 2.97,-18.16 -1.67,-39.45 9.46,-114.61 5.98,-16.92 27.06,-63.22 15.47,-45.75 23.52,-46.8 11.2,-33.12 8.68,-38.15 6.22,-39.31 9.65,-43.83 34.79,-89.53 14.06,-56.79 19.93,-68.62 12.84,-53.59"
     id="path9257" />
  <path
     style="fill:none;fill-opacity:0;stroke:#fcd905;stroke-width:5;stroke-linejoin:round;stroke-opacity:1"
     d="m 913.49,129.71 -12.22,48.86 v 12.56 l 5.48,10.5 10.73,6.62 20.78,4.57 15.07,4.11 110.51,56.85 10.96,2.05 10.5,-0.68 10.5,-3.88 18.49,-11.42 13.47,-11.64 14.38,-21.46 29.91,-69.87 7.99,-7.99 11.19,-5.94 12.33,-1.6 16.21,0.68 68.04,22.6 13.01,10.5 20.78,31.05 12.33,5.02 11.64,0.46 13.24,-5.02 61.88,-66.67 22.38,-18.04 61.42,-37.45 8.68,-9.13 3.42,-10.96 5.25,-43.15"
     id="path1" />
</svg>
