<svg xmlns="http://www.w3.org/2000/svg" height="12900" width="10300"><path d="M967.991 7039.314l29.68 42.063 11.102 13.559 11.317 14.52 7.473 12.81 19.644 38.968-.32 2.669-118.29 69.927-3.203.854-12.384-3.31-4.27 1.175-17.296 9.288-7.366 7.367-3.096 1.067-13.345-.213-2.562 1.067-6.94 11.317-166.641 144.713v2.868l7.096 17.212 4.227.755 6.794-5.737v-2.869l-11.474-13.135.755-5.738" fill="none" stroke="#efb7d3" stroke-linejoin="round"/><path d="M6429.662 2308.138l12.117 9.376 12.323 16.363 3.174 14.139-.124 10.736-4.389 14.693-6.369 9.44-7.56 9.827-5.975 11.145-2.988 12.63-2.595 13.66 2.39 10.424 5.974 14.42 18.954 17.78 15.476 10.963 84.049 224.225 15.515 31.03 21.14 55.366 8.779 23.738 6.984 31.833 15.289 40.86 26.724 51.222 65.524 112.586 39.029 68.237 7.802 6.935 7.678 2.105 9.908.743h11.022l9.412-4.21 15.48-10.899 24.567-18.67 23.82-15.062 95.627-52.892 20.666-8.407h13.311l14.362 5.604 12.26 8.407 28.372 27.673 30.475 30.474 134.508 239.593" fill="none" stroke="#cd0d40" stroke-width="5" stroke-linejoin="round"/><path d="M6426.69 2312.101l11.56 8.757 11.208 15.062 2.802 11.91v9.808l-4.203 14.011-5.254 7.706-8.057 10.509-6.655 12.26-2.802 13.31-3.153 14.712 2.452 10.859 6.655 16.463 20.317 19.266 14.361 10.158 83.368 222.43 15.762 31.525 21.017 54.994 8.407 23.119 7.356 32.576 15.412 40.983 26.972 51.842 65.153 112.09 295.988 516.317 14.012 10.859 15.762 4.904 24.17-3.503 91.073-25.571 14.362-1.401 98.08-.7" fill="none" stroke="#e5c103" stroke-width="5" stroke-linejoin="round"/><path d="M6139.808 3487.824l-4.466 3.59-26.358-9.72" fill="none" stroke="#008f4d" stroke-linejoin="round"/><path d="M973.492 10623.954l82.666-13.31 21.368-12.961 12.323-17.019 2.576-19.038-4.263-86.439 5.109-15.515 29.805-46.743 12.522-10.859 18.838-4.918 44.638-.198 53.076-1.67 34.494-8.036 38.262-17.492 25.49-23.576 9.44-13.974 17.567-31.305 15.727-31.783 23.119-52.192 16.113-33.977 12.61-12.61 12.61-3.503h15.763l39.932 12.61 84.068 14.361 53.943-11.559 22.769.701 174.09 51.842 14.712 2.452 20.667-.351 98.78-27.322 18.915-12.96 12.96-17.865 20.316-45.186 19.616-17.164 71.458-48.339 22.068-1.751 43.084-10.859 35.73-12.61 17.163-1.751 18.565 3.853 19.616 9.457 59.548 43.785 14.011 7.707 16.113 4.553 22.768.701 23.82-6.655 18.915-19.616 7.356-21.017 24.297-142.855 8.175-27.182 12.973-21.89 15.454-16.746 33.217-20.153 8.51-8.757 22.444-53.668-.054-10.435-2.378-18.086.669-12.957 7.207-15.901 40.585-62.18 5.48-14.147 17.043-95.956-.588-17.44-5.848-9.443-126.16-84.544-8.342-10.807-2.325-67.042-12.854-33.613-3.238-19.421-19.594-54.91-10.077-8.017-9.54-1.458-38.594 12.274-28.312 3.131" fill="none" stroke="#00a0e2" stroke-width="5" stroke-linejoin="round"/><path d="M2273.566 9465.129l31.324-14.883 26.997-15.852 26.998-20.062 39.135-42.603 18.329-9.412 128.054-41.859 86.195-55.234 20.806-25.512 11.393-18.824 10.899-9.164 47.06.99 28.98 3.468 30.217 9.66 28.484 5.944 19.803 9.05 110.976 27.113 27.741 7.678 60.436 23.53 21.053 7.43 39.382 4.46 55.482-.249 36.41-13.127 77.031-39.878 14.366-12.136 13.598-25.192.073-23.107-7.008-29.71-22.032-78.094-11.774-12.922-19.58-15.985-6.904-10.36-3.613-10.954-40.723-156.67-3.878-20.981-4.241-10.857-5.605-14.537-38.356-147.294v-15.062l10.158-14.362 12.96-7.706 46.939-11.56 46.587-17.163 101.232-17.864 10.859-4.904 59.197-43.435" fill="none" stroke="#e1d201" stroke-width="5" stroke-linejoin="round"/><path d="M2271.504 9460.717l29.422-14.186 27.99-16.1 26.006-19.072 39.63-43.593 19.32-9.907 128.55-42.107 85.204-54.49 19.815-24.027 11.889-19.815 11.889-10.402 49.29.743 29.227 3.22 31.208 10.155 29 5.993 20.748 9.153 108.524 26.763 29.317 7.853 59.21 23.18 21.229 7.781 36.93 4.283 57.058-.598 35.009-12.602 75.63-39.352 12.964-9.86 13.073-23.79.073-22.407-6.833-28.834-21.506-76.693-10.898-11.697-18.354-15.108-8.482-11.412-3.787-10.953-41.424-158.247-3.878-21.331-3.716-9.806-5.78-14.187-38.706-149.745-5.604-12.786-16.288-7.356-15.413 1.401-82.492 21.543" fill="none" stroke="#23b24b" stroke-width="5" stroke-linejoin="round"/><path d="M2390.735 9222.124l-90.373 26.972-105.085 7.356-296.339 33.277h-15.587l-37.831-8.757-51.144-22.461-39.229-26.054-32.05-19.09-23.803-11.303-27.245 3.468-22.787 7.926-22.292 9.412-141.677 104.524-140.687 156.042-27.74 24.77-27.246 18.823-31.704 16.348-100.561 33.19-62.417 13.87-26.75-.495-39.135-10.403-621.2-197.654-40.62-17.338-14.838-10.186M6331.377 2942.808l-21.51-17.787-28.284-14.672-27.047-6.54-354.084 22.45-23.202-1.509-66.125-13.625-173.01-.776-20.859 4.243-17.677 4.596-24.75 13.788-13.08 11.314-88.035 85.56-17.325 15.203-15.556 13.081-19.799 12.021-33.587 15.556-46.316 14.496-16.263 8.132-32.527 18.738-22.274 18.031-16.617 19.8-128.693 193.393-26.163 33.588-38.184 32.527-127.28 78.135-47.022 22.274-38.537 14.142-43.84 9.546-120.916 13.082-36.416 7.424-65.407 18.032-22.274 8.838-32.527 18.739-60.772 44.721-71.867 59.789-370.206 420.935-344.841 392.551-33.82 26.573-55.561 28.988-46.502 11.475-237.947 22.345-56.165 12.079-47.106 21.137-101.459 53.145-232.51 75.491-46.503 18.722-119.577 72.47-35.632 25.97-21.137 27.176-18.722 30.8-12.078 33.216-10.267 42.879v39.859l39.86 160.644 6.642 44.086-3.623 39.255-9.06 35.028-42.878 74.283L2505.5 5542l-9.48 13.069" fill="none" stroke="#6d7d86" stroke-width="5" stroke-linejoin="round"/><text style="line-height:125%;-inkscape-font-specification:Sans" y="206.96103" x="89.453087" font-weight="400" font-size="143.99993896px" font-family="Sans" letter-spacing="0" word-spacing="0"><tspan y="206.96103" x="89.453087">1985</tspan></text><text style="line-height:125%;-inkscape-font-specification:Sans" y="12797.961" x="89.453133" font-weight="400" font-size="143.99993896px" font-family="Sans" letter-spacing="0" word-spacing="0"/><path d="M7907 3424.5l-63-35.5-69.5-70-135.5-112-135-96-153-92.5-136-105-42-39-62.5-37-105-55.5-268.5-183-17.5-21-10-30.5-1-44 22.5-64-7.5-50.5-14-16-14.213-12.18-19.96-8.684L6535 2320l-34 4-31.5-8-53-30M7907 3424.5l146 64.5 69.5 34 90.5 65 44.5 22 37 9 31 6 386.5 38.5 36 12 37 24 23.5 30.5 16 38 147 625 8.5 38 10 33 39 103 46 87.5 35 78 5 25.5-4 41-29.5 446.5-6.5 26-241 641-141 337.5-5.5 26.5 4 41-11 17-13 22.5-18 10-143.5 50.5-66 29-32 24.5-47 43.5-17 29.5-11 30.5v36.5l7 26.5 51.5 96M1024 6857.5l53.25 63.75 17 10.25 25.25.625 30.25-10.75 63.67-44.418 17.455-12.332 7.589-11.216 20.548-36.078 18-16.346 33.373-7.236 32.576 6.095 177.463 86.963 36.264 11.992 21.247 17.635 175.399 208.371 41.834 52.975.273.295 29.475 26.998 1.426.642 103.039 10.899.088.01 70.838 4.953.488-.014 62.912-7.926.535-.129 61.922-22.29.381-.177 99.97-56.418 42.204-19.138 29.049-4.842 33.088 3.892 53.265 17.264c.04.013.08.024.12.035l137.626 37.159" fill="none" stroke="#6d7d86" stroke-width="5" stroke-linejoin="round"/><path d="M2521.867 7168.993l34.726.98 27.073-7.735 30.546-13.795.793-.21 26.256-2.477 1.043.123 20.31 6.933.514.245 33.67 20.984 33.729 2.89 29.39-5.78 15.202-9.977 54.902-57.952 5.662-18.635-4.706-20.806-10.155-13.127-15.11-7.679-74.306-13.127-40.868-10.403-120.376-49.29-17.338.248-19.32 6.192-14.118 12.88-26.502 62.417-9.165 10.155-65.141 28.237-11.146 10.898-6.936 15.852-10.155 33.933.496 25.264 1.981 38.392-3.468 14.613-19.071 66.38.495 15.605 4.954 12.136 9.164 10.156 12.384 8.173 95.608 10.403 16.1-3.715 14.117-8.917 74.554-87.434 3.468-11.145-4.21-20.063-22.293-34.429-10.402-6.687-42.351-10.706" style="line-height:normal;font-variant-ligatures:normal;font-variant-position:normal;font-variant-caps:normal;font-variant-numeric:normal;font-variant-alternates:normal;font-feature-settings:normal;text-indent:0;text-align:start;text-decoration-line:none;text-decoration-style:solid;text-decoration-color:#000;text-transform:none;text-orientation:mixed;shape-padding:0;isolation:auto;mix-blend-mode:normal" color="#000" font-weight="400" font-family="sans-serif" white-space="normal" overflow="visible" fill="none" stroke="#6d7d86" stroke-width="5" stroke-linejoin="round"/><path d="M5794.136 2612.308l180.514-1.24 8.932-2.978 16.99 7.706 203.688-84.593 13.837-7.18 2.627.35 11.865 11.034 4.598-.263 18.215-14.93 1.094-5.036 52.674-39.889 11.516-6.305-.044-3.109-7.75-10.99.394-4.378 4.422-5.08 1.007-12.522 11.69-26.446-.568-26.71 1.275-5.754 12.736-26.384 28.592-29.861 5.983-10.443 12.924-4.377 4.251.72 8.547 7.332 3.62-1.432 5.325-6.563v-3.592l-10.093-8.143-3.344.28-5.985 8.48-1.087 2.85" fill="none" stroke="#5fba45" stroke-linejoin="round"/><path d="M5572.378 2635.135l60.188-18.081 28.148-4.03 14.687-.725 119.215-1.561 77.343-.255" fill="none" stroke="#5fba45" stroke-width="5" stroke-linejoin="round"/><path d="M5573.493 2636.745l-4.954-.99-20.31-61.922-4.21-1.61-32.2 11.022-1.61 3.839 1.114 10.031-1.362 2.23-157.653 52.261" fill="none" stroke="#5fba45" stroke-linejoin="round"/><path d="M1077.25 6921.25l8.25 13.25 1 19.5-9 14-84.5 59.5-59.5 56-34.5 50-18.5 54-9.5 69 3.5 42.5 11 43 22.5 53 55.5 72.5L1250 7838l62.5 101.5 16.5 53 19 76 366.5 1108 10.578 23.492 30.07 32.465" fill="none" stroke="#6d7d86" stroke-width="5" stroke-linejoin="round"/><path d="M986.174 7026.995l-5.265 5.38-43.13 40.462-8.648 8.22-23.488 33.95-15.373 23.38-11.85 9.822-5.675 6.543" fill="none" stroke="#8bc63e" stroke-width="5" stroke-linejoin="round"/><path d="M982.607 7023.591l-5.114 5.154-43.131 40.462-8.648 8.22-23.487 33.95-15.373 23.38-11.85 9.822-5.449 4.731" fill="none" stroke="#efb7d3" stroke-width="5" stroke-linejoin="round"/><path d="M979.065 7020.118l-5.416 5.531-43.13 40.462-8.648 8.22-23.487 33.95-15.374 23.38-11.85 9.822-4.844 4.052" fill="none" stroke="#c39d88" stroke-width="5" stroke-linejoin="round"/><path d="M872.745 7154.752l-1.584 2.982-1.057 8.455-20.08 24.006-17.514 19.93-14.645 12.229-89.38 46.502-55.864 49.673-9.512 7.7-19.778 14.192-12.532 14.645-32.31 27.328-206.39 175.289M984.359 7026.034l4.664-3.321 25.409-17.509 2.242-4.323.64-12.491-1.174-12.491-1.815-3.523-15.907-14.2-62.348-51.778-.107-4.484 29.146-15.8 8.434 2.028 6.192-5.234 3.203-.424 8.007 10.462 3.01.034 13.537-10.71 12.918-7.473.534-4.27-27.971-35.978-12.384-8.434-21.032-11.21-5.338-5.551-17.188-28.612-79.75-157.15-4.91-6.94-7.26-8.22-10.57-8.434-19.75-12.812-25.73-15.907-1.92-1.815-1.923-7.26-1.387-2.348-5.125-4.484-2.562-3.523-6.833-13.452-9.395-9.074-3.63-5.979-1.814-6.192-1.175-15.053-2.882-11.103-7.9-11.957-7.794-7.794-9.822-5.978-26.05-12.598-8.113-5.231-7.046-6.833-12.491-19.217-7.366-6.405-16.975-8.968-4.27-4.59-3.63-10.143-7.794-7.046-2.776-3.416-.213-4.805 10.142-11.743.854-12.17 48.042-48.897" fill="none" stroke="#8bc63e" stroke-linejoin="round"/><path d="M868.595 7147.495l-3.804 3.898-5.633 1.056-9.436.075-10.267-2.944-9.587-3.85-13.89-7.02-8.078-6.266-4.076-3.85-36.849-63.896-17.78-25.494-4.854-1.18-13.12 6.602-34.896-6.319-44.237-28.988-3.624-5.737-3.774-23.251-2.567-2.567-11.324 2.567-2.566-.906L608 6943.19 600 6925.978l-2.868-2.265-34.424 4.227-8.304-.905-30.574-8.455-48.955 28.497-4.417-1.472-62.204-102.29-.226-3.321 3.623-22.119-2.114-6.568-5.284-8.153-22.949-28.157-34.348-27.253" fill="none" stroke="#efb7d3" stroke-linejoin="round"/><path d="M868.33 7146.234l-4.11 4.324-5.39.907H849.7l-9.875-2.829-9.723-3.886-14.031-7.11-7.658-6.067-3.872-3.648-36.939-64.056-17.509-25.516-26.156-36.832-4.804-14.412-13.879-43.558-16.868-33.736-43.878-50.178-9.075-8.113-16.974-9.609-8.434-2.882-25.089-6.833-6.726-3.203-8.434-7.26-5.338-6.512-20.07-37.259-6.94-16.12-3.523-14.306-11.317-49.217-1.174-9.288-3.95-55.195 2.349-8.86 6.192-10.036 25.302-31.494 10.462-20.071.64-7.366-1.174-7.58-5.23-7.367-7.367-3.523-10.57-4.27-4.483-3.523-3.203-4.591-1.602-3.737-.533-5.444-2.35-5.125-3.202-5.018-1.601-4.91-1.815-8.648.106-7.26.748-8.647-1.725-3.797-3.746-4.36-.467-3.565 1.88-3.865" fill="none" stroke="#c39d88" stroke-linejoin="round"/><path d="M981.656 7024.528l6.353-2.242 7.096-4.968 18.526-12.754 2.028-3.95.694-11.957 3.256-11.584 5.979-7.526 28.985-20.125 1.708-4.804 2.67-30-.961-3.95-22.527-27.65-13.696-13.004-27.993-36-12.064-8.326-18.523-9.822-6.726 1.067-33.211 22.23-4.832 7.852-12.682 4.68-16.004 10.72-1.359 1.51-1.337 3.533 6.259 10.68 6.162 3.917 5.205 7.127 3.552 2.03 11.816 1.198 15.085 14.426 62.35 51.58 16.13 14.495 1.536 3.218 1.222 12.528" fill="none" stroke="#efb7d3" stroke-linejoin="round"/><path d="M979.681 7021.912l7.794-.48 7.206-4.911 18.256-12.651 1.762-3.683.747-11.157-4.164-6.138-2.242-.053-20.177 13.825-.64 3.203 9.287 13.612-.213 1.334" fill="none" stroke="#c39d88" stroke-linejoin="round"/><path d="M628.233 6979.425l3.785 6.51 1.815.373 9.181-1.335 2.616 2.082" fill="none" stroke="#efb7d3" stroke-linejoin="round"/><path d="M936.07 6906.398l-15.587-14.84-11.957-1.28-2.99-1.709-5.55-7.26-5.98-3.843-7.686-13.238-9.822-12.384v-4.057l3.843-2.99.427-2.989-28.825-46.333-9.822-16.655.43-6.39-2.492-3.548-6.643-3.7-9.36-14.946-2.87-1.208-19.023 11.323-4.68.302-6.946-3.17-20.08-2.416-4.832-2.567-8.605-6.34-21.289-30.348-68.092-88.626-77.152-101.158-4.982-5.888-11.777-14.041 4.228-26.875.906-33.216-3.322-12.078.604-4.227 45.596-48.012 6.435-5.676" fill="none" stroke="#8bc63e" stroke-linejoin="round"/><path d="M833.416 6765.183l.83 6.87 2.19 3.774 5.685 2.993" fill="none" stroke="#efb7d3" stroke-linejoin="round"/></svg>