<?xml version="1.0" encoding="UTF-8" standalone="no"?>
<svg
   viewBox="-950 0 11250 11300"
   height="11300"
   width="11250"
   id="svg2"
   version="1.1"
   xmlns:xlink="http://www.w3.org/1999/xlink"
   xmlns="http://www.w3.org/2000/svg"
   xmlns:svg="http://www.w3.org/2000/svg"
   xmlns:rdf="http://www.w3.org/1999/02/22-rdf-syntax-ns#"
   xmlns:cc="http://creativecommons.org/ns#"
   xmlns:dc="http://purl.org/dc/elements/1.1/">
  <metadata
     id="metadata8">
    <rdf:RDF>
      <cc:Work
         rdf:about="">
        <dc:format>image/svg+xml</dc:format>
        <dc:type
           rdf:resource="http://purl.org/dc/dcmitype/StillImage" />
      </cc:Work>
    </rdf:RDF>
  </metadata>
  <defs
     id="defs6" />
  <image
     xlink:href="../basemap/amsosm.png"
     width="11333"
     height="12775.38"
     preserveAspectRatio="none"
     id="image10"
     x="-1000"
     y="74.62"
     style="display:none" />
  <path
     id="path1001"
     d="m 6164.95,2895.33 91.7,-5.98 29.9,7.99 28.7,13.45 9.62,0.77 9.18,-4.91 4.91,-6.62 2.78,-11.96 -6.41,-49.75 -2.56,-20.93 7.47,-93.09 -4.48,-32.24 -7.47,-34.16 -0.86,-10.86 5.98,-57.9 3.2,-18.36 19.43,-94.16 1.49,-11.96 -0.85,-8.97 -6.62,-12.38 -0.21,-8.97 2.99,-37.15 1.92,-12.38 4.06,-10.04 36.08,-42.92 16.87,-18.79 26.26,-41.42 9.18,-12.17 16.87,-16.65 40.78,-32.67 70.03,-56.16 19.43,-16.44 15.8,-17.3 14.31,-22.63 7.47,-19.22 12.6,-31.6 13.02,-24.13 14.09,-21.57 59.79,-76.65"
     style="opacity:1;fill:none;fill-opacity:1;fill-rule:nonzero;stroke:#00abe7;stroke-width:5;stroke-linecap:butt;stroke-linejoin:round;stroke-miterlimit:4;stroke-dasharray:none;stroke-opacity:1" />
  <path
     id="path886"
     d="m 919.75,9542.14 110,35 38.78,10.31 26.15,0.48 62,-13.78 100.26,-33.09 31.39,-16.18 26.98,-18.64 27.52,-24.57 140.6,-155.94 0.37,-0.34 141.68,-104.52 0.51,-0.29 22.29,-9.41 0.15,-0.06 22.79,-7.93 0.51,-0.12 27.25,-3.47 0.42,-0.02 v 0 l 0.96,0.24 23.8,11.3 13.02,9.34 15.48,16.3 38.75,25.73 22.42,10.17"
     style="fill:none;stroke:#23b24b;stroke-width:5;stroke-linecap:butt;stroke-linejoin:round;stroke-miterlimit:4;stroke-dasharray:none;stroke-opacity:1" />
  <path
     id="path4627"
     d="m 5792.98,2612.65 178.69,-3.16 9.46,-12.61 -2.1,-77.41 3.5,-4.55 20.32,-0.35 12.61,-5.95 23.82,-1.4 11.91,6.66 64.02,-24.36 46.7,-22.26 49.01,-20.63 1.05,-3.5 -19.27,-44.84 1.75,-5.95 67.95,-27.32 19.97,1.4 11.21,8.41 31.18,3.5 2.94,-0.08 1.84,-1.59 0.94,-3.67 12.72,-26.02 9.29,-9.84 19.17,-19.98 6.21,-10.65 13.46,-4.56 4.6,0.85 8.39,7.17 2.97,-1.24 4.95,-6.01 -0.12,-2.82 -9.26,-7.46 -2.6,-1e-4 -5.79,8.17 -0.77,1.73"
     style="opacity:1;fill:none;fill-opacity:1;fill-rule:nonzero;stroke:#7ec140;stroke-width:1;stroke-linecap:butt;stroke-linejoin:round;stroke-miterlimit:4;stroke-dasharray:none;stroke-opacity:1" />
  <path
     id="path4667"
     d="m 5793.51,2613.65 181.03,-3.17 9.04,-2.39 16.99,7.71 203.69,-84.59 13.84,-7.18 2.63,0.35 11.87,11.03 4.6,-0.26 15.19,-12.45 4.84,0.83 3.76,4.47 5.5,13.75 54.13,41.42 8.75,3.95 57.76,4.38 14.52,-1.92 41.64,-10.46 109.96,-36.94 3.2,1.28 25.2,65.55 3.42,0.75 114.23,-46.65 5.12,-1.28 32.45,0.85 1.6,2.46 0.11,9.5 -5.02,4.16 -2.88,-0.32 -7.79,-13.88 -3.42,-2.46"
     style="opacity:1;fill:none;fill-opacity:1;fill-rule:nonzero;stroke:#ff5632;stroke-width:1;stroke-linecap:butt;stroke-linejoin:round;stroke-miterlimit:4;stroke-dasharray:none;stroke-opacity:1" />
  <path
     style="opacity:1;fill:none;fill-opacity:1;fill-rule:nonzero;stroke:#8eb9b7;stroke-width:1;stroke-linecap:butt;stroke-linejoin:round;stroke-miterlimit:4;stroke-dasharray:none;stroke-opacity:1"
     d="m 5488.47,3136.2 12.65,-2.37 10.68,2.14 10.46,8.54 16.65,22.85 14.31,24.77 30.75,55.94 12.81,19.43 23.7,32.24 21.35,21.78 27.54,23.7 41.64,27.54 44.2,19.86 35.23,12.81 38.01,12.81 66.4,13.02 35.66,8.54 24.13,10.68 32.45,20.28 35.27,13.26 6.79,5.53 v 3.42 l -2.14,1.71 -4.48,0.43 -12.81,-5.98 -2.14,-2.35 5.76,-18.36 5.55,-0.43 13.67,4.91 2.56,-0.43 2.35,-4.06 3.42,-1.71 70.25,28.18 2.14,-1.07 8.97,-22.85 10.04,-25.41 2.99,-1.28 61.28,25.41 20.71,7.47 33.74,10.89 47.83,14.73 63.2,35.87 6.62,1.28 h 6.62 l 12.38,-1.49 22.42,-15.16 19.22,-9.82 19.43,-4.06 23.91,4.06 18.36,4.7 13.67,-1.49 19.86,-9.82 28.18,-20.28 59.57,-46.97 33.31,-28.4 16.01,-26.26 13.88,-11.96 33.95,-27.33 19.86,-13.45 h 10.25 l 10.46,-5.76 h 1.71 l 4.48,5.76 h 2.14 l 7.9,-4.48 2.78,0.43 23.7,43.56 5.12,0.21 60.85,-33.31 0.85,-4.48 -7.89,-13.79"
     id="path878" />
  <path
     id="path4545"
     d="m 6138.49,3487.91 14.54,-34.94 4.29,-20.14 1.4,-101.76 -2.5,-17.92 -15.63,-53.1 -9.87,-42.56 -2.64,-20.11 -1.55,-58.09"
     style="opacity:1;fill:none;fill-opacity:1;fill-rule:nonzero;stroke:#6370ba;stroke-width:5;stroke-linecap:butt;stroke-linejoin:round;stroke-miterlimit:4;stroke-dasharray:none;stroke-opacity:1" />
  <path
     style="opacity:1;fill:none;fill-opacity:1;fill-rule:nonzero;stroke:#cd0d40;stroke-width:5;stroke-linecap:butt;stroke-linejoin:round;stroke-miterlimit:4;stroke-dasharray:none;stroke-opacity:1"
     d="m 6429.66,2308.14 12.12,9.38 12.32,16.36 3.17,14.14 -0.12,10.74 -4.39,14.69 -6.37,9.44 -7.56,9.83 -5.97,11.15 -2.99,12.63 -2.6,13.66 2.39,10.43 5.97,14.42 18.95,17.78 15.48,10.96 84.05,224.23 15.52,31.03 21.14,55.37 8.78,23.74 6.98,31.83 15.29,40.86 26.72,51.22 65.52,112.59 39.03,68.24 7.8,6.94 7.68,2.11 9.91,0.74 h 11.02 l 9.41,-4.21 15.48,-10.9 24.57,-18.67 23.82,-15.06 95.63,-52.89 20.67,-8.41 h 13.31 l 14.36,5.6 12.26,8.41 28.37,27.67 30.47,30.47 134.51,239.59"
     id="path4508" />
  <path
     id="path4549"
     d="m 6155.95,2207.06 -16.61,4.23 -2.11,-1.06 -1.36,-4.83 0.6,-1.51 13.44,-4.38 1.81,0.91 1.81,4.98 2.42,1.66 10.42,-1.21 18.27,0.3 36.99,35.48 2.57,16 -13.14,35.18 0.91,2.87 7.7,3.02 1.36,3.77 -23.3,59.9 -4.06,19.64 -1.49,12.38 20.5,47.51 15,37.67 4.08,17.21 4.44,9.64 13.75,15.77 -0.55,4.16 -11.63,9.57 0.31,4.55 2.45,3.85 11.21,9.28 13.84,31.53 -1.4,3.68 -44.14,19.44 -0.88,3.15 32.75,75.66 v 5.43 l -27.5,18.57 -5.43,17.51 -13.31,20.14 -6.48,64.45 4.03,56.4 -2.63,3.68 -72.51,4.03 -4.73,4.03 1.93,47.29 2.69,194.79 0.35,16.8"
     style="opacity:1;fill:none;fill-opacity:1;fill-rule:nonzero;stroke:#6370ba;stroke-width:1;stroke-linecap:butt;stroke-linejoin:round;stroke-miterlimit:4;stroke-dasharray:none;stroke-opacity:1" />
  <path
     style="fill:none;fill-opacity:1;fill-rule:nonzero;stroke:#e7000e;stroke-width:1;stroke-linecap:butt;stroke-linejoin:round;stroke-miterlimit:4;stroke-dasharray:none;stroke-opacity:1"
     d="m 6179.81,2875.19 -51.53,3.12 -3.89,3.29 1.84,47.11 0.09,10.31 2.6,184.37 0.32,16.66"
     id="path4516" />
  <path
     id="path992"
     d="m 6423.72,2316.13 11.5,8.76 9.66,13.39 2.55,11.23 -0.19,8.26 -3.89,11.91 -5.38,7.77 -7.68,10.01 -6.9,13.06 -3.24,16.1 -2.72,13.41 2.39,12.72 7.46,17.95 21.68,20.26 12.81,8.98 83.41,222.76 15.53,30.02 20.65,54.38 8.53,24.23 7.73,32.82 15.29,40.86 25.73,49.24 4.24,17.1 -1.24,10.34 -2.09,8.67 -4.4,5.24 -11.56,9.04 -77.09,37.14 -55.09,9.9 -22.35,-1.68 -18.04,-10.89 -136.95,-113.47 -29.61,-14.35 -28.61,-6.74 -98.4,6.19 -94.19,5.78 -166.33,10.66 -19.87,-2.56 -20.46,-5.83"
     style="opacity:1;fill:none;fill-opacity:1;fill-rule:nonzero;stroke:#f7981d;stroke-width:5;stroke-linecap:butt;stroke-linejoin:round;stroke-miterlimit:4;stroke-dasharray:none;stroke-opacity:1" />
  <path
     id="path4506"
     d="m 6426.69,2312.1 11.56,8.76 11.21,15.06 2.8,11.91 v 9.81 l -4.2,14.01 -5.25,7.71 -8.06,10.51 -6.66,12.26 -2.8,13.31 -3.15,14.71 2.45,10.86 6.66,16.46 20.32,19.27 14.36,10.16 83.37,222.43 15.76,31.53 21.02,54.99 8.41,23.12 7.36,32.58 15.41,40.98 26.97,51.84 65.15,112.09 295.99,516.32 14.01,10.86 15.76,4.9 24.17,-3.5 91.07,-25.57 14.36,-1.4 98.08,-0.7"
     style="opacity:1;fill:none;fill-opacity:1;fill-rule:nonzero;stroke:#e5c103;stroke-width:5;stroke-linecap:butt;stroke-linejoin:round;stroke-miterlimit:4;stroke-dasharray:none;stroke-opacity:1" />
  <path
     id="path4547"
     d="m 6139.81,3487.82 -4.47,3.59 -26.36,-9.72"
     style="opacity:1;fill:none;fill-opacity:1;fill-rule:nonzero;stroke:#6370ba;stroke-width:1;stroke-linecap:butt;stroke-linejoin:round;stroke-miterlimit:4;stroke-dasharray:none;stroke-opacity:1" />
  <path
     id="path4582"
     d="m 6624.6,2333.12 67.43,18.39 10.33,7.01 14.71,10.33 23.99,14.01 25.57,11.21 13.31,3.15 9.98,-0.35 119.8,-22.42 14.71,-0.18 26.1,4.2 52.02,20.14"
     style="opacity:1;fill:none;fill-opacity:1;fill-rule:nonzero;stroke:#4d5cb0;stroke-width:5;stroke-linecap:butt;stroke-linejoin:round;stroke-miterlimit:4;stroke-dasharray:none;stroke-opacity:1" />
  <path
     id="path4584"
     d="m 6624.6,2333.12 -82.77,-16.51 -40.5,-6.56 -38.64,-7.93 -3.96,-1.86 -3.59,1.24 -5.08,12.51 -6.94,-0.25 -11.79,-8.17 -16.2,1.11 -9.04,8.79 1.24,3.59 5.82,3.84 13.25,-0.99 10.86,-1.08 3.88,-5.49 1.98,-1.61"
     style="opacity:1;fill:none;fill-opacity:1;fill-rule:nonzero;stroke:#4d5cb0;stroke-width:1;stroke-linecap:butt;stroke-linejoin:round;stroke-miterlimit:4;stroke-dasharray:none;stroke-opacity:1" />
  <path
     id="path4586"
     d="m 7002.55,2398.62 20.32,9.11 14.01,11.56 335.4,287.23 4.55,-0.18 7.18,-8.93 h 3.68 l 17.34,14.89 -1.05,4.2 -10.68,4.38 h -5.6 l -15.41,-14.36"
     style="opacity:1;fill:none;fill-opacity:1;fill-rule:nonzero;stroke:#4d5cb0;stroke-width:1;stroke-linecap:butt;stroke-linejoin:round;stroke-miterlimit:4;stroke-dasharray:none;stroke-opacity:1" />
  <path
     id="path4623"
     d="m 5572.38,2635.13 60.19,-18.08 28.15,-4.03 14.69,-0.72 119.22,-1.56"
     style="opacity:1;fill:none;fill-opacity:1;fill-rule:nonzero;stroke:#7ec140;stroke-width:5;stroke-linecap:butt;stroke-linejoin:round;stroke-miterlimit:4;stroke-dasharray:none;stroke-opacity:1" />
  <path
     style="opacity:1;fill:none;fill-opacity:1;fill-rule:nonzero;stroke:#ff5632;stroke-width:5;stroke-linecap:butt;stroke-linejoin:round;stroke-miterlimit:4;stroke-dasharray:none;stroke-opacity:1"
     d="m 5573.6,2640.04 60.19,-18.26 27.11,-3.85 15.38,-0.88 118.46,-1.42"
     id="path4625" />
  <path
     id="path4669"
     d="m 5573.49,2636.74 -4.95,-0.99 -20.31,-61.92 -4.21,-1.61 -32.2,11.02 -1.61,3.84 1.11,10.03 -1.36,2.23 -157.65,52.26"
     style="opacity:1;fill:none;fill-opacity:1;fill-rule:nonzero;stroke:#7ec140;stroke-width:1;stroke-linecap:butt;stroke-linejoin:round;stroke-miterlimit:4;stroke-dasharray:none;stroke-opacity:1" />
  <path
     id="path4671"
     d="m 5573.79,2637.87 -3.27,4.2 8.05,24.89 -0.99,2.85 -18.08,5.7 -7.18,4.33 -200.75,65.88 -3.22,-0.87 -109.11,-71.62"
     style="opacity:1;fill:none;fill-opacity:1;fill-rule:nonzero;stroke:#ff5632;stroke-width:1;stroke-linecap:butt;stroke-linejoin:round;stroke-miterlimit:4;stroke-dasharray:none;stroke-opacity:1" />
  <path
     id="path4732"
     d="m 1117.37,6825.58 24.52,-13.22 19.79,-7.79 3.42,1.84 54.92,77.06 87.19,31.21 2.97,-0.99 77.53,-57.46 73.07,-66.13 7.06,-23.53 2.7,-3.37 24.98,-20.78 73.24,-45.28 3.23,-2.52 0.37,-5.57 -8.92,-12.01"
     style="opacity:1;fill:none;fill-opacity:1;fill-rule:nonzero;stroke:#fec422;stroke-width:1;stroke-linecap:butt;stroke-linejoin:round;stroke-miterlimit:4;stroke-dasharray:none;stroke-opacity:1" />
  <path
     style="fill:none;stroke:#00aeef;stroke-width:5;stroke-linecap:butt;stroke-linejoin:round;stroke-miterlimit:4;stroke-dasharray:none;stroke-opacity:1"
     d="m 843.54,6961.68 115.22,-65.77 21.08,-7.36 0.63,-0.32 52.34,-37.31 20.99,9.33 1.02,0.21 h 10.9 l 1.24,-0.33 27.16,-15.52 26.74,-17.96"
     id="path4666" />
  <path
     id="path4714"
     d="m 1030.54,6853 49.54,63.9 15.85,9.91 22.29,0.5 28.94,-9.78 91.3,-64.12 23.46,-31.35 17.3,-16.86 31.27,-6.51 30.3,5.28 178.13,87.54 36.22,12.18 19.17,16.3 174.77,206.97 41.86,53.5 35.17,76.29 137.71,340.82 20.81,33.69 76.29,104.03 13.38,33.19 72.32,182.3 6.94,18.33 9.41,64.4 21.8,64.89 94.12,244.22 35.17,194.68 -0.5,261.56 2.97,23.78 22.29,58.45 14.37,40.13 v 27.74 l -4.95,21.8 -10.9,19.32 -16.35,12.88 -52.01,24.77 -18.33,13.38 -5.45,13.87 v 19.32 l 6.44,22.29 51.02,99.57 16.35,41.36 11.64,9.16 16.59,2.23 53.01,-4.95 39.13,-12.63 11.39,1.98 12.14,9.16 20.06,56.72 3.72,20.31 12.63,33.19 2.48,66.38 7.18,9.41 126.07,83.97 7.18,11.39 0.74,19.32 -5.45,27.25 -12.01,69.6 -5.57,15.36 -40.99,62.91 -6.44,14.24 -0.62,12.01 2.48,17.34 v 11.64 l -22.79,54.99 -9.66,10.16 -34.3,21.18 -13.87,15.11 -12.76,21.92 -7.43,25.64 -13.87,78.39"
     style="opacity:1;fill:none;fill-opacity:1;fill-rule:nonzero;stroke:#245eac;stroke-width:5;stroke-linecap:butt;stroke-linejoin:round;stroke-miterlimit:4;stroke-dasharray:none;stroke-opacity:1" />
  <path
     id="path4760"
     d="m 973.49,10623.95 82.67,-13.31 21.37,-12.96 12.32,-17.02 2.58,-19.04 -4.26,-86.44 5.11,-15.52 29.81,-46.74 12.52,-10.86 18.84,-4.92 44.64,-0.2 53.08,-1.67 34.49,-8.04 38.26,-17.49 25.49,-23.58 9.44,-13.97 17.57,-31.3 15.73,-31.78 23.12,-52.19 16.11,-33.98 12.61,-12.61 12.61,-3.5 h 15.76 l 39.93,12.61 84.07,14.36 53.94,-11.56 22.77,0.7 174.09,51.84 14.71,2.45 20.67,-0.35 98.78,-27.32 18.92,-12.96 12.96,-17.86 20.32,-45.19 19.62,-17.16 71.46,-48.34 22.07,-1.75 43.08,-10.86 35.73,-12.61 17.16,-1.75 18.57,3.85 19.62,9.46 59.55,43.78 14.01,7.71 16.11,4.55 22.77,0.7 23.82,-6.66 18.92,-19.62 7.36,-21.02 24.3,-142.85 8.18,-27.18 12.97,-21.89 15.45,-16.75 33.22,-20.15 8.51,-8.76 22.45,-53.67 -0.06,-10.43 -2.38,-18.09 0.67,-12.96 7.21,-15.9 40.59,-62.18 5.48,-14.15 17.04,-95.96 -0.59,-17.44 -5.85,-9.44 -126.16,-84.54 -8.34,-10.81 -2.32,-67.04 -12.85,-33.61 -3.24,-19.42 -19.59,-54.91 -10.08,-8.02 -9.54,-1.46 -38.59,12.27 -28.31,3.13"
     style="opacity:1;fill:none;fill-opacity:1;fill-rule:nonzero;stroke:#00a0e2;stroke-width:5;stroke-linecap:butt;stroke-linejoin:round;stroke-miterlimit:4;stroke-dasharray:none;stroke-opacity:1" />
  <path
     style="opacity:1;fill:none;fill-opacity:1;fill-rule:nonzero;stroke:#ed1a35;stroke-width:5;stroke-linecap:butt;stroke-linejoin:round;stroke-miterlimit:4;stroke-dasharray:none;stroke-opacity:1"
     d="m 3615.15,9057.91 -48.3,32.94 -39.63,29.72 -93.13,45.08 -18.82,7.18 -28.24,4.71 -20.06,3.96 -72.51,41.84 -19.32,25.46 -15.5,13.01 -77.47,40.23 -37.99,13.83 -56.18,0.25 -40.78,-4.63 -19.83,-7.08 -60.61,-23.53 -27.57,-7.85 -112.38,-27.64 -20.39,-9.22 -28.95,-5.94 -29.52,-9.31 -29.15,-3.29 -43.73,-0.82 -8.27,7.06 -10.87,18.3 -21.68,26.39 -87.42,56.28 -128.23,41.86 -16.75,8.36 -39.66,43.13 -28.4,20.94 -27.87,16.2 -54.78,26.01 -16.5,0.25 -18.71,-4.31 -17.03,-8.49 -46.21,-8.67 -42.12,-14.15 -47.35,-21.27 -35.8,-16.45 -16.5,-14.17 -18.42,-25.73 -15.6,-20.35 -21.8,-36.48 -9.5,-8.29 -13.4,-3.12 -30.48,4.53 -18.77,0.1 -41.22,-9.76 -31.52,-13.05 -64.03,-27.21 -12.96,-1.4 -28.72,11.56 -77.06,49.04 -11.91,17.16 -25.92,37.48 -15.41,10.86 -32.93,16.46 -50.09,28.02 -13.31,14.36 -9.46,21.37 -3.85,33.28 -4.9,52.54 v 36.78 l 9.46,32.93 13.66,31.18 24.17,33.63 19.62,36.43 5.25,25.92 5.95,36.78 12.61,40.98 13.31,23.82 55.34,97.38 6.31,16.81 1.05,18.57 -4.9,15.76 -8.41,16.81 -18.57,20.32 -9.81,21.02 -1.05,18.91 v 60.95 l -3.85,20.32 -10.86,14.01 -14.01,10.16 -14.36,4.55 -24.52,-4.55 -41.74,-12.6 h -17.87 l -14.63,4.03 -13.67,14.46 -17.13,35.67 -22.8,51.33 -16.01,32.15 -16.64,29.39 -9.46,14.35 -23.41,21.27 -38.43,17.9 -34.01,7.91 -54.7,1.2 -42.68,-0.07 -19.85,5.63 -14.02,12.16 -29.74,47.07 -6.1,16.95 4.39,87.37 -2.08,17.12 -11.6,15.91 -19.47,11.72 -81.77,13.17"
     id="path4811" />
  <path
     id="path4807"
     d="m 1811.99,9277.36 30.47,12.88 40.87,9.41 16.84,0.25 31.7,-4.71 15.85,3.47 10.9,9.16 21.8,36.66 15.36,20.06 18.82,26.01 15.11,13.13 34.92,16.1 48.05,21.8 40.37,13.62 46.57,8.67 18.08,8.67 17.83,3.96 14.61,-0.25 54.74,-26.01 27,-15.85 27,-20.06 39.13,-42.6 18.33,-9.41 128.05,-41.86 86.2,-55.23 20.81,-25.51 11.39,-18.82 10.9,-9.16 47.06,0.99 28.98,3.47 30.22,9.66 28.48,5.94 19.8,9.05 110.98,27.11 27.74,7.68 60.44,23.53 21.05,7.43 39.38,4.46 55.48,-0.25 36.41,-13.13 77.03,-39.88 14.37,-12.14 13.6,-25.19 0.07,-23.11 -7.01,-29.71 -22.03,-78.09 -11.77,-12.92 -19.58,-15.98 -6.91,-10.36 -3.61,-10.95 -40.72,-156.67 -3.88,-20.98 -4.24,-10.86 -5.6,-14.54 -38.36,-147.29 v -15.06 l 10.16,-14.36 12.96,-7.71 46.94,-11.56 46.59,-17.16 101.23,-17.86 10.86,-4.9 59.2,-43.44 43.18,-31.53 14.73,-21.14 4.27,-19.64 2.56,-33.95 6.41,-62.13"
     style="opacity:1;fill:none;fill-opacity:1;fill-rule:nonzero;stroke:#e1d201;stroke-width:5;stroke-linecap:butt;stroke-linejoin:round;stroke-miterlimit:4;stroke-dasharray:none;stroke-opacity:1" />
  <path
     style="opacity:1;fill:none;fill-opacity:1;fill-rule:nonzero;stroke:#23b24b;stroke-width:5;stroke-linecap:butt;stroke-linejoin:round;stroke-miterlimit:4;stroke-dasharray:none;stroke-opacity:1"
     d="m 1813.85,9272.65 30.34,12.88 39.51,9.16 16.47,0.25 31.46,-4.83 17.96,3.72 12.51,10.53 22.66,37.52 15.23,19.94 17.71,24.89 13.99,12.51 35.05,15.98 47.31,21.8 39.63,13.38 46.94,8.55 18.08,8.79 16.47,3.72 13.62,-0.12 52.14,-24.77 27.99,-16.1 26.01,-19.07 39.63,-43.59 19.32,-9.91 128.55,-42.11 85.2,-54.49 19.81,-24.03 11.89,-19.81 11.89,-10.4 49.29,0.74 29.23,3.22 31.21,10.16 29,5.99 20.75,9.15 108.52,26.76 29.32,7.85 59.21,23.18 21.23,7.78 36.93,4.28 57.06,-0.6 35.01,-12.6 75.63,-39.35 12.96,-9.86 13.07,-23.79 0.07,-22.41 -6.83,-28.83 -21.51,-76.69 -10.9,-11.7 -18.35,-15.11 -8.48,-11.41 -3.79,-10.95 -41.42,-158.25 -3.88,-21.33 -3.72,-9.81 -5.78,-14.19 -38.71,-149.75 -5.6,-12.79 -16.29,-7.36 -15.41,1.4 -82.49,21.54"
     id="path4813" />
  <path
     style="fill:none;stroke:#fec422;stroke-width:5;stroke-linecap:butt;stroke-linejoin:round;stroke-miterlimit:4;stroke-dasharray:none;stroke-opacity:1"
     d="m 841.06,6957.34 115.42,-65.88 0.42,-0.19 20.96,-7.31 53.21,-37.94 2.46,-0.25 21.81,9.69 h 9.7 l 27.16,-15.52 25.99,-17.27"
     id="path4664" />
  <path
     id="path4662"
     d="m 838.63,6952.92 116.62,-66.47 21.26,-7.36 8.68,-5.75 44.04,-32.14 4.45,-0.62 22.21,9.85 7.72,0.41 21.73,-12.19 13.32,5.95 47.05,59.97 1.66,0.94 5.95,0.74 1.74,-0.43 80.02,-55.8 0.59,-0.58 23.33,-32.12 18,-16.35 33.37,-7.24 32.58,6.1 177.46,86.96 0.32,0.13 35.95,11.86 21.25,17.63 175.4,208.37 41.83,52.97 0.27,0.29 29.47,27 1.43,0.64 103.04,10.9 0.09,0.01 70.84,4.95 0.49,-0.01 62.91,-7.93 0.54,-0.13 61.92,-22.29 0.38,-0.18 99.97,-56.42 42.2,-19.14 29.05,-4.84 33.09,3.89 53.27,17.26 c 0.04,0.01 0.08,0.02 0.12,0.04 l 148.61,40.12 c 0.11,0.03 0.22,0.05 0.33,0.07 l 23.28,2.97 c 0.34,0.04 0.68,0.02 1,-0.08 l 27.74,-7.93 c 0.12,-0.03 0.23,-0.08 0.34,-0.13 l 30.33,-13.7 25.31,-2.39 19.53,6.67 33.94,21.15 c 0.33,0.21 0.71,0.34 1.11,0.37 l 34.68,2.97 c 0.23,0.02 0.47,0.01 0.7,-0.04 l 30.22,-5.95 c 0.32,-0.06 0.62,-0.19 0.89,-0.36 l 15.85,-10.4 c 0.16,-0.11 0.31,-0.23 0.44,-0.37 l 71.28,-75.24 34.19,-34.72 18.1,-5.73 21.6,-0.88 17.35,5.69 116.66,88.6 8.38,18 3.84,22.92 -4.84,24.29 -47.67,65.85 -57.2,81.72 -19.22,14.52 -28.18,21.78 -69.61,65.76"
     style="fill:none;stroke:#f4901d;stroke-width:5;stroke-linecap:butt;stroke-linejoin:round;stroke-miterlimit:4;stroke-dasharray:none;stroke-opacity:1" />
  <path
     id="path4603"
     d="m 836.15,6948.58 117.7,-66.76 19.86,-7.02 10.06,-5.74 42.43,-31.87 7.85,-1.51 22.61,10.09 5.7,0.23 23.36,-12.44 16.15,7 47.17,60.12 3.97,0.5 78.89,-55.01 23.23,-31.98 0.34,-0.38 18.69,-16.97 1.15,-0.59 34.52,-7.49 0.49,-0.06 h -4e-4 l 0.5,0.04 33.41,6.25 0.64,0.21 177.62,87.04 36.23,11.96 0.81,0.45 21.78,18.08 0.32,0.31 175.57,208.57 0.05,0.06 41.73,52.85 28.72,26.3 102.17,10.81 70.55,4.93 62.4,-7.86 61.46,-22.13 99.88,-56.37 0.2,-0.1 42.6,-19.32 0.62,-0.19 29.72,-4.96 0.7,-0.02 33.69,3.96 0.48,0.1 53.44,17.32 148.39,40.07 22.6,2.88 27.07,-7.73 30.55,-13.79 0.79,-0.21 26.26,-2.48 1.04,0.12 20.31,6.93 0.51,0.24 33.67,20.98 33.73,2.89 29.39,-5.78 15.2,-9.98 54.9,-57.95 5.66,-18.64 -4.71,-20.81 -10.16,-13.13 -15.11,-7.68 -74.31,-13.13 -40.87,-10.4 -120.38,-49.29 -17.34,0.25 -19.32,6.19 -14.12,12.88 -26.5,62.42 -9.16,10.16 -65.14,28.24 -11.15,10.9 -6.94,15.85 -10.16,33.93 0.5,25.26 1.98,38.39 -3.47,14.61 -19.07,66.38 0.5,15.6 4.95,12.14 9.16,10.16 12.38,8.17 95.61,10.4 16.1,-3.72 14.12,-8.92 74.55,-87.43 3.47,-11.15 -4.21,-20.06 -22.29,-34.43 -10.4,-6.69 -30.23,-12.61"
     style="fill:none;stroke:#a9218e;stroke-width:5;stroke-linecap:butt;stroke-linejoin:round;stroke-miterlimit:4;stroke-dasharray:none;stroke-opacity:1" />
  <path
     id="path4674"
     d="m 841.19,6954.92 -46.44,27.93 -0.31,0.07 -3.47,-0.37 -0.37,-0.23 -12.19,-19.83 -5.73,-3.22 -6.74,-0.48 -8.32,2.2 -62.73,23.51 -39.35,21.66 -0.08,0.04 -16.72,5.57 -12.37,3.6 -25.92,12.61 -19.27,7.01 -99.13,51.49 -74.26,48.34 -89.67,73.91 -53.24,24.17 -19.97,12.26 -19.27,11.21 -4.2,7.71 -8.76,49.04 4.2,14.01 -1.75,5.6 -29.42,13.31"
     style="fill:none;stroke:#fec422;stroke-width:1;stroke-linecap:butt;stroke-linejoin:round;stroke-miterlimit:4;stroke-dasharray:none;stroke-opacity:1" />
  <path
     id="path4668"
     d="m 841.05,6953.94 -46.67,27.96 -3.06,-0.33 -12.13,-19.73 -0.18,-0.17 -5.94,-3.34 -0.21,-0.06 -6.93,-0.49 -0.16,0.02 -8.42,2.23 -0.05,0.02 -62.79,23.53 -0.07,0.03 -39.34,21.65 -16.68,5.56 -3.93,6.67 -13.13,57.71 -3.72,2.23 -94.86,55.98 -63.66,59.69 v 5.2 l 40.13,53.75 -0.25,7.68 -4.21,6.94 -54.99,37.4 -0.25,3.96 4.71,6.44 -0.5,4.71 -24.27,17.09 -130.81,136.05 -9.63,14.89"
     style="fill:none;stroke:#f4901d;stroke-width:1;stroke-linecap:butt;stroke-linejoin:round;stroke-miterlimit:4;stroke-dasharray:none;stroke-opacity:1" />
  <path
     id="path4676"
     d="m 837.53,6948.65 -1.73,7.32 -41.55,24.9 -2.48,-0.25 -11.87,-19.67 -6.72,-3.61 -7.12,-0.66 -4.44,1.24 -3.42,-2.14 -15.98,-29.97 -2.23,-11.39 -60.82,-71.22 -5.06,-0.61 -8.17,7.18 -32.2,7.43 -15.6,6.69 -41.61,22.54 -146.38,85.7 -135.98,84.71 -152.33,75.05 -1.98,5.45 12.88,25.02 6.19,15.85 1.98,16.1 -1.24,2.97 -28.48,2.72 -15.11,5.2 -0.99,2.72 5.2,14.37 7.93,6.94 38.39,27.99"
     style="opacity:1;fill:none;fill-opacity:1;fill-rule:nonzero;stroke:#a9218e;stroke-width:1;stroke-linecap:butt;stroke-linejoin:round;stroke-miterlimit:4;stroke-dasharray:none;stroke-opacity:1" />
  <path
     id="path4678"
     d="m 500.07,7251.42 -40.05,-53.33 -0.09,-4.5 63.51,-59.46 98.32,-57.94 11.78,2.91 35.2,-18.39 5.69,-6.39 24.78,-14.45 32.05,5.78 13.14,-6.66 4.2,1.05 18.04,25.92 5.25,0.88 4.2,-5.78 88.27,-49.39 v -5.25 l -22.94,-41.68 3.5,-4.73"
     style="opacity:1;fill:none;fill-opacity:1;fill-rule:nonzero;stroke:#00aeef;stroke-width:1;stroke-linecap:butt;stroke-linejoin:round;stroke-miterlimit:4;stroke-dasharray:none;stroke-opacity:1" />
  <path
     id="path4730"
     d="m 1118.58,6826.22 23.3,-12.73 20,-8.02 20.5,-6.22 16.47,0.5 3.22,-8.79 180.91,-138.5 h 4.2 l 23.47,40.63 55.7,69.36 h 3.5 l 24.87,-20.67 75.31,-46.59 74.26,-70.41 14.36,-9.46 4.9,-7.01 69.71,-48.34"
     style="opacity:1;fill:none;fill-opacity:1;fill-rule:nonzero;stroke:#00aeef;stroke-width:1;stroke-linecap:butt;stroke-linejoin:round;stroke-miterlimit:4;stroke-dasharray:none;stroke-opacity:1" />
  <path
     id="path4909"
     d="m 1811.99,9277.36 -19.85,-9.06 -42.43,-27.48 -15.85,-16.68 -11.84,-8.51 -23.14,-10.99 -26.26,3.34 -22.46,7.81 -21.95,9.26 -141.23,104.2 -140.52,155.86 -0.19,0.19 -27.74,24.77 -0.24,0.19 -27.25,18.82 -0.28,0.17 -31.7,16.35 -0.36,0.15 -100.56,33.19 -0.24,0.07 -62.42,13.87 -0.59,0.06 -26.75,-0.5 -0.6,-0.08 -39.13,-10.4 -0.12,-0.03 L 918.23,9546.9 407.85,9381.88 367.23,9364.55 275.59,9301.63 188.4,9216.43 81.56,9108.32 46.55,9075.44 -1.71,9045.97 -234.87,8908.04 l -25.62,-20.5 -110.6,-99.07 -34.16,-24.77 -128.11,-117.44 -33.74,-24.34 -222.91,-144.34 -27.76,-17.51"
     style="opacity:1;fill:none;fill-opacity:1;fill-rule:nonzero;stroke:#e1d201;stroke-width:5;stroke-linecap:butt;stroke-linejoin:round;stroke-miterlimit:4;stroke-dasharray:none;stroke-opacity:1" />
  <path
     style="opacity:1;fill:none;fill-opacity:1;fill-rule:nonzero;stroke:#6d7d86;stroke-width:5;stroke-linecap:butt;stroke-linejoin:round;stroke-miterlimit:4;stroke-dasharray:none;stroke-opacity:1"
     d="m 1024,6857.5 53.25,63.75 8.25,13.25 1,19.5 -9,14 -84.5,59.5 -59.5,56 -34.5,50 -18.5,54 -9.5,69 3.5,42.5 11,43 22.5,53 55.5,72.5 286.5,370.5 62.5,101.5 16.5,53 19,76 366.5,1108 10.58,23.49 30.07,32.47 39.23,26.05 51.14,22.46 37.83,8.76 h 15.59 l 296.34,-33.28 105.08,-7.36 90.37,-26.97 L 2442,9212 l 22.5,-1 23,6.5 23.5,22.5 85,95.5 55,55 52,61.5 50.5,69 129.5,242.5 243.5,468.5 39,65.5 32.5,43.5 49,51.5 473.5,320 410.5,277 25,9 142.5,26"
     id="path5090" />
  <path
     id="path5092"
     d="m 1077.25,6921.25 17,10.25 25.25,0.62 30.25,-10.75 L 1242.03,6857 1453,6697 l 221,-161.5 72,-52 37.5,-31 231.5,-252 43,-55.5 209.5,-318 238,-285"
     style="opacity:1;fill:none;fill-opacity:1;fill-rule:nonzero;stroke:#6d7d86;stroke-width:5;stroke-linecap:butt;stroke-linejoin:round;stroke-miterlimit:4;stroke-dasharray:none;stroke-opacity:1" />
  <path
     id="path5094"
     d="m 4298.5,11024.5 444.5,79 24,2 31.5,-4.5 28,-11.5 30.5,-23.5 57.5,-79.5 12.5,-30.5 10.5,-39.5 v -46 l -3.5,-144.5 5.5,-32 12.5,-22 21,-28 37,-20.5 29,-8 39,0.5 48.5,15.5 191,58 38,3 24.5,0.5 819.5,-55 58.5,-11 95.5,-36 96,-37.5 47.5,-12 81,-15.5 89,-2 78.5,9.5 99,22.5 24,12.5 69.5,46 27,8.5 29,4.5 21.5,-4 28,-5.5 12,-5"
     style="opacity:1;fill:none;fill-opacity:1;fill-rule:nonzero;stroke:#6d7d86;stroke-width:5;stroke-linecap:butt;stroke-linejoin:round;stroke-miterlimit:4;stroke-dasharray:none;stroke-opacity:1" />
  <path
     id="path5096"
     d="m 1077.5,6968 72.25,-46.62"
     style="opacity:1;fill:none;fill-opacity:1;fill-rule:nonzero;stroke:#6d7d86;stroke-width:5;stroke-linecap:butt;stroke-linejoin:round;stroke-miterlimit:4;stroke-dasharray:none;stroke-opacity:1" />
  <path
     id="path5098"
     d="m 1094.25,6931.5 571.34,315.53 36.06,15.2 44.19,13.44 714.18,85.91 183.49,23.33 28.99,7.78 53.03,20.15 539.88,219.91 768.08,314.74 34,10.5 h 37.5 l 35.5,-2.5 41,-12 35.5,-23.5 60.5,-55 32,-23.5 42,-16.5 78,-18 41,1 475.5,52.5"
     style="opacity:1;fill:none;fill-opacity:1;fill-rule:nonzero;stroke:#6d7d86;stroke-width:5;stroke-linecap:butt;stroke-linejoin:round;stroke-miterlimit:4;stroke-dasharray:none;stroke-opacity:1" />
  <path
     id="path5160"
     d="m 10183.5,1912.5 -175.5,108.5 -32,22 -28,29.5 -23,27.5 -55.5,85.5 -29.5,37.5 -28.5,24 -41,32.5 -47.5,25 -70.5,20 -57,6 -102.5,-1 -49.5,11 -131,32 -56,17.5 -40,18.5 -29,21.5 -294,225 -38,38.5 -29.5,40 -29.5,60 -11,39.5 -16.5,104 -10.5,37 -14.5,33.5 -31,44 -24.5,25.5 -81,65 -54,36.5 -60,26.5 -59,20.5 -56,10.5 -145,9.5 -44,8 -42,16 -26,17 -103.5,102 -36,30.5 -40,8.5 -35,-3 -63,-35.5 -69.5,-70 -135.5,-112 -135,-96 -153,-92.5 -136,-105 -42,-39 -62.5,-37 -105,-55.5 -268.5,-183 -17.5,-21 -10,-30.5 -1,-44 22.5,-64 -7.5,-50.5 -14,-16 -14.21,-12.18 -19.96,-8.68 L 6535,2320 l -34,4 -31.5,-8 -53,-30 -101.5,-62.5 -47.5,-41 -79,-35.5 -54,-12.5 -418.5,0.5 -75.5,-15 -51.5,-23 -40.5,-33.5 -30,-50.5 -10,-40 -0.5,-57.5 8.5,-91 5.5,-47 20,-54.5 77.5,-179.5 10,-57.5 -6,-60 -74.5,-226 -13.5,-55 -13,-417.5 -13,-48.5 -30.5,-45 -49,-37.5 -177.5,-61 -175,-25.5 -46,-15.5 -35,-24.5 L 4565,93"
     style="opacity:1;fill:none;fill-opacity:1;fill-rule:nonzero;stroke:#6d7d86;stroke-width:5;stroke-linecap:butt;stroke-linejoin:round;stroke-miterlimit:4;stroke-dasharray:none;stroke-opacity:1" />
  <path
     id="path997"
     d="m 6021.91,2898.81 3.3,2.16 10.27,-2.57 25.97,-1.96 2.11,2.57 v 3.02 l -3.02,1.96 -79.27,7.4 -44.99,4.08 -46.35,2.11 -9.96,-4.23 -15.4,-6.64 -13.29,-2.11 -29.29,-0.15 -171.82,1.36 -36.24,-3.02 -12.23,4.08 -0.6,2.42 2.72,4.23 4.53,10.87 v 3.02 l 0.91,4.68 7.4,15.25 1.51,2.11 v 2.87"
     style="opacity:1;fill:none;fill-opacity:1;fill-rule:nonzero;stroke:#8eb9b7;stroke-width:1;stroke-linecap:butt;stroke-linejoin:round;stroke-miterlimit:4;stroke-dasharray:none;stroke-opacity:1" />
  <path
     id="path872"
     d="m 5027.37,3451.15 4.08,-5.44 30.8,-18.72 8.76,-5.89 10.27,2.72 53.75,-31.4 1.21,-1.51 v -4.83 l -4.83,-6.64 -6.19,-2.57 -11.78,-15.55 -6.95,-4.83 -12.23,0.3 -9.66,-4.38 -28.54,15.4 -10.57,0.75 -9.66,-2.42 -9.66,-5.28 -5.13,-8.76 -2.11,-7.1 v -7.25 l 7.7,-19.78 2.87,-19.78 10.12,-25.82 9.81,-23.7 14.04,-22.8 13.44,-16.46 9.21,-5.74 12.83,-0.45 18.87,6.04 94.06,-4.08 4.38,-1.81 7.4,-4.68 10.12,-13.59 28.38,-43.33 9.81,-9.81 7.4,-3.62 6.49,-0.91 18.87,-1.21 24.46,0.45 11.63,4.83 37.44,33.82 29.59,-0.3 24.01,-28.08 3.62,-0.6 27.78,24.61 2.87,0.15 22.35,-24.91 6.34,-12.08 10.72,-9.06 v -3.47 l -17.82,-19.93 -1.51,-3.93 v -5.59 l 1.66,-6.34 12.68,-16.76 60.09,-61.9 22.5,-17.66 38.05,-28.99 3.02,-4.53 v -2.87 l -5.13,-3.93 -5.28,-10.12 1.81,-3.93 34.57,-10.12 9.06,-0.75 130.75,1.36 37.59,3.32 48.77,12.23 18.57,1.51 153.09,-11.32 3.02,1.96 v 4.23 l -2.57,3.02 -3.77,2.87 -20.23,-1.36 -2.67,-2.37 0.25,-26.17 -0.13,-4.73 0.58,-36.34 -10.72,-47.41 1.66,-3.77 6.87,-2.15 1.97,-2.98 -1.9,-61 -1.36,-1.66 -3.17,-2.26 -0.15,-1.96 1.81,-3.93 2.87,-0.91 2.25,0.75 2.42,-0.03 108.12,-45.26 7.4,-5.13 73.53,-31.86 8.46,-8.15 7.11,-3.2 0.43,-1.49 -12.01,-28.72 1.23,-3.84 44.15,-19.48 1.01,-2.88 -13.29,-30.8 -11.05,-9.07 -8.27,-9.02 -10.73,-10.3 -2.46,-9.5 -0.43,-5.66 0.32,-9.82 -0.96,-5.02 -5.66,-7.58 -6.19,-6.83 -2.99,-6.41 -0.85,-7.69 -0.96,-7.69 -3.1,-5.66 0.96,-3.47 11.37,-4.7 0.8,-2.67 -5.34,-12.33"
     style="opacity:1;fill:none;fill-opacity:1;fill-rule:nonzero;stroke:#8eb9b7;stroke-width:1;stroke-linecap:butt;stroke-linejoin:round;stroke-miterlimit:4;stroke-dasharray:none;stroke-opacity:1" />
  <path
     id="path4512"
     d="m 5966.7,2040.69 -61.92,-1.24 -17.52,5.39 -17.86,10.51 -15.06,19.27 -7.01,16.81 -1.05,20.67 -1.05,45.54 7.71,48.69 0.35,16.11 -16.81,67.6 -31.88,138.36 -4.9,55.34 5.25,132.41 -2.45,96.68 4.2,125.05 2.8,29.42 8.41,19.27 16.81,17.86 19.97,9.11 22.07,6.31 20.32,1.75 222.43,-13.41 136.96,-9.11 26.15,6.95 29.1,14.22 136.56,112.9 20.43,11.84 23.77,1.31 56.05,-10.16 77.03,-37.28 19.02,-11.77 h 8.76 l 8.2,2.61 7.53,6.12 332.91,580.74 15.43,11.62 17.69,5.24 24.12,-3.44 91.74,-25.57 13.26,-1.57 98.73,-0.53"
     style="opacity:1;fill:none;fill-opacity:1;fill-rule:nonzero;stroke:#00ab4d;stroke-width:5;stroke-linecap:butt;stroke-linejoin:round;stroke-miterlimit:4;stroke-dasharray:none;stroke-opacity:1" />
  <path
     style="opacity:1;fill:none;fill-opacity:1;fill-rule:nonzero;stroke:#f1871f;stroke-width:1;stroke-linecap:butt;stroke-linejoin:round;stroke-miterlimit:4;stroke-dasharray:none;stroke-opacity:1"
     d="m 9075.48,6732.42 2.87,9.36 1.36,8.3 -2.42,8.15 -5.28,9.21 -9.36,9.06 -13.59,8.61 -22.35,7.85 -21.59,0.75 -68.55,-1.06 -17.54,0.55 -12.62,9.27 -33.9,0.7 -8.24,-2.58 h -8.11 l -11.96,3.63 -9.39,9.39 -75.16,65.98 -1.92,5.34 6.19,19.22 0,5.34"
     id="path959" />
  <path
     id="path5227"
     d="m 7907,3424.5 146,64.5 69.5,34 90.5,65 44.5,22 37,9 31,6 386.5,38.5 36,12 37,24 23.5,30.5 16,38 147,625 8.5,38 10,33 39,103 46,87.5 35,78 5,25.5 -4,41 -29.5,446.5 -6.5,26 -241,641 -141,337.5 -5.5,26.5 4,41 -11,17 -13,22.5 -18,10 -143.5,50.5 -66,29 -32,24.5 -47,43.5 -17,29.5 -11,30.5 v 36.5 l 7,26.5 51.5,96 73.11,122.42 26.57,25.36 114.75,67.04 32.01,27.18 32.01,41.07 116.39,200.4 15.8,32.03 230.17,563.26 18.36,48.26 83.7,266.05 6.41,25.2 55.52,248.96 8.97,25.62 19.22,37.15 257.5,430.03 31.6,54.66 44.41,73.88 19.64,43.13 238.29,513.3 23.49,51.24 10.68,36.3 53.81,214.8"
     style="opacity:1;fill:none;fill-opacity:1;fill-rule:nonzero;stroke:#6d7d86;stroke-width:5;stroke-linecap:butt;stroke-linejoin:round;stroke-miterlimit:4;stroke-dasharray:none;stroke-opacity:1" />
  <path
     id="path5295"
     d="m 7215,2913.5 -47,-23.5 -24,-2.5 -22.5,2.5 -35,19.5 -77.75,84.75 -27.6,18.03 -260.9,148.47 -40,7.25 -44.5,-11.25 -67.75,-41.5 -100.14,-65.35 -23.97,-14.05 -134.02,-110.82 -28.28,-14.67 -27.05,-6.54 -354.08,22.45 -23.2,-1.51 -66.12,-13.62 -173.01,-0.78 -20.86,4.24 -17.68,4.6 -24.75,13.79 -13.08,11.31 -88.03,85.56 -17.32,15.2 -15.56,13.08 -19.8,12.02 -33.59,15.56 -46.32,14.5 -16.26,8.13 -32.53,18.74 -22.27,18.03 -16.62,19.8 -128.69,193.39 -26.16,33.59 -38.18,32.53 -127.28,78.14 -47.02,22.27 -38.54,14.14 -43.84,9.55 -120.92,13.08 -36.42,7.42 -65.41,18.03 -22.27,8.84 -32.53,18.74"
     style="opacity:1;fill:none;fill-opacity:1;fill-rule:nonzero;stroke:#6d7d86;stroke-width:5;stroke-linecap:butt;stroke-linejoin:round;stroke-miterlimit:4;stroke-dasharray:none;stroke-opacity:1" />
  <text
     style="font-style:normal;font-weight:normal;font-size:144px;line-height:125%;font-family:Sans;-inkscape-font-specification:Sans;letter-spacing:0px;word-spacing:0px;fill:#000000;fill-opacity:1;stroke:none"
     xml:space="preserve"
     id="text3019"
     y="206.96"
     x="-860.55"><tspan
       id="tspan1"
       y="206.96"
       x="-860.55">2020</tspan></text>
  <text
     style="font-style:normal;font-weight:normal;font-size:144px;line-height:125%;font-family:Sans;-inkscape-font-specification:Sans;letter-spacing:0px;word-spacing:0px;fill:#000000;fill-opacity:1;stroke:none"
     xml:space="preserve"
     id="text3019-6"
     y="11197.96"
     x="-860.55"><tspan
       id="tspan2"
       y="11197.96"
       x="-860.55"></tspan></text>
  <path
     id="path4600"
     d="m 1191.85,6799.53 3.25,-2.57 0.68,-5.28 1.51,-1.13 4.78,0.41"
     style="opacity:1;fill:none;fill-opacity:1;fill-rule:nonzero;stroke:#00aeef;stroke-width:1;stroke-linecap:butt;stroke-linejoin:round;stroke-miterlimit:4;stroke-dasharray:none;stroke-opacity:1" />
  <path
     style="opacity:1;fill:none;fill-opacity:1;fill-rule:nonzero;stroke:#8eb9b7;stroke-width:5;stroke-linecap:butt;stroke-linejoin:round;stroke-miterlimit:4;stroke-dasharray:none;stroke-opacity:1"
     d="m 5028.6,3449.62 -33.74,21.78 -30.11,18.58 -45.69,28.18 -28.61,13.24 -29.89,10.89 -29.89,9.61 -11.1,6.62 -10.68,9.39 -48.68,56.16 -9.39,7.69 -27.76,31.39 -21.78,23.7 -6.62,5.12 -10.04,2.99 -11.74,1.07 -11.1,-1.92 -13.45,-7.69 -49.02,-43.5"
     id="path1046" />
  <path
     style="opacity:1;fill:none;fill-opacity:1;fill-rule:nonzero;stroke:#8eb9b7;stroke-width:1;stroke-linecap:butt;stroke-linejoin:round;stroke-miterlimit:4;stroke-dasharray:none;stroke-opacity:1"
     d="m 4599.3,3642.92 -28.7,-25.47 -10.68,-6.62 -6.62,-1.71 -6.19,0.85 -7.69,4.27 -39.93,31.6 -6.62,3.2 -8.97,2.78 h -8.54 l -8.54,-2.56 -6.19,-5.12 -12.17,-12.38 -15.59,-19 -97.58,-84.77 -5.98,-3.84 -4.27,-1.28 -5.98,0.43 -2.56,2.78 -12.6,14.31 -5.55,2.56 -36.08,1.49 h -2.99 l -3.42,-3.63 -43.56,-38.22 h -2.56 l -3.63,1.07 -4.06,2.35 -92.67,105.48 -15.37,14.09 -34.59,40.14 -16.01,21.99 -71.32,80.28 -15.37,14.73 -17.51,19 -13.88,16.87 -12.17,16.01 -7.69,9.61 -44.63,52.74 -50.39,57.22 -86.9,98.86 -36.94,43.13 -24.55,25.84"
     id="path864" />
  <path
     style="opacity:1;fill:none;fill-opacity:1;fill-rule:nonzero;stroke:#8eb9b7;stroke-width:5;stroke-linecap:butt;stroke-linejoin:round;stroke-miterlimit:4;stroke-dasharray:none;stroke-opacity:1"
     d="m 4192.24,3173.33 -25.41,-23.06 -7.05,-2.56 -21.99,-4.48 -5.98,-2.56 -29.68,-25.84 -1.49,-3.2 v -6.83 l 1.28,-2.78 25.2,-22.63 14.73,-10.46 16.65,-8.97 21.78,-5.12 32.24,-12.81 20.92,-12.38 16.23,-10.89 18.36,-16.44 38.86,-43.77 45.91,-52.31 2.14,-5.76 3.63,-14.73 -1.49,-10.25 -1.92,-7.9 -5.12,-9.39"
     id="path866" />
  <path
     style="opacity:1;fill:none;fill-opacity:1;fill-rule:nonzero;stroke:#8eb9b7;stroke-width:1;stroke-linecap:butt;stroke-linejoin:round;stroke-miterlimit:4;stroke-dasharray:none;stroke-opacity:1"
     d="m 4350.03,2858.17 -42.7,-70.25 -24.13,-39.93 -10.25,-24.13 -6.19,-17.94 -5.76,-27.97 -4.7,-41.85 -2.14,-51.24 -3.42,-5.98 -5.77,-4.48 -5.12,-2.99 -5.55,-0.43 -93.52,1.07 h -27.33 l -14.52,2.78 -4.91,-2.14 -25.2,-93.95 -7.05,-9.61 -9.39,-7.05 -27.97,-17.08 -3.84,-5.12 v -10.04 l -3.2,-3.84 -11.53,-1.49 -8.11,-3.84 -9.39,-7.69 0.64,-5.34 15.59,-17.72 6.83,-14.52 3.42,-20.71 -4.48,-14.09 -6.19,-11.1 -13.67,-8.75 -3.84,-0.85 -6.19,2.99 -6.62,-1.28 -7.05,-8.33 -2.99,-5.55 -2.56,-1.07 -12.17,1.07 -9.82,-5.98 -10.89,-9.18 -13.88,-15.16 -9.82,-32.67 5.55,-20.07 6.62,-10.46 7.05,-10.68 2.35,-11.1 -0.85,-10.04 1.92,-2.35 42.49,5.77 3.42,-2.14 7.69,-23.06 -1.07,-1.07 -13.02,-2.78 -1.92,1.49 -1.28,7.26 -2.14,1.71 -10.25,-1.07 -2.56,1.49 -2.35,12.6 -4.27,2.14"
     id="path868" />
  <path
     style="opacity:1;fill:none;fill-opacity:1;fill-rule:nonzero;stroke:#8eb9b7;stroke-width:1;stroke-linecap:butt;stroke-linejoin:round;stroke-miterlimit:4;stroke-dasharray:none;stroke-opacity:1"
     d="m 4335.3,3527.98 -54.23,-46.97 -37.79,-34.38 -5.34,-8.54 -8.75,-26.26 -5.12,-18.58 2.35,-15.16 6.62,-16.01 26.26,-30.32 45.69,-53.17 1.07,-7.9 -2.99,-7.9 -28.83,-20.07 -64.27,-54.66 -17.72,-14.73"
     id="path876" />
  <path
     style="opacity:1;fill:none;fill-opacity:1;fill-rule:nonzero;stroke:#8eb9b7;stroke-width:1;stroke-linecap:butt;stroke-linejoin:round;stroke-miterlimit:4;stroke-dasharray:none;stroke-opacity:1"
     d="m 6011.64,3472.47 h -6.62 l -13.67,-2.99 -8.75,-1.71"
     id="path880" />
  <path
     style="opacity:1;fill:none;fill-opacity:1;fill-rule:nonzero;stroke:#8eb9b7;stroke-width:1;stroke-linecap:butt;stroke-linejoin:round;stroke-miterlimit:4;stroke-dasharray:none;stroke-opacity:1"
     d="m 5505.53,3115.06 4.13,-1.52 4.91,2.99 1.71,2.78 -0.21,11.1 6.19,14.09"
     id="path882" />
  <path
     style="opacity:1;fill:none;fill-opacity:1;fill-rule:nonzero;stroke:#f1871f;stroke-width:5;stroke-linecap:butt;stroke-linejoin:round;stroke-miterlimit:4;stroke-dasharray:none;stroke-opacity:1"
     d="m 9016.9,6690.9 11.78,2.11 5.74,7.1 28.23,0.45 3.32,2.42 9.51,29.44"
     id="path957" />
  <path
     style="opacity:1;fill:none;fill-opacity:1;fill-rule:nonzero;stroke:#8bc63e;stroke-width:5;stroke-linecap:butt;stroke-linejoin:round;stroke-miterlimit:4;stroke-dasharray:none;stroke-opacity:1"
     d="m 986.17,7026.99 -5.26,5.38 -43.13,40.46 -8.65,8.22 -23.49,33.95 -15.37,23.38 -11.85,9.82 -5.67,6.54"
     id="path877" />
  <path
     id="path879"
     d="m 982.61,7023.59 -5.11,5.15 -43.13,40.46 -8.65,8.22 -23.49,33.95 -15.37,23.38 -11.85,9.82 -5.45,4.73"
     style="opacity:1;fill:none;fill-opacity:1;fill-rule:nonzero;stroke:#efb7d3;stroke-width:5;stroke-linecap:butt;stroke-linejoin:round;stroke-miterlimit:4;stroke-dasharray:none;stroke-opacity:1" />
  <path
     style="opacity:1;fill:none;fill-opacity:1;fill-rule:nonzero;stroke:#c39d88;stroke-width:5;stroke-linecap:butt;stroke-linejoin:round;stroke-miterlimit:4;stroke-dasharray:none;stroke-opacity:1"
     d="m 979.07,7020.12 -5.42,5.53 -43.13,40.46 -8.65,8.22 -23.49,33.95 -15.37,23.38 -11.85,9.82 -4.84,4.05"
     id="path881" />
  <path
     style="opacity:1;fill:none;fill-opacity:1;fill-rule:nonzero;stroke:#8bc63e;stroke-width:1;stroke-linecap:butt;stroke-linejoin:round;stroke-miterlimit:4;stroke-dasharray:none;stroke-opacity:1"
     d="m 872.75,7154.75 -1.58,2.98 -1.06,8.45 -20.08,24.01 -17.51,19.93 -14.65,12.23 -89.38,46.5 -55.86,49.67 -9.51,7.7 -19.78,14.19 -12.53,14.65 -32.31,27.33 -206.39,175.29"
     id="path883" />
  <path
     style="opacity:1;fill:none;fill-opacity:1;fill-rule:nonzero;stroke:#8bc63e;stroke-width:1;stroke-linecap:butt;stroke-linejoin:round;stroke-miterlimit:4;stroke-dasharray:none;stroke-opacity:1"
     d="m 984.36,7026.03 4.66,-3.32 25.41,-17.51 2.24,-4.32 0.64,-12.49 -1.17,-12.49 -1.81,-3.52 -15.91,-14.2 -62.35,-51.78 -0.11,-4.48 29.15,-15.8 8.43,2.03 6.19,-5.23 3.2,-0.42 8.01,10.46 3.01,0.03 13.54,-10.71 12.92,-7.47 0.53,-4.27 -27.97,-35.98 -12.38,-8.43 -21.03,-11.21 -5.34,-5.55 -17.19,-28.61 -79.75,-157.15 -4.91,-6.94 -7.26,-8.22 -10.57,-8.43 -19.75,-12.81 -25.73,-15.91 -1.92,-1.81 -1.92,-7.26 -1.39,-2.35 -5.12,-4.48 -2.56,-3.52 -6.83,-13.45 -9.39,-9.07 -3.63,-5.98 -1.81,-6.19 -1.17,-15.05 -2.88,-11.1 -7.9,-11.96 -7.79,-7.79 -9.82,-5.98 -26.05,-12.6 -8.11,-5.23 -7.05,-6.83 -12.49,-19.22 -7.37,-6.41 -16.97,-8.97 -4.27,-4.59 -3.63,-10.14 -7.79,-7.05 -2.78,-3.42 -0.21,-4.8 10.14,-11.74 0.85,-12.17 48.04,-48.9"
     id="path885" />
  <path
     style="opacity:1;fill:none;fill-opacity:1;fill-rule:nonzero;stroke:#efb7d3;stroke-width:1;stroke-linecap:butt;stroke-linejoin:round;stroke-miterlimit:4;stroke-dasharray:none;stroke-opacity:1"
     d="m 868.59,7147.5 -3.8,3.9 -5.63,1.06 -9.44,0.07 -10.27,-2.94 -9.59,-3.85 -13.89,-7.02 -8.08,-6.27 -4.08,-3.85 -36.85,-63.9 -17.78,-25.49 -4.85,-1.18 -13.12,6.6 -34.89,-6.32 -44.24,-28.99 -3.62,-5.74 -3.77,-23.25 -2.57,-2.57 -11.32,2.57 -2.57,-0.91 -20.23,-36.24 -8,-17.21 -2.87,-2.26 -34.42,4.23 -8.3,-0.91 -30.57,-8.46 -48.96,28.5 -4.42,-1.47 -62.2,-102.29 -0.23,-3.32 3.62,-22.12 -2.11,-6.57 -5.28,-8.15 -22.95,-28.16 -34.35,-27.25"
     id="path973" />
  <path
     style="opacity:1;fill:none;fill-opacity:1;fill-rule:nonzero;stroke:#c39d88;stroke-width:1;stroke-linecap:butt;stroke-linejoin:round;stroke-miterlimit:4;stroke-dasharray:none;stroke-opacity:1"
     d="m 868.33,7146.23 -4.11,4.32 -5.39,0.91 -9.13,-1e-4 -9.88,-2.83 -9.72,-3.89 -14.03,-7.11 -7.66,-6.07 -3.87,-3.65 -36.94,-64.06 -17.51,-25.52 -26.16,-36.83 -4.8,-14.41 -13.88,-43.56 -16.87,-33.74 -43.88,-50.18 -9.07,-8.11 -16.97,-9.61 -8.43,-2.88 -25.09,-6.83 -6.73,-3.2 -8.43,-7.26 -5.34,-6.51 -20.07,-37.26 -6.94,-16.12 -3.52,-14.31 -11.32,-49.22 -1.17,-9.29 -3.95,-55.19 2.35,-8.86 6.19,-10.04 25.3,-31.49 10.46,-20.07 0.64,-7.37 -1.17,-7.58 -5.23,-7.37 -7.37,-3.52 -10.57,-4.27 -4.48,-3.52 -3.2,-4.59 -1.6,-3.74 -0.53,-5.44 -2.35,-5.12 -3.2,-5.02 -1.6,-4.91 -1.81,-8.65 0.11,-7.26 0.75,-8.65 -1.73,-3.8 -3.75,-4.36 -0.47,-3.57 1.88,-3.86"
     id="path975" />
  <path
     style="opacity:1;fill:none;fill-opacity:1;fill-rule:nonzero;stroke:#efb7d3;stroke-width:1;stroke-linecap:butt;stroke-linejoin:round;stroke-miterlimit:4;stroke-dasharray:none;stroke-opacity:1"
     d="m 981.66,7024.53 6.35,-2.24 7.1,-4.97 18.53,-12.75 2.03,-3.95 0.69,-11.96 -4.43,-6.57 -3.1,-0.16 -20.82,13.93 -0.8,4.27 9.29,13.61 -0.48,2.99"
     id="path977" />
  <path
     style="opacity:1;fill:none;fill-opacity:1;fill-rule:nonzero;stroke:#c39d88;stroke-width:1;stroke-linecap:butt;stroke-linejoin:round;stroke-miterlimit:4;stroke-dasharray:none;stroke-opacity:1"
     d="m 979.68,7021.91 7.79,-0.48 7.21,-4.91 18.26,-12.65 1.76,-3.68 0.75,-11.16 -4.16,-6.14 -2.24,-0.05 -20.18,13.83 -0.64,3.2 9.29,13.61 -0.21,1.33"
     id="path979" />
  <path
     style="opacity:1;fill:none;fill-opacity:1;fill-rule:nonzero;stroke:#efb7d3;stroke-width:1;stroke-linecap:butt;stroke-linejoin:round;stroke-miterlimit:4;stroke-dasharray:none;stroke-opacity:1"
     d="m 628.23,6979.43 3.79,6.51 1.81,0.37 9.18,-1.33 2.62,2.08"
     id="path1072" />
  <path
     id="path4510"
     d="m 5856.63,2908.78 -17.72,-7.26 -16.97,-17.83 -7.69,-17.83 -2.66,-28.01 -4.17,-126.04 2.46,-94.06 -5.12,-133.56 4.7,-54.98 10.46,-45.27 21.27,-92.89 16.84,-67.78 -0.32,-18.79 -7.69,-47.94 1.71,-62.35 5.98,-16.01 15.05,-19 16.55,-9.93 16.23,-5.12 61.07,1.17"
     style="opacity:1;fill:none;fill-opacity:1;fill-rule:nonzero;stroke:#f7981d;stroke-width:5;stroke-linecap:butt;stroke-linejoin:round;stroke-miterlimit:4;stroke-dasharray:none;stroke-opacity:1" />
  <path
     id="path999"
     d="m 6020.37,2745.16 0.77,-2.07 1.92,-1.33 1.39,-1.92 -0.11,-2.4 0.69,-2.27"
     style="opacity:1;fill:none;fill-opacity:1;fill-rule:nonzero;stroke:#8eb9b7;stroke-width:1;stroke-linecap:butt;stroke-linejoin:round;stroke-miterlimit:4;stroke-dasharray:none;stroke-opacity:1" />
  <path
     id="path1003"
     d="m 5742.4,2910.91 23.91,-7.05 19,-15.8 13.88,-28.61 2.14,-20.92 -3.63,-124.7 2.35,-99.71 -5.55,-131.31 5.12,-57.22 48.68,-203.91 -0.64,-16.44 -8.33,-49.75 -0.36,-43.28 3.35,-21.63 7.26,-17.51 16.65,-21.14 20.28,-11.96 18.15,-5.55 61.92,1.07 69.18,1.92 22.42,11.1 13.67,12.17 37.15,44.84 23.27,18.79 L 6188.5,2147"
     style="opacity:1;fill:none;fill-opacity:1;fill-rule:nonzero;stroke:#6d7d86;stroke-width:5;stroke-linecap:butt;stroke-linejoin:round;stroke-miterlimit:4;stroke-dasharray:none;stroke-opacity:1" />
  <path
     id="path5160-3"
     d="m 6709.5,2547.5 -4.8,28.69 -14.43,22.37 -21.44,15.4 -89.98,42.58 -12.68,12.38 -10.57,19.93 1.21,12.38 17.21,35.03 29.59,78.21 7.85,34.12 14.94,41.25 26.14,49.12 65.19,112.9 39.88,69.4 19.73,44.55 89.45,155.7 142.42,247.9 392.66,734.72 16.65,42.28 8.54,41.85 5.12,49.96 -0.43,43.56 -5.12,40.57 -154.16,901.91 -3.84,29.04 -0.43,34.16"
     style="opacity:1;fill:none;fill-opacity:1;fill-rule:nonzero;stroke:#6d7d86;stroke-width:5;stroke-linecap:butt;stroke-linejoin:round;stroke-miterlimit:4;stroke-dasharray:none;stroke-opacity:1" />
  <path
     id="path1633"
     d="m 6347.51,6792.06 498.35,-267.33 54.66,-26.48 64.48,-21.35 55.52,-9.39 46.12,0.43 61.92,7.69 639.7,81.56 119.14,8.54 371.52,46.12 45.27,10.68 24.34,11.96 15.13,10.67"
     style="opacity:1;fill:none;fill-opacity:1;fill-rule:nonzero;stroke:#6d7d86;stroke-width:5;stroke-linecap:butt;stroke-linejoin:round;stroke-miterlimit:4;stroke-dasharray:none;stroke-opacity:1" />
  <path
     id="path1635"
     d="m 4137.49,6178.02 66.73,107.5 22.95,41.67 5.44,22.95 -0.91,21.14 -9.66,23.86 -140.41,225.57 -8.76,18.42 -6.34,24.16 -5.74,52.84 -26.27,274.48 0.3,28.38 38.35,348.77 v 44.09 l -10.87,384.1 -2.11,95.72 9.36,27.18 20.84,19.02 16.61,9.66 20.84,3.62 19.33,-3.62 15.7,-6.34 L 4277.5,7865"
     style="opacity:1;fill:none;fill-opacity:1;fill-rule:nonzero;stroke:#6d7d86;stroke-width:5;stroke-linecap:butt;stroke-linejoin:round;stroke-miterlimit:4;stroke-dasharray:none;stroke-opacity:1" />
  <path
     id="path1637"
     d="m 8763.91,6909.49 -1.07,6.19 -29.25,88.4 -8.75,12.38 -8.54,6.83 -7.69,2.78 -9.82,-1.71 -31.6,-20.71 -27.54,-32.67 -28.61,-25.62 -116.37,-67.9 -26.9,-24.34 -56.8,-96.19 -2.78,-6.09 -0.96,-21.78 -5.13,-8.6"
     style="opacity:1;fill:none;fill-opacity:1;fill-rule:nonzero;stroke:#f1871f;stroke-width:5;stroke-linecap:butt;stroke-linejoin:round;stroke-miterlimit:4;stroke-dasharray:none;stroke-opacity:1" />
  <path
     style="fill:none;fill-opacity:1;fill-rule:nonzero;stroke:#e7000e;stroke-width:5;stroke-linecap:butt;stroke-linejoin:round;stroke-miterlimit:4;stroke-dasharray:none;stroke-opacity:1"
     d="m 6045.64,3720.97 1.06,-2.45 7.43,-9.91 3.72,-10.9 7.18,-18.58 13.38,-26.25"
     id="path1593" />
  <path
     style="fill:none;fill-opacity:1;fill-rule:nonzero;stroke:#e7000e;stroke-width:1;stroke-linecap:butt;stroke-linejoin:round;stroke-miterlimit:4;stroke-dasharray:none;stroke-opacity:1"
     d="m 5766.81,3898.59 25.76,-58.95 v -12.38 l -10.4,-36.66 v -11.39 l 12.38,-27.25 11.89,-8.92 16.35,-4.95 97.59,24.27 4.46,3.96 14.37,21.8 6.44,6.44 54.99,11.89 5.94,-1.49 7.43,-6.94 27.25,-66.88 4.39,-10.18"
     id="path4514" />
  <path
     style="fill:none;fill-opacity:1;fill-rule:nonzero;stroke:#e7000e;stroke-width:5;stroke-linecap:butt;stroke-linejoin:round;stroke-miterlimit:4;stroke-dasharray:none;stroke-opacity:1"
     d="m 6078.4,3652.88 60.15,-152.07 19.37,-46.55 4.13,-20.51 1.56,-102.62 -2.5,-18.9 -15.53,-53.08 -10.43,-44.22 -2.44,-18 -1.36,-57.75"
     id="path4543" />
  <path
     style="fill:none;stroke:#8eb9b7;stroke-width:1;stroke-linejoin:round;stroke-opacity:1;stroke-dasharray:none"
     d="m 5824.14,4518.66 5.96,7.71 22.9,45.29 9.2,13.29 11.7,10.51 9.04,3.72 6.63,0.36 6.24,-1.82 2.38,1.21 4.65,6.61 7.12,5.97 13.43,7.13 47.86,20.74 33.59,15.11 57.9,31.44 75.65,42.27 13.66,10.24 5.14,5.84 1.46,4.59 0.18,6.59 -0.96,6.07 -8.28,21.63 1.07,4.78 -5.08,3.32 -16.57,43.91 1.13,2.99 6.96,3.66 2.29,3.84 0.09,4.11 -7.63,45.33 -7.98,25.68"
     id="path4066" />
  <path
     style="fill:none;stroke:#8eb9b7;stroke-width:1;stroke-linejoin:round;stroke-dasharray:none;stroke-opacity:1"
     d="m 6138.38,4728.2 18.93,9 6.54,6.66 0.35,2.82 -6.35,14.85"
     id="path4622" />
  <path
     style="fill:none;stroke:#8eb9b7;stroke-width:1;stroke-linejoin:round;stroke-dasharray:none;stroke-opacity:1"
     d="m 5568.74,4314.65 -145.25,-65.88 -87.37,-23.49 -45.41,-19.29 -22.37,-12.72 -56.61,-41.31 -20.78,-13.22 -30.92,-12.14 -17.41,-11.09 -12.21,-13.06 -101.01,-174.06 -4.57,-12.17 -4.15,-14.1 -2.1,-8.05 -43,-39.36 -13.23,0.3 -27.83,-25.35 -5.11,-2.48 -5.56,0.98 -4.38,3.75 -22.13,26.39 -8.08,5.44 -12.84,3.84 -8.81,0.01 -12.29,-3.15 -10.26,-6.3 -178.76,-156.12 -0.93,-2.77 -0.92,-4.68"
     id="path12714" />
  <path
     style="fill:none;stroke:#8eb9b7;stroke-width:1;stroke-linejoin:round;stroke-dasharray:none;stroke-opacity:1"
     d="m 4599.31,3642.92 -0.27,-4.25 -6.91,-6.78 -0.62,-4 -2.16,-1.25 -3.95,-1.1 -9.08,-7.66 -3.09,-6.97 -2.39,0.09 -11.72,12.04 -4.09,0.85 -4.8,-0.13 -4.04,4.15 -3.02,1.52 -18.6,-18.73 -4.19,0.81 -7.73,5.96 -3.12,-0.35 -6.26,-7.53 -40.16,-58.96 -5.58,-5.4 -0.04,-4.37 26.01,-28.6 5.54,-14.72 -1.28,-5.9 -41.69,-35.6 -0.02,-3.44 26.83,-29.16 1.14,-7.3 -44.29,-41.33 -100.91,-89.5 -14.48,-9.66 -4.63,-8.37 -6.65,-4.47"
     id="path14378" />
  <path
     style="fill:none;stroke:#8eb9b7;stroke-width:1;stroke-linejoin:round;stroke-dasharray:none;stroke-opacity:1"
     d="m 4543.17,3629.4 4.62,3.43 4.34,-0.72 6.99,-9.09"
     id="path14380" />
  <path
     style="fill:none;stroke:#8eb9b7;stroke-width:1;stroke-linejoin:round;stroke-dasharray:none;stroke-opacity:1"
     d="m 4148.78,3145.47 -9.32,-6.68 -2.67,-4.83 -22.22,-18.53 -5.66,-0.96 -0.31,-1.81 0.93,-2.95 6.58,-6.29 -0.25,-2.67 -149.36,-138.21 -7.52,-13.74 -4.54,-18.28 -6.71,-31.92 -6.41,-12.45 -14.11,-16.66 -47.72,-42.9 -28.56,-13.68 -16.54,-12.53 -4.96,-5.54 -0.79,-3.71 14.6,-199.08 -1.75,-39.3 1.65,-12.09 15.47,-35.96 9.84,-29.08 5.39,-21.79 0.63,-17.97 14.15,-67.17 -0.18,-8.38 3.39,-10.9 -1.14,-2.62 -29.2,-9.56 -1.21,-2 -0.53,-10.26 -6.2,-8.07 -0.36,-2.71 19.23,-60.96 8.37,-15.03 5.72,-13.87 14.42,-23.72 2.76,-6.92 0.84,-9.93 1.5,-2.31 3.04,-2.2 5.89,1.8 6.3,0.39 6,-1.38"
     id="path14382" />
  <path
     style="fill:none;stroke:#8eb9b7;stroke-width:1;stroke-linejoin:round;stroke-dasharray:none;stroke-opacity:1"
     d="m 5416.86,4246.99 -4.14,1.41 -2.16,3.72 -2.24,-0.05 -43.5,-19.07"
     id="path14600" />
  <path
     style="fill:none;stroke:#8eb9b7;stroke-width:5;stroke-linejoin:round;stroke-opacity:1"
     d="m 5680.44,4377.28 -1.66,-1.61 -3.41,-3.04 1.41,-3.75 -11.39,-9.62 -8.47,-4.31 -88.2,-40.29"
     id="path1680-5" />
  <path
     style="fill:none;stroke:#8eb9b7;stroke-width:1;stroke-linejoin:round;stroke-dasharray:none;stroke-opacity:1"
     d="m 5689.64,4381.46 -2.69,-2.64 -4.46,0.45 -2.04,-1.99"
     id="path31861" />
  <path
     style="fill:none;stroke:#8eb9b7;stroke-width:5;stroke-linejoin:round;stroke-opacity:1"
     d="m 5824.14,4518.66 -12.24,-15.8 -24.8,-29.26 -14.18,-13.95 -49.11,-44.67 -34.18,-33.52"
     id="path1680-7" />
</svg>
