<?xml version="1.0" encoding="UTF-8" standalone="no"?>
<svg
   xmlns:dc="http://purl.org/dc/elements/1.1/"
   xmlns:cc="http://creativecommons.org/ns#"
   xmlns:rdf="http://www.w3.org/1999/02/22-rdf-syntax-ns#"
   xmlns:svg="http://www.w3.org/2000/svg"
   xmlns="http://www.w3.org/2000/svg"
   xmlns:xlink="http://www.w3.org/1999/xlink"
   viewBox="0 -400 2200 2450"
   height="2450"
   width="2200"
   id="svg2"
   version="1.1">
  <metadata
     id="metadata8">
    <rdf:RDF>
      <cc:Work
         rdf:about="">
        <dc:format>image/svg+xml</dc:format>
        <dc:type
           rdf:resource="http://purl.org/dc/dcmitype/StillImage" />
        <dc:title></dc:title>
      </cc:Work>
    </rdf:RDF>
  </metadata>
  <defs
     id="defs6" />
  <image
     style="display:none"
     y="45"
     x="65"
     id="image10"
     xlink:href="file:///home/lexande/timelines/timelines/streetmap/../streetmap/tasosm.png"
     preserveAspectRatio="none"
     height="1775"
     width="1775" />
  <path
     id="path819"
     d="m 238.82842,279.03455 -23.49033,65.10176 1.00673,8.05383 6.04037,6.04037 294.63582,221.14465 6.37594,3.02018 9.73171,2.34903 40.94028,-4.36248 43.6249,-19.79899 56.71236,-15.77208 18.45668,-1.00673 22.14803,2.01346 21.14129,5.70479 13.75862,7.71825 35.23549,23.8259 4.69807,8.38941 1.67788,10.73843 -17.11438,202.01681 -0.33558,20.13457 4.02691,12.75189 10.06729,9.73171 24.16148,9.39613 103.35743,37.58452 15.10093,11.40959 13.08747,11.40959 130.53909,161.74766 15.1009,17.45 15.7721,8.0538 12.4163,1.3423 15.101,-0.3356 6.3759,-2.6846 121.8141,-96.6459 19.799,-16.7788 11.4096,-6.71152 13.7586,-1.67788 19.4634,-2.34904 36.5778,6.71153 62.7528,13.75862 62.7527,28.85949 39.2624,24.1615 50.672,21.8125"
     style="opacity:1;fill:none;fill-opacity:1;fill-rule:nonzero;stroke:#261670;stroke-width:5;stroke-linecap:butt;stroke-linejoin:round;stroke-miterlimit:4;stroke-dasharray:none;stroke-opacity:1" />
  <path
     id="path821"
     d="m 107.28259,1644.1581 -0.33558,-29.5307 5.7048,-17.4499 81.20941,-196.9832 16.44323,-32.5509 16.77881,-26.5105 44.63162,-59.397 37.58452,-43.6249 142.61984,-169.8015 37.58453,-34.8999 32.2153,-40.94026 23.49033,-33.22204 15.4365,-26.17493 37.9201,-61.41043 63.42388,-90.26997 12.75189,-20.47014 9.39614,-22.14803 10.40285,-12.41631 23.15476,-20.13457 21.14129,-9.7317 18.45669,-2.34904 52.68544,5.7048 158.05635,37.9201 100.00171,36.24222 24.8326,12.41631 9.0606,0.33558 7.3826,-3.02019 222.8226,-131.88141 18.4566,-5.70479 15.4365,-2.01346 38.5913,2.01346 21.4769,-3.35576 93.6257,-39.93356 61.0748,-21.47687 69.1287,-11.74516"
     style="opacity:1;fill:none;fill-opacity:1;fill-rule:nonzero;stroke:#da2225;stroke-width:5;stroke-linecap:butt;stroke-linejoin:round;stroke-miterlimit:4;stroke-dasharray:none;stroke-opacity:1" />
  <text
     x="89.453087"
     y="-193.0391"
     id="text3784"
     xml:space="preserve"
     style="font-style:normal;font-weight:normal;font-size:143.99993896px;line-height:125%;font-family:Sans;-inkscape-font-specification:Sans;letter-spacing:0px;word-spacing:0px;fill:#000000;fill-opacity:1;stroke:none"><tspan
       x="89.453087"
       y="-193.0391"
       id="tspan1">2010</tspan></text>
</svg>
