<svg xmlns="http://www.w3.org/2000/svg" height="2350" width="2250"><path d="M2117.988 95.12l-14.238 15.293 9.492 35.859-1.054 8.964-21.621 14.238-60.644 36.386-20.566-1.582-115.486 63.28-10.02 12.657-5.8 95.974 8.438 20.566 4.218 13.184 23.203 36.386 23.73 62.752 1.88 20.412-28.774 72.927-4.219 7.382 16.348 159.255 6.86 61.186 55.36 33.962 14.672 17.467 11.693 20.51 27.955-2.873 45.351-10.02 6.328 2.637 13.71 22.675 2.638 12.129-4.746 11.074-18.985 11.074-52.563 12.291-40.37 16.893-19.755 21.289-72.933 46.029-2.11 11.601-27.42 42.714-63.808 54.316-30.585 7.382-145.017 73.827-20.566 10.547-8.438 9.492-.527 16.347 8.437 22.676 13.711 34.276 39.023 56.952 6.328 14.238-1.055 16.348-10.547 44.823-5.273 14.765-9.492 11.074-45.878 29.004-8.437 10.546-4.22 21.621-14.237 40.078-16.347 37.968-20.566 23.202-11.074 10.02-12.13 1.582-225.698.527-20.566-4.219-41.132-1.054-24.257 3.164-13.184 4.746-27.421 13.183-17.93 10.547-18.983 9.492-13.184 3.164-30.715 13.81-29.401 17.83-15.82 10.546-10.02 8.965-1.581 10.547-.528 7.382 14.238 12.13 18.984 42.186 10.02 3.691 12.656 5.8 7.382 13.712 27.95 59.06 14.237 58.008v15.292l-7.91 21.094-9.389 11.792-38.034 15.66-48.101 8.204-65.255 1.491-105.152-10.44-14.543-10.068-145.05-184.576-20.882-15.661-25.356-52.95-11.186-5.966-29.458-11.186-24.237-25.729-37.661-24.983-11.187-25.356-33.186-39.525-55.56-37.288-14.915-5.594-41.016-5.593-173.763 24.983-17.153.373-17.152-4.847-17.526-11.933-19.762-23.118-22.373-20.882-13.424-34.678-2.237-11.932" fill="none" stroke="#ee1c25" stroke-width="5" stroke-linejoin="round"/><path d="M732.467 2190.481v-23.993l-29.267-74.09v-13.448l4.746-10.019 7.646-9.756 12.392-6.855h13.975l64.598.264 15.293-3.692 19.248-22.411 22.148-44.824-1.319-13.974-10.02-32.167-1.581-15.03 2.373-10.81 5.273-9.756 40.869-31.376 42.977-36.122 5.274-7.91 2.636-15.557 17.93-52.47 6.591-9.228 14.766-10.81 38.988 7.028 9.79-.7 10.942-7.25 28.946-17.63 18.382-7.551 36.123 11.338 24.52 8.7 29.795 2.11 20.17 17.007 7.43 14.704 6.34 17.153 8.203 15.66 8.95 3.357 79.796 51.457 23.118 2.984 42.882 17.898 22.373 11.56 26.101 16.406 14.916 8.576 16.034 5.593 12.305-1.864 25.356 17.525 45.118 5.22 19.017 1.492 31.695-3.356 22.373 1.865 4.847 7.83-3.728 30.95-1.119 19.762v7.085l12.305 16.78 8.576 7.084 8.204-.745 20.135-5.22 16.78-2.61 12.678-1.12 19.763 6.712 6.339 10.814 1.118 39.525 1.865 10.068 13.796 16.034.746 12.678-1.119 24.983-4.847 15.288-14.542 12.678-11.56 14.542-2.61 12.305 1.492 20.509-1.492 19.763" fill="none" stroke="#feb034" stroke-width="5" stroke-linejoin="round"/><path d="M1085.156 1603.4l-5.779 8.577a2.473 2.473 0 00-.223.406l-4.101 9.508c-.035.08-.066.16-.092.244l-3.73 11.92-11.962 19.69a2.502 2.502 0 00-.19.384l-2.89 7.365a2.5 2.5 0 00-.172.942l.094 8.109c0 .464.139.918.387 1.31l16.627 26.217.836 4.576-4.238 3.31-26 15.623-14.89 9.648" style="line-height:normal;font-variant-ligatures:normal;font-variant-position:normal;font-variant-caps:normal;font-variant-numeric:normal;font-variant-alternates:normal;font-feature-settings:normal;text-indent:0;text-align:start;text-decoration-line:none;text-decoration-style:solid;text-decoration-color:#000;text-transform:none;text-orientation:mixed;white-space:normal;shape-padding:0;isolation:auto;mix-blend-mode:normal;solid-color:#000;solid-opacity:1" color="#000" font-weight="400" font-family="sans-serif" overflow="visible" fill="none" stroke="#009ee2" stroke-width="5" stroke-linejoin="round"/><path d="M1031.427 1735.391l14.057-9.155 28.143-16.888 4.61-3.889.3-1.363-.466-6.99-.383-1.174-16.586-26.154-.078-6.912 2.633-6.71 12.006-19.765.25-.55 3.783-12.089 3.957-9.175 5.65-8.383" style="line-height:normal;font-variant-ligatures:normal;font-variant-position:normal;font-variant-caps:normal;font-variant-numeric:normal;font-variant-alternates:normal;font-feature-settings:normal;text-indent:0;text-align:start;text-decoration-line:none;text-decoration-style:solid;text-decoration-color:#000;text-transform:none;text-orientation:mixed;white-space:normal;shape-padding:0;isolation:auto;mix-blend-mode:normal;solid-color:#000;solid-opacity:1" color="#000" font-weight="400" font-family="sans-serif" overflow="visible" fill="none" stroke="#86bc25" stroke-width="5" stroke-linejoin="round"/><path d="M1120.963 1554.762l-34.147 49.752" style="line-height:normal;font-variant-ligatures:normal;font-variant-position:normal;font-variant-caps:normal;font-variant-numeric:normal;font-variant-alternates:normal;font-feature-settings:normal;text-indent:0;text-align:start;text-decoration-line:none;text-decoration-style:solid;text-decoration-color:#000;text-transform:none;text-orientation:mixed;white-space:normal;shape-padding:0;isolation:auto;mix-blend-mode:normal;solid-color:#000;solid-opacity:1" color="#000" font-weight="400" font-family="sans-serif" overflow="visible" fill="none" stroke="#009ee2" stroke-linejoin="round"/><path d="M1087.64 1605.08l34.147-49.754" style="line-height:normal;font-variant-ligatures:normal;font-variant-position:normal;font-variant-caps:normal;font-variant-numeric:normal;font-variant-alternates:normal;font-feature-settings:normal;text-indent:0;text-align:start;text-decoration-line:none;text-decoration-style:solid;text-decoration-color:#000;text-transform:none;text-orientation:mixed;white-space:normal;shape-padding:0;isolation:auto;mix-blend-mode:normal;solid-color:#000;solid-opacity:1" color="#000" font-weight="400" font-family="sans-serif" overflow="visible" fill="none" stroke="#86bc25" stroke-linejoin="round"/><path d="M1215.262 1436.531l-62.225 66.444a2.566 2.566 0 00-.092.103l-6.855 8.172a2.51 2.51 0 00-.198.273l-26.63 42.186" style="line-height:normal;font-variant-ligatures:normal;font-variant-position:normal;font-variant-caps:normal;font-variant-numeric:normal;font-variant-alternates:normal;font-feature-settings:normal;text-indent:0;text-align:start;text-decoration-line:none;text-decoration-style:solid;text-decoration-color:#000;text-transform:none;text-orientation:mixed;white-space:normal;shape-padding:0;isolation:auto;mix-blend-mode:normal;solid-color:#000;solid-opacity:1" color="#000" font-weight="400" font-family="sans-serif" overflow="visible" fill="none" stroke="#009ee2" stroke-width="5" stroke-linejoin="round"/><path d="M1123.49 1556.379l26.54-42.045 6.702-7.992 62.18-66.393" style="line-height:normal;font-variant-ligatures:normal;font-variant-position:normal;font-variant-caps:normal;font-variant-numeric:normal;font-variant-alternates:normal;font-feature-settings:normal;text-indent:0;text-align:start;text-decoration-line:none;text-decoration-style:solid;text-decoration-color:#000;text-transform:none;text-orientation:mixed;white-space:normal;shape-padding:0;isolation:auto;mix-blend-mode:normal;solid-color:#000;solid-opacity:1" color="#000" font-weight="400" font-family="sans-serif" overflow="visible" fill="none" stroke="#86bc25" stroke-width="5" stroke-linejoin="round"/><path d="M1270.068 1379.236l-53.351 58.666" style="line-height:normal;font-variant-ligatures:normal;font-variant-position:normal;font-variant-caps:normal;font-variant-numeric:normal;font-variant-alternates:normal;font-feature-settings:normal;text-indent:0;text-align:start;text-decoration-line:none;text-decoration-style:solid;text-decoration-color:#000;text-transform:none;text-orientation:mixed;white-space:normal;shape-padding:0;isolation:auto;mix-blend-mode:normal;solid-color:#000;solid-opacity:1" color="#000" font-weight="400" font-family="sans-serif" overflow="visible" fill="none" stroke="#009ee2" stroke-linejoin="round"/><path d="M1217.457 1438.576l53.352-58.668" style="line-height:normal;font-variant-ligatures:normal;font-variant-position:normal;font-variant-caps:normal;font-variant-numeric:normal;font-variant-alternates:normal;font-feature-settings:normal;text-indent:0;text-align:start;text-decoration-line:none;text-decoration-style:solid;text-decoration-color:#000;text-transform:none;text-orientation:mixed;white-space:normal;shape-padding:0;isolation:auto;mix-blend-mode:normal;solid-color:#000;solid-opacity:1" color="#000" font-weight="400" font-family="sans-serif" overflow="visible" fill="none" stroke="#86bc25" stroke-linejoin="round"/><path d="M1349.162 1309.89L1300 1345.245a2.473 2.473 0 00-.272.227l-12.918 12.392a2.268 2.268 0 00-.119.121l-18.103 19.907" style="line-height:normal;font-variant-ligatures:normal;font-variant-position:normal;font-variant-caps:normal;font-variant-numeric:normal;font-variant-alternates:normal;font-feature-settings:normal;text-indent:0;text-align:start;text-decoration-line:none;text-decoration-style:solid;text-decoration-color:#000;text-transform:none;text-orientation:mixed;white-space:normal;shape-padding:0;isolation:auto;mix-blend-mode:normal;solid-color:#000;solid-opacity:1" color="#000" font-weight="400" font-family="sans-serif" overflow="visible" fill="none" stroke="#009ee2" stroke-width="5" stroke-linejoin="round"/><path d="M1272.287 1381.254l18.045-19.842 12.73-12.21 49.018-35.25" style="line-height:normal;font-variant-ligatures:normal;font-variant-position:normal;font-variant-caps:normal;font-variant-numeric:normal;font-variant-alternates:normal;font-feature-settings:normal;text-indent:0;text-align:start;text-decoration-line:none;text-decoration-style:solid;text-decoration-color:#000;text-transform:none;text-orientation:mixed;white-space:normal;shape-padding:0;isolation:auto;mix-blend-mode:normal;solid-color:#000;solid-opacity:1" color="#000" font-weight="400" font-family="sans-serif" overflow="visible" fill="none" stroke="#86bc25" stroke-width="5" stroke-linejoin="round"/><path d="M1350.923 1312.32l9.375-7.098 366.145 32.269a.51.51 0 00.035 0l14.238.264a.36.36 0 00.115-.012l13.184-2.9a.523.523 0 00.156-.066l9.756-6.064a.501.501 0 00.07-.051l101.248-90.438a.498.498 0 00.14-.215l3.165-9.492a.5.5 0 00.025-.172l-.526-18.9 2.063-6.441 62.972-93.54 25.248-35.765 4.313-2.537 17.053-3.149a.498.498 0 00.238-.115l6.328-5.537a.506.506 0 00.076-.084l63.148-87.934a.49.49 0 00.061-.113l4.165-10.928 6.593-4.527a.61.61 0 00.037-.027l17.139-14.239a.506.506 0 00.129-.166l4.219-8.7a.5.5 0 00.048-.178l.79-9.723 1.482-6.904 3.877-3.592 12.367-8.947" style="line-height:normal;font-variant-ligatures:normal;font-variant-position:normal;font-variant-caps:normal;font-variant-numeric:normal;font-variant-alternates:normal;font-feature-settings:normal;text-indent:0;text-align:start;text-decoration-line:none;text-decoration-style:solid;text-decoration-color:#000;text-transform:none;text-orientation:mixed;white-space:normal;shape-padding:0;isolation:auto;mix-blend-mode:normal;solid-color:#000;solid-opacity:1" color="#000" font-weight="400" font-family="sans-serif" overflow="visible" fill="none" stroke="#86bc25" stroke-linejoin="round"/><path d="M1901.068 449.963l-1.046 9.95-2.86 7.019-11.582 19.478a.5.5 0 00-.07.256v6.45l-14.691 23.872a.496.496 0 00-.072.303l4.472 54.717-11.513 25.9-25.506 25.508-105.463 101.508a.479.479 0 00-.062.072l-13.711 19.512a.502.502 0 00-.061.115l-8.435 22.938-7.364 19.46-22.373 35.004-18.44 23.971-256.806 314.285a.498.498 0 00-.033.047l-16.084 25.05a.5.5 0 00-.039.071l-11.865 27.686c-.01.019-.014.039-.02.059l-6.327 21.884c-.01.02-.011.041-.014.062l-9.225 59.569-2.328 9.824-9.23 6.99" style="line-height:normal;font-variant-ligatures:normal;font-variant-position:normal;font-variant-caps:normal;font-variant-numeric:normal;font-variant-alternates:normal;font-feature-settings:normal;text-indent:0;text-align:start;text-decoration-line:none;text-decoration-style:solid;text-decoration-color:#000;text-transform:none;text-orientation:mixed;white-space:normal;shape-padding:0;isolation:auto;mix-blend-mode:normal;solid-color:#000;solid-opacity:1" color="#000" font-weight="400" font-family="sans-serif" overflow="visible" fill="none" stroke="#009ee2" stroke-linejoin="round"/><text style="line-height:125%;-inkscape-font-specification:Sans" y="206.96094" x="89.453117" font-weight="400" font-size="144px" font-family="Sans" letter-spacing="0" word-spacing="0"><tspan y="206.96094" x="89.453117">2000</tspan></text></svg>