<?xml version="1.0" encoding="UTF-8" standalone="no"?>
<svg
   xmlns:dc="http://purl.org/dc/elements/1.1/"
   xmlns:cc="http://creativecommons.org/ns#"
   xmlns:rdf="http://www.w3.org/1999/02/22-rdf-syntax-ns#"
   xmlns:svg="http://www.w3.org/2000/svg"
   xmlns="http://www.w3.org/2000/svg"
   xmlns:xlink="http://www.w3.org/1999/xlink"
   viewBox="0 0 4950 3500"
   height="3500"
   width="4950"
   id="svg2"
   version="1.1">
  <metadata
     id="metadata8">
    <rdf:RDF>
      <cc:Work
         rdf:about="">
        <dc:format>image/svg+xml</dc:format>
        <dc:type
           rdf:resource="http://purl.org/dc/dcmitype/StillImage" />
        <dc:title></dc:title>
      </cc:Work>
    </rdf:RDF>
  </metadata>
  <defs
     id="defs6" />
  <image
     style="display:none"
     y="26.315674"
     x="75"
     id="image10"
     xlink:href="file:///home/lexande/timelines/timelines/streetmap/../streetmap/naposm.png"
     preserveAspectRatio="none"
     height="3573.6843"
     width="4850" />
  <path
     id="path1387"
     d="m 1064,2364 26.5,24 18.5,13.5 41.5,21.5 37,15.5 46,13 179.5,45 24,3.5 h 24.5 l 82.5,-7 23.5,-1 106.25,21.5 27.25,1 25,-6.25 192.5,-84.5 27.25,-8 47.75,-10.25 82.25,-23.25 24,-7 19,-7.5 11.25,-9 9,-21.5 11.5,-56 10.25,-35.75 10.25,-16.75 23.125,-15.25 24.125,-4.5 76.5,-1.25 19.1106,-4.2828 29.1417,-11.9931 21.8122,-9.5877 24.6997,-15.7317 26.6571,-21.8954 8.3287,-15.7593 22.25,-72.5 18.75,-38 17.75,-23.5 14.75,-14 25,-13 62.5,-31 h 15.75 l 25.5,1.5 53.75,22.5 32.5,20.75 22.5,4.25 44.75,-1.5 164.25,-20.5 11.967,0.87"
     style="opacity:1;fill:none;fill-opacity:0.38039216;fill-rule:nonzero;stroke:#0060a9;stroke-width:5;stroke-linecap:butt;stroke-linejoin:round;stroke-miterlimit:4;stroke-dasharray:none;stroke-opacity:1" />
  <path
     id="path1428"
     d="m 2460.149,2065.8964 -23.2777,10.6313 L 2299,2099.75 l -116.8218,14.2651 -150.9673,19.799 h -16.2634 l -22.2739,-3.8891 -234.7595,-53.3865 -20.5061,-7.7782 -13.0814,-8.8388 -54.4473,-46.3155 -53.3865,-43.1336 -55.8615,-32.8804 -18.0312,-8.1317 -28.6378,-0.3536 -224.1528,14.8492 -14.1422,-2.1213 -15.9099,-9.8995 -9.1924,-9.5459 -6.0104,-16.9706 -1.4142,-15.2028 1.4142,-32.1733 8.1317,-35.7089 7.7782,-14.8493 24.3952,-41.0122 20.8597,-62.2254 8.4852,-16.2634 14.8493,-42.78 1.7677,-19.0919 -2.4748,-14.1421 -9.546,-25.8094 -10.253,-14.1421 -9.8995,-6.0104 -32.1734,-16.2635 -12.7279,-1.7678 -16.617,2.4749 -195.1615,29.345 -7.7781,0.3535 -18.3848,-1.7678 -89.80259,-22.9809 -32.52691,-4.9498 -41.01219,2.1213 -34.29468,6.7176 -226.27417,51.2652 -176.06959,43.1335 -133.99674,42.0729"
     style="opacity:1;fill:none;fill-opacity:0.38039216;fill-rule:nonzero;stroke:#a498c6;stroke-width:5;stroke-linecap:butt;stroke-linejoin:round;stroke-miterlimit:4;stroke-dasharray:none;stroke-opacity:1" />
  <path
     id="path1430"
     d="m 2462.3713,2070.2348 -42.0287,19.1675 -127.8426,69.8477 -71.625,41.5 -66.125,45.375 -27.5,19.5 L 1992,2346 l -17.75,9.25 -32.25,7.75 -79.75,22.5 -5,3.25 -15.25,39.5 -8.5,10.25 -15,8.75 -53.75,18 -76.75,36.375 -117.375,56.625 -10.25,2.125 -42,-3.25 -12.625,-4.625 -67,-42.25 -28.5,-7 -186.75,-6.75 -20,-3.25 -14.5,-6.5 -26.75,-27.25 -11.75,-4.5 -106.5,-7.25 -14.5,-5.5 -10.5,-11.5 -2.25,-11.25 0.25,-24.25 -3.75,-13 L 1001,2367 980.25,2345.75 953,2327 l -26.25,-8.75 -18.5,-12.5 -35.5,-26 -15.75,-7.75 -26.75,-3.5 h -16.5 l -13.75,3.75 -27,22.25 -13.5,7.25 -20.25,4.5 -91,7.5 -19,5 -65,27.25 -19,12 -39,25.25 -16.5,14.25 -36.5,51 -12,13.25 -23,23.75 -12.75,11.25 -18.5,9.75 -16.5,1 -23.5,-2.25 -32.75,1 -12,3.25 -75.75,33.5 -18,11.75 -25.5,27.5 -19.25,14.25 -37,17.5"
     style="opacity:1;fill:none;fill-opacity:0.38039216;fill-rule:nonzero;stroke:#92ceab;stroke-width:5;stroke-linecap:butt;stroke-linejoin:round;stroke-miterlimit:4;stroke-dasharray:none;stroke-opacity:1" />
  <path
     id="path1395"
     d="M 2345.75,2112.25 2458,2061.5"
     style="opacity:1;fill:none;fill-opacity:0.38039216;fill-rule:nonzero;stroke:#f69323;stroke-width:5;stroke-linecap:butt;stroke-linejoin:round;stroke-miterlimit:4;stroke-dasharray:none;stroke-opacity:1" />
  <path
     id="path1397"
     d="m 2318.5,2139.5 164.25,53.75"
     style="opacity:1;fill:none;fill-opacity:0.38039216;fill-rule:nonzero;stroke:#f69323;stroke-width:5;stroke-linecap:butt;stroke-linejoin:round;stroke-miterlimit:4;stroke-dasharray:none;stroke-opacity:1" />
  <path
     id="path1399"
     d="m 2298.75,2140.25 32,66.5"
     style="opacity:1;fill:none;fill-opacity:0.38039216;fill-rule:nonzero;stroke:#f69323;stroke-width:5;stroke-linecap:butt;stroke-linejoin:round;stroke-miterlimit:4;stroke-dasharray:none;stroke-opacity:1" />
  <path
     id="path1401"
     d="m 2074.25,2392.5 36,3.5 11.75,-2.5 32.25,-7.5"
     style="opacity:1;fill:none;fill-opacity:0.38039216;fill-rule:nonzero;stroke:#f69323;stroke-width:5;stroke-linecap:butt;stroke-linejoin:round;stroke-miterlimit:4;stroke-dasharray:none;stroke-opacity:1" />
  <text
     style="font-style:normal;font-weight:normal;font-size:143.99993896px;line-height:125%;font-family:Sans;-inkscape-font-specification:Sans;letter-spacing:0px;word-spacing:0px;fill:#000000;fill-opacity:1;stroke:none"
     xml:space="preserve"
     id="text2992"
     y="206.96094"
     x="89.453133"><tspan
       id="tspan1"
       y="206.96094"
       x="89.453133">1970</tspan></text>
  <text
     style="font-style:normal;font-weight:normal;font-size:143.99993896px;line-height:125%;font-family:Sans;-inkscape-font-specification:Sans;letter-spacing:0px;word-spacing:0px;fill:#000000;fill-opacity:1;stroke:none"
     xml:space="preserve"
     id="text2992-3"
     y="3397.9609"
     x="89.453377"><tspan
       id="tspan2"
       y="3397.9609"
       x="89.453377">1970</tspan></text>
</svg>
