<svg xmlns="http://www.w3.org/2000/svg" width="7550" viewBox="100, 0, 7550, 5650" height="5650"><path d="M3029.571 3420.682l198.697 6.365 31.82 2.828 44.548 12.728 19.799 4.95 39.598 1.414 22.627-6.364h35.356l52.326 6.364 25.455-1.414 20.506-7.779 24.042-17.677 30.406-37.477 19.092-16.263 13.435-7.779 41.012-2.12 30.405 2.12 10.821-9.41" fill="none" stroke="#b8740f" stroke-width="5" stroke-linejoin="round"/><path d="M3025.682 3708.475l8.914.707 107.768-29.662 36.042.62 52.512 13.797 41.927 2.233 20.974 3.254 102.451-1.904 17.891-.333 23.232 8.941 17.46 10.432 12.373 4.075 8.585-.981 11.482-4.81 9.582-8.784 7.822-17.737v-32.88l-1.768-53.034 10.606-23.688 29.699-25.102 95.813-68.59 59.397-42.78 21.567-3.535 18.384-15.556 30.76-15.91 9.399-11.789 10.895-15.538 7.85-25.488 5.797-43.352 48.79-155.563 38.684-125.244 9.192-37.977 1.223-9.342-8.212-15.734-9.944-9.247-48.648-15.565-24-4.5-27-6.5-10.993-6.752-7.104-9.455-4.27-12.674.743-26.234-2.376-29.385-6.133-21.87-19.997-17.867-22.37-5.263-30.5-5.5-55.5-2-12-5-18-27-10.955-24.847" fill="none" stroke="#f60" stroke-width="5" stroke-linejoin="round"/><path d="M4174.517 2360.693l-3.675 14.886-1.414 28.284 4.95 18.385 9.899 13.435 16.263 18.385 5.657 23.334-1.414 18.385-32.527 94.752-19.092 42.427-43.512 57.675-178.52 260.523-26.87 43.133-9.192 37.477-38.184 123.744-48.79 155.563-5.797 43.352-7.85 25.488-10.188 15.891-13.642 15.678-29.698 15.557-19.092 16.263-21.213 3.536-51.62 36.769-103.944 74.246-27.577 24.042-9.192 21.213 1.414 52.326v34.648l-8.496 17.85-9.829 10.027-13.234 6.37-12.507.985-12.665-4.008-18.263-10.993-20.466-8.21-120.208 2.121-19.799-2.828-44.547-2.828-52.326-13.436-36.063-.707-106.066 29.699-9.726-.666" fill="none" stroke="#0071bc" stroke-width="5" stroke-linejoin="round"/><path d="M3579.167 2739.729l11.78 26.188 18.829 27.497 13.398 5.77 57.846 1.666 29.088 5.717 20.461 5.095 20.008 17.015 3.104 13.232 3 35-.87 25.611 5.18 16.214-2.713 10.486-17.17 17.43-14.927 21.76-5 30.5-6.5 17-4.5 11.5-3 30-3.5 36.5-4.5 19-27 63-8.982 26.35 3.87 42.76-4.759 26.76-15.13 37.63-5 21.5-1 20.5-1.438 30.853 6.493 19.16 9.933 11.44 31.12 19.122 23.511 24.867 14.756 11.003 15.126 9.554 13.5 9.5 42.5 48.5 2 14-1.5 34-7 28 10.5 50.5 5 17.5.5 20-2 9.5 3.5 10.5 25.5 11.5 37 16 21 12.5 55 33 15.5 6.5 11.5-1.5 18.5-5.5 22-6 14.855-10.867 17.534-37.633 12.37-16.126 13.24-7.874 32-10 28-20.5 29.5-22.5 12.5-14.5 15.5-6.5 54.134 7.248 55.26 6.63 68.84 21.883 39.331 16.119 19.35 10.854 67.577 64.707 17.67 20.63 5.303 11.668 1.414 28.638-1.414 109.248-42.073 129.4-1.061 10.96 3.182 10.607 8.364 13.874 25.577 34.21" fill="none" stroke="#c40f39" stroke-width="5" stroke-linejoin="round"/><path d="M3350.18 3126.91l2.5 17.5 6.5 8.5 29.5 16 132.5 37 80 22.5 30.164 12.632 11.867 16.49 7.366 18.114-.713 15.26-5.683 12.503-5 18.5-1.69 8.652-2.562 51.011 6.737 21.902 10.86 12.798 31.732 19.402 24.717 25.918 13.08 9.763 17.126 11.054 11.504 8.317 42.496 46.683 1 25-1.5 17.5-7 31.5 14 65.5 1.154 4.225.614 18.078-2.117 9.297 5.013 14.549 62.926 27.065 75.657 45.97 17.546 7.705 15.018-1.914 39.233-11.399 17.805-12.48 17.385-37.828 11.71-15.057 11.4-7.12 33.113-10.586 59.397-44.773 11.362-12.673 12.27-5.759 45.046 6.03" fill="none" stroke="#448136" stroke-width="5" stroke-linejoin="round"/><path d="M2521.825 3160.127l7.856 1.782 84 32.5 87 38.5 17.5 7.5 65 10 133 9.5 132.5 20.5 73 12 82.5 2.5 111.5 3 74 8 135 14.5 30-5.5 41.5 6.5 45 13.5 47 24 84 29.5 73.5 30.5 7.5 8.5 30.037 27.174 47.456 22.555 17.007 20.271 64 61 19.5 8 15 .5 18.5-4.5 27.5-19.5 55-60 37-35 48-10 65-5 65 6 92 12 41 7" fill="none" stroke="#4fae35" stroke-width="5" stroke-linejoin="round"/><path d="M2981.68 3270.41l-48-17.5-45.5-24.5-42-44.5-16-40-11.555-47.063-.694-8.188" fill="none" stroke="#4fae35" stroke-width="5" stroke-linejoin="round"/><path d="M2818.18 3090.91l.5-31 6-32.5 23-38 34.5-33.5 79.5-70.5 17-21 20.5-26 107-150 108.5-152.5 28.5-37 23.5-31 51.5-45.5 76-74 23.5-28.5 13.5-38 2.5-33 6.5-141 3.5-65 12-54.5 32-101 49-158 28.5-97.5 40.911-88.913M3367.68 3304.41l-28 6.5-34 17-17.5 24.5-5.5 22.5 5 26.5 15.5 22 59.5 59.5 22 16.5 7.5 14 9 33.5 2.5 25.5-16.5 107.5-3 37.5 1.5 145-.5 44.5-9 41.5-22 85-65.5 229.5v21l2 16 18.906 33.238 18.384 17.678 7.779 18.385-.707 20.506-6.365 12.728-13.496 39.464-206 393" fill="none" stroke="#4fae35" stroke-width="5" stroke-linejoin="round"/><path d="M4075.18 4012.91l20 22 20.5 10.5 34.5 4.5 258.5 19.5 38 12.5 23.5 18 15.5 21 27.5 35.5 33.5 41 74.5 102.5" fill="none"/><path d="M4490.68 3455.91l54 20.5 39.5 29 59 39 41 12.5 74 29 352 116.5 71 21 205.4 66.844M4077.18 4012.41l16 19.5 13 9.5 21.5 5.5 65 5 148 9 71.5 8.5 23 7 25.5 15 14.5 13 23.5 33 30 38.5 35 45.5 75.264 96.177 82.734 84.15 210.718 218.497 19.092 21.92 101.489 143.007M4318.68 3434.41l87-13 46.5-1.5 54.5 10h20l20-10.5 13-14 6-22-2.5-18-11-39.5-3.5-43-19.5-249.5-21.373-113.374" fill="none" stroke="#4fae35" stroke-width="5" stroke-linejoin="round"/><text x="189.453125" y="5547.9609" style="line-height:125%;-inkscape-font-specification:Sans" font-weight="400" font-size="144px" font-family="Sans" letter-spacing="0" word-spacing="0"/><text x="189.453133" y="206.96094" style="line-height:125%;-inkscape-font-specification:Sans" font-weight="400" font-size="143.99990845px" font-family="Sans" letter-spacing="0" word-spacing="0"><tspan x="189.453133" y="206.96094">1985</tspan></text><path d="M2524.343 3161.119L2495 3149.45l-31.113-22.98-57.63-61.872-235.112-193.394-410.122-336.937-219.557-165.463-73.539-38.183-68.236-33.941-76.014-25.81-3.828-.974M2543.18 3166.91h-27.5l-30.5 11-31.5 15-22 26-21 50.5-170.5 413.5-16.5 42-162.5 262-36 44.5-178 216-21.5 32-112.5 190-80 120-13.5 32-76 341-11 29.5-33 39-13.5 19.5-9 27 3 33 3 40.5-8 25.5-19.5 40.5-8 26.5-1 33.5 3.5 244-4.5 18-11 11.5-12.5 5.5-14.5 3.5" fill="none" stroke="#4fae35" stroke-width="5" stroke-linejoin="round"/><path d="M2423.18 3239.91l-26.5 38.5-14.5 16-26 7-109 14-215.5 46-37 15-83.5 39-62 42-17 9.5-15 5.5-207 49.5M4070.68 3560.41l-51 49-17.5 26.5-4 17.5-9.5 59 .5 37.5 18 68 44.5 138 21.567 49.685 4.145 6.906" fill="none" stroke="#4fae35" stroke-width="5" stroke-linejoin="round"/></svg>