<?xml version="1.0" encoding="UTF-8" standalone="no"?>
<!-- Created with Inkscape (http://www.inkscape.org/) -->

<svg
   xmlns:dc="http://purl.org/dc/elements/1.1/"
   xmlns:cc="http://creativecommons.org/ns#"
   xmlns:rdf="http://www.w3.org/1999/02/22-rdf-syntax-ns#"
   xmlns:svg="http://www.w3.org/2000/svg"
   xmlns="http://www.w3.org/2000/svg"
   xmlns:xlink="http://www.w3.org/1999/xlink"
   version="1.1"
   width="3000"
   height="4350"
   viewBox="-100, -300, 3000, 4350"
   id="svg2">
  <metadata
     id="metadata8">
    <rdf:RDF>
      <cc:Work
         rdf:about="">
        <dc:format>image/svg+xml</dc:format>
        <dc:type
           rdf:resource="http://purl.org/dc/dcmitype/StillImage" />
        <dc:title></dc:title>
      </cc:Work>
    </rdf:RDF>
  </metadata>
  <defs
     id="defs6" />
  <image
     xlink:href="../streetmap/sclosm.png"
     style="display:none"
     id="image10"
     height="3660"
     width="2816"
     y="0"
     x="100" />
  <path
     d="m 1270.898,1061.8731 2.1022,13.9269 29.5,118.5 12.5,25.5 5.5,23 -1,35.5 6,162 4.5,22 17.5,22.5 18.5,5.5 25,10 15,14.5 14.5,26 5.5,28 -1.5,25.5 -36,149.5 -24,119.5 -46,201.5 -24.5875,104.2461"
     id="path3780"
     style="fill:none;stroke:#fbb416;stroke-width:5;stroke-linecap:butt;stroke-linejoin:round;stroke-miterlimit:4;stroke-opacity:1;stroke-dasharray:none" />
  <path
     d="m 467,1035.8 7.5,121 6,47.5 13,22 45,14.5 36.5,7.5 46.5,9 17.5,0 133.5,-37 171,-48.5 71.5,-20 32,-12 126.5,-41 305.5,-86 18,-8 45.5,-38.49995 34,-26.5 37.5,-9 24,-10.5 45,-22 32,-33.5 40,-36.5 31.5,-23.5 27.5,-14 17,-7 32,-28 16.5,-6 14.5,-8.5 21.5,-23 27.5,-22 28.5,-28 66,-30.5 73.5,-23 112,-27 35.5,-12"
     id="path3782"
     style="fill:none;stroke:#dc1a32;stroke-width:5;stroke-linecap:butt;stroke-linejoin:round;stroke-miterlimit:4;stroke-opacity:1;stroke-dasharray:none" />
  <text
     x="-10.5469"
     y="-93.03911"
     id="text3784"
     xml:space="preserve"
     style="font-size:143.99993896px;font-style:normal;font-weight:normal;line-height:125%;letter-spacing:0px;word-spacing:0px;fill:#000000;fill-opacity:1;stroke:none;font-family:Sans;-inkscape-font-specification:Sans"><tspan
       x="-10.5469"
       y="-93.03911"
       id="tspan1">1985</tspan></text>
  <text
     x="-10.5469"
     y="3947.961"
     id="text3788"
     xml:space="preserve"
     style="font-size:144px;font-style:normal;font-weight:normal;line-height:125%;letter-spacing:0px;word-spacing:0px;fill:#000000;fill-opacity:1;stroke:none;font-family:Sans;-inkscape-font-specification:Sans"><tspan
       x="-10.5469"
       y="3947.961"
       id="tspan2">1985</tspan></text>
  <path
     d="m 1588.9075,820.43582 10.2448,-17.07462 19.6358,-37.13732"
     id="path3901"
     style="fill:none;stroke:#679a01;stroke-width:5;stroke-linecap:butt;stroke-linejoin:round;stroke-miterlimit:4;stroke-opacity:1;stroke-dasharray:none" />
  <path
     d="m 1632.1383,743.82226 117.7174,-131.60208 101.1902,-27.49203"
     id="path4553"
     style="fill:none;stroke:#000000;stroke-width:5;stroke-linecap:butt;stroke-linejoin:round;stroke-miterlimit:4;stroke-opacity:1;stroke-dasharray:none" />
</svg>
