<?xml version="1.0" encoding="UTF-8" standalone="no"?>
<!-- Created with Inkscape (http://www.inkscape.org/) -->

<svg
   xmlns:dc="http://purl.org/dc/elements/1.1/"
   xmlns:cc="http://creativecommons.org/ns#"
   xmlns:rdf="http://www.w3.org/1999/02/22-rdf-syntax-ns#"
   xmlns:svg="http://www.w3.org/2000/svg"
   xmlns="http://www.w3.org/2000/svg"
   xmlns:xlink="http://www.w3.org/1999/xlink"
   version="1.1"
   width="1200"
   height="2350"
   id="svg2">
  <metadata
     id="metadata8">
    <rdf:RDF>
      <cc:Work
         rdf:about="">
        <dc:format>image/svg+xml</dc:format>
        <dc:type
           rdf:resource="http://purl.org/dc/dcmitype/StillImage" />
        <dc:title></dc:title>
      </cc:Work>
    </rdf:RDF>
  </metadata>
  <defs
     id="defs6" />
  <image
     xlink:href="streetmap/streetmap/yegosm.png"
     style="display:none"
     id="image10"
     height="2404"
     width="1202"
     y="21"
     x="20" />
  <path
     d="m 1132.7891,70.30078 -201.11592,214.41932 -64.95183,75.125 -51.64843,45.388 -89.21094,107.9922 -86.86328,129.9036 -133.81641,197.9857 -20.34635,28.1719 -15.65104,17.2161 -36.77995,22.694 -13.30339,14.086 -5.47786,17.2161 7.04297,49.3008 -5.47787,14.0859 -7.04297,7.043 -28.17187,3.9127 -129.90365,-2.3476 -15.65104,10.1732 -9.39062,17.2161 -3.13021,79.0378 0,17.9987 -6.26042,25.0416 -17.21615,42.2579 -29.73697,23.4765 -50.08334,33.6498 -18.781248,6.2604 -12.520833,11.7383 -5.477864,25.8242 1.565104,68.082 -3.912761,33.6497 0.782552,86.8633 2.347657,15.6511 -1.565105,13.3033 -16.433593,20.3464 -5.477865,16.4336 0.782552,93.1237 11.738281,14.8685 12.520834,6.2604 61.821619,0.7826 14.08593,10.9557 6.26042,25.8242 -0.78255,165.901 3.91276,42.2579 -1.56511,44.6054 1.56511,341.1927"
     id="path2987"
     style="fill:none;stroke:#f36f21;stroke-width:5;stroke-linecap:butt;stroke-linejoin:round;stroke-miterlimit:4;stroke-opacity:1;stroke-dasharray:none" />
</svg>
