<?xml version="1.0" encoding="UTF-8" standalone="no"?>
<!-- Created with Inkscape (http://www.inkscape.org/) -->

<svg
   xmlns:dc="http://purl.org/dc/elements/1.1/"
   xmlns:cc="http://creativecommons.org/ns#"
   xmlns:rdf="http://www.w3.org/1999/02/22-rdf-syntax-ns#"
   xmlns:svg="http://www.w3.org/2000/svg"
   xmlns="http://www.w3.org/2000/svg"
   xmlns:xlink="http://www.w3.org/1999/xlink"
   xmlns:inkscape="http://www.inkscape.org/namespaces/inkscape"
   version="1.1"
   width="7900"
   height="6850"
   viewBox="-75, -350, 7900, 6850"
   id="svg2">
  <metadata
     id="metadata8">
    <rdf:RDF>
      <cc:Work
         rdf:about="">
        <dc:format>image/svg+xml</dc:format>
        <dc:type
           rdf:resource="http://purl.org/dc/dcmitype/StillImage" />
        <dc:title />
      </cc:Work>
    </rdf:RDF>
  </metadata>
  <defs
     id="defs6" />
  <image
     xlink:href="../basemap/laxosm.png"
     style="display:none"
     id="image10"
     height="6850"
     width="4195"
     y="50"
     x="1350" />
  <path
     d="m 2912.83,2186.45 -10.83,14.88 -8,15 -21.5,40 -18.5,35.5 0,6 41,23.5 78.5,43 141.5,80.5 72.5,48.5 12,7.5 4.5,10"
     inkscape:connector-curvature="0"
     id="path3766"
     style="fill:none;stroke:#176fc0;stroke-width:1px;stroke-linecap:butt;stroke-linejoin:round;stroke-opacity:1" />
  <path
     d="m 3883.5,5779.33 -42,-105.5 -23,-62.5 -7.5,-14 -62.5,-111 -32,-59 -35,-82.5 -16,-46 -29,-80 -15,-45 -33.5,-92.5 -35,-104.5 -81.5,-235.5 -9.5,-31.5 -3.5,-16.5 -4,-74 -10.5,-196 -5.5,-99 -1.5,-15 -3.5,-17.5 -76.5,-176 -42.5,-99 -88,-201 -17,-40.5 -4.5,-17.5 -4,-46 -0.5,-423.5 0,-276 0,-179 2.9,-321.02 -2.4,-7.98"
     inkscape:connector-curvature="0"
     id="path3768"
     style="fill:none;stroke:#176fc0;stroke-width:5;stroke-linecap:butt;stroke-linejoin:round;stroke-miterlimit:4;stroke-opacity:1;stroke-dasharray:none" />
  <path
     d="m 3882,5777.33 4.5,14.5 0.5,243 -0.5,146 0.5,187 -3,5 -50,0.5 -3.5,-3 1,-123.5 6,-4.5 45.5,-0.5 4,-3.5"
     inkscape:connector-curvature="0"
     id="path3770"
     style="fill:none;stroke:#176fc0;stroke-width:1px;stroke-linecap:butt;stroke-linejoin:round;stroke-opacity:1" />
  <text
     x="14.45"
     y="6397.96"
     id="text2996"
     xml:space="preserve"
     style="font-size:144px;font-style:normal;font-weight:normal;line-height:125%;letter-spacing:0px;word-spacing:0px;fill:#000000;fill-opacity:1;stroke:none;font-family:Sans;-inkscape-font-specification:Sans"><tspan
       x="14.45"
       y="6397.96"
       id="tspan2"></tspan></text>
  <text
     x="14.45"
     y="-143.04"
     id="text2996-6"
     xml:space="preserve"
     style="font-size:144.0px;font-style:normal;font-weight:normal;line-height:125%;letter-spacing:0px;word-spacing:0px;fill:#000000;fill-opacity:1;stroke:none;font-family:Sans;-inkscape-font-specification:Sans"><tspan
       x="14.45"
       y="-143.04"
       id="tspan1">1990</tspan></text>
</svg>
