<?xml version="1.0" encoding="UTF-8" standalone="no"?>
<!-- Created with Inkscape (http://www.inkscape.org/) -->

<svg
   xmlns:dc="http://purl.org/dc/elements/1.1/"
   xmlns:cc="http://creativecommons.org/ns#"
   xmlns:rdf="http://www.w3.org/1999/02/22-rdf-syntax-ns#"
   xmlns:svg="http://www.w3.org/2000/svg"
   xmlns="http://www.w3.org/2000/svg"
   xmlns:xlink="http://www.w3.org/1999/xlink"
   version="1.1"
   width="4195"
   height="6432.3335"
   id="svg2">
  <metadata
     id="metadata8">
    <rdf:RDF>
      <cc:Work
         rdf:about="">
        <dc:format>image/svg+xml</dc:format>
        <dc:type
           rdf:resource="http://purl.org/dc/dcmitype/StillImage" />
        <dc:title></dc:title>
      </cc:Work>
    </rdf:RDF>
  </metadata>
  <defs
     id="defs6" />
  <image
     xlink:href="../streetmap/laxosm.png"
     style="display:none"
     id="image10"
     height="6432.3335"
     width="4195"
     y="50"
     x="100" />
  <path
     d="m 245,214.3335 200,403 7,21 -2,12 -11,23 -24,57 -7,20 0,18 8,22 138,300 52,127 9,19 12,11 18,8 672,-2 9,2 10,8 -2,388 2,178 6,14 14,13 13,8 58,-1 16,7 53,34 13,10 9,15 16,11 38,22 126,68 30,16 31,18 43,37 11,-1 60,-78 33,-44 27,-31 14,-12 17,-7 25,-2 30,2 28,5 13,17 14,26"
     id="path2987"
     style="fill:none;stroke:#ed1c24;stroke-width:5;stroke-linecap:butt;stroke-linejoin:round;stroke-miterlimit:4;stroke-opacity:1;stroke-dasharray:none" />
  <path
     d="m 1104,1868.8335 152,0.5 12.5,-5 16.5,-9.5 11.5,-5.5 21,-8.5 8.5,2 17,8 8.5,7 12,9 6.5,2.5 56,-1 16.5,7.5 45.5,29 14,10 5.5,5.5 6,11 6.5,5 12.5,9 156,85.5 65,35.5 45,38.5 6.5,1.5 11.5,-3 65,-83.5 28.5,-38.5 23.9571,-28.5999 15.0429,-13.9001 16,-5.5 22.5,-2 32.5,2 23,3.5 14,17 12.5,25"
     id="path3757"
     style="fill:none;stroke:#9e46a9;stroke-width:5;stroke-linecap:butt;stroke-linejoin:round;stroke-miterlimit:4;stroke-opacity:1;stroke-dasharray:none" />
  <path
     d="m 4031,543.3335 -21,3 -19,-1 -25,-5 -20,-8 -33,-27 -12,-10 -21,-13 -27,-9 -30,-1 -322,5 -15,-1 -65,9 -100,-2 -120,0 -14,8 -26,66 1,22 0,275 -2,17 -28,30 -5,11 2,31 -3,17 -8,12 -60,54 -34,36 -20,21 -19,3 -108,9 -19,8 -48,14 -49,10 -17,-2 -16,-4 -79,-27 -13,-2 -19,5 -32,17"
     id="path3759"
     style="fill:none;stroke:#fab20b;stroke-width:5;stroke-linecap:butt;stroke-linejoin:round;stroke-miterlimit:4;stroke-opacity:1;stroke-dasharray:none" />
  <path
     d="m 2461.5,1189.3335 -13.5,23 -9,24 3,35 -5,17 -15,17 -25,17 -7,10 -4,12 -16,23 -12,13 -2,20 2,34 -7,22 -21,27 -54,61 -59,51 -14,15 -15,33 -17,63 -11,12 -19,11 -49,22 -25,22 -13,31 -13,45 2,15 11,12 19,13 2,14 -9,27 -6.5,18.5 -3,22"
     id="path3761"
     style="fill:none;stroke:#fab20b;stroke-width:5;stroke-linecap:butt;stroke-linejoin:round;stroke-miterlimit:4;stroke-opacity:1;stroke-dasharray:none" />
  <path
     d="m 2586.5,1113.3335 -117,70.5 -9.5,8.5"
     id="path2988"
     style="fill:none;stroke:#fab20b;stroke-width:1;stroke-linecap:butt;stroke-linejoin:round;stroke-miterlimit:4;stroke-opacity:1;stroke-dasharray:none" />
  <path
     d="m 1761.5,2060.3335 -90.6911,115.0446"
     id="path3764"
     style="fill:none;stroke:#176fc0;stroke-width:1px;stroke-linecap:butt;stroke-linejoin:round;stroke-miterlimit:4;stroke-opacity:1;stroke-dasharray:none" />
  <path
     d="m 1672,2173.8335 -20,27.5 -8,15 -21.5,40 -18.5,35.5 0,6 41,23.5 78.5,43 141.5,80.5 72.5,48.5 12,7.5 4.5,10"
     id="path3766"
     style="fill:none;stroke:#176fc0;stroke-width:1px;stroke-linecap:butt;stroke-linejoin:miter;stroke-opacity:1" />
  <path
     d="m 2633.5,5779.3335 -42,-105.5 -23,-62.5 -7.5,-14 -62.5,-111 -32,-59 -35,-82.5 -16,-46 -29,-80 -15,-45 -33.5,-92.5 -35,-104.5 -81.5,-235.5 -9.5,-31.5 -3.5,-16.5 -4,-74 -10.5,-196 -5.5,-99 -1.5,-15 -3.5,-17.5 -76.5,-176 -42.5,-99 -88,-201 -17,-40.5 -4.5,-17.5 -4,-46 -0.5,-423.5 0,-276 0,-179 2.9003,-321.0169 -2.4003,-7.9831"
     id="path3768"
     style="fill:none;stroke:#176fc0;stroke-width:5;stroke-linecap:butt;stroke-linejoin:round;stroke-miterlimit:4;stroke-opacity:1;stroke-dasharray:none" />
  <path
     d="m 2632,5777.3335 4.5,14.5 0.5,243 -0.5,146 0.5,187 -3,5 -50,0.5 -3.5,-3 1,-123.5 6,-4.5 45.5,-0.5 4,-3.5"
     id="path3770"
     style="fill:none;stroke:#176fc0;stroke-width:1px;stroke-linecap:butt;stroke-linejoin:miter;stroke-opacity:1" />
  <path
     d="m 361,4442.3335 -197,-180 -14,-16 -6,-14 -2,-98 -3,-15 -8,-10 -13,-16 -4,-14 3,-152 11,-10 54,-23 59,2 18,0 26,-6 60,1 23,-2 21,-7 56,-20 44,-17 37,-11 29,1 22,3 22,9 21,9 93,70 24,19 25,15 24,7 33,4 35,-3 44,-6 46,-3 66,0 79,2 24,-3 181,-47 41,-2 57,3 85,-2 46,2 58,13 43,3 89,-2 55,1 44,-7 43,-8 37,-4 59,3 38,4 105,4 27,-7 51,-14 28,-2 31,2 31,11 68,35 76,42 133,69 67,35 103,46 54,23 38,13 50,10 62,-3 86,-8 170,-19 40,-2 153,1 60,-1 141,-11 61,-2 54,2 56,-7"
     id="path3763"
     style="fill:none;stroke:#66c657;stroke-width:5;stroke-linecap:butt;stroke-linejoin:round;stroke-miterlimit:4;stroke-opacity:1;stroke-dasharray:none" />
  <text
     x="89.453125"
     y="6330.2944"
     id="text2996"
     xml:space="preserve"
     style="font-size:144px;font-style:normal;font-weight:normal;line-height:125%;letter-spacing:0px;word-spacing:0px;fill:#000000;fill-opacity:1;stroke:none;font-family:Sans;-inkscape-font-specification:Sans"><tspan
       x="89.453125"
       y="6330.2944"
       id="tspan2"></tspan></text>
  <text
     x="89.453178"
     y="206.96443"
     id="text2996-6"
     xml:space="preserve"
     style="font-size:143.99993896px;font-style:normal;font-weight:normal;line-height:125%;letter-spacing:0px;word-spacing:0px;fill:#000000;fill-opacity:1;stroke:none;font-family:Sans;-inkscape-font-specification:Sans"><tspan
       x="89.453178"
       y="206.96443"
       id="tspan1">2005</tspan></text>
</svg>
