<svg xmlns="http://www.w3.org/2000/svg" width="8250" height="4250" viewBox="0 -450 8250 4250"><path d="m2414.66 3127.28-31.91 1.47-44.75 8.44-225.22 64.19-26.78 7.34-56.12 3.67-38.88-12.47-20.91-23.11-6.97-23.48.37-278.04 5.87-20.91 11-12.84 55.02-31.55 13.94-12.47 8.8-24.21 3.3-24.58-17.97-168.36.37-101.97-4.03-19.07-13.2-18.34-16.51-12.47-25.31-8.07-87.34-1.68-23.43 1.64-24.94 13.25-183.39 130.44-31.69 20.32-45.35 15.41-42.35 8.03-123.81-9.13-153.11-9.45-14.52 4.67-18.67 7.26-54.47.52-10.89-4.15-7.78-10.37-7.26-12.45-1.56-25.42-1.04-64.32.52-796.26 5.71-172.74 10.89-30.09 14.01-28.53 11.93-10.89 33.72-14.52 66.92-10.89 60.17-8.3 24.38-4.67 14.52-7.78 37.87-45.13 45.13-33.2 46.17-62.25 19.19-17.64 131.24-60.69 20.75-4.67 19.71 5.71 106.34 61.21 24.9 8.3 78.85 6.22 74.18 12.97 68.99-10.37 20.23-6.22 21.27-17.12 16.6-7.78 54.99-3.11 34.24-11.93 41.5-30.09 22.82-21.27 84.55-100.64 9.86-28.01 20.75-131.76 16.08-41.5 20.23-35.79 64.84-54.47 30.61-15.56 268.19-87.15 64.32-23.34 46.69-11.41 37.35-1.04 48.24 4.15 181.56 11.41" style="opacity:1;fill:none;fill-opacity:1;fill-rule:nonzero;stroke:#a83b7f;stroke-width:5;stroke-linecap:butt;stroke-linejoin:round;stroke-miterlimit:4;stroke-dasharray:none;stroke-opacity:1"/><path d="M1569.92 3120.31c1.47.9.54-96.47 9.54-96.47l-.73-28.61-6.97-38.15-8.8-12.47-27.88-20.91-112.98-73.73-4.4-13.94 12.47-187.8 6.6-17.61 17.61-15.77 46.58-8.07 42.18-3.67 43.28-7.34 45.12-15.77 31.91-20.54 182.3-129.11 26.41-14.67 24.21-1.83 27.88-0.73.94-3.3 6.6-7.34 2.2-13.57.73-104.54 8.44-26.04 12.84-23.48 31.18-19.81 22.74-9.54 87.67-60.16 86.57-58.32 29.71-33.01 36.31-41.08 8.07-17.97 12.47-39.25 24.58-66.76v-23.11l-15.41-70.79-8.44-247.59 2.93-186.7 19.07-78.5 4.03-39.98-2.93-14.67-10.64-13.94-79.23-72.63-28.61-53.19-47.68-69.33-16.51-9.17-58.32-10.64-33.75-16.51-32.28-18.34-15.41-18.34-96.09-140.46-103.07-164.7-138.65-208.71-282.8-425.12-216.42-315.45" style="opacity:1;fill:none;fill-opacity:1;fill-rule:nonzero;stroke:#d86a15;stroke-width:5;stroke-linecap:butt;stroke-linejoin:round;stroke-miterlimit:4;stroke-dasharray:none;stroke-opacity:1"/><path style="fill:none;fill-rule:evenodd;stroke:#0494b7;stroke-width:5;stroke-linecap:butt;stroke-linejoin:round;stroke-miterlimit:4;stroke-dasharray:none;stroke-opacity:1" d="m114.53.6.5-74.5 5-17 11-12L246.5 2726l14.5-7.02.5-2.5h290l54-10 104 1.5 17.5-4 16-11.5 10.5-12.5 6.5-15.02.5-18.5 1.5-63 9-16 10-14.5 16-17.5 80-59.5 140.5-84.5 16-.5 249.54.20.5-5.5 42.5-14.02.5-15.5 18-5.5 88.5-.5 15-4.5 38-29 16.5-17.5 15.5-24.5 5.5-16.5 1.5-143.5 7.5-13 16-19 79.5-63.06.5-56.5 70.5-103.5 26-58 23-65.5 15-45v-37l-10-50.5-58-260.5 1-22.5 8.5-19.5 12-14 9-7 5-12.5.5-18-10.5-201L1902 900l19-29 16-13.5 32.5-21.5 9-10.5 3-12.5 4-12.5-2.5-9.5-30.5-39.5-14-30.5-3-30.5-7.5-49.07.5-25 20-30.5 64.5-50 12-17.5 91.5-324.5 11.5-15.5 19-13.5 13-1.5 184-18.5 37.5 10 15 1 47-13.5"/><path style="fill:none;fill-rule:evenodd;stroke:#c7db00;stroke-width:5;stroke-linecap:butt;stroke-linejoin:round;stroke-miterlimit:4;stroke-dasharray:none;stroke-opacity:1" d="m452 1587 231-12 27 3.5 30.51.66.5 47 60 58.5 18 9 15.5 1 464 1.5 279 9 71.5-0.57.5-38.5h18.5l42.5 6.5 55 21 8.5 11 36 16 35 1.5 45-15.5 142-74 34-16 31.5-2.5 54.5-2.04.5-6 36-7 88.5-8.5 24 .5 142-39 90-9 44.5-15.5 55-.5 166.5-61.02.5-64 112-9 50.5-7.5 91.5-.5 20 6 15 13.5 10.5 18.5 162.53.17.5 21.5"/><path style="fill:none;fill-rule:evenodd;stroke:#af2822;stroke-width:5;stroke-linecap:butt;stroke-linejoin:round;stroke-miterlimit:4;stroke-dasharray:none;stroke-opacity:1" d="m749.43 621.85 163.34 272.94 14.85 15.56 337.29 212.13 16.62 15.2 9.55 15.91 7.07 20.86 55.15 197.99 63.29 205.77 4.6 25.81 1.06 98.99 7.78 29.34 24.04 67.53 1.41 18.74-3.54 76.72.7117.68 3.54 6.72 47.02 31.11 99.35 20.86 71.06 7.42 31.82 9.19 27.22 10.96 48.44 11.67 37.83 2.12 32.53 10.25 39.24 8.13 31.11 9.9 27.22 18.38 16.26 15.56 25.1 11.31 11.31 13.79 6.36 13.44 4.95 14.85 4.95 41.01 19.8 52.33 1.06 12.37-1.06 25.1-4.24 30.05v15.2l6.72 24.04 1.06 20.15-1.41 13.79 4.95 24.4 4.95 6.72 31.7 16.64.65.56.23.5 51.5 14.5 97 57 89 70 12 12 5.51.2.5 11-3 12-13 83.5 3.5 14 8 36.5 9 13 11 8 11.54.10.5 1 134-11.5 25.57-2.39 68.47 16.6 29.05 15.56 38.39 53.43 16.6 17.12 102.19 74.7 25.94 5.71 62.25-13.49 82.48-19.71h25.94l70.55 8.3 108.93 28.53 174.3 77.81 141.1 51.87 111.01 31.64 46.69 28.01 46.17 37.87 29.05 32.16 188.82 255.74 32.16 29.05 49.28 30.09 90.78 37.35"/><path style="fill:none;fill-rule:evenodd;stroke:#03468a;stroke-width:5;stroke-linecap:butt;stroke-linejoin:round;stroke-miterlimit:4;stroke-dasharray:none;stroke-opacity:1" d="m1869.84 1734.84 40.31 16.26 12.02 18.38 4.95 14.85 1.41 19.8 4.24 11.31 26.87 26.87 231.93 310.42 93.34 96.87 16.97 6.36 164.05-13.44 16.26 1.41 17.68 12.73 127.99 75.66 20.51 4.95 181.02 9.9 27.58 5.66 531.04 150.61 480.83 197.99 854.18 360.62 690.84 149.91 21.21 1.41 74.25-22.63 110.31-82.02 33.94-9.9 31.82 2.12 119.5 26.16 311.83 63.64 48.08-0.71.83-17.68 228.4 33.23 55.15 16.97 77.78 16.97 637.1 186.68 48.08 12.02 142.84 71.42 34.65 1.41 179.61 86.27h27.58l34.65-8.49 18.38-16.26 14.85-21.21 77.07-162.63 12.02-14.14 52.33-38.89 11.31-21.92 18.38-83.44 13.44-50.2"/><text style="font-style:normal;font-weight:400;font-size:144px;font-family:Sans;-inkscape-font-specification:Sans;fill:#000;fill-opacity:1;stroke:none" xml:space="preserve" y="-243.04" x="89.45"><tspan y="-243.04" x="89.45">2020</tspan></text></svg>