<?xml version="1.0" encoding="UTF-8" standalone="no"?>
<svg
   version="1.1"
   width="5400"
   viewBox="-1842, 16, 5400, 5350"
   height="5350"
   id="svg2"
   xmlns:xlink="http://www.w3.org/1999/xlink"
   xmlns="http://www.w3.org/2000/svg"
   xmlns:svg="http://www.w3.org/2000/svg"
   xmlns:rdf="http://www.w3.org/1999/02/22-rdf-syntax-ns#"
   xmlns:cc="http://creativecommons.org/ns#"
   xmlns:dc="http://purl.org/dc/elements/1.1/">
  <metadata
     id="metadata8">
    <rdf:RDF>
      <cc:Work
         rdf:about="">
        <dc:format>image/svg+xml</dc:format>
        <dc:type
           rdf:resource="http://purl.org/dc/dcmitype/StillImage" />
      </cc:Work>
    </rdf:RDF>
  </metadata>
  <defs
     id="defs6" />
  <g
     id="g1301"
     style="display:none">
    <image
       xlink:href="../../basemap/nycosm.png"
       style="fill:#330000"
       id="image10"
       height="5376"
       width="5888"
       y="0"
       x="-2304" />
    <image
       xlink:href="railosm.png"
       style="opacity:0.5;stroke:none"
       width="5888"
       height="5376"
       preserveAspectRatio="none"
       id="image1296"
       x="-2304"
       y="0" />
  </g>
  <path
     style="fill:none;stroke:#999999;stroke-width:3;stroke-linecap:butt;stroke-linejoin:round;stroke-miterlimit:4;stroke-dasharray:none;stroke-opacity:1"
     d="m 646.62,3444.01 -83.99,-28.4 -8.65,-3.41 -15.81,-5.52"
     id="path29704" />
  <path
     style="fill:none;stroke:#eebb00;stroke-width:3;stroke-linecap:butt;stroke-linejoin:round;stroke-miterlimit:4;stroke-dasharray:none;stroke-opacity:1"
     d="m 228.15,2737.12 -11.04,-0.42 -37.19,-1.43 -67,-15.8 -5.66,0.05 -17.3,3.94 -2.96,0.75"
     id="path1138" />
  <path
     d="m -92.12,2760.76 -7.78,1.06 -28.38,-8.23"
     id="path5796-6"
     style="fill:none;stroke:#eebb00;stroke-width:3;stroke-linecap:butt;stroke-linejoin:round;stroke-miterlimit:4;stroke-dasharray:none;stroke-opacity:1" />
  <path
     style="fill:none;fill-opacity:0.14;fill-rule:nonzero;stroke:#eebb00;stroke-width:3;stroke-linecap:butt;stroke-linejoin:round;stroke-miterlimit:4;stroke-dasharray:none;stroke-opacity:1"
     d="m -69.29,2782.24 16.68,20.13 4.27,1.73 18.38,-17.38 14.88,-21.94 10.19,-17.3 16.54,-6.07 75.36,-17.2"
     id="path23286" />
  <path
     style="opacity:1;fill:none;fill-opacity:0.15;fill-rule:nonzero;stroke:#999999;stroke-width:3;stroke-linecap:butt;stroke-linejoin:round;stroke-miterlimit:4;stroke-dasharray:none;stroke-opacity:1"
     d="m 646.62,3444.01 30.56,14.11 149.81,76.79"
     id="path13992" />
  <path
     id="path42868"
     d="m -655.7,1194.18 105.4,301.29 121.37,347.78 18.81,51.81 22,61.75 10.29,36.2 33.18,94.57 154.55,460.8"
     style="opacity:1;fill:none;fill-opacity:0.15;fill-rule:nonzero;stroke:#999999;stroke-width:3;stroke-linecap:butt;stroke-linejoin:round;stroke-miterlimit:4;stroke-dasharray:none;stroke-opacity:1" />
  <path
     style="fill:none;stroke:#eebb00;stroke-width:3;stroke-linecap:butt;stroke-linejoin:round;stroke-miterlimit:4;stroke-dasharray:none;stroke-opacity:1"
     d="m -69.29,2782.24 -18.23,-19.36 -5.66,-2.83"
     id="path4371" />
  <path
     style="opacity:1;fill:none;fill-opacity:0.15;fill-rule:nonzero;stroke:#999999;stroke-width:3;stroke-linecap:butt;stroke-linejoin:round;stroke-miterlimit:4;stroke-dasharray:none;stroke-opacity:1"
     d="m -1393.12,-2.45 1.06,74.17 11.36,24.49 24.84,31.23"
     id="path2067" />
  <path
     style="opacity:1;fill:none;fill-opacity:0.4;fill-rule:nonzero;stroke:#eebb00;stroke-width:3;stroke-linecap:butt;stroke-linejoin:round;stroke-miterlimit:4;stroke-dasharray:none;stroke-opacity:1"
     d="m 705.29,2909.83 -9.16,16.94 -2.38,6.15"
     id="path8733" />
  <path
     style="opacity:1;fill:none;fill-opacity:0.4;fill-rule:nonzero;stroke:#eebb00;stroke-width:3;stroke-linecap:butt;stroke-linejoin:round;stroke-miterlimit:4;stroke-dasharray:none;stroke-opacity:1"
     d="m 785.1,2821.17 81.78,44.99 18.07,10.29"
     id="path7045" />
  <path
     style="fill:none;stroke:#999999;stroke-width:3;stroke-linecap:butt;stroke-linejoin:round;stroke-miterlimit:4;stroke-dasharray:none;stroke-opacity:1"
     id="path3670"
     d="m -280,4483.5 8,16.5 v 20 l -9,15.5 -23,17.5 -16,23.5 -33,77 -16,31.5 -19,34 -28,45 -19.5,32.5 -7,23 -17,52 -11,23.5 -20,29 -47,45.5 -78.5,76.5 -136,130 -92.5,88.5 -38,53.5 -26.5,34 -22.5,23.5" />
  <path
     id="path938"
     d="m 818.44,2483.25 16.67,-31.41 476.25,-860.57 8.87,-7.1 38.68,-20.23 11.71,-7.45 15.26,-13.49 33.36,-64.23 25.2,-34.78 19.16,-23.07 128.82,-107.53 18.81,-20.94 15.61,-31.58 155.79,-366.94 39.04,-72.75 18.68,-32.38 24.26,-26.18 38.33,-26.97 92.98,-68.85 17.39,-22 33.36,-63.17 10.29,-30.52 70.97,-214.7 24.49,-46.84 23.42,-49.33 105.58,-172.61 41.82,-69.49"
     style="opacity:1;fill:none;fill-opacity:0.15;fill-rule:nonzero;stroke:#999999;stroke-width:3;stroke-linecap:butt;stroke-linejoin:round;stroke-miterlimit:4;stroke-dasharray:none;stroke-opacity:1" />
  <path
     id="path940"
     d="m 2206.08,190.15 29.6,-38.95 23.9,-36.55 19.52,-22.36 26.62,-18.1 25.91,-12.07 39.75,-10.29 42.58,-8.87 17.74,-6.39 24.13,-12.42 20.58,-5.32 32.65,1.06 59.26,12.78 23.07,-3.19 47.91,-9.94 31.23,2.84 57.84,14.19 219.31,63.88 25.55,0.71 37.62,-6.39 31.94,-19.16 14.55,-14.55 38.33,-63.88"
     style="opacity:1;fill:none;fill-opacity:0.15;fill-rule:nonzero;stroke:#999999;stroke-width:3;stroke-linecap:butt;stroke-linejoin:round;stroke-miterlimit:4;stroke-dasharray:none;stroke-opacity:1" />
  <path
     style="opacity:1;fill:none;fill-opacity:0.15;fill-rule:nonzero;stroke:#999999;stroke-width:3;stroke-linecap:butt;stroke-linejoin:round;stroke-miterlimit:4;stroke-dasharray:none;stroke-opacity:1"
     d="m 1594.34,-2 -13.8,76.03 -86.32,305.89 -41.15,117.19"
     id="path944" />
  <path
     id="path946"
     d="m -1216.32,2645.27 -32.91,-8.71 -28.21,-13.13 -54.12,-52.88 -13.49,-8.34 -20.41,-4.97 -73.1,0.18 -33.89,-12.07 -64.23,-17.39 -39.57,-16.68 -31.76,-17.74 -31.58,-24.66 -33.36,-27.68 -29.45,-13.31 -160.23,-60.33 -52.88,-31.58 -28.74,-19.34 -96.17,-69.56 -82.69,-55.36 -29.1,-9.94 -29.81,-1.77 -19.87,2.48 -22.36,6.03 -19.52,15.26 -17.03,21.29 -44.71,69.2"
     style="opacity:1;fill:none;fill-opacity:0.15;fill-rule:nonzero;stroke:#999999;stroke-width:3;stroke-linecap:butt;stroke-linejoin:round;stroke-miterlimit:4;stroke-dasharray:none;stroke-opacity:1" />
  <path
     id="path1305"
     d="m -2303.65,3849.57 291.84,-52.7 92.34,-15.31 23.34,-0.75 32.12,4.27 25.85,8.28 36.39,17.57"
     style="opacity:1;fill:none;fill-opacity:0.15;fill-rule:nonzero;stroke:#999999;stroke-width:3;stroke-linecap:butt;stroke-linejoin:round;stroke-miterlimit:4;stroke-dasharray:none;stroke-opacity:1" />
  <path
     id="path1447"
     d="m 1833.48,2701.56 438.63,-172.14 186.69,-88.33 40.65,-33.12 40.58,-23.61"
     style="opacity:1;fill:none;fill-opacity:0.15;fill-rule:nonzero;stroke:#999999;stroke-width:3;stroke-linecap:butt;stroke-linejoin:round;stroke-miterlimit:4;stroke-dasharray:none;stroke-opacity:1" />
  <path
     id="path1564"
     d="m -1925.75,1572.36 23.09,21.08 14.05,23.59 9.79,26.6 3.76,29.86 8.28,19.57 10.79,14.3 19.57,19.82 14.55,17.82 9.54,18.57 30.11,69.51 10.79,29.36 7.03,40.65 0.25,55.46 5.52,35.13 79.29,430.85 6.39,16.68"
     style="opacity:1;fill:none;fill-opacity:0.15;fill-rule:nonzero;stroke:#999999;stroke-width:3;stroke-linecap:butt;stroke-linejoin:round;stroke-miterlimit:4;stroke-dasharray:none;stroke-opacity:1" />
  <path
     id="path1568"
     d="m -190.1,2548.37 10.65,-18.45 93.69,-112.85 22,-34.07 122.79,-247.7 114.27,-232.44 146.21,-284.96"
     style="opacity:1;fill:none;fill-opacity:0.15;fill-rule:nonzero;stroke:#999999;stroke-width:3;stroke-linecap:butt;stroke-linejoin:round;stroke-miterlimit:4;stroke-dasharray:none;stroke-opacity:1" />
  <path
     id="path2055"
     d="m -549.13,1499.34 -4.27,-30.36 v -28.61 l 7.28,-36.64 11.54,-29.86 30.61,-52.7 36.64,-62.48 110.66,-191.96 183.43,-315.42 125.47,-217.31 83.43,-209.63"
     style="opacity:1;fill:none;fill-opacity:0.15;fill-rule:nonzero;stroke:#999999;stroke-width:3;stroke-linecap:butt;stroke-linejoin:round;stroke-miterlimit:4;stroke-dasharray:none;stroke-opacity:1" />
  <path
     id="path2061"
     d="m 319.49,1617.9 77.4,-139.39 11.29,-30.36 4.27,-27.35 10.29,-179.17 5.02,-30.11 81.8,-248.42 194.97,-384.68 181.93,-360.59 35.63,-137.51 14.8,-85.82"
     style="opacity:1;fill:none;fill-opacity:0.15;fill-rule:nonzero;stroke:#999999;stroke-width:3;stroke-linecap:butt;stroke-linejoin:round;stroke-miterlimit:4;stroke-dasharray:none;stroke-opacity:1" />
  <path
     id="path2069"
     d="m -1355.86,127.43 73.46,83.4 13.84,19.87 79.49,118.17 22,44.71 92.98,130.95 51.1,73.81 18.81,50.39 13.49,17.03 16.32,35.49 39.39,75.94 47.91,64.23 4.61,11 2.84,11 0.71,26.62 8.16,27.68 3.19,21.29 -1.06,13.84 -7.81,15.61 -6.74,13.49 1.77,13.84 3.9,9.94 56.42,50.04 50.04,41.88 35.84,21.29 53.41,29.81 11.18,11 14.9,34.42"
     style="opacity:1;fill:none;fill-opacity:0.15;fill-rule:nonzero;stroke:#999999;stroke-width:3;stroke-linecap:butt;stroke-linejoin:round;stroke-miterlimit:4;stroke-dasharray:none;stroke-opacity:1" />
  <path
     id="path14561"
     d="m -2304.78,4281.22 152.95,-191.99 143.37,-180.28 27.68,-39.75 12.07,-45.78 12.42,-31.58 84.81,-152.6 102.62,-184.9 38.62,-83.38 65.3,-149.76 77.98,-167.16 17.63,-25.86 36.54,-45.38 159.48,-204.64 11.11,-14.12 14.48,-14.13 2.86,-8.94 -1.29,-6.17 -15.01,-28.73 -2.76,-21.83 -1.74,-12.19 2.11,-7.95 2.68,-2.58 15.36,-7.02 17.5,-4.5 72,-5 27.26,0.72 83.7,-3.04"
     style="opacity:1;fill:none;fill-opacity:0.15;fill-rule:nonzero;stroke:#999999;stroke-width:3;stroke-linecap:butt;stroke-linejoin:round;stroke-miterlimit:4;stroke-dasharray:none;stroke-opacity:1" />
  <path
     style="fill:none;stroke:#999999;stroke-width:3;stroke-linecap:butt;stroke-linejoin:round;stroke-miterlimit:4;stroke-dasharray:none;stroke-dashoffset:0;stroke-opacity:1"
     d="m 543.14,2481.44 -12.1,-27.65 -0.71,-13.53 6.41,-12.1 132.75,-246.17 0.91,-8.16 5.27,-18.07 v -20.07 l 4.77,-11.54 11.29,-19.82 24.09,-67 6.02,-15.56 35.13,-74.28 12.8,-25.85 11.29,-26.6 13.8,-28.36 18.07,-23.34 15.31,-22.33 43.41,-83.31 34.88,-65.24 37.39,-77.29 12.8,-23.34 16.31,-42.41 13.05,-27.6 20.07,-26.35 36.13,-52.95 15.56,-21.83 42.66,-59.22 18.57,-27.85 8.03,-15.81 6.27,-18.07 19.82,-88.33 6.52,-25.6 8.28,-23.59 15.06,-34.63 5.77,-19.32 2.51,-22.33 -2.26,-28.61 -1.51,-19.82 3.76,-25.09 12.04,-23.09 7.78,-15.31 16.56,-20.07 14.05,-26.6 4.77,-11.79 35.38,-56.71 21.58,-44.16 17.31,-29.11 20.33,-40.15 21.58,-52.19 11.29,-43.91 17.82,-39.65 11.29,-21.58 33.67,-40.07 9.75,-14.64 6.51,-16.31"
     id="path3819" />
  <path
     style="opacity:1;fill:none;fill-opacity:0.15;fill-rule:nonzero;stroke:#999999;stroke-width:3;stroke-linecap:butt;stroke-linejoin:round;stroke-miterlimit:4;stroke-dasharray:none;stroke-opacity:1"
     d="m 826.99,3534.9 17.36,6.76 226.29,62.25 47.15,4.77 367.34,24.77 165.14,19.64 39.73,5.45"
     id="path7937" />
  <path
     style="opacity:1;fill:none;fill-opacity:0.15;fill-rule:nonzero;stroke:#999999;stroke-width:3;stroke-linecap:butt;stroke-linejoin:round;stroke-miterlimit:4;stroke-dasharray:none;stroke-opacity:1"
     d="m 1689.99,3658.55 14.57,2 h 34.42 l 40.1,-3.9 45.07,-8.52 39.39,-9.58 143.01,-52.52 588.02,-220.73 303.42,-114.27 171.05,-55.01 515.63,-163.6"
     id="path926" />
  <path
     d="m 1356.45,3370.57 84.26,63.22"
     id="path9078"
     style="fill:none;stroke:#eebb00;stroke-width:3;stroke-linecap:butt;stroke-linejoin:round;stroke-miterlimit:4;stroke-dasharray:none;stroke-opacity:1" />
  <path
     style="fill:none;stroke:#eebb00;stroke-width:3;stroke-linecap:butt;stroke-linejoin:round;stroke-miterlimit:4;stroke-dasharray:none;stroke-opacity:1"
     d="m 1094.68,3180.98 -9.11,-0.58 -73.96,-9.91"
     id="path22874" />
  <path
     style="fill:none;stroke:#eebb00;stroke-width:3;stroke-linecap:butt;stroke-linejoin:round;stroke-miterlimit:4;stroke-dasharray:none;stroke-opacity:1"
     d="m 908.5,3388.63 -4,-0.15 -56.92,-1.46 -46.96,-2.66"
     id="path12704" />
  <path
     style="fill:none;stroke:#eebb00;stroke-width:3;stroke-linecap:butt;stroke-linejoin:round;stroke-miterlimit:4;stroke-dasharray:none;stroke-opacity:1"
     d="m 662.23,3402.5 -3.41,7.94"
     id="path29708" />
  <path
     style="opacity:1;fill:none;fill-opacity:0.15;fill-rule:nonzero;stroke:#eebb00;stroke-width:3;stroke-linecap:butt;stroke-linejoin:round;stroke-miterlimit:4;stroke-dasharray:none;stroke-opacity:1"
     d="m 646.62,3444.01 -81.6,222.88"
     id="path14010" />
  <path
     style="fill:none;stroke:#eebb00;stroke-width:3;stroke-linecap:butt;stroke-linejoin:round;stroke-miterlimit:4;stroke-dasharray:none;stroke-opacity:1"
     d="m 658.81,3410.44 -12.2,33.57"
     id="path29706" />
  <path
     id="path9066"
     d="m 800.61,3384.37 -10.24,-0.64"
     style="fill:none;stroke:#eebb00;stroke-width:3;stroke-linecap:butt;stroke-linejoin:round;stroke-miterlimit:4;stroke-dasharray:none;stroke-opacity:1" />
  <path
     id="path41846"
     d="m 871.8,3620.36 28.7,55.14 16.01,28.63 79.92,144 8.81,18"
     style="fill:none;stroke:#eebb00;stroke-width:3;stroke-linecap:butt;stroke-linejoin:round;stroke-miterlimit:4;stroke-dasharray:none;stroke-opacity:1" />
  <path
     id="path9069"
     d="m 1046.41,4107.32 -0.41,-18.32 -28.5,-161.5 -1.88,-40.15 -10.38,-21.22"
     style="fill:none;stroke:#eebb00;stroke-width:3;stroke-linecap:butt;stroke-linejoin:round;stroke-miterlimit:4;stroke-dasharray:none;stroke-opacity:1" />
  <path
     style="fill:none;stroke:#eebb00;stroke-width:3;stroke-linecap:butt;stroke-linejoin:round;stroke-miterlimit:4;stroke-dasharray:none;stroke-opacity:1"
     d="m 991.6,3167.54 7.46,1.08"
     id="path12348" />
  <path
     d="m 1129.07,3199.5 227.37,171.07"
     id="path9071"
     style="fill:none;stroke:#eebb00;stroke-width:3;stroke-linecap:butt;stroke-linejoin:round;stroke-miterlimit:4;stroke-dasharray:none;stroke-opacity:1" />
  <path
     style="fill:none;stroke:#eebb00;stroke-width:3;stroke-linecap:butt;stroke-linejoin:round;stroke-miterlimit:4;stroke-dasharray:none;stroke-opacity:1"
     d="m 663.75,3287.61 12.12,0.55 14.69,0.42 17.74,0.47"
     id="path9067" />
  <path
     style="fill:none;stroke:#eebb00;stroke-width:3;stroke-linecap:butt;stroke-linejoin:round;stroke-miterlimit:4;stroke-dasharray:none;stroke-opacity:1"
     d="m 708.29,3289.05 63.96,1.24 -0.29,21.91 118.79,6.8 7.19,0.31"
     id="path26686" />
  <path
     id="path41850"
     d="m 871.8,3620.36 -43.63,-82.73 -32.23,-56.55 -6.75,-10.76 -4.09,-7.34 -5.34,-8.98"
     style="fill:none;stroke:#eebb00;stroke-width:3;stroke-linecap:butt;stroke-linejoin:round;stroke-miterlimit:4;stroke-dasharray:none;stroke-opacity:1" />
  <path
     id="path934-3"
     d="m 1045.56,2643.48 58.2,13.84 17.57,0.32 12.04,0.25 74.28,-37.64 72.77,-38.14 51.69,-20.07 227.85,-57.71 25.6,1 22.08,6.02 23.59,11.54 18.9,17.04 9.93,13.4 12.69,40.63 3.11,28.18 4.89,13.98 12.48,16.83 39.05,22.06 75.61,33.07 41.65,23.09 66.75,36.64 469.75,228.35 25.6,17.06 30.11,23.59 81.3,93.35 123.46,145.54 29.61,24.09 22.08,9.03 35.11,4.52"
     style="opacity:1;fill:none;fill-opacity:0.15;fill-rule:nonzero;stroke:#999999;stroke-width:3;stroke-linecap:butt;stroke-linejoin:round;stroke-miterlimit:4;stroke-dasharray:none;stroke-opacity:1" />
  <path
     id="path36794"
     d="m 1440.71,3433.79 224.25,167.3 45.63,35.06"
     style="opacity:1;fill:none;fill-opacity:0.15;fill-rule:nonzero;stroke:#eebb00;stroke-width:3;stroke-linecap:butt;stroke-linejoin:round;stroke-miterlimit:4;stroke-dasharray:none;stroke-opacity:1" />
  <path
     style="opacity:1;fill:none;fill-opacity:0.15;fill-rule:nonzero;stroke:#eebb00;stroke-width:3;stroke-linecap:butt;stroke-linejoin:round;stroke-miterlimit:4;stroke-dasharray:none;stroke-opacity:1"
     d="m 1690.19,3625.96 -37.51,-3.89 -259.86,-19.64"
     id="path9497" />
  <path
     id="path36806"
     d="m 659.49,3306.68 0.38,17.94 4.89,22.46 6.4,34.63 3.37,10.11 5.93,6.04 10.51,5.72 77.86,42.68 25.42,16.12 98.87,50.94 39.02,21.08 171.26,46.67 79.67,6.9 47.35,3.29 144.18,9.84 18.23,1.32"
     style="opacity:1;fill:none;fill-opacity:0.15;fill-rule:nonzero;stroke:#eebb00;stroke-width:3;stroke-linecap:butt;stroke-linejoin:round;stroke-miterlimit:4;stroke-dasharray:none;stroke-opacity:1" />
  <path
     style="opacity:1;fill:none;fill-opacity:0.15;fill-rule:nonzero;stroke:#eebb00;stroke-width:3;stroke-linecap:butt;stroke-linejoin:round;stroke-miterlimit:4;stroke-dasharray:none;stroke-opacity:1"
     d="m 662.23,3402.5 8.64,-22.39"
     id="path11417" />
  <path
     style="opacity:1;fill:none;fill-opacity:0.15;fill-rule:nonzero;stroke:#eebb00;stroke-width:3;stroke-linecap:butt;stroke-linejoin:round;stroke-miterlimit:4;stroke-dasharray:none;stroke-opacity:1"
     d="m 925.27,3120.15 27.18,-82.6 96.61,-119.7"
     id="path13966" />
  <path
     style="opacity:1;fill:none;fill-opacity:0.15;fill-rule:nonzero;stroke:#eebb00;stroke-width:3;stroke-linecap:butt;stroke-linejoin:round;stroke-miterlimit:4;stroke-dasharray:none;stroke-opacity:1"
     d="m 689.52,3378.55 100.85,5.18"
     id="path13972" />
  <path
     style="opacity:1;fill:none;fill-opacity:0.15;fill-rule:nonzero;stroke:#eebb00;stroke-width:3;stroke-linecap:butt;stroke-linejoin:round;stroke-miterlimit:4;stroke-dasharray:none;stroke-opacity:1"
     d="m 531.1,4008.13 -49.52,-39.29 133.37,-167.95 47.89,-76.67 -69.84,-43.23 -8,-6 -20.24,-7.13 -19.82,-6.99 -2.25,-4.37 -66.52,-147.14"
     id="path13994" />
  <path
     style="opacity:1;fill:none;fill-opacity:0.15;fill-rule:nonzero;stroke:#eebb00;stroke-width:3;stroke-linecap:butt;stroke-linejoin:round;stroke-miterlimit:4;stroke-dasharray:none;stroke-opacity:1"
     d="m 908.5,3388.63 13.59,0.48 266.66,-40.11 114.14,-19.29"
     id="path14014" />
  <path
     style="opacity:1;fill:none;fill-opacity:0.15;fill-rule:nonzero;stroke:#eebb00;stroke-width:3;stroke-linecap:butt;stroke-linejoin:round;stroke-miterlimit:4;stroke-dasharray:none;stroke-opacity:1"
     d="m 924.62,3132.78 2.42,49.04 11.71,39.39 56.66,58.27 23.68,19.68 1.73,10.18 -20.33,4.07 -42.98,8.59 h -20 l -39.56,-2.69"
     id="path5764" />
  <path
     id="path927"
     d="m -1145.04,2642.67 229.13,-24.19 64.57,-1.11 91.42,1.87 274.52,9.79 23.84,1.76 31.87,8.03 52.32,39.52 65.49,21.58 62.36,25.85 33,15.68 24.72,25.6 16.88,21.1 33.63,36.57 4.44,25.14 0.56,13.76 -7.6,17.83 2.4,13.45 8.91,10.92 72.77,28.73 120.32,50.44 57.51,23.52 17.65,6.21 29.48,8.66 14.05,2.76"
     style="opacity:1;fill:none;fill-opacity:0.15;fill-rule:nonzero;stroke:#999999;stroke-width:3;stroke-linecap:butt;stroke-linejoin:round;stroke-miterlimit:4;stroke-dasharray:none;stroke-opacity:1" />
  <path
     style="fill:none;stroke:#eebb00;stroke-width:3;stroke-linecap:butt;stroke-linejoin:round;stroke-miterlimit:4;stroke-dasharray:none;stroke-opacity:1"
     d="m 1408.68,1577.34 79.57,-51.55 14.91,-12.89 12,-9.19"
     id="path1991" />
  <path
     style="opacity:1;fill:none;fill-opacity:0.4;fill-rule:nonzero;stroke:#eebb00;stroke-width:3;stroke-linecap:butt;stroke-linejoin:round;stroke-miterlimit:4;stroke-dasharray:none;stroke-opacity:1"
     d="m 466.58,3057.22 -13.52,-7.98"
     id="path10986" />
  <path
     id="path3706"
     d="m 463,3109 108.5,-26.5 10.62,-6.11 15.35,-17.78 26.16,-62.07 23.39,-79.91 14.87,-53.11 45.51,-82.43 93.45,-168.2 361,-656.15 146.55,-263.49"
     style="fill:none;stroke:#eebb00;stroke-width:3;stroke-linecap:butt;stroke-linejoin:round;stroke-miterlimit:4;stroke-dasharray:none;stroke-opacity:1" />
  <path
     style="fill:none;stroke:#eebb00;stroke-width:3;stroke-linecap:butt;stroke-linejoin:round;stroke-miterlimit:4;stroke-dasharray:none;stroke-opacity:1"
     d="m 1836.75,807.46 -7.21,17.32 0.47,53.3 7.72,29.02 -43.99,62.7 -9.12,22.89 -22.21,62.2 -20.93,49.78 -16.97,33.82 -36.11,63.88 -26.21,52.3 -32.99,110.15 -13.98,35.55 -26.45,9.82 -21.23,41.76 -28.47,34.79 -23.93,16.96"
     id="path14222" />
  <path
     id="path19591"
     d="m 802.82,2260.42 -50.62,87.1"
     style="fill:none;fill-rule:evenodd;stroke:#eebb00;stroke-width:3;stroke-linecap:butt;stroke-linejoin:round;stroke-miterlimit:4;stroke-dasharray:none;stroke-opacity:1" />
  <path
     id="path16211"
     d="m 727,2395.56 -11.74,38.52 -10.3,50.19 -3.32,22.85 -11.26,74.17 -9.31,67.36 -9.66,59.93"
     style="fill:none;fill-rule:evenodd;stroke:#eebb00;stroke-width:3;stroke-linecap:butt;stroke-linejoin:round;stroke-miterlimit:4;stroke-dasharray:none;stroke-opacity:1" />
  <path
     id="path9012"
     d="m 752.2,2347.53 -18.53,34.45 -6.67,13.59"
     style="fill:none;fill-rule:evenodd;stroke:#eebb00;stroke-width:3;stroke-linecap:butt;stroke-linejoin:round;stroke-miterlimit:4;stroke-dasharray:none;stroke-opacity:1" />
  <path
     id="path4168"
     d="M 785.1,2821.17 674.03,2759.52 649.87,2746.1"
     style="fill:none;fill-rule:evenodd;stroke:#eebb00;stroke-width:3;stroke-linecap:butt;stroke-linejoin:round;stroke-miterlimit:4;stroke-dasharray:none;stroke-opacity:1" />
  <path
     style="fill:none;fill-rule:evenodd;stroke:#eebb00;stroke-width:3;stroke-linecap:butt;stroke-linejoin:round;stroke-miterlimit:4;stroke-dasharray:none;stroke-opacity:1"
     d="m 681.05,2647.84 4.82,2.65 31.06,16.74"
     id="path13047" />
  <path
     style="fill:none;fill-rule:evenodd;stroke:#eebb00;stroke-width:3;stroke-linecap:butt;stroke-linejoin:round;stroke-miterlimit:4;stroke-dasharray:none;stroke-opacity:1"
     d="m 705.29,2909.83 56.76,-101.42 46.44,-83.42 3.38,-6.59 -28.52,-15.37 -66.42,-35.79"
     id="path9017" />
  <path
     id="path21404"
     d="m 818.44,2483.25 -4.4,8.28 -40.36,73.76"
     style="fill:none;fill-rule:evenodd;stroke:#eebb00;stroke-width:3;stroke-linecap:butt;stroke-linejoin:round;stroke-miterlimit:4;stroke-dasharray:none;stroke-opacity:1" />
  <path
     id="path21015"
     d="m 773.69,2565.29 -54.73,100.24 -44.43,79.25 -0.84,35.37 -8.06,45.78 -5.72,44.21"
     style="fill:none;fill-rule:evenodd;stroke:#eebb00;stroke-width:3;stroke-linecap:butt;stroke-linejoin:round;stroke-miterlimit:4;stroke-dasharray:none;stroke-opacity:1" />
  <path
     id="path21011"
     d="m 627.08,2986.57 -11.61,-4.19 -30.69,-16.51 -2.65,0.88 -10.09,15.52 -46.14,82.62 -30.77,36.27"
     style="fill:none;fill-rule:evenodd;stroke:#eebb00;stroke-width:3;stroke-linecap:butt;stroke-linejoin:round;stroke-miterlimit:4;stroke-dasharray:none;stroke-opacity:1" />
  <path
     id="path9451"
     d="m 572.03,2982.27 1.94,0.69 35.36,16.08 11.8,4.82"
     style="fill:none;fill-rule:evenodd;stroke:#eebb00;stroke-width:3;stroke-linecap:butt;stroke-linejoin:round;stroke-miterlimit:4;stroke-dasharray:none;stroke-opacity:1" />
  <path
     id="path9005"
     d="m 506.61,2959.88 26.02,25.86 1.55,1.86"
     style="fill:none;fill-rule:evenodd;stroke:#eebb00;stroke-width:3;stroke-linecap:butt;stroke-linejoin:round;stroke-miterlimit:4;stroke-dasharray:none;stroke-opacity:1" />
  <path
     style="fill:none;fill-rule:evenodd;stroke:#eebb00;stroke-width:3;stroke-linecap:butt;stroke-linejoin:round;stroke-miterlimit:4;stroke-dasharray:none;stroke-opacity:1"
     d="m 1355.26,1667.51 -151.81,276.79 -229.06,412.47 -190.06,345.02 -67.74,120.02"
     id="path9478" />
  <path
     style="fill:none;fill-rule:evenodd;stroke:#eebb00;stroke-width:3;stroke-linecap:butt;stroke-linejoin:round;stroke-miterlimit:4;stroke-dasharray:none;stroke-opacity:1"
     d="m 629.43,3006.7 1.13,-2.95 31.53,-81.9 1.41,-5.98 49.14,-87.05 3.96,-7.01"
     id="path21021" />
  <path
     id="path9001"
     d="m 621.12,3003.86 16.81,6.73"
     style="fill:none;fill-rule:evenodd;stroke:#eebb00;stroke-width:3;stroke-linecap:butt;stroke-linejoin:round;stroke-miterlimit:4;stroke-dasharray:none;stroke-opacity:1" />
  <path
     id="path9013"
     d="m 835.82,2278.68 -33.77,62 -57.11,103.96 -89.82,164.31 -86.96,155.36 -19.15,36.27 -4.35,8.19"
     style="fill:none;fill-rule:evenodd;stroke:#eebb00;stroke-width:3;stroke-linecap:butt;stroke-linejoin:round;stroke-miterlimit:4;stroke-dasharray:none;stroke-opacity:1" />
  <path
     style="fill:none;stroke:#eebb00;stroke-width:3;stroke-linecap:butt;stroke-linejoin:round;stroke-miterlimit:4;stroke-dasharray:none;stroke-opacity:1"
     d="m 1308.4,1693.24 15.67,-29.29 13.44,-24.48"
     id="path13043" />
  <path
     style="fill:none;stroke:#eebb00;stroke-width:3;stroke-linecap:butt;stroke-linejoin:round;stroke-miterlimit:4;stroke-dasharray:none;stroke-opacity:1"
     d="m 1360.83,1623.03 42.66,-43.25 5.19,-2.45"
     id="path9034" />
  <path
     id="path42853"
     d="m 637.93,3010.59 23.26,9.01 32.55,-86.69"
     style="opacity:1;fill:none;fill-opacity:0.15;fill-rule:nonzero;stroke:#eebb00;stroke-width:3;stroke-linecap:butt;stroke-linejoin:round;stroke-miterlimit:4;stroke-dasharray:none;stroke-opacity:1" />
  <path
     id="path1142"
     d="m 122.08,3028 -3.34,23.95 -40,-6.34 -18.43,-2.77 -37.18,-5.59 -94.58,-13.9 -5.32,-0.71 -96.5,87.67 -45.81,-47.35"
     style="opacity:1;fill:none;fill-opacity:0.15;fill-rule:nonzero;stroke:#eebb00;stroke-width:3;stroke-linecap:butt;stroke-linejoin:round;stroke-miterlimit:4;stroke-dasharray:none;stroke-opacity:1" />
  <path
     style="opacity:1;fill:none;fill-opacity:0.15;fill-rule:nonzero;stroke:#eebb00;stroke-width:3;stroke-linecap:butt;stroke-linejoin:round;stroke-miterlimit:4;stroke-dasharray:none;stroke-opacity:1"
     d="m 659.49,3306.68 0.2,-1.57 6.33,-25.79 -0.75,-2.76 -24.91,-26.22 -22.87,-13.23"
     id="path13189" />
  <path
     id="path24028"
     d="m 485.28,2680.19 -5.56,0.72 -16.06,0.04 -0.31,4.06 -6.35,86.5 -0.5,16.5 -15.45,107.85"
     style="fill:none;fill-rule:evenodd;stroke:#eebb00;stroke-width:3;stroke-linecap:butt;stroke-linejoin:round;stroke-miterlimit:4;stroke-dasharray:none;stroke-opacity:1" />
  <path
     id="path4178"
     d="m 1236.4,1398.24 -124.48,225.75 -61.6,111.65 -372.73,675.91 -145.29,264.79 -41.82,45.8 -24.04,198.27 40.18,39.48 -28.94,47.4 -44.65,74.48 0.22,1.84 14.63,8.56 -6.11,11.12 13.27,8.3"
     style="fill:none;fill-rule:evenodd;stroke:#eebb00;stroke-width:3;stroke-linecap:butt;stroke-linejoin:round;stroke-miterlimit:4;stroke-dasharray:none;stroke-opacity:1" />
  <path
     style="opacity:1;fill:none;fill-opacity:0.4;fill-rule:nonzero;stroke:#eebb00;stroke-width:3;stroke-linecap:butt;stroke-linejoin:round;stroke-miterlimit:4;stroke-dasharray:none;stroke-opacity:1"
     d="m 549.7,3127.97 -9.78,14.85 -10.16,9.91 13.95,20.86 2.76,-1.55 25.58,-17.81 13.3,-6.78 5.52,-1.51 -10.29,-58.97 1.55,-10.6"
     id="path9480" />
  <path
     style="opacity:1;fill:none;fill-opacity:0.4;fill-rule:nonzero;stroke:#eebb00;stroke-width:3;stroke-linecap:butt;stroke-linejoin:round;stroke-miterlimit:4;stroke-dasharray:none;stroke-opacity:1"
     d="m 544.66,2808.76 -6.39,9.85 -40.99,14.19 -11.36,88.72 -1.77,15.44"
     id="path10098" />
  <path
     id="path8301"
     d="m 381.9,3211.51 31.35,-88.81 10.01,-36.89 10.43,-57.31 17.88,-117.94 10.93,-82.49 3.85,-20.7 7.02,-25.47 11.67,-57.57 0.23,-44.15 2.94,-5.32 19.84,-37.65 139.04,-247.66 52.1,-96.46"
     style="fill:none;fill-rule:evenodd;stroke:#eebb00;stroke-width:3;stroke-linecap:butt;stroke-linejoin:round;stroke-miterlimit:4;stroke-dasharray:none;stroke-opacity:1" />
  <path
     style="opacity:1;fill:none;fill-opacity:0.4;fill-rule:nonzero;stroke:#eebb00;stroke-width:3;stroke-linecap:butt;stroke-linejoin:round;stroke-miterlimit:4;stroke-dasharray:none;stroke-opacity:1"
     d="m 671.41,2708.58 -0.38,4.27 -53.2,85.57 -92.97,151.06"
     id="path8162" />
  <path
     style="opacity:1;fill:none;fill-opacity:0.4;fill-rule:nonzero;stroke:#eebb00;stroke-width:3;stroke-linecap:butt;stroke-linejoin:round;stroke-miterlimit:4;stroke-dasharray:none;stroke-opacity:1"
     d="m 531.64,2954.25 94.61,-147.68 -10.35,-5.74"
     id="path18985" />
  <path
     id="path23729"
     d="m 524.86,2949.48 -9.79,14.05 -1.56,2.26"
     style="opacity:1;fill:none;fill-opacity:0.4;fill-rule:nonzero;stroke:#eebb00;stroke-width:3;stroke-linecap:butt;stroke-linejoin:round;stroke-miterlimit:4;stroke-dasharray:none;stroke-opacity:1" />
  <path
     id="path23670"
     d="m 531.64,2954.25 -10.58,15.89 -1.24,2.57"
     style="opacity:1;fill:none;fill-opacity:0.4;fill-rule:nonzero;stroke:#eebb00;stroke-width:3;stroke-linecap:butt;stroke-linejoin:round;stroke-miterlimit:4;stroke-dasharray:none;stroke-opacity:1" />
  <path
     id="path23713"
     d="m 516.95,2970.35 -69.06,121.84"
     style="opacity:1;fill:none;fill-opacity:0.4;fill-rule:nonzero;stroke:#eebb00;stroke-width:3;stroke-linecap:butt;stroke-linejoin:round;stroke-miterlimit:4;stroke-dasharray:none;stroke-opacity:1" />
  <path
     id="path27830"
     d="m 547.32,3088.49 4.79,35.66 -2.41,3.82"
     style="opacity:1;fill:none;fill-opacity:0.4;fill-rule:nonzero;stroke:#eebb00;stroke-width:3;stroke-linecap:butt;stroke-linejoin:round;stroke-miterlimit:4;stroke-dasharray:none;stroke-opacity:1" />
  <text
     x="-1752.55"
     y="222.96"
     id="text4834-3"
     xml:space="preserve"
     style="font-style:normal;font-weight:normal;font-size:144px;line-height:125%;font-family:Sans;-inkscape-font-specification:Sans;letter-spacing:0px;word-spacing:0px;fill:#000000;fill-opacity:1;stroke:none;stroke-width:2;stroke-miterlimit:4;stroke-dasharray:none"><tspan
       style="stroke-width:3;stroke-miterlimit:4;stroke-dasharray:none"
       x="-1752.55"
       y="222.96"
       id="tspan1">1860</tspan></text>
  <path
     id="path13270"
     d="m 1290.02,1300.45 -28.96,53.13 -24.66,44.66"
     style="opacity:1;fill:none;fill-opacity:0.4;fill-rule:nonzero;stroke:#eebb00;stroke-width:3;stroke-linecap:butt;stroke-linejoin:round;stroke-miterlimit:4;stroke-dasharray:none;stroke-opacity:1" />
  <path
     id="path4172"
     d="m 543.14,2481.44 1.81,4.14 -0.2,2.73 -2.3,4.28 -86.33,156.92 -13.49,30.34 -6.39,142.84 -5.94,60.37 1.89,4.98 34.24,32.38 L 450.5,3048.5"
     style="opacity:1;fill:none;fill-opacity:0.14;fill-rule:nonzero;stroke:#eebb00;stroke-width:3;stroke-linecap:butt;stroke-linejoin:round;stroke-miterlimit:4;stroke-dasharray:none;stroke-opacity:1" />
  <path
     id="path2063-3"
     d="m -231.73,2636.23 -6.24,14.89 -15.81,36.89 -0.75,19.07 2.76,9.54 6.78,11.04"
     style="opacity:1;fill:none;fill-opacity:0.15;fill-rule:nonzero;stroke:#999999;stroke-width:3;stroke-linecap:butt;stroke-linejoin:round;stroke-miterlimit:4;stroke-dasharray:none;stroke-opacity:1" />
  <path
     id="path12858"
     d="m 689.52,3378.55 -19.41,-1.19"
     style="opacity:1;fill:none;fill-opacity:0.14;fill-rule:nonzero;stroke:#eebb00;stroke-width:3;stroke-linecap:butt;stroke-linejoin:round;stroke-miterlimit:4;stroke-dasharray:none;stroke-opacity:1" />
  <path
     id="path13483"
     d="m 119.62,3040.37 52.38,8.13 2,-12.75 -51.92,-7.75"
     style="fill:none;stroke:#eebb00;stroke-width:3;stroke-linecap:butt;stroke-linejoin:round;stroke-miterlimit:4;stroke-dasharray:none;stroke-opacity:1" />
  <path
     id="path13695"
     d="m -231.73,2636.23 12.33,-15.97 13.55,-23.59 6.78,-29.36 8.97,-18.93"
     style="opacity:1;fill:none;fill-opacity:0.14;fill-rule:nonzero;stroke:#999999;stroke-width:3;stroke-linecap:butt;stroke-linejoin:round;stroke-miterlimit:4;stroke-dasharray:none;stroke-opacity:1" />
  <path
     style="opacity:1;fill:none;fill-opacity:0.14;fill-rule:nonzero;stroke:#999999;stroke-width:3;stroke-linecap:butt;stroke-linejoin:round;stroke-miterlimit:4;stroke-dasharray:none;stroke-opacity:1"
     d="m 1833.48,2701.56 -175.93,73.09 -111.76,99.6 -14.13,10.94 -21.21,5.28 -28.74,-4.97 -20.58,-3.55 -29.45,-18.1 -37.97,-13.13 -73.46,-20.94 -21.65,-13.84 -14.55,-22 -19.87,-39.75 -8.52,-17.39 -19.16,-18.81 -20.58,-12.07 -75.94,-29.81 -36.2,-18.81"
     id="path11111" />
  <path
     style="opacity:1;fill:none;fill-opacity:0.14;fill-rule:nonzero;stroke:#eebb00;stroke-width:3;stroke-linecap:butt;stroke-linejoin:round;stroke-miterlimit:4;stroke-dasharray:none;stroke-opacity:1"
     d="M 1011.61,3170.49 999.06,3168.62"
     id="path11444" />
  <path
     style="opacity:1;fill:none;fill-opacity:0.14;fill-rule:nonzero;stroke:#eebb00;stroke-width:3;stroke-linecap:butt;stroke-linejoin:round;stroke-miterlimit:4;stroke-dasharray:none;stroke-opacity:1"
     d="m 991.6,3167.54 -8.28,-0.25 -56.28,14.53"
     id="path11446" />
  <path
     id="path8297"
     d="m 699.19,2293.09 4.4,-8.15 6.7,-12.22"
     style="opacity:1;fill:none;fill-opacity:0.4;fill-rule:nonzero;stroke:#eebb00;stroke-width:3;stroke-linecap:butt;stroke-linejoin:round;stroke-miterlimit:4;stroke-dasharray:none;stroke-opacity:1" />
  <path
     id="path5461"
     d="m -1801.79,3810.93 15.81,15.06 111.67,156.33 79.39,112.62"
     style="opacity:1;fill:none;fill-opacity:0.4;fill-rule:nonzero;stroke:#999999;stroke-width:3;stroke-linecap:butt;stroke-linejoin:round;stroke-miterlimit:4;stroke-dasharray:none;stroke-opacity:1" />
  <path
     style="fill:none;stroke:#eebb00;stroke-width:3;stroke-linecap:butt;stroke-linejoin:round;stroke-miterlimit:4;stroke-dasharray:none;stroke-opacity:1"
     d="m 239.93,2138.88 60.43,36.81 0.25,5.33 -18.62,32.22 2.77,18.62 -0.63,18 -8.68,29.7 -22.15,46.31 -19.13,34.86 -20.88,90.23 14.93,126.04 -34.19,146.53 -1.51,7.05 -1,4.52"
     id="path28406" />
  <path
     id="path12684"
     d="m 476.17,3509.36 -1.95,-6.57"
     style="fill:none;fill-opacity:0.15;fill-rule:nonzero;stroke:#eebb00;stroke-width:3;stroke-linecap:butt;stroke-linejoin:round;stroke-miterlimit:4;stroke-dasharray:none;stroke-opacity:1" />
  <path
     style="fill:none;fill-opacity:0.4;fill-rule:nonzero;stroke:#eebb00;stroke-width:3;stroke-linecap:butt;stroke-linejoin:round;stroke-miterlimit:4;stroke-dasharray:none;stroke-opacity:1"
     d="m 617.46,3243.57 -60.83,166.59 6.85,2.58 -0.86,2.87 -36.61,100.3 -2.16,-0.4 -44.52,-16.54"
     id="path37886" />
  <path
     id="path13970"
     d="m 1008.66,3063.65 110.66,55.21 121.95,-15.06 4.82,-1.54 -1.15,-3.54"
     style="fill:none;fill-opacity:0.15;fill-rule:nonzero;stroke:#eebb00;stroke-width:3;stroke-linecap:butt;stroke-linejoin:round;stroke-miterlimit:4;stroke-dasharray:none;stroke-opacity:1" />
  <path
     style="fill:none;fill-opacity:0.15;fill-rule:nonzero;stroke:#eebb00;stroke-width:3;stroke-linecap:butt;stroke-linejoin:round;stroke-miterlimit:4;stroke-dasharray:none;stroke-opacity:1"
     d="m 1008.66,3063.65 -25.03,-13.49 -13.13,-6.21 -18.05,-6.4 -13.8,-6.78"
     id="path12685" />
  <path
     style="fill:none;fill-opacity:0.14;fill-rule:nonzero;stroke:#eebb00;stroke-width:3;stroke-linecap:butt;stroke-linejoin:round;stroke-miterlimit:4;stroke-dasharray:none;stroke-opacity:1"
     d="m 1431.31,2983.2 -188.08,63.52 -8.52,7.1 -3.55,7.81 13.79,37.1"
     id="path4593" />
  <path
     id="path22874-6"
     d="m 1129.07,3199.5 -10.28,-7.46 -94.67,-43.41"
     style="fill:none;stroke:#eebb00;stroke-width:3;stroke-linecap:butt;stroke-linejoin:round;stroke-miterlimit:4;stroke-dasharray:none;stroke-opacity:1" />
  <path
     id="path21719"
     d="m 996.46,3133.61 27.66,15.02"
     style="fill:none;fill-opacity:0.4;fill-rule:nonzero;stroke:#eebb00;stroke-width:3;stroke-linecap:butt;stroke-linejoin:round;stroke-miterlimit:4;stroke-dasharray:none;stroke-opacity:1" />
  <path
     id="path9064-7"
     d="m 924.62,3132.78 0.65,-12.63 53.23,7.08 17.95,6.37"
     style="fill:none;stroke:#eebb00;stroke-width:3;stroke-linecap:butt;stroke-linejoin:round;stroke-miterlimit:4;stroke-dasharray:none;stroke-opacity:1" />
  <path
     id="path11448"
     d="m 1092.98,3179.08 5.02,-10.79 37.64,16.31 119.19,-15.56 4.01,-0.6 1.64,11.65 -2.73,0.41"
     style="fill:none;fill-opacity:0.14;fill-rule:nonzero;stroke:#eebb00;stroke-width:3;stroke-linecap:butt;stroke-linejoin:round;stroke-miterlimit:4;stroke-dasharray:none;stroke-opacity:1" />
  <path
     id="path11450"
     d="m 1257.75,3180.5 -131.9,16.9"
     style="fill:none;fill-opacity:0.14;fill-rule:nonzero;stroke:#eebb00;stroke-width:3;stroke-linecap:butt;stroke-linejoin:round;stroke-miterlimit:4;stroke-dasharray:none;stroke-opacity:1" />
  <path
     style="fill:none;fill-opacity:0.15;fill-rule:nonzero;stroke:#eebb00;stroke-width:3;stroke-linecap:butt;stroke-linejoin:round;stroke-miterlimit:4;stroke-dasharray:none;stroke-opacity:1"
     d="m 1724.18,3658.08 -2.41,-13.24 -11.18,-8.69"
     id="path9489" />
  <path
     style="fill:none;stroke:#eebb00;stroke-width:3;stroke-linecap:butt;stroke-linejoin:round;stroke-miterlimit:4;stroke-dasharray:none;stroke-opacity:1"
     d="m 772.25,3290.29 12.22,0.63 -0.23,22.64"
     id="path9084" />
</svg>
