<?xml version="1.0" encoding="UTF-8" standalone="no"?>
<svg
   id="svg2"
   height="5350"
   viewBox="-1842, 16, 5400, 5350"
   width="5400"
   version="1.1"
   xmlns:xlink="http://www.w3.org/1999/xlink"
   xmlns="http://www.w3.org/2000/svg"
   xmlns:svg="http://www.w3.org/2000/svg"
   xmlns:rdf="http://www.w3.org/1999/02/22-rdf-syntax-ns#"
   xmlns:cc="http://creativecommons.org/ns#"
   xmlns:dc="http://purl.org/dc/elements/1.1/">
  <metadata
     id="metadata8">
    <rdf:RDF>
      <cc:Work
         rdf:about="">
        <dc:format>image/svg+xml</dc:format>
        <dc:type
           rdf:resource="http://purl.org/dc/dcmitype/StillImage" />
      </cc:Work>
    </rdf:RDF>
  </metadata>
  <defs
     id="defs6" />
  <path
     style="opacity:1;fill:none;fill-opacity:0.15;fill-rule:nonzero;stroke:#006600;stroke-width:3;stroke-linecap:butt;stroke-linejoin:round;stroke-miterlimit:4;stroke-dasharray:none;stroke-opacity:1"
     d="m 819.15,3520.01 16.68,17.39 8.52,4.26 261.9,72.04 17.03,3.19 526.99,36.2 54.3,7.45 h 34.42 l 40.1,-3.9 45.07,-8.52 39.39,-9.58 143.01,-52.52 588.02,-220.73 303.42,-114.27 171.05,-55.01 515.63,-163.6"
     id="path926" />
  <path
     style="opacity:1;fill:none;fill-opacity:0.15;fill-rule:nonzero;stroke:#999999;stroke-width:3;stroke-linecap:butt;stroke-linejoin:round;stroke-miterlimit:4;stroke-dasharray:none;stroke-opacity:1"
     d="m -2307.72,2292.6 43.47,-67.87 18.1,-22.8 20.85,-16.32 22.89,-6.03 19.87,-2.48 30.25,1.6 29.81,10.11 82.69,55.27 97.06,69.91 28.74,19.52 52.17,31.14 159.78,60.15 29.9,13.75 33.8,27.5 31.58,24.93 31.23,17.39 39.04,16.68 64.76,17.48 33.54,12.07 73.37,-0.18 20.94,5.06 13.4,7.98 54.83,53.59 26.88,12.69 16.81,3.38 81.98,-3.55 176.53,-16.81 63.11,-7.03 110.41,-2.26 259.09,-23.84 57.71,-1.38 25.97,4.01 244.54,67.46"
     id="path927" />
  <g
     style="display:none"
     id="g1301">
    <image
       xlink:href="../../basemap/nycosm.png"
       style="fill:#330000"
       id="image10"
       height="5376"
       width="5888"
       y="0"
       x="-2304" />
    <image
       xlink:href="railosm.png"
       style="opacity:0.5"
       width="5888"
       height="5376"
       preserveAspectRatio="none"
       id="image1296"
       x="-2304"
       y="0" />
  </g>
  <path
     style="opacity:1;fill:none;fill-opacity:0.15;fill-rule:nonzero;stroke:#999999;stroke-width:3;stroke-linecap:butt;stroke-linejoin:round;stroke-miterlimit:4;stroke-dasharray:none;stroke-opacity:1"
     d="m 1911.52,-2.0 -8.78,44.42 -1.76,11.54 -1.0,55.96 -2.76,19.07 -16.81,67.25 -15.81,69.26 -19.07,51.19 -9.79,19.82 -12.04,14.05 -36.64,34.63 -47.93,58.72 -46.42,68.5 -14.81,22.83 -5.52,13.3 -47.78,143.88 -22.96,65.79 -11.89,16.15 -57.67,60.51 -9.05,18.1 -10.11,35.49 -23.6,37.44 -55.54,76.83 -21.65,35.49 -25.02,62.46 -15.97,45.6 -15.96,79.35 -6.93,30.13"
     id="path977" />
  <path
     style="fill:none;stroke:#0000ff;stroke-width:3;stroke-linecap:butt;stroke-linejoin:round;stroke-miterlimit:4;stroke-dasharray:none;stroke-opacity:1"
     id="path3610"
     d="m 1253.3,2510.85 -18.3,-16.85 -201.97,-118.78 -154.81,-85.07 -23.3,-3.27 -41.92,-27.88 -14,2 -74.98,138.31 -15.02,58.69 -9,48 -9,74 -32,210 -8,19 -45,70 -68,106" />
  <path
     style="fill:none;stroke:#0000ff;stroke-width:3;stroke-linecap:butt;stroke-linejoin:round;stroke-miterlimit:4;stroke-dasharray:none;stroke-opacity:1"
     id="path3663"
     d="m 696.0,2430.5 42,23 22.88,0.12 57.62,30.38 21.77,13.62 113.23,62.88 72.0,39 37.5,21.5 71,19 26,-2 39.5,-21 2.5,-9.5 -12,-27.5 10.5,-36.5 20,-30 13,-14.5 25,15.5" />
  <path
     style="fill:none;stroke:#0000ff;stroke-width:3;stroke-linecap:butt;stroke-linejoin:round;stroke-miterlimit:4;stroke-dasharray:none;stroke-opacity:1"
     id="path3641"
     d="m 720.38,2405.58 14.62,-43.58 18,-38 12,-31 5,-33 -5,-56 -1,-119 12,-54 32,-67 54,-86 26,-48 36,-67 5,-14 2,-32 5,-19 97.0,-173 123,-222.0 102,-185.0 127,-229.0 20,-36 20,-36 14,-20 49,-23 13,-14 57,-108 72,-74 16,-11 51,-89 46,-111.0" />
  <path
     style="fill:none;stroke:#0000ff;stroke-width:3;stroke-linecap:butt;stroke-linejoin:round;stroke-miterlimit:4;stroke-dasharray:none;stroke-opacity:1"
     id="path3647"
     d="m 720.38,2405.58 -108.38,196.42 -57,100 -31,69 -27,65 -16,116 -7,52 -39,72 -13,18 -16,53 -13,36 -12.5,49 6,20.5 9,11" />
  <path
     style="fill:none;stroke:#0000ff;stroke-width:3;stroke-linecap:butt;stroke-linejoin:round;stroke-miterlimit:4;stroke-dasharray:none;stroke-opacity:1"
     id="path3661"
     d="m 760.88,2453.62 -46.65,-27.35" />
  <path
     d="m 439.99,3098.99 -0.24,8.77 2.79,4.73 L 497,3151 l 33,52 72.0,74 28,12 21.1,7.28 42.72,2.7 7.96,6.27 8.55,9.27 -2.66,49.93 -2.16,50.56 -6.5,15.5"
     id="path3618"
     style="fill:none;stroke:#0000ff;stroke-width:3;stroke-linecap:butt;stroke-linejoin:round;stroke-miterlimit:4;stroke-dasharray:none;stroke-opacity:1" />
  <path
     d="m 439.5,3066.0 4,13 22.5,14 20.5,25 5.5,8.5 -24,31.5 -21.5,29.5 -5,16 3.5,12.5 17.16,18.91 40.86,26.31 90.49,47.78 60,22 6.51,5.5 7.49,43.0 4,13.5 6.5,7 36,19 57,32 10.58,11.35 40.83,70.87"
     id="path3649"
     style="fill:none;stroke:#0000ff;stroke-width:3;stroke-linecap:butt;stroke-linejoin:round;stroke-miterlimit:4;stroke-dasharray:none;stroke-opacity:1" />
  <path
     style="fill:none;stroke:#0000ff;stroke-width:3;stroke-linecap:butt;stroke-linejoin:round;stroke-miterlimit:4;stroke-dasharray:none;stroke-opacity:1"
     id="path3620-8"
     d="m 728.13,2312.49 14.28,-5.61 10.1,0.11 53.5,31 196.0,110 107,82 123.54,31.27 58.46,-27.27 7.36,-3.03 30.23,-32.2 18.16,-9.58 79.25,-4.19 5.83,-2.21" />
  <path
     style="fill:none;stroke:#0000ff;stroke-width:3;stroke-linecap:butt;stroke-linejoin:round;stroke-miterlimit:4;stroke-dasharray:none;stroke-opacity:1"
     id="path3624"
     d="m 1645.87,2469.75 -24.67,-14.56 -113.4,-72.49 -5.8,-0.44 -3.93,2.79 -53.07,81.94 -15.48,15.8" />
  <path
     style="fill:none;stroke:#0000ff;stroke-width:3;stroke-linecap:butt;stroke-linejoin:round;stroke-miterlimit:4;stroke-dasharray:none;stroke-opacity:1"
     id="path2890"
     d="m 1219.5,1348.0 21.5,-55.5 16.25,-10.74 54.02,1.04 60.13,3.98 36.31,29.48 40.04,13.75 14.01,-3.49 37.76,-87.03 37.49,-53.5 17.51,-20.51 14.75,-28.51 20.74,-75.2 10.26,-15.52 38.49,-37.27 81.51,-136.77 29.99,-73.49 22.01,-41.01 52.0,-86.49 42.49,-36.49 20.75,-61.99 8.23,-7.25 11.74,-0.25 76.25,38.76" />
  <path
     style="fill:none;stroke:#0000ff;stroke-width:3;stroke-linecap:butt;stroke-linejoin:round;stroke-miterlimit:4;stroke-dasharray:none;stroke-opacity:1"
     id="path3614"
     d="m 521.0,2671.0 288.0,160 75,44 123.0,103 101,82 14,10 h 28 l 77.31,-10.37 4.19,1.64 2.44,3.05 14.07,38.69 11,67 4.71,29.07 3.8,4.16 5.11,2.27 78.37,-15.49 73,-16 17,-1 71,59 187,140 10,20 v 13 l -46,70 -6,28 -2,32 11,28 13,23 4,17" />
  <path
     style="fill:none;stroke:#0000ff;stroke-width:3;stroke-linecap:butt;stroke-linejoin:round;stroke-miterlimit:4;stroke-dasharray:none;stroke-opacity:1"
     id="path3590"
     d="m 1486.0,702.0 -42,20 -45,21 -35,32 -30,46 -12,21 -30,59 -40,144.0 11,30 4,6 -12,97.0 1,33 -27,99 -11,42 -21,37 -26,76 -20,54 -33,51 -12,22 v 32 l -0.38,5.12 -57.63,104.46 -466.0,845.41 -55,101 36,86 -24,49 -19,50 -22,74 -3,30 2,36 -12,23 -45,71 v 0 0" />
  <path
     style="fill:none;stroke:#0000ff;stroke-width:3;stroke-linecap:butt;stroke-linejoin:round;stroke-miterlimit:4;stroke-dasharray:none;stroke-opacity:1"
     id="path3616"
     d="m 809.0,4260.0 70,479 3,26 -20,180 -7,68 -1,117 -3,26 2,20 -2,9 -28.75,8.0 -35.52,-3.5 -5.99,-4.25 -2.25,-14.25" />
  <path
     style="fill:none;stroke:#0000ff;stroke-width:3;stroke-linecap:butt;stroke-linejoin:round;stroke-miterlimit:4;stroke-dasharray:none;stroke-opacity:1"
     id="path3772"
     d="m 160.5,2787.5 -7,51.5 2.5,18.5 -1.5,15 -9,17.5 -10,39.5 -6.5,52.5 -3,23.5 5.46,11.01 21.54,6.49 45.87,12.61 191.24,74.15 11.62,4.51 9.16,3.87 8.45,3.89 4.13,-1.73 5.05,-11.07 -0.73,-4.09 -7.71,-5.08 -10.37,-5.97 -11.43,-5.53 -153.58,-43.57 -30.09,-9.09 -47.64,-9.4" />
  <path
     style="fill:none;stroke:#0000ff;stroke-width:3;stroke-linecap:butt;stroke-linejoin:round;stroke-miterlimit:4;stroke-dasharray:none;stroke-opacity:1"
     id="path3600"
     d="m 539,2983 -80,124 -2.88,2.08 L 451,3109 l -10.24,-5.06 -4.51,2.81 -20.25,41.25 -17,32 2,34.5 3.5,20.5 6.13,27.78 18.94,17.34 96.43,45.88 55,24 90,35 11,16 14,5 62,2" />
  <path
     style="fill:none;stroke:#0000ff;stroke-width:3;stroke-linecap:butt;stroke-linejoin:round;stroke-miterlimit:4;stroke-dasharray:none;stroke-opacity:1"
     id="path3602"
     d="m 539.0,2982.0 2,12 31,28 31,16 13.73,16.53 92.23,220.63 50.05,135.84" />
  <path
     style="fill:none;stroke:#0000ff;stroke-width:3;stroke-linecap:butt;stroke-linejoin:round;stroke-miterlimit:4;stroke-dasharray:none;stroke-opacity:1"
     id="path3604"
     d="m 813.61,3516.6 -8.89,19.39 -59.23,109.52 -53.49,92.0 -51.0,82.76 -145.0,179.73 -141.01,180.0 -61,78 -96,308 -4.5,15.5" />
  <path
     style="fill:none;stroke:#0000ff;stroke-width:3;stroke-linecap:butt;stroke-linejoin:round;stroke-miterlimit:4;stroke-dasharray:none;stroke-opacity:1"
     id="path3608"
     d="m 314.0,4231.0 6,17 53,18 59,22 151,122 26,47 132,105 15,21 7,18 35.0,248 16,101 -6,51 -20,82 -6,16 -7.51,20.99 -1.27,16.84 5.27,34.17" />
  <path
     style="fill:none;stroke:#0000ff;stroke-width:3;stroke-linecap:butt;stroke-linejoin:round;stroke-miterlimit:4;stroke-dasharray:none;stroke-opacity:1"
     id="path3617"
     d="m 1683.0,3603.0 8,26 -4,40 -3,16 35,171 28,143 -8,25 -47,97" />
  <path
     style="fill:none;stroke:#0000ff;stroke-width:3;stroke-linecap:butt;stroke-linejoin:round;stroke-miterlimit:4;stroke-dasharray:none;stroke-opacity:1"
     id="path3627"
     d="m 826.0,2489.0 -14,7 -105.0,194 -33,56 v 34 l -9,36 -54,84 -18,29 -7,25 -53,73 -14,25 -3,16 -19,27 -31,15" />
  <path
     style="fill:none;stroke:#0000ff;stroke-width:3;stroke-linecap:butt;stroke-linejoin:round;stroke-miterlimit:4;stroke-dasharray:none;stroke-opacity:1"
     id="path3629"
     d="m 466,3110 -11,6 -29.5,46.5 -31.5,54.5 -4.57,14.48 1.9,9.4 10.63,20.47 24.08,22.77 47.96,33.88 79,59 31,8 90.43,19.38 14.69,1.62" />
  <path
     style="fill:none;stroke:#0000ff;stroke-width:3;stroke-linecap:butt;stroke-linejoin:round;stroke-miterlimit:4;stroke-dasharray:none;stroke-opacity:1"
     id="path3633"
     d="m 1287.0,1681.0 25,-45 13.63,-24.22 27.62,-38.73 22.19,-31.19 9.56,-20.86 28,-87 3,-11 -11,-64 7,-20 31,-67 36,-81 7,-19 13,-12.0 72,-132 33,-62.0 54,-74.0 18,-37 20,-48 47,-79 35,-62 39,-29 23,-20 13,-20 15,-37 47,-53 25,-31 35,-62" />
  <path
     style="fill:none;stroke:#0000ff;stroke-width:3;stroke-linecap:butt;stroke-linejoin:round;stroke-miterlimit:4;stroke-dasharray:none;stroke-opacity:1"
     id="path3639"
     d="m 1358.4,1565.82 8.29,-5.76 7.2,-3.09 6.28,0.02 7.03,3.21 23.8,23.8 117,63 45,27 13,-4 39,-24 9,-31 4,-21 31,-27 14,-8 49,-19 77,-95 12.1,-12.21 15.05,-6.99 18.31,-12.62 15.31,-14.16 6.47,-13.24 5.75,-28.78 1,-30 11,-11 61,-6 36,-5 53,-21 122,-46 144,-22 85,-92.0 58,-39 61,-63 15,-23.0 13,-44 29,-20" />
  <path
     style="fill:none;stroke:#0000ff;stroke-width:3;stroke-linecap:butt;stroke-linejoin:round;stroke-miterlimit:4;stroke-dasharray:none;stroke-opacity:1"
     id="path3726"
     d="m 435.0,3174.5 -8.5,14 -6,30.5 6,29 7.06,25.34 6.9,11.78" />
  <path
     style="fill:none;stroke:#0000ff;stroke-width:3;stroke-linecap:butt;stroke-linejoin:round;stroke-miterlimit:4;stroke-dasharray:none;stroke-opacity:1"
     id="path3604-8"
     d="m 758.06,3408.71 13.94,32.29 5.4,8.4 14.6,15 15.92,7.96 5.51,47.08" />
  <path
     style="fill:none;stroke:#0000ff;stroke-width:3;stroke-linecap:butt;stroke-linejoin:round;stroke-miterlimit:4;stroke-dasharray:none;stroke-opacity:1"
     id="path3651"
     d="m 907.34,3694.07 76.66,22.93 94.5,28.76 55.25,2.99" />
  <path
     style="fill:none;stroke:#0000ff;stroke-width:3;stroke-linecap:butt;stroke-linejoin:round;stroke-miterlimit:4;stroke-dasharray:none;stroke-opacity:1"
     id="path3653"
     d="m 1133.75,3748.75 283.77,20.78 8.66,5.71 7.8,11.83 4.16,15.89 23.86,27.53 39.5,46.5 4.51,3.88 5.49,1.62 95,-17 101.5,-21 170,-33 47.5,-9" />
  <path
     style="fill:none;stroke:#0000ff;stroke-width:3;stroke-linecap:butt;stroke-linejoin:round;stroke-miterlimit:4;stroke-dasharray:none;stroke-opacity:1"
     id="path3655"
     d="m 1124.46,3748.25 5.78,3.18 2.59,3.58 0.28,4.71 L 1129,3831 l 1.75,36.25 19.76,232.25 17.24,223.75" />
  <path
     style="fill:none;stroke:#0000ff;stroke-width:3;stroke-linecap:butt;stroke-linejoin:round;stroke-miterlimit:4;stroke-dasharray:none;stroke-opacity:1"
     id="path3619"
     d="m 433.0,3177.0 19,-26 23,-31 17,-17 16,-13 20,-23 50,-90 10,-14 11,-3.5 159,68.5 224.0,91 32.0,12 14,16 93,43 154,115 72,55 320,239 56,43 107,-19 24,-6 187,-77 7,-9 -20,-76 4,-8 23,-11 50,-17 88,-17 54,-3 24,-9 43,-18 44,-10 62,-2 23,-12 43,-38 30,-19 31,-8 22.99,-6.03 45.01,-13.47 29.5,-9.5 49,-6.5 28.0,-0.59 30.5,3.59 31.5,8 28,0.5 32,-7 38.5,-15 48,-25.5 27.5,-13.5 14,-7.5" />
  <path
     style="fill:none;stroke:#0000ff;stroke-width:3;stroke-linecap:butt;stroke-linejoin:round;stroke-miterlimit:4;stroke-dasharray:none;stroke-opacity:1"
     id="path6848"
     d="m 624.98,4120.53 16.02,0.97 11,0.5 64,50.5 82.5,65 9,8 1.5,14.5" />
  <path
     style="fill:none;stroke:#0000ff;stroke-width:3;stroke-linecap:butt;stroke-linejoin:round;stroke-miterlimit:4;stroke-dasharray:none;stroke-opacity:1"
     id="path7470"
     d="m 645.0,4804.5 66.5,55.5 15,11.5 6.5,16 18,132.5 19.5,22 9.5,25 -1,33 -4.51,19.99" />
  <path
     style="fill:none;stroke:#0000ff;stroke-width:3;stroke-linecap:butt;stroke-linejoin:round;stroke-miterlimit:4;stroke-dasharray:none;stroke-opacity:1"
     id="path3606"
     d="m 822.42,3533.22 14.58,28.28 76,142.5 82,148 12.9,98.01 -1.88,25.98 -33.12,142.81 -1.63,21.48 28.49,208.72 52.75,356.25 38.75,275.5 -0.76,55.53 -66.51,123.73 -91.0,27 -72.28,-7.0 -11.82,5.67" />
  <path
     style="fill:none;stroke:#0000ff;stroke-width:3;stroke-linecap:butt;stroke-linejoin:round;stroke-miterlimit:4;stroke-dasharray:none;stroke-opacity:1"
     id="path3645"
     d="m 1304.7,1425.61 -17.96,32.89" />
  <path
     style="fill:none;stroke:#0000ff;stroke-width:3;stroke-linecap:butt;stroke-linejoin:round;stroke-miterlimit:4;stroke-dasharray:none;stroke-opacity:1"
     id="path9400"
     d="m 495.01,4001.0 -1.79,11.12 5.78,7.88 127.5,101.5 13.5,11 -14,21.5 -4,86 -11,98 -53,242 -23,101 5,37 13,17 92,69.5" />
  <path
     style="fill:none;stroke:#0000ff;stroke-width:3;stroke-linecap:butt;stroke-linejoin:round;stroke-miterlimit:4;stroke-dasharray:none;stroke-opacity:1"
     id="path3621"
     d="m 1070.0,3577.0 2,14 -67.5,257.5 -4.59,6.85 -4.54,8.01" />
  <path
     style="fill:none;stroke:#0000ff;stroke-width:3;stroke-linecap:butt;stroke-linejoin:round;stroke-miterlimit:4;stroke-dasharray:none;stroke-opacity:1"
     id="path3643"
     d="m 926.0,1761.0 12,-4 82.0,44 91,-26 156,-280 19.74,-36.5 37.26,-6.5 50,-1 12.75,3.51 128.49,44.75 15.42,8.0 9.87,0.26 17.72,-9.49 61.02,5.0 38.28,-28.45 33.23,-19.77 123.26,-84.36 2.23,-7.44 1.25,-81.75 33.5,-78.23 15.75,-31.24 35.51,-27.01 12.72,-4.49 22.71,-2.43 16.33,-8.34 9.73,-13.99 5.74,-3.51 8,2.5 11.99,5.25 32.27,-4.5 41.24,-42.25 9,-31" />
  <path
     style="fill:none;stroke:#0000ff;stroke-width:3;stroke-linecap:butt;stroke-linejoin:round;stroke-miterlimit:4;stroke-dasharray:none;stroke-opacity:1"
     id="path10460"
     d="m 2070.5,1044.0 13.5,-35 14,-32.0 4.5,-214.0 3,-125 1.5,-71 17,-40 19.74,-39.89 102.76,-238.61 46.5,-82 6.33,-10.59" />
  <path
     style="fill:none;stroke:#0000ff;stroke-width:3;stroke-linecap:butt;stroke-linejoin:round;stroke-miterlimit:4;stroke-dasharray:none;stroke-opacity:1"
     id="path3665"
     d="m 1254.5,2512.5 24.5,14.5 31,37 26.5,30 8,3.5 38,6.5 114.5,19 30,5.5 9.5,-3 39,-16.5 50,-17 22,-2 38,-4.5 77,-12 50.5,-6 286.5,-40 79,-11 72,-27 153.5,-61 27.5,-14.5 19.5,-12 40,-11.5 47,-22" />
  <path
     style="fill:none;stroke:#0000ff;stroke-width:3;stroke-linecap:butt;stroke-linejoin:round;stroke-miterlimit:4;stroke-dasharray:none;stroke-opacity:1"
     id="path3631"
     d="m 826.0,2490.0 15,-3 119,-214 68.0,-122 70,-129 177,-319 12,-22" />
  <path
     style="fill:none;stroke:#0000ff;stroke-width:3;stroke-linecap:butt;stroke-linejoin:round;stroke-miterlimit:4;stroke-dasharray:none;stroke-opacity:1"
     id="path4567"
     d="m 1280.5,2527.0 14.74,1.5 21.04,-25.23 16.68,-16.49 25.53,-41.05 62.5,-102.25 60.0,-99.5 39.25,-44.99 62.49,-66.99 8.26,-8.51" />
  <path
     style="fill:none;stroke:#0000ff;stroke-width:3;stroke-linecap:butt;stroke-linejoin:round;stroke-miterlimit:4;stroke-dasharray:none;stroke-opacity:1"
     id="path3592-9"
     d="m 699.17,3429.76 -32.17,66.24 -48.77,86.49 -24.49,51.99 -6.74,28.52 5.49,17.51 20.12,19.37 71.13,46.88 36.26,15.25 103.0,64 7.29,6.25 2.34,10.37 -46.15,72.04 -1.42,9.23 3.44,7.55 42.49,31.06 11.5,79.25 1.75,13.25 -5.27,10.63 -48.98,25.37 -3.5,8.5 10,67 1,5 10,74" />
  <path
     style="fill:none;stroke:#0000ff;stroke-width:3;stroke-linecap:butt;stroke-linejoin:round;stroke-miterlimit:4;stroke-dasharray:none;stroke-opacity:1"
     id="path3634-2"
     d="m 807.92,3472.36 12.41,6.51 6.31,51.44 1.89,15.88" />
  <path
     style="fill:none;stroke:#0000ff;stroke-width:3;stroke-linecap:butt;stroke-linejoin:round;stroke-miterlimit:4;stroke-dasharray:none;stroke-opacity:1"
     id="path3635"
     d="m 1398.0,1477.0 -9,-9 2.74,-6.24 7.59,-3.7" />
  <path
     style="fill:none;stroke:#0000ff;stroke-width:3;stroke-linecap:butt;stroke-linejoin:round;stroke-miterlimit:4;stroke-dasharray:none;stroke-opacity:1"
     id="path7444-76"
     d="m 1501.5,1510.5 35.5,-26 28,-34 21.5,-42.5 26.5,-10 14,-35.5 32.5,-109 26,-52 37,-65.5 16.5,-33 20.5,-49 22,-61.5 9.5,-24 43.5,-62 -7.5,-28.5 -0.5,-53.5 15.5,-37.59" />
  <path
     style="fill:none;stroke:#0000ff;stroke-width:3;stroke-linecap:butt;stroke-linejoin:round;stroke-miterlimit:4;stroke-dasharray:none;stroke-opacity:1"
     id="path7444-7"
     d="m 1840.35,788.83 6.15,-12.83 29.5,-34 59.5,-45.5 42,-32.5 16.5,-11.5 20.5,-26.5 22.5,-40.5 17.5,-47 19,4 38.53,11.76" />
  <path
     style="fill:none;stroke:#0000ff;stroke-width:3;stroke-linecap:butt;stroke-linejoin:round;stroke-miterlimit:4;stroke-dasharray:none;stroke-opacity:1"
     id="path3821"
     d="m 179.5,2800.0 -14.5,3.5 -7.5,9.5" />
  <path
     style="fill:none;stroke:#0000ff;stroke-width:3;stroke-linecap:butt;stroke-linejoin:round;stroke-miterlimit:4;stroke-dasharray:none;stroke-opacity:1"
     id="path3938"
     d="m 114.0,3010.5 24,8" />
  <path
     style="fill:none;stroke:#0000ff;stroke-width:3;stroke-linecap:butt;stroke-linejoin:round;stroke-miterlimit:4;stroke-dasharray:none;stroke-opacity:1;marker-start:none"
     id="path3823"
     d="m 126.0,3006.5 -8.25,5.6 -61.77,-25.76" />
  <path
     style="fill:none;stroke:#0000ff;stroke-width:3;stroke-linecap:butt;stroke-linejoin:round;stroke-miterlimit:4;stroke-dasharray:none;stroke-opacity:1"
     id="path3623"
     d="m 1847.0,3098.0 -11,45 -26,33 -168,56 -46,59 -29,7 -230,29 -148.5,25 -233.0,35 -33,5 -77,-2 -130.0,-8 -5.93,-0.16" />
  <path
     style="fill:none;stroke:#0000ff;stroke-width:3;stroke-linecap:butt;stroke-linejoin:round;stroke-miterlimit:4;stroke-dasharray:none;stroke-opacity:1"
     id="path3592"
     d="m 530.98,2834.96 4.02,23.04 49,32 77,33 49,21 5,9 -25,61 -18,53 8,63 2,19 30.5,58.46 0.61,49.74 -2.79,57.32" />
  <path
     style="fill:none;stroke:#0000ff;stroke-width:3;stroke-linecap:butt;stroke-linejoin:round;stroke-miterlimit:4;stroke-dasharray:none;stroke-opacity:1"
     id="path3618-7"
     d="m 699.03,3432.02 5.97,13.98 10,9 69.0,34 16,4 33,-6 32,15 66,35 139.0,38 32,9 82,7 232,16" />
  <path
     style="fill:none;stroke:#0000ff;stroke-width:3;stroke-linecap:butt;stroke-linejoin:round;stroke-miterlimit:4;stroke-dasharray:none;stroke-opacity:1"
     id="path3638"
     d="m 830.93,3487.54 325.07,-50.54 2,-7 -17,-123 -4,-41 2,-54 -22,-187 -4,-28 26,-42 1,-11 -10.07,-23.25 -31.93,-73.75 -8,-29 -13,-121 10,-46 61,-45 65.88,-36.8 34.18,-14.62" />
  <path
     style="fill:none;stroke:#0000ff;stroke-width:3;stroke-linecap:butt;stroke-linejoin:round;stroke-miterlimit:4;stroke-dasharray:none;stroke-opacity:1"
     id="path3620"
     d="m 1429.19,2483.69 21.65,-7.46 38.86,-11.03 23.48,-6.78 28.74,0.81 53.84,10.76 18.81,-0.5 20.65,-2.08 15.77,4.34 203,113.75 60.75,35.25 44,33 26.5,30.25 9.25,46.75 24.75,21.5 116.25,56.5 151.5,76.25 32,37.5 153.25,90 54.25,51.25 12.84,10.79 58.66,32.46 36.59,19.68 7.01,7.52 32.4,76.79 4.85,7.31 10.98,5.89 15.17,0.25 246.57,-93.55 61.93,-29.16 21.01,3.25 46.28,-14.02" />
  <path
     style="fill:none;stroke:#0000ff;stroke-width:3;stroke-linecap:butt;stroke-linejoin:round;stroke-miterlimit:4;stroke-dasharray:none;stroke-opacity:1"
     d="m 742.81,2287.0 4.21,12.98 5.48,7.02"
     id="path924" />
  <path
     style="fill:none;stroke:#0000ff;stroke-width:3;stroke-linecap:butt;stroke-linejoin:round;stroke-miterlimit:4;stroke-dasharray:none;stroke-opacity:1"
     d="m 792.36,2329.02 4.46,16.58 -203.81,369.4 -33.69,58.14"
     id="path3592-5" />
  <path
     style="fill:none;stroke:#0000ff;stroke-width:3;stroke-linecap:butt;stroke-linejoin:round;stroke-miterlimit:4;stroke-dasharray:none;stroke-opacity:1"
     id="path2955"
     d="m 566.01,2762.0 -95.49,19.25 -7.13,26.0 -140.39,-1.74 -116,-3 -23.5,-1.5 -15,-4 -7.5,-7.5 1,-21 5.5,-22 8.5,-6 14,-1 42.5,2" />
  <path
     style="fill:none;stroke:#0000ff;stroke-width:3;stroke-linecap:butt;stroke-linejoin:round;stroke-miterlimit:4;stroke-dasharray:none;stroke-opacity:1"
     id="path3637-3"
     d="m 2539.0,368.0 -49,90 -69,107 -91,142.0 -48,72 -36,59.0 -30,40 -58,62.0 -55,57 -17,26.0 -19.54,36" />
  <path
     d="m 684.0,3459.25 13.03,-5.29 18.48,0.95"
     id="path3638-3"
     style="fill:none;stroke:#0000ff;stroke-width:3;stroke-linecap:butt;stroke-linejoin:round;stroke-miterlimit:4;stroke-dasharray:none;stroke-opacity:1" />
  <path
     d="m -287.0,4150.0 -15.5,12 -9,23.5 -8,28 0.5,19.5 11,73 -4.5,22 -8,20.5 3.5,62 7,20.5 11.5,19.5 18.5,33 8,16.5 v 20 l -9,15.5 -23,17.5 -16,23.5 -33,77 -16,31.5 -19.0,34 -28,45 -19.5,32.5 -7,23 -17,52 -11,23.5 -20,29 -47,45.5 -78.5,76.5 -136,130 -92.5,88.5 -38,53.5 -26.5,34 -22.5,23.5"
     id="path3670"
     style="fill:none;stroke:#006600;stroke-width:3;stroke-linecap:butt;stroke-linejoin:round;stroke-miterlimit:4;stroke-dasharray:none;stroke-opacity:1" />
  <path
     d="m 1416.0,3607.0 237,18 48,-6 30,7 24,19 10,40 4,20 13,11 207,-39 60,-13"
     id="path3618-5"
     style="fill:none;stroke:#0000ff;stroke-width:3;stroke-linecap:butt;stroke-linejoin:round;stroke-miterlimit:4;stroke-dasharray:none;stroke-opacity:1" />
  <path
     style="fill:none;stroke:#ff00ff;stroke-width:3;stroke-linecap:butt;stroke-linejoin:round;stroke-miterlimit:4;stroke-dasharray:none;stroke-opacity:1"
     d="m -1337.5,2750.0 -107.5,-42.5 -97,-38.5 -14,-11.5 -2.5,-17 10,-22 -0.8,-3.78"
     id="path920" />
  <path
     style="fill:none;stroke:#0000ff;stroke-width:3;stroke-linecap:butt;stroke-linejoin:round;stroke-miterlimit:4;stroke-dasharray:none;stroke-dashoffset:0;stroke-opacity:1;marker-start:none"
     id="path5243"
     d="M 55.98,2986.34 2.18e-4,2963.0 -61.5,2937.0 l -14,-11 -17.5,-31.5 -12.5,-22.5 -23.5,-30 -49,-53 -15.5,-19.5 -24.5,-25.5 -31.5,-15 -62.5,-26 -103.5,-34 -29.5,-12.5 -14.5,-3.5 -105.5,-4 -73.5,-3.5 -55.5,-4.5 -87,-14 -55.0,-4 -78.5,-2 -46,4 -85.5,6.5 -104.5,10.5 -55.5,8.5 -16,5.5 -47.5,37 -24.5,24.5 -20,10 -22.5,17.5 -31,27.5" />
  <path
     style="opacity:1;fill:none;fill-opacity:0.15;fill-rule:nonzero;stroke:#006600;stroke-width:3;stroke-linecap:butt;stroke-linejoin:round;stroke-miterlimit:4;stroke-dasharray:none;stroke-opacity:1"
     d="m 3073.31,3194.24 33.36,2.13 23.07,9.23 22.71,21.65 129.53,174.95 35.84,92.27 138.05,256.93 17.03,23.42 18.81,16.32 25.91,12.07 25.2,6.39 42.23,-1.42"
     id="path928" />
  <path
     style="opacity:1;fill:none;fill-opacity:0.15;fill-rule:nonzero;stroke:#006600;stroke-width:3;stroke-linecap:butt;stroke-linejoin:round;stroke-miterlimit:4;stroke-dasharray:none;stroke-opacity:1"
     d="m 2845.83,3270.18 19.16,2.84 50.75,39.39 12.78,13.49 38.68,71.33 14.55,17.03 258.7,209.73 166.08,124.56 85.17,42.58"
     id="path930" />
  <path
     style="opacity:1;fill:none;fill-opacity:0.15;fill-rule:nonzero;stroke:#006600;stroke-width:3;stroke-linecap:butt;stroke-linejoin:round;stroke-miterlimit:4;stroke-dasharray:none;stroke-opacity:1"
     d="m 822.35,2474.91 489.01,-883.63 8.87,-7.1 38.68,-20.23 11.71,-7.45 15.26,-13.49 33.36,-64.23 25.2,-34.78 19.16,-23.07 128.82,-107.53 18.81,-20.94 15.61,-31.58 155.79,-366.94 39.04,-72.75 18.68,-32.38 24.26,-26.18 38.33,-26.97 92.98,-68.85 17.39,-22.0 33.36,-63.17 10.29,-30.52 70.97,-214.7 24.49,-46.84 23.42,-49.33 34.07,-66.72 61.39,-118.17 35.49,-56.78"
     id="path938" />
  <path
     style="opacity:1;fill:none;fill-opacity:0.15;fill-rule:nonzero;stroke:#006600;stroke-width:3;stroke-linecap:butt;stroke-linejoin:round;stroke-miterlimit:4;stroke-dasharray:none;stroke-opacity:1"
     d="m 2192.51,208.7 36.91,-47.91 30.16,-46.13 19.52,-22.36 26.62,-18.1 25.91,-12.07 39.75,-10.29 42.58,-8.87 17.74,-6.39 24.13,-12.42 20.58,-5.32 32.65,1.06 59.26,12.78 23.07,-3.19 47.91,-9.94 31.23,2.84 57.84,14.19 219.31,63.88 25.55,0.71 37.62,-6.39 31.94,-19.16 14.55,-14.55 38.33,-63.88"
     id="path940" />
  <path
     style="opacity:1;fill:none;fill-opacity:0.15;fill-rule:nonzero;stroke:#006600;stroke-width:3;stroke-linecap:butt;stroke-linejoin:round;stroke-miterlimit:4;stroke-dasharray:none;stroke-opacity:1"
     d="m 3010.85,94.78 -17.39,21.29 -38.33,80.91 -36.91,69.2 -31.0,86.17 -120.17,257.35 -57.49,122.43 -15.26,23.78 -33.71,36.2 -19.87,14.55 -193.41,84.1 -27.33,17.74 -14.9,18.81 -45.42,90.49 -22.36,25.55 -22.36,16.32 -41.17,15.97 -46.49,17.39 -55.98,9.75 -38.46,7.86 -28.1,11.79 -91.59,46.42 -25.6,13.55 -15.31,11.79 -12.55,12.8 -11.79,18.32 -47.18,79.29 -6.27,17.31 -2.01,16.31 -6.52,47.18 -9.28,21.33 -18.07,18.07 -26.35,22.33 -62.98,85.57 -114.93,107.15 -82.81,106.9 -72.27,67.0 -14.05,18.82 -37.14,50.19 -16.56,25.34 -6.52,16.06 -2.01,14.3 0.75,19.32 4.52,15.06 12.55,20.33 44.92,43.91 65.49,64.49 17.06,21.83 16.81,24.59 15.06,26.85 57.21,120.95 12.81,29.01 5.32,29.45 -9.58,74.88 -7.1,25.91 -16.32,20.58 -11.0,7.1 -18.45,8.87 -53.04,12.73"
     id="path942" />
  <path
     style="opacity:1;fill:none;fill-opacity:0.15;fill-rule:nonzero;stroke:#006600;stroke-width:3;stroke-linecap:butt;stroke-linejoin:round;stroke-miterlimit:4;stroke-dasharray:none;stroke-opacity:1"
     d="m 1594.34,-2.0 -13.8,76.03 -86.32,305.89 -41.15,117.19 0.75,18.82 5.52,13.55 35.13,41.65 12.3,6.78 28.36,1.76 56.21,22.33 13.3,10.54 12.3,15.06 7.28,23.59 2.01,18.82 -4.27,20.83 -22.58,65.49 -11.79,16.31 -58.22,60.73 -9.03,18.32 -10.04,35.13 -24.09,38.39 -54.45,75.53 -22.33,36.64 -25.09,62.48 -16.06,45.92 -15.81,78.29 -11.79,51.19 0.75,21.83 8.03,20.58 69.01,119.95 4.77,14.05 0.75,11.04 -4.71,16.09"
     id="path944" />
  <path
     style="opacity:1;fill:none;fill-opacity:0.15;fill-rule:nonzero;stroke:#006600;stroke-width:3;stroke-linecap:butt;stroke-linejoin:round;stroke-miterlimit:4;stroke-dasharray:none;stroke-opacity:1"
     d="m -1150.04,2636.56 -81.98,3.55 -17.21,-3.55 -28.21,-13.13 -54.12,-52.88 -13.49,-8.34 -20.41,-4.97 -73.1,0.18 -33.89,-12.07 -64.23,-17.39 -39.57,-16.68 -31.76,-17.74 -31.58,-24.66 -33.36,-27.68 -29.45,-13.31 -160.23,-60.33 -52.88,-31.58 -28.74,-19.34 -96.17,-69.56 -82.69,-55.36 -29.1,-9.94 -29.81,-1.77 -19.87,2.48 -22.36,6.03 -19.52,15.26 -17.03,21.29 -44.71,69.2"
     id="path946" />
  <path
     style="opacity:1;fill:none;fill-opacity:0.15;fill-rule:nonzero;stroke:#006600;stroke-width:3;stroke-linecap:butt;stroke-linejoin:round;stroke-miterlimit:4;stroke-dasharray:none;stroke-opacity:1"
     d="m 3456.22,4692.87 17.39,-22.0 24.49,-17.39 88.72,-45.42"
     id="path1303" />
  <path
     style="opacity:1;fill:none;fill-opacity:0.15;fill-rule:nonzero;stroke:#999999;stroke-width:3;stroke-linecap:butt;stroke-linejoin:round;stroke-miterlimit:4;stroke-dasharray:none;stroke-opacity:1"
     d="m -2303.65,3849.57 291.84,-52.7 92.34,-15.31 23.34,-0.75 32.12,4.27 25.85,8.28 240.9,123.71 158.84,58.47 27.6,3.51 451.93,9.54 37.64,1.25 22.58,-4.27 23.34,-9.54 24.09,-16.81 14.3,-19.82 42.91,-65.49 217.56,-339.01 22.83,-33.12 21.83,-25.34 61.48,-61.48 94.1,-96.36 39.9,-41.91 48.93,-30.61 63.24,-38.64 82.56,-44.16 29.61,-13.55 26.85,-6.02 25.6,0.25 204.76,31.12"
     id="path1305" />
  <path
     style="opacity:1;fill:none;fill-opacity:0.15;fill-rule:nonzero;stroke:#999999;stroke-width:3;stroke-linecap:butt;stroke-linejoin:round;stroke-miterlimit:4;stroke-dasharray:none;stroke-opacity:1"
     d="m -1455.25,2767.8 178.66,35.13 122.46,29.61 218.81,73.27 188.2,61.23"
     id="path1307" />
  <path
     style="opacity:1;fill:none;fill-opacity:0.15;fill-rule:nonzero;stroke:#999999;stroke-width:3;stroke-linecap:butt;stroke-linejoin:round;stroke-miterlimit:4;stroke-dasharray:none;stroke-opacity:1"
     d="m -1598.95,3939.12 24.84,-4.61 29.1,1.42"
     id="path1313" />
  <path
     style="opacity:1;fill:none;fill-opacity:0.15;fill-rule:nonzero;stroke:#999999;stroke-width:3;stroke-linecap:butt;stroke-linejoin:round;stroke-miterlimit:4;stroke-dasharray:none;stroke-opacity:1"
     d="m -1059.19,2864.21 13.13,13.13 4.61,12.78 v 17.03 l -135.27,254.12 -387.44,735.23 -22.08,34.13 -21.08,15.06 -157.59,116.93 -13.55,18.57 -12.04,20.07 -95.35,207.27 -159.59,345.28 -260.47,565.6"
     id="path1315" />
  <path
     style="opacity:1;fill:none;fill-opacity:0.15;fill-rule:nonzero;stroke:#006600;stroke-width:3;stroke-linecap:butt;stroke-linejoin:round;stroke-miterlimit:4;stroke-dasharray:none;stroke-opacity:1"
     d="m 1788.31,2696.04 28.1,8.53 17.06,-3.01 438.63,-172.14 186.69,-88.33 40.65,-33.12 55.21,-32.12 50.92,-16.26 26.97,-11.71 66.72,-23.78 18.81,-2.13 25.91,0.35 205.47,24.49 220.73,-24.13 229.6,-30.16 22.71,-7.81 29.45,-19.16 133.43,-139.11"
     id="path1447" />
  <path
     style="opacity:1;fill:none;fill-opacity:0.15;fill-rule:nonzero;stroke:#006600;stroke-width:3;stroke-linecap:butt;stroke-linejoin:round;stroke-miterlimit:4;stroke-dasharray:none;stroke-opacity:1"
     d="m -1925.75,1572.36 23.09,21.08 14.05,23.59 9.79,26.6 3.76,29.86 8.28,19.57 10.79,14.3 19.57,19.82 14.55,17.82 9.54,18.57 30.11,69.51 10.79,29.36 7.03,40.65 0.25,55.46 5.52,35.13 79.29,430.85 6.39,16.68"
     id="path1564" />
  <path
     style="opacity:1;fill:none;fill-opacity:0.15;fill-rule:nonzero;stroke:#999999;stroke-width:3;stroke-linecap:butt;stroke-linejoin:round;stroke-miterlimit:4;stroke-dasharray:none;stroke-opacity:1"
     d="m 203.45,2878.05 -40.1,-4.61 -64.94,-34.78 -130.24,-14.9 -18.1,-12.78 -122.79,-141.95 -7.1,-12.42 -11.36,-30.52 -2.84,-51.1 3.9,-26.62 10.65,-18.45 93.69,-112.85 22.0,-34.07 122.79,-247.7 114.27,-232.44 146.21,-284.96 12.78,-34.07 3.55,-42.58 -11.0,-48.62 -51.89,-200.81 -36.39,-146.54 -4.27,-33.63 1.76,-36.64 5.52,-160.85 -5.52,-20.58 -47.68,-144.04 -24.09,-84.31 -5.27,-19.82 -0.5,-25.09 4.52,-36.39 V 560.85 L 153.48,538.01 142.94,520.95 110.83,485.32 88.99,469.0 63.15,455.96 2.67,425.09 -21.67,407.78 -250.77,235.39 l -18.57,-10.04 -33.12,-9.79 -394.97,-39.9 -396.47,-41.65 -15.56,-4.27 -19.07,-12.3 -13.8,-15.56 -73.27,-103.89"
     id="path1568" />
  <path
     style="opacity:1;fill:none;fill-opacity:0.15;fill-rule:nonzero;stroke:#006600;stroke-width:3;stroke-linecap:butt;stroke-linejoin:round;stroke-miterlimit:4;stroke-dasharray:none;stroke-opacity:1"
     d="m -908.72,2612.6 109.3,-2.13 257.99,-24.13 58.2,-1.06 24.84,3.9 307.67,84.46 245.22,66.89 40.99,11.18 23.07,0.53 72.57,-0.53"
     id="path948" />
  <path
     style="opacity:1;fill:none;fill-opacity:0.15;fill-rule:nonzero;stroke:#0000ff;stroke-width:3;stroke-linecap:butt;stroke-linejoin:round;stroke-miterlimit:4;stroke-dasharray:none;stroke-opacity:1"
     d="m 796.81,2345.6 17.55,-3.23"
     id="path1808" />
  <path
     style="opacity:1;fill:none;fill-opacity:0.15;fill-rule:nonzero;stroke:#999999;stroke-width:3;stroke-linecap:butt;stroke-linejoin:round;stroke-miterlimit:4;stroke-dasharray:none;stroke-opacity:1"
     d="m -741.93,-4.23 55.36,136.98 43.29,111.78 9.58,40.81 3.9,40.1 -0.71,58.2 -47.55,305.55 2.13,24.13 9.58,21.29 18.81,19.52 32.65,18.45 23.42,18.81 15.26,20.23 7.45,19.87 4.26,23.42 -2.13,26.26 -86.59,266.51 -3.55,15.26 -0.71,16.68 1.77,14.55 105.4,301.29 121.37,347.78 18.81,51.81 22.0,61.75 10.29,36.2 33.18,94.57 85.88,372.62 15.08,56.96 10.65,30.34 1.77,14.55 v 20.58 l 3.73,17.74 17.21,16.86 15.79,12.42 8.87,10.65"
     id="path2053" />
  <path
     style="opacity:1;fill:none;fill-opacity:0.15;fill-rule:nonzero;stroke:#999999;stroke-width:3;stroke-linecap:butt;stroke-linejoin:round;stroke-miterlimit:4;stroke-dasharray:none;stroke-opacity:1"
     d="m -549.13,1499.34 -4.27,-30.36 v -28.61 l 7.28,-36.64 11.54,-29.86 30.61,-52.7 36.64,-62.48 110.66,-191.96 183.43,-315.42 125.47,-217.31 107.65,-270.51 22.08,-35.13 8.78,-19.32 64.24,-186.19 2.76,-27.35"
     id="path2055" />
  <path
     style="opacity:1;fill:none;fill-opacity:0.15;fill-rule:nonzero;stroke:#999999;stroke-width:3;stroke-linecap:butt;stroke-linejoin:round;stroke-miterlimit:4;stroke-dasharray:none;stroke-opacity:1"
     d="m 319.49,1617.9 77.4,-139.39 11.29,-30.36 4.27,-27.35 10.29,-179.17 5.02,-30.11 81.8,-248.42 194.97,-384.68 181.93,-360.59 35.63,-137.51 14.8,-85.82"
     id="path2061" />
  <path
     style="opacity:1;fill:none;fill-opacity:0.15;fill-rule:nonzero;stroke:#999999;stroke-width:3;stroke-linecap:butt;stroke-linejoin:round;stroke-miterlimit:4;stroke-dasharray:none;stroke-opacity:1"
     d="m -234.82,2542.52 -17.39,-18.81 -37.26,-25.02 -55.72,-27.33 -228.54,-99.36 -85.88,-18.1 -327.19,-75.23 -24.49,-9.94 -20.94,-14.9 -189.15,-172.11 -31.58,-20.94 -103.98,-58.55 -14.55,-7.45 -29.81,-21.65 -18.81,-19.87 -18.1,-39.39 -15.61,-39.75 -18.1,-16.68 -29.45,-19.52 -128.82,-35.84 -25.2,-9.94 -20.58,-18.81 -38.68,-52.88 -82.33,-77.72 -50.39,-58.91 -11.71,-21.29 -22.36,-56.78 -3.55,-22.0 4.61,-34.07 28.03,-155.79 -2.48,-30.16 -26.62,-137.69 -1.77,-25.55 8.87,-30.16 58.2,-110.01 6.39,-30.16 13.49,-106.11 4.61,-17.74 18.81,-45.07 23.42,-54.65 5.68,-29.81 5.32,-37.97 -4.97,-17.74 -12.07,-15.26 -11.0,-7.1 -17.74,-3.55 -14.55,1.77 -79.49,30.16 -50.39,16.68 -22.0,14.9 -31.58,30.52 -19.87,18.45 -20.23,4.61 -17.03,-0.35 -17.39,-6.74 -13.13,-12.42 -11.0,-21.65 -28.39,-63.17 -96.53,-129.17 -98.3,-89.78"
     id="path2063" />
  <path
     style="opacity:1;fill:none;fill-opacity:0.15;fill-rule:nonzero;stroke:#999999;stroke-width:3;stroke-linecap:butt;stroke-linejoin:round;stroke-miterlimit:4;stroke-dasharray:none;stroke-opacity:1"
     d="m -1907.69,635.96 -13.49,13.49 -29.81,82.33 -12.42,18.1 -51.81,55.01 -25.91,30.87 -23.07,35.49 -11.0,15.61 -12.78,8.52 -18.45,6.03 -31.58,1.06 -17.39,4.26 -14.9,6.74 -18.81,21.29 -31.94,32.65 -14.9,22.36 -9.94,30.16 -5.32,13.84 -8.52,8.52 -42.94,27.68"
     id="path2065" />
  <path
     style="opacity:1;fill:none;fill-opacity:0.15;fill-rule:nonzero;stroke:#999999;stroke-width:3;stroke-linecap:butt;stroke-linejoin:round;stroke-miterlimit:4;stroke-dasharray:none;stroke-opacity:1"
     d="m -1393.12,-2.45 1.06,74.17 11.36,24.49 24.84,31.23 5.68,17.74 -1.42,20.23 -8.16,41.52 -15.97,49.33 -1.42,36.2 30.52,243.09 90.85,304.48 2.48,14.9 0.35,17.39 -14.9,171.05 -22.0,149.4 1.42,22.36 5.32,18.1 33.0,68.14 81.62,208.31 7.81,20.23 30.16,133.43 4.61,26.26 -2.13,26.62 -8.52,26.97 -34.42,86.94 -32.65,85.88 -14.9,96.53 -5.32,20.58 -66.36,155.79 -4.26,19.87 -3.55,33.71 -6.03,19.16 -67.43,134.85 -9.23,17.03 -1.42,6.74 3.19,9.94 6.03,7.45 34.78,25.2 88.36,31.23 66.36,6.39 53.23,1.42 23.07,-1.42 254.8,-74.17 205.12,-59.26 44.36,-1.77"
     id="path2067" />
  <path
     style="opacity:1;fill:none;fill-opacity:0.15;fill-rule:nonzero;stroke:#999999;stroke-width:3;stroke-linecap:butt;stroke-linejoin:round;stroke-miterlimit:4;stroke-dasharray:none;stroke-opacity:1"
     d="m -1355.86,127.43 73.46,83.4 13.84,19.87 79.49,118.17 22.0,44.71 92.98,130.95 51.1,73.81 18.81,50.39 13.49,17.03 16.32,35.49 39.39,75.94 47.91,64.23 4.61,11.0 2.84,11.0 0.71,26.62 8.16,27.68 3.19,21.29 -1.06,13.84 -7.81,15.61 -6.74,13.49 1.77,13.84 3.9,9.94 56.42,50.04 50.04,41.88 35.84,21.29 53.41,29.81 11.18,11.0 14.9,34.42"
     id="path2069" />
  <text
     style="font-style:normal;font-weight:normal;font-size:144.0px;line-height:125%;font-family:Sans;-inkscape-font-specification:Sans;letter-spacing:0px;word-spacing:0px;fill:#000000;fill-opacity:1;stroke:none;stroke-width:3;stroke-miterlimit:4;stroke-dasharray:none"
     xml:space="preserve"
     id="text4834-3"
     y="222.96"
     x="-1752.55"><tspan
       id="tspan1"
       y="222.96"
       x="-1752.55"
       style="stroke-width:3;stroke-miterlimit:4;stroke-dasharray:none">1955</tspan></text>
  <path
     style="opacity:1;fill:none;fill-opacity:0.15;fill-rule:nonzero;stroke:#006600;stroke-width:3;stroke-linecap:butt;stroke-linejoin:round;stroke-miterlimit:4;stroke-dasharray:none;stroke-opacity:1"
     d="m -2304.79,4281.22 152.95,-191.99 143.37,-180.28 27.68,-39.75 12.07,-45.78 12.42,-31.58 84.81,-152.6 141.24,-268.28 65.3,-149.76 76.65,-168.92 16.32,-23.78 37.97,-46.13 163.79,-212.23 14.61,-14.36 36.24,-29.89 22.06,-15.7 73.35,-56.22 16.87,-6.43 58.65,-10.98 174.07,-16.86 65.65,-7.1 47.55,-10.65 24.72,-8.3 382.42,-173.65 353.82,-210.78 45.17,-25.6 27.1,-11.04 29.11,-3.01 30.61,3.01 30.11,11.04 379.91,216.81 199.24,116.43 194.22,103.89 26.6,6.52 192.21,25.09 64.24,10.04 15.06,-4.52 74.28,-37.64 72.77,-38.14 51.69,-20.07 227.85,-57.71 25.6,1.0 22.08,6.02 23.59,11.54 19.57,15.06 113.92,136.51 19.07,17.57 24.09,16.06 41.65,23.09 66.75,36.64 469.75,228.35 25.6,17.06 30.11,23.59 81.3,93.35 123.46,145.54 29.61,24.09 22.08,9.03 35.11,4.52"
     id="path932" />
  <path
     id="path939"
     d="m -1361.18,1999.38 -26.62,-8.16 -18.45,2.31 -17.92,7.63 -63.17,32.47 -36.02,15.26 -17.92,1.77 -30.52,-1.24 -93.15,0.35 -110.19,-1.06 -78.96,-1.42 -18.81,4.44 -43.83,-2.13 -30.7,-3.73 -19.7,-6.74 -53.23,-0.18 -29.63,4.61 -22.36,1.6 -7.33,-2.19 -10.94,-7.04 -36.73,-17.74 -7.98,-0.53 -8.69,1.42 -14.9,3.02 -8.52,7.45 -31.58,48.62 -19.7,34.6"
     style="opacity:1;fill:none;fill-opacity:0.15;fill-rule:nonzero;stroke:#999999;stroke-width:3;stroke-linecap:butt;stroke-linejoin:round;stroke-miterlimit:4;stroke-dasharray:none;stroke-opacity:1" />
  <path
     id="path941"
     d="m 191.88,767.62 -7.78,-46.92 1.51,-35.63 4.52,-19.82 39.4,-124.21 13.8,-24.34 199.24,-293.34 98.62,-144.04 10.29,-21.58 2.01,-28.61 1.51,-31.12"
     style="opacity:1;fill:none;fill-opacity:0.15;fill-rule:nonzero;stroke:#999999;stroke-width:3;stroke-linecap:butt;stroke-linejoin:round;stroke-miterlimit:4;stroke-dasharray:none;stroke-opacity:1" />
  <path
     id="path943"
     d="m 425.25,2167.59 -18.2,-32.09 -0.25,-6.94 5.32,-16.32 -2.13,-12.78 -7.45,-10.29 -200.5,-130.95 -15.26,-19.87 -3.55,-14.55 v -22.0 l 3.55,-25.91"
     style="opacity:1;fill:none;fill-opacity:0.15;fill-rule:nonzero;stroke:#999999;stroke-width:3;stroke-linecap:butt;stroke-linejoin:round;stroke-miterlimit:4;stroke-dasharray:none;stroke-opacity:1" />
  <path
     d="m 1691.0,3629.0 -38,-4.0"
     id="path6287"
     style="fill:none;stroke:#0000ff;stroke-width:3;stroke-linecap:butt;stroke-linejoin:round;stroke-miterlimit:4;stroke-dasharray:none;stroke-opacity:1" />
  <path
     d="m 1287.5,1299.5 20.5,-35.5 47,-9.5 68,29 18.51,-8.35"
     id="path10731"
     style="fill:none;stroke:#0000ff;stroke-width:3;stroke-linecap:butt;stroke-linejoin:round;stroke-miterlimit:4;stroke-dasharray:none;stroke-opacity:1" />
  <path
     id="path2253"
     d="m 2603.0,3498.0 -49,8 -48,24 -43,31 -44,16 -55,14 -174,12 -40,4.5 -106.5,18.5 5.5,33.5 0.76,3.0 -1.74,1.86"
     style="fill:none;stroke:#0000ff;stroke-width:3;stroke-linecap:butt;stroke-linejoin:round;stroke-miterlimit:4;stroke-dasharray:none;stroke-opacity:1" />
  <path
     id="path3628-3"
     d="m 1691.92,3724.22 7.58,4.78 5.13,2.26 77.37,-15.26"
     style="fill:none;stroke:#0000ff;stroke-width:3;stroke-linecap:butt;stroke-linejoin:round;stroke-miterlimit:4;stroke-dasharray:none;stroke-opacity:1" />
  <path
     id="path20140"
     d="m 979.94,2349.4 8.07,4.44"
     style="fill:none;stroke:#ff00ff;stroke-width:3;stroke-linecap:butt;stroke-linejoin:round;stroke-miterlimit:4;stroke-dasharray:none;stroke-opacity:1" />
  <path
     style="fill:none;stroke:#0000ff;stroke-width:3;stroke-linecap:butt;stroke-linejoin:round;stroke-miterlimit:4;stroke-dasharray:none;stroke-opacity:1"
     id="path3055"
     d="m 1218.0,2484.5 4.5,8.5 v 30.5 l 4.5,8.5 15,10 10.53,1.52 15.86,0.36" />
  <path
     id="path2280"
     d="m 988.01,2353.84 41.43,22.78 203.2,119.43"
     style="fill:none;stroke:#ff0000;stroke-width:3;stroke-linecap:butt;stroke-linejoin:round;stroke-miterlimit:4;stroke-dasharray:none;stroke-opacity:1" />
  <path
     id="1957-04-07 Queensboro Bridge Shuttle"
     d="m 1232.64,2496.05 47.98,28.55 5.81,6.1"
     style="fill:none;stroke:#ff0000;stroke-width:3;stroke-linecap:butt;stroke-linejoin:round;stroke-miterlimit:4;stroke-dasharray:none;stroke-opacity:1" />
  <path
     id="path3452"
     d="m 405.5,3936.5 35.76,28.0 -6.76,8.75 283.19,225.45 13.99,-17.56 14.03,11.1 105.77,-55.9"
     style="fill:none;stroke:#ff0000;stroke-width:3;stroke-linecap:butt;stroke-linejoin:round;stroke-miterlimit:4;stroke-dasharray:none;stroke-opacity:1" />
  <path
     id="path3450"
     d="m 851.48,4136.33 9.39,-4.96"
     style="fill:none;stroke:#ff00ff;stroke-width:3;stroke-linecap:butt;stroke-linejoin:round;stroke-miterlimit:4;stroke-dasharray:none;stroke-opacity:1" />
  <path
     id="1956-10-31 8 - Church Ave"
     d="m 860.87,4131.37 151.13,-79.87 356,-23 33.5,-10 86,-4.5 75.24,-61.51 16.26,18.01 L 1637,3958"
     style="fill:none;stroke:#ff0000;stroke-width:3;stroke-linecap:butt;stroke-linejoin:round;stroke-miterlimit:4;stroke-dasharray:none;stroke-opacity:1" />
  <path
     style="fill:none;stroke:#ff0000;stroke-width:3;stroke-linecap:butt;stroke-linejoin:round;stroke-miterlimit:4;stroke-dasharray:none;stroke-opacity:1"
     d="m 861.5,5186 6.5,-73.77 -10.75,-0.35 0.26,-52.76 4.25,-82.25 23.25,-211.97 -2.81,-25.74 -20.07,-136.42 -26.49,-181.87 -25.39,-175.08 -9.86,-74.93 -10.9,-71.21 -19.98,-125.35 -25.65,-20.37"
     id="path13069" />
  <path
     id="path4579"
     d="m 596.13,4424.96 41.15,33.12 159.97,-201.62 -1.63,-14.8 123.08,-18.57 5.27,-5.52 121.7,-72.14 -2.26,-14.18 -7.78,0.88 2.51,17.19"
     style="opacity:1;fill:none;fill-opacity:0.15;fill-rule:nonzero;stroke:#00dd00;stroke-width:3;stroke-linecap:butt;stroke-linejoin:round;stroke-miterlimit:4;stroke-dasharray:none;stroke-opacity:1" />
  <path
     id="path4940"
     d="m 1016.2,3850.31 63.43,-234.13 -23.67,-159.95 2.01,-10.66 -21.1,-136.35 60.84,-12.83 -0.51,-4.38 -5.15,-6.21 73.1,-62.28 -33.36,-274.14 -3.19,-7.81 -6.57,-14.02 2.4,-2.84 66.09,-29.99 111.08,-14.37 7.81,7.81 33.18,-29.45"
     style="opacity:1;fill:none;fill-opacity:0.15;fill-rule:nonzero;stroke:#00dd00;stroke-width:3;stroke-linecap:butt;stroke-linejoin:round;stroke-miterlimit:4;stroke-dasharray:none;stroke-opacity:1" />
  <path
     id="path4946"
     d="m 1124.43,2924.72 6.03,-9.76"
     style="opacity:1;fill:none;fill-opacity:0.15;fill-rule:nonzero;stroke:#00dd00;stroke-width:3;stroke-linecap:butt;stroke-linejoin:round;stroke-miterlimit:4;stroke-dasharray:none;stroke-opacity:1" />
  <path
     id="path4948"
     d="m 1132.95,2920.46 8.69,19.7 -10.73,8.69"
     style="opacity:1;fill:none;fill-opacity:0.15;fill-rule:nonzero;stroke:#00dd00;stroke-width:3;stroke-linecap:butt;stroke-linejoin:round;stroke-miterlimit:4;stroke-dasharray:none;stroke-opacity:1" />
  <path
     id="path4950"
     d="m 1141.65,2940.15 27.68,-2.84 5.5,19.43 22.09,39.57 34.78,278.84"
     style="opacity:1;fill:none;fill-opacity:0.15;fill-rule:nonzero;stroke:#00dd00;stroke-width:3;stroke-linecap:butt;stroke-linejoin:round;stroke-miterlimit:4;stroke-dasharray:none;stroke-opacity:1" />
  <path
     id="path4952"
     d="m 1036.87,3309.22 -15.27,3.03 4.23,29.98 15.52,-2.85"
     style="opacity:1;fill:none;fill-opacity:0.15;fill-rule:nonzero;stroke:#00dd00;stroke-width:3;stroke-linecap:butt;stroke-linejoin:round;stroke-miterlimit:4;stroke-dasharray:none;stroke-opacity:1" />
  <path
     id="path4956"
     d="m 1431.49,3674.92 30.99,2.02 -4.33,67.99 -0.5,2.31 -2.05,0.14 -348.9,-27.59 1.17,-13.54 -19.18,-1.88 -101.85,-27.44 -13.8,-96.86 -139.39,-38.52 -35.51,-62.36 -95.1,-47.18 -15.18,-8.03 -27.23,-10.16 3.76,-8.66 19.95,3.76 -1.63,12.55"
     style="opacity:1;fill:none;fill-opacity:0.15;fill-rule:nonzero;stroke:#00dd00;stroke-width:3;stroke-linecap:butt;stroke-linejoin:round;stroke-miterlimit:4;stroke-dasharray:none;stroke-opacity:1" />
  <path
     id="path1566"
     d="m -2302.66,128.85 157.92,116.75 40.81,15.97 45.07,4.61 76.65,-8.52 79.49,-8.16 16.32,0.71 30.87,13.84 20.23,6.03 20.58,0.71 52.52,-20.58 9.94,-8.87 19.87,-47.91 16.32,-25.55 17.74,-15.97 17.74,-11.71 46.49,-21.29 40.1,-28.74 15.26,-11.0 18.1,-3.55 h 44.36 l 46.84,7.81 13.49,8.87 9.58,15.97 9.94,37.62 3.9,56.78 16.68,50.04 18.45,57.49 2.48,25.91 -1.42,43.65 8.16,47.2 12.78,48.62 21.29,29.1 93.33,135.21 32.65,62.46 201.57,230.31 13.49,19.87 7.81,19.52 2.13,17.39 1.42,48.62 35.13,261.19 52.88,145.14 48.97,100.07 10.29,13.84 26.97,20.94 28.39,20.94 12.07,14.19 10.29,16.32 7.1,15.97 19.52,73.81 13.84,53.59 10.65,24.49 243.09,297.38 21.65,31.23 172.11,272.54 14.2,29.45 7.1,18.1 5.68,23.42 32.65,151.53 7.81,23.07 8.71,8.46 348.74,94.96 22.31,0.61 72.62,-0.48"
     style="opacity:1;fill:none;fill-opacity:0.15;fill-rule:nonzero;stroke:#999999;stroke-width:3;stroke-linecap:butt;stroke-linejoin:round;stroke-miterlimit:4;stroke-dasharray:none;stroke-opacity:1" />
  <path
     id="path934"
     d="m 1103.76,2657.32 36.2,18.81 75.94,29.81 20.58,12.07 19.16,18.81 8.52,17.39 19.87,39.75 14.55,22.0 21.65,13.84 73.46,20.94 37.97,13.13 29.45,18.1 20.58,3.55 28.74,4.97 19.52,10.65 17.03,13.84 14.9,25.55 25.91,45.42 36.55,53.23 14.9,14.19 15.97,9.94 33.71,8.87 29.1,18.1 159.34,90.85 21.65,8.52 29.81,-1.42 234.93,-12.78 73.46,-8.52 17.74,1.06 122.43,33.0 169.63,95.82 58.55,32.29 30.16,8.52 29.68,-2.09 66.9,-25.3"
     style="opacity:1;fill:none;fill-opacity:0.15;fill-rule:nonzero;stroke:#999999;stroke-width:3;stroke-linecap:butt;stroke-linejoin:round;stroke-miterlimit:4;stroke-dasharray:none;stroke-opacity:1" />
  <path
     style="opacity:1;fill:none;fill-opacity:0.15;fill-rule:nonzero;stroke:#999999;stroke-width:3;stroke-linecap:butt;stroke-linejoin:round;stroke-miterlimit:4;stroke-dasharray:none;stroke-opacity:1"
     d="m 1045.56,2643.48 58.2,13.84 17.57,0.32 11.14,-2.28 10.57,-5.63 136.86,-70.67 51.33,-19.78 229.0,-58.07 26.39,1.36 22.08,5.93 24.21,11.9 20.11,15.68 113.75,136.15 18.54,17.21 24.27,16.24 40.86,22.64 66.48,36.72 469.84,228.17 26.22,17.42 30.82,24.03 81.12,93.26 123.37,145.36 29.43,24.09 20.31,8.32 34.31,4.52 112.53,-42.53 53.76,-20.14 168.12,-53.85 517.67,-164.31"
     id="path934-3" />
  <path
     id="path4944"
     d="m 1132.95,2920.46 -31.49,-73.02 -8.43,-29.54 -12.54,-115.89 -4.75,0.31 -11.62,8.89 1.25,2.89 16.19,-1.38"
     style="opacity:1;fill:none;fill-opacity:0.15;fill-rule:nonzero;stroke:#00dd00;stroke-width:3;stroke-linecap:butt;stroke-linejoin:round;stroke-miterlimit:4;stroke-dasharray:none;stroke-opacity:1" />
  <path
     id="path4942"
     d="m 1097.71,3296.39 125.75,-19.19 27.1,-7.03 45.92,-14.81 31.87,-11.04 89.33,-45.17 49.18,-55.21 29.11,-40.4 14.05,-11.79 27.6,-11.29 40.4,-33.62 24.09,-28.86 52.19,-37.14 51.94,-44.2 -1.3,-2.97 -34.29,16.15 4.17,13.04"
     style="opacity:1;fill:none;fill-opacity:0.15;fill-rule:nonzero;stroke:#00dd00;stroke-width:3;stroke-linecap:butt;stroke-linejoin:round;stroke-miterlimit:4;stroke-dasharray:none;stroke-opacity:1" />
  <path
     style="fill:none;stroke:#0000ff;stroke-width:3;stroke-linecap:butt;stroke-linejoin:round;stroke-miterlimit:4;stroke-dasharray:none;stroke-opacity:1"
     id="path6499"
     d="m 386.5,3252.5 0.54,-12.03 2.56,-8.87" />
  <path
     style="opacity:1;fill:none;fill-opacity:0.15;fill-rule:nonzero;stroke:#999999;stroke-width:3;stroke-linecap:butt;stroke-linejoin:round;stroke-miterlimit:4;stroke-dasharray:none;stroke-opacity:1"
     d="m -1597.28,3917.07 11.1,0.4 4.08,-1.24 10.11,-7.27"
     id="path6038" />
  <path
     id="path8695"
     d="m -2307.67,3603.66 87.32,-67.75 496.6,-389.45 36.89,-25.85 38.89,-16.06 15.6,-8.2"
     style="opacity:1;fill:none;fill-opacity:0.15;fill-rule:nonzero;stroke:#999999;stroke-width:3;stroke-linecap:butt;stroke-linejoin:round;stroke-miterlimit:4;stroke-dasharray:none;stroke-opacity:1" />
  <path
     id="path2212"
     d="m -1632.37,3096.35 13.51,-7.1 25.53,-25.22"
     style="opacity:1;fill:none;fill-opacity:0.15;fill-rule:nonzero;stroke:#006600;stroke-width:3;stroke-linecap:butt;stroke-linejoin:round;stroke-miterlimit:4;stroke-dasharray:none;stroke-opacity:1" />
  <path
     style="opacity:1;fill:none;fill-opacity:0.15;fill-rule:nonzero;stroke:#006600;stroke-width:3;stroke-linecap:butt;stroke-linejoin:round;stroke-miterlimit:4;stroke-dasharray:none;stroke-opacity:1"
     d="m 179.2,3026.14 -14.05,-2.76 -29.48,-8.66 -17.65,-6.21 -57.51,-23.52 -120.32,-50.44 -13.55,-10.66 -29.74,-53.57 -22.46,-28.48 -49.36,-53.68 -16.88,-21.1 -24.72,-25.6 -33.0,-15.68 -62.36,-25.85 -65.49,-21.58 -52.32,-39.52 -31.87,-8.03 -23.84,-1.76 -274.52,-9.79 -148.81,-6.65"
     id="path1570" />
  <path
     id="path1311"
     d="m -1847.36,4225.15 3.19,14.9 20.58,18.81 4.97,9.94 -1.06,15.26 -19.87,24.49 -17.03,22.71 -9.58,33.71 -6.39,27.68 -8.16,151.53 -15.61,147.63 2.48,23.42 8.87,21.29 50.39,55.01 7.45,15.97 v 20.94 l -44.71,111.08 -10.65,18.45 -34.42,28.04 -3.55,6.39 -10.79,20.95 -33.8,85.6 -5.76,25.89 -4.05,32.12 3.12,16.64 4.58,17.06 -1.87,23.72 -13.11,16.02 -19.35,32.87"
     style="opacity:1;fill:none;fill-opacity:0.15;fill-rule:nonzero;stroke:#999999;stroke-width:3;stroke-linecap:butt;stroke-linejoin:round;stroke-miterlimit:4;stroke-dasharray:none;stroke-opacity:1" />
  <path
     id="path4938"
     d="m 1016.94,3144.58 4.39,2.76 3.89,-9.1 -5.96,-2.82 -2.82,14.3 -4.45,16.94 -0.38,3.83 73.96,9.91 86.15,102.21 47.02,308.07 23.47,1.42 -17.09,246.77 -33.71,-2.66 -179.03,14.55 -6.74,0.98 -5.77,10.11 6.65,13.04 8.25,-0.44 -3.64,-35.66 7.98,-0.71"
     style="opacity:1;fill:none;fill-opacity:0.15;fill-rule:nonzero;stroke:#00dd00;stroke-width:3;stroke-linecap:butt;stroke-linejoin:round;stroke-miterlimit:4;stroke-dasharray:none;stroke-opacity:1" />
  <path
     style="opacity:1;fill:none;fill-opacity:0.15;fill-rule:nonzero;stroke:#006600;stroke-width:3;stroke-linecap:butt;stroke-linejoin:round;stroke-miterlimit:4;stroke-dasharray:none;stroke-opacity:1"
     d="m 2178.85,2895.08 15.44,15.26 7.27,14.02 2.13,16.86 22.53,221.44 3.73,12.6 4.44,12.95 9.58,12.95 8.52,9.58 17.92,26.44 52.7,87.3 12.07,24.13 67.43,185.24"
     id="path919" />
  <path
     id="path3650"
     d="m -1549.3,2614.72 -1.2,-5.72 -6,-9.5 -29.5,-14.5 -15,-8.5 -5.5,-9 -6,-17.5 0.5,-19.5 12.5,-20.5 13,-11 1,-10 1,-10.5 -6,-23.5 -5.5,-18 -4.5,-19.5 3,-28.5 14,-39 27.5,-33.5 13,-23 29,-55 6.5,-16.5 -2.5,-18 -10,-44 4,-15 9,-25 24.5,-45 6.5,-12.5 -0.5,-13.5 -1.31,-6.29"
     style="fill:none;stroke:#ff0000;stroke-width:3;stroke-linecap:butt;stroke-linejoin:round;stroke-miterlimit:4;stroke-dasharray:none;stroke-opacity:1" />
  <path
     style="opacity:1;fill:none;fill-opacity:0.15;fill-rule:nonzero;stroke:#00dd00;stroke-width:3;stroke-linecap:butt;stroke-linejoin:round;stroke-miterlimit:4;stroke-dasharray:none;stroke-opacity:1"
     d="m 1426.16,3744.83 5.32,-69.91 -324.89,-23.24 -258.35,-70.8 -175.83,-89.09 -43.39,77.83 -24.57,-12.69 -128.29,-47.55 -3.73,-12.95 6.89,2.56 129.73,48.19 27.33,-73.64 36.2,18.45"
     id="path4954-7" />
  <path
     style="fill:none;fill-opacity:0.15;fill-rule:nonzero;stroke:#006600;stroke-width:3;stroke-linecap:butt;stroke-linejoin:round;stroke-miterlimit:4;stroke-dasharray:none;stroke-opacity:1"
     d="m 3456.22,4692.87 -3.37,4.97 -7.45,17.57 -11.18,19.7 -8.52,10.1"
     id="path919-6" />
  <path
     id="path3628-3-7"
     d="m 1712.04,3729.8 -4.16,-0.94 -2.55,-4.76 -14.38,-71.39 -0.63,-16.95"
     style="fill:none;stroke:#0000ff;stroke-width:3;stroke-linecap:butt;stroke-linejoin:round;stroke-miterlimit:4;stroke-dasharray:none;stroke-opacity:1" />
  <path
     style="fill:none;stroke:#0000ff;stroke-width:3;stroke-linecap:butt;stroke-linejoin:round;stroke-miterlimit:4;stroke-dasharray:none;stroke-opacity:1"
     d="m 1695.87,3743.0 -0.49,-7.28 2.42,-4.85 4.41,-6.61 2.21,-4.67"
     id="path25201-3" />
</svg>
