<?xml version="1.0" encoding="UTF-8" standalone="no"?>
<svg
   xmlns:dc="http://purl.org/dc/elements/1.1/"
   xmlns:cc="http://creativecommons.org/ns#"
   xmlns:rdf="http://www.w3.org/1999/02/22-rdf-syntax-ns#"
   xmlns:svg="http://www.w3.org/2000/svg"
   xmlns="http://www.w3.org/2000/svg"
   xmlns:xlink="http://www.w3.org/1999/xlink"
   viewBox="0 0 10550 5650"
   height="5650"
   width="10550"
   id="svg2"
   version="1.1">
  <metadata
     id="metadata8">
    <rdf:RDF>
      <cc:Work
         rdf:about="">
        <dc:format>image/svg+xml</dc:format>
        <dc:type
           rdf:resource="http://purl.org/dc/dcmitype/StillImage" />
        <dc:title></dc:title>
      </cc:Work>
    </rdf:RDF>
  </metadata>
  <defs
     id="defs6" />
  <image
     xlink:href="../streetmap/dlcosm.png"
     style="display:none"
     width="10503"
     height="5776.6499"
     preserveAspectRatio="none"
     id="image10"
     x="75"
     y="-151.6499" />
  <path
     id="path836"
     d="m 4550.8398,2820.0073 -2.9152,16.9044 2.0746,10.8266 28.587,67.7947 7.3152,10.3028 9.8755,6.9024 158.6259,32.0336 102.5972,7.2283 15.5,10 15,32 3,19.5 2,34 -17.7546,51.9289 -23.726,83.9155 -17.174,71.9093 -39.6749,126.324 -13.8794,42.1647 -9.7911,43.7576 1.8459,10.1291 13.5239,23.2601 8.809,4.6588 31.0188,5.33 67.4201,22.3555 33.5281,4.797 28.8974,20.0357 66.4384,33.5551 11.2349,11.096 258.7835,138.2827 22.7295,16.373 20.5047,21.1852 39.1589,32.7596 14.6069,6.1822 11.5,-3.5 7.5,-9.5 13.25,-25 1.5,-63.5 5.25,-9.5 16.5,-6.5 96.8434,-11.6718 16.3168,2.9952 100.6554,54.6287 12.6844,0.8542 19.0106,-4.9415 33.4894,-7.8648 88.7217,-29.2582 96.7107,-2.9842 8.5638,-5.9569 12.1834,-21.7987 14.3608,-36.4815 11.5987,-10.6737 86.1193,-33.1346 94.2416,-39.2122 175.3094,-66.1568 39.6906,-7.3432 16,4.5 26.5,24 21.5,14.5 16,5 45.5,-1 17.7402,-2.4386 11.6385,3.7031 418.9832,204.7304 13.2255,1.5871 16.3996,1.587 13.2255,-1.587"
     style="opacity:1;fill:none;fill-opacity:1;fill-rule:nonzero;stroke:#009cd8;stroke-width:5;stroke-linecap:butt;stroke-linejoin:round;stroke-miterlimit:4;stroke-dasharray:none;stroke-opacity:1" />
  <path
     id="path838"
     d="m 5800.5,1983.0001 v 110 l -6.5,10.5 -14.5,10.5 -47.5,22 -38.5,10.5 -84,46.5 -65.5,47 -48.5,25 -37,23 -43,32.5 -3,8 -6.5,65.5 1,147.5 -5,19.5 -40.5,117.5 -28,69 -35,144 -3,27.5 10.5,39 3.5,59 19,38 12,38 -2.5,12.5 -20.5,34.5 -1,20.5 -17.5,38.5 -9.5,31.5 -16.5,31.5 2,20 7.309,13.8169 187.191,181.6831 9.5,18 4.5,20.5 0.5,19 -5,17.5 -61,152.5 -1.5,138.5 -4,9.5 -20,28.5 -5.5,26 v 42.5 l -0.048,17.8588 12.1347,32.2327 -1.1376,55.7437 -3.4129,36.7832 -4.1713,48.1595 -6.1206,9.019 -95.5073,44.0702 -28.4406,1.896 -67.4991,22.3733 -7.9634,6.0674 -16.6851,28.0614 -58.0189,31.4743 -23.8902,9.8594 -30.5231,26.3593 -15.0158,13.407 -9.1168,3.754 -33.7858,-8.8486 -46.3884,-22.792 h -19.038 l -29.2273,10.9938 -34.3221,8.8486 -8.5805,9.1168 -42.3662,58.4547 -137.5563,230.333 -10.4575,9.9212 -32.9813,14.2115 -9.1168,10.4575 -27.6185,46.1202 -13.6752,32.4451 -10.4575,25.2052 -43.4388,33.5176"
     style="opacity:1;fill:none;fill-opacity:1;fill-rule:nonzero;stroke:#00944b;stroke-width:5;stroke-linecap:butt;stroke-linejoin:round;stroke-miterlimit:4;stroke-dasharray:none;stroke-opacity:1" />
  <path
     id="path840"
     d="m 5935.5,3573.5001 -25,-29 -13,-7 -13.5,-3.5 -31.5,1 -12,-4.5 -34,-17.5 -20.5,-4 -130,1 -10,-1 -11,-5 -6.5,-4 -32,-34 -4.5,-7 -2,-17 -4,-244 3.5,-26.5 v -57 l -6,-26 -2,-174.5 9,-48.5 4.5,-39.5 6.5,-116.5 -2,-47.5 4,-65.5 7.5,-24 20.5,-19.5 24,-12 61,-30 13,-12.5 9.5,-12.5 7.5,-16.5 80,-349 13.5,-20.5 17.5,-13 72,-33 33.5,-5.5 21,2 83,21 h 18.5 l 22.5,-3.5 26.5,-7 40,-15 30.5,-6 29,2 33,4.5 27,-6.5 30,-9.5 183,-94.5 24.5,-11 80.5,-20 43.5,-16.5 105,-23 29,-3 47.5,-19.5 17.5,-2 103.5,19 31.5,-5.5 23,-7.5 48,-31.5 17,-12.5 128,-146.5 18.5,-14.5 17.5,-5.5 220.5,-0.5 16,-4 34.5,-20.5 21,-6.5 34,-0.5 57.5,-14.5 42,-37.5 136.5,-82 24.5,-9 502,2.5 36.5,-2.5 106.5,-27 28.5,-0.5 255.5,2 27,-4 23,-12 367.5,-229 24.5,-9 33.5,0.5 88,33 26,4 122,5.5 46,10.5 h 18 l 23.5,-5.5 73.5,-39 30.5,-9.5 95,-9.5 31.5,11.5 115,35 25.5,1.5 37.5,-11 92,-30 88.5,-2 21,-6 82.5,-46.5 118.5,-46.5 31,-8 29.5,-12.5"
     style="opacity:1;fill:none;fill-opacity:1;fill-rule:nonzero;stroke:#e0007c;stroke-width:5;stroke-linecap:butt;stroke-linejoin:round;stroke-miterlimit:4;stroke-dasharray:none;stroke-opacity:1" />
  <path
     id="path842"
     d="m 7700.5,1531.5001 9.5,-12.5 3,-15 -3.5,-16.5 -9.5,-10.5 -119.5,-114.5 -20,-25.5 -62.5,-81 -59.5,-67 -29,-15 -17,-21.5 -28.5,-41.5 -12.5,-33 -14,-17 -26.5,-22.5 -79.5,-44.5 -13,-12 -37.5,-43.5 -23.5,-33 -16,-15.5 -34,-27.5 -26,-31.5 -8.5,-17 -4,-38 -5,-20.5 1,-46 -6.5,-47.5 4,-17.5 15.5,-36.5 7.5,-50 16,-22 29.5,-42 2,-22.5 -12.5,-84.5 4.5,-22 39,-75 82,-117.5 7,-16.5 14,-54"
     style="opacity:1;fill:none;fill-opacity:1;fill-rule:nonzero;stroke:#e0007c;stroke-width:5;stroke-linecap:butt;stroke-linejoin:round;stroke-miterlimit:4;stroke-dasharray:none;stroke-opacity:1" />
  <text
     style="font-style:normal;font-weight:normal;font-size:144px;font-family:Sans;-inkscape-font-specification:Sans;fill:#000000;fill-opacity:1;stroke:none"
     xml:space="preserve"
     id="text3652"
     y="206.96094"
     x="89.453125"><tspan
       id="tspan1"
       y="206.96094"
       x="89.453125">2020</tspan></text>
  <text
     style="font-style:normal;font-weight:normal;font-size:144px;font-family:Sans;-inkscape-font-specification:Sans;fill:#000000;fill-opacity:1;stroke:none"
     xml:space="preserve"
     id="text3652-1"
     y="5547.9609"
     x="89.453125"><tspan
       id="tspan2"
       y="5547.9609"
       x="89.453125">2020</tspan></text>
  <path
     style="opacity:1;fill:none;fill-opacity:1;fill-rule:nonzero;stroke:#4d4399;stroke-width:5;stroke-linecap:butt;stroke-linejoin:round;stroke-miterlimit:4;stroke-dasharray:none;stroke-opacity:1"
     d="m 4539.9551,4783.5376 -27.7596,20.9513 -23.0602,7.7761 -31.3724,-10.1894 -40.1899,-39.7228 -22.0188,-32.6752 L 4345,4697 l -91,-44 -30,-4.5 -58.5,-0.5 -48,-21.5 -80.5,-9 -80.6619,-21.2483 -45.1237,-21.6392 -32.7182,-6.2593 -35.4962,5.1468 -123.5,49 -12.5,10 -20,26.5 -85.5,142.5 -65,57.5 -61.0327,43.9032 -56.0625,31.0985 L 3376.5,4950 l -102,44.5 -23.5,-2.5 -20,-13 -13,-18.5 -3.5,-14 -1.5,-60 -14,-33.5 -17,-22 -17,-6 -34,3.5 -17,-7 -41.5,-17.5 -58,-14 -52.5,-6.5 -67.5831,15.5526 -89.3004,26.4474 -25.6165,9.5 -57.5,2 -32,-5 -18,3.5 -23,12 -20.5,16 -15.515,18.8166 L 2603,4944 l -14.5,29.5 -1,18.5 2.5,33 -1,23.5 -3.5,12.5 -16.5,12.5 -64,28.5 -58,-3.5 -30,-10.5 -45,-11 -45.5,-22.4591 -24,-0.5409 -129.5,-8 -29,-4.5 -21.5,-16 -123.5,-124 -24,-11.5 -92,-15 -16,-6.5 -20.5,-17 -96,-99.5 -28.5,-19 -28,-8.5 -28,-2 -75,9.5 -17,10.5 -26.5,18.5 -29,11 -69.5,1 -11.5,4 -76.5,36 -17,19.5 -20.5,27 -21,11 -86,23.5 -41.5,4 -20.5,10.5 -107,79.5 -47,56 -37.5,22.5 -15,14.5 -11.5,22 -21,80 -16.5,26.5 -15.5,15.5 -37.5,20 -16,12 -17.5,20 -34.5,93.5 -25,41 -18,27 -18.5,16.5 -21.5,12 -26.5,5.5 -59,-2.5 -30.5,-13.5 -118.5,-56.5 -25,-3.5 -59,2 -30,-6 -69.5,-23.5 -33.5,-7 -76.5,-8.5 -44.5,2"
     id="path841" />
</svg>
