<?xml version="1.0" encoding="UTF-8" standalone="no"?>
<svg
   xmlns:dc="http://purl.org/dc/elements/1.1/"
   xmlns:cc="http://creativecommons.org/ns#"
   xmlns:rdf="http://www.w3.org/1999/02/22-rdf-syntax-ns#"
   xmlns:svg="http://www.w3.org/2000/svg"
   xmlns="http://www.w3.org/2000/svg"
   xmlns:xlink="http://www.w3.org/1999/xlink"
   version="1.1"
   id="svg2"
   width="3700"
   height="3850"
   viewBox="0 0 3700 3850">
  <metadata
     id="metadata8">
    <rdf:RDF>
      <cc:Work
         rdf:about="">
        <dc:format>image/svg+xml</dc:format>
        <dc:type
           rdf:resource="http://purl.org/dc/dcmitype/StillImage" />
        <dc:title></dc:title>
      </cc:Work>
    </rdf:RDF>
  </metadata>
  <defs
     id="defs6" />
  <image
     style="display:none"
     width="5650.6"
     height="6245.4"
     preserveAspectRatio="none"
     xlink:href="../basemap/csxosm.png"
     id="image10"
     x="-792.2"
     y="-858.4" />
  <path
     style="opacity:1;fill:none;fill-opacity:0;fill-rule:nonzero;stroke:#44a3cd;stroke-width:5;stroke-linecap:butt;stroke-linejoin:round;stroke-miterlimit:4;stroke-dasharray:none;stroke-opacity:1"
     d="m 134.52,1803.13 22.44,-30.49 35.09,-18.98 50.62,-15.53 40.27,-16.11 67.31,-62.7 35.67,-24.16 28.19,-7.48 80.54,-10.93 9.78,-11.51 -17.83,-105.28 3.45,-13.23 20.71,-10.35 93.19,-10.36 119.66,-2.3 28.19,10.36 69.61,54.65 24.16,10.36 18.41,2.88 78.81,1.73 115.63,56.38 18.98,21.29 21.86,21.29 17.26,6.33 198.47,7.48 123.11,2.3 106.43,6.9 216.3,5.18 134.61,12.08 47.17,25.31 33.37,3.45 266.93,8.05 12.08,8.63 5.18,14.96 -5.12,213.14 3.65,12.54 10.34,11.12 15.43,6.21 19.4,3.53 12.84,10.99 11.57,14.93 6.47,21.09 0.88,51.22 1.05,181.04 3.03,44.92 5.48,22.31 11.51,20.6 38.33,30.41 42.91,17.53 24.16,6.9 27.04,2.3 405.57,-26.12"
     id="path836" />
  <text
     x="89.45"
     y="206.96"
     id="text2992"
     xml:space="preserve"
     style="font-style:normal;font-weight:normal;font-size:144px;line-height:125%;font-family:Sans;-inkscape-font-specification:Sans;letter-spacing:0px;word-spacing:0px;fill:#000000;fill-opacity:1;stroke:none"><tspan
       x="89.45"
       y="206.96"
       id="tspan1">2015</tspan></text>
  <path
     style="opacity:1;fill:none;stroke:#000000;stroke-width:5;stroke-linejoin:round"
     d="m 884.34,1774.99 138.42,-96.86"
     id="path1" />

<text
     style="font-style:normal;font-weight:normal;font-size:144px;font-family:Sans;-inkscape-font-specification:Sans;fill:#000000;fill-opacity:1;stroke:none"
     xml:space="preserve"
     id="text3639"
     y="5222.96"
     x="89.45"><tspan
       id="tspan2"
       y="5222.96"
       x="89.45"></tspan></text></svg>
