<svg xmlns="http://www.w3.org/2000/svg" viewBox="0 0 1650 1600" height="1600" width="1650"><path d="M295.307 739.581l-.096-44.583 2.78-8.821 7.767-10.26 26.846-30.01 5.128-7.286" fill="none" stroke="#fabb00" stroke-width="5" stroke-linejoin="round"/><path d="M333.656 635.822l-4.543 6.442-27.523 31.283-8.009 10.04-3.164 10.068.096 45.926" fill="none" stroke="#005187" stroke-width="5" stroke-linejoin="round"/><path d="M51.525 189.22l21.695 32 9.492 14.102 18.983 18.983 4.881 7.864 4.61 30.916-.27 16.813-2.984 23.051.543 17.898 2.711 13.56 14.102 22.78 15.729 11.66 59.39 48.814 8.135 4.61 14.373 2.44 7.322 5.696 4.34 7.864 6.73 16.46 1.132 7.532 9.206 30.23 10.098 8.503 32.494 35.173 13.623 10.195 15.801 13.208 23.593 12.258 2.44 3.12.543 3.66v12.34l-2 3.287-10.339 11.492-1.491 4.61" fill="none" stroke="#fabb00" stroke-linejoin="round"/><path d="M68.475 426.78l10.17-.407 44.745-21.288 9.356-2.305 3.262-3.965 3.35-.144 60.293 49.668 8.572 4.92 14.494 2.4 6.892 5.416 4.037 7.63 6.698 16.307 1.076 7.147 9.429 30.912 10.067 8.441 32.747 35.364 13.456 10.141 15.96 13.358 23.65 12.226 2.064 2.855.635 3.743-.14 11.58-1.763 2.882-10.203 11.186-4.983 1.56" fill="none" stroke="#005187" stroke-linejoin="round"/><path d="M294.102 738.102l2.983 3.66 29.423 1.357 11.526-1.356 58.576-22.916 6.509-8 5.152-4.067 17.22-.814 4.204-1.627 8.135-.136 9.356-4.745 16.136-3.797 7.738-.435 4.334-2.244 5.729-.096 13.114 4.794 16.208-.24 3.453-1.237 7.322-7.864 9.085-5.83 10.44-5.289 10.306-5.152 6.237-.678 12.746-.542 10.305 1.627 48.407 9.627 13.966.407 3.932-1.899 1.356-2.576 1.763-9.763 2.17-2.576 24-6.644 33.49.542 4.475-.27 9.627-6.374 3.39-3.118 11.797-31.594 7.05-5.017 19.526-52.88 2.848-2.17 32.27-5.424" fill="none" stroke="#fabb00" stroke-linejoin="round"/><path d="M290.267 738.437l6.482 4.285 30.095 1.403 11.478-1.451 58.96-23.107 6.556-8 4.865-3.924 17.172-.718 4.155-1.675 8.088-.088 9.404-4.745 16.04-3.797 11.924-.63" fill="none" stroke="#005187" stroke-linejoin="round"/><path d="M475.486 695.99l5.15-.122 13.194 4.539h16.407l2.441 3.39 1.763 8.406-7.051 14.644-1.899 34.577-2.711 35.525-.543 11.797" fill="none" stroke="#005187" stroke-width="5" stroke-linejoin="round"/><path d="M475.621 700.871l4.108-.125 13.22 4.474 8.204-.067 6.78-.272 1.694 6.17-7.119 14.78-2.033 35.525-2.712 35.864-.475 11.322" fill="none" stroke="#88146a" stroke-width="5" stroke-linejoin="round"/><path d="M800.407 552.746l14.237-3.661 10.034-4.34 6.237-8.677 22.78-43.39 16.813-23.322 16-11.932 28.204-10.848 17.085-11.39 11.66-16.813 16.814-59.39 21.153-32.542 29.83-38.78 8.136-26.576 1.356-27.661-8.136-44.204-2.44-4.61" fill="none" stroke="#fabb00" stroke-width="5" stroke-linejoin="round"/><path d="M1010.17 184.61l-23.323-48.542-4.067-1.356-5.695 1.356-38.238 43.118" fill="none" stroke="#fabb00" stroke-linejoin="round"/><path d="M477.19 700.376l-6.018-3.162-7.509.355-15.824 3.795-9.521 4.8-8.426.102" fill="none" stroke="#88146a" stroke-linejoin="round"/><path d="M502.237 808.746l-1.356 5.83 2.983 17.356 1.628 39.322 2.44 4.61 9.492 5.967 16 18.711 4.068 3.255 11.864 1.898 12.339 6.373 5.356 6.915 1.085 7.865-1.628 8.135-11.525 12.407-3.322 8.474.475 10.306 5.966 7.864 8.135 4.881 17.627 4.34L609.356 996l8.135 2.712 13.085-1.22 11.932-5.085 10.983-10.237 13.153-23.661 4.814-3.933 8.339-3.457 10.305 2.034 7.322 4.135 7.05.882 9.831-8h3.797l78.101 83.254 5.153 9.22 2.17 21.695 37.423 111.458 1.21 27.118-6.683 48.925-11.612 19.685 13.695 19.255 39.458 18.712 13.83 3.254 61.017 27.932 40.678 6.509 26.577 11.66 8.949 2.441 10.034-.542 64.542-15.187 20.339 2.17 18.44 1.085 11.12-1.899 9.49-10.305 9.764-5.152 55.593-27.933 13.83-.813 7.593 4.068 5.153 7.322 8.407 8.678 16.271 9.22 21.424 5.966h16l64.813-18.44 10.848-.272 21.423 7.865 15.458-1.356 19.797 4.61 23.593 2.17 5.966 2.711 5.424 9.763h5.152l21.966-2.17 6.509 2.984 4.881 3.525 8.678-2.44 21.153-20.068 7.593.813 6.237 11.661 3.797 13.017-.271 10.576-3.797 29.56 2.44 20.61 8.679 45.017 2.712 27.118v17.356l-2.983 16.543-2.441 19.525" fill="none" stroke="#005187" stroke-linejoin="round"/><path d="M823.864 1271.525l-7.254 10.577 1.017 3.525 5.966 1.492 13.966 3.66" fill="none" stroke="#005187" stroke-linejoin="round"/><path d="M497.288 808.542l2.635 6.13 2.983 17.644 1.627 39.13 2.728 5.185 9.396 5.87 16.287 18.904 4.209 3.205 11.66 1.966 12.272 6.373 5.084 6.509.882 7.39-1.492 7.796-11.457 12.203-3.458 9.017.542 10.712 6.305 8.271 8.475 5.085 17.56 4.271 25.423 12.678 8.542 2.848 13.424-1.288 12.068-5.085 11.322-10.576 13.22-23.73 4.34-3.592 8.135-3.322 9.898 1.966 7.322 4.067 7.73.882 9.694-8 2.983-.068 77.522 82.824 5.344 9.316 2.074 21.791 37.423 111.074 1.211 26.927-6.684 48.685-11.398 19.45-12.272 17.357-16.97 23.475-10.93 8.054-9.204 3.643-4.22-1.534-10.546-5.56-41.228 1.342-10.355 2.3h-6.711" fill="none" stroke="#88146a" stroke-linejoin="round"/><text x="89.453" y="206.961" style="line-height:125%;-inkscape-font-specification:Sans" font-weight="400" font-size="144" font-family="Sans" letter-spacing="0" word-spacing="0"><tspan x="89.453" y="206.961">2010</tspan></text></svg>