<?xml version="1.0" encoding="UTF-8" standalone="no"?>
<svg
   xmlns:dc="http://purl.org/dc/elements/1.1/"
   xmlns:cc="http://creativecommons.org/ns#"
   xmlns:rdf="http://www.w3.org/1999/02/22-rdf-syntax-ns#"
   xmlns:svg="http://www.w3.org/2000/svg"
   xmlns="http://www.w3.org/2000/svg"
   xmlns:xlink="http://www.w3.org/1999/xlink"
   version="1.1"
   id="svg2"
   width="1800"
   height="1700"
   viewBox="0 0 1800 1700">
  <metadata
     id="metadata8">
    <rdf:RDF>
      <cc:Work
         rdf:about="">
        <dc:format>image/svg+xml</dc:format>
        <dc:type
           rdf:resource="http://purl.org/dc/dcmitype/StillImage" />
        <dc:title></dc:title>
      </cc:Work>
    </rdf:RDF>
  </metadata>
  <defs
     id="defs6" />
  <image
     xlink:href="../streetmap/pozosm.png"
     style="display:none"
     y="28"
     x="75"
     id="image10"
     preserveAspectRatio="none"
     height="1647"
     width="1647" />
  <path
     style="opacity:1;fill:none;fill-opacity:1;fill-rule:nonzero;stroke:#00a0d8;stroke-width:1;stroke-linecap:butt;stroke-linejoin:round;stroke-miterlimit:4;stroke-dasharray:none;stroke-opacity:1"
     d="m 790.64,1080.36 -4.41,3.45 -27.42,27.8 -8.82,10.93 -67.88,102.02 -16.11,23.39 -34.13,52.16 -19.56,25.7 -14.77,15.53 -25.7,21.48 -28.57,23.78"
     id="path840" />
  <path
     style="opacity:1;fill:none;fill-opacity:1;fill-rule:nonzero;stroke:#00a0d8;stroke-width:1;stroke-linecap:butt;stroke-linejoin:round;stroke-miterlimit:4;stroke-dasharray:none;stroke-opacity:1"
     d="m 790.64,1080.36 17.26,-15.15 10.93,-12.46 3.45,-10.55 1.6,-3.95"
     id="path5250" />
  <path
     style="opacity:1;fill:none;fill-opacity:1;fill-rule:nonzero;stroke:#00a0d8;stroke-width:1;stroke-linecap:butt;stroke-linejoin:round;stroke-miterlimit:4;stroke-dasharray:none;stroke-opacity:1"
     d="m 1124.05,1401.71 -3.97,17.29 -7.48,15.72 -48.32,72.29 -32.79,51.97 -6.52,9.2 -6.14,11.89"
     id="path842" />
  <path
     style="opacity:1;fill:none;fill-opacity:1;fill-rule:nonzero;stroke:#00a0d8;stroke-width:1;stroke-linecap:butt;stroke-linejoin:round;stroke-miterlimit:4;stroke-dasharray:none;stroke-opacity:1"
     d="m 614.66,1055.61 -16.81,10.3 -110.64,48.54 -122.03,52.07 -24.68,33.08 -14.37,14.92 -22.24,20.07 -20.61,16.81 -17.08,11.12 -22.24,11.66 -9.49,-1.08"
     id="path844" />
  <path
     style="opacity:1;fill:none;fill-opacity:1;fill-rule:nonzero;stroke:#00a0d8;stroke-width:1;stroke-linecap:butt;stroke-linejoin:round;stroke-miterlimit:4;stroke-dasharray:none;stroke-opacity:1"
     d="m 823.88,1038.25 8.95,-39.05 1.76,-5.97 2.44,-8.14 0.91,-7.27"
     id="path860" />
  <text
     style="font-style:normal;font-weight:normal;font-size:144px;line-height:125%;font-family:Sans;-inkscape-font-specification:Sans;letter-spacing:0px;word-spacing:0px;fill:#000000;fill-opacity:1;stroke:none"
     xml:space="preserve"
     id="text2995"
     y="206.96"
     x="89.45"><tspan
       id="tspan1"
       y="206.96"
       x="89.45">1995</tspan></text>
  <path
     style="opacity:1;fill:none;fill-opacity:1;fill-rule:nonzero;stroke:#00a0d8;stroke-width:1;stroke-linecap:butt;stroke-linejoin:round;stroke-miterlimit:4;stroke-dasharray:none;stroke-opacity:1"
     d="m 922.55,968.06 -4.03,16.11 0.96,2.3 50.05,13.04 11.7,2.88 4.22,-1.53 4.37,-12.77"
     id="path5186" />
  <path
     id="path7201"
     d="m 926.07,968.87 63.39,6.67 2.3,2.01 -1.95,10.53 23.82,17.35 13.25,4.45 25.87,15.16 6.66,1.7 23.3,1.78 9.84,5.24 12.51,14.16 18.41,6.33 92.96,52.47 70.51,24.95 16,8.68"
     style="opacity:1;fill:none;fill-opacity:1;fill-rule:nonzero;stroke:#00a0d8;stroke-width:1;stroke-linecap:butt;stroke-linejoin:round;stroke-miterlimit:4;stroke-dasharray:none;stroke-opacity:1" />
  <path
     id="path846-7"
     d="m 848.69,933.17 58.71,20.2 14.64,10.17"
     style="opacity:1;fill:none;fill-opacity:1;fill-rule:nonzero;stroke:#00a0d8;stroke-width:1;stroke-linecap:butt;stroke-linejoin:round;stroke-miterlimit:4;stroke-dasharray:none;stroke-opacity:1" />
  <path
     id="path843"
     d="m 837.95,977.83 3.31,-1.92 52.74,6.08 25.49,4.48"
     style="fill:none;stroke:#00a0d8;stroke-linejoin:round" />
  <path
     id="path852"
     d="m 1406.53,1319.2 23.05,-11.39 10.03,-10.85 16.54,-27.39 2.12,-11.42 -7.41,-7.52 -16.68,-20.33 -16.11,-10.74 -26.08,-8.25 -11.31,-4.79 -15.53,-8.44 -30.49,-24.93 -18.41,-20.52 -13.32,-12.3"
     style="opacity:1;fill:none;fill-opacity:1;fill-rule:nonzero;stroke:#00a0d8;stroke-width:5;stroke-linecap:butt;stroke-linejoin:round;stroke-miterlimit:4;stroke-dasharray:none;stroke-opacity:1" />
  <path
     id="path854"
     d="m 1406.53,1319.2 -18.17,11.39 -15.46,13.02 -7.32,15.19 -19.53,26.03 -18.44,16.54 -14.64,8.95 -16.54,6.78 -18.71,6.24 -9.76,4.34 -8.41,6.78 -13.83,18.44 -4.07,1.9 h -5.97 l -18.17,-7.05 -72.41,-39.05 -48.27,-22.51 -24.14,-9.22 -77.56,-17.08 -117.69,-23.32 -13.29,-6.51 -20.88,-15.19 -11.93,-5.42 -11.93,-2.44 -22.24,0.27 -18.98,-2.71 -24.68,-9.22 -79.73,-45.29 -79.19,-46.1 -1.9,-4.61 12.75,-40.14 16,-64.27 -2.98,-37.15 -3.8,-2.17"
     style="opacity:1;fill:none;fill-opacity:1;fill-rule:nonzero;stroke:#00a0d8;stroke-width:1;stroke-linecap:butt;stroke-linejoin:round;stroke-miterlimit:4;stroke-dasharray:none;stroke-opacity:1" />
  <path
     style="opacity:1;fill:none;fill-opacity:1;fill-rule:nonzero;stroke:#00a0d8;stroke-width:1;stroke-linecap:butt;stroke-linejoin:round;stroke-miterlimit:4;stroke-dasharray:none;stroke-opacity:1"
     d="m 922.05,963.54 3.25,1.49 16.41,-15.19 11.12,-6.24 40.81,-6.92 11.93,4.88 3.66,-1.49 4.2,-14.37 4.75,-2.71 9.49,3.12 10.03,-1.08 11.93,-2.71 11.12,2.31 15.59,4.88 10.71,-1.9 13.69,2.85 6.37,3.8 13.83,7.19 7.86,2.03 13.02,-0.81 39.86,-5.56 32.27,-6.1 9.36,1.36 18.71,5.56 6.92,1.22 2.44,3.93 -10.03,19.53 -12.07,28.07 -2.58,12.2 -1.08,12.88 3.39,16.41 2.58,12.34 0.27,10.44 -3.12,12.2 -14.51,31.73 -1.08,4.2 3.25,3.66"
     id="path846-3" />
  <path
     id="path4034"
     d="m 1251.41,943.07 14.09,-25.96 0.37,-7.98 -4.16,-10.89 6.97,-10.46"
     style="fill:none;stroke:#00a0d8;stroke-linejoin:round" />
  <path
     style="fill:none;stroke:#00a0d8;stroke-width:1;stroke-linejoin:round;stroke-miterlimit:4;stroke-dasharray:none"
     d="m 1124.05,1401.71 2.98,-1.36"
     id="path1589" />
  <path
     style="opacity:1;fill:none;fill-opacity:1;fill-rule:nonzero;stroke:#00a0d8;stroke-width:1;stroke-linecap:butt;stroke-linejoin:round;stroke-miterlimit:4;stroke-dasharray:none;stroke-opacity:1"
     d="m 848.69,933.17 -4.61,-1.49 -204.47,-74.71 -77.15,-27.53 -5.02,2.03 -1.9,5.02 1.36,3.25 10.85,5.56 3.12,-1.22 4.61,-6.78 5.42,-1.49"
     id="path862" />
  <path
     id="path7133"
     d="m 926.07,968.87 -3.53,-0.81"
     style="fill:none;stroke:#00a0d8;stroke-linejoin:round" />
  <path
     style="fill:none;stroke:#00a0d8;stroke-linejoin:round"
     d="m 918.52,984.17 -1.99,1.79"
     id="path7203" />
</svg>
