<svg xmlns="http://www.w3.org/2000/svg" width="1800" height="1700"><path style="opacity:1;fill:none;fill-opacity:1;fill-rule:nonzero;stroke:#00a0d8;stroke-width:5;stroke-linecap:butt;stroke-linejoin:round;stroke-miterlimit:4;stroke-dasharray:none;stroke-opacity:1" d="m854.5 911.23 8.44-8.82 2.3-8.05v-12.08l-3.64-8.44-4.99-10.55-.77-5.56 3.07-9.2 11.31-12.27 3.26-5.94 25.89-102.02 1.92-20.9 2.11-71.14-1.73-37.78 5.18-22.44 4.6-59.83-3.07-61.36-4.22-138.83-1.92-32.22-6.33-23.39-10.35-34.9-3.84-21.48-.77-19.56v-32.6l1.73-41.99"/><path style="opacity:1;fill:none;fill-opacity:1;fill-rule:nonzero;stroke:#00a0d8;stroke-width:1;stroke-linecap:butt;stroke-linejoin:round;stroke-miterlimit:4;stroke-dasharray:none;stroke-opacity:1" d="m790.64 1080.36-4.41 3.45-27.42 27.8-8.82 10.93-67.88 102.02-16.11 23.39-34.13 52.16-19.56 25.7-14.77 15.53-25.7 21.48-28.57 23.78M790.64 1080.36l17.26-15.15 10.93-12.46 3.45-10.55 1.6-3.95M824.96 1040.47l39.12 7.86 54.84 19.56 14.77 5.18 17.26.7.29 3.45 107.19 19.75 28.57 9.97 96.07 38.93 2.11 4.22-26.65 71.33-6.71 26.46-19.37 65.77-7.09 23.59-5.37 37.58-6.9 30.87-7.48 15.72-48.32 72.29-32.79 51.97-6.52 9.2-6.14 11.89M854.5 911.23l-3.36 6.08-10.58 41.49-1.9 13.02-1.63 13.29-2.44 8.14-5.15 1.36-31.46-4.07-35.25 4.34-20.07 6.51-104.41 47.46-21.15 5.42-19.25 11.66-110.64 48.54-122.03 52.07-24.68 33.08-14.37 14.92-22.24 20.07-20.61 16.81-17.08 11.12-22.24 11.66-9.49-1.08"/><path style="opacity:1;fill:none;fill-opacity:1;fill-rule:nonzero;stroke:#00a0d8;stroke-width:1;stroke-linecap:butt;stroke-linejoin:round;stroke-miterlimit:4;stroke-dasharray:none;stroke-opacity:1" d="m824.96 1040.47-1.08-2.22 8.95-39.05 1.76-5.97"/><text style="font-style:normal;font-weight:400;font-size:144px;line-height:125%;font-family:Sans;-inkscape-font-specification:Sans;letter-spacing:0;word-spacing:0;fill:#000;fill-opacity:1;stroke:none" xml:space="preserve" y="206.96" x="89.45"><tspan y="206.96" x="89.45">2000</tspan></text><path style="opacity:1;fill:none;fill-opacity:1;fill-rule:nonzero;stroke:#00a0d8;stroke-width:1;stroke-linecap:butt;stroke-linejoin:round;stroke-miterlimit:4;stroke-dasharray:none;stroke-opacity:1" d="m922.05 963.54.54.52-4.03 16.11.962.3 50.05 13.04 11.7 2.88 4.22-1.53 4.37-12.77"/><path style="opacity:1;fill:none;fill-opacity:1;fill-rule:nonzero;stroke:#00a0d8;stroke-width:1;stroke-linecap:butt;stroke-linejoin:round;stroke-miterlimit:4;stroke-dasharray:none;stroke-opacity:1" d="m847.61 930.46 1.08 2.71 58.71 20.2 14.64 10.17 4.02 5.33 63.39 6.67 2.3 2.01-1.95 10.53 23.82 17.35 13.25 4.45 25.87 15.16 6.66 1.7 23.3 1.78 9.84 5.24 12.51 14.16 18.41 6.33 92.96 52.47 70.51 24.95.8.68"/><path d="m837.95 977.83 3.31-1.92 52.74 6.08 25.49 4.48" style="fill:none;stroke:#00a0d8;stroke-linejoin:round"/><path d="m1406.53 1319.2 23.05-11.39 10.03-10.85 16.54-27.39 2.12-11.42-7.41-7.52-16.68-20.33-16.11-10.74-26.08-8.25-11.31-4.79-15.53-8.44-30.49-24.93-18.41-20.52-13.32-12.3" style="opacity:1;fill:none;fill-opacity:1;fill-rule:nonzero;stroke:#00a0d8;stroke-width:5;stroke-linecap:butt;stroke-linejoin:round;stroke-miterlimit:4;stroke-dasharray:none;stroke-opacity:1"/><path d="m1406.53 1319.2-18.17 11.39-15.46 13.02-7.32 15.19-19.53 26.03-18.44 16.54-14.64 8.95-16.54 6.78-18.71 6.24-9.76 4.34-8.41 6.78-13.83 18.44-4.07 1.9h-5.97l-18.17-7.05-72.41-39.05-48.27-22.51-24.14-9.22-77.56-17.08-117.69-23.32-13.29-6.51-20.88-15.19-11.93-5.42-11.93-2.44-22.24.27-18.98-2.71-24.68-9.22-79.73-45.29-79.19-46.1-1.9-4.61 12.75-40.14 16-64.27-2.98-37.15-3.8-2.17M922.05 963.54l3.25 1.49 16.41-15.19 11.12-6.24 40.81-6.92 11.93 4.88 3.66-1.49 4.2-14.37 4.75-2.71 9.49 3.12 10.03-1.08 11.93-2.71 11.12 2.31 15.59 4.88 10.71-1.9 13.69 2.85 6.37 3.8 13.83 7.19 7.86 2.03 13.02-0.81.86-5.56 32.27-6.1 9.36 1.36 18.71 5.56 6.92 1.22 2.44 3.93-10.03 19.53-12.07 28.07-2.58 12.2-1.08 12.88 3.39 16.41 2.58 12.34.2710.44-3.12 12.2-14.51 31.73-1.08 4.2 3.25 3.66" style="opacity:1;fill:none;fill-opacity:1;fill-rule:nonzero;stroke:#00a0d8;stroke-width:1;stroke-linecap:butt;stroke-linejoin:round;stroke-miterlimit:4;stroke-dasharray:none;stroke-opacity:1"/><path d="m1251.41 943.07 14.09-25.96.37-7.98-4.16-10.89 6.97-10.46" style="fill:none;stroke:#00a0d8;stroke-linejoin:round"/><path style="fill:none;stroke:#00a0d8;stroke-width:1;stroke-linejoin:round;stroke-miterlimit:4;stroke-dasharray:none" d="m1124.05 1401.71 2.98-1.36"/><path style="opacity:1;fill:none;fill-opacity:1;fill-rule:nonzero;stroke:#00a0d8;stroke-width:1;stroke-linecap:butt;stroke-linejoin:round;stroke-miterlimit:4;stroke-dasharray:none;stroke-opacity:1" d="m848.69 933.17-4.61-1.49-204.47-74.71-77.15-27.53-5.02 2.03-1.9 5.02 1.36 3.25 10.85 5.56 3.12-1.22 4.61-6.78 5.42-1.49"/><path style="fill:none;stroke:#00a0d8;stroke-linejoin:round" d="m926.07 968.87-3.53-.81M918.52 984.17l-1.99 1.79"/></svg>