<?xml version="1.0" encoding="UTF-8" standalone="no"?>
<svg
   xmlns:dc="http://purl.org/dc/elements/1.1/"
   xmlns:cc="http://creativecommons.org/ns#"
   xmlns:rdf="http://www.w3.org/1999/02/22-rdf-syntax-ns#"
   xmlns:svg="http://www.w3.org/2000/svg"
   xmlns="http://www.w3.org/2000/svg"
   xmlns:xlink="http://www.w3.org/1999/xlink"
   version="1.1"
   width="6400"
   height="6150"
   viewBox="0, 0, 6400, 6150"
   id="svg2">
  <metadata
     id="metadata8">
    <rdf:RDF>
      <cc:Work
         rdf:about="">
        <dc:format>image/svg+xml</dc:format>
        <dc:type
           rdf:resource="http://purl.org/dc/dcmitype/StillImage" />
        <dc:title></dc:title>
      </cc:Work>
    </rdf:RDF>
  </metadata>
  <defs
     id="defs6" />
  <image
     xlink:href="../basemap/dalosm.png"
     x="100"
     y="0.0"
     width="4256"
     height="5674.67"
     id="image10"
     style="display:none" />
  <path
     d="m 4533.5,157.67 v 87.5 l -4,344.5 -4,15 -56,149.5 -54.5,139 -71,187 -121,229 -112.5,209.5 -60,108 -74,143.5 -92,170 -26,29.5 -36,45 -43.5,61.5 -18,17 -21,21.5 -9.5,19 -15.5,30 -21.5,75.5 -3,16.5 -0.5,12.5 6.5,31.5 8.5,32 1.5,14.5 -2,246.5 -3.5,20 -39.0,215.0 -20.5,101.0 -11.5,63.5 -22,69 -2.5,40 -0.5,39.5 -11.5,36.5 -41,37 -20,29 -30,52 -71.5,137.5 -89.5,202.5 -6.5,35 1,53.5 8.8,191.92 -2.08,4.0 -13.97,15.75 -1.79,6.02 1.29,4.45 11.01,10.82 -0.03,5.79 -23.5,24.75"
     id="path2987"
     style="fill:none;stroke:#ee3a43;stroke-width:5;stroke-linecap:butt;stroke-linejoin:round;stroke-miterlimit:4;stroke-dasharray:none;stroke-opacity:1" />
  <path
     d="m 3139,4077.42 -10.25,5.25 -3.5,7.75 1,8.75 12.75,22.5 10,39 8,15 15,15 21.5,12.5 16.5,-2 22.5,-7 17,4 51,35.5 96,65 33,22 7.5,21 -1,13 -31.5,46.5 -29.5,68.5 -18.5,36 -29.5,34.5 -35,23.5 -67.5,38.5 -7,8.5 3,21.5 -0.5,59 -11.5,90.5 -27.5,196.5 4,18 9,24.5 -0.5,16 0,13"
     id="path3769"
     style="fill:none;stroke:#0093d0;stroke-width:5;stroke-linecap:butt;stroke-linejoin:round;stroke-miterlimit:4;stroke-opacity:1;stroke-dasharray:none" />
  <path
     d="m 3194,5047.17 v 74.5 l 3.5,13.5 123.5,217 7.5,18.5 51,142 13.68,32.92 4.32,26.58"
     id="path3771"
     style="fill:none;stroke:#0093d0;stroke-width:1px;stroke-linecap:butt;stroke-linejoin:round;stroke-opacity:1" />
  <path
     d="m 3137.25,4073.17 -10.75,6 -5,7.25 0.25,13.75 12.75,22.25 9.75,38.25 9,18 14.75,15 24.25,13.75 20.75,-2 19.75,-6.25 14.25,3 178.5,121 6.5,18.5 -0.75,11.75 -30.75,45.25 -31.5,73 -16,30 -28,33.5 -39,27 -77,42.5 -87.5,51.5 -36.5,29 -111.5,111 -15.5,10 -18.5,3.5 -23,-5 -43,-3 -28,-15 -16.5,-1.5 -135,33.5 -13.5,7.5 -83.5,46 -31.5,15 -82.5,56 -177,75"
     id="path3773"
     style="fill:none;stroke:#ee3a43;stroke-width:5;stroke-linecap:butt;stroke-linejoin:round;stroke-miterlimit:4;stroke-opacity:1;stroke-dasharray:none" />
  <text
     x="89.45"
     y="6047.96"
     id="text2993"
     xml:space="preserve"
     style="font-size:144px;font-style:normal;font-weight:normal;line-height:125%;letter-spacing:0px;word-spacing:0px;fill:#000000;fill-opacity:1;stroke:none;font-family:Sans;-inkscape-font-specification:Sans"><tspan
       x="89.45"
       y="6047.96"
       id="tspan2"></tspan></text>
  <text
     x="89.45"
     y="206.96"
     id="text2997"
     xml:space="preserve"
     style="font-size:144.0px;font-style:normal;font-weight:normal;line-height:125%;letter-spacing:0px;word-spacing:0px;fill:#000000;fill-opacity:1;stroke:none;font-family:Sans;-inkscape-font-specification:Sans"><tspan
       x="89.45"
       y="206.96"
       id="tspan1">2005</tspan></text>
  <path
     d="m 3316.75,3985.67 -6.17,10.95 -55.28,53.95 -106.67,25.48 -11.88,-2.13"
     id="path3759"
     style="fill:none;stroke:#ee3a43;stroke-width:1px;stroke-linecap:butt;stroke-linejoin:round;stroke-opacity:1" />
  <path
     d="m 3320.75,3988.67 -8.85,8.17 -56.15,54.58 -107.03,25.73 -11.22,0.27"
     id="path3761"
     style="fill:none;stroke:#0093d0;stroke-width:1px;stroke-linecap:butt;stroke-linejoin:round;stroke-opacity:1" />
  <path
     d="m 3319.25,3990.67 24.25,-25.25 0.57,-6.13 -0.8,-4.43 -10.26,-10.71 -0.79,-3.23 1.28,-3.58 13.18,-14.78 3.17,-5.46 -8.61,-191.18 -1.74,-55.26 6.5,-34.75 99,-219.25 61.33,-118.86 29.7,-51.62 20.48,-28.76 40,-37.25 25,-10 371,-103 21,-10 94.5,-76.5 12,-18 2.5,-20 -3,-19.5 -16.5,-77 2,-54.5 5,-64.5 25.5,-60.5 10.5,-36 -0.5,-42 1.5,-21 9,-42.5 -1,-18 -13.5,-42 -1,-22 7,-22 14.5,-17.5 26,-14.5 18,-13 34.5,-34.5 19.5,-20 30,-15.5 91.5,-32.5 266.5,-100 179,-64.5 175,-62 20,-1.5 100,-5.5 158,-30.5 109.5,-21.5"
     id="path3757-6"
     style="fill:none;stroke:#0093d0;stroke-width:5;stroke-linecap:butt;stroke-linejoin:round;stroke-miterlimit:4;stroke-dasharray:none;stroke-opacity:1" />
</svg>
