<svg xmlns="http://www.w3.org/2000/svg" height="3450" width="3400"><path d="M122.729 2442.186l475.05 1.899 42.713-.475 176.542-43.66 9.017-5.696 173.22-167.05 5.22-8.068 4.746-45.085v-232.542l1.424-26.102 13.763-16.136 18.983-8.542 115.796-7.593 14.712-5.22 62.17-35.594 28.474-8.542 120.068 2.373 183.661 58.372 233.017 135.73 11.864 2.372h9.492l7.119-6.17 38.915-62.643 13.288-9.966 13.763-3.323 9.017 3.797 40.339 22.305 99.186 29.424 163.254 93.966 11.865 2.373 238.712-68.814 54.576-20.881 236.813-111.525 33.22-9.017 43.662-.475 82.576-22.305 195.051-91.119 64.068-7.118 130.508 15.186" fill="none" stroke="#b4371b" stroke-width="5" stroke-linejoin="round"/><text x="89.453133" y="206.96094" style="line-height:125%;-inkscape-font-specification:Sans" font-weight="400" font-size="143.99993896px" font-family="Sans" letter-spacing="0" word-spacing="0"><tspan x="89.453133" y="206.96094">2010</tspan></text><text x="89.453377" y="3347.9609" style="line-height:125%;-inkscape-font-specification:Sans" font-weight="400" font-size="143.99993896px" font-family="Sans" letter-spacing="0" word-spacing="0"/></svg>