<svg xmlns="http://www.w3.org/2000/svg" height="1450" width="1600"><path d="M1022.666 351.995l4.195-2.013 50.504-51.68 7.55-5.033 10.236-4.698 34.732-6.208 18.624-5.201 43.625-17.786 13.926-10.235 74.666-62.92 14.262-8.39 21.645-9.396 9.731-5.202 13.424-14.597 6.04-22.651" fill="none" stroke="#299549" stroke-width="5" stroke-linejoin="round"/><path d="M813.099 458.876l-138.09 51.343-14.973 6.173" style="line-height:normal;font-variant-ligatures:normal;font-variant-position:normal;font-variant-caps:normal;font-variant-numeric:normal;font-variant-alternates:normal;font-feature-settings:normal;text-indent:0;text-align:start;text-decoration-line:none;text-decoration-style:solid;text-decoration-color:#000;text-transform:none;text-orientation:mixed;shape-padding:0;isolation:auto;mix-blend-mode:normal" color="#000" font-weight="400" font-family="sans-serif" white-space="normal" overflow="visible" fill="none" stroke="#299549" stroke-width="5" stroke-linejoin="round"/><path d="M635.076 1327.515l-13.256-4.53-19.799-9.732-15.772-8.725-11.745-9.564-22.483-26.007-6.04-7.719-12.585-8.557-56.544-19.63-11.913-4.867-5.873-3.691-5.873-13.759-11.241-12.08-13.423-8.558-15.101-24.329-62.418-79.867-32.55-42.283.167-4.194.672-1.846 16.275-19.799 5.705-7.718 17.114-32.719 4.363-9.396 3.355-9.06 5.537-7.887 108.056-108.39 10.403-11.914 6.376-9.731 3.691-12.417 6.88-25.168 5.2-13.255 7.551-14.262 8.39-10.57 6.04-2.014 8.557 3.691 16.443 1.342 28.692 11.745 10.57 6.376 2.853.504 1.93-1.426 15.436-32.887 1.678-11.41 3.44-13.003 2.795-14.389-1.113-11.234-3.98-11.476-9.231-12.626.543-4.616 7.738-5.566 2.851-8.146 8.778-35.39-1.926-13.104-12.377-24.042-.117-7.467 15.86-22.691 20.601-14.336 7.332-10.59.814-3.259-1.9-7.331 4.208-35.435 4.259-26.092" fill="none" stroke="#009de0" stroke-linejoin="round"/><path d="M660.036 516.392l-4.973 7.207-20.476 14.347-15.743 22.416-.013 6.911 12.406 24.186 1.98 13.194-8.972 36.148-2.758 7.818-7.81 5.745-.383 3.91 9.108 12.314 4.026 11.631 1.103 11.808-2.774 14.518-3.356 13.003-1.762 11.158-15.52 33.306-.923 3.104.839 3.524 5.705 7.047 14.597 22.148 7.55 6.544 18.793 10.57 9.9 8.39 4.698 10.738 15.268 13.59 19.464 20.974 12.584 10.235 18.289 9.564 34.396 22.484 8.725 4.362 56.21 14.43 7.717-.671 16.276 3.691 3.188-1.006v-4.363l-2.014-1.845-13.758-3.02-2.35 1.342-.838 3.188-3.02 2.18M813.099 458.876l35.739-12.08 14.933-6.544 97.317-36.075 7.047-4.027 50.336-46.813 4.195-1.342" fill="none" stroke="#299549" stroke-linejoin="round"/><path d="M668.969 440.42l2.181-7.216 12.92-25.168 21.812-24.497 5.537-4.698 2.35-4.866 2.516-45.303-1.174-31.376 5.201-20.806-5.705-19.127v-3.356" fill="none" stroke="#009de0" stroke-linejoin="round"/><path d="M714.607 254.007l1.007-8.557 10.403-39.263 1.342-10.738 1.175-28.356-3.692-10.739" fill="none" stroke="#009de0" stroke-width="5" stroke-linejoin="round"/><text style="-inkscape-font-specification:Sans" y="206.96094" x="89.453125" font-weight="400" font-size="144px" font-family="Sans"><tspan y="206.96094" x="89.453125">1985</tspan></text></svg>