<?xml version="1.0" encoding="UTF-8" standalone="no"?>
<svg
   xmlns:dc="http://purl.org/dc/elements/1.1/"
   xmlns:cc="http://creativecommons.org/ns#"
   xmlns:rdf="http://www.w3.org/1999/02/22-rdf-syntax-ns#"
   xmlns:svg="http://www.w3.org/2000/svg"
   xmlns="http://www.w3.org/2000/svg"
   xmlns:xlink="http://www.w3.org/1999/xlink"
   id="svg2"
   version="1.1"
   width="2000"
   height="2000"
   viewBox="0 0 2000 2000">
  <metadata
     id="metadata8">
    <rdf:RDF>
      <cc:Work
         rdf:about="">
        <dc:format>image/svg+xml</dc:format>
        <dc:type
           rdf:resource="http://purl.org/dc/dcmitype/StillImage" />
        <dc:title></dc:title>
      </cc:Work>
    </rdf:RDF>
  </metadata>
  <defs
     id="defs6" />
  <image
     xlink:href="osm/nycglobe.png"
     width="2400"
     height="2000"
     preserveAspectRatio="none"
     id="image10"
     x="0"
     y="0" />
  <path
     id="path4162"
     d="M 814.53151,1924.6288 658.98423,1773.2662 647.48196,1658.2356 581.82317,1568.3977 350.81924,1538.9271 354.65333,1405.3586 214.22979,1210.9474 194.58008,917.66699 66.138054,717.55184 245.38177,490.34272 l 232.4417,75.1026 176.36815,-72.25061 30.19345,5.704 11.02302,-26.1433 -18.21193,-27.09399 184.03632,-168.26784 171.57552,-49.43462 531.5008,-42.30462 106.3959,94.59124 11.023,220.07913 -23.963,39.45264 -75.244,50.8606 47.9261,52.28663 6.7097,34.22397 -4.3134,2.852 -3.834,-32.79798 -61.3456,-48.00862 11.5023,-94.11591 1.4379,-163.03919 -25.8802,-70.82459 -37.8616,-12.83399 -461.0493,23.29131 -21.0875,-45.63196 -122.21166,135.46987 -68.05511,-5.22865 -13.41931,98.86923 -196.97637,164.94052 -239.15138,25.66797 -126.52496,78.42993 27.79715,228.63512 -20.60824,247.17309 177.80593,234.3392 250.65364,180.1511 -20.60823,136.4205 102.08265,-11.8833 42.25025,102.6707 z"
     style="fill:#000080;fill-opacity:0.37647059;fill-rule:evenodd;stroke:none;stroke-width:1px;stroke-linecap:butt;stroke-linejoin:miter;stroke-opacity:1" />
  <path
     style="fill:#800080;fill-opacity:0.37647059;fill-rule:evenodd;stroke:none;stroke-width:1px;stroke-linecap:butt;stroke-linejoin:miter;stroke-opacity:1"
     d="m 1628.5297,682.85255 -2.3962,-32.79798 -102.562,-29.47064 -9.5851,-157.81051 -27.7972,-59.89195 -23.9631,-73.20126 -119.3361,-0.95067 -322.5428,24.24197 -57.03206,128.33989 -37.86165,18.06265 -62.78323,-2.852 -105.91674,198.68914 -177.80591,-15.21064 -132.27612,60.36728 -6.23039,26.1433 16.29488,167.79251 55.5943,94.11596 -51.28095,144.5011 -1.43779,102.672 116.93975,85.5599 189.3082,163.0391 -20.43337,64.5777 47.53171,152.5373 -7.44862,7.7175 -102.08265,11.8833 20.60823,-136.4205 -250.65364,-180.1511 -177.80593,-234.3392 20.60824,-247.17309 -27.79715,-228.63512 126.52496,-78.42993 239.15138,-25.66797 196.97637,-164.94052 13.41931,-98.86923 68.05511,5.22865 122.21166,-135.46987 21.0875,45.63196 461.0493,-23.29131 37.8616,12.83399 25.8802,70.82459 -1.4379,163.03919 -11.5023,94.11591 61.3456,48.00862 3.834,32.79798 z"
     id="path4773" />
  <path
     id="path4158"
     d="m 765.85949,1524.1917 -189.3082,-163.0391 -116.93975,-85.5599 1.43779,-102.672 51.28095,-144.5011 -55.5943,-94.11596 -16.29488,-167.79251 6.23039,-26.1433 132.27612,-60.36728 177.80591,15.21064 105.91674,-198.68914 62.78323,2.852 37.86165,-18.06265 57.03206,-128.33989 322.5428,-24.24197 119.3361,0.95067 23.9631,73.20126 27.7972,59.89195 9.5851,157.81051 102.562,29.47064 2.3962,32.79798 -99.207,1.426 -20.129,-49.43463 -4.3134,-177.29917 -161.0317,-17.11198 -184.5156,43.73062 -73.8063,59.89195 -106.39595,106.47457 -78.59885,-14.73532 -34.98607,48.95929 0.47927,59.89194 -134.19316,44.6813 -24.92159,-37.07598 -31.63123,43.2553 -147.61248,128.33987 102.56192,134.99459 -1.43779,150.6805 162.94883,73.6766 60.38692,33.2733 -2.39631,42.3045 268.38629,-80.8065 -21.8851,39.7308 z"
     style="fill:#ff00ff;fill-opacity:0.37647059;fill-rule:evenodd;stroke:none;stroke-width:1px;stroke-linecap:butt;stroke-linejoin:miter;stroke-opacity:1" />
  <path
     id="path4156"
     d="m 849.73021,1358.7758 2.39631,-42.3045 -60.38692,-33.2733 -162.94883,-73.6766 1.43779,-150.6805 -102.56192,-134.99459 m 322.06357,434.92949 268.38629,-80.8065 -27.7971,-86.5106 -117.41905,35.1747 -78.59884,-89.3626 11.02301,-59.4166 -43.61277,-169.21853 -54.63579,-74.62727 129.40054,-107.42523 162.9488,-82.70792 121.2531,-101.24591 8.6267,0 13.8986,69.87393 72.3685,16.63665 30.1934,15.68599 82.9123,-37.07597 26.3593,35.64997 -6.7097,20.91465 6.7097,22.81598 74.2855,-2.85199 -20.129,-49.43463 -4.3134,-177.29917 -161.0317,-17.11198 -184.5156,43.73062 -73.8063,59.89195 -106.39595,106.47457 -78.59885,-14.73532 -34.98607,48.95929 0.47927,59.89194 -134.19316,44.6813 -24.92159,-37.07598 -31.63123,43.2553 -147.61248,128.33987"
     style="fill:#ff0000;fill-opacity:0.37647059;fill-rule:evenodd;stroke:none;stroke-width:1px;stroke-linecap:butt;stroke-linejoin:miter;stroke-opacity:1" />
  <path
     style="fill:#ff6600;fill-opacity:0.37647059;fill-rule:evenodd;stroke:none;stroke-width:1px;stroke-linecap:butt;stroke-linejoin:miter;stroke-opacity:1"
     d="m 1406.1525,860.15171 -3.3548,-30.42131 10.5437,-32.32263 -25.88,-44.6813 -1.4378,-18.53798 17.2533,-55.13861 -6.7096,-3.32732 -66.6173,17.11198 -41.2165,-17.11198 -55.5943,-39.92797 -182.1193,82.23259 -24.9215,67.02193 -60.86622,106.94991 -23.00454,75.10259 24.92158,108.85119 28.75568,55.614 114.5434,-57.5153 31.6313,-7.6053 -51.7602,125.0125 -117.41905,35.1747 -78.59884,-89.3626 11.02301,-59.4166 -43.61277,-169.21853 -54.63579,-74.62727 129.40054,-107.42523 162.9488,-82.70792 121.2531,-101.24591 8.6267,0 13.8986,69.87393 72.3685,16.63665 30.1934,15.68599 82.9123,-37.07597 26.3593,35.64997 -6.7097,20.91465 6.7097,22.81598 -49.9823,22.61524 12.55,68.5911 15.22,37.34109 -4.2723,41.84323 z"
     id="path4767" />
  <path
     style="fill:#ffff00;fill-opacity:0.37647059;fill-rule:evenodd;stroke:none;stroke-width:1px;stroke-linecap:butt;stroke-linejoin:miter;stroke-opacity:1"
     d="m 1139.6833,1046.9575 -125.5665,-9.5066 14.3779,-118.83324 53.6772,-122.63589 79.5574,-66.5466 53.198,-13.78466 59.9076,65.59595 89.1426,-13.78466 7.6682,12.35866 -17.2534,46.10729 -1.4378,23.76664 -24.9215,9.03132 0,12.35866 78.1195,-10.93266 -3.3548,-30.42131 10.5437,-32.32263 -25.88,-44.6813 -1.4378,-18.53798 17.2533,-55.13861 -6.7096,-3.32732 -66.6173,17.11198 -41.2165,-17.11198 -55.5943,-39.92797 -182.1193,82.23259 -24.9215,67.02193 -60.86622,106.94991 -23.00454,75.10259 24.92158,108.85119 28.75568,55.614 114.5434,-57.5153 31.6313,-7.6053 z"
     id="path4765" />
  <path
     style="fill:#00ff00;fill-opacity:0.37647059;fill-rule:evenodd;stroke:none;stroke-width:1px;stroke-linecap:butt;stroke-linejoin:miter;stroke-opacity:1"
     d="m 1316.5833,876.38054 -16.6055,-12.1 42.7,-14.78889 2.3722,-9.41111 2.3722,-30.92222 -71.8444,-10.41945 -72.5223,-54.78611 -102.0055,52.09722 -11.8611,123.68889 -42.3611,12.1 -22.7056,98.48053 2.7111,1.6806 30.5,-21.8472 61,4.3694 53.2056,-12.1 -31.8556,44.5353 -125.5665,-9.5066 14.3779,-118.83324 53.6772,-122.63589 79.5574,-66.5466 53.198,-13.78466 59.9076,65.59595 89.1426,-13.78466 7.6682,12.35866 -17.2534,46.10729 -1.4378,23.76664 -24.9215,9.03132 0,12.35866 z"
     id="path4738" />
  <path
     style="fill:#00ffea;fill-opacity:0.37647059;fill-rule:evenodd;stroke:none;stroke-width:1px;stroke-linecap:butt;stroke-linejoin:miter;stroke-opacity:1"
     d="m 1110.8778,976.20554 -37.9556,15.79722 -3.3889,-4.36944 45.75,-42.68611 -4.0666,-39.325 60.6611,-57.13889 37.9555,-63.525 2.7111,0.33611 16.2667,62.51667 23.3833,-10.08334 16.9445,-3.025 21.35,18.48611 -36.6,27.225 20.6722,3.36112 3.05,11.09166 38.9722,-18.48611 -16.6055,-12.1 42.7,-14.78889 2.3722,-9.41111 2.3722,-30.92222 -71.8444,-10.41945 -72.5223,-54.78611 -102.0055,52.09722 -11.8611,123.68889 -42.3611,12.1 -22.7056,98.48053 2.7111,1.6806 30.5,-21.8472 61,4.3694 53.2056,-12.1 27.45,-42.01388 -88.1111,15.79722"
     id="path4736" />
  <path
     style="fill:#00ccff;fill-opacity:0.37647059;fill-rule:evenodd;stroke:none;stroke-width:1px;stroke-linecap:butt;stroke-linejoin:miter;stroke-opacity:1"
     d="m 1110.8778,976.20554 -37.9556,15.79722 -3.3889,-4.36944 45.75,-42.68611 -4.0666,-39.325 60.6611,-57.13889 37.9555,-63.525 2.7111,0.33611 16.2667,62.51667 23.3833,-10.08334 16.9445,-3.025 21.35,18.48611 -36.6,27.225 20.6722,3.36112 3.05,11.09166 -38.9722,13.78056 -5.7611,-16.80556 -12.5389,-27.89722 -17.9611,-16.80556 -10.5056,6.72223 -21.0111,42.68611 4.7444,5.04166 -27.7888,37.64445 3.05,3.36111 50.4944,-22.51944 -2.3722,40.33333 -88.1111,15.79722"
     id="path4734" />
  <path
     id="path4144"
     d="m 1201.3611,920.07499 -50.4944,22.51944 -3.05,-3.36111 27.7888,-37.64445 -4.7444,-5.04166 21.0111,-42.68611 10.5056,-6.72223 17.9611,16.80556 12.5389,27.89722 5.7611,16.80556 z"
     style="fill:#f9f9f9;fill-opacity:0.37647059;fill-rule:evenodd;stroke:none;stroke-width:1px;stroke-linecap:butt;stroke-linejoin:miter;stroke-opacity:1" />
  <path
     d="m 0,2.8515625e-5 2400,0 L 2400,2000 0,2000 Z M 1564.3084,185.65415 1032.8089,227.95951 861.23315,277.3941 677.1953,445.66236 695.40794,472.75607 684.3861,498.8992 654.19058,493.19582 477.82274,565.44658 245.38203,490.34151 66.138932,717.55262 194.58047,917.66739 l 19.65025,293.28061 140.4218,194.4114 -3.83369,133.5673 231.00308,29.4702 65.65972,89.8387 11.50369,115.0315 155.54736,151.3629 13.22725,-72.9361 -42.24991,-102.6689 7.44761,-7.7174 -47.53181,-152.5393 20.43394,-64.5753 330.37164,-206.493 21.8848,-39.7294 -27.7968,-86.5118 51.76,-125.0124 -2.3961,-19.4891 31.8556,-44.5348 27.45,-42.01384 2.3722,-40.33334 37.2778,-11.42778 38.9722,-13.78055 38.9722,-18.48611 11.4508,-5.29639 78.1192,-10.93149 22.3984,-2.63112 4.2732,-41.84321 -15.221,-37.34247 -12.5494,-68.59029 49.9835,-22.6166 74.2855,-2.85169 99.207,-1.42585 4.3129,-2.85169 4.3129,-2.8517 -6.7089,-34.22294 -47.9263,-52.28628 75.2439,-50.86306 23.9631,-39.45105 -11.0245,-220.07924 -106.3952,-94.59166 z"
     style="fill:#ffffff;fill-opacity:0.69019608;fill-rule:evenodd;stroke:none;stroke-width:1px;stroke-linecap:butt;stroke-linejoin:miter;stroke-opacity:1"
     id="path4220" />
</svg>
