<?xml version="1.0" encoding="UTF-8" standalone="no"?>
<svg
   xmlns:dc="http://purl.org/dc/elements/1.1/"
   xmlns:cc="http://creativecommons.org/ns#"
   xmlns:rdf="http://www.w3.org/1999/02/22-rdf-syntax-ns#"
   xmlns:svg="http://www.w3.org/2000/svg"
   xmlns="http://www.w3.org/2000/svg"
   xmlns:xlink="http://www.w3.org/1999/xlink"
   version="1.1"
   width="6650"
   height="9150"
   viewBox="-1300 -1850 6650 9150"
   id="svg2">
  <metadata
     id="metadata8">
    <rdf:RDF>
      <cc:Work
         rdf:about="">
        <dc:format>image/svg+xml</dc:format>
        <dc:type
           rdf:resource="http://purl.org/dc/dcmitype/StillImage" />
        <dc:title></dc:title>
      </cc:Work>
    </rdf:RDF>
  </metadata>
  <defs
     id="defs6" />
  <image
     xlink:href="../streetmap/mowosm.png"
     id="image10"
     height="5701.3638"
     width="5321.2729"
     y="0.00023046875"
     x="84.955002"
     style="display:none" />
  <path
     style="opacity:1;fill:none;fill-opacity:1;fill-rule:nonzero;stroke:#d68ab1;stroke-width:5;stroke-linecap:butt;stroke-linejoin:round;stroke-miterlimit:4;stroke-dasharray:none;stroke-opacity:1"
     d="m 5248.2257,3036.9306 -91.7771,-83.3289 -14.9761,-9.6001 -26.1123,-4.9921 h -28.0323 l -130.9455,12.6722 -29.9523,-2.3041 -38.7844,-6.528 -52.6086,-20.7363 -48.0005,-13.4401 -23.0403,-1.92 -27.2643,6.912 -20.7362,15.7442 -56.4486,57.9847 -18.0482,20.3522 -22.2723,9.9841 -28.4163,4.992 -24.9603,1.5361 -18.4322,-1.5361 -36.0964,-19.9682 -16.1282,0.384 -36.4804,12.2882 -33.7923,6.912 -34.1764,6.1441 -30.7204,-0.384 -32.6403,-13.8241 -314.8835,-185.4741 -52.9926,-53.7606 -94.081,-50.3045 -74.8808,-45.3125 -38.7845,-8.4481 -98.6891,-41.4725 -78.7208,-19.5842 -23.4243,-11.1361 -44.5445,-21.8883 -37.018,-28.2939 -36.1138,-18.1926 -17.9211,-16.5635 -11.1328,-18.4642 -3.2584,-26.067 1.0861,-19.0073 6.5168,-19.2788 10.3182,-18.7357 29.597,-43.1736 7.3314,-16.5634 2.9868,-22.2656 -0.543,-16.835 -4.8876,-16.5635 -13.3051,-38.286 -12.2189,-34.213 -12.762,-23.0802 -26.3386,-27.6963 -33.9415,-26.6101 -8.9606,-11.9474 -8.689,-14.9343 -6.5168,-23.3518 v -16.8349"
     id="path1067" />
  <path
     id="path1779"
     d="m 2297.6974,1654.7103 -24.1739,1.5351 -31.6054,1.5215 -83.8125,-12.6289 -22.5176,-4.1269 -33.7637,-21.6231 -1.1348,-0.388 -18.0489,-1.5352 -0.25,-0.01 v 3e-4 l -0.7851,0.1387 -16.5117,5.7617 -1.002,0.6504 -17.2793,18.4316 -0.2598,0.3262 -30.7558,46.3261 -9.8047,5.252 -15.6445,2.1836 -71.0039,-14.5078 -0.5665,-0.049 -29.5683,0.7675 -1.2852,0.3946 -25.7285,16.5136 -0.6035,0.545 -45.3125,56.832 -0.2598,0.3984 -12.2871,23.4239 -0.2304,0.6328 -15.9844,73.832 -21.4278,23.2754 -26.1503,10.459 -89.6446,18.7715 -0.7637,0.2988 -26.496,15.7441 -0.7754,0.7207 -12.2891,17.6641 -0.4434,1.2793 -1.5351,25.7285 0.1973,1.1328 33.4082,77.9531 0.078,0.1661 21.8887,42.2402 0.6406,0.7871 35.2226,28.7148 27.1875,27.5645 18.9981,49.3965 12.4941,35.9687 -3.8105,62.8614 1.2186,42.7844 26.4847,83.5443 11.3137,37.3193 1.3247,20.0849 -4.8602,16.8028 -10.7071,17.8787 -16.5711,9.9143 -17.0001,4.5001 -23.5,-4 -30.5,-11 -31.0461,-11.1531 -65.7107,-21.1795 -26.2029,2.9868 -25.7955,12.219 -25.5705,34.46 -24.1923,68.3528 -4.2241,36.0964 9.6002,30.7203 37.6324,71.8088 15.3601,11.5201 19.2003,5.3761 29.1843,-0.768 16.8962,4.992 32.2563,29.5684 81.4089,62.5927 12.2882,17.6642 3.84,16.5121 -2.688,19.2002 -9.2161,21.8883 -10.3682,8.8321 -64.5127,49.1525 -341.7637,328.7077 -24.5763,29.5683 -97.1531,118.6573 -19.5842,20.7362 -26.4963,21.5043 -81.0249,43.7764 -12.2881,12.2882 -61.4407,84.4809 -19.58421,27.6483 -14.59216,12.2882 -24.96028,9.9841 -30.33634,1.536 -114.81726,0.768 -23.80827,4.992 -89.47298,29.5684 -13.82416,8.4481 -15.36016,15.7441 -65.66473,127.1054 -12.67214,8.0641 -18.0482,3.8401 -16.12818,-3.0721 -39.93644,-26.1123 -30.33633,-5.376 -26.49629,8.4481 -46.84852,26.1123 -169.72988,179.3299 -19.58421,13.0562 -24.19227,0.768 -32.25636,-6.1441 -38.01641,8.0641"
     style="fill:none;stroke:#fdcb1e;stroke-width:5;stroke-linecap:butt;stroke-linejoin:round;stroke-miterlimit:4;stroke-dasharray:none;stroke-opacity:1" />
  <path
     style="fill:none;stroke:#78c7c9;stroke-width:5;stroke-linecap:butt;stroke-linejoin:round;stroke-miterlimit:4;stroke-dasharray:none;stroke-opacity:1"
     d="m 1906,2311.3638 -32,19.5 -65.5,32 -18.118,0.2794 -16.5635,-13.0335 -10.0466,-22.8087 -4.073,-23.0802 -0.4099,-7.8831 3.8398,-63.3613 -0.1348,-0.9707 -12.6718,-36.4805 -0.027,-0.078 -19.2011,-49.92 -0.5528,-0.8574 -27.6484,-28.0332 -0.2012,-0.1816 -34.9258,-28.4727 -21.6074,-41.6992 -33.1406,-77.3262 1.459,-24.4355 11.5781,-16.6426 25.6719,-15.2559 89.4511,-18.7304 0.4161,-0.125 26.8789,-10.752 0.9121,-0.6289 22.2714,-24.1914 0.6036,-1.1641 16.0566,-74.166 12.0195,-22.9121 44.9082,-56.3242 24.793,-15.9121 28.5859,-0.7422 71.1446,14.5352 0.8457,0.025 16.5117,-2.3028 0.8359,-0.2734 10.752,-5.7598 0.9023,-0.8203 30.9883,-46.6738 16.7168,-17.8321 15.4277,-5.3808 16.9004,1.4375 33.6563,21.5547 0.8984,0.3535 23.0391,4.2246 0.078,0.014 84.0977,12.6718 0.4922,0.025 31.873,-1.5371 h 0.037 l 24.1934,-1.5352"
     id="path3001" />
  <path
     d="m 3663.8577,4429.7514 -28.3577,-281.8876 4,-27.5 17.4869,-37.1854 17.0861,-31.4438 3.6854,-23.3708 1.3037,-24.8374 -6.1183,-35.6626 -25.9438,-111.5 -11,-57.5 -2,-15.5 7.5,-26 9.5,-17.5 12,-10.5 52,-37 21.5,-15 15,-9 9.5,-7 6,-8 13.8277,-35.2416 2.2285,-17.1591 0.1854,-36.0993 5,-30.2715 13.7584,-58.7285 26,-116.5 1.4438,-26.2153 -7.4438,-59.2847 -8,-15 -15.9752,-11.2245 -23.5248,-10.7755 -102,-46 -18.5,-4.5 -30,1 -54,10 -25.3672,0.1976 -18.2751,-8.456 -34.3577,-18.7416 -123.6555,-72 -39.8445,-22.5 -27.8876,-15.8277 -35.3481,-20.1891 -104.2643,-45.4832 -12,-16 -33.2953,-59.0465 -17.7252,-27.3045 -4.9074,-27.4384 -8.0721,-23.2106 -38.2097,-86.5183 -83.269,-97.8239 -5.3049,-16.3984 2.0595,-23.193 6.5197,-19.8102 18.654,-19.8572 33.325,-38.4659 42.7969,-41.0557 30.7857,-26.7738 22.4618,-32.5708 10.7381,-31.7404 2.2834,-25.4549 -4.9098,-46.1088 -9.0238,-23.8263 -14.0735,-13.9961 -25.8536,-13.6629 -76.9524,-27.455 -46.6547,-16.9447 -31.3222,-17.3809 -32.7112,-31.2277 -33.8467,-32.5716 -9.3625,-19.8966 -11.9651,-45.9799 -16.665,-18.787 -20,-16.5 -26.6986,-6.8146 -23.9569,-3.1292 -28.2584,-3.0299 -28.6423,3.6292 -33.4438,6.8445 -39.5,-5 -14.7285,-8.6591 -12.7715,-12.8409 -20.7584,-29.9175 -24.2788,-29.4306 -3.7846,-20.8672 -5.2417,-76.286 0.1927,-24.3228 4.616,-27.4044 8.4008,-28.5729 6.854,-42.1986 1,-24 -2.4869,-34.6423 -4.2715,-91.3051 -2.3152,-102.1887 -7.3314,-21.9941 -14.1197,-22.2656 -73.8567,-97.7515 -153.144,-172.6944 -39.3722,-45.0743 -21.451,-11.9474 -27.9678,-11.6759 -16.2919,-13.3051 -7.6495,-12.9676 -9.9426,-22.2592 0.2834,-30.0131 11.8996,-39.32323 15.868,-42.99176 4.3349,-22.99526 -7.4797,-30.59824 -14.7842,-37.82442 -8.8321,-67.58474 -9.2161,-20.35223 -18.8162,-19.96822 -44.5445,-36.8644 -30.7203,-39.93644 -16.5122,-24.57628 -87.169,-87.16896 -11.5201,-16.12818 -6.1441,-22.65625 -2.304,-22.27224"
     id="path3759"
     style="fill:none;stroke:#bdcf2e;stroke-width:5;stroke-linecap:butt;stroke-linejoin:round;stroke-miterlimit:4;stroke-dasharray:none;stroke-opacity:1" />
  <path
     d="m 2201.5,5088.3638 12,-28.5 18.5,-43 21.5,-32 22.5,-15.5 24.5,-8.5 40.5,-9.5 10.5,-9 15.5,-20 4,-13 7.5,-41 19,-101.5 14.6967,-77.9393 -0.182,-16.9749 1.3284,-23.6673 -3.8934,-37.4792 -4.9497,-15.4393 0.5,-21.5 9,-35.5 73.5,-271 39,-147 1,-18.5 -6,-18.5 -16,-57 -11.5,-16.5 -18.5,-17 -41,-31.5 -17.5,-19 -18.5,-34.5 -2.5,-19.5 -1,-21.5 -2,-112 2.5,-17.5 27,-38 56.5,-81.5 7,-18.5 3,-27.5 -1.8033,-24.0179 6.4157,-43.2237 10.3876,-24.2584 14.5,-28 22.5,-27 22.5,-23 16,-13 17.5,-25.5 5.5,-19 6,-22.5 0.5,-29.5 -3,-22.5 -14.5,-16.5 -21.5,-24 -11.5,-28 -4,-22 -3,-57 1,-18.5 6,-17.5 12.5,-21.5 24.5,-28 5.3787,-18.7175 1.6716,-18.0607 2.2322,-21.4497 0.036,-32.1612 1.2929,-34.2322 1.6213,-19.2556 39.3302,-96.1102 1.2158,-13.7096 -0.7782,-36.8033 -5,-20.5 -19,-77 -4.5,-24.5 -11.189,-34.5299 -5.6591,-25.8708 -7.1723,-16.3876 -16.8672,-25.9832 -16.6124,-23.7285 -25.3314,-40.2584 -52.6867,-75.6568 -8.4139,-23.3708 -2.6015,-21.903 -1.4665,-17.811 -2.2416,-24.2452 -2.2584,-29.7548 -10.2679,-109.1854 -0.2584,-23.5036 5.9139,-26.262 30.1124,-26.549 32.5,-39.5 19.8953,-19.0516 11.0054,-16.9484 8.4964,-21.0993 4.927,-23.2584 0.2416,-17.8146 -3.2715,-17.043 -7.2153,-15.4139 -8.0993,-10.3146 -16.9438,-11.6722 -30.4234,-13.384 -43.6124,-20.8014 -28.5431,-13.2285 -25.9569,-13.957 -18.3876,-15 -22.1124,-43.5131 -48.5,-82 -19,-62.5 -23.9306,-47.6913 -5.0985,-13.0625 -7.5008,-71.7331 -5.9701,-37.0131 -14.5,-42.5 -44,-151.5 -18,-61 -1,-28.5 1.5,-134 10.5,-35.5 9,-25.00003 8.927,-23.67226 36.073,-34.82774 56,-47.5 6.5,-14 17,-51.5 13.5,-46.72405 42,-67.61599 75.5,-136.15996 31.5,-50.5 14,-26 9.5,-40.5 -0.5,-14 -8.5,-52.5 -5.0263,-32.74524 -10.2811,-31.18178 -22.3612,-37.61966 -44.5168,-39.51315 -35.573,-29.28468 L 2321.5,147.73458 2303,123.36377 2296.4438,101.14845 2294,72.36377 l 0.5,-53.5"
     id="path3761"
     style="fill:none;stroke:#adacac;stroke-width:5;stroke-linecap:butt;stroke-linejoin:round;stroke-miterlimit:4;stroke-dasharray:none;stroke-opacity:1" />
  <path
     d="m 2631,2446.3638 24.6854,-2.1854 73.7153,-8.2847 65.1854,-5.7416 31.1292,3.3146 53.0562,8.5131 31.2584,7.2716 30.2058,-6.573 34.4964,-20.6986 56.311,-39.1854 29.4569,-19.1722 19,-5.7584 41,-3.6801 57,-9.42 37.384,-5.1081 43.6361,-6.152 56.3718,-17.6398 83.6081,-29.5 282.6118,-92.3199 44.4761,-5.4561 51.9121,0.776 23.5,11.5079 17.884,19.196 8.1081,20.5641 0.4639,33.776 4.08,25.4841 17.652,22.6801 22.9561,9.3119 19.4078,-0.956 23.9481,-9.5641 224.5,-71.5 14.5,0.5 139,34 59,18 32.5,30.5 32.2384,14.6322 50.2616,4.3678 33.5,17.5 31,22.5 31,12 33.5,2 41,-5.5 60.5,-19"
     id="path3782"
     style="fill:none;stroke:#fdcb1e;stroke-width:5;stroke-linecap:butt;stroke-linejoin:round;stroke-miterlimit:4;stroke-dasharray:none;stroke-opacity:1" />
  <path
     d="m 988,587.86377 12.5,65 17,92.5 3.5,25 3,27.5 -14.5,141 -9.5,110.50003 -0.54396,50.2399 -1.99565,24.1057 -4.64842,25.0704 -10.49603,30.2641 -4.12052,22.7587 3.55907,30.806 11.01979,61.3807 7.07794,15.3027 15.74818,16.856 17.188,11.9719 113.009,34.0802 51.7786,9.1317 17.424,9.032 19.5,18 259,238.5 61.5,56.5 24,34.5 10.7981,27 4.7626,36.1161 6.4696,35.0347 11.0304,26.5814 19.4393,17.2678 21.5,2 43,8 15,-3 25.5,-1 h 25.5 l 41.5,14 63.5,26.5 51.5,18.5 27,7.5 h 17 l 14.5,6.5 15,9.5 18.5,17.5 21.5,26.5 51.5,86.5 10,8.5 26,4.5 92.5,23.5 38,9 36.6496,7.6029 23.7452,-4.9569 17.1986,-10.4271 24.1686,-22.7153 27.1256,-22.7452 28.3971,-19.7321 30.6854,-4.5132 22.3014,2.6424 23.9869,6.4139 89.2416,34.9306 39,16.5 35,27.5 28,26 20,29.5 11.5,44.5 5.5,13 7.9405,10.096 27.4865,14.404 28.189,18.5993 25.4737,25.5227 19.5132,37.1985 8.5299,24.9043 10.311,24.8314 12.0562,19.9438 16,34 42.5,77.5 16,19 9.5,9.5 22.5,4.5 43,1.5 21.5,4.5 20.5,12 41,35.5 63.5,39.5 102,60.5 44.5,35.5 60.5,57.5 57,39.5 78,52 16.5,10.5 20.5,5 h 38.5 l 44.5,3 81,18 197.5,40 36.5,4 23,-6.5 36,-29.5 33,-34.5 57.5,-106.5 9,-20 7.5,-18.5 11,-12.5 19.5,-13 15.5,-6 h 18 l 12.5,1 15,7.5 120.5,76 89.2802,51.7532 56.8326,41.8565 37.2484,15.7442 34.5604,34.5604 69.5048,67.2007 68.7368,75.6488 9.2161,21.1203 0.384,16.5122 -9.9842,48.0005 -16.1281,49.5365 -17.2802,31.8724 -46.8485,69.8888 -8.4481,19.2002 -0.768,17.2802 9.2161,18.4322 15.3601,12.2881 14.2082,7.2961 34.7912,29.614"
     id="path3784"
     style="fill:none;stroke:#933f8f;stroke-width:5;stroke-linecap:butt;stroke-linejoin:round;stroke-miterlimit:4;stroke-dasharray:none;stroke-opacity:1" />
  <path
     d="m 2941,174.36377 -2,48 -1,31 2.5,18 13,29.5 19.4921,35.37606 8.8119,25.43591 2.196,21.68803 -2,16 -26.5,94.5 -23.5,83 -14,47 -10,18.5 -25.5,28.5 -88,80.5 -36,47 -19,44 -9.2978,33.7117 -0.2716,23.93064 1.5952,48.6827 -7.5258,58.67499 4,26 18.073,56.0694 13.2284,42.3313 5.6855,29.384 -0.9869,33.7153 -2,19.5 0.5131,29.7475 -6.5167,54.9248 -3.4139,34.9569 -5.2978,39.1423 -4.7847,36.7285 -3,30.5 -5.5562,92.7584 -13.4438,118.7416 -4.5,23 -3.1387,48.7285 -9.8613,51.7715 -11,43 -31.8445,63 -6.3445,20.4701 3.6388,18.0214 8.5502,15.5085 30.073,40.5993 26.1722,31.1124 8.7586,18.7575 1.4962,18.0308 2.5,26.5 -4.5,20.5 -14.5,31.5 -22,36 -6,26 4.1591,32.3277 7.1423,27.3876 6.6986,24.2847 8.5,24 8.5,32.5 14.4306,38.3409 -0.4138,23.8839 -7.2637,20.2002 -15.6538,22.4494 -25.0993,14.6256 -17.2715,2.7715 -43.3283,4.881 -23.7316,-0.5963 -16.7846,6.6854 -14.4438,15.0861 -8.4139,20.884 -11.8708,36.3876 -8.238,34.0131 -12.3838,19.9785 -28.176,23.0347 -20.967,18.522 -6.3907,16.3524 -4.5,14.5 0.2584,30.8708 1.7715,31.6292 0.9701,51 1.1555,19.5227 -2.9869,15.8445 -7.0299,12.2285 -27.6795,41.4115 -29.0886,44.8981 -13.9663,9.5349 -14.0081,6.6494 -32.4393,1.2082 -19.8409,2.6854 -19.1459,8.573 -25.4701,30.4438 -49.077,60.0565 -9.6646,13.9136 -10.2453,22.4868 -27.5131,185.0431 -10.5,20.5 -119,198 -177.5,291 -91.7584,138.9402 -26.9007,63.3014 -63.3409,162.7584 -17.5,41 -25.5,46 -51,71 -4,16.5 7.5,20.5 12,24 9,13.5 33.7883,27.7153 39.927,48.6124 28.2847,40.1723 14,13 187.5,70 57,23.5 28.5123,22.5078"
     id="path3786"
     style="fill:none;stroke:#ef7e24;stroke-width:5;stroke-linecap:butt;stroke-linejoin:round;stroke-miterlimit:4;stroke-dasharray:none;stroke-opacity:1" />
  <path
     d="m 2268.0793,2496.5974 -65.7212,-20.0084 -43.7896,-3.428 -24.5848,-6.8108 -21.2642,-26.0667 -6.9295,-34.7216 4.0674,-36.9564 6.5337,-29.4157 53.3213,-93.6775 37.1033,-64.8332 4.2427,-15.5563 1.4142,-60.8112 10.9291,-126.5721 7.3935,-27.7922 10.1145,-15.1829 13.2822,-12.8864 28.2843,-26.87 19.7989,-12.728 99.7021,-22.6274 60.8112,-14.1421 34.6482,-6.364 145.664,9.8995 60.1041,4.9498 36.0624,-1.4142 93.6153,-0.9334 28.3011,12.1339 14.1309,18.4979 6.7883,21.2132 -6.364,30.4056 0.3734,26.9266 3.7505,32.1989 12.134,24.8618 33.9467,74.4047 8.4853,30.4056 -2.1213,26.1629 -9.8995,40.3051 -14.3118,61.7898 -27.4075,101.5519 -4.7404,36.4299 -6.4148,19.2049 -9.0906,16.8009 -27.1473,35.2141 -19.6915,18.1133 -15.9297,14.9735 -28.2673,56.3989 -14.9452,17.8189 -31.7745,23.3233 -28.9661,18.536 -47.3167,15.6486 -82.1488,11.7492 -45.6623,-2.6643 -38.6591,-19.2503 -152.0447,-92.0539 -24.2001,-12.5582 -14.8493,-5.6569 -20.7608,-7.9366"
     id="path3788"
     style="fill:none;stroke:#925233;stroke-width:5;stroke-linecap:butt;stroke-linejoin:round;stroke-miterlimit:4;stroke-dasharray:none;stroke-opacity:1" />
  <path
     d="m 2834,3752.3638 -19.5,25.5 -16,20 -13.3959,14.7201 -15.3669,7.9319 -21.6524,1.1092 -45.4489,-11.3091 -85.4479,-16.8321 -32.6239,-0.584 -20.0228,-1.0084"
     id="path3798"
     style="fill:none;stroke:#78c7c9;stroke-width:5;stroke-linecap:butt;stroke-linejoin:round;stroke-miterlimit:4;stroke-dasharray:none;stroke-opacity:1" />
  <path
     d="m 2212.5,1253.8638 19,-7.5 13.5,-5.5 81,-34.5 14.5,-7.5 h 17.5 l 11,5 6,6 55,3.5 10.5,-9 53,0.5 155,-0.5 15.5,-2 14.5,-4.5 28,3 9,-8 65,-57 2.5,-14 -3,-8 8,-11.5 12.5,-23"
     id="path3800"
     style="fill:none;stroke:#4e94cc;stroke-width:5;stroke-linecap:butt;stroke-linejoin:round;stroke-miterlimit:4;stroke-dasharray:none;stroke-opacity:1" />
  <path
     d="m 1672.5,5560.8638 45,-19.5 82.5,-35.5 76,-43.5 33,-14.5 105.5,-44 47.5,-23 31,-25.5 14,-19 11,-19 15.5,-39 13.5,-47.5 12,-32.5 19,-45.5 25,-56.5 10.5,-25.5 21.5,-50.5 23,-33 17.7921,-23.456 7.544,-22.356 -5.3361,-15.688 -7.772,-11.5079 -11.2201,-9.3801 -74.572,-29.724 -21.08,-13.0879 -13.3276,-14.8396 -7.1627,-14.3186 -32.5164,-103.5167 -35.6932,-76.0532 -15.9436,-18.9499 -39.7001,-37.1143"
     id="path3802"
     style="fill:none;stroke:#b1d4e5;stroke-width:5;stroke-linecap:butt;stroke-linejoin:round;stroke-miterlimit:4;stroke-dasharray:none;stroke-opacity:1" />
  <text
     x="-1210.5469"
     y="-1643.0391"
     id="text6965"
     xml:space="preserve"
     style="font-style:normal;font-weight:normal;font-size:143.99989319px;line-height:125%;font-family:Sans;-inkscape-font-specification:Sans;letter-spacing:0px;word-spacing:0px;fill:#000000;fill-opacity:1;stroke:none"><tspan
       x="-1210.5469"
       y="-1643.0391"
       id="tspan1">2020</tspan></text>
  <text
     x="-1210.5469"
     y="7197.9609"
     id="text6965-9"
     xml:space="preserve"
     style="font-style:normal;font-weight:normal;font-size:143.99989319px;line-height:125%;font-family:Sans;-inkscape-font-specification:Sans;letter-spacing:0px;word-spacing:0px;fill:#000000;fill-opacity:1;stroke:none"><tspan
       x="-1210.5469"
       y="7197.9609"
       id="tspan2">2020</tspan></text>
  <path
     style="opacity:1;fill:none;fill-opacity:1;fill-rule:nonzero;stroke:#000000;stroke-width:5;stroke-linecap:butt;stroke-linejoin:round;stroke-miterlimit:4;stroke-dasharray:none;stroke-opacity:1"
     d="m 1933.6269,2952.0657 15.1681,-44.9285 36.6724,-35.3284"
     id="path899" />
  <path
     d="m 4124.5,1389.364 9.5,295.5 -2.5,25.5 -7,8 -14.5,5.5 -211.5,6.5 -26.5,-10 h -21 l -15.5,-6 -32,-5.5 -79.479,7.7197 -39.521,3.7803 -42,19.5 -100.5,41.5 -28.1612,8.6967 -44.6776,5.7678 -68.8579,9.4142 -76.3033,9.1213 -29.0337,6.5251 -26.8891,11.3891 -24.8787,15.9645 -35.2531,27 -45.2279,35.8033 -51.7175,37.318 -36.2426,29.5 -39.2574,41.5 -36.636,46.6716 -33.9498,51.0797 -21.6924,41.9203 -21.6967,20.1213 -16.1375,11.2932 -22.6424,9.3577 -82.5897,2.8146 -80.0562,-0.2584 -56.0993,3.5 -48.5,1.5 -50.5,0.5 -22,15 -13.5,20 -15.5,25.5 -21,10.5 -21,-1 -25,2 -36,3.5 -43.6197,10.9139 -58.5263,28.7715 -110.7117,41.7548 -57.3182,17.4737 -22.5358,12.1124 -74.7883,34.4737 -131.5,57 -65.5,28 -59,23 -29,1 -33.5,-7 -66,-23.5 -64.5,-20.75 -24,2.5 -23.75,11 -12.25,15.5 -26,29.5 -17.25,16.75 -65.25,22.5 -100.5,29 -92,24 -30.5,-6.5 -44.5,-16.5 -44,-13.5 h -16 l -31,7 -30.5,6 -26,4.5 -20,-5 -26,-15 -35.92623,-24.5333 -31.8198,-42.4264 -33.23402,-43.8407 -74.95332,-65.7609 -15.14963,-24.0917 -10.356,-56.218 -9.84971,-80.2035 -6.36396,-47.3762 -14.84924,-221.3244 -4.94975,-28.9914 -8.48528,-12.7279 -52.3259,-43.1335 -21.92031,-27.5772 -44.62722,-117.9413 2.56622,-20.5433 10.03989,-17.5135 37.20099,-16.6475 15.9984,-10.7669 22.40849,-42.8988 15.01448,-9.5559 45.30113,-18.6912 26.22386,-31.1127 14.12354,-20.5061 5.49787,-21.7376 -4.48626,-22.2248 -11.6554,-17.2328 -28.24708,-13.051 -135.0574,-50.2046 -21.10487,-10.8688 -18.6707,-17.9636 -17.50008,-21.3722 -10.6066,-21.9203 -2.12132,-19.0919 2.82843,-82.7315 3.29193,-65.7609 0.2436,-22.6274 -1.29241,-35.0746 -2.24312,-80.1838 -2.12132,-27.5772 -4.94975,-21.2132 -33.94113,-57.27569 -22.62741,-28.2843 -34.64824,-26.1629 -49.49747,-41.0122 -57.27565,-40.3051 -39.38225,-29.7414 -18,-21.5 -11.5,-30.5 -2,-26 3,-31 15.5,-29"
     id="path3792"
     style="fill:none;stroke:#0572b9;stroke-width:5;stroke-linecap:butt;stroke-linejoin:round;stroke-miterlimit:4;stroke-dasharray:none;stroke-opacity:1" />
  <path
     d="m 1066,2603.364 33.5,-7.5 27.5,-15.5 40.5,-23 79.5,-30 25.5,-7.5 108.5,-40.5 47,-26 95.5,-49.5 42,-20.5 15,-11.5 7.5,-14 10,-20 10,-7.5 13.5,-5.5 22,5 8.5,13.5 30.5,43 13.5,9.5 23,10.5 10,0.5 17.5,-6.5 7,-1 16,4.5 17.5,6 25,3 18.5,10.5 15,46 24.5,38.5 15,3.5 18,-3.5 70,-34 80,-37.5 54.5,-25 18.5,-8.5 6,-10 11,-29 6,-15.5 13,-9.5 20.5,-3 52.5,-4 39.5,-6 34.5,-16 31,-15 14.5,-8.5 38,-4 12.5,-2.5 35.5,-4.5 35.5,-4.5 14,3.5"
     id="path3790"
     style="fill:none;stroke:#24bcef;stroke-width:5;stroke-linecap:butt;stroke-linejoin:round;stroke-miterlimit:4;stroke-dasharray:none;stroke-opacity:1" />
  <path
     d="m 2080.75,2424.114 -48.75,13 -25.501,-7.9792 -9.249,-18.5208 5.25,-22.25 3.5,-18 -2,-28.25 -12.5,-14.25 -33,-24 -17.5,-10 -17,2 -31,17.5 -25,16 -19,6.5 -17.5,1.5"
     id="path3794"
     style="fill:none;stroke:#24bcef;stroke-width:5;stroke-linecap:butt;stroke-linejoin:round;stroke-miterlimit:4;stroke-dasharray:none;stroke-opacity:1" />
  <path
     d="m 3835.8161,4095.6076 19.2178,36.8341 7.6251,45.2499 -2.3329,70.844 -20.2394,51.5283 -32.5635,39.5033 -29.3606,27.7591 -33.0973,19.2178 -30.4283,6.9398 -39.137,4.8799 -57.5,5 -61,6 -79.5,22.5 -78,23 -57,15 -34,2 -29,-9 -22.5,-19.5 -53,-68 -35.4139,-39.9832 -20.7584,-9.7416 -20.2846,-1.8577 -23.1591,-0.573 -31.884,3.1555 -19.5,-3 -27,-18.5 -15,-19 -109,-210.5 -12,-29.5 -16,-25.5 -12,-12.5 -24,-12 -18,-16 -11,-18 -25,-77.5 -9,-41 6,-19 18.5,-20 17,-21 33.5,-43.5 29.5,-48.5 59,-129.5 8.5,-52.5 15,-131 6.5,-86 1.5,-37.5 -6,-98 -6,-22 -9,-18 -28.5,-26 -8.5,-14.5 -6,-23 -1,-60.5 v -77 l -4.5,-22.5 -22,-43.6723 -26.427,-63.8014 -12.8445,-24.3708 -16.3577,-42.5898 -36.3708,-51.5657 -16.5,-16 -27.5,-24.5 -11,-19.5 -17.5,-30.5 -37.5,-42.5 -9,-22 -4.5,-40.5 -0.5,-45.5 -15.5,-66.5 -13,-44.5 -32.5,-70.5 -20.6723,-38 -18.4437,-35.6423 -14.03,-21.9307 -28.854,-26.927 -31,-25.5 -59,-44.5 -31.5,-28.5 -38.9569,-33.4832 -88.646,-90.7453 -106.8971,-102.7715 -68.5,-60 -48,-37.5 -70,-51 -131.5,-96 -34,-25.5 -71.5,-31.5 -92.5,-42.5 -31,-14.5 -11,-13 -55,-121.5 -63.5,-134 -2.5,-28.5 6,-43 -0.5,-28.5 -29.5,-65 -51.5,-122.50003 -55.5,-146 -25.5,-59.5 -28.5561,-82.58413 -2.3041,-13.05614 3.0721,-12.67214 4.224,-9.60011 10.7521,-11.90413 60.6727,-51.84057 12.6721,-15.74417 5.7601,-14.59216 1.92,-17.6642 -11.9041,-83.71292 -11.5201,-34.56038"
     id="path3796"
     style="fill:none;stroke:#4baf4f;stroke-width:5;stroke-linecap:butt;stroke-linejoin:round;stroke-miterlimit:4;stroke-dasharray:none;stroke-opacity:1" />
  <path
     d="m 3557,1307.8638 94,45.5 9,17 4,16 -3,116 -4.5,12 -16.5,9 -46.5,15.5 -200.9701,63.2978 -32.2751,1.2285 -16.2548,-5.0263 -27.5,-10.5 -12,-0.5 -48.5,15 -24.5,16.5 -27,21 -43.5,28 -56.5,38 -50,75 -26,26.5 -43.5,41 -92.5,69.5 -16.5,13.5 -8.5,19.5 -5.5,27.5 -11,19.5 -15.5,15.5 -11.811,8.9569 -41.762,19.2321 -34.927,23.311 -16.5,14 -18,29.5 -27.5,32 -28.4894,17.062 -29.0106,4.938 -64,13.5 -6.5,7.5 -19.5,20.5 -27,37.5 -15,45 -9,35.5 -4.5,13.5 -15,21.5 -17,15 -22.5,21.5 -28.5,47 -21,21.5 -9,24 -13.5,53 -14.5,46 -7,9.5 -64.5,46 -32.573,17.7285 -124.427,49.2715 -27.5,18 -34.4234,22.2248 -12.6029,18.6759 -2.5861,13.5862 3.4569,20.689 41.6854,37.6088 6.8708,20.7153 -1.9007,15.5 -5,11.5 -65.5,84 -105.5979,157.6279 -19.251,19.9951 -49.3628,30.5121 -276.2189,280.9211 -58.1424,57 -31.3839,30.3278 -46.9008,31.5861 -18.1423,25.5299 -7,14.5 -9.5,25.5 -20.7113,75.7503 -1.152,20.9283 v 60.0966 l -3.4561,29.3764 -6.9121,22.4642 -12.8641,17.8562 -161.0898,135.9375 -49.9205,42.6245 -35.3284,35.3283 -29.9524,15.7442 -72.96076,13.4402 -18.8162,9.2161 -21.88824,17.2802 -15.36017,18.4322 -12.67214,18.4322 -7.29608,18.8162 -4.60806,27.6483 -8.44809,18.4322 -26.8803,36.8644 -19.20021,27.2643 -16.89618,13.8242 -29.18433,13.0561 -15.36017,9.6001 -25.34428,26.4963 -19.58421,47.2325 -36.4804,81.0249 -9.60011,26.1123 v 13.4402 l 3.84004,19.9682 9.60011,13.8241 86.01695,89.089 50.68856,68.7368 36.8644,38.7844 32.25636,28.8003 108.28921,71.4248 19.5842,14.2082 14.5922,20.3522 33.0243,67.5847 21.1203,23.4243 34.1763,35.3284 12.6722,24.1922 27.2643,59.9047 25.7283,48.3845 45.3125,64.5128"
     id="path2989"
     style="fill:none;stroke:#e42518;stroke-width:5;stroke-linecap:butt;stroke-linejoin:round;stroke-miterlimit:4;stroke-dasharray:none;stroke-opacity:1" />
  <path
     style="opacity:1;fill:none;fill-opacity:1;fill-rule:nonzero;stroke:#f1928b;stroke-width:5;stroke-linecap:butt;stroke-linejoin:round;stroke-miterlimit:4;stroke-dasharray:none;stroke-opacity:1"
     d="m 2550.2476,3236.1186 65.7108,-23.8948 96.1223,-21.1795 L 2733,3183 l 31,-20.5 239,-231 36,-28.5 28.5,-13.5 76.5,-39.5 119,-63.5 179,-92.5 23,-14 13.5,-14 15,-20.5 9,-24 36.5,-105 50,-145 11.5,-19.5 25.5,-23.5 29,-30 10,-20 7,-30 1,-34 -4.5,-161.5 -8.5,-82 -10,-107 -5.5,-106.5 -1,-40.5 3.5,-31 24,-125 1.5,-29.5 -2.5,-88.5 -1,-62 -8.5,-29 -21,-32.5 -65.5,-60 -48.5,-30 -344,-207.5 -214.5,-101.5 -121,-65 -45.5,-9 -78,-12 -485,-31 -31.5,-5.5 -95,-26 h -42 l -30,11 -35.5,20 -43,20 -197,74 -32.5,19.5 -24,24 -86,108.5 -31.5,29 -124.5,101 -22.5,32 -15,39.5 -4,37.5 5,43 10.5,31.5 120,245 11.5,37 6.5,50.5 21,177 5.5,23 14,25.5 113.5,211.5 26,46.5 51,124.5 8,31 7,49.5 7.75,63.5 8.25,25 11.5,16.25 58.25,71.75 15.5,26.5 51.5,97.75 17.5,23.75 18,18 18.25,11 119.75,65.5 21.75,13.5 19,17.75 16.5,16.5 16.75,21.25 75.5,110.75 11.5,20.75 51.5,109 24,46 24.75,36 19.25,21 24.5,17.5 25.75,8.25 19.5,3.5 h 26 l 24.7476,-8.1314"
     id="path1069" />
  <path
     style="opacity:1;fill:none;fill-opacity:1;fill-rule:nonzero;stroke:#f7a600;stroke-width:5;stroke-linecap:butt;stroke-linejoin:round;stroke-miterlimit:4;stroke-dasharray:none;stroke-opacity:1"
     d="m -348.64709,3510.3659 19.5503,-17.1065 54.3064,-52.6772 22.80869,-19.8218 12.49048,-8.689 14.66272,-7.8745 136.852132,-50.5049 45.074312,-17.1065 26.067072,-13.5766 20.3649,-14.9343 47.789632,-44.8028 16.29192,-18.4642 45.074312,-79.8304 14.93426,-21.9941 v -0.2715 l 44.25972,-56.2071 98.56611,-124.9047 13.5766,-13.8482 12.49048,-10.3182 409.74178,-256.8693 16.56346,-7.8744 21.99409,-7.3313 24.98094,-3.2584 329.36828,2.7153 14.3912,-1.6292 16.5635,-4.073 354.0777,-99.6522 38.8291,-12.4905 21.7226,-10.3182 45.8889,-25.7956 14.1196,-12.2189 19.0073,-22.2656 28.5108,-54.5779 13.5766,-19.2788 25.524,-25.7956 24.981,-15.7488 49.1473,-26.0671 17.1065,-13.5766 10.0467,-11.6759 13.0335,-27.9678 32.8554,-135.766 10.5897,-39.6436 3.8015,-30.1401 3.5299,-44.8028 4.8876,-13.8481 9.5036,-19.0072 15.4773,-19.5503 20.6364,-14.3912 18.1927,-6.5168 53.7633,-5.4306 183.2841,-35.0277 30.9547,-0.543 11.6758,-2.1723 13.5766,-7.3314 18.1927,-12.2189 12.4905,-12.762 16.5634,-18.4642 11.6759,-16.5634 4.616,-16.835 6.7883,-31.2262 14.1197,-113.5004 5.7022,-23.8948 5.4306,-21.1795 -0.5431,-11.1328 -3.2583,-53.4918 -22.5372,-147.4419 -9.2321,-21.451 -16.835,-14.6627 -27.6962,-24.7094 -3.2584,-6.7883 -8.9606,-30.1401 -6.2452,-45.3458 -6.2452,-19.8219 -20.7722,-48.0611 -5.4307,-19.8219 -0.747,-21.7161 -0.139,-23.5848 0.6015,-52.9442 0.3936,-61.8479 5.9379,-15.4504 12.4172,-20.5027 9.3679,-13.71235 8.689,-18.19265 3.5299,-17.92111 -1.0861,-27.01743 -6.5168,-18.19264 -18.7357,-36.11376 -3.5299,-14.93426 -4.3445,-33.39844 -16.835,-79.01581 -1.3577,-36.38529 3.2584,-26.06707 12.762,-63.26696 1.0861,-30.41158 -4.0729,-27.1532 -50.505,-214.51028 -1.6292,-21.99409 -8.9605,-172.96589 -5.1592,-16.83498 -7.6029,-14.11967 -10.3182,-13.5766 -13.5766,-11.675871 -147.7134,-96.1223286 -31.7692,-23.0802204 -23.6233,-26.338604 -12.762,-24.166348 -15.2058,-55.120998 -77.1151,-264.7437 -74.6713,-268.54515 -33.1269,-114.5865 -11.6759,-21.99409 -23.6233,-34.21304 -5.9737,-15.74885 -4.616,-17.64958 -6.2452,-69.78373 -6.2453,-26.3386 -15.2058,-61.36623 -66.2538,-275.8765 -121.6463,-459.9752"
     id="path928" />
  <path
     style="opacity:1;fill:none;fill-opacity:1;fill-rule:nonzero;stroke:#e94282;stroke-width:5;stroke-linecap:butt;stroke-linejoin:round;stroke-miterlimit:4;stroke-dasharray:none;stroke-opacity:1"
     d="m -1190.4131,896.49098 171.2659,69.88882 33.79232,19.5842 397.06039,228.0985 22.65625,16.8962 17.66419,23.0402 39.16843,49.1526 16.51219,13.0561 23.04025,11.1361 26.8803,0.768 21.50423,-4.992 93.69704,-55.6806 30.72034,-14.9762 23.04025,-4.608 25.34428,3.84 31.10435,14.5922 96.38506,82.9449 20.35222,11.5201 28.032313,3.456 27.264301,-2.304 238.850636,-61.4407 54.1446,-19.2002 52.99258,-21.5042 14.97617,-11.9041 13.82415,-18.0482 6.14407,-14.5922 11.13612,-58.3686 8.8321,-24.5763 14.59216,-23.4243 23.04025,-23.4242 19.58422,-13.4402 46.08051,-19.5842 23.42426,-3.456 56.44862,-6.1441 19.20021,-4.2241 26.4963,-12.2881 16.51218,-7.2961 17.66419,-0.768 21.12024,3.4561 67.96875,20.3522 31.87235,19.2002 18.4322,6.1441 16.12818,0.768 20.73623,-2.6881 28.41631,-11.5201 15.36017,-1.92 19.58422,1.536 14.20815,2.688 76.80085,41.0885 22.27225,7.6801 34.92597,4.7462 25.2524,12.4905 39.3722,27.4247 16.0204,19.0073 7.8744,17.9211 1.3577,16.5634 -4.3446,22.2657 -13.0335,29.0539 -1.6292,23.3517 1.6292,10.5898 8.4175,19.5503 27.9678,37.4714 14.6627,11.6759 18.1927,9.7751 17.378,3.2584 99.3807,-8.1459 17.1065,-6.7883 72.4991,-43.1736 23.6233,-8.4175 20.6364,-1.3577 210.4373,11.1328 27.1532,-0.2715 162.6477,-14.1197 21.7225,1.6292 22.8087,9.5036 12.762,9.7752 125.9909,123.2755 18.7357,10.5898 20.9079,8.4175 18.7358,2.9868 30.14,-4.616 185.7279,-53.2203 30.6831,-0.8146 23.0802,2.1723 48.0612,24.9809 10.3182,8.146 13.3051,15.4773 40.4582,53.7633 18.7358,16.2919 22.2656,7.3314 25.2525,1.3577 80.9165,-8.6891 46.3625,-5.1418 22.2722,3.648 23.8083,11.5202 15.7442,14.5921 65.6647,83.7129 31.4883,40.7045 22.8483,32.8323 7.1041,14.2082 3.456,18.2402 5.3761,62.4007 4.608,24.3843 6.5281,20.7362 11.9041,25.3443 12.0962,22.6562 18.2402,41.8565 7.7925,55.0484 13.5197,33.6566 23.5883,56.1051 8.6891,31.0904 9.2321,19.0072 17.6495,67.34 9.2321,26.067 13.8482,24.1664 27.1532,34.213 15.2057,12.4905 19.2788,8.689 75.4859,23.0802 19.5503,11.9474 60.8232,47.7897 26.3386,21.1795 21.1795,20.3649 13.8481,24.1663 8.9606,26.3386 13.5766,42.6305 14.3912,23.3518 96.6654,144.9981 119.474,173.5089 12.219,24.1664 7.0598,19.8218 2.4438,21.1795 2.9869,86.0757 6.5167,58.1078 8.9606,85.8041 7.8744,25.2525 15.7489,32.5838 6.5167,26.3386 0.2716,27.1533 -33.3984,125.1762 -48.6043,153.6871 -18.1926,41.8159 -11.6759,17.9211 -73.8567,97.48 -101.8245,136.3091 -26.6102,34.213 -26.6101,24.4379 -24.4379,34.213 -27.1532,47.5181 -12.762,24.4379 -5.4306,23.3518 -18.7357,94.7646 -10.8613,23.6233 -95.3077,133.0507 -36.3853,42.6305 -19.8219,17.9211 -36.9283,19.8219 -106.7121,45.0743 -44.2597,16.0204 -23.8948,14.3912 -20.6365,20.0933 -31.7692,46.432 -45.6174,81.7312 -23.3517,36.3852 -14.1197,14.3912 -54.5779,40.4583 -14.6628,19.0072 -10.8612,17.3781 -10.0467,24.1663 -6.7883,23.6233 -4.073,64.8962 -14.6627,189.5293 -10.3182,25.2525 -40.1868,78.7443 -13.305,16.0204 -43.4452,36.1137 -29.8685,20.0934 -24.9809,19.5503 -28.5109,31.4977 -130.0638,153.6871 -16.0204,21.1795 -11.9474,19.5503 -8.146,23.6233 -11.4043,62.1808 -6.7883,70.8699 -66.7969,402.6819 -64.6246,385.5755 v 39.1006 l 2.7153,38.5575 7.0598,158.0316 11.4044,46.1605 19.5503,31.4977 27.1532,47.2466 13.5766,47.7896 21.1795,103.1822 18.4642,148.2564 -2.1723,50.505 -10.8613,43.9882 -15.2058,48.3327"
     id="path1006" />
</svg>
