<svg xmlns="http://www.w3.org/2000/svg" viewBox="0 -50 2500 1750" height="1750" width="2500"><path d="M867.996 1072.587l-8.391 8.47-7.26 1.584-16.474-1.947-16.726-3.05-10.175-3.841-4.599-8.18-3.335-12.11-7.866-35.724-5.307-5.81-11.639-10.333-11.168-7.236" style="line-height:normal;font-variant-ligatures:normal;font-variant-position:normal;font-variant-caps:normal;font-variant-numeric:normal;font-variant-alternates:normal;font-feature-settings:normal;text-indent:0;text-align:start;text-decoration-line:none;text-decoration-style:solid;text-decoration-color:#000;text-transform:none;text-orientation:mixed;shape-padding:0;isolation:auto;mix-blend-mode:normal" color="#000" font-weight="400" font-family="sans-serif" white-space="normal" overflow="visible" fill="none" stroke="#ee7100" stroke-width="5" stroke-linejoin="round"/><path d="M1890.589 553.473l-14.622 1.439-20.374 9.348-65.677 37.632-11.266 9.828-6.951 10.307-2.157 14.142 1.198 11.266 5.273 20.134 8.39 30.202 9.348 17.738 11.985 16.539 7.67 9.828 1.199 5.513-.72 4.314-1.917 4.075-15.101 7.19-26.127 15.342-23.01 10.546-39.072 14.622-15.34 3.355" fill="none" stroke="#ee7100" stroke-width="5" stroke-linejoin="round"/><path d="M776.102 807.288l-15.206-9.323-33.558-7.431-4.314-4.794-27.086-52.014-9.348-10.787-11.266-8.389-13.184-5.753-79.1-27.565-24.449-23.73-35.235-60.883-2.637-10.786.72-10.307 9.108-29.483 25.408-91.325M968.37 1051.112l-1.4.164-2.811-.79-2.637-2.278-3.955-20.614-10.307-19.415-39.91-48.958-1.725-1.962-4.911-.18-27.364 20.236-3.769-.41M1097.09 1009.499l10.468-15.222-1.498-5.753-22.053-13.423-.719-5.274 31.245-49.954M1160.846 843.267h7.055l12.465 8.63 8.629 6.232 9.828 11.265 6.95 13.663 4.555 13.663 1.198 14.142v10.067l2.648 2.656 21.722-.916 5.52-3.824 8.34-8.944 30.401-67.605s5.822-6.01 5.89-6.06l6.666-4.87 6.721-6.236 7.042-1.691 13.99-5.589h.01l11.506-2.637c.028 0 .057-.012.086-.012.068 0 .135.01.198.03l7.91 2.876c.073.027.138.07.191.127l7.91 8.39a.535.535 0 0 1 .063.08l7.43 11.983a.454.454 0 0 1 .073.237l1.196 22.46 4.755 13.555 4.692 8.448 11.035 4.93 6.08 1.892 209.32 14.4c.01 0 16.326 2.229 16.332 2.229l12.688.889 5.1-2.018 4.675-11.626 6.95-10.786 9.589-9.348 8.869-14.382 2.876-14.142-1.438-16.54-3.356-9.348-.24-3.595 2.877-4.315 9.348-.24 26.127-4.554" fill="none" stroke="#ee7100" stroke-linejoin="round"/><path d="M1214.174 923.585l-3.127 4.056-1.198 13.423-3.236 11.865-4.075 9.708-3.236 5.992" style="line-height:normal;font-variant-ligatures:normal;font-variant-position:normal;font-variant-caps:normal;font-variant-numeric:normal;font-variant-alternates:normal;font-feature-settings:normal;text-indent:0;text-align:start;text-decoration-line:none;text-decoration-style:solid;text-decoration-color:#000;text-transform:none;text-orientation:mixed;shape-padding:0;isolation:auto;mix-blend-mode:normal" color="#000" font-weight="400" font-family="sans-serif" white-space="normal" overflow="visible" fill="none" stroke="#ee7100" stroke-linejoin="round"/><path d="M646.08 970.547l86.531 17.737 8.15 4.075 17.258 1.438 8.901 1.705M646.08 970.547l-336.294-62.322-28.285-7.43-21.093-4.075-4.075-3.596-23.01-32.359-11.746-8.868-8.15-8.39-4.075-1.438-5.752 1.198-15.58 11.985-13.184 16.06-4.794 2.397-70.95 34.037-5.753 7.43M1095.117 1010.777l5.307 1.85 10.339 5.508 11.61 8.814 13.22 7.373 9.83 2.881 5.17 2.119 4.492-.34 39.807-63.018-1.642-5.717M1114.533 919.873l45.84-75.702 4.826-7.844 19.185-35.76 4.604-9.492-1.79-6.414-11.147-5.033-1.534-2.27M1299.434 825.13l2.458-4.634 32.72-55.49 6.45-8.509 48.105-39.277 39.052-36.15 14.49-10.58 22.124-13.301 12.39-7.746 19.36-16.968 8.078-5.78 11.23-3.814 84.533-15.466 10.79-1.895M866.286 1073.908l31.697-27.056 46.573-36.051 4.284.809" fill="none" stroke="#ee7100" stroke-linejoin="round"/><path d="M1193.25 970.247l-77.092-46.442-.933-.392-.692-3.54" fill="none" stroke="#ee7100" stroke-linejoin="round"/><text style="line-height:125%;-inkscape-font-specification:Sans" y="156.96094" x="89.453133" font-weight="400" font-size="143.99993896px" font-family="Sans" letter-spacing="0" word-spacing="0"><tspan y="156.96094" x="89.453133">1970</tspan></text><path d="M1095.117 1010.777l-23.962-8.23-10.102-5.58-8.45-7.643-5.304-2.035-5.587.81-2.735 4.467-.123 6.22-.803 6.472-4.856 5.397-40.607 28.492-24.217 11.965M1174.517 777.358l-9.589-42.738-.674-7.64-9.138-34.232-3.896-21.648-1.198-28.764 1.573-10.262 6.741-34.157 7.116-37.003 2.997-21.872 4.344-10.337 3.745-6.966 25.843-26.817 19.1-21.235 8.615-12.154 5.094-8.82 6.048-6.049 7.163-13.052 4.616-12.734 3.343-16.872.637-6.845 4.616-17.668 2.387-7.959 6.845-13.848" fill="none" stroke="#ee7100" stroke-linejoin="round"/><path d="M802.912 1059.92l-2.004 8.333-3.874 5.794-5.826 13.559-.53 27.33 2.436 6.568 42.48 33.369" fill="none" stroke="#ee7100" stroke-width="5" stroke-linejoin="round"/><path d="M766.92 995.501l-2.856-3.142-1.731-3.03-.479-7.637 4.315-11.985v-3.236l-2.876-4.314-13.423-8.63-12.225-9.348-142.62-154.844-22.052-32.359 2.157-3.595 26.127-5.753 13.663-1.918 24.689 17.019 18.098 11.675 69.631 16.13M933.934 1086.385l-1.535 3.65 1.318 50.097 12.225 13.183 22.292 17.738 3.835.719 6.711-1.438M1097.09 1009.499l1.777 3.046" fill="none" stroke="#ee7100" stroke-linejoin="round"/><path d="M657.177 856.283l-.811 4.519-29.43 26.069M656.366 860.802l4.634.463" fill="none" stroke="#ee7100" stroke-linejoin="round"/><path d="M793.17 1017.79l5.462-5.82 13.436-1.31" fill="none" stroke="#ee7100" stroke-width="5" stroke-linejoin="round"/><path d="M812.068 1010.66l19.007-1.311 38.506-28.51v-3.933l-11.961-15.239 7.611-12.406m0 0l.036-7.123-46.808-73.11 3.476-9.385-.348-3.476-32.094-36.497-13.391-12.382M944.556 1010.8l.773-4.821M1199.302 968.629l-4.41 7.335" fill="none" stroke="#ee7100" stroke-linejoin="round"/><path d="M853.851 992.308l4.096.737 39.162 49.812 5.49.41M961.523 1048.209l.088 9.249.085 9.237-1.99 3.898-18.515 11.553-9.768 5.686-15.151 6.744-10.763 2.712-6.102.34-5.593 7.796-8.56 8.39-14.914 18.559-62.882 80.17-40.17 52.372-9.49 12.373-5.763 11.356-6.272 6.78-3.559 10.847-.678 4.577-9.152 20.677-17.967 82.543" fill="none" stroke="#ee7100" stroke-linejoin="round"/><path d="M835.594 1154.873l8.904 6.721.477 3.184" fill="none" stroke="#ee7100" stroke-linejoin="round"/></svg>