<?xml version="1.0" encoding="UTF-8" standalone="no"?>
<svg
   version="1.1"
   width="8150"
   height="7250"
   viewBox="-1310, -2510, 8150, 7250"
   id="svg2"
   xmlns:xlink="http://www.w3.org/1999/xlink"
   xmlns="http://www.w3.org/2000/svg"
   xmlns:svg="http://www.w3.org/2000/svg"
   xmlns:rdf="http://www.w3.org/1999/02/22-rdf-syntax-ns#"
   xmlns:cc="http://creativecommons.org/ns#"
   xmlns:dc="http://purl.org/dc/elements/1.1/">
  <metadata
     id="metadata49">
    <rdf:RDF>
      <cc:Work
         rdf:about="">
        <dc:format>image/svg+xml</dc:format>
        <dc:type
           rdf:resource="http://purl.org/dc/dcmitype/StillImage" />
      </cc:Work>
    </rdf:RDF>
  </metadata>
  <defs
     id="defs6" />
  <image
     xlink:href="../../timelines/streetmap/berosm.png"
     style="display:none"
     x="-1488.333"
     y="-2537.8569"
     width="8424.5244"
     height="7397.1431"
     id="image12" />
  <path
     style="fill:none;stroke:#00ff66;stroke-width:5;stroke-linejoin:round;stroke-opacity:1"
     d="m 977.0936,2347.2938 229.2072,-132.2415 27.0239,-33.6274 36.8227,-61.5677 36.9564,-60.5692 84.8639,-141.3565 63.1635,-80.9708 52.5539,-64.429 58.9021,-49.7744 39.942,-71.3584 1.1102,-26.3319 2.8071,-49.806 18.8009,-66.8253 44.9615,-78.148 13.0805,-40.0117 6.7049,-10.6527 11.5117,-7.6696 271.7404,-29.71 7.0813,-2.9015 17.2347,-14.8247 25.8911,-28.9691 6.8558,-13.3259 2.6607,-22.6785 10.4446,-23.2781 7.9528,-9.4159 37.4172,-31.5148 20.2776,-16.5401 20.253,-13.7893 31.6846,-45.1837 40.9712,-54.682 170.3927,-241.03417 77.7346,-55.75691 99.0036,-34.58981 21.5707,-8.58554 24.7393,-21.31603 7.3914,-25.42272 -3.2267,-23.54788 -6.6785,-22.34642 -1.4643,-21.11136 9.6959,-29.17234"
     id="path3572" />
  <path
     style="fill:none;stroke:#ea7713;stroke-width:5;stroke-linecap:butt;stroke-linejoin:round;stroke-miterlimit:4;stroke-dasharray:none;stroke-opacity:1"
     id="path2818"
     d="m 2075.2093,417.50769 -44.7968,19.88497 -34.4028,10.02832 -93.5409,16.14843 -82.1855,28.35115 -23.3557,14.09867 -48.8729,79.35943 -20.6562,43.18342 -17.0337,41.2739 -6.5514,15.7233 -35.3777,36.688 -109.4086,109.40862 -30.1364,20.3093 -25.5506,12.4477 -48.4804,48.4805 -11.7926,16.3786 -7.2065,20.3094 -7.8617,24.8953 -2.6205,36.688 1.3102,98.2711 3.9309,93.6852 3.2757,43.2393 v 26.8608 l -5.2412,16.3786 -15.0682,24.8953 -16.3785,18.344 -18.344,14.4131 -8.5168,14.4131 -9.172,19.6542 -28.171,51.7561 -5.8963,72.7207 -0.6551,60.9282 0.6551,70.1001 2.6205,121.8563 -23.585,55.6869 v 14.4131 l -1.3103,118.5806 -2.6206,110.7188 -37.343,60.9282 -29.6273,50.0078 -9.0181,29.4109 -0.7377,16.1996 1.5759,23.5861 22.5176,31.1842 35.8533,29.096 97.8616,55.9362 31.6652,20.7833 7.444,12.9014 45.4358,108.6025" />
  <path
     style="fill:none;stroke:#78513d;stroke-width:5;stroke-linecap:butt;stroke-linejoin:round;stroke-miterlimit:4;stroke-dasharray:none;stroke-opacity:1"
     d="m 402.94559,882.07796 50.83655,28.40224 32.85533,5.798 66.99911,12.8846 153.96911,19.3266 34.14378,1.2885 h 44.45133 l 34.78799,-1.9327 31.56689,-1.2884 40.58599,3.2211 h 52.182 l 34.14375,6.4422 24.48048,2.5769 13.5286,3.8653 18.0383,18.0383 5.798,13.5286 2.5768,16.7498 2.277,29.7577 13.5498,17.9454 21.4148,11.1619 118.1959,2.9119 78.2557,14.5096 110.2403,15.7961 54.7862,19.847 140.8227,29.5222 18.4215,-2.1474 48.0825,-24.2421 18.9128,-1.1941 20.7157,7.2722 12.6469,12.0143 6.8376,20.4923 12.5624,39.6196 6.7643,22.8699 12.8844,17.394 15.7835,9.3412 17.7161,3.8654 15.4613,-1.6106 52.3373,-2.8481 101.536,-10.0106 41.7108,1.9068 23.1197,-3.5752 20.2595,-5.9587 23.5964,-13.1091 41.5102,-34.5437 12.5653,-10.4565 5.798,-4.5095 5.798,-3.5433 h 6.1201 l 11.9907,7.9301 51.4752,28.2431 50.5643,21.8656 26.8765,8.1996 148.0485,24.1433 70.6078,11.3884 194.5129,32.3428 160.8035,26.421 48.8379,7.9803 37.7672,16.9501 63.7059,34.2155 28.0236,14.8171 14.8172,18.0382 26.4131,36.0765 10.9517,12.8844 14.1729,12.8845 23.192,30.2784 12.2402,21.9036 20.6152,43.8071 27.1774,69.3029 3.1247,20.3816 -26.3979,139.2598"
     id="path3474" />
  <path
     style="fill:none;stroke:#1b5ea4;stroke-width:5;stroke-linecap:butt;stroke-linejoin:round;stroke-miterlimit:4;stroke-dasharray:none;stroke-opacity:1"
     id="path3592-3"
     d="m 1635.9817,262.13441 -44.5704,109.80359 4.5767,19.29908 40.586,128.2002 9.0191,18.0382 18.0383,23.192 66.3548,83.1048 38.0091,50.2494 25.1247,9.6633 14.1729,10.3075 37.8838,31.74042 20.0962,12.0667 7.4086,11.2739 1.4463,29.6012 3.3853,14.5281 11.9893,11.746 21.5103,44.3013 36.7206,76.0183 12.2403,53.1483 8.0527,21.9036 17.7161,35.7543 18.6825,38.6533 6.7643,19.9709 19.0046,14.1729 22.2256,10.3076 7.2708,6.7064 3.406,14.3134 12.8768,12.7245 8.5113,8.9714 7.6922,8.1948 19.8705,21.6392 8.5086,15.9772 3.4053,14.9525 5.086,5.8245 11.0322,7.8439 2.5184,4.5981 0.3351,8.0648 -1.6105,22.2257 -3.8653,19.9709 -7.0865,24.8025 -51.7489,112.1708 -13.2919,27.9278 0.01,5.5228 1.5468,5.2266 3.9481,4.0603 62.5647,28.881 14.6242,16.7814 32.2788,85.7861 27.0574,73.7634 -0.9664,6.7644 -5.1537,20.6151 -0.3222,18.6824 4.5096,22.2257 0.3221,29.6342 6.7643,33.8217 10.6297,43.8071 18.0382,65.3885 26.091,76.6625 16.7038,48.7506 13.0116,26.56 7.7926,44.8832 13.8503,39.9799 14.9199,64.4558 -0.7549,10.9917 -45.4081,104.8426 -0.5551,10.9176 10.769,42.6996 2.1579,25.7759 3.6652,107.933 -2.8297,70.7598 2.8647,49.9123 5.2993,9.8742 12.1037,19.439" />
  <path
     style="fill:none;stroke:#3a9fd7;stroke-width:5;stroke-linecap:butt;stroke-linejoin:round;stroke-miterlimit:4;stroke-dasharray:none;stroke-opacity:1"
     d="m 2877.9901,2808.3588 -23.8362,-19.9709 -34.1438,-41.2302 -15.4613,-24.4804 -18.6494,-31.81 -99.364,-120.1066 -66.0041,-48.9813 -67.2427,-60.3376 -23.6406,-26.9163 -31.5952,-45.9155 -39.61,-154.519 -30.1333,-69.5877 -25.7553,-54.4813 -12.8845,-33.4996 -17.394,-30.9226 -7.0864,-48.9609 -7.0865,-68.2876 -13.5286,-44.4513 -22.5478,-54.7589 -32.2111,-39.9417 -86.3258,-65.7107 -30.2784,-15.4613 -62.3652,-11.9368 -60.1305,-14.1951 -110.0685,-33.1366 -52.8492,-18.0537 -15.8904,-1.1811 -7.2786,-6.8562 -4.1875,-11.2739 13.5287,-28.3457 -3.5432,-27.7016 -5.1538,-8.3749 -23.8362,-8.3749 -16.1056,-4.5095 -21.9035,0.6442 -16.1056,-1.9327 -14.8171,5.1538 -12.8844,12.8845 -7.0865,10.9517 -3.8653,14.8172 -3.2211,9.6633 -7.0865,18.0382 -10.3075,10.3076 -11.596,4.5095 h -14.1729 l -19.9709,5.798 -12.2402,6.4422 -10.3076,16.1056 -17.394,7.7307 -28.3457,4.5095 -17.394,-0.6442 -175.8727,28.99 -81.8162,16.1055 -44.4513,15.4614 -56.0474,0.6442 -15.4613,-8.3749 -21.9036,-19.3267 -17.394,-17.394 -47.0282,-57.98 -16.1055,-23.8362 -14.1729,-70.8644 1.9327,-19.9709 4.5095,-21.9036 -7.0864,-44.4513 -5.798,-35.4322 -11.596,-55.4031 -2.5769,-28.99 7.0864,-23.192 8.3749,-18.6824 -0.6442,-29.6343 -3.9575,-42.2792 -17.9255,-13.0756 -25.8683,-6.4597 -168.35847,23.2561 -25.12253,-11.4293 -11.28519,-23.3533 -4.46486,-53.4039 -8.35926,-9.2791 -45.62799,-28.9433 -35.53395,-4.4201 -13.50281,-13.4943 -18.77605,-77.86111 -14.79336,-42.60377"
     id="path3514" />
  <path
     style="fill:none;stroke:#7d64b1;stroke-width:5;stroke-linecap:butt;stroke-linejoin:round;stroke-miterlimit:4;stroke-dasharray:none;stroke-opacity:1"
     id="path3617-5"
     d="m 878.32457,124.52918 18.03822,26.4131 23.83622,41.2302 36.72071,73.4413 18.6824,31.5669 25.76888,50.8936 20.6151,25.7688 34.1438,36.0765 40.586,45.0955 19.3266,14.1729 23.8362,10.9518 52.182,20.6151 27.0574,7.7306 39.9417,18.0383 46.384,19.3266 30.2785,14.8171 43.1629,40.5862 97.9217,90.8353 76.6625,71.50862 114.0273,106.2967 27.0573,27.0573 47.6725,50.8937 28.99,36.0764 43.1628,57.98 37.3649,50.8936 5.1538,38.6533 10.9518,105.0082 11.596,122.4022 9.6633,88.9027 9.0191,89.5469 -5.1538,23.192 -16.4276,24.4804 -17.0719,36.0764 -12.8844,47.0283 -5.1538,31.5668 0.5226,53.8321 3.6349,20.9263 -2.3983,161.1638 -4.1006,19.326 0.4087,101.0067 -2.5769,23.192 -14.1729,98.566 3.8654,46.384 10.9517,94.7006 9.6634,68.2876 12.2402,62.4895" />
  <path
     d="m 1419.471,1470.309 21.9033,11.9185 108.5514,36.7206 57.6579,21.5815 42.0132,15.4067 11.8439,-0.4556 12.2995,3.6443 40.5425,-0.4555 7.744,-4.5553 5.0109,-7.2886 4.0998,-30.5208"
     id="path3627-8-0"
     style="fill:none;stroke:#f1471d;stroke-width:5;stroke-linecap:butt;stroke-linejoin:round;stroke-miterlimit:4;stroke-dasharray:none;stroke-opacity:1" />
  <path
     d="m 1731.1374,1516.3048 -0.4555,-14.577 9.1106,-51.9309 19.1324,-58.3083 7.2886,-15.4882 23.2322,-29.6097 6.8331,-3.6443 11.8438,-2.2776 20.4991,-7.7441"
     id="path3627-2"
     style="fill:none;stroke:#f1471d;stroke-width:5;stroke-linecap:butt;stroke-linejoin:round;stroke-miterlimit:4;stroke-opacity:1;stroke-dasharray:none" />
  <path
     d="m 1951.2328,628.61471 -0.346,16.7682 5.1538,33.4995 4.3653,30.9564 -4.9422,20.2593 -8.5143,11.1344 -17.4709,9.8797 -12.0147,2.2402 -62.2872,5.2405 -25.3797,8.90555 -18.8706,15.00643 -27.8763,33.78355 -6.2637,24.2374 4.7383,42.49759 10.3354,56.56108 12.8132,20.68682 64.7868,60.04897 19.3267,28.0236 15.7834,26.7353 11.2739,24.8025 0.9664,12.5623 -17.394,52.5042 -9.6634,12.2402 c -3.2211,0.3221 -17.394,0.9663 -17.394,0.9663 l -13.8507,7.0865 -15.7835,16.4276 -3.5432,11.2739 3.5432,27.3794 -8.0528,12.5624 -8.3748,5.1538 -35.4323,4.8316 -16.1055,4.8317 -7.7307,6.4422 -2.819,23.7551 -5.2338,68.3687 2.2548,11.9181 37.687,50.8935 4.5096,11.596 -0.6443,13.8508 -25.1475,59.968 -19.917,18.5988 -19.5692,12.7565 -18.1488,26.5694 -5.1538,20.9372 -1.2884,29.9563 -2.2548,53.7926 -1.6106,17.7161 -5.4758,26.091 -12.5624,34.788 -28.3458,83.7489 -20.9372,54.4367 -37.0427,116.9264 -34.4659,95.0227 -7.4086,25.4468 0.3221,20.6151 1.6106,27.7016 4.8316,34.1437"
     id="path3635"
     style="fill:none;stroke:#008940;stroke-width:5;stroke-linecap:butt;stroke-linejoin:round;stroke-miterlimit:4;stroke-dasharray:none;stroke-opacity:1" />
  <path
     d="m 774.60438,1359.5028 25.7688,7.7307 86.3258,-9.0191 342.72622,-36.7207 11.596,2.5769 10.3076,10.3076 28.3458,36.0764 25.1246,19.9709 54.7589,41.2302 15.4613,3.2211 8.7307,11.8845 21.7593,15.1392 13.9616,8.4085"
     id="path3627"
     style="fill:none;stroke:#f1471d;stroke-width:5;stroke-linecap:butt;stroke-linejoin:round;stroke-miterlimit:4;stroke-dasharray:none;stroke-opacity:1" />
  <path
     d="m 1950.0272,632.97778 1.0921,-19.38951 -7.6992,-43.22581 -21.55,-40.52309 -99.8154,-94.00976 -98.5784,-88.28035"
     id="path3639"
     style="fill:none;stroke:#008940;stroke-width:5;stroke-linecap:butt;stroke-linejoin:round;stroke-miterlimit:4;stroke-opacity:1;stroke-dasharray:none" />
  <path
     d="m 3059.6608,2269.7892 25.1246,15.4613 30.9227,1.2884 29.6342,-9.0191 165.5651,-48.3166 8.3749,-0.6443 12.8845,3.2212 117.2484,41.8744 13.5287,14.8171 25.1246,47.0282"
     id="path3647"
     style="fill:none;stroke:#008940;stroke-width:5;stroke-linecap:butt;stroke-linejoin:round;stroke-miterlimit:4;stroke-opacity:1;stroke-dasharray:none" />
  <path
     d="M 1723.6236,347.92426 1580.4638,222.28618 1424.2713,79.55952 1319.8445,-12.210735 1293.7221,-39.040295 1271.8814,-72.18624 1116.5,-283.5 l -31,-52.5 -92,-126.5 -81.5,-114.5 -14.5,-29 -7,-30.5 0.5,-26 13,-180 6.5,-143 16,-242 -4,-29 9,-35.5 2.5,-66.5 -2.5,-39 -6,-33 -119,-411.5 -87.5,-310 -18,-41.5 -16.5,-29 -22.5,-30 -48,-51.5 -53.5,-102"
     id="path4387"
     style="fill:none;stroke:#008940;stroke-width:5;stroke-linecap:butt;stroke-linejoin:round;stroke-miterlimit:4;stroke-opacity:1;stroke-dasharray:none" />
  <path
     d="m 2757.7703,1957.3566 -220.7499,-245.487 -12.3426,-21.1554 -1.3666,-19.5879 6.833,-19.5879 7.2885,-14.5772"
     id="path4389"
     style="fill:none;stroke:#008940;stroke-width:5;stroke-linecap:butt;stroke-linejoin:round;stroke-miterlimit:4;stroke-opacity:1;stroke-dasharray:none" />
  <path
     d="m 1818.3831,1336.5923 10.2385,-3.8679 24.5988,-4.0998 49.6532,-4.0998 5.9219,-5.0109 6.3776,-7.7441 5.0108,-3.1887 11.3884,-1.3666 8.6551,2.7332 h 9.1106 l 24.5988,17.3103 20.0435,8.6551 17.3104,4.0998 19.588,0.4556 17.3102,-6.833 31.4319,-16.3993 5.0109,-8.1996 3.6442,-9.5662 2.7333,-50.1087 -3.1888,-11.8439 -5.4664,-9.1107 v -10.4772 l 24.5988,-20.499 4.0999,-7.7442 -1.8222,-6.833 -23.6878,-22.3211 -9.5662,-10.0217 -6.3774,-15.0327 2.2776,-11.8438 5.922,-14.1216 -11.8439,-43.2757 2.7332,-9.5662 6.3774,-11.8439 11.8439,-11.8439 5.0109,-23.6877 -0.4555,-22.7768 -2.2777,-24.1432 -1.8221,-81.5407 1.3666,-30.5208 4.0998,-36.4427 16.3992,-116.16109 1.3666,-33.254 -3.1887,-27.7876 -9.5662,-27.332 -1.0377,-17.12157 -6.706,-99.95036 -5.2053,-34.66004 -18.3982,-40.31567"
     id="path3737"
     style="fill:none;stroke:#f1471d;stroke-width:5;stroke-linecap:butt;stroke-linejoin:round;stroke-miterlimit:4;stroke-dasharray:none;stroke-opacity:1" />
  <path
     d="m 1720.7465,1571.4519 -13.3076,14.8171 -14.8171,15.4614 -12.2403,9.6633 -9.6633,30.2785 -41.8744,51.5377 -53.4705,73.4414 -37.3649,46.3839 -13.5286,15.4614 -24.4805,36.7206 -86.97,115.3158 -88.2584,116.6042 -98.566,128.2002 -28.3458,28.99 -26.4131,21.2594 -89.5469,49.6051 -63.7779,38.0091 -57.33584,29.6342 -85.68152,50.8935 -60.55688,35.4323 -109.51777,63.778 -55.4031,28.99 -27.05736,10.9517 -29.63422,7.7307 -21.90355,-2.5769 -34.14378,-15.4613 -128.84443,-93.4122 -70.86444,-49.6051 -16.10555,-7.0865 -22.54778,-1.9327 -19.97088,1.9327 -83.7489,27.0573 -14.1729,5.798 -35.4322,24.4805 -59.9127,38.6533 -28.3457,26.4131 -28.3458,43.8071 -44.4513,63.778 -14.1729,21.9036 -19.202942,20.7488"
     id="path3633"
     style="fill:none;stroke:#008940;stroke-width:5;stroke-linecap:butt;stroke-linejoin:round;stroke-miterlimit:4;stroke-opacity:1;stroke-dasharray:none" />
  <path
     d="m 1913.2127,753.49368 -65.993,6.08864 -45.7244,11.7455 -27.0573,8.3749 -47.0282,30.2785 -65.7107,47.6724 -54.1147,41.8745 -32.2111,22.5477 -23.192,14.8172 -30.2784,4.5096 c 2.5769,1.2884 -141.0847,28.3458 -141.0847,28.3458 l -48.9609,10.3075 -101.7871,23.19198 -86.3257,18.6825 -120.4696,24.4804 -54.11464,14.8171 -38.0091,1.2885 -17.394,5.1537 -22.54777,12.2403 -9.66333,16.1055 -4.50956,21.2593 3.22111,36.7207 9.01911,54.7589 12.88445,68.2875 6.44222,27.7016 1.28844,22.5478 -10.95178,38.0091 -19.97088,41.8744 -4.50956,27.7016 1.28845,36.0764 7.08644,21.2593 19.32667,28.3458 29.63421,32.2111 42.51868,50.8936 24.4804,33.4995 25.12474,29.6343 77.3066,96.6333 46.384,55.4031 21.2593,18.6824 25.7689,12.8845 30.9227,5.798 79.2393,0 43.1629,-1.2885 37.3649,-5.798 47.6724,-1.2884 41.2302,1.9326 21.9036,-10.3075 35.4322,-13.5287 32.8553,-4.5095 19.9709,1.9326 21.9036,9.6634 23.192,15.4613 16.1055,22.5478 16.7498,45.7398 19.3267,22.5477 27.7015,13.5287 40.586,-1.9327 53.4705,3.2211 36.7206,8.3749 38.6534,15.4614 26.4131,15.4613 38.0091,26.4131 30.2784,14.8171 41.2302,16.7498 33.4996,-1.2885 97.2775,-13.5286 36.0765,-8.3749 22.5478,-6.4422 77.9508,-16.7498 119.1811,-29.6342"
     id="path3631"
     style="fill:none;stroke:#008940;stroke-width:5;stroke-linecap:butt;stroke-linejoin:round;stroke-miterlimit:4;stroke-opacity:1;stroke-dasharray:none" />
  <path
     d="m 296.99999,1045.5 19.25,4.25 36.5,7.5 53,8.5 29.25,5.75 22.75,6.5 32.75,15.75 29.25,9.5 26,2.5 30.5,-1.5 180.24999,-19.25 117.75,-12.5 20.5784,-2.1398 17.41424,-1.7744"
     id="path3011"
     style="fill:none;stroke:#008940;stroke-width:5;stroke-linecap:butt;stroke-linejoin:round;stroke-miterlimit:4;stroke-opacity:1;stroke-dasharray:none" />
  <path
     d="m 899.4398,1069.1516 -22.62741,-1.7678 -13.78858,-4.9497 -9.8995,-7.0711 -13.78858,-14.8492 -22.62742,-33.5876 -2.47487,-13.43501 1.76777,-26.87006 -2.12132,-12.02081 -5.65686,-14.49569 -10.25305,-11.66726 -11.31371,-8.13173 -8.48528,-3.18198 -64.34671,-2.47487 -12.02082,-4.24264 -15.55635,-8.48528 L 564.2712,794.79419"
     id="path3785"
     style="fill:none;stroke:#008940;stroke-width:5;stroke-linecap:butt;stroke-linejoin:round;stroke-miterlimit:4;stroke-opacity:1;stroke-dasharray:none" />
  <path
     d="m 339.99999,2723 67.5,-31.5 201.49999,-99.5 26,-14"
     id="path3959"
     style="fill:none;stroke:#008940;stroke-width:5;stroke-linecap:butt;stroke-linejoin:round;stroke-miterlimit:4;stroke-opacity:1;stroke-dasharray:none" />
  <path
     d="m 2389.0253,1978.6009 66.3549,-16.7498 23.8362,-14.1729 15.4613,-19.9709 8.3749,-32.8553 18.6825,-156.546 8.3749,-56.0473 8.3749,-46.384 13.5286,-27.7016 23.192,-32.2111 28.99,-35.4322 11.596,-37.3649 16.7498,-65.0664 44.4513,-74.0856 6.4422,-22.5477 -5.1537,-34.1438 -24.4805,-66.9991 -28.3458,-67.6433 -18.6824,-14.1729 -52.182,-20.6151 -26.4131,-12.8845 -28.99,-40.586 -65.7107,-112.7389 -21.9035,-28.3457 -76.0182,-50.8937 -58.6242,-37.3649 -28.99,-10.9517 -41.2303,-26.4132 -51.5377,-42.5186 -25.1247,-13.5287 -21.2593,-9.0191 -53.4705,-3.2211 -66.3548,2.5769 -38.0092,1.9327 -37.7421,-0.4403"
     id="path3631-6"
     style="fill:none;stroke:#008940;stroke-width:5;stroke-linecap:butt;stroke-linejoin:round;stroke-miterlimit:4;stroke-opacity:1;stroke-dasharray:none" />
  <path
     d="m 2454.736,1961.5285 24.8025,-1.9327 15.7835,4.1874 37.3649,16.1056 27.0573,7.7307 19.3266,-1.2885 120.4696,-27.7015 38.0091,-7.7307 18.0382,3.8653"
     id="path3643-6"
     style="fill:none;stroke:#008940;stroke-width:5;stroke-linecap:butt;stroke-linejoin:round;stroke-miterlimit:4;stroke-opacity:1;stroke-dasharray:none" />
  <path
     d="m 2370.3427,1496.0782 h 7.0864 l 14.1729,3.2211 7.7307,-7.7307 16.7497,-23.8362 18.6825,-37.3649 17.1065,-48.9174 31.6244,-116.0142"
     id="path3629-4"
     style="fill:none;stroke:#4fb638;stroke-width:5;stroke-linejoin:round;stroke-miterlimit:4;stroke-dasharray:none;stroke-opacity:1" />
  <path
     d="m 480.839,1115.3424 17.394,9.0192 16.10555,7.0864 9.01912,10.9518 4.50955,18.0382 15.46133,30.2784 19.32667,42.5187 14.17288,21.2593 14.17289,8.3749 16.10556,5.1538 31.5669,-7.0864 33.49955,4.5095 14.81711,12.2402 66.99907,65.7107 20.6152,16.1055"
     id="path3627-3"
     style="fill:none;stroke:#f1471d;stroke-width:5;stroke-linecap:butt;stroke-linejoin:round;stroke-miterlimit:4;stroke-opacity:1;stroke-dasharray:none" />
  <path
     d="m 1439.4851,1486.595 -37.2432,-20.8544 -22.7766,-15.4882 -12.2995,-5.0108 -18.2213,2.2777 -56.0307,20.499 -23.6878,7.744 -168.478,38.7138 -25.4275,4.5033 -17.3151,-4.5522 -68.26188,-32.7419 -50.43624,-15.2027 -38.44566,-6.7994 -26.40201,-24.8064 -32.03588,-23.1502 -52.29152,-35.1406 -18.67482,-7.3036 -388.52887,39.7367 -25.97209,-3.4972 -274.099149,-89.6773 -7.198774,-7.2822 -0.853472,-11.9221 8.366075,-65.3054 -0.227077,-63.201 -4.914058,-34.0931 -15.537737,-46.5133 -1.643634,-10.7888 6.719649,-30.0301 24.318576,-46.95201 13.703771,-45.54989 1.57281,-24.429 3.89739,-13.93804 13.43111,-15.58488 32.03147,-29.29885 6.22656,-21.18887 23.27941,-44.53432 12.82259,-49.52235 -8.47679,-35.0459 -16.74843,-43.90687 8.46114,-103.556"
     id="path3739"
     style="fill:none;stroke:#4fb638;stroke-width:5;stroke-linejoin:round;stroke-miterlimit:4;stroke-dasharray:none;stroke-opacity:1" />
  <text
     x="-1220.5469"
     y="-2303.0391"
     id="text2838-3"
     xml:space="preserve"
     style="font-style:normal;font-weight:normal;font-size:144px;font-family:Sans;-inkscape-font-specification:Sans;fill:#000000;fill-opacity:1;stroke:none"><tspan
       x="-1220.5469"
       y="-2303.0391"
       id="tspan1">1955 proposal</tspan></text>
  <path
     style="fill:none;stroke:#008940;stroke-width:5;stroke-linecap:butt;stroke-linejoin:round;stroke-miterlimit:4;stroke-dasharray:none;stroke-opacity:1"
     id="path3641"
     d="m 2661.7928,1479.3468 41.2903,14.7992 14.495,4.5095 68.2876,44.4514 75.374,45.0955 23.192,14.1728 21.9035,21.9036 57.98,24.4804 52.8262,39.2975 37.3649,41.8745 23.8362,20.6151 76.0182,55.4031 101.1429,74.7298 152.6807,109.5177 115.96,83.1047 55.4031,41.2302 50.2493,26.4131 41.8744,9.0191 30.2785,1.9327 57.3357,-5.1538 52.182,4.5096 38.0092,7.0864 36.0764,1.2885 65.7107,3.2211 149.4595,6.4422 81.8162,5.798 82.4604,11.596 317.4996,52.8155 237.5,39 33,11.5 29,15 36.5,30 28.5,38.5 22,52.5 27,43 23,22.5 38.5,27 38.5,13 89,15 30.5,13.5 25.5,18.5 23.5,29" />
  <path
     style="fill:none;stroke:#008940;stroke-width:5;stroke-linecap:butt;stroke-linejoin:round;stroke-miterlimit:4;stroke-dasharray:none;stroke-opacity:1"
     id="path3643"
     d="m 2755.5872,1954.7647 92.768,99.8545 34.1438,30.9226 29.6342,30.2785 50.8936,54.1146 86.9699,91.4796 35.4323,32.2111 26.4131,18.6824 30.9226,28.99 45.7398,48.9609 157.8345,184.8918 63.1337,66.3548 74.7298,81.1719 16.1055,20.6151 51.5378,59.2685 38.6533,39.9418 98.566,109.5177 50.8936,57.98 90.5406,95.4996 12,22 16,26.5 57.5,151 95,239 7.5,27.5 60.5,211.5 12.5,31.5 29,60 64.5,165 8.5,32.5 3,34.5 -1.5,29.5 -5.5,34.5 -41.5,156 -6,44.5 -4.5,124 0.5,141" />
  <path
     style="fill:none;stroke:#008940;stroke-width:5;stroke-linecap:butt;stroke-linejoin:round;stroke-miterlimit:4;stroke-dasharray:none;stroke-opacity:1"
     id="path3653"
     d="m 3190.704,1300.3362 51.5931,-14.274 41.5524,-10.3075 25.1247,-0.6443 23.192,5.1538 31.5668,9.0191 26.4131,16.7498 27.7015,4.5096 133.9982,8.3749 83.7489,2.5768 86.97,5.1538 101.7871,5.798 54.7589,0.6442 57.3357,-4.5095 74.7298,-14.1729 253.8235,-38.0091 293.9996,-47.8986 361.5,-54 28.5,-7.5 56.5,-19.5 35.5,-8.5 99,-17.5 124,0.5 205.0001,-31 363.5,-55 141,-22 47.5,0.5 13,1.5" />
  <path
     d="m 1951.2329,628.61443 6.0581,-24.313 13.2787,-15.1056 78.8451,-75.7682 65.2106,-60.3069 46.0956,-48.4224 52.7204,-50.1436 33.2496,-38.6533 36.0764,-56.94159 76.2682,-121.2579 137.5078,-212.0934 45.9567,-68.10881 12,-29 19.5001,-17 134.5,-205 24,-31.5 97.5,-152.5 45,-52.5 188,-169.5 166.5,-150.99997 38.5001,-29.5 30,-14 382.5,-150.50006 53.5,-27 39.5,-21.5"
     id="path3635-8"
     style="fill:none;stroke:#008940;stroke-width:5;stroke-linecap:butt;stroke-linejoin:round;stroke-miterlimit:4;stroke-dasharray:none;stroke-opacity:1" />
  <path
     id="path11624"
     d="m 10.381435,3203.178 -177.807205,-335.5933 -13.8242,-26.6949 -2.8602,-15.2542 0.4767,-13.3475 4.767,-18.5911"
     style="fill:none;fill-rule:evenodd;stroke:#008940;stroke-width:5;stroke-linecap:butt;stroke-linejoin:round;stroke-miterlimit:4;stroke-dasharray:none;stroke-opacity:1" />
  <path
     style="fill:none;stroke:#008940;stroke-width:5;stroke-linecap:butt;stroke-linejoin:round;stroke-miterlimit:4;stroke-dasharray:none;stroke-opacity:1"
     id="path3637"
     d="m 1568.9312,2210.5203 0,27.7016 -12.8844,35.4322 -25.1247,53.4704 -14.8171,26.4131 -37.3649,47.6725 -59.9127,65.0664 -52.8262,58.6242 -55.4031,52.182 -19.3266,25.1247 -11.596,18.0382 -46.384,47.6724 -26.4132,33.4995 -25.7688,38.0091 -20.6151,40.586 -28.3458,68.2876 -14.1515,50.4737 -83.4967,331.7259" />
  <path
     d="m 1566.9097,1511.3363 -28.1268,13.3409 -67.774,32.6022 -38.0091,19.3267 -4.5095,7.7306 2.5769,65.7107 -10.9518,14.1729 -5.1538,9.6633 -1.9327,16.1056 18.0383,78.5951 16.7497,71.5086"
     id="path3623"
     style="fill:none;stroke:#fcd205;stroke-width:5;stroke-linecap:butt;stroke-linejoin:round;stroke-miterlimit:4;stroke-opacity:1;stroke-dasharray:none" />
  <path
     style="fill:none;stroke:#6cc1b0;stroke-width:5;stroke-linecap:butt;stroke-linejoin:round;stroke-miterlimit:4;stroke-dasharray:none;stroke-opacity:1"
     id="path3625-3"
     d="m 377.02839,2668.2411 -1.34056,-16.1347 5.93107,-30.2867 4.79965,-44.1372 -1.77864,-50.9648 10.23745,-35.9561 23.33875,-35.2532 41.30881,-33.1653 25.17954,-32.7291 10.95177,-16.1055 19.32667,-15.4614 27.05733,-30.9226 34.14377,-29.6343 22.54778,-14.8171 31.5669,-11.596 18.03822,-3.8653 26.41311,-0.6442 137.86354,16.1055 18.68242,0.6443 24.48053,-9.6634 40.586,-28.3457 9.0191,-11.596 31.5669,-53.4705 14.8171,-28.3458 3.2211,-16.1055 12.2402,-39.9418 11.5959,-17.394 16.1056,-10.3075 16.7497,-11.596 17.394,-8.3749 31.5669,-4.5096 35.4322,-5.798 16.1056,-9.6633 28.99,-28.3458 23.192,-38.6533 7.7307,-21.2594 2.5768,-21.2593 -1.2884,-22.5478 -5.798,-18.0382 -10.9518,-32.2111 -0.6442,-10.9518 9.0191,-19.9709 1.2885,-16.7497 2.5768,-108.2293 2.5769,-17.394 11.596,-18.0383 81.8162,-47.6724 28.3458,-15.4613 26.2599,-4.5329 10.4608,-5.4526 2.2548,-13.8508 36.7206,-44.1292 31.2448,-48.3166 19.8171,-10.5433 24.4512,13.5475 99.1263,33.4719 25.5603,-12.269 9.3699,-5.1808 9.5934,-1.1916 40.1616,19.3653 7.8655,1.6088 12.2749,-6.7928 49.0399,7.2696 43.2601,1.9663 19.9616,2.4431 13.4667,-2.1452 26.2182,6.8525 23.5368,-0.715 13.8838,3.456 44.3326,15.5522 14.5988,1.0725 25.7415,-4.3498 17.4589,-4.7669 103.562,-0.1192 45.1669,-3.8136 19.5444,0.7151 44.0751,-8.8267 63.0122,0.043 39.1338,-4.2019 15.6109,1.2843 88.6683,-22.0919 10.1372,-5.4568 9.1691,-0.03 12.3045,3.1016 21.9437,-29.2187 18.1736,-36.94 17.2638,-47.2757 31.0646,-116.7001" />
  <path
     d="m 1439.4851,1486.595 97.689,33.4322 43.0301,-21.0503 7.4085,-0.9664 39.2976,18.6825 8.697,2.2548 13.8508,-6.7644 15.4613,2.2548 31.8889,4.8317 43.1629,1.9326 20.293,2.5769 14.1729,-1.9326 25.1247,6.4422 h 10.3076 l 12.8844,-0.6442 12.8844,3.2211 45.7397,15.4613 14.8172,1.2885 27.7015,-4.5096 16.7498,-4.5096 h 51.5378 51.5378 l 45.0955,-3.8653 19.3267,0.6442 20.615,-3.8653 24.4805,-5.1538 h 63.1338 l 17.394,-1.9326 20.6151,-1.9327 16.1055,1.2884 48.9609,-12.2402 41.2302,-10.3075 9.6634,-5.1538"
     id="path3629-7"
     style="fill:none;stroke:#4fb638;stroke-width:5;stroke-linejoin:round;stroke-miterlimit:4;stroke-dasharray:none;stroke-opacity:1" />
  <path
     d="m 2590.1297,1457.8747 14.936,11.6236 4.5402,8.9026 3.0401,13.604 0.1301,20.8772"
     id="path3632-7"
     style="fill:none;stroke:#008940;stroke-width:5;stroke-linecap:butt;stroke-linejoin:round;stroke-miterlimit:4;stroke-dasharray:none;stroke-opacity:1" />
  <path
     d="m 3191.0822,1299.5907 -31.5669,0.6441 -118.5369,-5.1538 -39.9417,4.5096 -25.1247,5.1538 -33.4996,10.9517 -30.2784,19.971 -47.0282,41.2302 -85.0373,71.5086 -15.4614,11.596 -23.192,10.9518 -34.1437,9.6633 -41.2303,-0.6441 -119.5032,-34.788 -100.4986,-29.6342 -77.9509,-25.4468 -20.9372,-9.9854 -36.1942,-24.4473 -25.329,-15.4946 -20.9373,-4.8316 -23.5141,-6.7644 -12.8844,-1.6106 -14.495,0.6443 -11.9181,-3.5432 -12.8845,-10.3075 -20.9372,-12.2402 -20.293,-9.3414 -6.3488,-6.469 -7.1799,-9.6364 -2.899,-11.9182 -12.2402,-20.2929 -3.2211,-14.8171 -8.0528,-14.8172 -35.7543,-38.3312 -12.5623,-12.5623 -13.5287,-8.0528 -10.6297,-2.5769 -12.8844,0.6442 -14.8171,5.1538 -10.9045,6.511 -10.0327,3.4745 -22.8699,0.322 -9.6633,1.2885 -28.0237,18.0382 -5.2902,4.266 -6.6279,4.1089 -11.596,3.8654 -41.2301,2.5769 -9.3414,-1.2885 -4.3482,-1.9418 -8.6891,-3.8812 -12.0872,-6.4172 -9.0191,-3.8654 -10.6297,-0.9663 -18.3603,-0.6443 -10.9518,-3.221 -10.9518,-7.0864 -9.6633,-16.7498 -11.9181,-16.4277 -10.8986,-12.8468 -9.0809,-5.8431 -25.509,-3.3972 -19.8181,1.6465 -9.8011,5.7827 -15.7277,14.0136 -15.7834,14.1729 -52.8262,45.0956 -10.6297,7.4085 -14.8171,5.4759 -14.495,2.2547 -64.4222,-8.6969 -18.0382,-1.6106 -21.9036,5.1538 -19.3266,13.2066 -33.4996,45.4177 -5.4759,12.5623 -27.3794,90.5131 -11.1275,24.2327 -11.7424,20.863 -10.9518,11.918 -13.5287,9.0191 -16.7497,3.2212 -80.5278,-7.7306 -51.5378,-4.8317 -40.2639,-2.5769 -25.1246,4.5095 -17.394,4.5096 -53.7926,20.6151 -24.83173,8.2791 -23.8071,6.5379 -21.9036,3.8654 -19.3267,5.4759 -50.5714,23.5142 -58.9463,30.6005 -16.4277,7.0865 -31.889,19.6486 -15.1392,18.6826 -25.4468,32.2111 -20.6151,36.3985 -10.9518,19.3267 -34.788,31.889 -38.9733,42.3255 -18.2214,40.998 -13.666,32.3429 -29.1541,40.998 -46.8876,39.9765 -64.7246,86.4947 -112.09459,143.0174 -131.4213,173.2957 -130.77711,168.7862 -24.4805,34.1438 -9.6633,19.3267 -7.7307,24.4804 -7.0864,56.0473 -9.0191,23.192 -14.8172,19.9709 -15.46131,16.1056 -22.5199,16.7445 -21.8209,18.9155 -133.4403,102.6792 -98.6706,52.6172 -15,14 -13.5,15.5 -34,45 -123.00001,167.5 -17.5,14 -24,14 -67,11 -104.5,17.5 -213.50001,27.5 -78,13.5 -22.5,-1.5 -89.99994,-11.5 -64.5,-4.5"
     id="path3649-5"
     style="fill:none;stroke:#008940;stroke-width:5;stroke-linecap:butt;stroke-linejoin:round;stroke-miterlimit:4;stroke-dasharray:none;stroke-opacity:1" />
  <path
     d="m 807.13807,1540.8515 -14.8014,-1.695 -25.1404,-6.0357 -21.2593,-11.2739 -19.9709,-23.192 -9.0192,-15.7834 v 0 l -7.7307,-32.8553 -8.6969,-29.312 -17.3941,-19.3267 -23.192,-13.8509 -24.1583,-21.5814 -14.495,-23.192 -14.1729,-13.8508 -25.4467,-6.12 -21.9036,-1.2886 -106.6187,28.0237 -57.98004,14.1729 -14.24874,-2.6695 -13.13071,-3.7727 -27.70155,-22.5478 -32.85533,-32.8553 -11.27389,-22.2257 -5.15377,-83.1047 1.28844,-18.3602 22.54778,-58.9464 6.12011,-24.8025 -0.96634,-22.2256 -11.596,-18.3604 -12.88444,-9.9855 -114.99367,-23.8361 -30.9227,-11.9182 -31.2447,-15.9445 -24.8026,-9.1802 -25.9299,-6.7643 -62.02762,-14.96835 -192.26813,-52.25197 -22.25561,0.3598 -20.49189,2.9097 -48.59752,20.9246 -27.14697,10.09427 -29.72587,1.4742 -98.16588,-11.20007"
     id="path3657"
     style="fill:none;stroke:#008940;stroke-width:5;stroke-linecap:butt;stroke-linejoin:round;stroke-miterlimit:4;stroke-dasharray:none;stroke-opacity:1" />
  <path
     id="path12300-7"
     d="m -186.88587,908.97043 -112.61411,-43.9704 -253.5,-108 -381.00004,-165"
     style="fill:none;fill-rule:evenodd;stroke:#008940;stroke-width:5;stroke-linecap:butt;stroke-linejoin:round;stroke-miterlimit:4;stroke-dasharray:none;stroke-opacity:1" />
</svg>
