<?xml version="1.0" encoding="UTF-8" standalone="no"?>
<!-- Created with Inkscape (http://www.inkscape.org/) -->

<svg
   xmlns:dc="http://purl.org/dc/elements/1.1/"
   xmlns:cc="http://creativecommons.org/ns#"
   xmlns:rdf="http://www.w3.org/1999/02/22-rdf-syntax-ns#"
   xmlns:svg="http://www.w3.org/2000/svg"
   xmlns="http://www.w3.org/2000/svg"
   xmlns:xlink="http://www.w3.org/1999/xlink"
   version="1.1"
   width="5376"
   height="5376"
   viewBox="0 0 5376 5376"
   id="svg2">
  <metadata
     id="metadata15547">
    <rdf:RDF>
      <cc:Work
         rdf:about="">
        <dc:format>image/svg+xml</dc:format>
        <dc:type
           rdf:resource="http://purl.org/dc/dcmitype/StillImage" />
        <dc:title></dc:title>
      </cc:Work>
    </rdf:RDF>
  </metadata>
  <defs
     id="defs6" />
  <image
     xlink:href="../../subtimeline/nycosm.png"
     style="fill:#501616;display:none"
     id="image12"
     height="5376"
     width="3584"
     y="0"
     x="1792" />
  <path
     d="m 3293.5,1510.5 35.5,-26 28,-34 21.5,-42.5 26.5,-10 14,-35.5 32.5,-109 26,-52 37,-65.5 16.5,-33 20.5,-49 22,-61.5001 9.5,-24 43.5,-62 -7.5,-28.5 -0.5,-53.49998 15.502,-37.59239"
     id="path7444-8"
     style="fill:none;stroke:#ff0080;stroke-width:5;stroke-linecap:butt;stroke-linejoin:round;stroke-miterlimit:4;stroke-opacity:1;stroke-dasharray:none" />
  <path
     d="m 793.5,3452 22.5,-2 11,79.5 83.6763,158.4421 L 1000,3850 l 6.5,128 -35.5,157 33,222 50,339 41,289 -2,46 -14,36 -50.5,93 -3.5,5.5 -91.5,26 -66.5,-8.5 -40.5,14.5 -44.5,-7 -3.5,-6 -3,-14"
     id="path3688"
     style="fill:none;stroke:#b0720c;stroke-width:5;stroke-linecap:butt;stroke-linejoin:miter;stroke-miterlimit:4;stroke-opacity:1;stroke-dasharray:none;display:none" />
  <path
     d="m 2377.5,3070 -21.5,33.5 -27,38 -24.5,25 -26.5,10.5 -14,13 -9,15 -30,25.5 3.5,12.5 -30,9 1.5,11"
     id="path4555"
     style="fill:none;stroke:#ff0080;stroke-width:5;stroke-linecap:butt;stroke-linejoin:round;stroke-miterlimit:4;stroke-opacity:1;stroke-dasharray:none" />
  <path
     d="m 2604,2583 66.5,38"
     id="path4577"
     style="fill:none;stroke:#6c6e70;stroke-width:5;stroke-linecap:butt;stroke-linejoin:round;stroke-miterlimit:4;stroke-opacity:1;stroke-dasharray:none" />
  <path
     d="m 2643.5,2512.5 -38.5,-21"
     id="path5111"
     style="fill:none;stroke:#6c6e70;stroke-width:5;stroke-linecap:butt;stroke-linejoin:round;stroke-miterlimit:4;stroke-opacity:1;stroke-dasharray:none" />
  <path
     d="m 2382,3072 -19.5,31 -29.5,40.9999 -25,26.5002 -26.5,10.4999 -14,11.5 -8,13.9999 -29.5,25.5001 5,13.0001 -30.5,10.4999 0,6.0001"
     id="path9453"
     style="fill:none;stroke:#7bd9f5;stroke-width:5.00000048;stroke-linecap:butt;stroke-linejoin:round;stroke-miterlimit:4;stroke-opacity:1;stroke-dasharray:none" />
  <path
     d="m 2377.5,3069.4999 -84,27.0001"
     id="path8941"
     style="fill:none;stroke:#ff0080;stroke-width:5.00000048;stroke-linecap:butt;stroke-linejoin:round;stroke-miterlimit:4;stroke-opacity:1;stroke-dasharray:none" />
  <path
     d="m 2754,2373.5 -111.5,203 -71,128 28,15 -114,205.5 -47,127 -5,14 -46.4393,5.0577 L 2381,3072.5"
     id="path5124"
     style="fill:none;stroke:#7bd9f5;stroke-width:5;stroke-linecap:butt;stroke-linejoin:round;stroke-miterlimit:4;stroke-opacity:1;stroke-dasharray:none" />
  <path
     d="m 2753,2375.5 16,-28.5"
     id="path6156"
     style="fill:none;stroke:#7bd9f5;stroke-width:5;stroke-linecap:butt;stroke-linejoin:round;stroke-miterlimit:4;stroke-opacity:1;stroke-dasharray:none" />
  <path
     d="m 2769,2347 91,-164 132.5,-239.5 120.5,-218.5 28,-48"
     id="path6185"
     style="fill:#00ffff;stroke:#7bd9f5;stroke-width:5;stroke-linecap:butt;stroke-linejoin:round;stroke-miterlimit:4;stroke-opacity:1;stroke-dasharray:none" />
  <path
     d="m 2195.5,3262 -0.5,-9.5 -11,0 -8,-14.5 0.5,-15 7,-34.5 16,-34.5 24.5,-51 11.5,-18.5 9.5,-15 -7,-4 33,-59.5 10.5,-20.5 25.5,-44.5 68,-105.5 -37,-23 22,-45.5 10,-24.5 74.5,-135 41.0285,-73.9487 28.9715,-54.0513 77,-140.5 34.5,-61"
     id="path6424"
     style="fill:none;stroke:#ff6600;stroke-width:5;stroke-linecap:butt;stroke-linejoin:round;stroke-miterlimit:4;stroke-opacity:1;stroke-dasharray:none" />
  <path
     d="m 3123.2719,1659.4428 20.2416,10.7584 -13.8232,25.7035"
     id="path12003"
     style="fill:none;stroke:#7bd9f5;stroke-width:5;stroke-linecap:butt;stroke-linejoin:round;stroke-miterlimit:4;stroke-opacity:1;stroke-dasharray:none" />
  <path
     d="m 2191,3263.5 0,-7 -8.5,0 -11,-16.5 0.5,-16 7.5,-37.5 12,-35 12,-35.5 9,-31.5 19,-105 20,-151.5 11,-44 3.5,-24 8,-36 0.5,-44 31.5,-55.5 130.5,-236.5 79,-146 14.0785,-25.633"
     id="path6936"
     style="fill:none;stroke:#29084a;stroke-width:5;stroke-linecap:butt;stroke-linejoin:round;stroke-miterlimit:4;stroke-opacity:1;stroke-dasharray:none" />
  <path
     d="M 2527.9104,2218.8358 2654.5,1998.5 l 147.611,-267.9408 9.8909,-3.7874 22.228,12.0863 14.2982,-3.8385 57.9107,-105.5539 177.5611,-338.4656"
     id="path6938"
     style="fill:none;stroke:#29084a;stroke-width:5;stroke-linecap:butt;stroke-linejoin:round;stroke-miterlimit:4;stroke-opacity:1;stroke-dasharray:none" />
  <text
     x="89.45269"
     y="206.96094"
     id="text3652"
     xml:space="preserve"
     style="font-size:144px;font-style:normal;font-weight:normal;fill:#000000;fill-opacity:1;stroke:none;font-family:Sans;-inkscape-font-specification:Sans"><tspan
       x="89.45269"
       y="206.96094"
       id="tspan3654">1900</tspan></text>
  <text
     x="89.45269"
     y="5273.9609"
     id="text3652-1"
     xml:space="preserve"
     style="font-size:144px;font-style:normal;font-weight:normal;fill:#000000;fill-opacity:1;stroke:none;font-family:Sans;-inkscape-font-specification:Sans"><tspan
       x="89.45269"
       y="5273.9609"
       id="tspan3654-2">1900</tspan></text>
  <path
     d="m 2013.4448,2736.8674 -41.5209,-1.5969 -101.5666,-23.9544 -61.3232,-29.2291 -28.4952,-15.9793 -33.1474,-17.7118 -7.0266,1.2776 -49.1863,91.9848 -7.6654,20.4411 -13.095,14.692 -5.1103,3.8327 -9.5819,5.1099"
     id="path3104"
     style="fill:none;stroke:#eba119;stroke-width:5;stroke-linecap:butt;stroke-linejoin:round;stroke-miterlimit:4;stroke-opacity:1;stroke-dasharray:none" />
  <path
     d="m 3687.7272,1315.9051 -2.2272,13.5949 -5,37 -5.5,25.5 -21,32 -31.5,27.5 -54.5,70.5 -25,31 -82,73 -20.5,22 -70.5,90 -21,19.5 -19,13 -14,1 -27.5,-12 -9.5,-7.5 -12.5,-26 -13.5,-15.5 -44.5,-25.5 -13.3089,-12.6636 -6.8549,-5.6452 -15.726,-6.0484 -22.1776,10.4839 -6.8549,0"
     id="path3637"
     style="fill:none;stroke:#7bd9f5;stroke-width:5;stroke-linecap:butt;stroke-linejoin:round;stroke-miterlimit:4;stroke-opacity:1;stroke-dasharray:none" />
  <path
     d="m 3079.5,1299.5 20.5,-35.5 29.291,-5.9205 9.7255,-13.2738 16.6772,-79.9183 20.1943,-65.9468 18.4007,-46.9418 18.2645,-36.6778 80.7196,-116.21574 10.9544,-21.11963 12.5203,-35.42927 14.4462,-20.11964 49.5867,-51.76838 22.0247,-48.98734 57.1983,-160.44787 11.1249,-31.24075 36.4962,-50.18224 50.1822,-65.00881 57.5956,-65.00881 5.7025,-20.5291 0,-15.39682 -14.8266,-18.24809 -10.8348,-11.97531 -7.9835,-29.08289 -2.8513,-37.06642 6.843,-53.03351 6.2728,-41.05819 -1.1405,-24.520871 6.2728,-51.892997 6.2728,-30.793647 -6.8431,-16.53732916"
     id="path10731"
     style="fill:none;stroke:#29084a;stroke-width:5;stroke-linecap:butt;stroke-linejoin:round;stroke-miterlimit:4;stroke-opacity:1;stroke-dasharray:none" />
  <path
     d="m 3298,1508 -20.5,16.5 -69.5,129 -7.5,8"
     id="path13467"
     style="fill:none;stroke:#ff0080;stroke-width:5;stroke-linecap:butt;stroke-linejoin:round;stroke-miterlimit:4;stroke-opacity:1;stroke-dasharray:none" />
  <path
     d="m 2377.5,3069.5 8.0758,-12.4673 L 2413,2993.5 l 17.5,-57.5 19.5,-73.5 40.5,-73.5 99,-178.5 91,-165.5 80,-145 91.5,-164.5 100,-181.5 143.5,-260 23.9831,-42.3983 14.9891,8.0608 14.5975,7.2988 22.6514,-11.5774 23.6581,9.3122 8.5572,-6.5437"
     id="path9814"
     style="fill:none;stroke:#ff0080;stroke-width:5;stroke-linecap:butt;stroke-linejoin:round;stroke-miterlimit:4;stroke-opacity:1;stroke-dasharray:none" />
  <path
     d="m 3634.5,788.5 58,-47"
     id="path4022"
     style="fill:none;stroke:#ff0080;stroke-width:5;stroke-linecap:butt;stroke-linejoin:round;stroke-miterlimit:4;stroke-opacity:1;stroke-dasharray:none" />
  <path
     d="m 3478.3948,3614.032 4.605,14.968 -1.5251,28.3327 1.5962,28.3744 6.4201,36.785 -3.7755,9.9762 25.2843,123.5317 28,143 -8,25 -47,97 -4,18.5 2.5,15.5 10.5,17 140.5,168 24,16.5"
     id="path3617"
     style="fill:none;stroke:#b0720c;stroke-width:5;stroke-linecap:butt;stroke-linejoin:miter;stroke-miterlimit:4;stroke-opacity:1;stroke-dasharray:none" />
  <path
     d="m 2484.9301,3000.0003 65.0698,27.9997 224,91 32,12 14,16 93,43 153.9999,115 72,55 320,239 21,17.5"
     id="path3619"
     style="fill:none;stroke:#b0720c;stroke-width:5;stroke-linecap:butt;stroke-linejoin:miter;stroke-miterlimit:4;stroke-opacity:1;stroke-dasharray:none" />
  <path
     d="m 2310.9999,4030.5 111,87.5"
     id="path3636"
     style="fill:none;stroke:#006000;stroke-width:5;stroke-linecap:butt;stroke-linejoin:miter;stroke-miterlimit:4;stroke-opacity:1;stroke-dasharray:none" />
  <path
     d="m 2384.4999,4421.5 2.7475,10.6397 13.7525,24.8603 132,105 15,21 7,18 35,248 16,101 -6,51 -20,82 -6,16 -5,25 5,47 2.5,20"
     id="path3608"
     style="fill:none;stroke:#006000;stroke-width:5;stroke-linecap:butt;stroke-linejoin:miter;stroke-miterlimit:4;stroke-opacity:1;stroke-dasharray:none" />
  <path
     d="m 3241.4414,3430.7222 132.0584,97.7778 104.3547,79.4412 6.6453,5.0588"
     id="path4043"
     style="fill:none;stroke:#6c6e70;stroke-width:5;stroke-linecap:butt;stroke-linejoin:round;stroke-miterlimit:4;stroke-opacity:1;stroke-dasharray:none" />
  <path
     d="m 3638.9998,3098 -11,45 -26,33 -168,56 -46,59 -29,7 -230,29 -148.4999,25 -233,35 -33,5 -77,-2 -130,-8"
     id="path3623"
     style="fill:none;stroke:#006000;stroke-width:5;stroke-linecap:butt;stroke-linejoin:round;stroke-miterlimit:4;stroke-opacity:1;stroke-dasharray:none" />
  <path
     d="m 2419.9999,4116.5 13,5 11,0.5 64,50.5 82.5,65 9,8 4.5,34"
     id="path6848"
     style="fill:none;stroke:#006000;stroke-width:5;stroke-linecap:butt;stroke-linejoin:round;stroke-miterlimit:4;stroke-opacity:1;stroke-dasharray:none" />
  <path
     d="m 2787.5485,3863.5215 5.4514,114.4785 -35,155 31,216 52,357 39,276 1,48 -65,130 -91,27 -63,-6 -5.8019,-0.9434 -7.6981,8.4434"
     id="path3606"
     style="fill:none;stroke:#006000;stroke-width:5;stroke-linecap:butt;stroke-linejoin:miter;stroke-miterlimit:4;stroke-opacity:1;stroke-dasharray:none" />
  <path
     d="m 2467.4999,3322 -1.5,22 -6.5,0 15,49.5 56,28.5 56,33.5 47,33 94,49.5 149.5,41.5 26.5,6 88.5,6 397.4999,29 87.5,8.5"
     id="path6279"
     style="fill:none;stroke:#006000;stroke-width:5;stroke-linecap:butt;stroke-linejoin:round;stroke-miterlimit:4;stroke-opacity:1;stroke-dasharray:none" />
  <path
     d="m 2315.4999,4026.5 -52.5,-40.5 -206.5,256.5 -4,7.5"
     id="path6285"
     style="fill:none;stroke:#006000;stroke-width:5;stroke-linecap:butt;stroke-linejoin:round;stroke-miterlimit:4;stroke-opacity:1;stroke-dasharray:none" />
  <path
     d="m 2409.9999,3238 22,12.5 25,26 -6,16 0,33 7,24.5 6,28.5 6,14.5 4.5,5 36.5,18.5 66,38.5 46.5,32.5 101.5,54.5 175,49 379.9999,26 191.5,16"
     id="path6287"
     style="fill:none;stroke:#6c6e70;stroke-width:5;stroke-linecap:butt;stroke-linejoin:round;stroke-miterlimit:4;stroke-opacity:1;stroke-dasharray:none" />
  <path
     d="m 2861.9995,3577 2,14 -67.5,257.5 -4.5916,6.8509 -4.908,8.6491"
     id="path3621"
     style="fill:none;stroke:#006000;stroke-width:5;stroke-linecap:butt;stroke-linejoin:miter;stroke-miterlimit:4;stroke-opacity:1;stroke-dasharray:none" />
  <path
     d="m 2459.4999,3295.5 23,0.5 1.5,27.5 -2,60 40.5,4 50,2.5 141.5,7 49.5,-7.5 8.5,52 11,59 120.5,-17 339.4999,-52.5"
     id="path6281"
     style="fill:none;stroke:#6c6e70;stroke-width:5;stroke-linecap:butt;stroke-linejoin:round;stroke-miterlimit:4;stroke-opacity:1;stroke-dasharray:none" />
  <path
     d="m 2507.9999,3382 -30,-3 0.5,-55 -11,-0.5 1,-43 -31,-33 -137.5,-144.5 -5.6715,-6.2836 2.5074,-8.7761 18.1791,-15.6716 10.0299,-20.6866 24.4477,-41.3732 -98.4179,-92.7761 -36.3582,-3.7612"
     id="path5126"
     style="fill:none;stroke:#006000;stroke-width:5;stroke-linecap:butt;stroke-linejoin:round;stroke-miterlimit:4;stroke-opacity:1;stroke-dasharray:none" />
  <path
     d="m 2576.9999,3385 8.5,76.5 30.5,64 9.5,39 -54,106.5 -102,161.5 -156,198"
     id="path3817"
     style="fill:none;stroke:#006000;stroke-width:5;stroke-linecap:butt;stroke-linejoin:round;stroke-miterlimit:4;stroke-opacity:1;stroke-dasharray:none" />
  <path
     d="m 3458.4998,3606.5 56.5,35.5 107,-19 24,-6 187,-77 7,-9 -20,-76 -1,-4 20.59,-11.7655 46.6691,-16.2634 84.8528,-19.0919 73.5391,-6.364 43.8406,-20.5061 57.2757,-14.1421 38.1837,-1.4142 32.5269,-4.9498 16.9706,-7.7781 47.3761,-39.598 29.6985,-19.799 69.2965,-18.3848 39.598,-13.435 37.4766,-7.0711 48.0833,-3.5355 31.8198,2.1213 42.4264,10.6066 26.8701,0 39.5979,-11.3137 36.7696,-14.1421 52.3259,-29.6985 30.4056,-16.2635"
     id="path9622"
     style="fill:none;stroke:#006000;stroke-width:5;stroke-linecap:butt;stroke-linejoin:miter;stroke-miterlimit:4;stroke-opacity:1;stroke-dasharray:none" />
  <path
     d="m 2542.9999,5020 19.5,22 9.5,25 -3.5,34 0,24.5"
     id="path7470"
     style="fill:none;stroke:#006000;stroke-width:5;stroke-linecap:butt;stroke-linejoin:round;stroke-miterlimit:4;stroke-opacity:1;stroke-dasharray:none" />
  <path
     d="m 2600.9999,4260 70,479 3,26 -20,180 -2.8824,28.0009 10.8315,114.033 -7.2542,68.9661 -6.1949,45"
     id="path3616"
     style="fill:none;stroke:#006000;stroke-width:5;stroke-linecap:butt;stroke-linejoin:round;stroke-miterlimit:4;stroke-opacity:1;stroke-dasharray:none" />
  <path
     d="m 2426.4999,4119 5.5,13.5 -14,21.5 -4,86 -11,98 -53,242 -16.6704,73.2046 5.7721,38.4734 -14.9322,22.0508 -38.1695,52.5932 45.6441,33.1949"
     id="path9400"
     style="fill:none;stroke:#006000;stroke-width:5;stroke-linecap:butt;stroke-linejoin:round;stroke-miterlimit:4;stroke-opacity:1;stroke-dasharray:none" />
  <path
     d="m 2330.2202,4799.5169 89.9916,79.7034 14.2881,47.0932 24.5503,30.4116 49.5768,41.8257 34.3729,21.4492 19.5,22"
     id="path7470-5"
     style="fill:none;stroke:#006000;stroke-width:5;stroke-linecap:butt;stroke-linejoin:round;stroke-miterlimit:4;stroke-opacity:1;stroke-dasharray:none" />
  <path
     d="m 1504.9997,4150 -15.5,12 -9,23.5 -8,28 0.5,19.5 11,73 -4.5,22 -8,20.5 3.5,62 7,20.5 11.5,19.5 18.5,33 8,16.5 0,20 -9,15.5"
     id="path3670"
     style="fill:none;stroke:#0c3d91;stroke-width:5;stroke-linecap:butt;stroke-linejoin:round;stroke-miterlimit:4;stroke-opacity:1;stroke-dasharray:none" />
  <path
     d="m 1502.9999,4152 -19,6 -14,-3 -12,-12 -14.5,-29 -28,-19.5 -53,-17.5 -13,0 -18.5,10 -27.5,22 -66.9999,22.5 -33,4 -30,-3.5 -18,-8.5 -26.5,-0.5 -54.5,1.5 -17.5,8 -64.50003,51 -45,9.5 -43,18.5 -35,7.5 -125.49999,9 -19.5,10 -91.99999,54 -23.5,6.5 -78,0 -11.5,2.5 -114.99999,5.5"
     id="path3688-4"
     style="fill:none;stroke:#0c3d91;stroke-width:5;stroke-linecap:butt;stroke-linejoin:round;stroke-miterlimit:4;stroke-opacity:1;stroke-dasharray:none" />
  <path
     d="m 1512.9999,4532.5 -3.5,18.5 3,15.5 45,79.5 8,20.5 16.5,106 0.5,22 -6.5,25 1,19 7.5,29.5 0,26.5 -4.5,41 -9,17.5 -31.5,33.5"
     id="path3690"
     style="fill:none;stroke:#0c3d91;stroke-width:5;stroke-linecap:butt;stroke-linejoin:round;stroke-miterlimit:4;stroke-opacity:1;stroke-dasharray:none" />
  <path
     d="m 3911.5,3616 -71,13 5.5,32 -0.5,3 -191,38 -150.5,29.5 -8.7899,-5.6304 -2.9179,-18.2124 -4.5966,-23.5676 -1.6764,-24.447 1.0798,-21.6426 -16.7802,-5.0639"
     id="path5130"
     style="fill:none;stroke:#6c6e70;stroke-width:5;stroke-linecap:butt;stroke-linejoin:round;stroke-miterlimit:4;stroke-opacity:1;stroke-dasharray:none" />
  <path
     d="m 3474.2416,3629.4517 8.727,2.8213 7.7922,3.2707 0.1135,26.3405 1.773,21.6571 6.5314,39.5868 6.5006,3.0523 L 3841,3659.5 l -5.5,-33.5 77,-15.5"
     id="path3628"
     style="fill:none;stroke:#006000;stroke-width:5;stroke-linecap:butt;stroke-linejoin:round;stroke-miterlimit:4;stroke-opacity:1;stroke-dasharray:none" />
  <path
     d="m 2767.683,3384.6211 8.8169,56.3792 6.5,28.5 4.5,27 211.5,-32.5 169.5,-25.5 55,-8.5 139.5,104.5 104.4958,77.6782 7.4668,5.5505"
     id="path4559"
     style="fill:none;stroke:#006000;stroke-width:5;stroke-linecap:butt;stroke-linejoin:round;stroke-miterlimit:4;stroke-opacity:1;stroke-dasharray:none" />
  <path
     d="m 3472.696,3609.8285 42.8038,26.6715 117,-20 112,-45 51.4246,-20.688 5.8254,5.188 5,21 5.75,3.5 531.2572,-199.9553 119.501,-45.2549 127.2792,-46.669"
     id="path4290"
     style="fill:none;stroke:#b0720c;stroke-width:5;stroke-linecap:butt;stroke-linejoin:round;stroke-miterlimit:4;stroke-opacity:1;stroke-dasharray:none" />
  <path
     d="m 4142,3457.5 16.5,3.5 13.5,9 97.5,266.5 74.5,203.5 4,18.5 145,729.5 79,243.5 0.5,21 -5,15 -12.5,16.5 -31,21 -55,26.5 -40.5,20.5 -73,28 -107.5,42"
     id="path4292"
     style="fill:none;stroke:#b0720c;stroke-width:5;stroke-linecap:butt;stroke-linejoin:round;stroke-miterlimit:4;stroke-opacity:1;stroke-dasharray:none" />
  <path
     d="m 2710,3119.9998 64,8.5 55.5,17 15.9934,7.4882"
     id="path2875"
     style="fill:none;stroke:#6c6e70;stroke-width:5;stroke-linecap:butt;stroke-linejoin:round;stroke-miterlimit:4;stroke-opacity:1;stroke-dasharray:none" />
  <path
     d="m 2388.9851,2716.2089 -127.2538,-73.3432 -10.0297,1.8806 -15.0448,29.4626 -3.1344,63.3135 -10.6567,129.7612 -7.5224,56.4179 -11.9105,79.6119 -15.0447,74.597 -18.1791,72.7165 -15.0448,59.5522"
     id="path3036"
     style="fill:none;stroke:#0000ff;stroke-width:5;stroke-linecap:butt;stroke-linejoin:round;stroke-miterlimit:4;stroke-opacity:1;stroke-dasharray:none" />
  <path
     d="m 2337.5821,2813.0597 -4.3881,5.0149 -43.8806,15.0448 -38.8656,-4.0746"
     id="path3806"
     style="fill:none;stroke:#ff6600;stroke-width:5;stroke-linecap:butt;stroke-linejoin:round;stroke-miterlimit:4;stroke-opacity:1;stroke-dasharray:none" />
  <path
     d="m 2182.4328,3105.1791 3.4478,5.9552 32.2836,16.612"
     id="path3808"
     style="fill:none;stroke:#0000ff;stroke-width:5;stroke-linecap:butt;stroke-linejoin:round;stroke-miterlimit:4;stroke-opacity:1;stroke-dasharray:none" />
  <path
     d="m 2592,2340 -93.5,-55 38.5,-74"
     id="path3812"
     style="fill:none;stroke:#ff6600;stroke-width:5;stroke-linecap:butt;stroke-linejoin:round;stroke-miterlimit:4;stroke-opacity:1;stroke-dasharray:none" />
  <path
     d="m 2487.1373,2529.3781 5.7624,-23.9361 11.968,-66.4892 14.1844,-46.9856 10.195,-35.0177 16.8439,-37.6771 8.8652,-21.7198 5.3192,-19.9468 1.773,-31.0282 -4.8759,-37.234 0.8865,-131.2052 11.5248,-51.8615 12.4113,-27.039 128.989,-228.2794 8.4219,-18.1737 4.8759,-35.4608 3.5461,-18.617 126.7726,-226.9496 203.0136,-367.9066 4.8758,-51.8615 10.195,-44.3261 23.9361,-28.81201 26.1524,-66.04588 39.007,-114.36133 3.5461,-12.41131 1.3298,-19.06022 14.1843,-16.40066 70.0352,-37.67718 58.9538,-24.82261 30.8576,-22.58786 6.7565,-10.50462 5.3822,-0.59536 15.5141,9.30848"
     id="path3814"
     style="fill:none;stroke:#ff6600;stroke-width:5;stroke-linecap:butt;stroke-linejoin:round;stroke-miterlimit:4;stroke-opacity:1;stroke-dasharray:none" />
  <path
     d="m 3099.8508,1265.0149 1.8806,-11.9104 1.8805,-31.9702 3.7612,-26.3283 18.806,-42.6269 26.9552,-56.4179 10.0299,-33.2239 15.6716,-33.8507 22.5672,-43.25378 13.1642,-33.22388 33.8507,-56.41791 30.0896,-48.26865 21.3134,-26.95523 36.9851,-57.67164 20.0597,-23.8209 23.8209,-48.89552 -2.5075,-5.01492 -12.9099,-6.73038 10.1189,-16.61576 -21.6567,-12.61336"
     id="path3818"
     style="fill:none;stroke:#29084a;stroke-width:5;stroke-linecap:butt;stroke-linejoin:round;stroke-miterlimit:4;stroke-opacity:1;stroke-dasharray:none" />
</svg>
