<?xml version="1.0" encoding="UTF-8" standalone="no"?>
<svg
   xmlns:dc="http://purl.org/dc/elements/1.1/"
   xmlns:cc="http://creativecommons.org/ns#"
   xmlns:rdf="http://www.w3.org/1999/02/22-rdf-syntax-ns#"
   xmlns:svg="http://www.w3.org/2000/svg"
   xmlns="http://www.w3.org/2000/svg"
   xmlns:xlink="http://www.w3.org/1999/xlink"
   id="svg2"
   version="1.1"
   width="3300"
   height="2050"
   viewBox="0 0 3300 2050">
  <metadata
     id="metadata8">
    <rdf:RDF>
      <cc:Work
         rdf:about="">
        <dc:format>image/svg+xml</dc:format>
        <dc:type
           rdf:resource="http://purl.org/dc/dcmitype/StillImage" />
        <dc:title></dc:title>
      </cc:Work>
    </rdf:RDF>
  </metadata>
  <defs
     id="defs6" />
  <image
     xlink:href="../../timelines/sfo/./../streetmap/hnlosm.png"
     width="3773"
     height="2200.92"
     preserveAspectRatio="none"
     id="image10"
     x="-100"
     y="49.08"
     style="display:none" />
  <path
     style="fill:none;fill-rule:evenodd;stroke:#0065a4;stroke-width:5;stroke-linecap:butt;stroke-linejoin:round;stroke-miterlimit:4;stroke-dasharray:none;stroke-opacity:1"
     d="m 162.32,1151.29 -1.85,-31.95 13.16,-28.21 16.54,-15.65 16.0,-28.52 11.92,-50.62 0.23,-51.32 -10.37,-35.61 -20.13,-33.67 -10.93,-16.8 -2.28,-24.93 5.72,-18.58 11.14,-11.41 132.29,-97.36 12.74,-16.86 7.74,-27.85 12.56,-18.23 15.14,-9.68 14.36,-4.21 85.08,-1.81 20.6,-2.87 31.54,-12.75 116.11,-66.44 60.4,-28.86 60.2,-17.52 88.79,-16.71 35.74,-6.96 30.71,-9.82 44.97,-33.56 76.78,-70.9 13.91,-6.56 18.71,-3.76 27.52,-10.07 21.65,-15.03 16.87,-13.34 9.93,-5.31 24.72,-18.55 10.65,-3.75 12.16,-1.74 45.66,14.06 26.24,3.78 121.3,43.92 71.53,31.09 363.53,179.86 37.77,30.58 18.35,17.27 5.57,26.18 -6.17,19.93 -18.03,39.39 -43.19,93.02 -5.22,21.83 v 22.78 l 38.92,167.05 11.39,57.9 9.49,53.15 21.83,35.12 22.78,17.08 49.36,20.41 46.98,9.02 8.54,5.69 2.37,8.54 -5.22,25.63 1.42,5.69 9.02,3.32 106.78,20.88 84,14.24 20.88,1.42 30.37,-10.44 42.71,4.27 18.03,2.85 36.07,3.8 12.34,-1.9 17.08,-8.07 7.59,0.47 18.03,-7.12 60.75,13.76 19.46,-4.75 35.59,6.17 65.02,48.41 93.02,88.27 15.66,10.92 114.85,70.71 5.69,3.32 2.37,1.9 v 9.49 l 8.07,12.34 8.54,30.37 -1.42,30.37 4.27,20.41 10.44,25.15 -1.9,28.47 23.25,37.02 101.08,130.51 31.32,9.97 26.58,32.75 9.49,5.22 19.93,-4.75 13.76,-4.75 39.39,12.81 26.1,12.34"
     id="path4157" />
  <text
     x="89.45"
     y="206.96"
     id="text2985"
     xml:space="preserve"
     style="font-style:normal;font-weight:normal;font-size:144px;line-height:125%;font-family:Sans;-inkscape-font-specification:Sans;letter-spacing:0px;word-spacing:0px;fill:#000000;fill-opacity:1;stroke:none"><tspan
       x="89.45"
       y="206.96"
       id="tspan1">2025 projected</tspan></text>
  <path
     style="opacity:1;fill:none;fill-opacity:1;fill-rule:nonzero;stroke:#6dabe4;stroke-width:5;stroke-linecap:butt;stroke-linejoin:round;stroke-miterlimit:4;stroke-dasharray:none;stroke-opacity:1"
     d="m 1753.72,459.95 0.19,4.87 5.81,1.69 22.28,18.73 -0.19,3.18 -4.68,3.93"
     id="path819" />
</svg>
