<?xml version="1.0" encoding="UTF-8" standalone="no"?>
<svg
   xmlns:dc="http://purl.org/dc/elements/1.1/"
   xmlns:cc="http://creativecommons.org/ns#"
   xmlns:rdf="http://www.w3.org/1999/02/22-rdf-syntax-ns#"
   xmlns:svg="http://www.w3.org/2000/svg"
   xmlns="http://www.w3.org/2000/svg"
   xmlns:xlink="http://www.w3.org/1999/xlink"
   id="svg2"
   viewBox="100, -1500, 4100, 4350"
   height="4350"
   width="4100"
   version="1.1">
  <metadata
     id="metadata8">
    <rdf:RDF>
      <cc:Work
         rdf:about="">
        <dc:format>image/svg+xml</dc:format>
        <dc:type
           rdf:resource="http://purl.org/dc/dcmitype/StillImage" />
        <dc:title></dc:title>
      </cc:Work>
    </rdf:RDF>
  </metadata>
  <defs
     id="defs6" />
  <image
     xlink:href="../../timelines/pit/./../streetmap/pitosm.png"
     id="image10"
     height="2816"
     width="2816"
     y="34"
     x="0"
     style="display:none" />
  <text
     style="font-style:normal;font-weight:normal;font-size:143.99993896px;line-height:125%;font-family:Sans;-inkscape-font-specification:Sans;letter-spacing:0px;word-spacing:0px;fill:#000000;fill-opacity:1;stroke:none"
     xml:space="preserve"
     id="text3000"
     y="-1293.0391"
     x="189.43178"><tspan
       id="tspan1"
       y="-1293.0391"
       x="189.43178">1970 proposal</tspan></text>
  <path
     id="path4499"
     d="m 1256.7381,522.54451 7.2275,-11.1375 34.2543,-65.68522 35.0757,-68.52747 -0.7547,-3.20776 -16.4162,-8.30244 -2.9248,1.79257 -33.2164,66.87225 1.4199,3.96253 12.7852,6.65948 2.2663,7.00645"
     style="fill:none;fill-rule:evenodd;stroke:#ee9e18;stroke-width:1px;stroke-linecap:butt;stroke-linejoin:round;stroke-opacity:1" />
  <path
     d="m 1385.5758,337.29609 10.9602,-3.182 106.7731,-86.9742 35.3554,-20.5061 59.3969,-49.4974 63.6396,-55.86149 26.8701,-18.3847 40.3051,-10.6066 72.832,-15.5564 14.1421,3.5355 13.435,11.3137 16.9706,28.2843 16.9706,9.1924 66.468,11.3137 16.2635,10.6066 29.6984,26.16299 25.4559,11.3137 19.0919,2.1213 25.4558,-7.0711 19.0919,-14.84919 34.6482,-32.5269 78.4889,-30.4056 59.397,-16.2635 23.3345,0.7071 45.2548,21.9203 76.3675,38.8909 24.0416,4.2427 76.3675,45.25479 62.2254,29.6985 31.8198,24.0416 23.3345,30.4056 14.8493,26.163 10.1778,40.71112"
     id="path3786-3"
     style="fill:none;stroke:#7d0d6f;stroke-width:5;stroke-linecap:butt;stroke-linejoin:round;stroke-miterlimit:4;stroke-dasharray:none;stroke-opacity:1" />
  <path
     style="fill:none;stroke:#ec2c29;stroke-width:5;stroke-linecap:butt;stroke-linejoin:round;stroke-miterlimit:4;stroke-dasharray:none;stroke-opacity:1"
     id="path2987"
     d="m 1264.4995,518.50001 21,13 6.5,3 13.5,1 10.5,-8.5 22,-42.5 24.5,-49 6.5,-33.5 -1.0509,-7.11068 1.3633,-15.16702 12.0208,-22.98097 12.3744,-14.49569 14.8492,-10.25305" />
  <path
     style="fill:none;stroke:#ec2c29;stroke-width:5;stroke-linecap:butt;stroke-linejoin:round;stroke-miterlimit:4;stroke-dasharray:none;stroke-opacity:1"
     id="path3761"
     d="m 683.49986,1936.9998 12.5,-1.5 17,-5.5 18,1 7.5,-2 6.5,-7.5 4,-12 20.5,-52 13.5,-17 47.49999,-34 22,-12 50.5,-8 33.5,-8 30.5,-20.75 12.25,-19.25 -0.5,-11.25 -18.5,-65.25 -0.5,-42.5 7,-27.25 5.5,-34.5 20,-18 2.25,-6.25 -6,-12 -15.5,-12.5 -17,-16 -20,-13.5 -15.5,-11 -12.5,-22 -12,-24 -20.5,-22 -49,-46 -10,-21 -11,-16 -3.5,-10 3,-38.5 -9.19939,-33.1951 6.45138,-38.1782 20.53481,-26.6697 3.7132,-18.957 6.19734,-18.997 13.30292,-45.003 9.5,-15 36,-29 42,-45.5 9,-8.5 5.63215,-21.01907 L 954.5,952 l 4.5,-23 5.5,-9.5 41.5,-27 10.5,-10.5 5,-14.5 v -24 l 3.5256,-6.76563 13.3977,-0.14956 3.5454,-5.0716 -3.8587,-83.04566 15.919,-86.11282 16.5748,-27.21317 40.2945,-35.22426 87.2601,-120.08268 8.806,-1.33426 14.6768,7.73867 42.8583,32.26098" />
  <path
     d="m 1388.4046,335.52889 -13.0378,1.17113 -26.18,9.37529 -17.4331,36.7196 -0.022,2.37045 17.5223,8.82365 3.098,-1.57766 25.4186,-49.76479 10.2808,-6.05697"
     id="path3790"
     style="fill:none;stroke:#7d0d6f;stroke-width:1px;stroke-linecap:butt;stroke-linejoin:round;stroke-opacity:1" />
  <path
     style="fill:none;stroke:#017ec0;stroke-width:5;stroke-linecap:butt;stroke-linejoin:round;stroke-miterlimit:4;stroke-dasharray:none;stroke-opacity:1"
     id="path2987-3"
     d="m 1072.0001,844.00003 12.5,14.5 11.5,2 10.5,-2.5 12,-13.5 11,-10 32,-3 14,-4 5,-9.5 0.5,-17 -9.5,-35 -1,-19 5,-15.5 9,-17 23.5,-14.5 19.5,-13 5,-10.5 26.12,-151.13194 1.7334,-3.06715" />
  <path
     style="fill:none;stroke:#017ec0;stroke-width:5;stroke-linecap:butt;stroke-linejoin:round;stroke-miterlimit:4;stroke-dasharray:none;stroke-opacity:1"
     id="path3757"
     d="m 983.99995,1741.9998 -1,-16 -12,-39.5 -6,-25.5 -0.5,-40 6.5,-27.5 5,-32.5 32.00015,-29 9.5,-1.5 19,9.5 45,-5.5 43.5,-18 13.5,-11.9999 28,-36.9999 70,-81 6,-22 19,-24.9999 19,-13 9,-8.5 16.5,-21 39.5,-27.5 6.5,-13.5 4.5,-28.5 -5.5,-16.5 -14,-15.5 -9.5,-25 3,-19.5 -0.5,-21 -3.5,-30.5 5,-25 3.5,-17.5 -11.5,-27.5 -2.0294,-23.8181 -5.4706,-18.18193 -6.5,-27 -13.5,-24 -19.5222,-33.1424 -4.2421,-3.3576 -4.0085,-6.2221 1.9091,-11.23267 -2.1363,-8.54522 -10,-23 -23,-34.5 -8,-19.5 -33,-30.5 -12,-23.5 2.2738,-9.49047 21.718,-26.45842 9.8386,-12.0327" />
  <path
     style="fill:none;stroke:#017ec0;stroke-width:5;stroke-linecap:butt;stroke-linejoin:round;stroke-miterlimit:4;stroke-dasharray:none;stroke-opacity:1"
     id="path3034"
     d="m 1077.5001,2739.0002 -36,-13.5 -19,-15.5 -28.50015,-23.5 -16.5,-21.5 -13,-25.5 -8.5,-38 -29,-159 -9.5,-42.5 2,-36 12,-25 39,-54.5 7,-21.5 1.5,-21.5 -5.5,-20 -11.5,-33 -6.5,-23.5 -2.5,-27.5 -5.5,-186.5 24.5,-53.5 5,-16 v -20 l -6.5,-27.5 0.5,-36 3,-21.5 10,-34.5" />
  <path
     id="path4521"
     d="m 1257.9993,522.4643 6.7861,-10.44961 32.3742,-61.73344 2.6685,-0.46698 12.8088,6.67126 4.2696,1.20083 3.469,-1.33425 57.9066,-112.27732 -1.868,-5.93741 -3.7359,-1.33426 -54.9712,19.48008 -38.6933,77.92033 1.6011,4.8033 12.6755,6.67126 2.4016,6.67126"
     style="fill:none;fill-rule:evenodd;stroke:#017ec0;stroke-width:1px;stroke-linecap:butt;stroke-linejoin:round;stroke-opacity:1" />
  <path
     style="fill:none;fill-rule:evenodd;stroke:#ee9e18;stroke-width:5;stroke-linecap:butt;stroke-linejoin:round;stroke-miterlimit:4;stroke-dasharray:none;stroke-opacity:1"
     d="m 1256.2235,519.57393 -2.5558,4.7056 -26.0395,151.04773 -3.5851,9.81197 -43.3991,26.03946 -9.4346,18.68048 -5.8494,16.60488 1.2033,20.46993 9.5799,34.45539 9.74,5.337 20.5475,14.94363 2.1348,5.33701 8.5392,21.61488 4.2696,6.67126 14.41,10.94087 4.2696,6.93811 1.0674,8.27236 -1.868,20.28063 1.868,8.53922 5.6038,8.80606 8.8061,8.00551 20.5475,19.48008 4.2696,9.07292 12.2751,45.09769 0.8006,20.8144 2.9353,12.0082 22.4154,59.7745 6.0081,28.1946 1.1724,26.7553 3.4936,15.2318 3.0916,7.1369 8.5259,22.2758 14.4881,15.6281 5.8304,19.5615 -4.9976,29.3433 -6.3507,13.8116"
     id="path4497-7" />
  <path
     d="m 1072.0002,844 -7.8018,-5.4622 -37.595,1.25477 -2.0841,4.55654 -0.1887,23.81131 -5.3774,15.53781 -10.9717,10.97172 -41.3114,26.90566 -4.83957,8.46219 -2.89612,14.79191"
     id="path3761-5"
     style="fill:none;stroke:#017ec0;stroke-width:1px;stroke-linecap:butt;stroke-linejoin:round;stroke-opacity:1" />
</svg>
