<?xml version="1.0" encoding="UTF-8" standalone="no"?>
<svg
   id="svg2"
   viewBox="-2100 -1250 5500 4000"
   height="4000"
   width="5500"
   version="1.1"
   xmlns:xlink="http://www.w3.org/1999/xlink"
   xmlns="http://www.w3.org/2000/svg"
   xmlns:svg="http://www.w3.org/2000/svg"
   xmlns:rdf="http://www.w3.org/1999/02/22-rdf-syntax-ns#"
   xmlns:cc="http://creativecommons.org/ns#"
   xmlns:dc="http://purl.org/dc/elements/1.1/">
  <metadata
     id="metadata15">
    <rdf:RDF>
      <cc:Work
         rdf:about="">
        <dc:format>image/svg+xml</dc:format>
        <dc:type
           rdf:resource="http://purl.org/dc/dcmitype/StillImage" />
      </cc:Work>
    </rdf:RDF>
  </metadata>
  <defs
     id="defs6" />
  <path
     style="fill:none;stroke:#83bc00;stroke-width:5;stroke-linejoin:round;stroke-opacity:1"
     d="m -1959.518,887.15393 40.3356,15.57042 25.5427,18.68437 44.9227,33.91391 19.641,12.05185 124.1227,41.30842 17.8004,10.7361 20.9195,21.0839 120.7987,163.272 17.6597,15.2152 22.6631,9.5318 26.0075,2.8349 40.9485,-0.8167 44.9012,-0.8213 17.379,3.5019 19.4101,10.3881 20.1862,18.9793 97.478,94.3692 10.8267,6.8583 19.0449,4.8598 202.2366,30.5795 40.90362,12.2875 176.3667,56.0381 256.13464,81.8945 24.34757,4.3939 32.45718,-3.1782 118.77029,-20.8113 43.3169,-12.2101 636.47735,-328.8244 46.79395,-23.7258 25.75629,-11.5328 30.94049,-6.2358 27.79608,-1.6791 26.78162,4.0005 35.08215,11.2431 142.59878,60.4094 406.41669,164.9784 614.4423,146.1342 12.6109,6.815 72.5906,48.7711 106.1984,70.9801 8.9026,13.3564 3.9021,22.8632 -5.7677,70.181 3.4361,27.5008 14.0533,19.8134 15.1695,6.4737 17.4176,0.4397 47.1356,-17.1617 20.1321,-5.1164 15.9309,0.4269 9.8432,5.7308 8.8296,15.1848 3.8165,17.8555 -4.1496,20.9726 -16.5867,58.7899 -11.6879,19.9515 -31.0394,28.5821 -6.9161,13.5628 -1.7589,14.4121 2.7755,11.8479 10.3554,14.7592 19.8682,18.6159 11.8014,6.5431 31.1477,0.221 197.6948,8.3836 231.878,30.1941 189.527,34.0412 248.7708,16.8298 28.433,7.8734 19.765,11.0941 17.0253,14.3886 239.8062,249.2843 37.2386,29.385 31.7776,25.0412 8.5439,17.9493 0.4848,13.4445 -5.8871,14.5556 -13.1397,9.8811 -35.8096,14.8053"
     id="path911" />
  <image
     xlink:href="../../timelines/streetmap/ymqosm.png"
     id="image12"
     height="6624.7998"
     width="10647"
     y="-2765.2"
     x="-4595.3999"
     style="display:none" />
  <path
     style="fill:none;stroke:#fddd04;stroke-width:5;stroke-linecap:butt;stroke-linejoin:round;stroke-miterlimit:4;stroke-dasharray:none;stroke-opacity:1"
     id="path3588"
     d="m 2249.5,1204 -1,37.5 -2,31 -5,15.5 -7,14 -22.5,22 -69,63.5 -30.5,27.5 -40.5,33.5 -22,11 -16,3 -38.5,-2.5 -40,-13.5 -52,-29 -73.5,-47.5 -12,-8.5" />
  <path
     style="fill:none;stroke:#f47216;stroke-width:5;stroke-linecap:butt;stroke-linejoin:round;stroke-miterlimit:4;stroke-dasharray:none;stroke-opacity:1"
     id="path2812"
     d="M 95.809249,696.17575 140,679.5 l 35,-12 23.5,-5 13.5,0.5 28.5,-7.5 23,-3 49.5,-0.5 89.5,-2 h 66 l 32,2 14.5,5.5 11.5,12 9.5,9.5 14.5,10 29.5,18.5 19.5,13 19,9 59,25.5 163.5,68 162.5,63.5 138.5,57.5 71.2707,29.33341 40.781,12.83931 12.8376,4.80997 128.4121,85.50531 60.0881,39.8289 11.4618,3.1696 17.792,6.8902 65.8223,43.1666 13.1974,12.4279 48.337,30.5288 141,92.5 81,52.5 55.5,36.5 5.5,6 2,8 -4,8 -24,39.5 -34,59 -33.5,52.5 -28.5,39 -36.5,47 -27.5,32.5 -25.5,30.5 -13.5,20 -7.5,17 -2.5,18.5 1,28.5 -2.5,14.5 -5.5,13.5 -12,15 -19,20 -20.5,22 -8,16.5 -16.5,25 -23.5,15.5 -14.5,5.5 -13.5,0.5 -15,-0.5 -12.5,-7.5 -11,-10.5 -9,-5.5 -15.5,-2.5 -15,2 -54.5,51.5 -26,18.5 -8.5,2.5 -10.5,-1.5 -36,-18.5 -104.5,-68 -27,-16 -57.5,-38 -7,-13.5 -0.5,-13.5 5,-57.5 -1,-13 -9,-11 -56,-36 -52,-33 -16.5,-6.5 -12.5,-2.5 -16,3 -27,7 -37.5,9.5 -16.5,-0.5 -19,-4 -19.5,-15 -91.5,-82 -39,-44 -44.5,-46 -47.5,-38 -103.5,-91" />
  <path
     style="fill:none;stroke:#00a650;stroke-width:5;stroke-linecap:butt;stroke-linejoin:round;stroke-miterlimit:4;stroke-dasharray:none;stroke-opacity:1"
     id="path3590"
     d="m 2113,107 -52,124 -41,99.5 -42,98.5 -15,30 -4.7134,18.14547 3.3537,17.50506 35.171,64.75037 6.6887,25.5991 -1,12.5 -8,20 -65,145 -1,25 1.5,18.5 8,25.5 4,14.5 -3,22.5 -30,69 -9,25 -16,24 -6.5,22 0.5,19 1,17.5 7,14.5 7,8.5 50.5,29 11,11.5 8.5,16 0.5,12 -2,15 -51.5,80.5 -99.5,152 -32,52.5 -13.727,8.7047 -7.7547,7.8078 -10.1281,26.6678 -8.4664,13.578 L 1670.5,1595 l -38.5,58 -11,22 -94.5,113 -8.5,15 -3,14.5 -2,13.5 3.5,13 11,10.5 37.5,23 11,3 10,2.5 13,-3 24,-25.5 9,-8.5 15.5,-2.5 13.5,0.5 7.5,2.5 8.5,10.5 20,27.5 47,41.5 20.5,24.5 7,10 4.5,19 1,25.5 -5,73.5 -8.5,103 -4.5,13 -12.5,14.5 -10.5,6.5 -113,-5.5 -9,1.5 -5.5,4 -3.5,8 -2,36.5 -1,10 -5.5,15 -10.5,16 -14.5,12 -18,10 -23,8.5 -24,4 -32.5,7 -12,8.5 -34.5,28 -25.5,17 -23.5,13.5 -8.5,7.5" />
  <text
     style="font-style:normal;font-weight:normal;font-size:144px;font-family:Sans;-inkscape-font-specification:Sans;fill:#000000;fill-opacity:1;stroke:none"
     xml:space="preserve"
     id="text3592"
     y="-1043.0391"
     x="-2010.5469"><tspan
       id="tspan1"
       y="-1043.0391"
       x="-2010.5469">2029 projected</tspan></text>
  <path
     style="fill:none;stroke:#1082ce;stroke-width:5;stroke-linecap:butt;stroke-linejoin:round;stroke-miterlimit:4;stroke-dasharray:none;stroke-opacity:1"
     id="path3586"
     d="m 1805.2078,95.47354 -22.571,47.38246 -7.7464,8.09466 -9.7632,5.99936 -11.1513,2.52723 -15.0488,-0.90293 -21.1828,-12.06175 -9.1912,-1.91346 -7.4853,1.9122 -9.0633,7.06539 -30.8632,48.90718 -22.8111,46.43002 -20.332,41.76901 -7.6493,32.78603 -4.7577,21.97933 -2.146,35.76397 -5.3947,27.14494 -30.9155,50.30613 -64.3222,109.70616 -19.0669,28.01461 -8.3352,4.03589 -12.1966,2.82506 -9.0183,2.48214 -7.3698,6.15958 -36.326,59.61323 -14,22.99999 -2.5,11.5 3,22.5 2.5,14 -2.5,11.5 -15,28.5 -77,121.5 -32.5,51 -9.0855,30.47963 -16.86,19.2699 -59.0545,51.7505 -30,49.5 -10,18.5 -16,37 -8.5,20 0.5,9.5 4,17 12,16.5 19.5,12.5 45.5,21.5 38,19.5 13,9.5 7.5,13.5 9.5,20 7,28 5,21 v 30 l -3,20.5 -8,19 -33,51 -5,19.5 -17,29 -17.5,31.5 -17.5,30.5 -28,46 -27.114,42.8156 -5.0943,18.6688 -5.2917,39.0156 -1.7988,15.689 -2.2012,26.311 -2.5,25" />
  <path
     style="fill:none;stroke:#83bc00;stroke-width:5;stroke-linejoin:round;stroke-opacity:1"
     d="m -314.3963,1517.6693 -6.86429,8.6693 -1.88919,11.4574 1.32635,8.5963 8.75657,10.4457 29.38858,29.1789 1.93563,11.6733 -3.32159,12.4507 -72.52582,104.8125 -29.48547,43.0037 -24.79459,19.8045 -116.90585,78.297 -76.15546,50.383 -17.67238,18.7978 -84.36827,56.3619 -107.34164,73.1269 -69.76,51.2556 -18.65459,6.8846 h -12.95756 l -33.2156,-10.0275 -16.28469,1.0531 -22.07272,11.0311 -17.85682,14.285 -34.9126,15.561 -83.4657,59.8869 -47.5167,35.3214 -23.9476,10.5144 -156.6866,47.6187 -28.0921,14.3606 -239.9133,169.0914 -20.0766,12.197 -46.3746,26.4226 -18.0558,8.5069 -56.0606,21.391 -24.4933,12.9297 -51.2747,20.8272 -25.6504,14.568 -72.2389,48.373"
     id="path913" />
  <path
     style="fill:none;stroke:#83bc00;stroke-width:5;stroke-linejoin:round;stroke-opacity:1"
     d="m -352.54784,1706.5132 -10.1728,30.2014 1.64805,16.1538 9.31588,16.0472 12.75911,25.5109 3.95753,17.8697 33.29218,157.1388 10.15142,25.1129 17.66919,18.3387 44.49356,39.8368 14.24778,20.6958 8.38128,18.1332 2.94495,20.6482 5.10205,141.7992"
     id="path915" />
  <path
     style="fill:none;stroke:#007061;stroke-width:5;stroke-linejoin:round;stroke-opacity:1"
     d="m 1276.2531,-229.34337 -121.289,91.48973 -5.6569,6.8198 -2.7214,6.94983 v 6.60318 l 2.7598,9.2293 100.0543,132.838032 21.0709,23.382828 22.9289,40.332214 13.4888,12.104786 65.6107,40.87274 12.598,12.89033 44.9122,69.30393 22.3496,41.67425 18.7359,19.66556 25.8766,19.95404 38.5818,24.40653 19.9777,5.5668 h 12.9021 l 30.5311,-13.83344 21.065,-7.78656 20.2706,-2.93374 34.0728,0.62935 26.4953,4.88647 54.0987,25.24886 105.1268,51.2619 24.9357,33.68584 52.3824,26.07646 153.1807,72.28109 15.4094,13.7873 57.6189,23.44165 56.9106,26.32089 6.6952,9.35257 1.6694,11.82544 -12.3694,49.80362 -19.8032,33.86987 -86.1771,197.79801 -8.9934,32.73201 -37.0861,66.60882 -26.204,43.79678 -24.3164,97.5851 -12.1621,38.7139 -7.1803,36.3158 -30.3102,31.9471 -49.7846,80.2393 -14.8501,16.1587 -48.6195,77.9171 -54.4644,86.1705 -20.3686,38.171 -23.2347,37.2052"
     id="path917" />
  <path
     style="fill:none;stroke:#007061;stroke-width:5;stroke-linejoin:round;stroke-opacity:1"
     d="m 2139.9315,551.45056 -7.481,-6.94128 -4.1588,-5.2291 1.0886,-12.46826 49.9338,-128.84488 23.731,-86.54443 100.5727,-289.775363 62.6837,-182.964307 -1.0535,-10.79873 -7.5819,-7.79186 -95.6562,-22.21796 -8.6969,-4.19766 -6.4352,-8.13047 -2.0826,-12.506 18.5463,-55.6543 20.2806,-82.966 30.8446,-77.11414 0.8795,-13.28693 -4.3656,-30.00605 1.806,-26.71837 102.7445,-429.00852 38.0363,-160.76485"
     id="path919" />
</svg>
