<?xml version="1.0" encoding="UTF-8" standalone="no"?>
<svg
   xmlns:dc="http://purl.org/dc/elements/1.1/"
   xmlns:cc="http://creativecommons.org/ns#"
   xmlns:rdf="http://www.w3.org/1999/02/22-rdf-syntax-ns#"
   xmlns:svg="http://www.w3.org/2000/svg"
   xmlns="http://www.w3.org/2000/svg"
   xmlns:xlink="http://www.w3.org/1999/xlink"
   version="1.1"
   id="svg2"
   width="5600"
   height="8000"
   viewBox="-25 -25 5600 8000">
  <metadata
     id="metadata8">
    <rdf:RDF>
      <cc:Work
         rdf:about="">
        <dc:format>image/svg+xml</dc:format>
        <dc:type
           rdf:resource="http://purl.org/dc/dcmitype/StillImage" />
        <dc:title></dc:title>
      </cc:Work>
    </rdf:RDF>
  </metadata>
  <defs
     id="defs6" />
  <image
     style="display:none"
     width="5509"
     height="8435.66"
     preserveAspectRatio="none"
     xlink:href="../basemap/stoosm.png"
     id="image10"
     x="41"
     y="-535.66" />
  <path
     style="fill:none;fill-rule:evenodd;stroke:#21b259;stroke-width:5;stroke-linecap:butt;stroke-linejoin:round;stroke-miterlimit:4;stroke-dasharray:none;stroke-opacity:1"
     d="m 1686.79,4197.24 11.31,-25.1 11.31,-15.56 10.96,-12.37 25.46,-18.74 22.98,-11.67 34.65,-11.31 32.88,-7.42 32.88,-1.41 37.83,2.83 22.63,7.42 16.26,8.84 10.25,9.9 74.6,74.6 27.93,30.76 10.61,19.8 6.72,26.16 1.41,28.28 -2.12,18.38 -4.95,25.81 -1.06,18.03 4.6,18.03 11.31,13.79 10.96,12.73 10.96,7.07 22.63,8.84 36.06,6.72 22.63,7.78 17.68,7.78 36.77,28.28 25.81,18.38 21.57,6.36 17.32,-0.71 21.57,-6.01 48.08,-2.12 h 33.23 l 21.21,6.36 58.69,28.28 20.15,15.2 10.25,6.72 13.44,3.89 42.07,2.47 10.25,1.41 33.23,16.62 136.83,41.72 14.14,6.72 12.02,7.42 9.55,1.06 6.72,-2.47 9.9,-9.9 13.08,-3.18 48.44,12.37 18.03,5.3 16.97,-2.83 36.06,-10.25 45.25,4.6 86.27,28.28 20.51,5.3 26.87,-1.77 108.89,-10.61 11.31,-3.18 8.13,-6.36 9.55,-29.34 18.03,-41.72 26.16,-72.12 7.78,-6.36 104.3,-9.55 20.51,2.12 10.61,4.95 57.98,116.32 5.3,18.38 -3.18,7.07 -11.67,10.96 -14.68,11.52 -7.32,13.62 -0.29,12.95 7.09,22.08 23.45,34.61 16.28,27.1 12.37,33.55 33.63,40.89 6.55,52.58 8.77,52.31 49.75,172.25 5.75,47.5 2.25,13.75 -10.75,21.25 -5.25,23 -6,9.75 -12,6 -26.87,10.88 -10.13,6.12 -9.25,11.75 -6.25,12.75 -2.25,14.5 2,11.75 4,13.5 17.25,26.75 1.25,13.5 -1.5,13 -24.25,45.5 -4.5,13 -1,10.5 1,22.5 -3.5,10.5 -7.5,14.5 -16.5,13.25 -22.75,14.5 -29.75,12.5 -16,4.75 -21,4 -8.75,5.25 -8.75,7.5 -7.25,13.75 -22.5,72.75 -30,45.25 -14.25,27 -13.5,30.5 -14,13.75 -45.75,26.75 -23.5,20.75 -20.5,13.25 -17,7.75 -16.5,2 -15.75,-3.5 -11.25,-4 -13.75,-10 -10.75,-13.75 -8.25,-12.25 -12,-38.25 -13.25,-27.25"
     id="path4543" />
  <path
     style="fill:none;fill-rule:evenodd;stroke:#21b259;stroke-width:5;stroke-linecap:butt;stroke-linejoin:round;stroke-miterlimit:4;stroke-dasharray:none;stroke-opacity:1"
     d="m 3637.75,5170 10.25,7.25 35.75,10 23,17.75 13.75,13.5 3,10.75 -1.75,16.5 -7.25,42.5 2.75,49.5 10.5,39.5 21,62.25 1,15.25 -2.5,39.5 -5.25,15 -6,11.25 -26.25,21.25 -43,42 -9.5,14.5 -7,17 -4.5,20.25 -3,22.25 0.5,17.75 4.25,49.5 -0.25,55 2,9.5 5.5,12.25 11.25,15.75 23,21.25 7,9.5 5.25,11.75 5.25,13.25 4.5,21.25 6.25,60.25 5,21.75 17.36,33.69"
     id="path4545" />
  <path
     style="fill:none;fill-rule:evenodd;stroke:#21b259;stroke-width:5;stroke-linecap:butt;stroke-linejoin:round;stroke-miterlimit:4;stroke-dasharray:none;stroke-opacity:1"
     d="m 3720.5,5218.5 15.5,5.5 24.75,-1.25 45.5,-5.25 52.25,0.75 12.75,2.75 12.5,5.75 7.5,6 7.25,8.5 3.75,10.75 3.25,10.75 2.25,19.25 v 14.25 l -2.75,18.25 -8,33 v 14.25 l 2.5,17.25 9,19.75 29.5,42 9.25,11.25 10.25,8 10.25,6.25 49,18 17.25,5.5"
     id="path4547" />
  <path
     style="fill:none;fill-rule:evenodd;stroke:#b56631;stroke-width:5;stroke-linecap:butt;stroke-linejoin:round;stroke-miterlimit:4;stroke-dasharray:none;stroke-opacity:1"
     d="m 3895.45,4176.73 11.67,-2.12 13.44,5.3 6.01,7.78 v 8.49 l -0.35,19.45 3.54,8.84 7.42,9.55 24.04,17.32 18.74,5.3 20.86,-0.71 46.67,7.42 16.97,8.49 7.07,12.37 22.63,43.49 8.84,8.49 8.84,8.49 24.4,10.25 22.63,16.97 10.96,11.31 10.25,12.37 24.75,13.79 9.9,12.73 20.51,7.42 19.09,16.26 16.97,7.42 58.69,18.38 h 17.32 l 24.4,-3.54 17.68,-10.25 16.97,-1.41 12.02,1.06 18.38,8.13 19.45,9.55 12.37,4.24 15.91,-0.71 15.91,-4.6 9.19,-4.6 12.02,-12.73 55.51,-53.74 16.62,-7.07 28.28,-6.01 15.2,-8.84 13.08,-14.5 8.49,-5.66 14.85,-3.54 15.56,-7.07 17.32,-20.86 20.51,-12.73 10.25,-10.25 7.78,-19.45 11.31,-9.55 7.78,-5.3 43.49,-10.25 19.8,3.18 h 11.67"
     id="path4732" />
  <text
     style="font-style:normal;font-weight:normal;font-size:144px;line-height:125%;font-family:Sans;-inkscape-font-specification:Sans;letter-spacing:0px;word-spacing:0px;fill:#000000;fill-opacity:1;stroke:none"
     xml:space="preserve"
     id="text3765"
     y="7872.96"
     x="64.45"><tspan
       id="tspan2"
       y="7872.96"
       x="64.45">1960</tspan></text>
  <text
     style="font-style:normal;font-weight:normal;font-size:144.0px;line-height:125%;font-family:Sans;-inkscape-font-specification:Sans;letter-spacing:0px;word-spacing:0px;fill:#000000;fill-opacity:1;stroke:none"
     xml:space="preserve"
     id="text3769"
     y="181.96"
     x="64.45"><tspan
       id="tspan1"
       y="181.96"
       x="64.45">1960</tspan></text>
  <path
     style="fill:none;fill-rule:evenodd;stroke:#b56631;stroke-width:1px;stroke-linecap:butt;stroke-linejoin:round;stroke-opacity:1"
     d="m 3895.45,4176.73 -66.51,62.06 -2.85,5.99 -2.08,6.78 1.84,8.36 1.86,5.31 -0.14,2.46 -4.18,2.98 -2.34,4.38 0.23,4.14 7.0,15.24 8.13,20.15 2.3,16.44 -2.47,10.78 -7.42,10.96 -13.44,7.25 -5.52,-0.54 -3.91,2.08 -5.6,13.31 -6.57,5.14 -8.39,0.56 -17.9,-7.86 -7.39,1.48 -33.09,18.02 -85.38,47.02 -9.55,8.13 -4.77,8.31 -46.85,111.9 -3.01,1.06 -7.07,-2.65"
     id="path6975" />
  <path
     style="fill:none;fill-rule:evenodd;stroke:#b56631;stroke-width:5;stroke-linecap:butt;stroke-linejoin:round;stroke-opacity:1;stroke-miterlimit:4;stroke-dasharray:none"
     d="m 3895.45,4176.73 4.3,-6.98 1.75,-10.75 -1.5,-12.5 2.25,-16.75 4,-12.25 13.75,-18 27.75,-22 20.75,-19 6,-4.25 10.5,-4.5 16.75,-1.75 14.25,8.5 25.25,26.5 10.5,21.25 19.75,13.75 5.5,2 17,-1.25 27.5,-12.5 17.25,-3.75 21.25,1.75 28.75,2.75 8.25,1.5 16,-5.75 8.25,-7.25 38.5,-50"
     id="path7593" />
  <path
     id="path4512"
     d="m 3027,5150.75 -30.75,9.25 -99.5,27.75 -49.75,14.75 -34.75,26 -18.25,12.25 -34.25,16.5 -11.75,9 -11.5,11.5 -9.75,15.25 -2.75,11.75 -2.25,16.75 6.5,35.5"
     style="fill:none;fill-rule:evenodd;stroke:#ee1d23;stroke-width:5;stroke-linecap:butt;stroke-linejoin:round;stroke-miterlimit:4;stroke-dasharray:none;stroke-opacity:1" />
  <path
     id="path6297"
     d="m 3027,5150.75 4.25,-0.94 2.9,-6.05 7.11,1.05 18.42,-1.32 58.69,-11.58 28.69,-28.95 31.84,-67.64 52.11,-79.22 39.91,-41.7 -0.43,-7.25 2.89,-4.21 291.31,-71.34 6.6,-13.14 3.42,-1.58 2.37,-4.74 -5.26,-2.37 -2.11,4.74 1.32,3.95"
     style="fill:none;fill-rule:evenodd;stroke:#ee1d23;stroke-width:1px;stroke-linecap:butt;stroke-linejoin:round;stroke-opacity:1" />
  <path
     id="path6299"
     d="m 3270.48,4907.17 -31.05,-105.8 -66.58,-103.95 17.9,-46.06 42.9,-4.21 10.26,-1.32 1.05,2.37 -2.37,10.0 -3.16,0.79 -24.21,-10.26"
     style="fill:none;fill-rule:evenodd;stroke:#ee1d23;stroke-width:1px;stroke-linecap:butt;stroke-linejoin:round;stroke-opacity:1" />
</svg>
