<?xml version="1.0" encoding="UTF-8" standalone="no"?>
<svg
   xmlns:dc="http://purl.org/dc/elements/1.1/"
   xmlns:cc="http://creativecommons.org/ns#"
   xmlns:rdf="http://www.w3.org/1999/02/22-rdf-syntax-ns#"
   xmlns:svg="http://www.w3.org/2000/svg"
   xmlns="http://www.w3.org/2000/svg"
   xmlns:xlink="http://www.w3.org/1999/xlink"
   version="1.1"
   width="9200"
   height="12100"
   id="svg2">
  <metadata
     id="metadata8">
    <rdf:RDF>
      <cc:Work
         rdf:about="">
        <dc:format>image/svg+xml</dc:format>
        <dc:type
           rdf:resource="http://purl.org/dc/dcmitype/StillImage" />
        <dc:title></dc:title>
      </cc:Work>
    </rdf:RDF>
  </metadata>
  <defs
     id="defs6" />
  <path
     style="fill:#f4f4ff;fill-opacity:1;fill-rule:evenodd;stroke:#f4f4ff;stroke-width:1.01102459px;stroke-linecap:butt;stroke-linejoin:miter;stroke-opacity:1"
     d="m -9.9944877,-9.9944877 9219.9889877,0 0,12119.9894877 -9219.9889877,0 z"
     id="path4435" />
  <path
     id="path4446"
     d="m -10,-10 9219.9995,0 0,12120 -310.2428,-4.996 -18.406,-82.884 -16.6413,-22.027 -17.0778,-62.45 0.9503,-97.881 -14.3247,-45.494 -4.644,-89.373 -28.6123,-76.358 -21.779,-33.611 -36.3871,-24.104 -26.3707,-2.756 -24.1035,7.182 -4.8196,-23.019 8.5306,-23.88 33.1871,-15.125 17.695,1.973 2.3172,14.302 35.2836,19.546 2.2738,23.52 -0.7748,7.851 12.7058,-2.347 6.6653,9.783 -9.3768,14.668 32.5968,60.136 13.8693,28.783 -6.5561,20.319 22.9545,11.219 7.8242,2.648 21.4231,-22.624 -5.651,-23.275 -6.8859,0.636 -5.706,-21.389 -6.2863,-0.721 -13.4637,-35.223 7.2592,-2.527 -4.5874,-32.044 -21.3604,-23.111 -13.097,-5.646 -50.2405,-39.368 -2.8442,-27.19 -58.1705,-1.806 -29.8697,22.158 -4.4127,50.086 7.291,8.61 -8.8835,8.402 1.2709,25.848 -12.2574,-0.25 -15.5909,-54.902 -4.4428,-54.57 8.9481,-55.784 -8.6697,-75.289 -34.4475,-45.109 -2.8953,-36.552 12.5055,-18.718 13.8425,3.382 12.8748,-19.52 8.1721,-32.805 -13.2305,-75.277 -14.3587,-76.723 -16.4478,-81.827 -26.6768,-62.399 -25.3649,-89.252 -33.6361,-83.553 -53.6086,-87.268 -56.9859,-72.527 -91.2543,-136.111 -63.3751,-80.609 -106.6465,-86.855 -38.4871,-12.016 1.2659,-17.165 -56.4827,-73.165 -73.2481,-52.054 -53.4564,3.454 -17.1421,-43.381 -18.5754,-8.24 -2.2928,-16.202 -70.6545,-86.5186 -53.5026,-21.9164 -43.5954,-44.745 -52.4103,-28.7036 -76.3036,-25.2285 -19.0576,-26.7366 -98.6536,-64.9968 -141.435,-145.6737 -82.5563,-47.0841 -52.7344,-5.901 -30.1852,7.0227 -108.2682,42.4202 10.7972,25.9044 -26.7685,14.5382 -0.8692,15.5867 -20.5839,1.6631 -84.0529,-42.6123 -17.0061,-19.7382 -37.2451,-3.9919 -23.0516,7.7908 -18.1421,-8.819 -23.3583,-62.7299 9.9328,-22.884 19.9311,-11.8913 -0.1894,-9.1454 20.3983,-11.699 7.4141,-68.8296 -51.6016,-117.8996 -53.9402,-116.0724 -45.4811,-63.1585 -51.447,-49.0758 -37.4391,-23.774 -18.4763,0.2537 -22.556,-6.9755 -20.9673,10.5029 -24.5023,-4.3606 -34.9776,8.4399 -75.0177,-9.203 -18.9738,16.245 -19.0437,-2.0853 -17.5025,4.5589 -50.4885,-7.299 -23.0151,8.4391 -3.4815,7.2192 -19.9984,-0.3679 -31.4961,10.8517 -8.5062,29.8993 -25.9991,4.9437 -31.0122,-41.5386 -33.4853,-21.8224 -98.5174,-14.0015 -17.4783,-9.6285 -21.0017,5.1057 -89.0301,-43.5745 -19.412,1.1841 -41.0006,-33.5181 -40.6556,-2.7513 -37.413,-22.5943 -22.8748,-1.4829 -11.0452,9.7066 -36.5508,-13.2298 -107.9263,-84.1231 -25.1512,1.0551 -17.2694,-28.9269 -54.229,-119.6434 -10.677,-57.7993 -26.066,-37.8921 -30.6253,1.2538 -46.2785,-31.2128 -29.907,-37.7787 -26.4433,-18.3259 -26.2519,5.2909 -39.9026,-47.5548 -26.9711,-24.1979 -14.6064,-1.0526 -31.5538,-35.4779 -25.2611,1.5145 -23.8219,-21.6347 -16.2831,2.6968 -51.4822,-24.0669 -38.2392,-35.1007 -27.0994,6.9104 -25.5932,-15.6648 -52.189,1.2841 -10.8816,10.0588 -45.2157,-5.0819 -29.9024,7.1004 -13.8299,20.2925 -22.7248,13.0195 -33.5242,-0.3483 -96.4167,-41.3661 -69.9171,4.0899 -12.2816,23.5217 -23.2579,-10.77 -30.3791,5.4184 -16.9597,-24.1832 -23.5452,-5.302 -22.269,-21.0796 -29.3708,-5.795 -25.6024,3.6805 -43.6642,-32.2452 -12.5677,0.298 -70.6881,-18.9077 -90.949,2.2742 -42.5068,-23.4985 -50.2783,-2.2165 -41.3763,9.7304 -75.0837,-5.1455 -77.4114,4.8173 -19.1513,-6.7781 -17.9187,10.9097 -59.0189,12.286 -104.5881,9.8946 -22.2864,8.8924 -34.9506,-3.1768 -14.2429,17.2566 -26.6693,-16.5556 -13.919,-57.96 -28.7981,-32.5834 -17.7196,-44.3785 -51.2739,-35.1358 -18.3721,-0.7783 -40.8899,-31.8173 -67.954,9.3225 -18.3631,-15.3554 -15.7945,-48.1533 9.0966,-5.9857 0.7891,-30.7658 62.7902,-178.6046 -4.0027,-20.3798 -23.4155,-46.7804 -15.6513,-5.7182 -14.301,-33.9682 29.4633,-93.5931 14.9248,-81.2776 -6.8402,-27.5179 -41.7758,-30.1259 -7.3666,-39.3767 -38.2875,-2.0728 7.6334,-56.4734 42.2419,-139.2712 9.6103,-105.7819 -3.0863,-95.9671 -31.1187,-75.6775 -32.3005,-5.2197 -28.106,-25.965 -36.0743,-17.7363 -22.3961,1.1786 -18.9813,-6.8476 -23.2535,11.5588 1.0554,25.3931 -15.6231,-2.8303 -37.8686,-33.2948 -85.0911,-43.9174 -80.3877,-86.1336 -0.9605,-22.0933 7.054,-30.5377 18.547,-27.2486 24.6134,-74.7223 6.3779,-80.208 -10.6531,-52.1877 -25.6688,-62.1433 -29.7979,-30.8209 -72.8433,-1.967 -30.7557,-24.8575 -58.3736,-0.7861 -69.4573,-87.6709 -81.2511,-89.0466 -44.7886,-90.6979 -15.4023,-9.2336 -45.6635,-65.1097 -59.8823,-4.4019 -13.8048,-17.3516 -39.3273,-0.4099 -62.8039,-33.2597 -14.6662,-49.6058 -30.47,-37.6386 -1.8238,-77.5305 -15.8917,-8.5753 1.1618,-24.4125 -71.9348,-80.1147 -50.3922,-55.8335 -17.1544,-28.2454 -16.6136,-4.156 -56.6386,-54.1086 -2.7857,-35.3582 -12.3002,-21.1668 4.7293,-18.5362 -53.7436,-144.5923 -61.5973,-27.3209 -44.524,-10.2634 -40.0056,-90.6937 -29.2485,-26.3075 -29.7677,-76.3675 -69.1812,-85.4446 -103.8056,-86.5816 -79.4763,-43.3031 -22.9844,0.4748 -37.3949,-31.1237 -26.9555,-59.8386 -14.9273,1.39 -36.9897,-42.0162 -24.1688,-5.9822 16.8784,-66.8369 -21.2596,-30.213 7.1332,-55.5728 -26.2883,-54.9729 4.3918,-20.7413 -38.268,-96.7285 -3.771,-72.1421 -23.8354,-23.0482 47.5187,-3.4757 -10.9542,-36.3803 2.4907,-33.3092 -26.9833,-15.899 -8.5066,15.176 -36.4909,-35.8208 18.9469,-12.0229 12.0693,-46.9903 17.0076,-0.8132 19.0885,-51.9699 17.0651,4.4563 15.8585,21.703 17.6251,9.5363 26.4186,37.0118 38.4339,-20.1575 49.1177,-72.0935 29.8674,-92.1108 5.8914,-115.4653 26.733,-103.3171 -49.4673,-118.9817 -78.8502,-141.2081 -57.4136,-54.0219 -39.177,-20.2518 -22.1814,11.5245 -44.0708,38.3496 -20.0944,-12.8371 -46.3156,-6.4647 -9.7899,9.7829 0.8857,15.5805 -22.0101,-4.566 -44.4613,10.5311 -64.9813,-17.965 -90.0102,-62.0144 -87.50262,-75.9617 -14.60504,-30.2932 -32.26098,-37.9676 -56.5172,-83.0258 -33.20399,-25.3351 -26.94888,13.2294 -12.46814,-15.0623 -2.45037,-37.3724 -34.16212,-23.4283 -9.43739,-41.9293 -22.92112,-22.793 -22.33564,2.7409 -3.27888,-17.5585 -12.44237,-13.0896 -7.04885,-57.4214 -13.85183,-26.9565 17.934,-86.4055 8.74306,-144.8709 -35.62485,-70.1143 -31.48453,-86.4926 -5.78351,-66.6266 -22.41729,-45.6466 -29.42096,-12.9389 -18.23468,2.3359 -2.40855,12.6736 -7.79116,0.328 -1.04212,-15.2894 -17.45794,-19.051 -11.44643,-45.4088 9.60657,-38.7777 -10.10281,-36.3881 2.75752,-40.7831 7.95418,-8.4489 8.35883,6.6498 15.79589,-27.7842 6.61802,-61.1646 -3.40194,-76.5698 -16.26725,-84.6965 -12.58164,-113.8901 15.25177,-15.7833 29.63204,-0.6135 9.88881,-38.52 32.21666,6.9432 41.83712,-2.7042 38.4995,-3.9745 32.67072,43.0116 6.7713,65.2795 15.54468,36.6319 21.12757,13.8073 -11.56798,25.059 -24.28899,-14.2605 6.21614,26.8572 -19.64289,5.1923 -4.98774,39.8434 21.52379,21.3152 -0.155,54.452 -17.34228,6.9992 30.79666,75.2451 22.45194,26.1446 63.52568,0.4987 19.70687,33.918 62.87024,4.1568 159.1502,134.7211 42.2705,-3.3146 18.4239,72.1411 31.1553,15.4011 73.1385,25.1669 42.4303,-24.3158 -33.2146,-63.601 -58.4584,-34.1948 -33.2905,16.6018 -16.9167,-80.4761 -40.6259,-78.1899 -19.1103,-153.1275 -73.89068,-98.2822 -25.026,15.9867 -62.46402,-71.8526 17.44747,-25.7026 -83.70876,-37.3918 -3.2835,-42.7843 -37.462,-12.5293 23.01105,-39.1535 -0.65056,-10.1374 26.15643,-10.1542 -20.41453,-80.6448 -9.61126,-30.8697 7.21022,-21.0918 -18.20323,2.389 -9.30464,-24.8719 -45.78927,-0.013 -4.585,-18.2688 -4.35736,1.196 0.49248,25.7427 -40.83575,-10.4973 3.16906,-27.6491 -39.65113,-21.3669 3.11274,-17.1187 -18.17524,-8.7426 7.6526,-8.8447 -17.22786,-27.1618 25.09065,5.4915 25.3219,17.2469 -4.84797,-28.774 44.44373,-17.3335 17.46653,-31.6799 -8.59337,-9.8635 -3.41879,-29.62 53.53573,23.3938 28.24453,-18.485 28.30341,1.2639 2.16271,-14.4885 22.92321,-10.3092 10.96075,-29.3128 18.0192,-6.1534 1.72434,-18.0382 14.1849,-4.5098 9.54512,-11.8458 45.2744,0.7316 29.88937,11.6807 13.00826,-0.443 16.3238,13.6499 12.84175,29.2804 36.80578,18.0664 121.4233,-64.8923 25.7308,6.8177 47.0544,-18.5701 372.4012,93.1102 33.8958,-9.7981 82.5594,21.724 39.2378,-12.8924 -13.1201,-25.8541 -35.9948,7.6675 -15.1042,-9.009 5.0666,-8.0982 22.7515,-5.0841 20.9917,-17.0389 6.2656,-21.2128 20.4333,-15.0704 -3.4874,-52.2888 25.8688,-13.2274 26.6994,21.3407 33.4043,-11.959 -1.53,-18.0964 26.8432,-3.2036 42.1081,14.2878 1.3392,27.0036 27.4754,20.694 7.5296,17.2357 9.449,-13.0283 -11.4165,-15.1647 -19.6636,-10.6621 -1.2,-37.7548 -65.5204,-18.6711 -30.8212,15.4375 -5.4804,21.0311 -12.5169,-3.9464 -23.3609,-13.7989 -25.5801,4.3456 -17.1331,21.6656 3.7804,46.5539 -22.068,26.0733 -31.4818,7.9722 -38.0298,26.4372 -29.4168,2.0676 -74.8353,13.3218 -17.6848,-6.9457 -15.7739,-26.5119 -11.0243,-44.0461 55.8424,17.5143 25.0695,-11.2339 70.0027,-43.8617 40.1275,-33.3272 41.175,-52.8193 11.8166,-49.9842 29.947,-51.043 6.7882,-17.7135 -7.5815,-0.3953 -43.5063,59.7528 -10.6389,47.028 -16.9727,33.4961 -60.2646,50.2296 -87.2101,54.3999 -68.4788,-24.4925 -28.6182,11.6057 -3.7163,11.1959 -50.0134,24.4801 -53.2233,-5.7448 24.3203,-13.1874 -0.1873,-18.2977 13.8339,-3.9638 4.0772,-9.6356 -7.2436,-14.2133 -94.4572,19.4855 -21.0746,-23.2682 -51.418,-21.708 56.6762,-34.8025 -11.9414,-29.5666 -20.2613,-21.5453 -85.192,13.677 -12.7225,52.7799 -77.2723,80.7569 -22.7011,41.3869 -47.4625,-2.7236 -7.5475,-19.201 -31.63591,-28.6374 -9.03366,16.3244 -59.00863,-10.7046 -22.72007,-20.6362 -21.79089,15.0283 -20.75189,5.6582 -29.11249,-52.1802 -29.80384,-30.3513 -80.03568,-48.2353 -64.88001,-26.5747 -16.4606,31.0298 -42.71462,29.2161 -84.84966,6.5624 15.35413,15.7936 4.45038,67.5222 -22.25218,81.8043 5.61039,26.2496 24.85307,18.3568 27.07169,10.5334 16.90133,20.3794 3.87903,9.7745 -12.87486,12.096 -9.03136,-4.3676 -10.0106,-7.1203 -11.75146,19.8241 -32.13489,14.3763 13.15964,6.4489 -3.76039,14.2462 4.54323,21.4027 6.90213,1.2133 1.30426,10.8318 -12.37304,8.6824 -25.82831,-14.4349 6.28589,31.6263 9.09578,10.798 35.19058,13.8421 -1.10004,23.8242 28.15729,18.4879 12.30237,-1.0558 17.38377,26.1876 -27.68531,20.8021 -10.27245,-4.6165 6.87318,21.7063 -18.06834,-15.8984 -5.79926,-11.9251 1.37227,-17.7742 -26.4477,-20.4921 -18.64765,3.4577 7.05368,32.3985 -27.59405,-17.7144 -8.47459,1.895 40.4588,41.0027 24.78504,12.6955 -2.69227,21.4084 11.51633,25.7097 -10.79259,9.3433 -40.381,16.5048 -28.41745,-8.2438 -11.2026,15.8799 -11.08991,-25.9835 -17.76726,-9.3284 -22.85941,-36.0252 -32.69503,-12.4849 -28.54803,-32.7506 -39.76203,-9.2938 -27.25902,-35.4438 -27.80357,-15.08 -29.78008,-0.056 -23.67242,14.0123 -6.26732,10.5086 -39.37849,-19.4773 -14.14882,-44.0367 -44.55213,-20.3928 -26.95821,-23.4774 -22.03124,-55.6616 -21.76345,-17.4274 -25.46721,-28.4925 -63.23521,-43.0335 -49.38215,-13.6455 -45.0693,-0.7603 -27.69368,-2.687 -25.51908,9.0732 -23.71263,24.5191 -9.56391,20.7123 2.75442,9.168 13.43405,8.0027 15.82789,7.7506 -93.0707,-7.9085 4.33169,-8.3456 14.09264,-4.614 41.93339,-111.081 42.83833,-129.8404 11.1651,-66.5202 -7.36267,-41.9553 -18.42582,-8.6956 -1.61849,-38.8262 -19.7926,-24.6795 -1.56222,-18.3022 -6.34179,-3.65493 -14.58291,-28.00662 14.42465,4.53419 22.48813,26.82665 20.6543,29.30791 13.49513,7.9296 4.48769,7.2343 2.22782,13.4384 19.70223,14.4097 40.2861,61.6079 7.44074,22.1183 62.76957,75.5833 38.88398,38.1018 16.39798,-1.6757 -23.28129,-34.9982 -20.08051,-1.4568 3.83447,-16.479 -22.64302,-5.7334 4.12164,-18.3229 -13.65867,-14.4663 -0.19752,-12.4819 -15.61816,-6.1239 -20.01,-28.9567 -49.94886,-100.3367 5.2204,-22.41081 -13.47801,18.59431 -4.11629,-1.2411 -11.22862,-15.92075 -9.35716,0.52949 -7.54044,10.14816 0.69109,-29.7735 -8.55298,-10.91885 -10.20561,7.59584 -12.72168,-2.31576 7.93426,-42.59077 -17.9006,-32.86271 -12.12761,-7.31603 -26.57904,-43.69325 -29.03139,-28.09606 -38.73226,-6.90417 z"
     style="fill:#ffffff;fill-rule:evenodd;stroke:none;stroke-width:1px;stroke-linecap:butt;stroke-linejoin:miter;stroke-opacity:1" />
  <image
     xlink:href="osm/raillayerosm.png"
     y="-204.68784"
     x="-364.31201"
     id="image4234"
     preserveAspectRatio="none"
     height="12304.688"
     width="9570.3115"
     style="display:none" />
  <image
     xlink:href="osm/osm.png"
     y="-204.68909"
     x="-364.31201"
     id="image4235"
     preserveAspectRatio="none"
     height="12304.689"
     width="9570.3115"
     style="display:none" />
  <path
     d="m 716.23034,1548.2677 10.85314,12.5688 4.15162,3.1447 17.56829,-0.1282 9.08891,0.2564 3.20041,0.6408 3.20029,1.7838 2.68832,2.3071 17.15384,28.038 17.79398,27.1408 1.66412,3.4501 3.53696,13.5543 3.6116,14.2594 4.05521,11.4715 2.09106,5.1911 1.01374,1.3351 0.82373,1.0147 2.72455,1.709 1.52078,0.8866 3.1048,1.5808 2.02761,0.8865 1.14053,0.2563 9.63108,-1.5808 4.62549,-0.769 1.71078,1.0147 0.95041,0.7584 0.63373,1.7196 2.09094,20.3369 -0.0631,3.7384 -3.80185,12.9242 -2.59787,7.9255 -0.0631,2.0828 0.0631,2.2217 2.34441,14.067 0.69705,3.3539 2.91468,4.5609 1.14053,1.8371 0.82373,2.916 -4.12175,21.1059 -0.96002,4.6036 -1.15218,4.6784 -1.15207,5.5008 0.0641,2.243 0.7041,2.0401 0.57604,0.9613 2.75231,4.2938 0.38399,0.9613 0,1.1536 -0.51205,1.1429 -8.51289,17.218 -0.51206,0.9613 -1.28012,1.1536 -1.53616,0.769 -1.4722,0.1282 -1.66422,-0.1923 -2.56027,-1.5381 -3.52029,-2.1042 -3.71246,-1.9866 -3.52039,-1.2177 -5.3126,-1.3458 -5.9526,-2.8198 -3.84042,-2.0401 -3.58438,-1.6022 -6.59272,-2.0508 -6.27264,-1.4099 -6.3367,-0.7691 -8.32095,-1.0894 -5.88862,-0.502 -8.833,-0.705 -5.88862,-0.3204 -7.48877,0.3845 -5.82464,0.5768 -19.33011,3.9627 -23.81054,4.6676 -10.24109,2.1149 -4.80054,1.5381 -4.67247,2.1149 -23.81053,13.565 -1.47731,1.0895 -3.89937,3.9093 -11.39316,11.4502 -23.29858,23.114 -0.83206,1.9119 -0.32001,2.948 0.12796,3.8452 0.83217,11.258 1.98413,25.795 0.38409,5.8319 -0.44807,1.7196 -6.14465,11.7814 -4.54451,4.0374 -5.95261,5.8213 -4.9285,4.7958 -2.43231,2.3712 -3.90439,3.0121 -3.84041,2.9373 -4.03245,2.179 -3.2004,1.9867 -2.24015,1.9867 -1.72821,2.4887 -1.28015,2.6916 -1.0882,4.4754 -0.44799,4.2938 -0.57614,4.9881 -0.89604,2.2431 -1.53616,2.3712 -6.84876,7.0389 -1.92015,1.2817 -2.56038,1.0895 -7.61673,0.1282 -3.39244,-0.1068 -1.79219,0.4486 -1.47207,1.0894 -1.66425,2.1042 -3.66345,5.6871"
     id="path3610"
     style="fill:none;stroke:#009ada;stroke-width:5;stroke-linecap:butt;stroke-linejoin:round;stroke-miterlimit:4;stroke-dasharray:none;stroke-opacity:1" />
  <path
     d="m 539.94881,1938.6119 -0.64014,0.3205 -1.21603,-0.8332 -1.15219,-0.3204 -4.86451,0.3845 -0.57604,-0.1068 -0.25602,-0.4486 -0.19205,-2.6917 -0.32,-0.4486 -19.45819,1.0254 -31.55533,1.7945 -0.32001,0.4486 0.51206,10.2432 -0.25603,0.3845 -1.02411,0.1068 -0.32011,-0.3204 -0.19205,-3.0121 0.32012,-0.3845 0.96012,-0.1068 0.25603,-0.3205"
     id="path3592"
     style="fill:none;stroke:#d31345;stroke-width:0.12498951;stroke-linecap:butt;stroke-linejoin:round;stroke-miterlimit:4;stroke-dasharray:none;stroke-opacity:1" />
  <path
     d="m 540.01278,1938.3556 -1.02411,1.9226 -1.92014,2.1683 -3.13642,3.1402 -1.85617,2.3712 -1.28014,2.8092 -0.19205,1.7944 -0.19193,5.6397 0.44797,0.6302 4.09643,2.0507 1.02411,1.2177 1.47217,3.0121 2.36823,2.1148 3.39245,1.7197 4.03245,1.6663 9.08892,2.3712 5.18451,1.4099 5.12055,-0.1068 1.85632,0 0.38397,0.5127 -0.44806,2.0401 0.3201,0.9613 0.57605,0.1282 0.51205,-0.3846 1.15217,-1.9119 0.12796,-0.4486 -0.19205,-0.2564 -1.47217,0 -0.83206,-0.5126"
     id="path3594"
     style="fill:none;stroke:#d31345;stroke-width:0.12498951;stroke-linecap:butt;stroke-linejoin:round;stroke-miterlimit:4;stroke-dasharray:none;stroke-opacity:1" />
  <path
     d="m 600.75536,1882.6641 -3.39234,0.1068"
     id="path3598"
     style="fill:none;stroke:#d31345;stroke-width:0.62494695;stroke-linecap:butt;stroke-linejoin:miter;stroke-miterlimit:4;stroke-dasharray:none;stroke-opacity:1" />
  <path
     d="m 597.55507,1882.7281 -3.07233,0.3846 -5.18463,0.1068 -1.92016,0.2563 -4.48053,1.2177 -16.19373,4.1015 -0.96011,0.4486 -0.64014,0.7691 -12.60931,1.976 -0.32001,0.769 -12.80136,0.8332 -0.38409,0.3845 0.0641,2.948 -0.19193,0.3845 -66.69526,3.6423"
     id="path3600"
     style="fill:none;stroke:#d31345;stroke-width:0.12498951;stroke-linecap:butt;stroke-linejoin:round;stroke-miterlimit:4;stroke-dasharray:none;stroke-opacity:1" />
  <path
     d="m 530.66784,1950.7671 -3.84052,7.0495 -1.02411,2.5528 -0.32001,8.0643 -0.32,11.2686 0.51205,1.6663 4.73657,6.0135 2.94425,3.7811 0.83206,0.3204 9.98507,-0.1281 0.51206,0.4486 0.12805,1.6555 0.44809,0.2564 13.69739,-0.1282 1.92026,-1.3351 4.48043,-6.601 0.44807,-1.3992 1.28014,-1.4099 2.43235,-3.7811"
     id="path3602"
     style="fill:none;stroke:#d31345;stroke-width:0.12498951;stroke-linecap:butt;stroke-linejoin:round;stroke-miterlimit:4;stroke-dasharray:none;stroke-opacity:1" />
  <path
     d="m 839.82117,1819.9443 0.19204,1.5381 0.76807,1.0788 10.5611,5.3192 3.26437,2.0508 3.39234,2.681 3.07244,3.2684 2.68823,2.4353 2.68833,1.7838 5.05102,2.2216 1.38898,0.4914 5.91415,3.2257 10.8874,6.3659 3.53952,2.6383 5.86941,4.3899 1.43373,1.442 6.62413,5.5969 7.42479,4.4861 5.6326,4.6036 7.16887,4.3579 3.07233,2.8186 7.03532,8.0579 20.10356,22.2778 33.28354,35.5896 18.17806,19.0658 1.7922,2.6917 5.8859,7.4456 3.8243,4.5921 4.3713,6.1416 20.4822,17.923 24.4506,20.8606 27.267,23.9471 29.1871,25.6028 7.1687,6.0135 3.4565,3.717 13.9535,23.0392 26.8829,42.5004 2.9442,5.6289 3.3285,7.6798 3.5844,8.4488 2.1761,3.4607 3.7125,4.4754 8.3208,9.0896 10.1132,11.6532 8.5768,11.6531 7.6808,9.0897 3.4563,5.2444 8.3209,8.0643 24.9629,24.1928 15.4895,14.8468 1.6643,2.6916 6.4007,9.2179 4.4804,4.8599 4.3525,4.2297 4.6084,3.7171"
     id="path2863"
     style="fill:none;stroke:#009ada;stroke-width:5;stroke-linecap:butt;stroke-linejoin:round;stroke-miterlimit:4;stroke-dasharray:none;stroke-opacity:1" />
  <path
     d="m 840.90924,1822.5612 -1.47207,0.1282 -1.47218,0.769"
     id="path3637"
     style="fill:none;stroke:#009ada;stroke-width:5;stroke-linecap:butt;stroke-linejoin:round;stroke-miterlimit:4;stroke-dasharray:none;stroke-opacity:1" />
  <path
     d="m 850.28025,1756.6585 0.76028,-4.0482 0.63361,-4.1229 0.57037,-2.1576 1.07709,-1.5808 1.45733,-1.5167 2.02762,-1.2711 9.37772,-3.8665 8.36389,-3.9841 6.33627,-3.2364 6.33627,-4.4968 6.0828,-4.4326 2.66122,-1.5915 2.59798,-1.5808 2.09094,-1.3993 19.43222,-11.9415 5.24861,-4.3472 3.71234,-2.948 2.56027,-2.4353 20.99424,-11.5143 6.27272,-1.9226 6.52864,-2.3072 5.76066,-3.45 2.68834,-2.0507 4.86452,-5.6397 3.58438,-6.9107 3.07233,-5.1163 3.32835,-6.7825 3.20029,-3.717 4.60849,-3.0762 4.86466,-2.4246 5.7605,-1.0254 5.7607,-0.2564 7.6808,1.4099 13.5695,2.4247 3.2004,-0.2564 5.8886,-0.3845 4.8645,0.8972 4.0964,0.5127 3.8405,-0.2564 14.9775,-4.6035 12.1614,-3.2044 19.5861,-3.9627 9.8571,-1.7944 9.6009,-0.3845 10.6252,-0.1282 7.4248,1.0254 2.9444,0 3.0723,-0.3845 3.0723,-1.2818 3.0724,-2.0508 2.1762,-2.5528 1.9202,-2.948 6.0166,-13.4368 2.0482,-6.0242 0.7681,-5.629 1.1522,-4.9988 1.6641,-4.3472 3.4564,-10.7559 1.2802,-2.4246 3.9684,-4.1016 4.2244,-4.1016 2.6884,-2.1682 38.1479,-24.7055 1.9203,-2.179 1.4081,-3.3325 0.3841,-2.5528 -0.5121,-3.4607 -2.0482,-7.167 -7.2968,-22.0246 -0.3841,-4.8599 0.512,-2.6917 1.6643,-5.8853 2.3042,-6.2698"
     id="path3057"
     style="fill:none;stroke:#009ada;stroke-width:5;stroke-linecap:butt;stroke-linejoin:round;stroke-miterlimit:4;stroke-dasharray:none;stroke-opacity:1" />
  <path
     d="m 600.81933,1936.3048 -1.79218,-24.7696 0.57614,-0.8331 -0.0641,-1.3458 0.64011,-0.705 0,-2.2324 -0.32001,-0.3204 -0.64011,-0.1282 -0.44808,-0.4486 -0.32001,-5.5115 -0.64001,-1.3351 -0.32011,-7.0496 -0.64001,-8.2565 0.44806,-0.5768"
     id="path3596"
     style="fill:none;stroke:#d31345;stroke-width:0.12498951;stroke-linecap:butt;stroke-linejoin:round;stroke-miterlimit:4;stroke-dasharray:none;stroke-opacity:1" />
  <path
     d="m 647.86447,1835.4961 -7.29683,7.4875 -13.7615,13.6291 -7.36069,7.4341 -8.68368,8.4702 -4.94986,5.0308 -9.21698,9.5382 -8.89697,9.2179 -2.68833,1.3458 -2.88028,0.6409 -1.7922,0.8224 -3.64835,2.7558 -17.53796,15.6799 -4.48041,3.7811 -4.86463,4.6677 -3.20029,3.2684 -3.77642,5.4367 -3.00836,4.0375"
     id="path2818"
     style="fill:none;stroke:#d31345;stroke-width:0.62494695;stroke-linecap:butt;stroke-linejoin:round;stroke-miterlimit:4;stroke-dasharray:none;stroke-opacity:1" />
  <path
     d="m 648.26029,1869.5903 -6.40869,6.4087 0.53406,2.6703 8.01087,9.079 4.27246,12.2833 -4.27246,33.1116 -3.73841,49.1333 -6.94275,14.9536 0,37.3843 6.94275,13.8855 11.21521,16.5558 -1.06811,5.8747 -28.30506,39.5202 -6.40869,17.0899 0,15.7363 7.47681,21.3517 15.20669,27.6882 19.54388,22.8197 10.11027,11.7388 61.95068,32.0434 16.55579,10.1471 26.16882,30.9754 11.21521,20.2942 6.94278,13.8855 29.37317,28.8391 19.22608,17.6239 22.96447,26.7029 24.56666,23.4985 37.91809,31.5094 95.59633,74.7681 72.0978,56.6101 51.8036,26.7029 77.9723,33.6456 29.3731,10.6811 42.1906,0.5341 38.4521,20.8282 13.8855,13.8855 49.1333,28.8391 7.7897,12.5077 1.0681,11.9308 4.5415,5.8322"
     id="path2987"
     style="fill:none;stroke:#ff0000;stroke-width:4.99957561;stroke-linecap:butt;stroke-linejoin:round;stroke-miterlimit:4;stroke-dasharray:none;stroke-opacity:1" />
  <path
     d="m 1049.249,1388.7102 -4.1838,1.8304 -13.3515,-3.2043 -29.3732,-16.5558 -11.21517,-10.6811 -1.06812,-12.8174 -19.22607,-21.3623 -33.11157,-6.4087 -10.1471,-3.7384 -17.6239,2.6703 -22.43042,-4.8066 -13.35145,13.3515 -17.08984,1.6022 -3.20435,18.1579 -15.48767,9.6131 -4.80652,15.4876 -11.74927,14.4196 -9.07898,3.2043 -11.21521,18.692 -15.4877,1.0682 -14.95361,-2.1363 -18.15796,16.5558 -13.35144,4.2725 -14.41956,-3.7384 -8.54492,2.6703 -6.94275,9.0789 -4.80652,71.5638 0,26.7028 6.40869,16.0218 19.76014,21.3623 20.82824,20.2942 27.23694,40.5883 11.74927,36.85 19.2261,77.4384 0.53406,12.8174 -0.53406,12.2833 -4.80651,11.7492 -6.12673,6.7832"
     id="path3159"
     style="fill:none;stroke:#007397;stroke-width:4.99957561;stroke-linecap:butt;stroke-linejoin:round;stroke-miterlimit:4;stroke-dasharray:none;stroke-opacity:1" />
  <path
     d="m 7133.8571,9006.2038 -9.613,-0.5341 -6.4087,13.3514"
     id="path5983"
     style="fill:none;stroke:#007397;stroke-width:4.99957561;stroke-linecap:butt;stroke-linejoin:round;stroke-miterlimit:4;stroke-dasharray:none;stroke-opacity:1" />
  <path
     d="m 8996.4113,11830.856 -1.2049,-2.285 -2.7717,-3.974 -2.4096,-2.659 -13.375,-10.842 -43.0152,-29.757 -18.7967,-14.708 -2.5303,-3.247 -1.0852,-5.064 0.3621,-26.382 -0.7232,-6.024 -5.5424,-16.994 -18.7967,-56.749 -0.9645,-4.336 -0.8428,-8.321 -1.6876,-6.141 -1.6865,-3.856 -3.3742,-3.739 -11.2056,-33.859 -2.7707,-8.556 -2.5304,-2.885 -25.3036,-20.966 -2.8925,-1.089 -6.5059,-1.443 -2.651,-2.167 -19.2784,-15.787 -0.9645,-1.688 -0.1207,-4.037 -0.7231,-1.571"
     id="path2987-46"
     style="fill:none;stroke:#0068b3;stroke-width:0.62494719;stroke-linecap:butt;stroke-linejoin:round;stroke-miterlimit:4;stroke-dasharray:none;stroke-opacity:1" />
  <path
     d="m 8803.0205,11531.912 -0.1806,-17.529 -0.5415,-0.961 -0.9036,-1.206 -21.4788,0 -0.4624,0.171 -0.2906,1.035 -0.5714,0.108"
     id="path3757-3"
     style="fill:none;stroke:#0068b3;stroke-width:0.12498951;stroke-linecap:butt;stroke-linejoin:round;stroke-miterlimit:4;stroke-dasharray:none;stroke-opacity:1" />
  <path
     d="m 7133.3231,9005.1356 1.0681,15.4877 -7.4768,13.8855 8.0108,50.7355 4.2725,5.3406 104.1412,42.1905 72.6319,29.3732 19.226,17.6239 30.4414,11.2152 25.1007,28.8391 0.5341,53.4058 11.7493,14.9536 95.0622,65.6891 75.3021,16.5558 42.7247,3.2043 4.8065,6.4087 3.7384,24.0326 20.2942,73.166 59.8144,27.771 2.6703,6.9427 4.8065,93.4601 6.9428,8.5449 118.0267,97.1985 105.2094,89.1881 35.2478,40.588 12.2833,21.363 2.6703,23.498 1.6021,64.621 -2.6702,48.599 14.9536,53.94 3.2043,19.226 -9.079,14.954 -12.2833,13.885 -5.3406,17.09 1.6022,12.284 25.1007,16.555 46.9971,34.714 39.5203,49.133 18.692,33.646 9.613,8.011 29.3732,13.351 53.9398,34.714 83.847,74.234 31.5098,39.52 29.9072,41.657 13.8855,11.749 32.0434,51.27 35.2478,37.918 5.3406,36.85 43.7927,63.019 33.1116,41.122 18.692,43.793 25.1007,64.087 14.4196,52.337 11.7493,19.76 1.6021,26.169 24.0326,47.531 16.5558,75.302 -4.2724,19.761 12.2833,39.52 30.4413,31.509 46.463,55.542 25.6347,1.068 2.6703,4.273 10.6812,2.67 15.4877,2.67 2.6702,11.75 -5.3405,11.749 -26.7029,16.556 -21.3623,-0.534 -38.4522,20.294 -2.6703,16.556 6.9428,18.692 -1.0681,12.817 26.7029,33.112 10.1471,30.975 -2.6703,31.509 8.0108,21.363 2.6703,12.283 15.4877,17.09 19.2261,13.885 10.1471,12.284 5.8746,16.555 0,10.148"
     id="path5985"
     style="fill:none;stroke:#007397;stroke-width:4.99957561;stroke-linecap:butt;stroke-linejoin:round;stroke-miterlimit:4;stroke-dasharray:none;stroke-opacity:1" />
  <path
     id="path4849"
     d="m 6543.9995,10959 0.5,-31 16,-5.5 11,9 22.5,-5 14,13.5 9.5,38 13.5,1.5 9,34 39.5,46.5 17.5,30 33.5,38 35,21.5 21.5,27.5 123.5,109.5 22,29.5 12,7 -11.5,6 -9.5,-10 -15.5,2.5 -18.5,-10.5 -21.5,4.5 -9,9.5 0,12 -18.5,1 -17.5,20 -5.5,-11.5 0,-6.5 -8,-11.5 -7,2.5 -7,-8.5 -10.5,-2 -13.5,-19.5 -14.5,-5.5 -2.5,-7.5 -30,-15 -5.5,-7 -9,-4.5 -8,-22 -5.5,-8.5 0,-18 -19,-14.5 -19,-35.5 -11.5,-4.5 -2,-17 -9.5,-5 0.5,-7.5 -8,-40 -15,-27 -16,-15 -5,-12.5 -8.5,-29.5 -8.5,-29 -14,-15 z"
     style="fill:#ffffff;fill-rule:evenodd;stroke:none;stroke-width:1px;stroke-linecap:butt;stroke-linejoin:miter;stroke-opacity:1" />
  <path
     id="path4851"
     d="m 6795.8916,10192.226 37.4766,1.414 15.9099,10.253 20.8597,8.839 11.3137,0 12.0208,12.021 14.1421,2.475 4.9498,4.949 2.1213,11.314 -3.5355,16.971 9.8995,9.192 13.7885,18.738 13.0815,13.789 19.799,16.617 14.4957,29.345 11.6673,1.061 7.7781,12.728 6.0104,18.384 2.8285,10.96 2.8284,10.607 -3.8891,13.082 -12.3744,10.96 -19.4454,4.949 -11.6673,-3.889 -20.1525,-12.02 -13.435,-12.375 -13.0815,-1.414 -20.5061,-8.839 -27.9307,1.414 -24.7488,-3.889 -17.3241,7.071 -40.3051,-1.767 -12.7279,-6.011 -9.8995,-8.839 -14.1421,-10.606 -18.0312,-29.699 -8.1318,-16.263 10.2531,-21.921 -4.2427,-7.424 7.7782,-3.536 0,-10.96 9.546,-4.95 -1.7678,-4.949 -9.546,-1.768 -5.6568,-27.931 1.0607,-13.435 -8.8389,-19.092 -16.9705,-5.303 -7.0711,-6.01 -2.1213,-7.779 -4.2427,-1.06 -5.3033,7.424 0,7.425 -16.2634,-15.556 -18.7384,2.121 -4.2426,-7.778 -35.0018,0.707 -12.7279,-10.253 -8.1317,-0.707 0,-13.435 -5.6569,-2.475 -27.2236,-36.063 -9.8995,-4.596 -6.7175,-17.678 32.5269,8.486 25.1023,-1.061 25.4558,2.121 26.5165,-5.656 8.4853,17.324 13.0815,3.535 2.8284,9.9 27.9307,13.788 6.7176,20.153 7.4246,2.121 19.799,-14.142 12.0208,12.374 13.0815,2.122 z"
     style="fill:#ffffff;fill-rule:evenodd;stroke:none;stroke-width:1px;stroke-linecap:butt;stroke-linejoin:miter;stroke-opacity:1" />
  <path
     id="path4853"
     d="m 5067.4995,9032 19.5,9.5 20.5,4.5 10,11 -10,16.5 -20,6 -10.5,24.5 3,7 -16.5,20.5 -28.5,0.5 -32.5,12.5 -97,1.5 -28.5,20 -45.5,15 -19.5,19 -49.5,-7 -14,7 -18.5,-7 -29,6 -20.5,-8 -22.5,6.5 -9,-9.5 -23.5,-9.5 -16,4.5 -23.5,-20 -17.5,-3 -18.5,-51.5 13.5,-24 5.5,-16.5 -14,-14.5 -4,-9 -42.5,-30.5 -19,1 -5,-5.5 16.5,-1.5 -2,-10 -5.5,-4.5 10.5,-17 40.5,7.5 24,1 44,7.5 41,26.5 18.5,6.5 20.5,-7.5 43.5,0 14,-5 10.5,7.5 25.5,15.5 18,-6 30.5,21.5 6.5,7 13.5,11 12,17 17.5,1 9,3 20,-6.5 8.5,8 11.5,2 11.5,4.5 32,-11.5 14,-23 -6.5,-13.5 15,-10.5 22,-18.5 9,5.5 17.5,-4 6.5,-6 z"
     style="fill:#ffffff;fill-rule:evenodd;stroke:none;stroke-width:1px;stroke-linecap:butt;stroke-linejoin:miter;stroke-opacity:1" />
  <path
     id="path4855"
     d="m 5870.9959,10091.817 -12.3744,-0.354 7.0711,18.385 6.0104,13.789 9.8995,-2.829 7.0711,-22.274 -4.9498,-11.667 0,-10.253 z"
     style="fill:#ffffff;fill-rule:evenodd;stroke:none;stroke-width:1px;stroke-linecap:butt;stroke-linejoin:miter;stroke-opacity:1" />
  <path
     id="path4857"
     d="m 5075.1472,10467.644 10.6066,-0.354 24.7487,-10.253 45.2549,37.477 16.9705,-3.535 14.1422,9.899 25.8094,7.425 39.598,45.962 6.0104,4.596 1.4142,7.071 -14.4957,13.788 -53.3866,10.961 -19.4454,-8.132 -16.2635,-0.707 -25.8094,-8.486 -6.7175,-8.131 -41.0122,-10.96 -30.052,-24.749 -3.182,-13.082 -9.8995,-6.717 -0.3535,-15.203 -10.9602,-25.102 27.9307,13.788 10.9602,-2.828 z"
     style="fill:#ffffff;fill-rule:evenodd;stroke:none;stroke-width:1px;stroke-linecap:butt;stroke-linejoin:miter;stroke-opacity:1" />
  <path
     id="path4958"
     d="m 4286.016,9052.3698 19.799,2.1213 1.7678,17.6777 -10.6066,18.0312 8.8388,37.8302 22.2739,14.4957 27.2236,14.4957 3.8891,2.8284 17.3241,0 22.981,-8.4853 9.8995,3.8891 -3.182,18.0312 6.0104,30.0521 7.7782,8.8388 0.7071,18.3848 -43.1335,0 -30.4056,12.0208 -15.5564,16.2635 -30.4056,15.5563 -4.5962,9.5459 -35.7089,3.5356 -6.0104,5.6568 -28.2842,-0.7071 -16.2635,8.1318 -6.364,12.0208 0,5.3033 -16.617,4.2426 -49.851,-36.0624 -22.6274,-7.0711 -6.0104,-11.3137 -12.0208,-2.8284 -1.7678,-15.2028 -19.4454,-35.0018 -8.8389,-1.7678 -18.7383,-43.1335 -13.435,-7.7782 -7.7782,-19.4454 -21.5668,-6.7175 -6.3639,-9.8995 -8.1317,-1.4142 0,-4.5962 9.5459,-8.1318 3.182,-5.6568 6.7175,-0.3536 17.6777,-4.9497 21.9203,10.253 20.5061,2.1214 14.1421,-4.2427 15.5564,1.7678 21.2132,-7.4246 18.7383,-14.8493 5.3033,-10.253 16.2634,-4.2427 36.416,9.1924 32.527,1.4142 31.4662,-7.071 2.8284,-10.9602 11.6673,0 z"
     style="fill:#ffffff;fill-rule:evenodd;stroke:none;stroke-width:1px;stroke-linecap:butt;stroke-linejoin:miter;stroke-opacity:1" />
  <path
     id="path4960"
     d="m 3861.0449,9031.1566 29.3449,24.3952 1.4142,11.3137 7.4246,9.1923 15.9099,4.2427 -33.5875,7.7782 -52.3259,-4.9498 -14.4957,11.6673 -20.1526,-6.7175 -15.9099,-10.9602 -21.2132,-5.6568 -20.5061,-10.9602 -10.253,3.5355 -16.9706,11.6673 -16.2634,-10.6066 -20.5061,3.182 5.6568,-6.0104 -3.182,-5.3033 2.8285,-5.3033 13.435,0.7071 16.617,-20.5061 14.8492,-8.1318 6.7176,-8.8388 3.1819,3.8891 10.2531,6.364 16.617,0.3535 18.7383,-9.1924 16.2635,-14.4957 8.1317,-12.3743 -2.4749,-8.4853 12.0208,4.2426 1.7678,11.3137 6.0104,7.0711 1.0607,9.1924 -7.4246,6.364 3.1819,8.4852 9.546,4.5962 12.3744,2.1213 10.253,-1.7677 4.9497,-3.5356 z"
     style="fill:#ffffff;fill-rule:evenodd;stroke:none;stroke-width:1px;stroke-linecap:butt;stroke-linejoin:miter;stroke-opacity:1" />
  <path
     id="path4962"
     d="m 5274.9995,9093.5 -29.5,1 4.5,7.5 24,9 18,0.5 30,6.5 12.5,-11.5 17.5,-8 22,-4 -7.5,-3 -25,6.5 -18.5,13.5 -15,-3 -20,0 z"
     style="fill:#ffffff;fill-rule:evenodd;stroke:none;stroke-width:1px;stroke-linecap:butt;stroke-linejoin:miter;stroke-opacity:1" />
  <text
     id="text4994-7-3"
     y="11997.961"
     x="89.45269"
     style="font-style:normal;font-weight:normal;font-size:144px;line-height:125%;font-family:Sans;-inkscape-font-specification:Sans;letter-spacing:0px;word-spacing:0px;fill:#000000;fill-opacity:1;stroke:none;stroke-width:1px;stroke-linecap:butt;stroke-linejoin:miter;stroke-opacity:1"
     xml:space="preserve"><tspan
       y="11997.961"
       x="89.45269"
       id="tspan4996-9-6">1985</tspan></text>
  <text
     id="text4994-7-3-7"
     y="206.96094"
     x="89.453125"
     style="font-style:normal;font-weight:normal;font-size:144px;line-height:125%;font-family:Sans;-inkscape-font-specification:Sans;letter-spacing:0px;word-spacing:0px;fill:#000000;fill-opacity:1;stroke:none;stroke-width:1px;stroke-linecap:butt;stroke-linejoin:miter;stroke-opacity:1"
     xml:space="preserve"><tspan
       y="206.96094"
       x="89.453125"
       id="tspan4996-9-6-5">1985</tspan></text>
</svg>
