<svg xmlns="http://www.w3.org/2000/svg" height="3000" width="3300"><path d="M129.902 254.858l46.747-8.91 4.944 5.005 22.116 37.437 4.629 14.859 9.03 44.046 25.942 120.027 10.536 24.44 61.412 109.967 1.579 7.239 1.224 13.9 34.834 85.498 8.009 26.423 6.785 8.54 16.504 14.249 9.77 13.117 18.126 29.257 24.028 50.06 63.788 100.516 24.195 25.035 29.728 29.685 9.024 27.441 26.077.15 10.523 5.182 6.831 12.386 11.085 10.21 22.8 11.156 47.662 9.786 30.152-7.224 9.895 3.61 1.873 18.081-4.65 15.167 2.233 8.276 38.212 32.493 18.957 8.731 4.5 5.649-5.216 20.664-.19 11.728 22.41 57.464" fill="none" stroke="#d6006f" stroke-linejoin="round"/><path d="M806.005 1256.198l14.44 38.285 10.441 28.086 2.558 12.954 10.313 47.655" fill="none" stroke="#d6006f" stroke-width="5" stroke-linejoin="round"/><path d="M843.757 1383.178l41.698 180.751 4.186 6.35 21.562 15.275 3.44 6.54.381 5.97-4.87 48.6 5.135 28.541 4.08 9.553 1.723 25.25-1.719 7.807 3.733 23.682 2.239 22.811 4.009 8.304 12.2-1.364 4.4 5.173-.743 9.06 3.512 14.025 25.157 51.315 3.699 21.765 7.756 10.095 23.712 7.751 7.312 2.75 58.1 58.692 167.774 166.53 4.118 1.709 9.182 7.325.465 5.407 57.22 56.15 13.427 7.163 145.309 52.412M1471.954 2248.57l124.897 46.08 15.679 7.416 3.287-.415 6.064-4.647h1.924l2.233 2.345-4.056 19.504-10.619 46.546 1.526 4.34-3.196 14.753-1.326 1.655-75.934-5.59-3.501-5.6-4.987-3.313-6.105 1.435-3.582 1.903-1.34 5.363 2.449 4.34 4.844 1.832 6.146.313 3.478-2.947 2.598-3.325M562.852 1032.69l-1.658 13.851-3.138 11.002.523 2.128 19.33 7.74 26.002 13.176 2.783-.141 10.674-19.83M526.589 978.405h-4.377l-5.506 22.835-1.667 1.819-6.118 2.072-194.573-35.652" fill="none" stroke="#d6006f" stroke-linejoin="round"/><path d="M1609.693 2384.492l-7.508 32.447-6.056 13.754-11.352-2.712-3.334 1.873-17.799 33.206" fill="none" stroke="#d6006f" stroke-linejoin="round"/><path d="M1596.13 2430.693l-13.412 21.735-3.947 11.736-2.542 1.278-12.267-1.208-.318-1.174" fill="none" stroke="#d6006f" stroke-linejoin="round"/><text style="line-height:125%;-inkscape-font-specification:Sans" y="206.961" x="89.453125" font-weight="400" font-size="144px" font-family="Sans" letter-spacing="0" word-spacing="0"><tspan y="206.961" x="89.453125">1975</tspan></text></svg>