<?xml version="1.0" encoding="UTF-8" standalone="no"?>
<svg
   xmlns:dc="http://purl.org/dc/elements/1.1/"
   xmlns:cc="http://creativecommons.org/ns#"
   xmlns:rdf="http://www.w3.org/1999/02/22-rdf-syntax-ns#"
   xmlns:svg="http://www.w3.org/2000/svg"
   xmlns="http://www.w3.org/2000/svg"
   xmlns:xlink="http://www.w3.org/1999/xlink"
   version="1.1"
   width="7700"
   height="5950"
   viewBox="0, 0, 7700, 5950"
   id="svg2">
  <metadata
     id="metadata8">
    <rdf:RDF>
      <cc:Work
         rdf:about="">
        <dc:format>image/svg+xml</dc:format>
        <dc:type
           rdf:resource="http://purl.org/dc/dcmitype/StillImage" />
        <dc:title></dc:title>
      </cc:Work>
    </rdf:RDF>
  </metadata>
  <defs
     id="defs6" />
  <image
     xlink:href=".././../basemap/rioosm.png"
     id="image10"
     height="5907.1"
     width="7772.5"
     y="-96.2"
     x="-172.5"
     style="display:none" />
  <text
     x="89.45"
     y="206.96"
     id="text3759"
     xml:space="preserve"
     style="font-style:normal;font-weight:normal;font-size:144px;line-height:125%;font-family:Sans;-inkscape-font-specification:Sans;letter-spacing:0px;word-spacing:0px;fill:#000000;fill-opacity:1;stroke:none"><tspan
       x="89.45"
       y="206.96"
       id="tspan1">1930</tspan></text>
  <text
     x="89.45"
     y="5847.96"
     id="text3763"
     xml:space="preserve"
     style="font-style:normal;font-weight:normal;font-size:144px;line-height:125%;font-family:Sans;-inkscape-font-specification:Sans;letter-spacing:0px;word-spacing:0px;fill:#000000;fill-opacity:1;stroke:none"><tspan
       x="89.45"
       y="5847.96"
       id="tspan2"></tspan></text>
  <path
     d="m 7447.5,4773 -27,66.5"
     id="path3767"
     style="fill:none;stroke:#000000;stroke-width:5;stroke-linecap:butt;stroke-linejoin:round;stroke-miterlimit:4;stroke-dasharray:none;stroke-opacity:1" />
  <path
     d="m 7467.77,4767.34 98.76,-23.93"
     id="path3769"
     style="fill:none;stroke:#000000;stroke-width:5;stroke-linecap:butt;stroke-linejoin:round;stroke-miterlimit:4;stroke-dasharray:none;stroke-opacity:1" />
  <path
     d="m 7080.56,4042.19 -22.32,-4.21 -101.38,20.76 -34.67,15.86 -61.69,40.89 -31,8 -129,13.5 -39.3,-11.95 -13.95,0.36 -58.75,12.09 -124,-15.5 -25.76,-8.83 -34.66,-26.18 -75.08,-65.49 -44.5,-20 -40,-5 -85,9 -106.5,5.5 -71,10.5 -60.5,21.5 -14.5,7 -13.5,-1 -12,-9 -79.5,-83 -21,-12 -50.5,-12.5 -81.5,-20.5 h -130.5 l -18.5,-6.5 -56.5,-34 -41,-38 -26,-24 -22.5,-5.5 -39.5,7.5 -21,5.5 -63,-16 -21,-10 -15,-16 -20,-30.5 -28.5,-30.5 -54,-34 -102.5,-69.5 -184,-120.5 -64,-38 -35,-11.5 -54.5,-8 -41.5,-14 -119.5,-64 -139.12,-65.59"
     id="path2991"
     style="fill:none;stroke:#01b1ae;stroke-width:5;stroke-linecap:butt;stroke-linejoin:round;stroke-miterlimit:4;stroke-dasharray:none;stroke-opacity:1" />
  <path
     style="fill:none;stroke:#01b1ae;stroke-width:5;stroke-linejoin:round;stroke-dasharray:none;stroke-opacity:1"
     d="m 5010.16,3624.51 -11.94,0.04 -11.44,4.13 -11.71,10.73 -10.7,8.24 -11.15,3.17 -8.61,-1.12 -9.65,-5.57 -5.58,-7.39 -1.99,-8.14 -0.5,-8.13 0.76,-8.47 4.79,-7.86 10.96,-7.8 9.53,-1.76 12.85,0.4"
     id="path552" />
</svg>
