<svg xmlns="http://www.w3.org/2000/svg" width="7600" height="5400"><text x="89.453133" y="206.96094" style="line-height:125%;-inkscape-font-specification:Sans" font-weight="400" font-size="143.99993896px" font-family="Sans" letter-spacing="0" word-spacing="0"><tspan x="89.453133" y="206.96094">1975</tspan></text><text x="89.453125" y="5297.9609" style="line-height:125%;-inkscape-font-specification:Sans" font-weight="400" font-size="144px" font-family="Sans" letter-spacing="0" word-spacing="0"/><path d="M7447.5 4773l-27 66.5M7456.5 4765l112.5-28" fill="none" stroke="#000" stroke-width="5" stroke-linejoin="round"/><path d="M7250.972 4133.444l2.528 9.607-9.607 15.674-12.134 43.482" fill="none" stroke="#fc0" stroke-width="5" stroke-linejoin="round"/><path d="M7232.264 4199.68l-3.034 5.055-9.1 6.573-2.023 12.135 3.034 8.595-2.023 3.54-7.078 2.528-7.079.505-6.067-4.045-11.124-9.1-10.112.505-6.573 6.573.506 20.73 4.045 4.045 10.112 4.045 5.056 4.045-.505 6.067-6.068 10.618-12.134 4.55-3.034 4.045-.506 13.652-9.606 8.595-9.607-1.517" fill="none" stroke="#fc0" stroke-width="1px" stroke-linejoin="round"/><path d="M6803.253 4776.834l-14.915-.253-11.377 5.056-8.342 1.77h-5.815l-7.078-5.056-3.54-5.562-.758-5.562 2.528-5.561-.759-3.792-11.123-10.365-5.814-6.068-7.585-11.882-7.584-4.045-8.342-2.528-5.056-7.33-1.77-6.068 2.275-21.994 4.55-8.343 10.113-2.78h7.331l6.32 5.055 3.54 6.826 19.213 14.41 11.629 1.264 8.848 3.034 10.87.758 10.619-6.826 21.488-8.342 8.09 1.264 9.1 5.561h8.09l6.574-4.044 6.32-10.618 10.365-5.815 7.584.759 7.331 8.342 8.343 7.332 7.837 3.792 7.837-2.023 14.915-5.561 6.573-6.826 3.034-10.87 7.584-9.102 4.045-9.354 8.343-6.825 12.134-7.332 3.792-10.112 5.057-28.314" fill="none" stroke="#9e0b0f" stroke-width="5" stroke-linejoin="round"/><path d="M7065.5 4036.5L6947 4063l-86.5 52.5-31 8-129 13.5-42.5-14-69.5 14.5-124-15.5-26.5-7-39-34-70-59.5-44.5-20-40-5-85 9-106.5 5.5-71 10.5-60.5 21.5-14.5 7-13.5-1-12-9-79.5-83-21-12-50.5-12.5-81.5-20.5h-130.5l-18.5-6.5-56.5-34-41-38-26-24-22.5-5.5-39.5 7.5-21 5.5-63-16-21-10-15-16-20-30.5-28.5-30.5-54-34-102.5-69.5-184-120.5-64-38-35-11.5-54.5-8-41.5-14-119.5-64-139.12-65.585" fill="none" stroke="#01b1ae" stroke-width="5" stroke-linejoin="round"/></svg>