<svg xmlns="http://www.w3.org/2000/svg" height="1900" width="1750"><path d="M416.013 558.534l4.48 19.585 4.082 15.556 4.38 12.72 3.888 4.263 10.394 5.766 9.126 13.768.902 4.325 1.253 6.921 4.324 5.867 16.037 14.753 45.825 47.338 29.601 31.024 4.852 6.79 17.413 30.315" fill="none" stroke="#b90707" stroke-width="5" stroke-linejoin="round"/><path d="M443.237 616.424l3.352-3.652h5.047l5.538 6.753v5.226l-4.811 5.44" fill="none" stroke="#b90707" stroke-width="5" stroke-linejoin="round"/><path d="M416.013 558.534l-7.441-26.777-10.389-28.662-3.212-21.807-7.558-29.155-4.725-43.488-6.433-34.724-6.004-28.842-22.94-38.62.161-4.345L394.63 278.2l16.168-9.484 6.871-9.395 10.267-6.204M710.814 1034.57l7.24-8.474v-4.215l-3.577-7.226-8.388-15.095-1.175-6.923 1.05-9.052-16.54-70.134-.561-7.93-.722-34.737M188.116 463.502l-4.848-.274-14.865 7.474-6.053 4.037-1.962 3.195 7.224 52.74 42.758 96.807 39.528 68.965 54.296 65.081 42.05 49.727 6.476 2.888 60.627-1.876 4.12 1.004 53.932 61.857 10.287 11.69 15.206 9.523v8.035l60.477 45.433 62.312 32.482 26.514 7.47 27.371 11.569 12.673 10.85 20.858 22.392" fill="none" stroke="#b90707" stroke-linejoin="round"/><path d="M572.57 777.525l23.89 49.416 15.22 21.203 12.603 17.225 2.859 6.416 5.73 2.585 8.455-3.374 45.021-2.59 1.793 2.378M710.814 1034.57l.728 4.421 78.639 79.337 76.053 78.765 17.101 26.334 1.525 6.648-1.177 22.157-1.356 9.424-3.3 48.615-5.572 16.453-3.009 27.55-2.754 29.81 4.625 21.896-.412 3.122" fill="none" stroke="#b90707" stroke-linejoin="round"/><path d="M876.536 1414.137l19 2.562 3.265-2.604 3.712-28.543 6.72-29.458-2.113-7.668-8.7-17.912-.312-9.65 6.27-50.803.7-6.899 8.619-7.256 10.86-26.378-1.142-5.858-19.14-25.813-12.006-8.94-11.926-26.62-106.414-148.512-1.237-5.754.31-10.412-1.883-4.85-4.086-3.834-15.382-.33-15.613 1.083-13.46 3.163-9.069-2.828-7.546-6.438" fill="none" stroke="#b90707" stroke-linejoin="round"/><path d="M883.335 1223.427l15.178 23.237 5.462 12.205 1.104 4.293" fill="none" stroke="#b90707" stroke-linejoin="round"/><text x="89.453186" y="206.96089" style="line-height:125%;-inkscape-font-specification:Sans" font-weight="400" font-size="144px" font-family="Sans" letter-spacing="0" word-spacing="0"><tspan x="89.453186" y="206.96089">1985</tspan></text><path d="M707.097 1034.57l4.445 4.421M769.782 986.225l-2.187-7.674.172-5.096 9.725-19.014 76.683-91.536 15.574-13.048 106.593-77.424 8.563-8.276 103.912-130.298 5.218-3.141 21.668-6.007 7.687-12.555 3.382-.512 30.988 16.138 1.484 2.964M767.033 988.935l2.749-2.71M907.12 1348.426l-.945 3.652-29.65 1.35-47.924 8.302-10.834 2.725-23.898 4.135-36.774 13.62-52.284 14.103-55.605 3.165-20.763-1.55-45.877-3.952-9.499 1.635-13.383 7.122-2.057 2.356-3.569 8.07M871.905 1409.102l4.63 5.035M347.311 306.46l-4.898-1.94-45.631 26.544-51.592 29.089-9.061 8.866-16.512 10.975-32.713 16.58-1.537 1.91-1.52 15.54 1.523 8.642 12.12 30.652 1.54 9.58-2.796 2.916-5.104-.483-3.014-1.83.337-3.852 3.866-4.14 3.166-1.098 1.16-3.552" fill="none" stroke="#b90707" stroke-linejoin="round"/><path d="M686.348 868.407l2.174-2.601 1.096-14.326 4.626-53.872-1.945-205.873 4.239-10.444 4.936-1.716 29.18 31.376h7.117L835.25 504.4l5.778-3.143 10.976-.317 49.814 22.121 5.021 4.577 14.949 18.513 6.128 3.557 8.533 2.193 8.525.173 49.891-12.755 12.27.68 19.196 2.067 7.778 2.923 30.662 23.411 12.414 3.29 73.94 13.41 22.761 10.762 1.018 2.807-15.08 30.597-6.052 14.803-4.232.322-76.973-44.56-2.084-4.272 3.823-21.817-2.161-3.565" fill="none" stroke="#b90707" stroke-linejoin="round"/><path d="M841.027 501.257l-98.87-29.13-10.777-.988-2.004 1.917-6.01 39.666-26.828 68.569M898.801 1414.095l2.426 3.715 21.15 2.189 7.405 2.886 40.117 17.73 75.693 21.875 8.731 1.916 2.813 4.911-7.408 22.848-47.668 38.886" fill="none" stroke="#b90707" stroke-linejoin="round"/></svg>