<?xml version="1.0" encoding="UTF-8" standalone="no"?>
<svg
   xmlns:dc="http://purl.org/dc/elements/1.1/"
   xmlns:cc="http://creativecommons.org/ns#"
   xmlns:rdf="http://www.w3.org/1999/02/22-rdf-syntax-ns#"
   xmlns:svg="http://www.w3.org/2000/svg"
   xmlns="http://www.w3.org/2000/svg"
   xmlns:xlink="http://www.w3.org/1999/xlink"
   viewBox="0 -550 1250 1150"
   height="1150"
   width="1250"
   id="svg2"
   version="1.1">
  <metadata
     id="metadata8">
    <rdf:RDF>
      <cc:Work
         rdf:about="">
        <dc:format>image/svg+xml</dc:format>
        <dc:type
           rdf:resource="http://purl.org/dc/dcmitype/StillImage" />
        <dc:title></dc:title>
      </cc:Work>
    </rdf:RDF>
  </metadata>
  <defs
     id="defs6" />
  <image
     style="display:none"
     y="-664.875"
     x="0"
     id="image10"
     xlink:href="file:///home/lexande/timelines/timelines/streetmap/../streetmap/dnkosm.png"
     preserveAspectRatio="none"
     height="2014.875"
     width="1791" />
  <path
     id="path836"
     d="m 116.54237,357.8644 54.61017,-6.4068 102.50848,-9.4576 29.59322,0.3051 18.46515,7.1504 17.10653,8.3274 65.71635,47.5602 17.83681,5.3264 17.5993,3.5266 28.02162,-2.9418 104.94915,-11.8984 110.44068,-3.661 95.49153,-1.5254 126,61.6271 9.45763,0.9153 27.15254,-4.8814 98.23727,-38.1356"
     style="opacity:1;fill:none;fill-opacity:1;fill-rule:nonzero;stroke:#f90602;stroke-width:5;stroke-linecap:butt;stroke-linejoin:round;stroke-miterlimit:4;stroke-dasharray:none;stroke-opacity:1" />
  <text
     style="font-style:normal;font-weight:normal;font-size:143.99990845px;font-family:Sans;-inkscape-font-specification:Sans;fill:#000000;fill-opacity:1;stroke:none"
     xml:space="preserve"
     id="text2838-3"
     y="-343.0391"
     x="89.453156"><tspan
       id="tspan1"
       y="-343.0391"
       x="89.453156">2015</tspan></text>

  <path
     style="opacity:0.99918;fill:none;stroke:#0069b4;stroke-width:5;stroke-linejoin:round;stroke-opacity:1"
     d="M 796.70036,-124.47922 998.15404,-244.88638"
     id="path834" />
  <path
     style="opacity:0.99918;fill:none;stroke:#0069b4;stroke-width:1;stroke-linejoin:round;stroke-miterlimit:4;stroke-dasharray:none;stroke-opacity:1"
     d="m 998.15404,-244.88638 131.96496,-77.05839 0.9229,-2.20241 -0.8398,-3.83706 -15.6493,-25.16448 -9.3402,-7.82824 -37.0407,-27.60721 -8.369,-8.14167 -41.5225,-41.73719"
     id="path837" />
  <path
     style="opacity:0.99918;fill:none;stroke:#0069b4;stroke-width:1;stroke-linejoin:round;stroke-miterlimit:4;stroke-dasharray:none;stroke-opacity:1"
     d="m 796.70036,-124.47922 -10.33096,5.36722 -16.10957,5.87293 -35.06568,10.09532 -57.57281,14.956489 -18.82218,9.706667 -18.0914,12.628814 -87.36153,79.607446 -10.872,10.341399 -9.76979,14.908759 -57.6216,130.246556 -5.39241,17.48135 -0.24604,13.30267 3.12104,13.56048 15.22465,28.76849 3.763,8.65543 2.56141,14.11102 0.39932,10.27309 1.70813,16.33694 4.70519,15.50811 -2.32063,4.07143 -35.40987,5.48797 -147.53163,24.10533 -18.07681,2.97549 -8.4822,0.82948 -2.83745,-2.06117 0.0651,-3.13966 1.59572,-1.44208 h 3.75781 l 2.70683,2.47504 4.24064,3.18303"
     id="path839" />
  <path
     style="opacity:0.99918;fill:none;stroke:#0069b4;stroke-width:1;stroke-linejoin:round;stroke-miterlimit:4;stroke-dasharray:none;stroke-opacity:1"
     d="m 500.92713,307.24996 3.35138,2.754 21.54045,-4.38525 10.9468,-4.39348 19.64932,-10.00086 14.51229,-9.17216 7.81523,-3.3019 17.2485,-4.21533 7.10067,1.1078 16.44315,7.38162 7.8785,-0.0683 97.42882,34.45999 53.60711,29.233 5.25787,0.54325 3.20159,-1.83248 3.59527,-11.84276 3.78147,-3.12803 77.9803,-16.24735 13.90479,0.30593 6.31611,0.61064 39.07513,10.27344 7.35839,0.24967 26.19207,-1.59162 8.54568,2.63125 37.11358,10.25244 23.4372,1.67705 17.0092,-11.58545 3.2594,-0.26937 4.4639,1.18799 7.7061,5.09053 3.9347,0.5879 4.2082,-2.05929 10.7147,-12.0375 4.0619,-2.17865 7.6648,1.35038 7.7037,4.34612 1.1215,2.69628 -0.543,4.39361 -3.0127,5.75926 -15.781,41.66797 v 2.75288 l 1.1888,1.78563 37.7081,10.7605 3.3196,6.2e-4 3.1095,-1.85735 2.6828,-10.03266 13.9186,-21.66345 0.9669,-2.58603 0.1321,-2.82729 -2.1532,-2.59313 -35.8315,-18.25136 -2.8692,-4.02645 -3.8905,-5.71452"
     id="path841" />
</svg>
