<svg xmlns="http://www.w3.org/2000/svg" height="2500" width="2200"><path d="M144.033 433.64l263.619-132.457 17.258-5.177 12.08 3.02 14.67 14.238 51.343 82.84 9.492 16.826 11.218 50.049 10.355 12.944 31.928 37.968 6.472 18.552 9.492 36.243-3.452 34.516 1.294 53.5-3.02 28.045-11.218 24.161-1.294 17.69 5.609 29.77-3.02 43.146 2.157 13.806 37.968 42.715 18.121 23.73 40.557 41.42 28.476 22.866 71.19 76.368 32.79 36.673 43.578 5.61 34.947 34.084 29.34 34.517 25.887 7.766 20.278.863 18.553-5.609 12.943-5.609 13.807 1.726 30.93 21.135" fill="none" stroke="#d52028" stroke-width="5" stroke-linejoin="round"/><text x="89.453148" y="206.96091" style="-inkscape-font-specification:Sans" font-weight="400" font-size="143.99990845px" font-family="Sans"><tspan x="89.453148" y="206.96091">2015</tspan></text></svg>