<?xml version="1.0" encoding="UTF-8" standalone="no"?>
<svg
   xmlns:dc="http://purl.org/dc/elements/1.1/"
   xmlns:cc="http://creativecommons.org/ns#"
   xmlns:rdf="http://www.w3.org/1999/02/22-rdf-syntax-ns#"
   xmlns:svg="http://www.w3.org/2000/svg"
   xmlns="http://www.w3.org/2000/svg"
   xmlns:xlink="http://www.w3.org/1999/xlink"
   id="svg2"
   height="4000"
   viewBox="-50 0 2550 4000"
   width="2550"
   version="1.1">
  <metadata
     id="metadata8">
    <rdf:RDF>
      <cc:Work
         rdf:about="">
        <dc:format>image/svg+xml</dc:format>
        <dc:type
           rdf:resource="http://purl.org/dc/dcmitype/StillImage" />
        <dc:title></dc:title>
      </cc:Work>
    </rdf:RDF>
  </metadata>
  <defs
     id="defs6" />
  <image
     xlink:href="../streetmap/ledosm.png"
     id="image10"
     height="4058"
     width="3550.75"
     y="-23.917007"
     x="-1022.667"
     style="display:none" />
  <path
     style="fill:none;stroke:#009a57;stroke-width:5;stroke-linecap:butt;stroke-linejoin:round;stroke-miterlimit:4;stroke-dasharray:none;stroke-opacity:1"
     id="path3759"
     d="m 1922.026,3019.2771 -7.9593,-15.0382 -31.0958,-63.7357 -25.0604,-52.6748 -53.3501,-114.3316 -10.5325,-27.2918 -15.0184,-25.8168 -31.7992,-42.6308 -76.9396,-113.2574 -30.9683,-44.5318 -51.296,-75.9364 -62.347,-90.7897 -23.7134,-33.9937 -27.3389,-27.3768 -21.0404,-9.8684 -56.2198,-19.169 -93.1938,-38.2929 -63.1595,-31.0667 -132.9841,-28.4746 -73.678,-17.9757 -76.83151,-5.5243 -95,-35 -192,-79 -89.03181,-35.6694 -90.2041,-22.6958 -93.24542,-18.717 -29.56917,-11.932 -20.339,-11.3377" />
  <path
     style="fill:none;stroke:#0979b9;stroke-width:5;stroke-linecap:butt;stroke-linejoin:round;stroke-miterlimit:4;stroke-dasharray:none;stroke-opacity:1"
     id="path3772"
     d="m 929.45151,1672.8429 67.14054,195.2895 56.88515,219.2568 3.7233,25.9476 0.2518,25.4396 -3.4491,17.8125 -7.7357,25.2071 -5.2103,17.2103 -9.3983,11.3442 -25.6885,24.7279 -5.6282,9.3295 -13.84221,39.592 -1,13.5 14.30561,60.7389 0.777,25.4682 -15.30878,35.3374 -17.02224,44.2389 -16.04449,40.0317 -1.48093,21.7167 5.27383,21.4682 12.5,31 5,27 7.24523,140.2839 -4.80775,30.0959 -1.43748,23.1202 -2.75159,21.7421 -0.96613,15.9728 2.79384,19.9808 13.42385,62.6594 -0.44338,40.2913 -8.05659,42.8536 0.21663,28.9809 4.24523,32.0445 10.01272,72.3184 9.78653,57.9962 0.7389,23.16 3.2293,212.5032 2.7389,31.0762 6.4428,34.758 5.2135,19 5.7081,11.2296 64.8173,63.2354 35.3342,34.2802 47.24,49.2926 30.2759,26.1248 15,7 20.4942,8.4447 16.5995,4.1583 13.2295,1.489 83.6577,-17.8722 18.4524,1.4714 18.3219,8.4608 16.2448,15.348 6,21 6,22.5" />
  <text
     style="font-style:normal;font-weight:normal;font-size:144px;line-height:125%;font-family:Sans;-inkscape-font-specification:Sans;letter-spacing:0px;word-spacing:0px;fill:#000000;fill-opacity:1;stroke:none"
     xml:space="preserve"
     id="text3776-5"
     y="206.96094"
     x="39.453125"><tspan
       id="tspan1"
       y="206.96094"
       x="39.453125">1980</tspan></text>
  <path
     d="m 1935.4997,361.50005 -15.7802,48.35328 -12.0063,20.03814 -78.9111,82.62129 -59.9265,60.81421 -22.1116,26.89607 -61.9396,144.74523 -27.0382,74.44227 -44.1149,103.59269 -13.2579,12.43008 -22.0971,10.96899 -52.0368,19.88816 -13.7846,6.5157 -14.8007,2.29651 -41.5149,-4.30943 -14.5374,2.17175 -18.5958,10.2324 -38.2885,20.03201 -13.0413,16.0127 -8.1872,12.1225 -4.9038,14.1969 0.1777,31.4971 -4.0625,35.2584 -7.9956,41.0426 -4.7357,12.4555 -4.6264,11.6128 -10.1797,22.1603 -15.3154,18.4718 -20.011,18.3088 -57.7547,50.9465 -31.0442,31.0282 -24.0781,52.1565 -3,14.5 -3.4962,14.4054 4.5037,20.6054 32.6323,50.8621 8.8728,24.2225 -1.1657,95.6212 -0.8405,56.3247 18.6124,72.8527 14.8812,40.106 9.5032,34.2135 6.9968,28.7865 7.7421,45.0095 14.2579,84.4905 8.5,51.5 31.6315,82.8456 4.7186,19.2339 0.064,17.0947 -33.663,76.5615 -10.7961,19.5254 -6.3424,16.5354 -11.7308,12.9611 -78.2102,34.9013 -24.6562,13.3665 -43.2776,37.2966 -25.9125,14.4416 -49.7718,20.5933 -35.9406,16.8016 -18.12455,15.2323 -16.9571,22.3544 -14.3215,37.9328 -15.9946,39.3205 -29.5801,33.7396 -18.6584,13.8991 -200.77143,60.1092 -28.65942,12.284 -10.08624,7.9051 -18.23248,26.5389 -3.22712,11.5256 -9,39 -22.98411,86.0064 -24.73252,95.2929 -3.67532,18.2743 -31.83422,78.4264 -22.26232,45.5629 -5.58285,12.8403 -5.03968,15.9388 -0.51156,21.9687 0.45928,15.4821 21.89582,104.347 9.91534,72.7175 6.82869,20.611 19.30682,21.7738 13.65809,17.1738 3.42036,13.0559 3.42473,63.0155 0.71345,32.0127 -2,59.5 -5.5,22 -26.31857,24.5697 -20.75452,12.1755 -31.42691,11.2548 -30,3 -19.5,-7"
     id="path3774"
     style="fill:none;stroke:#e3173c;stroke-width:5;stroke-linecap:butt;stroke-linejoin:round;stroke-miterlimit:4;stroke-dasharray:none;stroke-opacity:1" />
</svg>
