<?xml version="1.0" encoding="UTF-8" standalone="no"?>
<svg
   version="1.1"
   id="svg2"
   width="2550"
   height="3450"
   viewBox="-1050 0 2550 3450"
   xmlns:xlink="http://www.w3.org/1999/xlink"
   xmlns="http://www.w3.org/2000/svg"
   xmlns:svg="http://www.w3.org/2000/svg"
   xmlns:rdf="http://www.w3.org/1999/02/22-rdf-syntax-ns#"
   xmlns:cc="http://creativecommons.org/ns#"
   xmlns:dc="http://purl.org/dc/elements/1.1/">
  <metadata
     id="metadata8">
    <rdf:RDF>
      <cc:Work
         rdf:about="">
        <dc:format>image/svg+xml</dc:format>
        <dc:type
           rdf:resource="http://purl.org/dc/dcmitype/StillImage" />
      </cc:Work>
    </rdf:RDF>
  </metadata>
  <defs
     id="defs6" />
  <image
     xlink:href="../basemap/tynosm.png"
     style="display:inline"
     y="-600"
     x="-966.38"
     id="image12"
     preserveAspectRatio="none"
     height="4262.15"
     width="3729.38" />
  <path
     style="fill:none;stroke:#ff3800;stroke-width:5;stroke-linejoin:round;stroke-miterlimit:4;stroke-dasharray:none;stroke-opacity:1"
     d="m 519.42,105.02 2.51,113.29 2.14,75.36 -3.05,14.08 -9.31,28.05 v 16.47 l -3.11,123.01 -2.08,214.56 0.44,30.58 -12.17,55.5 -8.56,115.63 -5.73,86.73 -1.06,60.95 1.65,32.47 13.89,79.41 2.2,27.61 1.31,70.11 7.2,279.57 0.85,161.06 -0.42,314.6 -0.44,72.03 -8.36,205.09 2.01,42.57 16.5,145.69 13.01,52.05 14.62,44.87 1.76,26.28 -3.2,36.1 2.84,23.11 16.25,39.31 6.99,33.68 21.11,138.01 1.46,41.82 -3.58,81.14 -4.4,120.94 -5.12,44.99 -15.87,50.79 -17.81,51.25 -31.87,66.7"
     id="path855" />
  <text
     x="-960.55"
     y="206.96"
     id="text3780"
     xml:space="preserve"
     style="font-style:normal;font-weight:normal;font-size:144px;line-height:125%;font-family:Sans;-inkscape-font-specification:Sans;letter-spacing:0px;word-spacing:0px;fill:#000000;fill-opacity:1;stroke:none"><tspan
       x="-960.55"
       y="206.96"
       id="tspan1">2020</tspan></text>
</svg>
